<?xml version="1.0" encoding="iso-8859-1"?>
<!-- Uploaded to: SVG Repo, www.svgrepo.com, Generator: SVG Repo Mixer Tools -->
<!DOCTYPE svg PUBLIC "-//W3C//DTD SVG 1.1//EN" "http://www.w3.org/Graphics/SVG/1.1/DTD/svg11.dtd">
<svg fill="#000000" height="800px" width="800px" version="1.1" id="Capa_1" xmlns="http://www.w3.org/2000/svg" xmlns:xlink="http://www.w3.org/1999/xlink" 
	 viewBox="0 0 442.476 442.476" xml:space="preserve">
<path d="M415.47,272.013c17.035-25.006,27.006-55.191,27.006-87.664c0-86.074-70.026-156.1-156.099-156.1
	c-84.232,0-153.084,67.064-155.992,150.6H75.1l-15.391-18.254c-1.045-1.239-2.583-1.955-4.205-1.955H5.5
	c-2.14,0-4.085,1.241-4.987,3.182c-0.902,1.94-0.597,4.228,0.782,5.864l14.05,16.664L1.295,201.012
	c-1.379,1.636-1.685,3.923-0.783,5.864c0.902,1.94,2.848,3.182,4.987,3.182h50.003c1.621,0,3.16-0.715,4.205-1.955L75.1,189.849
	h55.285c1.058,30.378,10.831,58.578,26.9,82.166l-22.292,135.822c-0.262,1.593,0.19,3.22,1.235,4.451
	c1.045,1.23,2.578,1.94,4.192,1.94h291.916c1.614,0,3.147-0.709,4.192-1.94s1.497-2.858,1.235-4.451L415.47,272.013z M52.947,169.64
	l7.765,9.209H25.096l-7.764-9.209H52.947z M52.947,199.057H17.332l7.764-9.208h35.616L52.947,199.057z M171.906,189.849
	c2.88,60.65,53.121,109.106,114.471,109.106c63.194,0,114.606-51.412,114.606-114.606c0-63.194-51.412-114.605-114.606-114.605
	c-61.35,0-111.591,48.456-114.471,109.106h-30.514c2.903-77.469,66.819-139.6,144.985-139.6c80.008,0,145.099,65.091,145.099,145.1
	s-65.091,145.1-145.099,145.1c-78.166,0-142.082-62.131-144.985-139.6H171.906z M213.493,189.849
	c2.825,37.752,34.422,67.612,72.883,67.612c40.314,0,73.112-32.798,73.112-73.112c0-40.314-32.798-73.112-73.112-73.112
	c-38.462,0-70.059,29.86-72.884,67.612h-30.576c2.869-54.582,48.176-98.106,103.459-98.106c57.129,0,103.606,46.477,103.606,103.605
	c0,57.129-46.478,103.606-103.606,103.606c-55.283,0-100.59-43.524-103.459-98.106H213.493z M255.248,189.849
	c2.612,14.82,15.571,26.118,31.129,26.118c17.435,0,31.619-14.184,31.619-31.619c0-17.434-14.184-31.618-31.619-31.618
	c-15.558,0-28.517,11.298-31.129,26.118h-30.726c2.794-31.68,29.461-56.612,61.855-56.612c34.249,0,62.112,27.863,62.112,62.112
	c0,34.249-27.863,62.112-62.112,62.112c-32.394,0-59.06-24.931-61.855-56.612H255.248z M286.377,178.849h-19.851
	c2.415-8.703,10.388-15.118,19.85-15.118c11.369,0,20.619,9.249,20.619,20.618c0,11.369-9.25,20.619-20.619,20.619
	c-9.462,0-17.435-6.415-19.85-15.118h19.851c3.038,0,5.5-2.462,5.5-5.5S289.415,178.849,286.377,178.849z M146.896,403.227
	l19.545-119.082c28.657,34.382,71.782,56.303,119.936,56.303c48.154,0,91.28-21.922,119.937-56.305l19.545,119.084H146.896z"/>
</svg>