<?xml version="1.0" encoding="iso-8859-1"?>
<!-- Uploaded to: SVG Repo, www.svgrepo.com, Generator: SVG Repo Mixer Tools -->
<!DOCTYPE svg PUBLIC "-//W3C//DTD SVG 1.1//EN" "http://www.w3.org/Graphics/SVG/1.1/DTD/svg11.dtd">
<svg fill="#000000" height="800px" width="800px" version="1.1" id="Capa_1" xmlns="http://www.w3.org/2000/svg" xmlns:xlink="http://www.w3.org/1999/xlink" 
	 viewBox="0 0 442.62 442.62" xml:space="preserve">
<path d="M441.972,110.281c-0.107-1.753-1.053-3.399-2.62-4.358c-2.165-1.325-4.951-0.995-6.748,0.792
	c-9.963,9.907-23.173,15.357-37.217,15.357c-0.049,0-0.1,0-0.149,0c-11.223-0.031-22.036-3.623-31.011-10.192l3.288-3.288
	c0.876-0.875,1.43-2.02,1.574-3.25l2.84-24.257h16.825c3.037,0,5.5-2.462,5.5-5.5V53.866c0-3.038-2.463-5.5-5.5-5.5h-21.719
	c-3.037,0-5.5,2.462-5.5,5.5v16.825l-24.257,2.841c-1.229,0.144-2.374,0.699-3.249,1.574l-3.288,3.288
	c-6.57-8.975-10.162-19.788-10.193-31.011c-0.039-14.099,5.415-27.368,15.356-37.365c1.78-1.79,2.107-4.559,0.802-6.72
	c-0.928-1.538-2.52-2.484-4.23-2.634c-34.528-3.686-68.573,8.114-93.406,32.381c-24.876,24.309-37.471,58.083-34.555,92.665
	c0.206,2.445,2.007,4.458,4.413,4.934c0.357,0.071,0.715,0.105,1.069,0.105c2.03,0,3.935-1.128,4.89-2.986
	c2.729-5.31,6.259-10.148,10.491-14.38c20.646-20.647,52.785-22.468,75.471-5.096l-8.935,8.935
	c-1.032,1.032-1.611,2.431-1.611,3.889s0.579,2.858,1.611,3.889l1.188,1.188l-4.157,4.157c-4.871-1.201-10.234,0.08-14.033,3.879
	c-3.799,3.799-5.081,9.162-3.88,14.033l-5.914,5.914c-4.87-1.201-10.234,0.08-14.032,3.879c-3.798,3.798-5.08,9.16-3.881,14.03
	L21.5,397.784h-16c-3.037,0-5.5,2.462-5.5,5.5c0,21.689,17.646,39.335,39.336,39.335c3.037,0,5.5-2.462,5.5-5.5v-16.003
	l225.702-225.703c1.17,0.288,2.366,0.45,3.565,0.45c3.791,0,7.582-1.443,10.468-4.329c3.798-3.798,5.08-9.159,3.881-14.029
	l5.917-5.917c1.169,0.288,2.363,0.449,3.56,0.449c3.791,0,7.582-1.443,10.468-4.329c3.798-3.798,5.08-9.159,3.881-14.028l4.16-4.16
	l1.186,1.186c1.073,1.074,2.481,1.611,3.889,1.611s2.815-0.537,3.889-1.611l8.936-8.936c17.371,22.688,15.549,54.825-5.097,75.471
	c0,0-0.001,0-0.001,0c-4.23,4.231-9.069,7.761-14.38,10.492c-2.182,1.122-3.357,3.553-2.881,5.959
	c0.477,2.406,2.489,4.207,4.934,4.413c3.284,0.277,6.557,0.414,9.819,0.414c31.088,0,60.846-12.456,82.846-34.969
	C433.812,178.748,445.611,144.767,441.972,110.281z M308.658,141.743l-2.645,2.645l-7.778-7.779l2.645-2.645L308.658,141.743z
	 M285.077,165.325l-2.889,2.889l-7.778-7.778l2.889-2.889L285.077,165.325z M33.836,431.084c-11.221-2.216-20.084-11.079-22.3-22.3
	h22.3V431.084z M39.336,397.784h-2.281L253.469,181.37l7.778,7.779L44.836,405.561v-2.277
	C44.836,400.247,42.373,397.784,39.336,397.784z M276.793,183.757c-1.483,1.482-3.896,1.484-5.382,0l-12.548-12.548
	c-1.483-1.483-1.483-3.897,0-5.381c0.742-0.742,1.717-1.113,2.691-1.113c0.974,0,1.948,0.371,2.69,1.113l12.547,12.548
	c0.001,0,0.001,0,0.001,0C278.276,179.859,278.276,182.273,276.793,183.757z M300.619,159.93c-1.483,1.483-3.896,1.484-5.382,0
	l-12.548-12.548c-1.483-1.483-1.483-3.897,0-5.381c0.742-0.742,1.717-1.113,2.691-1.113c0.974,0,1.948,0.371,2.69,1.113
	l12.547,12.548c0.001,0,0.001,0,0.001,0C302.103,156.033,302.103,158.447,300.619,159.93z M372.535,59.366h10.719v10.719h-10.719
	V59.366z M359.484,92.783l-9.647-9.646l10.926-1.28L359.484,92.783z M264.9,85.557c-17.864,0.29-34.662,7.409-47.299,20.046
	c-0.75,0.75-1.482,1.516-2.194,2.298c1.925-25.204,12.91-48.969,31.351-66.989c19.773-19.322,45.992-29.911,73.293-29.911
	c0.256,0,0.512,0.001,0.769,0.003c-7.362,10.621-11.307,23.214-11.271,36.409c0.038,14.137,4.737,27.743,13.328,38.845
	l-14.191,14.192C296.287,90.553,280.947,85.315,264.9,85.557z M321.512,139.038l-17.93-17.929l34.336-34.336l17.93,17.929
	L321.512,139.038z M401.709,195.862c-18.021,18.441-41.786,29.427-66.99,31.352c0.782-0.713,1.548-1.445,2.299-2.195l-0.001,0
	c12.638-12.637,19.757-29.435,20.047-47.299c0.26-16.032-4.996-31.387-14.893-43.785l14.192-14.192
	c11.102,8.591,24.708,13.289,38.845,13.328c0.06,0,0.119,0,0.18,0c13.129,0,25.656-3.942,36.229-11.271
	C431.818,149.378,421.212,175.904,401.709,195.862z"/>
</svg>