<?xml version="1.0" encoding="iso-8859-1"?>
<!-- Uploaded to: SVG Repo, www.svgrepo.com, Generator: SVG Repo Mixer Tools -->
<!DOCTYPE svg PUBLIC "-//W3C//DTD SVG 1.1//EN" "http://www.w3.org/Graphics/SVG/1.1/DTD/svg11.dtd">
<svg fill="#000000" height="800px" width="800px" version="1.1" id="Capa_1" xmlns="http://www.w3.org/2000/svg" xmlns:xlink="http://www.w3.org/1999/xlink" 
	 viewBox="0 0 463.7 463.7" xml:space="preserve">
<g>
	<path d="M156.72,308.553c1.627,1.001,3.655,1.087,5.359,0.228l69.771-35.168l69.77,35.168c0.78,0.394,1.629,0.589,2.476,0.589
		c1.002,0,2.003-0.274,2.884-0.817c1.626-1.001,2.616-2.774,2.616-4.683V72.863c0-3.038-2.463-5.5-5.5-5.5H159.604
		c-3.037,0-5.5,2.462-5.5,5.5V303.87C154.104,305.779,155.094,307.552,156.72,308.553z M165.104,78.363h133.491v216.576
		l-64.27-32.396c-1.557-0.785-3.395-0.785-4.951,0l-64.271,32.396V78.363z"/>
	<path d="M344.344,22.601h-94.612V5.5c0-3.038-2.463-5.5-5.5-5.5h-24.76c-3.037,0-5.5,2.462-5.5,5.5v17.101h-94.616
		c-3.037,0-5.5,2.462-5.5,5.5v24.762c0,3.038,2.463,5.5,5.5,5.5h14.748v277.986c0,1.909,0.99,3.682,2.616,4.683
		c1.627,1.001,3.655,1.087,5.359,0.228l71.893-36.238V458.2c0,3.038,2.463,5.5,5.5,5.5h24.76c3.037,0,5.5-2.462,5.5-5.5V305.024
		l71.888,36.236c0.78,0.394,1.629,0.589,2.476,0.589c1.002,0,2.002-0.274,2.884-0.817c1.626-1.001,2.616-2.774,2.616-4.683V58.363
		h14.749c3.037,0,5.5-2.462,5.5-5.5V28.101C349.844,25.063,347.381,22.601,344.344,22.601z M224.972,11h13.76v11.601h-13.76V11z
		 M238.732,452.7h-13.76V299.477l6.878-3.467l6.882,3.469V452.7z M318.595,327.417l-84.27-42.477
		c-0.778-0.393-1.627-0.589-2.476-0.589s-1.697,0.196-2.476,0.589l-84.271,42.477V58.363h173.491V327.417z M338.844,47.363H124.856
		V33.601h213.988V47.363z"/>
	<path d="M262.32,223.616c1.045-1.252,1.481-2.902,1.19-4.507l-3.903-21.509l21.508,3.903c1.604,0.29,3.256-0.145,4.507-1.189
		c1.252-1.045,1.976-2.592,1.976-4.222v-52.498c0-1.63-0.724-3.177-1.976-4.222c-1.251-1.045-2.902-1.479-4.507-1.189l-21.508,3.904
		l3.903-21.509c0.291-1.604-0.146-3.255-1.19-4.507c-1.045-1.251-2.591-1.975-4.222-1.975h-52.497c-1.631,0-3.177,0.724-4.222,1.975
		c-1.045,1.252-1.481,2.903-1.189,4.507l3.903,21.509l-21.509-3.904c-1.606-0.29-3.256,0.145-4.507,1.189
		c-1.252,1.045-1.976,2.592-1.976,4.222v52.498c0,1.63,0.724,3.177,1.976,4.222c1.251,1.045,2.9,1.479,4.507,1.189l21.509-3.903
		l-3.903,21.509c-0.292,1.604,0.145,3.255,1.189,4.507c1.045,1.251,2.591,1.975,4.222,1.975h52.497
		C259.729,225.591,261.275,224.868,262.32,223.616z M248.889,186.882c-1.276,1.276-1.845,3.096-1.523,4.871l4.145,22.838h-39.321
		l4.145-22.838c0.322-1.775-0.246-3.595-1.522-4.871c-1.275-1.275-3.097-1.846-4.871-1.522l-22.838,4.145v-39.322l22.838,4.145
		c1.777,0.323,3.597-0.247,4.871-1.522c1.276-1.276,1.845-3.096,1.522-4.871l-4.145-22.838h39.321l-4.145,22.838
		c-0.321,1.775,0.247,3.595,1.523,4.871c1.274,1.275,3.093,1.846,4.871,1.522l22.837-4.145v39.322l-22.837-4.145
		C251.984,185.037,250.165,185.607,248.889,186.882z"/>
</g>
</svg>