<?xml version="1.0" encoding="iso-8859-1"?>
<!-- Uploaded to: SVG Repo, www.svgrepo.com, Generator: SVG Repo Mixer Tools -->
<!DOCTYPE svg PUBLIC "-//W3C//DTD SVG 1.1//EN" "http://www.w3.org/Graphics/SVG/1.1/DTD/svg11.dtd">
<svg fill="#000000" height="800px" width="800px" version="1.1" id="Capa_1" xmlns="http://www.w3.org/2000/svg" xmlns:xlink="http://www.w3.org/1999/xlink" 
	 viewBox="0 0 471.477 471.477" xml:space="preserve">
<g>
	<path d="M393.981,242.988c-42.732,0-77.497,34.765-77.497,77.496c0,42.732,34.765,77.497,77.497,77.497
		c42.731,0,77.496-34.765,77.496-77.497C471.477,277.753,436.712,242.988,393.981,242.988z M393.981,386.981
		c-36.667,0-66.497-29.83-66.497-66.497c0-36.666,29.83-66.496,66.497-66.496c36.666,0,66.496,29.83,66.496,66.496
		C460.477,357.151,430.647,386.981,393.981,386.981z"/>
	<path d="M393.981,261.446c-32.555,0-59.039,26.484-59.039,59.038c0,32.554,26.484,59.039,59.039,59.039
		c32.554,0,59.038-26.484,59.038-59.039C453.019,287.93,426.535,261.446,393.981,261.446z M393.981,332.548
		c-6.652,0-12.064-5.412-12.064-12.064s5.412-12.063,12.064-12.063c6.651,0,12.063,5.412,12.063,12.063
		S400.632,332.548,393.981,332.548z M405.93,300.764c-1.974-1.201-4.143-2.108-6.445-2.674v-25.319
		c9.129,1.047,17.483,4.661,24.329,10.103L405.93,300.764z M388.485,298.088c-2.303,0.565-4.474,1.473-6.449,2.673l-17.888-17.888
		c6.848-5.443,15.205-9.058,24.337-10.104V298.088z M374.258,308.539c-1.201,1.975-2.109,4.146-2.674,6.449h-25.318
		c1.045-9.132,4.661-17.489,10.105-24.337L374.258,308.539z M371.585,325.988c0.566,2.302,1.474,4.471,2.674,6.446l-17.89,17.884
		c-5.442-6.846-9.057-15.2-10.103-24.329H371.585z M382.04,340.21c1.974,1.199,4.143,2.106,6.445,2.671v25.318
		c-9.132-1.045-17.489-4.661-24.337-10.104L382.04,340.21z M399.485,342.879c2.301-0.566,4.469-1.473,6.441-2.672l17.888,17.887
		c-6.846,5.442-15.2,9.057-24.329,10.104V342.879z M413.704,332.429c1.199-1.973,2.106-4.14,2.672-6.441h25.318
		c-1.047,9.129-4.661,17.483-10.103,24.329L413.704,332.429z M416.377,314.988c-0.565-2.302-1.472-4.471-2.671-6.445l17.885-17.892
		c5.443,6.848,9.058,15.205,10.104,24.336H416.377z"/>
	<path d="M98.395,242.988c-42.728,0-77.49,34.767-77.49,77.5c0,42.729,34.762,77.49,77.49,77.49c42.733,0,77.5-34.762,77.5-77.49
		C175.895,277.755,141.128,242.988,98.395,242.988z M98.395,386.978c-36.663,0-66.49-29.828-66.49-66.49
		c0-36.668,29.827-66.5,66.49-66.5c36.668,0,66.5,29.832,66.5,66.5C164.895,357.151,135.063,386.978,98.395,386.978z"/>
	<path d="M98.395,261.448c-15.772,0-30.599,6.141-41.749,17.291s-17.291,25.977-17.291,41.749c0,15.766,6.141,30.589,17.291,41.739
		s25.977,17.291,41.749,17.291s30.599-6.141,41.749-17.291c11.15-11.15,17.291-25.973,17.291-41.739
		c0-15.772-6.141-30.599-17.291-41.749C128.994,267.589,114.167,261.448,98.395,261.448z M120.78,314.988
		c-0.555-2.273-1.453-4.437-2.67-6.437l17.917-17.917c5.602,7.035,9.074,15.417,10.086,24.354H120.78z M110.407,321.685
		c-0.271,2.766-1.482,5.333-3.477,7.33c-1.429,1.424-3.148,2.448-5.023,3.016c-0.075,0.023-0.153,0.036-0.228,0.057
		c-0.418,0.118-0.844,0.21-1.275,0.282c-0.659,0.11-1.328,0.178-2.009,0.178c-3.218,0-6.25-1.255-8.525-3.523
		c-2.28-2.287-3.535-5.318-3.535-8.537c0-3.218,1.255-6.25,3.529-8.531c2.282-2.282,5.312-3.539,8.531-3.539
		s6.249,1.257,8.531,3.539c2.283,2.282,3.54,5.312,3.54,8.531C110.465,320.89,110.446,321.29,110.407,321.685z M110.332,300.773
		c-2-1.217-4.164-2.114-6.437-2.669V272.77c8.937,1.012,17.319,4.484,24.354,10.086L110.332,300.773z M92.895,298.104
		c-2.272,0.555-4.436,1.452-6.437,2.669l-17.917-17.917c7.035-5.602,15.417-9.074,24.354-10.086V298.104z M78.684,308.555
		c-1.214,2-2.109,4.162-2.664,6.433H50.677c1.012-8.937,4.484-17.319,10.086-24.354L78.684,308.555z M86.461,340.198
		c2,1.215,4.163,2.11,6.434,2.665v25.333c-8.937-1.012-17.319-4.483-24.353-10.085L86.461,340.198z M103.895,342.863
		c2.272-0.554,4.434-1.45,6.434-2.665l17.919,17.912c-7.035,5.602-15.416,9.073-24.353,10.085V342.863z M50.677,325.988H76.02
		c0.554,2.27,1.45,4.431,2.664,6.431l-17.921,17.914C55.161,343.3,51.69,334.921,50.677,325.988z M136.026,350.333l-17.916-17.909
		c1.217-2,2.114-4.164,2.669-6.437h25.333C145.1,334.921,141.629,343.3,136.026,350.333z"/>
	<path d="M356.402,238.884h53.379c20.786,0,37.696-16.911,37.696-37.696s-16.91-37.696-37.696-37.696
		c-1.954,0-3.89,0.139-5.797,0.406v-26.904h7.245c3.037,0,5.5-2.462,5.5-5.5V93.995c0-3.038-2.463-5.5-5.5-5.5h-7.25v-9.499
		c0-3.038-2.463-5.5-5.5-5.5s-5.5,2.462-5.5,5.5v9.499h-7.249c-3.037,0-5.5,2.462-5.5,5.5v37.499c0,3.038,2.463,5.5,5.5,5.5h7.254
		v30.055c-4.257,1.893-8.203,4.508-11.666,7.792l-6.925,6.566c0.185-2.815,0.289-5.652,0.289-8.513
		c0-30.285-10.747-59.698-30.261-82.821c-1.045-1.238-2.583-1.953-4.203-1.953H152.158c-1.62,0-3.158,0.714-4.203,1.953
		c-19.514,23.123-30.26,52.535-30.26,82.821c0,1.875,0.049,3.739,0.129,5.594H98.745v-41.494h7.249c3.038,0,5.5-2.462,5.5-5.5
		V93.995c0-3.038-2.462-5.5-5.5-5.5h-7.249v-9.499c0-3.038-2.462-5.5-5.5-5.5s-5.5,2.462-5.5,5.5v9.499h-7.25
		c-3.038,0-5.5,2.462-5.5,5.5v37.499c0,3.038,2.462,5.5,5.5,5.5h7.25v41.494h-7.25c-3.038,0-5.5,2.462-5.5,5.5v41H62.497
		c-1.458,0-2.858,0.58-3.889,1.611l-33.637,33.638H5.5c-3.038,0-5.5,2.462-5.5,5.5s2.462,5.5,5.5,5.5h21.749
		c1.458,0,2.858-0.58,3.889-1.611l33.637-33.638h23.221c0.003,0,0.006,0,0.01,0h46.282c16.913,29.878,45.439,52.35,79.408,61.234
		v33.766c0,3.038,2.462,5.5,5.5,5.5h53.99c3.037,0,5.5-2.462,5.5-5.5v-33.767C311.546,288.626,339.315,267.315,356.402,238.884z
		 M391.231,99.495h14.499v26.499h-14.499V99.495z M85.995,99.495h14.499v26.499H85.995V99.495z M388.887,182.823
		c5.666-5.372,13.086-8.331,20.895-8.331c14.721,0,26.696,11.976,26.696,26.696s-11.976,26.696-26.696,26.696h-47.477
		c4.357-9.163,7.666-18.916,9.759-29.109L388.887,182.823z M85.995,224.988v-35.5h32.769c1.616,12.48,5.033,24.401,9.976,35.5
		H85.995z M128.695,172.894c0-26.847,9.234-52.942,26.055-73.773h182.879c16.82,20.832,26.055,46.927,26.055,73.773
		c0,64.787-52.708,117.494-117.494,117.494C181.402,290.388,128.695,237.68,128.695,172.894z M267.685,325.488h-42.99V299.58
		c6.992,1.183,14.171,1.808,21.494,1.808c7.324,0,14.504-0.625,21.496-1.808V325.488z"/>
	<path d="M354.682,172.894c0-22.473-6.837-44.064-19.772-62.439c-1.029-1.463-2.707-2.334-4.497-2.334H161.964
		c-1.79,0-3.467,0.871-4.498,2.334c-12.935,18.376-19.772,39.967-19.772,62.439c0,59.824,48.67,108.494,108.494,108.494
		C306.012,281.387,354.682,232.718,354.682,172.894z M212.695,264.459V119.12h66.99v145.338c-10.45,3.835-21.733,5.929-33.496,5.929
		C234.427,270.387,223.145,268.294,212.695,264.459z M343.682,172.894c0,37.738-21.554,70.536-52.997,86.733V119.12h36.824
		C338.099,135.113,343.682,153.644,343.682,172.894z M148.695,172.894c0-19.25,5.583-37.78,16.173-53.773h36.827v140.508
		C170.25,243.432,148.695,210.633,148.695,172.894z"/>
	<path d="M267.188,128.12h-41.999c-3.038,0-5.5,2.462-5.5,5.5v74.37c0,3.038,2.462,5.5,5.5,5.5h41.999c3.037,0,5.5-2.462,5.5-5.5
		v-74.37C272.688,130.583,270.225,128.12,267.188,128.12z M261.688,202.49h-30.999v-63.37h30.999V202.49z"/>
	<path d="M191.491,128.118h-18.426c-2.024,0-3.884,1.111-4.843,2.894c-6.886,12.795-10.526,27.279-10.526,41.886
		c0,3.83,0.249,7.684,0.738,11.456c2.157,16.609,16.369,29.134,33.057,29.134c3.038,0,5.5-2.462,5.5-5.5v-74.37
		C196.991,130.581,194.528,128.118,191.491,128.118z M185.991,201.794c-8.669-2.228-15.446-9.597-16.649-18.857
		c-0.429-3.303-0.646-6.681-0.646-10.039c0-11.704,2.666-23.314,7.734-33.78h9.561V201.794z"/>
	<path d="M300.889,213.488c16.688,0,30.9-12.525,33.058-29.134c0.49-3.771,0.738-7.626,0.738-11.456
		c0-14.608-3.641-29.092-10.527-41.887c-0.959-1.782-2.819-2.893-4.843-2.893h-18.426c-3.037,0-5.5,2.462-5.5,5.5v74.37
		C295.389,211.026,297.852,213.488,300.889,213.488z M306.389,139.118h9.562c5.068,10.466,7.734,22.076,7.734,33.78
		c0,3.358-0.218,6.735-0.646,10.039c-1.203,9.261-7.979,16.629-16.649,18.857V139.118z"/>
	<path d="M237.189,223.489h-12c-3.038,0-5.5,2.462-5.5,5.5s2.462,5.5,5.5,5.5h12c3.037,0,5.5-2.462,5.5-5.5
		S240.226,223.489,237.189,223.489z"/>
</g>
</svg>