<?xml version="1.0" encoding="iso-8859-1"?>
<!-- Uploaded to: SVG Repo, www.svgrepo.com, Generator: SVG Repo Mixer Tools -->
<!DOCTYPE svg PUBLIC "-//W3C//DTD SVG 1.1//EN" "http://www.w3.org/Graphics/SVG/1.1/DTD/svg11.dtd">
<svg fill="#000000" height="800px" width="800px" version="1.1" id="Capa_1" xmlns="http://www.w3.org/2000/svg" xmlns:xlink="http://www.w3.org/1999/xlink" 
	 viewBox="0 0 454.99 454.99" xml:space="preserve">
<g>
	<path d="M334.944,304.875c-11.176-16.304-17.083-35.369-17.083-55.135v-83.962c0-66.074-32.628-127.692-87.28-164.827
		c-1.866-1.268-4.316-1.268-6.183,0c-54.652,37.135-87.28,98.753-87.28,164.827v83.972c0,19.761-5.904,38.821-17.08,55.13
		c-10.859,15.847-16.6,34.378-16.6,53.599c0,2.321,1.457,4.392,3.641,5.176l5.727,2.056v83.779c0,3.038,2.462,5.5,5.5,5.5h218.371
		c3.038,0,5.5-2.462,5.5-5.5v-83.776l5.734-2.059c2.184-0.784,3.641-2.855,3.641-5.176
		C351.552,339.262,345.809,320.726,334.944,304.875z M129.118,311.089c12.43-18.139,19-39.35,19-61.339v-83.972
		c0-61.169,29.601-118.299,79.371-153.583c49.77,35.284,79.371,92.414,79.371,153.583v83.962c0,21.996,6.574,43.212,19.01,61.355
		c8.88,12.954,13.889,27.935,14.595,43.546l-14.604,5.244v-19.186c0-1.673-0.762-3.255-2.07-4.299
		c-1.308-1.043-3.02-1.437-4.651-1.063l-32.97,7.505c-2.503,0.57-4.279,2.795-4.279,5.363v23.323l-32.411,6.053v-25.488
		c0-3.038-2.462-5.5-5.5-5.5h-32.97c-3.038,0-5.5,2.462-5.5,5.5v25.488l-32.411-6.053v-23.323c0-2.567-1.776-4.793-4.279-5.363
		l-32.97-7.505c-1.63-0.373-3.343,0.02-4.651,1.063c-1.308,1.044-2.069,2.626-2.069,4.299v19.186l-14.604-5.244
		C115.229,339.031,120.237,324.05,129.118,311.089z M331.177,443.99H123.806v-74.33l8.964,3.219c1.686,0.605,3.56,0.352,5.023-0.678
		c1.464-1.03,2.335-2.708,2.335-4.499v-20.112l21.97,5.001v23.502c0,2.648,1.887,4.92,4.49,5.407L210,389.609
		c1.609,0.298,3.266-0.131,4.524-1.176c1.258-1.045,1.986-2.595,1.986-4.231v-26.61h21.97v26.61c0,1.636,0.728,3.186,1.986,4.231
		c0.996,0.827,2.241,1.269,3.514,1.269c0.336,0,0.674-0.031,1.01-0.093l43.411-8.108c2.603-0.486,4.49-2.759,4.49-5.407v-23.502
		l21.97-5.001v20.112c0,1.79,0.871,3.468,2.335,4.499c1.465,1.03,3.337,1.284,5.023,0.678l8.956-3.216V443.99z"/>
	<path d="M194.136,200c11.58,0,21-9.42,21-21v-16.5c0-2.271-1.396-4.309-3.515-5.129l-31-12c-1.692-0.657-3.599-0.434-5.094,0.592
		c-1.497,1.025-2.391,2.723-2.391,4.537V179C173.136,190.58,182.557,200,194.136,200z M184.136,158.527l20,7.742V179
		c0,5.514-4.486,10-10,10h0c-5.514,0-10-4.486-10-10V158.527z"/>
	<path d="M260.854,200c11.58,0,21-9.42,21-21v-28.5c0-1.814-0.895-3.512-2.391-4.537c-1.497-1.026-3.403-1.248-5.094-0.592l-31,12
		c-2.118,0.82-3.515,2.857-3.515,5.129V179C239.854,190.58,249.274,200,260.854,200z M250.854,166.269l20-7.742V179
		c0,5.514-4.486,10-10,10s-10-4.486-10-10V166.269z"/>
</g>
</svg>