<?xml version="1.0" encoding="iso-8859-1"?>
<!-- Uploaded to: SVG Repo, www.svgrepo.com, Generator: SVG Repo Mixer Tools -->
<!DOCTYPE svg PUBLIC "-//W3C//DTD SVG 1.1//EN" "http://www.w3.org/Graphics/SVG/1.1/DTD/svg11.dtd">
<svg fill="#000000" height="800px" width="800px" version="1.1" id="Capa_1" xmlns="http://www.w3.org/2000/svg" xmlns:xlink="http://www.w3.org/1999/xlink" 
	 viewBox="0 0 456.394 456.394" xml:space="preserve">
<g>
	<path d="M450.6,63.187c-0.728-4.076-3.023-7.603-6.462-9.93c-3.46-2.342-7.618-3.165-11.806-2.298c0,0-0.098,0.021-0.099,0.021
		c-7.916,1.639-13.071,8.997-12.057,16.954c-27.787,11.501-56.798,20.521-86.302,26.817c-25.066,5.331-50.728,8.71-76.359,10.109
		c-1.566-5.802-6.86-10.09-13.151-10.09h-24.131c-6.564,0-12.058,4.663-13.347,10.85h-72.776c-1.289-6.187-6.783-10.85-13.347-10.85
		h-24.13c-6.686,0-12.251,4.84-13.404,11.198l-56.38,3.862c-0.568-2.432-2.746-4.246-5.351-4.246h-16c-3.037,0-5.5,2.462-5.5,5.5
		v34.561c0,3.038,2.463,5.5,5.5,5.5h16c2.605,0,4.783-1.814,5.351-4.247L83,150.747v187.524v30c0,3.038,2.463,5.5,5.5,5.5
		s5.5-2.462,5.5-5.5v-21.95l5.399,2.107v26.243c0,3.038,2.463,5.5,5.5,5.5s5.5-2.462,5.5-5.5v-21.95l5.4,2.107v26.243
		c0,3.038,2.463,5.5,5.5,5.5s5.5-2.462,5.5-5.5v-21.95l5.399,2.107v26.243c0,3.038,2.463,5.5,5.5,5.5s5.5-2.462,5.5-5.5v-21.95
		l5.4,2.107v26.243c0,3.038,2.463,5.5,5.5,5.5s5.5-2.462,5.5-5.5v-21.95l5.4,2.107v26.242c0,3.038,2.463,5.5,5.5,5.5
		s5.5-2.462,5.5-5.5v-26.242l5.399-2.107v21.95c0,3.038,2.463,5.5,5.5,5.5s5.5-2.462,5.5-5.5v-26.242l5.4-2.107v21.95
		c0,3.038,2.463,5.5,5.5,5.5s5.5-2.462,5.5-5.5v-26.242l5.399-2.107v21.95c0,3.038,2.463,5.5,5.5,5.5s5.5-2.462,5.5-5.5v-26.242
		l5.4-2.107v21.95c0,3.038,2.463,5.5,5.5,5.5s5.5-2.462,5.5-5.5v-26.242l5.4-2.107v21.95c0,3.038,2.463,5.5,5.5,5.5
		s5.5-2.462,5.5-5.5v-30V151.879c55.886,3.073,110.394,15.483,162.177,36.917c-1.015,7.958,4.139,15.316,12.05,16.954
		c0.003,0.001,0.103,0.021,0.105,0.022l1.211-5.366l-1.122,5.384c0.003,0,0.005,0.001,0.007,0.001
		c1.05,0.218,2.104,0.325,3.149,0.325c3.029,0,5.988-0.901,8.561-2.642c3.438-2.327,5.734-5.854,6.462-9.93
		C458.325,150.295,458.325,106.437,450.6,63.187z M421.945,177.631c-6.057-2.471-12.15-4.82-18.277-7.049
		c3.219-28.04,3.218-56.402-0.001-84.442c6.143-2.231,12.239-4.575,18.279-7.038C426.752,111.841,426.752,144.892,421.945,177.631z
		 M336.167,105.51c19.219-4.101,38.232-9.337,56.849-15.634c2.755,25.569,2.756,51.396,0.002,76.965
		c-35.429-12.005-71.943-20.007-109.151-23.918v-29.12C301.445,111.943,318.943,109.173,336.167,105.51z M134.399,151.111h72.2v6.56
		c0,19.906-16.194,36.1-36.101,36.1c-19.905,0-36.1-16.194-36.1-36.1V151.111z M134.399,140.111v-23.49H165v23.49H134.399z
		 M206.6,140.111H176v-23.49h30.6V140.111z M96.635,105.771h24.13c1.453,0,2.635,1.182,2.635,2.635v49.265
		c0,25.971,21.129,47.1,47.101,47.1c25.971,0,47.1-21.129,47.1-47.1v-49.265c0-1.453,1.182-2.635,2.635-2.635h24.131
		c1.453,0,2.635,1.182,2.635,2.635v195.43l-76.5,29.854L94,303.836v-195.43C94,106.953,95.182,105.771,96.635,105.771z M11,116.586
		h5v23.561h-5V116.586z M27,120.847l38.864-2.663v20.363L27,135.885V120.847z M76.864,139.301v-21.87L83,117.01v22.711
		L76.864,139.301z M94,315.644l74.501,29.074c0.643,0.251,1.32,0.376,1.999,0.376s1.356-0.125,1.999-0.376L247,315.644v18.869
		l-76.5,29.854L94,334.513V315.644z M258,115.85c4.956-0.269,9.913-0.593,14.867-1.009v27.047c-4.945-0.411-9.9-0.756-14.867-1.023
		V115.85z M439.771,191.611c-0.201,1.128-0.841,2.106-1.799,2.754c-0.979,0.662-2.153,0.896-3.308,0.657l-0.201-0.042
		c-2.301-0.476-3.775-2.688-3.356-5.035c7.284-40.861,7.284-82.298,0-123.16c-0.419-2.347,1.056-4.558,3.452-5.054l0.099-0.021
		c1.156-0.24,2.334-0.007,3.314,0.656c0.958,0.648,1.598,1.627,1.799,2.754C447.267,107.088,447.267,149.645,439.771,191.611z"/>
	<path d="M166.611,308.16c1.031,1.031,2.43,1.611,3.889,1.611s2.857-0.58,3.889-1.611l35.245-35.246
		c5.747-5.746,8.911-13.386,8.911-21.512c0-8.126-3.164-15.766-8.91-21.512c-5.746-5.746-13.386-8.911-21.513-8.911
		c-6.406,0-12.51,1.967-17.622,5.615c-5.112-3.648-11.217-5.615-17.623-5.615c-8.127,0-15.767,3.165-21.512,8.911
		c-5.747,5.746-8.911,13.386-8.911,21.512c0,8.126,3.164,15.766,8.911,21.512L166.611,308.16z M139.144,237.668
		c3.668-3.668,8.545-5.689,13.733-5.689c5.188,0,10.065,2.021,13.734,5.689c1.031,1.031,2.43,1.611,3.889,1.611
		s2.857-0.58,3.89-1.611c3.668-3.668,8.545-5.689,13.732-5.689c5.188,0,10.065,2.021,13.734,5.689
		c3.668,3.668,5.688,8.546,5.688,13.734c0,5.188-2.021,10.065-5.688,13.734L170.5,296.492l-31.357-31.357
		c-3.668-3.668-5.688-8.546-5.688-13.734C133.454,246.214,135.475,241.336,139.144,237.668z"/>
</g>
</svg>