<?xml version="1.0" encoding="iso-8859-1"?>
<!-- Uploaded to: SVG Repo, www.svgrepo.com, Generator: SVG Repo Mixer Tools -->
<!DOCTYPE svg PUBLIC "-//W3C//DTD SVG 1.1//EN" "http://www.w3.org/Graphics/SVG/1.1/DTD/svg11.dtd">
<svg fill="#000000" height="800px" width="800px" version="1.1" id="Capa_1" xmlns="http://www.w3.org/2000/svg" xmlns:xlink="http://www.w3.org/1999/xlink" 
	 viewBox="0 0 428.792 428.792" xml:space="preserve">
<path d="M416.527,94.523c-6.151-34.274-22.212-46.945-36.382-58.125c-10.754-8.484-20.041-15.812-23.659-32.092
	c-0.577-2.593-2.918-4.384-5.58-4.303c-2.655,0.102-4.858,2.088-5.233,4.718c-0.132,0.923-3.223,22.831-2.652,42.665
	c0.325,11.308-5.04,21.777-14.353,28.002c-11.209,7.493-18.105,19.522-19.119,32.62l-4.119-4.119c-2.146-2.147-5.631-2.147-7.777,0
	l-35,35c-2.148,2.148-2.148,5.63,0,7.778l7.03,7.03l-55.435,65.641l-55.44-65.64l7.031-7.031c2.148-2.148,2.148-5.63,0-7.778l-35-35
	c-2.146-2.147-5.631-2.147-7.777,0l-3.833,3.833c-1.093-12.987-7.976-24.896-19.102-32.334
	c-9.313-6.225-14.678-16.693-14.353-28.002c0.57-19.834-2.521-41.742-2.653-42.665c-0.375-2.63-2.578-4.616-5.233-4.718
	c-2.668-0.082-5.004,1.71-5.58,4.303c-3.617,16.28-12.904,23.607-23.658,32.092c-14.171,11.18-30.231,23.851-36.383,58.125
	c-5.79,32.258,5.686,54.782,16.333,67.997c6.61,8.205,13.661,13.875,18.565,17.267l-7.891,7.891c-2.148,2.148-2.148,5.63,0,7.778
	l35,35c1.073,1.074,2.481,1.611,3.889,1.611s2.815-0.537,3.889-1.611l7.031-7.031l71.038,59.999L69.879,390.26
	c-7.777,9.204-7.194,23.1,1.335,31.642c4.581,4.575,10.539,6.89,16.522,6.89c5.338,0,10.696-1.843,15.112-5.57l111.4-94.082
	l111.395,94.085c4.337,3.662,9.709,5.471,15.072,5.471c6.031,0,12.049-2.289,16.563-6.801c8.525-8.527,9.11-22.422,1.33-31.634
	l-90.236-106.839l71.036-59.999l7.033,7.033c1.073,1.074,2.481,1.611,3.889,1.611s2.815-0.537,3.889-1.611l35-35
	c2.148-2.148,2.148-5.63,0-7.778l-7.767-7.767c4.91-3.378,12.053-9.086,18.744-17.391
	C410.841,149.305,422.318,126.781,416.527,94.523z M288.596,324.415l-28.798,28.798L115.637,231.455l51.2-51.201L288.596,324.415z
	 M36.892,155.28c-13.189-16.565-17.833-36.353-13.802-58.814c5.415-30.166,19.118-40.978,32.37-51.433
	c6.653-5.25,13.44-10.604,18.82-18.177c0.423,6.358,0.689,13.467,0.495,20.212c-0.434,15.117,6.757,29.122,19.235,37.463
	c10.117,6.764,15.546,18.477,14.167,30.568l-0.472,4.142l-12.61,12.61c-12.257-5.712-27.351-23.658-32.495-30.625
	c-1.28-1.734-3.458-2.563-5.564-2.114c-2.108,0.446-3.763,2.083-4.23,4.187c-5.147,23.165,11.459,42.736,19.905,50.937
	l-17.616,17.616C50.939,169.15,43.594,163.697,36.892,155.28z M80.498,146.451c-4.997-4.843-13.729-14.662-16.66-26.51
	c6.232,6.884,14.637,15.059,23.143,20.027L80.498,146.451z M78.161,218.788l-27.222-27.222l76.01-76.01l27.222,27.222
	L78.161,218.788z M151.001,161.504l8.714,10.317l-52.511,52.511l-10.318-8.714L151.001,161.504z M95.753,414.816
	c-4.965,4.19-12.171,3.889-16.762-0.693c-4.518-4.525-4.83-11.888-0.709-16.765l54.489-64.51l27.489,27.489L95.753,414.816z
	 M168.693,353.215l-28.799-28.8l28.629-33.895l37.201,31.42L168.693,353.215z M349.499,414.116
	c-4.516,4.517-11.877,4.826-16.758,0.705l-64.51-54.485l27.488-27.488l54.485,64.51
	C354.326,402.238,354.016,409.599,349.499,414.116z M221.446,227.863l40.205-47.608l51.199,51.199l-51.577,43.564L221.446,227.863z
	 M331.6,215.618l-10.316,8.713l-52.51-52.51l8.714-10.318l39.082,39.082L331.6,215.618z M350.329,218.788l-25.491-25.491
	l-43.799-43.806c-0.022-0.022-0.046-0.04-0.068-0.061l-6.652-6.652l27.222-27.222l76.01,76.01L350.329,218.788z M348.132,146.591
	l-6.514-6.514c8.559-4.949,17.031-13.176,23.308-20.104C361.942,131.892,353.089,141.792,348.132,146.591z M391.9,155.28
	c-6.801,8.542-14.266,14.032-18.387,16.693l-17.586-17.586c8.397-8.113,25.236-27.784,20.058-51.086
	c-0.468-2.104-2.122-3.74-4.23-4.187c-2.113-0.45-4.285,0.38-5.564,2.114c-5.172,7.006-20.407,25.115-32.7,30.721l-12.365-12.365
	l-0.511-4.485c-1.38-12.091,4.049-23.804,14.167-30.567c12.479-8.343,19.669-22.348,19.235-37.463
	c-0.194-6.746,0.071-13.854,0.495-20.212c5.38,7.572,12.166,12.927,18.82,18.176c13.252,10.456,26.954,21.267,32.369,51.433
	C409.732,118.927,405.089,138.715,391.9,155.28z"/>
</svg>