<?xml version="1.0" encoding="iso-8859-1"?>
<!-- Uploaded to: SVG Repo, www.svgrepo.com, Generator: SVG Repo Mixer Tools -->
<!DOCTYPE svg PUBLIC "-//W3C//DTD SVG 1.1//EN" "http://www.w3.org/Graphics/SVG/1.1/DTD/svg11.dtd">
<svg fill="#000000" height="800px" width="800px" version="1.1" id="Capa_1" xmlns="http://www.w3.org/2000/svg" xmlns:xlink="http://www.w3.org/1999/xlink" 
	 viewBox="0 0 481 481" xml:space="preserve">
<g>
	<path d="M322.711,106.072L246,17.775V5.5c0-3.038-2.463-5.5-5.5-5.5S235,2.462,235,5.5v12.275l-76.711,88.297
		c-1.413,1.626-1.746,3.928-0.853,5.889c0.895,1.96,2.851,3.219,5.005,3.219h10.107V149.5c0,3.038,2.463,5.5,5.5,5.5H180v238h-1.289
		c-2.81,0-5.168,2.118-5.469,4.912l-8.278,77c-0.167,1.552,0.334,3.102,1.377,4.263s2.531,1.825,4.092,1.825h140.134
		c1.561,0,3.049-0.663,4.092-1.825c1.043-1.161,1.544-2.711,1.377-4.263l-8.277-77c-0.301-2.794-2.659-4.912-5.469-4.912H301V155
		h1.951c3.037,0,5.5-2.462,5.5-5.5v-34.321h10.107c2.154,0,4.11-1.258,5.005-3.219C324.457,110,324.124,107.698,322.711,106.072z
		 M240.5,28.217l65.994,75.962H174.506L240.5,28.217z M297.451,144H183.549v-8.911h113.902V144z M176.556,470l7.096-66h113.697
		l3.762,35H294c-3.037,0-5.5,2.462-5.5,5.5s2.463,5.5,5.5,5.5h8.293l2.15,20H176.556z M290,227h-5c-3.037,0-5.5,2.462-5.5,5.5
		s2.463,5.5,5.5,5.5h5v155h-99V155h5.5v9.5c0,3.038,2.463,5.5,5.5,5.5s5.5-2.462,5.5-5.5V155h14.667v9.5c0,3.038,2.463,5.5,5.5,5.5
		s5.5-2.462,5.5-5.5V155h14.666v9.5c0,3.038,2.463,5.5,5.5,5.5s5.5-2.462,5.5-5.5V155H273.5v9.5c0,3.038,2.463,5.5,5.5,5.5
		s5.5-2.462,5.5-5.5V155h5.5V227z M297.451,124.089H183.549v-8.911h113.902V124.089z"/>
	<path d="M229.178,232.457h22.644c3.037,0,5.5-2.462,5.5-5.5v-31.135c0-9.275-7.546-16.822-16.821-16.822
		s-16.822,7.546-16.822,16.822v31.135C223.678,229.995,226.141,232.457,229.178,232.457z M234.678,195.822
		c0-3.21,2.612-5.822,5.822-5.822s5.821,2.612,5.821,5.822v25.635h-11.644V195.822z"/>
	<path d="M229.178,301.229h22.644c3.037,0,5.5-2.462,5.5-5.5v-31.135c0-9.275-7.546-16.822-16.821-16.822
		s-16.822,7.546-16.822,16.822v31.135C223.678,298.766,226.141,301.229,229.178,301.229z M234.678,264.593
		c0-3.21,2.612-5.822,5.822-5.822s5.821,2.612,5.821,5.822v25.635h-11.644V264.593z"/>
	<path d="M257.321,364.5v-31.135c0-9.275-7.546-16.822-16.821-16.822s-16.822,7.546-16.822,16.822V364.5c0,3.038,2.463,5.5,5.5,5.5
		h22.644C254.858,370,257.321,367.538,257.321,364.5z M246.321,359h-11.644v-25.635c0-3.21,2.612-5.822,5.822-5.822
		s5.821,2.612,5.821,5.822V359z"/>
	<path d="M200,198h10c3.037,0,5.5-2.462,5.5-5.5s-2.463-5.5-5.5-5.5h-10c-3.037,0-5.5,2.462-5.5,5.5S196.963,198,200,198z"/>
	<path d="M267.5,246.5c0,3.038,2.463,5.5,5.5,5.5h10c3.037,0,5.5-2.462,5.5-5.5s-2.463-5.5-5.5-5.5h-10
		C269.963,241,267.5,243.462,267.5,246.5z"/>
	<path d="M211,313h-10c-3.037,0-5.5,2.462-5.5,5.5s2.463,5.5,5.5,5.5h10c3.037,0,5.5-2.462,5.5-5.5S214.037,313,211,313z"/>
	<path d="M269,375h-10c-3.037,0-5.5,2.462-5.5,5.5s2.463,5.5,5.5,5.5h10c3.037,0,5.5-2.462,5.5-5.5S272.037,375,269,375z"/>
	<path d="M216,411h-10c-3.037,0-5.5,2.462-5.5,5.5s2.463,5.5,5.5,5.5h10c3.037,0,5.5-2.462,5.5-5.5S219.037,411,216,411z"/>
	<path d="M202,425h-10c-3.037,0-5.5,2.462-5.5,5.5s2.463,5.5,5.5,5.5h10c3.037,0,5.5-2.462,5.5-5.5S205.037,425,202,425z"/>
</g>
</svg>