<?xml version="1.0" encoding="utf-8"?>

<!DOCTYPE svg PUBLIC "-//W3C//DTD SVG 1.1//EN" "http://www.w3.org/Graphics/SVG/1.1/DTD/svg11.dtd">
<!-- Uploaded to: SVG Repo, www.svgrepo.com, Generator: SVG Repo Mixer Tools -->
<svg height="800px" width="800px" version="1.1" id="_x32_" xmlns="http://www.w3.org/2000/svg" xmlns:xlink="http://www.w3.org/1999/xlink" 
	 viewBox="0 0 512 512"  xml:space="preserve">
<style type="text/css">
	.st0{fill:#000000;}
</style>
<g>
	<path class="st0" d="M215.631,150.405c-5.702,0-10.916,2.334-14.651,6.068c-3.742,3.734-6.076,8.956-6.076,14.658
		c0,5.709,2.334,10.923,6.076,14.657c3.734,3.742,8.948,6.076,14.651,6.076c5.716,0,10.93-2.334,14.658-6.076
		c3.749-3.734,6.076-8.948,6.076-14.657c0-5.702-2.327-10.924-6.076-14.658C226.562,152.739,221.348,150.405,215.631,150.405z
		 M222.511,178.004c-1.781,1.767-4.173,2.844-6.88,2.851c-2.693-0.007-5.092-1.084-6.866-2.851
		c-1.767-1.774-2.844-4.172-2.844-6.872c0-2.7,1.077-5.092,2.844-6.866c1.774-1.774,4.172-2.844,6.866-2.851
		c2.707,0.007,5.099,1.077,6.88,2.851c1.759,1.774,2.837,4.165,2.844,6.866C225.348,173.838,224.271,176.23,222.511,178.004z"/>
	<path class="st0" d="M296.367,150.405c-5.71,0-10.924,2.334-14.658,6.068c-3.742,3.734-6.076,8.956-6.068,14.658
		c-0.007,5.709,2.327,10.923,6.068,14.657c3.734,3.742,8.948,6.076,14.658,6.076c5.709,0,10.923-2.334,14.658-6.076
		c3.734-3.734,6.076-8.948,6.068-14.657c0.007-5.702-2.334-10.924-6.068-14.658C307.291,152.739,302.077,150.405,296.367,150.405z
		 M303.233,178.004c-1.774,1.767-4.166,2.844-6.866,2.851c-2.7-0.007-5.099-1.084-6.873-2.851c-1.767-1.774-2.844-4.165-2.844-6.872
		c0-2.7,1.077-5.092,2.844-6.866c1.774-1.774,4.172-2.844,6.873-2.851c2.7,0.007,5.092,1.077,6.866,2.851
		c1.774,1.774,2.851,4.165,2.851,6.866C306.084,173.838,305.007,176.23,303.233,178.004z"/>
	<path class="st0" d="M255.999,201.538c-9.552,0-17.301,12.913-17.301,28.834c0,15.922,7.749,28.834,17.301,28.834
		c9.559,0,17.3-12.912,17.3-28.834C273.3,214.451,265.558,201.538,255.999,201.538z"/>
	<path class="st0" d="M411.869,173.588C406.261,58.35,274.255,0,255.999,0c-18.249,0-150.254,58.35-155.87,173.588
		C95.087,277.024,116.985,512,255.999,512C395.021,512,416.918,277.024,411.869,173.588z M242.462,83.443
		c4.115-0.531,8.309-0.818,12.575-0.818c5.781,0,11.44,0.517,16.934,1.48c0.567,0.653,1.156,1.4,1.745,2.291
		c2.485,3.763,4.991,9.688,5.006,19.053c0,7.081-1.486,16.173-5.695,27.621c-13.272-10.68-20.827-20.504-25.114-28.612
		c-4.654-8.826-5.494-15.656-5.494-19.606C242.419,84.327,242.44,83.86,242.462,83.443z M232.989,85.117
		c0.029,5.342,1.271,13.695,6.586,23.75c2.377,4.503,5.558,9.328,9.781,14.392c-4.216-1.702-8.446-3.289-12.424-4.97
		c-6.844-2.88-12.841-6.105-16.906-10.406c-2.054-2.147-3.656-4.546-4.805-7.469c-0.941-2.42-1.544-5.242-1.731-8.582
		C219.667,88.944,226.188,86.675,232.989,85.117z M339.615,384.268c-2.025,2.262-5.501,2.456-7.764,0.431l-103.976-93.024
		c6.428,1.566,13.078,2.578,19.879,3.009l24.353,21.782l27.29-30.501c5.207-2.197,10.212-4.776,14.988-7.699
		c1.896,2.061,1.975,5.25,0.072,7.376l-34.149,38.17l58.882,52.684C341.453,378.522,341.648,381.998,339.615,384.268z
		 M376.967,204.03c-3.339,3.332-7.878,5.365-12.97,5.372c-2.112,0-4.13-0.374-6.083-1.056l-7.44-2.621l-2.593,7.454
		c-6.672,19.204-19.146,35.729-35.319,47.428c-16.18,11.706-36.009,18.593-57.525,18.6c-21.416-0.007-41.172-6.83-57.317-18.443
		c-16.137-11.613-28.611-28.008-35.355-47.075l-2.442-6.902l-7.052,1.932c-1.609,0.445-3.225,0.682-4.862,0.682
		c-5.092-0.007-9.63-2.04-12.977-5.372c-3.333-3.347-5.364-7.886-5.372-12.977c0.008-5.085,2.039-9.631,5.372-12.97
		c3.347-3.332,7.885-5.372,12.977-5.379c0.316,0,0.797,0.028,1.458,0.079l7.297,0.574l1.099-7.232
		c3.555-23.62,15.534-44.49,32.791-59.471c4.316-3.742,8.948-7.117,13.861-10.069c0.431,2.672,1.084,5.171,2.004,7.47
		c1.444,3.634,3.476,6.794,5.889,9.494c4.223,4.726,9.509,8.05,15.017,10.779c8.28,4.072,17.236,6.887,24.748,10.4
		c3.763,1.745,7.146,3.641,9.918,5.824c2.786,2.19,4.955,4.631,6.499,7.598c0.84,1.601,2.492,2.585,4.302,2.535
		c1.802-0.043,3.418-1.099,4.165-2.736c8.158-17.681,11.096-31.585,11.103-42.501c0.014-7.448-1.393-13.48-3.368-18.227
		c12.927,4.108,24.698,10.794,34.709,19.498c17.264,15.023,29.23,35.944,32.748,59.614l1.156,7.806l7.806-1.192
		c1.041-0.157,1.954-0.244,2.786-0.244c5.092,0.007,9.631,2.047,12.97,5.379c3.332,3.34,5.372,7.885,5.372,12.97
		C382.339,196.144,380.299,200.683,376.967,204.03z"/>
</g>
</svg>