<?xml version="1.0" encoding="utf-8"?>

<!DOCTYPE svg PUBLIC "-//W3C//DTD SVG 1.1//EN" "http://www.w3.org/Graphics/SVG/1.1/DTD/svg11.dtd">
<!-- Uploaded to: SVG Repo, www.svgrepo.com, Generator: SVG Repo Mixer Tools -->
<svg version="1.1" id="_x32_" xmlns="http://www.w3.org/2000/svg" xmlns:xlink="http://www.w3.org/1999/xlink" 
	 width="800px" height="800px" viewBox="0 0 512 512"  xml:space="preserve">
<style type="text/css">
<![CDATA[
	.st0{fill:#000000;}
]]>
</style>
<g>
	<path class="st0" d="M475.619,295.498l-41.406-87.766c0.109-2.625,0.203-5.266,0.203-7.906
		c0-110.359-89.469-199.828-199.828-199.828S34.744,89.467,34.744,199.826c0,62.063,28.297,117.5,72.672,154.156v70.641
		c0,6.891,4.125,13.125,10.453,15.797l165.516,70.219c5.281,2.25,11.359,1.688,16.172-1.484c4.797-3.188,7.688-8.563,7.688-14.313
		v-59.844c0-9.484,7.688-17.172,17.172-17.172h84.75c9.484,0,17.156-7.703,17.156-17.172v-51.609c0-6.563,3.766-12.563,9.672-15.438
		l31.594-15.344C476.041,314.154,479.619,303.998,475.619,295.498z M234.588,335.717c-75.047,0-135.891-60.828-135.891-135.891
		c0-75.047,60.844-135.875,135.891-135.875s135.875,60.828,135.875,135.875C370.463,274.889,309.635,335.717,234.588,335.717z"/>
	<path class="st0" d="M275.635,264.732c3.922,11.031-1.875,23.172-12.922,27.078c-11.047,3.922-23.172-1.875-27.078-12.906
		c-3.922-11.047,1.875-23.172,12.922-27.094C259.604,247.904,271.713,253.686,275.635,264.732z"/>
	<path class="st0" d="M227.713,123.076c-4.297-12.156-17.641-18.516-29.781-14.219c-12.156,4.313-18.516,17.656-14.219,29.797
		l32.891,80.141c3.516,9.938,14.422,15.156,24.359,11.625c9.953-3.516,15.156-14.422,11.641-24.359L227.713,123.076z"/>
</g>
</svg>