<?xml version="1.0" encoding="utf-8"?>

<!DOCTYPE svg PUBLIC "-//W3C//DTD SVG 1.1//EN" "http://www.w3.org/Graphics/SVG/1.1/DTD/svg11.dtd">
<!-- Uploaded to: SVG Repo, www.svgrepo.com, Generator: SVG Repo Mixer Tools -->
<svg height="800px" width="800px" version="1.1" id="_x32_" xmlns="http://www.w3.org/2000/svg" xmlns:xlink="http://www.w3.org/1999/xlink" 
	 viewBox="0 0 512 512"  xml:space="preserve">
<style type="text/css">
	.st0{fill:#000000;}
</style>
<g>
	<polygon class="st0" points="216.535,42.168 230.18,16.856 188.015,0 132.19,23.548 139.128,42.168 	"/>
	<path class="st0" d="M141.785,53.788l-0.582,17.466c0,20.724,16.798,37.517,37.522,37.517c20.724,0,37.525-16.793,37.525-37.517
		h12.209l-15.124-17.466H141.785z"/>
	<path class="st0" d="M250.512,155.606c-9.666-15.772-22.179-28.08-39.929-28.08h-0.526l-26.526,26.522l-26.526-26.522h-11.995
		c-28.967,0-52.444,24.877-52.444,55.56v159.767h35.453V512h34.314l21.199-154.103L204.73,512h34.313V314.502H128.018v-16.2h111.025
		v-30.691v-40.246l29.03,33.538l55.054-38.395V190.07l-39.613,19.316L250.512,155.606z M168.561,217.455
		c1.491,10.196-12.356,18.256-16.386,18.256c-5.098,0-17.876-8.06-16.385-18.256c1.067-7.293,3.183-5.411,0.494-17.711l15.891-3.227
		l15.895,3.227C165.385,212.044,167.497,210.162,168.561,217.455z"/>
	<polygon class="st0" points="333.52,164.165 333.52,186.257 333.52,218.167 354.233,218.167 354.233,186.257 419.435,186.257 
		419.435,164.165 	"/>
</g>
</svg>