<?xml version="1.0" encoding="utf-8"?>

<!DOCTYPE svg PUBLIC "-//W3C//DTD SVG 1.1//EN" "http://www.w3.org/Graphics/SVG/1.1/DTD/svg11.dtd">
<!-- Uploaded to: SVG Repo, www.svgrepo.com, Generator: SVG Repo Mixer Tools -->
<svg height="800px" width="800px" version="1.1" id="_x32_" xmlns="http://www.w3.org/2000/svg" xmlns:xlink="http://www.w3.org/1999/xlink" 
	 viewBox="0 0 512 512"  xml:space="preserve">
<style type="text/css">
	.st0{fill:#000000;}
</style>
<g>
	<path class="st0" d="M411.113,420.445c-7.471-11.192-17.724-18.773-28.406-24.272c-1.17-4.186-4.318-7.638-8.584-9.06
		c0,0-33.951-12.62-43.738-14.582c-3.733-0.751-6.887-0.057-9.376,1.503c-2.46-1.262-4.799-2.569-6.749-3.939
		c-2.426-1.692-4.294-3.435-5.378-4.92c-1.095-1.52-1.393-2.569-1.405-3.486c0-6.336,0-14.255,0-24.685
		c8.429-9.38,20.539-23.916,25.516-46.961c1.738-0.78,3.458-1.669,5.115-2.822c4.123-2.844,7.621-6.978,10.585-12.598
		c2.988-5.642,5.625-12.856,8.446-22.724c0.206-0.711,0.275-1.319,0.453-2.007l1.823-1.37c11.668-8.779,21.474-21.474,28.458-36.354
		c6.966-14.886,11.101-31.99,11.107-49.685c0-15.528-3.211-31.52-10.562-46.669c-11.25-23.2-28.079-39.57-46.222-50.798
		c-16.319-10.103-33.681-16.112-49.398-19.593v-8.629C292.798,16.468,276.33,0,256.003,0c-20.327,0-36.795,16.468-36.795,36.795
		v8.762c-15.665,3.52-32.924,9.564-49.14,19.662c-18.016,11.216-34.714,27.529-45.901,50.597
		c-7.35,15.149-10.568,31.141-10.562,46.669c0,17.695,4.14,34.8,11.107,49.685c6.984,14.879,16.783,27.575,28.458,36.354
		l1.129,0.848c0.207,0.86,0.31,1.629,0.568,2.529c3.773,13.142,7.179,21.629,11.589,27.856c2.207,3.091,4.713,5.573,7.442,7.466
		c1.658,1.153,3.378,2.042,5.115,2.822c4.978,23.045,17.088,37.58,25.516,46.961c0,10.43,0,18.349,0,24.685
		c0,0.78-0.31,1.904-1.52,3.509c-1.772,2.385-5.447,5.275-9.811,7.724c-0.699,0.396-1.479,0.722-2.207,1.107
		c-2.483-1.56-5.637-2.242-9.364-1.497c-9.788,1.961-43.739,14.582-43.739,14.582c-4.168,1.388-7.282,4.713-8.515,8.768
		c-5.734,2.959-11.336,6.525-16.485,10.94c-6.697,5.751-12.575,12.976-16.715,21.956c-4.14,8.974-6.514,19.639-6.508,32.116
		c0,2.896,0.126,5.889,0.385,8.986c0.195,2.173,1.02,3.933,1.989,5.39c1.847,2.712,4.295,4.725,7.362,6.794
		c5.373,3.556,12.816,7.03,22.346,10.442c28.521,10.172,75.746,19.484,134.256,19.496c47.54,0,87.667-6.17,116.308-13.922
		c14.33-3.888,25.769-8.136,34.037-12.385c4.14-2.139,7.489-4.255,10.144-6.572c1.33-1.17,2.494-2.397,3.474-3.853
		c0.97-1.457,1.795-3.217,1.984-5.39c0.258-3.091,0.385-6.078,0.385-8.963C422.358,444.282,418.086,430.876,411.113,420.445z
		 M128.783,481.277c-7.036-2.397-12.838-4.81-17.208-7.07c-3.52-1.806-6.112-3.526-7.546-4.794c-0.614-0.533-0.958-0.94-1.13-1.175
		c-0.2-2.546-0.316-5.006-0.316-7.346c0.023-14.495,3.566-25.086,9.043-33.389c4.472-6.766,10.442-12.07,17.156-16.359V481.277z
		 M368.521,107.243c3.016,4.38,5.791,9.1,8.28,14.215c6.428,13.257,9.26,27.265,9.26,41.026c0,4.346-0.31,8.658-0.854,12.919
		l-81.239-32.724L368.521,107.243z M287.173,57.437c15.338,3.114,32.489,8.808,48.223,18.562
		c10.866,6.743,21.015,15.413,29.588,26.485l-68.052,37.363l-9.759-3.933V57.437z M287.173,147.381v-5.138l97.1,39.112
		c-1.668,8.934-4.426,17.512-8.096,25.333c-4.151,8.876-9.449,16.743-15.39,23.165c-0.619-1.244-1.313-2.414-2.138-3.406
		c-2.896-3.486-6.4-5.47-9.542-6.754c-0.831-0.448-1.652-0.826-2.426-1.107c-2.098-0.774-3.899-1.078-5.281-1.216l-65.654-46.055
		C282.666,165.598,287.167,157.06,287.173,147.381z M233.055,40.895c0-6.348,2.564-12.059,6.72-16.227
		c4.168-4.157,9.88-6.721,16.227-6.721s12.058,2.564,16.227,6.721c3.332,3.342,5.562,7.694,6.353,12.552l-18.91,15.465l3.716,4.541
		l15.562-12.73v32.627l-20.012,16.371V24.146h-5.872v43.94l-18.194-14.891l-1.818,2.219V40.895z M233.055,59.29l19.628,16.061
		l0.384-0.47v34.858h5.872v-8.664l20.012-16.37v62.678c0,6.347-2.563,12.058-6.72,16.227c-1.227,1.221-2.621,2.254-4.088,3.176
		l-11.25-7.982l-12.082,8.498c-1.824-1.032-3.555-2.22-5.034-3.693c-4.157-4.169-6.72-9.88-6.72-16.227V59.29z M176.903,76.182
		c15.608-9.736,32.643-15.459,47.93-18.618v41.933L160.096,88.9C165.405,84.06,171.048,79.834,176.903,76.182z M126.518,162.484
		c0.006-13.762,2.838-27.77,9.266-41.026c5.229-10.764,11.761-19.8,19.1-27.46l69.948,11.445v39.845l-98.178,21.91
		C126.581,165.632,126.518,164.061,126.518,162.484z M161.157,220.558c-4.472,2.511-7.305,6.296-8.813,9.868
		c-6.164-6.519-11.657-14.592-15.934-23.738c-4.782-10.201-8.05-21.664-9.306-33.567l98.12-21.898
		c1.078,8.681,5.642,16.222,12.346,21.17l-44.593,31.37c-7.271,4.691-14.702,9.295-22.053,13.561
		c-2.036,0.172-5.241,0.786-8.681,2.781C161.897,220.272,161.484,220.374,161.157,220.558z M314.725,386.236
		c0,6.915,0,90.104,0,109.462c-17.781,2.092-37.46,3.388-58.722,3.388c-21.273,0-40.93-1.313-58.716-3.412
		c0-19.403,0-102.524,0-109.439c0-0.281-0.063-0.562-0.08-0.849c2.569-1.347,5.103-2.787,7.465-4.427
		c3.263-2.282,6.25-4.839,8.624-7.953c2.345-3.073,4.145-6.921,4.145-11.318c0-6.852,0-15.413,0-27.156v-2.477l-1.657-1.846
		c-8.808-9.811-20.734-22.833-24.868-45.975l-0.654-3.699l-3.532-1.261c-2.248-0.802-3.962-1.623-5.459-2.66
		c-2.208-1.56-4.209-3.687-6.548-8.045c-2.311-4.334-4.76-10.814-7.437-20.212c-1.175-4.106-1.594-7.3-1.594-9.673
		c0.005-2.753,0.533-4.364,1.072-5.378c0.178-0.321,0.396-0.476,0.591-0.723c0.276,0.464,0.51,0.958,0.894,1.342
		c1.204,1.204,2.867,1.892,4.57,1.892c0.762,0,1.508-0.183,2.219-0.448l9.042,9.949v-20.768c9.409-5.666,18.79-11.697,27.604-17.615
		c-1.892,7.305-4.805,19.019-6.072,26.64c56.021-9.083,76.893-28.698,83.476-37.122l9.788,6.864
		c8.876,10.573,19.679,15.556,24.92,17.483l3.372,2.362l3.704,24.112l8.641-11.52c1.582-0.086,3.119-0.705,4.238-1.83
		c0.401-0.401,0.648-0.906,0.929-1.394c0.189,0.242,0.384,0.454,0.556,0.775c0.539,1.014,1.066,2.626,1.078,5.378
		c0,2.374-0.424,5.567-1.594,9.673c-3.56,12.546-6.755,19.84-9.685,23.888c-1.468,2.047-2.81,3.326-4.3,4.37
		c-1.497,1.038-3.211,1.858-5.459,2.66l-3.538,1.261l-0.647,3.699c-4.134,23.142-16.062,36.164-24.869,45.975l-1.657,1.846v2.477
		c0,11.743,0,20.304,0,27.156c-0.011,4.254,1.646,8.085,3.916,11.141c3.435,4.61,8.206,8.022,13.4,11.004
		c0.946,0.539,1.961,0.969,2.93,1.468C314.793,385.617,314.725,385.921,314.725,386.236z M409.101,468.221l-0.557,0.66
		c-0.952,0.963-2.872,2.414-5.573,3.95c-4.547,2.626-11.267,5.539-19.742,8.423V411.34c2.603,1.657,5.12,3.434,7.437,5.424
		c5.505,4.713,10.115,10.373,13.423,17.495c3.298,7.133,5.327,15.791,5.332,26.657C409.421,463.238,409.301,465.686,409.101,468.221
		z"/>
	<polygon class="st0" points="256.1,420.359 209.953,406.902 208.313,412.538 253.17,425.623 253.17,468.439 259.042,468.439 
		259.042,425.623 303.899,412.538 302.259,406.902 	"/>
	<path class="st0" d="M256.112,149.411c6.726,0,12.185-6.135,12.185-13.704s-5.459-13.704-12.185-13.704
		c-6.726,0-12.179,6.135-12.179,13.704S249.386,149.411,256.112,149.411z"/>
</g>
</svg>