<?xml version="1.0" encoding="utf-8"?>

<!DOCTYPE svg PUBLIC "-//W3C//DTD SVG 1.1//EN" "http://www.w3.org/Graphics/SVG/1.1/DTD/svg11.dtd">
<!-- Uploaded to: SVG Repo, www.svgrepo.com, Generator: SVG Repo Mixer Tools -->
<svg height="800px" width="800px" version="1.1" id="_x32_" xmlns="http://www.w3.org/2000/svg" xmlns:xlink="http://www.w3.org/1999/xlink" 
	 viewBox="0 0 512 512"  xml:space="preserve">
<style type="text/css">
	.st0{fill:#000000;}
</style>
<g>
	<path class="st0" d="M491.934,362.788c-8.597-13.905-20.659-21.754-30.373-26.08c-9.752-4.327-17.307-5.275-17.807-5.342
		l-0.241-0.031l-103.244-8.751l-12.852,25.696c-1.068-0.444-2.141-0.888-2.972-1.287c-1.67-0.805-2.845-1.512-3.582-2.084
		c-1.106-0.896-1.286-1.219-1.655-2.077c-0.338-0.85-0.662-2.588-0.651-5.516c0-7.502,0-16.9,0-29.368
		c5.576-3.815,10.689-8.164,15.14-13.228c2.069-2.348,3.943-4.906,5.797-7.487c-0.094,0.797-0.218,1.542-0.23,2.506
		c0.057,1.558,0.026,3.439,1.404,6.35c0.707,1.422,1.975,3.161,3.931,4.448c1.934,1.317,4.376,1.918,6.313,1.888
		c2.453-0.03,4.192-0.677,5.564-1.309c2.058-0.986,3.514-2.108,5.068-3.447c1.532-1.331,3.093-2.904,4.858-4.838
		c11.362-12.611,21.415-31.611,29.086-54.109c7.607-22.476,12.615-48.353,12.626-74.29c0-6.494-0.316-12.987-0.993-19.421
		c-3.465-32.529-16.942-68.217-41.363-96.45c-12.216-14.094-27.228-26.268-45.05-34.899C302.895,5.026,282.293-0.008,259.253,0
		c-1.065,0-2.152,0.015-3.258,0.038C254.915,0.015,253.831,0,252.747,0c-23.044-0.008-43.642,5.026-61.457,13.664
		c-26.749,12.964-47.1,33.831-61.328,57.3c-14.24,23.491-22.495,49.639-25.083,74.048c-0.677,6.441-0.997,12.927-0.997,19.421
		c0.015,25.937,5.023,51.814,12.63,74.29c7.671,22.484,17.724,41.498,29.082,54.109c2.358,2.58,4.33,4.507,6.407,6.11
		c1.053,0.79,2.137,1.528,3.518,2.175c1.373,0.632,3.112,1.286,5.564,1.309c1.95,0.03,4.398-0.579,6.332-1.896
		c1.456-0.963,2.555-2.198,3.285-3.333c1.099-1.738,1.505-3.206,1.749-4.41c0.233-1.196,0.282-2.174,0.282-3.055
		c-0.007-0.91-0.128-1.603-0.21-2.37c4.91,6.847,10.508,12.897,17.065,17.991c1.23,0.956,2.563,1.806,3.856,2.694
		c0,12.423,0,21.783,0,29.27c0.004,2.446-0.29,4.041-0.646,5.034c-0.58,1.444-1.031,2.107-3.172,3.552
		c-1.166,0.752-2.87,1.58-5.004,2.46l-12.893-25.787l-103.368,8.774l-0.113,0.016c-0.504,0.067-8.055,1.015-17.806,5.342
		c-9.715,4.326-21.776,12.175-30.377,26.08c-7.476,12.19-10.832,28.293-10.873,45.418c0.011,16.419,3.242,33.792,9.932,49.452
		c0.523,2.257,1.588,3.965,2.705,5.372c2.63,3.161,6.012,5.516,10.44,8.096c7.716,4.432,18.653,9.03,32.611,13.65
		c41.787,13.747,110.494,27.209,191.12,27.224c65.516,0,123.196-8.916,164.901-19.616c20.872-5.358,37.717-11.144,49.77-16.652
		c6.039-2.762,10.866-5.418,14.609-8.179c1.874-1.4,3.492-2.814,4.895-4.523c1.114-1.407,2.178-3.115,2.706-5.364
		c6.689-15.674,9.921-33.048,9.932-49.459C502.769,391.081,499.413,374.978,491.934,362.788z M101.61,432.849H26.974
		c-1.796-8.209-2.777-16.592-2.773-24.643c0-0.895,0.045-1.768,0.068-2.648h77.341V432.849z M313.215,293.487
		c-6.038,4.673-13.022,8.278-21.279,10.934v-36.276c9.842-0.956,19.003-2.348,27.254-4.357c7.37-1.791,14.029-4.085,20-6.945
		C332.35,272.915,324.11,285.044,313.215,293.487z M255.998,269.762c7.276,0,14.195-0.218,20.926-0.549v38.639
		c-6.339,0.941-13.236,1.49-20.926,1.49c-7.686,0-14.583-0.55-20.922-1.49v-38.624C241.803,269.56,248.733,269.762,255.998,269.762z
		 M235.076,254.224v-30.519h41.847v30.504c-6.67,0.338-13.604,0.542-20.926,0.542C248.695,254.751,241.731,254.571,235.076,254.224z
		 M255.998,324.353c14.195,0,26.644-1.535,37.657-4.696c3.465-0.986,6.708-2.242,9.887-3.551c0,8.532,0,15.425,0,21.211
		c0.004,2.174,0.196,4.222,0.519,6.238c-3.13,2.092-7.641,4.394-12.683,6.531c-8.304,3.529-17.904,6.705-25.361,8.954
		c-3.728,1.129-6.93,2.032-9.188,2.649c-0.655,0.18-1.204,0.332-1.689,0.46c-3.83-1.024-13.224-3.627-23.24-7.111
		c-5.098-1.768-10.346-3.762-15.041-5.847c-3.495-1.542-6.69-3.168-9.222-4.702c0.508-2.303,0.817-4.666,0.821-7.171
		c0-5.779,0-12.649,0-21.167c3.171,1.31,6.429,2.521,9.883,3.507C229.358,322.818,241.807,324.353,255.998,324.353z
		 M213.029,363.894c18.202,7.728,40.08,13.236,40.268,13.296l1.844,0.467l1.843-0.467c0.11-0.038,9.906-2.514,21.784-6.433
		c5.941-1.964,12.4-4.274,18.484-6.863c5.211-2.227,10.087-4.628,14.3-7.322c1.057,0.828,2.197,1.566,3.367,2.243l-58.921,35.831
		l-58.857-35.794c0.843-0.518,1.633-1.136,2.423-1.731C203.586,359.598,208.165,361.818,213.029,363.894z M340.675,238.596
		c-1.583,1.181-3.292,2.318-5.26,3.393c-7.904,4.32-18.943,7.608-32.415,9.7c-3.518,0.549-7.224,1.016-11.065,1.414v-29.398h48.74
		V238.596z M171.196,162.274c-0.007-2.738,0.2-4.92,0.606-6.418c0.433-1.512,0.873-2.325,1.784-3.296l0.004-0.008
		c3.901-4.033,9.266-6.298,14.868-6.298h135.08c5.606,0,10.97,2.265,14.872,6.298c0.914,0.978,1.354,1.791,1.787,3.311
		c0.407,1.49,0.61,3.672,0.606,6.411c0,1.61-0.06,3.401-0.124,5.327l-0.004,0.166v40.927H171.324v-40.927l-0.004-0.166
		C171.256,165.675,171.196,163.884,171.196,162.274z M171.324,238.596v-14.891h48.737v29.384
		c-8.721-0.911-16.701-2.175-23.699-3.876c-7.848-1.918-14.507-4.349-19.778-7.224C174.616,240.913,172.908,239.777,171.324,238.596
		z M189.564,284.796c-6.568-7.442-12.043-16.81-16.825-28.067c9.557,4.598,20.892,7.743,33.943,9.79
		c4.27,0.67,8.77,1.189,13.379,1.64v36.201C207.303,300.244,197.604,293.871,189.564,284.796z M221.02,496.033
		c-9.594-0.474-18.98-1.106-28.089-1.919v-32.265h-16.264l11.828-29h4.436h28.089V496.033z M331.913,458.44h-0.004v34.448
		c-7.938,0.858-16.094,1.596-24.451,2.197V458.44h-27.296v23.311h-24.454v-48.902h0.004h24.45h27.296h24.451h0.004V458.44z
		 M485.026,432.849H401.85v-27.291h85.882c0.022,0.88,0.068,1.753,0.068,2.648C487.803,416.258,486.821,424.64,485.026,432.849z"/>
</g>
</svg>