<?xml version="1.0" encoding="utf-8"?>

<!DOCTYPE svg PUBLIC "-//W3C//DTD SVG 1.1//EN" "http://www.w3.org/Graphics/SVG/1.1/DTD/svg11.dtd">
<!-- Uploaded to: SVG Repo, www.svgrepo.com, Generator: SVG Repo Mixer Tools -->
<svg height="800px" width="800px" version="1.1" id="_x32_" xmlns="http://www.w3.org/2000/svg" xmlns:xlink="http://www.w3.org/1999/xlink" 
	 viewBox="0 0 512 512"  xml:space="preserve">
<style type="text/css">
	.st0{fill:#000000;}
</style>
<g>
	<path class="st0" d="M411.113,420.445c-10.476-15.688-26.388-24.364-41.342-30c-7.494-2.821-14.828-4.903-21.284-6.669
		c-6.445-1.754-12.053-3.234-15.82-4.65c-6.588-2.448-13.549-5.619-18.406-9.03c-2.426-1.692-4.294-3.435-5.378-4.92
		c-1.095-1.52-1.393-2.569-1.405-3.486c0-5.677,0-12.655,0-21.52c9.897,6.296,30.23,15.235,63.51,12.299
		c-20.052-12.03-32.764-45.918-34.88-64.083c0.665-0.39,1.347-0.711,2.001-1.164c4.123-2.844,7.621-6.978,10.585-12.598
		c2.982-5.642,5.625-12.856,8.446-22.724c0.2-0.711,0.275-1.319,0.453-2.007l1.824-1.37c11.674-8.779,21.474-21.474,28.458-36.354
		c6.967-14.886,11.101-31.99,11.107-49.685c0-15.528-3.211-31.52-10.562-46.669c-11.25-23.2-28.079-39.57-46.222-50.798
		c-16.319-10.103-33.681-16.112-49.398-19.593v-8.629C292.798,16.468,276.33,0,256.003,0c-20.327,0-36.795,16.468-36.795,36.795
		v8.762c-15.671,3.526-32.925,9.564-49.14,19.662c-18.016,11.216-34.714,27.529-45.901,50.597
		c-7.35,15.149-10.568,31.141-10.562,46.669c0,17.695,4.14,34.8,11.107,49.685c6.984,14.879,16.783,27.575,28.458,36.354l1.13,0.848
		c0.206,0.86,0.309,1.629,0.567,2.529c3.773,13.142,7.179,21.629,11.589,27.856c2.202,3.091,4.713,5.573,7.442,7.466
		c0.384,0.27,0.797,0.448,1.187,0.694c-1.95,18.039-14.714,52.42-34.937,64.553c34.226,3.022,54.816-6.537,64.381-12.838
		c0,9.123,0,16.268,0,22.059c0,0.78-0.31,1.904-1.519,3.509c-1.772,2.385-5.448,5.275-9.811,7.724
		c-4.352,2.477-9.358,4.622-13.739,6.164c-5.144,1.824-13.429,3.722-22.712,6.382c-13.95,4.037-30.442,9.846-43.859,21.353
		c-6.697,5.751-12.581,12.976-16.715,21.956c-4.14,8.974-6.514,19.639-6.508,32.116c0,2.896,0.126,5.889,0.391,8.986
		c0.189,2.173,1.014,3.933,1.983,5.39c1.847,2.712,4.295,4.725,7.362,6.794c5.373,3.556,12.816,7.03,22.346,10.442
		c28.521,10.172,75.74,19.484,134.256,19.496c47.541,0,87.668-6.17,116.309-13.922c14.33-3.888,25.768-8.136,34.037-12.385
		c4.14-2.139,7.489-4.255,10.144-6.572c1.33-1.17,2.494-2.397,3.475-3.853c0.963-1.457,1.794-3.217,1.983-5.39
		c0.258-3.091,0.385-6.078,0.385-8.963C422.358,444.282,418.086,430.876,411.113,420.445z M368.521,107.243
		c3.016,4.38,5.792,9.1,8.28,14.215c6.428,13.257,9.26,27.265,9.26,41.026c0,4.346-0.31,8.658-0.854,12.919l-81.239-32.724
		L368.521,107.243z M287.173,57.437c15.338,3.114,32.488,8.808,48.223,18.562c10.866,6.743,21.015,15.413,29.588,26.485
		l-68.052,37.363l-9.759-3.933V57.437z M287.173,147.381v-5.138l97.099,39.112c-1.668,8.934-4.432,17.512-8.096,25.333
		c-4.157,8.876-9.449,16.743-15.39,23.165c-0.619-1.244-1.313-2.414-2.138-3.406c-2.896-3.486-6.4-5.47-9.542-6.754
		c-0.831-0.448-1.652-0.826-2.426-1.107c-2.098-0.774-3.899-1.078-5.281-1.216l-65.654-46.055
		C282.666,165.598,287.167,157.06,287.173,147.381z M233.055,40.895c0-6.348,2.564-12.059,6.72-16.227
		c4.168-4.157,9.88-6.721,16.227-6.721c6.348,0,12.059,2.564,16.228,6.721c3.332,3.342,5.568,7.694,6.348,12.552l-18.905,15.465
		l3.716,4.541l15.562-12.73v32.627l-20.012,16.371V24.146h-5.872v43.94l-18.194-14.891l-1.818,2.219V40.895z M233.055,59.29
		l19.628,16.061l0.384-0.47v34.858h5.872v-8.664l20.012-16.37v62.678c0,6.347-2.563,12.058-6.72,16.227
		c-1.227,1.221-2.621,2.254-4.088,3.176l-11.25-7.982l-12.082,8.498c-1.824-1.032-3.555-2.22-5.034-3.693
		c-4.157-4.169-6.72-9.88-6.72-16.227V59.29z M176.903,76.182c15.608-9.736,32.643-15.459,47.931-18.618v41.933L160.096,88.9
		C165.406,84.06,171.048,79.834,176.903,76.182z M126.524,162.484c0-13.762,2.832-27.77,9.26-41.026
		c5.23-10.764,11.761-19.8,19.1-27.46l69.949,11.445v39.845l-98.172,21.91C126.587,165.632,126.524,164.061,126.524,162.484z
		 M161.157,220.558c-4.472,2.511-7.299,6.29-8.813,9.868c-6.164-6.525-11.657-14.592-15.934-23.738
		c-4.782-10.201-8.05-21.664-9.3-33.567l98.114-21.898c1.078,8.681,5.642,16.222,12.345,21.17l-44.593,31.37
		c-7.271,4.691-14.702,9.295-22.053,13.561c-2.036,0.172-5.241,0.786-8.687,2.781C161.897,220.272,161.484,220.374,161.157,220.558z
		 M409.101,468.221l-0.557,0.66c-0.952,0.963-2.872,2.414-5.573,3.95c-6.095,3.52-16.027,7.546-28.974,11.342
		c-9.564-16.824-26.267-44.296-60.746-43.217c-46.973,1.468-46.973,26.422-57.248,26.422c-10.275,0-10.275-24.954-57.248-26.422
		c-34.484-1.078-51.193,26.411-60.751,43.228c-11.285-3.297-20.27-6.8-26.434-9.977c-3.515-1.806-6.107-3.526-7.54-4.794
		c-0.614-0.533-0.958-0.94-1.129-1.175c-0.201-2.546-0.316-5.006-0.316-7.346c0.023-14.495,3.567-25.086,9.043-33.389
		c8.194-12.408,21.348-20.006,35.092-25.178c6.841-2.58,13.762-4.541,20.115-6.244c6.365-1.715,12.122-3.131,16.916-4.817
		c6.651-2.356,14.392-5.768,20.924-10.304c3.262-2.282,6.25-4.839,8.624-7.953c2.345-3.073,4.146-6.921,4.146-11.318
		c0-6.852,0-15.413,0-27.156v-2.477l-1.658-1.846c-8.808-9.811-20.734-22.833-24.868-45.975l-0.654-3.699l-3.532-1.261
		c-2.248-0.802-3.962-1.623-5.459-2.66c-2.208-1.56-4.209-3.687-6.548-8.045c-2.311-4.334-4.76-10.814-7.437-20.212
		c-1.175-4.106-1.594-7.3-1.594-9.673c0.006-2.753,0.533-4.364,1.072-5.378c0.178-0.321,0.402-0.476,0.597-0.728
		c0.27,0.47,0.51,0.963,0.894,1.347c1.198,1.204,2.862,1.892,4.565,1.892c0.768,0,1.508-0.183,2.219-0.448l9.042,9.949v-20.768
		c9.41-5.666,18.79-11.697,27.604-17.615c-1.892,7.305-4.805,19.019-6.072,26.64c56.021-9.083,76.893-28.698,83.476-37.122
		l9.788,6.864c8.876,10.573,19.679,15.556,24.92,17.483l3.372,2.362l3.704,24.112l8.641-11.52c1.582-0.086,3.12-0.705,4.238-1.83
		c0.401-0.401,0.648-0.906,0.929-1.394c0.189,0.242,0.384,0.454,0.556,0.775c0.545,1.014,1.067,2.626,1.078,5.378
		c0,2.374-0.418,5.567-1.594,9.673c-3.561,12.546-6.755,19.84-9.685,23.888c-1.468,2.047-2.81,3.326-4.3,4.37
		c-1.497,1.038-3.211,1.858-5.459,2.66l-3.532,1.261l-0.654,3.699c-4.134,23.142-16.06,36.164-24.868,45.975l-1.658,1.846v2.477
		c0,11.743,0,20.304,0,27.156c-0.011,4.254,1.646,8.085,3.911,11.141c3.441,4.61,8.211,8.022,13.406,11.004
		c5.207,2.953,10.9,5.384,16.256,7.391c6.399,2.374,14.559,4.243,23.47,6.846c13.342,3.848,28.085,9.272,39.06,18.693
		c5.505,4.713,10.115,10.373,13.423,17.495c3.298,7.133,5.327,15.791,5.327,26.657C409.416,463.238,409.301,465.686,409.101,468.221
		z"/>
	<path class="st0" d="M256.112,149.411c6.726,0,12.184-6.135,12.184-13.704s-5.459-13.704-12.184-13.704
		c-6.726,0-12.179,6.135-12.179,13.704S249.386,149.411,256.112,149.411z"/>
	<path class="st0" d="M214.167,389.166c-3.245,0-5.872,2.626-5.872,5.872s2.626,5.872,5.872,5.872c3.246,0,5.872-2.626,5.872-5.872
		S217.413,389.166,214.167,389.166z"/>
	<path class="st0" d="M232.74,405.313c-3.245,0-5.872,2.626-5.872,5.872c0,3.246,2.626,5.872,5.872,5.872
		c3.246,0,5.872-2.626,5.872-5.872C238.611,407.94,235.986,405.313,232.74,405.313z"/>
	<path class="st0" d="M256.003,415.589c-3.245,0-5.872,2.626-5.872,5.872c0,3.245,2.626,5.872,5.872,5.872
		c3.246,0,5.872-2.626,5.872-5.872C261.874,418.215,259.249,415.589,256.003,415.589z"/>
	<path class="st0" d="M297.838,389.166c-3.245,0-5.872,2.626-5.872,5.872s2.626,5.872,5.872,5.872c3.246,0,5.872-2.626,5.872-5.872
		S301.084,389.166,297.838,389.166z"/>
	<path class="st0" d="M279.266,405.313c-3.246,0-5.872,2.626-5.872,5.872c0,3.246,2.626,5.872,5.872,5.872
		c3.245,0,5.872-2.626,5.872-5.872C285.138,407.94,282.511,405.313,279.266,405.313z"/>
</g>
</svg>