<?xml version="1.0" encoding="utf-8"?>

<!DOCTYPE svg PUBLIC "-//W3C//DTD SVG 1.1//EN" "http://www.w3.org/Graphics/SVG/1.1/DTD/svg11.dtd">
<!-- Uploaded to: SVG Repo, www.svgrepo.com, Generator: SVG Repo Mixer Tools -->
<svg height="800px" width="800px" version="1.1" id="_x32_" xmlns="http://www.w3.org/2000/svg" xmlns:xlink="http://www.w3.org/1999/xlink" 
	 viewBox="0 0 512 512"  xml:space="preserve">
<style type="text/css">
	.st0{fill:#000000;}
</style>
<g>
	<path class="st0" d="M427.993,410.48c-11.616-17.402-29.26-27.021-45.842-33.265c-8.316-3.135-16.442-5.436-23.601-7.395
		c-7.146-1.945-13.364-3.586-17.548-5.156c-7.299-2.721-15.018-6.231-20.397-10.02c-2.696-1.869-4.768-3.802-5.97-5.455
		c-1.214-1.679-1.545-2.848-1.558-3.86c0-7.026,0-15.819,0-27.378c9.346-10.396,22.775-26.519,28.294-52.066
		c1.926-0.871,3.828-1.85,5.671-3.128c4.566-3.154,8.457-7.738,11.738-13.969c3.306-6.257,6.237-14.255,9.365-25.197
		c1.583-5.544,2.314-10.364,2.321-14.662c0-4.947-1.018-9.238-2.887-12.723c-2.804-5.283-7.35-8.221-11.031-9.556
		c-0.4-0.152-0.763-0.228-1.151-0.35c0-0.801,0-1.672,0-2.587c15.062-8.12,27.881-19.278,36.623-34.576
		c9.2-16.098-4.222-28.916-19.933-29.101c-15.666-0.184-33.622,12.245-33.622,12.245l6.193-103.172
		c0.477-8.069-5.258-15.177-13.256-16.398c0,0-15.387-12.71-76.494-12.71c-61.108,0-76.495,12.71-76.495,12.71
		c-7.998,1.221-13.733,8.329-13.256,16.398l6.193,103.172c0,0-17.955-12.43-33.622-12.245
		c-15.711,0.184-29.133,13.002-19.932,29.101c8.622,15.094,22.438,26.151,38.81,34.245c0,1.042,0,2.034,0,2.938
		c-1.577,0.496-3.249,1.144-5.023,2.225c-2.638,1.628-5.302,4.171-7.159,7.661c-1.869,3.485-2.893,7.776-2.886,12.723
		c0,4.298,0.738,9.118,2.32,14.662c4.184,14.572,7.961,23.983,12.85,30.888c2.442,3.427,5.226,6.18,8.252,8.278
		c0.362,0.254,0.75,0.413,1.112,0.648c-0.12,3.338-0.299,8.38-0.299,14.102c0.007,9.518,0.458,21.026,2.455,30.659
		c1.004,4.826,2.378,9.194,4.463,12.729c2.048,3.484,5.138,6.377,9.322,6.968l0.095,0.012l0.02,0.006l1.31,0.083
		c2.798,0.013,5.34-1.304,7.172-3.179c2.454-2.518,4.145-5.951,5.487-10.033c0.985,1.132,1.907,2.175,2.829,3.198
		c0,11.566,0,20.352,0,27.378c0,0.858-0.343,2.111-1.691,3.891c-1.958,2.645-6.028,5.843-10.873,8.564
		c-4.826,2.747-10.376,5.124-15.234,6.828c-5.697,2.022-14.891,4.133-25.185,7.083c-15.469,4.47-33.755,10.91-48.633,23.672
		c-7.426,6.376-13.95,14.388-18.528,24.345c-4.603,9.957-7.223,21.776-7.223,35.618c0,3.205,0.14,6.524,0.432,9.957
		c0.21,2.416,1.132,4.368,2.2,5.977c2.048,3.014,4.763,5.245,8.164,7.541c5.958,3.942,14.21,7.795,24.778,11.578
		C138.75,501.662,191.115,511.981,256,512c52.716-0.006,97.21-6.847,128.962-15.438c15.896-4.304,28.586-9.022,37.748-13.734
		c4.591-2.371,8.304-4.718,11.247-7.286c1.475-1.297,2.772-2.658,3.853-4.279c1.068-1.609,1.99-3.56,2.2-5.977
		c0.292-3.433,0.432-6.739,0.432-9.938C440.462,436.904,435.725,422.039,427.993,410.48z M189.011,315.172
		c-0.96,2.327-2.035,4.044-3.014,5.023c-1.011,0.979-1.698,1.233-2.562,1.252l-0.547-0.038c-1.589-0.248-3.058-1.31-4.603-3.846
		c-2.289-3.79-3.929-10.409-4.82-17.72c-0.916-7.318-1.183-15.368-1.183-22.336c0-1.564,0.02-3.046,0.038-4.476
		c4.483,15.342,11.813,26.831,18.731,35.606C190.442,311.083,189.774,313.34,189.011,315.172z M257.126,497.663
		c-0.382,0-0.744,0.012-1.126,0.012c-0.584,0-1.138-0.026-1.722-0.026l-64.344-125.585c3.148-1.615,6.263-3.364,9.149-5.367
		c3.618-2.53,6.937-5.366,9.563-8.818c2.6-3.414,4.596-7.674,4.596-12.551c0-7.598,0-17.097,0-30.112v-2.753l-1.837-2.041
		c-3.592-4-7.655-8.501-11.578-13.848c1.768-14.077,2.104-30.271,2.168-42.809c4.66,3.878,10.568,6.308,17.104,6.314
		c14.834-0.006,26.85-12.03,26.857-26.856c-0.006-14.834-12.023-26.851-26.857-26.857c-14.834,0.006-26.851,12.023-26.857,26.857
		c0,4.564,1.252,8.799,3.262,12.57c0,0.852,0,1.704,0,2.62c0,10.758-0.134,25.738-1.31,39.452c-4.457-7.7-8.304-16.88-10.364-28.421
		l-0.725-4.094l-3.916-1.405c-2.492-0.89-4.4-1.8-6.053-2.95c-2.448-1.73-4.667-4.088-7.261-8.92
		c-2.556-4.813-5.278-11.992-8.246-22.413c-1.304-4.552-1.768-8.1-1.768-10.732c0.006-3.052,0.591-4.832,1.189-5.964
		c0.903-1.64,2.009-2.34,3.42-2.899c1.189-0.458,2.429-0.566,2.861-0.579l3.79,0.477c1.106,6.002,4.75,22.386,12.64,30.277
		c-1.437-12.932,2.352-27.734,5.086-36.286c24.733,6.835,51.73,9.188,75.039,9.188c22.775,0,47.012-2.238,69.03-8.711
		c2.715,8.616,6.352,23.112,4.935,35.809c8.056-8.056,11.673-24.936,12.697-30.614l1.996-0.146c0.356-0.026,2.759,0.191,4.304,1.227
		c0.82,0.522,1.488,1.132,2.105,2.257c0.598,1.132,1.182,2.912,1.189,5.964c0,2.632-0.464,6.174-1.768,10.732
		c-3.948,13.912-7.496,22-10.739,26.488c-1.628,2.264-3.115,3.688-4.768,4.845c-1.653,1.151-3.561,2.06-6.053,2.95l-3.917,1.398
		l-0.724,4.101c-4.584,25.668-17.81,40.101-27.576,50.98l-1.837,2.041v2.753c0,13.021,0,22.514,0,30.112
		c-0.012,4.724,1.831,8.965,4.336,12.354c3.815,5.112,9.105,8.895,14.865,12.194c1.196,0.674,2.467,1.228,3.694,1.857
		L257.126,497.663z M202.007,233.222c0.019-9.436,7.649-17.072,17.09-17.091c9.442,0.019,17.071,7.655,17.091,17.091
		c-0.02,9.429-7.649,17.071-17.091,17.09C209.656,250.293,202.026,242.651,202.007,233.222z"/>
	<polygon class="st0" points="215.302,365.884 215.302,407.663 256.267,392.467 297.232,407.663 297.232,365.884 256.267,379.446 	
		"/>
	<path class="st0" d="M253.114,284.704c-13.022,1.088-24.962,16.277-32.554,16.277C232.501,302.068,244.429,302.068,253.114,284.704
		z"/>
	<path class="st0" d="M295.439,300.98c-7.592,0-19.532-15.189-32.554-16.277C271.571,302.068,283.499,302.068,295.439,300.98z"/>
</g>
</svg>