<?xml version="1.0" encoding="utf-8"?>

<!DOCTYPE svg PUBLIC "-//W3C//DTD SVG 1.1//EN" "http://www.w3.org/Graphics/SVG/1.1/DTD/svg11.dtd">
<!-- Uploaded to: SVG Repo, www.svgrepo.com, Generator: SVG Repo Mixer Tools -->
<svg version="1.1" id="_x32_" xmlns="http://www.w3.org/2000/svg" xmlns:xlink="http://www.w3.org/1999/xlink" 
	 width="800px" height="800px" viewBox="0 0 512 512"  xml:space="preserve">
<style type="text/css">
<![CDATA[
	.st0{fill:#000000;}
]]>
</style>
<g>
	<path class="st0" d="M117.695,323.969c-8.641,11.188-13.828,25.156-13.828,40.375c0,36.531,29.594,66.156,66.141,66.156
		c36.531,0,66.156-29.625,66.156-66.156c0-6.25-0.938-12.25-2.547-18c7.594,0.406,15.094,0.688,22.375,0.688
		c7.297,0,14.797-0.281,22.406-0.688c-1.625,5.75-2.547,11.75-2.547,18c0.016,36.531,29.609,66.156,66.156,66.156
		c36.531,0,66.156-29.625,66.156-66.156c0-15.219-5.203-29.188-13.844-40.375c31.922-11.625,59.141-27.656,75.125-48.5H42.57
		C58.539,296.313,85.757,312.359,117.695,323.969z M303.445,344.344c22.547-2.5,45.406-6.75,67.016-12.797
		c0.781,0.672,1.547,1.328,2.281,2.047c7.891,7.906,12.734,18.719,12.734,30.75s-4.844,22.844-12.734,30.734
		c-7.906,7.891-18.703,12.734-30.734,12.734c-12.047,0-22.828-4.844-30.75-12.734c-7.875-7.891-12.719-18.703-12.734-30.734
		C298.523,357.094,300.32,350.313,303.445,344.344z M139.257,333.594c0.734-0.719,1.5-1.375,2.281-2.047
		c21.609,6.047,44.484,10.297,67.047,12.797c3.109,5.969,4.891,12.75,4.891,20c0,12.031-4.844,22.844-12.734,30.734
		s-18.688,12.734-30.734,12.734s-22.828-4.844-30.75-12.734c-7.875-7.891-12.703-18.703-12.719-30.734
		C126.554,352.313,131.382,341.5,139.257,333.594z"/>
	<polygon class="st0" points="256.007,446.484 170.414,463.719 157.726,512 256.007,484.406 354.289,512 341.617,463.719 	"/>
	<path class="st0" d="M484.68,121.203C438.945,94.781,355.085,0,255.992,0S73.054,94.781,27.32,121.203
		c-57.281,33.109-7.625,79.297,15.25,99.844h426.875C492.305,200.5,541.961,154.313,484.68,121.203z M256.007,184.781
		c-12.531,0-22.688-10.156-22.688-22.688c0-12.516,10.156-22.672,22.688-22.672c12.516,0,22.672,10.156,22.672,22.672
		C278.679,174.625,268.523,184.781,256.007,184.781z"/>
</g>
</svg>