<?xml version="1.0" encoding="utf-8"?>

<!DOCTYPE svg PUBLIC "-//W3C//DTD SVG 1.1//EN" "http://www.w3.org/Graphics/SVG/1.1/DTD/svg11.dtd">
<!-- Uploaded to: SVG Repo, www.svgrepo.com, Generator: SVG Repo Mixer Tools -->
<svg height="800px" width="800px" version="1.1" id="_x32_" xmlns="http://www.w3.org/2000/svg" xmlns:xlink="http://www.w3.org/1999/xlink" 
	 viewBox="0 0 512 512"  xml:space="preserve">
<style type="text/css">
	.st0{fill:#000000;}
</style>
<g>
	<path class="st0" d="M217.212,195.247c5.788,0,10.486-4.69,10.486-10.485c0-5.788-4.697-10.485-10.486-10.485
		c-5.788,0-10.485,4.697-10.485,10.485C206.726,190.557,211.424,195.247,217.212,195.247z"/>
	<path class="st0" d="M294.795,195.247c5.796,0,10.478-4.69,10.478-10.485c0-5.788-4.682-10.485-10.478-10.485
		s-10.485,4.697-10.485,10.485C284.31,190.557,288.999,195.247,294.795,195.247z"/>
	<path class="st0" d="M255.045,253.777c21.502,0,41.222-10.493,53.374-27.333H201.656
		C213.83,243.284,233.565,253.777,255.045,253.777z"/>
	<path class="st0" d="M411.877,173.587C406.261,58.351,274.256,0,256.007,0c-18.256,0-150.261,58.351-155.884,173.587
		C95.081,277.024,116.985,512,256.007,512C395.022,512,416.919,277.024,411.877,173.587z M242.462,83.444
		c4.123-0.532,8.309-0.819,12.583-0.819c5.774,0,11.432,0.517,16.934,1.479c0.56,0.654,1.148,1.401,1.738,2.291
		c2.485,3.764,4.985,9.688,5.006,19.053c0.007,7.081-1.487,16.173-5.695,27.62c-13.272-10.678-20.827-20.504-25.107-28.611
		c-4.654-8.826-5.494-15.656-5.501-19.606C242.42,84.327,242.434,83.86,242.462,83.444z M232.983,85.116
		c0.028,5.344,1.278,13.696,6.592,23.75c2.37,4.503,5.559,9.329,9.782,14.392c-4.223-1.709-8.445-3.296-12.424-4.969
		c-6.837-2.88-12.841-6.104-16.912-10.406c-2.048-2.148-3.648-4.546-4.798-7.469c-0.94-2.42-1.544-5.243-1.73-8.582
		C219.668,88.944,226.189,86.675,232.983,85.116z M339.616,384.267c-2.025,2.262-5.502,2.456-7.771,0.431l-103.968-93.024
		c6.428,1.566,13.078,2.578,19.872,3.01l24.353,21.782l27.297-30.501c5.199-2.197,10.212-4.776,14.988-7.698
		c1.889,2.06,1.975,5.249,0.065,7.375l-34.142,38.17l58.875,52.684C341.454,378.522,341.648,381.998,339.616,384.267z
		 M376.968,204.03c-3.347,3.333-7.878,5.365-12.978,5.372c-2.097,0-4.122-0.374-6.076-1.056l-7.44-2.622l-2.592,7.455
		c-6.671,19.204-19.146,35.728-35.326,47.427c-16.173,11.706-36.002,18.593-57.51,18.6c-21.43-0.007-41.18-6.83-57.324-18.442
		c-16.13-11.613-28.612-28.008-35.355-47.076l-2.442-6.902l-7.052,1.932c-1.616,0.446-3.225,0.683-4.862,0.683
		c-5.099-0.008-9.631-2.04-12.97-5.372c-3.339-3.346-5.378-7.885-5.378-12.977c0.006-5.084,2.039-9.631,5.378-12.97
		c3.34-3.332,7.871-5.372,12.97-5.379c0.316,0,0.797,0.029,1.458,0.079l7.304,0.574l1.091-7.232
		c3.562-23.62,15.534-44.49,32.792-59.471c4.308-3.742,8.948-7.116,13.861-10.068c0.431,2.672,1.084,5.171,1.996,7.469
		c1.451,3.634,3.491,6.794,5.889,9.494c4.23,4.726,9.509,8.051,15.024,10.78c8.288,4.072,17.236,6.887,24.748,10.398
		c3.764,1.745,7.146,3.641,9.925,5.824c2.78,2.191,4.941,4.632,6.493,7.598c0.832,1.602,2.492,2.586,4.294,2.535
		c1.81-0.043,3.419-1.099,4.18-2.736c8.151-17.681,11.088-31.585,11.088-42.501c0.015-7.447-1.386-13.48-3.361-18.227
		c12.927,4.107,24.698,10.794,34.701,19.498c17.272,15.024,29.236,35.944,32.749,59.615l1.164,7.806l7.806-1.192
		c1.041-0.158,1.953-0.244,2.779-0.244c5.099,0.007,9.631,2.046,12.978,5.379c3.332,3.339,5.365,7.886,5.379,12.97
		C382.332,196.145,380.3,200.684,376.968,204.03z"/>
</g>
</svg>