<?xml version="1.0" encoding="utf-8"?>

<!DOCTYPE svg PUBLIC "-//W3C//DTD SVG 1.1//EN" "http://www.w3.org/Graphics/SVG/1.1/DTD/svg11.dtd">
<!-- Uploaded to: SVG Repo, www.svgrepo.com, Generator: SVG Repo Mixer Tools -->
<svg height="800px" width="800px" version="1.1" id="_x32_" xmlns="http://www.w3.org/2000/svg" xmlns:xlink="http://www.w3.org/1999/xlink" 
	 viewBox="0 0 512 512"  xml:space="preserve">
<style type="text/css">
	.st0{fill:#000000;}
</style>
<g>
	<path class="st0" d="M255.999,201.538c-9.552,0-17.3,12.913-17.3,28.834c0,15.922,7.749,28.834,17.3,28.834
		c9.559,0,17.301-12.912,17.301-28.834C273.3,214.451,265.558,201.538,255.999,201.538z"/>
	<path class="st0" d="M234.167,171.044l-1.264-0.948c-1.214-0.904-2.528-1.637-3.914-2.312c-2.427-1.171-5.113-2.111-7.828-2.923
		c-4.072-1.214-8.201-2.119-11.347-2.736c-3.138-0.611-5.3-0.927-5.35-0.934c-2.708-0.402-5.228,1.472-5.623,4.18
		c-0.402,2.707,1.472,5.228,4.179,5.623l0.036,0.007c0.488,0.065,5.25,0.805,10.578,2.097c1.982,0.474,4.043,1.035,5.96,1.652
		c-0.402,0.201-0.804,0.395-1.213,0.603c-3.067,1.501-6.385,3.044-8.927,4.201c-1.271,0.582-2.348,1.063-3.102,1.4
		c-0.38,0.166-0.682,0.302-0.883,0.388c-0.201,0.094-0.309,0.137-0.309,0.137c-2.506,1.099-3.641,4.029-2.542,6.528
		c1.099,2.506,4.022,3.648,6.528,2.542c0.029-0.014,5.752-2.521,11.542-5.307c2.908-1.4,5.81-2.844,8.122-4.144
		c1.163-0.66,2.161-1.264,3.066-1.917c0.46-0.338,0.898-0.668,1.407-1.213c0.266-0.28,0.553-0.611,0.877-1.157
		c0.158-0.273,0.323-0.61,0.467-1.049c0.144-0.43,0.266-0.983,0.266-1.637c0-0.467-0.065-1.012-0.244-1.573L234.167,171.044z"/>
	<path class="st0" d="M306.91,161.192c-0.087,0.015-5.034,0.74-10.96,2.14c-2.958,0.704-6.168,1.58-9.199,2.657
		c-1.508,0.532-2.98,1.128-4.367,1.796c-1.393,0.675-2.7,1.408-3.921,2.312l-1.228,0.927l-0.488,1.458
		c-0.172,0.502-0.273,1.077-0.273,1.644c0.008,0.654,0.122,1.207,0.266,1.637c0.288,0.862,0.632,1.336,0.919,1.71
		c0.553,0.704,0.984,1.042,1.422,1.393c0.797,0.633,1.63,1.157,2.614,1.731c1.687,0.991,3.77,2.076,5.982,3.189
		c6.644,3.304,14.507,6.75,14.543,6.765c2.506,1.106,5.43-0.036,6.528-2.542c1.098-2.5-0.036-5.43-2.542-6.528
		c0,0-0.087-0.036-0.244-0.108c-1.221-0.538-6.823-3.03-12.044-5.558c-0.718-0.359-1.436-0.711-2.14-1.063
		c0.424-0.137,0.84-0.266,1.271-0.396c3.598-1.077,7.469-1.932,10.399-2.499c1.472-0.288,2.714-0.51,3.576-0.654
		c0.431-0.071,0.776-0.122,0.998-0.158l0.252-0.043l0.072-0.007c2.714-0.395,4.582-2.916,4.179-5.623
		C312.138,162.664,309.617,160.789,306.91,161.192z"/>
	<path class="st0" d="M411.877,173.588C406.26,58.35,274.255,0,255.999,0S105.745,58.35,100.122,173.588
		C95.088,277.024,116.977,512,255.999,512C395.021,512,416.918,277.024,411.877,173.588z M242.454,83.443
		c4.123-0.531,8.317-0.818,12.59-0.818c5.774,0,11.426,0.517,16.927,1.48c0.567,0.653,1.156,1.4,1.745,2.291
		c2.485,3.763,4.991,9.688,5.006,19.053c0,7.081-1.494,16.173-5.696,27.621c-13.271-10.68-20.826-20.504-25.114-28.612
		c-4.654-8.826-5.487-15.656-5.494-19.606C242.418,84.327,242.433,83.86,242.454,83.443z M232.982,85.117
		c0.036,5.342,1.279,13.695,6.585,23.75c2.378,4.503,5.559,9.328,9.789,14.392c-4.223-1.702-8.446-3.289-12.425-4.97
		c-6.836-2.88-12.841-6.105-16.913-10.406c-2.046-2.147-3.655-4.546-4.797-7.469c-0.948-2.42-1.551-5.242-1.731-8.582
		C219.668,88.944,226.181,86.675,232.982,85.117z M339.622,384.268c-2.032,2.262-5.508,2.456-7.778,0.431l-103.968-93.024
		c6.435,1.566,13.078,2.578,19.878,3.009l24.346,21.782l27.297-30.501c5.207-2.197,10.212-4.776,14.988-7.699
		c1.896,2.061,1.975,5.25,0.065,7.376l-34.142,38.17l58.882,52.684C341.453,378.522,341.648,381.998,339.622,384.268z
		 M376.966,204.03c-3.346,3.332-7.885,5.365-12.97,5.372c-2.111,0-4.13-0.374-6.083-1.056l-7.447-2.621l-2.585,7.454
		c-6.672,19.204-19.147,35.729-35.327,47.428c-16.173,11.706-36.002,18.593-57.51,18.6c-21.43-0.007-41.18-6.83-57.316-18.443
		c-16.144-11.613-28.619-28.008-35.362-47.075l-2.442-6.902l-7.052,1.932c-1.616,0.445-3.225,0.682-4.869,0.682
		c-5.092-0.007-9.631-2.04-12.97-5.372c-3.332-3.347-5.372-7.886-5.372-12.977c0-5.085,2.04-9.631,5.372-12.97
		c3.34-3.332,7.878-5.372,12.97-5.379c0.323,0,0.804,0.028,1.465,0.079l7.297,0.574l1.091-7.232
		c3.57-23.62,15.541-44.49,32.799-59.471c4.309-3.742,8.948-7.117,13.86-10.069c0.431,2.672,1.078,5.171,1.997,7.47
		c1.451,3.634,3.49,6.794,5.896,9.494c4.223,4.726,9.501,8.05,15.017,10.779c8.281,4.072,17.228,6.887,24.748,10.4
		c3.763,1.745,7.146,3.641,9.925,5.824c2.779,2.19,4.948,4.631,6.492,7.598c0.833,1.601,2.492,2.585,4.295,2.535
		c1.81-0.043,3.419-1.099,4.18-2.736c8.151-17.681,11.088-31.585,11.096-42.501c0.007-7.448-1.394-13.48-3.368-18.227
		c12.927,4.108,24.698,10.794,34.709,19.498c17.264,15.023,29.222,35.944,32.748,59.614l1.156,7.806l7.807-1.192
		c1.034-0.157,1.953-0.244,2.786-0.244c5.085,0.007,9.624,2.047,12.97,5.379c3.333,3.34,5.372,7.885,5.372,12.97
		C382.338,196.144,380.299,200.683,376.966,204.03z"/>
</g>
</svg>