<?xml version="1.0" encoding="utf-8"?>

<!DOCTYPE svg PUBLIC "-//W3C//DTD SVG 1.1//EN" "http://www.w3.org/Graphics/SVG/1.1/DTD/svg11.dtd">
<!-- Uploaded to: SVG Repo, www.svgrepo.com, Generator: SVG Repo Mixer Tools -->
<svg height="800px" width="800px" version="1.1" id="_x32_" xmlns="http://www.w3.org/2000/svg" xmlns:xlink="http://www.w3.org/1999/xlink" 
	 viewBox="0 0 512 512"  xml:space="preserve">
<style type="text/css">
	.st0{fill:#000000;}
</style>
<g>
	<path class="st0" d="M485.552,264.231c-9.702-9.709-22.873-16.074-37.44-17.142c-9.102-42.8-32.009-80.492-63.816-108.173
		c-34.774-30.236-80.282-48.579-129.971-48.579c-49.612,0-95.058,18.287-129.803,48.433c-32.01,27.772-55.022,65.659-64.068,108.676
		c-13.206,1.724-25.093,7.845-34.027,16.786c-10.686,10.686-17.337,25.581-17.337,41.9c0,16.291,6.652,31.186,17.337,41.872
		c10.68,10.686,25.582,17.331,41.9,17.331c1.116,0,2.205-0.028,3.302-0.084c14.273,33.894,37.663,62.999,67.131,84.211
		c13.555,9.757,28.429,17.847,44.274,23.968c-1.906-6.694-2.89-13.722-2.89-20.884c0-3.302,0.216-6.61,0.649-9.834
		c-9.178-4.376-17.896-9.562-26.063-15.44c-28.052-20.178-49.752-48.684-61.478-81.838l-4.244-11.97l-12.236,3.364
		c-2.813,0.761-5.605,1.173-8.445,1.173c-8.858,0-16.759-3.553-22.552-9.346c-5.8-5.801-9.346-13.695-9.346-22.524
		c0-8.858,3.546-16.758,9.346-22.552c5.793-5.793,13.694-9.346,22.552-9.346c0.544,0,1.361,0.056,2.512,0.133l12.71,0.984
		l1.885-12.564c6.178-41.062,27.005-77.329,56.99-103.349c7.497-6.498,15.551-12.354,24.094-17.492
		c0.747,4.635,1.878,8.976,3.469,12.962c2.527,6.33,6.058,11.817,10.246,16.5c7.336,8.215,16.514,14.002,26.104,18.741
		c14.385,7.07,29.936,11.97,43.01,18.078c6.533,3.029,12.41,6.324,17.24,10.121c4.83,3.817,8.599,8.047,11.286,13.198
		c1.445,2.786,4.328,4.489,7.468,4.419c3.134-0.077,5.933-1.913,7.252-4.767c14.176-30.712,19.285-54.875,19.292-73.853
		c0.021-12.955-2.428-23.431-5.856-31.681c22.46,7.133,42.918,18.762,60.326,33.88c30.013,26.112,50.785,62.462,56.906,103.622
		l2.024,13.555l13.555-2.073c1.808-0.279,3.392-0.412,4.837-0.412c8.857,0,16.73,3.553,22.545,9.346
		c5.8,5.794,9.324,13.694,9.352,22.552c-0.028,8.829-3.552,16.723-9.352,22.524c-5.814,5.793-13.688,9.346-22.545,9.346
		c-3.664,0-7.162-0.663-10.554-1.829l-12.954-4.572l-4.509,12.954c-11.587,33.378-33.259,62.106-61.359,82.439
		c-7.35,5.325-15.139,10.086-23.312,14.19c0.572,3.741,0.844,7.517,0.844,11.363c0,6.645-0.844,13.15-2.492,19.411
		c14.636-6.01,28.38-13.694,40.978-22.824c29.322-21.24,52.613-50.296,66.796-84.183c2.136,0.244,4.348,0.384,6.561,0.384
		c16.319,0,31.185-6.645,41.872-17.331c10.686-10.686,17.358-25.581,17.358-41.872C502.91,289.812,496.238,274.917,485.552,264.231z
		 M222.853,179.65c-11.887-5.012-22.314-10.609-29.392-18.07c-3.553-3.742-6.344-7.922-8.334-12.982
		c-1.64-4.209-2.687-9.123-3.008-14.916c10.735-5.019,22.056-8.976,33.88-11.684c0.056,9.283,2.22,23.815,11.447,41.278
		c4.125,7.831,9.66,16.221,17.01,25.016C237.113,185.332,229.769,182.575,222.853,179.65z M285.587,205.336
		c-23.068-18.552-36.197-35.625-43.644-49.717c-8.083-15.342-9.542-27.2-9.549-34.068c0-0.921,0.028-1.731,0.07-2.464
		c7.154-0.915,14.448-1.418,21.861-1.418c10.044,0,19.864,0.901,29.42,2.555c0.991,1.144,2.024,2.457,3.043,3.999
		c4.321,6.547,8.669,16.828,8.697,33.119C295.492,169.648,292.903,185.45,285.587,205.336z"/>
	<path class="st0" d="M256,393.113c-16.368-0.007-31.319,6.68-42.033,17.414c-10.734,10.707-17.414,25.665-17.407,42.032
		c-0.007,16.368,6.673,31.325,17.407,42.033C224.681,505.327,239.632,512.007,256,512c16.367,0.007,31.325-6.673,42.039-17.407
		c10.728-10.708,17.414-25.665,17.408-42.033c0.007-16.367-6.679-31.325-17.408-42.032C287.325,399.793,272.367,393.106,256,393.113
		z M283.654,464.237c-2.261,5.361-6.093,9.974-10.888,13.213c-4.81,3.238-10.505,5.11-16.766,5.116
		c-4.181-0.006-8.09-0.844-11.677-2.359c-5.361-2.261-9.968-6.086-13.206-10.882c-3.238-4.809-5.116-10.504-5.116-16.766
		c0-4.188,0.838-8.096,2.352-11.677c2.268-5.36,6.086-9.974,10.888-13.212c4.802-3.238,10.498-5.11,16.759-5.116
		c4.188,0.006,8.096,0.844,11.677,2.352c5.36,2.268,9.98,6.093,13.22,10.888c3.231,4.802,5.102,10.504,5.109,16.765
		C285.999,456.741,285.168,460.65,283.654,464.237z"/>
	<path class="st0" d="M256,357.46c-40.372,0-73.114,19.572-73.114,43.729c0,7.217,2.925,14.03,8.124,20.039
		c3.134-5.193,6.966-10.058,11.356-14.462c14.301-14.316,33.349-22.217,53.611-22.217c20.333,0,39.36,7.901,53.675,22.252
		c4.404,4.369,8.194,9.234,11.342,14.427c5.193-6.009,8.118-12.822,8.118-20.039C329.113,377.032,296.399,357.46,256,357.46z"/>
	<path class="st0" d="M221.876,288.465c0-9.918-4.056-18.985-10.554-25.476c-6.484-6.498-15.551-10.554-25.469-10.546
		c-9.918-0.007-18.985,4.048-25.476,10.546c-6.498,6.491-10.561,15.558-10.554,25.476c-0.007,9.918,4.055,18.978,10.554,25.469
		c6.491,6.512,15.558,10.56,25.476,10.554c9.918,0.006,18.985-4.042,25.469-10.554C217.821,307.443,221.876,298.376,221.876,288.465
		z M197.788,300.415c-3.085,3.064-7.244,4.934-11.935,4.942c-4.697-0.007-8.857-1.878-11.942-4.949
		c-3.078-3.092-4.949-7.252-4.955-11.942c0.006-4.697,1.878-8.857,4.955-11.942c3.085-3.078,7.245-4.942,11.942-4.949
		c4.691,0.007,8.85,1.871,11.935,4.949c3.078,3.085,4.949,7.245,4.949,11.942C202.737,293.162,200.867,297.316,197.788,300.415z"/>
	<path class="st0" d="M351.63,313.934c6.505-6.491,10.554-15.558,10.546-25.469c0.007-9.918-4.041-18.985-10.546-25.476
		c-6.491-6.498-15.565-10.554-25.476-10.546c-9.918-0.007-18.985,4.048-25.47,10.546c-6.504,6.491-10.56,15.558-10.553,25.476
		c-0.007,9.911,4.048,18.978,10.553,25.469c6.484,6.512,15.551,10.56,25.47,10.554C336.065,324.495,345.139,320.446,351.63,313.934z
		 M309.263,288.465c0.007-4.697,1.878-8.857,4.949-11.942c3.085-3.078,7.252-4.942,11.942-4.949c4.69,0.007,8.864,1.871,11.95,4.949
		c3.064,3.085,4.934,7.245,4.942,11.942c-0.007,4.697-1.878,8.85-4.942,11.942c-3.086,3.071-7.26,4.942-11.95,4.949
		c-4.691-0.007-8.858-1.878-11.942-4.949C311.14,297.316,309.27,293.162,309.263,288.465z"/>
	<path class="st0" d="M398.939,134.805c7.601,3.203,16.368-0.37,19.572-7.971c3.204-7.608-0.377-16.375-7.978-19.572
		c-7.601-3.204-16.368,0.363-19.572,7.971C387.764,122.835,391.331,131.602,398.939,134.805z"/>
	<path class="st0" d="M415.481,99.013c11.063,4.669,33.978-24.688,45.327-51.664c11.356-26.97,6.847-41.334-4.216-45.997
		c-11.063-4.655-24.499,2.164-35.855,29.134C409.388,57.455,404.418,94.357,415.481,99.013z"/>
</g>
</svg>