<?xml version="1.0" encoding="utf-8"?>

<!DOCTYPE svg PUBLIC "-//W3C//DTD SVG 1.1//EN" "http://www.w3.org/Graphics/SVG/1.1/DTD/svg11.dtd">
<!-- Uploaded to: SVG Repo, www.svgrepo.com, Generator: SVG Repo Mixer Tools -->
<svg height="800px" width="800px" version="1.1" id="_x32_" xmlns="http://www.w3.org/2000/svg" xmlns:xlink="http://www.w3.org/1999/xlink" 
	 viewBox="0 0 512 512"  xml:space="preserve">
<style type="text/css">
	.st0{fill:#000000;}
</style>
<g>
	<path class="st0" d="M205.787,181.946h-0.007c0.61-2.125,1.896-3.986,3.626-5.307c1.731-1.322,3.85-2.089,6.205-2.097
		c2.37,0.008,4.503,0.79,6.241,2.125c1.738,1.336,3.024,3.225,3.62,5.372c0.804,2.93,3.835,4.646,6.765,3.849
		c2.931-0.811,4.654-3.842,3.85-6.772c-1.25-4.503-3.921-8.388-7.505-11.16c-3.577-2.772-8.108-4.424-12.97-4.424
		c-4.833,0-9.329,1.63-12.898,4.367c-3.57,2.736-6.24,6.571-7.519,11.031c-0.833,2.923,0.862,5.968,3.785,6.801
		C201.901,186.564,204.947,184.87,205.787,181.946z"/>
	<path class="st0" d="M309.325,167.957c-3.591-2.772-8.116-4.424-12.985-4.424c-4.826,0-9.321,1.63-12.89,4.367
		c-3.569,2.736-6.248,6.571-7.52,11.031c-0.84,2.915,0.855,5.968,3.778,6.801c2.923,0.84,5.968-0.854,6.808-3.785
		c0.603-2.119,1.896-3.978,3.62-5.307c1.738-1.322,3.856-2.089,6.204-2.097c2.37,0.008,4.51,0.79,6.248,2.125
		c1.731,1.336,3.017,3.225,3.613,5.372c0.811,2.93,3.842,4.646,6.765,3.849c2.937-0.811,4.661-3.842,3.849-6.772
		C315.573,174.614,312.901,170.729,309.325,167.957z"/>
	<path class="st0" d="M255.993,253.461c21.021,0,40.289-10.241,52.182-26.708H203.827
		C215.719,243.206,235.009,253.461,255.993,253.461z"/>
	<path class="st0" d="M411.878,173.587C406.262,58.351,274.256,0,255.993,0c-18.248,0-150.254,58.351-155.87,173.587
		C95.082,277.024,116.979,512,255.993,512C395.023,512,416.912,277.024,411.878,173.587z M242.463,83.444
		c4.108-0.532,8.309-0.819,12.575-0.819c5.782,0,11.426,0.517,16.927,1.479c0.574,0.654,1.164,1.401,1.752,2.291
		c2.485,3.764,4.984,9.688,4.999,19.053c0,7.081-1.48,16.173-5.688,27.62c-13.272-10.678-20.834-20.504-25.114-28.611
		c-4.654-8.826-5.494-15.656-5.502-19.606C242.413,84.327,242.435,83.86,242.463,83.444z M232.983,85.116
		c0.029,5.344,1.278,13.696,6.578,23.75c2.385,4.503,5.566,9.329,9.796,14.392c-4.223-1.702-8.452-3.289-12.424-4.969
		c-6.844-2.88-12.848-6.104-16.92-10.406c-2.039-2.148-3.648-4.546-4.797-7.469c-0.948-2.42-1.544-5.243-1.731-8.582
		C219.662,88.944,226.183,86.675,232.983,85.116z M339.616,384.267c-2.025,2.262-5.508,2.456-7.77,0.431l-103.968-93.024
		c6.427,1.566,13.07,2.578,19.871,3.01l24.353,21.782l27.29-30.501c5.207-2.197,10.219-4.776,14.988-7.698
		c1.896,2.06,1.975,5.249,0.072,7.375l-34.148,38.17l58.882,52.684C341.447,378.522,341.642,381.998,339.616,384.267z
		 M376.961,204.03c-3.346,3.333-7.885,5.365-12.97,5.372c-2.112,0-4.122-0.374-6.076-1.056l-7.455-2.622l-2.585,7.455
		c-6.672,19.204-19.147,35.728-35.32,47.427c-16.18,11.706-36.009,18.593-57.518,18.6c-21.423-0.007-41.172-6.83-57.316-18.442
		c-16.138-11.613-28.619-28.008-35.362-47.076l-2.442-6.902l-7.052,1.932c-1.609,0.446-3.217,0.683-4.855,0.683
		c-5.099-0.008-9.638-2.04-12.984-5.372c-3.332-3.346-5.365-7.885-5.372-12.977c0.007-5.084,2.04-9.631,5.372-12.97
		c3.347-3.332,7.886-5.372,12.984-5.379c0.316,0,0.79,0.029,1.451,0.079l7.296,0.574l1.092-7.232
		c3.57-23.62,15.541-44.49,32.805-59.471c4.31-3.742,8.948-7.116,13.854-10.068c0.431,2.672,1.085,5.171,2.004,7.469
		c1.451,3.634,3.483,6.794,5.889,9.494c4.223,4.726,9.502,8.051,15.024,10.78c8.273,4.072,17.222,6.887,24.748,10.398
		c3.763,1.745,7.138,3.641,9.918,5.824c2.779,2.191,4.948,4.632,6.492,7.598c0.841,1.602,2.492,2.586,4.302,2.535
		c1.803-0.043,3.418-1.099,4.173-2.736c8.151-17.681,11.096-31.585,11.102-42.501c0.007-7.447-1.4-13.48-3.368-18.227
		c12.92,4.107,24.69,10.794,34.702,19.498c17.264,15.024,29.23,35.944,32.748,59.615l1.163,7.806l7.8-1.192
		c1.042-0.158,1.961-0.244,2.786-0.244c5.085,0.007,9.624,2.046,12.97,5.379c3.333,3.339,5.372,7.886,5.38,12.97
		C382.333,196.145,380.293,200.684,376.961,204.03z"/>
</g>
</svg>