<?xml version="1.0" encoding="utf-8"?>

<!DOCTYPE svg PUBLIC "-//W3C//DTD SVG 1.1//EN" "http://www.w3.org/Graphics/SVG/1.1/DTD/svg11.dtd">
<!-- Uploaded to: SVG Repo, www.svgrepo.com, Generator: SVG Repo Mixer Tools -->
<svg height="800px" width="800px" version="1.1" id="_x32_" xmlns="http://www.w3.org/2000/svg" xmlns:xlink="http://www.w3.org/1999/xlink" 
	 viewBox="0 0 512 512"  xml:space="preserve">
<style type="text/css">
	.st0{fill:#000000;}
</style>
<g>
	<path class="st0" d="M231.844,191.138c1.19-0.675,2.214-1.284,3.103-1.933c0.455-0.334,0.877-0.662,1.358-1.164
		c0.24-0.268,0.508-0.562,0.802-1.064c0.147-0.247,0.294-0.548,0.421-0.943c0.134-0.394,0.234-0.883,0.234-1.465
		c0-0.448-0.06-0.943-0.221-1.444l-0.434-1.311l-1.111-0.829c-2.4-1.786-5.277-3.037-8.374-4.154
		c-4.642-1.645-9.752-2.849-13.765-3.672c-4.013-0.823-6.902-1.251-6.956-1.251c-2.401-0.361-4.635,1.304-4.982,3.705
		c-0.355,2.402,1.304,4.629,3.705,4.983l0.046,0.007c0.508,0.08,5.458,0.836,11.009,2.181c2.642,0.649,5.418,1.425,7.872,2.288
		c-0.501,0.267-1.023,0.528-1.558,0.796c-3.304,1.652-7.063,3.404-9.979,4.735c-1.458,0.668-2.709,1.231-3.592,1.625
		c-0.442,0.201-0.79,0.348-1.03,0.455c-0.241,0.107-0.368,0.16-0.368,0.16c-2.221,0.977-3.231,3.572-2.254,5.792
		c0.976,2.221,3.571,3.237,5.792,2.261c0.026-0.013,5.946-2.615,11.926-5.491C226.48,193.967,229.484,192.468,231.844,191.138z"/>
	<path class="st0" d="M305.09,171.908c-0.08,0.007-5.183,0.756-11.276,2.2c-3.05,0.729-6.348,1.626-9.445,2.722
		c-3.096,1.117-5.972,2.368-8.374,4.154l-1.097,0.816l-0.434,1.298c-0.161,0.468-0.241,0.983-0.241,1.471
		c0.007,0.582,0.107,1.07,0.234,1.465c0.267,0.769,0.575,1.204,0.836,1.545c0.508,0.649,0.923,0.97,1.344,1.318
		c0.783,0.608,1.632,1.144,2.622,1.732c1.725,1.016,3.866,2.127,6.153,3.27c6.849,3.405,14.982,6.976,15.016,6.996
		c2.227,0.976,4.816-0.04,5.792-2.261c0.977-2.221-0.04-4.816-2.254-5.792c0,0-0.087-0.033-0.261-0.114
		c-1.264-0.555-7.064-3.137-12.481-5.766c-1.311-0.635-2.602-1.277-3.792-1.892c3.959-1.398,8.728-2.542,12.474-3.305
		c1.886-0.388,3.518-0.682,4.668-0.883c0.575-0.093,1.03-0.167,1.338-0.22c0.16-0.02,0.274-0.04,0.347-0.047l0.108-0.02
		c2.407-0.354,4.059-2.581,3.712-4.983C309.726,173.212,307.492,171.548,305.09,171.908z"/>
	<path class="st0" d="M358.946,157.488c-4.883-22.935-17.15-43.134-34.198-57.969c-18.634-16.2-43.028-26.032-69.648-26.032
		c-26.587,0-50.947,9.798-69.567,25.958c-17.142,14.882-29.483,35.182-34.332,58.237c-7.07,0.923-13.444,4.207-18.233,8.989
		c-5.726,5.733-9.291,13.712-9.291,22.46c0,8.729,3.565,16.715,9.291,22.44c5.725,5.725,13.711,9.284,22.453,9.284
		c0.602,0,1.19-0.014,1.773-0.04c4.515,10.715,10.748,20.54,18.333,29.135l-1.204,0.89l101.07,136.226l11.759-8.735l-19.798-26.688
		l65.386-96.662l-1.672-1.137c9.27-9.504,16.775-20.735,21.992-33.188c1.144,0.127,2.328,0.201,3.511,0.201
		c8.749,0,16.715-3.559,22.44-9.284c5.732-5.725,9.304-13.711,9.304-22.44c0-8.748-3.572-16.728-9.304-22.46
		C373.815,161.474,366.752,158.063,358.946,157.488z M243.382,88.897c3.839-0.488,7.739-0.756,11.718-0.756
		c5.378,0,10.641,0.475,15.765,1.364c0.528,0.609,1.084,1.318,1.632,2.14c2.308,3.512,4.642,9.023,4.662,17.745
		c0,6.601-1.391,15.07-5.304,25.724c-12.367-9.939-19.403-19.096-23.39-26.64c-4.335-8.227-5.117-14.581-5.117-18.26
		C243.349,89.72,243.362,89.285,243.382,88.897z M234.56,90.455c0.034,4.977,1.184,12.762,6.133,22.119
		c2.214,4.194,5.184,8.695,9.11,13.404c-3.926-1.585-7.866-3.063-11.564-4.628c-6.374-2.682-11.966-5.685-15.758-9.685
		c-1.899-2-3.398-4.247-4.462-6.956c-0.883-2.254-1.444-4.882-1.612-7.993C222.153,94.027,228.226,91.907,234.56,90.455z
		 M368.658,201.198c-3.117,3.103-7.338,5.01-12.087,5.01c-1.959,0-3.839-0.355-5.652-0.977l-6.942-2.448l-2.421,6.943
		c-6.207,17.885-17.825,33.275-32.881,44.171c-3.94,2.856-8.113,5.411-12.494,7.604c0.308,2.007,0.455,4.034,0.455,6.094
		c0,3.558-0.455,7.043-1.338,10.401c2.04-0.836,4.04-1.733,6.007-2.696l-43.208,63.876l-46.432-62.592
		c1.719,0.776,3.458,1.519,5.23,2.201c-1.023-3.586-1.552-7.351-1.552-11.19c0-1.772,0.121-3.545,0.348-5.27
		c-4.916-2.348-9.592-5.124-13.972-8.274c-15.023-10.815-26.654-26.092-32.941-43.857l-2.268-6.421l-6.562,1.806
		c-1.512,0.408-3.009,0.629-4.528,0.629c-4.742,0-8.976-1.906-12.08-5.01c-3.11-3.104-5.016-7.337-5.016-12.066
		c0-4.749,1.906-8.983,5.016-12.086c3.104-3.11,7.338-5.01,12.08-5.01c0.295,0,0.729,0.034,1.352,0.074l6.808,0.528l1.01-6.736
		c3.311-22.005,14.473-41.441,30.539-55.387c4.02-3.478,8.334-6.622,12.916-9.37c0.401,2.482,1.003,4.809,1.86,6.949
		c1.344,3.391,3.237,6.327,5.484,8.842c3.933,4.401,8.855,7.498,13.992,10.039c7.712,3.793,16.046,6.415,23.042,9.685
		c3.504,1.626,6.655,3.391,9.244,5.432c2.588,2.04,4.608,4.307,6.053,7.07c0.769,1.492,2.314,2.401,4,2.368
		c1.679-0.04,3.177-1.023,3.879-2.555c7.605-16.461,10.34-29.41,10.34-39.583c0.014-6.936-1.297-12.554-3.13-16.969
		c12.032,3.819,22.995,10.046,32.326,18.153c16.086,13.993,27.216,33.469,30.493,55.528l1.09,7.264l7.264-1.11
		c0.963-0.147,1.813-0.221,2.588-0.221c4.749,0,8.97,1.9,12.087,5.01c3.103,3.103,4.996,7.337,5.003,12.086
		C373.655,193.86,371.762,198.094,368.658,201.198z"/>
	<path class="st0" d="M255.997,235.744c-8.769,0-16.788,3.579-22.527,9.33c-5.752,5.739-9.33,13.758-9.324,22.527
		c-0.007,8.768,3.572,16.782,9.324,22.526c5.739,5.753,13.758,9.331,22.527,9.324c8.768,0.006,16.782-3.572,22.527-9.324
		c5.752-5.745,9.337-13.758,9.33-22.526c0.007-8.769-3.578-16.788-9.33-22.527C272.778,239.322,264.765,235.744,255.997,235.744z
		 M270.818,273.855c-1.217,2.876-3.27,5.344-5.839,7.082c-2.576,1.733-5.625,2.736-8.983,2.736c-2.241,0-4.341-0.449-6.261-1.258
		c-2.869-1.211-5.344-3.264-7.076-5.833c-1.739-2.575-2.735-5.625-2.742-8.982c0-2.248,0.455-4.341,1.264-6.261
		c1.21-2.869,3.264-5.344,5.832-7.083c2.575-1.732,5.625-2.736,8.983-2.736c2.247,0,4.334,0.448,6.26,1.258
		c2.87,1.217,5.344,3.27,7.076,5.839c1.733,2.568,2.742,5.625,2.742,8.983C272.076,269.842,271.628,271.935,270.818,273.855z"/>
	<path class="st0" d="M256.003,216.641c-21.637,0-39.188,10.488-39.188,23.437c0,3.86,1.565,7.504,4.347,10.735
		c1.686-2.789,3.739-5.391,6.094-7.752c7.664-7.678,17.872-11.906,28.727-11.906c10.896,0,21.089,4.227,28.767,11.918
		c2.361,2.348,4.394,4.95,6.08,7.739c2.783-3.231,4.348-6.876,4.348-10.735C295.178,227.129,277.648,216.641,256.003,216.641z"/>
	<path class="st0" d="M421.13,175.968l-8.775,0.448l8.775-0.455c-1.485-29.53-11.444-55.481-25.624-77.453
		c-10.635-16.494-23.631-30.808-37.322-43.041c-20.547-18.346-42.652-32.018-61.1-41.208c-9.237-4.595-17.544-8.066-24.387-10.434
		c-3.424-1.191-6.48-2.107-9.19-2.756c-1.358-0.321-2.622-0.576-3.846-0.762C258.438,0.127,257.274,0,256.003,0
		c-1.137,0-2.18,0.1-3.264,0.247c-2.087,0.294-4.314,0.796-6.829,1.499c-4.709,1.304-10.414,3.317-16.935,6.053
		c-11.404,4.782-25.283,11.791-39.87,21.068c-21.872,13.926-45.348,32.948-64.009,57.401c-9.331,12.226-17.437,25.818-23.444,40.793
		c-6.006,14.962-9.899,31.309-10.789,48.9c-0.421,8.388-0.656,17.604-0.656,27.476c0,27.556,1.833,60.25,6.622,93.92
		c3.585,25.256,8.842,51.06,16.274,75.674c5.572,18.46,12.374,36.252,20.661,52.639c12.434,24.574,28.226,46.064,48.458,61.574
		c10.1,7.746,21.31,13.966,33.63,18.213c12.321,4.261,25.724,6.548,40.151,6.542c17.083,0.006,32.754-3.211,46.866-9.103
		c12.354-5.15,23.504-12.327,33.483-21.035c17.477-15.257,31.396-35.149,42.565-57.555c16.742-33.616,27.37-73.005,33.918-111.906
		c6.542-38.9,8.949-77.313,8.956-108.963C421.792,193.566,421.558,184.349,421.13,175.968z M397.767,294.877
		c-3.492,24.54-8.588,49.522-15.698,73.072c-5.338,17.664-11.799,34.527-19.524,49.79c-11.584,22.922-25.985,42.185-43.462,55.555
		c-8.735,6.689-18.24,11.946-28.68,15.551s-21.824,5.578-34.399,5.578c-14.915-0.007-28.145-2.769-40.118-7.752
		c-10.461-4.368-19.985-10.454-28.688-18.059c-15.236-13.277-27.97-31.235-38.392-52.144
		c-15.638-31.356-25.985-69.252-32.319-106.983c-6.341-37.723-8.715-75.293-8.708-106.046c0-9.592,0.234-18.527,0.636-26.58
		c1.338-26.098,10.039-48.933,22.848-68.825c9.598-14.902,21.523-28.091,34.251-39.462c19.089-17.056,39.998-29.998,57.234-38.58
		c8.608-4.288,16.313-7.491,22.306-9.564c2.99-1.03,5.558-1.792,7.512-2.254c0.976-0.234,1.799-0.394,2.408-0.488
		c0.601-0.094,1.01-0.114,1.03-0.107c0.007-0.007,0.328,0.013,0.823,0.08c0.97,0.134,2.574,0.468,4.562,1.023
		c3.746,1.037,8.869,2.816,14.835,5.324c10.454,4.388,23.537,10.976,37.235,19.691c20.554,13.075,42.492,30.954,59.468,53.233
		c8.501,11.137,15.772,23.37,21.11,36.674c5.337,13.31,8.748,27.684,9.544,43.254c0.401,8.053,0.636,16.989,0.636,26.58
		C404.214,230.219,402.422,262.163,397.767,294.877z"/>
</g>
</svg>