<?xml version="1.0" encoding="utf-8"?>

<!DOCTYPE svg PUBLIC "-//W3C//DTD SVG 1.1//EN" "http://www.w3.org/Graphics/SVG/1.1/DTD/svg11.dtd">
<!-- Uploaded to: SVG Repo, www.svgrepo.com, Generator: SVG Repo Mixer Tools -->
<svg height="800px" width="800px" version="1.1" id="_x32_" xmlns="http://www.w3.org/2000/svg" xmlns:xlink="http://www.w3.org/1999/xlink" 
	 viewBox="0 0 512 512"  xml:space="preserve">
<style type="text/css">
	.st0{fill:#000000;}
</style>
<g>
	<path class="st0" d="M157.561,226.54c16.725,37.766,54.475,64.153,98.432,64.153c43.969,0,81.711-26.387,98.432-64.153
		c21.525-3.962,37.943-24.586,37.943-49.5c0-17.208-7.834-32.384-19.766-41.44l3.012-15.974C375.614,53.558,322.05,0,255.993,0
		c-66.07,0-119.636,53.558-119.636,119.626l3.019,15.988c-11.926,9.058-19.758,24.226-19.758,41.426
		C119.618,201.949,136.04,222.57,157.561,226.54z"/>
	<path class="st0" d="M332.872,302.7c-21.912,15.028-48.365,23.881-76.879,23.881c-29.412,0-56.594-9.469-78.898-25.366
		c-30.953,24.448-91.486,64.276-91.486,157.683c0,19.346,48.674,53.103,170.385,53.103c121.711,0,170.399-33.757,170.399-53.103
		C426.392,381.569,363.11,332.588,332.872,302.7z"/>
</g>
</svg>