<?xml version="1.0" encoding="utf-8"?>

<!DOCTYPE svg PUBLIC "-//W3C//DTD SVG 1.1//EN" "http://www.w3.org/Graphics/SVG/1.1/DTD/svg11.dtd">
<!-- Uploaded to: SVG Repo, www.svgrepo.com, Generator: SVG Repo Mixer Tools -->
<svg height="800px" width="800px" version="1.1" id="_x32_" xmlns="http://www.w3.org/2000/svg" xmlns:xlink="http://www.w3.org/1999/xlink" 
	 viewBox="0 0 512 512"  xml:space="preserve">
<style type="text/css">
	.st0{fill:#000000;}
</style>
<g>
	<path class="st0" d="M358.947,157.488c-4.876-22.935-17.149-43.134-34.198-57.969c-18.634-16.2-43.027-26.032-69.648-26.032
		c-26.587,0-50.946,9.798-69.561,25.958c-17.149,14.882-29.483,35.182-34.332,58.237c-7.076,0.923-13.444,4.207-18.233,8.989
		c-5.732,5.733-9.29,13.712-9.29,22.46c0,8.729,3.558,16.715,9.29,22.44c5.725,5.725,13.705,9.284,22.446,9.284
		c0.602,0,1.191-0.014,1.78-0.04c4.515,10.715,10.742,20.54,18.326,29.128l-1.204,0.896l101.07,136.226l11.758-8.735l-19.804-26.688
		l65.394-96.662l-1.672-1.137c9.27-9.504,16.781-20.735,21.992-33.188c1.144,0.127,2.334,0.201,3.518,0.201
		c8.742,0,16.708-3.559,22.44-9.284c5.726-5.725,9.297-13.711,9.297-22.44c0-8.748-3.571-16.728-9.297-22.46
		C373.815,161.474,366.752,158.063,358.947,157.488z M243.382,88.897c3.839-0.488,7.745-0.756,11.718-0.756
		c5.384,0,10.648,0.475,15.764,1.364c0.529,0.609,1.084,1.318,1.632,2.14c2.307,3.512,4.648,9.023,4.662,17.745
		c0,6.601-1.385,15.07-5.304,25.724c-12.36-9.939-19.397-19.096-23.39-26.64c-4.334-8.227-5.11-14.581-5.117-18.26
		C243.349,89.72,243.369,89.285,243.382,88.897z M234.56,90.455c0.034,4.977,1.184,12.762,6.14,22.119
		c2.208,4.194,5.177,8.695,9.11,13.404c-3.933-1.585-7.872-3.063-11.572-4.628c-6.367-2.682-11.965-5.685-15.751-9.685
		c-1.906-2-3.404-4.247-4.468-6.956c-0.883-2.254-1.444-4.882-1.612-7.993C222.159,94.027,228.226,91.907,234.56,90.455z
		 M368.658,201.198c-3.116,3.103-7.337,5.01-12.079,5.01c-1.966,0-3.846-0.355-5.659-0.977l-6.943-2.448l-2.414,6.943
		c-6.207,17.885-17.831,33.275-32.888,44.171c-3.933,2.856-8.114,5.411-12.494,7.604c0.308,2.007,0.455,4.034,0.455,6.094
		c0,3.558-0.455,7.043-1.331,10.401c2.033-0.836,4.033-1.733,6.006-2.696l-43.214,63.876l-46.432-62.592
		c1.725,0.776,3.464,1.519,5.23,2.201c-1.023-3.586-1.551-7.351-1.551-11.19c0-1.772,0.12-3.545,0.354-5.27
		c-4.922-2.348-9.592-5.124-13.972-8.274c-15.03-10.815-26.661-26.092-32.941-43.857l-2.274-6.421l-6.554,1.806
		c-1.518,0.408-3.01,0.629-4.536,0.629c-4.742,0-8.976-1.906-12.079-5.01c-3.104-3.104-5.017-7.337-5.017-12.066
		c0-4.749,1.913-8.983,5.017-12.086c3.103-3.11,7.337-5.01,12.079-5.01c0.294,0,0.736,0.034,1.352,0.074l6.808,0.528l1.017-6.736
		c3.311-22.005,14.467-41.441,30.533-55.387c4.02-3.478,8.341-6.622,12.915-9.37c0.402,2.482,1.01,4.809,1.86,6.949
		c1.352,3.391,3.244,6.327,5.485,8.842c3.933,4.401,8.856,7.498,13.993,10.039c7.711,3.793,16.045,6.415,23.048,9.685
		c3.504,1.626,6.648,3.391,9.236,5.432c2.589,2.04,4.616,4.307,6.053,7.07c0.776,1.492,2.314,2.401,4,2.368
		c1.686-0.04,3.184-1.023,3.886-2.555c7.598-16.461,10.334-29.41,10.341-39.583c0.013-6.936-1.298-12.554-3.137-16.969
		c12.032,3.819,23.002,10.046,32.325,18.153c16.086,13.993,27.216,33.469,30.493,55.528l1.09,7.264l7.264-1.11
		c0.963-0.147,1.812-0.221,2.595-0.221c4.742,0,8.963,1.9,12.079,5.01c3.11,3.103,4.997,7.337,5.01,12.086
		C373.655,193.86,371.768,198.094,368.658,201.198z"/>
	<path class="st0" d="M255.997,235.744c-8.769,0-16.788,3.579-22.526,9.33c-5.753,5.739-9.331,13.758-9.324,22.527
		c-0.007,8.768,3.572,16.782,9.324,22.526c5.738,5.753,13.758,9.331,22.526,9.324c8.769,0.006,16.782-3.572,22.527-9.324
		c5.752-5.745,9.337-13.758,9.33-22.526c0.007-8.769-3.578-16.788-9.33-22.527C272.778,239.322,264.765,235.744,255.997,235.744z
		 M270.819,273.855c-1.218,2.876-3.264,5.344-5.84,7.082c-2.568,1.733-5.625,2.736-8.982,2.736c-2.24,0-4.334-0.449-6.254-1.258
		c-2.876-1.211-5.35-3.264-7.083-5.833c-1.739-2.575-2.736-5.625-2.736-8.982c0-2.248,0.449-4.341,1.258-6.261
		c1.211-2.869,3.264-5.344,5.833-7.083c2.575-1.732,5.632-2.736,8.982-2.736c2.247,0,4.341,0.448,6.261,1.258
		c2.876,1.217,5.344,3.27,7.076,5.839c1.739,2.568,2.742,5.625,2.742,8.983C272.076,269.842,271.627,271.935,270.819,273.855z"/>
	<path class="st0" d="M255.997,216.641c-21.631,0-39.181,10.488-39.181,23.437c0,3.86,1.572,7.504,4.354,10.735
		c1.679-2.789,3.732-5.391,6.093-7.752c7.658-7.678,17.872-11.906,28.72-11.906c10.896,0,21.095,4.227,28.768,11.918
		c2.361,2.348,4.394,4.95,6.08,7.739c2.782-3.231,4.354-6.876,4.354-10.735C295.185,227.129,277.647,216.641,255.997,216.641z"/>
	<path class="st0" d="M421.13,175.968l-8.769,0.448l8.769-0.455c-1.485-29.53-11.444-55.481-25.624-77.453
		c-10.635-16.494-23.624-30.808-37.316-43.041c-20.547-18.346-42.659-32.018-61.106-41.208c-9.23-4.595-17.544-8.066-24.379-10.434
		c-3.432-1.191-6.488-2.107-9.19-2.756c-1.358-0.321-2.629-0.576-3.847-0.762c-1.23-0.181-2.4-0.308-3.672-0.308
		c-1.13,0-2.174,0.1-3.258,0.247c-2.08,0.294-4.314,0.796-6.828,1.499c-4.709,1.304-10.408,3.317-16.936,6.053
		c-11.404,4.782-25.282,11.791-39.87,21.068c-21.871,13.926-45.348,32.948-64.009,57.401c-9.331,12.226-17.437,25.818-23.443,40.793
		c-6.007,14.962-9.9,31.309-10.788,48.9c-0.428,8.388-0.656,17.604-0.656,27.476c0,27.556,1.832,60.25,6.622,93.92
		c3.592,25.256,8.842,51.06,16.273,75.674c5.572,18.46,12.374,36.252,20.661,52.639c12.44,24.574,28.232,46.064,48.452,61.574
		c10.106,7.746,21.322,13.966,33.636,18.213c12.32,4.261,25.724,6.548,40.144,6.542c17.089,0.006,32.76-3.211,46.874-9.103
		c12.354-5.15,23.503-12.327,33.489-21.035c17.47-15.257,31.389-35.149,42.559-57.555c16.741-33.616,27.37-73.005,33.924-111.906
		c6.535-38.9,8.949-77.313,8.949-108.963C421.791,193.566,421.558,184.349,421.13,175.968z M397.773,294.877
		c-3.492,24.54-8.595,49.522-15.705,73.072c-5.33,17.664-11.798,34.527-19.523,49.79c-11.585,22.922-25.986,42.185-43.456,55.555
		c-8.742,6.689-18.246,11.946-28.687,15.551c-10.441,3.605-21.825,5.578-34.406,5.578c-14.902-0.007-28.139-2.769-40.105-7.752
		c-10.467-4.368-19.985-10.454-28.693-18.059c-15.236-13.277-27.972-31.235-38.392-52.144
		c-15.631-31.356-25.984-69.252-32.312-106.983c-6.347-37.723-8.715-75.293-8.715-106.046c0-9.592,0.234-18.527,0.642-26.58
		c1.331-26.098,10.033-48.933,22.841-68.825c9.605-14.902,21.524-28.091,34.252-39.462c19.089-17.056,39.997-29.998,57.233-38.58
		c8.609-4.288,16.314-7.491,22.307-9.564c2.99-1.03,5.558-1.792,7.511-2.254c0.976-0.234,1.799-0.394,2.408-0.488
		c0.609-0.094,1.01-0.114,1.023-0.107c0.014-0.007,0.334,0.013,0.83,0.08c0.97,0.134,2.575,0.468,4.561,1.023
		c3.746,1.037,8.869,2.816,14.835,5.324c10.454,4.388,23.538,10.976,37.236,19.691c20.56,13.075,42.492,30.954,59.468,53.233
		c8.501,11.137,15.771,23.37,21.108,36.674c5.338,13.31,8.755,27.684,9.545,43.254c0.401,8.053,0.635,16.989,0.635,26.58
		C404.214,230.219,402.422,262.163,397.773,294.877z"/>
	<path class="st0" d="M232.052,194.777c3.492-3.479,5.665-8.341,5.658-13.652c0.007-5.311-2.167-10.174-5.658-13.652
		c-3.471-3.485-8.327-5.658-13.645-5.658c-5.317,0-10.173,2.173-13.651,5.658c-3.492,3.478-5.659,8.334-5.652,13.652
		c-0.007,5.311,2.16,10.173,5.652,13.652c3.478,3.484,8.334,5.652,13.651,5.652C223.725,200.428,228.581,198.261,232.052,194.777z
		 M209.357,181.125c0-2.515,0.997-4.749,2.642-6.401c1.659-1.645,3.892-2.648,6.407-2.655c2.515,0.007,4.742,1.01,6.401,2.655
		c1.639,1.652,2.648,3.886,2.648,6.401c0,2.515-1.01,4.749-2.648,6.401c-1.659,1.645-3.886,2.642-6.401,2.648
		c-2.515-0.007-4.748-1.003-6.407-2.648C210.355,185.874,209.357,183.64,209.357,181.125z"/>
	<path class="st0" d="M293.593,161.816c-5.311,0-10.174,2.173-13.652,5.658c-3.485,3.478-5.658,8.341-5.652,13.652
		c-0.007,5.311,2.167,10.173,5.652,13.652c3.478,3.484,8.341,5.652,13.652,5.652c5.317,0,10.173-2.168,13.651-5.652
		c3.485-3.479,5.659-8.341,5.652-13.652c0.007-5.311-2.167-10.174-5.652-13.652C303.766,163.989,298.91,161.816,293.593,161.816z
		 M299.993,187.526c-1.652,1.645-3.885,2.642-6.4,2.648c-2.515-0.007-4.749-1.003-6.401-2.648c-1.645-1.652-2.649-3.886-2.649-6.401
		c0-2.515,1.004-4.749,2.649-6.401c1.652-1.645,3.886-2.648,6.401-2.655c2.515,0.007,4.748,1.01,6.4,2.655
		c1.646,1.652,2.649,3.886,2.649,6.401C302.643,183.64,301.639,185.874,299.993,187.526z"/>
</g>
</svg>