<?xml version="1.0" encoding="utf-8"?>

<!DOCTYPE svg PUBLIC "-//W3C//DTD SVG 1.1//EN" "http://www.w3.org/Graphics/SVG/1.1/DTD/svg11.dtd">
<!-- Uploaded to: SVG Repo, www.svgrepo.com, Generator: SVG Repo Mixer Tools -->
<svg version="1.1" id="_x32_" xmlns="http://www.w3.org/2000/svg" xmlns:xlink="http://www.w3.org/1999/xlink" 
	 width="800px" height="800px" viewBox="0 0 512 512"  xml:space="preserve">
<style type="text/css">
<![CDATA[
	.st0{fill:#000000;}
]]>
</style>
<g>
	<path class="st0" d="M256,0C138.719,0,43.625,95.078,43.625,212.375v87.25C43.625,416.906,138.719,512,256,512
		s212.375-95.094,212.375-212.375v-87.25C468.375,95.078,373.281,0,256,0z M317.813,423.359H194.188
		c-23.703,0-42.922-19.219-42.922-42.922c0-23.719,19.219-42.938,42.922-42.938h123.625c23.703,0,42.922,19.219,42.922,42.938
		C360.734,404.141,341.516,423.359,317.813,423.359z M401.047,269.531c-10.344,15.313-24.953,27.453-42.203,34.75
		c-11.5,4.875-24.203,7.563-37.375,7.563c-4.891,0-9.609-0.5-14.047-1.406s-8.594-2.188-12.422-3.688
		c-7.656-3.031-13.969-6.859-19.281-10.469c-3.547-2.406-6.656-4.719-9.375-6.75c-3.609-2.719-6.578-4.875-8.625-6.125
		c-0.703-0.438-1.281-0.75-1.719-0.969c-1.219,0.625-3.313,1.922-5.969,3.859c-2,1.453-4.344,3.219-7,5.172
		c-3.531,2.625-7.625,5.563-12.406,8.469c-6.375,3.844-14.094,7.625-23.25,9.875c-5.25,1.281-10.906,2.031-16.844,2.031
		c-19.781,0.016-38.391-6.063-53.688-16.406c-15.313-10.344-27.438-24.953-34.75-42.219c-4.875-11.5-7.563-24.188-7.563-37.375
		c0-19.797,6.063-38.406,16.422-53.688c10.344-15.313,24.953-27.469,42.203-34.766c11.5-4.859,24.203-7.547,37.375-7.547
		c30.016,0,43.656,0,65.469,0s35.453,0,65.469,0c19.781-0.016,38.391,6.063,53.688,16.406c15.313,10.344,27.438,24.953,34.75,42.219
		c4.875,11.5,7.563,24.188,7.563,37.375C417.469,235.625,411.406,254.25,401.047,269.531z"/>
	<path class="st0" d="M338.438,175.625c-5.219-2.203-10.875-3.422-16.969-3.422c-30.016,0-43.656,0-65.469,0s-35.453,0-65.469,0
		c-9.125,0.016-17.375,2.734-24.375,7.438c-6.969,4.703-12.531,11.422-15.844,19.219c-2.188,5.203-3.406,10.891-3.406,16.984
		c0,9.125,2.719,17.375,7.438,24.375c4.703,6.984,11.422,12.547,19.219,15.844c5.219,2.188,10.875,3.406,16.969,3.406
		c1.375,0,2.578-0.125,3.813-0.375c1.219-0.281,2.469-0.656,3.828-1.219c2.719-1.094,5.906-2.938,9.578-5.531
		c2.469-1.688,5.125-3.688,8.047-5.875c3.922-2.906,8.266-6.156,13.734-9.25c3.141-1.75,6.656-3.469,10.719-4.844
		c4.594-1.594,9.984-2.688,15.75-2.688c4.25,0,8.313,0.594,11.984,1.563c3.672,0.938,6.984,2.219,9.953,3.625
		c5.906,2.813,10.563,6,14.656,8.938c2.719,1.969,5.188,3.844,7.5,5.563c3.078,2.281,5.844,4.219,8.359,5.75
		c3.359,2.031,6.141,3.219,8.609,3.813c1.438,0.359,2.813,0.531,4.406,0.531c9.125,0,17.375-2.719,24.375-7.438
		c6.969-4.688,12.531-11.406,15.844-19.219c2.188-5.203,3.406-10.875,3.406-16.969c0-9.125-2.719-17.391-7.438-24.375
		S346.234,178.906,338.438,175.625z"/>
	<path class="st0" d="M304,370.734h-96c-5.344,0-9.688,4.344-9.688,9.703c0,5.344,4.344,9.688,9.688,9.688h96
		c5.359,0,9.688-4.344,9.688-9.688C313.688,375.078,309.359,370.734,304,370.734z"/>
</g>
</svg>