<?xml version="1.0" encoding="utf-8"?>

<!DOCTYPE svg PUBLIC "-//W3C//DTD SVG 1.1//EN" "http://www.w3.org/Graphics/SVG/1.1/DTD/svg11.dtd">
<!-- Uploaded to: SVG Repo, www.svgrepo.com, Generator: SVG Repo Mixer Tools -->
<svg version="1.1" id="_x32_" xmlns="http://www.w3.org/2000/svg" xmlns:xlink="http://www.w3.org/1999/xlink" 
	 width="800px" height="800px" viewBox="0 0 512 512"  xml:space="preserve">
<style type="text/css">
<![CDATA[
	.st0{fill:#000000;}
]]>
</style>
<g>
	<path class="st0" d="M439.703,259.17v-75.469C439.703,82.248,357.453-0.002,256-0.002c-101.469,0-183.703,82.25-183.703,183.703
		v75.469c0,55.516,24.625,105.297,63.547,138.984L108,426.936c-7.781,8.047-10.438,18.594-7.141,28.469s12.141,17.906,23.875,21.703
		l86.656,27.969c28.641,9.234,60.578,9.234,89.219,0l86.656-27.969c11.734-3.797,20.578-11.828,23.859-21.703
		c3.297-9.875,0.656-20.422-7.141-28.469l-27.828-28.781C415.078,364.467,439.703,314.686,439.703,259.17z M309.453,366.936H202.531
		c-20.5,0-37.125-16.641-37.125-37.141s16.625-37.125,37.125-37.125h106.922c20.516,0,37.141,16.625,37.141,37.125
		S329.969,366.936,309.453,366.936z M318.906,262.904c-28.844,0-43.625-33.656-62.906-33.656c-19.297,0-34.078,33.656-62.922,33.656
		c-37.063,0-67.094-30.047-67.094-67.094c0-37.063,30.031-67.109,67.094-67.109c28.844,0,41.953,0,62.922,0s34.063,0,62.906,0
		c37.063,0,67.109,30.047,67.109,67.109C386.016,232.857,355.969,262.904,318.906,262.904z"/>
</g>
</svg>