<?xml version="1.0" encoding="utf-8"?>

<!DOCTYPE svg PUBLIC "-//W3C//DTD SVG 1.1//EN" "http://www.w3.org/Graphics/SVG/1.1/DTD/svg11.dtd">
<!-- Uploaded to: SVG Repo, www.svgrepo.com, Generator: SVG Repo Mixer Tools -->
<svg version="1.1" id="_x32_" xmlns="http://www.w3.org/2000/svg" xmlns:xlink="http://www.w3.org/1999/xlink" 
	 width="800px" height="800px" viewBox="0 0 512 512"  xml:space="preserve">
<style type="text/css">
<![CDATA[
	.st0{fill:#000000;}
]]>
</style>
<g>
	<path class="st0" d="M454.25,131.406c-16.344-38.641-43.609-71.453-77.938-94.656C342,13.563,300.5,0,256,0
		c-29.656,0-58,6.016-83.75,16.906c-38.641,16.344-71.453,43.609-94.656,77.938c-23.188,34.328-36.75,75.813-36.75,120.313v81.688
		c0,29.656,6.016,58,16.906,83.75c16.344,38.641,43.609,71.453,77.938,94.656C170,498.438,211.5,512,256,512
		c29.656,0,58-6.031,83.75-16.906c38.641-16.344,71.469-43.609,94.656-77.938s36.75-75.813,36.75-120.313v-81.688
		C471.156,185.5,465.141,157.156,454.25,131.406z M438.469,296.844c0,25.25-5.094,49.203-14.328,71.031
		c-13.828,32.719-36.984,60.609-66.125,80.281c-29.141,19.688-64.172,31.156-102.016,31.156c-25.25,0-49.203-5.094-71.031-14.328
		c-32.719-13.828-60.609-37-80.281-66.125C85,369.719,73.531,334.688,73.531,296.844v-81.688c0-25.234,5.094-49.203,14.328-71.031
		c13.828-32.719,36.984-60.609,66.125-80.281C183.125,44.156,218.156,32.688,256,32.688c25.25,0,49.203,5.094,71.031,14.328
		c32.719,13.828,60.609,37,80.281,66.125c19.688,29.141,31.156,64.172,31.156,102.016V296.844z"/>
	<path class="st0" d="M313.875,321.406h-115.75c-14.063,0-26.906,5.75-36.094,14.969c-9.234,9.219-14.969,22.047-14.969,36.125
		c0,14.063,5.734,26.906,14.969,36.109c9.188,9.234,22.031,14.969,36.094,14.953h115.75c14.063,0.016,26.906-5.719,36.109-14.953
		c9.219-9.203,14.953-22.047,14.953-36.109c0-14.078-5.734-26.906-14.953-36.125C340.781,327.156,327.938,321.406,313.875,321.406z
		 M334.578,393.203c-5.328,5.328-12.594,8.578-20.703,8.578h-115.75c-8.109,0-15.375-3.25-20.688-8.578
		c-5.328-5.328-8.594-12.594-8.594-20.703c0-8.125,3.266-15.375,8.594-20.719c5.313-5.313,12.578-8.563,20.688-8.578h115.75
		c8.109,0.016,15.375,3.266,20.703,8.578c5.313,5.344,8.578,12.594,8.578,20.719C343.156,380.609,339.891,387.875,334.578,393.203z"
		/>
	<path class="st0" d="M324.094,145.781c-31.219,0-45.406,0-68.094,0s-36.875,0-68.094,0c-40.094,0-72.625,32.516-72.625,72.625
		s32.531,72.625,72.625,72.625c31.219,0,47.219-30.969,68.094-30.969s36.875,30.969,68.094,30.969
		c40.109,0,72.625-32.516,72.625-72.625S364.203,145.781,324.094,145.781z"/>
	<path class="st0" d="M300.938,363.406h-89.875c-5,0-9.078,4.063-9.078,9.094c0,5,4.078,9.063,9.078,9.063h89.875
		c5.016,0,9.078-4.063,9.078-9.063C310.016,367.469,305.953,363.406,300.938,363.406z"/>
</g>
</svg>