<?xml version="1.0" encoding="utf-8"?>

<!DOCTYPE svg PUBLIC "-//W3C//DTD SVG 1.1//EN" "http://www.w3.org/Graphics/SVG/1.1/DTD/svg11.dtd">
<!-- Uploaded to: SVG Repo, www.svgrepo.com, Generator: SVG Repo Mixer Tools -->
<svg version="1.1" id="_x32_" xmlns="http://www.w3.org/2000/svg" xmlns:xlink="http://www.w3.org/1999/xlink" 
	 width="800px" height="800px" viewBox="0 0 512 512"  xml:space="preserve">
<style type="text/css">
<![CDATA[
	.st0{fill:#000000;}
]]>
</style>
<g>
	<path class="st0" d="M442.281,367.406c-8.844-4.656-21.875-10.063-36.203-15.719c-2.375-1-4.75-1.891-7.203-2.875
		c-9.109-3.594-20.984-8.359-31.875-13.031c-11.313-4.906-21.453-9.75-26.625-13.344c0.719-1.984,2.063-4.188,4.063-6.906
		c2.797-0.469,5.578-1.344,8.297-2.719c44.781-31.203,68.391-83.031,68.391-141.719c0-52.531-7.563-95.563-36.813-129.719
		c-6.219-6.266-13.984-10.625-22.375-12.781C347.25,12.031,303.563,0,251.938,0c-56.078,0-102.766,14.203-113.109,33
		c-4.063,2.219-7.844,5.031-11.172,8.375c-29.25,34.156-36.797,77.188-36.797,129.719c0,58.688,23.594,110.516,68.391,141.719
		c2.719,1.375,5.516,2.25,8.313,2.719c2,2.719,3.328,4.922,4.063,6.906c-5.172,3.594-15.406,8.438-26.625,13.344
		c-10.906,4.672-22.781,9.438-31.875,13.031c-2.453,0.984-4.828,1.875-7.203,2.875c-14.328,5.656-27.359,11.063-36.219,15.719
		c-39.469,21.063-63.063,55.719-63.063,92.813v7.531l5.719,4.938c2.953,2.438,21.797,16.781,80.703,27.438
		C129.844,506.75,182.188,512,256,512c73.797,0,126.156-5.25,162.938-11.875c58.906-10.656,77.734-25,80.688-27.438l5.734-4.938
		v-7.531C505.359,423.203,481.766,388.469,442.281,367.406z M209.875,61.25h92.234c4.469,0,8.094,3.625,8.094,8.078V86.75
		L256,88.219l-54.234-1.469V69.328C201.766,64.875,205.391,61.25,209.875,61.25z M205.047,326.281
		c0-8.594-2.313-15.703-6.297-22.688c19.266-19.906,24.281-59.031-18.984-81.703c-25.063-13.141-26.234-27.922-26.234-49.234
		c0-21.297,17.281-38.594,38.594-38.594h58.5h10.703h58.531c21.297,0,38.578,17.297,38.578,38.594
		c0,21.313-1.172,36.094-26.234,49.234c-43.25,22.672-38.25,61.781-18.984,81.672c-4.016,7-6.344,14.125-6.344,22.719
		c0,15.25,14.656,25.406,44.719,38.594C315.563,414.938,256,409.594,256,409.594s-59.563,5.344-95.609-44.813
		C190.453,351.688,205.047,341.531,205.047,326.281z M40.141,451.297c4.984-31.297,35.141-49.734,44.969-54.891
		c5.328-2.859,13.109-6.219,22.125-9.906c0.156,24.156-1.156,53.656-6.234,81.75C67.25,462.281,48.734,455.391,40.141,451.297z
		 M410.984,468.188c-5.078-28.031-6.375-57.531-6.219-81.688c9,3.594,16.797,7.047,22.125,9.828
		c9.828,5.234,39.891,23.672,44.969,54.891C462.922,455.391,444.5,462.281,410.984,468.188z"/>
</g>
</svg>