<?xml version="1.0" encoding="utf-8"?>

<!DOCTYPE svg PUBLIC "-//W3C//DTD SVG 1.1//EN" "http://www.w3.org/Graphics/SVG/1.1/DTD/svg11.dtd">
<!-- Uploaded to: SVG Repo, www.svgrepo.com, Generator: SVG Repo Mixer Tools -->
<svg height="800px" width="800px" version="1.1" id="_x32_" xmlns="http://www.w3.org/2000/svg" xmlns:xlink="http://www.w3.org/1999/xlink" 
	 viewBox="0 0 512 512"  xml:space="preserve">
<style type="text/css">
	.st0{fill:#000000;}
</style>
<g>
	<path class="st0" d="M412.697,416.07c-4.614-8.023-10.607-14.401-17.095-19.393c-9.755-7.504-20.543-12.04-30.409-15.426
		c-9.842-3.354-18.945-5.654-24.945-7.921c-2.417-0.89-5.496-2.646-8.527-4.969c-4.583-3.464-9.094-8.22-12.15-12.622
		c-1.543-2.196-2.709-4.307-3.402-5.976c-0.709-1.654-0.866-2.858-0.843-2.961c0-6.512,0-14.622,0-25.094
		c1.78-1.74,3.977-3.803,6.449-6.173c6-5.74,13.441-13.126,20.055-22.512c5.126-7.276,9.725-15.85,12.678-25.717
		C461.705,182.732,401.587,0,256.005,0C110.413,0,50.304,182.732,157.501,267.307c4.22,14.103,11.834,25.496,19.48,34.441
		c4.607,5.394,9.252,9.961,13.252,13.788c2.473,2.37,4.669,4.433,6.449,6.173c0,10.472,0,18.583,0,25.094l-0.047,0.339
		c-0.126,0.914-1,3.291-2.645,5.945c-2.426,4.016-6.394,8.748-10.614,12.559c-4.165,3.834-8.772,6.74-11.418,7.614
		c-5.456,1.937-13.322,3.936-21.929,6.692c-12.89,4.173-27.834,10.11-39.984,22.064c-6.054,5.953-11.292,13.448-14.874,22.535
		c-3.607,9.086-5.583,19.701-5.583,31.937c0.008,3.378,0.158,6.89,0.457,10.536v-0.008c0.275,3.071,1.425,5.449,2.646,7.284
		c2.346,3.417,5.118,5.598,8.37,7.818c5.7,3.764,13.196,7.229,22.7,10.638c28.394,10.118,74.764,19.212,132.244,19.244
		c46.693-0.008,86.118-6.055,114.433-13.709c14.18-3.85,25.551-8.055,33.999-12.394c4.244-2.204,7.756-4.386,10.756-6.992
		c1.496-1.323,2.89-2.764,4.127-4.606c1.212-1.834,2.37-4.212,2.645-7.284c0.291-3.63,0.448-7.126,0.448-10.496
		C422.429,440.205,418.863,426.764,412.697,416.07z M187.493,280.819c-5.307-7.543-9.527-16.078-11.283-26.024l-1.071-6.063
		l-5.804-2.079c-2.582-0.921-3.898-1.685-4.81-2.44c-0.701-0.575-1.3-1.221-2.095-2.457c-1.181-1.811-2.637-5.04-4.315-10.039
		c-1.692-4.993-3.622-11.685-6.094-20.362c-0.157-0.552-0.268-1.031-0.394-1.551l-1.252-6.583c-0.102-1-0.165-1.93-0.165-2.724
		c0.008-2.937,0.558-4.378,0.952-5.134l0.922-1.134c0.488-0.402,1.268-0.756,2.079-0.945c0.717-0.181,1.307-0.205,1.433-0.205
		l23.016,21.906v-26.74c0-17.694,14.339-32.032,32.024-32.032h42.772h47.96c17.693,0,32.032,14.338,32.032,32.032v26.74
		l23.016-21.906c0.11,0,0.559,0.015,1.165,0.149c1.095,0.221,2.126,0.702,2.662,1.292c0.291,0.315,0.59,0.693,0.914,1.552
		c0.314,0.85,0.646,2.228,0.646,4.425c0,0.795-0.063,1.725-0.165,2.724l-1.252,6.583c-0.134,0.52-0.236,1-0.393,1.551
		c-4.355,15.409-7.205,24.63-9.583,28.984c-1.189,2.197-2.008,3.111-2.921,3.874c-0.914,0.756-2.237,1.52-4.82,2.44l-5.803,2.079
		l-1.062,6.063c-2.331,13.228-9.103,24.079-16.882,33.189c-3.882,4.543-7.969,8.598-11.779,12.244
		c-3.827,3.661-7.316,6.827-10.276,10.103l-2.724,3.024v4.063c0,12.709,0,21.976,0,29.385c0.063,5.472,1.803,10.056,4.07,14.52
		c0.702,1.33,1.504,2.646,2.323,3.952c-5.889,5.48-13.385,9.236-21.063,11.504c-9.134,2.716-18.228,3.425-23.598,3.417
		c-5.363,0.008-14.457-0.701-23.591-3.417c-7.661-2.26-15.141-6.008-21.031-11.473c1.504-2.323,2.874-4.676,3.952-7.133
		c1.496-3.481,2.63-7.103,2.662-11.371c0-7.409,0-16.676,0-29.385v-4.063l-2.716-3.024c-2.961-3.276-6.449-6.442-10.276-10.103
		C199.154,294.764,192.799,288.362,187.493,280.819z M192.587,385.535c3.489-2.677,6.796-5.74,9.867-9.008
		c7.819,6.946,17.078,11.205,25.81,13.796c10.906,3.22,21.095,3.992,27.607,4c6.512-0.008,16.716-0.78,27.614-4
		c8.74-2.598,18.008-6.85,25.826-13.803c1.094,1.157,2.197,2.315,3.362,3.417c2.22,2.086,4.582,4,7.024,5.811
		c-8.717,9.748-20.583,15.804-32.339,19.276c-12.275,3.646-24.236,4.575-31.488,4.567c-7.244,0.008-19.205-0.921-31.473-4.567
		c-11.724-3.457-23.551-9.496-32.259-19.189C192.287,385.725,192.437,385.646,192.587,385.535z M400.933,463.212
		c-2.094,1.803-7.78,5.024-15.85,8.118c-12.19,4.748-29.993,9.67-51.922,13.338c-21.945,3.686-48.063,6.142-77.157,6.142
		c-44.835,0.007-82.638-5.858-108.898-12.976c-13.11-3.536-23.37-7.433-29.843-10.78c-2.984-1.528-5.11-2.945-6.188-3.858
		c-0.158-2.3-0.299-4.599-0.292-6.709c0.016-13.346,2.788-22.78,6.882-29.976c3.095-5.409,7.032-9.654,11.646-13.26
		c6.922-5.393,15.496-9.188,24.275-12.165c8.795-3,17.63-5.118,25.402-7.834c2.496-0.89,4.874-2.048,7.157-3.386
		c9.976,11.496,23.434,18.134,36.244,21.937c13.15,3.89,25.661,4.843,33.481,4.851c7.827-0.008,20.338-0.96,33.488-4.851
		c12.866-3.819,26.394-10.496,36.378-22.078c2.292,1.307,4.63,2.527,7.086,3.456c6.961,2.575,14.717,4.567,22.567,7.134
		c11.795,3.803,23.434,8.827,31.67,16.953c4.142,4.086,7.567,8.913,10.079,15.181c2.496,6.276,4.086,14.079,4.086,24.07
		C401.225,458.622,401.083,460.914,400.933,463.212z"/>
	<path class="st0" d="M219.524,218.922c5.519,0,10.008-4.481,10.008-10.008c0-5.52-4.489-10-10.008-10
		c-5.528,0-10.008,4.481-10.008,10C209.516,214.441,213.996,218.922,219.524,218.922z"/>
	<path class="st0" d="M292.493,218.922c5.527,0,10.008-4.481,10.008-10.008c0-5.52-4.481-10-10.008-10
		c-5.52,0-10.008,4.481-10.008,10C282.484,214.441,286.973,218.922,292.493,218.922z"/>
	<path class="st0" d="M241.878,276.59h28.252c2.598,0,4.709-2.11,4.709-4.709c0-2.598-2.11-4.709-4.709-4.709h-28.252
		c-2.598,0-4.709,2.111-4.709,4.709C237.169,274.48,239.28,276.59,241.878,276.59z"/>
</g>
</svg>