<?xml version="1.0" encoding="utf-8"?>

<!DOCTYPE svg PUBLIC "-//W3C//DTD SVG 1.1//EN" "http://www.w3.org/Graphics/SVG/1.1/DTD/svg11.dtd">
<!-- Uploaded to: SVG Repo, www.svgrepo.com, Generator: SVG Repo Mixer Tools -->
<svg height="800px" width="800px" version="1.1" id="_x32_" xmlns="http://www.w3.org/2000/svg" xmlns:xlink="http://www.w3.org/1999/xlink" 
	 viewBox="0 0 512 512"  xml:space="preserve">
<style type="text/css">
	.st0{fill:#000000;}
</style>
<g>
	<path class="st0" d="M322.506,103.998c-9.901-0.817-4.011-29.916-92.865-29.916c-67.501,0-135.363,47.68-141.051,114.759
		c-13.281,24.674-5.68,81.203,48.455,81.608c-3.168,4.828-0.336,23.418,17.023,23.418c17.326,0,66.658,7.678,66.658-25.02
		c10.028,0,39.135,0,59.832,0c43.197,0,48.034-22.247,45.59-35.974c39.995,0,53.747-32.318,53.747-65.462
		C379.894,134.301,346.768,105.97,322.506,103.998z M274.245,150.398v-6.405c0-8.714,1.997-14.882,6.126-18.97
		c5.385-5.385,12.641-5.326,18.422-5.275h25.138c3.429,0,6.058,2.755,6.058,6.042c0,3.362-2.629,6.109-6.058,6.109h-25.171
		c-4.104-0.152-8.006-0.152-9.843,1.779c-1.635,1.6-2.528,5.182-2.528,10.314v23.621c0,3.346-2.697,6.092-6.118,6.092
		c-3.287,0-6.025-2.747-6.025-6.092v-5.031h-9.497c-3.337,0-6.017-2.722-6.017-6.06c0-3.346,2.68-6.126,6.017-6.126H274.245z
		 M242.112,96.094h10.146V89.42c0-3.346,2.722-6.068,6.101-6.068c3.287,0,6,2.722,6,6.068v27.488c0,3.304-2.713,6.076-6,6.076
		c-3.379,0-6.101-2.772-6.101-6.076v-8.68h-10.146c-3.286,0-6.008-2.704-6.008-6.076C236.104,98.866,238.826,96.094,242.112,96.094z
		 M151.606,102.389h15.346c3.396,0,6.092,2.688,6.092,6.016c0,3.396-2.696,6.102-6.092,6.102h-15.346
		c-3.286,0-5.983-2.706-5.983-6.102C145.623,105.077,148.32,102.389,151.606,102.389z M112.792,172.307h31.172l2.174-0.522
		c1.12-1.13,1.036-5.301,1.036-7.315v-21.278c0-6.582,1.845-11.655,5.36-15.05c5.401-5.191,12.75-4.964,17.629-4.779
		c0.776,0,1.45,0.034,2.056,0.034h20.006c-0.236-1.677-0.236-3.354-0.169-4.871V100.93c0-3.304,2.714-6.05,6.017-6.05
		c3.37,0,6.017,2.746,6.017,6.05v17.714c0,1.399,0,3.648,0.295,4.23c0,0,0.826,0.523,4.036,0.523c0.919,0,1.905,0,2.976,0
		c8.241-0.102,17.713-0.127,23.351,5.394c1.837,1.887,4.155,5.241,4.155,10.634v33.051c0,3.353-2.731,6.092-6.068,6.092
		c-3.295,0-6.042-2.739-6.042-6.092v-33.051c0-1.534-0.454-1.888-0.573-2.031c-1.921-1.896-9.084-1.896-14.123-1.896l-0.186,0.068
		h-39.691c-0.75,0-1.567-0.068-2.478-0.068c-3.202-0.143-7.146-0.27-8.806,1.34c-1.045,1.011-1.652,3.278-1.652,6.354v20.275v0.902
		c0.126,4.18,0.152,11.208-4.559,15.969c-1.821,1.887-5.216,4.12-10.762,4.12h-31.172c-3.27,0-5.966-2.697-5.966-6.084
		C106.826,175.037,109.522,172.307,112.792,172.307z M122.154,255.027h-15.329c-3.388,0-6.135-2.647-6.135-6.001
		c0-3.379,2.747-6.042,6.135-6.042h15.329c3.379,0,6.092,2.662,6.092,6.042C128.247,252.38,125.534,255.027,122.154,255.027z
		 M137.954,217.274v9.893c0,3.421-2.755,6.068-6.084,6.068c-3.353,0-6.067-2.647-6.067-6.068v-9.893h-2.183
		c-3.421,0-6.109-2.663-6.109-6.017c0-3.337,2.688-6.084,6.109-6.084h42.37c3.33,0,6.068,2.748,6.068,6.084
		c0,3.354-2.739,6.017-6.068,6.017H137.954z M189.612,269.2h-35.95c-3.32,0-6.05-2.679-6.05-6.016c0-3.372,2.73-6.068,6.05-6.068
		h2.848v-11.291c0-3.422,2.663-6.068,6.034-6.068c3.354,0,6.067,2.646,6.067,6.068v11.291h21c3.345,0,6.051,2.697,6.051,6.068
		C195.663,266.521,192.957,269.2,189.612,269.2z M270.831,239.302h-23.46v12.101c0,3.388-2.697,6.06-6.042,6.06
		c-3.337,0-6.051-2.672-6.051-6.06v-12.101h-41.182c-3.388,0-6.051-2.714-6.051-6.067c0-3.287,2.663-6.068,6.051-6.068h76.736
		c3.32,0,6.084,2.781,6.084,6.068C276.916,236.588,274.152,239.302,270.831,239.302z M309.208,234.515
		c-3.303,0-6.058-2.798-6.058-6.076c0-6.868-1.644-11.848-5.133-15.244c-6.674-6.539-19.213-6.345-27.48-6.236
		c-1.054,0-2.065,0-2.958,0h-48.91c-11.157,0-19.618-2.95-25.264-8.856c-8.638-9.16-8.023-22.719-7.584-31.686
		c0.085-1.702,0.152-3.312,0.152-4.668c0-3.379,2.713-6.06,6.134-6.06c3.304,0,5.966,2.68,5.966,6.06
		c0,1.542-0.067,3.303-0.152,5.166c-0.37,7.82-0.792,17.444,4.366,22.904c3.152,3.337,8.73,5.006,16.382,5.006h48.91
		c0.851,0,1.719,0,2.764,0c9.657-0.144,25.888-0.388,36.186,9.759c5.797,5.713,8.73,13.752,8.73,23.856
		C315.259,231.718,312.604,234.515,309.208,234.515z M362.568,167.234c0,3.32-2.73,6.068-6.085,6.068h-15.395v11.056
		c0,3.363-2.672,6.067-5.992,6.067c-3.446,0-6.118-2.704-6.118-6.067v-11.056h-14.983c-3.253,0-6.025-2.748-6.025-6.068
		c0-3.353,2.772-6.101,6.025-6.101h42.488C359.838,161.133,362.568,163.881,362.568,167.234z"/>
	<path class="st0" d="M499.398,327.423l-43.181-122.141C447.191,90.405,351.259,0.017,234.09,0
		C110.963,0.009,11.179,99.802,11.162,222.92v66.159C11.179,412.198,110.963,511.991,234.09,512
		c97.922-0.026,180.869-63.203,210.81-151.012h30.759c8.182,0,15.842-3.978,20.562-10.652c3.034-4.298,4.618-9.396,4.618-14.528
		C500.838,332.984,500.366,330.145,499.398,327.423z M425.906,335.1l-2.722,9.312c-23.916,81.851-99.498,141.725-189.094,141.7
		c-54.455-0.009-103.635-22.038-139.331-57.708C59.087,392.707,37.066,343.527,37.05,289.08V222.92
		c0.016-54.447,22.037-103.627,57.708-139.324c35.696-35.671,84.876-57.7,139.331-57.708
		c104.124-0.025,189.338,80.824,196.484,183.102l0.118,1.753L474.656,335.1H425.906z"/>
</g>
</svg>