<?xml version="1.0" encoding="utf-8"?>

<!DOCTYPE svg PUBLIC "-//W3C//DTD SVG 1.1//EN" "http://www.w3.org/Graphics/SVG/1.1/DTD/svg11.dtd">
<!-- Uploaded to: SVG Repo, www.svgrepo.com, Generator: SVG Repo Mixer Tools -->
<svg height="800px" width="800px" version="1.1" id="_x32_" xmlns="http://www.w3.org/2000/svg" xmlns:xlink="http://www.w3.org/1999/xlink" 
	 viewBox="0 0 512 512"  xml:space="preserve">
<style type="text/css">
	.st0{fill:#000000;}
</style>
<g>
	<circle class="st0" cx="209.741" cy="390.257" r="7.058"/>
	<circle class="st0" cx="229.346" cy="409.078" r="7.058"/>
	<circle class="st0" cx="256.009" cy="416.92" r="7.058"/>
	<circle class="st0" cx="302.278" cy="390.257" r="7.058"/>
	<circle class="st0" cx="282.672" cy="409.078" r="7.058"/>
	<path class="st0" d="M217.197,56.966c0-0.625,0-1.256,0.061-1.881c-0.625-5.459-3.639-9.539-6.899-9.288
		c-3.388,0.312-5.71,5.208-5.268,10.979c0.061,0.815,0.184,1.568,0.374,2.322c-0.754,0-1.568,0-2.383,0.062
		c-5.772,0.441-10.226,3.578-9.975,6.966c0.313,3.326,5.208,5.71,10.979,5.207c0.815-0.061,1.568-0.19,2.322-0.312
		c0,0.435,0,0.937,0.061,1.44c3.64-2.003,7.53-3.822,11.672-5.391C217.509,63.742,217.197,60.415,217.197,56.966z"/>
	<path class="st0" d="M421.717,414.194c-11.163-16.756-28.165-26.038-44.162-32.061c-7.97-3.014-15.813-5.269-22.711-7.15
		c-6.905-1.887-12.927-3.456-16.94-4.956c-7.027-2.634-14.428-6.022-19.636-9.661c-2.573-1.82-4.582-3.64-5.771-5.276
		c-1.134-1.568-1.507-2.696-1.507-3.7v-26.344c9.03-10.042,21.958-25.598,27.288-50.19c1.819-0.822,3.7-1.82,5.459-3.015
		c4.393-3.075,8.154-7.468,11.291-13.491c3.204-6.023,6.023-13.736,9.037-24.274c1.508-5.336,2.261-9.981,2.261-14.116
		c0-4.773-1.005-8.914-2.824-12.235c-1.318-2.512-3.076-4.522-4.896-5.962c0.564-31.178,4.08-76.412-23.152-107.596
		c-0.748-0.374-1.568-0.815-2.316-1.378c-0.63-0.442-1.194-0.876-1.697-1.379c-0.312,0.625-0.692,1.256-1.188,1.881
		c-3.076,4.454-7.781,6.525-10.354,4.705c-2.574-1.819-2.132-6.898,1.004-11.352c0.435-0.631,0.938-1.195,1.379-1.697
		c-0.625-0.312-1.256-0.693-1.881-1.128c-4.393-3.137-6.525-7.842-4.705-10.416c1.881-2.573,6.898-2.132,11.352,1.005
		c0.38,0.251,0.754,0.563,1.067,0.815c1.948-5.71,3.014-11.862,3.014-18.258C331.128,25.475,305.654,0,274.162,0
		c-30.866,0-55.961,24.47-56.904,55.085c0,0.251,0.068,0.435,0.068,0.686c0.061,0.82,0.061,1.635,0.061,2.389
		c0.686-0.19,1.508-0.319,2.323-0.38c5.771-0.441,10.66,1.881,10.911,5.269c0.319,3.388-4.136,6.464-9.974,6.966
		c-0.754,0.061-1.568,0.061-2.322,0c0.19,0.753,0.251,1.568,0.318,2.383c0.503,5.771-1.886,10.667-5.207,10.918
		c-3.388,0.312-6.525-4.142-6.966-9.974c0-0.319-0.061-0.57,0-0.883c-60.476,32.434-57.027,113.117-55.397,131.687
		c-0.938,1.066-1.881,2.193-2.573,3.578c-1.82,3.32-2.824,7.462-2.758,12.235c0,4.135,0.686,8.78,2.194,14.116
		c4.013,14.048,7.652,23.146,12.425,29.8c2.322,3.259,5.018,5.955,7.904,7.964c1.82,1.195,3.639,2.193,5.459,3.015
		c5.33,24.592,18.257,40.148,27.288,50.19v26.344c0,0.815-0.313,2.01-1.63,3.768c-1.881,2.506-5.833,5.643-10.476,8.216
		c-4.644,2.696-9.974,4.957-14.679,6.586c-5.52,1.949-14.368,4.02-24.281,6.844c-14.869,4.325-32.502,10.538-46.863,22.834
		c-7.156,6.145-13.429,13.865-17.822,23.466c-4.454,9.533-6.96,20.953-6.96,34.316c0,3.075,0.123,6.274,0.374,9.6
		c0.251,2.322,1.128,4.203,2.132,5.704c2.009,2.953,4.583,5.086,7.91,7.279c5.704,3.829,13.675,7.53,23.839,11.169
		C143.04,502.026,193.48,512,256.034,512c50.753,0,93.664-6.586,124.28-14.869c15.31-4.142,27.478-8.725,36.325-13.24
		c4.454-2.255,8.032-4.515,10.856-7.027c1.44-1.25,2.634-2.574,3.7-4.142c1.066-1.501,1.942-3.382,2.132-5.704
		c0.251-3.327,0.373-6.525,0.373-9.6C433.769,439.662,429.185,425.296,421.717,414.194z M272.772,78.906
		c0.741-3.1,5.654-4.576,10.966-3.296c0.735,0.178,1.446,0.404,2.114,0.661c0.068-0.716,0.196-1.446,0.374-2.187
		c1.274-5.312,4.828-9.012,7.922-8.265c3.1,0.742,4.576,5.655,3.296,10.961c-0.178,0.747-0.398,1.452-0.662,2.12
		c0.717,0.073,1.446,0.196,2.188,0.374c5.306,1.274,9.012,4.834,8.264,7.922c-0.741,3.1-5.654,4.577-10.96,3.296
		c-0.748-0.172-1.452-0.392-2.12-0.656c-0.068,0.71-0.196,1.446-0.374,2.181c-1.274,5.312-4.828,9.018-7.922,8.271
		c-3.1-0.748-4.577-5.655-3.296-10.972c0.172-0.736,0.399-1.446,0.662-2.114c-0.717-0.067-1.446-0.196-2.187-0.373
		C275.731,85.553,272.024,81.999,272.772,78.906z M238.64,72.564c0.637-0.41,1.293-0.76,1.948-1.054
		c-0.465-0.551-0.894-1.152-1.305-1.796c-2.91-4.613-3.088-9.747-0.392-11.438c2.696-1.703,7.248,0.668,10.158,5.288
		c0.405,0.643,0.754,1.298,1.054,1.948c0.545-0.465,1.146-0.894,1.789-1.305c4.62-2.916,9.748-3.088,11.445-0.392
		c1.702,2.696-0.668,7.242-5.288,10.152c-0.649,0.41-1.299,0.76-1.954,1.054c0.466,0.558,0.9,1.152,1.305,1.795
		c2.91,4.62,3.082,9.754,0.392,11.445c-2.69,1.703-7.242-0.668-10.152-5.288c-0.41-0.643-0.766-1.292-1.06-1.948
		c-0.545,0.459-1.146,0.894-1.789,1.299c-4.619,2.916-9.747,3.094-11.444,0.398C231.649,80.02,234.014,75.481,238.64,72.564z
		 M355.843,488.724c-27.037,5.52-61.04,9.472-99.81,9.472c-46.3,0-85.639-5.649-114.495-12.86
		c2.696-6.464,7.401-14.808,14.177-22.148c9.03-9.723,21.394-17.816,37.893-18.821c1.127-0.062,2.255-0.122,3.388-0.122
		c14.551,0,28.606,5.894,38.898,11.916c5.141,3.014,9.411,6.022,12.296,8.283c1.44,1.127,2.567,2.071,3.321,2.696l0.815,0.754
		l0.251,0.251l3.456,3.137l3.388-3.137l0.062-0.061c0.625-0.564,7.401-6.654,17.565-12.486
		c10.225-5.832,23.839-11.352,38.016-11.352c1.133,0,2.26,0.061,3.388,0.122c16.438,1.005,28.802,9.098,37.832,18.821
		c6.776,7.34,11.542,15.746,14.245,22.209C365.824,486.525,360.99,487.659,355.843,488.724z M419.585,465.198l-0.564,0.754
		c-1.066,0.999-3.075,2.567-5.961,4.203c-6.837,3.89-18.129,8.406-32.808,12.608c-3.014-7.72-8.406-17.443-16.628-26.351
		c-10.164-11.101-25.033-20.892-44.541-22.08c-1.378-0.068-2.696-0.128-4.019-0.128c-17.314,0.061-32.808,6.776-44.039,13.301
		c-6.715,3.952-11.855,7.842-14.992,10.354c-3.137-2.512-8.345-6.402-15.06-10.354c-11.23-6.525-26.725-13.24-43.978-13.301
		c-1.378,0-2.701,0.061-4.019,0.128c-19.568,1.188-34.438,10.979-44.602,22.08c-8.222,8.908-13.552,18.631-16.627,26.351
		c-12.921-3.639-23.147-7.59-30.052-11.169c-3.762-1.881-6.525-3.762-8.093-5.078c-0.625-0.564-1.005-1.005-1.189-1.256
		c-0.19-2.764-0.312-5.398-0.312-7.842c0-15.494,3.762-26.854,9.656-35.701c8.724-13.233,22.778-21.388,37.458-26.914
		c7.34-2.757,14.74-4.828,21.517-6.648c6.776-1.82,12.927-3.388,18.068-5.146c7.088-2.506,15.371-6.145,22.338-11.04
		c3.511-2.445,6.708-5.147,9.22-8.467c2.512-3.327,4.454-7.408,4.454-12.113v-31.681l-1.758-1.942
		c-9.411-10.476-22.142-24.408-26.602-49.124l-0.686-3.951l-3.768-1.385c-2.383-0.814-4.264-1.691-5.832-2.818
		c-2.384-1.636-4.515-3.958-7.027-8.596c-2.444-4.644-5.079-11.542-7.904-21.584c-1.256-4.393-1.691-7.781-1.691-10.348
		c0-2.953,0.564-4.644,1.127-5.71c0.876-1.636,1.942-2.26,3.259-2.824c1.318-0.502,2.764-0.563,2.953-0.563l2.506,0.122
		l7.216,22.148c0,0,4.142-16.689,4.142-29.237c71.143-23.024,100.38-85.761,100.38-85.761s29.61,21.517,43.916,25.095
		c8.405,2.071,6.274,92.034,6.274,92.034l10.538-24.218l3.259-0.184c0.252-0.068,2.702,0.184,4.209,1.188
		c0.815,0.503,1.44,1.066,2.004,2.2c0.63,1.066,1.194,2.758,1.194,5.71c0,2.567-0.441,5.955-1.697,10.348
		c-3.823,13.423-7.211,21.204-10.348,25.536c-1.568,2.194-3.014,3.511-4.644,4.644c-1.568,1.127-3.388,2.004-5.833,2.818
		l-3.767,1.385l-0.686,3.951c-4.393,24.716-17.13,38.648-26.541,49.124l-1.819,1.942v31.681c0,4.583,1.758,8.657,4.203,11.923
		c3.7,4.895,8.786,8.534,14.306,11.732c5.581,3.198,11.671,5.771,17.375,7.904c6.844,2.573,15.562,4.515,25.095,7.34
		c14.245,4.08,29.99,9.913,41.723,19.948c5.9,5.024,10.789,11.108,14.367,18.698c3.511,7.591,5.649,16.88,5.649,28.484
		C419.903,459.93,419.775,462.496,419.585,465.198z"/>
	<path class="st0" d="M335.454,94.167c3.768,1.819,7.53,1.758,9.036-0.374c1.82-2.573-0.251-7.217-4.705-10.354
		c-0.625-0.435-1.256-0.815-1.881-1.128c0.502-0.563,0.937-1.127,1.378-1.758c3.137-4.393,3.578-9.472,1.005-11.353
		c-2.574-1.819-7.218,0.312-10.354,4.767c-0.434,0.564-0.815,1.194-1.127,1.82c-0.251-0.19-0.441-0.374-0.692-0.564
		c-0.938,2.947-2.194,5.771-3.64,8.467C328.616,86.956,332.317,90.466,335.454,94.167z"/>
</g>
</svg>