<?xml version="1.0" encoding="utf-8"?>

<!DOCTYPE svg PUBLIC "-//W3C//DTD SVG 1.1//EN" "http://www.w3.org/Graphics/SVG/1.1/DTD/svg11.dtd">
<!-- Uploaded to: SVG Repo, www.svgrepo.com, Generator: SVG Repo Mixer Tools -->
<svg height="800px" width="800px" version="1.1" id="_x32_" xmlns="http://www.w3.org/2000/svg" xmlns:xlink="http://www.w3.org/1999/xlink" 
	 viewBox="0 0 512 512"  xml:space="preserve">
<style type="text/css">
	.st0{fill:#000000;}
</style>
<g>
	<path class="st0" d="M287.81,101.961c-1.833-6.104-7.664-7.02-10.974-7.02c-5.649,0-11.556,2.522-15.835,6.74v6.754h26.944
		C288.412,106.322,288.458,104.126,287.81,101.961z"/>
	<path class="st0" d="M282.918,196.44c0-14.866-12.052-26.914-26.918-26.914c-14.869,0-26.914,12.048-26.914,26.914
		s12.045,26.914,26.914,26.914C270.866,223.354,282.918,211.305,282.918,196.44z"/>
	<path class="st0" d="M251.002,101.681c-4.279-4.219-10.19-6.74-15.843-6.74c-3.31,0-9.136,0.916-10.966,7.02
		c-0.65,2.166-0.602,4.362-0.136,6.474h26.944V101.681z"/>
	<path class="st0" d="M417.552,281.127c-106.678,20.962-216.421,20.962-323.103,0c0,0-49.538,19.076-23.022,40.446
		c9.209,7.421,20.046,13.722,31.837,19.076c-0.658,5.77-1.076,11.609-1.076,17.553c0.008,84.945,68.86,153.79,153.808,153.797
		c84.953-0.007,153.805-68.852,153.813-153.797c0-5.937-0.451-11.768-1.11-17.538c11.806-5.362,22.658-11.654,31.874-19.091
		C467.09,300.202,417.552,281.127,417.552,281.127z M343.921,446.116c-22.548,22.522-53.54,36.411-87.925,36.418
		c-34.381-0.007-65.373-13.896-87.921-36.418c-22.526-22.544-36.414-53.532-36.422-87.913c0-2.309,0.22-4.566,0.345-6.846
		c44.01,13.518,93.642,17.342,124.002,17.342c30.367,0,80.019-3.824,124.036-17.349c0.125,2.272,0.307,4.544,0.307,6.853
		C380.335,392.584,366.446,423.572,343.921,446.116z"/>
	<path class="st0" d="M280.032,30.897L276.174,0H235.83l-3.862,30.897c7.932-1.522,15.964-2.325,24.032-2.325
		C264.069,28.572,272.104,29.374,280.032,30.897z"/>
	<path class="st0" d="M412.928,257.742c-0.026-0.803-0.041-1.606-0.041-2.416c0,0,0-10.776,0-23.074
		c0-152.275-99.761-191.949-156.887-191.949c-57.13,0-156.886,39.674-156.886,191.949c0,12.299,0,23.074,0,23.074
		c0,0.81-0.016,1.613-0.038,2.416C202.703,278.09,309.301,278.09,412.928,257.742z M217.56,99.976
		c4.036-13.457,21.014-15.138,33.442-7.111V76.963h-10.769v-9.345h10.769V56.523h9.999v11.095h10.765v9.345h-10.765v15.896
		c12.424-8.02,29.402-6.339,33.434,7.118c4.616,15.38-12.302,29.216-12.302,29.216h-26.118h-0.027h-26.122
		C229.866,129.192,212.945,115.357,217.56,99.976z M282.149,135.508v10.754h-52.294v-10.754H282.149z M238.458,238.802h-24.808
		v-24.809l-17.542-17.554l17.542-17.538v-24.81h24.808h35.085h24.809v24.81l17.542,17.538l-17.542,17.554v24.809h-24.805
		L256,256.333L238.458,238.802z"/>
	<path class="st0" d="M199.132,377.454c-10.53,0-19.065,8.534-19.065,19.068c0,10.527,8.535,19.061,19.065,19.061
		c10.538,0,19.076-8.534,19.076-19.061C218.208,385.988,209.67,377.454,199.132,377.454z"/>
	<path class="st0" d="M312.861,377.454c-10.534,0-19.072,8.534-19.072,19.068c0,10.527,8.538,19.061,19.072,19.061
		c10.534,0,19.068-8.534,19.068-19.061C331.929,385.988,323.394,377.454,312.861,377.454z"/>
</g>
</svg>