<?xml version="1.0" encoding="utf-8"?>

<!DOCTYPE svg PUBLIC "-//W3C//DTD SVG 1.1//EN" "http://www.w3.org/Graphics/SVG/1.1/DTD/svg11.dtd">
<!-- Uploaded to: SVG Repo, www.svgrepo.com, Generator: SVG Repo Mixer Tools -->
<svg height="800px" width="800px" version="1.1" id="_x32_" xmlns="http://www.w3.org/2000/svg" xmlns:xlink="http://www.w3.org/1999/xlink" 
	 viewBox="0 0 512 512"  xml:space="preserve">
<style type="text/css">
	.st0{fill:#000000;}
</style>
<g>
	<path class="st0" d="M282.101,83.66c-1.505-5.01-6.287-5.762-9.005-5.762c-4.634,0-9.482,2.07-12.991,5.529v5.546h22.108
		C282.597,87.236,282.631,85.437,282.101,83.66z"/>
	<path class="st0" d="M278.087,161.179c0-12.192-9.888-22.081-22.085-22.081c-12.203,0-22.084,9.888-22.084,22.081
		c0,12.2,9.88,22.088,22.084,22.088C268.198,183.267,278.087,173.378,278.087,161.179z"/>
	<path class="st0" d="M251.899,83.428c-3.51-3.459-8.36-5.529-12.998-5.529c-2.715,0-7.496,0.752-8.997,5.762
		c-0.535,1.777-0.496,3.576-0.113,5.313h22.108V83.428z"/>
	<path class="st0" d="M275.721,25.353L272.553,0h-33.102l-3.168,25.353c6.507-1.248,13.096-1.908,19.719-1.908
		C262.621,23.445,269.214,24.104,275.721,25.353z"/>
	<path class="st0" d="M384.762,211.482c-0.023-0.659-0.039-1.318-0.039-1.986c0,0,0-8.842,0-18.932
		c0-124.944-81.85-157.495-128.722-157.495c-46.875,0-128.729,32.551-128.729,157.495c0,10.09,0,18.932,0,18.932
		c0,0.667-0.011,1.326-0.031,1.986C212.268,228.172,299.737,228.172,384.762,211.482z M224.459,82.032
		c3.312-11.037,17.245-12.417,27.44-5.832V63.146h-8.834v-7.662h8.834v-9.105h8.205v9.105h8.834v7.662h-8.834v13.045
		c10.195-6.577,24.124-5.196,27.432,5.84c3.789,12.618-10.094,23.972-10.094,23.972h-21.429h-0.023h-21.434
		C234.557,106.004,220.675,94.65,224.459,82.032z M277.459,111.186v8.826h-42.909v-8.826H277.459z M221.253,195.94v-20.351
		l-14.395-14.41l14.395-14.387v-20.359h20.355h28.785h20.359v20.359l14.391,14.387l-14.391,14.41v20.351h-20.355l-14.395,14.387
		l-14.394-14.387H221.253z"/>
	<polygon class="st0" points="238.544,410.199 238.544,420.335 256.002,442.858 273.457,420.335 273.457,410.199 256.002,410.199 	
		"/>
	<path class="st0" d="M359.909,333.301c7.12-14.96,11.219-31.643,11.219-49.318c0-0.086-0.012-0.163-0.012-0.241
		c13.638-5.196,26.184-11.703,36.328-19.886c21.754-17.536-18.893-33.186-18.893-33.186c-87.527,17.194-177.571,17.194-265.106,0
		c0,0-40.648,15.651-18.889,33.186c10.144,8.182,22.681,14.689,36.32,19.878c0,0.086-0.011,0.163-0.011,0.249
		c0,17.675,4.106,34.358,11.226,49.318c-14.697,14.248-55.158,59.866-55.158,130.638c0,0,34.994,48.062,159.069,48.062
		c124.068,0,159.066-48.062,159.066-48.062C415.067,393.167,374.602,347.548,359.909,333.301z M256.002,492.487
		c-5.859,0-10.609-4.747-10.609-10.61c0-5.863,4.75-10.61,10.609-10.61c5.856,0,10.606,4.747,10.606,10.61
		C266.608,487.74,261.857,492.487,256.002,492.487z M256.002,456.298c0,0-23.189-34.908-48-67.776
		c14.627,6.731,30.845,10.586,48,10.586c17.35,0,33.738-3.956,48.493-10.827C279.502,421.398,256.002,456.298,256.002,456.298z
		 M323.015,350.992c-17.183,17.163-40.81,27.75-67.013,27.758c-26.202-0.008-49.834-10.594-67.013-27.758
		c-15.74-15.76-25.842-36.949-27.436-60.549c34.183,9.368,71.206,12.076,94.449,12.076c23.24,0,60.262-2.707,94.441-12.076
		C348.853,314.043,338.752,335.232,323.015,350.992z"/>
</g>
</svg>