<?xml version="1.0" encoding="utf-8"?>

<!DOCTYPE svg PUBLIC "-//W3C//DTD SVG 1.1//EN" "http://www.w3.org/Graphics/SVG/1.1/DTD/svg11.dtd">
<!-- Uploaded to: SVG Repo, www.svgrepo.com, Generator: SVG Repo Mixer Tools -->
<svg height="800px" width="800px" version="1.1" id="_x32_" xmlns="http://www.w3.org/2000/svg" xmlns:xlink="http://www.w3.org/1999/xlink" 
	 viewBox="0 0 512 512"  xml:space="preserve">
<style type="text/css">
	.st0{fill:#000000;}
</style>
<g>
	<path class="st0" d="M222.36,497.612c0.865,8.18,7.758,14.388,15.986,14.388h23.059h23.059c8.228,0,15.121-6.208,15.986-14.388
		l10.788-102.54h-99.667L222.36,497.612z"/>
	<path class="st0" d="M262.131,194.111c33.55,0,60.748-27.204,60.748-60.748V60.748C322.879,27.197,295.682,0,262.131,0
		c-33.55,0-60.747,27.197-60.747,60.748v72.616C201.384,166.906,228.582,194.111,262.131,194.111z M218.74,134.671
		c0-6.796,5.508-12.304,12.297-12.304h62.187c6.789,0,12.298,5.508,12.298,12.304v2.159c0,23.924-19.467,43.391-43.391,43.391
		c-23.923,0-43.391-19.467-43.391-43.391V134.671z"/>
	<path class="st0" d="M295.031,199.17l-33.626,12.657l-33.626-12.657c0,0-11.135,4.595-22.879,14.436l-3.212-18.326
		c-0.886-5.031-4.553-8.768-8.892-9.682l-7.944-45.294l2.823-0.491l-4.713-26.852l-15.896,2.775l4.713,26.858l2.824-0.492
		l7.945,45.294c-3.786,2.332-5.959,7.094-5.073,12.132l6.962,39.682c-3.938,8.096-6.56,17.46-6.56,28.304v92.124l31.827,17.716
		h103.405l31.827-17.716v-92.124C344.934,219.488,295.031,199.17,295.031,199.17z M261.405,338.381c-4.817,0-8.72-3.917-8.72-8.726
		c0-4.824,3.903-8.727,8.72-8.727c4.824,0,8.726,3.903,8.726,8.727C270.131,334.464,266.228,338.381,261.405,338.381z
		 M261.405,298.741c-4.817,0-8.72-3.917-8.72-8.727c0-4.824,3.903-8.726,8.72-8.726c4.824,0,8.726,3.902,8.726,8.726
		C270.131,294.824,266.228,298.741,261.405,298.741z M261.405,260.138c-4.817,0-8.72-3.903-8.72-8.733c0-4.824,3.903-8.72,8.72-8.72
		c4.824,0,8.726,3.896,8.726,8.72C270.131,256.235,266.228,260.138,261.405,260.138z"/>
</g>
</svg>