<?xml version="1.0" encoding="utf-8"?>

<!DOCTYPE svg PUBLIC "-//W3C//DTD SVG 1.1//EN" "http://www.w3.org/Graphics/SVG/1.1/DTD/svg11.dtd">
<!-- Uploaded to: SVG Repo, www.svgrepo.com, Generator: SVG Repo Mixer Tools -->
<svg height="800px" width="800px" version="1.1" id="_x32_" xmlns="http://www.w3.org/2000/svg" xmlns:xlink="http://www.w3.org/1999/xlink" 
	 viewBox="0 0 512 512"  xml:space="preserve">
<style type="text/css">
	.st0{fill:#000000;}
</style>
<g>
	<path class="st0" d="M281.028,378.582c60.986,0,110.42-49.441,110.42-110.42V110.42C391.448,49.441,342.015,0,281.028,0
		s-110.42,49.441-110.42,110.42v157.742C170.609,329.14,220.042,378.582,281.028,378.582z M202.157,270.534
		c0-12.346,10.013-22.36,22.359-22.36H337.54c12.347,0,22.36,10.014,22.36,22.36v3.928c0,43.487-35.384,78.871-78.871,78.871
		c-43.487,0-78.871-35.384-78.871-78.871V270.534z"/>
	<path class="st0" d="M340.836,387.778l-61.125,23.007l-61.125-23.007c0,0-31.133,12.701-56.92,40.76l-14.549-82.968
		c-1.61-9.158-8.819-15.859-17.469-17.377l-14.434-82.314l5.661-0.994l-8.565-48.817l-31.849,5.576l8.564,48.817l5.662-0.986
		l14.442,82.322c-7.625,4.374-12.116,13.116-10.514,22.275L126.321,512l1.571-0.277c0,0.092-0.008,0.184-0.008,0.277h151.827
		h151.827C431.538,424.703,340.836,387.778,340.836,387.778z M279.711,494.839c-5.392,0-9.758-4.367-9.758-9.759
		c0-5.392,4.367-9.759,9.758-9.759c5.392,0,9.759,4.367,9.759,9.759C289.47,490.472,285.103,494.839,279.711,494.839z
		 M279.711,451.66c-5.392,0-9.758-4.359-9.758-9.759c0-5.392,4.367-9.759,9.758-9.759c5.392,0,9.759,4.367,9.759,9.759
		C289.47,447.301,285.103,451.66,279.711,451.66z"/>
</g>
</svg>