<?xml version="1.0" encoding="utf-8"?>

<!DOCTYPE svg PUBLIC "-//W3C//DTD SVG 1.1//EN" "http://www.w3.org/Graphics/SVG/1.1/DTD/svg11.dtd">
<!-- Uploaded to: SVG Repo, www.svgrepo.com, Generator: SVG Repo Mixer Tools -->
<svg height="800px" width="800px" version="1.1" id="_x32_" xmlns="http://www.w3.org/2000/svg" xmlns:xlink="http://www.w3.org/1999/xlink" 
	 viewBox="0 0 512 512"  xml:space="preserve">
<style type="text/css">
	.st0{fill:#000000;}
</style>
<g>
	<path class="st0" d="M429.654,408.856c-11.734-17.563-29.554-27.27-46.282-33.586c-8.397-3.159-16.614-5.482-23.842-7.46
		c-7.215-1.964-13.493-3.62-17.704-5.212c-5.674-2.106-11.568-4.693-16.459-7.511c0-0.013,0.013-0.026,0.013-0.026l-0.321-0.16
		c-1.348-0.79-2.67-1.586-3.839-2.408c-2.722-1.9-4.814-3.851-6.021-5.507c-1.232-1.701-1.566-2.876-1.566-3.903
		c0-7.1,0-15.965,0-27.642c9.436-10.501,22.994-26.774,28.566-52.573c1.938-0.873,3.864-1.862,5.713-3.158
		c4.622-3.184,8.538-7.806,11.85-14.096c3.35-6.317,6.304-14.392,9.462-25.44c1.592-5.604,2.337-10.47,2.337-14.81
		c0.012-4.994-1.028-9.32-2.915-12.845c-1.862-3.505-4.48-5.906-7.112-7.581c4.584-12.838,10.874-39.125,4.891-77.018
		c-4.814-30.453-30.183-59.583-75.785-69.418c0.128-1.169,0.36-2.305,0.36-3.505C290.998,15.67,275.322,0,256,0
		c-19.335,0-34.998,15.67-34.998,34.998c0,1.2,0.231,2.336,0.346,3.505c-45.589,9.834-70.971,38.965-75.772,69.418
		c-5.983,37.848,0.295,64.103,4.865,76.967c-2.619,1.643-5.25,4.166-7.1,7.639c-1.887,3.518-2.914,7.85-2.902,12.845
		c0,4.333,0.732,9.199,2.337,14.803c4.224,14.712,8.037,24.207,12.98,31.178c2.465,3.467,5.264,6.246,8.319,8.358
		c1.862,1.297,3.788,2.286,5.726,3.158c5.572,25.799,19.13,42.072,28.566,52.573c0,11.677,0,20.542,0,27.642
		c0,0.873-0.347,2.131-1.695,3.929c-1.99,2.67-6.098,5.906-10.977,8.646c-4.879,2.774-10.489,5.168-15.393,6.901
		c-5.752,2.041-15.034,4.16-25.42,7.138c-15.612,4.519-34.074,11.029-49.107,23.906c-7.485,6.438-14.071,14.533-18.706,24.585
		c-4.635,10.04-7.292,21.979-7.279,35.948c0,3.242,0.142,6.599,0.424,10.066c0.218,2.426,1.143,4.404,2.221,6.034
		c2.08,3.03,4.815,5.289,8.256,7.607c6.009,3.98,14.34,7.864,25.01,11.689c30.44,10.861,79.971,20.824,141.3,21.735L247.45,512
		c0.385-0.238,0.758-0.482,1.143-0.719c2.465,0.032,4.904,0.077,7.408,0.077c53.216,0,98.138-6.907,130.208-15.586
		c16.048-4.352,28.848-9.116,38.105-13.866c4.635-2.4,8.384-4.763,11.362-7.356c1.476-1.31,2.786-2.683,3.89-4.314
		c1.078-1.631,2.003-3.608,2.221-6.034c0.283-3.467,0.424-6.81,0.424-10.04C442.235,435.546,437.446,420.538,429.654,408.856z
		 M94.312,469.049c-3.942-2.022-6.844-3.948-8.448-5.373c-0.68-0.59-1.066-1.04-1.258-1.309c-0.231-2.85-0.36-5.604-0.36-8.23
		c0.026-16.228,3.993-28.077,10.13-37.372c9.167-13.898,23.893-22.403,39.273-28.194c7.665-2.888,15.419-5.084,22.532-6.99
		c7.125-1.913,13.558-3.499,18.924-5.386c7.459-2.638,16.112-6.458,23.43-11.536c3.646-2.554,6.997-5.424,9.655-8.904
		c2.619-3.44,4.634-7.754,4.648-12.671c0-7.678,0-17.255,0-30.402v-2.779l-1.862-2.061c-9.86-10.983-23.212-25.562-27.834-51.47
		l-0.732-4.14l-3.967-1.412c-2.516-0.899-4.429-1.817-6.099-2.978c-2.478-1.746-4.724-4.128-7.343-9.007
		c-2.581-4.852-5.328-12.107-8.32-22.634c-1.31-4.596-1.784-8.172-1.784-10.83c0.012-3.087,0.59-4.885,1.206-6.028
		c0.912-1.656,2.016-2.362,3.441-2.927c0.976-0.385,2.003-0.52,2.593-0.564l7.973,1.707v-8.948c0,0,0-8.551,0-18.641
		c4.07-26.114,11.824-34.69,25.048-35.794c17.499-1.464,30.209,5.829,60.842,5.829c30.62,0,43.343-7.292,60.842-5.829
		c13.211,1.104,20.965,9.68,25.048,35.794c0,10.09,0,18.641,0,18.641v8.043l2.62-0.276c0.012,0.167,0.026,0.315,0.038,0.488
		c0.886-0.206,2.465-0.552,4.25-0.95l0.77-0.077c0.578,0,2.748,0.25,4.211,1.226c0.835,0.533,1.502,1.149,2.119,2.279
		c0.603,1.142,1.194,2.94,1.207,6.021c0,2.658-0.475,6.234-1.785,10.843c-3.993,14.038-7.562,22.21-10.848,26.742
		c-1.63,2.292-3.146,3.717-4.814,4.892c-1.669,1.162-3.595,2.08-6.111,2.978l-3.954,1.405l-0.732,4.147
		c-4.622,25.908-17.974,40.486-27.834,51.47l-1.862,2.061v2.779c0,13.147,0,22.724,0,30.402c0,4.763,1.849,9.052,4.391,12.473
		c1.772,2.394,3.903,4.474,6.226,6.374c-7.035,11.208-17.165,22.66-29.246,33.708c-24.149,22.153-55.937,42.784-85.363,58.306
		c-14.713,7.768-28.848,14.264-41.109,19.065c-10.566,4.147-19.669,6.92-26.46,8.255
		C113.236,477.265,101.861,472.945,94.312,469.049z M373.1,467.694c1.129,5.88,2.542,11.009,4.198,15.432
		c-5.263,1.335-10.797,2.632-16.715,3.839c-24.83,5.084-55.322,8.897-89.896,9.751c38.054-27.096,60.996-54.146,61.188-54.364
		l-8.024-6.792l-0.334,0.385c-3.235,3.736-30.119,33.977-71.652,60.892c-40.403-0.288-75.632-4.634-103.44-10.553
		c6.958-2.414,14.558-5.418,22.712-9c27.474-12.094,60.418-30.363,89.317-51.662c23.944-17.717,45.024-37.386,57.927-57.85
		c0.064,0.032,0.116,0.07,0.167,0.102c5.829,3.299,12.21,6.021,18.205,8.268c7.164,2.664,16.292,4.756,26.268,7.664
		c4.776,1.374,9.693,2.966,14.598,4.789c-5.187,15.984-7.292,32.848-7.292,48.389C370.327,448.192,371.379,458.694,373.1,467.694z
		 M427.394,462.34l-0.629,0.745c-1.066,1.078-3.21,2.696-6.239,4.423c-6.92,3.992-18.256,8.57-33.046,12.87
		c-1.502-3.832-2.94-8.826-4.057-14.661c-1.58-8.294-2.581-18.192-2.581-28.732c0-14.367,1.964-29.888,6.535-44.332
		c6.984,3.249,13.647,7.164,19.386,12.081c6.162,5.276,11.323,11.612,15.021,19.592c3.698,7.979,5.957,17.672,5.97,29.836
		C427.754,456.768,427.612,459.503,427.394,462.34z"/>
	<path class="st0" d="M344.547,196.879v-0.013C343.648,197.059,343.456,197.11,344.547,196.879z"/>
	<circle class="st0" cx="256" cy="179.38" r="10.72"/>
</g>
</svg>