<?xml version="1.0" encoding="utf-8"?>

<!DOCTYPE svg PUBLIC "-//W3C//DTD SVG 1.1//EN" "http://www.w3.org/Graphics/SVG/1.1/DTD/svg11.dtd">
<!-- Uploaded to: SVG Repo, www.svgrepo.com, Generator: SVG Repo Mixer Tools -->
<svg height="800px" width="800px" version="1.1" id="_x32_" xmlns="http://www.w3.org/2000/svg" xmlns:xlink="http://www.w3.org/1999/xlink" 
	 viewBox="0 0 512 512"  xml:space="preserve">
<style type="text/css">
	.st0{fill:#000000;}
</style>
<g>
	<path class="st0" d="M453.248,315.983l-19.279-149.998c-4.93-37.368-48.202-46.224-72.797-23.606l-59.993,54.097l-57.42,21.605
		c-2.372,0.873-4.416,2.225-6.132,3.879H99.773c0,0-39.261,163.969-43.882,175.52c-4.613,11.552,39.269,18.476,50.806,16.165
		c11.552-2.31,13.862,41.564,13.862,41.564s83.136,0,113.156,0c30.027,0,36.958-20.778,36.958-20.778s4.613-18.476,27.71-23.097
		c23.096-4.621,36.959-27.709,36.959-27.709l-49.886-139.667l12.811-3.516c9.466-2.172,18.46-6.082,26.52-11.514l21.628-13.26
		c0,0,11.598,84.781,11.498,90.561l-26.28,181.756c-0.757,12.41,8.647,23.089,21.056,23.908l0.858,0.054
		c11.737,0.781,22.1-7.564,23.854-19.186l19.959-134.644l13.128,131.755c1.082,12.386,11.977,21.558,24.372,20.538l0.866-0.078
		c11.714-0.973,20.724-10.771,20.724-22.517L453.248,315.983z"/>
	<path class="st0" d="M409.953,57.635c-16.682,4.204-38.936,9.814-38.936,9.814s-22.254,5.61-38.945,9.813
		c-0.75,0.186-1.484,0.379-2.21,0.564c0.216,1.669,0.534,3.346,0.958,5.015c5.795,22.702,28.899,36.394,51.602,30.584
		c22.694-5.78,36.378-28.899,30.576-51.609c-0.402-1.569-0.896-3.099-1.453-4.582C411.02,57.366,410.502,57.504,409.953,57.635z"/>
	<path class="st0" d="M329.569,67.233c16.682-4.211,38.944-9.813,38.944-9.813s22.247-5.618,38.937-9.806
		c16.691-4.226,28.166-5.64,25.701-21.288c-2.465-15.647-22.285-12.132-29.935-13.16c-7.658-1.028-19.518-18.753-48.727-11.374
		c-29.208,7.348-31.256,28.575-37.508,33.111c-6.251,4.528-25.375,10.833-20.128,25.785
		C302.099,75.64,312.878,71.437,329.569,67.233z"/>
</g>
</svg>