<?xml version="1.0" encoding="utf-8"?>

<!DOCTYPE svg PUBLIC "-//W3C//DTD SVG 1.1//EN" "http://www.w3.org/Graphics/SVG/1.1/DTD/svg11.dtd">
<!-- Uploaded to: SVG Repo, www.svgrepo.com, Generator: SVG Repo Mixer Tools -->
<svg height="800px" width="800px" version="1.1" id="_x32_" xmlns="http://www.w3.org/2000/svg" xmlns:xlink="http://www.w3.org/1999/xlink" 
	 viewBox="0 0 512 512"  xml:space="preserve">
<style type="text/css">
	.st0{fill:#000000;}
</style>
<g>
	<path class="st0" d="M404.383,258.534c-3.18-8.869-11.593-14.801-21.026-14.801h-67.798l-76.574-71.869
		c-16.87-16.869-39.913-26.052-63.777-26.052h-18.145h-39.414c-21.782,0-45.481,23.713-45.481,45.488v151.124
		c0,10.895,8.82,19.721,19.714,19.721c5.362,0,0,0,13.761,0l7.5,128.864c0,11.593,9.397,20.99,21.005,20.99
		c4.877,0,13.903,0,22.916,0c9.019,0,18.038,0,22.929,0c11.593,0,20.99-9.397,20.99-20.99l7.5-128.864l3.294-133.021l55.459,41.111
		c-8.392,34.665-22.327,91.703-24.58,97.343c-3.258,8.142,27.699,13.033,35.842,11.4c8.156-1.632,14.822,29.332,26.636,29.332
		c11.807,0,41.81,0,62.992,0c21.183,0,26.074-14.666,26.074-14.666s3.258-13.034,19.55-16.299c16.298-3.258,26.08-19.55,26.08-19.55
		L404.383,258.534z"/>
	<path class="st0" d="M116.716,75.583c-1.248,0-2.46-0.128-3.65-0.328c-0.621,2.988-0.962,6.082-0.962,9.255
		c0,24.819,20.12,44.953,44.961,44.953c24.84,0,44.96-20.134,44.96-44.953c0-3.173-0.342-6.267-0.963-9.255
		c-1.184,0.2-2.403,0.328-3.65,0.328H116.716z"/>
	<path class="st0" d="M116.716,66.144h80.695c11.686,0,21.168-9.476,21.168-21.162c0-11.693-9.483-21.176-21.168-21.176
		C185.504,23.806,184.178,0,164.335,0h-14.544c-19.85,0-21.169,23.806-33.075,23.806c-11.686,0-21.168,9.483-21.168,21.176
		C95.547,56.668,105.03,66.144,116.716,66.144z"/>
</g>
</svg>