<?xml version="1.0" encoding="utf-8"?>

<!DOCTYPE svg PUBLIC "-//W3C//DTD SVG 1.1//EN" "http://www.w3.org/Graphics/SVG/1.1/DTD/svg11.dtd">
<!-- Uploaded to: SVG Repo, www.svgrepo.com, Generator: SVG Repo Mixer Tools -->
<svg height="800px" width="800px" version="1.1" id="_x32_" xmlns="http://www.w3.org/2000/svg" xmlns:xlink="http://www.w3.org/1999/xlink" 
	 viewBox="0 0 512 512"  xml:space="preserve">
<style type="text/css">
	.st0{fill:#000000;}
</style>
<g>
	<path class="st0" d="M427.142,410.985c-11.558-17.316-29.115-26.888-45.614-33.1c-8.269-3.119-16.36-5.41-23.484-7.358
		c-4.169-1.132-7.953-2.158-11.261-3.132c8.161-4.252,26.305-15.399,26.305-30.475c-29.842,5.966-41.331-17.392-42.957-41.363
		c4.492-7.864,8.396-17.252,10.818-28.45c1.917-0.867,3.815-1.841,5.643-3.113c4.548-3.138,8.408-7.705,11.679-13.899
		c3.296-6.225,6.206-14.19,9.319-25.072c1.576-5.529,2.303-10.325,2.303-14.589c0.012-4.922-1.006-9.198-2.866-12.665
		c-1.562-2.948-3.676-5.087-5.878-6.706c14.336-40.192,3.765-78.259-19.15-105.387c-2.53-40.072-24.825-84.231-68.25-85.629
		c-46.797-1.512-65.258,33.904-69.8,55.364c-45.639,18.194-72.154,59.494-66.245,108.752c1.576,13.121,4.821,23.389,8.813,31.487
		c-0.512,0.715-1.101,1.303-1.538,2.12c-1.86,3.467-2.879,7.744-2.872,12.665c0.006,4.277,0.734,9.072,2.31,14.589
		c4.162,14.5,7.92,23.864,12.786,30.734c2.436,3.41,5.2,6.15,8.212,8.237c1.828,1.272,3.726,2.246,5.643,3.113
		c5.491,25.426,18.853,41.464,28.153,51.814c0,11.502,0,20.245,0,27.236c0,0.854-0.342,2.101-1.677,3.872
		c-1.955,2.632-6.01,5.814-10.825,8.522c-4.802,2.733-10.325,5.099-15.158,6.795c-5.674,2.012-14.817,4.112-25.059,7.047
		c-15.392,4.448-33.588,10.856-48.391,23.554c-7.39,6.346-13.874,14.317-18.442,24.224c-4.568,9.907-7.187,21.669-7.18,35.441
		c0,3.188,0.139,6.491,0.424,9.907c0.215,2.404,1.126,4.346,2.196,5.947c2.037,2.999,4.738,5.22,8.123,7.503
		c5.928,3.923,14.14,7.756,24.654,11.52c31.468,11.224,83.573,21.491,148.129,21.51c52.453-0.006,96.726-6.813,128.327-15.36
		c15.81-4.284,28.431-8.978,37.554-13.666c4.568-2.36,8.262-4.694,11.192-7.25c1.467-1.29,2.752-2.644,3.834-4.258
		c1.069-1.601,1.98-3.543,2.189-5.947c0.284-3.416,0.424-6.706,0.424-9.888C439.548,437.278,434.835,422.487,427.142,410.985z
		 M184.191,260.698l-0.721-4.08l-3.897-1.392c-2.48-0.886-4.372-1.791-6.023-2.935c-2.435-1.721-4.644-4.068-7.225-8.883
		c-2.55-4.783-5.251-11.925-8.206-22.294c-1.297-4.536-1.759-8.06-1.759-10.68l0.006-0.101c10.945,12.09,22.37,14.292,22.37,14.292
		c97.176-34.549,125.246-92.854,125.246-92.854s3.682,84.484,34.549,99.332c6.7-8.484,12.128-16.993,16.411-25.458
		c0.386,1.107,0.696,2.613,0.702,4.789c0,2.619-0.468,6.137-1.758,10.68c-3.929,13.842-7.453,21.89-10.686,26.356
		c-1.62,2.252-3.1,3.669-4.745,4.821c-1.651,1.144-3.543,2.05-6.023,2.935l-3.897,1.392l-0.721,4.08
		c-4.561,25.54-17.72,39.902-27.438,50.726l-1.828,2.031v2.739c0,12.956,0,22.402,0,29.962c-0.012,4.7,1.816,8.92,4.321,12.292
		c1.809,2.423,3.967,4.53,6.333,6.447l-49.258,76.317l-52.377-81.15c0.424-0.487,0.924-0.904,1.316-1.417
		c2.588-3.397,4.574-7.636,4.574-12.489c0-7.56,0-17.012,0-29.962v-2.739l-1.828-2.031
		C201.912,300.6,188.752,286.239,184.191,260.698z M199.368,367.421c0.322-0.228,0.601-0.494,0.917-0.728l59.659,92.436
		l57.306-88.792c0.139,0.082,0.266,0.17,0.405,0.246c5.745,3.265,12.027,5.947,17.936,8.162c0.525,0.196,1.139,0.373,1.689,0.563
		l16.62,51.2l-35.289-8.3l-58.666,49.157l-58.672-49.157l-35.289,8.3l17.745-54.674C189.031,373.57,194.496,370.799,199.368,367.421
		z M424.921,463.698l-0.613,0.728c-1.05,1.063-3.17,2.663-6.15,4.358c-10.508,6.068-31.247,13.514-59.084,19.182
		c-27.881,5.7-63.018,9.781-103.071,9.781c-51.2,0.006-94.386-6.681-124.6-14.868c-15.095-4.074-26.97-8.56-34.752-12.577
		c-3.884-1.992-6.744-3.896-8.325-5.289c-0.677-0.595-1.057-1.044-1.246-1.303c-0.222-2.808-0.348-5.523-0.348-8.098
		c0.025-16,3.935-27.685,9.977-36.846c9.04-13.69,23.554-22.067,38.712-27.773c7.554-2.853,15.19-5.017,22.2-6.896
		c5.269-1.418,10.16-2.651,14.506-3.96l-20.713,63.778l47.354-11.135l61.177,51.257l61.178-51.251l47.354,11.129l-19.872-61.184
		c4.056,1.107,8.364,2.253,12.881,3.568c14.722,4.245,30.987,10.224,43.096,20.624c6.074,5.201,11.16,11.438,14.811,19.302
		c3.638,7.864,5.877,17.417,5.884,29.406C425.275,458.194,425.142,460.895,424.921,463.698z"/>
</g>
</svg>