<?xml version="1.0" encoding="utf-8"?>

<!DOCTYPE svg PUBLIC "-//W3C//DTD SVG 1.1//EN" "http://www.w3.org/Graphics/SVG/1.1/DTD/svg11.dtd">
<!-- Uploaded to: SVG Repo, www.svgrepo.com, Generator: SVG Repo Mixer Tools -->
<svg height="800px" width="800px" version="1.1" id="_x32_" xmlns="http://www.w3.org/2000/svg" xmlns:xlink="http://www.w3.org/1999/xlink" 
	 viewBox="0 0 512 512"  xml:space="preserve">
<style type="text/css">
	.st0{fill:#000000;}
</style>
<g>
	<path class="st0" d="M434.414,406.685c-12.05-18.045-30.352-28.017-47.552-34.507c-8.62-3.244-17.056-5.632-24.482-7.663
		c-7.413-2.018-13.864-3.72-18.197-5.356c-7.572-2.81-15.585-6.463-21.171-10.381c-2.79-1.952-4.94-3.957-6.186-5.659
		c-0.495-0.686-0.752-1.24-1.003-1.781h6.543l0.679,0.607c2.901,2.566,9.115,6.952,23.031,12.155
		c3.984,1.484,9.247,2.902,14.787,4.393c11.687,3.172,27.351,7.492,42.276,14.991c2.368-4.122,3.918-8.85,4.795-14.114
		c4.729-27.892-9.114-71.389-20.327-127.508c-6.074-30.596-11.41-64.971-12.492-102.591c0.132-5.131,0-10.269-0.27-15.4
		C371.132,53.768,336.48-5.056,243.215,0.346c-77.33,4.459-110.558,70.036-113.327,124.534l-0.469,0.27
		c-0.27,14.728-1.016,28.908-2.097,42.48c-1.55,19.252-3.648,37.416-6.074,54.438c-8.106,59.16-18.777,104.747-14.048,135.475
		c0.739,5.269,2.025,10.13,3.918,14.522c14.582-7.024,29.712-11.08,41.194-14.048c5.402-1.418,10.064-2.704,13.844-3.984
		c5.54-1.958,10.335-4.122,14.114-6.213c3.852-2.163,6.622-4.056,8.785-6.081l0.468-0.402h6.642c-0.263,0.541-0.6,1.122-1.114,1.807
		c-2.038,2.744-6.265,6.068-11.284,8.884c-5.006,2.849-10.764,5.31-15.802,7.091c-5.916,2.097-15.446,4.274-26.124,7.334
		c-16.047,4.643-35.008,11.331-50.448,24.561c-7.704,6.615-14.464,14.932-19.226,25.26c-4.762,10.316-7.492,22.583-7.486,36.934
		c0,3.331,0.145,6.78,0.442,10.341c0.224,2.494,1.174,4.525,2.289,6.2c2.123,3.113,4.94,5.434,8.468,7.815
		c6.18,4.089,14.74,8.079,25.702,12.011c32.805,11.7,87.124,22.41,154.423,22.424c54.682,0,100.836-7.097,133.78-16.014
		c16.482-4.472,29.64-9.365,39.15-14.246c4.761-2.466,8.614-4.894,11.667-7.558c1.53-1.346,2.869-2.757,3.997-4.432
		c1.114-1.675,2.065-3.706,2.282-6.2c0.296-3.561,0.442-6.997,0.442-10.315C447.347,434.109,442.434,418.689,434.414,406.685z
		 M181.139,250.02l-0.752-4.261l-4.063-1.445c-2.585-0.923-4.557-1.866-6.278-3.06c-2.54-1.794-4.841-4.241-7.532-9.253
		c-2.658-4.986-5.474-12.439-8.554-23.256c-1.352-4.722-1.834-8.395-1.834-11.126c0-1.642,0.172-2.922,0.416-3.944
		c3.885,2.612,8.204,4.241,13.006,4.551c23.638-81.044,148.58-57.406,145.203-87.798c16.884,40.522,13.507,71.724,36.334,86.109
		c2.269-2.711,4.36-5.586,6.365-8.554c0.936,0.172,2.104,0.494,3.014,1.102c0.851,0.547,1.543,1.18,2.183,2.342
		c0.62,1.174,1.227,3.02,1.234,6.186c0,2.73-0.482,6.404-1.834,11.139c-4.096,14.424-7.77,22.82-11.14,27.476
		c-1.688,2.354-3.232,3.819-4.947,5.026c-1.721,1.194-3.693,2.137-6.279,3.06l-4.062,1.445l-0.752,4.261
		c-4.755,26.619-18.474,41.596-28.604,52.881l-1.906,2.118v2.856c0,13.507,0,23.347,0,31.236c-0.014,4.405,1.57,8.389,3.792,11.707
		l-22.892,43.146l-27.918,41.881l-20.156-38.59l0.013-0.013l-0.969-1.82l-0.244-0.476l-23.77-44.808
		c1.998-3.166,3.436-6.872,3.436-11.027c0-7.888,0-17.728,0-31.236v-2.856l-1.906-2.118
		C199.613,291.616,185.895,276.638,181.139,250.02z M185.743,367.746c3.858-1.886,7.696-4.023,11.218-6.47
		c2.38-1.669,4.55-3.542,6.575-5.547l21.244,40.06l-49.992,45.666L185.743,367.746z M257.85,497.12
		c-0.62,0.007-1.22,0.027-1.846,0.027c-15.974,0-31.09-0.686-45.429-1.788v-7.855l-1.081-68.605l18.533-16.937l29.824,57.116V497.12
		z M302.666,487.504v7.809c-12.07,0.95-24.806,1.537-38.062,1.728V457.41l-7.696-14.741l27.331-40.997l19.489,18.724
		L302.666,487.504z M287.905,395.843l20.954-39.507c3.344,3.179,7.241,5.844,11.416,8.244c2.17,1.227,4.459,2.296,6.734,3.377
		l13.56,78.472L287.905,395.843z"/>
	<path class="st0" d="M242.793,477.658c3.034,0,5.487-2.454,5.487-5.487s-2.453-5.487-5.487-5.487c-3.034,0-5.487,2.454-5.487,5.487
		S239.759,477.658,242.793,477.658z"/>
</g>
</svg>