<?xml version="1.0" encoding="utf-8"?>

<!DOCTYPE svg PUBLIC "-//W3C//DTD SVG 1.1//EN" "http://www.w3.org/Graphics/SVG/1.1/DTD/svg11.dtd">
<!-- Uploaded to: SVG Repo, www.svgrepo.com, Generator: SVG Repo Mixer Tools -->
<svg height="800px" width="800px" version="1.1" id="_x32_" xmlns="http://www.w3.org/2000/svg" xmlns:xlink="http://www.w3.org/1999/xlink" 
	 viewBox="0 0 512 512"  xml:space="preserve">
<style type="text/css">
	.st0{fill:#000000;}
</style>
<g>
	<path class="st0" d="M441.806,402.322c-12.549-18.792-31.61-29.177-49.523-35.936c-8.984-3.379-17.762-5.866-25.496-7.981
		c-7.721-2.102-14.438-3.874-18.951-5.578c-7.892-2.926-16.23-6.731-22.048-10.811c-2.905-2.033-5.145-4.122-6.442-5.893
		c-0.516-0.715-0.79-1.292-1.045-1.855l0.584-30.648c0,0,1.353-1.889,3.503-4.87c25.963-24.727,63.747-65.485,69.386-111.986
		c3.496-28.82,2.988-73.961-15.942-112.707C359.032,32.14,317.849,1.842,255.289,0.173c-0.632-0.041-1.216-0.123-1.854-0.165
		c-0.433,0.028-0.832,0.082-1.257,0.11c-2.198-0.02-4.314-0.152-6.56-0.11c-45.854,0.934-81.399,21.128-101.971,53.225
		c-31.211,42.194-32.688,99.34-28.546,133.532c4.492,37.063,29.404,70.417,52.476,94.979c2.301,2.72,4.657,5.344,7.123,7.81
		c0.831,0.831,1.972,1.806,3.221,2.823c5.681,5.618,10.956,10.529,15.557,14.767l0.206,27.124c-0.274,0.563-0.625,1.168-1.161,1.882
		c-2.122,2.857-6.525,6.319-11.752,9.252c-5.213,2.967-11.209,5.53-16.457,7.384c-6.162,2.184-16.086,4.451-27.207,7.638
		c-16.712,4.836-36.466,11.8-52.538,25.578c-8.023,6.889-15.07,15.55-20.022,26.306c-4.959,10.743-7.803,23.518-7.796,38.465
		c0,3.468,0.151,7.061,0.467,10.77c0.226,2.597,1.216,4.712,2.376,6.456c2.212,3.242,5.144,5.66,8.82,8.139
		c6.436,4.259,15.351,8.414,26.767,12.508c34.164,12.186,90.727,23.34,160.821,23.353c56.948,0,105.014-7.39,139.323-16.676
		c17.164-4.658,30.868-9.754,40.772-14.836c4.958-2.569,8.97-5.096,12.15-7.872c1.594-1.401,2.988-2.871,4.162-4.616
		c1.154-1.745,2.15-3.86,2.377-6.456c0.309-3.709,0.46-7.288,0.46-10.742C455.275,430.882,450.158,414.823,441.806,402.322z
		 M178.038,239.166l-0.783-4.43l-4.231-1.511c-2.692-0.962-4.746-1.944-6.538-3.187c-2.645-1.868-5.042-4.417-7.844-9.636
		c-2.768-5.193-5.701-12.954-8.908-24.219c-1.408-4.918-1.91-8.744-1.91-11.588c0.007-1.71,0.178-3.042,0.433-4.107
		c4.046,2.72,8.544,4.416,13.544,4.739c23.114-78.371,144.859-61.309,150.986-88.055c-1.202,30.888,28.128,19.452,38.073,86.297
		c2.363-2.823,4.54-5.818,6.628-8.908c0.976,0.178,2.191,0.515,3.139,1.147c0.886,0.57,1.607,1.229,2.267,2.438
		c0.652,1.223,1.277,3.146,1.291,6.443c0,2.85-0.502,6.676-1.91,11.601c-4.266,15.021-8.091,23.765-11.601,28.614
		c-1.758,2.453-3.366,3.978-5.152,5.234c-1.792,1.243-3.846,2.225-6.539,3.187l-4.231,1.504l-0.783,4.437
		c-4.952,27.722-19.239,43.32-29.79,55.073l-1.985,2.205v2.974c0,14.067,0,24.316,0,32.53c-0.014,4.596,1.635,8.737,3.942,12.199
		l-23.834,44.927l-29.075,43.616L232.238,392.5l0.014-0.014l-1.01-1.896l-0.254-0.494l-24.755-46.666
		c2.081-3.296,3.579-7.156,3.579-11.484c0-8.214,0-18.463,0-32.53v-2.974l-1.985-2.205
		C197.277,282.486,182.99,266.887,178.038,239.166z M182.833,361.77c4.024-1.964,8.015-4.19,11.683-6.738
		c2.479-1.738,4.739-3.689,6.848-5.776l22.124,41.712l-52.064,47.565L182.833,361.77z M257.927,496.505
		c-0.646,0.007-1.27,0.027-1.923,0.027c-16.635,0-32.378-0.714-47.311-1.861v-8.18l-1.133-71.447l19.307-17.638l31.06,59.482
		V496.505z M304.599,486.49v8.132c-12.57,0.99-25.833,1.601-39.639,1.8v-41.274l-8.015-15.351l28.464-42.695l20.296,19.5
		L304.599,486.49z M289.227,391.03l21.822-41.143c3.482,3.31,7.541,6.092,11.89,8.586c2.267,1.278,4.65,2.391,7.019,3.517
		l14.116,81.723L289.227,391.03z"/>
	<path class="st0" d="M242.245,476.236c3.16,0,5.715-2.555,5.715-5.715c0-3.159-2.555-5.714-5.715-5.714
		c-3.159,0-5.715,2.555-5.715,5.714C236.531,473.68,239.086,476.236,242.245,476.236z"/>
</g>
</svg>