<?xml version="1.0" encoding="utf-8"?>

<!DOCTYPE svg PUBLIC "-//W3C//DTD SVG 1.1//EN" "http://www.w3.org/Graphics/SVG/1.1/DTD/svg11.dtd">
<!-- Uploaded to: SVG Repo, www.svgrepo.com, Generator: SVG Repo Mixer Tools -->
<svg version="1.1" id="_x32_" xmlns="http://www.w3.org/2000/svg" xmlns:xlink="http://www.w3.org/1999/xlink" 
	 width="800px" height="800px" viewBox="0 0 512 512"  xml:space="preserve">
<style type="text/css">
<![CDATA[
	.st0{fill:#000000;}
]]>
</style>
<g>
	<path class="st0" d="M199.535,3.249C24.332-24.001,28.238,127.842,67.175,174.577c-66.188,38.922-55.719,61.047,89.547,66.188
		C487.676,252.436,460.41,194.03,460.41,194.03s15.594-0.016,23.375-38.938C487.676,96.717,374.738,30.499,199.535,3.249z"/>
	<path class="st0" d="M346.472,400.717c-10.688-9.922-24.344-17.25-39.938-22.328s-33.172-7.859-51.813-7.875
		c-14.203,0.016-27.797,1.625-40.344,4.656c-9.422,2.25-18.281,5.266-26.375,9.078c-12.141,5.688-22.703,13.016-30.766,22.453
		c-4.031,4.719-7.391,10-9.766,15.829c-2.391,5.813-3.719,12.203-3.719,18.734c0,7.469,0.781,14.484,2.453,21.047
		c1.469,5.734,3.625,11.125,6.484,16c2.5,4.234,5.531,8.094,8.922,11.438c5.969,5.859,12.969,10.094,20.266,13.141
		c10.969,4.547,22.656,6.625,34.859,7.797c12.188,1.141,24.938,1.313,37.984,1.313c12.969,0,25.656-0.156,37.813-1.297
		c9.109-0.844,17.922-2.234,26.375-4.75c6.359-1.891,12.516-4.422,18.313-7.953c4.328-2.656,8.406-5.875,12.031-9.719
		c5.453-5.75,9.75-12.875,12.469-20.859c2.719-7.953,3.984-16.688,3.984-26.156c0-5.813-1.094-11.516-2.984-16.766
		C359.363,415.249,353.55,407.342,346.472,400.717z M328.019,453.327c-0.688,2.719-1.594,4.828-2.609,6.563
		c-0.875,1.516-1.875,2.781-3.078,3.953c-2.063,2.031-4.828,3.875-8.734,5.484c-5.828,2.484-14.203,4.25-24.297,5.188
		c-10.094,0.953-21.875,1.141-34.578,1.141c-12.641,0-24.375-0.188-34.422-1.141c-7.547-0.688-14.156-1.828-19.438-3.406
		c-3.953-1.172-7.172-2.578-9.656-4.109c-1.875-1.141-3.359-2.359-4.609-3.656c-1.859-2-3.297-4.266-4.484-7.688
		c-1.203-3.438-2.031-8.109-2.031-14.391c0.016-1.453,0.25-2.859,0.813-4.422c0.984-2.703,3.094-6.047,6.859-9.547
		c5.578-5.266,14.781-10.594,26.406-14.359c11.609-3.797,25.578-6.063,40.563-6.063c11.422,0,22.234,1.313,31.891,3.625
		c7.234,1.734,13.797,4.016,19.438,6.656c8.484,3.953,14.797,8.734,18.484,13.078c1.859,2.188,3.047,4.234,3.781,6.016
		c0.719,1.828,1.031,3.375,1.031,5.016C329.347,446.233,328.832,450.187,328.019,453.327z"/>
	<path class="st0" d="M334.535,247.217c-29.609,0-54.063,22.047-57.875,50.625h-49.063c-3.813-28.578-28.266-50.625-57.891-50.625
		c-32.25,0-58.406,26.156-58.406,58.406c0,32.281,26.156,58.406,58.406,58.406c30.5,0,55.531-23.391,58.172-53.203h48.5
		c2.641,29.813,27.641,53.203,58.156,53.203c32.266,0,58.406-26.125,58.406-58.406C392.941,273.374,366.8,247.217,334.535,247.217z"
		/>
</g>
</svg>