<?xml version="1.0" encoding="utf-8"?>

<!DOCTYPE svg PUBLIC "-//W3C//DTD SVG 1.1//EN" "http://www.w3.org/Graphics/SVG/1.1/DTD/svg11.dtd">
<!-- Uploaded to: SVG Repo, www.svgrepo.com, Generator: SVG Repo Mixer Tools -->
<svg height="800px" width="800px" version="1.1" id="_x32_" xmlns="http://www.w3.org/2000/svg" xmlns:xlink="http://www.w3.org/1999/xlink" 
	 viewBox="0 0 512 512"  xml:space="preserve">
<style type="text/css">
	.st0{fill:#000000;}
</style>
<g>
	<path class="st0" d="M255.995,214.227c28.578,0,51.724-23.147,51.724-51.726c0-28.568-23.146-51.715-51.724-51.715
		c-28.569,0-51.715,23.147-51.715,51.715C204.281,191.08,227.426,214.227,255.995,214.227z"/>
	<path class="st0" d="M366.337,136.74l15.343,28.042l15.343-28.042c18.86-5.331,33.686-20.147,39.007-39.007l28.041-15.343
		l-28.041-15.343c-5.32-18.86-20.147-33.686-39.007-39.007L381.68,0l-15.343,28.041c-18.86,5.32-33.676,20.147-39.007,39.007
		l-28.042,15.343l28.042,15.343C332.661,116.594,347.477,131.41,366.337,136.74z M381.68,59.548
		c12.617,0,22.843,10.226,22.843,22.843c0,12.617-10.226,22.843-22.843,22.843c-12.617,0-22.843-10.226-22.843-22.843
		C358.837,69.774,369.063,59.548,381.68,59.548z"/>
	<path class="st0" d="M114.967,136.74l15.354,28.042l15.343-28.042c18.86-5.331,33.676-20.147,38.987-39.007l28.062-15.343
		l-28.062-15.343c-5.311-18.86-20.127-33.686-38.987-39.007L130.321,0l-15.354,28.041c-18.85,5.32-33.676,20.147-38.986,39.007
		L47.93,82.391l28.052,15.343C81.291,116.594,96.117,131.41,114.967,136.74z M130.321,59.548c12.608,0,22.832,10.226,22.832,22.843
		c0,12.617-10.225,22.843-22.832,22.843c-12.617,0-22.843-10.226-22.843-22.843C107.478,69.774,117.704,59.548,130.321,59.548z"/>
	<path class="st0" d="M379.45,213.497c-9.11,0-18.161,1.642-26.754,4.915c-27.403,10.368-60.592,16.063-95.667,16.063
		c-35.683,0-69.389-5.899-97.188-16.721c-8.726-3.406-17.968-5.18-27.352-5.18c-31.213,0-59.022,18.962-70.29,48.068
		c-3.476,8.917-5.118,18.231-5.118,27.281c0,15.15,4.52,29.774,12.851,42.097c8.259,12.395,20.329,22.498,35.155,28.274
		c25.64,9.962,53.376,17.239,82.361,21.769c0.01,0,0.02,0,0.03,0v68.659c0,9.576,2.362,18.556,6.294,26.42
		c5.969,11.806,15.475,20.927,26.359,27.22c10.955,6.233,23.349,9.638,35.875,9.638c16.722-0.06,33.25-6.029,46.232-16.853
		c6.486-5.442,12.06-12.13,16.002-20.005c4.004-7.864,6.294-16.844,6.294-26.42v-68.345c3.394-0.507,6.799-1.034,10.134-1.632
		c25.052-4.387,49.12-10.813,71.548-19.336c18.818-7.084,33.838-21.251,42.036-39.614c4.448-9.83,6.678-20.329,6.678-30.879
		c0-9.05-1.642-18.11-4.914-26.764C438.867,232.976,410.735,213.497,379.45,213.497z M298.305,357.11c-0.01,0-0.02,0-0.03,0v26.358
		c0.01,0,0.02,0,0.03,0v65.254c0,5.442-1.257,10.225-3.486,14.624c-3.274,6.556-8.908,12.202-15.931,16.194
		c-7.013,4.064-15.211,6.294-22.883,6.233c-10.165,0.061-21.383-4.003-29.308-10.752c-4.074-3.345-7.286-7.347-9.516-11.675
		c-2.158-4.399-3.405-9.182-3.475-14.624V329.301c0-4.997,0-9.091,0-12.03c11.634,1.287,23.562,2.057,35.743,2.29v108.527h13.114
		V319.613c12.181-0.172,24.109-0.882,35.743-2.088C298.305,324.974,298.305,339.719,298.305,357.11z M424.304,309.042
		c-5.442,12.06-15.009,21.12-27.343,25.832c-22.416,8.523-46.799,14.877-72.428,18.88v-24.453c0-7.388,0-12.81,0-15.374
		c20.906-3.688,40.546-9.04,58.454-15.839c5.087-1.926,7.641-7.611,5.716-12.688c-1.936-5.076-7.611-7.63-12.699-5.706
		c-33.655,12.789-74.679,20.37-118.915,20.36c-45.158,0.01-86.952-7.925-121.012-21.2c-5.067-1.977-10.773,0.526-12.738,5.583
		c-1.977,5.067,0.536,10.773,5.594,12.739c17.897,6.973,37.578,12.485,58.545,16.326c0,4.298,0,20.157,0,39.94
		c-0.01,0-0.02,0-0.03,0c-25.772-4.267-50.296-10.896-72.795-19.61c-9.769-3.811-17.501-10.296-22.954-18.363
		c-5.442-8.068-8.391-17.705-8.391-27.545c0-5.899,1.054-11.868,3.344-17.765c7.54-19.154,25.316-31.285,45.837-31.356
		c6.172,0,12.14,1.115,17.836,3.354c31.416,12.253,68.143,18.556,106.704,18.556c37.902,0,74.031-6.04,104.98-17.776
		c5.644-2.169,11.482-3.213,17.44-3.213c20.208-0.07,38.896,12.861,46.04,31.74c2.158,5.706,3.212,11.604,3.212,17.452
		C428.702,295.726,427.264,302.556,424.304,309.042z"/>
</g>
</svg>