<?xml version="1.0" encoding="utf-8"?>

<!DOCTYPE svg PUBLIC "-//W3C//DTD SVG 1.1//EN" "http://www.w3.org/Graphics/SVG/1.1/DTD/svg11.dtd">
<!-- Uploaded to: SVG Repo, www.svgrepo.com, Generator: SVG Repo Mixer Tools -->
<svg version="1.1" id="_x32_" xmlns="http://www.w3.org/2000/svg" xmlns:xlink="http://www.w3.org/1999/xlink" 
	 width="800px" height="800px" viewBox="0 0 512 512"  xml:space="preserve">
<style type="text/css">
<![CDATA[
	.st0{fill:#000000;}
]]>
</style>
<g>
	<path class="st0" d="M256,0C109.781,0,33.875,116.531,33.875,220.5c0,87.797,16.656,166.375,55.922,214.906
		C127.219,481.656,183.406,512,256,512s128.781-30.344,166.188-76.594c39.281-48.531,55.938-127.109,55.938-214.906
		C478.125,116.531,402.219,0,256,0z M216.656,103.719l11-22.031c1.656-3.281,5-5.344,8.688-5.344H256h19.656
		c3.672,0,7.031,2.063,8.672,5.344l11.016,22.031c2,4,1,8.844-2.406,11.75l-13,10.969c-2.156,1.844-3.406,4.563-3.406,7.406v-0.5
		c0,5.344-4.344,9.688-9.719,9.688H256h-10.844c-5.344,0-9.688-4.344-9.688-9.688v0.5c0-2.844-1.25-5.563-3.438-7.406
		l-12.969-10.969C215.656,112.563,214.656,107.719,216.656,103.719z M374.656,316.297c-38.5,17.078-67.375,4.703-88.938-6.375
		l24.219,44.734c25.656,10.656,44.688,28.688,44.688,51.281c0,10.656-5.406,24.813-31.172,31.609
		c-15.609,4.109-34.516,4.641-49.266,4.641c-3.844,0-7.469-0.031-10.781-0.063c-2.719-0.031-5.203-0.063-7.406-0.063
		c-2.219,0-4.703,0.031-7.406,0.063c-3.313,0.031-6.953,0.063-10.781,0.063c-14.75,0-33.656-0.516-49.266-4.641
		c-25.766-6.797-31.172-20.938-31.172-31.609c0-23.016,19.75-41.328,46.125-51.891l24.344-44.938
		c-21.719,11.266-51.063,24.672-90.516,7.188C60.75,282.344,69.656,172.875,92.844,152.375C115.719,132.109,182,184.063,256,184.063
		s140.281-51.953,163.156-31.688C442.328,172.875,451.25,282.344,374.656,316.297z"/>
	<path class="st0" d="M199.641,398.719c0,13.656,42.203,12.047,59.109,12.047c16.875,0,59.094,1.609,59.094-12.047
		c0-13.641-30.469-23.281-59.094-23.281C230.094,375.438,199.641,385.078,199.641,398.719z"/>
	<polygon class="st0" points="271.344,335.344 253.609,306.281 235.859,335.344 253.609,338.375 	"/>
	<path class="st0" d="M231.328,232.172c-6.531-18.234-75.328-30.25-96.297-37.625c-17.813-6.266-20.188-1.141-20.188,7.406
		c0,0-6.531,66.141,43.375,79.813C208.156,295.438,237.813,250.25,231.328,232.172z"/>
	<path class="st0" d="M376.938,194.547c-20.969,7.375-89.734,19.391-96.281,37.625c-6.469,18.078,23.188,63.266,73.125,49.594
		c49.906-13.672,43.375-79.813,43.375-79.813C397.156,193.406,394.781,188.281,376.938,194.547z"/>
	<path class="st0" d="M237.75,116.578c3.438,0.641,6.75-1.625,7.375-5.063l1.75-9.328c0.625-3.422-1.641-6.719-5.063-7.359
		c-3.438-0.641-6.75,1.625-7.375,5.047l-1.734,9.328C232.063,112.625,234.313,115.938,237.75,116.578z"/>
	<path class="st0" d="M273.969,116.578c3.438-0.641,5.719-3.953,5.063-7.375l-1.719-9.328c-0.656-3.422-3.938-5.688-7.375-5.047
		s-5.703,3.938-5.063,7.359l1.734,9.328C267.25,114.953,270.563,117.219,273.969,116.578z"/>
	<polygon class="st0" points="263.125,124.438 256.281,113.594 249.438,124.438 256.281,123.875 	"/>
</g>
</svg>