<?xml version="1.0" encoding="utf-8"?>

<!DOCTYPE svg PUBLIC "-//W3C//DTD SVG 1.1//EN" "http://www.w3.org/Graphics/SVG/1.1/DTD/svg11.dtd">
<!-- Uploaded to: SVG Repo, www.svgrepo.com, Generator: SVG Repo Mixer Tools -->
<svg height="800px" width="800px" version="1.1" id="_x32_" xmlns="http://www.w3.org/2000/svg" xmlns:xlink="http://www.w3.org/1999/xlink" 
	 viewBox="0 0 512 512"  xml:space="preserve">
<style type="text/css">
	.st0{fill:#000000;}
</style>
<g>
	<path class="st0" d="M482.33,498.788c-2.73-23.616-9.726-42.845-19.406-58.27c-14.523-23.193-34.785-37.4-53.959-46.686
		c-19.151-9.286-37.654-14.037-48.953-18.064c-7.667-2.676-16.83-6.849-23.232-11.345c-3.208-2.214-5.676-4.512-6.979-6.255
		c-1.35-1.805-1.412-2.653-1.404-2.815c0-4.026,0-8.569,0-13.636c37.022-1.041,64.549-10.86,83.121-22.9
		c9.826-6.371,17.192-13.282,22.337-19.945c2.568-3.347,4.596-6.633,6.092-9.95c1.466-3.331,2.522-6.64,2.568-10.705
		c-0.007-1.79-0.238-3.764-1.01-5.9c-0.764-2.106-2.167-4.381-4.204-6.14c-6.671-5.846-15.109-14.723-22.344-31.059
		c-7.181-16.328-13.012-40.268-13.02-75.84c-0.038-39.821-14.777-79.18-40.314-109.067C336.148,20.362,299.234-0.031,255.996,0
		c-43.238-0.031-80.159,20.362-105.627,50.21c-25.537,29.887-40.276,69.246-40.315,109.067c-0.008,35.572-5.838,59.512-13.019,75.84
		c-7.234,16.336-15.673,25.213-22.344,31.059c-2.036,1.751-3.44,4.026-4.203,6.14c-0.772,2.136-1.003,4.119-1.011,5.9
		c0.047,4.064,1.104,7.374,2.568,10.705c2.622,5.778,6.849,11.593,12.826,17.508c17.154,16.891,49.478,33.821,98.732,35.217
		c0,5.098,0,9.664,0,13.706c0.008,0.162-0.054,1.01-1.404,2.815c-1.936,2.653-6.579,6.386-12.232,9.549
		c-5.638,3.208-12.225,6.032-17.979,8.052c-7.497,2.661-18.303,5.716-30.265,10.143c-17.94,6.671-38.827,16.568-56.466,34.26
		c-17.67,17.639-31.545,43.191-35.586,78.617L28.136,512h455.728L482.33,498.788z M55.378,488.306
		c3-14.199,7.828-25.691,13.775-35.209c11.546-18.395,27.565-29.841,44.225-37.954c16.675-8.114,33.551-12.502,46.493-17.022
		c9.14-3.247,19.738-7.906,28.892-14.253c4.574-3.201,8.832-6.818,12.31-11.376c3.432-4.496,6.216-10.343,6.224-17.138
		c0-6.888,0-15.064,0-25.344v-12.125l-12.124,0.278c-1.759,0.046-3.486,0.062-5.192,0.062c-36.296-0.008-61.101-9.248-76.626-19.29
		c-7.759-5.014-13.189-10.281-16.444-14.524c-1.219-1.581-2.029-2.915-2.646-4.056c7.836-7.543,17.068-18.835,24.45-35.696
		c8.746-19.86,15.04-47.24,15.032-85.38c-0.039-33.906,12.826-68.251,34.623-93.657c21.851-25.437,51.984-41.896,87.625-41.927
		c35.641,0.031,65.768,16.49,87.626,41.927c21.796,25.406,34.661,59.751,34.622,93.657c-0.007,38.14,6.286,65.52,15.033,85.38
		c7.388,16.876,16.628,28.167,24.464,35.711c-0.054,0.085-0.062,0.139-0.115,0.231c-2.992,5.515-11.916,15.333-27.473,23.216
		c-15.58,7.96-37.863,14.408-68.15,14.408c-1.705,0-3.424-0.016-5.176-0.062l-12.125-0.286v12.133c0,10.281,0,18.457,0,25.344
		c0.008,6.795,2.792,12.642,6.224,17.138c5.237,6.803,12.148,11.654,19.398,15.827c7.273,4.119,14.955,7.382,21.804,9.803
		c8.661,3.039,18.966,5.939,29.902,10.004c16.398,6.078,33.867,14.631,47.92,28.761c11.894,12.032,21.674,28.059,26.617,51.421
		H55.378z"/>
</g>
</svg>