<?xml version="1.0" encoding="utf-8"?>

<!DOCTYPE svg PUBLIC "-//W3C//DTD SVG 1.1//EN" "http://www.w3.org/Graphics/SVG/1.1/DTD/svg11.dtd">
<!-- Uploaded to: SVG Repo, www.svgrepo.com, Generator: SVG Repo Mixer Tools -->
<svg version="1.1" id="_x32_" xmlns="http://www.w3.org/2000/svg" xmlns:xlink="http://www.w3.org/1999/xlink" 
	 viewBox="0 0 512 512"  xml:space="preserve">
<style type="text/css">
	.st0{fill:#000000;}
</style>
<g>
	<path class="st0" d="M202.803,342.03c-10.864,0-19.674,8.803-19.674,19.659c0,10.886,8.81,19.69,19.674,19.69
		c10.871,0,19.674-8.803,19.674-19.69C222.477,350.833,213.674,342.03,202.803,342.03z"/>
	<path class="st0" d="M309.197,342.03c-10.864,0-19.682,8.803-19.682,19.659c0,10.886,8.818,19.69,19.682,19.69
		c10.864,0,19.667-8.803,19.667-19.69C328.863,350.833,320.06,342.03,309.197,342.03z"/>
	<rect x="216.962" y="415.197" class="st0" width="79.932" height="18.462"/>
	<path class="st0" d="M426.083,189.826c14.682-14.659,23.811-35.083,23.803-57.47c-0.015-44.894-36.371-81.25-81.265-81.265
		c-7.568,0-14.894,1.106-21.864,3.061c-7.272-13.416-17.363-25.053-29.56-34.053C300.113,7.484,278.856-0.008,256,0
		c-22.856-0.008-44.114,7.484-61.212,20.098c-12.197,9-22.273,20.637-29.553,34.053c-6.97-1.955-14.288-3.061-21.848-3.061
		c-44.902,0.008-81.272,36.371-81.272,81.265c-0.008,22.387,9.121,42.811,23.803,57.47c11.803,11.819,27.386,19.947,44.69,22.697
		v78.212c-13.189,21.94-20.886,47.523-20.886,74.978C109.72,446.5,175.212,512,256,512c80.78,0,146.273-65.5,146.273-146.288
		c0-27.455-7.697-53.038-20.886-74.978v-78.212C398.697,209.78,414.28,201.651,426.083,189.826z M256,476.59
		c-61.136,0-110.879-49.757-110.879-110.878c0-20.818,5.917-40.235,15.955-56.886h189.848c10.03,16.652,15.932,36.068,15.932,56.886
		C366.856,426.834,317.113,476.59,256,476.59z M110.537,99.515c8.463-8.424,19.962-13.59,32.849-13.598
		c8.212,0.008,15.818,2.121,22.53,5.856l18.44,10.265l6.575-20.052c4.478-13.66,13.175-25.485,24.53-33.856
		c11.379-8.371,25.296-13.296,40.538-13.296c15.243,0,29.151,4.924,40.523,13.296c11.363,8.371,20.06,20.197,24.53,33.856
		l6.576,20.068l18.447-10.28c6.72-3.735,14.318-5.848,22.546-5.856C381.5,85.924,393,91.091,401.454,99.515
		c8.432,8.455,13.598,19.963,13.598,32.841c0,12.871-5.166,24.379-13.598,32.833c-8.462,8.439-19.954,13.599-32.833,13.607
		c-0.666,0.007-1.75-0.068-3.356-0.19l-18.712-1.401v96.787H165.439v-96.795l-18.72,1.409c-1.599,0.122-2.682,0.197-3.333,0.19
		c-12.886-0.008-24.386-5.168-32.849-13.607c-8.424-8.454-13.59-19.962-13.598-32.833C96.947,119.478,102.113,107.97,110.537,99.515
		z"/>
</g>
</svg>