<?xml version="1.0" encoding="utf-8"?>

<!DOCTYPE svg PUBLIC "-//W3C//DTD SVG 1.1//EN" "http://www.w3.org/Graphics/SVG/1.1/DTD/svg11.dtd">
<!-- Uploaded to: SVG Repo, www.svgrepo.com, Generator: SVG Repo Mixer Tools -->
<svg height="800px" width="800px" version="1.1" id="_x32_" xmlns="http://www.w3.org/2000/svg" xmlns:xlink="http://www.w3.org/1999/xlink" 
	 viewBox="0 0 512 512"  xml:space="preserve">
<style type="text/css">
	.st0{fill:#000000;}
</style>
<g>
	<path class="st0" d="M483.484,428.8l-51.795,17.854l-2.94-8.54l46.494-16.026c-10.271-8.231-22.195-17.278-35.146-26.184
		l-28.178,9.504c-2.079-2.624-4.291-5.065-6.651-7.281l25.374-8.569c-11.337-7.414-23.282-14.533-35.459-20.788l-24.82,8.379
		l-2.894-8.554l16.152-5.452c-14.471-6.648-29.086-11.84-43.216-14.556l-7.027-24.087l-17.053,1.006l4.752,35.688
		c-1.924-1.041-3.75-2.11-5.325-3.208c-2.494-1.745-4.404-3.524-5.515-5.044c-1.126-1.562-1.435-2.638-1.442-3.58
		c0-6.493,0-14.618,0-25.312c2.016-2.244,4.204-4.756,6.511-7.612c10.401-2.49,19.603-1.083,26.25,1.055l3.852,18.544h43.469
		c6.078,0,17.281-1.506,20.777-6.5c3.489-5.058-1.027-12.944-3.13-18.664c0,0-2.17-3.011-5.242-10.053l-38.892,8.006l-1.812-8.794
		l37.275-7.703c-2.589-7.042-5.481-16.201-8.253-28.062l-0.242-1.02l-36.001,7.464l-1.812-8.857l30.852-7.456
		c-2.251-12.783-8.716-32.41-10.946-47.958l28.112-10.334l-9.226-33.317l-24.991,10.27c-4.713-19.578-10.865-40.141-22.136-57.475
		c2.051-3.271,3.982-6.626,5.653-10.158c5.772-12.29,8.536-25.052,8.53-37.538c0.006-20.985-7.774-41.133-21.686-57.285
		c-1.688-1.963-4.422-2.632-6.817-1.66c-2.395,0.971-3.904,3.342-3.753,5.924c0.081,1.448,0.123,2.898,0.123,4.354
		c-0.007,10.735-2.29,21.688-7.309,32.367c-5.048,10.778-12.385,20.232-21.263,28.105c-11.46-3.792-24.788-6.05-40.686-6.05
		c-32.462,0-54.717,8.955-70.56,22.673c-12.455-5.614-22.92-13.352-30.908-22.645c-1.682-1.956-4.422-2.624-6.814-1.653
		c-2.399,0.97-3.912,3.348-3.76,5.93c1.006,17.643,7.492,34.485,18.456,48.646c-7.386,14.704-12.011,30.898-15.761,46.466
		l-24.996-10.27l-9.219,33.317l28.112,10.334c-2.23,15.547-8.695,35.174-10.946,47.958l30.848,7.456l-1.808,8.857l-36.004-7.464
		l-0.239,1.02c-2.772,11.861-5.664,21.02-8.253,28.062l37.275,7.703l-1.812,8.794l-38.896-8.006
		c-3.067,7.042-5.238,10.053-5.238,10.053c-2.106,5.719-6.619,13.606-3.13,18.664c3.496,4.995,14.692,6.5,20.777,6.5h43.465
		l3.852-18.544c6.652-2.145,15.864-3.545,26.282-1.048c2.3,2.849,4.481,5.354,6.497,7.598c0,10.7,0,18.818,0,25.319
		c0.007,0.802-0.31,1.956-1.548,3.602c-1.819,2.448-5.589,5.409-10.064,7.921c-0.218,0.112-0.471,0.218-0.693,0.344l4.756-35.723
		l-17.049-1.006l-7.028,24.087c-14.13,2.716-28.744,7.908-43.215,14.556l16.148,5.452l-2.891,8.554l-24.82-8.379
		c-12.177,6.254-24.122,13.374-35.463,20.788l25.301,8.541c-2.36,2.237-4.639,4.629-6.705,7.274l-28.048-9.469
		c-12.952,8.906-24.875,17.953-35.15,26.184l46.497,16.026l-2.94,8.54L28.516,428.8C10.96,443.348,0,453.95,0,453.95l78.271,29.104
		c3.281-5.558,6.817-10.953,10.499-16.208c1.784,2.244,3.94,4.122,6.658,5.951c5.509,3.652,13.141,7.218,22.913,10.708
		c29.247,10.425,77.672,19.979,137.669,19.993c48.748,0,89.895-6.332,119.266-14.274c14.692-3.988,26.422-8.343,34.9-12.705
		c4.246-2.195,7.682-4.361,10.401-6.732c1.006-0.887,1.889-1.836,2.701-2.856c3.669,5.227,7.186,10.602,10.45,16.124L512,453.95
		C512,453.95,501.04,443.348,483.484,428.8z M159.112,94.594c8.688,6.824,18.798,12.424,30.17,16.391
		c12.508,4.369,25.445,6.437,38.217,6.437c42.477-0.021,83.434-22.772,101.349-60.711c3.746-7.964,6.06-16.124,7.32-24.278
		c5.948,10.946,9.184,23.032,9.184,35.456c0,10.714-2.354,21.689-7.394,32.424c-15.463,33.057-52.174,53.803-90.448,53.782
		c-11.477,0-23.067-1.864-34.242-5.769C185.254,138.499,166.312,118.182,159.112,94.594z M257.748,184.38v18.059
		c0,0-22.941-1.864-57.563-10.897C207.716,185.519,257.748,184.38,257.748,184.38z M196.158,291.169
		c-2.937-6.05-5.413-12.972-6.89-21.231l-0.668-3.792l-1.569-0.555c-1.024-5.664-1.71-10.975-2.314-15.948l9.163-43.876
		c12.835,6.739,26.289,9.884,37.123,11.319c-1.013,2.075-2.065,4.242-3.155,6.493c-1.404-0.253-2.846-0.429-4.326-0.429
		c-12.895,0-23.335,10.432-23.335,23.327c0,7.19,3.313,13.528,8.417,17.806C203.498,275.229,199.007,284.965,196.158,291.169z
		 M199.738,297.775c0.763-1.646,1.818-3.946,3.124-6.788c2.761-5.98,6.588-14.26,10.844-23.406c2.993,1.393,6.292,2.23,9.814,2.23
		c12.895,0,23.331-10.44,23.331-23.335c0-9.265-5.434-17.186-13.254-20.956c1.323-2.73,2.568-5.283,3.774-7.732
		c9.314,0.795,15.505,0.345,15.505,0.345s35.456,4.024,64.714-14.914l9.694,46.423c-0.605,4.974-1.294,10.285-2.314,15.955
		l-1.555,0.549l-0.661,3.792c-4.242,23.728-16.469,37.088-25.502,47.148l-1.706,1.885v2.546c0,9.835,0,17.426,0,23.729
		c-40.345,19.846-71.608,4.692-79.079,0.387c0-6.388,0-14.077,0-24.116v-2.546l-1.699-1.885
		C210.094,311.873,204.575,305.746,199.738,297.775z M413.001,458.607l-0.57,0.676c-0.975,0.992-2.944,2.469-5.716,4.045
		c-0.176,0.105-0.404,0.211-0.587,0.31c-17.858-38.953-74.729-76.42-74.729-76.42s-8.645,14.583-16.102,18.311
		c-7.457,3.728-59.287,1.238-59.287,1.238v83.491c-3.116,0-6.102-0.099-9.152-0.148v-83.343c0,0-42.677,2.49-50.134-1.238
		c-7.457-3.728-16.103-18.311-16.103-18.311s-56.877,37.474-74.735,76.434c-2.575-1.45-4.538-2.786-5.712-3.827
		c-0.63-0.542-0.981-0.957-1.157-1.203c-0.145-1.808-0.18-3.51-0.222-5.227c25.536-32.248,55.945-57.314,74.306-71.039
		c3.187-0.872,6.156-1.73,8.818-2.659c4.133-1.47,8.667-3.391,13.095-5.663l6.032,6.296c2.98,4.052,6.149,7.738,8.544,8.928
		c6.18,3.088,47.38,1.034,47.38,1.034s41.196,2.054,47.38-1.034c3.637-1.822,9.04-9.329,12.888-15.216
		c4.214,2.124,8.551,4.038,12.741,5.606c2.74,1.02,5.849,1.942,9.141,2.877c18.393,13.774,48.668,38.769,74.106,70.898
		C413.177,455.111,413.142,456.799,413.001,458.607z"/>
</g>
</svg>