<?xml version="1.0" encoding="utf-8"?>

<!DOCTYPE svg PUBLIC "-//W3C//DTD SVG 1.1//EN" "http://www.w3.org/Graphics/SVG/1.1/DTD/svg11.dtd">
<!-- Uploaded to: SVG Repo, www.svgrepo.com, Generator: SVG Repo Mixer Tools -->
<svg version="1.1" id="_x32_" xmlns="http://www.w3.org/2000/svg" xmlns:xlink="http://www.w3.org/1999/xlink" 
	 width="800px" height="800px" viewBox="0 0 512 512"  xml:space="preserve">
<style type="text/css">
<![CDATA[
	.st0{fill:#000000;}
]]>
</style>
<g>
	<path class="st0" d="M451.156,225.563l-0.219-34.438c-4.531-89.031-78.156-145.781-168.313-145.781
		c-22.172,0-43.297,4.406-62.688,12.188c-11.844-5.5-25-8.688-38.875-8.672c-17.75-0.016-34.5,5.078-48.594,13.844
		c-11.047,6.859-20.438,16.016-27.719,26.734C85.188,94.125,67.906,104.656,55,119.141c-14.719,16.484-23.813,38.297-24.344,62.016
		c-7.688,6.453-14.266,14.156-19.313,22.922C4.141,216.594,0,231.219,0,246.656C0,262.5,4.375,277.5,11.938,290.25
		c5.281,8.922,12.188,16.688,20.203,23.125c0.703,22.547,10.109,43.078,24.984,57.938c15.469,15.5,37.047,25.125,60.672,25.125
		c11.078,0,21.688-2.172,31.422-6.031v76.25h197.375v-36.016c40.406-16.594,72.922-48.422,90.422-88.344l44.141-3.578
		c2.391-0.188,4.563-1.469,5.922-3.453s1.734-4.469,1.047-6.766L451.156,225.563z M86.938,341.516
		c-7.938-7.969-12.781-18.75-12.813-30.875c0-1.563,0.125-3.328,0.375-5.359l1.688-13.844l-12.078-6.953
		c-6.578-3.766-12.094-9.219-15.938-15.703c-3.844-6.516-6.031-13.969-6.047-22.125c0.016-7.938,2.094-15.219,5.75-21.594
		c3.656-6.359,8.906-11.781,15.188-15.625l11.344-6.938l-1.391-13.219c-0.203-2.047-0.328-4-0.328-5.906
		c0-13.984,5.172-26.531,13.781-36.203s20.531-16.203,33.969-17.875l10.984-1.375l5.109-9.813
		c4.188-8.047,10.5-14.875,18.156-19.625c7.688-4.766,16.609-7.484,26.375-7.5c13.938,0.016,26.344,5.594,35.5,14.703
		c9.125,9.156,14.688,21.578,14.703,35.5c0,4.5-0.641,8.906-1.859,13.313l-3.781,13.781l11.438,8.594
		c10.672,8.094,17.469,20.578,17.469,34.859c0,9.484-2.938,18.016-8,25.156c-5.063,7.125-12.25,12.688-20.563,15.75l-20.188,7.453
		l7.875,20.031c1.984,5.047,3.063,10.359,3.063,15.969c-0.016,12.141-4.844,22.922-12.781,30.875
		c-7.969,7.938-18.75,12.781-30.875,12.781c-3,0-5.906-0.297-8.766-0.875l-10.141-2.031l-7.813,6.766
		c-7.766,6.703-17.594,10.688-28.547,10.703C105.672,354.297,94.891,349.438,86.938,341.516z"/>
	<path class="st0" d="M494.438,140.141c-9.688,0-17.547,7.859-17.547,17.547v80.75c0,9.703,7.859,17.563,17.547,17.563
		c9.719,0,17.563-7.859,17.563-17.563v-80.75C512,148,504.156,140.141,494.438,140.141z"/>
</g>
</svg>