<?xml version="1.0" encoding="utf-8"?>

<!DOCTYPE svg PUBLIC "-//W3C//DTD SVG 1.1//EN" "http://www.w3.org/Graphics/SVG/1.1/DTD/svg11.dtd">
<!-- Uploaded to: SVG Repo, www.svgrepo.com, Generator: SVG Repo Mixer Tools -->
<svg height="800px" width="800px" version="1.1" id="_x32_" xmlns="http://www.w3.org/2000/svg" xmlns:xlink="http://www.w3.org/1999/xlink" 
	 viewBox="0 0 512 512"  xml:space="preserve">
<style type="text/css">
	.st0{fill:#000000;}
</style>
<g>
	<path class="st0" d="M273.117,160.892c-1.937,0.772-9.25,4.662-12.477,6.876c-1.13-1.297-2.79-2.112-4.64-2.112
		c-1.85,0-3.511,0.815-4.647,2.112c-3.234-2.214-10.532-6.104-12.47-6.876c-2.17-0.874-4.553-0.437-4.553,3.679
		c0,4.115,0,7.589,0,7.589s0,3.468,0,7.583c0,4.116,2.382,4.553,4.553,3.678c2.01-0.801,9.84-4.99,12.849-7.131
		c1.1,1.064,2.608,1.719,4.268,1.719c1.654,0,3.161-0.656,4.269-1.719c3.001,2.141,10.831,6.33,12.848,7.131
		c2.164,0.874,4.546,0.437,4.546-3.678c0-4.115,0-7.583,0-7.583s0-3.474,0-7.589C277.663,160.454,275.281,160.018,273.117,160.892z"
		/>
	<path class="st0" d="M368.042,289.796l-15.238-87.888c-3.548-27.818-19.87-49.568-40.586-63.626l18.88-26.441
		c0,0-15.282-5.091-34.235-9.272c1.516-2.907,2.928-5.791,4.137-8.675c16.258-8.246,26.616-35.029,21.67-38.904
		c-2.776-2.177-8.18,0.307-13.104,3.511c1.995-25.457-4.764-45.984-8.566-53.435C294.518-7.66,270.728,7.6,255.592,7.6
		c-15.143,0-38.932-15.26-45.422-2.534c-3.773,7.386-10.445,27.694-8.595,52.874c-4.676-2.914-9.637-5.004-12.251-2.951
		c-4.837,3.788,4.968,29.486,20.613,38.307c1.297,3.132,2.812,6.286,4.466,9.432c-18.611,4.152-33.506,9.112-33.506,9.112
		l18.887,26.441c-20.716,14.058-37.046,35.808-40.586,63.626l-15.238,87.888c-1.864,9.098,3.992,17.977,13.09,19.834
		c9.091,1.865,17.962-3.992,19.827-13.089l17.97-60.61h0.838L160.42,444.412h41.518l1.544,45.685
		c0,12.092,9.811,21.903,21.91,21.903c12.099,0,21.91-9.811,21.91-21.903l3.118-45.685H256h5.58l3.117,45.685
		c0,12.092,9.804,21.903,21.91,21.903c12.092,0,21.904-9.811,21.904-21.903l1.551-45.685h41.518l-34.424-208.459l17.962,60.588
		c1.865,9.097,10.737,14.954,19.827,13.089C364.044,307.773,369.907,298.893,368.042,289.796z M285.253,277.646h-27.301h-3.904
		h-27.314V156.704l29.266-19.5l29.253,19.5V277.646z M292.304,91.84c0,0-4.764,11.304-12.543,18.836
		c-7.765,7.502-12.47,9.2-23.761,9.2c-11.297,0-15.114-0.882-23.767-9.2c-8.654-8.326-12.55-18.836-12.55-18.836l-3.292-28.881
		c0,0,11.217-26.994,13.868-28.881C232.896,32.191,256,46.635,256,46.635s23.105-14.444,25.742-12.558
		c2.636,1.887,13.869,28.881,13.869,28.881L292.304,91.84z"/>
	<path class="st0" d="M256,87.469"/>
</g>
</svg>