<?xml version="1.0" encoding="utf-8"?>

<!DOCTYPE svg PUBLIC "-//W3C//DTD SVG 1.1//EN" "http://www.w3.org/Graphics/SVG/1.1/DTD/svg11.dtd">
<!-- Uploaded to: SVG Repo, www.svgrepo.com, Generator: SVG Repo Mixer Tools -->
<svg height="800px" width="800px" version="1.1" id="_x32_" xmlns="http://www.w3.org/2000/svg" xmlns:xlink="http://www.w3.org/1999/xlink" 
	 viewBox="0 0 512 512"  xml:space="preserve">
<style type="text/css">
	.st0{fill:#000000;}
</style>
<g>
	<path class="st0" d="M269.237,429.861c-3.009,1.792-4.218,8.406-4.218,8.406h-9.025h-9.01c0,0-1.194-6.614-4.203-8.406
		c-3.008-1.806-4.218,13.826-4.218,13.826h8.421h9.01h9.025h8.421C273.44,443.687,272.23,428.055,269.237,429.861z"/>
	<path class="st0" d="M58.857,402.097c14.067,0,92.31,0,140.702,0l-8.95,12.51c0,0,13.311,4.438,29.812,8.081
		c-1.33,2.524-2.555,5.049-3.605,7.558c-14.159,7.174-23.176,30.501-18.867,33.872c2.411,1.89,7.127-0.265,11.406-3.054
		c-1.738,22.163,4.142,40.047,7.453,46.525c5.654,11.082,26.365-2.215,39.548-2.215c13.183,0,33.91,13.296,39.549,2.215
		c3.281-6.432,9.101-24.105,7.483-46.041c4.082,2.547,8.39,4.362,10.673,2.57c4.203-3.303-4.331-25.67-17.96-33.365
		c-1.126-2.721-2.449-5.465-3.878-8.209c16.199-3.606,29.17-7.937,29.17-7.937l-8.942-12.51c48.4,0,126.635,0,140.695,0
		c19.29,0,32.14-14.158,20.575-42.451c-4.883-11.898-77.176-216.056-77.176-216.056l-23.796,31.558l-30.493-22.82l-12.117,36.101
		l-0.28-0.204l25.625,160.952l106.097,12.639l-0.604,5.11l-109.96-13.092l-0.31-1.928L323.276,179.57l0.098-0.008L293.048,19.26
		C290.515,9.192,284.431,0,273.803,0c-6.441,0-12.004,0-17.809,0c-5.79,0-11.353,0-17.794,0c-10.628,0-16.712,9.192-19.245,19.26
		l-30.326,160.302l0.098,0.008l-27.438,172.336l-0.31,1.928l-109.96,13.092l-0.604-5.11l106.097-12.639l25.633-160.952l-0.288,0.204
		l-12.109-36.101l-30.493,22.82l-23.795-31.558c0,0-72.309,204.159-77.169,216.056C26.701,387.94,39.574,402.097,58.857,402.097z
		 M238.071,373.222l12.458-6.644c3.016-1.61,7.929-1.61,10.946,0l12.668,6.766c-9.924,6.886-18.149,13.802-18.149,13.802
		S247.898,380.199,238.071,373.222z M278.414,482.328c-2.298,1.641-22.42-10.937-22.42-10.937s-20.107,12.578-22.412,10.937
		c-2.29-1.647-12.072-25.148-12.072-25.148l2.872-25.148c0,0,4.158-9.85,10.93-16.396c6.757-6.538,10.854-8.012,20.681-8.012
		c9.842,0,13.167,0.771,20.704,8.012c7.536,7.257,10.915,16.396,10.915,16.396l2.88,25.148
		C290.493,457.179,280.711,480.68,278.414,482.328z M209.703,208.815H302.3c0,0,0,77.169,0,150.907
		c-5.17,0-13.024,3.908-20.802,8.754v-21.482c0-3.41-2.465-4.884-5.473-3.281l-14.551,7.778c-3.016,1.61-7.929,1.61-10.946,0
		l-14.551-7.778c-3.008-1.602-5.472-0.128-5.472,3.281v21.127c-7.778-4.959-15.632-8.928-20.802-8.928
		C209.703,284.034,209.703,208.815,209.703,208.815z"/>
</g>
</svg>