<?xml version="1.0" encoding="utf-8"?>

<!DOCTYPE svg PUBLIC "-//W3C//DTD SVG 1.1//EN" "http://www.w3.org/Graphics/SVG/1.1/DTD/svg11.dtd">
<!-- Uploaded to: SVG Repo, www.svgrepo.com, Generator: SVG Repo Mixer Tools -->
<svg height="800px" width="800px" version="1.1" id="_x32_" xmlns="http://www.w3.org/2000/svg" xmlns:xlink="http://www.w3.org/1999/xlink" 
	 viewBox="0 0 512 512"  xml:space="preserve">
<style type="text/css">
	.st0{fill:#000000;}
</style>
<g>
	<path class="st0" d="M114.533,466.01c2.234,8.844,7.576,16.924,16.924,16.924c8.936,0,15.968,0,24.904,0
		c9.34,0,14.096-4.682,16.916-16.924l9.612-59.535l36.593-212.837L107.28,421.438L114.533,466.01z"/>
	<path class="st0" d="M225.845,148.201c-6.109-5.194-13.932-4.139-19.785,0l-59.608,37.375l1.443-7.576l54.637-35.059
		c1.254-0.865,2.589-1.533,3.958-2.102c-4.584-3.684-9.827-6.512-15.358-8.688l9.265-12.959c0,0-11.013-3.668-24.648-6.677
		c1.08-2.085,2.102-4.171,2.968-6.248c11.714-5.935,19.166-25.225,15.604-28.012c-1.994-1.566-5.894,0.223-9.439,2.523
		c1.442-18.325-3.42-33.114-6.158-38.473c-4.674-9.166-21.804,1.822-32.71,1.822c-10.898,0-28.036-10.989-32.702-1.822
		c-2.72,5.317-7.526,19.933-6.191,38.077c-3.38-2.102-6.941-3.603-8.829-2.127c-3.47,2.729,3.586,21.236,14.855,27.591
		c0.931,2.25,2.019,4.517,3.214,6.793c-13.403,2.984-24.136,6.553-24.136,6.553l8.82,12.349
		c-22.686,7.906-43.303,25.168-37.97,62.436L99.25,423.432l124.426-252.636C226.974,163.46,233.379,154.606,225.845,148.201z
		 M136.049,106.308c-2.482,1.484-3.479-11.434-3.479-11.434h6.966h7.46h7.453h6.966c0,0-0.998,12.918-3.487,11.434
		c-2.482-1.493-3.479-6.958-3.479-6.958h-7.453h-7.46C139.536,99.35,138.547,104.815,136.049,106.308z"/>
	<path class="st0" d="M215.013,20.345l43.583,154.028c0.816,2.852,1.063,9.431,0.461,12.341l-62.229,304.941H156.93h-22.604H94.419
		L32.19,186.722c-0.594-2.918-0.347-9.496,0.453-12.349L76.242,20.345h58.084h22.604H215.013 M219.094,0H156.93
		c-6.216,0-16.388,0-22.604,0H72.162c-6.215,0-12.686,4.897-14.385,10.873L13.073,168.834c-1.69,5.985-2.06,15.852-0.816,21.952
		L75.55,500.921c1.244,6.1,7.345,11.079,13.568,11.079h45.207c6.216,0,16.388,0,22.604,0h45.207c6.215,0,12.323-4.979,13.56-11.079
		l63.301-310.134c1.236-6.1,0.874-15.968-0.816-21.952L233.47,10.873C231.78,4.897,225.309,0,219.094,0z"/>
	<path class="st0" d="M456.595,16.479C454.023,7.419,444.221,0,434.799,0h-50.516c-9.422,0-24.838,0-34.252,0h-50.516
		c-9.422,0-19.223,7.419-21.787,16.479L236.19,163.228c-2.564,9.06-3.125,24.03-1.236,33.263l60.96,298.725
		c1.888,9.233,11.137,16.784,20.551,16.784h33.568c9.414,0,24.829,0,34.252,0h33.568c9.414,0,18.663-7.551,20.542-16.784
		l60.968-298.725c1.888-9.233,1.327-24.203-1.236-33.263L456.595,16.479z M435.904,183.556c0,6.95-0.915,14.682-2.036,17.163
		c-1.121,2.49-14.706,4.518-24.12,4.518h-5.499c-9.422,0-17.13,7.708-17.13,17.121v75.972c0,9.415-0.915,19.158-2.036,21.639
		c-1.112,2.49-12.686,4.526-19.652,4.526c-6.949,0-14.682-0.923-17.163-2.036c-2.481-1.121-4.518-14.714-4.518-24.129v-75.972
		c0-9.414-7.707-17.121-17.121-17.121h-5.498c-9.423,0-19.167-0.915-21.639-2.036c-2.489-1.121-4.526-12.695-4.526-19.645
		c0-6.966,0.915-14.69,2.037-17.17c1.112-2.482,14.706-4.518,24.128-4.518h5.498c9.414,0,17.121-7.708,17.121-17.122v-25.374
		c0-9.422,0.915-19.166,2.037-21.647c1.121-2.482,12.695-4.518,19.644-4.518c6.966,0,14.69,0.915,17.171,2.036
		c2.481,1.113,4.517,14.706,4.517,24.128v25.374c0,9.414,7.708,17.122,17.13,17.122h5.499c9.414,0,19.15,0.923,21.639,2.036
		C433.867,165.025,435.904,176.591,435.904,183.556z"/>
</g>
</svg>