<?xml version="1.0" encoding="utf-8"?>

<!DOCTYPE svg PUBLIC "-//W3C//DTD SVG 1.1//EN" "http://www.w3.org/Graphics/SVG/1.1/DTD/svg11.dtd">
<!-- Uploaded to: SVG Repo, www.svgrepo.com, Generator: SVG Repo Mixer Tools -->
<svg height="800px" width="800px" version="1.1" id="_x32_" xmlns="http://www.w3.org/2000/svg" xmlns:xlink="http://www.w3.org/1999/xlink" 
	 viewBox="0 0 512 512"  xml:space="preserve">
<style type="text/css">
	.st0{fill:#000000;}
</style>
<g>
	<path class="st0" d="M239.105,100.932l1.637,4.34c0,0,1.073,7.608,5.97,10.868v-10.868h11.418h7.071v10.868
		c4.898-3.26,5.97-10.868,5.97-10.868l1.637-4.34h-14.679H239.105L239.105,100.932z"/>
	<path class="st0" d="M203.79,397.36l138.916-143.455c5.112-23.447,9.902-55.274,2.04-76.219
		c-2.214-5.682-5.501-10.023-9.325-13.216c-7.675-6.367-33.648-17.591-36.284-18.409c6.158-7.306,25.872-15.758,25.872-15.758
		c-7.769-15.988-22.029-20.623-27.577-21.898c0.49-1.496,0.912-3.1,1.275-4.764c2.744-1.046,6.333-2.737,9.852-6.494
		c4.374-4.636,8.722-12.103,12.8-25.058c0.912-2.871,1.368-5.192,1.368-7.312c0-1.603-0.268-3.133-1.046-4.502
		c-0.778-1.402-2.147-2.448-3.515-2.906c-0.926-0.328-1.812-0.422-2.656-0.422c-1.302,0-6.709,2.858-7.89,3.187
		c1.892-8.943,5.569-35.771,1.516-50.37c-2.106-7.575-6.571-11.741-19.352-8.836c-9.258,2.1-33.826,4.817-33.826,4.817
		S231.39,3.03,222.132,0.93c-12.78-2.905-17.242,1.261-19.348,8.836c-4.06,14.598-0.376,41.426,1.516,50.37
		c-1.174-0.329-6.588-3.187-7.89-3.187c-0.852,0-1.73,0.094-2.65,0.422c-1.368,0.457-2.744,1.503-3.522,2.906
		c-0.778,1.368-1.047,2.898-1.047,4.502c0,2.12,0.457,4.441,1.369,7.305c4.079,12.962,8.426,20.429,12.8,25.065
		c3.516,3.75,7.112,5.448,9.848,6.494c0.363,1.664,0.785,3.267,1.275,4.764c-5.548,1.274-19.804,5.91-27.574,21.898
		c0,0,19.711,8.452,25.869,15.758c-2.636,0.818-28.606,12.042-36.281,18.409c-3.818,3.193-7.112,7.534-9.332,13.216
		c-10.325,27.547,1.657,73.838,6.608,95.299C180.323,301.336,193.693,356.208,203.79,397.36z M208.573,92.223
		c-3.321-3.495-7.272-9.956-11.19-22.293c-0.745-2.416-1.046-4.173-1.012-5.152c0-0.295,0-0.49,0.034-0.651
		c0.523,0,1.663,0.228,2.871,0.718c1.892,0.718,4.046,1.926,5.683,2.932c0.778,0.496,1.462,0.953,1.952,1.274l0.53,0.389l0.161,0.1
		h0.027l2.093,1.57l8.708,19.483c0,0,2.188-10.868,2.188-17.953c0-2.415-7.608-30.444-0.55-29.371
		c3.421,0.53,35.892,13.056,35.892,13.056s32.471-12.532,35.892-13.056c7.044-1.073-0.55,26.956-0.55,29.371
		c0,5.132,1.14,12.237,1.778,15.766c-0.422,2.711-0.262,4.77,0.96,5.448c4.897,2.724,10.338-11.962,14.145-21.206
		c1.195-2.918,1.637-5.018,1.463-6.407c0.993-0.538,2.026-1.027,2.992-1.396c1.208-0.49,2.348-0.718,2.872-0.718
		c0.04,0.162,0.04,0.356,0.04,0.651c0.027,0.98-0.268,2.737-1.019,5.152c-3.905,12.338-7.863,18.798-11.194,22.293
		c-3.354,3.455-5.964,4.24-8.909,5.32l-1.952,0.677l-0.355,2.06c-2.294,12.888-8.916,20.1-13.807,25.554l-0.946,1.04v16.477
		c0,0.758,0.128,1.476,0.295,2.16l-21.703,14.19l-21.696-14.19c0.16-0.684,0.295-1.402,0.295-2.16v-16.477l-0.953-1.04
		c-4.898-5.454-11.519-12.66-13.807-25.554l-0.355-2.06l-1.96-0.677C214.551,96.463,211.935,95.678,208.573,92.223z"/>
	<path class="st0" d="M295.083,487.614c-12.196-3.053,0.121-37.724,0.121-37.724s29.052-121.624,41.732-172.108L207.292,411.663
		c5.535,22.502,9.419,38.227,9.419,38.227s12.318,34.671,0.121,37.724c-12.197,3.045-24.393-7.621-24.393-7.621
		s0,32.008,16.772,32.008s41.158,0,41.158,0l5.588-15.37l5.595,15.37c0,0,24.394,0,41.159,0c16.768,0,16.768-32.008,16.768-32.008
		S307.284,490.659,295.083,487.614z"/>
</g>
</svg>