<?xml version="1.0" encoding="utf-8"?>

<!DOCTYPE svg PUBLIC "-//W3C//DTD SVG 1.1//EN" "http://www.w3.org/Graphics/SVG/1.1/DTD/svg11.dtd">
<!-- Uploaded to: SVG Repo, www.svgrepo.com, Generator: SVG Repo Mixer Tools -->
<svg height="800px" width="800px" version="1.1" id="_x32_" xmlns="http://www.w3.org/2000/svg" xmlns:xlink="http://www.w3.org/1999/xlink" 
	 viewBox="0 0 512 512"  xml:space="preserve">
<style type="text/css">
	.st0{fill:#000000;}
</style>
<g>
	<path class="st0" d="M308.753,328.173c-0.672-6.458-0.621-12.933-0.176-19.108c19.357,12.001,39.916,8.522,39.916,8.522
		s-10.356-21.908-7.879-51.321c4.937-9.611,9.351-20.347,13.338-31.965c9.4-6.165,17.934-17.175,22.475-37.282
		c1.773-7.846,0.383-15.297-3.008-21.789C411.447,51.846,331.886,0,283.921,0c-9.084,0-18.582,0.865-27.92,2.509
		C246.653,0.865,237.157,0,228.073,0c-47.967,0-127.529,51.848-89.496,175.238c-3.389,6.49-4.776,13.938-3.004,21.781
		c5.627,24.922,17.392,35.857,29.336,40.917c16.1,42.502-1.408,79.651-1.408,79.651s20.561,3.48,39.922-8.525
		c0.445,6.176,0.496,12.652-0.176,19.112c-6.422,61.85-143.68,56.46-143.68,137.87c0,16.748,56.123,45.957,196.434,45.957
		c140.309,0,196.432-29.209,196.432-45.957C452.433,384.633,315.177,390.023,308.753,328.173z"/>
</g>
</svg>