<?xml version="1.0" encoding="utf-8"?>

<!DOCTYPE svg PUBLIC "-//W3C//DTD SVG 1.1//EN" "http://www.w3.org/Graphics/SVG/1.1/DTD/svg11.dtd">
<!-- Uploaded to: SVG Repo, www.svgrepo.com, Generator: SVG Repo Mixer Tools -->
<svg height="800px" width="800px" version="1.1" id="_x32_" xmlns="http://www.w3.org/2000/svg" xmlns:xlink="http://www.w3.org/1999/xlink" 
	 viewBox="0 0 512 512"  xml:space="preserve">
<style type="text/css">
	.st0{fill:#000000;}
</style>
<g>
	<path class="st0" d="M231.456,114.789c24.956,5.501,49.643-10.274,55.144-35.237c5.5-24.955-10.274-49.635-35.23-55.136
		c-24.955-5.493-49.643,10.267-55.143,35.222C190.734,84.601,206.51,109.289,231.456,114.789z"/>
	<path class="st0" d="M512,233.682H378.882c-2.659-11.208-11.38-20.074-22.581-22.782v12.661l-58.004-2.494l-45.794-68.448
		c-12.73-16.647-35.253-23.502-49.941-26.439c-1.453-0.291-112.658-20.441-112.658-20.441c-6.419-1.163-13.036-0.061-18.736,3.113
		l-53.384,32.016c-7.81,4.361-10.626,14.222-6.296,22.064l0.207,0.39c3.894,7.076,12.378,10.213,19.944,7.39l56.352-21.031
		l53.858,18.606l-36.637,92.385L64.244,364.303L4.243,452.641c-6.786,8.951-5.279,21.666,3.419,28.788l0.628,0.498
		c8.722,7.13,21.528,6.044,28.934-2.44l39.919-47.302c6.09-7.299,26.011-28.688,29.745-37.426l42.642-60.919l70.062,57.874
		l-21.994,69.006c-3.404,10.71,2.126,22.216,12.631,26.24l0.78,0.306c10.618,4.07,22.538-0.964,27.051-11.376l32.728-77.154
		c14.368-24.802,0-44.387-10.45-53.529l-60.054-62.671l28.719-56.145l27.418,26.126c6.855,7.084,14.23,11.093,23.257,11.017
		l76.625-4.086v11.146c11.09-2.678,19.742-11.391,22.492-22.446H512V233.682z"/>
</g>
</svg>