<?xml version="1.0" encoding="utf-8"?>

<!DOCTYPE svg PUBLIC "-//W3C//DTD SVG 1.1//EN" "http://www.w3.org/Graphics/SVG/1.1/DTD/svg11.dtd">
<!-- Uploaded to: SVG Repo, www.svgrepo.com, Generator: SVG Repo Mixer Tools -->
<svg version="1.1" id="_x32_" xmlns="http://www.w3.org/2000/svg" xmlns:xlink="http://www.w3.org/1999/xlink" 
	 viewBox="0 0 512 512"  xml:space="preserve">
<style type="text/css">
	.st0{fill:#000000;}
</style>
<g>
	<path class="st0" d="M263.554,205.51c1.908-1.977,3.097-4.576,3.097-7.559c0-2.886-1.19-5.468-3.097-7.454
		c-1.977-1.89-4.566-3.079-7.558-3.079c-2.974,0-5.564,1.19-7.559,3.079c-1.89,1.986-3.079,4.567-3.079,7.454
		c0,2.983,1.19,5.582,3.079,7.559c1.995,1.898,4.585,3.088,7.559,3.088C258.988,208.599,261.577,207.409,263.554,205.51z"/>
	<path class="st0" d="M279.985,252.369c14.611,0,28.154-7.752,35.521-20.49c7.349-12.738,7.349-28.346,0-41.084l-23.884-41.381
		c-7.366-12.738-20.892-20.49-35.625-20.49c-14.716,0-28.241,7.751-35.607,20.49l-23.884,41.381
		c-7.367,12.738-7.367,28.346,0,41.084c7.366,12.738,20.91,20.49,35.519,20.49h23.972H279.985z M223.363,197.951
		c0-8.845,3.692-17.103,9.554-22.974c5.88-5.862,14.121-9.554,23.08-9.554c8.959,0,17.218,3.692,23.096,9.554
		c5.862,5.871,9.537,14.129,9.537,22.974c0,9.056-3.675,17.218-9.537,23.088c-5.878,5.871-14.138,9.545-23.096,9.545
		c-8.959,0-17.2-3.674-23.08-9.545C227.055,215.169,223.363,207.007,223.363,197.951z"/>
	<polygon class="st0" points="39.044,250.786 39.053,250.776 39.062,250.768 	"/>
	<path class="st0" d="M472.939,250.768c0.009,0.009,0.009,0.009,0.009,0.009l0.009,0.009L472.939,250.768z"/>
	<path class="st0" d="M510.926,476.495l-2.187-5.249l-0.332-0.866l-0.123-0.306l-0.14-0.262c-0.053-0.105-0.455-1.041-0.91-2.266
		l-0.035-0.079l-0.017-0.061c-1.085-2.616-2.555-6.352-4.428-11.277c-3.744-9.842-8.888-24.19-14.714-41.697
		c-10.254-31.216-22.397-72.868-31.794-118.196c10.097-0.105,19.107-6.106,23.254-15.284l0.245-0.245l0.525-1.39
		c0.052-0.088,0.052-0.184,0.087-0.272l0.262-0.726v-0.271c0.822-2.564,1.296-5.188,1.296-7.76c0-7.437-3.238-14.567-8.968-19.51
		l-32.536-28.241c-3.815-82.475-61.514-150.409-138.765-170.032c-0.683-20.271-17.113-36.5-37.48-36.5h-8.171h-8.154
		c-20.366,0-36.797,16.229-37.48,36.5C133.093,72.126,75.404,140.061,71.589,222.536l-32.536,28.241
		c-5.731,4.944-8.968,12.074-8.968,19.51c0,2.572,0.472,5.196,1.295,7.76v0.271l0.262,0.726c0.035,0.088,0.035,0.184,0.088,0.272
		l0.525,1.39l0.244,0.245c4.147,9.178,13.159,15.179,23.237,15.284c-9.379,45.328-21.522,86.981-31.776,118.196
		c-5.827,17.506-10.989,31.855-14.716,41.688c-1.872,4.934-3.342,8.67-4.426,11.286l-0.018,0.079l-0.017,0.061
		c-0.473,1.224-0.875,2.161-0.927,2.266l-0.141,0.28l-0.454,1.146l-2.188,5.258c-1.803,4.349-1.312,9.309,1.294,13.238
		c2.625,3.91,7.017,6.264,11.741,6.264h120.383l4.217-12.012l0.018-0.018c3.167-9.151,5.756-18.241,8.154-27.252
		c30.271,23.175,68.048,37.104,109.115,37.104c41.084,0,78.861-13.928,109.132-37.104c2.397,9.012,4.987,18.101,8.154,27.252
		l0.017,0.018l2.573,7.358l1.627,4.654h120.409c4.707,0,9.098-2.354,11.723-6.264C512.239,485.804,512.729,480.844,510.926,476.495z
		 M455.967,270.374h0.087v0.997h-0.892L455.967,270.374z M99.918,236.149v-4.97c0-1.977,0.192-3.972,0.297-5.966h68.538v-31.137
		h-64.268c14.242-58.092,61.083-103.261,119.981-115.405v35.126h13.928V76.09l0.7-0.096V53.71c0-4.882,3.971-8.853,8.748-8.853
		h8.154h8.171c4.76,0,8.749,3.972,8.749,8.853v22.284l0.7,0.096v37.708h13.928V78.671c58.878,12.144,105.728,57.313,119.972,115.405
		h-64.26v31.137h68.529c0.106,1.995,0.297,3.989,0.297,5.966v4.97l40.49,35.222H255.996H59.428L99.918,236.149z M55.946,270.374
		h0.088l0.804,0.997h-0.892V270.374z M125.971,422.087h-0.192c-3.079,14.829-7.156,30.034-12.038,45.065H35.859
		c11.129-29.344,35.503-98.39,50.831-177.881h52.615C139.112,305.3,137.713,362.394,125.971,422.087z M366.126,417.108
		c-27.559,29.448-66.544,47.856-110.13,47.856c-43.569,0-82.553-18.408-110.13-47.856l-0.787,0.805
		c10.744-58.801,11.934-112.816,12.038-128.642h98.879h98.896c0.087,15.827,1.295,69.842,12.038,128.642L366.126,417.108z
		 M398.26,467.152c-4.864-15.031-8.959-30.236-12.047-45.065h-0.192c-11.724-59.693-13.124-116.787-13.316-132.816h52.607
		c15.327,79.491,39.702,148.537,50.83,177.881H398.26z"/>
	<path class="st0" d="M198.184,316.436c-8.242,0-14.925,6.684-14.925,14.925c0,8.233,6.683,14.917,14.925,14.917
		c8.241,0,14.925-6.684,14.925-14.917C213.109,323.12,206.426,316.436,198.184,316.436z"/>
	<path class="st0" d="M313.826,316.436c-8.241,0-14.925,6.684-14.925,14.925c0,8.233,6.684,14.917,14.925,14.917
		s14.925-6.684,14.925-14.917C328.751,323.12,322.067,316.436,313.826,316.436z"/>
	<rect x="228.648" y="397.266" class="st0" width="54.715" height="12.432"/>
</g>
</svg>