<?xml version="1.0" encoding="utf-8"?>

<!DOCTYPE svg PUBLIC "-//W3C//DTD SVG 1.1//EN" "http://www.w3.org/Graphics/SVG/1.1/DTD/svg11.dtd">
<!-- Uploaded to: SVG Repo, www.svgrepo.com, Generator: SVG Repo Mixer Tools -->
<svg height="800px" width="800px" version="1.1" id="_x32_" xmlns="http://www.w3.org/2000/svg" xmlns:xlink="http://www.w3.org/1999/xlink" 
	 viewBox="0 0 512 512"  xml:space="preserve">
<style type="text/css">
	.st0{fill:#000000;}
</style>
<g>
	<path class="st0" d="M446.508,448.852c0.026-20.516-7.08-37.622-17.544-51.117c-10.477-13.534-24.142-23.612-37.596-31.143
		c-9.602-5.356-19.099-9.419-27.408-12.449h72.659l-4.442-9.98c0,0-0.143-0.346-0.444-1.046c-0.313-0.699-0.757-1.737-1.332-3.102
		c-1.15-2.73-2.822-6.735-4.833-11.79c-4.036-10.138-9.498-24.507-15.154-41.424c-10.843-32.339-22.299-73.991-26.126-112.75h6.152
		c5.212,0,10.033-3.122,11.901-7.995c0-0.066,0-0.066,0.066-0.131c0.47-1.365,0.744-2.86,0.744-4.232c0-3.507-1.542-6.956-4.35-9.36
		l-23.214-19.569c-1.607-54.023-41.071-98.694-93.505-110.072v-2.6c0-11.058-9.229-20.026-20.666-20.092h-5.415h-5.415
		c-11.436,0.066-20.666,9.034-20.666,20.092v2.6c-52.436,11.378-91.9,56.049-93.508,110.072l-23.207,19.569
		c-2.808,2.404-4.35,5.852-4.35,9.36c0,1.372,0.268,2.868,0.738,4.232c0.065,0.066,0.065,0.066,0.065,0.131
		c1.875,4.872,6.688,7.995,11.908,7.995h6.152c-3.834,38.759-15.29,80.411-26.126,112.75c-5.656,16.917-11.117,31.286-15.153,41.424
		c-2.019,5.055-3.684,9.059-4.834,11.79c-0.574,1.365-1.025,2.403-1.332,3.102c-0.3,0.699-0.451,1.039-0.451,1.039l-4.435,9.987
		h72.652c-8.302,3.03-17.806,7.093-27.407,12.449c-13.456,7.531-27.12,17.609-37.59,31.143
		c-10.463,13.495-17.576,30.601-17.55,51.117c0,5.271,0.49,10.764,1.457,16.473h-0.026c0,0.157,0.046,0.268,0.078,0.398
		c0.014,0.072,0.02,0.15,0.033,0.229h0.013c0.007,0,0.007,0.013,0.007,0.013c0.34,2.149,1.208,3.84,2.142,5.337
		c2.142,2.991,4.886,5.264,8.426,7.544c6.087,3.9,14.585,7.806,25.421,11.568C135.544,501.667,189.32,512,256.002,512
		c66.682,0,120.461-10.333,152.962-21.587c10.83-3.762,19.334-7.668,25.421-11.568c3.54-2.279,6.284-4.553,8.426-7.544
		c0.928-1.496,1.802-3.188,2.142-5.33v-0.019h0.014c0.013-0.079,0.026-0.157,0.039-0.229c0.026-0.13,0.078-0.242,0.078-0.398h-0.026
		C446.025,459.616,446.508,454.123,446.508,448.852z M79.496,464.345h-0.066l-4.749,0.392h-0.359l6.238-1.032L79.496,464.345z
		 M80.632,463.698H80.58l0.078-0.013L80.632,463.698z M120.992,480.968c-1.946-0.569-3.946-1.13-5.781-1.672
		c-9.896-3.115-17.923-6.238-23.743-9.164c-4.01-2.019-6.956-3.906-8.628-5.33c-0.719-0.569-1.169-1.072-1.313-1.339
		c-0.902-5.147-1.32-10.006-1.32-14.612c0.026-17.328,5.774-31.052,14.605-42.534c7.126-9.255,16.414-16.878,26.179-23.096V480.968z
		 M396.411,291.229c7.106,21.215,13.873,38.452,18.041,48.616h-44.808c-15.18-26.976-23.854-60.895-28.465-91.202
		c-4.834-31.646-5.448-59.275-5.448-70.999c0-1.496,0.014-2.639,0.026-3.592H369.5C373.379,214.932,385.28,257.917,396.411,291.229z
		 M390.44,161.758v0.588h-0.536L390.44,161.758z M121.567,162.346v-0.588l0.536,0.588H121.567z M123.774,162.346l27.29-23.018
		v-3.253c0-1.294,0-2.593,0.13-3.834v-0.026h46.172v-20.398h-43.286c9.562-37.962,41.065-67.538,80.719-75.474
		c0.007,0,0.013-0.007,0.02-0.007v23.05h9.366V34.71l0.451-0.059V20.092c0-3.181,2.672-5.722,5.95-5.787h5.415h5.415
		c3.279,0.065,5.95,2.606,5.95,5.787v14.559l0.451,0.059v24.676h9.367v-23.05c0.006,0,0.013,0.007,0.019,0.007
		c39.654,7.936,71.16,37.512,80.722,75.474h-43.289v20.398h46.176v0.026c0.131,1.241,0.131,2.541,0.131,3.834v3.253l27.289,23.018
		H256.002H123.774z M142.357,339.844H97.549c4.174-10.164,10.94-27.4,18.041-48.616c11.136-33.312,23.03-76.296,26.917-117.178
		h33.742c0.007,0.954,0.02,2.097,0.02,3.592c0,11.724-0.608,39.354-5.447,70.999C166.211,278.95,157.543,312.869,142.357,339.844z
		 M153.134,350.582c6.539-10.966,11.901-22.88,16.349-35.146l-0.928,32.371c-3.998,0.986-9.824,2.606-16.747,4.99L153.134,350.582z
		 M248.713,497.63c-36.114-0.424-68.054-3.958-94.278-8.87v-24.762h94.278V497.63z M248.713,426.096h-94.278v-58.994
		c5.303-1.901,10.085-3.37,13.834-4.416c2.822-0.784,5.089-1.332,6.63-1.685c0.771-0.177,1.359-0.301,1.751-0.386l0.424-0.085
		l0.098-0.02l5.774-1.104l1.078-37.773h37.211l-0.177-0.19h27.656V426.096z M210.208,309.733l-0.032-0.039
		c-5.37-5.762-10.908-10.732-15.65-17.382c-4.729-6.642-8.883-14.957-11.247-27.838l-0.262,0.046
		c0.869-4.657,1.666-9.262,2.358-13.776c4.99-32.658,5.604-60.895,5.611-73.103c0-1.464-0.013-2.606-0.02-3.592h65.036h65.036
		c-0.006,0.986-0.019,2.129-0.019,3.592c0.007,12.208,0.621,40.444,5.611,73.103c0.692,4.513,1.489,9.118,2.358,13.776l-0.261-0.046
		c-2.365,12.881-6.518,21.196-11.248,27.838c-4.742,6.65-10.281,11.62-15.65,17.382l-0.033,0.039h-45.794H210.208z M358.435,488.61
		c-26.385,4.99-58.645,8.589-95.144,9.02v-33.632h95.144V488.61z M358.435,426.096h-95.144V321.444h27.655l-0.176,0.19h37.211
		l1.078,37.773l5.771,1.104l0.104,0.02l0.418,0.085c0.392,0.085,0.98,0.209,1.75,0.386c1.542,0.352,3.814,0.901,6.636,1.685
		c3.958,1.091,9.04,2.665,14.696,4.716V426.096z M343.451,347.806l-0.927-32.371c4.441,12.266,9.81,24.18,16.342,35.146l1.332,2.215
		C353.275,350.412,347.449,348.793,343.451,347.806z M429.161,464.802c-1.672,1.424-4.612,3.311-8.622,5.33
		c-5.826,2.926-13.847,6.048-23.749,9.164c-1.554,0.464-3.279,0.94-4.911,1.424v-96.963c9.445,6.114,18.393,13.573,25.316,22.56
		c8.831,11.482,14.579,25.206,14.605,42.534c0,4.605-0.418,9.465-1.32,14.612C430.336,463.731,429.879,464.234,429.161,464.802z
		 M431.368,463.698l-0.027-0.013l0.079,0.013H431.368z M437.325,464.737l-4.756-0.392h-0.065l-1.058-0.64l6.231,1.032H437.325z"/>
	<path class="st0" d="M261.084,119.308c1.266-1.235,2.07-2.926,2.07-4.879s-0.804-3.644-2.07-4.944
		c-1.339-1.228-3.077-2.012-5.082-2.012c-2.005,0-3.743,0.784-5.082,2.012c-1.267,1.3-2.07,2.991-2.07,4.944s0.803,3.644,2.07,4.879
		c1.339,1.294,3.077,2.012,5.082,2.012C258.007,121.32,259.745,120.602,261.084,119.308z"/>
	<path class="st0" d="M272.115,149.994c9.837,0,18.929-5.134,23.88-13.462c4.951-8.256,4.951-18.524,0-26.845L279.94,82.632
		c-4.944-8.25-14.043-13.39-23.938-13.39c-9.896,0-18.994,5.14-23.939,13.39l-16.055,27.054c-4.951,8.322-4.951,18.589,0,26.845
		c4.951,8.328,14.043,13.462,23.88,13.462h16.114H272.115z M234.134,114.429c0-5.852,2.475-11.247,6.355-15.016
		c3.945-3.834,9.497-6.244,15.513-6.244c6.016,0,11.568,2.411,15.513,6.244c3.879,3.769,6.355,9.164,6.355,15.016
		c0,5.852-2.476,11.182-6.355,15.023c-3.946,3.828-9.498,6.238-15.513,6.238c-6.016,0-11.568-2.41-15.513-6.238
		C236.609,125.611,234.134,120.281,234.134,114.429z"/>
</g>
</svg>