<?xml version="1.0" encoding="utf-8"?>

<!DOCTYPE svg PUBLIC "-//W3C//DTD SVG 1.1//EN" "http://www.w3.org/Graphics/SVG/1.1/DTD/svg11.dtd">
<!-- Uploaded to: SVG Repo, www.svgrepo.com, Generator: SVG Repo Mixer Tools -->
<svg height="800px" width="800px" version="1.1" id="_x32_" xmlns="http://www.w3.org/2000/svg" xmlns:xlink="http://www.w3.org/1999/xlink" 
	 viewBox="0 0 512 512"  xml:space="preserve">
<style type="text/css">
	.st0{fill:#000000;}
</style>
<g>
	<path class="st0" d="M503.725,70.173L101.905,0.184L6.674,33.629c-4.299,1.509-7.031,5.744-6.636,10.288
		c0.395,4.544,3.824,8.24,8.326,8.98l171.324,28.147l-14.709,70.773h176.077l5.68-43.332l33.927,5.572L503.94,89.8
		c4.724-0.92,8.109-5.09,8.059-9.9C511.942,75.091,508.469,71,503.725,70.173z"/>
	<path class="st0" d="M113.2,92.942c0.108-3.962-3.005-7.261-6.966-7.37c-3.954-0.115-7.261,3.005-7.377,6.96
		c-0.1,3.954,3.005,7.262,6.974,7.369C109.785,100.016,113.085,96.896,113.2,92.942z"/>
	<path class="st0" d="M105.831,137.121c3.954,0.115,7.254-3.005,7.369-6.959c0.108-3.969-3.005-7.262-6.966-7.377
		c-3.954-0.115-7.261,3.005-7.377,6.96C98.757,133.706,101.862,137.007,105.831,137.121z"/>
	<path class="st0" d="M105.831,174.334c3.954,0.115,7.254-3.005,7.369-6.959c0.108-3.962-3.005-7.262-6.966-7.377
		c-3.954-0.115-7.261,3.005-7.377,6.967C98.757,170.927,101.862,174.219,105.831,174.334z"/>
	<path class="st0" d="M105.831,211.561c3.954,0.101,7.254-3.012,7.369-6.974c0.108-3.954-3.005-7.261-6.966-7.368
		c-3.954-0.108-7.261,3.005-7.377,6.966C98.757,208.139,101.862,211.446,105.831,211.561z"/>
	<path class="st0" d="M115.81,241.886c0.151-5.406-4.098-9.907-9.504-10.058c-5.393-0.158-9.893,4.099-10.051,9.498
		c-0.158,5.406,4.098,9.907,9.498,10.058C111.151,251.535,115.651,247.279,115.81,241.886z"/>
	<path class="st0" d="M83.853,88.377c0.108-3.962-3.005-7.261-6.966-7.377c-3.954-0.115-7.255,3.005-7.37,6.967
		c-0.108,3.962,3.005,7.254,6.967,7.369C80.437,95.451,83.737,92.331,83.853,88.377z"/>
	<path class="st0" d="M76.483,132.549c3.954,0.115,7.254-3.005,7.369-6.959c0.108-3.962-3.005-7.262-6.966-7.37
		c-3.954-0.115-7.255,2.998-7.37,6.96C69.409,129.141,72.522,132.441,76.483,132.549z"/>
	<path class="st0" d="M76.483,169.776c3.954,0.101,7.254-3.005,7.369-6.973c0.108-3.955-3.005-7.255-6.966-7.362
		c-3.954-0.116-7.255,2.998-7.37,6.959C69.409,166.354,72.522,169.661,76.483,169.776z"/>
	<path class="st0" d="M76.483,206.989c3.954,0.115,7.254-3.005,7.369-6.959c0.108-3.969-3.005-7.261-6.966-7.377
		c-3.954-0.115-7.255,3.005-7.37,6.96C69.409,203.573,72.522,206.874,76.483,206.989z"/>
	<path class="st0" d="M76.957,227.263c-5.392-0.158-9.892,4.099-10.05,9.498c-0.158,5.399,4.098,9.9,9.497,10.058
		c5.399,0.158,9.9-4.106,10.059-9.504C86.613,231.915,82.364,227.414,76.957,227.263z"/>
	<path class="st0" d="M54.505,83.805c0.116-3.954-3.005-7.261-6.967-7.37c-3.954-0.115-7.254,3.005-7.369,6.967
		c-0.108,3.954,3.005,7.254,6.967,7.369C51.09,90.886,54.39,87.766,54.505,83.805z"/>
	<path class="st0" d="M47.136,127.991c3.954,0.108,7.254-3.012,7.369-6.966c0.116-3.962-3.005-7.262-6.967-7.37
		c-3.954-0.115-7.254,3.005-7.369,6.96C40.061,124.569,43.175,127.876,47.136,127.991z"/>
	<path class="st0" d="M47.136,165.203c3.954,0.116,7.254-3.005,7.369-6.96c0.116-3.961-3.005-7.261-6.967-7.376
		c-3.954-0.116-7.254,3.005-7.369,6.96C40.061,161.795,43.175,165.089,47.136,165.203z"/>
	<path class="st0" d="M47.136,202.423c3.954,0.108,7.254-3.005,7.369-6.967c0.116-3.954-3.005-7.261-6.967-7.369
		c-3.954-0.115-7.254,2.998-7.369,6.966C40.061,199.008,43.175,202.309,47.136,202.423z"/>
	<path class="st0" d="M47.618,222.69c-5.4-0.151-9.9,4.098-10.058,9.504c-0.158,5.399,4.098,9.9,9.497,10.051
		c5.399,0.158,9.9-4.098,10.058-9.49C57.273,227.349,53.017,222.849,47.618,222.69z"/>
	<path class="st0" d="M25.158,79.246c0.115-3.968-3.005-7.261-6.967-7.376c-3.954-0.115-7.254,3.005-7.369,6.959
		c-0.108,3.962,3.005,7.261,6.966,7.377C21.743,86.321,25.05,83.201,25.158,79.246z"/>
	<path class="st0" d="M17.788,123.418c3.954,0.116,7.262-3.005,7.37-6.959c0.115-3.968-3.005-7.261-6.967-7.376
		c-3.954-0.115-7.254,3.005-7.369,6.967C10.714,120.011,13.827,123.303,17.788,123.418z"/>
	<path class="st0" d="M17.788,160.645c3.954,0.101,7.262-3.012,7.37-6.974c0.115-3.954-3.005-7.261-6.967-7.369
		c-3.954-0.115-7.254,3.005-7.369,6.966C10.714,157.223,13.827,160.531,17.788,160.645z"/>
	<path class="st0" d="M17.788,197.858c3.954,0.108,7.262-3.005,7.37-6.967c0.115-3.961-3.005-7.254-6.967-7.369
		c-3.954-0.115-7.254,3.005-7.369,6.959C10.714,194.443,13.827,197.743,17.788,197.858z"/>
	<path class="st0" d="M18.271,218.133c-5.399-0.158-9.9,4.098-10.059,9.49c-0.151,5.406,4.098,9.907,9.505,10.065
		c5.392,0.151,9.892-4.105,10.05-9.504C27.926,222.784,23.67,218.283,18.271,218.133z"/>
	<path class="st0" d="M410.937,131.621c3.954-0.108,7.074-3.415,6.959-7.369c-0.108-3.962-3.415-7.074-7.369-6.967
		c-3.962,0.116-7.082,3.415-6.967,7.369C403.675,128.616,406.976,131.736,410.937,131.621z"/>
	<path class="st0" d="M410.937,168.841c3.954-0.116,7.074-3.422,6.959-7.376c-0.108-3.954-3.415-7.074-7.369-6.96
		c-3.962,0.115-7.082,3.408-6.967,7.37C403.675,165.836,406.976,168.957,410.937,168.841z"/>
	<path class="st0" d="M410.937,206.054c3.954-0.116,7.074-3.408,6.959-7.369c-0.108-3.962-3.415-7.082-7.369-6.967
		c-3.962,0.115-7.082,3.415-6.967,7.376C403.675,203.049,406.976,206.169,410.937,206.054z"/>
	<path class="st0" d="M410.937,243.281c3.954-0.115,7.074-3.422,6.959-7.377c-0.108-3.961-3.415-7.082-7.369-6.966
		c-3.962,0.108-7.082,3.415-6.967,7.369C403.675,240.269,406.976,243.382,410.937,243.281z"/>
	<path class="st0" d="M410.449,263.548c-5.4,0.151-9.649,4.652-9.498,10.058c0.158,5.393,4.659,9.649,10.058,9.498
		c5.4-0.151,9.656-4.659,9.498-10.058C420.355,267.646,415.854,263.39,410.449,263.548z"/>
	<path class="st0" d="M440.285,127.056c3.954-0.115,7.074-3.408,6.959-7.377c-0.115-3.954-3.415-7.074-7.369-6.959
		c-3.962,0.115-7.082,3.408-6.967,7.377C433.023,124.051,436.323,127.171,440.285,127.056z"/>
	<path class="st0" d="M440.285,164.269c3.954-0.108,7.074-3.408,6.959-7.369c-0.115-3.962-3.415-7.074-7.369-6.96
		c-3.962,0.108-7.082,3.408-6.967,7.37C433.023,161.264,436.323,164.384,440.285,164.269z"/>
	<path class="st0" d="M440.285,201.496c3.954-0.115,7.074-3.422,6.959-7.376c-0.115-3.962-3.415-7.075-7.369-6.959
		c-3.962,0.1-7.082,3.407-6.967,7.362C433.023,198.483,436.323,201.597,440.285,201.496z"/>
	<path class="st0" d="M440.285,238.709c3.954-0.115,7.074-3.415,6.959-7.376c-0.115-3.955-3.415-7.075-7.369-6.96
		c-3.962,0.116-7.082,3.408-6.967,7.376C433.023,235.703,436.323,238.823,440.285,238.709z"/>
	<path class="st0" d="M439.796,258.983c-5.4,0.151-9.649,4.652-9.497,10.051c0.158,5.399,4.659,9.656,10.058,9.505
		c5.399-0.158,9.655-4.66,9.497-10.059C449.703,263.081,445.202,258.825,439.796,258.983z"/>
	<path class="st0" d="M469.625,122.491c3.961-0.116,7.082-3.415,6.966-7.369c-0.115-3.962-3.414-7.082-7.369-6.967
		c-3.961,0.108-7.082,3.415-6.966,7.37C462.371,119.486,465.67,122.606,469.625,122.491z"/>
	<path class="st0" d="M469.625,159.711c3.961-0.115,7.082-3.422,6.966-7.376c-0.115-3.962-3.414-7.075-7.369-6.96
		c-3.961,0.108-7.082,3.408-6.966,7.369C462.371,156.699,465.67,159.819,469.625,159.711z"/>
	<path class="st0" d="M469.625,196.923c3.961-0.115,7.082-3.415,6.966-7.376c-0.115-3.954-3.414-7.075-7.369-6.96
		c-3.961,0.115-7.082,3.415-6.966,7.376C462.371,193.918,465.67,197.038,469.625,196.923z"/>
	<path class="st0" d="M469.625,234.143c3.961-0.115,7.082-3.415,6.966-7.37c-0.115-3.969-3.414-7.081-7.369-6.966
		c-3.961,0.108-7.082,3.415-6.966,7.369C462.371,231.138,465.67,234.251,469.625,234.143z"/>
	<path class="st0" d="M469.143,254.41c-5.4,0.158-9.648,4.659-9.497,10.065c0.151,5.392,4.659,9.649,10.058,9.49
		c5.399-0.151,9.655-4.652,9.497-10.051C479.05,258.509,474.542,254.259,469.143,254.41z"/>
	<path class="st0" d="M498.972,117.926c3.962-0.116,7.082-3.415,6.967-7.377c-0.116-3.954-3.415-7.074-7.377-6.959
		c-3.954,0.115-7.074,3.408-6.959,7.376C491.718,114.921,495.018,118.041,498.972,117.926z"/>
	<path class="st0" d="M498.972,155.138c3.962-0.115,7.082-3.407,6.967-7.376c-0.116-3.954-3.415-7.074-7.377-6.959
		c-3.954,0.115-7.074,3.408-6.959,7.376C491.718,152.133,495.018,155.253,498.972,155.138z"/>
	<path class="st0" d="M498.972,192.358c3.962-0.115,7.082-3.416,6.967-7.37c-0.116-3.962-3.415-7.082-7.377-6.967
		c-3.954,0.108-7.074,3.416-6.959,7.37C491.718,189.353,495.018,192.466,498.972,192.358z"/>
	<path class="st0" d="M498.972,229.578c3.962-0.116,7.082-3.415,6.967-7.377c-0.116-3.954-3.415-7.074-7.377-6.959
		c-3.954,0.108-7.074,3.408-6.959,7.369C491.718,226.573,495.018,229.686,498.972,229.578z"/>
	<path class="st0" d="M498.49,249.852c-5.399,0.151-9.648,4.652-9.497,10.051c0.151,5.399,4.659,9.655,10.058,9.504
		c5.399-0.158,9.649-4.659,9.498-10.065C508.391,253.95,503.889,249.694,498.49,249.852z"/>
	<path class="st0" d="M241.46,291.429h-44.014C226.793,324.809,241.46,291.429,241.46,291.429z"/>
	<path class="st0" d="M165.158,291.429h-34.236C153.749,324.809,165.158,291.429,165.158,291.429z"/>
	<path class="st0" d="M264.689,247.681c0,0-20.863,10.438-32.604,13.041c-17.829,3.969-31.497,9.483-32.604,16.954
		C213.824,276.381,258.175,276.381,264.689,247.681z"/>
	<path class="st0" d="M153.173,262.391c-7.743-2.157-21.518-10.762-21.518-10.762c4.3,23.675,33.575,23.675,43.044,24.746
		C173.965,270.205,164.95,265.655,153.173,262.391z"/>
	<path class="st0" d="M300.622,172.681H158.457c0,0-16.952,9.13-15.651,26.09c16.952-3.918,39.125,3.911,48.256,20.871
		c22.172-31.303,62.606-33.92,82.175-13.042c19.562,20.864,18.254,57.386,2.603,69.119c7.829,14.351,23.48,41.743,14.35,78.265
		c-9.13,36.516-39.125,46.948-45.653,46.948c-6.521,0-14.343-57.387-75.648-43.036c-41.734-13.042-57.386,6.52-59.996,23.473
		c-2.602,16.96,7.65,50.002,10.44,70.435c3.91,28.686-2.617,58.688,2.602,59.989c5.22,1.308,155.767-54.324,198.249-97.82
		c54.784-56.077,53.483-103.039,53.483-131.725C373.667,253.547,363.235,172.681,300.622,172.681z M159.759,443.975
		c0-11.74-31.302-30.002-33.912-43.043c18.26-11.734,30.002-32.605,36.522-35.214c0,0,10.439,1.308,19.562,11.74
		c9.131,10.432,15.652,30.002,45.653,30.002C227.584,410.062,184.541,434.844,159.759,443.975z M317.884,347.428
		c0,0,1.963-62.808,19.627-64.77C355.176,280.695,363.098,327.685,317.884,347.428z"/>
</g>
</svg>