<?xml version="1.0" encoding="utf-8"?>

<!DOCTYPE svg PUBLIC "-//W3C//DTD SVG 1.1//EN" "http://www.w3.org/Graphics/SVG/1.1/DTD/svg11.dtd">
<!-- Uploaded to: SVG Repo, www.svgrepo.com, Generator: SVG Repo Mixer Tools -->
<svg height="800px" width="800px" version="1.1" id="_x32_" xmlns="http://www.w3.org/2000/svg" xmlns:xlink="http://www.w3.org/1999/xlink" 
	 viewBox="0 0 512 512"  xml:space="preserve">
<style type="text/css">
	.st0{fill:#000000;}
</style>
<g>
	<path class="st0" d="M408.145,351.648c0.266-7.366,1.4-11.057,6.7-13.131c25.662-8.774,44.093-33.037,44.093-61.65
		c0-35.986-29.221-65.132-65.207-65.132c-35.911,0-65.132,29.146-65.132,65.132c0,28.612,18.43,52.875,44.093,61.65
		c5.29,2.074,6.432,5.765,6.64,13.131c-9.923,2.683-18.43,8.716-24.263,16.823c-0.267-0.2-0.533-0.334-0.8-0.542
		c-14.214-9.373-28.546-15.006-38.468-18.755c-7.374-2.75-15.207-6.299-20.439-9.99c-2.608-1.808-4.482-3.616-5.499-4.95
		c-1-1.408-1.066-2.083-1.066-2.416V304.68c4.624-5.232,10.182-11.732,15.415-20.105c5.49-8.707,10.314-19.564,13.331-32.57
		c1.683-0.867,3.416-1.799,5.032-2.941c5.158-3.558,9.44-8.649,12.931-15.348c3.549-6.7,6.633-15.074,9.849-26.472
		c1.675-5.891,2.483-11.057,2.483-15.814c0-5.424-1.083-10.315-3.291-14.34c-1.608-3.016-3.75-5.49-6.025-7.298
		c-2.082-1.675-4.158-2.75-6.165-3.558v-15.223h4.308V15.189C336.664,6.807,329.856,0,321.466,0H133.26
		c-8.39,0-15.189,6.807-15.189,15.189v135.822h4.349v15.223c-1.283,0.541-2.616,1.142-3.966,1.95
		c-3.008,1.874-6.166,4.883-8.299,8.906c-2.15,4.025-3.282,8.916-3.282,14.34c0,4.758,0.8,9.924,2.483,15.814
		c4.349,15.148,8.298,25.063,13.664,32.637c2.617,3.75,5.758,6.832,9.107,9.182c1.675,1.142,3.358,2.074,5.1,2.941
		c2.941,13.006,7.84,23.864,13.265,32.57c5.224,8.373,10.79,14.873,15.481,20.105v27.138c0,0.125-0.075,0.867-1.208,2.416
		c-1.683,2.208-5.632,5.424-10.382,8.107c-4.766,2.675-10.39,5.091-15.281,6.766c-13.464,4.824-34.578,13.064-52.809,29.345
		c-9.106,8.107-17.48,18.297-23.513,30.962c-6.1,12.598-9.782,27.671-9.715,45.094c0,3.616,0.133,7.307,0.466,11.123
		c0.266,3.016,1.408,5.291,2.616,7.174c2.267,3.35,5.091,5.624,8.508,7.899c5.899,3.89,13.74,7.507,23.655,11.123
		C118.12,502.418,166.914,512,227.346,512c49.118,0,90.595-6.358,120.357-14.406c14.931-4.025,26.863-8.441,35.644-12.931
		c0.334-0.2,0.601-0.334,0.934-0.533c4.024-2.15,7.308-4.292,10.19-6.7c1.541-1.341,2.875-2.825,4.158-4.624
		c0.466-0.741,0.932-1.474,1.266-2.341c3.483-0.275,6.832-0.95,10.048-2.016c18.031-5.7,31.096-22.589,31.096-42.552v-31.163
		C441.04,374.095,427.109,356.814,408.145,351.648z M155.732,242.956l-1.016-5.75l-5.5-1.974c-2.432-0.858-4.158-1.7-5.598-2.708
		c-2.133-1.508-4.1-3.525-6.641-8.24c-2.5-4.675-5.257-11.915-8.274-22.547c-1.291-4.491-1.724-7.908-1.716-10.298
		c0-2.792,0.533-4.158,0.899-4.874l0.867-1.075c0.467-0.383,1.208-0.717,1.983-0.9c0.684-0.166,1.267-0.191,1.367-0.191
		l10.382,0.649v-10.706c0,0,0-11.274,0-23.33h84.87h84.888c0,12.056,0,23.33,0,23.33v10.615l10.39-0.558
		c0.092,0,0.542,0.008,1.117,0.142c1.042,0.2,2.016,0.666,2.525,1.224c0.283,0.3,0.558,0.658,0.867,1.475
		c0.3,0.808,0.608,2.108,0.608,4.199c0.008,2.391-0.425,5.807-1.708,10.298c-4.024,14.198-7.633,22.28-10.657,26.446
		c-1.524,2.108-2.816,3.333-4.258,4.341c-1.458,1.008-3.166,1.85-5.607,2.708l-5.491,1.974l-1.025,5.75
		c-2.275,12.865-6.733,22.796-11.823,30.987c-5.108,8.182-10.857,14.556-15.915,20.156l-2.574,2.866v3.858
		c0,13.406,0,23.172,0,30.995c-0.008,5.55,2.166,10.499,4.991,14.307c0.767,1.008,1.616,1.908,2.449,2.824l-44.902,61.724
		l-48.718-66.924c2.041-3.382,3.525-7.391,3.532-11.932c0-7.824,0-17.589,0-30.995v-3.858l-2.583-2.866
		c-5.049-5.6-10.798-11.973-15.905-20.156C162.464,265.752,158.015,255.821,155.732,242.956z M170.313,356.006
		c1.75-1.217,3.399-2.533,4.999-3.942l49.293,67.707l-13.815,18.98l-54.508-74.922C161.064,361.647,165.881,359.08,170.313,356.006z
		 M212.724,491.694c-9.065-0.25-17.781-0.734-26.196-1.383l97.777-134.373c1.792,1.225,3.625,2.392,5.508,3.475
		c4.624,2.624,9.49,4.766,14.281,6.716L212.724,491.694z M356.078,276.868c0-20.838,16.89-37.728,37.652-37.728
		c20.847,0,37.728,16.89,37.728,37.728c0,20.839-16.881,37.727-37.728,37.727C372.967,314.595,356.078,297.706,356.078,276.868z
		 M420.943,425.896c0,6.832-2.75,12.931-7.174,17.422c-1.275,1.275-2.675,2.416-4.158,3.282c-2.409,1.608-5.091,2.75-8.041,3.35
		c-1.675,0.334-3.416,0.533-5.224,0.533h-5.166c-4.882,0-9.448-1.4-13.265-3.883c-1.474-0.866-2.883-2.008-4.149-3.282
		c-4.425-4.491-7.174-10.591-7.174-17.422v-31.163c0-5.158,1.541-9.915,4.224-13.798c0.867-1.341,1.875-2.549,2.95-3.624
		c1.608-1.607,3.416-3.016,5.424-4.082c3.558-2.016,7.641-3.083,11.99-3.149h5.166c4.35,0.066,8.448,1.133,11.922,3.149
		c2.017,1.066,3.892,2.475,5.5,4.082c4.424,4.491,7.174,10.59,7.174,17.422V425.896z"/>
</g>
</svg>