<?xml version="1.0" encoding="utf-8"?>

<!DOCTYPE svg PUBLIC "-//W3C//DTD SVG 1.1//EN" "http://www.w3.org/Graphics/SVG/1.1/DTD/svg11.dtd">
<!-- Uploaded to: SVG Repo, www.svgrepo.com, Generator: SVG Repo Mixer Tools -->
<svg height="800px" width="800px" version="1.1" id="_x32_" xmlns="http://www.w3.org/2000/svg" xmlns:xlink="http://www.w3.org/1999/xlink" 
	 viewBox="0 0 512 512"  xml:space="preserve">
<style type="text/css">
	.st0{fill:#000000;}
</style>
<g>
	<path class="st0" d="M242.35,164.396c45.406,0,82.195-36.814,82.195-82.188C324.544,36.783,287.755,0,242.35,0
		c-45.418,0-82.207,36.783-82.207,82.208C160.142,127.581,196.932,164.396,242.35,164.396z"/>
	<path class="st0" d="M175.074,400.025c-6.328,6.346-10.216,15.025-10.229,24.691c0.013,9.666,3.902,18.344,10.229,24.684
		c6.177,6.165,14.593,9.992,23.96,10.191l24.309-69.79h-23.584C190.104,389.808,181.413,393.697,175.074,400.025z"/>
	<path class="st0" d="M425.271,435.738l-7.203-43.029l-19.495-116.376c-12.705-35.227-31.888-65.964-70.79-71.928v170.848h18.908
		v14.549h-18.908v84.371h-133.84l0.125-0.35c-24.635-2.832-43.754-23.715-43.767-49.106c0.013-27.323,22.146-49.457,49.457-49.463
		h28.648l59.911-171.917H169.459c-39.865,0-83.183,43.323-83.183,83.182V512h249.248v-37.827h57.21
		c9.704,0,18.907-4.27,25.185-11.674C424.183,455.096,426.872,445.305,425.271,435.738z"/>
</g>
</svg>