<?xml version="1.0" encoding="utf-8"?>

<!DOCTYPE svg PUBLIC "-//W3C//DTD SVG 1.1//EN" "http://www.w3.org/Graphics/SVG/1.1/DTD/svg11.dtd">
<!-- Uploaded to: SVG Repo, www.svgrepo.com, Generator: SVG Repo Mixer Tools -->
<svg height="800px" width="800px" version="1.1" id="_x32_" xmlns="http://www.w3.org/2000/svg" xmlns:xlink="http://www.w3.org/1999/xlink" 
	 viewBox="0 0 512 512"  xml:space="preserve">
<style type="text/css">
	.st0{fill:#000000;}
</style>
<g>
	<path class="st0" d="M417.307,437.372c-2.793-7.654-6.743-14.159-11.396-19.56c-4.112-4.799-8.758-8.904-13.665-12.354
		c-8.602-6.057-18.101-10.408-27.352-14.112c-7.014-2.746-13.866-5.2-20.208-7.546c-4.807-1.851-9.259-3.658-13.264-5.602
		c-2.546-1.25-4.846-2.5-6.952-3.904l-0.046-0.046c0.146-1.103,0.208-2.152,0.208-3.256c0-11.959-8.619-22.854-13.51-25.709
		c0.092-2.546,0.4-3.65,0.794-4.799c0.402-1.103,0.903-2.299,1.45-5c3.85-4.352,7.354-9.46,10.656-15.655
		c3.302-6.212,6.45-13.357,9.606-21.914c1.998-1.002,4.043-2.052,6.049-3.348c4.499-3.102,8.811-7.307,12.407-13.009
		c3.549-5.648,6.404-12.6,8.41-21.304c0.494-2.353,0.74-4.807,0.74-7.106c0-4.954-1.142-9.598-3.101-13.804
		c-1.35-2.902-3.048-5.602-5.054-8.055c1.057-3.75,2.26-8.804,3.356-14.753c0.193-1.049,0.401-2.106,0.547-3.202l0.047-0.4v-7.153
		c0-12.153-1.096-8.118-2.592-27.314l-0.108-0.255c-0.146-2.353-0.34-4.807-0.548-7.245c-0.448-5.756-0.949-11.612-1.443-17.454
		c27.854-6.257,48.71-31.172,48.71-60.986c0-34.513-28.001-62.522-62.522-62.522c-8.804,0-17.206,1.806-24.806,5.1
		C302.912,14.243,281.115,0,255.992,0c-25.107,0-46.92,14.243-57.768,35.107c-7.6-3.295-15.949-5.1-24.76-5.1
		c-34.559,0-62.522,28.008-62.522,62.522c0,29.814,20.802,54.729,48.718,60.986v0.147c-0.193,2.346-0.4,4.699-0.601,7.044
		c-1.852,21.767-3.249,20.671-3.45,34.976v2.939l0.054,1.805v3.157l0.046,2.244h0.996c0.354,2.099,0.71,4.051,1.057,5.903
		c0,0.502,0,0.857,0.047,1.258l0.054,0.347c0,0.756,0.047,1.551,0.147,2.3c0.154,1.404,0.3,2.7,0.447,3.95
		c0.062,0.501,0.108,1.056,0.154,1.458v1.443l1.643,7.307c-2.345,2.546-4.398,5.456-6.002,8.704
		c-2.192,4.398-3.495,9.406-3.495,14.652c0,2.299,0.254,4.753,0.802,7.106c1.296,5.802,3.002,10.802,5.054,15.208
		c3.094,6.643,6.998,11.798,11.304,15.602c3.349,3.002,6.898,5.2,10.447,6.852c3.156,8.557,6.304,15.702,9.614,21.914
		c3.295,6.195,6.805,11.303,10.648,15.655c1.049,5.2,1.998,4.753,2.252,9.151v0.047c-4.845,1.203-17.159,15.555-14.652,30.215
		c0,0.108,0.047,0.154,0.047,0.254c-3.349,1.991-7.299,3.897-11.651,5.748c-7.862,3.349-17.013,6.404-26.311,10
		c-7.014,2.708-14.112,5.856-20.917,9.652c-5.093,2.901-10,6.366-14.552,10.363c-6.798,6.049-12.701,13.548-16.752,22.954
		c-4.105,9.406-6.404,20.609-6.404,33.966c0,1.798,0.402,3.502,1.049,5.2c0.602,1.451,1.397,2.908,2.354,4.151
		c1.797,2.5,4.15,4.652,6.998,6.752c5,3.695,11.658,7.206,20.308,10.501c12.908,4.861,30.262,9.212,52.622,12.36
		c22.406,3.256,49.867,5.2,82.976,5.2c28.719,0,53.17-1.451,73.732-3.95c15.455-1.898,28.765-4.252,40.015-7.06
		c8.456-2.053,15.763-4.244,22.06-6.698c4.707-1.697,8.85-3.596,12.407-5.502c2.7-1.451,5.108-2.894,7.206-4.452
		c3.148-2.307,5.694-4.652,7.6-7.299c0.996-1.304,1.798-2.746,2.354-4.352c0.594-1.504,0.949-3.209,0.949-4.853
		C422.315,456.13,420.518,445.976,417.307,437.372z M104.237,468.93c-0.348-0.501-0.54-0.849-0.602-1.042l-0.046-0.154
		c0-10.308,1.496-18.657,4.104-25.563c2.246-6.103,5.301-11.096,8.95-15.409c3.248-3.796,6.952-7.098,11.103-10
		c7.207-5.1,15.655-8.997,24.513-12.507c6.597-2.647,13.402-5,20.007-7.5c4.946-1.899,9.8-3.85,14.406-6.104
		c1.451-0.702,2.847-1.404,4.244-2.207c5.455,9.807,14.267,16.019,23.117,19.969l-33.116,22.554v62.922
		c-13.711-1.752-25.409-3.95-35.362-6.303c-8.002-1.945-14.807-4.051-20.455-6.25c-4.205-1.605-7.854-3.194-10.81-4.8
		c-2.245-1.204-4.097-2.345-5.601-3.449C106.389,471.484,104.94,469.98,104.237,468.93z M173.464,45.014
		c4.552,0,8.958,0.649,13.155,1.798c2.161,0.656,4.252,1.458,6.304,2.353c-0.949,3.704-1.551,7.554-1.752,11.45
		c3.549-1.396,8.102-2.693,13.611-3.796c0.648-0.201,1.296-0.309,1.944-0.402c0.802-4.899,2.345-9.506,4.506-13.757
		c0.293-0.649,0.648-1.304,1.003-1.952c2.292-4.051,5.1-7.747,8.402-11.057c9.051-9.05,21.504-14.652,35.354-14.652
		c13.819,0,26.265,5.602,35.37,14.652c3.256,3.31,6.096,7.006,8.356,11.057c0.355,0.648,0.694,1.304,1.049,1.998
		c2.145,4.251,3.65,8.812,4.506,13.657c0.694,0.147,1.342,0.255,1.991,0.401c2.808,0.548,5.308,1.204,7.608,1.852
		c2.199,0.656,4.205,1.304,5.949,1.998c-0.201-3.896-0.795-7.746-1.744-11.45c1.998-0.895,4.097-1.697,6.25-2.353
		c4.205-1.15,8.649-1.798,13.202-1.798c13.155,0,24.953,5.301,33.618,13.904c8.595,8.649,13.904,20.462,13.904,33.61
		c0,13.155-5.309,24.961-13.904,33.618c-5.81,5.748-13.063,10.061-21.165,12.298c-3.95,1.057-8.148,1.605-12.454,1.605
		c-0.648,0-1.296,0-1.952-0.054c0.456,5.008,4.907,43.826,5.054,46.226c0,0.609,0,1.852,0.054,3.403c0,0.902,0.046,1.805,0.046,2.7
		c0,1.25,0,2.453,0.046,3.502H190.624h-20.308c0.054-0.756,0.054-2.6,0.054-4.498c0.046-1.458,4.498-45.176,4.891-49.629
		c0.055-0.555,0.101-1.15,0.163-1.705c-0.656,0.054-1.312,0.054-1.96,0.054c-0.447,0-0.895,0-1.35-0.054
		c-1.15,0-2.246-0.046-3.348-0.193c-2.655-0.254-5.255-0.702-7.755-1.358c-8.094-2.238-15.354-6.504-21.157-12.298
		c-8.603-8.657-13.904-20.463-13.904-33.618c0-13.148,5.301-24.961,13.904-33.61C148.457,50.314,160.308,45.014,173.464,45.014z
		 M166.658,244.646c1.103-2.199,2.654-4.352,4.56-6.304c3.194,4.853,5.795,8.703,6.798,9.606c3.102,3.148,3.557-4.205,2.052-12.454
		c-1.15-6.504,1.196-13.503,4.444-22.16c0.911-2.345,1.86-4.845,2.809-7.508h138.7c1.103,2.408,2.099,4.954,3.01,7.508
		c5.848,16.057,9.043,33.556,9.043,33.556s1.604-3.047,4.012-7.098c1.443,1.651,2.647,3.502,3.496,5.408
		c1.203,2.539,1.797,5.2,1.797,7.948c0,1.25-0.146,2.701-0.447,4.105c-1.104,4.854-2.5,9.005-4.097,12.353
		c-2.353,5.054-5.1,8.549-7.955,11.103c-2.894,2.6-5.957,4.305-9.105,5.401l-3.048,1.15l-1.103,3.055
		c-3.349,9.352-6.551,16.96-9.8,23.009c-3.256,6.057-6.504,10.555-9.86,14.158l-1.35,1.297l-0.394,1.906
		c-1.559,7.145-3.002,7.098-3.002,16.851c0,2.955,0.146,6.049,0.447,9.151c0.402,3.758,1.25,7.206,2.6,10.454
		c0.348,0.85,0.741,1.652,1.204,2.454c-6.96,9.806-18.812,15.702-32.059,18.054c-0.911-3.202-3.866-5.547-7.307-5.547h-13.611
		c-3.496,0-6.404,2.346-7.354,5.547c-12.708-2.307-24.158-7.801-31.21-16.952l0.648-1.057c1.96-3.804,3.256-8.248,3.75-12.954
		c0.308-3.102,0.455-6.196,0.455-9.151c0-9.753-1.443-9.706-3.002-16.851l-0.402-1.906l-1.35-1.405
		c-3.349-3.549-6.605-8.102-9.853-14.05c-3.202-6.049-6.45-13.657-9.807-23.009l-1.05-3.055l-3.094-1.15
		c-2.114-0.803-4.158-1.744-6.157-3.102c-2.947-1.998-5.802-4.692-8.402-8.804c-2.6-4.151-4.954-9.598-6.605-16.952
		c-0.293-1.404-0.447-2.801-0.447-4.105C164.614,250.194,165.308,247.354,166.658,244.646z M185.925,433.615l33.71-22.955
		c12.106,4.251,22.761,4.607,22.761,4.607l-7.06,60.369h39.868l-7.044-60.369c0,0,37.916-1.25,51.804-27.468l0.062,0.054
		c3.804,2.199,7.801,4.051,11.998,5.802c8.557,3.604,17.708,6.651,26.612,10.154c6.659,2.6,13.156,5.455,19.058,8.803
		c4.452,2.547,8.611,5.401,12.261,8.657c5.494,4.9,10,10.702,13.256,18.156c3.249,7.446,5.2,16.604,5.2,28.309l-0.355,0.748
		c-0.447,0.803-1.551,2.098-3.348,3.549c-1.605,1.304-3.758,2.747-6.458,4.206c-4.745,2.6-11.149,5.3-19.305,7.846
		c-12.252,3.866-28.41,7.415-48.772,9.962c-20.354,2.546-44.96,4.097-74.18,4.097c-27.306,0-50.515-1.35-70.067-3.65V433.615z"/>
	<circle class="st0" cx="202.977" cy="442.48" r="5.1"/>
	<path class="st0" d="M202.977,476.5c-2.816,0-5.101,2.268-5.101,5.1c0,2.816,2.284,5.1,5.101,5.1c2.816,0,5.107-2.284,5.107-5.1
		C208.084,478.768,205.793,476.5,202.977,476.5z"/>
	<path class="st0" d="M310.127,447.58c2.816,0,5.108-2.284,5.108-5.1c0-2.817-2.292-5.1-5.108-5.1c-2.809,0-5.1,2.283-5.1,5.1
		C305.027,445.296,307.318,447.58,310.127,447.58z"/>
	<path class="st0" d="M310.127,486.7c2.816,0,5.108-2.284,5.108-5.1c0-2.832-2.292-5.1-5.108-5.1c-2.809,0-5.1,2.268-5.1,5.1
		C305.027,484.416,307.318,486.7,310.127,486.7z"/>
</g>
</svg>