<?xml version="1.0" encoding="utf-8"?>

<!DOCTYPE svg PUBLIC "-//W3C//DTD SVG 1.1//EN" "http://www.w3.org/Graphics/SVG/1.1/DTD/svg11.dtd">
<!-- Uploaded to: SVG Repo, www.svgrepo.com, Generator: SVG Repo Mixer Tools -->
<svg height="800px" width="800px" version="1.1" id="_x32_" xmlns="http://www.w3.org/2000/svg" xmlns:xlink="http://www.w3.org/1999/xlink" 
	 viewBox="0 0 512 512"  xml:space="preserve">
<style type="text/css">
	.st0{fill:#000000;}
</style>
<g>
	<path class="st0" d="M427.993,410.48c-11.616-17.402-29.26-27.022-45.835-33.266c-8.317-3.134-16.449-5.436-23.608-7.394
		c-7.147-1.946-13.364-3.586-17.542-5.157c-7.299-2.721-15.025-6.23-20.41-10.02c-2.696-1.869-4.768-3.802-5.964-5.455
		c-1.221-1.679-1.552-2.849-1.552-3.859c0-7.026,0-15.819,0-27.378c9.346-10.396,22.774-26.52,28.287-52.067
		c1.926-0.871,3.834-1.85,5.672-3.128c4.572-3.153,8.45-7.737,11.737-13.969c3.312-6.256,6.237-14.254,9.365-25.197
		c1.583-5.544,2.314-10.364,2.321-14.661c0.006-4.947-1.018-9.239-2.887-12.723c-2.804-5.284-7.35-8.221-11.031-9.556
		c-0.407-0.152-0.763-0.229-1.151-0.356c0-0.795,0-1.666,0-2.582c15.062-8.119,27.88-19.278,36.623-34.575
		c9.2-16.099-4.222-28.916-19.933-29.101c-15.666-0.185-33.622,12.246-33.622,12.246l6.193-103.173
		c0.477-8.068-5.258-15.177-13.256-16.397c0,0-15.387-12.71-76.495-12.71c-61.108,0-76.494,12.71-76.494,12.71
		c-7.998,1.22-13.733,8.329-13.256,16.397l6.193,103.173c0,0-17.955-12.43-33.622-12.246c-15.711,0.184-29.132,13.002-19.932,29.101
		c8.628,15.094,22.438,26.151,38.803,34.244c0,1.043,0,2.035,0,2.938c-1.576,0.496-3.242,1.145-5.022,2.226
		c-2.632,1.628-5.303,4.171-7.153,7.662c-1.869,3.484-2.893,7.776-2.88,12.723c0,4.298,0.731,9.118,2.314,14.661
		c4.184,14.573,7.961,23.983,12.856,30.888c2.442,3.426,5.22,6.18,8.247,8.278c1.837,1.278,3.745,2.257,5.665,3.128
		c5.519,25.547,18.948,41.671,28.294,52.067c0,11.566,0,20.352,0,27.378c0.006,0.858-0.343,2.111-1.678,3.891
		c-1.964,2.646-6.04,5.844-10.872,8.565c-4.832,2.746-10.382,5.125-15.247,6.828c-5.697,2.022-14.884,4.132-25.178,7.083
		c-15.47,4.47-33.749,10.911-48.633,23.671c-7.42,6.377-13.943,14.389-18.534,24.346c-4.591,9.957-7.223,21.776-7.21,35.618
		c0,3.205,0.14,6.523,0.419,9.957c0.216,2.416,1.132,4.368,2.2,5.976c2.06,3.014,4.769,5.246,8.177,7.541
		c5.952,3.942,14.204,7.795,24.772,11.578C138.756,501.662,191.122,511.98,256,512c52.715-0.006,97.21-6.848,128.968-15.438
		c15.889-4.305,28.574-9.022,37.742-13.734c4.591-2.372,8.304-4.718,11.247-7.286c1.475-1.298,2.766-2.658,3.853-4.28
		c1.075-1.608,1.99-3.56,2.2-5.976c0.287-3.434,0.426-6.74,0.426-9.938C440.461,436.904,435.725,422.039,427.993,410.48z
		 M257.132,497.662c-0.381,0-0.75,0.013-1.132,0.013c-0.585,0-1.138-0.026-1.717-0.026l-64.356-125.586
		c3.154-1.614,6.269-3.363,9.155-5.366c3.618-2.531,6.931-5.366,9.563-8.819c2.6-3.414,4.596-7.674,4.603-12.551
		c0-7.598,0-17.097,0-30.112v-2.753l-1.844-2.041c-9.766-10.879-22.991-25.312-27.575-50.979l-0.719-4.101l-3.923-1.399
		c-2.492-0.89-4.393-1.799-6.046-2.95c-2.455-1.729-4.68-4.088-7.268-8.92c-2.562-4.814-5.277-11.992-8.246-22.413
		c-1.297-4.552-1.767-8.1-1.767-10.732c0.012-3.052,0.591-4.832,1.196-5.964c0.902-1.64,2.003-2.34,3.408-2.9
		c1.195-0.458,2.435-0.566,2.861-0.578l3.802,0.477c1.106,6.002,4.743,22.387,12.634,30.277c-1.444-12.932,2.352-27.734,5.08-36.286
		c24.739,6.835,51.736,9.188,75.045,9.188c22.775,0,47.012-2.238,69.03-8.711c2.721,8.616,6.345,23.112,4.934,35.809
		c8.056-8.056,11.674-24.936,12.697-30.614l1.997-0.146c0.356-0.026,2.753,0.191,4.304,1.227c0.82,0.522,1.488,1.132,2.105,2.257
		c0.598,1.132,1.182,2.912,1.189,5.964c0,2.632-0.464,6.173-1.768,10.732c-3.949,13.912-7.49,21.999-10.739,26.488
		c-1.628,2.263-3.115,3.688-4.768,4.844c-1.66,1.151-3.561,2.06-6.053,2.95l-3.917,1.399l-0.731,4.101
		c-4.578,25.667-17.803,40.1-27.569,50.979l-1.844,2.041v2.753c0,13.022,0,22.514,0,30.112c0,4.724,1.831,8.965,4.349,12.354
		c3.802,5.112,9.098,8.895,14.859,12.195c1.189,0.674,2.46,1.227,3.694,1.856L257.132,497.662z"/>
	<polygon class="st0" points="215.302,365.884 215.302,407.663 256.267,392.467 297.232,407.663 297.232,365.884 256.267,379.446 	
		"/>
</g>
</svg>