<?xml version="1.0" encoding="utf-8"?>

<!DOCTYPE svg PUBLIC "-//W3C//DTD SVG 1.1//EN" "http://www.w3.org/Graphics/SVG/1.1/DTD/svg11.dtd">
<!-- Uploaded to: SVG Repo, www.svgrepo.com, Generator: SVG Repo Mixer Tools -->
<svg height="800px" width="800px" version="1.1" id="_x32_" xmlns="http://www.w3.org/2000/svg" xmlns:xlink="http://www.w3.org/1999/xlink" 
	 viewBox="0 0 512 512"  xml:space="preserve">
<style type="text/css">
	.st0{fill:#000000;}
</style>
<g>
	<path class="st0" d="M412.693,416.07c-4.614-8.023-10.599-14.401-17.086-19.393c-9.764-7.504-20.544-12.04-30.41-15.426
		c-9.851-3.354-18.945-5.654-24.945-7.921c-2.418-0.89-5.496-2.646-8.528-4.969c-4.583-3.464-9.102-8.22-12.157-12.622
		c-1.535-2.196-2.708-4.307-3.394-5.976c-0.716-1.654-0.874-2.858-0.842-2.961c0-6.512,0-14.622,0-25.094
		c1.78-1.74,3.968-3.803,6.449-6.173c6-5.74,13.441-13.126,20.055-22.512c5.638-8,10.559-17.63,13.418-28.772
		c1.976-1.008,3.882-2.189,5.677-3.661c2.551-2.079,4.74-4.638,6.52-7.441c2.677-4.228,4.559-8.914,6.512-14.654
		c1.937-5.748,3.913-12.622,6.401-21.322c0.221-0.772,0.299-1.434,0.489-2.189h20.322C401.173,137.968,404.236,0,256.008,0
		S110.843,137.968,110.843,214.984h20.315c0.189,0.756,0.268,1.418,0.488,2.189c4.466,15.48,7.095,25.134,11.245,33.078
		c2.07,3.952,4.772,7.551,8.189,10.338c1.756,1.441,3.614,2.607,5.535,3.606c3.969,15.551,12.166,27.953,20.37,37.551
		c4.606,5.394,9.252,9.961,13.252,13.788c2.472,2.37,4.661,4.433,6.44,6.173c0,10.472,0,18.583,0,25.094l-0.039,0.339
		c-0.126,0.914-1.008,3.291-2.646,5.945c-2.425,4.016-6.394,8.748-10.614,12.559c-4.166,3.834-8.772,6.74-11.425,7.614
		c-5.449,1.937-13.316,3.936-21.922,6.692c-12.889,4.173-27.834,10.11-39.984,22.064c-6.054,5.953-11.291,13.448-14.874,22.535
		c-3.606,9.086-5.583,19.701-5.583,31.937c0.008,3.378,0.15,6.89,0.457,10.536v-0.008c0.275,3.071,1.425,5.449,2.637,7.284
		c2.354,3.417,5.118,5.598,8.378,7.818c5.7,3.764,13.197,7.229,22.7,10.638c28.394,10.118,74.756,19.212,132.244,19.244
		c46.685-0.008,86.118-6.055,114.433-13.709c14.18-3.85,25.551-8.055,34-12.394c4.236-2.204,7.756-4.386,10.755-6.992
		c1.488-1.323,2.883-2.764,4.127-4.606c1.213-1.834,2.362-4.212,2.638-7.284c0.299-3.63,0.449-7.126,0.449-10.496
		C422.433,440.205,418.866,426.764,412.693,416.07z M187.496,280.819c-5.315-7.543-9.535-16.078-11.283-26.024l-1.079-6.063
		l-5.795-2.079c-2.584-0.921-3.898-1.685-4.82-2.44c-0.692-0.575-1.292-1.221-2.086-2.457c-1.181-1.811-2.646-5.04-4.315-10.039
		c-1.442-4.252-3.079-9.835-5.055-16.732h25.551c0-31.213,0-58.772,0-58.772h154.788c0,0,0,27.559,0,58.772h25.552
		c-3.772,13.213-6.371,21.362-8.552,25.354c-1.181,2.197-2,3.111-2.913,3.874c-0.922,0.756-2.237,1.52-4.819,2.44l-5.803,2.079
		l-1.07,6.063c-2.323,13.228-9.094,24.079-16.874,33.189c-3.882,4.543-7.969,8.598-11.787,12.244
		c-3.819,3.661-7.308,6.827-10.276,10.103l-2.716,3.024v4.063c0,12.709,0,21.976,0,29.385c0.032,3.04,0.622,5.788,1.488,8.41
		l-39.622,21.614l-39.662-21.63c0.882-2.59,1.496-5.322,1.52-8.394c0-7.409,0-16.676,0-29.385v-4.063l-2.716-3.024
		c-2.969-3.276-6.457-6.442-10.275-10.103C199.158,294.764,192.795,288.362,187.496,280.819z M311.622,378.866
		c-5.433,6.961-10.432,11.63-14.74,14.409c-4.929,3.15-8.898,4.118-12.339,4.134c-3.126,0-5.968-0.843-8.677-2.26
		c-3.748-1.945-7.063-5.071-9.472-7.898l35.78-19.512C304.882,371.646,308.071,375.386,311.622,378.866z M245.622,387.252
		c-0.78,0.929-1.646,1.882-2.614,2.81c-2.055,2-4.496,3.89-7.118,5.221c-2.638,1.33-5.394,2.126-8.433,2.126
		c-3.433-0.016-7.402-0.984-12.331-4.134c-4.339-2.795-9.37-7.512-14.835-14.535c3.339-3.315,6.441-6.866,9.11-10.575
		c0.11-0.157,0.205-0.331,0.322-0.496L245.622,387.252z M400.937,463.212c-2.095,1.803-7.78,5.024-15.85,8.118
		c-12.19,4.748-29.992,9.67-51.922,13.338c-21.945,3.686-48.063,6.142-77.157,6.142c-44.835,0.007-82.638-5.858-108.898-12.976
		c-13.11-3.536-23.378-7.433-29.843-10.78c-2.984-1.528-5.109-2.945-6.196-3.858c-0.15-2.3-0.291-4.599-0.284-6.709
		c0.008-13.346,2.78-22.78,6.882-29.976c3.094-5.409,7.023-9.654,11.646-13.26c6.921-5.393,15.488-9.188,24.275-12.165
		c8.795-3,17.63-5.118,25.402-7.834c3.701-1.331,7.086-3.324,10.386-5.56c6.134,7.835,12.134,13.598,18.094,17.449
		c6.804,4.402,13.654,6.401,19.985,6.386c5.763,0.007,10.928-1.607,15.236-3.866c5.811-3.063,10.126-7.189,13.299-10.835
		c0.811,0.929,1.67,1.874,2.638,2.85c2.827,2.819,6.362,5.725,10.685,7.985c4.306,2.259,9.472,3.874,15.228,3.866
		c6.331,0.015,13.189-1.984,19.992-6.386c5.938-3.835,11.914-9.56,18.016-17.339c3.244,2.158,6.67,4,10.276,5.378
		c6.961,2.575,14.716,4.567,22.566,7.134c11.788,3.803,23.434,8.827,31.67,16.953c4.142,4.086,7.559,8.913,10.071,15.181
		c2.496,6.276,4.094,14.079,4.094,24.07C401.228,458.622,401.079,460.914,400.937,463.212z"/>
	<path class="st0" d="M219.52,218.922c5.527,0,10.008-4.481,10.008-10.008c0-5.52-4.48-10-10.008-10c-5.52,0-10.008,4.481-10.008,10
		C209.512,214.441,214,218.922,219.52,218.922z"/>
	<path class="st0" d="M292.496,218.922c5.519,0,10.008-4.481,10.008-10.008c0-5.52-4.488-10-10.008-10
		c-5.528,0-10.008,4.481-10.008,10C282.488,214.441,286.968,218.922,292.496,218.922z"/>
	<path class="st0" d="M256,419.008c-5.52,0-10,4.48-10,10.008c0,5.52,4.48,10.008,10,10.008c5.527,0,10.008-4.488,10.008-10.008
		C266.008,423.488,261.527,419.008,256,419.008z"/>
	<path class="st0" d="M256,457.26c-5.52,0-10,4.489-10,10.008c0,5.528,4.48,10.009,10,10.009c5.527,0,10.008-4.481,10.008-10.009
		C266.008,461.748,261.527,457.26,256,457.26z"/>
	<path class="st0" d="M241.882,276.59h28.244c2.606,0,4.716-2.11,4.716-4.709c0-2.598-2.11-4.709-4.716-4.709h-28.244
		c-2.598,0-4.709,2.111-4.709,4.709C237.173,274.48,239.284,276.59,241.882,276.59z"/>
</g>
</svg>