<?xml version="1.0" encoding="utf-8"?>

<!DOCTYPE svg PUBLIC "-//W3C//DTD SVG 1.1//EN" "http://www.w3.org/Graphics/SVG/1.1/DTD/svg11.dtd">
<!-- Uploaded to: SVG Repo, www.svgrepo.com, Generator: SVG Repo Mixer Tools -->
<svg height="800px" width="800px" version="1.1" id="_x32_" xmlns="http://www.w3.org/2000/svg" xmlns:xlink="http://www.w3.org/1999/xlink" 
	 viewBox="0 0 512 512"  xml:space="preserve">
<style type="text/css">
	.st0{fill:#000000;}
</style>
<g>
	<path class="st0" d="M321.767,315.536c6-5.74,13.441-13.126,20.055-22.512c2.567-3.646,4.937-7.709,7.111-11.992
		c10.165,11.055,24.929,17.236,43.18,17.236c26.008,0,54.89-31.788,57.788-54.906c-19.023,9.11-48.74,9.181-48.74-28.378
		C401.161,137.968,404.224,0,255.996,0C107.768,0,110.83,137.968,110.83,214.984c0,37.559-29.716,37.488-48.732,28.378
		c2.89,23.118,31.771,54.906,57.779,54.906c18.228,0,32.976-6.158,43.134-17.182c4.032,7.96,8.984,14.842,13.968,20.662
		c4.606,5.394,9.244,9.961,13.236,13.788c2.488,2.37,4.677,4.433,6.457,6.181c0,10.464,0,18.574,0,25.086l-0.04,0.339
		c-0.134,0.914-1.008,3.291-2.654,5.945c-2.425,4.016-6.386,8.748-10.606,12.559c-4.165,3.834-8.78,6.74-11.433,7.614
		c-5.449,1.937-13.307,3.936-21.914,6.692c-12.898,4.173-27.834,10.11-39.984,22.064c-6.064,5.953-11.284,13.448-14.883,22.535
		c-3.606,9.086-5.575,19.701-5.575,31.937c0,3.378,0.15,6.89,0.457,10.536v-0.008c0.276,3.071,1.425,5.449,2.638,7.284
		c2.354,3.417,5.11,5.598,8.37,7.818c5.709,3.764,13.197,7.229,22.709,10.638c28.394,10.118,74.756,19.212,132.236,19.244
		c46.693-0.008,86.118-6.055,114.433-13.709c14.182-3.85,25.551-8.055,34-12.394c4.244-2.204,7.764-4.386,10.756-6.992
		c1.496-1.323,2.89-2.764,4.134-4.606c1.213-1.834,2.362-4.212,2.638-7.284c0.299-3.63,0.449-7.126,0.449-10.496
		c0.023-16.314-3.544-29.756-9.717-40.449c-4.606-8.023-10.598-14.401-17.094-19.393c-9.756-7.504-20.544-12.04-30.402-15.426
		c-9.85-3.354-18.945-5.654-24.945-7.921c-2.424-0.89-5.496-2.646-8.536-4.969c-4.574-3.464-9.094-8.22-12.149-12.622
		c-1.535-2.196-2.708-4.307-3.402-5.976c-0.716-1.654-0.866-2.858-0.843-2.961c0-6.512,0-14.622,0-25.094
		C317.098,319.968,319.295,317.905,321.767,315.536z M322.539,387.803c3.253,2.158,6.67,4,10.284,5.378
		c6.953,2.575,14.716,4.567,22.56,7.134c11.795,3.803,23.432,8.827,31.669,16.953c4.15,4.086,7.567,8.913,10.079,15.181
		c2.496,6.276,4.079,14.079,4.087,24.07c0,2.103-0.142,4.394-0.292,6.693c-2.094,1.803-7.771,5.024-15.842,8.118
		c-12.197,4.748-29.992,9.67-51.93,13.338c-21.944,3.686-48.054,6.142-77.157,6.142c-44.834,0.007-82.629-5.858-108.897-12.976
		c-13.11-3.536-23.371-7.433-29.835-10.78c-2.992-1.528-5.11-2.945-6.197-3.858c-0.15-2.3-0.299-4.599-0.299-6.709
		c0.024-13.346,2.796-22.78,6.89-29.976c3.102-5.409,7.032-9.654,11.653-13.26c6.913-5.393,15.488-9.188,24.275-12.165
		c8.788-3,17.622-5.118,25.402-7.834c3.701-1.331,7.094-3.324,10.386-5.56c6.126,7.835,12.126,13.598,18.095,17.449
		c6.795,4.402,13.653,6.401,19.984,6.386c5.755,0.007,10.921-1.607,15.236-3.866c5.796-3.063,10.126-7.189,13.292-10.835
		c0.81,0.929,1.669,1.882,2.638,2.85c2.842,2.819,6.37,5.725,10.693,7.985c4.307,2.259,9.472,3.874,15.228,3.866
		c6.33,0.015,13.189-1.984,19.984-6.386C310.468,401.307,316.437,395.582,322.539,387.803z M200.28,378.74
		c3.346-3.315,6.449-6.866,9.11-10.575c0.119-0.157,0.205-0.331,0.324-0.496l35.905,19.591c-0.78,0.921-1.638,1.874-2.614,2.802
		c-2.064,2-4.504,3.89-7.126,5.221c-2.63,1.33-5.394,2.126-8.425,2.126c-3.433-0.016-7.41-0.984-12.331-4.134
		C210.783,390.48,205.752,385.763,200.28,378.74z M266.382,387.252l35.78-19.512c2.716,3.906,5.905,7.646,9.449,11.126
		c-5.426,6.961-10.426,11.63-14.733,14.409c-4.929,3.15-8.898,4.118-12.338,4.134c-3.126,0-5.969-0.843-8.678-2.26
		C272.106,393.205,268.799,390.079,266.382,387.252z M307.13,300.228c-3.818,3.661-7.315,6.827-10.276,10.103l-2.716,3.024v4.063
		c0,12.709,0,21.976,0,29.385c0.032,3.04,0.622,5.788,1.489,8.41l-39.631,21.622l-39.661-21.638c0.889-2.59,1.496-5.322,1.527-8.394
		c0-7.409,0-16.676,0-29.385v-4.063l-2.716-3.024c-2.969-3.276-6.457-6.442-10.276-10.103c-5.717-5.464-12.079-11.866-17.386-19.409
		c-5.212-7.401-9.33-15.779-11.149-25.488c1.488-6.087,2.268-12.732,2.268-19.858c0-38.527,0-79.26,0-79.26h154.787
		c0,0,0,40.733,0,79.26c0,7.142,0.78,13.788,2.276,19.89c-2.418,12.96-9.079,23.645-16.749,32.622
		C315.036,292.528,310.941,296.583,307.13,300.228z"/>
	<path class="st0" d="M219.516,198.913c-5.527,0-10.008,4.481-10.008,10c0,5.527,4.48,10.008,10.008,10.008
		c5.52,0,10.008-4.481,10.008-10.008C229.523,203.394,225.036,198.913,219.516,198.913z"/>
	<path class="st0" d="M292.484,198.913c-5.52,0-10,4.481-10,10c0,5.527,4.48,10.008,10,10.008c5.528,0,10.008-4.481,10.008-10.008
		C302.492,203.394,298.012,198.913,292.484,198.913z"/>
	<path class="st0" d="M255.988,419.008c-5.512,0-10,4.48-10,10.008c0,5.52,4.488,10.008,10,10.008
		c5.536,0,10.016-4.488,10.016-10.008C266.004,423.488,261.524,419.008,255.988,419.008z"/>
	<path class="st0" d="M255.988,457.26c-5.512,0-10,4.489-10,10.008c0,5.528,4.488,10.009,10,10.009
		c5.536,0,10.016-4.481,10.016-10.009C266.004,461.748,261.524,457.26,255.988,457.26z"/>
	<path class="st0" d="M270.122,267.173H241.87c-2.599,0-4.709,2.111-4.709,4.709c0,2.599,2.11,4.709,4.709,4.709h28.252
		c2.598,0,4.709-2.11,4.709-4.709C274.831,269.284,272.72,267.173,270.122,267.173z"/>
</g>
</svg>