<?xml version="1.0" encoding="utf-8"?>

<!DOCTYPE svg PUBLIC "-//W3C//DTD SVG 1.1//EN" "http://www.w3.org/Graphics/SVG/1.1/DTD/svg11.dtd">
<!-- Uploaded to: SVG Repo, www.svgrepo.com, Generator: SVG Repo Mixer Tools -->
<svg height="800px" width="800px" version="1.1" id="_x32_" xmlns="http://www.w3.org/2000/svg" xmlns:xlink="http://www.w3.org/1999/xlink" 
	 viewBox="0 0 512 512"  xml:space="preserve">
<style type="text/css">
	.st0{fill:#000000;}
</style>
<g>
	<path class="st0" d="M420.395,414.96c-10.063-15.081-24.877-24.015-39.365-30.013c0.268-61.548-12.706-169.52-19.758-197.734
		c-2.994-12.02-3.463-22.568-3.128-30.281c0.51,0.242,1.104,0.46,1.572,0.719V89.194l62.234-20.736L256.007,0L90.049,68.458
		l11.205,3.731v77.834c-6.128,1.664-10.674,7.202-10.674,13.86c0,1.23,0.209,2.41,0.502,3.547c-2.179,3.12-3.48,6.884-3.48,10.975
		v20.736c0,10.59,8.595,8.816,19.193,8.816c10.599,0,19.194,1.773,19.194-8.816v-20.736c0-4.091-1.301-7.855-3.476-10.975
		c0.293-1.137,0.486-2.317,0.486-3.547c0-6.658-4.534-12.196-10.662-13.86V75.877l39.942,13.317v68.457
		c0.473-0.26,1.084-0.477,1.593-0.719c0.314,7.712-0.134,18.261-3.149,30.281c-7.039,28.18-19.983,135.911-19.741,197.501
		c-9.21,3.806-18.474,8.792-26.667,15.809c-7.097,6.098-13.321,13.752-17.708,23.271c-4.387,9.51-6.905,20.812-6.905,34.036
		c0,3.07,0.134,6.248,0.414,9.527c0.209,2.301,1.084,4.166,2.104,5.705c1.957,2.878,4.558,5.011,7.804,7.21
		c5.701,3.764,13.589,7.454,23.69,11.067c4.668,1.665,9.857,3.296,15.45,4.893c-0.134,0.36-0.222,0.586-0.222,0.586
		s0.184-0.209,0.451-0.527c30.57,8.674,74.3,15.701,126.614,15.708c50.381,0,92.911-6.541,123.268-14.755
		c1.171-0.318,2.191-0.653,3.337-0.971c0.268,0.326,0.444,0.544,0.444,0.544s-0.084-0.242-0.218-0.611
		c13.468-3.839,24.466-7.955,32.514-12.087c4.392-2.267,7.939-4.509,10.749-6.968c1.405-1.238,2.643-2.543,3.68-4.091
		c1.037-1.538,1.907-3.404,2.1-5.705c0.284-3.279,0.418-6.44,0.418-9.502C432.323,440.23,427.789,426.019,420.395,414.96z
		 M173.04,276.122c0.448,0.234,0.912,0.427,1.359,0.636c0.146,0.669,0.306,1.322,0.464,1.974
		C174.241,277.853,173.621,276.958,173.04,276.122z M337.149,278.731c0.159-0.652,0.302-1.304,0.452-1.974
		c0.46-0.209,0.92-0.402,1.371-0.636C338.379,276.958,337.759,277.853,337.149,278.731z M350.03,232.575
		c-3.781,13.291-7.151,21.03-10.263,25.312c-1.556,2.175-2.978,3.53-4.558,4.634c-1.581,1.104-3.405,1.966-5.789,2.819l-3.743,1.338
		l-0.695,3.923c-4.374,24.534-17.014,38.327-26.349,48.725l-1.765,1.957v2.627c0,12.447,0,21.514,0,28.783
		c-0.013,4.509,1.753,8.566,4.157,11.803c2.092,2.811,4.68,5.17,7.524,7.286c0.599,2.066,1.23,4.132,1.932,6.215l-54.475,44.108
		l-54.489-44.099c0.728-2.158,1.385-4.282,2.003-6.399c2.677-2.049,5.191-4.266,7.219-6.918c2.48-3.262,4.392-7.335,4.392-11.995
		c0-7.268,0-16.336,0-28.783v-2.627l-1.753-1.957c-9.334-10.398-21.974-24.191-26.361-48.725l-0.694-3.923l-3.743-1.338
		c-2.384-0.853-4.195-1.715-5.784-2.819c-2.333-1.656-4.463-3.906-6.942-8.524c-2.443-4.601-5.044-11.46-7.876-21.422
		c-1.25-4.35-1.689-7.737-1.689-10.255c0-2.877,0.548-4.567,1.108-5.654c0.02-0.026,0.034-0.05,0.046-0.075
		c0.866-1.539,1.912-2.217,3.245-2.744c0.536-0.201,1.084-0.326,1.568-0.41l14.028,28.231c0,0-1.46-70.858,20.042-91.778
		c23.095,0.594,46.575,5.814,55.68,16.06c9.105-10.247,32.572-15.467,55.68-16.06c21.497,20.92,20.033,91.778,20.033,91.778
		l14.036-28.222c0.862,0.151,1.966,0.443,2.819,1.012c0.778,0.502,1.414,1.088,1.991,2.158c0.017,0,0.017,0.008,0.017,0.008
		c0.569,1.078,1.129,2.786,1.137,5.696C351.72,224.838,351.277,228.225,350.03,232.575z"/>
</g>
</svg>