<?xml version="1.0" encoding="utf-8"?>

<!DOCTYPE svg PUBLIC "-//W3C//DTD SVG 1.1//EN" "http://www.w3.org/Graphics/SVG/1.1/DTD/svg11.dtd">
<!-- Uploaded to: SVG Repo, www.svgrepo.com, Generator: SVG Repo Mixer Tools -->
<svg height="800px" width="800px" version="1.1" id="_x32_" xmlns="http://www.w3.org/2000/svg" xmlns:xlink="http://www.w3.org/1999/xlink" 
	 viewBox="0 0 512 512"  xml:space="preserve">
<style type="text/css">
	.st0{fill:#000000;}
</style>
<g>
	<path class="st0" d="M432.387,407.89c-11.913-17.84-30.007-27.706-47.012-34.115c-8.522-3.208-16.862-5.575-24.204-7.584
		c-7.33-1.995-13.706-3.677-17.99-5.288c-7.492-2.784-15.408-6.39-20.93-10.269c-2.758-1.924-4.884-3.906-6.116-5.595
		c-1.246-1.728-1.584-2.921-1.598-3.965c0-7.205,0-16.209,0-28.07c9.585-10.667,23.356-27.196,29.016-53.402
		c1.976-0.887,3.932-1.898,5.816-3.208c4.689-3.234,8.666-7.936,12.036-14.325c3.391-6.416,6.397-14.619,9.605-25.84
		c1.624-5.686,2.374-10.628,2.374-15.03c0.007-5.073-1.037-9.474-2.954-13.047c-0.118-0.222-0.28-0.384-0.404-0.6
		c28.5-51.903,16.014-134.725-41.607-160.336c-13.354-13.354-80.663-56.298-153.568,4.453
		c-63.032,52.528-44.802,128.432-34.154,158.439c-1.33,3.188-2.087,6.892-2.08,11.091c0.006,4.402,0.756,9.344,2.38,15.03
		c4.291,14.945,8.164,24.595,13.178,31.676c2.504,3.515,5.36,6.338,8.464,8.49c1.884,1.311,3.84,2.322,5.816,3.208
		c5.66,26.205,19.431,42.734,29.016,53.402c0,11.861,0,20.865,0,28.07c0,0.887-0.352,2.165-1.728,3.991
		c-2.014,2.712-6.194,5.999-11.156,8.783c-4.949,2.817-10.641,5.256-15.622,7.01c-5.849,2.074-15.271,4.232-25.828,7.257
		c-15.864,4.59-34.617,11.196-49.874,24.282c-7.616,6.54-14.306,14.756-19.007,24.967c-4.708,10.204-7.407,22.332-7.4,36.52
		c0,3.293,0.144,6.697,0.443,10.218c0.215,2.471,1.154,4.473,2.256,6.122c2.1,3.091,4.884,5.38,8.372,7.733
		c6.109,4.043,14.573,7.994,25.41,11.874c32.432,11.567,86.128,22.156,152.668,22.169c54.061,0,99.69-7.016,132.26-15.832
		c16.294-4.414,29.303-9.252,38.705-14.084c4.708-2.432,8.516-4.838,11.534-7.473c1.513-1.33,2.836-2.725,3.951-4.388
		c1.096-1.65,2.041-3.652,2.256-6.122c0.293-3.515,0.436-6.912,0.436-10.192C445.173,434.994,440.315,419.75,432.387,407.89z
		 M181.99,252.997l-0.743-4.206l-4.016-1.434c-2.557-0.913-4.506-1.846-6.208-3.025c-2.511-1.774-4.786-4.193-7.447-9.149
		c-2.627-4.929-5.412-12.298-8.457-22.984c-1.337-4.669-1.813-8.308-1.813-11c0.006-3.129,0.607-4.962,1.22-6.123
		c0.926-1.676,2.061-2.393,3.502-2.973c1.349-0.515,2.79-0.6,3.07-0.6l2.008,0.13c6.156,5.868,7.29,15.858,7.29,15.858
		l28.938-55.638c0,0-8.907,22.254-2.23,35.608c64.539-33.384,93.476-77.899,93.476-77.899c20.03,24.478,40.061,55.645,40.061,55.645
		l6.677,53.415l10.38-26.943l3.162-0.169c0.274-0.039,2.843,0.169,4.46,1.252c0.841,0.542,1.526,1.167,2.152,2.315
		c0.619,1.161,1.212,2.987,1.226,6.123c0,2.7-0.476,6.331-1.813,11c-4.05,14.266-7.681,22.56-11.013,27.163
		c-1.669,2.328-3.195,3.782-4.891,4.969c-1.701,1.18-3.651,2.112-6.207,3.025l-4.017,1.434l-0.743,4.206
		c-4.701,26.323-18.264,41.124-28.279,52.281l-1.884,2.099v2.817c0,8.607,0,15.59,0,21.635l-43.843,32.628l-43.856-32.745
		c0-6.018,0-12.969,0-21.518v-2.817l-1.884-2.099C200.254,294.122,186.691,279.32,181.99,252.997z M263.88,371.916l36.371-27.066
		c0.671,3.332,2.165,6.35,4.049,8.894c1.65,2.21,3.619,4.14,5.732,5.934l-17.918,43.784L263.88,371.916z M287.621,414.449
		l-6.957,17.005l-2.028-27.04L287.621,414.449z M219.939,403.416l-17.95-43.862c1.988-1.709,3.867-3.528,5.451-5.607
		c1.988-2.609,3.632-5.706,4.336-9.188l36.358,27.151L219.939,403.416z M234.649,402.979l-2.308,30.763l-7.909-19.34
		L234.649,402.979z M127.584,481.994c-15.558-4.206-27.796-8.829-35.823-12.969c-3.997-2.054-6.945-4.017-8.574-5.451
		c-0.698-0.606-1.089-1.07-1.285-1.337c-0.228-2.895-0.358-5.692-0.358-8.353c0.026-16.483,4.056-28.526,10.282-37.968
		c9.318-14.11,24.276-22.749,39.905-28.631c7.778-2.934,15.649-5.164,22.874-7.101c0.593-0.163,1.154-0.306,1.74-0.462l-8.6,30.958
		l34.898,17.449l-24.569,34.545l34.695,31.161C167.391,491.024,145.274,486.78,127.584,481.994z M210.609,495.51l-38.307-34.414
		l26.277-36.945l-38.183-19.092l7.942-28.611c1.924-0.568,3.788-1.134,5.503-1.741c6.064-2.146,12.891-5.112,19.196-8.835
		l53.715,131.295C234.173,496.971,222.104,496.404,210.609,495.51z M241.398,455.873l4.949-65.954l9.657-10.792l10.941,12.219
		l4.668,62.237l-15.577,38.066L241.398,455.873z M265.308,497.199L319.01,365.93c0.183,0.104,0.352,0.222,0.535,0.326
		c5.92,3.358,12.396,6.123,18.486,8.405c1.793,0.665,3.716,1.297,5.737,1.917l7.91,28.481l-38.183,19.092l26.277,36.945
		l-38.366,34.473C289.935,496.456,277.853,497.003,265.308,497.199z M430.097,462.217l-0.632,0.75
		c-1.082,1.095-3.267,2.745-6.338,4.492c-10.83,6.254-32.204,13.928-60.894,19.77c-12.865,2.627-27.308,4.897-42.956,6.631
		l34.721-31.187l-24.569-34.545l34.897-17.449l-8.535-30.73c2.888,0.789,5.849,1.597,8.926,2.497
		c15.174,4.382,31.937,10.544,44.418,21.257c6.26,5.359,11.502,11.795,15.264,19.9c3.749,8.104,6.057,17.95,6.057,30.306
		C430.456,456.55,430.326,459.335,430.097,462.217z"/>
</g>
</svg>