<?xml version="1.0" encoding="utf-8"?>

<!DOCTYPE svg PUBLIC "-//W3C//DTD SVG 1.1//EN" "http://www.w3.org/Graphics/SVG/1.1/DTD/svg11.dtd">
<!-- Uploaded to: SVG Repo, www.svgrepo.com, Generator: SVG Repo Mixer Tools -->
<svg version="1.1" id="_x32_" xmlns="http://www.w3.org/2000/svg" xmlns:xlink="http://www.w3.org/1999/xlink" 
	 width="800px" height="800px" viewBox="0 0 512 512"  xml:space="preserve">
<style type="text/css">
<![CDATA[
	.st0{fill:#000000;}
]]>
</style>
<g>
	<path class="st0" d="M324.994,398.715l-15.781-58.891c0.375-1.609,0.719-3.219,1.016-4.859
		c12.328-68.234-32.969-133.563-101.219-145.891C140.791,176.73,75.462,222.043,63.119,290.262
		c-6.922,38.375,4.359,75.813,27.703,103.453l-7.906,43.656c-0.766,4.266,1.078,8.578,4.703,10.938l94.469,61.922
		c3.031,1.984,6.844,2.328,10.172,0.906c3.328-1.438,5.703-4.438,6.359-8l6.688-37c1.063-5.859,6.672-9.766,12.531-8.688
		l52.406,9.469c5.859,1.047,11.469-2.844,12.531-8.703l5.766-31.906c0.734-4.047,3.719-7.344,7.703-8.469l21.234-5.953
		C323.181,410.293,326.509,404.418,324.994,398.715z"/>
	<polygon class="st0" points="450.9,119.855 369.853,159.762 385.478,182.355 341.072,233.012 422.134,193.09 406.509,170.512 	"/>
	<polygon class="st0" points="326.619,29.34 266.103,96.418 288.978,111.621 266.509,175.121 327.025,108.043 304.134,92.824 	"/>
	<polygon class="st0" points="157.134,-0.004 135.556,87.73 162.916,90.324 173.134,156.887 194.712,69.152 167.369,66.574 	"/>
</g>
</svg>