<?xml version="1.0" encoding="utf-8"?>

<!DOCTYPE svg PUBLIC "-//W3C//DTD SVG 1.1//EN" "http://www.w3.org/Graphics/SVG/1.1/DTD/svg11.dtd">
<!-- Uploaded to: SVG Repo, www.svgrepo.com, Generator: SVG Repo Mixer Tools -->
<svg height="800px" width="800px" version="1.1" id="_x32_" xmlns="http://www.w3.org/2000/svg" xmlns:xlink="http://www.w3.org/1999/xlink" 
	 viewBox="0 0 512 512"  xml:space="preserve">
<style type="text/css">
	.st0{fill:#000000;}
</style>
<g>
	<path class="st0" d="M418.845,415.882c-9.349-14.002-22.815-22.653-36.288-28.57l2.631-13.852l-52.795-2.576
		c-5.604-2.287-11.13-4.984-15.23-7.862c-2.546-1.776-4.508-3.606-5.646-5.165c-1.15-1.595-1.463-2.697-1.475-3.66
		c0-6.628,0-4.34,0-13.587c8.849-9.854,21.569-25.109,26.788-49.302c1.824-0.825,3.63-1.752,5.37-2.968
		c4.328-2.986,8-7.32,11.112-13.22c3.136-5.923,5.905-13.497,8.867-23.856c1.498-5.256,2.191-9.819,2.191-13.882
		c0.012-4.678-0.957-8.747-2.727-12.046c-2.654-5.002-6.959-7.784-10.444-9.048c-0.385-0.138-0.722-0.222-1.089-0.331
		c0-0.469,0-0.969,0-1.481h0.915c0-30.569,2.498-72.178-10.806-103c-15.537-35.974-52.078-81.617-58.212-92.983
		C272.028,0,256.774,0,256.774,0s-15.255,0-25.236,18.493c-6.134,11.366-42.674,57.008-58.212,92.983
		c-9.228,21.377-10.847,47.936-10.98,72.407c-0.307,3.389-0.446,6.46-0.452,9.018c0,8.296,0,17.374,0,23.068
		c-1.493,0.47-3.076,1.084-4.762,2.113c-2.492,1.541-5.015,3.949-6.772,7.253c-1.77,3.299-2.739,7.368-2.733,12.052
		c0.006,4.064,0.698,8.626,2.197,13.876c3.961,13.798,7.537,22.707,12.166,29.238c2.318,3.251,4.948,5.857,7.814,7.838
		c1.74,1.216,3.546,2.143,5.369,2.968c5.22,24.194,17.94,39.448,26.789,49.302c0,9.246,0,6.959,0,13.587
		c0,0.818-0.326,1.998-1.596,3.684c-1.86,2.504-5.719,5.538-10.3,8.108c-3.425,1.95-7.182,3.594-10.812,5.039l-49.886,2.432
		l2.396,12.618c-8.994,3.756-18.024,8.644-26.012,15.495c-7.031,6.044-13.202,13.629-17.548,23.056
		c-4.346,9.421-6.839,20.612-6.832,33.717c0,3.04,0.132,6.183,0.403,9.433c0.204,2.275,1.071,4.13,2.088,5.659
		c1.939,2.841,4.509,4.96,7.73,7.133c5.64,3.733,13.454,7.381,23.459,10.962c29.943,10.679,79.522,20.456,140.949,20.468
		c49.91,0,92.037-6.478,122.106-14.616c15.044-4.081,27.053-8.542,35.734-13.002c4.346-2.252,7.862-4.467,10.65-6.899
		c1.396-1.228,2.618-2.516,3.648-4.045c1.017-1.529,1.884-3.384,2.082-5.659c0.272-3.25,0.404-6.381,0.404-9.415
		C430.651,440.906,426.165,426.831,418.845,415.882z M137.442,484.297c-2.444-0.662-4.768-1.336-7.032-2.017l-20.028-66.339
		c6.682-7.007,15.038-12.214,23.977-16.211l16.687,87.89C146.279,486.548,141.686,485.446,137.442,484.297z M206.423,391.952
		l-9.27-14.418c1.698-0.975,3.371-2.004,4.96-3.106c3.425-2.396,6.561-5.087,9.054-8.349c0.764-1,1.438-2.107,2.052-3.257
		l30.082,29.13H206.423z M257.279,391.952h-5.117l-36.848-35.685c0.084-0.687,0.205-1.361,0.205-2.071c0-7.194,0-3.853,0-16.182
		v-2.601l-1.74-1.938c-9.247-10.3-21.768-23.971-26.108-48.267l-0.686-3.883l-3.708-1.324c-2.36-0.843-4.16-1.704-5.731-2.793
		c-2.318-1.638-4.418-3.871-6.874-8.446c-2.426-4.55-4.997-11.354-7.808-21.22c-1.234-4.316-1.674-7.663-1.674-10.156
		c0.006-2.895,0.56-4.587,1.126-5.653c0.855-1.553,1.902-2.215,3.232-2.751c1.078-0.41,2.203-0.518,2.655-0.542l6.79,0.843
		c3.6,15.116,9.854,29.618,9.854,29.618l16.151-44.426h115.635l16.151,44.426c0,0,6.471-15.007,10.035-30.4l0.849-0.06
		c0.416-0.012,2.595,0.205,4.028,1.156c0.776,0.494,1.408,1.072,1.986,2.137c0.566,1.066,1.12,2.758,1.132,5.647
		c0,2.498-0.446,5.846-1.674,10.162c-3.738,13.165-7.092,20.829-10.168,25.078c-1.541,2.15-2.95,3.492-4.515,4.588
		c-1.571,1.089-3.371,1.95-5.731,2.793l-3.708,1.324l-0.686,3.883c-4.34,24.296-16.861,37.967-26.108,48.267l-1.74,1.932v2.606
		c0,12.329,0,8.988,0,16.182c-0.005,2.101,0.404,4.094,1.06,5.96l-32.838,31.797H257.279z M308.135,391.952h-34.566l26.98-26.126
		c0.018,0.018,0.03,0.048,0.048,0.067c3.606,4.84,8.615,8.422,14.069,11.552c0.68,0.386,1.414,0.692,2.112,1.06L308.135,391.952z
		 M386.453,480.751c-6.712,2.173-14.315,4.31-22.833,6.291l16.332-86c6.273,2.974,12.257,6.538,17.427,10.974
		c2.727,2.336,5.22,4.912,7.483,7.748L386.453,480.751z"/>
</g>
</svg>