<?xml version="1.0" encoding="utf-8"?>

<!DOCTYPE svg PUBLIC "-//W3C//DTD SVG 1.1//EN" "http://www.w3.org/Graphics/SVG/1.1/DTD/svg11.dtd">
<!-- Uploaded to: SVG Repo, www.svgrepo.com, Generator: SVG Repo Mixer Tools -->
<svg height="800px" width="800px" version="1.1" id="_x32_" xmlns="http://www.w3.org/2000/svg" xmlns:xlink="http://www.w3.org/1999/xlink" 
	 viewBox="0 0 512 512"  xml:space="preserve">
<style type="text/css">
	.st0{fill:#000000;}
</style>
<g>
	<path class="st0" d="M175.114,261.397l6.088,13.279l4.707-13.826c10.604-31.136,34.605-44.392,53.646-44.415
		c4.445,0,8.588,0.73,12.207,2.071l2.025,0.754l2.024-0.754c3.619-1.341,7.77-2.071,12.215-2.071
		c19.033,0.024,43.034,13.279,53.638,44.415l4.715,13.826l6.08-13.279c7.079-15.446,10.016-28.78,10.08-29.026l0.127-0.627v-74.401
		v-1.088c-0.047-8.445,0.048-19.938-3.952-30.248c-2.016-5.143-5.223-10.088-10.191-13.66c-4.953-3.603-11.445-5.596-19.191-5.571
		c-3.62,0-7.524,0.413-11.779,1.27c-4.794,0.952-8.714,2.508-12.096,4.183c-5.096,2.555-8.858,5.158-13.303,7.024
		c-4.46,1.858-9.747,3.246-18.366,3.27c-11.502-0.063-17.033-2.405-22.652-5.35c-2.802-1.492-5.627-3.254-9.016-4.944
		c-3.374-1.675-7.303-3.231-12.096-4.183c-4.254-0.85-8.159-1.27-11.778-1.27c-7.746-0.024-14.246,1.968-19.191,5.571
		c-3.707,2.675-6.469,6.144-8.445,9.858c-5.842,11.199-5.628,24.549-5.699,34.05v1.088v74.401l0.135,0.627
		C165.105,232.617,168.042,245.951,175.114,261.397z M176.535,157.343v-1.088c-0.048-8.31,0.198-18.644,3.142-25.986
		c1.461-3.682,3.429-6.517,6.183-8.5c2.754-1.977,6.508-3.35,12.382-3.366c2.722,0,5.881,0.318,9.5,1.04
		c3.644,0.73,6.437,1.834,9.207,3.206c4.12,2.024,8.207,4.858,13.953,7.31c5.754,2.436,12.985,4.207,22.883,4.183
		c13.191,0.063,21.683-3.207,28.144-6.715c3.222-1.739,5.936-3.421,8.699-4.778c2.762-1.373,5.556-2.476,9.191-3.206
		c3.635-0.722,6.794-1.048,9.509-1.048c5.873,0.024,9.619,1.389,12.381,3.373c2.079,1.5,3.682,3.444,4.985,5.905
		c4.032,7.318,4.412,19.24,4.349,28.581v1.088v73.099c-0.396,1.627-1.699,6.738-4.048,13.422
		c-13.89-26.399-37.923-39.074-58.972-39.05c-4.968,0-9.738,0.833-14.238,2.254c-4.5-1.421-9.263-2.254-14.232-2.254
		c-21.049-0.024-45.082,12.651-58.964,39.034c-0.778-2.198-1.476-4.294-2.032-6.08c-0.746-2.461-1.294-4.468-1.659-5.85
		c-0.167-0.65-0.286-1.134-0.365-1.476V157.343z"/>
	<path class="st0" d="M258.214,248.269l-4.428-7.826l-4.43,7.826c-11.27,19.866-25.763,34.7-47.812,46.161l4.691,9.041
		c20.906-10.81,36.042-25.058,47.551-42.884c11.524,17.826,26.652,32.074,47.542,42.884l4.698-9.041
		C283.977,282.97,269.501,268.135,258.214,248.269z"/>
	<path class="st0" d="M445.083,394.802c-9.445-11.731-21.684-19.477-34.335-25.398c-2.493-12.032-9.811-50.527-9.779-81.045
		c0-18.311-1.079-34.335-1.063-64.092c0-14.89,0.254-33.224,1.063-56.956v-0.135v-0.135c0-50.456-13.636-92.085-37.304-121.333
		C340.061,16.445,306.201-0.063,267.929,0c-4.651,0-9.373,0.262-14.143,0.746C249.007,0.262,244.293,0,239.634,0
		c-38.265-0.064-72.116,16.445-95.721,45.709c-23.668,29.256-37.312,70.877-37.312,121.333v0.135v0.135
		c0.801,23.731,1.071,42.066,1.071,56.956c0,29.756-1.071,45.78-1.071,64.092c0.008,18.199-3.191,40.058-6.429,57.186
		c-1.619,8.572-3.239,15.977-4.445,21.223c-0.492,2.128-0.889,3.787-1.214,5.136c-11.207,6.444-21.922,14.858-30.026,26.628
		c-8.89,12.866-14.398,29.542-14.366,50.368c0,3.54,0.158,7.183,0.476,10.969c0.23,2.691,1.254,4.865,2.452,6.667
		c2.286,3.358,5.318,5.85,9.112,8.414c6.652,4.397,15.866,8.699,27.66,12.921c35.296,12.589,93.736,24.104,166.153,24.129
		c58.845-0.008,108.499-7.644,143.945-17.231c17.747-4.802,31.892-10.072,42.13-15.327c5.128-2.651,9.271-5.27,12.557-8.136
		c1.651-1.444,3.079-2.96,4.301-4.77c1.191-1.802,2.223-3.976,2.461-6.667c0.333-4.064,0.508-7.969,0.508-11.715
		C461.925,425.193,455.481,407.684,445.083,394.802z M115.888,348.513c3.318-17.683,6.69-40.176,6.699-60.154
		c0-17.597,1.079-33.93,1.079-64.092c0-15.056-0.27-33.533-1.071-57.36c0.016-47.551,12.906-85.41,33.74-111.134
		c20.923-25.732,49.591-39.725,83.3-39.788c4.357,0,8.786,0.238,13.294,0.73l0.849,0.088l0.858-0.088
		c4.516-0.484,8.96-0.73,13.294-0.73c33.716,0.064,62.385,14.057,83.307,39.788c20.843,25.723,33.732,63.583,33.748,111.134
		c-0.809,23.827-1.079,42.304-1.079,57.36c0,30.161,1.079,46.495,1.079,64.092c0.016,19.819,2.763,41.764,5.493,58.893
		c1.27,8.008,2.54,14.873,3.54,20.017c-7.128-2.596-14.144-4.707-20.573-6.5c-9.46-2.636-17.794-4.723-23.35-6.81
		c-8.239-3.072-16.986-7.033-23.256-11.43c-3.143-2.19-5.619-4.477-7.159-6.588c-0.54-0.739-0.826-1.382-1.159-2.04
		c6.937-6.588,12.826-13.462,17.224-20.74c4.842-8.008,7.937-16.548,8.619-25.477l-11.604-0.889
		c-0.524,6.818-2.874,13.572-6.969,20.358c-6.111,10.175-16.207,20.294-29.081,29.922c-12.191,9.143-26.922,17.842-42.947,25.978
		c-21.644-10.985-40.86-23.048-54.805-35.756c-7.262-6.595-13.088-13.358-17.176-20.144c-4.096-6.786-6.445-13.54-6.977-20.358
		l-11.596,0.889c0.691,8.929,3.778,17.469,8.62,25.477c4.794,7.937,11.405,15.367,19.176,22.47c-0.516,0.476-1.104,1.008-1.81,1.564
		c-5.778,4.738-17.263,11.794-27.224,15.271c-6.492,2.302-16.573,4.612-27.843,7.833c-7.072,2.025-14.66,4.508-22.262,7.604
		C113.031,362.729,114.443,356.125,115.888,348.513z M196.901,345.87c0.31-0.254,0.691-0.532,0.977-0.778
		c0.762-0.658,1.365-1.293,1.992-1.929c1.349,1.064,2.612,2.16,4.024,3.214c13.636,10.224,29.812,19.684,47.296,28.423l2.596,1.302
		l2.595-1.302c20.089-10.056,38.439-21.033,53.218-33.05c0.127,0.175,0.238,0.365,0.365,0.54l-48.622,82.585L196.901,345.87z
		 M255.047,435.567l-18.222,30.97l-79.394-100.53c3-0.841,5.874-1.682,8.397-2.572c7.62-2.699,15.216-6.755,21.589-10.794
		L255.047,435.567z M220.093,494.959c-41.741-2.325-77.322-8.429-103.88-15.62c-16.93-4.572-30.256-9.603-38.987-14.112
		c-4.357-2.238-7.564-4.373-9.334-5.929c-0.762-0.667-1.182-1.167-1.397-1.461c-0.246-3.095-0.388-6.087-0.388-8.937
		c0.032-18.12,4.572-31.121,11.548-41.304c6.992-10.168,16.7-17.636,27.597-23.494l3.071-1.659l0.072-0.277
		c9.5-4.588,19.525-8.001,28.938-10.692c2.691-0.77,5.318-1.492,7.874-2.182l85.29,107.991L220.093,494.959z M255.976,496.015
		c-7.77,0-15.334-0.159-22.755-0.421l85.252-144.834c2.412,1.818,5,3.516,7.746,5.08c5,2.858,10.429,5.223,15.747,7.358
		l-74.163,132.666C263.881,495.935,259.985,496.015,255.976,496.015z M445.464,457.822l-0.699,0.809
		c-1.175,1.198-3.556,2.992-6.889,4.889c-11.794,6.81-35.05,15.16-66.274,21.518c-25.24,5.159-55.813,9.096-90.26,10.437
		l71.735-128.326c5.175,1.556,10.969,3.064,17.239,4.818c9.27,2.58,19.398,5.667,29.128,9.929l0.016-0.056l1.096,0.476
		c12.778,5.596,24.065,12.517,32.065,22.502c7.968,9.993,13.207,23.192,13.271,43.336
		C445.893,451.202,445.734,454.44,445.464,457.822z"/>
</g>
</svg>