<?xml version="1.0" encoding="utf-8"?>

<!DOCTYPE svg PUBLIC "-//W3C//DTD SVG 1.1//EN" "http://www.w3.org/Graphics/SVG/1.1/DTD/svg11.dtd">
<!-- Uploaded to: SVG Repo, www.svgrepo.com, Generator: SVG Repo Mixer Tools -->
<svg height="800px" width="800px" version="1.1" id="_x32_" xmlns="http://www.w3.org/2000/svg" xmlns:xlink="http://www.w3.org/1999/xlink" 
	 viewBox="0 0 512 512"  xml:space="preserve">
<style type="text/css">
	.st0{fill:#000000;}
</style>
<g>
	<path class="st0" d="M432.567,404.453c-10.743-18.333-27.366-29.358-43.364-36.715c-16.005-7.35-31.838-11.32-41.365-14.919
		c-7.893-2.926-16.231-6.732-22.05-10.812c-2.905-2.033-5.144-4.122-6.443-5.894c-1.312-1.82-1.669-3.077-1.682-4.177
		c0-7.583,0-11.004,0-22.53c10.097-11.237,24.604-28.65,30.567-56.256c2.081-0.941,4.141-1.999,6.127-3.38
		c4.939-3.407,9.129-8.367,12.68-15.091c3.572-6.76,6.738-15.407,10.118-27.222c1.704-5.976,2.486-11.156,2.493-15.771
		c9.796-12.433,17.797-30.024,17.797-54.526c0-85.581-59.011-136.232-140.683-137.16c-81.679,0.928-140.691,51.579-140.691,137.16
		c0,23.293,7.233,40.349,16.362,52.664c-0.035,0.598-0.096,1.174-0.096,1.793c0.007,4.644,0.797,9.85,2.508,15.84
		c4.519,15.744,8.599,25.91,13.882,33.37c2.638,3.702,5.646,6.676,8.916,8.943c1.985,1.381,4.046,2.439,6.127,3.38
		c5.962,27.606,20.469,45.019,30.567,56.256c0,11.512,0,14.947,0,22.53c0,0.934-0.371,2.281-1.82,4.204
		c-2.123,2.857-6.526,6.319-11.753,9.252c-5.214,2.968-11.21,5.53-16.458,7.384c-6.443,2.267-15.702,4.808-25.848,8.387
		c-15.215,5.392-32.662,13.161-46.633,27.105c-14.006,13.896-23.952,34.27-23.863,62.213c0,3.558,0.151,7.239,0.467,11.059
		c0.213,2.376,1.051,4.348,2.06,6.031c1.931,3.133,4.548,5.557,7.831,8.03c5.742,4.266,13.724,8.449,24.083,12.591
		C133.423,500.515,185.881,511.98,256,512c56.971,0,102.327-7.611,133.931-17.042c15.812-4.733,28.17-9.885,37.044-14.995
		c4.451-2.583,8.03-5.118,10.86-7.872c1.415-1.387,2.652-2.844,3.675-4.52c1.01-1.683,1.848-3.654,2.054-6.031
		c0.323-3.82,0.474-7.487,0.474-11.031C444.052,431.888,439.725,416.638,432.567,404.453z M322.939,358.465
		c3.001,1.696,6.14,3.236,9.3,4.657c-0.57,7.721-4.272,16.671-10.874,23.766c-7.198,7.748-17.419,13.278-30.161,13.285
		c-8.682,0-18.656-2.61-29.743-9.136l43.811-48.248c0.501,0.866,1.03,1.71,1.608,2.493C311,350.806,316.715,354.893,322.939,358.465
		z M269.326,413.526l-1.23,5.036c0.509-2.198,1.092-5.097,1.092-5.097C269.257,413.492,269.264,413.506,269.326,413.526z
		 M265.061,400.888c-0.941-0.33-1.731-0.598-2.583-0.894l0.103-0.323C263.412,400.091,264.236,400.503,265.061,400.888z
		 M178.03,246.191l-0.783-4.43l-4.232-1.511c-2.693-0.962-4.746-1.944-6.54-3.187c-2.644-1.869-5.042-4.417-7.844-9.644
		c-2.329-4.369-4.781-10.689-7.404-19.226c9.96,7.096,18.168,9.856,18.168,9.856c-18.066-61.972,43.982-71.513,87.366-72.688
		c43.364,0,105.425,10.716,87.36,72.688c0,0,7.185-2.397,16.259-8.504c-3.51,11.196-6.724,18.162-9.706,22.283
		c-1.758,2.446-3.366,3.984-5.152,5.234c-1.793,1.243-3.847,2.226-6.539,3.187l-4.231,1.511l-0.783,4.43
		c-4.953,27.73-19.24,43.323-29.79,55.076l-1.985,2.205v2.974c0,14.061,0,17.276,0,25.49c0,1.175,0.123,2.309,0.316,3.428
		L256,386.587l-46.531-51.243c0.193-1.112,0.337-2.239,0.337-3.407c0-8.215,0-11.423,0-25.49v-2.974l-1.985-2.205
		C197.271,289.514,182.983,273.922,178.03,246.191z M258.205,397.289c-0.597,0.192-1.208,0.384-1.909,0.618
		c-0.866-0.282-1.601-0.522-2.302-0.742c0.666-0.385,1.333-0.804,1.999-1.223C256.735,396.402,257.47,396.862,258.205,397.289z
		 M194.509,355.024c3.908-2.734,7.487-5.804,10.331-9.527c0.66-0.866,1.271-1.793,1.841-2.754l43.858,48.296
		c-11.087,6.525-21.06,9.136-29.743,9.136c-12.742-0.007-22.963-5.536-30.162-13.285c-6.594-7.074-10.297-16.005-10.867-23.712
		C184.81,360.896,189.907,358.218,194.509,355.024z M250.114,399.994c-1.698,0.584-3.573,1.251-5.626,1.992
		c1.792-0.769,3.606-1.634,5.433-2.583L250.114,399.994z M244.488,418.562l-1.23-5.036c0.062-0.02,0.069-0.034,0.138-0.061
		C243.396,413.465,243.979,416.364,244.488,418.562z M428.164,459.7c-0.329,0.522-1.545,1.889-3.674,3.448
		c-4.032,3.036-11.039,6.855-20.532,10.634c-28.554,11.402-79.522,22.764-147.958,22.75c-55.57,0-99.586-7.459-129.501-16.403
		c-14.94-4.451-26.377-9.314-33.74-13.573c-3.682-2.116-6.327-4.094-7.776-5.522c-0.639-0.618-0.989-1.092-1.154-1.347
		c-0.254-3.187-0.398-6.278-0.398-9.204c0.02-16.294,3.668-28.568,9.335-38.33c8.49-14.603,21.988-23.952,36.427-30.608
		c14.424-6.663,29.344-10.359,40.252-14.178c1.113-0.398,2.302-0.872,3.455-1.319c1.244,8.861,5.598,18.066,12.577,25.621
		c8.291,8.971,20.463,15.552,35.32,15.538c5.241,0,10.791-0.852,16.582-2.618c-1.126,0.42-2.143,0.79-3.359,1.251
		c-39.27,9.383-40.458,32.483-32.236,41.036c13.607,14.15,32.758,0.494,44.339-21.707c-6.368,15.538-18.553,56.876-18.553,56.876
		s6.45,2.926,12.9,2.926c2.919-27.504,15.785-65.524,15.826-65.634c0.034,0.11,12.899,38.13,15.819,65.634
		c6.45,0,12.9-2.926,12.9-2.926s-12.186-41.338-18.553-56.876c11.581,22.201,30.732,35.856,44.339,21.707
		c8.222-8.553,7.034-31.652-32.236-41.036c-0.522-0.199-0.941-0.35-1.45-0.543c4.898,1.278,9.61,1.91,14.089,1.91
		c14.858,0.014,27.029-6.567,35.32-15.538c7-7.583,11.362-16.815,12.591-25.704c1.098,0.432,2.218,0.941,3.297,1.346
		c7.322,2.734,16.328,5.262,25.875,8.669c14.308,5.082,29.565,12.103,40.905,23.409c11.299,11.361,19.281,26.707,19.37,51.119
		C428.563,453.436,428.425,456.506,428.164,459.7z M241.143,414.715c-10.344,19.852-20.724,24.549-22.07,25.127
		c-2.054,0.879-5.31,0.199-6.154-0.296c-3.517-2.054-2.295-4.293-2.047-6.258C210.981,432.416,216.73,416.686,241.143,414.715z
		 M271.442,414.715c24.412,1.971,30.162,17.701,30.271,18.573c0.248,1.965,1.47,4.204-2.047,6.258
		c-0.845,0.495-4.101,1.175-6.154,0.296C292.165,439.264,281.786,434.567,271.442,414.715z"/>
</g>
</svg>