<?xml version="1.0" encoding="utf-8"?>

<!DOCTYPE svg PUBLIC "-//W3C//DTD SVG 1.1//EN" "http://www.w3.org/Graphics/SVG/1.1/DTD/svg11.dtd">
<!-- Uploaded to: SVG Repo, www.svgrepo.com, Generator: SVG Repo Mixer Tools -->
<svg height="800px" width="800px" version="1.1" id="_x32_" xmlns="http://www.w3.org/2000/svg" xmlns:xlink="http://www.w3.org/1999/xlink" 
	 viewBox="0 0 512 512"  xml:space="preserve">
<style type="text/css">
	.st0{fill:#000000;}
</style>
<g>
	<path class="st0" d="M432.567,404.453c-10.743-18.333-27.366-29.358-43.364-36.715c-5.09-2.336-10.138-4.307-14.994-6.058
		c3.366-3.779,5.261-8.854,4.774-14.295c-0.432-4.788-2.665-8.95-5.914-12.014c2.651-3.599,4.107-8.092,3.674-12.886
		c-0.597-6.581-4.499-12.062-9.912-14.974c3.572-3.812,5.626-9.026,5.118-14.638c-0.578-6.367-4.259-11.698-9.404-14.679
		c3.696-3.641,5.852-8.8,5.35-14.37c-0.652-7.24-5.529-13.044-11.959-15.318c4.245-3.338,7.94-7.844,11.1-13.827
		c3.572-6.76,6.738-15.407,10.118-27.222c1.71-6.003,2.5-11.21,2.5-15.84c0-1.154-0.076-2.266-0.172-3.359
		c1.414-6.107,2.899-13.951,4.464-24.144C394.499,95.534,357.572,0,256.763,0C155.954,0,119.026,95.534,129.577,164.114
		c1.236,8.036,2.418,14.59,3.558,20.037c-0.522,2.301-0.797,4.794-0.797,7.466c0.007,4.644,0.797,9.85,2.508,15.84
		c4.52,15.744,8.6,25.91,13.882,33.37c2.136,2.995,4.561,5.385,7.123,7.439c-6.746,2.109-11.904,8.085-12.578,15.558
		c-0.501,5.571,1.656,10.73,5.352,14.37c-5.145,2.981-8.827,8.312-9.404,14.679c-0.508,5.612,1.538,10.826,5.117,14.638
		c-5.413,2.912-9.321,8.394-9.912,14.974c-0.433,4.794,1.023,9.287,3.675,12.886c-3.249,3.064-5.482,7.226-5.914,12.014
		c-0.494,5.454,1.415,10.544,4.802,14.322c-14.865,5.371-31.632,13.058-45.164,26.562c-14.006,13.896-23.952,34.27-23.863,62.213
		c0,3.558,0.151,7.239,0.467,11.059c0.213,2.376,1.051,4.348,2.061,6.031c1.93,3.133,4.548,5.557,7.831,8.03
		c5.742,4.266,13.724,8.449,24.082,12.591C133.423,500.515,185.882,511.98,256,512c56.971,0,102.328-7.611,133.931-17.042
		c15.813-4.733,28.17-9.885,37.044-14.995c4.451-2.583,8.03-5.118,10.86-7.872c1.414-1.387,2.651-2.844,3.674-4.52
		c1.01-1.683,1.848-3.654,2.054-6.031c0.323-3.82,0.474-7.487,0.474-11.031C444.053,431.888,439.725,416.638,432.567,404.453z
		 M149.723,203.212c-0.742-2.604-1.223-4.877-1.518-6.883c1.552-4.54,2.974-9.85,4.279-14.13c0.11-0.048,0.192-0.123,0.31-0.172
		c1.044-0.398,2.15-0.549,2.775-0.604l4.231,0.9c10.078,28.527,9.899,34.448,9.672,35.513c9.143-24.104-23.746-71.286,87.291-64.273
		c111.037-7.014,78.149,40.169,87.292,64.273c-0.227-1.079-0.399-7.096,9.918-36.2l2.068-0.22c0.487-0.02,2.96,0.226,4.588,1.312
		c0.275,0.179,0.515,0.399,0.762,0.605c0.865,2.912,1.779,6.202,2.748,9.356c-0.103,2.72-0.618,6.161-1.861,10.523
		c-4.266,15.029-8.092,23.767-11.602,28.616c-1.758,2.446-3.366,3.984-5.152,5.234c-1.792,1.243-3.846,2.226-6.539,3.187
		l-4.231,1.511l-0.783,4.43c-4.952,27.73-19.24,43.323-29.791,55.076l-1.985,2.205v2.974c0,14.061,0,17.276,0,25.49
		c0,1.175,0.124,2.309,0.316,3.428L256,386.587l-46.53-51.243c0.192-1.112,0.336-2.239,0.336-3.407c0-8.215,0-11.423,0-25.49v-2.974
		l-1.985-2.205c-10.551-11.753-24.839-27.345-29.791-55.076l-0.783-4.43l-4.231-1.511c-2.693-0.962-4.747-1.944-6.54-3.187
		c-2.644-1.869-5.042-4.417-7.845-9.644C155.865,222.226,152.931,214.47,149.723,203.212z M261.461,391.038l43.81-48.248
		c0.501,0.866,1.03,1.71,1.607,2.493c4.121,5.523,9.836,9.61,16.06,13.182c3.002,1.696,6.141,3.236,9.301,4.657
		c-0.57,7.721-4.273,16.671-10.874,23.766c-7.199,7.748-17.42,13.278-30.162,13.285
		C282.521,400.173,272.547,397.563,261.461,391.038z M269.326,413.526l-1.23,5.036c0.509-2.198,1.092-5.097,1.092-5.097
		C269.258,413.492,269.264,413.506,269.326,413.526z M265.061,400.888c-0.941-0.33-1.731-0.598-2.583-0.894l0.103-0.323
		C263.412,400.091,264.236,400.503,265.061,400.888z M325.789,342.007c-2.906-2.033-5.145-4.122-6.443-5.894
		c-1.312-1.82-1.669-3.077-1.683-4.177c0-7.583,0-11.004,0-22.53c6.409-7.136,14.604-16.65,21.308-29.784
		c0.454,0.357,0.927,0.66,1.408,0.968c-4.238,3.854-6.738,9.528-6.189,15.682c0.591,6.581,4.492,12.062,9.912,14.988
		c-3.579,3.806-5.626,9.012-5.117,14.624c0.433,4.794,2.665,8.957,5.907,12.021c-2.528,3.441-3.922,7.707-3.661,12.274
		C335.516,347.742,329.993,344.954,325.789,342.007z M258.205,397.289c-0.598,0.192-1.209,0.384-1.91,0.618
		c-0.866-0.282-1.6-0.522-2.302-0.742c0.667-0.385,1.333-0.804,1.999-1.223C256.735,396.402,257.47,396.862,258.205,397.289z
		 M220.797,400.173c-12.742-0.007-22.963-5.536-30.162-13.285c-6.594-7.074-10.296-16.005-10.867-23.712
		c5.042-2.28,10.139-4.959,14.741-8.153c3.909-2.734,7.488-5.804,10.331-9.527c0.659-0.866,1.27-1.793,1.841-2.754l43.858,48.296
		C239.453,397.563,229.479,400.173,220.797,400.173z M250.114,399.994c-1.697,0.584-3.572,1.251-5.626,1.992
		c1.793-0.769,3.606-1.634,5.433-2.583L250.114,399.994z M244.488,418.562l-1.229-5.036c0.062-0.02,0.068-0.034,0.137-0.061
		C243.396,413.465,243.979,416.364,244.488,418.562z M167.067,311.261c5.42-2.926,9.315-8.408,9.912-14.988
		c0.55-6.154-1.944-11.828-6.189-15.682c0.701-0.446,1.402-0.885,2.034-1.421c6.746,13.353,15.029,23.024,21.514,30.237
		c0,11.512,0,14.947,0,22.53c0,0.934-0.371,2.281-1.82,4.204c-2.122,2.857-6.525,6.319-11.753,9.252
		c-3.428,1.951-7.15,3.634-10.819,5.145c0.358-4.699-1.071-9.102-3.668-12.632c3.242-3.064,5.475-7.227,5.908-12.021
		C172.694,320.273,170.646,315.067,167.067,311.261z M428.165,459.7c-0.33,0.522-1.546,1.889-3.675,3.448
		c-4.032,3.036-11.038,6.855-20.531,10.634c-28.555,11.402-79.523,22.764-147.958,22.75c-55.57,0-99.586-7.459-129.5-16.403
		c-14.941-4.451-26.377-9.314-33.741-13.573c-3.682-2.116-6.326-4.094-7.776-5.522c-0.638-0.618-0.989-1.092-1.154-1.347
		c-0.254-3.187-0.399-6.278-0.399-9.204c0.021-16.294,3.668-28.568,9.336-38.33c8.387-14.424,21.671-23.718,35.918-30.361
		c-0.186,4.884,1.45,9.452,4.41,12.948c-24.708,27.785-9.61,61.54-9.61,61.54l9.788,0.687l6.044-19.865l0.811,20.346l15.365,1.072
		c14.886-19.714,15.957-45.974,5.915-63.194c2.748-2.968,4.63-6.787,5.021-11.128c0.488-5.44-1.408-10.509-4.781-14.287
		c2.741-0.866,5.399-1.704,7.796-2.542c1.113-0.398,2.302-0.872,3.455-1.319c1.244,8.861,5.598,18.066,12.577,25.621
		c8.291,8.971,20.463,15.552,35.32,15.538c5.241,0,10.791-0.852,16.582-2.618c-1.126,0.42-2.142,0.79-3.359,1.251
		c-39.27,9.383-40.458,32.483-32.236,41.036c13.608,14.15,32.758,0.494,44.339-21.707c-6.368,15.538-18.553,56.876-18.553,56.876
		s6.45,2.926,12.9,2.926c2.919-27.504,15.785-65.524,15.826-65.634c0.034,0.11,12.9,38.13,15.819,65.634
		c6.45,0,12.9-2.926,12.9-2.926s-12.186-41.338-18.553-56.876c11.581,22.201,30.732,35.856,44.339,21.707
		c8.222-8.553,7.034-31.652-32.236-41.036c-0.522-0.199-0.941-0.35-1.449-0.543c4.897,1.278,9.61,1.91,14.088,1.91
		c14.858,0.014,27.03-6.567,35.32-15.538c7-7.583,11.361-16.815,12.591-25.704c1.099,0.432,2.218,0.941,3.297,1.346
		c2.246,0.838,4.685,1.663,7.212,2.486c-3.434,3.792-5.378,8.903-4.884,14.398c0.392,4.341,2.274,8.16,5.022,11.128
		c-10.043,17.22-8.971,43.48,5.914,63.194l15.366-1.072l0.81-20.346l6.045,19.865l9.788-0.687c0,0,15.098-33.754-9.61-61.54
		c2.974-3.51,4.616-8.112,4.416-13.023c9.678,4.444,19.075,10.077,26.7,17.674c11.299,11.361,19.281,26.707,19.37,51.119
		C428.563,453.436,428.426,456.506,428.165,459.7z M241.143,414.715c-10.344,19.852-20.724,24.549-22.07,25.127
		c-2.054,0.879-5.31,0.199-6.154-0.296c-3.517-2.054-2.295-4.293-2.047-6.258C210.981,432.416,216.73,416.686,241.143,414.715z
		 M271.442,414.715c24.412,1.971,30.162,17.701,30.271,18.573c0.248,1.965,1.47,4.204-2.047,6.258
		c-0.845,0.495-4.1,1.175-6.154,0.296C292.165,439.264,281.786,434.567,271.442,414.715z"/>
</g>
</svg>