<?xml version="1.0" encoding="utf-8"?>

<!DOCTYPE svg PUBLIC "-//W3C//DTD SVG 1.1//EN" "http://www.w3.org/Graphics/SVG/1.1/DTD/svg11.dtd">
<!-- Uploaded to: SVG Repo, www.svgrepo.com, Generator: SVG Repo Mixer Tools -->
<svg height="800px" width="800px" version="1.1" id="_x32_" xmlns="http://www.w3.org/2000/svg" xmlns:xlink="http://www.w3.org/1999/xlink" 
	 viewBox="0 0 512 512"  xml:space="preserve">
<style type="text/css">
	.st0{fill:#000000;}
</style>
<g>
	<path class="st0" d="M432.567,404.453c-10.743-18.333-27.366-29.358-43.357-36.715c-5.097-2.342-10.138-4.307-15.002-6.052
		c3.366-3.785,5.262-8.861,4.781-14.301c-0.44-4.794-2.665-8.95-5.921-12.021c2.652-3.592,4.108-8.084,3.682-12.879
		c-0.605-6.587-4.506-12.062-9.919-14.981c3.572-3.806,5.633-9.019,5.124-14.631c-0.577-6.374-4.258-11.691-9.411-14.672
		c3.696-3.655,5.853-8.806,5.358-14.377c-0.66-7.24-5.537-13.044-11.966-15.318c4.245-3.338,7.94-7.851,11.1-13.827
		c3.572-6.76,6.746-15.408,10.125-27.222c1.703-6.004,2.5-11.21,2.5-15.84c0-1.16-0.082-2.273-0.179-3.359
		c1.415-6.114,2.899-13.958,4.465-24.144C394.499,95.534,357.571,0,256.763,0c-100.81,0-137.737,95.534-127.186,164.114
		c1.236,8.043,2.418,14.583,3.558,20.037c-0.522,2.294-0.797,4.794-0.797,7.466c0.014,4.644,0.797,9.85,2.514,15.84
		c4.52,15.743,8.6,25.91,13.875,33.37c2.143,2.995,4.561,5.392,7.13,7.439c-6.746,2.102-11.911,8.078-12.584,15.558
		c-0.494,5.571,1.662,10.722,5.358,14.377c-5.152,2.981-8.833,8.298-9.411,14.672c-0.508,5.612,1.539,10.826,5.124,14.631
		c-5.412,2.919-9.328,8.394-9.918,14.981c-0.426,4.794,1.031,9.287,3.682,12.879c-3.256,3.071-5.482,7.227-5.921,12.021
		c-0.494,5.454,1.415,10.537,4.808,14.322c-14.864,5.372-31.638,13.058-45.17,26.562c-14,13.896-23.946,34.27-23.863,62.212
		c0,3.558,0.151,7.24,0.467,11.06c0.219,2.376,1.058,4.348,2.06,6.031c1.937,3.132,4.548,5.557,7.831,8.03
		c5.742,4.266,13.724,8.449,24.083,12.591c31.02,12.323,83.485,23.787,153.604,23.808c56.972,0,102.32-7.611,133.932-17.042
		c15.812-4.733,28.163-9.885,37.037-14.996c4.451-2.582,8.037-5.117,10.867-7.871c1.415-1.388,2.652-2.844,3.668-4.52
		c1.016-1.683,1.855-3.654,2.061-6.031c0.316-3.82,0.467-7.487,0.467-11.032C444.052,431.888,439.725,416.638,432.567,404.453z
		 M256.763,153.564c82.057-5.18,85.512,19.226,85.416,42.052h-4.513c-1.916-5.764-5.124-10.956-9.314-15.132
		c-6.972-6.979-16.664-11.314-27.311-11.314c-17.138,0-31.639,11.169-36.687,26.618c-2.652-0.783-5.447-1.216-8.346-1.216
		c-2.899,0-5.701,0.433-8.353,1.216c-5.048-15.448-19.548-26.618-36.693-26.618c-10.64,0-20.333,4.334-27.305,11.314
		c-4.19,4.176-7.398,9.369-9.321,15.132h-2.981C171.264,172.789,174.712,148.384,256.763,153.564z M325.72,207.794
		c-0.007,6.835-2.754,12.955-7.226,17.448c-4.492,4.464-10.619,7.226-17.454,7.226c-6.835,0-12.962-2.761-17.455-7.226
		c-4.471-4.493-7.219-10.613-7.226-17.448c0.007-6.841,2.754-12.975,7.226-17.454c4.492-4.486,10.62-7.227,17.455-7.227
		c6.834,0,12.962,2.741,17.454,7.227C322.966,194.818,325.713,200.952,325.72,207.794z M235.647,207.794
		c-0.007,6.835-2.754,12.955-7.233,17.448c-4.486,4.464-10.612,7.226-17.454,7.226c-6.829,0-12.955-2.761-17.448-7.226
		c-4.472-4.493-7.22-10.613-7.226-17.448c0.007-6.841,2.754-12.975,7.226-17.454c4.492-4.486,10.619-7.227,17.448-7.227
		c6.841,0,12.968,2.741,17.454,7.227C232.893,194.818,235.64,200.938,235.647,207.794z M166.284,337.906
		c3.242-3.064,5.468-7.227,5.907-12.021c0.508-5.612-1.538-10.826-5.124-14.631c5.427-2.913,9.314-8.394,9.919-14.982
		c0.55-6.148-1.951-11.828-6.196-15.682c0.701-0.44,1.401-0.879,2.034-1.415c6.745,13.34,15.029,23.018,21.514,30.224
		c0,11.526,0,14.954,0,22.537c0,0.934-0.372,2.28-1.813,4.204c-2.13,2.857-6.526,6.319-11.76,9.252
		c-3.42,1.951-7.144,3.626-10.812,5.145C170.31,345.833,168.881,341.436,166.284,337.906z M179.775,363.177
		c5.042-2.28,10.138-4.953,14.741-8.153c3.901-2.734,7.487-5.804,10.33-9.527c0.66-0.866,1.264-1.793,1.841-2.754l43.852,48.302
		c-11.087,6.512-21.06,9.129-29.742,9.129c-12.736-0.007-22.956-5.536-30.155-13.285
		C184.047,379.807,180.338,370.891,179.775,363.177z M247.75,410.202l-0.892-3.641c0.04-0.02,0.068-0.02,0.11-0.062
		C246.967,406.5,247.379,408.615,247.75,410.202z M245.319,407.42c-7.487,14.425-15.043,17.825-16.018,18.25
		c-1.498,0.639-3.861,0.131-4.465-0.22c-2.556-1.49-1.676-3.125-1.484-4.554C223.434,420.279,227.597,408.856,245.319,407.42z
		 M255.21,495.734c-31.185-32.532-52.987-81.94-58.428-94.991c6.814,3.984,14.906,6.47,24.014,6.464
		c1.264,0,2.541-0.062,3.833-0.158c-12.968,7.94-12.474,18.945-7.886,23.726c9.892,10.276,23.794,0.357,32.202-15.758
		c-4.63,11.28-13.477,41.296-13.477,41.296s4.684,2.123,9.37,2.123c2.115-19.968,11.443-47.54,11.485-47.65
		c0.041,0.11,9.369,27.682,11.498,47.65c4.671,0,9.356-2.123,9.356-2.123s-8.847-30.017-13.477-41.296
		c8.422,16.115,22.324,26.034,32.202,15.758c4.589-4.768,5.083-15.764-7.831-23.698c1.044,0.069,2.102,0.131,3.133,0.131
		c8.723,0.007,16.485-2.294,23.107-5.983C307.497,417.222,285.681,464.831,255.21,495.734z M264.895,410.202
		c0.372-1.587,0.797-3.702,0.797-3.702c0.042,0.041,0.055,0.041,0.096,0.062L264.895,410.202z M267.327,407.42
		c17.722,1.436,21.885,12.858,21.981,13.477c0.178,1.428,1.072,3.063-1.498,4.554c-0.604,0.351-2.967,0.859-4.464,0.22
		C282.37,425.245,274.842,421.845,267.327,407.42z M321.372,386.888c-7.198,7.748-17.419,13.278-30.168,13.285
		c-8.682,0-18.656-2.617-29.743-9.129l43.811-48.254c0.508,0.865,1.03,1.71,1.607,2.493c4.121,5.522,9.836,9.61,16.06,13.182
		c3.009,1.696,6.141,3.236,9.3,4.664C331.676,370.85,327.966,379.793,321.372,386.888z M341.237,350.174
		c-5.715-2.432-11.237-5.22-15.442-8.167c-2.912-2.033-5.152-4.122-6.443-5.894c-1.319-1.82-1.676-3.077-1.69-4.177
		c0-7.583,0-11.01,0-22.537c6.416-7.13,14.603-16.651,21.308-29.77c0.453,0.343,0.934,0.66,1.414,0.961
		c-4.245,3.854-6.745,9.534-6.195,15.682c0.591,6.587,4.492,12.069,9.918,14.982c-3.585,3.805-5.632,9.019-5.124,14.631
		c0.44,4.794,2.665,8.957,5.908,12.021C342.364,341.34,340.976,345.613,341.237,350.174z M345.523,237.062
		c-1.786,1.244-3.847,2.226-6.54,3.188l-4.23,1.511l-0.784,4.43c-4.945,27.73-19.232,43.323-29.783,55.076l-1.992,2.205v2.974
		c0,14.061,0,17.276,0,25.49c0,1.175,0.123,2.315,0.316,3.428l-46.504,51.216l-46.53-51.243c0.193-1.099,0.33-2.226,0.33-3.4
		c0-8.215,0-11.423,0-25.49v-2.974l-1.978-2.205c-10.551-11.753-24.838-27.345-29.798-55.076l-0.783-4.43l-4.232-1.511
		c-2.692-0.962-4.739-1.944-6.54-3.188c-2.638-1.868-5.042-4.416-7.844-9.643c-2.762-5.193-5.701-12.949-8.902-24.207
		c-0.742-2.603-1.223-4.884-1.525-6.889c1.552-4.534,2.981-9.85,4.286-14.123c0.11-0.048,0.192-0.123,0.302-0.172
		c1.044-0.405,2.157-0.556,2.776-0.604l4.231,0.9c3.696,10.462,6.003,17.86,7.446,23.115v1.325h0.357
		c2.109,7.995,2.006,10.427,1.868,11.073c1.257-3.317,1.71-7.082,1.862-11.073h1.064c-0.013,0.344-0.048,0.687-0.048,1.03
		c0,21.322,17.289,38.604,38.611,38.617c21.335-0.013,38.617-17.296,38.624-38.617c0-0.288-0.034-0.564-0.034-0.852
		c1.985-0.756,4.148-1.223,6.456-1.223c2.301,0,4.465,0.467,6.45,1.223c0,0.288-0.034,0.563-0.034,0.852
		c0.006,21.322,17.289,38.604,38.618,38.617c10.647,0,20.339-4.341,27.311-11.32c6.979-6.966,11.313-16.664,11.306-27.298
		c0-0.343-0.034-0.686-0.048-1.03h2.59c0.144,3.991,0.597,7.756,1.854,11.073c-0.22-1.072-0.398-7.102,9.919-36.199l2.074-0.22
		c0.481-0.014,2.954,0.226,4.588,1.312c0.275,0.172,0.508,0.399,0.756,0.611c0.865,2.906,1.786,6.196,2.747,9.356
		c-0.096,2.706-0.618,6.154-1.854,10.516c-4.272,15.03-8.092,23.768-11.609,28.617C348.917,234.274,347.309,235.812,345.523,237.062
		z"/>
</g>
</svg>