<?xml version="1.0" encoding="utf-8"?>

<!DOCTYPE svg PUBLIC "-//W3C//DTD SVG 1.1//EN" "http://www.w3.org/Graphics/SVG/1.1/DTD/svg11.dtd">
<!-- Uploaded to: SVG Repo, www.svgrepo.com, Generator: SVG Repo Mixer Tools -->
<svg height="800px" width="800px" version="1.1" id="_x32_" xmlns="http://www.w3.org/2000/svg" xmlns:xlink="http://www.w3.org/1999/xlink" 
	 viewBox="0 0 512 512"  xml:space="preserve">
<style type="text/css">
	.st0{fill:#000000;}
</style>
<g>
	<path class="st0" d="M441.707,398.886c-11.3-19.282-28.783-30.878-45.616-38.615c-16.833-7.73-33.478-11.906-43.506-15.692
		c-8.294-3.077-17.064-7.08-23.191-11.371c-3.049-2.139-5.403-4.335-6.776-6.199c-1.372-1.914-1.748-3.236-1.763-4.393
		c0-7.976,0-11.573,0-23.696c3.569-3.981,7.629-8.641,11.762-14.232c28.811-10.259,82.518-41.44,73.054-103.036
		C388.621,70.814,349.218,0,258.652,0c-1.604,0-3.135,0.086-4.695,0.123C252.381,0.086,250.849,0,249.26,0
		c-90.566,0-129.983,70.814-147.018,181.652c-10.114,65.765,51.8,96.866,78.53,104.842c3.655,4.783,7.195,8.9,10.374,12.426
		c0,12.108,0,15.72,0,23.696c0,0.982-0.39,2.399-1.921,4.422c-2.225,3.005-6.864,6.646-12.354,9.731
		c-5.49,3.121-11.79,5.816-17.31,7.766c-6.777,2.384-16.515,5.057-27.193,8.821c-15.995,5.671-34.346,13.842-49.04,28.508
		C68.59,396.48,58.129,417.908,58.23,447.298c0,3.742,0.159,7.614,0.491,11.631c0.217,2.5,1.098,4.574,2.168,6.343
		c2.022,3.295,4.783,5.845,8.236,8.445c6.04,4.487,14.435,8.886,25.329,13.243c32.626,12.96,87.792,25.018,161.54,25.04
		c59.92,0,107.63-8.004,140.863-17.924c16.63-4.978,29.635-10.396,38.968-15.771c4.682-2.716,8.439-5.383,11.415-8.28
		c1.488-1.459,2.789-2.991,3.873-4.754c1.054-1.77,1.936-3.843,2.153-6.343c0.346-4.017,0.505-7.874,0.505-11.602
		C453.786,427.741,449.234,411.702,441.707,398.886z M326.403,350.518c3.15,1.784,6.459,3.403,9.782,4.898
		c-0.592,8.12-4.493,17.534-11.444,24.996c-7.571,8.15-18.321,13.965-31.716,13.972c-9.132,0-19.621-2.745-31.282-9.608
		l46.078-50.745c0.52,0.91,1.084,1.799,1.69,2.622C313.847,342.463,319.858,346.762,326.403,350.518z M270.009,408.43l-1.286,5.296
		c0.534-2.312,1.142-5.36,1.142-5.36C269.936,408.394,269.951,408.408,270.009,408.43z M265.53,395.137
		c-0.996-0.347-1.821-0.629-2.716-0.939l0.101-0.34C263.796,394.299,264.662,394.732,265.53,395.137z M173.996,232.434l-0.824-4.66
		l-4.45-1.589c-2.832-1.012-5-2.045-6.878-3.352c-2.789-1.966-5.303-4.646-8.25-10.143c-2.919-5.462-5.997-13.619-9.378-25.459
		c-1.474-5.18-2.008-9.204-2.008-12.196c0.014-3.467,0.679-5.505,1.358-6.784c1.026-1.864,2.283-2.659,3.887-3.302
		c1.098-0.418,2.254-0.578,2.918-0.635l2.182,0.462c9.508,24.245,9.348,29.404,9.132,30.343
		c9.175-21.602-23.826-116.315,87.576-110.044c1.633-0.087,3.121-0.13,4.696-0.202c1.575,0.072,3.063,0.115,4.695,0.202
		c111.388-6.271,78.401,88.442,87.576,110.044c-0.217-0.94-0.376-6.084,9.06-30.177l5.924-0.636c0.52-0.022,3.121,0.238,4.826,1.38
		c0.939,0.593,1.69,1.287,2.384,2.565c0.694,1.279,1.344,3.309,1.358,6.784c0,2.991-0.52,7.008-2.008,12.196
		c-4.479,15.807-8.511,24.997-12.195,30.097c-1.85,2.572-3.54,4.19-5.418,5.506c-1.893,1.307-4.046,2.34-6.878,3.352l-4.451,1.589
		l-0.823,4.66c-5.216,29.166-20.243,45.565-31.34,57.926l-2.081,2.319v3.128c0,14.788,0,18.17,0,26.81
		c0,1.236,0.13,2.428,0.332,3.605l-48.924,53.874L207.054,326.2c0.203-1.17,0.361-2.355,0.361-3.584c0-8.64,0-12.014,0-26.81v-3.128
		l-2.095-2.319C194.224,277.999,179.197,261.599,173.996,232.434z M258.32,391.352c-0.636,0.202-1.272,0.404-2.008,0.65
		c-0.91-0.296-1.69-0.549-2.428-0.78c0.708-0.404,1.402-0.846,2.11-1.286C256.773,390.419,257.539,390.903,258.32,391.352z
		 M191.32,346.899c4.118-2.876,7.874-6.105,10.865-10.021c0.694-0.91,1.344-1.886,1.936-2.897l46.136,50.795
		c-11.66,6.863-22.151,9.608-31.282,9.608c-13.409-0.007-24.159-5.823-31.73-13.972c-6.936-7.441-10.822-16.833-11.429-24.939
		C181.119,353.076,186.48,350.258,191.32,346.899z M249.809,394.198c-1.792,0.614-3.757,1.315-5.924,2.095
		c1.893-0.809,3.8-1.719,5.722-2.716L249.809,394.198z M243.885,413.726l-1.286-5.296c0.058-0.022,0.072-0.036,0.144-0.064
		C242.743,408.365,243.351,411.414,243.885,413.726z M437.083,456.993c-0.362,0.549-1.633,1.987-3.873,3.627
		c-4.248,3.194-11.617,7.21-21.601,11.184c-30.025,11.992-83.631,23.942-155.616,23.927c-58.446,0-104.741-7.845-136.197-17.252
		c-15.72-4.682-27.742-9.796-35.487-14.276c-3.872-2.225-6.661-4.306-8.178-5.808c-0.679-0.65-1.041-1.149-1.214-1.417
		c-0.274-3.352-0.419-6.602-0.419-9.68c0.014-17.137,3.857-30.047,9.81-40.313c8.93-15.359,23.133-25.192,38.319-32.192
		c15.172-7.008,30.864-10.895,42.336-14.912c1.17-0.419,2.412-0.917,3.626-1.387c1.315,9.32,5.896,19.001,13.236,26.948
		c8.712,9.435,21.514,16.357,37.148,16.342c5.505,0,11.343-0.896,17.44-2.753c-1.185,0.441-2.254,0.831-3.54,1.316
		c-41.296,9.869-42.553,34.164-33.898,43.159c14.305,14.882,34.447,0.52,46.628-22.83c-6.69,16.342-19.507,59.819-19.507,59.819
		s6.777,3.078,13.568,3.078c3.064-28.927,16.602-68.915,16.646-69.03c0.029,0.116,13.568,40.103,16.631,69.03
		c6.79,0,13.568-3.078,13.568-3.078s-12.817-43.477-19.507-59.819c12.181,23.35,32.323,37.712,46.628,22.83
		c8.655-8.995,7.398-33.29-33.898-43.159c-0.549-0.21-0.996-0.368-1.532-0.571c5.159,1.344,10.114,2.008,14.825,2.008
		c15.619,0.015,28.421-6.907,37.148-16.342c7.354-7.976,11.949-17.685,13.236-27.034c1.156,0.455,2.341,0.99,3.468,1.416
		c7.701,2.876,17.18,5.534,27.222,9.118c15.041,5.346,31.094,12.729,43.015,24.621c11.892,11.949,20.286,28.089,20.373,53.765
		C437.488,450.404,437.343,453.634,437.083,456.993z M240.374,409.68c-10.88,20.879-21.803,25.82-23.219,26.428
		c-2.154,0.925-5.578,0.21-6.473-0.311c-3.699-2.16-2.413-4.516-2.154-6.582C208.644,428.297,214.698,411.753,240.374,409.68z
		 M272.234,409.68c25.676,2.074,31.73,18.618,31.846,19.535c0.26,2.066,1.545,4.422-2.154,6.582c-0.896,0.52-4.32,1.236-6.473,0.311
		C294.037,435.5,283.114,430.559,272.234,409.68z"/>
</g>
</svg>