<?xml version="1.0" encoding="utf-8"?>

<!DOCTYPE svg PUBLIC "-//W3C//DTD SVG 1.1//EN" "http://www.w3.org/Graphics/SVG/1.1/DTD/svg11.dtd">
<!-- Uploaded to: SVG Repo, www.svgrepo.com, Generator: SVG Repo Mixer Tools -->
<svg height="800px" width="800px" version="1.1" id="_x32_" xmlns="http://www.w3.org/2000/svg" xmlns:xlink="http://www.w3.org/1999/xlink" 
	 viewBox="0 0 512 512"  xml:space="preserve">
<style type="text/css">
	.st0{fill:#000000;}
</style>
<g>
	<path class="st0" d="M432.567,404.453c-10.743-18.333-27.366-29.358-43.364-36.715c-16.005-7.35-31.838-11.32-41.365-14.919
		c-7.892-2.926-16.231-6.732-22.049-10.812c-2.906-2.033-5.145-4.122-6.444-5.894c-1.312-1.82-1.669-3.077-1.682-4.177
		c0-7.583,0-11.01,0-22.537c10.097-11.231,24.604-28.643,30.567-56.25c2.081-0.941,4.141-1.999,6.127-3.38
		c4.938-3.407,9.128-8.367,12.68-15.091c3.572-6.76,6.738-15.408,10.118-27.222c1.704-5.976,2.486-11.162,2.493-15.771
		c9.796-12.44,17.798-30.024,17.798-54.526c0-85.581-59.012-136.232-140.684-137.16c-81.679,0.928-140.691,51.579-140.691,137.16
		c0,23.292,7.233,40.348,16.362,52.664c-0.035,0.598-0.096,1.174-0.096,1.793c0.007,4.644,0.797,9.85,2.508,15.84
		c4.519,15.743,8.6,25.91,13.882,33.37c2.638,3.702,5.646,6.676,8.916,8.943c1.985,1.381,4.046,2.439,6.127,3.38
		c5.962,27.606,20.469,45.018,30.567,56.25c0,11.526,0,14.954,0,22.537c0,0.934-0.371,2.28-1.82,4.204
		c-2.123,2.857-6.525,6.319-11.753,9.252c-5.213,2.968-11.21,5.529-16.458,7.384c-6.443,2.267-15.702,4.808-25.848,8.387
		c-15.214,5.392-32.662,13.161-46.633,27.105c-14.006,13.896-23.952,34.27-23.863,62.212c0,3.558,0.151,7.24,0.467,11.06
		c0.213,2.376,1.051,4.348,2.061,6.031c1.93,3.132,4.547,5.557,7.83,8.03c5.742,4.266,13.724,8.449,24.083,12.591
		C133.423,500.515,185.881,511.98,256,512c56.971,0,102.327-7.611,133.931-17.042c15.812-4.733,28.17-9.885,37.044-14.996
		c4.451-2.582,8.03-5.117,10.86-7.871c1.415-1.388,2.652-2.844,3.675-4.52c1.01-1.683,1.848-3.654,2.054-6.031
		c0.323-3.82,0.474-7.487,0.474-11.032C444.052,431.888,439.725,416.638,432.567,404.453z M178.03,246.191l-0.783-4.43l-4.232-1.511
		c-2.692-0.962-4.746-1.944-6.539-3.188c-2.644-1.868-5.042-4.416-7.844-9.643c-2.329-4.362-4.781-10.682-7.404-19.226
		c9.96,7.089,18.168,9.856,18.168,9.856c-18.066-61.972,43.982-71.513,87.366-72.688c43.364,0,105.425,10.716,87.36,72.688
		c0,0,7.185-2.397,16.259-8.51c-3.51,11.203-6.724,18.175-9.706,22.29c-1.758,2.446-3.366,3.984-5.152,5.234
		c-1.793,1.244-3.847,2.226-6.539,3.188l-4.231,1.511l-0.784,4.43c-4.953,27.73-19.24,43.323-29.79,55.076l-1.985,2.205v2.974
		c0,14.061,0,17.276,0,25.49c0,1.175,0.123,2.315,0.316,3.428L256,386.58l-46.531-51.243c0.193-1.099,0.337-2.226,0.337-3.4
		c0-8.215,0-11.423,0-25.49v-2.974l-1.985-2.205C197.271,289.514,182.983,273.922,178.03,246.191z M179.768,363.177
		c5.042-2.28,10.139-4.953,14.741-8.153c3.909-2.734,7.487-5.804,10.331-9.527c0.66-0.866,1.271-1.793,1.841-2.754l43.858,48.302
		c-11.087,6.512-21.06,9.129-29.743,9.129c-12.742-0.007-22.963-5.536-30.162-13.285
		C184.041,379.807,180.338,370.891,179.768,363.177z M247.75,410.202l-0.892-3.641c0.041-0.02,0.062-0.02,0.102-0.062
		C246.96,406.5,247.38,408.615,247.75,410.202z M245.319,407.42c-7.494,14.425-15.05,17.825-16.025,18.25
		c-1.49,0.639-3.86,0.131-4.458-0.22c-2.562-1.49-1.676-3.125-1.49-4.554C223.427,420.279,227.597,408.856,245.319,407.42z
		 M255.203,495.734c-31.178-32.532-52.98-81.94-58.421-94.991c6.814,3.984,14.899,6.47,24.014,6.464
		c1.257,0,2.541-0.062,3.833-0.158c-12.968,7.94-12.474,18.945-7.886,23.726c9.884,10.276,23.788,0.357,32.202-15.758
		c-4.636,11.28-13.477,41.296-13.477,41.296s4.684,2.123,9.363,2.123c2.122-19.968,11.45-47.54,11.492-47.65
		c0.034,0.11,9.369,27.682,11.492,47.65c4.678,0,9.355-2.123,9.355-2.123s-8.84-30.017-13.47-41.296
		c8.414,16.115,22.318,26.034,32.195,15.758c4.588-4.768,5.09-15.764-7.831-23.698c1.051,0.069,2.109,0.131,3.139,0.131
		c8.716,0.007,16.478-2.294,23.1-5.983C307.497,417.222,285.681,464.831,255.203,495.734z M264.895,410.202
		c0.364-1.587,0.79-3.702,0.79-3.702c0.042,0.041,0.055,0.041,0.096,0.062L264.895,410.202z M267.321,407.42
		c17.729,1.436,21.891,12.858,21.981,13.477c0.178,1.428,1.071,3.063-1.498,4.554c-0.605,0.351-2.968,0.859-4.458,0.22
		C282.363,425.245,274.835,421.845,267.321,407.42z M321.365,386.888c-7.198,7.748-17.419,13.278-30.161,13.285
		c-8.682,0-18.656-2.617-29.743-9.129l43.811-48.254c0.501,0.865,1.03,1.71,1.608,2.493c4.121,5.522,9.836,9.61,16.06,13.182
		c3.001,1.696,6.14,3.236,9.3,4.664C331.669,370.85,327.966,379.793,321.365,386.888z"/>
</g>
</svg>