<?xml version="1.0" encoding="utf-8"?>

<!DOCTYPE svg PUBLIC "-//W3C//DTD SVG 1.1//EN" "http://www.w3.org/Graphics/SVG/1.1/DTD/svg11.dtd">
<!-- Uploaded to: SVG Repo, www.svgrepo.com, Generator: SVG Repo Mixer Tools -->
<svg height="800px" width="800px" version="1.1" id="_x32_" xmlns="http://www.w3.org/2000/svg" xmlns:xlink="http://www.w3.org/1999/xlink" 
	 viewBox="0 0 512 512"  xml:space="preserve">
<style type="text/css">
	.st0{fill:#000000;}
</style>
<g>
	<path class="st0" d="M432.567,404.453c-10.743-18.333-27.366-29.358-43.364-36.715c-5.09-2.342-10.138-4.307-14.995-6.052
		c3.366-3.785,5.262-8.861,4.774-14.301c-0.432-4.794-2.665-8.95-5.914-12.021c2.652-3.592,4.108-8.084,3.675-12.879
		c-0.598-6.587-4.5-12.062-9.912-14.981c3.572-3.806,5.626-9.019,5.117-14.631c-0.577-6.374-4.258-11.691-9.404-14.672
		c3.696-3.655,5.853-8.806,5.351-14.377c-0.652-7.24-5.53-13.044-11.959-15.318c4.245-3.338,7.94-7.851,11.1-13.827
		c3.572-6.76,6.738-15.408,10.118-27.222c1.71-6.004,2.5-11.21,2.5-15.84c0-1.16-0.075-2.273-0.172-3.359
		c1.415-6.114,2.899-13.958,4.465-24.144C394.499,95.534,357.572,0,256.763,0c-100.81,0-137.737,95.534-127.186,164.114
		c1.236,8.043,2.418,14.583,3.558,20.037c-0.522,2.294-0.797,4.794-0.797,7.466c0.007,4.644,0.797,9.85,2.508,15.84
		c4.519,15.743,8.6,25.91,13.882,33.37c2.136,2.995,4.56,5.392,7.123,7.439c-6.746,2.102-11.904,8.078-12.578,15.558
		c-0.501,5.571,1.656,10.722,5.351,14.377c-5.144,2.981-8.826,8.298-9.404,14.672c-0.508,5.612,1.539,10.826,5.118,14.631
		c-5.413,2.919-9.321,8.394-9.912,14.981c-0.433,4.794,1.023,9.287,3.675,12.879c-3.25,3.071-5.482,7.227-5.915,12.021
		c-0.495,5.454,1.415,10.537,4.801,14.322c-14.864,5.372-31.631,13.058-45.164,26.562c-14.006,13.896-23.952,34.27-23.862,62.212
		c0,3.558,0.151,7.24,0.467,11.06c0.213,2.376,1.051,4.348,2.06,6.031c1.931,3.132,4.548,5.557,7.831,8.03
		c5.742,4.266,13.724,8.449,24.083,12.591C133.423,500.515,185.881,511.98,256,512c56.971,0,102.327-7.611,133.931-17.042
		c15.812-4.733,28.17-9.885,37.044-14.996c4.451-2.582,8.03-5.117,10.86-7.871c1.415-1.388,2.652-2.844,3.675-4.52
		c1.01-1.683,1.848-3.654,2.054-6.031c0.323-3.82,0.474-7.487,0.474-11.032C444.052,431.888,439.725,416.638,432.567,404.453z
		 M166.277,337.906c3.242-3.064,5.474-7.227,5.908-12.021c0.508-5.612-1.539-10.826-5.118-14.631
		c5.42-2.913,9.314-8.394,9.912-14.982c0.549-6.148-1.944-11.828-6.189-15.682c0.701-0.44,1.401-0.879,2.034-1.415
		c6.746,13.34,15.029,23.018,21.514,30.224c0,11.526,0,14.954,0,22.537c0,0.934-0.371,2.28-1.82,4.204
		c-2.123,2.857-6.526,6.319-11.753,9.252c-3.428,1.951-7.15,3.626-10.819,5.145C170.303,345.833,168.874,341.436,166.277,337.906z
		 M179.768,363.177c5.042-2.28,10.139-4.953,14.741-8.153c3.908-2.734,7.487-5.804,10.331-9.527c0.66-0.866,1.271-1.793,1.841-2.754
		l43.858,48.302c-11.087,6.512-21.06,9.129-29.743,9.129c-12.742-0.007-22.963-5.536-30.162-13.285
		C184.041,379.807,180.338,370.891,179.768,363.177z M247.75,410.202l-0.892-3.641c0.041-0.02,0.062-0.02,0.102-0.062
		C246.96,406.5,247.38,408.615,247.75,410.202z M245.319,407.42c-7.494,14.425-15.05,17.825-16.025,18.25
		c-1.49,0.639-3.86,0.131-4.458-0.22c-2.562-1.49-1.676-3.125-1.49-4.554C223.427,420.279,227.597,408.856,245.319,407.42z
		 M255.203,495.734c-31.178-32.532-52.98-81.94-58.421-94.991c6.814,3.984,14.899,6.47,24.014,6.464
		c1.257,0,2.541-0.062,3.833-0.158c-12.968,7.94-12.474,18.945-7.886,23.726c9.884,10.276,23.788,0.357,32.202-15.758
		c-4.636,11.28-13.477,41.296-13.477,41.296s4.684,2.123,9.363,2.123c2.122-19.968,11.45-47.54,11.492-47.65
		c0.034,0.11,9.369,27.682,11.492,47.65c4.678,0,9.355-2.123,9.355-2.123s-8.84-30.017-13.47-41.296
		c8.415,16.115,22.317,26.034,32.194,15.758c4.589-4.768,5.09-15.764-7.83-23.698c1.051,0.069,2.109,0.131,3.139,0.131
		c8.716,0.007,16.478-2.294,23.1-5.983C307.497,417.222,285.681,464.831,255.203,495.734z M264.895,410.202
		c0.364-1.587,0.79-3.702,0.79-3.702c0.042,0.041,0.055,0.041,0.096,0.062L264.895,410.202z M267.32,407.42
		c17.73,1.436,21.892,12.858,21.981,13.477c0.179,1.428,1.072,3.063-1.497,4.554c-0.605,0.351-2.968,0.859-4.458,0.22
		C282.363,425.245,274.835,421.845,267.32,407.42z M321.365,386.888c-7.198,7.748-17.419,13.278-30.161,13.285
		c-8.682,0-18.656-2.617-29.743-9.129l43.811-48.254c0.501,0.865,1.03,1.71,1.608,2.493c4.121,5.522,9.836,9.61,16.06,13.182
		c3.001,1.696,6.14,3.236,9.3,4.664C331.669,370.85,327.966,379.793,321.365,386.888z M341.231,350.174
		c-5.715-2.432-11.238-5.22-15.442-8.167c-2.905-2.033-5.144-4.122-6.443-5.894c-1.312-1.82-1.669-3.077-1.682-4.177
		c0-7.583,0-11.01,0-22.537c6.409-7.13,14.603-16.651,21.308-29.77c0.453,0.343,0.927,0.66,1.408,0.961
		c-4.239,3.854-6.738,9.534-6.189,15.682c0.591,6.587,4.492,12.069,9.912,14.982c-3.579,3.805-5.626,9.019-5.118,14.631
		c0.432,4.794,2.665,8.957,5.908,12.021C342.364,341.34,340.969,345.613,341.231,350.174z M345.523,237.062
		c-1.793,1.244-3.847,2.226-6.539,3.188l-4.231,1.511l-0.784,4.43c-4.953,27.73-19.24,43.323-29.79,55.076l-1.985,2.205v2.974
		c0,14.061,0,17.276,0,25.49c0,1.175,0.123,2.315,0.316,3.428L256,386.58l-46.531-51.243c0.193-1.099,0.337-2.226,0.337-3.4
		c0-8.215,0-11.423,0-25.49v-2.974l-1.985-2.205c-10.551-11.753-24.839-27.345-29.791-55.076l-0.783-4.43l-4.232-1.511
		c-2.692-0.962-4.746-1.944-6.539-3.188c-2.644-1.868-5.042-4.416-7.844-9.643c-2.768-5.193-5.702-12.949-8.909-24.207
		c-0.742-2.603-1.223-4.884-1.518-6.889c1.552-4.534,2.974-9.85,4.279-14.123c0.11-0.048,0.192-0.123,0.309-0.172
		c1.045-0.405,2.15-0.556,2.775-0.604l4.232,0.9c10.077,28.534,9.898,34.441,9.672,35.513c9.143-24.103-23.746-71.286,87.291-64.272
		c111.037-7.014,78.148,40.169,87.291,64.272c-0.226-1.072-0.398-7.102,9.919-36.199l2.067-0.22c0.488-0.014,2.96,0.226,4.589,1.312
		c0.274,0.172,0.515,0.399,0.762,0.611c0.865,2.906,1.779,6.196,2.748,9.356c-0.104,2.706-0.618,6.154-1.862,10.516
		c-4.265,15.03-8.091,23.768-11.602,28.617C348.917,234.274,347.309,235.812,345.523,237.062z"/>
</g>
</svg>