<?xml version="1.0" encoding="utf-8"?>

<!DOCTYPE svg PUBLIC "-//W3C//DTD SVG 1.1//EN" "http://www.w3.org/Graphics/SVG/1.1/DTD/svg11.dtd">
<!-- Uploaded to: SVG Repo, www.svgrepo.com, Generator: SVG Repo Mixer Tools -->
<svg height="800px" width="800px" version="1.1" id="_x32_" xmlns="http://www.w3.org/2000/svg" xmlns:xlink="http://www.w3.org/1999/xlink" 
	 viewBox="0 0 512 512"  xml:space="preserve">
<style type="text/css">
	.st0{fill:#000000;}
</style>
<g>
	<path class="st0" d="M432.567,404.453c-10.743-18.333-27.366-29.358-43.356-36.715c-16.005-7.35-31.845-11.32-41.365-14.919
		c-7.899-2.926-16.238-6.732-22.049-10.812c-2.913-2.033-5.152-4.122-6.444-5.894c-1.319-1.82-1.676-3.077-1.69-4.177
		c0-7.082,0-10.474,0-20.263c20.209-2.961,91.124-28.816,80.642-108.873C382.108,79.062,344.631,0,258.521,0
		c-1.511,0-2.968,0.096-4.465,0.138C252.573,0.096,251.117,0,249.592,0c-86.11,0-123.573,79.062-139.784,202.8
		c-11.334,86.597,72.592,109.786,84.53,109.168c0,9.541,0,12.968,0,19.968c0,0.934-0.371,2.28-1.813,4.204
		c-2.129,2.857-6.526,6.319-11.76,9.252c-5.206,2.968-11.21,5.529-16.458,7.384c-6.443,2.267-15.702,4.808-25.841,8.387
		c-15.221,5.392-32.669,13.161-46.64,27.105c-13.999,13.896-23.946,34.27-23.863,62.212c0,3.558,0.151,7.24,0.467,11.06
		c0.22,2.376,1.058,4.348,2.061,6.031c1.937,3.132,4.547,5.557,7.831,8.03c5.742,4.266,13.724,8.449,24.082,12.591
		c31.021,12.323,83.485,23.787,153.604,23.808c56.971,0,102.32-7.611,133.931-17.042c15.812-4.733,28.163-9.885,37.037-14.996
		c4.451-2.582,8.037-5.117,10.867-7.871c1.415-1.388,2.652-2.844,3.668-4.52c1.017-1.683,1.855-3.654,2.061-6.031
		c0.316-3.82,0.467-7.487,0.467-11.032C444.053,431.888,439.725,416.638,432.567,404.453z M163.757,253.143l0.014,0.007
		c0.014,0.02,0.014,0.034,0.014,0.034C163.771,253.184,163.771,253.156,163.757,253.143z M178.03,246.191l-0.783-4.43l-4.231-1.511
		c-2.693-0.962-4.74-1.944-6.539-3.188c-2.638-1.868-5.042-4.416-7.845-9.643c-2.761-5.193-5.701-12.949-8.902-24.207
		c-1.415-4.925-1.91-8.751-1.91-11.594c0-3.297,0.632-5.234,1.278-6.45c0.975-1.772,2.17-2.528,3.696-3.139
		c1.044-0.405,2.156-0.556,2.775-0.604l1.319,0.282c9.823,29.042,9.658,35.059,9.438,36.131
		c8.723-24.103-22.64-71.286,83.266-64.272c1.552-0.104,2.968-0.152,4.464-0.234c1.497,0.083,2.912,0.131,4.465,0.234
		c105.92-7.014,74.543,40.169,83.266,64.272c-0.206-1.072-0.385-7.047,9.356-35.897l4.904-0.522
		c0.481-0.014,2.954,0.226,4.589,1.312c0.88,0.564,1.607,1.223,2.267,2.439c0.645,1.216,1.277,3.146,1.291,6.45
		c0,2.844-0.508,6.663-1.909,11.594c-4.273,15.03-8.092,23.768-11.608,28.617c-1.758,2.446-3.366,3.984-5.152,5.234
		c-1.786,1.244-3.846,2.226-6.539,3.188l-4.232,1.511l-0.783,4.43c-4.946,27.73-19.233,43.323-29.784,55.076l-1.992,2.205v2.974
		c0,14.061,0,17.276,0,25.49c0,1.175,0.124,2.315,0.316,3.428l-46.503,51.216l-46.53-51.243c0.192-1.099,0.329-2.226,0.329-3.4
		c0-8.215,0-11.423,0-25.49v-2.974l-1.978-2.205C197.277,289.514,182.99,273.922,178.03,246.191z M179.775,363.177
		c5.042-2.28,10.138-4.953,14.741-8.153c3.902-2.734,7.487-5.804,10.33-9.527c0.66-0.866,1.264-1.793,1.842-2.754l43.851,48.302
		c-11.086,6.512-21.06,9.129-29.742,9.129c-12.735-0.007-22.956-5.536-30.155-13.285
		C184.047,379.807,180.339,370.891,179.775,363.177z M247.751,410.202l-0.893-3.641c0.041-0.02,0.069-0.02,0.11-0.062
		C246.967,406.5,247.379,408.615,247.751,410.202z M245.319,407.42c-7.488,14.425-15.043,17.825-16.019,18.25
		c-1.498,0.639-3.86,0.131-4.465-0.22c-2.555-1.49-1.676-3.125-1.484-4.554C223.434,420.279,227.597,408.856,245.319,407.42z
		 M255.21,495.734c-31.185-32.532-52.987-81.94-58.427-94.991c6.814,3.984,14.906,6.47,24.014,6.464
		c1.264,0,2.542-0.062,3.833-0.158c-12.968,7.94-12.474,18.945-7.885,23.726c9.891,10.276,23.794,0.357,32.202-15.758
		c-4.63,11.28-13.477,41.296-13.477,41.296s4.685,2.123,9.369,2.123c2.116-19.968,11.443-47.54,11.485-47.65
		c0.042,0.11,9.369,27.682,11.499,47.65c4.671,0,9.356-2.123,9.356-2.123s-8.848-30.017-13.478-41.296
		c8.422,16.115,22.325,26.034,32.202,15.758c4.588-4.768,5.082-15.764-7.831-23.698c1.044,0.069,2.102,0.131,3.132,0.131
		c8.723,0.007,16.485-2.294,23.107-5.983C307.497,417.222,285.681,464.831,255.21,495.734z M264.896,410.202
		c0.371-1.587,0.796-3.702,0.796-3.702c0.042,0.041,0.056,0.041,0.096,0.062L264.896,410.202z M267.327,407.42
		c17.722,1.436,21.884,12.858,21.981,13.477c0.179,1.428,1.071,3.063-1.498,4.554c-0.605,0.351-2.968,0.859-4.465,0.22
		C282.37,425.245,274.842,421.845,267.327,407.42z M321.373,386.888c-7.199,7.748-17.42,13.278-30.169,13.285
		c-8.682,0-18.656-2.617-29.742-9.129l43.81-48.254c0.509,0.865,1.03,1.71,1.607,2.493c4.121,5.522,9.836,9.61,16.06,13.182
		c3.008,1.696,6.142,3.236,9.301,4.664C331.676,370.85,327.967,379.793,321.373,386.888z"/>
</g>
</svg>