<?xml version="1.0" encoding="utf-8"?>

<!DOCTYPE svg PUBLIC "-//W3C//DTD SVG 1.1//EN" "http://www.w3.org/Graphics/SVG/1.1/DTD/svg11.dtd">
<!-- Uploaded to: SVG Repo, www.svgrepo.com, Generator: SVG Repo Mixer Tools -->
<svg height="800px" width="800px" version="1.1" id="_x32_" xmlns="http://www.w3.org/2000/svg" xmlns:xlink="http://www.w3.org/1999/xlink" 
	 viewBox="0 0 512 512"  xml:space="preserve">
<style type="text/css">
	.st0{fill:#000000;}
</style>
<g>
	<path class="st0" d="M256.003,65.54c10.203,21.201,23.276,36.78,38.547,51.487h85.147c-2.64-75.94-55.372-123.61-123.694-116.287
		c-68.317-7.323-121.054,40.348-123.694,116.287h85.147C232.727,102.32,245.798,86.741,256.003,65.54z"/>
	<path class="st0" d="M439.417,403.74c-9.344-13.993-22.355-23.263-35.766-29.846c1.242-6.661,4.732-33.07-6.151-81.552
		c-10.292-45.83-20.5-81.19-18.583-147.542h-53.232c7.825,6.767,17.857,15.464,21.047,18.222c0,2.688,0,4.864,0,6.283l-12.905,68.96
		l-0.093,0.035l-0.766,4.371c-4.89,27.369-18.994,42.762-29.409,54.368l-1.956,2.176v2.934c0,13.887,0,24.012,0,32.11
		c-0.014,5.039,1.943,9.56,4.631,13.173c2.52,3.384,5.688,6.177,9.164,8.688l-36.551,14.803L255.69,420.57l-22.659-49.874
		l-36.009-15.006c3.159-2.362,6.115-4.944,8.481-8.045c2.776-3.631,4.904-8.187,4.904-13.385c0-8.098,0-18.223,0-32.11v-2.934
		l-1.96-2.176c-10.314-11.491-24.206-26.735-29.229-53.593c-0.41-2.687-0.604-4.336-0.604-4.336l-13.336-69.92
		c0-1.41,0-3.543,0-6.168c3.185-2.758,13.222-11.455,21.042-18.222h-53.231c1.921,66.352-8.292,101.712-18.584,147.542
		c-10.781,48.024-7.459,74.388-6.181,81.358c-7.494,3.692-14.852,8.187-21.549,13.932c-7.922,6.794-14.869,15.341-19.764,25.959
		c-4.895,10.609-7.706,23.219-7.698,37.978c0,3.419,0.151,6.961,0.454,10.618c0.229,2.572,1.207,4.652,2.353,6.37
		c2.185,3.217,5.08,5.596,8.706,8.045c6.353,4.204,15.156,8.31,26.422,12.346c33.726,12.028,89.57,23.033,158.755,23.051
		c56.218,0,103.665-7.296,137.532-16.46c16.944-4.591,30.47-9.622,40.247-14.645c4.895-2.528,8.856-5.032,11.997-7.772
		c1.573-1.383,2.948-2.837,4.106-4.565c1.145-1.718,2.123-3.798,2.348-6.37c0.304-3.648,0.454-7.182,0.454-10.592
		C452.714,431.929,447.66,416.076,439.417,403.74z M437.038,460.232l-0.657,0.784c-1.128,1.137-3.397,2.855-6.591,4.67
		c-11.261,6.503-33.488,14.478-63.32,20.558c-29.881,6.107-67.542,10.486-110.467,10.486c-54.871,0-101.154-7.163-133.536-15.931
		c-16.179-4.371-28.907-9.182-37.248-13.49c-4.163-2.133-7.225-4.168-8.921-5.666c-0.727-0.626-1.132-1.11-1.336-1.392
		c-0.237-3.005-0.374-5.912-0.374-8.679c0.026-17.148,4.217-29.66,10.694-39.484c9.688-14.672,25.245-23.651,41.498-29.775
		c8.085-3.049,16.271-5.367,23.782-7.384c7.534-2.026,14.332-3.701,20.002-5.693c3.648-1.295,7.583-2.881,11.513-4.722l40.569,16.9
		l32.881,72.353l33.598-72.017l41.718-16.901c3.508,1.595,7.032,3.058,10.455,4.344c7.57,2.802,17.209,5.014,27.752,8.089
		c15.777,4.556,33.202,10.971,46.186,22.108c6.512,5.569,11.962,12.266,15.874,20.69c3.9,8.433,6.292,18.672,6.301,31.52
		C437.413,454.337,437.268,457.236,437.038,460.232z"/>
	<path class="st0" d="M131.895,137.858H380.11c3.838,0,6.943-3.111,6.943-6.944c0-3.842-3.106-6.943-6.943-6.943H131.895
		c-3.838,0-6.939,3.101-6.939,6.943C124.956,134.746,128.057,137.858,131.895,137.858z"/>
</g>
</svg>