<?xml version="1.0" encoding="utf-8"?>

<!DOCTYPE svg PUBLIC "-//W3C//DTD SVG 1.1//EN" "http://www.w3.org/Graphics/SVG/1.1/DTD/svg11.dtd">
<!-- Uploaded to: SVG Repo, www.svgrepo.com, Generator: SVG Repo Mixer Tools -->
<svg height="800px" width="800px" version="1.1" id="_x32_" xmlns="http://www.w3.org/2000/svg" xmlns:xlink="http://www.w3.org/1999/xlink" 
	 viewBox="0 0 512 512"  xml:space="preserve">
<style type="text/css">
	.st0{fill:#000000;}
</style>
<g>
	<path class="st0" d="M332.641,181.573c0.238-7.394-3.423-12.76-16.116-12.76c-12.702,0-41.626,0-46.865,0
		c-4.613,0-5.82,4.688-5.71,9.023c-4.639-2.635-10.842-2.361-15.892,0.044c0.119-4.353-1.088-9.068-5.71-9.068
		c-5.247,0-34.176,0-46.865,0c-12.693,0-16.354,5.366-16.121,12.76c0.709,21.624,9.468,34.11,31.74,34.11
		c20.619,0,32.281-16.725,36.383-33.361c0.158-0.634,0.286-1.348,0.388-2.106l16.227-0.353c0.106,0.89,0.242,1.736,0.418,2.459
		c4.102,16.636,15.764,33.361,36.374,33.361C323.173,215.683,331.937,203.197,332.641,181.573z"/>
	<path class="st0" d="M256.002,226.38c-17.359,0-46.865,11.279-49.468,42.525c0,0,38.185-6.943,49.468-26.902
		c11.283,19.959,49.468,26.902,49.468,26.902C302.867,237.659,273.361,226.38,256.002,226.38z"/>
	<path class="st0" d="M256.002,65.541c8.627,17.914,19.311,31.784,31.616,44.542h91.852c-5.49-71.92-57.222-116.445-123.468-109.343
		c-66.242-7.102-117.975,37.422-123.468,109.343h91.852C236.691,97.325,247.38,83.456,256.002,65.541z"/>
	<path class="st0" d="M439.416,403.741c-9.349-13.993-22.355-23.264-35.767-29.846c1.243-6.661,4.732-33.079-6.15-81.552
		c-10.442-46.507-20.826-82.159-18.518-150.431c0.146-1.383,0.132-2.688,0.238-4.053h-61.562
		c6.133,5.296,24.549,21.244,29.074,25.165c0,2.688,0,4.864,0,6.283l-12.904,68.96l-0.092,0.035l-0.767,4.371
		c-4.89,27.369-18.994,42.762-29.409,54.368l-1.956,2.176v2.934c0,13.886,0,24.011,0,32.11c-0.018,5.039,1.943,9.56,4.631,13.173
		c2.52,3.384,5.688,6.177,9.164,8.688l-36.551,14.803l-23.157,49.645l-22.659-49.874l-36.009-15.006
		c3.159-2.362,6.116-4.944,8.481-8.045c2.776-3.631,4.904-8.187,4.904-13.385c0-8.098,0-18.223,0-32.11v-2.934l-1.961-2.176
		c-10.314-11.491-24.206-26.735-29.228-53.593c-0.41-2.687-0.604-4.336-0.604-4.336l-13.336-69.92c0-1.41,0-3.542,0-6.168
		c4.52-3.921,22.936-19.87,29.074-25.165h-61.567c0.11,1.365,0.096,2.67,0.238,4.053c2.313,68.272-8.076,103.924-18.518,150.431
		c-10.781,48.024-7.458,74.388-6.185,81.358c-7.49,3.692-14.848,8.186-21.545,13.932c-7.922,6.794-14.87,15.341-19.765,25.958
		c-4.894,10.61-7.706,23.219-7.697,37.978c0,3.419,0.15,6.961,0.454,10.618c0.229,2.572,1.207,4.652,2.352,6.37
		c2.186,3.216,5.08,5.596,8.706,8.045c6.353,4.204,15.156,8.31,26.422,12.346c33.726,12.028,89.57,23.033,158.755,23.051
		c56.218,0,103.664-7.296,137.532-16.46c16.945-4.591,30.471-9.622,40.248-14.645c4.895-2.528,8.855-5.032,11.997-7.772
		c1.572-1.384,2.947-2.837,4.106-4.565c1.145-1.718,2.123-3.798,2.348-6.37c0.304-3.648,0.454-7.182,0.454-10.591
		C452.713,431.929,447.66,416.076,439.416,403.741z M437.037,460.232l-0.656,0.784c-1.128,1.137-3.397,2.855-6.592,4.67
		c-11.261,6.503-33.488,14.478-63.32,20.558c-29.884,6.107-67.541,10.486-110.467,10.486c-54.874,0-101.153-7.163-133.536-15.931
		c-16.178-4.371-28.906-9.182-37.246-13.49c-4.164-2.133-7.226-4.168-8.922-5.666c-0.726-0.625-1.132-1.11-1.334-1.392
		c-0.238-3.005-0.374-5.912-0.374-8.679c0.026-17.148,4.216-29.66,10.692-39.484c9.689-14.672,25.246-23.65,41.494-29.774
		c8.089-3.049,16.275-5.367,23.787-7.384c7.534-2.027,14.332-3.701,20.002-5.693c3.648-1.295,7.578-2.881,11.512-4.722l40.569,16.9
		l32.88,72.353l33.599-72.017l41.719-16.901c3.507,1.596,7.032,3.058,10.455,4.344c7.565,2.802,17.209,5.014,27.753,8.089
		c15.777,4.556,33.201,10.971,46.186,22.108c6.512,5.569,11.962,12.266,15.874,20.69c3.899,8.433,6.3,18.672,6.304,31.52
		C437.416,454.337,437.275,457.236,437.037,460.232z"/>
	<path class="st0" d="M131.749,130.914h248.21c3.838,0,6.944-3.11,6.944-6.943c0-3.842-3.106-6.943-6.944-6.943h-248.21
		c-3.841,0-6.943,3.101-6.943,6.943C124.806,127.804,127.908,130.914,131.749,130.914z"/>
</g>
</svg>