<?xml version="1.0" encoding="utf-8"?>

<!DOCTYPE svg PUBLIC "-//W3C//DTD SVG 1.1//EN" "http://www.w3.org/Graphics/SVG/1.1/DTD/svg11.dtd">
<!-- Uploaded to: SVG Repo, www.svgrepo.com, Generator: SVG Repo Mixer Tools -->
<svg height="800px" width="800px" version="1.1" id="_x32_" xmlns="http://www.w3.org/2000/svg" xmlns:xlink="http://www.w3.org/1999/xlink" 
	 viewBox="0 0 512 512"  xml:space="preserve">
<style type="text/css">
	.st0{fill:#000000;}
</style>
<g>
	<path class="st0" d="M500.72,340.037c-8.916-14.432-21.426-22.567-31.504-27.053c-10.106-4.492-17.944-5.474-18.468-5.544
		l-0.249-0.034l-107.091-9.075l-13.326,26.659c-1.106-0.463-2.212-0.926-3.083-1.34c-1.742-0.83-2.958-1.569-3.718-2.156
		c-1.147-0.934-1.341-1.265-1.714-2.157c-0.345-0.885-0.691-2.682-0.677-5.723c0-6.055,0-13.257,0-22.221
		c5.488-3.754,10.686-7.88,15.303-12.504c48.493-48.494,44.582-115.531,44.582-117.411c0-1.894,0-32.845,0-40.4
		c0-7.555-4.921-15.102-12.594-15.102c-2.516,0-13.852-27.703-13.852-27.703s1.272,3.146-1.258-11.957
		c-2.502-15.123-36.508-42.19-42.176-45.335c-5.668-3.152-10.7-0.629-10.7,1.887s0,10.064,0,10.064h-16.367v-5.73
		c0-5.516-4.478-10.002-9.994-10.002h-17.708h-17.708c-5.516,0-9.994,4.486-9.994,10.002v5.73h-16.36c0,0,0-7.548,0-10.064
		s-5.039-5.039-10.706-1.887c-5.668,3.144-39.66,30.212-42.176,45.335c-2.523,15.102-1.258,11.957-1.258,11.957
		s-11.335,27.703-13.858,27.703c-7.651,0-12.593,7.548-12.593,15.102c0,7.555,0,38.506,0,40.4c0,1.88-3.905,68.918,44.588,117.411
		c4.548,4.548,9.663,8.612,15.062,12.317c0,9.062,0,16.312,0,22.408c0.007,2.536-0.297,4.188-0.67,5.225
		c-0.609,1.493-1.072,2.177-3.29,3.677c-1.21,0.782-2.979,1.639-5.191,2.557l-13.374-26.742l-107.216,9.089l-0.118,0.02
		c-0.518,0.07-8.356,1.051-18.475,5.544c-10.071,4.486-22.582,12.621-31.504,27.053C3.526,352.679,0.042,369.378,0,387.142
		c0.014,17.03,3.366,35.049,10.306,51.292c0.546,2.344,1.652,4.113,2.806,5.572c2.73,3.282,6.241,5.722,10.831,8.405
		c8.004,4.589,19.346,9.365,33.826,14.148C101.106,480.824,172.374,494.787,256,494.8c67.956,0,127.786-9.248,171.04-20.348
		c21.648-5.557,39.12-11.556,51.631-17.265c6.262-2.869,11.266-5.627,15.15-8.488c1.936-1.451,3.622-2.917,5.073-4.7
		c1.147-1.452,2.267-3.235,2.806-5.571c6.94-16.25,10.285-34.269,10.299-51.286C511.958,369.378,508.474,352.679,500.72,340.037z
		 M41.9,395.892c0,13.506-8.025,25.049-19.519,30.391c-4.451-12.531-6.815-26.237-6.802-39.141
		c-0.041-14.944,3.069-28.615,8.239-37.642c10.7,5.606,18.082,16.657,18.082,29.582V395.892z M327.261,123.608h15.109
		c2.779,0,5.032,2.246,5.032,5.025c0,2.778-2.253,5.039-5.032,5.039h-15.109c-2.778,0-5.032-2.261-5.032-5.039
		C322.229,125.854,324.483,123.608,327.261,123.608z M285.085,61.899c0-2.778,2.254-5.032,5.032-5.032
		c2.779,0,5.046,2.254,5.046,5.032v15.109c0,2.779-2.267,5.039-5.046,5.039c-2.778,0-5.032-2.26-5.032-5.039V61.899z
		 M217.086,61.899c0-2.778,2.254-5.032,5.046-5.032c2.779,0,5.032,2.254,5.032,5.032v15.109c0,2.779-2.254,5.039-5.032,5.039
		c-2.792,0-5.046-2.26-5.046-5.039V61.899z M169.879,123.608h15.11c2.778,0,5.032,2.246,5.032,5.025
		c0,2.778-2.254,5.039-5.032,5.039h-15.11c-2.779,0-5.038-2.261-5.038-5.039C164.84,125.854,167.1,123.608,169.879,123.608z
		 M165.96,211.74v-51.202c0.007-2.053,1.665-3.712,3.712-3.712h172.919c2.033,0,3.691,1.652,3.691,3.712v51.202
		c-0.028,1.569-0.442,3.297-2.502,5.682c-3.055,3.532-10.354,8.121-24.33,11.529c-13.948,3.442-34.393,5.799-63.326,5.792
		c-38.554,0.028-62.081-4.222-75.166-9.51c-6.552-2.619-10.43-5.46-12.489-7.81C166.416,215.037,165.995,213.309,165.96,211.74z
		 M175.947,236.921c3.996,1.617,8.544,3.096,13.81,4.402c15.413,3.788,36.758,6.159,66.367,6.159
		c39.494-0.021,64.253-4.175,79.915-10.423c0.096-0.035,0.166-0.076,0.248-0.11c-5.211,21.496-37.213,62.082-80.164,62.082
		C213.16,299.03,181.145,258.416,175.947,236.921z M306.581,323.643c0.746,2.405,1.962,4.748,3.594,6.718
		c1.949,2.371,4.368,4.058,6.939,5.55L256,373.076l-61.045-37.123c1.59-0.982,3.11-2.053,4.534-3.346
		c2.474-2.281,4.479-5.266,5.626-8.55c1.162-3.283,1.576-6.746,1.576-10.444c0-3.884,0-8.28,0-13.257
		c14.611,7.382,30.163,12.289,43.766,14.729h11.335c13.533-2.426,28.988-7.298,43.531-14.605c0,4.921,0,9.283,0,13.133
		C305.323,317.159,305.585,320.415,306.581,323.643z M378.478,353.675L256,428.156l-122.478-74.481l-18.883-35.14l16.906-1.437
		l13.686,25.477L256,409.937l110.769-67.363l13.699-25.477l16.906,1.437L378.478,353.675z M489.62,426.277
		c-11.488-5.343-19.519-16.879-19.519-30.385v-16.81c0-12.925,7.381-23.977,18.095-29.582c5.17,9.027,8.28,22.698,8.239,37.642
		C496.435,400.046,494.071,413.745,489.62,426.277z"/>
	<polygon class="st0" points="187.068,173.463 187.068,201.338 221.123,173.463 	"/>
</g>
</svg>