<?xml version="1.0" encoding="utf-8"?>

<!DOCTYPE svg PUBLIC "-//W3C//DTD SVG 1.1//EN" "http://www.w3.org/Graphics/SVG/1.1/DTD/svg11.dtd">
<!-- Uploaded to: SVG Repo, www.svgrepo.com, Generator: SVG Repo Mixer Tools -->
<svg height="800px" width="800px" version="1.1" id="_x32_" xmlns="http://www.w3.org/2000/svg" xmlns:xlink="http://www.w3.org/1999/xlink" 
	 viewBox="0 0 512 512"  xml:space="preserve">
<style type="text/css">
	.st0{fill:#000000;}
</style>
<g>
	<path class="st0" d="M403.764,474.139h-52.23c-2.142,0-3.863,1.738-3.863,3.871v15.476c0,2.141,1.72,3.862,3.863,3.862h52.23
		c2.124,0,3.862-1.721,3.862-3.862V478.01C407.627,475.877,405.888,474.139,403.764,474.139z"/>
	<path class="st0" d="M507.892,452.764c-2.598-2.194-6.04-3.099-9.392-2.529l-49.106,3.748c-9.358,1.65-18.786-2.651-23.684-10.788
		l-67.118-103.047c3.072-3.748,4.634-8.7,3.774-13.852l-10.095-83.842l4.688-42.294c5.793-33.471-13.466-54.1-28.776-62.852
		c-3.423-1.343-50.479-24.798-71.433-33.488c-29.407-12.194-94.958-12.483-97.342,65.275L24.878,403
		c-6.597,10.682-3.296,24.702,7.392,31.303c10.683,6.61,24.71,3.301,31.303-7.392l105.659-142.524l27.265,64.258l-41.354,76.204
		c-6.733,10.604-3.625,24.658,7.005,31.4c10.587,6.751,24.64,3.616,31.382-6.979c0,0,55.83-75.467,55.838-75.519
		c4.231-11.632,7.524-18.593,7.26-33.358l-12.606-75.554l1.475-1.632l19.892,20.269c3.423,8.024,11.376,13.65,20.646,13.65
		c7.181,0,13.492-3.432,17.592-8.673l21.818,33.042l2.494,10.437c1.211,7.392,6.899,12.868,13.817,14.247l70.7,108.56
		c10.411,17.285,29.109,27.845,49.281,27.845h41.644c4.758,0,8.62-3.854,8.62-8.62v-12.386
		C512,458.18,510.508,454.95,507.892,452.764z M281.383,223.353l28.178-31.312l-3.686,37.667l1.509,15.968l6.338,26.598
		L281.383,223.353z"/>
	<path class="st0" d="M286.272,100.098c22.876,9.472,49.11-1.378,58.591-24.263c9.48-22.868-1.37-49.097-24.263-58.586
		c-22.854-9.472-49.101,1.387-58.582,24.263C252.538,64.37,263.405,90.617,286.272,100.098z"/>
	<path class="st0" d="M159.343,463.974l-6.087-3.784c-2.239-1.396-5.188-0.703-6.571,1.536l-15.74,25.378
		c-1.387,2.238-0.693,5.188,1.545,6.574l6.084,3.775c2.238,1.395,5.192,0.702,6.584-1.545l15.73-25.369
		C162.28,468.301,161.581,465.352,159.343,463.974z"/>
	<path class="st0" d="M24.558,439.236c-2.156-1.518-5.144-0.983-6.646,1.177l-17.06,24.508c-1.501,2.16-0.966,5.144,1.194,6.646
		l5.882,4.091c2.164,1.518,5.144,0.974,6.654-1.186l17.052-24.508c1.506-2.16,0.97-5.144-1.194-6.636L24.558,439.236z"/>
</g>
</svg>