<?xml version="1.0" encoding="utf-8"?>

<!DOCTYPE svg PUBLIC "-//W3C//DTD SVG 1.1//EN" "http://www.w3.org/Graphics/SVG/1.1/DTD/svg11.dtd">
<!-- Uploaded to: SVG Repo, www.svgrepo.com, Generator: SVG Repo Mixer Tools -->
<svg version="1.1" id="_x32_" xmlns="http://www.w3.org/2000/svg" xmlns:xlink="http://www.w3.org/1999/xlink" 
	 width="800px" height="800px" viewBox="0 0 512 512"  xml:space="preserve">
<style type="text/css">
<![CDATA[
	.st0{fill:#000000;}
]]>
</style>
<g>
	<path class="st0" d="M483.073,344.109l-44.938-150.703l-0.266,0.813C432.354,86.031,342.886,0,233.339,0
		C120.229,0,28.526,91.688,28.526,204.797v73.953c0,47.109,15.953,90.469,42.688,125.063V512h239.844v-43.75
		c49.109-20.172,88.625-58.859,109.891-107.375l53.641-4.359c2.906-0.234,5.547-1.766,7.203-4.172
		C483.433,349.922,483.901,346.906,483.073,344.109z M233.323,358.391c-84.688,0-153.594-68.906-153.594-153.594
		S148.636,51.203,233.339,51.203c84.688,0,153.594,68.906,153.594,153.594S318.026,358.391,233.323,358.391z"/>
	<path class="st0" d="M293.511,204.578c-9.891-8.547-24.469-13.672-43.734-15.359l-26-2.219c-9.266-0.969-15.859-3.156-19.766-6.594
		c-3.922-3.406-5.844-8.281-5.844-14.625c0-7.078,2.734-12.813,8.219-17.219c5.484-4.375,13.969-6.563,25.453-6.563
		c8.781,0,17.141,1.031,25.063,3.094c7.938,2.078,17.141,8.656,17.141,8.656c2.109,1.063,4.672,0.641,6.328-1.047l15.531-15.766
		c1.203-1.234,1.766-2.938,1.5-4.641s-1.297-3.172-2.813-3.984c0,0-12.188-9.5-23.781-12.688c-8.469-2.313-17.625-3.75-27.469-4.391
		V93.188h-24.594v18.563c-4.781,0.609-9.406,1.5-13.813,2.781c-8.422,2.438-15.813,6.094-22.156,10.984s-11.344,10.859-15,17.938
		c-3.672,7.078-5.5,15.141-5.5,24.156c0,16.344,4.766,28.547,14.281,36.609c9.516,8.031,23.063,12.938,40.625,14.641l29.656,2.563
		c9.031,0.984,15.438,3.297,19.219,6.953s5.672,8.656,5.672,15c0,8.797-3.844,15.25-11.531,19.406S242.823,269,231.104,269
		c-9.281,0-18.609-1.281-28.016-3.844c-9.391-2.563-21.781-13.313-21.781-13.313c-2.141-1.313-4.891-0.984-6.672,0.781
		l-16.563,16.563c-1.188,1.188-1.766,2.875-1.563,4.531s1.188,3.125,2.625,4c0,0,16.922,14.281,29.875,17.813
		c9.328,2.563,19.25,4.172,29.734,4.875v13.625h24.594v-13.875c6.422-0.594,12.656-1.469,18.516-2.969
		c9.516-2.438,17.688-6.156,24.516-11.156s12.203-11.172,16.109-18.484c3.906-7.328,5.859-15.859,5.859-25.641
		C308.339,225.563,303.401,213.125,293.511,204.578z"/>
</g>
</svg>