<?xml version="1.0" encoding="utf-8"?>

<!DOCTYPE svg PUBLIC "-//W3C//DTD SVG 1.1//EN" "http://www.w3.org/Graphics/SVG/1.1/DTD/svg11.dtd">
<!-- Uploaded to: SVG Repo, www.svgrepo.com, Generator: SVG Repo Mixer Tools -->
<svg version="1.1" id="_x32_" xmlns="http://www.w3.org/2000/svg" xmlns:xlink="http://www.w3.org/1999/xlink" 
	 width="800px" height="800px" viewBox="0 0 512 512"  xml:space="preserve">
<style type="text/css">
<![CDATA[
	.st0{fill:#000000;}
]]>
</style>
<g>
	<path class="st0" d="M483.073,344.109l-44.938-150.703l-0.266,0.813C432.354,86.031,342.886,0,233.339,0
		C120.229,0,28.526,91.688,28.526,204.797v73.953c0,47.109,15.953,90.469,42.688,125.063V512h239.844v-43.75
		c49.109-20.172,88.625-58.859,109.891-107.375l53.641-4.359c2.906-0.234,5.547-1.766,7.203-4.172
		C483.433,349.922,483.901,346.906,483.073,344.109z M243.745,309.5c-5.406,2.406-16.281,6.609-16.281,6.609
		c-0.25,0.094-0.531,0.141-0.797,0.141s-0.531-0.047-0.781-0.141c0,0-10.891-4.203-16.281-6.609
		c-85.375-37.75-99.656-95.625-99.656-125.938c0-32.219,26.125-58.359,58.359-58.359s58.359,26.141,58.359,58.359
		c0-32.219,26.125-58.359,58.359-58.359s58.359,26.141,58.359,58.359C343.386,213.875,329.104,271.75,243.745,309.5z"/>
</g>
</svg>