<?xml version="1.0" encoding="utf-8"?>

<!DOCTYPE svg PUBLIC "-//W3C//DTD SVG 1.1//EN" "http://www.w3.org/Graphics/SVG/1.1/DTD/svg11.dtd">
<!-- Uploaded to: SVG Repo, www.svgrepo.com, Generator: SVG Repo Mixer Tools -->
<svg version="1.1" id="_x32_" xmlns="http://www.w3.org/2000/svg" xmlns:xlink="http://www.w3.org/1999/xlink" 
	 width="800px" height="800px" viewBox="0 0 512 512"  xml:space="preserve">
<style type="text/css">
<![CDATA[
	.st0{fill:#000000;}
]]>
</style>
<g>
	<path class="st0" d="M285.276,190.797h-39.422v-58c0-7.734-6.266-14-14-14s-14,6.266-14,14v72c0,7.734,6.266,14,14,14h53.422
		c7.734,0,14.016-6.266,14.016-14S293.011,190.797,285.276,190.797z"/>
	<path class="st0" d="M483.073,344.109l-44.938-150.703l-0.266,0.813C432.354,86.031,342.886,0,233.339,0
		C120.229,0,28.526,91.688,28.526,204.797v73.953c0,47.109,15.953,90.469,42.688,125.063V512h239.844v-43.75
		c49.109-20.172,88.625-58.859,109.891-107.375l53.641-4.359c2.906-0.234,5.547-1.766,7.203-4.172
		C483.433,349.922,483.901,346.906,483.073,344.109z M233.323,358.391c-84.688,0-153.594-68.906-153.594-153.594
		S148.636,51.203,233.339,51.203c84.688,0,153.594,68.906,153.594,153.594S318.026,358.391,233.323,358.391z"/>
	<path class="st0" d="M242.651,88.031c0,7.078-5.719,12.813-12.797,12.813c-7.063,0-12.797-5.734-12.797-12.813
		c0-7.063,5.734-12.781,12.797-12.781C236.933,75.25,242.651,80.969,242.651,88.031z"/>
	<path class="st0" d="M242.651,324.031c0,7.078-5.719,12.813-12.797,12.813c-7.063,0-12.797-5.734-12.797-12.813
		c0-7.063,5.734-12.781,12.797-12.781C236.933,311.25,242.651,316.969,242.651,324.031z"/>
	<path class="st0" d="M155.464,113.563c5,5,5,13.094,0,18.094s-13.094,5-18.094,0s-5-13.094,0-18.094
		S150.464,108.563,155.464,113.563z"/>
	<path class="st0" d="M322.339,280.438c5,5,5,13.094,0,18.094s-13.094,5-18.094,0s-5-13.094,0-18.094
		S317.339,275.438,322.339,280.438z"/>
	<path class="st0" d="M111.854,193.25c7.078,0,12.797,5.719,12.797,12.781c0,7.078-5.734,12.813-12.797,12.813
		c-7.078,0-12.797-5.719-12.797-12.797S104.792,193.25,111.854,193.25z"/>
	<path class="st0" d="M347.854,193.25c7.078,0,12.797,5.719,12.797,12.781c0,7.078-5.719,12.813-12.797,12.813
		c-7.063,0-12.797-5.734-12.797-12.813C335.058,198.969,340.776,193.25,347.854,193.25z"/>
	<path class="st0" d="M137.37,280.438c5-5,13.094-5,18.094,0s5,13.094,0,18.094s-13.094,5-18.094,0S132.37,285.438,137.37,280.438z"
		/>
	<path class="st0" d="M304.245,113.563c5-5,13.109-5,18.094,0c5,5,5,13.094,0,18.094s-13.094,5-18.094,0
		S299.245,118.563,304.245,113.563z"/>
</g>
</svg>