<?xml version="1.0" encoding="utf-8"?>

<!DOCTYPE svg PUBLIC "-//W3C//DTD SVG 1.1//EN" "http://www.w3.org/Graphics/SVG/1.1/DTD/svg11.dtd">
<!-- Uploaded to: SVG Repo, www.svgrepo.com, Generator: SVG Repo Mixer Tools -->
<svg height="800px" width="800px" version="1.1" id="_x32_" xmlns="http://www.w3.org/2000/svg" xmlns:xlink="http://www.w3.org/1999/xlink" 
	 viewBox="0 0 512 512"  xml:space="preserve">
<style type="text/css">
	.st0{fill:#000000;}
</style>
<g>
	<path class="st0" d="M494.016,230.848c-10.059-10.088-23.744-16.689-38.862-17.788c-9.444-44.385-33.16-83.464-66.131-112.151
		c-36.034-31.351-83.247-50.369-134.752-50.362c-51.44-0.007-98.582,18.954-134.594,50.232
		c-33.152,28.767-56.983,68.042-66.391,112.643c-13.692,1.81-26.031,8.142-35.302,17.427C6.897,241.92-0.007,257.356,0,274.27
		c-0.007,16.905,6.897,32.356,17.984,43.415c11.072,11.094,26.509,17.99,43.422,17.983c1.165,0,2.322-0.058,3.466-0.123
		c14.786,35.172,39.015,65.35,69.562,87.336c33.702,24.273,75.162,38.58,119.837,38.573c44.868,0.006,86.489-14.438,120.263-38.892
		c30.431-22.022,54.545-52.193,69.25-87.321c2.236,0.253,4.508,0.427,6.824,0.427c16.905,0.007,32.349-6.89,43.407-17.983
		c11.095-11.058,17.992-26.51,17.984-43.415C512.008,257.356,505.11,241.92,494.016,230.848z M231.604,80.356
		c7.425-0.948,14.98-1.47,22.666-1.47c10.413,0,20.603,0.926,30.51,2.656c1.028,1.172,2.092,2.54,3.142,4.133
		c4.486,6.788,8.995,17.455,9.024,34.332c0.007,12.766-2.678,29.143-10.262,49.768c-23.918-19.228-37.531-36.945-45.253-51.549
		c-8.38-15.907-9.892-28.202-9.9-35.324C231.532,81.948,231.561,81.115,231.604,80.356z M214.533,83.373
		c0.05,9.618,2.301,24.692,11.868,42.792c4.277,8.112,10.016,16.818,17.636,25.937c-7.613-3.068-15.226-5.927-22.398-8.959
		c-12.324-5.196-23.144-11-30.467-18.736c-3.684-3.879-6.579-8.214-8.648-13.461c-1.701-4.364-2.786-9.459-3.126-15.465
		C190.535,90.277,202.28,86.174,214.533,83.373z M473.977,297.645c-6.021,6.006-14.199,9.675-23.368,9.69
		c-3.807-0.007-7.44-0.68-10.957-1.91l-13.418-4.718l-4.667,13.432c-12.021,34.599-34.499,64.372-63.642,85.468
		c-29.166,21.088-64.887,33.5-103.655,33.506c-38.602-0.006-74.186-12.31-103.279-33.231
		c-29.078-20.922-51.563-50.471-63.714-84.832l-4.4-12.433l-12.715,3.495c-2.902,0.789-5.797,1.224-8.756,1.224
		c-9.176-0.015-17.348-3.684-23.383-9.69c-6-6.029-9.669-14.199-9.676-23.376c0.007-9.176,3.676-17.347,9.676-23.383
		c6.035-6,14.206-9.668,23.383-9.676c0.579-0.006,1.44,0.044,2.634,0.138l13.143,1.034l1.976-13.048
		c6.419-42.56,27.992-80.164,59.09-107.158c7.772-6.737,16.124-12.809,24.982-18.135c0.767,4.805,1.947,9.314,3.604,13.446
		c2.613,6.564,6.275,12.252,10.617,17.108c7.606,8.525,17.123,14.518,27.059,19.431c14.923,7.338,31.053,12.412,44.602,18.736
		c6.773,3.148,12.874,6.564,17.868,10.501c5.016,3.959,8.923,8.351,11.71,13.685c1.505,2.887,4.486,4.653,7.743,4.581
		c3.25-0.08,6.159-1.982,7.519-4.943c14.692-31.842,19.996-56.896,20.004-76.58c0.014-13.418-2.511-24.28-6.072-32.827
		c23.288,7.388,44.5,19.438,62.542,35.114c31.111,27.066,52.663,64.778,59.01,107.425l2.084,14.076l14.069-2.15
		c1.874-0.282,3.524-0.434,5.022-0.434c9.169,0.008,17.347,3.676,23.368,9.676c6.007,6.036,9.676,14.206,9.69,23.383
		C483.653,283.446,479.984,291.616,473.977,297.645z"/>
	<path class="st0" d="M256,293.165c-17.21,0-31.17,23.259-31.17,51.954s13.96,51.954,31.17,51.954
		c17.224,0,31.176-23.26,31.176-51.954S273.224,293.165,256,293.165z"/>
	<path class="st0" d="M216.667,238.222l-2.28-1.715c-2.2-1.635-4.552-2.967-7.063-4.176c-4.371-2.091-9.206-3.792-14.105-5.262
		c-7.331-2.186-14.771-3.821-20.444-4.921c-5.66-1.107-9.538-1.679-9.64-1.701c-4.885-0.716-9.415,2.663-10.132,7.541
		c-0.716,4.878,2.656,9.408,7.534,10.124l0.073,0.014c0.868,0.13,9.466,1.447,19.069,3.786c3.561,0.861,7.266,1.866,10.726,2.974
		c-0.717,0.362-1.44,0.724-2.186,1.086c-5.536,2.721-11.514,5.493-16.088,7.578c-2.287,1.042-4.226,1.91-5.594,2.518
		c-0.68,0.304-1.216,0.543-1.578,0.702c-0.369,0.159-0.557,0.246-0.557,0.246c-4.516,1.983-6.571,7.244-4.588,11.76
		c1.982,4.523,7.251,6.571,11.76,4.588c0.058-0.021,10.37-4.552,20.814-9.567c5.224-2.511,10.457-5.131,14.626-7.476
		c2.091-1.18,3.894-2.266,5.529-3.444c0.825-0.616,1.607-1.216,2.533-2.186c0.463-0.499,0.984-1.1,1.57-2.084
		c0.29-0.5,0.593-1.101,0.854-1.889c0.253-0.788,0.47-1.773,0.47-2.952c0-0.847-0.123-1.831-0.442-2.83L216.667,238.222z"/>
	<path class="st0" d="M347.742,220.448c-0.158,0.029-9.075,1.338-19.742,3.872c-5.348,1.266-11.131,2.844-16.573,4.777
		c-2.735,0.969-5.376,2.041-7.88,3.235c-2.504,1.208-4.864,2.54-7.056,4.176l-2.214,1.665l-0.883,2.634
		c-0.311,0.897-0.493,1.933-0.493,2.96c0,1.179,0.217,2.164,0.478,2.952c0.528,1.542,1.144,2.403,1.65,3.076
		c1.006,1.26,1.78,1.882,2.562,2.519c1.44,1.136,2.945,2.077,4.703,3.112c3.047,1.795,6.796,3.742,10.798,5.739
		c11.962,5.949,26.14,12.173,26.205,12.202c4.516,1.983,9.784-0.065,11.76-4.588c1.983-4.516-0.072-9.777-4.588-11.76
		c0,0-0.145-0.064-0.434-0.195c-2.208-0.97-12.296-5.457-21.697-10.024c-1.31-0.636-2.598-1.273-3.864-1.91
		c0.767-0.231,1.512-0.477,2.294-0.716c6.477-1.932,13.454-3.466,18.744-4.501c2.648-0.514,4.885-0.912,6.441-1.172
		c0.781-0.123,1.382-0.224,1.794-0.289l0.456-0.072l0.13-0.022c4.878-0.716,8.258-5.247,7.541-10.124
		C357.151,223.111,352.62,219.732,347.742,220.448z"/>
</g>
</svg>