<?xml version="1.0" encoding="utf-8"?>

<!DOCTYPE svg PUBLIC "-//W3C//DTD SVG 1.1//EN" "http://www.w3.org/Graphics/SVG/1.1/DTD/svg11.dtd">
<!-- Uploaded to: SVG Repo, www.svgrepo.com, Generator: SVG Repo Mixer Tools -->
<svg height="800px" width="800px" version="1.1" id="_x32_" xmlns="http://www.w3.org/2000/svg" xmlns:xlink="http://www.w3.org/1999/xlink" 
	 viewBox="0 0 512 512"  xml:space="preserve">
<style type="text/css">
	.st0{fill:#000000;}
</style>
<g>
	<path class="st0" d="M433.801,407.054c-12.008-17.989-30.248-27.927-47.39-34.388c-8.59-3.24-16.996-5.62-24.398-7.644
		c-7.387-2.011-13.816-3.707-18.134-5.33c-7.546-2.806-15.531-6.441-21.099-10.352c-2.786-1.938-4.922-3.937-6.165-5.639
		c-1.255-1.742-1.604-2.944-1.61-3.996c0-7.237,0-4.739,0-14.835c8.156-9.083,19.291-22.387,26.048-42.19
		c48.335-10.286,75.644-31.305,75.644-31.305s10.648-143.587-74.626-166.02c-4.134-7.743-9.734-14.742-16.294-20.888l13.191-28.039
		l-2.03-3.392c-0.447-0.736-5.606-9.037-18.312-17.154C305.936,7.756,285.738-0.026,256.003,0
		c-29.735-0.026-49.933,7.756-62.625,15.88c-12.712,8.118-17.871,16.419-18.311,17.154l-2.031,3.392l13.192,28.039
		c-6.56,6.146-12.16,13.145-16.294,20.888c-83.598,26.922-74.626,166.02-74.626,166.02s30.458,28.46,79.03,39.995
		c6.737,15.097,15.754,25.804,22.656,33.494c0,10.102,0,7.598,0,14.842c0.007,0.894-0.349,2.182-1.735,4.023
		c-2.031,2.734-6.244,6.046-11.246,8.853c-4.988,2.84-10.727,5.291-15.754,7.066c-5.889,2.09-15.387,4.259-26.028,7.315
		c-15.992,4.62-34.895,11.286-50.275,24.47c-7.677,6.599-14.42,14.881-19.159,25.174c-4.746,10.286-7.467,22.505-7.46,36.814
		c0,3.32,0.145,6.75,0.44,10.3c0.223,2.484,1.17,4.509,2.274,6.178c2.123,3.102,4.93,5.416,8.446,7.788
		c6.158,4.075,14.69,8.058,25.614,11.969c32.693,11.66,86.825,22.334,153.893,22.347c54.494,0,100.49-7.072,133.321-15.958
		c16.425-4.456,29.537-9.326,39.015-14.197c4.746-2.458,8.584-4.877,11.628-7.532c1.524-1.341,2.859-2.748,3.983-4.417
		c1.11-1.67,2.057-3.694,2.274-6.178c0.296-3.55,0.44-6.967,0.44-10.28C446.69,434.376,441.794,419.01,433.801,407.054z
		 M331.431,89.836c6.507,0,11.778,5.271,11.778,11.778c0,6.507-5.271,11.778-11.778,11.778c-6.507,0-11.778-5.271-11.778-11.778
		C319.653,95.107,324.924,89.836,331.431,89.836z M202.337,27.744c10.457-6.402,27.323-12.922,53.666-12.941
		c27.191,0.026,44.286,6.966,54.659,13.559c5.179,3.312,8.675,6.566,10.838,8.906c0.184,0.197,0.296,0.341,0.46,0.526l-8.092,17.181
		c-17.601-12.054-39.002-18.975-57.866-18.975c-18.864,0-40.265,6.921-57.866,18.975l-8.098-17.181
		C192.261,35.296,196.165,31.536,202.337,27.744z M311.24,101.614c0,6.507-5.271,11.778-11.778,11.778
		c-6.507,0-11.778-5.271-11.778-11.778c0-6.507,5.271-11.778,11.778-11.778C305.969,89.836,311.24,95.107,311.24,101.614z
		 M184.433,276.349c-9.208-68.455,9.59-110.796,9.59-110.796l61.98,16.268l61.981-16.268c0,0,20.441,32.048,14.328,94.246
		l-0.96,0.342l-0.743,4.24c-4.739,26.527-18.41,41.454-28.506,52.7l-1.906,2.116v2.84c0,8.256,0,10.076,0,12.054l-43.11,61.231
		l-45.286-62.579c0-1.742,0-4.252,0-10.707v-2.84l-1.9-2.116C201.45,307.668,190.558,295.575,184.433,276.349z M179.431,411.964
		l13.71,21.132h-13.71V411.964z M117.74,479.209c-11.515-3.516-20.796-7.178-27.29-10.529c-4.036-2.07-7.006-4.042-8.649-5.502
		c-0.704-0.604-1.098-1.072-1.295-1.341c-0.23-2.918-0.361-5.738-0.361-8.42c0.006-4.923,0.407-9.406,1.078-13.592h36.518V479.209z
		 M117.74,433.095H82.622c1.808-6.921,4.515-12.836,7.887-17.95c6.75-10.227,16.465-17.569,27.231-23.11V433.095z M172.701,491.158
		c-17.444-2.616-33.034-5.856-46.147-9.405c-0.717-0.197-1.387-0.394-2.084-0.585v-41.342h48.23V491.158z M172.701,433.095h-48.23
		v-44.268c2.064-0.9,4.154-1.748,6.257-2.544c7.848-2.964,15.781-5.212,23.063-7.158c1.262-0.342,2.472-0.657,3.688-0.986
		l15.222,23.458V433.095z M215.548,495.805c-12.758-0.874-24.798-2.136-36.117-3.674v-52.306h18.075l27.184,41.888L215.548,495.805z
		 M206.314,353.473c0.229-0.283,0.512-0.506,0.736-0.796c1.965-2.576,3.576-5.639,4.312-9.063l45.805,63.301l43.774-62.19
		c0.776,2.866,2.084,5.508,3.753,7.749c0.677,0.907,1.453,1.722,2.215,2.556l-49.788,76.71L206.314,353.473z M318.529,493.86
		c-12.173,1.314-25.108,2.287-38.7,2.826l36.893-56.86h1.807V493.86z M382.468,387.02c10.03,3.884,19.843,8.906,27.894,15.814
		c6.31,5.402,11.595,11.89,15.387,20.053c1.433,3.102,2.576,6.56,3.542,10.208h-46.824V387.02z M375.738,484.198
		c-4.062,0.972-8.236,1.932-12.653,2.826c-11.462,2.346-24.148,4.41-37.826,6.073v-53.271h50.478V484.198z M375.738,433.095H325.26
		v-6.422l31.056-47.863c2.997,0.815,6.073,1.656,9.274,2.59c3.326,0.96,6.73,2.025,10.148,3.188V433.095z M431.494,461.818
		l-0.637,0.756c-1.091,1.104-3.293,2.76-6.389,4.528c-8.308,4.798-22.807,10.418-41.999,15.426v-42.702h48.244
		c0.683,4.2,1.144,8.656,1.144,13.612C431.856,456.106,431.718,458.912,431.494,461.818z"/>
</g>
</svg>