<?xml version="1.0" encoding="utf-8"?>

<!DOCTYPE svg PUBLIC "-//W3C//DTD SVG 1.1//EN" "http://www.w3.org/Graphics/SVG/1.1/DTD/svg11.dtd">
<!-- Uploaded to: SVG Repo, www.svgrepo.com, Generator: SVG Repo Mixer Tools -->
<svg height="800px" width="800px" version="1.1" id="_x32_" xmlns="http://www.w3.org/2000/svg" xmlns:xlink="http://www.w3.org/1999/xlink" 
	 viewBox="0 0 512 512"  xml:space="preserve">
<style type="text/css">
	.st0{fill:#000000;}
</style>
<g>
	<path class="st0" d="M255.042,157.586c9.002,0,16.295-11.585,16.295-25.882c0-14.296-7.294-25.881-16.295-25.881
		c-9.002,0-16.296,11.585-16.296,25.881C238.746,146.002,246.04,157.586,255.042,157.586z"/>
	<path class="st0" d="M414.972,428.41c-13.402-29.865-32.662-52.212-48.554-67.211c-7.325-6.905-13.877-12.185-18.958-15.989
		c1.737-2.517,3.411-5.086,4.938-7.744c51.687-32.231,86.106-89.558,86.11-154.958C438.502,81.702,356.802,0.008,256,0
		C155.198,0.008,73.499,81.702,73.491,182.509c0.004,65.399,34.422,122.726,86.11,154.958c1.528,2.658,3.198,5.22,4.932,7.736
		c-8.758,6.56-22.062,17.682-35.628,33.452c-11.398,13.27-22.958,29.85-31.881,49.756c-8.922,19.898-15.176,43.165-15.861,69.421
		L80.79,512h350.418l-0.375-14.169C430.148,471.575,423.894,448.308,414.972,428.41z M365.534,72.978
		c28.054,28.068,45.363,66.71,45.371,109.53c0,5.489-0.304,10.904-0.862,16.236c-2.31-3.82-4.972-7.526-7.979-11.098
		c-12.244-14.574-30.026-27.139-52.901-37.092l-6.118,14.064c21.219,9.218,36.986,20.617,47.268,32.883
		c7.696,9.196,12.376,18.782,14.259,28.63c-7.215,24.615-20.335,46.655-37.807,64.553c0.21-2.808,0.427-5.624,0.427-8.485
		c0-47.666-66.954-88.307-96.942-104.123c36.759-24.167,59.753-45.54,73.985-63.82c12.952-16.61,18.629-30.794,20.613-41.9
		L365.534,72.978z M144.806,282.199c0,2.861,0.218,5.677,0.427,8.485c-25.379-26.001-41.53-60.771-43.697-99.413l0.393,0.187
		c0.293-0.555,17.718-36.696,103.877-80.722l-6.972-13.659c-53.66,27.379-82.159,52.302-96.789,68.612
		c3.891-36.066,20.092-68.373,44.42-92.71C174.541,44.925,213.179,27.611,256,27.603c35.546,0.008,68.106,12.065,94.239,32.164
		c0.086,0.899,0.175,1.813,0.175,2.922c-0.026,8.163-2.846,22.256-18.28,42.146c-15.385,19.8-43.42,45.113-93.1,74.693
		C207.907,196.273,144.806,235.926,144.806,282.199z M109.827,484.397c1.965-16.521,6.436-31.394,12.39-44.693
		c11.402-25.493,28.266-45.203,42.3-58.421c7.01-6.612,13.286-11.592,17.738-14.865c0.262-0.195,0.453-0.322,0.704-0.51
		c19.523,17.09,45.049,27.484,73.042,27.484c27.997,0,53.522-10.394,73.046-27.484c7.486,5.452,20.818,16.184,34.041,31.827
		c9.85,11.638,19.631,25.957,27.049,42.762c5.778,13.09,10.065,27.723,11.994,43.899H109.827z"/>
</g>
</svg>