<?xml version="1.0" encoding="utf-8"?>

<!DOCTYPE svg PUBLIC "-//W3C//DTD SVG 1.1//EN" "http://www.w3.org/Graphics/SVG/1.1/DTD/svg11.dtd">
<!-- Uploaded to: SVG Repo, www.svgrepo.com, Generator: SVG Repo Mixer Tools -->
<svg height="800px" width="800px" version="1.1" id="_x32_" xmlns="http://www.w3.org/2000/svg" xmlns:xlink="http://www.w3.org/1999/xlink" 
	 viewBox="0 0 512 512"  xml:space="preserve">
<style type="text/css">
	.st0{fill:#000000;}
</style>
<g>
	<path class="st0" d="M201.649,359.511c-9.846,0-17.847,7.983-17.847,17.838c0,9.855,8,17.846,17.847,17.846
		c9.863,0,17.846-7.991,17.846-17.846C219.495,367.494,211.512,359.511,201.649,359.511z"/>
	<path class="st0" d="M310.334,359.511c-9.846,0-17.829,7.983-17.829,17.838c0,9.855,7.983,17.846,17.829,17.846
		c9.864,0,17.847-7.991,17.847-17.846C328.181,367.494,320.198,359.511,310.334,359.511z"/>
	<path class="st0" d="M387.738,225.568V53.215C387.738,23.812,363.908,0,334.523,0c-29.385,0-53.214,23.812-53.214,53.215v113.668
		c-8.29-1.214-16.684-2.051-25.316-2.051c-95.866,0.008-173.576,77.71-173.576,173.584c0,95.873,77.711,173.576,173.576,173.584
		c95.881-0.008,173.575-77.711,173.592-173.584C429.584,295.287,413.755,255.92,387.738,225.568z M306.608,53.215
		c0.034-15.419,12.496-27.88,27.914-27.907c15.419,0.026,27.882,12.488,27.916,27.907v2.316l-26.479,29.112l-29.351-26.675V53.215z
		 M306.608,81.642l30.53,27.752l25.3-27.821v33.642l-26.479,29.112l-29.351-26.676V81.642z M306.608,141.328l30.53,27.752
		l25.3-27.813v60.224c-16.514-12.847-35.317-22.872-55.83-29.112V141.328z M141.666,250.484l23.59,19.607l44.531-36.992
		l44.479,36.992l44.445-37l44.428,37l25.795-21.47c2.701,3.384,5.265,6.864,7.642,10.487l-33.436,27.821l-44.428-36.984
		l-44.445,36.975l-44.479-36.983l-44.531,36.983l-31.061-25.804C136.52,257.441,139.015,253.919,141.666,250.484z M358.096,440.504
		c-26.172,26.154-62.189,42.283-102.104,42.291c-39.916-0.008-75.917-16.136-102.088-42.291
		c-21.266-21.282-35.744-49.146-40.463-80.258c23.728-2.855,87.677-14.864,142.55-64.01c53.846,49.232,118.6,61.198,142.566,64.035
		C393.823,391.366,379.344,419.221,358.096,440.504z"/>
</g>
</svg>