<?xml version="1.0" encoding="utf-8"?>

<!DOCTYPE svg PUBLIC "-//W3C//DTD SVG 1.1//EN" "http://www.w3.org/Graphics/SVG/1.1/DTD/svg11.dtd">
<!-- Uploaded to: SVG Repo, www.svgrepo.com, Generator: SVG Repo Mixer Tools -->
<svg height="800px" width="800px" version="1.1" id="_x32_" xmlns="http://www.w3.org/2000/svg" xmlns:xlink="http://www.w3.org/1999/xlink" 
	 viewBox="0 0 512 512"  xml:space="preserve">
<style type="text/css">
	.st0{fill:#000000;}
</style>
<g>
	<path class="st0" d="M430.814,408.817c-11.804-17.682-29.743-27.457-46.592-33.809c-8.444-3.176-16.711-5.525-23.993-7.514
		c-7.257-1.981-13.577-3.649-17.826-5.245c-7.418-2.767-15.269-6.327-20.746-10.176c-2.734-1.908-4.836-3.874-6.062-5.55
		c-1.227-1.708-1.564-2.887-1.58-3.929c0-7.105,0-15.974,0-27.65c4.154-4.202,9.64-8.669,15.092-15.22
		c4.564-5.477,8.789-12.486,11.78-21.724c10.625-2.085,19.912-6.456,27.674-12.222c15.004-11.163,24.626-27.088,30.681-42.044
		c3.024-7.49,5.14-14.772,6.52-21.242c1.371-6.48,2.029-12.085,2.029-16.544c0.039-65.838-18.645-112.597-47.362-142.741
		C331.737,13.047,293.494-0.025,256.004,0c-37.498-0.025-75.742,13.047-104.434,43.207c-28.709,30.144-47.394,76.904-47.362,142.741
		c0.016,5.918,1.156,13.97,3.665,23.264c3.793,13.873,10.69,30.297,22.294,44.025c5.806,6.857,12.822,13.016,21.218,17.643
		c5.902,3.263,12.518,5.669,19.719,7.089c2.999,9.246,7.234,16.271,11.796,21.756c5.454,6.551,10.939,11.018,15.092,15.22
		c0,11.676,0,20.545,0,27.65c0,0.882-0.352,2.149-1.716,3.962c-1.996,2.686-6.134,5.934-11.058,8.701
		c-4.9,2.79-10.546,5.212-15.478,6.945c-5.798,2.061-15.14,4.194-25.597,7.193c-15.725,4.547-34.314,11.098-49.43,24.073
		c-7.547,6.472-14.17,14.619-18.838,24.739c-4.667,10.112-7.345,22.133-7.337,36.19c0,3.264,0.144,6.64,0.433,10.12
		c0.217,2.462,1.147,4.443,2.245,6.079c2.078,3.063,4.836,5.333,8.292,7.666c6.054,4.009,14.442,7.923,25.188,11.764
		c12.574,4.483,28.42,8.813,46.952,12.43l0.04,0.441c0.393-0.032,0.874-0.145,1.275-0.193c28.589,5.494,63.504,9.286,103.039,9.295
		c53.576-0.008,98.804-6.961,131.081-15.694c16.15-4.37,29.037-9.166,38.356-13.953c4.667-2.414,8.444-4.796,11.435-7.41
		c1.5-1.315,2.807-2.695,3.914-4.346c1.09-1.636,2.021-3.617,2.238-6.079c0.288-3.48,0.433-6.84,0.433-10.088
		C443.484,435.681,438.673,420.573,430.814,408.817z M393.244,185.948c0.007,4.01-0.922,11.259-3.16,19.438
		c-3.344,12.333-9.63,27.009-19.35,38.444c-4.86,5.734-10.537,10.666-17.138,14.298c-3.352,1.845-6.944,3.36-10.834,4.483
		c3.537-17.433,5.453-38.252,6.054-53.174l17.843,16.206l8.018-8.814l-102.677-93.238c11.003-9.783,21.123-20.337,29.743-30.954
		c4.323,2.55,19.511,11.756,37.498,24.731c17.915,12.911,38.404,29.575,53.216,46.608
		C392.964,171.016,393.236,178.322,393.244,185.948z M329.62,36.15c7.177,4.828,13.978,10.49,20.265,17.089
		c19.518,20.521,34.418,50.176,40.441,91.066c-15.116-14.899-32.718-28.54-47.922-39.318
		c-15.228-10.785-27.987-18.652-33.328-21.852c6.158-8.508,11.218-16.92,14.811-24.916C327.343,50.473,329.428,43.111,329.62,36.15z
		 M154.898,223.566l9.583-8.196c0.545,9.31,1.532,20.152,3.007,30.818c0.786,5.694,1.724,11.284,2.807,16.584
		c-6.848-1.837-12.871-4.78-18.18-8.693c-11.989-8.846-20.505-22.478-25.846-35.781c-2.686-6.64-4.579-13.168-5.789-18.846
		c-1.211-5.653-1.725-10.521-1.716-13.504c0.008-6.68,0.249-13.08,0.633-19.302c12.31-12.165,33.2-32.18,54.795-51.539
		c11.941-10.698,24.073-21.187,35.012-29.984c10.922-8.781,20.73-15.895,27.602-19.696l-5.79-10.417
		c-8.02,4.475-18.068,11.828-29.27,20.834c-26.616,21.395-59.415,51.956-80.593,72.429c5.614-42.951,20.834-73.856,40.962-95.035
		c25.638-26.904,59.654-38.66,93.889-38.685c13.808,0.016,27.561,2.046,40.769,6.094v0.305c0.393,0,0.69,0.057,1.083,0.057
		c6.287,1.996,12.454,4.418,18.411,7.409c0.144,0.273,0.329,0.498,0.449,0.778c0.682,1.612,1.067,3.593,1.067,6.022
		c0.016,4.716-1.58,11.043-4.771,18.131c-9.51,21.38-32.927,49.182-59.655,70.425l-0.08,0.064l-106.126,90.664L154.898,223.566z
		 M185.556,266.942c-1.026-0.658-1.869-1.243-2.558-1.732c-4.282-18.26-6.592-43.994-7.017-59.655l84.963-72.598
		c0.642-0.513,1.267-1.058,1.916-1.588l75.878,68.917h-1.604c0,10.08-1.091,27.642-3.392,44.274
		c-0.842,6.118-1.861,12.125-3.032,17.578l-2.333,1.852l-0.097,0.072c-0.586,0.457-3.793,2.879-7.73,5.076
		c-3.889,2.237-8.693,4.033-11.274,3.945c-1.171-0.016-1.716-0.241-2.085-0.489c-0.313-0.233-0.762-0.674-1.235-1.925
		c-0.481-9.487-5.533-18.268-12.895-24.884c-7.739-6.912-18.276-11.62-29.856-11.636c-2.686,0-5.437,0.321-8.203,0.875
		c-3.705-0.986-7.37-1.54-10.89-1.54c-11.78,0-21.924,5.164-28.997,12.406c-6.752,6.936-10.946,15.798-11.355,24.811
		c-0.465,1.227-0.915,1.66-1.219,1.893c-0.369,0.248-0.906,0.473-2.085,0.489c-1.355,0.016-3.392-0.416-5.549-1.242
		C191.642,270.631,188.146,268.634,185.556,266.942z M194.128,290.454c-1.821-2.221-3.544-4.636-5.116-7.474l0.241-0.152
		c-0.104-0.168-0.232-0.434-0.337-0.61c0.601,0.257,1.17,0.545,1.796,0.778c3.031,1.123,6.255,1.989,9.743,1.996
		c2.903,0.016,6.135-0.682,8.942-2.654c2.815-1.957,4.844-5.036,5.935-8.588l0.272-0.875v-0.897
		c-0.048-5.63,2.871-12.526,8.027-17.754c5.156-5.261,12.245-8.822,20.481-8.822c2.839,0,5.846,0.417,9.022,1.38l1.556,0.473
		l1.564-0.377c2.341-0.561,4.658-0.818,6.952-0.818c8.268-0.016,16.183,3.464,21.917,8.596c5.774,5.132,9.07,11.788,9.006,17.322
		v0.897l0.272,0.875c1.09,3.552,3.127,6.623,5.934,8.588c2.807,1.972,6.031,2.662,8.942,2.654c3.488-0.007,6.719-0.874,9.743-1.996
		c1.804-0.69,3.52-1.5,5.164-2.334c-1.876,3.849-4.017,6.985-6.303,9.792c-4.651,5.686-10.256,10.024-15.67,15.766
		c-0.424,0.321-0.801,0.626-1.242,0.946l-1.973,1.435l-0.409,2.406c-0.593,3.641-2.646,10.04-6.31,16.383
		c-3.657,6.384-8.893,12.783-15.726,17.233c-2.67,1.773-4.619,4.01-6.647,6.384c-2.968,3.561-5.935,7.522-8.757,10.329
		c-1.404,1.403-2.751,2.494-3.85,3.128c-1.114,0.642-1.876,0.81-2.43,0.81c-0.794,0.017-2.061-0.368-3.801-1.636
		c-2.598-1.861-5.677-5.453-8.644-9.158c-3.071-3.697-5.774-7.441-9.672-10.152c-6.688-4.474-11.82-10.826-15.412-17.145
		c-2.198-3.849-3.737-7.618-4.787-10.866c0-1.444,0-2.775,0-4.322v-2.799l-1.869-2.076
		C204.994,300.896,199.028,296.445,194.128,290.454z M189.124,480.003c-10.665,4.387-20.344,7.514-28.267,9.326
		c-11.812-2.125-22.662-4.506-32.124-7.072c-15.422-4.162-27.554-8.742-35.502-12.847c-3.97-2.036-6.889-3.985-8.5-5.405
		c-0.698-0.61-1.083-1.059-1.275-1.323c-0.225-2.871-0.353-5.645-0.353-8.284c0.024-16.327,4.018-28.268,10.184-37.626
		c9.238-13.986,24.066-22.55,39.551-28.372c7.714-2.911,15.508-5.132,22.67-7.049c7.177-1.925,13.665-3.528,19.062-5.421
		c1.275-0.448,2.622-0.986,3.953-1.5c1.035,22.254,12.157,42.221,26.768,56.848c7.69,7.675,16.343,13.937,25.196,18.34
		c3.296,1.628,6.624,2.919,9.952,4.01C222.54,464.63,204.761,473.612,189.124,480.003z M254.633,444.502
		c-5.702-0.416-12.213-2.245-18.853-5.557c-11.387-5.637-22.959-15.277-31.483-27.161c-8.556-11.901-14.074-25.934-14.058-40.553
		h-4.258c4.186-1.973,8.356-4.266,12.174-6.912c3.672-2.574,7.041-5.453,9.718-8.966c2.647-3.472,4.676-7.794,4.676-12.758
		c0-0.417,0-0.906,0-1.331c3.656,4.73,8.059,9.254,13.568,12.958c0.77,0.481,2.406,2.109,4.17,4.242
		c2.719,3.216,5.894,7.506,9.664,11.267c1.9,1.868,3.978,3.632,6.415,5.035c2.414,1.388,5.293,2.422,8.501,2.422
		c4.266-0.016,7.826-1.812,10.682-3.929c4.314-3.224,7.65-7.442,10.665-11.139c1.484-1.852,2.863-3.56,4.074-4.9
		c1.195-1.355,2.261-2.309,2.766-2.622c6.944-4.539,12.294-10.377,16.408-16.351c0,1.491,0,2.983,0,4.346
		c-0.008,4.803,1.86,9.118,4.418,12.558c3.865,5.196,9.246,9.045,15.1,12.397c3.577,2.029,7.338,3.769,11.107,5.389
		C311.689,400.044,283.806,424.831,254.633,444.502z M428.544,462.658l-0.626,0.746c-1.074,1.082-3.24,2.718-6.279,4.451
		c-10.738,6.199-31.916,13.808-60.352,19.598c-2.751,0.562-5.622,1.091-8.509,1.62c8.108-14.643,14.242-32.382,19.206-50.064
		c4.892-17.434,8.58-34.723,11.58-48.572c8.717,3.624,17.161,8.179,24.201,14.233c6.207,5.309,11.404,11.684,15.132,19.719
		c3.712,8.035,5.999,17.795,6.006,30.04C428.905,457.036,428.769,459.803,428.544,462.658z"/>
	<path class="st0" d="M255.964,272.074c0.529,0.658,1.114,1.339,1.772,2.021c5.132,5.356,14.355,10.28,29.102,10.232v-9.263
		c-12.815-0.056-19.038-3.953-22.446-7.418c-1.701-1.756-2.695-3.488-3.248-4.73c-0.281-0.626-0.458-1.124-0.546-1.436l-0.08-0.296
		l-0.008-0.048h-0.008c-0.441-2.15-2.334-3.722-4.538-3.722c-2.206,0-4.098,1.572-4.539,3.722c0,0-0.185,0.85-0.802,2.141
		c-0.946,1.948-2.807,4.787-6.592,7.225c-3.793,2.43-9.632,4.547-18.942,4.562v9.263c14.747,0.048,23.97-4.876,29.102-10.232
		C254.85,273.414,255.434,272.732,255.964,272.074z"/>
</g>
</svg>