<?xml version="1.0" encoding="utf-8"?>

<!DOCTYPE svg PUBLIC "-//W3C//DTD SVG 1.1//EN" "http://www.w3.org/Graphics/SVG/1.1/DTD/svg11.dtd">
<!-- Uploaded to: SVG Repo, www.svgrepo.com, Generator: SVG Repo Mixer Tools -->
<svg version="1.1" id="_x32_" xmlns="http://www.w3.org/2000/svg" xmlns:xlink="http://www.w3.org/1999/xlink" 
	 width="800px" height="800px" viewBox="0 0 512 512"  xml:space="preserve">
<style type="text/css">
<![CDATA[
	.st0{fill:#000000;}
]]>
</style>
<g>
	<path class="st0" d="M483.073,344.109l-44.938-150.703l-0.266,0.813C432.354,86.031,342.886,0,233.339,0
		C120.229,0,28.526,91.688,28.526,204.797v73.953c0,47.109,15.953,90.469,42.688,125.063V512h239.844v-43.75
		c49.109-20.172,88.625-58.859,109.891-107.375l53.641-4.359c2.906-0.234,5.547-1.766,7.203-4.172
		C483.433,349.922,483.901,346.906,483.073,344.109z M225.495,414.344c-9.938,0-18.563-5.547-22.984-13.719h45.969
		C244.073,408.797,235.433,414.344,225.495,414.344z M261.823,384.016h-73.141c-5.641,0-10.234-4.547-10.234-10.203
		c0-5.625,4.594-10.203,10.234-10.203h73.141c5.641,0,10.219,4.578,10.219,10.203C272.042,379.469,267.464,384.016,261.823,384.016z
		 M261.823,350.375h-73.141c-5.641,0-10.234-4.594-10.234-10.219c0-5.656,4.594-10.219,10.234-10.219h73.141
		c5.641,0,10.219,4.563,10.219,10.219C272.042,345.781,267.464,350.375,261.823,350.375z M284.636,275.203
		c-17.016,11.25-18.547,19.656-18.547,40.672h-81.672c0-21.016-1.516-29.422-18.547-40.672
		c-29.188-19.297-48.453-52.406-48.453-90.031c0-59.547,48.266-107.828,107.828-107.828s107.859,48.281,107.859,107.828
		C333.104,222.797,313.823,255.906,284.636,275.203z"/>
</g>
</svg>