<?xml version="1.0" encoding="utf-8"?>

<!DOCTYPE svg PUBLIC "-//W3C//DTD SVG 1.1//EN" "http://www.w3.org/Graphics/SVG/1.1/DTD/svg11.dtd">
<!-- Uploaded to: SVG Repo, www.svgrepo.com, Generator: SVG Repo Mixer Tools -->
<svg height="800px" width="800px" version="1.1" id="_x32_" xmlns="http://www.w3.org/2000/svg" xmlns:xlink="http://www.w3.org/1999/xlink" 
	 viewBox="0 0 512 512"  xml:space="preserve">
<style type="text/css">
	.st0{fill:#000000;}
</style>
<g>
	<path class="st0" d="M433.401,407.254c-12.021-17.93-30.218-27.866-47.275-34.317c-8.584-3.218-16.986-5.57-24.373-7.584
		c-5.366-1.479-10.275-2.76-14.232-4.028l-19.613-35.394c-1.746-3.022-5.499-4.296-8.661-2.817l-4.359,2.014v-13.296
		c9.598-10.676,23.506-27.324,29.14-53.648c2.014-0.944,3.958-1.944,5.838-3.296c4.767-3.218,8.739-7.915,12.155-14.366
		c3.359-6.444,6.444-14.704,9.669-25.993c1.613-5.704,2.352-10.668,2.352-15.098c0-5.106-1-9.528-2.951-13.162
		c-2.894-5.444-7.584-8.458-11.359-9.803l-1.197-0.408V150.95c0-1.006-0.07-2.154-0.134-3.225
		c8.324-24.373,24.099-70.444,26.183-77.155c3.486-11.078,0-25.381-13.901-28.543c-10.535-2.408-33.24-10.331-72.38-13.958
		C291.324,11.542,274.999,0,255.993,0c-19,0-35.317,11.542-42.302,28.07c-39.148,3.627-61.775,11.55-72.31,13.958
		c-13.908,3.162-17.401,17.465-13.908,28.543c2.085,6.711,17.803,52.711,26.127,77.021c-0.071,1.204-0.134,2.352-0.134,3.359v25.106
		c-1.62,0.535-3.288,1.211-5.176,2.359c-2.683,1.669-5.436,4.289-7.38,7.852c-1.88,3.634-2.957,8.056-2.957,13.162
		c0,4.43,0.739,9.394,2.415,15.098c4.296,15.05,8.197,24.712,13.233,31.838c2.549,3.55,5.373,6.373,8.528,8.521
		c1.887,1.352,3.824,2.352,5.845,3.296c5.705,26.323,19.542,42.971,29.141,53.648v13.296l-4.374-2.014
		c-3.148-1.479-6.901-0.205-8.662,2.817l-19.605,35.324c-5.768,1.676-13.43,3.556-21.951,6.035
		c-15.986,4.57-34.852,11.226-50.169,24.38c-7.648,6.584-14.366,14.845-19.134,25.12c-4.698,10.268-7.451,22.493-7.451,36.726
		c0,3.359,0.141,6.711,0.472,10.275c0.204,2.486,1.141,4.5,2.282,6.176c2.085,3.092,4.902,5.444,8.388,7.789
		c6.183,4.036,14.648,8.056,25.591,11.951c32.57,11.62,86.55,22.226,153.493,22.296c54.401,0,100.253-7.049,133.021-15.915
		c16.387-4.5,29.479-9.332,38.95-14.17c4.705-2.478,8.522-4.894,11.55-7.513c1.542-1.346,2.894-2.754,4.028-4.437
		c1.07-1.676,2.014-3.69,2.218-6.176c0.338-3.5,0.472-6.916,0.472-10.205C446.233,434.514,441.395,419.198,433.401,407.254z
		 M319.183,337.888l16.183,29.141c-5.437,3.155-14.296,8.127-23.634,12.62c-5.915,2.887-12.014,5.577-17.394,7.458
		c-5.373,1.95-10.141,3.021-12.62,3.021c-1.084-0.07-2.148-0.268-3.43-0.873c-2.218-1.07-4.767-3.352-7.19-6.38
		c-3.084-3.895-5.76-8.796-7.789-13.226c1.55-3.824,2.423-6.507,2.423-6.648l0.134-0.669l48.55-22.232h0.472v-0.197L319.183,337.888
		z M227.436,125.775h57.127V267.62h-57.127V125.775z M181.599,251.536l-0.81-4.232l-4.028-1.472
		c-2.549-0.944-4.494-1.88-6.239-3.021c-2.487-1.824-4.768-4.232-7.452-9.204c-2.619-4.972-5.443-12.352-8.534-23.099
		c-1.338-4.696-1.81-8.394-1.81-11.077c0-3.162,0.606-5.035,1.211-6.176c0.936-1.683,2.078-2.423,3.556-2.965
		c1.212-0.458,2.479-0.591,2.958-0.591l7.788,0.936v-8.331c0,0,0-9.063,0-19.669h48.676v30.338
		c-9.366,3.169-26.69,11.578-23.387,29.711c3.098,17.035,15.831,19.064,23.387,18.705v36.648h78.162v-36.648
		c7.557,0.359,20.282-1.683,23.381-18.705c3.302-18.127-14.008-26.528-23.381-29.711v-30.338h48.683c0,10.606,0,19.669,0,19.669
		v7.922l7.655-0.528c0.402-0.071,2.888,0.204,4.494,1.204c0.81,0.535,1.549,1.211,2.155,2.352c0.606,1.141,1.204,3.014,1.204,6.176
		c0,2.684-0.472,6.381-1.81,11.077c-4.105,14.303-7.725,22.634-11.084,27.268c-1.676,2.345-3.211,3.824-4.894,5.035
		c-1.746,1.141-3.69,2.078-6.24,3.021l-4.035,1.472l-0.746,4.232c-4.768,26.457-18.387,41.366-28.465,52.577l-1.88,2.078v25.655
		l-44.12,20.204l-44.105-20.204V306.19l-1.881-2.078C199.929,292.902,186.289,277.993,181.599,251.536z M192.803,337.888l4.31,2.014
		v0.197h0.472l48.542,22.232l0.142,0.669c0,0.141,0.866,2.824,2.408,6.719c-1.14,2.408-2.408,4.964-3.887,7.444
		c-2.218,3.767-4.902,7.316-7.528,9.683c-2.683,2.344-4.972,3.281-6.978,3.281c-2.824,0-8.67-1.408-14.979-3.824
		c-9.528-3.697-20.74-9.345-29.401-14.035c-3.627-2.014-6.782-3.831-9.275-5.24L192.803,337.888z M335.429,491.733
		c-23.359,3.344-50.084,5.493-79.437,5.493c-29.338,0-56.063-2.211-79.43-5.493v-34.05h158.866V491.733z"/>
	<path class="st0" d="M250.627,159.465c2.155,0.155,2.852,0.084,4.162,0.148c2.296,0.084,4.556,0.268,6.148,0.782
		c0.873,0.331,0.747,0.218,0.965,0.493c0.05,0.288,0.155,0.281-0.303,0.986c-1.859,2.45-4.5,4.225-6.007,5.493
		c-1.605,1.268-2.471,2.049-2.317,2.38c0.155,0.31,1.346,0.127,3.317-0.648c1.95-0.873,4.761-1.887,7.824-4.943
		c0.697-0.676,1.887-2.549,1.486-4.212c-0.204-1.725-2.295-3.127-3.415-3.528c-2.465-1-4.866-1.289-7.409-1.529l-3.288-0.253
		l-0.084-0.078l0.077-0.042l0.035-0.007l1.683-0.937c2.43-1.317,4.902-2.598,7.26-4.084c1.183-0.761,2.338-1.542,3.479-2.584
		c1.148-1.085,2.212-2.479,2.69-4.204c0.514-1.739,0.24-3.838-0.782-5.302c-0.986-1.494-2.394-2.31-3.669-2.818
		c-2.612-0.943-4.937-0.767-6.923-0.486c-7.866,1.627-11.316,5.05-11.084,5.479c0.317,0.81,4.655-1.387,11.444-1.852
		c1.655-0.064,3.5,0.099,4.923,0.789c1.45,0.76,1.964,1.704,1.556,2.83c-0.359,1.24-2.098,2.571-4.275,3.86
		c-2.148,1.288-4.563,2.506-7.071,3.852l-1.972,1.106c-1.148,0.662-2.359,1.423-3.246,2.232c-0.908,0.803-1.38,1.626-1.542,2.422
		c-0.218,0.718,0.029,1.951,0.542,2.542C245.662,158.683,248.162,159.303,250.627,159.465z"/>
	<path class="st0" d="M256.732,176.93c0.19-0.641,0.338-1.261,0.282-2.029c0.056-0.732-0.662-1.929-1.387-1.971
		c-1.218-0.113-1.338,0.5-1.36,0.774l0.423,0.81l-0.528,0.078l-0.669,0.69c-1.204,1.31-3.246,3.309-5.458,5.465
		c-4.422,4.394-8.218,7.669-7.676,8.922c0.571,1.373,6.352-0.345,11.268-5.24C254.084,182.007,255.937,179.444,256.732,176.93z"/>
	<path class="st0" d="M266.521,181.5c-4.261-3.106-7.458-5.874-8.655-5.219c-1.331,0.69,0.64,5.747,5.577,9.338
		c4.909,3.634,9.908,4.289,10.394,3.028C274.394,187.282,270.718,184.648,266.521,181.5z"/>
	<path class="st0" d="M257.753,193.465c-1.091,3.888-1.732,7.528-1.739,10.317c0,1.408,0.12,2.543,0.528,3.522
		c0.38,1.126,1.317,0.887,1.584,0.655c0.127-0.134,0.492-1.113,1.465-3.55c0.88-2.38,2.035-5.74,3.113-9.542
		c0.148-0.557,1.056-3.169,0.458-4.585c-0.514-1.626-2.064-2.584-3.612-2.647c-3.585,0.014-4.62,1.274-5.888,2.014
		c-2.31,1.76-3.14,3.359-2.746,3.88c0.444,0.613,2.085,0.05,4.408-0.64c1.014-0.338,2.979-0.746,2.74-0.479l-0.007,0.183
		C257.971,192.796,258.134,192.127,257.753,193.465z"/>
	<path class="st0" d="M270.239,234.845c-1.698-0.817-2.852-1.176-4.324-1.683c-0.789-0.253-1.627-0.479-2.429-0.732
		c1.366-0.458,2.725-0.944,4.049-1.585c0.704-0.366,1.408-0.718,2.127-1.274c0.585-0.402,1.859-1.67,1.775-3.007
		c0.084-1.324-1.204-2.556-1.866-2.936c-0.733-0.486-1.429-0.782-2.113-1.049c-1.605-0.592-3.148-0.965-4.633-1.275
		c1.746-0.894,3.267-2.035,4.182-3.528c1.064-1.62,0.838-3.668,0.085-4.704c-1.529-2.113-2.958-2.275-3.014-2.162
		c-0.211,0.218,1,0.978,1.831,2.775c0.979,1.803-0.873,4.387-4.479,5.654c-1.12,0.479-2.444,0.761-3.852,1.014
		c-1.408-0.254-2.725-0.536-3.852-1.014c-3.606-1.267-5.45-3.852-4.472-5.654c0.817-1.796,2.035-2.556,1.824-2.775
		c-0.057-0.113-1.486,0.049-3.007,2.162c-0.761,1.035-0.98,3.084,0.077,4.704c0.916,1.494,2.444,2.634,4.183,3.528
		c-1.486,0.31-3.035,0.683-4.634,1.275c-0.683,0.268-1.38,0.563-2.106,1.049c-0.669,0.38-1.958,1.612-1.874,2.936
		c-0.092,1.338,1.19,2.606,1.782,3.007c0.711,0.556,1.408,0.908,2.126,1.274c1.318,0.641,2.67,1.127,4.043,1.585
		c-0.802,0.253-1.641,0.479-2.43,0.732c-1.472,0.507-2.634,0.866-4.324,1.683c-1.254,0.598-2.212,1.436-2.444,2.416
		c-0.247,1.106,0.331,2.056,1.31,2.697c2.38,1.281,3.254,1.253,4.626,1.669c1.254,0.296,2.493,0.528,3.641,0.746l0.366,0.077
		c-5.5,1.831-8.627,3.521-8.416,3.929c0.176,0.366,4.852-1.141,12.69-2.725l0.887-0.176l0.88,0.176
		c7.845,1.584,12.521,3.091,12.704,2.725c0.19-0.408-2.929-2.098-8.429-3.929l0.366-0.077c1.162-0.218,2.395-0.451,3.655-0.746
		c1.359-0.416,2.246-0.388,4.62-1.669c0.978-0.641,1.556-1.592,1.31-2.697C272.457,236.282,271.493,235.444,270.239,234.845z
		 M249.07,227.824c-1.204-0.507-2.282-1.451-1.971-1.247l0.296-0.288c0.394-0.275,0.944-0.542,1.479-0.774
		c2.845-1.225,5.859-1.718,8.704-2.373c2.845,0.655,5.859,1.148,8.704,2.373c0.542,0.232,1.078,0.5,1.479,0.774l0.303,0.288
		c0.289-0.204-0.774,0.74-1.986,1.247c-2.415,1.126-5.274,1.88-8.225,2.747c-0.092,0.028-0.183,0.063-0.275,0.084
		c-0.099-0.022-0.183-0.056-0.288-0.084C254.352,229.704,251.493,228.95,249.07,227.824z M265.993,238.704l-3.486,0.894
		c-1.782,0.43-3.359,0.873-4.93,1.31c-1.563-0.436-3.148-0.88-4.922-1.31l-3.494-0.894c-1.035-0.268-2.796-0.894-2.626-0.888
		l0.084-0.162c0.817-0.366,2.366-0.894,3.641-1.288l7.316-2.141l7.317,2.141c1.274,0.394,2.824,0.922,3.648,1.288l0.078,0.162
		C268.789,237.81,267.028,238.437,265.993,238.704z"/>
</g>
</svg>