<?xml version="1.0" encoding="utf-8"?>

<!DOCTYPE svg PUBLIC "-//W3C//DTD SVG 1.1//EN" "http://www.w3.org/Graphics/SVG/1.1/DTD/svg11.dtd">
<!-- Uploaded to: SVG Repo, www.svgrepo.com, Generator: SVG Repo Mixer Tools -->
<svg height="800px" width="800px" version="1.1" id="_x32_" xmlns="http://www.w3.org/2000/svg" xmlns:xlink="http://www.w3.org/1999/xlink" 
	 viewBox="0 0 512 512"  xml:space="preserve">
<style type="text/css">
	.st0{fill:#000000;}
</style>
<g>
	<path class="st0" d="M449.33,397.848c-12.034-17.872-29.67-28.47-46.814-35.438c3.201-3.037,5.417-6.881,4.588-12.662
		c-1.251-8.704-7.461-14.307-19.288-18.666c-11.827-4.352-37.953-16.164-47.286-22.396c-5.131-3.422-13.706-6.096-20.359-0.393
		v-14.427c8.604-9.626,20.245-23.661,27.598-44.277l5.802-1.129c0,0-0.871-4.638-2.008-11.72c0.108-0.486,0.265-0.922,0.372-1.415
		c2.194-0.958,4.316-2.051,6.36-3.516c5.123-3.509,9.518-8.704,13.248-15.657c3.659-7.024,6.953-16.029,10.462-28.32
		c1.83-6.224,2.636-11.634,2.636-16.464c0-5.559-1.172-10.39-3.222-14.342c-2.08-3.916-5.016-6.589-7.975-8.461
		c-0.544-6.61-1.429-15.349-2.787-26.848h0.007c8.068,0,14.635-6.568,14.635-14.635c0-7.825-6.196-14.192-13.935-14.564
		C365.829,11.453,291.159-3.618,256,0.655c-35.159-4.274-109.828,10.798-115.367,91.863c-7.739,0.372-13.935,6.739-13.935,14.564
		c0,8.068,6.568,14.635,14.635,14.635h0.007c-1.351,11.469-2.236,20.194-2.78,26.804c-2.908,1.83-5.874,4.652-7.982,8.504
		c-2.122,3.952-3.222,8.783-3.222,14.342c0,4.831,0.807,10.24,2.558,16.464c4.76,16.394,9.004,26.926,14.493,34.688
		c2.708,3.872,5.852,6.946,9.29,9.29c2.051,1.465,4.173,2.558,6.367,3.516c0.108,0.5,0.264,0.929,0.372,1.422
		c-1.136,7.082-2.008,11.712-2.008,11.712l5.774,1.122c7.332,20.624,19.023,34.658,27.62,44.284v14.421
		c-6.653-5.696-15.221-3.023-20.352,0.4c-9.333,6.232-35.459,18.044-47.286,22.396c-11.826,4.359-18.037,9.962-19.288,18.666
		c-0.807,5.645,1.28,9.447,4.36,12.455c-10.906,4.488-21.932,10.355-31.586,18.666c-8.418,7.168-15.735,16.172-20.852,27.369
		c-5.194,11.191-8.124,24.511-8.124,40.026c0,3.587,0.15,7.318,0.514,11.198c0.214,2.709,1.243,4.903,2.416,6.732
		c2.336,3.366,5.409,5.853,9.218,8.489c6.661,4.388,15.95,8.704,27.806,12.948C124.212,500.366,183.045,511.929,256,512
		c59.27,0,109.249-7.753,144.958-17.415c17.858-4.83,32.129-10.097,42.37-15.442c5.194-2.63,9.368-5.266,12.662-8.118
		c1.68-1.465,3.144-3.001,4.317-4.83c1.243-1.829,2.266-4.023,2.486-6.732c0.364-3.88,0.514-7.539,0.514-11.198
		C463.307,427.555,457.963,410.869,449.33,397.848z M366.571,183.366c-4.466,15.664-8.418,24.732-12.077,29.785
		c-1.829,2.558-3.515,4.173-5.345,5.488c-0.058,0.036-0.129,0.071-0.193,0.107c-2.672-21.016-4.552-46.593,0.957-53.281
		c1.586-1.922,3.159-3.287,4.702-4.431l5.367-0.279c0.293-0.071,3.072,0.15,4.831,1.315c0.95,0.586,1.679,1.322,2.415,2.566
		c0.657,1.243,1.314,3.294,1.314,6.732C368.543,174.29,368.029,178.243,366.571,183.366z M141.334,114.4
		c-4.044,0-7.318-3.273-7.318-7.318c0-4.045,3.273-7.318,7.318-7.318h90.884c3.444-0.007,6.502-1.394,8.804-3.716
		c2.286-2.322,3.701-5.495,3.701-9.083c0-3.587-1.415-6.767-3.701-9.096c-2.302-2.315-5.36-3.702-8.804-3.709h-0.015
		c-5.109,0-9.561,3.173-11.498,7.79c-1.165,2.808-3.887,4.502-6.752,4.502c-0.944,0-1.894-0.178-2.816-0.564
		c-3.73-1.551-5.496-5.839-3.938-9.568c4.08-9.826,13.728-16.787,25.019-16.794c10.383,0.015,19.209,5.939,23.782,14.507
		c4.574-8.568,13.399-14.492,23.782-14.507c11.29,0.007,20.938,6.968,25.018,16.794c1.558,3.73-0.207,8.018-3.938,9.568
		c-0.922,0.386-1.872,0.564-2.815,0.564c-2.866,0-5.588-1.693-6.753-4.502c-1.936-4.617-6.388-7.79-11.498-7.79h-0.014
		c-3.444,0.007-6.503,1.394-8.804,3.709c-2.287,2.329-3.702,5.51-3.702,9.096c0,3.588,1.415,6.761,3.702,9.083
		c2.301,2.322,5.36,3.709,8.804,3.716h90.884c4.044,0,7.318,3.272,7.318,7.318c0,4.044-3.273,7.318-7.318,7.318h-90.884
		c-10.384-0.014-19.209-5.939-23.782-14.507c-4.573,8.568-13.399,14.492-23.782,14.507H141.334z M163.037,218.746
		c-0.058-0.036-0.136-0.064-0.193-0.107c-2.701-1.98-5.266-4.61-8.118-10.026c-2.93-5.417-5.931-13.534-9.297-25.247
		c-1.458-5.124-1.972-9.076-1.972-11.998c0-3.437,0.657-5.488,1.315-6.732c1.029-1.829,2.272-2.637,3.88-3.294
		c1.537-0.586,3.144-0.657,3.366-0.586l5.452,0.336c1.515,1.136,3.059,2.48,4.617,4.374
		C167.596,172.154,165.717,197.737,163.037,218.746z M209.122,442.555c-9.147,4.101-17.715,4.981-23.346,4.981
		c-1.465,0-2.637-0.079-3.659-0.151c0.807-9.218,3.516-16.9,8.561-23.71c5.638-7.61,14.121-14.263,25.612-20.416
		c4.759-2.487,9.369-3.366,13.249-3.366c1.75,0,3.287,0.222,4.68,0.514v11.412c0,2.858,0.729,5.488,1.679,7.904
		C227.487,431.8,217.976,438.602,209.122,442.555z M234.219,377.725v15.071c-1.537-0.436-3.144-0.95-4.831-1.386
		c-9.368-2.708-20.344-5.931-31.685-9.297c-11.341-3.294-23.046-6.803-33.951-10.098c-5.86-1.807-11.491-3.544-16.636-5.138
		c0.071-0.021,0.15-0.036,0.222-0.057c-4.466-1.394-8.64-2.637-12.37-3.88c-6.217-1.972-11.269-3.73-14.492-4.974
		c-0.072,0.021-0.143,0.05-0.208,0.079c-0.064-0.028-0.15-0.058-0.207-0.079c-0.951-0.293-1.68-0.586-2.266-0.879l-0.143-0.808
		c-0.078-1.458,0.951-4.538,3.659-7.531c2.702-3.002,7.025-6.004,13.099-7.983c14.12-4.53,24.511-10.462,32.343-15.07
		c3.873-2.345,7.168-4.317,9.876-5.632c2.78-1.393,4.902-1.979,6.367-1.979c1.093,0,1.972,0.294,3.073,1.022
		c1.1,0.736,2.487,2.122,3.952,4.395l0.143,0.143c0,0,0.443,0.586,1.172,1.536c1.901,2.344,5.782,7.246,11.27,13.249
		c8.418,9.218,20.488,21.074,34.101,30.149C235.098,371.208,234.219,374.281,234.219,377.725z M269.635,411.819
		c0,2.637-0.729,5.124-2.05,7.318c-2.487,4.031-7.025,6.739-11.999,6.739c-3.88,0-7.468-1.615-9.876-4.102l-0.078-0.071h-0.072
		c-0.879-0.879-1.68-1.979-2.344-3.144c-1.022-2.051-1.679-4.323-1.679-6.739v-34.094c0.072-3.516,1.093-5.638,2.922-7.318h0.079
		c2.265-2.201,6.288-3.516,11.047-3.516c4.245,0,7.976,1.1,10.319,2.852h0.071v0.078l1.394,1.244
		c1.315,1.608,2.265,3.659,2.265,6.66V411.819z M270.292,363.891c0,0-0.072,0-0.072-0.072c-4.094-3.001-9.297-4.245-14.635-4.245
		c-4.974,0-9.733,1.172-13.613,3.659c-12.291-7.903-23.704-18.658-32.05-27.584c-1.215-1.286-2.344-2.551-3.38-3.723
		c0.036-0.107,0.1-0.2,0.136-0.308c0.808-2.194,1.243-4.458,1.243-6.946v-36.96l-2.043-2.337c-7.275-8.096-16.2-18.03-22.939-32.15
		l12.077,2.344c0,0-26.826-75.877-17.072-101.968c5.002-13.37-2.437-33.193,78.056-15.414c80.494-17.779,73.054,2.044,78.057,15.414
		c9.754,26.09-17.072,101.968-17.072,101.968l12.056-2.344c-6.718,14.121-15.643,24.054-22.917,32.15l-2.044,2.337v36.96
		c-0.072,2.723,0.55,5.295,1.494,7.689c-0.108,0.122-0.193,0.228-0.3,0.357c-8.34,9.583-20.852,22.389-34.83,31.322
		C270.364,363.969,270.364,363.969,270.292,363.891z M324.445,447.536c-5.638,0-14.049-0.88-23.125-4.831
		c-8.711-3.809-18-10.47-26.34-22.025c1.243-2.708,1.972-5.709,1.972-8.861v-10.826c1.172-0.292,2.344-0.657,3.516-1.021h0.507
		c3.952,0,8.268,0.8,12.877,3.287h0.079c11.484,6.153,19.973,12.806,25.612,20.416c5.045,6.811,7.753,14.493,8.561,23.71
		C327.075,447.457,325.91,447.536,324.445,447.536z M394.184,357.159c-0.736,0.293-1.687,0.657-2.93,1.1
		c-3.223,1.243-8.126,2.923-14.05,4.83c-3.88,1.243-8.196,2.63-12.806,4.023c-24.732,7.754-58.612,17.78-81.887,24.661
		c-1.171,0.364-2.265,0.658-3.366,1.022c-0.729,0-1.464,0-2.194,0.15v-15.221c0-3.001-0.729-5.638-1.83-7.982
		c13.686-8.925,25.683-20.924,34.03-30.435c0.079-0.086,0.136-0.158,0.214-0.243c0.064,0.079,0.136,0.158,0.201,0.243
		c5.045-5.638,8.775-10.469,10.826-13.178c-0.043-0.157-0.036-0.3-0.072-0.457c0.965-1.272,1.558-2.101,1.558-2.101v-0.071h0.078
		c1.458-2.273,2.78-3.659,3.952-4.395c1.094-0.729,1.9-1.022,3.073-1.022c1.458,0,3.58,0.586,6.289,1.979
		c8.268,4.023,21.152,13.899,42.226,20.702c6.146,1.979,10.39,4.981,13.098,7.983c2.78,2.994,3.731,6.074,3.731,7.531
		L394.184,357.159z"/>
</g>
</svg>