<?xml version="1.0" encoding="utf-8"?>

<!DOCTYPE svg PUBLIC "-//W3C//DTD SVG 1.1//EN" "http://www.w3.org/Graphics/SVG/1.1/DTD/svg11.dtd">
<!-- Uploaded to: SVG Repo, www.svgrepo.com, Generator: SVG Repo Mixer Tools -->
<svg height="800px" width="800px" version="1.1" id="_x32_" xmlns="http://www.w3.org/2000/svg" xmlns:xlink="http://www.w3.org/1999/xlink" 
	 viewBox="0 0 512 512"  xml:space="preserve">
<style type="text/css">
	.st0{fill:#000000;}
</style>
<g>
	<polygon class="st0" points="0,263.761 0,292.587 17.159,292.587 17.159,490.251 494.833,490.251 494.833,292.587 512,292.587 
		512,263.761 	"/>
	<path class="st0" d="M223.712,101.315c1.987,11.283,5.328,21.221,9.749,26.127c0,5.876,0,10.172,0,13.598
		c0,0.344-0.063,0.704-0.172,1.088l14.992,7.206v11.596h15.438v-11.596l14.977-7.206c-0.095-0.384-0.157-0.744-0.157-1.088
		c0-3.427,0-7.722,0-13.598c4.405-4.906,7.762-14.844,9.734-26.127c4.647-1.65,7.316-4.304,10.618-15.915
		c3.521-12.371-5.305-11.948-5.305-11.948c7.151-23.63-2.262-45.844-18.004-44.217c-10.853-18.99-47.229,4.335-58.638,2.707
		c0,6.526,2.731,11.401,2.731,11.401c-3.99,7.535-2.433,22.527-1.33,30.109c-0.649-0.008-8.638,0.078-5.226,11.948
		C216.411,97.012,219.056,99.665,223.712,101.315z"/>
	<path class="st0" d="M64.184,101.315c1.987,11.283,5.336,21.221,9.742,26.127c0,5.876,0,10.172,0,13.598
		c0,0.344-0.062,0.704-0.164,1.088l14.984,7.206v11.596h15.454v-11.604l14.96-7.198c-0.094-0.384-0.156-0.744-0.156-1.088
		c0-3.427,0-7.722,0-13.598c4.421-4.906,7.762-14.844,9.749-26.127c4.64-1.65,7.3-4.304,10.61-15.915
		c3.537-12.371-5.297-11.948-5.297-11.948c7.144-23.63-2.277-45.844-18.02-44.217c-10.845-18.99-47.214,4.335-58.614,2.707
		c0,6.526,2.708,11.401,2.708,11.401c-3.975,7.535-2.434,22.527-1.314,30.109c-0.65-0.008-8.646,0.078-5.242,11.948
		C56.884,97.012,59.545,99.665,64.184,101.315z"/>
	<path class="st0" d="M383.239,101.315c1.995,11.283,5.328,21.221,9.749,26.127c0,5.876,0,10.172,0,13.598
		c0,0.344-0.07,0.704-0.172,1.088l14.992,7.206v11.596h15.446v-11.596l14.96-7.206c-0.086-0.384-0.156-0.744-0.156-1.088
		c0-3.427,0-7.722,0-13.598c4.421-4.906,7.762-14.844,9.75-26.127c4.648-1.65,7.308-4.304,10.61-15.915
		c3.53-12.371-5.297-11.948-5.297-11.948c7.136-23.63-2.261-45.844-18.004-44.217c-10.868-18.99-47.229,4.335-58.637,2.707
		c0,6.526,2.714,11.401,2.714,11.401c-3.975,7.535-2.433,22.527-1.322,30.109c-0.642-0.008-8.631,0.078-5.242,11.948
		C375.947,97.012,378.591,99.665,383.239,101.315z"/>
	<path class="st0" d="M495.287,217.55c-1.855-33.998-33.521-62.128-44.945-62.128l-25.132,38.686l-1.956-24.945h-15.446
		l-1.956,24.945l-25.14-38.686c-11.416,0-43.098,28.13-44.936,62.128c-1.862-33.998-33.537-62.128-44.96-62.128l-25.133,38.693
		l-1.964-24.952h-15.438l-1.964,24.945l-25.14-38.686c-11.408,0-43.09,28.13-44.936,62.128
		c-1.862-33.998-33.528-62.128-44.952-62.128l-25.132,38.678l-1.956-24.937H88.746l-1.956,24.945l-25.132-38.686
		c-11.409,0-43.106,28.13-44.953,62.128v28.825h478.582V217.55z"/>
</g>
</svg>