<?xml version="1.0" encoding="utf-8"?>

<!DOCTYPE svg PUBLIC "-//W3C//DTD SVG 1.1//EN" "http://www.w3.org/Graphics/SVG/1.1/DTD/svg11.dtd">
<!-- Uploaded to: SVG Repo, www.svgrepo.com, Generator: SVG Repo Mixer Tools -->
<svg version="1.1" id="_x32_" xmlns="http://www.w3.org/2000/svg" xmlns:xlink="http://www.w3.org/1999/xlink" 
	 width="800px" height="800px" viewBox="0 0 512 512"  xml:space="preserve">
<style type="text/css">
<![CDATA[
	.st0{fill:#000000;}
]]>
</style>
<g>
	<path class="st0" d="M294.766,300.968l1.547,5.438l6.063-1.75l-5.563-19.469l-6.063,1.719l1.375,4.813
		c-14.953,7.625-28.609,10.016-39.875,10.016c-9.344,0-17.047-1.609-22.375-3.219c-2.656-0.797-4.734-1.594-6.094-2.172
		c-0.688-0.297-1.203-0.531-1.531-0.688l-0.344-0.172l-0.063-0.031l-0.188,0.313l-4.25,8.031c0.422,0.234,13.969,7.391,34.844,7.406
		C264.406,311.203,279.047,308.656,294.766,300.968z"/>
	<path class="st0" d="M454.5,447.64v-0.016c-2.953-20.641-7.859-45.765-22.594-69.656c-7.359-11.922-17.188-23.484-30.234-33.859
		c-11.047-8.797-24.422-16.719-40.469-23.438c5.109-7.375,9.484-14.938,13.031-22.438c1.828-3.875,3.438-8.547,5.078-14.078
		c1.781-6.031,3.578-13.047,5.344-20.625c1.891-1.063,3.703-2.297,5.375-3.781l7.688-6.797c7.281-6.438,11.531-16.172,11.531-26.484
		v-13.109c0-9.969-3.906-18.875-10.078-25.078c2.406-14.219,3.891-23.922,3.891-23.953l-0.125-0.016
		c18.094-53.281,1.703-141.891-68.281-136.578C317.484,15.593,251.797-12.704,186.109,6.5S110.156-3.688,102.063,2.39
		c-5.438,4.063-33.047,69.547-13.656,125.031c7.234,20.688,10.313,24.734,23.094,41.734c0.609,3.891,1.578,9.969,2.828,17.406
		c-7.234,6.188-11.906,15.875-11.906,26.797v13.109c0,10.313,4.234,20.047,11.516,26.484l7.672,6.797
		c2.422,2.125,5.109,3.797,7.938,5.031c1.547,6.516,3.125,12.641,4.719,18.109c1.672,5.797,3.359,10.828,5.156,15.031
		c3.25,7.531,7.406,15.063,12.297,22.359c-16.469,6.797-30.125,14.859-41.391,23.828c-19.594,15.547-31.859,33.813-39.563,51.922
		c-7.734,18.125-11.047,36.093-13.266,51.593c-0.094,0.703-0.141,1.391-0.141,2.078c0.047,3.875,1.266,7.141,3.109,10.422
		c3.266,5.688,8.75,11.406,17.172,17.188c12.641,8.625,31.906,17.219,60.672,23.75c28.766,6.516,67.016,10.938,117.688,10.938
		c77.219-0.016,125.625-10.234,155.5-22.609c14.922-6.203,25.234-12.938,32.125-19.484c3.453-3.281,6.047-6.516,7.922-9.781
		c1.828-3.281,3.047-6.547,3.094-10.422C454.641,449.062,454.609,448.374,454.5,447.64z M133,179.468
		c-0.234,0-0.438,0.031-0.672,0.031c-0.688-4.141-1.266-7.75-1.719-10.609c-0.219-1.344-0.391-2.5-0.563-3.5
		c3.328-24.859,11.359-57.688,45.938-48.734c70.047,18.125,129.922,13.922,165.75-16.172c0,0-3.625,51.719,39.906,77.969
		c-0.063,0.391-0.125,0.766-0.188,1.172c-0.922-0.094-1.844-0.156-2.781-0.156H255.828H133z M349.031,213.765v6.969
		c0,1.438-0.625,2.797-1.672,3.641l-11.031,8.844c-4.156,3.359-9.156,5.156-14.297,5.156h-14c-6.469,0-12.656-2.859-17.234-7.922
		l-3.609-3.984c-0.75-0.859-1.188-2-1.188-3.203v-9.5c0-2.5,1.828-4.5,4.063-4.5h54.906
		C347.219,209.265,349.031,211.265,349.031,213.765z M221.5,213.765v9.5c0,1.203-0.422,2.344-1.188,3.203l-3.609,3.984
		c-4.578,5.063-10.781,7.922-17.25,7.922h-13.984c-5.141,0-10.141-1.797-14.313-5.156l-11.016-8.844
		c-1.063-0.844-1.688-2.203-1.688-3.641v-6.969c0-2.5,1.828-4.5,4.063-4.5h54.922C219.688,209.265,221.5,211.265,221.5,213.765z
		 M149.594,267.14h66.703c9.781,0,18.969-5.188,24.719-13.953l11.516-17.563c0.766-1.156,1.984-1.844,3.297-1.844
		c1.297,0,2.531,0.688,3.297,1.844l11.531,17.563c5.734,8.766,14.938,13.953,24.719,13.953h68.953
		c-1.156,4.641-2.313,8.906-3.422,12.563c-1.375,4.578-2.734,8.281-3.75,10.422c-8.359,17.688-22.484,36.547-40,50.578
		c-8.766,7.047-18.359,12.906-28.469,16.969c-10.141,4.063-20.766,6.359-31.781,6.359c-11.047,0-21.781-2.266-32.031-6.297
		c-15.359-6.047-29.547-16.109-41.297-28.109c-11.781-11.984-21.078-25.891-26.781-39.188c-1.297-3-2.828-7.484-4.375-12.813
		C151.484,274.421,150.547,270.875,149.594,267.14z M122.109,358.906c10.766-8.563,24.344-16.406,41.531-22.984
		c6.188,7.109,13.141,13.797,20.703,19.813c10.125,8,21.406,14.781,33.594,19.594c12.188,4.797,25.313,7.625,38.969,7.625
		c13.672,0,26.734-2.875,38.828-7.734c18.156-7.313,34.141-19.047,47.422-32.641c2.031-2.078,3.984-4.234,5.891-6.391
		c16.875,6.531,30.219,14.266,40.844,22.719c2.328,1.859,4.5,3.734,6.578,5.656c-12.344,5.422-27.813,10.938-46.328,15.484
		c-25.281,6.188-56.188,10.594-92.563,10.594c-37.297,0-68.875-4.641-94.5-11.078c-18.734-4.703-34.266-10.391-46.516-15.938
		C118.328,362.046,120.156,360.453,122.109,358.906z M96.188,387.906c0.953-1.531,1.969-3.063,3.016-4.578
		c14.688,7.219,33.938,14.703,57.719,20.688c27.609,6.937,61.266,11.843,100.656,11.843c38.406,0,71.359-4.656,98.563-11.328
		c23.453-5.75,42.609-12.984,57.422-20.047c4.141,6.188,7.531,12.531,10.281,18.969c0.688,1.625,1.313,3.25,1.938,4.875
		c-0.672,0.422-1.375,0.875-2.141,1.344c-5.094,3.109-12.547,6.984-22.172,10.984c-28.922,12-77.375,25.156-143.891,25.141
		c-54.578,0-96.984-8.828-126.438-18.656c-14.719-4.891-26.203-10.063-34.25-14.391c-4.016-2.172-7.172-4.141-9.359-5.671
		l-0.641-0.469C89.391,400.281,92.422,394.015,96.188,387.906z M434.172,452.187c-2.016,2.813-6.234,6.984-13.453,11.438
		c-10.828,6.719-28.359,14.156-55.031,19.828c-26.656,5.688-62.422,9.641-109.688,9.641c-75.516,0.016-121.703-10.141-148.25-21.172
		c-13.266-5.5-21.625-11.219-26.344-15.719c-2.344-2.234-3.797-4.172-4.516-5.453c-0.313-0.547-0.469-0.938-0.563-1.172
		c0.828-5.766,1.813-11.703,3.094-17.75c6.109,3.641,13.969,7.656,23.688,11.734c31.969,13.406,83.922,27.453,154.469,27.469
		c53.219,0,95.906-8.016,127.359-17.703c15.719-4.844,28.656-10.094,38.75-15.031c3.406-1.656,6.453-3.281,9.219-4.844
		c1.125,5.484,2.016,10.891,2.766,16.141C435.5,450.03,435.078,450.983,434.172,452.187z"/>
</g>
</svg>