<?xml version="1.0" encoding="utf-8"?>

<!DOCTYPE svg PUBLIC "-//W3C//DTD SVG 1.1//EN" "http://www.w3.org/Graphics/SVG/1.1/DTD/svg11.dtd">
<!-- Uploaded to: SVG Repo, www.svgrepo.com, Generator: SVG Repo Mixer Tools -->
<svg height="800px" width="800px" version="1.1" id="_x32_" xmlns="http://www.w3.org/2000/svg" xmlns:xlink="http://www.w3.org/1999/xlink" 
	 viewBox="0 0 512 512"  xml:space="preserve">
<style type="text/css">
	.st0{fill:#000000;}
</style>
<g>
	<path class="st0" d="M141.604,272.528c-4.506,0-8.151,3.653-8.151,8.166c0,4.498,3.645,8.158,8.151,8.158
		c4.505,0,8.166-3.66,8.166-8.158C149.77,276.18,146.109,272.528,141.604,272.528z"/>
	<path class="st0" d="M370.38,272.528c-4.505,0-8.165,3.653-8.165,8.166c0,4.498,3.66,8.158,8.165,8.158
		c4.506,0,8.151-3.66,8.151-8.158C378.531,276.18,374.887,272.528,370.38,272.528z"/>
	<path class="st0" d="M162.965,294.035c5.527,0.386,11.607,0.686,17.964,0.882v-39.609c-5.833,3.915-11.752,7.444-17.964,10.184
		V294.035z"/>
	<path class="st0" d="M247.025,218.096v77.747h17.964v-77.747c-2.946-0.481-5.92-0.722-9.012-0.722
		C252.945,217.374,249.956,217.616,247.025,218.096z"/>
	<path class="st0" d="M205.017,295.507c6.212,0.139,12.233,0.197,17.92,0.241V226.67c-6.167,3.332-12.102,7.247-17.92,11.359
		V295.507z"/>
	<path class="st0" d="M331.085,294.916c6.314-0.196,12.379-0.496,17.92-0.882v-28.543c-6.183-2.74-12.102-6.27-17.92-10.184V294.916
		z"/>
	<path class="st0" d="M289.018,295.748c5.686-0.044,11.752-0.102,17.978-0.241v-57.478c-5.832-4.112-11.81-8.085-17.978-11.359
		V295.748z"/>
	<path class="st0" d="M388.082,315.688c0,0,0-0.008,0.015-0.015l-0.058,0.029L388.082,315.688z"/>
	<path class="st0" d="M401.92,299.794l-0.015,0.022c0,0.014,0,0.014,0,0.014L401.92,299.794z"/>
	<path class="st0" d="M404.501,281.502c-0.015-3.828-0.073-7.757-0.554-11.767c-0.379-2.989-0.992-6.139-2.187-9.332
		c-1.181-3.157-2.982-6.343-5.614-9.164l0.19,0.211l-0.204-0.234l-0.029-0.029l-0.015-0.014c-0.962-1.021-1.983-1.852-3.003-2.61
		c-2.333-34.28-15.879-67.365-38.188-92.78c-8.093-9.2-17.424-17.3-27.719-24.095c0.205-0.343,0.452-0.649,0.642-0.984
		c3.208-5.833,4.448-11.891,4.448-17.344v-0.014c-0.015-6.408-1.634-11.986-3.777-16.346v-0.029
		c-0.204-0.387-0.437-0.736-0.641-1.115c1.925-4.47,3.251-9.667,3.251-15.463c0-9.631-3.66-19.765-11.067-30.044
		c-0.248-7.568-2.814-14.522-6.634-20.428v-0.015c-6.051-9.274-15.004-16.47-24.948-21.624l-0.014-0.008
		c-9.974-5.11-21.186-8.252-32.429-8.275h-0.029c-14.96,0.073-29.934,5.512-41.978,14.115l-0.015,0.014
		c-6.022,4.338-11.373,9.587-15.398,15.792c-3.82,5.906-6.386,12.86-6.634,20.428c-7.407,10.279-11.068,20.414-11.068,30.044
		c0,5.818,1.312,11.03,3.252,15.55c-1.006,1.83-1.925,3.784-2.625,5.964c-1.065,3.368-1.779,7.232-1.779,11.454
		c-0.014,5.446,1.225,11.519,4.447,17.344c0.176,0.335,0.423,0.641,0.627,0.984c-10.294,6.794-19.626,14.894-27.719,24.095
		c-22.294,25.408-35.84,58.456-38.172,92.721c-2.115,1.618-3.952,3.514-5.425,5.614c-3.193,4.608-4.549,9.587-5.235,14.085v0.015
		c-0.685,4.549-0.758,8.982-0.758,13.283c0,4.039,0.175,8.049,0.918,12.124c1.079,6.204,3.835,12.795,9.463,17.826l-0.467-0.401
		l0.452,0.401c2.828,2.522,6.066,4.382,9.521,5.818c6.008,14.006,13.517,26.42,20.735,37.714c0.889,1.407,1.778,2.77,2.653,4.134
		c0.102,1.786,0.176,3.696,0.176,5.861v0.102c0.014,8.924-0.992,20.428-3.471,29.446l-0.014,0.015
		c-1.21,4.49-2.829,8.413-4.433,10.899l0.088-0.131l-0.088,0.153c-1.633,2.588-3.048,3.594-3.82,3.907l-0.233,0.102l0.218-0.095
		c-7.232,3.076-13.472,6.992-18.255,12.226c-4.856,5.278-8.034,12.175-8.034,19.721v0.175h0.014
		c0.044,8.296,3.69,15.908,9.157,22.418c5.512,6.555,13.05,12.482,22.703,18.161l-0.438-0.248l0.452,0.262l0.044,0.029
		c15.922,9.281,36.817,16.462,57.216,21.653c20.443,5.132,40.01,8.188,53.935,8.224h0.014c13.91-0.036,33.478-3.092,53.921-8.224
		c20.399-5.191,41.293-12.372,57.216-21.653v-0.008c9.681-5.694,17.249-11.628,22.775-18.204c5.483-6.532,9.142-14.173,9.157-22.506
		v-0.095c0-7.495-3.15-14.355-7.947-19.611l0.102,0.109l-0.174-0.204c-4.798-5.235-11.038-9.15-18.256-12.226l-0.029-0.008
		c-0.773-0.313-2.187-1.32-3.821-3.907l-0.014-0.022c-2.406-3.718-4.739-10.644-6.022-18.066v-0.014
		c-1.341-7.473-1.881-15.61-1.881-22.368c0-2.18,0.073-4.09,0.175-5.884c0.875-1.37,1.765-2.727,2.654-4.119
		c7.203-11.271,14.697-23.672,20.691-37.648c1.224-0.51,2.405-1.05,3.543-1.67c6.722-3.587,11.504-9.368,13.808-15.857
		c2.246-6.182,2.566-12.306,2.596-18.299V281.502z M210.602,103.146c-2.873-2.726-6.081-5.978-8.515-9.769
		c-2.42-3.806-4.054-8.005-4.068-12.984c0.014-4.221,1.239-9.252,4.68-15.23c1.429,2.711,3.295,5.351,5.614,7.888l7.247-6.583
		c-4.827-5.344-6.548-10.265-6.576-14.982c0-4.09,1.386-8.223,3.996-12.263c3.892-6.051,10.6-11.708,18.401-15.704
		c7.801-4.024,16.666-6.401,24.613-6.386c10.615-0.036,22.819,4.243,31.991,10.892c4.593,3.303,8.428,7.167,11.023,11.198
		c2.61,4.04,3.996,8.173,3.996,12.263c-0.03,4.717-1.75,9.638-6.576,14.982l7.262,6.583c2.318-2.537,4.169-5.177,5.599-7.888
		c3.441,5.978,4.666,11.008,4.68,15.23c0,6.605-2.931,11.963-6.722,16.593c-1.88,2.29-3.936,4.346-5.861,6.16
		c-1.91,1.852-3.645,3.39-5.089,5.097l7.524,6.27c0.656-0.824,2.333-2.384,4.331-4.279c1.56-1.495,3.354-3.252,5.148-5.279
		c0.976,2.129,1.852,5.162,1.837,8.406c-0.015,2.916-0.627,5.986-2.333,9.091c-1.167,2.129-2.931,4.287-5.41,6.401
		c-14.085-6.591-29.702-10.571-46.499-11.22V36.715h-9.799v80.918c-16.797,0.649-32.414,4.629-46.499,11.22
		c-2.478-2.114-4.228-4.279-5.41-6.401c-1.692-3.106-2.318-6.175-2.318-9.091c-0.015-3.274,0.845-6.306,1.852-8.435
		c1.779,2.005,3.572,3.827,5.118,5.308c1.997,1.895,3.674,3.456,4.33,4.279l7.524-6.27
		C214.247,106.536,212.526,104.998,210.602,103.146z M169.964,167.1c21.201-24.074,50.8-39.792,86.028-39.807
		c35.228,0.015,64.828,15.733,86.028,39.807c19.772,22.469,32.035,52.244,34.047,82.82c-0.7-0.073-1.341-0.204-2.085-0.233
		l-0.117-0.008h-0.117c-7.553,0.014-15.266-2.909-23.548-7.75c-12.408-7.218-25.662-18.576-40.856-28.295
		c-15.194-9.689-32.603-17.803-53.352-17.803c-13.808-0.007-26.202,3.609-37.386,8.88c-16.754,7.918-30.971,19.51-44.094,28.834
		c-6.546,4.681-12.817,8.778-18.838,11.643c-6.036,2.865-11.767,4.491-17.439,4.491h-0.102l-0.132,0.008
		c-0.714,0.029-1.386,0.116-2.071,0.189C137.958,219.307,150.192,189.554,169.964,167.1z M364.534,424.31
		c0.526,0.277,1.006,0.612,1.56,0.846c5.657,2.391,9.769,5.191,12.292,7.99c2.522,2.821,3.529,5.439,3.558,8.26
		c0,3.135-1.4,6.999-5.162,11.512c-3.748,4.484-9.799,9.434-18.3,14.414c-13.531,7.954-33.405,14.953-52.754,19.838
		c-19.32,4.892-38.29,7.713-49.736,7.698c-11.446,0.015-30.416-2.806-49.736-7.698c-19.335-4.885-39.223-11.884-52.754-19.838
		c-8.501-4.979-14.552-9.93-18.285-14.414c-3.776-4.513-5.176-8.377-5.162-11.512c0.015-2.821,1.021-5.439,3.558-8.26
		c2.508-2.8,6.62-5.599,12.277-7.99c0.73-0.321,1.4-0.737,2.085-1.13c2.931,3.419,7.539,7.327,13.808,11.548
		c18.853,12.627,52.638,27.544,94.194,27.565h0.817c27.69-0.007,51.967-6.663,70.63-14.807c9.332-4.082,17.279-8.537,23.563-12.758
		C357.097,431.461,361.588,427.663,364.534,424.31z M349.428,345.761c-8.676,13.582-17.483,26.435-23.301,39.879l8.997,3.878
		c2.391-5.57,5.497-11.228,8.968-17.03c0.408,8.5,1.545,17.905,3.892,26.559c1.546,5.642,3.602,10.98,6.474,15.551
		c0.773,1.218,1.619,2.377,2.523,3.477c-2.085,2.326-6.008,5.731-11.446,9.368c-17.366,11.672-49.605,25.926-88.74,25.903h-0.817
		c-26.1,0.008-49.109-6.298-66.723-13.99c-8.792-3.849-16.244-8.034-22.017-11.913c-5.774-3.864-9.901-7.487-11.855-9.813h-0.014
		c0.773-0.962,1.501-1.975,2.158-3.032c4.302-6.861,6.824-15.434,8.414-24.219c1.079-6.052,1.662-12.176,1.939-17.906
		c3.485,5.81,6.591,11.475,8.982,17.045l8.996-3.878c-5.817-13.444-14.624-26.297-23.3-39.879
		c-6.445-10.061-12.802-20.501-17.949-31.721c12.817,1.888,32.515,3.58,52.52,4.878c20.166,1.305,40.448,2.18,53.964,2.362v109.54
		h9.799V321.28c13.517-0.182,33.813-1.057,53.964-2.362c20.005-1.298,39.704-2.989,52.521-4.878
		C362.23,325.26,355.873,335.7,349.428,345.761z M386.726,290.558c-0.73,3.791-1.896,6.167-4.068,8.158
		c-1.677,1.509-4.244,2.909-8.137,3.988l-2.231-0.788c-0.174,0.489-0.364,0.94-0.54,1.414c-0.422,0.088-0.773,0.197-1.224,0.277
		c-11.374,2.064-33.755,4.083-56.312,5.541c-22.557,1.458-45.478,2.384-58.222,2.384c-12.744,0-35.666-0.926-58.222-2.384
		c-22.543-1.458-44.94-3.477-56.312-5.541l-1.225-0.255c-0.175-0.474-0.364-0.948-0.539-1.436l-2.202,0.773
		c-2.202-0.598-4.024-1.305-5.439-2.078c-3.266-1.844-4.738-3.739-5.89-6.692c-1.108-2.946-1.546-7.13-1.531-12.409
		c0-3.601,0.072-6.896,0.422-9.696c0.511-4.25,1.604-7.116,3.295-8.866c0.861-0.896,1.925-1.648,3.529-2.274
		c1.59-0.62,3.747-1.072,6.591-1.21c10.017-0.072,19.305-3.864,28.244-9.076c13.545-7.925,26.727-19.284,41.206-28.499
		c14.48-9.237,29.964-16.265,48.074-16.265c12.102,0,22.966,3.113,33.201,7.94c15.368,7.225,29.133,18.358,42.592,27.959
		c6.751,4.797,13.415,9.215,20.311,12.503c6.824,3.244,13.94,5.388,21.42,5.431v0.007c3.805,0.182,6.343,0.933,8.034,1.874
		c1.269,0.714,2.144,1.531,2.888,2.588c1.108,1.567,1.91,3.842,2.362,6.86c0.452,3.004,0.568,6.664,0.554,10.724
		C387.368,285.023,387.178,288.064,386.726,290.558z"/>
	<path class="st0" d="M108.418,293.663c0,0,0-0.022,0-0.037l-0.015-0.007L108.418,293.663z"/>
	<path class="st0" d="M184.18,130.712v-0.007c-0.014-0.007-0.014-0.007-0.014-0.007L184.18,130.712z"/>
</g>
</svg>