<?xml version="1.0" encoding="utf-8"?>

<!DOCTYPE svg PUBLIC "-//W3C//DTD SVG 1.1//EN" "http://www.w3.org/Graphics/SVG/1.1/DTD/svg11.dtd">
<!-- Uploaded to: SVG Repo, www.svgrepo.com, Generator: SVG Repo Mixer Tools -->
<svg version="1.1" id="_x32_" xmlns="http://www.w3.org/2000/svg" xmlns:xlink="http://www.w3.org/1999/xlink" 
	 width="800px" height="800px" viewBox="0 0 512 512"  xml:space="preserve">
<style type="text/css">
<![CDATA[
	.st0{fill:#000000;}
]]>
</style>
<g>
	<path class="st0" d="M358.256,23.646c-102.25-42.594-251.813-36.219-300.844,90.953c-44.781,116.141-2.953,224.594,24.656,256.766
		c20.125,30.094,24.172,37.953,14.203,47.922c-9.953,9.969-37.25,28.234-31.984,51.797c0,0,33.922,40.922,162.75,40.922
		c128.844,0,162.766-40.922,162.766-40.922c5.25-23.563-22.031-41.828-32-51.797c-9.953-9.969,5.563-29.016,14.203-47.922
		c8.641-18.891,24.031-41.266,37.578-136.438c4.297-30.266,53.359-50.438,63.422-88.141
		C482.1,112.692,442.225,58.614,358.256,23.646z M223.912,362.271c-61.172,0-120.313-47-120.313-119.453
		c0-73.969,59.141-96.719,120.313-96.719c61.188,0,120.328,22.75,120.328,96.719C344.24,315.271,285.1,362.271,223.912,362.271z"/>
</g>
</svg>