<?xml version="1.0" encoding="utf-8"?>

<!DOCTYPE svg PUBLIC "-//W3C//DTD SVG 1.1//EN" "http://www.w3.org/Graphics/SVG/1.1/DTD/svg11.dtd">
<!-- Uploaded to: SVG Repo, www.svgrepo.com, Generator: SVG Repo Mixer Tools -->
<svg version="1.1" id="_x32_" xmlns="http://www.w3.org/2000/svg" xmlns:xlink="http://www.w3.org/1999/xlink" 
	 width="800px" height="800px" viewBox="0 0 512 512"  xml:space="preserve">
<style type="text/css">
<![CDATA[
	.st0{fill:#000000;}
]]>
</style>
<g>
	<path class="st0" d="M391.178,416.172c-10.313-10.297-15.688-12.172,14.656-49.531c28.203-34.703,60.766-80.266,47.734-162.703
		C438.678,109.625,371.131,0.078,255.99,0C140.865,0.078,73.318,109.625,58.428,203.938c-13.016,82.438,19.516,128,47.719,162.703
		c30.359,37.359,24.984,39.234,14.688,49.531c-10.313,10.297-38.516,29.188-33.078,53.547c0,0,35.078,42.281,168.234,42.281
		c133.172,0,168.25-42.281,168.25-42.281C429.678,445.359,401.459,426.469,391.178,416.172z M255.99,373.156
		c-63.234,0-124.375-48.594-124.375-123.484c0-76.453,61.141-99.984,124.375-99.984c63.25,0,124.375,23.531,124.375,99.984
		C380.365,324.563,319.24,373.156,255.99,373.156z"/>
</g>
</svg>