<?xml version="1.0" encoding="utf-8"?>

<!DOCTYPE svg PUBLIC "-//W3C//DTD SVG 1.1//EN" "http://www.w3.org/Graphics/SVG/1.1/DTD/svg11.dtd">
<!-- Uploaded to: SVG Repo, www.svgrepo.com, Generator: SVG Repo Mixer Tools -->
<svg height="800px" width="800px" version="1.1" id="_x32_" xmlns="http://www.w3.org/2000/svg" xmlns:xlink="http://www.w3.org/1999/xlink" 
	 viewBox="0 0 512 512"  xml:space="preserve">
<style type="text/css">
	.st0{fill:#000000;}
</style>
<g>
	<path class="st0" d="M144.366,273.275c-19.36-29.504-60.416-14.354-77.456,9.573c2.577-16.484,5.685-29.769,4.649-48.905
		c-0.837-15.457,4.127-32.96,4.127-32.96l11.876,2.122c0,0,4.062,16.095,11.877,19.675c4.649,2.122,29.437-4.26,34.6-7.973
		c5.172-3.73,6.713-10.102,4.135-16.476c-2.586-6.382-8.669-16.641-8.669-16.641c-1.69-3.232-4.807-5.42-8.346-5.868l-52.526-6.606
		c-5.652-0.704-11.106,2.396-13.526,7.708c0,0-42.416,85.719-50.164,110.176c-2.37,7.442-3.688,11.635-4.401,13.873
		c-1.856,5.868,1.202,12.191,6.871,14.189l33.158,11.536c0,0,25.56,15.946,50.091,22.592c15.987,4.334,36.034,13.053,48.822,10.417
		c3.805,20.968,8.685,33.118,22.087,46.46c13.442-20.255,26.321-62.14,17.229-147.934
		C161.174,260.927,149.347,268.891,144.366,273.275z"/>
	<path class="st0" d="M292.034,235.799l6.2-4.782v-24.714c0,0,5.42-6.381,7.74-13.558c2.329-7.177,0.779-21.531-6.97-20.736
		c0,0,0.804-6.63,1.169-14.918l0.356-1.028c-0.066-0.828-0.149-1.64-0.24-2.436c0.24-9.116-0.224-19.293-2.834-24.672
		c-5.421-11.163-26.364-10.368-26.364-10.368s-10.84-0.928-17.486-0.854c-19.435-4.5-21.242-11.901-21.242-11.901
		s-12.398,11.959-17.818,23.122c-5.42,11.163-1.55,43.054-1.55,43.054c-7.749-0.795-9.299,13.559-6.97,20.736
		c2.328,7.177,7.749,13.558,7.749,13.558v24.714l6.191,4.782c0,6.373-3.862,21.523-6.97,24.722c0,0-4.466-1.21-10.708-2.155
		c4.757,30.78,21.804,60.4,53.712,60.4c31.899,0,48.955-29.62,53.712-60.392c-6.24,0.936-10.708,2.146-10.708,2.146
		C295.905,257.322,292.034,242.172,292.034,235.799z"/>
	<path class="st0" d="M511.458,300.972c-0.713-2.238-2.031-6.431-4.393-13.873c-7.749-24.457-50.173-110.176-50.173-110.176
		c-2.412-5.312-7.874-8.412-13.526-7.708l-52.518,6.606c-3.547,0.447-6.664,2.635-8.354,5.868c0,0-6.083,10.259-8.669,16.641
		c-2.578,6.373-1.028,12.746,4.135,16.476c5.163,3.713,29.952,10.095,34.6,7.973c7.808-3.58,11.877-19.675,11.877-19.675
		l11.885-2.122c0,0,4.955,17.503,4.118,32.96c-1.028,19.136,2.072,32.421,4.657,48.905c-17.048-23.927-58.104-39.076-77.464-9.573
		c-4.972-4.384-16.807-12.356-34.435-15.042c-9.092,85.794,3.788,127.679,17.23,147.934c13.401-13.335,18.29-25.493,22.094-46.46
		c12.779,2.636,32.835-6.083,48.822-10.417c24.524-6.646,50.09-22.592,50.09-22.592l33.151-11.536
		C510.256,313.164,513.314,306.84,511.458,300.972z"/>
</g>
</svg>