<?xml version="1.0" encoding="utf-8"?>

<!DOCTYPE svg PUBLIC "-//W3C//DTD SVG 1.1//EN" "http://www.w3.org/Graphics/SVG/1.1/DTD/svg11.dtd">
<!-- Uploaded to: SVG Repo, www.svgrepo.com, Generator: SVG Repo Mixer Tools -->
<svg height="800px" width="800px" version="1.1" id="_x32_" xmlns="http://www.w3.org/2000/svg" xmlns:xlink="http://www.w3.org/1999/xlink" 
	 viewBox="0 0 512 512"  xml:space="preserve">
<style type="text/css">
	.st0{fill:#000000;}
</style>
<g>
	<path class="st0" d="M267.189,163.334l0.406-0.024l38.84-5.548c0.799-0.108,1.515-0.525,2.028-1.193
		c0.495-0.656,0.698-1.468,0.578-2.267c-0.214-1.551-1.527-2.631-3.192-2.631c-0.131,0-0.131,0-39.072,5.567
		c-0.817,0.101-1.54,0.525-2.029,1.181c-0.495,0.656-0.71,1.456-0.591,2.291C264.374,162.201,265.674,163.334,267.189,163.334z"/>
	<path class="st0" d="M206.687,157.762l38.845,5.554l0.406,0.018c1.51,0,2.816-1.122,3.031-2.619
		c0.119-0.818-0.084-1.629-0.596-2.309c-0.502-0.644-1.218-1.062-1.999-1.169l-39.262-5.573c-1.54,0-2.804,1.104-3.026,2.625
		c-0.119,0.794,0.096,1.623,0.579,2.28C205.166,157.238,205.894,157.661,206.687,157.762z"/>
	<path class="st0" d="M276.247,245.929H260.83v-9.874c0-1.688-1.372-3.072-3.066-3.072c-1.688,0-3.067,1.384-3.067,3.072v9.874
		H239.28c-1.694,0-3.067,1.372-3.067,3.067c0,1.688,1.372,3.066,3.067,3.066h15.416v12.642c0,1.688,1.378,3.072,3.067,3.072
		c1.694,0,3.066-1.384,3.066-3.072v-12.642h15.417c1.688,0,3.066-1.378,3.066-3.066
		C279.313,247.301,277.935,245.929,276.247,245.929z"/>
	<path class="st0" d="M307.855,214.5l-0.584,0.048l-0.215,0.066c-7.816,2.106-14.903,3.18-21.072,3.18
		c-19.718,0-24.855-10.728-25.893-13.627v-32.802c0-1.695-1.378-3.073-3.066-3.073c-1.695,0-3.067,1.378-3.067,3.073l0.018,32.754
		c-0.769,2.291-5.602,13.675-25.911,13.675c-6.169,0-13.256-1.074-21.06-3.18l-0.585-0.114h-0.226c-1.384,0-2.602,0.942-2.948,2.255
		c-0.22,0.782-0.107,1.635,0.299,2.345c0.406,0.71,1.062,1.212,1.85,1.426c8.292,2.256,15.905,3.395,22.623,3.395
		c8.03,0,14.921-1.641,20.476-4.862c3.484-2.023,6.348-4.624,8.532-7.744c2.189,3.126,5.059,5.727,8.519,7.744
		c5.561,3.222,12.458,4.862,20.482,4.862c6.724,0,14.336-1.139,22.629-3.395c0.788-0.214,1.444-0.716,1.862-1.426
		c0.406-0.71,0.513-1.563,0.299-2.339C310.444,215.43,309.227,214.5,307.855,214.5z"/>
	<path class="st0" d="M363.363,136.559c0,0,0.006,0.012,0.012,0.012l0.46,0.448L363.363,136.559z"/>
	<path class="st0" d="M400.878,253.065c0,0,0,0.006-0.006,0.012v0.005L400.878,253.065z"/>
	<path class="st0" d="M404.774,228.055c0-5.208-0.471-10.536-1.414-15.882l-0.006-0.018c-0.626-3.52-1.259-6.271-1.838-8.621
		l-0.006-0.018c-0.716-2.905-1.468-5.614-2.303-8.245l0.012,0.018c-1.718-5.495-3.747-10.865-6.038-15.989
		c-7.267-16.24-17.314-30.648-29.807-42.73c-8.21-7.97-17.57-14.892-27.838-20.589l-0.006,0.006
		c-3.926-2.458-8.323-4.212-13.21-5.31c-5.017-1.134-10.56-1.611-16.854-1.611c-3.46,0-7.243,0.185-11.217,0.46l-2.505-5.185
		c2.04-3.651,6.097-11.156,12.612-24.198c1.408-2.792,2.076-5.662,2.07-8.317c0.006-2.476-0.555-4.707-1.283-6.575
		c-0.74-1.838-1.61-3.341-2.392-4.594c2.357-15.584,3.24-36.066-7.464-39.836c-5.757-9.408-14.712-17.988-55.64-17.988
		c-13.244,0-31.572-1.933-33.911-2.726c-2.339-0.77-2.72,2.726-1.17,6.247c1.564,3.496,7.792,11.3,7.792,11.3
		s-6.228-1.169-7.792-1.957c-1.551-0.776,0.192,7.207,0.776,9.749c1.301,5.632,2.786,23.715,3.902,31.96
		c0.119,0.854,0.25,1.742,0.382,2.631c-0.633,1.003-1.337,2.136-2.04,3.562c-1.063,2.166-2.023,4.97-2.017,8.227
		c-0.012,2.655,0.656,5.525,2.064,8.317c6.521,13.042,10.584,20.547,12.624,24.198l-2.518,5.191
		c-3.962-0.28-7.75-0.466-11.204-0.466c-6.3,0-11.837,0.477-16.86,1.605c-4.892,1.092-9.283,2.858-13.209,5.316v-0.006
		c-10.274,5.698-19.64,12.619-27.838,20.589c-12.499,12.082-22.54,26.49-29.813,42.741c-2.291,5.107-4.319,10.477-6.032,15.966
		c-0.823,2.625-1.581,5.334-2.303,8.239v0.018c-0.572,2.35-1.217,5.1-1.837,8.621l-0.006,0.018
		c-0.937,5.358-1.414,10.674-1.414,15.882c0,1.432,0.036,2.852,0.108,4.272c0.358,7.016,1.658,14.146,3.794,20.75
		c3.699,11.556,9.981,22.36,18.936,32.837h0.012c7.893,9.212,16.252,16.49,22.48,21.681h0.012
		c5.608,4.934,12.672,7.762,19.974,7.768c6.134,0.006,12.016-2.017,16.699-5.704l0.006,5.68v3.788c0,2.989,0.012,5.447,0.042,7.195
		v0.209l6.348,74.386l11.628,87.648c0.155,6.688,2.804,12.833,7.518,17.004c4.808,4.302,11.383,6.437,18.614,6.431
		c7.207-0.018,14.074-2.046,19.443-6.127c1.152-0.884,2.214-1.874,3.192-2.96c2.117,2.315,4.624,4.236,7.415,5.644
		c4.54,2.285,9.743,3.436,15.148,3.442c7.244,0.006,13.812-2.13,18.627-6.431c4.707-4.171,7.362-10.316,7.517-17.004l11.622-87.654
		l6.348-74.38v-0.209c0.03-1.748,0.036-4.206,0.036-7.195v-3.8l0.012-5.668c4.69,3.687,10.572,5.709,16.705,5.704
		c7.296-0.006,14.36-2.834,19.974-7.768c6.241-5.19,14.593-12.469,22.493-21.681h0.006c8.955-10.477,15.243-21.281,18.936-32.837
		c2.13-6.605,3.442-13.734,3.794-20.756C404.739,230.906,404.774,229.487,404.774,228.055z M175.264,210.742
		c0.012-0.006,0.024-0.012,0.024-0.012c2.35,4.916,5.477,10.441,9.296,16.419c0.107,0.161,0.632,1.45,1.121,3.818
		c0.764,3.579,1.576,9.636,2.208,19.056c0.298,4.331,0.549,9.414,0.764,15.273c-5.859-5.8-10.28-10.829-13.412-15.208l-0.012-0.012
		c-3.687-5.113-5.811-9.676-6.556-13.286l-0.006-0.018c-0.322-1.491-0.477-2.917-0.477-4.409c0-2.166,0.334-4.522,1.098-7.374
		c0.304-1.122,0.823-2.828,1.318-4.272l0.006-0.024c0.513-1.503,1.062-2.995,1.647-4.439l0.012-0.012
		c0.174-0.442,0.734-1.576,1.324-2.638c0.597-1.08,1.242-2.183,1.659-2.87L175.264,210.742z M250.115,353.791v0.078v133.939v0.06
		c0,1.897-0.417,3.46-1.146,4.868c-1.098,2.1-3.007,3.95-5.715,5.322c-2.696,1.36-6.133,2.183-9.856,2.177
		c-5.012-0.006-8.532-1.426-10.775-3.436c-2.219-2.034-3.544-4.731-3.615-8.854l-0.006-0.37l-11.669-87.934l-6.223-72.948
		l49.006,19.026V353.791z M310.957,325.958l-6.288,73.682l-11.67,87.934v0.37c-0.078,4.122-1.396,6.819-3.621,8.854
		c-2.237,2.01-5.764,3.43-10.781,3.436c-4.964,0.012-9.402-1.468-12.29-3.699c-1.456-1.116-2.535-2.392-3.275-3.8
		c-0.734-1.408-1.14-2.972-1.152-4.868v-0.06V353.868v-0.078v-8.586l49.101-23.297C310.975,323.524,310.969,324.903,310.957,325.958
		z M327.417,227.148c3.813-5.978,6.95-11.503,9.289-16.43c0.012,0.012,0.012,0.012,0.018,0.018c0.423,0.686,1.068,1.79,1.658,2.87
		c0.585,1.05,1.134,2.16,1.318,2.613l0,0c0.596,1.456,1.152,2.948,1.664,4.475l0.006,0.024c0.501,1.444,1.014,3.15,1.318,4.278
		l-0.006-0.006c0.769,2.852,1.097,5.214,1.097,7.386c0,1.48-0.154,2.9-0.471,4.403l-0.006,0.012
		c-0.746,3.61-2.864,8.174-6.563,13.286l-0.012,0.012c-3.126,4.373-7.553,9.408-13.4,15.208c0.382-10.656,0.925-18.662,1.539-24.527
		c0.502-4.821,1.062-8.228,1.576-10.465c0.25-1.116,0.495-1.939,0.686-2.464l0.232-0.573l0.06-0.119H327.417z M392.919,231.724
		c-0.298,5.972-1.432,12.171-3.234,17.738l-0.012,0.012c-3.174,9.904-8.544,19.264-16.682,28.792l0.012-0.006
		c-7.225,8.43-15.058,15.279-21.084,20.297l-0.072,0.06l-0.084,0.065c-3.639,3.24-8.018,4.916-12.302,4.916
		c-4.761-0.012-8.949-2.017-11.718-5.436c-2.231-2.78-3.364-6.246-3.37-9.898c-0.006-4.868,2.058-9.868,5.924-13.304l0.096-0.09
		l0.107-0.102c6.724-6.586,11.897-12.391,15.799-17.832c4.325-6.02,7.266-11.873,8.514-17.702c0.483-2.255,0.734-4.546,0.734-6.861
		c0-3.401-0.531-6.825-1.498-10.441l-0.006-0.012c-0.394-1.438-0.954-3.282-1.545-5.023l0.006,0.024
		c-0.584-1.73-1.217-3.449-1.909-5.137l-0.018-0.048c-0.531-1.271-1.199-2.529-1.891-3.8c-0.692-1.265-1.39-2.458-1.898-3.294
		h-0.006c-1.546-2.554-3.783-4.259-5.96-5.25c-2.196-1.002-4.356-1.372-6.366-1.384c-0.83,0-1.54,0.066-2.202,0.179l-3.228,0.561
		l-1.223,3.042c-1.969,4.916-5.536,11.575-10.297,19.02c-1.193,1.922-1.838,3.938-2.53,6.873
		c-0.996,4.373-1.862,10.757-2.559,20.607c-0.603,8.615-1.068,19.868-1.295,34.592H200.871c-0.31-20.285-1.074-34.043-2.04-43.338
		c-0.537-5.143-1.14-8.937-1.802-11.861c-0.692-2.935-1.348-4.951-2.542-6.879c-4.755-7.439-8.317-14.098-10.291-19.014
		l-1.223-3.042l-3.222-0.561c-0.668-0.114-1.378-0.179-2.207-0.179c-2.011,0.012-4.164,0.382-6.366,1.384
		c-2.177,0.991-4.421,2.696-5.96,5.25h-0.012c-0.502,0.835-1.199,2.028-1.891,3.294c-0.698,1.277-1.372,2.542-1.903,3.824
		l-0.012,0.024c-0.686,1.688-1.318,3.406-1.909,5.137l0.012-0.024c-0.597,1.742-1.158,3.586-1.545,5.023
		c-0.973,3.615-1.504,7.052-1.504,10.441c0,2.327,0.25,4.618,0.734,6.873c1.253,5.835,4.2,11.688,8.526,17.72
		c3.896,5.441,9.062,11.24,15.792,17.814l0.096,0.096l0.095,0.095c3.872,3.437,5.936,8.436,5.93,13.304
		c0,3.652-1.134,7.118-3.377,9.898c-2.769,3.419-6.945,5.423-11.706,5.436c-4.289,0-8.674-1.676-12.314-4.916l-0.059-0.06
		l-0.084-0.066c-6.032-5.018-13.865-11.867-21.084-20.297l0.006,0.006c-8.132-9.528-13.502-18.889-16.688-28.792v-0.012
		c-1.808-5.567-2.935-11.765-3.239-17.732c-0.066-1.217-0.09-2.446-0.09-3.675c0-4.486,0.406-9.134,1.235-13.853l-0.006,0.018
		c0.572-3.204,1.146-5.638,1.694-7.893c0.662-2.697,1.343-5.154,2.088-7.512l0.012-0.03c1.575-5.047,3.436-9.987,5.536-14.664
		c6.694-14.939,15.858-28.077,27.26-39.102l0.012-0.012c7.434-7.219,15.959-13.531,25.35-18.746l0.144-0.078l0.167-0.101
		c2.768-1.766,5.87-3.049,9.772-3.932c3.902-0.877,8.585-1.324,14.283-1.318c4.188,0,8.914,0.238,14.259,0.698l4.033,0.352
		l8.753-18.065l-1.641-2.726l-0.024-0.054c-0.406-0.686-4.618-7.87-13.758-26.155c-0.668-1.361-0.823-2.267-0.829-3.055
		c0-0.298,0.042-0.585,0.095-0.883l12.488-22.892h50.664l14.038,23.447c0.006,0.107,0.054,0.22,0.054,0.328
		c-0.012,0.788-0.155,1.694-0.824,3.055c-4.88,9.755-8.353,16.347-10.596,20.481c-1.122,2.07-1.933,3.52-2.458,4.445
		c-0.263,0.465-0.454,0.799-0.573,1.002l-0.131,0.227l-0.036,0.054l-1.635,2.726l8.752,18.065l4.04-0.352
		c5.334-0.46,10.064-0.698,14.259-0.698c5.691,0,10.381,0.441,14.271,1.318c3.902,0.889,7.01,2.166,9.772,3.932l0.143,0.09
		l0.167,0.089c9.391,5.215,17.922,11.527,25.356,18.746l0.012,0.012c11.407,11.025,20.571,24.162,27.253,39.096
		c2.1,4.683,3.974,9.623,5.549,14.67l0.005,0.03c0.746,2.357,1.426,4.815,2.094,7.512c0.549,2.255,1.11,4.689,1.689,7.893
		l-0.006-0.018c0.83,4.714,1.241,9.361,1.241,13.853C393.015,229.284,392.979,230.513,392.919,231.724z"/>
	<path class="st0" d="M346.301,256.937L346.301,256.937c-0.006,0.006-0.006,0.012-0.006,0.012L346.301,256.937z"/>
	<path class="st0" d="M350.572,211.72l0.006,0.018c0.006,0.006,0.006,0.018,0.018,0.024L350.572,211.72z"/>
</g>
</svg>