<?xml version="1.0" encoding="utf-8"?>

<!DOCTYPE svg PUBLIC "-//W3C//DTD SVG 1.1//EN" "http://www.w3.org/Graphics/SVG/1.1/DTD/svg11.dtd">
<!-- Uploaded to: SVG Repo, www.svgrepo.com, Generator: SVG Repo Mixer Tools -->
<svg height="800px" width="800px" version="1.1" id="_x32_" xmlns="http://www.w3.org/2000/svg" xmlns:xlink="http://www.w3.org/1999/xlink" 
	 viewBox="0 0 512 512"  xml:space="preserve">
<style type="text/css">
	.st0{fill:#000000;}
</style>
<g>
	<path class="st0" d="M440.864,399.401c-11.248-19.195-28.652-30.738-45.4-38.44c-16.757-7.695-33.334-11.851-43.308-15.62
		c-7.889-2.934-16.512-7.522-22.654-12.47c-3.071-2.46-5.501-5.006-6.976-7.221c-1.503-2.244-1.971-3.963-1.963-5.12
		c0-7.939,0-11.521,0-23.588c10.571-11.766,25.76-29.996,32.003-58.9c2.179-0.985,4.336-2.093,6.415-3.538
		c5.17-3.567,9.557-8.76,13.276-15.8c3.747-7.077,7.055-16.131,10.593-28.501c1.79-6.285,2.617-11.736,2.617-16.583
		c0.015-5.596-1.143-10.456-3.257-14.398c-2.568-4.832-6.415-7.868-10.003-9.68c0.143-0.316,0.273-0.568,0.416-0.906
		c2.683-6.422,5.437-15.311,5.451-25.523c-0.043-15.844-3.264-45.811-20.302-72.901c-8.522-13.499-20.633-26.192-37.382-35.383
		C303.656,5.624,282.425-0.007,256.004,0c-26.422-0.007-47.652,5.624-64.387,14.829c-25.164,13.808-39.705,35.397-47.738,55.973
		c-8.069,20.64-9.932,40.402-9.946,52.312c0.014,10.212,2.769,19.1,5.451,25.523c0.151,0.36,0.295,0.633,0.446,0.971
		c-0.654,0.324-1.273,0.54-1.942,0.949c-2.978,1.848-5.991,4.725-8.09,8.666c-2.114,3.942-3.273,8.802-3.265,14.398
		c0.007,4.861,0.834,10.313,2.624,16.583c4.732,16.484,9.004,27.127,14.535,34.938c2.769,3.876,5.911,6.99,9.335,9.364
		c2.078,1.445,4.236,2.552,6.415,3.538c6.242,28.903,21.43,47.134,32.002,58.9c0,12.053,0,15.649,0,23.588
		c0.022,0.986-0.475,2.805-2.115,5.142c-2.388,3.502-7.084,7.688-12.527,11.227c-5.43,3.56-11.615,6.573-16.8,8.4
		c-6.738,2.373-16.44,5.034-27.062,8.781c-15.93,5.646-34.196,13.779-48.824,28.378c-14.664,14.549-25.076,35.878-24.99,65.134
		c0,3.726,0.165,7.58,0.503,11.579c0.216,2.488,1.094,4.552,2.15,6.314c2.021,3.279,4.761,5.818,8.198,8.407
		c6.012,4.466,14.369,8.846,25.221,13.182c32.47,12.902,87.392,24.905,160.805,24.926c59.647,0,107.133-7.968,140.222-17.843
		c16.555-4.954,29.493-10.348,38.784-15.699c4.66-2.704,8.407-5.358,11.37-8.242c1.482-1.453,2.776-2.977,3.848-4.732
		c1.056-1.762,1.934-3.826,2.15-6.314c0.331-3.999,0.496-7.839,0.496-11.55C452.896,428.124,448.358,412.159,440.864,399.401z
		 M325.647,350.045c0.367,0.244,0.777,0.418,1.15,0.662l-28.27,69.082l-34.088-42.618l49.665-36.497
		C317.499,344.141,321.404,347.254,325.647,350.045z M174.372,230.758l-0.82-4.638l-4.43-1.583
		c-2.819-1.007-4.969-2.035-6.846-3.337c-2.769-1.956-5.279-4.624-8.212-10.097c-2.899-5.437-5.97-13.556-9.328-25.343
		c-1.474-5.156-2-9.162-2-12.139c0.008-3.452,0.669-5.48,1.345-6.753c1.022-1.856,2.273-2.647,3.869-3.286
		c1.093-0.417,2.251-0.575,2.905-0.633l10.895,2.323l13.089,15.527l6.99-1.626c0,0,2.33-43.696,2.33-55.85
		c0-12.146,23.301-18.886,71.837-18.886c48.543,0,71.844,6.739,71.844,18.886c0,12.154,2.33,55.85,2.33,55.85l6.991,1.626
		l14.204-16.843l9.385-1.014c0.518-0.015,3.092,0.237,4.797,1.373c0.927,0.59,1.683,1.28,2.373,2.553
		c0.676,1.273,1.338,3.294,1.352,6.753c0,2.977-0.532,6.975-1.999,12.139c-4.466,15.735-8.472,24.883-12.147,29.96
		c-1.841,2.56-3.524,4.171-5.394,5.48c-1.877,1.302-4.028,2.33-6.846,3.337l-4.43,1.583l-0.82,4.638
		c-5.185,29.033-20.143,45.357-31.19,57.662l-2.079,2.309v3.114c0,14.721,0,18.087,0,26.688c0.007,3.883,1.079,7.465,2.697,10.687
		l-51.06,37.526l-51.14-37.583c1.64-3.193,2.762-6.718,2.776-10.63c0-8.601,0-11.96,0-26.688v-3.114l-2.079-2.309
		C194.515,276.115,179.557,259.79,174.372,230.758z M192.049,345.86c2.057-1.64,4.006-3.38,5.804-5.221l49.715,36.533
		l-34.088,42.618l-28.262-69.068C187.576,349.196,189.87,347.585,192.049,345.86z M436.254,457.244
		c-0.346,0.546-1.618,1.977-3.847,3.61c-4.222,3.178-11.558,7.177-21.496,11.133c-29.896,11.938-83.258,23.833-154.907,23.819
		c-58.18,0-104.264-7.811-135.584-17.174c-15.642-4.66-27.616-9.752-35.326-14.21c-3.854-2.215-6.623-4.287-8.133-5.782
		c-0.676-0.648-1.05-1.136-1.223-1.41c-0.258-3.337-0.41-6.573-0.41-9.637c0.022-17.058,3.833-29.91,9.773-40.129
		c8.889-15.29,23.02-25.077,38.13-32.046c15.109-6.976,30.729-10.845,42.15-14.844c3.071-1.093,6.271-2.51,9.478-4.07l35.296,86.299
		l45.847-57.317l45.846,57.317l35.318-86.343c3.1,1.503,6.228,2.905,9.306,4.056c7.666,2.862,17.095,5.508,27.091,9.076
		c14.98,5.322,30.952,12.672,42.827,24.509c11.83,11.896,20.187,27.961,20.28,53.52
		C436.672,450.684,436.528,453.899,436.254,457.244z"/>
	<circle class="st0" cx="255.774" cy="472.259" r="6.904"/>
	<circle class="st0" cx="256.234" cy="429.455" r="6.904"/>
</g>
</svg>