<?xml version="1.0" encoding="utf-8"?>

<!DOCTYPE svg PUBLIC "-//W3C//DTD SVG 1.1//EN" "http://www.w3.org/Graphics/SVG/1.1/DTD/svg11.dtd">
<!-- Uploaded to: SVG Repo, www.svgrepo.com, Generator: SVG Repo Mixer Tools -->
<svg height="800px" width="800px" version="1.1" id="_x32_" xmlns="http://www.w3.org/2000/svg" xmlns:xlink="http://www.w3.org/1999/xlink" 
	 viewBox="0 0 512 512"  xml:space="preserve">
<style type="text/css">
	.st0{fill:#000000;}
</style>
<g>
	<path class="st0" d="M426.784,407.978c-10.391-17.726-26.476-28.396-41.942-35.518c-15.48-7.11-30.794-10.942-40.01-14.418
		c-6.232-2.312-12.869-5.773-18.231-9.58v-24.422c-0.286-3.176-6.644-3.88-10.956-4c0-1.887,0-4.106,0-6.717
		c9.766-10.876,23.805-27.712,29.565-54.42c2.013-0.903,4.006-1.927,5.926-3.269c4.777-3.296,8.829-8.079,12.264-14.59
		c3.462-6.538,6.518-14.896,9.786-26.33c1.654-5.806,2.418-10.836,2.418-15.327c0-2.265-0.232-4.372-0.631-6.364
		c68.505-88.217-34.242-203.82-110.241-190.314c-59.529-15.307-113.225,37.213-134.365,83.34
		c-17.154,37.425-11.388,89.055,6.723,106.568c-0.452,2.106-0.704,4.358-0.697,6.777c0.007,4.485,0.771,9.521,2.426,15.32
		c4.371,15.228,8.318,25.054,13.427,32.27c2.558,3.588,5.461,6.464,8.624,8.65c1.92,1.342,3.913,2.366,5.926,3.269
		c5.76,26.695,19.792,43.537,29.558,54.413c0,2.611,0,4.83,0,6.724c-4.318,0.12-10.663,0.824-10.949,4v24.396
		c-0.844,0.605-1.674,1.222-2.571,1.801c-5.016,3.288-10.73,6.072-15.526,7.753c-6.226,2.206-15.188,4.658-24.995,8.119
		c-14.716,5.215-31.591,12.73-45.105,26.216c-13.547,13.441-23.167,33.14-23.087,60.18c0,3.435,0.153,7.003,0.465,10.683
		c0.199,2.306,1.01,4.212,1.987,5.833c1.867,3.03,4.398,5.382,7.574,7.774c5.554,4.119,13.274,8.172,23.3,12.172
		c29.997,11.919,80.736,23.014,148.557,23.034c55.104-0.007,98.973-7.354,129.542-16.483c15.294-4.578,27.246-9.567,35.83-14.511
		c4.305-2.484,7.766-4.942,10.504-7.613c1.369-1.342,2.565-2.737,3.555-4.372c0.976-1.621,1.787-3.528,1.986-5.826
		c0.306-3.687,0.458-7.235,0.458-10.664C437.892,434.513,433.707,419.764,426.784,407.978z M256.004,492.972
		c-6.252,0-11.322-5.062-11.322-11.321s5.069-11.322,11.322-11.322c6.252,0,11.321,5.063,11.321,11.322
		S262.255,492.972,256.004,492.972z M256.004,445.768c-6.252,0-11.322-5.07-11.322-11.322c0-6.252,5.069-11.321,11.322-11.321
		c6.252,0,11.321,5.07,11.321,11.321C267.325,440.698,262.255,445.768,256.004,445.768z M256.004,398.57
		c-6.252,0-11.322-5.07-11.322-11.322s5.069-11.321,11.322-11.321c6.252,0,11.321,5.07,11.321,11.321S262.255,398.57,256.004,398.57
		z M300.677,307.582v2.877c0,13.016,0,16.464,0,23.685c-10.305,2.777-23.44,5.162-39.146,5.628v17.712h-11.055v-17.712
		c-15.713-0.465-28.848-2.85-39.152-5.628c0-7.222,0-10.676,0-23.685v-2.877l-1.92-2.132c-10.205-11.368-24.024-26.456-28.815-53.27
		l-0.757-4.292l-4.093-1.454c-2.604-0.931-4.591-1.88-6.325-3.083c-2.558-1.807-4.883-4.272-7.587-9.321
		c-2.678-5.023-5.515-12.53-8.617-23.426c-1.362-4.757-1.847-8.458-1.847-11.208c0.007-3.195,0.618-5.056,1.242-6.238
		c0.944-1.714,2.1-2.445,3.568-3.036c1.01-0.392,2.073-0.531,2.685-0.584l3.488,0.738l8.843,26.741l5.103-23.812
		c0,0,80.616-32.316,90.821-88.443c6.803,35.717,72.458,79.939,72.458,79.939v32.316l12.656-27.418l0.625-0.067
		c0.605,0.007,2.837,0.266,4.352,1.269c0.856,0.552,1.554,1.189,2.192,2.359c0.624,1.182,1.236,3.043,1.242,6.232
		c0.007,2.758-0.485,6.458-1.84,11.222c-4.126,14.53-7.827,22.988-11.222,27.678c-1.701,2.372-3.255,3.847-4.983,5.062
		c-1.734,1.203-3.72,2.152-6.325,3.083l-4.092,1.454l-0.758,4.292c-4.79,26.814-18.609,41.903-28.814,53.27L300.677,307.582z"/>
</g>
</svg>