<?xml version="1.0" encoding="utf-8"?>

<!DOCTYPE svg PUBLIC "-//W3C//DTD SVG 1.1//EN" "http://www.w3.org/Graphics/SVG/1.1/DTD/svg11.dtd">
<!-- Uploaded to: SVG Repo, www.svgrepo.com, Generator: SVG Repo Mixer Tools -->
<svg height="800px" width="800px" version="1.1" id="_x32_" xmlns="http://www.w3.org/2000/svg" xmlns:xlink="http://www.w3.org/1999/xlink" 
	 viewBox="0 0 512 512"  xml:space="preserve">
<style type="text/css">
	.st0{fill:#000000;}
</style>
<g>
	<path class="st0" d="M428.794,406.752c-10.516-17.93-26.78-28.73-42.433-35.934c-15.66-7.197-31.16-11.076-40.482-14.59
		c-7.379-2.743-15.435-7.029-21.176-11.665c-2.874-2.3-5.144-4.679-6.52-6.752c-1.412-2.082-1.841-3.697-1.841-4.781
		c0-7.416,0-10.771,0-22.05c9.882-11.003,24.094-28.039,29.916-55.058c2.044-0.917,4.06-1.95,5.996-3.311
		c4.839-3.333,8.944-8.172,12.407-14.758c3.508-6.615,6.601-15.071,9.912-26.641c1.666-5.873,2.445-10.967,2.445-15.508
		c0-0.756-0.066-1.469-0.124-2.205c13.906-12.48,24.728-31.56,16.446-59.272C366.611,44.886,335.582,0.902,255.658,0
		c-79.932,0.902-114.483,41.444-137.69,134.226c-6.949,27.791,3.683,46.792,17.131,59.207c-0.044,0.749-0.124,1.492-0.124,2.277
		c0.014,4.534,0.779,9.635,2.459,15.5c4.425,15.406,8.42,25.346,13.579,32.652c2.598,3.631,5.53,6.542,8.725,8.748
		c1.95,1.36,3.966,2.394,5.996,3.311c5.836,27.012,20.034,44.048,29.916,55.051c0,11.286,0,14.641,0,22.057
		c0.03,0.924-0.444,2.619-1.972,4.81c-2.234,3.282-6.615,7.19-11.716,10.494c-5.065,3.326-10.85,6.142-15.704,7.844
		c-6.302,2.234-15.362,4.708-25.287,8.216c-14.897,5.276-31.969,12.881-45.642,26.525c-13.703,13.601-23.432,33.532-23.352,60.887
		c0,3.478,0.145,7.088,0.466,10.814c0.204,2.328,1.026,4.257,2.008,5.902c1.892,3.063,4.446,5.443,7.662,7.859
		c5.618,4.169,13.434,8.274,23.578,12.32c30.345,12.058,81.692,23.287,150.316,23.301c55.749,0,100.132-7.437,131.066-16.672
		c15.479-4.635,27.559-9.686,36.248-14.685c4.358-2.51,7.866-4.999,10.631-7.699c1.391-1.361,2.598-2.772,3.596-4.424
		c0.99-1.645,1.812-3.573,2.016-5.894c0.306-3.733,0.458-7.321,0.458-10.792C440.03,433.604,435.795,418.679,428.794,406.752z
		 M243.665,496.66c-0.248-0.007-0.487-0.014-0.727-0.014l-24.24-56.885l0.305,0.248l22.05-27.566l3.617,15.216h0.968L243.665,496.66
		z M213.961,428.67l-27.799-65.217c3.479-2.023,6.906-4.25,10.057-6.746c1.921-1.542,3.748-3.165,5.429-4.883l46.464,34.158
		L213.961,428.67z M255.993,378.102l-47.796-35.127c1.528-2.991,2.584-6.294,2.591-9.947c0-8.034,0-11.178,0-24.946v-2.911
		l-1.936-2.154c-10.326-11.504-24.305-26.772-29.16-53.901l-0.764-4.344l-4.141-1.47c-2.634-0.938-4.642-1.899-6.403-3.122
		c-2.576-1.826-4.934-4.323-7.678-9.431c-2.7-5.08-5.575-12.677-8.71-23.702c-0.189-0.634-0.306-1.201-0.466-1.798
		c10.216,5.742,18.629,8.136,18.629,8.136c-2.955-10.152-4.89-18.797-5.728-26.226l1.616,0.342v-9.344c0,0,0-4.651,0-11.2
		c7.234-19.211,34.159-23.2,89.61-24.706c57.43,0,84.254,4.781,90.286,26.358c0,5.654,0,9.548,0,9.548v8.426l0.976-0.102
		c-0.801,7.641-2.744,16.519-5.772,26.904c0,0,8.806-2.503,19.386-8.383c-0.174,0.684-0.32,1.332-0.524,2.052
		c-4.184,14.699-7.918,23.258-11.36,28.002c-1.725,2.402-3.296,3.894-5.043,5.123c-1.747,1.223-3.762,2.183-6.397,3.122l-4.14,1.478
		l-0.772,4.337c-4.839,27.129-18.818,42.397-29.144,53.901l-1.95,2.154v2.911c0,13.768,0,16.912,0,24.946
		c0.014,3.638,1.011,6.978,2.525,9.999L255.993,378.102z M269.033,496.711c-0.24,0.014-0.458,0.022-0.698,0.029l-1.994-69.081h1.011
		l3.602-15.216l22.05,27.558l0.306-0.24L269.033,496.711z M298.032,428.67l-34.151-42.687l46.428-34.122
		c3.172,3.238,6.826,6.149,10.792,8.762c1.536,0.997,3.173,1.819,4.774,2.729L298.032,428.67z"/>
</g>
</svg>