<?xml version="1.0" encoding="utf-8"?>

<!DOCTYPE svg PUBLIC "-//W3C//DTD SVG 1.1//EN" "http://www.w3.org/Graphics/SVG/1.1/DTD/svg11.dtd">
<!-- Uploaded to: SVG Repo, www.svgrepo.com, Generator: SVG Repo Mixer Tools -->
<svg height="800px" width="800px" version="1.1" id="_x32_" xmlns="http://www.w3.org/2000/svg" xmlns:xlink="http://www.w3.org/1999/xlink" 
	 viewBox="0 0 512 512"  xml:space="preserve">
<style type="text/css">
	.st0{fill:#000000;}
</style>
<g>
	<path class="st0" d="M430.9,405.469c-10.643-18.149-27.106-29.08-42.957-36.372c-15.859-7.285-31.533-11.21-40.976-14.768
		c-7.462-2.776-15.623-7.115-21.42-11.807c-2.916-2.328-5.215-4.736-6.614-6.835c-1.414-2.107-1.864-3.742-1.849-4.839
		c0-7.506,0-10.902,0-22.318c9.995-11.138,24.381-28.38,30.273-55.73c2.07-0.928,4.11-1.974,6.07-3.351
		c4.898-3.374,9.053-8.272,12.566-14.938c3.536-6.696,6.666-15.255,10.01-26.974c1.702-5.937,2.482-11.093,2.482-15.689
		c0.007-5.296-1.076-9.877-3.079-13.619c-0.192-0.339-0.42-0.589-0.626-0.914c4.339-25.935,21.198-151.69-60.054-148.568
		c-19.158-20.904-67.934-47.03-121.933-10.452c-59.007,39.974-69.51,132.628-52.798,155.233c-1.266,1.334-2.453,2.895-3.402,4.707
		c-2.004,3.734-3.102,8.323-3.086,13.619c0,4.589,0.788,9.753,2.474,15.69c4.479,15.593,8.53,25.662,13.759,33.05
		c2.623,3.676,5.591,6.622,8.832,8.854c1.974,1.377,4.014,2.423,6.07,3.351c5.907,27.349,20.27,44.592,30.274,55.73
		c0,11.416,0,14.812,0,22.318c0.014,0.935-0.45,2.651-1.997,4.868c-2.261,3.322-6.695,7.277-11.852,10.622
		c-5.148,3.366-10.997,6.216-15.895,7.94c-6.386,2.261-15.556,4.765-25.596,8.316c-15.078,5.34-32.366,13.038-46.206,26.848
		c-13.862,13.767-23.717,33.942-23.637,61.629c0,3.521,0.147,7.175,0.479,10.946c0.206,2.357,1.031,4.309,2.025,5.974
		c1.922,3.101,4.508,5.509,7.757,7.955c5.686,4.22,13.597,8.374,23.872,12.47c30.716,12.205,82.68,23.57,152.14,23.585
		c56.436,0,101.353-7.528,132.665-16.875c15.666-4.692,27.901-9.804,36.688-14.864c4.412-2.541,7.963-5.06,10.768-7.793
		c1.4-1.377,2.623-2.806,3.632-4.478c1.009-1.665,1.834-3.617,2.04-5.966c0.31-3.779,0.464-7.411,0.464-10.924
		C442.281,432.649,437.994,417.542,430.9,405.469z M243.515,496.473c-0.243-0.007-0.494-0.014-0.736-0.014l-24.535-57.578
		l0.316,0.25l22.312-27.902l3.66,15.402h0.98L243.515,496.473z M213.456,427.655l-28.145-66.019c3.528-2.04,6.998-4.294,10.18-6.821
		c1.945-1.561,3.793-3.204,5.495-4.95l47.03,34.575L213.456,427.655z M255.993,376.47l-48.378-35.555
		c1.554-3.028,2.615-6.371,2.629-10.068c0-8.132,0-11.314,0-25.25v-2.946l-1.974-2.181c-10.452-11.645-24.595-27.099-29.507-54.558
		l-0.774-4.397l-4.19-1.488c-2.666-0.95-4.692-1.922-6.475-3.16c-2.615-1.848-4.994-4.375-7.771-9.546
		c-2.74-5.149-5.65-12.832-8.832-23.991c-1.392-4.868-1.893-8.662-1.893-11.476c0.015-3.277,0.641-5.178,1.281-6.393
		c0.966-1.754,2.144-2.505,3.661-3.108c0.008-0.008,0.022-0.008,0.037-0.015c12.33,11.432,28.535,44.976,28.535,44.976
		l-3.484-55.737c0,0,76.648-17.42,128.901-66.188c17.42,17.42,27.872,87.092,27.872,87.092l3.484,24.388l16.014-35.12h0.059
		c0.612,0,2.895,0.265,4.449,1.296c0.884,0.566,1.591,1.223,2.247,2.416c0.634,1.215,1.26,3.116,1.274,6.386
		c0,2.822-0.501,6.615-1.892,11.491c-4.213,14.878-8.014,23.541-11.484,28.344c-1.738,2.431-3.337,3.948-5.105,5.185
		c-1.767,1.238-3.808,2.21-6.474,3.16l-4.191,1.488l-0.774,4.397c-4.905,27.459-19.07,42.913-29.521,54.558l-1.96,2.181v2.946
		c0,13.936,0,17.118,0,25.25c0,3.682,1.024,7.064,2.564,10.12L255.993,376.47z M269.192,496.525
		c-0.243,0.014-0.464,0.022-0.706,0.03l-2.011-69.923h1.016l3.646-15.402l22.318,27.894l0.317-0.243L269.192,496.525z
		 M298.545,427.655l-34.56-43.215l46.986-34.53c3.212,3.278,6.916,6.224,10.93,8.869c1.547,1.009,3.212,1.848,4.825,2.762
		L298.545,427.655z"/>
</g>
</svg>