<?xml version="1.0" encoding="utf-8"?>

<!DOCTYPE svg PUBLIC "-//W3C//DTD SVG 1.1//EN" "http://www.w3.org/Graphics/SVG/1.1/DTD/svg11.dtd">
<!-- Uploaded to: SVG Repo, www.svgrepo.com, Generator: SVG Repo Mixer Tools -->
<svg height="800px" width="800px" version="1.1" id="_x32_" xmlns="http://www.w3.org/2000/svg" xmlns:xlink="http://www.w3.org/1999/xlink" 
	 viewBox="0 0 512 512"  xml:space="preserve">
<style type="text/css">
	.st0{fill:#000000;}
</style>
<g>
	<path class="st0" d="M440.866,399.402c-11.246-19.183-28.65-30.737-45.4-38.444c-16.758-7.699-33.333-11.849-43.31-15.609
		c-7.886-2.935-16.512-7.52-22.651-12.48c-3.071-2.46-5.504-5.006-6.976-7.224c-1.506-2.227-1.973-3.955-1.965-5.115
		c0-7.934,0-11.523,0-23.59c10.572-11.772,25.769-29.997,32.005-58.904c2.176-0.98,4.336-2.086,6.415-3.542
		c5.169-3.566,9.556-8.743,13.274-15.789c3.748-7.077,7.058-16.124,10.592-28.502c1.795-6.283,2.62-11.733,2.62-16.591
		c0.015-5.597-1.145-10.44-3.258-14.394c-2.57-4.835-6.415-7.871-9.996-9.678c0.136-0.319,0.265-0.568,0.408-0.903
		c2.682-6.422,5.438-15.314,5.454-25.528c-0.043-15.835-3.266-45.809-20.304-72.894c-8.52-13.507-20.631-26.206-37.38-35.4
		C303.658,5.613,282.428-0.008,256.004,0c-26.423-0.008-47.654,5.613-64.388,14.816c-25.163,13.819-39.706,35.408-47.74,55.984
		c-8.066,20.638-9.93,40.405-9.946,52.309c0.016,10.214,2.772,19.105,5.454,25.528c0.151,0.359,0.292,0.623,0.436,0.965
		c-0.646,0.327-1.265,0.554-1.935,0.95c-2.974,1.845-5.991,4.718-8.088,8.673c-2.114,3.947-3.274,8.798-3.266,14.395
		c0.008,4.85,0.837,10.308,2.628,16.583c4.729,16.482,9.004,27.116,14.531,34.932c2.772,3.885,5.913,7,9.335,9.358
		c2.079,1.456,4.24,2.562,6.415,3.542c6.236,28.907,21.433,47.132,32.006,58.904c0,12.066,0,15.656,0,23.59
		c0.019,0.988-0.475,2.802-2.114,5.146c-2.39,3.511-7.084,7.691-12.53,11.226c-5.431,3.558-11.612,6.57-16.797,8.392
		c-6.742,2.39-16.443,5.037-27.066,8.789c-15.928,5.644-34.197,13.781-48.821,28.378c-14.664,14.551-25.08,35.874-24.995,65.14
		c0,3.721,0.167,7.583,0.506,11.569c0.215,2.491,1.094,4.554,2.149,6.314c2.02,3.278,4.761,5.823,8.198,8.408
		c6.014,4.46,14.372,8.852,25.225,13.18c32.469,12.9,87.394,24.913,160.805,24.928c59.647,0,107.134-7.956,140.225-17.836
		c16.555-4.959,29.495-10.362,38.786-15.711c4.66-2.686,8.404-5.348,11.366-8.237c1.483-1.456,2.779-2.966,3.85-4.733
		c1.054-1.759,1.935-3.822,2.148-6.306c0.331-3.994,0.498-7.833,0.498-11.546C452.898,428.129,448.363,412.162,440.866,399.402z
		 M242.8,495.588c-0.253-0.007-0.518-0.015-0.771-0.015l-25.948-60.858l0.339,0.265l23.59-29.491l3.877,16.279h1.028L242.8,495.588z
		 M211.028,422.851l-29.747-69.772c3.732-2.164,7.4-4.546,10.766-7.217c2.056-1.65,4.006-3.386,5.804-5.232l49.717,36.544
		L211.028,422.851z M204.863,331.171c1.642-3.2,2.764-6.734,2.775-10.642c0-8.596,0-11.958,0-26.688v-3.114l-2.074-2.305
		c-11.048-12.308-26.007-28.642-31.192-57.666l-0.822-4.648l-4.429-1.573c-2.818-1.004-4.968-2.031-6.847-3.34
		c-2.768-1.954-5.278-4.624-8.21-10.09c-2.9-5.434-5.971-13.562-9.331-25.357c-1.472-5.146-1.997-9.155-1.997-12.13
		c0.008-3.464,0.666-5.473,1.344-6.757c1.024-1.854,2.273-2.648,3.869-3.286c1.086-0.421,2.23-0.576,2.892-0.623l11.075,2.359
		l13.052,15.485l6.991-1.627c0,0,2.332-43.698,2.332-55.851c0-12.146,23.302-18.888,71.834-18.888
		c48.546,0,71.848,6.742,71.848,18.888c0,12.153,2.331,55.851,2.331,55.851l6.988,1.627l14.22-16.863l9.327-0.996
		c0.65,0,3.072,0.28,4.71,1.37c0.93,0.599,1.686,1.292,2.375,2.554c0.677,1.284,1.339,3.293,1.35,6.749
		c0,2.982-0.53,6.992-1.997,12.146c-4.468,15.726-8.474,24.882-12.149,29.958c-1.842,2.57-3.523,4.166-5.392,5.481
		c-1.88,1.308-4.028,2.336-6.847,3.34l-4.429,1.573l-0.821,4.648c-5.185,29.023-20.145,45.357-31.192,57.666l-2.075,2.305v3.114
		c0,14.73,0,18.093,0,26.688c0.004,3.892,1.078,7.466,2.702,10.697l-51.068,37.517L204.863,331.171z M269.943,495.644
		c-0.252,0.015-0.49,0.023-0.743,0.031l-2.133-73.906h1.078l3.854-16.279l23.589,29.483l0.331-0.257L269.943,495.644z
		 M300.976,422.851l-36.536-45.676l49.667-36.497c3.394,3.464,7.298,6.578,11.542,9.374c1.642,1.066,3.402,1.946,5.115,2.919
		L300.976,422.851z"/>
</g>
</svg>