<?xml version="1.0" encoding="utf-8"?>

<!DOCTYPE svg PUBLIC "-//W3C//DTD SVG 1.1//EN" "http://www.w3.org/Graphics/SVG/1.1/DTD/svg11.dtd">
<!-- Uploaded to: SVG Repo, www.svgrepo.com, Generator: SVG Repo Mixer Tools -->
<svg height="800px" width="800px" version="1.1" id="_x32_" xmlns="http://www.w3.org/2000/svg" xmlns:xlink="http://www.w3.org/1999/xlink" 
	 viewBox="0 0 512 512"  xml:space="preserve">
<style type="text/css">
	.st0{fill:#000000;}
</style>
<g>
	<path class="st0" d="M430.903,405.469c-10.649-18.154-27.114-29.081-42.961-36.375c-15.854-7.281-31.537-11.206-40.981-14.765
		c-6.368-2.368-13.166-5.906-18.657-9.812v-25.012c-0.292-3.252-6.804-3.973-11.226-4.096c0-1.933,0-4.205,0-6.879
		c10.002-11.138,24.386-28.38,30.284-55.732c2.062-0.926,4.103-1.973,6.069-3.348c4.892-3.375,9.043-8.274,12.554-14.942
		c3.545-6.696,6.675-15.255,10.023-26.971c1.694-5.94,2.476-11.091,2.476-15.691c0.007-5.293-1.082-9.88-3.082-13.615
		c-0.183-0.34-0.422-0.592-0.619-0.918c4.334-25.93,21.195-151.69-60.06-148.568c-19.16-20.902-67.932-47.03-121.929-10.451
		C133.788,58.269,123.283,150.928,140,173.531c-1.265,1.334-2.449,2.892-3.408,4.708c-2.001,3.728-3.096,8.321-3.089,13.615
		c0,4.593,0.789,9.75,2.483,15.69c4.478,15.595,8.526,25.665,13.759,33.048c2.619,3.674,5.593,6.62,8.831,8.859
		c1.967,1.375,4.008,2.422,6.069,3.348c5.899,27.352,20.27,44.594,30.272,55.732c0,2.674,0,4.946,0,6.879
		c-4.423,0.123-10.921,0.844-11.214,4.096v24.978c-0.864,0.626-1.722,1.259-2.64,1.851c-5.137,3.368-10.989,6.218-15.894,7.94
		c-6.375,2.259-15.554,4.77-25.597,8.315c-15.071,5.341-32.354,13.037-46.193,26.849c-13.874,13.765-23.726,33.939-23.644,61.632
		c0,3.518,0.156,7.172,0.476,10.941c0.204,2.361,1.035,4.314,2.034,5.974c1.912,3.102,4.504,5.511,7.757,7.961
		c5.688,4.219,13.595,8.369,23.862,12.465c30.721,12.206,82.684,23.569,152.139,23.59c56.433-0.007,101.361-7.532,132.666-16.88
		c15.663-4.688,27.904-9.798,36.694-14.861c4.41-2.545,7.954-5.062,10.758-7.797c1.402-1.375,2.626-2.803,3.64-4.477
		c1-1.66,1.83-3.613,2.034-5.967c0.313-3.776,0.47-7.41,0.47-10.92C442.279,432.644,437.992,417.539,430.903,405.469z
		 M256.003,492.513c-6.409,0-11.594-5.184-11.594-11.594s5.184-11.594,11.594-11.594c6.41,0,11.594,5.185,11.594,11.594
		S262.413,492.513,256.003,492.513z M256.003,444.17c-6.409,0-11.594-5.192-11.594-11.594s5.184-11.594,11.594-11.594
		c6.41,0,11.594,5.192,11.594,11.594S262.413,444.17,256.003,444.17z M256.003,395.834c-6.409,0-11.594-5.192-11.594-11.594
		c0-6.402,5.184-11.594,11.594-11.594c6.41,0,11.594,5.192,11.594,11.594C267.598,390.642,262.413,395.834,256.003,395.834z
		 M301.754,302.652v2.946c0,13.33,0,16.86,0,24.256c-10.553,2.844-24.005,5.287-40.09,5.764v18.14h-11.322v-18.14
		c-16.091-0.477-29.55-2.926-40.102-5.77c0-7.39,0-10.928,0-24.25v-2.946l-1.967-2.184c-10.451-11.642-24.596-27.094-29.502-54.555
		l-0.776-4.396l-4.191-1.49c-2.667-0.953-4.702-1.926-6.478-3.158c-2.62-1.851-5.001-4.375-7.77-9.546
		c-2.742-5.15-5.654-12.833-8.832-23.991c-1.395-4.872-1.892-8.662-1.892-11.479c0.007-3.273,0.632-5.178,1.272-6.389
		c0.966-1.756,2.15-2.504,3.661-3.11c0.014-0.007,0.027-0.007,0.041-0.013c12.329,11.431,28.536,44.974,28.536,44.974l-3.484-55.739
		c0,0,76.641-17.418,128.897-66.19c17.418,17.418,27.87,87.092,27.87,87.092l3.484,24.386l16.016-35.116h0.054
		c0.612,0,2.906,0.266,4.457,1.3c0.877,0.565,1.592,1.218,2.245,2.416c0.64,1.211,1.266,3.116,1.272,6.382
		c0.007,2.824-0.497,6.614-1.885,11.492c-4.225,14.881-8.015,23.542-11.485,28.346c-1.742,2.429-3.334,3.946-5.103,5.185
		c-1.776,1.232-3.81,2.204-6.478,3.158l-4.192,1.49l-0.775,4.396c-4.906,27.461-19.065,42.914-29.516,54.555L301.754,302.652z"/>
</g>
</svg>