<?xml version="1.0" encoding="utf-8"?>

<!DOCTYPE svg PUBLIC "-//W3C//DTD SVG 1.1//EN" "http://www.w3.org/Graphics/SVG/1.1/DTD/svg11.dtd">
<!-- Uploaded to: SVG Repo, www.svgrepo.com, Generator: SVG Repo Mixer Tools -->
<svg height="800px" width="800px" version="1.1" id="_x32_" xmlns="http://www.w3.org/2000/svg" xmlns:xlink="http://www.w3.org/1999/xlink" 
	 viewBox="0 0 512 512"  xml:space="preserve">
<style type="text/css">
	.st0{fill:#000000;}
</style>
<g>
	<path class="st0" d="M426.784,407.978c-10.393-17.722-26.468-28.396-41.938-35.516c-15.478-7.113-30.797-10.947-40.011-14.421
		c-7.292-2.711-15.255-6.947-20.929-11.529c-2.841-2.273-5.088-4.624-6.444-6.674c-1.395-2.057-1.819-3.654-1.819-4.725
		c0-7.33,0-10.646,0-21.793c9.766-10.875,23.814-27.712,29.567-54.417c2.021-0.906,4.013-1.927,5.926-3.272
		c4.783-3.294,8.839-8.077,12.262-14.586c3.467-6.538,6.524-14.895,9.796-26.331c1.647-5.804,2.417-10.839,2.417-15.327
		c0-2.265-0.237-4.372-0.64-6.364c68.514-88.22-34.242-203.822-110.235-190.315c-59.531-15.306-113.228,37.212-134.37,83.344
		c-17.153,37.421-11.385,89.055,6.725,106.568c-0.453,2.101-0.705,4.359-0.698,6.775c0.007,4.481,0.77,9.523,2.424,15.32
		c4.373,15.226,8.322,25.051,13.428,32.272c2.561,3.589,5.462,6.466,8.624,8.646c1.92,1.345,3.916,2.366,5.926,3.272
		c5.761,26.698,19.793,43.535,29.56,54.41c0,11.155,0,14.471,0,21.8c0.025,0.913-0.432,2.588-1.946,4.754
		c-2.208,3.243-6.545,7.106-11.576,10.371c-5.016,3.287-10.727,6.07-15.524,7.753c-6.228,2.208-15.19,4.653-24.996,8.12
		c-14.716,5.214-31.592,12.731-45.106,26.216C83.659,405.77,74.04,425.47,74.118,452.506c0,3.438,0.154,7.006,0.468,10.688
		c0.197,2.302,1.007,4.208,1.985,5.833c1.866,3.028,4.398,5.379,7.573,7.768c5.556,4.121,13.278,8.177,23.3,12.176
		c30,11.917,80.737,23.015,148.56,23.029c55.107,0,98.973-7.35,129.547-16.478c15.298-4.581,27.238-9.573,35.825-14.514
		c4.308-2.481,7.775-4.941,10.508-7.609c1.374-1.345,2.567-2.74,3.553-4.372c0.978-1.626,1.791-3.532,1.992-5.826
		c0.302-3.69,0.453-7.236,0.453-10.666C437.889,434.518,433.703,419.766,426.784,407.978z M243.806,496.839
		c-0.234-0.007-0.479-0.014-0.712-0.014l-23.965-56.222l0.306,0.245l21.793-27.244l3.582,15.039h0.949L243.806,496.839z
		 M214.454,429.642l-27.481-64.457c3.448-2,6.836-4.2,9.946-6.668c1.9-1.524,3.701-3.128,5.362-4.834l45.93,33.761L214.454,429.642z
		 M255.996,379.662l-47.246-34.717c1.521-2.956,2.56-6.221,2.571-9.831c0-7.941,0-11.048,0-24.656v-2.877l-1.92-2.129
		c-10.202-11.371-24.023-26.46-28.812-53.273l-0.76-4.294l-4.092-1.453c-2.604-0.927-4.593-1.876-6.326-3.085
		c-2.557-1.805-4.884-4.272-7.588-9.321c-2.676-5.021-5.512-12.529-8.616-23.426c-1.363-4.754-1.845-8.458-1.845-11.206
		c0.004-3.2,0.615-5.056,1.241-6.242c0.942-1.712,2.1-2.446,3.567-3.035c1.01-0.389,2.076-0.532,2.687-0.582l3.488,0.74
		l8.843,26.741l5.1-23.814c0,0,80.618-32.315,90.824-88.444c6.804,35.717,72.462,79.935,72.462,79.935v32.322l12.654-27.424
		l0.619-0.065c0.611,0.008,2.848,0.266,4.358,1.266c0.856,0.553,1.554,1.194,2.194,2.359c0.626,1.186,1.237,3.042,1.237,6.235
		c0.015,2.755-0.482,6.459-1.834,11.22c-4.135,14.528-7.825,22.987-11.227,27.676c-1.704,2.374-3.258,3.848-4.985,5.063
		c-1.729,1.209-3.722,2.158-6.325,3.085l-4.093,1.453l-0.758,4.294c-4.784,26.813-18.603,41.902-28.809,53.273l-1.924,2.129v2.877
		c0,13.608,0,16.714,0,24.656c0.011,3.595,0.997,6.897,2.496,9.882L255.996,379.662z M268.878,496.89
		c-0.231,0.014-0.45,0.021-0.684,0.028l-1.974-68.276h0.996l3.564-15.039l21.796,27.237l0.306-0.237L268.878,496.89z
		 M297.546,429.642l-33.75-42.19l45.88-33.724c3.136,3.201,6.75,6.077,10.67,8.66c1.514,0.985,3.136,1.798,4.719,2.697
		L297.546,429.642z"/>
</g>
</svg>