<?xml version="1.0" encoding="utf-8"?>

<!DOCTYPE svg PUBLIC "-//W3C//DTD SVG 1.1//EN" "http://www.w3.org/Graphics/SVG/1.1/DTD/svg11.dtd">
<!-- Uploaded to: SVG Repo, www.svgrepo.com, Generator: SVG Repo Mixer Tools -->
<svg version="1.1" id="_x32_" xmlns="http://www.w3.org/2000/svg" xmlns:xlink="http://www.w3.org/1999/xlink" 
	 width="800px" height="800px" viewBox="0 0 512 512"  xml:space="preserve">
<style type="text/css">
<![CDATA[
	.st0{fill:#000000;}
]]>
</style>
<g>
	<path class="st0" d="M499.406,234.297c-0.719-2.094-1.938-4.469-4.031-6.688C505.078,215.719,512,200.344,512,179.047
		c0-48.984-22.984-63.281-48.672-92.625C421.813,38.953,349.594,1.234,256,1.234S90.188,38.953,48.672,86.422
		C22.984,115.766,0,130.063,0,179.047c0,23.875,8.672,40.359,20.266,52.781c-1.156,2.297-1.734,4.453-2.094,6.484
		c-0.391,2.313-0.516,4.531-0.516,6.813c0.016,6.781,1.125,14.219,2.531,22.281c1.406,8.016,3.188,16.531,4.734,24.609
		c2.531,13.172,4.875,22.766,7.781,30.484c2.188,5.766,4.766,10.609,8.328,14.641c2.641,3.031,5.828,5.453,9.078,7.109
		c4.875,2.5,9.484,3.5,13.891,4.469c2.219,0.453,4.453,0.906,6.781,1.406c7.969,39.75,26.578,78.422,56.328,108.109
		c15.875,15.813,34.938,29,57.078,38.188c22.109,9.188,47.25,14.344,75.109,14.344c28.656,0,53.969-5.25,75.906-14.594
		c32.969-14.016,58.141-37.156,76.547-64.266c16.953-24.938,28.313-53.234,35.531-81.641c3.391-0.75,6.578-1.359,9.797-2.094
		c3.953-0.906,8.172-2.078,12.5-4.516c3.234-1.797,6.328-4.391,8.859-7.531c3.828-4.734,6.469-10.375,8.781-17.375
		c2.328-7.063,4.344-15.625,6.469-26.734c1.547-8.078,3.313-16.609,4.719-24.609c1.406-8.063,2.516-15.5,2.547-22.281
		c0-2.016-0.109-4-0.391-6.047C500.328,237.547,499.984,235.969,499.406,234.297z M474.094,263.125
		c-1.328,7.484-3.063,15.922-4.672,24.25c-2.375,12.5-4.563,21.047-6.609,26.375c-1.516,4.016-2.859,6.078-3.75,7.063
		c-0.688,0.766-1.109,1.078-1.938,1.516c-1.172,0.641-3.625,1.406-7.625,2.234c-3.969,0.828-9.313,1.828-15.75,3.625l-7.047,2
		l-1.641,7.125c-8.656,38.047-25.281,75.578-51.797,103.047c-13.266,13.781-28.984,25.109-47.719,33.094
		c-18.75,7.969-40.578,12.609-66.25,12.609c-24.813,0-46.609-4.547-65.641-12.453c-28.531-11.859-51.047-31.328-67.797-55.109
		c-16.719-23.781-27.531-51.891-32.172-80.422l-1.281-7.75l-7.547-2.141c-7.609-2.141-13.719-3.141-17.813-4.094
		c-3.094-0.703-4.875-1.344-5.828-1.891c-0.734-0.438-1.172-0.781-1.906-1.672c-1.063-1.266-2.719-4.109-4.484-9.516
		c-1.766-5.359-3.641-13.094-5.656-23.641c-1.594-8.328-3.344-16.766-4.672-24.266c-0.859-4.844-1.5-9.25-1.844-12.891
		c8.047,5.375,15.953,9.953,22.359,14.438c12.781,3.688,18.953-23.469,18.953-54.344c0-40.047-1.906-69.516,20.563-110.297
		C157.219,4.531,256,17.703,256,17.703s98.781-13.172,151.469,82.313c22.469,40.781,20.563,70.25,20.563,110.297
		c0,30.875,6.172,58.031,18.953,54.344c8.234-5.766,18.938-11.672,29.266-19.25C476.219,249.328,475.391,255.828,474.094,263.125z
		 M483.609,240.875L483.609,240.875l1.172,6.25L483.609,240.875z"/>
</g>
</svg>