<?xml version="1.0" encoding="utf-8"?>

<!DOCTYPE svg PUBLIC "-//W3C//DTD SVG 1.1//EN" "http://www.w3.org/Graphics/SVG/1.1/DTD/svg11.dtd">
<!-- Uploaded to: SVG Repo, www.svgrepo.com, Generator: SVG Repo Mixer Tools -->
<svg version="1.1" id="_x32_" xmlns="http://www.w3.org/2000/svg" xmlns:xlink="http://www.w3.org/1999/xlink" 
	 width="800px" height="800px" viewBox="0 0 512 512"  xml:space="preserve">
<style type="text/css">
<![CDATA[
	.st0{fill:#000000;}
]]>
</style>
<g>
	<path class="st0" d="M298.719,267.37c0-4.328-3.5-7.828-7.828-7.828h-69.797c-4.328,0-7.828,3.5-7.828,7.828s3.5,7.828,7.828,7.828
		h69.797C295.219,275.198,298.719,271.698,298.719,267.37z"/>
	<path class="st0" d="M151.547,262.385l-18.422,30.25c26.172,33.406,65.688,55.875,110.531,59.391v-51.188h-33.063
		c-17.406,0-31.516-14.109-31.516-31.516s14.109-31.531,31.516-31.531h90.797c17.406,0,31.516,14.125,31.516,31.531
		s-14.109,31.516-31.516,31.516h-33.047v51.188c44.828-3.516,84.344-25.984,110.516-59.391l-18.406-30.25
		c0,0,18.031,4.156,32.797,8.297c11.938-22.063,18.719-47.313,18.719-74.141V155.26c0-28.984-7.906-56.094-21.672-79.344
		c-14.109,3.844-29.844,7.469-29.844,7.469l16.328-26.813C351.125,25.213,313.5,4.026,270.875-0.005c0,13.313,0,42.047,0,48.016
		c0,7.844,24.219,8.547,24.219-4.266c7.828,0,6.406,28.484-13.531,30.625c-14.844,1.578-22.578-7.453-25.563-12.203
		c-3,4.75-10.734,13.781-25.563,12.203c-19.938-2.141-21.375-30.625-13.531-30.625c0,12.813,24.203,12.109,24.203,4.266
		c0-5.969,0-34.703,0-48.016C198.5,4.026,160.875,25.213,135.219,56.573l16.328,26.813c0,0-15.734-3.625-29.844-7.469
		c-13.766,23.25-21.672,50.359-21.672,79.344v41.281c0,26.828,6.766,52.078,18.703,74.141
		C133.516,266.542,151.547,262.385,151.547,262.385z M202.578,108.557c24.484,0,35.609,0,53.422,0c17.797,0,28.922,0,53.406,0
		c31.469,0,56.984,25.5,56.984,56.969s-25.516,56.969-56.984,56.969c-24.484,0-37.031-28.563-53.406-28.563
		c-16.391,0-28.938,28.563-53.422,28.563c-31.469,0-56.969-25.5-56.969-56.969S171.109,108.557,202.578,108.557z"/>
	<path class="st0" d="M463.266,421.932c-0.906-10.453-2.906-20.843-6.188-30.828c-10.172-30.953-32.984-55.641-62.141-69.828
		l-9.406,19.344c18.484,8.984,34.359,23.109,44.234,41.25c4.25,7.828,7.359,16.25,9.391,24.922
		c1.109,4.734,1.906,9.531,2.422,14.375c0.594,5.516,1.422,11.688,0.594,17.188c-1.438,9.625-10.438,16.906-18.016,21.984
		c-8.578,5.75-18.094,10.094-27.766,13.672c-21.391,7.953-44.078,12.453-66.734,14.75c-20.844,2.094-41.984,2.266-62.813-0.172
		c0-17.125,0-34.25,0-51.375c0-7.891-8.469-13.344-15.609-9.719c-4.75,2.406-5.906,7.016-5.906,11.844c0,10.672,0,21.328,0,31.984
		c0,5.75,0,11.516,0,17.266c-23.75,2.766-47.906,2.219-71.609-0.844c-22.438-2.891-44.969-7.953-65.828-16.875
		c-9.859-4.203-19.703-9.344-27.703-16.563c-3.422-3.078-6.594-6.625-8.578-10.828c-2.531-5.359-1.844-11.469-1.453-17.219
		c1.391-20.406,7.703-40.468,20.328-56.781c9.547-12.328,22.172-22.063,36.156-28.859l-9.406-19.344
		c-37.563,18.281-62.344,53.203-67.656,94.562c-1.375,10.688-2.688,22.547,0.969,32.906c3.594,10.156,11.047,18.453,19.391,25.031
		c16.953,13.375,38.094,21.266,58.703,26.922c23.016,6.297,46.828,9.766,70.656,10.828c12.219,0.547,24.484,0.438,36.688-0.453
		c5.781-0.438,11.531-1.031,17.266-1.828c6-0.828,12.531,0.938,18.578,1.469c46.328,4.125,96.234-1.438,139.375-19.422
		c18.297-7.625,38.406-18.703,47.969-36.938C464.531,444.15,464.234,433.135,463.266,421.932z"/>
</g>
</svg>