<?xml version="1.0" encoding="utf-8"?>

<!DOCTYPE svg PUBLIC "-//W3C//DTD SVG 1.1//EN" "http://www.w3.org/Graphics/SVG/1.1/DTD/svg11.dtd">
<!-- Uploaded to: SVG Repo, www.svgrepo.com, Generator: SVG Repo Mixer Tools -->
<svg height="800px" width="800px" version="1.1" id="_x32_" xmlns="http://www.w3.org/2000/svg" xmlns:xlink="http://www.w3.org/1999/xlink" 
	 viewBox="0 0 512 512"  xml:space="preserve">
<style type="text/css">
	.st0{fill:#000000;}
</style>
<g>
	<path class="st0" d="M427.993,410.48c-11.616-17.402-29.26-27.022-45.836-33.266c-8.316-3.135-16.448-5.436-23.608-7.395
		c-7.146-1.945-13.365-3.585-17.542-5.156c-7.299-2.722-15.024-6.232-20.41-10.021c-2.696-1.869-4.769-3.802-5.964-5.455
		c-1.221-1.679-1.552-2.848-1.552-3.86c0-7.026,0-15.819,0-27.378c9.347-10.395,22.775-26.519,28.287-52.066
		c1.926-0.871,3.834-1.85,5.672-3.128c4.572-3.154,8.45-7.738,11.737-13.969c3.313-6.256,6.238-14.255,9.366-25.197
		c1.583-5.544,2.314-10.364,2.32-14.662c0.006-4.946-1.018-9.238-2.887-12.723c-2.804-5.283-7.35-8.221-11.031-9.556
		c-0.407-0.153-0.763-0.229-1.151-0.356c0-0.623,0-1.285,0-1.978c15.546-8.164,28.758-19.507,37.716-35.18
		c9.2-16.098-4.221-28.916-19.932-29.101c-15.667-0.184-33.622,12.246-33.622,12.246l6.193-103.173
		c0.476-8.069-5.258-15.177-13.257-16.398c0,0-15.386-12.71-76.495-12.71c-61.108,0-76.494,12.71-76.494,12.71
		c-7.998,1.221-13.734,8.329-13.256,16.398l6.193,103.173c0,0-17.956-12.43-33.622-12.246
		c-15.711,0.184-29.133,13.002-19.932,29.101c8.437,14.757,21.827,25.649,37.71,33.698c0,1.252,0,2.429,0,3.484
		c-1.577,0.496-3.243,1.145-5.023,2.225c-2.632,1.628-5.303,4.171-7.154,7.661c-1.869,3.485-2.893,7.776-2.88,12.723
		c0,4.298,0.731,9.118,2.314,14.662c4.184,14.573,7.96,23.983,12.856,30.888c2.442,3.427,5.22,6.18,8.246,8.278
		c1.838,1.278,3.745,2.257,5.666,3.128c5.518,25.547,18.947,41.671,28.294,52.066c0,11.566,0,20.352,0,27.378
		c0.006,0.859-0.344,2.111-1.678,3.891c-1.965,2.645-6.041,5.843-10.873,8.564c-4.832,2.747-10.383,5.124-15.247,6.828
		c-5.697,2.022-14.884,4.133-25.178,7.083c-15.469,4.47-33.748,10.91-48.633,23.672c-7.42,6.377-13.943,14.388-18.534,24.345
		c-4.59,9.957-7.222,21.777-7.21,35.618c0,3.205,0.14,6.524,0.42,9.957c0.216,2.416,1.132,4.368,2.2,5.977
		c2.06,3.014,4.768,5.246,8.176,7.541c5.951,3.942,14.204,7.795,24.771,11.578C138.756,501.662,191.122,511.981,256,512
		c52.715-0.006,97.21-6.847,128.968-15.438c15.89-4.304,28.574-9.022,37.742-13.733c4.591-2.372,8.304-4.718,11.248-7.286
		c1.475-1.297,2.766-2.658,3.852-4.279c1.075-1.609,1.99-3.56,2.2-5.977c0.286-3.433,0.426-6.739,0.426-9.937
		C440.462,436.905,435.725,422.04,427.993,410.48z M187.79,194.469c24.224,6.448,50.458,8.673,73.188,8.673
		c20.95,0,43.133-1.901,63.696-7.236c0.712,2.353,1.456,5.042,2.142,7.973c-7.502,0.413-16.626,0.763-26.895,0.763
		c-32.159,0-34.238,11.4-43.928,11.4c-11.064,0-10.37-11.4-43.922-11.4c-10.249,0-19.367-0.35-26.87-0.763
		C186.035,200.325,186.951,197.127,187.79,194.469z M317.928,221.351c-0.318,18.038-26.762,30.481-42.949,12.443
		C273.803,232.478,288.045,216.684,317.928,221.351z M237.021,233.794c-16.188,18.038-42.65,5.595-42.956-12.443
		C223.942,216.684,238.191,232.478,237.021,233.794z M257.424,497.656c-0.483,0.006-0.941,0.019-1.424,0.019
		c-0.483,0-0.941-0.026-1.424-0.026l-64.414-125.706c3.071-1.583,6.104-3.293,8.921-5.245c3.617-2.531,6.93-5.367,9.562-8.819
		c2.6-3.415,4.597-7.675,4.603-12.551c0-7.598,0-17.097,0-30.112v-2.753l-1.844-2.041c-9.766-10.879-22.99-25.312-27.575-50.98
		l-0.719-4.094l-3.922-1.405c-2.492-0.89-4.394-1.8-6.047-2.95c-2.454-1.73-4.68-4.089-7.267-8.921
		c-2.562-4.813-5.278-11.991-8.246-22.412c-1.298-4.553-1.768-8.1-1.768-10.733c0.012-3.052,0.591-4.832,1.195-5.964
		c0.902-1.64,2.003-2.34,3.408-2.899c1.195-0.458,2.435-0.566,2.861-0.579l6.981,0.878c0.14,0.731,0.312,1.584,0.522,2.543
		c-1.844-0.146-3.408-0.267-4.394-0.336c-3.72-0.255,1.38,36.642,16.601,50.483c11.521,10.465,39.42,19.379,61.197,4.838
		c8.317-6.568,11.763-6.568,11.763-6.568s3.465,0,11.769,6.568c21.776,14.541,49.695,5.627,61.203-4.838
		c15.208-13.842,20.34-50.738,16.595-50.483c-0.979,0.063-2.543,0.19-4.368,0.336c0.248-1.138,0.445-2.136,0.591-2.944l6.759-0.483
		c0.356-0.026,2.753,0.19,4.304,1.226c0.82,0.522,1.488,1.132,2.105,2.257c0.598,1.132,1.182,2.912,1.189,5.964
		c0,2.632-0.464,6.174-1.768,10.733c-3.948,13.912-7.49,21.999-10.739,26.488c-1.628,2.264-3.115,3.688-4.768,4.845
		c-1.66,1.15-3.56,2.06-6.053,2.95l-3.923,1.398l-0.725,4.101c-4.578,25.668-17.802,40.101-27.568,50.98l-1.844,2.041v2.753
		c0,13.021,0,22.514,0,30.112c0,4.724,1.831,8.965,4.349,12.354c3.802,5.112,9.098,8.895,14.859,12.194
		c1.266,0.719,2.62,1.31,3.923,1.972L257.424,497.656z"/>
	<polygon class="st0" points="215.035,365.884 215.035,407.663 256,392.468 296.965,407.663 296.965,365.884 256,379.446 	"/>
</g>
</svg>