<?xml version="1.0" encoding="utf-8"?>

<!DOCTYPE svg PUBLIC "-//W3C//DTD SVG 1.1//EN" "http://www.w3.org/Graphics/SVG/1.1/DTD/svg11.dtd">
<!-- Uploaded to: SVG Repo, www.svgrepo.com, Generator: SVG Repo Mixer Tools -->
<svg height="800px" width="800px" version="1.1" id="_x32_" xmlns="http://www.w3.org/2000/svg" xmlns:xlink="http://www.w3.org/1999/xlink" 
	 viewBox="0 0 512 512"  xml:space="preserve">
<style type="text/css">
	.st0{fill:#000000;}
</style>
<g>
	<path class="st0" d="M0,250.822c0,69.352,56.216,125.582,125.568,125.582h260.834C455.77,376.404,512,320.174,512,250.822H0z
		 M59.193,311.637L40.207,278.76h37.956L59.193,311.637z M89.403,311.637l18.986-32.877l18.971,32.877H89.403z M157.585,311.637
		l-18.97-32.877h37.956L157.585,311.637z M187.811,311.637l18.986-32.877l18.985,32.877H187.811z M255.993,311.637l-18.971-32.877
		h37.956L255.993,311.637z M286.218,311.637l18.985-32.877l18.971,32.877H286.218z M354.4,311.637l-18.985-32.877h37.956
		L354.4,311.637z M384.611,311.637l18.985-32.877l18.986,32.877H384.611z M452.808,311.637l-18.985-32.877h37.956L452.808,311.637z"
		/>
	<path class="st0" d="M256.008,46.24c-76.208,0-95.268,100.029-109.559,185.767h219.11C351.275,146.269,332.216,46.24,256.008,46.24
		z"/>
	<path class="st0" d="M330.735,431.044c-17.372-18.482-36.675-28.434-73.343-18.482c-36.668-9.952-55.972,0-73.343,18.482
		c-17.364,18.482-38.593,11.373-38.593,11.373c9.655,12.795,65.62,46.916,111.936-2.843c46.316,49.759,102.28,15.638,111.936,2.843
		C369.328,442.417,348.099,449.525,330.735,431.044z"/>
</g>
</svg>