<?xml version="1.0" encoding="utf-8"?>

<!DOCTYPE svg PUBLIC "-//W3C//DTD SVG 1.1//EN" "http://www.w3.org/Graphics/SVG/1.1/DTD/svg11.dtd">
<!-- Uploaded to: SVG Repo, www.svgrepo.com, Generator: SVG Repo Mixer Tools -->
<svg height="800px" width="800px" version="1.1" id="_x32_" xmlns="http://www.w3.org/2000/svg" xmlns:xlink="http://www.w3.org/1999/xlink" 
	 viewBox="0 0 512 512"  xml:space="preserve">
<style type="text/css">
	.st0{fill:#000000;}
</style>
<g>
	<path class="st0" d="M179.745,182.268h144c38.295,0,69.34-31.032,69.34-69.328H110.422
		C110.422,151.236,141.458,182.268,179.745,182.268z"/>
	<path class="st0" d="M251.758,0c-42.074,0-52.6,55.227-60.484,102.561h120.963C304.352,55.227,293.826,0,251.758,0z"/>
	<path class="st0" d="M252.522,217.154c25.567,27.472,56.466,8.622,61.797,1.572c0,0-11.724,3.916-21.309-6.286
		c-9.589-10.202-20.249-15.698-40.488-10.202c-20.244-5.496-30.9,0-40.489,10.202c-9.589,10.202-21.309,6.286-21.309,6.286
		C196.055,225.776,226.955,244.625,252.522,217.154z"/>
	<path class="st0" d="M143.474,289.234c4.577,2.61,9.603,5.336,15.067,8.071c26.021,13.034,61.244,25.882,97.461,25.838
		c35.649,0.044,70.33-12.404,96.231-25.234c5.926-2.921,11.373-5.869,16.293-8.675l-32.991-36.768c0,0-37.678,29.301-79.533,29.301
		c-41.865,0-79.534-29.301-79.534-29.301L143.474,289.234z"/>
	<path class="st0" d="M379.958,301.966c-5.607,3.294-11.982,6.801-19.019,10.309c-27.446,13.7-64.782,27.586-104.937,27.622
		c-40.16-0.036-77.501-13.922-104.946-27.622c-7.032-3.508-13.403-7.014-19.014-10.309L29.956,415.724
		C67.633,457.589,142.976,512,256.002,512c113.02,0,188.368-54.411,226.042-96.276L379.958,301.966z M80.908,433.358
		c7.654-4.368,15.094-8.985,22.299-13.824c-0.036,8.693,0.248,17.412,0.844,26.229C96.175,441.935,88.455,437.797,80.908,433.358z
		 M120.623,428.172c7.41,3.383,14.953,6.456,22.602,9.235c-6.434,5.797-13.133,11.436-20.084,16.87
		C121.991,445.531,121.156,436.821,120.623,428.172z M142.728,461.567c6.592-5.869,12.928-11.924,18.983-18.096
		c1.762,8.488,3.827,16.995,6.197,25.474C159.425,466.832,151.025,464.346,142.728,461.567z M188.291,473.42
		c-2.882-8.319-5.452-16.71-7.734-25.057c7.951,1.803,15.978,3.294,24.049,4.502C199.438,459.862,193.999,466.698,188.291,473.42z
		 M208.889,476.644c5.297-7.015,10.327-14.216,15.086-21.443c3.378,7.956,7.032,15.964,10.961,23.804
		C226.239,478.544,217.543,477.771,208.889,476.644z M255.727,479.6c-4.341-7.708-8.439-15.37-12.266-23.202
		c8.178,0.302,16.381,0.293,24.56,0.009C264.184,464.239,260.087,471.902,255.727,479.6z M276.517,479.041
		c3.938-7.849,7.605-15.84,11.002-23.788c4.75,7.219,9.771,14.438,15.054,21.452C293.911,477.824,285.219,478.596,276.517,479.041z
		 M323.177,473.51c-5.701-6.74-11.122-13.55-16.285-20.573c8.076-1.199,16.102-2.673,24.062-4.449
		C328.655,456.807,326.071,465.198,323.177,473.51z M344.087,468.945c2.375-8.479,4.439-16.986,6.197-25.474
		c6.056,6.172,12.386,12.227,18.974,18.096C360.961,464.346,352.571,466.832,344.087,468.945z M388.85,454.295
		c-6.948-5.452-13.647-11.091-20.08-16.888c7.654-2.779,15.197-5.852,22.601-9.235C390.839,436.83,390.005,445.531,388.85,454.295z
		 M407.94,445.762c0.594-8.816,0.884-17.536,0.848-26.229c7.205,4.84,14.65,9.457,22.304,13.824
		C423.54,437.797,415.82,441.953,407.94,445.762z"/>
</g>
</svg>