<?xml version="1.0" encoding="utf-8"?>

<!DOCTYPE svg PUBLIC "-//W3C//DTD SVG 1.1//EN" "http://www.w3.org/Graphics/SVG/1.1/DTD/svg11.dtd">
<!-- Uploaded to: SVG Repo, www.svgrepo.com, Generator: SVG Repo Mixer Tools -->
<svg height="800px" width="800px" version="1.1" id="_x32_" xmlns="http://www.w3.org/2000/svg" xmlns:xlink="http://www.w3.org/1999/xlink" 
	 viewBox="0 0 512 512"  xml:space="preserve">
<style type="text/css">
	.st0{fill:#000000;}
</style>
<g>
	<path class="st0" d="M512,215.302H0c0,67.928,53.978,123.128,121.351,125.37c-1.37,7.713-2.258,15.59-2.258,23.694
		c0.008,75.625,61.299,136.908,136.916,136.916c75.633-0.008,136.908-61.291,136.908-136.916c0-8.104-0.888-15.981-2.258-23.694
		C458.031,338.405,512,283.213,512,215.302z M373.372,243.236l-18.974,32.875l-18.981-32.875H373.372z M305.199,243.236
		l18.974,32.875h-37.955L305.199,243.236z M274.982,243.236l-18.99,32.875l-18.974-32.875H274.982z M206.801,243.236l18.981,32.875
		h-37.971L206.801,243.236z M176.568,243.236l-18.99,32.875l-18.965-32.875H176.568z M59.188,276.111l-18.981-32.875h37.955
		L59.188,276.111z M108.387,243.236l18.973,32.875H89.405L108.387,243.236z M331.316,439.665
		c-19.324,19.292-45.856,31.188-75.308,31.196c-29.45-0.008-55.982-11.905-75.298-31.196c-19.292-19.324-31.18-45.848-31.188-75.299
		c0-8.089,0.97-15.924,2.699-23.482h207.584c1.72,7.559,2.69,15.394,2.69,23.482C362.487,393.825,350.607,420.357,331.316,439.665z
		 M384.616,276.111l18.973-32.875l18.99,32.875H384.616z M452.813,276.111l-18.99-32.875h37.955L452.813,276.111z"/>
	<path class="st0" d="M256.008,10.718c-76.212,0-95.267,100.029-109.56,185.765H365.56
		C351.276,110.747,332.221,10.718,256.008,10.718z"/>
	<path class="st0" d="M256.008,393.426c-15.516,0-43.116-14.147-60.345,3.09c-17.245,17.253-8.618,36.226,3.441,48.294
		c3.458-3.448-6.89-29.32,15.533-32.77c16.16-2.486,31.024,5.529,41.371,5.529c10.356,0,25.228-8.015,41.388-5.529
		c22.414,3.449,12.059,29.321,15.508,32.77c12.076-12.068,20.694-31.04,3.465-48.294
		C299.125,379.279,271.533,393.426,256.008,393.426z"/>
	<path class="st0" d="M210.846,348.564c-10.494,0-19.015,8.512-19.015,19.014h38.029
		C229.86,357.076,221.348,348.564,210.846,348.564z"/>
	<path class="st0" d="M303.34,348.564c-10.51,0-19.015,8.512-19.015,19.014h38.029C322.354,357.076,313.826,348.564,303.34,348.564z
		"/>
</g>
</svg>