<?xml version="1.0" encoding="utf-8"?>

<!DOCTYPE svg PUBLIC "-//W3C//DTD SVG 1.1//EN" "http://www.w3.org/Graphics/SVG/1.1/DTD/svg11.dtd">
<!-- Uploaded to: SVG Repo, www.svgrepo.com, Generator: SVG Repo Mixer Tools -->
<svg version="1.1" id="_x32_" xmlns="http://www.w3.org/2000/svg" xmlns:xlink="http://www.w3.org/1999/xlink" 
	 width="800px" height="800px" viewBox="0 0 512 512"  xml:space="preserve">
<style type="text/css">
<![CDATA[
	.st0{fill:#000000;}
]]>
</style>
<g>
	<path class="st0" d="M262.969,257.5c-8.078-4.078-7.719-6.469-9.125-6.469c-1.391,0-1.031,2.391-9.125,6.469
		c-5.438,2.891-10.156,8.266-10.156,14.563c0,4.563,2.172,8.703,5.656,11.688c3.266,2.797,15.406,5.438,14.313-6.344
		c-0.266-2.75,3.406-2.953,1.594,4.625c-0.797,3.344-2.375,4.078-2.797,4.281c-0.406,0.219-0.406,0.531,0.516,0.625
		c5.734,0.625,10.438-0.438,13.641-3.188c3.484-2.984,5.641-7.125,5.641-11.688C273.125,265.766,268.406,260.391,262.969,257.5z"/>
	<path class="st0" d="M382.875,192.922c-19.906-13.391-41.547-18.703-61.609-17.109c-7.984-3.219-16.266-5.875-24.781-7.906
		c28.703-14.719,48.359-44.594,48.359-79.063c0-20.359-6.844-39.094-18.359-54.063l-30.828,15.406l12.469-33.281
		C293.5,6.281,275.469,0,256,0c-49.063,0-88.844,39.781-88.844,88.844c0,11.969,2.391,23.422,6.688,33.844l25.438-13.281
		l-17.344,28.469c8.406,12.688,20,23.063,33.594,30.031c-8.516,2.031-16.781,4.688-24.781,7.906
		c-20.063-1.594-41.719,3.719-61.641,17.109C57.313,241.25,43.5,344.813,43.5,344.813l39.203,12.469
		c1.891,16.922,6.203,33.109,12.609,48.203c6.375,15.078,14.781,29.047,24.922,41.594c4.703,5.859,9.813,11.391,15.234,16.578
		c7.125,6.813,14.813,13.031,23,18.563c14.031,9.469,29.547,16.969,46.094,22.063c7.406,2.313,15.031,4.094,22.813,5.375
		C236.688,511.188,246.25,512,256,512s19.313-0.781,28.625-2.328c7.781-1.297,15.406-3.078,22.813-5.375
		c5.625-1.734,11.094-3.734,16.469-5.984c19.656-8.313,37.453-20.141,52.625-34.656c5.438-5.188,10.531-10.719,15.25-16.563
		c3.094-3.875,6.063-7.844,8.844-11.969c15.328-22.688,25.469-49.25,28.688-77.844l39.188-12.469
		C468.5,344.813,454.688,241.25,382.875,192.922z M232.625,115.141c0-12.906,10.453-23.375,23.375-23.375
		c6.453,0,12.313,2.609,16.531,6.859c4.234,4.219,6.844,10.063,6.844,16.516v20.172h-46.75V115.141z M232.625,144.531h46.75v20.203
		c-7.656-1.016-15.438-1.547-23.375-1.547c-7.906,0-15.719,0.531-23.375,1.563V144.531z M256,186.188
		c9.234,0,18.25,0.844,27.031,2.406c-11.188,7.25-20.563,17.359-27.031,29.938c-6.469-12.578-15.844-22.688-27-29.938
		C237.75,187.031,246.781,186.188,256,186.188z M206.188,234.344h99.625c17.094,6.844,38.25,24.781,57.313,68.125h-214.25
		C167.938,259.125,189.094,241.188,206.188,234.344z M395.5,396.516c-5.938,14.047-13.938,27-23.625,38.516
		c-4.906,5.844-10.25,11.297-15.969,16.344c-4.828,4.219-9.922,8.156-15.266,11.766c-10.266,6.922-21.391,12.641-33.203,16.891
		c-7.359,2.656-14.984,4.75-22.813,6.25C275.375,488.063,265.813,489,256,489c-9.781,0-19.344-0.938-28.625-2.719
		c-7.844-1.5-15.453-3.594-22.813-6.25c-2.531-0.906-5.031-1.906-7.5-2.938c-27.156-11.469-50.281-30.688-66.625-54.844
		c-11.438-16.969-19.531-36.313-23.344-57.188l19.406,6.188c5.156-21.344,10.797-39.531,16.719-54.984h225.578
		c5.906,15.453,11.547,33.641,16.703,54.984l19.406-6.188C402.906,376,399.734,386.531,395.5,396.516z"/>
</g>
</svg>