<?xml version="1.0" encoding="utf-8"?>

<!DOCTYPE svg PUBLIC "-//W3C//DTD SVG 1.1//EN" "http://www.w3.org/Graphics/SVG/1.1/DTD/svg11.dtd">
<!-- Uploaded to: SVG Repo, www.svgrepo.com, Generator: SVG Repo Mixer Tools -->
<svg height="800px" width="800px" version="1.1" id="_x32_" xmlns="http://www.w3.org/2000/svg" xmlns:xlink="http://www.w3.org/1999/xlink" 
	 viewBox="0 0 512 512"  xml:space="preserve">
<style type="text/css">
	.st0{fill:#000000;}
</style>
<g>
	<path class="st0" d="M451.032,396.812c-13.133-19.779-33.114-30.772-51.914-37.879c-9.443-3.554-18.669-6.156-26.814-8.34
		c-8.145-2.177-15.238-3.972-20.082-5.68c-7.338-2.573-16.074-6.538-22.403-10.964c-3.172-2.198-5.709-4.512-7.194-6.494
		c-1.529-2.019-1.918-3.432-1.918-4.412c0-7.72,0-17.335,0-29.835c8.909-6.292,21.192-16.874,32.192-30.721
		c12.528-15.865,23.485-36.156,23.542-59.136c0-19.289,0-21.221,0-53.766c0,0,0-18.453,0-34.441c0-7.742-1.399-18.403-4.945-30.448
		c-5.334-18.006-15.614-39.069-34.08-55.864C318.993,12.016,292.25-0.065,256.008,0c-24.162-0.015-44.115,5.283-60.175,13.868
		C171.685,26.75,156.577,46.76,147.61,65.948c-8.967,19.268-12.009,37.635-12.052,49.197c0,15.988,0,34.441,0,34.441
		c0,32.545,0,34.477,0,53.766c0.058,22.98,11.014,43.271,23.556,59.136c11,13.854,23.283,24.436,32.178,30.729
		c0,12.498,0,22.107,0,29.827c0,0.98-0.389,2.393-1.903,4.412c-2.235,2.998-6.848,6.631-12.34,9.709
		c-5.464,3.114-11.764,5.81-17.271,7.749c-6.458,2.292-16.882,4.678-28.544,8.023c-17.545,5.074-38.261,12.377-55.143,26.843
		c-8.42,7.23-15.801,16.312-21.005,27.6c-5.205,11.281-8.189,24.688-8.189,40.373c0,3.64,0.159,7.402,0.49,11.296
		c0.245,2.732,1.283,4.944,2.494,6.768c2.321,3.417,5.406,5.946,9.256,8.549c6.761,4.469,16.118,8.837,28.097,13.126
		c35.854,12.787,95.221,24.494,168.774,24.508c59.756,0,110.199-7.756,146.212-17.502c18.006-4.88,32.393-10.228,42.787-15.57
		c5.204-2.688,9.414-5.348,12.744-8.26c1.673-1.47,3.143-3.013,4.368-4.851c1.225-1.824,2.263-4.037,2.494-6.768
		c0.332-3.893,0.49-7.655,0.49-11.296C465.132,426.842,459.769,409.968,451.032,396.812z M326.936,351.286
		c6.589,3.741,13.624,6.725,19.896,8.938c8.015,2.804,18.266,5.09,29.452,8.319c16.766,4.793,35.262,11.641,49.044,23.549
		c5.738,4.952,10.654,10.798,14.546,17.776L84.927,393.734c7.842-7.2,17.228-12.686,27.132-16.96l204.771-32.329
		C319.958,346.982,323.375,349.238,326.936,351.286z M151.79,132.941c0-5.557,0-11.843,0-17.797c0-3.128,0.375-7.396,1.182-12.268
		l207.237,13.508c0,5.579,0,11.381,0,16.557H151.79z M230.346,164.6c0,13.248-10.74,23.989-23.989,23.989
		c-13.248,0-23.989-10.74-23.989-23.989s10.74-23.989,23.989-23.989C219.606,140.611,230.346,151.352,230.346,164.6z
		 M185.511,40.856c15.67-14.15,37.756-24.558,70.497-24.623c21.811,0.014,38.91,4.707,52.519,11.966
		c6.141,3.28,11.533,7.15,16.377,11.353L169.696,59.619C174.006,52.973,179.211,46.566,185.511,40.856z M162.546,72.442
		l172.738-22.331c5.997,7.194,10.754,14.944,14.402,22.714c5.362,11.411,8.275,22.778,9.615,31.673L155.582,91.22
		c0.187-0.649,0.302-1.254,0.505-1.91C157.688,83.889,159.836,78.173,162.546,72.442z M151.79,200.756l208.419-22.324
		c0,8.57,0,13.941,0,24.919c0.014,4.058-0.491,8.102-1.341,12.096l-199.466,17.494c-4.657-9.429-7.641-19.463-7.612-29.59
		C151.79,202.436,151.79,201.6,151.79,200.756z M171.844,252.411c-2.09-2.617-4.037-5.378-5.911-8.189l189.086-16.579
		c-3.647,8.838-8.88,17.249-14.849,24.768c-11.187,14.156-24.709,25.063-31.947,29.647l-0.778,0.497l-115.447-9.399
		C185.612,267.721,178.346,260.642,171.844,252.411z M191.479,347.27c4.094-2.868,7.857-6.084,10.841-9.998
		c2.942-3.863,5.205-8.7,5.205-14.229c0-8.614,0-19.376,0-34.138v-2.638l96.951,7.9c0,12.023,0,21.358,0,28.876
		c0,4.051,1.239,7.72,3.042,10.921l-127.975,20.204C183.651,352.144,187.731,349.873,191.479,347.27z M64.961,458.465
		c-0.779-0.67-1.211-1.182-1.428-1.478c-0.245-3.193-0.389-6.293-0.389-9.234c0.029-18.222,4.483-31.529,11.36-41.973
		c0.591-0.887,1.269-1.68,1.889-2.53l-0.086,1.91l368.83,16.759c1.543,4.873,2.682,10.222,3.273,16.19l-365.99,30.094
		c-2.955-1.262-5.637-2.508-7.972-3.712C70.021,462.22,66.762,460.058,64.961,458.465z M440.754,462.761
		c-11.966,6.912-35.594,15.396-67.311,21.855c-31.774,6.495-71.808,11.152-117.436,11.152c-58.344,0-107.547-7.619-141.974-16.939
		c-1.298-0.354-2.538-0.714-3.806-1.067l338.541-27.838c-0.044,2.284-0.115,4.606-0.303,7.042l-0.706,0.829
		C446.564,459.005,444.156,460.829,440.754,462.761z"/>
	<path class="st0" d="M194.362,164.6c0,6.624,5.363,11.994,11.994,11.994c6.617,0,11.995-5.37,11.995-11.994
		c0-6.625-5.378-11.994-11.995-11.994C199.726,152.606,194.362,157.975,194.362,164.6z"/>
</g>
</svg>