<?xml version="1.0" encoding="utf-8"?>

<!DOCTYPE svg PUBLIC "-//W3C//DTD SVG 1.1//EN" "http://www.w3.org/Graphics/SVG/1.1/DTD/svg11.dtd">
<!-- Uploaded to: SVG Repo, www.svgrepo.com, Generator: SVG Repo Mixer Tools -->
<svg height="800px" width="800px" version="1.1" id="_x32_" xmlns="http://www.w3.org/2000/svg" xmlns:xlink="http://www.w3.org/1999/xlink" 
	 viewBox="0 0 512 512"  xml:space="preserve">
<style type="text/css">
	.st0{fill:#000000;}
</style>
<g>
	<path class="st0" d="M255.991,0.005C114.606,0.014,0.018,114.611,0,256.005c0.018,141.384,114.606,255.982,255.991,255.991
		C397.394,511.986,511.982,397.389,512,256.005C511.982,114.611,397.394,0.014,255.991,0.005z M42.014,214.307
		c5.844-30.189,17.894-58.108,34.812-82.462L456,169.181c6.224,14.313,10.946,29.411,13.986,45.126H42.014z M389.559,264.283
		c0.525,11.073-8.015,20.5-19.088,21.042c-11.074,0.535-20.5-8.015-21.043-19.088c-0.543-11.073,8.015-20.5,19.088-21.043
		C379.59,244.66,388.999,253.2,389.559,264.283z M162.591,264.283c0.525,11.073-8.015,20.5-19.088,21.042
		c-11.074,0.535-20.5-8.015-21.043-19.088c-0.543-11.073,8.015-20.5,19.088-21.043C152.621,244.66,162.03,253.2,162.591,264.283z
		 M446.284,149.613l-211.626-20.844l155.172-44.8c7.129,5.555,13.932,11.498,20.32,17.877
		C424.282,115.995,436.441,132.071,446.284,149.613z M255.991,37.983c41.96,0.009,81.06,11.842,114.281,32.352l-184.394,53.232
		l0.127,0.416l-95.825-9.445c3.727-4.37,7.599-8.63,11.652-12.702C141.367,62.356,195.721,37.993,255.991,37.983z M56.579,344.103
		c43.734,8.332,147.664-49.505,202.886-49.505c33.329,0,95.482,18.854,145.257,31.302L100.24,408.472
		C82.074,389.907,67.219,368.15,56.579,344.103z M116.271,423.318l76.7-20.8l181.1,36.712
		c-34.034,21.984-74.492,34.776-118.08,34.786C202.759,474.007,154.141,454.973,116.271,423.318z M410.15,410.155
		c-5.012,5.012-10.277,9.779-15.76,14.294l-161.541-32.749l210.992-57.222c5.464,0.922,10.422,1.566,14.819,1.891
		C447.604,364.215,431.012,389.275,410.15,410.155z"/>
</g>
</svg>