<?xml version="1.0" encoding="utf-8"?>

<!DOCTYPE svg PUBLIC "-//W3C//DTD SVG 1.1//EN" "http://www.w3.org/Graphics/SVG/1.1/DTD/svg11.dtd">
<!-- Uploaded to: SVG Repo, www.svgrepo.com, Generator: SVG Repo Mixer Tools -->
<svg height="800px" width="800px" version="1.1" id="_x32_" xmlns="http://www.w3.org/2000/svg" xmlns:xlink="http://www.w3.org/1999/xlink" 
	 viewBox="0 0 512 512"  xml:space="preserve">
<style type="text/css">
	.st0{fill:#000000;}
</style>
<g>
	<path class="st0" d="M503.05,497.319c-0.116-0.69-4.456-32.903-20.451-73.094c-14.982-37.525-40.434-82.23-82.988-113.898
		c11.81-29.109,18.27-64.066,20.509-101.834c0.37-6.547,0.564-13.027,0.564-19.439c-0.02-51.36-12.337-98.273-39.636-133.063
		c-13.621-17.348-31.036-31.513-52.011-41.164C308.08,5.157,283.66-0.009,256.088,0c-27.572-0.009-51.991,5.157-72.968,14.837
		c-31.502,14.477-54.794,39.111-69.718,69.417c-14.963,30.335-21.91,66.284-21.928,104.85c0,6.392,0.194,12.862,0.584,19.38
		c2.334,39.568,8.522,74.447,21.345,104.159c-42.38,31.542-68.025,75.595-83.241,112.546
		c-16.286,39.626-20.917,71.304-21.015,71.994L6.986,512h498.029L503.05,497.319z M474.602,486.102H37.749
		c1.46-6.284,3.542-14.244,6.382-23.359c23.194,2.607,46.933,3.794,70.672,3.794c127.255-0.029,252.799-31.746,271.089-36.522
		c24.868-0.846,47.497-4.086,66.371-10.867c2.258,4.952,4.359,9.865,6.266,14.662c7.433,18.621,12.181,35.54,15.041,47.712
		C473.94,483.135,474.291,484.662,474.602,486.102z M145.566,317.294c-0.623-0.302-1.071-0.535-1.655-0.818l-2.802-5.535
		c-7.978-15.732-13.66-34.266-17.551-55.29c0.272,0,0.466,0.01,0.739,0.01c5.857-0.01,13.251-0.244,21.638-0.934
		c14.087,5.185,104.315,37.349,194.58,37.408c13.096,0,26.21-0.72,39.091-2.286c-2.296,6.83-4.825,13.3-7.628,19.225l-4.806,10.157
		l9.379,6.188c9.36,6.159,17.804,13.241,25.607,20.791c-29.557,4.932-57.246,7.141-82.619,7.141
		c-58.412,0-105.17-10.722-137.237-21.413C166.25,326.594,153.894,321.262,145.566,317.294z M132.042,106.232
		c42.614,4.904,166.23,21.19,261.05,52.819c0.311,2.909,0.603,5.847,0.817,8.815H118.266
		C120.038,145.265,124.629,124.474,132.042,106.232z M384.044,275.167c-14.186,2.052-28.799,3.026-43.528,3.026
		c-47.245,0.009-95.267-9.291-131.381-18.622c-12.492-3.23-23.446-6.431-32.572-9.271c25.957-5.458,55.727-16.394,82.502-37.642
		c4.826,1.051,9.244,3.814,13.698,7.083c3.658,3.171,7.686,6.129,12.045,8.883c2.219,1.508,4.534,2.909,6.986,4.115
		c10.254,5.623,21.716,10.322,33.487,14.087c21.054,6.675,42.847,10.352,59.93,10.371c1.032,0,1.908-0.116,2.9-0.145
		C386.904,263.278,385.582,269.368,384.044,275.167z M304.246,211.791c-11.014,0-19.925-8.921-19.925-19.925h39.85
		C324.172,202.87,315.24,211.791,304.246,211.791z M224.546,191.866c0,11.004-8.932,19.925-19.925,19.925
		c-11.014,0-19.925-8.921-19.925-19.925H224.546z M394.785,189.055c0,5.886-0.175,11.87-0.526,17.931
		c-0.719,12.502-2.023,24.546-3.755,36.095c-1.674,0.106-3.405,0.174-5.293,0.174c-15.099,0.01-35.958-3.434-55.708-9.728
		c-0.914-0.292-1.828-0.623-2.742-0.925c2.49-1.041,5.059-2.286,7.782-3.795c15.625-8.687,19.439-24.458,19.809-36.571
		c0.116-4.028-1.576-7.598-4.32-10.42h44.598C394.687,184.229,394.785,186.613,394.785,189.055z M159.654,181.816
		c-2.763,2.822-4.436,6.392-4.32,10.42c0.351,12.113,4.184,27.884,19.808,36.571c3.834,2.131,7.356,3.63,10.741,4.855
		c-24.945,6.772-47.653,8.076-61.584,8.047c-1.09,0-2.004-0.02-2.997-0.03c-1.537-10.974-2.685-22.503-3.385-34.703
		c-0.351-6.041-0.545-12.005-0.545-17.872c0-2.472,0.175-4.845,0.233-7.288H159.654z M390.815,143.65
		c-54.19-17.434-115.931-30.004-166.969-38.507c38.546-12.94,73.376-21.492,99.917-26.882c15.254-3.114,27.669-5.166,36.62-6.509
		c5.74,7.258,10.818,15.216,15.157,23.953C382.565,109.928,387.624,126.099,390.815,143.65z M151.462,72.015
		c11.304-14.341,25.295-25.714,42.515-33.662c17.201-7.929,37.729-12.444,62.11-12.453c24.381,0.009,44.89,4.524,62.11,12.453
		c11.753,5.438,21.987,12.56,30.939,21.063c-31.445,5.156-88.924,16.87-154.284,41.134c-23.427-3.522-43.099-6.032-56.662-7.638
		C142.103,85.412,146.461,78.358,151.462,72.015z M135.992,328.112c23.681,11.811,88.69,39.17,183.548,39.188
		c28.74,0,60.301-2.675,94.119-8.912c13.193,15.138,23.914,31.707,32.437,48.198c-16.754,5.778-37.886,8.785-61.449,9.534
		l-0.059-0.194c0,0-0.35,0.097-0.875,0.233c-3.834,0.116-7.745,0.165-11.714,0.165c-61.079,0.01-135-13.114-193.452-26.297
		c-29.226-6.597-54.6-13.184-72.676-18.126c-4.923-1.352-9.243-2.558-12.998-3.628C104.88,353.3,119.044,339.387,135.992,328.112z
		 M83.864,380.211c16.404,4.728,50.105,14.058,91.628,23.418c46.408,10.458,102.369,20.84,154.846,24.838
		c-51.699,10.624-133.579,24.127-215.536,24.118c-22.28,0-44.5-1.071-66.119-3.376c2.024-5.653,4.281-11.548,6.869-17.638
		C62.616,414.914,71.975,397.159,83.864,380.211z"/>
</g>
</svg>