<?xml version="1.0" encoding="utf-8"?>

<!DOCTYPE svg PUBLIC "-//W3C//DTD SVG 1.1//EN" "http://www.w3.org/Graphics/SVG/1.1/DTD/svg11.dtd">
<!-- Uploaded to: SVG Repo, www.svgrepo.com, Generator: SVG Repo Mixer Tools -->
<svg height="800px" width="800px" version="1.1" id="_x32_" xmlns="http://www.w3.org/2000/svg" xmlns:xlink="http://www.w3.org/1999/xlink" 
	 viewBox="0 0 512 512"  xml:space="preserve">
<style type="text/css">
	.st0{fill:#000000;}
</style>
<g>
	<path class="st0" d="M232.049,113.888c4.626,0,8.376-3.743,8.376-8.376c0-4.626-3.75-8.369-8.376-8.369
		c-4.633,0-8.376,3.743-8.376,8.369C223.673,110.145,227.416,113.888,232.049,113.888z"/>
	<path class="st0" d="M279.944,113.888c4.627,0,8.376-3.743,8.376-8.376c0-4.626-3.75-8.369-8.376-8.369
		c-4.626,0-8.376,3.743-8.376,8.369C271.568,110.145,275.318,113.888,279.944,113.888z"/>
	<path class="st0" d="M392.634,263.069c-6.084-17.222-15.288-31.508-25.731-44.068c-4.332-23.649-18.456-100.619-25.5-138.61
		C333.033,35.173,307.911,0,255.993,0c-51.911,0-77.033,35.173-85.416,80.39c-7.03,37.991-21.154,114.982-25.493,138.625
		c-10.437,12.554-19.634,26.832-25.717,44.054C97.651,324.528,68.744,512,68.744,512h374.512
		C443.256,512,414.349,324.528,392.634,263.069z M311.262,103.571c0,14.951-12.112,27.063-27.056,27.063h-56.419
		c-14.944,0-27.063-12.112-27.063-27.063v-19.83h110.538V103.571z"/>
</g>
</svg>