<?xml version="1.0" encoding="utf-8"?>

<!DOCTYPE svg PUBLIC "-//W3C//DTD SVG 1.1//EN" "http://www.w3.org/Graphics/SVG/1.1/DTD/svg11.dtd">
<!-- Uploaded to: SVG Repo, www.svgrepo.com, Generator: SVG Repo Mixer Tools -->
<svg height="800px" width="800px" version="1.1" id="_x32_" xmlns="http://www.w3.org/2000/svg" xmlns:xlink="http://www.w3.org/1999/xlink" 
	 viewBox="0 0 512 512"  xml:space="preserve">
<style type="text/css">
	.st0{fill:#000000;}
</style>
<g>
	<path class="st0" d="M449.412,182.044C430.456,79.644,373.566,0,255.99,0C138.434,0,81.544,79.644,62.568,182.044
		C43.611,284.444,1.9,512,1.9,512h508.2C510.1,512,468.389,284.444,449.412,182.044z M381.156,234.545
		c0,33.844-27.433,61.278-61.278,61.278H192.123c-33.844,0-61.278-27.433-61.278-61.278v-44.911h250.311V234.545z"/>
	<path class="st0" d="M201.767,257.912c10.478,0,18.966-8.489,18.966-18.967c0-10.478-8.489-18.967-18.966-18.967
		c-10.478,0-18.967,8.489-18.967,18.967C182.8,249.422,191.289,257.912,201.767,257.912z"/>
	<path class="st0" d="M310.233,257.912c10.478,0,18.967-8.489,18.967-18.967c0-10.478-8.489-18.967-18.967-18.967
		c-10.478,0-18.967,8.489-18.967,18.967C291.266,249.422,299.756,257.912,310.233,257.912z"/>
</g>
</svg>