<?xml version="1.0" encoding="utf-8"?>

<!DOCTYPE svg PUBLIC "-//W3C//DTD SVG 1.1//EN" "http://www.w3.org/Graphics/SVG/1.1/DTD/svg11.dtd">
<!-- Uploaded to: SVG Repo, www.svgrepo.com, Generator: SVG Repo Mixer Tools -->
<svg height="800px" width="800px" version="1.1" id="_x32_" xmlns="http://www.w3.org/2000/svg" xmlns:xlink="http://www.w3.org/1999/xlink" 
	 viewBox="0 0 512 512"  xml:space="preserve">
<style type="text/css">
	.st0{fill:#000000;}
</style>
<g>
	<path class="st0" d="M426.238,411.506c-10.256-15.346-25.252-24.568-40.025-30.778c-21.017-12.249-42.232-18.46-46.192-23.079
		c-19.333-22.548,16.111-30.607,24.165-20.94c2.917,3.506,15.907,23.421,22.557,27.39c11.728,6.98,15.505,0.103,11.279-4.832
		c-9.666-11.283-25.777-46.723-25.777-46.723l-47.779-7.468c3.404-4.859,6.697-10.479,9.593-16.903
		c4.666-6.963,8.546-14.662,11.74-22.694c0.102-0.068,0.214-0.111,0.317-0.18c4.525-3.122,8.361-7.656,11.616-13.823
		c3.272-6.193,6.172-14.114,9.268-24.944c1.57-5.492,2.292-10.264,2.292-14.508c0.004-4.902-1-9.145-2.852-12.6
		c-1.578-2.969-3.726-5.132-5.954-6.732c0.33-5.433,0.475-10.026,0.521-13.456c29.688-2.574,45.107-9.564,51.3-27.792
		c16.736-49.255-35.444-64.448-51.555-83.78C344.64,48.331,332.224,0,257.645,0c-74.601,0-86.996,48.331-103.107,67.663
		c-16.112,19.332-65.572,33.652-51.552,83.78c5.098,18.228,20.243,24.439,47.022,27.356c0.046,3.644,0.188,8.657,0.573,14.713
		c-1.869,1.54-3.678,3.387-5.017,5.92c-1.852,3.447-2.866,7.698-2.857,12.592c0.004,4.243,0.732,9.016,2.297,14.508
		c4.14,14.431,7.878,23.738,12.72,30.573c2.1,2.96,4.491,5.303,7.04,7.254c3.884,9.991,8.798,19.486,14.97,27.741
		c2.399,4.764,5.017,8.973,7.682,12.788l-48.99,7.657c0,0-16.108,35.44-25.774,46.723c-4.23,4.935-0.453,11.813,11.274,4.832
		c6.655-3.969,19.645-23.883,22.557-27.39c8.054-9.667,43.498-1.608,24.166,20.94c-4.08,4.764-26.496,11.223-48.13,24.243
		c-8.187,3.712-16.3,8.426-23.588,14.662c-7.352,6.313-13.807,14.251-18.344,24.105c-4.543,9.846-7.147,21.557-7.143,35.244
		c0,3.182,0.137,6.467,0.428,9.871c0.21,2.378,1.112,4.312,2.177,5.92c2.028,2.96,4.714,5.184,8.08,7.451
		c5.898,3.901,14.067,7.708,24.525,11.454c31.304,11.172,83.129,21.385,147.35,21.403c52.176,0,96.216-6.776,127.649-15.278
		c15.727-4.268,28.284-8.939,37.356-13.601c4.546-2.344,8.22-4.662,11.133-7.203c1.462-1.282,2.738-2.634,3.815-4.226
		c1.056-1.608,1.972-3.541,2.177-5.92c0.283-3.404,0.424-6.681,0.424-9.846C438.582,437.681,433.89,422.968,426.238,411.506z
		 M177.582,91.829c0-7.998,6.497-14.5,14.499-14.5c8.007,0,14.5,6.501,14.5,14.5c0,4.859-2.408,9.127-6.078,11.771l10.508,23.387
		l-7.386-0.633l-4.431,5.945l-7.113-15.816l-7.104,15.816l-4.432-5.945l-7.387,0.633l10.509-23.387
		C179.998,100.973,177.582,96.688,177.582,91.829z M184.571,262.022l-0.719-4.063l-3.879-1.386
		c-2.464-0.872-4.346-1.779-5.988-2.908c-2.426-1.711-4.62-4.055-7.19-8.836c-2.537-4.756-5.222-11.865-8.161-22.19
		c-1.291-4.508-1.75-8.015-1.75-10.616c0.004-3.028,0.586-4.79,1.176-5.902c0.894-1.626,1.99-2.328,3.388-2.883
		c0.949-0.368,1.95-0.506,2.528-0.548l4.897,1.034c7.788,5.894,13.374,18.597,13.374,18.597l4.191-41.916
		c1.194,0.018,2.314,0.034,3.542,0.034h134.604l4.192,41.881c0,0,5.945-13.533,14.135-19.127l4.825-0.514
		c0.56,0,2.69,0.239,4.123,1.198c0.813,0.522,1.472,1.129,2.079,2.242c0.595,1.112,1.168,2.874,1.181,5.902
		c0,2.601-0.458,6.107-1.749,10.624c-3.91,13.772-7.412,21.778-10.629,26.218c-1.613,2.25-3.084,3.645-4.722,4.799
		c-1.642,1.129-3.52,2.036-5.988,2.908l-3.878,1.386l-0.715,4.063c-4.538,25.397-17.63,39.691-27.296,50.461l-1.818,2.019v0.65
		l-2.72,1.044l-0.176,0.068c-2.036,0.77-21.193,7.665-42.574,9.144c-11.352-0.795-22.108-3.079-29.991-5.192
		c-3.829-1.026-6.964-2.002-9.183-2.738c0-0.094,0-0.162,0-0.256v-2.72l-1.818-2.019
		C202.197,301.713,189.104,287.419,184.571,262.022z M301.074,356.862c-4.234,2.789-9.05,5.03-14.79,6.673
		c-7.519,2.156-16.561,3.293-27.027,3.635v-29.409c14.965-1.634,27.955-5.227,35.098-7.519l3.969,9.264c0,2.686,0,5.234,0,7.528
		C298.31,350.652,299.428,353.988,301.074,356.862z M246.366,337.761v29.409c-10.462-0.342-19.508-1.48-27.028-3.635
		c-3.794-1.087-7.142-2.455-10.252-4.029c0.013-0.026,0.03-0.034,0.043-0.052c2.574-3.379,4.55-7.604,4.55-12.42
		c0-4.525,0-9.829,0-16.039C221.14,333.261,232.962,336.306,246.366,337.761z M207.701,496.208c-5.334,0-9.666-4.328-9.666-9.666
		c0-5.337,4.332-9.666,9.666-9.666c5.338,0,9.666,4.329,9.666,9.666C217.367,491.88,213.039,496.208,207.701,496.208z
		 M207.701,452.702c-5.334,0-9.666-4.328-9.666-9.666c0-5.337,4.332-9.666,9.666-9.666c5.338,0,9.666,4.329,9.666,9.666
		C217.367,448.374,213.039,452.702,207.701,452.702z M207.124,413.918l1.227-40.547c2.396,0.975,4.876,1.831,7.451,2.558
		c9.003,2.566,19.195,3.789,30.564,4.132v0.154h6.445h6.445v-0.154c11.373-0.342,21.561-1.565,30.564-4.132
		c4.44-1.258,8.542-2.951,12.429-4.902l0.21,6.81C280.356,385.963,232.744,404.123,207.124,413.918z"/>
</g>
</svg>