<?xml version="1.0" encoding="utf-8"?>

<!DOCTYPE svg PUBLIC "-//W3C//DTD SVG 1.1//EN" "http://www.w3.org/Graphics/SVG/1.1/DTD/svg11.dtd">
<!-- Uploaded to: SVG Repo, www.svgrepo.com, Generator: SVG Repo Mixer Tools -->
<svg height="800px" width="800px" version="1.1" id="_x32_" xmlns="http://www.w3.org/2000/svg" xmlns:xlink="http://www.w3.org/1999/xlink" 
	 viewBox="0 0 512 512"  xml:space="preserve">
<style type="text/css">
	.st0{fill:#000000;}
</style>
<g>
	<path class="st0" d="M454.472,157.529c-28.173-12.336-55.264-33.01-78.685-72.332C353.159,47.221,332.825,6.513,256,6.513
		c-76.824,0-97.158,40.708-119.788,78.684c-23.42,39.322-50.512,59.996-78.684,72.332c-43.366,18.988-65.093,60.575-55.144,95.838
		c7.673,27.225,23.042,50.064,72.801,59.108c-0.24,3.849-0.584,7.688-0.584,11.598C74.611,424.279,155.814,505.458,256,505.487
		c100.186-0.03,181.389-81.208,181.399-181.414c0-3.909-0.344-7.749-0.583-11.598c49.758-9.045,65.126-31.883,72.801-59.108
		C519.564,218.103,497.839,176.517,454.472,157.529z M355.692,423.771c-25.58,25.54-60.698,41.287-99.692,41.287
		c-38.993,0-74.112-15.747-99.692-41.287c-25.54-25.58-41.282-60.684-41.292-99.698c0-2.593,0.245-5.106,0.384-7.678
		c4.388,0.14,8.821,0.269,13.559,0.269h254.084c4.737,0,9.17-0.129,13.558-0.269c0.14,2.572,0.384,5.086,0.384,7.678
		C396.974,363.086,381.232,398.19,355.692,423.771z"/>
	<path class="st0" d="M204.675,342.723c-10.954,0-19.85,8.885-19.85,19.855c0,11,8.896,19.856,19.85,19.856
		c10.961,0,19.846-8.856,19.846-19.856C224.521,351.608,215.636,342.723,204.675,342.723z"/>
	<path class="st0" d="M303.315,342.723c-10.954,0-19.85,8.885-19.85,19.855c0,11,8.896,19.856,19.85,19.856
		c10.961,0,19.846-8.856,19.846-19.856C323.161,351.608,314.276,342.723,303.315,342.723z"/>
</g>
</svg>