<?xml version="1.0" encoding="utf-8"?>

<!DOCTYPE svg PUBLIC "-//W3C//DTD SVG 1.1//EN" "http://www.w3.org/Graphics/SVG/1.1/DTD/svg11.dtd">
<!-- Uploaded to: SVG Repo, www.svgrepo.com, Generator: SVG Repo Mixer Tools -->
<svg height="800px" width="800px" version="1.1" id="_x32_" xmlns="http://www.w3.org/2000/svg" xmlns:xlink="http://www.w3.org/1999/xlink" 
	 viewBox="0 0 512 512"  xml:space="preserve">
<style type="text/css">
	.st0{fill:#000000;}
</style>
<g>
	<path class="st0" d="M403.162,145.523C386.196,99.007,358.635,24.228,349.514,4.166c-10.951-24.099-225.623,62.433-284.98,104.002
		c-11.93,8.35-9.458,20.013-6.747,22.961c6.549,7.093,84.811,86.196,137.875,140.348
		C230.554,242.452,307.529,184.026,403.162,145.523z M337.9,67.896l8.834,23.623l-18.548,6.925l-8.824-23.614L337.9,67.896z
		 M290.563,84.683l9.686,23.258l-18.292,7.627l-9.686-23.277L290.563,84.683z M243.711,107.486l11.031,22.684l-17.837,8.666
		l-11.01-22.684L243.711,107.486z M155.606,187.291L140.56,167.05l15.878-11.831l15.056,20.23L155.606,187.291z M199.391,131.258
		l13.454,21.339l-16.738,10.566l-13.454-21.329L199.391,131.258z"/>
	<path class="st0" d="M454.862,251.326c-4.047-5.401-20.251-24.306-22.952-29.708c-2.71-5.402-14.859-37.82-14.859-37.82
		s-0.87-2.424-2.413-6.678c-39.196,14.453-127.706,51.71-198.578,115.221c13.286,13.642,23.129,23.841,26.76,27.868
		c20.557,22.743,7.172,50.244-14.859,83.742C194.198,455.275,183.395,512,183.395,512h174.231c0,0-10.813-85.087-10.813-90.489
		c0-5.401,24.316-51.324,31.063-62.136c6.757-10.803,20.26-18.905,39.175-16.204c18.905,2.7,25.662-4.046,25.662-10.803
		c0-5.253,0.159-20.33,0.238-28.659c0.019-2.384,1.098-4.976,1.187-5.866c0.633-6.015-12.268-2.137-3.008-5.223
		c6.648-2.217,1.582-10.23,1.582-10.23s-4.056-14.849,4.047-17.55C454.862,262.139,458.917,256.728,454.862,251.326z"/>
</g>
</svg>