<?xml version="1.0" encoding="utf-8"?>

<!DOCTYPE svg PUBLIC "-//W3C//DTD SVG 1.1//EN" "http://www.w3.org/Graphics/SVG/1.1/DTD/svg11.dtd">
<!-- Uploaded to: SVG Repo, www.svgrepo.com, Generator: SVG Repo Mixer Tools -->
<svg height="800px" width="800px" version="1.1" id="_x32_" xmlns="http://www.w3.org/2000/svg" xmlns:xlink="http://www.w3.org/1999/xlink" 
	 viewBox="0 0 512 512"  xml:space="preserve">
<style type="text/css">
	.st0{fill:#000000;}
</style>
<g>
	<path class="st0" d="M465.165,450.92c0.014-20.605-5.224-36.828-13.659-49.462c-12.664-18.992-32.149-29.733-50.942-36.82
		c-18.756-7.057-37.16-10.616-47.642-14.572c-1.731-0.678-3.462-1.348-5.172-2.019c-7.853-3.197-15.736-7.131-21.394-11.5
		c-2.836-2.173-5.098-4.449-6.571-6.667c-1.481-2.24-2.181-4.332-2.189-6.476v-33.343c5.15-5.547,11-10.365,16.848-16.966
		c6.204-6.999,12.193-16.038,16.893-29.859c1.274-2.888,2.563-7.242,4.523-14.167c2.019-7.153,4.671-16.9,8.362-29.777
		c3.359-11.677,4.368-21.328,4.361-28.68c0.008-8.716-1.392-14.137-1.952-15.949c0-2.439,0-12.576,0-26.72V127.7
		c5.282-3.152,11.515-6.881,16.856-11.949c6.049-5.71,10.97-13.489,10.94-23.597c0-1.945-0.177-3.97-0.545-6.056
		c-1.717-9.548-7.913-19.331-16.834-29.004c-13.415-14.477-33.21-28.629-54.877-39.282C300.504,7.176,276.996,0.015,255.963,0
		c-27.994,0.044-60.461,12.693-87.034,29.512c-13.276,8.436-25.055,17.924-34.006,27.583c-8.929,9.665-15.139,19.448-16.878,28.996
		c-0.376,2.107-0.56,4.148-0.552,6.115c-0.022,10.122,4.788,18.078,10.778,24.016c5.37,5.348,11.698,9.297,17.099,12.524
		c0,12.722,0,22.469,0,25.453c-1.348,2.402-4.104,8.582-4.096,18.97c0,5.805,0.855,12.877,3.264,21.291
		c3.5,12.244,5.842,23.759,8.177,32.694c1.179,4.48,2.343,8.31,3.78,11.419c0.73,1.555,1.525,2.947,2.542,4.163
		c0.589,0.699,1.319,1.319,2.129,1.863c3.764,11.854,9.504,20.54,15.648,27.524c6.063,6.888,12.362,12.288,17.593,17.938v33.343
		c0,2.041-0.737,4.17-2.291,6.461c-4.612,6.954-16.804,13.924-27.847,18.248l-0.044,0.022c-1.687,0.7-3.345,1.275-5.083,1.886
		h-0.015c-7.028,2.506-17.622,4.922-29.409,8.318c-17.703,5.12-38.257,12.458-54.634,26.528
		c-16.399,14.034-28.311,35.096-28.246,66.023c0,3.596,0.155,7.316,0.479,11.184c0.376,3.58,2.549,6.218,5.466,8.84
		c5.202,4.546,13.688,9.12,25.35,13.747c34.898,13.791,98.173,27.324,177.832,27.339c60.682-0.008,111.891-7.882,148.246-17.71
		c18.189-4.922,32.651-10.314,42.847-15.552c5.105-2.63,9.15-5.208,12.134-7.816c2.925-2.622,5.105-5.26,5.496-8.847l-3.758-0.317
		l3.758,0.31C465.01,458.213,465.165,454.501,465.165,450.92z M318.111,344.953l-8.766,11.087l-4.398-5.562
		c3.256-1.172,6.298-2.343,8.87-3.477C315.43,346.28,316.822,345.609,318.111,344.953z M183.686,197.098v-60.351h144.592v60.351
		H183.686z M219.968,363.798l-9.083,11.478l-8.833-11.175l9.408-11.891c0.391,0.125,0.788,0.251,1.186,0.376l-0.95,0.751
		L219.968,363.798z M224.778,369.884l8.936,11.293l-9.076,11.486l-8.936-11.301L224.778,369.884z M223.084,355.576
		c0.936,0.228,1.923,0.427,2.874,0.641l-1.179,1.496L223.084,355.576z M229.597,363.798l4.656-5.894
		c4.243,0.752,8.561,1.385,12.944,1.753l-0.597,0.472l1.886,2.379l-9.96,12.583L229.597,363.798z M253.296,368.601l9.548,12.067
		l-9.953,12.583l-9.547-12.067L253.296,368.601z M258.586,359.901c5.039-0.192,10.041-0.7,14.955-1.458l3.441,4.354l-9.32,11.787
		l-9.547-12.075l1.451-1.834L258.586,359.901z M267.662,386.754l8.693,10.992l-9.952,12.583l-8.693-10.991L267.662,386.754z
		 M272.473,380.668l9.326-11.787l8.694,10.992l-9.327,11.787L272.473,380.668z M286.618,362.796l6.866-8.686
		c1.282-0.36,2.622-0.699,3.86-1.082l7.19,9.098l-9.224,11.662L286.618,362.796z M189.667,342.986
		c1.968,1.238,4.568,2.549,7.854,4.016c1.908,0.84,4.081,1.708,6.386,2.578l-6.674,8.435l-10.358-13.091
		C187.826,344.29,188.776,343.649,189.667,342.986z M187.096,370.833l-17.688-16.716c3.625-1.525,7.293-3.256,10.844-5.216
		c0.037-0.022,0.066-0.044,0.104-0.059l12.067,15.25L187.096,370.833z M202.722,385.597l-10.115-9.555l4.633-5.857l8.833,11.169
		L202.722,385.597z M218.458,400.471l-10.225-9.665l2.659-3.359l8.937,11.294L218.458,400.471z M223.968,405.672l0.67-0.847
		l4.656,5.886L223.968,405.672z M229.45,398.747l9.084-11.478l9.547,12.068l-9.083,11.477L229.45,398.747z M252.508,427.891
		l-8.7-10.991l9.084-11.478l8.693,10.991L252.508,427.891z M257.614,434.345l-0.295-0.368l9.084-11.478l1.606,2.033L257.614,434.345
		z M273.519,419.316l-2.306-2.903l9.953-12.582l3.742,4.722L273.519,419.316z M290.419,403.352l-4.435-5.606l9.32-11.787
		l5.783,7.308L290.419,403.352z M306.596,388.057l-6.476-8.192l9.224-11.662l7.809,9.879L306.596,388.057z M322.664,372.881
		l-8.508-10.756l12.347-15.61l-4.627-3.668c0.03-0.023,0.059-0.044,0.096-0.066c1.54,1.156,3.204,2.262,4.965,3.322
		c0.023,0.015,0.037,0.029,0.052,0.037c0.073,0.044,0.162,0.081,0.236,0.125c1.812,1.09,3.713,2.129,5.673,3.124
		c3.182,1.665,6.417,3.219,9.732,4.626L322.664,372.881z"/>
</g>
</svg>