<?xml version="1.0" encoding="utf-8"?>

<!DOCTYPE svg PUBLIC "-//W3C//DTD SVG 1.1//EN" "http://www.w3.org/Graphics/SVG/1.1/DTD/svg11.dtd">
<!-- Uploaded to: SVG Repo, www.svgrepo.com, Generator: SVG Repo Mixer Tools -->
<svg version="1.1" id="_x32_" xmlns="http://www.w3.org/2000/svg" xmlns:xlink="http://www.w3.org/1999/xlink" 
	 width="800px" height="800px" viewBox="0 0 512 512"  xml:space="preserve">
<style type="text/css">
<![CDATA[
	.st0{fill:#000000;}
]]>
</style>
<g>
	<path class="st0" d="M256,0C130.672,0,29.063,68.563,29.063,130.438c0,29.906,23.781,50.031,62.5,66.328v25.188h328.891v-26.109
		c38.672-16.625,62.484-35.5,62.484-65.406C482.938,68.563,381.344,0,256,0z M256,190.484c-29.969,0-54.266-24.297-54.266-54.266
		S226.031,81.938,256,81.938s54.281,24.313,54.281,54.281S285.969,190.484,256,190.484z"/>
	<polygon class="st0" points="225.75,129.422 237.313,164.984 274.703,164.984 286.25,129.422 256,107.438 	"/>
	<path class="st0" d="M422.234,310.688c-0.297-0.266-0.625-0.453-0.938-0.688l-1.547-62.844c0.438-1.813,0.703-3.625,0.703-5.469
		h-12.891v-0.969H102.781v0.969H91.563c0,0.406,0.063,0.813,0.078,1.219l-0.953-0.375L89.031,310c-2.328,1.766-4.531,4-6.219,6.813
		c-2.656,4.359-3.969,9.719-3.953,15.469c0.016,4.75,0.828,9.844,2.484,15.531c2.906,9.922,7.703,21.531,14.688,31.531
		c3.516,4.984,7.594,9.594,12.656,13.25c3.359,2.438,7.297,4.406,11.656,5.469c0.313,1.781,0.703,3.719,1.125,5.766
		c0.797,3.906,1.75,8.125,2.813,12.109c1.094,4.016,2.188,7.688,3.781,11.109c9.063,19.234,20.516,34.328,32.844,45.984
		c18.516,17.5,38.875,27.25,56.078,32.594c17.266,5.344,31.297,6.375,38.172,6.375c4.625,0,12.328-0.469,22.141-2.344
		c14.672-2.844,33.969-8.875,53.172-21.594c19.203-12.688,38.219-32.156,51.781-61.031c1.594-3.406,2.703-7.078,3.797-11.094
		c1.594-5.969,2.938-12.5,3.906-17.641c0.016-0.078,0.016-0.156,0.047-0.234c4.344-1.063,8.281-3.031,11.625-5.469
		c7.578-5.5,13.031-13.078,17.5-21c4.406-7.953,7.688-16.344,9.859-23.781c1.641-5.688,2.469-10.781,2.484-15.531
		c0-5.125-1.031-9.906-3.141-14C426.766,315.234,424.609,312.641,422.234,310.688z M407.828,341.656
		c-2.281,7.938-6.531,17.906-11.578,25.031c-2.484,3.563-5.156,6.375-7.469,8.031c-2.359,1.656-4.063,2.141-5.531,2.156
		l-0.984-0.078l-10.797-1.625l-1.719,10.797l-0.031,0.25c-0.219,1.313-1.266,7.641-2.719,14.531
		c-0.719,3.438-1.563,7.031-2.406,10.125c-0.813,3.063-1.75,5.719-2.266,6.781c-7.922,16.781-17.656,29.531-28.047,39.375
		C318.688,471.766,301.5,480,286.797,484.578c-14.656,4.578-26.922,5.406-31.641,5.391c-3.109,0-9.656-0.344-17.969-1.953
		c-12.484-2.406-29-7.594-45.172-18.313c-16.188-10.75-32.141-26.891-44.016-52.047c-0.563-1.125-1.563-4.078-2.438-7.406
		c-1.359-5.063-2.641-11.219-3.531-16.031c-0.469-2.406-0.828-4.5-1.078-5.969c-0.125-0.719-0.234-1.313-0.297-1.703l-0.094-0.578
		l-1.703-10.781l-10.797,1.609l-0.984,0.078c-1.484-0.016-3.172-0.5-5.547-2.156c-3.5-2.453-7.688-7.641-11.078-13.844
		c-3.453-6.172-6.234-13.281-7.953-19.219c-1.219-4.156-1.609-7.266-1.609-9.375c0.016-2.313,0.422-3.391,0.672-3.906l0.609-0.75
		c0.359-0.313,1.109-0.734,2.281-1.031c1.141-0.281,2.625-0.438,3.938-0.438c1.047,0,1.984,0.094,2.578,0.156l0.656,0.094l0,0
		l9.438,1.875c1.125,1.875,2.297,3.938,3.484,6.281c1.297-12.344,4.109-36.016,6.203-53.469
		c30.156,13.109,75.063,21.438,125.25,21.438c49.313,0,93.516-8.031,123.656-20.75c2.094,17.375,4.844,40.594,6.125,52.781
		c1.188-2.344,2.344-4.406,3.484-6.281l9.438-1.875h0.016c0.344-0.063,1.656-0.25,3.203-0.25c1.172,0,2.469,0.109,3.547,0.344
		c0.813,0.188,1.5,0.422,1.969,0.656c0.719,0.391,0.922,0.609,1.219,1.047c0.25,0.453,0.75,1.453,0.781,4.078
		C409.438,334.391,409.031,337.5,407.828,341.656z"/>
	<path class="st0" d="M199.719,334.406c-6.844,0-12.391,5.547-12.391,12.391c0,6.828,5.547,12.391,12.391,12.391
		s12.391-5.563,12.391-12.391C212.109,339.953,206.563,334.406,199.719,334.406z"/>
	<path class="st0" d="M312.625,334.406c-6.844,0-12.406,5.547-12.406,12.391c0,6.828,5.563,12.391,12.406,12.391
		S325,353.625,325,346.797C325,339.953,319.469,334.406,312.625,334.406z"/>
</g>
</svg>