<?xml version="1.0" encoding="utf-8"?>

<!DOCTYPE svg PUBLIC "-//W3C//DTD SVG 1.1//EN" "http://www.w3.org/Graphics/SVG/1.1/DTD/svg11.dtd">
<!-- Uploaded to: SVG Repo, www.svgrepo.com, Generator: SVG Repo Mixer Tools -->
<svg height="800px" width="800px" version="1.1" id="_x32_" xmlns="http://www.w3.org/2000/svg" xmlns:xlink="http://www.w3.org/1999/xlink" 
	 viewBox="0 0 512 512"  xml:space="preserve">
<style type="text/css">
	.st0{fill:#000000;}
</style>
<g>
	<path class="st0" d="M205.436,283.406c9.759,0,17.674-7.915,17.674-17.684s-7.915-17.684-17.674-17.684
		c-9.778,0-17.693,7.915-17.693,17.684S195.657,283.406,205.436,283.406z"/>
	<path class="st0" d="M306.563,283.406c9.76,0,17.674-7.915,17.674-17.684s-7.914-17.684-17.674-17.684
		c-9.778,0-17.693,7.915-17.693,17.684S296.785,283.406,306.563,283.406z"/>
	<path class="st0" d="M508.56,480.316c0-0.011-36.776-200.64-55.08-299.509c7.096-3.48,12.017-10.701,12.017-19.134
		c0-11.799-9.573-21.371-21.383-21.371h-0.031c-3.78-12.453-8.287-24.21-13.757-35.097c-14.938-29.835-36.993-53.611-66.268-69.169
		c-29.276-15.612-65.14-23.133-108.068-23.133c-28.633,0-54.066,3.335-76.566,10.193c-33.741,10.214-60.809,28.748-80.44,54.366
		c-13.758,17.881-23.848,39.003-31.089,62.84h-0.031c-11.81,0-21.381,9.572-21.381,21.371c0,8.432,4.93,15.653,12.016,19.134
		C40.215,279.676,3.44,480.316,3.44,480.316L0,499.097h512L508.56,480.316z M110.099,119.5
		c12.588-24.862,29.483-42.856,52.822-55.392c23.361-12.482,53.785-19.382,93.069-19.382c26.168,0,48.471,3.066,67.304,8.806
		c28.25,8.691,48.74,22.966,64.498,43.343c9.302,12.079,16.875,26.572,22.842,43.427H101.438
		C104.049,132.957,106.868,125.923,110.099,119.5z M284.664,430.974H256.01h-28.674c0,0,22.044,15.053-4.413,16.41
		c-26.458,1.378-88.2-50.605-57.328-49.249c30.891,1.357,94.808-36.941,94.808-36.941s55.112,38.298,86.003,36.941
		c30.871-1.356-30.87,50.627-57.348,49.249C262.62,446.027,284.664,430.974,284.664,430.974z M136.494,357.723V225.155h239.011
		v132.578c-6.765-6.184-14.618-14.958-23.589-28.809c-19.848-30.643-43.011-28.281-95.906-28.281
		c-52.936,0-76.079-2.362-95.926,28.281C151.122,342.765,143.259,351.549,136.494,357.723z M334.089,467.273
		c53.755-31.192,71.127-81.144,62.207-93.348V204.364H115.704v169.531c-8.971,12.151,8.391,62.166,62.196,93.378H38.184
		c0.839-4.6,1.813-9.873,2.912-15.86c11.53-62.841,35.904-195.688,49.351-268.359h331.084
		c8.879,47.953,22.511,122.032,34.073,184.986c5.967,32.487,11.374,61.991,15.3,83.372c1.099,5.987,2.072,11.26,2.911,15.86H334.089
		z"/>
</g>
</svg>