<?xml version="1.0" encoding="utf-8"?>

<!DOCTYPE svg PUBLIC "-//W3C//DTD SVG 1.1//EN" "http://www.w3.org/Graphics/SVG/1.1/DTD/svg11.dtd">
<!-- Uploaded to: SVG Repo, www.svgrepo.com, Generator: SVG Repo Mixer Tools -->
<svg height="800px" width="800px" version="1.1" id="_x32_" xmlns="http://www.w3.org/2000/svg" xmlns:xlink="http://www.w3.org/1999/xlink" 
	 viewBox="0 0 512 512"  xml:space="preserve">
<style type="text/css">
	.st0{fill:#000000;}
</style>
<g>
	<path class="st0" d="M165.865,85.55c23.636,0,42.779-19.159,42.779-42.77C208.644,19.142,189.501,0,165.865,0
		c-23.636,0-42.779,19.142-42.779,42.779C123.086,66.391,142.229,85.55,165.865,85.55z"/>
	<path class="st0" d="M222.061,97.624H109.669c-20.726,0-43.274,22.548-43.274,43.282v143.768c0,10.363,8.396,18.767,18.758,18.767
		c10.363,0,18.775-8.404,18.775-18.767V166.469h8.651v320.88c0,13.616,11.035,24.651,24.644,24.651
		c13.625,0,24.66-11.035,24.66-24.651V301.138h7.964v186.211c0,13.616,11.035,24.651,24.66,24.651
		c13.609,0,24.644-11.035,24.644-24.651v-320.88h8.668v118.204c0,10.363,8.396,18.767,18.758,18.767
		c10.379,0,18.759-8.404,18.759-18.767V140.906C265.335,120.172,242.787,97.624,222.061,97.624z"/>
	<path class="st0" d="M373.041,256.72c19.206,0,34.758-15.568,34.758-34.751c0-19.206-15.552-34.759-34.758-34.759
		c-19.206,0-34.758,15.552-34.758,34.759C338.283,241.152,353.835,256.72,373.041,256.72z"/>
	<path class="st0" d="M412.989,278.117h-84.718c-15.616,0-32.616,16.992-32.616,32.624v75.482c0,7.812,6.333,14.145,14.137,14.145
		c7.812,0,14.153-6.333,14.153-14.145v-56.212h6.525v163.407c0,10.267,8.316,18.582,18.566,18.582
		c10.275,0,18.592-8.316,18.592-18.582v-94.785h6.005v94.785c0,10.267,8.316,18.582,18.582,18.582
		c10.259,0,18.582-8.316,18.582-18.582V330.011h6.525v56.212c0,7.812,6.332,14.145,14.137,14.145
		c7.828,0,14.144-6.333,14.144-14.145v-75.482C445.605,295.108,428.614,278.117,412.989,278.117z"/>
</g>
</svg>