<?xml version="1.0" encoding="utf-8"?>

<!DOCTYPE svg PUBLIC "-//W3C//DTD SVG 1.1//EN" "http://www.w3.org/Graphics/SVG/1.1/DTD/svg11.dtd">
<!-- Uploaded to: SVG Repo, www.svgrepo.com, Generator: SVG Repo Mixer Tools -->
<svg height="800px" width="800px" version="1.1" id="_x32_" xmlns="http://www.w3.org/2000/svg" xmlns:xlink="http://www.w3.org/1999/xlink" 
	 viewBox="0 0 512 512"  xml:space="preserve">
<style type="text/css">
	.st0{fill:#000000;}
</style>
<g>
	<path class="st0" d="M154.969,85.376c23.579,0,42.693-19.114,42.693-42.7C197.661,19.106,178.548,0,154.969,0
		s-42.684,19.106-42.684,42.676C112.285,66.263,131.39,85.376,154.969,85.376z"/>
	<path class="st0" d="M238.203,146.262c-8.654-29.213-28.043-48.576-49.858-48.576c-16.172,0-33.376,0-33.376,0s-17.195,0-33.359,0
		c-21.815,0-41.222,19.363-49.875,48.576L40.302,257.781c-2.305,9.393,3.424,18.985,12.808,21.282
		c9.402,2.323,18.821-3.175,21.135-12.568l31.33-111.174h9.247L60.31,348.705h51.398v143.45c0,10.959,8.886,19.845,19.845,19.845
		c10.976,0,19.854-8.886,19.854-19.845v-143.45h10.942v143.45c0,10.959,8.895,19.845,19.862,19.845
		c10.968,0,19.845-8.886,19.845-19.845v-143.45h47.588L195.124,155.32h9.238l31.33,111.174c2.322,9.394,11.733,14.891,21.126,12.568
		c9.394-2.296,15.123-11.888,12.818-21.282L238.203,146.262z"/>
	<path class="st0" d="M394.142,236.103c20.663,0,37.394-16.748,37.394-37.385c0-20.662-16.731-37.393-37.394-37.393
		c-20.662,0-37.393,16.731-37.393,37.393C356.749,219.355,373.48,236.103,394.142,236.103z"/>
	<path class="st0" d="M437.12,259.123h-91.14c-16.8,0-35.088,18.28-35.088,35.097v81.205c0,8.404,6.812,15.217,15.208,15.217
		c8.404,0,15.226-6.812,15.226-15.217v-60.474h7.019v175.793c0,11.046,8.947,19.992,19.974,19.992c11.054,0,20-8.946,20-19.992
		V388.775h6.46v101.969c0,11.046,8.946,19.992,19.991,19.992c11.037,0,19.992-8.946,19.992-19.992V314.951h7.019v60.474
		c0,8.404,6.813,15.217,15.208,15.217c8.422,0,15.218-6.812,15.218-15.217V294.22C472.208,277.402,453.928,259.123,437.12,259.123z"
		/>
</g>
</svg>