<?xml version="1.0" encoding="utf-8"?>

<!DOCTYPE svg PUBLIC "-//W3C//DTD SVG 1.1//EN" "http://www.w3.org/Graphics/SVG/1.1/DTD/svg11.dtd">
<!-- Uploaded to: SVG Repo, www.svgrepo.com, Generator: SVG Repo Mixer Tools -->
<svg height="800px" width="800px" version="1.1" id="_x32_" xmlns="http://www.w3.org/2000/svg" xmlns:xlink="http://www.w3.org/1999/xlink" 
	 viewBox="0 0 512 512"  xml:space="preserve">
<style type="text/css">
	.st0{fill:#000000;}
</style>
<g>
	<path class="st0" d="M422.583,434.931c-2.888-7.906-6.967-14.62-11.773-20.194c-4.232-4.958-9.046-9.198-14.096-12.762
		c-8.885-6.25-18.708-10.743-28.26-14.57c-7.229-2.838-14.307-5.37-20.87-7.795c-4.957-1.909-9.552-3.775-13.691-5.786
		c-2.626-1.292-5.008-2.584-7.178-4.028l-0.06-0.042c1.9-13.572-8.176-26.731-13.724-29.907v-0.016
		c0.202-5.262,1.182-4.544,2.314-10.119c3.986-4.493,7.601-9.763,11.004-16.165c0.237-0.439,0.465-0.929,0.697-1.377
		c1.956,20.44,4.755,28.598,5.968,22.027c0.768-4.163,2.322-22.018,4.036-43.708c1.816-0.921,3.662-1.858,5.474-3.032
		c4.645-3.201,9.087-7.542,12.803-13.429c3.666-5.836,6.614-13.015,8.682-22.002c0.516-2.432,0.778-4.966,0.778-7.339
		c0-5.118-1.2-9.916-3.21-14.256c-1.393-2.998-3.15-5.786-5.212-8.32c1.081-3.868,2.323-9.087,3.455-15.236
		c0.211-1.081,0.413-2.171,0.574-3.302l0.05-0.414v-7.34v-0.051v-7.745c0-12.55-1.14-30.844-2.685-50.675
		c-1.09-13.379-2.323-27.424-3.514-40.912c-1.554-16.74-3.1-32.491-4.24-44.73c-0.617-6.098-1.132-11.36-1.393-15.346
		c-0.203-2.01-0.313-3.665-0.414-5.008c-0.101-1.284-0.152-2.272-0.101-2.584c0-2.99-1.09-5.887-2.584-8.108
		c-2.736-4.028-6.656-6.766-11.571-9.139c-7.332-3.614-17.247-6.359-30.059-8.369C290.97,1.132,275.32,0,256.671,0
		c-28.412,0-49.898,2.635-64.873,6.976c-7.542,2.112-13.438,4.645-18.032,7.897c-2.272,1.605-4.24,3.463-5.786,5.786
		c-1.546,2.221-2.584,5.118-2.584,8.108c0,0.312,0,1.3-0.101,2.584c-0.312,5.008-1.292,14.983-2.483,27.585
		c-1.655,17.044-3.767,38.952-5.625,60.54c-0.211,2.432-0.414,4.856-0.626,7.28c-1.909,22.475-3.353,43.81-3.564,58.581v3.04
		l0.06,1.867v0.828c-0.06,0.667-0.06,1.342-0.06,2.01l0.06,0.414l0.05,2.323h0.363c0.354,2.171,0.718,4.181,1.081,6.098
		c0,0.514,0,0.878,0.051,1.292l0.05,0.363c0,0.777,0.051,1.597,0.152,2.373c0.161,1.453,0.312,2.788,0.464,4.08
		c0.051,0.514,0.11,1.09,0.161,1.503v1.495l1.706,7.542c-2.432,2.635-4.544,5.634-6.199,8.987c-2.28,4.544-3.614,9.712-3.614,15.135
		c0,2.373,0.254,4.907,0.828,7.339c1.334,5.988,3.091,11.158,5.211,15.702c3.201,6.866,7.238,12.187,11.672,16.114
		c3.463,3.1,7.137,5.372,10.802,7.078c0.356,0.963,0.714,1.85,1.069,2.788c1.191,19.24,3.028,37.229,6.098,44.653
		c2.757,6.664,4.645-3.504,5.942-19.501c2.478,4.011,5.033,7.719,7.812,10.852c1.081,5.372,2.061,4.907,2.322,9.451v0.042
		c-5.016,1.276-17.702,16.098-15.126,31.216c0.017,0.084,0.034,0.16,0.051,0.245l-0.008,0.009
		c-3.463,2.061-7.542,4.028-12.036,5.937c-8.108,3.463-17.559,6.613-27.17,10.329c-7.23,2.796-14.57,6.048-21.588,9.967
		c-5.27,2.998-10.338,6.57-15.034,10.701c-7.027,6.25-13.125,13.994-17.306,23.708c-4.24,9.712-6.613,21.284-6.613,35.076
		c0,1.858,0.414,3.614,1.081,5.372c0.625,1.494,1.453,2.998,2.432,4.282c1.858,2.584,4.283,4.805,7.23,6.976
		c5.168,3.818,12.036,7.441,20.971,10.844c13.328,5.017,31.258,9.51,54.341,12.762c23.142,3.362,51.503,5.372,85.701,5.372
		c29.645,0,54.907-1.495,76.14-4.08c15.954-1.959,29.696-4.392,41.317-7.289c8.734-2.12,16.276-4.383,22.779-6.917
		c4.856-1.757,9.147-3.716,12.813-5.684c2.787-1.494,5.27-2.99,7.44-4.594c3.252-2.382,5.887-4.806,7.846-7.543
		c1.04-1.343,1.868-2.838,2.433-4.493c0.616-1.554,0.98-3.312,0.98-5.008C427.752,454.306,425.894,443.816,422.583,434.931z
		 M168.91,266.434c-2.686-4.29-5.111-9.915-6.816-17.508c-0.313-1.452-0.464-2.896-0.464-4.24c0-3.049,0.718-5.988,2.111-8.784
		c1.14-2.272,2.745-4.494,4.704-6.504c2.628,3.97,4.815,7.222,6.141,8.893c0.334,8.252,0.697,21.512,1.314,35.963
		C173.454,272.339,171.093,269.881,168.91,266.434z M344.898,230.895c1.494,1.706,2.736,3.614,3.615,5.583
		c1.241,2.626,1.866,5.372,1.866,8.209c0,1.292-0.161,2.787-0.473,4.24c-1.132,5.008-2.584,9.299-4.232,12.753
		c-2.183,4.688-4.7,8.024-7.314,10.575c0.879-11.554,1.753-23.378,2.547-34.291C341.24,237.339,342.715,234.585,344.898,230.895z
		 M179.805,37.602c0.211-2.061,0.313-3.818,0.423-5.27c0.092-1.292,0.151-2.373,0.151-3.303v-0.05
		c0.304-0.464,1.706-1.909,4.595-3.412c4.856-2.686,13.539-5.474,25.574-7.382c12.036-1.959,27.424-3.201,46.123-3.201
		c27.484,0,47.888,2.678,60.802,6.352c6.453,1.858,11.047,3.978,13.429,5.735c1.191,0.828,1.858,1.597,2.061,1.909l0.051,0.101
		c0,0.938,0.05,1.96,0.101,3.252c0.363,5.43,1.292,15.397,2.534,28.057c1.815,18.953,4.24,43.902,6.199,67.559
		c0.05,0.566,0.101,1.09,0.16,1.605c1.132,13.691,2.061,26.96,2.686,38.277c0.151,2.677,0.253,5.262,0.413,7.745
		c0,0.624,0,1.909,0.051,3.513c0,0.93,0.05,1.859,0.05,2.788c0,1.292,0,2.534,0.051,3.615H188.487h-20.304
		c0.05-0.778,0.05-2.686,0.05-4.645c0.042-1.52,0.051-3.058,0.076-4.173l0.034-1.098c0.101-2.483,0.203-5.068,0.355-7.745
		c0.887-17.458,2.695-39.468,4.604-60.701c0.304-3.091,0.566-6.25,0.878-9.24c1.545-16.74,3.1-32.492,4.24-44.789
		C179.037,47.01,179.45,41.689,179.805,37.602z M99.282,467.524c-0.363-0.516-0.574-0.878-0.625-1.081l-0.05-0.152
		c0-10.65,1.553-19.274,4.24-26.402c2.322-6.301,5.473-11.461,9.239-15.912c3.362-3.92,7.188-7.331,11.47-10.33
		c7.441-5.262,16.174-9.29,25.313-12.914c6.816-2.736,13.843-5.16,20.658-7.745c5.118-1.96,10.127-3.978,14.882-6.301
		c1.495-0.726,2.939-1.452,4.392-2.28c0,0,0.008,0,0.016-0.008c5.625,10.127,14.738,16.562,23.851,20.642l-34.198,23.26v65.016
		c-14.13-1.815-26.258-4.096-36.52-6.528c-8.269-2.011-15.296-4.181-21.132-6.453c-4.333-1.655-8.108-3.303-11.157-4.958
		c-2.323-1.241-4.24-2.424-5.786-3.564C101.503,470.159,100,468.605,99.282,467.524z M191.672,239.518
		c0-4.814-0.642-11.242,11.554-17.339c30.617-4.688,89.971-11.225,102.902-26.36h1.431c3.949,18.134,13.969,31.19,14.278,40.625
		c0.662,20.422,1.909,35.524,0.384,50.794c-2.905,7.745-5.726,14.291-8.572,19.594c-3.362,6.25-6.715,10.896-10.177,14.621
		l-1.394,1.334l-0.413,1.968c-1.597,7.382-3.1,7.331-3.1,17.407c0,3.048,0.16,6.25,0.464,9.451c0.413,3.876,1.292,7.44,2.685,10.793
		c0.355,0.879,0.769,1.698,1.233,2.517c-7.162,10.135-19.426,16.208-33.091,18.666c-0.954-3.302-3.961-5.726-7.568-5.726h-14.045
		c-3.606,0-6.613,2.424-7.568,5.726c-13.133-2.365-24.966-8.082-32.23-17.542l0.65-1.056c2.011-3.928,3.362-8.522,3.877-13.378
		c0.312-3.201,0.464-6.403,0.464-9.451c0-10.076-1.503-10.026-3.1-17.407l-0.414-1.968l-1.393-1.444
		c-3.463-3.666-6.816-8.37-10.177-14.511c-2.552-4.831-5.14-10.641-7.783-17.482C191.477,265.43,191.672,241.672,191.672,239.518z
		 M183.64,431.029l34.823-23.674c12.5,4.383,23.522,4.764,23.522,4.764l-7.298,62.339h20.583h20.583l-7.298-62.339
		c0,0,39.138-1.334,53.531-28.345c0.008,0.008,0.025,0.008,0.034,0.017c3.919,2.272,8.057,4.189,12.399,5.996
		c8.834,3.716,18.286,6.867,27.482,10.481c6.867,2.686,13.581,5.634,19.679,9.097c4.595,2.626,8.877,5.574,12.652,8.936
		c5.684,5.06,10.329,11.056,13.691,18.75c3.353,7.694,5.372,17.145,5.372,29.239l-0.363,0.769c-0.464,0.828-1.604,2.171-3.463,3.665
		c-1.647,1.352-3.868,2.838-6.655,4.342c-4.916,2.686-11.528,5.473-19.941,8.108c-12.66,3.986-29.34,7.652-50.362,10.287
		c-21.03,2.628-46.444,4.232-76.604,4.232c-28.184,0-52.171-1.41-72.365-3.75V431.029z"/>
	<path class="st0" d="M201.258,434.939c-2.905,0-5.262,2.357-5.262,5.27c0,2.906,2.357,5.262,5.262,5.262
		c2.914,0,5.271-2.356,5.271-5.262C206.528,437.296,204.172,434.939,201.258,434.939z"/>
	<path class="st0" d="M201.258,475.336c-2.905,0-5.262,2.348-5.262,5.27c0,2.905,2.357,5.262,5.262,5.262
		c2.914,0,5.271-2.356,5.271-5.262C206.528,477.684,204.172,475.336,201.258,475.336z"/>
	<path class="st0" d="M311.916,445.471c2.906,0,5.27-2.356,5.27-5.262c0-2.914-2.364-5.27-5.27-5.27
		c-2.905,0-5.278,2.357-5.278,5.27C306.638,443.116,309.011,445.471,311.916,445.471z"/>
	<path class="st0" d="M311.916,485.868c2.906,0,5.27-2.356,5.27-5.262c0-2.922-2.364-5.27-5.27-5.27
		c-2.905,0-5.278,2.348-5.278,5.27C306.638,483.512,309.011,485.868,311.916,485.868z"/>
</g>
</svg>