<?xml version="1.0" encoding="utf-8"?>

<!DOCTYPE svg PUBLIC "-//W3C//DTD SVG 1.1//EN" "http://www.w3.org/Graphics/SVG/1.1/DTD/svg11.dtd">
<!-- Uploaded to: SVG Repo, www.svgrepo.com, Generator: SVG Repo Mixer Tools -->
<svg height="800px" width="800px" version="1.1" id="_x32_" xmlns="http://www.w3.org/2000/svg" xmlns:xlink="http://www.w3.org/1999/xlink" 
	 viewBox="0 0 512 512"  xml:space="preserve">
<style type="text/css">
	.st0{fill:#000000;}
</style>
<g>
	<path class="st0" d="M436.388,405.861c-12.144-18.187-30.608-28.262-47.997-34.818c-8.71-3.281-17.244-5.696-24.765-7.752
		c-7.499-2.039-14.039-3.772-18.448-5.428c-6.242-2.316-12.697-5.206-17.988-8.349v-33.001l-11.554,1.924c0-3.136,0-6.425,0-10.059
		c9.829-10.934,23.991-27.87,29.757-54.806c2.062-0.92,4.094-1.955,6.049-3.312c4.754-3.282,8.794-8.051,12.229-14.56
		c3.459-6.54,6.526-14.921,9.814-26.406c1.656-5.804,2.423-10.842,2.423-15.312c0.008-5.153-1.058-9.607-2.99-13.211
		c-2.132-4.01-5.23-6.694-8.242-8.396v-12.39c0.391-0.352,0.882-0.674,1.234-1.042c9.829-10.228,5.919-22.082-0.928-30.892
		c8.595-12.076,25.778-39.931,20.932-64.16C375.579,12.229,302.855,0,256,0c-46.855,0-119.58,12.229-129.908,63.891
		c-4.846,24.229,12.329,52.084,20.932,64.16c-6.648,8.549-10.428,19.966-1.649,29.987v15.718c-2.338,1.672-4.639,3.911-6.288,7.016
		c-1.939,3.611-2.998,8.058-2.99,13.211c0,4.478,0.766,9.507,2.423,15.312c4.386,15.296,8.349,25.149,13.448,32.348
		c2.554,3.573,5.444,6.432,8.595,8.618c1.955,1.356,3.987,2.391,6.042,3.312c5.774,26.936,19.927,43.872,29.764,54.806
		c0,3.634,0,6.924,0,10.059l-11.562-1.924v33.008c-0.598,0.368-1.166,0.744-1.794,1.097c-5.092,2.906-10.942,5.406-16.056,7.207
		c-6.019,2.132-15.664,4.34-26.468,7.43c-16.231,4.693-35.392,11.455-50.965,24.796c-7.766,6.678-14.583,15.059-19.374,25.471
		c-4.808,10.412-7.568,22.772-7.56,37.278c0,3.359,0.145,6.839,0.452,10.435c0.214,2.453,1.15,4.455,2.262,6.118
		c2.108,3.105,4.93,5.436,8.487,7.828c6.218,4.125,14.86,8.158,25.946,12.13C132.916,501.143,187.884,511.976,256,512
		c55.342-0.008,102.059-7.185,135.381-16.201c16.676-4.524,29.979-9.476,39.578-14.407c4.807-2.476,8.695-4.93,11.754-7.606
		c1.525-1.35,2.867-2.76,3.987-4.424c1.104-1.664,2.048-3.673,2.254-6.126c0.307-3.596,0.452-7.062,0.452-10.42
		C449.431,433.502,444.47,417.953,436.388,405.861z M245.848,58.7l10.159-22.656L266.159,58.7l24.681,2.653l-18.402,16.653
		l5.099,24.306l-21.53-12.36l-21.537,12.36l5.098-24.306L221.16,61.354L245.848,58.7z M256,491.306
		c-7.23,0-13.088-5.865-13.088-13.095c0-7.223,5.858-13.088,13.088-13.088c7.23,0,13.095,5.865,13.095,13.088
		C269.096,485.44,263.23,491.306,256,491.306z M256,427.153c-7.23,0-13.088-5.865-13.088-13.088c0-7.237,5.858-13.095,13.088-13.095
		c7.23,0,13.095,5.858,13.095,13.095C269.096,421.288,263.23,427.153,256,427.153z M256,374.786l-66.836-11.14
		c2.361-1.311,4.677-2.691,6.87-4.202c1.257-0.874,2.4-1.863,3.572-2.822l53.94,8.986v-37.639l-42.776-7.13
		c0-4.547,0-9.492,0-15.204v-2.76l-1.855-2.062c-10.252-11.432-24.206-26.659-29.037-53.71l-0.728-4.125l-3.934-1.411
		c-2.637-0.935-4.662-1.902-6.433-3.128c-2.622-1.848-4.992-4.386-7.729-9.492c-2.714-5.076-5.566-12.643-8.687-23.6
		c-1.372-4.808-1.87-8.557-1.87-11.363c0.007-3.244,0.628-5.176,1.288-6.418c0.989-1.802,2.224-2.584,3.757-3.197
		c0.23-0.085,0.46-0.146,0.69-0.215l25.148,19.437v-29.78c27.12,5.758,60.58,6.863,74.619,6.863c13.708,0,45.919-1.028,72.67-6.426
		v29.343l25.556-19.759c1.012,0.146,2.522,0.476,3.673,1.242c0.904,0.575,1.648,1.258,2.323,2.492
		c0.652,1.242,1.273,3.166,1.28,6.418c0,2.806-0.491,6.548-1.863,11.363c-4.156,14.622-7.882,23.147-11.332,27.924
		c-1.725,2.407-3.312,3.926-5.084,5.168c-1.772,1.226-3.802,2.193-6.433,3.128l-3.941,1.411l-0.728,4.125
		c-4.823,27.05-18.777,42.278-29.036,53.71l-1.848,2.062v2.76c0,5.712,0,10.658,0,15.204l-42.776,7.13v37.639l53.748-8.956
		c2.768,2.254,5.819,4.263,9.032,6.112c0.552,0.314,1.15,0.559,1.71,0.858L256,374.786z"/>
</g>
</svg>