<?xml version="1.0" encoding="utf-8"?>

<!DOCTYPE svg PUBLIC "-//W3C//DTD SVG 1.1//EN" "http://www.w3.org/Graphics/SVG/1.1/DTD/svg11.dtd">
<!-- Uploaded to: SVG Repo, www.svgrepo.com, Generator: SVG Repo Mixer Tools -->
<svg height="800px" width="800px" version="1.1" id="_x32_" xmlns="http://www.w3.org/2000/svg" xmlns:xlink="http://www.w3.org/1999/xlink" 
	 viewBox="0 0 512 512"  xml:space="preserve">
<style type="text/css">
	.st0{fill:#000000;}
</style>
<g>
	<path class="st0" d="M115.133,189.812c-2.263,8.673-2.833,20.369,0.222,36.418c1.455,7.66,5.887,18.85,11.078,30.205
		c9.006,63.593,63.482,112.545,129.559,112.553c66.077-0.008,120.554-48.945,129.559-112.529c5.207-11.364,9.639-22.57,11.094-30.23
		c3.055-16.049,2.486-27.761,0.222-36.426c5.366-10.85,0.997-22.34-5.966-31.298c10.636-14.941,31.907-49.427,25.908-79.42
		C404.021,15.139,313.998,0,255.992,0C198.003,0,107.979,15.139,95.191,79.087c-5.999,29.992,15.257,64.478,25.908,79.42
		C114.136,167.472,109.752,178.955,115.133,189.812z M243.425,72.661l12.583-28.045l12.567,28.045l30.546,3.284L276.345,96.56
		l6.315,30.087l-26.652-15.304l-26.668,15.304l6.315-30.087l-22.791-20.614L243.425,72.661z M150.205,225.066l15.02,11.61v-21.161
		c33.285,6.821,73.659,8.135,90.768,8.135c17.108,0,57.499-1.314,90.783-8.135v21.161l15.02-11.602
		c0.522,4.123,0.902,8.38,0.902,12.907c-0.016,29.501-11.934,56.098-31.258,75.446c-19.341,19.325-45.946,31.243-75.447,31.251
		c-29.501-0.008-56.091-11.926-75.446-31.251c-19.325-19.348-31.243-45.945-31.243-75.446
		C149.303,233.447,149.667,229.197,150.205,225.066z"/>
	<path class="st0" d="M199.554,249.796c-8.278,4.155-11.364,12.012-11.364,12.012l47.528,3.854
		C226.38,246.757,208.338,245.372,199.554,249.796z"/>
	<path class="st0" d="M312.447,249.796c-8.784-4.424-26.826-3.039-36.164,15.866l47.529-3.854
		C323.811,261.808,320.724,253.951,312.447,249.796z"/>
	<path class="st0" d="M334.525,360.576c-1.424,0.926-2.991,1.828-4.526,2.746c-1.377,0.807-2.69,1.685-4.083,2.445
		c-3.355,1.876-6.9,3.704-10.699,5.413h-0.522c-17.98,7.826-37.763,12.218-58.592,12.218c-20.717,0-40.422-4.439-58.369-12.218
		h-0.728c-1.946-0.878-3.703-1.836-5.54-2.77l-1.266-0.633c-2.454-1.275-4.78-2.557-7.012-3.87
		c-11.332-6.489-21.698-14.434-30.894-23.598c-11.522,12.59-55.442,105.558-40.864,124.993C126.164,484.96,171.587,512,256.103,512
		c84.516,0,129.955-27.04,144.705-46.697c14.545-19.388-29.153-111.943-40.801-124.898
		C352.331,348.058,343.736,354.76,334.525,360.576z M255.992,489.47c-7.921,0-14.355-6.425-14.355-14.354
		c0-7.93,6.434-14.355,14.355-14.355c7.937,0,14.355,6.425,14.355,14.355C270.348,483.045,263.93,489.47,255.992,489.47z
		 M255.992,438.817c-7.921,0-14.355-6.426-14.355-14.355s6.434-14.355,14.355-14.355c7.937,0,14.355,6.426,14.355,14.355
		S263.93,438.817,255.992,438.817z"/>
</g>
</svg>