<?xml version="1.0" encoding="utf-8"?>

<!DOCTYPE svg PUBLIC "-//W3C//DTD SVG 1.1//EN" "http://www.w3.org/Graphics/SVG/1.1/DTD/svg11.dtd">
<!-- Uploaded to: SVG Repo, www.svgrepo.com, Generator: SVG Repo Mixer Tools -->
<svg height="800px" width="800px" version="1.1" id="_x32_" xmlns="http://www.w3.org/2000/svg" xmlns:xlink="http://www.w3.org/1999/xlink" 
	 viewBox="0 0 512 512"  xml:space="preserve">
<style type="text/css">
	.st0{fill:#000000;}
</style>
<g>
	<polygon class="st0" points="264.689,42.168 278.334,16.856 236.169,0 180.344,23.548 187.282,42.168 	"/>
	<path class="st0" d="M189.939,53.788l-0.582,17.466c0,20.724,16.798,37.517,37.522,37.517c20.724,0,37.525-16.793,37.525-37.517
		h12.209L261.49,53.788H189.939z"/>
	<path class="st0" d="M331.668,209.386l-33.002-53.781c-9.665-15.772-22.179-28.08-39.929-28.08h-0.527l-26.526,26.522
		l-26.526-26.522h-11.995c-28.966,0-52.444,24.877-52.444,55.56v159.767h35.453V512h34.313l21.199-154.103L252.883,512h34.314
		V314.502H176.172v-16.2h111.025v-30.691v-40.246l29.03,33.538l55.054-38.395V190.07L331.668,209.386z M216.715,217.455
		c1.491,10.196-12.355,18.256-16.386,18.256c-5.098,0-17.876-8.06-16.385-18.256c1.068-7.293,3.183-5.411,0.494-17.711l15.891-3.227
		l15.895,3.227C213.539,212.044,215.651,210.162,216.715,217.455z"/>
</g>
</svg>