<?xml version="1.0" encoding="utf-8"?>

<!DOCTYPE svg PUBLIC "-//W3C//DTD SVG 1.1//EN" "http://www.w3.org/Graphics/SVG/1.1/DTD/svg11.dtd">
<!-- Uploaded to: SVG Repo, www.svgrepo.com, Generator: SVG Repo Mixer Tools -->
<svg height="800px" width="800px" version="1.1" id="_x32_" xmlns="http://www.w3.org/2000/svg" xmlns:xlink="http://www.w3.org/1999/xlink" 
	 viewBox="0 0 512 512"  xml:space="preserve">
<style type="text/css">
	.st0{fill:#000000;}
</style>
<g>
	<path class="st0" d="M286.191,89.604c23.404,0,42.37-18.973,42.37-42.37c0-23.404-18.966-42.37-42.37-42.37
		c-23.404,0-42.37,18.966-42.37,42.37C243.821,70.632,262.787,89.604,286.191,89.604z"/>
	<path class="st0" d="M341.845,101.568h-77.645c-21.192,0-41.11-10.035-53.718-27.043l-49.68-67.011
		c-6.113-8.246-17.754-9.967-26-3.854c-8.247,6.112-9.982,17.753-3.87,25.999l96.028,131.28c4.192,5.728,6.45,12.639,6.45,19.734
		v306.91c0,13.483,10.935,24.417,24.418,24.417c13.483,0,24.418-10.934,24.418-24.417V303.144h7.894v184.439
		c0,13.483,10.934,24.417,24.417,24.417c13.484,0,24.418-10.934,24.418-24.417v-317.83h8.57v117.082
		c0,10.266,8.323,18.582,18.597,18.582c10.258,0,18.582-8.316,18.582-18.582V144.43
		C384.722,123.905,362.378,101.568,341.845,101.568z"/>
</g>
</svg>