<?xml version="1.0" encoding="utf-8"?>

<!DOCTYPE svg PUBLIC "-//W3C//DTD SVG 1.1//EN" "http://www.w3.org/Graphics/SVG/1.1/DTD/svg11.dtd">
<!-- Uploaded to: SVG Repo, www.svgrepo.com, Generator: SVG Repo Mixer Tools -->
<svg height="800px" width="800px" version="1.1" id="_x32_" xmlns="http://www.w3.org/2000/svg" xmlns:xlink="http://www.w3.org/1999/xlink" 
	 viewBox="0 0 512 512"  xml:space="preserve">
<style type="text/css">
	.st0{fill:#000000;}
</style>
<g>
	<polygon class="st0" points="225.118,42.168 238.762,16.856 196.598,0 140.772,23.548 147.71,42.168 	"/>
	<path class="st0" d="M150.368,53.788l-0.581,17.466c0,20.724,16.797,37.517,37.521,37.517s37.525-16.793,37.525-37.517h12.209
		l-15.124-17.466H150.368z"/>
	<path class="st0" d="M259.095,155.606c-9.666-15.772-22.18-28.08-39.93-28.08h-0.526l-26.526,26.522l-26.526-26.522h-11.996
		c-28.966,0-52.444,24.877-52.444,55.56v159.767H136.6V512h34.314l21.199-154.103L213.312,512h34.314V314.502H136.6v-16.2h111.025
		v-30.691v-40.246l29.03,33.538l55.054-38.395V190.07l-39.614,19.316L259.095,155.606z M177.143,217.455
		c1.491,10.196-12.356,18.256-16.386,18.256c-5.098,0-17.877-8.06-16.386-18.256c1.068-7.293,3.184-5.411,0.494-17.711l15.891-3.227
		l15.895,3.227C173.967,212.044,176.079,210.162,177.143,217.455z"/>
	<path class="st0" d="M383.168,173.372l-0.407-0.008c-15.358,0.008-27.89,12.324-28.12,27.692h-0.003v0.42
		c0,14.286,10.71,26.104,24.607,27.828c-0.036,0.205-0.122,0.395-0.122,0.616v3.623c0,2.009,1.622,3.623,3.627,3.623
		c2.005,0,3.626-1.614,3.626-3.623v-3.623c0-0.221-0.091-0.427-0.13-0.641c13.732-1.708,24.43-13.296,24.608-27.503v-0.055v-0.293
		C410.853,186.091,398.537,173.593,383.168,173.372z M401.788,201.666c-0.118,10.418-8.634,18.802-19.055,18.795h-0.217
		c-10.446-0.119-18.818-8.606-18.818-18.985v-0.182l0.012-0.024v-0.04c0.114-10.417,8.63-18.802,19.051-18.802h0.142l0.044,0.008
		h0.036c10.437,0.111,18.814,8.606,18.806,18.992V201.666z"/>
	<path class="st0" d="M386.272,270.31c0.02-0.167,0.103-0.325,0.103-0.499v-3.622c0-2.01-1.622-3.631-3.626-3.631
		c-2.006,0-3.627,1.622-3.627,3.631v3.622c0,0.182,0.076,0.34,0.099,0.506c-13.692,1.733-24.375,13.273-24.58,27.448h-0.003v0.427
		c0,6.953,2.55,13.313,6.762,18.217l-3.789,4.128l6.692,6.131l4.042-4.414c4.117,2.461,8.915,3.924,14.061,3.987h0.055h0.277
		c6.379,0,12.304-2.143,17.026-5.743l-5.49-7.214c-3.216,2.444-7.19,3.884-11.536,3.884h-0.221
		c-10.446-0.111-18.818-8.598-18.818-18.976v-0.182l0.012-0.024v-0.047c0.114-10.417,8.63-18.802,19.051-18.794h0.142h0.044h0.036
		c10.437,0.11,18.814,8.606,18.806,18.992v0.292h9.065v-0.292C410.853,283.851,400.166,272.041,386.272,270.31z"/>
	<path class="st0" d="M382.749,256.751c2.005,0,3.626-1.622,3.626-3.622v-6.534c0-2.002-1.622-3.622-3.626-3.622
		c-2.006,0-3.627,1.621-3.627,3.622v6.534C379.122,255.13,380.743,256.751,382.749,256.751z"/>
</g>
</svg>