<?xml version="1.0" encoding="utf-8"?>

<!DOCTYPE svg PUBLIC "-//W3C//DTD SVG 1.1//EN" "http://www.w3.org/Graphics/SVG/1.1/DTD/svg11.dtd">
<!-- Uploaded to: SVG Repo, www.svgrepo.com, Generator: SVG Repo Mixer Tools -->
<svg version="1.1" id="_x32_" xmlns="http://www.w3.org/2000/svg" xmlns:xlink="http://www.w3.org/1999/xlink" 
	 width="800px" height="800px" viewBox="0 0 512 512"  xml:space="preserve">
<style type="text/css">
<![CDATA[
	.st0{fill:#000000;}
]]>
</style>
<g>
	<path class="st0" d="M373.328,428.609c2.234,0,4.031-1.797,4.031-4.016c0-2.234-1.797-4.031-4.031-4.031
		c-2.219,0-4.031,1.797-4.031,4.031v0.031l-12.328,0.109l-6.078-10.766c1.219-0.688,2.047-1.969,2.047-3.484
		c0-2.219-1.797-4.031-4.031-4.031c-2.219,0-4.031,1.813-4.031,4.031c0,1.516,0.844,2.797,2.063,3.484l-6.078,10.766l-12.344-0.109
		v-0.031c0-2.234-1.797-4.031-4.031-4.031c-2.219,0-4.031,1.797-4.031,4.031c0,2.219,1.813,4.016,4.031,4.016
		c0.75,0,1.438-0.203,2.047-0.578l6.266,10.656l-6.266,10.641c-0.609-0.359-1.297-0.578-2.047-0.578
		c-2.219,0-4.031,1.813-4.031,4.031s1.813,4.031,4.031,4.031c2.234,0,4.031-1.813,4.031-4.031v-0.031l12.344-0.109l6.078,10.75
		c-1.219,0.688-2.063,1.984-2.063,3.484c0,2.234,1.813,4.031,4.031,4.031c2.234,0,4.031-1.797,4.031-4.031
		c0-1.5-0.828-2.797-2.047-3.484l6.078-10.75l12.328,0.109v0.031c0,2.219,1.813,4.031,4.031,4.031c2.234,0,4.031-1.813,4.031-4.031
		s-1.797-4.031-4.031-4.031c-0.75,0-1.438,0.219-2.047,0.578l-6.266-10.641l6.266-10.656
		C371.891,428.406,372.578,428.609,373.328,428.609z"/>
	<path class="st0" d="M462.25,429.5c-1.828-23.094-10.625-42.406-22.484-58.094c-17.813-23.547-42.313-39.297-62.047-50.328
		c-9.844-5.484-18.563-9.813-24.484-13.078c19.078-22.328,30.625-51.281,30.625-82.969v-45.266h-2.375
		c0.609-0.813,1.234-1.609,1.797-2.469H256H128.719c0.484,0.859,1.063,1.656,1.609,2.469h-2.188v45.266
		c0,31.688,11.547,60.641,30.609,82.969c-1.344,0.75-2.781,1.531-4.406,2.375c-7.328,3.875-17.141,8.844-27.797,15.141
		c-15.969,9.453-33.906,21.938-48.594,38.859c-7.344,8.438-13.875,18.031-18.828,28.875c-4.953,10.828-8.313,22.922-9.375,36.25
		l-0.031,0.328v0.344c-0.016,8.859,2.906,17.125,7.766,24.125c4.234,6.172,9.859,11.469,16.406,16.172
		c11.453,8.219,25.813,14.688,41.625,20.031c23.703,7.969,50.75,13.281,75.922,16.688C216.625,510.563,239.844,512,256,512
		c28.094-0.031,77.828-4.281,121.516-15.844c21.859-5.813,42.156-13.375,57.734-23.703c7.781-5.188,14.422-11.109,19.281-18.156
		c4.844-7,7.766-15.266,7.75-24.125v-0.344L462.25,429.5z M145.188,225.031v-30.797C182.891,219.828,256,218.219,256,218.219
		s70.844,5.016,110.813-24.109v30.922c0,30.625-12.391,58.281-32.453,78.344c-20.078,20.078-47.734,32.469-78.359,32.469
		s-58.281-12.391-78.359-32.469C157.578,283.313,145.188,255.656,145.188,225.031z M440.469,444.641
		c-2.797,4.078-6.953,8.141-12.313,11.984c-9.344,6.75-22.328,12.75-37.109,17.719c-22.172,7.453-48.344,12.672-72.766,15.938
		c-13.375,1.813-26.172,3.031-37.563,3.766l-9.141-82.234l14.469-11.25l-14.469-24.125h-13.875h-13.875l-14.469,24.125l14.469,11.25
		l-9.156,82.438c-27.203-1.578-63.75-6.047-95.828-14.563c-20.766-5.5-39.656-12.75-52.641-21.422
		c-6.5-4.328-11.484-8.953-14.672-13.625c-3.141-4.609-4.656-9.109-4.734-14.203c1.641-19.344,8.844-35.203,19.047-48.75
		c15.391-20.438,37.844-35.219,56.734-45.719c9.469-5.281,17.969-9.484,24.453-13.063c1.453-0.797,2.797-1.563,4.047-2.313
		c22.578,20.063,52.313,32.297,84.922,32.297s62.328-12.234,84.922-32.297c2.547,1.531,5.469,3.109,8.781,4.859
		c7.516,3.984,16.984,8.766,27.063,14.734c15.109,8.938,31.531,20.5,44.422,35.344c6.422,7.438,12,15.656,16.172,24.813
		c4.141,9.031,6.906,18.969,7.844,30.125C445.141,435.531,443.609,440.031,440.469,444.641z"/>
	<path class="st0" d="M85.359,116.438l43.344,28.781v16.156H256h127.297v-16.156l43.344-28.781
		c4.359-2.875,7.219-7.344,7.906-12.266s-0.875-9.906-4.328-13.734c0,0-24.25-34.438-49.203-54.656C362.828,21.047,290.328,0,256,0
		S149.156,21.047,130.984,35.781C106.031,56,81.781,90.438,81.781,90.438c-3.438,3.828-5.016,8.813-4.328,13.734
		S81,113.563,85.359,116.438z M228.547,99.297c7.406-14.266,0.234-17.672,0.234-17.672l6.141-9.797c0,0,8.359,8.75,18.953-0.516
		c10.578,9.266,18.953,0.516,18.953,0.516l6.125,9.797c0,0-7.172,3.406,0.234,17.672c5.156,9.938,1.859,18.828-8.641,23.969
		c-9.328,4.563-16.672,8.563-16.672,8.563s-7.359-4-16.688-8.563C226.703,118.125,223.391,109.234,228.547,99.297z"/>
	<rect x="135.016" y="433" class="st0" width="61.391" height="11.938"/>
</g>
</svg>