<?xml version="1.0" encoding="utf-8"?>

<!DOCTYPE svg PUBLIC "-//W3C//DTD SVG 1.1//EN" "http://www.w3.org/Graphics/SVG/1.1/DTD/svg11.dtd">
<!-- Uploaded to: SVG Repo, www.svgrepo.com, Generator: SVG Repo Mixer Tools -->
<svg height="800px" width="800px" version="1.1" id="_x32_" xmlns="http://www.w3.org/2000/svg" xmlns:xlink="http://www.w3.org/1999/xlink" 
	 viewBox="0 0 512 512"  xml:space="preserve">
<style type="text/css">
	.st0{fill:#000000;}
</style>
<g>
	<polygon class="st0" points="294.372,42.341 308.071,16.925 265.736,0 209.683,23.644 216.648,42.341 	"/>
	<path class="st0" d="M219.317,54.007l-0.584,17.537c0,20.809,16.865,37.67,37.674,37.67c20.809,0,37.678-16.861,37.678-37.67
		h12.259l-15.185-17.537H219.317z"/>
	<path class="st0" d="M294.51,125.957h-11.989l-26.519,26.63l-26.515-26.63h-11.994c-28.953,0-52.423,24.979-52.423,55.787v160.418
		h35.439V512h34.302l21.19-154.732L277.192,512h34.302V342.162h35.435V181.744C346.93,150.936,323.464,125.957,294.51,125.957z
		 M303.728,216.253c1.489,10.238-11.282,18.331-16.381,18.331c-4.027,0-17.87-8.093-16.377-18.331
		c1.068-7.323,3.173-5.433,0.493-17.783l15.884-3.24l15.892,3.24C300.55,210.82,302.663,208.93,303.728,216.253z M311.494,297.431
		v16.266h-55.492H200.51v-16.266h55.492H311.494z"/>
</g>
</svg>