<?xml version="1.0" encoding="utf-8"?>

<!DOCTYPE svg PUBLIC "-//W3C//DTD SVG 1.1//EN" "http://www.w3.org/Graphics/SVG/1.1/DTD/svg11.dtd">
<!-- Uploaded to: SVG Repo, www.svgrepo.com, Generator: SVG Repo Mixer Tools -->
<svg height="800px" width="800px" version="1.1" id="_x32_" xmlns="http://www.w3.org/2000/svg" xmlns:xlink="http://www.w3.org/1999/xlink" 
	 viewBox="0 0 512 512"  xml:space="preserve">
<style type="text/css">
	.st0{fill:#000000;}
</style>
<g>
	<path class="st0" d="M442.481,401.92c-12.587-18.85-31.718-29.274-49.695-36.057c-9.018-3.39-17.829-5.893-25.588-8.011
		c-7.76-2.118-14.497-3.894-19.028-5.598c-4.709-1.754-9.521-3.834-13.934-6.086v-23.692h-16.347c0-5.864,0-12.72,0-20.857
		c10.128-11.29,24.699-28.749,30.681-56.469c2.088-0.933,4.146-1.999,6.146-3.391c4.961-3.421,9.166-8.381,12.72-15.134
		c3.584-6.782,6.768-15.46,10.159-27.32c1.717-6.026,2.517-11.239,2.517-15.904c0-5.36-1.095-10.01-3.124-13.793
		c-0.977-1.836-2.176-3.317-3.435-4.658c3.702-23.914,14.023-109.31-22.241-139.54c-42.365-35.294-94.118-23.53-94.118-23.53
		s-51.768-11.765-94.118,23.53c-35.39,29.497-26.432,111.524-22.522,137.704c-2.058,1.688-4.042,3.716-5.523,6.5
		c-2.014,3.776-3.124,8.425-3.124,13.793c0.015,4.658,0.8,9.877,2.518,15.896c4.53,15.8,8.632,25.995,13.933,33.48
		c2.651,3.724,5.656,6.708,8.944,8.974c1.999,1.392,4.058,2.458,6.146,3.391c5.982,27.72,20.553,45.178,30.682,56.469
		c0,8.137,0,14.993,0,20.857h-15.178v23.1c-4.857,2.628-10.188,4.946-14.956,6.634c-6.19,2.191-16.155,4.464-27.305,7.662
		c-16.777,4.85-36.604,11.846-52.73,25.669c-8.056,6.916-15.134,15.608-20.094,26.403c-4.975,10.78-7.834,23.603-7.834,38.604
		c0,3.479,0.163,7.093,0.474,10.809c0.222,2.606,1.214,4.732,2.384,6.486c2.221,3.25,5.168,5.672,8.854,8.167
		c6.456,4.272,15.4,8.448,26.862,12.549c34.294,12.231,91.053,23.426,161.404,23.44c57.157,0,105.401-7.418,139.828-16.732
		c17.222-4.679,30.978-9.795,40.914-14.896c4.976-2.577,9.003-5.109,12.202-7.9c1.599-1.399,2.991-2.88,4.176-4.628
		c1.155-1.754,2.162-3.88,2.384-6.486c0.311-3.716,0.46-7.315,0.46-10.78C456.001,430.588,450.862,414.47,442.481,401.92z
		 M271.008,352.469h-30.001v-29.993h-31.362c0-6.596,0-14.29,0-23.826v-2.991l-1.984-2.206
		c-10.588-11.802-24.936-27.454-29.897-55.278l-0.785-4.442l-4.249-1.518c-2.71-0.97-4.768-1.947-6.56-3.199
		c-2.651-1.872-5.064-4.434-7.878-9.676c-2.784-5.212-5.716-13.002-8.944-24.3c-1.406-4.938-1.91-8.781-1.91-11.632
		c0-3.317,0.637-5.249,1.289-6.478c0.977-1.777,2.176-2.532,3.702-3.146c1.051-0.407,2.147-0.556,2.783-0.6l8.559,1.821v-9.595
		c0,0,0-6.234,0-14.482c5.538-12.72,14.704-19.709,10.78-26.698c-0.355-0.636-0.725-9.61-1.081-10.409
		c15.474-29.586,35.213-27.232,78.688-27.232l4.028-48.702c0.696,0,1.333,0.044,1.999,0.059l4.028,48.643
		c42.498,0,66.146-0.584,77.133,25.291c-0.606,1.607-1.229,11.24-1.865,12.35c-3.924,6.975,5.212,13.957,10.765,26.661
		c0,8.271,0,14.52,0,14.52v8.648l8.248-0.889c0.622,0,2.946,0.267,4.516,1.318c0.888,0.577,1.614,1.229,2.28,2.443
		c0.652,1.229,1.273,3.162,1.288,6.471c0,2.858-0.504,6.701-1.911,11.639c-4.279,15.081-8.129,23.856-11.654,28.728
		c-1.762,2.458-3.376,3.982-5.167,5.248c-1.792,1.252-3.85,2.229-6.56,3.199l-4.25,1.503l-0.785,4.457
		c-4.96,27.824-19.309,43.476-29.897,55.278l-1.984,2.206v2.991c0,9.536,0,17.229,0,23.826h-31.362V352.469z M398.28,478.431
		c-8.856,2.606-18.88,5.124-29.971,7.375c-26.773,5.478-59.69,9.58-97.006,10.476v-92.304c0-5.049,4.102-9.151,9.152-9.151h108.674
		c5.05,0,9.151,4.102,9.151,9.151V478.431z"/>
	<polygon class="st0" points="342.055,417.972 327.529,417.972 327.529,435.718 309.775,435.718 309.775,450.252 327.529,450.252 
		327.529,487.375 342.055,487.375 342.055,450.252 359.81,450.252 359.81,435.718 342.055,435.718 	"/>
	<path class="st0" d="M328.713,183.062c0-17.414-14.111-31.526-31.54-31.54c-13.593,0.014-25.069,8.655-29.497,20.716h-23.352
		c-4.412-12.061-15.903-20.702-29.497-20.716c-17.414,0.014-31.526,14.126-31.526,31.54c0,17.414,14.112,31.526,31.526,31.526
		c17.251,0,31.215-13.867,31.482-31.052h19.398c0.252,17.184,14.216,31.052,31.466,31.052
		C314.602,214.587,328.713,200.476,328.713,183.062z M214.827,203.297c-11.165-0.023-20.212-9.07-20.227-20.235
		c0.014-11.172,9.062-20.212,20.227-20.242c11.18,0.03,20.212,9.07,20.242,20.242C235.039,194.227,226.007,203.274,214.827,203.297z
		 M297.173,203.297c-11.165-0.023-20.212-9.07-20.227-20.235c0.015-11.172,9.062-20.212,20.227-20.242
		c11.18,0.03,20.228,9.07,20.243,20.242C317.4,194.227,308.353,203.274,297.173,203.297z"/>
</g>
</svg>