<?xml version="1.0" encoding="utf-8"?>

<!DOCTYPE svg PUBLIC "-//W3C//DTD SVG 1.1//EN" "http://www.w3.org/Graphics/SVG/1.1/DTD/svg11.dtd">
<!-- Uploaded to: SVG Repo, www.svgrepo.com, Generator: SVG Repo Mixer Tools -->
<svg height="800px" width="800px" version="1.1" id="_x32_" xmlns="http://www.w3.org/2000/svg" xmlns:xlink="http://www.w3.org/1999/xlink" 
	 viewBox="0 0 512 512"  xml:space="preserve">
<style type="text/css">
	.st0{fill:#000000;}
</style>
<g>
	<path class="st0" d="M301.139,377.814c-11.568,11.544-27.497,18.669-45.136,18.685c-17.639-0.016-33.567-7.142-45.136-18.685
		c-3.172-3.156-8.296-3.156-11.435,0c-3.156,3.139-3.156,8.238,0.008,11.41c14.433,14.451,34.506,23.436,56.563,23.436
		c22.049,0,42.105-8.985,56.546-23.436c3.173-3.172,3.173-8.271,0-11.41C309.411,374.658,304.313,374.658,301.139,377.814z"/>
	<path class="st0" d="M210.453,298.96c0-8.636-7.009-15.612-15.613-15.612c-8.637,0-15.629,6.976-15.629,15.612
		c0,8.645,6.992,15.621,15.629,15.621C203.444,314.582,210.453,307.606,210.453,298.96z"/>
	<path class="st0" d="M317.185,283.348c-8.638,0-15.614,6.976-15.614,15.612c0,8.645,6.976,15.621,15.614,15.621
		c8.636,0,15.621-6.976,15.621-15.621C332.806,290.324,325.821,283.348,317.185,283.348z"/>
	<polygon class="st0" points="256.004,319.498 236.281,359.876 275.719,359.876 	"/>
	<path class="st0" d="M490.47,357.766l-44.82-57.261l34.847-14.94l-56.879-68.455v-3.297V56.904l-91.866,36.566L256.004,0
		l-75.755,93.469l-91.85-36.548v156.892v3.272l-56.895,68.48l34.854,14.94L21.53,357.766l47.336,10.065l-34.872,59.678
		c0,0,37.338,12.383,74.078-4.384C136.259,475.974,191.9,512,256.004,512s119.746-36.026,147.948-88.876
		c36.706,16.767,74.044,4.384,74.044,4.384l-34.863-59.678L490.47,357.766z M391.295,344.396c0,37.421-15.114,71.155-39.613,95.67
		c-24.54,24.515-58.266,39.621-95.678,39.63c-37.396-0.009-71.129-15.114-95.67-39.63c-24.498-24.515-39.622-58.249-39.638-95.67
		v-60.89c40.477,0.399,68.323-35.328,81.785-57.75h107.03c13.47,22.422,41.316,58.149,81.784,57.75V344.396z M391.295,195.468
		h-270.6V104.54l69.684,27.738l65.624-80.971l65.599,80.938l69.693-27.704V195.468z"/>
</g>
</svg>