<?xml version="1.0" encoding="utf-8"?>

<!DOCTYPE svg PUBLIC "-//W3C//DTD SVG 1.1//EN" "http://www.w3.org/Graphics/SVG/1.1/DTD/svg11.dtd">
<!-- Uploaded to: SVG Repo, www.svgrepo.com, Generator: SVG Repo Mixer Tools -->
<svg height="800px" width="800px" version="1.1" id="_x32_" xmlns="http://www.w3.org/2000/svg" xmlns:xlink="http://www.w3.org/1999/xlink" 
	 viewBox="0 0 512 512"  xml:space="preserve">
<style type="text/css">
	.st0{fill:#000000;}
</style>
<g>
	<path class="st0" d="M415.998,417.567c-10.81-16.189-27.219-25.133-42.644-30.954c-7.731-2.91-15.294-5.055-21.958-6.878
		c-6.643-1.808-12.427-3.337-16.315-4.791c-6.79-2.536-13.977-5.798-18.989-9.318c-2.506-1.742-4.424-3.542-5.548-5.07
		c-1.124-1.573-1.44-2.654-1.448-3.602c0-6.533,0-14.705,0-25.456c8.694-9.678,21.194-24.677,26.323-48.443
		c1.793-0.808,3.565-1.72,5.277-2.91c4.248-2.932,7.856-7.202,10.913-12.993c3.087-5.82,5.806-13.265,8.716-23.442
		c0.735-2.565,1.264-4.968,1.617-7.217c22.458-19.974,63.398-67.044,63.398-67.044l-51.016,10.421l46.297-74.73l-62.362,19.989
		l33.07-71.254l-67.08,38.229l7.554-79.066l-50.869,60.818L256,0l-24.927,73.855l-50.868-60.818l7.547,79.066l-67.073-38.229
		l33.069,71.254l-62.362-19.989l46.298,74.73l-51.023-10.421c0,0,40.948,47.07,63.398,67.044c0.353,2.249,0.89,4.652,1.624,7.217
		c3.888,13.559,7.4,22.311,11.949,28.734c2.278,3.189,4.865,5.746,7.68,7.702c1.713,1.19,3.483,2.102,5.276,2.91
		c5.129,23.766,17.615,38.758,26.317,48.429c0,10.766,0,18.93,0,25.471c0,0.809-0.316,1.97-1.566,3.623
		c-1.83,2.462-5.614,5.431-10.12,7.966c-4.49,2.557-9.649,4.769-14.176,6.349c-5.299,1.889-13.845,3.844-23.421,6.592
		c-14.389,4.159-31.401,10.156-45.239,22.025c-6.908,5.93-12.978,13.382-17.248,22.649c-4.27,9.252-6.717,20.253-6.71,33.129
		c0,2.984,0.132,6.07,0.397,9.259c0.198,2.25,1.051,4.064,2.042,5.564c1.911,2.8,4.439,4.879,7.606,7.01
		c5.541,3.667,13.213,7.254,23.046,10.774C146.937,502.387,195.652,511.985,256,512c49.039-0.008,90.427-6.372,119.977-14.36
		c14.779-4.005,26.573-8.392,35.105-12.772c4.27-2.212,7.724-4.395,10.464-6.783c1.368-1.205,2.572-2.469,3.579-3.976
		c0.999-1.499,1.852-3.314,2.05-5.564c0.265-3.189,0.397-6.261,0.397-9.237C427.595,442.149,423.186,428.318,415.998,417.567z
		 M188.869,277.057l-0.676-3.806l-3.645-1.308c-2.315-0.823-4.086-1.668-5.629-2.741c-2.279-1.61-4.351-3.8-6.754-8.297
		c-2.381-4.483-4.908-11.156-7.672-20.848c-0.47-1.632-0.794-3.087-1.044-4.447c0.059-8.01,4.108-12.125,7.547-14.168l5.864,0.72
		v-0.941l20.341,29.035l0.228-75.597L256,185.954l58.578-11.295l0.221,75.597l20.341-29.028v0.558l5.74-0.418
		c3.462,2.02,7.613,6.128,7.672,14.227c-0.25,1.366-0.573,2.822-1.036,4.461c-3.675,12.941-6.967,20.466-9.995,24.64
		c-1.513,2.102-2.895,3.424-4.431,4.505c-1.543,1.073-3.315,1.918-5.63,2.741l-3.652,1.308l-0.669,3.806
		c-4.262,23.884-16.564,37.311-25.655,47.43l-1.712,1.896v2.558c0,12.118,0,20.944,0,28.014c-0.008,4.394,1.704,8.341,4.049,11.494
		c2.307,3.101,5.246,5.658,8.48,7.922c-10.361,15.682-29.755,26.574-52.302,26.559c-22.546,0.015-41.954-10.891-52.308-26.588
		c3.101-2.234,5.967-4.711,8.26-7.709c2.418-3.175,4.278-7.136,4.278-11.678c0-7.069,0-15.896,0-28.014v-2.558l-1.713-1.896
		C205.433,314.368,193.131,300.942,188.869,277.057z M107.025,473.022c-3.631-1.867-6.305-3.645-7.782-4.946
		c-0.632-0.558-0.985-0.97-1.161-1.212c-0.213-2.631-0.331-5.174-0.331-7.576c0.03-14.955,3.682-25.876,9.334-34.444
		c8.451-12.802,22.016-20.636,36.186-25.971c3.652-1.367,7.312-2.572,10.906-3.66c0.147,2.646,0.33,5.328,0.33,7.886
		c0,20.224-4.328,37.406-10.164,50.817c-5.474,12.611-12.353,21.834-17.902,26.948C118.445,478.21,111.868,475.52,107.025,473.022z
		 M352.365,489.527c-26.067,5.335-58.916,9.157-96.366,9.149c-47.862,0.008-88.237-6.246-116.486-13.896
		c-0.896-0.25-1.749-0.493-2.624-0.735c5.666-6.313,11.464-15.124,16.337-26.264c6.342-14.574,10.972-33.07,10.972-54.683
		c0-3.446-0.206-7.004-0.448-10.597c0.089-0.023,0.184-0.052,0.272-0.074c6.57-1.764,12.508-3.226,17.453-4.96
		c4.38-1.558,9.194-3.601,13.875-6.062c12.25,18.79,34.87,31.202,60.649,31.21c25.824-0.008,48.459-12.449,60.702-31.284
		c4.512,2.33,9.201,4.402,13.705,6.092c5.041,1.866,11.141,3.439,17.829,5.269c-0.236,3.527-0.441,7.032-0.441,10.406
		c0,21.612,4.637,40.109,10.979,54.683c4.864,11.133,10.656,19.944,16.321,26.25C368.231,485.963,360.677,487.836,352.365,489.527z
		 M413.919,466.841l-0.574,0.683c-0.978,0.992-2.961,2.484-5.747,4.071c-4.99,2.888-12.485,6.1-22.031,9.267
		c-5.556-5.115-12.434-14.338-17.909-26.948c-5.835-13.411-10.17-30.593-10.17-50.817c0-2.484,0.184-5.078,0.315-7.658
		c12.89,3.909,26.64,9.348,37.104,18.328c5.673,4.858,10.435,10.692,13.846,18.042c3.402,7.364,5.489,16.292,5.496,27.499
		C414.249,461.697,414.125,464.232,413.919,466.841z"/>
</g>
</svg>