<?xml version="1.0" encoding="utf-8"?>

<!DOCTYPE svg PUBLIC "-//W3C//DTD SVG 1.1//EN" "http://www.w3.org/Graphics/SVG/1.1/DTD/svg11.dtd">
<!-- Uploaded to: SVG Repo, www.svgrepo.com, Generator: SVG Repo Mixer Tools -->
<svg height="800px" width="800px" version="1.1" id="_x32_" xmlns="http://www.w3.org/2000/svg" xmlns:xlink="http://www.w3.org/1999/xlink" 
	 viewBox="0 0 512 512"  xml:space="preserve">
<style type="text/css">
	.st0{fill:#000000;}
</style>
<g>
	<path class="st0" d="M446.859,399.346c-12.89-19.304-32.469-29.978-50.87-36.914c-9.228-3.471-18.245-6.032-26.19-8.205
		c-7.93-2.159-14.83-3.98-19.466-5.722c-8.107-3.02-16.672-6.914-22.648-11.112c-2.984-2.082-5.284-4.226-6.618-6.054
		c-1.347-1.87-1.714-3.161-1.728-4.29c0-7.796,0-17.546,0-30.373c10.371-11.543,25.272-29.429,31.396-57.784
		c2.138-0.966,4.254-2.053,6.294-3.471c5.072-3.5,9.376-8.586,13.024-15.501c3.669-6.942,6.921-15.818,10.393-27.96
		c1.756-6.159,2.568-11.507,2.568-16.27c0.007-5.489-1.121-10.252-3.196-14.118c-3.112-5.864-8.156-9.123-12.242-10.604
		c-0.451-0.169-0.846-0.254-1.276-0.395c0-6.674,0-17.307,0-27.015c-0.007-1.306-0.071-2.823-0.127-4.326
		c13.702-71.76-54.045-147.218-156.206-108.907c-2.957,4.064-5.172,7.93-6.992,11.684c-1.644,0.804-3.274,1.623-4.832,2.498
		c-22.698,12.728-35.891,32.554-43.243,51.364c-7.373,18.873-9.179,36.872-9.193,47.688c0,9.715,0,20.362,0,27.036
		c-1.75,0.558-3.606,1.277-5.581,2.477c-2.921,1.806-5.878,4.628-7.937,8.502c-2.074,3.866-3.211,8.628-3.204,14.118
		c0,4.769,0.819,10.118,2.576,16.27c4.642,16.171,8.833,26.613,14.259,34.276c2.709,3.802,5.799,6.858,9.158,9.186
		c2.039,1.418,4.156,2.504,6.294,3.471c6.124,28.356,21.025,46.241,31.396,57.784c0,12.827,0,22.577,0,30.373
		c0,0.96-0.381,2.342-1.877,4.318c-2.173,2.936-6.696,6.484-12.065,9.504c-5.355,3.048-11.514,5.687-16.905,7.578
		c-6.328,2.25-16.524,4.586-27.946,7.86c-17.166,4.96-37.458,12.114-53.968,26.274c-8.24,7.069-15.479,15.966-20.566,27.014
		c-5.101,11.042-8.015,24.166-8.008,39.518c0,3.562,0.155,7.246,0.48,11.049c0.233,2.681,1.248,4.847,2.441,6.632
		c2.272,3.344,5.284,5.821,9.059,8.368c6.61,4.375,15.769,8.65,27.494,12.848c35.094,12.516,93.196,23.967,165.196,23.988
		c58.496-0.007,107.87-7.599,143.112-17.13c17.631-4.776,31.706-10.012,41.88-15.24c5.094-2.631,9.215-5.235,12.482-8.085
		c1.636-1.44,3.069-2.949,4.276-4.749c1.185-1.784,2.208-3.95,2.441-6.632c0.317-3.803,0.472-7.472,0.472-11.021
		C460.695,428.676,455.439,412.18,446.859,399.346z M175.918,231.746l-0.804-4.551l-4.346-1.552
		c-2.766-0.988-4.875-1.996-6.717-3.274c-2.716-1.919-5.178-4.536-8.057-9.898c-2.844-5.342-5.856-13.307-9.151-24.87
		c-1.446-5.052-1.962-8.988-1.962-11.91c0.007-3.387,0.656-5.362,1.319-6.618c1.002-1.821,2.23-2.597,3.789-3.218
		c1.298-0.501,2.646-0.62,3.154-0.642l8.452,1.044v-8.988c0,0,0-18.062,0-33.71c-0.049-12.114,3.006-37.168,16.206-58.095
		c5.094-8.114,11.677-15.627,20.157-21.879c2.667,53.621,121.17,78.386,105.93,154.584c20.842-11.317,36.074-25.498,46.524-41.013
		c0,0.042,0,0.113,0,0.113v8.537l8.282-0.6c0.395-0.028,3.063,0.212,4.777,1.362c0.91,0.579,1.651,1.256,2.328,2.505
		c0.663,1.256,1.313,3.231,1.32,6.618c0.007,2.928-0.515,6.858-1.955,11.91c-4.381,15.437-8.311,24.412-11.916,29.393
		c-1.806,2.512-3.457,4.092-5.292,5.376c-1.842,1.277-3.951,2.286-6.717,3.274l-4.346,1.552l-0.805,4.551
		c-5.087,28.482-19.762,44.498-30.599,56.57l-2.039,2.265v3.055c0,14.45,0,24.983,0,33.414c-0.014,5.242,2.024,9.948,4.812,13.708
		c1.481,1.99,3.224,3.74,5.058,5.405c-8.967,22.443-30.91,38.332-56.549,38.318c-26.105,0.014-48.336-16.467-56.994-39.545
		c1.292-1.264,2.583-2.526,3.676-3.958c2.886-3.788,5.102-8.516,5.102-13.927c0-8.431,0-18.965,0-33.414v-3.055l-2.039-2.265
		C195.68,276.243,181.004,260.228,175.918,231.746z M101.568,474.889c-9.595-3.168-17.476-6.4-23.283-9.391
		c-4.332-2.223-7.514-4.346-9.278-5.899c-0.755-0.663-1.178-1.157-1.39-1.446c-0.24-3.132-0.388-6.167-0.388-9.038
		c0.028-17.836,4.388-30.868,11.126-41.084c10.082-15.275,26.267-24.617,43.179-30.98c0.853-0.325,1.7-0.558,2.554-0.861
		c4.134,10.329,6.286,21.244,6.286,32.173c-0.007,24.228-10.054,48.28-29.738,65.46L101.568,474.889z M370.95,485.196
		c-31.093,6.357-70.279,10.915-114.946,10.908c-57.099,0.007-105.26-7.451-138.956-16.58c-0.974-0.262-1.891-0.53-2.844-0.798
		c19.226-19.282,29.181-44.746,29.174-70.363c0-12.277-2.385-24.553-6.936-36.215c3.344-0.981,6.675-1.94,9.842-2.787
		c7.832-2.102,14.916-3.852,20.814-5.919c6.956-2.462,14.83-5.934,21.985-10.322c11.394,26.098,37.386,44.357,67.689,44.364
		c30-0.007,55.766-17.906,67.344-43.588c0.219,0.127,0.423,0.268,0.642,0.395c6.406,3.64,13.412,6.631,20.002,9.101
		c7.874,2.921,17.914,5.221,28.878,8.425c1.891,0.543,3.803,1.121,5.729,1.721c-4.205,11.254-6.413,23.036-6.413,34.826
		c-0.007,25.188,9.602,50.242,28.2,69.411C392.201,480.392,382.111,482.925,370.95,485.196z M444.383,458.132l-0.684,0.812
		c-1.171,1.185-3.535,2.971-6.858,4.861c-5.122,2.956-12.53,6.209-21.716,9.454c-19.283-17.145-29.153-40.922-29.167-64.896
		c0-10.364,1.961-20.708,5.679-30.564c10.809,4.176,21.392,9.567,30.063,17.018c6.773,5.799,12.446,12.763,16.517,21.525
		c4.057,8.777,6.554,19.431,6.554,32.801C444.771,451.994,444.63,455.014,444.383,458.132z"/>
</g>
</svg>