<?xml version="1.0" encoding="utf-8"?>

<!DOCTYPE svg PUBLIC "-//W3C//DTD SVG 1.1//EN" "http://www.w3.org/Graphics/SVG/1.1/DTD/svg11.dtd">
<!-- Uploaded to: SVG Repo, www.svgrepo.com, Generator: SVG Repo Mixer Tools -->
<svg height="800px" width="800px" version="1.1" id="_x32_" xmlns="http://www.w3.org/2000/svg" xmlns:xlink="http://www.w3.org/1999/xlink" 
	 viewBox="0 0 512 512"  xml:space="preserve">
<style type="text/css">
	.st0{fill:#000000;}
</style>
<g>
	<path class="st0" d="M430.427,431.302c-3.025-8.277-7.296-15.308-12.328-21.144c-4.431-5.192-9.462-9.631-14.769-13.363
		c-9.294-6.545-19.58-11.249-29.582-15.256c-7.57-2.971-14.981-5.624-21.853-8.162c-5.191-1.999-10.01-3.954-14.335-6.058
		c-2.75-1.353-5.244-2.706-7.508-4.218l-0.071-0.044c1.999-14.212-8.56-27.99-14.371-31.315v-0.018
		c0.204-5.51,1.238-4.757,2.423-10.594c4.174-4.705,7.959-10.223,11.523-16.926c3.573-6.712,6.978-14.441,10.391-23.692
		c2.158-1.088,4.378-2.22,6.545-3.626c4.864-3.352,9.515-7.898,13.406-14.062c3.839-6.111,6.925-13.628,9.083-23.037
		c0.548-2.547,0.813-5.2,0.813-7.685c0-5.359-1.238-10.383-3.352-14.929c-1.459-3.139-3.299-6.057-5.456-8.711
		c1.132-4.05,2.431-9.516,3.617-15.954c0.221-1.132,0.433-2.273,0.601-3.458l0.052-0.434v-7.685v-0.054v-8.109
		c0-2.503-0.044-5.235-0.132-8.145c0.176,0,0.345,0.026,0.512,0.026c15.309,0.035,28.255-5.766,37.232-14.751
		c9.011-8.985,14.176-20.906,15.13-33.243l0.009-0.009c0.08-1.105,0.115-2.21,0.115-3.333c-0.017-10.666-3.678-21.906-10.32-33.084
		c-9.993-16.75-26.85-33.482-50.17-47.331c-23.329-13.831-53.15-24.727-89.09-29.476C250.575,1.043,234.47,0,220.037,0
		c-36.506,0-62.382,6.712-80.38,15.83c-18.006,9.126-28.016,20.57-32.677,29.865c-4.2,8.401-6.341,17.846-6.341,27.494
		c-0.008,14.38,4.758,29.316,14.751,42.025c8.022,10.215,19.456,18.846,34.11,24.682c-0.742,11.408-1.238,21.738-1.353,30.06v3.183
		l0.062,1.954v0.867c-0.062,0.699-0.062,1.406-0.062,2.106l0.062,0.433l0.053,2.432h0.38c0.372,2.273,0.752,4.378,1.132,6.385
		c0,0.539,0,0.919,0.054,1.353l0.052,0.38c0,0.813,0.054,1.671,0.16,2.485c0.168,1.52,0.327,2.918,0.486,4.272
		c0.054,0.539,0.115,1.14,0.169,1.574v1.565l1.786,7.898c-2.546,2.759-4.758,5.899-6.491,9.41
		c-2.387,4.758-3.784,10.17-3.784,15.848c0,2.485,0.265,5.138,0.858,7.685c1.406,6.27,3.246,11.682,5.465,16.44
		c3.352,7.19,7.579,12.761,12.222,16.874c3.626,3.246,7.473,5.624,11.311,7.411c3.405,9.251,6.81,16.98,10.382,23.692
		c3.564,6.703,7.349,12.222,11.523,16.926c1.132,5.624,2.158,5.138,2.432,9.896v0.044c-5.253,1.335-18.536,16.856-15.839,32.686
		l0.053,0.256l-0.008,0.009c-3.626,2.157-7.898,4.218-12.602,6.217c-8.49,3.626-18.394,6.924-28.45,10.815
		c-7.57,2.928-15.255,6.332-22.613,10.436c-5.51,3.139-10.815,6.88-15.733,11.205c-7.358,6.544-13.743,14.653-18.12,24.824
		c-4.44,10.17-6.925,22.286-6.925,36.727c0,1.946,0.434,3.785,1.132,5.625c0.655,1.566,1.522,3.14,2.548,4.483
		c1.945,2.707,4.484,5.032,7.57,7.306c5.412,3.997,12.602,7.791,21.959,11.355c13.955,5.253,32.73,9.958,56.9,13.363
		C190.5,509.894,220.197,512,255.996,512c31.05,0,57.501-1.566,79.734-4.272c16.706-2.052,31.094-4.598,43.263-7.632
		c9.144-2.22,17.033-4.59,23.86-7.243c5.076-1.839,9.568-3.891,13.407-5.952c2.918-1.566,5.518-3.13,7.791-4.811
		c3.405-2.494,6.164-5.032,8.216-7.897c1.088-1.406,1.955-2.972,2.547-4.705c0.646-1.628,1.026-3.467,1.026-5.244
		C435.839,451.589,433.893,440.606,430.427,431.302z M91.903,465.43c-0.38-0.54-0.602-0.92-0.655-1.132l-0.052-0.16
		c0-11.151,1.626-20.181,4.43-27.645c2.44-6.597,5.74-12.001,9.684-16.662c3.519-4.103,7.525-7.676,12.009-10.816
		c7.792-5.51,16.935-9.728,26.505-13.522c7.137-2.865,14.494-5.403,21.631-8.11c5.359-2.051,10.603-4.165,15.582-6.597
		c1.565-0.761,3.078-1.521,4.598-2.388l0.018-0.008c5.89,10.603,15.432,17.342,24.974,21.614l-35.808,24.354v68.078
		c-14.795-1.901-27.495-4.289-38.248-6.836c-8.649-2.104-16.007-4.378-22.118-6.756c-4.537-1.733-8.49-3.458-11.682-5.191
		c-2.432-1.3-4.44-2.538-6.058-3.732C94.229,468.189,92.655,466.562,91.903,465.43z M183.903,268.986l-3.352-1.247
		c-2.273-0.867-4.493-1.884-6.65-3.352c-3.193-2.158-6.279-5.076-9.091-9.516c-2.812-4.492-5.35-10.382-7.137-18.332
		c-0.327-1.522-0.486-3.034-0.486-4.439c0-3.193,0.752-6.27,2.211-9.198c1.194-2.379,2.874-4.705,4.926-6.809
		c3.467,5.244,6.27,9.41,7.358,10.382c3.352,3.405,3.838-4.546,2.22-13.469c-1.247-7.031,1.291-14.6,4.811-23.957
		c0.973-2.538,1.999-5.244,3.033-8.118h149.979c1.185,2.6,2.273,5.359,3.246,8.118c6.332,17.36,9.79,36.285,9.79,36.285
		s1.734-3.299,4.324-7.677c1.565,1.787,2.865,3.785,3.785,5.846c1.3,2.751,1.954,5.624,1.954,8.597c0,1.353-0.168,2.918-0.496,4.439
		c-1.185,5.244-2.706,9.737-4.431,13.354c-2.546,5.465-5.518,9.25-8.596,12.01c-3.14,2.812-6.438,4.652-9.852,5.836l-3.298,1.247
		l-1.185,3.299c-3.626,10.117-7.092,18.342-10.603,24.886c-3.52,6.544-7.031,11.408-10.657,15.308l-1.459,1.397l-0.433,2.061
		c-1.672,7.729-3.246,7.676-3.246,18.226c0,3.192,0.168,6.544,0.486,9.896c0.433,4.06,1.353,7.792,2.812,11.302
		c0.372,0.92,0.805,1.778,1.291,2.635c-7.508,10.613-20.34,16.971-34.649,19.544c-0.999-3.458-4.148-5.996-7.924-5.996h-14.707
		c-3.767,0-6.924,2.538-7.924,5.996c-13.752-2.476-26.142-8.464-33.747-18.368l0.681-1.106c2.114-4.112,3.52-8.923,4.059-14.008
		c0.327-3.352,0.486-6.703,0.486-9.896c0-10.551-1.574-10.498-3.246-18.226l-0.433-2.061l-1.459-1.512
		c-3.626-3.838-7.137-8.763-10.656-15.193c-3.458-6.544-6.978-14.768-10.604-24.886L183.903,268.986z M128.153,105.185
		c-7.72-9.816-11.284-21.189-11.284-31.996c-0.009-7.252,1.61-14.22,4.626-20.234c2.873-5.757,10.24-14.928,25.496-22.648
		c15.246-7.721,38.505-14.088,73.048-14.088c13.646,0,29.051,0.99,46.376,3.29c45.191,5.961,79.415,22.162,102.126,40.672
		c11.355,9.251,19.81,19.076,25.328,28.353c5.536,9.277,8.057,17.961,8.039,24.78c0,0.716-0.026,1.414-0.08,2.114v-0.018
		c-0.663,8.64-4.324,16.963-10.4,22.985c-6.102,6.023-14.478,9.985-25.788,10.028c-0.388,0-0.822-0.044-1.22-0.052
		c-0.248-4.29-0.523-8.774-0.85-13.416c-5.111,0.681-10.338,1.256-15.627,1.769c0.345,5.201,0.672,10.241,0.929,14.901
		c0.158,2.804,0.265,5.51,0.424,8.11c0,0.654,0,1.999,0.053,3.678c0,0.973,0.062,1.946,0.062,2.919c0,1.353,0,2.652,0.054,3.784
		H185.309h-21.26c0.053-0.813,0.053-2.812,0.053-4.864c0.044-1.591,0.053-3.201,0.08-4.368l0.036-1.149
		c0.106-2.601,0.212-5.307,0.371-8.11c0.46-9.126,1.168-19.429,2.008-30.226c-5.218-1.371-10.374-2.787-15.414-4.29
		c-0.15,1.902-0.3,3.767-0.442,5.651C140.949,118.088,133.521,111.986,128.153,105.185z M180.233,427.216l36.462-24.788
		c13.089,4.59,24.63,4.987,24.63,4.987l-7.641,65.275h21.552h21.552l-7.641-65.275c0,0,40.981-1.398,56.05-29.679l0.036,0.018
		c4.103,2.378,8.437,4.386,12.982,6.278c9.25,3.891,19.147,7.19,28.777,10.975c7.19,2.813,14.22,5.899,20.606,9.525
		c4.811,2.75,9.295,5.837,13.248,9.357c5.952,5.296,10.816,11.576,14.336,19.633c3.511,8.056,5.624,17.952,5.624,30.616l-0.38,0.805
		c-0.486,0.866-1.68,2.273-3.626,3.838c-1.724,1.415-4.05,2.971-6.977,4.546c-5.138,2.812-12.062,5.73-20.871,8.49
		c-13.256,4.174-30.722,8.012-52.743,10.771c-22.012,2.75-48.622,4.431-80.211,4.431c-29.502,0-54.618-1.477-75.763-3.926V427.216z"
		/>
	<path class="st0" d="M198.389,431.311c-3.042,0-5.518,2.468-5.518,5.518c0,3.042,2.476,5.51,5.518,5.51
		c3.042,0,5.518-2.468,5.518-5.51C203.907,433.778,201.431,431.311,198.389,431.311z"/>
	<path class="st0" d="M198.389,473.61c-3.042,0-5.518,2.459-5.518,5.519c0,3.042,2.476,5.509,5.518,5.509
		c3.042,0,5.518-2.468,5.518-5.509C203.907,476.068,201.431,473.61,198.389,473.61z"/>
	<path class="st0" d="M314.248,442.339c3.042,0,5.518-2.468,5.518-5.51c0-3.051-2.476-5.518-5.518-5.518
		c-3.042,0-5.518,2.468-5.518,5.518C308.73,439.871,311.206,442.339,314.248,442.339z"/>
	<path class="st0" d="M314.248,484.638c3.042,0,5.518-2.468,5.518-5.509c0-3.06-2.476-5.519-5.518-5.519
		c-3.042,0-5.518,2.459-5.518,5.519C308.73,482.17,311.206,484.638,314.248,484.638z"/>
</g>
</svg>