<?xml version="1.0" encoding="utf-8"?>

<!DOCTYPE svg PUBLIC "-//W3C//DTD SVG 1.1//EN" "http://www.w3.org/Graphics/SVG/1.1/DTD/svg11.dtd">
<!-- Uploaded to: SVG Repo, www.svgrepo.com, Generator: SVG Repo Mixer Tools -->
<svg version="1.1" id="_x32_" xmlns="http://www.w3.org/2000/svg" xmlns:xlink="http://www.w3.org/1999/xlink" 
	 width="800px" height="800px" viewBox="0 0 512 512"  xml:space="preserve">
<style type="text/css">
<![CDATA[
	.st0{fill:#000000;}
]]>
</style>
<g>
	<path class="st0" d="M442.527,309.051c-59.407-36.078-133.563-1.078-165.375-1.078s-105.969-35-165.391,1.078
		c-51.078,31.016-45,126.046,27.563,159.031c69.969,31.797,112.375-22.266,137.828-22.266c25.438,0,67.844,54.063,137.813,22.266
		C487.527,435.098,493.621,340.067,442.527,309.051z M163.542,399.911c-18.281-18.281-15.234-36.563,6.109-38.078
		c21.313-1.531,57.266,7.625,57.875,19.797C229.042,412.098,181.824,418.191,163.542,399.911z M390.746,399.911
		c-18.281,18.281-65.5,12.187-63.969-18.281c0.594-12.172,36.547-21.328,57.875-19.797
		C405.98,363.348,409.027,381.629,390.746,399.911z"/>
	<path class="st0" d="M375.371,100.395C325.98,88.036,185.214-3.324,93.839,51.004C2.48,105.333,59.277,216.458,59.277,216.458
		l-59.281,39.516h498.86C553.184,107.801,424.761,112.739,375.371,100.395z"/>
</g>
</svg>