<?xml version="1.0" encoding="utf-8"?>

<!DOCTYPE svg PUBLIC "-//W3C//DTD SVG 1.1//EN" "http://www.w3.org/Graphics/SVG/1.1/DTD/svg11.dtd">
<!-- Uploaded to: SVG Repo, www.svgrepo.com, Generator: SVG Repo Mixer Tools -->
<svg height="800px" width="800px" version="1.1" id="_x32_" xmlns="http://www.w3.org/2000/svg" xmlns:xlink="http://www.w3.org/1999/xlink" 
	 viewBox="0 0 512 512"  xml:space="preserve">
<style type="text/css">
	.st0{fill:#000000;}
</style>
<g>
	<path class="st0" d="M222.407,118.397c29.699,0,53.778-24.079,53.778-53.786c0-29.698-24.079-53.769-53.778-53.769
		c-29.698,0-53.777,24.07-53.777,53.769C168.63,94.318,192.709,118.397,222.407,118.397z"/>
	<path class="st0" d="M471.964,466.181l-79.057-50.541l-63.692-100.086L308.249,197.24l68.218-6.34l58.721,37.968
		c7.869,5.095,18.291,3.655,24.47-3.396l0.355-0.391c6.856-7.816,6.127-19.713-1.653-26.622l-52.542-46.708
		c-5.664-5.032-12.902-7.941-20.478-8.225l-131.109-7.309c-4.028-0.223-7.78,0.079-7.78,0.079c-1.699,0.143-3.397,0.347-5.104,0.632
		c-9.549,1.644-18.121,5.592-25.252,11.168l-96.396,58.206l-60.722-33.966c-9.425-5.273-21.34-2.143-26.942,7.087l-0.764,1.254
		c-2.784,4.579-3.619,10.065-2.33,15.249c1.289,5.193,4.606,9.656,9.194,12.395l72.352,43.188c9.007,5.379,19.98,6.348,29.796,2.64
		l61.051-23.082l20.326,81.964l-85.761-0.338c-11.374-0.036-22.177,5.015-29.433,13.782c-7.255,8.768-10.207,20.318-8.038,31.495
		l22.719,116.998c2.516,12.955,14.796,21.633,27.858,19.677l0.97-0.151c12.919-1.939,22.086-13.613,20.886-26.622l-7.691-83.832
		l119.328,3.771l55.893,56.312c7.789,7.852,16.663,14.529,26.364,19.819l83.032,45.348c11.63,6.01,25.937,1.707,32.33-9.728
		l0.444-0.8C486.938,487.352,483.141,472.957,471.964,466.181z"/>
	<path class="st0" d="M277.297,32.192c16.948-3.504,35.336,6.704,62.038,13.222c33.3,8.118,61.46-20.184,50.452-44.024
		c-6.42,2.757-13.765,17.428-58.704,2.757c-29.103-9.506-54.142-1.28-70.699,10.678C267.195,19.316,272.984,25.247,277.297,32.192z"
		/>
</g>
</svg>