<?xml version="1.0" encoding="utf-8"?>

<!DOCTYPE svg PUBLIC "-//W3C//DTD SVG 1.1//EN" "http://www.w3.org/Graphics/SVG/1.1/DTD/svg11.dtd">
<!-- Uploaded to: SVG Repo, www.svgrepo.com, Generator: SVG Repo Mixer Tools -->
<svg height="800px" width="800px" version="1.1" id="_x32_" xmlns="http://www.w3.org/2000/svg" xmlns:xlink="http://www.w3.org/1999/xlink" 
	 viewBox="0 0 512 512"  xml:space="preserve">
<style type="text/css">
	.st0{fill:#000000;}
</style>
<g>
	<path class="st0" d="M467.796,372.655c-31.342-7.464-118.165-28.796-144.32-35.226c-1.442-1.077-2.629-2.104-3.428-3.015
		c-1.47-1.704-1.656-2.539-1.677-3.263c0-7.623,0-17.15,0-29.7c10.142-11.293,24.713-28.775,30.7-56.503
		c2.09-0.945,4.16-2.007,6.154-3.401c4.961-3.422,9.169-8.389,12.736-15.15c3.587-6.789,6.768-15.468,10.162-27.34
		c1.717-6.023,2.511-11.252,2.511-15.91c0.007-5.36-1.097-10.024-3.125-13.805c-3.042-5.733-7.976-8.92-11.97-10.369
		c-0.442-0.158-0.828-0.255-1.249-0.38c0-6.533,0-16.93,0-26.423c-0.048-13.177-0.124-40.194-13.956-64.76
		c-6.92-12.266-17.468-23.864-32.84-32.15c-10.438-5.65-23.07-9.706-38.117-11.762C277.785,14.805,272.535,1.614,258.785,0
		c-13.418,1.58-18.738,14.184-20.47,22.863c-17.233,1.78-31.39,6.154-42.932,12.398c-11.522,6.216-20.359,14.288-26.948,23.119
		c-9.907,13.26-14.805,28.072-17.289,41.318c-2.483,13.246-2.56,25.092-2.56,32.474c0,9.507,0,19.91,0,26.437
		c-1.71,0.538-3.525,1.241-5.456,2.421c-2.856,1.766-5.747,4.526-7.762,8.314c-2.028,3.781-3.139,8.444-3.132,13.812
		c0.007,4.657,0.8,9.886,2.518,15.902c4.54,15.812,8.638,26.022,13.944,33.508c2.649,3.726,5.67,6.713,8.954,8.983
		c1.994,1.394,4.064,2.456,6.154,3.401c5.989,27.728,20.559,45.21,30.7,56.503c0,12.55,0,22.077,0,29.7
		c-0.02,0.724-0.207,1.559-1.676,3.263c-0.717,0.835-1.814,1.753-3.063,2.704C165.325,343.127,76.08,365.066,44.2,372.655
		c-19.724,4.698,5.76,71.197,12.549,87.996c0.014,0.228,0.007,0.435,0.028,0.669c0.228,2.608,1.221,4.732,2.387,6.484
		c2.222,3.257,5.168,5.685,8.858,8.176c6.465,4.277,15.42,8.458,26.886,12.563c34.315,12.239,91.128,23.443,161.532,23.456
		c57.2,0,105.479-7.424,139.939-16.751c17.241-4.677,31.004-9.789,40.952-14.902c4.981-2.58,9.01-5.119,12.205-7.906
		c1.6-1.407,3.001-2.884,4.18-4.636c1.159-1.752,2.16-3.877,2.387-6.484c0.09-1.09,0.069-2.083,0.138-3.146
		C464.167,438.181,486.672,377.153,467.796,372.655z M178.129,237.959l-0.786-4.45l-4.25-1.517
		c-2.704-0.966-4.767-1.953-6.568-3.202c-2.656-1.876-5.064-4.436-7.878-9.679c-2.78-5.216-5.726-13.012-8.948-24.319
		c-1.414-4.946-1.918-8.782-1.918-11.638c0.007-3.318,0.642-5.258,1.29-6.478c0.98-1.78,2.18-2.539,3.712-3.153
		c1.228-0.469,2.518-0.593,3.036-0.621l1.332,0.165c4.87,7.12,16.764,24.009,16.764,19.324c0-5.146-5.408-41.856-1.235-56.475
		c0.594-2.09,1.876-3.402,2.415-4.754c0.345-0.869,0.662-1.518,0.993-2.311c6.292-6.396,13.674-11.626,21.138-14.937
		c-13.101-21.442-10.203-43.16-5.471-57.564c3.263-2.677,6.885-5.175,11.018-7.416c12.673-6.851,29.928-11.425,53.666-11.432
		c23.74,0.007,40.994,4.581,53.668,11.432c4.16,2.248,7.762,4.78,11.038,7.478c4.719,14.398,7.589,36.089-5.491,57.503
		c6.54,2.904,13.012,7.285,18.752,12.625c0.648,1.435,1.297,2.884,1.994,4.622c0.538,1.352,1.821,2.663,2.414,4.754
		c4.174,14.619-1.235,51.328-1.235,56.475c0,4.677,11.873-12.176,16.751-19.31l2.58-0.179c0.476-0.014,2.973,0.234,4.615,1.324
		c0.89,0.566,1.615,1.228,2.277,2.449c0.656,1.221,1.284,3.16,1.297,6.471c0,2.863-0.504,6.699-1.918,11.645
		c-4.284,15.088-8.127,23.87-11.652,28.742c-1.766,2.462-3.38,4.001-5.174,5.257c-1.801,1.249-3.864,2.235-6.568,3.202l-4.25,1.517
		l-0.786,4.45c-4.974,27.844-19.323,43.512-29.92,55.316l-1.995,2.214v2.988c0,14.129,0,24.429,0,32.674
		c-0.02,5.498,2.539,10.21,5.61,13.605c0.344,0.38,0.744,0.69,1.103,1.056l-55.012,56.344l-53.232-54.53
		c1.062-0.924,2.173-1.801,3.132-2.87c3.07-3.394,5.63-8.106,5.609-13.605c0-8.244,0-18.544,0-32.674v-2.988l-1.994-2.214
		C197.453,281.471,183.103,265.804,178.129,237.959z M176.253,362.872c4.974-2.78,10.859-5.698,16.357-8.982l54.481,55.806
		l-16.385,16.385l-52.902-54.192L176.253,362.872z M180.985,390.316l42.228,43.256l-29.658,29.659L180.985,390.316z
		 M321.311,493.042c-19.862,2.125-41.573,3.422-64.872,3.422c-11.852,0-23.208-0.386-34.218-0.993l111.674-111.674L321.311,493.042z
		 M335.847,366.86L208.174,494.532c-3.132-0.241-6.306-0.462-9.348-0.745l-3.07-17.772l58.738-58.738l0.041,0.048l3.691-3.78
		l0.055-0.055l59.621-61.063c2.366,1.511,4.809,2.926,7.271,4.291c3.857,2.098,7.7,4.078,11.15,6.002L335.847,366.86z"/>
</g>
</svg>