<?xml version="1.0" encoding="utf-8"?>

<!DOCTYPE svg PUBLIC "-//W3C//DTD SVG 1.1//EN" "http://www.w3.org/Graphics/SVG/1.1/DTD/svg11.dtd">
<!-- Uploaded to: SVG Repo, www.svgrepo.com, Generator: SVG Repo Mixer Tools -->
<svg height="800px" width="800px" version="1.1" id="_x32_" xmlns="http://www.w3.org/2000/svg" xmlns:xlink="http://www.w3.org/1999/xlink" 
	 viewBox="0 0 512 512"  xml:space="preserve">
<style type="text/css">
	.st0{fill:#000000;}
</style>
<g>
	<path class="st0" d="M451.371,383.461c-28.911-6.886-109.002-26.564-133.128-32.494c-1.33-0.993-2.425-1.941-3.162-2.781
		c-1.356-1.572-1.528-2.342-1.547-3.01c-0.051-8.108-1.667-16.979-1.908-27.544c8.967-9.985,21.752-25.449,27.059-49.842
		c1.82-0.828,3.628-1.763,5.371-2.978c4.43-3.062,8.191-7.51,11.36-13.518c3.194-6.039,6.014-13.746,9.024-24.266
		c1.521-5.352,2.233-10.01,2.233-14.166c0.013-4.792-0.98-8.967-2.8-12.359c-2.73-5.148-7.166-8.019-10.749-9.317
		c-0.325-0.121-0.611-0.184-0.923-0.286c0-5.791,0-14.866,0-23.184c-0.026-5.855-0.051-14.809-1.623-25.03l1.133,0.681
		c0,0,2.374-42.231-2.374-50.835c-4.747-8.598-33.78-36.224-33.78-36.224l4.22-29.197L256.443,0l-63.34,27.111l4.226,29.197
		c0,0-29.033,27.626-33.78,36.224c-4.754,8.604-2.374,50.835-2.374,50.835l1.062-0.642c-1.565,10.195-1.629,19.162-1.629,24.992
		c0,8.324,0,17.405,0,23.196c-1.482,0.484-3.041,1.107-4.696,2.119c-2.571,1.585-5.167,4.066-6.975,7.472
		c-1.82,3.392-2.812,7.566-2.806,12.359c0.006,4.162,0.712,8.814,2.24,14.166c4.022,14.014,7.662,23.082,12.391,29.758
		c2.368,3.322,5.06,5.989,7.993,8.025c1.744,1.215,3.552,2.15,5.372,2.978c5.301,24.394,18.092,39.851,27.059,49.837
		c-0.242,10.57-1.864,19.442-1.909,27.549c-0.019,0.668-0.191,1.438-1.546,3.01c-0.662,0.77-1.674,1.617-2.826,2.494
		c-22.547,5.543-104.872,25.781-134.279,32.781c-18.195,4.334,5.314,65.676,11.576,81.172c0.013,0.21,0.006,0.401,0.025,0.617
		c0.21,2.406,1.127,4.366,2.202,5.982c2.05,3.004,4.767,5.244,8.171,7.542c5.964,3.945,14.224,7.802,24.801,11.589
		c31.654,11.289,84.062,21.625,149.006,21.637c52.764,0,97.299-6.848,129.087-15.452c15.904-4.315,28.6-9.03,37.776-13.746
		c4.595-2.38,8.312-4.722,11.258-7.293c1.476-1.298,2.768-2.66,3.856-4.277c1.069-1.616,1.992-3.576,2.202-5.982
		c0.082-1.006,0.064-1.922,0.128-2.902C448.024,443.906,468.783,387.61,451.371,383.461z M187.337,261.349l-0.725-4.105l-3.92-1.4
		c-2.38-0.847-4.181-1.712-5.746-2.8c-2.31-1.636-4.41-3.856-6.886-8.477c-2.45-4.588-5.052-11.474-7.903-21.478
		c-1.242-4.352-1.687-7.726-1.687-10.227c0.006-2.896,0.56-4.563,1.107-5.6c0.834-1.502,1.82-2.126,3.131-2.654
		c1.082-0.414,2.221-0.522,2.635-0.534l7.598,0.834v-8c0,0,0-8.273,0-17.984c6.281-12.002,17.514-22.255,29.026-27.372
		c-1.668-2.73-2.991-5.454-4.111-8.171l56.588,17.195l56.499-17.17c-1.12,2.705-2.437,5.429-4.098,8.146
		c11.512,5.116,22.745,15.369,29.026,27.372c0,9.711,0,17.984,0,17.984v7.58l7.408-0.413c0.229-0.038,2.597,0.159,4.035,1.126
		c0.75,0.484,1.355,1.031,1.915,2.068c0.554,1.031,1.101,2.698,1.114,5.594c0,2.495-0.445,5.874-1.686,10.233
		c-3.793,13.345-7.191,21.096-10.278,25.36c-1.546,2.151-2.952,3.494-4.512,4.588c-1.566,1.088-3.367,1.954-5.746,2.8l-3.921,1.406
		l-0.725,4.098c-4.397,24.578-17.043,38.387-26.43,48.844l-1.839,2.043v2.756c0.026,13.23,2.049,23.769,1.998,30.184
		c-0.019,5.072,2.342,9.418,5.174,12.55c0.318,0.35,0.687,0.636,1.018,0.973l-50.746,51.975l-49.104-50.301
		c0.98-0.852,2.005-1.661,2.889-2.647c2.832-3.132,5.193-7.478,5.174-12.55c-0.057-6.415,1.973-16.954,1.998-30.184v-2.756
		l-1.839-2.043C204.379,299.736,191.735,285.927,187.337,261.349z M182.437,374.436c4.588-2.564,10.017-5.256,15.089-8.286
		l50.256,51.479l-15.114,15.114l-48.799-49.989L182.437,374.436z M186.803,399.752l38.954,39.902l-27.358,27.359L186.803,399.752z
		 M316.246,494.512c-18.322,1.96-38.35,3.157-59.841,3.157c-10.933,0-21.408-0.356-31.565-0.916l103.013-103.014L316.246,494.512z
		 M329.655,378.115L211.883,495.886c-2.889-0.222-5.817-0.426-8.623-0.687l-2.832-16.393l54.183-54.183l0.038,0.044l3.405-3.487
		l0.051-0.051l54.997-56.328c2.183,1.394,4.436,2.698,6.708,3.958c3.558,1.935,7.103,3.762,10.285,5.537L329.655,378.115z"/>
</g>
</svg>