<?xml version="1.0" encoding="utf-8"?>

<!DOCTYPE svg PUBLIC "-//W3C//DTD SVG 1.1//EN" "http://www.w3.org/Graphics/SVG/1.1/DTD/svg11.dtd">
<!-- Uploaded to: SVG Repo, www.svgrepo.com, Generator: SVG Repo Mixer Tools -->
<svg height="800px" width="800px" version="1.1" id="_x32_" xmlns="http://www.w3.org/2000/svg" xmlns:xlink="http://www.w3.org/1999/xlink" 
	 viewBox="0 0 512 512"  xml:space="preserve">
<style type="text/css">
	.st0{fill:#000000;}
</style>
<g>
	<path class="st0" d="M472.954,255.526c0-14.018-5.705-26.785-14.892-35.973c-5.492-5.501-12.26-9.751-19.829-12.26
		c-4.691-12.432-12.49-31.281-22.526-53.006C399.472,119.206,352.131,30.439,297.187,5.19C290.551,1.954,283.603,0,276.508,0h-65.34
		c-6.588-0.024-12.882,1.112-18.767,3.114c-10.25,3.523-18.75,10.209-26.875,17.582c-7.324,6.628-45.708,55.736-52.933,72.427
		c-7.716,17.843-13.094,30.569-15.58,40.958c-2.076,8.624-2.631,15.424-2.746,20.876c-5.411,1.128-10.266,3.842-14.01,7.602
		c-5.084,5.051-8.239,12.113-8.239,19.862v26.859c0,7.725,3.156,14.795,8.239,19.838c1.52,1.545,3.22,2.902,5.067,4.013
		c-1.373,7.291-4.103,14.304-7.814,21.808c-6.571,13.372-16.15,28.019-24.194,46.95c-8.027,18.971-14.287,42.274-14.271,72.72
		c0,2.125,0.016,4.291,0.082,6.498c0.147,5.101,1.226,10.078,3.024,14.843c3.368,8.934,9.155,17.124,16.478,24.816
		c12.783,13.454,30.341,25.518,49.566,36.389c28.836,16.283,61.433,29.752,86.951,39.218c25.502,9.448,43.828,14.892,43.974,14.925
		l2.305,0.703l2.322-0.703c0.228-0.065,48.535-14.369,97.496-37.092c24.488-11.386,49.157-24.865,68.283-40.084
		c9.563-7.626,17.77-15.718,23.868-24.456c3.04-4.381,5.542-8.942,7.307-13.716c1.814-4.765,2.878-9.742,3.025-14.843
		c0.065-2.207,0.098-4.373,0.098-6.498c0-20.295-2.763-37.426-7.03-52.205c-1.7-5.958-3.645-11.541-5.754-16.821
		c10.462-1.847,19.846-6.907,27.022-14.1C467.249,282.32,472.954,269.552,472.954,255.526z M88.383,182.42
		c0-3.286,1.292-6.13,3.449-8.288c2.125-2.125,5.002-3.433,8.239-3.433h222.373l43.893,50.284H100.071
		c-3.238,0-6.114-1.291-8.239-3.416c-2.158-2.15-3.449-5.026-3.449-8.288V182.42z M339.789,265.752
		c5.574,11.941,8.533,25.297,8.517,37.247c0.016,6.547-0.867,12.669-2.583,17.876c-1.684,5.223-4.152,9.506-7.258,12.71
		c-1.292,1.316-2.322,1.978-3.204,2.37c-0.883,0.376-1.652,0.531-2.714,0.531c-0.9,0.008-1.994-0.131-3.303-0.474
		c-2.288-0.596-5.198-1.83-8.5-3.482c-4.97-2.461-10.79-5.771-17.491-8.582c-6.702-2.796-14.403-5.084-23.051-5.084
		c-6.784-0.008-14.075,1.446-21.529,4.88c-5.673,2.599-11.443,6.31-17.328,11.296c-5.836-4.773-11.541-8.32-17.149-10.806
		c-7.405-3.302-14.63-4.692-21.366-4.684c-6.538,0-12.555,1.283-17.982,3.073c-8.158,2.714-15.089,6.556-20.958,9.425
		c-2.926,1.454-5.575,2.648-7.846,3.432c-2.257,0.785-4.104,1.12-5.476,1.12c-1.112-0.008-1.93-0.171-2.845-0.572
		c-0.932-0.409-1.994-1.096-3.318-2.444c-3.106-3.204-5.59-7.488-7.274-12.71c-1.7-5.207-2.583-11.328-2.583-17.876
		c-0.017-11.95,2.959-25.306,8.517-37.256c5.362-11.541,13.11-21.66,22.461-28.396h151.802
		C326.678,244.083,334.443,254.202,339.789,265.752z M427.362,380.633c-0.115,3.114-0.736,6.277-1.978,9.571
		c-2.288,6.122-6.734,12.702-12.996,19.29c-10.953,11.574-27.382,23.041-45.772,33.414c-27.611,15.604-59.586,28.837-84.581,38.122
		c-12.506,4.634-23.279,8.279-30.897,10.789c-3.809,1.234-6.817,2.198-8.893,2.82c-0.294,0.098-0.556,0.196-0.818,0.261
		c-10.266-3.163-53.063-16.789-95.125-36.569c-23.442-10.994-46.606-23.95-63.575-37.664c-8.484-6.841-15.383-13.863-20.042-20.663
		c-2.305-3.392-4.087-6.735-5.28-9.972c-1.194-3.221-1.798-6.326-1.897-9.399c-0.065-2.036-0.098-4.063-0.098-6.025
		c0-18.832,2.534-34.313,6.36-47.693c5.77-20.034,14.5-35.433,22.674-50.137c4.053-7.34,7.977-14.517,11.181-22.037
		c2.338-5.542,4.316-11.288,5.558-17.393h40.623c-5.444,6.498-10.005,13.798-13.585,21.489
		c-6.538,14.124-10.037,29.564-10.037,44.162c0,8.002,1.046,15.759,3.368,22.935c2.321,7.144,5.934,13.724,11.116,19.062
		c2.534,2.616,5.378,4.667,8.468,6.024c3.09,1.365,6.342,1.962,9.433,1.962c5.198-0.034,9.808-1.512,14.14-3.294
		c6.506-2.73,12.652-6.31,18.962-9.064c6.31-2.771,12.588-4.708,19.16-4.7c4.528,0,9.302,0.882,14.729,3.278
		c5.411,2.411,11.492,6.4,18.276,12.759l5.689,5.346l5.607-5.444c6.816-6.613,12.931-10.757,18.358-13.242
		c5.46-2.484,10.201-3.367,14.712-3.375c4.382,0,8.582,0.866,12.8,2.313c6.327,2.15,12.572,5.624,18.882,8.844
		c3.172,1.602,6.36,3.147,9.744,4.356c3.384,1.21,6.996,2.109,10.92,2.109c3.057,0.008,6.261-0.581,9.301-1.938
		c3.057-1.332,5.852-3.367,8.353-5.933c5.166-5.338,8.795-11.918,11.1-19.062c2.321-7.176,3.384-14.934,3.384-22.935
		c-0.017-14.598-3.498-30.038-10.054-44.162c-3.58-7.691-8.141-14.99-13.584-21.489h31.468c0.703,0,1.406-0.024,2.109-0.09
		c-2.207,5.664-3.4,11.828-3.4,18.268c0,14.026,5.706,26.794,14.892,35.956c7.226,7.226,16.658,12.31,27.202,14.132
		c0.376,0.882,0.768,1.782,1.145,2.664c7.307,17.377,12.963,38.074,12.979,66.329C427.443,376.57,427.427,378.597,427.362,380.633z
		 M446.472,279.917c-5.836,5.835-13.666,9.562-22.445,10.02c-0.637,0.049-1.292,0.082-1.928,0.082
		c-7.389,0-14.206-2.297-19.797-6.245c-1.668-1.144-3.172-2.427-4.594-3.858c-6.26-6.278-10.102-14.812-10.102-24.374
		c0,0-0.032,0,0-0.017c0-9.31,3.662-17.729,9.645-23.957c0.164-0.139,0.31-0.302,0.458-0.434
		c6.262-6.245,14.843-10.111,24.391-10.111c9.53,0,18.112,3.866,24.374,10.111c6.245,6.261,10.119,14.844,10.119,24.39
		C456.591,265.081,452.716,273.639,446.472,279.917z"/>
	<path class="st0" d="M186.401,275.364c-7.667,0-13.879,6.212-13.879,13.887c0,7.658,6.212,13.879,13.879,13.879
		c7.667,0,13.879-6.22,13.879-13.879C200.28,281.576,194.068,275.364,186.401,275.364z"/>
	<path class="st0" d="M296.452,275.364c-7.651,0-13.88,6.212-13.88,13.887c0,7.658,6.229,13.879,13.88,13.879
		c7.683,0,13.895-6.22,13.895-13.879C310.347,281.576,304.135,275.364,296.452,275.364z"/>
	<polygon class="st0" points="214.747,391.471 220.518,399.203 241.525,383.403 262.531,399.203 268.302,391.471 241.525,371.33 	
		"/>
</g>
</svg>