<?xml version="1.0" encoding="utf-8"?>

<!DOCTYPE svg PUBLIC "-//W3C//DTD SVG 1.1//EN" "http://www.w3.org/Graphics/SVG/1.1/DTD/svg11.dtd">
<!-- Uploaded to: SVG Repo, www.svgrepo.com, Generator: SVG Repo Mixer Tools -->
<svg height="800px" width="800px" version="1.1" id="_x32_" xmlns="http://www.w3.org/2000/svg" xmlns:xlink="http://www.w3.org/1999/xlink" 
	 viewBox="0 0 512 512"  xml:space="preserve">
<style type="text/css">
	.st0{fill:#000000;}
</style>
<g>
	<path class="st0" d="M199.47,285.159c-6.008,0-10.869,4.861-10.869,10.862c0,6.015,4.861,10.876,10.869,10.876
		s10.869-4.861,10.869-10.876C210.339,290.02,205.478,285.159,199.47,285.159z"/>
	<path class="st0" d="M306.005,306.897c6.008,0,10.869-4.861,10.869-10.876c0-6.001-4.861-10.862-10.869-10.862
		s-10.869,4.861-10.869,10.862C295.136,302.036,299.997,306.897,306.005,306.897z"/>
	<path class="st0" d="M269.918,376.579H242.02c-2.81,0-5.081,2.263-5.081,5.066c0,2.802,2.271,5.074,5.081,5.074h27.898
		c2.803,0,5.074-2.271,5.074-5.074C274.992,378.842,272.721,376.579,269.918,376.579z"/>
	<path class="st0" d="M77.964,290.18h0.007c0,0,0-0.007,0.008-0.007L77.964,290.18z"/>
	<path class="st0" d="M426.903,341.738l-0.054,0.038c-0.015,0.008-0.015,0.016-0.015,0.016L426.903,341.738z"/>
	<polygon class="st0" points="437.392,292.588 437.34,292.542 437.35,292.55 437.354,292.557 	"/>
	<polygon class="st0" points="398.442,171.15 398.45,171.158 398.45,171.158 	"/>
	<path class="st0" d="M444.031,302.508c-1.219-3.776-3.498-7.239-6.68-9.958c-3.129-2.666-6.862-4.444-10.888-5.537h-0.008
		c-1.336-0.357-3.129-1.184-5.096-2.59h-0.008c-3.441-2.408-7.497-6.624-11.18-11.538l-0.008-0.008
		c-5.59-7.405-10.588-16.444-14.044-23.47c-1.2-2.431-2.202-4.603-3.03-6.433c6.668-1.154,12.669-4.337,17.25-8.932
		c5.826-5.818,9.448-13.923,9.448-22.81c0-6.144-1.747-11.948-4.754-16.847c-1.96-3.197-4.466-5.955-7.36-8.279
		c-1.64-5.818-4.88-10.983-9.22-14.948c-5.575-5.135-13.042-8.302-21.169-8.454c-0.099-0.016-0.252-0.023-0.486-0.023h-0.106
		c-0.068,0-0.198,0-0.349,0c-3.32,0.038-6.548,0.577-9.555,1.556l-63.552-77.079c0.554-2.203,0.889-4.482,0.889-6.836
		c0-1.269-0.106-2.537-0.281-3.776c1.337-1.154,2.575-2.438,3.669-3.851v0.016c3.676-4.702,5.886-10.68,5.886-17.098
		c0-7.656-3.137-14.652-8.158-19.664c-3-3.008-6.707-5.287-10.824-6.669c-0.995-5.788-3.745-10.991-7.71-14.948
		c-4.869-4.891-11.636-7.952-19.034-8.127c-0.091,0-0.25-0.016-0.456-0.016V6.176c0,0-0.053,0-0.129,0c-0.008,0-0.008,0-0.015,0
		s-0.015,0-0.03,0h-0.008c-0.038,0-0.084,0-0.114,0c-0.03,0.015-0.053,0-0.091,0.015c-0.015,0-0.031,0-0.046,0
		c-2.537,0.016-4.998,0.395-7.322,1.064c-0.828-0.76-1.701-1.49-2.628-2.142c-4.405-3.13-9.798-4.99-15.563-5.089
		c-0.084-0.008-0.205-0.016-0.349-0.016h-0.061c-0.008,0-0.023-0.008-0.03-0.008s-0.03,0-0.038,0c-0.008,0-0.008,0-0.015,0
		c-0.015,0-0.03,0.008-0.038,0.008c-0.114-0.008-0.289,0-0.539,0.023c-7.421,0.16-14.196,3.221-19.088,8.12
		c-3.722,3.722-6.358,8.537-7.489,13.877c-3.585,1.405-6.828,3.524-9.502,6.197c-5.021,5.006-8.143,12.009-8.143,19.672
		c0,5.69,1.74,11.014,4.694,15.427c-2.924,4.39-4.656,9.715-4.656,15.374c0,6.479,2.248,12.472,5.985,17.196l-54.468,66.94
		c-4.679,0.433-9.107,1.861-12.988,4.109c-2.734,1.565-5.196,3.517-7.338,5.773c-7.367,0.851-14.051,4.2-19.042,9.198
		c-5.811,5.795-9.434,13.922-9.434,22.794c0,6.911,2.195,13.368,5.924,18.609c2.545,3.6,5.818,6.623,9.578,8.894
		c1.344,3.274,3.212,6.281,5.507,8.902c-1.998,4.558-5.819,12.776-10.771,21.056c-3.631,6.084-7.922,12.221-12.199,16.778h-0.007
		c-2.134,2.294-4.284,4.193-6.22,5.537l-0.008,0.008c-1.922,1.352-3.669,2.165-4.99,2.522h-0.008
		c-2.689,0.737-5.226,1.755-7.566,3.167c-3.554,2.12-6.509,5.082-8.446,8.69c-1.922,3.562-2.673,7.36-2.673,10.892v0.046v0.007
		v0.122h0.007c0.046,5.256,1.595,10.049,3.661,14.265l0.046,0.098l-0.03-0.076c3.183,6.38,7.854,12.032,13.254,16.474l-0.114-0.083
		l0.114,0.099c2.719,2.218,5.696,4.17,8.955,5.644l0.007,0.008c1.914,0.873,4.003,1.594,6.228,2.058
		c0.008,0.038,0.016,0.06,0.023,0.106l0.007,0.038c0.288,1.542,0.57,3.692,0.813,6.19c0.25,2.499,0.494,5.37,0.76,8.454l0.008,0.015
		c0.843,9.297,2.028,20.767,5.977,32.311c1.983,5.758,4.694,11.576,8.477,17.044c3.797,5.469,8.682,10.55,14.804,14.758
		c7.945,5.476,13.254,10.474,17.127,14.94c2.894,3.365,4.968,6.41,6.753,9.327c1.322,2.188,2.469,4.292,3.661,6.418
		c0.888,1.595,1.808,3.221,2.901,4.891c1.618,2.469,3.737,5.226,6.844,7.542c3.213,2.393,7.049,3.889,11.15,4.459
		c3.669,0.524,7.254,0.729,10.626,0.729c6.767-0.015,12.768-0.797,17.166-1.572c3.41,3.859,8.401,9.35,13.998,14.955v0.008
		c5.127,5.119,10.718,10.307,16.33,14.523h0.008c2.803,2.104,5.651,4.01,8.674,5.522l0.023,0.007
		c1.519,0.76,3.129,1.451,4.891,1.975h0.008c1.74,0.524,3.76,0.927,5.978,0.935h0.03c2.218-0.008,4.231-0.411,5.963-0.935h0.038
		c3.236-0.987,6.076-2.506,8.758-4.17l0.015-0.008c4.709-2.97,9.304-6.768,13.778-10.83c6.714-6.107,13.125-12.867,17.933-18.169
		c1.527-1.678,2.848-3.175,4.003-4.482c2.932,0.221,6.676,0.411,10.93,0.426c4.922-0.015,10.512-0.258,16.3-1.094h-0.008
		c3.054-0.426,6.008-1.322,8.712-2.796c2.362-1.283,4.33-2.886,5.955-4.572l0.008-0.007c2.757-2.894,4.512-5.864,6.107-8.5
		l0.016-0.016c2.43-4.063,4.709-8.051,8.712-12.852h-0.008c4.003-4.77,9.7-10.315,18.92-16.665v0.008
		c5.416-3.722,9.882-8.15,13.467-12.913c6.274-8.347,9.829-17.614,12.038-26.44c1.649-6.638,2.553-13.087,3.191-18.95
		c0.47-4.406,0.79-8.484,1.109-12.016c0.236-2.658,0.486-4.99,0.767-6.859c0.091-0.646,0.19-1.231,0.296-1.747
		c0.972-0.204,1.929-0.448,2.848-0.736c4.079-1.322,7.694-3.425,10.945-5.872l0.038-0.03c4.869-3.706,9.13-8.393,12.434-13.649
		l0.007-0.015c1.641-2.651,3.069-5.484,4.109-8.5l0.008-0.015c1.033-3.008,1.732-6.297,1.74-9.798v-0.016
		C445.148,307.429,444.821,304.968,444.031,302.508z M215.906,40.014c2.036-2.028,4.793-3.259,7.884-3.259
		c0.182-0.008,0.471,0.016,0.866,0.046c1.633,0.121,3.228-0.532,4.269-1.777c1.064-1.246,1.451-2.932,1.056-4.512
		c-0.22-0.904-0.342-1.808-0.342-2.689c0-3.1,1.238-5.864,3.266-7.884c2.028-2.028,4.778-3.266,7.877-3.266
		c2.408,0,4.595,0.752,6.403,2.036c1.823,1.291,3.244,3.114,4.026,5.226c0.592,1.595,1.944,2.78,3.585,3.167
		c1.656,0.387,3.403-0.069,4.641-1.238c2.02-1.884,4.649-3.016,7.603-3.016c3.092,0,5.849,1.238,7.869,3.267
		c2.028,2.036,3.274,4.793,3.274,7.877c0,1.382-0.266,2.704-0.744,3.964c-0.653,1.747-0.319,3.699,0.889,5.105
		c1.215,1.412,3.091,2.05,4.922,1.663c0.76-0.159,1.534-0.25,2.324-0.25c3.091,0,5.841,1.238,7.876,3.266
		c2.028,2.028,3.259,4.786,3.266,7.876c-0.007,2.598-0.866,4.938-2.339,6.829c-1.474,1.891-3.555,3.296-5.924,3.926
		c-1.588,0.426-2.864,1.588-3.441,3.122c-0.585,1.55-0.372,3.259,0.539,4.618c1.2,1.785,1.899,3.896,1.899,6.213
		c0,3.106-1.246,5.856-3.266,7.884c-2.028,2.028-4.778,3.266-7.876,3.266c-3.532,0-6.639-1.634-8.712-4.201
		c-1.223-1.542-3.243-2.226-5.165-1.762c-1.914,0.471-3.395,2.013-3.775,3.942c-0.494,2.552-1.876,4.8-3.813,6.404
		c-1.937,1.618-4.39,2.566-7.109,2.566c-2.469,0-4.702-0.789-6.555-2.126c-1.846-1.36-3.258-3.258-4.003-5.462
		c-0.494-1.473-1.626-2.627-3.091-3.159c-1.458-0.516-3.069-0.349-4.398,0.478c-1.724,1.071-3.699,1.686-5.864,1.686
		c-3.092,0-5.841-1.238-7.877-3.258c-2.028-2.036-3.258-4.793-3.266-7.884c0.008-2.484,0.798-4.732,2.165-6.586
		c1.352-1.846,3.281-3.266,5.484-3.995c2.081-0.691,3.486-2.628,3.479-4.816c0-2.195-1.398-4.132-3.486-4.823
		c-2.218-0.722-4.155-2.142-5.507-3.996c-1.367-1.853-2.157-4.101-2.165-6.586C212.656,44.799,213.886,42.049,215.906,40.014z
		 M118.251,213.686c-1.793-2.553-2.849-5.606-2.849-8.978c0-4.314,1.732-8.173,4.566-11.013c2.825-2.826,6.691-4.566,11.014-4.566
		c0.47,0,0.964,0.031,1.496,0.084c1.929,0.182,3.782-0.752,4.8-2.4c1.368-2.233,3.289-4.117,5.568-5.416
		c1.716-0.987,3.63-1.648,5.688-1.922l0.228,0.228c1.777,1.444,4.223,1.466,6.031,0.243c2.423,0.691,4.611,1.952,6.411,3.638
		c1.952,1.846,4.998,1.838,6.958,0c2.81-2.621,6.516-4.239,10.648-4.246c4.132,0.007,7.854,1.625,10.656,4.246
		c1.952,1.838,4.998,1.846,6.95,0c2.825-2.636,6.532-4.239,10.656-4.246c4.14,0.007,7.846,1.61,10.664,4.246
		c1.944,1.846,4.998,1.838,6.95,0c2.818-2.621,6.525-4.239,10.657-4.246c4.132,0.007,7.838,1.625,10.649,4.246
		c1.96,1.838,5.006,1.846,6.958,0c2.818-2.636,6.524-4.239,10.656-4.246c4.132,0.007,7.839,1.61,10.664,4.246
		c1.952,1.846,4.998,1.838,6.95,0c2.81-2.621,6.517-4.239,10.657-4.246c4.124,0.007,7.831,1.625,10.649,4.246
		c1.96,1.838,5.006,1.846,6.958,0c2.81-2.636,6.524-4.239,10.656-4.246c4.132,0.007,7.831,1.61,10.649,4.246
		c1.96,1.846,5.006,1.838,6.958,0c2.81-2.621,6.525-4.239,10.656-4.246c4.132,0.007,7.839,1.625,10.649,4.246
		c1.96,1.838,5.006,1.846,6.958,0c2.818-2.636,6.524-4.239,10.656-4.246c4.079,0.007,7.74,1.549,10.512,4.101
		c2.78,2.552,4.626,6.061,4.99,10.026c0.16,1.709,1.155,3.212,2.666,4.01c2.461,1.307,4.542,3.266,5.993,5.628
		c1.458,2.378,2.294,5.135,2.294,8.127c0,4.322-1.731,8.188-4.572,11.021c-2.825,2.826-6.669,4.55-10.975,4.558
		c-0.061,0-0.19-0.008-0.434-0.016c-1.693-0.061-3.311,0.752-4.291,2.134c-1.42,1.998-3.289,3.654-5.454,4.786
		c-2.172,1.147-4.61,1.8-7.254,1.8c-4.132-0.008-7.846-1.61-10.656-4.238c-1.952-1.838-4.998-1.838-6.95,0
		c-2.81,2.628-6.517,4.23-10.656,4.238c-4.132-0.008-7.846-1.61-10.656-4.238c-1.944-1.838-4.998-1.838-6.95,0
		c-2.818,2.628-6.517,4.23-10.656,4.238c-4.132-0.008-7.839-1.61-10.664-4.238c-1.944-1.838-4.998-1.838-6.95,0
		c-2.81,2.628-6.517,4.23-10.649,4.238c-4.14-0.008-7.846-1.61-10.664-4.238c-1.944-1.838-4.998-1.838-6.95,0
		c-2.818,2.628-6.524,4.23-10.649,4.238c-4.14-0.008-7.846-1.61-10.664-4.238c-1.952-1.838-4.998-1.838-6.95,0
		c-2.818,2.628-6.525,4.23-10.657,4.238c-4.14-0.008-7.838-1.61-10.656-4.238c-1.944-1.838-4.998-1.838-6.95,0
		c-2.818,2.628-6.524,4.23-10.656,4.238c-4.139-0.008-7.838-1.61-10.656-4.238c-1.952-1.838-4.998-1.838-6.958,0
		c-2.81,2.628-6.516,4.23-10.648,4.238c-4.132-0.008-7.846-1.61-10.649-4.238c-1.968-1.838-5.006-1.838-6.965,0
		c-2.811,2.628-6.525,4.23-10.649,4.238c-3.79-0.008-7.216-1.337-9.928-3.57c-2.689-2.233-4.626-5.362-5.347-8.894
		c-0.349-1.716-1.564-3.137-3.205-3.745C122.603,218.197,120.043,216.215,118.251,213.686z M252.737,306.897
		c-12.608,0-22.824,10.216-22.824,22.825c0,1.269,0.129,2.499,0.319,3.715c-4.079,0.41-8.552,1.519-13.254,3.615l-0.357,0.167
		l-0.008,0.008l-0.091,0.053c-0.54,0.274-3.16,1.572-7.041,2.796c-3.889,1.215-9.031,2.34-14.599,2.34
		c-6.053-0.016-12.556-1.284-18.89-5.082c-6.327-3.79-10.17-7.618-12.472-11.385c-1.162-1.9-1.952-3.798-2.469-5.796
		c-0.516-1.998-0.76-4.094-0.76-6.327c0-4.269,0.904-9.084,2.385-14.355c2.21-7.915,5.696-16.816,8.742-26.6
		c2.651-8.522,4.968-17.743,5.719-27.677c3.38-0.646,6.517-1.976,9.282-3.791c4.056,2.666,8.917,4.269,14.135,4.254
		c5.226,0.016,10.079-1.588,14.128-4.254c4.056,2.682,8.917,4.269,14.135,4.254c5.218,0.016,10.087-1.572,14.128-4.254
		c4.056,2.666,8.925,4.269,14.143,4.254c5.21,0.016,10.079-1.588,14.128-4.254c4.048,2.682,8.917,4.269,14.135,4.254
		c5.211,0.016,10.079-1.572,14.128-4.254c4.048,2.666,8.917,4.269,14.136,4.254c4.496,0,8.72-1.177,12.396-3.213
		c0.653,14.835,4.96,28.134,9.001,39.915c2.104,6.122,4.14,11.841,5.613,17.113c1.481,5.271,2.385,10.086,2.377,14.355
		c0,2.233-0.243,4.329-0.752,6.327c-0.782,2.993-2.157,5.78-4.496,8.628c-2.339,2.842-5.704,5.704-10.444,8.553
		c-6.335,3.798-12.837,5.066-18.89,5.082c-6.038,0-11.576-1.314-15.548-2.644c-1.982-0.668-3.585-1.322-4.656-1.808
		c-0.539-0.244-0.942-0.433-1.2-0.57l-0.281-0.136l-0.046-0.03l-0.015-0.008l-0.357-0.167c-3.896-1.747-7.626-2.796-11.128-3.342
		c0.228-1.291,0.372-2.628,0.372-3.988C275.562,317.114,265.346,306.897,252.737,306.897z M426.53,316.817
		c-1.944,3.95-5.294,8.059-8.871,10.983c-1.793,1.466-3.631,2.628-5.302,3.388c-1.656,0.759-3.129,1.086-4.17,1.071
		c-1.724-0.008-3.532,0.448-5.051,1.337c-1.42,0.835-2.537,1.982-3.358,3.19c-0.782,1.124-1.352,2.317-1.815,3.547
		c-0.843,2.316-1.352,4.808-1.754,7.527c-0.692,4.763-1.048,10.24-1.618,16.134c-0.828,8.818-2.127,18.495-5.332,27.26
		c-1.602,4.39-3.661,8.553-6.342,12.32c-2.704,3.76-6.008,7.14-10.216,10.034c-8.986,6.175-15.427,12.024-20.22,17.355
		c-3.6,4.003-6.274,7.717-8.378,10.968c-1.588,2.453-2.864,4.648-3.965,6.494c-1.664,2.788-2.978,4.71-4.17,5.796
		c-0.6,0.554-1.162,0.934-1.853,1.261c-0.699,0.319-1.55,0.592-2.735,0.759c-4.762,0.684-9.608,0.919-13.945,0.919
		c-4.322,0-8.135-0.236-10.839-0.464c-1.352-0.121-2.43-0.236-3.152-0.311c-0.365-0.054-0.646-0.084-0.82-0.107l-0.205-0.03
		l-0.046-0.008c-1.739-0.25-3.479,0.426-4.61,1.777l-0.084,0.099c-0.904,1.071-9.077,10.755-18.457,20.03
		c-4.671,4.633-9.662,9.16-14.059,12.404c-2.188,1.61-4.223,2.893-5.886,3.714c-1.656,0.827-2.932,1.086-3.274,1.063
		c-0.182,0.008-0.6-0.046-1.208-0.228c-1.132-0.334-2.818-1.14-4.732-2.332c-3.35-2.096-7.39-5.362-11.424-9.046
		c-6.084-5.514-12.221-11.986-16.801-17.028c-2.302-2.53-4.208-4.71-5.537-6.244c-0.661-0.774-1.185-1.398-1.534-1.807
		c-0.175-0.212-0.311-0.365-0.395-0.471l-0.137-0.152c-1.284-1.542-3.357-2.179-5.286-1.632c-0.03,0.022-9.312,2.598-20.037,2.59
		c-2.727,0-5.529-0.167-8.294-0.555c-1.352-0.205-2.218-0.539-2.962-0.964c-0.639-0.38-1.231-0.873-1.884-1.603
		c-1.14-1.269-2.392-3.35-3.919-6.106c-2.302-4.147-5.256-9.7-10.232-15.913c-4.975-6.236-11.963-13.118-22.338-20.227
		c-3.874-2.682-6.996-5.773-9.571-9.198c-4.52-5.986-7.344-13.064-9.19-20.462c-1.383-5.537-2.21-11.241-2.796-16.703
		c-0.441-4.087-0.752-8.059-1.079-11.75c-0.25-2.765-0.516-5.378-0.881-7.794c-0.281-1.822-0.607-3.546-1.048-5.18
		c-0.327-1.222-0.73-2.392-1.254-3.532c-0.782-1.678-1.86-3.357-3.547-4.671c-0.843-0.66-1.823-1.192-2.878-1.542
		c-1.049-0.349-2.158-0.516-3.244-0.516c-0.684,0.008-1.565-0.129-2.575-0.448c-1.762-0.562-3.889-1.716-5.977-3.304
		c-3.152-2.378-6.228-5.735-8.386-9.206c-1.086-1.74-1.944-3.502-2.506-5.135c-0.562-1.632-0.828-3.144-0.828-4.383
		c0-0.835,0.114-1.534,0.312-2.149c0.303-0.912,0.751-1.634,1.64-2.4c0.881-0.76,2.279-1.542,4.443-2.142
		c3.706-1.01,7.132-2.795,10.322-5.043c5.583-3.957,10.505-9.32,14.902-15.131c6.571-8.727,11.925-18.51,15.692-26.152
		c2.856-5.818,4.793-10.376,5.568-12.274c2.416,0.744,4.975,1.162,7.626,1.162c5.218,0.016,10.072-1.588,14.135-4.254
		c2.628,1.732,5.606,3.008,8.803,3.684c-1.003,11.97-4.58,23.25-8.271,33.982c-2.073,6.046-4.17,11.91-5.788,17.667
		c-1.618,5.75-2.75,11.416-2.75,17.09c0,2.962,0.311,5.939,1.079,8.856c1.124,4.405,3.25,8.667,6.487,12.571
		c3.242,3.919,7.55,7.489,13.049,10.786c8.143,4.899,16.634,6.524,24.108,6.517c7.489-0.008,14.037-1.595,18.761-3.16
		c4.026-1.344,6.73-2.681,7.55-3.106c4.922-2.18,9.206-2.894,12.867-2.894c0.144,0,0.281,0,0.433,0
		c4.162,5.552,10.778,9.161,18.244,9.161c7.451,0,14.052-3.586,18.214-9.107c3.266,0.198,6.973,0.987,11.15,2.84
		c0.82,0.426,3.524,1.762,7.558,3.106c4.724,1.565,11.264,3.152,18.761,3.16c7.474,0.007,15.958-1.618,24.108-6.517
		c7.33-4.398,12.555-9.297,15.92-14.804c1.671-2.75,2.864-5.621,3.616-8.553c0.76-2.917,1.086-5.894,1.086-8.856
		c0-5.674-1.147-11.34-2.757-17.09c-2.423-8.629-5.917-17.53-8.826-26.88c-2.484-7.945-4.519-16.209-5.226-24.815
		c1.785,0.395,3.631,0.615,5.537,0.615c5.218,0.016,10.079-1.572,14.128-4.254c4.056,2.666,8.91,4.269,14.135,4.254
		c1.945,0,3.843-0.22,5.674-0.638c1.557,3.744,6.016,14.059,12.525,25.058c4.064,6.866,8.91,13.991,14.462,19.991
		c2.795,3.008,5.75,5.727,8.955,7.983c3.183,2.248,6.624,4.033,10.322,5.043c1.444,0.395,2.56,0.874,3.388,1.374
		c1.245,0.768,1.891,1.512,2.332,2.309c0.433,0.805,0.676,1.755,0.676,3.008C428.49,311.66,427.837,314.189,426.53,316.817z"/>
	<path class="st0" d="M221.102,8.15c0.008,0,0.008,0,0.008,0c0.008-0.008,0.008-0.008,0.008-0.008L221.102,8.15z"/>
</g>
</svg>