<?xml version="1.0" encoding="utf-8"?>

<!DOCTYPE svg PUBLIC "-//W3C//DTD SVG 1.1//EN" "http://www.w3.org/Graphics/SVG/1.1/DTD/svg11.dtd">
<!-- Uploaded to: SVG Repo, www.svgrepo.com, Generator: SVG Repo Mixer Tools -->
<svg height="800px" width="800px" version="1.1" id="_x32_" xmlns="http://www.w3.org/2000/svg" xmlns:xlink="http://www.w3.org/1999/xlink" 
	 viewBox="0 0 512 512"  xml:space="preserve">
<style type="text/css">
	.st0{fill:#000000;}
</style>
<g>
	<path class="st0" d="M210.55,229.285c-4.835,0-8.747,3.916-8.747,8.736c0,4.827,3.912,8.734,8.747,8.734
		c4.823,0,8.736-3.907,8.736-8.734C219.286,233.2,215.373,229.285,210.55,229.285z"/>
	<path class="st0" d="M296.201,246.755c4.831,0,8.746-3.907,8.746-8.734c0-4.82-3.915-8.736-8.746-8.736
		c-4.823,0-8.739,3.916-8.739,8.736C287.462,242.848,291.378,246.755,296.201,246.755z"/>
	<path class="st0" d="M267.191,302.791h-22.439c-2.249,0-4.077,1.816-4.077,4.077c0,2.261,1.828,4.076,4.077,4.076h22.439
		c2.257,0,4.077-1.816,4.077-4.076C271.268,304.607,269.448,302.791,267.191,302.791z"/>
	<path class="st0" d="M112.976,233.239l-0.122,0.069c0.008,0,0.008,0,0.008,0L112.976,233.239z"/>
	<path class="st0" d="M117.6,274.003l-0.061-0.053c0,0,0,0-0.008,0L117.6,274.003z"/>
	<path class="st0" d="M112.845,233.316c0,0,0,0,0.008,0v-0.008L112.845,233.316z"/>
	<polygon class="st0" points="401.852,235.262 401.81,235.223 401.814,235.231 401.818,235.231 	"/>
	<path class="st0" d="M444.839,457.527c-11.548-63.667-37.7-122.5-65.132-154.637c0.318-2.114,0.582-4.191,0.79-6.168
		c0.387-3.547,0.636-6.827,0.9-9.662c0.191-2.122,0.387-4.016,0.613-5.518c0.077-0.513,0.161-0.981,0.238-1.402
		c0.789-0.161,1.556-0.352,2.283-0.582l0.008-0.008c3.28-1.057,6.192-2.751,8.808-4.72l0.007-0.016
		c3.923-2.973,7.356-6.75,10.019-10.988c1.329-2.13,2.471-4.406,3.31-6.842v-0.008c0.835-2.421,1.402-5.065,1.402-7.893
		c0-1.9-0.26-3.877-0.904-5.854c-0.977-3.034-2.804-5.816-5.363-8c-2.517-2.145-5.518-3.578-8.755-4.452h-0.007
		c-1.073-0.291-2.506-0.965-4.096-2.092h-0.008c-2.774-1.931-6.027-5.326-8.988-9.272l-0.008-0.016
		c-4.498-5.946-8.512-13.202-11.294-18.873c-0.962-1.938-1.778-3.7-2.429-5.164c5.356-0.927,10.18-3.494,13.869-7.18
		c4.678-4.674,7.59-11.195,7.59-18.336c0-4.942-1.403-9.616-3.82-13.555c-1.571-2.559-3.598-4.789-5.916-6.651
		c-1.329-4.69-3.93-8.835-7.425-12.03h0.008c-4.574-4.199-10.72-6.774-17.413-6.812h-0.088c-0.05,0-0.162,0-0.292,0.008
		c-2.67,0.031-5.252,0.468-7.674,1.249l-51.093-61.982c0.444-1.762,0.712-3.601,0.712-5.487c0-1.026-0.088-2.038-0.226-3.034
		c1.073-0.927,2.069-1.962,2.954-3.096c2.953-3.77,4.72-8.582,4.72-13.739c0-6.153-2.513-11.784-6.555-15.823l0.008,0.016
		c-2.414-2.421-5.39-4.26-8.705-5.364c-0.797-4.659-3.012-8.843-6.206-12.038l0.011,0.016c-3.923-3.931-9.355-6.399-15.305-6.537
		c-0.077,0-0.207-0.015-0.376-0.015c0,0-0.035,0-0.096,0c-0.008,0-0.008,0-0.019,0c-0.008,0-0.008,0-0.016,0
		c-0.008,0-0.008,0-0.019,0c-0.024,0-0.058,0-0.085,0s-0.042,0-0.076,0c-0.008,0-0.028,0-0.034,0
		c-2.035,0.015-4.019,0.322-5.889,0.858c-0.671-0.614-1.364-1.196-2.112-1.717c-3.536-2.521-7.881-4.023-12.512-4.099
		c-0.069-0.008-0.165-0.008-0.284-0.016h-0.046c-0.008,0-0.015,0-0.023,0c-0.012,0-0.02,0-0.027,0c-0.008,0-0.02,0-0.02,0
		c-0.015,0-0.023,0-0.03,0c-0.096,0-0.226,0-0.429,0.023c-5.977,0.123-11.424,2.59-15.348,6.536V6.552
		c-2.997,2.988-5.115,6.866-6.027,11.156c-2.885,1.135-5.482,2.836-7.632,4.981c-4.042,4.03-6.555,9.662-6.555,15.823
		c0,4.567,1.406,8.858,3.777,12.406c-2.352,3.532-3.743,7.8-3.743,12.36c0,5.21,1.809,10.022,4.804,13.823l-43.792,53.828
		c-3.765,0.352-7.321,1.502-10.444,3.303c-2.199,1.257-4.172,2.828-5.896,4.636c-5.93,0.698-11.298,3.387-15.306,7.402l0.008-0.015
		c-4.686,4.681-7.594,11.202-7.594,18.343c-0.011,5.555,1.759,10.751,4.755,14.966c2.049,2.888,4.686,5.31,7.708,7.149
		c1.081,2.636,2.582,5.042,4.418,7.149c-1.594,3.671-4.666,10.276-8.65,16.934c-2.92,4.897-6.368,9.832-9.812,13.494h-0.008
		c-1.716,1.838-3.44,3.364-4.996,4.451h-0.008c-1.551,1.096-2.954,1.748-4.015,2.038h-0.012c-2.153,0.582-4.195,1.402-6.076,2.537
		c-2.866,1.701-5.234,4.091-6.797,6.988c-1.544,2.866-2.145,5.923-2.145,8.781v0.016c0.015,4.268,1.28,8.152,2.95,11.57l0.012,0.015
		c2.568,5.134,6.318,9.678,10.651,13.256l0.016,0.008c2.192,1.785,4.578,3.356,7.187,4.551h0.016c1.536,0.698,3.21,1.28,5.003,1.648
		c0.008,0.031,0.008,0.054,0.02,0.084v0.008l0.008,0.03c0.241,1.241,0.456,2.966,0.652,4.973c0.206,2.016,0.394,4.314,0.616,6.796
		c0.303,3.326,0.67,7.004,1.245,10.85c-27.432,32.136-53.584,90.97-65.123,154.637c-3.498,19.302,9.034,24.827,18.646,29.509
		C109.121,498.384,193.065,512,255.997,512c62.944,0,146.886-13.616,170.188-24.964
		C435.801,482.354,448.333,476.829,444.839,457.527z M223.768,32.175c1.628-1.624,3.842-2.62,6.333-2.62
		c0.145,0,0.379,0.008,0.705,0.03c1.302,0.108,2.582-0.429,3.433-1.433c0.843-0.996,1.157-2.344,0.843-3.609
		c-0.184-0.743-0.284-1.464-0.284-2.176c0.008-2.49,1.004-4.704,2.625-6.344c1.64-1.624,3.854-2.621,6.333-2.621
		c1.943,0,3.701,0.606,5.16,1.64c1.46,1.034,2.602,2.498,3.238,4.199c0.472,1.279,1.56,2.245,2.881,2.551
		c1.333,0.307,2.732-0.061,3.728-0.996c1.621-1.51,3.74-2.421,6.11-2.429c2.487,0.008,4.701,0.996,6.334,2.628
		c1.632,1.64,2.628,3.854,2.628,6.345c0,1.103-0.207,2.161-0.594,3.18c-0.532,1.402-0.256,2.973,0.713,4.107
		c0.977,1.142,2.49,1.647,3.95,1.325c0.617-0.13,1.233-0.191,1.877-0.191c2.482,0,4.698,0.996,6.337,2.621
		c1.621,1.632,2.617,3.846,2.624,6.336c-0.008,2.084-0.704,3.962-1.888,5.486c-1.184,1.525-2.858,2.651-4.762,3.157
		c-1.28,0.345-2.303,1.272-2.767,2.513c-0.464,1.234-0.299,2.621,0.441,3.709c0.961,1.433,1.516,3.134,1.516,5.003
		c0,2.49-0.996,4.706-2.617,6.338c-1.639,1.632-3.854,2.628-6.344,2.628c-2.839,0-5.336-1.31-6.996-3.386
		c-0.992-1.234-2.617-1.786-4.153-1.41c-1.544,0.383-2.728,1.617-3.038,3.172c-0.402,2.053-1.509,3.854-3.065,5.149
		c-1.559,1.295-3.528,2.061-5.716,2.061c-1.992,0-3.785-0.636-5.268-1.716c-1.486-1.08-2.628-2.621-3.222-4.391
		c-0.395-1.18-1.303-2.107-2.487-2.528c-1.176-0.422-2.464-0.284-3.528,0.375c-1.391,0.866-2.989,1.357-4.72,1.357
		c-2.49,0-4.705-0.996-6.337-2.621c-1.628-1.64-2.617-3.847-2.624-6.337c0.008-2,0.643-3.808,1.732-5.295
		c1.1-1.487,2.647-2.62,4.421-3.211c1.674-0.552,2.8-2.115,2.8-3.884c0-1.756-1.134-3.318-2.808-3.87
		c-1.785-0.582-3.337-1.724-4.436-3.211c-1.092-1.494-1.736-3.295-1.736-5.295C221.14,36.021,222.135,33.807,223.768,32.175z
		 M145.239,171.808c-1.441-2.038-2.291-4.505-2.291-7.211c0-3.463,1.398-6.574,3.674-8.858c2.272-2.268,5.38-3.663,8.858-3.67
		c0.376,0,0.771,0.023,1.2,0.069c1.555,0.137,3.038-0.598,3.854-1.931c1.107-1.809,2.651-3.31,4.483-4.352
		c1.378-0.797,2.926-1.334,4.574-1.548l0.18,0.184c1.426,1.158,3.398,1.173,4.851,0.2c1.946,0.544,3.705,1.564,5.156,2.927
		c1.571,1.471,4.027,1.471,5.598,0c2.257-2.122,5.234-3.41,8.567-3.41c3.321,0,6.298,1.288,8.563,3.41
		c1.571,1.471,4.019,1.471,5.59,0c2.264-2.122,5.246-3.41,8.567-3.41c3.329,0,6.306,1.288,8.574,3.41
		c1.571,1.471,4.015,1.471,5.586,0c2.26-2.122,5.244-3.41,8.567-3.41c3.329,0,6.31,1.288,8.566,3.41
		c1.571,1.471,4.027,1.471,5.586,0c2.268-2.122,5.256-3.41,8.578-3.41c3.322,0,6.298,1.288,8.563,3.41
		c1.571,1.471,4.026,1.471,5.597,0c2.257-2.122,5.238-3.41,8.567-3.41c3.322,0,6.299,1.288,8.567,3.41
		c1.571,1.471,4.016,1.471,5.586,0c2.268-2.122,5.246-3.41,8.567-3.41c3.33,0,6.31,1.288,8.574,3.41c1.571,1.471,4.019,1.471,5.59,0
		c2.256-2.122,5.241-3.41,8.567-3.41c3.329,0,6.306,1.288,8.563,3.41c1.571,1.471,4.026,1.471,5.59,0
		c2.264-2.122,5.253-3.41,8.574-3.41c3.28,0,6.214,1.234,8.456,3.288c2.238,2.054,3.717,4.88,4.008,8.061
		c0.126,1.372,0.935,2.574,2.145,3.226c1.981,1.05,3.655,2.628,4.824,4.529c1.168,1.908,1.835,4.123,1.835,6.536
		c0,3.472-1.399,6.575-3.67,8.858c-2.268,2.26-5.368,3.655-8.823,3.663c-0.054,0-0.158-0.008-0.353-0.016
		c-1.368-0.045-2.662,0.598-3.452,1.717c-1.142,1.602-2.644,2.935-4.387,3.854c-1.743,0.92-3.708,1.44-5.828,1.44
		c-3.321,0-6.31-1.288-8.574-3.41c-1.563-1.471-4.019-1.471-5.586,0c-2.26,2.122-5.245,3.41-8.567,3.41
		c-3.322,0-6.31-1.288-8.566-3.41c-1.571-1.471-4.019-1.471-5.59,0c-2.264,2.122-5.241,3.41-8.574,3.41
		c-3.322,0-6.298-1.288-8.567-3.41c-1.571-1.471-4.015-1.471-5.586,0c-2.264,2.122-5.245,3.41-8.566,3.41
		c-3.329,0-6.31-1.288-8.567-3.41c-1.571-1.471-4.023-1.471-5.594,0c-2.268,2.122-5.246,3.41-8.567,3.41s-6.31-1.288-8.574-3.41
		c-1.571-1.471-4.019-1.471-5.59,0c-2.256,2.122-5.244,3.41-8.567,3.41c-3.321,0-6.306-1.288-8.566-3.41
		c-1.571-1.471-4.015-1.471-5.586,0c-2.264,2.122-5.244,3.41-8.574,3.41c-3.322,0-6.298-1.288-8.567-3.41
		c-1.571-1.471-4.015-1.471-5.586,0c-2.268,2.122-5.244,3.41-8.566,3.41c-3.329,0-6.31-1.288-8.574-3.41
		c-1.564-1.471-4.02-1.471-5.59,0c-2.264,2.122-5.245,3.41-8.567,3.41c-3.046,0-5.801-1.072-7.974-2.865
		c-2.172-1.794-3.724-4.299-4.298-7.158c-0.283-1.379-1.264-2.513-2.574-3.018C148.733,175.441,146.679,173.854,145.239,171.808z
		 M253.38,246.755c-10.138,0-18.36,8.23-18.36,18.36c0,1.026,0.103,2.015,0.264,2.981c-3.287,0.337-6.881,1.218-10.659,2.912
		l-0.291,0.137l-0.011,0.008l-0.069,0.031c-0.429,0.23-2.54,1.288-5.662,2.253c-3.126,0.988-7.253,1.878-11.735,1.878
		c-4.866-0.008-10.091-1.027-15.192-4.076c-5.08-3.058-8.179-6.122-10.026-9.157c-0.934-1.517-1.571-3.058-1.98-4.659
		c-0.414-1.609-0.61-3.294-0.61-5.103c0-3.417,0.72-7.279,1.912-11.524c1.778-6.36,4.574-13.517,7.03-21.394
		c2.13-6.85,3.992-14.267,4.593-22.252c2.72-0.521,5.242-1.578,7.468-3.058c3.26,2.153,7.164,3.433,11.363,3.433
		c4.195,0,8.111-1.28,11.364-3.433c3.26,2.153,7.168,3.433,11.363,3.433c4.2,0,8.103-1.28,11.368-3.433
		c3.252,2.153,7.164,3.433,11.363,3.433c4.196,0,8.103-1.28,11.363-3.433c3.253,2.153,7.168,3.433,11.364,3.433
		c4.198,0,8.103-1.28,11.355-3.433c3.261,2.153,7.168,3.433,11.364,3.433c3.624,0,7.014-0.95,9.965-2.589
		c0.541,11.93,4,22.626,7.245,32.098c1.69,4.919,3.322,9.524,4.517,13.762c1.184,4.245,1.912,8.107,1.904,11.524
		c0,1.809-0.188,3.494-0.602,5.103c-0.636,2.407-1.732,4.652-3.613,6.943c-1.888,2.275-4.594,4.582-8.402,6.873
		c-5.092,3.057-10.317,4.068-15.188,4.076c-4.858,0.008-9.302-1.05-12.505-2.115c-1.594-0.536-2.873-1.066-3.74-1.464
		c-0.429-0.184-0.758-0.337-0.961-0.452l-0.226-0.114l-0.042-0.016l-0.008-0.008l-0.284-0.137c-3.134-1.402-6.137-2.246-8.942-2.69
		c0.18-1.042,0.291-2.108,0.291-3.203C271.731,254.985,263.517,246.755,253.38,246.755z M255.997,489.802
		c-7.081,0-12.823-5.739-12.823-12.819c0-7.08,5.742-12.826,12.823-12.826c7.08,0,12.823,5.746,12.823,12.826
		C268.82,484.063,263.076,489.802,255.997,489.802z M255.997,442.011c-7.081,0-12.823-5.739-12.823-12.827
		c0-7.064,5.742-12.812,12.823-12.812c7.08,0,12.823,5.748,12.823,12.812C268.82,436.272,263.076,442.011,255.997,442.011z
		 M374.309,268.233c-1.15,0.667-2.043,1.587-2.705,2.56c-0.625,0.912-1.08,1.87-1.448,2.858c-0.69,1.862-1.092,3.862-1.418,6.054
		c-0.559,3.824-0.85,8.229-1.294,12.964c-0.671,7.096-1.717,14.865-4.295,21.923c-1.287,3.532-2.942,6.866-5.107,9.9
		c-2.168,3.026-4.831,5.747-8.203,8.068c-7.229,4.965-12.413,9.67-16.267,13.961c-2.893,3.218-5.038,6.198-6.727,8.827
		c-1.28,1.962-2.303,3.732-3.196,5.211c-1.337,2.245-2.394,3.792-3.352,4.658c-0.482,0.444-0.928,0.751-1.487,1.019
		c-0.559,0.26-1.244,0.475-2.206,0.613c-3.82,0.537-7.724,0.728-11.198,0.728c-3.487,0-6.544-0.184-8.724-0.368
		c-1.08-0.092-1.946-0.191-2.532-0.26c-0.291-0.031-0.513-0.061-0.659-0.077l-0.165-0.015l-0.034-0.008h-0.008
		c-1.398-0.207-2.796,0.33-3.708,1.425l-0.069,0.077c-0.72,0.866-7.295,8.652-14.831,16.099c-3.758,3.724-7.778,7.371-11.302,9.977
		c-1.762,1.302-3.402,2.329-4.739,2.988c-1.329,0.667-2.352,0.881-2.636,0.858c-0.146,0-0.48-0.038-0.97-0.184
		c-0.9-0.26-2.264-0.905-3.793-1.878c-2.697-1.686-5.95-4.314-9.194-7.272c-4.893-4.436-9.828-9.64-13.509-13.701
		c-1.847-2.03-3.383-3.785-4.444-5.018c-0.541-0.621-0.954-1.111-1.245-1.441c-0.138-0.176-0.249-0.299-0.318-0.391l-0.104-0.115
		c-1.031-1.234-2.704-1.754-4.249-1.317c-0.027,0.022-7.494,2.1-16.118,2.076c-2.18,0.016-4.448-0.114-6.662-0.444
		c-1.088-0.153-1.786-0.422-2.387-0.767c-0.514-0.306-0.985-0.697-1.51-1.294c-0.92-1.02-1.923-2.682-3.15-4.912
		c-1.854-3.325-4.233-7.8-8.233-12.796c-4-4.996-9.62-10.536-17.953-16.26c-3.119-2.145-5.632-4.636-7.701-7.394
		c-3.632-4.812-5.915-10.506-7.39-16.452c-1.115-4.459-1.778-9.026-2.242-13.424c-0.36-3.295-0.609-6.483-0.873-9.44
		c-0.207-2.238-0.422-4.33-0.713-6.283c-0.215-1.471-0.479-2.851-0.832-4.153c-0.275-0.989-0.594-1.931-1.015-2.843
		c-0.625-1.364-1.494-2.705-2.858-3.762c-0.667-0.521-1.46-0.958-2.307-1.233c-0.843-0.284-1.736-0.422-2.601-0.414
		c-0.56,0-1.265-0.115-2.077-0.367c-1.417-0.453-3.126-1.372-4.808-2.651c-2.532-1.916-5.011-4.621-6.746-7.41
		c-0.866-1.394-1.563-2.804-2.008-4.122c-0.456-1.318-0.67-2.528-0.67-3.525c0-0.666,0.088-1.241,0.249-1.724
		c0.249-0.743,0.609-1.326,1.314-1.939c0.712-0.597,1.835-1.242,3.578-1.716c2.981-0.812,5.736-2.253,8.302-4.062
		c4.487-3.172,8.444-7.494,11.981-12.16c5.287-7.027,9.586-14.889,12.616-21.034c2.303-4.666,3.854-8.337,4.483-9.869
		c1.939,0.598,3.992,0.942,6.126,0.942c4.199,0,8.103-1.28,11.367-3.433c2.11,1.41,4.505,2.429,7.08,2.973
		c-0.808,9.617-3.693,18.69-6.65,27.317c-1.674,4.874-3.357,9.578-4.655,14.206c-1.295,4.636-2.214,9.188-2.214,13.731
		c0,2.399,0.26,4.782,0.869,7.142c0.901,3.532,2.617,6.957,5.219,10.099c2.609,3.15,6.068,6.023,10.486,8.674
		c6.559,3.938,13.375,5.24,19.39,5.24c6.019,0,11.279-1.272,15.083-2.536c3.241-1.088,5.414-2.161,6.077-2.506
		c3.958-1.747,7.398-2.33,10.34-2.337c0.123,0,0.226,0.022,0.345,0.022c3.348,4.46,8.67,7.356,14.678,7.356
		c5.992,0,11.294-2.881,14.643-7.325c2.625,0.161,5.605,0.797,8.969,2.284c0.662,0.344,2.831,1.417,6.076,2.506
		c3.793,1.264,9.057,2.536,15.079,2.536c6.012,0,12.835-1.302,19.39-5.24c5.889-3.532,10.096-7.479,12.789-11.908
		c1.349-2.2,2.311-4.513,2.92-6.866c0.609-2.36,0.866-4.743,0.866-7.142c-0.007-4.544-0.927-9.096-2.214-13.731
		c-1.946-6.934-4.762-14.084-7.096-21.608c-1.992-6.398-3.632-13.034-4.206-19.953c1.441,0.314,2.927,0.498,4.456,0.498
		c4.195,0,8.103-1.28,11.363-3.433c3.253,2.153,7.168,3.433,11.363,3.433c1.564,0,3.092-0.184,4.56-0.513
		c1.245,3.004,4.839,11.302,10.068,20.145c3.268,5.517,7.164,11.241,11.636,16.076c2.242,2.414,4.628,4.605,7.195,6.414
		c2.567,1.809,5.321,3.249,8.298,4.062c1.162,0.314,2.054,0.704,2.72,1.103c1.016,0.62,1.528,1.21,1.881,1.854
		c0.345,0.644,0.541,1.41,0.548,2.421c0.011,1.51-0.514,3.548-1.571,5.655c-1.552,3.18-4.256,6.49-7.13,8.835
		c-1.444,1.172-2.92,2.108-4.256,2.72c-1.341,0.613-2.525,0.866-3.356,0.866C376.979,267.153,375.52,267.514,374.309,268.233z"/>
</g>
</svg>