<?xml version="1.0" encoding="utf-8"?>

<!DOCTYPE svg PUBLIC "-//W3C//DTD SVG 1.1//EN" "http://www.w3.org/Graphics/SVG/1.1/DTD/svg11.dtd">
<!-- Uploaded to: SVG Repo, www.svgrepo.com, Generator: SVG Repo Mixer Tools -->
<svg height="800px" width="800px" version="1.1" id="_x32_" xmlns="http://www.w3.org/2000/svg" xmlns:xlink="http://www.w3.org/1999/xlink" 
	 viewBox="0 0 512 512"  xml:space="preserve">
<style type="text/css">
	.st0{fill:#000000;}
</style>
<g>
	<path class="st0" d="M208.536,239.124c0,3.7,3.008,6.708,6.708,6.708c3.701,0,6.708-3.008,6.708-6.708
		c0-3.7-3.007-6.708-6.708-6.708C211.544,232.416,208.536,235.423,208.536,239.124z"/>
	<path class="st0" d="M296.755,245.832c3.7,0,6.708-3.008,6.708-6.708c0-3.7-3.008-6.708-6.708-6.708
		c-3.701,0-6.708,3.007-6.708,6.708C290.047,242.824,293.055,245.832,296.755,245.832z"/>
	<path class="st0" d="M387.171,329.988c1.991-9.156,3.118-18.644,3.133-28.406c-0.015-0.11,0.031-0.567,0.031-1.346v-0.031v-0.016
		c-0.038-4.676-0.535-10.722-1.543-17.392v-0.023v-0.008c-1.055-6.668-2.622-13.864-4.881-20.643l-7.149-21.447l-8.472-26.564
		c10.739-5.929,18.029-17.353,18.029-30.492v-0.016c-0.031-19.281-15.62-34.91-34.918-34.91c-2.692,0-5.298,0.346-7.794,0.93
		l-54.049-76.638c6.63-7.716,10.692-17.754,10.692-28.738C300.243,19.809,280.434,0,256.004,0
		c-24.438,0-44.247,19.809-44.255,44.246c-0.008,10.983,4.062,21.022,10.684,28.738l-54.041,76.638
		c-2.504-0.583-5.103-0.93-7.795-0.93c-19.305,0-34.886,15.628-34.926,34.91v0.016c0.008,13.14,7.298,24.564,18.03,30.484
		l-8.472,26.588l-7.149,21.431c-2.252,6.779-3.827,13.975-4.874,20.651l-0.008,0.023c-1.008,6.669-1.496,12.716-1.543,17.4v0.016
		v0.023c0.008,0.748,0.047,1.204,0.032,1.338c0.015,9.778,1.15,19.273,3.134,28.43c-21.195,24.123-34.092,54.561-34.083,87.707
		v0.102c-0.008,20.053,4.81,36.901,14.069,50.223v-0.008c6.905,9.983,16.093,17.762,26.698,23.682l-2.316-1.284l2.339,1.3
		c0.015,0,0.015,0.016,0.031,0.016c15.951,8.873,35.004,13.778,56.034,16.644h0.008c21.044,2.85,44.176,3.606,68.402,3.614
		c43.051-0.071,82.637-2.228,113.342-14.896l0.016-0.007c15.336-6.377,28.595-15.708,37.838-29.068l0.3-0.441l-0.307,0.449
		c9.25-13.322,14.085-30.17,14.069-50.223v-0.087v-0.016C421.262,384.572,408.374,354.111,387.171,329.988z M236.226,24.478
		c5.055-5.062,12.03-8.181,19.778-8.212c7.731,0.032,14.708,3.15,19.77,8.212c5.094,5.054,8.212,12.03,8.212,19.769
		c0,7.74-3.118,14.676-8.212,19.778c-5.062,5.062-12.038,8.172-19.77,8.172c-7.747,0-14.722-3.11-19.778-8.172
		c-5.102-5.102-8.211-12.038-8.211-19.778C228.015,36.508,231.125,29.532,236.226,24.478z M141.937,183.618
		c0-5.173,2.094-9.803,5.464-13.204c3.394-3.362,8.024-5.456,13.196-5.456c6.031,0,11.353,2.858,14.785,7.338
		c1.008,1.307,2.598,2.102,4.268,2.102c1.693,0,3.291-0.764,4.298-2.102c3.464-4.48,8.787-7.338,14.786-7.338
		c6.039,0,11.353,2.858,14.786,7.338c1.008,1.338,2.638,2.133,4.299,2.133c1.7,0,3.291-0.795,4.307-2.133
		c3.433-4.48,8.747-7.338,14.786-7.338c6.038,0,11.314,2.858,14.786,7.338c1.015,1.338,2.598,2.133,4.306,2.133
		c1.693,0,3.291-0.795,4.298-2.133c3.464-4.48,8.74-7.338,14.786-7.338c6.039,0,11.353,2.858,14.786,7.338
		c1.008,1.338,2.598,2.133,4.299,2.133c1.669,0,3.291-0.795,4.299-2.133c3.441-4.48,8.756-7.338,14.786-7.338
		c6.007,0,11.322,2.858,14.786,7.338c1.023,1.338,2.606,2.102,4.314,2.102c1.653,0,3.244-0.795,4.26-2.102
		c3.44-4.48,8.746-7.338,14.785-7.338c5.173,0,9.803,2.094,13.196,5.456c3.362,3.401,5.456,8.031,5.456,13.204
		c0,5.164-2.094,9.794-5.456,13.156c-3.394,3.393-8.024,5.456-13.196,5.456c-6.038,0-11.345-2.85-14.746-7.298
		c-1.054-1.338-2.645-2.134-4.298-2.134c-1.708,0-3.291,0.796-4.314,2.134c-3.464,4.448-8.74,7.298-14.786,7.298
		c-6.03,0-11.345-2.85-14.786-7.298c-1.008-1.338-2.63-2.134-4.299-2.134c-1.7,0-3.291,0.796-4.299,2.134
		c-3.433,4.448-8.747,7.298-14.786,7.298c-6.046,0-11.322-2.85-14.786-7.298c-1.008-1.338-2.606-2.134-4.298-2.134
		c-1.708,0-3.291,0.796-4.306,2.134c-3.472,4.448-8.748,7.298-14.786,7.298c-6.039,0-11.353-2.85-14.786-7.298
		c-1.016-1.338-2.606-2.134-4.307-2.134c-1.661,0-3.291,0.796-4.299,2.134c-3.433,4.448-8.747,7.298-14.786,7.298
		c-6.038,0-11.322-2.85-14.786-7.298c-1.008-1.338-2.606-2.134-4.298-2.134c-1.669,0-3.26,0.796-4.306,2.134
		c-3.394,4.448-8.716,7.298-14.747,7.298c-5.172,0-9.802-2.062-13.196-5.456C144.032,193.412,141.937,188.783,141.937,183.618z
		 M256.004,255.594c-9.51,0-17.179,7.7-17.179,17.211c0,1.188,0.11,2.378,0.362,3.542l-0.22,0.102
		c-6.362,2.968-16.408,5.495-31.949,5.495c-15.188,0-27.698-5.535-37.35-13.305c-9.038-7.299-15.369-16.66-18.407-24.73
		l9.841-30.871c7.086-0.102,13.557-2.748,18.58-7.015c4.835,4.126,11.022,6.708,17.801,6.999
		c-7.141,4.496-12.321,11.818-13.951,20.415h-4.086c-2.787,0-5.023,2.252-5.023,5.032c0,2.763,2.236,5.031,5.023,5.031h3.858
		c2.102,15.077,14.99,26.69,30.658,26.69c16.337,0,29.713-12.66,30.862-28.713c0.567-0.268,1.181-0.519,1.827-0.78
		c2.307-0.897,5.15-1.661,7.858-1.653c3.134-0.008,6.448,1.008,8.928,2.094c0.441,0.196,0.85,0.378,1.228,0.583
		c1.276,15.928,14.597,28.469,30.863,28.469c15.66,0,28.548-11.612,30.642-26.69h6.385c2.779,0,5.031-2.268,5.031-5.031
		c0-2.78-2.252-5.032-5.031-5.032h-6.606c-1.629-8.597-6.81-15.919-13.951-20.415c0.425,0.016,0.834,0.056,1.26,0.056
		c7.274,0,13.92-2.677,19.053-7.054c5.031,4.266,11.502,6.912,18.588,7.015l9.834,30.871c-3.039,8.07-9.369,17.431-18.407,24.73
		c-9.653,7.77-22.156,13.305-37.343,13.305c-15.541,0-25.596-2.527-31.957-5.495l-0.221-0.102c0.252-1.165,0.362-2.354,0.362-3.542
		C273.167,263.295,265.507,255.594,256.004,255.594z M228.723,224.433c3.803,3.795,6.134,8.999,6.134,14.801
		c0,5.779-2.331,10.975-6.134,14.77c-3.779,3.795-8.991,6.126-14.762,6.126c-5.795,0-10.991-2.331-14.802-6.126
		c-3.788-3.795-6.117-8.991-6.117-14.77c0-5.802,2.33-11.006,6.117-14.801c3.81-3.78,9.006-6.11,14.802-6.11
		C219.732,218.322,224.944,220.653,228.723,224.433z M214.756,208.284c1.063-0.693,2.103-1.433,3.063-2.259
		c1.693,1.448,3.567,2.677,5.559,3.716C220.653,208.875,217.756,208.363,214.756,208.284z M295.527,218.322
		c5.794,0,10.991,2.331,14.801,6.11c3.78,3.795,6.11,8.999,6.11,14.801c0,5.779-2.33,10.975-6.11,14.77
		c-3.81,3.795-9.007,6.126-14.801,6.126c-5.795,0-10.991-2.331-14.77-6.126c-3.803-3.795-6.134-8.991-6.134-14.77
		c0-5.802,2.331-11.006,6.134-14.801C284.536,220.653,289.732,218.322,295.527,218.322z M290.504,208.678
		c1.292-0.796,2.528-1.678,3.669-2.653c0.984,0.842,2.047,1.598,3.134,2.298c-0.598-0.031-1.181-0.079-1.779-0.079
		C293.811,208.245,292.142,208.41,290.504,208.678z M264.995,234.069c-2.866-1.134-6.496-2.149-10.487-2.165
		c-3.811,0.016-7.259,0.945-10.046,1.992c-1.693-9.7-7.897-17.832-16.36-22.194c2.787,0.874,5.748,1.378,8.81,1.378
		c7.266,0,13.959-2.677,19.092-7.054c5.134,4.377,11.81,7.054,19.084,7.054c1.512,0,2.984-0.142,4.441-0.363
		C271.971,217.299,266.514,225.007,264.995,234.069z M374.039,301.291v0.141c0,32.643-13.196,62.104-34.563,83.472
		c-21.368,21.367-50.869,34.563-83.472,34.602c-32.611-0.039-62.119-13.235-83.48-34.602
		c-21.367-21.368-34.563-50.829-34.563-83.472v-0.141c0-0.332-0.038-0.654-0.038-1.056c0-3.535,0.44-9.038,1.378-14.959
		c0.906-5.928,2.307-12.369,4.196-18.006l2.96-8.786c4.047,6.582,9.542,13.014,16.377,18.581
		c11.242,9.109,26.281,15.762,44.184,15.73c11.857,0,21.178-1.378,28.516-3.503c3.511-1.055,6.55-2.283,9.18-3.621
		c3.04,2.637,6.945,4.298,11.29,4.298c4.33,0,8.235-1.662,11.275-4.298c2.637,1.338,5.668,2.566,9.18,3.621
		c7.338,2.125,16.668,3.503,28.524,3.503c17.896,0.032,32.934-6.621,44.176-15.73c6.834-5.567,12.33-11.999,16.377-18.581
		l2.968,8.786c1.882,5.637,3.291,12.078,4.196,18.006c0.938,5.921,1.37,11.424,1.37,14.959
		C374.07,300.637,374.039,300.959,374.039,301.291z"/>
</g>
</svg>