<?xml version="1.0" encoding="utf-8"?>

<!DOCTYPE svg PUBLIC "-//W3C//DTD SVG 1.1//EN" "http://www.w3.org/Graphics/SVG/1.1/DTD/svg11.dtd">
<!-- Uploaded to: SVG Repo, www.svgrepo.com, Generator: SVG Repo Mixer Tools -->
<svg height="800px" width="800px" version="1.1" id="_x32_" xmlns="http://www.w3.org/2000/svg" xmlns:xlink="http://www.w3.org/1999/xlink" 
	 viewBox="0 0 512 512"  xml:space="preserve">
<style type="text/css">
	.st0{fill:#000000;}
</style>
<g>
	<polygon class="st0" points="164.106,367.588 196.926,437.608 245.061,437.608 256.004,400.415 266.947,437.608 315.081,437.608 
		347.901,367.588 256.004,367.588 	"/>
	<path class="st0" d="M199.117,470.428c0,0-15.316,12.034-25.167,14.224c-9.844,2.183-8.752,9.844-8.752,9.844V512h79.863v-56.887
		h-45.944V470.428z"/>
	<path class="st0" d="M338.057,484.651c-9.851-2.19-25.166-14.224-25.166-14.224v-15.314h-45.944V512h79.863v-17.505
		C346.809,494.495,347.901,486.834,338.057,484.651z"/>
	<path class="st0" d="M71.649,355.578c-0.616,22.002,20.911,28.018,23.046,21.815c2.135-6.204,6.367-14.465,8.542-24.831
		c-3.679-5.425-2.284-21.613-2.284-21.613s1.13,12.884,11.052,16.305c9.937,3.413,10.374-42.25,10.374-42.25l-33.513-11.535
		C88.865,293.469,72.288,333.591,71.649,355.578z"/>
	<path class="st0" d="M423.143,293.469l-33.514,11.535c0,0,0.436,45.663,10.374,42.25c9.921-3.422,11.043-16.305,11.043-16.305
		s1.403,16.188-2.276,21.613c2.174,10.366,6.406,18.626,8.542,24.831c2.136,6.204,23.662,0.187,23.038-21.815
		C439.72,333.591,423.143,293.469,423.143,293.469z"/>
	<path class="st0" d="M293.195,301.216v-18.954h80.963l44.487-15.324c0,0-16.725-54.26-51.424-98
		c-4.388,4.646-10.591,7.56-17.489,7.56c-13.304,0-24.075-10.779-24.075-24.067c0-5.183,1.653-9.968,4.435-13.889
		c0.483-0.678,0.998-1.325,1.542-1.948c0.126-0.14,0.258-0.28,0.382-0.42c4.404-4.794,10.693-7.818,17.715-7.818
		c1.302,0,2.572,0.133,3.827,0.335c-6.851-20.342-20.615-61.228-21.706-64.502c-0.016-0.046-0.062-0.086-0.093-0.133
		C322.517,27.138,292.167,0,256.004,0c-37.402,0-68.648,28.993-76.7,67.838h109.776l16.866,29.172H202.063
		c1.263,17.295,17.7,39.678,53.941,26.258c32.57,12.065,49.109-4.801,53.045-20.896l18.767,32.484
		c-1.449,1.894-2.977,3.843-4.715,5.916c-30.63,36.468-67.097,33.545-67.097,33.545s-36.468,2.923-67.097-33.545
		c-2.33-2.774-4.373-5.386-6.204-7.864c-60.527,40.434-89.34,134.03-89.34,134.03l44.487,15.324h80.954v18.954h-80.954l-10.21,49.6
		h128.364h128.364l-10.21-49.6H293.195z M256.004,188.907c7.248,0,13.125,5.876,13.125,13.124c0,7.248-5.876,13.126-13.125,13.126
		c-7.248,0-13.124-5.877-13.124-13.126C242.879,194.783,248.756,188.907,256.004,188.907z M256.004,231.936
		c7.248,0,13.125,5.876,13.125,13.125c0,7.248-5.876,13.132-13.125,13.132c-7.248,0-13.124-5.884-13.124-13.132
		C242.879,237.813,248.756,231.936,256.004,231.936z M275.699,301.216h-19.695h-19.695v-18.954h19.695h19.695V301.216z"/>
</g>
</svg>