<?xml version="1.0" encoding="utf-8"?>

<!DOCTYPE svg PUBLIC "-//W3C//DTD SVG 1.1//EN" "http://www.w3.org/Graphics/SVG/1.1/DTD/svg11.dtd">
<!-- Uploaded to: SVG Repo, www.svgrepo.com, Generator: SVG Repo Mixer Tools -->
<svg height="800px" width="800px" version="1.1" id="_x32_" xmlns="http://www.w3.org/2000/svg" xmlns:xlink="http://www.w3.org/1999/xlink" 
	 viewBox="0 0 512 512"  xml:space="preserve">
<style type="text/css">
	.st0{fill:#000000;}
</style>
<g>
	<path class="st0" d="M432.956,407.552c-11.951-17.904-30.103-27.794-47.164-34.225c-2.97-1.118-5.848-2.021-8.733-2.95
		c12.802-60.449-11.964-126.95-10.819-133.59c0.346-1.988,0.615-4.814,0.83-8.02c1.433-3.978,2.852-8.386,4.31-13.495
		c1.629-5.71,2.382-10.669,2.382-15.084c0.006-5.083-1.04-9.505-2.964-13.089c-0.425-0.805-0.961-1.452-1.458-2.159
		c1.792-23.837,1.714-75.213-26.624-110.432c2.362-7.536,3.134-16.524,3.18-25.754c-0.007-10.486-1.112-21.115-2.728-29.567
		c-0.817-4.233-1.753-7.909-2.832-10.872c-0.543-1.491-1.119-2.806-1.845-4.023c-0.772-1.19-1.551-2.446-3.539-3.493
		c-1.681-0.772-2.833-0.759-4.023-0.798c-2.329,0.013-4.874,0.452-8.001,1.112c-10.78,2.342-27.84,7.928-42.434,12.966
		c-11.33,3.918-20.998,7.457-24.779,8.857c-4.416-1.629-17.159-6.3-31.157-11.036c-8.641-2.924-17.695-5.854-25.486-8.072
		c-3.892-1.105-7.47-2.041-10.571-2.715c-3.127-0.66-5.672-1.099-8.007-1.112c-1.165,0.04-2.31,0.026-4.016,0.811l-0.007-0.013
		c-0.013,0.006-0.019,0.013-0.039,0.026c0,0,0,0-0.007,0c-1.943,1.046-2.728,2.29-3.487,3.467c-1.256,2.12-2.132,4.599-3.002,7.654
		c-2.519,9.073-4.39,23.039-4.402,36.808c0.006,8.027,0.641,15.935,2.322,22.81c0.248,1.014,0.576,1.956,0.876,2.924
		c-28.698,35.644-28.436,87.859-26.578,111.303c-0.301,0.471-0.68,0.804-0.948,1.308c-1.923,3.584-2.976,8.006-2.97,13.095
		c0.007,4.416,0.759,9.375,2.388,15.078c1.223,4.265,2.414,8.059,3.604,11.526c0.236,4.023,0.549,7.595,0.962,9.989
		c1.145,6.633-23.582,73.048-10.846,133.459c-13.854,4.5-28.926,10.885-41.61,21.756c-7.64,6.568-14.352,14.81-19.068,25.054
		c-4.722,10.238-7.431,22.398-7.425,36.639c0,3.303,0.144,6.718,0.445,10.25c0.216,2.473,1.158,4.488,2.264,6.149
		c2.107,3.087,4.9,5.39,8.399,7.752c6.13,4.056,14.621,8.02,25.492,11.912c32.537,11.604,86.406,22.228,153.161,22.241
		c54.235,0,100.012-7.039,132.687-15.883c16.348-4.435,29.398-9.283,38.83-14.13c4.723-2.446,8.543-4.854,11.572-7.496
		c1.518-1.335,2.846-2.734,3.964-4.396c1.099-1.661,2.048-3.676,2.264-6.149c0.295-3.532,0.439-6.934,0.439-10.23
		C445.784,434.746,440.911,419.452,432.956,407.552z M178.133,21.09c0.74-3.866,1.596-7.143,2.401-9.335
		c0.255-0.707,0.491-1.237,0.7-1.668c1.119,0.092,2.944,0.366,5.142,0.85c9.792,2.107,26.879,7.654,41.276,12.639
		c7.216,2.492,13.796,4.854,18.571,6.587c4.776,1.733,7.726,2.832,7.732,2.832l1.76,0.654l1.76-0.654
		c0.006,0,3.859-1.439,9.884-3.611c9.028-3.264,22.882-8.157,35.618-12.212c6.372-2.028,12.462-3.84,17.472-5.135
		c4.364-1.152,7.968-1.812,9.754-1.936c0.379,0.798,0.902,2.08,1.367,3.703c2.276,7.562,4.298,21.672,4.278,34.95
		c0.006,6.025-0.432,11.873-1.328,16.91c-17.125-16.36-42.166-27.527-78.804-27.527c-36.645,0-61.68,11.166-78.805,27.533
		c-0.896-5.03-1.361-10.904-1.328-16.916C175.576,38.987,176.636,28.835,178.133,21.09z M153.231,197.186
		c1.138-1.504,2.008-2.394,2.008-2.394s8.373,20.998,21.77,51.69c-15.072-69.451,15.071-124.366,15.071-124.366l-6.698,41.996
		h70.334h70.334l-6.698-41.996c0,0,30.143,54.915,15.072,124.366c13.397-30.692,21.77-51.69,21.77-51.69s1.223,1.19,2.734,3.369
		c0.059,0.609,0.098,1.276,0.105,2.028c0,2.714-0.478,6.352-1.819,11.042c-4.062,14.306-7.706,22.633-11.048,27.252
		c-1.675,2.335-3.205,3.794-4.906,4.984c-1.708,1.184-3.663,2.12-6.228,3.035l-4.03,1.44l-0.746,4.219
		c-4.716,26.401-18.323,41.256-28.371,52.449l-1.89,2.1v2.833c0,13.397,0,23.163,0,30.98c-0.007,2.44,0.471,4.748,1.269,6.895
		l-40.524,45.856l-49.774-46.804c0.622-1.871,1.046-3.84,1.046-5.946c0-7.817,0-17.584,0-30.98v-2.833l-1.89-2.1
		c-10.048-11.192-23.654-26.048-28.37-52.449l-0.746-4.219l-4.029-1.44c-2.564-0.916-4.52-1.851-6.228-3.035
		c-2.519-1.779-4.802-4.206-7.47-9.178c-2.637-4.945-5.43-12.337-8.484-23.058c-1.341-4.69-1.819-8.328-1.819-11.036
		C152.975,198.998,153.087,198.036,153.231,197.186z M254.067,423.886l-15.222,19.192l-53.156-51.716
		c1.845-8.563,3.977-17.099,6.116-25.316c0.733-0.419,1.414-0.896,2.126-1.334l-0.334,0.34L254.067,423.886z M80.98,453.696
		c0.026-16.544,4.069-28.619,10.316-38.091c9.348-14.162,24.354-22.823,40.033-28.723c2.29-0.87,4.572-1.563,6.862-2.316
		c0.164,0.504,0.301,1.007,0.472,1.51l-57.402,74.246C81.124,458.072,80.98,455.809,80.98,453.696z M91.231,468.885
		c-2.218-1.138-4.075-2.243-5.606-3.251l55.805-72.191c4.18,10.23,9.832,19.978,17.237,28.919l-43.331,56.054
		C105.282,475.218,97.118,471.92,91.231,468.885z M127.169,481.896c-1.707-0.458-3.355-0.928-4.978-1.4l40.995-53.031
		c5.442,5.776,11.63,11.186,18.846,16.046c-2.204-11.892-1.125-25.911,1.36-40.368l20.278,19.729l-47.458,65.558
		C145.61,486.436,135.823,484.238,127.169,481.896z M163.54,489.733l44.979-62.138l24.053,23.398l-34.428,43.409
		C185.807,493.167,174.275,491.571,163.54,489.733z M210.154,495.43l105.049-132.451c1.393,0.929,2.839,1.812,4.318,2.663
		c1.766,6.777,3.532,13.762,5.148,20.815l-82.501,110.589C231.061,496.791,220.391,496.235,210.154,495.43z M256.003,497.269
		c-0.49,0-0.954-0.027-1.446-0.027l72.833-97.624c2.924,15.693,4.389,31.039,2.008,43.894c23.15-15.589,36.554-36.462,43.847-58.958
		c3.002,0.988,6.018,2.034,9.027,3.212l-77.811,107.49C289.273,496.516,273.103,497.269,256.003,497.269z M313.293,494.482
		l75.318-104.054c7.582,3.421,14.83,7.607,21.018,12.925c1.563,1.341,3.061,2.748,4.494,4.233l-58.553,80.892
		C342.73,490.884,328.62,492.964,313.293,494.482z M430.661,462.056l-0.635,0.752c-1.086,1.099-3.277,2.748-6.358,4.507
		c-10.519,6.077-31.026,13.469-58.442,19.252l53.366-73.735c2.413,3.166,4.559,6.62,6.351,10.479
		c3.762,8.138,6.078,18.016,6.078,30.405C431.02,456.371,430.889,459.165,430.661,462.056z"/>
</g>
</svg>