<?xml version="1.0" encoding="utf-8"?>

<!DOCTYPE svg PUBLIC "-//W3C//DTD SVG 1.1//EN" "http://www.w3.org/Graphics/SVG/1.1/DTD/svg11.dtd">
<!-- Uploaded to: SVG Repo, www.svgrepo.com, Generator: SVG Repo Mixer Tools -->
<svg height="800px" width="800px" version="1.1" id="_x32_" xmlns="http://www.w3.org/2000/svg" xmlns:xlink="http://www.w3.org/1999/xlink" 
	 viewBox="0 0 512 512"  xml:space="preserve">
<style type="text/css">
	.st0{fill:#000000;}
</style>
<g>
	<path class="st0" d="M399.15,0.038c-35.094-1.21-64.49,26.244-65.691,61.338c-1.22,35.093,26.244,64.507,61.328,65.718
		c35.085,1.211,64.498-26.261,65.7-61.346C461.708,30.663,434.235,1.249,399.15,0.038z"/>
	<path class="st0" d="M382.245,153.356c-24.019-9.49-51.189,2.279-60.661,26.324v-0.027l-50.762,126.788l-99.119-29.164
		c-21.464-8.173-45.465,2.092-54.358,23.28L54.022,466.845c-6.962,16.559,0.828,35.646,17.412,42.608
		c16.586,6.961,35.663-0.837,42.625-17.404l65.78-120.655l76.24,30.17c45.171,18.606,77.068,0,95.666-45.179l56.832-142.35
		C418.059,190.008,406.29,162.846,382.245,153.356z"/>
	<polygon class="st0" points="136.235,238.125 235.862,173.653 136.235,109.191 136.235,146.314 58.09,146.314 58.09,201.002 
		136.235,201.002 	"/>
</g>
</svg>