<?xml version="1.0" encoding="utf-8"?>

<!DOCTYPE svg PUBLIC "-//W3C//DTD SVG 1.1//EN" "http://www.w3.org/Graphics/SVG/1.1/DTD/svg11.dtd">
<!-- Uploaded to: SVG Repo, www.svgrepo.com, Generator: SVG Repo Mixer Tools -->
<svg height="800px" width="800px" version="1.1" id="_x32_" xmlns="http://www.w3.org/2000/svg" xmlns:xlink="http://www.w3.org/1999/xlink" 
	 viewBox="0 0 512 512"  xml:space="preserve">
<style type="text/css">
	.st0{fill:#000000;}
</style>
<g>
	<path class="st0" d="M448.377,398.45c-5.828-8.726-13.046-15.631-20.868-21.299c2.5,0.782,3.862,1.223,3.862,1.223
		s-30.651-79.713-30.651-150.799C400.719,156.488,407.105,0,256,0C104.894,0,111.281,156.488,111.281,227.576
		c0,58.691-13.843,123.214-18.675,143.95c-4.882,2.902-9.636,6.194-14.102,10.02c-8.302,7.14-15.599,16.1-20.726,27.237
		c-5.142,11.13-8.079,24.35-8.072,39.832c0,3.591,0.156,7.303,0.476,11.143c0.239,2.688,1.266,4.879,2.461,6.685
		c2.298,3.356,5.33,5.86,9.138,8.427c6.66,4.409,15.891,8.719,27.71,12.95C124.86,500.437,183.431,511.986,256,512
		c58.962,0,108.728-7.652,144.246-17.267c17.779-4.822,31.966-10.092,42.218-15.361c5.135-2.659,9.288-5.276,12.584-8.149
		c1.647-1.452,3.094-2.973,4.31-4.78c1.195-1.806,2.223-3.996,2.461-6.685c0.32-3.84,0.476-7.538,0.476-11.122
		C462.319,428.013,457.021,411.386,448.377,398.45z M184.334,354.323c2.389-1.301,4.723-2.688,6.963-4.189l55.064,56.409
		l-16.89,16.89l-32.482-33.275L184.334,354.323z M205.633,414.643l16.118,16.513l-7.602,7.603L205.633,414.643z M287.038,495.23
		c-10.02,0.477-20.36,0.755-31.038,0.755c-7.417,0-14.671-0.136-21.779-0.37l-3.691-10.454l82.255-82.259L287.038,495.23z
		 M318.759,381.482l-92.261,92.258l-8.321-23.568l35.814-35.813l0.046,0.049l3.798-3.89l0.064-0.064l60.444-61.912
		c2.219,1.592,4.53,3.107,6.958,4.501c0.391,0.22,0.821,0.392,1.216,0.612L318.759,381.482z M341.914,223.365l-4.385,1.565
		l-0.81,4.587c-5.124,28.702-19.912,44.852-30.839,57.02l-2.059,2.29v3.072c0,14.564,0,25.182,0,33.68
		c-0.007,5.276,2.048,10.027,4.857,13.817c0.476,0.64,1.049,1.202,1.565,1.806l-56.206,57.567l-54.293-55.612
		c1.138-1.145,2.311-2.261,3.289-3.542c2.908-3.811,5.141-8.591,5.145-14.038c0-8.498,0-19.116,0-33.68v-3.072l-2.058-2.29
		c-10.927-12.168-25.715-28.318-30.839-57.02l-0.811-4.587l-4.384-1.565c-0.394-0.142-0.686-0.291-1.056-0.433
		c5.404-26.49,22.355-84.307,22.355-84.307h1.792h86.586l5.046-33.631l8.601,33.631h25.413h1.792c0,0,16.95,57.817,22.355,84.307
		C342.6,223.074,342.309,223.223,341.914,223.365z"/>
</g>
</svg>