<?xml version="1.0" encoding="utf-8"?>

<!DOCTYPE svg PUBLIC "-//W3C//DTD SVG 1.1//EN" "http://www.w3.org/Graphics/SVG/1.1/DTD/svg11.dtd">
<!-- Uploaded to: SVG Repo, www.svgrepo.com, Generator: SVG Repo Mixer Tools -->
<svg height="800px" width="800px" version="1.1" id="_x32_" xmlns="http://www.w3.org/2000/svg" xmlns:xlink="http://www.w3.org/1999/xlink" 
	 viewBox="0 0 512 512"  xml:space="preserve">
<style type="text/css">
	.st0{fill:#000000;}
</style>
<g>
	<path class="st0" d="M448.377,398.45c-7.78-11.656-17.999-20.14-28.915-26.611c-4.758-20.389-18.746-85.274-18.746-144.264
		C400.716,156.488,407.102,0,255.996,0C104.891,0,111.278,156.488,111.278,227.576c0,58.691-13.846,123.221-18.675,143.95
		c-4.878,2.908-9.629,6.194-14.095,10.02c-8.306,7.133-15.603,16.094-20.73,27.23c-5.141,11.13-8.079,24.35-8.072,39.824
		c0,3.592,0.156,7.311,0.484,11.158c0.234,2.688,1.259,4.879,2.453,6.678c2.298,3.364,5.334,5.867,9.138,8.434
		c6.656,4.409,15.888,8.719,27.706,12.95c35.372,12.616,93.943,24.165,166.508,24.179c58.962,0,108.728-7.652,144.25-17.267
		c17.779-4.822,31.967-10.092,42.214-15.361c5.135-2.653,9.295-5.276,12.587-8.149c1.643-1.452,3.094-2.973,4.31-4.78
		c1.195-1.806,2.226-3.989,2.461-6.685c0.32-3.84,0.476-7.538,0.476-11.108C462.322,428.02,457.024,411.386,448.377,398.45z
		 M184.334,354.323c2.39-1.301,4.715-2.688,6.955-4.189l55.072,56.409l-16.89,16.89l-32.486-33.282L184.334,354.323z
		 M205.633,414.65l16.114,16.506l-7.602,7.603L205.633,414.65z M287.038,495.23c-10.02,0.477-20.36,0.755-31.042,0.755
		c-7.417,0-14.67-0.136-21.775-0.37l-3.698-10.454l82.259-82.259L287.038,495.23z M318.756,381.482l-92.257,92.258l-8.321-23.568
		l35.813-35.813l0.043,0.049l3.826-3.918l0.036-0.036l60.448-61.912c2.218,1.6,4.53,3.107,6.962,4.501
		c0.391,0.22,0.818,0.392,1.209,0.612L318.756,381.482z M366.033,185.02c-4.423,15.552-8.385,24.606-12.018,29.627
		c-1.813,2.538-3.484,4.124-5.334,5.418c-1.856,1.288-3.982,2.304-6.77,3.3l-4.381,1.565l-0.81,4.587
		c-5.128,28.702-19.912,44.852-30.836,57.02l-2.055,2.29v3.072c0,14.564,0,25.182,0,33.68c-0.014,5.276,2.041,10.027,4.85,13.817
		c0.476,0.64,1.046,1.202,1.565,1.799l-56.21,57.574l-54.289-55.612c1.138-1.145,2.311-2.254,3.293-3.542
		c2.908-3.811,5.141-8.583,5.141-14.038c0-8.498,0-19.116,0-33.68v-3.072l-2.055-2.29c-10.924-12.168-25.722-28.318-30.85-57.02
		l-0.811-4.587l-4.38-1.565c-2.788-0.995-4.914-2.012-6.77-3.3c-2.738-1.934-5.22-4.572-8.121-9.977
		c-2.859-5.376-5.896-13.412-9.217-25.068c-1.458-5.099-1.976-9.053-1.976-11.998c0.007-3.42,0.661-5.419,1.33-6.677
		c1.009-1.835,2.247-2.617,3.826-3.25c1.266-0.483,2.595-0.612,3.128-0.64l8.562,1.06v-2.453
		c11.016,18.319,17.359,68.484,17.359,68.484H195.2c-26.704-143.218,36.525-148.068,60.796-123.797
		c24.272-24.272,87.501-19.422,60.797,123.797h16.997c0,0,6.35-50.208,17.373-68.506v2.013l8.406-0.597
		c0.491-0.014,3.065,0.242,4.758,1.366c0.918,0.582,1.664,1.266,2.347,2.525c0.676,1.258,1.322,3.256,1.337,6.67
		C368.01,175.967,367.491,179.921,366.033,185.02z"/>
</g>
</svg>