<?xml version="1.0" encoding="utf-8"?>

<!DOCTYPE svg PUBLIC "-//W3C//DTD SVG 1.1//EN" "http://www.w3.org/Graphics/SVG/1.1/DTD/svg11.dtd">
<!-- Uploaded to: SVG Repo, www.svgrepo.com, Generator: SVG Repo Mixer Tools -->
<svg height="800px" width="800px" version="1.1" id="_x32_" xmlns="http://www.w3.org/2000/svg" xmlns:xlink="http://www.w3.org/1999/xlink" 
	 viewBox="0 0 512 512"  xml:space="preserve">
<style type="text/css">
	.st0{fill:#000000;}
</style>
<g>
	<path class="st0" d="M448.377,398.45c-5.828-8.726-13.046-15.631-20.868-21.299c2.499,0.782,3.861,1.223,3.861,1.223
		s-30.65-79.713-30.65-150.799C400.719,156.488,407.105,0,256,0C104.894,0,111.28,156.488,111.28,227.576
		c0,58.691-13.842,123.214-18.674,143.95c-4.882,2.902-9.636,6.194-14.102,10.02c-8.303,7.14-15.599,16.1-20.726,27.237
		c-5.142,11.13-8.079,24.35-8.072,39.832c0,3.591,0.156,7.303,0.476,11.143c0.238,2.688,1.266,4.879,2.461,6.685
		c2.297,3.356,5.33,5.86,9.138,8.427c6.66,4.409,15.89,8.719,27.71,12.95C124.86,500.437,183.431,511.986,256,512
		c58.962,0,108.728-7.652,144.246-17.267c17.779-4.822,31.966-10.092,42.218-15.361c5.134-2.659,9.288-5.276,12.584-8.149
		c1.647-1.452,3.094-2.973,4.31-4.78c1.195-1.806,2.223-3.996,2.461-6.685c0.32-3.84,0.476-7.538,0.476-11.122
		C462.318,428.013,457.021,411.386,448.377,398.45z M120.757,408.086c0.149-0.114,0.231-0.178,0.231-0.178
		c1.65-1.579,3.9-2.354,6.176-2.148c2.272,0.206,4.338,1.387,5.686,3.229l2.41,3.313l3.677,1.195c2.13,0.69,3.876,2.254,4.779,4.295
		c0.918,2.056,0.918,4.396,0.011,6.451c0,0,0.036,0.007-0.217,0.519l-16.844,5.469c-1.194-2.205-3.356-3.826-5.909-4.288V408.086z
		 M122.855,435.515c0,2.696-2.183,4.9-4.89,4.9c-2.702,0-4.886-2.204-4.886-4.9c0-2.695,2.183-4.886,4.886-4.886
		C120.672,430.63,122.855,432.82,122.855,435.515z M91.926,417.736c0.9-2.098,2.66-3.712,4.829-4.416l3.886-1.266l2.28-3.129
		c1.32-1.821,3.342-2.987,5.572-3.229c2.233-0.234,4.459,0.498,6.126,1.992c0,0,0.032-0.043,0.555,0.484v17.772
		c-2.56,0.462-4.712,2.083-5.913,4.288l-17.054-5.548c-0.096-0.263-0.146-0.405-0.146-0.405
		C91.077,422.217,91.024,419.834,91.926,417.736z M99.472,455.69c-2.258,0.3-4.541-0.398-6.255-1.898
		c-1.724-1.5-2.706-3.677-2.706-5.945v-4.089l-2.287-3.144c-1.02-1.415-1.543-3.115-1.504-4.85c0.018-0.476,0.068-0.953,0.167-1.436
		c0.146-0.676,0.377-1.323,0.676-1.92c0.011-0.015,0.015-0.028,0.015-0.043c0.017-0.014,0.025-0.042,0.038-0.064
		c0.694-1.315,1.739-2.425,3.051-3.192c0,0-0.011-0.014,0.338-0.207c0.038-0.028,0.089-0.057,0.146-0.092l17.171,5.59
		c-0.04,0.356-0.072,0.74-0.072,1.116c0,2.255,0.893,4.303,2.33,5.824l-10.405,14.309C99.703,455.698,99.472,455.69,99.472,455.69z
		 M131.701,459.218c-0.412,2.247-1.77,4.21-3.733,5.384c-1.956,1.16-4.328,1.43-6.493,0.726l-3.897-1.266l-3.684,1.202
		c-2.13,0.697-4.459,0.448-6.397-0.676c-1.949-1.116-3.317-3.008-3.79-5.198c0,0-0.021,0.006-0.078-0.27l10.682-14.721
		c1.106,0.54,2.346,0.832,3.655,0.832c1.312,0,2.542-0.291,3.648-0.832l10.276,14.159
		C131.78,459.005,131.701,459.218,131.701,459.218z M148.844,436.518c-0.007,0.143-0.014,0.285-0.032,0.427
		c-0.124,1.38-0.63,2.731-1.472,3.883l-2.404,3.314v3.869c0,2.247-0.952,4.388-2.616,5.888c-1.668,1.5-3.886,2.218-6.12,1.991
		c0,0,0,0.028-0.288-0.014l-10.568-14.536c1.444-1.521,2.34-3.57,2.34-5.824c0-0.376-0.032-0.761-0.082-1.116l16.726-5.44
		c0.249,0.164,0.366,0.256,0.366,0.256c2.005,1.088,3.442,2.98,3.958,5.212c0.096,0.413,0.153,0.832,0.185,1.252
		c0.007,0.135,0.007,0.291,0.007,0.427C148.844,436.24,148.844,436.39,148.844,436.518z M411.603,384.846
		c0.128-0.099,0.199-0.15,0.199-0.15c1.416-1.358,3.35-2.026,5.302-1.849c1.952,0.178,3.73,1.195,4.886,2.774l2.07,2.852
		l3.158,1.024c1.831,0.591,3.332,1.942,4.111,3.684c0.782,1.764,0.782,3.783,0.006,5.547c0,0,0.032,0.007-0.184,0.448l-14.473,4.694
		c-1.024-1.898-2.88-3.278-5.074-3.676V384.846z M413.402,408.414c0,2.31-1.874,4.202-4.199,4.202c-2.322,0-4.196-1.892-4.196-4.202
		c0-2.319,1.874-4.196,4.196-4.196C411.528,404.218,413.402,406.095,413.402,408.414z M386.834,393.138
		c0.775-1.806,2.287-3.186,4.146-3.798l3.342-1.081l1.96-2.688c1.134-1.564,2.869-2.574,4.786-2.773
		c1.92-0.2,3.83,0.427,5.262,1.707c0,0,0.029-0.043,0.477,0.419v15.269c-2.201,0.398-4.05,1.778-5.081,3.676l-14.65-4.765
		c-0.082-0.22-0.121-0.348-0.121-0.348C386.105,396.985,386.059,394.938,386.834,393.138z M349.456,451.922l1.668,2.297l2.546,0.825
		c1.475,0.476,2.685,1.564,3.31,2.972c0.633,1.422,0.633,3.044,0.007,4.466c0,0,0.025,0.006-0.149,0.362l-11.663,3.783
		c-0.825-1.529-2.322-2.646-4.089-2.965v-12.368c0.103-0.078,0.16-0.121,0.16-0.121c1.142-1.095,2.699-1.628,4.274-1.486
		C347.091,449.831,348.524,450.649,349.456,451.922z M339.152,466.906c1.874,0,3.384,1.514,3.384,3.384
		c0,1.864-1.511,3.386-3.384,3.386c-1.871,0-3.382-1.522-3.382-3.386C335.77,468.42,337.281,466.906,339.152,466.906z
		 M333.124,466.628l-11.805-3.84c-0.068-0.178-0.1-0.277-0.1-0.277c-0.682-1.43-0.722-3.08-0.096-4.53
		c0.626-1.458,1.842-2.567,3.342-3.058l2.692-0.874l1.579-2.169c0.914-1.258,2.314-2.07,3.858-2.233
		c1.547-0.164,3.086,0.341,4.242,1.372c0,0,0.021-0.028,0.384,0.342v12.303C335.446,463.983,333.956,465.099,333.124,466.628z
		 M174.47,224.93l-4.385-1.565c-0.394-0.142-0.686-0.291-1.056-0.433c5.405-26.49,22.355-84.307,22.355-84.307h1.792h86.587
		l5.045-33.631l8.602,33.631h25.412h1.792c0,0,16.95,57.817,22.356,84.307c-0.37,0.142-0.662,0.291-1.057,0.433l-4.384,1.565
		l-0.81,4.587c-5.124,28.702-19.912,44.852-30.839,57.02l-2.059,2.29v3.072c0,14.564,0,25.182,0,33.68
		c-0.007,5.276,2.048,10.027,4.857,13.817c0.476,0.64,1.049,1.202,1.564,1.806l-56.206,57.567l-54.293-55.612
		c1.137-1.145,2.311-2.261,3.289-3.542c2.908-3.811,5.141-8.591,5.145-14.038c0-8.498,0-19.116,0-33.68v-3.072l-2.058-2.29
		c-10.927-12.168-25.716-28.318-30.84-57.02L174.47,224.93z M184.334,354.323c2.389-1.301,4.722-2.688,6.962-4.189l55.065,56.409
		l-16.89,16.89l-32.481-33.275L184.334,354.323z M205.633,414.643l16.118,16.513l-7.603,7.603L205.633,414.643z M218.177,450.172
		l35.814-35.813l0.046,0.049l3.797-3.89l0.064-0.064l60.444-61.912c2.219,1.592,4.53,3.107,6.959,4.501
		c0.391,0.22,0.821,0.392,1.216,0.612l-7.758,27.827l-92.262,92.258L218.177,450.172z M287.038,495.23
		c-10.02,0.477-20.36,0.755-31.038,0.755c-7.418,0-14.672-0.136-21.779-0.37l-3.692-10.454l82.255-82.259L287.038,495.23z
		 M326.347,484.258c-1.561,0.206-3.144-0.278-4.328-1.316c-1.194-1.038-1.874-2.546-1.874-4.118v-2.83l-1.582-2.176
		c-0.708-0.982-1.07-2.155-1.042-3.356c0.011-0.334,0.046-0.662,0.114-0.996c0.102-0.469,0.263-0.917,0.469-1.33
		c0.007-0.006,0.011-0.021,0.011-0.021c0.01-0.015,0.018-0.036,0.025-0.057c0.48-0.91,1.205-1.679,2.112-2.204
		c0,0-0.006-0.015,0.235-0.143c0.028-0.021,0.06-0.042,0.099-0.064l11.89,3.869c-0.028,0.249-0.049,0.512-0.049,0.775
		c0,1.558,0.615,2.973,1.611,4.026l-7.204,9.914C326.507,484.258,326.347,484.258,326.347,484.258z M348.659,486.697
		c-0.284,1.557-1.224,2.916-2.582,3.726c-1.354,0.803-2.998,0.988-4.498,0.505l-2.695-0.882l-2.553,0.84
		c-1.472,0.476-3.086,0.305-4.427-0.47c-1.347-0.775-2.297-2.084-2.624-3.598c0,0-0.014,0-0.053-0.192l7.392-10.191
		c0.768,0.376,1.624,0.576,2.532,0.576c0.91,0,1.76-0.2,2.524-0.576l7.115,9.8C348.716,486.548,348.659,486.697,348.659,486.697z
		 M360.528,470.981c-0.004,0.099-0.011,0.199-0.021,0.299c-0.085,0.952-0.438,1.884-1.021,2.688l-1.664,2.29v2.68
		c0,1.558-0.658,3.037-1.81,4.075c-1.156,1.038-2.691,1.536-4.238,1.38c0,0,0,0.021-0.2-0.007l-7.314-10.07
		c0.999-1.053,1.618-2.468,1.618-4.026c0-0.263-0.021-0.526-0.057-0.775l11.581-3.769c0.17,0.114,0.253,0.178,0.253,0.178
		c1.39,0.754,2.382,2.062,2.741,3.613c0.064,0.285,0.104,0.569,0.128,0.868c0.004,0.085,0.004,0.199,0.004,0.291
		C360.528,470.789,360.528,470.895,360.528,470.981z M393.316,425.744c-1.938,0.256-3.9-0.341-5.369-1.628
		c-1.483-1.294-2.325-3.165-2.325-5.113v-3.514l-1.962-2.695c-0.878-1.222-1.33-2.674-1.295-4.167
		c0.014-0.413,0.057-0.825,0.143-1.238c0.127-0.582,0.327-1.138,0.582-1.649c0.007-0.008,0.011-0.028,0.011-0.028
		c0.015-0.015,0.025-0.043,0.032-0.072c0.594-1.124,1.498-2.077,2.621-2.731c0,0-0.008-0.021,0.291-0.178
		c0.036-0.028,0.075-0.05,0.124-0.079l14.753,4.8c-0.036,0.306-0.06,0.633-0.06,0.961c0,1.934,0.761,3.69,1.998,4.992l-8.94,12.303
		C393.515,425.744,393.316,425.744,393.316,425.744z M421.001,428.774c-0.352,1.927-1.518,3.619-3.203,4.622
		c-1.682,0.996-3.72,1.224-5.58,0.626l-3.346-1.095l-3.168,1.045c-1.828,0.591-3.83,0.377-5.494-0.583
		c-1.671-0.967-2.848-2.588-3.257-4.465c0,0-0.014,0-0.064-0.242l9.174-12.645c0.953,0.47,2.016,0.719,3.14,0.719
		c1.131,0,2.183-0.249,3.133-0.719l8.829,12.161C421.072,428.582,421.001,428.774,421.001,428.774z M435.729,409.267
		c-0.004,0.128-0.014,0.249-0.028,0.37c-0.104,1.188-0.541,2.34-1.266,3.343l-2.062,2.838v3.328c0,1.934-0.818,3.769-2.247,5.056
		c-1.432,1.288-3.339,1.906-5.258,1.707c0,0,0,0.028-0.249-0.008l-9.074-12.494c1.241-1.302,2.009-3.058,2.009-4.992
		c0-0.328-0.028-0.655-0.071-0.961l14.368-4.679c0.213,0.142,0.313,0.22,0.313,0.22c1.724,0.939,2.959,2.56,3.403,4.481
		c0.078,0.355,0.128,0.711,0.16,1.081c0.004,0.106,0.004,0.249,0.004,0.362C435.729,409.032,435.729,409.168,435.729,409.267z"/>
</g>
</svg>