<?xml version="1.0" encoding="utf-8"?>

<!DOCTYPE svg PUBLIC "-//W3C//DTD SVG 1.1//EN" "http://www.w3.org/Graphics/SVG/1.1/DTD/svg11.dtd">
<!-- Uploaded to: SVG Repo, www.svgrepo.com, Generator: SVG Repo Mixer Tools -->
<svg height="800px" width="800px" version="1.1" id="_x32_" xmlns="http://www.w3.org/2000/svg" xmlns:xlink="http://www.w3.org/1999/xlink" 
	 viewBox="0 0 512 512"  xml:space="preserve">
<style type="text/css">
	.st0{fill:#000000;}
</style>
<g>
	<path class="st0" d="M450.975,396.929c-13.147-19.778-33.142-30.625-51.968-37.711c-9.442-3.546-18.596-6.198-26.712-8.418
		c-8.131-2.213-15.208-4.058-19.937-5.824c-8.26-3.107-17.053-7.092-23.108-11.366c-3.1-2.141-5.449-4.282-6.79-6.206
		c-1.398-1.918-1.758-3.172-1.758-4.354v-31c10.624-11.806,26.049-30.107,32.247-59.118c2.134-0.958,4.209-2.068,6.271-3.467
		c5.175-3.618,9.601-8.786,13.291-15.871c3.763-7.085,7.092-16.16,10.625-28.564c1.773-6.271,2.58-11.734,2.666-16.607
		c0-5.608-1.182-10.48-3.33-14.465c-3.172-5.976-8.332-9.298-12.469-10.776c-0.448-0.144-0.894-0.295-1.326-0.44v-27.605
		c-0.072-14.689-3.258-42.583-19.043-67.976c-7.9-12.62-19.129-24.506-34.554-33.213C299.656,5.312,280.181,0,255.963,0
		c-24.131,0-43.622,5.312-59.046,13.946c-23.252,13.068-36.673,33.286-44.213,52.48c-7.524,19.338-9.37,37.711-9.37,48.71v27.605
		c-1.773,0.519-3.69,1.326-5.68,2.58c-3.028,1.845-6.054,4.729-8.116,8.714c-2.148,3.906-3.33,8.778-3.33,14.386
		c0,4.873,0.894,10.336,2.667,16.607c4.714,16.534,8.996,27.166,14.531,34.986c2.81,3.914,5.982,7.013,9.384,9.449
		c2.062,1.399,4.123,2.58,6.271,3.467c6.198,29.011,21.623,47.312,32.247,59.118v31c0,0.959-0.446,2.364-1.917,4.433
		c-2.22,2.948-6.862,6.638-12.326,9.666c-5.463,3.099-11.806,5.83-17.27,7.748c-6.502,2.292-16.909,4.728-28.571,8.044
		c-17.558,5.096-38.23,12.405-55.125,26.87c-8.418,7.158-15.799,16.312-21.032,27.606c-5.174,11.215-8.13,24.65-8.13,40.298
		c0,3.69,0.158,7.453,0.446,11.367c0.231,2.652,1.326,4.944,2.509,6.71c2.292,3.394,5.391,5.982,9.226,8.562
		c6.79,4.505,16.174,8.858,28.124,13.14C123.11,500.259,182.459,512,255.963,512c59.781,0,110.278-7.756,146.215-17.493
		c18.019-4.872,32.406-10.264,42.814-15.576c5.233-2.732,9.442-5.384,12.772-8.267c1.614-1.478,3.099-3.027,4.353-4.872
		c1.182-1.766,2.278-4.059,2.509-6.71c0.288-3.914,0.432-7.677,0.432-11.295C465.146,426.898,459.754,409.996,450.975,396.929z
		 M191.454,347.26c4.138-2.876,7.9-6.054,10.856-9.961c2.954-3.914,5.247-8.714,5.247-14.25v-37.271l-2.148-2.285
		c-11.071-12.325-26.049-28.716-31.224-57.791l-0.808-4.649l-4.426-1.629c-2.883-0.958-5.016-1.99-6.862-3.323
		c-2.811-1.99-5.32-4.649-8.275-10.106c-2.868-5.463-5.982-13.586-9.297-25.392c-1.47-5.168-2.062-9.226-2.062-12.181
		c0.072-3.467,0.663-5.456,1.398-6.79c1.038-1.845,2.22-2.652,3.835-3.244c1.182-0.447,2.508-0.59,3.171-0.663l8.722,1.918v-10.041
		c0,0,0-18.452,0-34.467c-0.086-12.325,3.013-37.935,16.52-59.342c6.717-10.703,15.943-20.441,28.716-27.678
		c12.844-7.157,29.379-11.806,51.146-11.878c21.854,0.072,38.388,4.72,51.232,11.878c19.114,10.776,30.33,27.455,36.976,44.212
		c6.559,16.83,8.26,33.581,8.26,42.807c0,16.015,0,34.467,0,34.467v9.01l8.418-0.886c0,0,0.072,0,0.216,0
		c0.664,0,3.186,0.295,4.728,1.398c0.966,0.591,1.701,1.254,2.365,2.508c0.663,1.334,1.326,3.323,1.398,6.79
		c0,2.955-0.591,7.013-2.061,12.181c-4.426,15.72-8.491,24.946-12.181,30.042c-1.773,2.509-3.474,4.13-5.391,5.456
		c-1.845,1.333-3.979,2.364-6.862,3.323l-4.425,1.629l-0.822,4.649c-5.16,29.076-20.224,45.466-31.296,57.791l-2.062,2.285v37.271
		c0,5.319,2.062,10.185,4.944,14.026c3.763,5.016,8.78,8.93,14.315,12.325l-67.681,110.487L188.21,349.25
		C189.32,348.738,190.431,347.996,191.454,347.26z M211.39,494.211c-38.893-2.66-72.106-8.562-97.347-15.352
		c-17.198-4.722-30.705-9.817-39.571-14.394c-4.426-2.213-7.668-4.425-9.514-5.975c-0.664-0.591-1.11-1.11-1.413-1.478
		c0,0,0-0.072-0.072-0.072c-0.216-3.25-0.288-6.278-0.288-9.226c0-18.156,4.426-31.519,11.36-41.927
		c10.264-15.648,26.798-25.17,44.068-31.664c5.319-1.989,10.624-3.69,15.728-5.16c0.029-0.008,0.058-0.014,0.086-0.029l-0.317,0.202
		l77.325,125.082C211.419,494.211,211.405,494.211,211.39,494.211z M225.864,495.098l-79.949-129.314
		c7.237-1.917,13.739-3.618,19.274-5.536c3.978-1.398,8.26-3.171,12.613-5.24l71.226,116.246l-14.761,24.139
		C231.414,495.314,228.646,495.17,225.864,495.098z M277.745,495.394c-4.513,0.144-9.01,0.295-13.666,0.295
		c-2.652,0.072-5.377,0.072-8.116,0.072c-2.725,0-5.377,0-8.044-0.072l8.044-13.139l6.948-11.295l71.284-116.318
		c4.137,1.99,8.418,3.69,12.484,5.24c5.536,2.069,12.095,3.762,19.331,5.759l-79.861,129.162
		C283.352,495.17,280.542,495.314,277.745,495.394z M448.539,456.94l-0.821,0.88c-1.182,1.182-3.619,3.027-7.007,4.952
		c-11.965,6.933-35.577,15.345-67.32,21.846c-20.96,4.282-45.466,7.748-72.841,9.594l77.209-124.96
		c16.304,4.8,34.164,11.518,47.528,23.029c6.933,5.91,12.685,13.067,16.895,21.998c4.137,8.93,6.645,19.85,6.645,33.508
		C448.827,450.734,448.683,453.762,448.539,456.94z"/>
	<path class="st0" d="M235.911,67.276c-4.152,0-7.524,3.373-7.524,7.525c0,4.159,3.373,7.539,7.524,7.539
		c4.166,0,7.525-3.38,7.525-7.539C243.436,70.65,240.077,67.276,235.911,67.276z"/>
	<path class="st0" d="M235.911,96.512c-4.152,0-7.524,3.373-7.524,7.532c0,4.158,3.373,7.532,7.524,7.532
		c4.166,0,7.525-3.374,7.525-7.532C243.436,99.884,240.077,96.512,235.911,96.512z"/>
	<path class="st0" d="M235.911,125.746c-4.152,0-7.524,3.373-7.524,7.54c0,4.152,3.373,7.524,7.524,7.524
		c4.166,0,7.525-3.373,7.525-7.524C243.436,129.119,240.077,125.746,235.911,125.746z"/>
	<path class="st0" d="M276.087,82.34c4.152,0,7.525-3.38,7.525-7.539c0-4.152-3.374-7.525-7.525-7.525
		c-4.152,0-7.525,3.373-7.525,7.525C268.562,78.96,271.935,82.34,276.087,82.34z"/>
	<path class="st0" d="M276.087,111.576c4.152,0,7.525-3.374,7.525-7.532c0-4.159-3.374-7.532-7.525-7.532
		c-4.152,0-7.525,3.373-7.525,7.532C268.562,108.202,271.935,111.576,276.087,111.576z"/>
	<path class="st0" d="M276.087,140.81c4.152,0,7.525-3.373,7.525-7.524c0-4.166-3.374-7.54-7.525-7.54
		c-4.152,0-7.525,3.373-7.525,7.54C268.562,137.437,271.935,140.81,276.087,140.81z"/>
</g>
</svg>