<?xml version="1.0" encoding="utf-8"?>

<!DOCTYPE svg PUBLIC "-//W3C//DTD SVG 1.1//EN" "http://www.w3.org/Graphics/SVG/1.1/DTD/svg11.dtd">
<!-- Uploaded to: SVG Repo, www.svgrepo.com, Generator: SVG Repo Mixer Tools -->
<svg height="800px" width="800px" version="1.1" id="_x32_" xmlns="http://www.w3.org/2000/svg" xmlns:xlink="http://www.w3.org/1999/xlink" 
	 viewBox="0 0 512 512"  xml:space="preserve">
<style type="text/css">
	.st0{fill:#000000;}
</style>
<g>
	<path class="st0" d="M366.473,167.46H101.856v59.896h264.617V167.46z M157.39,209.098c-5.676,0-10.278-4.602-10.278-10.278
		s4.602-10.278,10.278-10.278c5.675,0,10.277,4.602,10.277,10.278S163.065,209.098,157.39,209.098z M234.164,209.098
		c-5.667,0-10.277-4.602-10.277-10.278s4.61-10.278,10.277-10.278c5.685,0,10.277,4.602,10.277,10.278
		S239.849,209.098,234.164,209.098z M310.948,209.098c-5.676,0-10.278-4.602-10.278-10.278s4.602-10.278,10.278-10.278
		c5.675,0,10.277,4.602,10.277,10.278S316.623,209.098,310.948,209.098z"/>
	<path class="st0" d="M403.546,16.403C366.344,5.282,299.828-5.004,229.498,2.644c-127.68,13.88-201.824,76.45-201.824,207.935
		c0,97.857,24.35,193.973,67.312,240.045C134.761,493.279,180.574,512,229.498,512c48.923,0,94.718-18.721,134.512-61.376
		c42.942-46.072,67.312-129.957,67.312-227.804c0-40.776,0-57.072,0-67.266c0-10.202,42.053-21.045,51.979-62.701
		C490.948,60.743,454.951,31.772,403.546,16.403z M379.491,154.813v12.648v59.896v15.481v40.582
		c0,16.323-13.24,29.563-29.564,29.563H118.401c-16.324,0-29.564-13.24-29.564-29.563v-40.582v-15.481V167.46v-12.648v-4.268
		h290.654V154.813z"/>
</g>
</svg>