<?xml version="1.0" encoding="utf-8"?>

<!DOCTYPE svg PUBLIC "-//W3C//DTD SVG 1.1//EN" "http://www.w3.org/Graphics/SVG/1.1/DTD/svg11.dtd">
<!-- Uploaded to: SVG Repo, www.svgrepo.com, Generator: SVG Repo Mixer Tools -->
<svg height="800px" width="800px" version="1.1" id="_x32_" xmlns="http://www.w3.org/2000/svg" xmlns:xlink="http://www.w3.org/1999/xlink" 
	 viewBox="0 0 512 512"  xml:space="preserve">
<style type="text/css">
	.st0{fill:#000000;}
</style>
<g>
	<path class="st0" d="M444.047,401.01c-12.701-19.021-31.988-29.539-50.119-36.369c-9.081-3.422-17.978-5.947-25.812-8.084
		c-2.099-0.57-4.106-1.118-6.038-1.65c-19.606-11.643-23.166-21.705-19.469-34.619l45.068-58.134
		c22.862-25.568,60.507-131.091-54.56-222.437l-29.782-23.363c-27.774-21.804-66.865-21.804-94.655,0l-29.766,23.363
		c-115.097,91.346-77.436,196.869-54.59,222.437l45.084,58.134c3.65,12.8,0.213,22.786-18.892,34.285
		c-4.502,1.202-9.522,2.509-14.83,4.03c-16.914,4.891-36.916,11.94-53.176,25.889c-8.122,6.974-15.256,15.735-20.26,26.618
		c-5.019,10.876-7.894,23.805-7.894,38.932c0,3.513,0.152,7.14,0.472,10.898c0.228,2.624,1.232,4.768,2.403,6.532
		c2.236,3.286,5.217,5.727,8.928,8.237c6.51,4.304,15.53,8.518,27.09,12.655C127.822,500.698,185.074,511.985,256,512
		c57.632,0,106.29-7.483,141.001-16.876c17.37-4.716,31.242-9.864,41.266-15.02c5.019-2.586,9.081-5.156,12.306-7.963
		c1.612-1.422,3.012-2.905,4.213-4.67c1.156-1.764,2.175-3.908,2.403-6.532c0.304-3.758,0.456-7.369,0.456-10.876
		C457.675,429.901,452.504,413.65,444.047,401.01z M305.556,300.476c0,1.118-0.867,2.016-1.947,2.016h-21.63
		c-1.065,0-1.947-0.898-1.947-2.016V276.39h-8.046v24.086c0,1.118-0.882,2.016-1.962,2.016h-21.736
		c-1.095,0-1.962-0.898-1.962-2.016V276.39h-8.046v24.086c0,1.118-0.867,2.016-1.947,2.016h-21.629c-1.08,0-1.963-0.898-1.963-2.016
		c0,0,0-9.849,0-24.086c0-14.237-34.497-41.517-40.262-53.381c-24.793-51.008-4.001-72.964,86.669-72.964
		c93.043,0,111.492,21.956,86.685,72.964c-5.765,11.864-40.278,39.144-40.278,53.381
		C305.556,290.627,305.556,300.476,305.556,300.476z"/>
	<path class="st0" d="M215.084,176.739c-15.728,0-28.474,12.746-28.474,28.474c0,15.72,12.746,28.474,28.474,28.474
		c15.712,0,28.459-12.754,28.459-28.474C243.543,189.486,230.796,176.739,215.084,176.739z M215.084,214.111
		c-4.928,0-8.898-3.985-8.898-8.898c0-4.913,3.97-8.898,8.898-8.898c4.913,0,8.883,3.985,8.883,8.898
		C223.967,210.126,219.997,214.111,215.084,214.111z"/>
	<path class="st0" d="M296.932,176.739c-15.728,0-28.474,12.746-28.474,28.474c0,15.72,12.746,28.474,28.474,28.474
		c15.727,0,28.474-12.754,28.474-28.474C325.405,189.486,312.659,176.739,296.932,176.739z"/>
	<polygon class="st0" points="239.984,258.594 256,255.392 272.017,258.594 256,231.908 	"/>
</g>
</svg>