<?xml version="1.0" encoding="utf-8"?>

<!DOCTYPE svg PUBLIC "-//W3C//DTD SVG 1.1//EN" "http://www.w3.org/Graphics/SVG/1.1/DTD/svg11.dtd">
<!-- Uploaded to: SVG Repo, www.svgrepo.com, Generator: SVG Repo Mixer Tools -->
<svg height="800px" width="800px" version="1.1" id="_x32_" xmlns="http://www.w3.org/2000/svg" xmlns:xlink="http://www.w3.org/1999/xlink" 
	 viewBox="0 0 512 512"  xml:space="preserve">
<style type="text/css">
	.st0{fill:#000000;}
</style>
<g>
	<path class="st0" d="M412.443,355.557c-37.92-47.414-28.436-80.592-14.21-128.006C412.443,180.145,384.007,0,256,0
		C128.011,0,99.557,180.145,113.784,227.551c14.227,47.414,23.694,80.592-14.227,128.006C61.637,402.963,42.667,455.11,42.667,512
		h426.665C469.333,455.11,450.381,402.963,412.443,355.557z M336.601,208.865c0,21.04-31.632,12.921-31.632,38.582
		c0,20.988-18.642,29.373-48.969,29.373c-30.327,0-48.969-8.385-48.969-29.373c0-25.661-31.615-14.613-31.615-38.582
		c0-12.251,0-38.548,0-64.828c0-38.53,33.282-59.562,80.584-59.562c47.302,0,80.601,21.032,80.601,59.562
		C336.601,170.318,336.601,196.614,336.601,208.865z"/>
	<path class="st0" d="M223.629,156.855c-10.79-1.736-21.494,3.634-23.9,18.488c-2.388,14.863,4.416,28.333,15.206,30.078
		c10.791,1.736,21.495-8.909,23.884-23.772C241.223,166.786,234.42,158.608,223.629,156.855z"/>
	<path class="st0" d="M287.512,156.855c-10.79,1.752-17.594,9.931-15.206,24.793c2.406,14.863,13.11,25.508,23.884,23.772
		c10.79-1.744,17.594-15.215,15.206-30.078C308.989,160.49,298.285,155.12,287.512,156.855z"/>
	<path class="st0" d="M257.203,205.945c-12.491,4.99-14.707,19.724-9.484,21.469c5.996,1.992,9.484-9.493,9.484-9.493
		s3.488,11.486,9.485,9.493C271.911,225.669,269.677,210.935,257.203,205.945z"/>
</g>
</svg>