<?xml version="1.0" encoding="utf-8"?>

<!DOCTYPE svg PUBLIC "-//W3C//DTD SVG 1.1//EN" "http://www.w3.org/Graphics/SVG/1.1/DTD/svg11.dtd">
<!-- Uploaded to: SVG Repo, www.svgrepo.com, Generator: SVG Repo Mixer Tools -->
<svg height="800px" width="800px" version="1.1" id="_x32_" xmlns="http://www.w3.org/2000/svg" xmlns:xlink="http://www.w3.org/1999/xlink" 
	 viewBox="0 0 512 512"  xml:space="preserve">
<style type="text/css">
	.st0{fill:#000000;}
</style>
<g>
	<path class="st0" d="M180.29,345.309c-34.018,42.526-51.034,89.305-51.034,140.338h253.658L204.18,284.988
		C204.273,304.04,198.216,322.905,180.29,345.309z"/>
	<path class="st0" d="M460.966,345.309c-34.018-42.533-25.509-72.296-12.746-114.83c12.746-42.526-12.762-204.126-127.592-204.126
		c-105.997,0-135.854,137.649-129.796,192.266l-96.78-108.656l-17.68,15.745l4.886,5.471c-8.847,8.308-22.18,22.234-35.574,41.562
		C22.889,205.602-0.016,254.193,0,316.37c-0.016,24.677,3.606,51.442,12.192,80.111l3.606,12.045
		c0.57,1.935,2.374,3.245,4.393,3.191c2.019-0.054,3.76-1.449,4.238-3.406l2.99-12.223l0.077-0.316
		c0.909-3.598,9.802-37.23,30.102-76.08c20.083-38.494,51.404-81.798,96.41-106.83l242.96,272.785h17.648h8.062H512
		C512,434.614,494.999,387.834,460.966,345.309z M41.601,316.278c-9.371,18.434-16.215,35.443-20.947,48.698
		c-3.36-17.094-4.871-33.308-4.871-48.606c0-58.216,21.378-103.608,42.864-134.643c10.744-15.498,21.486-27.351,29.517-35.289
		c1.325-1.31,2.436-2.35,3.606-3.452l51.496,57.831C94.345,229.3,62.008,276.203,41.601,316.278z M392.932,213.718
		c0,18.874-28.376,11.59-28.376,34.61c0,18.828-16.723,26.35-43.928,26.35c-27.205,0-43.928-7.522-43.928-26.35
		c0-23.02-28.361-13.109-28.361-34.61c0-10.99,0-34.58,0-58.154c0-34.564,29.856-53.431,72.289-53.431
		c42.432,0,72.304,18.866,72.304,53.431C392.932,179.138,392.932,202.728,392.932,213.718z"/>
	<path class="st0" d="M291.589,167.061c-9.68-1.557-19.282,3.26-21.44,16.584c-2.142,13.333,3.962,25.417,13.641,26.982
		c9.68,1.557,19.282-7.992,21.425-21.325C307.372,175.97,301.269,168.633,291.589,167.061z"/>
	<path class="st0" d="M348.896,167.061c-9.679,1.572-15.783,8.909-13.641,22.241c2.158,13.333,11.76,22.882,21.425,21.325
		c9.679-1.564,15.783-13.649,13.64-26.982C368.162,170.322,358.56,165.504,348.896,167.061z"/>
	<path class="st0" d="M321.707,211.098c-11.205,4.477-13.194,17.694-8.508,19.258c5.379,1.788,8.508-8.516,8.508-8.516
		s3.129,10.304,8.508,8.516C334.901,228.792,332.897,215.574,321.707,211.098z"/>
</g>
</svg>