<?xml version="1.0" encoding="utf-8"?>

<!DOCTYPE svg PUBLIC "-//W3C//DTD SVG 1.1//EN" "http://www.w3.org/Graphics/SVG/1.1/DTD/svg11.dtd">
<!-- Uploaded to: SVG Repo, www.svgrepo.com, Generator: SVG Repo Mixer Tools -->
<svg height="800px" width="800px" version="1.1" id="_x32_" xmlns="http://www.w3.org/2000/svg" xmlns:xlink="http://www.w3.org/1999/xlink" 
	 viewBox="0 0 512 512"  xml:space="preserve">
<style type="text/css">
	.st0{fill:#000000;}
</style>
<g>
	<path class="st0" d="M426.883,459.402c0.036-19.396-5.649-34.541-14.535-45.814c-7.292-9.283-16.531-15.89-26.112-20.849
		l3.865-20.079l-52.165-4.305c-3.017-7.848-10.54-13.441-19.426-13.545c-0.202-4.378,0.965-8.58,4.098-12.342
		c7.548-9.051,36.562-4.409,46.76-45.252c6.607-26.363-1.936-60.293-17.264-88.818l2.058,0.024
		c0.054-5.679,0.122-11.682,0.122-17.893c-0.037-25.179-1.13-53.527-11.286-77.228c-6.95-16.061-17.71-33.527-28.122-49.179
		c-10.388-15.609-20.494-29.398-25.869-37.441c-1.526-2.272-2.674-4.103-3.218-5.123c-5.539-10.321-13.001-15.97-19.115-18.73
		C261.667,0.556,257.667,0.092,256,0c-1.667,0.092-5.661,0.556-10.669,2.828c-6.113,2.76-13.581,8.409-19.114,18.73
		c-0.55,1.02-1.698,2.852-3.224,5.123c-5.374,8.043-15.481,21.832-25.869,37.441c-10.406,15.652-21.172,33.118-28.122,49.179
		c-10.15,23.701-11.25,52.049-11.28,77.228c0,6.21,0.067,12.214,0.122,17.893l2.052-0.024
		c-15.328,28.525-23.866,62.455-17.264,88.818c10.198,40.843,39.218,36.202,46.76,45.252c3.139,3.761,4.299,7.963,4.104,12.342
		c-8.892,0.104-16.416,5.698-19.433,13.545l-52.159,4.305l3.86,20.079c-9.581,4.959-18.822,11.566-26.107,20.849
		c-8.892,11.273-14.577,26.418-14.54,45.814c0,2.986,0.134,6.088,0.409,9.295l-0.012-0.024c0.189,2.235,1.038,4.054,2.034,5.545
		c1.893,2.797,4.415,4.873,7.56,6.999c5.508,3.658,13.148,7.23,22.943,10.736C147.353,502.418,195.872,511.988,256,512
		c60.128-0.012,108.66-9.582,137.948-20.048c9.796-3.506,17.435-7.078,22.943-10.736c3.151-2.126,5.668-4.202,7.56-6.999
		c0.996-1.49,1.844-3.31,2.034-5.545l-0.006,0.024C426.748,465.49,426.883,462.388,426.883,459.402z M327.322,375.908
		c-0.012,4.995-4.055,9.032-9.05,9.044c-4.995-0.012-9.038-4.049-9.044-9.044c0.006-5.008,4.049-9.05,9.044-9.056
		C323.267,366.858,327.31,370.901,327.322,375.908z M181.185,118.565c7.255-16.825,19.829-36.666,31.335-53.533
		c5.746-8.452,11.236-16.171,15.682-22.528c2.228-3.182,4.195-6.003,5.819-8.44c1.643-2.443,2.919-4.446,3.872-6.205
		c4.232-7.774,9.136-11.182,12.946-12.946c1.905-0.874,3.548-1.295,4.641-1.49c0.244-0.042,0.336-0.048,0.519-0.073
		c0.183,0.024,0.281,0.03,0.519,0.073c1.1,0.195,2.736,0.617,4.653,1.49c3.805,1.765,8.702,5.172,12.935,12.946
		c0.952,1.758,2.235,3.762,3.871,6.205c1.625,2.436,3.592,5.258,5.82,8.44c4.446,6.357,9.936,14.076,15.688,22.528
		c11.5,16.867,24.073,36.708,31.328,53.533c6.601,15.2,9.05,34.07,9.856,52.971H256h-84.672
		C172.135,152.635,174.589,133.765,181.185,118.565z M170.987,190.528c-0.006-3.279,0.024-6.608,0.079-9.954H256h84.934
		c0.055,3.346,0.092,6.675,0.08,9.954c0,3.444-0.024,6.828-0.049,10.162H256h-84.959
		C171.011,197.356,170.987,193.973,170.987,190.528z M189.173,277.966l-0.666-3.798l-3.633-1.301
		c-1.008-0.354-1.82-0.653-2.522-0.922c-6.137-27.182,5.533-48.635,5.533-48.635l1.026,42.235h20.092
		c0-26.18,2.582-54.052,21.996-55.804h3.829c5.674,0.427,12.55,2.742,20.929,7.536c0.079-0.061,0.165-0.098,0.244-0.153
		c0.079,0.055,0.165,0.092,0.244,0.153c8.379-4.794,15.255-7.108,20.928-7.536h3.835c19.408,1.752,21.991,29.624,21.991,55.804
		h20.098l1.02-42.235c0,0,11.676,21.453,5.539,48.635c-0.709,0.269-1.521,0.568-2.528,0.922l-3.633,1.301l-0.666,3.798
		c-4.189,23.774-16.476,37.154-25.533,47.206l-1.716,1.887v2.559c0,8.5,0,15.322,0,21.124L256,389.062l-39.579-38.32
		c0-5.801,0-12.623,0-21.124v-2.559l-1.716-1.887C205.655,315.121,193.362,301.741,189.173,277.966z M297.16,375.908
		c0,0.079,0.018,0.152,0.018,0.244l-15.822,15.322h-19.17l35.036-33.924h5.673c0.232,1.08,0.525,2.1,0.794,3.132
		C299.682,364.525,297.16,369.911,297.16,375.908z M303.31,390.797l-0.446,0.678h-12.842l8.519-8.245
		C299.603,386.083,301.197,388.672,303.31,390.797z M214.821,376.153c0-0.092,0.025-0.165,0.025-0.244
		c0-5.997-2.528-11.383-6.534-15.225c0.269-1.032,0.562-2.052,0.794-3.132h5.68l35.028,33.924h-19.169L214.821,376.153z
		 M221.979,391.475h-12.844l-0.44-0.678c2.107-2.126,3.707-4.714,4.77-7.567L221.979,391.475z M193.728,366.852
		c5.002,0.006,9.038,4.049,9.05,9.056c-0.012,4.995-4.048,9.032-9.05,9.044c-4.995-0.012-9.038-4.049-9.05-9.044
		C184.69,370.901,188.733,366.858,193.728,366.852z M107.615,473.154c-3.616-1.857-6.272-3.628-7.737-4.928
		c-0.629-0.55-0.978-0.971-1.154-1.203c-0.208-2.644-0.336-5.203-0.336-7.621c0.042-16.904,4.69-28.629,11.707-37.618
		c0.323-0.41,0.714-0.739,1.056-1.136l18.473,61.191C120.427,478.925,112.977,475.921,107.615,473.154z M372.25,397.099
		l-16.794,91.719c-26.498,5.71-60.403,9.918-99.456,9.918s-72.959-4.208-99.457-9.918l-16.794-91.719l0.354-0.073l-2.376-12.354
		l35.798-2.95c0.72,2.51,1.863,4.818,3.408,6.846c-24.891,50.162,5.594,97.594,12.458,101.71
		c23.115-42.663,21.081-73.276,17.051-92.77H256h49.557c-4.018,19.493-6.064,50.107,17.05,92.77
		c6.87-4.116,37.349-51.548,12.464-101.71c1.539-2.028,2.681-4.336,3.408-6.846l35.793,2.95l-2.369,12.354L372.25,397.099z
		 M413.283,467.023c-0.178,0.232-0.532,0.654-1.16,1.203c-1.46,1.301-4.122,3.072-7.738,4.928
		c-5.355,2.766-12.812,5.77-22.009,8.684l18.479-61.191c0.336,0.397,0.727,0.727,1.057,1.136
		c7.011,8.989,11.658,20.714,11.701,37.618C413.612,461.82,413.484,464.379,413.283,467.023z"/>
</g>
</svg>