<?xml version="1.0" encoding="utf-8"?>

<!DOCTYPE svg PUBLIC "-//W3C//DTD SVG 1.1//EN" "http://www.w3.org/Graphics/SVG/1.1/DTD/svg11.dtd">
<!-- Uploaded to: SVG Repo, www.svgrepo.com, Generator: SVG Repo Mixer Tools -->
<svg height="800px" width="800px" version="1.1" id="_x32_" xmlns="http://www.w3.org/2000/svg" xmlns:xlink="http://www.w3.org/1999/xlink" 
	 viewBox="0 0 512 512"  xml:space="preserve">
<style type="text/css">
	.st0{fill:#000000;}
</style>
<g>
	<path class="st0" d="M431.739,407.622c-11.945-17.894-30.05-27.74-46.996-34.13c-8.504-3.202-16.805-5.548-24.102-7.542
		c-7.276-1.988-13.61-3.652-17.81-5.239c-7.037-2.613-14.129-6.531-18.989-10.731c-2.437-2.086-4.298-4.228-5.429-6.124
		c-1.138-1.91-1.544-3.455-1.552-4.789c0-7.423,0-16.686,0-28.863c9.979-10.857,26.995-28.737,33.379-57.285
		c2.148-0.962,4.276-2.057,6.32-3.476c5.049-3.483,9.333-8.553,12.964-15.429c3.652-6.91,6.889-15.752,10.345-27.831
		c1.749-6.138,2.556-11.461,2.556-16.194c0.006-5.464-1.117-10.212-3.181-14.06c-3.098-5.829-8.118-9.073-12.185-10.555
		c-0.45-0.162-0.842-0.26-1.271-0.386c0-5.071,0-12.542,0-21.132c-0.021-14.333-3.245-36.918-19.116-56.455
		c-7.922-9.734-19.011-18.504-33.906-24.706c-14.073-5.864-31.532-9.431-53-9.811c-0.189-0.267-0.47-0.554-0.611-0.8
		c-0.618-1.138-0.885-2.268-0.899-3.827c-0.05-2.978,1.355-7.346,3.104-12.22c1.699-4.902,3.722-10.344,3.757-16.489
		c0.006-3.161-0.604-6.518-2.184-9.705c-1.573-3.202-4.059-6.131-7.388-8.666c-2.528-1.924-6.138-1.44-8.062,1.089
		c-1.931,2.52-1.447,6.138,1.082,8.069c2.17,1.657,3.343,3.174,4.052,4.6c0.695,1.425,0.99,2.865,0.997,4.614
		c0.035,3.37-1.37,7.823-3.104,12.669c-1.678,4.873-3.708,10.106-3.756,16.04c0,1.537,0.161,3.139,0.54,4.733
		c-19.235,0.808-35.064,4.298-48.056,9.705c-22.374,9.284-36.033,24.439-43.59,39.748c-7.598,15.317-9.424,30.619-9.432,41.413
		c0,8.603,0,16.089,0,21.145c-1.742,0.548-3.588,1.264-5.555,2.465c-2.907,1.805-5.85,4.614-7.9,8.462
		c-2.065,3.848-3.195,8.596-3.189,14.06c0.007,4.747,0.815,10.07,2.564,16.194c4.621,16.096,8.792,26.49,14.193,34.116
		c2.697,3.785,5.772,6.826,9.116,9.144c2.044,1.419,4.172,2.514,6.32,3.476c6.384,28.548,23.4,46.428,33.379,57.285
		c0,12.177,0,21.44,0,28.863c0,1.166-0.422,2.774-1.678,4.789c-1.84,3.006-5.499,6.546-9.937,9.565
		c-4.431,3.041-9.6,5.618-14.207,7.234c-5.745,2.044-15.113,4.185-25.619,7.198c-15.787,4.571-34.503,11.151-49.777,24.249
		c-7.62,6.545-14.326,14.776-19.039,25.014c-4.719,10.225-7.416,22.36-7.408,36.532c0,3.286,0.148,6.686,0.435,10.197
		c0.232,2.598,1.222,4.677,2.346,6.376c2.17,3.181,4.986,5.492,8.497,7.851c6.131,4.066,14.572,7.999,25.373,11.868
		c32.304,11.518,85.705,22.037,151.873,22.058c53.759-0.007,99.139-6.98,131.549-15.752c16.222-4.396,29.179-9.213,38.575-14.038
		c4.705-2.437,8.526-4.839,11.587-7.507c1.524-1.348,2.879-2.767,4.031-4.481c1.123-1.7,2.114-3.778,2.339-6.376
		c0.295-3.512,0.435-6.896,0.435-10.169C444.548,434.786,439.689,419.504,431.739,407.622z M197.926,362.311
		c3.469-2.964,6.573-6.264,8.961-10.084c2.374-3.792,4.073-8.245,4.073-13.16c0-8.062,0-18.126,0-31.939v-3.04l-2.029-2.254
		c-10.745-11.883-27.684-28.133-32.642-56.048l-0.8-4.529l-4.326-1.545c-2.753-0.983-4.853-1.987-6.686-3.258
		c-2.703-1.91-5.154-4.516-8.02-9.86c-2.83-5.309-5.828-13.238-9.108-24.748c-1.44-5.035-1.952-8.946-1.952-11.854
		c0.007-3.371,0.653-5.352,1.313-6.594c0.998-1.812,2.219-2.584,3.778-3.209c1.068-0.408,2.198-0.562,2.838-0.618l3.672,0.779
		c1.272,6.82,5.288,24.573,13.905,33.183c-2.402-21.574,8.392-47.944,8.392-47.944l-17.262-7.268c0-4.2,0-9.102,0-14.46
		c-0.021-12.044,2.893-31.019,15.562-46.454c6.348-7.767,15.127-14.832,27.732-20.1c12.605-5.252,29.102-8.672,50.676-8.672
		c21.574,0,38.07,3.42,50.676,8.672c18.877,7.922,29.298,19.804,35.513,32.178c6.167,12.36,7.788,25.38,7.782,34.376
		c0,5.358,0,10.26,0,14.46l-17.269,7.268c0,0,10.794,26.37,8.392,47.944c8.799-8.799,12.809-27.15,13.989-33.625l3.195-0.344
		c0.499-0.021,3.027,0.232,4.692,1.341c0.906,0.576,1.643,1.25,2.318,2.493c0.667,1.243,1.306,3.216,1.32,6.594
		c0,2.908-0.512,6.812-1.952,11.854c-4.362,15.366-8.273,24.298-11.862,29.257c-1.798,2.5-3.441,4.073-5.267,5.351
		c-1.833,1.271-3.932,2.275-6.686,3.258l-4.326,1.545l-0.801,4.529c-4.958,27.916-21.896,44.166-32.641,56.048l-2.03,2.254v3.04
		c0,13.814,0,23.877,0,31.939c-0.007,4.755,1.53,9.158,3.799,12.922c3.314,5.478,8.104,9.888,13.491,13.68
		c-1.98,10.85-7.226,22.164-16.005,31.04c-10.24,10.31-25.092,17.655-46.329,17.698c-21.236-0.042-36.09-7.388-46.329-17.698
		c-8.806-8.898-14.06-20.253-16.026-31.138C195.11,364.524,196.564,363.463,197.926,362.311z M120.494,478.621
		c-11.545-3.498-20.92-7.15-27.367-10.478c-3.954-2.022-6.84-3.946-8.399-5.336c-0.555-0.478-0.878-0.829-1.082-1.082
		c-0.211-2.795-0.344-5.506-0.344-8.076c0.028-16.279,3.996-28.105,10.112-37.374c9.151-13.863,23.884-22.388,39.341-28.21
		c5.667-2.135,11.3-3.827,16.784-5.372c1.061,7.29,1.91,16.005,1.91,25.352c0.007,13.357-1.734,27.81-6.762,40.57
		C139.919,460.671,132.39,471.121,120.494,478.621z M256.004,496.178c-48.19,0.007-89.293-5.801-119.632-13.245
		c9.523-8.364,16.103-18.694,20.359-29.587c5.843-14.888,7.655-30.85,7.662-45.304c0-10.836-1.046-20.71-2.296-28.793
		c4.522-1.208,8.806-2.38,12.486-3.672c2.423-0.864,4.874-1.924,7.325-3.09c2.935,11.79,8.982,23.589,18.554,33.308
		c12.528,12.76,31.236,21.602,55.542,21.56c24.306,0.042,43.014-8.8,55.542-21.56c9.6-9.747,15.654-21.581,18.582-33.414
		c2.366,1.124,4.74,2.241,7.156,3.146c3.736,1.391,7.992,2.612,12.592,3.877c-1.236,8.062-2.268,17.879-2.268,28.638
		c0.006,14.453,1.819,30.416,7.654,45.304c4.27,10.906,10.864,21.258,20.408,29.622C345.36,490.391,304.13,496.192,256.004,496.178z
		 M428.354,461.738c-0.478,0.562-1.742,1.777-3.793,3.118c-4.375,2.936-11.91,6.587-21.89,10.141
		c-3.42,1.222-7.156,2.444-11.131,3.644c-11.91-7.5-19.452-17.964-24.228-30.029c-5.028-12.76-6.77-27.213-6.762-40.57
		c0-9.269,0.836-17.922,1.882-25.169c0.477,0.141,0.927,0.253,1.404,0.394c15.042,4.34,31.609,10.45,43.899,20.998
		c6.158,5.281,11.307,11.594,15,19.558c3.687,7.971,5.962,17.655,5.97,29.853C428.705,456.233,428.572,458.943,428.354,461.738z"/>
	<path class="st0" d="M246.748,209.062c2.528-1.067,5.836-2.051,9.466-2.023c2.837,0,5.878,0.59,9.052,2.15
		c0.569,16.531,14.052,29.797,30.738,29.804c17.037-0.007,30.83-13.814,30.837-30.844c-0.007-17.022-13.8-30.829-30.837-30.829
		c-14.712,0-26.953,10.309-30.043,24.074c-3.371-1.25-6.693-1.84-9.748-1.833c-3.89,0.021-7.332,0.794-10.19,1.777
		c-3.111-13.736-15.33-24.018-30.022-24.018c-17.037,0-30.829,13.807-30.836,30.829c0.007,17.03,13.799,30.837,30.836,30.844
		C232.731,238.986,246.249,225.664,246.748,209.062z M296.005,188.528c10.836,0.014,19.6,8.793,19.621,19.621
		c-0.021,10.844-8.786,19.608-19.621,19.628c-10.836-0.021-19.6-8.785-19.628-19.628
		C276.404,197.321,285.169,188.542,296.005,188.528z M196.381,208.149c0.021-10.828,8.786-19.607,19.621-19.621
		c10.836,0.014,19.6,8.793,19.621,19.621c-0.021,10.844-8.786,19.608-19.621,19.628
		C205.167,227.757,196.402,218.993,196.381,208.149z"/>
	<polygon class="st0" points="256.004,250.089 240.23,250.089 235.631,270.462 256.004,261.473 276.376,270.462 271.776,250.089 	
		"/>
</g>
</svg>