<?xml version="1.0" encoding="utf-8"?>

<!DOCTYPE svg PUBLIC "-//W3C//DTD SVG 1.1//EN" "http://www.w3.org/Graphics/SVG/1.1/DTD/svg11.dtd">
<!-- Uploaded to: SVG Repo, www.svgrepo.com, Generator: SVG Repo Mixer Tools -->
<svg height="800px" width="800px" version="1.1" id="_x32_" xmlns="http://www.w3.org/2000/svg" xmlns:xlink="http://www.w3.org/1999/xlink" 
	 viewBox="0 0 512 512"  xml:space="preserve">
<style type="text/css">
	.st0{fill:#000000;}
</style>
<g>
	<path class="st0" d="M165.524,257.856h-0.008c1.093-3.821,3.423-7.179,6.528-9.56c3.126-2.381,6.94-3.771,11.188-3.778
		c4.27,0.007,8.113,1.418,11.239,3.828c3.127,2.417,5.457,5.804,6.514,9.676c1.462,5.283,6.918,8.387,12.202,6.926
		c5.283-1.455,8.38-6.912,6.926-12.195c-2.243-8.12-7.056-15.118-13.504-20.104c-6.448-4.994-14.611-7.975-23.375-7.968
		c-8.706-0.008-16.818,2.938-23.245,7.859c-6.427,4.928-11.246,11.847-13.548,19.88c-1.505,5.269,1.556,10.754,6.824,12.252
		C158.525,266.179,164.019,263.125,165.524,257.856z"/>
	<path class="st0" d="M352.085,232.65c-6.448-4.994-14.612-7.975-23.375-7.968c-8.699-0.008-16.818,2.938-23.245,7.859
		c-6.426,4.928-11.254,11.847-13.548,19.873c-1.505,5.268,1.542,10.761,6.81,12.259c5.268,1.506,10.754-1.548,12.267-6.817
		c1.092-3.821,3.416-7.179,6.535-9.56c3.119-2.381,6.932-3.771,11.181-3.778c4.27,0.007,8.112,1.418,11.246,3.828
		c3.119,2.417,5.442,5.804,6.506,9.676c1.462,5.283,6.926,8.387,12.202,6.926c5.283-1.455,8.38-6.912,6.925-12.195
		C363.353,244.634,358.533,237.636,352.085,232.65z"/>
	<path class="st0" d="M256,386.732c37.87,0,72.6-18.469,94.022-48.134H161.985C183.421,368.248,218.187,386.732,256,386.732z"/>
	<path class="st0" d="M494.023,230.848c-10.088-10.11-23.838-16.674-39-17.76c-9.444-44.37-33.029-83.5-66-112.18
		c-36.04-31.351-83.247-50.369-134.752-50.362c-51.434-0.007-98.582,18.954-134.593,50.232
		c-33.153,28.76-56.824,68.071-66.232,112.658c-13.758,1.795-26.154,8.098-35.462,17.412C6.897,241.92,0,257.356,0,274.27
		c0,16.905,6.897,32.356,17.984,43.414c11.072,11.094,26.509,17.991,43.422,17.983c1.194,0,2.33-0.173,3.496-0.246
		c14.785,35.208,38.964,65.452,69.532,87.459c33.702,24.273,75.162,38.58,119.837,38.573c44.869,0.007,86.496-14.438,120.264-38.892
		c30.424-22.022,54.486-52.214,69.185-87.335c2.266,0.26,4.552,0.441,6.89,0.441c16.906,0.008,32.349-6.89,43.414-17.983
		c11.087-11.058,17.991-26.51,17.977-43.414C512.014,257.356,505.11,241.92,494.023,230.848z M284.811,81.593
		c1.013,1.172,2.07,2.497,3.119,4.082c4.479,6.788,8.988,17.455,9.017,34.332c0.006,12.744-2.7,29.128-10.255,49.71
		c-23.854-19.207-37.553-36.909-45.253-51.491c-8.38-15.907-9.9-28.202-9.907-35.324c0-0.919,0.044-1.664,0.087-2.402
		c7.433-0.955,14.952-1.614,22.652-1.614C264.699,78.886,274.889,79.864,284.811,81.593z M226.401,126.165
		c4.292,8.127,10.153,16.884,17.796,26.024c-7.664-3.097-15.342-5.992-22.558-9.046c-12.324-5.196-23.144-11-30.467-18.736
		c-3.684-3.879-6.578-8.214-8.641-13.461c-1.701-4.349-2.786-9.422-3.127-15.4c11.124-5.204,22.898-9.198,35.135-12.006
		C214.62,93.165,216.884,108.153,226.401,126.165z M473.977,297.645c-6.021,6.006-14.199,9.675-23.368,9.69
		c-3.799-0.007-7.44-0.68-10.956-1.91l-13.41-4.718l-4.668,13.432c-12.02,34.599-34.498,64.372-63.648,85.468
		c-29.165,21.088-64.88,33.5-103.655,33.506c-38.602-0.007-74.186-12.31-103.279-33.232c-29.078-20.922-51.563-50.471-63.714-84.832
		l-4.4-12.433l-12.715,3.495c-2.894,0.789-5.796,1.223-8.756,1.223c-9.176-0.015-17.347-3.684-23.383-9.69
		c-6-6.028-9.676-14.199-9.683-23.375c0.007-9.177,3.683-17.348,9.683-23.383c6.036-6,14.206-9.669,23.383-9.676
		c0.579-0.006,1.44,0.044,2.634,0.138l13.15,1.034l1.968-13.048c6.419-42.561,27.992-80.164,59.097-107.158
		c7.765-6.737,16.124-12.809,24.974-18.128c0.767,4.798,1.947,9.307,3.604,13.439c2.613,6.564,6.274,12.252,10.617,17.108
		c7.605,8.525,17.122,14.518,27.066,19.432c14.916,7.338,31.046,12.411,44.594,18.736c6.773,3.148,12.874,6.564,17.868,10.501
		c5.016,3.959,8.923,8.351,11.71,13.686c1.498,2.887,4.487,4.653,7.744,4.58c3.257-0.079,6.159-1.982,7.52-4.943
		c14.698-31.842,19.995-56.897,20.002-76.581c0.022-13.331-2.475-24.15-6-32.668c23.245,7.396,44.464,19.308,62.47,34.954
		c31.119,27.066,52.663,64.778,59.01,107.425l2.084,14.076l14.069-2.15c1.874-0.282,3.524-0.434,5.022-0.434
		c9.169,0.008,17.347,3.676,23.368,9.676c6.007,6.035,9.676,14.206,9.69,23.383C483.653,283.446,479.984,291.617,473.977,297.645z"
		/>
</g>
</svg>