<?xml version="1.0" encoding="utf-8"?>

<!DOCTYPE svg PUBLIC "-//W3C//DTD SVG 1.1//EN" "http://www.w3.org/Graphics/SVG/1.1/DTD/svg11.dtd">
<!-- Uploaded to: SVG Repo, www.svgrepo.com, Generator: SVG Repo Mixer Tools -->
<svg height="800px" width="800px" version="1.1" id="_x32_" xmlns="http://www.w3.org/2000/svg" xmlns:xlink="http://www.w3.org/1999/xlink" 
	 viewBox="0 0 512 512"  xml:space="preserve">
<style type="text/css">
	.st0{fill:#000000;}
</style>
<g>
	<path class="st0" d="M186.098,281.825c10.432,0,18.892-8.46,18.892-18.888c0-10.436-8.46-18.889-18.892-18.889
		c-10.428,0-18.888,8.453-18.888,18.889C167.21,273.365,175.67,281.825,186.098,281.825z"/>
	<path class="st0" d="M325.902,281.825c10.436,0,18.892-8.46,18.892-18.888c0-10.436-8.456-18.889-18.892-18.889
		c-10.428,0-18.888,8.453-18.888,18.889C307.014,273.365,315.474,281.825,325.902,281.825z"/>
	<path class="st0" d="M494.02,230.848c-10.089-10.11-23.832-16.674-38.996-17.76c-9.448-44.37-33.034-83.5-66.005-112.18
		c-36.036-31.351-83.243-50.37-134.752-50.362c-51.433-0.008-98.578,18.954-134.589,50.232
		c-33.152,28.76-56.828,68.071-66.236,112.658c-13.75,1.795-26.154,8.098-35.457,17.412C6.894,241.92-0.007,257.357,0,274.27
		c-0.007,16.905,6.894,32.356,17.984,43.414c11.072,11.094,26.508,17.991,43.417,17.984c1.195,0,2.331-0.174,3.503-0.246
		c14.781,35.208,38.952,65.452,69.529,87.459c33.703,24.273,75.16,38.58,119.833,38.573c44.873,0.007,86.496-14.438,120.267-38.892
		c30.428-22.022,54.484-52.215,69.186-87.335c2.258,0.26,4.541,0.441,6.878,0.441c16.912,0.007,32.356-6.89,43.422-17.984
		c11.087-11.058,17.987-26.509,17.98-43.414C512.008,257.357,505.107,241.92,494.02,230.848z M284.81,81.593
		c1.013,1.172,2.066,2.497,3.119,4.082c4.476,6.788,8.988,17.455,9.014,34.332c0.007,12.744-2.699,29.122-10.255,49.71
		c-23.856-19.207-37.546-36.909-45.249-51.491c-8.384-15.907-9.897-28.202-9.907-35.324c0-0.919,0.043-1.664,0.083-2.403
		c7.432-0.955,14.956-1.614,22.652-1.614C264.699,78.886,274.885,79.863,284.81,81.593z M226.401,126.165
		c4.288,8.127,10.15,16.884,17.792,26.024c-7.66-3.097-15.34-5.992-22.554-9.046c-12.325-5.196-23.144-11-30.468-18.736
		c-3.687-3.879-6.582-8.214-8.644-13.461c-1.697-4.349-2.783-9.422-3.126-15.4c11.127-5.204,22.897-9.198,35.143-12.006
		C214.619,93.165,216.877,108.145,226.401,126.165z M473.978,297.645c-6.021,6.006-14.199,9.675-23.379,9.69
		c-3.788-0.008-7.432-0.68-10.949-1.91l-13.414-4.718l-4.664,13.432c-12.024,34.6-34.499,64.373-63.649,85.469
		c-29.161,21.088-64.879,33.5-103.655,33.506c-38.598-0.007-74.186-12.31-103.278-33.232
		c-29.078-20.922-51.564-50.471-63.711-84.832l-4.4-12.433l-12.715,3.495c-2.898,0.789-5.8,1.224-8.761,1.224
		c-9.173-0.015-17.347-3.684-23.378-9.69c-6.003-6.029-9.68-14.199-9.687-23.376c0.015-9.176,3.684-17.348,9.687-23.383
		c6.032-6,14.206-9.669,23.378-9.676c0.58-0.007,1.444,0.044,2.634,0.138l13.153,1.035l1.968-13.048
		c6.419-42.561,27.993-80.164,59.094-107.158c7.768-6.737,16.123-12.809,24.978-18.135c0.767,4.805,1.95,9.306,3.604,13.446
		c2.609,6.564,6.271,12.252,10.613,17.108c7.614,8.525,17.127,14.518,27.063,19.432c14.929,7.338,31.053,12.411,44.597,18.736
		c6.774,3.148,12.874,6.564,17.868,10.501c5.015,3.959,8.927,8.351,11.712,13.685c1.498,2.887,4.487,4.653,7.74,4.58
		c3.256-0.079,6.162-1.982,7.519-4.943c14.702-31.842,19.996-56.897,20.003-76.581c0.022-13.331-2.474-24.15-5.995-32.668
		c23.241,7.396,44.46,19.308,62.466,34.954c31.111,27.066,52.667,64.778,59.01,107.426l2.088,14.076l14.064-2.15
		c1.875-0.282,3.524-0.434,5.016-0.434c9.18,0.007,17.358,3.676,23.379,9.676c6.006,6.035,9.675,14.206,9.686,23.383
		C483.653,283.447,479.984,291.617,473.978,297.645z"/>
	<path class="st0" d="M254.267,387.289c38.746,0,74.284-18.896,96.198-49.248H158.074
		C180.005,368.379,215.57,387.289,254.267,387.289z"/>
</g>
</svg>