<?xml version="1.0" encoding="utf-8"?>

<!DOCTYPE svg PUBLIC "-//W3C//DTD SVG 1.1//EN" "http://www.w3.org/Graphics/SVG/1.1/DTD/svg11.dtd">
<!-- Uploaded to: SVG Repo, www.svgrepo.com, Generator: SVG Repo Mixer Tools -->
<svg height="800px" width="800px" version="1.1" id="_x32_" xmlns="http://www.w3.org/2000/svg" xmlns:xlink="http://www.w3.org/1999/xlink" 
	 viewBox="0 0 512 512"  xml:space="preserve">
<style type="text/css">
	.st0{fill:#000000;}
</style>
<g>
	<path class="st0" d="M141.52,258.432c42.612,0,77.278-34.666,77.278-77.278c0-42.604-34.666-77.27-77.278-77.27
		c-42.604,0-77.263,34.667-77.263,77.27C64.257,223.766,98.916,258.432,141.52,258.432z M141.52,128.019
		c29.306,0,53.143,23.838,53.143,53.135c0,29.305-23.838,53.144-53.143,53.144c-29.297,0-53.128-23.838-53.128-53.144
		C88.392,151.857,112.223,128.019,141.52,128.019z"/>
	<path class="st0" d="M333.937,206.204c56.849,0,103.106-46.257,103.106-103.106S390.786,0,333.937,0
		c-56.848,0-103.098,46.249-103.098,103.098S277.089,206.204,333.937,206.204z M333.937,24.135
		c43.543,0,78.971,35.422,78.971,78.964c0,43.542-35.428,78.971-78.971,78.971c-43.542,0-78.963-35.428-78.963-78.971
		C254.974,59.556,290.396,24.135,333.937,24.135z"/>
	<path class="st0" d="M199.323,512h269.23l-0.038-195.636c-7.442-34.773-50.566-89.936-134.577-89.936
		c-67.417,0-108.451,35.528-125.921,67.708l-0.755-0.572c-12.559-9.464-34.124-20.749-65.908-20.749
		c-33.767,0-56.27,12.788-69.196,23.51c-7.61,6.291-14.046,13.543-19.133,21.573c-4.644,7.359-7.778,14.695-9.31,21.802
		l-0.267,1.411v138.42h151.246v-24.136H67.582l-0.046-111.456c0.58-2.364,2.112-7.206,5.88-13.139
		c4.057-6.413,11.553-15.587,24.242-22.892c12.627-7.267,27.383-10.95,43.862-10.958c19.918,0.023,37.168,5.384,51.26,15.915
		l1.251,0.93l12.338-16.448c-3.37,6.78-5.772,13.36-7.046,19.346V512z M333.937,250.563c67.144,0,103.434,42.322,110.48,68.593
		v168.709h-220.96l-0.053-168.305C230.503,292.885,266.794,250.563,333.937,250.563z"/>
</g>
</svg>