<?xml version="1.0" encoding="utf-8"?>

<!DOCTYPE svg PUBLIC "-//W3C//DTD SVG 1.1//EN" "http://www.w3.org/Graphics/SVG/1.1/DTD/svg11.dtd">
<!-- Uploaded to: SVG Repo, www.svgrepo.com, Generator: SVG Repo Mixer Tools -->
<svg version="1.1" id="_x32_" xmlns="http://www.w3.org/2000/svg" xmlns:xlink="http://www.w3.org/1999/xlink" 
	 width="800px" height="800px" viewBox="0 0 512 512"  xml:space="preserve">
<style type="text/css">
<![CDATA[
	.st0{fill:#000000;}
]]>
</style>
<g>
	<path class="st0" d="M94.196,100.359l41.188,20.859v15.359h120.938h120.953v-15.359l41.172-20.859
		c4.156-2.766,6.875-6.984,7.516-11.672c0.656-4.688-0.844-9.406-4.094-13.031c0,0-23.047-22.453-46.766-41.656
		C357.821,20,288.931,0,256.321,0c-32.625,0-101.5,20-118.781,34c-23.703,19.203-46.75,41.656-46.75,41.656
		c-3.266,3.625-4.75,8.344-4.109,13.031S90.056,97.594,94.196,100.359z M232.274,84.063c7.031-13.563,0.219-16.797,0.219-16.797
		l5.828-9.297c0,0,7.938,8.313,18-0.5c10.063,8.813,18,0.5,18,0.5l5.828,9.297c0,0-6.813,3.234,0.234,16.797
		c4.906,9.438,1.75,17.906-8.219,22.781c-8.859,4.344-15.844,8.125-15.844,8.125s-6.984-3.781-15.844-8.125
		C230.493,101.969,227.368,93.5,232.274,84.063z"/>
	<path class="st0" d="M455.134,462.938c0,0-5.844-46.516-9.078-53.188c-2.891-5.922-95.641-51.938-115.563-63.5l-0.609,0.219
		v-26.406c7.438-7.906,14.297-17.563,19.906-29.438c1.156-2.531,1.984-5.219,2.781-8.172c1.172-4.391,2.156-9.203,2.859-12.984
		c0.016-0.063,0.016-0.094,0.031-0.156c3.203-0.781,6.109-2.25,8.578-4.031c5.547-4.031,9.563-9.625,12.844-15.438
		c3.25-5.844,5.656-12.031,7.25-17.5c1.203-4.156,1.813-7.922,1.828-11.406c0-3.766-0.75-7.281-2.297-10.281
		c-1.156-2.25-2.75-4.156-4.484-5.609c-0.203-0.172-0.422-0.281-0.609-0.438l-1.297-52.906H256.321H135.384l-1.313,52.922
		c-1.672,1.281-3.25,2.906-4.469,4.938c-1.953,3.203-2.938,7.156-2.922,11.375c0,3.484,0.625,7.25,1.844,11.406
		c2.141,7.313,5.656,15.844,10.797,23.188c2.578,3.672,5.563,7.063,9.297,9.75c2.469,1.781,5.375,3.25,8.563,4.031
		c0.25,1.297,0.531,2.719,0.844,4.219c0.594,2.875,1.266,5.984,2.063,8.922c0.813,2.953,1.609,5.641,2.797,8.172
		c5.406,11.531,12.047,20.938,19.219,28.703v27.141l-0.594-0.219c-19.922,11.563-112.688,57.578-115.547,63.5
		c-3.25,6.672-9.094,53.188-9.094,53.188c-1.547,7.641,0.234,15.594,4.906,21.875c4.672,6.25,11.766,10.25,19.547,10.969
		c0,0,44.016,16.219,174.672,16.219c130.672,0,174.688-16.219,174.688-16.219c7.766-0.719,14.875-4.719,19.531-10.969
		C454.884,478.531,456.681,470.578,455.134,462.938z M93.931,423.25l-6.953-12.906l60.922-31.813l7.953,13.25L93.931,423.25z
		 M175.728,278.25c-0.984-3.719-1.938-8.25-2.594-11.781c-0.344-1.766-0.609-3.297-0.781-4.375
		c-0.094-0.531-0.172-0.969-0.219-1.266l-0.063-0.422l-1.266-7.938l-7.922,1.188l-0.734,0.063c-1.109,0-2.344-0.359-4.078-1.594
		c-2.578-1.781-5.656-5.594-8.156-10.156c-2.531-4.531-4.594-9.781-5.844-14.141c-0.891-3.047-1.188-5.359-1.188-6.891
		c0-1.719,0.313-2.5,0.5-2.875l0.453-0.563c0.266-0.219,0.813-0.531,1.672-0.75c0.844-0.219,1.922-0.313,2.906-0.313
		c0.766,0,1.438,0.063,1.891,0.109l0.484,0.078l8.969,1.781c0.172,0.328,0.344,0.625,0.531,0.969
		c0.016-0.281,0.063-0.563,0.094-0.844h0.094v-0.906c1.141-10.688,3.422-29.875,4.922-42.094
		c37.297,16.219,90.922,15.031,90.922,15.031s52.563,3.734,91.016-14.484c1.469,12.234,3.703,31.016,4.844,41.547v0.922l0.109-0.016
		c0.031,0.281,0.063,0.563,0.078,0.844c0.188-0.344,0.359-0.641,0.516-0.969l9-1.797v0.016c0.234-0.063,1.219-0.188,2.359-0.188
		c0.859,0,1.813,0.078,2.594,0.25c0.609,0.125,1.109,0.313,1.453,0.469c0.547,0.297,0.688,0.453,0.891,0.781
		c0.188,0.344,0.563,1.063,0.578,3c0,1.531-0.297,3.844-1.172,6.891c-1.688,5.828-4.797,13.172-8.516,18.391
		c-1.828,2.625-3.797,4.703-5.484,5.906c-1.75,1.234-2.984,1.594-4.094,1.594l-0.703-0.063l-7.953-1.188l-1.25,7.938l-0.031,0.188
		c-0.156,0.969-0.922,5.625-1.984,10.688c-0.547,2.531-1.156,5.172-1.781,7.438c-0.594,2.25-1.281,4.219-1.656,5
		c-5.828,12.328-12.984,21.703-20.641,28.938c-11.453,10.844-24.094,16.906-34.906,20.266c-10.781,3.359-19.797,3.984-23.266,3.953
		c-2.297,0.031-7.109-0.25-13.203-1.422c-9.188-1.766-21.328-5.578-33.234-13.484c-11.906-7.891-23.609-19.75-32.359-38.25
		C177.118,282.875,176.384,280.719,175.728,278.25z M255.993,484.5c-5.922,0-10.734-4.813-10.734-10.75s4.813-10.719,10.734-10.719
		c5.953,0,10.75,4.781,10.75,10.719S261.946,484.5,255.993,484.5z M255.993,418.938c-5.922,0-10.734-4.797-10.734-10.734
		s4.813-10.734,10.734-10.734c5.953,0,10.75,4.797,10.75,10.734S261.946,418.938,255.993,418.938z M374.524,465.219h-14.422h-5.5
		v5.531v14.406l-7.219-6.781l-7.219,6.781V470.75v-5.531h-5.516h-14.406l6.781-7.203l-6.781-7.203h14.406h5.516v-5.531v-14.406
		l7.219,6.781l7.219-6.781v14.406v5.531h5.5h14.422l-6.781,7.219L374.524,465.219z M418.071,423.25l-61.906-31.469l7.953-13.25
		l60.906,31.813L418.071,423.25z"/>
</g>
</svg>