<?xml version="1.0" encoding="utf-8"?>

<!DOCTYPE svg PUBLIC "-//W3C//DTD SVG 1.1//EN" "http://www.w3.org/Graphics/SVG/1.1/DTD/svg11.dtd">
<!-- Uploaded to: SVG Repo, www.svgrepo.com, Generator: SVG Repo Mixer Tools -->
<svg version="1.1" id="_x32_" xmlns="http://www.w3.org/2000/svg" xmlns:xlink="http://www.w3.org/1999/xlink" 
	 width="800px" height="800px" viewBox="0 0 512 512"  xml:space="preserve">
<style type="text/css">
<![CDATA[
	.st0{fill:#000000;}
]]>
</style>
<g>
	<path class="st0" d="M337.613,21.472c-19.219-34.797-61.109-16.844-81.281-16.844c-21.016,0-67.875-14.016-84.719,18.109
		c-13.859,40.313-35.125,117.25-35.125,117.25h239.703C362.723,85.175,349.973,47.144,337.613,21.472z M272.004,110.456
		c-8.734,4.328-15.672,8.109-15.672,8.109s-6.922-3.781-15.75-8.109c-9.844-4.797-12.984-13.141-8.094-22.516
		c7-13.469,0.219-16.688,0.219-16.688l5.766-9.219c0,0,7.859,8.266,17.859-0.484c9.922,8.75,17.797,0.484,17.797,0.484l5.828,9.219
		c0,0-6.766,3.219,0.25,16.688C285.004,97.315,281.926,105.659,272.004,110.456z"/>
	<path class="st0" d="M453.348,463.362c0,0-5.797-46.078-9-52.688c-2.859-5.875-94.797-51.484-114.531-62.922l-0.594,0.219v-26.188
		c7.359-7.828,14.172-17.391,19.719-29.172c1.156-2.5,1.969-5.172,2.75-8.094c1.172-4.359,2.141-9.109,2.844-12.859
		c0.016-0.063,0.016-0.109,0.031-0.172c3.172-0.766,6.047-2.219,8.5-3.984c5.5-4,9.484-9.531,12.734-15.313
		c3.203-5.781,5.594-11.906,7.172-17.328c1.203-4.125,1.797-7.859,1.813-11.313c0-3.719-0.734-7.219-2.266-10.188
		c-1.156-2.234-2.719-4.109-4.453-5.563c-0.203-0.156-0.406-0.266-0.594-0.422l-1.297-52.438H256.316H136.457l-1.281,52.438
		c-1.672,1.281-3.234,2.875-4.438,4.891c-1.938,3.188-2.906,7.094-2.891,11.281c0,3.453,0.625,7.188,1.813,11.313
		c2.125,7.25,5.625,15.688,10.703,22.984c2.563,3.625,5.531,7,9.219,9.656c2.453,1.766,5.328,3.219,8.484,3.984
		c0.25,1.297,0.531,2.703,0.844,4.203c0.578,2.844,1.25,5.922,2.031,8.828c0.813,2.922,1.609,5.594,2.781,8.094
		c5.359,11.422,11.938,20.75,19.047,28.453v26.906l-0.594-0.219C162.441,359.19,70.52,404.8,67.676,410.675
		c-3.219,6.609-9.016,52.688-9.016,52.688c-1.531,7.578,0.234,15.469,4.875,21.688c4.625,6.203,11.656,10.156,19.359,10.875
		c0,0,43.625,16.078,173.109,16.078s173.094-16.078,173.094-16.078c7.703-0.719,14.75-4.672,19.375-10.875
		C453.098,478.831,454.863,470.94,453.348,463.362z M95.395,424.05l-6.891-12.797l60.375-31.516l7.875,13.125L95.395,424.05z
		 M176.457,280.362c-0.984-3.688-1.922-8.172-2.578-11.688c-0.328-1.75-0.594-3.266-0.781-4.344
		c-0.094-0.531-0.172-0.953-0.219-1.234l-0.063-0.422l-1.234-7.859l-7.859,1.172l-0.734,0.063c-1.078-0.016-2.313-0.359-4.031-1.578
		c-2.563-1.781-5.609-5.563-8.078-10.078c-2.516-4.5-4.563-9.672-5.797-14.016c-0.875-3.016-1.172-5.297-1.172-6.828
		c0-1.688,0.313-2.469,0.484-2.844l0.453-0.563c0.266-0.219,0.797-0.516,1.656-0.734c0.828-0.219,1.906-0.313,2.875-0.313
		c0.75,0,1.438,0.047,1.875,0.109l0.484,0.063l8.891,1.781c0.172,0.328,0.328,0.609,0.516,0.969
		c0.016-0.281,0.063-0.563,0.094-0.859l0.094,0.016v-0.906c1.141-10.578,3.406-29.594,4.875-41.703
		c36.969,16.063,90.109,14.891,90.109,14.891s52.094,3.703,90.188-14.359c1.469,12.141,3.688,30.75,4.813,41.172v0.922l0.094-0.031
		c0.031,0.297,0.063,0.578,0.078,0.859c0.188-0.344,0.359-0.641,0.531-0.969l8.906-1.781l0,0c0.25-0.047,1.219-0.172,2.328-0.172
		c0.859,0,1.813,0.078,2.594,0.25c0.594,0.125,1.094,0.297,1.422,0.469c0.547,0.281,0.688,0.438,0.891,0.766
		c0.188,0.344,0.563,1.063,0.578,2.969c0,1.531-0.297,3.813-1.172,6.828c-1.656,5.797-4.75,13.063-8.422,18.234
		c-1.828,2.609-3.781,4.656-5.453,5.859c-1.719,1.219-2.953,1.563-4.047,1.578l-0.703-0.063l-7.875-1.172l-1.25,7.859l-0.031,0.172
		c-0.156,0.969-0.906,5.578-1.969,10.609c-0.531,2.5-1.141,5.109-1.75,7.375c-0.594,2.219-1.281,4.156-1.641,4.938
		c-5.781,12.219-12.875,21.516-20.453,28.688c-11.359,10.734-23.875,16.734-34.594,20.078c-10.688,3.328-19.625,3.938-23.063,3.922
		c-2.266,0.016-7.047-0.25-13.078-1.422c-9.109-1.75-21.141-5.531-32.938-13.344c-11.797-7.828-23.406-19.594-32.063-37.922
		C177.816,284.94,177.098,282.8,176.457,280.362z M256.004,484.737c-5.875,0-10.656-4.75-10.656-10.641
		c0-5.875,4.781-10.641,10.656-10.641c5.891,0,10.641,4.766,10.641,10.641C266.645,479.987,261.895,484.737,256.004,484.737z
		 M256.004,419.784c-5.875,0-10.656-4.766-10.656-10.656c0-5.875,4.781-10.641,10.656-10.641c5.891,0,10.641,4.766,10.641,10.641
		C266.645,415.019,261.895,419.784,256.004,419.784z M373.457,465.644h-14.281h-5.469v5.469v14.297l-7.156-6.734l-7.141,6.734
		v-14.297v-5.469h-5.469H319.66l6.719-7.141l-6.719-7.141h14.281h5.469v-5.484v-14.281l7.141,6.719l7.156-6.719v14.281v5.484h5.469
		h14.281l-6.719,7.141L373.457,465.644z M416.613,424.05l-61.344-31.188l7.859-13.125l60.375,31.516L416.613,424.05z"/>
</g>
</svg>