<?xml version="1.0" encoding="utf-8"?>

<!DOCTYPE svg PUBLIC "-//W3C//DTD SVG 1.1//EN" "http://www.w3.org/Graphics/SVG/1.1/DTD/svg11.dtd">
<!-- Uploaded to: SVG Repo, www.svgrepo.com, Generator: SVG Repo Mixer Tools -->
<svg version="1.1" id="_x32_" xmlns="http://www.w3.org/2000/svg" xmlns:xlink="http://www.w3.org/1999/xlink" 
	 width="800px" height="800px" viewBox="0 0 512 512"  xml:space="preserve">
<style type="text/css">
<![CDATA[
	.st0{fill:#000000;}
]]>
</style>
<g>
	<path class="st0" d="M449.085,464.424c0,0-5.672-45.109-8.797-51.563c-2.813-5.75-92.75-50.375-112.063-61.563l-0.578,0.203
		v-25.609c7.203-7.656,13.859-17.016,19.281-28.563c1.141-2.438,1.938-5.047,2.703-7.906c1.141-4.266,2.094-8.922,2.781-12.578
		c0.016-0.063,0.016-0.109,0.031-0.172c3.094-0.75,5.906-2.172,8.313-3.891c5.375-3.922,9.281-9.328,12.453-14.984
		c3.141-5.672,5.484-11.656,7.031-16.953c1.172-4.047,1.75-7.688,1.766-11.078c0-3.641-0.719-7.063-2.219-9.969
		c-1.125-2.188-2.672-4.031-4.344-5.438c-0.203-0.156-0.406-0.266-0.594-0.422l-0.781-31.438
		c7.531-6.422,10.313-14.719,10.313-20.484c0-7.453,0-18.078,0-29.781c0-15.938-11.25-21.281-20.984-23.359
		c1,2.609,1.5,5.359,1.5,8.078c0,3.203-0.688,6.422-2.047,9.422c-7.266-14.047-49.781-96.188-57.719-110.359
		c-10.188-18.219-41.734-23.531-56.609-1.922c-15.844,23.016-33.953,53.688-36.234,61.375l12.172-48.344
		c-13.078-6.203-30.5-1.922-34.813,9.016c-3.25,8.297-33.891,79.75-39.391,92.563c-0.031-0.031-0.063-0.063-0.078-0.109
		c-1.703-3.297-2.578-6.891-2.578-10.5c0-2.75,0.516-5.5,1.516-8.141v-0.016c0,0,0.172-0.391,0.453-1.141
		c-9.828,2-21.359,7.281-21.359,23.438c0,11.703,0,22.328,0,29.781c0,5.781,2.797,14.094,10.344,20.516l-0.781,31.422
		c-1.625,1.25-3.156,2.813-4.328,4.781c-1.891,3.125-2.844,6.938-2.828,11.031c0,3.391,0.609,7.031,1.781,11.078
		c2.078,7.078,5.484,15.344,10.469,22.484c2.5,3.547,5.406,6.844,9.016,9.453c2.391,1.719,5.203,3.141,8.313,3.891
		c0.234,1.266,0.5,2.656,0.813,4.109c0.563,2.781,1.234,5.797,2,8.641c0.781,2.859,1.563,5.469,2.703,7.906
		c5.25,11.188,11.688,20.313,18.641,27.844v26.328l-0.578-0.203c-19.313,11.188-109.25,55.813-112.047,61.563
		c-3.141,6.453-8.813,51.563-8.813,51.563c-1.484,7.422,0.25,15.141,4.766,21.203c4.531,6.078,11.406,9.953,18.953,10.656
		c0,0,42.672,15.719,169.375,15.719c126.688,0,169.359-15.719,169.359-15.719c7.547-0.703,14.438-4.578,18.953-10.656
		C448.851,479.564,450.569,471.846,449.085,464.424z M98.866,425.955l-6.75-12.531l59.078-30.829l7.703,12.844L98.866,425.955z
		 M256.007,485.33c-5.75,0-10.422-4.656-10.422-10.406s4.672-10.406,10.422-10.406s10.406,4.656,10.406,10.406
		S261.757,485.33,256.007,485.33z M256.007,421.768c-5.75,0-10.422-4.656-10.422-10.422c0-5.75,4.672-10.407,10.422-10.407
		s10.406,4.656,10.406,10.407C266.413,417.111,261.757,421.768,256.007,421.768z M278.866,338.361
		c-10.453,3.266-19.188,3.844-22.547,3.844c-2.234,0-6.891-0.25-12.813-1.391c-8.906-1.719-20.672-5.422-32.219-13.063
		c-11.547-7.656-22.906-19.172-31.375-37.109c-0.406-0.813-1.109-2.906-1.75-5.281c-0.953-3.609-1.875-8-2.5-11.438
		c-0.344-1.703-0.594-3.188-0.781-4.25c-0.078-0.516-0.156-0.922-0.203-1.219l-0.063-0.406l-1.219-7.688l-7.688,1.156l-0.703,0.047
		c-1.078,0-2.281-0.344-3.969-1.547c-2.484-1.734-5.469-5.438-7.891-9.844c-2.453-4.406-4.453-9.484-5.672-13.719
		c-0.859-2.953-1.141-5.188-1.141-6.688c0-1.641,0.297-2.406,0.469-2.781l0.438-0.547c0.266-0.219,0.781-0.5,1.625-0.719
		c0.813-0.203,1.875-0.313,2.813-0.313c0.75,0,1.406,0.063,1.844,0.109l0.469,0.063l8.688,1.734
		c0.172,0.328,0.344,0.609,0.516,0.953c0.016-0.266,0.063-0.547,0.094-0.828l0.094,0.016v-0.891c0.859-8.047,2.391-21.031,3.703-32
		c28.766,8.641,74.672,20.5,74.672,20.5c9.469,2.844,19.625,2.844,29.078,0c0,0,45.953-11.859,74.719-20.516
		c1.313,10.984,2.828,23.969,3.703,32.016v0.891l0.109-0.016c0.016,0.281,0.047,0.563,0.063,0.828
		c0.188-0.328,0.359-0.625,0.516-0.938l8.719-1.75l0,0c0.234-0.031,1.188-0.172,2.281-0.172c0.844,0,1.766,0.078,2.531,0.25
		c0.578,0.125,1.063,0.297,1.391,0.469c0.531,0.266,0.672,0.422,0.875,0.734c0.188,0.328,0.547,1.047,0.563,2.906
		c0,1.5-0.281,3.734-1.141,6.688c-1.625,5.656-4.656,12.766-8.25,17.844c-1.781,2.547-3.688,4.547-5.328,5.719
		c-1.688,1.203-2.891,1.547-3.953,1.547l-0.703-0.047l-7.703-1.156l-1.219,7.688l-0.031,0.172
		c-0.141,0.953-0.875,5.453-1.922,10.375c-0.531,2.453-1.109,5.016-1.719,7.219c-0.578,2.172-1.25,4.078-1.609,4.828
		c-5.656,11.969-12.594,21.047-20.016,28.063C301.616,329.22,289.366,335.095,278.866,338.361z M370.929,466.658h-13.984h-5.344
		v5.344v13.984l-7-6.578l-7,6.578v-13.984v-5.344h-5.344h-13.969l6.578-7l-6.578-6.984h13.969h5.344v-5.359v-13.969l7,6.563l7-6.563
		v13.969v5.359h5.344h13.984l-6.578,6.984L370.929,466.658z M413.147,425.955l-60.031-30.516l7.703-12.844l59.078,30.829
		L413.147,425.955z"/>
</g>
</svg>