<?xml version="1.0" encoding="utf-8"?>

<!DOCTYPE svg PUBLIC "-//W3C//DTD SVG 1.1//EN" "http://www.w3.org/Graphics/SVG/1.1/DTD/svg11.dtd">
<!-- Uploaded to: SVG Repo, www.svgrepo.com, Generator: SVG Repo Mixer Tools -->
<svg version="1.1" id="_x32_" xmlns="http://www.w3.org/2000/svg" xmlns:xlink="http://www.w3.org/1999/xlink" 
	 width="800px" height="800px" viewBox="0 0 512 512"  xml:space="preserve">
<style type="text/css">
<![CDATA[
	.st0{fill:#000000;}
]]>
</style>
<g>
	<path class="st0" d="M259.291,447.766c-12.391-2.172-41.875-4.344-69.656,16.484c-36.344,27.266-48.453,39.391-48.453,39.391
		s69.703,29,118.109-21.031c48.391,50.031,118.109,21.031,118.109,21.031s-12.125-12.125-48.469-39.391
		C301.15,443.422,271.681,445.594,259.291,447.766z"/>
	<path class="st0" d="M170.306,383.906c31.375,0,43.156-8.828,43.156-17.656c0-8.813-58.844,0-74.516,0
		C138.947,366.25,138.947,383.906,170.306,383.906z"/>
	<path class="st0" d="M372.962,366.25c-15.703,0-74.531-8.813-74.531,0c0,8.828,11.781,17.656,43.141,17.656
		C372.962,383.906,372.962,366.25,372.962,366.25z"/>
	<path class="st0" d="M220.916,347.953c5.625,2.234,9.953-4.922,1.547-8.703c-3.781-1.688-44.063-21.969-66.141-29.922
		c-7.953-2.844-12.203-1.25-15.156,1.688c-6.109,6.125-16.703,16.438-19.094,18.969c-2.391,2.516,0.719,7.313,6.734,3.359
		c7.734-5.047,16.141-8.422,16.141-8.422S215.306,345.719,220.916,347.953z"/>
	<path class="st0" d="M370.822,311.016c-2.938-2.938-7.219-4.531-15.156-1.688c-22.094,7.953-62.375,28.234-66.125,29.922
		c-8.438,3.781-4.078,10.938,1.531,8.703s75.953-23.031,75.953-23.031s8.438,3.375,16.156,8.422
		c6.016,3.953,9.125-0.844,6.734-3.359C387.525,327.453,376.947,317.141,370.822,311.016z"/>
	<path class="st0" d="M249.009,291.109c66.25,0,150.578-10.922,182.5-34.188h-365C98.447,280.188,182.744,291.109,249.009,291.109z"
		/>
	<path class="st0" d="M457.791,100.625C417.431,78.688,343.447,0,255.994,0S94.572,78.688,54.197,100.625
		C3.65,128.109,47.494,166.438,67.634,183.5h376.688C464.525,166.438,508.354,128.109,457.791,100.625z"/>
	<path class="st0" d="M281.634,222.734c0-14.156-11.484-25.641-25.641-25.641s-25.641,11.484-25.641,25.641
		c0,14.172,11.484,25.641,25.641,25.641S281.634,236.906,281.634,222.734z"/>
</g>
</svg>