<?xml version="1.0" encoding="utf-8"?>

<!DOCTYPE svg PUBLIC "-//W3C//DTD SVG 1.1//EN" "http://www.w3.org/Graphics/SVG/1.1/DTD/svg11.dtd">
<!-- Uploaded to: SVG Repo, www.svgrepo.com, Generator: SVG Repo Mixer Tools -->
<svg height="800px" width="800px" version="1.1" id="_x32_" xmlns="http://www.w3.org/2000/svg" xmlns:xlink="http://www.w3.org/1999/xlink" 
	 viewBox="0 0 512 512"  xml:space="preserve">
<style type="text/css">
	.st0{fill:#000000;}
</style>
<g>
	<path class="st0" d="M147.377,89.229c20.416,0,36.965-16.549,36.965-36.965c0-20.406-16.549-36.955-36.965-36.955
		c-20.406,0-36.955,16.549-36.955,36.955C110.422,72.681,126.971,89.229,147.377,89.229z"/>
	<path class="st0" d="M62.044,186.295l85.352-24.042l22.36,68.753l-32.724,53.624c-6.688,7.907-10.888,17.626-12.076,27.92
		l-3.143,86.752c-0.211,3.948,1.218,7.816,3.968,10.656c2.73,2.85,6.547,4.422,10.506,4.341l7.846-0.142
		c7.071-0.141,12.964-5.459,13.829-12.48l10.909-76.156c0.463-2.497,1.641-4.804,3.404-6.658l37.872-62.074l15.471-7.736
		l112.557,74.182c5.732,3.928,13.356,3.646,18.785-0.685l3.213-2.569c3.555-2.83,5.71-7.07,5.922-11.612
		c0.212-4.533-1.551-8.955-4.834-12.108l-102.848-91.646l-17.324-84.486l78.745-48.8c8.571-3.938,12.358-14.06,8.44-22.632
		c-3.917-8.592-14.06-12.368-22.651-8.45L47.833,155.213c-8.581,3.928-12.349,14.051-8.44,22.632
		C43.32,186.436,53.463,190.203,62.044,186.295z"/>
	<circle class="st0" cx="431.896" cy="193.618" r="7.735"/>
	<circle class="st0" cx="502.804" cy="212.956" r="7.735"/>
	<path class="st0" d="M443.499,147.93c4.664,0,8.46-3.798,8.46-8.461c0-4.664-3.797-8.46-8.46-8.46c-4.663,0-8.461,3.796-8.461,8.46
		C435.038,144.133,438.836,147.93,443.499,147.93z"/>
	<circle class="st0" cx="495.069" cy="268.394" r="7.735"/>
	<path class="st0" d="M509.895,162.676c0-5.349-4.32-9.669-9.669-9.669c-5.348,0-9.669,4.32-9.669,9.669
		c0,5.348,4.322,9.669,9.669,9.669C505.574,172.345,509.895,168.024,509.895,162.676z"/>
	<path class="st0" d="M498.896,85.423c-7.252,0-13.104,5.851-13.104,13.104c0,7.252,5.852,13.104,13.104,13.104
		c7.252,0,13.104-5.852,13.104-13.104C512,91.273,506.148,85.423,498.896,85.423z"/>
	<path class="st0" d="M445.04,220.229c-19.208,0-57.733,2.387-110.281,17.384l5.662,19.842
		c48.588-13.869,84.082-16.387,102.313-16.558c-14.04,32.563-37.025,62.628-65.671,89.572
		c-48.729,45.869-113.644,82.522-176.102,107.45c-62.378,24.979-122.63,38.214-160.491,38.144c-3.777,0-7.242-0.162-10.526-0.414
		c10.134-17.788,33.722-53.292,78.926-93.077l-13.618-15.491h-0.01c-68.128,59.97-90.096,111.5-90.57,112.607L0,490.788
		l11.684,2.921c8.36,2.075,17.969,2.972,28.786,2.982c28.202-0.021,64.815-6.245,105.305-17.95
		c60.685-17.586,129.81-47.571,189.539-88.564c59.637-41.014,110.18-93.088,132.107-155.777l4.28-12.278l-12.933-1.371
		C458.426,220.711,453.692,220.229,445.04,220.229z"/>
	<path class="st0" d="M205.966,316.176c8.935-4.754,37.368-18.865,46.021-23.006l-8.904-18.613
		c-9.096,4.362-37.166,18.292-46.806,23.408L205.966,316.176z"/>
</g>
</svg>