<?xml version="1.0" encoding="utf-8"?>

<!DOCTYPE svg PUBLIC "-//W3C//DTD SVG 1.1//EN" "http://www.w3.org/Graphics/SVG/1.1/DTD/svg11.dtd">
<!-- Uploaded to: SVG Repo, www.svgrepo.com, Generator: SVG Repo Mixer Tools -->
<svg height="800px" width="800px" version="1.1" id="_x32_" xmlns="http://www.w3.org/2000/svg" xmlns:xlink="http://www.w3.org/1999/xlink" 
	 viewBox="0 0 512 512"  xml:space="preserve">
<style type="text/css">
	.st0{fill:#000000;}
</style>
<g>
	<path class="st0" d="M164.011,121.713c1.773,0.195,3.546,0.286,5.301,0.286c24.04,0,44.68-18.064,47.405-42.483l-9.401-1.043
		l9.401,1.035c0.194-1.773,0.286-3.538,0.286-5.292c0-24.049-18.073-44.681-42.483-47.405c-1.783-0.194-3.556-0.296-5.301-0.296
		c-24.058,0.009-44.69,18.074-47.414,42.492c-0.194,1.773-0.296,3.546-0.296,5.302C121.519,98.357,139.584,118.989,164.011,121.713z
		 M140.609,71.104c1.607-14.749,14.139-25.675,28.611-25.675c1.062,0,2.133,0.065,3.204,0.185
		c14.74,1.607,25.675,14.149,25.665,28.602c0,1.052-0.056,2.124-0.176,3.213c-1.607,14.74-14.157,25.666-28.602,25.656
		c-1.062,0-2.134-0.055-3.223-0.175c-14.74-1.616-25.665-14.149-25.665-28.602C140.424,73.246,140.489,72.175,140.609,71.104z"/>
	<path class="st0" d="M373.109,0c-11.886,0-79.017,30.966-79.017,259.228c0,159.938,30.91,203.28,49.067,238.724
		c1.496,2.918,5.191,8.645,11.24,8.645h37.413c6.048,0,9.742-5.726,11.238-8.645c18.158-35.445,49.068-78.786,49.068-238.724
		C452.117,30.966,384.977,0,373.109,0z M391.183,479.879c-1.422,2.669-2.798,5.264-4.119,7.804h-27.918
		c-1.321-2.54-2.697-5.135-4.12-7.804c-17.732-33.293-42.02-78.898-42.02-220.651c0-177.476,42.778-232.768,60.103-239.898
		c17.326,7.139,60.094,62.45,60.094,239.898C433.203,400.981,408.915,446.586,391.183,479.879z"/>
	<path class="st0" d="M261.675,194.71c-23.079-35.925-43.082-54.285-88.89-55.671c-1.118-0.037-2.263-0.056-3.426-0.056
		c-24.271,0-82.195,8.331-96.002,85.492l-0.074,0.415l-0.055,0.416l-13.16,98.55l-0.112,0.804l-0.037,0.804
		c-0.406,8.727,2.595,17.095,8.469,23.55c5.883,6.474,13.927,10.261,22.655,10.676l1.56,0.037c4.581,0,8.949-0.942,12.92-2.651
		l2.817,118.49C108.331,495.45,124.872,512,145.208,512c10.648,0,20.262-4.535,27.004-11.784
		c6.741,7.25,16.346,11.784,27.004,11.784c20.336,0,36.886-16.55,36.886-36.886l4.258-185.28c5.773,3.796,12.569,5.864,19.644,5.864
		l25.647-0.609v-18.914l-25.647,0.609c-5.218,0-9.882-2.374-12.985-6.086c-1.653-1.238-3.269-2.66-4.793-4.332l-19.838-17.898
		l-5.2,226.645c0,9.937-8.044,17.972-17.972,17.972s-17.981-8.035-17.981-17.972l-5.006-128.288c-0.083-2.162-1.856-3.87-4.017-3.87
		c-2.162,0-3.935,1.708-4.017,3.87l-5.015,128.288c0,9.937-8.044,17.972-17.972,17.972c-9.928,0-17.963-8.035-17.963-17.972
		l-4.23-201.174c-0.037-1.653-1.302-3.01-2.946-3.14c-1.644-0.139-3.122,0.988-3.426,2.605l-10.279,54.276
		c-0.36,7.389-6.455,13.133-13.761,13.133l-0.665-0.018c-7.61-0.36-13.484-6.825-13.124-14.435l13.16-98.55
		c10.694-59.744,51.894-69.912,77.383-69.912c0.969,0,1.93,0.019,2.854,0.046c36.581,1.108,51.791,13.114,73.384,46.721
		l23.348,37.718l16.707,0.304v-18.914l-6.05-0.11L261.675,194.71z"/>
</g>
</svg>