<?xml version="1.0" encoding="utf-8"?>

<!DOCTYPE svg PUBLIC "-//W3C//DTD SVG 1.1//EN" "http://www.w3.org/Graphics/SVG/1.1/DTD/svg11.dtd">
<!-- Uploaded to: SVG Repo, www.svgrepo.com, Generator: SVG Repo Mixer Tools -->
<svg version="1.1" id="_x32_" xmlns="http://www.w3.org/2000/svg" xmlns:xlink="http://www.w3.org/1999/xlink" 
	 width="800px" height="800px" viewBox="0 0 512 512"  xml:space="preserve">
<style type="text/css">
<![CDATA[
	.st0{fill:#000000;}
]]>
</style>
<g>
	<path class="st0" d="M483.073,344.109l-44.938-150.703l-0.266,0.813C432.354,86.031,342.886,0,233.339,0
		C120.229,0,28.526,91.688,28.526,204.797v73.953c0,47.109,15.953,90.469,42.688,125.063V512h239.844v-43.75
		c49.109-20.172,88.625-58.859,109.891-107.375l53.641-4.359c2.906-0.234,5.547-1.766,7.203-4.172
		C483.433,349.922,483.901,346.906,483.073,344.109z M233.323,358.391c-84.688,0-153.594-68.906-153.594-153.594
		S148.636,51.203,233.339,51.203c84.688,0,153.594,68.906,153.594,153.594S318.026,358.391,233.323,358.391z"/>
	<path class="st0" d="M276.386,275.313c3.938,11.078-1.875,23.25-12.953,27.172c-11.094,3.922-23.25-1.875-27.172-12.953
		c-3.938-11.094,1.875-23.25,12.953-27.188C260.308,258.438,272.464,264.234,276.386,275.313z"/>
	<path class="st0" d="M228.308,133.172c-4.313-12.203-17.703-18.578-29.891-14.266c-12.188,4.328-18.578,17.719-14.266,29.906
		l33,80.406c3.531,9.969,14.484,15.219,24.453,11.672c9.984-3.531,15.203-14.484,11.672-24.453L228.308,133.172z"/>
</g>
</svg>