<?xml version="1.0" encoding="utf-8"?>

<!DOCTYPE svg PUBLIC "-//W3C//DTD SVG 1.1//EN" "http://www.w3.org/Graphics/SVG/1.1/DTD/svg11.dtd">
<!-- Uploaded to: SVG Repo, www.svgrepo.com, Generator: SVG Repo Mixer Tools -->
<svg version="1.1" id="_x32_" xmlns="http://www.w3.org/2000/svg" xmlns:xlink="http://www.w3.org/1999/xlink" 
	 viewBox="0 0 512 512"  xml:space="preserve">
<style type="text/css">
	.st0{fill:#000000;}
</style>
<g>
	<rect x="126.842" y="458.524" class="st0" width="78.282" height="10.89"/>
	<rect x="306.876" y="458.524" class="st0" width="78.283" height="10.89"/>
	<path class="st0" d="M441.281,415.519c-4.797-10.408-11.616-18.784-19.376-25.454c-15.56-13.34-34.676-20.072-50.845-24.751
		c-10.763-3.09-20.364-5.279-26.331-7.397c-2.734-0.948-5.106-1.28-7.089-1.675c-0.482-0.086-0.83-0.189-1.257-0.277l-3.967-18.025
		c-1.865-8.369-8.551-14.62-16.753-16.106c0-3.824,0-8.052,0-12.699c9.767-10.873,23.818-27.722,29.595-54.44
		c2.008-0.917,3.998-1.937,5.927-3.28c3.169-2.189,6.061-5.066,8.614-8.653c5.12-7.215,9.064-17.054,13.442-32.29
		c1.644-5.792,2.418-10.834,2.418-15.315c0.016-5.176-1.058-9.673-3.018-13.308c-0.506-0.956-1.185-1.652-1.778-2.466v-10.052h1.13
		v-6.654c17.124-50.355,18.207-115.984-58.668-136.555c-100.14-67.772-153.948,16.864-160.831,24.276
		c-26.3,28.322-35.403,60.691-26.3,97.106c5.35,21.408,9.744,28.56,14.952,31.815v0.063c-0.609,0.814-1.288,1.509-1.794,2.466
		c-1.952,3.635-3.011,8.132-3.011,13.308c0.008,4.481,0.766,9.523,2.426,15.315c4.362,15.236,8.306,25.075,13.426,32.29
		c2.56,3.587,5.469,6.464,8.63,8.653c1.912,1.343,3.904,2.363,5.926,3.28c5.769,26.718,19.812,43.566,29.588,54.44
		c0,4.647,0,8.875,0,12.699c-8.195,1.486-14.889,7.737-16.738,16.106l-3.99,18.025c-0.419,0.088-0.774,0.19-1.242,0.277
		c-1.991,0.395-4.37,0.727-7.096,1.675c-5.958,2.118-15.568,4.307-26.323,7.397c-16.177,4.678-35.3,11.411-50.853,24.751
		c-7.76,6.67-14.588,15.046-19.369,25.454c-4.812,10.399-7.547,22.759-7.547,37.22c0,3.358,0.142,6.836,0.443,10.432
		c0.237,2.513,1.185,4.559,2.307,6.242c2.134,3.137,4.979,5.485,8.535,7.879c6.22,4.124,14.849,8.155,25.897,12.107
		C133.425,501.19,188.165,511.985,256,512c67.828-0.015,122.568-10.81,155.632-22.6c11.048-3.952,19.677-7.982,25.904-12.107
		c3.556-2.394,6.394-4.742,8.551-7.879c1.114-1.683,2.07-3.73,2.284-6.242c0.308-3.596,0.451-7.073,0.451-10.432
		C448.836,438.278,446.086,425.918,441.281,415.519z M317.79,341.172l5.69,25.778l13.482,60.968l-53.35-7.049l-20.206,21.708
		l0.078-16.018h-0.529l48.838-60.841l-0.032-1.975c0-0.016-0.095-4.26-0.174-9.649c-0.079-5.382-0.174-11.901-0.174-16.343
		c0-0.458,0-0.869,0.016-1.296h0.49C314.731,336.455,317.181,338.422,317.79,341.172z M180.547,247.962l-0.758-4.29l-4.094-1.462
		c-2.6-0.932-4.6-1.88-6.322-3.082c-2.568-1.809-4.884-4.275-7.594-9.324c-2.671-5.026-5.516-12.541-8.614-23.439
		c-1.367-4.758-1.849-8.456-1.849-11.206c0-3.2,0.608-5.073,1.24-6.242c0.743-1.36,1.676-2.039,2.734-2.576
		c9.152,7.207,17.433,19.835,17.433,19.835s-2.023-28.386-2.023-43.495c9.104-65.748,76.875-22.253,102.163-69.795
		c0,0,8.124,15.086,28.322,23.265c42.484,17.196,38.438,77.887,38.438,77.887s-3.651,21.305,12.747-8.685l0.569-0.071
		c0.506,0.024,1.746,0.142,2.932,0.593c1.47,0.592,2.624,1.32,3.572,3.043c0.624,1.169,1.233,3.042,1.248,6.242
		c0,2.75-0.49,6.448-1.849,11.206c-3.114,10.898-5.943,18.413-8.613,23.439c-2.711,5.05-5.042,7.515-7.586,9.324
		c-1.747,1.202-3.73,2.15-6.338,3.082l-4.094,1.462l-0.759,4.29c-4.796,26.821-18.618,41.923-28.828,53.295l-1.928,2.133v2.877
		c0,8.455,0,15.489,0,21.51v0.119v0.118l0.032,0.956h-0.166c0,3.619-0.04,5.706-0.04,8.779c0,7.246,0.206,19.488,0.3,24.221
		l-14.738,18.358c-8.29,4.725-18.681,7.641-30.085,7.633c-11.395,0.008-21.794-2.908-30.092-7.633l-14.73-18.358
		c0.087-4.734,0.3-16.975,0.3-24.221c0-3.074-0.048-5.16-0.048-8.779h-0.158l0.032-0.956v-0.118v-0.119c0-6.022,0-13.055,0-21.51
		v-2.877l-1.912-2.133C199.181,289.885,185.336,274.784,180.547,247.962z M188.513,366.95l5.706-25.778
		c0.6-2.75,3.058-4.718,5.879-4.718h0.49c0,0.426,0,0.838,0,1.296c0,4.442-0.08,10.961-0.174,16.343
		c-0.08,5.389-0.158,9.633-0.158,9.649l-0.04,1.975l48.83,60.841h-0.522l0.063,16.018l-20.183-21.708l-53.373,7.049L188.513,366.95z
		 M433.474,461.266c-0.19,0.277-0.593,0.743-1.296,1.36c-1.66,1.478-4.663,3.469-8.748,5.563c-8.18,4.22-20.65,8.93-36.51,13.221
		c-31.744,8.598-77.12,15.623-130.92,15.623c-53.792,0-99.16-7.025-130.912-15.623c-15.86-4.291-28.33-9.001-36.525-13.221
		c-4.078-2.094-7.081-4.086-8.724-5.563c-0.726-0.617-1.122-1.083-1.32-1.36c-0.229-2.947-0.355-5.809-0.355-8.527
		c0.023-16.801,4.124-29.074,10.47-38.698c9.506-14.383,24.759-23.186,40.682-29.184c7.942-2.995,15.954-5.27,23.32-7.238
		c7.301-1.968,13.892-3.588,19.408-5.516l-16.247,73.453l66.902-8.827L256,472.504l33.317-35.775l66.886,8.827l-16.239-73.453
		c5.524,1.928,12.115,3.548,19.401,5.516c7.365,1.968,15.394,4.243,23.328,7.238c15.931,5.998,31.175,14.801,40.666,29.184
		c6.353,9.625,10.462,21.898,10.494,38.698C433.853,455.458,433.718,458.319,433.474,461.266z"/>
</g>
</svg>