<?xml version="1.0" encoding="utf-8"?>

<!DOCTYPE svg PUBLIC "-//W3C//DTD SVG 1.1//EN" "http://www.w3.org/Graphics/SVG/1.1/DTD/svg11.dtd">
<!-- Uploaded to: SVG Repo, www.svgrepo.com, Generator: SVG Repo Mixer Tools -->
<svg height="800px" width="800px" version="1.1" id="_x32_" xmlns="http://www.w3.org/2000/svg" xmlns:xlink="http://www.w3.org/1999/xlink" 
	 viewBox="0 0 512 512"  xml:space="preserve">
<style type="text/css">
	.st0{fill:#000000;}
</style>
<g>
	<path class="st0" d="M486.277,196.05c-3.3-88.035-62.423-161.777-143.008-186.854v145.796
		c33.365,8.352,58.118,38.456,58.118,74.415c0,42.412-34.386,76.798-76.798,76.798c-3.616,0-7.151-0.341-10.63-0.819
		c-2.076,6.04-4.638,12.186-7.913,18.332c-10.443,19.581-27.86,38.789-54.202,50.739c-11.49,5.222-24.77,8.87-39.583,10.889
		c-3.9,8.4-12.349,14.262-22.223,14.262h-33.244c-13.556,0-24.542-10.986-24.542-24.535c0-13.572,10.986-24.558,24.542-24.558
		h33.244c8.18,0,15.372,4.038,19.831,10.192c21.762-3.081,37.905-10.574,50.14-20.034c15.494-12.025,24.915-27.681,30.17-42.673
		c-25.11-12.632-42.389-38.561-42.389-68.593c0-34.459,22.702-63.623,53.966-73.345V0.908C295.473,0.325,289.109,0,282.671,0
		C170.116,0,78.878,91.23,78.853,203.786c-15.186,29.236-51.607,103.489-51.607,103.489c-2.797,5.594-2.902,12.154-0.283,17.838
		c2.618,5.684,7.67,9.859,13.734,11.383l33.308,8.335c0,0,16.961,76.604,20.837,94.385c5.854,26.918,14.562,32.747,40.021,32.747
		c25.483,0,55.604-8.245,55.604-8.245V512H408.83v-76.426c0-27.664,7.622-62.374,29.123-88.327
		C481.193,295.064,489.601,239.233,486.277,196.05z"/>
</g>
</svg>