<?xml version="1.0" encoding="utf-8"?>

<!DOCTYPE svg PUBLIC "-//W3C//DTD SVG 1.1//EN" "http://www.w3.org/Graphics/SVG/1.1/DTD/svg11.dtd">
<!-- Uploaded to: SVG Repo, www.svgrepo.com, Generator: SVG Repo Mixer Tools -->
<svg height="800px" width="800px" version="1.1" id="_x32_" xmlns="http://www.w3.org/2000/svg" xmlns:xlink="http://www.w3.org/1999/xlink" 
	 viewBox="0 0 512 512"  xml:space="preserve">
<style type="text/css">
	.st0{fill:#000000;}
</style>
<g>
	<path class="st0" d="M371.202,196.569v-32.676c0-63.627-51.566-115.192-115.202-115.192s-115.184,51.566-115.184,115.192v32.676
		c0,63.617,51.548,115.192,115.184,115.192S371.202,260.186,371.202,196.569z M256,290.817c-51.959,0-94.24-42.281-94.24-94.248
		v-32.676c0-3.598,0.232-7.151,0.642-10.641c55.066-4.187,93.044-15.222,118.56-26.73c15.962,10.178,38.102,20.918,68.939,30.265
		c0.178,2.348,0.357,4.704,0.357,7.106v32.676C350.258,248.536,307.976,290.817,256,290.817z"/>
	<path class="st0" d="M105.944,236.627c13.999,0,25.337-11.356,25.337-25.337v-63.35c0-9.856-5.696-18.293-13.909-22.488
		c6.856-23.793,19.552-45.112,36.621-62.191C180.169,37.094,216.201,20.935,256,20.935c39.818,0,75.85,16.159,102.025,42.326
		c17.301,17.32,30.104,39.005,36.871,63.19c-7.214,4.464-12.071,12.382-12.071,21.489v63.35c0,10.035,5.874,18.642,14.356,22.739
		c-3.375,12.704-8.214,24.756-13.981,35.363c-5.66,10.401-12.178,19.382-18.891,26.256c-5.035-3.794-11.232-6.115-18.016-6.115
		c-16.624,0-30.087,13.472-30.087,30.095s13.463,30.104,30.087,30.104c16.623,0,30.104-13.48,30.104-30.104
		c0-3.705-0.75-7.214-1.982-10.499l1.536-1.438c16.677-17.034,30.622-42.879,37.853-71.751c11.267-2.58,19.677-12.615,19.677-24.65
		v-63.35c0-11.285-7.428-20.748-17.641-24.015C397.414,52.753,332.867,0.018,256,0C178.865,0.018,114.158,53.119,95.981,124.656
		c-9.017,3.875-15.356,12.838-15.356,23.284v63.35C80.626,225.271,91.963,236.627,105.944,236.627z"/>
	<path class="st0" d="M375.326,352.025L256,459.657L136.691,352.025C80.893,385.683,51.914,444.453,51.914,512H256h204.086
		C460.086,444.462,431.125,385.683,375.326,352.025z"/>
	<polygon class="st0" points="229.824,396.842 256,417.777 282.176,396.842 282.176,339.259 229.824,339.259 	"/>
	<path class="st0" d="M211.379,170.901c-7.945,0-14.391,6.446-14.391,14.4c0,7.955,6.446,14.392,14.391,14.392
		c7.946,0,14.392-6.437,14.392-14.392C225.771,177.347,219.326,170.901,211.379,170.901z"/>
	<path class="st0" d="M300.638,170.901c-7.964,0-14.41,6.446-14.41,14.4c0,7.955,6.446,14.392,14.41,14.392
		c7.946,0,14.391-6.437,14.391-14.392C315.029,177.347,308.584,170.901,300.638,170.901z"/>
</g>
</svg>