<?xml version="1.0" encoding="utf-8"?>

<!DOCTYPE svg PUBLIC "-//W3C//DTD SVG 1.1//EN" "http://www.w3.org/Graphics/SVG/1.1/DTD/svg11.dtd">
<!-- Uploaded to: SVG Repo, www.svgrepo.com, Generator: SVG Repo Mixer Tools -->
<svg height="800px" width="800px" version="1.1" id="_x32_" xmlns="http://www.w3.org/2000/svg" xmlns:xlink="http://www.w3.org/1999/xlink" 
	 viewBox="0 0 512 512"  xml:space="preserve">
<style type="text/css">
	.st0{fill:#000000;}
</style>
<g>
	<path class="st0" d="M142.98,79.478c21.942,0,39.734-17.793,39.734-39.743C182.714,17.784,164.922,0,142.98,0
		c-21.95,0-39.742,17.784-39.742,39.734C103.238,61.685,121.03,79.478,142.98,79.478z"/>
	<path class="st0" d="M333.96,217.046c0-8.54-6.93-15.47-15.469-15.47l-64.324-4.149l-26.174-42.315
		c-24.232-37.702-41.278-51.162-82.324-52.398c-28.199-0.847-85.518,8.415-90.008,63.17l-4.456,125.103
		c-0.406,8.54,6.174,15.785,14.714,16.191c8.531,0.407,15.767-6.182,16.174-14.713l7.303-79.461l7.95,278.838
		c0,11.137,9.02,20.157,20.158,20.157c11.129,0,20.166-9.02,20.166-20.157l8-164.88l8.008,164.88
		c0,11.137,9.02,20.157,20.158,20.157c11.136,0,20.158-9.02,20.158-20.157l7.958-287.594l22.249,20.092
		c1.718,1.867,3.535,3.46,5.378,4.854c3.485,4.167,8.722,6.822,14.572,6.822l74.34-3.51
		C327.03,232.507,333.96,225.585,333.96,217.046z"/>
	<path class="st0" d="M346.474,431.619c-6.946,0-12.572,5.627-12.572,12.564s5.626,12.564,12.572,12.564
		c6.938,0,12.564-5.626,12.564-12.564S353.412,431.619,346.474,431.619z"/>
	<path class="st0" d="M393.138,415.47c6.946,0,12.573-5.635,12.573-12.564c0-6.946-5.627-12.581-12.573-12.581
		c-6.929,0-12.564,5.635-12.564,12.581C380.573,409.834,386.208,415.47,393.138,415.47z"/>
	<path class="st0" d="M344.225,386.631c5.643,0,10.207-4.572,10.207-10.215c0-5.635-4.564-10.208-10.207-10.208
		c-5.635,0-10.208,4.573-10.208,10.208C334.018,382.058,338.59,386.631,344.225,386.631z"/>
	<path class="st0" d="M348.267,293.394c6.938,0,12.564-5.627,12.564-12.564c0-6.946-5.626-12.572-12.564-12.572
		s-12.565,5.626-12.565,12.572C335.702,287.768,341.329,293.394,348.267,293.394z"/>
	<polygon class="st0" points="436.283,313.138 410.64,476.282 325.204,476.282 299.552,313.138 275.022,313.138 304.482,500.515 
		431.362,500.515 460.814,313.138 	"/>
</g>
</svg>