<?xml version="1.0" encoding="utf-8"?>

<!DOCTYPE svg PUBLIC "-//W3C//DTD SVG 1.1//EN" "http://www.w3.org/Graphics/SVG/1.1/DTD/svg11.dtd">
<!-- Uploaded to: SVG Repo, www.svgrepo.com, Generator: SVG Repo Mixer Tools -->
<svg height="800px" width="800px" version="1.1" id="_x32_" xmlns="http://www.w3.org/2000/svg" xmlns:xlink="http://www.w3.org/1999/xlink" 
	 viewBox="0 0 512 512"  xml:space="preserve">
<style type="text/css">
	.st0{fill:#000000;}
</style>
<g>
	<path class="st0" d="M288.786,374.298l-32.792,11.653l-32.78-11.653c-1.485-0.537-3.137-0.309-4.431,0.602
		c-1.286,0.911-2.059,2.401-2.059,3.979v27.946c0,1.595,0.786,3.101,2.104,4.004c1.318,0.912,3.003,1.115,4.488,0.537l32.678-12.466
		l32.69,12.466c1.489,0.578,3.166,0.375,4.488-0.537c1.31-0.903,2.104-2.409,2.104-4.004v-27.946c0-1.578-0.765-3.068-2.059-3.979
		C291.923,373.988,290.271,373.761,288.786,374.298z"/>
	<path class="st0" d="M255.799,444.594c4.504-0.09,8.081-3.817,7.991-8.317c-0.089-4.508-3.817-8.081-8.317-8
		c-4.508,0.09-8.089,3.825-7.992,8.326C247.571,441.102,251.29,444.691,255.799,444.594z"/>
	<path class="st0" d="M256.193,464.174c-4.508,0.089-8.081,3.817-7.991,8.317c0.089,4.508,3.816,8.081,8.317,8
		c4.504-0.098,8.089-3.825,7.992-8.326C264.421,467.664,260.702,464.075,256.193,464.174z"/>
	<path class="st0" d="M428.177,412.383c-5.953-7.869-13.533-13.55-21.59-17.692c-10.14-5.225-21.02-8.114-31.258-10.238
		c-21.037-8.48-46.94-20.556-46.94-20.556s19.535-14.656,30.965-26.074c-5.888-3.353-11.442-6.34-16.83-9.148
		c2.552-1.962,6.128-4.679,11.239-8.52c8.13-6.095,16.606-13.305,23.299-21.297c3.345-4.004,6.254-8.22,8.39-12.703
		c2.132-4.46,3.503-9.262,3.512-14.266c0.013-3.963-0.964-8.016-2.876-11.808c1.664-8,2.762-14.518,2.766-20.728
		c0.013-5.2-0.813-10.188-2.608-15.161c-1.79-4.972-4.455-9.912-8.044-15.56c-4.02-6.315-8.15-14.119-11.735-21.402
		c5.103-1.75,10.156-3.744,15.104-6.104c34.265-16.317,9.79-44.059-32.637-35.896l4.895-125.65c0,0-24.479-19.58-97.835-19.58
		c-73.352,0-97.831,19.58-97.831,19.58l4.895,125.65c-42.427-8.162-66.902,19.58-32.637,35.896
		c4.948,2.36,10.002,4.354,15.104,6.104c-3.584,7.283-7.694,15.072-11.735,21.402c-3.588,5.648-6.254,10.588-8.044,15.56
		c-1.794,4.972-2.621,9.961-2.617,15.161c0.012,6.21,1.111,12.736,2.775,20.728c-1.912,3.792-2.888,7.845-2.876,11.808
		c0,5.005,1.379,9.806,3.508,14.266c3.218,6.713,8.134,12.858,13.716,18.546c5.582,5.681,11.882,10.889,17.976,15.454
		c5.787,4.346,9.619,7.267,12.187,9.253c-5.375,3.133-10.408,6.258-14.758,9.106c11.508,11.312,30.253,25.382,30.253,25.382
		s-23.213,10.832-43.534,19.181c-14.457,2.669-30.953,6.551-44.88,16.154c-7.593,5.258-14.352,12.345-19.056,21.646
		c-4.716,9.302-7.357,20.679-7.348,34.368c0,3.182,0.138,6.486,0.428,9.928c0.215,2.417,1.135,4.37,2.213,5.989
		c2.051,3.019,4.772,5.258,8.182,7.552c5.973,3.955,14.246,7.821,24.842,11.612c31.706,11.304,84.204,21.656,149.246,21.672
		c52.848,0,97.456-6.86,129.296-15.478c15.93-4.313,28.646-9.042,37.837-13.769c4.602-2.377,8.325-4.728,11.275-7.3
		c1.482-1.302,2.775-2.669,3.866-4.289c1.074-1.619,1.994-3.572,2.205-5.989c0.285-3.434,0.428-6.73,0.428-9.896
		C440.937,437.041,436.156,422.865,428.177,412.383z M353.788,190.99c3.914,8.098,8.569,17.057,13.399,24.65
		c3.316,5.201,5.469,9.318,6.771,12.964c1.302,3.654,1.835,6.852,1.843,10.75c0.012,5.086-1.042,11.442-2.958,20.37
		c-0.362,1.677-0.053,3.418,0.875,4.874c1.578,2.515,2.173,4.786,2.189,7.292c0,2.572-0.72,5.477-2.234,8.651
		c-2.258,4.769-6.287,9.986-11.239,15.006c-4.94,5.029-10.774,9.88-16.496,14.176c-8.077,6.047-12.484,9.44-14.941,11.377
		c-0.403,0.326-0.68,0.553-0.985,0.798c-2.836-1.302-6.799-3.369-10.905-6.307l-0.964-1.107c-0.179-0.407-0.33-1.017-0.33-1.986
		c-0.032-1.962,0.757-5.2,2.116-8.992c1.241-3.516,2.893-7.577,4.48-11.873c9.367-9.839,16.007-18.27,20.365-25.407
		c4.451-7.365,6.722-13.314,6.779-18.758c0.028-3.353-1.099-6.803-3.617-9.139c-2.498-2.344-5.774-3.206-8.878-3.198
		c-1.904,0.008-3.841,0.383-5.819,0.904c-0.305-0.594-0.655-1.368-1.009-2.434c-1.013-2.97-1.949-7.389-2.677-12.182
		c-1.107-7.21-1.823-15.332-2.25-21.606c-0.094-1.448-0.175-2.758-0.248-3.971C335.905,194.806,344.873,193.26,353.788,190.99z
		 M304.862,20.369c13.652,2.865,22.933,5.737,22.933,5.737l-3.678,85.954h-22.66L304.862,20.369z M255.994,14.689
		c7.312,0,14.681,0.512,21.802,1.302l-3.544,96.069h-18.258H237.74l-3.544-96.069C241.317,15.202,248.686,14.689,255.994,14.689z
		 M247.352,141.836l8.642-17.513l8.646,17.513l19.332,2.816l-13.985,13.631l3.304,19.263l-17.297-9.091l-17.293,9.091l3.304-19.263
		l-13.985-13.631L247.352,141.836z M207.13,20.369l3.406,91.691h-22.66l-3.678-85.954C184.197,26.106,193.478,23.234,207.13,20.369z
		 M182.366,321.718c-0.138,0.073-0.248,0.114-0.387,0.179c-0.683-0.562-1.55-1.237-2.762-2.181
		c-2.645-2.059-6.751-5.192-13.163-9.994c-7.633-5.729-15.45-12.452-21.11-19.238c-2.832-3.386-5.111-6.771-6.624-9.945
		c-1.514-3.174-2.242-6.079-2.234-8.651c0.017-2.506,0.603-4.777,2.189-7.292c0.92-1.457,1.237-3.198,0.875-4.874
		c-1.917-8.927-2.978-15.283-2.962-20.37c0.012-3.898,0.546-7.096,1.847-10.75c1.298-3.646,3.455-7.763,6.771-12.964
		c4.83-7.593,9.485-16.552,13.395-24.65c8.919,2.271,17.887,3.817,26.729,4.851c-0.349,6.087-1.025,15.348-2.225,23.779
		c-0.769,5.452-1.791,10.587-2.93,13.94c-0.358,1.091-0.716,1.872-1.029,2.474c-1.97-0.521-3.907-0.895-5.811-0.904
		c-3.105-0.008-6.38,0.854-8.887,3.198c-2.519,2.336-3.642,5.786-3.609,9.139c0.057,5.444,2.324,11.393,6.779,18.758
		c4.358,7.137,10.994,15.568,20.369,25.407c1.582,4.305,3.235,8.357,4.476,11.873c1.359,3.784,2.14,7.031,2.116,8.992
		c0,0.968-0.154,1.578-0.338,1.986l-0.961,1.107C188.982,318.374,185.173,320.408,182.366,321.718z M319.515,494.08
		c-19.307,2.198-40.572,3.565-63.513,3.565c-22.042,0-42.492-1.278-61.193-3.337c-2.254-18.881-6.909-74.463,9.216-118.937
		c1.64-1.472,3.162-3.068,4.501-4.826c2.608-3.418,4.61-7.698,4.61-12.589c0-1.18,0-1.856,0-2.336l0.517-0.928l-0.517-1.132
		c0-0.984,0-2.808,0-6.209v-2.751l-1.843-2.058c-0.016-0.025-0.045-0.049-0.069-0.073l-9.643-20.833
		c0.72-0.888,1.331-1.839,1.778-2.857c0.932-2.059,1.261-4.216,1.261-6.282c-0.024-4.216-1.241-8.244-2.71-12.468
		c-1.489-4.207-3.308-8.569-4.887-12.972c-0.248-0.684-0.642-1.318-1.148-1.847c-9.436-9.798-15.82-17.993-19.746-24.431
		c-3.959-6.412-5.306-11.141-5.249-13.313c0.041-1.4,0.322-1.498,0.322-1.53c0.016-0.024,0.383-0.35,1.734-0.367
		c1.05,0,2.6,0.252,4.435,0.888c0.765,0.252,1.612,0.407,2.487,0.407c1.867,0.016,3.596-0.741,4.76-1.66
		c2.202-1.758,3.215-3.784,4.187-5.998c1.615-3.874,2.694-8.692,3.597-13.982c1.652-9.79,2.511-21.134,2.938-28.376
		c23.042,1.758,44.563,0.602,60.656,0.602c16.097,0,37.618,1.156,60.664-0.602c0.293,5.062,0.798,12.085,1.64,19.23
		c0.797,6.697,1.847,13.412,3.402,18.83c0.798,2.727,1.672,5.119,2.999,7.259c0.68,1.074,1.485,2.116,2.677,3.036
		c1.164,0.919,2.893,1.676,4.761,1.66c0.875,0,1.713-0.154,2.466-0.407h0.02c1.835-0.635,3.386-0.888,4.436-0.888
		c1.351,0.017,1.709,0.342,1.729,0.367c0.004,0.024,0.285,0.13,0.317,1.53c0.057,2.172-1.282,6.901-5.245,13.313
		c-3.926,6.438-10.315,14.632-19.743,24.431c-0.504,0.529-0.899,1.163-1.148,1.847c-1.578,4.403-3.402,8.764-4.887,12.972
		c-1.469,4.224-2.685,8.252-2.718,12.468c0,2.067,0.334,4.223,1.27,6.282c0.313,0.708,0.79,1.342,1.237,1.986l-10.083,21.777
		l1.196-0.302c-0.09,0.098-0.183,0.212-0.273,0.302l-1.843,2.058v2.751c0,6.779,0,7.316,0,7.341v0.008v0.488
		c0,0.432,0,1.246,0,2.768c-0.012,4.736,1.831,8.992,4.354,12.386c2.218,2.978,4.98,5.477,8,7.724
		C326.151,421.896,321.732,475.363,319.515,494.08z"/>
</g>
</svg>