<?xml version="1.0" encoding="utf-8"?>

<!DOCTYPE svg PUBLIC "-//W3C//DTD SVG 1.1//EN" "http://www.w3.org/Graphics/SVG/1.1/DTD/svg11.dtd">
<!-- Uploaded to: SVG Repo, www.svgrepo.com, Generator: SVG Repo Mixer Tools -->
<svg height="800px" width="800px" version="1.1" id="_x32_" xmlns="http://www.w3.org/2000/svg" xmlns:xlink="http://www.w3.org/1999/xlink" 
	 viewBox="0 0 512 512"  xml:space="preserve">
<style type="text/css">
	.st0{fill:#000000;}
</style>
<g>
	<path class="st0" d="M211.437,380.204c-7.234,0-13.094,5.86-13.094,13.094c0,7.234,5.86,13.083,13.094,13.083
		c7.234,0,13.094-5.849,13.094-13.083C224.531,386.064,218.672,380.204,211.437,380.204z"/>
	<path class="st0" d="M296.904,380.204c-7.234,0-13.094,5.86-13.094,13.094c0,7.234,5.86,13.083,13.094,13.083
		c7.234,0,13.094-5.849,13.094-13.083C309.997,386.064,304.138,380.204,296.904,380.204z"/>
	<path class="st0" d="M248.497,370.676h-12.692c0,16.67,0,78.562,0,78.562v6.345h32.534v-12.69l-19.842-0.011
		C248.497,426.709,248.497,384.08,248.497,370.676z"/>
	<path class="st0" d="M485.125,275.104c0-22.891-39.715-24.524-100.223-36.481l15.223-178.827c0.03-0.093,0.113-0.197,0.144-0.29
		l0.134-0.351l0.042-0.382c0.268-2.77,0.475-4.961,0.63-6.49c0.073-0.744,0.135-1.344,0.186-1.736l0.031-0.258l0.114-0.279v-0.588
		c-0.01-0.9-0.207-1.581-0.476-2.366c-1.054-2.873-3.678-6.966-8.805-11.844c-11.802-11.14-36.822-25.619-85.28-31.768
		C291.034,1.25,273.94,0,255.999,0c-16.814,0-32.874,1.106-47.848,3.048c-31.851,3.742-53.864,11.027-68.808,18.779
		c-10.737,5.57-17.806,11.368-22.25,16.214c-2.222,2.418-3.773,4.609-4.827,6.458c-0.516,0.921-0.92,1.768-1.199,2.554
		c-0.269,0.785-0.465,1.467-0.475,2.366v0.588l0.104,0.249c0.041,0.31,0.113,1.158,0.217,2.407c0.113,1.396,0.258,3.276,0.434,5.612
		l0.031,0.372l0.124,0.361c0.093,0.269,0.279,0.517,0.372,0.786l15.264,178.806C66.62,250.528,26.875,252.233,26.875,275.104
		c0,16.906,21.702,32.325,57.397,44.076c-5.343,13.621-7.865,27.82-7.854,41.834l0.01,1.137c0.3,32.636,13.3,64.229,33.628,88.298
		c19.398,22.932,46.071,39.281,75.866,41.421C206.229,504.538,230.07,512,255.669,512h0.972l0.806-0.01
		c25.836-0.352,49.719-8.258,69.923-21.33c29.308-2.925,55.31-19.512,74.108-42.454c19.78-24.194,32.254-55.651,32.264-88.008
		v-0.785c-0.072-13.342-2.459-26.818-7.348-39.788C462.895,307.822,485.125,292.227,485.125,275.104z M325.861,99.634
		c9.043-1.819,17.569-3.938,25.32-6.417c2.811-0.889,5.498-1.85,8.123-2.832l-6.77,94.57c-10.572,2.718-21.423,4.784-32.378,6.304
		L325.861,99.634z M255.999,106.248c8.413,0,16.618-0.289,24.648-0.796l-3.275,89.166c-14.789,0.392-29.216,0.061-42.785-0.713
		l-3.235-88.463C239.371,105.949,247.587,106.238,255.999,106.248z M241.273,237.538l14.893-27.965l14.902,27.965l33.307,4.474
		l-24.12,21.785l5.415,29.267h-2.77l-26.734-13.042l-26.736,13.042h-2.769l5.435-29.267l-24.089-21.785L241.273,237.538z
		 M186.139,99.665l5.611,90.231c-13.352-1.726-24.42-3.586-32.275-5.044l-6.779-94.466
		C162.556,94.064,173.809,97.185,186.139,99.665z M126.778,436.32c-17.218-20.328-28.286-47.548-28.451-74.356
		c-0.072-12.506,2.233-24.865,7.214-36.646c25.578,6.48,56.146,11.337,89.817,14.014c-6.707,5.157-14.21,10.593-22.385,15.874
		c-11.388,7.379-19.749,15.967-25.184,25.381c-5.447,9.415-7.854,19.584-7.761,29.578c0.134,14.912,5.539,29.328,13.744,42.237
		c2.449,3.834,5.209,7.502,8.112,11.058C148.903,457.568,136.844,448.216,126.778,436.32z M316.353,471.138l-5.106,3.886
		c-15.946,9.31-34.352,14.819-54.069,15.068l-0.661,0.01c-21.796,0.165-42.176-6.056-59.465-16.918l-1.519-1.116
		c-10.656-7.865-20.38-17.992-27.304-28.865c-6.946-10.903-10.996-22.436-11.068-33.173c-0.031-7.225,1.602-14.128,5.478-20.876
		c3.886-6.718,10.106-13.373,19.656-19.543c15.429-10.004,28.647-20.421,38.403-28.688c11.512,0.516,23.294,0.785,35.302,0.785
		c11.513,0,22.83-0.248,33.887-0.734c9.817,8.03,22.891,17.971,38.113,27.51c9.632,6.024,15.977,12.577,19.956,19.242
		c3.979,6.687,5.715,13.549,5.788,20.783c0.103,10.727-3.772,22.343-10.552,33.328C336.454,452.836,326.884,463.108,316.353,471.138
		z M384.539,434.327c-9.88,12.049-21.794,21.588-34.692,27.686c2.863-3.608,5.56-7.307,7.948-11.193
		c8.009-13.032,13.196-27.53,13.094-42.443c-0.073-9.984-2.626-20.122-8.227-29.443c-5.57-9.342-14.055-17.786-25.567-24.988
		c-7.688-4.806-14.872-9.777-21.33-14.542c33.463-2.614,63.868-7.388,89.403-13.766c4.403,10.914,6.563,22.333,6.676,33.908
		C412.091,386.354,401.447,413.74,384.539,434.327z"/>
</g>
</svg>