<?xml version="1.0" encoding="utf-8"?>

<!DOCTYPE svg PUBLIC "-//W3C//DTD SVG 1.1//EN" "http://www.w3.org/Graphics/SVG/1.1/DTD/svg11.dtd">
<!-- Uploaded to: SVG Repo, www.svgrepo.com, Generator: SVG Repo Mixer Tools -->
<svg height="800px" width="800px" version="1.1" id="_x32_" xmlns="http://www.w3.org/2000/svg" xmlns:xlink="http://www.w3.org/1999/xlink" 
	 viewBox="0 0 512 512"  xml:space="preserve">
<style type="text/css">
	.st0{fill:#000000;}
</style>
<g>
	<path class="st0" d="M256.45,444.594c4.504-0.09,8.081-3.817,7.992-8.317c-0.09-4.508-3.818-8.081-8.318-8
		c-4.508,0.09-8.089,3.825-7.992,8.326C248.222,441.102,251.941,444.691,256.45,444.594z"/>
	<path class="st0" d="M256.844,464.174c-4.508,0.089-8.081,3.817-7.991,8.317c0.089,4.508,3.817,8.081,8.317,8
		c4.504-0.098,8.089-3.825,7.992-8.326C265.071,467.664,261.353,464.075,256.844,464.174z"/>
	<path class="st0" d="M428.828,412.383c-5.952-7.869-13.533-13.55-21.59-17.692c-10.14-5.225-21.021-8.114-31.258-10.238
		c-21.036-8.48-46.94-20.556-46.94-20.556s19.535-14.656,30.965-26.074c-5.888-3.353-11.442-6.34-16.829-9.148
		c2.552-1.962,6.128-4.679,11.238-8.52c8.13-6.095,16.606-13.305,23.299-21.297c3.345-4.004,6.254-8.22,8.391-12.703
		c2.132-4.46,3.503-9.262,3.512-14.266c0.012-3.963-0.965-8.016-2.877-11.808c1.664-8,2.763-14.518,2.767-20.728
		c0.012-5.2-0.814-10.188-2.608-15.161c-1.791-4.972-4.456-9.912-8.045-15.56c-4.02-6.315-8.15-14.119-11.735-21.402
		c5.103-1.75,10.156-3.744,15.104-6.104c34.266-16.317,9.791-44.059-32.637-35.896l4.895-125.65c0,0-24.479-19.58-97.834-19.58
		c-73.351,0-97.83,19.58-97.83,19.58l4.895,125.65c-42.427-8.162-66.903,19.58-32.637,35.896c4.948,2.36,10.002,4.354,15.104,6.104
		c-3.585,7.283-7.695,15.072-11.735,21.402c-3.589,5.648-6.254,10.588-8.045,15.56c-1.794,4.972-2.62,9.961-2.616,15.161
		c0.012,6.21,1.111,12.736,2.775,20.728c-1.912,3.792-2.889,7.845-2.876,11.808c0,1.782,0.227,3.524,0.549,5.249
		c-9.135,5.054-17.249,11.573-23.043,18.881c-6.209,7.893-12.332,18.278-17.252,29.232c-6.034,13.509-10.119,27.367-12.138,41.267
		c-1.929,13.338-1.795,26.392,0.382,38.712c1.176,6.641,3.007,13.07,5.363,19.287c-3.674,8.602-5.806,18.733-5.798,30.729
		c0,3.182,0.138,6.486,0.428,9.928c0.216,2.417,1.135,4.37,2.213,5.989c2.051,3.019,4.773,5.258,8.183,7.552
		c5.973,3.955,14.245,7.821,24.841,11.612c31.706,11.304,84.204,21.656,149.246,21.672c52.848,0,97.456-6.86,129.296-15.478
		c15.93-4.313,28.646-9.042,37.837-13.769c4.602-2.377,8.326-4.728,11.276-7.3c1.481-1.302,2.775-2.669,3.865-4.289
		c1.074-1.619,1.994-3.572,2.206-5.989c0.285-3.434,0.428-6.73,0.428-9.896C441.588,437.041,436.807,422.865,428.828,412.383z
		 M354.439,190.99c3.914,8.098,8.569,17.057,13.399,24.65c3.316,5.201,5.468,9.318,6.771,12.964
		c1.302,3.654,1.835,6.852,1.843,10.75c0.012,5.086-1.042,11.442-2.958,20.37c-0.362,1.677-0.053,3.418,0.875,4.874
		c1.578,2.515,2.172,4.786,2.189,7.292c0,2.572-0.721,5.477-2.234,8.651c-2.258,4.769-6.286,9.986-11.238,15.006
		c-4.94,5.029-10.775,9.88-16.496,14.176c-8.077,6.047-12.484,9.44-14.942,11.377c-0.402,0.326-0.679,0.553-0.985,0.798
		c-2.836-1.302-6.799-3.369-10.905-6.307l-0.964-1.107c-0.179-0.407-0.329-1.017-0.329-1.986c-0.032-1.962,0.757-5.2,2.116-8.992
		c1.241-3.516,2.892-7.577,4.48-11.873c9.366-9.839,16.007-18.27,20.365-25.407c4.452-7.365,6.722-13.314,6.779-18.758
		c0.028-3.353-1.098-6.803-3.618-9.139c-2.498-2.344-5.774-3.206-8.878-3.198c-1.904,0.008-3.842,0.383-5.819,0.904
		c-0.305-0.594-0.655-1.368-1.009-2.434c-1.013-2.97-1.948-7.389-2.677-12.182c-1.108-7.21-1.823-15.332-2.251-21.606
		c-0.093-1.448-0.175-2.758-0.248-3.971C336.556,194.806,345.523,193.26,354.439,190.99z M305.513,20.369
		c13.652,2.865,22.932,5.737,22.932,5.737l-3.678,85.954h-22.66L305.513,20.369z M256.644,14.689c7.312,0,14.681,0.512,21.802,1.302
		l-3.544,96.069h-18.258h-18.253l-3.544-96.069C241.968,15.202,249.337,14.689,256.644,14.689z M248.002,141.836l8.642-17.513
		l8.647,17.513l19.332,2.816l-13.985,13.631l3.304,19.263l-17.298-9.091l-17.293,9.091l3.304-19.263l-13.985-13.631L248.002,141.836
		z M207.78,20.369l3.406,91.691h-22.66l-3.678-85.954C184.848,26.106,194.129,23.234,207.78,20.369z M139.8,259.723
		c-1.917-8.927-2.978-15.283-2.962-20.37c0.012-3.898,0.545-7.096,1.847-10.75c1.298-3.646,3.455-7.763,6.771-12.964
		c4.83-7.593,9.485-16.552,13.396-24.65c8.919,2.271,17.887,3.817,26.729,4.851c-0.35,6.087-1.026,15.348-2.226,23.779
		c-0.769,5.452-1.791,10.587-2.93,13.94c-0.357,1.091-0.716,1.872-1.029,2.474c-1.969-0.521-3.906-0.895-5.81-0.904
		c-3.104-0.008-6.38,0.854-8.887,3.198c-2.518,2.336-3.642,5.786-3.609,9.139c0.057,5.444,2.323,11.393,6.779,18.758
		c0.847,1.391,1.855,2.864,2.881,4.354c-2.548-0.96-5.188-1.742-7.992-2.148l-0.297-0.032c-7.951-1.074-16.692,0-25.663,3.06
		c0.081-2.336,0.634-4.493,2.128-6.861C139.844,263.141,140.162,261.4,139.8,259.723z M183.867,463.994
		c-2.628,1.342-6.303,2.238-10.632,2.563c-4.476,0.358-9.578,0.114-15.181-0.692c-11.142-1.612-23.482-5.509-33.846-10.717
		c-10.925-5.461-19.336-12.158-23.652-18.848C87.9,416.77,83.334,394,86.984,368.65c3.878-27.026,16.553-50.903,26.237-63.134
		c5.139-6.518,13.065-12.647,21.744-16.813c9.078-4.362,18.116-6.177,25.44-5.118l0.158-1.082l-0.102,1.09
		c4.818,0.692,8.692,2.532,11.821,5.591c3.601,3.532,6.14,8.683,7.54,15.316c0.834,3.915,0.988,7.691,0.48,11.222
		c-1.542,10.652-8.7,17.066-14.433,20.565c-7.226,4.411-16.284,6.486-23.656,5.42c-2.922-0.423-5.444-1.335-7.28-2.636
		c-1.758-1.254-2.909-2.808-3.511-4.786l-0.965-3.108l-11.502,3.508l0.952,3.149c1.367,4.492,4.162,8.317,8.073,11.076
		c3.442,2.434,7.662,4.012,12.532,4.72c10.14,1.441,21.952-1.188,31.62-7.055c5.001-3.044,9.249-6.844,12.545-11.198l-1.124,7.853
		l-0.179,3.084l3.048,0.472c0.105,0.008,10.238,1.579,22.042,7.072c12.846,5.998,18.806,11.124,24.272,17.488
		c2.339,2.677,3.271,7.308,2.526,12.394c-0.537,3.776-1.998,7.576-4,10.384c-1.277,1.798-2.799,3.182-4.337,3.907l-48.226-25.179
		l-5.567,10.685l48.405,25.261c0.065,0.716,0.041,1.595-0.098,2.522c-0.602,4.411-3.41,10.116-6.974,14.201
		c-1.807,2.099-3.748,3.728-5.615,4.712c-1.709,0.895-3.211,1.238-4.57,1.034l-0.533-0.089l-6.152-1.457l-1.383-0.22
		c-1.408-0.374-2.865-0.813-4.367-1.286c-6.966-2.181-14.546-5.094-19.669-7.121c-2.828-1.147-5.241-2.132-6.942-2.84
		c-1.416-0.594-3.068-1.302-3.068-1.302l-2.918-0.423l-3.214,7.43l-1.119,2.987l2.918,1.245c0.781,0.333,7.767,3.345,16.21,6.551
		c5.278,1.994,10.054,3.662,14.205,4.957c3.812,1.212,7.084,2.091,9.965,2.677c0.842,2.197,1.115,4.272,0.834,6.177
		c-0.33,2.286-1.4,4.476-3.268,6.698C193.193,458.298,189.172,461.235,183.867,463.994z M185.356,334.43
		c2.438-3.41,4.305-7.145,5.53-11.1c1.338,1.05,2.771,2.059,4.277,3.002c5.338,3.304,11.186,5.534,16.455,6.316
		c1.318,0.195,2.628,0.284,3.873,0.292c3.573-0.008,6.796-1.131,9.746-2.343c1.672-0.684,3.361-1.474,5.285-2.368
		c2.638-1.229,5.347-2.482,8.147-3.484c5.188-1.855,9.586-2.442,13.831-1.831c0.968,0.138,1.912,0.334,2.823,0.586
		c3.19,0.887,5.612,2.678,7.182,5.298c1.526,2.572,2.092,5.892,1.592,9.351c-1.144,7.926-8.244,17.952-24.764,22.534
		c-6.803-7.21-14.551-12.548-25.782-17.741c-13.086-6.079-24.222-7.902-25.439-8.089L185.356,334.43z M320.166,494.08
		c-19.307,2.198-40.572,3.565-63.513,3.565c-22.042,0-42.492-1.278-61.194-3.337c-0.517-4.346-1.159-10.702-1.648-18.352
		c5.729-3.279,10.278-6.819,13.647-10.799c3.65-4.28,5.981-9.196,6.73-14.136l0.045-0.277c0.288-2.01,0.333-4.102,0.126-6.185
		c0.574-0.244,1.135-0.496,1.677-0.781c5.228-2.808,9.883-7.3,13.842-13.33c3.585-5.526,5.908-11.385,6.747-16.992
		c0.171-1.188,0.248-2.384,0.272-3.564c2.177-1.522,4.102-3.475,5.855-5.697l13.892-5.297l32.691,12.466
		c1.489,0.578,3.165,0.375,4.487-0.537c1.311-0.903,2.104-2.409,2.104-4.004v-27.946c0-1.578-0.765-3.068-2.059-3.979
		c-1.294-0.912-2.946-1.139-4.431-0.602l-32.792,11.653l-6.075-2.156c0.313-3.646,0.228-7.194-0.512-10.548
		c7.352-2.864,13.542-6.877,18.424-11.857c5.819-5.949,9.509-13.07,10.746-20.686l0.069-0.481c0.972-6.852-0.309-13.68-3.602-19.254
		c-3.552-6.022-9.338-10.376-16.312-12.256c-0.041-0.008-0.081-0.017-0.11-0.017c-0.012,0-0.012-0.008-0.028-0.008
		c0,0,0,0.008-0.012,0.008c-1.478-0.415-2.999-0.732-4.542-0.96c-4.809-0.692-9.818-0.456-14.904,0.716
		c-4.639,1.058-8.748,2.735-11.833,4.094c-1.444,0.652-2.819,1.278-4.094,1.872c-1.672,0.789-3.182,1.472-4.492,2.026
		c-1.034,0.423-1.977,0.756-2.726,0.961c-0.598,0.162-1.001,0.203-1.135,0.211c-0.497,0-1.07-0.048-1.848-0.163
		c-2.466-0.358-5.611-1.636-8.545-3.206c0.058-0.587,0.155-1.172,0.155-1.75c-0.025-4.216-1.242-8.244-2.71-12.468
		c-1.489-4.207-3.308-8.569-4.887-12.972c-0.248-0.684-0.643-1.318-1.148-1.847c-9.436-9.798-15.821-17.993-19.747-24.431
		c-3.959-6.412-5.306-11.141-5.249-13.313c0.041-1.4,0.322-1.498,0.322-1.53c0.017-0.024,0.382-0.35,1.734-0.367
		c1.05,0,2.6,0.252,4.436,0.888c0.764,0.252,1.611,0.407,2.486,0.407c1.867,0.016,3.596-0.741,4.761-1.66
		c2.201-1.758,3.214-3.784,4.186-5.998c1.616-3.874,2.694-8.692,3.598-13.982c1.652-9.79,2.51-21.134,2.938-28.376
		c23.042,1.758,44.564,0.602,60.656,0.602c16.098,0,37.618,1.156,60.665-0.602c0.293,5.062,0.797,12.085,1.64,19.23
		c0.797,6.697,1.847,13.412,3.402,18.83c0.798,2.727,1.672,5.119,2.998,7.259c0.68,1.074,1.486,2.116,2.677,3.036
		c1.164,0.919,2.894,1.676,4.761,1.66c0.875,0,1.714-0.154,2.466-0.407h0.021c1.835-0.635,3.385-0.888,4.435-0.888
		c1.351,0.017,1.709,0.342,1.729,0.367c0.004,0.024,0.285,0.13,0.318,1.53c0.057,2.172-1.282,6.901-5.245,13.313
		c-3.927,6.438-10.315,14.632-19.742,24.431c-0.505,0.529-0.9,1.163-1.148,1.847c-1.579,4.403-3.402,8.764-4.888,12.972
		c-1.468,4.224-2.685,8.252-2.717,12.468c0,2.067,0.333,4.223,1.269,6.282c0.314,0.708,0.789,1.342,1.237,1.986l-10.082,21.777
		l1.196-0.302c-0.089,0.098-0.183,0.212-0.273,0.302l-1.843,2.058v2.751c0,6.779,0,7.316,0,7.341v0.008v0.488
		c0,0.432,0,1.246,0,2.768c-0.012,4.736,1.832,8.992,4.354,12.386c2.218,2.978,4.98,5.477,8,7.724
		C326.802,421.896,322.383,475.363,320.166,494.08z"/>
</g>
</svg>