<?xml version="1.0" encoding="utf-8"?>

<!DOCTYPE svg PUBLIC "-//W3C//DTD SVG 1.1//EN" "http://www.w3.org/Graphics/SVG/1.1/DTD/svg11.dtd">
<!-- Uploaded to: SVG Repo, www.svgrepo.com, Generator: SVG Repo Mixer Tools -->
<svg height="800px" width="800px" version="1.1" id="_x32_" xmlns="http://www.w3.org/2000/svg" xmlns:xlink="http://www.w3.org/1999/xlink" 
	 viewBox="0 0 512 512"  xml:space="preserve">
<style type="text/css">
	.st0{fill:#000000;}
</style>
<g>
	<path class="st0" d="M440.822,238.405c53.91,57.082-75.63,100.268-171.476,41.089c-4.521-2.794-8.979-5.806-13.341-9.094
		c-4.371,3.287-8.812,6.3-13.35,9.094c-95.872,59.18-225.404,15.994-171.494-41.089C-36.278,273.546-14.214,381.26,84.945,385.367
		c87.05,3.596,140.775-43.653,171.061-85.491c30.276,41.838,84.001,89.087,171.052,85.491
		C526.217,381.26,548.281,273.546,440.822,238.405z"/>
	<path class="st0" d="M132.263,225.637c0,14.125,11.332,25.562,25.307,25.562c13.975,0,25.307-11.438,25.307-25.562
		c0-14.117-11.332-25.546-25.307-25.546C143.595,200.092,132.263,211.521,132.263,225.637z"/>
	<path class="st0" d="M329.116,225.637c0,14.125,11.332,25.562,25.307,25.562c13.984,0,25.316-11.438,25.316-25.562
		c0-14.117-11.332-25.546-25.316-25.546C340.448,200.092,329.116,211.521,329.116,225.637z"/>
	<path class="st0" d="M335.09,409.801l-63.268-25.563l-15.826,3.199l-15.816-3.199l-63.277,25.563
		c-15.818,3.182-6.327,25.554,6.326,19.165c12.654-6.388,56.951-28.762,56.951-28.762l15.816,3.199l15.826-3.199
		c0,0,44.288,22.373,56.942,28.762C341.417,435.356,350.908,412.983,335.09,409.801z"/>
	<polygon class="st0" points="231.553,168.141 79.217,81.892 41.723,148.975 231.553,206.471 	"/>
	<polygon class="st0" points="437.668,81.892 285.331,168.141 285.331,206.471 475.162,148.975 	"/>
</g>
</svg>