<?xml version="1.0" encoding="utf-8"?>

<!DOCTYPE svg PUBLIC "-//W3C//DTD SVG 1.1//EN" "http://www.w3.org/Graphics/SVG/1.1/DTD/svg11.dtd">
<!-- Uploaded to: SVG Repo, www.svgrepo.com, Generator: SVG Repo Mixer Tools -->
<svg version="1.1" id="_x32_" xmlns="http://www.w3.org/2000/svg" xmlns:xlink="http://www.w3.org/1999/xlink" 
	 width="800px" height="800px" viewBox="0 0 512 512"  xml:space="preserve">
<style type="text/css">
<![CDATA[
	.st0{fill:#000000;}
]]>
</style>
<g>
	<path class="st0" d="M92.781,101.031l41.453,21V137.5H256h121.766v-15.469l41.453-21c4.188-2.766,6.922-7.016,7.563-11.734
		c0.656-4.719-0.844-9.484-4.125-13.125c0,0-23.203-22.609-47.078-41.953C358.188,20.125,288.828,0,256,0
		c-32.844,0-102.188,20.125-119.594,34.219c-23.859,19.344-47.063,41.953-47.063,41.953c-3.281,3.641-4.781,8.406-4.141,13.125
		C85.859,94.016,88.609,98.266,92.781,101.031z M231.781,84.625C238.859,70.984,232,67.719,232,67.719l5.875-9.359
		c0,0,7.984,8.375,18.125-0.5c10.125,8.875,18.125,0.5,18.125,0.5l5.859,9.359c0,0-6.859,3.266,0.234,16.906
		c4.938,9.516,1.766,18.031-8.266,22.938C263.031,111.938,256,115.75,256,115.75s-7.031-3.813-15.953-8.188
		C230,102.656,226.844,94.141,231.781,84.625z"/>
	<path class="st0" d="M352.891,284.359c1.188-4.422,2.172-9.266,2.891-13.063c0.016-0.063,0.016-0.109,0.031-0.172
		c3.219-0.781,6.141-2.25,8.625-4.047c5.594-4.078,9.641-9.688,12.938-15.547c3.266-5.891,5.688-12.094,7.297-17.609
		c1.219-4.203,1.828-7.984,1.844-11.5c0-3.781-0.75-7.328-2.313-10.359c-1.172-2.25-2.766-4.172-4.516-5.625
		c-0.203-0.172-0.422-0.281-0.609-0.438l-1.313-53.281H256H134.234L132.922,206c-1.688,1.297-3.281,2.922-4.5,4.969
		c-1.969,3.234-2.953,7.203-2.938,11.453c0,3.516,0.625,7.297,1.844,11.5c2.156,7.359,5.703,15.938,10.875,23.344
		c2.594,3.688,5.609,7.109,9.359,9.813c2.484,1.797,5.406,3.266,8.625,4.047c0.25,1.313,0.531,2.75,0.844,4.266
		c0.594,2.891,1.281,6.016,2.078,8.969c0.813,2.969,1.625,5.672,2.813,8.219c6.688,14.234,15.172,25.406,24.313,34.047
		c13.703,12.953,28.766,20.156,41.5,24.125c12.781,3.953,23.172,4.719,28.266,4.719c3.422,0,9.125-0.344,16.391-1.75
		c10.859-2.094,25.141-6.563,39.359-15.969c14.219-9.375,28.281-23.813,38.344-45.172
		C351.266,290.031,352.094,287.328,352.891,284.359z M340.828,262.172l-0.031,0.172c-0.156,0.984-0.922,5.672-2,10.781
		c-0.547,2.531-1.156,5.188-1.781,7.484c-0.609,2.266-1.297,4.234-1.672,5.016c-5.875,12.422-13.078,21.859-20.781,29.156
		c-11.531,10.906-24.25,17-35.141,20.391c-10.859,3.391-19.938,4-23.422,3.984c-2.313,0.016-7.156-0.25-13.297-1.438
		c-9.25-1.781-21.469-5.625-33.453-13.563c-11.984-7.953-23.781-19.906-32.578-38.531c-0.422-0.844-1.156-3.016-1.813-5.484
		c-1-3.734-1.953-8.297-2.609-11.859c-0.344-1.781-0.609-3.328-0.797-4.422c-0.094-0.547-0.172-0.969-0.219-1.266l-0.063-0.422
		l-1.266-7.984l-7.984,1.188l-0.734,0.063c-1.109,0-2.359-0.375-4.109-1.594c-2.594-1.813-5.688-5.656-8.203-10.25
		c-2.547-4.563-4.625-9.828-5.891-14.219c-0.891-3.078-1.188-5.391-1.188-6.953c0-1.703,0.313-2.5,0.5-2.891l0.453-0.563
		c0.266-0.219,0.813-0.531,1.688-0.75c0.844-0.219,1.938-0.313,2.922-0.313c0.766,0,1.453,0.047,1.906,0.094l0.484,0.078
		l9.031,1.797c0.172,0.344,0.344,0.625,0.531,0.984c0.016-0.266,0.063-0.578,0.094-0.859l0.094,0.016v-0.922
		c1.156-10.75,3.453-30.063,4.953-42.375C202.016,193.031,256,191.844,256,191.844s52.922,3.766,91.625-14.578
		c1.484,12.328,3.734,31.234,4.875,41.828v0.938l0.109-0.031c0.031,0.281,0.063,0.594,0.078,0.859
		c0.188-0.344,0.359-0.641,0.531-0.984l9.047-1.813v0.016c0.25-0.047,1.234-0.172,2.375-0.172c0.875,0,1.828,0.063,2.625,0.25
		c0.609,0.125,1.109,0.313,1.453,0.469c0.547,0.297,0.688,0.453,0.906,0.781c0.188,0.344,0.563,1.094,0.578,3.016
		c0,1.563-0.297,3.875-1.188,6.953c-1.688,5.875-4.828,13.25-8.563,18.516c-1.844,2.641-3.828,4.734-5.531,5.953
		c-1.75,1.219-3,1.594-4.109,1.594l-0.719-0.063l-8-1.188L340.828,262.172z"/>
	<path class="st0" d="M176.297,202.313c-2.313,7.656-2.609,30.656,10.594,41.063c23.641,18.609,53.406,2.547,62.375-26.656
		c0.688-2.219,2.047-4.75,6.531-4.75s5.828,2.531,6.516,4.75c8.969,29.203,38.734,45.266,62.375,26.656
		c13.203-10.406,12.906-33.406,10.594-41.063H176.297z"/>
	<path class="st0" d="M456.484,462.594c0,0-5.891-38.813-9.141-45.531c-2.906-5.969-92.266-57.969-112.313-69.594l-56.797,109.844
		l-9.391-54.625l16.078-15.594l-11.25-21.266H256h-17.688l-11.25,21.266l16.078,15.594l-9.391,54.609l-56.781-109.828
		c-20.047,11.625-109.406,63.625-112.297,69.594c-3.266,6.719-9.156,45.531-9.156,45.531c-1.547,7.703,0.25,15.719,4.938,22.031
		c4.703,6.297,11.859,10.313,19.688,11.047c0,0,44.313,16.328,175.859,16.328s175.859-16.328,175.859-16.328
		c7.828-0.734,14.984-4.75,19.672-11.047C456.234,478.313,458.031,470.297,456.484,462.594z"/>
</g>
</svg>