<?xml version="1.0" encoding="utf-8"?>

<!DOCTYPE svg PUBLIC "-//W3C//DTD SVG 1.1//EN" "http://www.w3.org/Graphics/SVG/1.1/DTD/svg11.dtd">
<!-- Uploaded to: SVG Repo, www.svgrepo.com, Generator: SVG Repo Mixer Tools -->
<svg version="1.1" id="_x32_" xmlns="http://www.w3.org/2000/svg" xmlns:xlink="http://www.w3.org/1999/xlink" 
	 width="800px" height="800px" viewBox="0 0 512 512"  xml:space="preserve">
<style type="text/css">
<![CDATA[
	.st0{fill:#000000;}
]]>
</style>
<g>
	<path class="st0" d="M496.031,109.719c0,0-33.406-32.563-67.781-60.438C403.188,28.984,303.281,0,256,0
		S108.813,28.984,83.75,49.281c-34.375,27.875-67.781,60.438-67.781,60.438c-4.75,5.25-6.906,12.109-5.969,18.906
		c0.938,6.781,4.906,12.906,10.906,16.906l59.719,30.25v22.266H256h175.375v-22.266l59.719-30.25c6-4,9.969-10.125,10.906-16.906
		C502.938,121.828,500.781,114.969,496.031,109.719z M278.969,154.938C266.125,161.219,256,166.719,256,166.719
		s-10.125-5.5-22.969-11.781c-14.469-7.094-19.031-19.344-11.938-33.047c10.219-19.656,0.344-24.359,0.344-24.359l8.438-13.469
		c0,0,11.531,12.063,26.125-0.719c14.594,12.781,26.094,0.719,26.094,0.719l8.469,13.469c0,0-9.875,4.703,0.313,24.359
		C298,135.594,293.438,147.844,278.969,154.938z"/>
	<path class="st0" d="M434.156,297.328c-0.313-0.234-0.594-0.406-0.906-0.641l-1.875-76.719H256H80.625l-1.875,76.75
		c-2.438,1.859-4.75,4.188-6.5,7.141c-2.844,4.672-4.25,10.375-4.219,16.5c0,5.063,0.875,10.516,2.625,16.563
		c3.125,10.578,8.219,22.953,15.688,33.609c3.719,5.328,8.094,10.25,13.469,14.156c3.594,2.578,7.781,4.688,12.438,5.813
		c0.344,1.906,0.75,3.969,1.188,6.156c0.875,4.156,1.875,8.656,3,12.906c1.156,4.281,2.344,8.188,4.063,11.844
		c9.625,20.5,21.844,36.594,35,49.031c19.75,18.656,41.438,29.047,59.781,34.75c18.406,5.688,33.375,6.797,40.719,6.813
		c4.906,0,13.156-0.5,23.594-2.516c15.656-3.016,36.219-9.453,56.719-23.016c20.469-13.516,40.719-34.281,55.219-65.063
		c1.688-3.656,2.875-7.563,4.031-11.844c1.688-6.359,3.125-13.328,4.156-18.813c0.031-0.078,0.031-0.156,0.031-0.25
		c4.656-1.125,8.844-3.234,12.438-5.813c8.063-5.875,13.875-13.953,18.625-22.406c4.719-8.469,8.219-17.422,10.531-25.359
		c1.75-6.047,2.625-11.5,2.625-16.563c0.031-5.453-1.063-10.547-3.313-14.906C438.969,302.188,436.656,299.438,434.156,297.328z
		 M418.781,330.375c-2.438,8.453-6.969,19.094-12.344,26.656c-2.656,3.813-5.5,6.813-7.969,8.578
		c-2.5,1.766-4.313,2.297-5.906,2.297l-1.031-0.078L380,366.094l-1.813,11.516l-0.031,0.266c-0.25,1.406-1.344,8.156-2.906,15.5
		c-0.781,3.672-1.656,7.5-2.563,10.781c-0.875,3.281-1.875,6.125-2.406,7.234c-8.438,17.891-18.844,31.484-29.938,41.984
		c-16.594,15.719-34.938,24.5-50.625,29.375c-15.625,4.891-28.688,5.781-33.719,5.75c-3.313,0.016-10.313-0.375-19.156-2.078
		c-13.313-2.563-30.938-8.109-48.188-19.531c-17.25-11.453-34.25-28.672-46.938-55.5c-0.563-1.203-1.656-4.328-2.594-7.891
		c-1.438-5.391-2.781-11.969-3.75-17.094c-0.5-2.578-0.875-4.781-1.156-6.359c-0.125-0.781-0.25-1.391-0.313-1.828l-0.094-0.609
		L132,366.125l-11.5,1.703l-1.063,0.078c-1.594,0-3.406-0.531-5.906-2.297c-3.75-2.609-8.188-8.141-11.844-14.75
		c-3.656-6.578-6.625-14.156-8.469-20.5c-1.281-4.422-1.719-7.734-1.719-10c0.031-2.469,0.469-3.609,0.719-4.141l0.656-0.828
		c0.375-0.328,1.188-0.766,2.438-1.078c1.219-0.313,2.813-0.469,4.188-0.469c1.125,0,2.125,0.094,2.75,0.156l0.719,0.094l13,2.594
		c0.25,0.484,0.5,0.922,0.75,1.422c0.063-0.391,0.094-0.828,0.156-1.234l0.125,0.031v-1.344c1.656-15.469,5-43.297,7.125-61.031
		C178.25,278.031,256,276.344,256,276.344s76.219,5.406,131.969-21.016c2.125,17.75,5.375,44.984,7.031,60.234v1.344l0.125-0.031
		c0.063,0.406,0.094,0.844,0.156,1.234c0.25-0.5,0.5-0.922,0.75-1.406l13.031-2.609c0.375-0.063,1.781-0.25,3.438-0.25
		c1.25,0,2.625,0.109,3.781,0.375c0.844,0.188,1.594,0.438,2.094,0.688c0.75,0.406,0.969,0.641,1.281,1.125
		c0.281,0.469,0.813,1.547,0.844,4.328C420.5,322.625,420.063,325.938,418.781,330.375z"/>
	<path class="st0" d="M141.188,291.375c-3.313,11.047-3.75,44.172,15.281,59.156c34.063,26.813,76.906,3.672,89.844-38.375
		c0.969-3.219,2.938-6.844,9.375-6.844c6.469,0,8.406,3.625,9.406,6.844c12.906,42.047,55.781,65.188,89.844,38.375
		c19.031-14.984,18.594-48.109,15.25-59.156H141.188z"/>
</g>
</svg>