<?xml version="1.0" encoding="utf-8"?>

<!DOCTYPE svg PUBLIC "-//W3C//DTD SVG 1.1//EN" "http://www.w3.org/Graphics/SVG/1.1/DTD/svg11.dtd">
<!-- Uploaded to: SVG Repo, www.svgrepo.com, Generator: SVG Repo Mixer Tools -->
<svg height="800px" width="800px" version="1.1" id="_x32_" xmlns="http://www.w3.org/2000/svg" xmlns:xlink="http://www.w3.org/1999/xlink" 
	 viewBox="0 0 512 512"  xml:space="preserve">
<style type="text/css">
	.st0{fill:#000000;}
</style>
<g>
	<path class="st0" d="M394.445,294.244c0.016,0,0.024,0,0.033-0.008c5.382-0.819,10.186-3.366,13.841-7.02
		c4.539-4.54,7.367-10.831,7.341-17.752v-21.298c0.026-6.888-2.802-13.213-7.341-17.719c-4.515-4.547-10.831-7.375-17.744-7.375
		h-1.116C375.767,135.604,280.907,59.199,256.021,59.199c-24.912,0-119.771,76.405-133.454,163.873h-1.208
		c-6.87,0.033-13.163,2.861-17.652,7.375c-4.548,4.506-7.375,10.831-7.375,17.719v21.298c0,6.92,2.828,13.212,7.375,17.752
		c3.44,3.439,7.954,5.903,12.948,6.862c0.306,0.066,0.604,0.092,0.893,0.141c-0.157,0.702-0.272,1.438-0.446,2.142
		c-9.186,39.918-33.602,72.014-20.224,121.325c12.138,44.747,78.935,66.988,100.25,72.436C218.426,495.588,240.965,512,255.988,512
		c15.056,0,37.594-16.412,58.893-21.878c21.307-5.449,88.112-27.69,100.25-72.436c13.336-49.245-10.979-81.324-20.215-121.168
		C394.742,295.774,394.601,295.005,394.445,294.244z M255.996,87.758c7.144,0,12.923,5.788,12.923,12.915
		c0,7.143-5.779,12.931-12.923,12.931c-7.135,0-12.922-5.788-12.922-12.931C243.073,93.546,248.861,87.758,255.996,87.758z
		 M255.996,144.013c7.144,0,12.923,5.788,12.923,12.923c0,7.152-5.779,12.922-12.923,12.922c-7.135,0-12.922-5.77-12.922-12.922
		C243.073,149.801,248.861,144.013,255.996,144.013z M255.996,192.68c7.144,0,12.923,5.788,12.923,12.922
		c0,7.136-5.779,12.923-12.923,12.923c-7.135,0-12.922-5.788-12.922-12.923C243.073,198.467,248.861,192.68,255.996,192.68z
		 M362.513,378.065c-17.884,25.978-61.406-4.109-106.525-2.736c-45.086-1.372-88.61,28.715-106.493,2.736
		c-17.148-24.969-6.019-57.066,2.505-81.225c0.274-0.777,0.538-1.522,0.802-2.282h206.396c0.264,0.76,0.52,1.505,0.793,2.282
		C368.525,320.999,379.653,353.096,362.513,378.065z M390.575,280.866h-269.15c-0.793,0-1.596-0.083-2.348-0.248
		c-2.191-0.455-4.151-1.546-5.706-3.1c-2.067-2.076-3.332-4.87-3.348-8.053v-21.298c0.017-3.167,1.282-5.978,3.348-8.053
		c1.736-1.728,3.978-2.894,6.499-3.216c0.397-0.066,0.81-0.099,1.224-0.108c0,0-0.008,0.066-0.008,0.108l269.488-0.132
		c3.167,0.016,6.002,1.282,8.07,3.349c2.075,2.075,3.332,4.886,3.332,8.053v21.298c0,3.183-1.256,5.977-3.332,8.053
		c-1.728,1.728-4.01,2.927-6.598,3.25C391.575,280.85,391.079,280.866,390.575,280.866z"/>
	<path class="st0" d="M465.368,60.266C463.417,37.612,454.942,17.033,441.854,0c-5.713,50.41-44.614,92.677-96.91,104.344
		c15.238,17.056,35.156,43.159,48.294,74.677C439.522,158.16,469.8,111.52,465.368,60.266z"/>
	<path class="st0" d="M167.049,104.344C114.761,92.685,75.852,50.41,70.147,0C57.05,17.033,48.584,37.612,46.632,60.266
		c-4.432,51.254,25.846,97.886,72.131,118.746C131.885,147.519,151.811,121.4,167.049,104.344z"/>
</g>
</svg>