<?xml version="1.0" encoding="utf-8"?>

<!DOCTYPE svg PUBLIC "-//W3C//DTD SVG 1.1//EN" "http://www.w3.org/Graphics/SVG/1.1/DTD/svg11.dtd">
<!-- Uploaded to: SVG Repo, www.svgrepo.com, Generator: SVG Repo Mixer Tools -->
<svg height="800px" width="800px" version="1.1" id="_x32_" xmlns="http://www.w3.org/2000/svg" xmlns:xlink="http://www.w3.org/1999/xlink" 
	 viewBox="0 0 512 512"  xml:space="preserve">
<style type="text/css">
	.st0{fill:#000000;}
</style>
<g>
	<path class="st0" d="M262.139,212.836c85.578-0.951,150.552-45.186,162.336-76.932c14.514-39.034-65.814-18.948-65.814-18.948
		S346.099,21.002,314.019,4.264c-27.904-14.575-36.983,12.76-51.88,14.416c-14.86-1.656-23.939-28.991-51.88-14.416
		c-32.042,16.738-44.605,112.692-44.605,112.692S85.325,96.87,99.827,135.904C111.611,167.65,176.573,211.885,262.139,212.836z"/>
	<path class="st0" d="M368.963,254.723h-11.933c-9.536,28.62-42.937,52.473-93.829,52.473c-37.119,0-64.875-12.722-80.909-30.708
		c0.864-2.322,1.408-4.818,1.408-7.46c0-11.637-9.289-21.049-20.851-21.394c-10.029-15.268-28.51-34.674-55.487-28.695
		c-0.964,13.563,5.609,26.298,15.293,35.575c-14.106,1.828-28.559,8.054-36.884,24.248c15.811,15.168,42.369,14.044,59.564,3.385
		c3.668,4.705,9.202,7.807,15.514,8.214c17.973,91.396,102.353,113.05,102.353,113.05S368.963,376.37,368.963,254.723z"/>
	<path class="st0" d="M110.994,455.711c0,0,4.966-0.631,4.274,3.915c-0.394,4.657-5.57,34.18-5.756,35.452
		c-0.21,1.26-0.803,1.061-0.803,1.061s-0.791,0.198-1.099-1.061c-0.197-1.272-5.065-30.795-5.768-35.452
		c-0.396-4.546,4.583-3.915,4.583-3.915v-10.994H83.251v10.994c0,0,4.977-0.631,4.582,3.915c-0.606,4.657-5.769,34.18-5.979,35.452
		c-0.185,1.26-0.889,1.061-0.889,1.061s-0.791,0.198-0.988-1.061c-0.21-1.272-5.163-30.795-5.572-35.452
		c-0.592-4.546,4.274-3.915,4.274-3.915v-10.994H54.519v10.994c0,0,4.583-0.631,5.374,3.915c0.889,5.287,9.338,47.718,9.733,52.374
		h18.999c0.197-1.802,1.481-8.572,3.075-16.922c1.705,8.35,2.989,15.119,3.188,16.922h29.534c0.396-4.656,8.846-46.864,9.945-52.374
		c0.592-4.546,4.977-3.915,4.977-3.915v-10.994h-28.349V455.711z"/>
	<path class="st0" d="M194.299,497.079c-0.79-5.497-9.536-47.705-9.931-52.363h-29.535c-0.395,4.658-8.857,47.286-9.746,52.363
		c-0.791,4.558-5.361,3.915-5.361,3.915V512h26.842v-11.006c0,0-5.163,0.642-4.484-3.915c0-0.94,0.395-3.273,0.802-5.917h11.538
		c0.493,2.644,0.889,4.978,1.086,5.917c0.395,4.558-4.57,3.915-4.57,3.915V512h28.336v-11.006
		C199.277,500.994,195.102,501.637,194.299,497.079z M164.579,480.378c1.594-8.795,3.089-17.898,3.089-18.738
		c0.185-1.272,0.988-1.062,0.988-1.062s0.606-0.21,0.889,1.062c0,0.84,1.594,9.943,3.089,18.738H164.579z"/>
	<path class="st0" d="M243.623,455.711c0,0,4.966-0.631,4.966,3.915c0,4.657,0,18.739,0,18.739s0,1.581,0,3.694
		c0,0-13.217-32.685-14.316-34.921c-1.001-2.224-5.373-2.421-3.879-2.421c1.384,0-25.248,0-25.248,0v10.994
		c0,0,5.558-0.631,5.558,3.915c0,4.657,0,18.739,0,18.739s0,14.057,0,18.714c0,4.558-5.558,3.915-5.558,3.915V512h27.941v-11.006
		c0,0-5.571,0.642-5.571-3.915v-29.3c0,0,16.503,40.739,17.096,41.788c0.395,1.173,1.89,2.432,4.187,2.432
		c2.273,0,19.381,0,19.381,0v-11.006c0,0-4.768,0.642-4.768-3.915c0-4.657,0-18.714,0-18.714s0-14.082,0-18.739
		c0-4.546,4.768-3.915,4.768-3.915v-10.994h-24.557V455.711z"/>
	<path class="st0" d="M273.948,465.333h7.646c0-3.274,0-8.351,4.583-9.401c1.779-0.433,3.878-0.222,3.878-0.222
		s5.559-0.631,5.559,3.915c0,4.657,0,18.739,0,18.739s0,14.057,0,18.714c0,4.558-5.559,3.915-5.559,3.915V512h28.337v-11.006
		c0,0-5.768,0.642-5.768-3.915c0-4.657,0-18.714,0-18.714s0-14.082,0-18.739c0-4.546,5.768-3.915,5.768-3.915
		s1.878-0.211,3.669,0.222c4.583,1.05,4.583,6.127,4.583,9.401h7.646v-20.617h-60.342V465.333z"/>
	<path class="st0" d="M339.947,455.711c0,0,5.571-0.631,5.571,3.915c0,4.657,0,18.739,0,18.739s0,14.057,0,18.714
		c0,4.558-5.571,3.915-5.571,3.915V512h51.51v-24.655h-8.251c0,3.286-0.704,13.65-6.658,13.65c-4.076,0-6.362,0-6.362,0
		s-5.571,0.642-5.571-3.915v-11.946c0-2.334,2.199-2.124,2.199-2.124s0.494,0,2.668,0c3.384,0,3.582,5.718,3.582,7.411h4.484
		v-22.222h-4.484c0,2.012-0.198,7.522-3.582,7.522c-2.174,0-2.668,0-2.668,0s-2.199,0.42-2.199-2.236v-13.859
		c0-4.546,5.571-3.915,5.571-3.915s2.285,0,6.362,0c5.954,0,6.658,10.364,6.658,13.86h8.251v-24.854h-51.51V455.711z"/>
	<path class="st0" d="M432.529,444.716h-35.204v10.994c0,0,5.768-0.631,5.768,3.915c0,4.657,0,18.739,0,18.739s0,14.057,0,18.714
		c0,4.558-5.768,3.915-5.768,3.915V512h35.204c13.823,0,24.953-9.832,24.953-28.769v-9.943
		C457.481,454.55,446.351,444.716,432.529,444.716z M434.123,494.436c0,3.705-2.89,6.559-6.374,6.559c0,0-5.756,0.642-5.756-3.915
		c0-4.657,0-18.714,0-18.714s0-14.082,0-18.739c0-4.546,5.756-3.915,5.756-3.915c3.484,0,6.374,2.852,6.374,6.349V494.436z"/>
</g>
</svg>