<?xml version="1.0" encoding="utf-8"?>

<!DOCTYPE svg PUBLIC "-//W3C//DTD SVG 1.1//EN" "http://www.w3.org/Graphics/SVG/1.1/DTD/svg11.dtd">
<!-- Uploaded to: SVG Repo, www.svgrepo.com, Generator: SVG Repo Mixer Tools -->
<svg height="800px" width="800px" version="1.1" id="_x32_" xmlns="http://www.w3.org/2000/svg" xmlns:xlink="http://www.w3.org/1999/xlink" 
	 viewBox="0 0 512 512"  xml:space="preserve">
<style type="text/css">
	.st0{fill:#000000;}
</style>
<g>
	<path class="st0" d="M208.496,408.864c0,0-0.522-0.137-0.642,0.693c0,0.539-0.966,6.451-2.011,12.167h5.237
		c-0.975-5.716-2.002-11.628-2.002-12.167C208.889,408.727,208.496,408.864,208.496,408.864z"/>
	<path class="st0" d="M376.719,405.707c0,0-3.74-0.411-3.74,2.541c0,3.02,0,12.167,0,12.167s0,9.13,0,12.15
		c0,2.96,3.74,2.541,3.74,2.541c2.259,0,4.141-1.848,4.141-4.252v-21.022C380.859,407.555,378.977,405.707,376.719,405.707z"/>
	<path class="st0" d="M462.443,80.496V0h-21.904l-9.857,4.928l-5.476,7.666l-7.666-5.476l-7.666,16.428l-9.857-21.904h-79.948
		l-6.571,12.047l-5.476-4.381l-12.047,20.808L281.737,1.643h-75.568L193.027,15.88l-6.571-14.238h-40.522l-12.047,33.951
		l-12.047-20.808l-8.761,13.142l-8.762-26.284H49.557v94.186l17.523,8.762l-9.857,5.476l5.476,6.571l14.238,5.476l-17.523,6.571
		v4.381l-9.856,3.286v49.284l17.523,25.189l-17.523,7.666v8.761v29.57l17.523,6.571l10.952,2.19l-28.475,4.381v28.475l18.618,2.19
		l4.381,5.476l-13.142,2.19c2.19,4.381-9.856,8.762-9.856,8.762V425.48l15.332,4.38l-7.666,8.762l8.762,9.857l7.666,6.571
		l-24.094,12.047V512h63.521l4.381-15.333L127.315,512l9.857-30.665L148.124,512h64.616l19.713-19.713l6.571,10.952L255.453,512
		h20.808l4.381-12.047L285.023,512h68.997l10.952-26.284l5.476,15.332l9.857-3.286l4.381,8.762l8.761,5.476h68.997v-33.951
		l-12.047-5.476l12.047-8.762V391.53l-14.237-13.142l4.381-9.857l-20.809-9.857l30.665-12.047v-81.044l-13.142-8.762l-10.952-9.856
		l16.428-6.571l1.095-9.857c-5.476-3.286,6.571-13.142,6.571-13.142V113.352L447.11,100.21l3.286-9.857
		C455.872,84.877,462.443,80.496,462.443,80.496z M189.467,405.707c0,0-2.858-0.411-3.234,2.541
		c-0.719,3.576-6.203,30.982-6.46,34.002h-19.175c-0.129-1.163-0.958-5.562-2.07-10.986c-1.036,5.424-1.865,9.823-2.003,10.986
		h-12.329c-0.256-3.021-5.741-30.571-6.323-34.002c-0.513-2.952-3.49-2.541-3.49-2.541v-7.136h15.692v7.136
		c0,0-3.165-0.411-2.772,2.541c0.257,3.02,3.474,22.195,3.611,23.016c0.136,0.821,0.65,0.693,0.65,0.693s0.454,0.128,0.574-0.693
		c0.136-0.822,3.482-19.996,3.875-23.016c0.256-2.952-2.968-2.541-2.968-2.541v-7.136h15.05v7.136c0,0-3.235-0.411-2.978,2.541
		c0.454,3.02,3.61,22.195,3.747,23.016c0.197,0.821,0.71,0.693,0.71,0.693s0.385,0.128,0.522-0.693
		c0.119-0.822,3.474-19.996,3.73-23.016c0.454-2.952-2.772-2.541-2.772-2.541v-7.136h18.413V405.707z M228.38,442.25h-18.396v-7.145
		c0,0,3.217,0.42,2.961-2.541c-0.129-0.607-0.386-2.122-0.702-3.842h-7.496c-0.264,1.72-0.521,3.235-0.521,3.842
		c-0.436,2.96,2.918,2.541,2.918,2.541v7.145h-17.438v-7.145c0,0,2.978,0.42,3.491-2.541c0.573-3.294,6.067-30.974,6.323-33.994
		h19.174c0.256,3.02,5.938,30.426,6.452,33.994c0.522,2.96,3.234,2.541,3.234,2.541V442.25z M273.112,405.707
		c0,0-3.097-0.411-3.097,2.541c0,3.02,0,12.167,0,12.167s0,9.13,0,12.15c0,2.96,3.097,2.541,3.097,2.541v7.145
		c0,0-11.106,0-12.578,0c-1.498,0-2.464-0.813-2.72-1.574c-0.386-0.684-11.106-27.132-11.106-27.132v19.02
		c0,2.96,3.62,2.541,3.62,2.541v7.145h-18.139v-7.145c0,0,3.602,0.42,3.602-2.541c0-3.02,0-12.15,0-12.15s0-9.147,0-12.167
		c0-2.952-3.602-2.541-3.602-2.541v-7.136c0,0,17.292,0,16.394,0c-0.967,0,1.873,0.129,2.515,1.566
		c0.71,1.454,9.3,22.674,9.3,22.674c0-1.368,0-2.395,0-2.395s0-9.147,0-12.167c0-2.952-3.226-2.541-3.226-2.541v-7.136h15.941
		V405.707z M260.834,366.708c0,0-58.447-14.999-70.896-78.306c-4.372-0.282-8.205-2.431-10.746-5.69
		c-11.91,7.384-30.306,8.162-41.258-2.344c5.767-11.218,15.778-15.53,25.549-16.796c-6.708-6.426-11.26-15.247-10.593-24.642
		c18.686-4.141,31.487,9.3,38.434,19.876c8.009,0.239,14.444,6.758,14.444,14.819c0,1.831-0.377,3.559-0.976,5.168
		c11.106,12.458,30.331,21.27,56.043,21.27c35.252,0,58.388-16.521,64.993-36.346h8.265
		C334.091,347.979,260.834,366.708,260.834,366.708z M316.038,411.953h-4.962c0-2.122,0-5.425-2.978-6.1
		c-1.164-0.283-2.378-0.146-2.378-0.146s-3.748-0.411-3.748,2.541c0,3.02,0,12.167,0,12.167s0,9.13,0,12.15
		c0,2.96,3.748,2.541,3.748,2.541v7.145h-18.404v-7.145c0,0,3.61,0.42,3.61-2.541c0-3.02,0-12.15,0-12.15s0-9.147,0-12.167
		c0-2.952-3.61-2.541-3.61-2.541s-1.36-0.138-2.516,0.146c-2.978,0.676-2.978,3.978-2.978,6.1h-4.962v-13.382h39.179V411.953z
		 M353.163,414.708h-5.365c0-2.276-0.454-9.001-4.321-9.001c-2.652,0-4.132,0-4.132,0s-3.619-0.411-3.619,2.541v9.001
		c0,1.72,1.437,1.446,1.437,1.446s0.317,0,1.729,0c2.19,0,2.327-3.576,2.327-4.885h2.909v14.434h-2.909
		c0-1.103-0.136-4.817-2.327-4.817c-1.412,0-1.729,0-1.729,0s-1.437-0.136-1.437,1.386v7.752c0,2.96,3.619,2.541,3.619,2.541
		s1.48,0,4.132,0c3.867,0,4.321-6.724,4.321-8.855h5.365v16h-33.455v-7.145c0,0,3.62,0.42,3.62-2.541c0-3.02,0-12.15,0-12.15
		s0-9.147,0-12.167c0-2.952-3.62-2.541-3.62-2.541v-7.136h33.455V414.708z M260.098,234.704
		c-59.268-0.659-104.265-31.299-112.428-53.288c-10.045-27.038,45.596-13.126,45.596-13.126s8.702-66.464,30.897-78.058
		c19.354-10.096,25.642,8.839,35.935,9.986c10.319-1.147,16.607-20.081,35.936-9.986c22.22,11.594,30.922,78.058,30.922,78.058
		s55.641-13.912,45.596,13.126C364.389,203.405,319.375,234.045,260.098,234.704z M396.03,423.572
		c0,12.295-7.23,18.678-16.198,18.678h-22.861v-7.145c0,0,3.747,0.42,3.747-2.541c0-3.02,0-12.15,0-12.15s0-9.147,0-12.167
		c0-2.952-3.747-2.541-3.747-2.541v-7.136h22.861c8.968,0,16.198,6.382,16.198,18.55V423.572z"/>
</g>
</svg>