<?xml version="1.0" encoding="utf-8"?>

<!DOCTYPE svg PUBLIC "-//W3C//DTD SVG 1.1//EN" "http://www.w3.org/Graphics/SVG/1.1/DTD/svg11.dtd">
<!-- Uploaded to: SVG Repo, www.svgrepo.com, Generator: SVG Repo Mixer Tools -->
<svg height="800px" width="800px" version="1.1" id="_x32_" xmlns="http://www.w3.org/2000/svg" xmlns:xlink="http://www.w3.org/1999/xlink" 
	 viewBox="0 0 512 512"  xml:space="preserve">
<style type="text/css">
	.st0{fill:#000000;}
</style>
<g>
	<path class="st0" d="M341.809,463.578c-1.576,0-3.152-0.074-4.729-0.228l-5.329,14.868c7.654-0.448,15.087-1.049,22.22-1.649
		l-4.883-13.512C346.684,463.35,344.287,463.578,341.809,463.578z"/>
	<path class="st0" d="M459.672,449.318c-10.887-81.603-53.451-102.028-118.464-122.892c-22.895-7.361-27.924-11.26-27.924-36.334
		c0-8.709,0,0,0-15.014c11.261-12.544,15.388-10.96,24.919-60.057c19.222,0,18.019-25.08,27.103-47.22
		c7.353-18.094,1.203-25.454-5.029-28.379c12.682-62.308-4.655-115.759-69.668-125.37C263.512-9.144,217.04,2.49,197.67,6.317
		c-19.369,3.908-27.176,1.958-27.176,1.958l3.907,27.096c-24.626,29.882-26.656,87.306-23.423,104.425
		c-5.931,3.226-11.334,10.659-4.281,28.005c9.083,22.14,7.881,47.22,27.103,47.22c9.531,49.097,13.658,47.513,24.919,60.057
		c0,15.014,0,6.305,0,15.014c0,25.073-5.029,28.973-27.925,36.334C105.782,347.291,63.217,367.715,52.33,449.318
		c-2.024,14.933,83.708,31.224,203.674,31.224c14.032,0,27.624-0.22,40.608-0.594l10.44-28.98
		c-11.861-9.985-19.442-24.926-19.442-41.59c0-29.956,24.244-54.28,54.199-54.28c29.956,0,54.199,24.325,54.199,54.28
		c0,15.688-6.678,29.801-17.419,39.713l8.564,23.87C433.317,466.811,460.794,457.874,459.672,449.318z"/>
	<path class="st0" d="M289.032,501.04l18.768-4.127L319.588,512l12.162-33.782c-11.188,0.748-22.903,1.276-35.139,1.73
		L289.032,501.04z"/>
	<path class="st0" d="M366.735,512l11.782-15.088l18.768,4.127l-10.131-28.078c-10.139,1.356-21.246,2.551-33.182,3.607L366.735,512
		z"/>
</g>
</svg>