<?xml version="1.0" encoding="utf-8"?>

<!DOCTYPE svg PUBLIC "-//W3C//DTD SVG 1.1//EN" "http://www.w3.org/Graphics/SVG/1.1/DTD/svg11.dtd">
<!-- Uploaded to: SVG Repo, www.svgrepo.com, Generator: SVG Repo Mixer Tools -->
<svg version="1.1" id="_x32_" xmlns="http://www.w3.org/2000/svg" xmlns:xlink="http://www.w3.org/1999/xlink" 
	 width="800px" height="800px" viewBox="0 0 512 512"  xml:space="preserve">
<style type="text/css">
<![CDATA[
	.st0{fill:#000000;}
]]>
</style>
<g>
	<path class="st0" d="M210.438,289.703c-12.5,0-54.656,1.563-54.656,1.563C141.719,294.391,172.953,310,188.578,310
		C204.188,310,222.938,289.703,210.438,289.703z"/>
	<path class="st0" d="M356.219,291.266c0,0-42.156-1.563-54.656-1.563S307.813,310,323.422,310
		C339.047,310,370.281,294.391,356.219,291.266z"/>
	<path class="st0" d="M297.656,364.781c-14.406-7.594-33.844-9.375-41.656-2.609c-7.813-6.766-27.25-4.984-41.656,2.609
		c-19.781,10.406-25.5,32.281-25.5,32.281s48.203,14.906,67.156-25.469c18.953,40.375,67.156,25.469,67.156,25.469
		S317.438,375.188,297.656,364.781z"/>
	<path class="st0" d="M154.719,352.656c0.266-1.688-0.906-3.297-2.609-3.563l-14.906-2.359c-0.047-0.547-0.094-1.078-0.141-1.609
		c-0.422-5.375-0.688-9.875-0.844-13.063c-0.078-1.578-0.125-2.828-0.172-3.672c-0.016-0.422-0.016-0.75-0.031-0.969
		c0-0.219-0.016-0.328-0.016-0.328c-0.047-1.719-1.484-3.078-3.203-3.031c-1.734,0.063-3.094,1.5-3.031,3.219
		c0,0,0.219,7.5,1.078,18.453l-8.406-1.328c-1.703-0.266-3.297,0.906-3.578,2.594c-0.266,1.719,0.906,3.313,2.609,3.578l9.922,1.578
		c0.172,1.719,0.344,3.531,0.531,5.359c0.5,4.828,1.125,9.984,1.875,15.234l-11.359-1.781c-1.703-0.281-3.297,0.875-3.578,2.594
		c-0.266,1.688,0.906,3.297,2.609,3.563l13.313,2.109c0.313,1.859,0.625,3.703,0.953,5.547c1.719,9.313,3.891,18.406,6.703,26.25
		c0.578,1.625,2.375,2.453,4,1.875c1.625-0.594,2.469-2.375,1.875-4c-2.641-7.344-4.766-16.172-6.422-25.25
		c-0.219-1.125-0.406-2.25-0.609-3.406l9.859,1.563c1.703,0.281,3.297-0.891,3.578-2.594c0.266-1.703-0.906-3.313-2.609-3.578
		l-11.859-1.859c-1.063-7.188-1.875-14.25-2.484-20.625l13.375,2.109C152.844,355.531,154.438,354.375,154.719,352.656z"/>
	<path class="st0" d="M481.703,249.125c-0.688-3.719-1.641-7.188-2.844-10.344c-2.016-5.281-4.625-9.516-7.953-12.938
		c-0.781-0.797-1.609-1.547-2.484-2.25c0.563-3.234,1.094-6.578,1.578-9.969c2.422-16.813,3.641-33.328,3.641-49.094
		c0-16.391-1.359-31.656-4.047-45.344c-3.313-16.875-8.703-31.625-16.016-43.875c-4.203-7.031-9.688-13.734-16.313-19.953
		c-10.328-9.703-23.672-18.453-39.625-25.984c-20.578-9.719-44.969-17.281-72.5-22.531C301.891,2.438,277.344,0,256,0
		c-15.969,0-33.797,1.359-51.578,3.922c-31,4.484-59.906,12.266-83.594,22.531c-13.844,6-25.953,12.875-35.984,20.422
		C73.5,55.422,64.609,65,58.422,75.313c-7.313,12.234-12.703,27-16.016,43.875c-2.688,13.688-4.047,28.953-4.047,45.344
		c0,15.766,1.219,32.281,3.641,49.094c0.484,3.375,1.016,6.734,1.578,9.969c-1.719,1.375-3.297,3-4.734,4.813
		c-3.375,4.359-5.859,9.672-7.578,16.266c-1.531,5.969-2.313,12.703-2.313,20.047c0,9.016,1.172,18.609,3.5,28.516
		c2.453,10.547,6.156,21.141,11,31.516c2.813,6.047,6.094,11.313,9.734,15.672c4.813,5.75,10.547,10.172,16.578,12.766
		c1.781,0.75,3.609,1.375,5.453,1.859c0.016,10.422,1,20.672,2.953,30.469c2.859,14.297,7.672,27.016,14.313,37.828
		c8.594,13.938,23.906,34.313,48.063,52.188c14.797,10.938,31.125,19.547,48.531,25.594C209.797,508.344,232.313,512,256,512h0.016
		c23.672,0,46.188-3.656,66.906-10.875c24.797-8.625,47.109-22.25,66.297-40.531c11.641-11.063,22.109-23.969,30.297-37.266
		c3.625-5.891,6.734-12.734,9.234-20.359c3.047-9.266,5.25-19.813,6.578-31.375c0.844-7.438,1.328-15.172,1.438-23.094
		c0.422,0.031,0.859,0.031,1.281,0.031c2.891,0,5.734-0.438,8.453-1.344c4.453-1.438,8.719-4.156,12.344-7.875
		c3.719-3.781,6.891-8.531,9.703-14.563c4.828-10.359,8.531-20.969,11-31.5c2.328-9.922,3.5-19.516,3.5-28.531
		C483.047,259.172,482.594,253.922,481.703,249.125z M461.641,290.594c-2.141,8.813-5.406,18.219-9.969,27.797
		c-1.422,2.984-2.844,5.297-4.188,7.047c-2.031,2.641-3.844,4.031-5.344,4.813c-1.516,0.766-2.797,1-4.094,1
		c-1.031,0-2.078-0.188-3.094-0.5c-1.516-0.469-2.938-1.25-3.906-1.875c-0.484-0.313-0.859-0.594-1.094-0.781
		c-0.109-0.078-0.188-0.141-0.219-0.172l-0.016-0.016l0,0c-2.203-1.938-5.391-2.375-8.047-1.094
		c-2.656,1.313-4.281,4.125-4.063,7.094c0.016,0.156,0.375,5.141,0.313,12.781c-0.063,8.688-0.672,20.844-2.891,33.25
		c-1.109,6.219-2.609,12.484-4.609,18.406c-1.984,5.938-4.484,11.5-7.516,16.344c-5.844,9.328-19.703,29.219-43.625,46.594
		c-11.953,8.688-26.422,16.766-43.719,22.625c-17.313,5.875-37.453,9.531-60.844,9.344c-23.406-0.188-43.484-4.172-60.688-10.313
		c-25.797-9.203-45.172-23.281-59.234-36.875s-22.734-26.656-27-33.719c-6.063-10.031-9.641-21.281-11.625-31.766
		c-2.016-10.484-2.438-20.172-2.391-26.953c0.031-3.094,0.156-5.578,0.266-7.266c0.063-0.844,0.109-1.484,0.156-1.906
		c0.016-0.203,0.031-0.359,0.047-0.453v-0.109v-0.016c0.281-2.375-0.625-4.719-2.406-6.297c-1.75-1.547-4.141-2.141-6.406-1.641l0,0
		c-0.031,0-0.656,0.125-1.688,0.109c-1-0.016-2.359-0.141-3.969-0.578c-2.422-0.656-5.422-2-8.75-4.969
		c-3.328-3-7.016-7.688-10.469-15.219c-4.406-9.656-7.516-19.094-9.516-27.938s-2.875-17.094-2.813-24.281
		c0.031-4.516,0.438-8.625,1.125-12.188c0.516-2.656,1.203-5.031,1.984-7.031c1.172-3.016,2.594-5.188,3.891-6.5
		c0.656-0.656,1.281-1.094,1.859-1.406s1.125-0.5,1.719-0.594h0.016c0.25-0.047,0.484-0.063,0.703-0.063
		c0.391,0,0.75,0.063,1.156,0.172c0.75,0.219,1.703,0.688,2.797,1.547c0.938,0.75,1.984,1.797,3,3.063
		c1.813,2.219,3.594,5.125,5.172,8.203c2.359,4.625,4.25,9.641,5.516,13.438c0.625,1.891,1.109,3.5,1.422,4.609
		c0.156,0.547,0.266,0.984,0.344,1.266c0.047,0.141,0.078,0.25,0.094,0.313l0.016,0.078l0,0c0.781,3.094,3.5,5.344,6.688,5.5
		c3.188,0.172,6.125-1.781,7.219-4.781l36.188-98.844l125.438,44.063c1.531,0.531,3.188,0.563,4.719,0.031l126.125-42.047
		l34.609,99.406c1.047,3.016,3.953,5.016,7.141,4.891c3.203-0.125,5.953-2.313,6.781-5.406c0.016-0.031,0.625-2.313,1.781-5.672
		c0.875-2.531,2.063-5.672,3.5-8.891c1.078-2.406,2.297-4.875,3.625-7.172c1.969-3.422,4.234-6.422,6.297-8.25
		c1.031-0.922,1.984-1.547,2.781-1.891c0.797-0.359,1.406-0.484,2.047-0.484c0.219,0.016,0.453,0.016,0.719,0.078
		c0.531,0.094,1.016,0.25,1.516,0.5c0.875,0.469,1.859,1.25,2.891,2.578c1.547,1.984,3.078,5.172,4.125,9.422
		c1.047,4.219,1.656,9.453,1.594,15.375C464.781,273.563,463.781,281.797,461.641,290.594z"/>
</g>
</svg>