<?xml version="1.0" encoding="utf-8"?>

<!DOCTYPE svg PUBLIC "-//W3C//DTD SVG 1.1//EN" "http://www.w3.org/Graphics/SVG/1.1/DTD/svg11.dtd">
<!-- Uploaded to: SVG Repo, www.svgrepo.com, Generator: SVG Repo Mixer Tools -->
<svg height="800px" width="800px" version="1.1" id="_x32_" xmlns="http://www.w3.org/2000/svg" xmlns:xlink="http://www.w3.org/1999/xlink" 
	 viewBox="0 0 512 512"  xml:space="preserve">
<style type="text/css">
	.st0{fill:#000000;}
</style>
<g>
	<path class="st0" d="M450.993,396.906c-13.169-19.728-33.172-30.628-51.971-37.713c-9.428-3.554-18.64-6.163-26.757-8.384
		c-8.102-2.206-15.152-4.066-19.888-5.846c-8.282-3.078-17.033-7.064-23.138-11.353c-3.049-2.127-5.399-4.318-6.761-6.185
		c-1.377-1.91-1.752-3.23-1.766-4.382c0-7.965,0-17.919,0-31.031c5.514-6.141,12.268-14.092,18.373-24.343
		c3.482,9.371,13.177,26.447,37.346,24.018c31.133-3.128,43.401-31.557,17.458-83.039c-0.85-1.693-1.52-3.287-2.191-4.894
		c0.807-0.757,1.622-1.514,2.3-2.372c3.806-4.772,5.932-10.971,5.939-17.66c-0.007-6.696-2.133-12.888-5.939-17.66
		c-1.068-1.348-2.336-2.552-3.706-3.633c6.552-16.326,19.808-30.793,26.101-52.519c12.017-41.476-28.415-60.895-49.672-29.525
		c-11.605-59.67-56.634-83.515-97.159-79.744C265.201,0.252,260.718,0,256.003,0c-4.714,0-9.197,0.252-13.558,0.642
		c-40.524-3.77-85.554,20.074-97.16,79.744c-21.257-31.37-61.688-11.951-49.671,29.525c6.292,21.726,19.548,36.185,26.108,52.512
		c-1.37,1.088-2.646,2.284-3.713,3.64c-3.806,4.772-5.932,10.964-5.94,17.66c0.007,6.689,2.134,12.888,5.94,17.66
		c0.678,0.858,1.492,1.614,2.3,2.372c-0.671,1.607-1.341,3.201-2.192,4.894c-25.943,51.482-13.674,79.91,17.458,83.039
		c24.169,2.429,33.864-14.647,37.346-24.018c6.105,10.25,12.86,18.202,18.374,24.343c0,13.112,0,23.066,0,31.031
		c0,0.98-0.389,2.393-1.917,4.411c-2.22,2.999-6.841,6.632-12.326,9.71c-5.472,3.114-11.764,5.802-17.271,7.749
		c-6.466,2.292-16.882,4.671-28.552,8.022c-17.538,5.067-38.268,12.377-55.136,26.836c-8.419,7.237-15.815,16.32-21.012,27.608
		c-5.211,11.281-8.188,24.681-8.181,40.373c0,3.64,0.159,7.402,0.491,11.295c0.238,2.724,1.276,4.945,2.493,6.776
		c2.322,3.402,5.4,5.94,9.256,8.542c6.754,4.469,16.11,8.837,28.09,13.126c35.853,12.787,95.213,24.493,168.773,24.508
		c59.764,0,110.207-7.756,146.212-17.502c18.014-4.887,32.394-10.228,42.788-15.57c5.204-2.696,9.414-5.348,12.752-8.26
		c1.672-1.47,3.136-3.013,4.368-4.844c1.211-1.831,2.256-4.051,2.494-6.776c0.325-3.893,0.483-7.641,0.483-11.274
		C465.129,426.871,459.758,410.018,450.993,396.906z M356.515,175.282c1.586-1.924,3.172-2.623,4.671-2.631h16.608
		c1.5,0.008,3.085,0.706,4.678,2.631c1.536,1.91,2.718,4.938,2.703,8.441c0.015,3.496-1.168,6.531-2.703,8.434
		c-1.593,1.932-3.178,2.631-4.678,2.638h-16.608c-1.499-0.007-3.085-0.706-4.671-2.638c-1.542-1.903-2.717-4.938-2.71-8.434
		C353.798,180.22,354.973,177.192,356.515,175.282z M155.492,192.157c-1.586,1.932-3.172,2.631-4.672,2.638h-16.608
		c-1.499-0.007-3.085-0.706-4.678-2.638c-1.535-1.903-2.718-4.938-2.704-8.434c-0.014-3.503,1.168-6.531,2.704-8.441
		c1.593-1.924,3.178-2.623,4.678-2.631h16.608c1.5,0.008,3.086,0.706,4.672,2.631c1.542,1.91,2.717,4.938,2.71,8.441
		C158.21,187.219,157.034,190.254,155.492,192.157z M191.476,347.27c4.101-2.869,7.856-6.091,10.841-9.998
		c2.948-3.863,5.212-8.708,5.212-14.229c0-8.614,0-19.376,0-34.138v-3.114l-2.084-2.32c-9.889-11.014-22.85-25.316-29.221-48.952
		l0.475-8.354c0,0-3.143-14.748-5.053-33.836c0.822-2.724,1.312-5.601,1.319-8.606c-0.007-4.34-0.987-8.419-2.652-12.096
		c-0.612-23.109,2.119-47.17,14.193-58.026c21.921-19.701,43.177-14.762,71.498-7.381c28.322-7.381,49.578-12.32,71.499,7.381
		c12.073,10.856,14.805,34.917,14.192,58.026c-1.665,3.676-2.645,7.756-2.653,12.096c0.008,3.006,0.498,5.882,1.32,8.606
		c-1.91,19.087-5.053,33.836-5.053,33.836l0.475,8.354c-6.372,23.636-19.332,37.937-29.222,48.952l-2.084,2.32v3.114
		c0,14.762,0,25.524,0,34.138c-0.014,5.348,2.069,10.163,4.916,14.006c4.188,5.608,9.955,9.796,16.24,13.457
		c-3.806,4.022-9.089,9.097-15.67,14.078c-13.508,10.25-32.134,19.924-53.961,19.91c-22.532,0.021-41.656-10.301-55.25-20.897
		c-6.012-4.685-10.827-9.349-14.388-13.119C188.102,349.454,189.84,348.409,191.476,347.27z M165.173,360.224
		c3.272-1.16,6.761-2.58,10.272-4.152c3.986,4.441,10.04,10.589,18.049,16.839c14.813,11.54,36.279,23.369,62.509,23.39
		c26.224-0.021,47.698-11.85,62.51-23.39c8.022-6.257,14.092-12.42,18.07-16.86c3.388,1.506,6.791,2.883,10.099,4.123
		c3.482,1.29,7.446,2.465,11.656,3.647c-2.192,5.457-5.45,12.68-9.889,20.572c-4.016-1.924-8.939-1.579-12.658,1.384
		c-5.182,4.123-6.04,11.67-1.924,16.853l1.29,1.622c-5.176,6.581-11.187,12.946-18.056,18.669c-3.352-2.645-7.98-3.46-12.175-1.65
		c-5.579,2.415-8.34,8.564-6.732,14.258c-9.104,4.591-19.333,7.849-30.88,9.168c-1.6-4.736-6.033-8.166-11.31-8.166
		c-5.276,0-9.702,3.431-11.309,8.16c-11.547-1.319-21.769-4.584-30.88-9.176c1.6-5.687-1.153-11.828-6.732-14.244
		c-4.209-1.816-8.866-0.988-12.218,1.679c-6.862-5.723-12.859-12.11-18.027-18.683l1.304-1.636
		c4.116-5.182,3.258-12.73-1.924-16.853c-3.713-2.956-8.629-3.308-12.643-1.392c-0.289-0.504-0.613-1.03-0.886-1.535
		c-4.058-7.388-7.006-14.034-9.061-19.166C157.806,362.552,161.706,361.442,165.173,360.224z M448.464,456.965l-0.7,0.83
		c-1.197,1.211-3.611,3.027-7.006,4.966c-11.972,6.912-35.601,15.396-67.318,21.848c-31.766,6.501-71.801,11.158-117.437,11.158
		c-58.336,0-107.539-7.619-141.965-16.939c-17.199-4.649-30.729-9.76-39.602-14.337c-4.426-2.27-7.676-4.433-9.479-6.034
		c-0.772-0.663-1.203-1.175-1.42-1.47c-0.245-3.201-0.397-6.294-0.397-9.234c0.029-18.23,4.484-31.536,11.368-41.974
		c10.3-15.598,26.836-25.149,44.114-31.651c7.987-3.02,16.002-5.32,23.514-7.345c2.595,6.646,6.768,16.074,12.852,26.411
		l-10.56,13.271c-4.13,5.19-3.264,12.73,1.918,16.853c5.183,4.13,12.73,3.265,16.853-1.918l6.112-7.684
		c5.594,6.862,12.002,13.58,19.492,19.614l-7.014,16.211c-2.631,6.084,0.173,13.141,6.249,15.772
		c6.084,2.631,13.141-0.173,15.772-6.25l5.456-12.629c10.25,5.06,21.834,8.657,34.743,10.056v16.024
		c0,6.624,5.371,11.994,11.994,11.994c6.625,0,11.995-5.37,11.995-11.994V456.49c12.91-1.399,24.494-4.996,34.744-10.056
		l5.456,12.629c2.631,6.077,9.688,8.881,15.772,6.25c6.076-2.631,8.88-9.688,6.249-15.772l-7.042-16.284
		c7.468-6.019,13.956-12.672,19.534-19.52l6.098,7.662c4.123,5.182,11.67,6.047,16.853,1.918c5.182-4.123,6.048-11.663,1.918-16.853
		l-10.582-13.3c0.908-1.557,1.838-3.114,2.667-4.62c4.621-8.405,7.915-15.938,10.12-21.567c2.104,0.577,4.217,1.161,6.401,1.795
		c16.773,4.844,35.306,11.663,49.102,23.506c6.92,5.925,12.716,13.04,16.875,21.992c4.145,8.967,6.696,19.851,6.696,33.503
		C448.86,450.701,448.715,453.779,448.464,456.965z"/>
</g>
</svg>