<?xml version="1.0" encoding="utf-8"?>

<!DOCTYPE svg PUBLIC "-//W3C//DTD SVG 1.1//EN" "http://www.w3.org/Graphics/SVG/1.1/DTD/svg11.dtd">
<!-- Uploaded to: SVG Repo, www.svgrepo.com, Generator: SVG Repo Mixer Tools -->
<svg height="800px" width="800px" version="1.1" id="_x32_" xmlns="http://www.w3.org/2000/svg" xmlns:xlink="http://www.w3.org/1999/xlink" 
	 viewBox="0 0 512 512"  xml:space="preserve">
<style type="text/css">
	.st0{fill:#000000;}
</style>
<g>
	<path class="st0" d="M442.096,402.156c-12.565-18.819-31.657-29.234-49.595-35.991c-8.994-3.387-17.794-5.884-25.54-8
		c-7.733-2.109-14.46-3.881-18.98-5.579c-7.902-2.941-16.256-6.748-22.082-10.836c-2.908-2.035-5.154-4.119-6.452-5.907
		c-1.314-1.822-1.673-3.082-1.685-4.178c0-7.605,0-17.105,0-29.622c10.11-11.256,24.641-28.691,30.61-56.335
		c2.085-0.939,4.149-2.002,6.138-3.386c4.944-3.411,9.142-8.372,12.697-15.112c3.58-6.774,6.748-15.425,10.135-27.266
		c1.714-5.998,2.505-11.214,2.505-15.862c0.004-5.348-1.096-9.994-3.119-13.76c-2.69-5.076-6.834-8.067-10.53-9.706
		C382.717,71.43,330.564,3.518,261.379,6.979C197.978-7.111,157.471-3.593,152.186,52.766c-4.986,11.215-5.303,27.966,1.322,45.772
		c-3.914,13.892-5.034,26.449-5.05,34.705c0,9.484,0,19.866,0,26.367c-1.706,0.544-3.514,1.253-5.435,2.422
		c-2.855,1.756-5.735,4.507-7.746,8.29c-2.022,3.766-3.13,8.412-3.123,13.76c0.009,4.647,0.8,9.863,2.51,15.862
		c4.528,15.763,8.614,25.947,13.904,33.42c2.641,3.708,5.657,6.682,8.932,8.957c1.986,1.384,4.05,2.447,6.135,3.386
		c5.97,27.644,20.501,45.08,30.615,56.335c0,12.516,0,22.017,0,29.622c0,0.932-0.37,2.282-1.825,4.211
		c-2.126,2.858-6.534,6.328-11.77,9.261c-5.22,2.975-11.227,5.545-16.483,7.4c-6.168,2.184-16.109,4.466-27.249,7.654
		c-16.735,4.845-36.522,11.816-52.619,25.617c-8.038,6.905-15.095,15.573-20.055,26.343c-4.965,10.77-7.816,23.566-7.807,38.529
		c0,3.477,0.153,7.07,0.47,10.786c0.226,2.604,1.215,4.713,2.377,6.461c2.216,3.263,5.154,5.677,8.833,8.156
		c6.447,4.268,15.375,8.438,26.812,12.525c34.216,12.203,90.868,23.376,161.074,23.393c57.036,0,105.181-7.4,139.54-16.702
		c17.192-4.656,30.912-9.764,40.832-14.864c4.976-2.562,8.989-5.1,12.178-7.877c1.599-1.409,2.991-2.876,4.17-4.63
		c1.153-1.748,2.15-3.857,2.372-6.461c0.313-3.707,0.462-7.292,0.462-10.752C455.593,430.756,450.468,414.672,442.096,402.156z
		 M194.422,354.786c3.914-2.735,7.498-5.809,10.345-9.542c2.814-3.691,4.972-8.306,4.972-13.579c0-8.223,0-18.498,0-32.58v-2.974
		l-1.985-2.216c-10.568-11.767-24.876-27.389-29.836-55.157l-0.787-4.441l-4.236-1.508c-2.698-0.964-4.754-1.953-6.55-3.197
		c-2.65-1.871-5.052-4.425-7.857-9.649c-2.772-5.199-5.71-12.978-8.924-24.249c-1.409-4.928-1.912-8.768-1.912-11.61
		c0.008-3.296,0.638-5.232,1.286-6.46c0.976-1.763,2.175-2.521,3.696-3.131c1.425-0.544,2.946-0.635,3.243-0.635l8.074,0.512v-8.249
		c0,0,0-17.616,0-32.876c-0.012-3.436,0.28-8.025,0.948-13.191c17.921,25.592,51.906,49.726,108.806,59.515
		c-7.045-12.327-21.135-75.731-21.135-75.731s38.068,55.585,95.49,61.419c0,0.552,0,0.865,0,0.865v8.174l8.026-0.429
		c0.288-0.041,2.998,0.173,4.705,1.318c0.89,0.569,1.61,1.228,2.27,2.439c0.656,1.228,1.282,3.156,1.293,6.46
		c0,2.851-0.502,6.682-1.911,11.61c-4.273,15.054-8.104,23.804-11.618,28.658c-1.764,2.456-3.37,3.988-5.162,5.241
		c-1.792,1.244-3.852,2.232-6.546,3.197l-4.239,1.508l-0.783,4.441c-4.96,27.768-19.269,43.39-29.836,55.157l-1.989,2.216v2.974
		c0,14.082,0,24.356,0,32.58c-0.013,5.109,1.972,9.699,4.692,13.365c4.128,5.529,9.851,9.624,16.084,13.201
		c2.95,1.68,6.047,3.188,9.158,4.598l-29.824,29.745c-12.24,6.814-28.122,11.074-45.61,11.066
		c-17.254,0.008-32.938-4.153-45.1-10.803l-30.603-30.512C185.648,360.174,190.236,357.678,194.422,354.786z M439.691,459.472
		l-0.676,0.79c-1.137,1.162-3.444,2.901-6.682,4.746c-11.428,6.592-33.977,14.692-64.25,20.855
		c-30.318,6.196-68.525,10.646-112.077,10.646c-55.676,0-102.634-7.276-135.49-16.166c-16.418-4.44-29.329-9.319-37.796-13.686
		c-4.219-2.168-7.329-4.236-9.047-5.752c-0.738-0.643-1.15-1.129-1.356-1.409c-0.243-3.057-0.379-6.006-0.379-8.816
		c0.029-17.385,4.28-30.091,10.848-40.054c9.834-14.889,25.613-24.002,42.105-30.206c8.206-3.098,16.508-5.455,24.13-7.498
		c7.638-2.052,14.543-3.75,20.294-5.776c0.144-0.057,0.309-0.116,0.457-0.173l80.288,80.066l2.352,2.727l3.955,4.59l87.176-86.93
		c7.536,2.695,16.904,4.886,27.163,7.886c16.006,4.622,33.692,11.123,46.859,22.428c6.6,5.652,12.137,12.442,16.109,20.995
		c3.955,8.552,6.394,18.943,6.394,31.978C440.07,453.498,439.921,456.431,439.691,459.472z"/>
</g>
</svg>