<?xml version="1.0" encoding="utf-8"?>
<!-- Uploaded to: SVG Repo, www.svgrepo.com, Generator: SVG Repo Mixer Tools -->
<!DOCTYPE svg PUBLIC "-//W3C//DTD SVG 1.1//EN" "http://www.w3.org/Graphics/SVG/1.1/DTD/svg11.dtd">
<svg fill="#000000" width="800px" height="800px" viewBox="0 0 1000 1000" version="1.1" xmlns="http://www.w3.org/2000/svg" xmlns:xlink="http://www.w3.org/1999/xlink"  enable-background="new 0 0 1000 1000" xml:space="preserve">

<g>
<g transform="translate(0.000000,511.000000) scale(0.100000,-0.100000)">
<path d="M5322.6,4974.4c-47-53.4-59.8-106.9-62-250.1c-4.3-119.7-34.2-190.2-513-1173.5c-282.1-577.1-513-1049.5-517.3-1051.6c-2.1-2.1-115.4,17.1-250.1,44.9c-292.8,59.9-566.4,68.4-637,17.1c-62-42.7-134.7-190.2-205.2-410.4c-59.9-188.1-70.5-282.1-34.2-282.1c12.8,0,51.3,15,85.5,32.1c168.9,87.6,160.3,91.9,213.7-113.3c27.8-102.6,72.7-237.3,98.3-297.1c27.8-62,42.7-113.3,36.3-113.3c-66.3,0-1553.9-196.6-1613.8-213.7c-213.7-59.8-239.4-386.9-36.3-485.2c27.8-12.8,273.6-113.3,542.9-222.3c271.5-109,560-228.7,643.4-269.3C3358.3,51.9,3693.9,45.5,4115,169.4c378.3,109,542.9,218,801.5,532.2c113.3,134.7,128.2,162.5,91.9,162.5c-23.5,0-136.8,23.5-250.1,53.4c-126.1,32.1-265,53.4-359.1,53.4c-145.4,0-258.6,38.5-224.4,74.8c8.5,6.4,643.4,85.5,1410.7,171c769.5,87.6,1432.1,164.6,1472.7,173.1c40.6,6.4,68.4,4.3,59.9-4.3c-8.5-8.6-198.8-94-423.2-192.4c-425.4-185.9-572.8-226.6-1177.7-316.3c-113.3-17.1-235.1-44.9-269.3-64.1c-36.3-17.1-149.6-126.1-254.3-241.5C4747.7,302,4724.2,280.6,4551,190.8c-179.6-96.2-397.6-171-619.9-213.8c-218-40.6-575-42.8-709.6,0c-57.7,17.1-109,27.8-113.3,23.5c-4.3-4.3,36.3-166.7,89.8-359.1c106.9-378.3,205.2-793,205.2-863.5c0-57.7,96.2-72.7,478.8-72.7c309.9,0,637,38.5,919.1,104.7c243.7,57.7,273.6,74.8,256.5,141.1c-6.4,29.9-8.6,53.4-2.2,53.4c17.1,0,277.9-363.4,269.3-374c-4.3-4.3-68.4,6.4-141.1,23.5c-121.8,27.8-136.8,27.8-230.8-12.8c-271.5-115.4-654.1-175.3-1162.8-179.5l-374.1-2.2l-207.3-673.3c-115.4-369.7-213.7-694.7-220.2-718.2c-10.7-40.6,2.1-49.2,121.8-79.1c380.5-96.2,884.9-128.3,1184.2-77c111.1,19.2,136.8,32.1,145.3,70.6c4.3,23.5,34.2,245.8,64.1,493.7c29.9,245.8,59.8,451,64.1,455.3c8.5,10.7,10.7,2.1,130.4-485.2l100.4-412.5l102.6,10.7c156,19.2,391.2,109,540.8,205.2c160.3,104.7,367.7,309.9,474.5,470.2c102.6,151.8,254.3,476.7,288.5,611.3c23.5,94.1,57.7,138.9,305.7,395.4c312.1,320.6,491.6,570.7,684,959.7c190.2,376.2,307.8,769.5,346.3,1141.4l15,147.5l111.2,47c156,70.5,209.5,143.2,198.8,280c-6.4,57.7-17.1,121.8-25.7,141.1c-12.8,29.9,32.1,38.5,344.1,70.5c196.7,21.4,376.2,42.7,397.6,47c55.6,17.1,85.5,85.5,57.7,136.8c-29.9,55.6-70.5,55.6-641.2-10.7c-252.2-29.9-470.2-53.4-480.9-53.4c-12.8,0-36.3,59.9-51.3,134.7c-76.9,378.3-275.7,827.2-508.7,1152.1c-175.3,247.9-508.7,579.2-801.5,795.1c-380.5,282.1-534.4,474.5-607,763.1c-25.7,100.5-32.1,177.4-21.4,292.8c12.8,132.5,8.5,164.6-21.4,198.8C5461.6,5021.5,5365.4,5023.6,5322.6,4974.4z M5598.4,3837.3c68.4-77,233-218,365.5-316.3c675.4-500.2,1038.8-1017.4,1222.6-1739.9c25.7-96.2,42.7-175.3,38.5-179.6c-4.3-2.1-669-79.1-1481.2-168.9c-810.1-91.9-1511.2-171-1553.9-177.4l-81.2-12.8v104.7c0,158.2,32.1,198.8,192.4,254.3c76.9,27.8,171,59.9,209.5,74.8c55.6,21.4,83.4,21.4,132.5,0c70.5-29.9,94-77,72.7-158.2c-19.2-79.1,23.5-70.5,113.3,19.2c72.7,72.7,74.8,81.2,66.3,198.8c-10.7,156-130.4,414.7-239.4,521.5c-42.8,40.6-126.1,98.3-183.8,126.1c-59.8,27.8-106.9,57.7-106.9,64.1c0,12.8,763.1,1590.3,878.5,1819l44.9,85.5l91.9-188.1C5438.1,4046.8,5521.5,3920.7,5598.4,3837.3z M7261.3,763.6c-81.2-510.8-303.5-1040.9-619.9-1479.1c-68.4-96.2-226.6-277.9-352.7-404c-124-126.1-254.3-265-290.7-312.1l-64.1-83.4l-203.1,47l-200.9,47l-241.5,344.1l-239.4,344.1l4.3,472.4l6.4,472.4l716,151.8l716,151.8l374.1,162.4c205.2,89.8,382.6,162.5,391.1,164.6C7265.6,842.7,7267.7,806.4,7261.3,763.6z"/>
<path d="M6365.7-1961.6c-79.1-200.9-192.4-404-301.4-540.8c-49.2-57.7-94-115.4-100.5-128.3c-8.5-12.8,55.6-19.2,179.6-14.9c192.4,6.4,194.5,6.4,181.7-42.8c-6.4-27.8-100.5-442.5-207.3-923.4c-215.9-966.1-218-978.9-96.2-1094.4c83.4-76.9,168.9-100.4,271.5-72.7c158.2,44.9,160.3,49.2,575,1359.4c399.7,1265.4,406.1,1293.2,329.2,1410.7c-59.8,91.9-128.2,117.6-429.6,160.3c-162.5,21.4-305.7,40.6-318.5,40.6S6397.8-1878.2,6365.7-1961.6z"/>
<path d="M3296.4-3660.9c0-376.2-2.1-391.2-42.8-391.2c-168.9,0-1690.7-132.5-1737.7-151.7c-32.1-14.9-83.4-53.4-111.1-87.6c-104.7-124-53.4-357,94-431.8c51.3-27.8,239.4-34.2,1192.7-47c1111.5-12.8,1128.6-10.7,1197,32.1c38.5,23.5,83.4,70.5,98.3,102.6c25.6,49.1,207.3,1171.3,207.3,1278.2c0,25.7-51.3,32.1-292.8,32.1c-162.4,2.1-365.5,15-448.9,29.9l-156,25.6V-3660.9z"/>
</g>
</g>
</svg>