<?xml version="1.0" encoding="utf-8"?>
<!-- Uploaded to: SVG Repo, www.svgrepo.com, Generator: SVG Repo Mixer Tools -->
<!DOCTYPE svg PUBLIC "-//W3C//DTD SVG 1.1//EN" "http://www.w3.org/Graphics/SVG/1.1/DTD/svg11.dtd">
<svg fill="#000000" width="800px" height="800px" viewBox="0 0 1000 1000" version="1.1" xmlns="http://www.w3.org/2000/svg" xmlns:xlink="http://www.w3.org/1999/xlink"  enable-background="new 0 0 1000 1000" xml:space="preserve">

<g>
<g transform="translate(0.000000,511.000000) scale(0.100000,-0.100000)">
<path d="M3281.8,4985.1c-222-62.5-377.2-202.6-463.4-420.3c-66.8-168.1-66.8-500,0-666c25.9-64.7,45.3-120.7,41-122.9c-2.2-2.2-329.8-25.9-726.3-51.7c-791-51.7-810.4-56-875-189.7c-43.1-90.5-25.9-204.7,40.9-271.6c25.9-23.7,282.3-166,571.1-312.5c597-306,521.6-222,618.6-691.8c30.2-148.7,60.4-377.2,69-510.8l12.9-239.2l90.5-23.7c336.2-84.1,1000-84.1,1338.4,0l90.5,23.7l12.9,196.1c6.5,109.9,19.4,355.6,32.3,549.6c10.8,194,25.9,357.8,32.3,364.2c8.6,8.6,163.8-45.3,344.8-118.5c183.2-73.3,353.5-133.6,379.3-133.6c73.3,0,114.2,28,579.8,405.2c424.6,342.7,730.6,564.7,778,564.7c12.9,0,163.8-60.3,336.2-131.5c239.2-101.3,319-144.4,336.2-183.2c30.2-64.7,92.7-81.9,256.5-66.8c301.7,25.9,590.5,256.5,674.6,538.8c10.8,32.3,40.9,36.6,226.3,36.6c198.3,0,217.7,4.3,247.9,47.4c19.4,25.9,34.5,71.1,34.5,97c0,47.4,6.5,49.6,181.1,49.6c133.6,0,187.5,8.6,206.9,32.3c21.5,25.9,21.5,38.8-2.1,66.8c-25.9,32.3-75.4,34.5-454.8,19.4l-424.6-15.1l-53.9,105.6c-97,196.1-275.9,319-569,398.7c-131.5,34.5-254.3,47.4-577.6,53.9c-405.2,10.8-413.8,10.8-461.2-36.6c-38.8-38.8-45.2-64.7-36.6-122.9c12.9-69,2.2-90.5-129.3-243.5l-142.2-168.1l-153-12.9c-84.1-6.5-642.3-17.3-1239.3-25.9L3419.8,3761l15.1,120.7c17.2,150.9,86.2,340.5,142.2,392.3c53.9,49.6,256.5,45.3,484.9-8.6c94.8-23.7,176.7-38.8,181-32.3c19.4,17.2-45.3,241.4-103.4,366.4C3995.2,4903.2,3609.4,5077.8,3281.8,4985.1z M6878.9,4112.3c306.1-30.2,493.5-88.4,605.6-191.8l86.2-81.9l-459.1-12.9c-252.2-8.6-594.8-15.1-760.8-15.1h-299.6l131.5,148.7c140.1,157.3,150.9,163.8,368.5,170.2C6605.2,4131.7,6751.8,4123,6878.9,4112.3z M7564.3,3506.6c0-47.4-92.7-150.9-183.2-204.7c-53.9-30.2-170.3-69-262.9-86.2l-168.1-28l-273.7,109.9c-153,62.5-275.9,118.5-275.9,129.3c0,15.1,172.4,71.1,280.2,88.4C6809.9,3536.8,7564.3,3530.3,7564.3,3506.6z M4762.5,3435.5c200.4-51.7,500-168.1,480.6-185.4c-25.8-23.7-329.7-150.9-359.9-150.9c-25.9,0-622.9,323.3-653,353.5C4202.1,3478.6,4648.2,3465.7,4762.5,3435.5z"/>
<path d="M2477.9,1122.9c-25.9-105.6-120.7-400.9-209.1-661.6c-107.8-316.8-157.3-487.1-146.6-523.7c19.4-79.7,183.2-230.6,321.1-295.3c69-32.3,219.8-84.1,334.1-116.4c189.7-49.6,243.5-56,627.2-56c368.5,0,441.8,6.5,592.7,47.4c303.9,84.1,646.6,273.7,732.8,407.4c28,43.1,19.4,75.4-120.7,398.7c-84.1,194-219.8,495.7-306,670.3c-146.6,306.1-155.2,319-206.9,308.2c-32.3-6.5-168.1-28-303.9-47.4c-293.1-41-838.4-30.2-1099.2,23.7c-88.4,17.2-161.6,32.3-163.8,32.3S2505.9,1226.4,2477.9,1122.9z"/>
<path d="M2320.6-581.8c-6.5-8.6-23.7-168.1-38.8-355.6l-28-342.7l-148.7-217.7l-148.7-217.7l62.5-53.9c34.5-32.3,88.4-75.4,120.7-99.2l58.2-43.1l-43.1-1217.7c-56-1635.8-60.3-1474.2,43.1-1577.6c84.1-84,90.5-86.2,198.3-77.6c90.5,8.6,122.8,23.7,172.4,79.7c32.3,36.6,64.7,88.3,71.1,114.2c4.3,28,62.5,627.2,129.3,1331.9S2896-1972,2904.7-1963.3c8.6,6.5,60.4,30.2,116.4,49.6c56,21.6,107.8,45.3,114.2,56c4.3,8.6-19.4,101.3-53.9,206.9c-36.6,103.4-64.7,211.2-64.7,237.1c0,28,30.2,172.4,64.7,323.3c36.6,150.9,62.5,275.9,60.3,278c-4.3,2.2-79.7,17.2-168.1,32.3c-202.6,34.5-411.7,97-543.1,163.8C2374.5-588.3,2324.9-573.2,2320.6-581.8z"/>
<path d="M4417.6-620.6c-131.5-69-398.7-153-575.4-181c-79.7-12.9-148.7-28-153-30.2c-2.2-4.3,56-176.7,131.5-385.8l137.9-377.2l-41-189.7c-21.5-105.6-38.8-202.6-38.8-217.7c0-15.1,56-36.6,127.1-51.7l125-23.7l472-1306.1c450.4-1250,474.2-1308.2,545.3-1355.7c107.8-73.3,219.8-66.8,312.5,17.2c45.2,38.8,81.9,92.7,88.3,135.8c10.8,51.7-77.6,420.3-336.2,1403c-338.4,1293.1-347,1331.9-308.2,1366.4c23.7,19.4,64.7,60.3,94.8,94.8l51.7,60.4l-163.8,165.9l-163.8,165.9l-90.5,355.6c-49.6,196.1-97,366.4-105.6,381.5C4518.9-575.4,4486.6-584,4417.6-620.6z"/>
</g>
</g>
</svg>