<?xml version="1.0" encoding="utf-8"?>
<!-- Uploaded to: SVG Repo, www.svgrepo.com, Generator: SVG Repo Mixer Tools -->
<!DOCTYPE svg PUBLIC "-//W3C//DTD SVG 1.1//EN" "http://www.w3.org/Graphics/SVG/1.1/DTD/svg11.dtd">
<svg fill="#000000" width="800px" height="800px" viewBox="0 0 1000 1000" version="1.1" xmlns="http://www.w3.org/2000/svg" xmlns:xlink="http://www.w3.org/1999/xlink"  enable-background="new 0 0 1000 1000" xml:space="preserve">

<g>
<g transform="translate(0.000000,511.000000) scale(0.100000,-0.100000)">
<path d="M9348.2,4402.7c-299.7-162.8-551.8-301.7-559.7-309.6c-7.9-7.9-19.9-77.4-29.8-154.8l-15.9-140.9l-1280.3-1183l-1280.2-1185h-297.7c-277.9,0-690.7,21.8-1006.3,51.6l-135,13.9v-166.7v-166.7l-194.5,194.5c-182.6,182.6-198.5,204.5-299.7,430.7c-59.6,131-115.1,238.2-125.1,238.2c-7.9,0-15.9-25.8-15.9-57.6c0-31.8-17.9-117.1-41.7-190.5c-69.5-228.3-236.2-365.2-444.6-367.2c-121.1,0-208.4,49.6-275.9,154.8c-59.5,95.3-125.1,289.8-142.9,422.8c-15.9,111.2-49.6,97.3,351.3,146.9c311.6,35.7,541.9,87.3,730.4,160.8c136.9,55.6,341.4,180.6,353.3,218.3c4,11.9-55.6,37.7-137,59.5c-138.9,39.7-144.9,41.7-194.5,138.9c-210.4,408.9-522,595.5-907.1,541.9c-347.4-47.6-625.2-313.6-704.6-676.9c-17.9-89.3-41.7-125-148.9-234.2c-67.5-71.5-125-135-125-142.9c0-27.8,226.3-95.3,357.3-107.2c119.1-11.9,138.9-19.9,138.9-51.6c0-75.4-41.7-111.1-222.3-200.5c-192.5-93.3-450.6-301.7-416.8-335.5c9.9-9.9,53.6-4,101.2,13.9c131,45.7,273.9,37.7,391-19.8c53.6-27.8,204.4-137,333.5-246.1c446.6-377.1,633.2-420.8,831.7-200.5l87.3,97.3l83.4-85.3l83.4-85.4l-91.3-83.4c-138.9-129-244.1-166.7-414.8-154.8c-226.3,15.9-452.6,138.9-774.1,420.8c-184.6,158.8-270,208.4-363.3,208.4c-79.4,0-180.6-67.5-214.4-142.9c-15.9-35.7-87.3-287.8-160.8-559.7C2027.9,125.2,2024,73.6,2115.3-21.7c65.5-69.5,39.7-63.5,1109.5-226.3c470.4-71.5,879.3-135,911.1-140.9l55.6-11.9l-59.5-61.5l-61.5-61.5l-760.2,115.1c-418.8,63.5-774.1,119.1-790,123.1c-25.8,5.9-29.8-13.9-23.8-136.9c4-77.4,15.9-164.8,25.8-192.5c55.6-146.9,446.6-258,919-258l240.2-2l-135-127c-131-125-135-129-240.2-129c-244.2,0-599.4,93.3-744.3,196.5l-57.6,41.7l-9.9-45.7c-6-23.8-61.5-315.6-123.1-649.1c-93.3-510.1-119.1-611.3-154.8-647.1c-23.8-23.8-468.4-432.7-986.5-911.1c-518-476.4-984.5-911.1-1036.1-962.7c-107.2-107.2-119.1-162.8-53.6-246.1c51.6-65.5,131-67.5,208.4-5.9c43.7,33.7,4025.3,3703.8,4331,3989.6l63.5,61.5v-393v-395l-65.5,11.9c-33.7,5.9-121.1,29.8-192.5,49.6l-129,37.7l-926.9-855.5c-742.3-686.8-919-857.5-889.2-869.4c154.8-57.5,776.1-67.5,974.6-15.9l91.3,23.8l55.6,458.5c29.8,254.1,61.5,472.4,69.5,486.3c6,13.9,61.5-176.7,119.1-422.8l107.2-448.6l81.4,13.9c43.7,6,146.9,33.8,228.3,57.6c138.9,41.7,160.8,43.7,333.5,21.8l186.6-21.8l53.6-168.7c69.5-218.3,164.7-456.5,178.6-454.5c5.9,0,43.7,69.5,83.4,152.8c39.7,83.4,537.9,1135.4,1107.6,2334.2c569.6,1198.9,1032.1,2183.4,1028.2,2187.4c-2,2-101.2-4-218.3-13.9c-117.1-11.9-248.1-17.9-289.8-13.9l-75.4,6l1127.4,1042.1l1129.4,1042.1l188.6,19.8l188.6,19.9l307.7,553.8c170.7,303.7,305.7,555.8,303.7,557.8C9896,4696.4,9647.9,4565.4,9348.2,4402.7z M4530.9,603.6l212.4-230.3v-131c0-202.5-11.9-208.4-281.9-148.9c-123,25.8-224.3,49.6-226.3,51.6c-11.9,9.9,61.5,688.8,71.5,688.8C4314.5,833.8,4415.7,730.6,4530.9,603.6z"/>
<path d="M6511.8-1073.6c-452.5-954.7-919-1937.2-1036.1-2187.3l-214.4-452.5l136.9-202.5c156.8-234.2,373.2-452.5,510.1-514.1c202.5-91.3,373.2-43.7,587.5,160.8c279.9,266,591.5,893.2,748.3,1502.5c97.3,377.1,101.2,448.6,95.3,1990.8l-5.9,1439L6511.8-1073.6z"/>
<path d="M2500.3-3312.6c0-208.4-6-379.1-13.9-379.1c-39.7,0-998.4-81.4-1073.8-91.3c-75.4-9.9-115.1-39.7-381.1-287.8c-273.9-254.1-293.8-277.9-254.1-293.8c25.8-9.9,533.9-23.8,1129.4-31.7c974.6-13.9,1087.7-11.9,1143.3,17.9c129,65.5,138.9,97.2,234.2,768.1c49.6,341.4,89.3,623.3,89.3,625.2c0,4-73.4,0-162.8-5.9c-144.9-9.9-496.2,15.9-655,47.6l-55.6,11.9V-3312.6z"/>
</g>
</g>
</svg>