<?xml version="1.0" encoding="utf-8"?>
<!-- Uploaded to: SVG Repo, www.svgrepo.com, Generator: SVG Repo Mixer Tools -->
<!DOCTYPE svg PUBLIC "-//W3C//DTD SVG 1.1//EN" "http://www.w3.org/Graphics/SVG/1.1/DTD/svg11.dtd">
<svg fill="#000000" width="800px" height="800px" viewBox="0 0 1000 1000" version="1.1" xmlns="http://www.w3.org/2000/svg" xmlns:xlink="http://www.w3.org/1999/xlink"  enable-background="new 0 0 1000 1000" xml:space="preserve">

<g>
<g transform="translate(0.000000,511.000000) scale(0.100000,-0.100000)">
<path d="M2839.9,4143.6c-112-132.7-147.3-311.1-87.1-431.4c41.5-76.7,184.6-205.3,253-221.9c87.1-22.8,236.4,4.2,406.5,72.6c124.4,49.8,170.1,60.1,209.5,45.6c29-12.5,58.1-29,64.3-39.4c6.2-10.4,51.9-10.4,109.9,2.1c76.7,16.6,124.4,12.5,207.4-10.4c124.4-37.3,130.7-31.1,130.7,109.9c0,107.9-41.5,184.6-145.2,271.7c-99.6,87.1-203.3,120.3-367.1,120.3c-101.6,0-149.3-14.5-286.2-83c-89.2-45.6-184.6-83-211.6-83c-78.8,0-147.3,85-163.9,205.3C2943.6,4226.5,2916.6,4234.8,2839.9,4143.6z"/>
<path d="M3638.4,3394.8c-219.9-107.8-298.7-381.6-188.7-667.9c12.4-37.3,14.5-70.5,0-95.4c-24.9-45.6-323.6-294.5-406.5-338.1c-35.3-18.7-234.4-211.6-443.9-429.3L2217.7,1468l-354.7,14.5l-354.7,14.5l-45.6-58.1c-56-72.6-58.1-163.8-4.2-217.8c37.3-37.3,68.4-41.5,286.2-41.5h242.7l31.1-97.5c41.5-130.7,105.8-165.9,352.6-192.9c107.9-12.5,197-24.9,199.1-27c4.1-2.1-4.2-47.7-14.5-97.5c-33.2-143.1-33.2-516.4,0-609.8c22.8-66.4,45.6-87.1,155.6-139c126.5-58.1,499.9-170.1,811-240.6l165.9-37.3l56-392c29-215.7,60.1-423.1,68.4-460.5c10.4-64.3,6.2-72.6-97.5-141c-139-93.3-182.5-97.5-182.5-12.4c0,70.5-62.2,205.3-112,246.8c-27,22.8-39.4,10.4-85-80.9c-62.2-122.4-172.1-251-288.3-336c-93.3-68.4-178.4-76.7-178.4-20.7c0,20.7-18.7,95.4-43.6,165.9l-43.6,128.6l-51.9-103.7c-74.7-151.4-257.2-267.6-497.8-321.5l-68.4-12.5l51.9,112c29,62.2,68.4,184.6,87.1,273.8c45.6,205.3,18.7,381.6-78.8,537.2c-130.7,203.3-151.4,259.3-159.7,439.7c-6.2,97.5,2.1,215.7,14.5,269.6c14.5,53.9,20.7,101.6,14.5,107.9c-22.8,20.7-253-134.8-396.2-269.6c-219.9-205.4-329.8-437.6-354.7-740.5c-16.6-199.1,31.1-483.3,116.1-705.2l62.2-161.8l-261.3-483.3c-219.9-404.4-259.3-487.4-240.6-524.7c10.4-24.9,141-248.9,290.4-495.7l271.7-450.1l-12.4-147.2l-12.4-145.2h294.5c159.7,0,292.5,4.2,292.5,8.3c0,4.1-39.4,76.7-89.2,161.8c-87.1,145.2-491.6,1010.1-491.6,1049.5c0,8.3,49.8,33.2,112,51.8c232.3,74.7,572.5,356.7,750.8,624.3c60.1,91.3,93.3,120.3,151.4,136.9c294.5,78.8,1132.5,273.8,1323.3,309c284.1,51.9,771.6,95.4,794.4,70.5c8.3-8.3,161.8-300.7,340.2-647.1c277.9-543.4,344.3-690.7,479.1-1074.4c126.5-360.9,155.6-468.7,155.6-568.3v-122.4h290.4c159.7,0,290.4,4.2,290.4,10.4c0,6.2-43.5,74.7-95.4,153.5c-122.4,182.5-325.6,763.3-599.4,1707l-197,678.2l97.5,93.3c56,51.9,118.2,93.3,141,93.3c22.8,0,209.5-20.7,412.8-45.6l371.3-45.6l163.9-309c89.2-168,161.8-309,157.6-313.2c-4.1-2.1-68.4-29-145.2-62.2c-78.8-31.1-141-62.2-141-66.4c0-14.5,159.7-224,224-290.4c74.7-80.9,87.1-83,145.2-20.7c53.9,56,228.2,358.8,244.7,421c6.2,27-56,236.5-157.6,533l-170.1,485.3l-394.1,116.1c-217.8,64.3-398.2,120.3-402.4,124.4c-4.2,4.2,47.7,130.7,116.1,282.1C6090-290.8,6146-158.1,6146-147.7c0,12.4-49.8,20.7-109.9,20.7c-421,0-1012.2,253-1441.5,616l-109.9,93.3L4159,569.9c-410.7-16.6-414.8-14.5-379.6,186.7c14.5,76.7,43.6,174.2,66.4,217.8c20.7,43.6,39.4,85,39.4,91.3c0,6.2-124.4,10.4-275.8,10.4c-269.6,0-277.9-2.1-325.6-51.8c-27-29-85-62.2-128.6-76.7c-105.8-31.1-151.4,10.4-184.6,168c-43.6,211.6,22.8,560,114.1,595.3c53.9,20.7,174.2-33.2,236.4-105.8c78.8-89.2,114.1-195,103.7-315.3l-6.2-95.4l1057.8,14.5c580.7,6.2,1669.7,16.6,2416.3,22.8c746.7,6.2,1723.6,16.6,2171.6,22.8c779.9,12.5,815.1,14.5,827.6,53.9c31.1,97.5,16.6,99.6-850.4,99.6c-445.9,0-999.7,6.2-1229.9,14.5c-510.2,16.6-504,8.3-302.8,269.6c132.7,170.1,136.9,178.4,97.5,207.4c-78.8,60.1-313.2,170.1-464.6,217.8c-215.7,66.4-560,66.4-798.5-2.1c-325.6-91.3-653.3-280-943.7-539.3l-143.1-126.5h-580.7c-321.5,0-582.8,4.2-582.8,10.4c0,4.2,24.9,60.1,56,122.4l53.9,112l-201.2,286.2c-145.2,209.5-199.1,302.8-195,340.1c6.2,49.8,10.4,51.9,143.1,45.6c155.6-8.3,263.4,27,356.7,116.1c112,105.8,112,109.9-85,284.2c-99.6,89.2-182.5,168-186.7,178.4c-4.2,8.3,83,20.7,190.8,29c109.9,8.3,199.1,18.7,199.1,24.9c0,4.1-22.8,51.9-49.8,105.8c-60.1,118.2-188.7,240.6-311.1,296.6C3943.3,3455,3754.6,3452.9,3638.4,3394.8z"/>
<path d="M407,1532.3c261.3-242.7,336-504,217.8-736.3c-31.1-60.1-124.4-172.1-224-265.5c-128.6-122.4-184.6-197-234.4-300.7C104.2,99.1,100,76.3,100-137.4c0-207.4,4.2-238.5,56-333.9c72.6-136.9,217.8-263.4,367.1-321.5c95.4-37.3,161.8-45.6,363-47.7l246.8-2.1l45.6,165.9c22.8,91.3,60.1,197,80.9,234.4c20.7,39.4,33.2,72.6,29,74.7c-4.1,2.1-49.8,20.7-103.7,41.5c-53.9,20.7-126.5,68.5-163.8,110c-58.1,66.3-64.3,85-53.9,168c6.2,58.1,33.2,120.3,74.7,176.3c307,404.5,360.9,653.3,209.5,960.3c-136.9,280-458.4,477-908.5,555.8C278.4,1654.7,278.4,1652.6,407,1532.3z"/>
<path d="M5652.4,1096.7l-730.1-10.4l-126.5-174.2c-68.4-95.4-120.3-184.6-116.2-197c12.4-35.3,277.9-232.3,450.1-333.9c304.9-178.4,703.1-300.8,987.3-300.8h126.5l45.6,107.9l43.5,107.9l-60.2,62.2c-178.4,184.6-265.5,572.5-128.6,572.5c53.9,0,76.7-37.3,93.3-153.5C6255.9,628,6343,487,6513.1,335.5c188.7-168,234.4-240.6,234.4-367.1c0-114.1,45.6-170.1,155.5-190.8c101.6-18.7,255.1,8.3,300.8,53.9c60.2,60.1,89.2,253,74.7,491.6l-14.5,211.6l93.3,190.8c74.7,147.3,95.4,213.6,95.4,290.4v101.6l-533-4.2C6625.1,1109.2,6054.7,1102.9,5652.4,1096.7z M7042,895.5c72.6-66.4,37.3-190.8-66.4-224c-85-27-178.4,70.5-153.5,165.9C6845,928.7,6967.3,961.9,7042,895.5z"/>
<path d="M3128.2-2022.7c-182.5-47.7-356.7-95.4-387.9-103.7c-35.2-8.3-58.1-27-58.1-49.8c0-74.7-122.4-379.6-213.6-539.3c-53.9-93.3-97.5-172.1-97.5-178.4c0-6.2,925-837.9,949.9-852.4c2.1-2.1-10.4-49.8-27-105.8c-16.6-56-31.1-107.9-31.1-116.2c0-10.4,112-16.6,248.9-16.6c136.9,0,248.9,6.2,248.9,14.5c0,8.3-14.5,68.4-33.2,134.8c-31.1,112-64.3,151.4-439.7,560l-406.5,437.6l72.6,53.9c221.9,163.9,423.1,454.2,504,725.9c18.7,62.2,33.2,116.2,33.2,120.3C3491.1-1927.3,3470.4-1931.4,3128.2-2022.7z"/>
</g>
</g>
</svg>