<?xml version="1.0" encoding="utf-8"?>
<!-- Uploaded to: SVG Repo, www.svgrepo.com, Generator: SVG Repo Mixer Tools -->
<!DOCTYPE svg PUBLIC "-//W3C//DTD SVG 1.1//EN" "http://www.w3.org/Graphics/SVG/1.1/DTD/svg11.dtd">
<svg fill="#000000" width="800px" height="800px" viewBox="0 0 1000 1000" version="1.1" xmlns="http://www.w3.org/2000/svg" xmlns:xlink="http://www.w3.org/1999/xlink"  enable-background="new 0 0 1000 1000" xml:space="preserve">

<g>
<g transform="translate(0.000000,511.000000) scale(0.100000,-0.100000)">
<path d="M5743.9,3438c0-863.2-9.4-1567.3-18.7-1562.6c-9.4,4.7-124,124-252.7,264.3c-217.5,238.6-243.3,278.4-369.6,561.4c-77.2,168.4-140.4,306.4-142.7,311.1c-4.7,4.7-18.7-63.2-35.1-149.7c-67.8-390.6-285.4-617.5-594.2-617.5c-222.2,0-383.6,205.8-472.5,603.5c-46.8,212.9-37.4,238.6,88.9,238.6c292.4,0,959.1,135.7,1256.2,255c161.4,65.5,381.3,210.5,369.6,245.6c-4.7,14-84.2,46.8-177.8,72.5c-163.7,46.8-168.4,49.1-222.2,163.7c-138,297.1-414.1,554.4-676,631.6c-259.7,77.2-612.9,21.1-842.1-131c-198.8-131-350.9-364.9-428.1-657.3c-35.1-126.3-60.8-168.4-194.2-304.1c-81.9-86.5-145-163.8-138-170.8c35.1-35.1,283-102.9,435.1-117c177.8-18.7,187.1-28.1,147.4-138c-16.4-42.1-81.9-86.6-241-163.7c-299.4-145-619.9-411.7-495.9-411.7c21.1,0,95.9,16.4,166.1,37.4c250.3,72.5,407,4.7,839.8-362.6c393-334.5,659.7-439.8,851.5-341.5c35.1,18.7,105.3,81.9,152,138l84.2,102.9l95.9-102.9l95.9-105.3l-86.5-88.9c-140.4-145-276-201.2-481.9-201.2c-154.4,0-196.5,11.7-355.6,86.6c-224.6,107.6-343.9,187.1-601.2,409.4c-229.3,198.8-341.5,264.3-451.5,264.3c-91.2,0-215.2-70.2-252.6-142.7c-51.5-91.2-350.9-1246.8-350.9-1347.4c0-110,74.9-217.6,180.1-259.7c37.4-14,729.8-126.3,1539.2-250.3C4976.6,76.6,5662-31,5692.4-35.7c51.5-11.7,51.5-18.7,51.5-386c0-283.1-7-374.3-28.1-374.3c-16.4,0-173.1,39.8-346.2,88.9l-315.8,91.3l-98.3-44.5c-203.5-91.3-456.2-140.4-783.6-152.1c-467.8-18.7-856.2,56.2-1085.4,210.5l-91.2,63.2l-16.4-51.5c-9.4-30.4-95.9-498.2-196.5-1043.3c-119.3-648-173.1-996.5-156.7-1012.9c11.7-11.7,142.7-49.1,290.1-81.9c460.8-100.6,1317-102.9,1396.5-2.3c11.7,16.4,51.5,278.4,88.9,584.8c35.1,304.1,72.5,554.4,79.5,554.4c7,0,70.2-233.9,142.7-519.3l128.7-521.6l100.6,7c53.8,2.3,175.4,30.4,271.4,60.8c173.1,56.2,177.8,56.2,451.5,21.1c149.7-18.7,280.7-46.8,287.7-60.8c9.4-11.7,23.4-98.3,32.8-189.5c37.4-395.3-105.3-711.1,1670.2,3712.3c891.2,2224.6,1616.4,4046.9,1609.4,4053.9c-4.7,7-189.5-4.7-404.7-23.4c-938-86.6-2234-65.5-2938.1,46.8l-88.9,14V3438z M5505.3,1201.7l238.6-259.7V762c0-98.3-7-177.8-16.4-177.8c-11.7,0-159.1,28.1-327.5,63.2l-311.1,65.5v79.5c0,95.9,42.1,587.1,60.8,701.8l11.7,79.5l53.8-56.1C5243.3,1487.1,5374.3,1344.4,5505.3,1201.7z"/>
<path d="M8511.2,1629.8C8071.4,535,7341.6-1282.5,6890.1-2407.7c-783.6-1955.6-818.7-2046.9-795.3-2131.1c30.4-109.9,156.7-226.9,269-247.9c110-18.8,276,44.4,336.9,128.7c25.7,35.1,70.2,145,98.2,243.3c30.4,98.3,60.8,180.1,67.8,180.1c9.4,0,70.2-67.9,138-152.1c201.2-247.9,423.4-386,615.2-386c563.7,2.3,1235.1,1232.8,1616.4,2954.4l72.5,332.2l7,2222.3c4.7,1223.4,4.7,2372,2.3,2554.4l-7,334.5L8511.2,1629.8z"/>
<path d="M2983.6,29.8c0-187.1,32.7-283,121.6-339.2c395.3-257.3,1588.3-276,1855-28c49.1,44.4,60.8,74.8,53.8,142.7l-7,86.5l-935.7,145c-514.6,77.2-970.8,147.4-1010.6,154.4l-77.2,11.7V29.8z"/>
<path d="M2978.9-3460.4l-7-458.5L1935.6-4003c-1127.5-93.6-1092.4-86.5-1207-241c-67.8-88.9-63.2-262,7-362.6c105.3-147.4,65.5-142.7,1506.5-166.1c1277.2-21.1,1317-21.1,1408.2,23.4c156.7,74.8,170.8,121.6,283,886.6c56.1,381.3,102.9,715.8,102.9,746.2c0,51.5-2.3,51.5-343.9,53.8c-191.8,0-428.1,14-526.3,30.4l-182.5,28.1L2978.9-3460.4z"/>
</g>
</g>
</svg>