<?xml version="1.0" encoding="utf-8"?>
<!-- Uploaded to: SVG Repo, www.svgrepo.com, Generator: SVG Repo Mixer Tools -->
<!DOCTYPE svg PUBLIC "-//W3C//DTD SVG 1.1//EN" "http://www.w3.org/Graphics/SVG/1.1/DTD/svg11.dtd">
<svg fill="#000000" width="800px" height="800px" viewBox="0 0 1000 1000" version="1.1" xmlns="http://www.w3.org/2000/svg" xmlns:xlink="http://www.w3.org/1999/xlink"  enable-background="new 0 0 1000 1000" xml:space="preserve">

<g>
<g transform="translate(0.000000,511.000000) scale(0.100000,-0.100000)">
<path d="M815.9,3778.8c-202.9-49.2-416.1-198.8-535-379.2C53.4,3055.2,39,2598.1,246.1,2245.5c123-209.1,362.8-383.3,600.6-434.6c174.2-36.9,612.9,14.3,678.5,79.9c12.3,12.3,6.1,88.2-16.4,196.8c-28.7,149.6-41,176.3-67.6,164c-127.1-53.3-217.3-75.8-362.8-84.1c-147.6-10.3-180.4-6.1-278.8,39C572,2311.1,449,2499.7,438.8,2766.2c-10.2,209.1,43,358.7,166,485.8c112.7,114.8,219.3,166,379.2,176.3c106.6,8.2,145.5,0,235.7-43c194.7-96.3,362.8-313.6,483.8-627.2c32.8-86.1,176.3-617,315.7-1180.7c547.3-2191.3,838.4-3583.1,869.2-4173.5c10.2-219.3,8.2-246-32.8-334.1c-55.3-112.7-178.3-223.4-287-254.2c-112.7-34.8-325.9-30.7-438.7,8.2c-118.9,41-256.2,170.2-321.8,305.4c-69.7,141.4-73.8,424.3-6.1,565.8c84,182.4,295.2,344.4,453,346.4c77.9,0,77.9,4.1,30.7,217.3l-34.8,155.8l-82-12.3c-323.9-51.3-645.7-375.2-727.7-729.8c-30.8-135.3-26.7-403.8,8.2-543.2c71.7-270.6,270.6-514.5,516.6-631.3l139.4-65.6l2408.6-6.2c1717.8-4.1,2431.1,0,2486.5,16.4c108.6,32.8,225.5,145.5,282.9,272.6c39,88.1,47.2,143.5,47.2,321.8c0,202.9-10.3,264.5-209.1,1094.6C7006.5-1382.7,6908.1-985.1,6904-981c-2,4.1-82-38.9-174.2-96.3c-223.4-133.2-369-186.5-545.3-200.9l-143.5-10.3l-164-149.6c-159.9-147.6-172.2-153.8-416.1-233.7c-227.5-75.9-260.3-82-336.2-59.4c-172.2,45.1-272.6,223.4-223.4,391.5c20.5,67.7,86.1,145.5,291.1,354.6c250.1,254.2,264.4,274.7,264.4,350.5c0,120.9,53.3,307.5,135.3,467.4c38.9,77.9,67.6,143.5,63.5,149.6c-4.1,4.1-41-8.2-82-24.6c-202.9-84-375.1-79.9-397.7,10.3c-6.1,22.6-20.5,41-30.8,41c-12.3,0-133.2-63.5-270.6-141.4c-526.8-301.3-688.8-350.5-785.1-239.8c-26.6,30.8-47.1,82-47.1,116.9c0,32.8-6.1,59.4-14.4,59.4c-41,0-315.7-184.5-494-336.2c-100.5-82-129.1-88.2-176.3-41c-77.9,75.8-41,125,254.2,348.5c401.8,303.4,615,332.1,615,79.9v-90.2l86.1,30.8c49.2,16.4,252.1,123,451,235.7c393.6,221.4,465.3,243.9,533,161.9c20.5-24.6,36.9-57.4,36.9-73.8c0-39-4.1-39,202.9,41c293.1,112.7,373.1,161.9,494,301.3c61.5,71.7,184.5,207,272.6,301.3c106.6,114.8,155.8,182.5,149.6,205c-24.6,77.9-246,1086.4-321.8,1455.4c-96.3,483.8-141.5,641.6-246,856.9c-98.4,200.9-241.9,366.9-389.5,448.9l-110.7,61.5l-2244.6,4.1C1834.7,3797.3,863.1,3789.1,815.9,3778.8z M5536.8,2706.7c14.3-16.4,22.5-55.4,18.4-88.2c-6.2-53.3-20.5-61.5-209.1-125c-430.5-145.5-752.3-186.5-832.3-106.6c-22.6,22.6-41,55.4-41,71.7s-8.2,30.8-16.4,30.8c-8.2,0-186.5-61.5-393.6-135.3c-223.4-80-428.4-139.4-496.1-145.6c-108.6-10.2-120.9-8.2-178.3,51.3c-47.2,47.2-63.5,82-63.5,135.3c0,53.3-8.2,73.8-30.7,73.8c-18.4,0-166-69.7-332.1-153.7c-237.8-120.9-307.5-147.6-336.2-131.2c-49.2,26.6-51.3,125-2.1,168.1c63.5,57.4,502.2,276.7,623.2,311.6c194.7,55.4,299.3-10.3,276.7-174.2c-10.2-75.8-6.2-82,36.9-82c26.6,0,180.4,47.1,342.3,104.6c612.9,217.3,606.8,215.2,668.3,182.4c28.7-18.4,61.5-59.4,71.7-94.3l18.5-63.6l114.8,18.5c147.6,22.5,391.5,86.1,537.1,137.3C5450.7,2741.6,5506,2743.6,5536.8,2706.7z M5776.6,1495.3c57.4-88.1,22.5-125-223.4-246c-127.1-61.5-270.6-118.9-319.8-131.2c-127.1-28.7-211.2,12.3-229.6,106.6c-6.1,32.8-34.8,20.5-186.5-77.9c-186.5-120.9-246-131.2-272.6-49.2c-22.5,69.7,8.2,108.6,168.1,217.3c209.1,137.3,350.5,211.1,405.9,211.1c69.7,0,120.9-69.7,106.6-143.5c-8.2-32.8-6.2-61.5,2-61.5c8.2,0,116.8,51.3,239.8,110.7c125.1,61.5,237.8,112.7,250.1,112.7C5731.5,1546.5,5758.2,1524,5776.6,1495.3z M3581.2,1337.4c32.8-30.8,57.4-79.9,67.6-133.2l14.4-88.1l295.2,133.2c176.3,80,311.6,129.1,334.1,121c38.9-12.3,69.7-92.2,51.2-137.3c-18.5-49.2-625.2-321.8-717.5-321.8c-65.6,0-131.2,75.8-147.6,170.1c-8.2,41-22.5,75.8-32.8,75.8c-28.7,0-159.9-86.1-260.3-172.2c-94.3-77.9-143.5-90.2-184.5-49.2c-51.3,51.3-28.7,131.2,63.5,205c127.1,104.5,248,180.4,336.2,213.2C3507.4,1390.7,3519.7,1388.7,3581.2,1337.4z"/>
<path d="M9636.5,3098.3C8984.6,2827.7,7109,1239,6250.1,226.4c-369-434.6-528.9-787.1-444.8-986c14.3-34.9-30.8-88.1-282.9-342.3c-166-168.1-293.1-303.4-282.9-303.4c10.3,0,84,20.5,164,47.1c131.2,41,164,63.6,344.4,235.7l198.8,192.7l73.8-24.6c188.6-61.5,494,77.9,908.1,416.1c360.8,293.1,988,920.4,1469.8,1469.8l98.4,110.7l-53.3,14.3c-28.7,8.2-159.9,20.5-293.1,28.7c-139.4,10.2-227.5,22.6-211.2,32.8c16.4,8.2,192.7,47.1,391.5,86.1c348.5,67.7,362.8,71.7,422.3,139.4c53.3,61.5,221.4,268.5,276.7,340.3c16.4,22.5-96.3-4.1-627.3-147.6c-98.4-26.6-174.2-41-168.1-32.8c14.4,24.6,471.5,297.2,850.7,506.3l338.2,186.5l155.8,231.6c168.1,246,291.1,479.7,315.7,590.4C9923.5,3151.5,9833.3,3178.2,9636.5,3098.3z"/>
</g>
</g>
</svg>