<?xml version='1.0' encoding='iso-8859-1'?>
<!DOCTYPE svg PUBLIC '-//W3C//DTD SVG 1.1//EN' 'http://www.w3.org/Graphics/SVG/1.1/DTD/svg11.dtd'>
<!-- Uploaded to: SVG Repo, www.svgrepo.com, Generator: SVG Repo Mixer Tools -->
<svg fill="#000000" height="800px" width="800px" version="1.1" xmlns="http://www.w3.org/2000/svg" viewBox="0 0 311.465 311.465" xmlns:xlink="http://www.w3.org/1999/xlink" enable-background="new 0 0 311.465 311.465">
  <g>
    <path d="m38.999,93.751c0.779,1.935 2.626,3.229 4.71,3.301 2.085,0.072 4.016-1.092 4.926-2.969l9.845-20.304 68.677,68.677 17.678-17.678-68.676-68.677 20.304-9.845c1.877-0.91 3.041-2.842 2.969-4.926-0.072-2.085-1.366-3.932-3.301-4.711l-84.127-33.856c-1.961-0.789-4.203-0.331-5.697,1.163-1.494,1.495-1.952,3.737-1.163,5.698l33.855,84.127z"/>
    <path d="m307.504,262.103c-0.496-2.137-2.631-3.467-4.768-2.971l-19.109,4.437-10.149-10.148 12.088-2.807c2.137-0.496 3.467-2.631 2.971-4.768l-3.858-16.613c-0.238-1.026-0.874-1.916-1.768-2.473s-1.973-0.736-2.999-0.498l-27.262,6.331-9.489-9.489 17.451-4.052c2.137-0.496 3.467-2.631 2.971-4.768l-3.857-16.613c-0.496-2.137-2.631-3.467-4.768-2.971l-32.625,7.576-38.606-38.606-17.678,17.678 38.967,38.967-7.357,31.685c-0.496,2.137 0.834,4.271 2.971,4.768l16.613,3.858c2.137,0.496 4.271-0.834 4.768-2.971l3.834-16.511 9.489,9.489-6.112,26.322c-0.238,1.026-0.059,2.105 0.498,2.999 0.557,0.894 1.447,1.53 2.473,1.769l16.613,3.857c2.137,0.496 4.271-0.834 4.768-2.971l2.589-11.149 10.148,10.149-4.219,18.169c-0.496,2.137 0.834,4.271 2.971,4.768l16.613,3.858c2.137,0.496 4.271-0.834 4.768-2.971l3.834-16.51 1.603-1.603 16.51-3.833c2.137-0.496 3.467-2.631 2.971-4.768l-3.858-16.616z"/>
    <path d="m106.23,219.952l146.175-146.174 6.927,14.286 2.918,6.019c0.91,1.877 2.842,3.041 4.927,2.969s3.931-1.366 4.71-3.301l12.285-30.527 4.46-11.083 17.11-42.517c0.789-1.961 0.331-4.203-1.163-5.698-1.494-1.494-3.737-1.952-5.697-1.163l-42.518,17.111-11.084,4.461-30.525,12.284c-1.935,0.779-3.23,2.625-3.301,4.71-0.072,2.085 1.092,4.016 2.969,4.926l6.018,2.918 14.286,6.927-146.535,146.536c-0.508-0.118-32.143-7.464-31.684-7.357-2.137-0.496-4.271,0.834-4.768,2.971l-3.858,16.613c-0.496,2.137 0.834,4.271 2.97,4.768 1.891,0.439 5.892,1.368 16.511,3.834l-9.489,9.489c-16.69-3.876-14.061-3.265-26.322-6.112-2.137-0.496-4.271,0.834-4.767,2.97-1.346,5.795-2.54,10.94-3.858,16.614-0.496,2.137 0.833,4.271 2.97,4.767l11.149,2.589-10.149,10.148-17.216-3.997-.953-.221c-2.137-0.496-4.271,0.834-4.768,2.971-0.064,0.278-3.878,16.702-3.857,16.613-0.496,2.137 0.834,4.271 2.971,4.768l16.509,3.833 1.604,1.604 3.833,16.51c0.238,1.026 0.875,1.916 1.769,2.473 0.894,0.557 1.973,0.736 2.999,0.498 6.169-1.433 16.739-3.887 16.612-3.858 2.137-0.496 3.467-2.631 2.971-4.768l-.44-1.894-3.997-17.216 10.148-10.148 2.807,12.089c0.496,2.137 2.63,3.467 4.767,2.971 2.05-0.476 5.993-1.392 16.614-3.858 2.137-0.496 3.467-2.63 2.971-4.767-2.212-9.524-3.931-16.927-6.331-27.263l9.489-9.49c1.571,6.764 2.471,10.643 4.052,17.452 0.496,2.137 2.63,3.466 4.768,2.97l16.613-3.857c2.137-0.496 3.467-2.631 2.971-4.768-4.339-18.699-3.429-14.78-7.573-32.625z"/>
  </g>
</svg>