<?xml version='1.0' encoding='iso-8859-1'?>
<!DOCTYPE svg PUBLIC '-//W3C//DTD SVG 1.1//EN' 'http://www.w3.org/Graphics/SVG/1.1/DTD/svg11.dtd'>
<!-- Uploaded to: SVG Repo, www.svgrepo.com, Generator: SVG Repo Mixer Tools -->
<svg fill="#000000" height="800px" width="800px" version="1.1" xmlns="http://www.w3.org/2000/svg" viewBox="0 0 312.434 312.434" xmlns:xlink="http://www.w3.org/1999/xlink" enable-background="new 0 0 312.434 312.434">
  <path d="m301.557,250.433c6.135-3.168 8.539-10.708 5.371-16.842l-29.08-56.309c-1.333-2.581-3.523-4.617-6.194-5.759l-20.865-8.918c-4.813-15.659-11.458-29.919-19.099-40.539-14.885-20.687-37.272-32.764-60.771-35.221l26.888-69.484c0.934-2.414 0.816-5.108-0.326-7.431-1.142-2.323-3.204-4.059-5.686-4.796-32.678-9.705-71.81-5.564-106.75,11.656-45.907,22.625-76.685,62.976-80.889,104.871-0.261,2.602 0.591,5.192 2.342,7.134 1.752,1.942 4.244,3.061 6.859,3.066l72.835,.128c-7.282,13.762-10.678,29.252-9.88,44.707 0.012,0.24 0.032,0.481 0.047,0.721 0.07,1.195 8.614,31.926 2.708,56.179-0.569,2.338 0.36,4.785 2.337,6.157 1.977,1.372 4.596,1.386 6.586,0.033 12.089-8.217 24.473-18.087 46.51-20.571 8.46-0.609 15.812,5.755 16.422,14.214l.868,12.049c0.959,13.311 8.63,24.914 19.913,31.164 0,0 79.123,34.547 79.137,34.552 4.92,2.148 10.617,1.472 14.898-1.769 4.28-3.241 6.477-8.541 5.743-13.86l-17.061-77.684c-0.713-3.244-2.851-5.994-5.82-7.484l-46.27-23.216c-3.863-1.493-5.786-5.835-4.293-9.699 1.492-3.863 5.832-5.79 9.699-4.293 39.58,15.291 42.821,16.496 46.312,17.986 2.359,1.007 4.282,2.797 5.459,5.076l25.208,48.811c3.167,6.133 10.707,8.539 16.842,5.371zm-148.978-197.511c1.028-0.028 2.002,0.459 2.596,1.298 0.594,0.839 0.729,1.919 0.361,2.879l-11.969,31.269c-2.643,0.581-5.268,1.293-7.868,2.132l-17.984-26.176c-0.536-0.781-0.683-1.764-0.398-2.668 0.285-0.903 0.969-1.625 1.856-1.957 11.2-4.2 22.582-6.48 33.406-6.777zm-61.677,22.171c0.671-0.5 1.516-0.705 2.342-0.569s1.562,0.602 2.035,1.292l17.8,25.908c-0.391,0.272-0.79,0.524-1.178,0.803-2.103,1.513-4.11,3.109-6.035,4.771l-37.441-.593c-1.102-0.017-2.111-0.623-2.644-1.588-0.533-0.965-0.511-2.142 0.062-3.084 5.962-9.806 14.57-19.118 25.059-26.94z"/>
</svg>