<?xml version='1.0' encoding='iso-8859-1'?>
<!DOCTYPE svg PUBLIC '-//W3C//DTD SVG 1.1//EN' 'http://www.w3.org/Graphics/SVG/1.1/DTD/svg11.dtd'>
<!-- Uploaded to: SVG Repo, www.svgrepo.com, Generator: SVG Repo Mixer Tools -->
<svg fill="#000000" height="800px" width="800px" version="1.1" xmlns="http://www.w3.org/2000/svg" viewBox="0 0 290.288 290.288" xmlns:xlink="http://www.w3.org/1999/xlink" enable-background="new 0 0 290.288 290.288">
  <path d="m250.476,105.333c-8.854-72.396-47.159-105.333-105.333-105.333s-96.479,32.937-105.333,105.333c-5.441,44.49-21.163,117.453-27.569,146.319-1.552,6.994 2.425,14.042 9.221,16.308l64.787,21.608c4.12,1.374 8.644,0.758 12.246-1.667s5.876-6.384 6.154-10.718l5.654-88.229c0.365-5.697-2.766-11.046-7.913-13.516l-42.176-20.241c-5.484-2.632-7.796-9.211-5.164-14.695l9.94-20.712c1.264-2.633 3.522-4.657 6.278-5.625 2.756-0.968 5.783-0.802 8.417,0.462l42.516,20.405c4.854,2.33 7.942,7.237 7.942,12.621v53.464c0,2.082 1.148,3.995 2.985,4.974l9.362,4.993c1.658,0.884 3.648,0.884 5.306,0l9.362-4.993c1.837-0.98 2.985-2.892 2.985-4.974v-53.464c0-5.384 3.088-10.291 7.942-12.621l42.517-20.405c2.633-1.264 5.661-1.43 8.417-0.462 2.756,0.968 5.014,2.992 6.278,5.625l9.94,20.712c2.632,5.484 0.32,12.063-5.164,14.695l-42.176,20.241c-5.147,2.47-8.279,7.819-7.913,13.516l5.654,88.229c0.278,4.334 2.551,8.293 6.154,10.718s8.127,3.04 12.246,1.667l64.787-21.608c6.81-2.271 10.776-9.3 9.221-16.308-6.407-28.867-22.129-101.829-27.57-146.319z"/>
</svg>