<?xml version='1.0' encoding='iso-8859-1'?>
<!DOCTYPE svg PUBLIC '-//W3C//DTD SVG 1.1//EN' 'http://www.w3.org/Graphics/SVG/1.1/DTD/svg11.dtd'>
<!-- Uploaded to: SVG Repo, www.svgrepo.com, Generator: SVG Repo Mixer Tools -->
<svg fill="#000000" height="800px" width="800px" version="1.1" xmlns="http://www.w3.org/2000/svg" viewBox="0 0 281.858 281.858" xmlns:xlink="http://www.w3.org/1999/xlink" enable-background="new 0 0 281.858 281.858">
  <g>
    <path d="m152.429,113.113c0-1.699-1.378-3.077-3.077-3.077h-18.846c-1.699,0-3.077,1.378-3.077,3.077v13.526h-13.526c-1.699,0-3.077,1.378-3.077,3.077v18.846c0,1.699 1.378,3.077 3.077,3.077h13.526v13.525c0,1.699 1.378,3.077 3.077,3.077h18.846c1.699,0 3.077-1.378 3.077-3.077v-13.525h13.525c1.699,0 3.077-1.378 3.077-3.077v-18.846c0-1.699-1.378-3.077-3.077-3.077h-13.525v-13.526z"/>
    <path d="m274.673,13.952c0.566-4.828-1.721-9.545-5.859-12.095-4.137-2.549-9.379-2.47-13.438,0.207-10.42,6.872-35.07,19.868-53.782,19.868-24.216,0-35.566-6.189-44.688-11.161-4.053-2.21-7.882-4.297-12.265-5.66-2.418-0.752-5.008-0.752-7.426,0-4.383,1.363-8.212,3.45-12.265,5.66-9.121,4.973-20.472,11.161-44.687,11.161-18.712,0-43.362-12.996-53.782-19.868-4.058-2.677-9.3-2.756-13.438-0.207-4.139,2.55-6.425,7.267-5.859,12.095l14.963,127.921c7.04,60.191 46.319,111.687 102.507,134.391l11.591,4.684c1.503,0.606 3.093,0.91 4.684,0.91 1.591,0 3.181-0.304 4.684-0.91l11.59-4.684c56.189-22.704 95.468-74.199 102.508-134.391l14.962-127.921zm-186.364,124.164c0-28.464 23.156-51.62 51.62-51.62s51.62,23.156 51.62,51.62-23.156,51.62-51.62,51.62-51.62-23.156-51.62-51.62zm146.571,.853c-5.979,51.11-39.332,94.837-87.043,114.115l-6.908,2.792v-41.165c41.787-0.54 75.62-34.682 75.62-76.595s-33.833-76.055-75.62-76.595v-30.938c1.23,0.623 2.575,1.355 4.011,2.139 10.38,5.659 26.066,14.211 56.654,14.211 15.831,0 32.553-5.888 45.438-11.857l-12.152,103.893z"/>
  </g>
</svg>