<?xml version='1.0' encoding='iso-8859-1'?>
<!DOCTYPE svg PUBLIC '-//W3C//DTD SVG 1.1//EN' 'http://www.w3.org/Graphics/SVG/1.1/DTD/svg11.dtd'>
<!-- Uploaded to: SVG Repo, www.svgrepo.com, Generator: SVG Repo Mixer Tools -->
<svg fill="#000000" height="800px" width="800px" version="1.1" xmlns="http://www.w3.org/2000/svg" viewBox="0 0 307.507 307.507" xmlns:xlink="http://www.w3.org/1999/xlink" enable-background="new 0 0 307.507 307.507">
  <g>
    <path d="m165.918,188.647c2.458,2.405 5.421,4.021 8.925,4.703 18.736,3.644 46.31-20.663 53.17-55.929 2.739-14.083 1.753-27.778-1.603-39.389-2.665,3.992-58.073,86.992-60.492,90.615z"/>
    <path d="m74.083,231.996l-22.575,54.793c-3.155,7.659 0.495,16.427 8.155,19.583 7.653,3.155 16.425-0.492 19.583-8.155l14.75-35.801c-2.811-0.775-5.501-1.983-7.967-3.629-9.083-6.065-13.392-16.638-11.946-26.791z"/>
    <path d="m155.726,203.914l-30.933,46.336-8.29,39.145c-1.716,8.105 3.463,16.066 11.567,17.782 8.107,1.715 16.065-3.465 17.782-11.567l15.03-70.976c0.584-2.758 0.379-5.626-0.592-8.273l-4.564-12.447z"/>
    <path d="m150.526,147.89c-2.098,0.763-4.268,1.245-6.474,1.466l-53.151,79.618c-3.83,5.737-2.291,13.5 3.456,17.337 5.74,3.832 13.503,2.286 17.337-3.456l71.274-106.766-32.442,11.801z"/>
    <path d="m251.573,10.808c-5.821-3.887-13.582-2.167-17.337,3.456-5.553,8.318-48.52,72.682-53.896,80.735l-36.892,13.419-34.878-25.721c1.437,0.249-1.287-0.561 34.59,10.928l3.042-1.229 .007-4.705c0-9.864-7.996-17.86-17.86-17.86h-31.85c-9.713,0-18.522,8.582-17.821,17.083-0.059,1.352-1.558,135.91-1.558,135.91 0.955-1.762 0,0 51.118-76.793-2.3-1.303-4.078-2.569-5.595-4.575-29.658-39.22-27.763-36.655-28.338-37.577l39.504,29.133c3.41,2.514 7.928,3.177 11.931,1.722 0,0 12.76-4.641 12.776-4.647l35.122-12.775c4.212-1.532 7.226-5.102 8.124-9.374 5.28-7.909 47.714-71.474 53.267-79.792 3.833-5.743 2.285-13.505-3.456-17.338z"/>
    <g>
      <path d="m136.489,43.52l2.514,.004-.028,18.39-8.246-.013 .02-12.658c0.004-3.165 2.574-5.727 5.74-5.723z"/>
      <path d="m113.373,.011c14.4,0.417 25.676,12.612 25.654,27.018l-.002,1.495-28.978-.045c-2.816-0.004-5.103,2.275-5.107,5.091l-.007,4.802c-0.004,2.816 2.275,5.103 5.091,5.107 3.166,0.005 5.728,2.575 5.723,5.741l-.02,12.658-29.632-.046 .055-35.435c0.024-14.848 12.283-26.818 27.223-26.386z"/>
    </g>
  </g>
</svg>