<?xml version='1.0' encoding='iso-8859-1'?>
<!DOCTYPE svg PUBLIC '-//W3C//DTD SVG 1.1//EN' 'http://www.w3.org/Graphics/SVG/1.1/DTD/svg11.dtd'>
<!-- Uploaded to: SVG Repo, www.svgrepo.com, Generator: SVG Repo Mixer Tools -->
<svg fill="#000000" height="800px" width="800px" version="1.1" xmlns="http://www.w3.org/2000/svg" viewBox="0 0 296.485 296.485" xmlns:xlink="http://www.w3.org/1999/xlink" enable-background="new 0 0 296.485 296.485">
  <g>
    <g>
      <path d="m214.923,215.23l-12.524-2.854-16.449,68.695c-1.607,6.714 2.531,13.46 9.245,15.067 0.979,0.234 1.958,0.347 2.922,0.347 5.649,0 10.772-3.856 12.145-9.592l17.253-72.05c-3.966,1.167-8.275,1.371-12.592,0.387z"/>
      <path d="m251.375,61.522c-6.813-1.635-13.494,2.669-15.067,9.245l-25.176,105.138-30.035-6.845-14.373-37.899 15.076,21.066 4.271-11.185c3.672-9.616-1.147-20.388-10.763-24.06l-31.05-11.856c-9.616-3.672-20.388,1.147-24.06,10.763l-33.454,89.584c-0.202,1.422-0.207,2.896 0.022,4.388l8.693,56.623h-44.941c-8.284,0-15,6.716-15,15 0,8.284 6.716,15 15,15h62.421c4.376,0 8.533-1.911 11.383-5.231 2.85-3.32 4.107-7.72 3.443-12.045l-8.579-55.878 38.456,9.686-10.657,45.01c-1.908,8.061 3.079,16.144 11.141,18.053 8.089,1.91 16.149-3.102 18.053-11.141l14.064-59.399c1.89-7.98-2.98-15.999-10.933-18.002l-16.994-4.28 .005-.014c-8.671-1.976-13.195-7.843-13.912-14.62l-5.06-48.597 16.749,44.165c1.484,3.914 4.829,6.825 8.91,7.755l48.692,11.097c7.254,1.652 14.449-3.367 15.207-10.961 0.018,0.003 0.037,0.006 0.055,0.009 1.339-5.591 26.489-110.622 27.657-115.501 1.609-6.714-2.53-13.461-9.244-15.068z"/>
      <g>
        <path d="m196.852,90.077l2.35,.893-6.535,17.19-7.707-2.93 4.498-11.832c1.124-2.959 4.435-4.446 7.394-3.321z"/>
        <path d="m190.633,41.203c13.32,5.487 19.551,20.883 14.431,34.349l-.531,1.397-27.086-10.298c-2.632-1.001-5.578,0.322-6.578,2.954l-1.706,4.488c-1.001,2.632 0.322,5.577 2.954,6.578 2.959,1.125 4.446,4.436 3.321,7.395l-4.498,11.832-27.698-10.53 12.593-33.122c5.275-13.879 20.977-20.735 34.798-15.043z"/>
      </g>
    </g>
    <path d="m139.423,70.305c3.656-10.821 7.579-24.107 13.833-30.911 8.215-8.938 14.708-11.333 28.542-10.333 2.925,0.212 10.451,1.396 13.279,2.038 1.15,0.261 2.303-0.429 2.618-1.566l6.962-25.093c0.16-0.578 0.078-1.196-0.226-1.713-0.304-0.517-0.805-0.888-1.388-1.029-5.126-1.235-10.134-1.778-14.968-1.688-0.393,0.007-1.713,5.95-2.234,5.986-0.448,0.031-1.404-5.799-1.848-5.757-2.889,0.272-5.708,0.773-8.444,1.49-0.212,0.055-0.878,10.631-1.043,13.302-0.004,0.063-0.051,0.115-0.113,0.124s-0.123-0.025-0.146-0.084c-0.934-2.381-4.513-11.45-4.771-11.347-13.403,5.332-24.367,16.101-31.208,30.43-0.536,1.122 5.176,7.903 5.091,8.113-0.135,0.333-7.727-1.872-7.942-1.275-1.377,3.826-2.483,7.854-3.292,12.056-0.079,0.411 4.62,2.983 4.555,3.38-0.063,0.388-5.241,1.208-5.374,1.688-1.107,3.991-2.731,7.755-2.701,12.098 0.004,0.587 0.241,1.148 0.66,1.56 0.418,0.412 7.976,0.583 7.976,0.583 1.149-0.009 1.814-0.961 2.182-2.052z"/>
  </g>
</svg>