<?xml version="1.0" encoding="iso-8859-1"?>
<!-- Uploaded to: SVG Repo, www.svgrepo.com, Generator: SVG Repo Mixer Tools -->
<svg height="800px" width="800px" version="1.1" id="Layer_1" xmlns="http://www.w3.org/2000/svg" xmlns:xlink="http://www.w3.org/1999/xlink" 
	 viewBox="0 0 511.985 511.985" xml:space="preserve">
<path style="fill:#424953;" d="M430.27,145.883c-3.266-1.156-81.325-28.546-174.276-28.546c-92.965,0-171.01,27.39-174.291,28.546
	l101.059,200.11l13.703,4.343c0.203-0.093,20.28-9,59.841-9c38.702,0,58.17,8.531,59.076,8.938l8.813,4.406L430.27,145.883z"/>
<g>
	<path style="fill:#646C77;" d="M325.773,122.118c-6.859-0.906-13.952-1.719-21.233-2.422l-37.889,218.297V117.462
		c-3.531-0.078-7.078-0.125-10.657-0.125c-3.578,0-7.14,0.047-10.671,0.125v220.531l-37.889-218.297
		c-7.281,0.703-14.375,1.516-21.234,2.422l38.421,221.344c8.609-1.25,19.171-2.126,31.686-2.126c12.296,0,22.625,0.845,31.061,2.032
		L325.773,122.118z"/>
	<path style="fill:#646C77;" d="M202.543,348.18c4.5-1.375,11.5-3.156,20.968-4.563l-73.498-215.531
		c-7.5,1.468-14.515,2.983-21,4.499L202.543,348.18z"/>
	<path style="fill:#646C77;" d="M382.959,132.586c-6.468-1.516-13.499-3.031-20.999-4.499l-73.481,215.469
		c9.53,1.406,16.515,3.188,20.983,4.594L382.959,132.586z"/>
</g>
<polygon style="fill:#5E9CEA;" points="320.758,340.93 427.411,156.194 501.314,198.865 394.646,383.616 394.646,383.616 "/>
<path style="fill:#4B89DA;" d="M506.643,189.631l-73.89-42.67c-1.687-0.969-3.515-1.438-5.327-1.438
	c-3.688,0-7.281,1.922-9.249,5.343L311.509,335.618c-2.938,5.094-1.188,11.625,3.905,14.563l73.904,42.654
	c1.672,0.969,3.516,1.438,5.313,1.438c3.688,0,7.281-1.906,9.25-5.343l106.668-184.736
	C513.503,199.099,511.753,192.568,506.643,189.631z M390.74,369.023l-55.42-31.968l95.997-166.283l55.421,31.999L390.74,369.023z"/>
<g>
	<path style="fill:#E5E8EC;" d="M443.035,214.474c-2.952,5.108-9.468,6.858-14.576,3.905c-5.095-2.938-6.845-9.468-3.907-14.562
		c2.953-5.109,9.469-6.859,14.578-3.906C444.222,202.849,445.972,209.381,443.035,214.474z"/>
	<path style="fill:#E5E8EC;" d="M445.504,252.863c-2.938,5.094-9.469,6.844-14.562,3.891c-5.109-2.938-6.859-9.469-3.906-14.563
		c2.937-5.108,9.468-6.843,14.562-3.905C446.707,241.239,448.457,247.754,445.504,252.863z"/>
	<path style="fill:#E5E8EC;" d="M411.037,269.91c-2.954,5.085-9.469,6.835-14.579,3.897c-5.093-2.945-6.843-9.477-3.905-14.569
		c2.953-5.109,9.469-6.859,14.577-3.906C412.223,258.285,413.973,264.801,411.037,269.91z"/>
	<path style="fill:#E5E8EC;" d="M413.506,308.275c-2.938,5.094-9.469,6.844-14.563,3.905c-5.109-2.937-6.859-9.468-3.906-14.562
		c2.938-5.094,9.469-6.844,14.562-3.905C414.709,296.65,416.459,303.181,413.506,308.275z"/>
	<path style="fill:#E5E8EC;" d="M379.038,325.338c-2.954,5.093-9.469,6.843-14.578,3.905c-5.093-2.968-6.843-9.468-3.906-14.593
		c2.954-5.094,9.469-6.844,14.578-3.906C380.224,313.713,381.974,320.212,379.038,325.338z"/>
	<path style="fill:#E5E8EC;" d="M117.311,383.991L10.659,199.24l73.904-42.655l106.668,184.751l-73.904,42.655h0.016
		C117.343,383.991,117.327,383.991,117.311,383.991z"/>
</g>
<g>
	<path style="fill:#424953;" d="M145.42,256.927L97.046,284.87c-5.109,2.937-6.859,9.468-3.906,14.562
		c2.937,5.094,9.468,6.844,14.562,3.906l48.374-27.937L145.42,256.927z"/>
	<path style="fill:#424953;" d="M134.749,238.458l-10.672-18.484l-48.373,27.937l0,0l0,0c-5.094,2.938-6.844,9.469-3.906,14.562
		c2.953,5.109,9.469,6.859,14.578,3.907c0,0,0,0,0.016,0L134.749,238.458z"/>
	<path style="fill:#424953;" d="M113.422,201.506l-10.672-18.484L54.377,210.96l0,0l0,0c-5.11,2.938-6.844,9.468-3.907,14.562
		c2.953,5.109,9.469,6.859,14.578,3.906l0,0L113.422,201.506z"/>
	<path style="fill:#424953;" d="M166.747,293.87l-48.374,27.936c-5.109,2.938-6.843,9.469-3.906,14.563
		c2.953,5.094,9.468,6.844,14.578,3.906l48.374-27.937L166.747,293.87z"/>
</g>
<path style="fill:#4B89DA;" d="M200.465,335.993L93.797,151.241c-1.968-3.421-5.562-5.327-9.25-5.327
	c-1.797,0-3.641,0.453-5.313,1.422l-73.903,42.67c-5.094,2.953-6.844,9.469-3.906,14.578l106.668,184.751
	c1.968,3.406,5.562,5.313,9.25,5.313c1.797,0,3.641-0.438,5.313-1.406l73.904-42.686
	C201.668,347.617,203.403,341.086,200.465,335.993z M121.234,369.43L25.237,203.146l55.42-31.999l95.997,166.283L121.234,369.43z"/>
</svg>