<?xml version="1.0" encoding="iso-8859-1"?>
<!-- Uploaded to: SVG Repo, www.svgrepo.com, Generator: SVG Repo Mixer Tools -->
<svg height="800px" width="800px" version="1.1" id="Layer_1" xmlns="http://www.w3.org/2000/svg" xmlns:xlink="http://www.w3.org/1999/xlink" 
	 viewBox="0 0 511.982 511.982" xml:space="preserve">
<path style="fill:#FECD57;" d="M203.989,501.326l21.335-181.337H206.77l-110.771,9.687v-83.349l128.316,11.508l-11.797-18.343
	c-26.482-41.179-53.295-100.028-53.295-132.832c0-52.928,43.069-95.997,95.997-95.997s95.988,43.069,95.988,95.997
	c0,32.952-26.342,91.802-52.356,132.901l-11.547,18.25l128.683-11.492v83.356l-110.777-9.687h-18.546l21.327,181.337
	L203.989,501.326L203.989,501.326z M255.221,74.661c-23.522,0-42.662,19.141-42.662,42.671c0,10.163,6.335,28.429,16.53,47.654
	c7.391,13.922,13.93,23.077,18.116,28.312l8.398,10.477l8.312-10.547c4.117-5.227,10.547-14.366,17.766-28.249
	c9.999-19.187,16.218-37.444,16.218-47.646C297.899,93.802,278.744,74.661,255.221,74.661z"/>
<g>
	<path style="fill:#F5BA45;" d="M291.149,169.908c10.907-20.929,17.406-40.585,17.406-52.576c0-29.413-23.921-53.335-53.334-53.335
		c-29.405,0-53.326,23.922-53.326,53.335c0,11.983,6.641,31.662,17.772,52.646c7.773,14.663,14.742,24.397,19.219,29.983
		l16.788,20.968l16.617-21.101C276.682,194.243,283.525,184.516,291.149,169.908z M255.534,186.627
		c-4.453-5.563-10.531-14.406-17.022-26.641c-10.563-19.913-15.289-35.772-15.289-42.654c0-17.648,14.359-31.999,31.999-31.999
		c17.647,0,31.991,14.351,31.991,31.999c0,6.93-4.625,22.827-14.984,42.725C265.878,172.244,259.917,181.064,255.534,186.627z"/>
	<path style="fill:#F5BA45;" d="M426.645,341.331V234.656l-118.777,10.608c27.718-43.779,54.03-103.988,54.03-138.604
		C361.898,47.756,314.132,0,255.221,0c-58.904,0-106.66,47.756-106.66,106.66c0,34.608,26.827,94.817,54.982,138.604L85.337,234.656
		v106.675l121.895-10.686h6.101l-21.335,181.337h127.996L298.65,330.645h6.109L426.645,341.331z M274.682,309.333l2.78,23.813
		l18.53,157.494h-80.005l18.531-157.494l2.797-23.813h-23.984h-6.101h-0.93l-0.93,0.063l-98.708,8.656v-60.061l94.974,8.523
		l43.444,3.891l-23.594-36.679c-29.413-45.741-51.592-100.364-51.592-127.066c0-22.788,8.875-44.217,24.991-60.334
		c16.117-16.117,37.546-24.991,60.334-24.991c22.804,0,44.226,8.874,60.333,24.991c16.125,16.117,25,37.546,25,60.334
		c0,26.851-21.812,81.537-50.717,127.199l-23.102,36.498l43.037-3.843l95.561-8.531v60.068l-98.716-8.656l-0.938-0.063h-0.922
		h-6.109L274.682,309.333L274.682,309.333z"/>
</g>
</svg>