<?xml version="1.0" encoding="iso-8859-1"?>
<!-- Uploaded to: SVG Repo, www.svgrepo.com, Generator: SVG Repo Mixer Tools -->
<svg version="1.1" id="Layer_1" xmlns="http://www.w3.org/2000/svg" xmlns:xlink="http://www.w3.org/1999/xlink" 
	 viewBox="0 0 511.984 511.984" xml:space="preserve">
<path style="fill:#F5BA45;" d="M370.863,99.997l-53.748,53.498l17.125,5.25c14.75,4.5,30.623,23.75,35.498,42.999
	c2.625,10.499,3.25,25.249-8.5,36.999l0,0c-11.873,11.999-34.248,18.749-64.748,19.499h-4.125l-46.998,43.999l19.5,4.5
	c45.873,10.499,91.371,6.249,134.996-13c37.248-16.25,65.623-40.499,82.996-57.748c14.625-14.75,22.625-25.75,22.875-25.999
	l6.25-8.75L370.863,99.997z"/>
<g>
	<path style="fill:#FECD57;" d="M490.734,194.744c-0.375,0.5-8.248,11.5-22.998,26.249c-17.25,17.25-45.75,41.248-82.998,57.748
		c-41.873,18.5-85.373,23.25-129.372,14l-10,9.5l19.5,4.5c45.873,10.499,91.371,6.249,134.996-13
		c37.248-16.25,65.623-40.499,82.996-57.748c14.625-14.75,22.625-25.75,22.875-25.999l6.25-8.75l-17.125-12.25L490.734,194.744z"/>
	<path style="fill:#FECD57;" d="M343.49,163.245c-5.5-7.5-12-13.75-18.75-17.249l-7.625,7.499l17.125,5.25
		C337.365,159.745,340.365,161.245,343.49,163.245z"/>
</g>
<path style="fill:#A85D5D;" d="M47.124,441.986c-8.375,8.5-21.875,8.5-30.124,0c-8.375-8.25-8.375-21.75,0-30L358.988,69.748
	c4.127-4,9.375-6.25,15.125-6.25s11.125,2.25,15.125,6.25s6.25,9.5,6.25,15.25c0,5.5-2.25,11-6.25,14.999L47.124,441.986
	L47.124,441.986z"/>
<path style="fill:#965353;" d="M396.738,62.248c-12.5-12.499-32.75-12.499-45.248,0L9.375,404.487
	c-12.5,12.499-12.5,32.749,0,45.249c12.5,12.499,32.749,12.499,45.249,0l342.114-342.239
	C409.236,94.998,409.236,74.748,396.738,62.248z M381.613,92.498L39.624,434.486c-4.25,4.25-11,4.25-15.125,0
	c-4.125-4-4.125-10.75,0-15l0,0L366.613,77.248c2.625-2.5,5.875-3,7.5-3s4.875,0.5,7.5,3c2.75,2.75,3.125,6,3.125,7.75
	C384.738,86.498,384.363,89.748,381.613,92.498z"/>
<polygon style="fill:#FECD57;" points="291.115,122.747 336.365,167.995 396.738,107.497 351.49,62.248 "/>
<polygon style="fill:#FB6D51;" points="182.869,260.991 197.994,276.241 62.248,411.986 47.124,396.737 "/>
<g>
	<rect x="69.122" y="344.742" style="fill:#E8563F;" width="21.375" height="62.997"/>
	<rect x="111.872" y="303.742" style="fill:#E8563F;" width="21.25" height="62.997"/>
	<rect x="154.492" y="265.242" style="fill:#E8563F;" width="21.375" height="62.748"/>
</g>
<path style="fill:#F5BA45;" d="M351.49,107.497c4.125,4.25,4.125,11,0,15.25c-4.125,3.999-10.875,3.999-15.125,0
	c-4.125-4.25-4.125-11,0-15.25C340.615,103.247,347.365,103.247,351.49,107.497z"/>
<g>
	<polygon style="fill:#E8563F;" points="167.744,245.993 182.869,260.991 47.124,396.737 31.999,381.737 	"/>
	<polygon style="fill:#E8563F;" points="197.994,276.241 213.118,291.241 77.248,426.986 62.248,411.986 	"/>
</g>
</svg>