<?xml version="1.0" encoding="iso-8859-1"?>
<!-- Uploaded to: SVG Repo, www.svgrepo.com, Generator: SVG Repo Mixer Tools -->
<svg version="1.1" id="Layer_1" xmlns="http://www.w3.org/2000/svg" xmlns:xlink="http://www.w3.org/1999/xlink" 
	 viewBox="0 0 511.982 511.982" xml:space="preserve">
<g>
	<path style="fill:#79AA41;" d="M398.801,117.933c-0.5-0.516-1.438-0.75-2.734-0.75c-15.905,0-86.528,35.701-98.012,44.998
		c-12.438,10.063-14.359,28.296-4.313,40.733c5.719,7.078,14.095,10.749,22.53,10.749c6.407,0,12.844-2.109,18.203-6.452
		C346.912,197.165,405.551,124.667,398.801,117.933z"/>
	<path style="fill:#79AA41;" d="M21.312,110.512c-0.938,0-1.655,0.234-2.155,0.719c-7.641,7.641,31.311,80.872,40.529,92.247
		c5.234,6.484,12.891,9.843,20.624,9.843c5.844,0,11.75-1.921,16.656-5.906c11.375-9.202,13.141-25.89,3.938-37.279
		C92.295,159.494,34.922,110.512,21.312,110.512z"/>
	<path style="fill:#79AA41;" d="M442.22,383.47c-8.562-10.593-64.545-59.795-79.169-59.778c-1.109,0-1.984,0.281-2.577,0.874
		c-8.485,8.5,31.311,80.857,40.529,92.247c5.233,6.469,12.891,9.828,20.624,9.828c5.859,0,11.75-1.921,16.655-5.891
		C449.674,411.532,451.44,394.845,442.22,383.47z"/>
	<path style="fill:#79AA41;" d="M180.917,411.032c-1.281,0-2.266,0.281-2.859,0.876c-8.03,8.031,42.655,81.185,53.701,92.043
		c5.469,5.359,12.563,8.031,19.656,8.031c7.25,0,14.516-2.813,19.999-8.406c10.859-11.046,10.688-28.796-0.359-39.639
		C260.836,453.89,196.792,411.017,180.917,411.032z"/>
</g>
<g>
	<rect x="237.821" style="fill:#8AC054;" width="85.33" height="511.98"/>
	<rect x="419.141" y="85.321" style="fill:#8AC054;" width="63.997" height="426.66"/>
	<rect x="77.831" y="191.991" style="fill:#8AC054;" width="63.998" height="319.99"/>
</g>
<g>
	<path style="fill:#9ED36A;" d="M323.146,405.314h-85.325c-5.891,0-10.672,4.781-10.672,10.671c0,5.891,4.781,10.656,10.672,10.656
		h85.325c5.891,0,10.672-4.766,10.672-10.656C333.818,410.095,329.037,405.314,323.146,405.314z"/>
	<path style="fill:#9ED36A;" d="M323.146,298.645h-85.325c-5.891,0-10.672,4.781-10.672,10.672c0,5.89,4.781,10.672,10.672,10.672
		h85.325c5.891,0,10.672-4.782,10.672-10.672S329.037,298.645,323.146,298.645z"/>
	<path style="fill:#9ED36A;" d="M323.146,191.993h-85.325c-5.891,0-10.672,4.766-10.672,10.656s4.781,10.671,10.672,10.671h85.325
		c5.891,0,10.672-4.781,10.672-10.671S329.037,191.993,323.146,191.993z"/>
	<path style="fill:#9ED36A;" d="M323.146,85.325h-85.325c-5.891,0-10.672,4.781-10.672,10.672c0,5.89,4.781,10.655,10.672,10.655
		h85.325c5.891,0,10.672-4.766,10.672-10.655C333.818,90.106,329.037,85.325,323.146,85.325z"/>
	<path style="fill:#9ED36A;" d="M483.141,405.314h-63.997c-5.891,0-10.657,4.781-10.657,10.671c0,5.891,4.767,10.656,10.657,10.656
		h63.997c5.89,0,10.671-4.766,10.671-10.656C493.812,410.095,489.031,405.314,483.141,405.314z"/>
	<path style="fill:#9ED36A;" d="M483.141,298.645h-63.997c-5.891,0-10.657,4.781-10.657,10.672c0,5.89,4.767,10.672,10.657,10.672
		h63.997c5.89,0,10.671-4.782,10.671-10.672C493.812,303.427,489.031,298.645,483.141,298.645z"/>
	<path style="fill:#9ED36A;" d="M483.141,191.993h-63.997c-5.891,0-10.657,4.766-10.657,10.656s4.767,10.671,10.657,10.671h63.997
		c5.89,0,10.671-4.781,10.671-10.671C493.812,196.759,489.031,191.993,483.141,191.993z"/>
	<path style="fill:#9ED36A;" d="M419.144,106.652h63.997c5.89,0,10.671-4.766,10.671-10.655c0-5.891-4.781-10.672-10.671-10.672
		h-63.997c-5.891,0-10.657,4.781-10.657,10.672C408.487,101.887,413.254,106.652,419.144,106.652z"/>
	<path style="fill:#9ED36A;" d="M141.825,405.314H77.827c-5.891,0-10.672,4.781-10.672,10.671c0,5.891,4.781,10.656,10.672,10.656
		h63.998c5.89,0,10.671-4.766,10.671-10.656C152.496,410.095,147.715,405.314,141.825,405.314z"/>
	<path style="fill:#9ED36A;" d="M141.825,298.645H77.827c-5.891,0-10.672,4.781-10.672,10.672c0,5.89,4.781,10.672,10.672,10.672
		h63.998c5.89,0,10.671-4.782,10.671-10.672S147.715,298.645,141.825,298.645z"/>
	<path style="fill:#9ED36A;" d="M141.825,191.993H77.827c-5.891,0-10.672,4.766-10.672,10.656s4.781,10.671,10.672,10.671h63.998
		c5.89,0,10.671-4.781,10.671-10.671S147.715,191.993,141.825,191.993z"/>
</g>
</svg>