<?xml version="1.0" encoding="iso-8859-1"?>
<!-- Uploaded to: SVG Repo, www.svgrepo.com, Generator: SVG Repo Mixer Tools -->
<svg height="800px" width="800px" version="1.1" id="Layer_1" xmlns="http://www.w3.org/2000/svg" xmlns:xlink="http://www.w3.org/1999/xlink" 
	 viewBox="0 0 511.983 511.983" xml:space="preserve">
<path style="fill:#424953;" d="M393.378,412.55c-0.391-0.376-9.859-9.063-20.078-21.359c-14.281-17.14-22.811-32.546-25.375-45.764
	l29.938-32.624c3.813,19.765,20.391,75.278,29.904,83.997L393.378,412.55z"/>
<g>
	<path style="fill:#646C77;" d="M415.985,298.662c-1.154,0-2.342-0.202-3.5-0.593l-50.811-17.672c-5.561-1.938-8.5-8-6.561-13.578
		c1.92-5.563,8-8.507,13.561-6.569l50.811,17.663c5.563,1.938,8.5,8.016,6.563,13.578
		C424.516,295.896,420.391,298.662,415.985,298.662z"/>
	<path style="fill:#646C77;" d="M351.987,511.983c-2.732,0-5.467-1.047-7.563-3.125c-4.154-4.172-4.141-10.922,0.018-15.093
		c0.453-0.438,22.295-22.781,34.482-57.686c16.125-46.187,8.563-91.903-22.469-135.949c-3.391-4.812-2.25-11.469,2.578-14.859
		c4.813-3.391,11.469-2.25,14.859,2.579c19.391,27.515,30.75,56.295,33.719,85.544c2.404,23.499-0.578,47.248-8.844,70.575
		c-14,39.405-38.219,63.873-39.25,64.889C357.44,510.952,354.706,511.983,351.987,511.983z"/>
	<path style="fill:#646C77;" d="M437.86,103.981c-8.953-53.225-31.67-96.496-32.625-98.309l0,0C403.44,2.297,399.893,0,395.799,0
		c-5.875,0-10.656,4.773-10.656,10.663c0,1.805,0.438,3.5,1.234,4.992l0,0c0.016,0.008,0.016,0.031,0.031,0.063
		c0.016,0.016,0.016,0.031,0.031,0.047c0.266,0.508,1.484,2.875,3.297,6.773c-3.406,1.773-5.75,5.344-5.75,9.461
		c0,5.891,4.781,10.663,10.656,10.663c1.234,0,2.406-0.211,3.5-0.594c0.201,0.516,0.406,1.039,0.609,1.563
		c-3.672,1.688-6.234,5.391-6.234,9.703c0,5.891,4.766,10.663,10.656,10.663c0.938,0,1.844-0.133,2.719-0.358
		c3.951,12.194,7.717,26.015,10.342,40.592c-7.342-4.781-12.061-13.077-12.186-13.281c-1.797-3.343-5.328-5.616-9.406-5.616
		c-5.875,0-10.656,4.773-10.656,10.664c0,1.813,0.453,3.515,1.25,5.007l0,0c0,0,0,0.023,0.016,0.031
		c0.016,0.031,0.031,0.055,0.047,0.086c1.063,1.969,13,23.101,34.125,27.108c4.391,54.045-12.516,93.966-50.406,118.848
		l11.703,17.828C430.329,232.337,450.079,176.69,437.86,103.981z"/>
</g>
<path style="fill:#424953;" d="M118.605,412.55l-14.398-15.75l7.195,7.875l3.75-32.53c9.531-8.75,15.164-39.639,18.976-59.342
	l29.929,32.624c-2.563,13.218-11.094,28.624-25.366,45.764C128.464,403.487,119.003,412.174,118.605,412.55z"/>
<g>
	<path style="fill:#646C77;" d="M95.996,298.662c-4.414,0-8.546-2.766-10.078-7.171c-1.93-5.563,1.008-11.641,6.578-13.578
		l50.803-17.663c5.563-1.938,11.648,1.007,13.578,6.569c1.938,5.578-1.008,11.641-6.57,13.578l-50.811,17.672
		C98.341,298.46,97.16,298.662,95.996,298.662z"/>
	<path style="fill:#646C77;" d="M159.987,511.983c-2.726,0-5.445-1.031-7.531-3.125c-1.023-1.016-25.249-25.483-39.233-64.889
		c-8.281-23.327-11.257-47.076-8.859-70.575c2.985-29.249,14.328-58.029,33.718-85.544c3.398-4.829,10.055-5.97,14.867-2.579
		s5.968,10.048,2.578,14.859c-31.03,44.046-38.584,89.763-22.468,135.949c12.257,35.092,34.265,57.482,34.483,57.701
		c4.148,4.172,4.148,10.921-0.015,15.077C165.44,510.936,162.713,511.983,159.987,511.983z"/>
	<path style="fill:#646C77;" d="M92.551,128.23c21.132-4.008,33.062-25.14,34.132-27.108c0.016-0.031,0.031-0.055,0.047-0.086
		c0.008-0.008,0.008-0.023,0.008-0.023l0.007-0.008c0.797-1.492,1.25-3.194,1.25-5.007c0-5.891-4.773-10.664-10.664-10.664
		c-4.07,0-7.601,2.273-9.398,5.616c-0.117,0.204-4.835,8.5-12.195,13.281c2.641-14.577,6.391-28.397,10.352-40.592
		c0.867,0.226,1.773,0.358,2.718,0.358c5.891,0,10.664-4.772,10.664-10.663c0-4.313-2.563-8.016-6.242-9.703
		c0.203-0.523,0.406-1.047,0.609-1.563c1.094,0.383,2.266,0.594,3.492,0.594c5.891,0,10.664-4.772,10.664-10.663
		c0-4.117-2.336-7.688-5.757-9.461c1.828-3.898,3.039-6.266,3.305-6.773c0.008-0.016,0.015-0.031,0.031-0.047
		c0.016-0.031,0.023-0.055,0.032-0.063h-0.008c0.789-1.492,1.242-3.188,1.242-4.992C126.84,4.773,122.067,0,116.176,0
		c-4.086,0-7.632,2.297-9.422,5.672l0,0c-0.968,1.813-23.678,45.084-32.631,98.309c-12.219,72.709,7.531,128.355,57.131,160.925
		l11.71-17.828C105.074,222.196,88.169,182.275,92.551,128.23z"/>
</g>
<g>
	<path style="fill:#424953;" d="M326.63,42.913c-2.734-10.203-8.609-17.155-9.266-17.913v0.008c-1.969-2.25-4.828-3.672-8.031-3.672
		c-5.906,0-10.688,4.773-10.688,10.664c0,2.68,1,5.125,2.625,6.991v0.008c0.033,0.039,3.314,4.031,4.75,9.422
		c1.844,6.906-0.094,12.805-6.076,18.547l14.764,15.397C326.239,71.31,330.473,57.304,326.63,42.913z"/>
	<path style="fill:#424953;" d="M202.657,21.336c-3.211,0-6.086,1.422-8.039,3.672L194.61,25c-0.656,0.758-6.531,7.71-9.257,17.913
		c-3.844,14.391,0.39,28.397,11.929,39.452l14.757-15.397c-5.836-5.603-7.813-11.32-6.211-18c1.367-5.742,4.898-9.992,4.937-10.031
		L210.702,39l-0.008-0.008c1.633-1.866,2.633-4.312,2.633-6.991C213.328,26.109,208.548,21.336,202.657,21.336z"/>
</g>
<path style="fill:#646C77;" d="M319.989,106.661c0,35.351-28.654,63.998-63.998,63.998c-35.35,0-63.998-28.647-63.998-63.998
	c0-35.343,28.647-63.998,63.998-63.998C291.335,42.663,319.989,71.318,319.989,106.661z"/>
<path style="fill:#EC5564;" d="M396.831,225.86c0,92.052-63.061,222.235-140.84,222.235c-77.778,0-140.839-130.184-140.839-222.235
	S178.213,96.223,255.991,96.223C333.77,96.223,396.831,133.808,396.831,225.86z"/>
<path style="fill:#D94452;" d="M391.768,184.213c-61.42,2.445-118.496,29.438-135.777,38.358
	c-17.296-8.921-74.356-35.913-135.776-38.358c-1.766,6.664-3.094,13.727-3.945,21.227c56.709,1.414,111.895,26.991,129.058,35.671
	v206.171c3.516,0.547,7.078,0.813,10.664,0.813c3.586,0,7.141-0.267,10.664-0.813V241.11c17.164-8.68,72.35-34.257,129.049-35.671
	C394.862,197.939,393.518,190.877,391.768,184.213z"/>
</svg>