<?xml version="1.0" encoding="iso-8859-1"?>
<!-- Uploaded to: SVG Repo, www.svgrepo.com, Generator: SVG Repo Mixer Tools -->
<svg height="800px" width="800px" version="1.1" id="Layer_1" xmlns="http://www.w3.org/2000/svg" xmlns:xlink="http://www.w3.org/1999/xlink" 
	 viewBox="0 0 511.984 511.984" xml:space="preserve">
<path id="SVGCleanerId_0" style="fill:#EC5564;" d="M394.58,212.792L169.463,11.447C152.995-4.1,127.019-3.811,110.902,12.314
	c-16.125,16.116-16.414,42.092-0.867,58.561l165.658,185.064L110.081,441.113c-15.546,16.468-15.257,42.436,0.867,58.561
	c16.117,16.125,42.092,16.405,58.561,0.859l223.009-199.635c1.25-1.046,2.468-2.155,3.641-3.327
	c22.983-22.983,22.983-60.226,0-83.201c-0.532-0.531-1.079-1.039-1.61-1.547L394.58,212.792z"/>
<path id="SVGCleanerId_1" style="fill:#9ED36A;" d="M216.297,363.678c4.164-4.188,10.914-4.188,15.085,0
	c4.164,4.156,4.164,10.906,0,15.062c-4.172,4.188-10.921,4.188-15.085,0C212.133,374.584,212.133,367.834,216.297,363.678z"/>
<path id="SVGCleanerId_2" style="fill:#9ED36A;" d="M246.468,363.663c4.164-4.173,10.913-4.173,15.078,0.015
	c4.172,4.156,4.172,10.906,0,15.062c-4.165,4.188-10.914,4.188-15.085,0C242.296,374.584,242.296,367.834,246.468,363.663z"/>
<path id="SVGCleanerId_3" style="fill:#9ED36A;" d="M246.46,333.491c4.171-4.156,10.92-4.156,15.085,0
	c4.172,4.172,4.172,10.922,0,15.093c-4.165,4.157-10.914,4.157-15.085,0C242.296,344.413,242.296,337.663,246.46,333.491z"/>
<path id="SVGCleanerId_4" style="fill:#9ED36A;" d="M216.297,393.833c4.164-4.155,10.914-4.155,15.085,0
	c4.164,4.172,4.164,10.921,0,15.093c-4.172,4.157-10.921,4.157-15.085,0C212.133,404.754,212.133,397.989,216.297,393.833z"/>
<path id="SVGCleanerId_5" style="fill:#FECD57;" d="M163.502,461.706c4.164-4.156,10.914-4.156,15.085,0
	c4.164,4.172,4.164,10.938,0,15.093c-4.172,4.156-10.922,4.156-15.085,0C159.338,472.643,159.338,465.878,163.502,461.706z"/>
<path id="SVGCleanerId_6" style="fill:#FECD57;" d="M148.416,446.629c4.164-4.172,10.921-4.172,15.085,0
	c4.164,4.171,4.164,10.921,0,15.077c-4.164,4.172-10.922,4.172-15.085,0C144.252,457.55,144.252,450.8,148.416,446.629z"/>
<path id="SVGCleanerId_7" style="fill:#FECD57;" d="M133.331,431.551c4.164-4.172,10.921-4.172,15.085,0
	c4.164,4.156,4.164,10.906,0,15.078c-4.164,4.171-10.921,4.171-15.085,0C129.167,442.457,129.167,435.707,133.331,431.551z"/>
<polygon style="fill:#424953;" points="210.703,463.674 226.617,449.425 161.181,383.973 146.94,399.895 "/>
<path id="SVGCleanerId_8" style="fill:#424953;" d="M344.519,341.038c-1.938,1.922-4.595,3.125-7.547,3.125h-30.17
	c-5.891,0-10.656-4.765-10.656-10.672c0-5.874,4.766-10.655,10.656-10.655h30.171c5.891,0,10.672,4.781,10.672,10.655
	C347.644,336.444,346.441,339.116,344.519,341.038z"/>
<path id="SVGCleanerId_9" style="fill:#424953;" d="M314.333,341.038c-1.923,1.922-4.594,3.125-7.531,3.125
	c-5.891,0-10.656-4.765-10.656-10.672v-30.155c0-5.906,4.766-10.672,10.656-10.672s10.656,4.766,10.656,10.672v30.155
	C317.458,336.444,316.269,339.116,314.333,341.038z"/>
<path id="SVGCleanerId_10" style="fill:#424953;" d="M314.333,310.867c-1.923,1.938-4.594,3.125-7.531,3.125h-30.171
	c-5.891,0-10.663-4.781-10.663-10.656c0-5.906,4.772-10.672,10.663-10.672h30.171c5.891,0,10.656,4.766,10.656,10.672
	C317.458,306.273,316.269,308.929,314.333,310.867z"/>
<path id="SVGCleanerId_11" style="fill:#424953;" d="M284.178,310.867c-1.938,1.938-4.594,3.125-7.547,3.125
	c-5.891,0-10.663-4.781-10.663-10.656v-30.187c0-5.882,4.772-10.656,10.663-10.656s10.672,4.774,10.672,10.656v30.187
	C287.303,306.273,286.114,308.929,284.178,310.867z"/>
<path id="SVGCleanerId_12" style="fill:#FECD57;" d="M396.159,214.37c-0.532-0.531-1.079-1.039-1.61-1.547l0.031-0.031
	l-28.499-25.491c-6.875,24.804-19.968,86.099,1.172,136.223l25.266-22.625c1.25-1.046,2.468-2.155,3.641-3.327
	C419.142,274.588,419.142,237.346,396.159,214.37z"/>
<g>
	<path id="SVGCleanerId_0_1_" style="fill:#EC5564;" d="M394.58,212.792L169.463,11.447C152.995-4.1,127.019-3.811,110.902,12.314
		c-16.125,16.116-16.414,42.092-0.867,58.561l165.658,185.064L110.081,441.113c-15.546,16.468-15.257,42.436,0.867,58.561
		c16.117,16.125,42.092,16.405,58.561,0.859l223.009-199.635c1.25-1.046,2.468-2.155,3.641-3.327
		c22.983-22.983,22.983-60.226,0-83.201c-0.532-0.531-1.079-1.039-1.61-1.547L394.58,212.792z"/>
</g>
<g>
	<path id="SVGCleanerId_1_1_" style="fill:#9ED36A;" d="M216.297,363.678c4.164-4.188,10.914-4.188,15.085,0
		c4.164,4.156,4.164,10.906,0,15.062c-4.172,4.188-10.921,4.188-15.085,0C212.133,374.584,212.133,367.834,216.297,363.678z"/>
</g>
<g>
	<path id="SVGCleanerId_2_1_" style="fill:#9ED36A;" d="M246.468,363.663c4.164-4.173,10.913-4.173,15.078,0.015
		c4.172,4.156,4.172,10.906,0,15.062c-4.165,4.188-10.914,4.188-15.085,0C242.296,374.584,242.296,367.834,246.468,363.663z"/>
</g>
<g>
	<path id="SVGCleanerId_3_1_" style="fill:#9ED36A;" d="M246.46,333.491c4.171-4.156,10.92-4.156,15.085,0
		c4.172,4.172,4.172,10.922,0,15.093c-4.165,4.157-10.914,4.157-15.085,0C242.296,344.413,242.296,337.663,246.46,333.491z"/>
</g>
<g>
	<path id="SVGCleanerId_4_1_" style="fill:#9ED36A;" d="M216.297,393.833c4.164-4.155,10.914-4.155,15.085,0
		c4.164,4.172,4.164,10.921,0,15.093c-4.172,4.157-10.921,4.157-15.085,0C212.133,404.754,212.133,397.989,216.297,393.833z"/>
</g>
<g>
	<path id="SVGCleanerId_5_1_" style="fill:#FECD57;" d="M163.502,461.706c4.164-4.156,10.914-4.156,15.085,0
		c4.164,4.172,4.164,10.938,0,15.093c-4.172,4.156-10.922,4.156-15.085,0C159.338,472.643,159.338,465.878,163.502,461.706z"/>
</g>
<g>
	<path id="SVGCleanerId_6_1_" style="fill:#FECD57;" d="M148.416,446.629c4.164-4.172,10.921-4.172,15.085,0
		c4.164,4.171,4.164,10.921,0,15.077c-4.164,4.172-10.922,4.172-15.085,0C144.252,457.55,144.252,450.8,148.416,446.629z"/>
</g>
<g>
	<path id="SVGCleanerId_7_1_" style="fill:#FECD57;" d="M133.331,431.551c4.164-4.172,10.921-4.172,15.085,0
		c4.164,4.156,4.164,10.906,0,15.078c-4.164,4.171-10.921,4.171-15.085,0C129.167,442.457,129.167,435.707,133.331,431.551z"/>
</g>
<polygon style="fill:#424953;" points="210.703,463.674 226.617,449.425 161.181,383.973 146.94,399.895 "/>
<g>
	<path id="SVGCleanerId_8_1_" style="fill:#424953;" d="M344.519,341.038c-1.938,1.922-4.595,3.125-7.547,3.125h-30.17
		c-5.891,0-10.656-4.765-10.656-10.672c0-5.874,4.766-10.655,10.656-10.655h30.171c5.891,0,10.672,4.781,10.672,10.655
		C347.644,336.444,346.441,339.116,344.519,341.038z"/>
</g>
<g>
	<path id="SVGCleanerId_9_1_" style="fill:#424953;" d="M314.333,341.038c-1.923,1.922-4.594,3.125-7.531,3.125
		c-5.891,0-10.656-4.765-10.656-10.672v-30.155c0-5.906,4.766-10.672,10.656-10.672s10.656,4.766,10.656,10.672v30.155
		C317.458,336.444,316.269,339.116,314.333,341.038z"/>
</g>
<g>
	<path id="SVGCleanerId_10_1_" style="fill:#424953;" d="M314.333,310.867c-1.923,1.938-4.594,3.125-7.531,3.125h-30.171
		c-5.891,0-10.663-4.781-10.663-10.656c0-5.906,4.772-10.672,10.663-10.672h30.171c5.891,0,10.656,4.766,10.656,10.672
		C317.458,306.273,316.269,308.929,314.333,310.867z"/>
</g>
<g>
	<path id="SVGCleanerId_11_1_" style="fill:#424953;" d="M284.178,310.867c-1.938,1.938-4.594,3.125-7.547,3.125
		c-5.891,0-10.663-4.781-10.663-10.656v-30.187c0-5.882,4.772-10.656,10.663-10.656s10.672,4.774,10.672,10.656v30.187
		C287.303,306.273,286.114,308.929,284.178,310.867z"/>
</g>
<g>
	<path id="SVGCleanerId_12_1_" style="fill:#FECD57;" d="M396.159,214.37c-0.532-0.531-1.079-1.039-1.61-1.547l0.031-0.031
		l-28.499-25.491c-6.875,24.804-19.968,86.099,1.172,136.223l25.266-22.625c1.25-1.046,2.468-2.155,3.641-3.327
		C419.142,274.588,419.142,237.346,396.159,214.37z"/>
</g>
<g>
	<path style="fill:#9ED36A;" d="M216.297,148.27c4.164,4.164,10.914,4.164,15.085,0c4.164-4.164,4.164-10.921,0-15.085
		c-4.172-4.164-10.921-4.164-15.085,0S212.133,144.106,216.297,148.27z"/>
	<path style="fill:#9ED36A;" d="M246.468,148.27c4.164,4.164,10.913,4.164,15.078,0c4.172-4.164,4.172-10.921,0-15.085
		c-4.165-4.164-10.914-4.164-15.085,0C242.296,137.349,242.296,144.106,246.468,148.27z"/>
	<path style="fill:#9ED36A;" d="M246.468,178.441c4.164,4.164,10.913,4.164,15.078,0c4.172-4.172,4.172-10.922,0-15.085
		c-4.165-4.164-10.914-4.164-15.085,0C242.296,167.519,242.296,174.269,246.468,178.441z"/>
	<path style="fill:#9ED36A;" d="M216.297,118.099c4.164,4.164,10.914,4.164,15.085,0c4.164-4.164,4.164-10.913,0-15.085
		c-4.172-4.164-10.921-4.164-15.085,0S212.133,113.935,216.297,118.099z"/>
</g>
<g>
	<path style="fill:#FECD57;" d="M163.502,50.219c4.164,4.164,10.914,4.164,15.085,0c4.164-4.163,4.164-10.913,0-15.085
		c-4.172-4.164-10.922-4.164-15.085,0C159.338,39.305,159.338,46.055,163.502,50.219z"/>
	<path style="fill:#FECD57;" d="M148.416,65.305c4.164,4.164,10.921,4.164,15.085,0s4.164-10.922,0-15.086
		c-4.164-4.163-10.922-4.163-15.085,0C144.252,54.383,144.252,61.14,148.416,65.305z"/>
	<circle style="fill:#FECD57;" cx="140.872" cy="72.847" r="10.667"/>
</g>
<g>
	<polygon style="fill:#424953;" points="210.703,48.274 226.617,62.523 161.181,127.959 146.94,112.037 	"/>
	<path style="fill:#424953;" d="M344.519,170.894c-1.938-1.93-4.595-3.125-7.547-3.125h-30.17c-5.891,0-10.656,4.781-10.656,10.672
		s4.766,10.664,10.656,10.664h30.171c5.891,0,10.672-4.773,10.672-10.664C347.644,175.496,346.441,172.824,344.519,170.894z"/>
	<path style="fill:#424953;" d="M314.333,170.894c-1.923-1.93-4.594-3.125-7.531-3.125c-5.891,0-10.656,4.781-10.656,10.672v30.163
		c0,5.898,4.766,10.672,10.656,10.672s10.656-4.773,10.656-10.672v-30.163C317.458,175.496,316.269,172.824,314.333,170.894z"/>
	<path style="fill:#424953;" d="M314.333,201.065c-1.923-1.929-4.594-3.124-7.531-3.124h-30.171
		c-5.891,0-10.663,4.772-10.663,10.663c0,5.898,4.772,10.672,10.663,10.672h30.171c5.891,0,10.656-4.773,10.656-10.672
		C317.458,205.659,316.269,202.995,314.333,201.065z"/>
	<path style="fill:#424953;" d="M284.178,201.065c-1.938-1.929-4.594-3.124-7.547-3.124c-5.891,0-10.663,4.772-10.663,10.663v30.171
		c0,5.891,4.772,10.664,10.663,10.672c5.891-0.008,10.672-4.781,10.672-10.672v-30.171
		C287.303,205.659,286.114,202.995,284.178,201.065z"/>
</g>
<g style="opacity:0.2;">
	<path style="fill:#FFFFFF;" d="M396.159,214.37c-0.532-0.531-1.079-1.039-1.61-1.547l0.031-0.031L169.463,11.447
		C158.58,1.174,143.557-2.178,129.956,1.377c6.609,1.727,12.882,5.078,18.171,10.07l225.11,201.345l-0.031,0.031
		c0.547,0.508,1.093,1.016,1.624,1.547c22.969,22.976,22.969,60.218,0,83.201c-1.187,1.172-2.391,2.281-3.624,3.327L148.174,500.533
		c-5.289,4.999-11.562,8.358-18.171,10.077c13.593,3.548,28.624,0.188,39.507-10.077l223.009-199.635
		c1.25-1.046,2.468-2.155,3.641-3.327C419.142,274.588,419.142,237.346,396.159,214.37z"/>
</g>
</svg>