<?xml version="1.0" encoding="iso-8859-1"?>
<!-- Uploaded to: SVG Repo, www.svgrepo.com, Generator: SVG Repo Mixer Tools -->
<svg height="800px" width="800px" version="1.1" id="Layer_1" xmlns="http://www.w3.org/2000/svg" xmlns:xlink="http://www.w3.org/1999/xlink" 
	 viewBox="0 0 511.982 511.982" xml:space="preserve">
<path style="fill:#E5E8EC;" d="M423.614,31.999l-25.999-19.938L159.631,7.547l-50.67,11.171L91.633,31.999l-4,28.718l8.671,14.327
	l18,14.328l25.999-4.656l7.328-23.999l-2.672,31.999l14,60.669l1.344,349.989h187.314l2-345.989l15.999-73.325l25.343,10.655
	c0,0,37.343-20.655,39.343-22.655S423.614,31.999,423.614,31.999z"/>
<g>
	<path style="fill:#646C77;" d="M213.269,138.651c0,5.891-4.765,10.672-10.656,10.672c-5.89,0-10.671-4.781-10.671-10.672
		s4.781-10.656,10.671-10.656C208.504,127.995,213.269,132.761,213.269,138.651z"/>
	<path style="fill:#646C77;" d="M266.612,138.651c0,5.891-4.781,10.672-10.672,10.672c-5.89,0-10.671-4.781-10.671-10.672
		s4.781-10.656,10.671-10.656C261.831,127.995,266.612,132.761,266.612,138.651z"/>
	<path style="fill:#646C77;" d="M319.993,138.651c0,5.891-4.781,10.672-10.656,10.672c-5.906,0-10.688-4.781-10.688-10.672
		s4.781-10.656,10.688-10.656C315.212,127.995,319.993,132.761,319.993,138.651z"/>
</g>
<g>
	<path style="fill:#CBD0D8;" d="M382.084,0H129.897C99.382,0,74.555,24.858,74.555,55.404c0,25.624,20.827,46.467,46.405,46.467
		c7.203,0,13.937-1.953,19.749-5.344l8.516,64.17v351.285h213.329V160.728l8.999-64.044c5.75,3.296,12.406,5.187,19.47,5.187
		c25.592,0,46.404-20.843,46.404-46.467C437.427,24.858,412.615,0,382.084,0z M342.617,149.323H169.24l-2.843-21.328h179.221
		L342.617,149.323z M341.211,490.639H170.552V170.65h170.659V490.639z M391.022,80.544c-9.875,0-17.906-8.063-17.906-17.968
		c0-6.766,5.468-12.25,12.187-12.25c4.22,0,7.625,3.438,7.625,7.656c0,5.89,4.78,10.671,10.688,10.671
		c5.874,0,10.655-4.781,10.655-10.671c0-15.984-12.999-28.983-28.968-28.999c-18.5,0-33.529,15.077-33.529,33.593
		c0,3.733,0.53,7.358,1.53,10.796l-4.687,33.28H163.568l-4.438-33.405l-0.422,0.063c0.984-3.422,1.516-7.016,1.516-10.75
		c0-18.499-15.046-33.576-33.545-33.576c-15.969,0.015-28.968,13.014-28.968,28.998c0,5.89,4.781,10.671,10.671,10.671
		c5.891,0,10.672-4.781,10.672-10.671c0-4.219,3.422-7.656,7.625-7.656c6.734,0,12.203,5.484,12.203,12.233
		c0,9.922-8.031,17.984-17.921,17.984c-13.828,0-25.062-11.281-25.062-25.14c0-18.797,15.249-34.077,33.999-34.077h252.187
		c18.75,0,34,15.28,34,34.077C416.084,69.262,404.834,80.544,391.022,80.544z"/>
	<path style="fill:#CBD0D8;" d="M319.993,202.665c0-0.016,0-0.016,0-0.016c0-5.891-4.781-10.656-10.656-10.656
		c-5.906,0-10.688,4.766-10.688,10.656l0,0V457.39c-0.031,0.406-0.062,0.828-0.062,1.25c0,5.89,4.78,10.671,10.655,10.671
		c5.906,0,10.656-4.781,10.656-10.671l0,0h0.094V202.665H319.993z"/>
	<path style="fill:#CBD0D8;" d="M202.614,191.993c-5.89,0-10.671,4.766-10.671,10.656V457.39c-0.047,0.406-0.078,0.828-0.078,1.25
		c0,5.89,4.781,10.671,10.671,10.671s10.656-4.781,10.656-10.671l0,0h0.078V202.649
		C213.269,196.759,208.504,191.993,202.614,191.993z"/>
	<path style="fill:#CBD0D8;" d="M255.893,191.993c-5.891,0-10.672,4.766-10.672,10.656c0,0.484,0.047,0.969,0.109,1.438v254.554l0,0
		c0,5.89,4.766,10.671,10.671,10.671c5.89,0,10.656-4.781,10.656-10.671l0,0V202.649h-0.109
		C266.549,196.759,261.783,191.993,255.893,191.993z"/>
	<path style="fill:#CBD0D8;" d="M191.942,42.654c0,5.891,4.781,10.672,10.671,10.672c5.891,0,10.656-4.781,10.656-10.672V7.547
		h-21.327L191.942,42.654L191.942,42.654z"/>
	<path style="fill:#CBD0D8;" d="M266.612,7.547h-21.344v35.107h0.063c0,5.891,4.766,10.672,10.671,10.672
		c5.89,0,10.656-4.781,10.656-10.672c0-0.359-0.016-0.719-0.046-1.063L266.612,7.547L266.612,7.547z"/>
	<path style="fill:#CBD0D8;" d="M298.649,7.547v35.107c0,5.891,4.781,10.672,10.688,10.672c5.875,0,10.656-4.781,10.656-10.672
		V7.547H298.649z"/>
</g>
</svg>