<?xml version="1.0" encoding="iso-8859-1"?>
<!-- Uploaded to: SVG Repo, www.svgrepo.com, Generator: SVG Repo Mixer Tools -->
<svg height="800px" width="800px" version="1.1" id="Layer_1" xmlns="http://www.w3.org/2000/svg" xmlns:xlink="http://www.w3.org/1999/xlink" 
	 viewBox="0 0 511.983 511.983" xml:space="preserve">
<g>
	<path style="fill:#424953;" d="M426.646,170.659c0,5.891-4.766,10.664-10.656,10.664s-10.655-4.773-10.655-10.664
		s4.765-10.664,10.655-10.664S426.646,164.768,426.646,170.659z"/>
	<circle style="fill:#424953;" cx="255.992" cy="10.664" r="10.664"/>
	<circle style="fill:#424953;" cx="96.002" cy="170.662" r="10.664"/>
</g>
<g>
	<path style="fill:#FECD57;" d="M394.554,90.662c-14.547-25.202-37.843-42.21-63.826-49.429
		c-19.233-18.905-45.623-30.569-74.731-30.569s-55.49,11.672-74.74,30.577c-25.983,7.219-49.271,24.219-63.818,49.421
		c-14.554,25.21-17.64,53.881-10.897,79.997c-6.742,26.116-3.656,54.795,10.897,79.997c14.547,25.21,37.835,42.21,63.818,49.428
		c19.25,18.906,45.632,30.563,74.74,30.563s55.498-11.656,74.748-30.563c25.967-7.218,49.263-24.218,63.81-49.428
		c14.563-25.202,17.641-53.881,10.905-79.997C412.194,144.543,409.116,115.872,394.554,90.662z M302.089,58.647
		c5.905,0,11.78,0.625,17.53,1.828c9.484,10.577,16.062,23.14,19.327,36.71c-11.952-4.406-24.358-6.539-36.671-6.539
		c-0.031,0-0.063,0-0.094,0c-6.141-10.672-14.187-20.367-23.999-28.539C285.932,59.827,293.994,58.647,302.089,58.647
		L302.089,58.647z M255.995,101.177c-7.203-3.453-14.758-6.086-22.522-7.859c6.094-8.257,13.687-15.397,22.522-21.077
		c8.836,5.68,16.438,12.82,22.53,21.085C270.754,95.091,263.199,97.723,255.995,101.177z M273.401,140.433
		c3.906,4.359,7.358,9.116,10.313,14.227c2.969,5.14,5.344,10.499,7.172,15.999c-1.828,5.508-4.203,10.866-7.172,15.999
		c-2.954,5.109-6.406,9.875-10.313,14.227c-5.656,1.172-11.483,1.773-17.405,1.773c-5.922,0-11.75-0.602-17.413-1.773
		c-3.891-4.352-7.352-9.117-10.297-14.227c-2.969-5.133-5.359-10.491-7.188-15.999c1.828-5.5,4.219-10.859,7.188-15.999
		c2.945-5.11,6.406-9.867,10.297-14.227c5.663-1.172,11.491-1.773,17.413-1.773C261.918,138.66,267.745,139.262,273.401,140.433z
		 M233.809,115.442c-2.195,1.828-4.328,3.742-6.383,5.758c-2.766,0.772-5.484,1.64-8.156,2.617c0.156-0.633,0.32-1.274,0.492-1.907
		c0.813-3.054,1.797-6.03,2.922-8.929C226.441,113.552,230.161,114.38,233.809,115.442z M227.426,220.118
		c2.055,2.016,4.188,3.93,6.375,5.758c-3.648,1.07-7.359,1.891-11.117,2.469c-1.125-2.906-2.109-5.883-2.922-8.938
		c-0.172-0.633-0.336-1.266-0.492-1.906C221.941,218.477,224.661,219.352,227.426,220.118z M255.995,240.149
		c7.203,3.453,14.758,6.077,22.53,7.851c-6.093,8.266-13.694,15.406-22.53,21.077c-8.836-5.671-16.429-12.812-22.522-21.077
		C241.238,246.226,248.792,243.594,255.995,240.149z M278.182,225.876c2.187-1.828,4.327-3.742,6.375-5.758
		c2.766-0.766,5.5-1.641,8.156-2.617c-0.156,0.641-0.313,1.273-0.484,1.906c-0.813,3.055-1.798,6.031-2.922,8.938
		C285.557,227.766,281.839,226.946,278.182,225.876z M284.557,121.208c-2.048-2.023-4.188-3.938-6.375-5.766
		c3.656-1.063,7.375-1.883,11.125-2.461c1.124,2.898,2.109,5.875,2.922,8.929c0.171,0.633,0.328,1.274,0.484,1.907
		C290.057,122.84,287.339,121.972,284.557,121.208z M255.995,32c11.203,0,22.062,2.147,32.14,6.233
		c-10.922,1.453-21.766,4.625-32.14,9.625c-10.375-5-21.218-8.172-32.14-9.625C233.926,34.147,244.792,32,255.995,32z
		 M192.365,60.475c5.758-1.203,11.633-1.828,17.547-1.828l0,0c8.101,0,16.147,1.18,23.905,3.46
		c-9.813,8.172-17.867,17.867-24.015,28.539c-0.032,0-0.063,0-0.095,0c-12.288,0-24.702,2.133-36.662,6.539
		C176.318,83.615,182.887,71.053,192.365,60.475z M200.279,112.52c-2.344,7.594-3.844,15.444-4.461,23.397
		c-6.586,4.508-12.647,9.742-18.054,15.585c-4.117-9.405-6.5-19.546-7-30.038C180.007,116.708,190.021,113.677,200.279,112.52z
		 M198.887,170.659c-0.727,2.781-1.328,5.578-1.82,8.383c-0.477-0.453-0.945-0.906-1.414-1.375c-2.234-2.234-4.32-4.578-6.273-7.008
		c1.953-2.43,4.039-4.773,6.273-7.008c0.469-0.461,0.938-0.922,1.414-1.375C197.559,165.081,198.161,167.878,198.887,170.659z
		 M135.913,101.325c5.523-9.57,12.828-17.929,21.444-24.647c-4.195,10.164-6.866,21.116-7.726,32.577
		c-9.516,6.484-17.672,14.296-24.39,23.03C126.733,121.513,130.312,111.028,135.913,101.325z M135.913,239.993
		c-5.602-9.703-9.18-20.188-10.671-30.96c6.718,8.741,14.874,16.546,24.39,23.038c0.859,11.46,3.538,22.413,7.726,32.576
		C148.742,257.93,141.437,249.562,135.913,239.993z M150.889,205.76c-10.117-9.625-17.711-21.602-22.141-35.101
		c4.43-13.5,12.023-25.476,22.141-35.093c2.172,12.586,6.546,24.429,12.718,35.093C157.436,181.33,153.062,193.166,150.889,205.76z
		 M177.764,189.822c5.406,5.836,11.468,11.07,18.054,15.578c0.617,7.952,2.117,15.804,4.461,23.397
		c-10.258-1.156-20.272-4.18-29.515-8.945C171.264,209.369,173.646,199.221,177.764,189.822z M192.365,280.835
		c-9.477-10.569-16.046-23.132-19.319-36.702c11.96,4.406,24.366,6.539,36.662,6.539c0.032,0,0.063,0,0.095,0
		c6.147,10.672,14.202,20.366,24.015,28.538c-7.758,2.281-15.805,3.469-23.905,3.469
		C203.997,282.679,198.122,282.054,192.365,280.835z M255.995,309.318c-11.203,0-22.069-2.141-32.14-6.234
		c10.922-1.438,21.765-4.624,32.14-9.624c10.374,5,21.218,8.187,32.14,9.624C278.057,307.178,267.19,309.318,255.995,309.318z
		 M319.619,280.835c-5.75,1.219-11.625,1.844-17.53,1.844c-8.109,0-16.156-1.188-23.906-3.469
		c9.813-8.172,17.858-17.866,23.999-28.538c0.031,0,0.063,0,0.094,0c12.297,0,24.719-2.133,36.671-6.539
		C335.68,257.703,329.103,270.265,319.619,280.835z M311.713,228.798c2.344-7.594,3.843-15.445,4.469-23.397
		c6.577-4.508,12.641-9.742,18.046-15.578c4.109,9.398,6.5,19.547,7,30.03C331.994,224.618,321.963,227.641,311.713,228.798z
		 M313.103,170.659c0.734-2.781,1.328-5.578,1.828-8.383c0.469,0.453,0.938,0.914,1.406,1.375c2.234,2.234,4.313,4.578,6.281,7.008
		c-1.969,2.43-4.047,4.773-6.281,7.008c-0.469,0.469-0.938,0.922-1.406,1.375C314.431,176.237,313.838,173.44,313.103,170.659z
		 M334.227,151.503c-5.405-5.843-11.469-11.069-18.046-15.585c-0.626-7.953-2.125-15.804-4.469-23.397
		c10.25,1.156,20.281,4.188,29.515,8.944C340.727,131.957,338.337,142.097,334.227,151.503z M376.085,239.993
		c-5.531,9.569-12.843,17.929-21.451,24.654c4.202-10.171,6.858-21.116,7.734-32.576c9.499-6.492,17.655-14.297,24.374-23.038
		C385.257,219.805,381.679,230.29,376.085,239.993z M348.384,170.659c6.171-10.664,10.546-22.507,12.718-35.093
		c10.109,9.617,17.702,21.593,22.141,35.093c-4.438,13.499-12.031,25.476-22.141,35.101
		C358.93,193.166,354.555,181.33,348.384,170.659z M362.368,109.255c-0.876-11.461-3.548-22.413-7.75-32.585
		c8.624,6.727,15.936,15.085,21.467,24.655c5.594,9.703,9.172,20.188,10.657,30.96C380.023,123.551,371.867,115.739,362.368,109.255
		z"/>
	<path style="fill:#FECD57;" d="M150.1,266.656v191.985c0,5.906,4.782,10.671,10.672,10.671c5.891,0,10.664-4.765,10.664-10.671
		V292.553L150.1,266.656z"/>
	<path style="fill:#FECD57;" d="M342.087,296.224v162.417c0,5.906,4.781,10.671,10.688,10.671c5.875,0,10.655-4.765,10.655-10.671
		V266.656L342.087,296.224z"/>
	<path style="fill:#FECD57;" d="M246.096,320.646v181.338h0.039c0.344,5.577,4.961,9.999,10.633,9.999
		c5.664,0,10.28-4.422,10.633-9.999h0.031V320.646H246.096z"/>
</g>
<path style="fill:#FB6D51;" d="M256.769,426.642c-11.766,0-21.335-9.562-21.335-21.327s9.569-21.328,21.335-21.328
	c11.757,0,21.319,9.563,21.319,21.328S268.526,426.642,256.769,426.642z"/>
<path style="fill:#E8563F;" d="M256.769,373.316c-17.679,0-31.999,14.328-31.999,31.999s14.32,31.999,31.999,31.999
	c17.664,0,32.007-14.328,32.007-31.999S274.433,373.316,256.769,373.316z M256.769,415.986c-5.883,0-10.672-4.78-10.672-10.671
	c0-5.875,4.789-10.672,10.672-10.672c5.883,0,10.664,4.797,10.664,10.672C267.433,411.206,262.652,415.986,256.769,415.986z"/>
<path style="fill:#EC5564;" d="M255.995,10.664c-88.364,0-159.995,71.631-159.995,159.995s71.631,159.987,159.995,159.987
	c88.372,0,159.994-71.623,159.994-159.987S344.368,10.664,255.995,10.664z M354.055,268.71
	c-12.749,12.75-27.592,22.75-44.092,29.718c-17.077,7.219-35.249,10.891-53.967,10.891c-18.726,0-36.89-3.672-53.967-10.891
	c-16.508-6.968-31.343-16.968-44.085-29.718c-12.741-12.741-22.741-27.577-29.726-44.084c-7.219-17.077-10.882-35.241-10.882-53.967
	c0-18.727,3.663-36.882,10.882-53.967c6.984-16.508,16.984-31.343,29.726-44.085c12.742-12.741,27.577-22.741,44.085-29.726
	c17.077-7.219,35.241-10.882,53.967-10.882c18.718,0,36.89,3.663,53.967,10.882c16.5,6.984,31.343,16.984,44.092,29.726
	c12.734,12.742,22.734,27.577,29.719,44.085c7.218,17.085,10.874,35.24,10.874,53.967c0,18.726-3.656,36.89-10.874,53.967
	C376.789,241.133,366.789,255.969,354.055,268.71z"/>
<path style="fill:#FB6D51;" d="M256.769,234.657c-35.288,0-63.998-28.71-63.998-63.998s28.71-63.998,63.998-63.998
	s64.005,28.71,64.005,63.998S292.057,234.657,256.769,234.657z"/>
<path style="fill:#E8563F;" d="M256.769,95.998c-41.241,0-74.669,33.428-74.669,74.661s33.428,74.661,74.669,74.661
	c41.225,0,74.661-33.428,74.661-74.661S297.994,95.998,256.769,95.998z M256.769,223.993c-29.413,0-53.334-23.929-53.334-53.334
	s23.921-53.334,53.334-53.334s53.318,23.929,53.318,53.334S286.182,223.993,256.769,223.993z"/>
<path style="fill:#424953;" d="M267.433,170.659c0,5.891-4.774,10.664-10.664,10.664c-5.891,0-10.672-4.773-10.672-10.664
	s4.781-10.664,10.672-10.664C262.659,159.995,267.433,164.768,267.433,170.659z"/>
<g>
	<path style="fill:#EC5564;" d="M171.436,394.643H150.1c-5.89,0-10.663-4.766-10.663-10.656s4.773-10.671,10.663-10.671h21.336
		c5.891,0,10.664,4.78,10.664,10.671S177.327,394.643,171.436,394.643z"/>
	<path style="fill:#EC5564;" d="M363.43,394.643h-21.343c-5.875,0-10.656-4.766-10.656-10.656s4.781-10.671,10.656-10.671h21.343
		c5.891,0,10.655,4.78,10.655,10.671S369.32,394.643,363.43,394.643z"/>
	<path style="fill:#EC5564;" d="M267.433,490.64h-21.336c-5.89,0-10.663-4.766-10.663-10.656s4.773-10.672,10.663-10.672h21.336
		c5.891,0,10.655,4.781,10.655,10.672S273.324,490.64,267.433,490.64z"/>
</g>
</svg>