<?xml version="1.0" encoding="iso-8859-1"?>
<!-- Uploaded to: SVG Repo, www.svgrepo.com, Generator: SVG Repo Mixer Tools -->
<svg height="800px" width="800px" version="1.1" id="Layer_1" xmlns="http://www.w3.org/2000/svg" xmlns:xlink="http://www.w3.org/1999/xlink" 
	 viewBox="0 0 511.978 511.978" xml:space="preserve">
<g>
	<path style="fill:#F5BA45;" d="M405.545,442.768c-0.125,0-0.281,0-0.406,0c-12.124-0.047-44.624-3.343-85.06-32.78
		c-39.155-28.515-73.74-72.388-102.77-130.433c-2.642-5.266-0.5-11.688,4.765-14.313c5.266-2.64,11.68-0.5,14.313,4.766
		c27.49,54.968,59.88,96.247,96.254,122.73c35.404,25.78,62.545,28.655,72.576,28.703c15.203,0.046,27.202-4.157,35.639-12.563
		c7.703-7.688,12.125-18.859,12.125-30.655c0-6.859-2.672-13.312-7.531-18.171c-4.844-4.86-11.313-7.531-18.171-7.531
		c-10.172,0-18.438,8.265-18.438,18.436c0,3.36,1.313,6.531,3.704,8.922c2.375,2.376,5.531,3.688,8.906,3.688
		c4.39,0,7.968-3.563,7.968-7.953c0-5.891,4.781-10.672,10.656-10.672l0,0c5.905,0,10.671,4.781,10.671,10.672
		c0,16.14-13.141,29.279-29.295,29.279l0,0c-9.063,0-17.594-3.531-24.001-9.937c-6.405-6.406-9.936-14.938-9.936-24
		c0-21.936,17.843-39.764,39.764-39.764c12.562,0,24.374,4.891,33.265,13.766c8.875,8.891,13.78,20.703,13.78,33.265
		c0,17.437-6.718,34.124-18.421,45.764C443.558,436.285,426.153,442.768,405.545,442.768z"/>
	<path style="fill:#F5BA45;" d="M214.019,272.134l-31.998-2.094c-2.945-0.188-5.836,0.844-7.984,2.859
		c-2.156,2.016-3.375,4.844-3.375,7.781v55.436c0,3.25,1.164,6.063,3.703,8.077c1.125,1.11,14.694,15.016,28.796,59.155
		c1.43,4.484,5.586,7.422,10.155,7.422c0.548,0,1.094-0.032,1.648-0.126c5.195-0.812,9.023-5.281,9.023-10.531v-117.34
		C223.988,277.165,219.629,272.509,214.019,272.134z"/>
</g>
<path style="fill:#E5E8EC;" d="M91.593,171.512c-35.076,31.265-44.076,48.936-80.927,57.936c5.156,3.781,158.222,118.184,405.314,0
	C310.423,100.327,145.335,123.592,91.593,171.512z"/>
<path style="fill:#646C77;" d="M287.986,208.152c0,41.248-33.429,74.669-74.662,74.669c-41.232,0-74.661-33.421-74.661-74.669
	c0-41.233,33.429-74.654,74.661-74.654C254.557,133.498,287.986,166.919,287.986,208.152z"/>
<path style="fill:#424953;" d="M234.66,208.152c0,11.78-9.555,21.343-21.336,21.343c-11.78,0-21.335-9.563-21.335-21.343
	c0-11.781,9.555-21.327,21.335-21.327C225.105,186.825,234.66,196.371,234.66,208.152z"/>
<path style="fill:#5E9CEA;" d="M501.323,218.776h-85.342c-5.891,0-10.655,4.781-10.655,10.672s4.765,10.672,10.655,10.672h85.342
	c5.874,0,10.655-4.781,10.655-10.672S507.197,218.776,501.323,218.776z"/>
<path style="fill:#F5BA45;" d="M479.98,154.825c-1.438,0-2.876-0.28-4.281-0.891c-168.026-73.497-278.21-69.762-341.06-53.685
	c-66.482,17.016-94.091,50.296-94.356,50.623c-3.719,4.578-10.429,5.281-15.007,1.578c-4.578-3.718-5.273-10.437-1.563-15.015
	c1.289-1.578,32.397-39.108,105.637-57.842c42.304-10.828,90.208-13.203,142.386-7.047c64.623,7.625,136.136,28.437,212.524,61.842
	c5.391,2.359,7.844,8.641,5.5,14.046C488.01,152.434,484.09,154.825,479.98,154.825z"/>
<path style="fill:#5E9CEA;" d="M424.231,222.698c-71.076-86.95-161.026-99.919-208.313-99.919
	c-52.857,0-103.215,15.625-131.425,40.765c-8.883,7.922-16.094,14.953-22.46,21.171c-18.711,18.25-29.015,28.297-53.896,34.374
	c-4.032,0.984-7.125,4.203-7.93,8.281c-0.813,4.063,0.805,8.234,4.147,10.688l0.095,0.063c5.038,3.702,23.874,16.765,54.787,29.201
	c43.131,17.359,90.277,26.172,140.12,26.172c71.294,0,145.722-18.313,221.219-54.421c2.969-1.405,5.094-4.108,5.813-7.296
	C427.105,228.573,426.31,225.229,424.231,222.698z M199.356,272.149c-80.138,0-136.8-24.64-164.213-39.889
	c16.687-7.797,27.835-18.671,41.787-32.28c6.203-6.047,13.233-12.905,21.757-20.499c24.102-21.5,70.115-35.374,117.23-35.374
	c41.537,0,118.863,10.905,182.799,81.606C330.485,256.541,263.479,272.149,199.356,272.149z"/>
</svg>