<?xml version="1.0" encoding="iso-8859-1"?>
<!-- Uploaded to: SVG Repo, www.svgrepo.com, Generator: SVG Repo Mixer Tools -->
<svg version="1.1" id="Layer_1" xmlns="http://www.w3.org/2000/svg" xmlns:xlink="http://www.w3.org/1999/xlink" 
	 viewBox="0 0 511.982 511.982" xml:space="preserve">
<g>
	<path style="fill:#FFD2A6;" d="M95.993,501.326c-17.343,0-31.998-9.78-31.998-21.343V31.999c0-11.563,14.655-21.336,31.998-21.336
		c17.344,0,31.999,9.773,31.999,21.336v447.984C127.992,491.546,113.337,501.326,95.993,501.326z"/>
	<path style="fill:#FFD2A6;" d="M159.991,437.329c-17.343,0-31.999-9.781-31.999-21.344V31.999
		c0-11.563,14.656-21.336,31.999-21.336c17.344,0,31.999,9.773,31.999,21.336v383.986
		C191.99,427.548,177.335,437.329,159.991,437.329z"/>
	<path style="fill:#FFD2A6;" d="M223.989,373.331c-17.343,0-31.999-9.78-31.999-21.343V31.999c0-11.563,14.656-21.336,31.999-21.336
		c17.344,0,31.999,9.773,31.999,21.336v319.989C255.988,363.551,241.333,373.331,223.989,373.331z"/>
	<path style="fill:#FFD2A6;" d="M287.987,309.333c-17.343,0-31.999-9.781-31.999-21.343V31.999
		c0-11.563,14.656-21.336,31.999-21.336c17.344,0,31.999,9.773,31.999,21.336V287.99
		C319.986,299.552,305.331,309.333,287.987,309.333z"/>
	<path style="fill:#FFD2A6;" d="M351.984,266.655c-17.343,0-31.998-9.766-31.998-21.328V31.999
		c0-11.563,14.655-21.336,31.998-21.336c17.344,0,32,9.773,32,21.336v213.328C383.984,256.889,369.328,266.655,351.984,266.655z"/>
	<path style="fill:#FFD2A6;" d="M415.982,202.657c-17.343,0-31.998-9.766-31.998-21.328V31.999
		c0-11.563,14.655-21.336,31.998-21.336c17.344,0,31.999,9.773,31.999,21.336v149.33
		C447.981,192.891,433.326,202.657,415.982,202.657z"/>
</g>
<path style="fill:#F4BE8E;" d="M415.982,0c-12.75,0-24.187,4.194-31.998,10.843C376.171,4.195,364.734,0,351.984,0
	c-12.748,0-24.187,4.194-31.998,10.843C312.173,4.195,300.736,0,287.987,0c-12.75,0-24.187,4.194-31.999,10.843
	C248.176,4.195,236.74,0,223.99,0c-12.749,0-24.187,4.194-31.999,10.843C184.178,4.195,172.742,0,159.992,0
	c-12.749,0-24.187,4.194-31.999,10.843C120.18,4.195,108.744,0,95.994,0c-23.562,0-42.67,14.327-42.67,31.999v447.984
	c0,17.672,19.108,31.999,42.67,31.999s42.671-14.327,42.671-31.999v-36.279c6.266,2.718,13.546,4.281,21.327,4.281
	c23.562,0,42.671-14.329,42.671-32v-36.28c6.266,2.72,13.546,4.281,21.327,4.281c23.562,0,42.67-14.327,42.67-31.998v-36.281
	c6.267,2.719,13.547,4.282,21.328,4.282c23.562,0,42.67-14.328,42.67-31.999v-14.969c6.266,2.734,13.547,4.313,21.327,4.313
	c23.562,0,42.672-14.337,42.672-32.008v-36.295c6.265,2.727,13.545,4.297,21.326,4.297c23.563,0,42.671-14.328,42.671-32V31.999
	C458.653,14.327,439.545,0,415.982,0z M117.321,479.983c0,3.75-8.094,10.656-21.328,10.656c-13.233,0-21.327-6.906-21.327-10.656
	V31.999c0-3.758,8.094-10.664,21.327-10.664c13.234,0,21.328,6.906,21.328,10.664v383.986
	C117.321,415.985,117.321,479.983,117.321,479.983z M181.319,415.985c0,3.75-8.094,10.656-21.328,10.656
	c-13.233,0-21.327-6.906-21.327-10.656V31.999c0-3.758,8.094-10.664,21.327-10.664c13.234,0,21.328,6.906,21.328,10.664v319.989
	V415.985z M245.316,351.988c0,3.75-8.093,10.655-21.327,10.655s-21.327-6.905-21.327-10.655V31.999
	c0-3.758,8.093-10.664,21.327-10.664s21.327,6.906,21.327,10.664V287.99V351.988z M309.314,287.99
	c0,3.75-8.093,10.655-21.327,10.655s-21.328-6.905-21.328-10.655V31.999c0-3.758,8.094-10.664,21.328-10.664
	s21.327,6.906,21.327,10.664v213.328V287.99z M373.312,245.327c0,3.758-8.094,10.664-21.328,10.664
	c-13.233,0-21.327-6.906-21.327-10.664V31.999c0-3.758,8.094-10.664,21.327-10.664c13.234,0,21.328,6.906,21.328,10.664v149.33
	V245.327z M437.31,181.329c0,3.758-8.095,10.664-21.328,10.664s-21.326-6.906-21.326-10.664V31.999
	c0-3.758,8.093-10.664,21.326-10.664s21.328,6.906,21.328,10.664V181.329z"/>
<rect x="53.328" y="42.662" style="fill:#EC5564;" width="405.33" height="85.33"/>
<g>
	<path style="fill:#434A54;" d="M447.981,85.333c0,5.891-4.78,10.664-10.671,10.664s-10.656-4.773-10.656-10.664
		s4.766-10.672,10.656-10.672S447.981,79.442,447.981,85.333z"/>
	<path style="fill:#434A54;" d="M405.311,85.333c0,5.891-4.766,10.664-10.655,10.664c-5.891,0-10.672-4.773-10.672-10.664
		s4.781-10.672,10.672-10.672C400.546,74.661,405.311,79.442,405.311,85.333z"/>
	<path style="fill:#434A54;" d="M85.322,85.333c0,5.891-4.766,10.664-10.656,10.664s-10.671-4.773-10.671-10.664
		s4.78-10.672,10.671-10.672S85.322,79.442,85.322,85.333z"/>
	<path style="fill:#434A54;" d="M127.992,85.333c0,5.891-4.78,10.664-10.671,10.664s-10.656-4.773-10.656-10.664
		s4.766-10.672,10.656-10.672S127.992,79.442,127.992,85.333z"/>
	<path style="fill:#434A54;" d="M149.32,85.333c0,5.891-4.766,10.664-10.656,10.664s-10.672-4.773-10.672-10.664
		s4.781-10.672,10.672-10.672S149.32,79.442,149.32,85.333z"/>
	<path style="fill:#434A54;" d="M191.99,85.333c0,5.891-4.781,10.664-10.671,10.664c-5.891,0-10.656-4.773-10.656-10.664
		s4.766-10.672,10.656-10.672C187.209,74.661,191.99,79.442,191.99,85.333z"/>
	<path style="fill:#434A54;" d="M213.317,85.333c0,5.891-4.765,10.664-10.655,10.664s-10.672-4.773-10.672-10.664
		s4.781-10.672,10.672-10.672S213.317,79.442,213.317,85.333z"/>
	<path style="fill:#434A54;" d="M255.988,85.333c0,5.891-4.781,10.664-10.672,10.664c-5.89,0-10.655-4.773-10.655-10.664
		s4.766-10.672,10.655-10.672C251.207,74.661,255.988,79.442,255.988,85.333z"/>
	<path style="fill:#434A54;" d="M277.316,85.333c0,5.891-4.767,10.664-10.657,10.664s-10.671-4.774-10.671-10.664
		s4.78-10.672,10.671-10.672S277.316,79.442,277.316,85.333z"/>
	<path style="fill:#434A54;" d="M319.986,85.333c0,5.891-4.781,10.664-10.672,10.664s-10.655-4.773-10.655-10.664
		s4.765-10.672,10.655-10.672S319.986,79.442,319.986,85.333z"/>
	<path style="fill:#434A54;" d="M341.313,85.333c0,5.891-4.766,10.664-10.656,10.664s-10.671-4.773-10.671-10.664
		s4.78-10.672,10.671-10.672S341.313,79.442,341.313,85.333z"/>
	<path style="fill:#434A54;" d="M383.984,85.333c0,5.891-4.781,10.664-10.672,10.664s-10.656-4.773-10.656-10.664
		s4.766-10.672,10.656-10.672S383.984,79.442,383.984,85.333z"/>
</g>
<g>
	<rect x="53.328" y="42.662" style="fill:#D94452;" width="21.343" height="85.33"/>
	<rect x="117.318" y="42.662" style="fill:#D94452;" width="21.343" height="85.33"/>
	<rect x="181.318" y="42.662" style="fill:#D94452;" width="21.343" height="85.33"/>
	<rect x="245.318" y="42.662" style="fill:#D94452;" width="21.343" height="85.33"/>
	<rect x="309.318" y="42.662" style="fill:#D94452;" width="21.343" height="85.33"/>
	<rect x="373.308" y="42.662" style="fill:#D94452;" width="21.344" height="85.33"/>
	<rect x="437.308" y="42.662" style="fill:#D94452;" width="21.343" height="85.33"/>
</g>
</svg>