<?xml version="1.0" encoding="iso-8859-1"?>
<!-- Uploaded to: SVG Repo, www.svgrepo.com, Generator: SVG Repo Mixer Tools -->
<svg height="800px" width="800px" version="1.1" id="Layer_1" xmlns="http://www.w3.org/2000/svg" xmlns:xlink="http://www.w3.org/1999/xlink" 
	 viewBox="0 0 511.988 511.988" xml:space="preserve">
<path style="fill:#965353;" d="M315.557,136.09L12.497,439.157c-16.663,16.656-16.663,43.671,0,60.327
	c16.664,16.671,43.678,16.671,60.342,0L375.9,196.431L315.557,136.09z"/>
<path style="fill:#A85D5D;" d="M49.699,461.266c-4.164-4.172-4.164-10.921,0-15.094L202.241,293.63
	c4.164-4.155,10.921-4.155,15.085,0c4.164,4.172,4.164,10.922,0,15.094L64.784,461.266
	C60.613,465.438,53.863,465.438,49.699,461.266z"/>
<path style="fill:#965353;" d="M391.634,181.994c-16.844,16.843-44.14,16.843-60.983,0s-16.843-44.154,0-60.998
	c16.844-16.827,44.14-16.827,60.983,0C408.476,137.84,408.476,165.151,391.634,181.994z"/>
<path style="fill:#A85D5D;" d="M368.681,158.386c-4.156,4.172-10.905,4.172-15.093,0c-4.157-4.156-4.157-10.922,0-15.078
	c4.188-4.171,10.937-4.171,15.093,0C372.836,147.464,372.836,154.229,368.681,158.386z"/>
<g>
	<path style="fill:#965353;" d="M72.839,481.812c7.375,0,14.75-1.906,21.327-5.702V357.489l-21.327,21.327V481.812z"/>
	<polygon style="fill:#965353;" points="115.501,456.829 136.836,435.486 136.836,314.817 115.501,336.146 	"/>
	<polygon style="fill:#965353;" points="158.164,414.159 179.499,392.831 179.499,272.147 158.164,293.491 	"/>
</g>
<polygon style="fill:#A9B1BC;" points="89.619,181.01 240.466,30.171 496.895,286.6 346.057,437.455 "/>
<g>
	<polygon style="fill:#646C77;" points="300.808,392.19 330.964,452.532 511.988,271.522 451.646,241.351 	"/>
	<polygon style="fill:#646C77;" points="270.637,60.342 240.466,0 59.449,181.01 119.79,211.181 	"/>
</g>
<g>
	<path style="fill:#424953;" d="M225.381,75.42c-4.164,4.172-10.922,4.172-15.085,0c-4.164-4.156-4.164-10.906,0-15.078
		s10.921-4.172,15.085,0C229.544,64.498,229.544,71.264,225.381,75.42z"/>
	<path style="fill:#424953;" d="M180.124,120.683c-4.164,4.156-10.913,4.156-15.078,0c-4.171-4.172-4.171-10.921-0.007-15.094
		c4.172-4.155,10.921-4.155,15.085,0C184.296,109.763,184.296,116.512,180.124,120.683z"/>
	<path style="fill:#424953;" d="M134.876,165.932c-4.164,4.171-10.922,4.171-15.085,0c-4.164-4.172-4.164-10.922,0-15.094
		c4.164-4.156,10.921-4.156,15.085,0C139.039,155.011,139.039,161.761,134.876,165.932z"/>
	<path style="fill:#424953;" d="M451.646,301.693c-4.156,4.156-10.922,4.156-15.093,0c-4.157-4.172-4.157-10.922,0-15.093
		c4.171-4.156,10.937-4.156,15.093,0C455.803,290.771,455.803,297.521,451.646,301.693z"/>
	<path style="fill:#424953;" d="M406.398,346.941c-4.172,4.172-10.922,4.172-15.094,0c-4.156-4.155-4.156-10.921,0-15.076
		c4.172-4.173,10.922-4.173,15.094,0C410.555,336.02,410.555,342.786,406.398,346.941z"/>
	<path style="fill:#424953;" d="M361.15,392.19c-4.172,4.171-10.938,4.171-15.094,0c-4.156-4.155-4.156-10.905,0-15.077
		c4.155-4.172,10.922-4.172,15.094,0C365.305,381.285,365.305,388.035,361.15,392.19z"/>
</g>
<path style="fill:#E8563F;" d="M248.005,263.976c-10.07-10.063-15.617-23.469-15.617-37.702c0-14.25,5.547-27.64,15.617-37.718
	c10.078-10.078,23.469-15.624,37.71-15.624c14.249,0,27.64,5.546,37.718,15.624c10.063,10.078,15.624,23.468,15.624,37.718
	c0,14.233-5.562,27.64-15.624,37.702c-10.078,10.077-23.469,15.624-37.718,15.624C271.473,279.6,258.083,274.054,248.005,263.976z"
	/>
<g>
	<path style="fill:#FB6D51;" d="M330.964,181.01c-24.983-24.983-65.507-24.983-90.498,0c-24.992,24.999-24.992,65.514,0,90.513
		c24.991,24.999,65.514,24.999,90.498,0C355.962,246.523,355.962,206.009,330.964,181.01z M315.885,256.43
		c-8.045,8.062-18.765,12.499-30.17,12.499c-11.39,0-22.109-4.438-30.164-12.499c-8.062-8.047-12.499-18.766-12.499-30.155
		c0-11.406,4.438-22.109,12.499-30.172c8.055-8.062,18.774-12.499,30.164-12.499c11.405,0,22.125,4.438,30.17,12.499l0,0l0,0
		c8.063,8.063,12.5,18.766,12.5,30.172C328.385,237.664,323.947,248.383,315.885,256.43z"/>
	<polygon style="fill:#FB6D51;" points="259.769,185.244 274.855,170.15 339.619,234.914 324.525,250.008 	"/>
	<polygon style="fill:#FB6D51;" points="231.818,217.618 246.903,202.54 311.666,267.305 296.59,282.381 	"/>
</g>
</svg>