<?xml version="1.0" encoding="iso-8859-1"?>
<!-- Uploaded to: SVG Repo, www.svgrepo.com, Generator: SVG Repo Mixer Tools -->
<svg version="1.1" id="Layer_1" xmlns="http://www.w3.org/2000/svg" xmlns:xlink="http://www.w3.org/1999/xlink" 
	 viewBox="0 0 511.982 511.982" xml:space="preserve">
<path style="fill:#EC5564;" d="M255.991,240.117c-115.496,0-212.993-76.498-244.992-181.494C3.75,82.372,0,107.371,0,133.37
	c0,141.495,114.496,255.991,255.991,255.991c141.37,0,255.991-114.496,255.991-255.991c0-25.999-4-50.998-11.124-74.747
	C468.859,163.619,371.362,240.117,255.991,240.117z"/>
<g>
	<path style="fill:#D94452;" d="M69.747,160.119c5,5.25,10.125,10.25,15.5,15c-11.25,15.249-35.874,43.748-67.873,51.998
		c-2.625-6.75-5-13.5-7-20.249C38.248,200.618,60.998,172.369,69.747,160.119z"/>
	<path style="fill:#D94452;" d="M49.998,285.865c-4.25-5.75-8.25-11.75-12-17.75c25.5-15.249,42.749-35.498,53.124-50.248
		c7.374-10.499,12.249-19.999,14.999-25.999c5.875,4.25,11.874,8.25,18.124,12C115.121,222.367,92.746,259.865,49.998,285.865z"/>
	<path style="fill:#D94452;" d="M441.859,160.119c-5,5.25-10.124,10.25-15.5,15c11.25,15.249,35.875,43.748,67.874,51.998
		c2.625-6.75,4.875-13.5,6.999-20.249C473.359,200.618,450.609,172.369,441.859,160.119z"/>
	<path style="fill:#D94452;" d="M461.609,285.865c4.25-5.75,8.25-11.75,12-17.75c-25.625-15.249-42.874-35.498-53.124-50.248
		c-7.5-10.499-12.374-19.999-15.124-25.999c-5.75,4.25-11.875,8.25-18,12C396.361,222.367,418.735,259.865,461.609,285.865z"/>
</g>
<path style="fill:#A9B1BC;" d="M266.615,197.368c0,6-4.749,10.75-10.624,10.75c-6,0-10.75-4.75-10.75-10.75
	c0-5.75,4.75-10.75,10.75-10.75C261.866,186.618,266.615,191.618,266.615,197.368z"/>
<path style="fill:#CBD0D8;" d="M255.616,197.368c-105.996,0-191.993,85.997-191.993,191.993v63.998h383.986v-63.998
	C447.609,283.365,361.613,197.368,255.616,197.368z"/>
<rect x="63.621" y="410.611" style="fill:#A9B1BC;" width="383.99" height="21.5"/>
<g>
	<path style="fill:#646C77;" d="M138.245,442.61c0,5.999-4.75,10.749-10.625,10.749s-10.624-4.75-10.624-10.749
		c0-5.75,4.749-10.5,10.624-10.5S138.245,436.86,138.245,442.61z"/>
	<path style="fill:#646C77;" d="M223.617,442.61c0,5.999-4.75,10.749-10.624,10.749c-5.875,0-10.75-4.75-10.75-10.749
		c0-5.75,4.875-10.5,10.75-10.5C218.867,432.11,223.617,436.86,223.617,442.61z"/>
	<path style="fill:#646C77;" d="M308.989,442.61c0,5.999-4.75,10.749-10.75,10.749c-5.875,0-10.625-4.75-10.625-10.749
		c0-5.75,4.75-10.5,10.625-10.5C304.239,432.11,308.989,436.86,308.989,442.61z"/>
	<path style="fill:#646C77;" d="M394.236,442.61c0,5.999-4.75,10.749-10.625,10.749c-5.874,0-10.624-4.75-10.624-10.749
		c0-5.75,4.75-10.5,10.624-10.5C389.486,432.11,394.236,436.86,394.236,442.61z"/>
</g>
<g style="opacity:0.2;">
	<path style="fill:#FFFFFF;" d="M255.616,197.368c-3.625,0-7.125,0.25-10.625,0.25c100.997,5.5,181.244,89.247,181.244,191.743
		v63.998h21.374v-63.998C447.609,283.365,361.613,197.368,255.616,197.368z"/>
</g>
<g style="opacity:0.1;">
	<path d="M256.241,197.368c3.499,0,7.125,0.25,10.624,0.25c-100.996,5.5-181.243,89.247-181.243,191.743v63.998H64.248v-63.998
		C64.248,283.365,150.245,197.368,256.241,197.368z"/>
</g>
</svg>