<?xml version="1.0" encoding="iso-8859-1"?>
<!-- Uploaded to: SVG Repo, www.svgrepo.com, Generator: SVG Repo Mixer Tools -->
<svg height="800px" width="800px" version="1.1" id="Layer_1" xmlns="http://www.w3.org/2000/svg" xmlns:xlink="http://www.w3.org/1999/xlink" 
	 viewBox="0 0 511.982 511.982" xml:space="preserve">
<g>
	<path style="fill:#E8563F;" d="M64.108,309.82c-0.234-1.688-5.672-42.014,3.844-87.139c12.968-61.466,47.482-101.793,99.81-116.59
		c55.811-15.78,109.23-1.187,154.479,42.202c33.451,32.062,50.467,68.264,51.17,69.795l-19.344,8.983
		c-0.156-0.343-16.312-34.529-47.029-63.81c-39.937-38.062-84.856-50.39-133.465-36.64c-44.701,12.64-73.169,46.264-84.638,99.919
		c-8.874,41.546-3.75,79.966-3.703,80.356L64.108,309.82z"/>
	<path style="fill:#E8563F;" d="M74.671,329.679c-11.766,0-21.344-9.562-21.344-21.327s9.578-21.328,21.344-21.328
		c11.765,0,21.327,9.563,21.327,21.328S86.435,329.679,74.671,329.679z"/>
	<path style="fill:#E8563F;" d="M362.661,244.353c-11.765,0-21.343-9.563-21.343-21.327c0-11.766,9.578-21.344,21.343-21.344
		c11.766,0,21.328,9.578,21.328,21.344C383.989,234.791,374.427,244.353,362.661,244.353z"/>
</g>
<g>
	<path style="fill:#F5BA45;" d="M74.671,276.352c-17.672,0-31.999,14.328-31.999,31.999c0,17.672,14.327,31.999,31.999,31.999
		c17.671,0,31.999-14.327,31.999-31.999C106.67,290.68,92.342,276.352,74.671,276.352z M74.671,319.023
		c-5.891,0-10.672-4.797-10.672-10.672s4.781-10.672,10.672-10.672c5.874,0,10.655,4.797,10.655,10.672
		S80.545,319.023,74.671,319.023z"/>
	<path style="fill:#F5BA45;" d="M362.661,191.027c-17.671,0-31.999,14.327-31.999,31.999c0,17.671,14.328,31.998,31.999,31.998
		s32-14.327,32-31.998C394.661,205.354,380.332,191.027,362.661,191.027z M362.661,233.681c-5.89,0-10.672-4.781-10.672-10.655
		c0-5.891,4.782-10.672,10.672-10.672c5.875,0,10.656,4.781,10.656,10.672C373.317,228.9,368.536,233.681,362.661,233.681z"/>
</g>
<path style="fill:#FECD57;" d="M405.316,180.355C218.541,373.287,31.094,290.773,15.782,283.555c-0.313-0.188-0.656-0.344-1-0.484
	l-0.016-0.016l0,0c-1.25-0.516-2.641-0.813-4.094-0.813C4.781,282.242,0,287.008,0,292.897c0,4.375,2.641,8.141,6.406,9.781l0,0
	c281.772,248.336,501.484-3.827,501.484-3.827L405.316,180.355z"/>
<g>
	<path style="fill:#F5BA45;" d="M204.728,407.052c7.328,1.343,14.563,2.406,21.703,3.187c8.671-23.077,9.874-49.825,3.374-78.34
		c-3.453-15.141-8.343-27.655-11.874-35.577c-7.203,1.905-14.297,3.531-21.249,4.891
		C203.228,314.788,223.806,363.693,204.728,407.052z"/>
	<path style="fill:#F5BA45;" d="M129.794,307.179c6.641,13.203,21.968,49.779,5.5,78.935c6.749,2.844,13.437,5.423,20.062,7.75
		c9.374-18.327,11.219-40.421,5.25-64.732c-2.109-8.594-4.891-16.265-7.516-22.437C145.074,307.148,137.294,307.288,129.794,307.179
		z"/>
</g>
<g>
	<path style="fill:#D94452;" d="M330.412,361.678c0,5.891-4.766,10.671-10.656,10.671s-10.671-4.78-10.671-10.671
		s4.781-10.655,10.671-10.655C325.646,351.022,330.412,355.787,330.412,361.678z"/>
	<path style="fill:#D94452;" d="M330.412,297.679c0,5.891-4.766,10.672-10.656,10.672s-10.671-4.781-10.671-10.672
		c0-5.89,4.781-10.656,10.671-10.656C325.646,287.023,330.412,291.79,330.412,297.679z"/>
	<path style="fill:#D94452;" d="M349.927,344.772c4.157,4.156,4.157,10.921,0,15.077c-4.171,4.173-10.921,4.173-15.093,0
		c-4.156-4.156-4.156-10.921,0-15.077C339.006,340.6,345.756,340.6,349.927,344.772z"/>
	<path style="fill:#D94452;" d="M304.663,299.523c4.172,4.156,4.172,10.905,0,15.078c-4.156,4.172-10.906,4.172-15.077,0
		c-4.172-4.173-4.172-10.922,0-15.078C293.757,295.352,300.507,295.352,304.663,299.523z"/>
	<path style="fill:#D94452;" d="M351.756,319.023c5.891,0,10.671,4.765,10.671,10.655s-4.78,10.672-10.671,10.672
		s-10.672-4.781-10.672-10.672S345.865,319.023,351.756,319.023z"/>
	<path style="fill:#D94452;" d="M287.757,319.023c5.891,0,10.672,4.765,10.672,10.655s-4.781,10.672-10.672,10.672
		s-10.671-4.781-10.671-10.672S281.866,319.023,287.757,319.023z"/>
	<path style="fill:#D94452;" d="M334.834,299.508c4.172-4.155,10.922-4.155,15.093,0c4.157,4.172,4.157,10.921,0,15.094
		c-4.171,4.172-10.921,4.156-15.093,0C330.678,310.429,330.678,303.679,334.834,299.508z"/>
	<path style="fill:#D94452;" d="M289.586,344.772c4.171-4.172,10.921-4.172,15.077,0c4.172,4.156,4.172,10.921,0,15.077
		c-4.156,4.173-10.906,4.173-15.077,0C285.414,355.693,285.414,348.929,289.586,344.772z"/>
</g>
<g>
	<path style="fill:#E8563F;" d="M421.268,238.572c0,5.891-4.781,10.672-10.672,10.672s-10.671-4.781-10.671-10.672
		s4.78-10.655,10.671-10.655S421.268,232.681,421.268,238.572z"/>
	<path style="fill:#E8563F;" d="M443.736,265.68c0,5.891-4.78,10.672-10.671,10.672s-10.656-4.781-10.656-10.672
		s4.766-10.656,10.656-10.656S443.736,259.79,443.736,265.68z"/>
	<path style="fill:#E8563F;" d="M465.064,292.79c0,5.89-4.766,10.671-10.656,10.671s-10.672-4.781-10.672-10.671
		c0-5.891,4.781-10.657,10.672-10.657S465.064,286.899,465.064,292.79z"/>
</g>
<path style="fill:#F5BA45;" d="M353.756,226.979l99.809,119.104c6.172-4.405,11.875-8.733,17.063-12.874L370.255,213.464
	C364.739,218.182,359.239,222.698,353.756,226.979z"/>
<path style="fill:#EC5564;" d="M319.756,297.679c-17.67,0-31.999,14.328-31.999,31.999c0,17.672,14.329,31.999,31.999,31.999
	c17.672,0,32-14.327,32-31.999C351.756,312.008,337.428,297.679,319.756,297.679z M319.756,340.35
	c-5.89,0-10.671-4.781-10.671-10.672c0-5.875,4.781-10.655,10.671-10.655c5.875,0,10.656,4.78,10.656,10.655
	C330.412,335.569,325.631,340.35,319.756,340.35z"/>
<g style="opacity:0.1;">
	<path d="M6.407,302.679L6.407,302.679c281.772,248.336,501.484-3.827,501.484-3.827l-9.72-11.25
		C240.571,532.282,2.641,301.039,6.407,302.679z"/>
</g>
<path style="fill:#F5BA45;" d="M501.329,316.476c-2.969,0-5.922-1.234-8.031-3.641L390.02,195.183
	c-3.876-4.422-3.438-11.156,0.983-15.047s11.172-3.453,15.047,0.984l103.277,117.652c3.891,4.422,3.453,11.155-0.968,15.046
	C506.328,315.601,503.829,316.476,501.329,316.476z"/>
</svg>