<?xml version="1.0" encoding="iso-8859-1"?>
<!-- Uploaded to: SVG Repo, www.svgrepo.com, Generator: SVG Repo Mixer Tools -->
<svg height="800px" width="800px" version="1.1" id="Layer_1" xmlns="http://www.w3.org/2000/svg" xmlns:xlink="http://www.w3.org/1999/xlink" 
	 viewBox="0 0 511.982 511.982" xml:space="preserve">
<polygon style="fill:#E5E8EC;" points="499.795,255.99 461.797,170.54 385.799,96.479 305.13,68.527 230.469,64.73 168.47,84.699 
	101.808,110.698 66.473,149.814 21.139,245.334 10.475,301.363 13.811,450.671 503.123,450.671 "/>
<path style="fill:#CBD0D8;" d="M255.991,53.341C114.613,53.341,0,167.946,0,309.332v149.308h511.982V309.332
	C511.982,167.946,397.361,53.341,255.991,53.341z M25.202,266.662h17.46v42.67H21.335C21.335,294.879,22.639,280.629,25.202,266.662
	z M46.904,202.664h49.092v42.67H30.155c2.625-9.265,5.828-18.39,9.608-27.343C41.967,212.788,44.349,207.679,46.904,202.664z
	 M319.989,138.666v42.67H191.993v-42.67H319.989z M303.645,309.332v-42.67h144.339v42.67L303.645,309.332L303.645,309.332z
	 M116.519,373.33v-42.671h277.326v42.671H116.519z M208.352,266.662v42.67H63.998v-42.67H208.352z M282.334,266.662v42.67H229.68
	v-42.67H282.334z M265.849,245.334v-42.67h128.793v42.67H265.849z M244.515,202.664v42.67H117.332v-42.67H244.515z M95.183,330.659
	v42.671H21.335v-42.671H95.183z M447.984,394.641v42.687H63.998v-42.687H447.984z M415.174,373.33v-42.671h75.466v42.671H415.174z
	 M469.327,309.332v-42.67h17.452c2.563,13.967,3.86,28.217,3.86,42.67L469.327,309.332L469.327,309.332z M481.827,245.334h-65.842
	v-42.67h49.093c2.563,5.016,4.937,10.124,7.14,15.327C476,226.944,479.203,236.069,481.827,245.334z M452.703,181.336H341.332
	v-42.67h75.716c1.626,1.555,3.267,3.125,4.876,4.734C433.563,155.048,443.844,167.727,452.703,181.336z M390.97,117.339H265.849
	V74.886c28.203,1.156,55.577,7.258,81.482,18.219C362.784,99.643,377.361,107.753,390.97,117.339z M244.515,74.949v42.39H121.011
	c13.602-9.586,28.188-17.695,43.647-24.233C190.071,82.355,216.883,76.269,244.515,74.949z M90.059,143.4
	c1.608-1.609,3.241-3.18,4.882-4.734h75.717v42.67H59.271C68.137,167.727,78.419,155.048,90.059,143.4z M21.335,394.641h21.327
	v42.687H21.335V394.641z M469.327,437.328v-42.687h21.313v42.687H469.327z"/>
<g>
	<path style="fill:#5E9CEA;" d="M255.991,245.334c-58.912,0-106.661,47.748-106.661,106.653v106.652h213.314V351.987
		C362.644,293.082,314.895,245.334,255.991,245.334z"/>
	<path style="fill:#5E9CEA;" d="M159.994,458.639V351.987c0-52.92,43.062-95.997,95.997-95.997s95.996,43.077,95.996,95.997v106.652
		L159.994,458.639L159.994,458.639z"/>
</g>
<path style="fill:#434A54;" d="M223.992,362.642c0,5.907-4.773,10.688-10.664,10.688c-5.89,0-10.671-4.78-10.671-10.688
	c0-5.874,4.781-10.655,10.671-10.655C219.219,351.987,223.992,356.768,223.992,362.642z"/>
<path style="fill:#4B89DA;" d="M170.658,458.639V351.987c0-22.781,8.875-44.218,24.999-60.327
	c16.108-16.124,37.538-24.998,60.334-24.998s44.217,8.874,60.342,24.998c16.125,16.109,24.999,37.546,24.999,60.327v106.652h21.313
	V351.987c0-58.905-47.749-106.653-106.653-106.653c-58.912,0-106.661,47.748-106.661,106.653v106.652L170.658,458.639
	L170.658,458.639z"/>
</svg>