<?xml version="1.0" encoding="iso-8859-1"?>
<!-- Uploaded to: SVG Repo, www.svgrepo.com, Generator: SVG Repo Mixer Tools -->
<svg version="1.1" id="Layer_1" xmlns="http://www.w3.org/2000/svg" xmlns:xlink="http://www.w3.org/1999/xlink" 
	 viewBox="0 0 511.982 511.982" xml:space="preserve">
<rect x="106.651" y="190.641" style="fill:#7F4545;" width="212.2" height="21.328"/>
<path style="fill:#965353;" d="M117.324,222.637c-5.891,0-10.672-4.773-10.672-10.671v-21.328c0-5.89,4.781-10.672,10.672-10.672
	c5.891,0,10.671,4.782,10.671,10.672v21.328C127.995,217.863,123.215,222.637,117.324,222.637z"/>
<rect x="214.461" y="126.641" style="fill:#7F4545;" width="212.18" height="21.327"/>
<path style="fill:#FFD2A6;" d="M490.639,233.3c-100.84,46.881-234.648,42.663-234.648,42.663S122.182,280.182,21.327,233.3
	C19.811,232.589,0,265.963,0,318.633s50.998,83.169,63.998,85.325c12.983,2.173,191.993,2.72,191.993,2.72
	s178.994-0.547,191.993-2.719c12.984-2.156,63.998-32.655,63.998-85.325C511.982,265.963,492.17,232.589,490.639,233.3z"/>
<g>
	<path style="fill:#965353;" d="M85.325,404.99c6.188,0.155,13.421,0.313,21.327,0.438v-144.3
		c-7.063-1.555-14.187-3.266-21.327-5.157V404.99z"/>
	<path style="fill:#965353;" d="M405.314,405.428c7.921-0.125,15.141-0.282,21.327-0.438V255.971
		c-7.125,1.891-14.249,3.602-21.327,5.157V405.428z"/>
</g>
<g>
	<path style="fill:#D94452;" d="M266.647,307.962c0,5.906-4.767,10.672-10.656,10.672c-5.891,0-10.672-4.766-10.672-10.672
		c0-5.891,4.781-10.656,10.672-10.656C261.881,297.305,266.647,302.071,266.647,307.962z"/>
	<path style="fill:#D94452;" d="M266.647,371.959c0,5.907-4.767,10.672-10.656,10.672c-5.891,0-10.672-4.765-10.672-10.672
		c0-5.89,4.781-10.654,10.672-10.654C261.881,361.304,266.647,366.069,266.647,371.959z"/>
	<path style="fill:#D94452;" d="M240.898,309.805c4.171,4.156,4.171,10.905,0,15.077c-4.156,4.172-10.922,4.172-15.078,0
		c-4.172-4.172-4.172-10.921,0-15.077C229.976,305.634,236.742,305.618,240.898,309.805z"/>
	<path style="fill:#D94452;" d="M286.162,355.054c4.156,4.155,4.156,10.904,0,15.077c-4.172,4.172-10.922,4.172-15.093,0
		c-4.157-4.173-4.157-10.922,0-15.077C275.24,350.883,281.99,350.883,286.162,355.054z"/>
	<path style="fill:#D94452;" d="M223.992,329.304c5.891,0,10.656,4.766,10.656,10.656c0,5.905-4.766,10.672-10.656,10.672
		s-10.672-4.767-10.672-10.672C213.32,334.07,218.101,329.304,223.992,329.304z"/>
	<path style="fill:#D94452;" d="M287.99,329.304c5.89,0,10.655,4.766,10.655,10.656c0,5.905-4.766,10.672-10.655,10.672
		c-5.891,0-10.671-4.767-10.671-10.672C277.319,334.07,282.099,329.304,287.99,329.304z"/>
	<path style="fill:#D94452;" d="M225.82,355.054c4.156-4.172,10.922-4.172,15.078,0c4.171,4.155,4.171,10.904,0,15.077
		c-4.156,4.172-10.922,4.172-15.078,0C221.648,365.959,221.648,359.21,225.82,355.054z"/>
	<path style="fill:#D94452;" d="M271.069,309.805c4.171-4.172,10.921-4.188,15.093,0c4.156,4.156,4.156,10.905,0,15.077
		c-4.172,4.172-10.922,4.172-15.093,0C266.912,320.711,266.912,313.962,271.069,309.805z"/>
	<path style="fill:#D94452;" d="M255.991,361.304c-11.766,0-21.343-9.579-21.343-21.344c0-11.75,9.577-21.327,21.343-21.327
		c11.766,0,21.328,9.577,21.328,21.327C277.319,351.725,267.757,361.304,255.991,361.304z"/>
</g>
<path style="fill:#EC5564;" d="M255.991,307.962c-17.671,0-31.999,14.327-31.999,31.999c0,17.687,14.328,31.998,31.999,31.998
	s31.999-14.312,31.999-31.998C287.99,322.289,273.662,307.962,255.991,307.962z M255.991,350.633
	c-5.891,0-10.672-4.798-10.672-10.672c0-5.875,4.781-10.656,10.672-10.656c5.875,0,10.656,4.781,10.656,10.656
	C266.647,345.835,261.866,350.633,255.991,350.633z"/>
<g>
	<path style="fill:#965353;" d="M383.987,169.303c35.343,0,42.654,26.187,42.654,31.999c0,5.813-7.312,31.999-42.654,31.999
		s-85.342-14.328-85.342-31.999C298.645,183.63,348.644,169.303,383.987,169.303z"/>
	<path style="fill:#965353;" d="M149.323,169.303c-35.343,0-42.671-26.187-42.671-32c0-5.812,7.328-31.999,42.671-31.999
		s85.325,14.328,85.325,31.999C234.648,154.975,184.666,169.303,149.323,169.303z"/>
	<path style="fill:#965353;" d="M415.985,158.638c-5.891,0-10.671-4.773-10.671-10.671V126.64c0-5.891,4.78-10.672,10.671-10.672
		s10.656,4.781,10.656,10.672v21.327C426.641,153.865,421.876,158.638,415.985,158.638z"/>
</g>
<g style="opacity:0.1;">
	<path d="M447.984,382.631c-12.999,2.172-191.993,2.718-191.993,2.718s-179.01-0.547-191.993-2.719
		c-12.313-2.047-58.718-29.529-63.576-77.185C0.141,309.695,0,314.086,0,318.633c0,52.67,50.998,83.169,63.998,85.325
		c12.983,2.173,191.993,2.72,191.993,2.72s178.994-0.547,191.993-2.719c12.984-2.156,63.998-32.655,63.998-85.325
		c0-4.547-0.156-8.938-0.422-13.188C506.701,353.101,460.281,380.584,447.984,382.631z"/>
</g>
</svg>