<?xml version="1.0" encoding="iso-8859-1"?>
<!-- Uploaded to: SVG Repo, www.svgrepo.com, Generator: SVG Repo Mixer Tools -->
<svg height="800px" width="800px" version="1.1" id="Layer_1" xmlns="http://www.w3.org/2000/svg" xmlns:xlink="http://www.w3.org/1999/xlink" 
	 viewBox="0 0 511.982 511.982" xml:space="preserve">
<path style="fill:#4FC0E8;" d="M318.819,48.74c-19.733-15.203-38.39-29.562-55.483-45.804c-0.015-0.015-0.015-0.015-0.03-0.03
	c-0.892-0.845-1.938-1.539-3.109-2.039c-3.922-1.688-8.469-0.867-11.563,2.069c-17.094,16.242-35.733,30.601-55.482,45.804
	C102.029,118.879-1.249,198.376,10.673,501.733c0.172,4.265,2.859,8.015,6.844,9.546c1.25,0.469,2.53,0.703,3.813,0.703
	c2.828,0,5.608-1.125,7.655-3.25c32.796-33.827,97.356-43.732,97.997-43.812c0.984-0.109,1.953,2.329,2.859,1.954l126.151-50.921
	l126.138,50.921c0.921,0.375,1.891-2.063,2.859-1.954c0.655,0.079,65.201,9.984,97.997,43.812c2.045,2.125,4.827,3.25,7.671,3.25
	c1.265,0,2.563-0.234,3.796-0.703c3.985-1.531,6.688-5.281,6.859-9.546C513.219,198.376,409.941,118.879,318.819,48.74z"/>
<g>
	<path style="fill:#CBD0D8;" d="M159.996,469.311c0,5.891-4.781,10.672-10.672,10.672s-10.672-4.781-10.672-10.672
		s4.781-10.655,10.672-10.655S159.996,463.421,159.996,469.311z"/>
	<path style="fill:#CBD0D8;" d="M202.65,469.311c0,5.891-4.766,10.672-10.655,10.672c-5.891,0-10.672-4.781-10.672-10.672
		s4.781-10.655,10.672-10.655C197.885,458.656,202.65,463.421,202.65,469.311z"/>
	<path style="fill:#CBD0D8;" d="M245.321,469.311c0,5.891-4.781,10.672-10.672,10.672c-5.89,0-10.655-4.781-10.655-10.672
		s4.766-10.655,10.655-10.655C240.54,458.656,245.321,463.421,245.321,469.311z"/>
	<path style="fill:#CBD0D8;" d="M287.992,469.311c0,5.891-4.781,10.672-10.671,10.672c-5.891,0-10.672-4.781-10.672-10.672
		s4.781-10.655,10.672-10.655C283.211,458.656,287.992,463.421,287.992,469.311z"/>
	<path style="fill:#CBD0D8;" d="M330.646,469.311c0,5.891-4.766,10.672-10.655,10.672c-5.891,0-10.672-4.781-10.672-10.672
		s4.781-10.655,10.672-10.655C325.881,458.656,330.646,463.421,330.646,469.311z"/>
	<path style="fill:#CBD0D8;" d="M373.317,469.311c0,5.891-4.781,10.672-10.671,10.672c-5.891,0-10.657-4.781-10.657-10.672
		s4.767-10.655,10.657-10.655S373.317,463.421,373.317,469.311z"/>
</g>
<path style="fill:#3BAED9;" d="M266.649,6.047c-1.109-1.032-2.219-2.07-3.313-3.11c-0.015-0.015-0.015-0.015-0.03-0.03
	c-0.892-0.845-1.938-1.539-3.109-2.039c-3.922-1.688-8.469-0.867-11.563,2.069c-1.094,1.04-2.203,2.078-3.313,3.11v328.191h21.328
	V6.047z"/>
<path style="fill:#EC5564;" d="M255.992,263.054c-11.03-10.563-31.998-34.14-31.998-60.396s20.968-49.826,31.998-60.396
	c11.017,10.562,32,34.132,32,60.396C287.992,228.914,267.009,252.491,255.992,263.054z"/>
<path style="fill:#D94452;" d="M255.992,127.995c0,0-42.67,33.429-42.67,74.662c0,41.24,42.67,74.661,42.67,74.661
	s42.655-33.421,42.655-74.661C298.647,161.424,255.992,127.995,255.992,127.995z M261.133,241.522
	c-1.718,2.22-3.468,4.297-5.141,6.188c-1.688-1.891-3.421-3.968-5.155-6.188c-7.375-9.499-16.188-23.968-16.188-38.865
	c0-14.906,8.813-29.358,16.188-38.866c1.734-2.219,3.468-4.289,5.155-6.18c1.673,1.891,3.423,3.961,5.141,6.18
	c7.391,9.508,16.188,23.96,16.188,38.866C277.321,217.554,268.523,232.023,261.133,241.522z"/>
<path style="fill:#E5E8EC;" d="M255.992,319.552c-82.716,0-149.775,67.044-149.775,149.76h299.537
	C405.754,386.595,338.709,319.552,255.992,319.552z"/>
</svg>