<?xml version="1.0" encoding="iso-8859-1"?>
<!-- Uploaded to: SVG Repo, www.svgrepo.com, Generator: SVG Repo Mixer Tools -->
<svg version="1.1" id="Layer_1" xmlns="http://www.w3.org/2000/svg" xmlns:xlink="http://www.w3.org/1999/xlink" 
	 viewBox="0 0 511.982 511.982" xml:space="preserve">
<rect x="202.652" y="10.655" style="fill:#FECD57;" width="106.68" height="85.34"/>
<g>
	<path style="fill:#F5BA45;" d="M309.33,0H202.654c-5.891,0-10.672,4.765-10.672,10.655v85.342c0,5.874,4.781,10.655,10.672,10.655
		H309.33c5.875,0,10.656-4.781,10.656-10.655V10.655C319.986,4.764,315.205,0,309.33,0z M298.642,85.325h-85.317V21.327h85.317
		V85.325z"/>
	<rect x="245.322" y="5.984" style="fill:#F5BA45;" width="21.327" height="43.998"/>
</g>
<path style="fill:#46CEAD;" d="M255.98,511.982c-5.891,0-10.656-4.781-10.656-10.672v-62.325c0-5.906,4.766-10.672,10.656-10.672
	c5.905,0,10.671,4.766,10.671,10.672v62.325C266.651,507.201,261.886,511.982,255.98,511.982z"/>
<g>
	<path style="fill:#FECD57;" d="M287.987,490.639c-5.906,0-10.656-4.766-10.656-10.656v-45.67c0-5.891,4.75-10.672,10.656-10.672
		c5.905,0,10.655,4.781,10.655,10.672v45.67C298.642,485.874,293.892,490.639,287.987,490.639z"/>
	<path style="fill:#FECD57;" d="M223.981,490.639c-5.891,0-10.656-4.766-10.656-10.656v-45.67c0-5.891,4.766-10.672,10.656-10.672
		c5.906,0,10.672,4.781,10.672,10.672v45.67C234.653,485.874,229.888,490.639,223.981,490.639z"/>
</g>
<path style="fill:#EC5564;" d="M170.655,437.313c-8.609,0-16.953-3.407-23.499-9.593c-6.531-6.188-10.406-14.345-10.875-22.938
	l-16.608-298.786c-1.016-18.312,13.155-37.562,30.967-41.999l2.548-0.641c21.749-5.437,59.045-10.03,81.466-10.03h42.678
	c22.405,0,59.717,4.594,81.466,10.03l2.531,0.641c17.813,4.438,31.999,23.688,30.968,41.999l-16.593,298.786
	c-0.469,8.594-4.344,16.75-10.875,22.938c-6.563,6.186-14.906,9.593-23.499,9.593H170.655z"/>
<g>
	<rect x="137.532" y="362.641" style="fill:#D94452;" width="229.76" height="21.343"/>
	<rect x="127.892" y="277.321" style="fill:#D94452;" width="249.06" height="21.327"/>
	<rect x="127.892" y="191.991" style="fill:#D94452;" width="263.31" height="21.327"/>
	<rect x="120.762" y="106.651" style="fill:#D94452;" width="263.31" height="21.343"/>
</g>
<path style="fill:#FECD57;" d="M351.984,245.319c0,53.014-42.968,95.997-96.004,95.997c-53.014,0-95.997-42.983-95.997-95.997
	s42.983-95.996,95.997-95.996C309.016,149.323,351.984,192.305,351.984,245.319z"/>
<path style="fill:#46CEAD;" d="M309.33,245.319c0,29.452-23.874,53.326-53.35,53.326c-29.452,0-53.326-23.874-53.326-53.326
	s23.874-53.326,53.326-53.326C285.456,191.993,309.33,215.867,309.33,245.319z"/>
<path style="fill:#424953;" d="M266.651,245.319c0,5.891-4.78,10.672-10.671,10.672s-10.656-4.781-10.656-10.672
	c0-5.89,4.766-10.671,10.656-10.671S266.651,239.429,266.651,245.319z"/>
<path style="fill:#D94452;" d="M363.922,53.638l-2.53-0.641c-22.781-5.688-60.592-10.344-84.061-10.344h-42.678
	c-23.468,0-61.295,4.656-84.061,10.344l-2.546,0.641c-22.766,5.703-40.327,29.515-39.015,52.951l16.593,298.787
	c1.298,23.437,21.563,42.608,45.03,42.608h170.674c23.467,0,43.717-19.172,45.029-42.608l16.593-298.787
	C404.264,83.153,386.702,59.342,363.922,53.638z M381.64,105.402l-16.595,298.787c-0.687,12.171-11.529,22.452-23.717,22.452
	H170.655c-12.188,0-23.062-10.281-23.733-22.452l-16.594-298.787c-0.359-6.297,1.969-13.328,6.359-19.28
	c4.391-5.953,10.422-10.25,16.53-11.781l2.547-0.641c21.063-5.266,57.186-9.703,78.889-9.703h42.678
	c21.687,0,57.811,4.438,78.872,9.703l2.563,0.641c6.094,1.531,12.125,5.828,16.53,11.781
	C379.671,92.074,382.015,99.105,381.64,105.402z"/>
</svg>