<?xml version="1.0" encoding="iso-8859-1"?>
<!-- Uploaded to: SVG Repo, www.svgrepo.com, Generator: SVG Repo Mixer Tools -->
<svg height="800px" width="800px" version="1.1" id="Layer_1" xmlns="http://www.w3.org/2000/svg" xmlns:xlink="http://www.w3.org/1999/xlink" 
	 viewBox="0 0 511.983 511.983" xml:space="preserve">
<path style="fill:#E5E8EC;" d="M368.049,511.982c35.953-42.357,58.687-104.746,58.687-174.307
	c0-127.589-76.435-231.016-170.744-231.016S85.247,210.087,85.247,337.676c0,69.561,22.733,131.949,58.686,174.307h224.116V511.982z
	"/>
<g>
	<path style="fill:#5E9CEA;" d="M324.051,280.084c0,0-6.483,62.904-69.81,73.231v41.327c114.871,6,162.807-88.888,162.807-88.888
		L324.051,280.084z"/>
	<path style="fill:#5E9CEA;" d="M188.462,280.084c0,0,6.5,62.904,69.826,73.231v41.327c-114.887,6-162.822-88.888-162.822-88.888
		L188.462,280.084z"/>
</g>
<g>
	<path style="fill:#EC5564;" d="M127.995,479.983c-2.719,0-5.468-1.047-7.53-3.124c-4.188-4.173-4.188-10.922,0-15.094
		l21.312-21.328c4.172-4.172,10.937-4.172,15.093,0s4.156,10.922,0,15.078l-21.327,21.344
		C133.464,478.936,130.714,479.983,127.995,479.983z"/>
	<path style="fill:#EC5564;" d="M170.65,479.983c-2.719,0-5.453-1.047-7.531-3.124l-21.343-21.344
		c-4.156-4.156-4.156-10.906,0-15.078c4.172-4.172,10.937-4.172,15.093,0l21.344,21.328c4.155,4.172,4.155,10.921,0,15.094
		C176.119,478.936,173.4,479.983,170.65,479.983z"/>
	<path style="fill:#EC5564;" d="M170.65,479.983c-2.719,0-5.453-1.047-7.531-3.124c-4.156-4.173-4.156-10.922,0-15.094
		l21.344-21.328c4.155-4.172,10.905-4.172,15.077,0s4.172,10.922,0,15.078l-21.327,21.344
		C176.119,478.936,173.4,479.983,170.65,479.983z"/>
	<path style="fill:#EC5564;" d="M213.336,479.983c-2.75,0-5.468-1.047-7.562-3.124l-21.312-21.344
		c-4.188-4.156-4.188-10.906,0-15.078c4.155-4.172,10.905-4.172,15.077,0l21.327,21.328c4.156,4.172,4.156,10.921,0,15.094
		C218.789,478.936,216.054,479.983,213.336,479.983z"/>
	<path style="fill:#EC5564;" d="M213.336,479.983c-2.75,0-5.468-1.047-7.562-3.124c-4.156-4.173-4.156-10.922,0-15.094
		l21.343-21.328c4.156-4.172,10.921-4.172,15.094,0c4.155,4.172,4.155,10.922,0,15.078l-21.344,21.344
		C218.789,478.936,216.054,479.983,213.336,479.983z"/>
	<path style="fill:#EC5564;" d="M255.991,479.983c-2.719,0-5.469-1.047-7.531-3.124l-21.343-21.344
		c-4.156-4.156-4.156-10.906,0-15.078s10.921-4.172,15.094,0l21.327,21.328c4.171,4.172,4.171,10.921,0,15.094
		C261.459,478.936,258.709,479.983,255.991,479.983z"/>
	<path style="fill:#EC5564;" d="M255.991,479.983c-2.719,0-5.469-1.047-7.531-3.124c-4.187-4.173-4.187-10.922,0-15.094
		l21.312-21.328c4.172-4.172,10.938-4.172,15.093,0c4.157,4.172,4.157,10.922,0,15.078l-21.326,21.344
		C261.459,478.936,258.709,479.983,255.991,479.983z"/>
	<path style="fill:#EC5564;" d="M298.645,479.983c-2.719,0-5.452-1.047-7.531-3.124l-21.343-21.344
		c-4.156-4.156-4.156-10.906,0-15.078c4.172-4.172,10.938-4.172,15.093,0l21.344,21.328c4.156,4.172,4.156,10.921,0,15.094
		C304.114,478.936,301.395,479.983,298.645,479.983z"/>
	<path style="fill:#EC5564;" d="M298.708,479.983c-2.719,0-5.469-1.047-7.531-3.124c-4.172-4.173-4.172-10.922,0-15.094
		l21.313-21.328c4.188-4.172,10.938-4.172,15.093,0c4.157,4.172,4.157,10.922,0,15.078l-21.327,21.344
		C304.177,478.936,301.443,479.983,298.708,479.983z"/>
	<path style="fill:#EC5564;" d="M341.379,479.983c-2.734,0-5.453-1.047-7.547-3.124l-21.343-21.344
		c-4.155-4.156-4.155-10.906,0-15.078c4.188-4.172,10.938-4.172,15.093,0l21.343,21.328c4.157,4.172,4.157,10.921,0,15.094
		C346.832,478.936,344.113,479.983,341.379,479.983z"/>
	<path style="fill:#EC5564;" d="M341.379,479.983c-2.734,0-5.453-1.047-7.547-3.124c-4.156-4.173-4.156-10.922,0-15.094
		l21.343-21.328c4.156-4.172,10.906-4.172,15.078,0s4.172,10.922,0,15.078l-21.328,21.344
		C346.832,478.936,344.113,479.983,341.379,479.983z"/>
	<path style="fill:#EC5564;" d="M384.049,479.983c-2.75,0-5.469-1.047-7.562-3.124l-21.313-21.344
		c-4.171-4.156-4.171-10.906,0-15.078c4.156-4.172,10.906-4.172,15.078,0l21.327,21.328c4.156,4.172,4.156,10.921,0,15.094
		C389.502,478.936,386.768,479.983,384.049,479.983z"/>
</g>
<path style="fill:#D94452;" d="M266.771,255.991c0,5.891-4.781,10.655-10.671,10.655c-5.891,0-10.672-4.765-10.672-10.655
	c0-5.89,4.781-10.672,10.672-10.672C261.99,245.319,266.771,250.1,266.771,255.991z"/>
<path style="fill:#EC5564;" d="M255.991,106.66c-1.359,0-2.719,0.023-4.063,0.063l-24.358,3.125
	C153.4,126.66,95.433,208.181,86.45,310.052c118.355-5.141,169.541-68.733,169.541-68.733h0.109c0,0,51.139,63.561,169.432,68.732
	C415.439,195.485,343.394,106.66,255.991,106.66z"/>
<path style="fill:#EAC6BB;" d="M384.049,127.995c0,70.686-57.31,127.996-127.995,127.996c-70.7,0-127.996-57.311-127.996-127.996
	C128.058,57.303,185.354,0,256.054,0C326.739,0,384.049,57.303,384.049,127.995z"/>
<path style="fill:#F5BA45;" d="M128.057,127.995c0,1.484,0.031,2.953,0.078,4.43c77.232,3.211,138.573-40.428,138.573-40.428
	l-1.812-91.692C261.974,0.11,259.021,0,256.052,0C185.353,0,128.057,57.303,128.057,127.995z"/>
<path style="fill:#FECD57;" d="M256.054,0c-29.343,0-56.373,9.874-77.966,26.476c25.765,24.366,98.371,85.489,205.273,114.824
	c0.438-4.375,0.688-8.813,0.688-13.305C384.049,57.303,326.739,0,256.054,0z"/>
<g>
	<path style="fill:#424953;" d="M288.053,149.323c-5.906,0-10.672,4.773-10.672,10.671c0,5.891,4.766,10.664,10.672,10.664
		c5.874,0,10.655-4.773,10.655-10.664C298.708,154.096,293.927,149.323,288.053,149.323z"/>
	<path style="fill:#424953;" d="M277.381,191.993c-4.702,0-8.702,3.047-10.109,7.273c-0.656,1.203-3.765,3.391-11.171,3.391
		c-7.5,0-10.656-2.25-11.313-3.477c-1.452-4.18-5.405-7.188-10.077-7.188c-5.891,0-10.656,4.773-10.656,10.664
		c0,0.938,0.125,1.844,0.344,2.711l0,0c0.031,0.109,0.063,0.227,0.094,0.344c0.016,0.055,0.031,0.109,0.047,0.164
		c2.109,6.961,10.906,18.116,31.562,18.116s29.39-11.147,31.452-18.155c0.016-0.016,0.016-0.031,0.031-0.055
		c0.03-0.172,0.094-0.344,0.125-0.508v-0.008c0.219-0.836,0.344-1.711,0.344-2.609C288.053,196.766,283.271,191.993,277.381,191.993
		z M244.929,199.571c0.032,0.102,0.063,0.227,0.095,0.375l0,0C244.991,199.821,244.961,199.696,244.929,199.571z M267.162,199.61
		c-0.047,0.141-0.078,0.289-0.109,0.43h-0.015C267.084,199.86,267.115,199.727,267.162,199.61z"/>
	<path style="fill:#424953;" d="M234.711,159.994c0-5.897-4.781-10.671-10.656-10.671c-5.906,0-10.672,4.773-10.672,10.671
		c0,5.891,4.766,10.664,10.672,10.664C229.929,170.658,234.711,165.885,234.711,159.994z"/>
</g>
<circle style="fill:#EAC6BB;" cx="255.991" cy="373.311" r="31.999"/>
</svg>