<?xml version="1.0" encoding="iso-8859-1"?>
<!-- Uploaded to: SVG Repo, www.svgrepo.com, Generator: SVG Repo Mixer Tools -->
<svg height="800px" width="800px" version="1.1" id="Layer_1" xmlns="http://www.w3.org/2000/svg" xmlns:xlink="http://www.w3.org/1999/xlink" 
	 viewBox="0 0 511.982 511.982" xml:space="preserve">
<path style="fill:#F5BA45;" d="M238.135,501.31c-12.578-106.871-40.764-360.409-36.655-393.33
	c1.375-11.156,7.093-39.64,30.093-63.139c22.14-22.64,53.53-34.14,93.325-34.171c39.765,0.031,71.17,11.531,93.294,34.171
	c23,23.515,28.719,51.982,30.109,63.139c4.093,32.921-24.391,286.475-37.108,393.33H238.135z"/>
<path d="M239.323,501.31c0,5.891-4.766,10.672-10.656,10.672s-10.671-4.781-10.671-10.672c0-5.89,4.781-10.655,10.671-10.655
	S239.323,495.421,239.323,501.31z"/>
<path style="fill:#E2A334;" d="M423.144,490.952c9.172-77.935,40.264-347.848,35.733-384.284
	C453.582,64.029,420.708,0.094,324.882,0c-95.825,0.094-128.683,64.029-133.995,106.652c-5.297,42.671,37.78,405.33,37.78,405.33
	h96.215l0,0h95.778c5.891,0,10.656-4.781,10.656-10.672C431.316,496.28,427.832,492.076,423.144,490.952z M346.209,490.655
	L346.209,490.655h-21.327h-77.247c-3.671-31.562-11.359-98.528-18.64-167.604c-17.999-171.057-17.843-206.477-16.937-213.758
	c1.25-10.078,6.406-35.812,27.14-56.998c20.045-20.499,48.874-30.921,85.684-30.968c36.812,0.047,65.64,10.469,85.686,30.968
	c20.733,21.187,25.89,46.92,27.14,56.998c0.905,7.281,1.046,42.687-17.156,213.728c-7.358,69.106-15.14,136.073-18.844,167.635
	L346.209,490.655L346.209,490.655z"/>
<path style="fill:#E5E8EC;" d="M409.364,159.103c-9.281-30.624-84.482-52.436-84.482-52.436l0,0c0,0-75.2,21.812-84.481,52.436
	c-17.359,57.326,41.592,310.208,41.592,310.208h85.325C367.318,469.311,426.721,216.429,409.364,159.103z"/>
<g>
	<path style="fill:#CBD0D8;" d="M279.18,456.921c1.766,7.907,2.813,12.391,2.813,12.391h85.325c0,0,9.483-40.373,19.765-92.496
		L279.18,456.921z"/>
	<path style="fill:#CBD0D8;" d="M267.368,401.689l133.137-98.84c4.016-24.656,7.452-49.155,9.609-71.139L256.509,345.754
		C260.15,365.643,263.9,384.72,267.368,401.689z"/>
	<path style="fill:#CBD0D8;" d="M246.9,288.896l164.197-121.902c-0.469-2.938-1.03-5.578-1.733-7.891
		c-3.594-11.858-17.093-22.405-32.265-30.874l-137.652,102.2C241.181,248.6,243.791,268.537,246.9,288.896z"/>
</g>
<path style="fill:#E5E8EC;" d="M324.882,42.67c-35.343,0-63.998,28.64-63.998,63.998c0,35.343,28.655,63.998,63.998,63.998
	c35.344,0,63.999-28.655,63.999-63.998C388.881,71.309,360.225,42.67,324.882,42.67z"/>
<path d="M319.554,106.668c0,5.891-4.781,10.656-10.672,10.656c-5.89,0-10.671-4.766-10.671-10.656
	c0-5.906,4.781-10.671,10.671-10.671C314.772,95.997,319.554,100.762,319.554,106.668z"/>
<path style="fill:#FECD57;" d="M100.358,501.31C87.781,394.439,59.594,140.917,63.703,107.98
	c1.375-11.156,7.094-39.64,30.093-63.139c22.14-22.64,53.53-34.14,93.325-34.171c39.765,0.031,71.154,11.531,93.294,34.171
	c22.999,23.515,28.717,51.982,30.093,63.139c4.109,32.921-24.374,286.475-37.093,393.33L100.358,501.31L100.358,501.31z"/>
<g>
	<path style="fill:#F5BA45;" d="M321.101,106.668C315.789,64.029,282.93,0.094,187.106,0C91.281,0.094,58.422,64.029,53.11,106.652
		c-5.312,42.671,37.78,405.33,37.78,405.33h96.216l0,0h95.778C282.884,511.982,326.413,149.323,321.101,106.668z M282.774,323.02
		c-7.359,69.106-15.141,136.073-18.843,167.635h-55.499l0,0h-21.327h-77.248c-3.672-31.562-11.359-98.48-18.64-167.572
		c-18-171.089-17.843-206.509-16.938-213.79c1.25-10.078,6.406-35.812,27.14-56.998c20.046-20.499,48.874-30.921,85.685-30.968
		c36.811,0.047,65.638,10.469,85.685,30.968c20.733,21.187,25.889,46.92,27.139,56.998
		C300.837,116.574,300.977,151.979,282.774,323.02z"/>
	<path style="fill:#F5BA45;" d="M187.106,469.311c-5.891,0-10.672-4.765-10.672-10.655V53.326c0-5.891,4.781-10.656,10.672-10.656
		c5.89,0,10.671,4.766,10.671,10.656v405.33C197.777,464.547,192.996,469.311,187.106,469.311z"/>
</g>
</svg>