<?xml version="1.0" encoding="iso-8859-1"?>
<!-- Uploaded to: SVG Repo, www.svgrepo.com, Generator: SVG Repo Mixer Tools -->
<svg height="800px" width="800px" version="1.1" id="Layer_1" xmlns="http://www.w3.org/2000/svg" xmlns:xlink="http://www.w3.org/1999/xlink" 
	 viewBox="0 0 512 512" xml:space="preserve">
<path style="fill:#E09B8C;" d="M240.555,293.723l141.253,46.498c0,0,6.656,47.295-4.78,151.166H205.524
	C228.727,411.654,240.555,293.723,240.555,293.723z"/>
<path style="fill:#EC5564;" d="M29.437,214.662L0,211.865c6.438-29.702,27.374-55.373,27.374-55.373l-18.468-8.891
	C28.327,121.383,56.81,99.697,56.81,99.697l-21.218-9.578c0,0,21.624-31.796,56.107-47.904l-3.422-16.422
	c0,0,211.845-30.343,343.153,55.842c75.841,49.749-119.277,167.025-133.089,222.008c-18.438,73.514-127.613,131.309-127.613,131.309
	c-16.063-22.563-15.484-42.404-15.484-42.404l-51.42,25.873c-10.797-24.779-12.094-42.279-12.094-42.279l-45.655,20
	c-3.702-28.25,8.672-61.717,8.672-61.717l-30.796,5.469c2.125-32.953,13.016-60.217,13.016-60.217L0,281.754
	C6.438,241.521,29.437,214.662,29.437,214.662z"/>
<path style="opacity:0.1;enable-background:new    ;" d="M381.808,340.221c0,0-75.403-30.844-74.528-24.531
	c6.531,46.125,32.437,87.107,75.748,98.996C385.12,363.953,381.808,340.221,381.808,340.221z"/>
<path style="fill:#E09B8C;" d="M421.338,113.634l24.719,5.125l23.874,36.562l-2.094,25.843
	c47.186,31.374,44.123,84.075,44.123,84.075l-33.498,6.094l5.468,29.982l-5.906,11.328l8.625,8.688l-13.313,25.873
	c0,0,17.469,31.766,12.125,37.922c-30.093,34.859-163.808,2.344-175.494-80.295c-10.719-75.902-15.624-79.527-15.624-79.527
	L421.338,113.634z"/>
<path style="fill:#E8563F;" d="M414.433,71.292c62.091,26.124,50.372,61.857,50.372,61.857
	C397.026,147.148,305.593,285.16,305.593,285.16s-51.835,44.498-47.32-8.141C267.069,174.663,383.714,58.354,414.433,71.292z"/>
<path style="fill:#FB6D51;" d="M271.038,313.393c-6.625,0-12.328-2.391-16.484-6.922c-5.858-6.375-8.108-16.311-6.905-30.373
	c3.843-44.702,28.257-97.747,66.943-145.558c16.156-19.952,33.405-37.249,49.904-50.03c17.874-13.858,32.874-20.874,44.529-20.874
	c3.469,0,6.688,0.609,9.563,1.813c70.34,29.608,56.935,73.186,56.342,75.029l-1.938,5.874l-6.031,1.25
	c-25.374,5.234-59.592,32.077-98.966,77.607c-30.562,35.342-53.311,69.514-53.529,69.842l-0.813,1.25l-1.126,0.953
	C308.623,296.627,288.218,313.393,271.038,313.393z M270.227,291.988c0.108,0.029,0.374,0.076,0.812,0.076
	c6.523,0,19.21-8.107,26.523-14.092c4.562-6.75,25.779-37.718,54.153-70.545c39.593-45.826,74.311-73.606,103.278-82.716
	c-0.5-8.969-6.625-27.577-44.686-43.592c-0.032-0.017-0.375-0.157-1.282-0.157c-11.124,0-42.654,19.547-77.841,62.998
	c-36.092,44.577-58.779,93.403-62.287,133.965C267.991,288.455,269.882,291.533,270.227,291.988z"/>
<path style="fill:#F5BA45;" d="M279.905,333.205c-22.351,0-40.522-18.172-40.522-40.514c0-22.328,18.172-40.516,40.522-40.516
	c22.343,0,40.499,18.188,40.499,40.516C320.404,315.033,302.248,333.205,279.905,333.205z"/>
<path style="fill:#FECD57;" d="M279.905,241.521c-28.272,0-51.179,22.905-51.179,51.171c0,28.264,22.906,51.186,51.179,51.186
	c28.249,0,51.186-22.922,51.186-51.186C331.091,264.426,308.154,241.521,279.905,241.521z M279.905,322.549
	c-16.46,0-29.851-13.391-29.851-29.857c0-16.453,13.391-29.844,29.851-29.844c16.468,0,29.843,13.391,29.843,29.844
	C309.748,309.158,296.373,322.549,279.905,322.549z"/>
<path style="fill:#424953;" d="M269.241,292.691c0,5.891,4.758,10.672,10.664,10.672c5.875,0,10.656-4.781,10.656-10.672
	s-4.781-10.658-10.656-10.658C273.999,282.033,269.241,286.801,269.241,292.691z"/>
<path style="fill:#434A54;" d="M438.213,192.647c0,5.89,4.78,10.655,10.655,10.655c5.906,0,10.688-4.766,10.688-10.655
	c0-5.891-4.781-10.672-10.688-10.672C442.993,181.976,438.213,186.757,438.213,192.647z"/>
<g>
	<path style="fill:#FB6D51;" d="M427.994,147.461c-8.375-27.812-51.342-44.764-67.154-48.951l5.438-20.625
		c2.78,0.735,68.622,18.625,82.153,63.405L427.994,147.461z"/>
	<path style="fill:#FB6D51;" d="M395.901,177.476c-13.594-35.077-59.903-43.748-60.373-43.826l3.75-20.999
		c2.375,0.421,58.654,10.983,76.528,57.122L395.901,177.476z"/>
	<path style="fill:#FB6D51;" d="M362.527,209.568c-15.937-26.14-54.842-39.39-55.248-39.515l6.749-20.233
		c1.907,0.641,46.78,15.938,66.718,48.654L362.527,209.568z"/>
	<path style="fill:#FB6D51;" d="M334.56,247.067c-16-26.265-56.529-41.249-56.967-41.405l7.312-20.046
		c1.938,0.719,48.03,17.765,67.874,50.357L334.56,247.067z"/>
</g>
<path style="fill:#646C77;" d="M475.93,176.835c-5.062-2.609-23.187-9.359-59.873,2.844c-5.593,1.859-8.594,7.906-6.749,13.5
	c1.5,4.469,5.656,7.296,10.125,7.296c1.124,0,2.25-0.188,3.374-0.547c30.593-10.202,43.343-4.141,43.467-4.078
	c-0.25-0.125-0.343-0.202-0.343-0.202l0.031-0.032c1.625,1,3.531,1.595,5.593,1.595c5.875,0,10.656-4.781,10.656-10.672
	C482.211,182.21,479.648,178.507,475.93,176.835z"/>
</svg>