<?xml version="1.0" encoding="iso-8859-1"?>
<!-- Uploaded to: SVG Repo, www.svgrepo.com, Generator: SVG Repo Mixer Tools -->
<svg height="800px" width="800px" version="1.1" id="Layer_1" xmlns="http://www.w3.org/2000/svg" xmlns:xlink="http://www.w3.org/1999/xlink" 
	 viewBox="0 0 511.982 511.982" xml:space="preserve">
<polygon style="fill:#424953;" points="325.894,0 75.278,95.754 229.023,256.444 395.736,181.791 "/>
<path style="fill:#EAC6BB;" d="M417.064,225.765l-49.483-102.044l-174.4,85.936l65.842,85.958l-2.422,42.295
	c0,0-32.53,21.483-52.42,53.405c-28.655,45.998-33.515,120.667-33.515,120.667h213.321c0-56.279-35.813-127.996-35.813-127.996
	l17.344-52.029c0,0,48.374-1.219,51.842-4.922c3.484-3.719,6.047-48.357,6.047-48.357l13.297-25.382L417.064,225.765z"/>
<path style="fill:#9ED36A;" d="M377.893,466.061c-19.78-8.577-73.732-34.186-91.044-65.201
	c-14.938-26.748-46.108-32.905-63.482-34.186c-6.719,7.188-13.469,15.483-19.187,24.641
	c-28.655,45.998-33.515,120.667-33.515,120.667h213.321C383.987,497.202,381.518,481.39,377.893,466.061z"/>
<path style="fill:#434A54;" d="M373.33,234.656c0,5.891-4.781,10.663-10.671,10.663s-10.672-4.772-10.672-10.663
	s4.782-10.672,10.672-10.672S373.33,228.765,373.33,234.656z"/>
<path style="fill:#646C77;" d="M382.689,214.758c-3.359-2.163-23.295-13.616-48.107,1.524c-5.031,3.062-6.624,9.624-3.563,14.655
	c2.016,3.297,5.515,5.117,9.125,5.117c1.89,0,3.797-0.508,5.53-1.563c14.172-8.641,24.25-2.594,25.344-1.883
	c-0.094-0.063-0.156-0.102-0.156-0.102l0.016-0.016c1.734,1.227,3.843,1.953,6.141,1.953c5.891,0,10.671-4.773,10.671-10.664
	C387.689,219.976,385.689,216.648,382.689,214.758z"/>
<path style="fill:#D3A99F;" d="M300.974,259.03c-10.672-5.766-15.984-11.016-18.625-14.983l-1.531-2.75
	c-0.375-0.828-0.609-1.57-0.766-2.195c-0.797-3.25,0.172-5.625,1.141-7.039c3.297-4.883,2.016-11.516-2.859-14.813
	c-4.875-3.305-11.515-2.023-14.813,2.859c-4.781,7.055-6.265,15.602-4.188,24.07c3.11,12.694,13.704,23.998,31.5,33.623
	c1.609,0.875,3.343,1.281,5.062,1.281c3.798,0,7.469-2.031,9.391-5.594C308.084,268.304,306.161,261.835,300.974,259.03z"/>
<polygon style="fill:#424953;" points="325.894,0 75.278,95.754 229.023,256.444 395.736,181.791 "/>
<g>
	<path style="fill:#F5BA45;" d="M379.409,139.276c-25.094,9.133-93.575,38.726-81.014,86.106l97.341-43.592L379.409,139.276z"/>
	<polygon style="fill:#F5BA45;" points="156.291,180.431 362.596,95.535 354.956,75.614 140.464,163.877 	"/>
</g>
<g style="opacity:0.2;">
	<polygon style="fill:#FFFFFF;" points="326.379,0.156 307.77,7.264 378.22,190.009 396.204,181.954 	"/>
</g>
<path style="fill:#D3A99F;" d="M307.77,317.848c0,0,30.546,30.39,51.436,33.062l6.313-18.953
	C365.518,331.957,334.739,332.457,307.77,317.848z"/>
</svg>