<?xml version="1.0" encoding="iso-8859-1"?>
<!-- Uploaded to: SVG Repo, www.svgrepo.com, Generator: SVG Repo Mixer Tools -->
<svg height="800px" width="800px" version="1.1" id="Layer_1" xmlns="http://www.w3.org/2000/svg" xmlns:xlink="http://www.w3.org/1999/xlink" 
	 viewBox="0 0 511.989 511.989" xml:space="preserve">
<g>
	<path style="fill:#424953;" d="M10.688,394.649c-0.476,0-0.945-0.031-1.43-0.094c-5.836-0.781-9.937-6.141-9.164-11.983
		l42.671-319.99c0.773-5.828,6.141-9.937,11.984-9.156c5.835,0.781,9.938,6.141,9.155,11.984L21.242,385.4
		C20.532,390.759,15.946,394.649,10.688,394.649z"/>
	<path style="fill:#424953;" d="M95.99,394.649c-5.266,0-9.843-3.891-10.562-9.249L42.766,65.41
		c-0.781-5.844,3.32-11.203,9.164-11.984c5.836-0.78,11.203,3.328,11.976,9.156l42.671,319.99
		c0.773,5.843-3.328,11.202-9.164,11.983C96.935,394.618,96.46,394.649,95.99,394.649z"/>
</g>
<path style="fill:#646C77;" d="M53.336,394.649c-5.891,0-10.664-4.781-10.664-10.672V63.988c0-5.891,4.773-10.656,10.664-10.656
	S64,58.098,64,63.988v319.989C64,389.868,59.226,394.649,53.336,394.649z"/>
<path style="fill:#4B89DA;" d="M483.878,38.786c-37.5-37.483-98.279-37.483-135.762,0c-32.313,32.312-30.781,75.247-7.406,112.34
	c0,0,18.547-65.373,56.264-77.341c21.172-6.719,34.092,2.703,41.639,10.249c12.5,12.5,12.5,32.765,0,45.265
	c-12.484,12.484-28.92,15.062-51.264,6.016l-39.232,39.232l-11,11L75.968,446.694c-12.492,12.483-12.492,32.749,0,45.248
	c12.5,12.5,32.757,12.5,45.257,0L410.66,202.514c26.313,1.453,53.107-7.859,73.219-27.968
	C521.36,137.063,521.36,76.269,483.878,38.786z"/>
<g>
	<path style="fill:#F5BA45;" d="M123.849,398.806l-47.881,47.888c-12.492,12.483-12.492,32.749,0,45.248
		c12.5,12.5,32.757,12.5,45.257,0l2.625-2.624L123.849,398.806L123.849,398.806z"/>
	<polygon style="fill:#F5BA45;" points="181.683,431.476 239.517,373.65 239.517,283.137 181.683,340.979 	"/>
	<polygon style="fill:#F5BA45;" points="297.337,315.823 355.177,257.982 355.177,167.485 348.116,174.547 337.116,185.547 
		297.337,225.31 	"/>
	<path style="fill:#F5BA45;" d="M483.878,174.547c7.795-7.812,13.967-16.624,18.529-26.03l-54.904-36.327
		c-1.094,6.266-4.047,12.266-8.891,17.109c-7.125,7.124-15.545,11.015-25.607,11.374v61.936
		C438.565,203.405,464.362,194.047,483.878,174.547z"/>
	<path style="fill:#F5BA45;" d="M483.878,38.786c-21.141-21.141-49.688-30.358-77.281-27.655l1.846,60.436
		c12.484-0.766,21.295,4.499,27.389,9.859l58.482-30.28C491.235,46.817,487.751,42.677,483.878,38.786z"/>
</g>
<path style="fill:#FECD57;" d="M97.295,41.364c-12.499-12.484-32.757-12.484-45.256,0c-12.491,12.499-12.491,32.765,0,45.264l0,0
	l405.323,405.314c12.5,12.5,32.748,12.5,45.248,0c12.5-12.499,12.5-32.765,0-45.248L97.295,41.364L97.295,41.364z"/>
<g>
	<path style="fill:#5E9CEA;" d="M457.362,491.942c12.5,12.5,32.748,12.5,45.248,0c12.5-12.499,12.5-32.765,0-45.248l-2.547-2.562
		h-90.512L457.362,491.942z"/>
	<polygon style="fill:#5E9CEA;" points="293.897,328.464 351.725,386.306 442.222,386.306 384.395,328.464 	"/>
	<polygon style="fill:#5E9CEA;" points="268.735,212.811 178.23,212.811 236.064,270.638 326.569,270.638 	"/>
	<polygon style="fill:#5E9CEA;" points="62.562,97.143 120.396,154.97 210.9,154.97 153.067,97.143 	"/>
</g>
<polygon style="opacity:0.1;enable-background:new    ;" points="349.694,263.467 304.429,218.218 289.352,233.295 334.616,278.559 
	"/>
<polygon style="opacity:0.1;enable-background:new    ;" points="289.288,323.871 244.04,278.622 228.955,293.699 274.212,338.964 
	"/>
</svg>