<?xml version="1.0" encoding="iso-8859-1"?>
<!-- Uploaded to: SVG Repo, www.svgrepo.com, Generator: SVG Repo Mixer Tools -->
<svg version="1.1" id="Layer_1" xmlns="http://www.w3.org/2000/svg" xmlns:xlink="http://www.w3.org/1999/xlink" 
	 viewBox="0 0 511.986 511.986" xml:space="preserve">
<path style="fill:#CBD0D8;" d="M28.909,304.917c-0.328,0.344-0.703,0.672-1.094,0.953c-4.688,3.578-11.406,2.641-14.969-2.047
	c-0.688-0.906-6.813-9.188-10-21.139c-4.53-17.016-0.89-32.828,10.5-45.71c6.625-7.492,8.547-16.039,5.859-26.109
	c-2.094-7.859-6.313-13.648-6.359-13.703c-3.563-4.687-2.656-11.382,2.031-14.945c4.688-3.57,11.391-2.656,14.953,2.032
	c0.688,0.906,6.812,9.187,9.999,21.132c4.516,17.023,0.891,32.835-10.499,45.717c-6.5,7.351-8.469,15.703-6.016,25.537
	c2.063,8.221,6.5,14.266,6.547,14.33C33.127,295.247,32.627,301.216,28.909,304.917z"/>
<path style="fill:#EC5564;" d="M138.889,354.899c4.172,4.158,4.172,10.908,0,15.078l-60.342,60.342
	c-4.156,4.172-10.921,4.172-15.078,0l-60.34-60.342c-4.172-4.17-4.172-10.92,0-15.078l60.341-60.342
	c4.157-4.156,10.922-4.156,15.078,0L138.889,354.899z"/>
<g>
	<path style="fill:#D94452;" d="M25.753,347.354c4.172-4.172,4.172-10.922,0-15.078l0,0l-15.078,15.078
		C14.831,351.526,21.597,351.526,25.753,347.354z"/>
	<path style="fill:#D94452;" d="M56.08,317.026c4.172-4.156,4.172-10.922,0-15.094l0,0l-15.078,15.094
		C45.158,321.182,51.924,321.182,56.08,317.026z"/>
	<path style="fill:#D94452;" d="M73.766,291.807c-3.563-0.951-7.515-0.031-10.297,2.75l-7.546,7.531
		c4.172,4.172,10.921,4.172,15.093,0C73.798,299.307,74.704,295.372,73.766,291.807z"/>
	<path style="fill:#D94452;" d="M0.379,365.181c3.546,0.953,7.499,0.047,10.296-2.75c4.156-4.154,4.156-10.904,0-15.076l0,0
		L3.129,354.9C0.347,357.682-0.574,361.634,0.379,365.181z"/>
	<path style="fill:#D94452;" d="M41.002,317.026L25.909,332.12c4.172,4.156,10.921,4.156,15.093,0
		C45.158,327.948,45.158,321.182,41.002,317.026z"/>
</g>
<path style="fill:#965353;" d="M466.738,11.966L33.3,445.397c-12.5,12.5-12.5,32.764,0,45.248c12.499,12.5,32.765,12.5,45.248,0
	L511.986,57.222L466.738,11.966z"/>
<g>
	
		<rect x="41.605" y="375.699" transform="matrix(-0.7071 0.7071 -0.7071 -0.7071 486.7668 613.7631)" style="fill:#FB6D51;" width="149.329" height="63.99"/>
	<polygon style="fill:#FB6D51;" points="402.865,166.344 297.274,271.934 252.026,226.678 357.617,121.088 	"/>
</g>
<g>
	<polygon style="fill:#7F4545;" points="426.098,143.11 426.098,52.597 404.771,73.933 404.771,164.438 	"/>
	<polygon style="fill:#7F4545;" points="465.176,104.025 465.176,13.521 443.847,34.856 443.847,125.361 	"/>
</g>
<g>
	<path style="fill:#E8563F;" d="M101.172,407.696c4.172,4.17,4.172,10.92,0,15.076c-4.156,4.172-10.905,4.172-15.077,0
		c-4.172-4.156-4.172-10.906,0-15.076C90.266,403.524,97.015,403.524,101.172,407.696z"/>
	<path style="fill:#E8563F;" d="M131.343,407.696c4.172,4.156,4.172,10.92,0,15.076c-4.156,4.172-10.921,4.172-15.077,0
		c-4.172-4.156-4.172-10.906,0-15.076C120.422,403.524,127.186,403.524,131.343,407.696z"/>
	<path style="fill:#E8563F;" d="M131.343,377.524c4.172,4.156,4.172,10.906,0,15.078c-4.156,4.172-10.921,4.172-15.077,0
		c-4.172-4.172-4.172-10.922,0-15.078C120.422,373.352,127.186,373.352,131.343,377.524z"/>
	<path style="fill:#E8563F;" d="M161.514,377.524c4.172,4.156,4.172,10.906,0,15.078c-4.156,4.172-10.922,4.172-15.077,0
		c-4.172-4.172-4.172-10.922,0-15.078C150.592,373.352,157.357,373.352,161.514,377.524z"/>
</g>
<g>
	<path style="fill:#7F4545;" d="M199.231,324.729c4.156,4.172,4.156,10.922,0,15.078c-4.172,4.17-10.922,4.17-15.094,0
		c-4.155-4.156-4.155-10.906,0-15.078C188.309,320.557,195.059,320.557,199.231,324.729z"/>
	<path style="fill:#7F4545;" d="M229.402,294.557c4.156,4.158,4.156,10.922,0,15.094c-4.172,4.156-10.922,4.156-15.093,0
		c-4.157-4.172-4.157-10.936,0-15.094C218.48,290.401,225.23,290.401,229.402,294.557z"/>
	<path style="fill:#7F4545;" d="M259.573,264.388c4.155,4.164,4.155,10.922-0.016,15.078c-4.156,4.17-10.906,4.17-15.078,0
		c-4.171-4.156-4.171-10.914,0-15.078C248.651,260.223,255.401,260.223,259.573,264.388z"/>
</g>
<g>
	<path style="fill:#E8563F;" d="M342.523,196.507c4.172,4.164,4.172,10.921,0,15.085c-4.156,4.164-10.921,4.164-15.078,0
		c-4.172-4.164-4.172-10.922,0-15.085C331.617,192.343,338.367,192.343,342.523,196.507z"/>
	<path style="fill:#E8563F;" d="M312.352,196.507c4.171,4.164,4.171,10.921,0,15.085c-4.156,4.164-10.905,4.164-15.078,0
		c-4.171-4.164-4.171-10.922,0-15.085C301.447,192.343,308.196,192.343,312.352,196.507z"/>
	<path style="fill:#E8563F;" d="M342.523,166.336c4.172,4.172,4.172,10.922,0,15.086c-4.156,4.171-10.906,4.164-15.078,0
		s-4.172-10.914,0-15.086C331.602,162.172,338.367,162.172,342.523,166.336z"/>
	<path style="fill:#E8563F;" d="M372.693,166.344c4.172,4.164,4.172,10.914,0,15.078c-4.155,4.164-10.921,4.171-15.076,0
		c-4.172-4.164-4.172-10.914,0-15.078C361.772,162.172,368.538,162.172,372.693,166.344z"/>
	<path style="fill:#E8563F;" d="M312.352,226.678c4.171,4.164,4.171,10.921,0,15.085c-4.156,4.164-10.905,4.164-15.078,0
		c-4.171-4.171-4.171-10.921,0-15.085C301.447,222.514,308.196,222.514,312.352,226.678z"/>
	<path style="fill:#E8563F;" d="M101.172,437.866c4.172,4.156,4.172,10.906,0,15.078c-4.156,4.172-10.905,4.172-15.077,0
		s-4.172-10.922,0-15.078C90.266,433.694,97.015,433.694,101.172,437.866z"/>
</g>
</svg>