<?xml version="1.0" encoding="iso-8859-1"?>
<!-- Uploaded to: SVG Repo, www.svgrepo.com, Generator: SVG Repo Mixer Tools -->
<svg version="1.1" id="Layer_1" xmlns="http://www.w3.org/2000/svg" xmlns:xlink="http://www.w3.org/1999/xlink" 
	 viewBox="0 0 511.991 511.991" xml:space="preserve">
<path style="fill:#424953;" d="M479.988,362.66h-63.999c-5.905,0-10.671-4.781-10.671-10.672s4.766-10.657,10.671-10.657h63.999
	c5.874,0,10.655,4.767,10.655,10.657S485.862,362.66,479.988,362.66z"/>
<path style="fill:#E5E8EC;" d="M383.991,255.991c0,58.92-57.311,106.684-128.012,106.684c-70.685,0-127.996-47.764-127.996-106.684
	c0-58.904,57.312-106.668,127.996-106.668C326.681,149.323,383.991,197.087,383.991,255.991z"/>
<path style="fill:#F4BE8E;" d="M31.987,362.66c-5.656,0-10.375-4.454-10.641-10.157c-0.281-5.891,4.25-10.89,10.141-11.172
	l447.984-21.326c5.891-0.298,10.875,4.266,11.156,10.141c0.281,5.89-4.249,10.89-10.14,11.171L32.502,362.643
	C32.331,362.66,32.159,362.66,31.987,362.66z"/>
<path style="fill:#FB6D51;" d="M255.979,383.986c-157.198,0-170.65-170.649-170.65-170.649h341.316
	C426.645,213.337,413.193,383.986,255.979,383.986z"/>
<g>
	<rect x="42.658" y="426.661" style="fill:#7F4545;" width="85.33" height="85.33"/>
	<rect x="383.995" y="426.661" style="fill:#7F4545;" width="85.33" height="85.33"/>
</g>
<path style="fill:#A85D5D;" d="M511.986,426.657c0,11.733-9.608,21.328-21.343,21.328H21.331c-11.734,0-21.327-9.595-21.327-21.328
	v-42.671c0-11.733,9.593-21.326,21.327-21.326h469.313c11.734,0,21.343,9.593,21.343,21.326L511.986,426.657L511.986,426.657z"/>
<g>
	<path style="fill:#CBD0D8;" d="M350.6,110.637l0.048,0.078c-0.031-0.031-2.531-3.297-3.61-7.484
		c-1.124-4.344-0.28-7.516,2.813-10.608c16.75-16.828,7.781-37.468,0.673-46.062v-0.016c-0.016,0-0.016-0.016-0.016-0.016l0,0
		c-1.97-2.359-4.922-3.859-8.22-3.859c-5.89,0-10.671,4.781-10.671,10.672c0,2.578,0.922,4.953,2.469,6.797l0,0
		c0.017,0.03,2.266,2.938,3.359,6.655c1.266,4.359,0.453,7.578-2.719,10.766c-16.703,16.765-7.781,37.733-0.733,46.467l0,0
		c1.952,2.423,4.937,3.969,8.295,3.969c5.891,0,10.672-4.766,10.672-10.655c0-2.547-0.891-4.875-2.374-6.703L350.6,110.637
		L350.6,110.637z"/>
	<path style="fill:#CBD0D8;" d="M275.447,25.343c-3.172-11.938-9.313-20.219-9.999-21.124h-0.016C263.494,1.656,260.416,0,256.963,0
		c-5.891,0-10.672,4.781-10.672,10.671c0,2.406,0.813,4.625,2.156,6.406h-0.016c0.047,0.063,4.5,6.109,6.547,14.327
		c2.453,9.828,0.484,18.188-6.016,25.531c-11.39,12.89-15.015,28.702-10.484,45.717c3.173,11.953,9.297,20.234,9.984,21.14h0.016
		c1.953,2.547,5.016,4.203,8.484,4.203c5.89,0,10.655-4.766,10.655-10.655c0-2.422-0.796-4.625-2.141-6.406v-0.016
		c-0.046-0.063-4.484-6.094-6.53-14.313c-2.453-9.843-0.5-18.187,6-25.546C276.338,58.185,279.978,42.373,275.447,25.343z"/>
	<path style="fill:#CBD0D8;" d="M179.872,46.56l-0.015-0.016l-0.016-0.016l0,0c-1.953-2.359-4.906-3.859-8.219-3.859
		c-5.891,0-10.656,4.781-10.656,10.672c0,2.578,0.922,4.953,2.453,6.797l0,0c0.016,0.03,2.266,2.938,3.359,6.655
		c1.281,4.359,0.469,7.578-2.703,10.766c-16.702,16.765-7.797,37.733-0.75,46.467l0,0c1.953,2.423,4.953,3.969,8.297,3.969
		c5.891,0,10.672-4.766,10.672-10.655c0-2.547-0.891-4.875-2.36-6.703l0,0l0.048,0.078c-0.016-0.031-2.531-3.297-3.609-7.484
		c-1.125-4.344-0.281-7.516,2.812-10.608C195.934,75.794,186.966,55.154,179.872,46.56z"/>
</g>
</svg>