<?xml version="1.0" encoding="iso-8859-1"?>
<!-- Uploaded to: SVG Repo, www.svgrepo.com, Generator: SVG Repo Mixer Tools -->
<svg height="800px" width="800px" version="1.1" id="Layer_1" xmlns="http://www.w3.org/2000/svg" xmlns:xlink="http://www.w3.org/1999/xlink" 
	 viewBox="0 0 511.984 511.984" xml:space="preserve">
<path style="fill:#424953;" d="M138.449,284.398c1.688-26.437,4.328-42.967,38.421-74.435c34.076-31.452,85.293-34.733,91.06-62.592
	c2.141-10.359,12.265-99.528,28.451-109.888c16.203-10.358,48.154-5.266,48.154-5.266s25.547,13.578,31.531,18.391
	c5.969,4.813,18.827,24.077,18.827,24.077s-6.719,29.187-14.015,30.655c-7.298,1.453-28.453-3.938-28.453-3.938
	s-10.515,3.5-8.327,18.374c2.187,14.891,17.516,41.593,16.202,67.421c-1.313,25.842-24.077,61.294-24.077,61.294l3.062,149.292
	l18.391,4.375c0,0,4.156,6.124,3.5,16.202c-0.656,10.063-12.046,13.422-12.046,13.422h-35.452c0,0-24.358-143.948-25.781-143.98
	c-1.421-0.031-41.857,108.669-41.857,108.669l17.937,2.625c0,0,2.188,6.063,2.563,16.03c0.187,4.875-3.876,20.719-14.156,20.656
	l-113.918,1.469L138.449,284.398z"/>
<g>
	<path style="fill:#646C77;" d="M376.066,50.609c-5.984-4.813-31.531-18.391-31.531-18.391s-10.78-1.718-22.998-1.124
		c7.187,0.312,12.327,1.124,12.327,1.124s25.546,13.578,31.515,18.391c5.984,4.813,18.827,24.077,18.827,24.077
		s-6.218,27.093-13.202,30.374c3.937,0.516,7.594,0.734,9.875,0.281c7.296-1.469,14.015-30.655,14.015-30.655
		S382.035,55.422,376.066,50.609z"/>
	<path style="fill:#646C77;" d="M339.285,397.785l-3.062-149.292c0,0,22.765-35.452,24.077-61.294
		c1.313-25.828-14.016-52.53-16.202-67.421c-1.391-9.499,5.406-16.108,8.327-18.374c-4.391-0.922-11.233,1.391-11.233,1.391
		s-9.952,2.109-7.766,16.983c2.188,14.891,17.516,41.593,16.203,67.421c-1.313,25.842-24.078,61.294-24.078,61.294l3.063,149.292
		l18.391,4.375c0,0,4.155,6.124,3.5,16.202c-0.657,10.063-12.047,13.422-12.047,13.422h10.672c0,0,11.39-3.359,12.046-13.422
		c0.656-10.078-3.5-16.202-3.5-16.202L339.285,397.785z"/>
	<path style="fill:#646C77;" d="M298.537,3.533c-8.952,26.53,0.031,52.092,0.031,52.092c11.531-29.155,40.967-20.344,40.967-20.344
		S304.225-13.264,298.537,3.533z"/>
</g>
<path style="fill:#F5BA45;" d="M343.942,118.513c-12.625-1.172-45.437-4.891-69.326-13.688c-3.516,20.265-5.796,38.233-6.687,42.546
	c-0.438,2.124-1.157,4.109-2.095,5.984c30.155,8.374,75.357,14.093,93.106,16.14c-3.656-19.718-13.156-38.233-14.843-49.718
	C344.035,119.341,343.989,118.92,343.942,118.513z"/>
<path style="fill:#FECD57;" d="M333.161,117.357c0.031,0.421,0.203,1.983,0.266,2.421c1.641,11.234,10.766,29.172,14.578,48.405
	c4.28,0.531,7.983,0.969,10.937,1.313c-3.656-19.718-13.156-38.233-14.843-49.718c-0.063-0.438-0.109-0.858-0.156-1.265
	C331.317,117.342,333.161,117.357,333.161,117.357z"/>
<path style="fill:#646C77;" d="M351.942,426.581H138.449c-11.75,0-21.358,9.608-21.358,21.358v42.702
	c0,11.734,9.608,21.343,21.358,21.343h213.493c11.749,0,21.357-9.608,21.357-21.343v-42.702
	C373.3,436.189,363.691,426.581,351.942,426.581z"/>
<path style="fill:#798089;" d="M351.942,426.581H341.27c11.734,0,21.344,9.608,21.344,21.358v42.702
	c0,11.734-9.609,21.343-21.344,21.343h10.672c11.749,0,21.357-9.608,21.357-21.343v-42.702
	C373.3,436.189,363.691,426.581,351.942,426.581z"/>
</svg>