<?xml version="1.0" encoding="iso-8859-1"?>
<!-- Uploaded to: SVG Repo, www.svgrepo.com, Generator: SVG Repo Mixer Tools -->
<svg version="1.1" id="Layer_1" xmlns="http://www.w3.org/2000/svg" xmlns:xlink="http://www.w3.org/1999/xlink" 
	 viewBox="0 0 511.984 511.984" xml:space="preserve">
<g>
	<rect x="341.332" y="317.432" style="fill:#FFD2A6;" width="21.313" height="77.22"/>
	<rect x="10.789" y="367.402" style="fill:#FFD2A6;" width="383.98" height="21.344"/>
	<polygon style="fill:#FFD2A6;" points="293.335,431.396 38.889,431.396 38.889,410.086 298.646,410.086 	"/>
	<polygon style="fill:#FFD2A6;" points="292.882,282.09 38.444,282.09 38.444,303.4 298.209,303.4 	"/>
	<rect x="10.789" y="324.742" style="fill:#FFD2A6;" width="383.98" height="21.342"/>
	<rect x="383.992" y="329.552" style="fill:#FFD2A6;" width="21.343" height="57.998"/>
	<rect x="42.663" y="284.902" style="fill:#FFD2A6;" width="21.336" height="144.93"/>
</g>
<polygon style="fill:#D94452;" points="149.331,250.083 149.324,459.365 85.334,459.365 85.334,250.083 "/>
<rect x="170.662" y="261.002" style="fill:#FFD2A6;" width="21.335" height="192.77"/>
<rect x="106.662" y="251.552" style="fill:#EC5564;" width="21.335" height="211.59"/>
<polygon style="fill:#D94452;" points="319.99,300.525 319.99,410.086 255.992,426.99 255.992,285.556 "/>
<rect x="213.332" y="271.892" style="fill:#FFD2A6;" width="21.328" height="173.44"/>
<rect x="277.332" y="284.902" style="fill:#EC5564;" width="21.312" height="142.09"/>
<path style="fill:#F4BE8E;" d="M140.183,473.551c62.99,0,255.46-77.309,325.036-106.152h36.108l0,0
	c5.874,0,10.655-4.75,10.655-10.654c0-5.908-4.781-10.658-10.655-10.658h-36.108c-69.576-28.842-262.046-106.159-325.036-106.159
	C62.763,239.928,0,292.216,0,356.745C0.001,421.271,62.763,473.551,140.183,473.551z M54.718,290.525
	c10.921-9.092,23.702-16.279,37.991-21.303c14.999-5.281,30.975-7.969,47.475-7.969c28.702,0,98.535,20.242,196.649,56.99
	c36.889,13.844,71.811,27.75,98.199,38.5c-26.389,10.748-61.311,24.654-98.199,38.498c-98.114,36.748-167.947,56.998-196.649,56.998
	c-16.5,0-32.476-2.688-47.475-7.969c-14.289-5.031-27.07-12.219-37.991-21.313c-21.531-17.936-33.382-41.467-33.382-66.215
	C21.336,331.994,33.186,308.463,54.718,290.525z"/>
<g>
	<rect x="149.332" y="117.332" style="fill:#FFD2A6;" width="21.328" height="77.22"/>
	<polygon style="fill:#FFD2A6;" points="117.216,123.259 501.202,123.259 501.202,144.586 117.223,144.586 	"/>
	<polygon style="fill:#FFD2A6;" points="218.657,80.588 473.095,80.588 473.095,101.931 213.329,101.931 	"/>
	<polygon style="fill:#FFD2A6;" points="219.102,229.928 473.547,229.928 473.547,208.584 213.774,208.584 	"/>
	<rect x="117.212" y="165.932" style="fill:#FFD2A6;" width="383.99" height="21.327"/>
	<rect x="106.662" y="124.442" style="fill:#FFD2A6;" width="21.335" height="57.998"/>
	<rect x="447.982" y="82.182" style="fill:#FFD2A6;" width="21.343" height="144.93"/>
</g>
<polygon style="fill:#D94452;" points="362.645,261.926 362.66,52.636 426.642,52.636 426.642,261.926 "/>
<rect x="319.992" y="58.232" style="fill:#FFD2A6;" width="21.343" height="192.78"/>
<rect x="383.992" y="48.854" style="fill:#EC5564;" width="21.343" height="211.59"/>
<polygon style="fill:#D94452;" points="191.994,211.474 191.994,101.931 255.992,85.01 255.992,226.442 "/>
<rect x="277.332" y="66.682" style="fill:#FFD2A6;" width="21.312" height="173.43"/>
<rect x="213.332" y="85.012" style="fill:#EC5564;" width="21.328" height="142.1"/>
<path style="fill:#F4BE8E;" d="M371.8,38.433c-62.997,0-255.467,77.325-325.035,106.152H10.664l0,0
	c-5.89,0-10.663,4.781-10.663,10.672s4.773,10.672,10.663,10.672h36.101c69.568,28.827,262.038,106.16,325.035,106.16
	c77.42,0,140.184-52.318,140.184-116.832S449.22,38.433,371.8,38.433z M457.265,221.474c-10.921,9.093-23.701,16.265-37.998,21.312
	c-14.999,5.281-30.968,7.953-47.468,7.953c-28.701,0-98.527-20.234-196.641-56.998c-36.897-13.813-71.826-27.734-98.208-38.483
	c26.382-10.75,61.311-24.671,98.208-38.483c98.113-36.765,167.939-56.998,196.641-56.998c16.5,0,32.469,2.672,47.468,7.953
	c14.297,5.047,27.077,12.218,37.998,21.312c21.531,17.937,33.375,41.452,33.375,66.217S478.797,203.537,457.265,221.474z"/>
</svg>