<?xml version="1.0" encoding="iso-8859-1"?>
<!-- Uploaded to: SVG Repo, www.svgrepo.com, Generator: SVG Repo Mixer Tools -->
<svg version="1.1" id="Layer_1" xmlns="http://www.w3.org/2000/svg" xmlns:xlink="http://www.w3.org/1999/xlink" 
	 viewBox="0 0 511.984 511.984" xml:space="preserve">
<path style="fill:#9ED36A;" d="M374.551,120.7c4.031-17.211,21.234-27.913,38.436-23.89c17.221,4.015,27.906,21.226,23.891,38.436
	c-4.016,17.211-40.623,110.997-57.826,106.981S370.535,137.902,374.551,120.7z"/>
<path style="fill:#EC5564;" d="M377.582,143.41c-7.578-15.961-0.781-35.054,15.172-42.632c15.969-7.586,35.063-0.789,42.639,15.172
	c7.578,15.96,37.404,112.129,21.438,119.715C440.861,243.243,385.176,159.37,377.582,143.41z"/>
<path style="fill:#A85D5D;" d="M31.999,501.327c-5.703,0-11.062-2.219-15.093-6.25c-4.031-4.03-6.25-9.391-6.25-15.093
	c0-5.688,2.219-11.063,6.25-15.093L429.017,52.796l30.172,30.171L47.076,495.077C43.046,499.108,37.686,501.327,31.999,501.327z"/>
<path style="fill:#965353;" d="M429.017,37.71L9.375,457.36c-12.5,12.5-12.5,32.749,0,45.248c6.25,6.25,14.437,9.375,22.624,9.375
	c8.188,0,16.375-3.125,22.625-9.375L474.265,82.967L429.017,37.71z M39.53,487.515c-2.719,2.719-5.89,3.125-7.531,3.125
	c-1.656,0-4.828-0.406-7.546-3.125c-2.719-2.703-3.125-5.874-3.125-7.531c0-1.656,0.406-4.828,3.125-7.531L429.017,67.881
	l15.078,15.086L39.53,487.515z"/>
<path style="fill:#CBD0D8;" d="M481.812,105.591c-20.826,20.827-54.592,20.827-75.418,0c-20.828-20.827-20.828-54.592,0-75.419
	C427.22,9.344,511.984,0.001,511.984,0.001S502.64,84.763,481.812,105.591z"/>
<polygon style="fill:#E8563F;" points="303.521,253.719 107.231,449.986 61.983,404.737 258.258,208.463 "/>
<polygon style="fill:#FB6D51;" points="288.383,238.579 92.106,434.861 77.013,419.767 273.289,223.501 "/>
<g>
	<polygon style="fill:#E8563F;" points="127.996,426.486 106.653,426.486 106.653,362.661 127.996,362.644 	"/>
	<rect x="149.322" y="321.682" style="fill:#E8563F;" width="21.328" height="63.842"/>
	<rect x="191.992" y="280.992" style="fill:#E8563F;" width="21.327" height="63.841"/>
	<polygon style="fill:#E8563F;" points="255.992,298.491 234.649,298.491 234.649,234.665 255.992,234.657 	"/>
</g>
</svg>