<?xml version="1.0" encoding="iso-8859-1"?>
<!-- Uploaded to: SVG Repo, www.svgrepo.com, Generator: SVG Repo Mixer Tools -->
<svg height="800px" width="800px" version="1.1" id="Layer_1" xmlns="http://www.w3.org/2000/svg" xmlns:xlink="http://www.w3.org/1999/xlink" 
	 viewBox="0 0 511.982 511.982" xml:space="preserve">
<path style="fill:#424953;" d="M464.715,62.356c-4.172,4.156-10.922,4.156-15.094,0c-4.156-4.171-4.156-10.921,0-15.093
	c4.172-4.172,10.922-4.172,15.094,0C468.871,51.435,468.871,58.185,464.715,62.356z"/>
<polygon style="fill:#D94452;" points="434.544,122.683 389.279,77.434 434.544,32.186 479.792,77.434 "/>
<g>
	<path style="fill:#F4BE8E;" d="M10.667,511.982c-2.734,0-5.453-1.047-7.546-3.125c-4.156-4.172-4.156-10.922,0-15.093
		l278.693-278.678c4.156-4.173,10.921-4.173,15.077,0c4.172,4.155,4.172,10.905,0,15.077L18.214,508.857
		C16.12,510.935,13.401,511.982,10.667,511.982z"/>
	<path style="fill:#F4BE8E;" d="M225.816,296.818c-5.813,0-10.577-4.673-10.656-10.517l-1.891-130.104
		c-0.078-5.891,4.625-10.733,10.516-10.827c5.891-0.063,10.734,4.624,10.813,10.515l1.891,130.105
		c0.078,5.89-4.625,10.733-10.516,10.828C225.926,296.818,225.863,296.818,225.816,296.818z"/>
</g>
<path style="fill:#FFD2A6;" d="M225.816,296.818c-1.328,0-2.672-0.25-3.969-0.767c-5.469-2.202-8.125-8.422-5.922-13.874
	l48.045-119.496c2.204-5.452,8.406-8.109,13.875-5.906c5.469,2.188,8.125,8.406,5.922,13.875l-48.045,119.479
	C234.051,294.286,230.051,296.818,225.816,296.818z"/>
<path style="fill:#F4BE8E;" d="M355.936,298.709c-0.063,0-0.108,0-0.156,0l-130.12-1.891c-5.891-0.095-10.594-4.938-10.5-10.828
	c0.079-5.828,4.844-10.5,10.656-10.5c0.047,0,0.109,0,0.156,0l130.105,1.875c5.89,0.094,10.608,4.938,10.515,10.827
	C366.514,294.036,361.75,298.709,355.936,298.709z"/>
<path style="fill:#FFD2A6;" d="M225.832,296.818c-4.234,0-8.234-2.532-9.906-6.688c-2.203-5.469,0.453-11.671,5.922-13.874
	l119.48-48.045c5.469-2.203,11.672,0.453,13.874,5.906c2.203,5.469-0.452,11.688-5.922,13.874l-119.479,48.061
	C228.504,296.568,227.144,296.818,225.832,296.818z"/>
<polygon style="fill:#EC5564;" points="511.978,456.562 55.416,0 442.075,69.887 "/>
<g style="opacity:0.2;">
	<polygon style="fill:#FFFFFF;" points="442.075,69.887 469.323,413.891 511.978,456.562 	"/>
</g>
<g style="opacity:0.1;">
	<polygon points="443.184,69.887 99.179,42.654 56.51,0 	"/>
</g>
</svg>