<?xml version="1.0" encoding="iso-8859-1"?>
<!-- Uploaded to: SVG Repo, www.svgrepo.com, Generator: SVG Repo Mixer Tools -->
<svg height="800px" width="800px" version="1.1" id="Layer_1" xmlns="http://www.w3.org/2000/svg" xmlns:xlink="http://www.w3.org/1999/xlink" 
	 viewBox="0 0 511.986 511.986" xml:space="preserve">
<path style="fill:#9ED36A;" d="M266.822,86.831c17.14,4.281,27.561,21.655,23.28,38.795c-4.297,17.14-21.656,27.562-38.804,23.281
	c-17.141-4.297-110.325-42.358-106.036-59.498C149.544,72.269,249.681,82.55,266.822,86.831z"/>
<path style="fill:#EC5564;" d="M251.275,94.221c17.055-4.64,34.623,5.422,39.28,22.468c4.641,17.046-5.407,34.624-22.461,39.264
	c-17.054,4.656-116.949,17.015-121.59-0.031C141.856,138.876,234.228,98.862,251.275,94.221z"/>
<path style="fill:#A85D5D;" d="M47.32,439.851c-3.96,4.092-9.28,6.406-14.976,6.5c-5.695,0.092-11.086-2.031-15.179-6
	c-8.453-8.172-8.68-21.703-0.508-30.156L343.6,72.285c3.953-4.094,9.281-6.391,14.983-6.484c5.688-0.094,11.078,2.031,15.188,5.984
	c8.438,8.188,8.655,21.718,0.5,30.171l0,0L47.32,439.851z"/>
<path style="fill:#965353;" d="M381.177,64.128c-12.702-12.281-32.968-11.953-45.248,0.75L8.994,402.789
	c-12.281,12.688-11.945,32.953,0.758,45.232c12.694,12.281,32.952,11.938,45.232-0.75l0,0h0.008c0-0.014,0-0.014,0-0.014h0.009
	l326.926-337.896C394.208,96.659,393.865,76.41,381.177,64.128z M366.599,94.534L40.891,431.162l0,0l-1.227,1.268l-0.008,0.016
	c-2.672,2.75-5.836,3.217-7.484,3.248c-1.648,0.018-4.836-0.326-7.594-2.998c-4.226-4.094-4.344-10.859-0.25-15.078L351.272,79.706
	c4.077-4.234,10.844-4.343,15.062-0.25C370.583,83.55,370.678,90.315,366.599,94.534z"/>
<g>
	<path style="fill:#F5BA45;" d="M298.367,73.05c-4.093,4.234-10.843,4.344-15.093,0.25c-4.219-4.094-4.344-10.843-0.25-15.078
		c4.093-4.234,10.843-4.344,15.093-0.25C302.337,62.066,302.461,68.816,298.367,73.05z"/>
	<path style="fill:#F5BA45;" d="M253.853,119.064c-4.094,4.234-10.852,4.343-15.078,0.25c-4.234-4.094-4.352-10.844-0.258-15.078
		c4.102-4.234,10.852-4.344,15.078-0.25C257.831,108.08,257.947,114.83,253.853,119.064z"/>
	<path style="fill:#F5BA45;" d="M511.986,220.311L313.695,87.878l-30.671-29.655l-44.476,45.983l30.663,29.655l-14.827,15.328
		l61.326,59.311l77.653,134.464C486.111,308.418,511.986,220.311,511.986,220.311z"/>
</g>
<g>
	<path style="fill:#FECD57;" d="M383.552,325.98l9.813,16.982c92.747-34.545,118.621-122.652,118.621-122.652l-16.594-11.077
		C489.408,225.983,460.706,294.59,383.552,325.98z"/>
	<polygon style="fill:#FECD57;" points="300.367,193.687 254.385,149.188 328.522,72.55 374.521,117.033 	"/>
</g>
<path style="fill:#424953;" d="M322.117,140.533c-4.095,4.234-10.845,4.343-15.094,0.25c-4.219-4.094-4.344-10.859-0.25-15.094
	c4.094-4.219,10.844-4.344,15.094-0.25C326.085,129.548,326.211,136.298,322.117,140.533z"/>
<g>
	<polygon style="fill:#E8563F;" points="180.019,256.638 46.57,394.617 31.235,379.791 164.692,241.81 	"/>
	<polygon style="fill:#E8563F;" points="210.682,286.293 77.225,424.273 61.898,409.445 195.347,271.465 	"/>
</g>
<polygon style="fill:#FB6D51;" points="195.253,271.574 61.898,409.445 46.57,394.617 179.918,256.747 "/>
<g>
	<polygon style="fill:#E8563F;" points="86.405,412.664 65.086,413.008 64.015,349.213 85.343,348.853 	"/>
	<polygon style="fill:#E8563F;" points="128.342,368.932 107.014,369.291 105.952,305.48 127.279,305.137 	"/>
	<polygon style="fill:#E8563F;" points="170.216,321.572 148.888,321.932 147.825,258.121 169.153,257.762 	"/>
</g>
</svg>