<?xml version="1.0" encoding="iso-8859-1"?>
<!-- Uploaded to: SVG Repo, www.svgrepo.com, Generator: SVG Repo Mixer Tools -->
<svg height="800px" width="800px" version="1.1" id="Layer_1" xmlns="http://www.w3.org/2000/svg" xmlns:xlink="http://www.w3.org/1999/xlink" 
	 viewBox="0 0 511.986 511.986" xml:space="preserve">
<path style="fill:#424953;" d="M437.001,74.985c99.98,99.966,99.98,262.062,0,362.026c-99.98,99.966-262.054,99.966-362.026,0
	c-99.966-99.965-99.966-262.061,0-362.026C174.947-24.995,337.021-24.995,437.001,74.985z"/>
<path id="SVGCleanerId_0" style="fill:#E5E8EC;" d="M74.975,74.985c-99.966,99.966-99.966,262.062,0,362.026
	c40.959,40.937,92.341,65.123,145.604,72.499c-36.218-17.531-87.208-55.593-87.208-130.871c0-116.77,122.62-122.645,122.62-122.645
	s122.621-5.891,122.621-122.652c0-75.294-50.998-113.34-87.217-130.886C214.65-8.199,133.997,15.972,74.975,74.985z"/>
<g>
	<path id="SVGCleanerId_0_1_" style="fill:#E5E8EC;" d="M74.975,74.985c-99.966,99.966-99.966,262.062,0,362.026
		c40.959,40.937,92.341,65.123,145.604,72.499c-36.218-17.531-87.208-55.593-87.208-130.871c0-116.77,122.62-122.645,122.62-122.645
		s122.621-5.891,122.621-122.652c0-75.294-50.998-113.34-87.217-130.886C214.65-8.199,133.997,15.972,74.975,74.985z"/>
</g>
<path style="fill:#CBD0D8;" d="M256.766,362.671c-17.648,0-31.999,14.343-31.999,32c0,17.624,14.351,31.998,31.999,31.998
	c17.632,0,31.989-14.374,31.989-31.998C288.755,377.014,274.397,362.671,256.766,362.671z"/>
<path style="fill:#424953;" d="M256.766,106.656c-17.648,0-31.999,14.359-31.999,32.015c0,17.64,14.351,31.999,31.999,31.999
	c17.632,0,31.989-14.359,31.989-31.999C288.755,121.015,274.397,106.656,256.766,106.656z"/>
<path style="fill:#646C77;" d="M256.766,96c-17.648,0-31.999,14.359-31.999,31.999c0,17.641,14.351,31.999,31.999,31.999
	c17.632,0,31.989-14.358,31.989-31.999C288.755,110.359,274.397,96,256.766,96z"/>
<path style="fill:#E5E8EC;" d="M256.766,351.984c-17.648,0-31.999,14.374-31.999,31.998c0,17.655,14.351,31.999,31.999,31.999
	c17.632,0,31.989-14.344,31.989-31.999C288.755,366.358,274.397,351.984,256.766,351.984z"/>
<g style="opacity:0.2;">
	<path style="fill:#FFFFFF;" d="M74.975,85.641c99.973-99.966,262.046-99.966,362.026,0c48.639,48.639,73.607,111.965,74.92,175.681
		c1.391-67.278-23.578-134.994-74.92-186.337c-99.98-99.98-262.054-99.98-362.026,0C23.633,126.328-1.327,194.044,0.063,261.322
		C1.384,197.606,26.351,134.28,74.975,85.641z"/>
</g>
<g style="opacity:0.1;">
	<path d="M436.986,426.325c-99.965,99.996-262.046,99.996-362.02,0c-48.622-48.624-73.59-111.934-74.91-175.658
		c-1.391,67.286,23.569,135.004,74.911,186.345c99.974,99.966,262.055,99.966,362.02,0c51.342-51.341,76.311-119.059,74.936-186.345
		C510.594,314.391,485.626,377.701,436.986,426.325z"/>
</g>
</svg>