<?xml version="1.0" encoding="iso-8859-1"?>
<!-- Uploaded to: SVG Repo, www.svgrepo.com, Generator: SVG Repo Mixer Tools -->
<!DOCTYPE svg PUBLIC "-//W3C//DTD SVG 1.1//EN" "http://www.w3.org/Graphics/SVG/1.1/DTD/svg11.dtd">
<svg fill="#000000" version="1.1" id="Capa_1" xmlns="http://www.w3.org/2000/svg" xmlns:xlink="http://www.w3.org/1999/xlink" 
	 width="800px" height="800px" viewBox="0 0 195.929 195.929"
	 xml:space="preserve">
<g>
	<path d="M164.98,0c-1.804,0-3.23,1.377-3.429,3.129H34.372C34.177,1.377,32.746,0,30.941,0c-1.937,0-3.504,1.567-3.504,3.504v3.129
		v14.017v3.129c0,1.939,1.567,3.504,3.504,3.504c1.805,0,3.235-1.377,3.431-3.129h8.239c12.99,23.892,6.206,47.683-1.017,72.841
		c-6.991,24.354-14.198,49.486-2.183,74.775h-5.039c-0.195-1.752-1.626-3.127-3.431-3.127c-1.937,0-3.504,1.566-3.504,3.504v3.128
		v14.017v3.132c0,1.94,1.567,3.504,3.504,3.504c1.805,0,3.235-1.379,3.431-3.131h127.18c0.201,1.752,1.629,3.131,3.432,3.131
		c1.94,0,3.505-1.563,3.505-3.504v-3.132v-14.017v-3.128c0-1.938-1.564-3.504-3.505-3.504c-1.803,0-3.23,1.375-3.432,3.127h-9.127
		c-12.991-23.89-6.188-47.681,1.033-72.837c6.995-24.355,14.198-49.489,2.184-74.779h5.917c0.198,1.752,1.625,3.129,3.429,3.129
		c1.937,0,3.504-1.565,3.504-3.504v-3.129V6.634V3.504C168.484,1.571,166.917,0,164.98,0z M161.477,185.789H34.445v-7.009h127.031
		V185.789z M146.72,96.996c-6.954,24.217-14.127,49.198-2.402,74.338H47.023c-12.665-23.743-5.877-47.397,1.302-72.399
		c6.954-24.215,14.127-49.199,2.401-74.341h97.301C160.692,48.338,153.899,71.992,146.72,96.996z M34.445,10.138h127.031v7.008
		H34.445V10.138z"/>
</g>
</svg>