<?xml version="1.0" encoding="iso-8859-1"?>
<!-- Uploaded to: SVG Repo, www.svgrepo.com, Generator: SVG Repo Mixer Tools -->
<!DOCTYPE svg PUBLIC "-//W3C//DTD SVG 1.1//EN" "http://www.w3.org/Graphics/SVG/1.1/DTD/svg11.dtd">
<svg fill="#000000" version="1.1" id="Capa_1" xmlns="http://www.w3.org/2000/svg" xmlns:xlink="http://www.w3.org/1999/xlink" 
	 width="800px" height="800px" viewBox="0 0 183.976 183.975"
	 xml:space="preserve">
<g>
	<path d="M170.167,50.629c0-18.882-14.236-34.475-32.531-36.682V3.504c0-1.939-1.571-3.504-3.504-3.504H50.788
		c-1.934,0-3.504,1.565-3.504,3.504v10.326c-18.751,1.772-33.476,17.595-33.476,36.798c0,12.489,6.174,23.844,16.516,30.729
		c-4.451,7.854-6.731,15.878-6.731,23.917c0,27.199,25.192,47.981,45.198,60.206c-15.118,2.56-23.574,7.837-23.574,14.989
		c0,1.937,1.569,3.504,3.504,3.504h85.752c1.937,0,3.504-1.567,3.504-3.504c0-7.152-8.452-12.43-23.571-14.989
		c20.006-12.217,45.2-33.007,45.2-60.206c0-8.06-2.105-16.076-6.105-23.82C163.938,74.581,170.167,63.185,170.167,50.629z
		 M54.292,7.008h76.334v6.906c-11.266,1.695-19.931,11.445-19.931,23.175c0,8.157,4.343,15.85,11.122,19.932
		c8.617,6.107,21.601,17.248,27.569,32.115h-10.514c-1.937,0-3.504,1.567-3.504,3.504v21.464h-17.959V92.641
		c0-1.937-1.574-3.504-3.505-3.504h-24.97c-1.935,0-3.504,1.567-3.504,3.504v21.464H67.473V92.641c0-1.937-1.571-3.504-3.504-3.504
		H39c-1.935,0-3.504,1.567-3.504,3.504v21.611h-3.744c-0.71-2.909-1.155-5.896-1.155-8.98c0-20.659,17.83-37.64,32.79-48.255
		c0.245-0.175,0.455-0.37,0.633-0.596c6.322-4.344,10.198-11.633,10.198-19.338c0-11.733-8.667-21.479-19.932-23.175V7.008H54.292z
		 M20.82,50.629c0-16.525,13.445-29.969,29.971-29.969c9.055,0,16.428,7.371,16.428,16.43c0,5.806-2.974,11.069-7.955,14.075
		c-0.385,0.232-0.703,0.534-0.946,0.876C47.989,59.502,39.9,67.372,34.122,75.47C25.789,69.885,20.82,60.714,20.82,50.629z
		 M101.806,164.616c-1.379,0.732-2.102,2.29-1.779,3.816c0.321,1.526,1.615,2.655,3.165,2.771
		c13.199,0.992,20.79,3.474,24.603,5.767H55.418c3.812-2.29,11.396-4.774,24.597-5.767c1.552-0.116,2.845-1.245,3.164-2.771
		c0.322-1.526-0.404-3.08-1.776-3.816c-15.164-8.106-38.5-23.284-47.274-43.349h5.453c1.934,0,3.504-1.566,3.504-3.504V96.149
		h17.381v21.464c0,1.937,1.569,3.504,3.504,3.504H88.94c1.934,0,3.504-1.567,3.504-3.504V96.149h17.958v21.464
		c0,1.937,1.57,3.504,3.504,3.504h24.968c1.938,0,3.505-1.567,3.505-3.504V96.149h9.171c0.657,2.93,1.055,5.968,1.055,9.127
		C152.604,133.287,120.778,154.476,101.806,164.616z M149.948,75.407c-5.711-8.648-13.859-16.854-24.287-24.243
		c-4.979-3.003-7.956-8.266-7.956-14.075c0-8.951,7.207-16.223,16.115-16.397c16.231,0.344,29.338,13.625,29.338,29.937
		C163.158,60.683,158.224,69.815,149.948,75.407z"/>
</g>
</svg>