<?xml version="1.0" encoding="iso-8859-1"?>
<!-- Uploaded to: SVG Repo, www.svgrepo.com, Generator: SVG Repo Mixer Tools -->
<!DOCTYPE svg PUBLIC "-//W3C//DTD SVG 1.1//EN" "http://www.w3.org/Graphics/SVG/1.1/DTD/svg11.dtd">
<svg fill="#000000" version="1.1" id="Capa_1" xmlns="http://www.w3.org/2000/svg" xmlns:xlink="http://www.w3.org/1999/xlink" 
	 width="800px" height="800px" viewBox="0 0 186.706 186.707"
	 xml:space="preserve">
<g>
	<g>
		<path d="M165.046,94.479c0-23.848-8.217-46.615-22.601-63.004c5.452-2.738,9.243-8.323,9.243-14.826
			c0-9.179-7.467-16.646-16.645-16.646c-9.179,0-16.646,7.467-16.646,16.646c0,5.167,2.412,9.734,6.125,12.79
			c0.007,0.767,0.22,1.535,0.746,2.175c9.035,10.959,14.004,25.568,14.004,41.141c0,19.902-8.401,38.39-22.053,48.958
			c-1.105-1.684-2.628-3.032-4.414-3.867V75.78h9.821c0.021,0,0.048-0.003,0.072,0c1.934,0,3.504-1.567,3.504-3.504
			c0-0.748-0.236-1.441-0.633-2.009l-6.749-15.184c-0.562-1.265-1.817-2.081-3.203-2.081H69.28c-1.384,0-2.638,0.812-3.203,2.081
			l-7.008,15.769c-0.483,1.087-0.382,2.337,0.263,3.333c0.645,0.994,1.752,1.595,2.937,1.595h9.823v42.065
			c-1.869,0.873-3.453,2.3-4.57,4.1c-13.843-10.526-22.354-29.093-22.354-49.19c0-15.81,5.106-30.526,14.361-41.533
			c5.2-2.818,8.781-8.256,8.781-14.577C68.31,7.467,60.843,0,51.664,0c-9.178,0-16.645,7.467-16.645,16.645
			c0,6.502,3.788,12.089,9.24,14.825C29.874,47.864,21.661,70.631,21.661,94.476c0,32.083,14.672,61.438,38.297,76.653l-1.034,3.326
			c-0.104,0.339-0.157,0.688-0.157,1.04c0,6.185,4.717,11.212,10.513,11.212h46.339c5.798,0,10.513-5.031,10.513-11.212
			c0-0.353-0.051-0.701-0.157-1.04l-0.746-2.398C149.793,157.128,165.046,127.486,165.046,94.479z M135.044,7.008
			c5.314,0,9.637,4.32,9.637,9.637c0,5.315-4.322,9.637-9.637,9.637c-5.318,0-9.637-4.322-9.637-9.637
			C125.407,11.329,129.726,7.008,135.044,7.008z M105.798,116.901H95.727V75.78h10.071V116.901z M71.557,60.011h41.787l3.891,8.761
			h-7.933H75.599h-7.934L71.557,60.011z M88.718,75.78v41.121h-9.615V75.78H88.718z M51.668,7.008c5.316,0,9.637,4.32,9.637,9.637
			c0,3.896-2.334,7.24-5.671,8.757c-0.014,0.01-0.027,0.017-0.041,0.024c-1.203,0.539-2.523,0.855-3.925,0.855
			c-5.316,0-9.637-4.322-9.637-9.637C42.031,11.329,46.352,7.008,51.668,7.008z M62.145,164.12
			c-20.682-14.229-33.472-40.669-33.472-69.641c0-18.921,5.588-37.013,15.465-51.329c-3.875,9.045-5.975,19.106-5.975,29.605
			c0,23.415,10.562,45.081,27.569,56.555c0.014,0.006,0.031,0.014,0.044,0.02v23.124L62.145,164.12z M115.619,179.705H69.28
			c-1.802,0-3.291-1.64-3.484-3.734l6.831-21.945c0.104-0.336,0.157-0.685,0.157-1.041v-24.872c0-2.313,1.574-4.202,3.504-4.202
			h32.322c1.931,0,3.505,1.889,3.505,4.202v24.872c0,0.356,0.055,0.705,0.157,1.041l6.831,21.945
			C118.911,178.065,117.423,179.705,115.619,179.705z M123.065,165.119l-3.941-12.668v-23.452c0.048-0.027,0.099-0.038,0.144-0.069
			c16.666-11.557,27.015-33.078,27.015-56.174c0-13.8-3.621-26.917-10.232-37.881c13.962,15.194,21.987,36.831,21.987,59.605
			C158.037,124.368,144.681,151.16,123.065,165.119z"/>
		<path d="M94.567,152.754c-1.297-1.07-3.161-1.07-4.458,0l-16.967,13.987c-1.143,0.94-1.569,2.494-1.069,3.887
			c0.501,1.39,1.822,2.317,3.299,2.317h33.931c1.479,0,2.8-0.928,3.299-2.317c0.5-1.393,0.076-2.949-1.067-3.887L94.567,152.754z
			 M85.13,165.941L92.339,160l7.203,5.941H85.13z"/>
		<path d="M90.028,148.775c0.671,0.619,1.524,0.931,2.38,0.931c0.862,0,1.722-0.314,2.395-0.944l11.991-11.218
			c1.051-0.982,1.393-2.512,0.865-3.847c-0.526-1.342-1.82-2.221-3.258-2.221H80.273c-1.444,0-2.737,0.883-3.263,2.228
			c-0.525,1.342-0.175,2.871,0.883,3.854L90.028,148.775z M95.524,138.488l-3.13,2.93l-3.168-2.93H95.524z"/>
	</g>
</g>
</svg>