<?xml version="1.0" encoding="iso-8859-1"?>
<!-- Uploaded to: SVG Repo, www.svgrepo.com, Generator: SVG Repo Mixer Tools -->
<!DOCTYPE svg PUBLIC "-//W3C//DTD SVG 1.1//EN" "http://www.w3.org/Graphics/SVG/1.1/DTD/svg11.dtd">
<svg fill="#000000" version="1.1" id="Capa_1" xmlns="http://www.w3.org/2000/svg" xmlns:xlink="http://www.w3.org/1999/xlink" 
	 width="800px" height="800px" viewBox="0 0 204.344 204.344"
	 xml:space="preserve">
<g>
	<g>
		<path d="M105.676,90.213c0-2.481-0.691-4.949-1.998-7.139c-0.063-0.122-0.134-0.238-0.211-0.354
			c-0.76-1.198-1.716-2.278-2.842-3.217l-36.48-40.607c-2.619-3.858-6.93-6.153-11.584-6.153c-3.735,0-7.346,1.535-9.984,4.233
			c-0.154,0.121-0.298,0.255-0.431,0.405L5.039,78.684c-1.08,0.9-1.997,1.927-2.738,3.056c-0.192,0.238-0.349,0.504-0.465,0.785
			C0.629,84.646,0,87.01,0,89.39c0,7.731,6.286,14.017,14.017,14.017c4.24,0,8.179-1.899,10.867-5.226
			c0.063-0.066,0.125-0.137,0.185-0.207l13.478-16.214v52.614c0,7.73,6.287,14.017,14.018,14.017c7.73,0,14.017-6.286,14.017-14.017
			V81.918l14.027,16.876c0.053,0.063,0.108,0.126,0.164,0.187c2.692,3.34,6.637,5.251,10.888,5.251
			C99.385,104.232,105.676,97.94,105.676,90.213z M91.657,97.222c-2.175,0-4.201-1.02-5.554-2.796
			c-0.101-0.133-0.21-0.256-0.325-0.371L65.772,69.983c-0.946-1.136-2.495-1.554-3.886-1.056c-1.388,0.501-2.313,1.818-2.313,3.293
			v62.146c0,3.867-3.143,7.009-7.008,7.009c-3.866,0-7.009-3.142-7.009-7.009v-62.31c0-1.475-0.926-2.792-2.313-3.294
			c-0.388-0.14-0.792-0.21-1.191-0.21c-1.023,0-2.016,0.448-2.695,1.266L19.918,93.206c-0.126,0.12-0.243,0.251-0.351,0.392
			c-1.354,1.778-3.375,2.798-5.551,2.798c-3.865,0-7.009-3.145-7.009-7.009c0-1.263,0.354-2.481,1.051-3.621
			c0.036-0.06,0.07-0.12,0.103-0.178c0.392-0.601,0.896-1.15,1.502-1.634c0.147-0.118,0.288-0.248,0.414-0.388l36.953-41.131
			c0.13-0.104,0.248-0.219,0.364-0.346c2.996-3.312,8.649-2.808,11.042,0.873c0.1,0.15,0.21,0.298,0.334,0.435l36.822,40.992
			c0.126,0.144,0.267,0.274,0.417,0.392c0.606,0.488,1.11,1.039,1.511,1.647c0.027,0.057,0.058,0.108,0.091,0.161
			c0.696,1.143,1.05,2.359,1.05,3.624C98.666,94.079,95.522,97.222,91.657,97.222z"/>
		<path d="M190.326,100.94c-4.25,0-8.192,1.906-10.886,5.247c-0.058,0.058-0.112,0.119-0.167,0.185l-13.477,16.214V69.977
			c0-7.731-6.29-14.018-14.018-14.018c-7.734,0-14.017,6.287-14.017,14.018v52.448l-14.024-16.879
			c-0.062-0.068-0.123-0.137-0.185-0.201c-2.684-3.33-6.622-5.229-10.869-5.229c-7.732,0-14.019,6.287-14.019,14.018
			c0,2.501,0.698,4.985,2.022,7.189c0.053,0.1,0.112,0.198,0.171,0.287c0.755,1.191,1.711,2.276,2.846,3.225l36.49,40.613
			c2.621,3.857,6.93,6.153,11.584,6.153c3.74,0,7.357-1.54,10-4.243c0.146-0.12,0.287-0.253,0.417-0.397l37.106-41.302
			c1.071-0.896,1.988-1.916,2.721-3.035c0.199-0.243,0.359-0.514,0.479-0.798c1.204-2.118,1.841-4.486,1.841-6.871
			C204.344,107.23,198.054,100.94,190.326,100.94z M196.285,118.571c-0.031,0.055-0.062,0.103-0.086,0.157
			c-0.394,0.605-0.903,1.167-1.523,1.66c-0.146,0.119-0.283,0.249-0.414,0.39L157.3,161.923c-0.12,0.1-0.236,0.212-0.346,0.332
			c-2.998,3.316-8.651,2.813-11.051-0.869c-0.099-0.15-0.208-0.298-0.332-0.435l-36.836-40.998c-0.123-0.14-0.26-0.267-0.403-0.383
			c-0.63-0.51-1.146-1.074-1.533-1.684c-0.024-0.041-0.048-0.082-0.075-0.127c-0.698-1.14-1.048-2.361-1.048-3.627
			c0-3.864,3.142-7.009,7.009-7.009c2.177,0,4.202,1.02,5.551,2.796c0.103,0.144,0.219,0.271,0.346,0.39l19.992,24.055
			c0.948,1.133,2.502,1.558,3.884,1.054c1.39-0.503,2.313-1.816,2.313-3.295V69.977c0-3.866,3.146-7.009,7.009-7.009
			c3.867,0,7.009,3.143,7.009,7.009v62.311c0,1.472,0.928,2.793,2.313,3.292c1.393,0.5,2.943,0.082,3.888-1.054l19.455-23.408
			c0.116-0.112,0.222-0.235,0.331-0.369c1.355-1.779,3.382-2.8,5.551-2.8c3.867,0,7.009,3.142,7.009,7.009
			C197.335,116.224,196.979,117.441,196.285,118.571z"/>
	</g>
</g>
</svg>