<?xml version="1.0" encoding="iso-8859-1"?>
<!-- Uploaded to: SVG Repo, www.svgrepo.com, Generator: SVG Repo Mixer Tools -->
<!DOCTYPE svg PUBLIC "-//W3C//DTD SVG 1.1//EN" "http://www.w3.org/Graphics/SVG/1.1/DTD/svg11.dtd">
<svg fill="#000000" version="1.1" id="Capa_1" xmlns="http://www.w3.org/2000/svg" xmlns:xlink="http://www.w3.org/1999/xlink" 
	 width="800px" height="800px" viewBox="0 0 161.718 161.718"
	 xml:space="preserve">
<g>
	<g>
		<g>
			<path d="M138.241,72.356h-27.076V33.258c0-1.934-1.566-3.504-3.504-3.504H96.279H85.657c6.437-1.752,11.211-7.594,11.211-14.582
				C96.868,6.805,90.062,0,81.696,0c-8.367,0-15.172,6.805-15.172,15.172c0,6.988,4.772,12.83,11.213,14.582H67.108H55.733
				c-1.938,0-3.504,1.571-3.504,3.504v39.098H23.476c-1.938,0-3.504,1.569-3.504,3.504v12.828c0,1.931,1.566,3.505,3.504,3.505
				h9.637v66.02c0,1.931,1.566,3.505,3.504,3.505h88.483c1.938,0,3.504-1.574,3.504-3.505v-66.02h9.637
				c1.938,0,3.505-1.574,3.505-3.505V75.86C141.746,73.922,140.179,72.356,138.241,72.356z M73.532,15.172
				c0-4.502,3.662-8.163,8.164-8.163c4.5,0,8.164,3.661,8.164,8.163c0,4.504-3.663,8.166-8.164,8.166
				C77.194,23.334,73.532,19.672,73.532,15.172z M104.157,72.356H99.79l-0.007-35.594h4.374V72.356z M70.613,36.763h0.868
				l6.711,14.193v13.543c0,1.936,1.567,3.504,3.504,3.504c1.938,0,3.504-1.569,3.504-3.504V50.064l7.574-12.39l0.008,34.679H70.616
				L70.613,36.763z M59.238,36.763h4.367l0.003,35.594h-4.37V36.763z M40.122,92.193h32.391C59.003,96.17,49.1,108.664,49.1,123.451
				c0,14.783,9.898,27.277,23.413,31.258H40.122V92.193z M81.696,97.856c14.111,0,25.589,11.481,25.589,25.588
				c0,14.109-11.479,25.591-25.589,25.591c-14.111,0-25.587-11.481-25.587-25.591C56.108,109.338,67.588,97.856,81.696,97.856z
				 M121.597,154.709H90.879c13.511-3.98,23.415-16.475,23.415-31.258c0-14.787-9.9-27.281-23.415-31.258h30.718V154.709z
				 M134.737,85.185h-9.637H36.617H26.98v-5.819h40.132h29.174c0.023,0,0.048,0,0.068,0h38.383V85.185z"/>
		</g>
		<g>
			<path d="M75.165,137.475c-1.939,0-3.504,1.571-3.504,3.505c0,1.937,1.565,3.504,3.504,3.504h13.723
				c1.937,0,3.504-1.567,3.504-3.504c0-1.934-1.567-3.505-3.504-3.505H85.53v-10.52h3.357c1.937,0,3.504-1.574,3.504-3.504
				c0-1.938-1.567-3.505-3.504-3.505h-3.12c2.456-1.423,4.126-4.045,4.126-7.073c0-4.521-3.678-8.196-8.198-8.196
				c-4.521,0-8.196,3.676-8.196,8.196c0,3.028,1.672,5.65,4.125,7.073h-2.46c-1.939,0-3.504,1.567-3.504,3.505
				c0,1.93,1.565,3.504,3.504,3.504h3.357v10.52H75.165z M81.696,111.686c0.655,0,1.189,0.534,1.189,1.188s-0.534,1.188-1.189,1.188
				c-0.656,0-1.188-0.534-1.188-1.188S81.044,111.686,81.696,111.686z"/>
		</g>
	</g>
</g>
</svg>