<?xml version="1.0" encoding="iso-8859-1"?>
<!-- Uploaded to: SVG Repo, www.svgrepo.com, Generator: SVG Repo Mixer Tools -->
<!DOCTYPE svg PUBLIC "-//W3C//DTD SVG 1.1//EN" "http://www.w3.org/Graphics/SVG/1.1/DTD/svg11.dtd">
<svg fill="#000000" version="1.1" id="Capa_1" xmlns="http://www.w3.org/2000/svg" xmlns:xlink="http://www.w3.org/1999/xlink" 
	 width="800px" height="800px" viewBox="0 0 153.746 153.746"
	 xml:space="preserve">
<g>
	<g>
		<path d="M51.438,37.156c1.3,0,2.591-0.187,3.841-0.547c3.385-0.987,6.199-3.265,7.708-6.241c1.343-2.638,1.588-5.597,0.705-8.382
			l-1.129-10.533c-0.122-1.157-0.81-2.177-1.836-2.721c-1.023-0.542-2.257-0.542-3.287-0.004l-10.2,5.394
			c-3.222,1.041-5.881,3.26-7.339,6.129c-1.408,2.775-1.608,5.909-0.561,8.814C41.079,33.903,45.94,37.156,51.438,37.156z
			 M46.151,23.426c0.64-1.263,1.884-2.243,3.418-2.691c0.226-0.066,0.45-0.154,0.661-0.267l5.918-3.133l0.62,5.771
			c0.031,0.281,0.091,0.554,0.19,0.816c0.496,1.374,0.157,2.534-0.217,3.263c-0.642,1.258-1.889,2.244-3.427,2.692
			c-0.611,0.178-1.241,0.267-1.875,0.267c-2.508,0-4.769-1.42-5.501-3.46C45.439,25.315,45.779,24.155,46.151,23.426z"/>
		<path d="M8.584,46.077c0.113,2.832,1.304,5.513,3.385,7.597c2.407,2.411,5.817,3.792,9.365,3.792
			c7.039,0,12.766-5.316,12.766-11.848c0-6.417-5.527-11.659-12.395-11.846l-11.562-2.294c-1.191-0.253-2.392,0.15-3.217,1.013
			c-0.826,0.866-1.155,2.095-0.873,3.258L8.584,46.077z M20.649,40.711c0.224,0.046,0.457,0.07,0.685,0.07
			c3.17,0,5.758,2.17,5.758,4.841c0,2.669-2.584,4.839-5.758,4.839c-1.698,0-3.303-0.635-4.406-1.735
			c-0.612-0.616-1.348-1.653-1.345-3.097c0-0.284-0.036-0.564-0.098-0.842l-1.314-5.357L20.649,40.711z"/>
		<path d="M15.379,89.628c7.038,0,12.759-5.314,12.759-11.841c0.003-3-1.203-5.862-3.393-8.06c-2.318-2.323-5.578-3.69-8.995-3.785
			L4.19,63.648c-1.188-0.25-2.39,0.147-3.217,1.011c-0.828,0.866-1.157,2.092-0.873,3.256l2.525,10.326
			C2.886,84.562,8.507,89.628,15.379,89.628z M14.696,72.878c0.224,0.046,0.462,0.07,0.689,0.07c1.695,0,3.297,0.635,4.397,1.731
			c0.618,0.616,1.35,1.653,1.347,3.101c0,2.669-2.579,4.839-5.751,4.839c-3.171,0-5.758-2.17-5.758-4.839
			c0-0.281-0.034-0.562-0.098-0.83l-1.311-5.354L14.696,72.878z"/>
		<path d="M30.773,117.224c2.495-2.251,3.869-5.273,3.869-8.507c-0.003-3.234-1.381-6.253-3.872-8.498
			C26.082,96,18.101,95.894,13.295,99.956l-9.96,5.729c-1.086,0.63-1.755,1.786-1.755,3.039c0,1.252,0.669,2.409,1.755,3.038
			l9.96,5.726c2.351,1.988,5.385,3.083,8.588,3.083C25.216,120.57,28.373,119.384,30.773,117.224z M17.679,112.016
			c-0.187-0.164-0.387-0.315-0.601-0.438l-4.973-2.854l4.973-2.861c0.214-0.123,0.414-0.267,0.601-0.431
			c2.204-1.992,6.184-1.992,8.396,0c1.001,0.903,1.552,2.073,1.555,3.292c0,1.225-0.551,2.396-1.548,3.292
			C23.869,114.011,19.882,114.011,17.679,112.016z"/>
		<path d="M28.741,124.178l-9.952,5.726c-1.087,0.626-1.756,1.79-1.756,3.039s0.669,2.412,1.756,3.035l9.952,5.729
			c2.351,1.992,5.386,3.083,8.593,3.083c3.34,0,6.497-1.188,8.891-3.347c2.495-2.255,3.869-5.27,3.869-8.504
			c0-3.23-1.377-6.249-3.869-8.494C41.546,120.215,33.549,120.105,28.741,124.178z M41.531,136.237c-2.21,1.999-6.199,1.985-8.396,0
			c-0.185-0.164-0.382-0.308-0.599-0.438l-4.969-2.854l4.969-2.854c0.217-0.131,0.414-0.274,0.599-0.438
			c2.206-1.991,6.196-1.999,8.396,0c1.003,0.903,1.554,2.073,1.554,3.292S42.534,135.334,41.531,136.237z"/>
		<path d="M118.984,74.343c0-11.701-2.269-23.293-6.57-33.529c-0.746-1.788-2.813-2.628-4.586-1.875
			c-1.786,0.75-2.624,2.803-1.875,4.587c3.938,9.389,6.022,20.045,6.022,30.82c0,29.462-15.245,54.281-35.906,61.734
			c-19.859-8.121-34.314-32.483-34.314-61.19c0-10.78,2.086-21.437,6.025-30.825c0.75-1.783-0.087-3.836-1.875-4.585
			c-1.766-0.755-3.836,0.087-4.587,1.874c-4.298,10.237-6.57,21.828-6.57,33.532c0,27.676,12.511,51.647,30.688,63.386
			c-0.754,0.041-1.497,0.15-2.257,0.15c-1.938,0-3.504,1.563-3.504,3.504c0,1.938,1.566,3.505,3.504,3.505
			c4.437,0,8.729-0.732,12.867-1.981c4.636,1.595,9.488,2.521,14.519,2.521c1.938,0,3.504-1.567,3.504-3.504
			s-1.566-3.504-3.504-3.504c-1.297,0-2.573-0.124-3.85-0.254C105.744,127.367,118.984,102.816,118.984,74.343z"/>
		<path d="M98.459,36.066c1.245,0.364,2.539,0.545,3.839,0.545c5.496,0,10.359-3.251,12.094-8.086
			c1.055-2.916,0.853-6.052-0.558-8.828c-1.461-2.867-4.12-5.082-7.337-6.119L96.296,8.182c-1.026-0.539-2.252-0.544-3.289,0.003
			c-1.026,0.542-1.711,1.562-1.834,2.719l-1.129,10.533c-0.88,2.794-0.63,5.754,0.711,8.393
			C92.268,32.806,95.077,35.077,98.459,36.066z M96.782,23.376c0.092-0.258,0.153-0.532,0.188-0.81l0.619-5.768l5.917,3.133
			c0.216,0.111,0.432,0.204,0.661,0.267c1.529,0.449,2.775,1.422,3.415,2.68c0.373,0.732,0.712,1.893,0.216,3.28
			c-0.914,2.548-4.356,4.062-7.375,3.183c-1.533-0.45-2.782-1.427-3.422-2.685C96.624,25.921,96.289,24.757,96.782,23.376z"/>
		<path d="M132.399,56.922c6.872,0,12.494-5.066,12.758-11.385l2.525-10.33c0.284-1.164-0.044-2.391-0.872-3.256
			c-0.828-0.864-2.036-1.261-3.217-1.013l-11.567,2.296c-3.412,0.094-6.666,1.461-8.986,3.785c-2.193,2.197-3.398,5.057-3.395,8.056
			C119.646,51.607,125.367,56.922,132.399,56.922z M127.999,41.974c1.098-1.1,2.703-1.735,4.404-1.735
			c0.229,0,0.458-0.024,0.684-0.07l6.482-1.287l-1.311,5.359c-0.065,0.272-0.097,0.549-0.097,0.83c0,2.671-2.583,4.839-5.759,4.839
			c-3.166,0-5.75-2.168-5.75-4.846C126.65,43.624,127.383,42.59,127.999,41.974z"/>
		<path d="M152.771,64.114c-0.824-0.866-2.036-1.258-3.213-1.013l-11.57,2.292c-6.865,0.187-12.389,5.426-12.389,11.846
			c0,6.531,5.722,11.849,12.758,11.849c6.872,0,12.494-5.064,12.755-11.387l2.535-10.326
			C153.929,66.21,153.597,64.983,152.771,64.114z M144.213,76.403c-0.065,0.274-0.096,0.554-0.096,0.835
			c0,2.67-2.584,4.84-5.76,4.84c-3.169,0-5.749-2.17-5.749-4.84c0-2.671,2.577-4.841,5.749-4.841c0.229,0,0.459-0.024,0.681-0.068
			l6.489-1.287L144.213,76.403z"/>
		<path d="M150.407,105.144l-9.962-5.729c-4.802-4.065-12.792-3.956-17.471,0.264c-2.498,2.248-3.874,5.263-3.877,8.497
			c0,3.23,1.376,6.252,3.87,8.508c2.396,2.155,5.555,3.347,8.891,3.347c3.2,0,6.235-1.095,8.587-3.087l9.962-5.726
			c1.085-0.626,1.755-1.786,1.755-3.035C152.162,106.93,151.492,105.767,150.407,105.144z M136.653,111.037
			c-0.212,0.123-0.41,0.267-0.599,0.438c-2.204,1.992-6.194,1.985-8.395,0.004c-1.003-0.907-1.554-2.078-1.554-3.296
			c0.003-1.226,0.554-2.392,1.561-3.296c1.099-0.995,2.594-1.543,4.195-1.543s3.094,0.548,4.192,1.543
			c0.188,0.168,0.387,0.315,0.599,0.438l4.973,2.857L136.653,111.037z"/>
		<path d="M134.952,129.359l-9.958-5.726c-4.805-4.069-12.799-3.96-17.484,0.267c-2.494,2.256-3.87,5.271-3.87,8.504
			c0,3.23,1.379,6.249,3.87,8.501c2.396,2.152,5.551,3.34,8.895,3.34c3.203,0,6.235-1.092,8.59-3.08l9.958-5.729
			c1.085-0.63,1.756-1.786,1.756-3.039C136.708,131.139,136.037,129.981,134.952,129.359z M121.202,135.259
			c-0.216,0.123-0.414,0.267-0.603,0.435c-2.203,1.988-6.193,1.988-8.395,0c-1.003-0.9-1.554-2.07-1.554-3.292
			c0-1.219,0.551-2.393,1.554-3.296c1.099-0.996,2.595-1.543,4.199-1.543c1.605,0,3.097,0.547,4.195,1.543
			c0.188,0.168,0.387,0.315,0.603,0.438l4.973,2.854L121.202,135.259z"/>
	</g>
</g>
</svg>