<?xml version="1.0" encoding="iso-8859-1"?>
<!-- Uploaded to: SVG Repo, www.svgrepo.com, Generator: SVG Repo Mixer Tools -->
<!DOCTYPE svg PUBLIC "-//W3C//DTD SVG 1.1//EN" "http://www.w3.org/Graphics/SVG/1.1/DTD/svg11.dtd">
<svg fill="#000000" version="1.1" id="Capa_1" xmlns="http://www.w3.org/2000/svg" xmlns:xlink="http://www.w3.org/1999/xlink" 
	 width="800px" height="800px" viewBox="0 0 217.27 217.27"
	 xml:space="preserve">
<g>
	<g>
		<path d="M19.491,56.366c0.098,0,0.204-0.003,0.301-0.014l114.765-9.931c1.663-0.144,2.991-1.441,3.183-3.104l4.415-39.423
			c0.123-1.123-0.302-2.242-1.144-2.994c-0.842-0.76-1.984-1.068-3.107-0.811L90.918,10.602c-0.669,0.15-1.282,0.496-1.759,0.989
			c-3.549,3.689-14.603,13.268-22.999,13.268c-1.987,0-3.666-0.541-5.123-1.649c-0.7-0.538-1.588-0.791-2.461-0.702l-39.423,3.795
			c-1.797,0.171-3.167,1.677-3.167,3.487v23.072c0,0.982,0.411,1.92,1.136,2.581C17.767,56.041,18.615,56.366,19.491,56.366z
			 M22.996,32.972l34.986-3.367c2.411,1.502,5.159,2.262,8.179,2.262c11.525,0,24.064-11.502,27.281-14.65l41.197-9.216
			l-3.548,31.686l-108.1,9.356V32.972H22.996z"/>
		<path d="M208.107,212.643l-7.009-20.731c-0.486-1.424-1.821-2.382-3.319-2.382h-20.561v-63.662c0-1.938-1.567-3.505-3.505-3.505
			h-14.017v-17.23c0-0.985-0.493-1.92-1.222-2.583c-0.726-0.661-1.779-0.996-2.759-0.9c-2.266,0-7.187-3.457-14.209-13.155
			c-0.896-1.239-2.487-1.752-3.914-1.28c-1.448,0.469-2.427,1.817-2.427,3.333v98.982h-9.972V90.547c0-1.188-0.603-2.293-1.599-2.94
			c-0.996-0.65-2.259-0.75-3.333-0.26l-2.98,1.328l7.635-18.1c0.185-0.432,0.277-0.894,0.277-1.362V58.7
			c0-1.937-1.567-3.504-3.505-3.504H86.647c-1.938,0-3.504,1.567-3.504,3.504v130.829h-9.336V58.7c0-1.937-1.565-3.504-3.504-3.504
			H35.261c-1.939,0-3.504,1.567-3.504,3.504v130.829H19.491c-1.504,0-2.839,0.955-3.318,2.382l-7.008,20.731
			c-0.365,1.071-0.187,2.252,0.472,3.165c0.659,0.914,1.714,1.462,2.845,1.462h192.305c1.13,0,2.19-0.544,2.848-1.462
			C208.295,214.888,208.467,213.71,208.107,212.643z M142.172,100.461c3.837,4.147,7.324,6.7,10.514,7.707v17.7
			c0,1.937,1.566,3.504,3.504,3.504h14.018v60.158h-28.035V100.461z M90.152,62.204h28.035v6.3L107.376,94.13
			c-0.562,1.328-0.253,2.857,0.773,3.867c1.035,1.01,2.573,1.287,3.88,0.698l6.157-2.748v93.583H90.152V62.204z M38.765,143.844
			l4.916,7.833c0.662,1.058,1.805,1.639,2.972,1.639c0.638,0,1.28-0.174,1.862-0.537c1.636-1.029,2.13-3.192,1.1-4.832
			l-10.854-17.281V62.204h28.035v127.325H38.761v-45.686H38.765z M17.364,210.261l4.639-13.723h13.254H70.3h16.344h35.043h16.98
			h35.043h21.549l4.641,13.723H17.364z"/>
	</g>
</g>
</svg>