<?xml version="1.0" encoding="iso-8859-1"?>
<!-- Uploaded to: SVG Repo, www.svgrepo.com, Generator: SVG Repo Mixer Tools -->
<!DOCTYPE svg PUBLIC "-//W3C//DTD SVG 1.1//EN" "http://www.w3.org/Graphics/SVG/1.1/DTD/svg11.dtd">
<svg fill="#000000" version="1.1" id="Capa_1" xmlns="http://www.w3.org/2000/svg" xmlns:xlink="http://www.w3.org/1999/xlink" 
	 width="800px" height="800px" viewBox="0 0 181.847 181.847"
	 xml:space="preserve">
<g>
	<path d="M141.468,108.249c-0.167-0.064-0.342-0.051-0.51-0.082l-3.895-32.912V54.724c0-1.939-1.563-3.504-3.504-3.504h-20.734
		c-1.938,0-3.505,1.565-3.505,3.504v17.23h-2.628v-17.23c0-1.939-1.567-3.504-3.505-3.504h-6.864V39.454
		c2.525,0.631,5.153,0.979,7.977,0.979c5.612-0.003,11.115-1.227,16.437-2.411c5.185-1.153,10.082-2.247,14.921-2.247
		c3.706,0,6.995,0.662,10.055,2.026c1.085,0.479,2.334,0.375,3.329-0.264c0.996-0.648,1.595-1.752,1.595-2.939V5.831
		c0-1.384-0.811-2.639-2.08-3.203C144.583,0.862,140.36,0,135.651,0c-5.608,0-11.115,1.227-16.433,2.411
		c-5.182,1.153-10.079,2.247-14.921,2.247c-3.71,0-6.999-0.662-10.058-2.026c-0.014-0.007-0.024-0.007-0.038-0.01
		c-0.034-0.017-0.071-0.021-0.106-0.034c-0.365-0.141-0.738-0.21-1.122-0.226c-0.055-0.003-0.099-0.031-0.157-0.031
		c-0.038,0-0.072,0.021-0.1,0.021c-0.396,0.014-0.79,0.089-1.165,0.233c-0.084,0.034-0.161,0.075-0.241,0.118
		c-0.134,0.066-0.273,0.109-0.4,0.193c-0.171,0.108-0.312,0.248-0.455,0.385c-0.05,0.043-0.098,0.074-0.144,0.12
		c-0.277,0.284-0.491,0.613-0.655,0.967c-0.04,0.081-0.067,0.165-0.095,0.245c-0.144,0.387-0.246,0.795-0.246,1.22v28.767v16.618
		h-6.861c-1.937,0-3.504,1.565-3.504,3.504v17.23h-3.357V54.724c0-1.939-1.566-3.504-3.504-3.504H51.35
		c-0.933,0-1.822,0.368-2.478,1.027c-0.655,0.659-1.026,1.548-1.026,2.478l0.003,20.545l-3.381,31.571
		c-0.053,0.014-0.097,0-0.147,0.017c-22.999,7.628-36.186,20.026-36.186,34.017c0,22.977,36.364,40.974,82.789,40.974
		s82.789-18.001,82.789-40.974C173.712,127.838,161.96,115.949,141.468,108.249z M120.744,9.258
		c5.182-1.153,10.075-2.247,14.914-2.247c2.882,0,5.51,0.4,7.974,1.22v21.475c-2.519-0.628-5.157-0.937-7.974-0.937
		c-5.608,0-11.115,1.227-16.437,2.411c-5.185,1.153-10.075,2.243-14.917,2.247c-2.882,0-5.51-0.4-7.978-1.22V10.733
		c2.522,0.628,5.164,0.936,7.978,0.936C109.913,11.666,115.419,10.439,120.744,9.258z M41.738,143.214
		c0.666,0.742,1.612,1.163,2.606,1.163h96.953c1.003,0,1.958-0.428,2.618-1.177c0.667-0.75,0.979-1.745,0.862-2.738l-0.79-6.662
		c2.135,1.964,3.866,4.373,3.866,7.076c0,9.809-23.383,20.735-56.935,20.735c-33.549,0-56.934-10.927-56.934-20.735
		c0-3.408,2.805-6.912,7.914-10.092l-1.04,9.716C40.753,141.489,41.071,142.475,41.738,143.214z M54.833,75.833
		c0.014-0.123,0.021-0.25,0.021-0.371V58.228h13.729v17.231c0,1.937,1.567,3.504,3.504,3.504h10.366
		c1.938,0,3.504-1.567,3.504-3.504V58.228h13.727v17.231c0,1.937,1.567,3.504,3.504,3.504h9.638c1.937,0,3.504-1.567,3.504-3.504
		V58.228h13.723v17.231c0,0.137,0.007,0.274,0.027,0.409l7.275,61.501H48.246L54.833,75.833z M90.923,174.845
		c-41.076,0-75.78-15.557-75.78-33.969c0-10.081,10.597-19.814,28.501-26.351l-0.838,7.841c-0.125,0.051-0.258,0.044-0.382,0.103
		c-12.763,6.304-15.439,13.486-15.439,18.404c0,15.817,27.49,27.743,63.942,27.743c36.452,0,63.942-11.926,63.942-27.743
		c0-4.015-1.841-10.003-10.608-15.684c-0.418-0.274-0.876-0.438-1.349-0.51l-1.033-8.73c15.604,6.481,24.828,15.674,24.828,24.92
		C166.704,159.284,132.003,174.845,90.923,174.845z"/>
</g>
</svg>