<?xml version="1.0" encoding="iso-8859-1"?>
<!-- Uploaded to: SVG Repo, www.svgrepo.com, Generator: SVG Repo Mixer Tools -->
<!DOCTYPE svg PUBLIC "-//W3C//DTD SVG 1.1//EN" "http://www.w3.org/Graphics/SVG/1.1/DTD/svg11.dtd">
<svg height="800px" width="800px" version="1.1" id="Capa_1" xmlns="http://www.w3.org/2000/svg" xmlns:xlink="http://www.w3.org/1999/xlink" 
	 viewBox="0 0 53.523 53.523" xml:space="preserve">
<g>
	<path style="fill:#1D1D1B;" d="M29.739,5.983c-0.11-0.87-0.221-1.74-0.331-2.609c-0.046-0.362-0.258-0.621-0.643-0.643
		c-1.29-0.075-2.586-0.201-3.878-0.183c-0.565,0.008-0.76,0.522-0.611,0.919c-0.106,0.029-0.205,0.097-0.248,0.206
		c-0.786,1.953,0.471,4.115,2.541,4.443c0.992,0.157,2.101-0.095,2.873-0.758C29.92,6.945,29.816,6.589,29.739,5.983z M28.033,6.736
		c-0.353,0.142-0.726,0.206-1.108,0.175c-1.529-0.123-2.377-1.646-2.259-3.054c0.068,0.027,0.136,0.054,0.22,0.061
		c1.107,0.095,2.223,0.087,3.334,0.094c0.105,0.656,0.218,1.316,0.251,1.97C28.496,6.488,28.519,6.541,28.033,6.736z"/>
	<path style="fill:#1D1D1B;" d="M42.244,42.572c-3.167-2.208-8.805-1.586-13.044-1.224c0.105-9.85,0.243-19.727-0.033-29.572
		c-0.016-0.571-0.864-0.57-0.886,0c-0.388,9.876-0.36,19.789-0.367,29.674c-0.358,0.025-0.707,0.047-1.032,0.06
		c-0.518,0.021-1.034,0.059-1.552,0.084c0.852-10.112,1.339-20.318,0.498-30.438c0.846-0.049,1.677-0.127,2.425-0.164
		c1.417-0.071,3.255,0.026,4.382-1.003c1.154-1.054,0.961-2.752,0.968-4.176c0.007-1.436,0.515-3.872-0.567-5.055
		c-0.888-0.97-2.554-0.728-3.725-0.736c-2.652-0.018-5.298,0.082-7.941,0.298c-0.32,0.026-0.515,0.236-0.588,0.478
		C20.579,0.846,20.4,1.003,20.384,1.28c-0.135,2.309-0.641,5.047-0.242,7.331c0.208,1.188,0.659,1.899,1.84,2.268
		c0.937,0.293,2.033,0.344,3.136,0.309c-0.294,10.168-0.312,20.317-1.012,30.471c-2.564,0.141-5.126,0.318-7.682,0.574
		c-1.824,0.183-4.126,0.152-5.677,1.293c-2.422,1.782-2.281,4.808-1.53,7.431c-0.046,0.056-0.077,0.127-0.075,0.217
		c0.01,0.486,0.217,0.853,0.516,1.125c0.006,0.015,0.011,0.031,0.016,0.046c0.069,0.183,0.268,0.273,0.445,0.262
		c0.628,0.29,1.437,0.291,2.067-0.017c1.472-0.72,1.803-3.122,1.222-4.619c0.915,0.073,1.769-0.113,2.665-0.057
		c-0.623,1.867-0.88,4.498,1.566,4.953c2.807,0.522,3.167-2.876,2.788-4.865c0.658,0.232,1.317,0.394,1.994,0.493
		c-0.637,1.906-0.757,4.533,1.706,4.927c1.113,0.178,2.155-0.506,2.701-1.446c0.575-0.991,0.539-2.189,0.296-3.3
		c0.744-0.181,1.45-0.189,2.218-0.164c-0.305,1.202-0.593,2.407-0.826,3.627c-0.045,0.238-0.021,0.545,0.188,0.711
		c1.131,0.895,2.635,0.637,3.617-0.385c0.932-0.971,1.042-2.425,0.861-3.752c0.548,0.279,1.16,0.379,1.754,0.298
		c-0.357,0.929-0.545,1.916-0.141,2.864c0.401,0.941,1.367,1.676,2.417,1.648c2.747-0.071,1.77-3.307,1.805-5.134
		c0.174,0.053,0.354,0.089,0.541,0.094c0.152,0.004,0.299-0.013,0.44-0.041c-0.322,2.084,0.921,4.334,3.126,4.812
		c0.079,0.017,0.148,0.009,0.219,0.006c0.352,0.161,0.799,0.074,0.9-0.418C44.942,49.437,45.537,44.868,42.244,42.572z
		 M24.049,9.567c-0.98-0.156-2.017-0.656-2.475-1.719c-0.205-0.475,0.007-1.772-0.003-2.346c-0.021-1.296-0.077-2.592-0.13-3.888
		c2.475-0.103,4.952-0.176,7.429-0.155c1.605,0.013,2.872-0.108,3.297,1.768c0.18,0.794,0.235,3.141-0.035,3.877
		c-0.417,1.139-1.951,2.149-3.038,2.355c-0.531,0.101-1.14,0.061-1.681,0.079C26.343,9.575,25.109,9.737,24.049,9.567z
		 M41.338,47.619c0.119-0.392-0.266-0.688-0.599-0.648c-0.075-0.06-0.163-0.102-0.272-0.098c-0.091,0.003-0.306-0.055-0.452-0.019
		c-0.155,0.038-0.282,0.152-0.438,0.186c-0.277,0.062-0.484-0.06-0.649-0.27c-0.409-0.521-1.187,0.034-1.064,0.596
		c-0.016,0.026-0.036,0.042-0.049,0.073c-0.274,0.625-0.327,1.268-0.254,1.948c0.07,0.653,0.343,1.468,0.172,2.118
		c-0.252,0.96-1.317,0.467-1.673-0.163c-0.486-0.86-0.1-1.994,0.246-2.904c0.002-0.001,0.004-0.002,0.005-0.004
		c0.212-0.166,0.261-0.508,0.198-0.751c-0.069-0.27-0.266-0.47-0.539-0.539c-0.399-0.101-0.684,0.161-1.028,0.304
		c-0.6,0.25-1.228,0.181-1.765-0.176c-0.172-0.114-0.347-0.107-0.5-0.04c-0.458-0.285-1.236-0.058-1.163,0.595
		c0.112,0.993,0.437,2.096,0.051,3.07c-0.254,0.641-0.914,1.126-1.558,0.984c0.156-1.179,0.279-2.361,0.377-3.547
		c0.352-0.364,0.302-1.117-0.305-1.253c-1.092-0.244-2.282-0.01-3.332,0.41c-0.409-0.575-1.41-0.209-1.255,0.597
		c0.148,0.772,0.387,1.542,0.277,2.334c-0.102,0.74-0.773,1.963-1.734,1.405c-1.298-0.754-0.309-2.779,0.08-3.748
		c0.171-0.426-0.262-0.919-0.687-0.902c-1.005,0.041-1.963-0.037-2.948-0.258c-0.308-0.069-0.518,0.094-0.599,0.31
		c-0.384-0.046-0.831,0.279-0.752,0.79c0.136,0.879,0.484,4.46-1.55,3.386c-1.348-0.711-0.541-2.659-0.105-3.685
		c0.148-0.348,0.063-0.825-0.375-0.921c-1.295-0.285-2.965-0.374-3.874,0.755c-0.002-0.004-0.004-0.01-0.006-0.014
		c-0.22-0.371-0.911-0.35-0.993,0.13c-0.189,1.108,0.501,2.543-0.357,3.511c-0.317,0.358-1.006,0.569-1.5,0.415
		c-0.334-4.099,1.233-6.672,6.056-7.837c2.38-0.575,5.156-0.57,7.733-0.615c0.216,0.25,0.661,0.24,0.909-0.021
		c0.291-0.008,0.582-0.015,0.865-0.027c2.857-0.121,5.717-0.174,8.576-0.167c2.436,0.006,7.239,0.972,8.567,3.308
		c0.69,1.214,0.29,3.73-0.003,5.354C41.664,50.858,40.859,49.192,41.338,47.619z"/>
</g>
</svg>