<?xml version="1.0" encoding="iso-8859-1"?>
<!-- Uploaded to: SVG Repo, www.svgrepo.com, Generator: SVG Repo Mixer Tools -->
<!DOCTYPE svg PUBLIC "-//W3C//DTD SVG 1.1//EN" "http://www.w3.org/Graphics/SVG/1.1/DTD/svg11.dtd">
<svg fill="#000000" version="1.1" id="Capa_1" xmlns="http://www.w3.org/2000/svg" xmlns:xlink="http://www.w3.org/1999/xlink" 
	 width="800px" height="800px" viewBox="0 0 154.483 154.483"
	 xml:space="preserve">
<g>
	<g>
		<path d="M111.116,30.369c8.37,0,15.181-6.809,15.181-15.184C126.296,6.809,119.486,0,111.116,0
			c-8.378,0-15.188,6.809-15.188,15.185C95.928,23.56,102.742,30.369,111.116,30.369z M111.116,7.009
			c4.507,0,8.172,3.668,8.172,8.176c0,4.507-3.665,8.175-8.172,8.175c-4.511,0-8.18-3.668-8.18-8.175
			C102.936,10.677,106.605,7.009,111.116,7.009z"/>
		<path d="M62.054,51.654c0,8.374,6.812,15.184,15.188,15.184c8.373,0,15.182-6.81,15.182-15.184c0-8.375-6.81-15.184-15.182-15.184
			S62.054,43.282,62.054,51.654z M85.415,51.654c0,4.505-3.666,8.176-8.173,8.176c-4.51,0-8.179-3.67-8.179-8.176
			c0-4.507,3.669-8.175,8.179-8.175S85.415,47.147,85.415,51.654z"/>
		<path d="M44.221,30.369c8.373,0,15.181-6.809,15.181-15.184C59.401,6.809,52.593,0,44.221,0c-8.375,0-15.188,6.809-15.188,15.185
			C29.033,23.56,35.845,30.369,44.221,30.369z M44.221,7.009c4.507,0,8.172,3.668,8.172,8.176c0,4.507-3.666,8.175-8.172,8.175
			c-4.51,0-8.179-3.668-8.179-8.175C36.042,10.677,39.707,7.009,44.221,7.009z"/>
		<path d="M145.063,16.505c-1.368-1.371-3.583-1.371-4.955,0l-30.19,30.194L79.722,16.505c-1.37-1.371-3.584-1.371-4.955,0
			L44.572,46.699L14.375,16.505c-1.371-1.371-3.585-1.371-4.956,0s-1.371,3.584,0,4.956l31.648,31.643v97.872
			c0,1.938,1.565,3.505,3.504,3.505c1.937,0,3.504-1.567,3.504-3.505V60.112L73.74,85.773v65.199c0,1.937,1.567,3.504,3.504,3.504
			c1.938,0,3.504-1.567,3.504-3.504V85.78l25.665-25.665v90.864c0,1.937,1.563,3.504,3.504,3.504c1.938,0,3.505-1.567,3.505-3.504
			V53.104l31.641-31.643C146.436,20.09,146.436,17.876,145.063,16.505z M77.241,79.367l-27.72-27.713l13.86-13.856l13.86-13.859
			l27.718,27.716L77.241,79.367z"/>
	</g>
</g>
</svg>