<?xml version="1.0" encoding="iso-8859-1"?>
<!-- Uploaded to: SVG Repo, www.svgrepo.com, Generator: SVG Repo Mixer Tools -->
<!DOCTYPE svg PUBLIC "-//W3C//DTD SVG 1.1//EN" "http://www.w3.org/Graphics/SVG/1.1/DTD/svg11.dtd">
<svg fill="#000000" version="1.1" id="Capa_1" xmlns="http://www.w3.org/2000/svg" xmlns:xlink="http://www.w3.org/1999/xlink" 
	 width="800px" height="800px" viewBox="0 0 207.048 207.048"
	 xml:space="preserve">
<g>
	<g>
		<path d="M64.34,0C52.412,0,42.706,9.707,42.706,21.635c0,11.93,9.707,21.633,21.635,21.633c11.93,0,21.633-9.707,21.633-21.633
			C85.974,9.71,76.27,0,64.34,0z M64.34,32.759c-6.132,0-11.122-4.988-11.122-11.12c0-6.133,4.99-11.122,11.122-11.122
			s11.12,4.989,11.12,11.122C75.46,27.771,70.473,32.759,64.34,32.759z"/>
		<path d="M143.259,43.271c11.93,0,21.635-9.707,21.635-21.633c0-11.928-9.705-21.635-21.635-21.635s-21.635,9.707-21.635,21.635
			C121.624,33.568,131.329,43.271,143.259,43.271z M143.259,10.513c6.133,0,11.122,4.989,11.122,11.122
			c0,6.133-4.989,11.121-11.122,11.121s-11.122-4.988-11.122-11.121C132.137,15.502,137.126,10.513,143.259,10.513z"/>
		<path d="M54.971,165.581c-2.906,0-5.257,2.354-5.257,5.257v30.953c0,2.902,2.351,5.257,5.257,5.257
			c2.905,0,5.256-2.354,5.256-5.257v-30.953C60.227,167.936,57.873,165.581,54.971,165.581z"/>
		<path d="M73.158,165.581c-2.906,0-5.257,2.354-5.257,5.257v30.953c0,2.902,2.351,5.257,5.257,5.257
			c2.905,0,5.256-2.354,5.256-5.257v-30.953C78.414,167.936,76.063,165.581,73.158,165.581z"/>
		<path d="M85.422,110.461c0-0.268-0.021-0.524-0.06-0.78c-0.269-6.114-3.118-11.561-7.46-15.318c4.618-3.97,7.56-9.842,7.56-16.396
			v-7.195c0-11.931-9.707-21.638-21.633-21.638c-11.928,0-21.635,9.707-21.635,21.638v7.195c0,6.553,2.939,12.422,7.558,16.396
			c-4.211,3.648-7.015,8.88-7.424,14.777c-0.113,0.424-0.173,0.869-0.173,1.328l0.04,45.186c0,2.902,2.354,5.254,5.256,5.254h32.759
			c0.021,0,0.044-0.004,0.07,0c2.903,0,5.256-2.355,5.256-5.257c0-0.294-0.026-0.585-0.07-0.866L85.422,110.461z M52.707,77.971
			v-7.193c0-6.133,4.99-11.127,11.122-11.127s11.121,4.989,11.121,11.127v7.193c0,6.132-4.991,11.122-11.124,11.122
			C57.693,89.093,52.707,84.103,52.707,77.971z M52.7,150.394l-0.032-38.64c0.077-0.359,0.116-0.726,0.116-1.102
			c0-6.092,4.955-11.043,11.042-11.043c6.088,0,11.047,4.956,11.047,11.043c0,0.219,0.014,0.425,0.038,0.633l0.036,39.112H52.7
			V150.394z"/>
		<path d="M164.381,106.799V70.777c0-11.933-9.706-21.64-21.632-21.64c-11.934,0-21.639,9.707-21.639,21.64v36.021
			c-0.15,0.493-0.257,1.006-0.257,1.544c0,0.537,0.106,1.05,0.257,1.536v77.31c0,2.902,2.354,5.257,5.257,5.257h2.029v9.346
			c0,2.902,2.354,5.257,5.256,5.257c2.898,0,5.257-2.354,5.257-5.257v-9.346h7.676v9.346c0,2.902,2.354,5.257,5.257,5.257
			c2.901,0,5.256-2.354,5.256-5.257v-9.346h2.026c2.898,0,5.257-2.354,5.257-5.257v-77.31c0.15-0.489,0.253-0.999,0.253-1.536
			C164.634,107.805,164.531,107.292,164.381,106.799z M142.749,59.65c6.132,0,11.118,4.989,11.118,11.127v32.309h-22.24V70.777
			C131.627,64.645,136.613,59.65,142.749,59.65z M153.867,181.933h-5.352v-52.127c0-2.901-2.354-5.256-5.257-5.256
			s-5.257,2.354-5.257,5.256v52.127h-6.375v-68.334h22.247v68.334H153.867z"/>
	</g>
</g>
</svg>