<?xml version="1.0" encoding="iso-8859-1"?>
<!-- Uploaded to: SVG Repo, www.svgrepo.com, Generator: SVG Repo Mixer Tools -->
<!DOCTYPE svg PUBLIC "-//W3C//DTD SVG 1.1//EN" "http://www.w3.org/Graphics/SVG/1.1/DTD/svg11.dtd">
<svg fill="#000000" version="1.1" id="Capa_1" xmlns="http://www.w3.org/2000/svg" xmlns:xlink="http://www.w3.org/1999/xlink" 
	 width="800px" height="800px" viewBox="0 0 176.526 176.526"
	 xml:space="preserve">
<g>
	<g>
		<path d="M48.774,99.043l21.855,2.013c0.074,0.007,0.144,0.01,0.214,0.014c0.519,0.055,1.042,0.082,1.564,0.082
			c3.746,0,7.253-1.448,9.878-4.072c5.463-5.462,5.463-14.354,0-19.821c-1.756-1.756-3.992-3.014-6.473-3.638
			c-0.122-0.04-0.245-0.07-0.372-0.094c-1.377-0.308-2.833-0.4-4.288-0.271L16.636,70.34c-4.557-0.866-9.275,0.578-12.542,3.841
			c-2.639,2.635-4.106,6.27-4.069,10.042c-0.023,0.2-0.03,0.4-0.021,0.602l2.969,55.441c-0.126,1.406-0.049,2.782,0.225,4.097
			c0.034,0.301,0.107,0.595,0.221,0.872c0.648,2.358,1.87,4.479,3.557,6.163c5.294,5.301,14.532,5.301,19.823,0
			c3.006-3.004,4.451-7.142,3.989-11.406c0-0.078-0.007-0.164-0.014-0.246l-1.936-20.998l37.206,37.205
			c2.645,2.646,6.163,4.104,9.909,4.104c3.747,0,7.265-1.458,9.914-4.104c2.648-2.645,4.106-6.17,4.106-9.913
			c0-3.748-1.458-7.266-4.106-9.911L48.774,99.043z M80.905,150.998c-2.646,2.646-7.264,2.649-9.911,0l-44.059-44.063
			c-0.672-0.674-1.57-1.026-2.481-1.026c-0.504,0-1.013,0.109-1.485,0.332c-1.336,0.626-2.136,2.025-2.002,3.494l2.789,30.307
			c0,0.164,0.008,0.332,0.032,0.503c0.301,2.21-0.411,4.363-1.952,5.906c-2.646,2.648-7.264,2.646-9.914,0
			c-0.89-0.894-1.502-2.005-1.815-3.306c-0.014-0.065-0.031-0.127-0.051-0.188c-0.147-0.698-0.18-1.447-0.096-2.234
			c0.022-0.188,0.026-0.373,0.016-0.564L7.03,84.956c0.016-0.168,0.019-0.339,0.01-0.512c-0.101-2.028,0.611-3.914,2.009-5.308
			c1.668-1.665,4.104-2.376,6.417-1.885c0.178,0.038,0.361,0.063,0.542,0.073l55.035,2.943c0.19,0.007,0.375,0.003,0.565-0.014
			c0.766-0.081,1.542-0.057,2.25,0.098c0.055,0.015,0.115,0.032,0.171,0.046c1.304,0.312,2.411,0.924,3.301,1.815
			c2.734,2.732,2.734,7.18,0,9.91c-1.531,1.53-3.725,2.256-5.908,1.954c-0.154-0.021-0.308-0.03-0.458-0.03l-31.202-2.875
			c-1.455-0.14-2.868,0.661-3.494,2.002c-0.628,1.335-0.351,2.923,0.693,3.967l43.944,43.947c1.324,1.32,2.053,3.08,2.053,4.955
			C82.958,147.915,82.229,149.678,80.905,150.998z"/>
		<path d="M173.554,36.125c0.127-1.406,0.048-2.784-0.226-4.098c-0.034-0.301-0.106-0.595-0.219-0.873
			c-0.65-2.358-1.872-4.478-3.56-6.163c-5.294-5.299-14.53-5.299-19.821,0c-3.008,3.006-4.452,7.146-3.99,11.406
			c0,0.081,0.007,0.166,0.014,0.25l1.938,21l-37.202-37.204c-5.295-5.299-14.531-5.296-19.823,0
			c-2.649,2.646-4.106,6.167-4.106,9.913c0,3.747,1.458,7.265,4.106,9.91l37.084,37.086l-21.857-2.01
			c-0.071-0.009-0.14-0.012-0.212-0.016c-4.236-0.455-8.452,0.996-11.443,3.985c-5.464,5.463-5.464,14.356,0,19.821
			c1.755,1.759,3.99,3.015,6.471,3.638c0.124,0.041,0.247,0.072,0.373,0.096c1.372,0.309,2.837,0.404,4.288,0.271l54.521,2.916
			c0.877,0.164,1.763,0.253,2.652,0.253c3.74,0,7.252-1.454,9.891-4.089c2.639-2.636,4.106-6.27,4.068-10.044
			c0.024-0.202,0.031-0.4,0.021-0.603L173.554,36.125z M169.486,91.942c0.103,2.029-0.609,3.915-2.009,5.311
			c-1.664,1.663-4.097,2.372-6.417,1.886c-0.178-0.041-0.359-0.064-0.541-0.075l-55.035-2.942c-0.064-0.004-0.126-0.004-0.188-0.004
			c-0.123,0-0.249,0.007-0.372,0.021c-0.764,0.086-1.544,0.059-2.252-0.1c-0.055-0.014-0.113-0.03-0.171-0.044
			c-1.305-0.312-2.41-0.924-3.3-1.814c-2.733-2.733-2.733-7.183,0-9.914c1.53-1.528,3.724-2.247,5.907-1.952
			c0.154,0.021,0.308,0.031,0.458,0.031l31.204,2.875c1.461,0.154,2.867-0.662,3.493-2.002c0.627-1.334,0.35-2.922-0.694-3.966
			L95.622,35.304c-1.322-1.321-2.052-3.08-2.052-4.955c0-1.874,0.729-3.629,2.052-4.956c2.646-2.649,7.258-2.652,9.91,0
			l44.061,44.06c1.04,1.041,2.628,1.325,3.967,0.695c1.334-0.628,2.135-2.026,2.002-3.494l-2.789-30.307
			c0-0.165-0.011-0.332-0.034-0.503c-0.302-2.212,0.41-4.363,1.954-5.905c2.645-2.65,7.262-2.647,9.914,0
			c0.89,0.89,1.502,2.004,1.813,3.304c0.014,0.063,0.03,0.126,0.051,0.19c0.147,0.696,0.182,1.446,0.096,2.231
			c-0.021,0.19-0.023,0.375-0.014,0.565l2.954,55.203C169.482,91.604,169.479,91.771,169.486,91.942z"/>
	</g>
</g>
</svg>