<?xml version="1.0" encoding="iso-8859-1"?>
<!-- Uploaded to: SVG Repo, www.svgrepo.com, Generator: SVG Repo Mixer Tools -->
<!DOCTYPE svg PUBLIC "-//W3C//DTD SVG 1.1//EN" "http://www.w3.org/Graphics/SVG/1.1/DTD/svg11.dtd">
<svg fill="#000000" version="1.1" id="Capa_1" xmlns="http://www.w3.org/2000/svg" xmlns:xlink="http://www.w3.org/1999/xlink" 
	 width="800px" height="800px" viewBox="0 0 171.93 171.93"
	 xml:space="preserve">
<g>
	<path d="M130.862,74.028c0.931,0,1.823-0.368,2.478-1.027l10.513-10.513c1.372-1.371,1.372-3.584,0-4.956L133.34,47.021
		c-0.657-0.659-1.547-1.026-2.478-1.026H113.56V42.49h17.303c0.931,0,1.823-0.368,2.478-1.027l10.513-10.513
		c1.372-1.371,1.372-3.585,0-4.955L133.34,15.482c-0.657-0.659-1.547-1.027-2.478-1.027h-17.521V3.504
		c0-1.934-1.567-3.504-3.505-3.504c-1.934,0-3.504,1.571-3.504,3.504v10.951H65.157V3.504C65.157,1.571,63.587,0,61.652,0
		c-1.934,0-3.504,1.571-3.504,3.504v10.951H30.552c-1.934,0-3.504,1.571-3.504,3.504v21.026c0,1.935,1.571,3.504,3.504,3.504h27.817
		v3.504H30.552c-1.934,0-3.504,1.57-3.504,3.504v21.026c0,1.935,1.571,3.504,3.504,3.504h27.817v3.504H41.064
		c-0.927,0-1.822,0.368-2.478,1.026L28.074,89.072c-1.369,1.368-1.369,3.586,0,4.955l10.513,10.513
		c0.659,0.657,1.55,1.027,2.478,1.027h17.304v59.354H41.064c-1.934,0-3.504,1.574-3.504,3.504c0,1.938,1.57,3.505,3.504,3.505
		h91.772c1.934,0,3.504-1.567,3.504-3.505c0-1.93-1.57-3.504-3.504-3.504h-19.274v-59.354h27.816c1.937,0,3.504-1.568,3.504-3.505
		V81.037c0-1.934-1.567-3.504-3.504-3.504h-27.816v-3.504H130.862z M34.056,21.464h95.355l7.009,7.009l-7.009,7.008H34.056V21.464z
		 M65.374,42.49h41.177v3.504H65.374V42.49z M34.056,53.002h95.355l7.009,7.009l-7.009,7.008H34.056V53.002z M106.551,164.921
		H65.374v-59.354h41.177V164.921z M137.871,98.559H42.516l-7.009-7.009l7.009-7.009h95.355V98.559z M106.551,77.533H65.374v-3.504
		h41.177V77.533z"/>
</g>
</svg>