<?xml version="1.0" encoding="iso-8859-1"?>
<!-- Uploaded to: SVG Repo, www.svgrepo.com, Generator: SVG Repo Mixer Tools -->
<!DOCTYPE svg PUBLIC "-//W3C//DTD SVG 1.1//EN" "http://www.w3.org/Graphics/SVG/1.1/DTD/svg11.dtd">
<svg fill="#000000" version="1.1" id="Capa_1" xmlns="http://www.w3.org/2000/svg" xmlns:xlink="http://www.w3.org/1999/xlink" 
	 width="800px" height="800px" viewBox="0 0 176.522 176.522"
	 xml:space="preserve">
<g>
	<g>
		<path d="M156.02,90.664c-5.295-5.299-14.527-5.299-19.821,0l-37.09,37.082l2.013-21.857c0.007-0.082,0.014-0.164,0.014-0.246
			c0.458-4.264-0.979-8.401-3.99-11.413c-5.295-5.287-14.519-5.287-19.823,0c-1.752,1.753-3.006,3.983-3.638,6.465
			c-0.043,0.134-0.074,0.271-0.101,0.407c-0.306,1.386-0.394,2.82-0.263,4.271l-2.913,54.516c-0.873,4.585,0.554,9.253,3.841,12.546
			c2.652,2.651,6.114,4.007,10.042,4.065c0.137,0.014,0.274,0.023,0.414,0.023c0.063,0,0.126,0,0.188-0.003l55.442-2.968
			c1.38,0.13,2.775,0.052,4.097-0.222c0.308-0.034,0.605-0.113,0.887-0.227c2.348-0.65,4.466-1.868,6.149-3.556
			c5.462-5.462,5.462-14.355,0-19.824c-2.978-2.978-7.163-4.421-11.403-3.987c-0.082,0-0.167,0.008-0.253,0.014l-20.991,1.934
			l37.205-37.202C161.485,105.016,161.485,96.122,156.02,90.664z M151.064,105.53l-44.057,44.053
			c-1.047,1.044-1.321,2.629-0.694,3.967c0.626,1.338,2.039,2.146,3.494,2.002l30.299-2.789c0.145-0.004,0.336-0.011,0.504-0.031
			c2.183-0.305,4.38,0.421,5.902,1.947c2.734,2.734,2.734,7.18,0,9.914c-0.893,0.894-2.005,1.506-3.306,1.817
			c-0.062,0.018-0.123,0.034-0.185,0.055c-0.705,0.147-1.479,0.175-2.234,0.089c-0.185-0.021-0.38-0.023-0.564-0.014l-55.2,2.953
			c-0.108-0.01-0.221-0.017-0.329-0.017c-0.06,0-0.12,0-0.18,0.007l-0.371,0.007c-1.889,0-3.645-0.716-4.94-2.013
			c-1.675-1.677-2.38-4.079-1.882-6.423c0.038-0.175,0.06-0.359,0.07-0.537l2.943-55.032c0.01-0.188,0.003-0.38-0.014-0.571
			c-0.084-0.773-0.053-1.526,0.098-2.242c0.017-0.055,0.033-0.112,0.046-0.167c0.314-1.304,0.924-2.42,1.812-3.306
			c2.649-2.643,7.271-2.643,9.916-0.004c1.54,1.54,2.248,3.692,1.954,5.914c-0.021,0.16-0.034,0.324-0.034,0.485l-2.868,31.173
			c-0.137,1.472,0.664,2.867,1.999,3.494c1.334,0.629,2.922,0.353,3.97-0.691l43.94-43.94c2.648-2.649,7.262-2.649,9.91,0
			C153.795,98.346,153.795,102.795,151.064,105.53z"/>
		<path d="M75.4,70.625c-0.007,0.085-0.014,0.169-0.014,0.253c-0.458,4.261,0.985,8.396,3.992,11.406
			c2.649,2.646,6.167,4.104,9.914,4.104c3.745,0,7.264-1.458,9.909-4.104c1.762-1.759,3.015-3.983,3.638-6.447
			c0.041-0.137,0.075-0.274,0.105-0.414c0.309-1.384,0.394-2.816,0.264-4.274l2.916-54.514c0.876-4.584-0.544-9.255-3.84-12.542
			c-2.662-2.666-6.276-4.261-10.067-4.072C92.029,0,91.827-0.003,91.642,0.003L36.198,2.969c-1.369-0.12-2.746-0.049-4.061,0.221
			c-0.327,0.034-0.642,0.114-0.939,0.234c-2.344,0.652-4.457,1.872-6.132,3.547c-5.463,5.467-5.463,14.359,0,19.819
			c2.979,2.979,7.149,4.43,11.372,3.992c0.094,0,0.188-0.007,0.284-0.016l20.997-1.934L20.51,66.036
			c-2.65,2.642-4.108,6.16-4.108,9.906c0,3.747,1.458,7.269,4.105,9.914c2.648,2.649,6.167,4.106,9.912,4.106
			c3.744,0,7.262-1.458,9.911-4.103L77.416,48.77L75.4,70.625z M35.371,80.9c-2.648,2.65-7.26,2.654-9.911-0.003
			c-1.324-1.321-2.053-3.08-2.053-4.955c0-1.87,0.729-3.626,2.053-4.95l44.061-44.064c1.044-1.043,1.321-2.628,0.693-3.966
			c-0.582-1.237-1.822-2.016-3.17-2.016c-0.109,0-0.217,0.003-0.322,0.014l-30.274,2.789c-0.154,0-0.358,0.007-0.541,0.032
			c-2.175,0.298-4.368-0.417-5.9-1.949c-2.731-2.729-2.731-7.176,0-9.911c0.89-0.89,2.004-1.502,3.304-1.814
			c0.063-0.015,0.127-0.032,0.19-0.053c0.71-0.147,1.479-0.173,2.231-0.098c0.187,0.017,0.375,0.027,0.564,0.014l55.229-2.952
			c0.157,0.016,0.314,0.016,0.485,0.007l0.37-0.007c1.882,0,3.641,0.719,4.941,2.022c1.674,1.675,2.375,4.072,1.879,6.417
			c-0.038,0.178-0.062,0.361-0.072,0.542l-2.943,55.035c-0.014,0.193-0.007,0.382,0.014,0.575c0.09,0.775,0.055,1.521-0.096,2.224
			c-0.017,0.063-0.034,0.126-0.055,0.19c-0.308,1.293-0.917,2.404-1.816,3.297c-2.646,2.645-7.261,2.642-9.909,0
			c-1.539-1.539-2.25-3.693-1.953-5.909c0.021-0.164,0.031-0.332,0.031-0.494L85.28,39.75c0.137-1.468-0.662-2.868-2.002-3.494
			c-1.338-0.635-2.922-0.351-3.966,0.693L35.371,80.9z"/>
	</g>
</g>
</svg>