<?xml version="1.0" encoding="iso-8859-1"?>
<!-- Uploaded to: SVG Repo, www.svgrepo.com, Generator: SVG Repo Mixer Tools -->
<!DOCTYPE svg PUBLIC "-//W3C//DTD SVG 1.1//EN" "http://www.w3.org/Graphics/SVG/1.1/DTD/svg11.dtd">
<svg fill="#000000" version="1.1" id="Capa_1" xmlns="http://www.w3.org/2000/svg" xmlns:xlink="http://www.w3.org/1999/xlink" 
	 width="800px" height="800px" viewBox="0 0 236.862 236.862"
	 xml:space="preserve">
<g>
	<g>
		<path d="M64.56,35.402l22.711-22.714l22.714,22.714c1.027,1.027,2.374,1.538,3.718,1.538c1.347,0,2.692-0.511,3.718-1.538
			c2.054-2.053,2.054-5.383,0-7.433L90.989,1.54c-1.973-1.973-5.464-1.973-7.433,0L57.127,27.969c-2.053,2.054-2.053,5.383,0,7.433
			C59.18,37.456,62.506,37.456,64.56,35.402z"/>
		<path d="M145.87,35.402c0.982,0.984,2.324,1.538,3.72,1.538c1.394,0,2.728-0.554,3.717-1.538l26.43-26.429
			c2.053-2.054,2.053-5.383,0-7.433c-2.057-2.053-5.38-2.053-7.434,0L149.59,24.254L126.877,1.54c-2.057-2.053-5.379-2.053-7.433,0
			c-2.053,2.053-2.053,5.383,0,7.433L145.87,35.402z"/>
		<path d="M87.678,119.762c9.982,0,18.103-8.121,18.103-18.105c0-9.984-8.121-18.106-18.103-18.106
			c-9.984,0-18.107,8.123-18.107,18.106C69.571,111.641,77.694,119.762,87.678,119.762z M87.678,94.063
			c4.184,0,7.59,3.407,7.59,7.594c0,4.186-3.407,7.591-7.59,7.591c-4.189,0-7.594-3.405-7.594-7.591
			C80.084,97.473,83.489,94.063,87.678,94.063z"/>
		<path d="M74.424,212.043h25.697c2.905,0,5.256-2.354,5.256-5.256v-66.582c0-9.985-8.119-18.109-18.103-18.109
			c-9.984,0-18.107,8.124-18.107,18.109v66.582C69.167,209.69,71.522,212.043,74.424,212.043z M79.681,140.206
			c0-4.188,3.407-7.597,7.594-7.597c4.184,0,7.59,3.408,7.59,7.597v61.325H79.681V140.206z"/>
		<path d="M149.59,119.762c9.979,0,18.104-8.121,18.104-18.105c0-9.984-8.124-18.106-18.104-18.106
			c-9.985,0-18.109,8.123-18.109,18.106C131.48,111.641,139.604,119.762,149.59,119.762z M149.59,94.063
			c4.183,0,7.591,3.407,7.591,7.594c0,4.186-3.408,7.591-7.591,7.591c-4.188,0-7.597-3.405-7.597-7.591
			C141.993,97.473,145.395,94.063,149.59,94.063z"/>
		<path d="M136.333,212.043h25.7c2.902,0,5.256-2.354,5.256-5.256v-66.582c0-9.985-8.12-18.109-18.103-18.109
			c-9.986,0-18.11,8.124-18.11,18.109v66.582C131.076,209.69,133.431,212.043,136.333,212.043z M141.589,140.206
			c0-4.188,3.409-7.597,7.598-7.597c4.182,0,7.59,3.408,7.59,7.597v61.325h-15.188V140.206z"/>
		<path d="M192.169,58.729H44.694c-2.906,0-5.257,2.353-5.257,5.256v167.619c0,2.902,2.351,5.257,5.257,5.257h147.475
			c2.901,0,5.256-2.354,5.256-5.257V63.986C197.425,61.085,195.07,58.729,192.169,58.729z M186.912,226.348H49.951V69.242h136.961
			V226.348z"/>
	</g>
</g>
</svg>