<?xml version="1.0" encoding="iso-8859-1"?>
<!-- Uploaded to: SVG Repo, www.svgrepo.com, Generator: SVG Repo Mixer Tools -->
<!DOCTYPE svg PUBLIC "-//W3C//DTD SVG 1.1//EN" "http://www.w3.org/Graphics/SVG/1.1/DTD/svg11.dtd">
<svg fill="#000000" version="1.1" id="Capa_1" xmlns="http://www.w3.org/2000/svg" xmlns:xlink="http://www.w3.org/1999/xlink" 
	 width="800px" height="800px" viewBox="0 0 225.622 225.623"
	 xml:space="preserve">
<g>
	<g>
		<path d="M96.328,66.097c1.027,1.026,2.374,1.538,3.718,1.538c1.347,0,2.691-0.512,3.718-1.538c2.053-2.053,2.053-5.381,0-7.431
			L81.05,35.953l22.715-22.714c2.053-2.054,2.053-5.382,0-7.432c-2.053-2.055-5.38-2.055-7.433,0L69.902,32.24
			c-0.984,0.984-1.538,2.322-1.538,3.717c0,1.396,0.554,2.731,1.538,3.72L96.328,66.097z"/>
		<path d="M139.237,5.804c-2.054-2.055-5.38-2.055-7.434,0c-2.053,2.053-2.053,5.381,0,7.431l22.717,22.711l-22.71,22.716
			c-2.053,2.053-2.053,5.381,0,7.431c1.027,1.027,2.372,1.538,3.717,1.538c1.349,0,2.689-0.511,3.717-1.538l26.433-26.433
			c2.053-2.053,2.053-5.381,0-7.433L139.237,5.804z"/>
		<path d="M52.093,84.936c9.984,0,18.104-8.119,18.104-18.102c0-9.984-8.119-18.108-18.104-18.108
			c-9.982,0-18.106,8.125-18.106,18.108C33.987,76.813,42.111,84.936,52.093,84.936z M52.093,59.239c4.186,0,7.59,3.407,7.59,7.595
			c0,4.184-3.405,7.589-7.59,7.589c-4.187,0-7.594-3.405-7.594-7.589C44.5,62.646,47.91,59.239,52.093,59.239z"/>
		<path d="M69.798,171.957v-66.58c0-9.982-8.119-18.106-18.103-18.106c-9.984,0-18.107,8.124-18.107,18.106v66.58
			c0,2.902,2.351,5.257,5.257,5.257h25.697C67.447,177.213,69.798,174.859,69.798,171.957z M59.285,166.7H44.101v-61.323
			c0-4.184,3.405-7.594,7.594-7.594c4.184,0,7.59,3.407,7.59,7.594V166.7z"/>
		<path d="M131.064,146.407l-70.238,70.247c-2.053,2.053-2.053,5.376,0,7.429c1.027,1.03,2.372,1.54,3.718,1.54
			c1.345,0,2.691-0.51,3.718-1.54l70.242-70.243c2.053-2.053,2.053-5.376,0-7.433C136.451,144.353,133.118,144.353,131.064,146.407z
			"/>
		<path d="M186.777,0c-2.901,0-5.256,2.351-5.256,5.256v166.7c0,2.902,2.354,5.257,5.256,5.257c2.902,0,5.257-2.354,5.257-5.257
			V5.256C192.034,2.354,189.68,0,186.777,0z"/>
	</g>
</g>
</svg>