<?xml version="1.0" encoding="iso-8859-1"?>
<!-- Uploaded to: SVG Repo, www.svgrepo.com, Generator: SVG Repo Mixer Tools -->
<!DOCTYPE svg PUBLIC "-//W3C//DTD SVG 1.1//EN" "http://www.w3.org/Graphics/SVG/1.1/DTD/svg11.dtd">
<svg fill="#000000" version="1.1" id="Capa_1" xmlns="http://www.w3.org/2000/svg" xmlns:xlink="http://www.w3.org/1999/xlink" 
	 width="800px" height="800px" viewBox="0 0 161.684 161.684"
	 xml:space="preserve">
<g>
	<g>
		<g>
			<path d="M59.319,139.344h37.349c1.938,0,3.505-1.574,3.505-3.505v-26.234V68.21v-7.554c0-8.747-5.103-16.304-12.474-19.912
				c0.479-0.599,0.804-1.328,0.804-2.154c0-1.935-1.567-3.504-3.504-3.504h-3.505v-5.982l17.516,4.552
				c1.047,0.271,2.166,0.041,3.021-0.621c0.862-0.662,1.365-1.686,1.365-2.771V17.123c0-0.207-0.079-0.383-0.116-0.578
				c-0.031-0.187-0.011-0.37-0.072-0.551c-0.014-0.038-0.048-0.066-0.064-0.106c-0.086-0.234-0.229-0.429-0.366-0.64
				c-0.117-0.183-0.213-0.375-0.356-0.53c-0.137-0.147-0.318-0.241-0.479-0.363c-0.199-0.147-0.377-0.306-0.603-0.407
				c-0.185-0.083-0.384-0.106-0.578-0.157c-0.247-0.063-0.482-0.14-0.739-0.147c-0.052,0-0.086-0.029-0.134-0.029
				c-0.205,0-0.383,0.084-0.578,0.116c-0.188,0.031-0.366,0.007-0.551,0.07l-19.996,6.798c-1.311-4.036-5.066-6.984-9.538-6.984
				c-5.554,0-10.075,4.521-10.075,10.075c0,5.556,4.521,10.075,10.075,10.075c1.934,0,3.722-0.573,5.256-1.519v2.833h-3.5
				c-1.939,0-3.504,1.571-3.504,3.504c0,0.829,0.329,1.554,0.806,2.153c-7.373,3.605-12.479,11.165-12.479,19.912V68.2v41.397
				v26.228C55.815,137.77,57.381,139.344,59.319,139.344z M90.198,24.126l6.194-2.106v3.717L90.198,24.126z M69.233,26.767
				c-1.689,0-3.066-1.378-3.066-3.066c0-1.69,1.377-3.066,3.066-3.066S72.3,22.01,72.3,23.7
				C72.3,25.389,70.926,26.767,69.233,26.767z M62.824,132.335v-19.226h30.341v19.226H62.824z M62.824,71.715h30.341v34.386H62.824
				V71.715z M77.994,45.489c8.364,0,15.17,6.805,15.17,15.17v4.05H62.824v-4.053C62.824,52.291,69.629,45.489,77.994,45.489z"/>
		</g>
		<g>
			<path d="M95.656,143.286h-35.32c-1.938,0-3.504,1.567-3.504,3.504c0,1.93,1.566,3.504,3.504,3.504h35.32
				c1.938,0,3.505-1.574,3.505-3.504C99.161,144.854,97.593,143.286,95.656,143.286z"/>
		</g>
		<g>
			<path d="M75.366,77.736c-2.005,3.188-6.67,11.039-6.67,15.004c0,5.318,4.322,9.637,9.637,9.637c5.315,0,9.637-4.318,9.637-9.637
				c0-3.966-4.665-11.816-6.669-15.004C80.02,75.696,76.644,75.696,75.366,77.736z M78.333,95.369c-1.446,0-2.628-1.178-2.628-2.608
				c0.053-0.886,1.116-3.326,2.628-6.17c1.514,2.844,2.577,5.273,2.628,6.149C80.961,94.188,79.781,95.369,78.333,95.369z"/>
		</g>
		<g>
			<path d="M145.452,0H16.231c-1.938,0-3.504,1.569-3.504,3.504v154.675c0,1.931,1.565,3.505,3.504,3.505h129.221
				c1.938,0,3.505-1.574,3.505-3.505V3.504C148.957,1.565,147.389,0,145.452,0z M141.948,154.675H19.735V7.009h122.212V154.675z"/>
		</g>
	</g>
</g>
</svg>