<?xml version="1.0" encoding="iso-8859-1"?>
<!-- Uploaded to: SVG Repo, www.svgrepo.com, Generator: SVG Repo Mixer Tools -->
<!DOCTYPE svg PUBLIC "-//W3C//DTD SVG 1.1//EN" "http://www.w3.org/Graphics/SVG/1.1/DTD/svg11.dtd">
<svg fill="#000000" version="1.1" id="Capa_1" xmlns="http://www.w3.org/2000/svg" xmlns:xlink="http://www.w3.org/1999/xlink" 
	 width="800px" height="800px" viewBox="0 0 164.223 164.223"
	 xml:space="preserve">
<g>
	<g>
		<path d="M78.38,0H4.79C2.854,0,1.285,1.569,1.285,3.504v157.214c0,1.937,1.569,3.505,3.504,3.505h73.59
			c1.934,0,3.504-1.568,3.504-3.505V3.504C81.884,1.566,80.313,0,78.38,0z M30.504,43.33h22.165v103.848H30.504V43.33z
			 M74.875,157.214H8.294V7.008h29.817c-6.688,1.58-11.697,7.568-11.697,14.734c0,6.988,4.772,12.83,11.215,14.582H27H15.621
			c-1.933,0-3.504,1.57-3.504,3.504V94.67c0,1.938,1.571,3.505,3.504,3.505c1.936,0,3.504-1.567,3.504-3.505V43.333h4.37v107.351
			c0,1.934,1.571,3.505,3.504,3.505h29.174c1.934,0,3.504-1.571,3.504-3.505V43.33h4.37V94.67c0,1.931,1.569,3.505,3.504,3.505
			c1.934,0,3.505-1.574,3.505-3.505V39.826c0-1.934-1.571-3.505-3.505-3.505H56.173H45.544c6.44-1.752,11.215-7.594,11.215-14.582
			c0-7.166-5.009-13.151-11.699-14.734h29.815V157.214z M41.588,13.576c4.504,0,8.166,3.662,8.166,8.164
			c0,4.503-3.662,8.166-8.166,8.166c-4.503,0-8.165-3.662-8.165-8.166C33.423,17.237,37.084,13.576,41.588,13.576z"/>
		<path d="M159.434,0h-73.59c-1.934,0-3.505,1.569-3.505,3.504v157.214c0,1.937,1.571,3.505,3.505,3.505h73.59
			c1.934,0,3.504-1.568,3.504-3.505V3.504C162.938,1.566,161.367,0,159.434,0z M145.098,43.33v46.981l-4.369-9.534V43.33H145.098z
			 M134.038,83.003l9.103,19.861h-9.418c-1.937,0-3.504,1.566-3.504,3.504v40.81h-15.157v-40.81c0-1.934-1.57-3.504-3.504-3.504
			h-9.421l9.106-19.861c0.208-0.46,0.317-0.958,0.317-1.461V43.33h22.166v38.215C133.72,82.044,133.825,82.546,134.038,83.003z
			 M100.179,90.311V43.33h4.37v37.447L100.179,90.311z M155.93,157.214H89.348V7.008h29.814c-6.69,1.58-11.697,7.568-11.697,14.734
			c0,6.988,4.773,12.83,11.214,14.582H108.05H96.671c-1.934,0-3.504,1.57-3.504,3.504V94.67c0,1.903,1.522,3.436,3.412,3.487
			l-3.094,6.752c-0.496,1.089-0.404,2.348,0.236,3.354c0.646,1.007,1.755,1.615,2.949,1.615h11.379v40.81
			c0,1.934,1.571,3.504,3.505,3.504h22.165c1.934,0,3.504-1.57,3.504-3.504v-40.816h11.379c1.19,0,2.307-0.605,2.95-1.608
			c0.643-1.006,0.732-2.269,0.232-3.354l-3.094-6.755c1.889-0.055,3.415-1.581,3.415-3.484V39.826c0-1.934-1.57-3.505-3.504-3.505
			h-11.379h-10.629c6.443-1.752,11.214-7.594,11.214-14.582c0-7.166-5.01-13.151-11.696-14.734h29.817V157.214z M122.639,13.576
			c4.504,0,8.165,3.662,8.165,8.164c0,4.503-3.661,8.166-8.165,8.166s-8.165-3.662-8.165-8.166
			C114.474,17.237,118.135,13.576,122.639,13.576z"/>
	</g>
</g>
</svg>