<?xml version="1.0" encoding="iso-8859-1"?>
<!-- Uploaded to: SVG Repo, www.svgrepo.com, Generator: SVG Repo Mixer Tools -->
<!DOCTYPE svg PUBLIC "-//W3C//DTD SVG 1.1//EN" "http://www.w3.org/Graphics/SVG/1.1/DTD/svg11.dtd">
<svg fill="#000000" version="1.1" id="Capa_1" xmlns="http://www.w3.org/2000/svg" xmlns:xlink="http://www.w3.org/1999/xlink" 
	 width="800px" height="800px" viewBox="0 0 213.762 213.762"
	 xml:space="preserve">
<g>
	<g>
		<path d="M212.009,16.937H1.752C0.785,16.937,0,17.722,0,18.688V158.86c0,0.965,0.785,1.752,1.752,1.752h210.257
			c0.966,0,1.753-0.787,1.753-1.752V18.688C213.762,17.722,212.975,16.937,212.009,16.937z M210.257,87.022h-75.89
			c-0.031,0-0.059,0.017-0.089,0.017c-0.859-13.793-11.868-24.799-25.663-25.661c0-0.032,0.018-0.06,0.018-0.087V20.44h101.624
			V87.022z M104.63,106.111h-6.384l12.019-24.128H95.933v-5.299h21.601l0.295,2.945L104.63,106.111z M105.128,20.44v40.847
			c0,0.031,0.018,0.058,0.018,0.087c-13.793,0.86-24.802,11.871-25.665,25.661c-0.033,0-0.06-0.017-0.089-0.017H3.504V20.437
			h101.624V20.44z M3.504,90.526h75.885c0.032,0,0.06-0.017,0.089-0.017c0.86,13.796,11.875,24.804,25.664,25.663
			c0,0.034-0.017,0.062-0.017,0.089v40.844H3.501V90.526H3.504z M108.633,157.107v-40.84c0-0.034-0.018-0.062-0.018-0.089
			c13.795-0.862,24.804-11.873,25.663-25.666c0.034,0,0.062,0.017,0.089,0.017h75.887v66.582H108.633V157.107z"/>
		<path d="M68.678,173.463H30.06c-0.967,0-1.752,0.783-1.752,1.752v19.858c0,0.965,0.785,1.752,1.752,1.752h38.618
			c0.966,0,1.752-0.787,1.752-1.752v-19.858C70.43,174.246,69.648,173.463,68.678,173.463z M66.925,193.321H31.812v-16.354h35.113
			V193.321z"/>
		<path d="M126.315,173.463H87.698c-0.967,0-1.752,0.783-1.752,1.752v19.858c0,0.965,0.785,1.752,1.752,1.752h38.621
			c0.969,0,1.752-0.787,1.752-1.752v-19.858C128.067,174.246,127.288,173.463,126.315,173.463z M124.563,193.321H89.45v-16.354
			h35.117v16.354H124.563z"/>
		<path d="M183.698,173.463h-38.619c-0.965,0-1.752,0.783-1.752,1.752v19.858c0,0.965,0.787,1.752,1.752,1.752h38.623
			c0.969,0,1.752-0.787,1.752-1.752v-19.858C185.45,174.246,184.67,173.463,183.698,173.463z M181.946,193.321h-35.114v-16.354
			h35.118v16.354H181.946z"/>
	</g>
</g>
</svg>