<?xml version="1.0" encoding="iso-8859-1"?>
<!-- Uploaded to: SVG Repo, www.svgrepo.com, Generator: SVG Repo Mixer Tools -->
<!DOCTYPE svg PUBLIC "-//W3C//DTD SVG 1.1//EN" "http://www.w3.org/Graphics/SVG/1.1/DTD/svg11.dtd">
<svg fill="#000000" version="1.1" id="Capa_1" xmlns="http://www.w3.org/2000/svg" xmlns:xlink="http://www.w3.org/1999/xlink" 
	 width="800px" height="800px" viewBox="0 0 180.384 180.384"
	 xml:space="preserve">
<g>
	<g>
		<path d="M56.069,36.725C25.155,36.725,0,61.877,0,92.793c0,22.251,13.03,42.233,33.291,51.24v9.646v10.951
			c0,0.969,0.785,1.752,1.752,1.752c0.968,0,1.752-0.783,1.752-1.752v-9.198h6.571v9.198c0,0.969,0.785,1.752,1.752,1.752
			c0.969,0,1.752-0.783,1.752-1.752v-9.198h7.446v9.198c0,0.969,0.786,1.752,1.752,1.752c0.968,0,1.752-0.783,1.752-1.752v-9.198
			h6.132v9.198c0,0.969,0.786,1.752,1.752,1.752c0.968,0,1.752-0.783,1.752-1.752v-9.198h7.885v9.198
			c0,0.969,0.786,1.752,1.752,1.752c0.969,0,1.752-0.783,1.752-1.752V153.68v-9.646c20.263-9.007,33.291-28.989,33.291-51.24
			C112.138,61.877,86.984,36.725,56.069,36.725z M76.415,141.268c-0.652,0.274-1.073,0.911-1.073,1.615v9.045H36.795v-9.045
			c0-0.704-0.422-1.341-1.071-1.615c-19.572-8.223-32.22-27.247-32.22-48.475c0-28.984,23.58-52.564,52.564-52.564
			c28.984,0,52.564,23.581,52.564,52.564C108.633,114.021,95.984,133.045,76.415,141.268z"/>
		<path d="M33.508,84.908c-6.16,0-11.171,5.012-11.171,11.174c0,6.16,5.012,11.17,11.171,11.17c6.162,0,11.172-5.01,11.172-11.17
			C44.68,89.92,39.67,84.908,33.508,84.908z M33.508,103.744c-4.225,0-7.667-3.436-7.667-7.666c0-4.231,3.438-7.669,7.667-7.669
			c4.23,0,7.667,3.438,7.667,7.669C41.175,100.309,37.734,103.744,33.508,103.744z"/>
		<path d="M78.626,84.908c-6.16,0-11.172,5.012-11.172,11.174c0,6.16,5.012,11.17,11.172,11.17c6.162,0,11.171-5.01,11.171-11.17
			C89.797,89.92,84.788,84.908,78.626,84.908z M78.626,103.744c-4.225,0-7.667-3.436-7.667-7.666c0-4.231,3.438-7.669,7.667-7.669
			c4.229,0,7.667,3.438,7.667,7.669C86.293,100.309,82.852,103.744,78.626,103.744z"/>
		<path d="M59.79,112.066c-1.338,0-2.616,0.373-3.725,1.071c-1.104-0.694-2.385-1.071-3.725-1.071c-3.865,0-7.009,3.146-7.009,7.009
			c0,3.867,3.144,7.009,7.009,7.009c1.34,0,2.618-0.369,3.725-1.067c1.104,0.694,2.387,1.067,3.725,1.067
			c3.866,0,7.009-3.142,7.009-7.009C66.799,115.212,63.656,112.066,59.79,112.066z M59.79,122.58c-0.938,0-1.819-0.363-2.481-1.03
			c-0.329-0.332-0.773-0.514-1.24-0.514c-0.465,0-0.911,0.185-1.241,0.514c-0.662,0.663-1.545,1.03-2.481,1.03
			c-1.93,0-3.504-1.571-3.504-3.505s1.574-3.504,3.504-3.504c0.939,0,1.819,0.366,2.481,1.03c0.659,0.663,1.826,0.663,2.481,0
			c0.662-0.661,1.547-1.03,2.481-1.03c1.932,0,3.504,1.57,3.504,3.504S61.726,122.58,59.79,122.58z"/>
		<path d="M162.628,146.527h-3.765v-3.504h3.765c0.616,0,1.188-0.325,1.506-0.855c6.954-11.68,18.049-35.625,16.002-66.85
			c0-0.074-0.011-0.144-0.018-0.221c-1.259-18.654-7.203-39.897-21.521-62.668c-0.646-1.02-2.327-1.02-2.971,0
			c-8.21,13.058-13.654,25.6-17.049,37.447c-0.024,0.014-0.048,0.017-0.065,0.031c-0.681,0.498-0.862,1.386-0.53,2.122
			c-3.278,12.232-4.384,23.688-4.086,34.151c-0.096,0.341-0.082,0.691,0.034,1.035c0.962,25.393,10.116,44.807,16.156,54.953
			c0.318,0.53,0.886,0.855,1.509,0.855h3.761v3.504h-3.761c-0.633,0-1.215,0.343-1.526,0.887c-0.312,0.548-0.305,1.226,0.018,1.763
			c2.953,4.959,5.273,17.966,5.301,18.097c0.144,0.838,0.876,1.447,1.722,1.447c0.849,0,1.577-0.609,1.725-1.447
			c0.023-0.131,2.337-13.131,5.301-18.097c0.321-0.537,0.328-1.215,0.014-1.763C163.839,146.87,163.258,146.527,162.628,146.527z
			 M161.625,139.52h-2.762V97.885l17.933-18.454C177.651,107.098,168.083,128.425,161.625,139.52z M157.111,16.701
			c12.73,21.022,18.165,40.631,19.431,57.965l-17.679,18.192V46.07c0-0.967-0.783-1.752-1.752-1.752
			c-0.965,0-1.752,0.785-1.752,1.752v23.848l-13.559-18.494C144.895,40.426,149.784,28.797,157.111,16.701z M140.657,55.794
			l14.702,20.052v37.428L137.427,86.3C137.14,76.907,138.022,66.686,140.657,55.794z M152.594,139.52
			c-5.338-9.165-12.799-25.32-14.749-46.265l17.515,26.351v19.917h-2.766V139.52z M157.111,158.673
			c-0.729-2.888-1.653-6.07-2.717-8.641h5.435C158.761,152.599,157.837,155.785,157.111,158.673z"/>
	</g>
</g>
</svg>