<?xml version="1.0" encoding="iso-8859-1"?>
<!-- Uploaded to: SVG Repo, www.svgrepo.com, Generator: SVG Repo Mixer Tools -->
<!DOCTYPE svg PUBLIC "-//W3C//DTD SVG 1.1//EN" "http://www.w3.org/Graphics/SVG/1.1/DTD/svg11.dtd">
<svg fill="#000000" version="1.1" id="Capa_1" xmlns="http://www.w3.org/2000/svg" xmlns:xlink="http://www.w3.org/1999/xlink" 
	 width="800px" height="800px" viewBox="0 0 179.738 179.738"
	 xml:space="preserve">
<g>
	<g>
		<path d="M163.608,0H16.134c-2.906,0-5.257,2.351-5.257,5.256v169.226c0,2.902,2.351,5.257,5.257,5.257h147.471
			c2.902,0,5.257-2.354,5.257-5.257V5.256C168.864,2.351,166.51,0,163.608,0z M158.352,169.226H21.39V10.513h136.958v158.713
			H158.352z"/>
		<path d="M68.19,145.646h41.177c2.901,0,5.256-2.354,5.256-5.256c0-2.902-2.354-5.257-5.256-5.257h-14.24V78.188h12.029
			c2.902,0,5.256-2.351,5.256-5.256c0-2.904-2.354-5.256-5.256-5.256H70.397c-2.905,0-5.256,2.353-5.256,5.256
			c0,2.905,2.351,5.256,5.256,5.256h14.221v56.946H68.19c-2.906,0-5.256,2.354-5.256,5.257
			C62.934,143.292,65.284,145.646,68.19,145.646z"/>
		<circle cx="88.777" cy="45.773" r="10.951"/>
	</g>
</g>
</svg>