<?xml version="1.0" encoding="iso-8859-1"?>
<!-- Uploaded to: SVG Repo, www.svgrepo.com, Generator: SVG Repo Mixer Tools -->
<!DOCTYPE svg PUBLIC "-//W3C//DTD SVG 1.1//EN" "http://www.w3.org/Graphics/SVG/1.1/DTD/svg11.dtd">
<svg fill="#000000" version="1.1" id="Capa_1" xmlns="http://www.w3.org/2000/svg" xmlns:xlink="http://www.w3.org/1999/xlink" 
	 width="800px" height="800px" viewBox="0 0 111.042 111.042"
	 xml:space="preserve">
<g>
	<g>
		<path d="M100.819,24.505l0.007-0.753c0.071-8.774-2.259-15.304-6.927-19.407C88.064-0.778,80.84,0.008,80.2,0.091
			c-0.044,0-0.078-0.023-0.126-0.023H30.601c-1.414-0.141-8.028-0.495-13.461,4.277c-4.668,4.104-6.999,10.633-6.925,19.411
			l0.003,0.767c0.008,4.089,0.029,10.609,7.044,15.809c-2.26,4.219-3.474,8.958-3.474,14.048c0,14.176,19.13,31.759,32.177,42.105
			c-3.174,4.89-6.43,7.549-9.313,7.549c-1.939,0-3.504,1.564-3.504,3.505c0,1.937,1.565,3.504,3.504,3.504h37.226
			c1.937,0,3.504-1.567,3.504-3.504c0-1.94-1.567-3.505-3.504-3.505c-2.878,0-6.14-2.659-9.318-7.546
			C77.61,86.145,96.733,68.559,96.733,54.379c0-4.986-1.164-9.625-3.334-13.774C100.792,35.355,100.819,28.668,100.819,24.505z
			 M17.229,24.509l-0.005-0.816c-0.055-6.601,1.451-11.319,4.483-14.027c3.507-3.14,8.186-2.622,8.28-2.618
			c0.077,0.01,0.147-0.021,0.224-0.014c0.077,0.003,0.147,0.046,0.224,0.046c6.442,0,11.683,4.292,11.683,9.565
			c0,2.847-1.526,5.5-4.201,7.339c-6.925,2.344-12.545,5.999-16.628,10.597C17.277,31.514,17.236,28.097,17.229,24.509z
			 M57.814,92.86c-1.379,1.061-1.77,2.974-0.917,4.489c1.454,2.595,2.958,4.822,4.512,6.681H49.113
			c1.548-1.862,3.052-4.097,4.507-6.69c0.849-1.52,0.455-3.429-0.922-4.486c-19.977-15.39-31.903-29.77-31.903-38.474
			c0-10.961,7.462-19.914,19.955-23.952c0.522-0.167,0.974-0.452,1.345-0.809c4.42-3.133,7.036-7.929,7.036-12.968
			c0-3.564-1.271-6.867-3.434-9.567h19.122c-2.16,2.7-3.433,6.006-3.433,9.567c0,5.023,2.598,9.808,6.991,12.934
			c0.376,0.378,0.853,0.673,1.39,0.844c12.49,4.033,19.951,12.987,19.951,23.952C89.72,63.086,77.794,77.47,57.814,92.86z
			 M93.81,24.502c0,3.691,0,7.202-4.366,10.335c-4.08-4.701-9.747-8.436-16.756-10.826c-0.058-0.031-0.116-0.063-0.178-0.087
			c-2.621-1.833-4.12-4.464-4.12-7.279c0-5.277,5.243-9.565,11.684-9.565c0.126,0,0.235-0.06,0.355-0.075
			c0.209,0.012,0.404,0.072,0.616,0.043c0.051-0.004,4.75-0.536,8.281,2.618c3.032,2.705,4.538,7.426,4.48,14.031L93.81,24.502z"/>
		<path d="M69.184,35.78c-1.909-0.324-3.676,0.977-4,2.873c-0.322,1.896,0.954,3.701,2.851,4.04
			c0.39,0.07,9.562,1.843,12.049,13.584c0.353,1.652,1.804,2.782,3.426,2.782c0.239,0,0.489-0.027,0.732-0.075
			c1.896-0.4,3.104-2.263,2.7-4.155C83.438,38.264,69.766,35.87,69.184,35.78z"/>
	</g>
</g>
</svg>