<?xml version="1.0" encoding="iso-8859-1"?>
<!-- Uploaded to: SVG Repo, www.svgrepo.com, Generator: SVG Repo Mixer Tools -->
<svg fill="#000000" height="800px" width="800px" version="1.1" id="Capa_1" xmlns="http://www.w3.org/2000/svg" xmlns:xlink="http://www.w3.org/1999/xlink" 
	 viewBox="0 0 40.899 40.899" xml:space="preserve">
<g>
	<path d="M20.521,23.514c-1.859,0-3.359-1.395-3.359-3.115c0-1.723,1.5-3.121,3.359-3.121s3.367,1.398,3.367,3.121
		C23.889,22.121,22.381,23.514,20.521,23.514z"/>
	<path d="M37.232,18.478c0,0-5.846-9.152-16.885-9.152c-11.035,0-16.882,9.152-16.882,9.152C2.268,19.711,0,20.451,0,20.451
		s2.268,0.738,3.465,1.971c0,0,5.848,9.152,16.883,9.152c11.039,0,16.885-9.152,16.885-9.152c1.199-1.232,3.666-1.971,3.666-1.971
		S38.432,19.711,37.232,18.478z M20.402,26.996c-3.891,0-7.049-2.926-7.049-6.535c0-3.605,3.158-6.533,7.049-6.533
		c3.895,0,7.055,2.928,7.055,6.533C27.457,24.069,24.297,26.996,20.402,26.996z"/>
	<g>
	</g>
	<g>
	</g>
	<g>
	</g>
	<g>
	</g>
	<g>
	</g>
	<g>
	</g>
	<g>
	</g>
	<g>
	</g>
	<g>
	</g>
	<g>
	</g>
	<g>
	</g>
	<g>
	</g>
	<g>
	</g>
	<g>
	</g>
	<g>
	</g>
</g>
</svg>