<?xml version="1.0" encoding="iso-8859-1"?>
<!-- Uploaded to: SVG Repo, www.svgrepo.com, Generator: SVG Repo Mixer Tools -->
<!DOCTYPE svg PUBLIC "-//W3C//DTD SVG 1.1//EN" "http://www.w3.org/Graphics/SVG/1.1/DTD/svg11.dtd">
<svg fill="#000000" version="1.1" id="Capa_1" xmlns="http://www.w3.org/2000/svg" xmlns:xlink="http://www.w3.org/1999/xlink" 
	 width="800px" height="800px" viewBox="0 0 179.742 179.742"
	 xml:space="preserve">
<g>
	<g>
		<path d="M163.61,0H16.136c-2.906,0-5.257,2.351-5.257,5.256v169.229c0,2.902,2.351,5.257,5.257,5.257h147.471
			c2.902,0,5.257-2.354,5.257-5.257V5.256C168.866,2.354,166.512,0,163.61,0z M158.354,169.229H21.392V10.513h136.958v158.717
			H158.354z"/>
		<path d="M57.191,161.639c2.905,0,5.256-2.354,5.256-5.257v-55.154l22.533,57.088c0.795,2.006,2.729,3.323,4.892,3.323
			c2.162,0,4.096-1.317,4.892-3.323l22.537-57.088v55.154c0,2.902,2.354,5.257,5.256,5.257c2.902,0,5.257-2.354,5.257-5.257V73.59
			c0-0.017-0.007-0.036-0.007-0.053c0-0.221-0.034-0.438-0.068-0.659c-0.018-0.128-0.021-0.262-0.048-0.388
			c-0.034-0.165-0.096-0.322-0.15-0.484c-0.056-0.164-0.09-0.335-0.161-0.495c-0.052-0.125-0.13-0.238-0.195-0.359
			c-0.093-0.176-0.178-0.361-0.287-0.523c-0.089-0.132-0.209-0.245-0.309-0.371c-0.109-0.132-0.212-0.275-0.339-0.399
			c-0.099-0.106-0.229-0.19-0.346-0.288c-0.146-0.123-0.287-0.256-0.451-0.361c-0.096-0.067-0.205-0.108-0.309-0.167
			c-0.205-0.117-0.4-0.231-0.622-0.32c-0.018-0.007-0.027-0.017-0.045-0.024c-0.12-0.049-0.243-0.067-0.366-0.106
			c-0.191-0.058-0.373-0.125-0.574-0.164c-0.227-0.045-0.459-0.055-0.685-0.07c-0.103-0.007-0.199-0.031-0.302-0.031
			c-0.014,0-0.027,0.003-0.041,0.003c-0.25,0.003-0.499,0.039-0.739,0.073c-0.103,0.014-0.212,0.018-0.308,0.038
			c-0.191,0.039-0.366,0.109-0.548,0.169c-0.15,0.05-0.301,0.081-0.438,0.144c-0.12,0.053-0.229,0.125-0.35,0.188
			c-0.181,0.096-0.369,0.183-0.534,0.3c-0.112,0.075-0.215,0.174-0.321,0.262c-0.15,0.126-0.314,0.241-0.455,0.381
			c-0.1,0.103-0.182,0.221-0.271,0.333c-0.13,0.151-0.267,0.294-0.373,0.459c-0.071,0.109-0.119,0.228-0.188,0.344
			c-0.104,0.188-0.22,0.375-0.302,0.582c-0.007,0.017-0.021,0.034-0.027,0.051L89.873,142.07L62.08,71.663
			c-0.007-0.015-0.017-0.029-0.021-0.046c-0.087-0.214-0.2-0.411-0.311-0.606c-0.063-0.109-0.11-0.224-0.18-0.327
			c-0.094-0.144-0.211-0.266-0.318-0.396c-0.11-0.137-0.21-0.28-0.331-0.404c-0.083-0.081-0.181-0.147-0.269-0.224
			c-0.166-0.147-0.327-0.294-0.504-0.416c-0.1-0.067-0.208-0.113-0.308-0.173c-0.19-0.108-0.376-0.224-0.579-0.312
			c-0.099-0.046-0.21-0.067-0.313-0.101c-0.221-0.079-0.438-0.159-0.666-0.207c-0.084-0.019-0.175-0.019-0.262-0.032
			c-0.26-0.041-0.515-0.074-0.782-0.077c-0.014,0-0.027-0.003-0.043-0.003c-0.101,0-0.195,0.026-0.294,0.029
			c-0.231,0.014-0.458,0.024-0.689,0.068c-0.204,0.04-0.392,0.106-0.585,0.17c-0.12,0.037-0.238,0.056-0.357,0.101
			c-0.014,0.007-0.027,0.017-0.046,0.021c-0.217,0.089-0.419,0.207-0.623,0.324c-0.103,0.06-0.21,0.101-0.308,0.167
			c-0.159,0.106-0.294,0.234-0.441,0.357c-0.117,0.098-0.247,0.187-0.354,0.291c-0.123,0.123-0.221,0.264-0.333,0.397
			c-0.101,0.125-0.221,0.241-0.308,0.375c-0.116,0.167-0.204,0.354-0.294,0.536c-0.063,0.116-0.137,0.224-0.19,0.347
			c-0.07,0.164-0.111,0.342-0.164,0.511c-0.05,0.154-0.108,0.305-0.144,0.462c-0.027,0.137-0.031,0.277-0.053,0.414
			c-0.027,0.21-0.058,0.416-0.063,0.629c0,0.019-0.003,0.04-0.003,0.057v82.785C51.935,159.288,54.291,161.639,57.191,161.639z"/>
		<path d="M52.208,57.078c0.021,0.073,0.04,0.147,0.067,0.217c0.221,0.599,0.546,1.143,0.957,1.615
			c0.024,0.027,0.032,0.07,0.06,0.097c0.027,0.029,0.06,0.05,0.087,0.077c0.167,0.18,0.354,0.337,0.547,0.491
			c0.091,0.073,0.175,0.154,0.269,0.221c0.214,0.147,0.445,0.271,0.681,0.385c0.084,0.043,0.161,0.096,0.245,0.134
			c0.638,0.277,1.338,0.431,2.074,0.431h65.363c0.363,0,0.723-0.04,1.068-0.108c0.01,0,0.021-0.007,0.034-0.01
			c0.335-0.075,0.66-0.176,0.972-0.31c0.089-0.038,0.178-0.098,0.264-0.144c0.229-0.114,0.451-0.228,0.66-0.371
			c0.093-0.07,0.185-0.157,0.28-0.231c0.186-0.151,0.366-0.305,0.531-0.478c0.027-0.031,0.064-0.048,0.085-0.081
			c0.027-0.03,0.038-0.07,0.062-0.101c0.411-0.473,0.736-1.013,0.958-1.608c0.028-0.074,0.045-0.147,0.069-0.225
			c0.16-0.504,0.27-1.026,0.27-1.584c0-0.063-0.017-0.122-0.017-0.182c-0.007-0.077-0.021-0.147-0.027-0.224
			c-0.048-0.621-0.192-1.213-0.432-1.755c-0.027-0.053-0.062-0.1-0.082-0.151c-0.287-0.575-0.664-1.095-1.129-1.524
			c-0.021-0.022-0.027-0.046-0.048-0.067L93.395,22.098c-0.204-0.183-0.452-0.253-0.669-0.397c-0.298-0.195-0.575-0.402-0.9-0.532
			c-0.313-0.126-0.628-0.176-0.95-0.237c-0.34-0.067-0.662-0.144-1.006-0.144c-0.333,0-0.645,0.074-0.967,0.137
			c-0.337,0.064-0.658,0.114-0.982,0.244c-0.322,0.13-0.599,0.337-0.896,0.532c-0.221,0.147-0.465,0.218-0.666,0.397L53.677,51.594
			c-0.021,0.018-0.024,0.045-0.044,0.062c-0.467,0.435-0.849,0.952-1.133,1.53c-0.024,0.051-0.057,0.094-0.081,0.147
			c-0.245,0.542-0.388,1.138-0.438,1.759c-0.003,0.074-0.017,0.144-0.021,0.221c0,0.063-0.019,0.122-0.019,0.185
			C51.935,56.044,52.048,56.573,52.208,57.078z M89.873,33.073l19.01,17.157h-38.02L89.873,33.073z"/>
	</g>
</g>
</svg>