<?xml version="1.0" encoding="iso-8859-1"?>
<!-- Uploaded to: SVG Repo, www.svgrepo.com, Generator: SVG Repo Mixer Tools -->
<!DOCTYPE svg PUBLIC "-//W3C//DTD SVG 1.1//EN" "http://www.w3.org/Graphics/SVG/1.1/DTD/svg11.dtd">
<svg fill="#000000" version="1.1" id="Capa_1" xmlns="http://www.w3.org/2000/svg" xmlns:xlink="http://www.w3.org/1999/xlink" 
	 width="800px" height="800px" viewBox="0 0 192.154 192.154"
	 xml:space="preserve">
<g>
	<g>
		<path d="M71.547,50.96h-49.06c-1.938,0-3.504,1.565-3.504,3.504v10.513c0,1.938,1.566,3.504,3.504,3.504h49.06
			c1.938,0,3.504-1.566,3.504-3.504V54.464C75.052,52.525,73.486,50.96,71.547,50.96z M68.043,61.473H25.992v-3.504h42.051V61.473z"
			/>
		<path d="M71.547,174.633h-49.06c-1.938,0-3.504,1.564-3.504,3.505v10.513c0,1.937,1.566,3.504,3.504,3.504h49.06
			c1.938,0,3.504-1.567,3.504-3.504v-10.513C75.052,176.197,73.486,174.633,71.547,174.633z M68.043,185.146H25.992v-3.505h42.051
			V185.146z"/>
		<path d="M62.787,172.864c1.938,0,3.504-1.567,3.504-3.505V75.49c0-1.938-1.566-3.504-3.504-3.504H52.274
			c-1.939,0-3.504,1.566-3.504,3.504v93.87c0,1.938,1.565,3.505,3.504,3.505H62.787z M55.778,78.994h3.504v86.861h-3.504V78.994z"/>
		<path d="M41.761,172.864c1.939,0,3.504-1.567,3.504-3.505V75.49c0-1.938-1.565-3.504-3.504-3.504H31.248
			c-1.938,0-3.504,1.566-3.504,3.504v93.87c0,1.938,1.566,3.505,3.504,3.505H41.761z M34.752,78.994h3.504v86.861h-3.504V78.994z"/>
		<path d="M169.668,50.96h-49.061c-1.937,0-3.504,1.565-3.504,3.504v10.513c0,1.938,1.567,3.504,3.504,3.504h49.061
			c1.937,0,3.504-1.566,3.504-3.504V54.464C173.172,52.525,171.604,50.96,169.668,50.96z M166.163,61.473h-42.052v-3.504h42.052
			V61.473z"/>
		<path d="M169.668,174.633h-49.061c-1.937,0-3.504,1.564-3.504,3.505v10.513c0,1.937,1.567,3.504,3.504,3.504h49.061
			c1.937,0,3.504-1.567,3.504-3.504v-10.513C173.172,176.197,171.604,174.633,169.668,174.633z M166.163,185.146h-42.052v-3.505
			h42.052V185.146z"/>
		<path d="M160.907,172.864c1.937,0,3.504-1.567,3.504-3.505V75.49c0-1.938-1.567-3.504-3.504-3.504h-10.514
			c-1.937,0-3.504,1.566-3.504,3.504v93.87c0,1.938,1.567,3.505,3.504,3.505H160.907z M153.898,78.994h3.504v86.861h-3.504V78.994z"
			/>
		<path d="M139.881,172.864c1.938,0,3.505-1.567,3.505-3.505V75.49c0-1.938-1.567-3.504-3.505-3.504h-10.513
			c-1.937,0-3.504,1.566-3.504,3.504v93.87c0,1.938,1.567,3.505,3.504,3.505H139.881z M132.872,78.994h3.505v86.861h-3.505V78.994z"
			/>
		<path d="M96.859,117.982c-9.984,0-18.103,8.117-18.103,18.104v33.273c0,1.938,1.565,3.505,3.504,3.505h29.196
			c1.937,0,3.504-1.567,3.504-3.505v-33.273C114.961,126.1,106.837,117.982,96.859,117.982z M107.952,165.855H85.765v-29.77
			c0-6.119,4.976-11.095,11.095-11.095c6.117,0,11.093,4.976,11.093,11.095V165.855z"/>
		<path d="M96.859,74.179c-9.984,0-18.103,8.119-18.103,18.103v14.599c0,1.938,1.565,3.505,3.504,3.505h29.196
			c1.937,0,3.504-1.567,3.504-3.505V92.282C114.961,82.298,106.837,74.179,96.859,74.179z M107.952,103.377H85.765V92.282
			c0-6.119,4.976-11.095,11.095-11.095c6.117,0,11.093,4.976,11.093,11.095V103.377z"/>
		<path d="M22.487,46.727h147.181c1.602,0,2.997-1.087,3.395-2.639c0.396-1.552-0.312-3.176-1.718-3.942L98.534,0.428
			c-1.035-0.562-2.292-0.575-3.326-0.014L20.836,40.132c-1.418,0.756-2.137,2.382-1.749,3.942
			C19.481,45.63,20.879,46.727,22.487,46.727z M96.841,7.49l59.083,32.228H36.487L96.841,7.49z"/>
	</g>
</g>
</svg>