<?xml version="1.0" encoding="iso-8859-1"?>
<!-- Uploaded to: SVG Repo, www.svgrepo.com, Generator: SVG Repo Mixer Tools -->
<!DOCTYPE svg PUBLIC "-//W3C//DTD SVG 1.1//EN" "http://www.w3.org/Graphics/SVG/1.1/DTD/svg11.dtd">
<svg fill="#000000" version="1.1" id="Capa_1" xmlns="http://www.w3.org/2000/svg" xmlns:xlink="http://www.w3.org/1999/xlink" 
	 width="800px" height="800px" viewBox="0 0 266.326 266.326"
	 xml:space="preserve">
<g>
	<g>
		<path d="M78.847,85.855h-49.06c-1.937,0-3.504,1.571-3.504,3.504v57.821c0,1.937,1.567,3.504,3.504,3.504h49.06
			c1.939,0,3.504-1.567,3.504-3.504V89.359C82.351,87.426,80.786,85.855,78.847,85.855z M75.343,143.676H33.291V92.864h42.052
			V143.676z"/>
		<path d="M78.847,154.188h-24.53c-1.937,0-3.504,1.571-3.504,3.505v37.086c0,1.934,1.567,3.504,3.504,3.504h24.53
			c1.939,0,3.504-1.57,3.504-3.504v-37.086C82.351,155.76,80.786,154.188,78.847,154.188z M75.343,191.274H57.821v-30.077h17.521
			V191.274z"/>
		<path d="M176.967,85.855H91.988c-1.937,0-3.504,1.571-3.504,3.504v105.42c0,1.934,1.567,3.504,3.504,3.504h84.979
			c1.938,0,3.505-1.57,3.505-3.504V89.359C180.472,87.426,178.904,85.855,176.967,85.855z M173.463,191.274H95.492V92.864h77.971
			V191.274z"/>
		<path d="M176.967,34.167h-30.662c-1.938,0-3.505,1.57-3.505,3.504v37.671c0,1.935,1.567,3.504,3.505,3.504h30.662
			c1.938,0,3.505-1.569,3.505-3.504V37.671C180.472,35.737,178.904,34.167,176.967,34.167z M173.463,71.838h-23.654V41.175h23.654
			V71.838z"/>
		<path d="M189.232,130.535h34.166c1.938,0,3.505-1.569,3.505-3.505V89.359c0-1.934-1.567-3.504-3.505-3.504h-34.166
			c-1.938,0-3.505,1.571-3.505,3.504v37.671C185.728,128.966,187.295,130.535,189.232,130.535z M192.736,92.864h27.158v30.663
			h-27.158V92.864z"/>
		<path d="M232.159,138.563h-42.927c-1.938,0-3.505,1.57-3.505,3.504v52.712c0,1.934,1.567,3.504,3.505,3.504h42.927
			c1.938,0,3.505-1.57,3.505-3.504v-52.712C235.664,140.134,234.097,138.563,232.159,138.563z M228.655,191.274h-35.919v-45.702
			h35.919V191.274z"/>
		<path d="M176.967,201.395h-57.821c-1.937,0-3.504,1.57-3.504,3.504v38.359c0,1.934,1.567,3.504,3.504,3.504h57.821
			c1.938,0,3.505-1.57,3.505-3.504v-38.359C180.472,202.961,178.904,201.395,176.967,201.395z M173.463,239.753H122.65v-31.351
			h50.812V239.753z"/>
		<path d="M133.163,0C59.739,0,0,59.739,0,133.163c0,73.426,59.739,133.163,133.163,133.163
			c73.426,0,133.163-59.737,133.163-133.163C266.326,59.739,206.589,0,133.163,0z M70.962,28.034h58.697v49.937H70.962V28.034z
			 M133.163,259.317c-69.562,0-126.154-56.589-126.154-126.154c0-44.018,22.677-82.82,56.945-105.397v53.709
			c0,1.936,1.567,3.504,3.504,3.504h65.705c1.938,0,3.505-1.569,3.505-3.504V24.53c0-1.934-1.566-3.504-3.505-3.504H75.479
			c17.304-8.936,36.904-14.017,57.684-14.017c69.565,0,126.155,56.59,126.155,126.154
			C259.318,202.729,202.723,259.317,133.163,259.317z"/>
	</g>
</g>
</svg>