<?xml version="1.0" encoding="iso-8859-1"?>
<!-- Uploaded to: SVG Repo, www.svgrepo.com, Generator: SVG Repo Mixer Tools -->
<!DOCTYPE svg PUBLIC "-//W3C//DTD SVG 1.1//EN" "http://www.w3.org/Graphics/SVG/1.1/DTD/svg11.dtd">
<svg fill="#000000" version="1.1" id="Capa_1" xmlns="http://www.w3.org/2000/svg" xmlns:xlink="http://www.w3.org/1999/xlink" 
	 width="800px" height="800px" viewBox="0 0 161.197 161.197"
	 xml:space="preserve">
<g>
	<g>
		<path d="M157.693,28.171c1.937,0,3.504-1.569,3.504-3.504v-3.504c0-1.933-1.567-3.504-3.504-3.504H3.504
			C1.571,17.658,0,19.229,0,21.162v3.504c0,1.936,1.571,3.504,3.504,3.504c3.543,0,6.423,2.885,6.423,6.423
			c0,3.541-2.88,6.423-6.423,6.423C1.571,41.018,0,42.588,0,44.522v5.26c0,1.936,1.571,3.504,3.504,3.504
			c3.543,0,6.423,2.885,6.423,6.423c0,3.541-2.88,6.423-6.423,6.423C1.571,66.133,0,67.704,0,69.637v5.256
			c0,1.936,1.571,3.504,3.504,3.504c3.543,0,6.423,2.885,6.423,6.423s-2.88,6.424-6.423,6.424C1.571,91.245,0,92.815,0,94.749v3.505
			c0,1.933,1.571,3.504,3.504,3.504h14.782l1.345,2.803c0.838,1.745,2.933,2.484,4.671,1.643c2.433-1.17,5.362-0.137,6.533,2.3
			c0.563,1.177,0.637,2.505,0.202,3.74c-0.433,1.235-1.321,2.225-2.502,2.789c-0.836,0.403-1.481,1.122-1.79,1.999
			c-0.31,0.876-0.257,1.841,0.147,2.676l1.927,4.011c0.842,1.752,2.929,2.484,4.675,1.646c1.181-0.564,2.505-0.633,3.739-0.201
			c1.233,0.431,2.226,1.32,2.791,2.505c1.167,2.43,0.135,5.359-2.299,6.529c-1.746,0.839-2.481,2.93-1.643,4.675l1.282,2.68
			c0.603,1.256,1.858,1.988,3.16,1.988c0.508,0,1.023-0.109,1.515-0.346l86.409-41.439h21.939h7.303
			c1.934,0,3.505-1.567,3.505-3.504v-3.504c0-1.934-1.571-3.505-3.505-3.505c-3.541,0-6.423-2.882-6.423-6.423
			c0-3.542,2.882-6.424,6.423-6.424c1.934,0,3.505-1.569,3.505-3.504v-5.256c0-1.934-1.571-3.504-3.505-3.504
			c-3.541,0-6.423-2.879-6.423-6.423c0-3.542,2.882-6.423,6.423-6.423c1.934,0,3.505-1.569,3.505-3.504v-5.26
			c0-1.934-1.571-3.504-3.505-3.504c-3.541,0-6.423-2.879-6.423-6.423C151.27,31.056,154.151,28.171,157.693,28.171z M47.021,133.04
			c0.772-2.7,0.635-5.675-0.672-8.395c-1.377-2.864-3.785-5.027-6.788-6.085c-1.208-0.428-2.456-0.65-3.705-0.681
			c2.644-3.446,3.302-8.221,1.297-12.402c-0.703-1.465-1.689-2.696-2.839-3.717h3.019l11.382,22.303
			c0.616,1.208,1.843,1.909,3.121,1.909c0.488,0,0.982-0.099,1.451-0.314l52.427-23.9h6.522L47.021,133.04z M51.483,111.597
			c0.525,1.409,1.863,2.278,3.282,2.278c0.411,0,0.825-0.074,1.23-0.226l31.732-11.885h1.099l-35.393,16.132l-8.232-16.132h22.54
			l-14.205,5.321C51.721,107.771,50.802,109.786,51.483,111.597z M152.923,47.154c-5.058,1.928-8.661,6.831-8.661,12.559
			c0,5.727,3.604,10.629,8.661,12.556c-5.055,1.928-8.661,6.831-8.661,12.556c0,3.929,1.697,7.47,4.397,9.928H25.697H12.539
			c2.702-2.458,4.397-5.999,4.397-9.928c0-5.726-3.602-10.628-8.662-12.556c5.06-1.927,8.662-6.829,8.662-12.556
			c0-5.729-3.605-10.631-8.665-12.559c5.06-1.927,8.665-6.829,8.665-12.556c0-3.927-1.696-7.467-4.394-9.928h136.117
			c-2.7,2.461-4.397,6.001-4.397,9.928C144.262,40.328,147.865,45.227,152.923,47.154z"/>
		<path d="M137.834,31.097H23.36c-1.934,0-3.504,1.571-3.504,3.504v50.224c0,1.933,1.571,3.504,3.504,3.504h114.474
			c1.934,0,3.505-1.571,3.505-3.504V34.601C141.339,32.664,139.775,31.097,137.834,31.097z M134.33,38.105v2.413
			c-0.646-0.748-1.563-1.249-2.628-1.249H28.325c-0.525,0-1.013,0.133-1.461,0.34v-1.504H134.33z M128.492,68.18
			c2.516,0,4.691-1.408,5.842-3.462v9.967c-0.644-0.748-1.561-1.249-2.629-1.249H28.325c-0.525,0-1.013,0.133-1.461,0.34V66.27
			c1.209,1.174,2.855,1.906,4.671,1.906c3.705,0,6.718-3.013,6.718-6.718c0-3.703-3.013-6.717-6.718-6.717
			c-1.819,0-3.461,0.732-4.671,1.906V45.932c0.445,0.205,0.936,0.338,1.461,0.338h103.38c1.068,0,1.985-0.5,2.629-1.247V58.2
			c-1.15-2.053-3.32-3.463-5.842-3.463c-3.703,0-6.718,3.015-6.718,6.718C121.774,65.159,124.789,68.18,128.492,68.18z
			 M26.864,81.32v-1.215c0.445,0.207,0.936,0.339,1.461,0.339h103.38c1.068,0,1.985-0.5,2.629-1.247v2.123H26.864z"/>
		<polygon points="37.627,55.54 40.146,55.54 40.146,52.359 44.81,52.359 44.81,67.069 41.787,67.069 41.787,69.305 50.607,69.305 
			50.607,67.069 47.582,67.069 47.582,52.359 52.21,52.359 52.21,55.54 54.762,55.54 54.762,50.119 37.627,50.119 		"/>
		<polygon points="56.596,52.359 59.426,52.359 59.426,67.069 56.596,67.069 56.596,69.305 65.006,69.305 65.006,67.069 
			62.201,67.069 62.201,52.359 65.006,52.359 65.006,50.119 56.596,50.119 		"/>
		<polygon points="73.005,52.359 75.75,52.359 75.75,50.119 67.403,50.119 67.403,52.359 70.233,52.359 70.233,67.069 
			67.403,67.069 67.403,69.305 76.001,69.305 76.001,67.069 73.005,67.069 		"/>
		<polygon points="77.606,59.539 84.381,52.359 86.807,52.359 86.807,50.119 78.742,50.119 78.742,52.326 81.23,52.326 
			74.268,59.605 74.268,59.795 82.488,69.305 87.087,69.305 87.087,67.069 84.192,67.069 		"/>
		<polygon points="101.741,67.069 94.305,67.069 94.305,60.769 102.24,60.769 102.24,58.532 94.305,58.532 94.305,52.359 
			101.68,52.359 101.68,55.509 104.229,55.509 104.229,50.119 88.695,50.119 88.695,52.359 91.533,52.359 91.533,67.069 
			88.695,67.069 88.695,69.305 104.321,69.305 104.321,63.825 101.741,63.825 		"/>
		<polygon points="106.433,55.54 108.955,55.54 108.955,52.359 113.616,52.359 113.616,67.069 110.591,67.069 110.591,69.305 
			119.413,69.305 119.413,67.069 116.388,67.069 116.388,52.359 121.021,52.359 121.021,55.54 123.574,55.54 123.574,50.119 
			106.433,50.119 		"/>
	</g>
</g>
</svg>