<?xml version="1.0" encoding="iso-8859-1"?>
<!-- Uploaded to: SVG Repo, www.svgrepo.com, Generator: SVG Repo Mixer Tools -->
<!DOCTYPE svg PUBLIC "-//W3C//DTD SVG 1.1//EN" "http://www.w3.org/Graphics/SVG/1.1/DTD/svg11.dtd">
<svg fill="#000000" version="1.1" id="Capa_1" xmlns="http://www.w3.org/2000/svg" xmlns:xlink="http://www.w3.org/1999/xlink" 
	 width="800px" height="800px" viewBox="0 0 135.833 135.833"
	 xml:space="preserve">
<g>
	<g>
		<path d="M107.684,46.221c0.031-0.224,0.059-0.452,0.059-0.686c0-10.951-17.001-32.344-18.938-34.752
			c-1.328-1.651-4.131-1.651-5.458,0c-0.072,0.087-1.239,1.542-2.95,3.826c-4.986-7.344-9.53-13.021-9.755-13.302
			C69.979,0.484,68.97,0,67.916,0c-0.003,0-0.003,0-0.003,0c-1.062,0-2.063,0.479-2.728,1.304
			c-0.238,0.298-5.126,6.388-10.323,14.122c-1.401-1.85-2.324-2.996-2.384-3.073c-0.662-0.823-1.67-1.307-2.729-1.307
			c-1.058,0-2.063,0.481-2.729,1.307c-0.448,0.558-11.088,13.82-16.16,24.814c0,0.003,0,0.007-0.003,0.007
			c0,0.007-0.003,0.01-0.003,0.014c-1.826,3.186-2.772,6.514-2.772,9.914c0,1.227,0.166,2.33,0.33,3.36c0,0.003,0,0.003,0,0.003
			c0,0.003,0,0.003,0,0.007c0.003,0.003,0.003,0.01,0.003,0.015c0,0.004,0.003,0.004,0.003,0.007c0,0.014,0.007,0.028,0.007,0.042
			c0.003,0.007,0,0.014,0.003,0.024c0,0.003,0.003,0.003,0.003,0.008c0.004,0.024,0.014,0.048,0.018,0.074
			c1.086,6.545,5.032,12.111,10.867,15.342c7.556,5.276,17.705,8.189,28.603,8.189c22.336,0,39.834-11.891,39.834-27.071
			C107.743,46.807,107.718,46.512,107.684,46.221L107.684,46.221z M86.087,18.702c6.533,8.656,14.646,21.229,14.646,26.693
			c-0.017,0.13-0.058,0.564-0.068,0.708c-0.294,7.579-6.218,13.52-13.647,13.999c4.104-4.628,6.513-10.631,6.513-16.957
			c0-4.567-2.341-10.817-7.152-19.109c0-0.003-0.004-0.003-0.004-0.003c-0.616-1.058-1.273-2.093-1.916-3.133
			C85.041,20.107,85.594,19.357,86.087,18.702z M67.909,9.226c2.378,3.14,5.968,8.054,9.366,13.355
			c0.004,0.003,0.007,0.007,0.007,0.01c0.007,0.016,0.014,0.026,0.021,0.036c0.004,0,0.004,0.003,0.004,0.003
			c1.037,1.619,2.046,3.263,3.015,4.922c0,0,0,0,0,0.004c5.13,8.837,6.204,13.358,6.204,15.591c0,6.594-3.559,12.763-9.287,16.094
			c-0.014,0.009-0.021,0.019-0.031,0.026c-0.023,0.014-0.048,0.021-0.072,0.034c-8.402,5.277-16.816,0.855-17.156,0.677
			c-0.034-0.019-0.074-0.025-0.108-0.046c-0.022-0.01-0.036-0.033-0.057-0.043c-6.494-3.146-10.523-9.563-10.523-16.743
			c0-2.237,1.08-6.754,6.206-15.591c0-0.004,0-0.004,0-0.004c0.802-1.384,1.632-2.743,2.481-4.1c0.003-0.007,0.007-0.01,0.01-0.014
			C61.545,17.809,65.402,12.536,67.909,9.226z M49.746,20.29c0.34,0.452,0.705,0.943,1.083,1.455
			c-0.464,0.763-0.939,1.518-1.388,2.288c0,0-0.003,0-0.003,0.003c-4.812,8.292-7.152,14.542-7.152,19.109
			c0,7.205,2.971,13.82,8.018,18.572c-2.437,0.099-4.878-0.445-7.222-1.656c-4.339-3.105-7.028-6.81-7.76-10.74
			c-0.118-0.726-0.238-1.458-0.238-2.219c0-1.08,0.368-3.161,2.13-6.992c0-0.003,0.004-0.003,0.004-0.007
			C40.427,33.154,46.301,24.895,49.746,20.29z"/>
		<path d="M105.406,64.271c-1.698-0.946-3.826-0.329-4.761,1.364l-33,59.472l-33-59.472c-0.939-1.689-3.062-2.307-4.762-1.364
			c-1.689,0.939-2.303,3.07-1.364,4.764l36.063,64.993c0.618,1.112,1.791,1.804,3.062,1.804c1.273,0,2.447-0.691,3.063-1.804
			l36.059-64.993C107.708,67.341,107.096,65.208,105.406,64.271z"/>
	</g>
</g>
</svg>