<?xml version="1.0" encoding="iso-8859-1"?>
<!-- Uploaded to: SVG Repo, www.svgrepo.com, Generator: SVG Repo Mixer Tools -->
<!DOCTYPE svg PUBLIC "-//W3C//DTD SVG 1.1//EN" "http://www.w3.org/Graphics/SVG/1.1/DTD/svg11.dtd">
<svg fill="#000000" version="1.1" id="Capa_1" xmlns="http://www.w3.org/2000/svg" xmlns:xlink="http://www.w3.org/1999/xlink" 
	 width="800px" height="800px" viewBox="0 0 178.726 178.726"
	 xml:space="preserve">
<g>
	<g>
		<g>
			<path d="M66.379,78.388h45.966c12.789,0,23.186-10.401,23.186-23.188c0-8.711-4.832-16.305-11.95-20.268
				c4.011-3.28,6.628-8.201,6.628-13.776c0-9.64-7.689-17.472-17.254-17.805c-0.038-0.799-0.277-1.578-0.818-2.184
				C111.473,0.428,110.521,0,109.522,0H70.76c-0.996,0-1.946,0.424-2.611,1.167c-0.662,0.739-0.98,1.732-0.876,2.719l3.077,28.118
				h-3.973c-12.787,0-23.188,10.401-23.188,23.188C43.19,67.982,53.592,78.388,66.379,78.388z M123.201,21.155
				c0,5.985-4.87,10.857-10.855,10.857c-0.797,0-1.595-0.103-2.385-0.291l2.347-21.416c0.007,0,0.028-0.003,0.038-0.003
				C118.334,10.299,123.201,15.17,123.201,21.155z M74.666,7.012h30.948l-2.734,24.997H77.404L74.666,7.012z M66.379,39.021h7.884
				h31.762h6.324c8.921,0,16.18,7.256,16.18,16.178c0,8.921-7.259,16.18-16.18,16.18h-45.97c-8.922,0-16.18-7.258-16.18-16.18
				C50.199,46.277,57.458,39.021,66.379,39.021z"/>
		</g>
		<g>
			<path d="M112.623,82.792c0-1.934-1.567-3.504-3.505-3.504H70.76c-1.936,0-3.504,1.571-3.504,3.504c0,1.136,0.575,2.1,1.412,2.738
				c-0.837,0.64-1.412,1.605-1.412,2.736c0,1.936,1.569,3.503,3.504,3.503h38.358c1.938,0,3.505-1.567,3.505-3.503
				c0-1.134-0.575-2.1-1.41-2.736C112.048,84.892,112.623,83.928,112.623,82.792z"/>
		</g>
		<g>
			<path d="M132.026,93.527H46.695c-1.934,0-3.504,1.567-3.504,3.504v16.618c0,1.931,1.571,3.505,3.504,3.505h85.338
				c1.934,0,3.505-1.574,3.505-3.505V97.031C135.531,95.095,133.967,93.527,132.026,93.527z M128.522,110.146H50.199v-9.609h78.33
				v9.609H128.522z"/>
		</g>
		<g>
			<path d="M135.531,125.281c0-1.934-1.567-3.504-3.505-3.504H46.695c-1.934,0-3.504,1.57-3.504,3.504s1.571,3.505,3.504,3.505
				c-1.934,0-3.504,1.57-3.504,3.504s1.571,3.504,3.504,3.504c-1.934,0-3.504,1.571-3.504,3.505s1.571,3.504,3.504,3.504h8.954
				v32.415c0,1.934,1.569,3.504,3.504,3.504c1.934,0,3.504-1.57,3.504-3.504v-32.415h55.632v32.415c0,1.934,1.567,3.504,3.504,3.504
				c1.931,0,3.505-1.57,3.505-3.504v-32.415h6.734c1.934,0,3.505-1.57,3.505-3.504s-1.571-3.505-3.505-3.505
				c1.934,0,3.505-1.57,3.505-3.504s-1.571-3.504-3.505-3.504C133.967,128.786,135.531,127.222,135.531,125.281z"/>
		</g>
		<g>
			<path d="M89.942,146.53c-1.935,0-3.504,1.566-3.504,3.504v25.188c0,1.937,1.569,3.504,3.504,3.504
				c1.934,0,3.505-1.567,3.505-3.504v-25.188C93.447,148.097,91.876,146.53,89.942,146.53z"/>
		</g>
		<g>
			<path d="M79.43,146.53c-1.936,0-3.504,1.566-3.504,3.504v25.188c0,1.937,1.569,3.504,3.504,3.504
				c1.934,0,3.504-1.567,3.504-3.504v-25.188C82.934,148.097,81.363,146.53,79.43,146.53z"/>
		</g>
		<g>
			<path d="M68.917,146.53c-1.936,0-3.504,1.566-3.504,3.504v25.188c0,1.937,1.569,3.504,3.504,3.504
				c1.933,0,3.504-1.567,3.504-3.504v-25.188C72.421,148.097,70.85,146.53,68.917,146.53z"/>
		</g>
		<g>
			<path d="M100.453,146.53c-1.933,0-3.504,1.566-3.504,3.504v25.188c0,1.937,1.571,3.504,3.504,3.504
				c1.938,0,3.505-1.567,3.505-3.504v-25.188C103.958,148.097,102.391,146.53,100.453,146.53z"/>
		</g>
		<g>
			<path d="M110.967,146.53c-1.934,0-3.505,1.566-3.505,3.504v25.188c0,1.937,1.571,3.504,3.505,3.504
				c1.937,0,3.504-1.567,3.504-3.504v-25.188C114.471,148.097,112.903,146.53,110.967,146.53z"/>
		</g>
	</g>
</g>
</svg>