<?xml version="1.0" encoding="iso-8859-1"?>
<!-- Uploaded to: SVG Repo, www.svgrepo.com, Generator: SVG Repo Mixer Tools -->
<!DOCTYPE svg PUBLIC "-//W3C//DTD SVG 1.1//EN" "http://www.w3.org/Graphics/SVG/1.1/DTD/svg11.dtd">
<svg fill="#000000" version="1.1" id="Capa_1" xmlns="http://www.w3.org/2000/svg" xmlns:xlink="http://www.w3.org/1999/xlink" 
	 width="800px" height="800px" viewBox="0 0 171.412 171.413"
	 xml:space="preserve">
<g>
	<path d="M170.383,4.621c-1.369-1.371-3.584-1.371-4.952,0l-21.896,21.895H35.628V14.188c0-1.936-1.571-3.504-3.504-3.504H20.735
		c-1.936,0-3.504,1.569-3.504,3.504v12.328H3.504C1.569,26.516,0,28.085,0,30.021v103.313c0,1.934,1.569,3.505,3.504,3.505h29.709
		l-25,24.999c-1.371,1.372-1.371,3.586,0,4.955c0.683,0.684,1.581,1.026,2.478,1.026c0.897,0,1.795-0.343,2.478-1.026l29.954-29.954
		h112.237c1.934,0,3.504-1.571,3.504-3.505V30.017c0-1.936-1.57-3.504-3.504-3.504h-1.91l16.934-16.936
		C171.755,8.206,171.755,5.988,170.383,4.621z M24.239,17.692h4.38v8.824h-4.38V17.692z M7.008,129.83V33.521h13.727h11.389h104.404
		L90.41,79.64c-1.906-20.458-19.158-36.528-40.106-36.528c-22.222,0-40.299,18.079-40.299,40.299
		c0,20.951,16.071,38.202,36.528,40.108l-6.311,6.311H7.008z M50.304,104.423c-11.585,0-21.012-9.425-21.012-21.012
		c0-11.585,9.426-21.012,21.012-21.012c11.584,0,21.011,9.427,21.011,21.012C71.314,94.999,61.888,104.423,50.304,104.423z
		 M76.333,93.715c1.27-3.192,1.986-6.667,1.986-10.308c0-15.451-12.569-28.021-28.019-28.021c-15.451,0-28.021,12.569-28.021,28.021
		s12.57,28.021,28.021,28.021c3.64,0,7.11-0.722,10.306-1.991l-7.096,7.098c-1.059,0.103-2.128,0.16-3.21,0.16
		c-18.356,0-33.291-14.934-33.291-33.291c0-18.356,14.934-33.291,33.291-33.291c18.355,0,33.291,14.934,33.291,33.291
		c0,1.083-0.063,2.151-0.162,3.21L76.333,93.715z M77.75,102.212c-2.327,3.385-5.256,6.317-8.643,8.641L77.75,102.212z
		 M151.854,33.521v96.305H50.131l6.697-6.697c16.993-2.781,30.406-16.203,33.195-33.191l56.418-56.416H151.854z"/>
</g>
</svg>