<?xml version="1.0" encoding="iso-8859-1"?>
<!-- Uploaded to: SVG Repo, www.svgrepo.com, Generator: SVG Repo Mixer Tools -->
<!DOCTYPE svg PUBLIC "-//W3C//DTD SVG 1.1//EN" "http://www.w3.org/Graphics/SVG/1.1/DTD/svg11.dtd">
<svg fill="#000000" version="1.1" id="Capa_1" xmlns="http://www.w3.org/2000/svg" xmlns:xlink="http://www.w3.org/1999/xlink" 
	 width="800px" height="800px" viewBox="0 0 178.896 178.896"
	 xml:space="preserve">
<g>
	<g>
		<path d="M158.131,94.558h-21.895l20.786-20.788c1.372-1.371,1.372-3.585,0-4.956c-1.369-1.371-3.583-1.371-4.955,0l-25.742,25.744
			H94.719L68.976,68.814c-1.371-1.371-3.585-1.371-4.956,0c-1.369,1.371-1.369,3.585,0,4.956l20.788,20.788H37.233
			c-1.548,0-2.823,1.022-3.287,2.416c-0.462-1.394-1.733-2.416-3.287-2.416H19.708c-1.064,0-1.983,0.499-2.628,1.245
			c-0.644-0.749-1.562-1.245-2.628-1.245H3.504C1.567,94.558,0,96.125,0,98.062v34.509c0,1.934,1.567,3.505,3.504,3.505h10.951
			c1.066,0,1.985-0.503,2.628-1.249c0.645,0.749,1.564,1.249,2.628,1.249h10.951c1.55,0,2.825-1.023,3.287-2.42
			c0.463,1.396,1.735,2.42,3.287,2.42h47.575l-20.788,20.782c-1.369,1.372-1.369,3.587,0,4.956c0.685,0.684,1.581,1.026,2.478,1.026
			c0.898,0,1.795-0.343,2.478-1.026l25.743-25.742h31.611l25.741,25.742c0.685,0.684,1.581,1.026,2.478,1.026
			s1.793-0.343,2.478-1.026c1.369-1.369,1.369-3.584,0-4.956l-20.786-20.786h21.892c11.447,0,20.762-9.314,20.762-20.759
			C178.89,103.869,169.582,94.558,158.131,94.558z M10.951,129.066H7.009v-27.501h3.942V129.066z M27.158,129.066h-3.942v-27.501
			h3.942V129.066z M119.317,101.565l-8.795,8.795l-8.795-8.795H119.317z M40.737,129.066v-27.501h51.079l13.75,13.751l-13.75,13.75
			H40.737z M101.73,129.066l8.795-8.795l8.799,8.795H101.73z M158.131,129.066h-28.903l-13.75-13.75l13.75-13.751h28.903
			c7.58,0,13.751,6.171,13.751,13.751S165.711,129.062,158.131,129.066z"/>
		<path d="M38.477,67.243c-0.199-0.072-0.406-0.132-0.613-0.171c-8.651-1.569-14.963-0.255-18.748,3.918
			c-5.551,6.132-2.887,15.709-2.772,16.115c0.438,1.537,1.836,2.534,3.36,2.534c0.317,0,0.638-0.041,0.957-0.132
			c1.855-0.527,2.941-2.46,2.419-4.319c-0.484-1.738-1.203-6.829,1.241-9.506c2.498-2.736,7.832-2.492,11.984-1.766
			c2.726,0.993,16.546,5.544,23.856-1.244c3.978-3.694,5.022-9.704,3.112-17.886c4.675-2.411,13.552-8.078,15-16.919
			c1.134-6.958-2.481-14.021-10.749-20.986c-1.485-1.25-3.699-1.052-4.937,0.423c-1.248,1.48-1.059,3.691,0.419,4.938
			c6.246,5.256,9.057,10.131,8.352,14.479c-1.062,6.567-10.118,11.519-13.512,12.873c-1.686,0.669-2.587,2.522-2.069,4.26
			c1.42,4.755,2.51,10.994-0.375,13.677C51.587,71.078,41.653,68.446,38.477,67.243z"/>
		<path d="M6.563,89.64c0.159,0,0.317-0.01,0.478-0.031c1.917-0.26,3.26-2.022,3.003-3.939c-0.021-0.14-1.772-14.091,6.045-22.588
			c4.538-4.932,11.61-7.212,20.969-6.733c1.136,0.033,2.214-0.438,2.916-1.321c0.705-0.883,0.939-2.053,0.631-3.14
			c-0.975-3.431-2.667-13.505,1.164-18.892c1.733-2.438,4.471-3.732,8.371-3.953c1.932-0.111,3.41-1.766,3.294-3.699
			c-0.108-1.936-1.755-3.414-3.699-3.299c-6.081,0.351-10.689,2.675-13.692,6.911c-4.418,6.23-3.952,15.064-3.126,20.36
			c-9.419,0.337-16.813,3.374-22.023,9.062C0.855,69.329,3.001,85.918,3.099,86.62C3.34,88.372,4.844,89.64,6.563,89.64z"/>
	</g>
</g>
</svg>