<?xml version="1.0" encoding="iso-8859-1"?>
<!-- Uploaded to: SVG Repo, www.svgrepo.com, Generator: SVG Repo Mixer Tools -->
<!DOCTYPE svg PUBLIC "-//W3C//DTD SVG 1.1//EN" "http://www.w3.org/Graphics/SVG/1.1/DTD/svg11.dtd">
<svg fill="#000000" version="1.1" id="Capa_1" xmlns="http://www.w3.org/2000/svg" xmlns:xlink="http://www.w3.org/1999/xlink" 
	 width="800px" height="800px" viewBox="0 0 217.267 217.267"
	 xml:space="preserve">
<g>
	<g>
		<path d="M108.633,0C48.73,0,0,48.732,0,108.633s48.73,108.633,108.633,108.633c59.901,0,108.634-48.731,108.634-108.633
			S168.534,0,108.633,0z M108.633,7.009c26.762,0,51.12,10.419,69.292,27.382l-92.701,92.701H59.258
			c-1.939,0-3.504,1.567-3.504,3.505v19.595c0,1.752,1.299,3.135,2.97,3.401l-24.33,24.332
			C17.424,159.76,7.009,135.394,7.009,108.633C7.009,52.601,52.599,7.009,108.633,7.009z M167.125,134.101v12.587h-11.923v-12.587
			H167.125z M148.193,146.688H75.539l12.59-12.587h60.067v12.587H148.193z M65.628,146.688h-2.866v-12.587h15.453L65.628,146.688z
			 M108.633,210.257c-26.759,0-51.12-10.41-69.283-27.377l29.181-29.184h102.099c1.94,0,3.504-1.568,3.504-3.505v-19.595
			c0-1.938-1.563-3.505-3.504-3.505H95.134l87.746-87.746c16.961,18.167,27.378,42.532,27.378,69.287
			C210.258,164.667,164.667,210.257,108.633,210.257z"/>
		<path d="M48.121,127.092c-1.937,0-3.504,1.567-3.504,3.505v19.595c0,1.937,1.567,3.505,3.504,3.505
			c1.939,0,3.504-1.568,3.504-3.505v-19.595C51.625,128.66,50.06,127.092,48.121,127.092z"/>
		<path d="M48.121,113.541c0.467,0,0.936-0.096,1.388-0.287c1.776-0.767,2.598-2.827,1.833-4.606
			c-0.034-0.072-3.367-8.02,1.167-14.907c4.841-7.357,17.186-11.238,35.705-11.238c1.101,0,2.139-0.518,2.801-1.401
			c0.662-0.876,0.873-2.017,0.566-3.073c-0.077-0.265-7.621-26.965,2.927-40.989c4.247-5.647,11.122-8.51,20.433-8.51
			c1.94,0,3.504-1.565,3.504-3.504s-1.563-3.504-3.504-3.504c-11.63,0-20.391,3.805-26.036,11.309
			c-9.857,13.107-7.012,33.743-5.123,42.734c-18.808,0.646-31.294,5.45-37.132,14.327c-6.588,10.005-1.953,21.066-1.752,21.532
			C45.476,112.747,46.769,113.541,48.121,113.541z"/>
	</g>
</g>
</svg>