<?xml version="1.0" encoding="iso-8859-1"?>
<!-- Uploaded to: SVG Repo, www.svgrepo.com, Generator: SVG Repo Mixer Tools -->
<!DOCTYPE svg PUBLIC "-//W3C//DTD SVG 1.1//EN" "http://www.w3.org/Graphics/SVG/1.1/DTD/svg11.dtd">
<svg fill="#000000" version="1.1" id="Capa_1" xmlns="http://www.w3.org/2000/svg" xmlns:xlink="http://www.w3.org/1999/xlink" 
	 width="800px" height="800px" viewBox="0 0 218.437 218.437"
	 xml:space="preserve">
<g>
	<g>
		<path d="M214.929,151.992h-4.969v-42.64c0-1.938-1.571-3.504-3.504-3.504h-1.112l-2.872-41.442
			c-0.071-1.009-0.574-1.945-1.386-2.555l-7.699-5.814c-1.021-0.777-2.396-0.928-3.562-0.392c-1.171,0.532-1.954,1.665-2.044,2.947
			l-2.99,43.17h-11.201l-2.83-13.562c-0.321-1.549-1.643-2.691-3.224-2.782l-4.962-0.294c-0.965-0.056-1.91,0.284-2.607,0.95
			c-0.702,0.659-1.103,1.583-1.103,2.551v7.885h-2.922V55.333c0-1.053-0.47-2.043-1.28-2.706l-6.899-5.664V23.216
			c0-1.725-1.259-3.196-2.963-3.463l-9.343-1.461c-0.767-0.111-1.547,0.022-2.225,0.391l-23.553,12.924l-8.905,2.231
			c-1.417,0.354-2.467,1.554-2.628,3.003l-1.872,16.548L61.347,78.181c-0.929,0.659-1.477,1.72-1.477,2.856v26.135H43.513
			c-1.605,0-3.003,1.093-3.398,2.646l-9.546,37.777l-18.786,10.078c-0.933,0.499-1.591,1.396-1.788,2.437l-3.77,19.924H3.504
			c-1.934,0-3.504,1.567-3.504,3.504v13.142c0,1.937,1.571,3.504,3.504,3.504h211.428c1.937,0,3.504-1.567,3.504-3.504v-41.176
			C218.433,153.559,216.862,151.992,214.929,151.992z M211.425,193.167H7.005v-6.133h2.116c1.682,0,3.13-1.197,3.441-2.851
			l3.999-21.132l18.675-10.017c0.869-0.465,1.5-1.27,1.742-2.228l9.255-36.631h17.131c1.935,0,3.504-1.567,3.504-3.504V82.84
			l34.731-24.651c0.812-0.578,1.341-1.472,1.454-2.464l1.773-15.689l6.988-1.752c0.291-0.074,0.572-0.182,0.835-0.325l22.901-12.563
			l5.198,0.81v22.41c0,1.05,0.469,2.043,1.283,2.705l6.896,5.662v43.023c0,1.937,1.571,3.504,3.505,3.504h9.931
			c1.934,0,3.504-1.567,3.504-3.504v-0.953l1.021,4.863l0.685,2.334c0.438,1.494,1.807,2.52,3.36,2.52h10.992v0.582
			c0,1.937,1.57,3.504,3.504,3.504h2.341c1.841,0,3.367-1.423,3.497-3.261l3.06-44.069l1.267,0.953l2.991,43.116
			c0.126,1.834,1.652,3.261,3.497,3.261h0.876v42.641c0,1.937,1.57,3.504,3.504,3.504h4.97v34.167H211.425z"/>
		<path d="M66.578,141.479h-12.85c-1.934,0-3.504,1.567-3.504,3.505v26.282c0,1.937,1.571,3.504,3.504,3.504h12.85
			c1.935,0,3.504-1.567,3.504-3.504v-26.282C70.083,143.046,68.513,141.479,66.578,141.479z M63.074,167.761h-5.841v-19.273h5.841
			V167.761z"/>
		<path d="M97.532,141.479h-12.85c-1.934,0-3.504,1.567-3.504,3.505v26.282c0,1.937,1.571,3.504,3.504,3.504h12.85
			c1.935,0,3.504-1.567,3.504-3.504v-26.282C101.036,143.046,99.467,141.479,97.532,141.479z M94.027,167.761h-5.842v-19.273h5.842
			V167.761z"/>
		<path d="M97.532,105.704h-12.85c-1.934,0-3.504,1.565-3.504,3.504v26.282c0,1.937,1.571,3.504,3.504,3.504h12.85
			c1.935,0,3.504-1.567,3.504-3.504v-26.282C101.036,107.27,99.467,105.704,97.532,105.704z M94.027,131.986h-5.842v-19.273h5.842
			V131.986z"/>
		<path d="M131.407,75.188h-12.85c-1.934,0-3.505,1.566-3.505,3.504v26.282c0,1.937,1.571,3.504,3.505,3.504h12.85
			c1.934,0,3.505-1.567,3.505-3.504V78.693C134.912,76.754,133.341,75.188,131.407,75.188z M127.903,101.471h-5.842V82.197h5.842
			V101.471z"/>
		<path d="M131.407,39.417h-12.85c-1.934,0-3.505,1.566-3.505,3.504v26.282c0,1.937,1.571,3.504,3.505,3.504h12.85
			c1.934,0,3.505-1.567,3.505-3.504V42.921C134.912,40.982,133.341,39.417,131.407,39.417z M127.903,65.699h-5.842V46.425h5.842
			V65.699z"/>
		<path d="M161.775,141.479h-12.847c-1.934,0-3.504,1.567-3.504,3.505v26.282c0,1.937,1.57,3.504,3.504,3.504h12.847
			c1.934,0,3.505-1.567,3.505-3.504v-26.282C165.28,143.046,163.709,141.479,161.775,141.479z M158.271,167.761h-5.838v-19.273
			h5.838V167.761z"/>
		<path d="M131.407,141.479h-12.85c-1.934,0-3.505,1.567-3.505,3.505v26.282c0,1.937,1.571,3.504,3.505,3.504h12.85
			c1.934,0,3.505-1.567,3.505-3.504v-26.282C134.912,143.046,133.341,141.479,131.407,141.479z M127.903,167.761h-5.842v-19.273
			h5.842V167.761z"/>
		<path d="M161.775,105.704h-12.847c-1.934,0-3.504,1.565-3.504,3.504v26.282c0,1.937,1.57,3.504,3.504,3.504h12.847
			c1.934,0,3.505-1.567,3.505-3.504v-26.282C165.28,107.27,163.709,105.704,161.775,105.704z M158.271,131.986h-5.838v-19.273h5.838
			V131.986z"/>
	</g>
</g>
</svg>