<?xml version="1.0" encoding="iso-8859-1"?>
<!-- Uploaded to: SVG Repo, www.svgrepo.com, Generator: SVG Repo Mixer Tools -->
<!DOCTYPE svg PUBLIC "-//W3C//DTD SVG 1.1//EN" "http://www.w3.org/Graphics/SVG/1.1/DTD/svg11.dtd">
<svg fill="#000000" version="1.1" id="Capa_1" xmlns="http://www.w3.org/2000/svg" xmlns:xlink="http://www.w3.org/1999/xlink" 
	 width="800px" height="800px" viewBox="0 0 175.531 175.53"
	 xml:space="preserve">
<g>
	<g>
		<path d="M167.992,49.561c0.305-0.879,0.246-1.839-0.157-2.678L152.904,16.15c-0.846-1.746-2.947-2.466-4.682-1.619l-6.602,3.207
			l-7.658-15.763c-0.408-0.837-1.13-1.475-2.006-1.779c-0.883-0.31-1.841-0.25-2.676,0.157L25.264,50.892
			c-1.742,0.845-2.467,2.945-1.619,4.681l2.68,5.517L9.32,69.353c-1.742,0.845-2.467,2.943-1.62,4.681l24.888,51.222
			c0.407,0.835,1.129,1.475,2.005,1.779c0.371,0.13,0.76,0.191,1.145,0.191c0.527,0,1.049-0.119,1.531-0.353l17.003-8.261
			l2.681,5.517c0.407,0.835,1.127,1.475,2.003,1.779c0.373,0.13,0.762,0.191,1.146,0.191c0.525,0,1.047-0.116,1.531-0.353
			l53.858-26.166l-0.12,2.652l-63.339,67.393c-0.957,1.021-1.22,2.509-0.662,3.789c0.556,1.283,1.817,2.114,3.217,2.114h99.267
			c1.937,0,3.504-1.57,3.504-3.504v-10.951c0-1.927-1.554-3.494-3.48-3.504l-64.731-0.391l47.562-51.103
			c0.531-0.572,0.856-1.301,0.925-2.074l1.423-15.868l26.591-12.921c0.838-0.405,1.475-1.127,1.779-2.003
			c0.305-0.879,0.246-1.839-0.157-2.678l-7.655-15.763l6.602-3.207C167.047,51.162,167.687,50.44,167.992,49.561z M37.354,119.041
			L15.529,74.125l13.2-6.411l21.825,44.914L37.354,119.041z M130.762,102.184l-52.185,56.068c-0.95,1.02-1.201,2.498-0.652,3.774
			c0.551,1.28,1.805,2.108,3.196,2.118l69.229,0.418v3.963H62.69l58.674-62.431c0.575-0.609,0.91-1.406,0.948-2.245l0.349-7.744
			l9.042-4.391L130.762,102.184z M70.231,105.992c0.123-0.062,0.248-0.093,0.382-0.093c0.267,0,0.617,0.131,0.792,0.493
			c0.134,0.271,0.094,0.514,0.038,0.671c-0.051,0.157-0.174,0.369-0.445,0.499c-0.371,0.188-0.91,0.134-1.17-0.396
			C69.617,106.731,69.8,106.201,70.231,105.992z M134.211,82.698L134.211,82.698l-5.636,2.736l-50.877,24.72
			c0.126-0.267,0.27-0.513,0.364-0.797c0.691-1.992,0.562-4.134-0.361-6.026c-1.833-3.771-6.731-5.489-10.541-3.648
			c-3.904,1.902-5.541,6.629-3.645,10.544c1.058,2.173,3.083,3.672,5.4,4.192l-7.202,3.497L31.473,55.661l97.708-47.472
			l7.659,15.759l0,0l7.464,15.365l15.122,31.126L134.211,82.698z M156.548,48.471l-5.935-12.212l-5.931-12.214l3.446-1.675
			l11.868,24.429L156.548,48.471z"/>
	</g>
</g>
</svg>