<?xml version="1.0" encoding="iso-8859-1"?>
<!-- Uploaded to: SVG Repo, www.svgrepo.com, Generator: SVG Repo Mixer Tools -->
<!DOCTYPE svg PUBLIC "-//W3C//DTD SVG 1.1//EN" "http://www.w3.org/Graphics/SVG/1.1/DTD/svg11.dtd">
<svg fill="#000000" version="1.1" id="Capa_1" xmlns="http://www.w3.org/2000/svg" xmlns:xlink="http://www.w3.org/1999/xlink" 
	 width="800px" height="800px" viewBox="0 0 167.744 167.745"
	 xml:space="preserve">
<g>
	<g>
		<path d="M109.427,127.346l-8.891-0.469L86.195,92.331c-0.484-1.156-1.541-1.971-2.785-2.132l-26.894-3.483l-0.896-1.567
			l17.501-0.438c1.766-0.044,3.224-1.397,3.398-3.153l0.582-5.838c0.092-0.95-0.199-1.889-0.809-2.615
			c-0.616-0.722-1.496-1.167-2.442-1.232l-24.096-1.605l-6.767-16.594c-0.228-0.568-0.606-1.064-1.086-1.44
			c-0.558-0.433-4.865-3.655-9.988-4.716c6.477-1.492,11.331-7.275,11.331-14.2c0-8.053-6.554-14.603-14.608-14.603
			c-8.049,0-14.599,6.55-14.599,14.603c0,7.008,4.971,12.872,11.565,14.273c-3.377,0.939-7.323,3.705-9.128,11.186
			c-0.147,0.603-0.13,1.234,0.049,1.826l14.018,46.723c0.445,1.485,1.81,2.498,3.355,2.498h41.85l9.135,27.959
			c0.47,1.44,1.816,2.412,3.328,2.412h21.026c1.937,0,3.504-1.563,3.504-3.504v-5.842
			C112.743,128.986,111.288,127.449,109.427,127.346z M21.051,33.312c0-4.187,3.405-7.594,7.588-7.594
			c4.189,0,7.599,3.407,7.599,7.594c0,4.188-3.41,7.594-7.599,7.594C24.453,40.906,21.051,37.504,21.051,33.312z M90.756,133.185
			l-9.138-27.956c-0.469-1.44-1.815-2.416-3.328-2.416H36.504L23.521,59.531c1.561-5.371,4.262-5.371,5.312-5.371
			c2.896,0,6.319,1.91,8.042,3.08l7.215,17.694c0.508,1.239,1.675,2.088,3.01,2.175L60.6,78.011l-11.021,0.272
			c-1.233,0.033-2.357,0.708-2.963,1.785c-0.607,1.074-0.604,2.389,0.01,3.458l4.675,8.176c0.542,0.954,1.502,1.595,2.589,1.738
			l26.609,3.446l14.409,34.721c0.274,0.657,0.732,1.201,1.305,1.574h-5.455V133.185z"/>
		<path d="M72.385,137.253c-7.092,8.019-17.301,12.618-27.997,12.618c-20.612,0-37.38-16.77-37.38-37.381
			c0-9.989,3.886-19.373,10.948-26.433c1.37-1.372,1.37-3.586,0-4.957c-1.371-1.371-3.585-1.371-4.956,0
			c-8.386,8.386-13,19.532-13,31.39c0,24.472,19.915,44.389,44.389,44.389c12.703,0,24.821-5.461,33.246-14.975
			c1.282-1.451,1.145-3.666-0.303-4.949C75.886,135.683,73.674,135.809,72.385,137.253z"/>
		<path d="M129.196,10.868c-1.94,0-3.504,1.565-3.504,3.504v17.521h-2.974V14.373c0-1.939-1.564-3.504-3.505-3.504
			c-1.937,0-3.504,1.565-3.504,3.504v17.521h-2.971V14.373c0-1.939-1.567-3.504-3.504-3.504c-1.938,0-3.505,1.565-3.505,3.504
			v21.025c0,1.937,1.567,3.504,3.505,3.504h6.475v67.166c0,1.937,1.567,3.504,3.504,3.504c1.94,0,3.505-1.567,3.505-3.504V38.902
			h6.478c1.938,0,3.505-1.567,3.505-3.504V14.373C132.701,12.434,131.134,10.868,129.196,10.868z"/>
		<path d="M165.581,11.135c-1.311-0.548-2.816-0.247-3.819,0.76c-20.153,20.153-13.479,47.999-13.186,49.173
			c0.391,1.559,1.79,2.655,3.398,2.655h8.761v42.345c0,1.937,1.563,3.504,3.504,3.504c1.938,0,3.505-1.567,3.505-3.504V14.373
			C167.744,12.956,166.892,11.674,165.581,11.135z M160.735,56.715h-5.845c-0.839-5.708-1.804-19.655,5.845-32.25V56.715z"/>
	</g>
</g>
</svg>