<?xml version="1.0" encoding="iso-8859-1"?>
<!-- Uploaded to: SVG Repo, www.svgrepo.com, Generator: SVG Repo Mixer Tools -->
<!DOCTYPE svg PUBLIC "-//W3C//DTD SVG 1.1//EN" "http://www.w3.org/Graphics/SVG/1.1/DTD/svg11.dtd">
<svg fill="#000000" version="1.1" id="Capa_1" xmlns="http://www.w3.org/2000/svg" xmlns:xlink="http://www.w3.org/1999/xlink" 
	 width="800px" height="800px" viewBox="0 0 266.326 266.326"
	 xml:space="preserve">
<g>
	<g>
		<path d="M133.163,0C59.737,0,0,59.737,0,133.163s59.737,133.163,133.163,133.163s133.163-59.737,133.163-133.163
			S206.589,0,133.163,0z M133.163,259.317c-69.563,0-126.154-56.589-126.154-126.154C7.009,63.599,63.6,7.009,133.163,7.009
			c69.565,0,126.155,56.59,126.155,126.154C259.318,202.729,202.729,259.317,133.163,259.317z"/>
		<path d="M229.148,162.949h-4.381V75.342c0-0.074-0.037-0.14-0.044-0.214c-0.014-0.247-0.072-0.469-0.141-0.705
			c-0.062-0.214-0.103-0.417-0.205-0.609c-0.089-0.193-0.223-0.358-0.356-0.529c-0.144-0.197-0.287-0.387-0.472-0.547
			c-0.055-0.05-0.083-0.118-0.141-0.165c-0.12-0.091-0.257-0.116-0.387-0.193c-0.205-0.122-0.403-0.238-0.64-0.318
			c-0.229-0.077-0.466-0.113-0.705-0.144c-0.144-0.017-0.271-0.084-0.414-0.084h-70.524V60.445c0-1.935-1.567-3.504-3.504-3.504
			h-33.289c-1.938,0-3.504,1.569-3.504,3.504v11.389H39.918c-1.938,0-3.504,1.569-3.504,3.504v87.607h-4.38
			c-1.938,0-3.504,1.57-3.504,3.504v33.291c0,1.934,1.565,3.504,3.504,3.504h49.06c1.937,0,3.504-1.57,3.504-3.504V166.45
			c0-1.934-1.567-3.504-3.504-3.504h-4.38v-41.176h33.729v11.389c0,1.933,1.566,3.504,3.504,3.504h33.289
			c1.937,0,3.504-1.571,3.504-3.504v-11.389h33.729v41.176h-4.381c-1.937,0-3.504,1.57-3.504,3.504v33.291
			c0,1.934,1.567,3.504,3.504,3.504h49.061c1.937,0,3.504-1.57,3.504-3.504V166.45C232.652,164.517,231.085,162.949,229.148,162.949
			z M191.477,162.949v-17.374h26.282v17.374H191.477z M217.759,138.563h-26.282v-19.1l26.282-33.89V138.563z M143.73,63.953v7.885
			h-26.28v-7.885H143.73z M43.422,162.949v-26.282h26.282v26.282H43.422z M69.705,78.847v39.423v11.389H43.422V78.847H69.705z
			 M77.589,169.958v26.282H35.538v-26.282h4.38h33.291H77.589z M143.73,129.659h-26.28V118.27c0-1.935-1.567-3.504-3.504-3.504
			H76.713V78.847h37.233h29.784v39.423V129.659z M150.739,114.766V78.847h63.372l-27.856,35.919H150.739z M225.644,196.24h-42.052
			v-26.282h4.381h33.291h4.38V196.24z"/>
		<path d="M130.592,149.224c-14.897,0-27.015,12.117-27.015,27.011s12.118,27.011,27.015,27.011
			c14.898,0,27.013-12.117,27.013-27.011S145.49,149.224,130.592,149.224z M130.592,196.24c-11.028,0-20.006-8.973-20.006-20.002
			c0-11.03,8.978-20.003,20.006-20.003c11.027,0,20.004,8.973,20.004,20.003C150.596,187.268,141.619,196.24,130.592,196.24z"/>
	</g>
</g>
</svg>