<?xml version="1.0" encoding="iso-8859-1"?>
<!-- Uploaded to: SVG Repo, www.svgrepo.com, Generator: SVG Repo Mixer Tools -->
<!DOCTYPE svg PUBLIC "-//W3C//DTD SVG 1.1//EN" "http://www.w3.org/Graphics/SVG/1.1/DTD/svg11.dtd">
<svg fill="#000000" version="1.1" id="Capa_1" xmlns="http://www.w3.org/2000/svg" xmlns:xlink="http://www.w3.org/1999/xlink" 
	 width="800px" height="800px" viewBox="0 0 229.209 229.209"
	 xml:space="preserve">
<g>
	<g>
		<path d="M163.024,147.133c-0.503-1.144-1.574-1.938-2.81-2.081c-3.076-0.359-9.455-1.82-12.559-4.274
			c2.371-5.075,4.568-12.016,4.568-18.391c0-21.491-20.961-41.813-43.414-41.813c-0.003,0-0.01,0-0.017,0
			c-1.381,0.106-33.896,2.825-42.49,21.46c-0.635,1.377-0.305,3.001,0.803,4.031c1.107,1.027,2.762,1.226,4.089,0.497
			c0.021-0.01,1.121-0.613,2.828-1.208c-4.43,4.755-8.867,11.24-8.008,17.509c0.187,1.362,1.17,2.478,2.492,2.868
			c1.324,0.396,2.765-0.048,3.662-1.096c0.099-0.116,2.072-2.361,6.088-3.706c0.76,2.077,1.867,4.843,3.13,7.184
			c0.666,1.238,0.725,2.478,0.185,3.798c-0.849,2.061-3.087,3.963-5.597,4.729c-2.533,0.801-5.291,2.718-5.441,5.712
			c-0.197,3.856,3.858,5.972,6.023,6.937c0.628,0.685,2.002,2.423,2.002,4.493c0,0.302,0.038,0.606,0.115,0.894
			c0.008,0.027,0.744,3.183-0.416,6.115c-0.26,0.53-1.468,3.319,0.168,5.941c0.823,1.32,2.604,2.892,6.389,2.892
			c3.539,0,8.644-1.321,15.319-3.936c0.004-0.007,0.438-0.12,0.939-0.12c0.32,0,0.501,0.059,0.488,0.014
			c0.087,0.161,1.942,3.983-8.911,21.864c-1.966,3.234-3.049,11.8-3.333,14.35c-0.185,1.652,0.813,3.203,2.391,3.72
			c0.361,0.123,0.729,0.178,1.093,0.178c1.227,0,2.397-0.65,3.039-1.759c0.115-0.202,11.844-20.178,32.84-22.576
			c7.057-0.805,11.725-1.619,12.266-5.424c0.116-0.801,0.027-1.506-0.227-2.129c0.613,0.603,1.431,0.962,2.3,1.003
			c1.15-0.011,2.293-0.482,2.991-1.435l16.646-22.777C163.377,149.597,163.521,148.275,163.024,147.133z M133.29,168.877
			c-2.242-0.938-6.902-2.889-7.55-3.97c-0.903-3.292-0.619-4.456-0.688-4.555c0.178-0.038,0.845-0.195,2.737,0.325
			c3.997,1.088,9.165,7.392,11.875,11.632C138.282,170.968,135.948,169.989,133.29,168.877z M143.272,165.229
			c-3.06-4.106-8.139-9.814-13.641-11.316c-1.52-0.414-2.852-0.62-4.073-0.62c-3.23,0-5.017,1.451-5.944,2.673
			c-2.375,3.125-1.498,7.662-0.629,10.801c0.981,3.576,4.951,5.711,9.271,7.59c-0.123,0.014-0.247,0.027-0.377,0.045
			c-11.498,1.313-20.486,6.937-26.843,12.621c7.159-12.543,9.203-20.301,6.63-24.866c-1.304-2.313-3.645-3.586-6.596-3.586
			c-1.515,0-2.719,0.342-3.197,0.499c-7.25,2.827-10.971,3.512-12.847,3.56c1.371-4.175,0.811-7.926,0.534-9.261
			c-0.2-5.567-4.226-9.25-4.693-9.66c-0.275-0.236-0.588-0.438-0.927-0.582c-0.204-0.086-0.39-0.171-0.565-0.25
			c3.936-1.595,7.195-4.675,8.681-8.295c1.328-3.237,1.153-6.708-0.495-9.773c-2-3.724-3.668-9.018-3.682-9.069
			c-0.522-1.67-2.187-2.707-3.922-2.413c-1.581,0.264-3.013,0.652-4.307,1.107c2.789-4.04,7.163-8.108,10.47-10.572
			c1.105-0.82,1.627-2.211,1.336-3.556c-0.291-1.347-1.343-2.394-2.688-2.685c-1.699-0.368-3.55-0.511-5.344-0.421
			c11.112-8.056,29.621-9.613,29.643-9.623c18.247,0,36.148,17.246,36.148,34.816c0,4.482-1.526,10.402-3.963,15.543
			c-0.657,0.432-1.163,1.085-1.417,1.861l-0.732,2.266c-0.544,1.69,0.261,3.518,1.876,4.261c0.845,0.387,1.766,0.411,2.59,0.13
			c2.995,2.262,6.938,3.655,10.154,4.479L143.272,165.229z"/>
		<path d="M130.552,37.1L117.9,2.274c-0.024-0.074-0.082-0.12-0.109-0.19c-0.138-0.298-0.302-0.573-0.511-0.826
			c-0.085-0.11-0.181-0.207-0.283-0.301c-0.202-0.197-0.435-0.358-0.685-0.498c-0.116-0.07-0.223-0.14-0.35-0.193
			c-0.062-0.027-0.103-0.074-0.164-0.091c-0.153-0.056-0.314-0.034-0.474-0.07C115.08,0.053,114.846,0,114.593,0
			c-0.228,0.003-0.438,0.057-0.655,0.098c-0.175,0.036-0.353,0.017-0.529,0.077c-0.056,0.022-0.094,0.07-0.146,0.091
			c-0.211,0.085-0.382,0.222-0.575,0.351c-0.191,0.13-0.389,0.234-0.549,0.396c-0.145,0.141-0.238,0.322-0.358,0.49
			c-0.146,0.21-0.294,0.407-0.388,0.642c-0.022,0.049-0.063,0.077-0.082,0.13L98.695,37.089
			c-32.511,9.721-56.89,48.555-56.89,94.875c0,53.622,32.658,97.244,72.799,97.244c40.139,0,72.8-43.622,72.8-97.244
			C187.411,85.658,163.045,46.837,130.552,37.1z M114.615,13.743l7.823,21.544c-2.57-0.368-5.182-0.572-7.827-0.572
			c-2.635,0-5.239,0.2-7.804,0.565L114.615,13.743z M114.611,222.201c-36.276,0-65.789-40.484-65.789-90.236
			c0-49.754,29.513-90.237,65.789-90.237c36.278,0,65.791,40.482,65.791,90.237C180.402,181.717,150.89,222.201,114.611,222.201z"/>
	</g>
</g>
</svg>