<?xml version="1.0" encoding="iso-8859-1"?>
<!-- Uploaded to: SVG Repo, www.svgrepo.com, Generator: SVG Repo Mixer Tools -->
<!DOCTYPE svg PUBLIC "-//W3C//DTD SVG 1.1//EN" "http://www.w3.org/Graphics/SVG/1.1/DTD/svg11.dtd">
<svg fill="#000000" version="1.1" id="Capa_1" xmlns="http://www.w3.org/2000/svg" xmlns:xlink="http://www.w3.org/1999/xlink" 
	 width="800px" height="800px" viewBox="0 0 181.785 181.785"
	 xml:space="preserve">
<g>
	<g>
		<path d="M149.593,28.034h-27.819V3.504c0-1.935-1.567-3.504-3.504-3.504H60.888c-1.938,0-3.504,1.569-3.504,3.504v24.53H32.195
			c-1.938,0-3.504,1.569-3.504,3.504V178.28c0,1.934,1.566,3.505,3.504,3.505h117.394c1.938,0,3.505-1.571,3.505-3.505V31.538
			C153.097,29.6,151.526,28.034,149.593,28.034z M64.393,7.008h50.372v21.026H64.393V7.008z M146.088,174.776H35.703V35.042h25.188
			h57.385h27.815v139.734H146.088z"/>
		<path d="M38.548,104.909c0,28.859,23.483,52.346,52.347,52.346c28.866,0,52.349-23.482,52.349-52.346
			c0-28.867-23.482-52.349-52.349-52.349C62.031,52.561,38.548,76.045,38.548,104.909z M136.229,104.909
			c0,24.996-20.338,45.337-45.336,45.337c-25.001,0-45.339-20.341-45.339-45.337c0-25.002,20.338-45.34,45.339-45.34
			C115.891,59.569,136.229,79.907,136.229,104.909z"/>
		<path d="M81.914,68.862c-6.162,0-11.171,5.012-11.171,11.171c0,1.472,0.301,2.873,0.819,4.163H60.885
			c-1.938,0-3.504,1.569-3.504,3.504v9.108c0,1.934,1.565,3.504,3.504,3.504h1.097v35.043c0,1.934,1.565,3.504,3.504,3.504h48.184
			c1.938,0,3.505-1.57,3.505-3.504v-35.043h1.095c1.937,0,3.504-1.57,3.504-3.504v-9.108c0-1.936-1.567-3.504-3.504-3.504h-10.349
			c0.521-1.29,0.821-2.688,0.821-4.163c0-6.16-5.01-11.171-11.17-11.171c-3.049,0-5.814,1.233-7.83,3.22
			C87.727,70.096,84.963,68.862,81.914,68.862z M77.754,80.034c0-2.296,1.863-4.163,4.163-4.163c2.298,0,4.163,1.867,4.163,4.163
			v4.163h-4.163C79.618,84.193,77.754,82.325,77.754,80.034z M64.393,91.2h17.521h4.163v2.102H65.489h-1.097V91.2z M86.077,100.31
			v12.266H68.994V100.31H86.077z M68.994,119.584h17.083v12.265H68.994V119.584z M93.086,131.849v-12.265h17.083v12.265H93.086z
			 M110.169,112.575H93.086V100.31h17.083V112.575z M114.765,93.302h-1.095H93.086V91.2h4.486h17.192V93.302z M93.411,80.034
			c0-2.296,1.865-4.163,4.161-4.163c2.3,0,4.165,1.867,4.165,4.163c0,2.294-1.865,4.163-4.165,4.163h-4.161V80.034z"/>
	</g>
</g>
</svg>