<?xml version="1.0" encoding="iso-8859-1"?>
<!-- Uploaded to: SVG Repo, www.svgrepo.com, Generator: SVG Repo Mixer Tools -->
<!DOCTYPE svg PUBLIC "-//W3C//DTD SVG 1.1//EN" "http://www.w3.org/Graphics/SVG/1.1/DTD/svg11.dtd">
<svg fill="#000000" version="1.1" id="Capa_1" xmlns="http://www.w3.org/2000/svg" xmlns:xlink="http://www.w3.org/1999/xlink" 
	 width="800px" height="800px" viewBox="0 0 217.267 217.267"
	 xml:space="preserve">
<g>
	<g>
		<path d="M108.633,0C48.735,0,0,48.732,0,108.633c0,29.931,12.167,57.075,31.816,76.738c0.014,0.014,0.017,0.034,0.031,0.048
			c0.016,0.014,0.036,0.021,0.05,0.034c19.668,19.65,46.807,31.812,76.736,31.812c59.901,0,108.634-48.731,108.634-108.633
			S168.534,0,108.633,0z M108.633,7.009c26.762,0,51.12,10.419,69.285,27.382l-21.977,21.976v-3.806
			c0-9.657-7.861-17.521-17.521-17.521h-18.278l-8.47-15.037c-0.621-1.107-1.788-1.787-3.056-1.787c0,0,0,0-0.004,0
			c-1.266,0-2.433,0.683-3.052,1.787L97.125,35.04H78.847c-9.661,0-17.521,7.864-17.521,17.521v98.422l-26.938,26.942
			C17.42,159.75,7.009,135.394,7.009,108.633C7.009,52.601,52.597,7.009,108.633,7.009z M102.684,108.647
			c0-3.278,2.669-5.953,5.953-5.953c0.305,0,0.599,0.05,0.893,0.094l-6.755,6.755C102.728,109.25,102.684,108.955,102.684,108.647z
			 M114.588,108.647c0,3.289-2.671,5.954-5.955,5.954c-0.314,0-0.619-0.041-0.922-0.089l6.781-6.782
			C114.54,108.031,114.588,108.332,114.588,108.647z M102.323,119.899c1.877,1.062,4.009,1.711,6.31,1.711
			c7.149,0,12.964-5.811,12.964-12.963c0-2.298-0.657-4.435-1.712-6.311l19.302-19.301h9.742v58.396
			c-2.936-2.225-6.553-3.593-10.513-3.593H84.38L102.323,119.899z M114.927,97.388c-0.88-0.493-1.817-0.883-2.803-1.164V83.036
			h17.158L114.927,97.388z M105.115,96.231c-5.428,1.547-9.44,6.499-9.44,12.416c0,2.3,0.652,4.421,1.699,6.297l-23.801,23.798
			c-1.91,0.609-3.672,1.506-5.239,2.7V83.036h36.781V96.231z M68.334,164.702v-9.342c0-0.562,0.08-1.103,0.164-1.636l8.709-8.713
			c0.536-0.079,1.078-0.165,1.639-0.165h59.573c5.79,0,10.502,4.709,10.513,10.5v9.355c0,5.798-4.716,10.513-10.513,10.513H78.847
			C73.051,175.214,68.334,170.5,68.334,164.702z M148.933,76.027h-2.731l2.731-2.738V76.027z M136.291,76.027h-24.167V50.812
			c0-1.937-1.571-3.504-3.505-3.504c-1.935,0-3.504,1.567-3.504,3.504v25.214H68.334V52.564c0-5.795,4.717-10.513,10.513-10.513
			h59.573c5.797,0,10.513,4.717,10.513,10.513v10.814L136.291,76.027z M105.161,35.043l3.462-6.167l3.477,6.167H105.161z
			 M108.633,210.257c-26.758,0-51.12-10.41-69.287-27.377l21.979-21.984v3.806c0,9.664,7.861,17.521,17.521,17.521l0,0h59.573l0,0
			c9.66,0,17.521-7.857,17.521-17.521v-9.342c0-0.007,0-0.007,0-0.014V79.538v-0.007c0-0.007,0-0.007,0-0.007V66.281l26.938-26.934
			c16.968,18.167,27.378,42.532,27.378,69.283C210.258,164.667,164.671,210.257,108.633,210.257z"/>
		<path d="M116.895,151.964h-16.557c-1.934,0-3.504,1.567-3.504,3.505c0,1.937,1.571,3.504,3.504,3.504h16.557
			c1.933,0,3.504-1.567,3.504-3.504C120.398,153.532,118.831,151.964,116.895,151.964z"/>
	</g>
</g>
</svg>