<?xml version="1.0" encoding="iso-8859-1"?>
<!-- Uploaded to: SVG Repo, www.svgrepo.com, Generator: SVG Repo Mixer Tools -->
<!DOCTYPE svg PUBLIC "-//W3C//DTD SVG 1.1//EN" "http://www.w3.org/Graphics/SVG/1.1/DTD/svg11.dtd">
<svg fill="#000000" version="1.1" id="Capa_1" xmlns="http://www.w3.org/2000/svg" xmlns:xlink="http://www.w3.org/1999/xlink" 
	 width="800px" height="800px" viewBox="0 0 164.175 164.175"
	 xml:space="preserve">
<g>
	<g>
		<g>
			<path d="M40.145,12.5H9.886v30.26h30.259V12.5z M33.137,35.751H16.895V19.508h16.242V35.751z"/>
		</g>
		<g>
			<path d="M114.152,2.625v46.141h-7.408v-6.002h3.651v-7.009h-3.651v-4.62h3.651V12.503h-3.651V9.637h3.651V2.628H91.707v7.008
				h5.842v26.118h-5.842h-7.009v3.335h-6.423V19.515h8.175v-7.009h-8.175V9.641V2.632h-7.009H50.023h-0.95H0.014v50.01h50.01V9.634
				h21.243V12.5H56.664v7.009h14.602V42.76h2.19v1.833h-2.555v8.841v7.009h7.008h6.06v-7.009h-6.06v-0.919h6.791v3.253h7.009h7.009
				h1.023v4.671h7.009v-4.671h8.322v-3.136h49.102V2.625H114.152z M43.011,45.629H7.015V9.634h35.993v35.996H43.011z
				 M157.152,45.629h-35.991V9.634h35.991V45.629z"/>
		</g>
		<g>
			<path d="M154.284,12.5h-30.259v30.26h30.259V12.5z M147.275,35.751h-16.241V19.508h16.241V35.751z"/>
		</g>
		<g>
			<path d="M40.145,121.415H9.886v30.259h30.259V121.415z M33.137,144.658H16.895v-16.241h16.242V144.658z"/>
		</g>
		<g>
			<polygon points="52.207,28.907 52.207,35.751 52.207,42.76 52.207,49.267 59.215,49.267 59.215,42.76 67.173,42.76 
				67.173,35.751 59.215,35.751 59.215,28.907 			"/>
		</g>
		<g>
			<path d="M149.23,65.12v-6.132h-16.208v6.132h-4.527h-1.752V53.44h-7.009v11.68v7.009v7.19h-4.671V62.198h-7.009v17.121v7.008
				h7.009h4.671v10.058h4.291v6.112h-17.288v-13.12h-5.694v-6.735H83.959v-6.666H76.95v6.666H56.654v7.009h18.544v4.106h-15.99
				h-6.645V78.416h19.274v-6.287h12.118V65.12H64.829v6.287H52.564v-2.2h6.645v-7.009h-6.645v-1.752v-7.009h-7.008h-5.421h-7.008
				H9.875v7.009h23.252v1.752h-5.411v7.009h5.411v2.2H14.017v7.009h19.109v10.961h-7.868H18.25v4.38H7.008v7.009H18.25v1.731H0
				v7.009h18.25h7.009v-7.009v-1.731h20.297v10.77H0v50.008h50.01v-49.341h2.187v14.24v7.009v21.61h7.009v-18.521h0.949v6.02h4.671
				v11.98v7.009h7.009h24.53h7.009v-7.009v-5.317h7.009v-7.009h-7.009v-8.761h3.357h12.994v18.22h7.008V142.8h6.061v-9.346h19.411
				v21.087h-16.711v-9.876h-7.009v16.885h2.92h4.089h16.711h2.066h4.942v-28.513h-4.942v-6.592h-21.478v-4.671h7.957h7.009h4.445
				h7.009v-7.009V95.94h-7.009v18.825h-4.445v-5.256v-7.009h-7.009h-4.654V92.005h11.663v-7.009h-11.663v-2.929h11.166h7.009v-7.008
				v-2.93h9.877V65.12h-9.877H149.23L149.23,65.12z M43.011,154.541H7.015v-35.997h35.993v35.997H43.011z M64.836,114.762v6.646
				h-5.621v-20.643h15.99v13.996h-1.274H64.836z M96.375,154.541h-24.53v-11.978h2.082v0.233h5.512v6.423h16.937V154.541z
				 M99.731,102.497v7.009v2.029H91.7V89.646h8.031V102.497z M125.799,114.762h-1.773v7.009h1.773v4.672h-6.061h-12.994v-7.898
				h3.651v-7.009h-3.651v-2.029h19.055V114.762L125.799,114.762z"/>
		</g>
		<g>
			<rect x="152.218" y="53.437" width="7.009" height="11.098"/>
		</g>
	</g>
</g>
</svg>