<?xml version="1.0" encoding="iso-8859-1"?>
<!-- Uploaded to: SVG Repo, www.svgrepo.com, Generator: SVG Repo Mixer Tools -->
<!DOCTYPE svg PUBLIC "-//W3C//DTD SVG 1.1//EN" "http://www.w3.org/Graphics/SVG/1.1/DTD/svg11.dtd">
<svg fill="#000000" version="1.1" id="Capa_1" xmlns="http://www.w3.org/2000/svg" xmlns:xlink="http://www.w3.org/1999/xlink" 
	 width="800px" height="800px" viewBox="0 0 186.607 186.607"
	 xml:space="preserve">
<g>
	<path d="M142.9,0.743c-0.849-0.663-1.95-0.9-3.004-0.639L94.073,11.505V3.504C94.073,1.571,92.504,0,90.569,0H69.141
		c-1.935,0-3.504,1.571-3.504,3.504v9.232c-6.771,2.125-23.272,8.523-23.272,20.444c0,1.935,1.569,3.504,3.504,3.504
		c1.933,0,3.504-1.569,3.504-3.504c0-5.879,9.613-10.624,16.264-13.032v18.93C51.62,44.816,42.365,58.44,42.365,73.754v109.349
		c0,1.933,1.569,3.504,3.504,3.504h67.971c1.93,0,3.504-1.571,3.504-3.504V73.754c0-15.314-9.253-28.938-23.273-34.675V25.801
		l45.822,11.393c1.047,0.27,2.152,0.029,3.001-0.64c0.856-0.662,1.349-1.682,1.349-2.762V3.498
		C144.242,2.428,143.75,1.408,142.9,0.743z M110.336,73.754v105.844H49.373V73.754c0-13.145,8.39-24.765,20.872-28.911
		c1.432-0.476,2.4-1.819,2.4-3.325V7.008h14.419v8.981c0,1.027,0.452,2,1.23,2.668c-0.778,0.662-1.23,1.636-1.23,2.666v20.199
		c0,1.509,0.967,2.849,2.4,3.325C101.948,48.99,110.336,60.61,110.336,73.754z M137.233,29.317l-42.865-10.66l42.865-10.669V29.317z
		"/>
</g>
</svg>