<?xml version="1.0" encoding="iso-8859-1"?>
<!-- Uploaded to: SVG Repo, www.svgrepo.com, Generator: SVG Repo Mixer Tools -->
<!DOCTYPE svg PUBLIC "-//W3C//DTD SVG 1.1//EN" "http://www.w3.org/Graphics/SVG/1.1/DTD/svg11.dtd">
<svg fill="#000000" version="1.1" id="Capa_1" xmlns="http://www.w3.org/2000/svg" xmlns:xlink="http://www.w3.org/1999/xlink" 
	 width="800px" height="800px" viewBox="0 0 169.976 169.975"
	 xml:space="preserve">
<g>
	<g>
		<path d="M62.43,68.337c-6.16,0-11.172,5.012-11.172,11.171c0,6.162,5.012,11.171,11.172,11.171c6.161,0,11.171-5.01,11.171-11.171
			C73.601,73.349,68.591,68.337,62.43,68.337z M62.43,87.172c-4.227,0-7.667-3.438-7.667-7.667c0-4.23,3.438-7.667,7.667-7.667
			c4.229,0,7.667,3.438,7.667,7.667C70.097,83.735,66.656,87.172,62.43,87.172z"/>
		<path d="M118.719,79.505c0-6.16-5.01-11.172-11.173-11.172c-6.16,0-11.17,5.012-11.17,11.172c0,6.158,5.01,11.172,11.17,11.172
			C113.709,90.677,118.719,85.664,118.719,79.505z M107.546,87.172c-4.224,0-7.666-3.438-7.666-7.667
			c0-4.23,3.436-7.667,7.666-7.667c4.229,0,7.669,3.438,7.669,7.667C115.215,83.735,111.775,87.172,107.546,87.172z"/>
		<path d="M88.71,95.496c-1.336,0-2.616,0.373-3.724,1.071c-1.104-0.698-2.385-1.071-3.725-1.071c-3.865,0-7.009,3.145-7.009,7.009
			c0,3.863,3.144,7.008,7.009,7.008c1.34,0,2.618-0.373,3.725-1.07c1.104,0.697,2.388,1.07,3.724,1.07
			c3.867,0,7.009-3.145,7.009-7.008C95.719,98.64,92.577,95.496,88.71,95.496z M88.71,106.008c-0.938,0-1.817-0.366-2.479-1.03
			c-0.328-0.335-0.776-0.513-1.24-0.513c-0.462,0-0.914,0.185-1.24,0.513c-0.663,0.664-1.542,1.03-2.481,1.03
			c-1.934,0-3.504-1.57-3.504-3.504S79.335,99,81.269,99c0.939,0,1.819,0.366,2.481,1.03c0.658,0.664,1.825,0.664,2.484,0
			c0.662-0.664,1.541-1.03,2.482-1.03c1.934,0,3.505,1.571,3.505,3.505S90.647,106.008,88.71,106.008z"/>
		<path d="M153.361,120.204c-3.85,0-7.501,1.297-10.444,3.692l-13.477-13.479c7.382-9.593,11.618-21.522,11.618-34.195
			c0-8.28-1.852-16.124-5.089-23.206l6.943-6.942c2.947,2.394,6.599,3.691,10.448,3.691c4.438,0,8.61-1.725,11.748-4.865
			c6.479-6.483,6.479-17.02,0-23.503c-3.104-3.101-7.255-4.808-11.7-4.808c-0.007,0-0.014,0-0.021,0
			c0.014-4.411-1.684-8.595-4.812-11.721C145.442,1.728,141.268,0,136.829,0c-4.445,0-8.613,1.728-11.755,4.868
			c-6.058,6.059-6.447,15.678-1.171,22.196l-4.78,4.779c-9.466-7.3-21.286-11.69-34.137-11.69c-12.847,0-24.663,4.391-34.127,11.687
			l-4.777-4.776c5.275-6.518,4.885-16.134-1.174-22.196C41.768,1.728,37.595,0,33.155,0c-4.44,0-8.61,1.728-11.753,4.868
			c-3.126,3.126-4.822,7.31-4.812,11.721c-0.007,0-0.014,0-0.021,0c-4.444,0-8.597,1.708-11.697,4.808
			c-3.14,3.137-4.868,7.31-4.868,11.75c0,4.444,1.728,8.614,4.868,11.753c3.14,3.14,7.31,4.868,11.75,4.868
			c3.852,0,7.503-1.3,10.446-3.694l6.938,6.938c-3.237,7.082-5.092,14.929-5.092,23.212c0,12.676,4.24,24.605,11.624,34.201
			l-13.473,13.477c-2.948-2.396-6.6-3.696-10.446-3.696c-4.44,0-8.61,1.729-11.75,4.866c-3.14,3.142-4.868,7.311-4.868,11.756
			c0,4.438,1.728,8.613,4.868,11.748c3.101,3.104,7.253,4.812,11.697,4.812c0.007,0,0.014,0,0.021,0
			c-0.01,4.411,1.685,8.597,4.812,11.721c3.14,3.138,7.313,4.866,11.753,4.866c4.44,0,8.61-1.729,11.753-4.866
			c6.059-6.061,6.449-15.677,1.174-22.196l15.668-15.67c0.157,0.075,0.304,0.157,0.462,0.226v9.647v10.951
			c0,0.968,0.785,1.752,1.752,1.752s1.752-0.784,1.752-1.752v-9.199h6.571v9.199c0,0.968,0.785,1.752,1.752,1.752
			s1.752-0.784,1.752-1.752v-9.199h7.446v9.199c0,0.968,0.785,1.752,1.752,1.752s1.753-0.784,1.753-1.752v-9.199h6.132v9.199
			c0,0.968,0.787,1.752,1.753,1.752c0.965,0,1.752-0.784,1.752-1.752v-9.199h7.885v9.199c0,0.968,0.787,1.752,1.752,1.752
			s1.752-0.784,1.752-1.752v-10.951v-9.647c0.161-0.075,0.314-0.157,0.473-0.226l15.666,15.67
			c-5.276,6.52-4.887,16.133,1.178,22.196c3.138,3.138,7.31,4.866,11.751,4.866c4.442,0,8.614-1.729,11.752-4.866
			c3.124-3.124,4.818-7.31,4.812-11.721c0.007,0,0.014,0,0.021,0c4.442,0,8.597-1.708,11.697-4.812
			c6.481-6.481,6.481-17.019,0-23.504C161.972,121.928,157.8,120.204,153.361,120.204z M128.797,27.127l-1.238-1.24
			c-5.113-5.115-5.113-13.432,0-18.545c4.955-4.955,13.596-4.955,18.541,0c2.848,2.846,4.188,6.812,3.683,10.895l-0.277,2.231
			l2.234-0.275c4.049-0.495,8.062,0.847,10.893,3.679c5.109,5.112,5.109,13.435,0,18.548c-4.959,4.952-13.593,4.945-18.545,0
			l-1.238-1.241l-8.494,8.491c-3.203-5.929-7.474-11.186-12.511-15.593L128.797,27.127z M27.139,41.179l-1.241,1.241
			c-4.952,4.952-13.586,4.958-18.544,0c-2.475-2.481-3.838-5.771-3.838-9.276s1.364-6.794,3.841-9.272
			c2.829-2.832,6.829-4.181,10.895-3.679l2.233,0.275l-0.277-2.231c-0.508-4.083,0.833-8.053,3.679-10.895
			c4.955-4.948,13.593-4.948,18.548,0c5.109,5.113,5.109,13.43,0,18.545l-1.24,1.24l6.942,6.942
			c-5.036,4.408-9.303,9.664-12.51,15.593L27.139,41.179z M41.193,142.837l1.24,1.242c5.109,5.113,5.109,13.433,0,18.545
			c-4.955,4.945-13.593,4.945-18.548,0c-2.846-2.844-4.184-6.813-3.679-10.896l0.277-2.231l-2.233,0.277
			c-4.043,0.496-8.066-0.845-10.895-3.682c-2.478-2.471-3.841-5.767-3.841-9.271c0-3.505,1.364-6.793,3.841-9.271
			c4.959-4.963,13.593-4.956,18.545,0l1.241,1.238l15.632-15.633c4.367,4.986,9.644,9.223,15.656,12.45L41.193,142.837z
			 M105.585,124.581c-0.086,0.041-0.164,0.082-0.25,0.116c-0.65,0.273-1.071,0.91-1.071,1.615v9.045H65.716v-9.045
			c0-0.705-0.419-1.342-1.071-1.615c-0.082-0.034-0.163-0.075-0.243-0.113c-1.148-0.489-2.277-1.009-3.381-1.57
			c-6.099-3.125-11.403-7.351-15.749-12.357c-0.77-0.89-1.513-1.797-2.221-2.734C36.298,98.99,32.426,87.95,32.426,76.225
			c0-7.306,1.507-14.262,4.209-20.591c0.491-1.143,1.047-2.247,1.612-3.344c3.093-6.013,7.303-11.343,12.366-15.737
			c0.888-0.771,1.809-1.5,2.745-2.212c8.817-6.671,19.751-10.681,31.629-10.681c11.882,0,22.826,4.013,31.635,10.688
			c0.941,0.708,1.854,1.438,2.745,2.209c5.061,4.394,9.273,9.728,12.367,15.74c0.562,1.097,1.119,2.201,1.608,3.344
			c2.703,6.326,4.206,13.281,4.206,20.584c0,11.725-3.871,22.761-10.619,31.689c-0.705,0.938-1.451,1.848-2.225,2.734
			c-4.339,5.01-9.646,9.239-15.742,12.357C107.864,123.575,106.734,124.091,105.585,124.581z M162.632,146.092
			c-2.83,2.826-6.841,4.168-10.893,3.679l-2.234-0.277l0.277,2.231c0.506,4.082-0.835,8.056-3.683,10.896
			c-4.945,4.955-13.586,4.955-18.541,0c-5.113-5.113-5.113-13.433,0-18.545l1.238-1.242l-17.237-17.238
			c6.013-3.23,11.29-7.467,15.656-12.453l15.633,15.637l1.242-1.242c4.952-4.942,13.586-4.949,18.545,0
			C167.741,132.657,167.741,140.979,162.632,146.092z"/>
	</g>
</g>
</svg>