<?xml version="1.0" encoding="iso-8859-1"?>
<!-- Uploaded to: SVG Repo, www.svgrepo.com, Generator: SVG Repo Mixer Tools -->
<!DOCTYPE svg PUBLIC "-//W3C//DTD SVG 1.1//EN" "http://www.w3.org/Graphics/SVG/1.1/DTD/svg11.dtd">
<svg fill="#000000" version="1.1" id="Capa_1" xmlns="http://www.w3.org/2000/svg" xmlns:xlink="http://www.w3.org/1999/xlink" 
	 width="800px" height="800px" viewBox="0 0 257.681 257.681"
	 xml:space="preserve">
<g>
	<g>
		<path d="M164.051,26.773c-1.122-0.618-2.484-0.575-3.569,0.115L84.254,75.402H3.504C1.566,75.402,0,76.971,0,78.906v94.03
			c0,1.934,1.566,3.505,3.504,3.505h80.65l76.181,54.248c0.605,0.431,1.317,0.653,2.032,0.653c0.548,0,1.096-0.13,1.605-0.39
			c1.167-0.6,1.899-1.801,1.899-3.114V29.846C165.873,28.566,165.17,27.386,164.051,26.773z M158.864,221.039l-71.558-50.956
			c-0.594-0.425-1.304-0.65-2.033-0.65H7.009V82.411h78.265c0.666,0,1.318-0.19,1.88-0.548l71.71-45.633V221.039z"/>
		<path d="M197.678,93.529c-1.369-1.371-3.587-1.371-4.956,0c-1.368,1.37-1.368,3.584,0,4.955c16.734,16.736,16.734,43.972,0,60.709
			c-1.368,1.369-1.368,3.583,0,4.952c0.685,0.685,1.581,1.03,2.479,1.03c0.896,0,1.793-0.346,2.478-1.03
			C217.146,144.681,217.146,113.003,197.678,93.529z"/>
		<path d="M212.859,78.345c-1.369-1.37-3.583-1.37-4.956,0c-1.368,1.371-1.368,3.585,0,4.956c25.112,25.112,25.112,65.969,0,91.081
			c-1.368,1.369-1.368,3.583,0,4.955c0.685,0.682,1.581,1.027,2.478,1.027c0.9,0,1.797-0.346,2.479-1.027
			C240.701,151.493,240.701,106.188,212.859,78.345z"/>
		<path d="M229.798,61.409c-1.369-1.371-3.587-1.371-4.955,0c-1.369,1.371-1.369,3.584,0,4.956
			c34.447,34.451,34.447,90.506,0,124.953c-1.369,1.369-1.369,3.583,0,4.955c0.684,0.682,1.581,1.027,2.478,1.027
			s1.793-0.346,2.478-1.027C266.976,159.091,266.976,98.59,229.798,61.409z"/>
	</g>
</g>
</svg>