<?xml version="1.0" encoding="iso-8859-1"?>
<!-- Uploaded to: SVG Repo, www.svgrepo.com, Generator: SVG Repo Mixer Tools -->
<!DOCTYPE svg PUBLIC "-//W3C//DTD SVG 1.1//EN" "http://www.w3.org/Graphics/SVG/1.1/DTD/svg11.dtd">
<svg fill="#000000" version="1.1" id="Capa_1" xmlns="http://www.w3.org/2000/svg" xmlns:xlink="http://www.w3.org/1999/xlink" 
	 width="800px" height="800px" viewBox="0 0 150.756 150.756"
	 xml:space="preserve">
<g>
	<g>
		<path d="M136.046,0H14.71c-0.967,0-1.752,0.785-1.752,1.752v18.163c0,0.967,0.786,1.752,1.752,1.752h121.336
			c0.969,0,1.752-0.785,1.752-1.752V1.752C137.798,0.785,137.018,0,136.046,0z M134.294,18.163H16.462V3.504h117.832V18.163z"/>
		<path d="M136.046,138.173H14.71c-0.967,0-1.752,0.783-1.752,1.752v9.079c0,0.969,0.786,1.752,1.752,1.752h121.336
			c0.969,0,1.752-0.783,1.752-1.752v-9.079C137.798,138.956,137.018,138.173,136.046,138.173z M134.294,147.248H16.462v-5.571
			h117.832V147.248z"/>
		<path d="M14.71,134.429h27.158c0.025,0,0.049,0,0.07,0c0.969,0,1.752-0.787,1.752-1.752c0-0.171-0.024-0.335-0.07-0.492
			c-0.098-43.862-13.215-69.751-13.774-70.834c-0.301-0.582-0.905-0.95-1.557-0.95H14.71c-0.967,0-1.752,0.784-1.752,1.752v70.524
			C12.958,133.642,13.743,134.429,14.71,134.429z M16.462,63.905h10.727c2.31,4.979,12.612,29.301,12.924,67.02H16.465v-67.02
			H16.462z"/>
		<path d="M14.71,59.525h13.579c0.15,0,0.301-0.017,0.448-0.06c5.191-1.374,31.09-8.718,31.09-18.338
			c0-0.968-0.784-1.752-1.752-1.752H14.71c-0.967,0-1.752,0.784-1.752,1.752v16.646C12.958,58.739,13.743,59.525,14.71,59.525z
			 M16.462,42.879h39.276c-3.027,4.769-17.181,10.336-27.676,13.141h-11.6V42.879z"/>
		<path d="M136.046,60.401h-13.579c-0.657,0-1.253,0.364-1.554,0.95c-0.562,1.09-13.777,27.167-13.777,71.326
			c0,0.965,0.787,1.752,1.752,1.752h27.158c0.969,0,1.752-0.787,1.752-1.752V62.153C137.798,61.181,137.018,60.401,136.046,60.401z
			 M134.294,130.925h-23.647c0.314-37.661,10.615-62.03,12.922-67.02h10.729v67.02H134.294z"/>
		<path d="M136.046,39.375H92.68c-0.965,0-1.752,0.784-1.752,1.752c0,9.624,25.899,16.964,31.091,18.338
			c0.147,0.04,0.298,0.06,0.448,0.06h13.579c0.969,0,1.752-0.786,1.752-1.752V41.127C137.798,40.155,137.018,39.375,136.046,39.375z
			 M134.294,56.021h-11.602c-10.492-2.805-24.649-8.372-27.675-13.141h39.276V56.021z"/>
		<path d="M47.125,57.772v45.556c0,0.966,0.785,1.753,1.752,1.753c0.969,0,1.752-0.787,1.752-1.753V57.772
			c0-0.968-0.784-1.752-1.752-1.752C47.91,56.021,47.125,56.801,47.125,57.772z"/>
		<path d="M14.71,35.433h8.322c0.969,0,1.752-0.785,1.752-1.752v-9.199c0-0.969-0.784-1.752-1.752-1.752H14.71
			c-0.967,0-1.752,0.784-1.752,1.752v9.199C12.958,34.647,13.743,35.433,14.71,35.433z M16.462,26.234h4.818v5.695h-4.818V26.234z"
			/>
		<path d="M39.182,35.433c0.967,0,1.752-0.785,1.752-1.752v-9.199c0-0.969-0.785-1.752-1.752-1.752h-8.323
			c-0.968,0-1.752,0.784-1.752,1.752v9.199c0,0.967,0.784,1.752,1.752,1.752H39.182z M32.611,26.234h4.819v5.695h-4.819V26.234z"/>
		<path d="M55.326,35.433c0.967,0,1.752-0.785,1.752-1.752v-9.199c0-0.969-0.785-1.752-1.752-1.752h-8.323
			c-0.968,0-1.752,0.784-1.752,1.752v9.199c0,0.967,0.784,1.752,1.752,1.752H55.326z M48.755,26.234h4.818v5.695h-4.818V26.234z"/>
		<path d="M71.47,35.433c0.967,0,1.752-0.785,1.752-1.752v-9.199c0-0.969-0.785-1.752-1.752-1.752h-8.323
			c-0.967,0-1.752,0.784-1.752,1.752v9.199c0,0.967,0.786,1.752,1.752,1.752H71.47z M64.899,26.234h4.818v5.695h-4.818V26.234z"/>
		<path d="M87.615,35.433c0.965,0,1.752-0.785,1.752-1.752v-9.199c0-0.969-0.787-1.752-1.752-1.752h-8.322
			c-0.969,0-1.752,0.784-1.752,1.752v9.199c0,0.967,0.783,1.752,1.752,1.752H87.615z M81.045,26.234h4.818v5.695h-4.818V26.234z"/>
		<path d="M103.754,35.433c0.966,0,1.753-0.785,1.753-1.752v-9.199c0-0.969-0.787-1.752-1.753-1.752h-8.322
			c-0.965,0-1.752,0.784-1.752,1.752v9.199c0,0.967,0.787,1.752,1.752,1.752H103.754z M97.184,26.234h4.818v5.695h-4.818V26.234z"/>
		<path d="M119.9,35.433c0.968,0,1.752-0.785,1.752-1.752v-9.199c0-0.969-0.784-1.752-1.752-1.752h-8.323
			c-0.965,0-1.752,0.784-1.752,1.752v9.199c0,0.967,0.787,1.752,1.752,1.752H119.9z M113.33,26.234h4.818v5.695h-4.818V26.234z"/>
		<path d="M136.046,22.729h-8.323c-0.965,0-1.752,0.784-1.752,1.752v9.199c0,0.967,0.787,1.752,1.752,1.752h8.323
			c0.969,0,1.752-0.785,1.752-1.752v-9.199C137.798,23.51,137.018,22.729,136.046,22.729z M134.294,31.929h-4.818v-5.695h4.818
			V31.929z"/>
	</g>
</g>
</svg>