<?xml version="1.0" encoding="iso-8859-1"?>
<!-- Uploaded to: SVG Repo, www.svgrepo.com, Generator: SVG Repo Mixer Tools -->
<!DOCTYPE svg PUBLIC "-//W3C//DTD SVG 1.1//EN" "http://www.w3.org/Graphics/SVG/1.1/DTD/svg11.dtd">
<svg fill="#000000" version="1.1" id="Capa_1" xmlns="http://www.w3.org/2000/svg" xmlns:xlink="http://www.w3.org/1999/xlink" 
	 width="800px" height="800px" viewBox="0 0 147.621 147.621"
	 xml:space="preserve">
<g>
	<g>
		<path d="M59.25,29.755H47.874H37.245c6.442-1.752,11.214-7.594,11.214-14.582C48.459,6.807,41.654,0,33.286,0
			c-8.369,0-15.174,6.807-15.174,15.174c0,6.988,4.774,12.829,11.214,14.582H18.697H7.318c-1.934,0-3.504,1.571-3.504,3.504V88.1
			c0,1.938,1.571,3.505,3.504,3.505c1.935,0,3.504-1.567,3.504-3.505V36.764h4.37v107.351c0,1.937,1.571,3.504,3.504,3.504h29.174
			c1.934,0,3.504-1.567,3.504-3.504V36.764h4.37V88.1c0,1.938,1.569,3.505,3.504,3.505c1.934,0,3.504-1.567,3.504-3.505V33.26
			C62.754,31.326,61.183,29.755,59.25,29.755z M25.12,15.174c0-4.502,3.662-8.166,8.166-8.166c4.503,0,8.165,3.664,8.165,8.166
			c0,4.503-3.662,8.165-8.165,8.165C28.782,23.339,25.12,19.677,25.12,15.174z M44.37,140.609h-7.871V88.688
			c0-1.938-1.569-3.504-3.504-3.504c-1.934,0-3.504,1.566-3.504,3.504v51.921h-7.286V36.764H44.37V140.609z"/>
		<path d="M143.808,88.106V33.26c0-1.934-1.571-3.504-3.505-3.504h-11.378h-10.626c6.44-1.752,11.211-7.594,11.211-14.582
			C129.51,6.807,122.707,0,114.336,0c-8.367,0-15.174,6.807-15.174,15.174c0,6.988,4.773,12.829,11.215,14.582h-10.63H88.368
			c-1.933,0-3.504,1.571-3.504,3.504V88.1c0,1.903,1.52,3.437,3.415,3.491l-3.094,6.752c-0.499,1.084-0.41,2.348,0.233,3.35
			c0.644,1.006,1.755,1.615,2.949,1.615h11.379v40.81c0,1.934,1.571,3.504,3.505,3.504h22.165c1.937,0,3.504-1.57,3.504-3.504
			v-40.81H140.3c1.19,0,2.304-0.609,2.95-1.615c0.646-1.002,0.732-2.266,0.236-3.35l-3.094-6.752
			C142.281,91.539,143.808,90.01,143.808,88.106z M106.174,15.174c0-4.502,3.665-8.166,8.166-8.166c4.503,0,8.165,3.664,8.165,8.166
			c0,4.503-3.662,8.165-8.165,8.165C109.839,23.339,106.174,19.677,106.174,15.174z M91.88,36.764h4.373v37.449l-4.373,9.53V36.764z
			 M125.42,96.3c-1.934,0-3.504,1.566-3.504,3.504v40.809h-4.367V98.928c0-1.938-1.57-3.505-3.504-3.505s-3.504,1.567-3.504,3.505
			v41.685h-3.781V99.804c0-1.938-1.568-3.504-3.505-3.504h-9.418l9.104-19.863c0.212-0.458,0.321-0.958,0.321-1.464V36.764h22.162
			v38.209c0,0.506,0.109,1.006,0.321,1.464l9.104,19.855h-9.429V96.3z M132.429,74.213V36.764h4.37v46.979L132.429,74.213z"/>
	</g>
</g>
</svg>