<?xml version="1.0" encoding="iso-8859-1"?>
<!-- Uploaded to: SVG Repo, www.svgrepo.com, Generator: SVG Repo Mixer Tools -->
<!DOCTYPE svg PUBLIC "-//W3C//DTD SVG 1.1//EN" "http://www.w3.org/Graphics/SVG/1.1/DTD/svg11.dtd">
<svg fill="#000000" version="1.1" id="Capa_1" xmlns="http://www.w3.org/2000/svg" xmlns:xlink="http://www.w3.org/1999/xlink" 
	 width="800px" height="800px" viewBox="0 0 217.267 217.267"
	 xml:space="preserve">
<g>
	<path d="M108.633,0C48.73,0,0,48.73,0,108.633c0,29.931,12.169,57.071,31.814,76.738c0.016,0.014,0.019,0.034,0.033,0.048
		s0.031,0.018,0.044,0.031c19.67,19.646,46.812,31.815,76.742,31.815c59.901,0,108.634-48.731,108.634-108.633
		C217.267,48.73,168.534,0,108.633,0z M108.633,7.009c26.758,0,51.12,10.416,69.285,27.379l-39.043,39.049
		c-21.31-0.458-27.239-11.102-28.252-13.358v-14.87c0-7.898-6.427-14.325-14.325-14.325c-7.9,0-14.323,6.427-14.323,14.325
		c0,1.939,1.567,3.504,3.504,3.504c1.939,0,3.504-1.565,3.504-3.504c0-4.033,3.284-7.316,7.315-7.316
		c4.033,0,7.316,3.284,7.316,7.316v14.873c-1.013,2.264-7.135,13.399-29.629,13.399c-1.124,0-2.183,0.541-2.846,1.454
		c-0.659,0.916-0.836,2.093-0.48,3.159l15.886,47.664l-52.154,52.168c-16.969-18.172-27.379-42.534-27.379-69.289
		C7.009,52.599,52.599,7.009,108.633,7.009z M94.57,127.654l9.048-9.049v36.193L94.57,127.654z M110.626,71.222
		c4.308,3.766,11.155,7.491,21.686,8.778l-21.686,21.685V71.222z M103.618,108.695L92.092,120.22L78.797,80.332
		c12.366-0.859,20.097-4.976,24.821-9.11V108.695z M110.626,111.597l21.6-21.599l-21.6,64.8V111.597z M108.633,210.257
		c-26.759,0-51.122-10.417-69.287-27.377l49.68-49.687l14.77,44.307c0.007,0.024,0.022,0.038,0.029,0.059
		c0.051,0.141,0.137,0.253,0.203,0.38c0.108,0.223,0.221,0.445,0.368,0.637c0.091,0.112,0.205,0.205,0.312,0.305
		c0.171,0.167,0.347,0.324,0.546,0.451c0.126,0.079,0.263,0.141,0.403,0.209c0.221,0.1,0.438,0.185,0.673,0.236
		c0.077,0.017,0.144,0.064,0.224,0.078c0.187,0.031,0.364,0.041,0.551,0.045c0.003,0,0.003,0,0.007,0h0.003h0.003
		c0.003,0,0.003,0,0.007,0c0.185-0.004,0.365-0.014,0.549-0.045c0.082-0.014,0.148-0.062,0.226-0.078
		c0.234-0.055,0.455-0.137,0.673-0.236c0.141-0.068,0.277-0.123,0.402-0.209c0.203-0.127,0.374-0.284,0.547-0.451
		c0.104-0.1,0.221-0.192,0.312-0.305c0.151-0.191,0.261-0.411,0.368-0.637c0.066-0.127,0.15-0.239,0.203-0.38
		c0.008-0.021,0.021-0.034,0.027-0.059l32.86-98.58l39.573-39.574c16.968,18.17,27.378,42.532,27.378,69.287
		C210.258,164.667,164.667,210.257,108.633,210.257z"/>
</g>
</svg>