<?xml version="1.0" encoding="iso-8859-1"?>
<!-- Uploaded to: SVG Repo, www.svgrepo.com, Generator: SVG Repo Mixer Tools -->
<!DOCTYPE svg PUBLIC "-//W3C//DTD SVG 1.1//EN" "http://www.w3.org/Graphics/SVG/1.1/DTD/svg11.dtd">
<svg fill="#000000" version="1.1" id="Capa_1" xmlns="http://www.w3.org/2000/svg" xmlns:xlink="http://www.w3.org/1999/xlink" 
	 width="800px" height="800px" viewBox="0 0 182.661 182.661"
	 xml:space="preserve">
<g>
	<g>
		<path d="M44.678,123.088c1.934,0,3.504-1.57,3.504-3.504V81.913h1.535v79.723c0,1.933,1.571,3.504,3.504,3.504h21.902
			c1.933,0,3.504-1.571,3.504-3.504V81.913h1.535v37.671c0,1.934,1.57,3.504,3.504,3.504c1.936,0,3.504-1.57,3.504-3.504V78.408
			c0-1.935-1.569-3.504-3.504-3.504h-8.543h-3.989c3.196-2.216,5.303-5.901,5.303-10.075c0-6.764-5.501-12.265-12.265-12.265
			s-12.265,5.501-12.265,12.265c0,4.173,2.106,7.859,5.303,10.075h-3.989h-8.543c-1.936,0-3.504,1.569-3.504,3.504v41.176
			C41.173,121.518,42.742,123.088,44.678,123.088z M64.172,59.573c2.898,0,5.256,2.358,5.256,5.256c0,2.897-2.358,5.256-5.256,5.256
			s-5.256-2.359-5.256-5.256C58.916,61.931,61.27,59.573,64.172,59.573z M71.619,81.913v76.218h-4.163v-38.109
			c0-1.937-1.571-3.504-3.504-3.504c-1.935,0-3.504,1.567-3.504,3.504v38.109h-3.725V81.913H71.619z"/>
		<path d="M61.47,41.678c0.322,0.323,0.711,0.582,1.14,0.758c0.431,0.174,0.883,0.27,1.338,0.27s0.91-0.096,1.338-0.27
			c0.428-0.18,0.816-0.435,1.14-0.758l8.761-8.761c1.371-1.369,1.371-3.583,0-4.954s-3.584-1.371-4.955,0l-2.779,2.779v-8.841
			c0-1.935-1.571-3.504-3.504-3.504c-1.935,0-3.504,1.569-3.504,3.504v8.841l-2.558-2.558c-1.371-1.371-3.584-1.371-4.955,0
			c-1.371,1.369-1.371,3.585,0,4.955L61.47,41.678z"/>
		<path d="M97.243,123.088c1.931,0,3.505-1.57,3.505-3.504V81.913h1.533v79.723c0,1.933,1.57,3.504,3.504,3.504h9.452
			c0.459,0.219,0.958,0.362,1.499,0.362s1.04-0.144,1.499-0.362h9.452c1.934,0,3.504-1.571,3.504-3.504V81.913h1.533v37.671
			c0,1.934,1.574,3.504,3.504,3.504c1.938,0,3.505-1.57,3.505-3.504V78.408c0-1.935-1.567-3.504-3.505-3.504h-8.541h-3.99
			c3.196-2.216,5.304-5.901,5.304-10.075c0-6.764-5.503-12.265-12.265-12.265c-6.763,0-12.265,5.501-12.265,12.265
			c0,4.173,2.107,7.859,5.304,10.075h-3.99h-8.542c-1.937,0-3.506,1.569-3.506,3.504v41.176
			C93.737,121.518,95.307,123.088,97.243,123.088z M116.736,59.573c2.898,0,5.257,2.358,5.257,5.256
			c0,2.897-2.358,5.256-5.257,5.256s-5.257-2.359-5.257-5.256C111.479,61.931,113.834,59.573,116.736,59.573z M124.183,81.913
			v76.218h-3.942v-37.746c0-1.934-1.57-3.505-3.504-3.505s-3.505,1.571-3.505,3.505v37.746h-3.941V81.913H124.183z"/>
		<path d="M107.976,34.167c0.896,0,1.793-0.344,2.478-1.027l2.778-2.778v8.841c0,1.934,1.571,3.504,3.505,3.504
			s3.504-1.571,3.504-3.504v-8.841l2.56,2.556c1.369,1.371,3.584,1.371,4.956,0c1.368-1.369,1.368-3.583,0-4.954l-8.542-8.54
			c-0.321-0.323-0.712-0.582-1.14-0.758c-0.858-0.354-1.824-0.354-2.68,0c-0.428,0.18-0.817,0.435-1.14,0.758l-8.761,8.761
			c-1.372,1.369-1.372,3.585,0,4.955C106.183,33.823,107.079,34.167,107.976,34.167z"/>
		<path d="M163.168,0H19.492c-1.934,0-3.504,1.569-3.504,3.504v175.652c0,1.934,1.571,3.505,3.504,3.505h143.676
			c1.938,0,3.505-1.571,3.505-3.505V3.504C166.673,1.565,165.102,0,163.168,0z M159.664,175.652H22.997V7.008h136.667V175.652z"/>
	</g>
</g>
</svg>