<?xml version="1.0" encoding="iso-8859-1"?>
<!-- Uploaded to: SVG Repo, www.svgrepo.com, Generator: SVG Repo Mixer Tools -->
<!DOCTYPE svg PUBLIC "-//W3C//DTD SVG 1.1//EN" "http://www.w3.org/Graphics/SVG/1.1/DTD/svg11.dtd">
<svg fill="#000000" version="1.1" id="Capa_1" xmlns="http://www.w3.org/2000/svg" xmlns:xlink="http://www.w3.org/1999/xlink" 
	 width="800px" height="800px" viewBox="0 0 210.559 210.559"
	 xml:space="preserve">
<g>
	<g>
		<path d="M68.48,88.487c0-9.339-7.597-16.936-16.937-16.936c-9.339,0-16.936,7.597-16.936,16.936c0,5.582,2.748,10.5,6.928,13.589
			l-4.699,1.836c-1.347,0.525-2.229,1.822-2.229,3.267v26.867c0,1.938,1.567,3.505,3.504,3.505h26.864
			c1.938,0,3.504-1.567,3.504-3.505v-26.867c0-1.444-0.883-2.738-2.228-3.267l-4.7-1.836C65.734,98.986,68.48,94.068,68.48,88.487z
			 M51.544,78.559c5.478,0,9.928,4.454,9.928,9.928c0,5.474-4.45,9.928-9.921,9.931c-0.003,0-0.01,0-0.014,0
			c-5.474-0.003-9.921-4.457-9.921-9.931C41.616,83.013,46.07,78.559,51.544,78.559z M61.472,130.542H41.616v-20.971l9.928-3.881
			l9.928,3.881V130.542z"/>
		<path d="M122.215,88.487c0-9.339-7.597-16.936-16.937-16.936c-9.339,0-16.936,7.597-16.936,16.936
			c0,5.582,2.748,10.5,6.928,13.589l-4.698,1.836c-1.347,0.525-2.229,1.822-2.229,3.267v26.867c0,1.938,1.567,3.505,3.504,3.505
			h26.864c1.937,0,3.504-1.567,3.504-3.505v-26.867c0-1.444-0.883-2.738-2.228-3.267l-4.699-1.836
			C119.471,98.986,122.215,94.068,122.215,88.487z M105.278,78.559c5.479,0,9.928,4.454,9.928,9.928c0,5.474-4.448,9.928-9.92,9.931
			c-0.004,0-0.011,0-0.014,0c-5.474-0.003-9.921-4.457-9.921-9.931C95.351,83.013,99.805,78.559,105.278,78.559z M115.206,130.542
			H95.351v-20.971l9.927-3.881l9.928,3.881V130.542z"/>
		<path d="M175.95,88.487c0-9.339-7.598-16.936-16.937-16.936s-16.937,7.597-16.937,16.936c0,5.582,2.748,10.5,6.927,13.589
			l-4.695,1.836c-1.349,0.525-2.231,1.822-2.231,3.267v26.867c0,1.938,1.567,3.505,3.504,3.505h26.864
			c1.938,0,3.505-1.567,3.505-3.505v-26.867c0-1.444-0.883-2.738-2.229-3.267l-4.698-1.836
			C173.205,98.986,175.95,94.068,175.95,88.487z M159.014,78.559c5.479,0,9.928,4.454,9.928,9.928c0,5.474-4.449,9.928-9.921,9.931
			c-0.004,0-0.011,0-0.014,0c-5.473-0.003-9.921-4.457-9.921-9.931C149.086,83.013,153.542,78.559,159.014,78.559z M168.941,130.542
			h-19.855v-20.971l9.928-3.881l9.928,3.881V130.542z"/>
		<path d="M68.48,161.495c0-9.339-7.597-16.936-16.937-16.936c-9.339,0-16.936,7.597-16.936,16.936
			c0,5.582,2.748,10.499,6.928,13.59l-4.699,1.834c-1.347,0.527-2.229,1.824-2.229,3.269v26.867c0,1.937,1.567,3.504,3.504,3.504
			h26.864c1.938,0,3.504-1.567,3.504-3.504v-26.867c0-1.444-0.883-2.738-2.228-3.269l-4.7-1.834
			C65.734,171.994,68.48,167.077,68.48,161.495z M51.544,151.567c5.478,0,9.928,4.456,9.928,9.928c0,5.473-4.45,9.928-9.921,9.932
			c-0.003,0-0.01,0-0.014,0c-5.474-0.004-9.921-4.459-9.921-9.932C41.616,156.017,46.07,151.567,51.544,151.567z M61.472,203.55
			H41.616v-20.971l9.928-3.881l9.928,3.881V203.55z"/>
		<path d="M122.215,161.495c0-9.339-7.597-16.936-16.937-16.936c-9.339,0-16.936,7.597-16.936,16.936
			c0,5.582,2.748,10.499,6.928,13.59l-4.698,1.834c-1.347,0.527-2.229,1.824-2.229,3.269v26.867c0,1.937,1.567,3.504,3.504,3.504
			h26.864c1.937,0,3.504-1.567,3.504-3.504v-26.867c0-1.444-0.883-2.738-2.228-3.269l-4.699-1.834
			C119.471,171.994,122.215,167.077,122.215,161.495z M105.278,151.567c5.479,0,9.928,4.456,9.928,9.928
			c0,5.473-4.448,9.928-9.92,9.932c-0.004,0-0.011,0-0.014,0c-5.474-0.004-9.921-4.459-9.921-9.932
			C95.351,156.017,99.805,151.567,105.278,151.567z M115.206,203.55H95.351v-20.971l9.927-3.881l9.928,3.881V203.55z"/>
		<path d="M175.95,161.495c0-9.339-7.598-16.936-16.937-16.936s-16.937,7.597-16.937,16.936c0,5.582,2.748,10.499,6.927,13.59
			l-4.695,1.834c-1.349,0.527-2.231,1.824-2.231,3.269v26.867c0,1.937,1.567,3.504,3.504,3.504h26.864
			c1.938,0,3.505-1.567,3.505-3.504v-26.867c0-1.444-0.883-2.738-2.229-3.269l-4.698-1.834
			C173.205,171.994,175.95,167.077,175.95,161.495z M159.014,151.567c5.479,0,9.928,4.456,9.928,9.928
			c0,5.473-4.449,9.928-9.921,9.932c-0.004,0-0.011,0-0.014,0c-5.473-0.004-9.921-4.459-9.921-9.932
			C149.086,156.017,153.542,151.567,159.014,151.567z M168.941,203.55h-19.855v-20.971l9.928-3.881l9.928,3.881V203.55z"/>
		<path d="M172.445,1.756h-69.769c-1.939,0-3.504,1.567-3.504,3.504v52.859c0,1.937,1.565,3.504,3.504,3.504h69.769
			c1.938,0,3.505-1.567,3.505-3.504V5.26C175.95,3.323,174.383,1.756,172.445,1.756z M168.941,54.614h-62.761V8.764h62.761V54.614z"
			/>
		<path d="M45.069,19.999c5.511,0,9.998-4.483,9.998-9.998C55.067,4.485,50.584,0,45.069,0c-5.517,0-9.998,4.485-9.998,10.001
			C35.071,15.516,39.553,19.999,45.069,19.999z M45.069,7.012c1.646,0,2.989,1.341,2.989,2.993c0,1.647-1.343,2.989-2.989,2.989
			c-1.648,0-2.989-1.342-2.989-2.989C42.08,8.354,43.421,7.012,45.069,7.012z"/>
		<path d="M67.324,19.999c5.513,0,9.998-4.483,9.998-9.998C77.321,4.485,72.84,0,67.324,0c-5.515,0-9.998,4.485-9.998,10.001
			C57.326,15.516,61.812,19.999,67.324,19.999z M67.324,7.012c1.647,0,2.989,1.341,2.989,2.993c0,1.647-1.342,2.989-2.989,2.989
			c-1.646,0-2.989-1.342-2.989-2.989C64.339,8.354,65.681,7.012,67.324,7.012z"/>
		<path d="M86.994,51.285c0.141,0.074,0.262,0.169,0.414,0.222c0.406,0.158,0.823,0.252,1.244,0.252l0,0c0.003,0,0.003,0,0.003,0
			c0.515,0,0.998-0.127,1.439-0.327c0.116-0.051,0.207-0.147,0.316-0.215c0.325-0.193,0.616-0.411,0.861-0.691
			c0.042-0.049,0.103-0.067,0.144-0.116c0.089-0.115,0.117-0.255,0.193-0.378c0.126-0.21,0.241-0.412,0.327-0.652
			c0.077-0.228,0.108-0.458,0.139-0.696c0.019-0.147,0.086-0.277,0.086-0.428V25.073c0-0.151-0.07-0.279-0.086-0.426
			c-0.031-0.239-0.062-0.471-0.139-0.698c-0.082-0.234-0.203-0.441-0.327-0.652c-0.074-0.123-0.101-0.263-0.193-0.378
			c-0.044-0.057-0.108-0.081-0.157-0.133c-0.165-0.19-0.358-0.332-0.556-0.479c-0.173-0.13-0.334-0.26-0.523-0.354
			c-0.188-0.096-0.392-0.14-0.603-0.2c-0.238-0.067-0.472-0.13-0.719-0.144c-0.07-0.003-0.128-0.042-0.202-0.042
			c-0.147,0-0.274,0.067-0.417,0.083c-0.241,0.029-0.478,0.063-0.708,0.141c-0.234,0.082-0.441,0.2-0.652,0.327
			c-0.122,0.074-0.262,0.098-0.378,0.193l-9.178,7.169v-4.409c0-1.937-1.565-3.504-3.504-3.504H38.112
			c-1.937,0-3.504,1.567-3.504,3.504v23.182c0,1.937,1.567,3.504,3.504,3.504h35.702c1.938,0,3.504-1.567,3.504-3.504v-4.403
			l9.178,7.171C86.654,51.138,86.83,51.194,86.994,51.285z M85.151,41.073l-5.643-4.408l5.643-4.408V41.073z M70.313,44.753H41.62
			V28.58h28.693V44.753z"/>
	</g>
</g>
</svg>