<?xml version="1.0" encoding="iso-8859-1"?>
<!-- Uploaded to: SVG Repo, www.svgrepo.com, Generator: SVG Repo Mixer Tools -->
<!DOCTYPE svg PUBLIC "-//W3C//DTD SVG 1.1//EN" "http://www.w3.org/Graphics/SVG/1.1/DTD/svg11.dtd">
<svg fill="#000000" version="1.1" id="Capa_1" xmlns="http://www.w3.org/2000/svg" xmlns:xlink="http://www.w3.org/1999/xlink" 
	 width="800px" height="800px" viewBox="0 0 200.911 200.911"
	 xml:space="preserve">
<g>
	<path d="M197.407,19.087h-19.564c-1.934,0-3.505,1.569-3.505,3.504v14.091h-4.965V20.839c0-1.935-1.571-3.504-3.505-3.504H3.504
		C1.57,17.335,0,18.904,0,20.839v91.112c0,1.933,1.57,3.504,3.504,3.504h51.468v8.47c0,1.934,1.571,3.504,3.504,3.504h19.386
		L41.54,178.026c-1.127,1.57-0.767,3.757,0.803,4.89c0.618,0.441,1.333,0.66,2.04,0.66c1.093,0,2.166-0.51,2.849-1.464
		l37.458-52.178l37.454,52.178c0.685,0.951,1.759,1.457,2.848,1.457c0.708,0,1.423-0.212,2.039-0.656
		c1.574-1.13,1.931-3.32,0.801-4.895l-36.316-50.59h19.376c1.937,0,3.504-1.57,3.504-3.504v-8.47h51.473
		c1.934,0,3.505-1.571,3.505-3.504V96.108h4.965v14.09c0,1.934,1.571,3.505,3.505,3.505h19.564c1.934,0,3.504-1.571,3.504-3.505
		V22.591C200.911,20.656,199.341,19.087,197.407,19.087z M107.387,120.421h-45.41v-4.966h45.41V120.421z M162.364,108.446h-51.473
		H58.473H7.008V24.344h155.356v15.843v52.417V108.446z M169.373,89.103V43.69h4.965v45.409h-4.965V89.103z M193.902,106.694h-12.556
		V92.604V40.187V26.096h12.556V106.694z"/>
</g>
</svg>