<?xml version="1.0" encoding="utf-8"?>

<!DOCTYPE svg PUBLIC "-//W3C//DTD SVG 1.1//EN" "http://www.w3.org/Graphics/SVG/1.1/DTD/svg11.dtd">
<!-- Uploaded to: SVG Repo, www.svgrepo.com, Generator: SVG Repo Mixer Tools -->
<svg height="800px" width="800px" version="1.1" id="_x32_" xmlns="http://www.w3.org/2000/svg" xmlns:xlink="http://www.w3.org/1999/xlink" 
	 viewBox="0 0 512 512"  xml:space="preserve">
<style type="text/css">
	.st0{fill:#000000;}
</style>
<g>
	<path class="st0" d="M480.333,210.212v-76.165c0-3.125-2.534-5.65-5.65-5.65h-26.523c-5.894,0-11.245,3.444-13.694,8.794
		l-20.311,44.432c-37.449-14.21-114.516-32.68-226.75-32.68C72.101,148.942,0,202.074,0,244.132
		c0,37.993,41.41,86.499,134.365,94.176l11.216,31.414c2.976,8.325,10.86,13.882,19.701,13.882h84.791
		c9.92,0,18.472-6.964,20.48-16.679l6.87-33.197c58.53-6.777,111.812-18.293,137.998-27.856l19.044,41.662
		c2.449,5.36,7.8,8.795,13.694,8.795h26.523c3.116,0,5.65-2.525,5.65-5.65v-72.618C498.55,268.131,512,256.896,512,244.132
		C512,231.367,498.55,220.142,480.333,210.212z"/>
</g>
</svg>