<?xml version="1.0" encoding="utf-8"?>

<!DOCTYPE svg PUBLIC "-//W3C//DTD SVG 1.1//EN" "http://www.w3.org/Graphics/SVG/1.1/DTD/svg11.dtd">
<!-- Uploaded to: SVG Repo, www.svgrepo.com, Generator: SVG Repo Mixer Tools -->
<svg version="1.1" id="_x32_" xmlns="http://www.w3.org/2000/svg" xmlns:xlink="http://www.w3.org/1999/xlink" 
	 width="800px" height="800px" viewBox="0 0 512 512"  xml:space="preserve">
<style type="text/css">
<![CDATA[
	.st0{fill:#000000;}
]]>
</style>
<g>
	<path class="st0" d="M113.5,337.75c-31.344,0-56.75,25.406-56.75,56.75s25.406,56.75,56.75,56.75s56.75-25.406,56.75-56.75
		S144.844,337.75,113.5,337.75z M113.5,417.75c-12.844,0-23.234-10.406-23.234-23.25c0-12.828,10.391-23.234,23.234-23.234
		s23.25,10.406,23.25,23.234C136.75,407.344,126.344,417.75,113.5,417.75z"/>
	<path class="st0" d="M393.984,337.75c-31.359,0-56.766,25.406-56.766,56.75s25.406,56.75,56.766,56.75
		c31.328,0,56.734-25.406,56.734-56.75S425.313,337.75,393.984,337.75z M393.984,417.75c-12.828,0-23.266-10.406-23.266-23.25
		c0-12.828,10.438-23.234,23.266-23.234s23.234,10.406,23.234,23.234C417.219,407.344,406.813,417.75,393.984,417.75z"/>
	<path class="st0" d="M107.688,125.422h165.984c17.828,0,32.328-14.484,32.328-32.328c0-17.859-14.5-32.344-32.328-32.344H107.688
		c-17.859,0-32.313,14.484-32.313,32.344C75.375,110.938,89.828,125.422,107.688,125.422z M169.656,71h42.031v44.188h-42.031V71z"/>
	<path class="st0" d="M493.547,289.891l-56.281-25.594c-4.406-2-8.281-4.969-11.328-8.719l-74.75-102.438
		c-5.969-7.328-14.922-11.547-24.359-11.547H53.656c-14.203,0-26.625,9.5-30.375,23.188L1.094,257.188
		C0.375,259.891,0,262.688,0,265.484v109.875c0,17.391,14.094,31.484,31.484,31.484h15.344c-0.734-4-1.188-8.109-1.188-12.344
		c0-37.406,30.453-67.844,67.859-67.844s67.844,30.438,67.844,67.844c0,4.234-0.422,8.344-1.156,12.344h147.109
		c-0.734-4-1.172-8.109-1.172-12.344c0-37.406,30.438-67.844,67.859-67.844c37.406,0,67.828,30.438,67.828,67.844
		c0,4.234-0.422,8.344-1.156,12.344h19.859c17.391,0,31.484-14.094,31.484-31.484v-56.828C512,306.203,504.781,295,493.547,289.891z
		 M165.938,248.609h-30.531v30.531h-29.625v-30.531H75.25V219h30.531v-30.516h29.625V219h30.531V248.609z M393.031,255.5
		c-0.906,1.781-2.719,2.875-4.688,2.875H263.406c-5.797,0-10.5-4.688-10.5-10.484v-73.609c0-5.797,4.703-10.484,10.5-10.484h59.719
		c3.781,0,7.313,1.609,9.781,4.438l59.656,81.797C393.734,251.625,393.906,253.75,393.031,255.5z"/>
</g>
</svg>