<?xml version="1.0" encoding="utf-8"?>

<!DOCTYPE svg PUBLIC "-//W3C//DTD SVG 1.1//EN" "http://www.w3.org/Graphics/SVG/1.1/DTD/svg11.dtd">
<!-- Uploaded to: SVG Repo, www.svgrepo.com, Generator: SVG Repo Mixer Tools -->
<svg version="1.1" id="_x32_" xmlns="http://www.w3.org/2000/svg" xmlns:xlink="http://www.w3.org/1999/xlink" 
	 width="800px" height="800px" viewBox="0 0 512 512"  xml:space="preserve">
<style type="text/css">
<![CDATA[
	.st0{fill:#000000;}
]]>
</style>
<g>
	<path class="st0" d="M95.844,270.784c-29.031,0-52.563,23.531-52.563,52.547c0,29.031,23.531,52.563,52.563,52.563
		c29,0,52.531-23.531,52.531-52.563C148.375,294.315,124.844,270.784,95.844,270.784z M95.844,348.471
		c-13.906,0-25.156-11.25-25.156-25.141c0-13.875,11.25-25.125,25.156-25.125c13.875,0,25.125,11.25,25.125,25.125
		C120.969,337.221,109.719,348.471,95.844,348.471z"/>
	<path class="st0" d="M420.813,270.784c-29.031,0-52.563,23.531-52.563,52.547c0,29.031,23.531,52.563,52.563,52.563
		c29.016,0,52.531-23.531,52.531-52.563C473.344,294.315,449.828,270.784,420.813,270.784z M420.813,348.471
		c-13.891,0-25.156-11.25-25.156-25.141c0-13.875,11.266-25.125,25.156-25.125c13.875,0,25.125,11.25,25.125,25.125
		C445.938,337.221,434.688,348.471,420.813,348.471z"/>
	<path class="st0" d="M95.844,312.518c-6,0-10.844,4.844-10.844,10.813c0,5.984,4.844,10.828,10.844,10.828
		c5.969,0,10.813-4.844,10.813-10.828C106.656,317.362,101.813,312.518,95.844,312.518z"/>
	<path class="st0" d="M420.813,312.518c-5.984,0-10.813,4.844-10.813,10.813c0,5.984,4.828,10.828,10.813,10.828
		c5.969,0,10.813-4.844,10.813-10.828C431.625,317.362,426.781,312.518,420.813,312.518z"/>
	<path class="st0" d="M470.313,239.69c-21.375-32.781-51.313-59.5-86.594-77.016l18.984-19.25c1.672-1.688,1.641-4.406-0.047-6.094
		c-1.688-1.656-4.406-1.625-6.063,0.063l-21.109,21.406c-27.234-12.141-57.406-18.891-89.156-18.891
		c-70.797,0-133.766,33.547-173.891,85.594c-6.344-1.375-12.938-2.125-19.688-2.125c-51.234,0-92.75,41.516-92.75,92.75
		c0,3.125,0.156,6.219,0.469,9.266h31.828c-0.016-0.688-0.047-1.359-0.047-2.063c0-35.109,28.469-63.578,63.594-63.578
		c35.109,0,63.563,28.469,63.563,63.578c0,0.703-0.016,1.375-0.031,2.063h25.641h151.453h20.797
		c-0.016-0.688-0.047-1.359-0.047-2.063c0-35.109,28.469-63.578,63.594-63.578c35.109,0,63.594,28.469,63.594,63.578
		c0,0.703-0.031,1.375-0.063,2.063h18.844h8.125c0.438-3.547,0.688-7.156,0.688-10.813C512,282.956,495.344,255.237,470.313,239.69z
		 M290.5,217.049H158.813c-1.094,0-2.063-0.672-2.438-1.688c-0.406-1.016-0.125-2.156,0.688-2.891c0,0,9.797-10.109,18-16.359
		c31.563-24.188,70.313-37.5,111.266-37.5c1.391,0,2.797,0.031,4.172,0.063V217.049z M416.313,215.362
		c-0.391,1.016-1.375,1.688-2.453,1.688h-98.313V160.94c30.281,4.844,58.594,17.141,82.609,35.609
		c8,6.172,17.469,15.922,17.469,15.922C416.438,213.206,416.703,214.346,416.313,215.362z"/>
</g>
</svg>