<?xml version="1.0" encoding="utf-8"?>

<!DOCTYPE svg PUBLIC "-//W3C//DTD SVG 1.1//EN" "http://www.w3.org/Graphics/SVG/1.1/DTD/svg11.dtd">
<!-- Uploaded to: SVG Repo, www.svgrepo.com, Generator: SVG Repo Mixer Tools -->
<svg height="800px" width="800px" version="1.1" id="_x32_" xmlns="http://www.w3.org/2000/svg" xmlns:xlink="http://www.w3.org/1999/xlink" 
	 viewBox="0 0 512 512"  xml:space="preserve">
<style type="text/css">
	.st0{fill:#000000;}
</style>
<g>
	<path class="st0" d="M410.103,216.69c-52.452,0.008-95.588,39.634-101.23,90.575h-43.706l47.801-133.35H173.419l33.328-82.401
		h-87.24v22.644h53.658l-43.103,106.563c-8.952-2.573-18.379-4.032-28.164-4.032C45.612,216.698,0.011,262.309,0,318.588
		c0.011,56.278,45.612,101.89,101.897,101.897c56.285-0.007,101.886-45.62,101.898-101.897
		c-0.008-38.462-21.328-71.919-52.784-89.271l13.254-32.756h116.532l-47.805,133.35h75.881
		c5.642,50.941,48.778,90.568,101.23,90.575c56.285-0.007,101.886-45.62,101.897-101.897
		C511.989,262.309,466.388,216.698,410.103,216.69z M152.603,267.882c12.998,13.025,20.992,30.855,21,50.706
		c-0.008,19.843-8.002,37.673-21,50.706c-13.024,12.995-30.855,20.992-50.706,21c-19.85-0.008-37.681-8.005-50.706-21
		c-12.998-13.032-20.992-30.863-21-50.706c0.008-19.85,8.002-37.681,21-50.706c13.025-12.995,30.856-20.992,50.706-21
		c5.79,0,11.381,0.76,16.758,2.042l-31.032,76.732l20.992,8.491l30.941-76.497C144.274,260.57,148.681,263.968,152.603,267.882z
		 M460.808,369.293c-13.025,12.995-30.855,20.992-50.706,21c-19.85-0.008-37.681-8.005-50.706-21
		c-10.467-10.497-17.602-24.126-20.023-39.384h70.729v-22.644h-70.729c2.421-15.266,9.556-28.894,20.023-39.384
		c13.025-12.995,30.855-20.992,50.706-21c19.85,0.008,37.681,8.005,50.706,21c12.998,13.025,20.992,30.855,21,50.706
		C481.801,338.43,473.807,356.261,460.808,369.293z"/>
	<polygon class="st0" points="339.028,160.707 347.828,133.663 266.692,133.663 276.123,160.707 	"/>
</g>
</svg>