<?xml version="1.0" encoding="utf-8"?>

<!DOCTYPE svg PUBLIC "-//W3C//DTD SVG 1.1//EN" "http://www.w3.org/Graphics/SVG/1.1/DTD/svg11.dtd">
<!-- Uploaded to: SVG Repo, www.svgrepo.com, Generator: SVG Repo Mixer Tools -->
<svg version="1.1" id="_x32_" xmlns="http://www.w3.org/2000/svg" xmlns:xlink="http://www.w3.org/1999/xlink" 
	 width="800px" height="800px" viewBox="0 0 512 512"  xml:space="preserve">
<style type="text/css">
<![CDATA[
	.st0{fill:#000000;}
]]>
</style>
<g>
	<path class="st0" d="M359.446,302.672c-0.781-1.859-1.734-1.828,0.141-2.828c1.859-0.969,9.297-4.953,9.297-4.953l-0.25-18.578
		l-18.047,7.625c-0.438-1.938-1.016-3.156-1.625-3.125c-0.594,0.016-1.094,1.25-1.438,3.203l-18.438-6.719l0.703,18.609
		c0,0,7.641,3.563,9.563,4.453c1.891,0.906,0.953,0.922,0.297,2.844c-0.656,1.906-8.188,21.391-9.219,26.375
		c-1.063,4.953-0.125,22.141,0.047,29.219c0.172,6.734,7.125,18.234,20.031,18.953v0.063c0.313,0,0.625-0.016,0.938-0.016
		c0.313-0.016,0.625-0.016,0.938-0.031v-0.063c12.875-1.391,19.25-13.234,19.047-19.969c-0.172-7.047-0.141-24.25-1.453-29.172
		C368.68,323.656,360.18,304.547,359.446,302.672z"/>
	<path class="st0" d="M259.118,388.969c-1.188-3.047-2.734-3.031,0.359-4.594c3-1.578,15.219-7.891,15.219-7.891l-0.047-30.328
		l-29.578,12.063c-0.672-3.141-1.547-5.125-2.578-5.109c-0.953,0.016-1.813,2.031-2.391,5.203l-29.922-11.281l0.813,30.297
		c0,0,12.359,6,15.453,7.469c3.094,1.516,1.547,1.531,0.438,4.594c-1.109,3.109-16.438,35.516-18.219,43.594
		c-1.813,8.063-0.125,36.094,0,47.609c0.188,10.984,11,29.859,32.047,31.281V512c0.484,0,1.031-0.031,1.531-0.031
		c0.484,0,1,0,1.531,0v-0.141c20.969-1.984,31.547-21.172,31.438-32.156c-0.156-11.484,2.031-39.516,0-47.578
		C273.211,424.109,260.305,392.031,259.118,388.969z"/>
	<path class="st0" d="M473.539,136.016L459.133,136l22.469-83.109c0.938-3.422-0.219-6.219-2.594-6.25l-24.641-0.031
		c-2.344,0-5.672,2.156-7.375,4.75l-54.562,84.531l-122.344-0.172L337.977,7.766c2.188-4.156,2.063-7.547-0.297-7.578L305.211,0
		c-2.359-0.016-6.344,2.453-8.844,5.484L189.352,135.594l-90.703-0.125c-26.516-0.047-37.359,1.844-43.406,9.422
		c-6.031,7.609-26.563,22.797-26.594,34.203c-0.016,22.813,34.906,41.875,71.078,41.938l256.75,0.391
		c13.266,0.016,108.562-43.594,119.406-53.063C486.742,158.875,485.586,136.031,473.539,136.016z"/>
</g>
</svg>