<?xml version="1.0" encoding="utf-8"?>

<!DOCTYPE svg PUBLIC "-//W3C//DTD SVG 1.1//EN" "http://www.w3.org/Graphics/SVG/1.1/DTD/svg11.dtd">
<!-- Uploaded to: SVG Repo, www.svgrepo.com, Generator: SVG Repo Mixer Tools -->
<svg height="800px" width="800px" version="1.1" id="_x32_" xmlns="http://www.w3.org/2000/svg" xmlns:xlink="http://www.w3.org/1999/xlink" 
	 viewBox="0 0 512 512"  xml:space="preserve">
<style type="text/css">
	.st0{fill:#000000;}
</style>
<g>
	<path class="st0" d="M137.351,339.824c-22.831,0-41.341,18.51-41.341,41.341c0,22.832,18.51,41.319,41.341,41.319
		c22.824,0,41.312-18.488,41.312-41.319C178.663,358.333,160.175,339.824,137.351,339.824z M137.351,399.748
		c-10.289,0-18.606-8.324-18.606-18.584c0-10.289,8.317-18.606,18.606-18.606c10.259,0,18.584,8.317,18.584,18.606
		C155.935,391.424,147.61,399.748,137.351,399.748z"/>
	<path class="st0" d="M409.63,339.824c-22.824,0-41.326,18.51-41.326,41.341c0,22.832,18.502,41.319,41.326,41.319
		c22.831,0,41.319-18.488,41.319-41.319C450.949,358.333,432.461,339.824,409.63,339.824z M409.63,399.748
		c-10.274,0-18.606-8.324-18.606-18.584c0-10.289,8.332-18.606,18.606-18.606c10.266,0,18.599,8.317,18.599,18.606
		C428.228,391.424,419.896,399.748,409.63,399.748z"/>
	<path class="st0" d="M285.992,259.625c-3.855,0-6.998,3.128-6.998,6.99c0,3.862,3.143,6.99,6.998,6.99
		c3.854,0,6.982-3.128,6.982-6.99C292.974,262.753,289.846,259.625,285.992,259.625z"/>
	<path class="st0" d="M492.505,89.516H87.1c-3.87,0-7.591,1.549-10.348,4.285l-24.529,24.55c-2.757,2.736-4.292,6.464-4.292,10.334
		v20.17c0,8.08,6.545,14.626,14.626,14.626h67.908c-13.344,23.528-55.618,82.845-56.122,83.853
		c-0.874,1.728-58.398,39.762-58.398,39.762C5.708,294.139,0,300.595,0,316.184v29.229c0,4.738,0.971,9.303,2.72,13.454
		c2.639,6.212,6.997,11.46,12.505,15.174c2.743,1.86,5.79,3.321,9.036,4.336c3.255,1.008,19.518,2.758,23.069,2.758h28.873h7.769
		c0.022-29.414,23.958-53.35,53.379-53.35c29.406,0,53.35,23.936,53.35,53.35h165.557c0.022-29.414,23.95-53.35,53.372-53.35
		c29.422,0,53.357,23.936,53.365,53.35h14.499c4.722,0,9.458-1.246,13.595-2.994c6.212-2.639,11.297-7.91,15.011-13.425
		c1.868-2.75,3.343-5.782,4.351-9.036c1.023-3.247,1.549-6.716,1.549-10.267V206.505v-97.478
		C512,98.264,503.268,89.516,492.505,89.516z M200.412,297.645h-25.796c-4.27,0-7.724-3.455-7.724-7.717
		c0-4.27,3.454-7.74,7.724-7.74h25.796c4.27,0,7.746,3.47,7.746,7.74C208.158,294.191,204.681,297.645,200.412,297.645z
		 M232.412,233.473c0,5.396-4.366,9.762-9.748,9.762h-93.171c-3.602,0-6.916-1.994-8.621-5.182
		c-1.675-3.187-1.482-7.035,0.534-10.022l24.284-35.967c1.824-2.683,4.848-4.3,8.087-4.3h68.887c5.382,0,9.748,4.374,9.748,9.74
		V233.473z M339.638,336.999c0,4.026-3.284,7.309-7.317,7.309H276.43c-4.055,0-7.317-3.284-7.317-7.309V195.075
		c0-4.04,3.262-7.309,7.317-7.309h55.892c4.033,0,7.317,3.269,7.317,7.309V336.999z M449.51,234.363
		c0,4.032-3.276,7.316-7.317,7.316h-49.013c-4.04,0-7.309-3.284-7.309-7.316v-38.695c0-4.047,3.269-7.324,7.309-7.324h49.013
		c4.041,0,7.317,3.276,7.317,7.324V234.363z"/>
</g>
</svg>