<?xml version="1.0" encoding="utf-8"?>

<!DOCTYPE svg PUBLIC "-//W3C//DTD SVG 1.1//EN" "http://www.w3.org/Graphics/SVG/1.1/DTD/svg11.dtd">
<!-- Uploaded to: SVG Repo, www.svgrepo.com, Generator: SVG Repo Mixer Tools -->
<svg version="1.1" id="_x32_" xmlns="http://www.w3.org/2000/svg" xmlns:xlink="http://www.w3.org/1999/xlink" 
	 width="800px" height="800px" viewBox="0 0 512 512"  xml:space="preserve">
<style type="text/css">
<![CDATA[
	.st0{fill:#000000;}
]]>
</style>
<g>
	<path class="st0" d="M147.401,277.969c-24.672,0-44.672,19.984-44.672,44.672c0.016,24.672,19.984,44.641,44.672,44.672
		c24.688-0.031,44.656-20,44.688-44.672c0.016-12.328-5.016-23.547-13.094-31.609C170.948,282.969,159.698,277.953,147.401,277.969z
		 M147.401,346.578c-13.234-0.031-23.922-10.734-23.953-23.938c0.031-13.266,10.719-23.922,23.953-23.953
		c13.25,0,23.953,10.688,23.953,23.953C171.339,335.844,160.636,346.547,147.401,346.578z"/>
	<path class="st0" d="M388.776,277.969c-24.688,0-44.703,19.969-44.703,44.672c0.016,24.672,20,44.641,44.703,44.672
		c24.672-0.031,44.641-20,44.656-44.672C433.433,297.953,413.433,277.969,388.776,277.969z M388.776,346.578
		c-13.234-0.031-23.953-10.75-23.969-23.938c0.016-13.25,10.734-23.922,23.969-23.953c13.234,0.031,23.922,10.688,23.938,23.953
		C412.698,335.844,401.995,346.547,388.776,346.578z"/>
	<path class="st0" d="M147.401,313.844c-4.844,0-8.781,3.938-8.781,8.797c0,4.844,3.938,8.797,8.781,8.797s8.781-3.953,8.781-8.797
		C156.183,317.781,152.245,313.844,147.401,313.844z"/>
	<path class="st0" d="M388.761,313.844c-4.844,0-8.781,3.938-8.781,8.797c0,4.844,3.938,8.797,8.781,8.797
		c4.828,0,8.766-3.953,8.766-8.797C397.526,317.781,393.589,313.844,388.761,313.844z"/>
	<path class="st0" d="M508.12,223.531c-3.125-3.719-7.766-5.906-12.656-5.906h-70.984l-35.953-62.563
		c-3.703-6.406-10.516-10.375-17.922-10.375H195.011c-6.359,0-12.359,2.938-16.281,7.938l-44.625,57.063
		c-3.922,5.016-9.938,7.938-16.281,7.938H16.542c-4.859,0-9.453,2.156-12.609,5.844c-3.125,3.688-4.5,8.578-3.719,13.359
		l17.172,66.875c2.328,9.172,10.594,15.563,20.063,15.547l55.281-0.125c1.844-28.688,25.516-51.531,54.672-51.531
		c14.734,0,28.547,5.734,38.938,16.125c9.5,9.469,14.844,21.875,15.734,35.172l132.063-0.344
		c2.141-28.406,25.688-50.953,54.641-50.953c28.859,0,52.328,22.406,54.578,50.719l41.109-0.094
		c10.547-0.016,19.359-7.969,20.516-18.438l6.766-62.75C512.604,232.219,511.276,227.281,508.12,223.531z M283.026,221.016H154.183
		l41.844-53.516h87V221.016z M310.214,221.016V167.5h59.156l30.766,53.516H310.214z"/>
</g>
</svg>