<?xml version="1.0" encoding="utf-8"?>

<!DOCTYPE svg PUBLIC "-//W3C//DTD SVG 1.1//EN" "http://www.w3.org/Graphics/SVG/1.1/DTD/svg11.dtd">
<!-- Uploaded to: SVG Repo, www.svgrepo.com, Generator: SVG Repo Mixer Tools -->
<svg version="1.1" id="_x32_" xmlns="http://www.w3.org/2000/svg" xmlns:xlink="http://www.w3.org/1999/xlink" 
	 width="800px" height="800px" viewBox="0 0 512 512"  xml:space="preserve">
<style type="text/css">
<![CDATA[
	.st0{fill:#000000;}
]]>
</style>
<g>
	<path class="st0" d="M140.688,302.375c-13.422,0-25.672,5.484-34.469,14.281c-8.797,8.781-14.281,21.047-14.266,34.453
		c-0.016,13.438,5.469,25.688,14.266,34.484c8.797,8.781,21.047,14.266,34.469,14.266s25.672-5.484,34.469-14.266
		c8.797-8.797,14.281-21.047,14.266-34.484c0.016-13.406-5.469-25.672-14.266-34.453
		C166.359,307.859,154.109,302.375,140.688,302.375z M164.828,361.313c-1.984,4.688-5.313,8.703-9.516,11.531
		c-4.188,2.813-9.156,4.469-14.625,4.469c-3.656,0-7.063-0.734-10.188-2.063c-4.688-1.969-8.719-5.297-11.531-9.5
		c-2.844-4.188-4.469-9.172-4.469-14.641c0-3.625,0.734-7.047,2.063-10.172c1.969-4.688,5.313-8.719,9.484-11.531
		c4.203-2.828,9.172-4.469,14.641-4.469c3.656,0,7.063,0.734,10.188,2.047c4.688,1.984,8.719,5.313,11.531,9.5
		c2.828,4.188,4.469,9.172,4.469,14.625C166.875,354.766,166.156,358.188,164.828,361.313z"/>
	<path class="st0" d="M360.391,302.375c-13.422,0-25.672,5.484-34.453,14.281c-8.813,8.781-14.313,21.047-14.281,34.453
		c-0.031,13.438,5.469,25.688,14.281,34.484c8.781,8.781,21.031,14.266,34.453,14.266s25.672-5.484,34.453-14.266
		c8.813-8.797,14.297-21.047,14.281-34.484c0.016-13.406-5.469-25.672-14.281-34.453
		C386.063,307.859,373.813,302.375,360.391,302.375z M384.531,361.313c-1.969,4.688-5.313,8.703-9.5,11.531
		c-4.188,2.813-9.172,4.469-14.641,4.469c-3.641,0-7.063-0.734-10.203-2.063c-4.672-1.969-8.703-5.297-11.531-9.5
		c-2.813-4.188-4.438-9.172-4.453-14.641c0-3.625,0.734-7.047,2.047-10.172c1.984-4.688,5.313-8.719,9.5-11.531
		c4.188-2.828,9.172-4.469,14.641-4.469c3.641,0,7.047,0.734,10.203,2.047c4.672,1.984,8.688,5.313,11.516,9.5
		s4.453,9.172,4.469,14.625C386.578,354.766,385.844,358.188,384.531,361.313z"/>
	<path class="st0" d="M140.688,343.625c-4.141,0-7.5,3.359-7.5,7.484c0,4.156,3.359,7.516,7.5,7.516s7.5-3.359,7.5-7.516
		C148.188,346.984,144.828,343.625,140.688,343.625z"/>
	<path class="st0" d="M360.391,343.625c-4.141,0-7.5,3.359-7.5,7.484c0,4.156,3.359,7.516,7.5,7.516s7.5-3.359,7.5-7.516
		C367.891,346.984,364.531,343.625,360.391,343.625z"/>
	<path class="st0" d="M393.156,187.313C321.844,146.844,252,112.141,180.203,112.141C80.688,112.141,0,175.141,0,252.828
		c0,61.344,28.844,100.281,80.828,113.969c-1.313-5.047-2.016-10.313-2-15.688c-0.016-16.531,6.422-32.047,18.109-43.734
		c11.672-11.688,27.188-18.109,43.719-18.109c16.594,0,32.109,6.422,43.781,18.109c11.688,11.688,18.125,27.203,18.125,43.75
		c0,7.344-1.281,14.5-3.719,21.188c31.438,0,67.563,0,103.406,0c-2.438-6.688-3.719-13.844-3.719-21.203
		c0-16.531,6.438-32.047,18.125-43.734c11.656-11.688,27.188-18.109,43.703-18.109c16.578,0,32.109,6.422,43.781,18.109
		s18.109,27.203,18.109,43.75c0,7.344-1.281,14.5-3.703,21.188c13.734,0,26.047,0,36.266,0c45.094,0,57.188-32.844,57.188-59.094
		C512,261.188,411.813,197.906,393.156,187.313z M246.031,162.25v39.172c0,18.109-14.672,32.797-32.766,32.797H50.109h-9.484
		c-1.781,0-3.453-0.891-4.484-2.359c-1.016-1.469-1.266-3.344-0.625-5.016c0,0-1.078,0.516,3.578-9.609
		c8.875-19.313,28.578-50.563,68.188-69.109c39.922-18.688,96.234-11.266,123.188-6.031c9.688,1.875,11.281,2.516,11.281,2.516
		c2.516,0.547,4.281,2.766,4.281,5.328V162.25z M426.969,235.594c-0.75,2.25-2.844,3.75-5.203,3.75h-8.047h-90.875
		c-27.156,0-49.188-22.016-49.188-49.172v-20.219v-11.156c0-1.781,0.875-3.453,2.344-4.469c1.469-1.031,3.344-1.266,5.031-0.656
		c0,0,7.734,2.609,15.25,5.672c32.266,13.047,64.203,30.406,95.188,48c7.156,4.063,16.531,9.953,26.813,17.141
		c6.438,4.484,6.75,5,6.75,5C426.922,230.906,427.688,233.359,426.969,235.594z M463.5,329.922c-9.063,0-16.391-7.328-16.391-16.375
		c0-9.063,7.328-16.391,16.391-16.391c9.031,0,16.375,7.328,16.375,16.391C479.875,322.594,472.531,329.922,463.5,329.922z"/>
</g>
</svg>