<?xml version="1.0" encoding="utf-8"?>

<!DOCTYPE svg PUBLIC "-//W3C//DTD SVG 1.1//EN" "http://www.w3.org/Graphics/SVG/1.1/DTD/svg11.dtd">
<!-- Uploaded to: SVG Repo, www.svgrepo.com, Generator: SVG Repo Mixer Tools -->
<svg version="1.1" id="_x32_" xmlns="http://www.w3.org/2000/svg" xmlns:xlink="http://www.w3.org/1999/xlink" 
	 viewBox="0 0 512 512"  xml:space="preserve">
<style type="text/css">
	.st0{fill:#000000;}
</style>
<g>
	<polygon class="st0" points="143.761,89.331 0,85.273 0,111.821 143.761,107.762 	"/>
	<polygon class="st0" points="348.831,85.273 203.429,89.331 203.429,107.762 348.831,111.821 	"/>
	<rect x="165.207" y="89.331" class="st0" width="18.424" height="80.028"/>
	<path class="st0" d="M511.311,93.837c-0.785-1.188-2.108-1.907-3.534-1.907H475.14c-9.651,0-18.625,4.944-23.778,13.105
		l-42.964,68.03c-5.146,8.162-14.126,13.106-23.77,13.106H158.32c-66.426,0-120.279,53.853-120.279,120.278
		c0,66.432,53.853,120.278,120.279,120.278c178.982,0,142.609-157.895,191.784-169.05l89.102-15.163
		c6.563-1.108,12.112-5.47,14.76-11.572l57.682-133.118C512.218,96.521,512.088,95.017,511.311,93.837z M184.2,293.697
		c0,19.676-15.948,35.624-35.624,35.624H78.336c-2.635,0-4.866-1.914-5.276-4.512c0,0-3.44-12.552-3.44-21.699
		c0-47.152,38.366-85.525,85.526-85.525h23.706c2.958,0,5.348,2.396,5.348,5.347V293.697z"/>
</g>
</svg>