<?xml version="1.0" encoding="utf-8"?>

<!DOCTYPE svg PUBLIC "-//W3C//DTD SVG 1.1//EN" "http://www.w3.org/Graphics/SVG/1.1/DTD/svg11.dtd">
<!-- Uploaded to: SVG Repo, www.svgrepo.com, Generator: SVG Repo Mixer Tools -->
<svg version="1.1" id="_x32_" xmlns="http://www.w3.org/2000/svg" xmlns:xlink="http://www.w3.org/1999/xlink" 
	 viewBox="0 0 512 512"  xml:space="preserve">
<style type="text/css">
	.st0{fill:#000000;}
</style>
<g>
	<path class="st0" d="M471.664,72.139c-8.969-21.218-23.934-39.226-42.784-51.961C410.05,7.443,387.255,0,362.836,0H149.174
		c-16.273,0-31.843,3.31-45.976,9.287C81.98,18.265,63.973,33.221,51.238,52.07C38.503,70.901,31.05,93.704,31.05,118.114v254.563
		c0,14.093,2.874,27.581,8.068,39.84c7.799,18.384,20.772,33.993,37.105,45.034c2.755,1.863,5.619,3.588,8.563,5.183v39.752
		c0,5.253,4.241,9.514,9.514,9.514h56.51c5.253,0,9.514-4.261,9.514-9.514v-27.413h191.372v27.413c0,5.253,4.242,9.514,9.514,9.514
		h56.51c5.253,0,9.514-4.261,9.514-9.514v-39.762c14.549-7.888,26.977-19.176,36.193-32.814
		c11.051-16.323,17.522-36.094,17.522-57.233V118.114C480.95,101.842,477.64,86.282,471.664,72.139z M454.093,372.678
		c0,10.436-2.121,20.326-5.937,29.355c-5.738,13.538-15.351,25.113-27.422,33.27c-12.071,8.156-26.531,12.914-42.18,12.914H133.456
		c-10.437,0-20.327-2.112-29.365-5.937c-13.528-5.738-25.114-15.351-33.26-27.423c-8.166-12.071-12.914-26.53-12.914-42.179V118.114
		c0-12.636,2.547-24.608,7.166-35.52C72,66.243,83.586,52.278,98.164,42.438c14.578-9.841,32.061-15.58,51.01-15.58h213.662
		c12.636,0,24.608,2.558,35.52,7.176c16.352,6.907,30.316,18.492,40.157,33.062c9.842,14.588,15.57,32.07,15.58,51.019V372.678z"/>
	<path class="st0" d="M133.456,343.243c-15.332,0-27.76,12.428-27.76,27.75c0,15.341,12.428,27.759,27.76,27.759
		c15.331,0,27.759-12.418,27.759-27.759C161.215,355.671,148.788,343.243,133.456,343.243z"/>
	<path class="st0" d="M378.554,343.243c-15.331,0-27.759,12.428-27.759,27.75c0,15.341,12.428,27.759,27.759,27.759
		c15.322,0,27.75-12.418,27.75-27.759C406.304,355.671,393.876,343.243,378.554,343.243z"/>
	<rect x="165.358" y="60.435" class="st0" width="181.294" height="30.208"/>
	<rect x="206.586" y="387.781" class="st0" width="104.081" height="45.331"/>
	<path class="st0" d="M134.586,282.313h242.838c13.141,0,23.785-10.644,23.785-23.786V158.094c0-13.142-10.644-23.796-23.785-23.796
		H134.586c-13.132,0-23.795,10.654-23.795,23.796v100.433C110.791,271.669,121.454,282.313,134.586,282.313z M138.242,166.944
		c0-2.924,2.379-5.302,5.292-5.302h60.732l-66.024,65.41V166.944z"/>
</g>
</svg>