<?xml version="1.0" encoding="utf-8"?>

<!DOCTYPE svg PUBLIC "-//W3C//DTD SVG 1.1//EN" "http://www.w3.org/Graphics/SVG/1.1/DTD/svg11.dtd">
<!-- Uploaded to: SVG Repo, www.svgrepo.com, Generator: SVG Repo Mixer Tools -->
<svg version="1.1" id="_x32_" xmlns="http://www.w3.org/2000/svg" xmlns:xlink="http://www.w3.org/1999/xlink" 
	 width="800px" height="800px" viewBox="0 0 512 512"  xml:space="preserve">
<style type="text/css">
<![CDATA[
	.st0{fill:#000000;}
]]>
</style>
<g>
	<path class="st0" d="M504.633,227.359l-17.25-3.281v-66.766c0-4.984-4.063-9.047-9.047-9.047h-37.484
		c-2.406,0-4.703,0.953-6.391,2.656l-50.031,51.609c0,0-87.781,0.797-103.734,0c0,0-93.359-16.75-160.391-4.797
		C63.07,207.969,9.383,236.859,9.383,236.859l-6.141,3.422c-2.266,1.266-3.531,3.781-3.188,6.344
		c0.344,2.578,1.875,3.75,4.719,5.313c0,0,47.688,31.188,121.906,31.188c11.219,0,44.719,0,84.719,0l131.047,76.578
		c4.484,2.625,9.766,4.031,15.172,4.031h37.984c1.703,0,3.25-0.828,4.031-2.125c0.766-1.313,0.641-2.891-0.344-4.078l-61.234-74.406
		c37.906,0,65.531,0,65.531,0l83.797-30.313l19.156-8.25c3.641-1.594,5.844-5.359,5.406-9.313S508.539,228.094,504.633,227.359z"/>
</g>
</svg>