<?xml version="1.0" encoding="utf-8"?>

<!DOCTYPE svg PUBLIC "-//W3C//DTD SVG 1.1//EN" "http://www.w3.org/Graphics/SVG/1.1/DTD/svg11.dtd">
<!-- Uploaded to: SVG Repo, www.svgrepo.com, Generator: SVG Repo Mixer Tools -->
<svg height="800px" width="800px" version="1.1" id="_x32_" xmlns="http://www.w3.org/2000/svg" xmlns:xlink="http://www.w3.org/1999/xlink" 
	 viewBox="0 0 512 512"  xml:space="preserve">
<style type="text/css">
	.st0{fill:#000000;}
</style>
<g>
	<path class="st0" d="M75.335,334.018c-26.14,0-47.356,21.185-47.356,47.356c0,26.132,21.217,47.316,47.356,47.316
		c26.132,0,47.316-21.185,47.316-47.316C122.651,355.202,101.466,334.018,75.335,334.018z M75.335,397.99
		c-9.17,0-16.656-7.445-16.656-16.616c0-9.17,7.485-16.656,16.656-16.656c9.162,0,16.615,7.485,16.615,16.656
		C91.95,390.545,84.497,397.99,75.335,397.99z"/>
	<path class="st0" d="M277.642,122.676c-6.697-23.305-28.018-39.366-52.271-39.366h-142.8c-11.548,0-20.912,9.364-20.912,20.912
		v133.043H46.617C20.871,237.265,0,258.136,0,283.882v81.295h8.608c7.308-30.099,34.412-52.537,66.727-52.537
		c32.299,0,59.378,22.438,66.686,52.537h31.472c2.554-41.864,37.31-75.151,79.8-75.151c23.16,0,43.992,9.958,58.615,25.754v-4.055
		V266.44c0-16.254-2.28-32.435-6.769-48.055L277.642,122.676z M241.103,199.119l-21.827,13.162l33.046,62.912h-59.08l-27.417-37.928
		h-55.508V117.849h115.054c8.802,0,16.647,5.91,19.081,14.367l27.497,95.701c1.871,6.505,3.236,13.13,4.136,19.828L241.103,199.119z
		"/>
	<path class="st0" d="M253.293,311.403c-32.388,0-58.672,26.244-58.672,58.672c0,32.371,26.284,58.615,58.672,58.615
		c32.371,0,58.615-26.244,58.615-58.615C311.908,337.647,285.664,311.403,253.293,311.403z M253.293,390.658
		c-11.363,0-20.639-9.219-20.639-20.582c0-11.364,9.276-20.639,20.639-20.639c11.348,0,20.582,9.275,20.582,20.639
		C273.876,381.438,264.641,390.658,253.293,390.658z"/>
	<path class="st0" d="M389.91,388.2c-16.214,0-29.368-13.154-29.368-29.368V83.31h-38.475v333.038H512V388.2H389.91z"/>
	<path class="st0" d="M230.775,173.911L199.858,195.2c-3.108,2.136-3.887,6.384-1.751,9.492c2.136,3.1,6.384,3.887,9.492,1.751
		l30.918-21.297c3.108-2.136,3.887-6.385,1.751-9.484C238.132,172.554,233.876,171.766,230.775,173.911z"/>
</g>
</svg>