<?xml version="1.0" encoding="utf-8"?>

<!DOCTYPE svg PUBLIC "-//W3C//DTD SVG 1.1//EN" "http://www.w3.org/Graphics/SVG/1.1/DTD/svg11.dtd">
<!-- Uploaded to: SVG Repo, www.svgrepo.com, Generator: SVG Repo Mixer Tools -->
<svg version="1.1" id="_x32_" xmlns="http://www.w3.org/2000/svg" xmlns:xlink="http://www.w3.org/1999/xlink" 
	 viewBox="0 0 512 512"  xml:space="preserve">
<style type="text/css">
	.st0{fill:#000000;}
</style>
<g>
	<path class="st0" d="M445.743,30.15C427.146,11.533,401.343-0.009,372.945,0h-233.87c-28.399-0.009-54.202,11.533-72.809,30.15
		C47.66,48.747,36.107,74.549,36.107,102.958v281.077c0,24.534,10.013,46.855,26.115,62.936
		c7.255,7.266,15.808,13.284,25.248,17.712v36.258c0,4.7,3.783,8.504,8.494,8.504h50.457c4.689,0,8.504-3.804,8.504-8.504v-27.865
		h199.192v30.05c0,4.9,3.955,8.876,8.877,8.876h52.681c4.89,0,8.875-3.976,8.875-8.876v-38.442
		c9.439-4.428,17.973-10.446,25.239-17.712c16.101-16.081,26.114-38.401,26.104-62.936V102.958
		C475.903,74.549,464.361,48.747,445.743,30.15z M455.444,384.035c0,18.929-7.668,36.016-20.106,48.475
		c-12.458,12.439-29.546,20.107-48.475,20.107H125.147c-18.918,0-36.006-7.668-48.464-20.107
		c-12.438-12.459-20.107-29.546-20.107-48.475V102.958c0-22.814,9.218-43.383,24.152-58.338
		c14.974-14.953,35.523-24.162,58.347-24.172h233.87c22.804,0.01,43.373,9.219,58.326,24.172
		c14.954,14.954,24.172,35.524,24.172,58.338V384.035z"/>
	<path class="st0" d="M129.968,350.263c-11.342,0-20.54,9.198-20.54,20.538c0,11.342,9.198,20.54,20.54,20.54
		s20.538-9.198,20.538-20.54C150.506,359.461,141.309,350.263,129.968,350.263z"/>
	<path class="st0" d="M382.043,350.263c-11.341,0-20.549,9.198-20.549,20.538c0,11.342,9.208,20.54,20.549,20.54
		c11.352,0,20.549-9.198,20.549-20.54C402.591,359.461,393.395,350.263,382.043,350.263z"/>
	<path class="st0" d="M131.165,290.124h249.69c11.19,0,20.257-9.076,20.257-20.257v-123.97c0-11.18-9.067-20.247-20.257-20.247
		h-249.69c-11.19,0-20.267,9.067-20.267,20.247v123.97C110.898,281.048,119.975,290.124,131.165,290.124z"/>
	<rect x="173.561" y="65.572" class="st0" width="164.887" height="22.36"/>
	<rect x="217.487" y="394.078" class="st0" width="77.045" height="33.552"/>
</g>
</svg>