<?xml version="1.0" encoding="utf-8"?>

<!DOCTYPE svg PUBLIC "-//W3C//DTD SVG 1.1//EN" "http://www.w3.org/Graphics/SVG/1.1/DTD/svg11.dtd">
<!-- Uploaded to: SVG Repo, www.svgrepo.com, Generator: SVG Repo Mixer Tools -->
<svg version="1.1" id="_x32_" xmlns="http://www.w3.org/2000/svg" xmlns:xlink="http://www.w3.org/1999/xlink" 
	 width="800px" height="800px" viewBox="0 0 512 512"  xml:space="preserve">
<style type="text/css">
<![CDATA[
	.st0{fill:#000000;}
]]>
</style>
<g>
	<path class="st0" d="M101,311.531c-29.688,0-53.875,24.156-53.875,53.875c0,29.688,24.188,53.859,53.875,53.859
		s53.844-24.172,53.844-53.859C154.844,335.688,130.688,311.531,101,311.531z M101,390.219c-13.703,0-24.813-11.125-24.813-24.813
		c0-13.719,11.109-24.813,24.813-24.813c13.688,0,24.813,11.094,24.813,24.813C125.813,379.094,114.688,390.219,101,390.219z"/>
	<path class="st0" d="M404.703,311.531c-29.703,0-53.859,24.156-53.859,53.875c0,29.688,24.156,53.859,53.859,53.859
		c29.719,0,53.859-24.172,53.859-53.859C458.563,335.688,434.422,311.531,404.703,311.531z M404.703,390.219
		c-13.703,0-24.797-11.125-24.797-24.813c0-13.719,11.094-24.813,24.797-24.813c13.719,0,24.828,11.094,24.828,24.813
		C429.531,379.094,418.422,390.219,404.703,390.219z"/>
	<path class="st0" d="M101,356.875c-4.703,0-8.5,3.813-8.5,8.531c0,4.688,3.797,8.5,8.5,8.5c4.688,0,8.5-3.813,8.5-8.5
		C109.5,360.688,105.688,356.875,101,356.875z"/>
	<path class="st0" d="M404.703,356.875c-4.703,0-8.516,3.813-8.516,8.531c0,4.688,3.813,8.5,8.516,8.5s8.516-3.813,8.516-8.5
		C413.219,360.688,409.406,356.875,404.703,356.875z"/>
	<path class="st0" d="M499,238.453l-65.625-105.266c-15.688-25.156-43.25-40.453-72.906-40.453H57.281
		C25.641,92.734,0,118.375,0,150v197.656c0,12.672,10.281,22.953,22.938,22.953h14.297c-0.141-1.734-0.234-3.453-0.234-5.203
		c0-35.281,28.719-64,64-64s63.984,28.719,63.984,64c0,1.75-0.109,3.469-0.234,5.203h124.656h51.563
		c-0.156-1.734-0.25-3.453-0.25-5.203c0-35.281,28.719-64,63.984-64c35.281,0,63.984,28.719,63.984,64
		c0,1.75-0.078,3.469-0.219,5.203h20.563c12.688,0,22.969-10.281,22.969-22.953v-63.75C512,267.828,507.5,252.094,499,238.453z
		 M121.219,205.25H25.531v-49.281c0-18.406,14.953-33.375,33.344-33.375h62.344V205.25z M260.75,205.25H155v-82.656h105.75V205.25z
		 M432.906,197.875c-2.531,4.547-7.313,7.375-12.516,7.375H302.406v-82.656h59.438c20.563,0,39.313,10.406,50.188,27.844
		l20.516,32.906C435.297,187.766,435.438,193.313,432.906,197.875z"/>
</g>
</svg>