<?xml version="1.0" encoding="utf-8"?>

<!DOCTYPE svg PUBLIC "-//W3C//DTD SVG 1.1//EN" "http://www.w3.org/Graphics/SVG/1.1/DTD/svg11.dtd">
<!-- Uploaded to: SVG Repo, www.svgrepo.com, Generator: SVG Repo Mixer Tools -->
<svg height="800px" width="800px" version="1.1" id="_x32_" xmlns="http://www.w3.org/2000/svg" xmlns:xlink="http://www.w3.org/1999/xlink" 
	 viewBox="0 0 512 512"  xml:space="preserve">
<style type="text/css">
	.st0{fill:#000000;}
</style>
<g>
	<path class="st0" d="M442.284,343.566c0,0,16.736-65.816,23.422-116.01c6.692-50.2-2.231-94.818-35.688-119.359
		C405.47,5.574,293.922,0,256.003,0C218.077,0,106.53,5.574,81.99,108.197c-33.464,24.541-42.388,69.159-35.703,119.359
		c6.693,50.194,23.428,116.01,23.428,116.01l-32.345,24.54l31.233,60.229H80.87l23.428,43.508l-7.812,12.274L147.799,512
		l10.043-12.274h98.162h98.155L364.201,512l51.312-27.884l-7.812-12.274l23.428-43.508h12.266l31.234-60.229L442.284,343.566z
		 M267.435,23.988l121.583,32.905l20.079,50.185L267.435,76.964V23.988z M365.313,224.206c0,60.374-48.944,109.317-109.31,109.317
		c-60.374,0-109.316-48.943-109.316-109.317c0-60.373,48.943-109.309,109.316-109.309
		C316.37,114.898,365.313,163.833,365.313,224.206z M359.74,374.793c0,0-80.315,30.128-103.736,53.542
		c-23.428-23.414-103.743-53.542-103.743-53.542H359.74z M122.982,56.893l121.584-32.905v52.976l-141.662,30.114L122.982,56.893z
		 M105.41,223.088c12.862-3.161,27.702,12.23,33.144,34.372c5.444,22.142-0.574,42.657-13.436,45.825
		c-12.863,3.154-27.702-12.237-33.144-34.372C86.538,246.764,92.556,226.256,105.41,223.088z M368.663,498.614l-8.924-12.274H152.26
		l-8.924,12.274l-31.234-16.736l15.617-21.19H384.28l15.616,21.19L368.663,498.614z M384.839,451.764H127.161l-36.248-84.776
		c0,0,120.471,33.465,165.09,76.972c44.612-43.507,165.084-76.972,165.084-76.972L384.839,451.764z M420.026,268.913
		c-5.443,22.135-20.282,37.526-33.144,34.372c-12.862-3.168-18.88-23.683-13.437-45.825c5.443-22.142,20.282-37.534,33.144-34.372
		C419.452,226.256,425.469,246.764,420.026,268.913z"/>
</g>
</svg>