<?xml version="1.0" encoding="utf-8"?>

<!DOCTYPE svg PUBLIC "-//W3C//DTD SVG 1.1//EN" "http://www.w3.org/Graphics/SVG/1.1/DTD/svg11.dtd">
<!-- Uploaded to: SVG Repo, www.svgrepo.com, Generator: SVG Repo Mixer Tools -->
<svg height="800px" width="800px" version="1.1" id="_x32_" xmlns="http://www.w3.org/2000/svg" xmlns:xlink="http://www.w3.org/1999/xlink" 
	 viewBox="0 0 512 512"  xml:space="preserve">
<style type="text/css">
	.st0{fill:#000000;}
</style>
<g>
	<path class="st0" d="M144.22,323.83c-28.184,0-51.02,22.836-51.02,51.02s22.836,51.02,51.02,51.02s51.02-22.836,51.02-51.02
		S172.404,323.83,144.22,323.83z M144.22,397.808c-12.683,0-22.958-10.275-22.958-22.958s10.275-22.958,22.958-22.958
		s22.958,10.275,22.958,22.958S156.902,397.808,144.22,397.808z"/>
	<path class="st0" d="M397.084,323.83c-28.184,0-51.021,22.836-51.021,51.02s22.837,51.02,51.021,51.02
		c28.184,0,51.02-22.836,51.02-51.02S425.267,323.83,397.084,323.83z M397.084,397.808c-12.683,0-22.958-10.275-22.958-22.958
		s10.275-22.958,22.958-22.958c12.682,0,22.958,10.275,22.958,22.958S409.766,397.808,397.084,397.808z"/>
	<path class="st0" d="M509.278,107.211c-2.633-6.216-6.981-11.467-12.497-15.179c-2.746-1.86-5.789-3.342-9.043-4.357
		c-3.244-1.006-6.707-1.546-10.258-1.546H166.42c-4.397,0-8.737,0.693-12.844,2.126c-3.076,1.064-6.015,2.545-8.737,4.413
		c-4.082,2.778-7.61,6.41-10.412,10.678c-2.698,4.09-4.711,8.729-6.056,13.786L97.87,200.933l-0.137,0.572
		c-0.386,1.514-0.878,2.81-1.458,3.978c-0.886,1.724-1.972,3.197-3.326,4.582c-1.353,1.377-2.987,2.666-4.888,3.881l-72.118,46.076
		C6.014,266.36,0,277.335,0,289.108v49.998c0,4.735,0.966,9.308,2.714,13.448c2.641,6.208,7.006,11.458,12.506,15.179
		c2.746,1.86,5.789,3.325,9.042,4.34c3.245,1.014,19.511,2.754,23.071,2.754h28.86c0.016-37.565,30.462-68.003,68.027-68.003
		c37.564,0,68.011,30.438,68.028,68.003h116.809c0.017-37.565,30.462-68.003,68.028-68.003c37.565,0,68.011,30.438,68.027,68.003
		h7.408c0-0.274-0.007-0.548-0.016-0.822h0.016l-0.016-0.008c0-0.121-0.008-0.242-0.008-0.363h4.984
		c4.735,0,9.309-0.974,13.44-2.722c6.217-2.641,11.458-6.989,15.179-12.498c1.868-2.754,3.342-5.789,4.348-9.043
		c1.015-3.245,1.554-6.716,1.554-10.267V120.642C512,115.908,511.026,111.342,509.278,107.211z"/>
</g>
</svg>