<?xml version="1.0" encoding="utf-8"?>

<!DOCTYPE svg PUBLIC "-//W3C//DTD SVG 1.1//EN" "http://www.w3.org/Graphics/SVG/1.1/DTD/svg11.dtd">
<!-- Uploaded to: SVG Repo, www.svgrepo.com, Generator: SVG Repo Mixer Tools -->
<svg height="800px" width="800px" version="1.1" id="_x32_" xmlns="http://www.w3.org/2000/svg" xmlns:xlink="http://www.w3.org/1999/xlink" 
	 viewBox="0 0 512 512"  xml:space="preserve">
<style type="text/css">
	.st0{fill:#000000;}
</style>
<g>
	<path class="st0" d="M114.158,138.621c0-6.432-5.211-11.644-11.643-11.644c-6.432,0-11.636,5.212-11.636,11.644v11.139h23.279
		V138.621z"/>
	<polygon class="st0" points="205.038,124.94 119.656,134.571 119.656,148.817 205.038,131.86 	"/>
	<polygon class="st0" points="85.382,134.571 0,124.94 0,131.86 85.382,148.817 	"/>
	<path class="st0" d="M421.12,138.621c0-6.432-5.211-11.644-11.643-11.644c-6.433,0-11.644,5.212-11.644,11.644v11.139h23.287
		V138.621z"/>
	<polygon class="st0" points="392.343,134.571 306.954,124.94 306.954,131.86 392.343,148.817 	"/>
	<polygon class="st0" points="426.618,134.571 426.618,148.817 512,131.86 512,124.94 	"/>
	<path class="st0" d="M387.477,155.367v48.824h-6.408v6.357h-73.341v-24.391c0-2.383-1.928-4.31-4.311-4.31
		c-2.383,0-4.311,1.928-4.311,4.31v24.391H256h-43.107v-24.391c0-2.383-1.928-4.31-4.311-4.31c-2.383,0-4.311,1.928-4.311,4.31
		v24.391h-73.349v-6.357h-6.408v-48.824H82.174c0,0-0.918,17.832-0.918,61.983c0,44.144,9.337,83.2,9.337,83.2h33.922v-53.918h6.408
		v-7.215l94.979,4.252l-3.982,15.492c-14.263,10.196-40.236,28.011-40.236,45.835c0,17.832,0,19.878,0,27.009
		c0,7.131,18.287,18.337,74.318,18.337s74.318-11.206,74.318-18.337c0-7.132,0-9.178,0-27.009c0-17.824-25.974-35.64-40.236-45.835
		l-3.982-15.492l94.97-4.252v7.215h6.408v53.918h33.93c0,0,9.329-39.057,9.329-83.2c0-44.151-0.918-61.983-0.918-61.983H387.477z
		 M248.186,311.623h-42.104c0-8.823,6.112-33.274,12.224-33.274c6.112,0,29.88,0,29.88,0V311.623z M293.694,278.349
		c6.112,0,12.224,24.45,12.224,33.274h-42.106v-33.274C263.813,278.349,287.581,278.349,293.694,278.349z"/>
	<path class="st0" d="M258.627,359.798h-5.263c-2.298,0-4.168,1.869-4.168,4.176v18.926c0,2.29,1.869,4.159,4.168,4.159h5.263
		c2.29,0,4.159-1.869,4.159-4.159v-18.926C262.786,361.667,260.917,359.798,258.627,359.798z"/>
	<path class="st0" d="M197.848,350.293h-5.262c-2.307,0-4.168,1.86-4.168,4.159v18.935c0,2.29,1.86,4.159,4.168,4.159h5.262
		c2.29,0,4.159-1.869,4.159-4.159v-18.935C202.006,352.153,200.138,350.293,197.848,350.293z"/>
	<path class="st0" d="M319.415,350.293h-5.263c-2.298,0-4.159,1.86-4.159,4.159v18.935c0,2.29,1.86,4.159,4.159,4.159h5.263
		c2.298,0,4.168-1.869,4.168-4.159v-18.935C323.583,352.153,321.714,350.293,319.415,350.293z"/>
</g>
</svg>