<?xml version="1.0" encoding="utf-8"?>

<!DOCTYPE svg PUBLIC "-//W3C//DTD SVG 1.1//EN" "http://www.w3.org/Graphics/SVG/1.1/DTD/svg11.dtd">
<!-- Uploaded to: SVG Repo, www.svgrepo.com, Generator: SVG Repo Mixer Tools -->
<svg version="1.1" id="_x32_" xmlns="http://www.w3.org/2000/svg" xmlns:xlink="http://www.w3.org/1999/xlink" 
	 width="800px" height="800px" viewBox="0 0 512 512"  xml:space="preserve">
<style type="text/css">
<![CDATA[
	.st0{fill:#000000;}
]]>
</style>
<g>
	<path class="st0" d="M113.313,284.883c-20.469,0-37.047,16.594-37.047,37.047s16.578,37.031,37.047,37.031
		c20.438,0,37.031-16.578,37.031-37.031S133.75,284.883,113.313,284.883z M113.313,338.477c-9.141,0-16.563-7.422-16.563-16.547
		c0-9.141,7.422-16.563,16.563-16.563c9.125,0,16.563,7.422,16.563,16.563C129.875,331.055,122.438,338.477,113.313,338.477z"/>
	<path class="st0" d="M381.469,284.883c-20.469,0-37.063,16.594-37.063,37.047s16.594,37.031,37.063,37.031
		c20.438,0,37.031-16.578,37.031-37.031S401.906,284.883,381.469,284.883z M381.469,338.477c-9.156,0-16.578-7.422-16.578-16.547
		c0-9.141,7.422-16.563,16.578-16.563c9.125,0,16.547,7.422,16.547,16.563C398.016,331.055,390.594,338.477,381.469,338.477z"/>
	<path class="st0" d="M484.141,255.57L375.938,208.68l-54.828-33.703c-20.219-12.438-43.391-19.234-67.109-19.766l-65.688-2.172
		c-71.094,0-112.844-0.266-139.109,30.875C17.375,221.664,0,241.648,0,266.367v49.25c0,7.406,6,13.391,13.375,13.391h54.688
		c-0.375-2.313-0.625-4.672-0.625-7.078c0-25.281,20.594-45.875,45.875-45.875s45.844,20.594,45.844,45.875
		c0,2.406-0.219,4.766-0.594,7.078h177.625c-0.344-2.313-0.594-4.672-0.594-7.078c0-25.281,20.578-45.875,45.875-45.875
		c25.281,0,45.844,20.594,45.844,45.875c0,2.406-0.25,4.766-0.609,7.078h71.906c7.391,0,13.391-5.984,13.391-13.391v-21.844
		C512,276.336,500.75,260.898,484.141,255.57z M111.719,229.914H47.188c-2.063,0-3.938-1.188-4.828-3.047
		c-0.891-1.875-0.609-4.078,0.703-5.688c0,0,7.813-9.984,18.438-22.563l2.141-2.531c10.672-12.672,25.641-18.688,48.078-21.563
		V229.914z M236.75,229.914H125.891v-56.75c16.109-1.109,35.406-1.25,58.922-1.25H188l48.75,1.609V229.914z M359,226.07
		c-0.656,2.281-2.75,3.844-5.125,3.844H250.906v-55.922l2.469,0.078c20.578,0.453,40.516,6.328,57.844,16.984l45.531,29
		C358.75,221.336,359.656,223.773,359,226.07z M491.563,292.133c0,1.469-1.219,2.656-2.688,2.656h-27.641
		c-0.953,0-1.844-0.5-2.328-1.328l-7.531-13.047c-0.969-1.641-0.969-3.703-0.016-5.359c0.953-1.641,2.734-2.672,4.641-2.672h24.484
		c0.828,0,1.609,0.391,2.109,1.031L491,284.336c0.359,0.469,0.563,1.047,0.563,1.641V292.133z"/>
</g>
</svg>