<?xml version="1.0" encoding="utf-8"?>

<!DOCTYPE svg PUBLIC "-//W3C//DTD SVG 1.1//EN" "http://www.w3.org/Graphics/SVG/1.1/DTD/svg11.dtd">
<!-- Uploaded to: SVG Repo, www.svgrepo.com, Generator: SVG Repo Mixer Tools -->
<svg height="800px" width="800px" version="1.1" id="_x32_" xmlns="http://www.w3.org/2000/svg" xmlns:xlink="http://www.w3.org/1999/xlink" 
	 viewBox="0 0 512 512"  xml:space="preserve">
<style type="text/css">
	.st0{fill:#000000;}
</style>
<g>
	<path class="st0" d="M266.822,237.206c-6.204,0-11.24,5.036-11.24,11.24c0,6.21,5.036,11.24,11.24,11.24
		c6.211,0,11.244-5.03,11.244-11.24C278.066,242.242,273.033,237.206,266.822,237.206z"/>
	<path class="st0" d="M332.392,248.446c-6.207,0-11.24,5.036-11.24,11.24c0,6.21,5.033,11.24,11.24,11.24
		c6.207,0,11.24-5.03,11.24-11.24C343.632,253.482,338.599,248.446,332.392,248.446z"/>
	<path class="st0" d="M397.959,259.686c-6.207,0-11.24,5.028-11.24,11.24c0,6.21,5.033,11.24,11.24,11.24
		c6.211,0,11.24-5.03,11.24-11.24C409.198,264.714,404.17,259.686,397.959,259.686z"/>
	<path class="st0" d="M292.473,184.783c0.259-5.786-4.238-10.699-10.035-10.954c-5.802-0.256-10.707,4.241-10.962,10.034
		c-0.256,5.802,4.237,10.707,10.038,10.962C287.308,195.081,292.217,190.584,292.473,184.783z"/>
	<path class="st0" d="M353.258,197.985c0.255-5.794-4.242-10.707-10.039-10.962c-5.798-0.255-10.703,4.242-10.962,10.035
		c-0.255,5.794,4.241,10.707,10.038,10.961C348.093,208.274,353.002,203.779,353.258,197.985z"/>
	<path class="st0" d="M414.042,211.172c0.252-5.794-4.241-10.7-10.042-10.954c-5.794-0.255-10.703,4.241-10.958,10.034
		c-0.26,5.794,4.241,10.708,10.034,10.954C408.874,221.469,413.78,216.974,414.042,211.172z"/>
	<path class="st0" d="M461.517,313.9v-70.654l-18.738-4.28v-54.469l-26.933-6.15v-55.404l-76.552-18.926
		c-16.717-4.125-33.828,5.183-39.444,21.46l-8.436,24.457l-62.968-14.384l-35.35,21.066l8.312,13.944l29.761-17.737l195.375,44.62
		v37.814l-279.053-63.732L121.471,196c-46.926-13.056-105.266-29.294-106.703-29.703c-11.901-3.167-15.442,8.142-14.666,14.338
		C19.175,332.85,114.313,408.957,114.313,408.957h369.058C509.501,387.156,512,322.212,512,322.212S491.664,318.898,461.517,313.9z
		 M93.587,281.083c-7.64,0-13.836-6.188-13.836-13.827c0-7.64,6.196-13.836,13.836-13.836s13.831,6.196,13.831,13.836
		C107.418,274.896,101.227,281.083,93.587,281.083z M179.884,212.254c0,0-17.034-4.736-40.124-11.163l12.557-11.811l292.962,66.907
		v55.018c-82.879-13.782-216.221-36.37-239.169-42.75C172.386,259.083,179.884,212.254,179.884,212.254z"/>
</g>
</svg>