<?xml version="1.0" encoding="utf-8"?>

<!DOCTYPE svg PUBLIC "-//W3C//DTD SVG 1.1//EN" "http://www.w3.org/Graphics/SVG/1.1/DTD/svg11.dtd">
<!-- Uploaded to: SVG Repo, www.svgrepo.com, Generator: SVG Repo Mixer Tools -->
<svg version="1.1" id="_x32_" xmlns="http://www.w3.org/2000/svg" xmlns:xlink="http://www.w3.org/1999/xlink" 
	 width="800px" height="800px" viewBox="0 0 512 512"  xml:space="preserve">
<style type="text/css">
<![CDATA[
	.st0{fill:#000000;}
]]>
</style>
<g>
	<path class="st0" d="M101.75,290.219c-23.188,0-42,18.797-42,42c0,23.188,18.813,42,42,42s41.984-18.813,41.984-42
		C143.734,309.016,124.938,290.219,101.75,290.219z M101.75,352.828c-11.359,0-20.609-9.25-20.609-20.609
		c0-11.375,9.25-20.609,20.609-20.609s20.609,9.234,20.609,20.609C122.359,343.578,113.109,352.828,101.75,352.828z"/>
	<path class="st0" d="M394.031,290.219c-23.188,0-42,18.797-42,42c0,23.188,18.813,42,42,42c23.219,0,42-18.813,42-42
		C436.031,309.016,417.25,290.219,394.031,290.219z M394.031,352.828c-11.359,0-20.594-9.25-20.594-20.609
		c0-11.375,9.234-20.609,20.594-20.609c11.375,0,20.625,9.234,20.625,20.609C414.656,343.578,405.406,352.828,394.031,352.828z"/>
	<path class="st0" d="M101.75,325.922c-3.484,0-6.313,2.813-6.313,6.297c0,3.469,2.828,6.297,6.313,6.297
		c3.469,0,6.297-2.828,6.297-6.297C108.047,328.734,105.219,325.922,101.75,325.922z"/>
	<path class="st0" d="M394.031,325.922c-3.469,0-6.297,2.813-6.297,6.297c0,3.469,2.828,6.297,6.297,6.297
		c3.5,0,6.313-2.828,6.313-6.297C400.344,328.734,397.531,325.922,394.031,325.922z"/>
	<path class="st0" d="M494.422,267.156l-67.984-36.047c0,0-110.156-93.328-213.875-93.328c-103.688,0-159.422,50.547-159.422,50.547
		l-44.047,39.75C3.297,233.313,0,240.734,0,248.547v76.203c0,9.125,7.406,16.531,16.531,16.531h31.547
		c-0.516-2.953-0.766-5.984-0.766-9.063c0-30.016,24.406-54.453,54.438-54.453s54.438,24.438,54.438,54.453
		c0,3.078-0.281,6.109-0.781,9.063h184.969c-0.5-2.953-0.766-5.984-0.766-9.063c0-30.016,24.406-54.453,54.422-54.453
		c30.031,0,54.438,24.438,54.438,54.453c0,3.078-0.266,6.109-0.766,9.063h47.766c9.125,0,16.531-7.406,16.531-16.531v-28.391
		C512,284.125,505.25,272.891,494.422,267.156z M197.672,173.438v56.047c0,3.047-2.484,5.516-5.516,5.516H57.359
		c-3.047,0-5.516-2.469-5.516-5.516v-11.344c0-1.563,0.656-3.031,1.813-4.078l12.516-11.297
		c0.422-0.375,40.656-35.391,114.547-43.75c5.469-0.609,10.984-0.906,10.984-0.906c1.531-0.109,3.047,0.406,4.188,1.453
		c1.125,1.047,1.781,2.516,1.781,4.063V173.438z M387.438,231.141c-0.719,2.297-2.844,3.859-5.281,3.859h-12.75H234.297
		c-3.047,0-5.531-2.469-5.531-5.516v-56.063v-9c0-1.609,0.703-3.125,1.906-4.172s2.813-1.516,4.391-1.297
		c0,0,4.875,0.453,10.438,1.484c45.656,8.453,90.469,32.172,122.375,52.516c13.141,8.359,17.422,12,17.422,12
		C387.281,226.313,388.156,228.813,387.438,231.141z M495.844,291.328c-1.625,3.422-8.031,3.688-17.531,1.609
		c-13.734-3-24.094-10.344-19.922-19.203s16.422-5.578,27.5,3.078C493.563,282.813,497.438,287.922,495.844,291.328z"/>
</g>
</svg>