<?xml version="1.0" encoding="utf-8"?>

<!DOCTYPE svg PUBLIC "-//W3C//DTD SVG 1.1//EN" "http://www.w3.org/Graphics/SVG/1.1/DTD/svg11.dtd">
<!-- Uploaded to: SVG Repo, www.svgrepo.com, Generator: SVG Repo Mixer Tools -->
<svg version="1.1" id="_x32_" xmlns="http://www.w3.org/2000/svg" xmlns:xlink="http://www.w3.org/1999/xlink" 
	 width="800px" height="800px" viewBox="0 0 512 512"  xml:space="preserve">
<style type="text/css">
<![CDATA[
	.st0{fill:#000000;}
]]>
</style>
<g>
	<path class="st0" d="M116.984,283.922c-25.516,0-46.203,20.672-46.203,46.203c0,25.5,20.688,46.188,46.203,46.188
		s46.203-20.688,46.203-46.188C163.188,304.594,142.5,283.922,116.984,283.922z M116.984,354.938
		c-13.672,0-24.813-11.141-24.813-24.813c0-13.688,11.141-24.813,24.813-24.813s24.797,11.125,24.797,24.813
		C141.781,343.797,130.656,354.938,116.984,354.938z"/>
	<path class="st0" d="M369.313,283.922c-25.531,0-46.203,20.672-46.203,46.203c0,25.5,20.672,46.188,46.203,46.188
		c25.5,0,46.188-20.688,46.188-46.188C415.5,304.594,394.813,283.922,369.313,283.922z M369.313,354.938
		c-13.688,0-24.813-11.141-24.813-24.813c0-13.688,11.125-24.813,24.813-24.813c13.672,0,24.813,11.125,24.813,24.813
		C394.125,343.797,382.984,354.938,369.313,354.938z"/>
	<path class="st0" d="M116.984,323.188c-3.828,0-6.938,3.094-6.938,6.938c0,3.813,3.109,6.938,6.938,6.938s6.922-3.125,6.922-6.938
		C123.906,326.281,120.813,323.188,116.984,323.188z"/>
	<path class="st0" d="M369.313,323.188c-3.828,0-6.938,3.094-6.938,6.938c0,3.813,3.109,6.938,6.938,6.938
		c3.813,0,6.938-3.125,6.938-6.938C376.25,326.281,373.125,323.188,369.313,323.188z"/>
	<path class="st0" d="M494.422,265.063l-67.984-36.031c0,0-110.156-93.344-213.875-93.344c-103.688,0-159.422,50.563-159.422,50.563
		L9.094,226C3.313,231.219,0,238.656,0,246.453v76.203c0,9.125,7.406,16.531,16.531,16.531H56.25v-17.5H17.5v-75.234
		c0-2.844,1.219-5.563,3.328-7.469l44.047-39.766c0.484-0.422,52.75-46.031,147.688-46.031c96.188,0,201.531,88.281,202.578,89.188
		c0.953,0.813,2,1.516,3.109,2.094l67.969,36.047c5.109,2.703,8.281,7.984,8.281,13.766v27.406h-64.438v17.5h65.406
		c9.125,0,16.531-7.406,16.531-16.531v-28.375C512,282.031,505.234,270.797,494.422,265.063z"/>
	<rect x="177.781" y="321.688" class="st0" width="130.266" height="17.5"/>
</g>
</svg>