<?xml version="1.0" encoding="utf-8"?>

<!DOCTYPE svg PUBLIC "-//W3C//DTD SVG 1.1//EN" "http://www.w3.org/Graphics/SVG/1.1/DTD/svg11.dtd">
<!-- Uploaded to: SVG Repo, www.svgrepo.com, Generator: SVG Repo Mixer Tools -->
<svg version="1.1" id="_x32_" xmlns="http://www.w3.org/2000/svg" xmlns:xlink="http://www.w3.org/1999/xlink" 
	 width="800px" height="800px" viewBox="0 0 512 512"  xml:space="preserve">
<style type="text/css">
<![CDATA[
	.st0{fill:#000000;}
]]>
</style>
<g>
	<path class="st0" d="M247.609,136.141c-0.109-2.641-2.859-4.703-6.172-4.703h-21.281c-3.328,0-6.063,2.063-6.188,4.703
		l-1.328,28.703h36.313L247.609,136.141z"/>
	<rect x="207.906" y="172.234" class="st0" width="45.766" height="10.609"/>
	<path class="st0" d="M205.672,278.938c-2.922,0-4.797,1.453-5.594,3.906c-0.422,1.281-0.578,2.969-0.578,7.625
		s0.156,6.375,0.578,7.641c0.797,2.453,2.672,3.922,5.594,3.922s4.797-1.469,5.594-3.922c0.422-1.266,0.578-2.984,0.578-7.641
		s-0.156-6.344-0.578-7.625C210.469,280.391,208.594,278.938,205.672,278.938z"/>
	<path class="st0" d="M174.875,279.344h-5.844c-0.203,0-0.313,0.109-0.313,0.313v8.938c0,0.203,0.109,0.313,0.313,0.313h5.844
		c3.234,0,5.188-1.875,5.188-4.75S178.109,279.344,174.875,279.344z"/>
	<path class="st0" d="M426.938,332.219c1.594,4.422,2.5,9.172,2.5,14.156c0,2.219-0.219,4.375-0.563,6.531h70.781
		c6.813,0,12.344-5.531,12.344-12.344v-8.344H426.938z"/>
	<path class="st0" d="M144.5,332.219c1.563,4.422,2.5,9.172,2.5,14.156c0,2.219-0.25,4.375-0.578,6.531h198.891
		c-0.344-2.156-0.563-4.313-0.563-6.531c0-4.984,0.906-9.734,2.5-14.156H144.5z"/>
	<path class="st0" d="M0,332.219v8.344c0,6.813,5.531,12.344,12.344,12.344h50.5c-0.328-2.156-0.563-4.313-0.563-6.531
		c0-4.984,0.906-9.734,2.5-14.156H0z"/>
	<path class="st0" d="M104.625,312.172c-18.875,0-34.188,15.313-34.188,34.203s15.313,34.188,34.188,34.188
		c18.906,0,34.219-15.297,34.219-34.188S123.531,312.172,104.625,312.172z M104.625,361.656c-8.406,0-15.281-6.859-15.281-15.281
		c0-8.438,6.875-15.313,15.281-15.313c8.438,0,15.281,6.875,15.281,15.313C119.906,354.797,113.063,361.656,104.625,361.656z"/>
	<path class="st0" d="M387.094,312.172c-18.875,0-34.203,15.313-34.203,34.203s15.328,34.188,34.203,34.188
		c18.891,0,34.203-15.297,34.203-34.188S405.984,312.172,387.094,312.172z M387.094,361.656c-8.422,0-15.297-6.859-15.297-15.281
		c0-8.438,6.875-15.313,15.297-15.313c8.438,0,15.297,6.875,15.297,15.313C402.391,354.797,395.531,361.656,387.094,361.656z"/>
	<path class="st0" d="M507.625,320.375c0-16.109-10.375-30.344-25.688-35.266l-99.922-43.313l-50.641-31.109
		c-18.688-11.484-40.047-17.781-61.969-18.281l-73.734-2c-26.563-0.563-52.641,7.453-74.313,22.859l-47.234,33.641l-29.781,3.938
		c-22.688,2.281-39.969,21.406-39.969,44.219v32.781h62.219c6.891-14.078,21.328-23.813,38.031-23.813s31.125,9.734,38.047,23.813
		h206.391c6.891-14.078,21.328-23.813,38.031-23.813c16.688,0,31.125,9.734,38.031,23.813h82.5V320.375z M107.031,250.531
		c-2.156,0-4.063-1.391-4.719-3.453c-0.641-2.047,0.094-4.266,1.859-5.516l24.766-17.656c18.813-13.375,40.969-20.453,64.031-20.453
		c0.813,0,1.625,0.016,2.422,0.031l40.672,1.109v45.938H107.031z M175.344,295.563h-6.313c-0.203,0-0.313,0.078-0.313,0.297v11.859
		c0,0.313-0.219,0.531-0.531,0.531h-6.625c-0.313,0-0.531-0.219-0.531-0.531v-34.484c0-0.328,0.219-0.516,0.531-0.516h13.781
		c7.719,0,12.391,4.656,12.391,11.438C187.734,290.844,183.031,295.563,175.344,295.563z M218.625,300.203
		c-1.828,5.734-6.75,8.609-12.953,8.609s-11.109-2.875-12.953-8.609c-0.781-2.469-1-4.453-1-9.734c0-5.266,0.219-7.25,1-9.719
		c1.844-5.734,6.75-8.609,12.953-8.609s11.125,2.875,12.953,8.609c0.797,2.469,1,4.453,1,9.719
		C219.625,295.75,219.422,297.734,218.625,300.203z M249.688,307.719c0,0.313-0.219,0.531-0.516,0.531h-23.156
		c-0.313,0-0.516-0.219-0.516-0.531v-34.484c0-0.328,0.203-0.516,0.516-0.516h6.641c0.313,0,0.516,0.188,0.516,0.516v27.844
		c0,0.234,0.109,0.313,0.328,0.313h15.672c0.297,0,0.516,0.203,0.516,0.547V307.719z M261.938,307.719
		c0,0.313-0.219,0.531-0.531,0.531h-6.625c-0.328,0-0.531-0.219-0.531-0.531v-34.484c0-0.328,0.203-0.516,0.531-0.516h6.625
		c0.313,0,0.531,0.188,0.531,0.516V307.719z M276.156,298.109c0.781,2.453,2.547,3.922,5.313,3.922c2.984,0,4.672-1.734,5.656-4.031
		c0.141-0.313,0.406-0.422,0.719-0.266l5.719,2.563c0.313,0.109,0.406,0.375,0.25,0.641c-1.984,4.953-6.375,7.875-12.375,7.875
		c-6.219,0-10.781-2.922-12.656-8.719c-0.781-2.297-1-4.125-1-9.625c0-5.469,0.219-7.313,1-9.594
		c1.875-5.813,6.438-8.734,12.656-8.734c6,0,10.391,2.922,12.375,7.891c0.156,0.25,0.063,0.516-0.25,0.625l-5.719,2.563
		c-0.313,0.156-0.578,0.031-0.719-0.266c-0.984-2.297-2.672-4.016-5.656-4.016c-2.766,0-4.531,1.453-5.313,3.906
		c-0.422,1.313-0.578,2.563-0.578,7.625C275.578,295.563,275.734,296.797,276.156,298.109z M322.625,278.828
		c0,0.313-0.219,0.516-0.531,0.516h-15.313c-0.219,0-0.297,0.109-0.297,0.313v7.063c0,0.203,0.078,0.313,0.297,0.313h12.75
		c0.313,0,0.531,0.219,0.531,0.531v5.531c0,0.313-0.219,0.531-0.531,0.531h-12.75c-0.219,0-0.297,0.094-0.297,0.313v7.375
		c0,0.203,0.078,0.281,0.297,0.281h15.313c0.313,0,0.531,0.219,0.531,0.531v5.594c0,0.313-0.219,0.531-0.531,0.531h-22.781
		c-0.313,0-0.531-0.219-0.531-0.531v-34.484c0-0.328,0.219-0.516,0.531-0.516h22.781c0.313,0,0.531,0.188,0.531,0.516V278.828z
		 M358.531,246.938c-0.594,2.125-2.547,3.594-4.75,3.594H250.578v-45.563l18.484,0.5c19.641,0.438,38.781,6.094,55.469,16.344
		l31.844,19.563C358.234,242.531,359.125,244.797,358.531,246.938z M488.75,316.672c0,1.359-1.094,2.484-2.469,2.484h-25.516
		c-0.875,0-1.703-0.484-2.141-1.25l-6.969-12.031c-0.875-1.547-0.875-3.422,0-4.969c0.875-1.531,2.5-2.453,4.281-2.453h22.594
		c0.781,0,1.5,0.344,1.969,0.953l7.75,10.063c0.328,0.438,0.5,0.969,0.5,1.5V316.672z"/>
</g>
</svg>