<?xml version="1.0" encoding="utf-8"?>

<!DOCTYPE svg PUBLIC "-//W3C//DTD SVG 1.1//EN" "http://www.w3.org/Graphics/SVG/1.1/DTD/svg11.dtd">
<!-- Uploaded to: SVG Repo, www.svgrepo.com, Generator: SVG Repo Mixer Tools -->
<svg version="1.1" id="_x32_" xmlns="http://www.w3.org/2000/svg" xmlns:xlink="http://www.w3.org/1999/xlink" 
	 width="800px" height="800px" viewBox="0 0 512 512"  xml:space="preserve">
<style type="text/css">
<![CDATA[
	.st0{fill:#000000;}
]]>
</style>
<g>
	<path class="st0" d="M109.656,310.813c-32.25,0-58.484,26.219-58.484,58.469s26.234,58.5,58.484,58.5s58.469-26.25,58.469-58.5
		S141.906,310.813,109.656,310.813z M109.656,396.234c-14.875,0-26.953-12.078-26.953-26.953s12.078-26.938,26.953-26.938
		s26.938,12.063,26.938,26.938S124.531,396.234,109.656,396.234z"/>
	<path class="st0" d="M395.5,310.813c-32.234,0-58.469,26.219-58.469,58.469s26.234,58.5,58.469,58.5c32.281,0,58.5-26.25,58.5-58.5
		S427.781,310.813,395.5,310.813z M395.5,396.234c-14.859,0-26.922-12.078-26.922-26.953s12.063-26.938,26.922-26.938
		c14.906,0,26.969,12.063,26.969,26.938S410.406,396.234,395.5,396.234z"/>
	<path class="st0" d="M109.656,360.047c-5.109,0-9.234,4.141-9.234,9.234c0,5.109,4.125,9.25,9.234,9.25
		c5.094,0,9.234-4.141,9.234-9.25C118.891,364.188,114.75,360.047,109.656,360.047z"/>
	<path class="st0" d="M395.5,360.047c-5.094,0-9.219,4.141-9.219,9.234c0,5.109,4.125,9.25,9.219,9.25
		c5.125,0,9.266-4.141,9.266-9.25C404.766,364.188,400.625,360.047,395.5,360.047z"/>
	<path class="st0" d="M497.875,242.438l-71.234-114.281c-17.031-27.328-46.953-43.938-79.172-43.938H62.188
		C27.844,84.219,0,112.063,0,146.406v203.609c0,13.766,11.156,24.922,24.906,24.922h15.531c-0.156-1.875-0.25-3.75-0.25-5.656
		c0-38.281,31.156-69.469,69.469-69.469s69.469,31.188,69.469,69.469c0,1.906-0.109,3.781-0.25,5.656h91.469h55.969
		c-0.156-1.875-0.266-3.75-0.266-5.656c0-38.281,31.172-69.469,69.453-69.469c38.313,0,69.484,31.188,69.484,69.469
		c0,1.906-0.094,3.781-0.234,5.656h22.313c13.781,0,24.938-11.156,24.938-24.922v-58.234
		C512,274.328,507.094,257.234,497.875,242.438z M201.719,205.875h-40.094v41.781h-25.828v-41.781H95.688v-23.703h106.031V205.875z
		 M201.719,162.219H95.688v-23.703h106.031V162.219z M426.719,210.422c-2.188,3.953-6.344,6.406-10.875,6.406H296.438
		c-6.875,0-12.438-5.578-12.438-12.438v-74.828c0-6.859,5.563-12.438,12.438-12.438H336.5c24.813,0,47.438,12.563,60.563,33.594
		l29.344,47.094C428.781,201.656,428.922,206.484,426.719,210.422z"/>
</g>
</svg>