<?xml version="1.0" encoding="utf-8"?>

<!DOCTYPE svg PUBLIC "-//W3C//DTD SVG 1.1//EN" "http://www.w3.org/Graphics/SVG/1.1/DTD/svg11.dtd">
<!-- Uploaded to: SVG Repo, www.svgrepo.com, Generator: SVG Repo Mixer Tools -->
<svg version="1.1" id="_x32_" xmlns="http://www.w3.org/2000/svg" xmlns:xlink="http://www.w3.org/1999/xlink" 
	 width="800px" height="800px" viewBox="0 0 512 512"  xml:space="preserve">
<style type="text/css">
<![CDATA[
	.st0{fill:#000000;}
]]>
</style>
<g>
	<path class="st0" d="M483.149,157.531l-193.953-11.844v-33.594c0-9.781-7.922-17.719-17.703-17.719h-30.984
		c-9.797,0-17.703,7.938-17.703,17.719v33.281L28.853,157.531c-15.625,1.078-27.984,13.641-28.813,29.281
		c-0.828,15.625,10.141,29.438,25.563,32.156l190.703,34.344c7.359,1.313,12.828,7.531,13.156,15l3.797,84.406
		c0.188,4.016-2.375,7.656-6.203,8.844l-53.859,16.719c-8.781,2.719-14.469,11.219-13.625,20.375s7.969,16.469,17.109,17.563
		l70.203,5.875v13.25c0,5.031,4.078,9.094,9.109,9.094c5.047,0,9.125-4.063,9.125-9.094v-13.25l70.203-5.875
		c9.125-1.094,16.266-8.406,17.109-17.563s-4.844-17.656-13.625-20.375l-53.844-16.719c-3.844-1.188-6.422-4.828-6.219-8.844
		l3.781-84.406c0.344-7.469,5.813-13.688,13.156-15l190.719-34.344c15.422-2.719,26.375-16.531,25.563-32.156
		C511.134,171.172,498.759,158.609,483.149,157.531z"/>
	<path class="st0" d="M267.243,78.797c0-6.203-5.031-11.234-11.25-11.234c-6.203,0-11.25,5.031-11.25,11.234v6.563h22.5V78.797z"/>
	<path class="st0" d="M191.353,83.016h44.047c1.797,0,3.266-1.469,3.266-3.281c0-1.797-1.469-3.281-3.266-3.281h-44.047
		c-1.813,0-3.281,1.484-3.281,3.281C188.071,81.547,189.54,83.016,191.353,83.016z"/>
	<path class="st0" d="M276.603,83.016h44.047c1.813,0,3.281-1.469,3.281-3.281c0-1.797-1.469-3.281-3.281-3.281h-44.047
		c-1.797,0-3.266,1.484-3.266,3.281C273.337,81.547,274.806,83.016,276.603,83.016z"/>
</g>
</svg>