<?xml version="1.0" encoding="utf-8"?>

<!DOCTYPE svg PUBLIC "-//W3C//DTD SVG 1.1//EN" "http://www.w3.org/Graphics/SVG/1.1/DTD/svg11.dtd">
<!-- Uploaded to: SVG Repo, www.svgrepo.com, Generator: SVG Repo Mixer Tools -->
<svg version="1.1" id="_x32_" xmlns="http://www.w3.org/2000/svg" xmlns:xlink="http://www.w3.org/1999/xlink" 
	 width="800px" height="800px" viewBox="0 0 512 512"  xml:space="preserve">
<style type="text/css">
<![CDATA[
	.st0{fill:#000000;}
]]>
</style>
<g>
	<path class="st0" d="M475.656,157.273c-21.375-5.531-43.781,4.109-54.484,23.438l-24.984,45.125
		c-4.25,7.703-12.813,11.969-21.531,10.75c0,0-69-12.438-79.531-19.016c-9.188-6.563-31.547-43.391-80.188-43.391
		s-73.609,40.766-73.609,40.766H91.375H59.813c-18.141,0-32.859,14.719-32.859,32.859v28.938c0,18.141,14.719,32.859,32.859,32.859
		h31.563h369.938c28,0,50.688-22.688,50.688-50.672v-54.75C512,182.086,497.063,162.789,475.656,157.273z"/>
	<path class="st0" d="M0,262.273c0,9.438,7.656,17.094,17.094,17.094V245.18C7.656,245.18,0,252.836,0,262.273z"/>
	<path class="st0" d="M10.516,234.664c3.266,0,5.922-2.641,5.922-5.922v-55.203c0-3.281-2.656-5.922-5.922-5.922
		s-5.922,2.641-5.922,5.922v55.203C4.594,232.023,7.25,234.664,10.516,234.664z"/>
	<path class="st0" d="M10.516,289.227c-3.266,0-5.922,2.641-5.922,5.906v55.219c0,3.266,2.656,5.922,5.922,5.922
		s5.922-2.656,5.922-5.922v-55.219C16.438,291.867,13.781,289.227,10.516,289.227z"/>
</g>
</svg>