<?xml version="1.0" encoding="utf-8"?>

<!DOCTYPE svg PUBLIC "-//W3C//DTD SVG 1.1//EN" "http://www.w3.org/Graphics/SVG/1.1/DTD/svg11.dtd">
<!-- Uploaded to: SVG Repo, www.svgrepo.com, Generator: SVG Repo Mixer Tools -->
<svg height="800px" width="800px" version="1.1" id="_x32_" xmlns="http://www.w3.org/2000/svg" xmlns:xlink="http://www.w3.org/1999/xlink" 
	 viewBox="0 0 512 512"  xml:space="preserve">
<style type="text/css">
	.st0{fill:#000000;}
</style>
<g>
	<path class="st0" d="M489.402,361.071c-13.91-13.937-33.297-22.607-54.556-22.589c-2.117,0-4.217,0.096-6.308,0.272
		c-3.788-16.054-7.637-32.205-10.901-45.599c-1.81-7.436-3.438-14.015-4.777-19.29c-0.683-2.642-1.278-4.952-1.803-6.894
		c-0.525-1.951-0.953-3.508-1.347-4.768c-8.608-27.76-18.818-51.416-30.926-71.582c-18.119-30.244-40.673-52.588-67.619-68.458
		c-22.65-13.394-48.258-22.195-76.857-28.101l5.127-27.104c3.088-16.377,17.402-28.24,34.059-28.232h46.315V15.989h-46.315
		c-27.585,0-51.277,19.623-56.403,46.734l-13.762,72.789c-7.331-0.909-14.785-1.434-22.37-1.425
		c-49.904-0.009-95.257,20.288-127.95,53.008C20.28,219.78-0.008,265.133,0,315.054c-0.008,49.919,20.28,95.272,53.008,127.949
		c32.694,32.729,78.047,53.017,127.95,53.008c49.919,0.009,95.272-20.28,127.966-53.008c32.712-32.677,53.008-78.03,53.008-127.949
		c0-49.92-20.297-95.274-53.008-127.958c-22.598-22.616-51.232-39.282-83.235-47.418l4.401-23.315
		c16.063,3.342,30.796,7.602,44.295,13.027c26.779,10.787,48.721,25.948,67.364,48.161c18.626,22.231,33.962,51.793,46.237,91.38
		c0.236,0.753,0.63,2.153,1.112,3.946c1.82,6.78,4.942,19.387,8.548,34.321c2.738,11.338,5.756,24.059,8.757,36.718
		c-9.869,3.919-18.748,9.79-26.106,17.156c-13.936,13.91-22.606,33.289-22.589,54.548c-0.017,21.26,8.653,40.63,22.589,54.548
		c13.919,13.928,33.29,22.607,54.549,22.589c21.259,0.018,40.646-8.661,54.556-22.589c13.937-13.919,22.607-33.288,22.598-54.548
		C512.009,394.36,503.339,374.982,489.402,361.071z M283.659,212.353c26.307,26.342,42.528,62.536,42.536,102.701
		c-0.009,40.156-16.23,76.34-42.536,102.683c-26.342,26.316-62.535,42.536-102.7,42.544c-40.157-0.009-76.35-16.228-102.684-42.544
		C51.958,391.394,35.739,355.21,35.73,315.054c0.009-40.166,16.228-76.359,42.544-102.701
		c26.334-26.307,62.527-42.528,102.684-42.537c5.319,0,10.568,0.306,15.73,0.866l-21.565,114.083
		c-14.252,2.721-25.013,15.24-25.013,30.288c0,17.042,13.805,30.856,30.848,30.856c17.042,0,30.865-13.814,30.865-30.856
		c0-10.971-5.74-20.577-14.365-26.054l21.574-114.118C243.826,181.601,265.969,194.689,283.659,212.353z M468.729,449.495
		c-8.722,8.687-20.603,14.024-33.883,14.042c-13.28-0.018-25.153-5.354-33.875-14.042c-8.688-8.722-14.016-20.603-14.034-33.876
		c0.018-13.28,5.346-25.169,14.034-33.874c3.586-3.569,7.725-6.544,12.248-8.836c0.525,2.231,1.05,4.462,1.549,6.605
		c1.977,8.469,3.753,16.098,5.205,22.309c-3.359,3.622-5.424,8.469-5.424,13.796c0,11.207,9.09,20.298,20.297,20.298
		c11.216,0,20.296-9.09,20.296-20.298c0-8.652-5.406-16.018-13.018-18.931c-1.82-7.813-4.164-17.856-6.763-28.95
		c13.071,0.14,24.759,5.416,33.368,14.007c8.696,8.705,14.033,20.594,14.033,33.874
		C482.762,428.891,477.425,440.772,468.729,449.495z"/>
	<path class="st0" d="M327.219,101.201l60.681,6.229c3.56,0.376,6.806-2.082,7.41-5.617l2.555-14.802
		c0.341-1.986-0.218-4.007-1.514-5.556c-1.286-1.531-3.184-2.423-5.205-2.423h-63.227c-3.771,0-6.825,3.053-6.825,6.815v8.566
		C321.094,97.92,323.745,100.841,327.219,101.201z"/>
</g>
</svg>