<?xml version="1.0" encoding="utf-8"?>

<!DOCTYPE svg PUBLIC "-//W3C//DTD SVG 1.1//EN" "http://www.w3.org/Graphics/SVG/1.1/DTD/svg11.dtd">
<!-- Uploaded to: SVG Repo, www.svgrepo.com, Generator: SVG Repo Mixer Tools -->
<svg height="800px" width="800px" version="1.1" id="_x32_" xmlns="http://www.w3.org/2000/svg" xmlns:xlink="http://www.w3.org/1999/xlink" 
	 viewBox="0 0 512 512"  xml:space="preserve">
<style type="text/css">
	.st0{fill:#000000;}
</style>
<g>
	<path class="st0" d="M439.171,279.216c-8.326-16.636-25.324-27.158-43.935-27.158h-86.568
		c26.553-45.384,24.048-113.563,20.952-145.847l166.914-46.408l-7.426-26.725L15.467,164.785l7.418,26.709l273.869-76.146
		c4.364,83.891-45.433,124.977-71.175,136.71H123.25c-18.619,0-35.624,10.522-43.936,27.158l-19.748,39.465
		c-12.208,24.432-17.383,51.771-14.976,78.962l6.19,69.579C53.041,492.562,74.271,512,99.71,512h319.058
		c25.447,0,46.677-19.438,48.929-44.778l6.173-69.579c2.432-27.191-2.751-54.53-14.967-78.962L439.171,279.216z M179.523,383.772
		H78.741c0.115-17.178,4.102-34.126,11.831-49.584l19.741-39.464c2.465-4.929,7.418-8.008,12.937-8.008h56.274V383.772z
		 M313.531,383.772H204.946v-97.056h108.585V383.772z M338.953,383.772v-97.056h56.282c5.518,0,10.464,3.078,12.937,8.008
		l19.732,39.464c7.73,15.458,11.7,32.406,11.839,49.584H338.953z"/>
	<path class="st0" d="M253.687,83.4c15.942,0,28.878-12.928,28.878-28.878c0-15.941-12.936-28.878-28.878-28.878
		c-15.949,0-28.886,12.937-28.886,28.878C224.801,70.472,237.738,83.4,253.687,83.4z"/>
	<path class="st0" d="M340.329,57.756c15.949,0,28.886-12.937,28.886-28.886c0-15.95-12.937-28.87-28.886-28.87
		c-15.958,0-28.886,12.92-28.886,28.87C311.443,44.819,324.372,57.756,340.329,57.756z"/>
</g>
</svg>