<?xml version="1.0" encoding="utf-8"?>

<!DOCTYPE svg PUBLIC "-//W3C//DTD SVG 1.1//EN" "http://www.w3.org/Graphics/SVG/1.1/DTD/svg11.dtd">
<!-- Uploaded to: SVG Repo, www.svgrepo.com, Generator: SVG Repo Mixer Tools -->
<svg height="800px" width="800px" version="1.1" id="_x32_" xmlns="http://www.w3.org/2000/svg" xmlns:xlink="http://www.w3.org/1999/xlink" 
	 viewBox="0 0 512 512"  xml:space="preserve">
<style type="text/css">
	.st0{fill:#000000;}
</style>
<g>
	<path class="st0" d="M367.083,217.369h-92.131l12.775-32.846c5.436-13.998,8.244-28.884,8.244-43.916v-38.041l154.595-29.453
		l-6.599-34.665L61.434,111.326l6.598,34.664l192.654-36.698v31.314c0,10.647-1.981,21.191-5.849,31.124l-17.746,45.639h-86.058
		c-41.427,0-75.014,33.579-75.014,75.014V466.99c0,24.861,20.15,45.01,45.011,45.01h276.058c24.861,0,45.01-20.149,45.01-45.01
		V292.384C442.097,250.948,408.51,217.369,367.083,217.369z M406.812,466.99c0,5.367-4.358,9.725-9.725,9.725H121.03
		c-5.367,0-9.726-4.358-9.726-9.725V292.384c0-21.906,17.823-39.73,39.73-39.73h216.05c21.907,0,39.73,17.823,39.73,39.73V466.99z"
		/>
	<path class="st0" d="M190.426,69.692c11.484-2.189,19.012-13.275,16.833-24.758c-2.197-11.483-13.266-19.012-24.758-16.824
		c-11.5,2.196-19.029,13.266-16.842,24.758C167.849,64.351,178.935,71.88,190.426,69.692z"/>
	<path class="st0" d="M263.21,55.823c11.492-2.196,19.029-13.266,16.841-24.758c-2.188-11.474-13.284-19.012-24.766-16.824
		c-11.484,2.188-19.021,13.274-16.842,24.766C240.631,50.482,251.719,58.011,263.21,55.823z"/>
	<path class="st0" d="M335.994,41.954c11.491-2.188,19.029-13.258,16.841-24.75C350.638,5.721,339.56-1.816,328.068,0.381
		c-11.483,2.179-19.012,13.257-16.832,24.749C313.432,36.613,324.51,44.142,335.994,41.954z"/>
	<path class="st0" d="M199.722,307.752c10.682,0,19.338-8.666,19.338-19.348c0-10.682-8.657-19.339-19.338-19.339
		c-10.691,0-19.348,8.657-19.348,19.339C180.374,299.086,189.031,307.752,199.722,307.752z"/>
	<path class="st0" d="M216.477,316.909h-16.954h-16.962c-9.372,0-19.563,10.191-19.563,19.564v47.362
		c0,4.686,3.798,8.494,8.485,8.494c2.3,0,0,0,5.918,0l3.222,57.2c0,4.988,4.049,9.028,9.036,9.028c2.102,0,5.979,0,9.864,0
		c3.876,0,7.753,0,9.864,0c4.979,0,9.028-4.04,9.028-9.028l3.222-57.2c5.927,0,3.618,0,5.927,0c4.687,0,8.476-3.808,8.476-8.494
		v-47.362C236.04,327.1,225.85,316.909,216.477,316.909z"/>
	<path class="st0" d="M318.808,307.752c10.681,0,19.338-8.666,19.338-19.348c0-10.682-8.657-19.339-19.338-19.339
		c-10.692,0-19.349,8.657-19.349,19.339C299.46,299.086,308.117,307.752,318.808,307.752z"/>
	<path class="st0" d="M335.563,316.909H318.61h-16.962c-9.372,0-19.562,10.191-19.562,19.564v47.362
		c0,4.686,3.798,8.494,8.485,8.494c2.3,0,0,0,5.918,0l3.221,57.2c0,4.988,4.049,9.028,9.036,9.028c2.102,0,5.979,0,9.864,0
		c3.876,0,7.753,0,9.864,0c4.978,0,9.028-4.04,9.028-9.028l3.221-57.2c5.927,0,3.618,0,5.927,0c4.686,0,8.476-3.808,8.476-8.494
		v-47.362C355.126,327.1,344.936,316.909,335.563,316.909z"/>
</g>
</svg>