<?xml version="1.0" encoding="utf-8"?>

<!DOCTYPE svg PUBLIC "-//W3C//DTD SVG 1.1//EN" "http://www.w3.org/Graphics/SVG/1.1/DTD/svg11.dtd">
<!-- Uploaded to: SVG Repo, www.svgrepo.com, Generator: SVG Repo Mixer Tools -->
<svg version="1.1" id="_x32_" xmlns="http://www.w3.org/2000/svg" xmlns:xlink="http://www.w3.org/1999/xlink" 
	 width="800px" height="800px" viewBox="0 0 512 512"  xml:space="preserve">
<style type="text/css">
<![CDATA[
	.st0{fill:#000000;}
]]>
</style>
<g>
	<path class="st0" d="M95.922,293.234c-25.641,0-46.516,20.859-46.516,46.5s20.875,46.5,46.516,46.5s46.5-20.859,46.5-46.5
		S121.563,293.234,95.922,293.234z M95.922,361.156c-11.828,0-21.422-9.578-21.422-21.422c0-11.828,9.594-21.422,21.422-21.422
		s21.422,9.594,21.422,21.422C117.344,351.578,107.75,361.156,95.922,361.156z"/>
	<path class="st0" d="M419.375,293.234c-25.656,0-46.5,20.859-46.5,46.5s20.844,46.5,46.5,46.5s46.5-20.859,46.5-46.5
		S445.031,293.234,419.375,293.234z M419.375,361.156c-11.828,0-21.438-9.578-21.438-21.422c0-11.828,9.609-21.422,21.438-21.422
		c11.844,0,21.438,9.594,21.438,21.422C440.813,351.578,431.219,361.156,419.375,361.156z"/>
	<path class="st0" d="M95.922,332.391c-4.063,0-7.344,3.281-7.344,7.344s3.281,7.344,7.344,7.344s7.328-3.281,7.328-7.344
		S99.984,332.391,95.922,332.391z"/>
	<path class="st0" d="M419.375,332.391c-4.063,0-7.344,3.281-7.344,7.344s3.281,7.344,7.344,7.344s7.344-3.281,7.344-7.344
		S423.438,332.391,419.375,332.391z"/>
	<path class="st0" d="M487.938,218.969l-54.422-7.391c-1.125-0.109-2.047-0.953-2.234-2.078l-22.891-65.609
		c-5.922-15.219-19.063-18.125-38.547-18.125H39.625C17.75,125.766,0,143.5,0,165.391v159.016c0,10.953,8.875,19.813,19.813,19.813
		h21.063c-0.125-1.484-0.203-2.969-0.203-4.484c0-30.453,24.797-55.234,55.25-55.234s55.234,24.781,55.234,55.234
		c0,1.516-0.078,3-0.203,4.484h168.875h44.516c-0.125-1.484-0.203-2.969-0.203-4.484c0-30.453,24.766-55.234,55.234-55.234
		s55.25,24.781,55.25,55.234c0,1.516-0.094,3-0.203,4.484h17.766c10.938,0,19.813-8.859,19.813-19.813v-76.25
		C512,233.922,501.906,221.688,487.938,218.969z M87.313,213.156H20.969v-47.766c0-10.281,8.375-18.656,18.656-18.656h47.688
		V213.156z M193.047,213.156h-86.516v-66.422h86.516V213.156z M298.781,213.156h-86.5v-66.422h86.5V213.156z M318.016,213.156
		v-66.422h51.828c13.625,0,17.047,1.594,18.313,3.359l22.438,62.781c0.016,0.094,0.047,0.188,0.063,0.281H318.016z"/>
</g>
</svg>