<?xml version="1.0" encoding="utf-8"?>

<!DOCTYPE svg PUBLIC "-//W3C//DTD SVG 1.1//EN" "http://www.w3.org/Graphics/SVG/1.1/DTD/svg11.dtd">
<!-- Uploaded to: SVG Repo, www.svgrepo.com, Generator: SVG Repo Mixer Tools -->
<svg version="1.1" id="_x32_" xmlns="http://www.w3.org/2000/svg" xmlns:xlink="http://www.w3.org/1999/xlink" 
	 viewBox="0 0 512 512"  xml:space="preserve">
<style type="text/css">
	.st0{fill:#000000;}
</style>
<g>
	<path class="st0" d="M509.186,101.143l-0.022-0.036c-3.18-4.81-8.55-7.703-14.33-7.703h-30.391
		c-13.519,0-26.098,6.928-33.328,18.365l-39.997,63.338c-2.37,3.755-6.49,6.024-10.942,6.031H169.468
		c-69.162,0.007-125.22,56.065-125.227,125.227c0.006,69.168,56.065,125.212,125.227,125.219
		c43.544,0.036,75.594-9.693,99.086-25.344c17.612-11.696,30.132-26.508,39.286-41.721c13.721-22.832,20.354-46.653,26.687-64.236
		c3.102-8.78,6.182-15.939,9.125-20.268c1.458-2.183,2.815-3.633,3.963-4.53c1.142-0.876,2.039-1.292,3.253-1.594l82.343-14.008
		c10.518-1.788,19.421-8.766,23.664-18.559l53.711-123.942l0.015-0.036c0.933-2.168,1.4-4.48,1.4-6.785
		C512,107.267,511.052,103.993,509.186,101.143z M432.593,230.799c-0.682,1.573-2.132,2.707-3.812,2.995l-83.334,14.172
		l-0.352,0.079c-4.595,1.034-8.866,3.023-12.478,5.615c-6.821,4.918-11.301,11.466-14.919,18.372
		c-6.268,12.148-10.339,26.299-15.58,41.032c-7.783,22.113-17.705,44.901-36.544,62.032c-9.455,8.594-21.201,15.968-36.745,21.345
		c-15.53,5.363-34.922,8.68-59.361,8.68c-27.312-0.007-51.916-11.035-69.83-28.927c-17.899-17.913-28.927-42.518-28.933-69.828
		c0.006-27.312,11.034-51.916,28.933-69.837c17.913-17.892,42.518-28.92,69.83-28.926h210.707c13.512,0,26.105-6.914,33.328-18.373
		l39.991-63.331c2.368-3.755,6.504-6.031,10.948-6.031h16.226L432.593,230.799z"/>
	<polygon class="st0" points="152.028,84.708 0,80.415 0,108.487 152.028,104.201 	"/>
	<polygon class="st0" points="368.903,80.415 215.13,84.708 215.13,104.201 368.903,108.487 	"/>
	<rect x="174.716" y="84.708" class="st0" width="19.478" height="84.634"/>
</g>
</svg>