<?xml version="1.0" encoding="utf-8"?>

<!DOCTYPE svg PUBLIC "-//W3C//DTD SVG 1.1//EN" "http://www.w3.org/Graphics/SVG/1.1/DTD/svg11.dtd">
<!-- Uploaded to: SVG Repo, www.svgrepo.com, Generator: SVG Repo Mixer Tools -->
<svg version="1.1" id="_x32_" xmlns="http://www.w3.org/2000/svg" xmlns:xlink="http://www.w3.org/1999/xlink" 
	 viewBox="0 0 512 512"  xml:space="preserve">
<style type="text/css">
	.st0{fill:#000000;}
</style>
<g>
	<path class="st0" d="M469.378,345.608V241.391c0-24.306-19.706-44.02-44.021-44.02h-4.861v-68.066l22.992-53.431h-74.755l23,53.448
		v68.049h-45.276v-25.157H313.38v25.157h-31.627v-69.295c0-18.906-15.324-34.231-34.239-34.231H64.843H46.957H18.632
		C8.341,93.844,0,102.185,0,112.48c0,10.286,8.341,18.627,18.632,18.627h1.423v234.628c0,9.462,7.667,17.12,17.12,17.12h3.522
		v-0.076c0-37.019,30.128-67.138,67.156-67.138c33.321,0,60.981,24.432,66.178,56.304c5.207-31.872,32.874-56.304,66.221-56.304
		c33.33,0,60.997,24.441,66.186,56.338c5.19-31.897,32.858-56.338,66.196-56.338c37.028,0,67.147,30.119,67.147,67.138l-0.008,0.051
		h0.008v32.975H512v-27.583L469.378,345.608z M155.21,218.222H57.11v-78.707c0-2.477,2.038-4.49,4.549-4.49h93.552V218.222z
		 M243.251,218.222h-64.316v-83.197h53.524c5.948,0,10.792,4.777,10.792,10.649V218.222z"/>
	<rect x="479.808" y="240.506" class="st0" width="20.49" height="99.213"/>
	<path class="st0" d="M346.457,149.205c0-6.748-5.476-12.225-12.225-12.225h-8.627c-6.748,0-12.225,5.477-12.225,12.225v12.941
		h33.077V149.205z"/>
	<path class="st0" d="M372.634,329.441c-27.55,0-50.2,20.877-53.036,47.66h-26.319c-2.836-26.783-25.494-47.66-53.027-47.66
		c-27.55,0-50.222,20.877-53.061,47.66H160.88c-2.835-26.783-25.494-47.66-53.027-47.66c-29.47,0-53.356,23.884-53.356,53.338
		c0,29.47,23.885,53.347,53.356,53.347c26.484,0,48.406-19.327,52.568-44.644h27.229c4.166,25.317,26.1,44.644,52.602,44.644
		c26.484,0,48.406-19.327,52.567-44.644h27.239c4.162,25.317,26.075,44.644,52.576,44.644c29.454,0,53.347-23.877,53.347-53.347
		C425.981,353.325,402.088,329.441,372.634,329.441z M107.844,397.877c5.092,0,9.571-2.536,12.305-6.394h13.615
		c-3.661,10.868-13.83,18.762-25.911,18.762c-15.148,0-27.474-12.317-27.474-27.466c0-15.14,12.326-27.457,27.474-27.457
		c13.194,0,24.226,9.36,26.85,21.778h-12.886c-2.249-5.51-7.645-9.419-13.972-9.419c-8.341,0-15.098,6.774-15.098,15.098
		C92.747,391.12,99.504,397.877,107.844,397.877z M240.252,410.245c-12.094,0-22.276-7.894-25.941-18.762h13.62
		c2.733,3.859,7.211,6.394,12.304,6.394c5.094,0,9.571-2.536,12.305-6.394h13.623C262.502,402.351,252.334,410.245,240.252,410.245z
		 M254.207,377.101c-2.249-5.51-7.645-9.419-13.972-9.419c-6.327,0-11.724,3.909-13.968,9.419h-12.898
		c2.629-12.418,13.678-21.778,26.884-21.778c13.194,0,24.226,9.36,26.85,21.778H254.207z M372.634,410.245
		c-12.086,0-22.254-7.894-25.92-18.762h13.615c2.734,3.859,7.212,6.394,12.305,6.394c8.341,0,15.098-6.757,15.098-15.098
		c0-8.324-6.757-15.098-15.098-15.098c-6.327,0-11.723,3.909-13.968,9.419h-12.891c2.624-12.418,13.665-21.778,26.859-21.778
		c15.144,0,27.466,12.317,27.466,27.457C400.099,397.928,387.778,410.245,372.634,410.245z"/>
</g>
</svg>