<?xml version="1.0" encoding="utf-8"?>

<!DOCTYPE svg PUBLIC "-//W3C//DTD SVG 1.1//EN" "http://www.w3.org/Graphics/SVG/1.1/DTD/svg11.dtd">
<!-- Uploaded to: SVG Repo, www.svgrepo.com, Generator: SVG Repo Mixer Tools -->
<svg height="800px" width="800px" version="1.1" id="_x32_" xmlns="http://www.w3.org/2000/svg" xmlns:xlink="http://www.w3.org/1999/xlink" 
	 viewBox="0 0 512 512"  xml:space="preserve">
<style type="text/css">
	.st0{fill:#000000;}
</style>
<g>
	<path class="st0" d="M417.729,162.913h-14.924l-22.001-63.64H299.89v63.64h-53.532c-23.725,0-47.148,5.254-68.588,15.398
		l-84.25,39.878l-32.913-44.513H18.079v80.646C6.903,261.663,0,274.199,0,287.816c0,13.617,6.903,26.153,18.079,33.494v80.663
		h42.529L93.52,357.46l84.25,39.852c21.44,10.153,44.863,15.415,68.588,15.415h171.37c52.063,0,94.271-42.204,94.271-94.271v-61.272
		C512,205.117,469.792,162.913,417.729,162.913z"/>
</g>
</svg>