<?xml version="1.0" encoding="utf-8"?>

<!DOCTYPE svg PUBLIC "-//W3C//DTD SVG 1.1//EN" "http://www.w3.org/Graphics/SVG/1.1/DTD/svg11.dtd">
<!-- Uploaded to: SVG Repo, www.svgrepo.com, Generator: SVG Repo Mixer Tools -->
<svg height="800px" width="800px" version="1.1" id="_x32_" xmlns="http://www.w3.org/2000/svg" xmlns:xlink="http://www.w3.org/1999/xlink" 
	 viewBox="0 0 512 512"  xml:space="preserve">
<style type="text/css">
	.st0{fill:#000000;}
</style>
<g>
	<path class="st0" d="M427.268,140.642h-74.44l4.079-3.054l69.515-52.089L350.014,28.23l-76.408,57.269l73.594,55.143H164.794
		l4.079-3.054l69.515-52.089L161.979,28.23L85.563,85.499l73.601,55.143H84.732C37.935,140.642,0,178.578,0,225.375v205.886
		c0,8.399,6.812,15.21,15.21,15.21h46.536c-0.218,1.505-0.465,3.002-0.465,4.566c0,18.084,14.648,32.733,32.733,32.733
		c18.077,0,32.732-14.648,32.732-32.733c0-1.564-0.247-3.061-0.464-4.566h34.596c-0.217,1.505-0.464,3.002-0.464,4.566
		c0,18.084,14.648,32.733,32.733,32.733c18.076,0,32.732-14.648,32.732-32.733c0-1.564-0.247-3.061-0.464-4.566h61.154
		c-0.21,1.505-0.457,3.002-0.457,4.566c0,18.084,14.648,32.733,32.732,32.733c18.077,0,32.733-14.648,32.733-32.733
		c0-1.564-0.247-3.061-0.456-4.566h34.581c-0.21,1.505-0.457,3.002-0.457,4.566c0,18.084,14.648,32.733,32.733,32.733
		c18.076,0,32.732-14.648,32.732-32.733c0-1.564-0.247-3.061-0.456-4.566h46.534c8.398,0,15.21-6.811,15.21-15.21V225.375
		C512,178.578,474.065,140.642,427.268,140.642z M123.909,85.499l38.07-28.534l38.07,28.534l-38.07,28.526L123.909,85.499z
		 M198.23,316.169h-80.48v-68.983h80.48V316.169z M311.944,85.499l38.07-28.534l38.07,28.534l-38.07,28.526L311.944,85.499z
		 M394.243,316.169h-80.48v-68.983h80.48V316.169z"/>
</g>
</svg>