<?xml version="1.0" encoding="utf-8"?>

<!DOCTYPE svg PUBLIC "-//W3C//DTD SVG 1.1//EN" "http://www.w3.org/Graphics/SVG/1.1/DTD/svg11.dtd">
<!-- Uploaded to: SVG Repo, www.svgrepo.com, Generator: SVG Repo Mixer Tools -->
<svg height="800px" width="800px" version="1.1" id="_x32_" xmlns="http://www.w3.org/2000/svg" xmlns:xlink="http://www.w3.org/1999/xlink" 
	 viewBox="0 0 512 512"  xml:space="preserve">
<style type="text/css">
	.st0{fill:#000000;}
</style>
<g>
	<path class="st0" d="M206.112,258.427c-33.724-9.37-26.227-56.198-26.227-56.198S17.18,156.958,14.772,156.272
		c-11.904-3.174-15.446,8.148-14.67,14.337c19.075,152.213,114.212,228.323,114.212,228.323h369.058
		C509.502,377.134,512,312.18,512,312.18S239.832,267.797,206.112,258.427z M93.587,271.056c-7.636,0-13.83-6.19-13.83-13.83
		c0-7.64,6.193-13.829,13.83-13.829c7.64,0,13.834,6.189,13.834,13.829C107.42,264.866,101.227,271.056,93.587,271.056z"/>
	<polygon class="st0" points="338.049,135.059 235.419,113.067 207.245,133.415 207.245,151.848 338.049,179.886 	"/>
	<polygon class="st0" points="454.544,160.024 350.313,137.689 350.313,182.509 454.544,204.844 	"/>
	<polygon class="st0" points="372.112,199.955 272.191,178.535 272.191,209.633 372.112,228.087 	"/>
	<path class="st0" d="M272.191,258.827c29.318,5.296,65.028,11.464,99.921,17.389v-32.884l-99.921-18.462V258.827z"/>
	<polygon class="st0" points="482.025,223.505 387.1,203.157 387.1,230.853 482.025,248.385 	"/>
	<path class="st0" d="M387.1,278.753c36.63,6.196,71.158,11.921,94.925,15.846v-30.976L387.1,246.097V278.753z"/>
	<path class="st0" d="M209.453,246.391c6.915,1.923,24.426,5.41,47.754,9.705v-33.992l-65.479-12.093
		C191.296,220.439,192.564,241.695,209.453,246.391z"/>
	<path class="st0" d="M193.976,193.187l-0.307,1.937l63.538,11.736v-31.534L132.306,148.56l-27.445,19.819
		c39.428,10.978,77.582,21.599,78.369,21.813L193.976,193.187z"/>
</g>
</svg>