<?xml version="1.0" encoding="utf-8"?>

<!DOCTYPE svg PUBLIC "-//W3C//DTD SVG 1.1//EN" "http://www.w3.org/Graphics/SVG/1.1/DTD/svg11.dtd">
<!-- Uploaded to: SVG Repo, www.svgrepo.com, Generator: SVG Repo Mixer Tools -->
<svg height="800px" width="800px" version="1.1" id="_x32_" xmlns="http://www.w3.org/2000/svg" xmlns:xlink="http://www.w3.org/1999/xlink" 
	 viewBox="0 0 512 512"  xml:space="preserve">
<style type="text/css">
	.st0{fill:#000000;}
</style>
<g>
	<path class="st0" d="M116.713,337.355c-20.655,0-37.456,16.801-37.456,37.456c0,20.655,16.802,37.455,37.456,37.455
		c20.649,0,37.448-16.8,37.448-37.455C154.161,354.156,137.362,337.355,116.713,337.355z"/>
	<path class="st0" d="M403.81,337.355c-20.649,0-37.449,16.801-37.449,37.456c0,20.655,16.8,37.455,37.449,37.455
		c20.649,0,37.45-16.8,37.45-37.455C441.261,354.156,424.459,337.355,403.81,337.355z"/>
	<path class="st0" d="M497.571,99.735H252.065c-7.974,0-14.429,6.466-14.429,14.44v133.818c0,7.972,6.455,14.428,14.429,14.428
		h245.506c7.966,0,14.429-6.456,14.429-14.428V114.174C512,106.201,505.538,99.735,497.571,99.735z"/>
	<path class="st0" d="M499.966,279.409H224.225c-6.64,0-12.079-5.439-12.079-12.079V111.739c0-6.638-5.359-11.999-11.999-11.999
		H90.554c-3.599,0-6.96,1.602-9.281,4.32L2.801,198.213C1.039,200.373,0,203.094,0,205.893v125.831
		c0,6.64,5.439,11.999,12.079,11.999h57.516c10.08-15.358,27.438-25.438,47.118-25.438c19.678,0,37.036,10.08,47.116,25.438h192.868
		c10.079-15.358,27.438-25.438,47.116-25.438c19.678,0,37.039,10.08,47.118,25.438h49.036c6.64,0,11.999-5.359,11.999-11.999
		v-40.316C511.965,284.768,506.606,279.409,499.966,279.409z M43.997,215.493v-8.32c0-2.881,0.961-5.601,2.72-7.84l50.157-61.675
		c2.318-2.881,5.839-4.56,9.599-4.56h49.116c6.8,0,12.4,5.519,12.4,12.4v69.995c0,6.798-5.599,12.398-12.4,12.398H56.396
		C49.516,227.891,43.997,222.292,43.997,215.493z"/>
</g>
</svg>