<?xml version="1.0" encoding="utf-8"?>

<!DOCTYPE svg PUBLIC "-//W3C//DTD SVG 1.1//EN" "http://www.w3.org/Graphics/SVG/1.1/DTD/svg11.dtd">
<!-- Uploaded to: SVG Repo, www.svgrepo.com, Generator: SVG Repo Mixer Tools -->
<svg version="1.1" id="_x32_" xmlns="http://www.w3.org/2000/svg" xmlns:xlink="http://www.w3.org/1999/xlink" 
	 viewBox="0 0 512 512"  xml:space="preserve">
<style type="text/css">
	.st0{fill:#000000;}
</style>
<g>
	<rect x="115.327" y="106.231" class="st0" width="11.6" height="46.437"/>
	<path class="st0" d="M205.497,152.669c0,0,0-0.715,0-1.936h49.539c5.131,0,9.283-4.159,9.283-9.283
		c0-5.131-4.152-9.291-9.283-9.291h-49.539c0-1.29,0-2.589,0-3.871c-1.82-2.084-3.716-3.958-5.644-5.684l26.635-22.725
		c3.622,2.76,8.148,4.416,13.061,4.416c11.973,0,21.676-9.702,21.676-21.668c0-11.973-9.703-21.675-21.676-21.675
		c-11.973,0-21.676,9.702-21.676,21.675c0,3.685,0.933,7.161,2.566,10.2l-28.19,24.047c-21.614-13.769-47.067-10.643-57.578-10.643
		v46.437h11.615H205.497z"/>
	<path class="st0" d="M111.052,363.071c1.741,3.802,2.721,8.054,2.721,12.509c0,16.676-13.512,30.188-30.18,30.188
		c-16.669,0-30.197-13.512-30.197-30.188c0-11.188,6.111-20.968,15.16-26.161l-47.969-15.402
		c-7.868,11.919-12.47,26.192-12.47,41.563c0,41.68,33.788,75.468,75.476,75.468c39.463,0,71.836-30.282,75.179-68.898
		c-3.716-2.247-6.686-4.548-8.956-6.64L111.052,363.071z"/>
	<path class="st0" d="M451.328,366.297c0.948,2.923,1.462,6.056,1.462,9.283c0,16.676-13.512,30.188-30.196,30.188
		c-16.669,0-30.181-13.512-30.181-30.188c0-3.227,0.513-6.36,1.462-9.283h-8.256l-26.714,26.698h-9.749
		c7.868,33.275,37.753,58.053,73.438,58.053c41.687,0,75.475-33.788,75.475-75.468c0-3.157-0.187-6.243-0.56-9.283H451.328z"/>
	<path class="st0" d="M318.351,243.615h120.366c4.711-9.205,15.487-30.437,16.389-34.052c1.166-4.649,5.8-10.449-11.616-10.449
		c-17.415,0-99.84,0-116.089,0c-16.265,0-26.714,26.698-16.265,35.988C313.982,237.621,316.47,240.311,318.351,243.615z"/>
	<path class="st0" d="M380.797,354.682H512c0,0-24.506-81.664-66.799-103.324H321.322c1.943,8.7,0.777,21.053-5.536,40.63
		c-11.615,35.996-13.932,56.894-53.411,56.894c-39.463,0-70.81,0-76.626,0c-5.8,0-24.381-61.536-23.215-74.309
		c1.166-12.766,23.215-61.528,27.864-71.977c4.649-10.449-6.966-33.672-27.864-40.637c-20.898-6.966-17.415,2.324-17.415,2.324
		L92.952,276.719C39.666,266.565,5.458,303.199,0,315.211l155.926,50.083c7.806,8.047,23.09,16.094,47.238,16.094
		c29.03,0,150.935,0,150.935,0L380.797,354.682z"/>
</g>
</svg>