<?xml version="1.0" encoding="utf-8"?>

<!DOCTYPE svg PUBLIC "-//W3C//DTD SVG 1.1//EN" "http://www.w3.org/Graphics/SVG/1.1/DTD/svg11.dtd">
<!-- Uploaded to: SVG Repo, www.svgrepo.com, Generator: SVG Repo Mixer Tools -->
<svg version="1.1" id="_x32_" xmlns="http://www.w3.org/2000/svg" xmlns:xlink="http://www.w3.org/1999/xlink" 
	 viewBox="0 0 512 512"  xml:space="preserve">
<style type="text/css">
	.st0{fill:#000000;}
</style>
<g>
	<rect x="118.671" y="148.54" class="st0" width="11.125" height="44.499"/>
	<path class="st0" d="M205.067,193.04c0,0,0-0.69,0-1.862h46.638l0.76,10.762l75.202-5.234l17.179-15.188v37.343l-78.978,16.35
		c-16.869,3.493-27.942,19.698-25.079,36.687l0.863,125.833h41.326l10.176-105.437h11.832c-0.534,5.062,0.552,9.84,3.863,12.781
		c2.709,2.414,5.106,4.993,6.917,8.158h115.32c4.52-8.822,14.834-29.167,15.713-32.625c1.104-4.458,5.554-10.012-11.124-10.012
		c-4.416,0-13.264,0-24.061,0c9.97-11.298,16.075-26.088,16.075-42.345v-97.546c0-10.918-4.399-21.37-12.212-29.011
		c-7.797-7.624-18.352-11.798-29.27-11.548l-1.725,0.042c-21.715,0.483-39.032,18.008-39.532,39.602l-31.978,28.286l-62.8,11.066
		l0.293,4.242h-45.396c0-1.242,0-2.484,0-3.717c-1.725-1.991-3.554-3.786-5.398-5.442l25.509-21.776
		c3.484,2.648,7.814,4.234,12.522,4.234c11.47,0,20.767-9.296,20.767-20.767c0-11.47-9.297-20.766-20.767-20.766
		c-11.47,0-20.767,9.296-20.767,20.766c0,3.536,0.897,6.865,2.45,9.772l-26.994,23.044c-20.715-13.195-45.104-10.194-55.176-10.194
		v44.499h11.125H205.067z"/>
	<path class="st0" d="M117.119,427.7c1.674,3.639,2.604,7.718,2.604,11.987c0,15.981-12.953,28.925-28.925,28.925
		c-15.972,0-28.925-12.944-28.925-28.925c0-10.72,5.864-20.094,14.523-25.07L30.43,399.862
		c-7.538,11.418-11.936,25.095-11.936,39.825c0,39.938,32.375,72.313,72.304,72.313c37.825,0,68.838-29.02,72.045-66.017
		c-3.553-2.156-6.399-4.363-8.589-6.364L117.119,427.7z"/>
	<path class="st0" d="M443.177,430.787c0.896,2.803,1.397,5.804,1.397,8.9c0,15.981-12.953,28.925-28.925,28.925
		c-15.972,0-28.925-12.944-28.925-28.925c0-3.096,0.483-6.097,1.397-8.9h-7.917l-25.596,25.588h-9.332
		C352.814,488.258,381.445,512,415.649,512c39.929,0,72.304-32.374,72.304-72.313c0-3.027-0.172-5.985-0.535-8.9H443.177z"/>
	<path class="st0" d="M375.598,419.662h125.704c0,0-23.474-78.254-64.007-99.004H318.611c1.846,8.331,0.742,20.172-5.312,38.929
		c-11.125,34.497-13.35,54.521-51.175,54.521c-37.825,0-67.854,0-73.424,0c-5.554,0-23.371-58.971-22.251-71.208
		c1.122-12.238,20.526-90.268,24.976-100.281c4.45-10.012-6.675-32.262-26.7-38.938c-20.024-6.675-16.678,2.226-16.678,2.226
		L99.784,344.952c-51.071-9.728-83.86,25.38-89.086,36.885l149.42,47.993c7.468,7.71,22.113,15.42,45.259,15.42
		c27.821,0,144.643,0,144.643,0L375.598,419.662z"/>
	<path class="st0" d="M380.341,77.194c21.319,0,38.602-17.274,38.602-38.593c0-21.327-17.282-38.6-38.602-38.6
		c-21.301,0-38.583,17.274-38.583,38.6C341.758,59.919,359.04,77.194,380.341,77.194z"/>
</g>
</svg>