<?xml version="1.0" encoding="utf-8"?>

<!DOCTYPE svg PUBLIC "-//W3C//DTD SVG 1.1//EN" "http://www.w3.org/Graphics/SVG/1.1/DTD/svg11.dtd">
<!-- Uploaded to: SVG Repo, www.svgrepo.com, Generator: SVG Repo Mixer Tools -->
<svg height="800px" width="800px" version="1.1" id="_x32_" xmlns="http://www.w3.org/2000/svg" xmlns:xlink="http://www.w3.org/1999/xlink" 
	 viewBox="0 0 512 512"  xml:space="preserve">
<style type="text/css">
	.st0{fill:#000000;}
</style>
<g>
	<path class="st0" d="M478.856,311.204c-8.63-10.77-21.096-29.071-8.63-35.553c5.188-2.688,11.646-0.263,13.474,4.376
		c1.402,3.606-2.696,8.557-2.696,8.557c-10.778-3.23-11.646,10.835-2.148,10.769c6.54-0.05,21.53-10.769,16.145-29.079
		c-5.376-18.326-27.866-22.358-42.011-16.162c-31.349,13.736-19.383,44.708-8.614,59.247c23.342,31.513,2.041,93.719-78.434,93.719
		c-54.125,0-82.785,0-95.768,0v-33.381h127.96c-36.553-106.586-14.08-192.216-0.245-228.917h37.553v-19.391h-29.112v-0.017H270.175
		V67.28c17.284-14.392,42.913-10.482,66.304-13.408c34.463-4.311,37.34-35.906,37.34-35.906s-21.547,14.359-50.273,0
		c-23.408-11.696-45.856-5.278-53.371-2.516v-0.926h-14.204v110.848h-99.054v0.017h-39.144v19.391h30.702
		c-13.827,36.701-36.299,122.331,0.27,228.917h107.226v33.381c-10.753,0-39.479,0-99.439,0c-80.466,0-98.374-59.96-78.426-93.719
		c10.508-17.768,23.612-47.7-8.622-59.247c-14.269-5.131-20.465,0.262-24.505-3.77c-4.041-4.049,5.655-12.933,5.655-12.933
		l-2.426-9.696L28.98,240.826L0,261.98l1.574,8.613h29.759v5.483l-15.44,9l4.04,7.278l20.203-6.458c0,0,11.359-4.548,16.154-3.229
		c8.893,2.41-4.04,17.768-12.654,28.538c-75.409,94.259-8.302,189.602,63.444,189.602c71.754,0,154.162,0,154.162,0
		s82.409,0,154.155,0C487.142,500.806,554.257,405.463,478.856,311.204z M255.971,354.298h-93.112
		c-19.096-63.567-15.99-117.954-9.663-153.262c4.647-25.809,11.589-45.274,16.145-56.256H377.26
		c-4.294,12.376-8.957,28.448-12.49,47.602c-7,37.84-10.778,95.047,7.187,161.916H270.175H255.971z"/>
</g>
</svg>