<?xml version="1.0" encoding="iso-8859-1"?>
<!-- Uploaded to: SVG Repo, www.svgrepo.com, Generator: SVG Repo Mixer Tools -->
<svg fill="#000000" height="800px" width="800px" version="1.1" id="Layer_1" xmlns="http://www.w3.org/2000/svg" xmlns:xlink="http://www.w3.org/1999/xlink" 
	 viewBox="0 0 512 512" xml:space="preserve">
<g>
	<g>
		<g>
			<path d="M426.667,90.176V62.165c0-29.419-23.936-53.333-53.483-53.333c-5.163,0.085-126.891,1.899-167.083,4.011
				c-39.317,2.091-149.12,12.501-152.768,12.885C23.936,25.728,0,49.643,0,79.061v11.115c0,23.381,12.181,40.533,31.765,46.869
				c0,0.192-0.043,0.341-0.043,0.533c0.064,0.64,6.507,65.323,6.507,80.597c0,18.091-3.797,70.101-6.123,87.957
				c-5.333,40.875-10.539,156.011-10.752,161.365c0,17.643,14.357,32,32,32c0.469,0,0.939-0.043,1.408-0.107L128,489.493
				c17.643,0,32-14.357,32-31.573c0.107-2.816,2.667-69.12,2.667-90.411c0-12.949,1.429-33.109,2.795-52.587
				c1.408-19.861,2.859-40.384,2.859-54.08c0-26.155-7.637-119.808-8.277-127.36c23.211-1.131,44.416-1.941,56.832-1.941
				c15.765,0,45.205,1.771,74.859,3.904l-26.816,8.107c-16.832,0.896-30.251,14.891-30.251,32.171
				c0,0.021,0.661,33.877,0.661,55.125c0,13.824,1.963,35.115,4.032,57.643c1.941,21.056,3.968,42.859,3.968,55.68
				c0,25.899-8.875,125.035-9.003,126.997c0,17.643,14.357,32,32,32c0.192,0,0.405,0,0.597-0.021l63.744-3.627
				c17.643,0,32-14.357,32-31.872c0,0,0.789-66.432,0.789-82.453c0-9.28,0.811-32.704,1.6-56.149
				c0.811-23.723,1.621-47.467,1.621-56.853c0-39.979,0.341-117.291,0.341-117.333c0-4.928-1.216-9.557-3.221-13.739
				c10.24,0.853,16.875,1.451,17.152,1.472c0.32,0.021,0.619,0.043,0.939,0.043C409.493,142.613,426.667,122.517,426.667,90.176z"/>
			<path d="M508.672,331.499c0-18.987-10.667-38.592-29.824-38.592h-0.107l-37.376,4.587c-17.643,0-32,14.357-32,31.68
				l-4.032,134.336c0,17.621,14.315,31.957,30.933,31.957h0.064l42.667,4.011c0.341,0,0.661,0.021,1.003,0.021
				c17.643,0,32-14.357,32-32.277L508.672,331.499z"/>
		</g>
	</g>
</g>
</svg>