<?xml version="1.0" encoding="iso-8859-1"?>
<!-- Uploaded to: SVG Repo, www.svgrepo.com, Generator: SVG Repo Mixer Tools -->
<svg fill="#000000" height="800px" width="800px" version="1.1" id="Layer_1" xmlns="http://www.w3.org/2000/svg" xmlns:xlink="http://www.w3.org/1999/xlink" 
	 viewBox="0 0 512.069 512.069" xml:space="preserve">
<g transform="translate(1 1)">
	<g>
		<g>
			<path d="M101.435,451.301c-5.12,0-8.533,3.413-8.533,8.533c0,5.12,3.413,8.533,8.533,8.533s8.533-3.413,8.533-8.533
				C109.968,454.715,106.555,451.301,101.435,451.301z"/>
			<path d="M67.301,451.301H50.235c-5.12,0-8.533,3.413-8.533,8.533c0,5.12,3.413,8.533,8.533,8.533h17.067
				c5.12,0,8.533-3.413,8.533-8.533C75.835,454.715,72.421,451.301,67.301,451.301z"/>
			<path d="M152.635,451.301h-17.067c-5.12,0-8.533,3.413-8.533,8.533c0,5.12,3.413,8.533,8.533,8.533h17.067
				c5.12,0,8.533-3.413,8.533-8.533C161.168,454.715,157.755,451.301,152.635,451.301z"/>
			<path d="M408.635,451.301c-5.12,0-8.533,3.413-8.533,8.533c0,5.12,3.413,8.533,8.533,8.533s8.533-3.413,8.533-8.533
				C417.168,454.715,413.755,451.301,408.635,451.301z"/>
			<path d="M374.501,451.301h-17.067c-5.12,0-8.533,3.413-8.533,8.533c0,5.12,3.413,8.533,8.533,8.533h17.067
				c5.12,0,8.533-3.413,8.533-8.533C383.035,454.715,379.621,451.301,374.501,451.301z"/>
			<path d="M459.835,451.301h-17.067c-5.12,0-8.533,3.413-8.533,8.533c0,5.12,3.413,8.533,8.533,8.533h17.067
				c5.12,0,8.533-3.413,8.533-8.533C468.368,454.715,464.955,451.301,459.835,451.301z"/>
			<path d="M101.435,203.835c-14.507,0-25.6,11.093-25.6,25.6v42.667c0,5.12,3.413,8.533,8.533,8.533h34.133
				c5.12,0,8.533-3.413,8.533-8.533v-42.667C127.035,214.928,115.941,203.835,101.435,203.835z M109.968,263.568H92.901v-34.133
				c0-5.12,3.413-8.533,8.533-8.533s8.533,3.413,8.533,8.533V263.568z"/>
			<path d="M101.435,306.235c-14.507,0-25.6,11.093-25.6,25.6v42.667c0,5.12,3.413,8.533,8.533,8.533h34.133
				c5.12,0,8.533-3.413,8.533-8.533v-42.667C127.035,317.328,115.941,306.235,101.435,306.235z M109.968,365.968H92.901v-34.133
				c0-5.12,3.413-8.533,8.533-8.533s8.533,3.413,8.533,8.533V365.968z"/>
			<path d="M195.301,340.368h34.133c5.12,0,8.533-3.413,8.533-8.533v-34.133c0-14.507-11.093-25.6-25.6-25.6
				c-14.507,0-25.6,11.093-25.6,25.6v34.133C186.768,336.955,190.181,340.368,195.301,340.368z M203.835,297.701
				c0-5.12,3.413-8.533,8.533-8.533c5.12,0,8.533,3.413,8.533,8.533v25.6h-17.067V297.701z"/>
			<path d="M280.635,340.368h34.133c5.12,0,8.533-3.413,8.533-8.533v-34.133c0-14.507-11.093-25.6-25.6-25.6s-25.6,11.093-25.6,25.6
				v34.133C272.101,336.955,275.515,340.368,280.635,340.368z M289.168,297.701c0-5.12,3.413-8.533,8.533-8.533
				s8.533,3.413,8.533,8.533v25.6h-17.067V297.701z"/>
			<path d="M508.475,129.595l-91.307-91.307V7.568c0-5.12-3.413-8.533-8.533-8.533s-8.533,3.413-8.533,8.533v30.72l-91.307,91.307
				c-2.56,2.56-3.413,5.973-1.707,9.387c0.853,3.413,4.267,5.12,7.68,5.12h8.533v25.6c0,5.12,3.413,8.533,8.533,8.533h8.533v59.733
				h-17.067v-25.6c0-5.12-3.413-8.533-8.533-8.533h-34.133c-5.12,0-8.533,3.413-8.533,8.533v25.6h-34.133v-25.6
				c0-5.12-3.413-8.533-8.533-8.533h-34.133c-5.12,0-8.533,3.413-8.533,8.533v25.6h-17.067v-59.733h8.533
				c5.12,0,8.533-3.413,8.533-8.533v-25.6h8.533c3.413,0,6.827-1.707,7.68-5.12c1.707-3.413,0.853-6.827-1.707-9.387l-91.307-91.307
				V7.568c0-5.12-3.413-8.533-8.533-8.533s-8.533,3.413-8.533,8.533v30.72L1.595,129.595c-2.56,2.56-3.413,5.973-1.707,9.387
				c0.853,3.413,4.267,5.12,7.68,5.12h8.533v25.6c0,5.12,3.413,8.533,8.533,8.533h8.533v230.4h-8.533
				c-4.267,0-7.68,3.413-8.533,7.68l-8.533,85.333c0,2.56,0.853,5.12,2.56,6.827c0.853,1.707,3.413,2.56,5.973,2.56h170.667h34.133
				h68.267h34.133h170.667c2.56,0,5.12-0.853,5.973-2.56c1.707-1.707,2.56-4.267,2.56-6.827l-8.533-85.333
				c-0.853-4.267-4.267-7.68-8.533-7.68h-8.533v-230.4h8.533c5.12,0,8.533-3.413,8.533-8.533v-25.6h8.533
				c3.413,0,6.827-1.707,7.68-5.12C511.888,135.568,511.035,132.155,508.475,129.595z M408.635,53.648l73.387,73.387H335.248
				L408.635,53.648z M289.168,220.901h17.067v17.067h-17.067V220.901z M203.835,220.901h17.067v17.067h-17.067V220.901z
				 M101.435,53.648l73.387,73.387H28.048L101.435,53.648z M169.701,144.101v17.067h-8.533H41.701h-8.533v-17.067H169.701z
				 M50.235,383.035h8.533c5.12,0,8.533-3.413,8.533-8.533s-3.413-8.533-8.533-8.533h-8.533V220.901h8.533
				c5.12,0,8.533-3.413,8.533-8.533c0-5.12-3.413-8.533-8.533-8.533h-8.533v-25.6h102.4v68.267v42.667h-8.533
				c-5.12,0-8.533,3.413-8.533,8.533s3.413,8.533,8.533,8.533h8.533v102.4h-102.4V383.035z M32.315,425.701h9.387h119.467h9.387
				l6.752,68.267H25.488L32.315,425.701z M178.235,408.635h-8.533v-153.6h25.6h34.133h51.2h34.133h25.6v153.6h-8.533
				c-4.267,0-7.68,3.413-8.533,7.68l-7.765,77.653h-17.835v-93.867c0-23.893-18.773-42.667-42.667-42.667
				c-23.893,0-42.667,18.773-42.667,42.667v93.867h-17.835l-7.765-77.653C185.915,412.048,182.501,408.635,178.235,408.635z
				 M229.435,493.968v-93.867c0-14.507,11.093-25.6,25.6-25.6c14.507,0,25.6,11.093,25.6,25.6v93.867H229.435z M484.581,493.968
				H332.763l6.752-68.267h9.387h119.467h9.387L484.581,493.968z M459.835,289.168h-8.533c-5.12,0-8.533,3.413-8.533,8.533
				s3.413,8.533,8.533,8.533h8.533v102.4h-102.4v-25.6h8.533c5.12,0,8.533-3.413,8.533-8.533s-3.413-8.533-8.533-8.533h-8.533
				V246.501v-25.6h8.533c5.12,0,8.533-3.413,8.533-8.533c0-5.12-3.413-8.533-8.533-8.533h-8.533v-25.6h102.4V289.168z
				 M476.901,161.168h-8.533H348.901h-8.533v-17.067h136.533V161.168z"/>
			<path d="M391.568,280.635h34.133c5.12,0,8.533-3.413,8.533-8.533v-42.667c0-14.507-11.093-25.6-25.6-25.6
				c-14.507,0-25.6,11.093-25.6,25.6v42.667C383.035,277.221,386.448,280.635,391.568,280.635z M400.101,229.435
				c0-5.12,3.413-8.533,8.533-8.533s8.533,3.413,8.533,8.533v34.133h-17.067V229.435z"/>
			<path d="M391.568,383.035h34.133c5.12,0,8.533-3.413,8.533-8.533v-42.667c0-14.507-11.093-25.6-25.6-25.6
				c-14.507,0-25.6,11.093-25.6,25.6v42.667C383.035,379.621,386.448,383.035,391.568,383.035z M400.101,331.835
				c0-5.12,3.413-8.533,8.533-8.533s8.533,3.413,8.533,8.533v34.133h-17.067V331.835z"/>
			<path d="M255.035,408.635c-5.12,0-8.533,3.413-8.533,8.533v42.667c0,5.12,3.413,8.533,8.533,8.533s8.533-3.413,8.533-8.533
				v-42.667C263.568,412.048,260.155,408.635,255.035,408.635z"/>
		</g>
	</g>
</g>
</svg>