<?xml version="1.0" encoding="iso-8859-1"?>
<!-- Uploaded to: SVG Repo, www.svgrepo.com, Generator: SVG Repo Mixer Tools -->
<svg fill="#000000" height="800px" width="800px" version="1.1" id="Layer_1" xmlns="http://www.w3.org/2000/svg" xmlns:xlink="http://www.w3.org/1999/xlink" 
	 viewBox="0 0 512.013 512.013" xml:space="preserve">
<g transform="translate(0 -1)">
	<g>
		<g>
			<polygon points="21.339,370.564 128.005,327.898 128.005,186.33 21.339,145.306 			"/>
			<polygon points="155.589,378.763 144.197,367.392 37.552,410.037 124.315,496.8 166.981,390.155 			"/>
			<polygon points="367.816,367.375 345.202,389.988 389.106,495.396 474.482,410.042 			"/>
			<polygon points="144.059,146.79 166.971,123.878 124.304,17.212 36.219,105.297 			"/>
			<polygon points="170.672,180.508 170.672,333.51 185.755,348.593 200.837,363.676 311.173,363.676 341.339,333.51 
				341.339,180.508 311.173,150.342 200.837,150.342 			"/>
			<polygon points="367.954,146.79 475.794,105.297 387.709,17.212 345.042,123.878 			"/>
			<polygon points="206.457,406.342 163.79,513.009 350.222,513.009 305.785,406.342 			"/>
			<polygon points="305.556,107.676 348.223,1.009 163.796,1.009 206.463,107.676 			"/>
			<polygon points="384.005,327.893 490.672,370.56 490.672,145.301 384.005,186.325 			"/>
			<path d="M469.339,65.009c5.461,0,10.923-2.091,15.083-6.251l21.333-21.333c8.341-8.341,8.341-21.824,0-30.165
				c-8.341-8.341-21.824-8.341-30.165,0l-21.333,21.333c-8.341,8.341-8.341,21.824,0,30.165
				C458.416,62.918,463.877,65.009,469.339,65.009z"/>
			<path d="M505.757,476.591l-21.333-21.333c-8.341-8.341-21.824-8.341-30.165,0c-8.341,8.341-8.341,21.824,0,30.165l21.333,21.333
				c4.16,4.16,9.621,6.251,15.083,6.251s10.923-2.091,15.083-6.251C514.098,498.415,514.098,484.932,505.757,476.591z"/>
			<path d="M27.589,455.258L6.256,476.591c-8.341,8.341-8.341,21.824,0,30.165c4.16,4.16,9.621,6.251,15.083,6.251
				c5.461,0,10.923-2.091,15.083-6.251l21.333-21.333c8.341-8.341,8.341-21.824,0-30.165
				C49.413,446.916,35.931,446.916,27.589,455.258z"/>
			<path d="M27.589,58.758c4.16,4.16,9.621,6.251,15.083,6.251c5.461,0,10.923-2.091,15.083-6.251
				c8.341-8.341,8.341-21.824,0-30.165L36.421,7.26c-8.341-8.341-21.824-8.341-30.165,0c-8.341,8.341-8.341,21.824,0,30.165
				L27.589,58.758z"/>
		</g>
	</g>
</g>
</svg>