<?xml version="1.0" encoding="iso-8859-1"?>
<!-- Uploaded to: SVG Repo, www.svgrepo.com, Generator: SVG Repo Mixer Tools -->
<svg height="800px" width="800px" version="1.1" id="Layer_1" xmlns="http://www.w3.org/2000/svg" xmlns:xlink="http://www.w3.org/1999/xlink" 
	 viewBox="0 0 511.72 511.72" xml:space="preserve">
<g transform="translate(1 1)">
	<g>
		<path style="fill:#FFE100;" d="M345.041,127.603l37.076,37.076l43.255-42.372h-37.959V83.465L345.041,127.603z"/>
		<path style="fill:#FFE100;" d="M257.648,214.996L7.828,463.934l37.076,37.959l249.821-249.821L257.648,214.996"/>
	</g>
	<g>
		<polygon style="fill:#00DA6C;" points="207.331,339.465 170.255,302.389 207.331,264.431 245.29,302.389 		"/>
		<polygon style="fill:#00DA6C;" points="95.221,451.575 58.145,414.499 95.221,376.541 132.297,414.499 		"/>
	</g>
	<path style="fill:#FFE100;" d="M501.29,195.575c-52.966,19.421-85.628,1.766-105.931-18.538s-41.49-41.49-62.676-62.676
		C312.379,94.058,294.724,60.513,314.145,8.43c0,0-75.034-12.359-130.648,44.138c-55.614,55.614-43.255,130.648-43.255,130.648
		c52.966-19.421,85.628-1.766,105.931,18.538s41.49,41.49,62.676,62.676c20.303,20.303,37.959,53.848,18.538,105.931
		c0,0,75.034,12.359,130.648-44.138S501.29,195.575,501.29,195.575"/>
	<g>
		<path style="fill:#FFFFFF;" d="M205.566,53.451c32.662-32.662,71.503-41.49,97.986-44.138
			c-15.89-1.766-78.566-4.414-127.117,44.138c-55.614,55.614-44.138,130.648-44.138,130.648c9.71-3.531,19.421-6.179,28.248-7.062
			C159.662,156.734,159.662,98.472,205.566,53.451"/>
		<polygon style="fill:#FFFFFF;" points="25.483,469.23 272.655,222.058 261.179,210.582 11.359,460.403 48.434,497.479 
			51.083,494.831 		"/>
	</g>
	<path style="fill:#FFA800;" d="M501.29,193.81c-8.828,3.531-17.655,5.297-25.6,7.062c1.766,19.421,1.766,78.566-44.138,124.469
		c-32.662,32.662-72.386,42.372-99.752,44.138c17.655,1.766,78.565,3.531,126.234-44.138
		C512.766,268.844,501.29,193.81,501.29,193.81"/>
	<path d="M345.041,380.955c-11.476,0-18.538-0.883-20.303-0.883c-2.648,0-5.297-1.766-6.179-4.414
		c-0.883-2.648-1.766-5.297-0.883-7.062c14.124-39.724,8.828-71.503-16.772-97.103l-62.676-62.676
		c-25.6-25.6-58.262-30.897-97.103-16.772c-2.648,0.883-5.297,0.883-7.062-0.883c-2.648-1.766-3.531-3.531-4.414-6.179
		c-0.883-3.531-12.359-80.331,45.903-138.593S310.614-0.397,314.145,0.486c2.648,0,5.297,1.766,6.179,4.414
		c1.766,2.648,1.766,5.297,0.883,7.062c-14.124,39.724-8.828,71.503,16.772,97.103l62.676,62.676
		c25.6,25.6,57.379,30.897,97.103,16.772c2.648-0.883,5.297-0.883,7.062,0.883c2.648,1.766,3.531,3.531,4.414,6.179
		c0.883,3.531,12.359,80.331-45.903,138.593C422.724,373.893,372.407,380.955,345.041,380.955z M337.979,362.417
		c22.069,0.883,73.269-1.766,112.993-42.372c39.724-39.724,43.255-90.924,42.372-112.993c-41.49,12.359-76.8,3.531-104.165-24.717
		l-62.676-62.676c-28.248-26.483-36.193-61.793-24.717-103.283c-22.069-0.883-73.269,2.648-112.993,42.372
		s-43.255,90.924-42.372,112.993c40.607-11.476,76.8-3.531,104.166,24.717l62.676,62.676
		C341.51,286.499,350.338,321.81,337.979,362.417z"/>
	<path d="M375.938,329.755c-3.531,0-7.062-2.648-8.828-6.179c-0.883-4.414,1.766-9.71,6.179-10.593
		c13.241-3.531,32.662-8.828,45.903-22.952c14.124-14.124,18.538-32.662,22.952-45.903c0.883-4.414,6.179-7.062,10.593-6.179
		c4.414,0.883,7.062,6.179,6.179,10.593c-4.414,15.007-10.593,37.076-27.366,53.848c-16.772,16.772-38.841,22.952-53.848,27.366
		C377.703,329.755,376.821,329.755,375.938,329.755z"/>
	<path d="M188.793,142.61c-0.883,0-1.766,0-2.648,0c-4.414-0.883-7.062-6.179-6.179-10.593
		c4.414-15.007,10.593-37.076,27.366-53.848s38.841-22.952,53.848-27.366c5.297-1.766,9.71,0.883,11.476,5.297
		c1.766,4.414-1.766,9.71-6.179,10.593c-13.241,3.531-32.662,8.828-45.903,22.952c-14.124,14.124-18.538,32.662-22.952,45.903
		C195.855,139.962,192.324,142.61,188.793,142.61z"/>
	<path d="M207.331,348.293c-2.648,0-4.414-0.883-6.179-2.648l-37.076-37.076c-1.766-1.766-2.648-3.531-2.648-6.179
		c0-2.648,0.883-4.414,2.648-6.179l37.076-37.076c3.531-3.531,8.828-3.531,12.359,0l37.076,37.076
		c1.766,1.766,2.648,3.531,2.648,6.179c0,2.648-0.883,4.414-2.648,6.179l-37.076,37.076
		C211.745,347.41,209.979,348.293,207.331,348.293z M182.614,302.389l24.717,24.717l24.717-24.717l-24.717-24.717L182.614,302.389z"
		/>
	<path d="M95.221,460.403L95.221,460.403c-2.648,0-4.414-0.883-6.179-2.648l-37.076-37.076c-1.766-1.766-2.648-3.531-2.648-6.179
		c0-2.648,0.883-4.414,2.648-6.179l37.076-37.076c3.531-3.531,8.828-3.531,12.359,0l37.076,37.076
		c1.766,1.766,2.648,3.531,2.648,6.179c0,2.648-0.883,4.414-2.648,6.179L101.4,457.755C99.634,459.52,97.869,460.403,95.221,460.403
		z M70.503,414.499l24.717,24.717l24.717-24.717l-24.717-24.717L70.503,414.499z"/>
	<path d="M382.117,173.506c-2.648,0-4.414-0.883-6.179-2.648l-37.076-37.076c-3.531-3.531-3.531-8.828,0-12.359l42.372-44.138
		c2.648-2.648,6.179-3.531,9.71-1.766c3.531,0.883,5.297,4.414,5.297,7.945v30.014h30.014c3.531,0,7.062,1.766,7.945,5.297
		c1.766,3.531,0.883,7.062-1.766,9.71l-43.255,42.372C386.531,172.624,384.766,173.506,382.117,173.506z M357.4,127.603
		l24.717,24.717l22.069-21.186h-16.772c-5.297,0-8.828-3.531-8.828-8.828v-16.772L357.4,127.603z"/>
	<path d="M44.903,510.72L44.903,510.72c-2.648,0-4.414-0.883-6.179-2.648L1.648,470.996c-3.531-3.531-3.531-8.828,0-12.359
		l249.821-249.821c3.531-3.531,8.828-3.531,12.359,0l37.076,37.076c1.766,1.766,2.648,3.531,2.648,6.179s-0.883,4.414-2.648,6.179
		L51.083,508.072C50.2,509.837,47.552,510.72,44.903,510.72z M20.186,463.934l24.717,24.717l237.462-237.462l-24.717-24.717
		L20.186,463.934z"/>
	<path d="M369.759,245.893c-2.648,0-4.414-0.883-6.179-2.648l-97.103-97.103c-3.531-3.531-3.531-8.828,0-12.359
		s8.828-3.531,12.359,0l97.103,97.103c3.531,3.531,3.531,8.828,0,12.359C374.172,245.01,372.407,245.893,369.759,245.893z"/>
</g>
</svg>