<?xml version="1.0" encoding="iso-8859-1"?>
<!-- Uploaded to: SVG Repo, www.svgrepo.com, Generator: SVG Repo Mixer Tools -->
<svg fill="#000000" height="800px" width="800px" version="1.1" id="Layer_1" xmlns="http://www.w3.org/2000/svg" xmlns:xlink="http://www.w3.org/1999/xlink" 
	 viewBox="0 0 512.535 512.535" xml:space="preserve">
<g transform="translate(1 1)">
	<g>
		<path d="M511,465.187l-49.755-140.974C491.954,293.312,511,250.807,511,204.067c0-93.867-76.8-170.667-170.667-170.667
			c-91.006,0-165.966,72.19-170.452,162.133H87.747l-31.573-31.573c-3.413-3.413-8.533-3.413-11.947,0s-3.413,8.533,0,11.947
			l19.627,19.627H45.08l-31.573-31.573c-3.413-3.413-8.533-3.413-11.947,0s-3.413,8.533,0,11.947l28.16,28.16l-28.16,28.16
			c-3.413,3.413-3.413,8.533,0,11.947c1.707,1.707,3.413,2.56,5.973,2.56s4.267-0.853,5.973-2.56l31.573-31.573h18.773
			l-19.627,19.627c-3.413,3.413-3.413,8.533,0,11.947c1.707,1.707,3.413,2.56,5.973,2.56s4.267-0.853,5.973-2.56l31.573-31.573
			h82.135c2.178,43.682,20.98,83.175,50.17,112.246L170.52,465.187c-1.707,4.267,0.853,9.387,5.12,11.093
			c0.853,0.853,1.707,0.853,2.56,0.853c3.413,0,6.827-2.56,8.533-5.973l47.25-133.874c29.223,23.403,66.224,37.447,106.351,37.447
			c40.432,0,77.69-14.258,107.015-37.983l47.439,134.409c0.853,3.413,4.267,5.973,7.68,5.973c0.853,0,1.707,0,3.413-0.853
			C510.147,474.574,512.707,469.454,511,465.187z M186.976,212.601h25.645c4.375,66.828,59.754,119.467,127.712,119.467
			c70.827,0,128-57.173,128-128s-57.173-128-128-128c-67.958,0-123.336,52.638-127.712,119.467h-25.645
			c4.467-80.551,71.74-145.067,153.357-145.067c84.48,0,153.6,69.12,153.6,153.6s-69.12,153.6-153.6,153.6
			C258.717,357.667,191.443,293.152,186.976,212.601z M255.43,212.601c4.317,42.966,40.849,76.8,84.903,76.8
			c46.933,0,85.333-38.4,85.333-85.333s-38.4-85.333-85.333-85.333c-44.054,0-80.586,33.834-84.903,76.8h-25.71
			c4.332-57.425,52.044-102.4,110.612-102.4c61.44,0,110.933,49.493,110.933,110.933s-49.493,110.933-110.933,110.933
			c-58.568,0-106.28-44.975-110.612-102.4H255.43z M298.492,212.601c3.86,19.681,20.878,34.133,41.841,34.133
			c23.893,0,42.667-18.773,42.667-42.667s-18.773-42.667-42.667-42.667c-20.963,0-37.981,14.452-41.841,34.133h-25.869
			c4.235-33.555,33.054-59.733,67.71-59.733c37.547,0,68.267,30.72,68.267,68.267s-30.72,68.267-68.267,68.267
			c-34.656,0-63.475-26.178-67.71-59.733H298.492z M340.333,195.534h-24.224c3.391-10.103,12.734-17.067,24.224-17.067
			c14.507,0,25.6,11.093,25.6,25.6s-11.093,25.6-25.6,25.6c-11.491,0-20.833-6.963-24.224-17.067h24.224
			c5.12,0,8.533-3.413,8.533-8.533S345.453,195.534,340.333,195.534z"/>
	</g>
</g>
</svg>