<?xml version="1.0" encoding="iso-8859-1"?>
<!-- Uploaded to: SVG Repo, www.svgrepo.com, Generator: SVG Repo Mixer Tools -->
<svg fill="#000000" height="800px" width="800px" version="1.1" id="Layer_1" xmlns="http://www.w3.org/2000/svg" xmlns:xlink="http://www.w3.org/1999/xlink" 
	 viewBox="0 0 512.012 512.012" xml:space="preserve">
<g>
	<g>
		<path d="M509.724,54.116c-2.731-5.376-7.616-9.344-13.44-10.944L418.801,22.03c-106.496-29.035-219.093-29.035-325.589,0
			L15.729,43.171c-5.824,1.6-10.709,5.568-13.44,10.944c-2.709,5.376-3.029,11.669-0.875,17.301
			C41.99,176.953,116.273,337.529,239.878,503.182c4.053,5.397,10.368,8.576,17.109,8.576h0.021c6.72,0,13.077-3.2,17.109-8.597
			c96.704-130.091,176.256-275.349,236.48-431.744C512.753,65.785,512.433,59.513,509.724,54.116z M320.006,191.758h-42.667v85.333
			c0,11.776-9.536,21.333-21.333,21.333c-11.797,0-21.333-9.557-21.333-21.333v-85.333h-42.667
			c-11.797,0-21.333-9.557-21.333-21.333s9.536-21.333,21.333-21.333h42.667v-42.667c0-11.776,9.536-21.333,21.333-21.333
			c11.797,0,21.333,9.557,21.333,21.333v42.667h42.667c11.797,0,21.333,9.557,21.333,21.333S331.803,191.758,320.006,191.758z"/>
	</g>
</g>
</svg>