<?xml version="1.0" encoding="iso-8859-1"?>
<!-- Uploaded to: SVG Repo, www.svgrepo.com, Generator: SVG Repo Mixer Tools -->
<svg fill="#000000" height="800px" width="800px" version="1.1" id="Layer_1" xmlns="http://www.w3.org/2000/svg" xmlns:xlink="http://www.w3.org/1999/xlink" 
	 viewBox="0 0 512 512" xml:space="preserve">
<g>
	<g>
		<path d="M490.667,426.667h-33.835L414.165,384h12.501c11.797,0,21.333-9.557,21.333-21.333s-9.536-21.333-21.333-21.333h-55.168
			l-94.656-94.656L392.96,130.56c0,0.021,0.213,0.128,0.213,0.128c0.597,0.469,1.237,0.875,1.92,1.28l3.307,1.92
			c0.747,0.427,1.493,0.811,2.283,1.152c44.907,19.328,69.291,10.517,88.661,0.789c11.179-5.611,18.816-16.341,20.459-28.693
			c1.643-12.309-2.923-24.597-12.203-32.853c-10.944-9.771-26.837-12.181-40.469-6.123c-10.773,4.779-15.637,17.387-10.859,28.16
			c1.28,2.923,3.157,5.419,5.44,7.381c-7.829,0.491-18.133-1.088-33.003-7.36l-1.813-1.067
			c-9.792-6.315-64.96-38.336-170.347-31.723c-0.875,0.043-1.728,0.149-2.581,0.32c-8.853,1.579-50.048,11.179-97.088,52.843
			L72.832,42.667h33.835c11.797,0,21.333-9.557,21.333-21.333S118.464,0,106.667,0H21.333c-2.773,0-5.547,0.576-8.149,1.643
			C7.957,3.797,3.797,7.957,1.643,13.184C0.576,15.787,0,18.56,0,21.333v85.333C0,118.443,9.536,128,21.333,128
			c11.797,0,21.333-9.557,21.333-21.333V72.832l73.344,73.344C62.528,201.28,59.221,253.44,59.072,259.008
			c-6.507,102.933,22.784,156.437,30.165,168.128c4.352,10.411,6.443,18.005,7.061,23.936c-1.195-1.173-2.539-2.197-4.075-3.072
			c-10.091-5.973-23.211-2.581-29.184,7.573c-7.872,13.44-6.037,30.229,4.629,41.856l2.091,2.261
			c6.763,7.616,16.597,11.968,26.709,11.968c0.981,0,1.963-0.043,2.944-0.128c11.2-0.939,21.013-6.912,26.944-16.363
			c11.584-18.432,21.248-40.299,1.365-86.549c-0.619-1.429-1.387-2.795-2.304-4.053c-0.043-0.064-0.981-1.493-2.389-4.075
			l123.648-123.648l94.656,94.656v55.168c0,11.776,9.536,21.333,21.333,21.333S384,438.443,384,426.667v-12.501l42.667,42.667
			v33.835c0,11.776,9.536,21.333,21.333,21.333c11.797,0,21.333-9.557,21.333-21.333v-21.333h21.333
			c11.797,0,21.333-9.557,21.333-21.333S502.464,426.667,490.667,426.667z"/>
	</g>
</g>
</svg>