<?xml version="1.0" encoding="iso-8859-1"?>
<!-- Uploaded to: SVG Repo, www.svgrepo.com, Generator: SVG Repo Mixer Tools -->
<svg height="800px" width="800px" version="1.1" id="Layer_1" xmlns="http://www.w3.org/2000/svg" xmlns:xlink="http://www.w3.org/1999/xlink" 
	 viewBox="0 0 512 512" xml:space="preserve">
<g transform="translate(1 1)">
	<g>
		<polygon style="fill:#FDCC00;" points="101.4,50.2 135.533,50.2 135.533,7.533 101.4,7.533 		"/>
		<polygon style="fill:#FDCC00;" points="169.667,50.2 203.8,50.2 203.8,7.533 169.667,7.533 		"/>
		<polygon style="fill:#FDCC00;" points="306.2,50.2 340.333,50.2 340.333,7.533 306.2,7.533 		"/>
		<polygon style="fill:#FDCC00;" points="237.933,50.2 272.067,50.2 272.067,7.533 237.933,7.533 		"/>
		<polygon style="fill:#FDCC00;" points="374.467,50.2 408.6,50.2 408.6,7.533 374.467,7.533 		"/>
	</g>
	<g>
		<polygon style="fill:#FFE100;" points="127,161.133 383,161.133 383,101.4 127,101.4 		"/>
		<polygon style="fill:#FFE100;" points="383,101.4 127,101.4 101.4,50.2 408.6,50.2 		"/>
		<polygon style="fill:#FFE100;" points="127,502.467 383,502.467 383,161.133 127,161.133 		"/>
	</g>
	<g>
		<polygon style="fill:#FFA800;" points="357.4,161.133 383,161.133 383,101.4 357.4,101.4 		"/>
		<polygon style="fill:#FFA800;" points="383,50.2 357.4,101.4 383,101.4 408.6,50.2 		"/>
		<polygon style="fill:#FFA800;" points="357.4,502.467 383,502.467 383,161.133 357.4,161.133 		"/>
	</g>
	<g>
		<polygon style="fill:#FFE100;" points="7.533,502.467 127,502.467 127,374.467 7.533,374.467 		"/>
		<polygon style="fill:#FFE100;" points="383,502.467 502.467,502.467 502.467,374.467 383,374.467 		"/>
	</g>
	<polygon style="fill:#FFA800;" points="476.867,502.467 502.467,502.467 502.467,374.467 476.867,374.467 	"/>
	<polygon style="fill:#FFFFFF;" points="7.533,502.467 33.133,502.467 33.133,374.467 7.533,374.467 	"/>
	<g>
		<path style="fill:#63D3FD;" d="M280.6,502.467h-51.2v-85.333c0-14.507,11.093-25.6,25.6-25.6c14.507,0,25.6,11.093,25.6,25.6
			V502.467z"/>
		<path style="fill:#63D3FD;" d="M272.067,323.267h-34.133v-51.2c0-9.387,7.68-17.067,17.067-17.067s17.067,7.68,17.067,17.067
			V323.267z"/>
		<path style="fill:#63D3FD;" d="M195.267,374.467h-34.133v-51.2c0-9.387,7.68-17.067,17.067-17.067s17.067,7.68,17.067,17.067
			V374.467z"/>
		<path style="fill:#63D3FD;" d="M348.867,263.533h-34.133v-51.2c0-9.387,7.68-17.067,17.067-17.067s17.067,7.68,17.067,17.067
			V263.533z"/>
	</g>
	<path d="M383,169.667H127c-5.12,0-8.533-3.413-8.533-8.533V101.4c0-5.12,3.413-8.533,8.533-8.533h256
		c5.12,0,8.533,3.413,8.533,8.533v59.733C391.533,166.253,388.12,169.667,383,169.667z M135.533,152.6h238.933v-42.667H135.533
		V152.6z"/>
	<path d="M383,511H127c-5.12,0-8.533-3.413-8.533-8.533V161.133c0-5.12,3.413-8.533,8.533-8.533h256c5.12,0,8.533,3.413,8.533,8.533
		v341.333C391.533,507.587,388.12,511,383,511z M135.533,493.933h238.933V169.667H135.533V493.933z"/>
	<path d="M383,109.933H127c-3.413,0-5.973-1.707-7.68-5.12l-25.6-51.2c-1.707-2.56-0.853-5.973,0-8.533
		c1.707-1.707,5.12-3.413,7.68-3.413h307.2c2.56,0,5.973,1.707,7.68,4.267s1.707,5.973,0,8.533l-25.6,51.2
		C388.973,108.227,386.413,109.933,383,109.933z M132.12,92.867h245.76l17.067-34.133H115.053L132.12,92.867z"/>
	<path d="M135.533,58.733H101.4c-5.12,0-8.533-3.413-8.533-8.533V7.533C92.867,2.413,96.28-1,101.4-1h34.133
		c5.12,0,8.533,3.413,8.533,8.533V50.2C144.067,55.32,140.653,58.733,135.533,58.733z M109.933,41.667H127v-25.6h-17.067V41.667z"/>
	<path d="M203.8,58.733h-34.133c-5.12,0-8.533-3.413-8.533-8.533V7.533c0-5.12,3.413-8.533,8.533-8.533H203.8
		c5.12,0,8.533,3.413,8.533,8.533V50.2C212.333,55.32,208.92,58.733,203.8,58.733z M178.2,41.667h17.067v-25.6H178.2V41.667z"/>
	<path d="M340.333,58.733H306.2c-5.12,0-8.533-3.413-8.533-8.533V7.533c0-5.12,3.413-8.533,8.533-8.533h34.133
		c5.12,0,8.533,3.413,8.533,8.533V50.2C348.867,55.32,345.453,58.733,340.333,58.733z M314.733,41.667H331.8v-25.6h-17.067V41.667z"
		/>
	<path d="M272.067,58.733h-34.133c-5.12,0-8.533-3.413-8.533-8.533V7.533c0-5.12,3.413-8.533,8.533-8.533h34.133
		c5.12,0,8.533,3.413,8.533,8.533V50.2C280.6,55.32,277.187,58.733,272.067,58.733z M246.467,41.667h17.067v-25.6h-17.067V41.667z"
		/>
	<path d="M408.6,58.733h-34.133c-5.12,0-8.533-3.413-8.533-8.533V7.533c0-5.12,3.413-8.533,8.533-8.533H408.6
		c5.12,0,8.533,3.413,8.533,8.533V50.2C417.133,55.32,413.72,58.733,408.6,58.733z M383,41.667h17.067v-25.6H383V41.667z"/>
	<path d="M169.667,169.667c-5.12,0-8.533-3.413-8.533-8.533v-25.6c0-5.12,3.413-8.533,8.533-8.533c5.12,0,8.533,3.413,8.533,8.533
		v25.6C178.2,166.253,174.787,169.667,169.667,169.667z"/>
	<path d="M24.6,383c-5.12,0-8.533-3.413-8.533-8.533v-25.6c0-5.12,3.413-8.533,8.533-8.533s8.533,3.413,8.533,8.533v25.6
		C33.133,379.587,29.72,383,24.6,383z"/>
	<path d="M58.733,383c-5.12,0-8.533-3.413-8.533-8.533v-25.6c0-5.12,3.413-8.533,8.533-8.533s8.533,3.413,8.533,8.533v25.6
		C67.267,379.587,63.853,383,58.733,383z"/>
	<path d="M92.867,383c-5.12,0-8.533-3.413-8.533-8.533v-25.6c0-5.12,3.413-8.533,8.533-8.533s8.533,3.413,8.533,8.533v25.6
		C101.4,379.587,97.987,383,92.867,383z"/>
	<path d="M417.133,383c-5.12,0-8.533-3.413-8.533-8.533v-25.6c0-5.12,3.413-8.533,8.533-8.533s8.533,3.413,8.533,8.533v25.6
		C425.667,379.587,422.253,383,417.133,383z"/>
	<path d="M451.267,383c-5.12,0-8.533-3.413-8.533-8.533v-25.6c0-5.12,3.413-8.533,8.533-8.533s8.533,3.413,8.533,8.533v25.6
		C459.8,379.587,456.387,383,451.267,383z"/>
	<path d="M485.4,383c-5.12,0-8.533-3.413-8.533-8.533v-25.6c0-5.12,3.413-8.533,8.533-8.533s8.533,3.413,8.533,8.533v25.6
		C493.933,379.587,490.52,383,485.4,383z"/>
	<path d="M212.333,169.667c-5.12,0-8.533-3.413-8.533-8.533v-25.6c0-5.12,3.413-8.533,8.533-8.533c5.12,0,8.533,3.413,8.533,8.533
		v25.6C220.867,166.253,217.453,169.667,212.333,169.667z"/>
	<path d="M255,169.667c-5.12,0-8.533-3.413-8.533-8.533v-25.6c0-5.12,3.413-8.533,8.533-8.533s8.533,3.413,8.533,8.533v25.6
		C263.533,166.253,260.12,169.667,255,169.667z"/>
	<path d="M297.667,169.667c-5.12,0-8.533-3.413-8.533-8.533v-25.6c0-5.12,3.413-8.533,8.533-8.533s8.533,3.413,8.533,8.533v25.6
		C306.2,166.253,302.787,169.667,297.667,169.667z"/>
	<path d="M340.333,169.667c-5.12,0-8.533-3.413-8.533-8.533v-25.6c0-5.12,3.413-8.533,8.533-8.533c5.12,0,8.533,3.413,8.533,8.533
		v25.6C348.867,166.253,345.453,169.667,340.333,169.667z"/>
	<path d="M280.6,511h-51.2c-5.12,0-8.533-3.413-8.533-8.533v-85.333C220.867,398.36,236.227,383,255,383s34.133,15.36,34.133,34.133
		v85.333C289.133,507.587,285.72,511,280.6,511z M237.933,493.933h34.133v-76.8c0-9.387-7.68-17.067-17.067-17.067
		s-17.067,7.68-17.067,17.067V493.933z"/>
	<path d="M272.067,331.8h-34.133c-5.12,0-8.533-3.413-8.533-8.533v-51.2c0-14.507,11.093-25.6,25.6-25.6
		c14.507,0,25.6,11.093,25.6,25.6v51.2C280.6,328.387,277.187,331.8,272.067,331.8z M246.467,314.733h17.067v-42.667
		c0-5.12-3.413-8.533-8.533-8.533s-8.533,3.413-8.533,8.533V314.733z"/>
	<path d="M195.267,383h-34.133c-5.12,0-8.533-3.413-8.533-8.533v-51.2c0-14.507,11.093-25.6,25.6-25.6
		c14.507,0,25.6,11.093,25.6,25.6v51.2C203.8,379.587,200.387,383,195.267,383z M169.667,365.933h17.067v-42.667
		c0-5.12-3.413-8.533-8.533-8.533c-5.12,0-8.533,3.413-8.533,8.533V365.933z"/>
	<path d="M348.867,272.067h-34.133c-5.12,0-8.533-3.413-8.533-8.533v-51.2c0-14.507,11.093-25.6,25.6-25.6s25.6,11.093,25.6,25.6
		v51.2C357.4,268.653,353.987,272.067,348.867,272.067z M323.267,255h17.067v-42.667c0-5.12-3.413-8.533-8.533-8.533
		s-8.533,3.413-8.533,8.533V255z"/>
	<path d="M229.4,212.333h-34.133c-5.12,0-8.533-3.413-8.533-8.533c0-5.12,3.413-8.533,8.533-8.533H229.4
		c5.12,0,8.533,3.413,8.533,8.533C237.933,208.92,234.52,212.333,229.4,212.333z"/>
	<path d="M152.6,203.8c0-5.12,3.413-8.533,8.533-8.533c5.12,0,8.533,3.413,8.533,8.533c0,5.12-3.413,8.533-8.533,8.533
		C156.013,212.333,152.6,208.92,152.6,203.8"/>
	<path d="M314.733,365.933H280.6c-5.12,0-8.533-3.413-8.533-8.533s3.413-8.533,8.533-8.533h34.133c5.12,0,8.533,3.413,8.533,8.533
		S319.853,365.933,314.733,365.933z"/>
	<path d="M357.4,357.4c0,5.12-3.413,8.533-8.533,8.533c-5.12,0-8.533-3.413-8.533-8.533s3.413-8.533,8.533-8.533
		C353.987,348.867,357.4,352.28,357.4,357.4"/>
	<path d="M127,511H7.533C2.413,511-1,507.587-1,502.467v-128c0-5.12,3.413-8.533,8.533-8.533H127c5.12,0,8.533,3.413,8.533,8.533
		v128C135.533,507.587,132.12,511,127,511z M16.067,493.933h102.4V383h-102.4V493.933z"/>
	<path d="M502.467,511H383c-5.12,0-8.533-3.413-8.533-8.533v-128c0-5.12,3.413-8.533,8.533-8.533h119.467
		c5.12,0,8.533,3.413,8.533,8.533v128C511,507.587,507.587,511,502.467,511z M391.533,493.933h102.4V383h-102.4V493.933z"/>
</g>
</svg>