<?xml version="1.0" encoding="iso-8859-1"?>
<!-- Uploaded to: SVG Repo, www.svgrepo.com, Generator: SVG Repo Mixer Tools -->
<svg height="800px" width="800px" version="1.1" id="Layer_1" xmlns="http://www.w3.org/2000/svg" xmlns:xlink="http://www.w3.org/1999/xlink" 
	 viewBox="0 0 512 512" xml:space="preserve">
<g transform="translate(1 1)">
	<path style="fill:#FDCC00;" d="M459.8,7.533L459.8,7.533c23.893,0,42.667,18.773,42.667,42.667v196.267h-85.333V50.2
		C417.133,27.16,435.907,7.533,459.8,7.533"/>
	<path style="fill:#FFA800;" d="M459.8,7.533c-4.267,0-8.533,0.853-12.8,2.56c17.067,5.12,29.867,21.333,29.867,40.107v196.267h25.6
		V50.2C502.467,27.16,483.693,7.533,459.8,7.533"/>
	<path style="fill:#FDCC00;" d="M374.467,502.467H50.2c-23.893,0-42.667-18.773-42.667-42.667v-17.067H331.8V459.8
		C331.8,483.693,350.573,502.467,374.467,502.467c23.893,0,42.667-18.773,42.667-42.667"/>
	<path style="fill:#FFFFFF;" d="M33.133,459.8v-17.067h-25.6V459.8c0,23.893,18.773,42.667,42.667,42.667h25.6
		C51.907,502.467,33.133,483.693,33.133,459.8"/>
	<path style="fill:#FFE100;" d="M50.2,442.733V50.2c0-23.893,18.773-42.667,42.667-42.667h273.067h51.2H459.8
		c-23.893,0-42.667,18.773-42.667,42.667v93.867V203.8v256c0,23.893-18.773,42.667-42.667,42.667
		c-23.893,0-42.667-18.773-42.667-42.667v-17.067H50.2z"/>
	<path style="fill:#FFFFFF;" d="M118.467,7.533h-25.6C68.973,7.533,50.2,26.307,50.2,50.2v392.533h25.6V50.2
		C75.8,26.307,94.573,7.533,118.467,7.533"/>
	<path d="M511,255H408.6V50.2c0-28.16,23.04-51.2,51.2-51.2S511,22.04,511,50.2V255z M425.667,237.933h68.267V50.2
		c0-18.773-15.36-34.133-34.133-34.133s-34.133,15.36-34.133,34.133V237.933z"/>
	<path d="M374.467,511c-28.16,0-51.2-23.04-51.2-51.2v-8.533h-281.6V50.2c0-28.16,23.04-51.2,51.2-51.2H459.8v17.067
		c-18.773,0-34.133,15.36-34.133,34.133v409.6C425.667,487.96,402.627,511,374.467,511z M58.733,434.2h281.6v25.6
		c0,18.773,15.36,34.133,34.133,34.133c18.773,0,34.133-15.36,34.133-34.133V50.2c0-12.8,5.12-24.747,12.8-34.133H92.867
		c-18.773,0-34.133,15.36-34.133,34.133V434.2z"/>
	<path d="M374.467,511H50.2C22.04,511-1,487.96-1,459.8v-25.6h341.333v25.6c0,18.773,15.36,34.133,34.133,34.133
		c18.773,0,34.133-15.36,34.133-34.133c0-5.12,3.413-8.533,8.533-8.533s8.533,3.413,8.533,8.533
		C425.667,487.96,402.627,511,374.467,511z M16.067,451.267v8.533c0,18.773,15.36,34.133,34.133,34.133h285.867
		c-8.533-9.387-12.8-21.333-12.8-34.133v-8.533H16.067z"/>
	<path d="M263.533,127h-68.267c-5.12,0-8.533-3.413-8.533-8.533s3.413-8.533,8.533-8.533h68.267c5.12,0,8.533,3.413,8.533,8.533
		S268.653,127,263.533,127z"/>
	<path d="M169.667,118.467c0,5.12-3.413,8.533-8.533,8.533c-5.12,0-8.533-3.413-8.533-8.533s3.413-8.533,8.533-8.533
		C166.253,109.933,169.667,113.347,169.667,118.467"/>
	<path d="M127,127H92.867c-5.12,0-8.533-3.413-8.533-8.533s3.413-8.533,8.533-8.533H127c5.12,0,8.533,3.413,8.533,8.533
		S132.12,127,127,127z"/>
	<path d="M374.467,127H331.8c-5.12,0-8.533-3.413-8.533-8.533s3.413-8.533,8.533-8.533h42.667c5.12,0,8.533,3.413,8.533,8.533
		S379.587,127,374.467,127z"/>
	<path d="M306.2,118.467c0,5.12-3.413,8.533-8.533,8.533s-8.533-3.413-8.533-8.533s3.413-8.533,8.533-8.533
		S306.2,113.347,306.2,118.467"/>
	<path d="M161.133,84.333H127c-5.12,0-8.533-3.413-8.533-8.533s3.413-8.533,8.533-8.533h34.133c5.12,0,8.533,3.413,8.533,8.533
		C169.667,80.92,166.253,84.333,161.133,84.333z"/>
	<path d="M84.333,75.8c0-5.12,3.413-8.533,8.533-8.533S101.4,70.68,101.4,75.8c0,5.12-3.413,8.533-8.533,8.533
		S84.333,80.92,84.333,75.8"/>
	<path d="M365.933,75.8c0-5.12,3.413-8.533,8.533-8.533c5.12,0,8.533,3.413,8.533,8.533c0,5.12-3.413,8.533-8.533,8.533
		C369.347,84.333,365.933,80.92,365.933,75.8"/>
	<path d="M340.333,84.333h-25.6c-5.12,0-8.533-3.413-8.533-8.533s3.413-8.533,8.533-8.533h25.6c5.12,0,8.533,3.413,8.533,8.533
		C348.867,80.92,345.453,84.333,340.333,84.333z"/>
	<path d="M272.067,75.8c0-5.12,3.413-8.533,8.533-8.533s8.533,3.413,8.533,8.533c0,5.12-3.413,8.533-8.533,8.533
		S272.067,80.92,272.067,75.8"/>
	<path d="M186.733,75.8c0-5.12,3.413-8.533,8.533-8.533c5.12,0,8.533,3.413,8.533,8.533c0,5.12-3.413,8.533-8.533,8.533
		C190.147,84.333,186.733,80.92,186.733,75.8"/>
	<path d="M246.467,84.333H229.4c-5.12,0-8.533-3.413-8.533-8.533s3.413-8.533,8.533-8.533h17.067c5.12,0,8.533,3.413,8.533,8.533
		C255,80.92,251.587,84.333,246.467,84.333z"/>
	<path d="M161.133,169.667H127c-5.12,0-8.533-3.413-8.533-8.533c0-5.12,3.413-8.533,8.533-8.533h34.133
		c5.12,0,8.533,3.413,8.533,8.533C169.667,166.253,166.253,169.667,161.133,169.667z"/>
	<path d="M84.333,161.133c0-5.12,3.413-8.533,8.533-8.533s8.533,3.413,8.533,8.533c0,5.12-3.413,8.533-8.533,8.533
		S84.333,166.253,84.333,161.133"/>
	<path d="M365.933,161.133c0-5.12,3.413-8.533,8.533-8.533c5.12,0,8.533,3.413,8.533,8.533c0,5.12-3.413,8.533-8.533,8.533
		C369.347,169.667,365.933,166.253,365.933,161.133"/>
	<path d="M340.333,169.667h-25.6c-5.12,0-8.533-3.413-8.533-8.533c0-5.12,3.413-8.533,8.533-8.533h25.6
		c5.12,0,8.533,3.413,8.533,8.533C348.867,166.253,345.453,169.667,340.333,169.667z"/>
	<path d="M272.067,161.133c0-5.12,3.413-8.533,8.533-8.533s8.533,3.413,8.533,8.533c0,5.12-3.413,8.533-8.533,8.533
		S272.067,166.253,272.067,161.133"/>
	<path d="M186.733,161.133c0-5.12,3.413-8.533,8.533-8.533c5.12,0,8.533,3.413,8.533,8.533c0,5.12-3.413,8.533-8.533,8.533
		C190.147,169.667,186.733,166.253,186.733,161.133"/>
	<path d="M246.467,169.667H229.4c-5.12,0-8.533-3.413-8.533-8.533c0-5.12,3.413-8.533,8.533-8.533h17.067
		c5.12,0,8.533,3.413,8.533,8.533C255,166.253,251.587,169.667,246.467,169.667z"/>
	<path d="M263.533,212.333h-68.267c-5.12,0-8.533-3.413-8.533-8.533c0-5.12,3.413-8.533,8.533-8.533h68.267
		c5.12,0,8.533,3.413,8.533,8.533C272.067,208.92,268.653,212.333,263.533,212.333z"/>
	<path d="M169.667,203.8c0,5.12-3.413,8.533-8.533,8.533c-5.12,0-8.533-3.413-8.533-8.533c0-5.12,3.413-8.533,8.533-8.533
		C166.253,195.267,169.667,198.68,169.667,203.8"/>
	<path d="M127,212.333H92.867c-5.12,0-8.533-3.413-8.533-8.533c0-5.12,3.413-8.533,8.533-8.533H127c5.12,0,8.533,3.413,8.533,8.533
		C135.533,208.92,132.12,212.333,127,212.333z"/>
	<path d="M374.467,212.333H331.8c-5.12,0-8.533-3.413-8.533-8.533c0-5.12,3.413-8.533,8.533-8.533h42.667
		c5.12,0,8.533,3.413,8.533,8.533C383,208.92,379.587,212.333,374.467,212.333z"/>
	<path d="M306.2,203.8c0,5.12-3.413,8.533-8.533,8.533s-8.533-3.413-8.533-8.533c0-5.12,3.413-8.533,8.533-8.533
		S306.2,198.68,306.2,203.8"/>
	<path d="M161.133,255H127c-5.12,0-8.533-3.413-8.533-8.533c0-5.12,3.413-8.533,8.533-8.533h34.133c5.12,0,8.533,3.413,8.533,8.533
		C169.667,251.587,166.253,255,161.133,255z"/>
	<path d="M84.333,246.467c0-5.12,3.413-8.533,8.533-8.533s8.533,3.413,8.533,8.533c0,5.12-3.413,8.533-8.533,8.533
		S84.333,251.587,84.333,246.467"/>
	<path d="M365.933,246.467c0-5.12,3.413-8.533,8.533-8.533c5.12,0,8.533,3.413,8.533,8.533c0,5.12-3.413,8.533-8.533,8.533
		C369.347,255,365.933,251.587,365.933,246.467"/>
	<path d="M340.333,255h-25.6c-5.12,0-8.533-3.413-8.533-8.533c0-5.12,3.413-8.533,8.533-8.533h25.6c5.12,0,8.533,3.413,8.533,8.533
		C348.867,251.587,345.453,255,340.333,255z"/>
	<path d="M272.067,246.467c0-5.12,3.413-8.533,8.533-8.533s8.533,3.413,8.533,8.533c0,5.12-3.413,8.533-8.533,8.533
		S272.067,251.587,272.067,246.467"/>
	<path d="M186.733,246.467c0-5.12,3.413-8.533,8.533-8.533c5.12,0,8.533,3.413,8.533,8.533c0,5.12-3.413,8.533-8.533,8.533
		C190.147,255,186.733,251.587,186.733,246.467"/>
	<path d="M246.467,255H229.4c-5.12,0-8.533-3.413-8.533-8.533c0-5.12,3.413-8.533,8.533-8.533h17.067
		c5.12,0,8.533,3.413,8.533,8.533C255,251.587,251.587,255,246.467,255z"/>
	<path d="M161.133,297.667H127c-5.12,0-8.533-3.413-8.533-8.533c0-5.12,3.413-8.533,8.533-8.533h34.133
		c5.12,0,8.533,3.413,8.533,8.533C169.667,294.253,166.253,297.667,161.133,297.667z"/>
	<path d="M84.333,289.133c0-5.12,3.413-8.533,8.533-8.533s8.533,3.413,8.533,8.533c0,5.12-3.413,8.533-8.533,8.533
		S84.333,294.253,84.333,289.133"/>
	<path d="M365.933,289.133c0-5.12,3.413-8.533,8.533-8.533c5.12,0,8.533,3.413,8.533,8.533c0,5.12-3.413,8.533-8.533,8.533
		C369.347,297.667,365.933,294.253,365.933,289.133"/>
	<path d="M340.333,297.667h-25.6c-5.12,0-8.533-3.413-8.533-8.533c0-5.12,3.413-8.533,8.533-8.533h25.6
		c5.12,0,8.533,3.413,8.533,8.533C348.867,294.253,345.453,297.667,340.333,297.667z"/>
	<path d="M272.067,289.133c0-5.12,3.413-8.533,8.533-8.533s8.533,3.413,8.533,8.533c0,5.12-3.413,8.533-8.533,8.533
		S272.067,294.253,272.067,289.133"/>
	<path d="M186.733,289.133c0-5.12,3.413-8.533,8.533-8.533c5.12,0,8.533,3.413,8.533,8.533c0,5.12-3.413,8.533-8.533,8.533
		C190.147,297.667,186.733,294.253,186.733,289.133"/>
	<path d="M246.467,297.667H229.4c-5.12,0-8.533-3.413-8.533-8.533c0-5.12,3.413-8.533,8.533-8.533h17.067
		c5.12,0,8.533,3.413,8.533,8.533C255,294.253,251.587,297.667,246.467,297.667z"/>
	<path d="M263.533,340.333h-68.267c-5.12,0-8.533-3.413-8.533-8.533s3.413-8.533,8.533-8.533h68.267c5.12,0,8.533,3.413,8.533,8.533
		S268.653,340.333,263.533,340.333z"/>
	<path d="M169.667,331.8c0,5.12-3.413,8.533-8.533,8.533c-5.12,0-8.533-3.413-8.533-8.533s3.413-8.533,8.533-8.533
		C166.253,323.267,169.667,326.68,169.667,331.8"/>
	<path d="M127,340.333H92.867c-5.12,0-8.533-3.413-8.533-8.533s3.413-8.533,8.533-8.533H127c5.12,0,8.533,3.413,8.533,8.533
		S132.12,340.333,127,340.333z"/>
	<path d="M374.467,340.333H331.8c-5.12,0-8.533-3.413-8.533-8.533s3.413-8.533,8.533-8.533h42.667c5.12,0,8.533,3.413,8.533,8.533
		S379.587,340.333,374.467,340.333z"/>
	<path d="M306.2,331.8c0,5.12-3.413,8.533-8.533,8.533s-8.533-3.413-8.533-8.533s3.413-8.533,8.533-8.533S306.2,326.68,306.2,331.8"
		/>
	<path d="M161.133,383H127c-5.12,0-8.533-3.413-8.533-8.533c0-5.12,3.413-8.533,8.533-8.533h34.133c5.12,0,8.533,3.413,8.533,8.533
		C169.667,379.587,166.253,383,161.133,383z"/>
	<path d="M84.333,374.467c0-5.12,3.413-8.533,8.533-8.533s8.533,3.413,8.533,8.533c0,5.12-3.413,8.533-8.533,8.533
		S84.333,379.587,84.333,374.467"/>
	<path d="M365.933,374.467c0-5.12,3.413-8.533,8.533-8.533c5.12,0,8.533,3.413,8.533,8.533c0,5.12-3.413,8.533-8.533,8.533
		C369.347,383,365.933,379.587,365.933,374.467"/>
	<path d="M340.333,383h-25.6c-5.12,0-8.533-3.413-8.533-8.533c0-5.12,3.413-8.533,8.533-8.533h25.6c5.12,0,8.533,3.413,8.533,8.533
		C348.867,379.587,345.453,383,340.333,383z"/>
	<path d="M272.067,374.467c0-5.12,3.413-8.533,8.533-8.533s8.533,3.413,8.533,8.533c0,5.12-3.413,8.533-8.533,8.533
		S272.067,379.587,272.067,374.467"/>
	<path d="M186.733,374.467c0-5.12,3.413-8.533,8.533-8.533c5.12,0,8.533,3.413,8.533,8.533c0,5.12-3.413,8.533-8.533,8.533
		C190.147,383,186.733,379.587,186.733,374.467"/>
	<path d="M246.467,383H229.4c-5.12,0-8.533-3.413-8.533-8.533c0-5.12,3.413-8.533,8.533-8.533h17.067
		c5.12,0,8.533,3.413,8.533,8.533C255,379.587,251.587,383,246.467,383z"/>
</g>
</svg>