<?xml version="1.0" encoding="iso-8859-1"?>
<!-- Uploaded to: SVG Repo, www.svgrepo.com, Generator: SVG Repo Mixer Tools -->
<svg fill="#000000" height="800px" width="800px" version="1.1" id="Layer_1" xmlns="http://www.w3.org/2000/svg" xmlns:xlink="http://www.w3.org/1999/xlink" 
	 viewBox="0 0 512.011 512.011" xml:space="preserve">
<g>
	<g>
		<g>
			<path d="M387.717,405.504l17.661-0.036c11.782-0.024,21.314-9.595,21.289-21.377c-0.024-11.782-9.595-21.314-21.377-21.289
				l-23.096,0.048c1.185-6.996,1.811-14.182,1.811-21.516c0-47.37-25.744-88.733-64-110.867V109.293l20.696-82.785
				C344.068,13.043,333.884,0,320.006,0h-128c-13.879,0-24.063,13.043-20.696,26.507l20.696,82.785v121.173
				c-38.256,22.135-64,63.498-64,110.867c0,7.333,0.626,14.519,1.811,21.516l-23.096-0.048
				c-11.782-0.024-21.353,9.507-21.377,21.289c-0.024,11.782,9.507,21.353,21.289,21.377l17.661,0.036l-36.81,75.855
				c-5.144,10.6-0.721,23.363,9.879,28.507s23.363,0.721,28.507-9.879l35.285-72.713c23.42,25.832,57.243,42.059,94.851,42.059
				s71.431-16.227,94.851-42.059l35.285,72.713c5.144,10.6,17.907,15.023,28.507,9.879c10.6-5.144,15.023-17.907,9.879-28.507
				L387.717,405.504z M292.682,42.667l-10.667,42.667h-52.02l-10.667-42.667H292.682z M234.672,128h42.667v87.114
				c-4.267-0.716-8.604-1.22-13.003-1.503c-0.186-0.012-0.372-0.024-0.558-0.035c-0.657-0.039-1.316-0.076-1.976-0.105
				c-0.484-0.022-0.968-0.039-1.452-0.055c-0.456-0.015-0.91-0.033-1.367-0.044c-0.991-0.023-1.984-0.038-2.978-0.038
				c-0.994,0-1.986,0.014-2.978,0.038c-0.457,0.01-0.911,0.029-1.367,0.044c-0.484,0.017-0.969,0.033-1.452,0.055
				c-0.66,0.029-1.318,0.066-1.976,0.105c-0.186,0.011-0.372,0.023-0.558,0.035c-4.398,0.283-8.736,0.787-13.003,1.503V128z
				 M256.006,426.667c-47.119,0-85.333-38.214-85.333-85.333c0-34.381,20.357-64.001,49.662-77.514
				c0.518-0.182,1.036-0.378,1.551-0.603c7.379-3.226,15.071-5.402,22.945-6.464c0.241-0.032,0.483-0.063,0.725-0.092
				c0.9-0.113,1.802-0.21,2.707-0.294c0.988-0.089,1.979-0.171,2.976-0.226c0.224-0.013,0.448-0.025,0.673-0.036
				c1.358-0.064,2.722-0.104,4.096-0.104c1.374,0,2.738,0.039,4.096,0.104c0.224,0.011,0.449,0.023,0.673,0.036
				c0.998,0.055,1.988,0.137,2.976,0.226c0.904,0.084,1.807,0.181,2.707,0.294c0.242,0.03,0.483,0.061,0.725,0.092
				c7.874,1.062,15.565,3.238,22.945,6.464c0.515,0.225,1.032,0.422,1.551,0.603c29.305,13.513,49.662,43.133,49.662,77.514
				C341.339,388.453,303.125,426.667,256.006,426.667z"/>
			<path d="M301.252,296.087c-8.331-8.331-21.839-8.331-30.17,0l-15.076,15.076l-15.085-15.085c-8.331-8.331-21.839-8.331-30.17,0
				c-8.331,8.331-8.331,21.839,0,30.17l15.085,15.085l-15.085,15.085c-8.331,8.331-8.331,21.839,0,30.17
				c8.331,8.331,21.839,8.331,30.17,0l15.085-15.085l15.076,15.076c8.331,8.331,21.839,8.331,30.17,0s8.331-21.839,0-30.17
				l-15.076-15.076l15.076-15.076C309.583,317.926,309.583,304.419,301.252,296.087z"/>
		</g>
	</g>
</g>
</svg>