<?xml version="1.0" encoding="iso-8859-1"?>
<!-- Uploaded to: SVG Repo, www.svgrepo.com, Generator: SVG Repo Mixer Tools -->
<svg fill="#000000" height="800px" width="800px" version="1.1" id="Layer_1" xmlns="http://www.w3.org/2000/svg" xmlns:xlink="http://www.w3.org/1999/xlink" 
	 viewBox="0 0 512.005 512.005" xml:space="preserve">
<g>
	<g>
		<path d="M494.936,210.352l-46.933-9.515v-42.667l36.416-36.416c8.341-8.341,8.341-21.824,0-30.165
			c-8.32-8.341-21.824-8.341-30.165,0l-6.251,6.251V72.837l36.416-36.416c8.341-8.341,8.341-21.824,0-30.165
			c-8.32-8.341-21.824-8.341-30.165,0l-7.723,7.723c-3.008-8.107-10.667-13.973-19.861-13.973c-9.173,0-16.832,5.867-19.84,13.973
			l-7.744-7.723c-8.32-8.341-21.824-8.341-30.165,0c-8.32,8.341-8.32,21.824,0,30.165l36.416,36.416V97.84l-6.251-6.251
			c-8.32-8.341-21.824-8.341-30.165,0c-8.32,8.341-8.32,21.824,0,30.165l36.416,36.416v34.005l-106.667-21.632v-12.373
			l36.416-36.416c8.341-8.341,8.341-21.824,0-30.165c-8.32-8.341-21.824-8.341-30.165,0l-6.251,6.251V72.837l36.416-36.416
			c8.341-8.341,8.341-21.824,0-30.165c-8.32-8.341-21.824-8.341-30.165,0l-7.723,7.723c-3.008-8.107-10.667-13.973-19.861-13.973
			c-9.173,0-16.832,5.867-19.84,13.973l-7.744-7.723c-8.32-8.341-21.824-8.341-30.165,0c-8.32,8.341-8.32,21.824,0,30.165
			l36.416,36.416V97.84l-6.251-6.251c-8.32-8.341-21.824-8.341-30.165,0c-8.32,8.341-8.32,21.824,0,30.165l36.416,36.416v3.712
			l-59.733-12.117c-6.272-1.259-12.8,0.341-17.749,4.395c-4.971,4.053-7.851,10.112-7.851,16.512v7.211
			c0,11.669-9.963,21.525-21.76,21.525c-11.52,0-20.907-9.643-20.907-21.525v-71.04c0-35.371-28.693-64.171-64-64.171
			c-35.285,0-64,28.8-64,64.171v167.445c0,60.501,47.573,109.717,106.048,109.717H138.2c18.517,0,32.469,12.693,32.469,29.525
			c0,3.797,1.259,7.168,2.987,10.261c11.285,50.411,55.339,88.213,108.053,88.213h120c60.821,0,110.293-50.88,110.293-113.429
			V231.259C512.003,221.125,504.856,212.379,494.936,210.352z M170.669,348.187c-9.771-4.395-20.757-6.848-32.469-6.848h-32.149
			c-34.347,0-63.381-30.699-63.381-67.051V106.843c0-11.861,9.579-21.504,21.333-21.504c11.776,0,21.333,9.643,21.333,21.504v71.04
			c0,35.392,28.523,64.192,63.573,64.192c7.637,0,14.955-1.344,21.76-3.776V348.187z"/>
	</g>
</g>
</svg>