<?xml version="1.0" encoding="iso-8859-1"?>
<!-- Uploaded to: SVG Repo, www.svgrepo.com, Generator: SVG Repo Mixer Tools -->
<svg height="800px" width="800px" version="1.1" id="Layer_1" xmlns="http://www.w3.org/2000/svg" xmlns:xlink="http://www.w3.org/1999/xlink" 
	 viewBox="0 0 512 512" xml:space="preserve">
<g transform="translate(1 1)">
	<polygon style="fill:#FFE100;" points="92.867,58.733 92.867,144.067 92.867,434.2 255,502.467 417.133,434.2 417.133,152.6 
		417.133,58.733 	"/>
	<polygon style="fill:#FFA800;" points="400.067,58.733 400.067,152.6 400.067,434.2 246.467,499.053 255,502.467 417.133,434.2 
		417.133,152.6 417.133,58.733 	"/>
	<polygon style="fill:#FFFFFF;" points="109.933,58.733 109.933,152.6 109.933,434.2 263.533,499.053 255,502.467 92.867,434.2 
		92.867,152.6 92.867,58.733 	"/>
	<g>
		<path style="fill:#00DA6C;" d="M204.653,297.667c-11.093,16.213-12.8,36.693-5.973,54.613l12.8,34.133
			c0.853,3.413,44.373,5.12,44.373,5.12s43.52-2.56,44.373-5.12l12.8-34.133c6.827-17.92,4.267-38.4-5.973-54.613"/>
		<path style="fill:#00DA6C;" d="M315.587,347.16c9.387-6.827,19.627-15.36,28.16-23.893c14.507-14.507,19.627-35.84,14.507-56.32
			l-8.533-29.013c-23.04-74.24-93.867-68.267-93.867-68.267s-70.827-5.973-93.867,68.267l-8.533,29.013
			c-5.973,19.627,0,41.813,14.507,56.32c8.533,8.533,17.92,17.067,28.16,23.893"/>
		<path style="fill:#00DA6C;" d="M161.987,237.933c9.387-31.573,28.16-48.64,45.227-57.173l-2.56-2.56
			c0,0-24.747-34.133-76.8-34.133c0,0-6.827,58.88,32.427,100.693L161.987,237.933z"/>
		<path style="fill:#00DA6C;" d="M349.72,237.933c-9.387-31.573-28.16-48.64-45.227-57.173l2.56-2.56c0,0,24.747-34.133,76.8-34.133
			c0,0,6.827,58.88-32.427,100.693L349.72,237.933z"/>
	</g>
	<g>
		<path style="fill:#FFE100;" d="M281.453,323.267c0,9.387-11.093,17.067-25.6,17.067c-14.507,0-25.6-7.68-25.6-17.067
			s11.093-17.067,25.6-17.067C269.507,306.2,281.453,313.88,281.453,323.267"/>
		<path style="fill:#FFE100;" d="M502.467,41.667c0-18.773-15.36-34.133-34.133-34.133c-18.773,0-34.133,15.36-34.133,34.133
			S449.56,75.8,468.333,75.8C487.107,75.8,502.467,60.44,502.467,41.667"/>
	</g>
	<path style="fill:#FFA800;" d="M468.333,7.533c-2.56,0-5.973,0.853-8.533,0.853c14.507,3.413,25.6,17.067,25.6,33.28
		s-11.093,29.013-25.6,33.28c2.56,0,5.973,0.853,8.533,0.853c18.773,0,34.133-15.36,34.133-34.133S487.107,7.533,468.333,7.533"/>
	<g>
		<path style="fill:#FFE100;" d="M75.8,41.667c0-18.773-15.36-34.133-34.133-34.133S7.533,22.893,7.533,41.667
			S22.893,75.8,41.667,75.8S75.8,60.44,75.8,41.667"/>
		<path style="fill:#FFE100;" d="M70.68,24.6c3.413,5.12,5.12,11.093,5.12,17.067s-1.707,11.947-5.12,17.067h367.787
			c-2.56-5.12-4.267-11.093-4.267-17.067s1.707-11.947,5.12-17.067H70.68z"/>
	</g>
	<path style="fill:#FFFFFF;" d="M41.667,7.533c2.56,0,5.973,0.853,8.533,0.853c-14.507,4.267-25.6,17.067-25.6,33.28
		s11.093,29.013,25.6,33.28c-2.56,0-5.973,0.853-8.533,0.853c-18.773,0-34.133-15.36-34.133-34.133S22.893,7.533,41.667,7.533"/>
	<path d="M468.333,84.333c-23.893,0-42.667-18.773-42.667-42.667S444.44-1,468.333-1C492.227-1,511,17.773,511,41.667
		S492.227,84.333,468.333,84.333z M468.333,16.067c-14.507,0-25.6,11.093-25.6,25.6s11.093,25.6,25.6,25.6
		c14.507,0,25.6-11.093,25.6-25.6S482.84,16.067,468.333,16.067z"/>
	<path d="M41.667,84.333C17.773,84.333-1,65.56-1,41.667S17.773-1,41.667-1s42.667,18.773,42.667,42.667S65.56,84.333,41.667,84.333
		z M41.667,16.067c-14.507,0-25.6,11.093-25.6,25.6s11.093,25.6,25.6,25.6s25.6-11.093,25.6-25.6S56.173,16.067,41.667,16.067z"/>
	<path d="M255,511c-0.853,0-2.56,0-3.413-0.853L89.453,441.88c-3.413-0.853-5.12-4.267-5.12-7.68V58.733
		c0-5.12,3.413-8.533,8.533-8.533h324.267c5.12,0,8.533,3.413,8.533,8.533V434.2c0,3.413-1.707,6.827-5.12,7.68l-162.133,68.267
		C257.56,511,255.853,511,255,511z M101.4,428.227L255,493.08l153.6-64.853V67.267H101.4V428.227z"/>
	<path d="M255.853,400.067c-50.347-2.56-51.2-5.973-52.907-11.093l-12.8-34.133c-7.68-20.48-5.12-43.52,6.827-62.293
		c2.56-4.267,7.68-5.12,11.947-2.56s5.12,7.68,2.56,11.947c-9.387,13.653-11.093,31.573-5.12,46.933l11.093,30.72
		c6.827,1.707,23.893,2.56,38.4,3.413c13.653-0.853,30.72-2.56,37.547-3.413l11.093-30.72c5.973-15.36,3.413-33.28-5.12-46.933
		c-2.56-4.267-1.707-9.387,2.56-11.947c4.267-2.56,9.387-1.707,11.947,2.56c11.947,17.92,14.507,41.813,6.827,62.293l-12.8,34.133
		C306.2,394.093,305.347,397.507,255.853,400.067z M292.547,383L292.547,383L292.547,383z M218.307,383L218.307,383L218.307,383z"/>
	<path d="M315.587,355.693c-2.56,0-5.12-1.707-6.827-3.413c-2.56-4.267-1.707-9.387,2.56-11.947c7.68-5.12,17.067-12.8,26.453-23.04
		c12.8-11.947,17.067-30.72,11.947-47.787l-8.533-29.013c-20.48-66.56-81.92-62.293-85.333-62.293H255l0,0
		c-2.56,0-64.853-4.267-85.333,62.293l-8.533,29.013c-5.12,17.067,0,35.84,11.947,47.787c9.387,9.387,18.773,17.067,26.453,23.04
		c4.267,2.56,5.12,7.68,2.56,11.947c-2.56,4.267-7.68,5.12-11.947,2.56c-8.533-5.973-18.773-14.507-29.013-24.747
		c-17.067-17.067-23.04-41.813-16.213-64.853l8.533-29.013c23.04-75.947,93.867-75.093,102.4-74.24c7.68,0,78.507-1.707,102.4,74.24
		l8.533,29.013c6.827,23.04,0,47.787-16.213,64.853c-10.24,10.24-20.48,18.773-29.013,24.747
		C318.147,354.84,316.44,355.693,315.587,355.693z"/>
	<path d="M281.453,263.533c-5.12,0-8.533-3.413-8.533-8.533c0-14.507,11.093-25.6,25.6-25.6c5.12,0,8.533,3.413,8.533,8.533
		c0,5.12-3.413,8.533-8.533,8.533c-5.12,0-8.533,3.413-8.533,8.533S285.72,263.533,281.453,263.533z"/>
	<path d="M255.853,348.867c-18.773,0-34.133-11.093-34.133-25.6c0-14.507,15.36-25.6,34.133-25.6s34.133,11.093,34.133,25.6
		C289.987,337.773,274.627,348.867,255.853,348.867z M255.853,314.733c-10.24,0-17.067,5.12-17.067,8.533
		c0,3.413,6.827,8.533,17.067,8.533s17.067-5.12,17.067-8.533C272.92,319.853,266.093,314.733,255.853,314.733z"/>
	<path d="M255.853,400.067c-5.12,0-8.533-3.413-8.533-8.533v-51.2c0-5.12,3.413-8.533,8.533-8.533c5.12,0,8.533,3.413,8.533,8.533
		v51.2C264.387,396.653,260.12,400.067,255.853,400.067z"/>
	<path d="M230.253,263.533c-5.12,0-8.533-3.413-8.533-8.533s-3.413-8.533-8.533-8.533c-5.12,0-8.533-3.413-8.533-8.533
		c0-5.12,3.413-8.533,8.533-8.533c14.507,0,25.6,11.093,25.6,25.6C238.787,260.12,234.52,263.533,230.253,263.533z"/>
	<path d="M159.427,253.293c-2.56,0-4.267-0.853-5.973-2.56c-41.813-43.52-34.987-104.96-34.987-107.52
		c0.853-4.267,4.267-7.68,8.533-7.68c50.347,0,77.653,29.867,82.773,36.693l1.707,1.707c2.56,1.707,3.413,4.267,3.413,7.68
		c0,2.56-1.707,5.12-4.267,6.827c-19.627,10.24-34.133,28.16-40.96,52.053l-1.707,5.973c-0.853,2.56-3.413,5.12-5.973,5.973
		C161.133,253.293,160.28,253.293,159.427,253.293z M135.533,152.6c0,14.507,1.707,46.933,20.48,74.24
		c7.68-20.48,20.48-36.693,36.693-47.787C185.88,170.52,166.253,155.16,135.533,152.6z"/>
	<path d="M351.427,253.293c-0.853,0-1.707,0-1.707,0c-2.56-0.853-5.12-3.413-5.973-5.973l-1.707-6.827
		c-7.68-24.747-21.333-41.813-40.96-52.053c-2.56-1.707-4.267-4.267-4.267-6.827s0.853-5.973,3.413-7.68l1.707-1.707
		c5.12-5.973,32.427-36.693,82.773-36.693c4.267,0,7.68,3.413,8.533,7.68c0,2.56,6.827,63.147-34.987,107.52
		C355.693,252.44,353.133,253.293,351.427,253.293z M317.293,179.053c17.067,11.093,29.013,27.307,36.693,47.787
		c18.773-27.307,21.333-59.733,20.48-74.24C344.6,155.16,324.973,170.52,317.293,179.053z"/>
	<path d="M439.32,67.267H70.68c-2.56,0-5.12-1.707-6.827-4.267c-1.707-2.56-1.707-5.973,0-8.533c2.56-4.267,3.413-8.533,3.413-12.8
		s-0.853-8.533-3.413-12.8c-1.707-2.56-1.707-5.973,0-8.533c1.707-2.56,4.267-4.267,6.827-4.267h367.787
		c3.413,0,5.973,1.707,7.68,4.267s1.707,5.973,0,8.533c-2.56,4.267-3.413,8.533-3.413,12.8s0.853,8.533,3.413,12.8
		c1.707,2.56,1.707,5.973,0,8.533S441.88,67.267,439.32,67.267z M83.48,50.2h343.04c-0.853-2.56-0.853-5.973-0.853-8.533
		s0-5.973,0.853-8.533H83.48c0.853,2.56,0.853,5.973,0.853,8.533C84.333,44.227,84.333,47.64,83.48,50.2z"/>
</g>
</svg>