<?xml version="1.0" encoding="iso-8859-1"?>
<!-- Uploaded to: SVG Repo, www.svgrepo.com, Generator: SVG Repo Mixer Tools -->
<svg fill="#000000" height="800px" width="800px" version="1.1" id="Layer_1" xmlns="http://www.w3.org/2000/svg" xmlns:xlink="http://www.w3.org/1999/xlink" 
	 viewBox="0 0 511.901 511.901" xml:space="preserve">
<g>
	<g>
		<path d="M490.7,42.65h-85.3c-11.8,0-21.3,9.5-21.3,21.3v21.3h-64v-21.3c0-11.8-9.5-21.3-21.3-21.3h-85.3
			c-11.8,0-21.3,9.5-21.3,21.3v21.3h-64v-21.3c0-11.8-9.5-21.3-21.3-21.3H21.3C9.5,42.65,0,52.15,0,63.95v170.7v213.3
			c0,11.8,9.5,21.3,21.3,21.3h469.3c11.8,0,21.3-9.6,21.3-21.3v-213.3V63.95C512,52.15,502.5,42.65,490.7,42.65z M192,213.25h-64
			v-21.3h64V213.25z M192,149.25h-64v-21.3h64V149.25z M277.4,277.25h-0.1c0,11.8-9.6,21.3-21.3,21.3s-21.3-9.6-21.3-21.3v-21.3
			h42.7V277.25z M384,213.25h-64v-21.3h64V213.25z M384,149.25h-64v-21.3h64V149.25z"/>
	</g>
</g>
</svg>