<?xml version="1.0" encoding="iso-8859-1"?>
<!-- Uploaded to: SVG Repo, www.svgrepo.com, Generator: SVG Repo Mixer Tools -->
<svg fill="#000000" height="800px" width="800px" version="1.1" id="Layer_1" xmlns="http://www.w3.org/2000/svg" xmlns:xlink="http://www.w3.org/1999/xlink" 
	 viewBox="0 0 491.187 491.187" xml:space="preserve">
<g>
	<g>
		<path d="M487.949,96.336c-1.549-4.153-3.48-7.387-5.469-9.718c-6.852-8.029-18.685-9.535-27.33-3.478
			c-29.581,20.725-41.282,23.93-55.456,17.104c2.489-8.804-1.161-18.501-9.445-23.287l-9.93-5.738l14.283-25.263
			c5.567-9.846,2.097-22.341-7.749-27.907c-9.846-5.567-22.341-2.097-27.907,7.749l-14.093,24.927l-8.547-4.939
			c-9.799-5.662-22.332-2.303-27.987,7.5l-42.824,74.24c-5.649,9.792-2.294,22.31,7.494,27.966l7.197,4.158l-34.591,56.434
			l-34.592-56.434l7.197-4.158c9.788-5.656,13.142-18.173,7.494-27.966l-42.824-74.24c-5.655-9.803-18.188-13.161-27.987-7.5
			l-8.547,4.939l-14.093-24.927c-5.567-9.846-18.061-13.315-27.907-7.749c-9.846,5.567-13.315,18.061-7.749,27.907l14.282,25.263
			l-9.93,5.738c-8.284,4.787-11.934,14.484-9.444,23.289c-14.163,6.828-25.86,3.63-55.457-17.105
			c-8.645-6.057-20.477-4.551-27.33,3.478c-1.989,2.331-3.92,5.564-5.469,9.718c-7.691,20.617-2.193,51.041,22.006,92.987
			c28.569,49.521,56.098,68.114,78.522,66.002c1.177-0.13,1.177-0.13,2.108-0.289c10.378-1.919,17.598-11.409,16.679-21.922
			c-2.861-32.72-0.549-39.441,16.731-49.978c6.378,6.619,16.652,8.333,24.971,3.526l11.271-6.513l46.047,75.123L105.518,444.608
			c-5.911,9.643-2.885,22.253,6.758,28.164c9.643,5.911,22.253,2.885,28.164-6.758l105.154-171.552l105.154,171.552
			c5.911,9.643,18.52,12.669,28.164,6.758c9.643-5.911,12.669-18.52,6.758-28.164L269.615,255.272l46.047-75.123l11.271,6.513
			c8.318,4.807,18.593,3.093,24.971-3.527c17.278,10.533,19.592,17.246,16.731,49.979c-0.919,10.513,6.301,20.004,16.679,21.922
			c0.93,0.159,0.93,0.159,2.108,0.289c22.424,2.112,49.952-16.48,78.522-66.002C490.141,147.378,495.64,116.954,487.949,96.336z
			 M179.987,130.265l-18.479,10.678l-22.358-38.76l9.586-5.539c0.009-0.005,0.018-0.008,0.027-0.013
			c0.013-0.007,0.024-0.016,0.037-0.023l8.83-5.102L179.987,130.265z M81.937,199.392l-3.21-3.785
			c-5.642-6.93-11.669-15.769-18.005-26.752c-7.248-12.564-12.304-23.459-15.485-32.75c24.892,11.422,44.739,11.066,66.178-0.019
			l6.867,11.903C96.678,161.311,85.355,175.464,81.937,199.392z M333.558,91.505l8.831,5.103c0.013,0.007,0.024,0.016,0.036,0.023
			c0.009,0.005,0.018,0.008,0.026,0.013l9.586,5.539l-22.358,38.76L311.2,130.265L333.558,91.505z M430.463,168.855
			c-7.553,13.093-14.667,23.139-21.214,30.537c-3.418-23.935-14.742-38.086-36.347-51.403l6.867-11.903
			c21.447,11.082,41.294,11.437,66.178,0.019C442.768,145.395,437.712,156.291,430.463,168.855z"/>
	</g>
</g>
</svg>