<?xml version="1.0" encoding="iso-8859-1"?>
<!-- Uploaded to: SVG Repo, www.svgrepo.com, Generator: SVG Repo Mixer Tools -->
<svg height="800px" width="800px" version="1.1" id="Layer_1" xmlns="http://www.w3.org/2000/svg" xmlns:xlink="http://www.w3.org/1999/xlink" 
	 viewBox="0 0 503.499 503.499" xml:space="preserve">
<g>
	<path style="fill:#C7CFE3;" d="M251.75,119.499c-4.71,0-8.533-3.823-8.533-8.533V17.099c0-4.71,3.823-8.533,8.533-8.533
		s8.533,3.823,8.533,8.533v93.867C260.283,115.676,256.46,119.499,251.75,119.499"/>
	<polygon style="fill:#E64C3C;" points="251.75,93.896 132.283,354.162 132.283,392.562 371.216,392.562 371.216,354.162 	"/>
	<polygon style="fill:#F0C419;" points="161.66,290.166 341.841,290.166 310.507,221.899 192.994,221.899 	"/>
	<polygon style="fill:#A4ACBC;" points="123.75,503.499 379.75,503.499 379.75,443.766 123.75,443.766 	"/>
	<polygon style="fill:#C7CFE3;" points="379.75,443.766 123.75,443.766 98.15,392.566 405.35,392.566 	"/>
	<g>
		<polygon style="fill:#A4ACBC;" points="98.15,392.566 132.283,392.566 132.283,349.899 98.15,349.899 		"/>
		<polygon style="fill:#A4ACBC;" points="166.416,392.566 200.55,392.566 200.55,349.899 166.416,349.899 		"/>
		<polygon style="fill:#A4ACBC;" points="302.95,392.566 337.083,392.566 337.083,349.899 302.95,349.899 		"/>
		<polygon style="fill:#A4ACBC;" points="234.683,392.566 268.816,392.566 268.816,349.899 234.683,349.899 		"/>
		<polygon style="fill:#A4ACBC;" points="371.216,392.566 405.35,392.566 405.35,349.899 371.216,349.899 		"/>
	</g>
	<path style="fill:#26B99A;" d="M277.124,85.461c-11.179,0-22.272-3.533-30.805-10.581c-1.963-1.621-3.106-4.036-3.106-6.579v-51.2
		c0-3.302,1.911-6.315,4.898-7.723c2.995-1.408,6.519-0.973,9.071,1.143c10.88,8.986,29.03,8.926,40.474-0.111
		c17.57-13.909,44.757-13.875,61.884,0.068c1.988,1.621,3.14,4.053,3.14,6.622v51.2c0,3.302-1.903,6.315-4.89,7.723
		c-3.004,1.391-6.537,0.947-9.071-1.143c-10.889-8.994-29.039-8.943-40.474,0.111C299.422,81.971,288.235,85.461,277.124,85.461"/>
	<g>
		<path style="fill:#C7CFE3;" d="M337.083,469.366c-4.71,0-8.533,3.823-8.533,8.533v25.6h17.067v-25.6
			C345.616,473.189,341.793,469.366,337.083,469.366"/>
		<path style="fill:#C7CFE3;" d="M294.416,469.366c-4.71,0-8.533,3.823-8.533,8.533v25.6h17.067v-25.6
			C302.95,473.189,299.127,469.366,294.416,469.366"/>
		<path style="fill:#C7CFE3;" d="M251.75,469.366c-4.71,0-8.533,3.823-8.533,8.533v25.6h17.067v-25.6
			C260.283,473.189,256.46,469.366,251.75,469.366"/>
		<path style="fill:#C7CFE3;" d="M209.083,469.366c-4.71,0-8.533,3.823-8.533,8.533v25.6h17.067v-25.6
			C217.616,473.189,213.793,469.366,209.083,469.366"/>
		<path style="fill:#C7CFE3;" d="M166.416,469.366c-4.71,0-8.533,3.823-8.533,8.533v25.6h17.067v-25.6
			C174.95,473.189,171.127,469.366,166.416,469.366"/>
	</g>
</g>
</svg>