<?xml version="1.0" encoding="iso-8859-1"?>
<!-- Uploaded to: SVG Repo, www.svgrepo.com, Generator: SVG Repo Mixer Tools -->
<svg height="800px" width="800px" version="1.1" id="Layer_1" xmlns="http://www.w3.org/2000/svg" xmlns:xlink="http://www.w3.org/1999/xlink" 
	 viewBox="0 0 502.613 502.613" xml:space="preserve">
<g transform="translate(1 1)">
	<g>
		<path style="fill:#FFE100;" d="M392.387,400.92h-0.853L52.76,363.373c-4.267-0.853-7.68-5.12-7.68-9.387
			c0.853-4.267,5.12-7.68,9.387-7.68l338.773,37.547c4.267,0.853,7.68,5.12,7.68,9.387
			C400.067,397.507,396.653,400.92,392.387,400.92z"/>
		<path style="fill:#FFE100;" d="M392.387,400.92c-4.267,0-7.68-3.413-8.533-7.68L346.307,54.467
			c-0.853-4.267,2.56-8.533,7.68-9.387c4.267-0.853,8.533,2.56,9.387,7.68l37.547,338.773c0.853,4.267-2.56,8.533-7.68,9.387
			H392.387z"/>
		<path style="fill:#FFE100;" d="M439.32,435.053c-2.56,0-4.267-0.853-5.973-2.56l-345.6-345.6c-3.413-3.413-3.413-8.533,0-11.947
			s8.533-3.413,11.947,0l345.6,345.6c3.413,3.413,3.413,8.533,0,11.947C443.587,434.2,441.027,435.053,439.32,435.053z"/>
	</g>
	<polygon style="fill:#E4667F;" points="98.84,63 63,98.84 39.107,39.107 	"/>
	<g>
		<path style="fill:#00DA6C;" d="M63,328.387L33.987,357.4c-4.267,4.267-10.24,4.267-14.507,0L9.24,347.16
			c-4.267-4.267-4.267-10.24,0-14.507l29.013-29.013L63,328.387z"/>
		<path style="fill:#00DA6C;" d="M328.387,63L357.4,33.987c4.267-4.267,4.267-10.24,0-14.507L347.16,9.24
			c-4.267-4.267-10.24-4.267-14.507,0L303.64,38.253L328.387,63z"/>
		<path style="fill:#00DA6C;" d="M220.013,74.947c-49.493,6.827-85.333,48.64-90.453,54.613c-5.12,5.12-47.787,41.813-54.613,90.453
			c-0.853,4.267-8.533,57.173-35.84,84.48L63,328.387c37.547-37.547,48.64-96.427,48.64-96.427
			c5.12-27.307,29.867-68.267,41.813-78.507c10.24-11.947,51.2-37.547,78.507-41.813c0,0,58.88-10.24,96.427-48.64l-23.893-23.893
			C277.187,66.413,224.28,74.947,220.013,74.947"/>
	</g>
	<path style="fill:#FDCC00;" d="M493.08,408.6l-84.48,84.48c-13.653-13.653-13.653-34.987,0-48.64l35.84-35.84
		C458.093,394.947,479.427,394.947,493.08,408.6"/>
	<g>
		<path style="fill:#FFE100;" d="M202.947,155.16l-22.187-22.187c-12.8,7.68-23.04,15.36-27.307,20.48
			c-5.12,4.267-12.8,15.36-20.48,27.307l22.187,22.187c19.627,19.627,2.56,2.56,22.187,22.187
			c13.653,13.653,20.48,43.52,40.96,64.853c4.267,4.267,9.387,8.533,14.507,12.8c13.653,10.24,38.4,16.213,53.76,31.573
			l116.053,116.053l23.893-23.893l23.893-23.893L334.36,286.573c-15.36-15.36-20.48-40.96-30.72-54.613
			c-4.267-5.12-7.68-10.24-12.8-14.507c-21.333-20.48-52.053-25.6-65.707-40.107L202.947,155.16z"/>
		<path style="fill:#FFE100;" d="M129.56,129.56c2.56-2.56,11.093-12.8,24.747-23.893l-20.48-20.48c-2.56-2.56-5.973-2.56-8.533,0
			l-19.627,19.627l-20.48,20.48c-2.56,2.56-2.56,5.973,0,8.533l20.48,20.48C116.76,140.653,127,132.12,129.56,129.56"/>
	</g>
	<path d="M27.16,369.347c-5.12,0-9.387-1.707-12.8-5.12l-10.24-10.24c-3.413-3.413-5.12-8.533-5.12-12.8
		c0-5.12,1.707-9.387,5.12-12.8l29.013-29.867c3.413-3.413,8.533-3.413,11.947,0l23.893,23.893c3.413,3.413,3.413,8.533,0,11.947
		L39.96,363.373C36.547,366.787,31.427,369.347,27.16,369.347z M39.107,316.44l-23.04,23.04c-0.853,0.853-0.853,1.707,0,2.56
		l9.387,9.387c0.853,0.853,1.707,0.853,2.56,0l23.04-23.04L39.107,316.44z"/>
	<path d="M328.387,71.533c-2.56,0-4.267-0.853-5.973-2.56L298.52,45.08c-3.413-3.413-3.413-8.533,0-11.947L327.533,4.12
		c6.827-6.827,19.627-6.827,26.453,0l10.24,10.24c3.413,3.413,5.12,8.533,5.12,12.8s-2.56,9.387-5.973,12.8L334.36,68.973
		C332.653,70.68,330.947,71.533,328.387,71.533z M316.44,39.107l11.947,11.947l23.04-23.04c0.853-0.853,0.853-1.707,0-2.56
		l-10.24-10.24c-0.853-0.853-1.707-0.853-2.56,0L316.44,39.107z"/>
	<path d="M63,336.92c-2.56,0-4.267-0.853-5.973-2.56l-23.893-23.893c-3.413-3.413-3.413-8.533,0-11.947
		c26.453-26.453,33.28-79.36,34.133-79.36c4.267-31.573,23.04-63.147,54.613-93.867l3.413-3.413
		c29.867-32.427,61.44-50.347,93.867-54.613l0,0c0.853,0,53.76-7.68,79.36-34.133c3.413-3.413,8.533-3.413,11.947,0l23.893,23.893
		c1.707,1.707,2.56,3.413,2.56,5.973s-0.853,4.267-2.56,5.973c-39.253,39.253-98.133,50.347-100.693,50.347
		c-24.747,4.267-64,29.013-73.387,39.253c0,0,0,0.853-0.853,0.853c-10.24,9.387-34.987,48.64-39.253,73.387
		c-0.853,2.56-11.093,62.293-50.347,100.693C67.267,336.067,65.56,336.92,63,336.92z M51.053,304.493L63,316.44
		c30.72-34.987,40.107-85.333,40.107-85.333c5.12-29.867,31.573-71.68,44.373-82.773c11.947-12.8,52.907-39.253,82.773-44.373
		c0.853,0,50.347-9.387,85.333-40.107l-11.093-12.8c-31.573,25.6-82.773,32.427-83.627,32.427l0,0
		c-28.16,3.413-56.32,20.48-83.627,49.493c-0.853,0.853-1.707,1.707-1.707,2.56c-0.853,0.853-0.853,0.853-2.56,1.707
		c-29.013,27.307-46.08,55.467-49.493,83.627C83.48,221.72,76.653,272.92,51.053,304.493z"/>
	<path d="M408.6,501.613L408.6,501.613c-2.56,0-4.267-0.853-5.973-2.56c-16.213-17.067-16.213-43.52,0-60.587l35.84-35.84
		c16.213-16.213,43.52-16.213,60.587,0c3.413,3.413,3.413,8.533,0,11.947l-84.48,84.48
		C412.867,500.76,410.307,501.613,408.6,501.613z M469.187,406.893c-6.827,0-12.8,2.56-17.92,7.68l-35.84,35.84
		c-7.68,7.68-9.387,19.627-5.12,29.013l69.973-69.973C476.013,407.747,472.6,406.893,469.187,406.893z"/>
	<path d="M383.853,392.387H383L44.227,354.84c-4.267-0.853-7.68-5.12-7.68-9.387c0.853-4.267,5.12-7.68,9.387-7.68l338.773,37.547
		c4.267,0.853,7.68,5.12,7.68,9.387C391.533,388.973,388.12,392.387,383.853,392.387z"/>
	<path d="M383.853,392.387c-4.267,0-7.68-3.413-8.533-7.68L337.773,45.933c-0.853-4.267,2.56-8.533,7.68-9.387
		c4.267-0.853,8.533,2.56,9.387,7.68L392.387,383c0.853,4.267-2.56,8.533-7.68,9.387H383.853z"/>
	<path d="M426.52,435.053c-2.56,0-4.267-0.853-5.973-2.56l-345.6-345.6c-3.413-3.413-3.413-8.533,0-11.947s8.533-3.413,11.947,0
		l345.6,345.6c3.413,3.413,3.413,8.533,0,11.947C430.787,434.2,429.08,435.053,426.52,435.053z"/>
	<path d="M63,107.373c-0.853,0-0.853,0-1.707,0c-2.56-0.853-5.12-2.56-5.973-5.12L30.573,41.667c-0.853-2.56,0-6.827,2.56-8.533
		c2.56-2.56,5.973-3.413,9.387-1.707l59.733,23.893c2.56,0.853,4.267,3.413,5.12,5.973c0.853,2.56,0,5.973-2.56,7.68l-35.84,35.84
		C67.267,106.52,65.56,107.373,63,107.373z M54.467,54.467l11.947,29.867l17.92-17.92L54.467,54.467z"/>
	<path d="M402.627,458.947c-2.56,0-4.267-0.853-5.973-2.56L279.747,340.333c-7.68-7.68-19.627-12.8-29.867-17.92
		c-8.533-4.267-16.213-7.68-23.04-12.8c-5.973-4.267-11.093-8.533-15.36-13.653c-11.947-11.947-18.773-27.307-25.6-40.107
		c-5.12-10.24-9.387-19.627-15.36-24.747L127,187.587c-2.56-2.56-3.413-6.827-1.707-10.24c7.68-12.8,16.213-23.893,22.187-29.013
		c5.12-5.973,16.213-13.653,29.013-22.187c3.413-1.707,7.68-1.707,10.24,1.707l44.373,44.373c5.12,5.12,15.36,10.24,24.747,14.507
		c12.8,5.973,28.16,13.653,40.96,24.747c4.267,4.267,9.387,9.387,13.653,15.36c5.12,6.827,8.533,15.36,12.8,23.893
		c5.12,11.093,9.387,22.187,17.067,29.867l116.053,116.053c1.707,1.707,2.56,3.413,2.56,5.973s-0.853,4.267-2.56,5.973l-48.64,48.64
		C406.893,458.093,404.333,458.947,402.627,458.947z M144.067,179.907l39.253,39.253c7.68,7.68,12.8,17.92,18.773,29.013
		c5.973,12.8,12.8,25.6,22.187,35.84c3.413,4.267,8.533,7.68,13.653,11.947c5.12,4.267,11.947,6.827,19.627,11.093
		c11.947,5.12,24.747,11.947,34.987,21.333l110.08,110.08l35.84-35.84l-110.08-110.08c-10.24-10.24-16.213-23.893-21.333-35.84
		c-3.413-7.68-6.827-15.36-10.24-20.48c-4.267-5.12-7.68-9.387-11.947-13.653c-10.24-10.24-23.893-16.213-35.84-22.187
		c-11.093-5.12-22.187-10.24-29.867-17.92l-22.187-22.187l0,0l-17.067-17.067c-11.093,6.827-17.067,12.8-20.48,15.36
		c0,0,0,0.853-0.853,0.853C156.013,162.84,150.893,168.813,144.067,179.907z"/>
	<path d="M105.667,162.84c-2.56,0-4.267-0.853-5.973-2.56l-20.48-20.48c-5.973-5.973-5.973-14.507,0-20.48l40.107-40.107
		c5.973-5.973,14.507-5.973,20.48,0l20.48,20.48c1.707,1.707,2.56,4.267,2.56,6.827c0,2.56-0.853,4.267-3.413,5.973
		c-10.24,8.533-17.92,17.067-22.187,20.48c-0.853,0.853-1.707,1.707-1.707,2.56s-0.853,0.853-2.56,1.707
		c-4.267,3.413-11.947,11.093-20.48,22.187C110.787,161.133,109.08,162.84,105.667,162.84
		C106.52,162.84,105.667,162.84,105.667,162.84z M92.867,129.56l11.947,11.947c6.827-7.68,12.8-13.653,16.213-16.213l3.413-3.413
		c3.413-3.413,8.533-9.387,16.213-16.213L128.707,93.72L92.867,129.56z"/>
</g>
</svg>