<?xml version="1.0" encoding="iso-8859-1"?>
<!-- Uploaded to: SVG Repo, www.svgrepo.com, Generator: SVG Repo Mixer Tools -->
<svg fill="#000000" height="800px" width="800px" version="1.1" id="Layer_1" xmlns="http://www.w3.org/2000/svg" xmlns:xlink="http://www.w3.org/1999/xlink" 
	 viewBox="0 0 512 512" xml:space="preserve">
<g>
	<g>
		<g>
			<path d="M448,32.566c-27.776,0-51.243,17.899-60.075,42.667H21.333C9.557,75.233,0,84.79,0,96.566S9.557,117.9,21.333,117.9
				h85.333v78.229c-20.459-6.336-41.195-11.883-61.717-14.101c-6.037-0.661-12.032,1.28-16.533,5.333
				c-4.501,4.032-7.083,9.813-7.083,15.872v85.333c0,7.168,0.661,14.272,1.664,21.333h190.336v-85.163
				c-21.376-2.581-42.837-8.405-64-14.997V117.9H320v91.84c-21.163,6.592-42.624,12.416-64,14.997V309.9h190.336
				c1.003-7.061,1.664-14.165,1.664-21.333v-85.333c0-6.059-2.581-11.84-7.083-15.872c-4.501-4.053-10.581-5.973-16.533-5.333
				c-20.523,2.219-41.259,7.765-61.717,14.101V117.9h25.259c8.832,24.768,32.299,42.667,60.075,42.667c35.285,0,64-28.715,64-64
				S483.285,32.566,448,32.566z"/>
			<path d="M256,479.434c78.763-8.171,149.163-60.587,178.005-126.869H256V479.434z"/>
			<path d="M213.333,479.434V352.564H35.328C64.171,418.847,134.571,471.263,213.333,479.434z"/>
		</g>
	</g>
</g>
</svg>