<?xml version="1.0" encoding="iso-8859-1"?>
<!-- Uploaded to: SVG Repo, www.svgrepo.com, Generator: SVG Repo Mixer Tools -->
<svg fill="#000000" height="800px" width="800px" version="1.1" id="Layer_1" xmlns="http://www.w3.org/2000/svg" xmlns:xlink="http://www.w3.org/1999/xlink" 
	 viewBox="0 0 512 512" xml:space="preserve">
<g>
	<g>
		<path d="M490.667,128H149.333C137.551,128,128,137.551,128,149.333v21.333h-21.333v-46.321
			c24.858-8.784,42.667-32.474,42.667-60.346c0-35.355-28.645-64-64-64s-64,28.645-64,64c0,27.872,17.808,51.562,42.667,60.346
			v344.987H21.333C9.551,469.333,0,478.885,0,490.667S9.551,512,21.333,512h64c11.782,0,21.333-9.551,21.333-21.333v-85.333H128V448
			c0,11.782,9.551,21.333,21.333,21.333h341.333c11.782,0,21.333-9.551,21.333-21.333V149.333C512,137.551,502.449,128,490.667,128z
			 M469.333,277.333h-128V170.667h128V277.333z M170.667,170.667h128v106.667h-128V170.667z M85.333,42.667
			c11.791,0,21.333,9.542,21.333,21.333s-9.542,21.333-21.333,21.333S64,75.791,64,64S73.542,42.667,85.333,42.667z
			 M106.667,362.667V213.333H128v149.333H106.667z M170.667,320h128v106.667h-128V320z M341.333,426.667V320h128v106.667H341.333z"
			/>
	</g>
</g>
</svg>