<?xml version="1.0" encoding="iso-8859-1"?>
<!-- Uploaded to: SVG Repo, www.svgrepo.com, Generator: SVG Repo Mixer Tools -->
<svg fill="#000000" height="800px" width="800px" version="1.1" id="Layer_1" xmlns="http://www.w3.org/2000/svg" xmlns:xlink="http://www.w3.org/1999/xlink" 
	 viewBox="0 0 512 512" xml:space="preserve">
<g>
	<g>
		<path d="M490.667,277.333c11.782,0,21.333-9.551,21.333-21.333v-64c0-11.782-9.551-21.333-21.333-21.333H320v-64
			c11.782,0,21.333-9.551,21.333-21.333c0-9.037-5.628-16.743-13.562-19.852l12.467-37.402C344.843,14.266,334.561,0,320,0H192
			c-14.561,0-24.843,14.266-20.239,28.08l12.467,37.402c-7.934,3.109-13.562,10.815-13.562,19.852
			c0,11.782,9.551,21.333,21.333,21.333v64H21.333C9.551,170.667,0,180.218,0,192v64c0,11.782,9.551,21.333,21.333,21.333h21.333
			v128H21.333C9.551,405.333,0,414.885,0,426.667v64C0,502.449,9.551,512,21.333,512h469.333c11.782,0,21.333-9.551,21.333-21.333
			v-64c0-11.782-9.551-21.333-21.333-21.333h-21.333v-128H490.667z M469.333,213.333v21.333H320v-21.333H469.333z M234.667,277.333
			h42.667V320c0,11.791-9.542,21.333-21.333,21.333s-21.333-9.542-21.333-21.333V277.333z M234.667,234.667v-21.333h42.667v21.333
			H234.667z M290.402,42.667L283.29,64H228.71l-7.111-21.333H290.402z M234.667,106.667h42.667v64h-42.667V106.667z M42.667,213.333
			H192v21.333H42.667V213.333z M469.333,469.333H42.667V448h426.667V469.333z M426.667,405.333H85.333v-128H192V320
			c0,35.355,28.645,64,64,64s64-28.645,64-64v-42.667h106.667V405.333z"/>
	</g>
</g>
</svg>