<?xml version="1.0" encoding="iso-8859-1"?>
<!-- Uploaded to: SVG Repo, www.svgrepo.com, Generator: SVG Repo Mixer Tools -->
<svg height="800px" width="800px" version="1.1" id="Layer_1" xmlns="http://www.w3.org/2000/svg" xmlns:xlink="http://www.w3.org/1999/xlink" 
	 viewBox="0 0 512.125 512.125" xml:space="preserve">
<g transform="translate(1 1)">
	<path style="fill:#00DA6C;" d="M385.232,137.973H124.893c-9.546,0-17.356-7.81-17.356-17.356s7.81-17.356,17.356-17.356h260.339
		c9.546,0,17.356,7.81,17.356,17.356S394.778,137.973,385.232,137.973"/>
	<path style="fill:#FFE100;" d="M419.944,36.44c-1.736-24.298-31.241-37.315-51.2-22.563c-13.017,9.546-31.241,19.959-52.936,19.959
		c-16.488,0-29.505-4.339-38.183-10.414c-13.885-8.678-30.373-8.678-44.258,0c-9.546,6.075-22.563,10.414-39.051,10.414
		c-21.695,0-39.919-10.414-52.936-19.959c-19.959-14.753-48.597-1.736-51.2,22.563v0.868c0,2.603,0.868,6.075,2.603,8.678
		l40.786,57.275h121.492h121.492l40.786-57.275c1.736-2.603,2.603-5.207,2.603-8.678C419.944,37.308,419.944,37.308,419.944,36.44"
		/>
	<path style="fill:#FFA800;" d="M419.944,36.44c-1.736-22.563-26.034-34.712-45.125-26.034
		c10.414,4.339,18.224,13.885,19.092,26.034v0.868c0,2.603-0.868,6.075-2.603,8.678l-40.786,57.275h26.034l40.786-57.275
		c1.736-2.603,2.603-5.207,2.603-8.678C419.944,37.308,419.944,37.308,419.944,36.44"/>
	<path style="fill:#FFE100;" d="M376.554,137.973H133.571c0,0-95.458,85.912-95.458,251.661v17.356
		c0,30.373,17.356,58.142,45.125,69.424c31.241,13.885,84.176,26.034,171.824,26.034s139.715-12.149,171.824-26.034
		c27.77-12.149,45.125-39.919,45.125-69.424v-17.356C472.012,223.884,376.554,137.973,376.554,137.973"/>
	<path style="fill:#FFA800;" d="M376.554,137.973H350.52c0,0,95.458,85.912,95.458,251.661v17.356
		c0,30.373-17.356,58.142-45.125,69.424c-29.505,13.017-78.969,24.298-158.807,26.034c4.339,0,8.678,0,13.017,0
		c87.647,0,139.715-12.149,171.824-26.034c27.77-12.149,45.125-39.919,45.125-69.424v-17.356
		C472.012,223.884,376.554,137.973,376.554,137.973"/>
	<g>
		<path style="fill:#FFFFFF;" d="M90.181,36.44c1.736-22.563,26.034-34.712,45.125-26.034
			c-10.414,4.339-18.224,13.885-19.092,26.034v0.868c0,2.603,0.868,6.075,2.603,8.678l40.786,57.275h-26.034L92.785,45.986
			c-1.736-1.736-2.603-5.207-2.603-7.81C90.181,37.308,90.181,37.308,90.181,36.44"/>
		<path style="fill:#FFFFFF;" d="M133.571,137.973h26.034c0,0-95.458,85.912-95.458,251.661v17.356
			c0,30.373,17.356,58.142,45.125,69.424c29.505,13.017,78.969,24.298,158.807,26.034c-4.339,0-8.678,0-13.017,0
			c-87.647,0-139.715-12.149-171.824-26.034c-27.769-12.149-45.125-39.051-45.125-69.424v-17.356
			C38.113,223.884,133.571,137.973,133.571,137.973"/>
	</g>
	<g>
		<path style="fill:#FDCC00;" d="M298.452,398.312c0,24.298-19.092,43.39-43.39,43.39s-43.39-19.092-43.39-43.39
			s19.092-43.39,43.39-43.39S298.452,374.013,298.452,398.312"/>
		<path style="fill:#FDCC00;" d="M315.808,320.21c-22.563,0-40.786,17.356-42.522,39.051c14.753,6.075,25.166,21.695,25.166,39.051
			c0,1.736,0,3.471-0.868,4.339c5.207,2.603,11.281,4.339,18.224,4.339c24.298,0,43.39-19.092,43.39-43.39
			C359.198,339.301,340.107,320.21,315.808,320.21"/>
		<path style="fill:#FDCC00;" d="M211.673,398.312c0-18.224,11.281-33.844,27.77-40.786c-7.81-12.149-20.827-19.959-36.447-19.959
			c-24.298,0-43.39,19.092-43.39,43.39c0,24.298,19.092,43.39,43.39,43.39c5.207,0,10.414-0.868,15.62-2.603
			C214.276,414.8,211.673,406.99,211.673,398.312"/>
	</g>
	<path d="M255.063,511.125c-74.631,0-133.641-8.678-175.295-26.902c-30.373-13.017-50.332-43.39-50.332-78.102v-17.356
		c0-167.485,94.59-254.264,98.061-257.736l2.603-2.603h249.925l2.603,2.603c3.471,4.339,98.061,91.119,98.061,258.603v17.356
		c0,33.844-19.959,64.217-50.332,78.102C388.703,502.447,329.693,511.125,255.063,511.125z M137.042,146.651
		c-13.885,14.753-90.251,98.061-90.251,242.983v17.356c0,26.902,15.62,51.2,39.919,61.614
		c39.051,16.488,95.458,25.166,168.353,25.166s129.302-8.678,168.353-25.166c24.298-10.414,39.919-34.712,39.919-61.614v-17.356
		c0-144.922-76.366-228.23-90.251-242.983H137.042z"/>
	<path d="M380.893,111.939H129.232l-43.39-60.746c-2.603-4.339-4.339-8.678-4.339-13.885V36.44
		c0.868-14.753,10.414-26.902,23.431-33.844c13.885-6.075,29.505-4.339,41.654,4.339c11.281,8.678,27.769,18.224,47.729,18.224
		c13.017,0,24.298-3.471,33.844-9.546c16.488-10.414,37.315-10.414,53.803,0c9.546,6.075,20.827,9.546,33.844,9.546
		c19.959,0,36.447-9.546,47.729-18.224c12.149-8.678,27.77-10.414,41.654-4.339s22.563,18.224,23.431,32.976l0,0l0,0v1.736
		c0,5.207-1.736,9.546-4.339,13.885L380.893,111.939z M137.91,94.583h234.305l38.183-53.803c0.868-0.868,0.868-1.736,0.868-2.603
		v-0.868c-0.868-8.678-6.075-15.62-13.885-19.092c-7.81-3.471-16.488-2.603-23.431,2.603
		c-13.017,10.414-33.844,21.695-58.142,21.695c-16.488,0-30.373-4.339-43.39-12.149c-10.414-6.942-24.298-6.942-34.712,0
		c-13.017,7.81-26.902,12.149-43.39,12.149c-24.298,0-45.125-11.281-58.142-21.695c-6.942-5.207-15.62-6.075-23.431-2.603
		c-7.81,4.339-13.017,11.281-13.885,19.092v0.868c0,0.868,0,1.736,0.868,2.603L137.91,94.583z"/>
	<path d="M385.232,146.651H124.893c-14.753,0-26.034-11.281-26.034-26.034s11.281-26.034,26.034-26.034h260.339
		c14.753,0,26.034,11.281,26.034,26.034S399.985,146.651,385.232,146.651z M124.893,111.939c-5.207,0-8.678,3.471-8.678,8.678
		c0,5.207,3.471,8.678,8.678,8.678h260.339c5.207,0,8.678-3.471,8.678-8.678c0-5.207-3.471-8.678-8.678-8.678H124.893z"/>
	<path d="M194.317,294.176c-1.736,0-4.339-0.868-5.207-1.736c-3.471-3.471-4.339-8.678-0.868-12.149
		c0,0,32.976-39.919,32.976-72.895c0-1.736,0.868-47.729,28.637-75.498c3.471-3.471,8.678-3.471,12.149,0
		c3.471,3.471,3.471,8.678,0,12.149c-23.43,22.563-24.298,63.349-24.298,63.349c0,39.051-35.58,81.573-36.447,83.308
		C199.524,293.308,196.92,294.176,194.317,294.176z"/>
	<path d="M307.13,259.464c-0.868,0-1.736,0-2.603,0c-1.736,0-32.108-9.546-32.108-52.068c0,0-0.868-40.786-23.431-63.349
		c-3.471-3.471-3.471-8.678,0-12.149c3.471-3.471,8.678-3.471,12.149,0c27.77,27.769,28.637,73.763,28.637,75.498
		c0,28.637,19.092,34.712,19.959,35.58c4.339,1.736,6.942,6.075,6.075,10.414C314.073,256.861,310.602,259.464,307.13,259.464z"/>
	<path d="M255.063,450.379c-28.637,0-52.068-23.431-52.068-52.068s23.431-52.068,52.068-52.068s52.068,23.431,52.068,52.068
		S283.7,450.379,255.063,450.379z M255.063,363.6c-19.092,0-34.712,15.62-34.712,34.712s15.62,34.712,34.712,34.712
		s34.712-15.62,34.712-34.712S274.154,363.6,255.063,363.6z"/>
	<path d="M315.808,415.667c-6.942,0-14.753-1.736-21.695-4.339l-6.075-2.603l0.868-7.81c0-0.868,0-1.736,0-1.736
		c0-13.885-7.81-26.034-20.827-31.241l-4.339-3.471l0.868-6.075c2.603-26.034,25.166-45.993,51.2-45.993
		c28.637,0,52.068,23.431,52.068,52.068C367.876,393.105,344.446,415.667,315.808,415.667z M307.13,397.444
		c2.603,0.868,6.075,0.868,8.678,0.868c19.092,0,34.712-15.62,34.712-34.712c0-19.092-15.62-34.712-34.712-34.712
		c-15.62,0-29.505,10.414-32.976,25.166C297.585,363.6,307.13,379.22,307.13,397.444z"/>
	<path d="M202.995,433.023c-28.637,0-52.068-23.431-52.068-52.068c0-28.637,23.43-52.068,52.068-52.068
		c18.224,0,34.712,8.678,44.258,24.298l6.075,8.678l-9.546,3.471c-14.753,6.075-23.431,18.224-23.431,32.976
		c0,6.075,1.736,13.017,5.207,18.224l6.075,8.678l-9.546,3.471C215.144,432.156,209.069,433.023,202.995,433.023z M202.995,346.244
		c-19.092,0-34.712,15.62-34.712,34.712c0,19.959,17.356,36.447,37.315,34.712c-1.736-5.207-2.603-11.281-2.603-17.356
		c0-17.356,8.678-33.844,23.431-43.39C219.483,349.715,211.673,346.244,202.995,346.244z"/>
</g>
</svg>