<?xml version="1.0" encoding="iso-8859-1"?>
<!-- Uploaded to: SVG Repo, www.svgrepo.com, Generator: SVG Repo Mixer Tools -->
<svg fill="#000000" height="800px" width="800px" version="1.1" id="Layer_1" xmlns="http://www.w3.org/2000/svg" xmlns:xlink="http://www.w3.org/1999/xlink" 
	 viewBox="0 0 512.006 512.006" xml:space="preserve">
<g>
	<g>
		<path d="M512.001,127.932V54.994c0-9.536-6.336-17.92-15.531-20.523c-5.803-1.643-11.904-3.349-18.325-5.077
			c-144.811-39.104-299.563-39.083-444.245,0c-6.443,1.728-12.544,3.435-18.347,5.077C6.358,37.052,0.001,45.437,0.001,54.994
			v75.605c-0.043,7.851,1.6,194.475,243.285,377.024c3.797,2.88,8.341,4.309,12.864,4.309c4.501,0,9.003-1.429,12.779-4.267
			C501.91,332.882,512.299,160.53,512.001,127.932z M320.001,213.266h-42.667v85.333c0,11.776-9.536,21.333-21.333,21.333
			c-11.797,0-21.333-9.557-21.333-21.333v-85.333h-42.667c-11.797,0-21.333-9.557-21.333-21.333s9.536-21.333,21.333-21.333h42.667
			v-42.667c0-11.776,9.536-21.333,21.333-21.333c11.797,0,21.333,9.557,21.333,21.333v42.667h42.667
			c11.797,0,21.333,9.557,21.333,21.333S331.798,213.266,320.001,213.266z"/>
	</g>
</g>
</svg>