<?xml version="1.0" encoding="iso-8859-1"?>
<!-- Uploaded to: SVG Repo, www.svgrepo.com, Generator: SVG Repo Mixer Tools -->
<svg fill="#000000" height="800px" width="800px" version="1.1" id="Layer_1" xmlns="http://www.w3.org/2000/svg" xmlns:xlink="http://www.w3.org/1999/xlink" 
	 viewBox="0 0 512.022 512.022" xml:space="preserve">
<g>
	<g>
		<path d="M490.678,416.3v-64.533c12.885-9.728,21.333-25.024,21.333-42.389c0-24.469-16.661-44.949-39.189-51.179l38.891-233.323
			c1.536-9.152-3.029-18.24-11.264-22.485c-8.235-4.245-18.283-2.709-24.853,3.883L364.107,117.761L272.416,7.702
			c-8.128-9.728-24.683-9.728-32.811,0l-91.691,110.059L36.427,6.273C29.835-0.34,19.809-1.876,11.574,2.39
			C3.339,6.636-1.226,15.724,0.31,24.876L39.2,258.198c-22.528,6.229-39.189,26.709-39.189,51.179
			c0,17.365,8.448,32.661,21.333,42.389V416.3c-12.885,9.728-21.333,25.024-21.333,42.389c0,29.397,23.915,53.333,53.333,53.333
			h405.333c29.419,0,53.333-23.936,53.333-53.333C512.011,441.324,503.563,426.028,490.678,416.3z M234.678,170.689h42.667
			c11.797,0,21.333,9.557,21.333,21.333s-9.536,21.333-21.333,21.333h-42.667c-11.797,0-21.333-9.557-21.333-21.333
			S222.88,170.689,234.678,170.689z M458.678,469.356H53.344c-5.867,0-10.667-4.779-10.667-10.667
			c0-5.845,4.736-10.581,10.56-10.645h405.547c5.824,0.064,10.56,4.8,10.56,10.645C469.345,464.577,464.544,469.356,458.678,469.356
			z M458.678,320.044H53.344c-5.867,0-10.667-4.779-10.667-10.667s4.8-10.667,10.667-10.667h405.333
			c5.867,0,10.667,4.779,10.667,10.667S464.544,320.044,458.678,320.044z"/>
	</g>
</g>
</svg>