<?xml version="1.0" encoding="iso-8859-1"?>
<!-- Uploaded to: SVG Repo, www.svgrepo.com, Generator: SVG Repo Mixer Tools -->
<svg fill="#000000" height="800px" width="800px" version="1.1" id="Layer_1" xmlns="http://www.w3.org/2000/svg" xmlns:xlink="http://www.w3.org/1999/xlink" 
	 viewBox="0 0 512 512" xml:space="preserve">
<g transform="translate(1 1)">
	<g>
		<g>
			<path d="M255-1C114.2-1-1,114.2-1,255s115.2,256,256,256s256-115.2,256-256S395.8-1,255-1z M255,493.933
				c-131.413,0-238.933-107.52-238.933-238.933S123.587,16.067,255,16.067S493.933,123.587,493.933,255S386.413,493.933,255,493.933
				z"/>
			<path d="M255,41.667C137.24,41.667,41.667,137.24,41.667,255S137.24,468.333,255,468.333S468.333,372.76,468.333,255
				S372.76,41.667,255,41.667z M451.071,246.467H322.71c-3.882-30.756-28.421-55.295-59.177-59.177V58.929
				C365.118,63.279,446.721,144.882,451.071,246.467z M255,306.2c-28.16,0-51.2-23.04-51.2-51.2c0-28.16,23.04-51.2,51.2-51.2
				c28.16,0,51.2,23.04,51.2,51.2C306.2,283.16,283.16,306.2,255,306.2z M246.467,58.929v128.36
				c-30.756,3.882-55.295,28.421-59.177,59.177H58.929C63.279,144.882,144.882,63.279,246.467,58.929z M58.929,263.533h128.36
				c3.882,30.756,28.421,55.295,59.177,59.177v128.36C144.882,446.721,63.279,365.118,58.929,263.533z M263.533,451.071V322.71
				c30.756-3.882,55.295-28.421,59.177-59.177h128.36C446.721,365.118,365.118,446.721,263.533,451.071z"/>
			<path d="M152.6,144.067h42.667c5.12,0,8.533-3.413,8.533-8.533S200.387,127,195.267,127H152.6c-5.12,0-8.533,3.413-8.533,8.533
				S147.48,144.067,152.6,144.067z"/>
			<path d="M127,186.733h42.667c5.12,0,8.533-3.413,8.533-8.533s-3.413-8.533-8.533-8.533H127c-5.12,0-8.533,3.413-8.533,8.533
				S121.88,186.733,127,186.733z"/>
			<path d="M365.933,323.267c0-5.12-3.413-8.533-8.533-8.533h-42.667c-5.12,0-8.533,3.413-8.533,8.533s3.413,8.533,8.533,8.533
				H357.4C362.52,331.8,365.933,328.387,365.933,323.267z"/>
			<path d="M383,357.4h-42.667c-5.12,0-8.533,3.413-8.533,8.533s3.413,8.533,8.533,8.533H383c5.12,0,8.533-3.413,8.533-8.533
				S388.12,357.4,383,357.4z"/>
			<path d="M325.827,175.64c1.707,1.707,3.413,2.56,5.973,2.56c2.56,0,4.267-0.853,5.973-2.56l6.827-6.827l6.827,6.827
				c1.707,1.707,3.413,2.56,5.973,2.56s4.267-0.853,5.973-2.56c3.413-3.413,3.413-8.533,0-11.947l-6.827-6.827l6.827-6.827
				c3.413-3.413,3.413-8.533,0-11.947s-8.533-3.413-11.947,0l-6.827,6.827l-6.827-6.827c-3.413-3.413-8.533-3.413-11.947,0
				c-3.413,3.413-3.413,8.533,0,11.947l6.827,6.827l-6.827,6.827C322.413,167.107,322.413,172.227,325.827,175.64z"/>
			<path d="M184.173,325.827c-3.413-3.413-8.533-3.413-11.947,0l-6.827,6.827l-6.827-6.827c-3.413-3.413-8.533-3.413-11.947,0
				c-3.413,3.413-3.413,8.533,0,11.947l6.827,6.827l-6.827,6.827c-3.413,3.413-3.413,8.533,0,11.947
				c1.707,1.707,3.413,2.56,5.973,2.56c2.56,0,4.267-0.853,5.973-2.56l6.827-6.827l6.827,6.827c1.707,1.707,3.413,2.56,5.973,2.56
				s4.267-0.853,5.973-2.56c3.413-3.413,3.413-8.533,0-11.947l-6.827-6.827l6.827-6.827
				C187.587,334.36,187.587,329.24,184.173,325.827z"/>
			<path d="M255,220.867c-18.773,0-34.133,15.36-34.133,34.133c0,5.12,3.413,8.533,8.533,8.533s8.533-3.413,8.533-8.533
				c0-9.387,7.68-17.067,17.067-17.067c5.12,0,8.533-3.413,8.533-8.533S260.12,220.867,255,220.867z"/>
		</g>
	</g>
</g>
</svg>