<?xml version="1.0" encoding="iso-8859-1"?>
<!-- Uploaded to: SVG Repo, www.svgrepo.com, Generator: SVG Repo Mixer Tools -->
<svg height="800px" width="800px" version="1.1" id="Layer_1" xmlns="http://www.w3.org/2000/svg" xmlns:xlink="http://www.w3.org/1999/xlink" 
	 viewBox="0 0 513.293 513.293" xml:space="preserve">
<g transform="translate(1 1)">
	<g>
		<polygon style="fill:#00DA6C;" points="420.767,55.29 373.833,67.237 361.033,21.157 407.967,8.357 		"/>
		<polygon style="fill:#00DA6C;" points="89.673,55.29 136.606,67.237 149.406,21.157 102.473,8.357 		"/>
		<polygon style="fill:#00DA6C;" points="203.166,395.77 173.3,378.703 163.913,343.717 198.9,334.33 228.766,351.397 
			238.153,386.383 		"/>
		<polygon style="fill:#00DA6C;" points="307.273,395.77 337.14,378.703 346.526,343.717 311.54,334.33 281.673,351.397 
			272.286,386.383 		"/>
		<polygon style="fill:#00DA6C;" points="356.767,166.223 297.033,132.09 343.966,50.17 403.7,84.303 		"/>
		<polygon style="fill:#00DA6C;" points="153.673,166.223 213.406,132.09 166.473,50.17 106.74,84.303 		"/>
	</g>
	<path style="fill:#FFE100;" d="M498.42,90.277c-44.373,30.72-64.853,31.573-88.747,17.92l-14.507-8.533L365.3,151.717l14.507,8.533
		c23.893,13.653,38.4,24.747,33.28,78.507c0,0,26.453,5.12,64.853-61.44S498.42,90.277,498.42,90.277"/>
	<path style="fill:#FFA800;" d="M494.153,93.69c-4.267,3.413-8.533,5.973-12.8,8.533c2.56,11.093,1.707,34.987-23.893,78.507
		c-20.48,34.987-37.547,50.347-48.64,56.32c0,1.707,0,2.56,0,4.267c0,0,26.453,5.12,64.853-61.44S494.153,93.69,494.153,93.69"/>
	<g>
		<path style="fill:#FFE100;" d="M301.3,124.41l-20.48-35.84c-2.56-4.267-2.56-10.24,0-14.507l10.24-17.067
			c4.267-6.827,12.8-9.387,19.627-5.12L334.58,65.53L301.3,124.41z"/>
		<path style="fill:#FFE100;" d="M12.02,90.277c44.373,30.72,64.853,31.573,88.747,17.92l14.507-8.533l29.867,52.053l-14.507,8.533
			c-23.893,13.653-38.4,24.747-33.28,78.507c0,0-26.453,5.12-64.853-61.44S12.02,90.277,12.02,90.277"/>
		<path style="fill:#FFE100;" d="M209.14,124.41l20.48-35.84c2.56-4.267,2.56-10.24,0-14.507l-10.24-17.067
			c-4.267-6.827-12.8-9.387-19.627-5.12L175.86,65.53L209.14,124.41z"/>
		<path style="fill:#FFE100;" d="M131.486,502.437l-14.507-8.533c-4.267-2.56-5.973-7.68-3.413-11.947L173.3,378.703l29.867,17.067
			l-59.733,103.253C140.873,503.29,135.753,504.997,131.486,502.437"/>
	</g>
	<path style="fill:#FFFFFF;" d="M16.286,93.69c4.267,3.413,8.533,5.973,12.8,8.533c-2.56,11.093-1.707,34.987,23.893,78.507
		c20.48,34.987,37.547,50.347,48.64,56.32c0,1.707,0,2.56,0,4.267c0,0-26.453,5.12-64.853-61.44S16.286,93.69,16.286,93.69"/>
	<g>
		<path style="fill:#FFE100;" d="M378.953,502.437l14.507-8.533c4.267-2.56,5.973-7.68,3.413-11.947L337.14,378.703l-29.867,17.067
			l59.733,103.253C369.566,503.29,374.686,504.997,378.953,502.437"/>
		<polygon style="fill:#FFE100;" points="228.766,351.397 228.766,352.25 341.406,157.69 312.393,140.623 199.753,335.183 		"/>
		<polygon style="fill:#FFE100;" points="255.22,307.023 281.673,352.25 281.673,351.397 310.686,335.183 274.846,272.89 		"/>
		<polygon style="fill:#FFE100;" points="255.22,238.757 198.046,140.623 169.033,157.69 235.593,272.89 		"/>
	</g>
	<path d="M373.833,75.77c-3.413,0-6.827-2.56-8.533-5.973l-12.8-46.933c-0.853-4.267,1.707-9.387,5.973-10.24l46.933-12.8
		c2.56-0.853,4.267,0,6.827,0.853c1.707,0.853,3.413,3.413,4.267,5.12l12.8,46.933c0.853,4.267-1.707,9.387-5.973,10.24
		l-46.933,12.8C375.54,75.77,374.686,75.77,373.833,75.77z M372.126,27.13l7.68,29.867l29.867-7.68l-7.68-29.867L372.126,27.13z"/>
	<path d="M203.166,404.303c-1.707,0-2.56,0-4.267-0.853l-29.867-17.067c-1.707-0.853-3.413-3.413-4.267-5.12l-9.387-34.987
		c-0.853-2.56,0-4.267,0.853-6.827c0.853-1.707,3.413-3.413,5.12-4.267l34.987-9.387c2.56-0.853,4.267,0,6.827,0.853l29.867,17.067
		c1.707,0.853,3.413,3.413,4.267,5.12l9.387,34.987c0.853,4.267-1.707,9.387-5.973,10.24l-34.987,9.387
		C204.873,404.303,204.02,404.303,203.166,404.303z M180.98,373.583l23.04,13.653l23.04-5.973l-5.973-23.893l-23.04-13.653
		l-23.04,5.973L180.98,373.583z"/>
	<path d="M135.753,511.823c-3.413,0-5.973-0.853-8.533-2.56l-14.507-8.533c-8.533-5.12-11.093-15.36-5.973-23.893l59.733-103.253
		c2.56-4.267,7.68-5.12,11.947-3.413l29.867,17.067c1.707,0.853,3.413,3.413,4.267,5.12c0.853,2.56,0,4.267-0.853,6.827
		l-59.733,103.253c-2.56,4.267-5.973,6.827-10.24,7.68C139.166,511.823,137.46,511.823,135.753,511.823z M176.713,390.65
		l-55.467,95.573l14.507,8.533l0,0l0,0l55.467-95.573L176.713,390.65z"/>
	<path d="M356.767,174.757c-1.707,0-2.56,0-4.267-0.853l-58.88-34.133c-4.267-3.413-5.973-8.533-3.413-11.947l46.933-81.067
		c0.853-2.56,2.56-4.267,5.12-4.267c2.56-0.853,4.267,0,6.827,0.853l58.88,34.133c4.267,2.56,5.12,7.68,3.413,11.947l-47.787,81.067
		c-0.853,1.707-3.413,3.413-5.12,4.267C357.62,173.903,356.767,174.757,356.767,174.757z M308.98,128.677l44.373,25.6l38.4-66.56
		l-44.373-25.6L308.98,128.677z"/>
	<path d="M414.793,246.437c-1.707,0-2.56,0-2.56,0c-4.267-0.853-7.68-5.12-6.827-9.387c4.267-51.2-8.533-58.027-29.013-69.973
		l-14.507-8.533c-4.267-2.56-5.12-7.68-3.413-11.947l29.867-52.053c0.853-1.707,3.413-3.413,5.12-4.267
		c2.56-0.853,4.267,0,6.827,0.853l14.507,8.533c20.48,11.947,37.547,11.947,80.213-17.067c3.413-2.56,8.533-1.707,11.093,1.707
		c2.56,2.56,20.48,27.307-19.627,96.427C450.633,241.317,423.327,246.437,414.793,246.437z M376.393,148.303l7.68,4.267
		c24.747,14.507,40.107,27.307,38.4,75.093c9.387-4.267,26.453-17.067,47.787-54.613c21.333-37.547,23.893-58.88,23.04-69.12
		c-37.547,24.747-61.44,27.307-88.747,11.947l-6.827-5.12L376.393,148.303z"/>
	<path d="M301.3,141.477l-27.307-49.493c-4.267-6.827-4.267-16.213,0-23.04l10.24-17.067c6.827-11.093,20.48-14.507,31.573-8.533
		l31.573,17.92L301.3,141.477z M303.86,57.85c-1.707,0-4.267,0.853-5.12,3.413L288.5,78.33c-0.853,1.707-0.853,4.267,0,5.973
		l12.8,23.04l23.04-39.253l-17.067-9.387C306.42,57.85,305.566,57.85,303.86,57.85z"/>
	<path d="M136.606,75.77c-0.853,0-1.707,0-2.56,0l-46.08-12.8c-5.12-0.853-7.68-5.973-5.973-10.24l12.8-46.933
		c0.853-2.56,1.707-4.267,4.267-5.12c2.56-0.853,3.413-0.853,5.973-0.853l46.933,12.8c4.267,0.853,7.68,5.973,5.973,10.24
		l-12.8,46.933C143.433,73.21,140.02,75.77,136.606,75.77z M100.766,49.317l29.867,7.68l7.68-29.867l-29.867-7.68L100.766,49.317z"
		/>
	<path d="M307.273,404.303c-0.853,0-1.707,0-2.56,0l-34.987-9.387c-4.267-0.853-6.827-5.973-5.973-10.24l9.387-34.987
		c0.853-2.56,1.707-4.267,4.267-5.12l29.867-17.067c1.707-0.853,4.267-1.707,6.827-0.853l34.987,9.387
		c4.267,0.853,6.827,5.973,5.973,10.24l-9.387,34.987c-0.853,2.56-1.707,4.267-4.267,5.12L311.54,403.45
		C309.833,404.303,308.98,404.303,307.273,404.303z M282.526,380.41l23.04,5.973l23.04-13.653l5.973-23.04l-23.04-5.973
		l-22.187,13.653L282.526,380.41z"/>
	<path d="M374.686,511.823c-5.973,0-11.947-3.413-15.36-8.533l-59.733-103.253c-2.56-4.267-0.853-9.387,3.413-11.947l29.867-17.067
		c1.707-0.853,4.267-1.707,6.827-0.853s4.267,1.707,5.12,4.267l59.733,103.253c2.56,4.267,2.56,8.533,1.707,12.8
		c-0.853,4.267-4.267,8.533-7.68,10.24l-14.507,8.533l0,0l0,0C380.66,510.97,377.246,511.823,374.686,511.823z M373.833,494.757
		L373.833,494.757L373.833,494.757l14.507-8.533l-55.467-96.427l-14.507,8.533L373.833,494.757L373.833,494.757z"/>
	<path d="M153.673,174.757c-0.853,0-1.707,0-2.56,0c-2.56-0.853-4.267-1.707-5.12-4.267L99.06,89.423
		c-2.56-4.267-0.853-9.387,3.413-11.947l58.88-34.133c1.707-0.853,4.267-1.707,6.827-0.853c2.56,0.853,4.267,1.707,5.12,4.267
		l46.933,81.067c2.56,4.267,0.853,9.387-3.413,11.947l-58.88,34.133C157.086,173.903,155.38,174.757,153.673,174.757z
		 M118.686,87.717l38.4,66.56l44.373-25.6l-38.4-66.56L118.686,87.717z"/>
	<path d="M95.646,246.437c-8.533,0-36.693-5.12-70.827-65.707C-15.287,111.61,2.633,86.863,5.193,84.303
		c2.56-3.413,7.68-4.267,11.093-1.707C58.1,112.463,75.166,111.61,96.5,99.663l14.507-8.533c1.707-0.853,4.267-1.707,6.827-0.853
		c2.56,0.853,4.267,1.707,5.12,4.267l29.867,52.053c2.56,4.267,0.853,9.387-3.413,11.947l-14.507,8.533
		c-21.333,11.947-34.133,19.627-29.013,69.973c0,4.267-2.56,8.533-6.827,9.387C98.206,246.437,97.353,246.437,95.646,246.437z
		 M16.286,103.93c-0.853,10.24,1.707,31.573,23.04,69.12s38.4,50.347,47.787,54.613c-1.707-47.787,13.653-60.587,38.4-75.093
		l7.68-4.267l-20.48-37.547l-7.68,4.267C77.726,131.237,54.686,128.677,16.286,103.93z"/>
	<path d="M209.14,141.477l-46.08-79.36l31.573-17.92c11.093-6.827,25.6-2.56,31.573,8.533l10.24,17.067
		c4.267,6.827,4.267,16.213,0,23.04L209.14,141.477z M186.1,68.09l22.187,38.4l12.8-22.187c0.853-1.707,0.853-4.267,0-5.973
		l-10.24-17.067c-0.853-1.707-2.56-2.56-3.413-2.56c-1.707,0-3.413,0-4.267,0.853L186.1,68.09z"/>
	<path d="M228.766,360.783h-0.853c-2.56,0-4.267-1.707-5.973-3.413l-26.453-15.36c-4.267-2.56-5.12-7.68-3.413-11.947
		l112.64-193.707c2.56-4.267,7.68-5.12,11.947-3.413l29.867,17.067c1.707,0.853,3.413,3.413,4.267,5.12
		c0.853,1.707,0,4.267-0.853,6.827l-113.493,194.56C234.74,359.077,232.18,360.783,228.766,360.783z M211.7,331.77l14.507,8.533
		L330.313,160.25l-14.507-8.533L211.7,331.77z"/>
	<path d="M281.673,360.783c-3.413,0-5.973-1.707-7.68-4.267L247.54,311.29c-1.707-2.56-1.707-5.973,0-8.533l19.627-34.133
		c3.413-5.12,11.947-5.12,14.507,0l35.84,62.293c0.853,1.707,1.707,4.267,0.853,6.827c-0.853,2.56-1.707,3.413-3.413,4.267
		L288.5,357.37c-1.707,1.707-3.413,2.56-5.973,3.413H281.673z M265.46,307.023l18.773,33.28l14.507-8.533l-23.893-41.813
		L265.46,307.023z"/>
	<path d="M235.593,281.423c-3.413,0-5.973-1.707-7.68-4.267l-66.56-115.2c-2.56-4.267-0.853-9.387,3.413-11.947l29.867-17.067
		c1.707-0.853,4.267-1.707,6.827-0.853s4.267,1.707,5.12,4.267l57.173,98.133c1.707,2.56,1.707,5.973,0,8.533l-19.627,34.133
		C241.566,279.717,238.153,281.423,235.593,281.423z M180.126,160.25l55.467,95.573l10.24-17.067l-50.347-87.04L180.126,160.25z"/>
</g>
</svg>