<?xml version="1.0" encoding="iso-8859-1"?>
<!-- Uploaded to: SVG Repo, www.svgrepo.com, Generator: SVG Repo Mixer Tools -->
<svg fill="#000000" height="800px" width="800px" version="1.1" id="Layer_1" xmlns="http://www.w3.org/2000/svg" xmlns:xlink="http://www.w3.org/1999/xlink" 
	 viewBox="0 0 511.979 511.979" xml:space="preserve">
<g>
	<g>
		<path d="M437.323,0H74.656C45.237,0,21.323,23.936,21.323,53.333c0,17.365,8.448,32.661,21.333,42.389v53.589
			c0,19.819,13.653,36.373,31.979,41.152C92,241.045,129.291,281.003,176.203,302.507c5.056,20.565,7.317,41.493,6.805,62.251
			c-7.253,3.413-12.352,10.667-12.352,19.221c0,7.019,3.605,12.949,8.853,16.853c-0.171,0.811-0.171,1.643-0.341,2.453
			c-0.149,0.683-0.256,1.387-0.32,2.091l-6.229,63.936h-1.963c-11.797,0-21.333,9.557-21.333,21.333s9.536,21.333,21.333,21.333
			h21.333h128h21.333c11.776,0,21.333-9.557,21.333-21.333s-9.557-21.333-21.333-21.333h-1.984l-6.229-63.936
			c-0.064-0.704-0.171-1.408-0.32-2.091c-0.149-0.811-0.171-1.643-0.341-2.453c5.248-3.904,8.875-9.835,8.875-16.853
			c0-8.555-5.12-15.808-12.373-19.221c-0.512-20.757,1.749-41.685,6.805-62.251c46.912-21.504,84.203-61.461,101.568-112.043
			c18.347-4.779,32-21.333,32-41.152V95.723c12.864-9.728,21.333-25.024,21.333-42.389C490.656,23.936,466.72,0,437.323,0z
			 M285.899,362.645h-59.84c0.192-15.168-0.811-30.421-3.115-45.547c10.773,1.877,21.803,2.88,33.045,2.88
			c11.221,0,22.251-1.003,33.024-2.88C286.709,332.224,285.707,347.477,285.899,362.645z M421.045,149.312H90.912h-5.589v-42.645
			h341.333l0.021,42.645H421.045z"/>
	</g>
</g>
</svg>