<?xml version="1.0" encoding="iso-8859-1"?>
<!-- Uploaded to: SVG Repo, www.svgrepo.com, Generator: SVG Repo Mixer Tools -->
<svg height="800px" width="800px" version="1.1" id="Layer_1" xmlns="http://www.w3.org/2000/svg" xmlns:xlink="http://www.w3.org/1999/xlink" 
	 viewBox="0 0 503.468 503.468" xml:space="preserve">
<g>
	<path style="fill:#9EADB7;" d="M68.268,145.068c-4.719,0-8.533-3.823-8.533-8.533V42.668c0-4.71,3.814-8.533,8.533-8.533
		s8.533,3.823,8.533,8.533v93.867C76.802,141.245,72.987,145.068,68.268,145.068L68.268,145.068z"/>
	<path style="fill:#26B99A;" d="M68.268,102.401c-0.785,0-1.579-0.111-2.338-0.333L6.197,85.001
		c-3.302-0.939-5.717-3.763-6.135-7.177c-0.41-3.405,1.254-6.724,4.241-8.431l59.733-34.133c2.637-1.51,5.879-1.502,8.516,0.026
		s4.25,4.343,4.25,7.381v51.2c0,2.679-1.254,5.197-3.388,6.81C71.912,101.812,70.103,102.401,68.268,102.401"/>
	<path style="fill:#9EADB7;" d="M256.002,110.934c-4.719,0-8.533-3.823-8.533-8.533V8.534c0-4.71,3.814-8.533,8.533-8.533
		s8.533,3.823,8.533,8.533v93.867C264.535,107.111,260.721,110.934,256.002,110.934"/>
	<path style="fill:#26B99A;" d="M256.002,68.268c-0.785,0-1.579-0.111-2.338-0.333L193.93,50.868
		c-3.302-0.939-5.717-3.763-6.135-7.177c-0.41-3.405,1.254-6.724,4.241-8.431l59.733-34.133c2.637-1.51,5.888-1.502,8.516,0.026
		c2.637,1.527,4.25,4.343,4.25,7.381v51.2c0,2.679-1.254,5.197-3.388,6.81C259.645,67.679,257.836,68.268,256.002,68.268"/>
	<path style="fill:#9EADB7;" d="M452.268,145.068c-4.719,0-8.533-3.823-8.533-8.533V42.668c0-4.71,3.814-8.533,8.533-8.533
		c4.719,0,8.533,3.823,8.533,8.533v93.867C460.802,141.245,456.987,145.068,452.268,145.068"/>
	<path style="fill:#26B99A;" d="M452.268,102.401c-0.785,0-1.579-0.111-2.338-0.333l-59.733-17.067
		c-3.302-0.939-5.717-3.763-6.135-7.177c-0.41-3.405,1.254-6.724,4.241-8.431l59.733-34.133c2.637-1.51,5.888-1.502,8.516,0.026
		c2.637,1.527,4.25,4.343,4.25,7.381v51.2c0,2.679-1.254,5.197-3.388,6.81C455.912,101.812,454.103,102.401,452.268,102.401"/>
	<g>
		<polygon style="fill:#9EADB7;" points="179.202,204.801 179.202,315.734 196.268,315.734 196.268,358.401 315.735,358.401 
			315.735,315.734 332.802,315.734 332.802,204.801 		"/>
		<polygon style="fill:#9EADB7;" points="34.135,503.468 477.868,503.468 477.868,426.668 34.135,426.668 		"/>
	</g>
	<g>
		<polygon style="fill:#C8D2DA;" points="477.868,426.668 34.135,426.668 8.535,358.401 503.468,358.401 		"/>
		<polygon style="fill:#C8D2DA;" points="315.735,358.401 349.868,358.401 349.868,315.734 315.735,315.734 		"/>
		<polygon style="fill:#C8D2DA;" points="392.535,358.401 426.668,358.401 426.668,315.734 392.535,315.734 		"/>
		<polygon style="fill:#C8D2DA;" points="469.335,358.401 503.468,358.401 503.468,315.734 469.335,315.734 		"/>
		<polygon style="fill:#C8D2DA;" points="8.535,358.401 42.668,358.401 42.668,315.734 8.535,315.734 		"/>
		<polygon style="fill:#C8D2DA;" points="85.335,358.401 119.468,358.401 119.468,315.734 85.335,315.734 		"/>
		<polygon style="fill:#C8D2DA;" points="162.135,358.401 196.268,358.401 196.268,315.734 162.135,315.734 		"/>
		<polygon style="fill:#C8D2DA;" points="238.935,358.401 273.068,358.401 273.068,315.734 238.935,315.734 		"/>
	</g>
	<g>
		<path style="fill:#9EADB7;" d="M221.868,401.068h-68.267c-4.719,0-8.533-3.823-8.533-8.533s3.814-8.533,8.533-8.533h68.267
			c4.719,0,8.533,3.823,8.533,8.533S226.587,401.068,221.868,401.068"/>
		<path style="fill:#9EADB7;" d="M358.402,401.068h-68.267c-4.719,0-8.533-3.823-8.533-8.533s3.814-8.533,8.533-8.533h68.267
			c4.719,0,8.533,3.823,8.533,8.533S363.121,401.068,358.402,401.068"/>
		<path style="fill:#9EADB7;" d="M264.535,392.534c0,4.71-3.823,8.533-8.533,8.533c-4.71,0-8.533-3.823-8.533-8.533
			s3.823-8.533,8.533-8.533C260.712,384.001,264.535,387.824,264.535,392.534"/>
		<path style="fill:#9EADB7;" d="M443.735,401.068h-17.067c-4.719,0-8.533-3.823-8.533-8.533s3.814-8.533,8.533-8.533h17.067
			c4.719,0,8.533,3.823,8.533,8.533S448.454,401.068,443.735,401.068"/>
		<path style="fill:#9EADB7;" d="M401.068,392.534c0,4.71-3.823,8.533-8.533,8.533s-8.533-3.823-8.533-8.533
			s3.823-8.533,8.533-8.533S401.068,387.824,401.068,392.534"/>
		<path style="fill:#9EADB7;" d="M85.335,401.068H68.268c-4.719,0-8.533-3.823-8.533-8.533s3.814-8.533,8.533-8.533h17.067
			c4.719,0,8.533,3.823,8.533,8.533S90.054,401.068,85.335,401.068"/>
		<path style="fill:#9EADB7;" d="M110.935,392.534c0-4.71,3.823-8.533,8.533-8.533c4.71,0,8.533,3.823,8.533,8.533
			s-3.823,8.533-8.533,8.533C114.758,401.068,110.935,397.245,110.935,392.534"/>
	</g>
	<path style="fill:#C8D2DA;" d="M119.468,238.934h-102.4l43.281-100.983c2.978-6.963,12.86-6.963,15.838,0L119.468,238.934z"/>
	<polygon style="fill:#9EADB7;" points="34.135,238.934 34.135,315.734 42.668,315.734 42.668,358.401 85.335,358.401 
		85.335,315.734 102.402,315.734 102.402,238.934 	"/>
	<g>
		<path style="fill:#C8D2DA;" d="M349.868,204.801H162.135l87.091-110.839c3.447-4.395,10.103-4.395,13.551,0L349.868,204.801z"/>
		<path style="fill:#C8D2DA;" d="M256.002,281.601c-4.719,0-8.533-3.823-8.533-8.533v-25.6c0-4.71,3.814-8.533,8.533-8.533
			s8.533,3.823,8.533,8.533v25.6C264.535,277.778,260.721,281.601,256.002,281.601"/>
		<path style="fill:#C8D2DA;" d="M503.468,238.934h-102.4l43.281-100.983c2.978-6.963,12.86-6.963,15.838,0L503.468,238.934z"/>
	</g>
	<polygon style="fill:#9EADB7;" points="418.135,238.934 418.135,315.734 426.668,315.734 426.668,358.401 469.335,358.401 
		469.335,315.734 486.402,315.734 486.402,238.934 	"/>
	<g>
		<path style="fill:#C8D2DA;" d="M426.668,460.801c-4.719,0-8.533,3.823-8.533,8.533v34.133h17.067v-34.133
			C435.202,464.624,431.387,460.801,426.668,460.801"/>
		<path style="fill:#C8D2DA;" d="M384.002,460.801c-4.719,0-8.533,3.823-8.533,8.533v34.133h17.067v-34.133
			C392.535,464.624,388.721,460.801,384.002,460.801"/>
		<path style="fill:#C8D2DA;" d="M341.335,460.801c-4.719,0-8.533,3.823-8.533,8.533v34.133h17.067v-34.133
			C349.868,464.624,346.054,460.801,341.335,460.801"/>
		<path style="fill:#C8D2DA;" d="M298.668,460.801c-4.719,0-8.533,3.823-8.533,8.533v34.133h17.067v-34.133
			C307.202,464.624,303.387,460.801,298.668,460.801"/>
		<path style="fill:#C8D2DA;" d="M256.002,460.801c-4.719,0-8.533,3.823-8.533,8.533v34.133h17.067v-34.133
			C264.535,464.624,260.721,460.801,256.002,460.801"/>
		<path style="fill:#C8D2DA;" d="M213.335,460.801c-4.719,0-8.533,3.823-8.533,8.533v34.133h17.067v-34.133
			C221.868,464.624,218.054,460.801,213.335,460.801"/>
		<path style="fill:#C8D2DA;" d="M170.668,460.801c-4.719,0-8.533,3.823-8.533,8.533v34.133h17.067v-34.133
			C179.202,464.624,175.387,460.801,170.668,460.801"/>
		<path style="fill:#C8D2DA;" d="M128.002,460.801c-4.719,0-8.533,3.823-8.533,8.533v34.133h17.067v-34.133
			C136.535,464.624,132.721,460.801,128.002,460.801"/>
		<path style="fill:#C8D2DA;" d="M85.335,460.801c-4.719,0-8.533,3.823-8.533,8.533v34.133h17.067v-34.133
			C93.868,464.624,90.054,460.801,85.335,460.801"/>
	</g>
</g>
</svg>