<?xml version="1.0" encoding="iso-8859-1"?>
<!-- Uploaded to: SVG Repo, www.svgrepo.com, Generator: SVG Repo Mixer Tools -->
<svg height="800px" width="800px" version="1.1" id="Layer_1" xmlns="http://www.w3.org/2000/svg" xmlns:xlink="http://www.w3.org/1999/xlink" 
	 viewBox="0 0 512.001 512.001" xml:space="preserve">
<g transform="translate(-1)">
	<path style="fill:#BA941C;" d="M451.207,264.829V114.76c-43.917,0-79.448-35.531-79.448-79.448
		c0-7.848-12.235-16.914-29.749-21.901c-62.702-17.858-108.041-17.902-170.019,0c-17.496,5.049-29.749,14.054-29.749,21.901
		c0,43.917-35.531,79.448-79.448,79.448v150.069c0,0-6.621,132.97,194.207,247.172C457.828,397.799,451.207,264.829,451.207,264.829
		"/>
	<path style="fill:#F0C419;" d="M257.001,460.622c-149.557-93.59-150.148-190.137-150.095-194.383l0.053-1.103l-0.026-114.388
		c40.289-15.457,70.506-51.43,77.771-95.073c27.745-7.971,49.964-11.538,71.98-11.538c22.025,0,44.447,3.566,72.616,11.546
		c7.274,43.635,37.482,79.607,77.771,95.064V265.93l0.053,1.095C407.149,270.52,406.558,367.041,257.001,460.622"/>
	<path style="fill:#FFFFFF;" d="M239.345,264.829c0,46.027-25.379,77.974-25.379,77.974l23.905-4.776l19.129,23.905l19.129-23.905
		l23.905,4.776c0,0-25.379-31.947-25.379-77.974c46.027,0,77.974,25.379,77.974,25.379l-4.776-23.905l23.905-19.129l-23.905-19.129
		l4.776-23.905c0,0-31.947,25.379-77.974,25.379c0-46.027,25.379-77.974,25.379-77.974l-23.905,4.776l-19.129-23.905l-19.129,23.905
		l-23.905-4.776c0,0,25.379,31.947,25.379,77.974c-46.027,0-77.974-25.379-77.974-25.379l4.776,23.905l-23.905,19.129l23.905,19.129
		l-4.776,23.905C161.371,290.208,193.318,264.829,239.345,264.829"/>
</g>
</svg>