<?xml version="1.0" encoding="iso-8859-1"?>
<!-- Uploaded to: SVG Repo, www.svgrepo.com, Generator: SVG Repo Mixer Tools -->
<svg fill="#000000" height="800px" width="800px" version="1.1" id="Layer_1" xmlns="http://www.w3.org/2000/svg" xmlns:xlink="http://www.w3.org/1999/xlink" 
	 viewBox="0 0 512 512" xml:space="preserve">
<g>
	<g>
		<g>
			<path d="M490.667,341.333h-21.333V320c0-11.782-9.551-21.333-21.333-21.333c-11.782,0-21.333,9.551-21.333,21.333v21.333H384V192
				v-58.964l40.414-80.829c0.149-0.298,0.28-0.599,0.414-0.9c0.062-0.14,0.132-0.275,0.191-0.417
				c0.246-0.585,0.455-1.173,0.645-1.763c0.027-0.084,0.052-0.169,0.078-0.253c0.73-2.361,1.023-4.748,0.924-7.08V21.333
				C426.667,9.551,417.115,0,405.333,0C393.551,0,384,9.551,384,21.333h-64C320,9.551,310.449,0,298.667,0
				c-11.782,0-21.333,9.551-21.333,21.333h-42.667C234.667,9.551,225.115,0,213.333,0C201.551,0,192,9.551,192,21.333h-64
				C128,9.551,118.449,0,106.667,0C94.885,0,85.333,9.551,85.333,21.333v20.461c-0.098,2.332,0.195,4.719,0.924,7.08
				c0.026,0.085,0.051,0.169,0.078,0.253c0.19,0.59,0.399,1.178,0.645,1.763c0.059,0.141,0.129,0.277,0.191,0.417
				c0.134,0.3,0.264,0.601,0.414,0.9L128,133.036V192v149.333H85.333V320c0-11.782-9.551-21.333-21.333-21.333
				c-11.782,0-21.333,9.551-21.333,21.333v21.333H21.333C9.551,341.333,0,350.885,0,362.667v128C0,502.449,9.551,512,21.333,512h128
				h213.333h128c11.782,0,21.333-9.551,21.333-21.333v-128C512,350.885,502.449,341.333,490.667,341.333z M170.667,149.333h170.667
				v21.333H170.667V149.333z M370.815,64l-21.333,42.667H162.518L141.185,64H370.815z M42.667,384H128v85.333H42.667V384z
				 M170.667,362.667V213.333h170.667v149.333v106.667h-64v-42.667c0-11.782-9.551-21.333-21.333-21.333
				s-21.333,9.551-21.333,21.333v42.667h-64V362.667z M469.333,469.333H384V384h85.333V469.333z"/>
			<path d="M234.667,298.667v-21.333c0-11.782-9.551-21.333-21.333-21.333C201.551,256,192,265.551,192,277.333v21.333
				c0,11.782,9.551,21.333,21.333,21.333C225.115,320,234.667,310.449,234.667,298.667z"/>
			<path d="M298.667,320c11.782,0,21.333-9.551,21.333-21.333v-21.333c0-11.782-9.551-21.333-21.333-21.333
				c-11.782,0-21.333,9.551-21.333,21.333v21.333C277.333,310.449,286.885,320,298.667,320z"/>
		</g>
	</g>
</g>
</svg>