<?xml version="1.0" encoding="iso-8859-1"?>
<!-- Uploaded to: SVG Repo, www.svgrepo.com, Generator: SVG Repo Mixer Tools -->
<svg fill="#000000" height="800px" width="800px" version="1.1" id="Layer_1" xmlns="http://www.w3.org/2000/svg" xmlns:xlink="http://www.w3.org/1999/xlink" 
	 viewBox="0 0 512 512" xml:space="preserve">
<g>
	<g>
		<path d="M490.667,21.333H21.333C-6.4,21.333-6.4,64,21.333,64h469.333C518.4,64,518.4,21.333,490.667,21.333z"/>
	</g>
</g>
<g>
	<g>
		<path d="M256,0c-12.8,0-21.333,8.533-21.333,21.333v21.333C234.667,55.467,243.2,64,256,64s21.333-8.533,21.333-21.333V21.333
			C277.333,8.533,268.8,0,256,0z"/>
	</g>
</g>
<g>
	<g>
		<path d="M426.667,21.333H85.333C72.533,21.333,64,29.867,64,42.667v384c0,17.067,19.2,27.733,34.133,17.067L256,326.4
			l157.867,117.333C428.8,454.4,448,443.733,448,426.667v-384C448,29.867,439.467,21.333,426.667,21.333z M405.333,384L268.8,281.6
			c-8.533-6.4-17.067-6.4-25.6,0L106.667,384V64h298.667V384z"/>
	</g>
</g>
<g>
	<g>
		<path d="M256,277.333c-12.8,0-21.333,8.533-21.333,21.333v192c0,12.8,8.533,21.333,21.333,21.333s21.333-8.533,21.333-21.333v-192
			C277.333,285.867,268.8,277.333,256,277.333z"/>
	</g>
</g>
<g>
	<g>
		<path d="M256,85.333c-12.8,0-21.333,8.533-21.333,21.333v128c0,12.8,8.533,21.333,21.333,21.333s21.333-8.533,21.333-21.333v-128
			C277.333,93.867,268.8,85.333,256,85.333z"/>
	</g>
</g>
<g>
	<g>
		<path d="M298.667,128h-85.333c-12.8,0-21.333,8.533-21.333,21.333c0,12.8,8.533,21.333,21.333,21.333h85.333
			c12.8,0,21.333-8.533,21.333-21.333C320,136.533,311.467,128,298.667,128z"/>
	</g>
</g>
<g>
	<g>
		<path d="M85.333,405.333c-12.8,0-21.333,8.533-21.333,21.333v64C64,503.467,72.533,512,85.333,512
			c12.8,0,21.333-8.533,21.333-21.333v-64C106.667,413.867,98.133,405.333,85.333,405.333z"/>
	</g>
</g>
<g>
	<g>
		<path d="M170.667,347.733c-12.8,0-21.333,10.667-21.333,21.333V448c0,12.8,8.533,21.333,21.333,21.333S192,460.8,192,448v-78.933
			C192,356.267,183.467,347.733,170.667,347.733z"/>
	</g>
</g>
<g>
	<g>
		<path d="M341.333,347.733c-12.8,0-21.333,10.667-21.333,21.333V448c0,12.8,8.533,21.333,21.333,21.333
			c12.8,0,21.333-8.533,21.333-21.333v-78.933C362.667,356.267,354.133,347.733,341.333,347.733z"/>
	</g>
</g>
<g>
	<g>
		<path d="M426.667,405.333c-12.8,0-21.333,8.533-21.333,21.333v64c0,12.8,8.533,21.333,21.333,21.333S448,503.467,448,490.667v-64
			C448,413.867,439.467,405.333,426.667,405.333z"/>
	</g>
</g>
</svg>