<?xml version="1.0" encoding="iso-8859-1"?>
<!-- Uploaded to: SVG Repo, www.svgrepo.com, Generator: SVG Repo Mixer Tools -->
<svg fill="#000000" height="800px" width="800px" version="1.1" id="Layer_1" xmlns="http://www.w3.org/2000/svg" xmlns:xlink="http://www.w3.org/1999/xlink" 
	 viewBox="0 0 512 512" xml:space="preserve">
<g transform="translate(1 1)">
	<g>
		<g>
			<path d="M255,186.733c87.04,0,213.333-27.307,213.333-76.8S342.04,33.133,255,33.133S41.667,60.44,41.667,109.933
				S167.96,186.733,255,186.733z M255,50.2c104.107,0,196.267,33.28,196.267,59.733c0,26.453-92.16,59.733-196.267,59.733
				s-196.267-33.28-196.267-59.733C58.733,83.48,150.893,50.2,255,50.2z"/>
			<path d="M228.547,361.667l-13.653,15.36c-2.56,3.413-2.56,7.68,0,11.093l13.653,16.213c7.68,7.68,17.067,11.093,26.453,11.093
				s19.627-3.413,27.307-11.947l13.653-15.36c2.56-3.413,2.56-7.68,0-11.093l-13.653-16.213
				C267.8,346.307,243.907,346.307,228.547,361.667z M278.04,383l-8.533,9.387c-8.533,8.533-21.333,8.533-29.013,0.853L231.96,383
				l8.533-9.387c8.533-8.533,21.333-8.533,29.013-0.853L278.04,383z"/>
			<path d="M485.4,264.621V161.133c0-0.662-0.06-1.295-0.17-1.896C501.76,144.466,511,127.761,511,109.933C511,47.64,398.36-1,255-1
				S-1,47.64-1,109.933c0,17.827,9.24,34.533,25.77,49.304c-0.111,0.602-0.17,1.234-0.17,1.896v103.488
				C9.921,268.435-1,281.837-1,297.667C-1,316.44,14.36,331.8,33.133,331.8c18.773,0,34.133-15.36,34.133-34.133
				c0-15.829-10.921-29.232-25.6-33.046v-92.566c19.955,13,46.125,23.977,76.8,32.212v33.667H101.4c-5.12,0-8.533,3.413-8.533,8.533
				S96.28,255,101.4,255h17.067v42.667c0,5.12,3.413,8.533,8.533,8.533s8.533-3.413,8.533-8.533V255H152.6
				c5.12,0,8.533-3.413,8.533-8.533s-3.413-8.533-8.533-8.533h-17.067v-29.475c33.157,7.421,70.749,11.799,110.933,12.343V255
				c-9.387,0-17.067,7.68-17.067,17.067v11.778c-35.581,9.254-64.292,37.361-73.579,73.555h-11.755
				c-9.387,0-17.067,7.68-17.067,17.067v17.067c0,9.387,7.68,17.067,17.067,17.067h11.778c9.254,35.581,37.361,64.292,73.555,73.579
				v11.755c0,9.387,7.68,17.067,17.067,17.067h17.067c9.387,0,17.067-7.68,17.067-17.067v-11.778
				c35.581-9.254,64.292-37.361,73.578-73.555h11.755c9.387,0,17.067-7.68,17.067-17.067v-17.067c0-9.387-7.68-17.067-17.067-17.067
				h-11.778c-9.254-35.581-37.361-64.292-73.555-73.579v-11.755c0-9.387-7.68-17.067-17.067-17.067v-34.198
				c40.184-0.545,77.776-4.922,110.933-12.343v29.475H357.4c-5.12,0-8.533,3.413-8.533,8.533S352.28,255,357.4,255h17.067v42.667
				c0,5.12,3.413,8.533,8.533,8.533s8.533-3.413,8.533-8.533V255H408.6c5.12,0,8.533-3.413,8.533-8.533s-3.413-8.533-8.533-8.533
				h-17.067v-33.667c30.675-8.235,56.845-19.212,76.8-32.212v92.566c-14.679,3.814-25.6,17.216-25.6,33.046
				c0,18.773,15.36,34.133,34.133,34.133c18.773,0,34.133-15.36,34.133-34.133C511,281.837,500.079,268.435,485.4,264.621z
				 M50.2,297.667c0,9.387-7.68,17.067-17.067,17.067c-9.387,0-17.067-7.68-17.067-17.067s7.68-17.067,17.067-17.067
				C42.52,280.6,50.2,288.28,50.2,297.667z M246.467,272.067h17.067v8.533v25.6h-17.067v-25.6V272.067z M144.067,391.533v-17.067
				h8.533h25.6v17.067h-25.6H144.067z M263.533,493.933h-17.067V485.4v-25.6h17.067v25.6V493.933z M365.933,374.467v17.067H357.4
				h-25.6v-17.067h25.6H365.933z M281.453,302.787c26.167,7.597,46.482,28.557,55.178,54.613H331.8
				c-9.387,0-17.067,7.68-17.067,17.067v0.853v16.213v0.853c0,9.387,7.68,17.067,17.067,17.067h4.267
				c-7.68,26.453-29.013,46.933-55.467,55.467v-5.12c0-9.387-7.68-17.067-17.067-17.067h-17.067c-9.387,0-17.067,7.68-17.92,17.067
				v3.413c-26.167-7.597-46.482-28.557-55.178-54.613h4.831c9.387,0,17.067-7.68,17.067-17.067v-0.853v-16.213v-0.853
				c0-9.387-7.68-17.067-17.067-17.067h-3.413c7.597-26.167,28.557-46.482,54.613-55.178v4.831c0,9.387,7.68,17.067,17.067,17.067
				h0.853h16.213h0.853c9.387,0,17.067-7.68,17.067-17.067V302.787z M16.067,109.933c0-51.2,109.227-93.867,238.933-93.867
				s238.933,42.667,238.933,93.867S384.707,203.8,255,203.8S16.067,161.133,16.067,109.933z M476.867,314.733
				c-9.387,0-17.067-7.68-17.067-17.067s7.68-17.067,17.067-17.067s17.067,7.68,17.067,17.067S486.253,314.733,476.867,314.733z"/>
		</g>
	</g>
</g>
</svg>