<?xml version="1.0" encoding="iso-8859-1"?>
<!-- Uploaded to: SVG Repo, www.svgrepo.com, Generator: SVG Repo Mixer Tools -->
<svg fill="#000000" height="800px" width="800px" version="1.1" id="Layer_1" xmlns="http://www.w3.org/2000/svg" xmlns:xlink="http://www.w3.org/1999/xlink" 
	 viewBox="0 0 512.012 512.012" xml:space="preserve">
<g>
	<g>
		<path d="M505.756,475.587L280.497,250.328l14.144-14.144c8.32-8.341,8.32-21.845,0-30.165l-7.637-7.637
			c13.035-6.656,46.293-8.384,90.453,7.701c5.952,2.155,12.629,1.557,18.112-1.664s9.259-8.725,10.24-15.019
			c0.555-3.307,12.395-81.941-46.891-141.205C299.697-11.048,221.041,0.792,217.734,1.304c-6.293,1.003-11.797,4.779-15.019,10.261
			c-3.221,5.483-3.84,12.117-1.643,18.091c16.981,46.72,18.539,82.688,13.312,96.107l-7.424-7.424
			c-3.989-4.011-9.408-6.251-15.083-6.251s-11.072,2.24-15.083,6.251l-58.453,58.453c-4.011,4.011-6.251,9.429-6.251,15.083
			s2.24,11.093,6.251,15.083l7.424,7.424c-13.419,5.227-49.344,3.669-96.085-13.333c-5.952-2.176-12.629-1.557-18.112,1.643
			c-5.483,3.243-9.259,8.747-10.261,15.019c-0.533,3.307-12.373,81.941,46.912,141.205c41.707,41.728,92.992,48.213,120.896,48.213
			c11.733,0,19.307-1.152,20.288-1.323c6.293-1.003,11.797-4.757,15.019-10.24c3.221-5.483,3.84-12.117,1.643-18.112
			c-16.043-44.16-14.336-77.44-7.68-90.453l7.637,7.637c4.181,4.16,9.621,6.251,15.083,6.251c5.461,0,10.923-2.091,15.083-6.251
			l14.144-14.144L475.59,505.752c4.16,4.16,9.621,6.251,15.083,6.251s10.923-2.091,15.083-6.251
			C514.097,497.411,514.097,483.928,505.756,475.587z"/>
	</g>
</g>
</svg>