<?xml version="1.0" encoding="iso-8859-1"?>
<!-- Uploaded to: SVG Repo, www.svgrepo.com, Generator: SVG Repo Mixer Tools -->
<svg height="800px" width="800px" version="1.1" id="Layer_1" xmlns="http://www.w3.org/2000/svg" xmlns:xlink="http://www.w3.org/1999/xlink" 
	 viewBox="0 0 512.349 512.349" xml:space="preserve">
<g transform="translate(1 1)">
	<g>
		<path style="fill:#FFE100;" d="M93.041,511.349c-5.12,0-8.533-3.413-8.533-8.533v-76.8c0-5.12,3.413-8.533,8.533-8.533
			c5.12,0,8.533,3.413,8.533,8.533v76.8C101.575,507.936,98.161,511.349,93.041,511.349z"/>
		<path style="fill:#FFE100;" d="M127.175,511.349c-5.12,0-8.533-3.413-8.533-8.533v-51.2c0-5.12,3.413-8.533,8.533-8.533
			c5.12,0,8.533,3.413,8.533,8.533v51.2C135.708,507.936,132.295,511.349,127.175,511.349z"/>
		<path style="fill:#FFE100;" d="M161.308,511.349c-5.12,0-8.533-3.413-8.533-8.533v-34.133c0-5.12,3.413-8.533,8.533-8.533
			c5.12,0,8.533,3.413,8.533,8.533v34.133C169.841,507.936,166.428,511.349,161.308,511.349z"/>
		<path style="fill:#FFE100;" d="M195.441,511.349c-5.12,0-8.533-3.413-8.533-8.533V485.75c0-5.12,3.413-8.533,8.533-8.533
			c5.12,0,8.533,3.413,8.533,8.533v17.067C203.975,507.936,200.561,511.349,195.441,511.349z"/>
		<path style="fill:#FFE100;" d="M366.108,511.349c-5.12,0-8.533-3.413-8.533-8.533v-76.8c0-5.12,3.413-8.533,8.533-8.533
			s8.533,3.413,8.533,8.533v76.8C374.641,507.936,371.228,511.349,366.108,511.349z"/>
		<path style="fill:#FFE100;" d="M331.975,511.349c-5.12,0-8.533-3.413-8.533-8.533v-51.2c0-5.12,3.413-8.533,8.533-8.533
			c5.12,0,8.533,3.413,8.533,8.533v51.2C340.508,507.936,337.095,511.349,331.975,511.349z"/>
		<path style="fill:#FFE100;" d="M297.841,511.349c-5.12,0-8.533-3.413-8.533-8.533v-34.133c0-5.12,3.413-8.533,8.533-8.533
			c5.12,0,8.533,3.413,8.533,8.533v34.133C306.375,507.936,302.961,511.349,297.841,511.349z"/>
		<path style="fill:#FFE100;" d="M263.708,511.349c-5.12,0-8.533-3.413-8.533-8.533V485.75c0-5.12,3.413-8.533,8.533-8.533
			c5.12,0,8.533,3.413,8.533,8.533v17.067C272.241,507.936,268.828,511.349,263.708,511.349z"/>
		<polygon style="fill:#FFE100;" points="7.708,144.416 50.375,135.883 50.375,84.683 7.708,76.149 		"/>
		<polygon style="fill:#FFE100;" points="24.775,144.416 67.441,135.883 67.441,84.683 24.775,76.149 		"/>
	</g>
	<polygon style="fill:#FFFFFF;" points="24.775,79.563 7.708,76.149 7.708,144.416 24.775,141.003 	"/>
	<g>
		<polygon style="fill:#FFE100;" points="186.908,135.883 255.175,135.883 255.175,84.683 186.908,84.683 		"/>
		<polygon style="fill:#FFE100;" points="144.241,135.883 297.841,135.883 297.841,84.683 144.241,84.683 		"/>
		<path style="fill:#FFE100;" d="M489.841,15.563L489.841,15.563c0-6.827-7.68-10.24-12.8-5.12l-45.227,46.08
			c-17.067,17.92-40.96,28.16-66.56,28.16h-7.68v51.2h7.68c24.747,0,49.493,10.24,67.413,28.16l45.227,46.08
			c4.267,5.12,12.8,1.707,12.8-5.12C506.908,142.709,506.908,77.856,489.841,15.563"/>
		<polygon style="fill:#FFE100;" points="50.375,135.883 84.508,135.883 84.508,84.683 50.375,84.683 		"/>
	</g>
	<path style="fill:#FFA800;" d="M489.841,15.563L489.841,15.563c0-6.827-7.68-10.24-12.8-5.12l-11.947,11.947
		c14.507,58.027,14.507,118.613,0,176.64l11.947,11.947c4.267,5.12,12.8,1.707,12.8-5.12
		C506.908,142.709,506.908,77.856,489.841,15.563"/>
	<path style="fill:#FFE100;" d="M221.041,502.816l-136.533-76.8v-371.2c0-6.827,5.973-12.8,12.8-12.8h34.133
		c6.827,0,12.8,5.973,12.8,12.8v72.533c0,42.667,34.133,76.8,76.8,76.8l0,0c42.667,0,76.8-34.133,76.8-76.8V54.816
		c0-6.827,5.973-12.8,12.8-12.8h34.133c6.827,0,12.8,5.973,12.8,12.8v371.2L221.041,502.816z"/>
	<path style="fill:#FFA800;" d="M344.775,42.016h-17.067c6.827,0,12.8,5.973,12.8,12.8v371.2l-128,71.68l8.533,5.12l136.533-76.8
		v-371.2C357.575,47.989,351.601,42.016,344.775,42.016"/>
	<path style="fill:#00DA6C;" d="M203.975,357.749c0,40.96-21.333,68.267-21.333,68.267l21.333-4.267l17.067,21.333l17.067-21.333
		l21.333,4.267c0,0-21.333-27.307-21.333-68.267c40.96,0,68.267,21.333,68.267,21.333l-4.267-21.333l21.333-17.067l-21.333-17.067
		l4.267-21.333c0,0-27.307,21.333-68.267,21.333c0-40.96,21.333-68.267,21.333-68.267l-21.333,4.267l-17.067-21.333l-17.067,21.333
		l-21.333-4.267c0,0,21.333,27.307,21.333,68.267c-40.96,0-68.267-21.333-68.267-21.333l4.267,21.333l-21.333,17.067l21.333,17.067
		l-4.267,21.333C135.708,379.083,163.015,357.749,203.975,357.749"/>
	<path d="M7.708,152.949c-1.707,0-4.267-0.853-5.12-1.707c-2.56-1.707-3.413-4.267-3.413-6.827V76.149
		c0-2.56,0.853-5.12,3.413-6.827c1.707-1.707,4.267-1.707,6.827-1.707l42.667,8.533c4.267,0.853,6.827,4.267,6.827,8.533v51.2
		c0,4.267-2.56,7.68-6.827,8.533l-42.667,8.533C8.561,152.949,8.561,152.949,7.708,152.949z M16.241,86.389v47.787l25.6-5.12V91.509
		L16.241,86.389z"/>
	<path d="M468.508,170.016c-3.413,0-5.973-1.707-7.68-5.12c-3.413-5.973-11.093-18.773-16.213-23.893
		c-3.413-3.413-2.56-8.533,0.853-11.947c3.413-3.413,8.533-2.56,11.947,0.853c5.12,5.973,14.507,19.627,17.92,27.307
		c1.707,4.267,0,9.387-3.413,11.093C471.068,170.016,470.215,170.016,468.508,170.016z"/>
	<path d="M263.708,144.416h-85.333V76.149h85.333V144.416z M195.441,127.349h51.2V93.216h-51.2V127.349z"/>
	<path d="M221.041,511.349c-1.707,0-2.56,0-4.267-0.853l-136.533-76.8c-2.56-1.707-4.267-4.267-4.267-7.68v-371.2
		c0-11.947,9.387-21.333,21.333-21.333h34.133c11.947,0,21.333,9.387,21.333,21.333v72.533c0,37.547,30.72,68.267,68.267,68.267
		s68.267-30.72,68.267-68.267V54.816c0-11.947,9.387-21.333,21.333-21.333h34.133c11.947,0,21.333,9.387,21.333,21.333v371.2
		c0,3.413-1.707,5.973-4.267,7.68l-136.533,76.8C223.601,511.349,222.748,511.349,221.041,511.349z M93.041,420.896l128,71.68
		l128-71.68V54.816c0-2.56-1.707-4.267-4.267-4.267h-34.133c-2.56,0-4.267,1.707-4.267,4.267v72.533
		c0,46.933-38.4,85.333-85.333,85.333s-85.333-38.4-85.333-85.333V54.816c0-2.56-1.707-4.267-4.267-4.267H97.308
		c-2.56,0-4.267,1.707-4.267,4.267V420.896z"/>
	<path d="M297.841,144.416h-153.6c-5.12,0-8.533-3.413-8.533-8.533v-51.2c0-5.12,3.413-8.533,8.533-8.533h153.6
		c5.12,0,8.533,3.413,8.533,8.533v51.2C306.375,141.003,302.961,144.416,297.841,144.416z M152.775,127.349h136.533V93.216H152.775
		V127.349z"/>
	<path d="M483.015,221.216c-4.267,0-8.533-1.707-11.093-5.12l-45.227-46.08c-16.213-17.067-38.4-26.453-60.587-25.6h-8.533
		c-5.12,0-8.533-3.413-8.533-8.533v-51.2c0-5.12,3.413-8.533,8.533-8.533h7.68c22.187,0,44.373-9.387,61.44-26.453l45.227-46.08
		c4.267-4.267,11.093-5.973,17.067-3.413c5.12,2.56,9.387,7.68,9.387,13.653c17.067,63.147,17.067,129.707,0,192.853
		c-0.853,5.973-4.267,11.093-10.24,13.653C486.428,221.216,484.721,221.216,483.015,221.216z M366.108,127.349
		c26.453,0,52.907,11.093,72.533,30.72l43.52,44.373c16.213-60.587,16.213-124.587,0-185.173l-43.52,44.373
		c-19.627,19.627-46.08,31.573-72.533,31.573V127.349z M498.375,15.563L498.375,15.563L498.375,15.563z"/>
	<path d="M84.508,144.416H50.375c-5.12,0-8.533-3.413-8.533-8.533v-51.2c0-5.12,3.413-8.533,8.533-8.533h34.133
		c5.12,0,8.533,3.413,8.533,8.533v51.2C93.041,141.003,89.628,144.416,84.508,144.416z M58.908,127.349h17.067V93.216H58.908
		V127.349z"/>
	<path d="M221.041,451.616c-2.56,0-5.12-0.853-6.827-3.413l-13.653-17.067l-16.213,3.413c-3.413,0.853-6.827-0.853-8.533-4.267
		c-1.707-3.413-1.707-6.827,0.853-9.387c0,0,16.213-21.333,18.773-53.76c-32.427,2.56-53.76,18.773-53.76,18.773
		c-2.56,2.56-6.827,2.56-9.387,0.853c-3.413-1.707-4.267-5.12-4.267-8.533l3.413-16.213l-17.067-13.653
		c-3.413-2.56-4.267-5.12-4.267-7.68s0.853-5.12,3.413-6.827l17.067-13.653l-3.413-16.213c-0.853-3.413,0.853-6.827,4.267-8.533
		c3.413-1.707,6.827-1.707,9.387,0.853c0,0,21.333,16.213,53.76,18.773c-2.56-32.427-18.773-53.76-18.773-53.76
		c-2.56-2.56-2.56-6.827-0.853-9.387c1.707-3.413,5.12-4.267,8.533-4.267l16.213,3.413l13.653-17.067
		c3.413-4.267,10.24-4.267,13.653,0l13.653,17.067l16.213-3.413c3.413-0.853,6.827,0.853,8.533,4.267s1.707,6.827-0.853,9.387
		c0,0-16.213,21.333-18.773,53.76c32.427-2.56,53.76-18.773,53.76-18.773c2.56-2.56,6.827-2.56,9.387-0.853
		c3.413,1.707,4.267,5.12,4.267,8.533l-3.413,16.213l17.067,13.653c1.707,1.707,3.413,4.267,3.413,6.827s-0.853,5.12-3.413,6.827
		l-17.067,13.653l3.413,16.213c0.853,3.413-0.853,6.827-4.267,8.533c-3.413,1.707-6.827,1.707-9.387-0.853
		c0,0-21.333-16.213-53.76-18.773c2.56,32.427,18.773,53.76,18.773,53.76c2.56,2.56,2.56,6.827,0.853,9.387
		c-1.707,3.413-5.12,4.267-8.533,4.267l-16.213-3.413l-13.653,17.067C226.161,450.763,223.601,451.616,221.041,451.616z
		 M203.975,413.216c2.56,0,5.12,0.853,6.827,3.413l10.24,12.8l10.24-12.8c1.707-2.56,5.12-3.413,8.533-3.413l2.56,0.853
		c-5.973-12.8-12.8-32.427-12.8-56.32c0-5.12,3.413-8.533,8.533-8.533c23.893,0,43.52,6.827,56.32,12.8l-0.853-2.56
		c-0.853-3.413,0.853-5.973,3.413-8.533l12.8-10.24l-12.8-10.24c-2.56-1.707-3.413-5.12-3.413-8.533l0.853-2.56
		c-12.8,5.973-32.427,12.8-56.32,12.8c-5.12,0-8.533-3.413-8.533-8.533c0-23.893,6.827-43.52,12.8-56.32l-2.56,0.853
		c-3.413,0.853-5.973-0.853-8.533-3.413l-10.24-12.8l-10.24,12.8c-1.707,2.56-5.12,3.413-8.533,3.413l-2.56-0.853
		c5.973,12.8,12.8,32.427,12.8,56.32c0,5.12-3.413,8.533-8.533,8.533c-23.893,0-43.52-6.827-56.32-12.8l0.853,2.56
		c0.853,3.413-0.853,5.973-3.413,8.533l-12.8,10.24l12.8,10.24c2.56,1.707,3.413,5.12,3.413,8.533l-0.853,2.56
		c12.8-5.973,32.427-12.8,56.32-12.8c5.12,0,8.533,3.413,8.533,8.533c0,23.893-6.827,43.52-12.8,56.32l2.56-0.853
		C203.121,413.216,203.121,413.216,203.975,413.216z"/>
	<path d="M84.508,511.349c-5.12,0-8.533-3.413-8.533-8.533v-76.8c0-5.12,3.413-8.533,8.533-8.533s8.533,3.413,8.533,8.533v76.8
		C93.041,507.936,89.628,511.349,84.508,511.349z"/>
	<path d="M118.641,511.349c-5.12,0-8.533-3.413-8.533-8.533v-51.2c0-5.12,3.413-8.533,8.533-8.533s8.533,3.413,8.533,8.533v51.2
		C127.175,507.936,123.761,511.349,118.641,511.349z"/>
	<path d="M152.775,511.349c-5.12,0-8.533-3.413-8.533-8.533v-34.133c0-5.12,3.413-8.533,8.533-8.533c5.12,0,8.533,3.413,8.533,8.533
		v34.133C161.308,507.936,157.895,511.349,152.775,511.349z"/>
	<path d="M186.908,511.349c-5.12,0-8.533-3.413-8.533-8.533V485.75c0-5.12,3.413-8.533,8.533-8.533c5.12,0,8.533,3.413,8.533,8.533
		v17.067C195.441,507.936,192.028,511.349,186.908,511.349z"/>
	<path d="M357.575,511.349c-5.12,0-8.533-3.413-8.533-8.533v-76.8c0-5.12,3.413-8.533,8.533-8.533c5.12,0,8.533,3.413,8.533,8.533
		v76.8C366.108,507.936,362.695,511.349,357.575,511.349z"/>
	<path d="M323.441,511.349c-5.12,0-8.533-3.413-8.533-8.533v-51.2c0-5.12,3.413-8.533,8.533-8.533c5.12,0,8.533,3.413,8.533,8.533
		v51.2C331.975,507.936,328.561,511.349,323.441,511.349z"/>
	<path d="M289.308,511.349c-5.12,0-8.533-3.413-8.533-8.533v-34.133c0-5.12,3.413-8.533,8.533-8.533c5.12,0,8.533,3.413,8.533,8.533
		v34.133C297.841,507.936,294.428,511.349,289.308,511.349z"/>
	<path d="M255.175,511.349c-5.12,0-8.533-3.413-8.533-8.533V485.75c0-5.12,3.413-8.533,8.533-8.533s8.533,3.413,8.533,8.533v17.067
		C263.708,507.936,260.295,511.349,255.175,511.349z"/>
</g>
</svg>