<?xml version="1.0" encoding="iso-8859-1"?>
<!-- Uploaded to: SVG Repo, www.svgrepo.com, Generator: SVG Repo Mixer Tools -->
<svg height="800px" width="800px" version="1.1" id="Layer_1" xmlns="http://www.w3.org/2000/svg" xmlns:xlink="http://www.w3.org/1999/xlink" 
	 viewBox="0 0 512 512" xml:space="preserve">
<g>
	<g>
		<polygon style="fill:#6B3E28;" points="88.276,114.759 211.862,114.759 211.862,61.793 88.276,61.793 		"/>
		<polygon style="fill:#6B3E28;" points="300.138,114.759 423.724,114.759 423.724,61.793 300.138,61.793 		"/>
		<polygon style="fill:#6B3E28;" points="88.276,220.69 211.862,220.69 211.862,167.724 88.276,167.724 		"/>
		<polygon style="fill:#6B3E28;" points="300.138,220.69 423.724,220.69 423.724,167.724 300.138,167.724 		"/>
	</g>
	<g>
		<polygon style="fill:#8A5435;" points="88.276,167.724 211.862,167.724 211.862,114.759 88.276,114.759 		"/>
		<polygon style="fill:#8A5435;" points="300.138,167.724 423.724,167.724 423.724,114.759 300.138,114.759 		"/>
		<polygon style="fill:#8A5435;" points="0,485.517 512,485.517 512,220.69 0,220.69 		"/>
	</g>
	<g>
		<path style="fill:#542D1E;" d="M308.966,273.655L308.966,273.655c0,29.255-23.711,52.966-52.966,52.966
			s-52.966-23.711-52.966-52.966H52.966v158.897h406.069V273.655H308.966z"/>
		<polygon style="fill:#542D1E;" points="0,220.69 88.276,220.69 88.276,26.483 0,26.483 		"/>
		<polygon style="fill:#542D1E;" points="211.862,220.69 300.138,220.69 300.138,26.483 211.862,26.483 		"/>
		<polygon style="fill:#542D1E;" points="423.724,220.69 512,220.69 512,26.483 423.724,26.483 		"/>
	</g>
	<path style="fill:#C7CFE3;" d="M256,326.621L256,326.621c-29.255,0-52.966-23.711-52.966-52.966V220.69h105.931v52.965
		C308.966,302.91,285.255,326.621,256,326.621"/>
	<g>
		<path style="fill:#8A5435;" d="M291.31,397.241H220.69c-4.882,0-8.828-3.955-8.828-8.828s3.946-8.828,8.828-8.828h70.621
			c4.882,0,8.828,3.955,8.828,8.828S296.192,397.241,291.31,397.241"/>
		<path style="fill:#8A5435;" d="M194.207,388.414c0,4.873-3.955,8.828-8.828,8.828c-4.873,0-8.828-3.955-8.828-8.828
			s3.955-8.828,8.828-8.828C190.252,379.586,194.207,383.541,194.207,388.414"/>
		<path style="fill:#8A5435;" d="M150.069,397.241H97.103c-4.882,0-8.828-3.955-8.828-8.828s3.946-8.828,8.828-8.828h52.966
			c4.882,0,8.828,3.955,8.828,8.828S154.951,397.241,150.069,397.241"/>
		<path style="fill:#8A5435;" d="M414.897,397.241h-52.966c-4.882,0-8.828-3.955-8.828-8.828s3.946-8.828,8.828-8.828h52.966
			c4.882,0,8.828,3.955,8.828,8.828S419.778,397.241,414.897,397.241"/>
		<path style="fill:#8A5435;" d="M335.448,388.414c0,4.873-3.955,8.828-8.828,8.828c-4.873,0-8.828-3.955-8.828-8.828
			s3.955-8.828,8.828-8.828C331.493,379.586,335.448,383.541,335.448,388.414"/>
		<path style="fill:#8A5435;" d="M353.103,326.621h-26.483c-4.882,0-8.828-3.955-8.828-8.828c0-4.873,3.946-8.828,8.828-8.828
			h26.483c4.882,0,8.828,3.955,8.828,8.828C361.931,322.666,357.985,326.621,353.103,326.621"/>
		<path style="fill:#8A5435;" d="M397.241,317.793c0,4.873-3.955,8.828-8.828,8.828s-8.828-3.955-8.828-8.828
			c0-4.873,3.955-8.828,8.828-8.828S397.241,312.92,397.241,317.793"/>
		<path style="fill:#8A5435;" d="M194.207,317.793c0,4.873-3.955,8.828-8.828,8.828c-4.873,0-8.828-3.955-8.828-8.828
			c0-4.873,3.955-8.828,8.828-8.828C190.252,308.966,194.207,312.92,194.207,317.793"/>
		<path style="fill:#8A5435;" d="M150.069,326.621H97.103c-4.882,0-8.828-3.955-8.828-8.828c0-4.873,3.946-8.828,8.828-8.828h52.966
			c4.882,0,8.828,3.955,8.828,8.828C158.897,322.666,154.951,326.621,150.069,326.621"/>
		<path style="fill:#8A5435;" d="M185.379,361.931h-52.966c-4.882,0-8.828-3.955-8.828-8.828c0-4.873,3.946-8.828,8.828-8.828
			h52.966c4.882,0,8.828,3.955,8.828,8.828C194.207,357.976,190.261,361.931,185.379,361.931"/>
		<path style="fill:#8A5435;" d="M88.276,353.103c0-4.873,3.955-8.828,8.828-8.828s8.828,3.955,8.828,8.828
			c0,4.873-3.955,8.828-8.828,8.828S88.276,357.976,88.276,353.103"/>
		<path style="fill:#8A5435;" d="M406.069,353.103c0-4.873,3.955-8.828,8.828-8.828s8.828,3.955,8.828,8.828
			c0,4.873-3.955,8.828-8.828,8.828S406.069,357.976,406.069,353.103"/>
		<path style="fill:#8A5435;" d="M379.586,361.931h-35.31c-4.882,0-8.828-3.955-8.828-8.828c0-4.873,3.946-8.828,8.828-8.828h35.31
			c4.882,0,8.828,3.955,8.828,8.828C388.414,357.976,384.468,361.931,379.586,361.931"/>
		<path style="fill:#8A5435;" d="M300.138,353.103c0-4.873,3.955-8.828,8.828-8.828s8.828,3.955,8.828,8.828
			c0,4.873-3.955,8.828-8.828,8.828S300.138,357.976,300.138,353.103"/>
		<path style="fill:#8A5435;" d="M211.862,353.103c0-4.873,3.955-8.828,8.828-8.828c4.873,0,8.828,3.955,8.828,8.828
			c0,4.873-3.955,8.828-8.828,8.828C215.817,361.931,211.862,357.976,211.862,353.103"/>
		<path style="fill:#8A5435;" d="M273.655,361.931H256c-4.882,0-8.828-3.955-8.828-8.828c0-4.873,3.946-8.828,8.828-8.828h17.655
			c4.882,0,8.828,3.955,8.828,8.828C282.483,357.976,278.537,361.931,273.655,361.931"/>
	</g>
	<g>
		<path style="fill:#FFFFFF;" d="M273.655,264.828h-35.31c-4.882,0-8.828-3.955-8.828-8.828s3.946-8.828,8.828-8.828h35.31
			c4.882,0,8.828,3.955,8.828,8.828S278.537,264.828,273.655,264.828"/>
		<path style="fill:#FFFFFF;" d="M256,300.138c-4.882,0-8.828-3.955-8.828-8.828v-35.319c0-4.873,3.946-8.828,8.828-8.828
			s8.828,3.955,8.828,8.828v35.319C264.828,296.183,260.882,300.138,256,300.138"/>
	</g>
</g>
</svg>