<?xml version="1.0" encoding="iso-8859-1"?>
<!-- Uploaded to: SVG Repo, www.svgrepo.com, Generator: SVG Repo Mixer Tools -->
<svg fill="#000000" height="800px" width="800px" version="1.1" id="Layer_1" xmlns="http://www.w3.org/2000/svg" xmlns:xlink="http://www.w3.org/1999/xlink" 
	 viewBox="0 0 511.977 511.977" xml:space="preserve">
<g>
	<g>
		<path d="M490.655,53.333C490.655,23.887,466.768,0,437.322,0H74.655C45.209,0,21.322,23.887,21.322,53.333
			c0,17.441,8.382,32.929,21.333,42.662v53.315c0,19.883,13.612,36.596,32.022,41.327c17.379,50.422,54.744,90.641,101.973,112.151
			c4.993,20.375,7.277,41.093,6.792,61.649c-7.525,3.296-12.787,10.799-12.787,19.54c0,7.133,3.513,13.431,8.89,17.304
			c-0.127,0.667-0.235,1.336-0.368,2.002l-6.518,66.027h-2.004c-11.782,0-21.333,9.551-21.333,21.333s9.551,21.333,21.333,21.333
			h170.667c11.782,0,21.333-9.551,21.333-21.333s-9.551-21.333-21.333-21.333h-1.976l-6.229-63.917
			c-0.267-1.358-0.496-2.714-0.74-4.071c5.408-3.87,8.945-10.188,8.945-17.346c0-8.712-5.23-16.193-12.715-19.505
			c-0.505-20.865,1.775-41.475,6.725-61.687c47.219-21.511,84.581-61.728,101.958-112.145c18.415-4.727,32.031-21.443,32.031-41.329
			V95.995C482.273,86.263,490.655,70.774,490.655,53.333z M74.655,42.667h362.667c5.882,0,10.667,4.785,10.667,10.667
			c0,5.725-4.537,10.398-10.203,10.643H74.191c-5.666-0.245-10.203-4.918-10.203-10.643C63.988,47.451,68.773,42.667,74.655,42.667z
			 M426.655,149.31h-5.604H90.917h-5.596v-42.643h341.333V149.31z M290.964,411.642l5.544,57.666h-81.004l5.826-59.776
			c0.284-1.401,0.544-2.812,0.803-4.222h67.651C290.153,407.424,290.543,409.535,290.964,411.642z M285.822,362.643h-59.591
			c0.19-15.041-0.882-30.293-3.229-45.516c10.744,1.871,21.77,2.849,32.993,2.849c11.225,0,22.252-0.979,32.998-2.851
			C286.675,332.247,285.621,347.468,285.822,362.643z M311.531,266.558c-0.597,0.175-1.195,0.369-1.793,0.601
			c-12.846,4.966-26.126,8.156-39.667,9.466c-0.309,0.029-0.618,0.057-0.928,0.085c-1.131,0.102-2.263,0.191-3.397,0.267
			c-1.163,0.076-2.327,0.143-3.496,0.191c-0.548,0.023-1.096,0.041-1.644,0.058c-1.42,0.044-2.842,0.075-4.271,0.078
			c-0.115,0-0.229,0.004-0.344,0.004c-0.107,0-0.214-0.004-0.32-0.004c-1.439-0.003-2.872-0.034-4.302-0.078
			c-0.539-0.017-1.079-0.034-1.617-0.057c-1.197-0.05-2.39-0.118-3.581-0.196c-1.096-0.074-2.191-0.161-3.284-0.259
			c-0.334-0.029-0.668-0.06-1.001-0.091c-13.533-1.312-26.803-4.5-39.641-9.463c-0.603-0.233-1.205-0.428-1.807-0.604
			c-34.597-13.924-63.064-40.499-79.211-74.578h269.52C374.595,226.058,346.126,252.635,311.531,266.558z"/>
	</g>
</g>
</svg>