<?xml version="1.0" encoding="iso-8859-1"?>
<!-- Uploaded to: SVG Repo, www.svgrepo.com, Generator: SVG Repo Mixer Tools -->
<svg fill="#000000" height="800px" width="800px" version="1.1" id="Layer_1" xmlns="http://www.w3.org/2000/svg" xmlns:xlink="http://www.w3.org/1999/xlink" 
	 viewBox="0 0 512.011 512.011" xml:space="preserve">
<g>
	<g>
		<path d="M503.792,4.533c-5.163-4.053-11.968-5.504-18.304-3.883l-82.795,20.693h-82.688c-11.776,0-21.333,9.557-21.333,21.333
			v21.333h-85.333V42.677c0-11.776-9.557-21.333-21.333-21.333h-82.688L26.523,0.651C20.187-0.928,13.381,0.501,8.219,4.533
			c-5.184,4.032-8.213,10.24-8.213,16.811v128c0,6.571,3.029,12.757,8.213,16.811c3.776,2.965,8.405,4.523,13.12,4.523
			c1.728,0,3.477-0.213,5.184-0.64l58.816-14.699v335.339c0,11.776,9.557,21.333,21.333,21.333h298.667
			c11.776,0,21.333-9.557,21.333-21.333V155.339l58.816,14.699c1.707,0.427,3.456,0.64,5.184,0.64c4.715,0,9.344-1.557,13.12-4.523
			c5.184-4.053,8.213-10.24,8.213-16.811v-128C512.005,14.773,508.976,8.565,503.792,4.533z M85.339,111.349l-42.667,10.667V48.672
			l42.667,10.667V111.349z M298.437,106.677c-0.576,13.589-5.803,25.92-14.528,33.216c-7.808,6.528-16.405,9.451-27.904,9.451
			s-20.096-2.923-27.904-9.451c-8.725-7.296-13.952-19.627-14.528-33.216H298.437z M320.005,320.011h-42.667v106.667
			c0,11.776-9.557,21.333-21.333,21.333s-21.333-9.557-21.333-21.333V320.011h-42.667c-11.776,0-21.333-9.557-21.333-21.333
			s9.557-21.333,21.333-21.333h42.667v-42.667c0-11.776,9.557-21.333,21.333-21.333s21.333,9.557,21.333,21.333v42.667h42.667
			c11.776,0,21.333,9.557,21.333,21.333S331.781,320.011,320.005,320.011z M469.339,122.016l-42.667-10.667V59.339l42.667-10.667
			V122.016z"/>
	</g>
</g>
</svg>