<?xml version="1.0" encoding="iso-8859-1"?>
<!-- Uploaded to: SVG Repo, www.svgrepo.com, Generator: SVG Repo Mixer Tools -->
<svg fill="#000000" height="800px" width="800px" version="1.1" id="Layer_1" xmlns="http://www.w3.org/2000/svg" xmlns:xlink="http://www.w3.org/1999/xlink" 
	 viewBox="0 0 512 512" xml:space="preserve">
<g transform="translate(1 1)">
	<g>
		<g>
			<path d="M148.333,220.013l17.067,13.653l-3.413,16.213c0,3.413,0.853,6.827,4.267,8.533c2.56,1.707,6.827,1.707,9.387-0.853
				c0,0,21.333-16.213,53.76-18.773c-2.56,32.427-18.773,53.76-18.773,53.76c-2.56,2.56-2.56,5.973-0.853,9.387
				s5.12,5.12,8.533,4.267l16.213-3.413l13.653,17.067c1.707,2.56,4.267,3.413,6.827,3.413c2.56,0,5.12-0.853,5.973-4.267
				l13.653-17.067l16.213,3.413c3.413,0,6.827-0.853,8.533-4.267c1.707-2.56,1.707-6.827-0.853-9.387
				c0,0-16.213-21.333-18.773-53.76c32.427,2.56,53.76,18.773,53.76,18.773c2.56,2.56,5.973,2.56,9.387,0.853s5.12-5.12,4.267-8.533
				l-3.413-16.213l17.067-13.653c2.56-1.707,3.413-4.267,3.413-6.827c0-2.56-1.707-5.12-3.413-6.827l-17.067-13.653l3.413-16.213
				c0-3.413-0.853-6.827-4.267-8.533c-2.56-1.707-6.827-1.707-9.387,0.853c0,0-21.333,16.213-53.76,18.773
				c2.56-32.427,18.773-53.76,18.773-53.76c2.56-2.56,2.56-5.973,0.853-9.387s-5.12-5.12-8.533-4.267l-16.213,3.413l-13.653-17.067
				c-3.413-4.267-10.24-4.267-13.653,0l-13.653,17.067l-16.213-3.413c-3.413,0-6.827,1.707-8.533,4.267s-1.707,6.827,0.853,9.387
				c0,0,16.213,21.333,18.773,53.76c-32.427-2.56-53.76-18.773-53.76-18.773c-2.56-2.56-5.973-2.56-9.387-0.853
				s-5.12,5.12-4.267,8.533l3.413,16.213l-17.067,13.653c-2.56,1.707-3.413,4.267-3.413,6.827
				C144.067,214.893,144.92,217.453,148.333,220.013z M179.053,202.093c2.56-2.56,4.267-5.12,3.413-8.533l-0.853-2.56
				c12.8,5.973,32.427,12.8,56.32,12.8c5.12,0,8.533-3.413,8.533-8.533c0-23.893-6.827-43.52-12.8-56.32l2.56,0.853
				c3.413,0,6.827-0.853,8.533-3.413l10.24-12.8l10.24,12.8c2.56,2.56,5.12,4.267,8.533,3.413l2.56-0.853
				c-5.973,12.8-12.8,32.427-12.8,56.32c0,5.12,3.413,8.533,8.533,8.533c23.893,0,43.52-6.827,56.32-12.8l-0.853,2.56
				c0,3.413,0.853,6.827,3.413,8.533l12.8,10.24l-12.8,10.24c-2.56,2.56-4.267,5.12-3.413,8.533l0.853,2.56
				c-12.8-5.973-32.427-12.8-56.32-12.8c-5.12,0-8.533,3.413-8.533,8.533c0,23.893,6.827,43.52,12.8,56.32l-2.56-0.853
				c-3.413,0-6.827,0.853-8.533,3.413L255,301.08l-10.24-12.8c-1.707-2.56-4.267-3.413-6.827-3.413c-0.853,0-0.853,0-1.707,0
				l-2.56,0.853c5.973-12.8,12.8-32.427,12.8-56.32c0-5.12-3.413-8.533-8.533-8.533c-23.893,0-43.52,6.827-56.32,12.8l0.853-2.56
				c0-3.413-0.853-6.827-3.413-8.533l-12.8-10.24L179.053,202.093z"/>
			<path d="M415.427,33.133H289.133V18.627C289.133,7.533,280.6-1,270.36-1h-29.867c-11.093,0-19.627,8.533-19.627,19.627v14.507
				H95.427c-11.093,0-19.627,8.533-19.627,19.627v11.947c0,11.093,8.533,19.627,19.627,19.627h14.507v332.8v76.8
				c0,5.12,3.413,8.533,8.533,8.533s8.533-3.413,8.533-8.533v-71.68l17.067-8.533v63.147c0,5.12,3.413,8.533,8.533,8.533
				s8.533-3.413,8.533-8.533v-71.68l17.067-8.533V459.8c0,5.12,3.413,8.533,8.533,8.533s8.533-3.413,8.533-8.533v-71.68l25.6-12.8
				v127.147c0,5.12,3.413,8.533,8.533,8.533h51.2c5.12,0,8.533-3.413,9.387-8.533v-126.72l24.747,12.373v71.68
				c0,5.12,3.413,8.533,8.533,8.533s8.533-3.413,8.533-8.533v-63.147l17.067,8.533v71.68c0,5.12,3.413,8.533,8.533,8.533
				s8.533-3.413,8.533-8.533V413.72L383,422.253v71.68c0,5.12,3.413,8.533,8.533,8.533s8.533-3.413,8.533-8.533v-76.8v-332.8h14.507
				c11.093,0,19.627-8.533,19.627-18.773v-12.8C434.2,41.667,425.667,33.133,415.427,33.133z M237.933,18.627
				c0-1.707,0.853-2.56,1.707-2.56h29.867c1.707,0,2.56,0.853,2.56,2.56v14.507h-34.133V18.627z M272.067,493.933h-34.133V366.787
				L255,358.253l17.067,8.533V493.933z M383,403.48l-19.681-9.841c-1.008-0.915-2.276-1.558-3.749-1.874l-30.385-15.193
				c-1.008-0.915-2.276-1.558-3.748-1.874l-38.898-19.449c-0.539-0.462-1.105-0.885-1.673-1.263l-25.6-12.8
				c-0.425-0.142-0.85-0.251-1.275-0.346c-0.733-0.501-1.563-0.508-2.991-0.508c-1.707,0-2.56,0-3.413,0.853c0,0,0,0,0,0l-25.6,12.8
				l-41.424,20.712c-1.473,0.316-2.74,0.959-3.748,1.874l-30.385,15.192c-1.473,0.316-2.74,0.959-3.749,1.874L127,403.48V84.333h256
				V403.48z M417.133,64.707c0,1.707-0.853,2.56-1.707,2.56h-23.893H118.467h-23.04c-1.707,0-2.56-0.853-2.56-1.707v-12.8
				c0-1.707,0.853-2.56,2.56-2.56h125.44h68.267h125.44c1.707,0,2.56,0.853,2.56,2.56V64.707z"/>
		</g>
	</g>
</g>
</svg>