<?xml version="1.0" encoding="iso-8859-1"?>
<!-- Uploaded to: SVG Repo, www.svgrepo.com, Generator: SVG Repo Mixer Tools -->
<svg height="800px" width="800px" version="1.1" id="Layer_1" xmlns="http://www.w3.org/2000/svg" xmlns:xlink="http://www.w3.org/1999/xlink" 
	 viewBox="0 0 512.355 512.355" xml:space="preserve">
<g transform="translate(1 1)">
	<g>
		<path style="fill:#FFE100;" d="M477.187,502.644c-5.12,0-8.533-3.413-8.533-8.533v-25.6c0-5.12,3.413-8.533,8.533-8.533
			c5.12,0,8.533,3.413,8.533,8.533v25.6C485.72,499.231,482.307,502.644,477.187,502.644z"/>
		<path style="fill:#FFE100;" d="M502.787,468.511h-25.6c-5.12,0-8.533-3.413-8.533-8.533s3.413-8.533,8.533-8.533h25.6
			c5.12,0,8.533,3.413,8.533,8.533S507.907,468.511,502.787,468.511z"/>
	</g>
	<path style="fill:#00DA6C;" d="M7.853,7.711l25.6,119.467c15.36-45.227,48.64-78.507,93.867-93.867L7.853,7.711z"/>
	<g>
		<path style="fill:#FFE100;" d="M477.187,477.044c-2.56,0-4.267-0.853-5.973-2.56L78.68,81.951c-3.413-3.413-3.413-8.533,0-11.947
			c3.413-3.413,8.533-3.413,11.947,0L483.16,462.537c3.413,3.413,3.413,8.533,0,11.947
			C481.453,476.191,479.747,477.044,477.187,477.044z"/>
		<path style="fill:#FFE100;" d="M204.12,229.577c-2.56,0-4.267-0.853-5.973-2.56c-3.413-3.413-3.413-8.533,0-11.947l25.6-25.6
			c3.413-3.413,8.533-3.413,11.947,0s3.413,8.533,0,11.947l-25.6,25.6C208.387,228.724,206.68,229.577,204.12,229.577z"/>
		<path style="fill:#FFE100;" d="M272.387,297.844c-2.56,0-4.267-0.853-5.973-2.56c-3.413-3.413-3.413-8.533,0-11.947l25.6-25.6
			c3.413-3.413,8.533-3.413,11.947,0s3.413,8.533,0,11.947l-25.6,25.6C276.653,296.991,274.947,297.844,272.387,297.844z"/>
		<path style="fill:#FFE100;" d="M93.187,408.777c-2.56,0-4.267-0.853-5.973-2.56c-3.413-3.413-3.413-8.533,0-11.947l307.2-307.2
			c3.413-3.413,8.533-3.413,11.947,0c3.413,3.413,3.413,8.533,0,11.947l-307.2,307.2C97.453,407.924,95.747,408.777,93.187,408.777z
			"/>
		<path style="fill:#FFE100;" d="M477.187,71.711c-10.24,4.267-18.773,7.68-45.227-3.413c-11.093-7.68-97.28-43.52-187.733-34.133
			c-2.56,0-75.947,11.093-145.067,85.333c-72.533,68.267-68.267,133.973-68.267,136.533c-7.68,116.907,25.6,171.52,33.28,182.613
			c10.24,25.6,6.827,29.867,2.56,37.547c-3.413,5.973-2.56,12.8,1.707,17.92l2.56,2.56c6.827,7.68,18.773,6.827,23.893-1.707
			c9.387-14.507,17.067-30.72,0-71.68c0,0-36.693-51.2-29.867-167.253c0-0.853,0.853-59.733,68.267-119.467
			c58.027-60.587,110.933-68.267,110.933-68.267c114.347-6.827,168.107,30.72,168.96,30.72l3.413,1.707
			c39.253,17.067,58.027,10.24,75.947,1.707c11.093-5.12,12.8-20.48,4.267-28.16C490.84,70.004,483.16,69.151,477.187,71.711"/>
		<polygon style="fill:#FFE100;" points="468.653,391.711 434.52,391.711 443.053,366.111 400.387,331.977 332.12,331.977 
			327,400.244 374.787,452.297 400.387,442.911 400.387,477.044 425.987,502.644 434.52,434.377 502.787,425.844 		"/>
	</g>
	<path d="M82.093,511.177c-6.827,0-12.8-2.56-17.92-7.68l-2.56-2.56c-6.827-7.68-8.533-18.773-3.413-28.16l0.853-0.853
		c3.413-5.973,5.12-8.533-3.413-28.16c-12.8-19.627-40.96-75.947-34.133-186.88c0-17.067,4.267-79.36,70.827-142.507
		c73.387-78.507,150.187-87.893,151.04-87.893c88.747-9.387,175.787,24.747,192.853,34.987c23.04,9.387,29.013,6.827,37.547,2.56
		l0,0c9.387-4.267,20.48-2.56,28.16,4.267c5.973,5.973,9.387,14.507,8.533,22.187c-0.853,8.533-6.827,16.213-14.507,19.627
		c-18.773,9.387-40.107,17.067-82.773-0.853l-0.853-0.853l-3.413-1.707c-0.853-0.853-53.76-36.693-163.84-29.867
		c-6.827,0.853-53.76,11.947-105.813,65.707C76.12,199.711,73.56,254.324,73.56,256.884c-6.827,112.64,28.16,162.133,28.16,162.133
		l0.853,1.707c18.773,43.52,11.093,61.44,0,79.36c-4.267,5.973-10.24,10.24-17.92,11.093
		C83.8,511.177,82.947,511.177,82.093,511.177z M274.093,41.844c-9.387,0-19.627,0.853-29.013,1.707
		c-0.853,0-72.533,10.24-139.947,82.773c-62.293,58.027-66.56,114.347-65.707,129.707l0,0v0.853
		C32.6,367.817,61.613,420.724,71,434.377l0.853,1.707c10.24,25.6,8.533,33.28,2.56,44.373l-0.853,0.853
		c-1.707,2.56-0.853,5.12,0.853,7.68l2.56,2.56c1.707,1.707,3.413,2.56,5.973,2.56c0.853,0,3.413-0.853,5.12-2.56
		c7.68-11.947,15.36-24.747-0.853-63.147c-5.12-7.68-37.547-60.587-30.72-172.373c0-5.973,4.267-65.707,70.827-125.44
		c46.08-47.787,89.6-64,107.52-68.267v-1.707l8.533-0.853c116.053-6.827,172.373,31.573,174.933,33.28l2.56,1.707
		c34.987,15.36,52.053,9.387,68.267,1.707c2.56-1.707,4.267-3.413,5.12-6.827c0-2.56-0.853-5.973-2.56-7.68
		c-2.56-2.56-5.973-2.56-9.387-1.707l0,0c-12.8,5.973-23.893,8.533-52.053-2.56l-3.413-1.707
		C416.6,69.151,349.187,41.844,274.093,41.844z"/>
	<path d="M468.653,477.044c-2.56,0-4.267-0.853-5.973-2.56L70.147,81.951c-3.413-3.413-3.413-8.533,0-11.947
		c3.413-3.413,8.533-3.413,11.947,0l392.533,392.533c3.413,3.413,3.413,8.533,0,11.947
		C472.92,476.191,471.213,477.044,468.653,477.044z"/>
	<path d="M425.987,511.177c-2.56,0-4.267-0.853-5.973-2.56l-25.6-25.6c-1.707-1.707-2.56-3.413-2.56-5.973v-22.187l-13.653,5.12
		c-3.413,0.853-6.827,0-9.387-2.56l-47.787-52.053c-1.707-1.707-2.56-4.267-2.56-5.973l5.12-68.267c0-4.267,4.267-7.68,8.533-7.68
		h68.267c1.707,0,3.413,0.853,5.12,1.707l42.667,34.133c2.56,2.56,4.267,5.973,2.56,9.387l-4.267,14.507h22.187
		c2.56,0,4.267,0.853,5.973,2.56l34.133,34.133c2.56,2.56,3.413,5.973,1.707,8.533c-0.853,3.413-3.413,5.12-6.827,5.973l-61.44,7.68
		l-7.68,61.44c0,3.413-2.56,5.973-5.973,6.827C427.693,511.177,426.84,511.177,425.987,511.177z M408.92,473.631l11.093,11.093
		l5.973-51.2c0.853-4.267,3.413-6.827,7.68-7.68l51.2-5.973l-19.627-19.627h-30.72c-2.56,0-5.12-1.707-6.827-3.413
		c-1.707-2.56-1.707-5.12-0.853-7.68l6.827-19.627l-36.693-29.013H339.8l-4.267,57.173l40.96,45.227l19.627-7.68
		c2.56-0.853,5.12-0.853,7.68,0.853c2.56,1.707,5.12,4.267,5.12,6.827V473.631z"/>
	<path d="M468.653,502.644c-5.12,0-8.533-3.413-8.533-8.533v-25.6c0-5.12,3.413-8.533,8.533-8.533s8.533,3.413,8.533,8.533v25.6
		C477.187,499.231,473.773,502.644,468.653,502.644z"/>
	<path d="M494.253,477.044h-25.6c-5.12,0-8.533-3.413-8.533-8.533s3.413-8.533,8.533-8.533h25.6c5.12,0,8.533,3.413,8.533,8.533
		S499.373,477.044,494.253,477.044z"/>
	<path d="M366.253,408.777c-5.12,0-8.533-3.413-8.533-8.533v-34.987c0-5.12,3.413-8.533,8.533-8.533s8.533,3.413,8.533,8.533v34.987
		C374.787,405.364,371.373,408.777,366.253,408.777z"/>
	<path d="M400.387,374.644H365.4c-5.12,0-8.533-3.413-8.533-8.533c0-5.12,3.413-8.533,8.533-8.533h34.987
		c5.12,0,8.533,3.413,8.533,8.533C408.92,371.231,405.507,374.644,400.387,374.644z"/>
	<path d="M33.453,135.711L33.453,135.711c-4.267,0-7.68-2.56-8.533-6.827L-0.68,9.417c-0.853-2.56,0-5.973,2.56-7.68
		S7-0.823,9.56-0.823l119.467,25.6c4.267,0.853,6.827,4.267,6.827,7.68s-2.56,7.68-5.973,8.533
		c-42.667,14.507-74.24,46.08-88.747,88.747C40.28,133.151,36.867,135.711,33.453,135.711z M18.947,18.804l17.067,80.213
		c14.507-27.307,35.84-48.64,63.147-63.147L18.947,18.804z"/>
	<path d="M195.587,229.577c-2.56,0-4.267-0.853-5.973-2.56c-3.413-3.413-3.413-8.533,0-11.947l25.6-25.6
		c3.413-3.413,8.533-3.413,11.947,0s3.413,8.533,0,11.947l-25.6,25.6C199.853,228.724,198.147,229.577,195.587,229.577z"/>
	<path d="M263.853,297.844c-2.56,0-4.267-0.853-5.973-2.56c-3.413-3.413-3.413-8.533,0-11.947l25.6-25.6
		c3.413-3.413,8.533-3.413,11.947,0c3.413,3.413,3.413,8.533,0,11.947l-25.6,25.6C268.12,296.991,266.413,297.844,263.853,297.844z"
		/>
	<path d="M84.653,408.777c-2.56,0-4.267-0.853-5.973-2.56c-3.413-3.413-3.413-8.533,0-11.947l307.2-307.2
		c3.413-3.413,8.533-3.413,11.947,0c3.413,3.413,3.413,8.533,0,11.947l-307.2,307.2C88.92,407.924,87.213,408.777,84.653,408.777z"
		/>
</g>
</svg>