<?xml version="1.0" encoding="iso-8859-1"?>
<!-- Uploaded to: SVG Repo, www.svgrepo.com, Generator: SVG Repo Mixer Tools -->
<svg height="800px" width="800px" version="1.1" id="Layer_1" xmlns="http://www.w3.org/2000/svg" xmlns:xlink="http://www.w3.org/1999/xlink" 
	 viewBox="0 0 512.32 512.32" xml:space="preserve">
<g transform="translate(1 1)">
	<g>
		<path style="fill:#FFE100;" d="M192.21,78.898c-5.036,0-8.393-3.357-8.393-8.393V20.144c0-5.036,3.357-8.393,8.393-8.393
			s8.393,3.357,8.393,8.393v50.361C200.603,75.54,197.246,78.898,192.21,78.898z"/>
		<path style="fill:#FFE100;" d="M217.39,45.324H167.03c-5.036,0-8.393-3.357-8.393-8.393s3.357-8.393,8.393-8.393h50.361
			c5.036,0,8.393,3.357,8.393,8.393S222.426,45.324,217.39,45.324z"/>
		<path style="fill:#FFE100;" d="M91.489,171.225c-5.036,0-8.393-3.357-8.393-8.393V87.291c0-5.036,3.357-8.393,8.393-8.393h67.148
			c5.036,0,8.393,3.357,8.393,8.393c0,5.036-3.357,8.393-8.393,8.393H99.882v67.148C99.882,167.868,96.525,171.225,91.489,171.225z"
			/>
		<path style="fill:#FFE100;" d="M334.898,171.225h-50.361c-5.036,0-8.393-3.357-8.393-8.393V95.685h-50.361
			c-5.036,0-8.393-3.357-8.393-8.393c0-5.036,3.357-8.393,8.393-8.393h58.754c5.036,0,8.393,3.357,8.393,8.393v67.148h41.967
			c5.036,0,8.393,3.357,8.393,8.393S339.935,171.225,334.898,171.225z"/>
	</g>
	<polygon style="fill:#00DA6C;" points="150.243,95.685 217.39,95.685 217.39,62.111 150.243,62.111 	"/>
	<g>
		<path style="fill:#FFE100;" d="M15.948,506.963c-0.839,0-1.679,0-2.518,0c-4.197-1.679-6.715-5.875-5.875-10.911l41.967-134.295
			c1.679-4.197,5.875-6.715,10.911-5.875c4.197,1.679,6.715,5.875,5.875,10.911L24.341,501.088
			C22.662,504.445,19.305,506.963,15.948,506.963z"/>
		<path style="fill:#FFE100;" d="M234.177,506.963c-0.839,0-0.839,0-1.679,0c-4.197-0.839-7.554-5.875-6.715-10.072l33.574-151.082
			c0.839-4.197,5.875-7.554,10.072-6.715s7.554,5.875,6.715,10.072l-33.574,151.082
			C241.731,504.445,238.374,506.963,234.177,506.963z"/>
		<path style="fill:#FFE100;" d="M167.03,506.963c-3.357,0-6.715-2.518-8.393-5.875l-41.967-134.295
			c-1.679-4.197,0.839-9.233,5.875-10.911c4.197-1.679,9.233,0.839,10.911,5.875l41.967,134.295
			c1.679,4.197-0.839,9.233-5.875,10.911C168.708,506.963,167.869,506.963,167.03,506.963z"/>
		<path style="fill:#FFE100;" d="M502.767,506.963c-4.197,0-7.554-2.518-8.393-6.715L460.8,349.166
			c-0.839-4.197,1.679-9.233,6.715-10.072c4.197-0.839,9.233,1.679,10.072,6.715l33.574,151.082
			c0.839,4.197-1.679,9.233-6.715,10.072C503.607,506.963,503.607,506.963,502.767,506.963z"/>
		<polygon style="fill:#FFE100;" points="309.718,95.685 410.439,95.685 410.439,62.111 309.718,62.111 		"/>
		<polygon style="fill:#FFE100;" points="393.653,62.111 326.505,62.111 309.718,20.144 410.439,20.144 		"/>
	</g>
	<polygon style="fill:#FFA800;" points="393.653,20.144 376.866,62.111 393.653,62.111 410.439,20.144 	"/>
	<path style="fill:#FFE100;" d="M360.079,196.406c11.751,0,22.662,1.679,33.574,5.036v-21.823V95.685h-67.148v83.934v21.823
		C337.417,198.085,348.328,196.406,360.079,196.406"/>
	<g>
		<polygon style="fill:#FFA800;" points="385.259,95.685 410.439,95.685 410.439,62.111 385.259,62.111 		"/>
		<path style="fill:#FFA800;" d="M376.866,95.685v83.934v18.466c5.875,0.839,11.751,2.518,16.787,4.197v-22.662V95.685H376.866z"/>
	</g>
	<path style="fill:#FFE100;" d="M469.194,305.521c0,60.433-48.682,109.115-109.115,109.115s-109.115-48.682-109.115-109.115
		s48.682-109.115,109.115-109.115S469.194,245.088,469.194,305.521"/>
	<path style="fill:#FFA800;" d="M360.079,196.406c-4.197,0-8.393,0-12.59,0.839c54.557,5.875,96.525,52.039,96.525,108.275
		s-41.967,102.4-96.525,108.275c4.197,0.839,8.393,0.839,12.59,0.839c60.433,0,109.115-48.682,109.115-109.115
		S420.512,196.406,360.079,196.406"/>
	<path style="fill:#E4667F;" d="M469.194,305.521c0-5.875-0.839-10.911-1.679-16.787H460.8c-29.377-24.341-74.702-20.984-100.721,0
		l0,0c-26.02,20.984-71.344,24.341-100.721,0h-6.715c-0.839,5.875-1.679,10.911-1.679,16.787
		c0,60.433,48.682,109.115,109.115,109.115S469.194,365.953,469.194,305.521"/>
	<path style="fill:#DD3859;" d="M467.515,288.734H460.8c-17.626-14.269-40.289-19.305-62.111-15.948
		c13.429,1.679,26.02-1.679,36.931,7.554l6.715,8.393c0.839,5.875,1.679,10.911,1.679,16.787c0,56.236-41.967,102.4-96.525,108.275
		c4.197,0.839,8.393,0.839,12.59,0.839c60.433,0,109.115-48.682,109.115-109.115C469.194,299.645,468.354,294.609,467.515,288.734"
		/>
	<polygon style="fill:#FFE100;" points="32.735,188.012 133.456,188.012 133.456,154.439 32.735,154.439 	"/>
	<polygon style="fill:#FFFFFF;" points="32.735,188.012 57.915,188.012 57.915,154.439 32.735,154.439 	"/>
	<path style="fill:#FFE100;" d="M49.521,188.012v67.148v142.689c0,18.466,15.108,33.574,33.574,33.574s33.574-15.108,33.574-33.574
		V255.16v-67.148H49.521z"/>
	<path style="fill:#63D3FD;" d="M83.095,431.422L83.095,431.422c-18.466,0-33.574-15.108-33.574-33.574v-92.328h67.148v92.328
		C116.669,416.314,101.561,431.422,83.095,431.422"/>
	<path style="fill:#FFFFFF;" d="M66.308,397.848V255.16v-67.148h-25.18v67.148v142.689c0,18.466,15.108,33.574,33.574,33.574
		c4.197,0,8.393-0.839,12.59-2.518C74.702,423.868,66.308,412.117,66.308,397.848"/>
	<path d="M133.456,196.406H32.735c-5.036,0-8.393-3.357-8.393-8.393v-33.574c0-5.036,3.357-8.393,8.393-8.393h100.721
		c5.036,0,8.393,3.357,8.393,8.393v33.574C141.849,193.048,138.492,196.406,133.456,196.406z M41.128,179.619h83.934v-16.787H41.128
		V179.619z"/>
	<path d="M83.095,439.816c-23.502,0-41.967-18.466-41.967-41.967v-92.328c0-5.036,3.357-8.393,8.393-8.393h67.148
		c5.036,0,8.393,3.357,8.393,8.393v92.328C125.062,421.35,106.597,439.816,83.095,439.816z M57.915,313.914v83.934
		c0,14.269,10.911,25.18,25.18,25.18s25.18-10.911,25.18-25.18v-83.934H57.915z"/>
	<path d="M83.095,439.816c-23.502,0-41.967-18.466-41.967-41.967V188.012c0-5.036,3.357-8.393,8.393-8.393h67.148
		c5.036,0,8.393,3.357,8.393,8.393v209.836C125.062,421.35,106.597,439.816,83.095,439.816z M57.915,196.406v201.443
		c0,14.269,10.911,25.18,25.18,25.18s25.18-10.911,25.18-25.18V196.406H57.915z"/>
	<path d="M410.439,104.078H309.718c-5.036,0-8.393-3.357-8.393-8.393V62.111c0-5.036,3.357-8.393,8.393-8.393h100.721
		c5.036,0,8.393,3.357,8.393,8.393v33.574C418.833,100.721,415.476,104.078,410.439,104.078z M318.112,87.291h83.934V70.504h-83.934
		V87.291z"/>
	<path d="M393.653,70.504h-67.148c-3.357,0-6.715-1.679-7.554-5.036l-16.787-41.967c-0.839-2.518-0.839-5.875,0.839-7.554
		c1.679-2.518,4.197-4.197,6.715-4.197h100.721c2.518,0,5.036,1.679,6.715,3.357c1.679,2.518,1.679,5.036,0.839,7.554
		l-16.787,41.967C400.367,68.826,397.01,70.504,393.653,70.504z M332.38,53.717h55.397l10.072-25.18h-75.541L332.38,53.717z"/>
	<path d="M141.849,372.668H24.341c-5.036,0-8.393-3.357-8.393-8.393c0-5.036,3.357-8.393,8.393-8.393h117.508
		c5.036,0,8.393,3.357,8.393,8.393C150.243,369.311,146.885,372.668,141.849,372.668z"/>
	<path d="M477.587,355.881H242.571c-5.036,0-8.393-3.357-8.393-8.393c0-5.036,3.357-8.393,8.393-8.393h235.016
		c5.036,0,8.393,3.357,8.393,8.393C485.98,352.524,482.623,355.881,477.587,355.881z"/>
	<path d="M7.554,506.963c-0.839,0-1.679,0-2.518,0c-4.197-1.679-6.715-5.875-5.875-10.911l41.967-134.295
		c1.679-4.197,5.875-6.715,10.911-5.875c4.197,1.679,6.715,5.875,5.875,10.911L15.948,501.088
		C14.269,504.445,10.912,506.963,7.554,506.963z"/>
	<path d="M225.784,506.963c-0.839,0-0.839,0-1.679,0c-4.197-0.839-7.554-5.875-6.715-10.072l33.574-151.082
		c0.839-4.197,5.875-7.554,10.072-6.715s7.554,5.875,6.715,10.072l-33.574,151.082C233.338,504.445,229.98,506.963,225.784,506.963z
		"/>
	<path d="M158.636,506.963c-3.357,0-6.715-2.518-8.393-5.875l-41.967-134.295c-1.679-4.197,0.839-9.233,5.875-10.911
		c4.197-1.679,9.233,0.839,10.911,5.875l41.967,134.295c1.679,4.197-0.839,9.233-5.875,10.911
		C160.315,506.963,159.476,506.963,158.636,506.963z"/>
	<path d="M360.079,423.029c-64.63,0-117.508-52.879-117.508-117.508s52.879-117.508,117.508-117.508s117.508,52.879,117.508,117.508
		S424.708,423.029,360.079,423.029z M360.079,204.799c-55.397,0-100.721,45.325-100.721,100.721s45.325,100.721,100.721,100.721
		S460.8,360.917,460.8,305.521S415.476,204.799,360.079,204.799z"/>
	<path d="M393.653,209.835c-0.839,0-1.679,0-2.518,0c-20.144-6.715-41.967-6.715-62.111,0c-2.518,0.839-5.036,0-7.554-0.839
		c-1.679-1.679-3.357-4.197-3.357-7.554V95.685c0-5.036,3.357-8.393,8.393-8.393h67.148c5.036,0,8.393,3.357,8.393,8.393v105.757
		c0,2.518-1.679,5.036-3.357,6.715C397.01,209.835,395.331,209.835,393.653,209.835z M360.079,188.012
		c8.393,0,16.787,0.839,25.18,2.518v-86.452h-50.361v86.452C343.292,188.852,351.685,188.012,360.079,188.012z"/>
	<path d="M326.505,162.832h-50.361c-5.036,0-8.393-3.357-8.393-8.393V87.291H217.39c-5.036,0-8.393-3.357-8.393-8.393
		s3.357-8.393,8.393-8.393h58.754c5.036,0,8.393,3.357,8.393,8.393v67.148h41.967c5.036,0,8.393,3.357,8.393,8.393
		S331.541,162.832,326.505,162.832z"/>
	<path d="M217.39,104.078h-67.148c-5.036,0-8.393-3.357-8.393-8.393V62.111c0-5.036,3.357-8.393,8.393-8.393h67.148
		c5.036,0,8.393,3.357,8.393,8.393v33.574C225.784,100.721,222.426,104.078,217.39,104.078z M158.636,87.291h50.361V70.504h-50.361
		V87.291z"/>
	<path d="M183.817,70.504c-5.036,0-8.393-3.357-8.393-8.393V11.75c0-5.036,3.357-8.393,8.393-8.393s8.393,3.357,8.393,8.393v50.361
		C192.21,67.147,188.853,70.504,183.817,70.504z"/>
	<path d="M83.095,162.832c-5.036,0-8.393-3.357-8.393-8.393V78.898c0-5.036,3.357-8.393,8.393-8.393h67.148
		c5.036,0,8.393,3.357,8.393,8.393c0,5.036-3.357,8.393-8.393,8.393H91.489v67.148C91.489,159.475,88.131,162.832,83.095,162.832z"
		/>
	<path d="M208.997,36.93h-50.361c-5.036,0-8.393-3.357-8.393-8.393s3.357-8.393,8.393-8.393h50.361c5.036,0,8.393,3.357,8.393,8.393
		S214.033,36.93,208.997,36.93z"/>
	<path d="M494.374,506.963c-4.197,0-7.554-2.518-8.393-6.715l-33.574-151.082c-0.839-4.197,1.679-9.233,6.715-10.072
		c4.197-0.839,9.233,1.679,10.072,6.715l33.574,151.082c0.839,4.197-1.679,9.233-6.715,10.072
		C495.213,506.963,495.213,506.963,494.374,506.963z"/>
	<path d="M360.079,423.029c-64.63,0-117.508-52.879-117.508-117.508c0-5.875,0.839-11.751,1.679-18.466
		c0.839-4.197,4.197-6.715,8.393-6.715h6.715c1.679,0,4.197,0.839,5.036,1.679c26.02,21.823,67.987,17.626,89.81,0
		c0,0,0,0,0.839-0.839c26.859-20.984,75.541-26.859,108.275-1.679h4.197l0,0c4.197,0,7.554,3.357,8.393,6.715
		c0.839,6.715,1.679,12.59,1.679,18.466C477.587,370.15,424.708,423.029,360.079,423.029z M259.358,299.645c0,1.679,0,4.197,0,5.875
		c0,55.397,45.325,100.721,100.721,100.721S460.8,360.917,460.8,305.521c0-2.518,0-5.036,0-8.393c-1.679,0-3.357-0.839-5.036-1.679
		c-26.02-21.823-67.987-17.626-89.81,0c0,0,0,0-0.839,0.839C339.095,316.432,292.931,322.307,259.358,299.645z"/>
</g>
</svg>