<?xml version="1.0" encoding="iso-8859-1"?>
<!-- Uploaded to: SVG Repo, www.svgrepo.com, Generator: SVG Repo Mixer Tools -->
<svg fill="#000000" height="800px" width="800px" version="1.1" id="Layer_1" xmlns="http://www.w3.org/2000/svg" xmlns:xlink="http://www.w3.org/1999/xlink" 
	 viewBox="0 0 512.092 512.092" xml:space="preserve">
<g transform="translate(-1 -1)">
	<g>
		<path d="M506.839,476.673L281.576,251.41l14.14-14.14c8.331-8.331,8.331-21.839,0-30.17l-7.746-7.746
			c14.795-7.962,51.499-6.405,90.569,7.804c12.587,4.577,26.229-3.44,28.354-16.664c0.207-1.291,0.465-3.325,0.705-6.03
			c2.603-29.314-1.777-63.326-18.955-96.202c-7.388-14.139-16.877-27.217-28.621-38.965c-11.759-11.759-24.847-21.257-38.999-28.651
			C288.149,3.471,254.138-0.909,224.826,1.694c-2.704,0.24-4.738,0.497-6.029,0.705c-13.224,2.125-21.242,15.767-16.665,28.354
			c15.346,42.197,19.532,81.453,13.415,96.181l-7.513-7.513c-8.332-8.332-21.842-8.331-30.173,0.003l-58.432,58.453
			c-8.328,8.331-8.327,21.835,0.001,30.165l7.505,7.506c-14.695,6.122-53.967,1.94-96.179-13.412
			c-12.587-4.578-26.23,3.44-28.354,16.665c-0.207,1.291-0.465,3.326-0.705,6.031c-2.602,29.311,1.774,63.319,18.94,96.191
			c7.39,14.151,16.884,27.24,28.636,38.996c11.763,11.758,24.851,21.252,39.002,28.642c32.872,17.166,66.88,21.543,96.191,18.94
			c2.706-0.24,4.74-0.498,6.031-0.705c13.224-2.125,21.242-15.767,16.664-28.354c-14.214-39.085-15.776-75.778-7.813-90.563
			l7.741,7.743c8.331,8.333,21.84,8.334,30.172,0.002l14.144-14.144l225.263,225.263c8.331,8.331,21.839,8.331,30.17,0
			C515.17,498.512,515.17,485.004,506.839,476.673z M251.244,44.138c16.204,1.331,33.484,5.685,50.022,14.325
			c10.382,5.424,19.949,12.367,28.583,21.001c8.622,8.625,15.558,18.185,20.979,28.558c8.722,16.693,13.077,34.142,14.364,50.478
			c-44.411-11.041-85.083-8.605-107.781,10.287l-11.07-11.07C265.094,134.689,264.701,92.381,251.244,44.138z M158.502,365.196
			c-16.335-1.285-33.784-5.637-50.476-14.354c-10.382-5.422-19.949-12.361-28.583-20.992c-8.624-8.628-15.564-18.195-20.985-28.576
			c-8.637-16.538-12.988-33.82-14.318-50.025c48.263,13.464,90.58,13.855,113.574-4.91l11.075,11.075
			C149.884,280.102,147.452,320.769,158.502,365.196z M213.917,242.203c-0.01-0.01-0.017-0.02-0.027-0.03l-11.796-11.796
			l-37.41-37.419l28.269-28.28l57.507,57.507l-28.282,28.282L213.917,242.203z"/>
	</g>
</g>
</svg>