<?xml version="1.0" encoding="iso-8859-1"?>
<!-- Uploaded to: SVG Repo, www.svgrepo.com, Generator: SVG Repo Mixer Tools -->
<svg fill="#000000" height="800px" width="800px" version="1.1" id="Layer_1" xmlns="http://www.w3.org/2000/svg" xmlns:xlink="http://www.w3.org/1999/xlink" 
	 viewBox="0 0 512 512" xml:space="preserve">
<g transform="translate(1 1)">
	<g>
		<g>
			<path d="M451.267,118.467V84.333c0-3.413-1.707-5.973-5.12-7.68c-2.56-1.707-5.973-1.707-8.533,0L408.6,92.901V79.213
				l14.507-14.507c3.413-3.413,3.413-8.533,0-11.947s-8.533-3.413-11.947,0l-11.093,11.093L388.973,52.76
				c-3.413-3.413-8.533-3.413-11.947,0s-3.413,8.533,0,11.947l14.507,14.507v14.165l-29.867-16.725c-2.56-1.707-5.973-1.707-8.533,0
				s-4.267,4.267-4.267,7.68v34.133c0,0.853,0.853,1.707,0.853,2.56l7.68,22.187l-6.827,13.653
				c-0.853,1.707-1.707,4.267-0.853,5.973l8.533,34.133c0,2.56,1.707,5.12,4.267,5.973l29.013,14.507v20.139L280.6,202.093V166.68
				l29.867-14.933c1.707-1.707,3.413-3.413,4.267-5.973l8.533-34.133c0-1.707,0-3.413-1.707-5.973l-6.827-13.653l7.68-22.187
				c0.853-0.853,0.853-1.707,0.853-2.56V33.133c0-3.413-1.707-5.973-4.267-7.68s-5.973-1.707-8.533,0L280.6,42.179V28.013
				l14.507-14.507c3.413-3.413,3.413-8.533,0-11.947s-8.533-3.413-11.947,0l-11.093,11.093L260.973,1.56
				c-3.413-3.413-8.533-3.413-11.947,0s-3.413,8.533,0,11.947l14.507,14.507v14.165l-29.867-16.725c-2.56-1.707-5.973-1.707-8.533,0
				c-2.56,1.707-4.267,4.267-4.267,7.68v34.133c0,0.853,0,1.707,0.853,2.56l7.68,22.187l-6.827,13.653
				c-0.853,1.707-1.707,4.267-0.853,5.973l8.533,34.133c0,2.56,1.707,5.12,4.267,5.973l29.013,14.507v30.379l-68.267-21.845V255
				c0,14.507-11.093,25.6-25.6,25.6c-14.507,0-25.6-11.093-25.6-25.6v-59.733c0-23.893-18.773-42.667-42.667-42.667
				c-23.893,0-42.667,18.773-42.667,42.667V331.8c0,42.667,34.133,76.8,76.8,76.8h25.6c18.773,0,34.133,15.36,34.133,34.133
				c0,2.339,0.719,4.316,1.981,5.78c8.05,35.81,39.955,62.487,78.232,62.487h95.573c44.373,0,80.213-35.84,80.213-81.067V256.707
				L408.6,243.053V217.88l29.867-14.933c1.707-1.707,3.413-3.413,4.267-5.973l8.533-34.133c0-1.707,0-3.413-1.707-5.973
				l-6.827-13.653l7.68-22.187C451.267,120.173,451.267,119.32,451.267,118.467z M306.2,65.56l-7.68,24.747
				c-0.853,1.707-0.853,4.267,0,5.973l6.827,14.507l-6.827,27.307l-17.92,8.96V62.269l25.6-14.629V65.56z M244.76,138.093
				l-6.827-27.307l6.827-14.507c1.707-2.56,1.707-4.267,0.853-6.827l-7.68-23.893V47.64l25.6,14.629v85.211L244.76,138.093z
				 M161.133,391.533h-25.6c-33.28,0-59.733-26.453-59.733-59.733V195.267c0-14.507,11.093-25.6,25.6-25.6
				c14.507,0,25.6,11.093,25.6,25.6V255c0,23.893,18.773,42.667,42.667,42.667c9.387,0,18.773-3.413,25.6-8.533v115.2
				C185.88,396.653,173.933,391.533,161.133,391.533z M434.2,430.787c0,34.987-28.16,63.147-63.147,63.147H275.48
				c-34.987,0-63.147-28.16-63.147-63.147V255v-56.32L434.2,269.507V430.787z M372.76,189.293l-6.827-27.307l6.827-14.507
				c1.707-2.56,1.707-4.267,0.853-6.827l-7.68-23.893V98.84l25.6,14.629v85.211L372.76,189.293z M433.347,116.76l-7.68,23.893
				c0,2.56,0,5.12,0.853,6.827l6.827,14.507l-6.827,27.307l-17.92,8.96v-85.272l24.747-14.141V116.76z"/>
			<path d="M246.467,386.413v13.653c0,3.413,1.707,5.973,4.267,6.827c3.413,1.707,6.827,0.853,9.387-0.853
				c0,0,14.507-11.947,36.693-14.507c-2.56,22.187-14.507,36.693-14.507,36.693c-1.707,2.56-2.56,5.973-0.853,9.387
				s4.267,5.12,7.68,5.12h13.653l14.507,14.507c1.707,1.707,3.413,2.56,5.973,2.56s4.267-0.853,5.973-2.56l14.507-14.507H357.4
				c3.413,0,5.973-1.707,6.827-4.267c1.707-3.413,0.853-6.827-0.853-9.387c0,0-11.947-14.507-14.507-36.693
				c22.187,2.56,36.693,14.507,36.693,14.507c2.56,1.707,5.973,2.56,9.387,0.853c3.413-1.707,5.12-4.267,5.12-7.68v-13.653
				l15.36-14.507c3.413-3.413,3.413-8.533,0-11.947l-14.507-14.507V331.8c0-3.413-1.707-5.973-5.12-7.68
				c-3.413-1.707-6.827-0.853-9.387,0.853c0,0-14.507,11.947-36.693,14.507c2.56-22.187,14.507-36.693,14.507-36.693
				c1.707-2.56,2.56-5.973,0.853-9.387s-4.267-5.12-7.68-5.12h-12.8l-14.507-14.507c-3.413-3.413-8.533-3.413-11.947,0
				L303.64,288.28h-13.653c-3.413,0-5.973,1.707-7.68,5.12s-0.853,6.827,0.853,9.387c0,0,11.947,14.507,14.507,36.693
				c-22.187-2.56-36.693-14.507-36.693-14.507c-2.56-1.707-5.973-2.56-9.387-0.853s-5.12,4.267-5.12,7.68v13.653L231.96,359.96
				c-3.413,3.413-3.413,8.533,0,11.947L246.467,386.413z M260.973,354.84c1.707-1.707,2.56-3.413,2.56-5.973v-1.707
				c10.24,5.12,24.747,10.24,42.667,10.24c5.12,0,8.533-3.413,8.533-8.533c0-17.92-5.12-32.427-10.24-42.667h1.707
				c2.56,0,4.267-0.853,5.973-2.56l11.093-11.093l11.093,11.093c1.707,1.707,3.413,2.56,5.973,2.56h1.707
				c-5.12,10.24-10.24,24.747-10.24,42.667c0,5.12,3.413,8.533,8.533,8.533c17.92,0,32.427-5.12,42.667-10.24v1.707
				c0,2.56,0.853,4.267,2.56,5.973l11.093,11.093l-11.093,11.093c-1.707,1.707-2.56,3.413-2.56,5.973v1.707
				c-10.24-5.12-24.747-10.24-42.667-10.24c-5.12,0-8.533,3.413-8.533,8.533c0,17.92,5.12,32.427,10.24,42.667h-1.707
				c-2.56,0-4.267,0.853-5.973,2.56l-11.093,11.093l-11.093-11.093c-1.707-1.707-3.413-2.56-5.973-2.56h-1.707
				c5.12-10.24,10.24-24.747,10.24-42.667c0-5.12-3.413-8.533-8.533-8.533c-17.92,0-32.427,5.12-42.667,10.24V383
				c0-2.56-0.853-4.267-2.56-5.973l-11.093-11.093L260.973,354.84z"/>
		</g>
	</g>
</g>
</svg>