<?xml version="1.0" encoding="iso-8859-1"?>
<!-- Uploaded to: SVG Repo, www.svgrepo.com, Generator: SVG Repo Mixer Tools -->
<svg height="800px" width="800px" version="1.1" id="Layer_1" xmlns="http://www.w3.org/2000/svg" xmlns:xlink="http://www.w3.org/1999/xlink" 
	 viewBox="0 0 512 512" xml:space="preserve">
<g transform="translate(1 1)">
	<polygon style="fill:#FDCC00;" points="126.853,502.467 382.853,502.467 382.853,442.733 126.853,442.733 	"/>
	<polygon style="fill:#FFA800;" points="357.253,502.467 382.853,502.467 382.853,442.733 357.253,442.733 	"/>
	<polygon style="fill:#FFE100;" points="382.853,442.733 126.853,442.733 101.253,391.533 408.453,391.533 	"/>
	<polygon style="fill:#FFA800;" points="382.853,391.533 357.253,442.733 382.853,442.733 408.453,391.533 	"/>
	<g>
		<polygon style="fill:#FFFFFF;" points="126.853,502.467 152.453,502.467 152.453,442.733 126.853,442.733 		"/>
		<polygon style="fill:#FFFFFF;" points="126.853,391.533 152.453,442.733 126.853,442.733 101.253,391.533 		"/>
		<polygon style="fill:#FFFFFF;" points="101.253,391.533 135.386,391.533 135.386,348.867 101.253,348.867 		"/>
	</g>
	<polygon style="fill:#FFA800;" points="374.319,391.533 408.453,391.533 408.453,348.867 374.319,348.867 	"/>
	<path style="fill:#00DA6C;" d="M357.253,16.067v51.2c-14.507-11.947-37.547-11.093-51.2,0c-13.653,11.093-36.693,11.947-51.2,0
		v-51.2c14.507,11.947,37.547,11.093,51.2,0C319.706,4.973,342.746,4.12,357.253,16.067"/>
	<g>
		<polygon style="fill:#FFE100;" points="254.853,92.867 135.386,353.133 135.386,391.533 374.319,391.533 374.319,353.133 		"/>
		<polygon style="fill:#FFE100;" points="164.399,289.133 345.306,289.133 313.733,220.867 195.973,220.867 		"/>
	</g>
	<g>
		<polygon style="fill:#FFA800;" points="254.853,92.867 242.053,121.027 348.719,353.133 348.719,391.533 374.319,391.533 
			374.319,353.133 		"/>
		<polygon style="fill:#FFA800;" points="313.733,220.867 288.133,220.867 319.706,289.133 345.306,289.133 		"/>
	</g>
	<path d="M382.853,511h-256c-5.12,0-8.533-3.413-8.533-8.533v-59.733c0-5.12,3.413-8.533,8.533-8.533h256
		c5.12,0,8.533,3.413,8.533,8.533v59.733C391.386,507.587,387.973,511,382.853,511z M135.386,493.933h238.933v-42.667H135.386
		V493.933z"/>
	<path d="M382.853,451.267h-256c-3.413,0-5.973-1.707-7.68-5.12l-25.6-51.2c-1.707-2.56-0.853-5.973,0-8.533s5.12-3.413,7.68-3.413
		h307.2c2.56,0,5.973,1.707,7.68,4.267c1.707,2.56,1.707,5.973,0,8.533l-25.6,51.2C388.826,449.56,386.266,451.267,382.853,451.267z
		 M131.973,434.2h245.76l17.067-34.133H114.906L131.973,434.2z"/>
	<path d="M135.386,400.067h-34.133c-5.12,0-8.533-3.413-8.533-8.533v-42.667c0-5.12,3.413-8.533,8.533-8.533h34.133
		c5.12,0,8.533,3.413,8.533,8.533v42.667C143.919,396.653,140.506,400.067,135.386,400.067z M109.786,383h17.067v-25.6h-17.067V383z
		"/>
	<path d="M203.653,400.067h-34.133c-5.12,0-8.533-3.413-8.533-8.533v-42.667c0-5.12,3.413-8.533,8.533-8.533h34.133
		c5.12,0,8.533,3.413,8.533,8.533v42.667C212.186,396.653,208.773,400.067,203.653,400.067z M178.053,383h17.067v-25.6h-17.067V383z
		"/>
	<path d="M340.186,400.067h-34.133c-5.12,0-8.533-3.413-8.533-8.533v-42.667c0-5.12,3.413-8.533,8.533-8.533h34.133
		c5.12,0,8.533,3.413,8.533,8.533v42.667C348.719,396.653,345.306,400.067,340.186,400.067z M314.586,383h17.067v-25.6h-17.067V383z
		"/>
	<path d="M271.919,400.067h-34.133c-5.12,0-8.533-3.413-8.533-8.533v-42.667c0-5.12,3.413-8.533,8.533-8.533h34.133
		c5.12,0,8.533,3.413,8.533,8.533v42.667C280.453,396.653,277.039,400.067,271.919,400.067z M246.319,383h17.067v-25.6h-17.067V383z
		"/>
	<path d="M408.453,400.067h-34.133c-5.12,0-8.533-3.413-8.533-8.533v-42.667c0-5.12,3.413-8.533,8.533-8.533h34.133
		c5.12,0,8.533,3.413,8.533,8.533v42.667C416.986,396.653,413.573,400.067,408.453,400.067z M382.853,383h17.067v-25.6h-17.067V383z
		"/>
	<path d="M254.853,101.4c-5.12,0-8.533-3.413-8.533-8.533v-76.8c0-5.12,3.413-8.533,8.533-8.533s8.533,3.413,8.533,8.533v76.8
		C263.386,97.987,259.973,101.4,254.853,101.4z"/>
	<path d="M280.453,84.333c-11.093,0-22.187-3.413-30.72-10.24c-2.56-1.707-3.413-4.267-3.413-6.827v-51.2
		c0-3.413,1.707-5.973,5.12-7.68s6.827-0.853,9.387,0.853c11.093,9.387,29.013,8.533,40.107,0c17.92-13.653,44.373-13.653,62.293,0
		c1.707,1.707,2.56,4.267,2.56,6.827v51.2c0,3.413-1.707,5.973-5.12,7.68c-3.413,1.707-5.973,0.853-8.533-0.853
		c-11.093-9.387-29.013-8.533-40.107,0C302.639,80.92,291.546,84.333,280.453,84.333z M263.386,63
		c11.093,6.827,27.307,5.973,37.547-2.56c12.8-10.24,32.427-12.8,47.787-7.68V20.333c-11.093-6.827-27.307-5.973-37.547,2.56
		c-12.8,10.24-32.427,12.8-47.787,7.68V63z"/>
	<path d="M374.319,400.067H135.386c-5.12,0-8.533-3.413-8.533-8.533v-38.4c0-0.853,0-2.56,0.853-3.413L247.173,89.453
		c1.707-3.413,4.267-5.12,7.68-5.12c3.413,0,5.973,1.707,7.68,5.12L381.999,349.72c0.853,0.853,0.853,2.56,0.853,3.413v38.4
		C382.853,396.653,379.439,400.067,374.319,400.067z M143.919,383h221.867v-28.16L254.853,113.347L143.919,354.84V383z"/>
	<path d="M169.519,511c-5.12,0-8.533-3.413-8.533-8.533v-25.6c0-5.12,3.413-8.533,8.533-8.533c5.12,0,8.533,3.413,8.533,8.533v25.6
		C178.053,507.587,174.639,511,169.519,511z"/>
	<path d="M212.186,511c-5.12,0-8.533-3.413-8.533-8.533v-25.6c0-5.12,3.413-8.533,8.533-8.533c5.12,0,8.533,3.413,8.533,8.533v25.6
		C220.719,507.587,217.306,511,212.186,511z"/>
	<path d="M254.853,511c-5.12,0-8.533-3.413-8.533-8.533v-25.6c0-5.12,3.413-8.533,8.533-8.533s8.533,3.413,8.533,8.533v25.6
		C263.386,507.587,259.973,511,254.853,511z"/>
	<path d="M297.519,511c-5.12,0-8.533-3.413-8.533-8.533v-25.6c0-5.12,3.413-8.533,8.533-8.533s8.533,3.413,8.533,8.533v25.6
		C306.053,507.587,302.639,511,297.519,511z"/>
	<path d="M340.186,511c-5.12,0-8.533-3.413-8.533-8.533v-25.6c0-5.12,3.413-8.533,8.533-8.533c5.12,0,8.533,3.413,8.533,8.533v25.6
		C348.719,507.587,345.306,511,340.186,511z"/>
	<path d="M345.306,297.667H164.399c-2.56,0-5.973-1.707-6.827-4.267c-1.707-2.56-1.707-5.12-0.853-8.533l31.573-68.267
		c1.707-3.413,4.267-5.12,7.68-5.12h117.76c3.413,0,5.973,1.707,7.68,5.12l31.573,68.267c0.853,2.56,0.853,5.973-0.853,8.533
		S347.866,297.667,345.306,297.667z M178.053,280.6h153.6l-23.893-51.2H201.946L178.053,280.6z"/>
</g>
</svg>