<?xml version="1.0" encoding="iso-8859-1"?>
<!-- Uploaded to: SVG Repo, www.svgrepo.com, Generator: SVG Repo Mixer Tools -->
<svg height="800px" width="800px" version="1.1" id="Layer_1" xmlns="http://www.w3.org/2000/svg" xmlns:xlink="http://www.w3.org/1999/xlink" 
	 viewBox="0 0 511.147 511.147" xml:space="preserve">
<g transform="translate(1 1)">
	<path style="fill:#FFE100;" d="M450.84,177.347V57.88c-11.093-12.8-45.227-24.747-82.773-34.987
		c-74.24-19.627-152.747-19.627-226.987,0C103.534,33.133,69.4,45.08,58.307,57.88v119.467c0,0-3.413,237.227,196.267,324.267
		C454.254,414.573,450.84,177.347,450.84,177.347"/>
	<path style="fill:#FFA800;" d="M451.694,177.347V57.88c-11.093-12.8-45.227-24.747-82.773-34.987
		c-31.573-8.533-64-12.8-95.573-14.507c26.453,1.707,52.907,6.827,78.507,13.653c37.547,10.24,72.533,22.187,82.773,34.987v119.467
		c0,0,3.413,230.4-188.587,320.853c3.413,1.707,5.973,3.413,9.387,4.267C455.107,414.573,451.694,177.347,451.694,177.347"/>
	<path style="fill:#FFFFFF;" d="M58.307,177.347V57.88c11.093-12.8,45.227-24.747,82.773-34.987c31.573-8.533,64-12.8,95.573-14.507
		c-26.453,1.707-52.907,6.827-78.507,13.653c-37.547,9.387-71.68,22.187-82.773,34.987v119.467c0,0-3.413,230.4,188.587,320.853
		c-3.413,1.707-5.973,3.413-9.387,4.267C54.894,414.573,58.307,177.347,58.307,177.347"/>
	<path style="fill:#FFE100;" d="M254.574,454.68c-153.6-80.213-153.6-268.8-153.6-276.48V80.92
		c9.387-4.267,24.747-10.24,51.2-17.067c33.28-9.387,67.413-13.653,102.4-13.653s69.12,4.267,102.4,13.653
		c26.453,6.827,41.813,12.8,51.2,17.067v96.427C408.174,185.88,408.174,374.467,254.574,454.68"/>
	<path style="fill:#63D3FD;" d="M237.507,245.613c0,44.373-24.747,75.093-24.747,75.093l23.04-4.267l18.773,23.04l18.773-23.04
		l23.04,4.267c0,0-24.747-30.72-24.747-75.093c44.373,0,75.093,24.747,75.093,24.747l-4.267-23.04l23.04-18.773l-23.04-18.773
		l4.267-23.04c0,0-30.72,24.747-75.093,24.747c0-44.373,24.747-75.093,24.747-75.093l-23.04,4.267l-18.773-23.04l-18.773,23.04
		l-23.04-4.267c0,0,24.747,30.72,24.747,75.093c-44.373,0-75.093-24.747-75.093-24.747l4.267,23.04l-23.04,18.773l23.04,18.773
		l-4.267,23.04C162.414,270.36,193.134,245.613,237.507,245.613"/>
	<path d="M254.574,348.013c-2.56,0-5.12-0.853-6.827-3.413l-15.36-18.773l-17.92,3.413c-3.413,0.853-6.827-0.853-8.533-4.267
		c-1.707-3.413-1.707-6.827,0.853-9.387c0,0,19.627-24.747,22.187-61.44c-35.84,2.56-60.587,22.187-61.44,22.187
		c-2.56,2.56-6.827,2.56-9.387,0.853c-2.56-1.707-4.267-5.12-4.267-8.533l3.413-17.92l-18.773-15.36
		c-2.56-1.707-3.413-4.267-3.413-6.827s0.853-5.12,3.413-6.827l18.773-15.36l-3.413-17.92c-0.853-3.413,0.853-6.827,4.267-8.533
		c3.413-1.707,6.827-1.707,9.387,0.853c0,0,24.747,19.627,61.44,22.187c-2.56-35.84-22.187-60.587-22.187-61.44
		c-2.56-2.56-2.56-6.827-0.853-9.387c1.707-3.413,5.12-4.267,8.533-4.267l17.92,3.413l15.36-18.773
		c3.413-4.267,10.24-4.267,13.653,0l15.36,18.773l17.92-3.413c3.413-0.853,6.827,0.853,8.533,4.267
		c1.707,3.413,1.707,6.827-0.853,9.387c0,0-19.627,24.747-22.187,61.44c35.84-2.56,60.587-22.187,61.44-22.187
		c2.56-2.56,6.827-2.56,9.387-0.853c3.413,1.707,4.267,5.12,4.267,8.533l-3.413,17.92l18.773,15.36
		c1.707,1.707,3.413,4.267,3.413,6.827s-0.853,5.12-3.413,6.827l-18.773,15.36l3.413,17.92c0.853,3.413-0.853,6.827-4.267,8.533
		s-6.827,1.707-9.387-0.853c0,0-24.747-19.627-61.44-22.187c2.56,35.84,22.187,60.587,22.187,61.44
		c2.56,2.56,2.56,6.827,0.853,9.387c-1.707,3.413-5.12,4.267-8.533,4.267l-17.92-3.413L261.4,344.6
		C259.694,347.16,257.134,348.013,254.574,348.013z M235.8,307.907c2.56,0,5.12,0.853,6.827,3.413l11.947,14.507l11.947-14.507
		c1.707-2.56,5.12-3.413,8.533-3.413l4.267,0.853c-7.68-14.507-16.213-36.693-16.213-63.147c0-5.12,3.413-8.533,8.533-8.533
		c26.453,0,48.64,8.533,63.147,15.36l-0.853-4.267c-0.853-3.413,0.853-5.973,3.413-8.533l14.507-11.947l-14.507-11.947
		c-2.56-1.707-3.413-5.12-3.413-8.533l0.853-4.267c-14.507,8.533-36.693,17.067-63.147,17.067c-5.12,0-8.533-3.413-8.533-8.533
		c0-26.453,8.533-48.64,15.36-63.147l-4.267,0.853c-3.413,0.853-5.973-0.853-8.533-3.413l-11.093-14.507l-11.947,14.507
		c-1.707,2.56-5.12,3.413-8.533,3.413l-4.267-0.853c7.68,14.507,16.213,36.693,16.213,63.147c0,5.12-3.413,8.533-8.533,8.533
		c-26.453,0-48.64-8.533-63.147-15.36l0.853,4.267c0.853,3.413-0.853,5.973-3.413,8.533l-14.507,11.093l14.507,11.947
		c2.56,1.707,3.413,5.12,3.413,8.533l-0.853,4.267c14.507-7.68,36.693-16.213,63.147-16.213c5.12,0,8.533,3.413,8.533,8.533
		c0,26.453-8.533,48.64-15.36,63.147l4.267-0.853C234.947,307.907,235.8,307.907,235.8,307.907z"/>
	<path d="M254.574,510.147c-0.853,0-2.56,0-3.413-0.853C48.067,420.547,49.774,179.907,49.774,177.347V57.88
		c0-1.707,0.853-4.267,1.707-5.12c11.093-12.8,39.253-25.6,87.893-38.4c75.947-20.48,155.307-20.48,231.253,0
		c47.787,12.8,76.8,25.6,87.04,37.547c0.853,1.707,1.707,4.267,1.707,5.973v119.467c0,5.973,0,244.053-201.387,331.947
		C257.134,510.147,255.427,510.147,254.574,510.147z M66.84,61.293v116.053c0,2.56-0.853,229.547,187.733,314.88
		c188.587-85.333,187.733-312.32,187.733-314.88l0,0V61.293c-6.827-5.973-25.6-16.213-76.8-30.72
		c-72.533-19.627-149.333-19.627-221.867,0C92.44,45.08,73.667,55.32,66.84,61.293z"/>
	<path d="M254.574,463.213c-1.707,0-2.56,0-4.267-0.853C92.44,379.587,92.44,185.88,92.44,178.2V80.92
		c0-3.413,1.707-6.827,5.12-7.68c12.8-5.12,30.72-11.093,52.907-17.067c68.267-18.773,140.8-18.773,209.067,0
		C381.72,62.147,399.64,68.12,412.44,73.24c2.56,0.853,4.267,4.267,4.267,7.68v96.427c0,8.533,0,202.24-157.867,284.16
		C257.134,462.36,256.28,463.213,254.574,463.213z M109.507,86.893V178.2c0,7.68,0,187.733,145.067,267.093
		C399.64,365.933,399.64,185.027,399.64,177.347V86.893c-8.533-3.413-23.04-8.533-45.227-14.507
		c-64.853-17.92-134.827-17.92-199.68,0C132.547,78.36,118.04,82.627,109.507,86.893z"/>
</g>
</svg>