<?xml version="1.0" encoding="iso-8859-1"?>
<!-- Uploaded to: SVG Repo, www.svgrepo.com, Generator: SVG Repo Mixer Tools -->
<svg fill="#000000" height="800px" width="800px" version="1.1" id="Layer_1" xmlns="http://www.w3.org/2000/svg" xmlns:xlink="http://www.w3.org/1999/xlink" 
	 viewBox="0 0 512 512" xml:space="preserve">
<g transform="translate(1 1)">
	<g>
		<g>
			<path d="M248.173,96.28l-15.36,18.773l-17.92-3.413c-3.413,0-6.827,0.853-8.533,4.267c-1.707,2.56-1.707,6.827,0.853,9.387
				c0,0.853,19.627,25.6,22.187,61.44c-36.693-2.56-61.44-22.187-61.44-22.187c-2.56-2.56-5.973-2.56-9.387-0.853
				s-5.12,5.12-4.267,8.533l3.413,17.92l-18.773,15.36c-2.56,1.707-3.413,4.267-3.413,6.827c0,2.56,0.853,5.12,3.413,6.827
				l18.773,15.36l-3.413,17.92c0,3.413,0.853,6.827,4.267,8.533c2.56,1.707,6.827,1.707,9.387-0.853
				c0.853,0,25.6-19.627,61.44-22.187c-2.56,36.693-22.187,61.44-22.187,61.44c-2.56,2.56-2.56,5.973-0.853,9.387
				c1.707,3.413,5.12,5.12,8.533,4.267l17.92-3.413l15.36,18.773c1.707,2.56,4.267,3.413,6.827,3.413s5.12-0.853,6.827-3.413
				l15.36-18.773l17.92,3.413c3.413,0,6.827-0.853,8.533-4.267c1.707-2.56,1.707-6.827-0.853-9.387
				c0-0.853-19.627-25.6-22.187-61.44c36.693,2.56,61.44,22.187,61.44,22.187c2.56,2.56,5.973,2.56,9.387,0.853
				s5.12-5.12,4.267-8.533l-3.413-17.92l18.773-15.36c2.56-1.707,3.413-4.267,3.413-6.827c0-2.56-1.707-5.12-3.413-6.827
				l-18.773-15.36l3.413-17.92c0-3.413-0.853-6.827-4.267-8.533c-2.56-1.707-6.827-1.707-9.387,0.853
				c-0.853,0-25.6,19.627-61.44,22.187c2.56-36.693,22.187-61.44,22.187-61.44c2.56-2.56,2.56-5.973,0.853-9.387
				c-1.707-3.413-5.12-5.12-8.533-4.267l-17.92,3.413l-15.36-18.773C258.413,92.013,251.587,92.013,248.173,96.28z M266.093,129.56
				c2.56,2.56,5.12,4.267,8.533,3.413l4.267-0.853c-6.827,14.507-15.36,36.693-15.36,63.147c0,5.12,3.413,8.533,8.533,8.533
				c26.453,0,48.64-8.533,63.147-17.067L334.36,191c0,3.413,0.853,6.827,3.413,8.533l14.507,11.947l-14.507,11.947
				c-2.56,2.56-4.267,5.12-3.413,8.533l0.853,4.267c-14.507-6.827-36.693-15.36-63.147-15.36c-5.12,0-8.533,3.413-8.533,8.533
				c0,26.453,8.533,48.64,16.213,63.147l-4.267-0.853c-3.413,0-6.827,0.853-8.533,3.413L255,309.613l-11.947-14.507
				c-1.707-2.56-4.267-3.413-6.827-3.413h-0.853l-4.267,0.853c6.827-14.507,15.36-36.693,15.36-63.147
				c0-5.12-3.413-8.533-8.533-8.533c-26.453,0-48.64,8.533-63.147,16.213l0.853-4.267c0-3.413-0.853-6.827-3.413-8.533
				l-14.507-11.947l14.507-11.093c2.56-2.56,4.267-5.12,3.413-8.533l-0.853-4.267c14.507,6.827,36.693,15.36,63.147,15.36
				c5.12,0,8.533-3.413,8.533-8.533c0-26.453-8.533-48.64-16.213-63.147l4.267,0.853c3.413,0,6.827-0.853,8.533-3.413L255,115.053
				L266.093,129.56z"/>
			<path d="M509.293,53.613C476.013,4.12,277.187-1,255-1C231.96-1,33.987,4.12,0.707,54.467C-1,55.32-1,57.88-1,59.587
				c0,2.56,5.12,58.027,39.253,141.653c30.72,76.8,92.16,192,210.773,307.2c1.707,1.707,3.413,2.56,5.973,2.56
				s4.267-0.853,5.973-2.56C487.96,288.28,511,62.147,511,59.587C511,57.88,511,55.32,509.293,53.613z M255,490.52
				C51.907,290.84,19.48,88.6,16.067,61.293C45.933,27.16,197.827,16.92,255,16.067c58.027,0.853,209.92,11.093,238.933,45.227
				C489.667,88.6,457.24,290.84,255,490.52z"/>
			<path d="M459.8,68.973c-35.84-14.507-121.173-25.6-204.8-27.307C173.933,43.373,86.04,55.32,50.2,69.827
				c-3.413,0.853-5.973,5.12-5.12,9.387c11.947,58.027,54.613,210.773,203.947,368.64c1.707,1.707,3.413,2.56,5.973,2.56
				s4.267-0.853,6.827-3.413C409.453,289.987,452.973,137.24,464.92,78.36C465.773,74.947,463.213,70.68,459.8,68.973z M255,429.08
				C119.32,283.16,76.653,143.213,63.853,82.627C100.547,70.68,181.613,59.587,255,58.733
				c75.093,1.707,154.453,11.093,191.147,23.893C433.347,143.213,389.827,284.013,255,429.08z"/>
		</g>
	</g>
</g>
</svg>