<?xml version="1.0" encoding="iso-8859-1"?>
<!-- Uploaded to: SVG Repo, www.svgrepo.com, Generator: SVG Repo Mixer Tools -->
<svg height="800px" width="800px" version="1.1" id="Layer_1" xmlns="http://www.w3.org/2000/svg" xmlns:xlink="http://www.w3.org/1999/xlink" 
	 viewBox="0 0 511.018 511.018" xml:space="preserve">
<g>
	<path style="fill:#BDC3C7;" d="M458.543,175.57V51.983c-11.132-13.241-47.13-25.988-85.795-36.431
		c-76.765-20.736-157.714-20.736-234.478,0c-38.665,10.443-74.664,23.19-85.795,36.431V175.57c0,0-3.681,244.966,203.034,335.448
		C462.225,420.535,458.543,175.57,458.543,175.57"/>
	<path style="fill:#ECF0F1;" d="M255.509,462.104C96.612,379.107,96.524,184.636,96.612,176.108V75.73
		c9.481-4.149,25.838-10.178,53.16-17.567c34.463-9.304,70.029-14.027,105.737-14.027s71.274,4.723,105.737,14.027
		c27.321,7.38,43.679,13.418,53.16,17.567v99.84C414.494,184.618,414.406,379.107,255.509,462.104"/>
	<path style="fill:#BDC3C7;" d="M237.854,246.19c0,46.027-25.379,77.974-25.379,77.974l23.905-4.776l19.129,23.905l19.129-23.905
		l23.905,4.776c0,0-25.379-31.947-25.379-77.974c46.027,0,77.974,25.379,77.974,25.379l-4.776-23.905l23.905-19.129l-23.905-19.129
		l4.776-23.905c0,0-31.947,25.379-77.974,25.379c0-46.027,25.379-77.974,25.379-77.974l-23.905,4.776l-19.129-23.905l-19.129,23.905
		l-23.905-4.776c0,0,25.379,31.947,25.379,77.974c-46.027,0-77.974-25.379-77.974-25.379l4.776,23.905l-23.905,19.129l23.905,19.129
		l-4.776,23.905C159.88,271.57,191.827,246.19,237.854,246.19"/>
</g>
</svg>