<?xml version="1.0" encoding="iso-8859-1"?>
<!-- Uploaded to: SVG Repo, www.svgrepo.com, Generator: SVG Repo Mixer Tools -->
<svg fill="#000000" height="800px" width="800px" version="1.1" id="Layer_1" xmlns="http://www.w3.org/2000/svg" xmlns:xlink="http://www.w3.org/1999/xlink" 
	 viewBox="0 0 512 512" xml:space="preserve">
<g>
	<g>
		<path d="M512,309.357c0-17.441-8.382-32.929-21.333-42.662V85.333V42.667c11.782,0,21.333-9.551,21.333-21.333
			C512,9.551,502.449,0,490.667,0H448c-11.782,0-21.333,9.551-21.333,21.333c0,11.782,9.551,21.333,21.333,21.333v38.14
			l-77.874,175.217h-34.742L277.333,81.871V42.667c11.782,0,21.333-9.551,21.333-21.333C298.667,9.551,289.115,0,277.333,0h-42.667
			c-11.782,0-21.333,9.551-21.333,21.333c0,11.782,9.551,21.333,21.333,21.333v39.205l-58.051,174.152h-34.742L64,80.806V42.667
			c11.782,0,21.333-9.551,21.333-21.333C85.333,9.551,75.782,0,64,0H21.333C9.551,0,0,9.551,0,21.333
			c0,11.782,9.551,21.333,21.333,21.333v42.667v181.362C8.382,276.427,0,291.916,0,309.357s8.382,32.929,21.333,42.662v63.987
			C8.382,425.737,0,441.226,0,458.667C0,488.113,23.887,512,53.333,512h405.333C488.113,512,512,488.113,512,458.667
			c0-17.441-8.382-32.929-21.333-42.662v-63.987C503.618,342.286,512,326.798,512,309.357z M256,152.795L290.402,256h-68.803
			L256,152.795z M64,362.69h384v42.643H64V362.69z M52.871,320c-5.667-0.245-10.204-4.917-10.204-10.643
			c0-5.882,4.785-10.667,10.667-10.667h405.333c5.882,0,10.667,4.785,10.667,10.667c0,5.726-4.538,10.398-10.204,10.643H52.871z
			 M448,185.861V256h-31.173L448,185.861z M64,256v-70.139L95.173,256H64z M458.667,469.333H53.333
			c-5.882,0-10.667-4.785-10.667-10.667S47.451,448,53.333,448h405.333c5.882,0,10.667,4.785,10.667,10.667
			S464.549,469.333,458.667,469.333z"/>
	</g>
</g>
</svg>