<?xml version="1.0" encoding="iso-8859-1"?>
<!-- Uploaded to: SVG Repo, www.svgrepo.com, Generator: SVG Repo Mixer Tools -->
<svg height="800px" width="800px" version="1.1" id="Layer_1" xmlns="http://www.w3.org/2000/svg" xmlns:xlink="http://www.w3.org/1999/xlink" 
	 viewBox="0 0 512.004 512.004" xml:space="preserve">
<g>
	<g>
		<path style="fill:#C7CFE3;" d="M187.737,68.267c-4.71,0-8.533-3.823-8.533-8.533v-51.2c0-4.71,3.823-8.533,8.533-8.533
			c4.71,0,8.533,3.823,8.533,8.533v51.2C196.27,64.444,192.447,68.267,187.737,68.267"/>
		<path style="fill:#C7CFE3;" d="M213.337,34.133h-51.2c-4.71,0-8.533-3.823-8.533-8.533s3.823-8.533,8.533-8.533h51.2
			c4.71,0,8.533,3.823,8.533,8.533S218.047,34.133,213.337,34.133"/>
		<path style="fill:#C7CFE3;" d="M332.803,162.133h-51.2c-4.71,0-8.533-3.823-8.533-8.533s3.823-8.533,8.533-8.533h51.2
			c4.71,0,8.533,3.823,8.533,8.533S337.514,162.133,332.803,162.133"/>
		<path style="fill:#C7CFE3;" d="M281.603,85.333H221.87c-4.71,0-8.533-3.823-8.533-8.533c0-4.71,3.823-8.533,8.533-8.533h59.733
			c4.71,0,8.533,3.823,8.533,8.533C290.137,81.51,286.314,85.333,281.603,85.333"/>
		<path style="fill:#C7CFE3;" d="M153.603,85.333H85.337c-4.71,0-8.533-3.823-8.533-8.533c0-4.71,3.823-8.533,8.533-8.533h68.267
			c4.71,0,8.533,3.823,8.533,8.533C162.137,81.51,158.314,85.333,153.603,85.333"/>
		<path style="fill:#C7CFE3;" d="M281.603,162.133c-4.71,0-8.533-3.823-8.533-8.533V76.8c0-4.71,3.823-8.533,8.533-8.533
			s8.533,3.823,8.533,8.533v76.8C290.137,158.31,286.314,162.133,281.603,162.133"/>
		<path style="fill:#C7CFE3;" d="M85.337,162.133c-4.71,0-8.533-3.823-8.533-8.533V76.8c0-4.71,3.823-8.533,8.533-8.533
			c4.71,0,8.533,3.823,8.533,8.533v76.8C93.87,158.31,90.047,162.133,85.337,162.133"/>
	</g>
	<path style="fill:#5AB4E5;" d="M477.87,307.2c0,61.269-49.664,110.933-110.933,110.933S256.003,368.469,256.003,307.2
		c0-61.269,49.664-110.933,110.933-110.933S477.87,245.931,477.87,307.2"/>
	<path style="fill:#F0785A;" d="M477.87,307.2c0-5.811-0.58-11.477-1.442-17.058l-7.091,0.009
		c-29.491-24.909-76.066-21.001-102.366-0.017l-0.068,0.017c-26.3,20.983-72.875,24.892-102.366-0.017h-7.091
		c-0.862,5.581-1.442,11.247-1.442,17.067c0,61.269,49.664,110.933,110.933,110.933S477.87,368.469,477.87,307.2"/>
	<path style="fill:#5AB4E5;" d="M51.203,187.733V256v145.067c0,18.85,15.283,34.133,34.133,34.133s34.133-15.283,34.133-34.133V256
		v-68.267H51.203z"/>
	<polygon style="fill:#556080;" points="34.137,187.733 136.537,187.733 136.537,153.6 34.137,153.6 	"/>
	<path style="fill:#0E9AA7;" d="M85.337,435.2L85.337,435.2c-18.85,0-34.133-15.283-34.133-34.133V307.2h68.267v93.867
		C119.47,419.917,104.187,435.2,85.337,435.2"/>
	<polygon style="fill:#556080;" points="315.737,93.867 418.137,93.867 418.137,59.733 315.737,59.733 	"/>
	<polygon style="fill:#D69C77;" points="401.07,59.733 332.803,59.733 315.737,17.067 418.137,17.067 	"/>
	<g>
		<path style="fill:#C7CFE3;" d="M145.07,375.467H25.603c-4.71,0-8.533-3.823-8.533-8.533c0-4.71,3.823-8.533,8.533-8.533H145.07
			c4.71,0,8.533,3.823,8.533,8.533C153.603,371.644,149.78,375.467,145.07,375.467"/>
		<path style="fill:#C7CFE3;" d="M486.403,358.4H247.47c-4.71,0-8.533-3.823-8.533-8.533c0-4.71,3.823-8.533,8.533-8.533h238.933
			c4.71,0,8.533,3.823,8.533,8.533C494.937,354.577,491.114,358.4,486.403,358.4"/>
		<path style="fill:#C7CFE3;" d="M8.541,512.004c-0.845,0-1.707-0.128-2.551-0.393c-4.497-1.408-7.006-6.187-5.598-10.692
			l42.667-136.533c1.399-4.506,6.195-6.997,10.692-5.598c4.497,1.408,7.006,6.195,5.598,10.692L16.682,506.014
			C15.538,509.666,12.176,512.004,8.541,512.004"/>
		<path style="fill:#C7CFE3;" d="M230.412,512c-0.614,0-1.237-0.068-1.86-0.205c-4.599-1.024-7.501-5.581-6.477-10.18l34.133-153.6
			c1.024-4.599,5.589-7.492,10.18-6.477c4.599,1.024,7.501,5.581,6.477,10.18l-34.133,153.6C237.853,509.295,234.32,512,230.412,512
			"/>
		<path style="fill:#C7CFE3;" d="M162.132,512.004c-3.635,0-6.997-2.338-8.141-5.99l-42.667-136.533
			c-1.408-4.497,1.101-9.284,5.598-10.692c4.497-1.382,9.284,1.101,10.692,5.598l42.667,136.533
			c1.408,4.506-1.101,9.284-5.598,10.692C163.839,511.876,162.977,512.004,162.132,512.004"/>
	</g>
	<path style="fill:#4096BC;" d="M366.937,196.267c11.921,0,23.373,1.929,34.133,5.41V179.2V93.867h-68.267V179.2v22.477
		C343.564,198.195,355.016,196.267,366.937,196.267"/>
	<polygon style="fill:#556080;" points="153.603,93.867 221.87,93.867 221.87,59.733 153.603,59.733 	"/>
	<path style="fill:#C7CFE3;" d="M503.462,512c-3.908,0-7.441-2.705-8.32-6.682l-34.133-153.6c-1.024-4.599,1.877-9.156,6.477-10.18
		c4.591-1.007,9.156,1.877,10.18,6.477l34.133,153.6c1.024,4.599-1.877,9.156-6.477,10.18C504.699,511.932,504.076,512,503.462,512"
		/>
</g>
</svg>