<?xml version="1.0" encoding="iso-8859-1"?>
<!-- Uploaded to: SVG Repo, www.svgrepo.com, Generator: SVG Repo Mixer Tools -->
<svg height="800px" width="800px" version="1.1" id="Layer_1" xmlns="http://www.w3.org/2000/svg" xmlns:xlink="http://www.w3.org/1999/xlink" 
	 viewBox="0 0 507.768 507.768" xml:space="preserve">
<g transform="translate(1 1)">
	<g>
		<path style="fill:#00DA6C;" d="M354.448,354.021c4.267-4.267,7.68-8.533,10.24-13.653l-42.667-42.667l-23.893,23.893l43.52,43.52
			C345.061,360.848,350.181,357.435,354.448,354.021"/>
		<path style="fill:#00DA6C;" d="M436.368,435.941c4.267-4.267,9.387-6.827,15.36-8.533l-56.32-56.32
			c-3.413,4.267-6.827,8.533-11.093,12.8s-8.533,7.68-12.8,11.093l56.32,56.32C429.541,446.181,432.101,441.061,436.368,435.941"/>
	</g>
	<g>
		<path style="fill:#E4667F;" d="M42.128,71.568v123.733c0,13.653,11.093,25.6,25.6,25.6s25.6-11.947,25.6-25.6v-42.667
			C71.995,121.915,54.928,93.755,42.128,71.568"/>
		<path style="fill:#E4667F;" d="M144.528,224.315v124.587c0,13.653,11.947,25.6,25.6,25.6s25.6-11.947,25.6-25.6v-62.293
			C176.955,265.275,159.888,243.941,144.528,224.315"/>
	</g>
	<path style="fill:#FFE100;" d="M7.995,7.568c0,0,83.627,180.053,253.44,349.867l96.427-96.427
		C188.048,91.195,7.995,7.568,7.995,7.568"/>
	<path style="fill:#FFFFFF;" d="M31.035,18.661C16.528,10.981,7.995,7.568,7.995,7.568s83.627,180.053,253.44,349.867l8.533-8.533
		C130.875,206.395,51.515,60.475,31.035,18.661"/>
	<g>
		<path style="fill:#FFE100;" d="M384.315,383.888L384.315,383.888c17.92-17.92,29.867-40.96,34.133-65.707
			c2.56-13.653-7.68-26.453-22.187-26.453l0,0c-10.24,0-18.773,7.68-20.48,17.067c-2.56,16.213-10.24,31.573-22.187,43.52
			c-12.8,12.8-29.013,20.48-46.08,23.893c-10.24,1.707-17.067,10.24-17.067,20.48l0,0c0,13.653,11.947,23.893,24.747,21.333
			C341.648,415.461,365.541,402.661,384.315,383.888"/>
		<path style="fill:#FFE100;" d="M436.368,487.141c14.507,14.507,36.693,14.507,51.2,0c14.507-14.507,14.507-36.693,0-51.2
			c-14.507-14.507-36.693-14.507-51.2,0C422.715,450.448,422.715,473.488,436.368,487.141"/>
	</g>
	<path style="fill:#FFA800;" d="M487.568,435.941c-9.387-9.387-23.893-12.8-35.84-8.533c5.12,1.707,10.24,4.267,15.36,8.533
		c14.507,14.507,14.507,36.693,0,51.2c-4.267,4.267-9.387,6.827-15.36,8.533c12.8,3.413,26.453,0.853,35.84-8.533
		C502.075,473.488,502.075,450.448,487.568,435.941"/>
	<path d="M261.435,365.968c-2.56,0-4.267-0.853-5.973-2.56C86.501,194.448,1.168,12.688,0.315,10.981
		c-1.707-3.413-0.853-6.827,1.707-9.387s5.973-3.413,9.387-1.707c1.707,0.853,183.467,86.187,352.427,255.147
		c3.413,3.413,3.413,8.533,0,11.947l-96.427,96.427C265.701,365.115,263.995,365.968,261.435,365.968z M27.621,27.195
		c28.16,52.907,105.813,188.587,233.813,318.293l84.48-84.48C216.208,133.008,80.528,54.501,27.621,27.195z"/>
	<path d="M312.635,429.115c-6.827,0-13.653-2.56-18.773-6.827c-6.827-5.973-11.093-14.507-11.093-23.893
		c0-14.507,10.24-26.453,23.893-29.013c15.36-2.56,29.867-10.24,40.96-21.333c10.24-10.24,17.067-23.893,19.627-39.253
		c2.56-13.653,14.507-23.893,28.16-24.747c9.387-0.853,17.92,3.413,23.893,10.24c5.973,6.827,8.533,16.213,6.827,25.6
		c-5.12,26.453-17.92,50.347-36.693,69.12l0,0l0,0c-19.627,19.627-45.227,33.28-72.533,38.4
		C316.048,429.115,314.341,429.115,312.635,429.115z M397.115,301.115L397.115,301.115c-6.827,0-11.947,4.267-12.8,10.24
		c-3.413,18.773-11.947,34.987-24.747,48.64c-13.653,13.653-31.573,23.04-50.347,26.453c-5.973,0.853-10.24,5.973-10.24,12.8
		c0,4.267,1.707,7.68,5.12,10.24c2.56,2.56,6.827,3.413,10.24,2.56c23.893-4.267,46.08-16.213,64-34.133l0,0
		c16.213-17.067,27.307-37.547,31.573-60.587c0.853-4.267,0-8.533-2.56-11.093C404.795,302.821,401.381,301.115,397.115,301.115z"/>
	<path d="M461.968,506.768c-11.947,0-23.04-4.267-31.573-12.8l0,0c-17.067-17.067-17.067-46.08,0-63.147
		c8.533-8.533,19.627-12.8,31.573-12.8s23.04,4.267,31.573,12.8c17.067,17.067,17.067,46.08,0,63.147
		C485.861,501.648,473.915,506.768,461.968,506.768z M442.341,481.168c10.24,10.24,29.013,10.24,39.253,0
		c11.093-11.093,11.093-28.16,0-39.253c-10.24-10.24-29.013-10.24-39.253,0C432.101,453.008,432.101,470.928,442.341,481.168
		L442.341,481.168z"/>
	<path d="M339.088,375.355l-53.76-53.76l35.84-35.84l53.76,53.76l-3.413,5.973c-4.267,5.973-7.68,11.093-11.947,15.36l0,0
		c-4.267,4.267-8.533,7.68-14.507,11.947L339.088,375.355z M309.221,321.595l32.427,32.427c2.56-1.707,4.267-3.413,6.827-5.973
		c1.707-1.707,3.413-4.267,5.12-6.827l-31.573-31.573L309.221,321.595z"/>
	<path d="M427.835,459.835c-2.56,0-4.267-0.853-5.973-2.56l-56.32-56.32c-1.707-1.707-2.56-4.267-2.56-6.827s1.707-5.12,3.413-5.973
		c4.267-3.413,8.533-6.827,11.947-10.24c3.413-3.413,6.827-7.68,10.24-11.947c1.707-1.707,3.413-3.413,5.973-3.413
		s5.12,0.853,6.827,2.56l56.32,56.32c1.707,1.707,2.56,5.12,2.56,8.533c-0.853,2.56-2.56,5.12-5.973,5.973
		c-4.267,1.707-8.533,3.413-11.947,6.827c-3.413,3.413-5.12,6.827-6.827,11.947c-0.853,2.56-3.413,5.12-5.973,5.973
		C429.541,459.835,428.688,459.835,427.835,459.835z M384.315,395.835l40.96,40.96c1.707-2.56,3.413-4.267,5.12-6.827l0,0
		c1.707-1.707,4.267-3.413,6.827-5.12l-40.96-40.96c-1.707,2.56-3.413,4.267-5.973,5.973
		C388.581,391.568,386.021,394.128,384.315,395.835z"/>
	<path d="M67.728,229.435c-18.773,0-34.133-15.36-34.133-34.133V39.995l16.213,27.307c15.36,26.453,32.427,53.76,51.2,81.067
		l1.707,2.56v44.373C101.861,214.075,86.501,229.435,67.728,229.435z M50.661,102.288v93.013c0,9.387,7.68,17.067,17.067,17.067
		s17.067-7.68,17.067-17.067v-40.107C72.848,138.128,61.755,120.208,50.661,102.288z"/>
	<path d="M246.928,255.035c-2.56,0-4.267-0.853-5.973-2.56l-102.4-102.4c-3.413-3.413-3.413-8.533,0-11.947s8.533-3.413,11.947,0
		l102.4,102.4c3.413,3.413,3.413,8.533,0,11.947C251.195,254.181,249.488,255.035,246.928,255.035z"/>
	<path d="M170.128,383.035c-18.773,0-34.133-15.36-34.133-34.133V198.715l15.36,19.627c16.213,21.333,33.28,42.667,51.2,62.293
		l1.707,2.56v65.707C204.261,367.675,188.901,383.035,170.128,383.035z M153.061,249.061v99.84c0,9.387,7.68,17.067,17.067,17.067
		s17.067-7.68,17.067-17.067v-58.88C175.248,276.368,164.155,262.715,153.061,249.061z"/>
</g>
</svg>