<?xml version="1.0" encoding="iso-8859-1"?>
<!-- Uploaded to: SVG Repo, www.svgrepo.com, Generator: SVG Repo Mixer Tools -->
<svg fill="#000000" height="800px" width="800px" version="1.1" id="Layer_1" xmlns="http://www.w3.org/2000/svg" xmlns:xlink="http://www.w3.org/1999/xlink" 
	 viewBox="0 0 509.188 509.188" xml:space="preserve">
<g transform="translate(1 1)">
	<g>
		<g>
			<path d="M496.247,427.049l-87.809-95.297l-12.855-14.045l-0.045,0.045l-48.466-52.598l26.816-48.111
				c20.827-37.315,26.034-68.556,15.62-95.458c-13.885-34.712-50.332-45.993-52.068-46.861c-3.471-0.868-7.81,0-8.678,2.603
				c-1.736,3.471-1.736,6.942,0,10.414c19.959,29.505-7.81,51.2-11.281,53.803l-0.868,0.868c-4.339,4.339-9.546,6.075-13.885,6.075
				c-8.678-0.868-16.488-8.678-19.092-12.149l-0.868-0.868c-9.546-8.678-6.075-29.505-4.339-37.315v-0.868
				c3.471-28.637-2.603-49.464-17.356-64.217c-24.298-23.43-64.217-17.356-65.953-17.356c-3.471,0.868-6.075,2.603-6.942,6.075
				c-1.736,2.603-0.868,6.075,1.736,8.678c8.678,8.678,13.017,16.488,13.017,23.431c-0.868,6.075-5.207,9.546-5.207,9.546
				l-0.868,0.868c-10.414,9.546-16.488,6.942-19.092,6.075c-5.207-1.736-7.81-6.075-9.546-9.546
				c-4.339-8.678-10.414-18.224-18.224-27.77C133.508,13.11,108.342,2.697,84.044,6.168c-37.315,5.207-58.142,32.108-59.01,32.976
				c-1.736,1.736-2.603,5.207-1.736,7.81s3.471,4.339,6.075,5.207c18.224,5.207,32.976,11.281,42.522,19.091
				c10.414,6.942,10.414,19.092,7.81,26.902c-2.603,8.678-10.414,17.356-23.43,16.488c-15.62-0.868-28.637-6.075-28.637-6.075
				c-2.603-0.868-5.207-0.868-7.81,0.868c-1.736,1.736-3.471,4.339-3.471,6.942c0,8.678,0,16.488,0.868,23.431
				c3.471,43.39,25.166,95.458,72.895,98.061c15.62,0.868,26.902,6.942,32.108,12.149c13.885,13.017,19.959,25.166,17.356,35.58
				c-3.471,16.488-27.769,28.637-37.315,31.241c-2.603,0.868-4.339,2.603-5.207,4.339c-1.736,2.603-1.736,4.339-0.868,6.942
				c0.868,0.868,16.488,47.729,77.234,47.729c5.207,0,9.546,0,13.017,0.868c16.488-1.736,32.976-6.942,50.332-15.62l34.708-19.721
				l52.365,48.064l-0.294,0.294l51.2,46.861l0.225-0.225l57.918,53.16c8.678,7.81,19.092,12.149,30.373,12.149
				c11.281,0,22.563-4.339,32.108-12.149C511.868,472.175,512.736,444.405,496.247,427.049z M348.722,388.866l45.758-45.758
				l23.214,25.382l-43.806,43.806L348.722,388.866z M229.834,182.331c11.281,0,21.695,4.339,29.505,13.017l6.468,7.072
				l-78.47,21.401c0.256-10.934,4.553-21.769,12.124-29.341C208.139,186.67,218.553,182.331,229.834,182.331z M201.197,253.49
				c-4.339-4.339-6.942-8.678-9.546-13.885l86.745-23.421l22.298,24.38l-85.612,25.943L201.197,253.49z M229.834,344.609
				c-14.753,7.81-29.505,12.149-43.39,13.885c-43.39,4.339-62.481-16.488-69.424-27.77c13.017-6.075,35.58-19.091,39.919-39.919
				c3.471-16.488-3.471-33.844-22.563-52.068c-10.414-9.546-26.034-15.62-43.39-16.488c-33.844-2.603-52.936-43.39-56.407-82.441
				c-0.868-3.471-0.868-7.81-0.868-11.281c6.075,1.736,13.885,3.471,22.563,3.471c18.224,0.868,34.712-10.414,40.786-27.769
				c6.075-17.356,0.868-35.58-13.885-46.861c-8.678-6.942-20.827-12.149-34.712-17.356c7.81-6.075,20.827-14.753,37.315-16.488
				c19.091-2.603,38.183,5.207,50.332,19.959c6.942,7.81,13.017,16.488,16.488,24.298c4.339,9.546,11.281,15.62,18.224,20.827
				c6.942,2.603,20.827,5.207,36.448-9.546c2.603-2.603,10.414-9.546,11.281-21.695c0.868-7.81-0.868-15.62-6.075-23.431
				c10.414,0.868,25.166,3.471,34.712,13.017c10.414,9.546,14.753,26.034,12.149,48.597c-1.736,6.075-7.81,36.447,8.678,53.803
				c2.603,3.471,14.753,17.356,31.241,18.224c6.942,0,16.488-1.736,26.902-11.281c12.149-8.678,28.637-28.637,24.298-53.803
				c7.81,6.075,16.488,14.753,21.695,26.902c8.678,20.827,3.471,47.729-14.753,79.837l-23.148,42.008l-1.756-1.905l0.605-0.184
				l-47.729-52.068l-0.817,0.223l-12.2-13.24c-10.414-12.149-25.166-19.092-41.654-19.092c-15.62,0-31.241,6.075-42.522,17.356
				c-11.281,11.281-17.356,26.034-17.356,42.522c0.063,1.137,0.162,2.268,0.281,3.395l-0.281,0.077l0.717,3.227
				c1.605,10.29,5.607,20.019,12.289,28.397c1.852,2.372,3.884,4.578,6.086,6.559l20.827,19.959l0.598-0.182l46.263,42.704
				L229.834,344.609z M277.223,325.21c-0.174-0.195-0.351-0.384-0.528-0.561l-47.573-43.788l84.78-25.855l68.97,75.411
				l-47.955,47.955L277.223,325.21z M481.495,477.382c-10.414,10.414-26.902,11.281-38.183,0.868l-57.358-52.852l43.762-43.762
				l52.647,57.563C491.909,450.48,491.909,466.968,481.495,477.382z"/>
			<path d="M473.685,89.476l26.034-26.034V51.293L473.685,25.26h-12.149l-26.034,26.034v12.149l26.034,26.034H473.685z
				 M467.61,43.483l13.885,13.885L467.61,71.253l-13.885-13.885L467.61,43.483z"/>
			<path d="M77.102,395.809c-14.753,0-26.034-11.281-26.034-26.034c0-5.207-3.471-8.678-8.678-8.678s-8.678,3.471-8.678,8.678
				c0,14.753-11.281,26.034-26.034,26.034c-5.207,0-8.678,3.471-8.678,8.678c0,5.207,3.471,8.678,8.678,8.678
				c14.753,0,26.034,11.281,26.034,26.034c0,5.207,3.471,8.678,8.678,8.678s8.678-3.471,8.678-8.678
				c0-14.753,11.281-26.034,26.034-26.034c5.207,0,8.678-3.471,8.678-8.678C85.78,399.28,82.308,395.809,77.102,395.809z
				 M42.39,413.165c-2.603-3.471-5.207-6.075-8.678-8.678c3.471-2.603,6.075-5.207,8.678-8.678c2.603,3.471,5.207,6.075,8.678,8.678
				C47.597,407.09,44.993,409.693,42.39,413.165z"/>
			<path d="M276.695,456.554h-8.678v-8.678c0-5.207-3.471-8.678-8.678-8.678s-8.678,3.471-8.678,8.678v8.678h-8.678
				c-5.207,0-8.678,3.471-8.678,8.678c0,5.207,3.471,8.678,8.678,8.678h8.678v8.678c0,5.207,3.471,8.678,8.678,8.678
				s8.678-3.471,8.678-8.678v-8.678h8.678c5.207,0,8.678-3.471,8.678-8.678C285.373,460.026,281.902,456.554,276.695,456.554z"/>
			<path d="M415.542,265.639c5.207,0,8.678-3.471,8.678-8.678s-3.471-8.678-8.678-8.678c-5.207,0-8.678,3.471-8.678,8.678
				S410.336,265.639,415.542,265.639z"/>
			<path d="M77.102,282.995c0-5.207-3.471-8.678-8.678-8.678c-5.207,0-8.678,3.471-8.678,8.678c0,5.207,3.471,8.678,8.678,8.678
				C73.63,291.673,77.102,288.202,77.102,282.995z"/>
		</g>
	</g>
</g>
</svg>