<?xml version="1.0" encoding="iso-8859-1"?>
<!-- Uploaded to: SVG Repo, www.svgrepo.com, Generator: SVG Repo Mixer Tools -->
<svg fill="#000000" height="800px" width="800px" version="1.1" id="Layer_1" xmlns="http://www.w3.org/2000/svg" xmlns:xlink="http://www.w3.org/1999/xlink" 
	 viewBox="0 0 512 512" xml:space="preserve">
<g>
	<g>
		<path d="M419.2,154.475l-141.867-121.6V21.333C277.333,9.557,267.797,0,256,0c-11.797,0-21.333,9.557-21.333,21.333v11.541
			L92.8,154.475c-6.805,5.803-9.237,15.232-6.123,23.595C89.749,186.432,97.728,192,106.667,192h42.667v192
			c-9.792,0-18.304,6.677-20.693,16.149l-21.333,85.333c-1.6,6.379-0.171,13.141,3.883,18.304C115.221,508.971,121.429,512,128,512
			h256c6.571,0,12.779-3.029,16.811-8.213c4.053-5.163,5.483-11.925,3.883-18.304l-21.333-85.333
			C380.971,390.677,372.459,384,362.667,384V192h42.667c8.939,0,16.917-5.568,19.989-13.931
			C428.437,169.707,426.005,160.277,419.2,154.475z M256,70.763l91.669,78.571h-6.336H170.667h-6.336L256,70.763z M256,277.333
			c-11.797,0-21.333-9.557-21.333-21.333v-21.333c0-11.776,9.536-21.333,21.333-21.333c11.797,0,21.333,9.557,21.333,21.333V256
			C277.333,267.776,267.797,277.333,256,277.333z M277.333,320v21.333c0,11.776-9.536,21.333-21.333,21.333
			c-11.797,0-21.333-9.557-21.333-21.333V320c0-11.776,9.536-21.333,21.333-21.333C267.797,298.667,277.333,308.224,277.333,320z
			 M155.328,469.333l10.667-42.667h4.672h170.667h4.672l10.667,42.667H155.328z"/>
	</g>
</g>
</svg>