<?xml version="1.0" encoding="iso-8859-1"?>
<!-- Uploaded to: SVG Repo, www.svgrepo.com, Generator: SVG Repo Mixer Tools -->
<svg height="800px" width="800px" version="1.1" id="Layer_1" xmlns="http://www.w3.org/2000/svg" xmlns:xlink="http://www.w3.org/1999/xlink" 
	 viewBox="0 0 512.154 512.154" xml:space="preserve">
<g transform="translate(1 1)">
	<g>
		<polygon style="fill:#FFE100;" points="33.21,502.544 476.944,502.544 476.944,340.41 33.21,340.41 		"/>
		<polygon style="fill:#FFE100;" points="476.944,340.41 33.21,340.41 7.61,272.144 502.544,272.144 		"/>
	</g>
	<g>
		<polygon style="fill:#FFA800;" points="451.344,502.544 476.944,502.544 476.944,340.41 451.344,340.41 		"/>
		<polygon style="fill:#FFA800;" points="476.944,272.144 451.344,340.41 476.944,340.41 502.544,272.144 		"/>
	</g>
	<g>
		<polygon style="fill:#FFE100;" points="178.277,101.477 24.677,101.477 7.61,50.277 195.344,50.277 		"/>
		<polygon style="fill:#FFE100;" points="24.677,101.477 24.677,229.477 41.744,229.477 41.744,272.144 161.21,272.144 
			161.21,229.477 178.277,229.477 178.277,101.477 		"/>
		<polygon style="fill:#FFE100;" points="485.477,101.477 331.877,101.477 314.81,50.277 502.544,50.277 		"/>
		<polygon style="fill:#FFE100;" points="331.877,101.477 331.877,229.477 348.944,229.477 348.944,272.144 468.41,272.144 
			468.41,229.477 485.477,229.477 485.477,101.477 		"/>
	</g>
	<g>
		<polygon style="fill:#FFA800;" points="485.477,50.277 468.41,101.477 485.477,101.477 502.544,50.277 		"/>
		<polygon style="fill:#FFA800;" points="468.41,229.477 485.477,229.477 485.477,101.477 468.41,101.477 		"/>
	</g>
	<g>
		<path style="fill:#63D3FD;" d="M118.544,195.344H84.41v-42.667c0-9.387,7.68-17.067,17.067-17.067s17.067,7.68,17.067,17.067
			V195.344z"/>
		<path style="fill:#63D3FD;" d="M425.744,195.344H391.61v-42.667c0-9.387,7.68-17.067,17.067-17.067s17.067,7.68,17.067,17.067
			V195.344z"/>
	</g>
	<g>
		<path style="fill:#00DA6C;" d="M306.277,502.544h-102.4v-68.267c0-28.16,23.04-51.2,51.2-51.2c28.16,0,51.2,23.04,51.2,51.2
			V502.544z"/>
		<path style="fill:#00DA6C;" d="M272.144,502.544H238.01v-68.267c0-9.387,7.68-17.067,17.067-17.067
			c9.387,0,17.067,7.68,17.067,17.067V502.544z"/>
	</g>
	<g>
		<polygon style="fill:#FDCC00;" points="314.81,272.144 348.944,272.144 348.944,229.477 314.81,229.477 		"/>
		<polygon style="fill:#FDCC00;" points="391.61,272.144 425.744,272.144 425.744,229.477 391.61,229.477 		"/>
	</g>
	<polygon style="fill:#FFA800;" points="468.41,272.144 502.544,272.144 502.544,229.477 468.41,229.477 	"/>
	<g>
		<polygon style="fill:#FFFFFF;" points="33.21,502.544 58.81,502.544 58.81,340.41 33.21,340.41 		"/>
		<polygon style="fill:#FFFFFF;" points="33.21,272.144 58.81,340.41 33.21,340.41 7.61,272.144 		"/>
		<polygon style="fill:#FFFFFF;" points="24.677,50.277 41.744,101.477 24.677,101.477 7.61,50.277 		"/>
		<polygon style="fill:#FFFFFF;" points="24.677,229.477 41.744,229.477 41.744,101.477 24.677,101.477 		"/>
		<polygon style="fill:#FFFFFF;" points="7.61,272.144 41.744,272.144 41.744,229.477 7.61,229.477 		"/>
	</g>
	<g>
		<polygon style="fill:#FDCC00;" points="7.61,272.144 41.744,272.144 41.744,229.477 7.61,229.477 		"/>
		<polygon style="fill:#FDCC00;" points="84.41,272.144 118.544,272.144 118.544,229.477 84.41,229.477 		"/>
		<polygon style="fill:#FDCC00;" points="161.21,272.144 195.344,272.144 195.344,229.477 161.21,229.477 		"/>
		<polygon style="fill:#FDCC00;" points="238.01,272.144 272.144,272.144 272.144,229.477 238.01,229.477 		"/>
		<polygon style="fill:#FDCC00;" points="7.61,50.277 41.744,50.277 41.744,7.61 7.61,7.61 		"/>
		<polygon style="fill:#FDCC00;" points="84.41,50.277 118.544,50.277 118.544,7.61 84.41,7.61 		"/>
		<polygon style="fill:#FDCC00;" points="161.21,50.277 195.344,50.277 195.344,7.61 161.21,7.61 		"/>
		<polygon style="fill:#FDCC00;" points="314.81,50.277 348.944,50.277 348.944,7.61 314.81,7.61 		"/>
		<polygon style="fill:#FDCC00;" points="391.61,50.277 425.744,50.277 425.744,7.61 391.61,7.61 		"/>
		<polygon style="fill:#FDCC00;" points="468.41,50.277 502.544,50.277 502.544,7.61 468.41,7.61 		"/>
	</g>
	<path d="M476.944,511.077H33.21c-5.12,0-8.533-3.413-8.533-8.533V340.41c0-5.12,3.413-8.533,8.533-8.533h443.733
		c5.12,0,8.533,3.413,8.533,8.533v162.133C485.477,507.664,482.064,511.077,476.944,511.077z M41.744,494.01H468.41V348.944H41.744
		V494.01z"/>
	<path d="M476.944,348.944H33.21c-3.413,0-6.827-2.56-7.68-5.12l-25.6-68.267c-1.707-3.413-0.853-5.973,0.853-8.533
		c1.707-1.707,4.267-3.413,6.827-3.413h494.933c2.56,0,5.12,1.707,6.827,3.413c1.707,2.56,1.707,5.12,0.853,7.68l-25.6,68.267
		C483.77,346.384,480.357,348.944,476.944,348.944z M39.184,331.877H470.97l18.773-51.2H19.557L39.184,331.877z"/>
	<path d="M348.944,280.677H314.81c-5.12,0-8.533-3.413-8.533-8.533v-42.667c0-5.12,3.413-8.533,8.533-8.533h34.133
		c5.12,0,8.533,3.413,8.533,8.533v42.667C357.477,277.264,354.064,280.677,348.944,280.677z M323.344,263.61h17.067v-25.6h-17.067
		V263.61z"/>
	<path d="M425.744,280.677H391.61c-5.12,0-8.533-3.413-8.533-8.533v-42.667c0-5.12,3.413-8.533,8.533-8.533h34.133
		c5.12,0,8.533,3.413,8.533,8.533v42.667C434.277,277.264,430.864,280.677,425.744,280.677z M400.144,263.61h17.067v-25.6h-17.067
		V263.61z"/>
	<path d="M502.544,280.677H468.41c-5.12,0-8.533-3.413-8.533-8.533v-42.667c0-5.12,3.413-8.533,8.533-8.533h34.133
		c5.12,0,8.533,3.413,8.533,8.533v42.667C511.077,277.264,507.664,280.677,502.544,280.677z M476.944,263.61h17.067v-25.6h-17.067
		V263.61z"/>
	<path d="M41.744,280.677H7.61c-5.12,0-8.533-3.413-8.533-8.533v-42.667c0-5.12,3.413-8.533,8.533-8.533h34.133
		c5.12,0,8.533,3.413,8.533,8.533v42.667C50.277,277.264,46.864,280.677,41.744,280.677z M16.144,263.61H33.21v-25.6H16.144V263.61z
		"/>
	<path d="M118.544,280.677H84.41c-5.12,0-8.533-3.413-8.533-8.533v-42.667c0-5.12,3.413-8.533,8.533-8.533h34.133
		c5.12,0,8.533,3.413,8.533,8.533v42.667C127.077,277.264,123.664,280.677,118.544,280.677z M92.944,263.61h17.067v-25.6H92.944
		V263.61z"/>
	<path d="M195.344,280.677H161.21c-5.12,0-8.533-3.413-8.533-8.533v-42.667c0-5.12,3.413-8.533,8.533-8.533h34.133
		c5.12,0,8.533,3.413,8.533,8.533v42.667C203.877,277.264,200.464,280.677,195.344,280.677z M169.744,263.61h17.067v-25.6h-17.067
		V263.61z"/>
	<path d="M272.144,280.677H238.01c-5.12,0-8.533-3.413-8.533-8.533v-42.667c0-5.12,3.413-8.533,8.533-8.533h34.133
		c5.12,0,8.533,3.413,8.533,8.533v42.667C280.677,277.264,277.264,280.677,272.144,280.677z M246.544,263.61h17.067v-25.6h-17.067
		V263.61z"/>
	<path d="M41.744,58.81H7.61c-5.12,0-8.533-3.413-8.533-8.533V7.61c0-5.12,3.413-8.533,8.533-8.533h34.133
		c5.12,0,8.533,3.413,8.533,8.533v42.667C50.277,55.397,46.864,58.81,41.744,58.81z M16.144,41.744H33.21v-25.6H16.144V41.744z"/>
	<path d="M118.544,58.81H84.41c-5.12,0-8.533-3.413-8.533-8.533V7.61c0-5.12,3.413-8.533,8.533-8.533h34.133
		c5.12,0,8.533,3.413,8.533,8.533v42.667C127.077,55.397,123.664,58.81,118.544,58.81z M92.944,41.744h17.067v-25.6H92.944V41.744z"
		/>
	<path d="M195.344,58.81H161.21c-5.12,0-8.533-3.413-8.533-8.533V7.61c0-5.12,3.413-8.533,8.533-8.533h34.133
		c5.12,0,8.533,3.413,8.533,8.533v42.667C203.877,55.397,200.464,58.81,195.344,58.81z M169.744,41.744h17.067v-25.6h-17.067V41.744
		z"/>
	<path d="M220.944,314.81h-68.267c-5.12,0-8.533-3.413-8.533-8.533c0-5.12,3.413-8.533,8.533-8.533h68.267
		c5.12,0,8.533,3.413,8.533,8.533C229.477,311.397,226.064,314.81,220.944,314.81z"/>
	<path d="M357.477,314.81H289.21c-5.12,0-8.533-3.413-8.533-8.533c0-5.12,3.413-8.533,8.533-8.533h68.267
		c5.12,0,8.533,3.413,8.533,8.533C366.01,311.397,362.597,314.81,357.477,314.81z"/>
	<path d="M263.61,306.277c0,5.12-3.413,8.533-8.533,8.533c-5.12,0-8.533-3.413-8.533-8.533c0-5.12,3.413-8.533,8.533-8.533
		C260.197,297.744,263.61,301.157,263.61,306.277"/>
	<path d="M442.81,314.81h-17.067c-5.12,0-8.533-3.413-8.533-8.533c0-5.12,3.413-8.533,8.533-8.533h17.067
		c5.12,0,8.533,3.413,8.533,8.533C451.344,311.397,447.93,314.81,442.81,314.81z"/>
	<path d="M400.144,306.277c0,5.12-3.413,8.533-8.533,8.533c-5.12,0-8.533-3.413-8.533-8.533c0-5.12,3.413-8.533,8.533-8.533
		C396.73,297.744,400.144,301.157,400.144,306.277"/>
	<path d="M84.41,391.61H67.344c-5.12,0-8.533-3.413-8.533-8.533s3.413-8.533,8.533-8.533H84.41c5.12,0,8.533,3.413,8.533,8.533
		S89.53,391.61,84.41,391.61z"/>
	<path d="M161.21,391.61h-8.533c-5.12,0-8.533-3.413-8.533-8.533s3.413-8.533,8.533-8.533h8.533c5.12,0,8.533,3.413,8.533,8.533
		S166.33,391.61,161.21,391.61z"/>
	<path d="M127.077,383.077c0,5.12-3.413,8.533-8.533,8.533s-8.533-3.413-8.533-8.533s3.413-8.533,8.533-8.533
		S127.077,377.957,127.077,383.077"/>
	<path d="M118.544,468.41h-51.2c-5.12,0-8.533-3.413-8.533-8.533c0-5.12,3.413-8.533,8.533-8.533h51.2
		c5.12,0,8.533,3.413,8.533,8.533C127.077,464.997,123.664,468.41,118.544,468.41z"/>
	<path d="M161.21,468.41h-8.533c-5.12,0-8.533-3.413-8.533-8.533c0-5.12,3.413-8.533,8.533-8.533h8.533
		c5.12,0,8.533,3.413,8.533,8.533C169.744,464.997,166.33,468.41,161.21,468.41z"/>
	<path d="M442.81,391.61h-51.2c-5.12,0-8.533-3.413-8.533-8.533s3.413-8.533,8.533-8.533h51.2c5.12,0,8.533,3.413,8.533,8.533
		S447.93,391.61,442.81,391.61z"/>
	<path d="M357.477,391.61h-8.533c-5.12,0-8.533-3.413-8.533-8.533s3.413-8.533,8.533-8.533h8.533c5.12,0,8.533,3.413,8.533,8.533
		S362.597,391.61,357.477,391.61z"/>
	<path d="M357.477,468.41h-8.533c-5.12,0-8.533-3.413-8.533-8.533c0-5.12,3.413-8.533,8.533-8.533h8.533
		c5.12,0,8.533,3.413,8.533,8.533C366.01,464.997,362.597,468.41,357.477,468.41z"/>
	<path d="M442.81,468.41h-17.067c-5.12,0-8.533-3.413-8.533-8.533c0-5.12,3.413-8.533,8.533-8.533h17.067
		c5.12,0,8.533,3.413,8.533,8.533C451.344,464.997,447.93,468.41,442.81,468.41z"/>
	<path d="M400.144,459.877c0,5.12-3.413,8.533-8.533,8.533c-5.12,0-8.533-3.413-8.533-8.533c0-5.12,3.413-8.533,8.533-8.533
		C396.73,451.344,400.144,454.757,400.144,459.877"/>
	<path d="M84.41,314.81H67.344c-5.12,0-8.533-3.413-8.533-8.533c0-5.12,3.413-8.533,8.533-8.533H84.41
		c5.12,0,8.533,3.413,8.533,8.533C92.944,311.397,89.53,314.81,84.41,314.81z"/>
	<path d="M110.01,306.277c0-5.12,3.413-8.533,8.533-8.533s8.533,3.413,8.533,8.533c0,5.12-3.413,8.533-8.533,8.533
		S110.01,311.397,110.01,306.277"/>
	<path d="M178.277,110.01h-153.6c-3.413,0-6.827-2.56-7.68-5.973l-17.067-51.2c-1.707-2.56-0.853-5.12,0.853-7.68
		C2.49,43.45,5.05,41.744,7.61,41.744h187.733c2.56,0,5.12,1.707,6.827,3.413c1.707,2.56,2.56,5.12,0.853,7.68l-17.067,51.2
		C185.104,107.45,181.69,110.01,178.277,110.01z M30.65,92.944h141.653l11.093-34.133H19.557L30.65,92.944z"/>
	<path d="M161.21,280.677H41.744c-5.12,0-8.533-3.413-8.533-8.533V238.01h-8.533c-5.12,0-8.533-3.413-8.533-8.533v-128
		c0-5.12,3.413-8.533,8.533-8.533h153.6c5.12,0,8.533,3.413,8.533,8.533v128c0,5.12-3.413,8.533-8.533,8.533h-8.533v34.133
		C169.744,277.264,166.33,280.677,161.21,280.677z M50.277,263.61h102.4v-34.133c0-5.12,3.413-8.533,8.533-8.533h8.533V110.01H33.21
		v110.933h8.533c5.12,0,8.533,3.413,8.533,8.533V263.61z"/>
	<path d="M348.944,58.81H314.81c-5.12,0-8.533-3.413-8.533-8.533V7.61c0-5.12,3.413-8.533,8.533-8.533h34.133
		c5.12,0,8.533,3.413,8.533,8.533v42.667C357.477,55.397,354.064,58.81,348.944,58.81z M323.344,41.744h17.067v-25.6h-17.067V41.744
		z"/>
	<path d="M425.744,58.81H391.61c-5.12,0-8.533-3.413-8.533-8.533V7.61c0-5.12,3.413-8.533,8.533-8.533h34.133
		c5.12,0,8.533,3.413,8.533,8.533v42.667C434.277,55.397,430.864,58.81,425.744,58.81z M400.144,41.744h17.067v-25.6h-17.067V41.744
		z"/>
	<path d="M502.544,58.81H468.41c-5.12,0-8.533-3.413-8.533-8.533V7.61c0-5.12,3.413-8.533,8.533-8.533h34.133
		c5.12,0,8.533,3.413,8.533,8.533v42.667C511.077,55.397,507.664,58.81,502.544,58.81z M476.944,41.744h17.067v-25.6h-17.067V41.744
		z"/>
	<path d="M485.477,110.01h-153.6c-3.413,0-6.827-2.56-7.68-5.973l-17.067-51.2c-1.707-2.56-0.853-5.12,0.853-7.68
		c1.707-1.707,4.267-3.413,6.827-3.413h187.733c2.56,0,5.12,1.707,6.827,3.413c1.707,2.56,2.56,5.12,0.853,7.68l-17.067,51.2
		C492.304,107.45,488.89,110.01,485.477,110.01z M337.85,92.944h141.653l11.093-34.133h-163.84L337.85,92.944z"/>
	<path d="M468.41,280.677H348.944c-5.12,0-8.533-3.413-8.533-8.533V238.01h-8.533c-5.12,0-8.533-3.413-8.533-8.533v-128
		c0-5.12,3.413-8.533,8.533-8.533h153.6c5.12,0,8.533,3.413,8.533,8.533v128c0,5.12-3.413,8.533-8.533,8.533h-8.533v34.133
		C476.944,277.264,473.53,280.677,468.41,280.677z M357.477,263.61h102.4v-34.133c0-5.12,3.413-8.533,8.533-8.533h8.533V110.01
		H340.41v110.933h8.533c5.12,0,8.533,3.413,8.533,8.533V263.61z"/>
	<path d="M306.277,511.077h-102.4c-5.12,0-8.533-3.413-8.533-8.533v-68.267c0-33.28,26.453-59.733,59.733-59.733
		s59.733,26.453,59.733,59.733v68.267C314.81,507.664,311.397,511.077,306.277,511.077z M212.41,494.01h85.333v-59.733
		c0-23.893-18.773-42.667-42.667-42.667c-23.893,0-42.667,18.773-42.667,42.667V494.01z"/>
	<path d="M272.144,511.077H238.01c-5.12,0-8.533-3.413-8.533-8.533v-68.267c0-14.507,11.093-25.6,25.6-25.6
		c14.507,0,25.6,11.093,25.6,25.6v68.267C280.677,507.664,277.264,511.077,272.144,511.077z M246.544,494.01h17.067v-59.733
		c0-5.12-3.413-8.533-8.533-8.533c-5.12,0-8.533,3.413-8.533,8.533V494.01z"/>
	<path d="M118.544,203.877H84.41c-5.12,0-8.533-3.413-8.533-8.533v-42.667c0-14.507,11.093-25.6,25.6-25.6s25.6,11.093,25.6,25.6
		v42.667C127.077,200.464,123.664,203.877,118.544,203.877z M92.944,186.81h17.067v-34.133c0-5.12-3.413-8.533-8.533-8.533
		s-8.533,3.413-8.533,8.533V186.81z"/>
	<path d="M425.744,203.877H391.61c-5.12,0-8.533-3.413-8.533-8.533v-42.667c0-14.507,11.093-25.6,25.6-25.6s25.6,11.093,25.6,25.6
		v42.667C434.277,200.464,430.864,203.877,425.744,203.877z M400.144,186.81h17.067v-34.133c0-5.12-3.413-8.533-8.533-8.533
		s-8.533,3.413-8.533,8.533V186.81z"/>
</g>
</svg>