<?xml version="1.0" encoding="iso-8859-1"?>
<!-- Uploaded to: SVG Repo, www.svgrepo.com, Generator: SVG Repo Mixer Tools -->
<svg height="800px" width="800px" version="1.1" id="Layer_1" xmlns="http://www.w3.org/2000/svg" xmlns:xlink="http://www.w3.org/1999/xlink" 
	 viewBox="0 0 504.076 504.076" xml:space="preserve">
<g transform="translate(1 1)">
	<path style="fill:#00DA6C;" d="M258.909,24.415v50.361c-14.269-11.751-36.931-10.911-50.361,0
		c-13.43,10.911-36.092,11.751-50.361,0V24.415c14.269,11.751,36.931,10.911,50.361,0C221.978,13.504,244.64,12.664,258.909,24.415"
		/>
	<path style="fill:#00AD55;" d="M225.335,16.861c5.875,0.839,11.751,3.357,16.787,7.554v42.807
		c5.875,0.839,11.751,3.357,16.787,7.554V24.415C249.676,16.861,237.086,14.343,225.335,16.861"/>
	<g>
		<path style="fill:#FFE100;" d="M468.745,192.284h-67.148c31.056,55.397,36.092,70.505,0,125.902h67.148
			C504.837,264.468,500.64,247.681,468.745,192.284"/>
		<path style="fill:#FFE100;" d="M275.696,326.579c55.397-55.397,57.075-147.725,0-201.443h-50.361
			c57.075,53.718,55.397,146.046,0,201.443H275.696z"/>
		<path style="fill:#FFE100;" d="M326.056,125.136h-50.361H174.974c57.075,53.718,55.397,146.046,0,201.443h100.721h50.361
			C381.453,271.182,382.292,178.854,326.056,125.136"/>
		<path style="fill:#FFE100;" d="M57.466,150.317H15.499c31.056,55.397,36.092,70.505,0,125.902h41.967
			C93.558,222.5,89.361,205.713,57.466,150.317"/>
		<path style="fill:#FFE100;" d="M99.433,150.317H57.466c31.056,55.397,36.092,70.505,0,125.902h41.967
			C135.525,222.5,130.489,205.713,99.433,150.317"/>
		<path style="fill:#FFE100;" d="M368.023,360.153c0,18.466-15.108,33.574-33.574,33.574H200.155
			c-32.734,0-58.754-26.02-58.754-58.754L7.105,318.186l16.787,41.967l25.18,8.393l33.574,100.721H141.4l16.787,16.787H334.45
			c64.63,0,117.508-52.879,117.508-117.508v-8.393H368.023z"/>
	</g>
	<polygon style="fill:#FFFFFF;" points="49.073,351.759 33.964,321.543 7.105,318.186 23.892,360.153 49.073,368.546 
		82.646,469.268 107.827,469.268 74.253,368.546 	"/>
	<g>
		<path style="fill:#FFA800;" d="M468.745,192.284h-25.18c31.895,55.397,36.092,72.184,0,125.902h25.18
			C504.837,264.468,500.64,247.681,468.745,192.284"/>
		<path style="fill:#FFA800;" d="M426.778,360.153v8.393c0,64.63-52.879,117.508-117.508,117.508h25.18
			c64.63,0,117.508-52.879,117.508-117.508v-8.393H426.778z"/>
	</g>
	<path d="M279.053,334.972h-73.862l14.269-14.269c26.02-26.02,40.289-61.272,39.449-97.364
		c-0.839-35.252-14.269-67.987-39.449-91.489l-15.108-15.108h74.702l2.518,2.518c28.538,26.859,44.485,63.79,44.485,104.079
		c0.839,41.128-15.948,80.577-44.485,109.954L279.053,334.972z M243.801,318.186h28.538c24.341-25.18,37.77-59.593,36.931-94.846
		c-0.839-34.413-13.43-65.469-36.931-89.81H244.64c20.144,25.18,31.056,56.236,31.056,88.971
		C276.535,256.913,264.784,291.327,243.801,318.186z"/>
	<path d="M284.089,402.12h-50.361v-83.934h50.361V402.12z M250.515,385.333h16.787v-50.361h-16.787V385.333z"/>
	<path d="M258.909,133.53c-5.036,0-8.393-3.357-8.393-8.393V24.415c0-5.036,3.357-8.393,8.393-8.393s8.393,3.357,8.393,8.393
		v100.721C267.302,130.172,263.945,133.53,258.909,133.53z"/>
	<path d="M183.368,91.563c-10.911,0-21.823-3.357-30.216-10.072c-2.518-1.679-3.357-4.197-3.357-6.715V24.415
		c0-3.357,1.679-5.875,5.036-7.554c2.518-1.679,6.715-0.839,9.233,0.839c10.911,9.233,28.538,8.393,39.449,0
		c17.626-13.43,43.646-13.43,61.272,0c1.679,1.679,2.518,4.197,2.518,6.715v50.361c0,3.357-1.679,5.875-5.036,7.554
		c-3.357,1.679-6.715,0.839-9.233-0.839c-10.911-9.233-28.538-8.393-39.449,0C205.191,88.205,194.279,91.563,183.368,91.563z
		 M166.581,70.579c10.911,6.715,26.859,5.875,36.931-2.518c12.59-10.072,31.895-12.59,47.003-7.554V28.612
		c-10.911-6.715-26.859-5.875-36.931,2.518c-12.59,10.072-31.895,12.59-47.003,7.554V70.579z"/>
	<path d="M334.45,494.448H158.187c-2.518,0-4.197-0.839-5.875-2.518l-14.269-14.269H82.646c-3.357,0-6.715-2.518-7.554-5.875
		l-32.734-96.525l-20.984-6.715c-2.518-0.839-4.197-2.518-5.036-5.036l-16.787-41.967c-0.839-2.518-0.839-5.875,0.839-8.393
		c1.679-2.518,5.036-3.357,7.554-3.357l134.295,16.787c4.197,0.839,7.554,4.197,7.554,8.393c0,27.698,22.662,50.361,50.361,50.361
		H334.45c14.269,0,25.18-10.911,25.18-25.18c0-5.036,3.357-8.393,8.393-8.393h83.934c5.036,0,8.393,3.357,8.393,8.393v8.393
		C460.351,438.212,404.115,494.448,334.45,494.448z M161.545,477.661H334.45c60.433,0,109.115-48.682,109.115-109.115h-67.987
		c-4.197,19.305-20.984,33.574-41.128,33.574H200.155c-34.413,0-62.951-26.02-67.148-59.593L20.535,328.258l10.072,25.18
		l21.823,7.554c2.518,0.839,4.197,2.518,5.036,5.036l31.056,94.846H141.4c2.518,0,4.197,0.839,5.875,2.518L161.545,477.661z"/>
	<path d="M493.925,368.546h-58.754c-5.036,0-8.393-3.357-8.393-8.393c0-5.036,3.357-8.393,8.393-8.393h58.754
		c5.036,0,8.393,3.357,8.393,8.393C502.319,365.189,498.961,368.546,493.925,368.546z"/>
	<path d="M326.056,334.972H174.974c-3.357,0-6.715-1.679-7.554-5.036c-0.839-3.357-0.839-6.715,1.679-9.233
		c26.02-26.02,40.289-61.272,39.449-97.364c-0.839-35.252-14.269-67.987-39.449-91.489c-2.518-2.518-3.357-5.875-1.679-9.233
		c1.679-3.357,4.197-5.875,7.554-5.875h151.082c2.518,0,4.197,0.839,5.875,2.518c28.538,26.859,44.485,63.79,44.485,104.079
		c0.839,41.128-15.948,80.577-44.485,109.954C330.253,334.133,327.735,334.972,326.056,334.972z M193.44,318.186h129.259
		c24.341-25.18,37.77-59.593,36.931-94.846c-0.839-34.413-13.43-65.469-36.931-89.81h-128.42
		c20.144,25.18,31.056,56.236,31.056,88.971C226.174,256.913,214.423,291.327,193.44,318.186z"/>
	<path d="M57.466,326.579c-5.036,0-8.393-3.357-8.393-8.393v-41.967c0-5.036,3.357-8.393,8.393-8.393s8.393,3.357,8.393,8.393
		v41.967C65.86,323.222,62.502,326.579,57.466,326.579z"/>
	<path d="M57.466,284.612H15.499c-3.357,0-5.875-1.679-7.554-4.197c-1.679-2.518-1.679-5.875,0-8.393
		c34.413-52.039,29.377-63.79,0-117.508c-1.679-2.518-1.679-5.875,0-8.393c1.679-2.518,4.197-4.197,7.554-4.197h41.967
		c3.357,0,5.875,1.679,7.554,4.197c33.574,57.915,37.77,78.898,0,135.134C62.502,282.933,59.984,284.612,57.466,284.612z
		 M30.607,267.825H52.43c30.216-45.325,27.698-59.593,0-109.115H29.768C53.269,201.517,58.305,222.5,30.607,267.825z"/>
	<path d="M99.433,284.612H57.466c-3.357,0-5.875-1.679-7.554-4.197c-1.679-2.518-1.679-5.875,0-8.393
		c34.413-52.039,29.377-63.79,0-117.508c-1.679-2.518-1.679-5.875,0-8.393c1.679-2.518,4.197-4.197,7.554-4.197h41.967
		c3.357,0,5.875,1.679,7.554,4.197c33.574,57.915,37.77,78.898,0,135.134C104.469,282.933,101.951,284.612,99.433,284.612z
		 M72.574,267.825h21.823c30.216-45.325,27.698-59.593,0-109.115H71.735C95.237,201.517,99.433,222.5,72.574,267.825z"/>
	<path d="M57.466,158.71c-5.036,0-8.393-3.357-8.393-8.393V108.35c0-5.036,3.357-8.393,8.393-8.393s8.393,3.357,8.393,8.393v41.967
		C65.86,155.353,62.502,158.71,57.466,158.71z"/>
	<path d="M435.171,368.546c-5.036,0-8.393-3.357-8.393-8.393v-41.967c0-5.036,3.357-8.393,8.393-8.393
		c5.036,0,8.393,3.357,8.393,8.393v41.967C443.564,365.189,440.207,368.546,435.171,368.546z"/>
	<path d="M468.745,326.579h-67.148c-3.357,0-5.875-1.679-7.554-4.197c-1.679-2.518-1.679-5.875,0-8.393
		c34.413-52.039,29.377-63.79,0-117.508c-1.679-2.518-1.679-5.875,0-8.393c1.679-2.518,4.197-4.197,7.554-4.197h67.148
		c3.357,0,5.875,1.679,7.554,4.197c33.574,57.915,37.77,78.898,0,135.134C473.781,324.9,471.263,326.579,468.745,326.579z
		 M416.705,309.792h47.843c30.216-45.325,27.698-59.593,0-109.115h-47.843C439.368,243.484,444.404,264.468,416.705,309.792z"/>
	<path d="M435.171,200.677c-5.036,0-8.393-3.357-8.393-8.393v-25.18c0-5.036,3.357-8.393,8.393-8.393
		c5.036,0,8.393,3.357,8.393,8.393v25.18C443.564,197.32,440.207,200.677,435.171,200.677z"/>
</g>
</svg>