<?xml version="1.0" encoding="iso-8859-1"?>
<!-- Uploaded to: SVG Repo, www.svgrepo.com, Generator: SVG Repo Mixer Tools -->
<svg fill="#000000" height="800px" width="800px" version="1.1" id="Layer_1" xmlns="http://www.w3.org/2000/svg" xmlns:xlink="http://www.w3.org/1999/xlink" 
	 viewBox="0 0 512.019 512.019" xml:space="preserve">
<g>
	<g>
		<g>
			<path d="M510.907,49.418c0.683-2.005,0.939-4.096,0.981-6.165c0.021-0.213,0.128-0.384,0.128-0.576V21.343
				c0-11.776-9.557-21.333-21.333-21.333c-11.797,0-21.333,9.557-21.333,21.333h-42.667c0-11.776-9.557-21.333-21.333-21.333
				c-11.797,0-21.333,9.557-21.333,21.333h-42.667c0-11.776-9.557-21.333-21.333-21.333c-11.797,0-21.333,9.557-21.333,21.333
				v21.333c0,0.192,0.107,0.363,0.107,0.576c0.064,2.069,0.32,4.16,0.981,6.165l20.245,60.693v124.565h-128V110.111l20.224-60.693
				c0.683-2.005,0.939-4.096,0.981-6.165c0.021-0.213,0.128-0.384,0.128-0.576V21.343c0-11.776-9.557-21.333-21.333-21.333
				c-11.797,0-21.333,9.557-21.333,21.333h-42.667c0-11.776-9.557-21.333-21.333-21.333c-11.797,0-21.333,9.557-21.333,21.333
				H42.683c0-11.776-9.557-21.333-21.333-21.333C9.552,0.01,0.016,9.567,0.016,21.343v21.333c0,0.192,0.107,0.363,0.107,0.576
				c0.064,2.069,0.32,4.16,0.981,6.165l20.245,60.693v124.565c-7.403,0-14.251,3.84-18.155,10.112
				c-3.904,6.293-4.245,14.144-0.939,20.757l40.427,80.832v144.299c0,11.776,9.536,21.333,21.333,21.333h128v-64
				c0-35.285,28.693-64,64-64c35.285,0,64,28.715,64,64v64h128c11.776,0,21.333-9.557,21.333-21.333V346.378l40.405-80.832
				c3.328-6.613,2.965-14.464-0.939-20.757c-3.883-6.272-10.752-10.112-18.133-10.112V110.111L510.907,49.418z M162.405,64.01
				l-7.104,21.333H58.043L50.939,64.01H162.405z M128.016,170.676v21.333c0,11.776-9.557,21.333-21.333,21.333
				c-11.797,0-21.333-9.557-21.333-21.333v-21.333c0-11.776,9.536-21.333,21.333-21.333
				C118.459,149.343,128.016,158.9,128.016,170.676z M434.832,320.01H77.2l-21.333-42.667h114.816h170.667h114.816L434.832,320.01z
				 M384.016,192.01v-21.333c0-11.776,9.536-21.333,21.333-21.333c11.776,0,21.333,9.557,21.333,21.333v21.333
				c0,11.776-9.557,21.333-21.333,21.333C393.552,213.343,384.016,203.786,384.016,192.01z M453.968,85.343h-97.259l-7.104-21.333
				h111.467L453.968,85.343z"/>
			<path d="M256.01,426.676c-11.776,0-21.333,9.579-21.333,21.333v64h42.667v-64C277.343,436.255,267.786,426.676,256.01,426.676z"
				/>
		</g>
	</g>
</g>
</svg>