<?xml version="1.0" encoding="iso-8859-1"?>
<!-- Uploaded to: SVG Repo, www.svgrepo.com, Generator: SVG Repo Mixer Tools -->
<svg height="800px" width="800px" version="1.1" id="Layer_1" xmlns="http://www.w3.org/2000/svg" xmlns:xlink="http://www.w3.org/1999/xlink" 
	 viewBox="0 0 509.188 509.188" xml:space="preserve">
<g transform="translate(1 1)">
	<g>
		<path style="fill:#FFE100;" d="M432.898,256.961c0,5.207-3.471,8.678-8.678,8.678s-8.678-3.471-8.678-8.678
			s3.471-8.678,8.678-8.678S432.898,251.754,432.898,256.961L432.898,256.961z"/>
		<path style="fill:#FFE100;" d="M85.78,282.995c0,5.207-3.471,8.678-8.678,8.678c-5.207,0-8.678-3.471-8.678-8.678
			s3.471-8.678,8.678-8.678C82.308,274.317,85.78,277.788,85.78,282.995"/>
		<path style="fill:#FFE100;" d="M268.017,491.266c-5.207,0-8.678-3.471-8.678-8.678v-34.712c0-5.207,3.471-8.678,8.678-8.678
			c5.207,0,8.678,3.471,8.678,8.678v34.712C276.695,487.795,273.224,491.266,268.017,491.266z"/>
		<path style="fill:#FFE100;" d="M285.373,473.91h-34.712c-5.207,0-8.678-3.471-8.678-8.678c0-5.207,3.471-8.678,8.678-8.678h34.712
			c5.207,0,8.678,3.471,8.678,8.678C294.051,470.439,290.58,473.91,285.373,473.91z"/>
		<polygon style="fill:#FFE100;" points="467.61,31.334 493.644,57.368 467.61,83.402 441.576,57.368 		"/>
		<path style="fill:#FFE100;" d="M42.39,369.775c0,19.092-15.62,34.712-34.712,34.712c19.092,0,34.712,15.62,34.712,34.712
			c0-19.092,15.62-34.712,34.712-34.712C58.01,404.487,42.39,388.866,42.39,369.775"/>
		<path style="fill:#FFE100;" d="M104.871,325.517c0,0,81.573-26.034,23.431-80.705c-7.81-6.942-20.827-13.017-37.315-14.753
			c-41.654-2.603-61.614-48.597-65.085-90.251c-0.868-6.942-0.868-14.753-0.868-23.431c0,0,14.753,6.075,31.241,6.942
			c32.108,1.736,46.861-39.919,21.695-59.01c-10.414-6.942-25.166-14.753-45.993-19.959c0,0,19.092-24.298,52.936-29.505
			c21.695-3.471,44.258,6.075,58.142,23.431c6.075,7.81,13.017,16.488,17.356,26.034c2.603,6.075,7.81,11.281,13.885,13.885
			c6.942,2.603,17.356,2.603,27.77-7.81c0,0,23.431-16.488-6.942-45.993c0,0,83.308-13.017,72.895,72.027
			c0,0-7.81,31.241,6.942,45.993c0,0,22.563,29.505,45.993,6.942c0,0,39.051-27.769,13.017-65.953c0,0,90.251,26.902,31.241,129.302
			l-28.637,52.936l-70.292-76.366c-19.092-20.827-52.068-21.695-72.027-1.736s-19.092,52.936,1.736,72.027l76.366,70.292
			l-38.183,22.563c-14.753,6.942-30.373,13.017-46.861,14.753C121.359,374.114,104.871,325.517,104.871,325.517"/>
		<path style="fill:#FFE100;" d="M488.437,482.588L488.437,482.588c13.885-13.885,13.885-35.58,0.868-50.332L265.414,189.273
			c-19.092-20.827-52.068-21.695-72.027-1.736l0,0c-19.959,19.959-19.092,52.936,1.736,72.027l242.983,223.892
			C452.858,496.473,474.553,496.473,488.437,482.588"/>
	</g>
	<path style="fill:#FFA800;" d="M490.173,430.521L266.281,187.537c-4.339-5.207-10.414-8.678-15.62-11.281l215.214,234.305
		c13.017,13.885,13.017,36.447-0.868,50.332c-11.281,11.281-28.637,13.885-42.522,6.075l16.488,15.62
		c13.885,13.017,36.447,13.017,50.332-0.868C503.19,466.968,503.19,445.273,490.173,430.521"/>
	<g>
		<path style="fill:#63D3FD;" d="M316.614,244.812l-103.268,32.108l-18.224-16.488c-7.81-6.942-13.017-16.488-14.753-26.034
			l101.532-27.77L316.614,244.812z"/>
		<polygon style="fill:#63D3FD;" points="431.163,368.039 374.756,424.446 336.573,389.734 395.583,329.856 		"/>
	</g>
	<path d="M463.271,501.68c-11.281,0-21.695-4.339-30.373-12.149L189.915,266.507c-12.149-11.281-18.224-26.034-19.092-41.654
		c0-16.488,6.075-31.241,17.356-42.522c11.281-11.281,26.902-17.356,42.522-17.356c16.488,0,31.241,6.942,41.654,19.092
		l223.892,242.983c16.488,17.356,15.62,45.125-0.868,62.481C485.834,497.341,474.553,501.68,463.271,501.68z M228.966,182.331
		c-11.281,0-21.695,4.339-29.505,12.149s-12.149,19.092-12.149,30.373c0,11.281,5.207,21.695,13.017,29.505l242.983,223.892
		c11.281,10.414,27.77,9.546,38.183-0.868c10.414-10.414,10.414-26.902,0.868-38.183L259.339,195.348
		c-7.81-8.678-18.224-13.017-29.505-13.017C229.834,182.331,229.834,182.331,228.966,182.331z"/>
	<path d="M173.427,375.849c-60.746,0-76.366-46.861-77.234-47.729c-0.868-2.603-0.868-4.339,0.868-6.942
		c0.868-1.736,2.603-3.471,5.207-4.339c9.546-2.603,33.844-14.753,37.315-31.241c2.603-10.414-3.471-22.563-17.356-35.58
		c-5.207-5.207-16.488-11.281-32.108-12.149c-47.729-2.603-69.424-54.671-72.895-98.061c-0.868-6.942-0.868-14.753-0.868-23.431
		c0-2.603,1.736-5.207,3.471-6.942c2.603-1.736,5.207-1.736,7.81-0.868c0,0,13.017,5.207,28.637,6.075
		c13.017,0.868,20.827-7.81,23.431-16.488c2.603-7.81,2.603-19.959-7.81-26.902c-9.546-7.81-24.298-13.885-42.522-19.092
		c-2.603-0.868-5.207-2.603-6.075-5.207c-0.868-2.603,0-6.075,1.736-7.81c0.868-0.868,21.695-27.769,59.01-32.976
		c24.298-3.471,49.464,6.942,65.953,26.902c7.81,9.546,13.885,19.092,18.224,27.769c1.736,3.471,4.339,7.81,9.546,9.546
		c2.603,0.868,8.678,3.471,19.092-6.075l0.868-0.868c0,0,4.339-3.471,5.207-9.546c0-6.942-4.339-14.753-13.017-23.431
		c-2.603-2.603-3.471-6.075-1.736-8.678c0.868-3.471,3.471-5.207,6.942-6.075c1.736,0,41.654-6.075,65.953,17.356
		c14.753,14.753,20.827,35.58,17.356,64.217v0.868c-1.736,7.81-5.207,28.637,4.339,37.315l0.868,0.868
		c2.603,3.471,10.414,11.281,19.092,12.149c4.339,0,9.546-1.736,13.885-6.075l0.868-0.868c3.471-2.603,31.241-24.298,11.281-53.803
		c-1.736-3.471-1.736-6.942,0-10.414c0.868-2.603,5.207-3.471,8.678-2.603c1.736,0.868,38.183,12.149,52.068,46.861
		c10.414,26.902,5.207,58.142-15.62,95.458l-29.505,52.936c-1.736,2.603-4.339,4.339-6.942,4.339s-5.207-0.868-7.81-2.603
		l-70.292-76.366c-7.81-8.678-18.224-13.017-29.505-13.017c-11.281,0-21.695,4.339-30.373,12.149
		c-7.81,7.81-12.149,19.092-12.149,30.373c0,11.281,5.207,21.695,13.017,29.505l76.366,70.292c1.736,1.736,3.471,4.339,2.603,7.81
		c-0.868,3.471-1.736,5.207-4.339,6.942l-38.183,21.695c-17.356,8.678-33.844,13.885-50.332,15.62
		C182.973,375.849,178.634,375.849,173.427,375.849z M117.02,330.724c6.942,11.281,26.034,32.108,69.424,27.77
		c13.885-1.736,28.637-6.075,43.39-13.885l27.769-15.62l-67.688-62.481c-12.149-11.281-18.224-26.034-19.092-41.654
		c0-16.488,6.075-31.241,17.356-42.522c11.281-11.281,26.902-17.356,42.522-17.356c16.488,0,31.241,6.942,41.654,19.092
		l61.614,67.688l23.431-42.522c18.224-32.108,23.431-59.01,14.753-79.837c-5.207-12.149-13.885-20.827-21.695-26.902
		c4.339,25.166-12.149,45.125-24.298,53.803c-10.414,9.546-19.959,11.281-26.902,11.281c-16.488-0.868-28.637-14.753-31.241-18.224
		c-16.488-17.356-10.414-47.729-8.678-53.803c2.603-22.563-1.736-39.051-12.149-48.597c-9.546-9.546-24.298-12.149-34.712-13.017
		c5.207,7.81,6.942,15.62,6.075,23.431c-0.868,12.149-8.678,19.092-11.281,21.695c-15.62,14.753-29.505,12.149-36.447,9.546
		c-6.942-5.207-13.885-11.281-18.224-20.827c-3.471-7.81-9.546-16.488-16.488-24.298c-12.149-14.753-31.241-22.563-50.332-19.959
		c-16.488,1.736-29.505,10.414-37.315,16.488c13.885,5.207,26.034,10.414,34.712,17.356c14.753,11.281,19.959,29.505,13.885,46.861
		c-6.075,17.356-22.563,28.637-40.786,27.77c-8.678,0-16.488-1.736-22.563-3.471c0,3.471,0,7.81,0.868,11.281
		c3.471,39.051,22.563,79.837,56.407,82.441c17.356,0.868,32.976,6.942,43.39,16.488c19.092,18.224,26.034,35.58,22.563,52.068
		C152.6,311.632,130.037,324.649,117.02,330.724z"/>
	<path d="M210.742,286.466l-20.827-19.959c-8.678-7.81-14.753-19.092-17.356-30.373l-1.736-7.81l114.549-31.241l47.729,52.068
		L210.742,286.466z M191.651,239.605c2.603,5.207,5.207,9.546,9.546,13.885l13.885,13.017l85.912-26.034l-22.563-24.298
		L191.651,239.605z"/>
	<path d="M374.756,436.595l-51.2-46.861l72.027-72.027l46.861,51.2L374.756,436.595z M348.722,388.866l25.166,23.431l44.258-44.258
		l-23.431-25.166L348.722,388.866z"/>
	<path d="M473.685,89.476h-12.149l-26.034-26.034V51.293l26.034-26.034h12.149l26.034,26.034v12.149L473.685,89.476z
		 M453.725,57.368l13.885,13.885l13.885-13.885L467.61,43.483L453.725,57.368z"/>
	<path d="M42.39,447.876c-5.207,0-8.678-3.471-8.678-8.678c0-14.753-11.281-26.034-26.034-26.034c-5.207,0-8.678-3.471-8.678-8.678
		s3.471-8.678,8.678-8.678c14.753,0,26.034-11.281,26.034-26.034c0-5.207,3.471-8.678,8.678-8.678s8.678,3.471,8.678,8.678
		c0,14.753,11.281,26.034,26.034,26.034c5.207,0,8.678,3.471,8.678,8.678s-3.471,8.678-8.678,8.678
		c-14.753,0-26.034,11.281-26.034,26.034C51.068,444.405,47.597,447.876,42.39,447.876z M33.712,404.487
		c3.471,2.603,6.075,5.207,8.678,8.678c2.603-3.471,5.207-6.075,8.678-8.678c-3.471-2.603-6.075-5.207-8.678-8.678
		C39.786,399.28,37.183,401.883,33.712,404.487z"/>
	<path d="M259.339,491.266c-5.207,0-8.678-3.471-8.678-8.678v-34.712c0-5.207,3.471-8.678,8.678-8.678s8.678,3.471,8.678,8.678
		v34.712C268.017,487.795,264.546,491.266,259.339,491.266z"/>
	<path d="M276.695,473.91h-34.712c-5.207,0-8.678-3.471-8.678-8.678c0-5.207,3.471-8.678,8.678-8.678h34.712
		c5.207,0,8.678,3.471,8.678,8.678C285.373,470.439,281.902,473.91,276.695,473.91z"/>
	<path d="M424.22,256.961c0,5.207-3.471,8.678-8.678,8.678c-5.207,0-8.678-3.471-8.678-8.678s3.471-8.678,8.678-8.678
		C420.749,248.283,424.22,251.754,424.22,256.961"/>
	<path d="M77.102,282.995c0,5.207-3.471,8.678-8.678,8.678s-8.678-3.471-8.678-8.678s3.471-8.678,8.678-8.678
		S77.102,277.788,77.102,282.995"/>
</g>
</svg>