<?xml version="1.0" encoding="iso-8859-1"?>
<!-- Uploaded to: SVG Repo, www.svgrepo.com, Generator: SVG Repo Mixer Tools -->
<svg fill="#000000" height="800px" width="800px" version="1.1" id="Layer_1" xmlns="http://www.w3.org/2000/svg" xmlns:xlink="http://www.w3.org/1999/xlink" 
	 viewBox="0 0 512.021 512.021" xml:space="preserve">
<g>
	<g>
		<path d="M512.005,341.337c0-34.894-16.76-65.875-42.667-85.336v-85.331c0.663,0,1.319-0.039,1.97-0.1
			c0.222-0.02,0.44-0.052,0.66-0.079c0.425-0.053,0.847-0.116,1.266-0.193c0.253-0.047,0.504-0.096,0.753-0.151
			c0.392-0.088,0.779-0.19,1.164-0.299c0.236-0.067,0.474-0.126,0.707-0.201c0.568-0.182,1.128-0.385,1.676-0.614
			c0.208-0.087,0.408-0.19,0.613-0.283c0.369-0.168,0.735-0.339,1.093-0.527c0.232-0.122,0.457-0.252,0.683-0.382
			c0.33-0.189,0.655-0.386,0.974-0.592c0.207-0.134,0.414-0.268,0.616-0.409c0.361-0.251,0.711-0.517,1.057-0.79
			c0.141-0.112,0.286-0.216,0.424-0.331c0.479-0.399,0.942-0.818,1.385-1.259c0.08-0.08,0.154-0.166,0.233-0.248
			c0.358-0.368,0.705-0.747,1.037-1.141c0.133-0.158,0.259-0.32,0.387-0.482c0.263-0.332,0.517-0.67,0.761-1.018
			c0.134-0.191,0.266-0.382,0.394-0.577c0.222-0.34,0.43-0.689,0.633-1.042c0.118-0.205,0.242-0.407,0.353-0.616
			c0.228-0.43,0.437-0.873,0.637-1.322c0.144-0.323,0.275-0.652,0.403-0.984c0.122-0.314,0.251-0.625,0.358-0.947l0.118-0.354
			c0.007-0.023,0.016-0.045,0.023-0.069l21.192-63.577c4.605-13.814-5.677-28.08-20.239-28.08h-64V21.337
			c0-11.782-9.551-21.333-21.333-21.333H128.005c-11.782,0-21.333,9.551-21.333,21.333v106.667H64.005
			c-14.561,0-24.843,14.266-20.239,28.08l12.467,37.402c-7.934,3.109-13.562,10.815-13.562,19.852
			c0,11.782,9.551,21.333,21.333,21.333v63.998c-0.102,0-0.204,0-0.305,0.002H42.672c-11.782,0-21.333,9.551-21.333,21.333
			c0,9.774,6.581,17.993,15.547,20.518L0.642,485.497c-2.858,11.43,4.092,23.013,15.522,25.87
			c11.43,2.858,23.013-4.092,25.87-15.522l23.973-95.893c7.084,27.635,32.148,48.052,61.997,48.052s54.913-20.417,61.997-48.052
			l23.973,95.893c2.858,11.43,14.44,18.38,25.87,15.522c11.43-2.858,18.38-14.44,15.522-25.87l-36.244-144.975
			c8.967-2.525,15.547-10.744,15.547-20.518c0-11.782-9.551-21.333-21.333-21.333H192.31c-0.102-0.001-0.204-0.002-0.305-0.002
			v-63.998c11.782,0,21.333-9.551,21.333-21.333c0-9.037-5.628-16.743-13.562-19.852l12.467-37.402
			c4.605-13.814-5.677-28.08-20.239-28.08h-42.667V42.671h234.667v21.333h-64c-14.561,0-24.843,14.266-20.239,28.08l21.193,63.578
			c0.007,0.022,0.015,0.044,0.022,0.066l0.119,0.356c0.108,0.324,0.238,0.636,0.36,0.952c0.127,0.328,0.256,0.653,0.398,0.972
			c0.201,0.451,0.411,0.897,0.64,1.329c0.111,0.209,0.234,0.409,0.352,0.614c0.204,0.355,0.413,0.705,0.635,1.046
			c0.127,0.194,0.259,0.384,0.392,0.574c0.245,0.349,0.499,0.689,0.763,1.021c0.128,0.161,0.254,0.324,0.386,0.481
			c0.332,0.394,0.679,0.773,1.037,1.141c0.079,0.081,0.152,0.168,0.233,0.248c0.443,0.441,0.906,0.86,1.385,1.259
			c0.138,0.115,0.283,0.22,0.424,0.331c0.345,0.273,0.696,0.539,1.057,0.791c0.202,0.141,0.408,0.275,0.615,0.408
			c0.32,0.206,0.644,0.403,0.975,0.592c0.226,0.13,0.452,0.26,0.683,0.382c0.358,0.188,0.725,0.359,1.094,0.527
			c0.205,0.093,0.404,0.195,0.612,0.282c0.548,0.228,1.108,0.431,1.677,0.614c0.232,0.075,0.471,0.134,0.707,0.201
			c0.385,0.109,0.772,0.212,1.164,0.299c0.25,0.056,0.501,0.105,0.753,0.151c0.418,0.078,0.84,0.14,1.266,0.193
			c0.22,0.027,0.438,0.059,0.66,0.079c0.651,0.06,1.307,0.1,1.97,0.1v85.33c-25.907,19.461-42.667,50.442-42.667,85.336
			c0,30.532,12.833,58.066,33.395,77.511l-31.138,62.293c-5.268,10.539-0.995,23.353,9.544,28.621
			c10.539,5.268,23.353,0.995,28.621-9.544l29.373-58.762c11.491,4.234,23.911,6.548,36.872,6.548
			c12.961,0,25.381-2.314,36.872-6.548l29.371,58.757c5.268,10.539,18.082,14.812,28.621,9.544
			c10.539-5.268,14.812-18.082,9.544-28.621l-31.136-62.289C499.172,399.403,512.005,371.869,512.005,341.337z M149.338,298.671
			h-42.667v-64h42.667V298.671z M128.005,405.337c-11.791,0-21.333-9.542-21.333-21.333v-42.667h42.667v42.667
			C149.338,395.795,139.796,405.337,128.005,405.337z M155.296,192.004h-54.581l-7.111-21.333h68.803L155.296,192.004z
			 M461.073,106.671l-7.111,21.333h-5.957h-85.333h-5.957l-7.111-21.333H461.073z M384.005,170.671h42.667v66.136
			c-6.893-1.399-14.027-2.136-21.333-2.136s-14.44,0.737-21.333,2.136V170.671z M341.338,341.337
			c0-22.443,11.565-42.177,29.05-53.602c1.022-0.403,2.035-0.882,3.029-1.462c8.668-5.054,17.918-8.043,27.431-8.762
			c0.169-0.012,0.337-0.028,0.506-0.039c0.433-0.029,0.866-0.048,1.3-0.068c0.891-0.037,1.784-0.068,2.684-0.068
			s1.793,0.031,2.684,0.068c0.434,0.02,0.867,0.039,1.3,0.068c0.169,0.01,0.337,0.027,0.506,0.039
			c9.513,0.719,18.764,3.708,27.431,8.762c0.994,0.58,2.007,1.059,3.029,1.462c17.485,11.425,29.05,31.159,29.05,53.602
			c0,35.343-28.657,64-64,64S341.338,376.681,341.338,341.337z"/>
	</g>
</g>
</svg>