<?xml version="1.0" encoding="iso-8859-1"?>
<!-- Uploaded to: SVG Repo, www.svgrepo.com, Generator: SVG Repo Mixer Tools -->
<svg fill="#000000" height="800px" width="800px" version="1.1" id="Layer_1" xmlns="http://www.w3.org/2000/svg" xmlns:xlink="http://www.w3.org/1999/xlink" 
	 viewBox="0 0 512.072 512.072" xml:space="preserve">
<g transform="translate(-1)">
	<g>
		<path d="M509.415,374.593l0.038-0.057c0.339-0.509,0.646-1.025,0.935-1.545c0.065-0.117,0.124-0.237,0.186-0.355
			c0.279-0.524,0.534-1.053,0.764-1.586c0.01-0.024,0.021-0.047,0.031-0.072c1.305-3.05,1.827-6.219,1.666-9.304v-84.306
			c0-11.782-9.551-21.333-21.333-21.333h-85.333c-7.422,0-13.953,3.795-17.775,9.545L282.675,106.703h81.027
			c11.782,0,21.333-9.551,21.333-21.333v-64c0-11.782-9.551-21.333-21.333-21.333H257.036c-11.782,0-21.333,9.551-21.333,21.333v64
			v14.874L125.477,265.581c-3.822-5.751-10.353-9.545-17.775-9.545H22.369c-11.782,0-21.333,9.551-21.333,21.333v84.306
			c-0.16,3.085,0.362,6.253,1.666,9.303c0.01,0.025,0.022,0.049,0.032,0.074c0.23,0.532,0.484,1.06,0.763,1.583
			c0.063,0.119,0.122,0.24,0.187,0.357c0.289,0.52,0.596,1.036,0.935,1.544l0.037,0.056c0.015,0.022,0.029,0.044,0.044,0.067
			l39.002,58.504v57.541c0,11.782,9.551,21.333,21.333,21.333h384c11.782,0,21.333-9.551,21.333-21.333v-57.541l39.003-58.504
			C509.387,374.636,509.401,374.614,509.415,374.593z M427.703,298.703h42.667v42.667h-42.667v-10.667V298.703z M437.619,405.369
			H76.453l-14.222-21.333h45.472h106.667h85.333h106.667h45.472L437.619,405.369z M257.036,145.162l128,192v4.207h-64v-64
			c0-11.782-9.551-21.333-21.333-21.333h-85.333c-11.782,0-21.333,9.551-21.333,21.333v64h-64v-4.207L257.036,145.162z
			 M278.369,341.369h-42.667v-42.667h42.667V341.369z M342.369,64.036h-64V42.703h64V64.036z M43.703,298.703h42.667v32v10.667
			H43.703V298.703z M427.703,469.369H86.369v-21.333h341.333V469.369z"/>
	</g>
</g>
</svg>