<?xml version="1.0" encoding="iso-8859-1"?>
<!-- Uploaded to: SVG Repo, www.svgrepo.com, Generator: SVG Repo Mixer Tools -->
<svg fill="#000000" height="800px" width="800px" version="1.1" id="Layer_1" xmlns="http://www.w3.org/2000/svg" xmlns:xlink="http://www.w3.org/1999/xlink" 
	 viewBox="0 0 512 512" xml:space="preserve">
<g>
	<g>
		<path d="M490.798,341.3h-21.3V320c0-11.8-9.5-21.3-21.3-21.3s-21.3,9.5-21.3,21.3v21.3h-42.8v-128h-256v128h-42.7V320
			c0-11.8-9.5-21.3-21.3-21.3s-21.3,9.5-21.3,21.3v21.3h-21.4c-11.8,0-21.3,9.6-21.3,21.4v128c0,11.7,9.5,21.3,21.3,21.3h128h85.3
			v-85.3c0-11.8,9.5-21.3,21.3-21.3s21.3,9.5,21.3,21.3V512h85.3h128c11.8,0,21.3-9.6,21.3-21.3v-128
			C512.098,350.9,502.598,341.3,490.798,341.3z M128.098,469.3h-85.3V384h85.3V469.3z M234.798,298.7c0,11.8-9.5,21.3-21.3,21.3
			c-11.8,0-21.3-9.6-21.3-21.3v-21.3c0-11.8,9.5-21.3,21.3-21.3c11.8,0,21.3,9.5,21.3,21.3V298.7z M320.098,298.7
			c0,11.8-9.5,21.3-21.3,21.3s-21.3-9.6-21.3-21.3v-21.3c0-11.8,9.5-21.3,21.3-21.3s21.3,9.5,21.3,21.3V298.7z M469.398,469.3h-85.3
			V384h85.3V469.3z"/>
	</g>
</g>
<g>
	<g>
		<path d="M405.498,0c-11.9,0-21.4,9.6-21.4,21.3h-64c0-11.7-9.5-21.3-21.3-21.3s-21.3,9.6-21.3,21.3h-42.7
			c0-11.8-9.6-21.3-21.3-21.3c-11.9,0-21.4,9.6-21.4,21.3h-64c0-11.7-9.5-21.3-21.3-21.3s-21.4,9.6-21.4,21.3v21.3
			c0,0.3,0.1,0.5,0.1,0.8c0.2,2.3,0.6,4.5,1.4,6.6c0.2,0.5,0.3,0.9,0.5,1.4c0.1,0.3,0.1,0.5,0.3,0.8l40.4,80.8v37.6h256V133
			l40.4-80.8c0.1-0.3,0.2-0.5,0.3-0.8c0.2-0.5,0.3-0.9,0.5-1.4c0.8-2.1,1.2-4.3,1.3-6.6c0-0.3,0.2-0.5,0.2-0.8V21.3
			C426.798,9.5,417.198,0,405.498,0z"/>
	</g>
</g>
</svg>