<?xml version="1.0" encoding="iso-8859-1"?>
<!-- Uploaded to: SVG Repo, www.svgrepo.com, Generator: SVG Repo Mixer Tools -->
<svg fill="#000000" height="800px" width="800px" version="1.1" id="Layer_1" xmlns="http://www.w3.org/2000/svg" xmlns:xlink="http://www.w3.org/1999/xlink" 
	 viewBox="0 0 512 512" xml:space="preserve">
<g transform="translate(1 1)">
	<g>
		<g>
			<path d="M511,293.4c0-11.491-6.963-20.833-17.067-24.224V122.733v-25.6h8.533c5.12,0,8.533-3.413,8.533-8.533
				s-3.413-8.533-8.533-8.533h-8.533V63c0-5.12-3.413-8.533-8.533-8.533s-8.533,3.413-8.533,8.533v17.067h-8.533
				c-5.12,0-8.533,3.413-8.533,8.533s3.413,8.533,8.533,8.533h8.533v25.6l-43.104,129.313L383,121.514V97.133h8.533
				c5.12,0,8.533-3.413,8.533-8.533s-3.413-8.533-8.533-8.533H383V63c0-5.12-3.413-8.533-8.533-8.533s-8.533,3.413-8.533,8.533
				v17.067H357.4c-5.12,0-8.533,3.413-8.533,8.533s3.413,8.533,8.533,8.533h8.533v25.234l-51.034,131.23l-51.366-132.084V97.133
				h8.533c5.12,0,8.533-3.413,8.533-8.533s-3.413-8.533-8.533-8.533h-8.533V63c0-5.12-3.413-8.533-8.533-8.533
				s-8.533,3.413-8.533,8.533v17.067h-8.533c-5.12,0-8.533,3.413-8.533,8.533s3.413,8.533,8.533,8.533h8.533v25.234l-51.034,131.23
				l-51.366-132.084V97.133h8.533c5.12,0,8.533-3.413,8.533-8.533s-3.413-8.533-8.533-8.533h-8.533V63
				c0-5.12-3.413-8.533-8.533-8.533S127,57.88,127,63v17.067h-8.533c-5.12,0-8.533,3.413-8.533,8.533s3.413,8.533,8.533,8.533H127
				v25.234L76.391,252.506L33.133,122.733l0,0v-25.6h8.533c5.12,0,8.533-3.413,8.533-8.533s-3.413-8.533-8.533-8.533h-8.533V63
				c0-5.12-3.413-8.533-8.533-8.533S16.067,57.88,16.067,63v17.067H7.533C2.413,80.067-1,83.48-1,88.6s3.413,8.533,8.533,8.533
				h8.533v25.6v146.443C5.963,272.567-1,281.909-1,293.4c0,14.507,11.093,25.6,25.6,25.6v85.333c-14.507,0-25.6,11.093-25.6,25.6
				s11.093,25.6,25.6,25.6h460.8c14.507,0,25.6-11.093,25.6-25.6s-11.093-25.6-25.6-25.6V319C499.907,319,511,307.907,511,293.4z
				 M476.867,175.64v92.16h-30.72L476.867,175.64z M374.467,146.627L422.253,267.8h-94.72L374.467,146.627z M255,146.627
				L302.787,267.8h-94.72L255,146.627z M135.533,146.627L183.32,267.8H88.6L135.533,146.627z M63.853,267.8h-30.72v-92.16
				L63.853,267.8z M493.933,429.933c0,5.12-3.413,8.533-8.533,8.533H24.6c-5.12,0-8.533-3.413-8.533-8.533S19.48,421.4,24.6,421.4
				h460.8C490.52,421.4,493.933,424.813,493.933,429.933z M468.333,404.333H41.667V319h426.667V404.333z M24.6,301.933
				c-5.12,0-8.533-3.413-8.533-8.533s3.413-8.533,8.533-8.533h51.2h119.467h119.467H434.2h51.2c5.12,0,8.533,3.413,8.533,8.533
				s-3.413,8.533-8.533,8.533H24.6z"/>
			<path d="M152.6,370.2h68.267c5.12,0,8.533-3.413,8.533-8.533s-3.413-8.533-8.533-8.533H152.6c-5.12,0-8.533,3.413-8.533,8.533
				S147.48,370.2,152.6,370.2z"/>
			<path d="M289.133,370.2H357.4c5.12,0,8.533-3.413,8.533-8.533s-3.413-8.533-8.533-8.533h-68.267c-5.12,0-8.533,3.413-8.533,8.533
				S284.013,370.2,289.133,370.2z"/>
			<path d="M255,370.2c5.12,0,8.533-3.413,8.533-8.533s-3.413-8.533-8.533-8.533s-8.533,3.413-8.533,8.533S249.88,370.2,255,370.2z"
				/>
			<path d="M425.667,370.2h17.067c5.12,0,8.533-3.413,8.533-8.533s-3.413-8.533-8.533-8.533h-17.067
				c-5.12,0-8.533,3.413-8.533,8.533S420.547,370.2,425.667,370.2z"/>
			<path d="M391.533,370.2c5.12,0,8.533-3.413,8.533-8.533s-3.413-8.533-8.533-8.533c-5.12,0-8.533,3.413-8.533,8.533
				S386.413,370.2,391.533,370.2z"/>
			<path d="M67.267,370.2h17.067c5.12,0,8.533-3.413,8.533-8.533s-3.413-8.533-8.533-8.533H67.267c-5.12,0-8.533,3.413-8.533,8.533
				S62.147,370.2,67.267,370.2z"/>
			<path d="M118.467,370.2c5.12,0,8.533-3.413,8.533-8.533s-3.413-8.533-8.533-8.533s-8.533,3.413-8.533,8.533
				S113.347,370.2,118.467,370.2z"/>
			<path d="M135.533,199.533c-5.12,0-8.533,3.413-8.533,8.533V242.2c0,5.12,3.413,8.533,8.533,8.533s8.533-3.413,8.533-8.533
				v-34.133C144.067,202.947,140.653,199.533,135.533,199.533z"/>
			<path d="M255,199.533c-5.12,0-8.533,3.413-8.533,8.533V242.2c0,5.12,3.413,8.533,8.533,8.533s8.533-3.413,8.533-8.533v-34.133
				C263.533,202.947,260.12,199.533,255,199.533z"/>
			<path d="M374.467,199.533c-5.12,0-8.533,3.413-8.533,8.533V242.2c0,5.12,3.413,8.533,8.533,8.533S383,247.32,383,242.2v-34.133
				C383,202.947,379.587,199.533,374.467,199.533z"/>
		</g>
	</g>
</g>
</svg>