<?xml version="1.0" encoding="iso-8859-1"?>
<!-- Uploaded to: SVG Repo, www.svgrepo.com, Generator: SVG Repo Mixer Tools -->
<svg height="800px" width="800px" version="1.1" id="Layer_1" xmlns="http://www.w3.org/2000/svg" xmlns:xlink="http://www.w3.org/1999/xlink" 
	 viewBox="0 0 511.878 511.878" xml:space="preserve">
<g>
	<g>
		<path style="fill:#D69C77;" d="M349.107,123.978l38.793,38.793l45.248-45.257h-38.784V78.721L349.107,123.978z"/>
		<path style="fill:#D69C77;" d="M258.597,214.488L0,473.084l38.784,38.793L297.39,253.281L258.597,214.488"/>
	</g>
	<path style="fill:#C7CFE3;" d="M510.731,195.093c-54.437,19.803-88.53,1.975-109.906-19.392
		c-21.403-21.413-43.237-43.246-64.649-64.649c-21.294-21.303-39.205-55.47-19.392-109.906c0,0-77.989-12.526-135.762,45.257
		c-57.783,57.774-45.257,135.762-45.257,135.762c54.437-19.813,88.987-1.527,109.906,19.392l64.649,64.649
		c21.294,21.294,39.195,55.47,19.392,109.906c0,0,77.979,12.526,135.762-45.257S510.731,195.093,510.731,195.093"/>
	<g>
		<path style="fill:#FFFFFF;" d="M381.426,333.539c-4.005,0-7.689-2.661-8.805-6.711c-1.344-4.864,1.509-9.902,6.373-11.246
			c14.107-3.904,33.426-9.243,47.689-23.515c14.254-14.245,19.602-33.573,23.515-47.689c1.344-4.873,6.391-7.698,11.255-6.373
			c4.864,1.344,7.717,6.391,6.373,11.255c-4.206,15.159-10.56,38.08-28.215,55.735c-17.664,17.682-40.585,24.018-55.744,28.206
			C383.053,333.429,382.23,333.539,381.426,333.539"/>
		<path style="fill:#FFFFFF;" d="M187.484,139.592c-0.805,0-1.627-0.11-2.45-0.338c-4.864-1.344-7.717-6.382-6.363-11.255
			c4.197-15.159,10.542-38.08,28.206-55.735c17.682-17.691,40.594-24.018,55.744-28.215c4.873-1.344,9.911,1.509,11.255,6.382
			c1.344,4.864-1.509,9.902-6.382,11.246c-14.098,3.895-33.408,9.243-47.689,23.515c-14.254,14.254-19.602,33.582-23.515,47.698
			C195.164,136.932,191.488,139.592,187.484,139.592"/>
	</g>
	<g>
		<polygon style="fill:#BD8366;" points="206.877,343.788 168.084,304.995 206.877,266.211 245.67,304.995 		"/>
		<polygon style="fill:#BD8366;" points="90.507,460.157 51.714,421.364 90.507,382.58 129.301,421.364 		"/>
	</g>
	<path style="fill:#FFFFFF;" d="M374.855,246.855c-2.341,0-4.681-0.896-6.464-2.679L267.819,143.605
		c-3.575-3.575-3.575-9.353,0-12.928c3.575-3.575,9.353-3.575,12.928,0l100.571,100.571c3.575,3.575,3.575,9.353,0,12.928
		C379.536,245.959,377.195,246.855,374.855,246.855"/>
</g>
</svg>