<?xml version="1.0" encoding="iso-8859-1"?>
<!-- Uploaded to: SVG Repo, www.svgrepo.com, Generator: SVG Repo Mixer Tools -->
<svg fill="#000000" height="800px" width="800px" version="1.1" id="Layer_1" xmlns="http://www.w3.org/2000/svg" xmlns:xlink="http://www.w3.org/1999/xlink" 
	 viewBox="0 0 512.077 512.077" xml:space="preserve">
<g transform="translate(1 1)">
	<g>
		<g>
			<path d="M208.92,240.532c3.413,0.853,6.827-0.853,8.533-3.413c2.56-2.56,1.707-6.827,0-9.387c0,0-10.24-14.507-12.8-40.107
				c25.6,1.707,40.107,12.8,40.107,12.8c2.56,1.707,5.973,1.707,9.387,0c2.56-1.707,4.267-5.12,3.413-8.533l-2.56-12.8
				l13.653-11.093c2.56-1.707,3.413-4.267,3.413-6.827s-1.707-5.12-3.413-6.827L255,143.252l2.56-12.8
				c0.853-3.413-0.853-6.827-3.413-8.533c-2.56-2.56-6.827-1.707-9.387,0c0,0-14.507,10.24-40.107,12.8
				c1.707-25.6,12.8-40.107,12.8-40.107c1.707-2.56,1.707-5.973,0-9.387c-1.707-2.56-5.12-4.267-8.533-3.413l-12.8,2.56
				l-11.093-13.653c-3.413-4.267-10.24-4.267-13.653,0L160.28,84.372l-12.8-2.56c-3.413-0.853-6.827,0.853-8.533,3.413
				c-2.56,2.56-1.707,6.827,0,9.387c0,0,10.24,14.507,12.8,40.107c-25.6-1.707-40.107-12.8-40.107-12.8
				c-2.56-1.707-5.973-1.707-9.387,0c-2.56,1.707-4.267,5.12-3.413,8.533l2.56,12.8l-13.653,11.093
				c-2.56,1.707-3.413,4.267-3.413,6.827s0.853,5.12,3.413,6.827l13.653,11.093l-2.56,12.8c-0.853,3.413,0.853,6.827,3.413,8.533
				c2.56,2.56,6.827,1.707,9.387,0c0,0,14.507-10.24,40.107-12.8c-1.707,25.6-12.8,40.107-12.8,40.107
				c-1.707,2.56-1.707,5.973,0,9.387c1.707,2.56,5.12,4.267,8.533,3.413l12.8-2.56l11.093,13.653
				c1.707,2.56,4.267,3.413,6.827,3.413s5.12-0.853,6.827-3.413l11.093-13.653L208.92,240.532z M194.413,220.052
				c-3.413,0-6.827,0.853-8.533,3.413l-7.68,9.387l-7.68-9.387c-1.707-2.56-4.267-3.413-6.827-3.413c0,0-0.853,0-1.707,0
				c4.267-9.387,7.68-23.893,7.68-41.813c0-5.12-3.413-8.533-8.533-8.533c-17.067,0-31.573,3.413-41.813,7.68
				c0-3.413-0.853-6.827-3.413-8.533l-9.387-7.68l9.387-7.68c2.56-2.56,4.267-5.12,3.413-8.533c9.387,4.267,23.893,7.68,41.813,7.68
				c5.12,0,8.533-3.413,8.533-8.533c0-17.067-3.413-31.573-7.68-41.813c3.413,0,6.827-0.853,8.533-3.413l7.68-9.387l7.68,9.387
				c2.56,2.56,5.12,4.267,8.533,3.413c-4.267,9.387-7.68,23.893-7.68,41.813c0,5.12,3.413,8.533,8.533,8.533
				c17.92,0,32.427-3.413,41.813-7.68c0,3.413,0.853,6.827,3.413,8.533l9.387,7.68l-9.387,7.68c-2.56,2.56-4.267,5.12-3.413,8.533
				c-9.387-4.267-23.893-7.68-41.813-7.68c-5.12,0-8.533,3.413-8.533,8.533C186.733,196.158,190.147,210.665,194.413,220.052z"/>
			<path d="M428.227,229.439l81.067-104.96c1.707-3.413,2.56-6.827,0.853-9.387c-1.707-3.413-4.267-5.12-7.68-5.12h-59.733H306.2
				V41.705c0-5.12-3.413-8.533-8.533-8.533H83.508C79.648,13.491,62.63-0.962,41.667-0.962C17.773-0.962-1,17.812-1,41.705
				c0,14.218,6.649,26.621,17.067,34.336v383.797H7.533c-5.12,0-8.533,3.413-8.533,8.533v34.133c0,5.12,3.413,8.533,8.533,8.533
				H75.8c5.12,0,8.533-3.413,8.533-8.533v-34.133c0-5.12-3.413-8.533-8.533-8.533h-8.533V289.172h119.467v51.2
				c0,5.12,3.413,8.533,8.533,8.533h17.067h230.4h59.733c3.413,0,5.973-1.707,7.68-4.267c1.707-3.413,0.853-6.827-0.853-9.387
				L428.227,229.439z M41.667,16.105c14.507,0,25.6,11.093,25.6,25.6c0,7.68-3.413,13.653-8.533,17.92
				c-0.535,0.535-1.405,1.406-1.98,2.402c-0.802,0.211-1.578,0.539-2.286,1.011c-8.533,5.12-17.067,5.12-25.6,0
				c-1.008-0.672-2.15-1.069-3.318-1.212c-5.837-4.626-9.482-11.811-9.482-20.121C16.067,27.198,27.16,16.105,41.667,16.105z
				 M67.267,493.972h-51.2v-17.067H24.6h34.133h8.533V493.972z M33.133,459.839V83.546c2.751,0.54,5.603,0.825,8.533,0.825
				s5.782-0.286,8.533-0.825v1.679v2.56v192.853v179.2H33.133z M67.267,89.492l5.12-17.92c0.048-0.056,0.094-0.114,0.142-0.17
				c5.491-5.711,9.375-12.982,10.98-21.163h205.625v68.267v153.6h-93.867h-128V89.492z M270.36,289.172l-47.908,33.738
				l-12.793,8.929H203.8v-42.667H270.36z M301.352,288.473c1.023-0.424,1.909-1.031,2.636-1.797
				c2.404-2.014,2.955-5.628,2.213-8.597v-151.04h119.204l-74.831,97.28c-2.56,2.56-2.56,6.827,0,10.24l74.831,97.28H239.64
				L301.352,288.473z M447,331.838l-78.507-102.4L447,127.038h38.4l-75.093,97.28c-2.56,2.56-2.56,6.827,0,10.24l75.093,97.28H447z"
				/>
		</g>
	</g>
</g>
</svg>