<?xml version="1.0" encoding="iso-8859-1"?>
<!-- Uploaded to: SVG Repo, www.svgrepo.com, Generator: SVG Repo Mixer Tools -->
<svg fill="#000000" height="800px" width="800px" version="1.1" id="Layer_1" xmlns="http://www.w3.org/2000/svg" xmlns:xlink="http://www.w3.org/1999/xlink" 
	 viewBox="0 0 512 512" xml:space="preserve">
<g>
	<g>
		<path d="M426.667,0c-46.933,0-85.333,38.4-85.333,85.333V192c0,12.8,8.533,21.333,21.333,21.333h128
			c12.8,0,21.333-8.533,21.333-21.333V85.333C512,38.4,473.6,0,426.667,0z M469.333,170.667H384V85.333
			c0-23.467,19.2-42.667,42.667-42.667s42.667,19.2,42.667,42.667V170.667z"/>
	</g>
</g>
<g>
	<g>
		<path d="M362.667,384c-12.8,0-21.333,8.533-21.333,21.333v21.333c0,12.8,8.533,21.333,21.333,21.333S384,439.467,384,426.667
			v-21.333C384,392.533,375.467,384,362.667,384z"/>
	</g>
</g>
<g>
	<g>
		<path d="M362.667,405.333c-12.8,0-21.333,8.533-21.333,21.333c0,23.467-19.2,42.667-42.667,42.667S256,450.133,256,426.667
			v-21.333c0-12.8-8.533-21.333-21.333-21.333c-12.8,0-21.333,8.533-21.333,21.333v21.333c0,46.933,38.4,85.333,85.333,85.333
			S384,473.6,384,426.667C384,413.867,375.467,405.333,362.667,405.333z"/>
	</g>
</g>
<g>
	<g>
		<path d="M426.667,0h-320c-36.267,0-64,27.733-64,64v341.333c0,12.8,8.533,21.333,21.333,21.333s21.333-8.533,21.333-21.333V64
			c0-12.8,8.533-21.333,21.333-21.333H352c-6.4,12.8-10.667,27.733-10.667,42.667v320c0,12.8,8.533,21.333,21.333,21.333
			S384,418.133,384,405.333v-320c0-23.467,19.2-42.667,42.667-42.667C454.4,42.667,454.4,0,426.667,0z"/>
	</g>
</g>
<g>
	<g>
		<path d="M298.667,469.333c-23.467,0-42.667-19.2-42.667-42.667v-21.333c0-12.8-8.533-21.333-21.333-21.333H21.333
			C8.533,384,0,392.533,0,405.333v21.333C0,473.6,38.4,512,85.333,512h213.333C326.4,512,326.4,469.333,298.667,469.333z
			 M85.333,469.333c-23.467,0-42.667-19.2-42.667-42.667h170.667c0,14.933,4.267,29.867,10.667,42.667H85.333z"/>
	</g>
</g>
<g>
	<g>
		<path d="M192,106.667h-42.667C136.533,106.667,128,115.2,128,128s8.533,21.333,21.333,21.333H192
			c12.8,0,21.333-8.533,21.333-21.333S204.8,106.667,192,106.667z"/>
	</g>
</g>
<g>
	<g>
		<path d="M277.333,192h-42.667c-12.8,0-21.333,8.533-21.333,21.333c0,12.8,8.533,21.333,21.333,21.333h42.667
			c12.8,0,21.333-8.533,21.333-21.333C298.667,200.533,290.133,192,277.333,192z"/>
	</g>
</g>
<g>
	<g>
		<path d="M277.333,106.667H256c-12.8,0-21.333,8.533-21.333,21.333S243.2,149.333,256,149.333h21.333
			c12.8,0,21.333-8.533,21.333-21.333S290.133,106.667,277.333,106.667z"/>
	</g>
</g>
<g>
	<g>
		<path d="M192,277.333h-42.667c-12.8,0-21.333,8.533-21.333,21.333c0,12.8,8.533,21.333,21.333,21.333H192
			c12.8,0,21.333-8.533,21.333-21.333C213.333,285.867,204.8,277.333,192,277.333z"/>
	</g>
</g>
<g>
	<g>
		<path d="M277.333,277.333H256c-12.8,0-21.333,8.533-21.333,21.333c0,12.8,8.533,21.333,21.333,21.333h21.333
			c12.8,0,21.333-8.533,21.333-21.333C298.667,285.867,290.133,277.333,277.333,277.333z"/>
	</g>
</g>
<g>
	<g>
		<path d="M149.333,192c-12.8,0-21.333,8.533-21.333,21.333c0,12.8,8.533,21.333,21.333,21.333c12.8,0,21.333-8.533,21.333-21.333
			C170.667,200.533,162.133,192,149.333,192z"/>
	</g>
</g>
</svg>