<?xml version="1.0" encoding="iso-8859-1"?>
<!-- Uploaded to: SVG Repo, www.svgrepo.com, Generator: SVG Repo Mixer Tools -->
<svg fill="#000000" height="800px" width="800px" version="1.1" id="Layer_1" xmlns="http://www.w3.org/2000/svg" xmlns:xlink="http://www.w3.org/1999/xlink" 
	 viewBox="0 0 512 512" xml:space="preserve">
<g transform="translate(1 1)">
	<g>
		<g>
			<path d="M229.4,272.067v51.2c0,5.12,3.413,8.533,8.533,8.533h34.133c5.12,0,8.533-3.413,8.533-8.533v-51.2
				c0-14.507-11.093-25.6-25.6-25.6C240.493,246.467,229.4,257.56,229.4,272.067z M246.467,272.067c0-5.12,3.413-8.533,8.533-8.533
				s8.533,3.413,8.533,8.533v42.667h-17.067V272.067z"/>
			<path d="M178.2,297.667c-14.507,0-25.6,11.093-25.6,25.6v51.2c0,5.12,3.413,8.533,8.533,8.533h34.133
				c5.12,0,8.533-3.413,8.533-8.533v-51.2C203.8,308.76,192.707,297.667,178.2,297.667z M186.733,365.933h-17.067v-42.667
				c0-5.12,3.413-8.533,8.533-8.533s8.533,3.413,8.533,8.533V365.933z"/>
			<path d="M314.733,272.067h34.133c5.12,0,8.533-3.413,8.533-8.533v-51.2c0-14.507-11.093-25.6-25.6-25.6
				c-14.507,0-25.6,11.093-25.6,25.6v51.2C306.2,268.653,309.613,272.067,314.733,272.067z M323.267,212.333
				c0-5.12,3.413-8.533,8.533-8.533c5.12,0,8.533,3.413,8.533,8.533V255h-17.067V212.333z"/>
			<path d="M195.267,212.333H229.4c5.12,0,8.533-3.413,8.533-8.533c0-5.12-3.413-8.533-8.533-8.533h-34.133
				c-5.12,0-8.533,3.413-8.533,8.533C186.733,208.92,190.147,212.333,195.267,212.333z"/>
			<path d="M161.133,212.333c5.12,0,8.533-3.413,8.533-8.533c0-5.12-3.413-8.533-8.533-8.533s-8.533,3.413-8.533,8.533
				C152.6,208.92,156.013,212.333,161.133,212.333z"/>
			<path d="M272.067,357.4c0,5.12,3.413,8.533,8.533,8.533h34.133c5.12,0,8.533-3.413,8.533-8.533s-3.413-8.533-8.533-8.533H280.6
				C275.48,348.867,272.067,352.28,272.067,357.4z"/>
			<path d="M348.867,348.867c-5.12,0-8.533,3.413-8.533,8.533s3.413,8.533,8.533,8.533s8.533-3.413,8.533-8.533
				S353.987,348.867,348.867,348.867z"/>
			<path d="M502.467,365.933h-8.533v-17.067c0-5.12-3.413-8.533-8.533-8.533s-8.533,3.413-8.533,8.533v17.067H459.8v-17.067
				c0-5.12-3.413-8.533-8.533-8.533c-5.12,0-8.533,3.413-8.533,8.533v17.067h-17.067v-17.067c0-5.12-3.413-8.533-8.533-8.533
				s-8.533,3.413-8.533,8.533v17.067h-17.067v-204.8V103.96l24.747-49.493c1.337-2.005,1.611-4.53,0.853-6.762V7.533
				c0-5.12-3.413-8.533-8.533-8.533h-34.133c-5.12,0-8.533,3.413-8.533,8.533v34.133h-17.067V7.533c0-5.12-3.413-8.533-8.533-8.533
				H306.2c-5.12,0-8.533,3.413-8.533,8.533v34.133H280.6V7.533c0-5.12-3.413-8.533-8.533-8.533h-34.133
				c-5.12,0-8.533,3.413-8.533,8.533v34.133h-17.067V7.533c0-5.12-3.413-8.533-8.533-8.533h-34.133c-5.12,0-8.533,3.413-8.533,8.533
				v34.133h-17.067V7.533c0-5.12-3.413-8.533-8.533-8.533H101.4c-5.12,0-8.533,3.413-8.533,8.533v40.892
				c-0.197,1.301-0.196,2.633,0.212,3.858c0.31,1.51,0.961,2.807,1.894,3.835l23.494,46.988v58.027v204.8H101.4v-17.067
				c0-5.12-3.413-8.533-8.533-8.533c-5.12,0-8.533,3.413-8.533,8.533v17.067H67.267v-17.067c0-5.12-3.413-8.533-8.533-8.533
				s-8.533,3.413-8.533,8.533v17.067H33.133v-17.067c0-5.12-3.413-8.533-8.533-8.533s-8.533,3.413-8.533,8.533v17.067H7.533
				c-5.12,0-8.533,3.413-8.533,8.533v128c0,5.12,3.413,8.533,8.533,8.533H127h102.4h51.2H383h119.467
				c5.12,0,8.533-3.413,8.533-8.533v-128C511,369.347,507.587,365.933,502.467,365.933z M340.333,127
				c-5.12,0-8.533,3.413-8.533,8.533V152.6h-25.6v-17.067c0-5.12-3.413-8.533-8.533-8.533s-8.533,3.413-8.533,8.533V152.6h-25.6
				v-17.067c0-5.12-3.413-8.533-8.533-8.533s-8.533,3.413-8.533,8.533V152.6h-25.6v-17.067c0-5.12-3.413-8.533-8.533-8.533
				c-5.12,0-8.533,3.413-8.533,8.533V152.6h-25.6v-17.067c0-5.12-3.413-8.533-8.533-8.533s-8.533,3.413-8.533,8.533V152.6h-25.6
				v-42.667h238.933V152.6h-25.6v-17.067C348.867,130.413,345.453,127,340.333,127z M383,16.067h17.067v25.6H383V16.067z
				 M314.733,16.067H331.8v25.6h-17.067V16.067z M246.467,16.067h17.067v25.6h-17.067V16.067z M178.2,16.067h17.067v25.6H178.2
				V16.067z M109.933,16.067H127v25.6h-17.067V16.067z M135.533,58.733h34.133H203.8h34.133h34.133H306.2h34.133h34.133h20.48
				L377.88,92.867H132.12l-17.067-34.133H135.533z M16.067,383h102.4v110.933h-102.4V383z M135.533,374.467v-204.8h238.933v204.8
				v119.467h-85.333v-76.8C289.133,398.36,273.773,383,255,383c-18.773,0-34.133,15.36-34.133,34.133v76.8h-85.333V374.467z
				 M237.933,493.933v-76.8c0-9.387,7.68-17.067,17.067-17.067s17.067,7.68,17.067,17.067v76.8H237.933z M493.933,493.933h-102.4
				V383h102.4V493.933z"/>
		</g>
	</g>
</g>
</svg>