<?xml version="1.0" encoding="iso-8859-1"?>
<!-- Uploaded to: SVG Repo, www.svgrepo.com, Generator: SVG Repo Mixer Tools -->
<svg height="800px" width="800px" version="1.1" id="Layer_1" xmlns="http://www.w3.org/2000/svg" xmlns:xlink="http://www.w3.org/1999/xlink" 
	 viewBox="0 0 512 512" xml:space="preserve">
<g>
	<g>
		<path style="fill:#9AA1A5;" d="M512,35.315c0-19.5-15.81-35.31-35.31-35.31c-19.5,0-35.31,15.81-35.31,35.31
			s15.81,35.31,35.31,35.31C496.19,70.625,512,54.815,512,35.315"/>
		<path style="fill:#9AA1A5;" d="M70.621,35.315c0-19.5-15.81-35.31-35.31-35.31S0,15.815,0,35.315s15.81,35.31,35.31,35.31
			S70.621,54.815,70.621,35.315"/>
	</g>
	<polygon style="fill:#DD342E;" points="88.276,52.97 88.276,141.246 88.276,441.384 256,511.996 423.724,441.384 423.724,150.073 
		423.724,52.97 	"/>
	<path style="fill:#BDC3C7;" d="M65.724,17.66c3.037,5.208,4.899,11.193,4.899,17.655s-1.863,12.447-4.899,17.655h380.548
		c-3.028-5.208-4.89-11.193-4.89-17.655s1.863-12.447,4.89-17.655H65.724z"/>
	<path style="fill:#F0C419;" d="M362.131,268.27l-8.554-29.917c-23.534-76.879-97.103-70.621-97.103-70.621
		s-73.56-6.259-97.103,70.621l-8.545,29.917c-5.897,20.639-0.362,42.999,14.848,58.147c8.748,8.713,18.953,17.867,29.016,24.682
		h0.706c0.486,1.783,0.98,3.575,1.633,5.332l13.18,35.134c1.289,3.434,46.265,5.685,46.265,5.685s44.985-2.251,46.274-5.685
		l13.18-35.134c0.653-1.757,1.148-3.549,1.642-5.332h0.697c10.063-6.815,20.268-15.969,29.016-24.682
		C362.493,311.27,368.028,288.909,362.131,268.27"/>
	<g>
		<path style="fill:#BA941C;" d="M218.478,388.466h0.088H218.478z M256.914,406.059c-51.641-2.534-52.966-6.056-54.969-11.396
			l-13.18-35.134c-7.989-21.31-5.226-45.347,7.406-64.282c2.701-4.061,8.174-5.164,12.235-2.445
			c4.061,2.701,5.155,8.183,2.454,12.235c-9.481,14.23-11.564,32.283-5.561,48.296l11.811,31.488
			c7.036,1.368,24.85,2.86,39.804,3.61c14.195-0.75,31.921-2.242,38.93-3.61l11.811-31.488c6.003-16.013,3.928-34.066-5.553-48.296
			c-2.701-4.052-1.607-9.534,2.445-12.235c4.052-2.719,9.534-1.615,12.244,2.445c12.623,18.935,15.387,42.973,7.398,64.282
			l-13.18,35.134C309.005,400.004,307.681,403.526,256.914,406.059L256.914,406.059z"/>
		<path style="fill:#BA941C;" d="M282.961,264.832c-4.873,0-8.828-3.955-8.828-8.828c0-14.601,11.882-26.483,26.483-26.483
			c4.873,0,8.828,3.955,8.828,8.828s-3.955,8.828-8.828,8.828c-4.864,0-8.828,3.964-8.828,8.828
			C291.789,260.877,287.834,264.832,282.961,264.832"/>
		<path style="fill:#BA941C;" d="M282.961,326.625c0,9.754-11.855,17.655-26.483,17.655s-26.483-7.901-26.483-17.655
			c0-9.755,11.855-17.655,26.483-17.655S282.961,316.871,282.961,326.625"/>
		<path style="fill:#BA941C;" d="M256.478,406.073c-4.873,0-8.828-3.955-8.828-8.828V344.28c0-4.873,3.955-8.828,8.828-8.828
			s8.828,3.955,8.828,8.828v52.966C265.306,402.119,261.351,406.073,256.478,406.073"/>
		<path style="fill:#BA941C;" d="M229.996,264.832c-4.873,0-8.828-3.955-8.828-8.828c0-4.864-3.964-8.828-8.828-8.828
			c-4.873,0-8.828-3.955-8.828-8.828s3.955-8.828,8.828-8.828c14.601,0,26.483,11.882,26.483,26.483
			C238.823,260.877,234.869,264.832,229.996,264.832"/>
		<path style="fill:#BA941C;" d="M159.375,238.349c9.931-32.415,28.743-49.946,47.192-59.507l-3.054-2.286
			c0,0-25.927-35.31-79.448-35.31c0,0-7.097,61.113,33.395,103.812L159.375,238.349z"/>
		<path style="fill:#BA941C;" d="M353.582,238.349c-9.922-32.415-28.743-49.946-47.192-59.507l3.054-2.286
			c0,0,25.927-35.31,79.448-35.31c0,0,7.106,61.113-33.395,103.812L353.582,238.349z"/>
	</g>
</g>
</svg>