<?xml version="1.0" encoding="iso-8859-1"?>
<!-- Uploaded to: SVG Repo, www.svgrepo.com, Generator: SVG Repo Mixer Tools -->
<svg fill="#000000" height="800px" width="800px" version="1.1" id="Layer_1" xmlns="http://www.w3.org/2000/svg" xmlns:xlink="http://www.w3.org/1999/xlink" 
	 viewBox="0 0 512.008 512.008" xml:space="preserve">
<g>
	<g>
		<g>
			<path d="M320.01,170.671h-42.667v-42.667c0-11.782-9.551-21.333-21.333-21.333s-21.333,9.551-21.333,21.333v42.667H192.01
				c-11.782,0-21.333,9.551-21.333,21.333s9.551,21.333,21.333,21.333h42.667v85.333c0,11.782,9.551,21.333,21.333,21.333
				s21.333-9.551,21.333-21.333v-85.333h42.667c11.782,0,21.333-9.551,21.333-21.333S331.792,170.671,320.01,170.671z"/>
			<path d="M512.001,127.812l0.001-72.746c0-9.541-6.335-17.921-15.513-20.524c-5.611-1.591-11.676-3.266-18.323-5.062
				C405.768,9.919,331.023,0.004,256.001,0.004c-75.028,0-149.774,9.917-222.122,29.475c-6.116,1.642-12.188,3.317-18.345,5.056
				C6.346,37.131,0.001,45.517,0.001,55.065v75.733c-0.047,7.363,1.028,20.064,4.1,36.666C9,193.941,17.775,223.097,31.35,254.204
				c38.116,87.336,106.414,173.789,211.943,253.49c7.588,5.731,18.052,5.748,25.659,0.042
				c106.196-79.661,174.512-164.841,212.061-250.533c13.662-31.18,22.375-60.582,27.088-87.636
				C511.188,151.85,512.099,138.704,512.001,127.812z M466.068,162.244c-4.137,23.743-11.874,49.856-24.134,77.835
				c-33.063,75.456-92.74,151.347-185.735,223.71c-92.37-72.45-152.095-149.551-185.743-226.651
				c-12.245-28.057-20.08-54.093-24.399-77.435c-1.505-8.132-2.463-15.336-2.987-21.521c-0.309-3.649-0.408-6.182-0.401-7.248
				l0-59.633c0.769-0.208,1.539-0.415,2.31-0.622C113.731,52.091,184.733,42.67,256.001,42.67
				c71.264,0,142.267,9.419,211.033,27.998c0.775,0.209,1.542,0.417,2.3,0.623v56.713
				C469.412,136.657,468.677,147.27,466.068,162.244z"/>
		</g>
	</g>
</g>
</svg>