<?xml version="1.0" encoding="iso-8859-1"?>
<!-- Uploaded to: SVG Repo, www.svgrepo.com, Generator: SVG Repo Mixer Tools -->
<svg fill="#000000" height="800px" width="800px" version="1.1" id="Layer_1" xmlns="http://www.w3.org/2000/svg" xmlns:xlink="http://www.w3.org/1999/xlink" 
	 viewBox="0 0 512 512" xml:space="preserve">
<g>
	<g>
		<path d="M448,32c-27.872,0-51.562,17.808-60.346,42.667H21.333C9.551,74.667,0,84.218,0,96c0,11.782,9.551,21.333,21.333,21.333
			h85.333v78.215c-27.953-8.686-42.503-12.015-61.706-14.092c-12.616-1.365-23.627,8.52-23.627,21.21V288
			c0,16.76,2.775,33.206,7.884,48.994c0.004,0.014,0.009,0.028,0.013,0.042C55.139,417.027,141.356,480,234.667,480
			C346.408,480,448,389.699,448,288v-85.333c0-12.69-11.011-22.574-23.627-21.21c-19.203,2.077-33.753,5.405-61.706,14.092v-78.215
			h24.987C396.438,142.192,420.128,160,448,160c35.355,0,64-28.645,64-64S483.355,32,448,32z M64,227.88
			c13.218,3.075,29.438,8.078,56.279,16.819c41.485,13.508,67.401,20.435,93.054,22.79v41.845H66.063
			C64.709,302.298,64,295.169,64,288V227.88z M82.683,352h130.65v83.958C158.19,428.897,108.501,395.252,82.683,352z M256,435.958
			V352h130.65C360.833,395.252,311.143,428.897,256,435.958z M405.333,288c0,7.169-0.709,14.298-2.063,21.333H256v-41.845
			c25.653-2.355,51.569-9.281,93.054-22.79c26.842-8.74,43.062-13.743,56.279-16.819V288z M320,209.192
			c-38.492,12.036-60.513,16.578-85.333,16.578c-24.82,0-46.841-4.542-85.333-16.578v-91.859H320V209.192z M448,117.333
			c-11.791,0-21.333-9.542-21.333-21.333S436.209,74.667,448,74.667S469.333,84.209,469.333,96S459.791,117.333,448,117.333z"/>
	</g>
</g>
</svg>