<?xml version="1.0" encoding="iso-8859-1"?>
<!-- Uploaded to: SVG Repo, www.svgrepo.com, Generator: SVG Repo Mixer Tools -->
<svg fill="#000000" height="800px" width="800px" version="1.1" id="Layer_1" xmlns="http://www.w3.org/2000/svg" xmlns:xlink="http://www.w3.org/1999/xlink" 
	 viewBox="0 0 512.012 512.012" xml:space="preserve">
<g>
	<g>
		<path d="M512,288.027c0-17.301-8.405-32.555-21.227-42.304c22.165-30.101,21.376-70.251,21.184-74.24
			c0-34.24-18.347-63.915-51.669-83.563c-12.501-7.403-28.736-11.307-43.563-10.325c-4.843,0.299-9.259,0.832-13.461,1.451
			C383.637,57.584,355.051,43.76,324.8,42.715c-2.965-0.085-4.907-0.043-5.013-0.021c-16.832,0.021-30.827,3.691-42.453,8.491
			V21.339c0-11.776-9.536-21.333-21.333-21.333s-21.333,9.557-21.333,21.333v29.76c-11.477-4.757-25.237-8.384-41.728-8.384h-0.043
			c0,0-2.069-0.085-5.739,0c-30.229,1.045-58.795,14.869-78.421,36.331c-4.203-0.619-8.619-1.152-13.461-1.451
			c-14.763-0.939-31.04,2.923-43.563,10.325c-33.323,19.648-51.669,49.323-51.648,82.603c-0.213,4.864-1.003,45.077,21.163,75.2
			C8.405,255.472,0,270.726,0,288.027c0,17.365,8.448,32.661,21.333,42.389v85.867C8.448,426.011,0,441.307,0,458.672
			c0,29.397,23.915,53.333,53.333,53.333h405.333c29.419,0,53.333-23.936,53.333-53.333c0-17.365-8.448-32.661-21.333-42.389
			v-85.867C503.552,320.688,512,305.392,512,288.027z M277.333,99.803c6.891-5.568,21.355-14.443,43.435-14.464l2.603,0.021
			c21.397,0.747,42.069,12.117,53.632,28.736c0.128,0.192,0.128,0.427,0.256,0.619c1.536,2.219,2.987,4.523,4.224,6.997
			c2.069,11.029,3.669,29.461,0.725,40.768l-33.216,72.213h-71.659V99.803z M42.709,171.483c0-23.744,16.683-38.571,30.656-46.827
			c3.883-2.283,9.109-3.84,14.165-4.352c-0.064,0.299-0.085,0.789-0.149,1.109c-0.341,2.453-0.661,5.184-0.96,8.213
			c-0.149,1.621-0.277,3.136-0.405,4.885c-0.149,2.133-0.235,4.373-0.299,6.656c-0.171,4.651-0.043,9.344,0.256,14.293
			c0.064,0.939,0.085,1.856,0.192,2.816c0.277,3.307,0.811,6.464,1.408,9.728c0.149,0.768,0.341,1.493,0.512,2.24
			c0.597,2.731,0.96,5.547,1.835,8.107c0.235,0.725,0.512,1.429,0.832,2.091l25.173,54.251H85.888
			c-11.733,0-20.672-3.349-27.328-10.261C44.48,209.819,42.325,181.872,42.709,171.483z M458.667,469.339H53.333
			c-5.867,0-10.667-4.779-10.667-10.667c0-5.845,4.736-10.581,10.56-10.645h405.547c5.824,0.064,10.56,4.8,10.56,10.645
			C469.333,464.56,464.533,469.339,458.667,469.339z M458.667,298.694H53.333c-5.867,0-10.667-4.779-10.667-10.667
			s4.8-10.667,10.667-10.667h32.555h63.445H256h106.667h63.445h32.555c5.867,0,10.667,4.779,10.667,10.667
			S464.533,298.694,458.667,298.694z"/>
	</g>
</g>
</svg>