<?xml version="1.0" encoding="iso-8859-1"?>
<!-- Uploaded to: SVG Repo, www.svgrepo.com, Generator: SVG Repo Mixer Tools -->
<svg fill="#000000" height="800px" width="800px" version="1.1" id="Layer_1" xmlns="http://www.w3.org/2000/svg" xmlns:xlink="http://www.w3.org/1999/xlink" 
	 viewBox="0 0 512 512" xml:space="preserve">
<g>
	<g>
		<path d="M500.203,386.24l-42.667-21.333c-6.869-3.413-15.019-2.88-21.376,1.344l-30.827,20.565v-24.149
			c0-7.872-4.331-15.104-11.264-18.816c-6.933-3.712-15.36-3.285-21.909,1.067L320,379.691V181.952
			c2.731,1.451,5.248,2.965,7.189,4.693c8.811,7.808,22.293,7.019,30.123-1.835c7.808-8.832,6.976-22.315-1.835-30.123
			c-16.704-14.763-46.251-23.36-78.144-25.984V42.667c11.797,0,21.333-9.557,21.333-21.333S289.131,0,277.333,0h-42.667
			c-11.797,0-21.333,9.557-21.333,21.333s9.536,21.333,21.333,21.333v86.165c-31.104,2.709-60.16,11.072-77.547,25.365
			c-9.109,7.488-10.411,20.907-2.923,30.016c4.224,5.12,10.325,7.787,16.491,7.787c4.757,0,9.557-1.6,13.525-4.864
			c2.133-1.749,4.843-3.328,7.787-4.8v180.331h-42.667c0-11.776-9.536-21.333-21.333-21.333H42.667
			c-8.085,0-15.467,4.565-19.093,11.797L2.24,395.797C0.768,398.741,0,402.027,0,405.333v85.333C0,502.443,9.536,512,21.333,512h64
			h149.333H384h106.667c11.797,0,21.333-9.557,21.333-21.333v-85.333C512,397.248,507.435,389.867,500.203,386.24z M194.24,457.536
			l5.909,11.797h-93.483v-14.869l32.747-49.131h49.131l3.755,1.259c0.171,2.859,0.661,5.717,1.941,8.277l5.909,11.797l-5.909,11.797
			C191.253,444.459,191.253,451.541,194.24,457.536z M469.333,469.333h-64V438.08l44.203-29.461l19.797,9.899V469.333z"/>
	</g>
</g>
</svg>