<?xml version="1.0" encoding="iso-8859-1"?>
<!-- Uploaded to: SVG Repo, www.svgrepo.com, Generator: SVG Repo Mixer Tools -->
<svg fill="#000000" height="800px" width="800px" version="1.1" id="Layer_1" xmlns="http://www.w3.org/2000/svg" xmlns:xlink="http://www.w3.org/1999/xlink" 
	 viewBox="0 0 512.009 512.009" xml:space="preserve">
<g>
	<g>
		<path d="M448.005,384.009c-9.87,0-19.224,2.25-27.581,6.258l-74.006-74.006l32.127-32.12c3.989-3.989,6.251-9.429,6.251-15.083
			c0-5.653-2.261-11.072-6.251-15.083C211.612,87.021,37.639,5.379,30.322,1.987C22.194-1.789,12.572-0.083,6.258,6.253
			c-6.336,6.336-8.043,15.936-4.267,24.064c0.9,1.941,7.305,15.609,19.347,37.76v155.936c0,29.397,23.915,53.333,53.333,53.333
			c26.638,0,48.761-19.625,52.706-45.159c0.209,0.278,0.418,0.557,0.627,0.835v118.986c0,29.419,23.915,53.333,53.333,53.333
			c27.248,0,49.759-20.52,52.935-46.923c6.425,6.711,12.986,13.422,19.686,20.122c4.16,4.181,9.621,6.251,15.083,6.251
			c5.461,0,10.923-2.069,15.083-6.251l32.125-32.118l74.011,74.011c-4.007,8.356-6.256,17.707-6.256,27.575
			c0,35.285,28.715,64,64,64s64-28.715,64-64S483.29,384.009,448.005,384.009z M85.338,224.013c0,5.888-4.8,10.667-10.667,10.667
			c-5.867,0-10.667-4.779-10.667-10.667v-83.589c6.58,10.381,13.688,21.29,21.333,32.641V224.013z M192.005,352.009
			c0,5.888-4.8,10.667-10.667,10.667c-5.867,0-10.667-4.779-10.667-10.667v-64.96c6.896,8.306,14.004,16.674,21.333,25.085V352.009z
			 M269.17,333.165c-13.752-14.243-26.864-28.528-39.376-42.737c-0.147-0.179-0.281-0.368-0.434-0.542
			c-21.525-24.448-42.155-49.707-63.019-77.248c-0.099-0.132-0.21-0.251-0.312-0.38C125.33,158.424,94.514,109.562,73.628,73.624
			c61.781,35.904,161.728,101.12,259.52,195.563L269.17,333.165z M448.005,469.343c-11.776,0-21.333-9.579-21.333-21.333
			c0-11.755,9.557-21.333,21.333-21.333s21.333,9.579,21.333,21.333C469.338,459.764,459.781,469.343,448.005,469.343z"/>
	</g>
</g>
</svg>