<?xml version="1.0" encoding="iso-8859-1"?>
<!-- Uploaded to: SVG Repo, www.svgrepo.com, Generator: SVG Repo Mixer Tools -->
<svg fill="#000000" height="800px" width="800px" version="1.1" id="Layer_1" xmlns="http://www.w3.org/2000/svg" xmlns:xlink="http://www.w3.org/1999/xlink" 
	 viewBox="0 0 512 512" xml:space="preserve">
<g transform="translate(1 1)">
	<g>
		<g>
			<path d="M511,50.2C511,22.04,487.96-1,459.8-1H92.867c-28.16,0-51.2,23.04-51.2,51.2v384H-1v25.6c0,28.16,23.04,51.2,51.2,51.2
				h324.267c28.16,0,51.2-23.04,51.2-51.2V255H511V50.2z M50.2,493.933c-18.773,0-34.133-15.36-34.133-34.133v-8.533h25.6h281.6
				v8.533c0,12.8,4.267,24.747,12.8,34.133H50.2z M408.6,459.8c0,18.773-15.36,34.133-34.133,34.133
				c-18.773,0-34.133-15.36-34.133-34.133v-25.6h-281.6v-384c0-18.773,15.36-34.133,34.133-34.133H421.4
				c-1.642,2.007-3.158,4.137-4.541,6.361c-4.799,7.378-7.758,16.046-8.197,25.35c-0.04,0.804-0.062,1.611-0.062,2.422V255V459.8z
				 M493.933,237.933h-68.267V50.2c0-18.773,15.36-34.133,34.133-34.133c18.773,0,34.133,15.36,34.133,34.133V237.933z"/>
			<path d="M195.267,127h68.267c5.12,0,8.533-3.413,8.533-8.533s-3.413-8.533-8.533-8.533h-68.267c-5.12,0-8.533,3.413-8.533,8.533
				S190.147,127,195.267,127z"/>
			<path d="M161.133,109.933c-5.12,0-8.533,3.413-8.533,8.533s3.413,8.533,8.533,8.533s8.533-3.413,8.533-8.533
				S166.253,109.933,161.133,109.933z"/>
			<path d="M92.867,127H127c5.12,0,8.533-3.413,8.533-8.533s-3.413-8.533-8.533-8.533H92.867c-5.12,0-8.533,3.413-8.533,8.533
				S87.747,127,92.867,127z"/>
			<path d="M374.467,109.933H331.8c-5.12,0-8.533,3.413-8.533,8.533S326.68,127,331.8,127h42.667c5.12,0,8.533-3.413,8.533-8.533
				S379.587,109.933,374.467,109.933z"/>
			<path d="M297.667,127c5.12,0,8.533-3.413,8.533-8.533s-3.413-8.533-8.533-8.533s-8.533,3.413-8.533,8.533
				S292.547,127,297.667,127z"/>
			<path d="M161.133,67.267H127c-5.12,0-8.533,3.413-8.533,8.533s3.413,8.533,8.533,8.533h34.133c5.12,0,8.533-3.413,8.533-8.533
				S166.253,67.267,161.133,67.267z"/>
			<path d="M92.867,84.333c5.12,0,8.533-3.413,8.533-8.533s-3.413-8.533-8.533-8.533c-5.12,0-8.533,3.413-8.533,8.533
				S87.747,84.333,92.867,84.333z"/>
			<path d="M374.467,67.267c-5.12,0-8.533,3.413-8.533,8.533s3.413,8.533,8.533,8.533S383,80.92,383,75.8
				S379.587,67.267,374.467,67.267z"/>
			<path d="M314.733,84.333h25.6c5.12,0,8.533-3.413,8.533-8.533s-3.413-8.533-8.533-8.533h-25.6c-5.12,0-8.533,3.413-8.533,8.533
				S309.613,84.333,314.733,84.333z"/>
			<path d="M280.6,84.333c5.12,0,8.533-3.413,8.533-8.533s-3.413-8.533-8.533-8.533s-8.533,3.413-8.533,8.533
				S275.48,84.333,280.6,84.333z"/>
			<path d="M195.267,84.333c5.12,0,8.533-3.413,8.533-8.533s-3.413-8.533-8.533-8.533s-8.533,3.413-8.533,8.533
				S190.147,84.333,195.267,84.333z"/>
			<path d="M229.4,84.333h17.067c5.12,0,8.533-3.413,8.533-8.533s-3.413-8.533-8.533-8.533H229.4c-5.12,0-8.533,3.413-8.533,8.533
				S224.28,84.333,229.4,84.333z"/>
			<path d="M161.133,152.6H127c-5.12,0-8.533,3.413-8.533,8.533s3.413,8.533,8.533,8.533h34.133c5.12,0,8.533-3.413,8.533-8.533
				S166.253,152.6,161.133,152.6z"/>
			<path d="M92.867,169.667c5.12,0,8.533-3.413,8.533-8.533s-3.413-8.533-8.533-8.533c-5.12,0-8.533,3.413-8.533,8.533
				S87.747,169.667,92.867,169.667z"/>
			<path d="M374.467,152.6c-5.12,0-8.533,3.413-8.533,8.533s3.413,8.533,8.533,8.533s8.533-3.413,8.533-8.533
				S379.587,152.6,374.467,152.6z"/>
			<path d="M348.867,161.133c0-5.12-3.413-8.533-8.533-8.533h-25.6c-5.12,0-8.533,3.413-8.533,8.533s3.413,8.533,8.533,8.533h25.6
				C345.453,169.667,348.867,166.253,348.867,161.133z"/>
			<path d="M280.6,152.6c-5.12,0-8.533,3.413-8.533,8.533s3.413,8.533,8.533,8.533s8.533-3.413,8.533-8.533
				S285.72,152.6,280.6,152.6z"/>
			<path d="M195.267,169.667c5.12,0,8.533-3.413,8.533-8.533s-3.413-8.533-8.533-8.533s-8.533,3.413-8.533,8.533
				S190.147,169.667,195.267,169.667z"/>
			<path d="M229.4,152.6c-5.12,0-8.533,3.413-8.533,8.533s3.413,8.533,8.533,8.533h17.067c5.12,0,8.533-3.413,8.533-8.533
				s-3.413-8.533-8.533-8.533H229.4z"/>
			<path d="M195.267,212.333h68.267c5.12,0,8.533-3.413,8.533-8.533c0-5.12-3.413-8.533-8.533-8.533h-68.267
				c-5.12,0-8.533,3.413-8.533,8.533C186.733,208.92,190.147,212.333,195.267,212.333z"/>
			<path d="M161.133,195.267c-5.12,0-8.533,3.413-8.533,8.533c0,5.12,3.413,8.533,8.533,8.533s8.533-3.413,8.533-8.533
				C169.667,198.68,166.253,195.267,161.133,195.267z"/>
			<path d="M92.867,212.333H127c5.12,0,8.533-3.413,8.533-8.533c0-5.12-3.413-8.533-8.533-8.533H92.867
				c-5.12,0-8.533,3.413-8.533,8.533C84.333,208.92,87.747,212.333,92.867,212.333z"/>
			<path d="M374.467,195.267H331.8c-5.12,0-8.533,3.413-8.533,8.533c0,5.12,3.413,8.533,8.533,8.533h42.667
				c5.12,0,8.533-3.413,8.533-8.533C383,198.68,379.587,195.267,374.467,195.267z"/>
			<path d="M297.667,212.333c5.12,0,8.533-3.413,8.533-8.533c0-5.12-3.413-8.533-8.533-8.533s-8.533,3.413-8.533,8.533
				C289.133,208.92,292.547,212.333,297.667,212.333z"/>
			<path d="M161.133,237.933H127c-5.12,0-8.533,3.413-8.533,8.533S121.88,255,127,255h34.133c5.12,0,8.533-3.413,8.533-8.533
				S166.253,237.933,161.133,237.933z"/>
			<path d="M92.867,255c5.12,0,8.533-3.413,8.533-8.533s-3.413-8.533-8.533-8.533c-5.12,0-8.533,3.413-8.533,8.533
				S87.747,255,92.867,255z"/>
			<path d="M374.467,237.933c-5.12,0-8.533,3.413-8.533,8.533s3.413,8.533,8.533,8.533s8.533-3.413,8.533-8.533
				S379.587,237.933,374.467,237.933z"/>
			<path d="M340.333,237.933h-25.6c-5.12,0-8.533,3.413-8.533,8.533s3.413,8.533,8.533,8.533h25.6c5.12,0,8.533-3.413,8.533-8.533
				S345.453,237.933,340.333,237.933z"/>
			<path d="M280.6,237.933c-5.12,0-8.533,3.413-8.533,8.533S275.48,255,280.6,255s8.533-3.413,8.533-8.533
				S285.72,237.933,280.6,237.933z"/>
			<path d="M195.267,255c5.12,0,8.533-3.413,8.533-8.533s-3.413-8.533-8.533-8.533s-8.533,3.413-8.533,8.533
				S190.147,255,195.267,255z"/>
			<path d="M246.467,237.933H229.4c-5.12,0-8.533,3.413-8.533,8.533S224.28,255,229.4,255h17.067c5.12,0,8.533-3.413,8.533-8.533
				S251.587,237.933,246.467,237.933z"/>
			<path d="M161.133,280.6H127c-5.12,0-8.533,3.413-8.533,8.533s3.413,8.533,8.533,8.533h34.133c5.12,0,8.533-3.413,8.533-8.533
				S166.253,280.6,161.133,280.6z"/>
			<path d="M92.867,297.667c5.12,0,8.533-3.413,8.533-8.533s-3.413-8.533-8.533-8.533c-5.12,0-8.533,3.413-8.533,8.533
				S87.747,297.667,92.867,297.667z"/>
			<path d="M374.467,280.6c-5.12,0-8.533,3.413-8.533,8.533s3.413,8.533,8.533,8.533s8.533-3.413,8.533-8.533
				S379.587,280.6,374.467,280.6z"/>
			<path d="M340.333,280.6h-25.6c-5.12,0-8.533,3.413-8.533,8.533s3.413,8.533,8.533,8.533h25.6c5.12,0,8.533-3.413,8.533-8.533
				S345.453,280.6,340.333,280.6z"/>
			<path d="M280.6,280.6c-5.12,0-8.533,3.413-8.533,8.533s3.413,8.533,8.533,8.533s8.533-3.413,8.533-8.533
				S285.72,280.6,280.6,280.6z"/>
			<path d="M195.267,297.667c5.12,0,8.533-3.413,8.533-8.533s-3.413-8.533-8.533-8.533s-8.533,3.413-8.533,8.533
				S190.147,297.667,195.267,297.667z"/>
			<path d="M246.467,280.6H229.4c-5.12,0-8.533,3.413-8.533,8.533s3.413,8.533,8.533,8.533h17.067c5.12,0,8.533-3.413,8.533-8.533
				S251.587,280.6,246.467,280.6z"/>
			<path d="M263.533,323.267h-68.267c-5.12,0-8.533,3.413-8.533,8.533c0,5.12,3.413,8.533,8.533,8.533h68.267
				c5.12,0,8.533-3.413,8.533-8.533C272.067,326.68,268.653,323.267,263.533,323.267z"/>
			<path d="M161.133,323.267c-5.12,0-8.533,3.413-8.533,8.533c0,5.12,3.413,8.533,8.533,8.533s8.533-3.413,8.533-8.533
				C169.667,326.68,166.253,323.267,161.133,323.267z"/>
			<path d="M92.867,340.333H127c5.12,0,8.533-3.413,8.533-8.533c0-5.12-3.413-8.533-8.533-8.533H92.867
				c-5.12,0-8.533,3.413-8.533,8.533C84.333,336.92,87.747,340.333,92.867,340.333z"/>
			<path d="M374.467,323.267H331.8c-5.12,0-8.533,3.413-8.533,8.533c0,5.12,3.413,8.533,8.533,8.533h42.667
				c5.12,0,8.533-3.413,8.533-8.533C383,326.68,379.587,323.267,374.467,323.267z"/>
			<path d="M297.667,323.267c-5.12,0-8.533,3.413-8.533,8.533c0,5.12,3.413,8.533,8.533,8.533s8.533-3.413,8.533-8.533
				C306.2,326.68,302.787,323.267,297.667,323.267z"/>
			<path d="M161.133,365.933H127c-5.12,0-8.533,3.413-8.533,8.533S121.88,383,127,383h34.133c5.12,0,8.533-3.413,8.533-8.533
				S166.253,365.933,161.133,365.933z"/>
			<path d="M92.867,365.933c-5.12,0-8.533,3.413-8.533,8.533S87.747,383,92.867,383c5.12,0,8.533-3.413,8.533-8.533
				S97.987,365.933,92.867,365.933z"/>
			<path d="M374.467,365.933c-5.12,0-8.533,3.413-8.533,8.533s3.413,8.533,8.533,8.533s8.533-3.413,8.533-8.533
				S379.587,365.933,374.467,365.933z"/>
			<path d="M340.333,365.933h-25.6c-5.12,0-8.533,3.413-8.533,8.533s3.413,8.533,8.533,8.533h25.6c5.12,0,8.533-3.413,8.533-8.533
				S345.453,365.933,340.333,365.933z"/>
			<path d="M280.6,365.933c-5.12,0-8.533,3.413-8.533,8.533S275.48,383,280.6,383s8.533-3.413,8.533-8.533
				S285.72,365.933,280.6,365.933z"/>
			<path d="M195.267,365.933c-5.12,0-8.533,3.413-8.533,8.533s3.413,8.533,8.533,8.533s8.533-3.413,8.533-8.533
				S200.387,365.933,195.267,365.933z"/>
			<path d="M246.467,365.933H229.4c-5.12,0-8.533,3.413-8.533,8.533S224.28,383,229.4,383h17.067c5.12,0,8.533-3.413,8.533-8.533
				S251.587,365.933,246.467,365.933z"/>
		</g>
	</g>
</g>
</svg>