<?xml version="1.0" encoding="iso-8859-1"?>
<!-- Uploaded to: SVG Repo, www.svgrepo.com, Generator: SVG Repo Mixer Tools -->
<svg height="800px" width="800px" version="1.1" id="Layer_1" xmlns="http://www.w3.org/2000/svg" xmlns:xlink="http://www.w3.org/1999/xlink" 
	 viewBox="0 0 512 512" xml:space="preserve">
<g transform="translate(1 1)">
	<g>
		<path style="fill:#FFE100;" d="M32.574,166.869c-5.036,0-8.393-3.357-8.393-8.393V74.541c0-5.036,3.357-8.393,8.393-8.393
			s8.393,3.357,8.393,8.393v83.934C40.967,163.511,37.61,166.869,32.574,166.869z"/>
		<path style="fill:#FFE100;" d="M49.361,108.115H15.787c-5.036,0-8.393-3.357-8.393-8.393s3.357-8.393,8.393-8.393h33.574
			c5.036,0,8.393,3.357,8.393,8.393S54.397,108.115,49.361,108.115z"/>
		<path style="fill:#FFE100;" d="M141.689,141.689c-5.036,0-8.393-3.357-8.393-8.393V74.541c0-5.036,3.357-8.393,8.393-8.393
			c5.036,0,8.393,3.357,8.393,8.393v58.754C150.082,138.331,146.725,141.689,141.689,141.689z"/>
		<path style="fill:#FFE100;" d="M158.475,108.115h-33.574c-5.036,0-8.393-3.357-8.393-8.393s3.357-8.393,8.393-8.393h33.574
			c5.036,0,8.393,3.357,8.393,8.393S163.511,108.115,158.475,108.115z"/>
		<path style="fill:#FFE100;" d="M259.197,141.689c-5.036,0-8.393-3.357-8.393-8.393V74.541c0-5.036,3.357-8.393,8.393-8.393
			s8.393,3.357,8.393,8.393v58.754C267.59,138.331,264.233,141.689,259.197,141.689z"/>
		<path style="fill:#FFE100;" d="M275.984,108.115H242.41c-5.036,0-8.393-3.357-8.393-8.393s3.357-8.393,8.393-8.393h33.574
			c5.036,0,8.393,3.357,8.393,8.393S281.02,108.115,275.984,108.115z"/>
		<path style="fill:#FFE100;" d="M376.705,141.689c-5.036,0-8.393-3.357-8.393-8.393V74.541c0-5.036,3.357-8.393,8.393-8.393
			s8.393,3.357,8.393,8.393v58.754C385.098,138.331,381.741,141.689,376.705,141.689z"/>
		<path style="fill:#FFE100;" d="M393.492,108.115h-33.574c-5.036,0-8.393-3.357-8.393-8.393s3.357-8.393,8.393-8.393h33.574
			c5.036,0,8.393,3.357,8.393,8.393S398.528,108.115,393.492,108.115z"/>
		<path style="fill:#FFE100;" d="M485.82,284.377c-5.036,0-8.393-3.357-8.393-8.393V74.541c0-5.036,3.357-8.393,8.393-8.393
			s8.393,3.357,8.393,8.393v201.443C494.213,281.02,490.856,284.377,485.82,284.377z"/>
		<path style="fill:#FFE100;" d="M502.607,108.115h-33.574c-5.036,0-8.393-3.357-8.393-8.393s3.357-8.393,8.393-8.393h33.574
			c5.036,0,8.393,3.357,8.393,8.393S507.643,108.115,502.607,108.115z"/>
		<polygon style="fill:#FFE100;" points="74.541,275.984 24.18,275.984 24.18,124.902 		"/>
		<polygon style="fill:#FFE100;" points="91.328,275.984 40.967,275.984 40.967,124.902 		"/>
	</g>
	<polygon style="fill:#FFFFFF;" points="24.18,124.902 24.18,275.984 40.967,275.984 40.967,175.262 	"/>
	<g>
		<polygon style="fill:#FFE100;" points="309.557,275.984 192.049,275.984 250.803,124.902 		"/>
		<polygon style="fill:#FFE100;" points="427.066,275.984 309.557,275.984 368.311,124.902 		"/>
		<polygon style="fill:#FFE100;" points="192.049,275.984 74.541,275.984 133.295,124.902 		"/>
		<polygon style="fill:#FFE100;" points="427.066,275.984 477.426,275.984 477.426,124.902 		"/>
		<polygon style="fill:#FFE100;" points="32.574,410.279 469.033,410.279 469.033,309.557 32.574,309.557 		"/>
	</g>
	<g>
		<polygon style="fill:#FFA800;" points="443.852,410.279 469.033,410.279 469.033,309.557 443.852,309.557 		"/>
		<polygon style="fill:#FFA800;" points="477.426,124.902 477.426,275.984 460.639,275.984 460.639,175.262 		"/>
	</g>
	<g>
		<path style="fill:#63D3FD;" d="M477.426,309.557H24.18c-9.233,0-16.787-7.554-16.787-16.787s7.554-16.787,16.787-16.787h453.246
			c9.233,0,16.787,7.554,16.787,16.787S486.659,309.557,477.426,309.557"/>
		<path style="fill:#63D3FD;" d="M477.426,443.852H24.18c-9.233,0-16.787-7.554-16.787-16.787c0-9.233,7.554-16.787,16.787-16.787
			h453.246c9.233,0,16.787,7.554,16.787,16.787C494.213,436.298,486.659,443.852,477.426,443.852"/>
	</g>
	<g>
		<path style="fill:#3DB9F9;" d="M477.426,275.984h-25.18c9.233,0,16.787,7.554,16.787,16.787s-7.554,16.787-16.787,16.787h25.18
			c9.233,0,16.787-7.554,16.787-16.787S486.659,275.984,477.426,275.984"/>
		<path style="fill:#3DB9F9;" d="M477.426,410.279h-25.18c9.233,0,16.787,7.554,16.787,16.787c0,9.233-7.554,16.787-16.787,16.787
			h25.18c9.233,0,16.787-7.554,16.787-16.787C494.213,417.833,486.659,410.279,477.426,410.279"/>
	</g>
	<g>
		<polygon style="fill:#FFFFFF;" points="32.574,410.279 57.754,410.279 57.754,309.557 32.574,309.557 		"/>
		<path style="fill:#FFFFFF;" d="M24.18,275.984h25.18c-9.233,0-16.787,7.554-16.787,16.787s7.554,16.787,16.787,16.787H24.18
			c-9.233,0-16.787-7.554-16.787-16.787S14.948,275.984,24.18,275.984"/>
		<path style="fill:#FFFFFF;" d="M24.18,410.279h25.18c-9.233,0-16.787,7.554-16.787,16.787c0,9.233,7.554,16.787,16.787,16.787
			H24.18c-9.233,0-16.787-7.554-16.787-16.787C7.393,417.833,14.948,410.279,24.18,410.279"/>
	</g>
	<path d="M24.18,133.295c-5.036,0-8.393-3.357-8.393-8.393V66.148c0-5.036,3.357-8.393,8.393-8.393s8.393,3.357,8.393,8.393v58.754
		C32.574,129.938,29.216,133.295,24.18,133.295z"/>
	<path d="M40.967,99.721H7.393C2.357,99.721-1,96.364-1,91.328s3.357-8.393,8.393-8.393h33.574c5.036,0,8.393,3.357,8.393,8.393
		S46.003,99.721,40.967,99.721z"/>
	<path d="M133.295,133.295c-5.036,0-8.393-3.357-8.393-8.393V66.148c0-5.036,3.357-8.393,8.393-8.393s8.393,3.357,8.393,8.393
		v58.754C141.689,129.938,138.331,133.295,133.295,133.295z"/>
	<path d="M150.082,99.721h-33.574c-5.036,0-8.393-3.357-8.393-8.393s3.357-8.393,8.393-8.393h33.574
		c5.036,0,8.393,3.357,8.393,8.393S155.118,99.721,150.082,99.721z"/>
	<path d="M250.803,133.295c-5.036,0-8.393-3.357-8.393-8.393V66.148c0-5.036,3.357-8.393,8.393-8.393s8.393,3.357,8.393,8.393
		v58.754C259.197,129.938,255.839,133.295,250.803,133.295z"/>
	<path d="M267.59,99.721h-33.574c-5.036,0-8.393-3.357-8.393-8.393s3.357-8.393,8.393-8.393h33.574c5.036,0,8.393,3.357,8.393,8.393
		S272.626,99.721,267.59,99.721z"/>
	<path d="M368.311,133.295c-5.036,0-8.393-3.357-8.393-8.393V66.148c0-5.036,3.357-8.393,8.393-8.393
		c5.036,0,8.393,3.357,8.393,8.393v58.754C376.705,129.938,373.348,133.295,368.311,133.295z"/>
	<path d="M385.098,99.721h-33.574c-5.036,0-8.393-3.357-8.393-8.393s3.357-8.393,8.393-8.393h33.574
		c5.036,0,8.393,3.357,8.393,8.393S390.134,99.721,385.098,99.721z"/>
	<path d="M477.426,133.295c-5.036,0-8.393-3.357-8.393-8.393V66.148c0-5.036,3.357-8.393,8.393-8.393
		c5.036,0,8.393,3.357,8.393,8.393v58.754C485.82,129.938,482.462,133.295,477.426,133.295z"/>
	<path d="M494.213,99.721h-33.574c-5.036,0-8.393-3.357-8.393-8.393s3.357-8.393,8.393-8.393h33.574
		c5.036,0,8.393,3.357,8.393,8.393S499.249,99.721,494.213,99.721z"/>
	<path d="M477.426,317.951H24.18C9.911,317.951-1,307.039-1,292.77s10.911-25.18,25.18-25.18h453.246
		c14.269,0,25.18,10.911,25.18,25.18S491.695,317.951,477.426,317.951z M24.18,284.377c-5.036,0-8.393,3.357-8.393,8.393
		s3.357,8.393,8.393,8.393h453.246c5.036,0,8.393-3.357,8.393-8.393s-3.357-8.393-8.393-8.393H24.18z"/>
	<path d="M477.426,452.246H24.18C9.911,452.246-1,441.334-1,427.066s10.911-25.18,25.18-25.18h453.246
		c14.269,0,25.18,10.911,25.18,25.18S491.695,452.246,477.426,452.246z M24.18,418.672c-5.036,0-8.393,3.357-8.393,8.393
		s3.357,8.393,8.393,8.393h453.246c5.036,0,8.393-3.357,8.393-8.393s-3.357-8.393-8.393-8.393H24.18z"/>
	<path d="M477.426,418.672H24.18V301.164h453.246V418.672z M40.967,401.885h419.672v-83.934H40.967V401.885z"/>
	<path d="M217.229,368.311h-67.148c-5.036,0-8.393-3.357-8.393-8.393c0-5.036,3.357-8.393,8.393-8.393h67.148
		c5.036,0,8.393,3.357,8.393,8.393C225.623,364.954,222.266,368.311,217.229,368.311z"/>
	<path d="M351.525,368.311h-67.148c-5.036,0-8.393-3.357-8.393-8.393c0-5.036,3.357-8.393,8.393-8.393h67.148
		c5.036,0,8.393,3.357,8.393,8.393C359.918,364.954,356.561,368.311,351.525,368.311z"/>
	<path d="M259.197,359.918c0,5.036-3.357,8.393-8.393,8.393s-8.393-3.357-8.393-8.393c0-5.036,3.357-8.393,8.393-8.393
		S259.197,354.882,259.197,359.918"/>
	<path d="M435.459,368.311h-16.787c-5.036,0-8.393-3.357-8.393-8.393c0-5.036,3.357-8.393,8.393-8.393h16.787
		c5.036,0,8.393,3.357,8.393,8.393C443.852,364.954,440.495,368.311,435.459,368.311z"/>
	<path d="M393.492,359.918c0,5.036-3.357,8.393-8.393,8.393c-5.036,0-8.393-3.357-8.393-8.393c0-5.036,3.357-8.393,8.393-8.393
		C390.134,351.525,393.492,354.882,393.492,359.918"/>
	<path d="M82.934,368.311H66.148c-5.036,0-8.393-3.357-8.393-8.393c0-5.036,3.357-8.393,8.393-8.393h16.787
		c5.036,0,8.393,3.357,8.393,8.393C91.328,364.954,87.97,368.311,82.934,368.311z"/>
	<path d="M108.115,359.918c0-5.036,3.357-8.393,8.393-8.393c5.036,0,8.393,3.357,8.393,8.393c0,5.036-3.357,8.393-8.393,8.393
		C111.472,368.311,108.115,364.954,108.115,359.918"/>
	<path d="M74.541,284.377H24.18c-5.036,0-8.393-3.357-8.393-8.393V124.902c0-4.197,3.357-7.554,6.715-8.393
		c4.197-0.839,8.393,1.679,9.233,5.875l50.361,151.082c1.679,2.518,0.839,5.036-0.839,7.554
		C79.577,283.538,77.059,284.377,74.541,284.377z M32.574,267.59H62.79l-30.216-90.649V267.59z"/>
	<path d="M309.557,284.377H192.049c-2.518,0-5.036-1.679-6.715-3.357c-1.679-2.518-1.679-5.036-0.839-7.554l58.754-151.082
		c0.839-3.357,4.197-5.875,7.554-5.875s6.715,2.518,7.554,5.036l58.754,151.082c0.839,2.518,0.839,5.875-0.839,7.554
		C314.593,281.859,312.075,284.377,309.557,284.377z M204.639,267.59h93.167l-47.003-119.187L204.639,267.59z"/>
	<path d="M427.066,284.377H309.557c-2.518,0-5.036-1.679-6.715-3.357c-1.679-1.679-1.679-5.036-0.839-7.554l58.754-151.082
		c0.839-3.357,4.197-5.875,7.554-5.875s6.715,2.518,7.554,5.036l58.754,151.082c0.839,2.518,0.839,5.875-0.839,7.554
		C432.102,281.859,429.584,284.377,427.066,284.377z M322.148,267.59h93.167l-47.003-119.187L322.148,267.59z"/>
	<path d="M192.049,284.377H74.541c-2.518,0-5.036-1.679-6.715-3.357c-1.679-2.518-1.679-5.036-0.839-7.554l58.754-151.082
		c0.839-3.357,4.197-5.875,7.554-5.875s6.715,2.518,7.554,5.036l58.754,151.082c0.839,2.518,0.839,5.875-0.839,7.554
		C197.085,282.698,194.567,284.377,192.049,284.377z M87.131,267.59h93.167l-47.003-119.187L87.131,267.59z"/>
	<path d="M477.426,284.377h-50.361c-2.518,0-5.036-1.679-6.715-3.357c-1.679-2.518-1.679-5.036-0.839-7.554l50.361-151.082
		c1.679-4.197,5.036-5.875,9.233-5.875c3.357,0.839,6.715,4.197,6.715,8.393v151.082C485.82,281.02,482.462,284.377,477.426,284.377
		z M438.816,267.59h30.216v-90.649L438.816,267.59z"/>
	<path d="M133.295,250.803c-5.036,0-8.393-3.357-8.393-8.393v-33.574c0-5.036,3.357-8.393,8.393-8.393s8.393,3.357,8.393,8.393
		v33.574C141.689,247.446,138.331,250.803,133.295,250.803z"/>
	<path d="M250.803,250.803c-5.036,0-8.393-3.357-8.393-8.393v-33.574c0-5.036,3.357-8.393,8.393-8.393s8.393,3.357,8.393,8.393
		v33.574C259.197,247.446,255.839,250.803,250.803,250.803z"/>
	<path d="M368.311,250.803c-5.036,0-8.393-3.357-8.393-8.393v-33.574c0-5.036,3.357-8.393,8.393-8.393
		c5.036,0,8.393,3.357,8.393,8.393v33.574C376.705,247.446,373.348,250.803,368.311,250.803z"/>
</g>
</svg>