<?xml version="1.0" encoding="iso-8859-1"?>
<!-- Uploaded to: SVG Repo, www.svgrepo.com, Generator: SVG Repo Mixer Tools -->
<svg height="800px" width="800px" version="1.1" id="Layer_1" xmlns="http://www.w3.org/2000/svg" xmlns:xlink="http://www.w3.org/1999/xlink" 
	 viewBox="0 0 503.322 503.322" xml:space="preserve">
<g>
	<g>
		<path style="fill:#BA941C;" d="M121.492,303.729c-4.79,0-8.678-3.888-8.678-8.678V190.915c0-4.79,3.888-8.678,8.678-8.678
			s8.678,3.888,8.678,8.678v104.136C130.169,299.841,126.282,303.729,121.492,303.729"/>
		<path style="fill:#BA941C;" d="M26.034,277.695c-4.79,0-8.678-3.888-8.678-8.678V147.525c0-4.79,3.888-8.678,8.678-8.678
			s8.678,3.888,8.678,8.678v121.492C34.712,273.807,30.824,277.695,26.034,277.695"/>
		<path style="fill:#BA941C;" d="M381.831,303.729c-4.79,0-8.678-3.888-8.678-8.678V182.237c0-4.79,3.888-8.678,8.678-8.678
			s8.678,3.888,8.678,8.678v112.814C390.508,299.841,386.621,303.729,381.831,303.729"/>
		<path style="fill:#BA941C;" d="M477.288,277.695c-4.79,0-8.678-3.888-8.678-8.678V147.525c0-4.79,3.888-8.678,8.678-8.678
			s8.678,3.888,8.678,8.678v121.492C485.966,273.807,482.078,277.695,477.288,277.695"/>
	</g>
	<path style="fill:#F0C419;" d="M321.085,390.677v-17.694c0-4.695,3.81-8.504,8.513-8.504h15.933
		c-7.133-38.782-37.723-69.32-76.514-76.453v15.872c0,4.703-3.81,8.513-8.513,8.513h-17.686c-4.703,0-8.513-3.81-8.513-8.513
		v-15.872c-38.791,7.133-69.38,37.671-76.514,76.453h15.933c4.703,0,8.513,3.81,8.513,8.504v17.694c0,4.703-3.81,8.513-8.513,8.513
		h-15.933c7.133,38.773,37.723,69.311,76.514,76.444v-15.872c0-4.695,3.81-8.504,8.513-8.504h17.686c4.703,0,8.513,3.81,8.513,8.504
		v15.941c38.782-7.133,69.311-37.723,76.453-76.514h-15.872C324.894,399.19,321.085,395.38,321.085,390.677"/>
	<polygon style="fill:#BA941C;" points="242.983,260.339 260.339,260.339 260.339,208.271 242.983,208.271 	"/>
	<path style="fill:#F0C419;" d="M251.661,173.559c-99.276,0-208.271-31.084-208.271-69.424s108.995-69.424,208.271-69.424
		s208.271,31.084,208.271,69.424S350.937,173.559,251.661,173.559 M251.661,0C112.675,0,0,46.627,0,104.136
		s112.675,104.136,251.661,104.136s251.661-46.627,251.661-104.136S390.647,0,251.661,0"/>
	<g>
		<path style="fill:#DD342E;" d="M260.507,312.407h-17.694c-4.695,0-8.504-3.81-8.504-8.513v-35.042c0-4.703,3.81-8.513,8.504-8.513
			h17.694c4.703,0,8.513,3.81,8.513,8.513v35.042C269.02,308.597,265.211,312.407,260.507,312.407"/>
		<path style="fill:#DD342E;" d="M260.507,503.322h-17.694c-4.695,0-8.504-3.81-8.504-8.513v-35.042c0-4.703,3.81-8.513,8.504-8.513
			h17.694c4.703,0,8.513,3.81,8.513,8.513v35.042C269.02,499.512,265.211,503.322,260.507,503.322"/>
		<path style="fill:#DD342E;" d="M321.085,390.677v-17.694c0-4.695,3.81-8.504,8.513-8.504h35.042c4.703,0,8.513,3.81,8.513,8.504
			v17.694c0,4.703-3.81,8.513-8.513,8.513h-35.042C324.894,399.19,321.085,395.38,321.085,390.677"/>
		<path style="fill:#DD342E;" d="M130.169,390.677v-17.694c0-4.695,3.81-8.504,8.513-8.504h35.042c4.703,0,8.513,3.81,8.513,8.504
			v17.694c0,4.703-3.81,8.513-8.513,8.513h-35.042C133.979,399.19,130.169,395.38,130.169,390.677"/>
		<path style="fill:#DD342E;" d="M286.373,381.831l-13.807,15.915c-11.55,11.542-30.26,11.542-41.81,0l-13.807-15.915l13.807-15.915
			c11.55-11.542,30.26-11.542,41.81,0L286.373,381.831z"/>
	</g>
	<path style="fill:#BA941C;" d="M147.525,251.661H95.458c-4.79,0-8.678-3.888-8.678-8.678s3.888-8.678,8.678-8.678h52.068
		c4.79,0,8.678,3.888,8.678,8.678S152.316,251.661,147.525,251.661"/>
	<path style="fill:#F0C419;" d="M52.068,295.051c0,14.379-11.655,26.034-26.034,26.034S0,309.43,0,295.051
		c0-14.379,11.655-26.034,26.034-26.034S52.068,280.671,52.068,295.051"/>
	<path style="fill:#BA941C;" d="M407.864,251.661h-52.068c-4.79,0-8.678-3.888-8.678-8.678s3.888-8.678,8.678-8.678h52.068
		c4.79,0,8.678,3.888,8.678,8.678S412.655,251.661,407.864,251.661"/>
	<path style="fill:#F0C419;" d="M451.254,295.051c0,14.379,11.655,26.034,26.034,26.034s26.034-11.655,26.034-26.034
		c0-14.379-11.655-26.034-26.034-26.034S451.254,280.671,451.254,295.051"/>
</g>
</svg>