<?xml version="1.0" encoding="iso-8859-1"?>
<!-- Uploaded to: SVG Repo, www.svgrepo.com, Generator: SVG Repo Mixer Tools -->
<svg fill="#000000" height="800px" width="800px" version="1.1" id="Layer_1" xmlns="http://www.w3.org/2000/svg" xmlns:xlink="http://www.w3.org/1999/xlink" 
	 viewBox="0 0 512.002 512.002" xml:space="preserve">
<g>
	<g>
		<path d="M447.333,250.725c-6.097-88.232-54.029-168.737-129.679-216.016L267.308,3.243c-6.918-4.324-15.695-4.324-22.613,0
			l-50.347,31.467C118.698,81.988,70.767,162.493,64.669,250.725c-0.715,2.791-0.842,5.612-0.448,8.323
			c-0.141,3.603-0.22,7.216-0.22,10.84v220.779c0,11.782,9.551,21.333,21.333,21.333h0.395c0.03,0,0.06,0,0.089,0h340.849
			c0.272,0,0.536-0.031,0.805-0.041c0.425-0.016,0.851-0.023,1.275-0.064c0.424-0.041,0.837-0.115,1.253-0.181
			c0.269-0.042,0.539-0.07,0.806-0.123c0.437-0.086,0.862-0.203,1.289-0.315c0.244-0.064,0.491-0.116,0.733-0.189
			c0.416-0.125,0.818-0.278,1.222-0.427c0.249-0.092,0.501-0.172,0.748-0.274c0.386-0.159,0.757-0.344,1.131-0.525
			c0.254-0.123,0.512-0.234,0.763-0.367c0.375-0.2,0.733-0.425,1.094-0.646c0.232-0.142,0.47-0.272,0.698-0.424
			c0.426-0.284,0.831-0.595,1.234-0.908c0.147-0.114,0.301-0.215,0.445-0.333c1.105-0.904,2.117-1.916,3.021-3.021
			c0.118-0.145,0.219-0.298,0.333-0.445c0.313-0.404,0.624-0.809,0.908-1.234c0.152-0.228,0.281-0.465,0.424-0.698
			c0.221-0.361,0.446-0.719,0.646-1.094c0.133-0.25,0.245-0.508,0.367-0.763c0.181-0.374,0.366-0.745,0.525-1.131
			c0.101-0.246,0.182-0.498,0.274-0.748c0.149-0.404,0.302-0.807,0.427-1.222c0.073-0.242,0.124-0.489,0.189-0.733
			c0.112-0.427,0.229-0.852,0.315-1.289c0.053-0.267,0.081-0.538,0.123-0.806c0.065-0.416,0.14-0.83,0.181-1.253
			c0.042-0.428,0.049-0.858,0.065-1.288c0.01-0.265,0.04-0.524,0.04-0.791V269.888c0-3.624-0.079-7.237-0.22-10.84
			C448.175,256.337,448.048,253.516,447.333,250.725z M106.668,285.598l86.855,28.952c1.161,11.036,2.984,21.97,5.455,32.745
			l-92.31,92.31V285.598z M243.103,347.826c-0.01-0.034-0.017-0.07-0.027-0.104c-5.549-20.083-8.407-40.926-8.407-61.984v-51.072
			h42.667v51.072c0,33.747-7.339,66.946-21.333,97.342C250.754,371.683,246.442,359.892,243.103,347.826z M277.334,192h-42.667
			v-42.667h42.667V192z M213.713,392.9c6.7,15.863,14.896,31.139,24.538,45.601c8.444,12.666,27.057,12.666,35.501,0
			c9.704-14.556,17.943-29.938,24.668-45.912l76.745,76.746H137.279L213.713,392.9z M313.108,346.937
			c2.429-10.659,4.224-21.474,5.372-32.387l86.855-28.952v153.565L313.108,346.937z M216.961,70.891l39.04-24.4l39.04,24.4
			c60.432,37.768,99.958,100.592,108.531,170.32l-83.572,27.857v-34.402h21.333c11.782,0,21.333-9.551,21.333-21.333
			c0-11.782-9.551-21.333-21.333-21.333h-21.333v-64c0-11.782-9.551-21.333-21.333-21.333h-85.333
			c-11.782,0-21.333,9.551-21.333,21.333v64h-21.333c-11.782,0-21.333,9.551-21.333,21.333c0,11.782,9.551,21.333,21.333,21.333
			h21.333v34.402l-83.571-27.857C117.004,171.483,156.529,108.659,216.961,70.891z"/>
	</g>
</g>
</svg>