<?xml version="1.0" encoding="iso-8859-1"?>
<!-- Uploaded to: SVG Repo, www.svgrepo.com, Generator: SVG Repo Mixer Tools -->
<svg height="800px" width="800px" version="1.1" id="Layer_1" xmlns="http://www.w3.org/2000/svg" xmlns:xlink="http://www.w3.org/1999/xlink" 
	 viewBox="0 0 503.467 503.467" xml:space="preserve">
<g>
	<path style="fill:#C8D2DA;" d="M251.733,59.733c-4.719,0-8.533-3.823-8.533-8.533V8.533c0-4.71,3.814-8.533,8.533-8.533
		c4.719,0,8.533,3.823,8.533,8.533V51.2C260.267,55.91,256.452,59.733,251.733,59.733"/>
	<polygon style="fill:#DBCDB8;" points="251.733,42.663 140.8,136.53 362.667,136.53 	"/>
	<polygon style="fill:#C8D2DA;" points="174.933,418.133 328.533,418.133 328.533,170.667 174.933,170.667 	"/>
	<polygon style="fill:#DBCDB8;" points="354.133,503.467 149.333,503.467 157.867,418.133 345.6,418.133 	"/>
	<g>
		<path style="fill:#9EADB7;" d="M268.8,273.067h-34.133V230.4c0-9.429,7.637-17.067,17.067-17.067S268.8,220.971,268.8,230.4
			V273.067z"/>
		<path style="fill:#9EADB7;" d="M268.8,375.467h-34.133V332.8c0-9.429,7.637-17.067,17.067-17.067S268.8,323.371,268.8,332.8
			V375.467z"/>
		<polygon style="fill:#9EADB7;" points="157.867,170.667 345.6,170.667 345.6,136.533 157.867,136.533 		"/>
	</g>
	<g>
		<path style="fill:#FFFFFF;" d="M328.533,460.8c0,4.71-3.823,8.533-8.533,8.533c-4.71,0-8.533-3.823-8.533-8.533
			c0-4.71,3.823-8.533,8.533-8.533C324.71,452.267,328.533,456.09,328.533,460.8"/>
		<path style="fill:#FFFFFF;" d="M285.867,469.333h-51.2c-4.719,0-8.533-3.823-8.533-8.533c0-4.71,3.814-8.533,8.533-8.533h51.2
			c4.719,0,8.533,3.823,8.533,8.533C294.4,465.51,290.586,469.333,285.867,469.333"/>
		<path style="fill:#FFFFFF;" d="M200.533,469.333h-17.067c-4.719,0-8.533-3.823-8.533-8.533c0-4.71,3.814-8.533,8.533-8.533h17.067
			c4.719,0,8.533,3.823,8.533,8.533C209.067,465.51,205.252,469.333,200.533,469.333"/>
	</g>
	<g>
		<path style="fill:#9EADB7;" d="M200.533,221.867c4.719,0,8.533-3.823,8.533-8.533s-3.814-8.533-8.533-8.533h-25.6v17.067H200.533z
			"/>
		<path style="fill:#9EADB7;" d="M200.533,384c4.719,0,8.533-3.823,8.533-8.533c0-4.71-3.814-8.533-8.533-8.533h-25.6V384H200.533z"
			/>
		<path style="fill:#9EADB7;" d="M302.933,290.133c-4.719,0-8.533,3.823-8.533,8.533c0,4.71,3.814,8.533,8.533,8.533h25.6v-17.067
			H302.933z"/>
	</g>
</g>
</svg>