<?xml version="1.0" encoding="iso-8859-1"?>
<!-- Uploaded to: SVG Repo, www.svgrepo.com, Generator: SVG Repo Mixer Tools -->
<svg height="800px" width="800px" version="1.1" id="Layer_1" xmlns="http://www.w3.org/2000/svg" xmlns:xlink="http://www.w3.org/1999/xlink" 
	 viewBox="0 0 512.006 512.006" xml:space="preserve">
<g>
	<g>
		<path style="fill:#BDC3C7;" d="M179.202,473.605c-0.939,0-1.903-0.162-2.842-0.495c-4.446-1.562-6.775-6.434-5.205-10.88
			l51.2-145.067c1.57-4.446,6.434-6.793,10.889-5.205c4.446,1.562,6.775,6.443,5.205,10.889l-51.2,145.067
			C186.012,471.412,182.718,473.605,179.202,473.605"/>
		<path style="fill:#BDC3C7;" d="M503.469,473.605c-3.516,0-6.81-2.193-8.047-5.692l-51.2-145.067
			c-1.57-4.446,0.759-9.327,5.205-10.889c4.463-1.587,9.327,0.759,10.889,5.205l51.2,145.067c1.57,4.446-0.759,9.318-5.205,10.88
			C505.372,473.443,504.408,473.605,503.469,473.605"/>
	</g>
	<path style="fill:#F0EDE0;" d="M503.469,200.534c0,89.54-72.593,162.133-162.133,162.133s-162.133-72.593-162.133-162.133
		S251.795,38.401,341.335,38.401S503.469,110.994,503.469,200.534"/>
	<path style="fill:#D6D1BB;" d="M460.802,200.534c0,65.98-53.487,119.467-119.467,119.467s-119.467-53.487-119.467-119.467
		S275.356,81.067,341.335,81.067S460.802,134.554,460.802,200.534"/>
	<path style="fill:#F0EDE0;" d="M418.135,200.534c0,42.419-34.381,76.8-76.8,76.8s-76.8-34.381-76.8-76.8s34.381-76.8,76.8-76.8
		S418.135,158.115,418.135,200.534"/>
	<path style="fill:#DD342E;" d="M375.469,200.534c0,18.85-15.283,34.133-34.133,34.133s-34.133-15.283-34.133-34.133
		s15.283-34.133,34.133-34.133S375.469,181.684,375.469,200.534"/>
	<g>
		<path style="fill:#DDD6AC;" d="M341.335,209.067H42.669c-4.719,0-8.533-3.823-8.533-8.533s3.814-8.533,8.533-8.533h298.667
			c4.719,0,8.533,3.823,8.533,8.533S346.054,209.067,341.335,209.067"/>
		<path style="fill:#DDD6AC;" d="M85.335,209.067c-2.185,0-4.369-0.836-6.033-2.5l-34.133-34.133c-3.337-3.337-3.337-8.73,0-12.066
			c3.337-3.337,8.73-3.337,12.066,0l34.133,34.133c3.337,3.337,3.337,8.73,0,12.066C89.705,208.231,87.52,209.067,85.335,209.067"/>
		<path style="fill:#DDD6AC;" d="M42.669,209.067c-2.185,0-4.369-0.836-6.033-2.5L2.502,172.434c-3.337-3.337-3.337-8.73,0-12.066
			s8.73-3.337,12.066,0l34.133,34.133c3.337,3.337,3.337,8.73,0,12.066C47.038,208.231,44.853,209.067,42.669,209.067"/>
		<path style="fill:#DDD6AC;" d="M51.202,243.201c-2.185,0-4.369-0.836-6.033-2.5c-3.337-3.337-3.337-8.73,0-12.066l34.133-34.133
			c3.337-3.337,8.73-3.337,12.066,0s3.337,8.73,0,12.066L57.235,240.7C55.571,242.364,53.387,243.201,51.202,243.201"/>
		<path style="fill:#DDD6AC;" d="M8.535,243.201c-2.185,0-4.369-0.836-6.033-2.5c-3.337-3.337-3.337-8.73,0-12.066l34.133-34.133
			c3.337-3.337,8.73-3.337,12.066,0c3.337,3.337,3.337,8.73,0,12.066L14.569,240.7C12.905,242.364,10.72,243.201,8.535,243.201"/>
	</g>
</g>
</svg>