<?xml version="1.0" encoding="iso-8859-1"?>
<!-- Uploaded to: SVG Repo, www.svgrepo.com, Generator: SVG Repo Mixer Tools -->
<svg height="800px" width="800px" version="1.1" id="Layer_1" xmlns="http://www.w3.org/2000/svg" xmlns:xlink="http://www.w3.org/1999/xlink" 
	 viewBox="0 0 512 512" xml:space="preserve">
<g transform="translate(1 1)">
	<g>
		<path style="fill:#FFE100;" d="M408.6,255c-5.12,0-8.533-3.413-8.533-8.533V75.8c0-5.12,3.413-8.533,8.533-8.533
			c5.12,0,8.533,3.413,8.533,8.533v170.667C417.133,251.587,413.72,255,408.6,255z"/>
		<path style="fill:#FFE100;" d="M408.6,84.333c-2.56,0-4.267-0.853-5.973-2.56c-3.413-3.413-3.413-8.533,0-11.947l17.067-17.067
			c3.413-3.413,8.533-3.413,11.947,0c3.413,3.413,3.413,8.533,0,11.947l-17.067,17.067C412.867,83.48,411.16,84.333,408.6,84.333z"
			/>
		<path style="fill:#FFE100;" d="M408.6,84.333c-2.56,0-4.267-0.853-5.973-2.56L385.56,64.707c-3.413-3.413-3.413-8.533,0-11.947
			c3.413-3.413,8.533-3.413,11.947,0l17.067,17.067c3.413,3.413,3.413,8.533,0,11.947C412.867,83.48,411.16,84.333,408.6,84.333z"/>
		<path style="fill:#FFE100;" d="M280.6,212.333c-5.12,0-8.533-3.413-8.533-8.533V24.6c0-5.12,3.413-8.533,8.533-8.533
			c5.12,0,8.533,3.413,8.533,8.533v179.2C289.133,208.92,285.72,212.333,280.6,212.333z"/>
		<path style="fill:#FFE100;" d="M280.6,33.133c-2.56,0-4.267-0.853-5.973-2.56c-3.413-3.413-3.413-8.533,0-11.947L291.693,1.56
			c3.413-3.413,8.533-3.413,11.947,0s3.413,8.533,0,11.947l-17.067,17.067C284.867,32.28,283.16,33.133,280.6,33.133z"/>
		<path style="fill:#FFE100;" d="M280.6,33.133c-2.56,0-4.267-0.853-5.973-2.56L257.56,13.507c-3.413-3.413-3.413-8.533,0-11.947
			c3.413-3.413,8.533-3.413,11.947,0l17.067,17.067c3.413,3.413,3.413,8.533,0,11.947C284.867,32.28,283.16,33.133,280.6,33.133z"/>
	</g>
	<g>
		<polygon style="fill:#00DA6C;" points="272.067,161.133 306.2,144.067 314.733,109.933 306.2,92.867 314.733,67.267 
			314.733,33.133 272.067,57.027 229.4,33.133 229.4,67.267 237.933,92.867 229.4,109.933 237.933,144.067 		"/>
		<polygon style="fill:#00DA6C;" points="400.067,212.333 434.2,195.267 442.733,161.133 434.2,144.067 442.733,118.467 
			442.733,84.333 400.067,108.227 357.4,84.333 357.4,118.467 365.933,144.067 357.4,161.133 365.933,195.267 		"/>
	</g>
	<path style="fill:#FFE100;" d="M169.667,289.133c-18.773,0-34.133-15.36-34.133-34.133v-25.6v-34.133
		c0-18.773-15.36-34.133-34.133-34.133s-34.133,15.36-34.133,34.133V331.8c0,37.547,30.72,68.267,68.267,68.267h25.6
		c23.893,0,42.667,18.773,42.667,42.667V255C203.8,273.773,188.44,289.133,169.667,289.133"/>
	<path style="fill:#FFFFFF;" d="M92.867,331.8V195.267c0-14.507,8.533-26.453,21.333-31.573c-4.267-1.707-8.533-2.56-12.8-2.56
		c-18.773,0-34.133,15.36-34.133,34.133V331.8c0,37.547,30.72,68.267,68.267,68.267h25.6
		C123.587,400.067,92.867,369.347,92.867,331.8"/>
	<path style="fill:#FFE100;" d="M442.733,263.533v167.253c0,39.253-32.427,71.68-71.68,71.68H275.48
		c-39.253,0-71.68-32.427-71.68-71.68V186.733L442.733,263.533z"/>
	<path style="fill:#FFA800;" d="M203.8,186.733v5.12l221.867,71.68v167.253c0,39.253-32.427,71.68-71.68,71.68h17.067
		c39.253,0,71.68-32.427,71.68-71.68V263.533L203.8,186.733z"/>
	<path style="fill:#00DA6C;" d="M306.2,383c0,30.72-17.067,51.2-17.067,51.2H306.2l17.067,17.067l17.067-17.067H357.4
		c0,0-17.067-20.48-17.067-51.2c30.72,0,51.2,17.067,51.2,17.067V383l17.067-17.067l-17.067-17.067V331.8
		c0,0-20.48,17.067-51.2,17.067c0-30.72,17.067-51.2,17.067-51.2h-17.067L323.267,280.6L306.2,297.667h-17.067
		c0,0,17.067,20.48,17.067,51.2c-30.72,0-51.2-17.067-51.2-17.067v17.067l-17.067,17.067L255,383v17.067
		C255,400.067,275.48,383,306.2,383"/>
	<path d="M272.067,212.333c-5.12,0-8.533-3.413-8.533-8.533V24.6c0-5.12,3.413-8.533,8.533-8.533S280.6,19.48,280.6,24.6v179.2
		C280.6,208.92,277.187,212.333,272.067,212.333z"/>
	<path d="M272.067,33.133c-2.56,0-4.267-0.853-5.973-2.56c-3.413-3.413-3.413-8.533,0-11.947L283.16,1.56
		c3.413-3.413,8.533-3.413,11.947,0s3.413,8.533,0,11.947L278.04,30.573C276.333,32.28,274.627,33.133,272.067,33.133z"/>
	<path d="M272.067,33.133c-2.56,0-4.267-0.853-5.973-2.56l-17.067-17.067c-3.413-3.413-3.413-8.533,0-11.947s8.533-3.413,11.947,0
		l17.067,17.067c3.413,3.413,3.413,8.533,0,11.947C276.333,32.28,274.627,33.133,272.067,33.133z"/>
	<path d="M272.067,169.667c-1.707,0-2.56,0-3.413-0.853l-34.133-17.067c-2.56-0.853-4.267-3.413-4.267-5.973l-8.533-34.133
		c-0.853-1.707,0-4.267,0.853-5.973l6.827-13.653l-7.68-22.187c-0.853-0.853-0.853-1.707-0.853-2.56V33.133
		c0-3.413,1.707-5.973,4.267-7.68s5.973-1.707,8.533,0l38.4,21.333l38.4-21.333c2.56-1.707,5.973-1.707,8.533,0
		c2.56,1.707,4.267,4.267,4.267,7.68v34.133c0,0.853,0,1.707-0.853,2.56l-7.68,22.187l6.827,13.653
		c1.707,2.56,1.707,4.267,1.707,5.973l-8.533,34.133c-0.853,2.56-2.56,4.267-4.267,5.973l-34.133,17.067
		C274.627,169.667,273.773,169.667,272.067,169.667z M245.613,138.093l26.453,13.653l26.453-13.653l6.827-27.307L298.52,96.28
		c-0.853-1.707-0.853-4.267,0-5.973l7.68-24.747V47.64l-29.867,17.067c-2.56,1.707-5.973,1.707-8.533,0L237.933,47.64v17.92
		l7.68,23.893c0.853,2.56,0.853,4.267-0.853,6.827l-6.827,14.507L245.613,138.093z"/>
	<path d="M400.067,255c-5.12,0-8.533-3.413-8.533-8.533V75.8c0-5.12,3.413-8.533,8.533-8.533S408.6,70.68,408.6,75.8v170.667
		C408.6,251.587,405.187,255,400.067,255z"/>
	<path d="M400.067,84.333c-2.56,0-4.267-0.853-5.973-2.56c-3.413-3.413-3.413-8.533,0-11.947L411.16,52.76
		c3.413-3.413,8.533-3.413,11.947,0c3.413,3.413,3.413,8.533,0,11.947L406.04,81.773C404.333,83.48,402.627,84.333,400.067,84.333z"
		/>
	<path d="M400.067,84.333c-2.56,0-4.267-0.853-5.973-2.56l-17.067-17.067c-3.413-3.413-3.413-8.533,0-11.947
		c3.413-3.413,8.533-3.413,11.947,0l17.067,17.067c3.413,3.413,3.413,8.533,0,11.947C404.333,83.48,402.627,84.333,400.067,84.333z"
		/>
	<path d="M400.067,220.867c-1.707,0-2.56,0-3.413-0.853l-34.133-17.067c-2.56-0.853-4.267-3.413-4.267-5.973l-8.533-34.133
		c-0.853-1.707,0-4.267,0.853-5.973l6.827-13.653l-7.68-22.187c0-0.853-0.853-1.707-0.853-2.56V84.333
		c0-3.413,1.707-5.973,4.267-7.68c2.56-1.707,5.973-1.707,8.533,0l38.4,21.333l38.4-21.333c2.56-1.707,5.973-1.707,8.533,0
		c2.56,1.707,4.267,4.267,4.267,7.68v34.133c0,0.853,0,1.707-0.853,2.56l-7.68,22.187l6.827,13.653
		c1.707,2.56,1.707,4.267,1.707,5.973l-8.533,34.133c-0.853,2.56-2.56,4.267-4.267,5.973l-34.133,17.067
		C402.627,220.867,401.773,220.867,400.067,220.867z M373.613,189.293l26.453,13.653l26.453-13.653l6.827-27.307l-6.827-14.507
		c-0.853-1.707-0.853-4.267-0.853-6.827l7.68-23.893V98.84l-29.867,17.067c-2.56,1.707-5.973,1.707-8.533,0L365.08,98.84v17.92
		l7.68,23.893c0.853,2.56,0.853,4.267-0.853,6.827l-6.827,14.507L373.613,189.293z"/>
	<path d="M371.053,511H275.48c-44.373,0-80.213-35.84-80.213-80.213v-256l256,81.92v173.227C451.267,475.16,415.427,511,371.053,511
		z M212.333,198.68v232.107c0,34.987,28.16,63.147,63.147,63.147h95.573c34.987,0,63.147-28.16,63.147-63.147v-161.28
		L212.333,198.68z"/>
	<path d="M203.8,451.267c-5.12,0-8.533-3.413-8.533-8.533c0-18.773-15.36-34.133-34.133-34.133h-25.6
		c-42.667,0-76.8-34.133-76.8-76.8V195.267c0-23.893,18.773-42.667,42.667-42.667s42.667,18.773,42.667,42.667V255
		c0,14.507,11.093,25.6,25.6,25.6s25.6-11.093,25.6-25.6c0-5.12,3.413-8.533,8.533-8.533c5.12,0,8.533,3.413,8.533,8.533v187.733
		C212.333,447.853,208.92,451.267,203.8,451.267z M101.4,169.667c-14.507,0-25.6,11.093-25.6,25.6V331.8
		c0,33.28,26.453,59.733,59.733,59.733h25.6c12.8,0,24.747,5.12,34.133,12.8v-115.2c-6.827,5.12-16.213,8.533-25.6,8.533
		C145.773,297.667,127,278.893,127,255v-59.733C127,180.76,115.907,169.667,101.4,169.667z"/>
	<path d="M323.267,459.8c-2.56,0-4.267-0.853-5.973-2.56l-14.507-14.507h-13.653c-3.413,0-5.973-1.707-7.68-5.12
		c-1.707-3.413-0.853-6.827,0.853-9.387c0,0,11.947-14.507,14.507-36.693c-22.187,2.56-36.693,14.507-36.693,14.507
		c-2.56,1.707-5.973,2.56-9.387,0.853c-2.56-0.853-4.267-3.413-4.267-6.827v-13.653l-14.507-14.507
		c-3.413-3.413-3.413-8.533,0-11.947l14.507-14.507V331.8c0-3.413,1.707-5.973,5.12-7.68c3.413-1.707,6.827-0.853,9.387,0.853
		c0,0,14.507,11.947,36.693,14.507c-2.56-22.187-14.507-36.693-14.507-36.693c-1.707-2.56-2.56-5.973-0.853-9.387
		c1.707-3.413,4.267-5.12,7.68-5.12h13.653l14.507-14.507c3.413-3.413,8.533-3.413,11.947,0L344.6,288.28h12.8
		c3.413,0,5.973,1.707,7.68,5.12c1.707,3.413,0.853,6.827-0.853,9.387c0,0-11.947,14.507-14.507,36.693
		c22.187-2.56,36.693-14.507,36.693-14.507c2.56-1.707,5.973-2.56,9.387-0.853c3.413,1.707,5.12,4.267,5.12,7.68v13.653
		l14.507,14.507c3.413,3.413,3.413,8.533,0,11.947l-15.36,14.507v13.653c0,3.413-1.707,5.973-5.12,7.68s-6.827,0.853-9.387-0.853
		c0,0-14.507-11.947-36.693-14.507c2.56,22.187,14.507,36.693,14.507,36.693c1.707,2.56,2.56,5.973,0.853,9.387
		c-0.853,2.56-3.413,4.267-6.827,4.267h-13.653L329.24,457.24C327.533,458.947,325.827,459.8,323.267,459.8z M304.493,425.667h1.707
		c2.56,0,4.267,0.853,5.973,2.56l11.093,11.093l11.093-11.093c1.707-1.707,3.413-2.56,5.973-2.56h1.707
		c-5.12-10.24-10.24-24.747-10.24-42.667c0-5.12,3.413-8.533,8.533-8.533c17.92,0,32.427,5.12,42.667,10.24V383
		c0-2.56,0.853-4.267,2.56-5.973l11.093-11.093L385.56,354.84c-1.707-1.707-2.56-3.413-2.56-5.973v-1.707
		c-10.24,5.12-24.747,10.24-42.667,10.24c-5.12,0-8.533-3.413-8.533-8.533c0-17.92,5.12-32.427,10.24-42.667h-1.707
		c-2.56,0-4.267-0.853-5.973-2.56l-11.093-11.093l-11.093,11.093c-1.707,1.707-3.413,2.56-5.973,2.56h-1.707
		c5.12,10.24,10.24,24.747,10.24,42.667c0,5.12-3.413,8.533-8.533,8.533c-17.92,0-32.427-5.12-42.667-10.24v1.707
		c0,2.56-0.853,4.267-2.56,5.973l-11.093,11.093l11.093,11.093c1.707,1.707,2.56,3.413,2.56,5.973v1.707
		c10.24-5.12,24.747-10.24,42.667-10.24c5.12,0,8.533,3.413,8.533,8.533C314.733,400.92,309.613,415.427,304.493,425.667z"/>
</g>
</svg>