<?xml version="1.0" encoding="iso-8859-1"?>
<!-- Uploaded to: SVG Repo, www.svgrepo.com, Generator: SVG Repo Mixer Tools -->
<svg height="800px" width="800px" version="1.1" id="Layer_1" xmlns="http://www.w3.org/2000/svg" xmlns:xlink="http://www.w3.org/1999/xlink" 
	 viewBox="0 0 512 512" xml:space="preserve">
<g transform="translate(1 1)">
	<g>
		<polygon style="fill:#FFE100;" points="7.533,502.467 75.8,502.467 75.8,468.333 7.533,468.333 		"/>
		<path style="fill:#FFE100;" d="M92.867,417.133H58.733c-5.12,0-8.533-3.413-8.533-8.533c0-5.12,3.413-8.533,8.533-8.533h34.133
			c5.12,0,8.533,3.413,8.533,8.533C101.4,413.72,97.987,417.133,92.867,417.133z"/>
		<path style="fill:#FFE100;" d="M92.867,144.067H58.733c-5.12,0-8.533-3.413-8.533-8.533S53.613,127,58.733,127h34.133
			c5.12,0,8.533,3.413,8.533,8.533S97.987,144.067,92.867,144.067z"/>
		<path style="fill:#FFE100;" d="M41.667,7.533c-18.773,0-34.133,15.36-34.133,34.133S22.893,75.8,41.667,75.8
			S75.8,60.44,75.8,41.667S60.44,7.533,41.667,7.533"/>
	</g>
	<path style="fill:#FFFFFF;" d="M24.6,41.667c0-16.213,11.093-29.013,25.6-33.28c-2.56,0-5.973-0.853-8.533-0.853
		c-18.773,0-34.133,15.36-34.133,34.133S22.893,75.8,41.667,75.8c2.56,0,5.973-0.853,8.533-0.853
		C35.693,70.68,24.6,57.88,24.6,41.667"/>
	<path style="fill:#FFE100;" d="M41.667,75.8c-5.973,0-11.947-1.707-17.067-5.12v397.653h34.133V70.68
		C53.613,74.093,47.64,75.8,41.667,75.8"/>
	<g>
		<path style="fill:#FFFFFF;" d="M24.6,70.68v397.653h17.067V75.8C35.693,75.8,29.72,74.093,24.6,70.68"/>
		<polygon style="fill:#FFFFFF;" points="7.533,502.467 24.6,502.467 24.6,468.333 7.533,468.333 		"/>
	</g>
	<polygon style="fill:#FFE100;" points="92.867,442.733 502.467,442.733 502.467,84.333 92.867,84.333 	"/>
	<polygon style="fill:#FFA800;" points="476.867,442.733 502.467,442.733 502.467,84.333 476.867,84.333 	"/>
	<g>
		<path style="fill:#00DA6C;" d="M204.653,220.867c9.387-31.573,28.16-48.64,45.227-57.173l-2.56-2.56
			c0,0-24.747-34.133-76.8-34.133c0,0-6.827,58.88,32.427,100.693L204.653,220.867z"/>
		<path style="fill:#00DA6C;" d="M392.387,220.867c-9.387-31.573-28.16-48.64-45.227-57.173l2.56-2.56
			c0,0,24.747-34.133,76.8-34.133c0,0,6.827,58.88-32.427,100.693L392.387,220.867z"/>
		<path style="fill:#00DA6C;" d="M247.32,280.6c-11.093,16.213-12.8,36.693-5.973,54.613l12.8,34.133
			c0.853,3.413,44.373,5.12,44.373,5.12s43.52-2.56,44.373-5.12l12.8-34.133c6.827-17.92,4.267-38.4-5.973-54.613"/>
		<path style="fill:#00DA6C;" d="M358.253,330.093c9.387-6.827,19.627-15.36,28.16-23.893c14.507-14.507,19.627-35.84,14.507-56.32
			l-8.533-29.013c-23.04-74.24-93.867-68.267-93.867-68.267s-70.827-5.973-93.867,68.267l-8.533,29.013
			c-5.973,19.627,0,41.813,14.507,56.32c8.533,8.533,17.92,17.067,28.16,23.893"/>
	</g>
	<path style="fill:#FDCC00;" d="M324.12,306.2c0,9.387-11.093,17.067-25.6,17.067c-14.507,0-25.6-7.68-25.6-17.067
		s11.093-17.067,25.6-17.067C312.173,289.133,324.12,296.813,324.12,306.2"/>
	<g>
		<path style="fill:#00DA6C;" d="M298.52,152.6c0,0,6.827-0.853,16.213,0.853v-69.12H280.6v69.12
			C290.84,151.747,298.52,152.6,298.52,152.6"/>
		<path style="fill:#00DA6C;" d="M399.213,246.467l0.853,3.413c2.56,10.24,2.56,20.48,0,30.72h102.4v-34.133H399.213z"/>
	</g>
	<polygon style="fill:#00AD55;" points="476.867,280.6 502.467,280.6 502.467,246.467 476.867,246.467 	"/>
	<g>
		<path style="fill:#00DA6C;" d="M196.12,249.88l0.853-3.413H92.867V280.6H196.12C192.707,270.36,192.707,260.12,196.12,249.88"/>
		<path style="fill:#00DA6C;" d="M298.52,374.467c0,0-8.533,0-17.92-0.853v69.12h34.133v-69.12
			C306.2,374.467,298.52,374.467,298.52,374.467"/>
	</g>
	<path d="M298.52,383c-50.347-2.56-51.2-5.973-52.907-11.093l-12.8-34.133c-7.68-20.48-5.12-43.52,6.827-62.293
		c2.56-4.267,7.68-5.12,11.947-2.56c4.267,2.56,5.12,7.68,2.56,11.947c-9.387,13.653-11.093,31.573-5.12,46.933l11.093,30.72
		c6.827,1.707,23.893,2.56,38.4,3.413c13.653-0.853,30.72-2.56,37.547-3.413l11.093-30.72c5.973-15.36,3.413-33.28-5.12-46.933
		c-2.56-4.267-1.707-9.387,2.56-11.947s9.387-1.707,11.947,2.56c11.947,17.92,14.507,41.813,6.827,62.293l-12.8,34.133
		C348.867,377.027,348.013,380.44,298.52,383z M335.213,365.933L335.213,365.933L335.213,365.933z M260.973,365.933L260.973,365.933
		L260.973,365.933z"/>
	<path d="M358.253,338.627c-2.56,0-5.12-1.707-6.827-3.413c-2.56-4.267-1.707-9.387,2.56-11.947c7.68-5.12,17.067-12.8,26.453-23.04
		c12.8-11.947,17.067-30.72,11.947-47.787l-8.533-29.013c-20.48-66.56-81.92-62.293-85.333-62.293h-0.853v0
		c-2.56,0-64.853-4.267-85.333,62.293L203.8,252.44c-5.12,17.067,0,35.84,11.947,47.787c9.387,9.387,18.773,17.067,26.453,23.04
		c4.267,2.56,5.12,7.68,2.56,11.947c-2.56,4.267-7.68,5.12-11.947,2.56c-8.533-5.973-18.773-14.507-29.013-24.747
		c-17.067-17.067-23.04-41.813-16.213-64.853l8.533-29.013c23.04-75.947,93.867-75.093,102.4-74.24c7.68,0,78.507-1.707,102.4,74.24
		l8.533,29.013c6.827,23.04,0,47.787-16.213,64.853c-10.24,10.24-20.48,18.773-29.013,24.747
		C360.813,337.773,359.107,338.627,358.253,338.627z"/>
	<path d="M324.12,246.467c-5.12,0-8.533-3.413-8.533-8.533c0-14.507,11.093-25.6,25.6-25.6c5.12,0,8.533,3.413,8.533,8.533
		c0,5.12-3.413,8.533-8.533,8.533s-8.533,3.413-8.533,8.533C332.653,243.053,328.387,246.467,324.12,246.467z"/>
	<path d="M298.52,331.8c-18.773,0-34.133-11.093-34.133-25.6s15.36-25.6,34.133-25.6c18.773,0,34.133,11.093,34.133,25.6
		S317.293,331.8,298.52,331.8z M298.52,297.667c-10.24,0-17.067,5.12-17.067,8.533c0,3.413,6.827,8.533,17.067,8.533
		c10.24,0,17.067-5.12,17.067-8.533C315.587,302.787,308.76,297.667,298.52,297.667z"/>
	<path d="M298.52,383c-5.12,0-8.533-3.413-8.533-8.533v-51.2c0-5.12,3.413-8.533,8.533-8.533c5.12,0,8.533,3.413,8.533,8.533v51.2
		C307.053,379.587,302.787,383,298.52,383z"/>
	<path d="M272.92,246.467c-5.12,0-8.533-3.413-8.533-8.533c0-5.12-3.413-8.533-8.533-8.533c-5.12,0-8.533-3.413-8.533-8.533
		c0-5.12,3.413-8.533,8.533-8.533c14.507,0,25.6,11.093,25.6,25.6C281.453,243.053,277.187,246.467,272.92,246.467z"/>
	<path d="M202.093,236.227c-2.56,0-4.267-0.853-5.973-2.56c-41.813-43.52-34.987-104.96-34.987-107.52
		c0.853-4.267,4.267-7.68,8.533-7.68c50.347,0,77.653,29.867,82.773,36.693l1.707,1.707c2.56,1.707,3.413,4.267,3.413,7.68
		c0,2.56-1.707,5.12-4.267,6.827c-19.627,10.24-34.133,28.16-40.96,52.053l-1.707,5.973c-0.853,2.56-3.413,5.12-5.973,5.973
		C203.8,236.227,202.947,236.227,202.093,236.227z M178.2,135.533c0,14.507,1.707,46.933,20.48,74.24
		c7.68-20.48,20.48-36.693,36.693-47.787C228.547,153.453,208.92,138.093,178.2,135.533z"/>
	<path d="M394.093,236.227c-0.853,0-1.707,0-1.707,0c-2.56-0.853-5.12-3.413-5.973-5.973l-1.707-6.827
		c-7.68-24.747-21.333-41.813-40.96-52.053c-2.56-1.707-4.267-4.267-4.267-6.827c0-2.56,0.853-5.973,3.413-7.68l1.707-1.707
		c5.12-5.973,32.427-36.693,82.773-36.693c4.267,0,7.68,3.413,8.533,7.68c0,2.56,6.827,63.147-34.987,107.52
		C398.36,235.373,395.8,236.227,394.093,236.227z M359.96,161.987c17.067,11.093,29.013,27.307,36.693,47.787
		c18.773-27.307,21.333-59.733,20.48-74.24C387.267,138.093,367.64,153.453,359.96,161.987z"/>
	<path d="M41.667,84.333C17.773,84.333-1,65.56-1,41.667S17.773-1,41.667-1s42.667,18.773,42.667,42.667S65.56,84.333,41.667,84.333
		z M41.667,16.067c-14.507,0-25.6,11.093-25.6,25.6s11.093,25.6,25.6,25.6s25.6-11.093,25.6-25.6S56.173,16.067,41.667,16.067z"/>
	<path d="M58.733,476.867H24.6c-5.12,0-8.533-3.413-8.533-8.533V70.68c0-3.413,1.707-5.973,4.267-7.68
		c2.56-1.707,5.973-1.707,8.533,0c8.533,5.12,17.067,5.12,25.6,0c2.56-1.707,5.973-1.707,8.533,0c2.56,2.56,4.267,5.12,4.267,7.68
		v397.653C67.267,473.453,63.853,476.867,58.733,476.867z M33.133,459.8H50.2V83.48c-5.973,0.853-11.093,0.853-17.067,0V459.8z"/>
	<path d="M92.867,408.6H58.733c-5.12,0-8.533-3.413-8.533-8.533s3.413-8.533,8.533-8.533h34.133c5.12,0,8.533,3.413,8.533,8.533
		S97.987,408.6,92.867,408.6z"/>
	<path d="M92.867,135.533H58.733c-5.12,0-8.533-3.413-8.533-8.533s3.413-8.533,8.533-8.533h34.133c5.12,0,8.533,3.413,8.533,8.533
		S97.987,135.533,92.867,135.533z"/>
	<path d="M75.8,511H7.533C2.413,511-1,507.587-1,502.467v-34.133c0-5.12,3.413-8.533,8.533-8.533H75.8
		c5.12,0,8.533,3.413,8.533,8.533v34.133C84.333,507.587,80.92,511,75.8,511z M16.067,493.933h51.2v-17.067h-51.2V493.933z"/>
	<path d="M502.467,451.267h-409.6c-5.12,0-8.533-3.413-8.533-8.533v-358.4c0-5.12,3.413-8.533,8.533-8.533h409.6
		c5.12,0,8.533,3.413,8.533,8.533v358.4C511,447.853,507.587,451.267,502.467,451.267z M101.4,434.2h392.533V92.867H101.4V434.2z"/>
	<path d="M280.6,161.987c-1.707,0-4.267-0.853-5.973-1.707c-1.707-1.707-2.56-4.267-2.56-6.827v-69.12
		c0-5.12,3.413-8.533,8.533-8.533h34.133c5.12,0,8.533,3.413,8.533,8.533v69.12c0,2.56-0.853,5.12-2.56,6.827
		c-1.707,1.707-4.267,2.56-6.827,1.707c-8.533-0.853-14.507-0.853-14.507-0.853s-0.853,0-1.707,0l0,0c0,0-6.827-0.853-15.36,0.853
		C281.453,161.987,280.6,161.987,280.6,161.987z M289.133,92.867v51.2c4.267,0,7.68,0,9.387,0c0.853,0,4.267,0,7.68,0v-51.2H289.133
		z"/>
	<path d="M502.467,289.133H400.92c-2.56,0-5.12-0.853-6.827-3.413s-2.56-5.12-1.707-7.68c2.56-8.533,2.56-17.92,0-26.453
		l-0.853-3.413c-0.853-2.56,0-5.12,1.707-7.68c1.707-2.56,4.267-3.413,6.827-3.413h102.4c5.12,0,8.533,3.413,8.533,8.533v34.133
		C511,285.72,507.587,289.133,502.467,289.133z M410.307,272.067h83.627V255h-83.627C411.16,260.973,411.16,266.093,410.307,272.067
		z"/>
	<path d="M196.12,289.133H92.867c-5.12,0-8.533-3.413-8.533-8.533v-34.133c0-5.12,3.413-8.533,8.533-8.533h104.107
		c2.56,0,5.12,0.853,6.827,3.413s1.707,5.12,1.707,7.68l-1.707,3.413l0,0c-2.56,8.533-2.56,17.92,0,26.453
		c0.853,2.56,0,5.12-1.707,7.68C201.24,288.28,198.68,289.133,196.12,289.133z M101.4,272.067h84.48
		c-0.853-5.973,0-11.093,0.853-17.067H101.4V272.067z"/>
	<path d="M314.733,451.267H280.6c-5.12,0-8.533-3.413-8.533-8.533v-69.12c0-2.56,0.853-4.267,2.56-5.973
		c1.707-1.707,4.267-2.56,6.827-2.56c7.68,0.853,15.36,0.853,17.067,0.853c1.707,0,8.533-0.853,16.213-0.853
		c2.56,0,5.12,0.853,6.827,2.56c1.707,1.707,2.56,4.267,2.56,5.973v69.12C323.267,447.853,319.853,451.267,314.733,451.267z
		 M289.133,434.2H306.2v-52.053c-4.267,0-7.68,0.853-7.68,0.853h-0.853c0,0-3.413,0-8.533-0.853V434.2z"/>
</g>
</svg>