<?xml version="1.0" encoding="iso-8859-1"?>
<!-- Uploaded to: SVG Repo, www.svgrepo.com, Generator: SVG Repo Mixer Tools -->
<svg height="800px" width="800px" version="1.1" id="Layer_1" xmlns="http://www.w3.org/2000/svg" xmlns:xlink="http://www.w3.org/1999/xlink" 
	 viewBox="0 0 503.322 503.322" xml:space="preserve">
<g>
	<path style="fill:#F3EDBF;" d="M416.542,199.593v-60.746V43.39c0-23.864,19.525-43.39,43.39-43.39h-43.39h-52.068H86.78
		C62.863,0,43.477,19.387,43.477,43.303v399.273h286.286v17.356c0,23.864,19.525,43.39,43.39,43.39c23.96,0,43.39-19.43,43.39-43.39
		l0,0V199.593z"/>
	<g>
		<path style="fill:#BAB395;" d="M459.932,0L459.932,0c23.864,0,43.39,19.525,43.39,43.39v199.593h-86.78V43.39
			C416.542,19.525,436.068,0,459.932,0"/>
		<path style="fill:#BAB395;" d="M329.763,459.932v-17.356H0v17.356c0,23.864,19.525,43.39,43.39,43.39h329.763
			C349.288,503.322,329.763,483.797,329.763,459.932"/>
		<path style="fill:#BAB395;" d="M260.339,121.492h-69.424c-4.79,0-8.678-3.888-8.678-8.678s3.888-8.678,8.678-8.678h69.424
			c4.79,0,8.678,3.888,8.678,8.678S265.129,121.492,260.339,121.492"/>
		<path style="fill:#BAB395;" d="M164.881,112.814c0,4.79-3.888,8.678-8.678,8.678s-8.678-3.888-8.678-8.678
			s3.888-8.678,8.678-8.678S164.881,108.023,164.881,112.814"/>
		<path style="fill:#BAB395;" d="M121.492,121.492H86.78c-4.79,0-8.678-3.888-8.678-8.678s3.888-8.678,8.678-8.678h34.712
			c4.79,0,8.678,3.888,8.678,8.678S126.282,121.492,121.492,121.492"/>
		<path style="fill:#BAB395;" d="M373.153,121.492h-43.39c-4.79,0-8.678-3.888-8.678-8.678s3.888-8.678,8.678-8.678h43.39
			c4.79,0,8.678,3.888,8.678,8.678S377.943,121.492,373.153,121.492"/>
		<path style="fill:#BAB395;" d="M303.729,112.814c0,4.79-3.888,8.678-8.678,8.678s-8.678-3.888-8.678-8.678
			s3.888-8.678,8.678-8.678S303.729,108.023,303.729,112.814"/>
		<path style="fill:#BAB395;" d="M156.203,78.102h-34.712c-4.79,0-8.678-3.888-8.678-8.678s3.888-8.678,8.678-8.678h34.712
			c4.79,0,8.678,3.888,8.678,8.678S160.994,78.102,156.203,78.102"/>
		<path style="fill:#BAB395;" d="M78.102,69.424c0-4.79,3.888-8.678,8.678-8.678s8.678,3.888,8.678,8.678s-3.888,8.678-8.678,8.678
			S78.102,74.214,78.102,69.424"/>
		<path style="fill:#BAB395;" d="M364.475,69.424c0-4.79,3.888-8.678,8.678-8.678s8.678,3.888,8.678,8.678s-3.888,8.678-8.678,8.678
			S364.475,74.214,364.475,69.424"/>
		<path style="fill:#BAB395;" d="M338.441,78.102h-26.034c-4.79,0-8.678-3.888-8.678-8.678s3.888-8.678,8.678-8.678h26.034
			c4.79,0,8.678,3.888,8.678,8.678S343.231,78.102,338.441,78.102"/>
		<path style="fill:#BAB395;" d="M269.017,69.424c0-4.79,3.888-8.678,8.678-8.678s8.678,3.888,8.678,8.678s-3.888,8.678-8.678,8.678
			S269.017,74.214,269.017,69.424"/>
		<path style="fill:#BAB395;" d="M182.237,69.424c0-4.79,3.888-8.678,8.678-8.678s8.678,3.888,8.678,8.678s-3.888,8.678-8.678,8.678
			S182.237,74.214,182.237,69.424"/>
		<path style="fill:#BAB395;" d="M242.983,78.102h-17.356c-4.79,0-8.678-3.888-8.678-8.678s3.888-8.678,8.678-8.678h17.356
			c4.79,0,8.678,3.888,8.678,8.678S247.773,78.102,242.983,78.102"/>
		<path style="fill:#BAB395;" d="M156.203,164.881h-34.712c-4.79,0-8.678-3.888-8.678-8.678s3.888-8.678,8.678-8.678h34.712
			c4.79,0,8.678,3.888,8.678,8.678S160.994,164.881,156.203,164.881"/>
		<path style="fill:#BAB395;" d="M78.102,156.203c0-4.79,3.888-8.678,8.678-8.678s8.678,3.888,8.678,8.678s-3.888,8.678-8.678,8.678
			S78.102,160.994,78.102,156.203"/>
		<path style="fill:#BAB395;" d="M364.475,156.203c0-4.79,3.888-8.678,8.678-8.678s8.678,3.888,8.678,8.678
			s-3.888,8.678-8.678,8.678S364.475,160.994,364.475,156.203"/>
		<path style="fill:#BAB395;" d="M338.441,164.881h-26.034c-4.79,0-8.678-3.888-8.678-8.678s3.888-8.678,8.678-8.678h26.034
			c4.79,0,8.678,3.888,8.678,8.678S343.231,164.881,338.441,164.881"/>
		<path style="fill:#BAB395;" d="M269.017,156.203c0-4.79,3.888-8.678,8.678-8.678s8.678,3.888,8.678,8.678
			s-3.888,8.678-8.678,8.678S269.017,160.994,269.017,156.203"/>
		<path style="fill:#BAB395;" d="M182.237,156.203c0-4.79,3.888-8.678,8.678-8.678s8.678,3.888,8.678,8.678
			s-3.888,8.678-8.678,8.678S182.237,160.994,182.237,156.203"/>
		<path style="fill:#BAB395;" d="M242.983,164.881h-17.356c-4.79,0-8.678-3.888-8.678-8.678s3.888-8.678,8.678-8.678h17.356
			c4.79,0,8.678,3.888,8.678,8.678S247.773,164.881,242.983,164.881"/>
		<path style="fill:#BAB395;" d="M260.339,208.271h-69.424c-4.79,0-8.678-3.888-8.678-8.678s3.888-8.678,8.678-8.678h69.424
			c4.79,0,8.678,3.888,8.678,8.678S265.129,208.271,260.339,208.271"/>
		<path style="fill:#BAB395;" d="M164.881,199.593c0,4.79-3.888,8.678-8.678,8.678s-8.678-3.888-8.678-8.678
			s3.888-8.678,8.678-8.678S164.881,194.803,164.881,199.593"/>
		<path style="fill:#BAB395;" d="M121.492,208.271H86.78c-4.79,0-8.678-3.888-8.678-8.678s3.888-8.678,8.678-8.678h34.712
			c4.79,0,8.678,3.888,8.678,8.678S126.282,208.271,121.492,208.271"/>
		<path style="fill:#BAB395;" d="M373.153,208.271h-43.39c-4.79,0-8.678-3.888-8.678-8.678s3.888-8.678,8.678-8.678h43.39
			c4.79,0,8.678,3.888,8.678,8.678S377.943,208.271,373.153,208.271"/>
		<path style="fill:#BAB395;" d="M303.729,199.593c0,4.79-3.888,8.678-8.678,8.678s-8.678-3.888-8.678-8.678
			s3.888-8.678,8.678-8.678S303.729,194.803,303.729,199.593"/>
		<path style="fill:#BAB395;" d="M156.203,251.661h-34.712c-4.79,0-8.678-3.888-8.678-8.678s3.888-8.678,8.678-8.678h34.712
			c4.79,0,8.678,3.888,8.678,8.678S160.994,251.661,156.203,251.661"/>
		<path style="fill:#BAB395;" d="M78.102,242.983c0-4.79,3.888-8.678,8.678-8.678s8.678,3.888,8.678,8.678s-3.888,8.678-8.678,8.678
			S78.102,247.773,78.102,242.983"/>
		<path style="fill:#BAB395;" d="M364.475,242.983c0-4.79,3.888-8.678,8.678-8.678s8.678,3.888,8.678,8.678
			s-3.888,8.678-8.678,8.678S364.475,247.773,364.475,242.983"/>
		<path style="fill:#BAB395;" d="M338.441,251.661h-26.034c-4.79,0-8.678-3.888-8.678-8.678s3.888-8.678,8.678-8.678h26.034
			c4.79,0,8.678,3.888,8.678,8.678S343.231,251.661,338.441,251.661"/>
		<path style="fill:#BAB395;" d="M269.017,242.983c0-4.79,3.888-8.678,8.678-8.678s8.678,3.888,8.678,8.678
			s-3.888,8.678-8.678,8.678S269.017,247.773,269.017,242.983"/>
		<path style="fill:#BAB395;" d="M182.237,242.983c0-4.79,3.888-8.678,8.678-8.678s8.678,3.888,8.678,8.678
			s-3.888,8.678-8.678,8.678S182.237,247.773,182.237,242.983"/>
		<path style="fill:#BAB395;" d="M242.983,251.661h-17.356c-4.79,0-8.678-3.888-8.678-8.678s3.888-8.678,8.678-8.678h17.356
			c4.79,0,8.678,3.888,8.678,8.678S247.773,251.661,242.983,251.661"/>
		<path style="fill:#BAB395;" d="M156.203,295.051h-34.712c-4.79,0-8.678-3.888-8.678-8.678c0-4.79,3.888-8.678,8.678-8.678h34.712
			c4.79,0,8.678,3.888,8.678,8.678C164.881,291.163,160.994,295.051,156.203,295.051"/>
		<path style="fill:#BAB395;" d="M78.102,286.373c0-4.79,3.888-8.678,8.678-8.678s8.678,3.888,8.678,8.678
			c0,4.79-3.888,8.678-8.678,8.678S78.102,291.163,78.102,286.373"/>
		<path style="fill:#BAB395;" d="M364.475,286.373c0-4.79,3.888-8.678,8.678-8.678s8.678,3.888,8.678,8.678
			c0,4.79-3.888,8.678-8.678,8.678S364.475,291.163,364.475,286.373"/>
		<path style="fill:#BAB395;" d="M338.441,295.051h-26.034c-4.79,0-8.678-3.888-8.678-8.678c0-4.79,3.888-8.678,8.678-8.678h26.034
			c4.79,0,8.678,3.888,8.678,8.678C347.119,291.163,343.231,295.051,338.441,295.051"/>
		<path style="fill:#BAB395;" d="M269.017,286.373c0-4.79,3.888-8.678,8.678-8.678s8.678,3.888,8.678,8.678
			c0,4.79-3.888,8.678-8.678,8.678S269.017,291.163,269.017,286.373"/>
		<path style="fill:#BAB395;" d="M182.237,286.373c0-4.79,3.888-8.678,8.678-8.678s8.678,3.888,8.678,8.678
			c0,4.79-3.888,8.678-8.678,8.678S182.237,291.163,182.237,286.373"/>
		<path style="fill:#BAB395;" d="M242.983,295.051h-17.356c-4.79,0-8.678-3.888-8.678-8.678c0-4.79,3.888-8.678,8.678-8.678h17.356
			c4.79,0,8.678,3.888,8.678,8.678C251.661,291.163,247.773,295.051,242.983,295.051"/>
		<path style="fill:#BAB395;" d="M260.339,338.441h-69.424c-4.79,0-8.678-3.888-8.678-8.678c0-4.79,3.888-8.678,8.678-8.678h69.424
			c4.79,0,8.678,3.888,8.678,8.678C269.017,334.553,265.129,338.441,260.339,338.441"/>
		<path style="fill:#BAB395;" d="M164.881,329.763c0,4.79-3.888,8.678-8.678,8.678s-8.678-3.888-8.678-8.678
			c0-4.79,3.888-8.678,8.678-8.678S164.881,324.972,164.881,329.763"/>
		<path style="fill:#BAB395;" d="M121.492,338.441H86.78c-4.79,0-8.678-3.888-8.678-8.678c0-4.79,3.888-8.678,8.678-8.678h34.712
			c4.79,0,8.678,3.888,8.678,8.678C130.169,334.553,126.282,338.441,121.492,338.441"/>
		<path style="fill:#BAB395;" d="M373.153,338.441h-43.39c-4.79,0-8.678-3.888-8.678-8.678c0-4.79,3.888-8.678,8.678-8.678h43.39
			c4.79,0,8.678,3.888,8.678,8.678C381.831,334.553,377.943,338.441,373.153,338.441"/>
		<path style="fill:#BAB395;" d="M303.729,329.763c0,4.79-3.888,8.678-8.678,8.678s-8.678-3.888-8.678-8.678
			c0-4.79,3.888-8.678,8.678-8.678S303.729,324.972,303.729,329.763"/>
		<path style="fill:#BAB395;" d="M156.203,381.831h-34.712c-4.79,0-8.678-3.888-8.678-8.678c0-4.79,3.888-8.678,8.678-8.678h34.712
			c4.79,0,8.678,3.888,8.678,8.678C164.881,377.943,160.994,381.831,156.203,381.831"/>
		<path style="fill:#BAB395;" d="M78.102,373.153c0-4.79,3.888-8.678,8.678-8.678s8.678,3.888,8.678,8.678
			c0,4.79-3.888,8.678-8.678,8.678S78.102,377.943,78.102,373.153"/>
		<path style="fill:#BAB395;" d="M364.475,373.153c0-4.79,3.888-8.678,8.678-8.678s8.678,3.888,8.678,8.678
			c0,4.79-3.888,8.678-8.678,8.678S364.475,377.943,364.475,373.153"/>
		<path style="fill:#BAB395;" d="M338.441,381.831h-26.034c-4.79,0-8.678-3.888-8.678-8.678c0-4.79,3.888-8.678,8.678-8.678h26.034
			c4.79,0,8.678,3.888,8.678,8.678C347.119,377.943,343.231,381.831,338.441,381.831"/>
		<path style="fill:#BAB395;" d="M269.017,373.153c0-4.79,3.888-8.678,8.678-8.678s8.678,3.888,8.678,8.678
			c0,4.79-3.888,8.678-8.678,8.678S269.017,377.943,269.017,373.153"/>
		<path style="fill:#BAB395;" d="M182.237,373.153c0-4.79,3.888-8.678,8.678-8.678s8.678,3.888,8.678,8.678
			c0,4.79-3.888,8.678-8.678,8.678S182.237,377.943,182.237,373.153"/>
		<path style="fill:#BAB395;" d="M242.983,381.831h-17.356c-4.79,0-8.678-3.888-8.678-8.678c0-4.79,3.888-8.678,8.678-8.678h17.356
			c4.79,0,8.678,3.888,8.678,8.678C251.661,377.943,247.773,381.831,242.983,381.831"/>
	</g>
</g>
</svg>