<?xml version="1.0" encoding="iso-8859-1"?>
<!-- Uploaded to: SVG Repo, www.svgrepo.com, Generator: SVG Repo Mixer Tools -->
<svg version="1.1" id="Layer_1" xmlns="http://www.w3.org/2000/svg" xmlns:xlink="http://www.w3.org/1999/xlink" 
	 viewBox="0 0 512 512" xml:space="preserve">
<g transform="translate(1 1)">
	<path style="fill:#FDCC00;" d="M502.467,255c0,136.533-110.933,247.467-247.467,247.467S7.533,391.533,7.533,255
		S118.467,7.533,255,7.533S502.467,118.467,502.467,255"/>
	<path style="fill:#FFA800;" d="M255,7.533c-2.56,0-5.973,0-8.533,0C379.587,11.8,485.4,121.027,485.4,255
		S379.587,497.347,246.467,502.467c2.56,0,5.973,0,8.533,0c136.533,0,247.467-110.933,247.467-247.467S391.533,7.533,255,7.533"/>
	<path style="fill:#FFFFFF;" d="M255,7.533c2.56,0,5.973,0,8.533,0C130.413,12.653,24.6,121.027,24.6,255
		s105.813,242.347,238.933,247.467c-2.56,0-5.973,0-8.533,0C118.467,502.467,7.533,391.533,7.533,255S118.467,7.533,255,7.533"/>
	<path style="fill:#FFE100;" d="M459.8,255c0,113.493-91.307,204.8-204.8,204.8S50.2,368.493,50.2,255S141.507,50.2,255,50.2
		S459.8,141.507,459.8,255"/>
	<path style="fill:#63D3FD;" d="M314.733,255c0,33.28-26.453,59.733-59.733,59.733S195.267,288.28,195.267,255
		S221.72,195.267,255,195.267S314.733,221.72,314.733,255"/>
	<path style="fill:#3DB9F9;" d="M255.853,195.267c-4.267,0-8.533,0.853-12.8,1.707c26.453,5.973,46.933,29.867,46.933,58.027
		s-20.48,52.053-46.933,58.027c4.267,0.853,8.533,1.707,12.8,1.707c33.28,0,59.733-26.453,59.733-59.733
		S289.133,195.267,255.853,195.267"/>
	<path d="M255,511C114.2,511-1,395.8-1,255S114.2-1,255-1s256,115.2,256,256S395.8,511,255,511z M255,16.067
		C123.587,16.067,16.067,123.587,16.067,255S123.587,493.933,255,493.933S493.933,386.413,493.933,255S386.413,16.067,255,16.067z"
		/>
	<path d="M255,468.333C137.24,468.333,41.667,372.76,41.667,255S137.24,41.667,255,41.667S468.333,137.24,468.333,255
		S372.76,468.333,255,468.333z M255,58.733C146.627,58.733,58.733,146.627,58.733,255S146.627,451.267,255,451.267
		S451.267,363.373,451.267,255S363.373,58.733,255,58.733z"/>
	<rect x="246.467" y="314.733" width="17.067" height="145.067"/>
	<rect x="246.467" y="50.2" width="17.067" height="145.067"/>
	<rect x="50.2" y="246.467" width="145.067" height="17.067"/>
	<rect x="314.733" y="246.467" width="145.067" height="17.067"/>
	<path d="M255,323.267c-37.547,0-68.267-30.72-68.267-68.267s30.72-68.267,68.267-68.267s68.267,30.72,68.267,68.267
		S292.547,323.267,255,323.267z M255,203.8c-28.16,0-51.2,23.04-51.2,51.2s23.04,51.2,51.2,51.2s51.2-23.04,51.2-51.2
		S283.16,203.8,255,203.8z"/>
	<path d="M195.267,144.067H152.6c-5.12,0-8.533-3.413-8.533-8.533S147.48,127,152.6,127h42.667c5.12,0,8.533,3.413,8.533,8.533
		S200.387,144.067,195.267,144.067z"/>
	<path d="M169.667,186.733H127c-5.12,0-8.533-3.413-8.533-8.533c0-5.12,3.413-8.533,8.533-8.533h42.667
		c5.12,0,8.533,3.413,8.533,8.533C178.2,183.32,174.787,186.733,169.667,186.733z"/>
	<path d="M357.4,331.8h-42.667c-5.12,0-8.533-3.413-8.533-8.533c0-5.12,3.413-8.533,8.533-8.533H357.4
		c5.12,0,8.533,3.413,8.533,8.533C365.933,328.387,362.52,331.8,357.4,331.8z"/>
	<path d="M383,374.467h-42.667c-5.12,0-8.533-3.413-8.533-8.533s3.413-8.533,8.533-8.533H383c5.12,0,8.533,3.413,8.533,8.533
		S388.12,374.467,383,374.467z"/>
	<path d="M331.8,178.2c-2.56,0-4.267-0.853-5.973-2.56c-3.413-3.413-3.413-8.533,0-11.947l25.6-25.6
		c3.413-3.413,8.533-3.413,11.947,0c3.413,3.413,3.413,8.533,0,11.947l-25.6,25.6C336.067,177.347,334.36,178.2,331.8,178.2z"/>
	<path d="M357.4,178.2c-2.56,0-4.267-0.853-5.973-2.56l-25.6-25.6c-3.413-3.413-3.413-8.533,0-11.947
		c3.413-3.413,8.533-3.413,11.947,0l25.6,25.6c3.413,3.413,3.413,8.533,0,11.947C361.667,177.347,359.96,178.2,357.4,178.2z"/>
	<path d="M152.6,365.933c-2.56,0-4.267-0.853-5.973-2.56c-3.413-3.413-3.413-8.533,0-11.947l25.6-25.6
		c3.413-3.413,8.533-3.413,11.947,0c3.413,3.413,3.413,8.533,0,11.947l-25.6,25.6C156.867,365.08,155.16,365.933,152.6,365.933z"/>
	<path d="M178.2,365.933c-2.56,0-4.267-0.853-5.973-2.56l-25.6-25.6c-3.413-3.413-3.413-8.533,0-11.947
		c3.413-3.413,8.533-3.413,11.947,0l25.6,25.6c3.413,3.413,3.413,8.533,0,11.947C182.467,365.08,180.76,365.933,178.2,365.933z"/>
	<path d="M229.4,263.533c-5.12,0-8.533-3.413-8.533-8.533c0-18.773,15.36-34.133,34.133-34.133c5.12,0,8.533,3.413,8.533,8.533
		c0,5.12-3.413,8.533-8.533,8.533c-9.387,0-17.067,7.68-17.067,17.067C237.933,260.12,234.52,263.533,229.4,263.533z"/>
</g>
</svg>