<?xml version="1.0" encoding="iso-8859-1"?>
<!-- Uploaded to: SVG Repo, www.svgrepo.com, Generator: SVG Repo Mixer Tools -->
<svg fill="#000000" height="800px" width="800px" version="1.1" id="Layer_1" xmlns="http://www.w3.org/2000/svg" xmlns:xlink="http://www.w3.org/1999/xlink" 
	 viewBox="0 0 507.768 507.768" xml:space="preserve">
<g transform="translate(1 1)">
	<g>
		<g>
			<path d="M493.541,430.821c-8.533-8.533-19.627-12.8-31.573-12.8c-2.422,0-4.807,0.185-7.145,0.535l-49.186-49.186
				c10.004-14.787,17.018-31.543,20.491-49.483c1.707-9.387-0.853-18.773-6.827-25.6c-5.973-6.827-14.507-11.093-23.893-10.24
				c-13.653,0.853-25.6,11.093-28.16,24.747c-1.044,6.266-2.81,12.241-5.217,17.823l-28.917-28.917l30.72-30.72
				c3.413-3.413,3.413-8.533,0-11.947C194.875,86.075,13.115,0.741,11.408-0.112C7.995-1.819,4.581-0.965,2.021,1.595
				s-3.413,5.973-1.707,9.387c0.305,0.61,11.413,24.243,33.28,62.075v122.245c0,18.773,15.36,34.133,34.133,34.133
				s34.133-15.36,34.987-34.133v-14.346c10.316,14.648,21.409,29.836,33.28,45.393v122.554c0,18.773,15.36,34.133,34.133,34.133
				c18.773,0,34.133-15.36,34.133-34.133v-39.754c16.116,18.077,33.181,36.241,51.2,54.261c1.707,1.707,3.413,2.56,5.973,2.56
				s4.267-0.853,5.973-2.56l29.867-29.867l29.403,29.403c-6.344,3.079-13.091,5.283-20.016,6.437
				c-13.653,2.56-23.893,14.507-23.893,29.013c0,9.387,4.267,17.92,11.093,23.893c5.12,4.267,11.947,6.827,18.773,6.827
				c1.707,0,3.413,0,4.267-1.707c18.95-3.553,37.073-11.223,52.953-22.14l48.539,48.539c-2.664,14.165,1.336,29.496,12.001,40.161
				c8.533,8.533,19.627,12.8,31.573,12.8c11.947,0,23.893-5.12,31.573-12.8C510.608,476.901,510.608,447.888,493.541,430.821z
				 M84.795,195.301c0,9.387-7.68,17.067-17.067,17.067s-17.067-7.68-17.067-17.067v-93.013
				c11.093,17.92,22.187,35.84,34.133,52.907V195.301z M187.195,348.901c0,9.387-7.68,17.067-17.067,17.067
				s-17.067-7.68-17.067-17.067v-99.84c11.093,13.653,22.187,27.307,34.133,40.96V348.901z M261.435,345.488
				c-20.328-20.599-39.381-41.348-57.173-61.893v-0.4l-1.707-2.56c-17.92-19.627-34.987-40.96-51.2-62.293l-6.632-8.474
				c-15.382-20.416-29.385-40.131-42.008-58.741v-0.199l-1.707-2.56c-4.062-5.908-8.028-11.815-11.931-17.715
				C59.878,86.003,39.41,49.343,27.621,27.195c52.907,27.307,188.587,105.813,318.293,233.813L261.435,345.488z M309.221,321.595
				l12.8-11.947l31.549,31.549c-1.832,2.419-3.812,4.714-5.949,6.851c-1.995,1.995-4.105,3.876-6.306,5.64L309.221,321.595z
				 M314.341,412.048c-3.413,0.853-7.68,0-10.24-2.56c-3.413-2.56-5.12-5.973-5.12-10.24c0-6.827,4.267-11.947,10.24-12.8
				c10.865-1.975,21.437-5.963,31.068-11.608l4.772-2.045c5.973-4.267,10.24-7.68,14.507-11.947
				c4.267-4.267,7.68-9.387,11.947-15.36l3.413-5.973l-0.323-0.323c4.601-8.554,7.89-17.828,9.71-27.837
				c0.853-5.973,5.973-10.24,12.8-10.24c4.267,0,7.68,1.707,10.24,5.12c2.56,2.56,3.413,6.827,2.56,11.093
				c-4.267,23.04-15.36,43.52-31.573,60.587c-0.495,0.495-1.005,0.968-1.507,1.454c-3.122,2.929-6.779,5.857-10.44,8.786
				c-0.721,0.36-1.434,1.036-2.026,1.877C349.393,401.246,332.353,408.832,314.341,412.048z M390.288,389.861
				c2.56-1.707,4.267-3.413,5.973-5.973l40.96,40.96c-2.56,1.707-5.12,3.413-6.827,5.12c-1.707,2.56-3.413,4.267-5.12,6.827
				l-40.96-40.96C386.021,394.128,388.581,391.568,390.288,389.861z M481.595,481.168c-10.24,10.24-29.013,10.24-39.253,0
				c-6.872-6.872-9.125-17.201-6.773-26.606c1.689-5.032,3.395-8.416,6.773-11.794c3.413-3.413,7.68-5.12,11.947-6.827
				c1.094-0.274,1.997-0.736,2.768-1.304c8.765-1.426,18.257,0.996,24.539,7.278C492.688,453.008,492.688,470.075,481.595,481.168z"
				/>
			<path d="M150.501,138.128c-3.413-3.413-8.533-3.413-11.947,0s-3.413,8.533,0,11.947l102.4,102.4
				c1.707,1.707,3.413,2.56,5.973,2.56s4.267-0.853,5.973-2.56c3.413-3.413,3.413-8.533,0-11.947L150.501,138.128z"/>
		</g>
	</g>
</g>
</svg>