<?xml version="1.0" encoding="iso-8859-1"?>
<!-- Uploaded to: SVG Repo, www.svgrepo.com, Generator: SVG Repo Mixer Tools -->
<svg height="800px" width="800px" version="1.1" id="Layer_1" xmlns="http://www.w3.org/2000/svg" xmlns:xlink="http://www.w3.org/1999/xlink" 
	 viewBox="0 0 503.322 503.322" xml:space="preserve">
<g>
	<polygon style="fill:#9EADB7;" points="121.492,156.203 381.831,156.203 381.831,95.458 121.492,95.458 	"/>
	<polygon style="fill:#C8D2DA;" points="381.831,95.458 121.492,95.458 95.458,43.39 407.864,43.39 	"/>
	<g>
		<polygon style="fill:#9EADB7;" points="95.458,43.39 130.169,43.39 130.169,0 95.458,0 		"/>
		<polygon style="fill:#9EADB7;" points="164.881,43.39 199.593,43.39 199.593,0 164.881,0 		"/>
		<polygon style="fill:#9EADB7;" points="303.729,43.39 338.441,43.39 338.441,0 303.729,0 		"/>
		<polygon style="fill:#9EADB7;" points="234.305,43.39 269.017,43.39 269.017,0 234.305,0 		"/>
		<polygon style="fill:#9EADB7;" points="373.153,43.39 407.864,43.39 407.864,0 373.153,0 		"/>
	</g>
	<g>
		<path style="fill:#C8D2DA;" d="M164.881,164.881c-4.799,0-8.678-3.888-8.678-8.678v-26.034c0-4.79,3.879-8.678,8.678-8.678
			s8.678,3.888,8.678,8.678v26.034C173.559,160.994,169.68,164.881,164.881,164.881"/>
		<path style="fill:#C8D2DA;" d="M26.034,381.831c-4.799,0-8.678-3.888-8.678-8.678v-26.034c0-4.79,3.879-8.678,8.678-8.678
			s8.678,3.888,8.678,8.678v26.034C34.712,377.943,30.833,381.831,26.034,381.831"/>
		<path style="fill:#C8D2DA;" d="M60.746,381.831c-4.799,0-8.678-3.888-8.678-8.678v-26.034c0-4.79,3.879-8.678,8.678-8.678
			s8.678,3.888,8.678,8.678v26.034C69.424,377.943,65.545,381.831,60.746,381.831"/>
		<path style="fill:#C8D2DA;" d="M95.458,381.831c-4.799,0-8.678-3.888-8.678-8.678v-26.034c0-4.79,3.879-8.678,8.678-8.678
			s8.678,3.888,8.678,8.678v26.034C104.136,377.943,100.257,381.831,95.458,381.831"/>
		<path style="fill:#C8D2DA;" d="M407.864,381.831c-4.799,0-8.678-3.888-8.678-8.678v-26.034c0-4.79,3.879-8.678,8.678-8.678
			s8.678,3.888,8.678,8.678v26.034C416.542,377.943,412.663,381.831,407.864,381.831"/>
		<path style="fill:#C8D2DA;" d="M442.576,381.831c-4.799,0-8.678-3.888-8.678-8.678v-26.034c0-4.79,3.879-8.678,8.678-8.678
			c4.799,0,8.678,3.888,8.678,8.678v26.034C451.254,377.943,447.375,381.831,442.576,381.831"/>
		<path style="fill:#C8D2DA;" d="M477.288,381.831c-4.799,0-8.678-3.888-8.678-8.678v-26.034c0-4.79,3.879-8.678,8.678-8.678
			s8.678,3.888,8.678,8.678v26.034C485.966,377.943,482.087,381.831,477.288,381.831"/>
		<path style="fill:#C8D2DA;" d="M208.271,164.881c-4.799,0-8.678-3.888-8.678-8.678v-26.034c0-4.79,3.879-8.678,8.678-8.678
			s8.678,3.888,8.678,8.678v26.034C216.949,160.994,213.07,164.881,208.271,164.881"/>
		<path style="fill:#C8D2DA;" d="M251.661,164.881c-4.799,0-8.678-3.888-8.678-8.678v-26.034c0-4.79,3.879-8.678,8.678-8.678
			c4.799,0,8.678,3.888,8.678,8.678v26.034C260.339,160.994,256.46,164.881,251.661,164.881"/>
		<path style="fill:#C8D2DA;" d="M295.051,164.881c-4.799,0-8.678-3.888-8.678-8.678v-26.034c0-4.79,3.879-8.678,8.678-8.678
			c4.799,0,8.678,3.888,8.678,8.678v26.034C303.729,160.994,299.85,164.881,295.051,164.881"/>
		<path style="fill:#C8D2DA;" d="M338.441,164.881c-4.799,0-8.678-3.888-8.678-8.678v-26.034c0-4.79,3.879-8.678,8.678-8.678
			c4.799,0,8.678,3.888,8.678,8.678v26.034C347.119,160.994,343.24,164.881,338.441,164.881"/>
	</g>
	<g>
		<polygon style="fill:#9EADB7;" points="0,503.322 121.492,503.322 121.492,373.153 0,373.153 		"/>
		<polygon style="fill:#9EADB7;" points="381.831,503.322 503.322,503.322 503.322,373.153 381.831,373.153 		"/>
	</g>
	<polygon style="fill:#C8D2DA;" points="121.492,503.322 381.831,503.322 381.831,156.203 121.492,156.203 	"/>
	<g>
		<path style="fill:#9EADB7;" d="M277.695,503.322h-52.068v-86.78c0-14.379,11.655-26.034,26.034-26.034
			c14.379,0,26.034,11.655,26.034,26.034V503.322z"/>
		<path style="fill:#9EADB7;" d="M269.017,321.085h-34.712v-52.068c0-9.589,7.767-17.356,17.356-17.356s17.356,7.767,17.356,17.356
			V321.085z"/>
		<path style="fill:#9EADB7;" d="M190.915,373.153h-34.712v-52.068c0-9.589,7.767-17.356,17.356-17.356
			c9.589,0,17.356,7.767,17.356,17.356V373.153z"/>
		<path style="fill:#9EADB7;" d="M347.119,260.339h-34.712v-52.068c0-9.589,7.767-17.356,17.356-17.356s17.356,7.767,17.356,17.356
			V260.339z"/>
		<path style="fill:#9EADB7;" d="M225.627,208.271h-34.712c-4.799,0-8.678-3.888-8.678-8.678s3.879-8.678,8.678-8.678h34.712
			c4.799,0,8.678,3.888,8.678,8.678S230.426,208.271,225.627,208.271"/>
		<path style="fill:#9EADB7;" d="M147.525,199.593c0-4.79,3.888-8.678,8.678-8.678s8.678,3.888,8.678,8.678
			s-3.888,8.678-8.678,8.678S147.525,204.383,147.525,199.593"/>
		<path style="fill:#9EADB7;" d="M312.407,364.475h-34.712c-4.799,0-8.678-3.888-8.678-8.678c0-4.79,3.879-8.678,8.678-8.678h34.712
			c4.799,0,8.678,3.888,8.678,8.678C321.085,360.587,317.206,364.475,312.407,364.475"/>
		<path style="fill:#9EADB7;" d="M355.797,355.797c0,4.79-3.888,8.678-8.678,8.678s-8.678-3.888-8.678-8.678
			c0-4.79,3.888-8.678,8.678-8.678S355.797,351.006,355.797,355.797"/>
	</g>
</g>
</svg>