<?xml version="1.0" encoding="iso-8859-1"?>
<!-- Uploaded to: SVG Repo, www.svgrepo.com, Generator: SVG Repo Mixer Tools -->
<svg fill="#000000" height="800px" width="800px" version="1.1" id="Layer_1" xmlns="http://www.w3.org/2000/svg" xmlns:xlink="http://www.w3.org/1999/xlink" 
	 viewBox="0 0 512 512" xml:space="preserve">
<g>
	<g>
		<g>
			<path d="M192,192h42.667c11.782,0,21.333-9.551,21.333-21.333c0-11.782-9.551-21.333-21.333-21.333H192
				c-11.782,0-21.333,9.551-21.333,21.333C170.667,182.449,180.218,192,192,192z"/>
			<path d="M320,234.667h-42.667C265.551,234.667,256,244.218,256,256s9.551,21.333,21.333,21.333H320
				c11.782,0,21.333-9.551,21.333-21.333S331.782,234.667,320,234.667z"/>
			<path d="M320,149.333h-21.333c-11.782,0-21.333,9.551-21.333,21.333c0,11.782,9.551,21.333,21.333,21.333H320
				c11.782,0,21.333-9.551,21.333-21.333C341.333,158.885,331.782,149.333,320,149.333z"/>
			<path d="M234.667,320H192c-11.782,0-21.333,9.551-21.333,21.333c0,11.782,9.551,21.333,21.333,21.333h42.667
				c11.782,0,21.333-9.551,21.333-21.333C256,329.551,246.449,320,234.667,320z"/>
			<path d="M320,320h-21.333c-11.782,0-21.333,9.551-21.333,21.333c0,11.782,9.551,21.333,21.333,21.333H320
				c11.782,0,21.333-9.551,21.333-21.333C341.333,329.551,331.782,320,320,320z"/>
			<path d="M192,277.333c11.776,0,21.333-9.557,21.333-21.333s-9.557-21.333-21.333-21.333s-21.333,9.557-21.333,21.333
				S180.224,277.333,192,277.333z"/>
			<path d="M490.667,426.667C490.667,403.109,471.558,384,448,384h-21.333V128H448c23.558,0,42.667-19.109,42.667-42.667
				C502.449,85.333,512,75.782,512,64c0-11.782-9.551-21.333-21.333-21.333C490.667,19.109,471.558,0,448,0H64
				C40.442,0,21.333,19.109,21.333,42.667C9.551,42.667,0,52.218,0,64c0,11.782,9.551,21.333,21.333,21.333
				C21.333,108.891,40.442,128,64,128h21.333v256H64c-23.558,0-42.667,19.109-42.667,42.667C9.551,426.667,0,436.218,0,448
				c0,11.782,9.551,21.333,21.333,21.333C21.333,492.891,40.442,512,64,512h384c23.558,0,42.667-19.109,42.667-42.667
				c11.782,0,21.333-9.551,21.333-21.333C512,436.218,502.449,426.667,490.667,426.667z M64,42.667h384v42.667h-42.667H106.667H64
				V42.667z M128,128h256v256H128V128z M448,469.333H64v-42.667h42.667h298.667H448V469.333z"/>
		</g>
	</g>
</g>
</svg>