<?xml version="1.0" encoding="iso-8859-1"?>
<!-- Uploaded to: SVG Repo, www.svgrepo.com, Generator: SVG Repo Mixer Tools -->
<svg height="800px" width="800px" version="1.1" id="Layer_1" xmlns="http://www.w3.org/2000/svg" xmlns:xlink="http://www.w3.org/1999/xlink" 
	 viewBox="0 0 512 512" xml:space="preserve">
<g transform="translate(1 1)">
	<g>
		<path style="fill:#FFE100;" d="M50.2,438.467c-5.12,0-8.533-3.413-8.533-8.533V208.067c0-5.12,3.413-8.533,8.533-8.533
			s8.533,3.413,8.533,8.533v221.867C58.733,435.053,55.32,438.467,50.2,438.467z"/>
		<path style="fill:#FFE100;" d="M476.867,438.467c-5.12,0-8.533-3.413-8.533-8.533V208.067c0-5.12,3.413-8.533,8.533-8.533
			c5.12,0,8.533,3.413,8.533,8.533v221.867C485.4,435.053,481.987,438.467,476.867,438.467z"/>
		<polygon style="fill:#FFE100;" points="7.533,208.067 502.467,208.067 502.467,173.933 7.533,173.933 		"/>
		<polygon style="fill:#FFE100;" points="7.533,464.067 502.467,464.067 502.467,429.933 7.533,429.933 		"/>
		<polygon style="fill:#FFE100;" points="58.733,122.733 161.133,122.733 161.133,88.6 58.733,88.6 		"/>
		<polygon style="fill:#FFE100;" points="203.8,122.733 306.2,122.733 306.2,88.6 203.8,88.6 		"/>
	</g>
	<g>
		<polygon style="fill:#FFA800;" points="476.867,464.067 502.467,464.067 502.467,429.933 476.867,429.933 		"/>
		<polygon style="fill:#FFA800;" points="476.867,208.067 502.467,208.067 502.467,173.933 476.867,173.933 		"/>
	</g>
	<g>
		<polygon style="fill:#FFFFFF;" points="7.533,464.067 33.133,464.067 33.133,429.933 7.533,429.933 		"/>
		<polygon style="fill:#FFFFFF;" points="7.533,208.067 33.133,208.067 33.133,173.933 7.533,173.933 		"/>
	</g>
	<g>
		<polygon style="fill:#FFE100;" points="348.867,122.733 451.267,122.733 451.267,88.6 348.867,88.6 		"/>
		<polygon style="fill:#FFE100;" points="144.067,88.6 75.8,88.6 58.733,45.933 161.133,45.933 		"/>
		<polygon style="fill:#FFE100;" points="289.133,88.6 220.867,88.6 203.8,45.933 306.2,45.933 		"/>
		<polygon style="fill:#FFE100;" points="434.2,88.6 365.933,88.6 348.867,45.933 451.267,45.933 		"/>
		<polygon style="fill:#FFE100;" points="75.8,173.933 144.067,173.933 144.067,122.733 75.8,122.733 		"/>
		<path style="fill:#FFE100;" d="M75.8,208.067v145.067c0,18.773,15.36,34.133,34.133,34.133s34.133-15.36,34.133-34.133V208.067
			H75.8z"/>
		<path style="fill:#FFE100;" d="M220.867,208.067v145.067c0,18.773,15.36,34.133,34.133,34.133s34.133-15.36,34.133-34.133V208.067
			H220.867z"/>
		<polygon style="fill:#FFE100;" points="220.867,173.933 289.133,173.933 289.133,122.733 220.867,122.733 		"/>
		<polygon style="fill:#FFE100;" points="365.933,173.933 434.2,173.933 434.2,122.733 365.933,122.733 		"/>
		<path style="fill:#FFE100;" d="M365.933,208.067v145.067c0,18.773,15.36,34.133,34.133,34.133s34.133-15.36,34.133-34.133V208.067
			H365.933z"/>
	</g>
	<g>
		<path style="fill:#63D3FD;" d="M109.933,387.267L109.933,387.267c-18.773,0-34.133-15.36-34.133-34.133v-93.867h68.267v93.867
			C144.067,371.907,128.707,387.267,109.933,387.267"/>
		<path style="fill:#63D3FD;" d="M255,387.267L255,387.267c-18.773,0-34.133-15.36-34.133-34.133v-93.867h68.267v93.867
			C289.133,371.907,273.773,387.267,255,387.267"/>
		<path style="fill:#63D3FD;" d="M400.067,387.267L400.067,387.267c-18.773,0-34.133-15.36-34.133-34.133v-93.867H434.2v93.867
			C434.2,371.907,418.84,387.267,400.067,387.267"/>
	</g>
	<path d="M502.467,216.6H7.533c-5.12,0-8.533-3.413-8.533-8.533v-34.133c0-5.12,3.413-8.533,8.533-8.533h494.933
		c5.12,0,8.533,3.413,8.533,8.533v34.133C511,213.187,507.587,216.6,502.467,216.6z M16.067,199.533h477.867v-17.067H16.067V199.533
		z"/>
	<path d="M502.467,472.6H7.533c-5.12,0-8.533-3.413-8.533-8.533v-34.133c0-5.12,3.413-8.533,8.533-8.533h494.933
		c5.12,0,8.533,3.413,8.533,8.533v34.133C511,469.187,507.587,472.6,502.467,472.6z M16.067,455.533h477.867v-17.067H16.067V455.533
		z"/>
	<path d="M161.133,131.267h-102.4c-5.12,0-8.533-3.413-8.533-8.533V88.6c0-5.12,3.413-8.533,8.533-8.533h102.4
		c5.12,0,8.533,3.413,8.533,8.533v34.133C169.667,127.853,166.253,131.267,161.133,131.267z M67.267,114.2H152.6V97.133H67.267
		V114.2z"/>
	<path d="M306.2,131.267H203.8c-5.12,0-8.533-3.413-8.533-8.533V88.6c0-5.12,3.413-8.533,8.533-8.533h102.4
		c5.12,0,8.533,3.413,8.533,8.533v34.133C314.733,127.853,311.32,131.267,306.2,131.267z M212.333,114.2h85.333V97.133h-85.333
		V114.2z"/>
	<path d="M451.267,131.267h-102.4c-5.12,0-8.533-3.413-8.533-8.533V88.6c0-5.12,3.413-8.533,8.533-8.533h102.4
		c5.12,0,8.533,3.413,8.533,8.533v34.133C459.8,127.853,456.387,131.267,451.267,131.267z M357.4,114.2h85.333V97.133H357.4V114.2z"
		/>
	<path d="M41.667,438.467c-5.12,0-8.533-3.413-8.533-8.533V208.067c0-5.12,3.413-8.533,8.533-8.533s8.533,3.413,8.533,8.533v221.867
		C50.2,435.053,46.787,438.467,41.667,438.467z"/>
	<path d="M468.333,438.467c-5.12,0-8.533-3.413-8.533-8.533V208.067c0-5.12,3.413-8.533,8.533-8.533c5.12,0,8.533,3.413,8.533,8.533
		v221.867C476.867,435.053,473.453,438.467,468.333,438.467z"/>
	<path d="M144.067,97.133H75.8c-3.413,0-6.827-1.707-7.68-5.12L51.053,49.347c-1.707-2.56-0.853-5.973,0.853-8.533
		s4.267-3.413,6.827-3.413h102.4c2.56,0,5.12,1.707,6.827,3.413c1.707,1.707,1.707,5.12,0.853,7.68L151.747,91.16
		C150.893,95.427,147.48,97.133,144.067,97.133z M81.773,80.067h56.32l10.24-25.6h-76.8L81.773,80.067z"/>
	<path d="M289.133,97.133h-68.267c-3.413,0-6.827-1.707-7.68-5.12L196.12,49.347c-0.853-2.56-0.853-5.973,0.853-7.68
		c1.707-1.707,4.267-4.267,6.827-4.267h102.4c2.56,0,5.12,1.707,6.827,3.413c1.707,2.56,1.707,5.12,0.853,7.68L296.813,91.16
		C295.96,95.427,292.547,97.133,289.133,97.133z M226.84,80.067h56.32l10.24-25.6h-76.8L226.84,80.067z"/>
	<path d="M434.2,97.133h-68.267c-3.413,0-6.827-1.707-7.68-5.12l-17.067-42.667c-0.853-2.56-0.853-5.973,0.853-7.68
		c1.707-2.56,4.267-4.267,6.827-4.267h102.4c2.56,0,5.12,1.707,6.827,3.413c1.707,2.56,1.707,5.12,0.853,7.68L441.88,91.16
		C441.027,95.427,437.613,97.133,434.2,97.133z M371.907,80.067h56.32l10.24-25.6h-76.8L371.907,80.067z"/>
	<path d="M109.933,395.8c-23.893,0-42.667-18.773-42.667-42.667v-93.867c0-5.12,3.413-8.533,8.533-8.533h68.267
		c5.12,0,8.533,3.413,8.533,8.533v93.867C152.6,377.027,133.827,395.8,109.933,395.8z M84.333,267.8v85.333
		c0,14.507,11.093,25.6,25.6,25.6s25.6-11.093,25.6-25.6V267.8H84.333z"/>
	<path d="M255,395.8c-23.893,0-42.667-18.773-42.667-42.667v-93.867c0-5.12,3.413-8.533,8.533-8.533h68.267
		c5.12,0,8.533,3.413,8.533,8.533v93.867C297.667,377.027,278.893,395.8,255,395.8z M229.4,267.8v85.333
		c0,14.507,11.093,25.6,25.6,25.6c14.507,0,25.6-11.093,25.6-25.6V267.8H229.4z"/>
	<path d="M400.067,395.8c-23.893,0-42.667-18.773-42.667-42.667v-93.867c0-5.12,3.413-8.533,8.533-8.533H434.2
		c5.12,0,8.533,3.413,8.533,8.533v93.867C442.733,377.027,423.96,395.8,400.067,395.8z M374.467,267.8v85.333
		c0,14.507,11.093,25.6,25.6,25.6c14.507,0,25.6-11.093,25.6-25.6V267.8H374.467z"/>
	<path d="M144.067,182.467H75.8c-5.12,0-8.533-3.413-8.533-8.533v-51.2c0-5.12,3.413-8.533,8.533-8.533h68.267
		c5.12,0,8.533,3.413,8.533,8.533v51.2C152.6,179.053,149.187,182.467,144.067,182.467z M84.333,165.4h51.2v-34.133h-51.2V165.4z"/>
	<path d="M109.933,395.8c-23.893,0-42.667-18.773-42.667-42.667V208.067c0-5.12,3.413-8.533,8.533-8.533h68.267
		c5.12,0,8.533,3.413,8.533,8.533v145.067C152.6,377.027,133.827,395.8,109.933,395.8z M84.333,216.6v136.533
		c0,14.507,11.093,25.6,25.6,25.6s25.6-11.093,25.6-25.6V216.6H84.333z"/>
	<path d="M255,395.8c-23.893,0-42.667-18.773-42.667-42.667V208.067c0-5.12,3.413-8.533,8.533-8.533h68.267
		c5.12,0,8.533,3.413,8.533,8.533v145.067C297.667,377.027,278.893,395.8,255,395.8z M229.4,216.6v136.533
		c0,14.507,11.093,25.6,25.6,25.6c14.507,0,25.6-11.093,25.6-25.6V216.6H229.4z"/>
	<path d="M289.133,182.467h-68.267c-5.12,0-8.533-3.413-8.533-8.533v-51.2c0-5.12,3.413-8.533,8.533-8.533h68.267
		c5.12,0,8.533,3.413,8.533,8.533v51.2C297.667,179.053,294.253,182.467,289.133,182.467z M229.4,165.4h51.2v-34.133h-51.2V165.4z"
		/>
	<path d="M434.2,182.467h-68.267c-5.12,0-8.533-3.413-8.533-8.533v-51.2c0-5.12,3.413-8.533,8.533-8.533H434.2
		c5.12,0,8.533,3.413,8.533,8.533v51.2C442.733,179.053,439.32,182.467,434.2,182.467z M374.467,165.4h51.2v-34.133h-51.2V165.4z"/>
	<path d="M400.067,395.8c-23.893,0-42.667-18.773-42.667-42.667V208.067c0-5.12,3.413-8.533,8.533-8.533H434.2
		c5.12,0,8.533,3.413,8.533,8.533v145.067C442.733,377.027,423.96,395.8,400.067,395.8z M374.467,216.6v136.533
		c0,14.507,11.093,25.6,25.6,25.6c14.507,0,25.6-11.093,25.6-25.6V216.6H374.467z"/>
</g>
</svg>