<?xml version="1.0" encoding="iso-8859-1"?>
<!-- Uploaded to: SVG Repo, www.svgrepo.com, Generator: SVG Repo Mixer Tools -->
<svg fill="#000000" height="800px" width="800px" version="1.1" id="Layer_1" xmlns="http://www.w3.org/2000/svg" xmlns:xlink="http://www.w3.org/1999/xlink" 
	 viewBox="0 0 512 512" xml:space="preserve">
<g>
	<g>
		<g>
			<path d="M128,149.333v21.333h-21.333v-46.592c24.768-8.832,42.667-32.299,42.667-60.075c0-35.285-28.715-64-64-64
				s-64,28.715-64,64c0,27.776,17.899,51.243,42.667,60.075v345.259H21.333C9.557,469.333,0,478.891,0,490.667S9.557,512,21.333,512
				h64c11.776,0,21.333-9.557,21.333-21.333v-85.333H128V448c0,11.776,9.557,21.333,21.333,21.333h149.333V320H128v42.667h-21.333
				V213.333H128v64h170.667V128H149.333C137.557,128,128,137.557,128,149.333z"/>
			<path d="M490.667,128H341.333v149.333H512v-128C512,137.557,502.443,128,490.667,128z"/>
			<path d="M341.333,469.333h149.333c11.776,0,21.333-9.557,21.333-21.333V320H341.333V469.333z"/>
		</g>
	</g>
</g>
</svg>