<?xml version="1.0" encoding="iso-8859-1"?>
<!-- Uploaded to: SVG Repo, www.svgrepo.com, Generator: SVG Repo Mixer Tools -->
<svg fill="#000000" height="800px" width="800px" version="1.1" id="Layer_1" xmlns="http://www.w3.org/2000/svg" xmlns:xlink="http://www.w3.org/1999/xlink" 
	 viewBox="0 0 512 512" xml:space="preserve">
<g>
	<g>
		<path d="M490.667,298.667c11.797,0,21.333-9.557,21.333-21.333S502.464,256,490.667,256h-21.333v-42.667h21.333
			c11.797,0,21.333-9.557,21.333-21.333s-9.536-21.333-21.333-21.333h-21.333c0-11.776-9.536-21.333-21.333-21.333h-85.333v-64
			c0-11.776-9.536-21.333-21.333-21.333h-192c0-35.285-28.693-64-64-64c-35.285,0-64,28.715-64,64
			c0,27.776,17.899,51.243,42.667,60.075v174.592v170.667H21.333C9.557,469.333,0,478.891,0,490.667S9.557,512,21.333,512h64
			c11.797,0,21.333-9.557,21.333-21.333V320h64v64c0,2.581,0.619,5.035,1.493,7.36c0.235,0.64,0.491,1.216,0.789,1.813
			c0.917,1.941,2.091,3.733,3.563,5.312c0.213,0.213,0.341,0.491,0.576,0.704c1.429,1.408,3.029,2.645,4.864,3.627
			c0.363,0.192,0.789,0.277,1.173,0.448c0.491,0.235,0.981,0.384,1.493,0.576c2.389,0.896,4.885,1.493,7.381,1.493h256
			c11.797,0,21.333-9.557,21.333-21.333h21.333c11.797,0,21.333-9.557,21.333-21.333s-9.536-21.333-21.333-21.333h-21.333v-42.667
			H490.667z M85.333,64c-7.808,0-14.336,4.395-18.048,10.667C65.387,71.467,64,67.968,64,64c0-11.755,9.579-21.333,21.333-21.333
			c11.776,0,21.333,9.579,21.333,21.333H85.333z M213.333,344.128V320h36.224L213.333,344.128z M234.667,213.333v21.333
			c0,11.776-9.536,21.333-21.333,21.333C201.557,256,192,246.443,192,234.667v-21.333h-21.333c-11.776,0-21.333-9.557-21.333-21.333
			s9.557-21.333,21.333-21.333H192v-21.333c0-11.776,9.557-21.333,21.333-21.333c11.797,0,21.333,9.557,21.333,21.333v21.333H256
			c11.797,0,21.333,9.557,21.333,21.333s-9.536,21.333-21.333,21.333H234.667z M426.667,362.667H262.464l64-42.667h14.869
			c11.797,0,21.333-9.557,21.333-21.333V192h64V362.667z"/>
	</g>
</g>
</svg>