<?xml version="1.0" encoding="iso-8859-1"?>
<!-- Uploaded to: SVG Repo, www.svgrepo.com, Generator: SVG Repo Mixer Tools -->
<svg fill="#000000" height="800px" width="800px" version="1.1" id="Layer_1" xmlns="http://www.w3.org/2000/svg" xmlns:xlink="http://www.w3.org/1999/xlink" 
	 viewBox="0 0 512.217 512.217" xml:space="preserve">
<g transform="translate(1 1)">
	<g>
		<g>
			<path d="M511.217,357.509v-42.667c0-5.12-3.413-8.533-8.533-8.533h-8.533v-59.733h8.533c2.56,0,5.12-1.707,6.827-3.413
				c1.707-1.707,1.707-5.12,0.853-7.68l-50.347-117.476V92.975v-51.2c0-0.425-0.032-0.833-0.078-1.234
				c0-0.003-0.001-0.006-0.001-0.009c-0.512-4.419-3.762-7.291-8.454-7.291c-3.023,0-5.444,1.197-6.925,3.226l-57.075,32.614
				c-3.413,1.707-4.267,5.12-4.267,8.533s2.56,5.973,5.973,6.827l53.76,15.36v18.205l-50.347,117.475
				c-0.853,2.56-0.853,5.12,0.853,7.68c1.707,1.707,4.267,3.413,6.827,3.413h8.533v59.733h-17.067c-5.12,0-8.533,3.413-8.533,8.533
				v34.133h-25.6v-34.133c0-5.12-3.413-8.533-8.533-8.533h-8.533v-93.867h8.533c3.413,0,5.973-1.707,7.68-5.12
				s0.853-6.827-0.853-9.387l-92.16-117.295V58.842v-51.2c0-0.425-0.032-0.833-0.078-1.234c0-0.003-0.001-0.006-0.001-0.009
				c-0.512-4.419-3.762-7.291-8.454-7.291c-3.023,0-5.444,1.197-6.925,3.226l-57.075,32.614c-3.413,1.707-4.267,5.12-4.267,8.533
				s2.56,5.973,5.973,6.827l53.76,15.36v14.972l-92.16,117.295c-1.707,2.56-2.56,5.973-0.853,9.387
				c1.707,3.413,4.267,5.12,7.68,5.12h8.533v93.867h-8.533c-5.12,0-8.533,3.413-8.533,8.533v34.133h-25.6v-34.133
				c0-5.12-3.413-8.533-8.533-8.533h-8.533v-59.733h8.533c2.56,0,5.12-1.707,6.827-4.267c1.707-1.707,1.707-5.12,0.853-7.68
				L76.017,117.153V92.975v-51.2c0-0.424-0.032-0.832-0.078-1.232c-0.001-0.005-0.001-0.01-0.002-0.015
				c-0.306-2.632-1.581-4.716-3.559-5.968c-0.206-0.158-0.409-0.319-0.628-0.465c-2.56-1.707-5.973-1.707-8.533,0L3.484,68.229
				c-3.413,1.707-5.12,5.12-4.267,8.533s2.56,6.827,5.973,7.68l53.76,15.36v18.204L8.604,235.482c-0.853,2.56-0.853,5.12,0.853,7.68
				c1.707,1.707,4.267,3.413,6.827,3.413h8.533v59.733H7.751c-5.12,0-8.533,3.413-8.533,8.533v41.493
				c-0.118,0.766-0.099,1.565,0.079,2.414c0.175,1.513,0.671,2.843,1.437,3.939l24.084,64.225v75.662
				c0,5.12,3.413,8.533,8.533,8.533h443.733c5.12,0,8.533-3.413,8.533-8.533V426.06l23.482-62.619
				C510.446,361.963,511.217,359.93,511.217,357.509z M494.151,323.375v25.6h-17.067v-25.6h8.533H494.151z M413.938,73.349
				l29.013-17.067v25.6L413.938,73.349z M451.484,139.909l38.4,89.6h-4.267h-68.267h-4.267L451.484,139.909z M425.884,246.575h51.2
				v59.733h-8.533c-5.12,0-8.533,3.413-8.533,8.533v34.133h-25.6v-34.133c0-5.12-3.413-8.533-8.533-8.533V246.575z M400.284,323.375
				h17.067v25.6h-17.067V323.375z M340.551,323.375v25.6h-17.067v-25.6h8.533H340.551z M217.671,39.215l29.013-17.067v25.6
				L217.671,39.215z M255.217,98.095l76.8,97.28H179.271L255.217,98.095z M186.951,212.442h136.533v93.867h-8.533
				c-5.12,0-8.533,3.413-8.533,8.533v34.133h-25.6v-34.133c0-5.12-3.413-8.533-8.533-8.533h-34.133c-5.12,0-8.533,3.413-8.533,8.533
				v34.133h-25.6v-34.133c0-5.12-3.413-8.533-8.533-8.533h-8.533V212.442z M263.751,348.975h-17.067v-25.6h17.067V348.975z
				 M169.884,323.375h8.533h8.533v25.6h-17.067V323.375z M110.151,323.375v25.6H93.084v-25.6h8.533H110.151z M29.937,73.349
				l29.013-17.067v25.6L29.937,73.349z M67.484,139.909l38.4,89.6h-4.267H33.351h-4.267L67.484,139.909z M41.884,246.575h51.2
				v59.733h-8.533c-5.12,0-8.533,3.413-8.533,8.533v34.133h-25.6v-34.133c0-5.12-3.413-8.533-8.533-8.533V246.575z M16.284,323.375
				h17.067v25.6H16.284V323.375z M468.551,494.042h-34.133v-25.6c0-5.12-3.413-8.533-8.533-8.533s-8.533,3.413-8.533,8.533v25.6
				h-25.6v-25.6c0-5.12-3.413-8.533-8.533-8.533s-8.533,3.413-8.533,8.533v25.6h-25.6v-25.6c0-5.12-3.413-8.533-8.533-8.533
				c-5.12,0-8.533,3.413-8.533,8.533v25.6h-25.6v-25.6c0-5.12-3.413-8.533-8.533-8.533s-8.533,3.413-8.533,8.533v25.6h-25.6v-25.6
				c0-5.12-3.413-8.533-8.533-8.533c-5.12,0-8.533,3.413-8.533,8.533v25.6h-25.6v-25.6c0-5.12-3.413-8.533-8.533-8.533
				c-5.12,0-8.533,3.413-8.533,8.533v25.6h-25.6v-25.6c0-5.12-3.413-8.533-8.533-8.533s-8.533,3.413-8.533,8.533v25.6h-25.6v-25.6
				c0-5.12-3.413-8.533-8.533-8.533c-5.12,0-8.533,3.413-8.533,8.533v25.6h-25.6v-25.6c0-5.12-3.413-8.533-8.533-8.533
				c-5.12,0-8.533,3.413-8.533,8.533v25.6H41.884v-59.733h426.667V494.042z M471.111,417.242H39.324l-19.627-51.2h22.187h42.667
				h34.133h42.667h34.133h42.667h34.133h42.667h34.133h42.667h34.133h42.667h21.333L471.111,417.242z"/>
			<path d="M221.084,383.109h-68.267c-5.12,0-8.533,3.413-8.533,8.533c0,5.12,3.413,8.533,8.533,8.533h68.267
				c5.12,0,8.533-3.413,8.533-8.533C229.617,386.522,226.204,383.109,221.084,383.109z"/>
			<path d="M357.617,383.109h-68.267c-5.12,0-8.533,3.413-8.533,8.533c0,5.12,3.413,8.533,8.533,8.533h68.267
				c5.12,0,8.533-3.413,8.533-8.533C366.151,386.522,362.737,383.109,357.617,383.109z"/>
			<path d="M255.217,383.109c-5.12,0-8.533,3.413-8.533,8.533c0,5.12,3.413,8.533,8.533,8.533c5.12,0,8.533-3.413,8.533-8.533
				C263.751,386.522,260.337,383.109,255.217,383.109z"/>
			<path d="M442.951,383.109h-17.067c-5.12,0-8.533,3.413-8.533,8.533c0,5.12,3.413,8.533,8.533,8.533h17.067
				c5.12,0,8.533-3.413,8.533-8.533C451.484,386.522,448.071,383.109,442.951,383.109z"/>
			<path d="M391.751,383.109c-5.12,0-8.533,3.413-8.533,8.533c0,5.12,3.413,8.533,8.533,8.533c5.12,0,8.533-3.413,8.533-8.533
				C400.284,386.522,396.871,383.109,391.751,383.109z"/>
			<path d="M84.551,383.109H67.484c-5.12,0-8.533,3.413-8.533,8.533c0,5.12,3.413,8.533,8.533,8.533h17.067
				c5.12,0,8.533-3.413,8.533-8.533C93.084,386.522,89.671,383.109,84.551,383.109z"/>
			<path d="M118.684,383.109c-5.12,0-8.533,3.413-8.533,8.533c0,5.12,3.413,8.533,8.533,8.533s8.533-3.413,8.533-8.533
				C127.217,386.522,123.804,383.109,118.684,383.109z"/>
			<path d="M255.217,280.709c5.12,0,8.533-3.413,8.533-8.533v-25.6c0-5.12-3.413-8.533-8.533-8.533c-5.12,0-8.533,3.413-8.533,8.533
				v25.6C246.684,277.295,250.097,280.709,255.217,280.709z"/>
		</g>
	</g>
</g>
</svg>