<?xml version="1.0" encoding="iso-8859-1"?>
<!-- Uploaded to: SVG Repo, www.svgrepo.com, Generator: SVG Repo Mixer Tools -->
<svg fill="#000000" height="800px" width="800px" version="1.1" id="Layer_1" xmlns="http://www.w3.org/2000/svg" xmlns:xlink="http://www.w3.org/1999/xlink" 
	 viewBox="0 0 511.72 511.72" xml:space="preserve">
<g transform="translate(1 1)">
	<g>
		<g>
			<path d="M509.234,195.575c-0.883-2.648-1.766-4.414-4.414-6.179c-1.766-1.766-4.414-1.766-7.062-0.883
				c-39.724,14.124-71.503,8.828-97.103-16.772l-6.621-6.621l38.4-38.4c2.648-2.648,3.531-6.179,1.766-9.71
				c-0.883-3.531-4.414-5.297-7.945-5.297h-28.248V83.465c0-3.531-1.766-6.179-5.297-7.945c-3.531-1.766-7.062-0.883-9.71,1.766
				l-38.4,38.4l-6.621-6.621c-25.6-25.6-30.897-57.379-16.772-97.103c0.883-1.766,0.883-4.414-0.883-7.062
				c-0.883-2.648-3.531-4.414-6.179-4.414c-3.531-0.883-80.331-12.359-138.593,45.903c-58.262,58.262-46.786,135.062-45.903,138.593
				c0.883,2.648,1.766,4.414,4.414,6.179c1.766,1.766,4.414,1.766,7.062,0.883c38.841-14.124,71.503-8.828,97.103,16.772
				l6.621,6.621l-43.697,43.697l-37.076,37.076l-75.034,75.034L51.966,408.32L1.648,458.637c-3.531,3.531-3.531,8.828,0,12.359
				l37.076,37.076c1.766,1.766,3.531,2.648,6.179,2.648s5.297-0.883,6.179-2.648l243.2-243.2l6.621,6.621
				c25.6,25.6,30.897,57.379,16.772,97.103c-0.883,1.766,0,4.414,0.883,7.062c0.883,2.648,3.531,4.414,6.179,4.414
				c1.766,0,8.828,0.883,20.303,0.883c27.365,0,77.683-7.062,118.29-46.786C521.593,275.906,510.117,199.106,509.234,195.575z
				 M379.469,104.651v16.772c0,5.297,3.531,8.828,8.828,8.828h15.89l-22.069,22.069L357.4,127.603L379.469,104.651z M206.89,326.665
				l-24.276-24.276l24.717-24.717l24.276,24.276L206.89,326.665z M194.531,339.024l-62.676,62.676l-24.717-24.717l62.676-62.676
				L194.531,339.024z M94.779,438.775l-24.276-24.276l24.717-24.717l24.276,24.276L94.779,438.775z M44.903,488.651l-24.717-24.717
				l37.517-37.517l24.717,24.717L44.903,488.651z M243.966,289.589l-24.717-24.717l37.517-37.517l24.717,24.717L243.966,289.589z
				 M450.972,320.044c-39.724,40.607-90.924,43.255-112.993,42.372c12.359-40.607,3.531-75.917-24.717-103.283l-10.305-10.305
				c-0.44-1.064-1.119-2.002-2.053-2.936l-37.076-37.076c-0.853-0.853-1.809-1.494-2.818-1.935l-10.423-10.423
				c-27.365-28.248-63.559-36.193-104.165-24.717c-0.883-22.069,2.648-73.269,42.372-112.993s90.924-43.255,112.993-42.372
				c-11.476,41.49-3.531,76.8,24.717,103.283l9.909,9.909c0.348,1.633,1.161,2.926,2.45,4.216l37.076,37.076
				c1.289,1.289,2.583,2.102,4.216,2.45l9.026,9.026c27.365,28.248,62.676,37.076,104.166,24.717
				C494.228,229.12,490.697,280.32,450.972,320.044z"/>
			<path d="M452.738,237.948c-4.414-0.883-9.71,1.766-10.593,6.179c-4.414,13.241-8.828,31.779-22.952,45.903
				c-13.241,14.124-32.662,19.421-45.903,22.952c-4.414,0.883-7.062,6.179-6.179,10.593c1.766,3.531,5.297,6.179,8.828,6.179
				c0.883,0,1.766,0,1.766,0c15.007-4.414,37.076-10.593,53.848-27.365s22.952-38.841,27.365-53.848
				C459.8,244.127,457.152,238.831,452.738,237.948z"/>
			<path d="M272.655,56.099c-1.766-4.414-6.179-7.062-11.476-5.297c-15.007,4.414-37.076,10.593-53.848,27.366
				c-16.772,16.772-22.952,38.841-27.366,53.848c-0.883,4.414,1.766,9.71,6.179,10.593c0.883,0,1.766,0,2.648,0
				c3.531,0,7.062-2.648,8.828-7.062c4.414-13.241,8.828-31.779,22.952-45.903c13.241-14.124,32.662-19.421,45.903-22.952
				C270.89,65.81,274.421,60.513,272.655,56.099z"/>
			<path d="M375.938,243.244c3.531-3.531,3.531-8.828,0-12.359l-97.103-97.103c-3.531-3.531-8.828-3.531-12.359,0
				c-3.531,3.531-3.531,8.828,0,12.359l97.103,97.103c1.766,1.766,3.531,2.648,6.179,2.648S374.172,245.01,375.938,243.244z"/>
		</g>
	</g>
</g>
</svg>