<?xml version="1.0" encoding="iso-8859-1"?>
<!-- Uploaded to: SVG Repo, www.svgrepo.com, Generator: SVG Repo Mixer Tools -->
<svg fill="#000000" height="800px" width="800px" version="1.1" id="Layer_1" xmlns="http://www.w3.org/2000/svg" xmlns:xlink="http://www.w3.org/1999/xlink" 
	 viewBox="0 0 512.427 512.427" xml:space="preserve">
<g transform="translate(1 1)">
	<g>
		<path d="M426.307,222.147c0-1.382-0.294-2.616-0.853-3.718v-25.295v-0.853c0-21.037-4.158-42.9-12.455-63.142
			c-0.095-0.29-0.204-0.577-0.344-0.856c0-0.001,0-0.001-0.001-0.002c-0.001-0.003-0.003-0.006-0.004-0.009
			c-5.973-14.503-14.505-28.154-23.89-40.098c-5.973-7.68-12.8-14.507-22.187-22.187l-0.853-0.853l-12.8-7.68
			c-0.893-0.595-1.891-0.969-2.919-1.149L259.053,0.28c-2.56-1.707-5.973-1.707-8.533,0L143.853,65.987L143,66.84
			c-7.04,5.76-12.64,11.52-17.52,16.92c-1.627,1.8-3.173,3.56-4.667,5.267c-10.24,11.947-17.92,25.6-23.893,40.107
			c-7.166,17.198-11.31,35-12.459,53.401c-0.004,0.062-0.007,0.124-0.011,0.186c-0.063,1.029-0.12,2.058-0.164,3.091
			c-0.021,0.473-0.035,0.948-0.052,1.421c-0.025,0.712-0.053,1.423-0.068,2.137c-0.029,1.253-0.045,2.508-0.045,3.763v28.16v204.8
			v76.8c0,5.12,3.413,8.533,8.533,8.533h34.133h256h34.133c5.12,0,8.533-3.413,8.533-8.533v-71.954
			c0.566-1.217,0.853-2.603,0.853-3.993V222.147z M228.461,398.211l17.792,29.802v66.347H146.048L228.461,398.211z M266.953,25.601
			l69.346,43.543l-47.378,60.3v-2.017v-8.533h-8.533H263.32V23.391L266.953,25.601z M271.853,289.56v91.307l-17.067,28.16
			l-17.067-28.16v-86.731c0.563-1.069,0.853-2.253,0.853-3.722v-43.52h33.28V289.56z M101.222,189.942
			c0-0.014,0.001-0.029,0.001-0.043c0.232-10.508,1.596-20.913,4.01-31.017c0.046-0.193,0.091-0.386,0.138-0.578
			c0.145-0.596,0.299-1.19,0.451-1.785c0.13-0.505,0.258-1.01,0.393-1.514c0.059-0.222,0.123-0.442,0.183-0.664
			c0.688-2.51,1.445-5.017,2.269-7.523l68.376,55.408l18.01,14.801v21.333v8.533h8.533h17.067v38.4l-17.565,17.564l-101.902-86.225
			v-23.5C101.187,192.069,101.198,191.005,101.222,189.942z M101.187,240.067l89.6,75.947l-89.6,89.6V240.067z M220.653,229.827
			h-7.68v-16.213c0-1.124-0.34-2.243-0.853-3.294v-6.092h8.533h59.733h8.533h8.533v8.533v17.067h-8.533h-8.533H220.653z
			 M228.333,118.04c-1.149,0-2.296,0.317-3.362,0.853h-4.318v4.318c-0.536,1.066-0.853,2.213-0.853,3.362v0.317l-46.972-58.414
			L245.4,23.958v94.082H228.333z M237.72,152.173V135.96h17.067h17.067v51.2H237.72V152.173z M357.187,80.493
			c7.68,7.68,13.653,13.653,18.773,19.627c6.995,9.035,12.992,18.767,17.86,29.026l-79.3,65.509v-7.495h-8.533H288.92l0.818-30.264
			l62.88-79.182L357.187,80.493z M153.24,80.493l4.692-2.878l28.807,36.203l33.914,43.241v30.101h-17.067h-8.533v7.68l-8.021-6.485
			l-71.339-58.368l-0.199-0.166c5.08-10.657,11.437-20.66,18.972-29.701C138.733,93.293,144.707,87.32,153.24,80.493z
			 M263.32,428.227l18.026-29.743l82.18,95.876H263.32V428.227z M288.92,246.893h17.067h8.533v-8.533v-21.333l49.645-41.289
			l36.511-29.587c5.016,14.973,7.711,30.785,7.711,46.982v23.893l-101.547,87.04l-17.92-17.92V246.893z M408.387,240.067v165.547
			l-89.6-89.6L408.387,240.067z M101.187,494.36v-64.853l106.599-106.599c0.815-0.276,1.66-0.598,2.627-0.921l10.24-10.24v68.267
			L122.52,494.36H101.187z M408.387,494.36h-21.333L288.92,380.013V310.04l11.093,11.093l108.373,108.373V494.36z"/>
	</g>
</g>
</svg>