<?xml version="1.0" encoding="iso-8859-1"?>
<!-- Uploaded to: SVG Repo, www.svgrepo.com, Generator: SVG Repo Mixer Tools -->
<svg fill="#000000" height="800px" width="800px" version="1.1" id="Layer_1" xmlns="http://www.w3.org/2000/svg" xmlns:xlink="http://www.w3.org/1999/xlink" 
	 viewBox="0 0 512 512" xml:space="preserve">
<g>
	<g>
		<path d="M512,309.3c0-17.4-8.4-32.7-21.3-42.4V85.3V42.7c11.8,0,21.3-9.6,21.3-21.3C512,9.7,502.5,0,490.7,0H448
			c-11.8,0-21.3,9.6-21.3,21.3s9.5,21.3,21.3,21.3v38.1L370.1,256h-34.7l-58-174.1V42.7c11.8,0,21.3-9.6,21.3-21.3
			c0-11.7-9.6-21.4-21.4-21.4h-42.7c-11.8,0-21.3,9.6-21.3,21.3s9.5,21.3,21.3,21.3v39.2l-58,174.1h-34.7L64,80.8V42.7
			c11.8,0,21.3-9.6,21.3-21.3C85.3,9.7,75.8,0,64,0H21.3C9.5,0,0,9.5,0,21.3s9.5,21.3,21.3,21.3v42.7V267C8.5,276.7,0,292,0,309.3
			s8.4,32.7,21.3,42.4v64.5C8.5,426,0,441.3,0,458.7C0,488.1,23.9,512,53.3,512h405.3c29.4,0,53.3-23.9,53.3-53.3
			c0-17.4-8.4-32.7-21.3-42.4v-64.5C503.6,342,512,326.7,512,309.3z M256,152.8L290.4,256h-68.8L256,152.8z M64,185.8L95.2,256H64
			V185.8z M448,405.3H64v-42.6h384V405.3z M448,256h-31.2l31.2-70.1V256z"/>
	</g>
</g>
</svg>