<?xml version="1.0" encoding="iso-8859-1"?>
<!-- Uploaded to: SVG Repo, www.svgrepo.com, Generator: SVG Repo Mixer Tools -->
<svg height="800px" width="800px" version="1.1" id="Layer_1" xmlns="http://www.w3.org/2000/svg" xmlns:xlink="http://www.w3.org/1999/xlink" 
	 viewBox="0 0 512 512" xml:space="preserve">
<g transform="translate(1 1)">
	<polygon style="fill:#FFE100;" points="50.2,494.108 374.467,494.108 374.467,144.241 50.2,144.241 	"/>
	<polygon style="fill:#FFA800;" points="357.4,502.641 374.467,502.641 374.467,152.775 357.4,152.775 	"/>
	<polygon style="fill:#FFFFFF;" points="50.2,494.108 67.267,494.108 67.267,144.241 50.2,144.241 	"/>
	<g>
		<path style="fill:#00DA6C;" d="M160.28,349.041c-11.093,16.213-12.8,36.693-5.973,54.613l12.8,34.133
			c0.853,3.413,44.373,5.12,44.373,5.12s43.52-2.56,44.373-5.12l12.8-34.133c6.827-17.92,4.267-38.4-5.973-54.613"/>
		<path style="fill:#00DA6C;" d="M271.213,398.535c9.387-6.827,19.627-15.36,28.16-23.893c14.507-14.507,20.48-35.84,14.507-56.32
			l-8.533-29.013c-23.04-74.24-93.867-68.267-93.867-68.267s-70.827-5.973-93.867,68.267l-8.533,29.013
			c-5.973,19.627,0,41.813,14.507,56.32c8.533,8.533,17.92,17.067,28.16,23.893"/>
		<path style="fill:#00DA6C;" d="M117.613,289.308c9.387-31.573,28.16-48.64,45.227-57.173l-2.56-2.56
			c0,0-24.747-34.133-76.8-34.133c0,0-6.827,58.88,32.427,100.693L117.613,289.308z"/>
	</g>
	<path style="fill:#FFE100;" d="M237.08,374.641c0,9.387-11.093,17.067-25.6,17.067c-14.507,0-25.6-7.68-25.6-17.067
		s11.093-17.067,25.6-17.067C225.987,357.575,237.08,365.255,237.08,374.641"/>
	<path style="fill:#00DA6C;" d="M305.347,289.308c-9.387-31.573-28.16-48.64-45.227-57.173l2.56-2.56c0,0,24.747-34.133,76.8-34.133
		c0,0,6.827,58.88-32.427,100.693L305.347,289.308z"/>
	<path style="fill:#FFE100;" d="M365.08,93.041H50.2v51.2h314.88c24.747,0,49.493,10.24,67.413,28.16l45.227,46.08
		c4.267,4.267,12.8,1.707,12.8-5.12c17.067-62.293,17.067-128,0-190.293c0-6.827-7.68-10.24-12.8-5.12l-45.227,46.08
		C414.573,82.801,390.68,93.041,365.08,93.041"/>
	<path style="fill:#FFA800;" d="M498.2,23.921L498.2,23.921c0-6.827-7.68-10.24-12.8-5.12l-11.947,11.947
		c14.507,58.027,14.507,118.613,0,176.64l11.947,11.947c4.267,5.12,12.8,1.707,12.8-5.12
		C515.267,151.068,515.267,86.215,498.2,23.921"/>
	<polygon style="fill:#FFE100;" points="7.533,152.775 50.2,144.241 50.2,93.041 7.533,84.508 	"/>
	<polygon style="fill:#FFFFFF;" points="24.6,87.921 7.533,84.508 7.533,152.775 24.6,149.361 	"/>
	<path d="M212.333,451.441c-50.347-2.56-51.2-5.973-52.907-11.093l-12.8-34.133c-7.68-20.48-5.12-43.52,6.827-62.293
		c2.56-4.267,7.68-5.12,11.947-2.56s5.12,7.68,2.56,11.947c-9.387,13.653-11.093,31.573-5.12,46.933l11.093,30.72
		c6.827,1.707,23.893,2.56,38.4,3.413c13.653-0.853,30.72-2.56,37.547-3.413l11.093-30.72c5.973-15.36,3.413-33.28-5.12-46.933
		c-2.56-4.267-1.707-9.387,2.56-11.947c4.267-2.56,9.387-1.707,11.947,2.56c11.947,17.92,14.507,41.813,6.827,62.293l-12.8,34.133
		C262.68,445.468,260.973,448.881,212.333,451.441z M249.027,434.375C249.027,434.375,248.173,434.375,249.027,434.375
		L249.027,434.375z M174.787,434.375L174.787,434.375L174.787,434.375z"/>
	<path d="M271.213,407.068c-2.56,0-5.12-1.707-6.827-3.413c-2.56-4.267-1.707-9.387,2.56-11.947c7.68-5.12,17.067-12.8,26.453-23.04
		c12.8-11.947,17.067-30.72,11.947-47.787l-8.533-29.013c-20.48-66.56-81.92-62.293-85.333-62.293h-0.853h-0.853
		c-2.56,0-64.853-4.267-85.333,62.293l-8.533,29.013c-5.12,17.067,0,35.84,11.947,47.787c9.387,9.387,18.773,17.067,26.453,23.04
		c4.267,2.56,5.12,7.68,2.56,11.947c-2.56,4.267-7.68,5.12-11.947,2.56c-8.533-5.973-18.773-14.507-29.013-24.747
		c-17.067-17.067-23.04-41.813-16.213-64.853l8.533-29.013c23.04-75.947,93.867-75.093,102.4-74.24c7.68,0,78.507-1.707,102.4,74.24
		l8.533,29.013c6.827,23.04,0,47.787-16.213,64.853c-10.24,10.24-20.48,18.773-29.013,24.747
		C274.627,406.215,272.92,407.068,271.213,407.068z"/>
	<path d="M237.08,314.908c-5.12,0-8.533-3.413-8.533-8.533c0-14.507,11.093-25.6,25.6-25.6c5.12,0,8.533,3.413,8.533,8.533
		s-3.413,8.533-8.533,8.533s-8.533,3.413-8.533,8.533S242.2,314.908,237.08,314.908z"/>
	<path d="M211.48,400.241c-18.773,0-34.133-11.093-34.133-25.6s15.36-25.6,34.133-25.6s34.133,11.093,34.133,25.6
		S231.107,400.241,211.48,400.241z M211.48,366.108c-10.24,0-17.067,5.12-17.067,8.533c0,3.413,6.827,8.533,17.067,8.533
		s17.067-5.12,17.067-8.533C228.547,371.228,222.573,366.108,211.48,366.108z"/>
	<path d="M211.48,451.441c-5.12,0-8.533-3.413-8.533-8.533v-51.2c0-5.12,3.413-8.533,8.533-8.533c5.12,0,8.533,3.413,8.533,8.533
		v51.2C220.013,448.028,216.6,451.441,211.48,451.441z"/>
	<path d="M185.88,314.908c-5.12,0-8.533-3.413-8.533-8.533s-3.413-8.533-8.533-8.533s-8.533-3.413-8.533-8.533
		c0-5.12,3.413-8.533,8.533-8.533c14.507,0,25.6,11.093,25.6,25.6C194.413,311.495,191,314.908,185.88,314.908z"/>
	<path d="M115.907,304.668c-2.56,0-4.267-0.853-5.973-2.56C68.12,257.735,74.947,197.148,75.8,194.588c0-4.267,3.413-7.68,7.68-7.68
		c50.347,0,77.653,29.867,82.773,36.693l1.707,1.707c2.56,1.707,3.413,4.267,3.413,7.68c0,2.56-1.707,5.12-4.267,6.827
		c-19.627,10.24-34.133,28.16-40.96,52.053l-1.707,5.973c-0.853,2.56-3.413,5.12-5.973,5.973
		C117.613,304.668,116.76,304.668,115.907,304.668z M92.013,203.975c0,14.507,1.707,46.933,20.48,74.24
		c7.68-20.48,20.48-36.693,36.693-47.787C142.36,221.895,122.733,206.535,92.013,203.975z"/>
	<path d="M307.907,304.668c-0.853,0-1.707,0-1.707,0c-2.56-0.853-5.12-3.413-5.973-5.973l-2.56-6.827
		c-7.68-24.747-21.333-41.813-40.96-52.053c-2.56-1.707-4.267-4.267-4.267-6.827s0.853-5.973,3.413-7.68l1.707-1.707
		c5.12-5.973,32.427-36.693,82.773-36.693c4.267,0,7.68,3.413,8.533,7.68c0,2.56,6.827,63.147-34.133,107.52
		C312.173,303.815,309.613,304.668,307.907,304.668z M273.773,230.428c17.067,11.093,29.013,27.307,36.693,47.787
		c18.773-27.307,21.333-59.733,20.48-74.24C301.08,206.535,281.453,221.895,273.773,230.428z"/>
	<path d="M482.84,229.575c-4.267,0-8.533-1.707-11.093-5.12l-45.227-46.08c-16.213-17.067-38.4-26.453-60.587-25.6H50.2
		c-5.12,0-8.533-3.413-8.533-8.533v-51.2c0-5.12,3.413-8.533,8.533-8.533h314.88c22.187,0,44.373-9.387,61.44-26.453l45.227-46.08
		c4.267-4.267,11.093-5.973,17.067-3.413c5.12,2.56,9.387,7.68,9.387,13.653c17.067,63.147,17.067,129.707,0,192.853
		c-0.853,5.973-4.267,11.093-10.24,13.653C486.253,229.575,484.547,229.575,482.84,229.575z M365.933,135.708
		c26.453,0,52.907,11.093,72.533,30.72l43.52,44.373c16.213-60.587,16.213-124.587,0-185.173l-43.52,44.373
		c-19.627,19.627-46.08,30.72-73.387,30.72l0,0H58.733v34.133h307.2C365.08,135.708,365.933,135.708,365.933,135.708z"/>
	<path d="M7.533,161.308c-1.707,0-4.267-0.853-5.12-1.707C-0.147,157.895-1,155.335-1,152.775V84.508c0-2.56,0.853-5.12,3.413-6.827
		c1.707-1.707,4.267-1.707,6.827-1.707l42.667,8.533c4.267,0.853,6.827,4.267,6.827,8.533v51.2c0,4.267-2.56,7.68-6.827,8.533
		L9.24,161.308C8.387,161.308,8.387,161.308,7.533,161.308z M16.067,94.748v47.787l25.6-5.12V99.868L16.067,94.748z"/>
	<path d="M468.333,178.375c-3.413,0-5.973-1.707-7.68-5.12c-3.413-5.973-11.093-18.773-16.213-23.893
		c-3.413-3.413-2.56-8.533,0.853-11.947c3.413-3.413,8.533-2.56,11.947,0.853c5.12,5.973,14.507,19.627,17.92,27.307
		c1.707,4.267,0,9.387-3.413,11.093C470.893,178.375,470.04,178.375,468.333,178.375z"/>
	<path d="M374.467,502.641H50.2c-5.12,0-8.533-3.413-8.533-8.533V144.241c0-5.12,3.413-8.533,8.533-8.533h324.267
		c5.12,0,8.533,3.413,8.533,8.533v349.867C383,499.228,379.587,502.641,374.467,502.641z M58.733,485.575h307.2v-332.8h-307.2
		V485.575z"/>
</g>
</svg>