<?xml version="1.0" encoding="iso-8859-1"?>
<!-- Uploaded to: SVG Repo, www.svgrepo.com, Generator: SVG Repo Mixer Tools -->
<svg fill="#000000" height="800px" width="800px" version="1.1" id="Layer_1" xmlns="http://www.w3.org/2000/svg" xmlns:xlink="http://www.w3.org/1999/xlink" 
	 viewBox="0 0 513.293 513.293" xml:space="preserve">
<g transform="translate(1 1)">
	<g>
		<path d="M506.1,84.303c-2.56-3.413-7.68-4.267-11.093-1.707c-42.667,29.013-59.733,29.013-80.213,17.067l-7.016-4.127l3.603-6.113
			c1.707-4.267,0.853-9.387-3.413-11.947l-12.104-7.017l27.464-7.49c4.267-0.853,6.827-5.973,5.973-10.24L416.5,5.797
			c-0.853-1.707-2.56-4.267-4.267-5.12c-2.56-0.853-4.267-1.707-6.827-0.853l-46.933,12.8c-4.267,0.853-6.827,5.973-5.973,10.24
			l7.275,26.676l-10.689-6.196c-2.56-0.853-4.267-1.707-6.827-0.853c-2.56,0-4.267,1.707-5.12,4.267l-3.789,6.544l-17.544-9.958
			c-11.093-5.973-24.747-2.56-31.573,8.533l-10.24,17.067c-4.267,6.827-4.267,16.213,0,23.04l18.036,32.691l-1.823,3.149
			c-2.56,3.413-0.853,8.533,3.413,11.947l6.812,3.949l-44.739,76.937l-45.042-77.31l6.168-3.576c4.267-2.56,5.973-7.68,3.413-11.947
			l-1.741-3.006l17.954-31.98c4.267-6.827,4.267-16.213,0-23.04l-10.24-17.067c-5.973-11.093-20.48-15.36-31.573-8.533
			l-17.173,9.747l-4.161-7.187c-0.853-2.56-2.56-3.413-5.12-4.267s-5.12,0-6.827,0.853l-10.689,6.196l7.275-26.676
			c1.707-4.267-1.707-9.387-5.973-10.24l-46.933-12.8c-2.56,0-3.413,0-5.973,0.853s-3.413,2.56-4.267,5.12l-12.8,46.933
			c-1.707,4.267,0.853,9.387,5.973,10.24l26.725,7.424l-12.218,7.083c-4.267,2.56-5.973,7.68-3.413,11.947l3.772,6.515L96.5,99.663
			c-21.333,11.947-38.4,12.8-80.213-17.067c-3.413-2.56-8.533-1.707-11.093,1.707c-2.56,2.56-20.48,27.307,19.627,96.427
			c34.133,60.587,62.293,65.707,70.827,65.707c1.707,0,2.56,0,3.413,0c4.267-0.853,6.827-5.12,6.827-9.387
			c-5.12-50.347,7.68-58.027,29.013-69.973l6.801-4.001l4.292,7.414c0.853,2.56,2.56,3.413,5.12,4.267c0.853,0,1.707,0,2.56,0
			c1.707,0,3.413-0.853,4.267-0.853l7.728-4.48l59.716,103.355l-31.16,53.585l-32.871,8.819c-1.707,0.853-4.267,2.56-5.12,4.267
			c-0.853,2.56-1.707,4.267-0.853,6.827l8.52,31.755l-57.16,98.805c-5.12,8.533-2.56,18.773,5.973,23.893l14.507,8.533
			c2.56,1.707,5.12,2.56,8.533,2.56c1.707,0,3.413,0,5.973-1.707c4.267-0.853,7.68-3.413,10.24-7.68l57.909-100.1l30.838-8.274
			c4.267-0.853,6.827-5.973,5.973-10.24l-8.244-30.728l16.752-28.718l16.958,28.993l-8.399,31.307
			c-0.853,4.267,1.707,9.387,5.973,10.24l31.848,8.545l57.752,99.829c3.413,5.12,9.387,8.533,15.36,8.533
			c2.56,0,5.973-0.853,9.387-2.56l14.507-8.533c3.413-1.707,6.827-5.973,7.68-10.24s0.853-8.533-1.707-12.8l-57.899-100.083
			l8.406-31.33c0.853-4.267-1.707-9.387-5.973-10.24l-33.853-9.083l-30.559-53.114l60.704-104.065l7.121,4.128
			c1.707,0.853,2.56,0.853,4.267,0.853c0,0,0.853-0.853,1.707,0c1.707-0.853,4.267-2.56,5.12-4.267l4.79-8.125l8.01,4.712
			c20.48,11.947,33.28,18.773,29.013,69.973c-0.853,4.267,2.56,8.533,6.827,9.387c0,0,0.853,0,2.56,0
			c8.533,0,35.84-5.12,71.68-65.707C526.58,111.61,508.66,86.863,506.1,84.303z M401.993,19.45l7.68,29.867l-29.867,7.68
			l-7.68-29.867L401.993,19.45z M288.5,78.33l10.24-17.067c0.853-2.56,3.413-3.413,5.12-3.413s2.56,0,3.413,0.853l17.067,9.387
			l-23.04,39.253l-12.8-23.04C287.647,82.597,287.647,80.037,288.5,78.33z M203.166,59.557c0.853-0.853,2.56-0.853,4.267-0.853
			c0.853,0,2.56,0.853,3.413,2.56l10.24,17.067c0.853,1.707,0.853,4.267,0,5.973l-12.8,22.187L186.1,68.09L203.166,59.557z
			 M108.446,19.45l29.867,7.68l-7.68,29.867l-29.867-7.68L108.446,19.45z M125.513,152.57c-24.747,14.507-40.107,27.307-38.4,75.093
			c-9.387-4.267-26.453-17.067-47.787-54.613c-21.333-37.547-23.893-58.88-23.04-69.12c38.4,24.747,61.44,27.307,88.747,11.093
			l6.695-3.719l21.432,37.018L125.513,152.57z M157.087,154.277l-3.538-6.133c-0.186-0.524-0.425-1.042-0.729-1.547l-29.867-52.053
			c-0.429-1.286-1.074-2.141-1.933-2.782l-2.334-4.045l44.373-25.6l38.4,66.56L157.087,154.277z M180.47,160.842l15.198-8.811
			l49.833,86.151l-10.083,17.339L180.47,160.842z M135.753,494.757l-14.507-8.533l55.414-95.482l7.31,4.177l7.25,4.265
			L135.753,494.757z M206.955,386.476l-26.544-15.168l-5.404-21.618l23.04-5.973l23.04,13.653l5.973,23.893L206.955,386.476z
			 M373.833,494.757l-54.939-95.509l14.612-8.35l54.833,95.326L373.833,494.757z M328.607,372.73l-23.04,13.653l-23.04-5.973
			l6.827-23.04l14.264-8.778l8.25-4.791l22.712,5.888L328.607,372.73z M298.74,331.77l-14.507,8.533l-18.773-33.28l2.346-4.265
			l7.252-12.432L298.74,331.77z M268.57,267.036c-0.525,0.46-1.002,0.985-1.403,1.587l-19.627,34.133
			c-0.507,0.761-0.845,1.601-1.051,2.468l-20.071,34.713l-14.613-8.35l30.622-52.962c0.591-0.451,1.166-0.936,1.698-1.468
			l19.627-34.133c0.685-1.027,1.082-2.193,1.217-3.384l50.44-87.237l14.56,8.441L268.57,267.036z M353.353,154.277l-5.251-3.03
			c-0.509-0.524-1.04-0.97-1.575-1.237l-29.867-17.067c-0.247-0.099-0.498-0.187-0.75-0.269l-6.93-3.998l38.4-66.56l44.373,25.6
			L353.353,154.277z M470.26,173.05c-21.333,37.547-38.4,50.347-47.787,54.613c1.707-47.787-13.653-60.587-38.4-75.093l-7.47-4.15
			l21.871-37.103l6.079,4.559c27.307,15.36,51.2,12.8,88.747-11.947C494.153,114.17,491.593,135.503,470.26,173.05z"/>
	</g>
</g>
</svg>