<?xml version="1.0" encoding="iso-8859-1"?>
<!-- Uploaded to: SVG Repo, www.svgrepo.com, Generator: SVG Repo Mixer Tools -->
<svg height="800px" width="800px" version="1.1" id="Layer_1" xmlns="http://www.w3.org/2000/svg" xmlns:xlink="http://www.w3.org/1999/xlink" 
	 viewBox="0 0 512.053 512.053" xml:space="preserve">
<g transform="translate(0 1)">
	<g>
		<path style="fill:#FFE100;" d="M264.56,92.893c-5.12,0-8.533-3.413-8.533-8.533V24.627c0-5.12,3.413-8.533,8.533-8.533
			c5.12,0,8.533,3.413,8.533,8.533V84.36C273.093,89.48,269.68,92.893,264.56,92.893z"/>
		<path style="fill:#FFE100;" d="M290.16,58.76h-51.2c-5.12,0-8.533-3.413-8.533-8.533s3.413-8.533,8.533-8.533h51.2
			c5.12,0,8.533,3.413,8.533,8.533S295.28,58.76,290.16,58.76z"/>
		<path style="fill:#FFE100;" d="M256.027,75.827l-39.253,64c25.6,6.827,39.253,21.333,39.253,21.333l0,0
			c0,0,13.653-14.507,39.253-21.333L256.027,75.827z"/>
		<polygon style="fill:#FFE100;" points="34.16,459.827 477.893,459.827 477.893,357.427 34.16,357.427 		"/>
	</g>
	<polygon style="fill:#FFA800;" points="460.827,459.827 486.427,459.827 486.427,357.427 460.827,357.427 	"/>
	<polygon style="fill:#FFFFFF;" points="25.627,451.293 51.227,451.293 51.227,348.893 25.627,348.893 	"/>
	<path style="fill:#00DA6C;" d="M486.427,357.427h-460.8c-9.387,0-17.067-7.68-17.067-17.067s7.68-17.067,17.067-17.067h460.8
		c9.387,0,17.067,7.68,17.067,17.067S495.813,357.427,486.427,357.427"/>
	<path style="fill:#00AD55;" d="M486.427,323.293h-25.6c9.387,0,17.067,7.68,17.067,17.067s-7.68,17.067-17.067,17.067h25.6
		c9.387,0,17.067-7.68,17.067-17.067S495.813,323.293,486.427,323.293"/>
	<path style="fill:#00DA6C;" d="M486.427,493.96h-460.8c-9.387,0-17.067-7.68-17.067-17.067c0-9.387,7.68-17.067,17.067-17.067
		h460.8c9.387,0,17.067,7.68,17.067,17.067C503.493,486.28,495.813,493.96,486.427,493.96"/>
	<path style="fill:#00AD55;" d="M486.427,459.827h-25.6c9.387,0,17.067,7.68,17.067,17.067c0,9.387-7.68,17.067-17.067,17.067h25.6
		c9.387,0,17.067-7.68,17.067-17.067C503.493,467.507,495.813,459.827,486.427,459.827"/>
	<g>
		<path style="fill:#FFFFFF;" d="M25.627,323.293h25.6c-9.387,0-17.067,7.68-17.067,17.067s7.68,17.067,17.067,17.067h-25.6
			c-9.387,0-17.067-7.68-17.067-17.067S16.24,323.293,25.627,323.293"/>
		<path style="fill:#FFFFFF;" d="M25.627,459.827h25.6c-9.387,0-17.067,7.68-17.067,17.067c0,9.387,7.68,17.067,17.067,17.067h-25.6
			c-9.387,0-17.067-7.68-17.067-17.067C8.56,467.507,16.24,459.827,25.627,459.827"/>
	</g>
	<g>
		<path style="fill:#FFE100;" d="M256.027,161.16c0,0-23.893-25.6-68.267-25.6c0,0-1.707,0-4.267,0
			c-34.133,0.853-67.413,19.627-81.067,51.2c0,0-14.507,36.693,0,59.733l51.2,76.8h102.4V161.16z"/>
		<path style="fill:#FFE100;" d="M102.427,246.493c-14.507-23.04,0-59.733,0-59.733c1.707-5.12,4.267-9.387,7.68-12.8
			c-5.12-1.707-12.8-3.413-24.747-4.267c-11.093-0.853-23.893,2.56-33.28,7.68c-17.92,10.24-43.52,32.427-43.52,69.12
			c0,0-4.267,76.8,68.267,76.8h68.267v-12.8L102.427,246.493z"/>
		<path style="fill:#FFE100;" d="M256.027,161.16c0,0,23.893-25.6,68.267-25.6c0,0,1.707,0,4.267,0
			c34.133,0.853,67.413,19.627,81.067,51.2c0,0,14.507,36.693,0,59.733l-51.2,76.8h-102.4V161.16z"/>
		<path style="fill:#FFE100;" d="M409.627,246.493c14.507-23.04,0-59.733,0-59.733c-1.707-5.12-4.267-9.387-7.68-12.8
			c5.12-1.707,12.8-3.413,24.747-4.267c11.093-0.853,23.893,2.56,33.28,7.68c17.92,10.24,43.52,32.427,43.52,69.12
			c0,0,4.267,76.8-68.267,76.8H366.96v-12.8L409.627,246.493z"/>
	</g>
	<path style="fill:#FFA800;" d="M503.493,246.493c0-36.693-25.6-58.88-43.52-69.12c-9.387-5.973-22.187-8.533-33.28-7.68
		c-4.267,0-7.68,0.853-11.093,0.853c6.827,0.853,13.653,3.413,18.773,6.827c17.92,10.24,43.52,32.427,43.52,69.12
		c0,0,4.267,76.8-68.267,76.8h25.6C507.76,323.293,503.493,246.493,503.493,246.493"/>
	<path style="fill:#FFFFFF;" d="M8.56,246.493c0-36.693,25.6-58.88,43.52-69.12c9.387-5.973,22.187-8.533,33.28-7.68
		c4.267,0,7.68,0.853,11.093,0.853c-6.827,0.853-13.653,3.413-18.773,6.827c-17.92,10.24-43.52,32.427-43.52,69.12
		c0,0-4.267,76.8,68.267,76.8h-25.6C4.293,323.293,8.56,246.493,8.56,246.493"/>
	<path d="M264.56,331.827h-115.2L95.6,251.613c-16.213-26.453-1.707-65.707-0.853-67.413c14.507-33.28,49.493-55.467,88.747-56.32
		c3.413,0,5.12,0,5.12,0l0,0c47.787,0,73.387,27.307,74.24,28.16l2.56,2.56v173.227H264.56z M157.893,314.76h89.6V164.573
		c-6.827-5.973-26.453-20.48-59.733-20.48c-0.853,0-1.707,0-4.267,0c-33.28,0.853-61.44,18.773-73.387,46.08
		c-3.413,8.533-10.24,35.84-0.853,52.053L157.893,314.76z"/>
	<path d="M153.627,331.827h-76.8c-23.04,0-41.813-6.827-54.613-21.333c-23.893-24.747-22.187-63.147-22.187-64
		c0-41.813,29.867-65.707,47.787-75.947c11.093-6.827,24.747-10.24,38.4-9.387c10.24,0.853,19.627,1.707,26.453,4.267l11.093,3.413
		l-6.827,9.387c-2.56,4.267-5.12,7.68-6.827,11.947c-3.413,8.533-10.24,35.84-0.853,52.053l44.373,65.707V331.827z M81.947,178.227
		c-8.533,0-18.773,2.56-25.6,6.827c-17.92,10.24-39.253,29.867-39.253,61.44c0,0.853-1.707,32.427,17.067,52.053
		C44.4,309.64,58.907,314.76,76.827,314.76h59.733v-1.707L94.747,250.76c-16.213-26.453-1.707-65.707-0.853-67.413
		c0.853-1.707,1.707-2.56,1.707-4.267c-3.413-0.853-7.68-0.853-11.947-0.853C83.653,178.227,82.8,178.227,81.947,178.227z"/>
	<path d="M362.693,331.827h-115.2v-174.08l2.56-2.56c0.853-0.853,26.453-28.16,74.24-28.16c0,0,1.707,0,4.267,0
		c39.253,1.707,74.24,23.04,88.747,56.32c0.853,1.707,15.36,41.813-0.853,67.413L362.693,331.827z M264.56,314.76h89.6l48.64-73.387
		c9.387-15.36,2.56-42.667-0.853-52.053C390,162.867,361.84,144.947,328.56,143.24c-2.56,0-3.413,0-3.413,0
		c-33.28,0-53.76,15.36-59.733,20.48v151.04H264.56z"/>
	<path d="M435.227,331.827h-76.8v-23.893l44.373-65.707c9.387-16.213,2.56-42.667-0.853-52.053
		c-1.707-3.413-3.413-6.827-6.827-11.093l-6.827-9.387l11.093-3.413c6.827-2.56,16.213-3.413,26.453-4.267
		c12.8-0.853,27.307,2.56,38.4,9.387c17.92,10.24,47.787,34.133,47.787,75.947c0,0.853,1.707,39.253-22.187,64
		C477.04,325,458.267,331.827,435.227,331.827z M375.493,314.76h59.733c17.92,0,32.427-5.12,42.667-16.213
		c18.773-19.627,17.067-52.053,17.067-52.053c0-32.427-21.333-51.2-39.253-62.293c-7.68-5.12-18.773-6.827-28.16-6.827
		c-4.267,0-8.533,0.853-11.947,0.853c0.853,1.707,1.707,2.56,1.707,4.267c0.853,1.707,15.36,41.813-0.853,67.413l0,0l-40.96,63.147
		V314.76z"/>
	<path d="M486.427,365.96h-460.8c-14.507,0-25.6-11.093-25.6-25.6s11.093-25.6,25.6-25.6h460.8c14.507,0,25.6,11.093,25.6,25.6
		S500.933,365.96,486.427,365.96z M25.627,331.827c-5.12,0-8.533,3.413-8.533,8.533s3.413,8.533,8.533,8.533h460.8
		c5.12,0,8.533-3.413,8.533-8.533s-3.413-8.533-8.533-8.533H25.627z"/>
	<path d="M486.427,502.493h-460.8c-14.507,0-25.6-11.093-25.6-25.6c0-14.507,11.093-25.6,25.6-25.6h460.8
		c14.507,0,25.6,11.093,25.6,25.6C512.027,491.4,500.933,502.493,486.427,502.493z M25.627,468.36c-5.12,0-8.533,3.413-8.533,8.533
		c0,5.12,3.413,8.533,8.533,8.533h460.8c5.12,0,8.533-3.413,8.533-8.533c0-5.12-3.413-8.533-8.533-8.533H25.627z"/>
	<path d="M486.427,468.36h-460.8V348.893h460.8V468.36z M42.693,451.293H469.36V365.96H42.693V451.293z"/>
	<path d="M221.893,417.16h-68.267c-5.12,0-8.533-3.413-8.533-8.533c0-5.12,3.413-8.533,8.533-8.533h68.267
		c5.12,0,8.533,3.413,8.533,8.533C230.427,413.747,227.013,417.16,221.893,417.16z"/>
	<path d="M358.427,417.16H290.16c-5.12,0-8.533-3.413-8.533-8.533c0-5.12,3.413-8.533,8.533-8.533h68.267
		c5.12,0,8.533,3.413,8.533,8.533C366.96,413.747,363.547,417.16,358.427,417.16z"/>
	<path d="M264.56,408.627c0,5.12-3.413,8.533-8.533,8.533c-5.12,0-8.533-3.413-8.533-8.533c0-5.12,3.413-8.533,8.533-8.533
		C261.147,400.093,264.56,403.507,264.56,408.627"/>
	<path d="M443.76,417.16h-17.067c-5.12,0-8.533-3.413-8.533-8.533c0-5.12,3.413-8.533,8.533-8.533h17.067
		c5.12,0,8.533,3.413,8.533,8.533C452.293,413.747,448.88,417.16,443.76,417.16z"/>
	<path d="M401.093,408.627c0,5.12-3.413,8.533-8.533,8.533c-5.12,0-8.533-3.413-8.533-8.533c0-5.12,3.413-8.533,8.533-8.533
		C397.68,400.093,401.093,403.507,401.093,408.627"/>
	<path d="M85.36,417.16H68.293c-5.12,0-8.533-3.413-8.533-8.533c0-5.12,3.413-8.533,8.533-8.533H85.36
		c5.12,0,8.533,3.413,8.533,8.533C93.893,413.747,90.48,417.16,85.36,417.16z"/>
	<path d="M110.96,408.627c0-5.12,3.413-8.533,8.533-8.533s8.533,3.413,8.533,8.533c0,5.12-3.413,8.533-8.533,8.533
		S110.96,413.747,110.96,408.627"/>
	<path d="M256.027,169.693c-2.56,0-5.12-0.853-5.973-2.56c0,0-11.947-12.8-34.987-19.627c-2.56-0.853-5.12-2.56-5.973-5.12
		c-0.853-2.56-0.853-5.12,0.853-7.68l39.253-64c3.413-5.12,11.093-5.12,14.507,0l39.253,64c1.707,2.56,1.707,5.12,0.853,7.68
		c-0.853,2.56-3.413,4.267-5.973,5.12c-23.04,5.973-34.987,19.627-34.987,19.627C260.293,168.84,258.587,169.693,256.027,169.693z
		 M229.573,134.707c11.947,5.12,21.333,11.093,26.453,15.36c5.12-4.267,14.507-10.24,26.453-15.36L256.027,92.04L229.573,134.707z"
		/>
	<path d="M256.027,84.36c-5.12,0-8.533-3.413-8.533-8.533V16.093c0-5.12,3.413-8.533,8.533-8.533c5.12,0,8.533,3.413,8.533,8.533
		v59.733C264.56,80.947,261.147,84.36,256.027,84.36z"/>
	<path d="M281.627,50.227h-51.2c-5.12,0-8.533-3.413-8.533-8.533s3.413-8.533,8.533-8.533h51.2c5.12,0,8.533,3.413,8.533,8.533
		S286.747,50.227,281.627,50.227z"/>
</g>
</svg>