<?xml version="1.0" encoding="iso-8859-1"?>
<!-- Uploaded to: SVG Repo, www.svgrepo.com, Generator: SVG Repo Mixer Tools -->
<svg height="800px" width="800px" version="1.1" id="Layer_1" xmlns="http://www.w3.org/2000/svg" xmlns:xlink="http://www.w3.org/1999/xlink" 
	 viewBox="0 0 502.773 502.773" xml:space="preserve">
<g>
	<g>
		<path style="fill:#D69C77;" d="M203.002,153.067l-22.713-22.713c-12.994,7.804-23.826,15.89-28.663,21.274
			c-5.385,4.838-13.471,15.669-21.274,28.663l22.713,22.713l22.925,22.925c14.495,14.495,21.416,45.268,42.196,67.116
			c4.564,4.793,9.596,9.119,14.874,13.118c14.495,10.99,39.998,16.825,55.896,32.724l120.188,120.196l24.964-24.973l24.973-24.964
			L338.894,288.959c-15.907-15.907-20.842-42.302-31.832-56.797c-3.999-5.279-8.324-10.311-13.118-14.874
			c-21.848-20.78-53.522-26.801-68.017-41.295C206.992,157.057,223.685,173.75,203.002,153.067"/>
		<path style="fill:#D69C77;" d="M126.761,126.764c2.569-2.569,11.714-13.038,25.626-24.302L130.945,81.01
			c-2.366-2.366-6.206-2.366-8.572,0l-20.683,20.683l-20.683,20.683c-2.366,2.366-2.366,6.206,0,8.572l21.451,21.442
			C113.722,138.478,124.192,129.333,126.761,126.764"/>
	</g>
	<path style="fill:#BD8366;" d="M220.392,70.585c-50.812,6.727-87.976,50.52-93.634,56.179c-5.65,5.658-49.443,42.814-56.179,93.634
		c-0.547,4.149-9.181,59.118-37.447,87.384l24.964,24.964c39.071-39.062,49.938-99.867,49.938-99.867
		c4.979-27.992,31.303-70.232,43.591-81.249c11.026-12.288,53.257-38.621,81.249-43.591c0,0,60.804-10.876,99.875-49.938
		l-24.973-24.973C279.519,61.395,224.541,70.038,220.392,70.585"/>
	<g>
		<path style="fill:#D69C77;" d="M58.099,332.751l-30.067,30.067c-4.078,4.078-10.69,4.078-14.769,0L3.059,352.622
			c-4.078-4.078-4.078-10.69,0-14.769l30.076-30.067L58.099,332.751z"/>
		<path style="fill:#D69C77;" d="M332.749,58.101l30.067-30.067c4.078-4.078,4.078-10.69,0-14.769L352.62,3.061
			c-4.078-4.078-10.69-4.078-14.769,0l-30.067,30.076L332.749,58.101z"/>
	</g>
	<path style="fill:#BD8366;" d="M502.773,415.387l-87.393,87.384c-13.789-13.789-13.789-36.14,0-49.929l37.455-37.455
		C466.624,401.598,488.985,401.598,502.773,415.387L502.773,415.387z"/>
	<g>
		<path style="fill:#C7CFE3;" d="M389.98,398.805c-0.318,0-0.644-0.018-0.971-0.053L38.306,360.149
			c-4.846-0.53-8.342-4.899-7.812-9.737c0.538-4.846,4.793-8.342,9.746-7.812l350.694,38.603c4.846,0.53,8.351,4.899,7.812,9.737
			C398.251,395.46,394.429,398.805,389.98,398.805"/>
		<path style="fill:#C7CFE3;" d="M389.962,398.805c-4.449,0-8.271-3.346-8.766-7.865L342.602,40.237
			c-0.538-4.838,2.966-9.207,7.812-9.737c4.864-0.547,9.198,2.966,9.737,7.812l38.594,350.702c0.538,4.838-2.966,9.207-7.812,9.737
			C390.607,398.788,390.28,398.805,389.962,398.805"/>
	</g>
	<g>
		<path style="fill:#BDC3C7;" d="M434.109,442.939c-2.26,0-4.52-0.865-6.241-2.587L70.483,82.967c-3.452-3.443-3.452-9.031,0-12.482
			c3.443-3.452,9.031-3.452,12.482,0L440.35,427.87c3.452,3.452,3.452,9.031,0,12.482
			C438.629,442.074,436.369,442.939,434.109,442.939"/>
		<polygon style="fill:#BDC3C7;" points="95.45,58 57.995,95.456 33.021,33.027 		"/>
	</g>
</g>
</svg>