<?xml version="1.0" encoding="iso-8859-1"?>
<!-- Uploaded to: SVG Repo, www.svgrepo.com, Generator: SVG Repo Mixer Tools -->
<svg height="800px" width="800px" version="1.1" id="Layer_1" xmlns="http://www.w3.org/2000/svg" xmlns:xlink="http://www.w3.org/1999/xlink" 
	 viewBox="0 0 512 512" xml:space="preserve">
<g transform="translate(1 1)">
	<g>
		<path style="fill:#FFE100;" d="M41.667,84.333H7.533C2.413,84.333-1,80.92-1,75.8c0-5.12,3.413-8.533,8.533-8.533h34.133
			c5.12,0,8.533,3.413,8.533,8.533C50.2,80.92,46.787,84.333,41.667,84.333z"/>
		<path style="fill:#FFE100;" d="M502.467,84.333h-34.133c-5.12,0-8.533-3.413-8.533-8.533c0-5.12,3.413-8.533,8.533-8.533h34.133
			c5.12,0,8.533,3.413,8.533,8.533C511,80.92,507.587,84.333,502.467,84.333z"/>
		<path style="fill:#FFE100;" d="M41.667,459.8H7.533c-5.12,0-8.533-3.413-8.533-8.533s3.413-8.533,8.533-8.533h34.133
			c5.12,0,8.533,3.413,8.533,8.533S46.787,459.8,41.667,459.8z"/>
		<path style="fill:#FFE100;" d="M502.467,459.8h-34.133c-5.12,0-8.533-3.413-8.533-8.533s3.413-8.533,8.533-8.533h34.133
			c5.12,0,8.533,3.413,8.533,8.533S507.587,459.8,502.467,459.8z"/>
	</g>
	<g>
		<path style="fill:#FDCC00;" d="M75.8,92.867H50.2c-4.267,0-8.533-4.267-8.533-8.533V50.2c0-5.12,4.267-8.533,8.533-8.533h25.6
			V92.867z"/>
		<path style="fill:#FDCC00;" d="M434.2,41.667h25.6c5.12,0,8.533,4.267,8.533,8.533v34.133c0,5.12-4.267,8.533-8.533,8.533h-25.6
			V41.667z"/>
		<path style="fill:#FDCC00;" d="M75.8,468.333H50.2c-5.12,0-8.533-4.267-8.533-8.533v-34.133c0-5.12,4.267-8.533,8.533-8.533h25.6
			V468.333z"/>
		<path style="fill:#FDCC00;" d="M434.2,417.133h25.6c5.12,0,8.533,4.267,8.533,8.533V459.8c0,5.12-4.267,8.533-8.533,8.533h-25.6
			V417.133z"/>
	</g>
	<g>
		<path style="fill:#FFE100;" d="M425.667,109.933H84.333c-5.12,0-8.533-4.267-8.533-8.533V33.133c0-5.12,4.267-8.533,8.533-8.533
			h341.333c5.12,0,8.533,4.267,8.533,8.533V101.4C434.2,105.667,429.933,109.933,425.667,109.933"/>
		<path style="fill:#FFE100;" d="M425.667,485.4H84.333c-5.12,0-8.533-4.267-8.533-8.533V408.6c0-5.12,4.267-8.533,8.533-8.533
			h341.333c5.12,0,8.533,4.267,8.533,8.533v68.267C434.2,481.133,429.933,485.4,425.667,485.4"/>
		<polygon style="fill:#FFE100;" points="92.867,400.067 417.133,400.067 417.133,109.933 92.867,109.933 		"/>
	</g>
	<polygon style="fill:#FFA800;" points="391.533,400.067 417.133,400.067 417.133,109.933 391.533,109.933 	"/>
	<polygon style="fill:#FFFFFF;" points="92.867,400.067 118.467,400.067 118.467,109.933 92.867,109.933 	"/>
	<path d="M425.667,118.467H84.333c-9.387,0-17.067-7.68-17.067-17.067V33.133c0-9.387,7.68-17.067,17.067-17.067h341.333
		c9.387,0,17.067,7.68,17.067,17.067V101.4C442.733,110.787,435.053,118.467,425.667,118.467z M84.333,33.133V101.4h341.333l0,0
		V33.133H84.333z"/>
	<path d="M84.333,101.4H50.2c-9.387,0-17.067-7.68-17.067-17.067V50.2c0-9.387,7.68-17.067,17.067-17.067h34.133V101.4z M50.2,50.2
		v34.133h17.067V50.2H50.2z"/>
	<path d="M41.667,75.8H7.533C2.413,75.8-1,72.387-1,67.267s3.413-8.533,8.533-8.533h34.133c5.12,0,8.533,3.413,8.533,8.533
		S46.787,75.8,41.667,75.8z"/>
	<path d="M459.8,101.4h-34.133V33.133H459.8c9.387,0,17.067,7.68,17.067,17.067v34.133C476.867,93.72,469.187,101.4,459.8,101.4z
		 M442.733,84.333H459.8V50.2h-17.067V84.333z"/>
	<path d="M502.467,75.8h-34.133c-5.12,0-8.533-3.413-8.533-8.533s3.413-8.533,8.533-8.533h34.133c5.12,0,8.533,3.413,8.533,8.533
		S507.587,75.8,502.467,75.8z"/>
	<path d="M425.667,493.933H84.333c-9.387,0-17.067-7.68-17.067-17.067V408.6c0-9.387,7.68-17.067,17.067-17.067h341.333
		c9.387,0,17.067,7.68,17.067,17.067v68.267C442.733,486.253,435.053,493.933,425.667,493.933z M84.333,408.6v68.267h341.333l0,0
		V408.6H84.333z"/>
	<path d="M84.333,476.867H50.2c-9.387,0-17.067-7.68-17.067-17.067v-34.133c0-9.387,7.68-17.067,17.067-17.067h34.133V476.867z
		 M50.2,425.667V459.8h17.067v-34.133H50.2z"/>
	<path d="M41.667,451.267H7.533c-5.12,0-8.533-3.413-8.533-8.533c0-5.12,3.413-8.533,8.533-8.533h34.133
		c5.12,0,8.533,3.413,8.533,8.533C50.2,447.853,46.787,451.267,41.667,451.267z"/>
	<path d="M459.8,476.867h-34.133V408.6H459.8c9.387,0,17.067,7.68,17.067,17.067V459.8
		C476.867,469.187,469.187,476.867,459.8,476.867z M442.733,459.8H459.8v-34.133h-17.067V459.8z"/>
	<path d="M502.467,451.267h-34.133c-5.12,0-8.533-3.413-8.533-8.533c0-5.12,3.413-8.533,8.533-8.533h34.133
		c5.12,0,8.533,3.413,8.533,8.533C511,447.853,507.587,451.267,502.467,451.267z"/>
	<path d="M425.667,408.6H84.333V101.4h341.333V408.6z M101.4,391.533h307.2V118.467H101.4V391.533z"/>
	<path d="M289.133,220.867h-68.267c-5.12,0-8.533-3.413-8.533-8.533c0-5.12,3.413-8.533,8.533-8.533h68.267
		c5.12,0,8.533,3.413,8.533,8.533C297.667,217.453,294.253,220.867,289.133,220.867z"/>
	<path d="M195.267,212.333c0,5.12-3.413,8.533-8.533,8.533c-5.12,0-8.533-3.413-8.533-8.533c0-5.12,3.413-8.533,8.533-8.533
		C191.853,203.8,195.267,207.213,195.267,212.333"/>
	<path d="M152.6,220.867h-17.067c-5.12,0-8.533-3.413-8.533-8.533c0-5.12,3.413-8.533,8.533-8.533H152.6
		c5.12,0,8.533,3.413,8.533,8.533C161.133,217.453,157.72,220.867,152.6,220.867z"/>
	<path d="M374.467,220.867H357.4c-5.12,0-8.533-3.413-8.533-8.533c0-5.12,3.413-8.533,8.533-8.533h17.067
		c5.12,0,8.533,3.413,8.533,8.533C383,217.453,379.587,220.867,374.467,220.867z"/>
	<path d="M331.8,212.333c0,5.12-3.413,8.533-8.533,8.533c-5.12,0-8.533-3.413-8.533-8.533c0-5.12,3.413-8.533,8.533-8.533
		C328.387,203.8,331.8,207.213,331.8,212.333"/>
	<path d="M186.733,178.2H152.6c-5.12,0-8.533-3.413-8.533-8.533c0-5.12,3.413-8.533,8.533-8.533h34.133
		c5.12,0,8.533,3.413,8.533,8.533C195.267,174.787,191.853,178.2,186.733,178.2z"/>
	<path d="M365.933,178.2h-25.6c-5.12,0-8.533-3.413-8.533-8.533c0-5.12,3.413-8.533,8.533-8.533h25.6
		c5.12,0,8.533,3.413,8.533,8.533C374.467,174.787,371.053,178.2,365.933,178.2z"/>
	<path d="M297.667,169.667c0-5.12,3.413-8.533,8.533-8.533s8.533,3.413,8.533,8.533c0,5.12-3.413,8.533-8.533,8.533
		S297.667,174.787,297.667,169.667"/>
	<path d="M212.333,169.667c0-5.12,3.413-8.533,8.533-8.533c5.12,0,8.533,3.413,8.533,8.533c0,5.12-3.413,8.533-8.533,8.533
		C215.747,178.2,212.333,174.787,212.333,169.667"/>
	<path d="M272.067,178.2H255c-5.12,0-8.533-3.413-8.533-8.533c0-5.12,3.413-8.533,8.533-8.533h17.067
		c5.12,0,8.533,3.413,8.533,8.533C280.6,174.787,277.187,178.2,272.067,178.2z"/>
	<path d="M186.733,263.533H152.6c-5.12,0-8.533-3.413-8.533-8.533s3.413-8.533,8.533-8.533h34.133c5.12,0,8.533,3.413,8.533,8.533
		S191.853,263.533,186.733,263.533z"/>
	<path d="M365.933,263.533h-25.6c-5.12,0-8.533-3.413-8.533-8.533s3.413-8.533,8.533-8.533h25.6c5.12,0,8.533,3.413,8.533,8.533
		S371.053,263.533,365.933,263.533z"/>
	<path d="M297.667,255c0-5.12,3.413-8.533,8.533-8.533s8.533,3.413,8.533,8.533s-3.413,8.533-8.533,8.533
		S297.667,260.12,297.667,255"/>
	<path d="M212.333,255c0-5.12,3.413-8.533,8.533-8.533c5.12,0,8.533,3.413,8.533,8.533s-3.413,8.533-8.533,8.533
		C215.747,263.533,212.333,260.12,212.333,255"/>
	<path d="M272.067,263.533H255c-5.12,0-8.533-3.413-8.533-8.533s3.413-8.533,8.533-8.533h17.067c5.12,0,8.533,3.413,8.533,8.533
		S277.187,263.533,272.067,263.533z"/>
	<path d="M289.133,306.2h-68.267c-5.12,0-8.533-3.413-8.533-8.533s3.413-8.533,8.533-8.533h68.267c5.12,0,8.533,3.413,8.533,8.533
		S294.253,306.2,289.133,306.2z"/>
	<path d="M195.267,297.667c0,5.12-3.413,8.533-8.533,8.533c-5.12,0-8.533-3.413-8.533-8.533s3.413-8.533,8.533-8.533
		C191.853,289.133,195.267,292.547,195.267,297.667"/>
	<path d="M152.6,306.2h-17.067c-5.12,0-8.533-3.413-8.533-8.533s3.413-8.533,8.533-8.533H152.6c5.12,0,8.533,3.413,8.533,8.533
		S157.72,306.2,152.6,306.2z"/>
	<path d="M374.467,306.2H357.4c-5.12,0-8.533-3.413-8.533-8.533s3.413-8.533,8.533-8.533h17.067c5.12,0,8.533,3.413,8.533,8.533
		S379.587,306.2,374.467,306.2z"/>
	<path d="M331.8,297.667c0,5.12-3.413,8.533-8.533,8.533c-5.12,0-8.533-3.413-8.533-8.533s3.413-8.533,8.533-8.533
		C328.387,289.133,331.8,292.547,331.8,297.667"/>
	<path d="M186.733,348.867H152.6c-5.12,0-8.533-3.413-8.533-8.533c0-5.12,3.413-8.533,8.533-8.533h34.133
		c5.12,0,8.533,3.413,8.533,8.533C195.267,345.453,191.853,348.867,186.733,348.867z"/>
	<path d="M365.933,348.867h-25.6c-5.12,0-8.533-3.413-8.533-8.533c0-5.12,3.413-8.533,8.533-8.533h25.6
		c5.12,0,8.533,3.413,8.533,8.533C374.467,345.453,371.053,348.867,365.933,348.867z"/>
	<path d="M297.667,340.333c0-5.12,3.413-8.533,8.533-8.533s8.533,3.413,8.533,8.533c0,5.12-3.413,8.533-8.533,8.533
		S297.667,345.453,297.667,340.333"/>
	<path d="M212.333,340.333c0-5.12,3.413-8.533,8.533-8.533c5.12,0,8.533,3.413,8.533,8.533c0,5.12-3.413,8.533-8.533,8.533
		C215.747,348.867,212.333,345.453,212.333,340.333"/>
	<path d="M272.067,348.867H255c-5.12,0-8.533-3.413-8.533-8.533c0-5.12,3.413-8.533,8.533-8.533h17.067
		c5.12,0,8.533,3.413,8.533,8.533C280.6,345.453,277.187,348.867,272.067,348.867z"/>
</g>
</svg>