<?xml version="1.0" encoding="iso-8859-1"?>
<!-- Uploaded to: SVG Repo, www.svgrepo.com, Generator: SVG Repo Mixer Tools -->
<svg height="800px" width="800px" version="1.1" id="Layer_1" xmlns="http://www.w3.org/2000/svg" xmlns:xlink="http://www.w3.org/1999/xlink" 
	 viewBox="0 0 503.322 503.322" xml:space="preserve">
<g>
	<g>
		<path style="fill:#C7CFE3;" d="M277.695,34.712h-52.068V10.978C225.627,4.912,230.539,0,236.605,0h30.113
			c6.066,0,10.978,4.912,10.978,10.978V34.712z"/>
		<polygon style="fill:#C7CFE3;" points="251.661,347.119 225.627,360.136 225.627,503.322 277.695,503.322 277.695,360.136 		"/>
	</g>
	<g>
		<path style="fill:#128972;" d="M112.814,503.322c-4.799,0-8.678-3.888-8.678-8.678v-78.102c0-4.79,3.879-8.678,8.678-8.678
			c4.799,0,8.678,3.888,8.678,8.678v78.102C121.492,499.434,117.612,503.322,112.814,503.322"/>
		<path style="fill:#128972;" d="M147.525,485.966c-4.799,0-8.678-3.888-8.678-8.678v-78.102c0-4.79,3.879-8.678,8.678-8.678
			s8.678,3.888,8.678,8.678v78.102C156.203,482.078,152.324,485.966,147.525,485.966"/>
		<path style="fill:#128972;" d="M182.237,468.61c-4.799,0-8.678-3.888-8.678-8.678v-78.102c0-4.79,3.879-8.678,8.678-8.678
			s8.678,3.888,8.678,8.678v78.102C190.915,464.722,187.036,468.61,182.237,468.61"/>
		<path style="fill:#128972;" d="M390.508,503.322c-4.799,0-8.678-3.888-8.678-8.678v-78.102c0-4.79,3.879-8.678,8.678-8.678
			s8.678,3.888,8.678,8.678v78.102C399.186,499.434,395.307,503.322,390.508,503.322"/>
		<path style="fill:#128972;" d="M355.797,485.966c-4.799,0-8.678-3.888-8.678-8.678v-78.102c0-4.79,3.879-8.678,8.678-8.678
			s8.678,3.888,8.678,8.678v78.102C364.475,482.078,360.596,485.966,355.797,485.966"/>
		<path style="fill:#128972;" d="M321.085,468.61c-4.799,0-8.678-3.888-8.678-8.678v-78.102c0-4.79,3.879-8.678,8.678-8.678
			s8.678,3.888,8.678,8.678v78.102C329.763,464.722,325.884,468.61,321.085,468.61"/>
	</g>
	<polygon style="fill:#26B99A;" points="104.136,60.746 104.136,430.583 251.661,356.821 399.186,430.583 399.186,60.746 	"/>
	<path style="fill:#F0C419;" d="M234.305,225.627c0,41.758-21.695,69.424-21.695,69.424l21.695-4.339l17.356,21.695l17.356-21.695
		l21.695,4.339c0,0-21.695-27.665-21.695-69.424c41.767,0,69.424,21.695,69.424,21.695l-4.339-21.695l21.695-17.356l-21.695-17.356
		l4.339-21.695c0,0-27.657,21.695-69.424,21.695c0-41.767,21.695-69.424,21.695-69.424l-21.695,4.339l-17.356-21.695l-17.356,21.695
		l-21.695-4.339c0,0,21.695,27.657,21.695,69.424c-41.758,0-69.424-21.695-69.424-21.695l4.339,21.695l-21.695,17.356l21.695,17.356
		l-4.339,21.695C164.881,247.322,192.547,225.627,234.305,225.627"/>
	<path style="fill:#AFB5CB;" d="M414.243,69.424H89.079c-6.066,0-10.978-4.912-10.978-10.978V45.689
		c0-6.066,4.912-10.978,10.978-10.978h325.163c6.066,0,10.978,4.912,10.978,10.978v12.757
		C425.22,64.512,420.309,69.424,414.243,69.424"/>
</g>
</svg>