<?xml version="1.0" encoding="iso-8859-1"?>
<!-- Uploaded to: SVG Repo, www.svgrepo.com, Generator: SVG Repo Mixer Tools -->
<svg fill="#000000" height="800px" width="800px" version="1.1" id="Layer_1" xmlns="http://www.w3.org/2000/svg" xmlns:xlink="http://www.w3.org/1999/xlink" 
	 viewBox="0 0 512.086 512.086" xml:space="preserve">
<g>
	<g>
		<path d="M497.088,416.521L358.315,262.579l19.307-34.795c22.805-39.744,28.309-75.072,16.384-104.981
			c-16.043-40.256-57.771-53.184-59.52-53.696c-8.704-2.624-18.005,0.512-23.36,7.808c-5.333,7.296-5.504,17.152-0.405,24.619
			c12.075,17.771-1.557,30.891-7.808,35.584c-0.939,0.683-1.813,1.408-2.645,2.24c-1.792,1.792-2.987,2.645-3.712,2.517
			c-2.432-0.149-7.339-3.947-9.643-6.848c-0.597-0.768-1.216-1.493-1.899-2.176c-2.923-2.901-3.392-15.296-0.96-24.917
			c0.235-0.917,0.405-1.835,0.533-2.773c4.032-31.979-2.88-56.875-20.544-74.005C235.904,3.827,193.109,9.63,188.309,10.419
			c-7.915,1.237-14.464,6.827-16.96,14.464c-2.496,7.616-0.491,16,5.205,21.675c7.68,7.701,8.875,12.373,9.408,12.843
			c-2.027,1.024-1.301,0.832-2.923,2.453c-2.56,2.539-4.267,3.285-4.779,3.285c-0.299-0.149-1.365-1.109-2.453-3.328
			c-4.715-9.835-11.456-20.053-19.925-30.357C136.939,8.521,107.413-3.17,78.976,0.798C36.949,6.771,13.44,36.659,12.459,37.939
			c-4.331,5.632-5.568,13.056-3.328,19.797c2.261,6.741,7.723,11.925,14.613,13.803c16.533,4.523,29.44,10.155,38.379,16.725
			c5.568,4.096,4.288,9.92,3.456,12.224c-0.832,2.347-3.883,7.915-10.475,7.36c-13.248-0.661-26.133-5.397-26.197-5.419
			c-6.592-2.475-13.909-1.621-19.648,2.347C3.499,108.745,0.043,115.273,0,122.27v23.509c0,50.432,33.024,106.923,86.4,110.272
			c10.965,0.683,20.011,4.843,23.765,8.405c9.771,9.237,14.933,17.856,13.76,23.019c-1.835,8.256-17.792,17.6-28.523,21.141
			c-5.419,1.749-9.899,5.568-12.48,10.624c-2.581,5.035-3.051,10.923-1.28,16.32c6.656,20.373,33.301,55.808,88.107,55.808
			c4.907,0,10.027-0.277,15.381-0.875c17.451-1.963,35.371-7.509,54.144-16.917l24.832-13.888l152.256,137.259
			c10.965,10.091,24.789,15.104,38.592,15.104c14.613,0,29.205-5.611,40.341-16.747
			C517.013,473.609,517.717,438.942,497.088,416.521z M465.131,465.118c-5.483,5.504-14.229,5.632-20.032,0.277L251.648,291.038
			l-1.067-0.981c-0.021,0-0.021-0.043-0.043-0.043c-2.475-2.304-4.288-5.056-5.781-7.979c-0.32-0.64-0.661-1.301-0.939-1.984
			c-1.216-2.944-1.963-6.08-2.112-9.365c-0.021-0.597,0.064-1.216,0.085-1.835c0.064-2.709,0.619-5.333,1.429-7.851
			c0.299-0.96,0.555-1.941,0.96-2.859c1.387-3.051,3.136-5.952,5.568-8.384c2.005-2.005,4.437-3.307,6.869-4.608
			c1.664-0.875,3.435-1.557,5.248-2.069c2.069-0.597,4.16-1.152,6.357-1.259c0.811-0.043,1.643-0.149,2.453-0.107
			c3.328,0.128,6.528,0.875,9.493,2.112c0.597,0.235,1.152,0.533,1.728,0.832c2.965,1.472,5.76,3.307,8.021,5.781l175.616,194.795
			C470.784,450.931,470.592,459.657,465.131,465.118z"/>
	</g>
</g>
</svg>