<?xml version="1.0" encoding="iso-8859-1"?>
<!-- Uploaded to: SVG Repo, www.svgrepo.com, Generator: SVG Repo Mixer Tools -->
<svg fill="#000000" height="800px" width="800px" version="1.1" id="Layer_1" xmlns="http://www.w3.org/2000/svg" xmlns:xlink="http://www.w3.org/1999/xlink" 
	 viewBox="0 0 512.021 512.021" xml:space="preserve">
<g>
	<g>
		<path d="M512,106.677c0-9.195-5.867-17.323-14.592-20.245c-33.728-11.243-60.565-38.08-71.851-71.829
			c-2.901-8.725-11.029-14.592-20.224-14.592H106.688c-9.195,0-17.344,5.867-20.224,14.592
			c-12.267,36.779-36.821,68.885-69.077,90.411l-7.872,5.227C3.563,114.208,0,120.885,0,128.011l0.085,86.891
			c2.112,28.672,25.899,134.528,243.349,293.013c3.755,2.731,8.149,4.096,12.565,4.096s8.811-1.365,12.565-4.096
			c216.341-157.653,240.981-263.957,243.456-294.571L512,106.677z M320,213.344h-42.667v85.333c0,11.776-9.536,21.333-21.333,21.333
			c-11.797,0-21.333-9.557-21.333-21.333v-85.333H192c-11.797,0-21.333-9.557-21.333-21.333s9.536-21.333,21.333-21.333h42.667
			v-42.667c0-11.776,9.536-21.333,21.333-21.333c11.797,0,21.333,9.557,21.333,21.333v42.667H320
			c11.797,0,21.333,9.557,21.333,21.333S331.797,213.344,320,213.344z"/>
	</g>
</g>
</svg>