<?xml version="1.0" encoding="iso-8859-1"?>
<!-- Uploaded to: SVG Repo, www.svgrepo.com, Generator: SVG Repo Mixer Tools -->
<svg fill="#000000" height="800px" width="800px" version="1.1" id="Layer_1" xmlns="http://www.w3.org/2000/svg" xmlns:xlink="http://www.w3.org/1999/xlink" 
	 viewBox="0 0 512 512" xml:space="preserve">
<g>
	<g>
		<path d="M490.667,426.667C490.667,403.136,471.531,384,448,384h-21.333V128H448c23.531,0,42.667-19.136,42.667-42.667
			C502.464,85.333,512,75.776,512,64s-9.536-21.333-21.333-21.333C490.667,19.136,471.531,0,448,0H64
			C40.469,0,21.333,19.136,21.333,42.667C9.536,42.667,0,52.224,0,64s9.536,21.333,21.333,21.333C21.333,108.864,40.469,128,64,128
			h21.333v256H64c-23.531,0-42.667,19.136-42.667,42.667C9.536,426.667,0,436.224,0,448s9.536,21.333,21.333,21.333
			C21.333,492.864,40.469,512,64,512h384c23.531,0,42.667-19.136,42.667-42.667c11.797,0,21.333-9.557,21.333-21.333
			S502.464,426.667,490.667,426.667z M64,85.333V42.667h384l0.021,21.291c0,0-0.021,0.021-0.021,0.043
			c0,0.021,0.021,0.043,0.021,0.043v21.291h-42.688H106.667H64z M320,277.333h-42.667C265.536,277.333,256,267.776,256,256
			s9.536-21.333,21.333-21.333H320c11.797,0,21.333,9.557,21.333,21.333S331.797,277.333,320,277.333z M341.333,341.333
			c0,11.776-9.536,21.333-21.333,21.333h-21.333c-11.797,0-21.333-9.557-21.333-21.333S286.869,320,298.667,320H320
			C331.797,320,341.333,329.557,341.333,341.333z M192,320h42.667c11.797,0,21.333,9.557,21.333,21.333s-9.536,21.333-21.333,21.333
			H192c-11.797,0-21.333-9.557-21.333-21.333S180.203,320,192,320z M170.667,256c0-11.776,9.557-21.333,21.333-21.333
			s21.333,9.557,21.333,21.333s-9.557,21.333-21.333,21.333S170.667,267.776,170.667,256z M234.667,192H192
			c-11.797,0-21.333-9.557-21.333-21.333s9.536-21.333,21.333-21.333h42.667c11.797,0,21.333,9.557,21.333,21.333
			S246.464,192,234.667,192z M320,192h-21.333c-11.797,0-21.333-9.557-21.333-21.333s9.536-21.333,21.333-21.333H320
			c11.797,0,21.333,9.557,21.333,21.333S331.797,192,320,192z M448.021,448.043v21.291H64v-42.667h42.667h298.667H448l0.021,21.291
			c0,0-0.021,0.021-0.021,0.043C448,448.021,448.021,448.043,448.021,448.043z"/>
	</g>
</g>
</svg>