<?xml version="1.0" encoding="iso-8859-1"?>
<!-- Uploaded to: SVG Repo, www.svgrepo.com, Generator: SVG Repo Mixer Tools -->
<svg height="800px" width="800px" version="1.1" id="Layer_1" xmlns="http://www.w3.org/2000/svg" xmlns:xlink="http://www.w3.org/1999/xlink" 
	 viewBox="0 0 503.322 503.322" xml:space="preserve">
<g>
	<path style="fill:#F0C419;" d="M442.091,503.322H87.267c-7.463,0-13.503-6.049-13.503-13.503V13.503
		C73.764,6.049,79.803,0,87.267,0h354.825c7.454,0,13.503,6.049,13.503,13.503v476.316
		C455.594,497.273,449.546,503.322,442.091,503.322"/>
	<path style="fill:#BA941C;" d="M125.83,503.322H87.265c-7.454,0-13.503-6.049-13.503-13.503V13.503C73.762,6.049,79.81,0,87.265,0
		h38.565V503.322z"/>
	<g>
		<path style="fill:#F0C419;" d="M91.118,60.746H56.406c-4.79,0-8.678-3.888-8.678-8.678s3.888-8.678,8.678-8.678h34.712
			c4.79,0,8.678,3.888,8.678,8.678S95.908,60.746,91.118,60.746"/>
		<path style="fill:#F0C419;" d="M91.118,459.932H56.406c-4.79,0-8.678-3.888-8.678-8.678c0-4.79,3.888-8.678,8.678-8.678h34.712
			c4.79,0,8.678,3.888,8.678,8.678C99.796,456.044,95.908,459.932,91.118,459.932"/>
	</g>
	<path style="fill:#E64C3C;" d="M412.203,277.696V104.136c-33.575,0-60.746-27.171-60.746-60.746H229.965
		c0,33.575-27.171,60.746-60.746,60.746v173.559v121.492c33.575,0,60.746,27.171,60.746,60.746h121.492
		c0-33.575,27.171-60.746,60.746-60.746V277.696z"/>
	<g>
		<path style="fill:#FFFFFF;" d="M412.203,251.661c0,67.098-54.394,121.492-121.492,121.492s-121.492-54.393-121.492-121.492
			s54.393-121.492,121.492-121.492S412.203,184.563,412.203,251.661"/>
		<polygon style="fill:#FFFFFF;" points="264.677,138.847 316.745,138.847 316.745,43.39 264.677,43.39 		"/>
		<polygon style="fill:#FFFFFF;" points="264.677,459.932 316.745,459.932 316.745,364.475 264.677,364.475 		"/>
	</g>
	<path style="fill:#E64C3C;" d="M238.643,277.695c0,28.759,23.309,52.068,52.068,52.068c28.759,0,52.068-23.309,52.068-52.068
		c0-22.059-26.034-34.712-26.034-34.712c-40.136-23.5,0-69.424,0-69.424S238.643,203.932,238.643,277.695"/>
</g>
</svg>