<?xml version="1.0" encoding="iso-8859-1"?>
<!-- Uploaded to: SVG Repo, www.svgrepo.com, Generator: SVG Repo Mixer Tools -->
<svg height="800px" width="800px" version="1.1" id="Layer_1" xmlns="http://www.w3.org/2000/svg" xmlns:xlink="http://www.w3.org/1999/xlink" 
	 viewBox="0 0 512 512" xml:space="preserve">
<g transform="translate(1 1)">
	<path style="fill:#FDCC00;" d="M280.6,41.667h-51.2v-23.04c0-5.973,5.12-11.093,11.093-11.093h29.867
		c5.12,0,10.24,5.12,10.24,11.093V41.667z"/>
	<g>
		<path style="fill:#FFE100;" d="M127,502.467c-5.12,0-8.533-3.413-8.533-8.533v-76.8c0-5.12,3.413-8.533,8.533-8.533
			s8.533,3.413,8.533,8.533v76.8C135.533,499.053,132.12,502.467,127,502.467z"/>
		<path style="fill:#FFE100;" d="M161.133,485.4c-5.12,0-8.533-3.413-8.533-8.533v-76.8c0-5.12,3.413-8.533,8.533-8.533
			c5.12,0,8.533,3.413,8.533,8.533v76.8C169.667,481.987,166.253,485.4,161.133,485.4z"/>
		<path style="fill:#FFE100;" d="M195.267,468.333c-5.12,0-8.533-3.413-8.533-8.533V383c0-5.12,3.413-8.533,8.533-8.533
			c5.12,0,8.533,3.413,8.533,8.533v76.8C203.8,464.92,200.387,468.333,195.267,468.333z"/>
		<path style="fill:#FFE100;" d="M400.067,502.467c-5.12,0-8.533-3.413-8.533-8.533v-76.8c0-5.12,3.413-8.533,8.533-8.533
			s8.533,3.413,8.533,8.533v76.8C408.6,499.053,405.187,502.467,400.067,502.467z"/>
		<path style="fill:#FFE100;" d="M365.933,485.4c-5.12,0-8.533-3.413-8.533-8.533v-76.8c0-5.12,3.413-8.533,8.533-8.533
			s8.533,3.413,8.533,8.533v76.8C374.467,481.987,371.053,485.4,365.933,485.4z"/>
		<path style="fill:#FFE100;" d="M331.8,468.333c-5.12,0-8.533-3.413-8.533-8.533V383c0-5.12,3.413-8.533,8.533-8.533
			s8.533,3.413,8.533,8.533v76.8C340.333,464.92,336.92,468.333,331.8,468.333z"/>
		<polygon style="fill:#FFE100;" points="391.533,75.8 344.6,75.8 165.4,75.8 118.467,75.8 118.467,417.133 255,348.867 
			391.533,417.133 		"/>
	</g>
	<polygon style="fill:#FFA800;" points="374.467,75.8 374.467,408.6 391.533,417.133 391.533,75.8 	"/>
	<polygon style="fill:#FFFFFF;" points="135.533,67.267 135.533,400.067 118.467,408.6 118.467,67.267 	"/>
	<path style="fill:#FFE100;" d="M414.573,75.8H95.427c-5.973,0-11.093-5.12-11.093-11.093V52.76c0-5.973,5.12-11.093,11.093-11.093
		h320c5.12,0,10.24,5.12,10.24,11.093v12.8C425.667,70.68,420.547,75.8,414.573,75.8"/>
	<path style="fill:#FFA800;" d="M414.573,41.667h-25.6c5.973,0,11.093,5.12,11.093,11.093v12.8c0,5.12-5.12,10.24-11.093,10.24h25.6
		c5.973,0,11.093-5.12,11.093-11.093V52.76C425.667,46.787,420.547,41.667,414.573,41.667"/>
	<path style="fill:#FFFFFF;" d="M95.427,41.667h25.6c-5.973,0-11.093,5.12-11.093,11.093v12.8c0,5.12,5.12,10.24,11.093,10.24h-25.6
		c-5.973,0-11.093-5.12-11.093-11.093V52.76C84.333,46.787,89.453,41.667,95.427,41.667"/>
	<polygon style="fill:#FFE100;" points="255,348.867 229.4,361.667 229.4,502.467 280.6,502.467 280.6,361.667 	"/>
	<path style="fill:#00DA6C;" d="M237.933,229.4c0,40.96-21.333,68.267-21.333,68.267l21.333-4.267L255,314.733l17.067-21.333
		l21.333,4.267c0,0-21.333-27.307-21.333-68.267c40.96,0,68.267,21.333,68.267,21.333l-4.267-21.333l21.333-17.067l-21.333-17.067
		l4.267-21.333c0,0-27.307,21.333-68.267,21.333c0-40.96,21.333-68.267,21.333-68.267l-21.333,4.267L255,109.933l-17.067,21.333
		L216.6,127c0,0,21.333,27.307,21.333,68.267c-40.96,0-68.267-21.333-68.267-21.333l4.267,21.333L152.6,212.333l21.333,17.067
		l-4.267,21.333C169.667,250.733,196.973,229.4,237.933,229.4"/>
	<path d="M391.533,425.667c-1.707,0-2.56,0-3.413-0.853L255,358.253l-133.12,66.56c-2.56,1.707-5.973,0.853-8.533,0
		c-1.707-1.707-3.413-5.12-3.413-7.68V75.8c0-5.12,3.413-8.533,8.533-8.533h273.067c5.12,0,8.533,3.413,8.533,8.533v341.333
		c0,2.56-1.707,5.973-4.267,7.68C394.947,425.667,393.24,425.667,391.533,425.667z M255,340.333c1.707,0,2.56,0,3.413,0.853
		L383,403.48V84.333H127V403.48l124.587-62.293C252.44,340.333,253.293,340.333,255,340.333z"/>
	<path d="M255,323.267c-2.56,0-5.12-0.853-6.827-3.413l-13.653-17.067l-16.213,3.413c-3.413,0.853-6.827-0.853-8.533-4.267
		s-1.707-6.827,0.853-9.387c0,0,16.213-21.333,18.773-53.76c-32.427,2.56-53.76,18.773-53.76,18.773
		c-2.56,2.56-6.827,2.56-9.387,0.853c-3.413-1.707-4.267-5.12-4.267-8.533l3.413-16.213l-17.067-13.653
		c-3.413-2.56-4.267-5.12-4.267-7.68s0.853-5.12,3.413-6.827l17.067-13.653l-3.413-16.213c-0.853-3.413,0.853-6.827,4.267-8.533
		c3.413-1.707,6.827-1.707,9.387,0.853c0,0,21.333,16.213,53.76,18.773c-2.56-32.427-18.773-53.76-18.773-53.76
		c-2.56-2.56-2.56-6.827-0.853-9.387c1.707-2.56,5.12-4.267,8.533-4.267l16.213,3.413l13.653-17.067
		c3.413-4.267,10.24-4.267,13.653,0l13.653,17.067l16.213-3.413c3.413-0.853,6.827,0.853,8.533,4.267
		c1.707,3.413,1.707,6.827-0.853,9.387c0,0-16.213,21.333-18.773,53.76c32.427-2.56,53.76-18.773,53.76-18.773
		c2.56-2.56,6.827-2.56,9.387-0.853c3.413,1.707,4.267,5.12,4.267,8.533l-3.413,16.213l17.067,13.653
		c1.707,1.707,3.413,4.267,3.413,6.827s-0.853,5.12-3.413,6.827l-17.067,13.653l3.413,16.213c0.853,3.413-0.853,6.827-4.267,8.533
		c-3.413,1.707-6.827,1.707-9.387-0.853c0,0-21.333-16.213-53.76-18.773c2.56,32.427,18.773,53.76,18.773,53.76
		c2.56,2.56,2.56,6.827,0.853,9.387c-1.707,3.413-5.12,4.267-8.533,4.267l-16.213-3.413L260.973,319
		C260.12,322.413,257.56,323.267,255,323.267z M237.933,284.867c2.56,0,5.12,0.853,6.827,3.413l10.24,12.8l10.24-12.8
		c1.707-2.56,5.12-3.413,8.533-3.413l2.56,0.853c-5.973-12.8-12.8-32.427-12.8-56.32c0-5.12,3.413-8.533,8.533-8.533
		c23.893,0,43.52,6.827,56.32,12.8l-0.853-2.56c-0.853-3.413,0.853-5.973,3.413-8.533l12.8-10.24l-12.8-10.24
		c-2.56-1.707-3.413-5.12-3.413-8.533l0.853-2.56c-12.8,5.973-32.427,12.8-56.32,12.8c-5.12,0-8.533-3.413-8.533-8.533
		c0-23.893,6.827-43.52,12.8-56.32l-2.56,0.853c-3.413,0.853-5.973-0.853-8.533-3.413l-10.24-12.8l-10.24,12.8
		c-1.707,2.56-5.12,3.413-8.533,3.413l-2.56-0.853c5.973,12.8,12.8,32.427,12.8,56.32c0,5.12-3.413,8.533-8.533,8.533
		c-23.893,0-43.52-6.827-56.32-12.8l0.853,2.56c0.853,3.413-0.853,5.973-3.413,8.533l-12.8,10.24l12.8,10.24
		c2.56,1.707,3.413,5.12,3.413,8.533l-0.853,2.56c12.8-5.973,32.427-12.8,56.32-12.8c5.12,0,8.533,3.413,8.533,8.533
		c0,23.893-6.827,43.52-12.8,56.32l2.56-0.853C237.08,284.867,237.08,284.867,237.933,284.867z"/>
	<path d="M118.467,502.467c-5.12,0-8.533-3.413-8.533-8.533v-76.8c0-5.12,3.413-8.533,8.533-8.533c5.12,0,8.533,3.413,8.533,8.533
		v76.8C127,499.053,123.587,502.467,118.467,502.467z"/>
	<path d="M152.6,485.4c-5.12,0-8.533-3.413-8.533-8.533v-76.8c0-5.12,3.413-8.533,8.533-8.533c5.12,0,8.533,3.413,8.533,8.533v76.8
		C161.133,481.987,157.72,485.4,152.6,485.4z"/>
	<path d="M186.733,468.333c-5.12,0-8.533-3.413-8.533-8.533V383c0-5.12,3.413-8.533,8.533-8.533c5.12,0,8.533,3.413,8.533,8.533
		v76.8C195.267,464.92,191.853,468.333,186.733,468.333z"/>
	<path d="M289.133,50.2h-68.267V18.627C220.867,7.533,229.4-1,240.493-1h29.867c10.24,0,18.773,8.533,18.773,19.627V50.2z
		 M237.933,33.133h34.133V18.627c0-1.707-0.853-2.56-2.56-2.56H239.64c-0.853,0-1.707,0.853-1.707,2.56V33.133z"/>
	<path d="M414.573,84.333H95.427C84.333,84.333,75.8,75.8,75.8,64.707V52.76c0-11.093,8.533-19.627,19.627-19.627h320
		c10.24,0,18.773,8.533,18.773,19.627v12.8C434.2,75.8,425.667,84.333,414.573,84.333z M95.427,50.2c-1.707,0-2.56,0.853-2.56,2.56
		v12.8c0,0.853,0.853,1.707,2.56,1.707h320c0.853,0,1.707-0.853,1.707-2.56V52.76c0-1.707-0.853-2.56-2.56-2.56H95.427z"/>
	<path d="M280.6,511h-51.2c-5.12,0-8.533-3.413-8.533-8.533v-140.8c0-3.413,1.707-5.973,5.12-7.68l25.6-12.8
		c2.56-0.853,5.12-0.853,7.68,0l25.6,12.8c2.56,1.707,5.12,4.267,5.12,7.68v140.8C289.133,507.587,285.72,511,280.6,511z
		 M237.933,493.933h34.133V366.787L255,358.253l-17.067,8.533V493.933z"/>
	<path d="M391.533,502.467c-5.12,0-8.533-3.413-8.533-8.533v-76.8c0-5.12,3.413-8.533,8.533-8.533s8.533,3.413,8.533,8.533v76.8
		C400.067,499.053,396.653,502.467,391.533,502.467z"/>
	<path d="M357.4,485.4c-5.12,0-8.533-3.413-8.533-8.533v-76.8c0-5.12,3.413-8.533,8.533-8.533s8.533,3.413,8.533,8.533v76.8
		C365.933,481.987,362.52,485.4,357.4,485.4z"/>
	<path d="M323.267,468.333c-5.12,0-8.533-3.413-8.533-8.533V383c0-5.12,3.413-8.533,8.533-8.533c5.12,0,8.533,3.413,8.533,8.533
		v76.8C331.8,464.92,328.387,468.333,323.267,468.333z"/>
</g>
</svg>