<?xml version="1.0" encoding="iso-8859-1"?>
<!-- Uploaded to: SVG Repo, www.svgrepo.com, Generator: SVG Repo Mixer Tools -->
<svg height="800px" width="800px" version="1.1" id="Layer_1" xmlns="http://www.w3.org/2000/svg" xmlns:xlink="http://www.w3.org/1999/xlink" 
	 viewBox="0 0 503.607 503.607" xml:space="preserve">
<g transform="translate(1 1)">
	<path style="fill:#00DA6C;" d="M220.328,7.393h44.485c5.875,0,10.911,5.036,10.911,11.751v10.911
		c0,5.875-5.036,10.911-11.751,10.911h-44.485c-5.875,0-10.911-5.036-10.911-11.751V19.144
		C208.577,12.43,213.613,7.393,220.328,7.393"/>
	<path style="fill:#00AD55;" d="M263.974,7.393h-16.787c6.715,0,11.751,5.036,11.751,11.751v10.911
		c0,5.875-5.036,10.911-11.751,10.911h16.787c6.715,0,11.751-5.036,11.751-11.751V19.144C275.725,12.43,270.689,7.393,263.974,7.393
		"/>
	<path style="fill:#00DA6C;" d="M241.312,141.689L241.312,141.689c20.144,0,39.449,5.875,55.397,16.787
		c9.233,5.875,10.072,18.466,2.518,26.02c-5.875,5.036-14.269,5.875-20.984,1.679c-10.072-6.715-22.662-10.911-36.092-10.911
		c-14.269,0-26.859,4.197-37.77,11.751c-6.715,4.197-15.108,3.357-20.984-1.679l0,0c-7.554-7.554-6.715-19.305,1.679-26.02
		C201.863,148.403,221.168,141.689,241.312,141.689"/>
	<path style="fill:#00AD55;" d="M301.745,160.993c-10.911-7.554-23.502-12.59-36.931-15.108c5.875,2.518,11.751,5.875,16.787,9.233
		c9.233,5.875,10.072,18.466,2.518,26.02c-1.679,1.679-4.197,3.357-7.554,4.197c2.518,0.839,4.197,2.518,6.715,3.357
		c6.715,4.197,15.108,3.357,20.984-1.679C311.817,180.298,310.977,166.869,301.745,160.993"/>
	<g>
		<polygon style="fill:#FFE100;" points="225.364,141.689 258.938,141.689 258.938,40.967 225.364,40.967 		"/>
		<path style="fill:#FFE100;" d="M275.725,346.489V185.334c-10.072-5.875-20.984-9.233-33.574-10.072
			c-12.59,0-23.502,3.357-33.574,9.233v173.744L275.725,346.489z"/>
	</g>
	<path style="fill:#FFA800;" d="M242.151,175.262c-2.518,0-5.875,0-8.393,0.839c9.233,0.839,17.626,4.197,25.18,9.233v161.154
		l-50.361,9.233v3.357l67.148-12.59V185.334C265.653,178.62,254.741,175.262,242.151,175.262"/>
	<g>
		<polygon style="fill:#FFE100;" points="91.069,494.213 91.069,452.246 149.823,410.279 208.577,410.279 242.151,443.852 
			242.151,494.213 		"/>
		<polygon style="fill:#FFE100;" points="376.446,418.672 326.086,410.279 242.151,443.852 242.151,494.213 410.02,494.213 		"/>
		<polygon style="fill:#FFE100;" points="324.407,411.118 309.299,376.705 292.512,343.131 200.184,359.918 158.217,351.525 
			158.217,410.279 208.577,410.279 242.151,443.852 		"/>
		<polygon style="fill:#FFE100;" points="351.266,351.525 300.066,359.079 309.299,376.705 323.568,411.118 324.407,411.118 
			326.086,410.279 359.659,416.154 376.446,376.705 		"/>
	</g>
	<g>
		<polygon style="fill:#FFA800;" points="376.446,418.672 326.086,410.279 321.05,411.957 359.659,418.672 393.233,494.213 
			242.151,494.213 242.151,494.213 410.02,494.213 		"/>
		<polygon style="fill:#FFA800;" points="351.266,351.525 336.158,353.203 359.659,376.705 343.712,412.797 359.659,415.315 
			376.446,376.705 		"/>
	</g>
	<g>
		<polygon style="fill:#FFE100;" points="149.823,410.279 154.859,410.279 157.377,403.564 154.859,382.58 116.25,376.705 
			91.069,401.885 107.856,440.495 		"/>
		<polygon style="fill:#FFE100;" points="107.856,494.213 107.856,452.246 166.61,410.279 225.364,410.279 258.938,443.852 
			258.938,494.213 		"/>
		<polygon style="fill:#FFE100;" points="166.61,410.279 171.646,410.279 174.164,403.564 171.646,382.58 133.036,376.705 
			107.856,401.885 124.643,440.495 		"/>
	</g>
	<g>
		<polygon style="fill:#FFFFFF;" points="107.856,494.213 107.856,452.246 107.856,443.852 149.823,410.279 91.069,452.246 
			91.069,494.213 242.151,494.213 242.151,494.213 		"/>
		<polygon style="fill:#FFFFFF;" points="107.856,401.885 131.358,379.223 116.25,376.705 91.069,401.885 107.856,440.495 
			120.446,431.262 		"/>
	</g>
	<path d="M258.938,150.082h-33.574c-5.036,0-8.393-3.357-8.393-8.393V40.967c0-5.036,3.357-8.393,8.393-8.393h33.574
		c5.036,0,8.393,3.357,8.393,8.393v100.721C267.331,146.725,263.974,150.082,258.938,150.082z M233.758,133.295h16.787V49.361
		h-16.787V133.295z"/>
	<path d="M263.974,49.361h-44.485c-10.072,0-19.305-9.233-19.305-20.144V19.144C200.184,8.233,209.417-1,220.328-1h44.485
		c10.072,0,19.305,9.233,19.305,20.144v10.911C284.118,40.128,274.886,49.361,263.974,49.361z M220.328,15.787
		c-1.679,0-3.357,1.679-3.357,3.357v10.911c0,0.839,1.679,2.518,3.357,2.518h44.485c0.839,0,2.518-1.679,2.518-3.357V19.144
		c0-1.679-1.679-3.357-3.357-3.357H220.328z"/>
	<path d="M195.148,197.925c-6.715,0-12.59-2.518-17.626-6.715c-5.875-5.036-8.393-12.59-7.554-20.144
		c0.839-7.554,4.197-14.269,10.072-18.466c18.466-12.59,39.449-19.305,61.272-19.305h0.839c20.984,0,41.967,6.715,59.593,18.466
		c6.715,4.197,10.911,11.751,10.911,19.305c0.839,7.554-2.518,15.108-7.554,20.144c-8.393,8.393-21.823,9.233-31.056,2.518
		c-9.233-6.715-20.144-10.072-31.895-10.072c-12.59,0-23.502,3.357-33.574,10.072C204.381,197.085,200.184,197.925,195.148,197.925z
		 M241.312,141.689v8.393c-18.466,0-36.931,5.875-52.039,15.948c-2.518,1.679-3.357,4.197-3.357,5.875
		c0,2.518,0.839,5.036,2.518,6.715c2.518,2.518,7.554,3.357,10.072,0.839c12.59-8.393,26.859-13.43,42.807-13.43
		c15.108,0,29.377,4.197,41.128,12.59c3.357,2.518,7.554,1.679,10.072-0.839c2.518-2.518,2.518-5.036,2.518-6.715
		c0-2.518-1.679-5.036-4.197-6.715c-15.108-10.072-31.895-15.108-50.361-15.948L241.312,141.689z"/>
	<path d="M242.151,359.918c-5.036,0-8.393-3.357-8.393-8.393V225.623c0-5.036,3.357-8.393,8.393-8.393s8.393,3.357,8.393,8.393
		v125.902C250.545,356.561,247.187,359.918,242.151,359.918z"/>
	<path d="M242.151,502.607L242.151,502.607H91.069c-5.036,0-8.393-3.357-8.393-8.393v-41.967c0-2.518,1.679-5.036,3.357-6.715
		l58.754-41.967c1.679-0.839,3.357-1.679,5.036-1.679h58.754c2.518,0,4.197,0.839,5.875,2.518l33.574,33.574
		c1.679,1.679,2.518,3.357,2.518,5.875v50.361c0,2.518-0.839,4.197-2.518,5.875C246.348,501.767,244.669,502.607,242.151,502.607z
		 M99.463,485.82h134.295v-38.61l-28.538-28.538h-52.879l-52.879,37.77V485.82z"/>
	<path d="M242.151,502.607c-2.518,0-4.197-0.839-5.875-2.518c-1.679-1.679-2.518-3.357-2.518-5.875v-50.361
		c0-3.357,1.679-6.715,5.036-7.554l83.934-33.574c1.679-0.839,3.357-0.839,5.036-0.839l50.361,8.393
		c2.518,0.839,5.036,2.518,6.715,5.036l33.574,75.541c0.839,2.518,0.839,5.875-0.839,8.393c-1.679,1.679-5.036,3.357-7.554,3.357
		H242.151L242.151,502.607z M250.545,449.728v36.092H397.43l-26.859-59.593l-43.646-7.554L250.545,449.728z"/>
	<path d="M242.151,452.246c-2.518,0-4.197-0.839-5.875-2.518l-31.056-31.056h-47.003c-5.036,0-8.393-3.357-8.393-8.393v-58.754
		c0-2.518,0.839-5.036,3.357-6.715c1.679-1.679,4.197-1.679,6.715-1.679l40.289,8.393l90.649-16.787
		c3.357-0.839,7.554,0.839,9.233,4.197l16.787,33.574l15.108,35.252c0.839,1.679,0.839,4.197,0,6.715
		c-0.839,2.518-2.518,3.357-5.036,4.197l-82.256,32.734C244.669,452.246,242.991,452.246,242.151,452.246z M166.61,401.885h41.967
		c2.518,0,4.197,0.839,5.875,2.518l29.377,29.377l68.826-27.698l-11.751-26.859l-13.43-27.698l-85.613,16.787
		c-0.839,0-1.679,0-3.357,0l-31.895-6.715V401.885z"/>
	<path d="M359.659,424.548c-0.839,0-0.839,0-1.679,0l-31.056-5.875c-1.679,0-2.518,0.839-4.197,0
		c-2.518-0.839-5.875-2.518-6.715-5.036l-14.269-34.413l-8.393-17.626c-0.839-2.518-0.839-5.036,0-7.554
		c0.839-2.518,3.357-4.197,5.875-4.197l51.2-7.554c2.518,0,5.036,0.839,6.715,2.518l25.18,25.18
		c2.518,2.518,3.357,5.875,1.679,9.233l-16.787,39.449C366.374,422.03,363.017,424.548,359.659,424.548z M329.443,402.725
		l25.18,4.197l11.751-27.698l-18.466-18.466l-35.252,5.036l3.357,7.554L329.443,402.725z"/>
	<path d="M208.577,366.633c-1.679,0-4.197-0.839-5.036-1.679c-1.679-1.679-3.357-4.197-3.357-6.715V184.495
		c0-3.357,1.679-5.875,4.197-7.554c11.751-6.715,24.341-10.072,37.77-10.072s26.859,4.197,37.77,10.911
		c2.518,1.679,4.197,4.197,4.197,6.715v161.154c0,4.197-2.518,7.554-6.715,8.393l-67.148,12.59
		C209.417,366.633,209.417,366.633,208.577,366.633z M216.971,189.531v158.636l50.361-9.233V189.531
		c-7.554-4.197-16.787-5.875-25.18-5.875C232.918,183.656,224.525,185.334,216.971,189.531z"/>
	<path d="M107.856,448.888c-0.839,0-1.679,0-2.518,0c-2.518-0.839-4.197-2.518-5.036-5.036l-16.787-38.61
		c-1.679-3.357-0.839-6.715,1.679-9.233l25.18-25.18c1.679-1.679,4.197-2.518,6.715-2.518l38.61,5.875
		c3.357,0.839,6.715,3.357,7.554,7.554l2.518,21.823c0,1.679,0,3.357-0.839,4.197l-2.518,6.715
		c-1.679,2.518-4.197,4.197-7.554,4.197h-2.518l-40.289,28.538C111.213,448.049,109.535,448.888,107.856,448.888z M101.141,403.564
		l10.072,23.502l33.574-24.341c1.679,0,2.518-0.839,4.197-0.839l-1.679-12.59l-27.698-4.197L101.141,403.564z"/>
</g>
</svg>