<?xml version="1.0" encoding="iso-8859-1"?>
<!-- Uploaded to: SVG Repo, www.svgrepo.com, Generator: SVG Repo Mixer Tools -->
<svg fill="#000000" height="800px" width="800px" version="1.1" id="Layer_1" xmlns="http://www.w3.org/2000/svg" xmlns:xlink="http://www.w3.org/1999/xlink" 
	 viewBox="0 0 512 512" xml:space="preserve">
<g transform="translate(1 1)">
	<g>
		<g>
			<path d="M322.84,451.267c-5.12,0-8.533,3.413-8.533,8.533c0,5.12,3.413,8.533,8.533,8.533s8.533-3.413,8.533-8.533
				C331.373,454.68,327.96,451.267,322.84,451.267z"/>
			<path d="M371.48,128.707L263.107,37.006V7.533c0-5.12-3.413-8.533-8.533-8.533c-5.12,0-8.533,3.413-8.533,8.533v30.195
				l-107.52,90.978c-2.56,2.56-3.413,5.973-2.56,9.387s4.267,5.973,7.68,5.973h8.533v25.6c0,5.12,3.413,8.533,8.533,8.533h8.533
				v230.4h-8.533c-4.267,0-7.68,3.413-8.533,7.68l-8.533,85.333c0,2.56,0.853,5.12,2.56,6.827c0.853,1.707,3.413,2.56,5.973,2.56
				h204.8c2.56,0,5.12-0.853,5.973-2.56c1.707-1.707,2.56-4.267,2.56-6.827l-8.533-85.333c-0.853-4.267-4.267-7.68-8.533-7.68
				h-8.533V178.2h8.533c5.12,0,8.533-3.413,8.533-8.533v-25.6h8.533c3.413,0,6.827-2.56,8.533-5.973
				C374.893,134.68,374.04,131.267,371.48,128.707z M254.573,52.76l87.04,74.24H166.68L254.573,52.76z M347.587,493.933H161.56
				l6.827-68.267h9.387h153.6h9.387L347.587,493.933z M322.84,289.133h-17.067c-5.12,0-8.533,3.413-8.533,8.533
				s3.413,8.533,8.533,8.533h17.067v102.4H186.307V383h17.067c5.12,0,8.533-3.413,8.533-8.533s-3.413-8.533-8.533-8.533h-17.067
				V220.867h17.067c5.12,0,8.533-3.413,8.533-8.533c0-5.12-3.413-8.533-8.533-8.533h-17.067v-25.6H322.84V289.133z M339.907,161.133
				h-8.533h-153.6h-8.533v-17.067h170.667V161.133z"/>
			<path d="M288.707,451.267h-51.2c-5.12,0-8.533,3.413-8.533,8.533c0,5.12,3.413,8.533,8.533,8.533h51.2
				c5.12,0,8.533-3.413,8.533-8.533C297.24,454.68,293.827,451.267,288.707,451.267z"/>
			<path d="M203.373,451.267h-17.067c-5.12,0-8.533,3.413-8.533,8.533c0,5.12,3.413,8.533,8.533,8.533h17.067
				c5.12,0,8.533-3.413,8.533-8.533C211.907,454.68,208.493,451.267,203.373,451.267z"/>
			<path d="M237.507,280.6h34.133c5.12,0,8.533-3.413,8.533-8.533V229.4c0-14.507-11.093-25.6-25.6-25.6
				c-14.507,0-25.6,11.093-25.6,25.6v42.667C228.973,277.187,232.387,280.6,237.507,280.6z M246.04,229.4
				c0-5.12,3.413-8.533,8.533-8.533c5.12,0,8.533,3.413,8.533,8.533v34.133H246.04V229.4z"/>
			<path d="M237.507,383h34.133c5.12,0,8.533-3.413,8.533-8.533V331.8c0-14.507-11.093-25.6-25.6-25.6
				c-14.507,0-25.6,11.093-25.6,25.6v42.667C228.973,379.587,232.387,383,237.507,383z M246.04,331.8
				c0-5.12,3.413-8.533,8.533-8.533c5.12,0,8.533,3.413,8.533,8.533v34.133H246.04V331.8z"/>
		</g>
	</g>
</g>
</svg>