<?xml version="1.0" encoding="iso-8859-1"?>
<!-- Uploaded to: SVG Repo, www.svgrepo.com, Generator: SVG Repo Mixer Tools -->
<svg fill="#000000" height="800px" width="800px" version="1.1" id="Layer_1" xmlns="http://www.w3.org/2000/svg" xmlns:xlink="http://www.w3.org/1999/xlink" 
	 viewBox="0 0 512 512" xml:space="preserve">
<g>
	<g>
		<path d="M505.749,354.901l-15.083-15.083c-18.923-18.923-48.768-22.805-72.448-12.139l-44.245-44.224l-13.909-208.64
			l23.317-23.317c8.341-8.341,8.341-21.845,0-30.165c-8.341-8.341-21.824-8.341-30.165,0l-30.165,30.165
			c-19.605,19.584-78.272,38.101-92.928,41.536c-12.288,2.624-23.893,7.019-34.453,12.096l-53.653-53.632
			c-8.32-8.341-21.824-8.341-30.165,0L96.768,66.581L72.832,42.667h8.832c11.797,0,21.333-9.557,21.333-21.333
			C102.997,9.536,93.461,0,81.664,0H21.333c-2.773,0-5.547,0.555-8.149,1.643C7.979,3.797,3.819,7.957,1.643,13.163
			C0.576,15.787,0,18.539,0,21.333v60.331c0,11.797,9.536,21.333,21.333,21.333c11.797,0,21.333-9.536,21.333-21.333v-8.832
			l23.915,23.915l-15.083,15.083c-3.989,4.011-6.251,9.429-6.251,15.083c0,5.675,2.261,11.093,6.251,15.083l53.12,53.12
			c-5.568,11.264-10.112,23.381-11.669,35.648c-2.325,10.944-21.184,72.021-41.451,92.267l-30.165,30.165
			c-8.32,8.341-8.32,21.845,0,30.165c4.181,4.181,9.621,6.251,15.083,6.251c5.461,0,10.923-2.069,15.083-6.251l23.339-23.317
			l208.597,13.888l44.075,44.075c-11.264,23.765-7.317,53.013,12.309,72.661l15.083,15.083c4.16,4.16,9.621,6.251,15.083,6.251
			c5.461,0,10.923-2.091,15.083-6.251l120.683-120.683c4.011-3.989,6.251-9.429,6.251-15.083S509.76,358.891,505.749,354.901z
			 M105.045,319.296c18.432-35.285,29.504-77.888,30.037-81.984c0.405-3.115,1.152-6.336,2.155-9.579l100.395,100.395
			L105.045,319.296z M228.373,137.856c3.52-1.195,7.083-2.325,10.709-3.093c0.576-0.128,44.075-10.923,80.213-29.739l8.853,132.587
			L228.373,137.856z"/>
	</g>
</g>
</svg>