<?xml version="1.0" encoding="iso-8859-1"?>
<!-- Uploaded to: SVG Repo, www.svgrepo.com, Generator: SVG Repo Mixer Tools -->
<svg fill="#000000" height="800px" width="800px" version="1.1" id="Layer_1" xmlns="http://www.w3.org/2000/svg" xmlns:xlink="http://www.w3.org/1999/xlink" 
	 viewBox="0 0 512.017 512.017" xml:space="preserve">
<g>
	<g>
		<path d="M510.634,204.881c-1.003-6.293-4.779-11.797-10.261-15.019c-5.483-3.221-12.16-3.819-18.091-1.664
			c-26.581,9.685-48.235,9.301-66.752-1.216l43.264-43.264c4.715-4.693,6.933-11.307,6.059-17.899
			c-0.875-6.592-4.779-12.395-10.539-15.701L420.97,91.046l-19.072-33.323c-3.307-5.781-9.109-9.664-15.68-10.56
			c-6.741-0.853-13.227,1.365-17.92,6.059l-43.264,43.264c-10.496-18.539-10.88-40.171-1.216-66.752
			c2.197-5.973,1.579-12.608-1.643-18.091c-3.243-5.483-8.725-9.259-15.019-10.261c-3.456-0.576-86.165-13.013-148.523,49.344
			c-62.357,62.336-49.899,145.024-49.344,148.523c1.003,6.272,4.779,11.776,10.261,15.019c5.483,3.221,12.16,3.797,18.091,1.643
			c26.133-9.515,48.107-9.067,66.688,1.301l-53.163,53.141l-29.419-29.419c-8.32-8.32-21.824-8.32-30.165,0
			c-8.32,8.341-8.32,21.845,0,30.165l29.419,29.419l-33.835,33.835l-40.085-40.085c-8.32-8.32-21.824-8.32-30.165,0
			c-8.32,8.341-8.32,21.845,0,30.165l40.085,40.085L6.25,415.27c-8.32,8.32-8.32,21.824,0,30.165l60.331,60.331
			c4.011,4.011,9.429,6.251,15.083,6.251c5.675,0,11.093-2.24,15.083-6.251l50.752-50.752l18.752,18.752
			c4.181,4.181,9.621,6.251,15.083,6.251c5.461,0,10.923-2.069,15.083-6.251c8.341-8.32,8.341-21.824,0-30.165l-18.752-18.752
			l33.835-33.835l29.419,29.419c4.181,4.181,9.621,6.251,15.083,6.251c5.461,0,10.923-2.069,15.083-6.251
			c8.341-8.32,8.341-21.824,0-30.165l-29.419-29.419l53.227-53.205c10.517,18.517,10.88,40.171,1.216,66.752
			c-2.176,5.973-1.579,12.608,1.643,18.091c3.243,5.483,8.725,9.237,15.019,10.261c1.024,0.149,9.003,1.365,21.355,1.365
			c29.333,0,83.307-6.827,127.168-50.709C523.647,291.067,511.189,208.358,510.634,204.881z M81.663,460.518l-30.165-30.165
			l35.669-35.669l30.165,30.165L81.663,460.518z M211.498,330.683l-30.165-30.165l55.104-55.104l25.408,25.408l4.757,4.757
			L211.498,330.683z M374.485,264.166c-4.16,4.16-9.621,6.251-15.083,6.251c-5.461,0-10.923-2.091-15.083-6.251l-96.363-96.341
			c-8.32-8.341-8.32-21.845,0-30.165c8.341-8.341,21.845-8.341,30.165,0l96.363,96.341
			C382.826,242.342,382.826,255.825,374.485,264.166z M383.487,158.715l-4.757-4.779l-25.408-25.408l25.408-25.387l8.085,14.144
			c1.899,3.307,4.629,6.016,7.915,7.915l14.144,8.107L383.487,158.715z"/>
	</g>
</g>
</svg>