<?xml version="1.0" encoding="iso-8859-1"?>
<!-- Uploaded to: SVG Repo, www.svgrepo.com, Generator: SVG Repo Mixer Tools -->
<svg fill="#000000" height="800px" width="800px" version="1.1" id="Layer_1" xmlns="http://www.w3.org/2000/svg" xmlns:xlink="http://www.w3.org/1999/xlink" 
	 viewBox="0 0 512 512" xml:space="preserve">
<g transform="translate(1 1)">
	<g>
		<g>
			<path d="M468.333-1c-14.218,0-26.621,6.649-34.336,17.067H76.003C68.288,5.649,55.884-1,41.667-1C17.773-1-1,17.773-1,41.667
				c0,23.893,18.773,42.667,42.667,42.667c14.218,0,26.621-6.649,34.336-17.067h8.33V434.2c0,3.413,1.707,6.827,5.12,7.68
				l162.133,68.267C252.44,511,254.147,511,255,511s2.56,0,3.413-0.853l162.133-68.267c3.413-0.853,5.12-4.267,5.12-7.68V67.267
				h8.33c7.715,10.418,20.118,17.067,34.336,17.067C492.227,84.333,511,65.56,511,41.667C511,17.773,492.227-1,468.333-1z
				 M41.667,67.267c-14.507,0-25.6-11.093-25.6-25.6c0-14.507,11.093-25.6,25.6-25.6c9.144,0,16.929,4.411,21.437,11.303
				c0.199,0.519,0.435,1.026,0.75,1.497c1.233,2.054,2.062,4.109,2.598,6.163c0.217,0.858,0.393,1.734,0.525,2.629
				c0.003,0.017,0.005,0.034,0.007,0.051c0.058,0.403,0.107,0.81,0.148,1.22c0.009,0.095,0.016,0.19,0.023,0.285
				c0.03,0.345,0.057,0.691,0.075,1.04c0.022,0.471,0.037,0.942,0.037,1.412s-0.015,0.942-0.037,1.412
				c-0.018,0.349-0.045,0.696-0.075,1.041c-0.008,0.095-0.014,0.189-0.023,0.284c-0.041,0.41-0.089,0.817-0.148,1.22
				c-0.002,0.017-0.005,0.034-0.007,0.05c-0.131,0.895-0.308,1.771-0.525,2.629c-0.537,2.055-1.366,4.109-2.599,6.164
				c-0.314,0.472-0.551,0.978-0.75,1.497C58.596,62.856,50.811,67.267,41.667,67.267z M408.6,428.227L255,493.08l-153.6-64.853
				V67.267h307.2V428.227z M417.133,50.2H92.867h-9.359c0.017-0.085,0.029-0.172,0.045-0.258c0.773-2.529,0.781-5.798,0.781-8.276
				c0-2.477-0.007-5.747-0.781-8.276c-0.016-0.085-0.028-0.172-0.045-0.258h342.984c-0.017,0.085-0.029,0.172-0.045,0.258
				c-0.773,2.529-0.781,5.798-0.781,8.276c0,2.477,0.007,5.747,0.781,8.276c0.016,0.085,0.028,0.172,0.045,0.258H417.133z
				 M468.333,67.267c-9.144,0-16.929-4.41-21.437-11.302c-0.199-0.519-0.435-1.026-0.75-1.497c-1.234-2.056-2.063-4.112-2.6-6.168
				c-0.216-0.856-0.392-1.731-0.523-2.625c-0.002-0.017-0.005-0.034-0.007-0.05c-0.058-0.403-0.107-0.81-0.148-1.22
				c-0.009-0.095-0.015-0.189-0.023-0.284c-0.03-0.345-0.057-0.691-0.075-1.041c-0.022-0.471-0.037-0.942-0.037-1.412
				s0.015-0.942,0.037-1.412c0.018-0.349,0.045-0.695,0.075-1.04c0.008-0.095,0.014-0.19,0.023-0.285
				c0.04-0.41,0.089-0.817,0.148-1.22c0.002-0.017,0.005-0.034,0.007-0.051c0.131-0.893,0.308-1.769,0.524-2.625
				c0.537-2.056,1.366-4.111,2.599-6.167c0.314-0.472,0.551-0.979,0.75-1.497c4.508-6.892,12.293-11.303,21.437-11.303
				c14.507,0,25.6,11.093,25.6,25.6C493.933,56.173,482.84,67.267,468.333,67.267z"/>
			<path d="M144.92,265.24c-6.827,23.04-0.853,47.787,16.213,64.853c10.24,10.24,20.48,18.773,29.013,24.747l12.8,34.133
				c1.694,5.084,2.557,8.485,51.851,11.039c0.344,0.033,0.694,0.055,1.056,0.055c0.276,0,0.551-0.016,0.826-0.044
				c48.669-2.555,49.53-5.959,51.227-11.05l12.79-34.107c0.28-0.013,0.557-0.026,0.863-0.026
				c8.533-5.973,18.773-14.507,29.013-24.747c16.213-17.067,23.04-41.813,16.213-64.853l-5.315-18.072
				c38.231-43.983,31.769-101.462,31.769-103.954c-0.853-4.267-4.267-7.68-8.533-7.68c-48.297,0-75.378,28.256-82.024,35.831
				c-22.321-9.823-42.889-9.377-46.829-9.377c-4.356-0.436-24.947-0.865-47.127,8.917c-7.129-8.679-34.122-35.37-81.727-35.37
				c-4.267,0-7.68,3.413-8.533,7.68c0,2.492-6.461,60.766,31.755,104.003L144.92,265.24z M255.853,331.8
				c-10.24,0-17.067-5.12-17.067-8.533c0-3.413,6.827-8.533,17.067-8.533s17.067,5.12,17.067,8.533
				C272.92,326.68,266.093,331.8,255.853,331.8z M374.467,152.6c0.844,14.354-1.664,46.25-19.904,73.374
				c-4.75-11.633-10.694-21.148-17.299-28.938c-5.678-6.973-12.304-12.999-19.971-17.983C324.973,170.52,344.6,155.16,374.467,152.6
				z M255,178.2L255,178.2l0.853,0c3.413,0,64.853-4.267,85.333,62.293l8.533,29.013c5.12,17.067,0.853,35.84-11.947,47.787
				c-4.292,4.682-8.582,8.823-12.711,12.435c-0.135-13.195-3.922-26.292-11.182-37.182c-2.56-4.267-7.68-5.12-11.947-2.56
				c-4.267,2.56-5.12,7.68-2.56,11.947c8.533,13.653,11.093,31.573,5.12,46.933l-11.093,30.72
				c-5.455,0.682-17.448,1.908-29.013,2.809v-34.318c14.679-2.774,25.6-12.579,25.6-24.811c0-14.507-15.36-25.6-34.133-25.6
				c-18.773,0-34.133,11.093-34.133,25.6c0,12.232,10.921,22.036,25.6,24.811v34.426c-12.139-0.715-24.348-1.537-29.867-2.917
				l-11.093-30.72c-5.973-15.36-4.267-33.28,5.12-46.933c2.56-4.267,1.707-9.387-2.56-11.947c-4.267-2.56-9.387-1.707-11.947,2.56
				c-7.098,11.153-10.882,23.813-11.174,36.547c-4.133-3.582-8.422-7.503-12.719-11.8c-11.947-11.947-17.067-30.72-11.947-47.787
				l6.654-22.623c0.056-0.139,0.126-0.277,0.173-0.417l1.705-5.966l0.002-0.007c5.108-16.602,12.818-28.796,21.553-37.75
				c5.698-5.743,12.203-10.545,19.407-14.303c0.293-0.195,0.571-0.404,0.84-0.62C232.842,176.831,253.547,178.2,255,178.2z
				 M192.707,179.053c-16.213,11.093-29.013,27.307-36.693,47.787c-18.773-27.307-20.48-59.733-20.48-74.24
				C166.253,155.16,185.88,170.52,192.707,179.053z"/>
			<path d="M281.453,263.533c4.267,0,8.533-3.413,8.533-8.533s3.413-8.533,8.533-8.533s8.533-3.413,8.533-8.533
				s-3.413-8.533-8.533-8.533c-14.507,0-25.6,11.093-25.6,25.6C272.92,260.12,276.333,263.533,281.453,263.533z"/>
			<path d="M204.653,237.933c0,5.12,3.413,8.533,8.533,8.533c5.12,0,8.533,3.413,8.533,8.533s3.413,8.533,8.533,8.533
				c4.267,0,8.533-3.413,8.533-8.533c0-14.507-11.093-25.6-25.6-25.6C208.067,229.4,204.653,232.813,204.653,237.933z"/>
		</g>
	</g>
</g>
</svg>