<?xml version="1.0" encoding="iso-8859-1"?>
<!-- Uploaded to: SVG Repo, www.svgrepo.com, Generator: SVG Repo Mixer Tools -->
<svg fill="#000000" height="800px" width="800px" version="1.1" id="Layer_1" xmlns="http://www.w3.org/2000/svg" xmlns:xlink="http://www.w3.org/1999/xlink" 
	 viewBox="0 0 512.017 512.017" xml:space="preserve">
<g>
	<g>
		<g>
			<path d="M320.008,277.344h-42.667v-42.667c0-11.782-9.551-21.333-21.333-21.333s-21.333,9.551-21.333,21.333v42.667h-42.667
				c-11.782,0-21.333,9.551-21.333,21.333c0,11.782,9.551,21.333,21.333,21.333h42.667v106.667c0,11.782,9.551,21.333,21.333,21.333
				s21.333-9.551,21.333-21.333V320.01h42.667c11.782,0,21.333-9.551,21.333-21.333C341.342,286.895,331.79,277.344,320.008,277.344
				z"/>
			<path d="M485.501,0.647L402.69,21.35h-82.681c-11.782,0-21.333,9.551-21.333,21.333v21.327h-85.333V42.684
				c0-11.782-9.551-21.333-21.333-21.333h-82.681L26.516,0.647C13.051-2.719,0.008,7.465,0.008,21.344v128
				c0,13.879,13.043,24.063,26.507,20.696l58.826-14.706v335.35c0,11.782,9.551,21.333,21.333,21.333h298.667
				c11.782,0,21.333-9.551,21.333-21.333v-335.35l58.826,14.706c13.464,3.366,26.507-6.818,26.507-20.696v-128
				C512.008,7.465,498.965-2.719,485.501,0.647z M298.619,106.677c-0.562,13.701-5.908,25.849-14.72,33.24
				c-7.575,6.34-16.163,9.433-27.891,9.433s-20.315-3.093-27.908-9.448c-8.796-7.377-14.141-19.525-14.703-33.225H298.619z
				 M42.675,122.021V48.667l42.667,10.667v52.02L42.675,122.021z M384.008,469.35h-256v-341.34V64.017h42.667v40.256
				c0,26.686,10.471,51.934,30.024,68.334c15.32,12.822,33.61,19.41,55.31,19.41s39.989-6.588,55.292-19.395
				c19.571-16.415,30.041-41.663,30.041-68.349V64.017h42.667v63.994V469.35z M469.342,122.021l-42.667-10.667v-52.02l42.667-10.667
				V122.021z"/>
		</g>
	</g>
</g>
</svg>