<?xml version="1.0" encoding="iso-8859-1"?>
<!-- Uploaded to: SVG Repo, www.svgrepo.com, Generator: SVG Repo Mixer Tools -->
<svg height="800px" width="800px" version="1.1" id="Layer_1" xmlns="http://www.w3.org/2000/svg" xmlns:xlink="http://www.w3.org/1999/xlink" 
	 viewBox="0 0 511.787 511.787" xml:space="preserve">
<g transform="translate(0 1)">
	<path style="fill:#FFE100;" d="M443.63,263.32V118.253c-42.667,0-76.8-34.133-76.8-76.8c0-7.68-11.947-16.213-29.013-21.333
		c-60.587-17.067-104.107-17.067-164.693,0c-16.213,5.12-28.16,13.653-28.16,21.333c0,42.667-34.133,76.8-76.8,76.8V263.32
		c0,0-6.827,128.853,187.733,238.933C450.456,392.173,443.63,263.32,443.63,263.32"/>
	<g>
		<path style="fill:#FFA800;" d="M443.63,263.32V118.253c-42.667,0-76.8-34.133-76.8-76.8c0-7.68-11.947-16.213-29.013-21.333
			c-33.28-9.387-61.44-13.653-90.453-12.8c23.04,0.853,46.933,5.12,74.24,12.8c16.213,5.12,28.16,13.653,28.16,21.333
			c0,42.667,34.133,93.867,76.8,93.867v128c0,0,5.973,124.587-179.2,233.813c2.56,1.707,5.973,3.413,8.533,5.12
			C450.456,392.173,443.63,263.32,443.63,263.32"/>
		<path style="fill:#FFA800;" d="M68.163,263.32V118.253c42.667,0,76.8-34.133,76.8-76.8c0-7.68,11.947-16.213,29.013-21.333
			c33.28-9.387,62.293-13.653,90.453-12.8c-23.04,0.853-46.933,5.12-74.24,12.8c-16.213,5.12-28.16,13.653-28.16,21.333
			c0,42.667-34.133,93.867-76.8,93.867v128c0,0-5.973,124.587,179.2,233.813c-2.56,1.707-5.973,3.413-8.533,5.12
			C62.19,391.32,68.163,263.32,68.163,263.32"/>
	</g>
	<path style="fill:#FFE100;" d="M255.896,452.76C111.683,362.307,110.83,268.44,110.83,265.027v-1.707V152.387
		c39.253-15.36,68.267-49.493,75.093-92.16c27.307-6.827,48.64-10.24,69.973-10.24S298.563,53.4,325.87,61.08
		c6.827,41.813,35.84,76.8,75.093,92.16v110.933v0.853C400.963,268.44,400.11,362.307,255.896,452.76"/>
	<path style="fill:#00DA6C;" d="M238.83,263.32c0,44.373-24.747,75.093-24.747,75.093l23.04-4.267l18.773,23.04l18.773-23.04
		l23.04,4.267c0,0-24.747-30.72-24.747-75.093c44.373,0,75.093,24.747,75.093,24.747l-4.267-23.04l23.04-18.773l-23.04-18.773
		l4.267-23.04c0,0-30.72,24.747-75.093,24.747c0-44.373,24.747-75.093,24.747-75.093l-23.04,4.267l-18.773-23.04l-18.773,23.04
		l-23.04-4.267c0,0,24.747,30.72,24.747,75.093c-44.373,0-75.093-24.747-75.093-24.747l4.267,23.04l-23.04,18.773l23.04,18.773
		l-4.267,23.04C163.736,288.067,194.456,263.32,238.83,263.32"/>
	<path d="M255.896,510.787c-1.707,0-2.56,0-4.267-0.853c-196.267-111.787-192-241.493-192-246.613V118.253
		c0-5.12,3.413-8.533,8.533-8.533c37.547,0,68.267-30.72,68.267-68.267c0-14.507,17.92-24.747,34.987-29.013
		c61.44-17.92,106.667-17.92,168.96,0c17.067,4.267,34.987,14.507,34.987,29.013c0,37.547,30.72,68.267,68.267,68.267
		c5.12,0,8.533,3.413,8.533,8.533V263.32c0,8.533,2.56,136.533-192,246.613C258.456,510.787,257.603,510.787,255.896,510.787z
		 M76.696,126.787V263.32c0,1.707-3.413,123.733,179.2,228.693c182.613-104.96,179.2-226.987,179.2-228.693l0,0V126.787
		c-42.667-4.267-76.8-40.96-76.8-85.333c0-1.707-6.827-8.533-22.187-12.8c-59.733-17.067-101.547-17.067-159.573,0
		c-16.213,4.267-23.04,11.093-23.04,12.8C153.496,85.827,119.363,121.667,76.696,126.787z"/>
	<path d="M255.896,461.293c-1.707,0-3.413-0.853-4.267-1.707C103.15,366.573,102.296,268.44,102.296,264.173v-0.853V153.24
		c0-3.413,2.56-6.827,5.12-7.68c36.693-13.653,63.147-46.933,69.973-85.333c0.853-3.413,2.56-5.973,5.973-6.827
		c28.16-8.533,50.347-11.947,72.533-11.947s44.373,3.413,72.533,11.093c3.413,0.853,5.973,3.413,5.973,6.827
		c6.827,38.4,33.28,71.68,69.973,85.333c3.413,0.853,5.12,4.267,5.12,7.68v111.787c0,4.267-0.853,102.4-149.333,194.56
		C259.31,460.44,257.603,461.293,255.896,461.293z M119.363,158.36v104.96v1.707c0,3.413,0.853,90.453,136.533,177.493
		c135.68-87.04,136.533-173.227,136.533-176.64v-0.853V159.213C354.883,143,326.723,108.867,318.19,68.76
		c-47.787-12.8-77.653-12.8-124.587,0C185.07,108.013,156.91,142.147,119.363,158.36z"/>
	<path d="M255.896,365.72c-2.56,0-5.12-0.853-6.827-3.413l-15.36-18.773l-17.92,3.413c-3.413,0.853-6.827-0.853-8.533-4.267
		c-1.707-3.413-1.707-6.827,0.853-9.387c0,0,19.627-24.747,22.187-61.44c-35.84,2.56-60.587,22.187-61.44,22.187
		c-2.56,2.56-6.827,2.56-9.387,0.853c-3.413-1.707-4.267-5.12-4.267-8.533l3.413-17.92l-18.773-15.36
		c-2.56-1.707-3.413-4.267-3.413-6.827c0-2.56,0.853-5.12,3.413-6.827l18.773-15.36l-3.413-17.92
		c-0.853-3.413,0.853-6.827,4.267-8.533c3.413-1.707,6.827-1.707,9.387,0.853c0,0,24.747,19.627,61.44,22.187
		c-2.56-35.84-22.187-60.587-22.187-61.44c-2.56-2.56-2.56-6.827-0.853-9.387c1.707-3.413,5.12-4.267,8.533-4.267l17.92,3.413
		l15.36-18.773c3.413-4.267,10.24-4.267,13.653,0l15.36,18.773l17.92-3.413c3.413-0.853,6.827,0.853,8.533,4.267
		c1.707,3.413,1.707,6.827-0.853,9.387c0,0-19.627,24.747-22.187,61.44c35.84-2.56,60.587-22.187,61.44-22.187
		c2.56-2.56,6.827-2.56,9.387-0.853c3.413,1.707,4.267,5.12,4.267,8.533l-3.413,17.92l18.773,15.36
		c1.707,1.707,3.413,4.267,3.413,6.827c0,2.56-0.853,5.12-3.413,6.827l-18.773,15.36l3.413,17.92
		c0.853,3.413-0.853,6.827-4.267,8.533c-3.413,1.707-6.827,1.707-9.387-0.853c0,0-24.747-19.627-61.44-22.187
		c2.56,35.84,22.187,60.587,22.187,61.44c2.56,2.56,2.56,6.827,0.853,9.387c-1.707,3.413-5.12,4.267-8.533,4.267l-17.92-3.413
		l-15.36,18.773C261.016,364.867,258.456,365.72,255.896,365.72z M237.123,325.613c2.56,0,5.12,0.853,6.827,3.413l11.947,14.507
		l11.947-14.507c1.707-2.56,5.12-3.413,8.533-3.413l4.267,0.853c-7.68-14.507-16.213-36.693-16.213-63.147
		c0-5.12,3.413-8.533,8.533-8.533c26.453,0,48.64,8.533,63.147,15.36l-0.853-4.267c-0.853-3.413,0.853-5.973,3.413-8.533
		l14.507-11.947l-14.507-11.947c-2.56-1.707-3.413-5.12-3.413-8.533l0.853-4.267c-14.507,8.533-36.693,17.067-63.147,17.067
		c-5.12,0-8.533-3.413-8.533-8.533c0-26.453,8.533-48.64,15.36-63.147l-4.267,0.853c-3.413,0.853-5.973-0.853-8.533-3.413
		l-11.093-14.507L243.95,163.48c-1.707,2.56-5.12,3.413-8.533,3.413l-4.267-0.853c7.68,14.507,16.213,36.693,16.213,63.147
		c0,5.12-3.413,8.533-8.533,8.533c-26.453,0-48.64-8.533-63.147-15.36l0.853,4.267c0.853,3.413-0.853,5.973-3.413,8.533
		l-14.507,11.093l14.507,11.947c2.56,1.707,3.413,5.12,3.413,8.533L175.683,271c14.507-7.68,36.693-16.213,63.147-16.213
		c5.12,0,8.533,3.413,8.533,8.533c0,26.453-8.533,48.64-15.36,63.147l4.267-0.853C236.27,325.613,237.123,325.613,237.123,325.613z"
		/>
</g>
</svg>