<?xml version="1.0" encoding="iso-8859-1"?>
<!-- Uploaded to: SVG Repo, www.svgrepo.com, Generator: SVG Repo Mixer Tools -->
<svg fill="#000000" height="800px" width="800px" version="1.1" id="Layer_1" xmlns="http://www.w3.org/2000/svg" xmlns:xlink="http://www.w3.org/1999/xlink" 
	 viewBox="0 0 512.013 512.013" xml:space="preserve">
<g>
	<g>
		<g>
			<path d="M376.308,507.071c0.495-0.414,0.982-0.845,1.45-1.313l106.667-106.667c0.468-0.468,0.899-0.955,1.314-1.45
				c0.062-0.075,0.125-0.15,0.186-0.226c3.219-3.955,4.746-8.675,4.746-13.352c0-0.019,0.003-0.038,0.003-0.057v-256
				c0-0.019-0.003-0.038-0.003-0.057c0-4.677-1.527-9.396-4.746-13.352c-0.061-0.076-0.124-0.151-0.186-0.226
				c-0.414-0.495-0.845-0.982-1.314-1.45L377.758,6.255c-0.468-0.468-0.955-0.899-1.45-1.313c-0.076-0.063-0.151-0.125-0.227-0.187
				c-3.955-3.219-8.673-4.745-13.35-4.745c-0.02,0-0.039-0.003-0.059-0.003H149.34c-0.02,0-0.039,0.003-0.059,0.003
				c-4.676,0-9.395,1.527-13.35,4.745c-0.076,0.062-0.151,0.124-0.227,0.187c-0.495,0.414-0.982,0.845-1.45,1.313L27.588,112.922
				c-0.468,0.468-0.899,0.955-1.313,1.45c-0.063,0.076-0.125,0.151-0.187,0.227c-3.219,3.955-4.745,8.673-4.745,13.35
				c0,0.02-0.003,0.039-0.003,0.059v256c0,0.02,0.003,0.039,0.003,0.059c0,4.676,1.527,9.395,4.745,13.35
				c0.062,0.076,0.124,0.151,0.187,0.227c0.414,0.495,0.845,0.982,1.313,1.45l106.667,106.667c0.468,0.468,0.955,0.899,1.45,1.313
				c0.076,0.063,0.151,0.125,0.227,0.187c3.955,3.219,8.674,4.746,13.351,4.745c0.019,0,0.038,0.003,0.057,0.003h213.333
				c0.019,0,0.038-0.003,0.057-0.003c4.677,0,9.396-1.526,13.351-4.745C376.158,507.197,376.233,507.134,376.308,507.071z
				 M111.091,89.758l30.456-30.456l25.427,63.567l-22.773,22.773l-63.567-25.427L111.091,89.758z M200.852,362.682l-30.178-30.178
				V179.518l30.17-30.17H311.17l30.17,30.17v152.985l-30.179,30.178H200.852z M384.006,185.117l64-25.6v192.98l-64-25.6V185.117z
				 M305.56,106.682h-99.106L180.85,42.673h150.313L305.56,106.682z M128.006,185.117v141.78l-64,25.6v-192.98L128.006,185.117z
				 M206.446,405.348h99.12l25.597,63.991H180.85L206.446,405.348z M370.465,452.711l-25.424-63.561l22.776-22.776l63.561,25.424
				l-30.456,30.456L370.465,452.711z M431.378,120.215l-63.567,25.427l-22.773-22.773l25.427-63.567L431.378,120.215z
				 M80.635,391.798l63.561-25.424l22.776,22.776l-25.424,63.561L80.635,391.798z"/>
			<path d="M484.425,57.758l21.333-21.333c8.331-8.331,8.331-21.839,0-30.17c-8.331-8.331-21.839-8.331-30.17,0l-21.333,21.333
				c-8.331,8.331-8.331,21.839,0,30.17C462.586,66.089,476.094,66.089,484.425,57.758z"/>
			<path d="M484.425,454.255c-8.331-8.331-21.839-8.331-30.17,0s-8.331,21.839,0,30.17l21.333,21.333
				c8.331,8.331,21.839,8.331,30.17,0c8.331-8.331,8.331-21.839,0-30.17L484.425,454.255z"/>
			<path d="M27.588,454.255L6.255,475.588c-8.331,8.331-8.331,21.839,0,30.17c8.331,8.331,21.839,8.331,30.17,0l21.333-21.333
				c8.331-8.331,8.331-21.839,0-30.17C49.427,445.924,35.919,445.924,27.588,454.255z"/>
			<path d="M27.588,57.758c8.331,8.331,21.839,8.331,30.17,0c8.331-8.331,8.331-21.839,0-30.17L36.425,6.255
				c-8.331-8.331-21.839-8.331-30.17,0c-8.331,8.331-8.331,21.839,0,30.17L27.588,57.758z"/>
		</g>
	</g>
</g>
</svg>