<?xml version="1.0" encoding="iso-8859-1"?>
<!-- Uploaded to: SVG Repo, www.svgrepo.com, Generator: SVG Repo Mixer Tools -->
<svg version="1.1" id="Layer_1" xmlns="http://www.w3.org/2000/svg" xmlns:xlink="http://www.w3.org/1999/xlink" 
	 viewBox="0 0 512 512" xml:space="preserve">
<g transform="translate(1 1)">
	<g>
		<path style="fill:#FFE100;" d="M263.533,272.067c-5.12,0-8.533-3.413-8.533-8.533v-51.2c0-5.12,3.413-8.533,8.533-8.533
			c5.12,0,8.533,3.413,8.533,8.533v51.2C272.067,268.653,268.653,272.067,263.533,272.067z"/>
		<path style="fill:#FFE100;" d="M41.667,280.6c-5.12,0-8.533-3.413-8.533-8.533V161.133c0-5.12,3.413-8.533,8.533-8.533
			s8.533,3.413,8.533,8.533v110.933C50.2,277.187,46.787,280.6,41.667,280.6z"/>
		<path style="fill:#FFE100;" d="M485.4,280.6c-5.12,0-8.533-3.413-8.533-8.533V161.133c0-5.12,3.413-8.533,8.533-8.533
			s8.533,3.413,8.533,8.533v110.933C493.933,277.187,490.52,280.6,485.4,280.6z"/>
		<path style="fill:#FFE100;" d="M502.467,109.933c0,56.32-110.933,102.4-247.467,102.4S7.533,166.253,7.533,109.933
			S118.467,7.533,255,7.533S502.467,53.613,502.467,109.933"/>
		<path style="fill:#FFE100;" d="M135.533,314.733c-5.12,0-8.533-3.413-8.533-8.533v-93.867c0-5.12,3.413-8.533,8.533-8.533
			s8.533,3.413,8.533,8.533V306.2C144.067,311.32,140.653,314.733,135.533,314.733z"/>
		<path style="fill:#FFE100;" d="M161.133,263.533h-51.2c-5.12,0-8.533-3.413-8.533-8.533s3.413-8.533,8.533-8.533h51.2
			c5.12,0,8.533,3.413,8.533,8.533S166.253,263.533,161.133,263.533z"/>
		<path style="fill:#FFE100;" d="M391.533,314.733c-5.12,0-8.533-3.413-8.533-8.533v-93.867c0-5.12,3.413-8.533,8.533-8.533
			s8.533,3.413,8.533,8.533V306.2C400.067,311.32,396.653,314.733,391.533,314.733z"/>
		<path style="fill:#FFE100;" d="M417.133,263.533h-51.2c-5.12,0-8.533-3.413-8.533-8.533s3.413-8.533,8.533-8.533h51.2
			c5.12,0,8.533,3.413,8.533,8.533S422.253,263.533,417.133,263.533z"/>
	</g>
	<g>
		<path style="fill:#00DA6C;" d="M451.267,297.667c0,14.507,11.093,25.6,25.6,25.6c14.507,0,25.6-11.093,25.6-25.6
			s-11.093-25.6-25.6-25.6C462.36,272.067,451.267,283.16,451.267,297.667"/>
		<path style="fill:#00DA6C;" d="M58.733,297.667c0,14.507-11.093,25.6-25.6,25.6s-25.6-11.093-25.6-25.6s11.093-25.6,25.6-25.6
			S58.733,283.16,58.733,297.667"/>
	</g>
	<path style="fill:#FFE100;" d="M459.8,109.933c0,37.547-107.52,68.267-204.8,68.267S50.2,147.48,50.2,109.933
		S157.72,41.667,255,41.667S459.8,72.387,459.8,109.933"/>
	<path style="fill:#FFA800;" d="M255,7.533c-2.56,0-5.973,0-8.533,0C379.587,9.24,485.4,54.467,485.4,109.933
		s-105.813,100.693-238.933,102.4c2.56,0,5.973,0,8.533,0c136.533,0,247.467-46.08,247.467-102.4S391.533,7.533,255,7.533"/>
	<path style="fill:#FFFFFF;" d="M255,7.533c2.56,0,5.973,0,8.533,0C130.413,9.24,24.6,54.467,24.6,109.933
		s105.813,100.693,238.933,102.4c-2.56,0-5.973,0-8.533,0c-136.533,0-247.467-46.08-247.467-102.4S118.467,7.533,255,7.533"/>
	<g>
		<path style="fill:#00DA6C;" d="M263.533,314.733h-17.067c-4.267,0-8.533-3.413-8.533-8.533v-34.133
			c0-4.267,3.413-8.533,8.533-8.533h17.067c4.267,0,8.533,3.413,8.533,8.533V306.2C272.067,311.32,268.653,314.733,263.533,314.733"
			/>
		<path style="fill:#00DA6C;" d="M263.533,502.467h-17.067c-4.267,0-8.533-3.413-8.533-8.533V459.8c0-4.267,3.413-8.533,8.533-8.533
			h17.067c4.267,0,8.533,3.413,8.533,8.533v34.133C272.067,499.053,268.653,502.467,263.533,502.467"/>
		<path style="fill:#00DA6C;" d="M323.267,391.533v-17.067c0-4.267,3.413-8.533,8.533-8.533h34.133c4.267,0,8.533,3.413,8.533,8.533
			v17.067c0,4.267-3.413,8.533-8.533,8.533H331.8C326.68,400.067,323.267,396.653,323.267,391.533"/>
		<path style="fill:#00DA6C;" d="M135.533,391.533v-17.067c0-4.267,3.413-8.533,8.533-8.533H178.2c4.267,0,8.533,3.413,8.533,8.533
			v17.067c0,4.267-3.413,8.533-8.533,8.533h-34.133C138.947,400.067,135.533,396.653,135.533,391.533"/>
	</g>
	<path style="fill:#FFE100;" d="M323.267,391.533v-17.067c0-4.267,3.413-8.533,8.533-8.533h15.36
		c-6.827-38.4-36.693-68.267-75.093-75.093v15.36c0,4.267-3.413,8.533-8.533,8.533h-17.067c-4.267,0-8.533-3.413-8.533-8.533v-15.36
		c-38.4,6.827-68.267,36.693-75.093,75.093h15.36c4.267,0,8.533,3.413,8.533,8.533v17.067c0,4.267-3.413,8.533-8.533,8.533h-15.36
		c6.827,38.4,36.693,68.267,75.093,75.093V459.8c0-4.267,3.413-8.533,8.533-8.533h17.067c4.267,0,8.533,3.413,8.533,8.533v15.36
		c38.4-6.827,68.267-36.693,75.093-75.093H331.8C326.68,400.067,323.267,396.653,323.267,391.533"/>
	<path style="fill:#00DA6C;" d="M289.133,383l-13.653,15.36c-11.093,11.093-29.867,11.093-40.96,0L220.867,383l13.653-15.36
		c11.093-11.093,29.867-11.093,40.96,0L289.133,383z"/>
	<path d="M255,220.867c-143.36,0-256-48.64-256-110.933S111.64-1,255-1s256,48.64,256,110.933S398.36,220.867,255,220.867z
		 M255,16.067c-129.707,0-238.933,42.667-238.933,93.867S125.293,203.8,255,203.8s238.933-42.667,238.933-93.867
		S384.707,16.067,255,16.067z"/>
	<rect x="246.467" y="212.333" width="17.067" height="51.2"/>
	<path d="M255,186.733c-87.04,0-213.333-27.307-213.333-76.8S167.96,33.133,255,33.133s213.333,27.307,213.333,76.8
		S342.04,186.733,255,186.733z M255,50.2c-104.107,0-196.267,33.28-196.267,59.733s92.16,59.733,196.267,59.733
		s196.267-33.28,196.267-59.733S359.107,50.2,255,50.2z"/>
	<path d="M263.533,323.267h-17.067c-9.387,0-17.067-7.68-17.067-17.067v-34.133c0-9.387,7.68-17.067,17.067-17.067h17.067
		c9.387,0,17.067,7.68,17.067,17.067V306.2C280.6,315.587,272.92,323.267,263.533,323.267z M263.533,306.2v8.533V306.2
		L263.533,306.2L263.533,306.2z M263.533,272.067h-17.067V306.2h17.067V272.067z"/>
	<path d="M263.533,511h-17.067c-9.387,0-17.067-7.68-17.067-17.067V459.8c0-9.387,7.68-17.067,17.067-17.067h17.067
		c9.387,0,17.067,7.68,17.067,17.067v34.133C280.6,503.32,272.92,511,263.533,511z M263.533,493.933v8.533V493.933L263.533,493.933
		L263.533,493.933z M263.533,459.8h-17.067v34.133h17.067V459.8z"/>
	<path d="M365.933,408.6H331.8c-9.387,0-17.067-7.68-17.067-17.067v-17.067c0-9.387,7.68-17.067,17.067-17.067h34.133
		c9.387,0,17.067,7.68,17.067,17.067v17.067C383,400.92,375.32,408.6,365.933,408.6z M323.267,391.533h8.533l0,0H323.267z
		 M331.8,391.533h34.133v-17.067H331.8V391.533z"/>
	<path d="M178.2,408.6h-34.133c-9.387,0-17.067-7.68-17.067-17.067v-17.067c0-9.387,7.68-17.067,17.067-17.067H178.2
		c9.387,0,17.067,7.68,17.067,17.067v17.067C195.267,400.92,187.587,408.6,178.2,408.6z M135.533,391.533h8.533l0,0H135.533z
		 M144.067,391.533H178.2v-17.067h-34.133V391.533z"/>
	<path d="M255,415.427c-9.387,0-18.773-3.413-26.453-11.093l-13.653-16.213c-2.56-3.413-2.56-7.68,0-11.093l13.653-15.36
		c15.36-15.36,39.253-15.36,53.76-0.853l13.653,16.213c2.56,3.413,2.56,7.68,0,11.093l-13.653,15.36
		C274.627,412.013,264.387,415.427,255,415.427z M231.96,383l8.533,10.24c7.68,7.68,20.48,7.68,29.013-0.853L278.04,383
		l-8.533-10.24c-7.68-7.68-20.48-7.68-29.013,0.853L231.96,383z"/>
	<path d="M263.533,485.4v-25.6h-17.067v25.6l-10.24-1.707c-41.813-7.68-74.24-40.96-81.92-81.92l-1.707-10.24h25.6v-17.067h-25.6
		l1.707-10.24c7.68-41.813,40.96-74.24,81.92-81.92l10.24-1.707v25.6h17.067v-25.6l10.24,1.707c41.813,7.68,74.24,40.96,81.92,81.92
		l1.707,10.24h-25.6v17.067h25.6l-1.707,10.24c-7.68,41.813-40.96,74.24-81.92,81.92L263.533,485.4z M246.467,442.733h17.067
		c9.387,0,17.067,7.68,17.067,17.067v5.12c26.453-8.533,47.787-29.013,55.467-55.467H331.8c-9.387,0-17.067-7.68-17.067-17.067
		V375.32c0-9.387,7.68-17.067,17.067-17.067h5.12c-8.533-26.453-29.013-47.787-55.467-55.467v3.413
		c0,9.387-7.68,17.067-17.067,17.067H247.32c-9.387,0-17.067-7.68-17.067-17.067v-5.12c-26.453,8.533-47.787,29.013-55.467,55.467
		h3.413c9.387,0,17.067,7.68,17.067,17.067v17.067c0,9.387-7.68,17.067-17.067,17.067h-5.12
		c8.533,26.453,29.013,47.787,55.467,55.467V459.8C229.4,450.413,237.08,442.733,246.467,442.733z M323.267,391.533h8.533l0,0
		H323.267z"/>
	<path d="M127,306.2c-5.12,0-8.533-3.413-8.533-8.533V203.8c0-5.12,3.413-8.533,8.533-8.533s8.533,3.413,8.533,8.533v93.867
		C135.533,302.787,132.12,306.2,127,306.2z"/>
	<path d="M152.6,255h-51.2c-5.12,0-8.533-3.413-8.533-8.533c0-5.12,3.413-8.533,8.533-8.533h51.2c5.12,0,8.533,3.413,8.533,8.533
		C161.133,251.587,157.72,255,152.6,255z"/>
	<path d="M33.133,280.6c-5.12,0-8.533-3.413-8.533-8.533V161.133c0-5.12,3.413-8.533,8.533-8.533s8.533,3.413,8.533,8.533v110.933
		C41.667,277.187,38.253,280.6,33.133,280.6z"/>
	<path d="M33.133,331.8C14.36,331.8-1,316.44-1,297.667s15.36-34.133,34.133-34.133s34.133,15.36,34.133,34.133
		S51.907,331.8,33.133,331.8z M33.133,280.6c-9.387,0-17.067,7.68-17.067,17.067s7.68,17.067,17.067,17.067
		s17.067-7.68,17.067-17.067S42.52,280.6,33.133,280.6z"/>
	<path d="M383,306.2c-5.12,0-8.533-3.413-8.533-8.533V203.8c0-5.12,3.413-8.533,8.533-8.533c5.12,0,8.533,3.413,8.533,8.533v93.867
		C391.533,302.787,388.12,306.2,383,306.2z"/>
	<path d="M408.6,255h-51.2c-5.12,0-8.533-3.413-8.533-8.533c0-5.12,3.413-8.533,8.533-8.533h51.2c5.12,0,8.533,3.413,8.533,8.533
		C417.133,251.587,413.72,255,408.6,255z"/>
	<path d="M476.867,280.6c-5.12,0-8.533-3.413-8.533-8.533V161.133c0-5.12,3.413-8.533,8.533-8.533c5.12,0,8.533,3.413,8.533,8.533
		v110.933C485.4,277.187,481.987,280.6,476.867,280.6z"/>
	<path d="M476.867,331.8c-18.773,0-34.133-15.36-34.133-34.133s15.36-34.133,34.133-34.133S511,278.893,511,297.667
		S495.64,331.8,476.867,331.8z M476.867,280.6c-9.387,0-17.067,7.68-17.067,17.067s7.68,17.067,17.067,17.067
		s17.067-7.68,17.067-17.067S486.253,280.6,476.867,280.6z"/>
</g>
</svg>