<?xml version="1.0" encoding="iso-8859-1"?>
<!-- Uploaded to: SVG Repo, www.svgrepo.com, Generator: SVG Repo Mixer Tools -->
<svg fill="#000000" height="800px" width="800px" version="1.1" id="Layer_1" xmlns="http://www.w3.org/2000/svg" xmlns:xlink="http://www.w3.org/1999/xlink" 
	 viewBox="0 0 512 512" xml:space="preserve">
<g>
	<g>
		<path d="M490.7,277.4v-0.1c11.8,0,21.3-9.6,21.3-21.3v-64c0-11.8-9.5-21.3-21.3-21.3H320v-64c11.8,0,21.3-9.6,21.3-21.3
			c0-9-5.7-16.7-13.6-19.8l12.5-37.5c2.2-6.5,1.1-13.7-2.9-19.2C333.3,3.3,326.8,0,320,0H192c-6.8,0-13.3,3.3-17.3,8.9
			c-4,5.6-5.1,12.7-2.9,19.2l12.5,37.5c-7.9,3.1-13.6,10.7-13.6,19.8c0,11.8,9.5,21.3,21.3,21.3v64H21.3C9.5,170.7,0,180.2,0,192v64
			c0,11.8,9.5,21.3,21.3,21.3h21.3v128H21.3C9.5,405.3,0,414.9,0,426.7v64C0,502.4,9.5,512,21.3,512h469.3
			c11.8,0,21.3-9.6,21.3-21.3v-64c0-11.8-9.5-21.3-21.3-21.3h-21.3v-128H490.7z M290.4,42.7L283.3,64h-54.6l-7.1-21.3H290.4z
			 M277.3,277.3V320c0,11.8-9.6,21.3-21.3,21.3s-21.3-9.6-21.3-21.3v-42.7H277.3z M42.7,213.3H192v21.3H42.7V213.3z M469.4,448v21.3
			h-0.1H42.7V448H469.4z M320,234.7v-21.3h149.3v21.3H320z"/>
	</g>
</g>
</svg>