<?xml version="1.0" encoding="iso-8859-1"?>
<!-- Uploaded to: SVG Repo, www.svgrepo.com, Generator: SVG Repo Mixer Tools -->
<svg fill="#000000" height="800px" width="800px" version="1.1" id="Layer_1" xmlns="http://www.w3.org/2000/svg" xmlns:xlink="http://www.w3.org/1999/xlink" 
	 viewBox="0 0 511.995 511.995" xml:space="preserve">
<g>
	<g>
		<path d="M508.414,307.985l-85.3-128c-7.9-11.9-27.6-11.9-35.5,0l-24.9,37.4v-46.9c8.3,0,15.8-4.8,19.3-12.3s2.4-16.4-2.9-22.7
			l-106.7-128c-8.1-9.7-24.7-9.7-32.8,0l-106.7,128c-5.3,6.4-6.4,15.2-2.9,22.7s11,12.3,19.3,12.3v46.9l-24.9-37.4
			c-7.9-11.9-27.6-11.9-35.5,0l-85.3,128c-4.4,6.5-4.8,15-1.1,21.9c3.7,6.9,10.9,11.3,18.8,11.3v149.3c0,11.8,9.5,21.3,21.3,21.3
			h128h64v-85.3c0-11.8,9.5-21.3,21.3-21.3c11.8,0,21.3,9.5,21.3,21.3v85.3h64h128c11.8,0,21.3-9.6,21.3-21.3v-149.4
			c7.9,0,15.1-4.4,18.8-11.3C513.214,322.885,512.814,314.485,508.414,307.985z M149.314,469.085h-85.3v-128h85.3V469.085z
			 M149.414,298.485h-0.1h-88.1l45.5-68.2l42.7,64V298.485z M277.314,319.785c0,11.8-9.5,21.3-21.3,21.3c-11.8,0-21.3-9.6-21.3-21.3
			v-21.3c0-11.8,9.5-21.3,21.3-21.3c11.8,0,21.3,9.5,21.3,21.3V319.785z M277.314,234.485c0,11.8-9.5,21.3-21.3,21.3
			c-11.8,0-21.3-9.6-21.3-21.3v-21.3c0-11.8,9.5-21.3,21.3-21.3c11.8,0,21.3,9.5,21.3,21.3V234.485z M194.914,127.785l61.1-73.3
			l61.1,73.3H194.914z M448.014,469.085h-85.3v-128h85.3V469.085z M362.714,298.485v-4.2l42.7-64l45.5,68.2H362.714z"/>
	</g>
</g>
<g>
	<g>
		<path d="M106.714,362.485c-11.8,0-21.3,9.6-21.3,21.3v21.3c-0.1,11.8,9.5,21.4,21.3,21.4s21.3-9.6,21.3-21.3v-21.4
			C128.014,371.985,118.514,362.485,106.714,362.485z"/>
	</g>
</g>
<g>
	<g>
		<path d="M405.314,362.485c-11.8,0-21.3,9.6-21.3,21.3v21.3c0,11.8,9.5,21.4,21.3,21.4s21.3-9.6,21.3-21.3v-21.4
			C426.613,371.985,417.113,362.485,405.314,362.485z"/>
	</g>
</g>
</svg>