<?xml version="1.0" encoding="iso-8859-1"?>
<!-- Uploaded to: SVG Repo, www.svgrepo.com, Generator: SVG Repo Mixer Tools -->
<svg height="800px" width="800px" version="1.1" id="Layer_1" xmlns="http://www.w3.org/2000/svg" xmlns:xlink="http://www.w3.org/1999/xlink" 
	 viewBox="0 0 511.999 511.999" xml:space="preserve">
<g>
	<g>
		<path style="fill:#BF372C;" d="M82.44,511.999c-4.79,0-8.678-3.888-8.678-8.678V425.22c0-4.79,3.888-8.678,8.678-8.678
			s8.678,3.888,8.678,8.678v78.102C91.118,508.112,87.23,511.999,82.44,511.999"/>
		<path style="fill:#BF372C;" d="M117.152,511.999c-4.79,0-8.678-3.888-8.678-8.678v-60.746c0-4.79,3.888-8.678,8.678-8.678
			s8.678,3.888,8.678,8.678v60.746C125.83,508.112,121.942,511.999,117.152,511.999"/>
		<path style="fill:#BF372C;" d="M151.864,511.999c-4.79,0-8.678-3.888-8.678-8.678v-43.39c0-4.79,3.888-8.678,8.678-8.678
			s8.678,3.888,8.678,8.678v43.39C160.542,508.112,156.654,511.999,151.864,511.999"/>
		<path style="fill:#BF372C;" d="M186.576,511.999c-4.79,0-8.678-3.888-8.678-8.678v-26.034c0-4.79,3.888-8.678,8.678-8.678
			s8.678,3.888,8.678,8.678v26.034C195.254,508.112,191.366,511.999,186.576,511.999"/>
		<path style="fill:#BF372C;" d="M360.135,511.999c-4.79,0-8.678-3.888-8.678-8.678V425.22c0-4.79,3.888-8.678,8.678-8.678
			s8.678,3.888,8.678,8.678v78.102C368.813,508.112,364.925,511.999,360.135,511.999"/>
		<path style="fill:#BF372C;" d="M325.423,511.999c-4.79,0-8.678-3.888-8.678-8.678v-60.746c0-4.79,3.888-8.678,8.678-8.678
			s8.678,3.888,8.678,8.678v60.746C334.101,508.112,330.213,511.999,325.423,511.999"/>
		<path style="fill:#BF372C;" d="M290.711,511.999c-4.79,0-8.678-3.888-8.678-8.678v-43.39c0-4.79,3.888-8.678,8.678-8.678
			s8.678,3.888,8.678,8.678v43.39C299.389,508.112,295.502,511.999,290.711,511.999"/>
		<path style="fill:#BF372C;" d="M256,511.999c-4.79,0-8.678-3.888-8.678-8.678v-26.034c0-4.79,3.888-8.678,8.678-8.678
			s8.678,3.888,8.678,8.678v26.034C264.677,508.112,260.79,511.999,256,511.999"/>
	</g>
	<g>
		<polygon style="fill:#F0C419;" points="143.186,130.169 299.389,130.169 299.389,78.101 143.186,78.101 		"/>
		<path style="fill:#F0C419;" d="M494.872,7.558L494.872,7.558c0-6.725-8.001-10.092-12.661-5.32l-45.776,46.8
			c-18.154,18.319-42.687,28.924-68.252,29.063h-8.044v52.068h8.044c25.565-0.139,50.098,10.743,68.252,29.063l45.776,46.8
			c4.66,4.773,12.661,1.406,12.661-5.32C511.924,137.458,511.924,70.812,494.872,7.558"/>
		<polygon style="fill:#F0C419;" points="47.728,130.169 82.44,130.169 82.44,78.101 47.728,78.101 		"/>
	</g>
	<g>
		<polygon style="fill:#BA941C;" points="4.339,138.847 47.728,130.169 47.728,78.101 4.339,69.423 		"/>
		<path style="fill:#BA941C;" d="M472.957,164.881c-3.185,0-6.248-1.753-7.775-4.799c-3.237-6.474-11.533-18.927-16.132-24.22
			c-3.15-3.61-2.768-9.094,0.85-12.236c3.61-3.159,9.094-2.768,12.236,0.85c5.615,6.448,14.64,19.977,18.579,27.848
			c2.143,4.278,0.399,9.494-3.888,11.646C475.587,164.586,474.259,164.881,472.957,164.881"/>
		<polygon style="fill:#BA941C;" points="186.576,130.169 256,130.169 256,78.101 186.576,78.101 		"/>
	</g>
	<path style="fill:#E64C3C;" d="M221.288,503.322L73.762,425.22V47.78c0-7.22,5.849-13.069,13.069-13.069h43.286
		c7.22,0,13.069,5.849,13.069,13.069v73.711c0,42.956,35.146,78.102,78.102,78.102l0,0c42.956,0,78.102-35.146,78.102-78.102V47.78
		c0-7.22,5.849-13.069,13.069-13.069h43.286c7.22,0,13.069,5.849,13.069,13.069V425.22L221.288,503.322z"/>
	<path style="fill:#F0C419;" d="M203.932,355.796c0,41.758-21.695,69.424-21.695,69.424l21.695-4.339l17.356,21.695l17.356-21.695
		l21.695,4.339c0,0-21.695-27.665-21.695-69.424c41.767,0,69.424,21.695,69.424,21.695l-4.339-21.695l21.695-17.356l-21.695-17.356
		l4.339-21.695c0,0-27.657,21.695-69.424,21.695c0-41.767,21.695-69.424,21.695-69.424l-21.695,4.339l-17.356-21.695l-17.356,21.695
		l-21.695-4.339c0,0,21.695,27.657,21.695,69.424c-41.758,0-69.424-21.695-69.424-21.695l4.339,21.695l-21.695,17.356l21.695,17.356
		l-4.339,21.695C134.508,377.491,162.173,355.796,203.932,355.796"/>
</g>
</svg>