<?xml version="1.0" encoding="iso-8859-1"?>
<!-- Uploaded to: SVG Repo, www.svgrepo.com, Generator: SVG Repo Mixer Tools -->
<svg fill="#000000" height="800px" width="800px" version="1.1" id="Layer_1" xmlns="http://www.w3.org/2000/svg" xmlns:xlink="http://www.w3.org/1999/xlink" 
	 viewBox="0 0 512 512" xml:space="preserve">
<g>
	<g>
		<path d="M477.803,234.677h-11.413c-1.37-0.001-1.37-0.001-2.752-0.004c-18.364-0.036-25.32,0.464-34.573,4.095
			c-15.803,6.2-24.478,20.034-24.478,38.576c0,31.742-26.074,64-51.499,64h-97.079v-42.667h64c8.711,0,16.547-5.296,19.795-13.379
			l1.877-4.672c28.222-70.591,28.222-149.307,0.014-219.863l-1.891-4.706c-3.248-8.083-11.084-13.379-19.795-13.379h-64V21.344
			c0-11.782-9.551-21.333-21.333-21.333c-11.782,0-21.333,9.551-21.333,21.333v21.333h-64c-15.107,0-25.428,15.27-19.795,29.287
			l1.877,4.672c24.13,60.353,24.13,127.728-0.014,188.116l-1.864,4.637c-5.633,14.018,4.688,29.288,19.795,29.288h64v42.667H90.304
			c1.024,0-3.153-4.004-6.223-9.88c-0.946-1.808-1.991-3.783-3.125-5.911c-3.4-6.371-6.467-12.024-8.524-15.783
			c-3.743-6.839-10.918-11.093-18.715-11.093H21.333C9.551,298.677,0,308.229,0,320.011v114.005
			c0,43.093,34.889,77.973,77.973,77.973h307.499c56.834,0,105.195-46.029,105.195-102.229v-61.496
			C503.151,343.4,512,331.268,512,317.067v-48.213C512,249.98,496.68,234.677,477.803,234.677z M305.388,85.344
			c19.73,55.148,19.733,115.488-0.001,170.667h-40.433c0.133-0.443,0.256-0.887,0.387-1.33c0.197-0.665,0.389-1.331,0.581-1.997
			c0.427-1.48,0.84-2.962,1.243-4.447c0.167-0.615,0.337-1.229,0.5-1.844c0.544-2.056,1.071-4.116,1.57-6.181
			c0.026-0.107,0.049-0.215,0.075-0.322c0.472-1.962,0.919-3.928,1.35-5.897c0.14-0.64,0.273-1.282,0.409-1.923
			c0.316-1.492,0.621-2.985,0.914-4.48c0.131-0.667,0.262-1.333,0.388-2.001c0.326-1.726,0.635-3.454,0.93-5.184
			c0.063-0.37,0.132-0.738,0.194-1.108c0.347-2.083,0.668-4.17,0.97-6.259c0.083-0.571,0.157-1.144,0.236-1.715
			c0.215-1.554,0.42-3.108,0.61-4.664c0.085-0.691,0.167-1.382,0.247-2.073c0.181-1.568,0.347-3.138,0.503-4.708
			c0.055-0.559,0.116-1.118,0.169-1.677c0.196-2.097,0.371-4.195,0.522-6.294c0.03-0.414,0.051-0.829,0.079-1.243
			c0.115-1.706,0.217-3.412,0.303-5.12c0.034-0.682,0.064-1.365,0.093-2.047c0.066-1.517,0.119-3.035,0.162-4.553
			c0.018-0.644,0.039-1.287,0.053-1.931c0.045-2.088,0.074-4.177,0.074-6.266c0-0.024,0.001-0.048,0.001-0.071
			c0-2.11-0.029-4.22-0.074-6.329c-0.014-0.641-0.035-1.282-0.052-1.924c-0.042-1.52-0.096-3.039-0.161-4.558
			c-0.03-0.683-0.059-1.366-0.093-2.049c-0.085-1.699-0.186-3.397-0.301-5.095c-0.029-0.422-0.05-0.845-0.081-1.267
			c-0.151-2.1-0.326-4.199-0.522-6.297c-0.051-0.551-0.112-1.102-0.166-1.653c-0.156-1.577-0.323-3.154-0.505-4.729
			c-0.08-0.691-0.162-1.382-0.247-2.073c-0.19-1.55-0.393-3.099-0.608-4.647c-0.08-0.577-0.155-1.155-0.238-1.732
			c-0.302-2.089-0.623-4.175-0.97-6.258c-0.06-0.358-0.127-0.715-0.188-1.073c-0.296-1.739-0.607-3.476-0.934-5.21
			c-0.126-0.67-0.258-1.339-0.389-2.008c-0.292-1.49-0.596-2.978-0.91-4.465c-0.137-0.646-0.271-1.292-0.412-1.937
			c-0.425-1.942-0.866-3.881-1.331-5.816c-0.032-0.134-0.061-0.268-0.093-0.401c-0.499-2.065-1.026-4.124-1.57-6.18
			c-0.161-0.609-0.33-1.216-0.495-1.825c-0.404-1.49-0.82-2.978-1.248-4.464c-0.191-0.664-0.383-1.327-0.579-1.99
			c-0.133-0.449-0.258-0.9-0.393-1.349H305.388z M179.623,85.344h40.412c0.178,0.497,0.36,0.992,0.534,1.49
			c0.272,0.775,0.541,1.551,0.805,2.328c0.363,1.067,0.716,2.136,1.064,3.207c0.251,0.772,0.502,1.543,0.745,2.317
			c0.345,1.099,0.678,2.2,1.009,3.302c0.223,0.746,0.45,1.491,0.667,2.238c0.339,1.172,0.663,2.348,0.985,3.524
			c0.186,0.68,0.379,1.359,0.56,2.04c0.369,1.393,0.719,2.791,1.064,4.189c0.115,0.466,0.239,0.929,0.351,1.395
			c0.449,1.866,0.877,3.737,1.284,5.61c0.095,0.439,0.179,0.88,0.272,1.319c0.303,1.435,0.601,2.872,0.879,4.311
			c0.132,0.685,0.252,1.371,0.378,2.057c0.221,1.198,0.441,2.395,0.644,3.595c0.129,0.763,0.248,1.526,0.37,2.29
			c0.181,1.128,0.359,2.257,0.525,3.386c0.117,0.795,0.225,1.592,0.334,2.388c0.151,1.104,0.297,2.209,0.433,3.314
			c0.1,0.808,0.194,1.616,0.286,2.424c0.125,1.102,0.242,2.205,0.353,3.309c0.081,0.806,0.16,1.612,0.233,2.418
			c0.101,1.119,0.192,2.239,0.278,3.359c0.061,0.787,0.124,1.574,0.177,2.361c0.079,1.165,0.144,2.33,0.207,3.496
			c0.04,0.742,0.086,1.484,0.119,2.227c0.058,1.287,0.098,2.575,0.137,3.862c0.018,0.618,0.046,1.237,0.059,1.855
			c0.043,1.907,0.067,3.814,0.067,5.721c0,0.031-0.001,0.062-0.001,0.094c-0.001,1.874-0.024,3.748-0.067,5.622
			c-0.014,0.63-0.042,1.259-0.061,1.889c-0.038,1.277-0.078,2.554-0.136,3.83c-0.034,0.747-0.079,1.494-0.12,2.24
			c-0.063,1.16-0.127,2.321-0.206,3.48c-0.054,0.791-0.116,1.581-0.178,2.371c-0.086,1.118-0.177,2.235-0.278,3.352
			c-0.073,0.808-0.153,1.615-0.234,2.423c-0.111,1.102-0.228,2.204-0.353,3.305c-0.092,0.809-0.187,1.618-0.287,2.427
			c-0.136,1.105-0.282,2.209-0.433,3.313c-0.109,0.797-0.218,1.594-0.334,2.391c-0.165,1.13-0.344,2.258-0.525,3.386
			c-0.122,0.764-0.241,1.528-0.37,2.291c-0.204,1.204-0.425,2.405-0.647,3.607c-0.126,0.682-0.245,1.365-0.376,2.046
			c-0.282,1.462-0.585,2.92-0.893,4.378c-0.088,0.418-0.168,0.837-0.259,1.255c-0.406,1.872-0.834,3.74-1.282,5.605
			c-0.122,0.505-0.255,1.007-0.38,1.512c-0.336,1.36-0.676,2.72-1.035,4.076c-0.184,0.696-0.382,1.39-0.572,2.084
			c-0.318,1.161-0.638,2.322-0.973,3.48c-0.219,0.757-0.449,1.512-0.675,2.267c-0.328,1.094-0.658,2.186-1.001,3.277
			c-0.245,0.779-0.497,1.556-0.75,2.332c-0.347,1.067-0.699,2.132-1.06,3.195c-0.266,0.782-0.536,1.562-0.809,2.342
			c-0.172,0.489-0.351,0.977-0.525,1.465H179.62C196.371,200.352,196.369,140.981,179.623,85.344z M469.333,309.077
			C455.187,313.054,448,326.366,448,341.344v68.416c0,32.151-28.8,59.563-62.528,59.563H77.973
			c-19.523,0-35.307-15.78-35.307-35.307v-89.588c0.109,0.203,0.217,0.406,0.326,0.61l0.311,0.583
			c1.087,2.04,2.083,3.923,2.969,5.616c9.712,18.586,24.511,32.774,44.032,32.774h262.784c51.056,0,93.878-52.767,94.164-106.128
			c2.839-0.396,7.667-0.559,16.302-0.542c1.396,0.003,1.396,0.003,2.835,0.004h2.944V309.077z"/>
	</g>
</g>
</svg>