<?xml version="1.0" encoding="iso-8859-1"?>
<!-- Uploaded to: SVG Repo, www.svgrepo.com, Generator: SVG Repo Mixer Tools -->
<svg fill="#000000" height="800px" width="800px" version="1.1" id="Layer_1" xmlns="http://www.w3.org/2000/svg" xmlns:xlink="http://www.w3.org/1999/xlink" 
	 viewBox="0 0 512.017 512.017" xml:space="preserve">
<g>
	<g>
		<g>
			<path d="M320.008,149.099h-42.667v-42.667c0-11.782-9.551-21.333-21.333-21.333c-11.782,0-21.333,9.551-21.333,21.333v42.667
				h-42.667c-11.782,0-21.333,9.551-21.333,21.333c0,11.782,9.551,21.333,21.333,21.333h42.667v85.333
				c0,11.782,9.551,21.333,21.333,21.333c11.782,0,21.333-9.551,21.333-21.333v-85.333h42.667c11.782,0,21.333-9.551,21.333-21.333
				C341.342,158.65,331.79,149.099,320.008,149.099z"/>
			<path d="M496.291,43.185l-77.483-21.141C312.218-7.013,199.799-7.013,93.214,22.042L15.726,43.185
				C3.543,46.509-3.101,59.63,1.428,71.417C56.167,213.877,134.182,361.53,239.892,503.191c8.541,11.446,25.697,11.431,34.218-0.03
				C378.568,362.665,454.258,217.814,510.585,71.427C515.122,59.637,508.477,46.51,496.291,43.185z M256.956,454.32
				C167.667,330.497,99.629,202.453,49.875,78.094l54.565-14.888c99.234-27.051,203.903-27.051,303.142,0.001l54.566,14.889
				C411.315,205.507,345.068,331.595,256.956,454.32z"/>
		</g>
	</g>
</g>
</svg>