<?xml version="1.0" encoding="iso-8859-1"?>
<!-- Uploaded to: SVG Repo, www.svgrepo.com, Generator: SVG Repo Mixer Tools -->
<svg fill="#000000" height="800px" width="800px" version="1.1" id="Layer_1" xmlns="http://www.w3.org/2000/svg" xmlns:xlink="http://www.w3.org/1999/xlink" 
	 viewBox="0 0 512 512" xml:space="preserve">
<g>
	<g>
		<path d="M490.667,426.667h-33.83L414.17,384h12.492c11.782,0,21.333-9.551,21.333-21.333s-9.551-21.333-21.333-21.333h-55.159
			l-94.656-94.656L392.95,130.575c0.285,0.185,0.558,0.366,0.815,0.542l4.552,2.732l2.372,1.201
			c37.082,15.948,61.131,14.622,88.675,0.76c23.666-11.857,28.063-43.836,8.244-61.53c-11.167-9.937-26.967-12.125-40.487-6.122
			c-10.768,4.782-15.621,17.387-10.84,28.155c1.312,2.954,3.212,5.462,5.501,7.449c-8.92,0.937-18.599-1.286-33.039-7.396
			l-2.132-1.252c-6.166-4.28-17.937-10.393-35.97-16.558c-36.06-12.329-80.712-18.385-134.087-15.007
			c-1.695,0.107-3.282,0.363-4.759,0.749c-2.894,0.629-5.457,1.277-8.303,2.103c-7.866,2.281-16.573,5.519-25.949,9.888
			c-20.187,9.404-40.652,22.682-60.713,40.374L72.837,42.667h33.83c11.782,0,21.333-9.551,21.333-21.333
			C128,9.551,118.449,0,106.667,0H21.333c0,0-0.001,0-0.001,0c-0.702,0-1.405,0.037-2.104,0.106
			c-0.316,0.031-0.622,0.09-0.933,0.135c-0.377,0.054-0.755,0.098-1.13,0.172c-0.358,0.071-0.705,0.169-1.056,0.258
			c-0.323,0.081-0.648,0.152-0.968,0.249c-0.345,0.104-0.678,0.234-1.015,0.355c-0.319,0.115-0.641,0.22-0.956,0.35
			c-0.315,0.131-0.618,0.284-0.925,0.43c-0.323,0.152-0.65,0.296-0.967,0.466c-0.295,0.158-0.575,0.338-0.862,0.509
			C10.106,3.215,9.791,3.39,9.488,3.593c-0.317,0.212-0.615,0.448-0.92,0.676C8.316,4.458,8.057,4.633,7.812,4.835
			C6.725,5.727,5.727,6.725,4.835,7.812C4.633,8.057,4.458,8.316,4.269,8.569c-0.228,0.305-0.464,0.603-0.676,0.92
			c-0.203,0.303-0.378,0.617-0.564,0.928c-0.171,0.286-0.351,0.567-0.509,0.862c-0.17,0.317-0.313,0.643-0.466,0.967
			c-0.145,0.307-0.299,0.61-0.43,0.925c-0.13,0.315-0.235,0.636-0.35,0.956c-0.121,0.337-0.25,0.67-0.355,1.015
			c-0.097,0.32-0.168,0.645-0.249,0.968c-0.089,0.351-0.187,0.698-0.258,1.056c-0.074,0.375-0.118,0.753-0.172,1.13
			c-0.044,0.311-0.104,0.618-0.135,0.933C0.037,19.928,0,20.63,0,21.333v85.333C0,118.449,9.551,128,21.333,128
			c11.782,0,21.333-9.551,21.333-21.333v-33.83l73.302,73.302c-21.954,22.443-37.534,46.848-47.09,71.411
			c-7.048,18.118-9.406,31.411-9.844,41.91c-3.386,53.514,2.486,98.04,14.545,133.478c5.459,16.042,11.151,27.446,15.728,34.41
			c4.494,10.63,6.854,18.02,7.373,24.105c-1.28-1.305-2.749-2.465-4.398-3.439c-10.146-5.99-23.227-2.621-29.216,7.525
			c-7.951,13.468-5.915,30.469,4.592,41.888l2.353,2.547c15.408,17.3,43.729,15.271,56.347-4.811
			c16.044-25.521,18.063-47.724,1.338-86.561l-2.297-4.05c-0.666-0.923-1.496-2.26-2.441-3.989l123.718-123.718l94.656,94.656
			v55.163c0,11.782,9.551,21.333,21.333,21.333S384,438.449,384,426.667V414.17l42.667,42.667v33.83
			c0,11.782,9.551,21.333,21.333,21.333c11.782,0,21.333-9.551,21.333-21.333v-21.333h21.333c11.782,0,21.333-9.551,21.333-21.333
			C512,436.218,502.449,426.667,490.667,426.667z M225.561,114.963c7.353-3.426,14.01-5.901,19.816-7.585
			c1.916-0.556,3.556-0.971,4.909-1.266c38.836-2.377,71.735,0.743,99.12,7.666l-102.73,102.73l-69.586-69.586
			C193.647,132.652,209.821,122.296,225.561,114.963z M107.47,355.714c-5.754-26.098-8.147-57.332-5.83-94.022
			c0.097-2.216,0.252-3.881,0.88-7.422c1.117-6.294,3.083-13.442,6.122-21.253c7.366-18.934,19.508-38.098,37.511-56.694
			l70.354,70.354L107.47,355.714z"/>
	</g>
</g>
</svg>