<?xml version="1.0" encoding="iso-8859-1"?>
<!-- Uploaded to: SVG Repo, www.svgrepo.com, Generator: SVG Repo Mixer Tools -->
<svg height="800px" width="800px" version="1.1" id="Layer_1" xmlns="http://www.w3.org/2000/svg" xmlns:xlink="http://www.w3.org/1999/xlink" 
	 viewBox="0 0 504.404 504.404" xml:space="preserve">
<g>
	<g>
		<path style="fill:#ECF0F1;" d="M213.332,1.108c19.121,52.559,26.801,110.521,6.241,131.081l-12.482,12.482l43.697,43.697
			l12.482-12.482c20.198-20.198,72.28-19.121,124.84,0c0,0,12.094-75.29-43.697-131.081S213.332,1.108,213.332,1.108"/>
		<path style="fill:#ECF0F1;" d="M144.669,207.094l-12.482,12.482c-20.559,20.559-78.521,12.879-131.081-6.241
			c0,0-12.094,75.299,43.688,131.081c55.79,55.79,131.09,43.697,131.09,43.697c-19.129-52.559-20.198-104.642,0-124.84
			l12.482-12.482L144.669,207.094z"/>
	</g>
	<path style="fill:#FFFFFF;" d="M125.957,347.01c-0.786,0-1.58-0.106-2.366-0.327c-14.636-4.052-36.758-10.161-53.822-27.233
		c-17.073-17.073-23.19-39.186-27.233-53.822c-1.306-4.696,1.457-9.569,6.153-10.867c4.661-1.28,9.56,1.457,10.867,6.162
		c3.761,13.621,8.916,32.265,22.696,46.045c13.771,13.771,32.433,18.935,46.054,22.705c4.696,1.298,7.45,6.162,6.153,10.858
		C133.372,344.441,129.814,347.01,125.957,347.01"/>
	<polygon style="fill:#D69C77;" points="300.721,263.273 263.265,300.728 225.819,263.273 263.265,225.818 	"/>
	<polygon style="fill:#ECF0F1;" points="100.978,150.917 150.916,150.917 150.916,100.98 100.978,100.98 	"/>
	<polygon style="fill:#D69C77;" points="375.626,338.178 338.17,375.633 300.723,338.178 338.17,300.722 	"/>
	<g>
		<polygon style="fill:#BD8366;" points="338.173,300.725 300.717,338.18 263.271,338.18 263.271,300.725 300.717,263.269 
			338.173,263.269 		"/>
		<polygon style="fill:#BD8366;" points="413.077,375.63 375.622,413.085 338.175,413.085 338.175,375.63 375.622,338.174 
			413.077,338.174 		"/>
	</g>
	<path style="fill:#D69C77;" d="M502.768,473.201l-29.572,29.572c-2.172,2.172-5.703,2.172-7.883,0l-89.688-89.688l37.455-37.455
		l89.688,89.688C504.949,467.498,504.949,471.021,502.768,473.201"/>
	<polygon style="fill:#BDC3C7;" points="275.753,213.337 213.333,275.757 119.699,182.123 182.119,119.703 	"/>
	<path style="fill:#FFFFFF;" d="M338.163,134.781c-3.858,0-7.415-2.569-8.501-6.471c-3.778-13.639-8.951-32.309-22.696-46.054
		c-13.798-13.789-32.441-18.944-46.054-22.705c-4.696-1.298-7.459-6.162-6.153-10.858c1.298-4.705,6.206-7.433,10.858-6.162
		c14.627,4.043,36.74,10.161,53.831,27.242c17.046,17.037,23.172,39.168,27.233,53.813c1.298,4.705-1.457,9.569-6.153,10.867
		C339.743,134.675,338.949,134.781,338.163,134.781"/>
</g>
</svg>