<?xml version="1.0" encoding="iso-8859-1"?>
<!-- Uploaded to: SVG Repo, www.svgrepo.com, Generator: SVG Repo Mixer Tools -->
<svg height="800px" width="800px" version="1.1" id="Layer_1" xmlns="http://www.w3.org/2000/svg" xmlns:xlink="http://www.w3.org/1999/xlink" 
	 viewBox="0 0 512 512" xml:space="preserve">
<g transform="translate(1 1)">
	<polygon style="fill:#FDCC00;" points="220.867,370.2 255,370.2 255,327.533 220.867,327.533 	"/>
	<g>
		<path style="fill:#FFE100;" d="M272.067,327.533c56.32-56.32,58.027-150.187,0-204.8h-51.2c58.027,54.613,56.32,148.48,0,204.8
			H272.067z"/>
		<path style="fill:#FFE100;" d="M331.8,327.533c56.32-56.32,58.027-150.187,0-204.8H109.933c58.027,54.613,56.32,148.48,0,204.8
			H331.8z"/>
	</g>
	<path style="fill:#FFA800;" d="M331.8,122.733h-25.6c58.027,54.613,56.32,148.48,0,204.8h25.6
		C388.12,271.213,389.827,177.347,331.8,122.733"/>
	<path style="fill:#FFE100;" d="M220.867,327.533c56.32-56.32,58.027-150.187,0-204.8h-51.2c58.027,54.613,56.32,148.48,0,204.8
		H220.867z"/>
	<path style="fill:#63D3FD;" d="M229.4,20.333v51.2c-14.507-11.947-37.547-11.093-51.2,0s-36.693,11.947-51.2,0v-51.2
		c14.507,11.947,37.547,11.093,51.2,0S214.893,8.387,229.4,20.333"/>
	<path style="fill:#3DB9F9;" d="M195.267,12.653c5.973,0.853,11.947,3.413,17.067,7.68v43.52c5.973,0.853,11.947,3.413,17.067,7.68
		v-51.2C220.013,12.653,207.213,10.093,195.267,12.653"/>
	<path style="fill:#FFE100;" d="M488.813,250.733h-11.947c-23.893,0-42.667,18.773-42.667,42.667c0,42.667-34.133,76.8-76.8,76.8
		H80.067c-11.093,0-21.333-6.827-26.453-16.213c-5.12-10.24-11.947-17.92-11.947-17.92H7.533v102.4
		c0,33.28,26.453,59.733,59.733,59.733h324.267c46.933,0,85.333-38.4,85.333-85.333V306.2c0-6.827,5.973-12.8,12.8-12.8
		s12.8-5.973,12.8-12.8v-16.213C502.467,256.707,496.493,250.733,488.813,250.733"/>
	<path style="fill:#FFFFFF;" d="M33.133,438.467v-102.4h-25.6v102.4c0,33.28,26.453,59.733,59.733,59.733h25.6
		C59.587,498.2,33.133,471.747,33.133,438.467"/>
	<path style="fill:#FFA800;" d="M488.813,250.733h-11.947h-0.853c0.853,1.707,0.853,3.413,0.853,5.12v16.213
		c0,6.827-5.973,12.8-12.8,12.8s-12.8,5.973-12.8,12.8v106.667c0,46.933-38.4,85.333-85.333,85.333H41.667c-1.707,0-3.413,0-5.12,0
		c9.387,5.973,19.627,8.533,30.72,8.533h324.267c46.933,0,85.333-38.4,85.333-85.333V306.2c0-6.827,5.973-12.8,12.8-12.8
		s12.8-5.973,12.8-12.8v-16.213C502.467,256.707,496.493,250.733,488.813,250.733"/>
	<g>
		<path style="fill:#00DA6C;" d="M106.52,457.24c-8.533,8.533-20.48,9.387-27.307,3.413c-6.827-6.827-5.12-18.773,3.413-27.307
			c8.533-8.533,20.48-9.387,27.307-3.413C116.76,436.76,115.053,448.707,106.52,457.24"/>
		<path style="fill:#00DA6C;" d="M277.187,457.24c-8.533,8.533-20.48,9.387-27.307,3.413c-6.827-6.827-5.12-18.773,3.413-27.307
			c8.533-8.533,20.48-9.387,27.307-3.413C286.573,436.76,285.72,448.707,277.187,457.24"/>
		<path style="fill:#00DA6C;" d="M362.52,457.24c-8.533,8.533-20.48,9.387-27.307,3.413c-6.827-6.827-5.12-18.773,3.413-27.307
			c8.533-8.533,20.48-9.387,27.307-3.413C371.907,436.76,371.053,448.707,362.52,457.24"/>
		<path style="fill:#00DA6C;" d="M191.853,457.24c-8.533,8.533-20.48,9.387-27.307,3.413c-6.827-6.827-5.12-18.773,3.413-27.307
			c8.533-8.533,20.48-9.387,27.307-3.413C201.24,436.76,200.387,448.707,191.853,457.24"/>
	</g>
	<path d="M391.533,506.733H67.267C29.72,506.733-1,476.013-1,438.467V327.533h46.08l2.56,2.56c0,0,7.68,8.533,13.653,19.627
		c4.267,7.68,11.093,11.947,18.773,11.947H357.4c37.547,0,68.267-30.72,68.267-68.267c0-28.16,23.04-51.2,51.2-51.2h11.947
		c11.947,0,22.187,10.24,22.187,22.187V280.6c0,11.947-9.387,21.333-21.333,21.333c-2.56,0-4.267,1.707-4.267,4.267v106.667
		C485.4,464.92,443.587,506.733,391.533,506.733z M16.067,344.6v93.867c0,28.16,23.04,51.2,51.2,51.2h324.267
		c42.667,0,76.8-34.133,76.8-76.8V306.2c0-11.947,9.387-21.333,21.333-21.333c2.56,0,4.267-1.707,4.267-4.267v-16.213
		c0-2.56-2.56-5.12-5.12-5.12h-11.947c-18.773,0-34.133,15.36-34.133,34.133c0,46.933-38.4,85.333-85.333,85.333H80.067
		c-14.507,0-27.307-7.68-34.133-21.333c-2.56-5.12-5.973-10.24-8.533-12.8H16.067z"/>
	<path d="M275.48,336.067h-75.093l14.507-14.507c26.453-26.453,40.96-62.293,40.107-98.987c-0.853-35.84-14.507-69.12-40.107-93.013
		l-15.36-15.36h75.947l2.56,2.56c29.013,27.307,45.227,64.853,45.227,105.813c0.853,41.813-16.213,81.92-45.227,111.787
		L275.48,336.067z M239.64,319h29.013c24.747-25.6,38.4-60.587,37.547-96.427c-0.853-34.987-13.653-66.56-37.547-91.307h-28.16
		c20.48,25.6,31.573,57.173,31.573,90.453C272.92,256.707,260.973,291.693,239.64,319z"/>
	<path d="M331.8,336.067H109.933c-3.413,0-6.827-1.707-7.68-5.12c-0.853-3.413-0.853-6.827,1.707-9.387
		c26.453-26.453,40.96-62.293,40.107-98.987c-0.853-35.84-14.507-69.12-40.107-93.013c-2.56-2.56-3.413-5.973-1.707-9.387
		s4.267-5.973,7.68-5.973H331.8c2.56,0,4.267,0.853,5.973,2.56C366.787,144.067,383,181.613,383,222.573
		c0.853,41.813-16.213,81.92-45.227,111.787C336.067,335.213,334.36,336.067,331.8,336.067z M128.707,319h199.68
		c24.747-25.6,38.4-60.587,37.547-96.427c-0.853-34.987-13.653-66.56-37.547-91.307H129.56c20.48,25.6,31.573,57.173,31.573,90.453
		C161.987,256.707,150.04,291.693,128.707,319z"/>
	<path d="M224.28,336.067h-75.093l14.507-14.507c26.453-26.453,40.96-62.293,40.107-98.987c-0.853-35.84-14.507-69.12-40.107-93.013
		l-15.36-15.36h75.947l2.56,2.56c29.013,27.307,45.227,64.853,45.227,105.813c0.853,41.813-16.213,81.92-45.227,111.787
		L224.28,336.067z M188.44,319h29.013c24.747-25.6,38.4-60.587,37.547-96.427c-0.853-34.987-13.653-66.56-37.547-91.307h-28.16
		c20.48,25.6,31.573,57.173,31.573,90.453C221.72,256.707,209.773,291.693,188.44,319z"/>
	<path d="M263.533,378.733h-51.2V319h51.2V378.733z M229.4,361.667h17.067v-25.6H229.4V361.667z"/>
	<path d="M229.4,131.267c-5.12,0-8.533-3.413-8.533-8.533v-102.4c0-5.12,3.413-8.533,8.533-8.533c5.12,0,8.533,3.413,8.533,8.533
		v102.4C237.933,127.853,234.52,131.267,229.4,131.267z"/>
	<path d="M152.6,88.6c-11.093,0-22.187-3.413-30.72-10.24c-2.56-1.707-3.413-4.267-3.413-6.827v-51.2c0-3.413,1.707-5.973,5.12-7.68
		c2.56-1.707,6.827-0.853,9.387,0.853c11.093,9.387,29.013,8.533,40.107,0c17.92-13.653,44.373-13.653,62.293,0
		c1.707,1.707,2.56,4.267,2.56,6.827v51.2c0,3.413-1.707,5.973-5.12,7.68c-3.413,1.707-6.827,0.853-9.387-0.853
		c-11.093-9.387-29.013-8.533-40.107,0C174.787,85.187,163.693,88.6,152.6,88.6z M135.533,67.267
		c11.093,6.827,27.307,5.973,37.547-2.56c12.8-10.24,32.427-12.8,47.787-7.68V24.6c-11.093-6.827-27.307-5.973-37.547,2.56
		c-12.8,10.24-32.427,12.8-47.787,7.68V67.267z"/>
	<path d="M109.933,438.467c-2.56,0-4.267-0.853-5.973-2.56c-3.413-3.413-3.413-8.533,0-11.947l25.6-25.6
		c3.413-3.413,8.533-3.413,11.947,0c3.413,3.413,3.413,8.533,0,11.947l-25.6,25.6C114.2,437.613,112.493,438.467,109.933,438.467z"
		/>
	<path d="M90.307,472.6c-5.973,0-11.947-2.56-17.067-6.827c-5.12-5.12-7.68-11.947-6.827-19.627
		c0.853-6.827,4.267-13.653,9.387-19.627c5.12-5.12,11.947-8.533,19.627-9.387c7.68-0.853,14.507,1.707,19.627,6.827
		s7.68,11.947,6.827,19.627c-0.853,6.827-4.267,13.653-9.387,19.627l0,0C106.52,469.187,97.987,472.6,90.307,472.6z M106.52,457.24
		L106.52,457.24L106.52,457.24z M98.84,434.2c-0.853,0-0.853,0-0.853,0c-3.413,0-6.827,1.707-9.387,4.267
		c-2.56,3.413-4.267,6.827-4.267,9.387c0,1.707,0,4.267,1.707,5.973c3.413,3.413,10.24,1.707,15.36-3.413
		c2.56-2.56,4.267-5.973,4.267-9.387c0-1.707,0-4.267-1.707-5.973C102.253,434.2,100.547,434.2,98.84,434.2z"/>
	<path d="M280.6,438.467c-2.56,0-4.267-0.853-5.973-2.56c-3.413-3.413-3.413-8.533,0-11.947l25.6-25.6
		c3.413-3.413,8.533-3.413,11.947,0c3.413,3.413,3.413,8.533,0,11.947l-25.6,25.6C284.867,437.613,282.307,438.467,280.6,438.467z"
		/>
	<path d="M260.973,472.6c-5.973,0-11.947-2.56-17.067-6.827c-5.12-5.12-7.68-11.947-6.827-19.627
		c0.853-6.827,4.267-13.653,9.387-19.627c5.12-5.12,11.947-8.533,19.627-9.387c7.68-0.853,14.507,1.707,19.627,6.827
		c5.12,5.12,7.68,11.947,6.827,19.627c-0.853,6.827-4.267,13.653-9.387,19.627C277.187,469.187,268.653,472.6,260.973,472.6z
		 M269.507,434.2c-0.853,0-0.853,0-0.853,0c-3.413,0-6.827,1.707-9.387,4.267c-2.56,2.56-4.267,5.973-4.267,9.387
		c0,1.707,0,4.267,1.707,5.973c3.413,3.413,10.24,1.707,15.36-3.413c2.56-2.56,4.267-5.973,4.267-9.387c0-1.707,0-4.267-1.707-5.973
		C272.92,434.2,271.213,434.2,269.507,434.2z"/>
	<path d="M365.933,438.467c-2.56,0-4.267-0.853-5.973-2.56c-3.413-3.413-3.413-8.533,0-11.947l25.6-25.6
		c3.413-3.413,8.533-3.413,11.947,0c3.413,3.413,3.413,8.533,0,11.947l-25.6,25.6C370.2,437.613,367.64,438.467,365.933,438.467z"/>
	<path d="M346.307,472.6c-5.973,0-11.947-2.56-17.067-6.827c-5.12-5.12-7.68-11.947-6.827-19.627
		c0.853-6.827,4.267-13.653,9.387-19.627c5.12-5.12,11.947-8.533,19.627-9.387c7.68-0.853,14.507,1.707,19.627,6.827
		s7.68,11.947,6.827,19.627c-0.853,6.827-4.267,13.653-9.387,19.627C362.52,469.187,353.987,472.6,346.307,472.6z M354.84,434.2
		c-0.853,0-0.853,0-0.853,0c-3.413,0-6.827,1.707-9.387,4.267c-2.56,2.56-4.267,5.973-4.267,9.387c0,1.707,0,4.267,1.707,5.973
		c3.413,3.413,10.24,1.707,15.36-3.413c2.56-2.56,4.267-5.973,4.267-9.387c0-1.707,0-4.267-1.707-5.973
		C358.253,434.2,356.547,434.2,354.84,434.2z"/>
	<path d="M195.267,438.467c-2.56,0-4.267-0.853-5.973-2.56c-3.413-3.413-3.413-8.533,0-11.947l25.6-25.6
		c3.413-3.413,8.533-3.413,11.947,0c3.413,3.413,3.413,8.533,0,11.947l-25.6,25.6C199.533,437.613,196.973,438.467,195.267,438.467z
		"/>
	<path d="M175.64,472.6c-5.973,0-11.947-2.56-17.067-6.827c-5.12-5.12-7.68-11.947-6.827-19.627
		c0.853-6.827,4.267-13.653,9.387-19.627c5.12-5.12,11.947-8.533,19.627-9.387c7.68-0.853,14.507,1.707,19.627,6.827
		c5.12,5.12,7.68,11.947,6.827,19.627c-0.853,6.827-4.267,13.653-9.387,19.627l0,0C191.853,469.187,183.32,472.6,175.64,472.6z
		 M191.853,457.24L191.853,457.24L191.853,457.24z M184.173,434.2c-0.853,0-0.853,0-0.853,0c-3.413,0-6.827,1.707-9.387,4.267
		c-2.56,2.56-4.267,5.973-4.267,9.387c0,1.707,0,4.267,1.707,5.973c3.413,3.413,10.24,1.707,15.36-3.413
		c2.56-2.56,4.267-5.973,4.267-9.387c0-1.707,0-4.267-1.707-5.973C187.587,434.2,185.88,434.2,184.173,434.2z"/>
</g>
</svg>