<?xml version="1.0" encoding="iso-8859-1"?>
<!-- Uploaded to: SVG Repo, www.svgrepo.com, Generator: SVG Repo Mixer Tools -->
<svg height="800px" width="800px" version="1.1" id="Layer_1" xmlns="http://www.w3.org/2000/svg" xmlns:xlink="http://www.w3.org/1999/xlink" 
	 viewBox="0 0 512 512" xml:space="preserve">
<g transform="translate(1 1)">
	<path style="fill:#FFE100;" d="M255,7.533c0,0-215.04,3.413-247.467,51.2c0,0,19.627,223.573,247.467,443.733
		C482.84,282.307,502.467,58.733,502.467,58.733C470.04,10.947,255,7.533,255,7.533"/>
	<path style="fill:#FFA800;" d="M471.747,33.133c5.973,3.413,10.24,7.68,13.653,11.947c0,0-15.36,238.08-238.933,457.387
		c4.267,4.267,4.267-9.387,8.533-5.12C482.84,277.187,502.467,53.613,502.467,53.613C497.347,45.933,486.253,39.107,471.747,33.133"
		/>
	<path style="fill:#FFFFFF;" d="M38.253,33.133C32.28,36.547,27.16,40.813,24.6,45.08c0,0,15.36,238.08,238.933,457.387
		c-4.267,4.267-4.267-9.387-8.533-5.12C27.16,277.187,7.533,53.613,7.533,53.613C12.653,45.933,23.747,39.107,38.253,33.133"/>
	<path style="fill:#FFE100;" d="M255,441.88C106.52,284.867,64.707,132.973,53.613,77.507C86.893,63.853,173.933,51.907,255,50.2
		c82.773,1.707,168.107,13.653,201.387,27.307C445.293,132.973,402.627,285.72,255,441.88"/>
	<path style="fill:#E4667F;" d="M237.933,229.4c0,44.373-24.747,75.093-24.747,75.093l23.04-4.267L255,323.267l18.773-23.04
		l23.04,4.267c0,0-24.747-30.72-24.747-75.093c44.373,0,75.093,24.747,75.093,24.747l-4.267-23.04l23.04-18.773l-23.04-18.773
		l4.267-23.04c0,0-30.72,24.747-75.093,24.747c0-44.373,24.747-75.093,24.747-75.093l-23.04,4.267L255,101.4l-18.773,23.04
		l-23.04-4.267c0,0,24.747,30.72,24.747,75.093c-44.373,0-75.093-24.747-75.093-24.747l4.267,23.04l-23.04,18.773l23.04,18.773
		l-4.267,23.04C162.84,254.147,193.56,229.4,237.933,229.4"/>
	<path d="M255,331.8c-2.56,0-5.12-0.853-6.827-3.413l-15.36-18.773l-17.92,3.413c-3.413,0.853-6.827-0.853-8.533-4.267
		c-1.707-3.413-1.707-6.827,0.853-9.387c0,0,19.627-24.747,22.187-61.44c-35.84,2.56-60.587,22.187-61.44,22.187
		c-2.56,2.56-6.827,2.56-9.387,0.853c-3.413-1.707-4.267-5.12-4.267-8.533l3.413-17.92l-18.773-15.36
		c-2.56-1.707-3.413-4.267-3.413-6.827s0.853-5.12,3.413-6.827l18.773-15.36l-3.413-17.92c-0.853-3.413,0.853-6.827,4.267-8.533
		c3.413-1.707,6.827-1.707,9.387,0.853c0,0,24.747,19.627,61.44,22.187c-2.56-35.84-22.187-60.587-22.187-61.44
		c-2.56-2.56-2.56-6.827-0.853-9.387c1.707-3.413,5.12-4.267,8.533-4.267l17.92,3.413l15.36-18.773
		c3.413-4.267,10.24-4.267,13.653,0l15.36,18.773l17.92-3.413c3.413-0.853,6.827,0.853,8.533,4.267s1.707,6.827-0.853,9.387
		c0,0-19.627,24.747-22.187,61.44c35.84-2.56,60.587-22.187,61.44-22.187c2.56-2.56,6.827-2.56,9.387-0.853
		c3.413,1.707,4.267,5.12,4.267,8.533l-3.413,17.92l18.773,15.36c1.707,1.707,3.413,4.267,3.413,6.827s-0.853,5.12-3.413,6.827
		l-18.773,15.36l3.413,17.92c0.853,3.413-0.853,6.827-4.267,8.533c-3.413,1.707-6.827,1.707-9.387-0.853
		c0,0-24.747-19.627-61.44-22.187c2.56,35.84,22.187,60.587,22.187,61.44c2.56,2.56,2.56,6.827,0.853,9.387
		c-1.707,3.413-5.12,4.267-8.533,4.267l-17.92-3.413l-15.36,18.773C260.12,330.947,257.56,331.8,255,331.8z M236.227,291.693
		c2.56,0,5.12,0.853,6.827,3.413L255,309.613l11.947-14.507c1.707-2.56,5.12-3.413,8.533-3.413l4.267,0.853
		c-7.68-14.507-16.213-36.693-16.213-63.147c0-5.12,3.413-8.533,8.533-8.533c26.453,0,48.64,8.533,63.147,15.36l-0.853-4.267
		c-0.853-3.413,0.853-5.973,3.413-8.533l14.507-11.947l-14.507-11.947c-2.56-1.707-3.413-5.12-3.413-8.533l0.853-4.267
		c-14.507,8.533-36.693,17.067-63.147,17.067c-5.12,0-8.533-3.413-8.533-8.533c0-26.453,8.533-48.64,15.36-63.147l-4.267,0.853
		c-3.413,0.853-5.973-0.853-8.533-3.413L255,115.053l-11.947,14.507c-1.707,2.56-5.12,3.413-8.533,3.413l-4.267-0.853
		c7.68,14.507,16.213,36.693,16.213,63.147c0,5.12-3.413,8.533-8.533,8.533c-26.453,0-48.64-8.533-63.147-15.36l0.853,4.267
		c0.853,3.413-0.853,5.973-3.413,8.533l-14.507,11.093l14.507,11.947c2.56,1.707,3.413,5.12,3.413,8.533l-0.853,4.267
		c14.507-7.68,36.693-16.213,63.147-16.213c5.12,0,8.533,3.413,8.533,8.533c0,26.453-8.533,48.64-15.36,63.147l4.267-0.853
		C235.373,291.693,236.227,291.693,236.227,291.693z"/>
	<path d="M255,511c-2.56,0-4.267-0.853-5.973-2.56c-118.613-115.2-180.053-230.4-210.773-307.2C4.12,117.613-1,62.147-1,59.587
		c0-1.707,0-4.267,1.707-5.12C33.987,4.12,231.96-1,255-1l0,0c22.187,0,221.013,5.12,254.293,54.613C511,55.32,511,57.88,511,59.587
		c0,2.56-23.04,228.693-250.027,448.853C259.267,510.147,257.56,511,255,511z M16.067,61.293C19.48,88.6,51.907,290.84,255,490.52
		C457.24,290.84,489.667,88.6,493.933,61.293C464.92,27.16,313.027,16.92,255,16.067C197.827,16.92,45.933,27.16,16.067,61.293z"/>
	<path d="M255,450.413c-2.56,0-4.267-0.853-5.973-2.56C99.693,289.987,57.027,137.24,45.08,79.213
		c-0.853-4.267,1.707-8.533,5.12-9.387C86.04,55.32,173.933,43.373,255,41.667c83.627,1.707,168.96,12.8,204.8,27.307
		c3.413,1.707,5.973,5.973,5.12,9.387C452.973,137.24,409.453,289.987,261.827,447C259.267,449.56,257.56,450.413,255,450.413
		L255,450.413z M63.853,82.627C76.653,143.213,119.32,283.16,255,429.08C389.827,284.013,433.347,143.213,446.147,82.627
		C409.453,69.827,330.093,60.44,255,58.733C181.613,59.587,100.547,70.68,63.853,82.627z"/>
</g>
</svg>