<?xml version="1.0" encoding="iso-8859-1"?>
<!-- Uploaded to: SVG Repo, www.svgrepo.com, Generator: SVG Repo Mixer Tools -->
<svg fill="#000000" height="800px" width="800px" version="1.1" id="Layer_1" xmlns="http://www.w3.org/2000/svg" xmlns:xlink="http://www.w3.org/1999/xlink" 
	 viewBox="0 0 512.006 512.006" xml:space="preserve">
<g>
	<g>
		<path d="M490.67,362.672h-64v-21.333c0-11.782-9.551-21.333-21.333-21.333h-51.093l-90.867-173.449
			c8.73-10.939,13.96-24.796,13.96-39.885c0-0.191-0.013-0.379-0.014-0.569L426.67,51.796v58.53
			c-24.858,8.784-42.667,32.474-42.667,60.346c0,35.355,28.645,64,64,64c35.355,0,64-28.645,64-64
			c0-27.872-17.808-51.562-42.667-60.346V21.598c0.018-1.488-0.118-2.993-0.423-4.493c-0.015-0.074-0.034-0.147-0.05-0.22
			c-0.127-0.592-0.275-1.182-0.455-1.771c-0.039-0.127-0.084-0.251-0.125-0.378c-0.075-0.229-0.147-0.459-0.231-0.688
			c-0.098-0.27-0.205-0.534-0.313-0.797c-0.054-0.132-0.108-0.263-0.164-0.394c-0.232-0.536-0.484-1.058-0.754-1.565
			c-0.029-0.055-0.056-0.112-0.085-0.166c-0.318-0.586-0.664-1.15-1.03-1.696c-0.006-0.009-0.012-0.019-0.018-0.028
			c-1.151-1.708-2.529-3.212-4.076-4.491c-0.022-0.018-0.043-0.037-0.065-0.055c-0.485-0.398-0.987-0.771-1.503-1.124
			c-0.064-0.044-0.127-0.089-0.192-0.133c-0.484-0.323-0.981-0.623-1.489-0.904c-0.106-0.059-0.211-0.12-0.319-0.177
			c-0.488-0.26-0.988-0.498-1.494-0.72c-0.13-0.057-0.259-0.116-0.39-0.171c-0.517-0.214-1.045-0.404-1.578-0.578
			c-0.12-0.039-0.238-0.081-0.358-0.118c-0.588-0.18-1.185-0.331-1.787-0.46c-0.065-0.014-0.128-0.03-0.193-0.043
			c-2.742-0.559-5.618-0.583-8.475-0.001c-0.074,0.015-0.146,0.034-0.219,0.049c-0.592,0.127-1.182,0.275-1.771,0.455
			c-0.128,0.039-0.252,0.084-0.379,0.126c-0.229,0.075-0.459,0.147-0.687,0.23L262.757,66
			c-11.737-14.246-29.514-23.327-49.421-23.327c-35.355,0-64,28.645-64,64c0,0.296,0.018,0.587,0.022,0.882l-42.721,19.82
			c-0.336-11.488-9.732-20.703-21.302-20.703h-64c-11.782,0-21.333,9.551-21.333,21.333v85.333c0,11.782,9.551,21.333,21.333,21.333
			h64c11.782,0,21.333-9.551,21.333-21.333v-38.943l55.542-25.769L72.429,320.006H21.336c-11.782,0-21.333,9.551-21.333,21.333
			v106.667c0,11.782,9.551,21.333,21.333,21.333h24.987c8.784,24.858,32.474,42.667,60.346,42.667s51.562-17.808,60.346-42.667
			h92.641c8.784,24.858,32.474,42.667,60.346,42.667s51.562-17.808,60.346-42.667h24.987c11.782,0,21.333-9.551,21.333-21.333
			v-42.667h42.667v21.333c0,11.782,9.551,21.333,21.333,21.333s21.333-9.551,21.333-21.333v-42.667
			C512.003,372.224,502.452,362.672,490.67,362.672z M448.003,192.006c-11.791,0-21.333-9.542-21.333-21.333
			s9.542-21.333,21.333-21.333s21.333,9.542,21.333,21.333S459.794,192.006,448.003,192.006z M213.336,85.339
			c8.996,0,16.668,5.562,19.807,13.432c0.068,0.207,0.133,0.415,0.208,0.621c0.086,0.238,0.182,0.47,0.276,0.703
			c0.671,2.073,1.043,4.28,1.043,6.578c0,7.333-3.693,13.792-9.32,17.631c-0.081,0.053-0.163,0.105-0.243,0.159
			c-3.373,2.235-7.416,3.543-11.77,3.543c-4.354,0-8.396-1.308-11.77-3.543c-0.081-0.054-0.162-0.106-0.244-0.159
			c-3.574-2.439-6.348-5.943-7.91-10.05c-0.168-0.583-0.36-1.162-0.581-1.737c-0.528-1.859-0.829-3.815-0.829-5.844
			C192.003,94.881,201.545,85.339,213.336,85.339z M64.003,192.006H42.67v-42.667h21.333V192.006z M199.61,169.182
			c4.423,0.966,9.012,1.49,13.726,1.49s9.303-0.524,13.726-1.49l79.014,150.823h-185.48L199.61,169.182z M106.67,469.339
			c-11.791,0-21.333-9.542-21.333-21.333s9.542-21.333,21.333-21.333s21.333,9.542,21.333,21.333S118.461,469.339,106.67,469.339z
			 M320.003,469.339c-11.791,0-21.333-9.542-21.333-21.333s9.542-21.333,21.333-21.333s21.333,9.542,21.333,21.333
			S331.794,469.339,320.003,469.339z M384.003,426.672h-3.639c-0.046-0.131-0.099-0.259-0.146-0.39
			c-0.102-0.283-0.211-0.563-0.317-0.844c-0.235-0.624-0.479-1.244-0.733-1.859c-0.123-0.297-0.246-0.593-0.373-0.888
			c-0.278-0.645-0.568-1.284-0.867-1.918c-0.107-0.226-0.208-0.455-0.317-0.68c-0.41-0.846-0.837-1.682-1.284-2.507
			c-0.09-0.166-0.186-0.327-0.277-0.491c-0.365-0.661-0.741-1.316-1.129-1.963c-0.159-0.266-0.323-0.528-0.487-0.792
			c-0.344-0.556-0.697-1.106-1.058-1.65c-0.171-0.257-0.34-0.515-0.515-0.77c-0.424-0.62-0.86-1.231-1.305-1.835
			c-0.111-0.151-0.218-0.306-0.331-0.456c-0.559-0.746-1.136-1.477-1.727-2.197c-0.156-0.19-0.318-0.374-0.476-0.563
			c-0.447-0.532-0.901-1.058-1.364-1.575c-0.211-0.235-0.424-0.467-0.639-0.699c-0.445-0.481-0.897-0.955-1.356-1.422
			c-0.206-0.21-0.411-0.422-0.62-0.63c-0.612-0.606-1.234-1.202-1.87-1.783c-0.053-0.048-0.103-0.099-0.156-0.147
			c-0.69-0.626-1.397-1.234-2.113-1.831c-0.215-0.178-0.434-0.351-0.651-0.527c-0.518-0.419-1.041-0.832-1.573-1.236
			c-0.253-0.193-0.508-0.383-0.764-0.572c-0.543-0.4-1.092-0.789-1.648-1.172c-0.224-0.154-0.445-0.312-0.671-0.464
			c-0.776-0.52-1.562-1.027-2.362-1.514c-0.102-0.062-0.206-0.119-0.308-0.18c-0.703-0.422-1.414-0.831-2.134-1.227
			c-0.266-0.146-0.535-0.286-0.803-0.429c-0.58-0.308-1.164-0.608-1.754-0.898c-0.286-0.141-0.573-0.281-0.861-0.418
			c-0.645-0.306-1.298-0.599-1.955-0.884c-0.217-0.094-0.43-0.193-0.648-0.285c-0.871-0.366-1.751-0.713-2.64-1.041
			c-0.201-0.074-0.405-0.14-0.606-0.212c-0.699-0.249-1.402-0.489-2.112-0.714c-0.305-0.097-0.611-0.189-0.918-0.281
			c-0.638-0.192-1.28-0.374-1.926-0.547c-0.305-0.081-0.608-0.164-0.915-0.241c-0.776-0.195-1.558-0.375-2.345-0.541
			c-0.163-0.034-0.323-0.075-0.487-0.108c-0.947-0.192-1.902-0.361-2.863-0.511c-0.268-0.042-0.539-0.075-0.809-0.113
			c-0.707-0.101-1.417-0.193-2.132-0.271c-0.333-0.036-0.668-0.069-1.003-0.1c-0.694-0.065-1.391-0.117-2.091-0.159
			c-0.307-0.019-0.613-0.041-0.921-0.055c-0.996-0.046-1.995-0.076-3.002-0.076s-2.007,0.03-3.002,0.076
			c-0.308,0.014-0.614,0.037-0.921,0.055c-0.7,0.042-1.397,0.094-2.091,0.159c-0.335,0.031-0.669,0.064-1.003,0.1
			c-0.715,0.078-1.425,0.169-2.132,0.271c-0.269,0.039-0.54,0.072-0.809,0.113c-0.961,0.15-1.916,0.319-2.863,0.511
			c-0.164,0.033-0.325,0.074-0.488,0.108c-0.787,0.166-1.568,0.346-2.344,0.541c-0.306,0.077-0.61,0.16-0.915,0.241
			c-0.646,0.173-1.288,0.355-1.926,0.547c-0.307,0.092-0.613,0.184-0.918,0.281c-0.71,0.226-1.413,0.465-2.112,0.714
			c-0.202,0.072-0.406,0.138-0.606,0.212c-0.889,0.328-1.769,0.675-2.64,1.04c-0.219,0.092-0.433,0.192-0.651,0.286
			c-0.656,0.284-1.308,0.577-1.952,0.882c-0.289,0.137-0.576,0.278-0.862,0.419c-0.59,0.29-1.174,0.59-1.754,0.898
			c-0.268,0.142-0.537,0.283-0.803,0.429c-0.72,0.396-1.432,0.805-2.134,1.227c-0.102,0.061-0.207,0.118-0.308,0.18
			c-0.8,0.487-1.585,0.994-2.362,1.514c-0.226,0.152-0.447,0.31-0.671,0.464c-0.555,0.383-1.105,0.772-1.648,1.172
			c-0.256,0.189-0.511,0.38-0.764,0.572c-0.531,0.404-1.055,0.816-1.573,1.236c-0.217,0.176-0.436,0.348-0.651,0.527
			c-0.717,0.596-1.423,1.204-2.113,1.83c-0.055,0.05-0.107,0.102-0.161,0.152c-0.634,0.58-1.255,1.174-1.866,1.779
			c-0.21,0.208-0.414,0.42-0.621,0.631c-0.458,0.467-0.91,0.94-1.354,1.42c-0.215,0.232-0.429,0.465-0.64,0.701
			c-0.464,0.517-0.917,1.043-1.364,1.575c-0.158,0.188-0.32,0.373-0.476,0.563c-0.591,0.72-1.167,1.452-1.727,2.197
			c-0.113,0.15-0.219,0.305-0.331,0.456c-0.445,0.604-0.881,1.215-1.305,1.835c-0.174,0.255-0.344,0.513-0.515,0.77
			c-0.361,0.544-0.713,1.094-1.058,1.65c-0.163,0.263-0.327,0.526-0.487,0.792c-0.388,0.647-0.763,1.302-1.129,1.963
			c-0.091,0.165-0.187,0.326-0.277,0.491c-0.446,0.825-0.873,1.661-1.284,2.507c-0.109,0.225-0.211,0.454-0.317,0.68
			c-0.299,0.634-0.589,1.273-0.867,1.918c-0.127,0.295-0.25,0.591-0.373,0.888c-0.254,0.615-0.497,1.235-0.733,1.859
			c-0.106,0.281-0.215,0.561-0.317,0.844c-0.047,0.131-0.1,0.259-0.146,0.39H167.03c-0.046-0.131-0.099-0.259-0.146-0.39
			c-0.102-0.283-0.211-0.563-0.317-0.844c-0.235-0.624-0.479-1.244-0.733-1.859c-0.123-0.297-0.246-0.593-0.373-0.888
			c-0.278-0.645-0.568-1.282-0.866-1.916c-0.107-0.227-0.209-0.458-0.319-0.684c-0.41-0.846-0.837-1.681-1.283-2.506
			c-0.09-0.166-0.186-0.327-0.277-0.491c-0.365-0.661-0.741-1.316-1.128-1.963c-0.16-0.266-0.324-0.53-0.488-0.793
			c-0.344-0.555-0.695-1.104-1.056-1.647c-0.171-0.259-0.342-0.518-0.517-0.774c-0.423-0.619-0.859-1.229-1.303-1.833
			c-0.112-0.152-0.219-0.307-0.332-0.458c-0.559-0.745-1.135-1.477-1.726-2.196c-0.157-0.191-0.32-0.377-0.48-0.567
			c-0.446-0.531-0.898-1.055-1.36-1.571c-0.212-0.236-0.426-0.469-0.641-0.702c-0.444-0.48-0.895-0.953-1.353-1.419
			c-0.207-0.211-0.413-0.424-0.623-0.633c-0.61-0.604-1.231-1.198-1.865-1.778c-0.055-0.05-0.107-0.103-0.162-0.153
			c-0.69-0.626-1.396-1.234-2.113-1.83c-0.215-0.179-0.435-0.352-0.652-0.527c-0.517-0.419-1.04-0.831-1.571-1.234
			c-0.254-0.193-0.509-0.384-0.766-0.573c-0.542-0.399-1.091-0.788-1.646-1.171c-0.225-0.155-0.446-0.313-0.673-0.465
			c-0.776-0.52-1.561-1.027-2.361-1.513c-0.102-0.062-0.207-0.119-0.309-0.18c-0.702-0.422-1.413-0.831-2.133-1.226
			c-0.267-0.146-0.536-0.287-0.805-0.43c-0.579-0.307-1.162-0.607-1.751-0.897c-0.287-0.141-0.574-0.282-0.863-0.419
			c-0.644-0.305-1.296-0.598-1.952-0.882c-0.218-0.094-0.432-0.194-0.651-0.286c-0.87-0.366-1.75-0.713-2.64-1.04
			c-0.201-0.074-0.405-0.14-0.606-0.212c-0.699-0.249-1.402-0.489-2.112-0.714c-0.305-0.097-0.611-0.189-0.918-0.281
			c-0.638-0.192-1.28-0.374-1.926-0.547c-0.305-0.081-0.608-0.164-0.915-0.241c-0.776-0.195-1.557-0.374-2.344-0.541
			c-0.163-0.035-0.324-0.075-0.488-0.108c-0.947-0.192-1.901-0.361-2.863-0.511c-0.268-0.042-0.539-0.075-0.809-0.113
			c-0.707-0.101-1.417-0.193-2.132-0.271c-0.333-0.036-0.668-0.069-1.003-0.1c-0.694-0.065-1.391-0.117-2.091-0.159
			c-0.307-0.019-0.613-0.041-0.921-0.055c-0.996-0.046-1.995-0.076-3.002-0.076s-2.007,0.03-3.002,0.076
			c-0.308,0.014-0.614,0.037-0.921,0.055c-0.7,0.042-1.397,0.094-2.091,0.159c-0.335,0.031-0.669,0.064-1.003,0.1
			c-0.715,0.078-1.425,0.169-2.132,0.271c-0.269,0.039-0.54,0.072-0.809,0.113c-0.961,0.15-1.916,0.319-2.863,0.511
			c-0.163,0.033-0.324,0.074-0.487,0.108c-0.787,0.166-1.569,0.346-2.345,0.541c-0.306,0.077-0.61,0.16-0.915,0.241
			c-0.646,0.173-1.288,0.355-1.926,0.547c-0.307,0.092-0.613,0.184-0.918,0.281c-0.71,0.226-1.413,0.465-2.112,0.714
			c-0.202,0.072-0.406,0.138-0.606,0.212c-0.89,0.328-1.77,0.675-2.64,1.041c-0.218,0.091-0.432,0.191-0.648,0.285
			c-0.657,0.285-1.309,0.578-1.955,0.884c-0.289,0.137-0.575,0.277-0.861,0.418c-0.59,0.291-1.174,0.59-1.754,0.898
			c-0.268,0.142-0.537,0.283-0.803,0.429c-0.72,0.396-1.432,0.805-2.134,1.227c-0.102,0.061-0.207,0.118-0.308,0.18
			c-0.8,0.487-1.585,0.994-2.362,1.514c-0.226,0.152-0.447,0.31-0.671,0.464c-0.555,0.383-1.105,0.772-1.648,1.172
			c-0.256,0.189-0.511,0.38-0.764,0.572c-0.531,0.404-1.055,0.816-1.573,1.236c-0.217,0.176-0.436,0.348-0.651,0.527
			c-0.717,0.596-1.424,1.204-2.113,1.831c-0.053,0.048-0.103,0.099-0.156,0.147c-0.636,0.581-1.258,1.177-1.87,1.783
			c-0.209,0.207-0.414,0.42-0.62,0.63c-0.459,0.467-0.911,0.941-1.356,1.422c-0.214,0.232-0.428,0.464-0.639,0.699
			c-0.464,0.517-0.917,1.043-1.364,1.575c-0.158,0.188-0.32,0.373-0.476,0.563c-0.591,0.72-1.167,1.452-1.727,2.197
			c-0.113,0.15-0.219,0.305-0.331,0.456c-0.445,0.604-0.881,1.215-1.305,1.835c-0.174,0.255-0.344,0.513-0.515,0.77
			c-0.361,0.544-0.713,1.094-1.058,1.65c-0.163,0.263-0.327,0.526-0.487,0.792c-0.388,0.647-0.763,1.302-1.129,1.963
			c-0.091,0.165-0.187,0.326-0.277,0.491c-0.446,0.825-0.873,1.661-1.284,2.507c-0.109,0.225-0.211,0.454-0.317,0.68
			c-0.299,0.634-0.589,1.273-0.867,1.918c-0.127,0.295-0.25,0.591-0.373,0.888c-0.254,0.615-0.497,1.235-0.733,1.859
			c-0.106,0.281-0.215,0.561-0.317,0.844c-0.047,0.131-0.1,0.259-0.146,0.39H42.67v-64h42.911c0.03,0,0.059,0,0.089,0h255.334
			c0.03,0,0.059,0,0.089,0h42.911V426.672z"/>
	</g>
</g>
</svg>