<?xml version="1.0" encoding="iso-8859-1"?>
<!-- Uploaded to: SVG Repo, www.svgrepo.com, Generator: SVG Repo Mixer Tools -->
<svg fill="#000000" height="800px" width="800px" version="1.1" id="Layer_1" xmlns="http://www.w3.org/2000/svg" xmlns:xlink="http://www.w3.org/1999/xlink" 
	 viewBox="0 0 512.011 512.011" xml:space="preserve">
<g>
	<g>
		<path d="M494.911,210.357l-46.908-9.516V158.17l36.418-36.418c8.331-8.331,8.331-21.839,0-30.17
			c-8.331-8.331-21.839-8.331-30.17,0l-6.248,6.248V72.837l36.418-36.418c8.331-8.331,8.331-21.839,0-30.17
			c-8.331-8.331-21.839-8.331-30.17,0l-7.618,7.618C443.604,5.773,435.821,0,426.67,0s-16.934,5.773-19.963,13.867l-7.618-7.618
			c-8.331-8.331-21.839-8.331-30.17,0c-8.331,8.331-8.331,21.839,0,30.17l36.418,36.418V97.83l-6.248-6.248
			c-8.331-8.331-21.839-8.331-30.17,0c-8.331,8.331-8.331,21.839,0,30.17l36.418,36.418v34.016L298.67,170.548V158.17l36.418-36.418
			c8.331-8.331,8.331-21.839,0-30.17s-21.839-8.331-30.17,0l-6.248,6.248V72.837l36.418-36.418c8.331-8.331,8.331-21.839,0-30.17
			c-8.331-8.331-21.839-8.331-30.17,0l-7.618,7.618C294.27,5.773,286.488,0,277.337,0c-9.151,0-16.934,5.773-19.963,13.867
			l-7.618-7.618c-8.331-8.331-21.839-8.331-30.17,0c-8.331,8.331-8.331,21.839,0,30.17l36.418,36.418V97.83l-6.248-6.248
			c-8.331-8.331-21.839-8.331-30.17,0s-8.331,21.839,0,30.17l36.418,36.418v3.722l-59.759-12.122
			c-13.217-2.681-25.575,7.421-25.575,20.907v7.377c-0.091,11.612-9.955,21.342-21.777,21.342c-11.568,0-20.885-9.51-20.885-21.504
			v-71.04c0-35.357-28.667-64.192-64-64.192c-35.349,0-64,28.829-64,64.192v167.424c0,59.599,47.284,109.717,106.048,109.717h32.128
			c18.79,0,32.491,12.667,32.491,29.547h0.988c7.27,54.916,53.852,98.47,110.026,98.47h120c61.122,0,110.315-51.598,110.315-113.451
			V231.264C512.003,221.117,504.856,212.374,494.911,210.357z M138.184,341.327h-32.128c-34.627,0-63.381-30.478-63.381-67.051
			V106.852c0-11.857,9.608-21.525,21.333-21.525c11.713,0,21.333,9.677,21.333,21.525v71.04c0,35.365,28.222,64.171,63.552,64.171
			c7.627,0,14.962-1.342,21.777-3.801V348.15C160.848,343.753,149.833,341.327,138.184,341.327z M469.337,398.56
			c0,38.732-30.558,70.784-67.648,70.784h-120c-37.22,0-68.256-32.148-68.348-70.614V196.774l59.59,12.088
			c0.074,0.016,0.147,0.03,0.221,0.045l149.112,30.248c0.074,0.016,0.148,0.03,0.222,0.045l46.851,9.504V398.56z"/>
	</g>
</g>
</svg>