<?xml version="1.0" encoding="iso-8859-1"?>
<!-- Uploaded to: SVG Repo, www.svgrepo.com, Generator: SVG Repo Mixer Tools -->
<svg fill="#000000" height="800px" width="800px" version="1.1" id="Layer_1" xmlns="http://www.w3.org/2000/svg" xmlns:xlink="http://www.w3.org/1999/xlink" 
	 viewBox="0 0 512.022 512.022" xml:space="preserve">
<g transform="translate(-1)">
	<g>
		<path d="M497.945,416.349L359.333,262.586l19.464-35.048c35.49-61.914,26.82-110.439-10.867-140.73
			c-11.906-9.569-23.718-15.1-32.428-17.717c-19.245-5.782-35.081,15.821-23.775,32.434c7.503,11.025,6.216,19.525-1.236,28.932
			c-2.683,3.387-5.337,5.774-6.565,6.657l-2.639,2.241c-3.44,3.44-4.64,3.311-9.37-0.457c-2.032-1.618-3.54-3.247-4.01-3.865
			l-1.89-2.163c-0.843-0.843-1.734-3.022-2.196-6.605c-0.565-4.385-0.293-9.628,0.548-14.725c0.306-1.855,0.587-3.132,0.706-3.586
			l0.538-2.772c6.167-48.94-14.134-79.96-50.231-91.231c-14.158-4.421-28.5-5.23-41.485-4.062c-1.988,0.179-3.527,0.372-4.549,0.533
			c-17.23,2.709-24.105,23.826-11.772,36.159c6.15,6.15,8.499,10.443,8.765,12.926c-0.154,0.473-2.279,2.344-2.279,2.344
			c-3.532,3.532-3.95,3.623-4.837,3.282c-0.338-0.131-1.329-1.165-2.393-3.362c-5.002-10.351-11.829-20.477-19.94-30.306
			C138.05,8.627,108.922-3.292,80.02,0.793C63.143,3.19,48.123,9.473,35.047,18.4c-10.243,6.992-17.405,14.134-21.559,19.517
			c-9.27,12.011-3.393,29.587,11.238,33.606c17.291,4.749,29.9,10.47,38.417,16.744c8.245,6.067,3.235,20.095-7.025,19.586
			c-5.415-0.265-11.295-1.249-17.171-2.732c-4.252-1.073-7.461-2.118-9.005-2.705c-13.919-5.295-28.844,4.94-28.919,19.832
			c-0.024,4.781-0.024,8.467-0.01,16.095c0.007,3.762,0.007,3.762,0.009,7.436c0,54.994,35.64,107.083,86.406,110.273
			c10.281,0.634,19.504,4.368,23.764,8.404c19.391,18.378,17.864,25.481,1.808,36.001c-6.286,4.118-12.822,6.946-16.596,8.159
			c-11.257,3.617-17.425,15.701-13.75,26.94c2.626,8.033,8.378,18.561,18.573,28.908c19.63,19.924,48.109,30.166,84.921,26.025
			c17.957-2.024,35.779-7.681,53.268-16.439l25.706-14.367l152.417,137.4c22.322,20.565,57.158,19.835,78.777-1.784
			C517.935,473.677,518.665,438.842,497.945,416.349z M219.447,336.355c-12.353,6.16-25.41,10.305-38.074,11.733
			c-21.568,2.426-36.373-1.975-46.771-10.8c0.592-0.373,1.186-0.754,1.78-1.144c37.213-24.381,45.596-63.386,4.157-102.661
			c-11.827-11.205-30.565-18.79-50.461-20.017c-24.033-1.51-44.849-30.729-46.309-63.969c3.417,0.473,6.837,0.803,10.246,0.97
			c52.448,2.605,76.743-65.418,34.423-96.56c-3.996-2.943-8.391-5.722-13.199-8.334c3.449-1.149,7.039-2.006,10.766-2.535
			c13.883-1.962,28.403,3.979,37.973,15.58c6.102,7.394,11.086,14.787,14.443,21.734c5.445,11.244,13.984,20.165,25.458,24.593
			c16.32,6.281,34.075,2.659,49.234-11.834c2.388-1.914,4.972-4.504,7.468-7.886c6.141-8.325,9.089-17.866,8.456-27.985
			c11.863,6.079,17.141,17.867,14.383,41.448c-0.36,1.559-0.762,3.551-1.151,5.907c-1.462,8.86-1.938,18.039-0.767,27.124
			c1.505,11.677,5.625,22.075,13.338,30.284c2.431,3.004,5.926,6.632,10.491,10.268c19.535,15.561,43.901,18.445,64.93-1.58
			c3.965-3.055,8.83-7.627,13.671-13.738c4.825-6.089,8.666-12.577,11.337-19.356c7.191,16.112,4.183,37.895-13.631,68.975
			l-12.499,22.504l-6.501-7.213c-3.378-3.67-7.071-6.914-11.001-9.732c-0.043-0.031-0.087-0.062-0.13-0.093
			c-15.458-11.03-34.627-15.369-53.352-12.044c-2.13,0.378-4.236,0.864-6.317,1.433c-0.167,0.045-0.335,0.082-0.502,0.128
			c-0.641,0.18-1.274,0.389-1.91,0.587c-0.497,0.155-0.997,0.296-1.49,0.462c-0.442,0.149-0.876,0.32-1.315,0.478
			c-0.677,0.243-1.356,0.478-2.027,0.742c-0.299,0.118-0.59,0.252-0.887,0.374c-0.802,0.328-1.603,0.658-2.395,1.017
			c-0.148,0.067-0.293,0.144-0.44,0.212c-7.329,3.388-14.206,8.093-20.264,14.144c-0.306,0.306-0.589,0.626-0.888,0.936
			c-0.411,0.426-0.823,0.852-1.222,1.288c-0.389,0.424-0.767,0.853-1.144,1.283c-0.325,0.372-0.645,0.747-0.961,1.124
			c-0.385,0.459-0.77,0.918-1.142,1.385c-0.237,0.298-0.463,0.602-0.695,0.903c-0.752,0.976-1.475,1.966-2.169,2.971
			c-0.175,0.254-0.353,0.505-0.525,0.761c-0.397,0.591-0.78,1.186-1.157,1.786c-0.145,0.231-0.287,0.463-0.429,0.696
			c-1.266,2.069-2.416,4.186-3.449,6.347c-0.063,0.132-0.129,0.263-0.191,0.396c-0.329,0.7-0.645,1.404-0.95,2.113
			c-0.078,0.182-0.154,0.365-0.231,0.548c-0.925,2.199-1.734,4.434-2.426,6.697c-0.069,0.225-0.141,0.449-0.208,0.675
			c-0.192,0.65-0.371,1.303-0.543,1.957c-0.092,0.348-0.18,0.697-0.267,1.047c-0.151,0.61-0.301,1.22-0.435,1.834
			c-0.106,0.479-0.197,0.962-0.292,1.444c-0.135,0.685-0.267,1.369-0.382,2.057c-0.122,0.727-0.232,1.454-0.331,2.181
			c-0.047,0.347-0.093,0.693-0.135,1.041c-0.115,0.953-0.215,1.907-0.291,2.86c-0.013,0.163-0.021,0.327-0.032,0.49
			c-0.068,0.935-0.116,1.87-0.147,2.804c-0.005,0.163-0.013,0.326-0.017,0.49c-0.028,1.075-0.032,2.149-0.011,3.221
			c0.001,0.07,0.004,0.14,0.006,0.21c0.05,2.259,0.209,4.509,0.474,6.743c0.005,0.04,0.01,0.08,0.015,0.12
			c0.271,2.258,0.651,4.499,1.138,6.715c0.011,0.049,0.021,0.098,0.032,0.147c0.247,1.113,0.518,2.22,0.818,3.319
			c0.002,0.006,0.003,0.012,0.005,0.018c0.298,1.091,0.624,2.174,0.974,3.249c0.014,0.044,0.027,0.087,0.042,0.131
			c0.34,1.037,0.707,2.065,1.095,3.085c0.052,0.137,0.106,0.273,0.159,0.41c0.784,2.021,1.661,4.008,2.632,5.955
			c0.077,0.154,0.153,0.309,0.231,0.462c0.486,0.956,0.992,1.904,1.522,2.839c0.055,0.096,0.112,0.192,0.167,0.288
			c0.548,0.957,1.117,1.903,1.712,2.836c0.011,0.017,0.021,0.035,0.032,0.052c0.624,0.977,1.277,1.938,1.951,2.887
			c0.039,0.054,0.078,0.109,0.116,0.163c2.798,3.914,6.017,7.585,9.657,10.936l8.878,8.088L219.447,336.355z M466.146,465.127
			c-5.444,5.444-14.214,5.628-19.869,0.419L251.461,289.924c-0.62-0.57-1.201-1.166-1.756-1.778
			c-0.138-0.153-0.278-0.304-0.412-0.46c-0.161-0.185-0.315-0.374-0.47-0.563c-0.234-0.287-0.464-0.576-0.685-0.87
			c-0.079-0.105-0.159-0.21-0.237-0.316c-4.443-6.096-6.224-13.782-4.883-21.336c0.37-2.079,0.971-4.096,1.789-6.021
			c0.012-0.028,0.024-0.057,0.036-0.085c0.539-1.257,1.172-2.474,1.896-3.644c0.023-0.037,0.045-0.074,0.069-0.111
			c0.734-1.174,1.559-2.301,2.474-3.369c0.012-0.014,0.024-0.028,0.036-0.042c0.463-0.538,0.948-1.062,1.455-1.57
			c1.406-1.406,2.916-2.631,4.518-3.674c0.256-0.168,0.519-0.324,0.78-0.483c2.989-1.809,6.237-3.013,9.572-3.601
			c0.51-0.09,1.021-0.161,1.532-0.223c0.209-0.025,0.418-0.043,0.627-0.064c0.307-0.03,0.613-0.056,0.919-0.076
			c0.258-0.017,0.516-0.031,0.775-0.041c0.238-0.009,0.475-0.011,0.712-0.014c1.177-0.013,2.355,0.043,3.525,0.177
			c0.05,0.006,0.101,0.01,0.151,0.016c0.408,0.049,0.815,0.109,1.221,0.176c0.07,0.012,0.14,0.023,0.211,0.035
			c1.764,0.305,3.504,0.779,5.192,1.423c0.016,0.006,0.031,0.011,0.047,0.017c0.388,0.149,0.772,0.309,1.154,0.476
			c0.081,0.035,0.162,0.071,0.243,0.107c0.367,0.164,0.732,0.335,1.093,0.516c0.066,0.033,0.13,0.068,0.196,0.102
			c1.138,0.582,2.243,1.247,3.307,1.994c0.075,0.052,0.151,0.102,0.225,0.156c0.311,0.223,0.617,0.456,0.92,0.693
			c0.105,0.082,0.21,0.164,0.314,0.248c0.303,0.244,0.603,0.494,0.897,0.752c0.076,0.066,0.15,0.135,0.225,0.202
			c0.675,0.604,1.329,1.243,1.955,1.924l175.326,194.491C471.773,450.913,471.59,459.683,466.146,465.127z"/>
	</g>
</g>
</svg>