<?xml version="1.0" encoding="iso-8859-1"?>
<!-- Uploaded to: SVG Repo, www.svgrepo.com, Generator: SVG Repo Mixer Tools -->
<svg fill="#000000" height="800px" width="800px" version="1.1" id="Layer_1" xmlns="http://www.w3.org/2000/svg" xmlns:xlink="http://www.w3.org/1999/xlink" 
	 viewBox="0 0 512.098 512.098" xml:space="preserve">
<g transform="translate(0 -1)">
	<g>
		<g>
			<path d="M511.37,212.252c-0.251-2.832-0.519-4.955-0.734-6.292c-2.122-13.225-15.765-21.246-28.354-16.669
				c-28.061,10.203-49.273,8.985-66.85-1.104l43.365-43.365c9.941-9.941,7.716-26.613-4.485-33.599l-33.342-19.09l-19.07-33.341
				c-6.983-12.208-23.662-14.437-33.606-4.49L324.932,97.68c-10.08-17.593-11.316-38.831-1.124-66.863
				c4.577-12.588-3.443-26.231-16.669-28.354c-1.337-0.214-3.459-0.483-6.289-0.734c-30.824-2.733-66.616,1.876-101.192,19.937
				c-14.893,7.78-28.665,17.775-41.035,30.149c-12.369,12.364-22.364,26.136-30.143,41.029
				c-18.06,34.575-22.67,70.368-19.937,101.192c0.251,2.831,0.519,4.953,0.734,6.289c2.122,13.225,15.765,21.246,28.354,16.669
				c27.851-10.127,49.245-8.827,66.821,1.15L6.248,416.348c-8.332,8.332-8.331,21.842,0.003,30.173l60.352,60.331
				c8.332,8.329,21.838,8.327,30.168-0.003l198.21-198.229c10.08,17.586,11.315,38.823,1.124,66.851
				c-4.577,12.588,3.443,26.231,16.669,28.354c1.337,0.215,3.46,0.483,6.292,0.734c30.836,2.734,66.643-1.877,101.231-19.943
				c14.882-7.773,28.645-17.757,41.008-30.116c12.365-12.37,22.349-26.132,30.122-41.014
				C509.493,278.894,514.105,243.088,511.37,212.252z M378.727,104.215l8.088,14.14c1.887,3.299,4.62,6.033,7.918,7.922
				l14.161,8.108l-25.406,25.406c-3.736-3.735-7.518-7.518-15.08-15.08c-7.564-7.564-11.346-11.346-15.117-15.117L378.727,104.215z
				 M211.501,331.763l-30.164-30.164l55.1-55.101l2.735,2.735l27.422,27.431L211.501,331.763z M147.504,395.767l-30.167-30.167
				l33.83-33.83l30.166,30.166L147.504,395.767z M81.682,461.595L51.506,431.43l35.661-35.661l30.169,30.169L81.682,461.595z
				 M453.608,293.73c-5.805,11.113-13.235,21.356-22.473,30.597c-9.236,9.232-19.478,16.663-30.592,22.468
				c-18.817,9.829-38.517,14.47-56.781,15.553c7.175-40.506-4.93-73.779-31.105-99.954l-0.666-0.666
				c-0.049-0.05-0.089-0.104-0.138-0.153l-42.67-42.67l-18.454-18.461c-25.991-25.991-59.47-38.182-99.978-31.078
				c1.081-18.259,5.72-37.954,15.547-56.767c5.809-11.12,13.246-21.368,22.495-30.614c9.251-9.255,19.499-16.692,30.62-22.501
				c18.803-9.822,38.487-14.461,56.737-15.545c-7.174,40.5,4.927,73.768,31.098,99.966c8.563,8.554,15.451,15.44,30.984,30.973
				c10.683,10.683,17.278,17.277,23.137,23.132l7.035,7.035c0.019,0.019,0.04,0.035,0.059,0.054
				c0.251,0.251,0.499,0.499,0.753,0.752c26.181,26.209,59.427,38.297,99.946,31.104
				C468.077,255.217,463.436,274.914,453.608,293.73z"/>
			<path d="M278.14,138.735c-8.331-8.331-21.839-8.331-30.17,0c-8.331,8.331-8.331,21.839,0,30.17l96.341,96.341
				c8.331,8.331,21.839,8.331,30.17,0c8.331-8.331,8.331-21.839,0-30.17L278.14,138.735z"/>
		</g>
	</g>
</g>
</svg>