<?xml version="1.0" encoding="iso-8859-1"?>
<!-- Uploaded to: SVG Repo, www.svgrepo.com, Generator: SVG Repo Mixer Tools -->
<svg fill="#000000" height="800px" width="800px" version="1.1" id="Layer_1" xmlns="http://www.w3.org/2000/svg" xmlns:xlink="http://www.w3.org/1999/xlink" 
	 viewBox="0 0 512 512" xml:space="preserve">
<g>
	<g>
		<path d="M448,0c-27.872,0-51.562,17.808-60.346,42.667H124.346C115.562,17.808,91.872,0,64,0C28.645,0,0,28.645,0,64
			s28.645,64,64,64c7.483,0,14.66-1.296,21.333-3.654V384c0,6.89,3.327,13.355,8.934,17.36L243.6,508.026
			c0.081,0.058,0.167,0.106,0.248,0.163c0.211,0.147,0.429,0.284,0.646,0.424c0.316,0.203,0.635,0.398,0.959,0.583
			c0.235,0.134,0.472,0.265,0.712,0.391c0.336,0.175,0.676,0.335,1.018,0.49c0.234,0.106,0.464,0.218,0.703,0.317
			c0.553,0.228,1.112,0.435,1.679,0.614c0.187,0.059,0.38,0.102,0.569,0.156c0.426,0.122,0.853,0.236,1.285,0.33
			c0.239,0.052,0.48,0.095,0.722,0.14c0.421,0.077,0.843,0.142,1.267,0.193c0.216,0.026,0.431,0.055,0.65,0.075
			c1.292,0.118,2.591,0.118,3.883,0c0.218-0.02,0.433-0.048,0.65-0.075c0.424-0.052,0.846-0.116,1.267-0.193
			c0.242-0.044,0.483-0.087,0.722-0.14c0.431-0.095,0.859-0.209,1.285-0.33c0.189-0.054,0.382-0.097,0.569-0.156
			c0.566-0.179,1.126-0.387,1.679-0.614c0.238-0.098,0.469-0.21,0.703-0.317c0.342-0.156,0.682-0.316,1.018-0.49
			c0.241-0.125,0.477-0.257,0.712-0.391c0.324-0.185,0.643-0.38,0.959-0.583c0.217-0.139,0.434-0.277,0.646-0.424
			c0.082-0.057,0.167-0.105,0.248-0.163L417.733,401.36c5.606-4.005,8.934-10.47,8.934-17.36V124.346
			C433.34,126.704,440.517,128,448,128c35.355,0,64-28.645,64-64S483.355,0,448,0z M384,234.667H277.333V85.333H384V234.667z
			 M234.667,234.667H128V85.333h106.667V234.667z M64,85.333c-11.791,0-21.333-9.542-21.333-21.333S52.209,42.667,64,42.667
			S85.333,52.209,85.333,64S75.791,85.333,64,85.333z M128,277.333h106.667v171.879L128,373.021V277.333z M277.333,449.212V277.333
			H384v95.688L277.333,449.212z M448,85.333c-11.791,0-21.333-9.542-21.333-21.333S436.209,42.667,448,42.667
			S469.333,52.209,469.333,64S459.791,85.333,448,85.333z"/>
	</g>
</g>
</svg>