<?xml version="1.0" encoding="iso-8859-1"?>
<!-- Uploaded to: SVG Repo, www.svgrepo.com, Generator: SVG Repo Mixer Tools -->
<svg fill="#000000" height="800px" width="800px" version="1.1" id="Layer_1" xmlns="http://www.w3.org/2000/svg" xmlns:xlink="http://www.w3.org/1999/xlink" 
	 viewBox="0 0 512.009 512.009" xml:space="preserve">
<g>
	<g>
		<path d="M500.212,386.252l-42.667-21.333c-6.847-3.424-15.004-2.916-21.374,1.331l-30.833,20.555v-24.138
			c0-17.039-18.99-27.202-33.167-17.75l-52.164,34.776V181.844c2.798,1.457,5.223,3.054,7.19,4.796
			c8.822,7.81,22.304,6.989,30.114-1.833c7.81-8.822,6.989-22.304-1.832-30.114c-11.937-10.567-30.564-17.987-51.963-22.276
			c-0.264-0.062-0.522-0.138-0.79-0.189c-2.963-0.573-5.989-1.075-9.047-1.533c-0.145-0.022-0.289-0.045-0.433-0.067
			c-0.988-0.146-1.979-0.287-2.976-0.421c-0.764-0.103-1.532-0.2-2.3-0.296c-1.167-0.145-2.337-0.284-3.514-0.413
			c-0.934-0.103-1.87-0.201-2.809-0.293c-0.72-0.07-1.439-0.141-2.161-0.205c-0.714-0.063-1.43-0.12-2.146-0.177V42.667
			c11.782,0,21.333-9.551,21.333-21.333C298.671,9.551,289.12,0,277.338,0h-42.667c-11.782,0-21.333,9.551-21.333,21.333
			c0,11.782,9.551,21.333,21.333,21.333v86.284c-31.249,2.687-60.365,11.11-77.548,25.236c-9.101,7.482-10.414,20.926-2.931,30.027
			c7.482,9.101,20.926,10.414,30.027,2.931c2.178-1.791,4.803-3.432,7.788-4.93v180.459c-0.001,0-0.003,0-0.004,0h-42.665v-0.006
			c0-11.782-9.551-21.333-21.333-21.333H42.671c-8.081,0-15.467,4.565-19.081,11.793L2.256,395.795
			c-1.481,2.962-2.252,6.229-2.252,9.541v85.333c0,11.782,9.551,21.333,21.333,21.333h63.871c0.043,0,0.084,0.006,0.127,0.006
			h149.333c0.088,0,0.173-0.008,0.26-0.009h149.075h106.667c11.782,0,21.333-9.551,21.333-21.333v-85.333
			C512.004,397.253,507.439,389.866,500.212,386.252z M362.671,402.528v24.138v42.667H247.856l-10.666-21.331l5.897-11.795
			l13.713-27.426l7.477-14.954l22.558,15.046c0.086,0.058,0.175,0.106,0.262,0.162l21.073,14.049c7.166,4.777,16.501,4.777,23.667,0
			L362.671,402.528z M251.978,170.731c1.384-0.032,2.768-0.05,4.153-0.055c0.481-0.002,0.962-0.001,1.443-0.001
			c6.737,0.023,13.346,0.346,19.766,0.968v179.607l-5.269-3.512l-4.227-2.819c-3.671-2.448-7.794-3.6-11.858-3.591
			c-0.294,0.001-0.588,0.012-0.881,0.025c-0.075,0.003-0.149,0.002-0.224,0.006c-7.36,0.398-14.371,4.592-17.959,11.766l-2.25,4.5
			V171.83c5.335-0.563,10.78-0.923,16.245-1.076C251.272,170.745,251.625,170.739,251.978,170.731z M42.671,410.372l13.185-26.369
			h46.509l-34.778,52.166c-1.168,1.752-2.064,3.658-2.668,5.652c-0.605,1.996-0.917,4.08-0.917,6.188v21.327H42.671V410.372z
			 M106.671,469.342v-14.877l32.748-49.123h49.122l3.499,1.166c0.16,2.907,0.912,5.755,2.218,8.366l5.895,11.791l-5.897,11.795
			c-0.751,1.502-1.314,3.071-1.69,4.672c-1.128,4.805-0.566,9.911,1.687,14.417l5.896,11.793H106.671z M469.338,469.333h-64v-31.249
			l44.199-29.466l19.801,9.9V469.333z"/>
	</g>
</g>
</svg>