<?xml version="1.0" encoding="iso-8859-1"?>
<!-- Uploaded to: SVG Repo, www.svgrepo.com, Generator: SVG Repo Mixer Tools -->
<svg height="800px" width="800px" version="1.1" id="Layer_1" xmlns="http://www.w3.org/2000/svg" xmlns:xlink="http://www.w3.org/1999/xlink" 
	 viewBox="0 0 512 512" xml:space="preserve">
<g>
	<path style="fill:#8A9099;" d="M512,256c0,141.383-114.617,256-256,256S0,397.383,0,256S114.617,0,256,0S512,114.617,512,256"/>
	<path style="fill:#A4ACBC;" d="M467.862,256c0,117.01-94.852,211.862-211.862,211.862S44.138,373.01,44.138,256
		S138.99,44.138,256,44.138S467.862,138.99,467.862,256"/>
	<g>
		<polygon style="fill:#C7CFE3;" points="247.172,467.862 264.828,467.862 264.828,317.793 247.172,317.793 		"/>
		<polygon style="fill:#C7CFE3;" points="247.172,194.207 264.828,194.207 264.828,44.138 247.172,44.138 		"/>
		<polygon style="fill:#C7CFE3;" points="44.138,264.828 194.207,264.828 194.207,247.172 44.138,247.172 		"/>
		<polygon style="fill:#C7CFE3;" points="317.793,264.828 467.862,264.828 467.862,247.172 317.793,247.172 		"/>
		<path style="fill:#C7CFE3;" d="M317.793,256c0,34.127-27.666,61.793-61.793,61.793S194.207,290.127,194.207,256
			s27.666-61.793,61.793-61.793S317.793,221.873,317.793,256"/>
		<path style="fill:#C7CFE3;" d="M194.207,141.241h-44.138c-4.873,0-8.828-3.955-8.828-8.828c0-4.873,3.955-8.828,8.828-8.828
			h44.138c4.873,0,8.828,3.955,8.828,8.828C203.034,137.287,199.08,141.241,194.207,141.241"/>
		<path style="fill:#C7CFE3;" d="M167.724,185.379h-44.138c-4.873,0-8.828-3.955-8.828-8.828c0-4.873,3.955-8.828,8.828-8.828
			h44.138c4.873,0,8.828,3.955,8.828,8.828C176.552,181.425,172.597,185.379,167.724,185.379"/>
		<path style="fill:#C7CFE3;" d="M361.931,335.448h-44.138c-4.873,0-8.828-3.955-8.828-8.828c0-4.873,3.955-8.828,8.828-8.828
			h44.138c4.873,0,8.828,3.955,8.828,8.828C370.759,331.493,366.804,335.448,361.931,335.448"/>
		<path style="fill:#C7CFE3;" d="M388.414,379.586h-44.138c-4.873,0-8.828-3.955-8.828-8.828c0-4.873,3.955-8.828,8.828-8.828
			h44.138c4.873,0,8.828,3.955,8.828,8.828C397.241,375.631,393.287,379.586,388.414,379.586"/>
		<path style="fill:#C7CFE3;" d="M335.448,176.552c-2.26,0-4.52-0.865-6.241-2.586c-3.452-3.452-3.452-9.031,0-12.482L355.69,135
			c3.452-3.452,9.031-3.452,12.482,0s3.452,9.031,0,12.482l-26.483,26.483C339.968,175.687,337.708,176.552,335.448,176.552"/>
		<path style="fill:#C7CFE3;" d="M361.931,176.552c-2.26,0-4.52-0.865-6.241-2.586l-26.483-26.483
			c-3.452-3.452-3.452-9.031,0-12.482c3.452-3.452,9.031-3.452,12.482,0l26.483,26.483c3.452,3.452,3.452,9.031,0,12.482
			C366.451,175.687,364.191,176.552,361.931,176.552"/>
		<path style="fill:#C7CFE3;" d="M150.069,370.759c-2.26,0-4.52-0.865-6.241-2.587c-3.452-3.452-3.452-9.031,0-12.482l26.483-26.483
			c3.452-3.452,9.031-3.452,12.482,0c3.452,3.452,3.452,9.031,0,12.482l-26.483,26.483
			C154.589,369.893,152.329,370.759,150.069,370.759"/>
		<path style="fill:#C7CFE3;" d="M176.552,370.759c-2.26,0-4.52-0.865-6.241-2.587l-26.483-26.483
			c-3.452-3.452-3.452-9.031,0-12.482c3.452-3.452,9.031-3.452,12.482,0l26.483,26.483c3.452,3.452,3.452,9.031,0,12.482
			C181.071,369.893,178.812,370.759,176.552,370.759"/>
	</g>
	<path style="fill:#FFFFFF;" d="M229.517,264.828c-4.873,0-8.828-3.955-8.828-8.828c0-19.474,15.837-35.31,35.31-35.31
		c4.873,0,8.828,3.955,8.828,8.828c0,4.873-3.955,8.828-8.828,8.828c-9.737,0-17.655,7.918-17.655,17.655
		C238.345,260.873,234.39,264.828,229.517,264.828"/>
</g>
</svg>