<?xml version="1.0" encoding="iso-8859-1"?>
<!-- Uploaded to: SVG Repo, www.svgrepo.com, Generator: SVG Repo Mixer Tools -->
<svg height="800px" width="800px" version="1.1" id="Layer_1" xmlns="http://www.w3.org/2000/svg" xmlns:xlink="http://www.w3.org/1999/xlink" 
	 viewBox="0 0 512 512" xml:space="preserve">
<g transform="translate(1)">
	<path style="fill:#00DA6C;" d="M276.319,503.467h-44.373c-6.827,0-11.947-5.12-11.947-11.947v-11.093
		c0-5.973,5.12-11.093,11.947-11.093h45.227c6.827,0,11.947,5.12,11.947,11.947v11.093
		C288.265,498.347,283.145,503.467,276.319,503.467"/>
	<path style="fill:#00AD55;" d="M276.319,469.333h-17.067c6.827,0,11.947,5.12,11.947,11.947v11.093
		c0,6.827-5.12,11.947-11.947,11.947h17.067c6.827,0,11.947-5.12,11.947-11.947V481.28
		C288.265,474.453,283.145,469.333,276.319,469.333"/>
	<path style="fill:#00DA6C;" d="M254.985,366.933L254.985,366.933c-20.48,0-40.107-5.973-56.32-17.067
		c-9.387-5.973-10.24-18.773-2.56-26.453l0,0c5.973-5.12,14.507-5.973,21.333-1.707c10.24,6.827,23.04,11.093,36.693,11.093
		c14.507,0,27.307-4.267,38.4-11.947c6.827-4.267,15.36-3.413,21.333,1.707l0,0c7.68,7.68,6.827,19.627-1.707,25.6
		C295.092,360.96,275.465,366.933,254.985,366.933"/>
	<path style="fill:#00AD55;" d="M317.279,322.56L317.279,322.56c-5.973-5.12-14.507-6.827-21.333-1.707
		c-0.853,0.853-1.707,0.853-2.56,0.853l0.853,0.853l0,0c7.68,7.68,6.827,19.627-1.707,26.453
		c-13.653,9.387-29.867,15.36-46.08,17.067c3.413,0.853,6.827,0.853,10.24,0.853h0.853c20.48,0,40.96-6.827,58.027-17.92
		C324.105,343.04,324.959,330.24,317.279,322.56"/>
	<g>
		<polygon style="fill:#FFE100;" points="237.065,469.333 271.199,469.333 271.199,366.933 237.065,366.933 		"/>
		<path style="fill:#FFE100;" d="M254.132,332.8c12.8,0,23.893-3.413,34.133-9.387V85.333l-34.133-76.8l-34.133,76.8V322.56
			C230.239,329.387,241.332,332.8,254.132,332.8"/>
	</g>
	<path style="fill:#FFA800;" d="M255.839,1.707L245.599,25.6l27.307,62.293v236.373c5.973-1.707,11.947-4.267,17.067-6.827V79.36
		L255.839,1.707z"/>
	<path d="M271.199,477.867h-34.133c-5.12,0-8.533-3.413-8.533-8.533v-102.4c0-5.12,3.413-8.533,8.533-8.533h34.133
		c5.12,0,8.533,3.413,8.533,8.533v102.4C279.732,474.453,276.319,477.867,271.199,477.867z M245.599,460.8h17.067v-85.333h-17.067
		V460.8z"/>
	<path d="M276.319,512h-44.373c-11.093,0-20.48-9.387-20.48-20.48v-11.093c0-10.24,9.387-19.627,20.48-19.627h45.227
		c11.093,0,20.48,9.387,20.48,20.48v11.093C296.799,502.613,287.412,512,276.319,512z M231.945,477.867
		c-1.707,0-3.413,1.707-3.413,3.413v11.093c0,0.853,1.707,2.56,3.413,2.56h45.227c1.707,0,3.413-1.707,3.413-3.413v-11.093
		c0-1.707-1.707-3.413-3.413-3.413h-45.227V477.867z"/>
	<path d="M254.985,375.467L254.985,375.467c-22.187,0-43.52-6.827-61.44-18.773c-6.827-4.267-11.093-11.947-11.093-19.627
		c-0.853-7.68,2.56-15.36,7.68-20.48c8.533-8.533,22.187-9.387,31.573-2.56c9.387,6.827,20.48,10.24,32.427,10.24
		c12.8,0,23.893-3.413,34.133-10.24s23.04-5.12,31.573,2.56c5.973,5.12,8.533,12.8,7.68,20.48
		c-0.853,7.68-4.267,14.507-10.24,18.773C298.505,368.64,277.172,375.467,254.985,375.467z M207.199,326.827
		c-1.707,0-4.267,0.853-5.973,2.56c-2.56,2.56-2.56,5.12-2.56,6.827c0,2.56,1.707,5.12,4.267,6.827
		c15.36,9.387,32.427,15.36,51.2,15.36l0.853,8.533V358.4c18.773,0,37.547-5.973,52.907-16.213c2.56-1.707,3.413-4.267,3.413-5.973
		c0-2.56-0.853-5.12-2.56-6.827c-2.56-2.56-6.827-3.413-10.24-0.853c-13.653,7.68-28.16,12.8-44.373,12.8
		c-15.36,0-29.867-4.267-41.813-12.8C210.612,326.827,208.905,326.827,207.199,326.827z"/>
	<path d="M254.132,341.333L254.132,341.333c-13.653,0-27.307-4.267-38.4-11.093c-2.56-1.707-4.267-4.267-4.267-7.68V85.333
		c0-0.853,0-2.56,0.853-3.413l34.133-76.8c0.853-3.413,4.267-5.12,7.68-5.12s6.827,1.707,7.68,5.12l34.133,76.8
		c0.853,0.853,0.853,2.56,0.853,3.413v238.08c0,3.413-1.707,5.973-4.267,7.68C280.585,337.92,267.785,341.333,254.132,341.333
		L254.132,341.333z M228.532,318.293c7.68,3.413,17.067,5.973,25.6,5.973c9.387,0,17.92-1.707,25.6-5.973V87.04l-25.6-58.027
		l-25.6,58.027V318.293z"/>
	<path d="M254.132,290.133c-5.12,0-8.533-3.413-8.533-8.533V104.96c0-5.12,3.413-8.533,8.533-8.533s8.533,3.413,8.533,8.533V281.6
		C262.665,286.72,259.252,290.133,254.132,290.133z"/>
</g>
</svg>