<?xml version="1.0" encoding="iso-8859-1"?>
<!-- Uploaded to: SVG Repo, www.svgrepo.com, Generator: SVG Repo Mixer Tools -->
<svg fill="#000000" height="800px" width="800px" version="1.1" id="Layer_1" xmlns="http://www.w3.org/2000/svg" xmlns:xlink="http://www.w3.org/1999/xlink" 
	 viewBox="0 0 512.005 512.005" xml:space="preserve">
<g transform="translate(0 -1)">
	<g>
		<g>
			<path d="M503.789,5.528c-5.184-4.075-11.925-5.483-18.283-3.883l-82.795,20.693H109.293L26.498,1.645
				C20.162,0.088,13.4,1.474,8.216,5.528C3.032,9.56,0.002,15.768,0.002,22.338v128c0,6.571,3.029,12.779,8.213,16.811
				c3.776,2.965,8.405,4.523,13.12,4.523c1.728,0,3.456-0.213,5.163-0.64l58.837-14.699v122.005h149.333v-128h42.667v128h149.333
				V156.333l58.837,14.699c1.707,0.427,3.435,0.64,5.163,0.64c4.715,0,9.323-1.557,13.12-4.523
				c5.184-4.032,8.213-10.24,8.213-16.811v-128C512.002,15.768,508.973,9.56,503.789,5.528z M384.002,107.672h-128h-128V65.005h256
				V107.672z"/>
			<path d="M277.336,513.005h128c11.797,0,21.333-9.557,21.333-21.333V321.005H277.336V513.005z"/>
			<path d="M85.336,491.672c0,11.776,9.536,21.333,21.333,21.333h128v-192H85.336V491.672z"/>
		</g>
	</g>
</g>
</svg>