<?xml version="1.0" encoding="iso-8859-1"?>
<!-- Uploaded to: SVG Repo, www.svgrepo.com, Generator: SVG Repo Mixer Tools -->
<svg fill="#000000" height="800px" width="800px" version="1.1" id="Layer_1" xmlns="http://www.w3.org/2000/svg" xmlns:xlink="http://www.w3.org/1999/xlink" 
	 viewBox="0 0 512 512" xml:space="preserve">
<g>
	<g>
		<path d="M490.7,256.05h-85.3c-7.5,0-13.7,4.1-17.5,9.9l-106.3-159.2h81c11.8,0,21.3-9.6,21.3-21.3v-64
			c0.1-11.9-9.5-21.4-21.2-21.4H256c-11.8,0-21.3,9.6-21.3,21.3v64v14.9l-110.5,165.7c-3.8-5.8-10.1-9.9-17.5-9.9H21.3
			c-11.7,0-21.3,9.5-21.3,21.3v85.3c0,0.1,0.1,0.3,0.1,0.4c0,2.5,0.6,4.9,1.5,7.3c0.2,0.6,0.6,1.1,0.8,1.7c0.4,0.8,0.7,1.7,1.2,2.5
			l39.1,58.6v57.5c0,11.8,9.6,21.3,21.3,21.3h384c11.8,0,21.3-9.6,21.3-21.3v-57.5l39.1-58.6c0.5-0.8,0.8-1.7,1.2-2.5
			c0.3-0.6,0.6-1.1,0.8-1.7c0.9-2.3,1.4-4.8,1.5-7.3c0-0.1,0.1-0.2,0.1-0.4v-85.3C512,265.55,502.4,256.05,490.7,256.05z
			 M234.7,298.75h42.7v42.7h-42.7V298.75z M42.7,341.35v-42.7h42.7v32v10.7H42.7z M436.6,405.35H75.4l-14.2-21.3h45.5h106.7h85.3
			h106.7h45.5L436.6,405.35z M469.3,341.35h-42.7v-10.7v-32h42.7V341.35z"/>
	</g>
</g>
</svg>