<?xml version="1.0" encoding="iso-8859-1"?>
<!-- Uploaded to: SVG Repo, www.svgrepo.com, Generator: SVG Repo Mixer Tools -->
<svg fill="#000000" height="800px" width="800px" version="1.1" id="Layer_1" xmlns="http://www.w3.org/2000/svg" xmlns:xlink="http://www.w3.org/1999/xlink" 
	 viewBox="0 0 512.001 512.001" xml:space="preserve">
<g>
	<g>
		<g>
			<path d="M149.335,192.001c-11.776,0-21.333,9.557-21.333,21.333v21.333c0,11.776,9.557,21.333,21.333,21.333
				s21.333-9.557,21.333-21.333v-21.333C170.668,201.558,161.111,192.001,149.335,192.001z"/>
			<path d="M149.335,298.667c-11.776,0-21.333,9.557-21.333,21.333v21.333c0,11.776,9.557,21.333,21.333,21.333
				s21.333-9.557,21.333-21.333v-21.333C170.668,308.225,161.111,298.667,149.335,298.667z"/>
			<path d="M362.668,405.334c-11.755,0-21.333,9.579-21.333,21.333v85.333h42.667v-85.333
				C384.001,414.913,374.423,405.334,362.668,405.334z"/>
			<path d="M490.668,234.667v-21.333c0-11.776-9.557-21.333-21.333-21.333s-21.333,9.557-21.333,21.333v21.333h-42.667v-21.333
				c0-11.776-9.557-21.333-21.333-21.333s-21.333,9.557-21.333,21.333v21.333h-42.667v-21.333c0-11.776-9.557-21.333-21.333-21.333
				s-21.333,9.557-21.333,21.333v21.333h-21.333v-64h21.333c8.981,0,17.003-5.632,20.053-14.08s0.491-17.899-6.4-23.637
				L170.668,32.683V21.334c0-11.776-9.557-21.333-21.333-21.333s-21.333,9.557-21.333,21.333v11.349L7.681,132.95
				c-6.891,5.739-9.451,15.189-6.4,23.637c3.051,8.448,11.072,14.08,20.053,14.08h21.333v213.333
				c-9.792,0-18.325,6.677-20.693,16.149L0.641,485.483c-1.6,6.379-0.171,13.141,3.883,18.304c4.032,5.184,10.24,8.213,16.811,8.213
				h256h21.333v-85.333c0-35.285,28.715-64,64-64s64,28.715,64,64v85.333h64c11.776,0,21.333-9.557,21.333-21.333V256.001
				C512.001,244.225,502.444,234.667,490.668,234.667z M85.335,170.667h128v85.333v128h-128V170.667z M48.663,469.334l10.667-42.667
				h4.672h170.667h4.672l10.667,42.667H48.663z M320.001,341.334c0,11.776-9.557,21.333-21.333,21.333s-21.333-9.557-21.333-21.333
				v-21.333c0-11.776,9.557-21.333,21.333-21.333s21.333,9.557,21.333,21.333V341.334z M448.001,341.334
				c0,11.776-9.557,21.333-21.333,21.333s-21.333-9.557-21.333-21.333v-21.333c0-11.776,9.557-21.333,21.333-21.333
				s21.333,9.557,21.333,21.333V341.334z"/>
		</g>
	</g>
</g>
</svg>