<?xml version="1.0" encoding="iso-8859-1"?>
<!-- Uploaded to: SVG Repo, www.svgrepo.com, Generator: SVG Repo Mixer Tools -->
<svg fill="#000000" height="800px" width="800px" version="1.1" id="Layer_1" xmlns="http://www.w3.org/2000/svg" xmlns:xlink="http://www.w3.org/1999/xlink" 
	 viewBox="0 0 512 512" xml:space="preserve">
<g transform="translate(1 1)">
	<g>
		<g>
			<path d="M468.333-1c-14.218,0-26.621,6.649-34.336,17.067H7.533C2.413,16.067-1,19.48-1,24.6v34.133
				c0,5.12,3.413,8.533,8.533,8.533h85.333v67.318c-21.839-10.116-34.133-21.922-34.133-33.185c0-5.12-3.413-8.533-8.533-8.533
				s-8.533,3.413-8.533,8.533v213.333C41.667,421.4,135.533,511,246.467,511s204.8-89.6,204.8-196.267V101.4
				c0-5.12-3.413-8.533-8.533-8.533S434.2,96.28,434.2,101.4c0,13.927-18.793,28.686-51.2,40.05V67.267h50.997
				c7.715,10.418,20.118,17.067,34.336,17.067C492.227,84.333,511,65.56,511,41.667C511,17.773,492.227-1,468.333-1z M434.2,132.973
				v181.76c0,97.28-86.187,179.2-187.733,179.2s-187.733-81.92-187.733-179.2v-181.76c28.16,24.747,92.16,45.227,187.733,45.227
				S406.04,158.573,434.2,132.973z M365.933,146.763c-31.514,8.689-72.418,14.37-119.467,14.37
				c-56.071,0-103.412-8.069-136.533-19.683V67.267h256V146.763z M16.067,50.2V33.133h410.425c-0.017,0.085-0.029,0.172-0.045,0.258
				c-0.773,2.529-0.781,5.798-0.781,8.276c0,2.477,0.007,5.747,0.781,8.276c0.016,0.085,0.028,0.172,0.045,0.258H16.067z
				 M468.333,67.267c-9.144,0-16.929-4.41-21.437-11.302c-0.199-0.519-0.435-1.026-0.75-1.497c-1.234-2.056-2.063-4.112-2.6-6.168
				c-0.216-0.856-0.392-1.731-0.523-2.625c-0.002-0.017-0.005-0.034-0.007-0.05c-0.058-0.403-0.107-0.81-0.148-1.22
				c-0.009-0.095-0.015-0.189-0.023-0.284c-0.03-0.345-0.057-0.691-0.075-1.041c-0.022-0.471-0.037-0.942-0.037-1.412
				c0-0.439,0.011-0.874,0.031-1.306c0.001-0.023,0.002-0.046,0.003-0.069c0.02-0.411,0.05-0.818,0.088-1.222
				c0.009-0.093,0.02-0.186,0.03-0.279c0.018-0.176,0.042-0.35,0.064-0.525c0.421-3.133,1.545-6.266,4.051-9.399
				c0.672-1.008,1.069-2.15,1.212-3.318c4.626-5.837,11.811-9.482,20.121-9.482c14.507,0,25.6,11.093,25.6,25.6
				C493.933,56.173,482.84,67.267,468.333,67.267z"/>
			<path d="M246.467,221.72c-4.315-0.431-24.56-0.856-46.498,8.642c-7.47-8.961-34.402-35.096-81.502-35.096
				c-4.267,0-7.68,3.413-8.533,7.68c0,2.478-6.396,59.337,31.13,103.223l-5.531,18.804c-6.827,23.04-0.853,47.787,16.213,64.853
				c10.24,10.24,20.48,18.773,29.013,24.747l12.8,34.133c1.695,5.084,2.557,8.485,51.851,11.039
				c0.344,0.033,0.694,0.055,1.056,0.055c0.366,0,0.72-0.022,1.068-0.056c48.442-2.554,50.138-5.954,50.985-11.037l12.787-34.099
				c0.279-0.021,0.565-0.034,0.866-0.034c8.533-5.973,18.773-14.507,29.013-24.747c16.213-17.067,23.04-41.813,16.213-64.853
				l-5.531-18.804C389.396,262.284,383,205.425,383,202.947c-0.853-4.267-4.267-7.68-8.533-7.68
				c-47.749,0-74.76,27.617-81.789,35.564C270.597,221.286,250.371,221.72,246.467,221.72z M184.173,238.787
				c-6.364,4.354-12.192,9.508-17.401,15.388c-0.166,0.186-0.33,0.381-0.495,0.569c-0.46,0.528-0.925,1.049-1.375,1.588
				c-6.767,8.05-12.804,17.944-17.531,30.077C128.703,259.137,127,226.811,127,212.333
				C157.72,214.893,176.493,230.253,184.173,238.787z M246.467,391.533c-10.24,0-17.067-5.12-17.067-8.533
				c0-3.413,6.827-8.533,17.067-8.533s17.067,5.12,17.067,8.533C263.533,386.413,256.707,391.533,246.467,391.533z M365.933,212.333
				c0.853,14.496-1.704,46.885-20.44,74.179c-0.39-0.973-0.789-1.93-1.195-2.874c-7.703-19.094-19.299-34.295-35.539-44.852
				C316.44,230.253,335.213,214.893,365.933,212.333z M289.6,247.204c0.388,0.343,0.796,0.673,1.24,0.969
				c13.493,7.04,24.162,17.306,32.009,31.075c0.001,0.002,0.002,0.003,0.003,0.005c2.834,4.974,5.298,10.407,7.395,16.308
				c0.029,0.082,0.058,0.164,0.087,0.246c0.51,1.446,1,2.917,1.466,4.419l0,0l8.533,29.013c5.12,17.067,0.853,35.84-11.947,47.787
				c-4.292,4.682-8.582,8.823-12.711,12.435c-0.135-13.195-3.922-26.292-11.182-37.182c-2.56-4.267-7.68-5.12-11.947-2.56
				c-4.267,2.56-5.12,7.68-2.56,11.947c8.533,13.653,11.093,31.573,5.12,46.933l-11.093,30.72
				c-5.455,0.682-17.448,1.908-29.013,2.809v-34.318c14.679-2.774,25.6-12.579,25.6-24.811c0-14.507-15.36-25.6-34.133-25.6
				s-34.133,11.093-34.133,25.6c0,12.232,10.921,22.036,25.6,24.811v34.426c-12.139-0.715-24.348-1.537-29.867-2.917l-11.093-30.72
				c-5.973-15.36-4.267-33.28,5.12-46.933c2.56-4.267,1.707-9.387-2.56-11.947s-9.387-1.707-11.947,2.56
				c-7.098,11.153-10.882,23.813-11.174,36.547c-4.133-3.582-8.422-7.503-12.719-11.8c-11.947-11.947-17.067-30.72-11.947-47.787
				l6.654-22.623c0.056-0.139,0.126-0.277,0.173-0.417l2.56-5.973c6.827-23.893,21.333-41.813,40.96-52.053
				c0.691-0.461,1.313-0.987,1.863-1.555c20.696-9.975,40.247-8.685,41.657-8.685h0.853v0
				C248.384,237.933,268.609,236.588,289.6,247.204z"/>
			<path d="M272.067,323.267c5.12,0,8.533-3.413,8.533-8.533s3.413-8.533,8.533-8.533s8.533-3.413,8.533-8.533
				s-3.413-8.533-8.533-8.533c-14.507,0-25.6,11.093-25.6,25.6C263.533,319.853,266.947,323.267,272.067,323.267z"/>
			<path d="M203.8,289.133c-5.12,0-8.533,3.413-8.533,8.533s3.413,8.533,8.533,8.533c5.12,0,8.533,3.413,8.533,8.533
				s3.413,8.533,8.533,8.533s8.533-3.413,8.533-8.533C229.4,300.227,218.307,289.133,203.8,289.133z"/>
		</g>
	</g>
</g>
</svg>