<?xml version="1.0" encoding="iso-8859-1"?>
<!-- Uploaded to: SVG Repo, www.svgrepo.com, Generator: SVG Repo Mixer Tools -->
<svg fill="#000000" height="800px" width="800px" version="1.1" id="Layer_1" xmlns="http://www.w3.org/2000/svg" xmlns:xlink="http://www.w3.org/1999/xlink" 
	 viewBox="0 0 512.053 512.053" xml:space="preserve">
<g transform="translate(0 1)">
	<g>
		<g>
			<path d="M512.027,340.36c0-14.507-11.093-25.6-25.6-25.6h-0.105c1.212-1.092,2.397-2.217,3.518-3.413
				c23.893-24.747,22.187-63.147,22.187-64c0-41.813-29.867-65.707-47.787-75.947c-11.093-6.827-25.6-10.24-38.4-9.387
				c-7.277,0.606-14.117,1.216-19.92,2.435c-17.667-22.299-46.16-36.065-77.36-37.422c-2.56,0-4.267,0-4.267,0
				c-8.95,0-17.121,0.958-24.498,2.521L264.56,72.098V50.227h17.067c5.12,0,8.533-3.413,8.533-8.533c0-5.12-3.413-8.533-8.533-8.533
				H264.56V16.093c0-5.12-3.413-8.533-8.533-8.533s-8.533,3.413-8.533,8.533V33.16h-17.067c-5.12,0-8.533,3.413-8.533,8.533
				c0,5.12,3.413,8.533,8.533,8.533h17.067v23.263l-34.85,56.82c-7.256-1.505-15.266-2.43-24.03-2.43c0,0-1.707,0-5.12,0
				c-30.559,0.664-58.528,14.261-76.265,35.953c-6.027-1.381-13.276-2.028-21.015-2.673c-13.653-0.853-27.307,2.56-38.4,9.387
				c-17.92,10.24-47.787,34.133-47.787,75.947c0,0.853-1.707,39.253,22.187,64c1.334,1.512,2.748,2.921,4.21,4.267h-0.797
				c-14.507,0-25.6,11.093-25.6,25.6c0,14.507,11.093,25.6,25.6,25.6v85.333c-14.507,0-25.6,11.093-25.6,25.6
				c0,14.507,11.093,25.6,25.6,25.6h460.8c14.507,0,25.6-11.093,25.6-25.6c0-14.507-11.093-25.6-25.6-25.6V365.96
				C500.933,365.96,512.027,354.867,512.027,340.36z M427.547,177.373c9.387,0,20.48,1.707,28.16,6.827
				c17.92,11.093,39.253,29.867,39.253,62.293c0,0,1.707,32.427-17.067,52.053c-10.24,11.093-24.747,16.213-42.667,16.213h-59.733
				v-1.707l15.661-24.144l25.299-38.149c5.71-9.015,7.601-19.827,7.629-30.129c0.248-19.288-6.215-37.015-6.776-38.137
				c0-1.707-0.853-2.56-1.707-4.267C419.013,178.227,423.28,177.373,427.547,177.373z M325.147,143.24c0,0,0.853,0,3.413,0
				c24.124,1.237,45.552,10.999,60.07,26.35l-0.337,0.104l6.827,9.387c3.413,4.267,5.12,7.68,6.827,11.093
				c2.12,5.83,5.554,18.245,5.605,30.701c-0.022,7.461-1.27,14.802-4.752,20.499l-30.473,45.977l-13.9,20.583v0.389l-4.267,6.437
				h-88.747V164.602c4.639-4.233,15.554-12.721,32.427-17.095c0.948-0.316,1.895-0.751,2.757-1.301
				C307.787,144.41,315.978,143.24,325.147,143.24z M229.573,134.707l26.453-42.667l26.453,42.667
				c-0.172,0.074-0.338,0.149-0.509,0.223c-12.078,4.797-20.809,10.774-26.057,14.997c-0.439-0.342-0.897-0.692-1.378-1.051
				C249.192,144.732,240.449,139.368,229.573,134.707z M183.493,144.093c2.56,0,3.413,0,4.267,0c14.358,0,26.169,2.702,35.513,6.253
				c12.25,4.869,20.383,11.054,24.22,14.39V314.76h-89.6l-4.267-6.363v-0.464l-44.373-65.707c-9.387-16.213-2.56-43.52,0.853-52.053
				c0.497-1.137,1.033-2.251,1.586-3.355c1.531-2.848,3.384-5.497,5.241-8.592l3.819-5.251
				C135.24,155.556,157.841,144.751,183.493,144.093z M34.16,298.547c-18.773-19.627-17.067-51.2-17.067-52.053
				c0-31.573,21.333-51.2,39.253-61.44c6.827-4.267,17.067-6.827,25.6-6.827c0.853,0,1.707,0,1.707,0c4.267,0,8.533,0,11.947,0.853
				c0,1.707-0.853,2.56-1.707,4.267s-15.36,40.96,0.853,67.413l41.813,62.293v1.707H76.827C58.907,314.76,44.4,309.64,34.16,298.547
				z M494.96,476.893c0,5.12-3.413,8.533-8.533,8.533h-460.8c-5.12,0-8.533-3.413-8.533-8.533s3.413-8.533,8.533-8.533h460.8
				C491.547,468.36,494.96,471.773,494.96,476.893z M469.36,451.293H42.693V365.96H469.36V451.293z M25.627,348.893
				c-5.12,0-8.533-3.413-8.533-8.533c0-5.12,3.413-8.533,8.533-8.533h51.2h72.533h4.267h93.867h17.067h0.853h93.013h4.267h72.533
				h51.2c5.12,0,8.533,3.413,8.533,8.533c0,5.12-3.413,8.533-8.533,8.533H25.627z"/>
			<path d="M153.627,417.16h68.267c5.12,0,8.533-3.413,8.533-8.533c0-5.12-3.413-8.533-8.533-8.533h-68.267
				c-5.12,0-8.533,3.413-8.533,8.533C145.093,413.747,148.507,417.16,153.627,417.16z"/>
			<path d="M290.16,417.16h68.267c5.12,0,8.533-3.413,8.533-8.533c0-5.12-3.413-8.533-8.533-8.533H290.16
				c-5.12,0-8.533,3.413-8.533,8.533C281.627,413.747,285.04,417.16,290.16,417.16z"/>
			<path d="M256.027,417.16c5.12,0,8.533-3.413,8.533-8.533c0-5.12-3.413-8.533-8.533-8.533s-8.533,3.413-8.533,8.533
				C247.493,413.747,250.907,417.16,256.027,417.16z"/>
			<path d="M426.693,417.16h17.067c5.12,0,8.533-3.413,8.533-8.533c0-5.12-3.413-8.533-8.533-8.533h-17.067
				c-5.12,0-8.533,3.413-8.533,8.533C418.16,413.747,421.573,417.16,426.693,417.16z"/>
			<path d="M392.56,417.16c5.12,0,8.533-3.413,8.533-8.533c0-5.12-3.413-8.533-8.533-8.533c-5.12,0-8.533,3.413-8.533,8.533
				C384.027,413.747,387.44,417.16,392.56,417.16z"/>
			<path d="M68.293,417.16H85.36c5.12,0,8.533-3.413,8.533-8.533c0-5.12-3.413-8.533-8.533-8.533H68.293
				c-5.12,0-8.533,3.413-8.533,8.533C59.76,413.747,63.173,417.16,68.293,417.16z"/>
			<path d="M119.493,417.16c5.12,0,8.533-3.413,8.533-8.533c0-5.12-3.413-8.533-8.533-8.533s-8.533,3.413-8.533,8.533
				C110.96,413.747,114.373,417.16,119.493,417.16z"/>
		</g>
	</g>
</g>
</svg>