<?xml version="1.0" encoding="iso-8859-1"?>
<!-- Uploaded to: SVG Repo, www.svgrepo.com, Generator: SVG Repo Mixer Tools -->
<svg fill="#000000" height="800px" width="800px" version="1.1" id="Layer_1" xmlns="http://www.w3.org/2000/svg" xmlns:xlink="http://www.w3.org/1999/xlink" 
	 viewBox="0 0 512 512" xml:space="preserve">
<g transform="translate(1 1)">
	<g>
		<g>
			<path d="M341.187,212.333c-14.507,0-25.6,11.093-25.6,25.6c0,5.12,3.413,8.533,8.533,8.533c4.267,0,8.533-3.413,8.533-8.533
				s3.413-8.533,8.533-8.533c5.12,0,8.533-3.413,8.533-8.533S346.307,212.333,341.187,212.333z"/>
			<path d="M255.853,212.333c-5.12,0-8.533,3.413-8.533,8.533s3.413,8.533,8.533,8.533s8.533,3.413,8.533,8.533
				s3.413,8.533,8.533,8.533c4.267,0,8.533-3.413,8.533-8.533C281.453,223.427,270.36,212.333,255.853,212.333z"/>
			<path d="M502.467,75.8H314.733H280.6H92.867c-5.12,0-8.533,3.413-8.533,8.533v34.133H67.267V76.003
				c10.418-7.715,17.067-20.118,17.067-34.336C84.333,17.773,65.56-1,41.667-1C17.773-1-1,17.773-1,41.667
				c0,14.218,6.649,26.621,17.067,34.336V459.8H7.533c-5.12,0-8.533,3.413-8.533,8.533v34.133c0,5.12,3.413,8.533,8.533,8.533H75.8
				c5.12,0,8.533-3.413,8.533-8.533v-34.133c0-5.12-3.413-8.533-8.533-8.533h-8.533v-51.2h17.067v34.133
				c0,5.12,3.413,8.533,8.533,8.533H280.6h34.133h187.733c5.12,0,8.533-3.413,8.533-8.533V279.747v-34.133V84.333
				C511,79.213,507.587,75.8,502.467,75.8z M493.933,237.08h-87.743l-2.053-6.979c38.231-43.983,31.769-101.462,31.769-103.954
				c-0.853-4.267-4.267-7.68-8.533-7.68c-48.297,0-75.378,28.256-82.024,35.831c-7.786-3.426-15.355-5.602-22.083-6.984V92.867
				h170.667V237.08z M493.933,272.067h-82.1c0.494-5.645,0.258-11.379-0.765-17.067h82.865V272.067z M367.729,312.662
				c-0.135-13.195-3.922-26.292-11.182-37.182c-2.56-4.267-7.68-5.12-11.947-2.56s-5.12,7.68-2.56,11.947
				c8.533,13.653,11.093,31.573,5.12,46.933l-11.093,30.72c-5.447,0.681-17.413,1.905-28.963,2.805
				c-0.017,0.001-0.034,0.002-0.05,0.003v-34.317c14.679-2.774,25.6-12.579,25.6-24.811c0-14.507-15.36-25.6-34.133-25.6
				c-18.773,0-34.133,11.093-34.133,25.6c0,12.232,10.921,22.036,25.6,24.811v34.426c-12.139-0.715-24.348-1.537-29.867-2.917
				l-11.093-30.72c-5.973-15.36-4.267-33.28,5.12-46.933c2.56-4.267,1.707-9.387-2.56-11.947s-9.387-1.707-11.947,2.56
				c-7.098,11.153-10.882,23.813-11.174,36.547c-4.133-3.582-8.422-7.503-12.719-11.8c-5.339-5.339-9.309-12.043-11.617-19.347
				c-0.007-0.662-0.109-1.324-0.33-1.986c-2.56-8.533-2.56-17.92,0-26.453l1.707-3.413c0-0.743-0.005-1.486-0.047-2.229
				l4.995-16.981c0.056-0.139,0.126-0.277,0.173-0.416l1.705-5.966l0.002-0.007c5.108-16.602,12.818-28.796,21.553-37.75
				c5.697-5.743,12.203-10.545,19.407-14.303c0.293-0.195,0.571-0.404,0.84-0.62c10.15-5.218,20.147-7.653,28.004-8.766
				c0.056,0,0.113,0,0.169,0c0.16-0.032,0.315-0.057,0.474-0.087c8.345-1.123,14.142-0.766,14.886-0.766c0.853,0,1.707,0,1.707,0
				s5.973,0,14.507,0.853c0.849,0.283,1.695,0.363,2.513,0.302c20.682,3.374,53.536,15.884,67.46,61.138l8.533,29.013
				c0.875,2.917,1.455,5.885,1.786,8.859c0.423,5.634-0.171,11.357-1.786,16.741c-0.385,1.155-0.408,2.31-0.176,3.465
				c-2.271,7.061-6.214,13.536-11.77,18.722C376.148,304.909,371.858,309.05,367.729,312.662z M298.52,314.733
				c-10.24,0-17.067-5.12-17.067-8.533s6.827-8.533,17.067-8.533c10.24,0,17.067,5.12,17.067,8.533S308.76,314.733,298.52,314.733z
				 M198.68,209.773c-18.773-27.307-20.48-59.733-20.48-74.24c30.72,2.56,50.347,17.92,57.173,26.453
				C219.16,173.08,206.36,189.293,198.68,209.773z M397.23,208.907c-4.75-11.634-10.695-21.149-17.299-28.939
				c-5.678-6.973-12.303-12.998-19.97-17.982c7.68-8.533,27.307-23.893,57.173-26.453
				C417.978,149.888,415.47,181.784,397.23,208.907z M306.2,92.867v51.2c-3.413,0-6.827,0-7.68,0c-1.707,0-5.12,0-9.387,0v-51.2
				H306.2z M101.4,92.867h170.667v54.302c-6.384,1.371-13.445,3.48-20.673,6.668c-7.129-8.679-34.122-35.37-81.727-35.37
				c-4.267,0-7.68,3.413-8.533,7.68c0,2.492-6.461,60.766,31.755,104.003l-2.289,7.784H101.4V92.867z M101.4,255h84.549
				c-1.058,5.688-1.365,11.422-0.94,17.067H101.4V255z M41.667,16.067c14.507,0,25.6,11.093,25.6,25.6
				c0,8.31-3.645,15.495-9.482,20.121c-1.169,0.143-2.31,0.54-3.318,1.212c-8.533,5.12-17.067,5.12-25.6,0
				c-1.008-0.672-2.15-1.069-3.318-1.212c-5.837-4.626-9.482-11.811-9.482-20.121C16.067,27.16,27.16,16.067,41.667,16.067z
				 M67.267,493.933h-51.2v-17.067H24.6h34.133h8.533V493.933z M33.133,459.8V83.508c2.751,0.54,5.603,0.825,8.533,0.825
				s5.782-0.286,8.533-0.825V459.8H33.133z M67.267,391.533v-256h17.067v110.933V280.6v110.933H67.267z M101.4,289.133h87.237
				c3.159,8.808,8.251,16.981,15.163,23.893c10.24,10.24,20.48,18.773,29.013,24.747l12.8,34.133c1.333,4,2.146,6.959,26.453,9.283
				V434.2H101.4V289.133z M289.133,434.2v-51.722c1.393,0.085,2.832,0.169,4.32,0.252c2.628,0.27,4.214,0.27,4.214,0.27h0.853
				c0.276,0,0.551-0.016,0.826-0.044c2.399-0.126,4.682-0.254,6.854-0.384V434.2H289.133z M324.12,434.2v-52.972
				c24.293-2.33,25.112-5.299,26.453-9.321l12.79-34.107c0.28-0.013,0.557-0.026,0.863-0.026
				c8.533-5.973,18.773-14.507,29.013-24.747c6.567-6.912,11.592-15.085,14.796-23.893h85.897V434.2H324.12z"/>
		</g>
	</g>
</g>
</svg>