<?xml version="1.0" encoding="iso-8859-1"?>
<!-- Uploaded to: SVG Repo, www.svgrepo.com, Generator: SVG Repo Mixer Tools -->
<svg fill="#000000" height="800px" width="800px" version="1.1" id="Layer_1" xmlns="http://www.w3.org/2000/svg" xmlns:xlink="http://www.w3.org/1999/xlink" 
	 viewBox="0 0 512.002 512.002" xml:space="preserve">
<g>
	<g>
		<path d="M505.753,354.901l-15.083-15.083c-19.702-19.702-49.044-23.859-72.839-12.5l-43.878-43.878L360.047,74.83l23.327-23.327
			c8.331-8.331,8.331-21.839,0-30.17c-8.331-8.331-21.839-8.331-30.17,0l-30.165,30.165c-16.716,16.716-68.646,36.398-92.869,41.533
			c-11.745,2.518-23.28,6.645-34.556,12.071l-53.605-53.605c-8.332-8.332-21.842-8.331-30.173,0.003l-15.08,15.086l-23.91-23.91
			h8.819c11.782,0,21.333-9.551,21.333-21.333c0-11.782-9.551-21.333-21.333-21.333H21.513c-1.488-0.012-2.976,0.13-4.441,0.428
			c-0.103,0.021-0.201,0.052-0.304,0.074c-0.578,0.126-1.152,0.268-1.72,0.442c-0.134,0.041-0.263,0.094-0.395,0.138
			c-0.528,0.174-1.054,0.358-1.57,0.575c-0.12,0.05-0.234,0.111-0.353,0.164c-0.517,0.228-1.029,0.467-1.53,0.737
			c-0.091,0.049-0.177,0.107-0.268,0.158C10.421,3.011,9.915,3.31,9.423,3.642c-0.061,0.041-0.116,0.088-0.177,0.13
			c-1.052,0.726-2.061,1.54-2.996,2.476C5.365,7.133,4.595,8.086,3.899,9.074C3.809,9.201,3.71,9.319,3.624,9.448
			c-0.281,0.418-0.53,0.849-0.779,1.282c-0.099,0.172-0.208,0.336-0.302,0.511c-0.218,0.406-0.407,0.822-0.597,1.238
			c-0.101,0.221-0.212,0.435-0.306,0.66c-0.161,0.389-0.295,0.785-0.432,1.18c-0.093,0.266-0.197,0.527-0.279,0.798
			c-0.117,0.384-0.204,0.773-0.299,1.162c-0.071,0.291-0.154,0.577-0.213,0.872c-0.086,0.431-0.14,0.866-0.199,1.301
			c-0.035,0.258-0.086,0.511-0.111,0.771c-0.07,0.703-0.107,1.409-0.107,2.114c0,0.001,0,0.003,0,0.004v60.331
			c0,11.782,9.551,21.333,21.333,21.333c11.782,0,21.333-9.551,21.333-21.333v-8.836L66.591,96.76l-15.086,15.091
			c-8.329,8.332-8.327,21.838,0.003,30.168l53.066,53.062c-4.78,9.663-8.35,19.301-10.444,28.877
			c-0.578,2.645-1.039,5.275-1.378,7.89c-1.967,15.328-24.484,74.421-41.245,91.182l-30.165,30.165
			c-8.331,8.331-8.331,21.839,0,30.17s21.839,8.331,30.17,0l23.318-23.318l208.628,13.906l43.863,43.86
			c-11.366,23.793-7.209,53.155,12.495,72.859l15.083,15.083c8.331,8.331,21.839,8.331,30.17,0l120.683-120.683
			C514.084,376.74,514.084,363.232,505.753,354.901z M158.582,188.747c2.639-3.559,5.336-6.989,8.038-10.208
			c2.747-3.272,4.819-5.561,5.868-6.653c0.571-0.543,2.88-2.632,6.269-5.428c3.156-2.604,6.54-5.211,10.105-7.768l148.811,148.811
			c0.006,0.006,0.012,0.012,0.018,0.018l47.378,47.378l-30.161,30.161L158.582,188.747z M239.066,134.76
			c7.095-1.504,28.104-7.881,46.173-14.729c12.532-4.75,23.942-9.708,34.064-14.941l8.834,132.535l-99.868-99.868
			C231.895,136.534,235.499,135.525,239.066,134.76z M111.633,112.053c0.072-0.07,0.15-0.129,0.221-0.2
			c0.072-0.072,0.131-0.151,0.202-0.223l14.871-14.876l31.395,31.395c-6.755,5.127-12.201,9.867-16.113,13.686
			c-4.056,4.209-8.919,9.76-14.107,16.434L96.761,126.93L111.633,112.053z M104.844,319.285
			c15.579-29.378,28.148-65.788,30.226-81.986c0.174-1.348,0.423-2.765,0.743-4.228c0.379-1.732,0.863-3.513,1.427-5.328
			l100.401,100.394L104.844,319.285z M369.985,460.499c-8.315-8.317-8.325-21.807-0.035-30.139c0.015-0.015,0.032-0.028,0.047-0.043
			l60.331-60.331c0.013-0.013,0.024-0.028,0.037-0.041c8.345-8.285,21.815-8.273,30.132,0.041L369.985,460.499z"/>
	</g>
</g>
</svg>