<?xml version="1.0" encoding="iso-8859-1"?>
<!-- Uploaded to: SVG Repo, www.svgrepo.com, Generator: SVG Repo Mixer Tools -->
<svg fill="#000000" height="800px" width="800px" version="1.1" id="Layer_1" xmlns="http://www.w3.org/2000/svg" xmlns:xlink="http://www.w3.org/1999/xlink" 
	 viewBox="0 0 491.744 491.744" xml:space="preserve">
<g transform="translate(-1)">
	<g>
		<path d="M472.264,286.832h-85.443c-11.311,0-20.48,9.169-20.48,20.48c0,9.814-8.368,20.48-13.701,20.48h-44.413v-61.44h61.44
			c8.363,0,15.885-5.084,19.003-12.844l1.802-4.485c27.094-67.767,27.094-143.335,0.013-211.069l-1.815-4.518
			c-3.118-7.76-10.641-12.844-19.003-12.844h-81.92h-81.92c-14.503,0-24.411,14.659-19.003,28.116l1.802,4.485
			c23.164,57.939,23.164,122.619-0.013,180.591l-1.789,4.452c-5.407,13.457,4.501,28.116,19.003,28.116h61.44v61.44h-51.331
			c-18.49,0-30.597-15.738-30.597-40.96c0-9.144-6.062-17.18-14.854-19.692l-67.058-19.159v-84.029
			c0-11.311-9.169-20.48-20.48-20.48s-20.48,9.169-20.48,20.48h-20.48c-11.311,0-20.48,9.169-20.48,20.48s9.169,20.48,20.48,20.48
			h20.48v31.366L27.126,226.18c-15.109-4.317-29.251,9.288-25.521,24.553l15.012,61.44c1.075,4.398,3.576,8.316,7.114,11.141
			l20.912,16.703l32.265,96.659c2.79,8.359,10.614,13.995,19.426,13.995h50.214l10.94,13.117c3.891,4.666,9.653,7.363,15.728,7.363
			H352.64c78.237,0,140.104-58.09,140.104-134.82v-29.02C492.744,296.001,483.575,286.832,472.264,286.832z M355.632,61.552
			c18.941,52.942,18.944,110.869-0.001,163.84h-38.815c0.128-0.426,0.247-0.855,0.373-1.282c0.188-0.635,0.371-1.27,0.555-1.906
			c0.411-1.425,0.809-2.852,1.197-4.281c0.159-0.588,0.322-1.174,0.478-1.763c0.523-1.976,1.029-3.954,1.509-5.938
			c0.024-0.098,0.045-0.196,0.068-0.293c0.454-1.889,0.884-3.781,1.299-5.677c0.134-0.614,0.262-1.228,0.392-1.842
			c0.304-1.432,0.596-2.866,0.878-4.302c0.125-0.641,0.252-1.281,0.373-1.923c0.313-1.657,0.61-3.315,0.893-4.976
			c0.06-0.355,0.127-0.708,0.186-1.063c0.333-2.001,0.642-4.004,0.931-6.01c0.079-0.547,0.15-1.095,0.226-1.643
			c0.207-1.494,0.404-2.988,0.587-4.485c0.081-0.66,0.159-1.319,0.235-1.979c0.174-1.513,0.335-3.027,0.485-4.542
			c0.052-0.53,0.11-1.059,0.16-1.589c0.188-2.015,0.357-4.032,0.502-6.05c0.028-0.394,0.049-0.789,0.076-1.183
			c0.111-1.642,0.209-3.284,0.292-4.926c0.033-0.652,0.061-1.304,0.089-1.956c0.063-1.46,0.115-2.92,0.156-4.381
			c0.017-0.616,0.037-1.232,0.05-1.848c0.043-2.012,0.071-4.025,0.072-6.038c0-0.015,0-0.03,0-0.045
			c0-2.027-0.028-4.055-0.072-6.082c-0.013-0.613-0.033-1.226-0.05-1.839c-0.041-1.463-0.092-2.925-0.155-4.387
			c-0.028-0.651-0.056-1.303-0.089-1.954c-0.082-1.637-0.18-3.273-0.29-4.909c-0.027-0.401-0.048-0.803-0.077-1.204
			c-0.145-2.018-0.313-4.035-0.501-6.05c-0.049-0.525-0.106-1.049-0.158-1.574c-0.15-1.519-0.311-3.036-0.486-4.553
			c-0.076-0.66-0.155-1.32-0.235-1.979c-0.183-1.494-0.379-2.987-0.586-4.479c-0.076-0.549-0.147-1.099-0.227-1.648
			c-0.29-2.008-0.599-4.014-0.932-6.017c-0.056-0.335-0.119-0.668-0.175-1.003c-0.286-1.679-0.586-3.357-0.902-5.032
			c-0.12-0.637-0.245-1.272-0.37-1.908c-0.282-1.439-0.575-2.876-0.879-4.312c-0.13-0.613-0.257-1.226-0.391-1.839
			c-0.41-1.872-0.835-3.742-1.283-5.608c-0.029-0.122-0.055-0.244-0.085-0.365c-0.479-1.983-0.985-3.961-1.508-5.937
			c-0.154-0.584-0.316-1.166-0.474-1.749c-0.388-1.432-0.787-2.861-1.199-4.289c-0.183-0.636-0.367-1.271-0.555-1.906
			c-0.128-0.432-0.248-0.866-0.378-1.297H355.632z M234.897,61.552h38.796c0.171,0.477,0.345,0.952,0.513,1.43
			c0.261,0.744,0.519,1.489,0.772,2.235c0.348,1.025,0.688,2.052,1.022,3.08c0.241,0.74,0.481,1.481,0.715,2.223
			c0.331,1.054,0.651,2.111,0.968,3.169c0.215,0.717,0.433,1.433,0.641,2.151c0.325,1.124,0.636,2.251,0.944,3.379
			c0.179,0.654,0.365,1.306,0.538,1.961c0.353,1.334,0.688,2.671,1.018,4.009c0.111,0.452,0.232,0.902,0.34,1.354
			c0.431,1.791,0.842,3.585,1.231,5.383c0.092,0.423,0.173,0.848,0.262,1.272c0.291,1.376,0.576,2.754,0.843,4.134
			c0.127,0.657,0.242,1.316,0.363,1.975c0.212,1.15,0.423,2.3,0.619,3.452c0.124,0.732,0.238,1.465,0.355,2.198
			c0.174,1.083,0.345,2.167,0.504,3.252c0.112,0.764,0.216,1.528,0.321,2.293c0.145,1.059,0.285,2.118,0.415,3.178
			c0.096,0.778,0.187,1.556,0.276,2.334c0.12,1.056,0.232,2.113,0.338,3.17c0.078,0.774,0.154,1.549,0.224,2.324
			c0.097,1.074,0.184,2.148,0.267,3.223c0.058,0.756,0.119,1.513,0.17,2.27c0.076,1.117,0.138,2.235,0.198,3.353
			c0.038,0.713,0.082,1.425,0.114,2.138c0.056,1.233,0.094,2.467,0.131,3.701c0.018,0.597,0.044,1.194,0.057,1.791
			c0.041,1.829,0.065,3.658,0.065,5.487c0,0.047-0.002,0.094-0.002,0.141c-0.001,1.783-0.023,3.566-0.063,5.349
			c-0.014,0.607-0.04,1.213-0.058,1.819c-0.037,1.223-0.075,2.446-0.13,3.669c-0.033,0.72-0.076,1.44-0.115,2.16
			c-0.06,1.111-0.122,2.223-0.197,3.333c-0.052,0.76-0.112,1.52-0.171,2.28c-0.083,1.071-0.169,2.142-0.266,3.213
			c-0.07,0.777-0.147,1.554-0.225,2.331c-0.106,1.057-0.218,2.113-0.338,3.168c-0.088,0.778-0.18,1.555-0.275,2.332
			c-0.131,1.061-0.271,2.121-0.416,3.18c-0.105,0.765-0.209,1.529-0.321,2.293c-0.159,1.085-0.33,2.169-0.504,3.253
			c-0.117,0.733-0.231,1.466-0.355,2.198c-0.196,1.156-0.408,2.311-0.621,3.465c-0.121,0.654-0.234,1.308-0.36,1.961
			c-0.272,1.406-0.562,2.809-0.859,4.212c-0.084,0.398-0.16,0.798-0.246,1.196c-0.39,1.798-0.801,3.592-1.232,5.383
			c-0.116,0.48-0.243,0.958-0.362,1.438c-0.324,1.31-0.651,2.618-0.997,3.924c-0.177,0.667-0.366,1.332-0.548,1.999
			c-0.306,1.116-0.613,2.232-0.935,3.345c-0.21,0.724-0.429,1.447-0.646,2.169c-0.315,1.052-0.633,2.103-0.963,3.152
			c-0.235,0.747-0.477,1.493-0.72,2.239c-0.333,1.023-0.67,2.044-1.017,3.064c-0.255,0.752-0.515,1.502-0.778,2.252
			c-0.165,0.469-0.336,0.937-0.504,1.406h-38.797C250.975,171.96,250.974,114.963,234.897,61.552z M451.784,336.332
			c0,53.512-42.971,93.86-99.144,93.86H182.803l-10.94-13.117c-3.891-4.666-9.653-7.363-15.728-7.363h-45.047l-29.509-88.404
			c-1.251-3.747-3.558-7.052-6.645-9.518l-20.185-16.122l-4.99-20.422l95.76,27.36c5.632,38.081,31.779,66.146,70.418,66.146H352.64
			c23.527,0,43.349-18.462,51.131-40.96h48.013V336.332z"/>
	</g>
</g>
</svg>