<?xml version="1.0" encoding="iso-8859-1"?>
<!-- Uploaded to: SVG Repo, www.svgrepo.com, Generator: SVG Repo Mixer Tools -->
<svg fill="#000000" height="800px" width="800px" version="1.1" id="Layer_1" xmlns="http://www.w3.org/2000/svg" xmlns:xlink="http://www.w3.org/1999/xlink" 
	 viewBox="0 0 512.016 512.016" xml:space="preserve">
<g>
	<g>
		<path d="M509.762,481.139l-31.275-62.549c20.523-19.456,33.515-46.805,33.515-77.248c0-34.709-16.917-65.301-42.667-84.779
			v-85.888c2.667,0,5.163-0.619,7.552-1.515c0.768-0.299,1.429-0.725,2.155-1.109c1.536-0.789,2.944-1.707,4.245-2.859
			c0.661-0.576,1.259-1.173,1.856-1.835c1.131-1.259,2.027-2.667,2.816-4.181c0.405-0.768,0.875-1.451,1.195-2.283
			c0.107-0.277,0.32-0.512,0.405-0.811l21.333-64c2.197-6.507,1.088-13.653-2.901-19.2c-4.032-5.589-10.475-8.875-17.323-8.875h-64
			V21.341c0-11.776-9.536-21.333-21.333-21.333H128.002c-11.797,0-21.333,9.557-21.333,21.333v106.667H64.002
			c-6.848,0-13.291,3.285-17.323,8.875c-3.989,5.547-5.099,12.693-2.901,19.2l12.48,37.483
			c-7.936,3.115-13.589,10.731-13.589,19.776c0,11.776,9.536,21.333,21.333,21.333v64H42.669c-11.797,0-21.333,9.557-21.333,21.333
			c0,9.771,6.677,17.643,15.637,20.181L0.642,485.491c-2.859,11.435,4.096,23.019,15.531,25.877c1.728,0.448,3.477,0.64,5.184,0.64
			c9.557,0,18.24-6.464,20.672-16.149l24.085-96.363c6.976,27.797,31.957,48.512,61.888,48.512s54.912-20.715,61.888-48.512
			l24.085,96.363c2.432,9.685,11.115,16.149,20.672,16.149c1.707,0,3.456-0.192,5.184-0.64
			c11.435-2.859,18.389-14.443,15.531-25.877l-36.331-145.301c8.96-2.539,15.637-10.411,15.637-20.181
			c0-11.776-9.536-21.333-21.333-21.333h-21.333v-64c11.797,0,21.333-9.557,21.333-21.333c0-9.045-5.653-16.661-13.589-19.776
			l12.48-37.483c2.197-6.507,1.088-13.653-2.901-19.2c-4.032-5.589-10.475-8.875-17.323-8.875h-42.667V42.675h234.667v21.333h-64
			c-6.848,0-13.291,3.285-17.323,8.875c-3.989,5.547-5.099,12.693-2.901,19.2l21.333,64c0.085,0.299,0.299,0.533,0.427,0.811
			c0.299,0.832,0.768,1.515,1.173,2.283c0.789,1.515,1.685,2.923,2.816,4.181c0.597,0.661,1.195,1.259,1.856,1.835
			c1.301,1.152,2.709,2.069,4.245,2.859c0.725,0.384,1.387,0.811,2.155,1.109c2.389,0.896,4.885,1.515,7.552,1.515v85.888
			c-25.749,19.477-42.667,50.069-42.667,84.779c0,30.443,12.992,57.792,33.515,77.248l-31.275,62.549
			c-5.269,10.539-0.981,23.339,9.557,28.629c3.051,1.515,6.315,2.24,9.515,2.24c7.829,0,15.36-4.309,19.115-11.797l29.547-59.115
			c11.499,4.245,23.744,6.912,36.693,6.912s25.195-2.667,36.693-6.912l29.547,59.115c3.733,7.467,11.285,11.797,19.115,11.797
			c3.2,0,6.464-0.725,9.515-2.24C510.743,504.477,515.031,491.677,509.762,481.139z M426.669,236.829
			c-6.891-1.408-14.037-2.155-21.333-2.155c-7.296,0-14.443,0.747-21.333,2.155v-66.155h42.667V236.829z"/>
	</g>
</g>
</svg>