<?xml version="1.0" encoding="iso-8859-1"?>
<!-- Uploaded to: SVG Repo, www.svgrepo.com, Generator: SVG Repo Mixer Tools -->
<svg version="1.1" id="Layer_1" xmlns="http://www.w3.org/2000/svg" xmlns:xlink="http://www.w3.org/1999/xlink" 
	 viewBox="0 0 512.325 512.325" xml:space="preserve">
<g transform="translate(1 1)">
	<polygon style="fill:#63D3FD;" points="458.932,211.773 424.22,246.485 432.898,281.197 476.288,289.875 502.322,263.841 
		493.644,229.129 	"/>
	<g>
		<polygon style="fill:#FFE100;" points="432.898,72.925 484.966,72.925 484.966,20.858 432.898,20.858 		"/>
		<path style="fill:#FFE100;" d="M458.932,211.773l18.224,9.546c4.339-15.62,7.81-37.315,7.81-61.614
			c0-47.729-11.281-86.78-26.034-86.78c-14.753,0-26.034,39.051-26.034,86.78c0,27.77,3.471,52.068,9.546,68.556L458.932,211.773z"
			/>
	</g>
	<polygon style="fill:#3DB9F9;" points="493.644,229.129 458.932,211.773 452.858,217.847 476.288,229.129 484.966,263.841 
		461.536,287.271 476.288,289.875 502.322,263.841 	"/>
	<g>
		<polygon style="fill:#FFA800;" points="467.61,72.925 484.966,72.925 484.966,20.858 467.61,20.858 		"/>
		<path style="fill:#FFA800;" d="M441.576,211.773l-2.603,2.603c0.868,5.207,2.603,9.546,4.339,13.017l10.414-10.414
			L441.576,211.773z"/>
		<path style="fill:#FFA800;" d="M458.932,72.925c-3.471,0-6.075,1.736-8.678,5.207c10.414,12.149,17.356,44.258,17.356,81.573
			c0,19.959-1.736,39.051-5.207,53.803l15.62,7.81c4.339-15.62,7.81-37.315,7.81-61.614
			C484.966,111.976,473.685,72.925,458.932,72.925"/>
	</g>
	<g>
		<polygon style="fill:#63D3FD;" points="51.068,255.163 7.678,255.163 7.678,211.773 51.068,194.417 		"/>
		<polygon style="fill:#63D3FD;" points="94.458,255.163 51.068,255.163 51.068,194.417 94.458,211.773 		"/>
	</g>
	<g>
		<path style="fill:#FFE100;" d="M51.068,211.773c-3.471,0-6.942-2.603-7.81-6.075c-1.736-4.339,0.868-9.546,5.207-11.281
			l121.492-43.39c4.339-1.736,9.546,0.868,11.281,5.207c1.736,4.339-0.868,9.546-5.207,11.281l-121.492,43.39
			C52.803,211.773,51.936,211.773,51.068,211.773z"/>
		<path style="fill:#FFE100;" d="M259.339,151.027c-3.471,0-6.075-1.736-7.81-5.207c-1.736-4.339,0-9.546,3.471-11.281
			l173.559-86.78c4.339-1.736,9.546,0,11.281,3.471c1.736,4.339,0,9.546-3.471,11.281l-173.559,86.78
			C261.942,151.027,261.075,151.027,259.339,151.027z"/>
		<path style="fill:#FFE100;" d="M259.339,177.061h-86.78V114.58c0-3.471,3.471-6.942,6.942-6.942h72.895
			c3.471,0,6.942,3.471,6.942,6.942L259.339,177.061L259.339,177.061z"/>
		<path style="fill:#FFE100;" d="M484.966,411.366h-69.424c-5.207,0-8.678-3.471-8.678-8.678c0-5.207,3.471-8.678,8.678-8.678
			h69.424c5.207,0,8.678,3.471,8.678,8.678C493.644,407.895,490.173,411.366,484.966,411.366z"/>
		<path style="fill:#FFE100;" d="M458.932,437.4c-5.207,0-8.678-3.471-8.678-8.678v-26.034c0-5.207,3.471-8.678,8.678-8.678
			c5.207,0,8.678,3.471,8.678,8.678v26.034C467.61,433.929,464.139,437.4,458.932,437.4z"/>
	</g>
	<g>
		<path style="fill:#00DA6C;" d="M146.525,437.4c0,28.637-23.431,52.068-52.068,52.068S42.39,466.037,42.39,437.4
			c0-28.637,23.431-52.068,52.068-52.068S146.525,408.763,146.525,437.4"/>
		<path style="fill:#00DA6C;" d="M372.153,437.4c0,28.637-23.431,52.068-52.068,52.068s-52.068-23.431-52.068-52.068
			c0-28.637,23.431-52.068,52.068-52.068S372.153,408.763,372.153,437.4"/>
	</g>
	<g>
		<path style="fill:#00AD55;" d="M320.085,385.332c-2.603,0-6.075,0-8.678,0.868c24.298,4.339,43.39,25.166,43.39,51.2
			s-19.092,46.861-43.39,51.2c2.603,0.868,6.075,0.868,8.678,0.868c28.637,0,52.068-23.431,52.068-52.068
			C372.153,408.763,348.722,385.332,320.085,385.332"/>
		<path style="fill:#00AD55;" d="M94.458,385.332c-2.603,0-6.075,0-8.678,0.868c24.298,4.339,43.39,25.166,43.39,51.2
			s-19.092,46.861-43.39,51.2c2.603,0.868,6.075,0.868,8.678,0.868c28.637,0,52.068-23.431,52.068-52.068
			C146.525,408.763,123.095,385.332,94.458,385.332"/>
	</g>
	<g>
		<polygon style="fill:#FFE100;" points="125.698,350.62 207.271,177.061 172.559,177.061 85.78,350.62 		"/>
		<polygon style="fill:#FFE100;" points="306.2,350.62 224.627,177.061 259.339,177.061 346.119,350.62 		"/>
		<path style="fill:#FFE100;" d="M7.678,361.034v65.953c0,6.075,4.339,10.414,10.414,10.414H42.39
			c0-28.637,23.431-52.068,52.068-52.068s52.068,23.431,52.068,52.068h121.492c0-28.637,23.431-52.068,52.068-52.068
			s52.068,23.431,52.068,52.068h24.298c6.075,0,10.414-4.339,10.414-10.414v-65.953c0-6.075-4.339-10.414-10.414-10.414H18.092
			C12.017,350.62,7.678,354.959,7.678,361.034"/>
	</g>
	<path d="M94.458,498.146c-33.844,0-60.746-26.902-60.746-60.746s26.902-60.746,60.746-60.746s60.746,26.902,60.746,60.746
		S128.302,498.146,94.458,498.146z M94.458,394.01c-24.298,0-43.39,19.092-43.39,43.39s19.092,43.39,43.39,43.39
		s43.39-19.092,43.39-43.39S118.756,394.01,94.458,394.01z"/>
	<path d="M320.085,498.146c-33.844,0-60.746-26.902-60.746-60.746s26.902-60.746,60.746-60.746s60.746,26.902,60.746,60.746
		S353.929,498.146,320.085,498.146z M320.085,394.01c-24.298,0-43.39,19.092-43.39,43.39s19.092,43.39,43.39,43.39
		s43.39-19.092,43.39-43.39S344.383,394.01,320.085,394.01z"/>
	<path d="M396.451,446.078h-32.976V437.4c0-24.298-19.092-43.39-43.39-43.39s-43.39,19.092-43.39,43.39v8.678H137.847V437.4
		c0-24.298-19.092-43.39-43.39-43.39s-43.39,19.092-43.39,43.39v8.678H18.092C7.678,446.078-1,437.4-1,426.986v-65.953
		c0-10.414,8.678-19.092,19.092-19.092h378.359c10.414,0,19.092,8.678,19.092,19.092v65.953
		C415.542,437.4,406.864,446.078,396.451,446.078z M379.963,428.722h16.488c0.868,0,1.736-0.868,1.736-1.736v-65.953
		c0-0.868-0.868-1.736-1.736-1.736H18.092c-0.868,0-1.736,0.868-1.736,1.736v65.953c0,0.868,0.868,1.736,1.736,1.736H34.58
		c4.339-29.505,29.505-52.068,59.878-52.068s55.539,22.563,59.878,52.068h105.003c4.339-29.505,29.505-52.068,59.878-52.068
		C349.59,376.654,375.624,399.217,379.963,428.722z"/>
	<path d="M111.814,437.4c0,9.546-7.81,17.356-17.356,17.356s-17.356-7.81-17.356-17.356s7.81-17.356,17.356-17.356
		S111.814,427.854,111.814,437.4"/>
	<path d="M337.441,437.4c0,9.546-7.81,17.356-17.356,17.356s-17.356-7.81-17.356-17.356s7.81-17.356,17.356-17.356
		S337.441,427.854,337.441,437.4"/>
	<path d="M131.773,359.298H71.895l95.458-190.915h53.803L131.773,359.298z M99.664,341.942h20.827l72.895-156.203h-15.62
		L99.664,341.942z"/>
	<path d="M360.003,359.298h-59.878l-89.383-190.915h53.803L360.003,359.298z M311.407,341.942h20.827l-78.102-156.203h-15.62
		L311.407,341.942z"/>
	<path d="M268.017,185.739H163.881V114.58c0-8.678,6.942-15.62,15.62-15.62h72.895c8.678,0,15.62,6.942,15.62,15.62V185.739
		L268.017,185.739z M181.237,168.383h69.424v-52.068h-69.424V168.383z"/>
	
		<rect x="47.576" y="163.889" transform="matrix(-0.9417 0.3364 -0.3364 -0.9417 275.963 297.3228)" width="129.299" height="17.356"/>
	<path d="M476.288,298.553c-0.868,0-0.868,0-1.736,0l-43.39-8.678c-3.471-0.868-6.075-3.471-6.942-6.075l-8.678-34.712
		c-0.868-2.603,0-6.075,2.603-7.81l34.712-34.712c2.603-2.603,6.942-3.471,10.414-1.736l34.712,17.356
		c2.603,0.868,4.339,3.471,4.339,6.075L511,262.973c0.868,2.603,0,6.075-2.603,7.81l-26.034,26.034
		C480.627,297.685,478.892,298.553,476.288,298.553z M439.841,273.386l33.844,6.942l19.092-19.092l-6.942-26.034l-25.166-13.017
		l-26.902,26.902L439.841,273.386z"/>
	
		<rect x="248.913" y="81.607" transform="matrix(-0.8944 0.4472 -0.4472 -0.8944 696.0436 16.2561)" width="194.381" height="17.355"/>
	<path d="M484.966,81.603h-52.068c-5.207,0-8.678-3.471-8.678-8.678V20.858c0-5.207,3.471-8.678,8.678-8.678h52.068
		c5.207,0,8.678,3.471,8.678,8.678v52.068C493.644,78.132,490.173,81.603,484.966,81.603z M441.576,64.247h34.712V29.536h-34.712
		V64.247z"/>
	<path d="M51.068,263.841H7.678c-5.207,0-8.678-3.471-8.678-8.678v-43.39c0-3.471,1.736-6.942,5.207-7.81l43.39-17.356
		c2.603-0.868,6.075-0.868,7.81,0.868c2.603,1.736,4.339,4.339,4.339,6.942v60.746C59.746,260.37,56.275,263.841,51.068,263.841z
		 M16.356,246.485H42.39v-39.051l-26.034,10.414V246.485z"/>
	<path d="M94.458,263.841h-43.39c-5.207,0-8.678-3.471-8.678-8.678v-60.746c0-2.603,1.736-5.207,3.471-6.942
		c2.603-1.736,5.207-1.736,7.81-0.868l43.39,17.356c3.471,1.736,5.207,4.339,5.207,7.81v43.39
		C103.136,260.37,99.664,263.841,94.458,263.841z M59.746,246.485H85.78v-28.637l-26.034-10.414V246.485z"/>
	<path d="M442.444,236.939c-0.868,0-0.868,0-1.736,0c-2.603-0.868-5.207-2.603-6.075-5.207
		c-6.942-17.356-10.414-43.39-10.414-71.159c0-45.993,11.281-95.458,34.712-95.458c23.431,0,34.712,49.464,34.712,95.458
		c0,24.298-2.603,46.861-7.81,63.349c-0.868,2.603-2.603,4.339-5.207,5.207c-2.603,0.868-5.207,0.868-6.942,0l-13.017-6.075
		l-11.281,11.281C447.651,236.071,445.047,236.939,442.444,236.939z M458.932,81.603c-4.339,1.736-17.356,27.769-17.356,78.102
		c0,19.092,1.736,37.315,5.207,52.068l6.075-6.075c2.603-2.603,6.942-3.471,10.414-1.736l8.678,4.339
		c2.603-13.885,4.339-30.373,4.339-48.597C476.288,108.505,463.271,83.339,458.932,81.603z"/>
	
		<rect x="185.765" y="250.786" transform="matrix(-0.9104 0.4138 -0.4138 -0.9104 496.9567 498.9372)" width="17.356" height="105.006"/>
	
		<rect x="185.281" y="293.801" transform="matrix(-0.4141 0.9102 -0.9102 -0.4141 611.5739 211.3038)" width="105" height="17.355"/>
	<path d="M476.288,402.688h-69.424c-5.207,0-8.678-3.471-8.678-8.678s3.471-8.678,8.678-8.678h69.424
		c5.207,0,8.678,3.471,8.678,8.678S481.495,402.688,476.288,402.688z"/>
	<path d="M450.254,428.722c-5.207,0-8.678-3.471-8.678-8.678V394.01c0-5.207,3.471-8.678,8.678-8.678s8.678,3.471,8.678,8.678
		v26.034C458.932,425.251,455.461,428.722,450.254,428.722z"/>
	<path d="M224.627,142.349c0,5.207-3.471,8.678-8.678,8.678c-5.207,0-8.678-3.471-8.678-8.678s3.471-8.678,8.678-8.678
		C221.156,133.671,224.627,137.142,224.627,142.349"/>
</g>
</svg>