<?xml version="1.0" encoding="iso-8859-1"?>
<!-- Uploaded to: SVG Repo, www.svgrepo.com, Generator: SVG Repo Mixer Tools -->
<svg fill="#000000" height="800px" width="800px" version="1.1" id="Layer_1" xmlns="http://www.w3.org/2000/svg" xmlns:xlink="http://www.w3.org/1999/xlink" 
	 viewBox="0 0 512.01 512.01" xml:space="preserve">
<g>
	<g>
		<path d="M485.498,0.647l-82.785,20.696H109.298L26.513,0.647C13.048-2.719,0.005,7.465,0.005,21.344v128
			c0,13.879,13.043,24.063,26.507,20.696l58.826-14.706v335.343c0,11.782,9.551,21.333,21.333,21.333h298.667
			c11.782,0,21.333-9.551,21.333-21.333V155.334l58.826,14.706c13.464,3.366,26.507-6.818,26.507-20.696v-128
			C512.005,7.465,498.962-2.719,485.498,0.647z M384.005,277.344H277.339v-128h106.667V277.344z M234.672,149.344v128H128.005v-128
			H234.672z M384.005,106.677h-256V64.011h256V106.677z M42.672,48.667l42.667,10.667v52.02l-42.667,10.667V48.667z M128.005,320.01
			h106.667v149.333H128.005V320.01z M277.339,469.344V320.01h106.667v149.333H277.339z M469.339,122.021l-42.667-10.667v-52.02
			l42.667-10.667V122.021z"/>
	</g>
</g>
</svg>