<?xml version="1.0" encoding="iso-8859-1"?>
<!-- Uploaded to: SVG Repo, www.svgrepo.com, Generator: SVG Repo Mixer Tools -->
<svg fill="#000000" height="800px" width="800px" version="1.1" id="Layer_1" xmlns="http://www.w3.org/2000/svg" xmlns:xlink="http://www.w3.org/1999/xlink" 
	 viewBox="0 0 512 512" xml:space="preserve">
<g>
	<g>
		<path d="M477.803,234.667h-14.208c-17.28-0.171-35.051-0.064-47.787,12.608c-7.445,7.445-11.221,17.557-11.221,30.059
			c0,28.821-23.765,64-51.499,64L256,341.461v-42.795h64c8.704,0,16.533-5.291,19.797-13.376l1.899-4.693
			c28.352-70.891,28.352-148.971,0-219.861l-0.021-0.021l-1.877-4.672c-3.264-8.085-11.093-13.376-19.797-13.376h-64V21.333
			C256,9.557,246.464,0,234.667,0c-11.797,0-21.333,9.557-21.333,21.333v21.333h-64c-7.083,0-13.717,3.52-17.664,9.387
			c-3.989,5.867-4.779,13.312-2.133,19.904l1.856,4.629c24.277,60.672,24.277,127.488,0.021,188.117l-1.877,4.672
			c-2.645,6.592-1.856,14.037,2.133,19.904c3.947,5.867,10.581,9.387,17.664,9.387h64v42.837l-121.067,0.171
			c-1.323-0.64-5.077-4.288-8.192-10.219c-4.843-9.301-11.648-21.717-11.648-21.717c-3.755-6.827-10.923-11.072-18.709-11.072
			H21.333C9.536,298.667,0,308.224,0,320v114.005C0,477.013,34.987,512,77.973,512h307.477c57.024,0,105.216-46.827,105.216-102.251
			v-61.504C503.147,343.36,512,331.221,512,317.056v-48.192C512,250.005,496.64,234.667,477.803,234.667z M264.853,85.333h40.533
			c19.84,55.381,19.84,115.307,0,170.667h-40.533C281.728,200.213,281.728,141.141,264.853,85.333z M219.755,256h-40.128
			c16.875-55.787,16.875-114.859,0-170.667h40.128C239.637,140.757,239.637,200.619,219.755,256z"/>
	</g>
</g>
</svg>