<?xml version="1.0" encoding="iso-8859-1"?>
<!-- Uploaded to: SVG Repo, www.svgrepo.com, Generator: SVG Repo Mixer Tools -->
<svg fill="#000000" height="800px" width="800px" version="1.1" id="Layer_1" xmlns="http://www.w3.org/2000/svg" xmlns:xlink="http://www.w3.org/1999/xlink" 
	 viewBox="0 0 512 512" xml:space="preserve">
<g>
	<g>
		<g>
			<path d="M256,0c-68.19,0-128,63.804-128,136.533c0,70.579,57.421,128,128,128c61.167,0,110.933,49.766,110.933,110.933
				c0,63.642-51.84,119.467-110.933,119.467C124.245,494.933,17.067,387.755,17.067,256c0-91.486,50.961-173.577,132.992-214.229
				c4.224-2.091,5.948-7.211,3.857-11.426c-2.091-4.233-7.202-5.956-11.435-3.866C54.596,70.033,0,157.978,0,256
				c0,141.158,114.842,256,256,256c68.181,0,128-63.804,128-136.533c0-70.579-57.412-128-128-128
				c-61.175,0-110.933-49.766-110.933-110.933c0-63.642,51.84-119.467,110.933-119.467c131.755,0,238.933,107.179,238.933,238.933
				c0,90.931-50.517,172.8-131.831,213.649c-4.207,2.116-5.914,7.245-3.797,11.452c2.116,4.215,7.228,5.922,11.46,3.797
				C457.882,441.131,512,353.417,512,256C512,114.842,397.158,0,256,0z"/>
			<path d="M221.867,136.533c0,18.825,15.309,34.133,34.133,34.133c18.825,0,34.133-15.309,34.133-34.133S274.825,102.4,256,102.4
				C237.175,102.4,221.867,117.709,221.867,136.533z M273.067,136.533c0,9.412-7.654,17.067-17.067,17.067
				c-9.412,0-17.067-7.654-17.067-17.067c0-9.412,7.654-17.067,17.067-17.067C265.412,119.467,273.067,127.121,273.067,136.533z"/>
			<path d="M290.133,384c0-18.825-15.309-34.133-34.133-34.133c-18.825,0-34.133,15.309-34.133,34.133
				c0,18.825,15.309,34.133,34.133,34.133C274.825,418.133,290.133,402.825,290.133,384z M238.933,384
				c0-9.412,7.654-17.067,17.067-17.067c9.412,0,17.067,7.654,17.067,17.067c0,9.412-7.654,17.067-17.067,17.067
				C246.588,401.067,238.933,393.412,238.933,384z"/>
		</g>
	</g>
</g>
</svg>