<?xml version="1.0" encoding="iso-8859-1"?>
<!-- Uploaded to: SVG Repo, www.svgrepo.com, Generator: SVG Repo Mixer Tools -->
<svg fill="#000000" height="800px" width="800px" version="1.1" id="Layer_1" xmlns="http://www.w3.org/2000/svg" xmlns:xlink="http://www.w3.org/1999/xlink" 
	 viewBox="0 0 512 512" xml:space="preserve">
<g>
	<g>
		<g>
			<path d="M196.267,187.733c20.275,0,31.599-15.539,37.402-33.451c5.291,9.131,12.561,16.384,22.332,16.384
				c8.772,0,25.95-8.559,42.342-65.92c1.289-4.531-1.331-9.259-5.871-10.547c-4.548-1.306-9.25,1.323-10.547,5.854
				c-7.595,26.564-20.045,52.096-25.924,53.547c-5.06,0-13.594-17.741-17.229-35.814c-0.87-4.301-4.941-7.313-9.216-6.81
				c-4.36,0.435-7.688,4.104-7.688,8.491c0,0.512-0.7,51.2-25.6,51.2c-24.073,0-25.549-21.342-25.6-25.643
				c-0.026-4.693-3.831-8.491-8.533-8.491c-4.719,0-8.533,3.823-8.533,8.533C153.6,159.829,162.517,187.733,196.267,187.733z"/>
			<path d="M205.679,90.094c-2.074,4.207-0.367,9.301,3.84,11.409c1.22,0.606,2.526,0.896,3.806,0.896
				c3.132,0,6.144-1.724,7.637-4.719c0.427-0.853,10.325-21.12,0-41.762c-2.116-4.215-7.236-5.922-11.443-3.814
				c-4.215,2.108-5.931,7.228-3.823,11.443C212.079,76.313,205.858,89.719,205.679,90.094z"/>
			<path d="M375.407,169.685c-0.401-3.499-2.927-6.4-6.34-7.279c-3.396-0.879-7.023,0.427-9.071,3.302l-42.667,59.733
				c-1.263,1.758-1.801,3.934-1.519,6.084l17.152,128.529c0.99,5.06,2.185,19.857-4.011,27.375
				c-2.833,3.439-7.159,5.103-13.218,5.103c-24.926,0-39.646-22.613-42.88-28.186l-16.896-168.934
				c-0.341-3.447-2.739-6.349-6.076-7.33c-3.294-0.998-6.912,0.145-9.079,2.859l-34.133,42.658c-1.34,1.664-1.997,3.772-1.852,5.897
				l8.516,127.437c0,1.05-0.393,25.6-34.133,25.6c-32.375,0-34.048-15.488-34.133-17.067c0-0.358-0.026-0.708-0.068-1.058
				l-17.067-136.533c-0.427-3.405-2.85-6.221-6.144-7.151c-3.302-0.93-6.835,0.196-8.986,2.876l-34.133,42.675
				c-2.944,3.678-2.347,9.045,1.331,11.989c3.703,2.953,9.054,2.347,11.998-1.331l21.513-26.889l14.558,116.48
				c0.555,5.768,5.632,33.075,51.132,33.075c40.499,0,51.2-27.904,51.183-43.23l-8.32-124.698l18.995-23.731l14.984,149.845
				c0.102,1.033,0.393,2.031,0.853,2.961c0.794,1.587,19.883,38.852,58.837,38.852c14.14,0,22.187-6.187,26.436-11.375
				c12.373-15.096,8.064-38.844,7.62-40.951l-16.614-124.655l27.827-38.963l22.989,199.313c-0.145,7.031-2.97,50.765-51.192,50.765
				c-54.682,0-86.903-39.083-87.202-39.458c-2.27-2.833-6.076-3.925-9.489-2.731c-3.413,1.203-5.709,4.429-5.709,8.055
				c0,1.391-0.58,34.133-51.2,34.133c-52.591,0-68.079-43.546-68.71-45.363c-0.998-3.012-3.593-5.214-6.724-5.726
				c-3.149-0.503-6.289,0.768-8.192,3.294c-11.102,14.78-27.955,30.729-35.84,30.729c-1.741,0-42.667-0.384-42.667-34.133
				c0-75.426,65.323-76.783,68.284-76.8c4.702-0.009,8.516-3.823,8.516-8.533s-3.814-8.533-8.533-8.533
				C84.48,298.666,0,299.741,0,392.533c0,40.499,39.074,51.2,59.733,51.2c14.37,0,30.831-15.659,40.892-27.042
				c10.044,16.828,33.306,44.109,78.575,44.109c41.847,0,58.052-19.49,64.316-34.423c15.326,13.611,45.875,34.423,89.284,34.423
				c53.999,0,68.267-44.655,68.267-68.267c0-0.324-0.017-0.657-0.06-0.981L375.407,169.685z"/>
			<path d="M37.197,368.912c-1.937,1.621-3.063,4.019-3.063,6.554c0,17.766,13.056,28.39,25.685,28.39h0.009
				c4.949,0,9.643-1.553,13.559-4.497c38.229-28.672,29.167-67.012,28.757-68.634c-0.708-2.842-2.833-5.128-5.632-6.042
				c-2.773-0.905-5.845-0.316-8.115,1.562L37.197,368.912z M63.138,385.706c-0.956,0.725-2.074,1.084-3.311,1.084
				c-3.43,0-7.031-2.662-8.218-7.663l34.014-28.348C83.917,360.9,78.464,374.212,63.138,385.706z"/>
			<path d="M506.291,77.277c-3.413-1.178-7.219-0.102-9.489,2.722l-34.133,42.675c-2.944,3.678-2.347,9.045,1.331,11.989
				c3.703,2.953,9.045,2.347,11.998-1.331l18.935-23.671v305.715c-3.43,4.548-12.766,15.906-25.591,23.561
				c0.222-142.925,4.045-234.112,6.332-276.361c0.256-4.702-3.345-8.73-8.047-8.977c-4.685-0.29-8.738,3.345-8.986,8.055
				c-2.381,43.716-6.374,139.605-6.374,290.611c0,2.739,1.314,5.316,3.541,6.921c1.476,1.058,3.226,1.613,4.992,1.613
				c0.904,0,1.818-0.145,2.697-0.435c28.058-9.353,46.302-36.352,47.07-37.495c0.93-1.399,1.434-3.055,1.434-4.736v-332.8
				C512,81.706,509.705,78.48,506.291,77.277z"/>
		</g>
	</g>
</g>
</svg>