<?xml version="1.0" encoding="iso-8859-1"?>
<!-- Uploaded to: SVG Repo, www.svgrepo.com, Generator: SVG Repo Mixer Tools -->
<svg fill="#000000" height="800px" width="800px" version="1.1" id="Layer_1" xmlns="http://www.w3.org/2000/svg" xmlns:xlink="http://www.w3.org/1999/xlink" 
	 viewBox="0 0 512 512" xml:space="preserve">
<g>
	<g>
		<g>
			<path d="M213.333,315.733c-4.71,0-8.533,3.823-8.533,8.533v17.067c0,4.71,3.823,8.533,8.533,8.533s8.533-3.823,8.533-8.533
				v-17.067C221.866,319.556,218.043,315.733,213.333,315.733z"/>
			<path d="M238.933,307.2c-4.71,0-8.533,3.823-8.533,8.533v34.133c0,4.71,3.823,8.533,8.533,8.533c4.71,0,8.533-3.823,8.533-8.533
				v-34.133C247.466,311.023,243.643,307.2,238.933,307.2z"/>
			<path d="M449.766,156.1c-0.802-0.802-19.891-19.567-48.7-19.567c-20.019,0-30.507,9.899-31.633,11.034
				c-3.345,3.328-3.345,8.73-0.009,12.066c3.328,3.337,8.738,3.328,12.066,0c0.06-0.06,6.622-6.033,19.575-6.033
				c11.896,0,21.769,4.395,28.262,8.363c-11.52,10.01-28.262,31.01-28.262,68.437v102.4c0,89.404-72.73,162.133-162.133,162.133
				S76.799,422.204,76.799,332.8V145.067c0-14.114,11.486-25.6,25.6-25.6s25.6,11.486,25.6,25.6v76.8
				c0,4.71,3.823,8.533,8.533,8.533s8.533-3.823,8.533-8.533V76.8c0-14.114,11.486-25.6,25.6-25.6c14.114,0,25.6,11.486,25.6,25.6
				v110.933c0,4.71,3.823,8.533,8.533,8.533s8.533-3.823,8.533-8.533V42.667c0-14.114,11.486-25.6,25.6-25.6s25.6,11.486,25.6,25.6
				v145.067c0,4.71,3.823,8.533,8.533,8.533s8.533-3.823,8.533-8.533V93.867c0-14.114,11.486-25.6,25.6-25.6s25.6,11.486,25.6,25.6
				v128c0,4.71,3.823,8.533,8.533,8.533s8.533-3.823,8.533-8.533v-128c0-23.526-19.14-42.667-42.667-42.667
				c-9.591,0-18.466,3.191-25.6,8.55V42.667C281.599,19.14,262.459,0,238.933,0c-23.526,0-42.667,19.14-42.667,42.667v0.017
				c-7.134-5.359-16.009-8.55-25.6-8.55c-23.526,0-42.667,19.14-42.667,42.667v34.15c-7.134-5.359-16.009-8.55-25.6-8.55
				c-23.526,0-42.667,19.14-42.667,42.667V332.8c0,98.816,80.384,179.2,179.2,179.2s179.2-80.384,179.2-179.2V230.4
				c0-44.877,28.262-60.041,29.414-60.629c2.458-1.229,4.164-3.558,4.608-6.272C452.599,160.794,451.711,158.037,449.766,156.1z"/>
			<path d="M255.999,324.267v17.067c0,4.71,3.823,8.533,8.533,8.533s8.533-3.823,8.533-8.533v-17.067
				c0-4.71-3.823-8.533-8.533-8.533S255.999,319.556,255.999,324.267z"/>
			<path d="M308.565,282.743l-22.767,13.141c-2.918-3.703-6.255-7.04-9.958-9.958l13.15-22.758
				c2.355-4.079,0.956-9.293-3.115-11.657c-4.104-2.364-9.31-0.964-11.665,3.115l-13.133,22.741
				c-4.318-1.724-8.883-2.935-13.619-3.618l0.009-26.274c0.009-4.71-3.814-8.533-8.533-8.542c-4.71,0-8.525,3.823-8.533,8.533
				l-0.009,26.283c-4.745,0.683-9.31,1.894-13.628,3.627l-13.107-22.733c-2.355-4.096-7.586-5.487-11.648-3.132
				c-4.087,2.355-5.487,7.569-3.132,11.657L202,285.943c-3.695,2.918-7.031,6.263-9.95,9.958l-22.75-13.15
				c-4.062-2.372-9.293-0.964-11.657,3.115c-2.355,4.079-0.964,9.301,3.115,11.657l22.733,13.15
				c-1.724,4.318-2.935,8.883-3.61,13.619l-26.274-0.017h-0.009c-4.71,0-8.525,3.814-8.533,8.525
				c-0.009,4.71,3.814,8.533,8.525,8.533l26.291,0.026c0.691,4.736,1.903,9.301,3.627,13.611l-22.741,13.107
				c-4.079,2.355-5.478,7.578-3.123,11.657c1.579,2.739,4.446,4.267,7.398,4.267c1.442,0,2.91-0.367,4.25-1.135l22.784-13.133
				c2.918,3.695,6.263,7.031,9.958,9.95l-13.158,22.75c-2.355,4.079-0.956,9.301,3.115,11.657c1.348,0.785,2.816,1.152,4.267,1.152
				c2.944,0,5.811-1.527,7.398-4.267l13.15-22.741c4.309,1.732,8.875,2.944,13.611,3.618l-0.017,26.283
				c-0.009,4.71,3.814,8.533,8.525,8.542c0.009,0,0.009,0,0.009,0c4.71,0,8.525-3.823,8.533-8.533l0.017-26.291
				c4.745-0.683,9.301-1.894,13.611-3.627l13.116,22.741c1.579,2.739,4.446,4.275,7.398,4.275c1.442,0,2.91-0.367,4.25-1.143
				c4.087-2.355,5.487-7.569,3.132-11.657l-13.133-22.784c3.703-2.918,7.031-6.255,9.95-9.95l22.758,13.15
				c1.34,0.777,2.807,1.143,4.258,1.143c2.944,0,5.82-1.527,7.398-4.258c2.355-4.079,0.964-9.301-3.115-11.657l-22.741-13.15
				c1.724-4.309,2.935-8.866,3.618-13.602h26.283c4.71,0,8.533-3.823,8.533-8.533c0-4.71-3.823-8.533-8.533-8.533h-26.283
				c-0.683-4.736-1.894-9.301-3.618-13.619l22.733-13.124c4.079-2.355,5.478-7.578,3.123-11.657
				C317.866,281.788,312.661,280.38,308.565,282.743z M238.933,375.467c-23.526,0-42.667-19.14-42.667-42.667
				c0-23.501,19.106-42.624,42.598-42.658c0.017,0,0.034,0.008,0.051,0.008c0.017,0,0.034-0.017,0.06-0.017
				c23.509,0.026,42.624,19.157,42.624,42.667C281.599,356.326,262.459,375.467,238.933,375.467z"/>
			<path d="M238.933,204.8c-70.579,0-128,57.421-128,128s57.421,128,128,128s128-57.421,128-128S309.512,204.8,238.933,204.8z
				 M238.933,443.733c-61.175,0-110.933-49.758-110.933-110.933c0-61.167,49.758-110.933,110.933-110.933
				S349.866,271.633,349.866,332.8C349.866,393.975,300.108,443.733,238.933,443.733z"/>
		</g>
	</g>
</g>
</svg>