<?xml version="1.0" encoding="iso-8859-1"?>
<!-- Uploaded to: SVG Repo, www.svgrepo.com, Generator: SVG Repo Mixer Tools -->
<svg height="800px" width="800px" version="1.1" id="Layer_1" xmlns="http://www.w3.org/2000/svg" xmlns:xlink="http://www.w3.org/1999/xlink" 
	 viewBox="0 0 504.32 504.32" xml:space="preserve">
<g transform="translate(1 1)">
	<path style="fill:#80D6FA;" d="M103.959,205.08l29.867,44.373l64.853,95.573l34.987,51.2l17.067,25.6l25.6-25.6h55.467v0.853
		l-55.467,84.48c0,0-11.093,17.067-25.6,17.067c-14.507,0-25.6-17.067-25.6-17.067l-56.32-85.333l-34.133-51.2l-31.573-47.787
		l-29.867-46.08l-61.44-93.867c0,0-8.533-11.947-8.533-25.6s11.093-25.6,25.6-25.6h139.947L103.959,205.08z M366.786,251.16
		l31.573-46.933l0,0l31.573-46.933h-64h-63.147H199.533l-0.853-0.853l34.133-50.347h34.987h64.853H472.6
		c14.507,0,25.6,11.947,25.6,25.6c0,12.8-8.533,25.6-8.533,25.6l-61.44,93.867l-30.72,46.08l-30.72,46.933h-63.147L366.786,251.16z"
		/>
	<path style="fill:#80D6FA;" d="M233.666,106.093l-34.133,50.347l-63.147,92.16l-1.707,0.853l-29.867-44.373l64.853-98.987
		l56.32-85.333c0,0,11.093-17.067,25.6-17.067c14.507,0,25.6,17.067,25.6,17.067l56.32,85.333h-64.853l-17.067-25.6L233.666,106.093
		z M71.533,345.027h64l33.28,51.2H28.866c-14.507,0-25.6-11.947-25.6-25.6c0-12.8,8.533-25.6,8.533-25.6l61.44-93.867l29.867,46.08
		L71.533,345.027z M398.36,204.227L398.36,204.227l-31.573,46.933l-64-93.867h63.147L398.36,204.227z M498.199,370.627
		c0,13.653-11.093,25.6-25.6,25.6h-140.8h-55.467h-42.667l-34.987-51.2h104.107h63.147h64l-32.427-46.933l30.72-46.08l61.44,93.867
		C489.666,345.027,498.199,356.973,498.199,370.627z"/>
</g>
<path style="fill:#51565F;" d="M251.733,503.893c-17.067,0-29.013-17.92-29.013-18.773l-117.76-179.2l-23.893,35.84h12.8
	c2.56,0,4.267,1.707,4.267,4.267s-1.707,4.267-4.267,4.267H72.533c-1.707,0-3.413-0.853-3.413-2.56
	c-0.853-1.707-0.853-3.413,0-4.267l30.72-45.227l-25.6-38.4l-58.027,88.747c0,0-7.68,11.947-7.68,23.04
	c0,11.947,9.387,21.333,21.333,21.333h93.867c2.56,0,4.267,1.707,4.267,4.267s-1.707,4.267-4.267,4.267H29.867
	C13.653,401.493,0,387.84,0,371.627c0-14.507,8.533-27.307,9.387-28.16l60.587-91.307L9.387,160.853c0,0-9.387-12.8-9.387-28.16
	c0-17.067,12.8-29.867,29.867-29.867h138.24L222.72,19.2c0.853-0.853,12.8-18.773,29.013-18.773
	c17.067,0,29.013,17.92,29.013,18.773l54.613,83.627H473.6c16.213,0,29.867,13.653,29.867,29.867c0,14.507-8.533,27.307-9.387,28.16
	L374.613,341.76H422.4l-6.827-10.24c-1.707-1.707-0.853-4.267,0.853-5.973c1.707-1.707,4.267-0.853,5.973,0.853l11.947,17.067
	c0.853,1.707,0.853,3.413,0,4.267c-0.853,1.707-2.56,2.56-3.413,2.56h-64l0,0h-63.147l0,0h-95.573l29.013,42.667h237.227
	c11.947,0,21.333-9.387,21.333-21.333c0-11.947-7.68-23.04-7.68-23.04l-39.253-59.733c-1.707-1.707-0.853-4.267,0.853-5.973
	c1.707-1.707,4.267-0.853,5.973,0.853l39.253,59.733c0,0,9.387,12.8,9.387,28.16c0,17.067-12.8,29.867-29.867,29.867H243.2
	l12.8,18.773c1.707,1.707,0.853,4.267-0.853,5.973c-1.707,1.707-4.267,0.853-5.973-0.853l-179.2-264.533
	c-0.853-1.707-0.853-3.413,0-4.267c0.853-1.707,2.56-2.56,3.413-2.56h61.44l28.16-42.667H29.866
	c-11.947,0-21.333,9.387-21.333,21.333s7.68,23.04,7.68,23.04l61.44,93.867l0,0l29.867,46.08l0,0L228.693,480
	c0,0,10.24,15.36,22.187,15.36c11.947,0,22.187-15.36,22.187-15.36l34.133-52.053c1.707-1.707,4.267-2.56,5.973-0.853
	c1.707,1.707,2.56,4.267,0.853,5.973l-34.133,52.053C280.746,485.973,267.946,503.893,251.733,503.893z M311.466,341.76h52.907
	L486.4,155.733c0,0,7.68-11.947,7.68-23.04c0-11.947-9.387-21.333-21.333-21.333H332.799l0,0h-64l0,0h-32.427l-29.013,42.667
	h223.573c1.707,0,3.413,0.853,3.413,2.56c0.853,1.707,0.853,3.413,0,4.267l-63.147,93.867l0,0L311.466,341.76z M202.239,341.76
	h99.84l60.587-89.6l-39.253-57.173c-1.707-1.707-0.853-4.267,0.853-5.973c1.707-1.707,4.267-0.853,5.973,0.853l36.693,54.613
	l26.453-38.4l-8.533-13.653c-1.707-1.707-0.853-4.267,0.853-5.973c1.707-1.707,4.267-0.853,5.973,0.853l6.827,10.24l23.893-35.84
	H201.386l-40.96,59.733c-1.707,1.707-4.267,2.56-5.973,0.853c-1.707-1.707-2.56-4.267-0.853-5.973l93.867-138.24
	c1.707-2.56,5.12-2.56,6.827,0l16.213,23.893h54.613l-52.053-78.507c0,0-10.24-15.36-22.187-15.36
	c-10.24,0-19.627,11.093-22.187,15.36l-100.693,153.6c-1.707,1.707-4.267,2.56-5.973,0.853c-1.707-1.707-2.56-4.267-0.853-5.973
	l6.827-10.24H80.212L202.239,341.76z M242.346,102.826h18.773l-9.387-13.653L242.346,102.826z"/>
</svg>