<?xml version="1.0" encoding="iso-8859-1"?>
<!-- Uploaded to: SVG Repo, www.svgrepo.com, Generator: SVG Repo Mixer Tools -->
<svg fill="#000000" height="800px" width="800px" version="1.1" id="Layer_1" xmlns="http://www.w3.org/2000/svg" xmlns:xlink="http://www.w3.org/1999/xlink" 
	 viewBox="0 0 512 512" xml:space="preserve">
<g>
	<g>
		<g>
			<path d="M307.2,230.4v51.2c0,4.71,3.814,8.533,8.533,8.533s8.533-3.823,8.533-8.533v-51.2c0-4.71-3.814-8.533-8.533-8.533
				S307.2,225.69,307.2,230.4z"/>
			<path d="M281.6,170.667c4.719,0,8.533-3.823,8.533-8.533V102.4h8.533c4.719,0,8.533-3.823,8.533-8.533
				c0-4.71-3.814-8.533-8.533-8.533h-85.333c-4.719,0-8.533,3.823-8.533,8.533c0,4.71,3.814,8.533,8.533,8.533h8.533v59.733
				c0,4.71,3.814,8.533,8.533,8.533s8.533-3.823,8.533-8.533V102.4h34.133v59.733C273.067,166.844,276.881,170.667,281.6,170.667z"
				/>
			<path d="M110.933,204.8h25.6v76.8c0,4.71,3.814,8.533,8.533,8.533s8.533-3.823,8.533-8.533v-76.8h204.8v76.8
				c0,4.71,3.814,8.533,8.533,8.533s8.533-3.823,8.533-8.533v-76.8h25.6c23.526,0,42.667-19.14,42.667-42.667
				c0-4.71-3.814-8.533-8.533-8.533s-8.533,3.823-8.533,8.533c0,14.114-11.486,25.6-25.6,25.6H110.933
				c-14.114,0-25.6-11.486-25.6-25.6c0-4.71-3.814-8.533-8.533-8.533s-8.533,3.823-8.533,8.533
				C68.267,185.66,87.407,204.8,110.933,204.8z"/>
			<path d="M145.067,76.8h25.6v85.333c0,4.71,3.814,8.533,8.533,8.533s8.533-3.823,8.533-8.533V75.981
				c15.002-2.372,46.43-11.725,68.267-48.572c21.837,36.847,53.265,46.199,68.267,48.572v86.153c0,4.71,3.814,8.533,8.533,8.533
				c4.719,0,8.533-3.823,8.533-8.533V76.8h25.6c23.526,0,42.667-19.14,42.667-42.667c0-4.71-3.814-8.533-8.533-8.533
				c-4.719,0-8.533,3.823-8.533,8.533c0,14.114-11.486,25.6-25.6,25.6h-34.091c-1.869-0.017-46.08-1.075-69.001-54.562
				C262.502,2.031,259.413,0,256,0s-6.502,2.031-7.842,5.171c-22.929,53.487-67.132,54.545-68.958,54.562h-34.133
				c-14.114,0-25.6-11.486-25.6-25.6c0-4.71-3.814-8.533-8.533-8.533s-8.533,3.823-8.533,8.533
				C102.4,57.66,121.54,76.8,145.067,76.8z"/>
			<path d="M187.733,230.4v51.2c0,4.71,3.814,8.533,8.533,8.533s8.533-3.823,8.533-8.533v-51.2c0-4.71-3.814-8.533-8.533-8.533
				S187.733,225.69,187.733,230.4z"/>
			<path d="M76.8,324.267h25.6v145.067c0,4.71,3.814,8.533,8.533,8.533s8.533-3.823,8.533-8.533V324.267h273.067v145.067
				c0,4.71,3.814,8.533,8.533,8.533c4.719,0,8.533-3.823,8.533-8.533V324.267h25.6c23.526,0,42.667-19.14,42.667-42.667
				c0-4.71-3.814-8.533-8.533-8.533s-8.533,3.823-8.533,8.533c0,14.114-11.486,25.6-25.6,25.6H76.8c-14.114,0-25.6-11.486-25.6-25.6
				c0-4.71-3.814-8.533-8.533-8.533s-8.533,3.823-8.533,8.533C34.133,305.126,53.274,324.267,76.8,324.267z"/>
			<path d="M503.467,494.933H8.533c-4.719,0-8.533,3.823-8.533,8.533S3.814,512,8.533,512h494.933c4.719,0,8.533-3.823,8.533-8.533
				S508.186,494.933,503.467,494.933z"/>
			<path d="M375.467,349.867c0-4.71-3.814-8.533-8.533-8.533s-8.533,3.823-8.533,8.533V384c0,4.71,3.814,8.533,8.533,8.533
				s8.533-3.823,8.533-8.533V349.867z"/>
			<path d="M145.067,392.533c4.719,0,8.533-3.823,8.533-8.533v-34.133c0-4.71-3.814-8.533-8.533-8.533s-8.533,3.823-8.533,8.533V384
				C136.533,388.71,140.348,392.533,145.067,392.533z"/>
			<path d="M145.067,477.867h221.867c4.719,0,8.533-3.823,8.533-8.533s-3.814-8.533-8.533-8.533h-42.667V358.4h8.533
				c4.719,0,8.533-3.823,8.533-8.533s-3.814-8.533-8.533-8.533H179.2c-4.719,0-8.533,3.823-8.533,8.533s3.814,8.533,8.533,8.533
				h8.533v102.4h-42.667c-4.719,0-8.533,3.823-8.533,8.533S140.348,477.867,145.067,477.867z M264.533,426.667
				c4.719,0,8.533-3.823,8.533-8.533s-3.814-8.533-8.533-8.533v-51.2H307.2v102.4h-42.667V426.667z M204.8,358.4h42.667v51.2
				c-4.719,0-8.533,3.823-8.533,8.533s3.814,8.533,8.533,8.533V460.8H204.8V358.4z"/>
		</g>
	</g>
</g>
</svg>