<?xml version="1.0" encoding="iso-8859-1"?>
<!-- Uploaded to: SVG Repo, www.svgrepo.com, Generator: SVG Repo Mixer Tools -->
<svg fill="#000000" height="800px" width="800px" version="1.1" id="Layer_1" xmlns="http://www.w3.org/2000/svg" xmlns:xlink="http://www.w3.org/1999/xlink" 
	 viewBox="0 0 512 512" xml:space="preserve">
<g>
	<g>
		<g>
			<path d="M151.1,429.167c-3.337-3.336-8.73-3.336-12.066,0L128,440.201l-11.034-11.034c-3.336-3.336-8.73-3.336-12.066,0
				c-3.337,3.337-3.337,8.73,0,12.066l11.034,11.034L104.9,463.3c-3.337,3.336-3.337,8.73,0,12.066c1.664,1.664,3.849,2.5,6.033,2.5
				c2.185,0,4.369-0.836,6.033-2.5L128,464.333l11.034,11.034c1.664,1.664,3.849,2.5,6.033,2.5c2.185,0,4.369-0.836,6.033-2.5
				c3.337-3.337,3.337-8.73,0-12.066l-11.034-11.034l11.034-11.034C154.436,437.897,154.436,432.503,151.1,429.167z"/>
			<path d="M469.333,68.267h-358.4c-4.71,0-8.533,3.823-8.533,8.533s3.823,8.533,8.533,8.533H460.8v384
				c0,13.636-11.964,25.6-25.6,25.6H76.8c-13.636,0-25.6-11.964-25.6-25.6V77.508c5.487,3.703,11.554,5.879,17.067,6.955v384.87
				c0,4.71,3.823,8.533,8.533,8.533s8.533-3.823,8.533-8.533V76.8c0-4.676-3.814-8.482-8.491-8.533
				c-4.284-0.051-25.643-1.51-25.643-25.6v-8.533c0-9.412,7.654-17.067,17.067-17.067h401.067c4.71,0,8.533-3.823,8.533-8.533
				S474.044,0,469.333,0H68.267C49.442,0,34.133,15.309,34.133,34.133v435.2C34.133,492.459,53.675,512,76.8,512h358.4
				c23.125,0,42.667-19.541,42.667-42.667V76.8C477.867,72.09,474.044,68.267,469.333,68.267z"/>
			<path d="M151.1,104.9c-3.337-3.337-8.73-3.337-12.066,0L128,115.934L116.966,104.9c-3.336-3.337-8.73-3.337-12.066,0
				s-3.337,8.73,0,12.066L115.934,128L104.9,139.034c-3.337,3.336-3.337,8.73,0,12.066c1.664,1.664,3.849,2.5,6.033,2.5
				c2.185,0,4.369-0.836,6.033-2.5L128,140.066l11.034,11.034c1.664,1.664,3.849,2.5,6.033,2.5c2.185,0,4.369-0.836,6.033-2.5
				c3.337-3.337,3.337-8.73,0-12.066L140.066,128l11.034-11.034C154.436,113.63,154.436,108.237,151.1,104.9z"/>
			<path d="M290.133,170.667H256c-4.71,0-8.533,3.823-8.533,8.533v59.733h-59.733c-4.71,0-8.533,3.823-8.533,8.533V281.6
				c0,4.71,3.823,8.533,8.533,8.533h59.733v110.933c0,4.71,3.823,8.533,8.533,8.533h34.133c4.71,0,8.533-3.823,8.533-8.533V290.133
				H358.4c4.71,0,8.533-3.823,8.533-8.533v-34.133c0-4.71-3.823-8.533-8.533-8.533h-59.733V179.2
				C298.667,174.49,294.844,170.667,290.133,170.667z M349.867,256v17.067h-59.733c-4.71,0-8.533,3.823-8.533,8.533v110.933h-17.067
				V281.6c0-4.71-3.823-8.533-8.533-8.533h-59.733V256H256c4.71,0,8.533-3.823,8.533-8.533v-59.733H281.6v59.733
				c0,4.71,3.823,8.533,8.533,8.533H349.867z"/>
			<path d="M395.034,151.1c1.664,1.664,3.849,2.5,6.033,2.5c2.185,0,4.369-0.836,6.033-2.5l11.034-11.034l11.034,11.034
				c1.664,1.664,3.849,2.5,6.033,2.5c2.185,0,4.369-0.836,6.033-2.5c3.336-3.337,3.336-8.73,0-12.066L430.199,128l11.034-11.034
				c3.336-3.337,3.336-8.73,0-12.066c-3.337-3.337-8.73-3.337-12.066,0l-11.034,11.034L407.1,104.9
				c-3.336-3.337-8.73-3.337-12.066,0c-3.336,3.337-3.336,8.73,0,12.066L406.067,128l-11.034,11.034
				C391.697,142.37,391.697,147.763,395.034,151.1z"/>
			<path d="M460.8,42.667c0-4.71-3.823-8.533-8.533-8.533H76.8c-4.71,0-8.533,3.823-8.533,8.533c0,4.71,3.823,8.533,8.533,8.533
				h375.467C456.977,51.2,460.8,47.377,460.8,42.667z"/>
			<path d="M395.034,475.366c1.664,1.664,3.849,2.5,6.033,2.5c2.185,0,4.369-0.836,6.033-2.5l11.034-11.034l11.034,11.034
				c1.664,1.664,3.849,2.5,6.033,2.5c2.185,0,4.369-0.836,6.033-2.5c3.336-3.337,3.336-8.73,0-12.066l-11.034-11.034l11.034-11.034
				c3.336-3.337,3.336-8.73,0-12.066c-3.337-3.336-8.73-3.336-12.066,0l-11.034,11.034L407.1,429.167
				c-3.336-3.336-8.73-3.336-12.066,0c-3.336,3.337-3.336,8.73,0,12.066l11.034,11.034L395.034,463.3
				C391.697,466.637,391.697,472.03,395.034,475.366z"/>
		</g>
	</g>
</g>
</svg>