<?xml version="1.0" encoding="iso-8859-1"?>
<!-- Uploaded to: SVG Repo, www.svgrepo.com, Generator: SVG Repo Mixer Tools -->
<svg fill="#000000" height="800px" width="800px" version="1.1" id="Layer_1" xmlns="http://www.w3.org/2000/svg" xmlns:xlink="http://www.w3.org/1999/xlink" 
	 viewBox="0 0 512 512" xml:space="preserve">
<g>
	<g>
		<path d="M462.754,285.44c-2.569-3.934-7.851-5.018-11.81-2.432c-3.934,2.586-5.026,7.876-2.432,11.819l39.467,59.998
			c0.077,0.094,6.955,9.941,6.955,20.642c0,9.728-7.33,17.067-17.067,17.067H243.183L220.066,358.4H435.2
			c3.166,0,6.084-1.758,7.552-4.565c1.476-2.807,1.271-6.195-0.529-8.806l-11.759-17.067c-2.662-3.883-7.979-4.873-11.861-2.185
			c-3.883,2.671-4.864,7.987-2.185,11.861l2.543,3.695h-31.71l114.748-174.421c1.024-1.51,10.001-15.223,10.001-30.379
			c0-18.825-15.309-34.133-34.133-34.133H342.34l-53.581-81.442C287.369,18.816,274.637,0,256,0
			c-18.475,0-31.334,18.782-32.725,20.907L169.668,102.4H34.133C14.993,102.4,0,117.393,0,136.533
			c0,16.299,9.728,30.012,9.941,30.293L68.608,256l-58.607,89.088C8.977,346.598,0,360.311,0,375.467
			C0,394.291,15.309,409.6,34.133,409.6H128c4.719,0,8.533-3.823,8.533-8.533s-3.814-8.533-8.533-8.533H34.133
			c-9.566,0-17.067-7.492-17.067-17.067c0-10.121,7.006-20.736,7.125-20.907l54.63-83.038l20.079,30.515l-29.167,43.042
			c-1.766,2.62-1.954,5.999-0.478,8.789c1.485,2.782,4.386,4.531,7.543,4.531h20.924c4.719,0,8.533-3.823,8.533-8.533
			s-3.814-8.533-8.533-8.533h-4.83l16.162-23.851l114.185,173.559C224.631,493.184,237.363,512,256,512
			c18.475,0,31.334-18.782,32.725-20.907l34.133-51.883c2.594-3.942,1.502-9.233-2.432-11.819
			c-3.951-2.594-9.233-1.493-11.819,2.432l-34.142,51.891c-1.835,2.79-10.334,13.218-18.466,13.218
			c-7.979,0-16.196-9.779-18.475-13.227l-121.19-184.209c-0.017-0.026-0.026-0.043-0.043-0.068l-30.353-46.131
			c-0.017-0.026-0.034-0.043-0.051-0.068l-61.875-94.054c-0.068-0.094-6.946-9.941-6.946-20.642c0-9.728,7.33-17.067,17.067-17.067
			H158.43L135.979,153.6H76.8c-3.157,0-6.059,1.749-7.543,4.531c-1.476,2.79-1.289,6.17,0.478,8.789l179.2,264.533
			c1.647,2.432,4.343,3.746,7.074,3.746c1.647,0,3.311-0.478,4.77-1.468c3.917-2.645,4.932-7.945,2.287-11.853l-8.32-12.279h223.121
			c19.14,0,34.133-14.993,34.133-34.133c0-16.299-9.728-30.012-9.941-30.293L462.754,285.44z M477.867,119.467
			c9.566,0,17.067,7.492,17.067,17.067c0,10.121-7.006,20.736-7.125,20.907L366.822,341.333h-42.701l118.144-174.413
			c1.766-2.62,1.954-5.999,0.478-8.789c-1.485-2.782-4.386-4.531-7.543-4.531H220.066l23.117-34.133H477.867z M254.746,102.4
			l1.254-1.852l1.246,1.852H254.746z M92.894,170.667h31.855l-2.526,3.84c-2.594,3.942-1.502,9.233,2.432,11.819
			c1.451,0.956,3.081,1.408,4.685,1.408c2.773,0,5.504-1.348,7.134-3.84l101.06-153.609c1.835-2.79,10.334-13.218,18.466-13.218
			c7.979,0,16.196,9.771,18.475,13.227L321.92,102.4h-44.058l-14.797-21.854c-3.183-4.685-10.948-4.685-14.131,0L155.068,219.11
			c-2.645,3.908-1.63,9.207,2.287,11.853c1.459,0.998,3.123,1.468,4.77,1.468c2.731,0,5.427-1.314,7.074-3.746l39.305-58.018
			h210.611l-16.154,23.851l-3.294-5.009c-2.594-3.934-7.868-5.018-11.827-2.432c-3.934,2.594-5.026,7.885-2.432,11.819l7.185,10.931
			l-20.975,30.959l-33.399-49.306c-2.654-3.9-7.953-4.915-11.853-2.278c-3.908,2.645-4.924,7.945-2.287,11.853L361.31,256
			l-57.813,85.333h-94.993L92.894,170.667z"/>
	</g>
</g>
</svg>