<?xml version="1.0" encoding="iso-8859-1"?>
<!-- Uploaded to: SVG Repo, www.svgrepo.com, Generator: SVG Repo Mixer Tools -->
<svg height="800px" width="800px" version="1.1" id="Layer_1" xmlns="http://www.w3.org/2000/svg" xmlns:xlink="http://www.w3.org/1999/xlink" 
	 viewBox="0 0 503.82 503.82" xml:space="preserve">
<g transform="translate(1 5)">
	<path style="fill:#FF7474;" d="M81.274,84.777c-39.253-4.267-60.587-8.533-60.587-8.533l25.6,51.2c0,0,9.387,1.707,29.867,3.413
		c11.093,0.853,24.747,1.707,41.813,2.56c27.307,1.707,62.293,2.56,107.52,2.56c8.533,0,17.067,0,25.6,0s17.067,0,25.6,0
		c44.373,0,80.213-1.707,107.52-2.56c19.627-0.853,34.987-1.707,46.08-3.413c17.92-1.707,25.6-2.56,25.6-2.56l25.6-51.2
		c0,0-21.333,4.267-60.587,8.533c39.253-4.267,60.587-8.533,60.587-8.533l17.067-42.667c0,0-85.333,17.067-247.467,17.067
		S3.62,33.577,3.62,33.577l17.067,42.667C20.687,76.243,42.02,80.51,81.274,84.777z M117.967,133.417v1.707
		c-5.12,8.533-11.947,31.573-11.947,31.573s-1.707,7.68-5.12,21.333c-2.56,11.947-5.973,29.867-10.24,51.2
		c-9.387,52.907-18.773,130.56-18.773,217.6l-51.2,4.267c4.267-97.28,14.507-171.52,23.893-221.867
		c4.267-21.333,7.68-38.4,11.093-51.2c4.267-17.067,6.827-25.6,6.827-25.6s5.12-17.067,12.8-29.867v-0.853
		C86.394,131.71,100.9,132.563,117.967,133.417z M481.487,460.243l-51.2-4.267c0-87.893-10.24-165.547-18.773-217.6
		c-3.413-21.333-6.827-39.253-10.24-51.2c-3.413-13.653-5.12-21.333-5.12-21.333s-6.827-21.333-11.947-31.573v-0.853
		c19.627-0.853,34.987-1.707,46.08-3.413v3.413c4.267,11.093,8.533,28.16,8.533,28.16s2.56,8.533,7.68,25.6
		c3.413,12.8,6.827,29.867,11.093,51.2C466.98,288.723,477.22,362.963,481.487,460.243z"/>
	<path style="fill:#FF7474;" d="M498.553,187.177v51.2h-40.107h-0.853c-4.267-21.333-7.68-38.4-11.093-51.2h1.707H498.553z
		 M54.82,187.177h1.707c-3.413,12.8-6.827,29.867-11.093,51.2h-1.707H3.62v-51.2H54.82z M411.514,238.377h-2.56H92.367h-0.853
		c3.413-21.333,7.68-39.253,10.24-51.2h1.707h122.88v-51.2l0,0c8.533,0,17.067,0,25.6,0c8.533,0,17.067,0,25.6,0l0,0v51.2h122.88
		h1.707C403.833,199.123,407.247,216.19,411.514,238.377z"/>
</g>
<path style="fill:#51565F;" d="M482.487,469.51L482.487,469.51l-51.2-4.267c-2.56,0-4.267-1.707-4.267-4.267
	c0-159.573-33.28-287.573-34.133-289.28c0-0.853,0-2.56,0.853-3.413c0.853-0.853,1.707-1.707,3.413-1.707l42.667-4.267
	c1.707,0,4.267,0.853,4.267,2.56c0,0.853,34.133,104.96,42.667,299.52c0,0.853,0,2.56-1.707,3.413
	C485.047,469.51,483.34,469.51,482.487,469.51z M435.553,456.71l42.667,3.413c-7.68-171.52-35.84-270.507-40.96-289.28
	l-34.133,3.413C408.247,199.003,434.7,315.91,435.553,456.71z M21.687,469.51c-0.853,0-2.56,0-2.56-0.853
	c-0.853-0.853-1.707-1.707-1.707-3.413c8.533-194.56,42.667-298.667,42.667-299.52c0.853-1.707,2.56-3.413,4.267-2.56l42.667,4.267
	c0.853,0,2.56,0.853,3.413,1.707c0.853,0.853,0.853,2.56,0.853,3.413c0,0.853-34.133,129.707-34.133,289.28
	c0,2.56-1.707,4.267-4.267,4.267L21.687,469.51L21.687,469.51z M67.767,170.843c-5.973,18.773-33.28,117.76-40.96,289.28
	l42.667-3.413c0.853-141.653,27.307-257.707,33.28-282.453L67.767,170.843z M499.553,247.643h-4.267
	c-2.56,0-4.267-1.707-4.267-4.267s1.707-4.267,4.267-4.267v-42.667h-12.8c-2.56,0-4.267-1.707-4.267-4.267
	c0-2.56,1.707-4.267,4.267-4.267h17.067c2.56,0,4.267,1.707,4.267,4.267v51.2C503.82,245.937,502.114,247.643,499.553,247.643z
	 M380.087,247.643h-256c-2.56,0-4.267-1.707-4.267-4.267s1.707-4.267,4.267-4.267h256c2.56,0,4.267,1.707,4.267,4.267
	S382.647,247.643,380.087,247.643z M8.887,247.643H4.62c-2.56,0-4.267-1.707-4.267-4.267v-51.2c0-2.56,1.707-4.267,4.267-4.267
	h17.067c2.56,0,4.267,1.707,4.267,4.267c0,2.56-1.707,4.267-4.267,4.267h-12.8v42.667c2.56,0,4.267,1.707,4.267,4.267
	S11.447,247.643,8.887,247.643z M371.553,196.443h-93.867c-2.56,0-4.267-1.707-4.267-4.267V175.11c0-2.56,1.707-4.267,4.267-4.267
	s4.267,1.707,4.267,4.267v12.8h89.6c2.56,0,4.267,1.707,4.267,4.267C375.82,194.737,374.114,196.443,371.553,196.443z
	 M226.487,196.443H132.62c-2.56,0-4.267-1.707-4.267-4.267c0-2.56,1.707-4.267,4.267-4.267h89.6v-12.8
	c0-2.56,1.707-4.267,4.267-4.267s4.267,1.707,4.267,4.267v17.067C230.753,194.737,229.047,196.443,226.487,196.443z
	 M252.087,145.243c-143.36,0-204.8-8.533-205.653-8.533c-1.707,0-2.56-0.853-3.413-2.56l-8.533-17.067
	c-0.853-1.707,0-4.267,1.707-5.973c1.707-1.707,4.267,0,5.973,1.707l7.68,15.36c11.947,1.707,74.24,8.533,202.24,8.533
	c128,0,190.293-6.827,202.24-8.533l7.68-15.36c0.853-1.707,3.413-2.56,5.973-1.707c1.707,0.853,2.56,3.413,1.707,5.973
	l-8.533,17.067c-0.853,0.853-1.707,1.707-3.413,2.56C456.887,136.71,395.447,145.243,252.087,145.243z M252.087,102.577
	c-144.213,0-230.4-17.067-231.253-17.067c-1.707,0-2.56-0.853-3.413-2.56L0.353,40.284c-0.853-1.707,0-3.413,0.853-4.267
	c0.853-0.853,2.56-1.707,4.267-1.707c0.853,0,87.04,17.067,246.613,17.067S497.847,34.31,498.7,34.31c1.707,0,3.413,0,4.267,1.707
	c0.853,0.853,0.853,2.56,0.853,4.267L486.754,82.95c-0.853,1.707-1.707,2.56-3.413,2.56
	C482.487,85.51,396.3,102.577,252.087,102.577z M25.1,77.83c14.507,2.56,97.28,16.213,226.987,16.213S464.567,80.39,479.074,77.83
	l13.653-33.28c-24.747,4.267-106.667,16.213-240.64,16.213S36.194,48.817,11.447,44.55L25.1,77.83z"/>
</svg>