<?xml version="1.0" encoding="iso-8859-1"?>
<!-- Uploaded to: SVG Repo, www.svgrepo.com, Generator: SVG Repo Mixer Tools -->
<svg height="800px" width="800px" version="1.1" id="Layer_1" xmlns="http://www.w3.org/2000/svg" xmlns:xlink="http://www.w3.org/1999/xlink" 
	 viewBox="0 0 503.467 503.467" xml:space="preserve">
<path style="fill:#FFD0A1;" d="M198.827,223.573l-25.6-25.6c0,0-5.973-5.973-17.92-5.973c0-11.947-5.973-17.92-5.973-17.92
	l-23.893-23.893c-19.627,23.893-31.573,52.907-34.987,84.48h33.28c0,0,8.533,0,17.067-8.533c8.533,8.533,17.067,8.533,17.067,8.533
	h36.693C195.413,230.4,197.12,226.987,198.827,223.573 M173.227,306.347l25.6-25.6c-1.707-3.413-3.413-7.68-5.12-11.093h-36.693
	c0,0-8.533,0-17.067,8.533c-8.533-8.533-17.067-8.533-17.067-8.533H89.6c3.413,32.427,16.213,61.44,34.987,84.48l23.893-23.893
	c0,0,5.973-5.973,5.973-17.92C167.253,312.32,173.227,306.347,173.227,306.347 M234.667,194.56v-36.693c0,0,0-8.533-8.533-17.067
	c8.533-8.533,8.533-17.067,8.533-17.067v-33.28c-32.427,3.413-61.44,16.213-84.48,34.987l23.04,23.893c0,0,5.973,5.973,17.92,5.973
	c0,11.947,5.973,17.92,5.973,17.92l25.6,25.6C226.987,197.12,230.4,195.413,234.667,194.56 M234.667,413.013v-33.28
	c0,0,0-8.533-8.533-17.067c8.533-8.533,8.533-17.067,8.533-17.067v-36.693c-4.267-0.853-7.68-2.56-11.093-4.267l-25.6,25.6
	c0,0-5.973,5.973-5.973,17.92c-11.947,0-17.92,5.973-17.92,5.973l-23.04,23.893C173.227,396.8,202.24,409.6,234.667,413.013
	 M277.333,251.733c0-14.507-11.093-25.6-25.6-25.6c-14.507,0-25.6,11.093-25.6,25.6c0,14.507,11.093,25.6,25.6,25.6
	C266.24,277.333,277.333,266.24,277.333,251.733 M353.28,378.027l-23.893-23.893c0,0-5.973-5.973-17.92-5.973
	c0-11.947-5.973-17.92-5.973-17.92l-25.6-25.6c-3.413,1.707-7.68,3.413-11.093,4.267V345.6c0,0,0,8.533,8.533,17.067
	c-8.533,8.533-8.533,17.067-8.533,17.067v33.28C300.373,409.6,330.24,396.8,353.28,378.027 M330.24,149.333l23.893-23.893
	c-23.893-19.627-52.907-31.573-84.48-34.987v33.28c0,0,0,8.533,8.533,17.067c-8.533,8.533-8.533,17.067-8.533,17.067v36.693
	c4.267,0.853,7.68,2.56,11.093,5.12l25.6-25.6c0,0,5.973-5.973,5.973-17.92C324.267,155.307,330.24,149.333,330.24,149.333
	 M413.013,268.8h-33.28c0,0-8.533,0-17.067,8.533C354.133,268.8,345.6,268.8,345.6,268.8h-36.693
	c-0.853,4.267-2.56,7.68-5.12,11.093l25.6,25.6c0,0,5.973,5.973,17.92,5.973c0,11.947,5.973,17.92,5.973,17.92l23.893,23.893
	C396.8,330.24,409.6,300.373,413.013,268.8 M379.733,234.667h33.28c-3.413-32.427-16.213-61.44-34.987-84.48l-23.893,23.893
	c0,0-5.973,5.973-5.973,17.92c-11.947,0-17.92,5.973-17.92,5.973l-25.6,25.6c1.707,3.413,3.413,7.68,5.12,11.093h36.693
	c0,0,8.533,0,17.067-8.533C371.2,234.667,379.733,234.667,379.733,234.667 M251.733,38.4c117.76,0,213.333,95.573,213.333,213.333
	s-95.573,213.333-213.333,213.333c-117.76,0-213.333-95.573-213.333-213.333S133.973,38.4,251.733,38.4z M490.667,260.267
	c5.12,0,8.533-3.413,8.533-8.533c0-5.12-3.413-8.533-8.533-8.533s-8.533,3.413-8.533,8.533
	C482.133,256.853,485.547,260.267,490.667,260.267z M422.4,430.933c5.12,0,8.533-3.413,8.533-8.533s-3.413-8.533-8.533-8.533
	s-8.533,3.413-8.533,8.533S417.28,430.933,422.4,430.933z M251.733,499.2c5.12,0,8.533-3.413,8.533-8.533s-3.413-8.533-8.533-8.533
	c-5.12,0-8.533,3.413-8.533,8.533S246.613,499.2,251.733,499.2z M81.067,430.933c5.12,0,8.533-3.413,8.533-8.533
	s-3.413-8.533-8.533-8.533c-5.12,0-8.533,3.413-8.533,8.533S75.947,430.933,81.067,430.933z M12.8,260.267
	c5.12,0,8.533-3.413,8.533-8.533c0-5.12-3.413-8.533-8.533-8.533s-8.533,3.413-8.533,8.533C4.267,256.853,7.68,260.267,12.8,260.267
	z M81.067,89.6c5.12,0,8.533-3.413,8.533-8.533c0-5.12-3.413-8.533-8.533-8.533c-5.12,0-8.533,3.413-8.533,8.533
	C72.533,86.187,75.947,89.6,81.067,89.6z M251.733,21.333c5.12,0,8.533-3.413,8.533-8.533s-3.413-8.533-8.533-8.533
	c-5.12,0-8.533,3.413-8.533,8.533S246.613,21.333,251.733,21.333z M422.4,89.6c5.12,0,8.533-3.413,8.533-8.533
	c0-5.12-3.413-8.533-8.533-8.533s-8.533,3.413-8.533,8.533C413.867,86.187,417.28,89.6,422.4,89.6z"/>
<path style="fill:#51565F;" d="M251.733,503.467c-6.827,0-12.8-5.973-12.8-12.8s5.973-12.8,12.8-12.8c6.827,0,12.8,5.973,12.8,12.8
	S258.56,503.467,251.733,503.467z M251.733,486.4c-2.56,0-4.267,1.707-4.267,4.267c0,2.56,1.707,4.267,4.267,4.267
	c2.56,0,4.267-1.707,4.267-4.267C256,488.107,254.293,486.4,251.733,486.4z M251.733,469.333c-120.32,0-217.6-97.28-217.6-217.6
	s97.28-217.6,217.6-217.6s217.6,97.28,217.6,217.6S372.053,469.333,251.733,469.333z M251.733,42.667
	c-115.2,0-209.067,93.867-209.067,209.067S136.533,460.8,251.733,460.8S460.8,366.933,460.8,251.733S366.933,42.667,251.733,42.667z
	 M422.4,435.2c-6.827,0-12.8-5.973-12.8-12.8s5.973-12.8,12.8-12.8s12.8,5.973,12.8,12.8S429.227,435.2,422.4,435.2z M422.4,418.133
	c-2.56,0-4.267,1.707-4.267,4.267s1.707,4.267,4.267,4.267s4.267-1.707,4.267-4.267S424.96,418.133,422.4,418.133z M81.067,435.2
	c-6.827,0-12.8-5.973-12.8-12.8s5.973-12.8,12.8-12.8c6.827,0,12.8,5.973,12.8,12.8S87.893,435.2,81.067,435.2z M81.067,418.133
	c-2.56,0-4.267,1.707-4.267,4.267s1.707,4.267,4.267,4.267c2.56,0,4.267-1.707,4.267-4.267S83.627,418.133,81.067,418.133z
	 M268.8,417.28c-0.853,0-1.707,0-2.56-0.853c-0.853-0.853-1.707-1.707-1.707-3.413v-33.28c0,0,0-8.533,6.827-17.067
	c-6.827-8.533-6.827-17.067-6.827-17.067v-36.693c0-1.707,0.853-3.413,3.413-4.267c3.413-0.853,6.827-2.56,10.24-4.267
	c1.707-0.853,3.413-0.853,5.12,0.853l25.6,25.6c0,0,5.973,5.973,6.827,17.067c11.093,0.853,17.067,6.827,17.067,6.827l23.04,23.04
	c0.853,0.853,1.707,1.707,0.853,3.413c0,0.853-0.853,2.56-1.707,3.413C331.093,401.067,301.227,413.867,268.8,417.28L268.8,417.28z
	 M273.067,312.32v33.28c0,0,0,6.827,7.68,13.653c1.707,1.707,1.707,4.267,0,5.973c-6.827,6.827-7.68,13.653-7.68,14.507v28.16
	c27.307-3.413,52.053-14.507,74.24-30.72l-19.627-19.627c0,0-5.12-5.12-15.36-5.12c-2.56,0-4.267-1.707-4.267-4.267
	c0-10.24-4.267-14.507-5.12-15.36l-23.893-23.893C277.333,310.613,275.627,311.467,273.067,312.32z M234.667,417.28L234.667,417.28
	c-32.427-3.413-62.293-16.213-87.893-35.84c-0.853-0.853-1.707-1.707-1.707-3.413c0-0.853,0-2.56,0.853-3.413l23.04-23.04
	c0,0,5.973-5.973,17.067-6.827c0.853-11.093,6.827-17.067,6.827-17.067l25.6-25.6c1.707-1.707,3.413-1.707,5.12-0.853
	c3.413,1.707,6.827,3.413,10.24,4.267c1.707,0.853,3.413,2.56,3.413,4.267v36.693c0,0,0,8.533-6.827,17.067
	c6.827,8.533,6.827,17.067,6.827,17.067v33.28c0,0.853-0.853,2.56-1.707,3.413C236.373,416.427,235.52,417.28,234.667,417.28z
	 M156.16,377.173c21.333,16.213,46.933,27.307,74.24,30.72v-28.16c0-0.853,0-6.827-7.68-14.507c-1.707-1.707-1.707-4.267,0-5.973
	c6.827-6.827,7.68-13.653,7.68-14.507v-33.28c-2.56-0.853-4.267-1.707-5.973-2.56L200.533,332.8c0,0-5.12,5.12-5.12,15.36
	c0,2.56-1.707,4.267-4.267,4.267c-10.24,0-14.507,4.267-15.36,5.12L156.16,377.173z M125.44,357.547L125.44,357.547
	c-1.707,0-2.56-0.853-3.413-1.707c-20.48-24.747-32.427-55.467-35.84-87.04c0-0.853,0-2.56,0.853-3.413s1.707-1.707,3.413-1.707
	h33.28c0,0,8.533,0,17.067,6.827c8.533-6.827,17.067-6.827,17.067-6.827h36.693c1.707,0,3.413,0.853,4.267,3.413
	c0.853,3.413,2.56,7.68,4.267,10.24c0.853,1.707,0.853,3.413-0.853,5.12l-25.6,25.6c0,0-5.973,5.973-17.067,6.827
	c-0.853,11.093-6.827,17.067-6.827,17.067l-23.893,23.893C128,357.547,127.147,357.547,125.44,357.547z M95.573,273.067
	c3.413,27.307,14.507,52.053,30.72,74.24l19.627-19.627c0,0,5.12-5.12,5.12-15.36c0-2.56,1.707-4.267,4.267-4.267
	c10.24,0,14.507-4.267,15.36-5.12l23.893-23.893c-0.853-1.707-1.707-4.267-2.56-5.973h-33.28c0,0-6.827,0-13.653,7.68
	c-1.707,1.707-4.267,1.707-5.973,0c-6.827-6.827-13.653-7.68-14.507-7.68L95.573,273.067L95.573,273.067z M378.027,357.547
	c-0.853,0-2.56-0.853-3.413-0.853l-23.04-23.04c0,0-5.973-5.973-6.827-17.067c-11.093-0.853-17.067-6.827-17.067-6.827l-25.6-25.6
	c-1.707-1.707-1.707-3.413-0.853-5.12c1.707-3.413,3.413-6.827,4.267-10.24c0.853-1.707,2.56-3.413,4.267-3.413h36.693
	c0,0,8.533,0,17.067,6.827c8.533-6.827,17.067-6.827,17.067-6.827h33.28c0.853,0,2.56,0.853,3.413,1.707
	c0.853,0.853,0.853,1.707,0.853,3.413c-3.413,31.573-16.213,62.293-35.84,87.04C380.587,357.547,378.88,357.547,378.027,357.547
	L378.027,357.547z M309.76,279.04l23.893,23.893c0,0,5.12,5.12,15.36,5.12c2.56,0,4.267,1.707,4.267,4.267
	c0,10.24,4.267,14.507,5.12,15.36l19.627,19.627c16.213-21.333,27.307-46.933,30.72-74.24h-28.16c-0.853,0-6.827,0-14.507,7.68
	c-1.707,1.707-4.267,1.707-5.973,0c-6.827-6.827-13.653-7.68-14.507-7.68h-33.28C311.467,274.773,310.613,277.333,309.76,279.04z
	 M251.733,281.6c-16.213,0-29.867-13.653-29.867-29.867s13.653-29.867,29.867-29.867S281.6,235.52,281.6,251.733
	S267.947,281.6,251.733,281.6z M251.733,230.4c-11.947,0-21.333,9.387-21.333,21.333c0,11.947,9.387,21.333,21.333,21.333
	c11.947,0,21.333-9.387,21.333-21.333C273.067,239.787,263.68,230.4,251.733,230.4z M490.667,264.533c-6.827,0-12.8-5.973-12.8-12.8
	c0-6.827,5.973-12.8,12.8-12.8s12.8,5.973,12.8,12.8C503.467,258.56,497.493,264.533,490.667,264.533z M490.667,247.467
	c-2.56,0-4.267,1.707-4.267,4.267c0,2.56,1.707,4.267,4.267,4.267s4.267-1.707,4.267-4.267
	C494.933,249.173,493.227,247.467,490.667,247.467z M12.8,264.533c-6.827,0-12.8-5.973-12.8-12.8c0-6.827,5.973-12.8,12.8-12.8
	s12.8,5.973,12.8,12.8C25.6,258.56,19.627,264.533,12.8,264.533z M12.8,247.467c-2.56,0-4.267,1.707-4.267,4.267
	c0,2.56,1.707,4.267,4.267,4.267s4.267-1.707,4.267-4.267C17.067,249.173,15.36,247.467,12.8,247.467z M413.013,238.933h-33.28
	c0,0-8.533,0-17.067-6.827c-8.533,6.827-17.067,6.827-17.067,6.827l0,0h-36.693c-1.707,0-3.413-0.853-4.267-3.413
	c-0.853-3.413-2.56-6.827-4.267-10.24c-0.853-1.707-0.853-3.413,0.853-5.12l25.6-25.6c0,0,5.973-5.973,17.067-6.827
	c0.853-11.093,6.827-17.067,6.827-17.067l23.04-23.04c0.853-0.853,1.707-1.707,3.413-0.853c0.853,0,2.56,0.853,3.413,1.707
	c20.48,24.747,32.427,55.467,35.84,87.04c0,0.853,0,2.56-0.853,3.413C415.573,238.08,413.867,238.933,413.013,238.933z
	 M362.667,221.867c0.853,0,2.56,0,3.413,0.853c6.827,6.827,13.653,7.68,14.507,7.68h28.16c-3.413-27.307-14.507-52.053-30.72-74.24
	L358.4,175.786c0,0-5.12,5.12-5.12,15.36c0,2.56-1.707,4.267-4.267,4.267c-10.24,0-14.507,4.267-15.36,5.12l-23.893,23.893
	c0.853,1.707,1.707,4.267,2.56,5.973h33.28c0,0,6.827,0,13.653-7.68C360.107,221.867,361.813,221.867,362.667,221.867z
	 M194.56,238.933h-36.693c0,0-8.533,0-17.067-6.827c-8.533,6.827-16.213,6.827-17.067,6.827l0,0l0,0l0,0h-33.28
	c-0.853,0-2.56-0.853-3.413-1.707c-0.853-0.853-0.853-1.707-0.853-3.413c3.413-31.573,16.213-62.293,35.84-87.04
	c0.853-0.853,1.707-1.707,3.413-1.707c0.853,0,2.56,0,3.413,0.853l23.04,23.04c0,0,5.973,5.973,6.827,17.067
	c11.093,0.853,17.067,6.827,17.067,6.827l25.6,25.6c1.707,1.707,1.707,3.413,0.853,5.12c-1.707,3.413-3.413,6.827-4.267,10.24
	C197.973,238.08,196.267,238.933,194.56,238.933z M140.8,221.867c0.853,0,2.56,0,3.413,0.853c6.827,6.827,13.653,7.68,14.507,7.68
	H192c0.853-2.56,1.707-4.267,2.56-5.973l-23.893-23.893c0,0-5.12-5.12-15.36-5.12c-2.56,0-4.267-1.707-4.267-4.267
	c0-10.24-4.267-14.507-5.12-15.36l-19.627-19.627c-16.213,21.333-27.307,46.933-30.72,74.24h28.16c0.853,0,6.827,0,14.507-7.68
	C138.24,221.867,139.947,221.867,140.8,221.867z M223.573,203.093c-0.853,0-2.56-0.853-3.413-0.853l-25.6-25.6
	c0,0-5.973-5.973-6.827-17.067c-11.093-0.853-17.067-6.827-17.067-6.827l-23.04-23.04c-0.853-0.853-1.707-1.707-0.853-3.413
	c0-0.853,0.853-2.56,1.707-3.413c24.747-20.48,55.467-32.427,87.04-35.84c0.853,0,2.56,0,3.413,0.853
	c0.853,0.853,1.707,1.707,1.707,3.413v33.28c0,0,0,8.533-6.827,17.067c6.827,8.533,6.827,17.067,6.827,17.067v36.693
	c0,1.707-0.853,3.413-3.413,4.267c-3.413,0.853-6.827,2.56-10.24,4.267C224.427,203.093,224.427,203.093,223.573,203.093z
	 M156.16,126.293l20.48,20.48c0,0,5.12,5.12,15.36,5.12c2.56,0,4.267,1.707,4.267,4.267c0,10.24,4.267,14.507,5.12,15.36
	l23.893,23.893c1.707-0.853,4.267-1.707,5.973-2.56v-34.986c0,0,0-6.827-7.68-13.653c-1.707-1.707-1.707-4.267,0-5.973
	c6.827-6.827,7.68-13.653,7.68-14.507v-28.16C203.093,98.987,178.347,109.227,156.16,126.293z M279.893,203.093
	c-0.853,0-1.707,0-1.707-0.853c-3.413-1.707-6.827-3.413-10.24-4.267c-1.707-0.853-3.413-2.56-3.413-4.267v-35.84
	c0,0,0-8.533,6.827-17.067c-6.827-8.533-6.827-17.067-6.827-17.067v-33.28c0-0.853,0.853-2.56,1.707-3.413
	c0.853-0.853,1.707-0.853,3.413-0.853c31.573,3.413,62.293,16.213,87.04,35.84c0.853,0.853,1.707,1.707,1.707,3.413
	c0,0.853,0,2.56-0.853,3.413l-23.04,23.04c0,0-5.973,5.973-17.067,6.827c-0.853,11.093-6.827,17.067-6.827,17.067l-25.6,25.6
	C282.453,203.093,281.6,203.093,279.893,203.093z M273.067,191.147c2.56,0.853,4.267,1.707,5.973,2.56l23.893-23.893
	c0,0,5.12-5.12,5.12-15.36c0-2.56,1.707-4.267,4.267-4.267c10.24,0,14.507-4.267,15.36-5.12l19.627-19.627
	c-21.333-16.213-46.933-27.307-74.24-30.72v28.16c0,0,0,6.827,7.68,13.653c1.707,1.707,1.707,4.267,0,5.973
	c-6.827,6.827-7.68,13.653-7.68,14.507L273.067,191.147L273.067,191.147z M422.4,93.867c-6.827,0-12.8-5.973-12.8-12.8
	c0-6.827,5.973-12.8,12.8-12.8s12.8,5.973,12.8,12.8C435.2,87.893,429.227,93.867,422.4,93.867z M422.4,76.8
	c-2.56,0-4.267,1.707-4.267,4.267c0,2.56,1.707,4.267,4.267,4.267s4.267-1.707,4.267-4.267C426.667,78.507,424.96,76.8,422.4,76.8z
	 M81.067,93.867c-6.827,0-12.8-5.973-12.8-12.8c0-6.827,5.973-12.8,12.8-12.8c6.827,0,12.8,5.973,12.8,12.8
	C93.867,87.893,87.893,93.867,81.067,93.867z M81.067,76.8c-2.56,0-4.267,1.707-4.267,4.267c0,2.56,1.707,4.267,4.267,4.267
	c2.56,0,4.267-1.707,4.267-4.267C85.333,78.507,83.627,76.8,81.067,76.8z M251.733,25.6c-6.827,0-12.8-5.973-12.8-12.8
	S244.907,0,251.733,0c6.827,0,12.8,5.973,12.8,12.8S258.56,25.6,251.733,25.6z M251.733,8.533c-2.56,0-4.267,1.707-4.267,4.267
	s1.707,4.267,4.267,4.267c2.56,0,4.267-1.707,4.267-4.267S254.293,8.533,251.733,8.533z"/>
</svg>