<?xml version="1.0" encoding="iso-8859-1"?>
<!-- Uploaded to: SVG Repo, www.svgrepo.com, Generator: SVG Repo Mixer Tools -->
<svg height="800px" width="800px" version="1.1" id="Layer_1" xmlns="http://www.w3.org/2000/svg" xmlns:xlink="http://www.w3.org/1999/xlink" 
	 viewBox="0 0 503.62 503.62" xml:space="preserve">
<g transform="translate(3 13)">
	<g>
		<polygon style="fill:#F2EDDA;" points="411.797,452.144 411.797,486.277 87.53,486.277 87.53,452.144 138.73,452.144 
			189.93,452.144 249.664,452.144 309.397,452.144 360.597,452.144 		"/>
		<path style="fill:#F2EDDA;" d="M292.331,247.344v-42.667c0-14.507-11.093-25.6-25.6-25.6h-17.067h-17.067
			c-14.507,0-25.6,11.093-25.6,25.6v42.667h42.667H292.331z M360.597,135.557L360.597,135.557l-0.853,94.72v221.867h-51.2v-76.8
			c0-33.28-26.453-59.733-59.733-59.733s-59.733,26.453-59.733,59.733v76.8h-51.2V230.277v-85.333l-9.387-0.853
			c16.213-17.067,56.32-50.347,120.32-50.347C304.277,93.744,340.97,118.49,360.597,135.557L360.597,135.557z"/>
		<path style="fill:#F2EDDA;" d="M428.864,366.81v-42.667c0-14.507-11.093-25.6-25.6-25.6h-8.533v68.267h8.533H428.864z
			 M480.917,263.557l-0.853,0.853v221.867h-68.267v-34.133h-51.2V230.277h34.133C435.69,230.277,464.704,249.05,480.917,263.557
			L480.917,263.557z"/>
		<path style="fill:#F2EDDA;" d="M104.597,366.81v-68.267h-8.533c-14.507,0-25.6,11.093-25.6,25.6v42.667h25.6H104.597z
			 M138.73,230.277v221.867h-51.2v34.133H19.264V264.41l-0.853-0.853c16.213-14.507,45.227-33.28,86.187-33.28H138.73z"/>
	</g>
	<path style="fill:#AE938D;" d="M249.664,400.944V315.61c33.28,0,59.733,26.453,59.733,59.733v76.8h-59.733V400.944z
		 M249.664,400.944v51.2H189.93v-76.8c0-33.28,26.453-59.733,59.733-59.733V400.944z"/>
	<path style="fill:#FFD0A1;" d="M266.73,179.077c14.507,0,25.6,11.093,25.6,25.6v42.667h-42.667v-68.267H266.73z M104.597,298.544
		v68.267h-8.533h-25.6v-42.667c0-14.507,11.093-25.6,25.6-25.6H104.597z M249.664,179.077v68.267h-42.667v-42.667
		c0-14.507,11.093-25.6,25.6-25.6H249.664z M428.864,324.144v42.667h-25.6h-8.533v-68.267h8.533
		C416.917,298.544,428.864,309.637,428.864,324.144z"/>
</g>
<path style="fill:#51565F;" d="M499.277,503.544H4.344c-2.56,0-4.267-1.707-4.267-4.267s1.707-4.267,4.267-4.267h494.933
	c2.56,0,4.267,1.707,4.267,4.267S501.837,503.544,499.277,503.544z M482.21,469.41c-2.56,0-4.267-1.707-4.267-4.267V320.077
	c0-2.56,1.707-4.267,4.267-4.267s4.267,1.707,4.267,4.267v145.067C486.477,467.703,484.77,469.41,482.21,469.41z M413.944,469.41
	H89.677c-2.56,0-4.267-1.707-4.267-4.267s1.707-4.267,4.267-4.267h46.933V247.544h-29.867c-64.853,0-98.133,48.64-98.987,49.493
	c-1.707,1.707-4.267,2.56-5.973,0.853c-1.707-1.707-2.56-4.267-0.853-5.973c1.707-2.56,35.84-52.907,105.813-52.907h29.867v-38.4
	c0-2.56,1.707-4.267,4.267-4.267c2.56,0,4.267,1.707,4.267,4.267v260.267h42.667v-72.533c0-34.987,29.013-64,64-64s64,29.013,64,64
	v72.533h42.667v-268.8c0-2.56,1.707-4.267,4.267-4.267s4.267,1.707,4.267,4.267v46.933h29.867c69.973,0,104.107,51.2,105.813,52.907
	c1.707,1.707,0.853,4.267-0.853,5.973c-1.707,1.707-4.267,0.853-5.973-0.853c0-0.853-34.133-49.493-98.987-49.493H367.01v213.333
	h46.933c2.56,0,4.267,1.707,4.267,4.267C418.21,467.704,416.504,469.41,413.944,469.41z M256.077,460.877h51.2v-72.533
	c0-29.013-22.187-52.907-51.2-55.467v76.8h4.267c2.56,0,4.267,1.707,4.267,4.267c0,2.56-1.707,4.267-4.267,4.267h-4.267V460.877z
	 M196.344,460.877h51.2V418.21h-4.267c-2.56,0-4.267-1.707-4.267-4.267c0-2.56,1.707-4.267,4.267-4.267h4.267v-76.8
	c-29.013,2.56-51.2,26.453-51.2,55.467V460.877z M21.41,469.41c-2.56,0-4.267-1.707-4.267-4.267V320.077
	c0-2.56,1.707-4.267,4.267-4.267s4.267,1.707,4.267,4.267v145.067C25.677,467.703,23.97,469.41,21.41,469.41z M431.01,384.077
	h-34.133c-2.56,0-4.267-1.707-4.267-4.267v-68.267c0-2.56,1.707-4.267,4.267-4.267h8.533c16.213,0,29.867,13.653,29.867,29.867
	v42.667C435.277,382.37,433.57,384.077,431.01,384.077z M401.144,375.544h25.6v-38.4c0-11.947-9.387-21.333-21.333-21.333h-4.267
	V375.544z M106.744,384.077H72.61c-2.56,0-4.267-1.707-4.267-4.267v-42.667c0-16.213,13.653-29.867,29.867-29.867h8.533
	c2.56,0,4.267,1.707,4.267,4.267v68.267C111.01,382.37,109.304,384.077,106.744,384.077z M76.877,375.544h25.6V315.81H98.21
	c-11.947,0-21.333,9.387-21.333,21.333V375.544z M294.477,264.61h-85.333c-2.56,0-4.267-1.707-4.267-4.267v-42.667
	c0-16.213,13.653-29.867,29.867-29.867h34.133c16.213,0,29.867,13.653,29.867,29.867v42.667
	C298.744,262.903,297.037,264.61,294.477,264.61z M256.077,256.077h34.133v-38.4c0-11.947-9.387-21.333-21.333-21.333h-12.8V256.077
	z M213.41,256.077h34.133v-59.733h-12.8c-11.947,0-21.333,9.387-21.333,21.333V256.077z M379.81,170.744
	c-1.707,0-2.56-0.853-3.413-1.707c0-0.853-42.667-58.027-124.587-58.027s-123.733,57.173-124.587,58.027
	c-1.707,1.707-4.267,2.56-5.973,0.853c-1.707-1.707-2.56-4.267-0.853-5.973c1.707-2.56,43.52-59.733,127.147-61.44V75.17
	l-14.507-7.68c-1.707-0.853-2.56-2.56-2.56-3.413s0-1.707,0.853-1.707c0.853-1.707,3.413-2.56,5.973-1.707l11.093,5.12v-23.04
	H218.53c-2.56,0-4.267-1.707-4.267-4.267s1.707-4.267,4.267-4.267h29.867V4.344c0-2.56,1.707-4.267,4.267-4.267
	c2.56,0,4.267,1.707,4.267,4.267V34.21h29.867c2.56,0,4.267,1.707,4.267,4.267c0,2.56-1.707,4.267-4.267,4.267H256.93V70.05
	l14.507,7.68c1.707,0.853,2.56,2.56,2.56,3.413s0,1.707-0.853,1.707c-0.853,1.707-3.413,2.56-5.973,1.707l-11.093-5.12v23.04
	c83.627,1.707,125.44,58.88,127.147,61.44c1.707,1.707,0.853,4.267-0.853,5.973C381.517,170.744,380.664,170.744,379.81,170.744z"/>
</svg>