<?xml version="1.0" encoding="iso-8859-1"?>
<!-- Uploaded to: SVG Repo, www.svgrepo.com, Generator: SVG Repo Mixer Tools -->
<svg height="800px" width="800px" version="1.1" id="Layer_1" xmlns="http://www.w3.org/2000/svg" xmlns:xlink="http://www.w3.org/1999/xlink" 
	 viewBox="0 0 503.467 503.467" xml:space="preserve">
<g transform="translate(1 12)">
	<g>
		<polygon style="fill:#F2EDDA;" points="122.733,316.533 122.733,453.067 88.6,453.067 88.6,487.2 3.267,487.2 3.267,367.733 
			20.333,367.733 20.333,248.267 71.533,197.067 122.733,248.267 		"/>
		<polygon style="fill:#F2EDDA;" points="498.2,367.733 498.2,487.2 412.867,487.2 412.867,453.067 378.733,453.067 
			378.733,316.533 378.733,248.267 429.933,197.067 481.133,248.267 481.133,367.733 		"/>
		<polygon style="fill:#F2EDDA;" points="378.733,316.533 378.733,453.067 122.733,453.067 122.733,316.533 156.867,316.533 
			156.867,180 250.733,86.133 344.6,180 344.6,316.533 		"/>
		<polygon style="fill:#F2EDDA;" points="412.867,453.067 412.867,487.2 88.6,487.2 88.6,453.067 122.733,453.067 191,453.067 
			250.733,453.067 310.467,453.067 378.733,453.067 		"/>
	</g>
	<path style="fill:#AE938D;" d="M250.733,401.867v51.2H191v-76.8c0-33.28,26.453-59.733,59.733-59.733V401.867z M250.733,401.867
		v-85.333c33.28,0,59.733,26.453,59.733,59.733v76.8h-59.733V401.867z"/>
	<path style="fill:#FFD0A1;" d="M276.333,205.6v42.667h-51.2V205.6c0-14.507,11.093-25.6,25.6-25.6
		C265.24,180,276.333,191.093,276.333,205.6"/>
</g>
<path style="fill:#51565F;" d="M499.2,503.467H4.267C1.707,503.467,0,501.76,0,499.2c0-2.56,1.707-4.267,4.267-4.267H499.2
	c2.56,0,4.267,1.707,4.267,4.267C503.467,501.76,501.76,503.467,499.2,503.467z M499.2,469.333c-2.56,0-4.267-1.707-4.267-4.267V384
	h-12.8c-2.56,0-4.267-1.707-4.267-4.267v-117.76l-46.933-46.933L384,261.973V294.4c0,2.56-1.707,4.267-4.267,4.267
	c-2.56,0-4.267-1.707-4.267-4.267V192c0-2.56,1.707-4.267,4.267-4.267c2.56,0,4.267,1.707,4.267,4.267v58.027l42.667-42.667v-49.493
	c0-2.56,1.707-4.267,4.267-4.267s4.267,1.707,4.267,4.267v49.493l42.667,42.667V192c0-2.56,1.707-4.267,4.267-4.267
	S486.4,189.44,486.4,192v183.467h12.8c2.56,0,4.267,1.707,4.267,4.267v85.333C503.467,467.627,501.76,469.333,499.2,469.333z
	 M413.867,469.333H89.6c-2.56,0-4.267-1.707-4.267-4.267c0-2.56,1.707-4.267,4.267-4.267h29.867V328.533
	c0-2.56,1.707-4.267,4.267-4.267H153.6V123.733c0-2.56,1.707-4.267,4.267-4.267c2.56,0,4.267,1.707,4.267,4.267v58.027
	l85.333-85.333v-53.76H217.6c-2.56,0-4.267-1.707-4.267-4.267s1.707-4.267,4.267-4.267h29.867V4.267c0-2.56,1.707-4.267,4.267-4.267
	C254.293,0,256,1.707,256,4.267v29.867h29.867c2.56,0,4.267,1.707,4.267,4.267s-1.707,4.267-4.267,4.267H256v53.76l85.333,85.333
	v-58.027c0-2.56,1.707-4.267,4.267-4.267s4.267,1.707,4.267,4.267v200.533h29.867c2.56,0,4.267,1.707,4.267,4.267V460.8h29.867
	c2.56,0,4.267,1.707,4.267,4.267C418.133,467.627,416.427,469.333,413.867,469.333z M315.733,460.8h59.733v-128H345.6
	c-2.56,0-4.267-1.707-4.267-4.267V193.707l-89.6-89.6l-89.6,89.6v134.827c0,2.56-1.707,4.267-4.267,4.267H128v128h59.733v-72.533
	c0-34.987,29.013-64,64-64s64,29.013,64,64V460.8z M256,460.8h51.2v-72.533c0-29.013-22.187-52.907-51.2-55.467v76.8h4.267
	c2.56,0,4.267,1.707,4.267,4.267c0,2.56-1.707,4.267-4.267,4.267H256V460.8z M196.267,460.8h51.2v-42.667H243.2
	c-2.56,0-4.267-1.707-4.267-4.267c0-2.56,1.707-4.267,4.267-4.267h4.267v-76.8c-29.013,2.56-51.2,26.453-51.2,55.467V460.8z
	 M4.267,469.333c-2.56,0-4.267-1.707-4.267-4.267v-85.333c0-2.56,1.707-4.267,4.267-4.267h12.8V192c0-2.56,1.707-4.267,4.267-4.267
	S25.6,189.44,25.6,192v58.027l42.667-42.667v-49.493c0-2.56,1.707-4.267,4.267-4.267c2.56,0,4.267,1.707,4.267,4.267v49.493
	l42.667,42.667V192c0-2.56,1.707-4.267,4.267-4.267c2.56,0,4.267,1.707,4.267,4.267v93.867c0,2.56-1.707,4.267-4.267,4.267
	c-2.56,0-4.267-1.707-4.267-4.267v-23.893L72.533,215.04L25.6,261.973v117.76c0,2.56-1.707,4.267-4.267,4.267h-12.8v81.067
	C8.533,467.627,6.827,469.333,4.267,469.333z M448,366.933c-2.56,0-4.267-1.707-4.267-4.267V345.6c0-2.56,1.707-4.267,4.267-4.267
	s4.267,1.707,4.267,4.267v17.067C452.267,365.227,450.56,366.933,448,366.933z M413.867,366.933c-2.56,0-4.267-1.707-4.267-4.267
	V345.6c0-2.56,1.707-4.267,4.267-4.267s4.267,1.707,4.267,4.267v17.067C418.133,365.227,416.427,366.933,413.867,366.933z
	 M89.6,366.933c-2.56,0-4.267-1.707-4.267-4.267V345.6c0-2.56,1.707-4.267,4.267-4.267c2.56,0,4.267,1.707,4.267,4.267v17.067
	C93.867,365.227,92.16,366.933,89.6,366.933z M55.467,366.933c-2.56,0-4.267-1.707-4.267-4.267V345.6
	c0-2.56,1.707-4.267,4.267-4.267c2.56,0,4.267,1.707,4.267,4.267v17.067C59.733,365.227,58.027,366.933,55.467,366.933z
	 M430.933,298.667c-2.56,0-4.267-1.707-4.267-4.267v-17.067c0-2.56,1.707-4.267,4.267-4.267s4.267,1.707,4.267,4.267V294.4
	C435.2,296.96,433.493,298.667,430.933,298.667z M72.533,298.667c-2.56,0-4.267-1.707-4.267-4.267v-17.067
	c0-2.56,1.707-4.267,4.267-4.267c2.56,0,4.267,1.707,4.267,4.267V294.4C76.8,296.96,75.093,298.667,72.533,298.667z
	 M277.333,264.533h-51.2c-2.56,0-4.267-1.707-4.267-4.267V217.6c0-16.213,13.653-29.867,29.867-29.867S281.6,201.387,281.6,217.6
	v42.667C281.6,262.827,279.893,264.533,277.333,264.533z M230.4,256h42.667v-38.4c0-11.947-9.387-21.333-21.333-21.333
	c-11.947,0-21.333,9.387-21.333,21.333V256z"/>
</svg>