<?xml version="1.0" encoding="iso-8859-1"?>
<!-- Uploaded to: SVG Repo, www.svgrepo.com, Generator: SVG Repo Mixer Tools -->
<svg fill="#000000" height="800px" width="800px" version="1.1" id="Layer_1" xmlns="http://www.w3.org/2000/svg" xmlns:xlink="http://www.w3.org/1999/xlink" 
	 viewBox="0 0 512 512" xml:space="preserve">
<g>
	<g>
		<g>
			<path d="M238.933,332.8h34.133c4.719,0,8.533-3.823,8.533-8.533c0-4.719-3.814-8.533-8.533-8.533h-34.133
				c-4.719,0-8.533,3.814-8.533,8.533C230.4,328.977,234.214,332.8,238.933,332.8z"/>
			<path d="M187.204,230.383l9.062,0.563v1.587c0,4.71,3.814,8.533,8.533,8.533s8.533-3.823,8.533-8.533v-0.521l7.996,0.503
				c0.188,0.009,0.358,0.017,0.546,0.017c4.463,0,8.226-3.482,8.508-8.004c0.29-4.702-3.285-8.755-7.979-9.045l-34.142-2.133
				c-4.719-0.299-8.755,3.277-9.045,7.979C178.927,226.031,182.502,230.084,187.204,230.383z"/>
			<path d="M120.209,285.082c1.417,3.166,8.201,17.135,19.063,21.077l23.757,47.522c9.079,18.15,27.964,55.919,92.971,55.919
				c65.007,0,83.891-37.769,92.962-55.919l23.765-47.522c10.863-3.942,17.647-17.911,19.063-21.077
				c0.205-0.452,0.367-0.93,0.486-1.417c0.358-1.434,8.789-35.55,8.789-70.332c0-9.412-5.692-23.006-21.018-25.276
				c-21.214-30.191-21.649-59.639-21.649-59.913c0-3.217-1.8-6.153-4.668-7.612c-0.768-0.393-19.106-9.6-37.999-9.6
				c-8.619,0-16.905,1.852-25.66,3.823c-10.291,2.313-20.924,4.71-34.074,4.71c-11.418,0-16.742-1.775-22.903-3.831
				c-6.613-2.21-14.114-4.702-28.297-4.702c-27.298,0-45.705,9.045-46.481,9.429c-2.893,1.442-4.719,4.403-4.719,7.637
				c0,0.299-0.247,29.636-21.649,60.058c-15.326,2.27-21.018,15.863-21.018,25.276c0,34.782,8.431,68.898,8.789,70.332
				C119.842,284.151,120.004,284.629,120.209,285.082z M136.533,204.8c2.679,0,5.214-1.263,6.827-3.413
				c20.932-27.913,25.822-55.757,26.957-67.558c6.161-2.253,18.441-5.828,34.483-5.828c11.418,0,16.742,1.775,22.904,3.823
				c6.613,2.21,14.114,4.71,28.297,4.71c15.044,0,27.145-2.722,37.82-5.12c8.149-1.835,15.189-3.413,21.914-3.413
				c10.001,0,20.301,3.533,25.933,5.828c1.118,11.691,5.965,39.544,26.974,67.558c1.613,2.15,4.139,3.413,6.827,3.413
				c6.878,0,8.431,4.693,8.533,8.533c0,29.884-6.878,60.288-8.098,65.442c-2.773,5.803-7.202,11.025-8.969,11.358
				c-3.234,0-6.187,1.818-7.629,4.71l-25.6,51.2c-8.132,16.247-23.245,46.49-77.705,46.49s-69.572-30.242-77.705-46.49l-25.6-51.2
				c-1.442-2.893-4.318-4.71-7.552-4.71c-1.843-0.333-6.272-5.564-9.045-11.358c-1.22-5.137-8.098-35.473-8.098-65.348
				C128.102,209.493,129.655,204.8,136.533,204.8z"/>
			<path d="M256.256,196.267h-0.094c-4.702,0-8.482,3.814-8.482,8.533c0,4.71,3.857,8.533,8.576,8.533
				c4.71,0,8.533-3.823,8.533-8.533C264.789,200.081,260.966,196.267,256.256,196.267z"/>
			<path d="M360.9,91.366c24.354,24.363,40.457,40.457,48.734,139.742c1.033,12.407,2.432,21.521,3.797,30.336
				c2.415,15.684,4.702,30.498,4.702,62.822c0,43.546,16.794,94.421,17.51,96.563c1.186,3.575,4.514,5.837,8.09,5.837
				c0.887,0,1.801-0.145,2.697-0.444c4.471-1.493,6.886-6.315,5.402-10.786c-0.162-0.503-16.631-50.432-16.631-91.17
				c0-33.63-2.492-49.792-4.898-65.417c-1.323-8.533-2.679-17.348-3.669-29.158c-8.789-105.523-27.614-124.339-53.666-150.4
				c-3.336-3.328-8.73-3.328-12.066,0C357.564,82.628,357.564,88.03,360.9,91.366z"/>
			<path d="M256,187.733c4.719,0,8.533-3.823,8.533-8.533v-17.067c0-4.719-3.814-8.533-8.533-8.533
				c-4.719,0-8.533,3.814-8.533,8.533V179.2C247.467,183.91,251.281,187.733,256,187.733z"/>
			<path d="M290.125,232.533c0.179,0,0.358-0.008,0.538-0.017l8.004-0.503v0.521c0,4.71,3.814,8.533,8.533,8.533
				s8.533-3.823,8.533-8.533v-1.587l9.062-0.563c4.702-0.299,8.277-4.352,7.987-9.054c-0.29-4.702-4.463-8.286-9.054-7.979
				l-34.125,2.133c-4.702,0.29-8.277,4.343-7.987,9.045C281.899,229.052,285.662,232.533,290.125,232.533z"/>
			<path d="M511.556,500.762c-11.392-34.185-42.701-74.095-93.423-74.095c-2.27,0-4.429,0.896-6.033,2.5
				c-1.152,1.143-28.1,28.621-28.1,74.3c0,4.71,3.814,8.533,8.533,8.533s8.533-3.823,8.533-8.533
				c0-31.095,15.036-52.523,20.847-59.648c51.994,2.5,71.381,56.098,73.464,62.345c1.186,3.575,4.514,5.837,8.09,5.837
				c0.887,0,1.801-0.145,2.697-0.444C510.635,510.063,513.05,505.233,511.556,500.762z"/>
			<path d="M358.656,486.4h-0.094c-4.702,0-8.482,3.814-8.482,8.533c0,4.71,3.857,8.533,8.576,8.533c4.71,0,8.533-3.823,8.533-8.533
				C367.189,490.214,363.366,486.4,358.656,486.4z"/>
			<path d="M388.07,406.622c8.354-9.702,8.815-18.517,7.723-24.209c-2.739-14.285-17.126-22.187-18.756-23.04
				c-4.19-2.193-9.335-0.58-11.52,3.601c-2.193,4.173-0.572,9.327,3.601,11.511c1.826,0.964,8.866,5.649,9.916,11.136
				c0.205,1.084,0.836,4.378-3.891,9.882c-12.894,14.985-62.106,31.164-119.142,31.164c-53.726,0-117.12-7.936-133.914-30.208
				c-4.096-5.427-5.035-11.358-2.944-18.654c9.685-33.894,7.885-58.991-5.504-76.732c-18.611-24.678-54.946-28.006-88.038-28.006
				c-4.719,0-8.533,3.814-8.533,8.533c0,4.71,3.814,8.533,8.533,8.533c6.946,0,14.029,0.162,21.001,0.64
				c-10.095,20.267-27.051,65.587-2.714,106.146c24.593,41.003,161.784,46.123,202.445,46.729c0.725,0.009,1.434,0.017,2.142,0.026
				c3.371,0.043,5.982,0.06,7.526,0.06c25.335,0,50.577-3.157,72.439-8.491c-14.344,33.118-51.499,61.056-51.934,61.372
				c-3.772,2.807-4.565,8.149-1.758,11.938c1.681,2.253,4.25,3.447,6.861,3.447c1.766,0,3.55-0.555,5.077-1.681
				c2.116-1.579,50.133-37.709,61.747-80.93C366.404,423.185,380.57,415.36,388.07,406.622z M58.513,388.139
				c-22.332-37.222-1.007-82.005,6.178-95.061c14.754,2.79,27.639,8.09,35.328,18.27c9.796,12.988,10.709,33.775,2.705,61.773
				c-3.524,12.348-1.544,23.97,5.734,33.621c1.869,2.475,4.147,4.736,6.613,6.895C86.997,407.603,65.186,399.258,58.513,388.139z"/>
			<path d="M367.189,452.267h-0.094c-4.702,0-8.482,3.814-8.482,8.533c0,4.71,3.857,8.533,8.576,8.533
				c4.71,0,8.533-3.823,8.533-8.533C375.723,456.081,371.9,452.267,367.189,452.267z"/>
			<path d="M324.523,494.933h-0.094c-4.702,0-8.482,3.814-8.482,8.533c0,4.71,3.857,8.533,8.576,8.533
				c4.71,0,8.533-3.823,8.533-8.533C333.056,498.748,329.233,494.933,324.523,494.933z"/>
			<path d="M114.748,120.363c-4.216-2.116-9.336-0.401-11.452,3.814c-0.939,1.894-9.472,20.907-17.92,105.37
				c-0.964,9.694-2.057,17.135-3.285,25.165c-0.717,4.659,2.483,9.011,7.142,9.728c0.444,0.068,0.879,0.094,1.297,0.094
				c4.156,0,7.791-3.021,8.431-7.245c1.263-8.277,2.389-15.949,3.396-26.044c8.073-80.742,15.949-98.859,16.205-99.43
				C120.678,127.599,118.963,122.47,114.748,120.363z"/>
			<path d="M119.467,102.4c13.67,0,26.53-5.325,36.198-15.002c2.867-2.867,5.308-6.042,7.381-9.412
				c11.571,4.753,43.87,15.881,92.954,15.881c50.637,0,102.4-5.077,102.4-42.667C358.4,17.22,323.951,0,256,0
				c-48.64,0-76.8,5.581-76.8,34.133c0,25.6,46.217,25.6,76.8,25.6c25.062,0,53.487-8.542,54.673-8.9
				c4.523-1.374,7.057-6.144,5.692-10.65c-1.365-4.497-6.118-7.057-10.641-5.692c-0.273,0.085-27.162,8.175-49.724,8.175
				c-58.061,0-59.733-7.663-59.733-8.533c0-6.801,0-17.067,59.733-17.067c38.929,0,85.333,5.914,85.333,34.133
				c0,17.22-27.913,25.6-85.333,25.6c-46.14,0-76.612-10.615-86.545-14.643c0.776-3.567,1.212-7.228,1.212-10.957
				c0-13.679-5.325-26.539-15.002-36.207c-3.328-3.336-8.73-3.336-12.066,0c-3.337,3.328-3.337,8.73,0,12.066
				C150.05,33.51,153.6,42.078,153.6,51.2c0,9.114-3.55,17.681-10.001,24.132c-6.451,6.443-15.019,10.001-24.132,10.001
				c-9.114,0-17.69-3.558-24.132-10.001c-3.337-3.328-8.738-3.328-12.066,0c-3.337,3.328-3.337,8.738,0,12.066
				C92.937,97.075,105.796,102.4,119.467,102.4z"/>
			<path d="M65.425,433.886c-42.078,14.805-58.778,48.256-64.981,66.876c-1.493,4.471,0.922,9.301,5.393,10.795
				C6.724,511.855,7.637,512,8.533,512c3.575,0,6.903-2.261,8.09-5.837c5.222-15.659,19.251-43.785,54.468-56.184
				c4.446-1.562,6.784-6.434,5.214-10.88C74.743,434.654,69.845,432.341,65.425,433.886z"/>
		</g>
	</g>
</g>
</svg>