<?xml version="1.0" encoding="iso-8859-1"?>
<!-- Uploaded to: SVG Repo, www.svgrepo.com, Generator: SVG Repo Mixer Tools -->
<svg height="800px" width="800px" version="1.1" id="Layer_1" xmlns="http://www.w3.org/2000/svg" xmlns:xlink="http://www.w3.org/1999/xlink" 
	 viewBox="0 0 503.467 503.467" xml:space="preserve">
<g transform="translate(8 1)">
	<path style="fill:#FFD0A1;" d="M345.53,327.533c0-65.707-53.76-119.467-119.467-119.467c-65.707,0-119.467,53.76-119.467,119.467
		S160.357,447,226.063,447C291.77,447,345.53,393.24,345.53,327.533 M191.93,71.533V37.4c0-18.773,15.36-34.133,34.133-34.133
		s34.133,15.36,34.133,34.133v51.2c0-18.773,15.36-34.133,34.133-34.133c18.773,0,34.133,15.36,34.133,34.133v128
		c0,0,0-8.533,8.533-34.133s25.6-34.133,25.6-34.133s8.533-8.533,25.6-8.533c25.6,0,42.667,17.067,42.667,17.067
		s-34.133,17.067-34.133,68.267v102.4c0,93.867-75.947,170.667-170.667,170.667c-93.867,0-170.667-76.8-170.667-170.667V139.8
		c0-18.773,15.36-34.133,34.133-34.133s34.133,15.36,34.133,34.133V71.533c0-18.773,15.36-34.133,34.133-34.133
		S191.93,52.76,191.93,71.533"/>
	<path style="fill:#AE938D;" d="M226.063,208.067c65.707,0,119.467,53.76,119.467,119.467S291.77,447,226.063,447
		c-65.707,0-119.467-53.76-119.467-119.467S160.357,208.067,226.063,208.067 M277.263,327.533c0-9.387-2.56-17.92-6.827-25.6
		s-11.093-14.507-18.773-18.773s-16.213-6.827-25.6-6.827s-17.92,2.56-25.6,6.827s-14.507,11.093-18.773,18.773
		c-4.267,7.68-6.827,16.213-6.827,25.6s2.56,17.92,6.827,25.6c4.267,7.68,11.093,14.507,18.773,18.773
		c7.68,4.267,16.213,6.827,25.6,6.827s17.92-2.56,25.6-6.827s14.507-11.093,18.773-18.773
		C274.703,345.453,277.263,336.92,277.263,327.533"/>
	<path style="fill:#F2EDDA;" d="M270.437,301.933c4.267,7.68,6.827,16.213,6.827,25.6s-2.56,17.92-6.827,25.6
		c-4.267,7.68-11.093,14.507-18.773,18.773s-16.213,6.827-25.6,6.827s-17.92-2.56-25.6-6.827s-14.507-11.093-18.773-18.773
		c-4.267-7.68-6.827-16.213-6.827-25.6s2.56-17.92,6.827-25.6s11.093-14.507,18.773-18.773c7.68-4.267,16.213-6.827,25.6-6.827
		s17.92,2.56,25.6,6.827S266.17,294.253,270.437,301.933"/>
</g>
<path style="fill:#51565F;" d="M234.063,503.467c-96.427,0-174.933-78.507-174.933-174.933V140.8c0-21.333,17.067-38.4,38.4-38.4
	c11.947,0,23.04,5.973,29.867,14.507V72.533c0-21.333,17.067-38.4,38.4-38.4c11.947,0,23.04,5.973,29.867,14.507V38.4
	c0-21.333,17.067-38.4,38.4-38.4s38.4,17.067,38.4,38.4v27.307c6.827-8.533,17.92-14.507,29.867-14.507
	c21.333,0,38.4,17.067,38.4,38.4v128c0,2.56-1.707,4.267-4.267,4.267s-4.267-1.707-4.267-4.267v-128
	c0-16.213-13.653-29.867-29.867-29.867S272.463,73.387,272.463,89.6v93.867c0,2.56-1.707,4.267-4.267,4.267
	s-4.267-1.707-4.267-4.267V38.4c0-16.213-13.653-29.867-29.867-29.867S204.197,22.187,204.197,38.4v145.067
	c0,2.56-1.707,4.267-4.267,4.267s-4.267-1.707-4.267-4.267V72.533c0-16.213-13.653-29.867-29.867-29.867S135.93,56.32,135.93,72.533
	V217.6c0,2.56-1.707,4.267-4.267,4.267c-2.56,0-4.267-1.707-4.267-4.267v-76.8c0-16.213-13.653-29.867-29.867-29.867
	S67.663,124.587,67.663,140.8v187.733c0,92.16,74.24,166.4,166.4,166.4c92.16,0,166.4-74.24,166.4-166.4v-102.4
	c0-40.96,21.333-61.44,31.573-69.12c-5.973-4.267-18.773-11.947-35.84-11.947c-14.507,0-22.187,6.827-22.187,7.68
	c-1.707,1.707-4.267,1.707-5.973,0s-1.707-4.267,0-5.973c0,0,10.24-9.387,29.013-9.387c27.307,0,45.227,17.92,46.08,17.92
	c0.853,0.853,1.707,2.56,0.853,3.413c-0.853,0.853-0.853,2.56-2.56,3.413c-1.707,0.853-31.573,17.067-31.573,64.853v102.4
	C408.997,424.96,330.49,503.467,234.063,503.467z M234.063,452.267c-68.267,0-123.733-55.467-123.733-123.733
	S165.797,204.8,234.063,204.8s123.733,55.467,123.733,123.733S302.33,452.267,234.063,452.267z M234.063,213.333
	c-63.147,0-115.2,52.053-115.2,115.2s52.053,115.2,115.2,115.2s115.2-52.053,115.2-115.2S297.21,213.333,234.063,213.333z
	 M234.063,418.133L234.063,418.133c-2.56,0-4.267-1.707-4.267-4.267V384c-6.827-0.853-13.653-2.56-19.627-5.12l-15.36,25.6
	c-0.853,1.707-3.413,2.56-5.973,1.707c-1.707-0.853-1.707-2.56-1.707-3.413c0-0.853,0-1.707,0.853-2.56l15.36-25.6
	c-5.973-4.267-10.24-8.533-14.507-14.507l-26.453,15.36c-1.707,0.853-4.267,0.853-5.973-1.707c0-0.853-0.853-1.707-0.853-1.707
	c0-1.707,0.853-2.56,2.56-3.413l25.6-15.36c-2.56-5.973-5.12-12.8-5.12-19.627H148.73c-2.56,0-4.267-1.707-4.267-4.267
	c0-2.56,1.707-4.267,4.267-4.267l0,0h29.867c0.853-6.827,2.56-13.653,5.12-19.627l-25.6-15.36c-1.707-0.853-1.707-2.56-1.707-3.413
	c0-0.853,0-1.707,0.853-2.56c0.853-1.707,3.413-2.56,5.973-1.707l25.6,15.36c4.267-5.973,8.533-10.24,14.507-14.507l-15.36-26.453
	c0-0.853-0.853-1.707-0.853-1.707c0-1.707,0.853-2.56,2.56-3.413c1.707-0.853,4.267-0.853,5.973,1.707l15.36,25.6
	c5.973-2.56,12.8-5.12,19.627-5.12v-29.867c0-2.56,1.707-4.267,4.267-4.267l0,0c2.56,0,4.267,1.707,4.267,4.267v29.867
	c6.827,0.853,13.653,2.56,19.627,5.12l15.36-25.6c0.853-1.707,3.413-2.56,5.973-1.707c1.707,0.853,2.56,2.56,2.56,3.413
	s0,1.707-0.853,2.56l-15.36,25.6c5.973,4.267,10.24,8.533,14.507,14.507l25.6-15.36c1.707-0.853,4.267-0.853,5.973,1.707
	c0,0.853,0.853,1.707,0.853,2.56c0,1.707-0.853,2.56-2.56,3.413l-25.6,15.36c2.56,5.973,5.12,12.8,5.12,19.627h29.867
	c2.56,0,4.267,1.707,4.267,4.267s-1.707,4.267-4.267,4.267h-29.867c-0.853,6.827-2.56,13.653-5.12,19.627l25.6,15.36
	c1.707,0.853,2.56,2.56,2.56,3.413s0,1.707-0.853,2.56c-0.853,1.707-3.413,2.56-5.973,1.707l-25.6-15.36
	c-4.267,5.973-8.533,10.24-14.507,14.507l15.36,26.453c0,0.853,0.853,1.707,0.853,1.707c0,1.707-0.853,2.56-2.56,3.413
	c-1.707,0.853-4.267,0.853-5.973-1.707l-15.36-25.6c-5.973,2.56-12.8,5.12-19.627,5.12v29.867
	C238.33,416.427,236.623,418.133,234.063,418.133z M210.17,287.573c-13.653,8.533-23.04,23.04-23.04,40.96
	c0,25.6,21.333,46.933,46.933,46.933s46.933-21.333,46.933-46.933c0-17.067-9.387-32.427-23.04-40.96l0,0l0,0
	c-6.827-4.267-14.507-5.973-23.04-5.973l0,0l0,0C225.53,281.6,217.85,284.16,210.17,287.573
	C211.023,287.573,211.023,287.573,210.17,287.573L210.17,287.573z M234.063,349.867c-2.56,0-4.267-1.707-4.267-4.267v-34.133
	c0-2.56,1.707-4.267,4.267-4.267s4.267,1.707,4.267,4.267V345.6C238.33,348.16,236.623,349.867,234.063,349.867z M259.663,341.333
	c-2.56,0-4.267-1.707-4.267-4.267V320c0-2.56,1.707-4.267,4.267-4.267s4.267,1.707,4.267,4.267v17.067
	C263.93,339.627,262.223,341.333,259.663,341.333z M208.463,341.333c-2.56,0-4.267-1.707-4.267-4.267V320
	c0-2.56,1.707-4.267,4.267-4.267s4.267,1.707,4.267,4.267v17.067C212.73,339.627,211.023,341.333,208.463,341.333z"/>
</svg>