<?xml version="1.0" encoding="iso-8859-1"?>
<!-- Uploaded to: SVG Repo, www.svgrepo.com, Generator: SVG Repo Mixer Tools -->
<svg height="800px" width="800px" version="1.1" id="Layer_1" xmlns="http://www.w3.org/2000/svg" xmlns:xlink="http://www.w3.org/1999/xlink" 
	 viewBox="0 0 503.467 503.467" xml:space="preserve">
<g transform="translate(3 1)">
	<polygon style="fill:#F2EDDA;" points="356.086,216.6 292.086,225.133 343.286,263.533 326.219,327.533 385.953,293.4 
		445.686,327.533 428.619,263.533 479.819,225.133 415.819,216.6 385.953,156.867 	"/>
	<path style="fill:#50DD8E;" d="M462.753,105.667c-34.987-31.573-76.8-51.2-128-51.2c-108.373,0-196.267,87.893-196.267,196.267
		S226.379,447,334.753,447c5.973,0,68.267,0,128-51.2c-45.227,62.293-113.493,102.4-196.267,102.4
		c-136.533,0-247.467-110.933-247.467-247.467S129.953,3.267,266.486,3.267C349.259,3.267,417.526,43.373,462.753,105.667"/>
</g>
<path style="fill:#51565F;" d="M269.486,503.467c-139.093,0-251.733-112.64-251.733-251.733S130.393,0,269.486,0
	c80.213,0,151.04,36.693,199.68,104.107c1.707,1.707,0.853,4.267-0.853,5.973c-1.707,1.707-4.267,0.853-5.973-0.853
	C415.406,44.373,347.139,8.534,269.486,8.534c-133.973,0-243.2,109.227-243.2,243.2s109.227,243.2,243.2,243.2
	c77.653,0,145.92-35.84,192.853-100.693c1.707-1.707,4.267-2.56,5.973-0.853c1.707,1.707,2.56,4.267,0.853,5.973
	C420.526,466.773,349.699,503.467,269.486,503.467z M337.753,452.267c-110.933,0-200.533-89.6-200.533-200.533
	S226.819,51.2,337.753,51.2c2.56,0,4.267,1.707,4.267,4.267c0,2.56-1.707,4.267-4.267,4.267c-105.813,0-192,86.187-192,192
	s86.187,192,192,192c5.973,0,11.093,0,17.067-0.853c2.56,0,4.267,1.707,4.267,4.267s-1.707,4.267-4.267,4.267
	C349.699,452.267,343.726,452.267,337.753,452.267z M448.686,332.8c-0.853,0-1.707,0-1.707-0.853l-58.027-33.28l-58.027,33.28
	c-1.707,0.853-3.413,0.853-5.12,0c-1.707-0.853-1.707-2.56-1.707-4.267l16.213-61.44l-48.64-36.693
	c-1.707-0.853-1.707-2.56-1.707-4.267c0.853-1.707,1.707-2.56,3.413-3.413l61.44-8.533l29.013-58.027c1.707-2.56,5.973-2.56,7.68,0
	l29.013,58.027l61.44,8.533c1.707,0,3.413,1.707,3.413,3.413c0.853,1.707,0,3.413-1.707,4.267l-48.64,36.693l16.213,61.44
	c0.853,1.707,0,3.413-1.707,4.267C450.393,332.8,449.54,332.8,448.686,332.8z M388.953,290.133c0.853,0,1.707,0,1.707,0.853
	l51.2,29.013l-14.507-53.76c-0.853-1.707,0-3.413,1.707-4.267l42.667-32.427l-53.76-6.827c-1.707,0-2.56-0.853-3.413-2.56
	l-26.453-52.053l-26.453,52.053c-0.853,0.853-1.707,2.56-3.413,2.56l-53.76,6.827l42.667,32.427c1.707,0.853,1.707,2.56,1.707,4.267
	L334.339,320l51.2-29.013C387.246,290.133,388.099,290.133,388.953,290.133z"/>
</svg>