<?xml version="1.0" encoding="iso-8859-1"?>
<!-- Uploaded to: SVG Repo, www.svgrepo.com, Generator: SVG Repo Mixer Tools -->
<svg height="800px" width="800px" version="1.1" id="Layer_1" xmlns="http://www.w3.org/2000/svg" xmlns:xlink="http://www.w3.org/1999/xlink" 
	 viewBox="0 0 504.32 504.32" xml:space="preserve">
<path style="fill:#FF7474;" d="M396.8,158.08c93.867,0,102.4,60.587,102.4,145.067c0,68.267-25.6,162.133-102.4,162.133
	c-85.333,0-85.333-136.533-85.333-136.533c8.533,25.6,34.133,42.667,34.133,42.667c9.387,5.12,20.48,8.533,34.133,8.533
	c51.2,0,85.333-51.2,85.333-93.867c0-68.267-25.6-85.333-42.667-85.333c-23.04,0-34.133,17.067-34.133,17.067
	s-42.667,59.733-51.2,68.267c-17.067,17.067-51.2,17.067-51.2,17.067h-25.6c0,0,17.067,25.6,17.067,76.8
	S261.12,499.414,157.867,499.414c-153.6,0-153.6-213.333-153.6-213.333c42.667,153.6,119.467,145.067,145.067,145.067
	s85.333-17.067,85.333-68.267c0-59.733-59.733-51.2-59.733-51.2H140.8l-17.067-68.267c34.133,0,59.733-8.533,76.8-34.133
	s8.533-51.2-25.6-51.2c-51.2,0-93.867,25.6-93.867,25.6l-25.6-51.2c25.6-25.6,68.267-42.667,119.467-42.667
	S243.2,132.48,243.2,175.147s-42.667,85.333-42.667,85.333s8.533,17.067,42.667,17.067s51.2-34.133,51.2-34.133l34.133-51.2
	C328.533,192.214,345.6,158.08,396.8,158.08z M422.4,47.147l34.133,42.667c0,0-34.133,42.667-119.467,42.667
	c-102.4,0-110.933-102.4-110.933-102.4C243.2,55.68,268.8,89.814,320,89.814S422.4,47.147,422.4,47.147z M337.067,30.08l-25.6,25.6
	l-25.6-25.6l25.6-25.6L337.067,30.08z"/>
<path style="fill:#51565F;" d="M157.867,503.68C1.707,503.68,0,288.64,0,286.08s1.707-4.267,3.413-4.267
	c1.707,0,4.267,0.853,4.267,3.413c40.107,143.36,108.373,142.507,137.387,141.653h4.267c21.333,0,81.067-15.36,81.067-64
	c0-16.213-4.267-28.16-13.653-36.693c-16.213-13.653-40.96-10.24-40.96-10.24H140.8c-1.707,0-3.413-1.707-4.267-3.413
	l-17.067-68.267c0-0.853,0-2.56,0.853-3.413c0.853-0.853,1.707-1.707,3.413-1.707c35.84,0,58.027-10.24,73.387-32.427
	c7.68-11.947,10.24-23.893,5.12-32.427c-4.267-7.68-13.653-11.947-27.307-11.947c-49.493,0-91.307,24.747-91.307,24.747
	c-0.853,0.853-2.56,0.853-3.413,0.853s-1.707-0.853-2.56-2.56l-25.6-51.2c-0.853-1.707-0.853-3.413,0.853-5.12
	c28.16-28.16,72.533-43.52,122.88-43.52c45.227,0,72.533,33.28,72.533,89.6c0,38.4-32.427,75.947-41.813,85.333
	c3.413,4.267,13.653,12.8,37.547,12.8c30.72,0,46.933-31.573,47.787-31.573l34.133-52.053c0.853-0.853,18.773-35.84,71.68-35.84
	c98.987,0,106.667,67.413,106.667,149.333c0,61.44-22.187,166.4-106.667,166.4c-88.747,0-89.6-139.093-89.6-140.8
	c0-1.707,0.853-3.413,2.56-4.267c1.707-0.853,3.413,0,5.12,1.707L349.867,368c9.387,5.12,19.627,7.68,30.72,7.68
	c47.787,0,81.067-46.933,81.067-89.6c0-59.733-19.627-81.067-38.4-81.067c-20.48,0-29.867,14.507-30.72,15.36
	c-1.707,2.56-42.667,60.587-52.053,69.12c-17.92,17.92-52.907,17.92-54.613,17.92h-18.773c5.12,11.093,14.507,34.987,14.507,72.533
	C281.6,461.867,239.787,503.68,157.867,503.68z M11.093,321.92c7.68,59.733,37.547,173.227,146.773,173.227
	c77.653,0,115.2-37.547,115.2-115.2c0-49.493-16.213-74.24-16.213-74.24c-0.853-1.707-0.853-3.413,0-4.267s2.56-2.56,3.413-2.56
	h25.6c0,0,32.427,0,47.787-16.213c6.827-6.827,35.84-46.933,50.347-67.413c0-0.853,12.8-18.773,37.547-18.773
	c7.68,0,46.933,4.267,46.933,89.6c0,46.08-36.693,98.133-89.6,98.133c-12.8,0-25.6-3.413-35.84-9.387
	c-0.853,0-0.853-0.853-0.853-0.853l-26.453-32.427c2.56,33.28,15.36,119.467,80.213,119.467c77.653,0,98.133-98.987,98.133-157.867
	c0-82.773-6.827-140.8-98.133-140.8c-47.787,0-64,31.573-64.853,31.573l-34.133,52.053c-0.853,0.853-18.773,35.84-54.613,35.84
	c-36.693,0-46.08-18.773-46.08-19.627c-0.853-1.707-0.853-3.413,0.853-5.12c0,0,41.813-41.813,41.813-81.92
	c0-24.747-5.973-81.067-64-81.067c-46.08,0-87.893,14.507-114.347,39.253l22.187,44.373c11.947-5.973,48.64-23.893,92.16-23.893
	c17.067,0,29.013,5.973,34.987,17.067c5.973,11.093,4.267,26.453-5.973,40.96c-16.213,23.893-39.253,34.987-75.093,35.84
	l15.36,59.733h30.72c0.853,0,28.16-4.267,46.933,12.8c11.093,9.387,17.067,23.893,17.067,42.667c0,54.613-61.44,72.533-89.6,72.533
	h-3.413C119.467,436.267,54.613,437.12,11.093,321.92z M337.067,136.747c-104.96,0-115.2-104.96-115.2-106.667
	c0-1.707,0.853-3.413,2.56-4.267c1.707-0.853,4.267,0,5.12,1.707C243.2,48,267.947,85.547,320,85.547
	c49.493,0,98.987-40.96,99.84-41.813c0.853-0.853,1.707-0.853,3.413-0.853c0.853,0,2.56,0.853,2.56,1.707l34.133,42.667
	c0.853,1.707,0.853,3.413,0,5.12C458.24,94.08,423.253,136.747,337.067,136.747z M233.813,48.854
	c7.68,29.013,31.573,79.36,103.253,79.36c69.973,0,104.96-29.867,113.493-38.4L421.547,53.12c-12.8,9.387-56.32,40.96-101.547,40.96
	C276.48,94.08,250.027,69.334,233.813,48.854z M311.467,59.947c-0.853,0-2.56,0-3.413-0.853l-25.6-25.6
	c-1.707-1.707-1.707-4.267,0-5.973l25.6-25.6c1.707-1.707,4.267-1.707,5.973,0l25.6,25.6c1.707,1.707,1.707,4.267,0,5.973
	l-25.6,25.6C314.027,59.947,312.32,59.947,311.467,59.947z M291.84,30.08l19.627,19.627l19.627-19.627l-19.627-19.627L291.84,30.08z
	"/>
</svg>