<?xml version="1.0" encoding="iso-8859-1"?>
<!-- Uploaded to: SVG Repo, www.svgrepo.com, Generator: SVG Repo Mixer Tools -->
<svg height="800px" width="800px" version="1.1" id="Layer_1" xmlns="http://www.w3.org/2000/svg" xmlns:xlink="http://www.w3.org/1999/xlink" 
	 viewBox="0 0 503.467 503.467" xml:space="preserve">
<g transform="translate(13 1)">
	<path style="fill:#F2EDDA;" d="M349.667,191v119.467H127.8V191h34.133h153.6H349.667z M349.667,310.467H127.8H93.667V498.2H127.8
		v-34.133H179V344.6h59.733h59.733v119.467h51.2V498.2H383.8V310.467H349.667z M315.533,63v128h-153.6V63c0,0,51.2,0,76.8-59.733
		C264.333,63,315.533,63,315.533,63z"/>
	<path style="fill:#AE938D;" d="M238.733,412.867V344.6h59.733v119.467h-59.733V412.867z M238.733,412.867v51.2H179V344.6h59.733
		V412.867z"/>
	<polygon style="fill:#FFD0A1;" points="213.133,156.867 264.333,156.867 264.333,88.6 213.133,88.6 	"/>
	<polygon style="fill:#F2EDDA;" points="298.467,464.067 238.733,464.067 179,464.067 127.8,464.067 127.8,498.2 349.667,498.2 
		349.667,464.067 	"/>
</g>
<path style="fill:#51565F;" d="M499.2,503.467H4.267C1.707,503.467,0,501.76,0,499.2c0-2.56,1.707-4.267,4.267-4.267H499.2
	c2.56,0,4.267,1.707,4.267,4.267C503.467,501.76,501.76,503.467,499.2,503.467z M396.8,469.333c-2.56,0-4.267-1.707-4.267-4.267
	V315.733h-281.6v149.333c0,2.56-1.707,4.267-4.267,4.267c-2.56,0-4.267-1.707-4.267-4.267V315.733H72.533
	c-21.333,0-38.4-17.067-38.4-38.4c0-2.56,1.707-4.267,4.267-4.267c2.56,0,4.267,1.707,4.267,4.267
	c0,16.213,13.653,29.867,29.867,29.867h358.4c16.213,0,29.867-13.653,29.867-29.867c0-2.56,1.707-4.267,4.267-4.267
	s4.267,1.707,4.267,4.267c0,21.333-17.067,38.4-38.4,38.4h-29.867v149.333C401.067,467.627,399.36,469.333,396.8,469.333z
	 M362.667,469.333H140.8c-2.56,0-4.267-1.707-4.267-4.267c0-2.56,1.707-4.267,4.267-4.267h46.933V349.867h-12.8
	c-2.56,0-4.267-1.707-4.267-4.267c0-2.56,1.707-4.267,4.267-4.267h153.6c2.56,0,4.267,1.707,4.267,4.267
	c0,2.56-1.707,4.267-4.267,4.267h-12.8V460.8h46.933c2.56,0,4.267,1.707,4.267,4.267
	C366.933,467.627,365.227,469.333,362.667,469.333z M256,460.8h51.2V349.867H256V409.6h4.267c2.56,0,4.267,1.707,4.267,4.267
	c0,2.56-1.707,4.267-4.267,4.267H256V460.8z M196.267,460.8h51.2v-42.667H243.2c-2.56,0-4.267-1.707-4.267-4.267
	c0-2.56,1.707-4.267,4.267-4.267h4.267v-59.733h-51.2V460.8z M362.667,384c-2.56,0-4.267-1.707-4.267-4.267V345.6
	c0-2.56,1.707-4.267,4.267-4.267s4.267,1.707,4.267,4.267v34.133C366.933,382.293,365.227,384,362.667,384z M140.8,384
	c-2.56,0-4.267-1.707-4.267-4.267V345.6c0-2.56,1.707-4.267,4.267-4.267c2.56,0,4.267,1.707,4.267,4.267v34.133
	C145.067,382.293,143.36,384,140.8,384z M362.667,281.6c-2.56,0-4.267-1.707-4.267-4.267v-81.067H145.067v81.067
	c0,2.56-1.707,4.267-4.267,4.267c-2.56,0-4.267-1.707-4.267-4.267v-81.067h-29.867c-21.333,0-38.4-17.067-38.4-38.4
	c0-2.56,1.707-4.267,4.267-4.267s4.267,1.707,4.267,4.267c0,16.213,13.653,29.867,29.867,29.867H396.8
	c16.213,0,29.867-13.653,29.867-29.867c0-2.56,1.707-4.267,4.267-4.267s4.267,1.707,4.267,4.267c0,21.333-17.067,38.4-38.4,38.4
	h-29.867v81.067C366.933,279.893,365.227,281.6,362.667,281.6z M311.467,281.6c-2.56,0-4.267-1.707-4.267-4.267v-51.2
	c0-2.56,1.707-4.267,4.267-4.267s4.267,1.707,4.267,4.267v51.2C315.733,279.893,314.027,281.6,311.467,281.6z M192,281.6
	c-2.56,0-4.267-1.707-4.267-4.267v-51.2c0-2.56,1.707-4.267,4.267-4.267s4.267,1.707,4.267,4.267v51.2
	C196.267,279.893,194.56,281.6,192,281.6z M328.533,162.133c-2.56,0-4.267-1.707-4.267-4.267v-89.6
	c-12.8-1.707-49.493-9.387-72.533-53.76C228.693,58.88,192,66.56,179.2,68.267v89.6c0,2.56-1.707,4.267-4.267,4.267
	s-4.267-1.707-4.267-4.267v-89.6H140.8c-21.333,0-38.4-17.067-38.4-38.4c0-2.56,1.707-4.267,4.267-4.267
	c2.56,0,4.267,1.707,4.267,4.267c0,16.213,13.653,29.867,29.867,29.867h34.133c1.707,0,48.64-0.853,72.533-57.173
	c1.707-3.413,6.827-3.413,7.68,0c23.893,56.32,70.827,57.173,72.533,57.173h34.133c16.213,0,29.867-13.653,29.867-29.867
	c0-2.56,1.707-4.267,4.267-4.267s4.267,1.707,4.267,4.267c0,21.333-17.067,38.4-38.4,38.4h-29.867v89.6
	C332.8,160.427,331.093,162.133,328.533,162.133z M277.333,162.133c-2.56,0-4.267-1.707-4.267-4.267v-64H230.4v64
	c0,2.56-1.707,4.267-4.267,4.267s-4.267-1.707-4.267-4.267v-64h-12.8c-2.56,0-4.267-1.707-4.267-4.267
	c0-2.56,1.707-4.267,4.267-4.267H294.4c2.56,0,4.267,1.707,4.267,4.267c0,2.56-1.707,4.267-4.267,4.267h-12.8v64
	C281.6,160.427,279.893,162.133,277.333,162.133z"/>
</svg>