<?xml version="1.0" encoding="iso-8859-1"?>
<!-- Uploaded to: SVG Repo, www.svgrepo.com, Generator: SVG Repo Mixer Tools -->
<svg height="800px" width="800px" version="1.1" id="Layer_1" xmlns="http://www.w3.org/2000/svg" xmlns:xlink="http://www.w3.org/1999/xlink" 
	 viewBox="0 0 504.32 504.32" xml:space="preserve">
<g transform="translate(1 1)">
	<path style="fill:#AE938D;" d="M377.5,156.866c0,0-49.493-17.067-58.027-51.2c0,0-2.56-17.067,0-34.133l0,0
		C339.1,67.266,353.607,63,353.607,63l8.533,25.6C372.38,114.2,376.647,140.653,377.5,156.866L377.5,156.866z M182.94,105.666
		c-8.533,34.133-58.027,51.2-58.027,51.2h-0.853c1.707-16.213,5.973-41.813,16.213-68.267l8.533-25.6c0,0,14.507,4.267,34.133,8.533
		l0,0C185.5,87.746,182.94,105.666,182.94,105.666z"/>
	<path style="fill:#F2EDDA;" d="M336.54,370.2l17.067,42.667l-59.733,25.6c0,0,17.067,25.6,25.6,59.733H182.94
		c8.533-34.133,25.6-59.733,25.6-59.733l-59.733-25.6l17.067-42.667l85.333,42.667L336.54,370.2z"/>
	<circle style="fill:#FF7474;" cx="251.207" cy="489.666" r="8.533"/>
	<g>
		<path style="fill:#ECF4F7;" d="M148.807,412.866l59.733,25.6c0,0-17.067,25.6-25.6,59.733H3.74l8.533-25.6
			c8.533-25.6,25.6-59.733,110.933-59.733H148.807z"/>
		<path style="fill:#ECF4F7;" d="M251.207,3.266c76.8,0,102.4,59.733,102.4,59.733s-14.507,4.267-34.133,8.533
			c-20.48,4.267-46.933,8.533-68.267,8.533S203.42,75.8,182.94,71.533C163.313,67.266,148.807,63,148.807,63
			S174.407,3.266,251.207,3.266"/>
	</g>
	<g>
		<path style="fill:#FFD0A1;" d="M208.54,267.8h85.333c8.533,42.667,25.6,68.267,25.6,68.267l0.853,1.707
			c-15.36,13.653-38.4,23.893-69.12,23.893s-53.76-11.093-69.12-23.893l0.853-1.707C182.94,336.066,200.007,310.466,208.54,267.8"/>
		<path style="fill:#FFD0A1;" d="M182.087,337.773c-18.773-15.36-28.16-34.987-33.28-44.373c-17.067-34.133-25.6-68.267-25.6-68.267
			c-9.387,0-17.067-7.68-17.067-17.067V191c0,0,0-17.067,17.067-17.067c0,0,0-6.827,0.853-17.067h0.853
			c0,0,49.493-17.067,58.027-51.2c0,0,2.56-17.92,0-34.133l0,0c20.48,4.267,46.933,8.533,68.267,8.533s47.787-4.267,68.267-8.533
			l0,0c-2.56,17.067,0,34.133,0,34.133c8.533,34.133,58.027,51.2,58.027,51.2h0.853c0.853,10.24,0.853,17.067,0.853,17.067
			c17.067,0,17.067,17.067,17.067,17.067v17.067c0,9.387-7.68,17.067-17.067,17.067c0,0-8.533,34.133-25.6,68.267
			c-4.267,9.387-14.507,28.16-33.28,44.373l-0.853-1.707c0,0-17.067-25.6-25.6-68.267H208.54c-8.533,42.667-25.6,68.267-25.6,68.267
			L182.087,337.773z"/>
	</g>
	<path style="fill:#ECF4F7;" d="M490.14,472.6l8.533,25.6h-179.2c-8.533-34.133-25.6-59.733-25.6-59.733l59.733-25.6h25.6
		C464.54,412.866,482.46,448.707,490.14,472.6"/>
</g>
<path style="fill:#51565F;" d="M499.673,503.466c-1.707,0-3.413-0.853-4.267-2.56l-8.533-25.6
	c-9.387-28.16-29.013-56.32-106.667-56.32c-2.56,0-4.267-1.707-4.267-4.267s1.707-4.267,4.267-4.267
	c83.627,0,104.96,33.28,115.2,62.293l8.533,25.6c0.853,2.56-0.853,4.267-2.56,5.12C500.527,503.466,500.527,503.466,499.673,503.466
	z M4.74,503.466c-0.853,0-0.853,0-1.707,0c-2.56-0.853-3.413-3.413-2.56-5.12l8.533-25.6c10.24-30.72,32.427-62.293,115.2-62.293
	c2.56,0,4.267,1.707,4.267,4.267s-1.707,4.267-4.267,4.267c-87.893,0-100.693,36.693-106.667,57.173l-8.533,25.6
	C8.153,502.613,6.447,503.466,4.74,503.466z M320.473,503.466c-1.707,0-3.413-1.707-4.267-3.413
	c-8.533-33.28-24.747-58.027-24.747-58.027c-0.853-0.853-0.853-2.56-0.853-3.413c0-0.853,0.853-2.56,2.56-2.56l56.32-23.893
	l-15.36-38.4c-0.853-2.56,0-4.267,2.56-5.12c2.56-0.853,4.267,0,5.12,2.56l17.067,42.667c0.853,2.56,0,4.267-2.56,5.12
	l-55.467,23.893c5.12,8.533,17.067,29.867,23.893,56.32c0.853,2.56-0.853,4.267-3.413,5.12
	C321.327,503.466,320.473,503.466,320.473,503.466z M183.94,503.466h-0.853c-2.56-0.853-3.413-2.56-3.413-5.12
	c6.827-26.453,17.92-47.787,23.893-56.32L148.1,418.133c-1.707-0.853-3.413-3.413-2.56-5.12l17.067-42.667
	c0.853-2.56,3.413-3.413,5.12-2.56c2.56,0.853,3.413,3.413,2.56,5.12l-15.36,38.4l56.32,23.893c0.853,0.853,1.707,1.707,2.56,2.56
	c0,0.853,0,2.56-0.853,3.413c0,0-17.067,25.6-24.747,58.027C187.353,501.76,185.647,503.466,183.94,503.466z M252.207,503.466
	c-6.827,0-12.8-5.973-12.8-12.8c0-6.827,5.973-12.8,12.8-12.8c6.827,0,12.8,5.973,12.8,12.8
	C265.007,497.493,259.033,503.466,252.207,503.466z M252.207,486.4c-2.56,0-4.267,1.707-4.267,4.267c0,2.56,1.707,4.267,4.267,4.267
	s4.267-1.707,4.267-4.267C256.473,488.107,254.767,486.4,252.207,486.4z M252.207,366.933c-70.827,0-97.28-52.907-105.813-70.827
	c-14.507-29.013-23.04-57.173-24.747-66.56c-10.24-1.707-17.92-10.24-17.92-21.333v-17.067c0-6.827,3.413-18.773,17.067-21.333
	c0.853-11.947,2.56-46.933,17.067-82.773c0.853-2.56,3.413-3.413,5.12-2.56c2.56,0.853,3.413,3.413,2.56,5.12
	c-8.533,22.187-12.8,44.373-15.36,60.587c12.8-5.12,43.52-21.333,49.493-46.08c0.853-2.56,2.56-3.413,5.12-3.413
	c2.56,0.853,3.413,2.56,3.413,5.12c-8.533,32.427-49.493,50.347-58.88,53.76c-0.853,8.533-0.853,13.653-0.853,13.653
	c0,2.56-1.707,4.267-4.267,4.267c-11.947,0-12.8,11.093-12.8,12.8v17.067c0,6.827,5.973,12.8,12.8,12.8
	c1.707,0,3.413,1.707,4.267,3.413c0,0,8.533,34.133,25.6,67.413c4.267,8.533,12.8,24.747,28.16,39.253
	c4.267-7.68,17.067-30.72,23.04-64c0.853-2.56,2.56-3.413,5.12-3.413c2.56,0.853,3.413,2.56,3.413,5.12
	c-7.68,37.547-21.333,61.44-24.747,68.267c15.36,11.947,35.84,20.48,64,20.48s48.64-9.387,64-20.48
	c-4.267-6.827-17.92-30.72-24.747-68.267c-0.853-2.56,0.853-4.267,3.413-5.12c2.56-0.853,4.267,0.853,5.12,3.413
	c6.827,34.133,18.773,57.173,23.04,64c16.213-14.507,23.893-31.573,28.16-39.253c17.067-33.28,25.6-67.413,25.6-67.413
	c0.853-1.707,2.56-3.413,4.267-3.413c6.827,0,12.8-5.973,12.8-12.8v-17.067c0-1.707-0.853-12.8-12.8-12.8
	c-2.56,0-4.267-1.707-4.267-4.267c0,0,0-5.12-0.853-13.653c-9.387-3.413-50.347-21.333-58.88-53.76
	c-0.853-2.56,0.853-4.267,3.413-5.12c2.56-0.853,4.267,0.853,5.12,3.413c5.973,24.747,36.693,40.107,49.493,46.08
	c-1.707-16.213-5.973-38.4-15.36-60.587c-0.853-2.56,0-4.267,2.56-5.12s4.267,0,5.12,2.56c14.507,35.84,17.067,71.68,17.067,82.773
	c13.653,1.707,17.067,14.507,17.067,21.333v17.067c0,10.24-7.68,19.627-17.92,21.333c-2.56,9.387-11.093,37.547-24.747,66.56
	C349.487,314.026,323.033,366.933,252.207,366.933z M269.273,298.666H235.14c-2.56,0-4.267-1.707-4.267-4.267
	s1.707-4.267,4.267-4.267h34.133c2.56,0,4.267,1.707,4.267,4.267S271.833,298.666,269.273,298.666z M303.407,204.8
	c-2.56,0-4.267-1.707-4.267-4.267v-4.267h-12.8c-2.56,0-4.267-1.707-4.267-4.267c0-2.56,1.707-4.267,4.267-4.267h34.133
	c2.56,0,4.267,1.707,4.267,4.267c0,2.56-1.707,4.267-4.267,4.267h-12.8v4.267C307.673,203.093,305.967,204.8,303.407,204.8z
	 M201.007,204.8c-2.56,0-4.267-1.707-4.267-4.267v-4.267h-12.8c-2.56,0-4.267-1.707-4.267-4.267c0-2.56,1.707-4.267,4.267-4.267
	h34.133c2.56,0,4.267,1.707,4.267,4.267c0,2.56-1.707,4.267-4.267,4.267h-12.8v4.267C205.273,203.093,203.567,204.8,201.007,204.8z
	 M252.207,85.333c-42.667,0-100.693-16.213-103.253-17.067c-0.853,0-2.56-0.853-2.56-2.56c-0.853-0.853-0.853-2.56,0-3.413
	C146.393,61.44,173.7,0,253.06,0c78.507,0,105.813,61.44,106.667,62.293c0.853,0.853,0.853,2.56,0,3.413
	c-0.853,0.853-1.707,1.707-2.56,2.56C352.9,69.12,294.873,85.333,252.207,85.333z M155.78,61.44
	c15.36,4.267,61.44,15.36,96.427,15.36c34.133,0,81.067-11.947,96.427-15.36c-7.68-13.653-34.987-52.907-96.427-52.907
	S163.46,47.786,155.78,61.44z"/>
</svg>