<?xml version="1.0" encoding="iso-8859-1"?>
<!-- Uploaded to: SVG Repo, www.svgrepo.com, Generator: SVG Repo Mixer Tools -->
<svg fill="#000000" height="800px" width="800px" version="1.1" id="Layer_1" xmlns="http://www.w3.org/2000/svg" xmlns:xlink="http://www.w3.org/1999/xlink" 
	 viewBox="0 0 512.009 512.009" xml:space="preserve">
<g>
	<g>
		<g>
			<path d="M187.209,204.783l9.062,0.572v1.579c0,4.71,3.814,8.533,8.533,8.533s8.533-3.823,8.533-8.533v-0.521l7.996,0.503
				c0.188,0.017,0.358,0.017,0.546,0.017c4.463,0,8.226-3.482,8.508-7.996c0.29-4.71-3.285-8.755-7.987-9.054l-34.133-2.133
				c-4.642-0.324-8.755,3.277-9.045,7.987C178.931,200.439,182.507,204.484,187.209,204.783z"/>
			<path d="M222.767,299.119c-2.108,4.215-0.393,9.344,3.823,11.452c1.058,0.529,10.872,5.163,29.414,5.163
				s28.356-4.634,29.414-5.163c4.173-2.099,5.854-7.125,3.814-11.332c-2.039-4.198-7.108-5.956-11.349-3.985
				c-0.068,0.034-7.45,3.413-21.879,3.413c-14.413,0-21.786-3.371-21.786-3.371C229.995,293.197,224.883,294.903,222.767,299.119z"
				/>
			<path d="M290.129,206.933c0.188,0,0.358,0,0.538-0.017l8.004-0.503v0.521c0,4.71,3.814,8.533,8.533,8.533
				s8.533-3.823,8.533-8.533v-1.579l9.062-0.572c4.702-0.299,8.277-4.344,7.987-9.045c-0.299-4.71-4.395-8.329-9.054-7.987
				l-34.133,2.133c-4.693,0.299-8.269,4.344-7.979,9.054C281.903,203.452,285.666,206.933,290.129,206.933z"/>
			<path d="M511.561,500.77l-9.062-27.221c-8.388-25.353-21.035-63.599-142.396-63.599c-2.057,0.017-4.233,0.137-6.042,1.195
				c-0.742,0.435-8.09,4.932-17.766,13.969c-5.564-2.637-10.641-5.854-12.023-7.782V409.6c0-4.71-3.814-8.533-8.533-8.533
				s-8.533,3.823-8.533,8.533v8.533c0,8.602,8.235,15.258,16.768,19.908c-2.159,2.543-4.335,5.248-6.519,8.183
				c-33.894,17.852-66.091,49.818-67.482,51.208c-3.336,3.337-3.336,8.73,0,12.066c1.664,1.664,3.849,2.5,6.033,2.5
				c2.185,0,4.369-0.836,6.033-2.5c0.23-0.23,16.179-16.06,36.719-31.181c-3.115,7.006-5.948,14.575-8.294,22.801
				c-1.289,4.531,1.331,9.259,5.871,10.547c4.48,1.297,9.25-1.314,10.547-5.854c5.555-19.465,14.054-35.029,22.75-47.121
				c1.229-1.033,2.253-2.261,2.739-3.738c12.143-15.829,24.132-24.883,28.578-27.938c108.211,0.145,118.118,30.029,125.338,51.891
				l9.097,27.255c1.186,3.575,4.514,5.845,8.09,5.845c0.887,0,1.801-0.145,2.697-0.444
				C510.639,510.071,513.054,505.242,511.561,500.77z"/>
			<path d="M380.207,436.634c-3.942-2.628-9.233-1.553-11.836,2.364c-18.295,27.435-18.5,62.967-18.5,64.469
				c0,4.71,3.814,8.533,8.533,8.533c4.719,0,8.533-3.823,8.533-8.533c0-0.316,0.179-31.812,15.633-54.997
				C385.19,444.544,384.132,439.245,380.207,436.634z"/>
			<path d="M262.566,466.261c3.012-3.618,2.526-9.003-1.092-12.015c-19.806-16.503-39.569-26.897-56.67-33.459V409.6
				c0-4.71-3.814-8.533-8.533-8.533s-8.533,3.823-8.533,8.533v5.572c-19.635-5.427-33.041-5.572-34.133-5.572
				c-122.931,0-135.142,36.898-144.06,63.838L0.448,500.77c-1.493,4.471,0.922,9.301,5.393,10.795
				c0.896,0.299,1.801,0.444,2.697,0.444c3.575,0,6.903-2.27,8.09-5.845l9.131-27.366c7.68-23.219,17.237-52.13,127.846-52.13
				c0.486,0,48.666,0.469,96.93,40.687C254.17,470.374,259.537,469.879,262.566,466.261z"/>
			<path d="M121.971,255.283c4.932,12.058,18.799,45.329,32.529,72.798c12.041,24.073,41.225,64.452,101.504,64.452
				s89.463-40.38,101.495-64.452c13.739-27.469,27.605-60.74,32.538-72.798c11.221-2.722,19.567-12.843,19.567-24.883v-34.133
				c0-8.559-4.719-20.591-17.109-24.397C390.976,49.92,351.1,0,256.004,0S121.033,49.92,119.514,171.87
				c-12.39,3.806-17.109,15.838-17.109,24.397V230.4C102.404,242.441,110.75,252.561,121.971,255.283z M119.471,196.369
				c0.102-3.942,1.655-8.636,8.533-8.636c4.719,0,8.533-3.823,8.533-8.533c0-118.195,32.375-162.133,119.467-162.133
				S375.471,61.005,375.471,179.2c0,4.71,3.814,8.533,8.533,8.533c6.878,0,8.431,4.693,8.533,8.533V230.4
				c0,4.702-3.823,8.533-8.533,8.533c-3.49,0-6.622,2.125-7.927,5.359c-0.162,0.427-17.118,42.726-33.843,76.16
				c-12.544,25.097-37.692,55.014-86.229,55.014c-48.546,0-73.685-29.918-86.238-55.014c-16.708-33.417-33.673-75.733-33.835-76.16
				c-1.306-3.234-4.437-5.359-7.927-5.359c-4.71,0-8.533-3.831-8.533-8.533V196.369z"/>
		</g>
	</g>
</g>
</svg>