<?xml version="1.0" encoding="iso-8859-1"?>
<!-- Uploaded to: SVG Repo, www.svgrepo.com, Generator: SVG Repo Mixer Tools -->
<svg fill="#000000" height="800px" width="800px" version="1.1" id="Layer_1" xmlns="http://www.w3.org/2000/svg" xmlns:xlink="http://www.w3.org/1999/xlink" 
	 viewBox="0 0 512.003 512.003" xml:space="preserve">
<g>
	<g>
		<g>
			<path d="M221.868,179.204v8.533h-85.333c-4.71,0-8.533,3.823-8.533,8.533s3.823,8.533,8.533,8.533h93.867
				c4.71,0,8.533-3.823,8.533-8.533v-17.067c0-4.71-3.823-8.533-8.533-8.533S221.868,174.494,221.868,179.204z"/>
			<path d="M468.439,140.352l8.533-17.067c2.108-4.215,0.393-9.335-3.823-11.443c-4.215-2.125-9.336-0.401-11.452,3.814
				l-6.485,12.979c-16.162,1.869-77.858,7.902-199.211,7.902c-121.148,0-183.014-6.042-199.211-7.91l-6.485-12.971
				c-2.116-4.215-7.236-5.939-11.452-3.814c-4.216,2.108-5.931,7.228-3.823,11.443l8.533,17.067
				c1.254,2.509,3.661,4.233,6.426,4.634c2.466,0.35,61.995,8.619,206.012,8.619s203.546-8.269,206.012-8.619
				C464.778,144.584,467.184,142.861,468.439,140.352z"/>
			<path d="M17.674,88.512c1.075,2.671,3.43,4.634,6.255,5.197c0.862,0.171,87.834,17.229,232.073,17.229
				s231.211-17.058,232.073-17.229c2.825-0.563,5.18-2.526,6.255-5.197l17.067-42.667c1.161-2.91,0.631-6.221-1.365-8.636
				c-2.005-2.406-5.154-3.541-8.235-2.901c-0.845,0.162-86.349,16.896-245.794,16.896c-159.206,0-244.949-16.734-245.794-16.896
				c-3.063-0.623-6.229,0.503-8.235,2.91c-1.997,2.406-2.526,5.717-1.365,8.627L17.674,88.512z M256.001,68.271
				c124.032,0,202.658-9.796,233.89-14.626l-9.66,24.149c-19.371,3.388-100.233,16.077-224.23,16.077S51.142,81.182,31.771,77.794
				l-9.66-24.149C53.343,58.474,131.969,68.271,256.001,68.271z"/>
			<path d="M281.601,170.671c-4.71,0-8.533,3.823-8.533,8.533v17.067c0,4.71,3.823,8.533,8.533,8.533h93.867
				c4.71,0,8.533-3.823,8.533-8.533s-3.823-8.533-8.533-8.533h-85.333v-8.533C290.135,174.494,286.312,170.671,281.601,170.671z"/>
			<path d="M21.335,247.471c0-3.157-1.715-5.914-4.267-7.39v-35.277h8.533c4.71,0,8.533-3.823,8.533-8.533s-3.823-8.533-8.533-8.533
				H8.535c-4.71,0-8.533,3.823-8.533,8.533v51.2c0,4.71,3.823,8.533,8.533,8.533h4.267
				C17.512,256.004,21.335,252.181,21.335,247.471z"/>
			<path d="M441.038,162.573c-4.471,1.493-6.886,6.332-5.402,10.795c0.333,0.998,32.734,100.062,41.796,286.66l-33.724-2.807
				c-1.075-157.713-34.057-283.213-34.398-284.484c-1.212-4.548-5.862-7.27-10.445-6.042c-4.548,1.212-7.253,5.888-6.042,10.445
				c0.333,1.263,33.843,128.759,33.843,287.932c0,4.437,3.396,8.132,7.825,8.508l51.2,4.267c0.239,0.017,0.478,0.026,0.708,0.026
				c2.193,0,4.318-0.845,5.914-2.381c1.766-1.698,2.722-4.07,2.611-6.519c-8.491-195.217-41.685-296.772-43.093-300.996
				C450.339,163.503,445.527,161.071,441.038,162.573z"/>
			<path d="M503.468,187.737h-17.067c-4.71,0-8.533,3.823-8.533,8.533s3.823,8.533,8.533,8.533h8.533v35.277
				c-2.551,1.476-4.267,4.233-4.267,7.39c0,4.71,3.823,8.533,8.533,8.533h4.267c4.71,0,8.533-3.823,8.533-8.533v-51.2
				C512.001,191.56,508.178,187.737,503.468,187.737z"/>
			<path d="M384.001,238.937h-256c-4.71,0-8.533,3.823-8.533,8.533c0,4.71,3.823,8.533,8.533,8.533h256
				c4.71,0,8.533-3.823,8.533-8.533C392.535,242.76,388.712,238.937,384.001,238.937z"/>
			<path d="M113.128,166.694c-4.548-1.22-9.233,1.493-10.436,6.042c-0.341,1.271-33.323,126.771-34.398,284.484l-33.724,2.807
				c9.054-186.283,41.464-285.662,41.796-286.66c1.485-4.471-0.93-9.301-5.402-10.795c-4.471-1.459-9.293,0.93-10.795,5.402
				c-1.408,4.224-34.603,105.779-43.093,300.996c-0.111,2.449,0.845,4.821,2.611,6.519c1.596,1.536,3.721,2.381,5.914,2.381
				c0.23,0,0.469-0.009,0.708-0.026l51.2-4.267c4.429-0.375,7.825-4.07,7.825-8.508c0-159.036,33.51-286.669,33.843-287.94
				C120.39,172.582,117.685,167.906,113.128,166.694z"/>
		</g>
	</g>
</g>
</svg>