<?xml version="1.0" encoding="iso-8859-1"?>
<!-- Uploaded to: SVG Repo, www.svgrepo.com, Generator: SVG Repo Mixer Tools -->
<svg height="800px" width="800px" version="1.1" id="Layer_1" xmlns="http://www.w3.org/2000/svg" xmlns:xlink="http://www.w3.org/1999/xlink" 
	 viewBox="0 0 503.467 503.467" xml:space="preserve">
<g transform="translate(5 1)">
	<polygon style="fill:#F2EDDA;" points="349.133,242.2 349.133,276.333 280.867,276.333 280.867,395.8 246.733,395.8 
		246.733,276.333 178.467,276.333 178.467,242.2 246.733,242.2 246.733,173.933 280.867,173.933 280.867,242.2 	"/>
	<path style="fill:#FFD0A1;" d="M443,37.4c0,25.6,17.067,34.133,17.067,34.133H67.533c0,0-34.133,0-34.133-34.133v-8.533
		c0-14.507,11.093-25.6,25.6-25.6h401.067C460.067,3.267,443,11.8,443,37.4"/>
	<g>
		<path style="fill:#AE938D;" d="M349.133,276.333V242.2h-68.267v-68.267h-34.133V242.2h-68.267v34.133h68.267V395.8h34.133V276.333
			H349.133z M460.067,71.533v392.533c0,17.92-15.36,34.133-34.133,34.133h-358.4V71.533H460.067z"/>
		<path style="fill:#AE938D;" d="M67.533,71.533V498.2c-18.773,0-34.133-15.36-34.133-34.133V37.4
			C33.4,71.533,67.533,71.533,67.533,71.533"/>
	</g>
</g>
<path style="fill:#51565F;" d="M430.933,503.467h-358.4c-20.48,0-38.4-17.92-38.4-38.4v-435.2C34.133,13.653,47.787,0,64,0h401.067
	c2.56,0,4.267,1.707,4.267,4.267s-1.707,4.267-4.267,4.267H64c-11.947,0-21.333,9.387-21.333,21.333V38.4
	c0,29.013,29.013,29.867,29.867,29.867c2.56,0,4.267,1.707,4.267,4.267v392.533c0,2.56-1.707,4.267-4.267,4.267
	c-2.56,0-4.267-1.707-4.267-4.267V76.8c-7.68-0.853-18.773-4.267-25.6-12.8v401.067c0,16.213,13.653,29.867,29.867,29.867h358.4
	c16.213,0,29.867-13.653,29.867-29.867V76.8H106.667c-2.56,0-4.267-1.707-4.267-4.267c0-2.56,1.707-4.267,4.267-4.267h358.4
	c2.56,0,4.267,1.707,4.267,4.267v392.533C469.333,485.547,451.413,503.467,430.933,503.467z M430.933,469.333
	c-0.853,0-2.56,0-3.413-0.853l-13.653-13.653l-13.653,13.653c-1.707,1.707-4.267,1.707-5.973,0
	c-0.853-0.853-0.853-1.707-0.853-3.413s0-2.56,0.853-3.413L407.893,448l-13.653-13.653c-0.853-0.853-0.853-1.707-0.853-3.413
	s0-2.56,0.853-3.413c1.707-1.707,4.267-1.707,5.973,0l13.653,13.653l13.653-13.653c1.707-1.707,4.267-1.707,5.973,0
	c0.853,0.853,0.853,1.707,0.853,3.413s0,2.56-0.853,3.413L419.84,448l13.653,13.653c0.853,0.853,0.853,1.707,0.853,3.413
	s0,2.56-0.853,3.413C432.64,469.333,431.787,469.333,430.933,469.333z M140.8,469.333c-0.853,0-2.56,0-3.413-0.853l-13.653-13.653
	L110.08,468.48c-1.707,1.707-4.267,1.707-5.973,0c-0.853-0.853-0.853-1.707-0.853-3.413s0-2.56,0.853-3.413L117.76,448
	l-13.653-13.653c-0.853-0.853-0.853-1.707-0.853-3.413s0-2.56,0.853-3.413c1.707-1.707,4.267-1.707,5.973,0l13.653,13.653
	l13.653-13.653c1.707-1.707,4.267-1.707,5.973,0c0.853,0.853,0.853,1.707,0.853,3.413s0,2.56-0.853,3.413L129.707,448l13.653,13.653
	c0.853,0.853,0.853,1.707,0.853,3.413s0,2.56-0.853,3.413C142.507,469.333,141.653,469.333,140.8,469.333z M285.867,401.067h-34.133
	c-2.56,0-4.267-1.707-4.267-4.267V281.6h-64c-2.56,0-4.267-1.707-4.267-4.267V243.2c0-2.56,1.707-4.267,4.267-4.267h64v-64
	c0-2.56,1.707-4.267,4.267-4.267h34.133c2.56,0,4.267,1.707,4.267,4.267v64h64c2.56,0,4.267,1.707,4.267,4.267v34.133
	c0,2.56-1.707,4.267-4.267,4.267h-64v115.2C290.133,399.36,288.427,401.067,285.867,401.067z M256,392.533h25.6v-115.2
	c0-2.56,1.707-4.267,4.267-4.267h64v-25.6h-64c-2.56,0-4.267-1.707-4.267-4.267v-64H256v64c0,2.56-1.707,4.267-4.267,4.267h-64v25.6
	h64c2.56,0,4.267,1.707,4.267,4.267V392.533z M430.933,145.067c-0.853,0-2.56,0-3.413-0.853l-13.653-13.653l-13.653,13.653
	c-1.707,1.707-4.267,1.707-5.973,0c-0.853-0.853-0.853-1.707-0.853-3.413s0-2.56,0.853-3.413l13.653-13.653L394.24,110.08
	c-0.853-0.853-0.853-1.707-0.853-3.413s0-2.56,0.853-3.413c1.707-1.707,4.267-1.707,5.973,0l13.653,13.653l13.653-13.653
	c1.707-1.707,4.267-1.707,5.973,0c0.853,0.853,0.853,1.707,0.853,3.413s0,2.56-0.853,3.413l-13.653,13.653l13.653,13.653
	c0.853,0.853,0.853,1.707,0.853,3.413s0,2.56-0.853,3.413C432.64,145.067,431.787,145.067,430.933,145.067z M140.8,145.067
	c-0.853,0-2.56,0-3.413-0.853l-13.653-13.653l-13.653,13.653c-1.707,1.707-4.267,1.707-5.973,0
	c-0.853-0.853-0.853-1.707-0.853-3.413s0-2.56,0.853-3.413l13.653-13.653l-13.653-13.653c-0.853-0.853-0.853-1.707-0.853-3.413
	s0-2.56,0.853-3.413c1.707-1.707,4.267-1.707,5.973,0l13.653,13.653l13.653-13.653c1.707-1.707,4.267-1.707,5.973,0
	c0.853,0.853,0.853,1.707,0.853,3.413s0,2.56-0.853,3.413l-13.653,13.653l13.653,13.653c0.853,0.853,0.853,1.707,0.853,3.413
	s0,2.56-0.853,3.413C142.507,145.067,141.653,145.067,140.8,145.067z M448,42.667H72.533c-2.56,0-4.267-1.707-4.267-4.267
	s1.707-4.267,4.267-4.267H448c2.56,0,4.267,1.707,4.267,4.267S450.56,42.667,448,42.667z"/>
</svg>