<?xml version="1.0" encoding="iso-8859-1"?>
<!-- Uploaded to: SVG Repo, www.svgrepo.com, Generator: SVG Repo Mixer Tools -->
<svg fill="#000000" height="800px" width="800px" version="1.1" id="Layer_1" xmlns="http://www.w3.org/2000/svg" xmlns:xlink="http://www.w3.org/1999/xlink" 
	 viewBox="0 0 512 512" xml:space="preserve">
<g>
	<g>
		<g>
			<path d="M31.027,301.619l-11.733,12.885c-3.174,3.482-2.927,8.883,0.555,12.058c1.647,1.485,3.703,2.219,5.751,2.219
				c2.313,0,4.625-0.939,6.306-2.782l11.733-12.885c3.174-3.482,2.927-8.883-0.555-12.058
				C39.595,297.89,34.202,298.138,31.027,301.619z"/>
			<path d="M59.734,307.2c-4.719,0-8.533,3.823-8.533,8.533V332.8c0,4.71,3.814,8.533,8.533,8.533s8.533-3.823,8.533-8.533v-17.067
				C68.267,311.023,64.453,307.2,59.734,307.2z"/>
			<path d="M88.44,301.619c-3.166-3.49-8.568-3.738-12.049-0.563c-3.49,3.166-3.738,8.567-0.563,12.049l11.733,12.894
				c1.681,1.843,3.985,2.782,6.306,2.782c2.048,0,4.104-0.734,5.743-2.219c3.49-3.174,3.738-8.567,0.563-12.058L88.44,301.619z"/>
			<path d="M221.867,256c0,51.755,42.112,93.867,93.867,93.867c51.755,0,93.867-42.112,93.867-93.867
				c0-51.755-42.112-93.867-93.867-93.867C263.979,162.133,221.867,204.245,221.867,256z M315.734,179.2
				c42.351,0,76.8,34.458,76.8,76.8s-34.449,76.8-76.8,76.8c-42.351,0-76.8-34.458-76.8-76.8S273.383,179.2,315.734,179.2z"/>
			<path d="M494.934,102.4V68.267c0-9.412-7.663-17.067-17.067-17.067h-0.683C473.029,22.298,448.162,0,418.134,0
				c-21.743,0-40.747,11.716-51.2,29.124C356.48,11.716,337.477,0,315.734,0c-21.743,0-40.747,11.716-51.2,29.124
				C254.08,11.716,235.077,0,213.334,0c-30.037,0-54.895,22.298-59.051,51.2H153.6c-9.412,0-17.067,7.654-17.067,17.067H128
				c-42.351,0-76.8,34.458-76.8,76.8V281.6c0,4.71,3.814,8.533,8.533,8.533s8.533-3.823,8.533-8.533V145.067
				c0-32.939,26.803-59.733,59.733-59.733h8.533V102.4c0,9.412,7.654,17.067,17.067,17.067v273.067
				c-9.412,0-17.067,7.654-17.067,17.067v34.133c0,9.412,7.654,17.067,17.067,17.067h0.683c4.156,28.902,29.013,51.2,59.051,51.2
				c21.743,0,40.747-11.716,51.2-29.124c10.453,17.408,29.457,29.124,51.2,29.124c21.743,0,40.747-11.716,51.2-29.124
				c10.453,17.408,29.457,29.124,51.2,29.124c30.029,0,54.895-22.298,59.051-51.2h0.683c9.404,0,17.067-7.654,17.067-17.067V409.6
				c0-9.412-7.663-17.067-17.067-17.067V119.467C487.271,119.467,494.934,111.812,494.934,102.4z M418.134,17.067
				c20.599,0,37.845,14.686,41.796,34.133h-83.593C380.288,31.753,397.534,17.067,418.134,17.067z M315.734,17.067
				c20.599,0,37.845,14.686,41.796,34.133h-83.592C277.888,31.753,295.134,17.067,315.734,17.067z M213.334,17.067
				c20.599,0,37.845,14.686,41.796,34.133h-83.593C175.488,31.753,192.734,17.067,213.334,17.067z M213.334,494.933
				c-20.599,0-37.845-14.686-41.796-34.133h83.593C251.179,480.247,233.933,494.933,213.334,494.933z M315.734,494.933
				c-20.599,0-37.845-14.686-41.796-34.133h83.592C353.579,480.247,336.333,494.933,315.734,494.933z M418.134,494.933
				c-20.599,0-37.845-14.686-41.796-34.133h83.593C455.979,480.247,438.733,494.933,418.134,494.933z M477.875,443.733H153.6V409.6
				h324.267L477.875,443.733z M264.534,162.133c4.719,0,8.533-3.823,8.533-8.533v-34.133H358.4V153.6
				c0,4.71,3.814,8.533,8.533,8.533c4.719,0,8.533-3.823,8.533-8.533v-34.133H460.8v273.067h-85.333V358.4
				c0-4.71-3.814-8.533-8.533-8.533c-4.719,0-8.533,3.823-8.533,8.533v34.133h-85.333V358.4c0-4.71-3.814-8.533-8.533-8.533
				S256,353.69,256,358.4v34.133h-85.333V119.467H256V153.6C256,158.31,259.815,162.133,264.534,162.133z M153.6,102.4V68.267
				h324.267l0.009,34.133H153.6z"/>
			<path d="M264.79,264.533c4.71,0,8.533-3.823,8.533-8.533s-3.823-8.533-8.533-8.533h-0.094c-4.702,0-8.482,3.823-8.482,8.533
				S260.079,264.533,264.79,264.533z"/>
			<path d="M279.783,283.674h-0.094c-4.702,0-8.482,3.823-8.482,8.533s3.857,8.533,8.576,8.533c4.71,0,8.533-3.823,8.533-8.533
				S284.493,283.674,279.783,283.674z"/>
			<path d="M315.99,298.675h-0.094c-4.702,0-8.482,3.823-8.482,8.533c0,4.719,3.857,8.533,8.576,8.533
				c4.71,0,8.533-3.814,8.533-8.533C324.523,302.498,320.7,298.675,315.99,298.675z"/>
			<path d="M315.734,264.533c4.719,0,8.533-3.823,8.533-8.533v-51.2c0-4.71-3.814-8.533-8.533-8.533
				c-4.719,0-8.533,3.823-8.533,8.533V256C307.2,260.71,311.015,264.533,315.734,264.533z"/>
			<path d="M279.791,228.326c4.71,0,8.533-3.823,8.533-8.533s-3.823-8.533-8.533-8.533h-0.094c-4.702,0-8.482,3.823-8.482,8.533
				S275.072,228.326,279.791,228.326z"/>
		</g>
	</g>
</g>
</svg>