<?xml version="1.0" encoding="iso-8859-1"?>
<!-- Uploaded to: SVG Repo, www.svgrepo.com, Generator: SVG Repo Mixer Tools -->
<svg fill="#000000" height="800px" width="800px" version="1.1" id="Layer_1" xmlns="http://www.w3.org/2000/svg" xmlns:xlink="http://www.w3.org/1999/xlink" 
	 viewBox="0 0 511.997 511.997" xml:space="preserve">
<g>
	<g>
		<g>
			<path d="M133.16,251.082c-3.2-3.2-8.866-3.2-12.066,0l-24.132,24.141c-3.328,3.328-3.328,8.73,0,12.066l30.165,30.165
				L24.556,420.034c-4.83,4.83-7.501,11.264-7.501,18.099c0,6.844,2.671,13.269,7.501,18.099l48.265,48.273
				c4.992,4.992,11.554,7.492,18.108,7.492c6.554,0,13.107-2.5,18.099-7.492l102.579-102.571l30.174,30.165
				c3.337,3.328,8.73,3.328,12.066,0l24.132-24.132c3.336-3.337,3.336-8.738,0-12.066L133.16,251.082z M96.961,492.439
				c-3.243,3.234-8.849,3.226-12.075,0l-48.265-48.273c-1.621-1.613-2.5-3.755-2.5-6.033c0-2.278,0.888-4.42,2.5-6.033
				l28.476-28.476l45.261,75.426L96.961,492.439z M122.792,466.609l-45.261-75.426l24.371-24.371l50.287,70.4L122.792,466.609z
				 M247.814,414.001l-30.174-30.174c-3.337-3.328-8.738-3.328-12.066,0l-41.148,41.156l-50.287-70.4l25.062-25.062l42.24,42.24
				c3.328,3.336,8.73,3.336,12.066,0c3.328-3.337,3.328-8.73,0-12.066l-78.447-78.438l12.066-12.075L259.88,401.935L247.814,414.001
				z"/>
			<path d="M494.768,65.013c-0.384-20.719-4.787-41.455-14.993-60.501c-1.28-2.381-3.61-4.019-6.281-4.412
				c-2.654-0.418-5.384,0.495-7.279,2.406l-91.691,91.691c-3.132,3.123-11.656,9.566-18.108,9.566c-12.894,0-39.74,0-54.306,14.575
				l-72.397,72.405h-0.008c0,0.009,0,0.009,0,0.009l-24.124,24.124h-0.009c0,0.009,0,0.009,0,0.009l-36.198,36.198
				c-3.337,3.337-3.337,8.73,0,12.066c3.328,3.337,8.73,3.337,12.066,0l6.033-6.033l6.033,6.033c1.664,1.664,3.849,2.5,6.033,2.5
				c2.185,0,4.369-0.836,6.033-2.5c3.328-3.337,3.328-8.73,0-12.066l-6.033-6.033l12.066-12.066l6.033,6.033
				c1.664,1.664,3.849,2.5,6.033,2.5s4.369-0.836,6.033-2.5c3.337-3.328,3.337-8.738,0-12.066l-6.033-6.033l12.066-12.075
				l6.042,6.042c1.664,1.655,3.849,2.492,6.033,2.492c2.185,0,4.369-0.836,6.033-2.5c3.336-3.328,3.336-8.738,0-12.066l-6.033-6.033
				l12.066-12.066l6.033,6.033c1.664,1.664,3.849,2.5,6.033,2.5s4.369-0.836,6.033-2.5c3.336-3.337,3.336-8.738,0-12.066
				l-6.033-6.033l12.066-12.075l6.033,6.033c1.673,1.673,3.849,2.5,6.033,2.5s4.369-0.828,6.033-2.5
				c3.337-3.328,3.337-8.73,0-12.066l-6.033-6.033l18.099-18.099c9.566-9.574,31.633-9.574,42.24-9.574
				c15.172,0,28.681-13.073,30.174-14.566l83.089-83.089c5.188,12.902,7.672,26.462,8.201,40.073L229.706,311.421
				c-3.337,3.337-3.337,8.738,0,12.066c1.664,1.664,3.849,2.5,6.033,2.5c2.185,0,4.369-0.836,6.033-2.5L476.695,88.565
				c-4.966,36.736-22.69,70.963-41.83,90.112L265.913,347.628c-3.328,3.328-3.328,8.73,0,12.066c1.664,1.664,3.849,2.5,6.033,2.5
				s4.369-0.836,6.033-2.5L446.93,190.743c25.139-25.148,47.991-73.771,47.932-122.965
				C494.999,66.839,494.956,65.935,494.768,65.013z"/>
		</g>
	</g>
</g>
</svg>