<?xml version="1.0" encoding="iso-8859-1"?>
<!-- Uploaded to: SVG Repo, www.svgrepo.com, Generator: SVG Repo Mixer Tools -->
<svg fill="#000000" height="800px" width="800px" version="1.1" id="Layer_1" xmlns="http://www.w3.org/2000/svg" xmlns:xlink="http://www.w3.org/1999/xlink" 
	 viewBox="0 0 512 512" xml:space="preserve">
<g>
	<g>
		<g>
			<path d="M247.467,119.467c4.71,0,8.533-3.823,8.533-8.533V68.267h42.667c0.93,0,3.166,1.212,4.352,3.157l4.318,23.953
				c0.836,4.634,5.222,7.723,9.907,6.886c4.642-0.836,7.723-5.274,6.886-9.907l-4.531-25.173c-0.119-0.666-0.316-1.297-0.58-1.911
				c-3.567-8.158-12.126-14.071-20.352-14.071H256c-9.412,0-17.067,7.842-17.067,17.493v42.24
				C238.933,115.644,242.756,119.467,247.467,119.467z"/>
			<path d="M214.861,290.27c-70.246-12.766-138.018-30.097-165.88-68.403H76.8c4.71,0,8.533-3.823,8.533-8.533
				S81.51,204.8,76.8,204.8H8.533c-4.71,0-8.533,3.823-8.533,8.533s3.823,8.533,8.533,8.533h20.352
				c28.459,52.873,109.022,71.757,182.921,85.197c0.521,0.094,1.033,0.137,1.536,0.137c4.045,0,7.637-2.884,8.388-7.006
				C222.566,295.561,219.494,291.115,214.861,290.27z"/>
			<path d="M503.467,230.4h-8.533v-51.2c0-4.71-3.823-8.533-8.533-8.533s-8.533,3.823-8.533,8.533v51.2H460.8v-17.067
				c0-22.596-16.794-40.371-38.818-42.291c-10.53-10.027-57.694-51.575-116.489-51.575c-54.537,0-74.948,36.147-81.092,51.2H98.261
				l-40.115-56.158c-0.273-0.384-0.58-0.742-0.913-1.075c-10.197-10.206-16.495-11.034-23.1-11.034
				c-9.25,0-17.067,7.817-17.067,17.067V179.2c0,4.71,3.823,8.533,8.533,8.533c4.71,0,8.533-3.823,8.533-8.533v-59.733
				c3.132,0,4.898,0,10.539,5.547l42.249,59.145c1.604,2.244,4.19,3.576,6.946,3.576h133.094
				c7.381,6.144,27.631,17.067,78.532,17.067c57.813,0,104.44-13.995,113.681-16.964c13.841,0.538,24.559,11.503,24.559,25.498v51.2
				c0,14.831-10.769,25.6-25.6,25.6h-62.131l2.364-24.789c0.444-4.693-2.995-8.858-7.688-9.31c-4.745-0.435-8.858,2.995-9.31,7.689
				L324.48,441.105c-1.169,1.544-3.174,2.628-4.216,2.628H256V273.067h59.733c4.71,0,8.533-3.823,8.533-8.533
				S320.444,256,315.733,256h-68.267c-4.71,0-8.533,3.823-8.533,8.533v179.2c0,9.412,7.654,17.067,17.067,17.067h64.265
				c8.158,0,16.691-5.683,20.292-13.508c0.401-0.87,0.649-1.792,0.742-2.748L354.372,307.2h63.761
				c24.329,0,42.667-18.338,42.667-42.667v-17.067h17.067v51.2c0,4.71,3.823,8.533,8.533,8.533s8.533-3.823,8.533-8.533v-51.2h8.533
				c4.71,0,8.533-3.823,8.533-8.533C512,234.223,508.177,230.4,503.467,230.4z M364.518,182.844l1.51-3.029
				c2.116-4.215,0.401-9.335-3.814-11.452c-4.233-2.116-9.344-0.393-11.452,3.823l-6.682,13.372
				c-12.032,1.297-24.977,2.176-38.588,2.176c-40.951,0-58.718-7.526-65.135-11.375c4.727-11.665,20.736-39.825,65.135-39.825
				c41.515,0,77.824,24.559,95.377,38.775C392.021,177.604,379.452,180.446,364.518,182.844z"/>
			<path d="M418.133,273.067c4.71,0,8.533-3.823,8.533-8.533S422.844,256,418.133,256H384c-4.71,0-8.533,3.823-8.533,8.533
				s3.823,8.533,8.533,8.533H418.133z"/>
		</g>
	</g>
</g>
</svg>