<?xml version="1.0" encoding="iso-8859-1"?>
<!-- Uploaded to: SVG Repo, www.svgrepo.com, Generator: SVG Repo Mixer Tools -->
<svg height="800px" width="800px" version="1.1" id="Layer_1" xmlns="http://www.w3.org/2000/svg" xmlns:xlink="http://www.w3.org/1999/xlink" 
	 viewBox="0 0 504.023 504.023" xml:space="preserve">
<g transform="translate(1 35)">
	<path style="fill:#80D6FA;" d="M114.422,379.145c0,0-8.533,17.067-34.133,17.067s-34.133-17.067-34.133-17.067
		s-8.533,17.067-34.133,17.067c-3.413,0-5.973,0-8.533-0.853v-34.133c2.56,0,5.12,0.853,8.533,0.853
		c25.6,0,34.133-17.067,34.133-17.067s2.56,4.267,8.533,9.387c5.12,4.267,13.653,7.68,25.6,7.68c25.6,0,34.133-17.067,34.133-17.067
		s8.533,17.067,34.133,17.067s34.133-17.067,34.133-17.067s8.533,17.067,34.133,17.067s34.133-17.067,34.133-17.067
		s8.533,17.067,34.133,17.067s34.133-17.067,34.133-17.067s8.533,17.067,34.133,17.067c11.947,0,20.48-4.267,25.6-7.68
		c5.973-4.267,8.533-9.387,8.533-9.387s8.533,17.067,34.133,17.067s34.133-17.067,34.133-17.067s8.533,17.067,34.133,17.067
		c3.413,0,5.973,0,8.533-0.853v34.133c-2.56,0-5.12,0.853-8.533,0.853c-25.6,0-34.133-17.067-34.133-17.067
		s-8.533,17.067-34.133,17.067s-34.133-17.067-34.133-17.067s-8.533,17.067-34.133,17.067s-34.133-17.067-34.133-17.067
		s-8.533,17.067-34.133,17.067s-34.133-17.067-34.133-17.067s-8.533,17.067-34.133,17.067s-34.133-17.067-34.133-17.067
		s-8.533,17.067-34.133,17.067S114.422,379.145,114.422,379.145"/>
	<path style="fill:#AAB1BA;" d="M378.955,208.478l26.453,51.2h-94.72v-42.667c0-4.267,3.413-8.533,8.533-8.533H378.955z
		 M259.489,199.945v59.733h-102.4v-59.733c0-4.267,4.267-8.533,8.533-8.533h42.667h42.667
		C256.075,191.412,259.489,195.678,259.489,199.945z M114.422,345.012c0,0-8.533,17.067-34.133,17.067
		c-11.947,0-20.48-4.267-25.6-7.68v-0.853l-51.2-93.867h51.2h51.2h51.2h102.4h51.2h94.72h93.013
		c-42.667,34.133-85.333,34.133-85.333,34.133l-34.133,59.733v0.853c-5.12,4.267-13.653,7.68-25.6,7.68
		c-25.6,0-34.133-17.067-34.133-17.067s-8.533,17.067-34.133,17.067s-34.133-17.067-34.133-17.067s-8.533,17.067-34.133,17.067
		s-34.133-17.067-34.133-17.067s-8.533,17.067-34.133,17.067S114.422,345.012,114.422,345.012z"/>
	<path style="fill:#E4F2DE;" d="M319.222,310.878c5.12,0,8.533,4.267,8.533,8.533s-3.413,8.533-8.533,8.533
		s-8.533-4.267-8.533-8.533S314.102,310.878,319.222,310.878z M250.955,310.878c5.12,0,8.533,4.267,8.533,8.533
		s-3.413,8.533-8.533,8.533c-5.12,0-8.533-4.267-8.533-8.533S245.835,310.878,250.955,310.878z M182.689,310.878
		c5.12,0,8.533,4.267,8.533,8.533s-3.413,8.533-8.533,8.533c-5.12,0-8.533-4.267-8.533-8.533S177.569,310.878,182.689,310.878z
		 M114.422,310.878c4.267,0,8.533,4.267,8.533,8.533s-4.267,8.533-8.533,8.533c-4.267,0-8.533-4.267-8.533-8.533
		S110.155,310.878,114.422,310.878z"/>
</g>
<path style="fill:#51565F;" d="M490.889,435.478c-18.773,0-29.013-8.533-34.133-13.653c-5.12,5.973-15.36,13.653-34.133,13.653
	s-29.013-8.533-34.133-13.653c-5.12,5.973-15.36,13.653-34.133,13.653s-29.013-8.533-34.133-13.653
	c-5.12,5.973-15.36,13.653-34.133,13.653c-18.773,0-29.013-8.533-34.133-13.653c-5.12,5.973-15.36,13.653-34.133,13.653
	s-29.013-8.533-34.133-13.653c-5.12,5.973-15.36,13.653-34.133,13.653c-18.773,0-29.013-8.533-34.133-13.653
	c-5.12,5.973-15.36,13.653-34.133,13.653s-29.013-8.533-34.133-13.653c-5.12,5.973-15.36,13.653-34.133,13.653
	c-3.413,0-5.973,0-9.387-0.853c-2.56,0-4.267-2.56-3.413-5.12c0-2.56,2.56-4.267,5.12-3.413c2.56,0.853,5.12,0.853,7.68,0.853
	c22.187,0,29.867-14.507,30.72-14.507c0.853-1.707,1.707-2.56,3.413-2.56c1.707,0,3.413,0.853,3.413,2.56
	c0,0.853,7.68,14.507,30.72,14.507s29.867-14.507,30.72-14.507c0.853-1.707,2.56-2.56,3.413-2.56c1.707,0,3.413,0.853,3.413,2.56
	c0,0.853,7.68,14.507,30.72,14.507s29.867-14.507,30.72-14.507c0.853-1.707,2.56-2.56,3.413-2.56c1.707,0,3.413,0.853,3.413,2.56
	c0,0.853,7.68,14.507,30.72,14.507s29.867-14.507,30.72-14.507c0.853-1.707,1.707-2.56,3.413-2.56s3.413,0.853,3.413,2.56
	c0,0.853,7.68,14.507,30.72,14.507c23.04,0,29.867-14.507,30.72-14.507c0.853-1.707,2.56-2.56,3.413-2.56l0,0
	c1.707,0,3.413,0.853,3.413,2.56c0,0.853,7.68,14.507,30.72,14.507s29.867-14.507,30.72-14.507c0.853-1.707,2.56-2.56,3.413-2.56
	l0,0c1.707,0,3.413,0.853,3.413,2.56c0,0.853,7.68,14.507,30.72,14.507s29.867-14.507,30.72-14.507
	c0.853-1.707,2.56-1.707,3.413-2.56c1.707,0,3.413,0.853,3.413,2.56c0,0.853,7.68,14.507,30.72,14.507c2.56,0,5.12,0,7.68-0.853
	c2.56,0,4.267,0.853,5.12,3.413c0,2.56-0.853,4.267-3.413,5.12C496.862,435.478,494.302,435.478,490.889,435.478z M55.689,392.812
	c-1.707,0-2.56-0.853-3.413-2.56l-51.2-93.867c-0.853-1.707-0.853-2.56,0-4.267c0.853-1.707,2.56-1.707,3.413-1.707h46.933v-29.867
	c0-2.56,1.707-4.267,4.267-4.267c2.56,0,4.267,1.707,4.267,4.267v29.867h42.667v-29.867c0-2.56,1.707-4.267,4.267-4.267
	s4.267,1.707,4.267,4.267v29.867h388.267c1.707,0,3.413,0.853,4.267,2.56c0.853,1.707,0,3.413-1.707,5.12
	c-37.547,30.72-75.093,34.133-85.333,34.987l-33.28,58.027c-0.853,1.707-3.413,2.56-5.973,1.707
	c-1.707-0.853-2.56-3.413-1.707-5.973l34.133-59.733c0.853-1.707,2.56-2.56,3.413-2.56c0,0,34.987,0,72.533-25.6H11.315
	l47.787,87.893c0.853,1.707,0,4.267-1.707,5.973C57.395,392.812,56.542,392.812,55.689,392.812z M320.222,367.212
	c-6.827,0-12.8-5.973-12.8-12.8s5.973-12.8,12.8-12.8s12.8,5.973,12.8,12.8S327.049,367.212,320.222,367.212z M320.222,350.145
	c-2.56,0-4.267,1.707-4.267,4.267s1.707,4.267,4.267,4.267s4.267-1.707,4.267-4.267S322.782,350.145,320.222,350.145z
	 M251.955,367.212c-6.827,0-12.8-5.973-12.8-12.8s5.973-12.8,12.8-12.8c6.827,0,12.8,5.973,12.8,12.8
	S258.782,367.212,251.955,367.212z M251.955,350.145c-2.56,0-4.267,1.707-4.267,4.267s1.707,4.267,4.267,4.267
	s4.267-1.707,4.267-4.267S254.515,350.145,251.955,350.145z M183.689,367.212c-6.827,0-12.8-5.973-12.8-12.8s5.973-12.8,12.8-12.8
	c6.827,0,12.8,5.973,12.8,12.8S190.515,367.212,183.689,367.212z M183.689,350.145c-2.56,0-4.267,1.707-4.267,4.267
	s1.707,4.267,4.267,4.267c2.56,0,4.267-1.707,4.267-4.267S186.249,350.145,183.689,350.145z M115.422,367.212
	c-6.827,0-12.8-5.973-12.8-12.8s5.973-12.8,12.8-12.8s12.8,5.973,12.8,12.8S122.249,367.212,115.422,367.212z M115.422,350.145
	c-2.56,0-4.267,1.707-4.267,4.267s1.707,4.267,4.267,4.267s4.267-1.707,4.267-4.267S117.982,350.145,115.422,350.145z
	 M388.489,264.812c-1.707,0-3.413-0.853-3.413-2.56l-7.68-14.507h-57.173c-2.56,0-4.267,1.707-4.267,4.267v8.533
	c0,2.56-1.707,4.267-4.267,4.267s-4.267-1.707-4.267-4.267v-8.533c0-6.827,5.973-12.8,12.8-12.8h59.733l0,0h68.267
	c2.56,0,4.267,1.707,4.267,4.267c0,2.56-1.707,4.267-4.267,4.267h-61.44l5.12,11.093c0,0.853,0.853,0.853,0.853,1.707
	c0,1.707-0.853,3.413-2.56,3.413C390.195,264.812,389.342,264.812,388.489,264.812z M260.489,264.812
	c-2.56,0-4.267-1.707-4.267-4.267v-25.6c0-2.56-1.707-4.267-4.267-4.267h-85.333c-2.56,0-4.267,1.707-4.267,4.267v25.6
	c0,2.56-1.707,4.267-4.267,4.267c-2.56,0-4.267-1.707-4.267-4.267v-25.6c0-6.827,5.973-12.8,12.8-12.8h38.4v-42.667h-29.867
	c-2.56,0-4.267-1.707-4.267-4.267c0-2.56,1.707-4.267,4.267-4.267h29.867v-42.667h-46.933c-2.56,0-4.267-1.707-4.267-4.267v-17.067
	c0-2.56,1.707-4.267,4.267-4.267s4.267,1.707,4.267,4.267v12.8h42.667V72.812c0-2.56,1.707-4.267,4.267-4.267
	s4.267,1.707,4.267,4.267v46.933h42.667v-12.8c0-2.56,1.707-4.267,4.267-4.267s4.267,1.707,4.267,4.267v17.067
	c0,2.56-1.707,4.267-4.267,4.267h-46.933v42.667h29.867c2.56,0,4.267,1.707,4.267,4.267c0,2.56-1.707,4.267-4.267,4.267h-29.867
	v42.667h38.4c6.827,0,12.8,5.973,12.8,12.8v25.6C264.755,263.105,263.049,264.812,260.489,264.812z"/>
</svg>