<?xml version="1.0" encoding="iso-8859-1"?>
<!-- Uploaded to: SVG Repo, www.svgrepo.com, Generator: SVG Repo Mixer Tools -->
<svg height="800px" width="800px" version="1.1" id="Layer_1" xmlns="http://www.w3.org/2000/svg" xmlns:xlink="http://www.w3.org/1999/xlink" 
	 viewBox="0 0 503.801 503.801" xml:space="preserve">
<g transform="translate(1 6)">
	<path style="fill:#AAB1BA;" d="M241.347,160.567l-136.533,17.067v-128c0-4.267,4.267-8.533,8.533-8.533h21.333
		c5.973,0,12.8,0,21.333,8.533l25.6,25.6l51.2,51.2l29.013,29.867C249.027,158.007,241.347,160.567,241.347,160.567z
		 M326.68,262.967l-166.4,179.2c-8.533,8.533-15.36,8.533-21.333,8.533h-25.6c-4.267,0-8.533-4.267-8.533-8.533v-179.2H326.68z"/>
	<path style="fill:#E4F2DE;" d="M262.68,156.301c11.947-1.707,27.307-3.413,47.787-3.413c42.667,0,93.867,8.533,110.933,59.733H319
		c0,0-42.667,0-76.8-51.2C241.347,160.567,249.027,158.007,262.68,156.301"/>
	<path style="fill:#AE938D;" d="M497.347,262.967H326.68H104.813H2.413v-34.133h34.133L2.413,109.367h34.133
		c10.24,0,17.067,8.533,17.067,8.533l51.2,59.733l136.533-17.067c34.133,51.2,76.8,51.2,76.8,51.2h102.4L497.347,262.967z"/>
</g>
<path style="fill:#51565F;" d="M139.947,460.967h-25.6c-6.827,0-12.8-5.973-12.8-12.8v-179.2c0-2.56,1.707-4.267,4.267-4.267h179.2
	c2.56,0,4.267,1.707,4.267,4.267c0,2.56-1.707,4.267-4.267,4.267H110.08v174.933c0,2.56,1.707,4.267,4.267,4.267h25.6
	c5.12,0,11.093,0,17.92-7.68l166.4-179.2c0.853-0.853,1.707-1.707,3.413-1.707h156.16l-64.853-43.52
	c-0.853-0.853-1.707-1.707-1.707-2.56c-12.8-38.4-46.933-57.173-106.667-57.173c-29.867,0-52.053,4.267-61.44,6.827
	c31.573,43.52,69.12,44.373,69.973,44.373h68.267c2.56,0,4.267,1.707,4.267,4.267c0,2.56-1.707,4.267-4.267,4.267h-68.267
	c-1.707,0-44.373-0.853-78.507-51.2l-133.973,17.067c-1.707,0-2.56,0-3.413-1.707l-51.2-59.733c0,0-5.973-6.827-13.653-6.827H10.24
	l32.427,114.347c0,1.707,0,2.56-0.853,3.413c-0.853,0.853-1.707,1.707-3.413,1.707H8.533v25.6h64c2.56,0,4.267,1.707,4.267,4.267
	c0,2.56-1.707,4.267-4.267,4.267H4.267c-2.56,0-4.267-1.707-4.267-4.267v-34.133c0-2.56,1.707-4.267,4.267-4.267h28.16L0,114.514
	c0-1.707,0-2.56,0.853-3.413s1.707-1.707,3.413-1.707H38.4c12.8,0,20.48,9.387,20.48,10.24l49.493,58.027l133.973-17.067l0,0
	c0,0,25.6-8.533,69.12-8.533c62.293,0,99.84,19.627,114.347,61.44l75.947,50.347c1.707,0.853,2.56,2.56,1.707,5.12
	s-2.56,3.413-4.267,3.413H330.24l-55.467,59.733h53.76c2.56,0,4.267,1.707,4.267,4.267c0,2.56-1.707,4.267-4.267,4.267h-61.44
	l-39.253,42.667h50.347c2.56,0,4.267,1.707,4.267,4.267s-1.707,4.267-4.267,4.267H220.16l-54.613,58.027
	C154.453,460.967,145.92,460.967,139.947,460.967z M293.547,136.701h-59.733c-0.853,0-2.56-0.853-3.413-0.853l-51.2-51.2l0,0
	l-25.6-25.6c-7.68-7.68-12.8-7.68-17.92-7.68h-21.333c-2.56,0-4.267,1.707-4.267,4.267v76.8c0,2.56-1.707,4.267-4.267,4.267
	s-4.267-1.707-4.267-4.267v-76.8c0-6.827,5.973-12.8,12.8-12.8h21.333c5.973,0,14.507,0,23.893,9.387l24.747,24.747h58.027
	c2.56,0,4.267,1.707,4.267,4.267c0,2.56-1.707,4.267-4.267,4.267h-49.493l42.667,42.667h58.027c2.56,0,4.267,1.707,4.267,4.267
	C297.813,134.994,296.107,136.701,293.547,136.701z"/>
</svg>