<?xml version="1.0" encoding="iso-8859-1"?>
<!-- Uploaded to: SVG Repo, www.svgrepo.com, Generator: SVG Repo Mixer Tools -->
<svg height="800px" width="800px" version="1.1" id="Layer_1" xmlns="http://www.w3.org/2000/svg" xmlns:xlink="http://www.w3.org/1999/xlink" 
	 viewBox="0 0 504.5 504.5" xml:space="preserve">
<path style="fill:#AAB1BA;" d="M226.4,82l-39.3-38.4c-31.6,12.8-60.6,32.4-86.2,58c-11.9,13.7-20.5,23-20.5,23
	c-15.4,20.5-28.2,41.8-37.5,64L81.3,227c-5.1,18.8-8.5,39.3-8.5,59.7c0,117.8,95.6,213.3,213.3,213.3
	c117.8,0,213.3-95.6,213.3-213.3S403.9,73.5,286.1,73.5C265.6,73.5,246,76.1,226.4,82"/>
<path style="fill:#51565F;" d="M285.9,504c-120.3,0-217.6-97.3-217.6-217.6c0-20.5,2.6-40.1,7.7-58.9l-35.8-35.8
	c-0.9-0.9-1.7-3.4-0.9-4.3c10.2-23,23-45.2,38.4-64.9c1.7-1.7,4.3-2.6,6-0.9s2.6,4.3,0.9,6c-14.5,17.9-26.5,38.4-35.8,59.7L79.5,218
	c17.9-54.6,57.2-100.7,110.9-127.1c1.7-0.9,4.3,0,6,1.7c0.9,1.7,0,4.3-1.7,6c-52.9,26.5-91.3,72.5-108.4,127.1c0,0.9,0,2.6-0.9,3.4
	c-5.1,17.9-7.7,37.5-7.7,57.2c0,115.2,93.9,209.1,209.1,209.1s209.1-93.9,209.1-209.1S402,77.4,286.8,77.4
	c-20.5,0-40.1,2.6-58.9,8.5c-1.7,0.9-3.4,0-4.3-0.9l-35.8-35.8c-30.7,13.7-58.9,32.4-82.8,56.3l0,0l0,0l0,0l0,0l0,0
	c-1.7,1.7-4.3,1.7-6,0c0,0,0,0,0-0.9L53.8,59.4c-1.7-1.7-1.7-4.3,0-6s4.3-1.7,6,0l42.7,42.7c24.7-23.9,52.9-42.7,84.5-56.3
	c1.7-0.9,3.4,0,4.3,0.9L228,77.4c18.8-5.1,38.4-7.7,58.9-7.7c120.3,0,217.6,97.3,217.6,217.6S406.2,504,285.9,504z M440.4,240.4
	c-1.7,0-3.4-0.9-4.3-2.6c-9.4-29-26.5-53.8-50.3-73.4c-1.7-1.7-1.7-4.3-0.9-6c0.9-1.7,4.3-1.7,6-0.9c24.7,20.5,43.5,46.9,52.9,77.7
	c0.9,2.6-0.9,4.3-2.6,5.1h-0.8V240.4z M355,143.9c-0.9,0-0.9,0-1.7,0c-6-2.6-11.9-5.1-18.8-7.7c-2.6-0.9-3.4-3.4-2.6-5.1
	c0.9-2.6,3.4-3.4,5.1-2.6c6.8,2.6,12.8,5.1,19.6,7.7c2.6,0.9,3.4,3.4,1.7,6C358.4,143.1,356.7,143.9,355,143.9z M19.7,96.1
	c-0.9,0-2.6,0-3.4-0.9c-1.7-1.7-1.7-4.3,0-6l11.9-11.8c1.7-1.7,4.3-1.7,6,0s1.7,4.3,0,6l-12,11.9C21.4,96.1,20.5,96.1,19.7,96.1z
	 M21.4,60.3H4.3C1.7,60.3,0,58.6,0,56s1.7-4.3,4.3-4.3h17.1c2.6,0,4.3,1.7,4.3,4.3C25.6,58.6,23.9,60.3,21.4,60.3z M31.6,36.4
	c-0.9,0-2.6,0-3.4-0.9L16.3,23.6c-1.7-1.7-1.7-4.3,0-6s4.3-1.7,6,0l11.9,12c1.7,1.7,1.7,4.3,0,6C33.3,35.6,32.5,36.4,31.6,36.4z
	 M79.4,36.4c-0.9,0-2.6,0-3.4-0.9c-1.7-1.7-1.7-4.3,0-6l11.9-11.9c1.7-1.7,4.3-1.7,6,0s1.7,4.3,0,6L82,35.6
	C82,35.6,81.1,36.4,79.4,36.4z M55.5,26.2c-2.6,0-4.3-1.7-4.3-4.3V4.8c0-2.6,1.7-4.3,4.3-4.3s4.3,1.7,4.3,4.3v17.1
	C59.8,24.5,58.1,26.2,55.5,26.2z"/>
</svg>