<?xml version="1.0" encoding="iso-8859-1"?>
<!-- Uploaded to: SVG Repo, www.svgrepo.com, Generator: SVG Repo Mixer Tools -->
<svg height="800px" width="800px" version="1.1" id="Layer_1" xmlns="http://www.w3.org/2000/svg" xmlns:xlink="http://www.w3.org/1999/xlink" 
	 viewBox="0 0 504.747 504.747" xml:space="preserve">
<g transform="translate(9 1)">
	<path style="fill:#AE938D;" d="M415.783,43.8c6.827,6.827,9.387,24.747,0,37.547l-100.693,128l-26.453,34.133
		c-3.413,4.267-6.827,9.387-8.533,15.36c-4.267,10.24-5.973,20.48-4.267,29.013l-86.187,86.187
		c-14.507-11.947-33.28-10.24-46.08,2.56c-6.827,7.68-17.067,6.827-23.893,0l-23.893-23.893l36.693-35.84l23.893-23.893
		l23.893-23.893l23.893-23.893l23.893-23.893L408.956,40.387L415.783,43.8z M367.143,393.667c7.68,7.68,6.827,17.067,0,23.893
		l-68.267,68.267c-11.947,11.947-34.987,22.187-52.907,4.267c-17.92-17.92-35.84-96.427-54.613-114.347
		c-0.853-0.853-1.707-1.707-2.56-2.56L274.983,287c0,1.707,0.853,2.56,0.853,4.267l15.36,33.28l27.307,58.027
		C319.356,380.867,360.316,385.987,367.143,393.667z"/>
	<path style="fill:#AAB1BA;" d="M205.009,242.627l-23.893,23.893l-23.893,23.893l-23.893,23.893l-36.693,35.84L66.77,320.28
		c-3.413-3.413-3.413-8.533,0-11.947L314.236,60.867V36.973l29.867-29.867l11.947,11.947l11.947-11.947
		c3.413-3.413,8.533-3.413,11.947,0l29.867,29.867L228.903,217.88L205.009,242.627z"/>
</g>
<path style="fill:#51565F;" d="M278.009,504.747c-8.533,0-17.92-3.413-25.6-11.093c-9.387-9.387-18.773-33.28-28.16-58.88
	c-8.533-23.04-17.92-47.787-26.453-55.467c-5.973-5.973-13.653-9.387-21.333-9.387s-15.36,3.413-20.48,9.387
	c-8.533,8.533-21.333,8.533-29.867,0c-1.707-1.707-1.707-4.267,0-5.973c1.707-1.707,4.267-1.707,5.973,0
	c5.973,5.973,12.8,5.973,17.92,0c7.68-7.68,17.067-11.947,26.453-11.947c7.68,0,15.36,2.56,21.333,6.827l58.88-58.88
	c1.707-1.707,4.267-1.707,5.973,0c1.707,1.707,1.707,4.267,0,5.973l-58.027,58.027c9.387,10.24,17.92,33.28,27.307,58.027
	c8.533,23.04,17.92,47.787,26.453,55.467c17.067,17.067,37.547,5.12,46.933-4.267l68.267-68.267c5.973-5.973,5.973-11.947,0-17.92
	c-4.267-4.267-29.867-9.387-46.08-11.093c-1.707,0-2.56-0.853-3.413-2.56l-26.453-57.173l0,0l-15.36-32.427
	c-5.12-15.36,0-36.693,12.8-52.907l26.453-34.133l0,0l100.693-128c7.68-11.093,5.12-26.453,0-31.573l-3.413-3.413l-202.24,202.24
	l0,0l0,0l-72.533,72.533l0,0l0,0l-35.84,35.84l0,0c-0.853,0.853-1.707,0.853-3.413,0.853l0,0l0,0c-0.853,0-2.56-0.853-2.56-0.853
	l0,0L72.356,323.84c-5.12-5.12-5.12-12.8,0-17.92l27.307-27.307l-9.387-9.387c-1.707-1.707-1.707-4.267,0-5.973
	c1.707-1.707,4.267-1.707,5.973,0l9.387,9.387L318.97,59.307V37.12c0-0.853,0.853-2.56,0.853-3.413L349.69,3.84
	c1.707-1.707,4.267-1.707,5.973,0l9.387,9.387l9.387-9.387c5.12-5.12,12.8-5.12,17.92,0l36.693,36.693
	c8.533,8.533,10.24,29.013,0.853,42.667L331.77,207.787l6.827,6.827c11.093,11.093,17.067,24.747,17.067,39.253
	c0,14.507-5.973,28.16-17.067,39.253l-30.72,30.72l24.747,52.907c10.24,0.853,40.96,5.12,48.64,12.8
	c9.387,9.387,9.387,21.333,0,29.867l-68.267,68.267C302.756,498.773,289.956,504.747,278.009,504.747z M108.196,282.88
	l-29.867,29.867c-1.707,1.707-1.707,4.267,0,5.973l27.307,27.307l29.867-29.867l-9.387-9.387c-1.707-1.707-1.707-4.267,0-5.973
	c1.707-1.707,4.267-1.707,5.973,0l9.387,9.387l17.92-17.92l-9.387-9.387c-1.707-1.707-1.707-4.267,0-5.973
	c1.707-1.707,4.267-1.707,5.973,0l9.387,9.387l17.92-17.92l-9.387-9.387c-1.707-1.707-1.707-4.267,0-5.973
	c1.707-1.707,4.267-1.707,5.973,0l9.387,9.387l17.92-17.92l-9.387-9.387c-1.707-1.707-1.707-4.267,0-5.973
	c1.707-1.707,4.267-1.707,5.973,0l9.387,9.387l17.92-17.92l-9.387-9.387c-1.707-1.707-1.707-4.267,0-5.973
	c1.707-1.707,4.267-1.707,5.973,0l9.387,9.387L411.983,39.68l-27.307-27.307c-1.707-1.707-4.267-1.707-5.973,0l-11.947,11.947
	c-1.707,1.707-4.267,1.707-5.973,0l-9.387-9.387l-25.6,25.6v22.187c0,0.853-0.853,2.56-0.853,3.413L108.196,282.88L108.196,282.88
	L108.196,282.88z M291.663,264.96c-3.413,9.387-3.413,17.92-0.853,25.6l12.8,27.307l29.013-29.013
	c9.387-9.387,14.507-21.333,14.507-33.28c0-11.947-5.12-23.893-14.507-33.28l-5.973-5.973l-23.893,29.867
	c-2.56,3.413-5.12,6.827-6.827,11.093c3.413,2.56,11.947,5.973,27.307,5.973c2.56,0,4.267,1.707,4.267,4.267
	s-1.707,4.267-4.267,4.267C306.169,271.787,296.783,268.373,291.663,264.96z"/>
</svg>