<?xml version="1.0" encoding="iso-8859-1"?>
<!-- Uploaded to: SVG Repo, www.svgrepo.com, Generator: SVG Repo Mixer Tools -->
<svg height="800px" width="800px" version="1.1" id="Layer_1" xmlns="http://www.w3.org/2000/svg" xmlns:xlink="http://www.w3.org/1999/xlink" 
	 viewBox="0 0 503.467 503.467" xml:space="preserve">
<g transform="translate(9 1)">
	<path style="fill:#AAB1BA;" d="M336.6,3.267l-16.213,153.6c-23.893-11.093-49.493-17.067-77.653-17.067
		c-28.16,0-53.76,5.973-77.653,17.92L148.867,3.267H336.6z"/>
	<path style="fill:#E4F2DE;" d="M148.867,3.267L165.08,157.72c-16.213,7.68-30.72,17.92-43.52,29.867L97.667,3.267H148.867z
		 M387.8,3.267l-22.187,186.027c-13.653-12.8-29.013-23.893-46.08-31.573l16.213-153.6H387.8V3.267z"/>
	<path style="fill:#AE938D;" d="M165.08,157.72c23.893-11.093,49.493-17.92,77.653-17.92c28.16,0,53.76,5.973,77.653,17.067
		c17.067,8.533,32.427,18.773,46.08,31.573c34.133,32.427,56.32,78.507,56.32,129.707c0,98.987-80.213,179.2-179.2,179.2
		s-179.2-80.213-179.2-179.2c0-52.053,22.187-98.987,58.027-132.267C134.36,174.787,148.867,165.4,165.08,157.72L165.08,157.72z"/>
	<polygon style="fill:#FF7474;" points="332.333,293.4 282.84,333.507 302.467,395.8 243.587,365.08 183,395.8 205.187,331.8 
		153.133,293.4 217.133,293.4 242.733,233.667 268.333,293.4 	"/>
</g>
<path style="fill:#51565F;" d="M251.733,503.467c-101.547,0-183.467-81.92-183.467-183.467s81.92-183.467,183.467-183.467
	S435.2,218.453,435.2,320S353.28,503.467,251.733,503.467z M251.733,145.067C155.307,145.067,76.8,223.573,76.8,320
	s78.507,174.933,174.933,174.933S426.667,416.427,426.667,320S348.16,145.067,251.733,145.067z M251.733,469.333
	c-23.04,0-44.373-5.12-64.853-14.507c-1.707-0.853-3.413-3.413-1.707-5.973c0.853-1.707,3.413-3.413,5.973-1.707
	c18.773,9.387,40.107,13.653,61.44,13.653c17.067,0,34.133-3.413,49.493-9.387c2.56-0.853,4.267,0,5.12,2.56
	c0.853,2.56,0,4.267-2.56,5.12C287.573,465.92,269.653,469.333,251.733,469.333z M333.653,444.587c-1.707,0-2.56-0.853-3.413-1.707
	c-1.707-1.707-0.853-4.267,0.853-5.973c7.68-5.12,14.507-11.093,20.48-17.067c1.707-1.707,4.267-1.707,5.973,0
	c1.707,1.707,1.707,4.267,0,5.973c-6.827,6.827-14.507,12.8-22.187,18.773C334.507,443.733,333.653,444.587,333.653,444.587z
	 M157.867,434.347c-0.853,0-1.707,0-2.56-0.853c-10.24-8.533-18.773-17.92-26.453-29.013c-1.707-1.707-0.853-4.267,0.853-5.973
	s4.267-0.853,5.973,0.853c6.827,10.24,15.36,19.627,24.747,27.307c1.707,1.707,1.707,4.267,0.853,5.973
	C159.573,434.347,158.72,434.347,157.867,434.347z M374.613,401.067c-0.853,0-1.707,0-2.56-0.853
	c-1.707-0.853-2.56-4.267-1.707-5.973c14.507-22.187,21.333-48.64,21.333-75.093c0-2.56,1.707-4.267,4.267-4.267
	s4.267,1.707,4.267,4.267c0,28.16-7.68,55.467-23.04,79.36C377.173,401.067,376.32,401.067,374.613,401.067z M311.467,401.067
	c-0.853,0-1.707,0-1.707-0.853L253.44,371.2l-58.88,29.013c-1.707,0.853-3.413,0.853-5.12-0.853
	c-1.707-1.707-1.707-2.56-0.853-4.267l21.333-61.44l-49.493-35.84c-1.707-0.853-1.707-3.413-1.707-5.12
	c0-1.707,2.56-2.56,4.267-2.56h61.44l24.747-57.173c1.707-3.413,6.827-3.413,7.68,0l24.747,57.173h61.44
	c1.707,0,3.413,0.853,4.267,2.56c0.853,1.707,0,3.413-1.707,5.12l-46.933,38.4l17.92,59.733c0.853,1.707,0,3.413-1.707,4.267
	C313.173,401.067,312.32,401.067,311.467,401.067z M252.587,361.813c0.853,0,1.707,0,1.707,0.853l49.493,25.6l-16.213-52.053
	c-0.853-1.707,0-3.413,1.707-4.267l40.107-32.427h-52.053c-1.707,0-3.413-0.853-4.267-2.56l-21.333-50.347L230.4,296.96
	c-0.853,1.707-2.56,2.56-4.267,2.56h-51.2l41.813,30.72c1.707,0.853,2.56,3.413,1.707,5.12l-18.773,54.613l51.2-25.6
	C251.733,362.667,252.587,361.813,252.587,361.813z M116.053,375.467c-1.707,0-3.413-0.853-4.267-2.56
	C105.813,355.84,102.4,338.773,102.4,320c0-11.947,1.707-23.04,4.267-34.987c0.853-2.56,2.56-3.413,5.12-3.413
	c2.56,0.853,3.413,2.56,3.413,5.12c-2.56,10.24-3.413,21.333-3.413,32.427c0,17.067,3.413,33.28,8.533,49.493
	c0.853,2.56,0,4.267-2.56,5.12C116.907,375.467,116.053,375.467,116.053,375.467z M392.533,290.133
	c-1.707,0-3.413-1.707-4.267-3.413c-2.56-11.093-6.827-23.04-12.8-33.28c-0.853-1.707,0-4.267,1.707-5.973
	c1.707-0.853,4.267,0,5.973,1.707c5.973,11.093,10.24,23.04,13.653,34.987c0.853,2.56-0.853,4.267-3.413,5.12
	C393.387,290.133,393.387,290.133,392.533,290.133z M122.88,256.853c-0.853,0-1.707,0-1.707-0.853
	c-1.707-0.853-2.56-3.413-1.707-5.973c15.36-29.013,40.107-52.907,70.827-66.56c2.56-0.853,4.267,0,5.973,1.707
	c0.853,2.56,0,4.267-1.707,5.973c-28.16,12.8-52.053,34.987-66.56,63.147C126.293,256,124.587,256.853,122.88,256.853z
	 M362.667,230.4c-0.853,0-2.56-0.853-3.413-1.707c-19.627-23.04-45.227-38.4-74.24-46.08c-2.56-0.853-3.413-2.56-3.413-5.12
	c0.853-2.56,2.56-3.413,5.12-3.413c30.72,7.68,58.027,23.893,78.507,48.64c1.707,1.707,1.707,4.267-0.853,5.973
	C364.373,230.4,363.52,230.4,362.667,230.4z M226.133,181.76c-2.56,0-4.267-1.707-4.267-4.267s1.707-4.267,4.267-4.267l25.6-2.56
	c2.56,0,4.267,1.707,4.267,4.267c0,2.56-1.707,4.267-4.267,4.267L226.133,181.76L226.133,181.76z M379.733,153.6L379.733,153.6
	c-2.56,0-4.267-2.56-4.267-5.12L391.68,8.533h-42.667l-12.8,116.053c0,2.56-2.56,4.267-5.12,3.413c-2.56,0-3.413-1.707-3.413-4.267
	c0,0,0,0,0-0.853l12.8-114.347H162.133l12.8,114.347c0,0,0,0,0,0.853c0,2.56-1.707,4.267-3.413,4.267
	c-2.56,0-4.267-1.707-5.12-3.413L153.6,8.533h-42.667l16.213,139.947c0,2.56-1.707,4.267-3.413,5.12c-2.56,0-4.267-1.707-5.12-3.413
	L101.547,5.12c0-0.853,0-2.56,0.853-3.413C103.253,0.853,104.107,0,105.813,0h51.2l0,0h187.733l0,0h51.2
	c0.853,0,2.56,0.853,3.413,1.707c0.853,0.853,0.853,1.707,0.853,3.413l-17.067,145.067C384,151.893,382.293,153.6,379.733,153.6z"/>
</svg>