<?xml version="1.0" encoding="iso-8859-1"?>
<!-- Uploaded to: SVG Repo, www.svgrepo.com, Generator: SVG Repo Mixer Tools -->
<svg height="800px" width="800px" version="1.1" id="Layer_1" xmlns="http://www.w3.org/2000/svg" xmlns:xlink="http://www.w3.org/1999/xlink" 
	 viewBox="0 0 503.04 503.04" xml:space="preserve">
<g transform="translate(3 9)">
	<path style="fill:#E4F2DE;" d="M308.467,261.933c12.8,7.68,27.307,12.8,40.96,17.067l13.653-49.493
		c-10.24-2.56-19.627-6.827-29.013-11.947L308.467,261.933l25.6-44.373c-8.533-5.12-17.067-11.093-24.747-18.773l-1.707-1.707
		l-31.573,41.813l0,0c11.093,9.387,23.893,17.92,23.893,17.92C302.493,258.52,305.907,260.227,308.467,261.933L308.467,261.933z
		 M393.8,233.774v51.2c-15.36,0-29.867-1.707-44.373-5.973l13.653-49.493C373.32,232.067,383.56,233.774,393.8,233.774z"/>
	<polygon style="fill:#AAB1BA;" points="351.133,139.907 307.613,197.08 275.187,238.894 266.654,250.84 223.133,208.174 
		321.267,110.04 	"/>
	<path style="fill:#AE938D;" d="M427.933,63.107l-76.8,76.8l-29.867-29.867L368.2,63.107H427.933z M308.467,412.974L291.4,430.04
		c-17.067,17.067-34.133,17.067-51.2,0l-68.267-68.267l-51.2,119.467c0,0-8.533,8.533-17.067,8.533S86.6,481.24,86.6,481.24
		l-59.733-59.733c0,0-8.533-8.533-8.533-17.067c0-8.533,8.533-17.067,8.533-17.067l51.2-51.2c17.067-17.067,0-34.133,17.067-51.2
		l102.4-102.4l25.6,25.6l43.52,42.667L240.2,285.827l-25.6,33.28l30.72,30.72L308.467,412.974z"/>
	<path style="fill:#AAB1BA;" d="M321.267,110.04l-98.133,98.133l-25.6-25.6l85.333-85.333c8.533-8.533,17.067-8.533,25.6,0
		L321.267,110.04z"/>
</g>
<path style="fill:#51565F;" d="M106.667,503.04c-10.24,0-18.773-8.533-20.48-9.387L26.454,433.92
	c-0.853-0.853-9.387-10.24-9.387-20.48c0-10.24,8.533-18.773,9.387-20.48l51.2-51.2c7.68-7.68,7.68-14.507,7.68-22.187
	c0-8.533,0-18.773,9.387-29.013l187.733-187.733c10.24-10.24,21.333-10.24,31.573,0l9.387,9.387l43.52-43.52
	c0.853-0.853,1.707-0.853,3.413-0.853h58.027l46.933-46.933L461.654,7.254c-1.707-1.707-1.707-4.267,0-5.973
	c1.707-1.707,4.267-1.707,5.973,0l17.067,17.067c1.707,1.707,1.707,4.267,0,5.973l-51.2,51.2l0,0l-76.8,76.8
	c-1.707,1.707-4.267,1.707-5.973,0l-26.453-26.453l-92.16,92.16l37.547,37.547l64-82.773c1.707-1.707,4.267-2.56,5.973-0.853
	c1.707,1.707,2.56,4.267,0.853,5.973l-23.04,29.867c6.827,5.973,13.653,11.947,21.333,16.213c0,0,0,0,0.853,0c0,0,0,0,0.853,0
	c8.533,5.12,17.067,8.533,26.453,11.093c0,0,0,0,0.853,0c0,0,0,0,0.853,0c9.387,2.56,19.627,3.413,29.013,3.413
	c2.56,0,4.267,1.707,4.267,4.267v51.2c0,2.56-1.707,4.267-4.267,4.267c-34.133,0-67.413-10.24-95.573-29.013
	c-1.707-1.707-2.56-4.267-0.853-5.973c1.707-1.707,4.267-2.56,5.973-0.853c1.707,0.853,3.413,1.707,4.267,2.56l21.333-36.693
	c-6.827-4.267-12.8-9.387-18.773-14.507l-61.44,79.36c13.653,5.973,23.04,19.627,23.04,34.987c0,13.653-6.827,25.6-17.067,32.427
	l58.88,58.88c1.707,1.707,1.707,4.267,0,5.973l-17.067,17.067c-18.773,18.773-38.4,18.773-57.173,0l-64-64l-48.64,113.493
	c0,0.853-0.853,0.853-0.853,1.707C125.44,494.507,116.907,503.04,106.667,503.04z M200.533,197.547l-98.987,98.987
	c-7.68,7.68-7.68,14.507-7.68,22.187c0,8.533,0,18.773-9.387,29.013l-51.2,51.2c-1.707,1.707-7.68,8.533-7.68,13.653
	s5.12,11.947,7.68,13.653l59.733,59.733c1.707,1.707,8.533,7.68,13.653,7.68c5.12,0,11.093-4.267,13.653-6.827l51.2-118.613
	c0.853-1.707,1.707-2.56,3.413-2.56s2.56,0,3.413,0.853l68.267,68.267c15.36,15.36,29.867,15.36,45.227,0l13.653-13.653
	l-59.733-59.733l0,0l-30.72-30.72c-1.707-1.707-1.707-4.267,0-5.973l24.747-32.427c0-0.853,0.853-0.853,0.853-1.707l23.893-30.72
	L200.533,197.547z M223.573,328.107l26.453,26.453c9.387-5.12,15.36-14.507,15.36-25.6c0-12.8-7.68-23.893-19.627-28.16
	L223.573,328.107z M357.547,285.44c11.093,2.56,23.04,4.267,34.987,4.267V247.04c-7.68,0-16.213-1.707-23.893-3.413L357.547,285.44z
	 M317.44,269.227c10.24,5.973,21.333,10.24,32.427,13.653l11.093-40.96c-7.68-2.56-15.36-5.12-22.187-9.387L317.44,269.227z
	 M206.507,191.574l19.627,19.627l92.16-92.16l-9.387-9.387c-6.827-6.827-12.8-6.827-19.627,0L206.507,191.574z M330.24,119.04
	l23.893,23.893l66.56-66.56h-47.787L330.24,119.04z"/>
</svg>