<?xml version="1.0" encoding="iso-8859-1"?>
<!-- Uploaded to: SVG Repo, www.svgrepo.com, Generator: SVG Repo Mixer Tools -->
<svg height="800px" width="800px" version="1.1" id="Layer_1" xmlns="http://www.w3.org/2000/svg" xmlns:xlink="http://www.w3.org/1999/xlink" 
	 viewBox="0 0 504.111 504.111" xml:space="preserve">
<g transform="translate(1 5)">
	<path style="fill:#AAB1BA;" d="M216.924,233.402c3.413,0.853,6.827,1.707,9.387,2.56c11.093,4.267,22.187,10.24,30.72,17.92
		c9.387,7.68,17.067,17.067,23.04,27.307c5.973,10.24,10.24,21.333,11.947,33.28c0.853,5.973,1.707,11.947,1.707,17.92
		s-0.853,11.947-1.707,17.92c-1.707,11.947-5.973,23.04-11.947,33.28c-5.973,10.24-13.653,19.627-23.04,27.307
		c-9.387,7.68-19.627,13.653-30.72,17.92c-11.093,4.267-23.04,5.973-34.987,5.973c-11.947,0-23.893-2.56-34.987-5.973
		c-11.093-4.267-22.187-10.24-30.72-17.92c-9.387-7.68-17.067-17.067-23.04-27.307c-5.973-10.24-10.24-21.333-11.947-33.28
		c-0.853-5.973-1.707-11.947-1.707-17.92s0.853-11.947,1.707-17.92c1.707-11.947,5.973-23.04,11.947-33.28l0,0l0,0
		c5.973-10.24,13.653-19.627,23.04-27.307c9.387-7.68,19.627-13.653,30.72-17.92c11.093-4.267,23.04-5.973,34.987-5.973
		C199.857,229.989,208.391,230.842,216.924,233.402"/>
	<path style="fill:#E4F2DE;" d="M191.324,281.189c28.16,0,51.2,23.04,51.2,51.2s-23.04,51.2-51.2,51.2
		c-28.16,0-51.2-23.04-51.2-51.2S163.164,281.189,191.324,281.189"/>
	<path style="fill:#AE938D;" d="M464.391,16.655l-54.613,19.627l0,0l34.987,96.427l53.76-19.627L464.391,16.655z M102.577,281.189
		c-16.213,7.68-37.547,4.267-39.253,4.267l0,0c-23.893-4.267-42.667-20.48-52.907-49.493c-17.92-47.787-2.56-81.067,53.76-101.547
		c56.32-20.48,217.6-52.053,345.6-98.133l34.987,96.427c-61.44,22.187-169.813,72.533-227.84,100.693
		c-8.533-2.56-17.067-3.413-25.6-3.413c-11.947,0-23.893,2.56-34.987,5.973c-11.093,4.267-22.187,10.24-30.72,17.92
		C116.231,261.562,108.551,270.949,102.577,281.189L102.577,281.189z"/>
</g>
<path style="fill:#51565F;" d="M499.524,486.722H362.991c-2.56,0-4.267-1.707-4.267-4.267c0-2.56,1.707-4.267,4.267-4.267h136.533
	c2.56,0,4.267,1.707,4.267,4.267C503.791,485.015,502.084,486.722,499.524,486.722z M328.857,486.722h-17.067
	c-2.56,0-4.267-1.707-4.267-4.267c0-2.56,1.707-4.267,4.267-4.267h17.067c2.56,0,4.267,1.707,4.267,4.267
	C333.124,485.015,331.417,486.722,328.857,486.722z M260.591,486.722h-85.333c-2.56,0-4.267-1.707-4.267-4.267
	c0-2.56,1.707-4.267,4.267-4.267h85.333c2.56,0,4.267,1.707,4.267,4.267C264.857,485.015,263.151,486.722,260.591,486.722z
	 M124.057,486.722H4.591c-2.56,0-4.267-1.707-4.267-4.267c0-2.56,1.707-4.267,4.267-4.267h119.467c2.56,0,4.267,1.707,4.267,4.267
	C128.324,485.015,126.617,486.722,124.057,486.722z M192.324,452.589L192.324,452.589c-2.56,0-4.267-1.707-4.267-4.267l0,0v-4.267
	c-9.387,0-19.627-1.707-28.16-5.12l-1.707,4.267c-0.853,2.56-3.413,3.413-5.12,2.56c-1.707-0.853-2.56-2.56-2.56-4.267
	c0-0.853,0-0.853,0-1.707l1.707-4.267c-8.533-3.413-17.067-8.533-24.747-14.507l-2.56,3.413c-1.707,1.707-4.267,1.707-5.973,0.853
	c-0.853-0.853-1.707-1.707-1.707-3.413c0-0.853,0-1.707,0.853-2.56l2.56-3.413c-6.827-6.827-13.653-13.653-18.773-22.187
	l-3.413,2.56c-1.707,0.853-4.267,0.853-5.973-1.707c0-0.853-0.853-1.707-0.853-1.707c0-1.707,0.853-2.56,2.56-3.413l3.413-2.56
	c-4.267-8.533-7.68-17.067-9.387-27.307l-4.267,0.853c-2.56,0.853-4.267-0.853-5.12-3.413v-0.853c0-1.707,1.707-3.413,3.413-4.267
	l4.267-0.853c-0.853-4.267-0.853-9.387-0.853-14.507s0-9.387,0.853-14.507l-4.267-0.853c-1.707,0-3.413-2.56-3.413-4.267v-0.853
	c0-2.56,2.56-4.267,5.12-3.413l4.267,0.853c1.707-9.387,5.12-18.773,9.387-26.453l-3.413-2.56c-1.707-0.853-1.707-2.56-1.707-3.413
	c0-0.853,0-1.707,0.853-2.56c0.853-1.707,3.413-2.56,5.973-1.707l3.413,2.56c5.12-7.68,11.093-15.36,18.773-22.187l-2.56-3.413
	c-0.853-0.853-0.853-1.707-0.853-2.56c0-0.853,0.853-2.56,1.707-3.413c1.707-1.707,4.267-0.853,5.973,0.853l2.56,3.413
	c7.68-5.973,16.213-11.093,24.747-14.507l-1.707-4.267c0-0.853,0-0.853,0-1.707c0-1.707,0.853-3.413,2.56-4.267
	c2.56-0.853,4.267,0,5.12,2.56l1.707,4.267c8.533-2.56,18.773-4.267,28.16-5.12v-2.559c0-2.56,1.707-4.267,4.267-4.267
	s4.267,1.707,4.267,4.267v4.267c9.387,0,19.627,1.707,28.16,5.12l1.707-4.267c0.853-2.56,3.413-3.413,5.12-2.56
	c1.707,0.853,2.56,2.56,2.56,4.267c0,0.853,0,0.853,0,1.707l-1.707,4.267c8.533,3.413,17.067,8.533,24.747,14.507l2.56-3.413
	c1.707-1.707,4.267-1.707,5.973-0.853c0.853,0.853,1.707,1.707,1.707,3.413c0,0.853,0,1.707-0.853,2.56l-2.56,3.413
	c6.827,6.827,13.653,13.653,18.773,22.187l3.413-2.56c1.707-0.853,4.267-0.853,5.973,1.707c0,0.853,0.853,1.707,0.853,1.707
	c0,1.707-0.853,2.56-2.56,3.413l-3.413,2.56c4.267,8.533,7.68,17.067,9.387,26.453l4.267-0.853c2.56-0.853,4.267,0.853,5.12,3.413
	v0.853c0,1.707-1.707,3.413-3.413,4.267l-4.267,0.853c0.853,4.267,0.853,9.387,0.853,14.507s0,9.387-0.853,14.507l4.267,0.853
	c1.707,0,3.413,2.56,3.413,4.267v0.853c0,2.56-2.56,4.267-5.12,3.413l-4.267-0.853c-1.707,9.387-5.12,18.773-9.387,27.307
	l3.413,2.56c1.707,0.853,1.707,2.56,1.707,3.413c0,0.853,0,1.707-0.853,2.56c-0.853,1.707-3.413,2.56-5.973,1.707l-3.413-2.56
	c-5.12,7.68-11.093,15.36-18.773,22.187l2.56,3.413c0.853,0.853,0.853,1.707,0.853,2.56c0,0.853-0.853,2.56-1.707,3.413
	c-1.707,1.707-4.267,0.853-5.973-0.853l-2.56-3.413c-7.68,5.973-16.213,11.093-24.747,14.507l1.707,4.267c0,0.853,0,0.853,0,1.707
	c0,1.707-0.853,3.413-2.56,4.267c-2.56,0.853-4.267,0-5.12-2.56l-1.707-4.267c-8.533,2.56-18.773,4.267-28.16,5.12v4.267
	C196.591,450.882,194.884,452.589,192.324,452.589z M159.044,429.549c10.24,3.413,21.333,5.973,32.427,5.973c0,0,0,0,0.853,0
	c0,0,0,0,0.853,0c11.093,0,22.187-1.707,32.427-5.973c0,0,0,0,0.853,0c0,0,0,0,0.853,0c32.427-11.947,56.32-40.107,62.293-75.093
	l0,0l0,0c0.853-5.12,1.707-11.093,1.707-17.067s-0.853-11.093-1.707-17.067l0,0l0,0c-5.973-34.987-30.72-63.147-63.147-75.093l0,0
	l0,0c-20.48-7.68-46.08-7.68-66.56,0l0,0l0,0c-32.427,11.947-56.32,40.107-62.293,74.24c0,0,0,0,0,0.853c0,0,0,0,0,0.853
	c-0.853,5.12-1.707,11.093-1.707,16.213c0,5.973,0.853,11.093,1.707,16.213c0,0,0,0,0,0.853s0,0,0,0.853
	c1.707,11.093,5.973,21.333,11.093,31.573l0,0l0,0c11.093,19.627,29.013,34.987,51.2,42.667
	C158.191,429.549,159.044,429.549,159.044,429.549L159.044,429.549z M38.724,435.522c-2.56,0-4.267-1.707-4.267-4.267v-17.067
	c0-2.56,1.707-4.267,4.267-4.267c2.56,0,4.267,1.707,4.267,4.267v17.067C42.991,433.815,41.284,435.522,38.724,435.522z
	 M72.004,422.722c-0.853,0-2.56-0.853-3.413-1.707l-11.093-12.8c-0.853-0.853-0.853-1.707-0.853-2.56
	c0-0.853,0.853-2.56,1.707-3.413c1.707-1.707,4.267-1.707,5.973,0l11.093,12.8c0.853,0.853,0.853,1.707,0.853,2.56
	c0,0.853-0.853,2.56-1.707,3.413C74.564,422.722,73.711,422.722,72.004,422.722z M5.444,422.722c-0.853,0-1.707,0-2.56-0.853
	c-0.853-0.853-1.707-1.707-1.707-3.413c0-0.853,0-1.707,0.853-2.56l11.093-12.8c1.707-1.707,4.267-1.707,5.973,0
	c0.853,0.853,1.707,1.707,1.707,3.413c0,0.853,0,1.707-0.853,2.56l-11.093,12.8C7.151,422.722,6.297,422.722,5.444,422.722z
	 M192.324,392.855c-30.72,0-55.467-24.747-55.467-55.467s24.747-55.467,55.467-55.467s55.467,24.747,55.467,55.467
	S223.044,392.855,192.324,392.855z M192.324,290.455c-25.6,0-46.933,21.333-46.933,46.933s21.333,46.933,46.933,46.933
	s46.933-21.333,46.933-46.933S217.924,290.455,192.324,290.455z M38.724,384.322c-2.56,0-4.267-1.707-4.267-4.267v-34.133
	c0-25.6,13.653-44.373,21.333-52.907c-22.187-6.827-39.253-23.893-48.64-50.347c-9.387-25.6-9.387-46.933-0.853-64.853
	c9.387-17.92,28.16-31.573,57.173-42.667c22.187-8.533,62.293-17.92,108.373-29.867c70.827-17.92,159.573-40.107,237.227-68.267
	l54.613-19.627c0.853,0,2.56,0,3.413,0c0.853,0,1.707,1.707,2.56,2.56l34.133,96.427c0.853,2.56,0,4.267-2.56,5.12l-53.76,19.627
	l0,0c-64,23.04-133.12,55.467-186.027,80.213c-2.56,0.853-4.267,0-5.973-1.707s0-4.267,1.707-5.973
	c52.053-24.747,120.32-56.32,183.467-79.36l-22.187-60.587c0-0.853,0-0.853,0-1.707c0-1.707,0.853-3.413,2.56-4.267
	c2.56-0.853,4.267,0,5.12,2.56l22.187,60.587l45.227-16.213l-31.573-88.747l-50.347,18.773c-77.653,28.16-166.4,50.347-238.08,69.12
	c-46.08,11.947-85.333,21.333-107.52,29.867c-27.307,9.387-44.373,22.187-52.053,38.4c-7.68,15.36-7.68,34.133,0.853,58.027
	c9.387,25.6,26.453,41.813,49.493,46.08c1.707,0,2.56,1.707,3.413,3.413c0,1.707,0,3.413-1.707,4.267
	c0,0-23.893,20.48-23.893,52.053v34.133C42.991,382.615,41.284,384.322,38.724,384.322z"/>
</svg>