<?xml version="1.0" encoding="iso-8859-1"?>
<!-- Uploaded to: SVG Repo, www.svgrepo.com, Generator: SVG Repo Mixer Tools -->
<svg height="800px" width="800px" version="1.1" id="Layer_1" xmlns="http://www.w3.org/2000/svg" xmlns:xlink="http://www.w3.org/1999/xlink" 
	 viewBox="0 0 504.32 504.32" xml:space="preserve">
<g transform="translate(3 7)">
	<path style="fill:#E4F2DE;" d="M316.147,118.867c53.76,8.533,94.72,49.493,94.72,49.493s-50.347,17.067-112.64,17.067
		s-75.093-17.067-75.093-17.067s3.413-15.36,17.067-29.013c11.093-11.947,29.013-22.187,58.027-22.187
		C304.2,117.16,310.173,118.013,316.147,118.867"/>
	<path style="fill:#AE938D;" d="M26.867,202.493h-8.533v-93.867c0-4.267,4.267-8.533,8.533-8.533s8.533,0,17.067,8.533L86.6,168.36
		h136.533c0,0,12.8,17.067,75.093,17.067s112.64-17.067,112.64-17.067c19.627,0,34.133,15.36,34.133,34.133v25.6v25.6
		c0,19.627-14.507,34.133-34.133,34.133H340.04h-0.853l3.413-34.133H240.2v34.133h-34.133
		C127.56,273.32,49.907,253.693,26.867,202.493"/>
	<path style="fill:#AAB1BA;" d="M304.2,57.427l12.8,60.587c-5.973-0.853-11.947-1.707-17.92-1.707
		c-29.013,0-46.933,11.093-58.027,22.187V57.427c0-5.12,3.413-9.387,8.533-9.387h42.667C296.52,48.893,301.64,52.307,304.2,57.427z
		 M342.6,253.693l-3.413,34.133l-13.653,145.067c-2.56,5.12-7.68,8.533-12.8,8.533h-64c-5.12,0-8.533-4.267-8.533-8.533V287.827
		v-34.133H342.6z"/>
</g>
<path style="fill:#51565F;" d="M315.733,452.693h-64c-6.827,0-12.8-5.973-12.8-12.8v-179.2c0-2.56,1.707-4.267,4.267-4.267h68.267
	c2.56,0,4.267,1.707,4.267,4.267c0,2.56-1.707,4.267-4.267,4.267h-64v174.933c0,2.56,1.707,4.267,4.267,4.267h64
	c2.56,0,6.827-2.56,8.533-5.12l17.067-178.347c0-2.56,2.56-4.267,4.267-4.267c2.56,0,4.267,1.707,4.267,4.267l0,0l-2.56,29.867
	h66.56c17.067,0,29.867-12.8,29.867-29.867v-51.2c0-16.213-12.8-29.867-29.013-29.867c-6.827,1.707-54.613,17.067-113.493,17.067
	c-53.76,0-71.68-11.947-76.8-17.067H21.333c-2.56,0-4.267-1.707-4.267-4.267v-59.733c0-6.827,5.973-12.8,12.8-12.8
	c5.973,0,11.093,0.853,20.48,9.387l41.813,58.88h131.413c4.267-11.947,22.187-51.2,78.507-51.2c58.88,0,105.813,43.52,114.347,51.2
	c20.48,0.853,36.693,17.067,36.693,38.4v21.333h25.6V175.36c0-2.56,1.707-4.267,4.267-4.267s4.267,1.707,4.267,4.267v55.467h12.8
	c2.56,0,4.267,1.707,4.267,4.267c0,2.56-1.707,4.267-4.267,4.267h-12.8v55.467c0,2.56-1.707,4.267-4.267,4.267
	s-4.267-1.707-4.267-4.267V239.36h-25.6v21.333c0,22.187-16.213,38.4-38.4,38.4h-67.413l-13.653,140.8c0,0.853,0,0.853,0,1.707
	C329.387,447.573,322.56,452.693,315.733,452.693z M231.253,174.507c4.267,3.413,22.187,13.653,69.973,13.653
	c14.507,0,28.16-0.853,40.96-2.56l7.68-15.36c0.853-1.707,3.413-2.56,5.973-1.707c1.707,0.853,2.56,2.56,2.56,3.413
	c0,0.853,0,1.707-0.853,1.707l-5.12,10.24c23.893-3.413,43.52-8.533,52.907-11.093c-14.507-12.8-55.467-45.227-104.107-45.227
	C250.027,128.427,234.667,164.267,231.253,174.507z M25.6,171.093h55.467L43.52,118.186c-6.827-6.827-9.387-6.827-13.653-6.827
	c-1.707,0-4.267,1.707-4.267,4.267V171.093z M209.067,299.093C209.067,299.093,208.213,299.093,209.067,299.093
	C133.973,285.44,53.76,266.667,27.307,213.76H4.267c-2.56,0-4.267-1.707-4.267-4.267s1.707-4.267,4.267-4.267h25.6l0,0h42.667
	c2.56,0,4.267,1.707,4.267,4.267s-1.707,4.267-4.267,4.267h-35.84c26.453,46.933,103.253,64,173.227,76.8
	c2.56,0,4.267,2.56,3.413,5.12C212.48,297.386,210.773,299.093,209.067,299.093z M413.867,264.96h-34.133
	c-2.56,0-4.267-1.707-4.267-4.267c0-2.56,1.707-4.267,4.267-4.267h34.133c2.56,0,4.267,1.707,4.267,4.267
	C418.133,263.253,416.427,264.96,413.867,264.96z M243.2,111.36c-2.56,0-4.267-1.707-4.267-4.267V64.427
	c0-7.68,5.973-12.8,12.8-12.8H294.4c6.827,0,13.653,5.12,16.213,11.093v0.853l4.267,25.6c0,2.56-0.853,4.267-3.413,5.12
	c-2.56,0-4.267-0.853-5.12-3.413l-4.267-24.747c-1.707-3.413-5.973-5.973-8.533-5.973H250.88c-2.56,0-4.267,1.707-4.267,4.267
	v42.667C247.467,109.653,245.76,111.36,243.2,111.36z"/>
</svg>