<?xml version="1.0" encoding="iso-8859-1"?>
<!-- Uploaded to: SVG Repo, www.svgrepo.com, Generator: SVG Repo Mixer Tools -->
<svg height="800px" width="800px" version="1.1" id="Layer_1" xmlns="http://www.w3.org/2000/svg" xmlns:xlink="http://www.w3.org/1999/xlink" 
	 viewBox="0 0 503.467 503.467" xml:space="preserve">
<g transform="translate(1 21)">
	<path style="fill:#AE938D;" d="M498.2,316.067v76.8H344.6v-76.8c0-52.053-41.813-93.867-93.867-93.867
		s-93.867,41.813-93.867,93.867v76.8H3.267v-76.8C3.267,179.533,114.2,68.6,250.733,68.6S498.2,179.533,498.2,316.067"/>
	<path style="fill:#E4F2DE;" d="M344.6,316.067v76.8h-34.133v-76.8c0-33.28-26.453-59.733-59.733-59.733S191,282.787,191,316.067
		v76.8h-34.133v-76.8c0-52.053,41.813-93.867,93.867-93.867S344.6,264.013,344.6,316.067"/>
	<path style="fill:#AAB1BA;" d="M80.067,256.333c14.507,0,25.6,11.093,25.6,25.6s-11.093,25.6-25.6,25.6s-25.6-11.093-25.6-25.6
		S65.56,256.333,80.067,256.333z M310.467,316.067v76.8H191v-76.8c0-33.28,26.453-59.733,59.733-59.733
		S310.467,282.787,310.467,316.067z M421.4,256.333c14.507,0,25.6,11.093,25.6,25.6s-11.093,25.6-25.6,25.6s-25.6-11.093-25.6-25.6
		S406.893,256.333,421.4,256.333z"/>
</g>
<path style="fill:#51565F;" d="M499.2,418.133H311.467c-2.56,0-4.267-1.707-4.267-4.267v-76.8c0-30.72-24.747-55.467-55.467-55.467
	s-55.467,24.747-55.467,55.467v76.8c0,2.56-1.707,4.267-4.267,4.267s-4.267-1.707-4.267-4.267v-76.8c0-34.987,29.013-64,64-64
	s64,29.013,64,64V409.6h179.2v-72.533c0-133.973-109.227-243.2-243.2-243.2c-133.973,0-243.2,109.227-243.2,243.2V409.6H153.6
	v-72.533c0-53.76,44.373-98.133,98.133-98.133s98.133,44.373,98.133,98.133v42.667c0,2.56-1.707,4.267-4.267,4.267
	s-4.267-1.707-4.267-4.267v-42.667c0-49.493-40.107-89.6-89.6-89.6s-89.6,40.107-89.6,89.6v76.8c0,2.56-1.707,4.267-4.267,4.267
	H4.267c-2.56,0-4.267-1.707-4.267-4.267v-76.8C0,197.973,112.64,85.333,251.733,85.333s251.733,112.64,251.733,251.733v76.8
	C503.467,416.427,501.76,418.133,499.2,418.133z M422.4,332.8c-16.213,0-29.867-13.653-29.867-29.867s13.653-29.867,29.867-29.867
	s29.867,13.653,29.867,29.867S438.613,332.8,422.4,332.8z M422.4,281.6c-11.947,0-21.333,9.387-21.333,21.333
	s9.387,21.333,21.333,21.333s21.333-9.387,21.333-21.333S434.347,281.6,422.4,281.6z M81.067,332.8
	c-16.213,0-29.867-13.653-29.867-29.867s13.653-29.867,29.867-29.867s29.867,13.653,29.867,29.867S97.28,332.8,81.067,332.8z
	 M81.067,281.6c-11.947,0-21.333,9.387-21.333,21.333s9.387,21.333,21.333,21.333s21.333-9.387,21.333-21.333
	S93.013,281.6,81.067,281.6z"/>
</svg>