<?xml version="1.0" encoding="iso-8859-1"?>
<!-- Uploaded to: SVG Repo, www.svgrepo.com, Generator: SVG Repo Mixer Tools -->
<svg height="800px" width="800px" version="1.1" id="Layer_1" xmlns="http://www.w3.org/2000/svg" xmlns:xlink="http://www.w3.org/1999/xlink" 
	 viewBox="0 0 503.467 503.467" xml:space="preserve">
<g transform="translate(1 12)">
	<path style="fill:#AAB1BA;" d="M242.2,384.629c0-9.387-7.68-17.067-17.067-17.067s-17.067,7.68-17.067,17.067
		s7.68,17.067,17.067,17.067S242.2,394.015,242.2,384.629 M225.133,333.429c28.16,0,51.2,23.04,51.2,51.2
		c0,28.16-23.04,51.2-51.2,51.2s-51.2-23.04-51.2-51.2C173.933,356.469,196.973,333.429,225.133,333.429z M88.6,333.429
		c28.16,0,51.2,23.04,51.2,51.2c0,28.16-23.04,51.2-51.2,51.2s-51.2-23.04-51.2-51.2C37.4,356.469,60.44,333.429,88.6,333.429z
		 M412.867,333.429c28.16,0,51.2,23.04,51.2,51.2c0,28.16-23.04,51.2-51.2,51.2c-28.16,0-51.2-23.04-51.2-51.2
		C361.667,356.469,384.707,333.429,412.867,333.429z"/>
	<path style="fill:#E4F2DE;" d="M225.133,367.562c9.387,0,17.067,7.68,17.067,17.067s-7.68,17.067-17.067,17.067
		s-17.067-7.68-17.067-17.067S215.747,367.562,225.133,367.562z M412.867,367.562c9.387,0,17.067,7.68,17.067,17.067
		s-7.68,17.067-17.067,17.067s-17.067-7.68-17.067-17.067S403.48,367.562,412.867,367.562z M88.6,367.562
		c9.387,0,17.067,7.68,17.067,17.067s-7.68,17.067-17.067,17.067s-17.067-7.68-17.067-17.067S79.213,367.562,88.6,367.562z"/>
	<path style="fill:#AE938D;" d="M498.2,316.362v68.267h-34.133c0-28.16-23.04-51.2-51.2-51.2c-28.16,0-51.2,23.04-51.2,51.2h-34.133
		v-102.4v-34.133h76.8h59.733l25.6,25.6c8.533,8.533,8.533,25.6,8.533,25.6V316.362z"/>
	<g>
		<path style="fill:#E4F2DE;" d="M404.333,248.095h-76.8v-102.4H395.8c18.773,0,34.133,17.067,42.667,34.133l25.6,68.267H404.333z"
			/>
		<path style="fill:#E4F2DE;" d="M179.907,83.402l17.067,29.867l17.067,29.867l8.533,14.507l-39.253,22.187l-34.987,20.48
			c-2.56,1.707-5.973,2.56-8.533,2.56c-5.973,0-11.947-3.413-14.507-8.533l-8.533-14.507l-15.36-27.307l-1.707-2.56l-8.533-14.507
			c-4.267-8.533-1.707-18.773,5.973-23.04l74.24-42.667L179.907,83.402z"/>
	</g>
	<path style="fill:#AE938D;" d="M173.933,384.629H139.8c0-28.16-23.04-51.2-51.2-51.2s-51.2,23.04-51.2,51.2H3.267v-102.4h324.267
		v102.4h-51.2c0-28.16-23.04-51.2-51.2-51.2S173.933,356.469,173.933,384.629L173.933,384.629z"/>
</g>
<path style="fill:#51565F;" d="M499.2,486.229H362.667c-2.56,0-4.267-1.707-4.267-4.267c0-2.56,1.707-4.267,4.267-4.267H499.2
	c2.56,0,4.267,1.707,4.267,4.267C503.467,484.522,501.76,486.229,499.2,486.229z M328.533,486.229h-17.067
	c-2.56,0-4.267-1.707-4.267-4.267c0-2.56,1.707-4.267,4.267-4.267h17.067c2.56,0,4.267,1.707,4.267,4.267
	C332.8,484.522,331.093,486.229,328.533,486.229z M260.267,486.229h-85.333c-2.56,0-4.267-1.707-4.267-4.267
	c0-2.56,1.707-4.267,4.267-4.267h85.333c2.56,0,4.267,1.707,4.267,4.267C264.533,484.522,262.827,486.229,260.267,486.229z
	 M123.733,486.229H4.267c-2.56,0-4.267-1.707-4.267-4.267c0-2.56,1.707-4.267,4.267-4.267h119.467c2.56,0,4.267,1.707,4.267,4.267
	C128,484.522,126.293,486.229,123.733,486.229z M413.867,452.095c-30.72,0-55.467-24.747-55.467-55.467s24.747-55.467,55.467-55.467
	c29.013,0,52.907,22.187,55.467,51.2h25.6v-59.733h-12.8c-2.56,0-4.267-1.707-4.267-4.267c0-2.56,1.707-4.267,4.267-4.267h12.8
	v-12.8c0,0,0-15.36-7.68-22.187l-24.747-24.747H404.48l0,0h-72.533v132.267c0,2.56-1.707,4.267-4.267,4.267h-46.933
	c-2.56,29.013-26.453,51.2-55.467,51.2c-30.72,0-55.467-24.747-55.467-55.467s24.747-55.467,55.467-55.467
	c29.013,0,52.907,22.187,55.467,51.2h42.667V157.695c0-2.56,1.707-4.267,4.267-4.267h68.267c17.92,0,34.987,13.653,46.08,36.693
	l25.6,67.413l24.747,24.747c9.387,9.387,9.387,28.16,9.387,29.013v85.333c0,2.56-1.707,4.267-4.267,4.267h-29.867
	C466.773,429.908,442.88,452.095,413.867,452.095z M413.867,349.695c-25.6,0-46.933,21.333-46.933,46.933
	c0,25.6,21.333,46.933,46.933,46.933c25.6,0,46.933-21.333,46.933-46.933C460.8,371.029,439.467,349.695,413.867,349.695z
	 M226.133,349.695c-25.6,0-46.933,21.333-46.933,46.933c0,25.6,21.333,46.933,46.933,46.933s46.933-21.333,46.933-46.933
	C273.067,371.029,251.733,349.695,226.133,349.695z M412.16,255.829h46.933l-23.04-62.293c-7.68-15.36-21.333-31.573-38.4-31.573
	h-64v93.867h69.973l16.213-31.573c0.853-1.707,3.413-2.56,5.973-1.707c1.707,0.853,2.56,2.56,2.56,3.413
	c0,0.853,0,1.707-0.853,1.707L412.16,255.829z M89.6,452.095c-30.72,0-55.467-24.747-55.467-55.467S58.88,341.162,89.6,341.162
	s55.467,24.747,55.467,55.467S120.32,452.095,89.6,452.095z M89.6,349.695c-25.6,0-46.933,21.333-46.933,46.933
	c0,25.6,21.333,46.933,46.933,46.933s46.933-21.333,46.933-46.933C136.533,371.029,115.2,349.695,89.6,349.695z M413.867,417.962
	c-11.947,0-21.333-9.387-21.333-21.333c0-11.947,9.387-21.333,21.333-21.333c11.947,0,21.333,9.387,21.333,21.333
	C435.2,408.575,425.813,417.962,413.867,417.962z M413.867,383.829c-6.827,0-12.8,5.973-12.8,12.8c0,6.827,5.973,12.8,12.8,12.8
	s12.8-5.973,12.8-12.8C426.667,389.802,420.693,383.829,413.867,383.829z M226.133,417.962c-11.947,0-21.333-9.387-21.333-21.333
	c0-11.947,9.387-21.333,21.333-21.333s21.333,9.387,21.333,21.333C247.467,408.575,238.08,417.962,226.133,417.962z
	 M226.133,383.829c-6.827,0-12.8,5.973-12.8,12.8c0,6.827,5.973,12.8,12.8,12.8s12.8-5.973,12.8-12.8
	C238.933,389.802,232.96,383.829,226.133,383.829z M89.6,417.962c-11.947,0-21.333-9.387-21.333-21.333
	c0-11.947,9.387-21.333,21.333-21.333s21.333,9.387,21.333,21.333C110.933,408.575,101.547,417.962,89.6,417.962z M89.6,383.829
	c-6.827,0-12.8,5.973-12.8,12.8c0,6.827,5.973,12.8,12.8,12.8s12.8-5.973,12.8-12.8C102.4,389.802,96.427,383.829,89.6,383.829z
	 M4.267,400.895c-2.56,0-4.267-1.707-4.267-4.267v-102.4c0-2.56,1.707-4.267,4.267-4.267H69.12l16.213-73.387
	c0.853-2.56,2.56-3.413,5.12-3.413c1.707,0.853,3.413,2.56,3.413,4.267v0.853l-16.213,71.68h58.88v-29.867
	c0-2.56,1.707-4.267,4.267-4.267c2.56,0,4.267,1.707,4.267,4.267v29.867h58.88l-15.36-63.147v-0.853
	c0-1.707,1.707-3.413,3.413-4.267c2.56-0.853,4.267,0.853,5.12,3.413l16.213,64.853h81.92c2.56,0,4.267,1.707,4.267,4.267
	s-1.707,4.267-4.267,4.267H209.92l0,0H73.386l0,0h-64v98.133C8.533,399.188,6.827,400.895,4.267,400.895z M140.8,220.842
	c-1.707,0-3.413,0-5.973-0.853c-5.12-1.707-10.24-5.12-12.8-10.24l-34.133-58.88c-5.973-10.24-2.56-23.04,7.68-29.013l74.24-42.667
	c1.707-0.853,4.267-0.853,5.973,1.707l6.827,11.093l99.84-58.027c1.707-0.853,4.267-0.853,5.973,1.707
	c0,0.853,0.853,1.707,0.853,2.56c0,1.707-0.853,2.56-2.56,3.413l-99.84,58.027l12.8,22.187l99.84-58.027
	c1.707-0.853,4.267-0.853,5.973,1.707c0,0.853,0.853,1.707,0.853,2.56c0,1.707-0.853,2.56-2.56,3.413l-99.84,58.027l12.8,22.187
	l99.84-58.027c1.707-0.853,4.267-0.853,5.973,1.707c0,0.853,0.853,1.707,0.853,2.56c0,1.707-0.853,2.56-2.56,3.413l-99.84,58.027
	l6.827,11.093c0.853,0.853,0.853,2.56,0,3.413c-0.853,0.853-0.853,1.707-1.707,2.56l-74.24,42.667
	C148.48,219.988,144.213,220.842,140.8,220.842z M123.733,195.242l6.827,11.093c1.707,2.56,4.267,5.12,7.68,5.973
	c3.413,0.853,6.827,0.853,9.387-0.853l69.973-40.96l-5.973-11.093l0,0l0,0L171.52,89.429l-69.973,40.96
	c-5.973,3.413-8.533,11.093-4.267,17.067l6.827,11.093l55.467-32.427c1.707-0.853,4.267-0.853,5.973,1.707
	c0,0.853,0.853,1.707,0.853,2.56c0,1.707-0.853,2.56-2.56,3.413l-55.467,32.427l12.8,22.187l55.467-32.427
	c1.707-0.853,4.267-0.853,5.973,1.707c0,0.853,0.853,1.707,0.853,2.56c0,1.707-0.853,2.56-2.56,3.413L123.733,195.242z
	 M332.8,92.842c-1.707,0-2.56-0.853-3.413-2.56c0-0.853-0.853-1.707-0.853-1.707c0-1.707,0.853-2.56,2.56-3.413l14.507-8.533
	c1.707-0.853,4.267-0.853,5.973,1.707c0,0.853,0.853,1.707,0.853,1.707c0,1.707-0.853,2.56-2.56,3.413l-14.507,8.533
	C334.507,92.842,333.653,92.842,332.8,92.842z M315.733,63.829c-1.707,0-2.56-0.853-3.413-2.56c0-0.853-0.853-1.707-0.853-1.707
	c0-1.707,0.853-2.56,2.56-3.413l14.507-8.533c1.707-0.853,4.267-0.853,5.973,1.707c0,0.853,0.853,1.707,0.853,1.707
	c0,1.707-0.853,2.56-2.56,3.413l-14.507,8.533C317.44,62.975,316.587,63.829,315.733,63.829z M298.667,33.962
	c-1.707,0-2.56-0.853-3.413-2.56c0-0.853-0.853-1.707-0.853-1.707c0-1.707,0.853-2.56,2.56-3.413l14.507-8.533
	c1.707-0.853,4.267-0.853,5.973,1.707c0,0.853,0.853,1.707,0.853,1.707c0,1.707-0.853,2.56-2.56,3.413l-14.507,8.533
	C300.373,33.962,299.52,33.962,298.667,33.962z"/>
</svg>