<?xml version="1.0" encoding="iso-8859-1"?>
<!-- Uploaded to: SVG Repo, www.svgrepo.com, Generator: SVG Repo Mixer Tools -->
<svg height="800px" width="800px" version="1.1" id="Layer_1" xmlns="http://www.w3.org/2000/svg" xmlns:xlink="http://www.w3.org/1999/xlink" 
	 viewBox="0 0 503.893 503.893" xml:space="preserve">
<g transform="translate(1 1)">
	<path style="fill:#AAB1BA;" d="M215.533,190.573c17.92,17.92,30.72,41.813,23.893,47.787c-6.827,6.827-29.867-5.973-47.787-23.893
		l-102.4-102.4l-17.92-17.92c-3.413-3.413-3.413-8.533,0-11.947l11.947-11.947c3.413-3.413,8.533-3.413,11.947,0l17.92,17.92
		L215.533,190.573z M184.813,292.973l-0.853,0.853H65.346c-23.893,0-35.84-11.947-41.813-18.773l-12.8-12.8
		c-6.827-6.827-6.827-15.36-0.853-22.187l61.44-61.44L184.813,292.973z M294.893,64.28v118.613l-0.853,0.853L180.546,70.254
		l61.44-61.44c6.827-6.827,15.36-6.827,22.187,0l12.8,12.8C282.947,28.44,294.893,39.533,294.893,64.28z M409.24,298.947
		l23.893,23.893L324.76,431.213l-23.893-23.893l0,0L409.24,298.947z"/>
	<path style="fill:#E4F2DE;" d="M433.133,323.693c35.84,36.693,66.56,174.933,66.56,174.933S360.6,468.76,324.76,432.067
		L433.133,323.693z"/>
	<path style="fill:#AE938D;" d="M293.186,183.747l115.2,115.2L300.013,407.32l0,0l-115.2-115.2L71.32,177.774l-11.947-11.947
		c-6.827-6.827-6.827-17.067,0-23.893l29.867-29.867h0.853l102.4,102.4c17.92,17.92,41.813,30.72,48.64,23.893
		c6.827-6.827-5.973-29.867-23.893-47.787l-102.4-102.4l0.853-0.853l29.867-29.867c6.827-6.827,17.92-6.827,23.893,0L181.4,69.4l0,0
		L293.186,183.747z"/>
</g>
<path style="fill:#51565F;" d="M500.693,503.893h-0.853c-5.973-0.853-140.8-30.72-177.493-67.413l0,0L72.32,186.454L14.293,244.48
	c-2.56,2.56-3.413,5.12-3.413,7.68c0,2.56,1.707,5.973,4.267,8.533l12.8,12.8c6.827,6.827,17.067,17.067,39.253,17.067h75.947
	c2.56,0,4.267,1.707,4.267,4.267c0,2.56-1.707,4.267-4.267,4.267H67.2c-25.6,0-38.4-12.8-45.227-19.627l-12.8-12.8
	c-4.267-4.267-6.827-9.387-6.827-14.507c0-5.12,1.707-10.24,5.973-13.653l58.027-58.027l-9.387-9.387
	c-8.533-8.533-8.533-22.187,0-29.867l5.973-5.973c1.707-1.707,4.267-1.707,5.973,0s1.707,4.267,0,5.973l-5.973,5.973
	c-5.12,5.12-5.12,12.8,0,17.92l11.947,11.947l0,0l250.027,250.027l81.067-81.067c1.707-1.707,4.267-1.707,5.973,0
	c0.853,0.853,0.853,1.707,0.853,3.413s0,2.56-0.853,3.413L330.88,433.92c34.133,29.013,136.533,54.613,162.987,60.587
	c-6.827-28.16-33.28-135.68-64-166.4l-21.333-21.333l-81.067,81.067c-1.707,1.707-4.267,1.707-5.973,0
	c-0.853-0.853-0.853-1.707-0.853-3.413c0-1.707,0-2.56,0.853-3.413l81.067-81.067L164.48,61.867c-5.12-5.12-12.8-5.12-17.92,0
	l-5.973,5.973c-1.707,1.707-4.267,1.707-5.973,0s-1.707-4.267,0-5.973l5.973-5.973c8.533-8.533,22.187-8.533,29.867,0l9.387,9.387
	l58.027-58.027c8.533-8.533,19.627-8.533,28.16,0l12.8,12.8c6.827,6.827,19.627,19.627,19.627,45.227v75.947
	c0,2.56-1.707,4.267-4.267,4.267s-4.267-1.707-4.267-4.267V65.28c0-22.187-10.24-32.427-17.067-39.253L259.2,12.373
	c-5.12-5.12-11.093-5.12-16.213,0L184.96,70.4l250.027,250.027c36.693,36.693,66.56,171.52,67.413,177.493
	c0,1.707,0,2.56-0.853,4.267C503.253,503.04,501.547,503.893,500.693,503.893z M236.16,246.187c-12.8,0-33.28-14.507-46.08-27.307
	L69.76,98.56c-5.12-5.12-5.12-12.8,0-17.92l11.947-11.947c5.12-5.12,12.8-5.12,17.92,0l120.32,120.32
	c16.213,16.213,34.133,43.52,23.893,54.613C242.133,245.333,239.573,246.187,236.16,246.187z M90.24,72.96
	c-0.853,0-2.56,0-3.413,0.853L74.88,85.76c-1.707,1.707-1.707,4.267,0,5.973l120.32,120.32
	c18.773,18.773,39.253,27.307,42.667,23.893c3.413-3.413-5.12-23.04-23.893-41.813L93.653,73.813
	C92.8,73.813,91.093,72.96,90.24,72.96z M31.36,102.827c-0.853,0-2.56,0-3.413-0.853l-25.6-25.6
	c-0.853-0.853-0.853-1.707-0.853-3.413s0-2.56,0.853-3.413c1.707-1.707,4.267-1.707,5.973,0l25.6,25.6
	c0.853,0.853,0.853,1.707,0.853,3.413c0,1.707,0,2.56-0.853,3.413C33.067,102.827,32.213,102.827,31.36,102.827z M48.426,51.627
	c-0.853,0-2.56,0-3.413-0.853L2.346,8.107C1.493,7.253,1.493,6.4,1.493,4.693s0-2.56,0.853-3.413c1.707-1.707,4.267-1.707,5.973,0
	l42.667,42.667c0.853,0.853,0.853,1.707,0.853,3.413c0,1.707,0,2.56-0.853,3.413C50.133,51.627,49.28,51.627,48.426,51.627z
	 M99.626,34.56c-0.853,0-2.56,0-3.413-0.853l-25.6-25.6C69.76,7.253,69.76,6.4,69.76,4.693s0-2.56,0.853-3.413
	c1.707-1.707,4.267-1.707,5.973,0l25.6,25.6c0.853,0.853,0.853,1.707,0.853,3.413s0,2.56-0.853,3.413S100.48,34.56,99.626,34.56z"/>
</svg>