<?xml version="1.0" encoding="iso-8859-1"?>
<!-- Uploaded to: SVG Repo, www.svgrepo.com, Generator: SVG Repo Mixer Tools -->
<svg height="800px" width="800px" version="1.1" id="Layer_1" xmlns="http://www.w3.org/2000/svg" xmlns:xlink="http://www.w3.org/1999/xlink" 
	 viewBox="0 0 503.467 503.467" xml:space="preserve">
<g transform="translate(1 13)">
	<path style="fill:#AE938D;" d="M370.2,247.267H116.76l14.507-85.333c5.12-25.6,23.893-34.133,42.667-34.133H191h102.4h34.133
		c18.773,0,37.547,8.533,42.667,34.133l8.533,51.2l7.68,34.133H370.2z"/>
	<path style="fill:#AAB1BA;" d="M421.4,247.267c42.667,0,76.8,34.133,76.8,76.8s-34.133,76.8-76.8,76.8H80.067
		c-42.667,0-76.8-34.133-76.8-76.8s34.133-76.8,76.8-76.8H421.4L421.4,247.267z"/>
	<g>
		<path style="fill:#E4F2DE;" d="M421.4,281.4c23.893,0,42.667,18.773,42.667,42.667s-18.773,42.667-42.667,42.667
			s-42.667-18.773-42.667-42.667S397.507,281.4,421.4,281.4"/>
		<path style="fill:#E4F2DE;" d="M122.733,324.067c0,23.893-18.773,42.667-42.667,42.667S37.4,347.96,37.4,324.067
			S56.173,281.4,80.067,281.4S122.733,300.173,122.733,324.067"/>
		<path style="fill:#E4F2DE;" d="M208.067,324.067c0,23.893-18.773,42.667-42.667,42.667c-23.893,0-42.667-18.773-42.667-42.667
			S141.507,281.4,165.4,281.4C189.293,281.4,208.067,300.173,208.067,324.067"/>
		<path style="fill:#E4F2DE;" d="M373.613,179l5.973,34.133l0,0H336.92c-5.12,0-8.533-4.267-8.533-8.533v-17.067
			c0-4.267,3.413-8.533,8.533-8.533H373.613z M293.4,187.533V204.6c0,4.267-4.267,8.533-8.533,8.533H267.8
			c-5.12,0-8.533-4.267-8.533-8.533v-17.067c0-4.267,3.413-8.533,8.533-8.533h17.067C289.987,179,293.4,183.267,293.4,187.533z"/>
		<path style="fill:#E4F2DE;" d="M378.733,324.067c0,23.893-18.773,42.667-42.667,42.667S293.4,347.96,293.4,324.067
			s18.773-42.667,42.667-42.667S378.733,300.173,378.733,324.067"/>
	</g>
	<path style="fill:#AE938D;" d="M293.4,51v25.6v51.2H191V51c0-4.267,3.413-8.533,8.533-8.533h85.333
		C289.987,42.467,293.4,46.733,293.4,51"/>
	<path style="fill:#E4F2DE;" d="M293.4,324.067c0,23.893-18.773,42.667-42.667,42.667s-42.667-18.773-42.667-42.667
		S226.84,281.4,250.733,281.4S293.4,300.173,293.4,324.067"/>
</g>
<path style="fill:#51565F;" d="M499.2,452.267H362.667c-2.56,0-4.267-1.707-4.267-4.267c0-2.56,1.707-4.267,4.267-4.267H499.2
	c2.56,0,4.267,1.707,4.267,4.267C503.467,450.56,501.76,452.267,499.2,452.267z M328.533,452.267h-17.067
	c-2.56,0-4.267-1.707-4.267-4.267c0-2.56,1.707-4.267,4.267-4.267h17.067c2.56,0,4.267,1.707,4.267,4.267
	C332.8,450.56,331.093,452.267,328.533,452.267z M260.267,452.267h-85.333c-2.56,0-4.267-1.707-4.267-4.267
	c0-2.56,1.707-4.267,4.267-4.267h85.333c2.56,0,4.267,1.707,4.267,4.267C264.533,450.56,262.827,452.267,260.267,452.267z
	 M123.733,452.267H4.267C1.707,452.267,0,450.56,0,448c0-2.56,1.707-4.267,4.267-4.267h119.467c2.56,0,4.267,1.707,4.267,4.267
	C128,450.56,126.293,452.267,123.733,452.267z M81.067,418.133c-5.973,0-11.947-0.853-17.92-1.707
	c-2.56-0.853-3.413-2.56-3.413-5.12c0.853-2.56,2.56-3.413,5.12-3.413c5.12,0.853,10.24,1.707,16.213,1.707
	c2.56,0,4.267,1.707,4.267,4.267C85.333,416.427,83.627,418.133,81.067,418.133z M422.4,418.133c-2.56,0-4.267-1.707-4.267-4.267
	c0-2.56,1.707-4.267,4.267-4.267c5.12,0,11.093-0.853,16.213-1.707c2.56-0.853,4.267,0.853,5.12,3.413
	c0.853,2.56-0.853,4.267-3.413,5.12C434.347,417.28,428.373,418.133,422.4,418.133z M388.267,418.133H371.2
	c-2.56,0-4.267-1.707-4.267-4.267c0-2.56,1.707-4.267,4.267-4.267h17.067c2.56,0,4.267,1.707,4.267,4.267
	C392.533,416.427,390.827,418.133,388.267,418.133z M337.067,418.133H320c-2.56,0-4.267-1.707-4.267-4.267
	c0-2.56,1.707-4.267,4.267-4.267h17.067c2.56,0,4.267,1.707,4.267,4.267C341.333,416.427,339.627,418.133,337.067,418.133z
	 M285.867,418.133H268.8c-2.56,0-4.267-1.707-4.267-4.267c0-2.56,1.707-4.267,4.267-4.267h17.067c2.56,0,4.267,1.707,4.267,4.267
	C290.133,416.427,288.427,418.133,285.867,418.133z M234.667,418.133H217.6c-2.56,0-4.267-1.707-4.267-4.267
	c0-2.56,1.707-4.267,4.267-4.267h17.067c2.56,0,4.267,1.707,4.267,4.267C238.933,416.427,237.227,418.133,234.667,418.133z
	 M183.467,418.133H166.4c-2.56,0-4.267-1.707-4.267-4.267c0-2.56,1.707-4.267,4.267-4.267h17.067c2.56,0,4.267,1.707,4.267,4.267
	C187.733,416.427,186.027,418.133,183.467,418.133z M132.267,418.133H115.2c-2.56,0-4.267-1.707-4.267-4.267
	c0-2.56,1.707-4.267,4.267-4.267h17.067c2.56,0,4.267,1.707,4.267,4.267C136.533,416.427,134.827,418.133,132.267,418.133z
	 M38.4,405.333c-0.853,0-1.707,0-2.56-0.853c-6.827-4.267-12.8-10.24-17.92-16.213c-1.707-1.707-0.853-4.267,0.853-5.973
	c1.707-1.707,4.267-0.853,5.973,0.853c4.267,5.973,10.24,10.24,16.213,14.507c1.707,1.707,2.56,4.267,0.853,5.973
	C40.96,404.48,39.253,405.333,38.4,405.333z M465.067,405.333c-1.707,0-2.56-0.853-3.413-1.707
	c-1.707-1.707-0.853-4.267,0.853-5.973c5.973-4.267,11.947-9.387,16.213-14.507c1.707-1.707,4.267-1.707,5.973-0.853
	c1.707,1.707,2.56,4.267,0.853,5.973c-5.12,5.973-11.093,11.947-17.92,17.067C466.773,404.48,465.92,405.333,465.067,405.333z
	 M422.4,384c-18.773,0-34.987-11.093-42.667-27.307C372.053,372.907,355.84,384,337.067,384s-34.987-11.093-42.667-27.307
	C286.72,372.907,270.507,384,251.733,384s-34.987-11.093-42.667-27.307C201.387,372.907,185.173,384,166.4,384
	c-18.773,0-34.987-11.093-42.667-27.307C116.053,372.907,99.84,384,81.067,384c-25.6,0-46.933-21.333-46.933-46.933
	s21.333-46.933,46.933-46.933c18.773,0,34.987,11.093,42.667,27.307c7.68-16.213,23.893-27.307,42.667-27.307
	s34.987,11.093,42.667,27.307c7.68-16.213,23.893-27.307,42.667-27.307s34.987,11.093,42.667,27.307
	c7.68-16.213,23.893-27.307,42.667-27.307s34.987,11.093,42.667,27.307c7.68-16.213,23.893-27.307,42.667-27.307
	c25.6,0,46.933,21.333,46.933,46.933S448,384,422.4,384z M422.4,298.667c-21.333,0-38.4,17.067-38.4,38.4s17.067,38.4,38.4,38.4
	s38.4-17.067,38.4-38.4S443.733,298.667,422.4,298.667z M337.067,298.667c-21.333,0-38.4,17.067-38.4,38.4s17.067,38.4,38.4,38.4
	s38.4-17.067,38.4-38.4S358.4,298.667,337.067,298.667z M251.733,298.667c-21.333,0-38.4,17.067-38.4,38.4s17.067,38.4,38.4,38.4
	s38.4-17.067,38.4-38.4S273.067,298.667,251.733,298.667z M166.4,298.667c-21.333,0-38.4,17.067-38.4,38.4s17.067,38.4,38.4,38.4
	s38.4-17.067,38.4-38.4S187.733,298.667,166.4,298.667z M81.067,298.667c-21.333,0-38.4,17.067-38.4,38.4s17.067,38.4,38.4,38.4
	s38.4-17.067,38.4-38.4S102.4,298.667,81.067,298.667z M497.493,358.4h-0.853c-2.56-0.853-3.413-2.56-3.413-5.12
	c0.853-5.12,1.707-11.093,1.707-16.213s-0.853-11.093-1.707-16.213c-0.853-2.56,0.853-4.267,3.413-5.12
	c2.56-0.853,4.267,0.853,5.12,3.413c1.707,5.973,1.707,11.947,1.707,17.92s-0.853,11.947-1.707,17.92
	C500.907,356.693,499.2,358.4,497.493,358.4z M5.973,358.4c-1.707,0-3.413-1.707-4.267-3.413C0,349.013,0,343.04,0,337.067
	s0.853-11.947,1.707-17.92c0.853-2.56,2.56-3.413,5.12-3.413c2.56,0.853,3.413,2.56,3.413,5.12
	c-0.853,5.12-1.707,11.093-1.707,16.213s0.853,11.093,1.707,16.213c0.853,2.56-0.853,4.267-3.413,5.12
	C6.827,358.4,6.827,358.4,5.973,358.4z M21.333,293.547c-0.853,0-1.707,0-2.56-0.853c-1.707-1.707-2.56-4.267-0.853-5.973
	c5.12-6.827,11.093-11.947,17.92-17.067c1.707-1.707,4.267-0.853,5.973,0.853c1.707,1.707,0.853,4.267-0.853,5.973
	c-5.973,4.267-11.947,9.387-16.213,14.507C23.893,292.693,22.187,293.547,21.333,293.547z M482.133,293.547
	c-0.853,0-2.56-0.853-3.413-1.707c-4.267-5.973-10.24-10.24-16.213-14.507c-1.707-1.707-2.56-4.267-0.853-5.973
	s4.267-2.56,5.973-0.853c6.827,4.267,12.8,10.24,17.92,16.213c1.707,1.707,0.853,4.267-0.853,5.973
	C483.84,292.693,482.987,293.547,482.133,293.547z M439.467,266.24h-0.853c-5.12-0.853-10.24-1.707-16.213-1.707
	c-2.56,0-4.267-1.707-4.267-4.267c0-2.56,1.707-4.267,4.267-4.267c5.973,0,11.947,0.853,17.92,1.707
	c2.56,0.853,3.413,2.56,3.413,5.12C442.88,265.387,441.173,266.24,439.467,266.24z M64,266.24c-1.707,0-3.413-1.707-4.267-3.413
	c-0.853-2.56,0.853-4.267,3.413-5.12C69.12,256,75.093,256,81.067,256c2.56,0,4.267,1.707,4.267,4.267
	c0,2.56-1.707,4.267-4.267,4.267c-5.12,0-11.093,0.853-16.213,1.707C64.853,266.24,64.853,266.24,64,266.24z M388.267,264.533H371.2
	c-2.56,0-4.267-1.707-4.267-4.267c0-2.56,1.707-4.267,4.267-4.267h17.067c2.56,0,4.267,1.707,4.267,4.267
	C392.533,262.827,390.827,264.533,388.267,264.533z M337.067,264.533H320c-2.56,0-4.267-1.707-4.267-4.267
	c0-2.56,1.707-4.267,4.267-4.267h17.067c2.56,0,4.267,1.707,4.267,4.267C341.333,262.827,339.627,264.533,337.067,264.533z
	 M285.867,264.533H268.8c-2.56,0-4.267-1.707-4.267-4.267c0-2.56,1.707-4.267,4.267-4.267h17.067c2.56,0,4.267,1.707,4.267,4.267
	C290.133,262.827,288.427,264.533,285.867,264.533z M234.667,264.533H217.6c-2.56,0-4.267-1.707-4.267-4.267
	c0-2.56,1.707-4.267,4.267-4.267h17.067c2.56,0,4.267,1.707,4.267,4.267C238.933,262.827,237.227,264.533,234.667,264.533z
	 M183.467,264.533H166.4c-2.56,0-4.267-1.707-4.267-4.267c0-2.56,1.707-4.267,4.267-4.267h17.067c2.56,0,4.267,1.707,4.267,4.267
	C187.733,262.827,186.027,264.533,183.467,264.533z M132.267,264.533H115.2c-2.56,0-4.267-1.707-4.267-4.267
	c0-2.56,1.707-4.267,4.267-4.267h17.067c2.56,0,4.267,1.707,4.267,4.267C136.533,262.827,134.827,264.533,132.267,264.533z
	 M123.733,230.4L123.733,230.4c-3.413-0.853-4.267-2.56-4.267-5.12l8.533-51.2c5.12-23.893,22.187-37.547,46.933-37.547h12.8V64
	c0-6.827,5.973-12.8,12.8-12.8h85.333c6.827,0,12.8,5.973,12.8,12.8v21.333H499.2c2.56,0,4.267,1.707,4.267,4.267
	c0,2.56-1.707,4.267-4.267,4.267H294.4c-2.56,0-4.267-1.707-4.267-4.267V64c0-2.56-1.707-4.267-4.267-4.267h-85.333
	c-2.56,0-4.267,1.707-4.267,4.267v76.8c0,2.56-1.707,4.267-4.267,4.267h-17.067c-14.507,0-33.28,5.12-38.4,30.72l-8.533,51.2
	C128,228.693,126.293,230.4,123.733,230.4z M379.733,230.4h-42.667c-6.827,0-12.8-5.973-12.8-12.8v-17.067
	c0-6.827,5.973-12.8,12.8-12.8h8.533c2.56,0,4.267,1.707,4.267,4.267c0,2.56-1.707,4.267-4.267,4.267h-8.533
	c-2.56,0-4.267,1.707-4.267,4.267V217.6c0,2.56,1.707,4.267,4.267,4.267h37.547l-7.68-46.08c-5.12-25.6-23.893-30.72-38.4-30.72
	h-102.4c-2.56,0-4.267-1.707-4.267-4.267c0-2.56,1.707-4.267,4.267-4.267h64v-12.8c0-2.56,1.707-4.267,4.267-4.267
	s4.267,1.707,4.267,4.267v12.8h29.867c24.747,0,41.813,13.653,46.933,37.547l8.533,51.2c0,0.853,0,2.56-0.853,3.413
	C382.293,229.547,381.44,230.4,379.733,230.4z M285.867,230.4H268.8c-6.827,0-12.8-5.973-12.8-12.8v-17.067
	c0-6.827,5.973-12.8,12.8-12.8h17.067c6.827,0,12.8,5.973,12.8,12.8V217.6C298.667,224.427,293.547,230.4,285.867,230.4z
	 M268.8,196.267c-2.56,0-4.267,1.707-4.267,4.267V217.6c0,2.56,1.707,4.267,4.267,4.267h17.067c2.56,0,4.267-1.707,4.267-4.267
	v-17.067c0-2.56-1.707-4.267-4.267-4.267H268.8z"/>
</svg>