<?xml version="1.0" encoding="iso-8859-1"?>
<!-- Uploaded to: SVG Repo, www.svgrepo.com, Generator: SVG Repo Mixer Tools -->
<svg height="800px" width="800px" version="1.1" id="Layer_1" xmlns="http://www.w3.org/2000/svg" xmlns:xlink="http://www.w3.org/1999/xlink" 
	 viewBox="0 0 504.747 504.747" xml:space="preserve">
<g transform="translate(1 27)">
	<path style="fill:#AAB1BA;" d="M429.933,268.466c28.16,0,51.2,23.04,51.2,51.2c0,28.16-23.04,51.2-51.2,51.2s-51.2-23.04-51.2-51.2
		C378.733,291.507,401.773,268.466,429.933,268.466z M88.6,268.466c28.16,0,51.2,23.04,51.2,51.2c0,28.16-23.04,51.2-51.2,51.2
		s-51.2-23.04-51.2-51.2C37.4,291.507,60.44,268.466,88.6,268.466z"/>
	<path style="fill:#E4F2DE;" d="M429.933,302.6c9.387,0,17.067,7.68,17.067,17.067s-7.68,17.067-17.067,17.067
		s-17.067-7.68-17.067-17.067S420.547,302.6,429.933,302.6z M88.6,302.6c9.387,0,17.067,7.68,17.067,17.067
		s-7.68,17.067-17.067,17.067s-17.067-7.68-17.067-17.067S79.213,302.6,88.6,302.6z"/>
	<path style="fill:#AE938D;" d="M301.933,167.773v-6.827L464.067,174.6c10.24,0,17.067,6.827,17.067,17.067v25.6V251.4H370.2
		l-25.6,68.267H173.933L139.8,234.333H37.4l-20.48,77.653l-13.653-0.853v-179.2h145.067l34.133,85.333H298.52L301.933,167.773z"/>
</g>
<path style="fill:#51565F;" d="M499.2,436.267H362.667c-2.56,0-4.267-1.707-4.267-4.267s1.707-4.267,4.267-4.267H499.2
	c2.56,0,4.267,1.707,4.267,4.267S501.76,436.267,499.2,436.267z M328.533,436.267h-17.067c-2.56,0-4.267-1.707-4.267-4.267
	s1.707-4.267,4.267-4.267h17.067c2.56,0,4.267,1.707,4.267,4.267S331.093,436.267,328.533,436.267z M260.267,436.267h-85.333
	c-2.56,0-4.267-1.707-4.267-4.267s1.707-4.267,4.267-4.267h85.333c2.56,0,4.267,1.707,4.267,4.267S262.827,436.267,260.267,436.267z
	 M123.733,436.267H4.267C1.707,436.267,0,434.56,0,432s1.707-4.267,4.267-4.267h119.467c2.56,0,4.267,1.707,4.267,4.267
	S126.293,436.267,123.733,436.267z M430.933,402.133c-30.72,0-55.467-24.747-55.467-55.467c0-13.653,5.12-26.453,14.507-36.693
	c1.707-1.707,4.267-1.707,5.973,0c1.707,1.707,1.707,4.267,0,5.973C388.267,324.48,384,335.573,384,347.52
	c0,25.6,21.333,46.933,46.933,46.933s46.933-21.333,46.933-46.933c0-11.947-4.267-23.04-11.947-31.573
	c-1.707-1.707-1.707-4.267,0-5.973c1.707-1.707,4.267-1.707,5.973,0c9.387,10.24,14.507,23.04,14.507,36.693
	C486.4,377.387,461.653,402.133,430.933,402.133z M89.6,402.133c-30.72,0-55.467-24.747-55.467-55.467S58.88,291.2,89.6,291.2
	s55.467,24.747,55.467,55.467S120.32,402.133,89.6,402.133z M89.6,299.733c-25.6,0-46.933,21.333-46.933,46.933S64,393.6,89.6,393.6
	s46.933-21.333,46.933-46.933S115.2,299.733,89.6,299.733z M430.933,368c-11.947,0-21.333-9.387-21.333-21.333
	s9.387-21.333,21.333-21.333c11.947,0,21.333,9.387,21.333,21.333S442.88,368,430.933,368z M430.933,333.867
	c-6.827,0-12.8,5.973-12.8,12.8s5.973,12.8,12.8,12.8s12.8-5.973,12.8-12.8S437.76,333.867,430.933,333.867z M89.6,368
	c-11.947,0-21.333-9.387-21.333-21.333s9.387-21.333,21.333-21.333s21.333,9.387,21.333,21.333S101.547,368,89.6,368z M89.6,333.867
	c-6.827,0-12.8,5.973-12.8,12.8s5.973,12.8,12.8,12.8s12.8-5.973,12.8-12.8S96.427,333.867,89.6,333.867z M345.6,350.933H174.933
	c-1.707,0-3.413-0.853-4.267-2.56l-33.28-82.773H38.4c-2.56,0-4.267-1.707-4.267-4.267c0-2.56,1.707-4.267,4.267-4.267h102.4
	c1.707,0,3.413,0.853,4.267,2.56l33.28,82.773H343.04l24.747-65.707c0.853-1.707,2.56-2.56,4.267-2.56H478.72v-25.6h-29.867
	c-2.56,0-4.267-1.707-4.267-4.267c0-2.56,1.707-4.267,4.267-4.267h29.867v-21.333c0-7.68-5.12-12.8-12.8-12.8l-132.267-8.533
	c-2.56,0-4.267-2.56-4.267-4.267c0-2.56,2.56-4.267,4.267-4.267l132.267,8.533l0,0c12.8,0,21.333,8.533,21.333,21.333v58.027
	l16.213,16.213c1.707,1.707,1.707,4.267,0,5.973c-1.707,1.707-4.267,1.707-5.973,0l-16.213-16.213H375.467l-24.747,65.707
	C349.013,350.08,347.307,350.933,345.6,350.933z M4.267,342.4c-2.56,0-4.267-1.707-4.267-4.267v-179.2
	c0-2.56,1.707-4.267,4.267-4.267h145.067c1.707,0,3.413,0.853,4.267,2.56L186.88,240h109.227l3.413-42.667l-35.84-16.213
	l-6.827,13.653c-0.853,1.707-3.413,2.56-5.973,1.707c-1.707-0.853-2.56-2.56-2.56-3.413c0-0.853,0-1.707,0.853-1.707l8.533-17.067
	l0,0l8.533-17.067c0.853-1.707,3.413-2.56,5.973-1.707c1.707,0.853,2.56,2.56,2.56,3.413c0,0.853,0,1.707-0.853,1.707l-6.827,12.8
	l33.28,14.507l8.533-115.2c0-2.56,2.56-4.267,4.267-4.267c2.56,0,4.267,2.56,4.267,4.267l-8.533,120.32v0.853
	c0,0.853,0,0.853,0,1.707l-5.973,82.773l0,0l-2.56,34.133c0,2.56-1.707,4.267-4.267,4.267h-85.333c-2.56,0-4.267-1.707-4.267-4.267
	s1.707-4.267,4.267-4.267h81.067l1.707-25.6h-5.973c-2.56,0-4.267-1.707-4.267-4.267s1.707-4.267,4.267-4.267h6.827l1.707-25.6
	H185.173c-1.707,0-3.413-0.853-4.267-2.56l-33.28-82.773H9.386v174.933C8.533,340.693,6.827,342.4,4.267,342.4z M89.6,231.467H38.4
	c-2.56,0-4.267-1.707-4.267-4.267c0-2.56,1.707-4.267,4.267-4.267h51.2c2.56,0,4.267,1.707,4.267,4.267
	C93.867,229.76,92.16,231.467,89.6,231.467z M72.533,197.333H38.4c-2.56,0-4.267-1.707-4.267-4.267S35.84,188.8,38.4,188.8h34.133
	c2.56,0,4.267,1.707,4.267,4.267S75.093,197.333,72.533,197.333z"/>
</svg>