<?xml version="1.0" encoding="iso-8859-1"?>
<!-- Uploaded to: SVG Repo, www.svgrepo.com, Generator: SVG Repo Mixer Tools -->
<svg height="800px" width="800px" version="1.1" id="Layer_1" xmlns="http://www.w3.org/2000/svg" xmlns:xlink="http://www.w3.org/1999/xlink" 
	 viewBox="0 0 501.26 501.26" xml:space="preserve">
<g transform="translate(3)">
	<polygon style="fill:#AE938D;" points="204.11,383.5 131.577,310.967 95.737,275.127 119.63,250.38 143.524,275.127 204.11,334.86 
		239.95,371.553 264.697,395.447 239.95,419.34 	"/>
	<g>
		<polygon style="fill:#E4F2DE;" points="131.577,310.967 204.11,383.5 155.47,431.287 95.737,346.807 		"/>
		<polygon style="fill:#E4F2DE;" points="155.47,431.287 113.657,473.953 59.043,383.5 95.737,346.807 		"/>
	</g>
	<g transform="translate(0 0.003)">
		<path style="fill:#E4F2DE;" d="M59.043,383.523l54.613,90.453l-17.92,17.92c-6.827,6.827-17.92,6.827-23.893,0l-48.64-48.64
			c-6.827-6.827-6.827-17.067,0-23.893L59.043,383.523z"/>
		<path style="fill:#AAB1BA;" d="M478.883,60.109c0.853,46.08-20.48,93.013-45.227,117.76L240.803,370.722l-35.84-35.84
			L478.883,60.109z M180.217,238.456l23.893-23.893l23.893-23.893l23.893-23.893l23.893-23.893l23.893-23.893
			c11.947-11.947,36.693-11.947,48.64-11.947c11.947,0,23.893-11.947,23.893-11.947l91.307-92.16
			c9.387,17.92,13.653,38.4,14.507,58.027L203.257,335.737L142.67,275.15L180.217,238.456z"/>
	</g>
</g>
<path style="fill:#51565F;" d="M86.79,501.26c-5.973,0-11.093-2.56-15.36-5.973l-48.64-48.64c-4.267-4.267-5.973-9.387-5.973-15.36
	c0-5.973,2.56-11.093,5.973-15.36l105.813-105.813l-33.28-33.28c-1.707-1.707-1.707-4.267,0-5.973l23.893-23.893
	c1.707-1.707,4.267-1.707,5.973,0l145.067,145.067c1.707,1.707,1.707,4.267,0,5.973L246.364,421.9c-1.707,1.707-4.267,1.707-5.973,0
	l-33.28-33.28l-87.04,87.04l0,0l-17.92,17.92C97.883,498.7,91.91,501.26,86.79,501.26z M61.19,390.327l-32.427,32.427
	c-2.56,2.56-3.413,5.973-3.413,9.387c0,3.413,1.707,6.827,3.413,9.387l48.64,48.64c5.12,5.12,13.653,5.12,17.92,0l15.36-15.36
	L61.19,390.327z M68.017,384.353l49.493,82.773l35.84-35.84l-55.467-77.653L68.017,384.353z M103.857,347.66l55.467,77.653
	l44.373-44.373c1.707-1.707,4.267-1.707,5.973,0l33.28,33.28l17.92-17.92L121.777,257.207l-17.92,17.92l81.067,81.067
	c1.707,1.707,1.707,4.267,0,5.973c-1.707,1.707-4.267,1.707-5.973,0l-45.227-45.227L103.857,347.66z M267.697,351.073
	c-0.853,0-2.56,0-3.413-0.853c-1.707-1.707-1.707-4.267,0-5.973l168.96-168.96c21.333-21.333,41.813-62.293,44.373-104.107
	l-243.2,243.2c-1.707,1.707-4.267,1.707-5.973,0c-1.707-1.707-1.707-4.267,0-5.973L477.617,59.233
	c0-17.067-3.413-33.28-11.093-49.493L378.63,97.633c-0.853,0.853-13.653,13.653-27.307,13.653c-11.093,0-34.133,0-45.227,11.093
	l-21.333,21.333l9.387,9.387c1.707,1.707,1.707,4.267,0,5.973c-1.707,1.707-4.267,1.707-5.973,0l-9.387-9.387l-17.92,17.92
	l9.387,9.387c1.707,1.707,1.707,4.267,0,5.973c-1.707,1.707-4.267,1.707-5.973,0l-9.387-9.387l-17.92,17.92l9.387,9.387
	c1.707,1.707,1.707,4.267,0,5.973c-1.707,1.707-4.267,1.707-5.973,0l-9.387-9.387l-17.92,17.92l9.387,9.387
	c1.707,1.707,1.707,4.267,0,5.973s-4.267,1.707-5.973,0l-9.387-9.387l-17.92,17.92l9.387,9.387c1.707,1.707,1.707,4.267,0,5.973
	c-1.707,1.707-4.267,1.707-5.973,0l-9.387-9.387l-9.387,9.387c-1.707,1.707-4.267,1.707-5.973,0c-1.707-1.707-1.707-4.267,0-5.973
	l35.84-35.84l0,0l0,0l23.893-23.893l0,0l0,0l47.787-47.787l0,0l0,0l23.893-23.893c13.653-13.653,39.253-13.653,51.2-13.653
	c8.533,0,17.92-7.68,21.333-11.093L463.11,1.207c0.853-0.853,2.56-1.707,3.413-0.853c1.707,0,2.56,0.853,3.413,2.56
	c10.24,18.773,14.507,39.253,14.507,58.88c0,0.853,0,1.707,0,1.707c0,47.787-22.187,95.573-46.933,120.32L268.55,352.78
	C269.404,351.073,268.55,351.073,267.697,351.073z"/>
</svg>