<?xml version="1.0" encoding="iso-8859-1"?>
<!-- Uploaded to: SVG Repo, www.svgrepo.com, Generator: SVG Repo Mixer Tools -->
<svg version="1.1" id="Layer_1" xmlns="http://www.w3.org/2000/svg" xmlns:xlink="http://www.w3.org/1999/xlink" 
	 viewBox="0 0 511.992 511.992" xml:space="preserve">
<rect x="330.646" y="85.326" style="fill:#D89766;" width="170.69" height="341.31"/>
<path style="fill:#F4BE8E;" d="M501.336,437.333H330.65c-5.875,0-10.656-4.781-10.656-10.688V85.331
	c0-5.891,4.781-10.672,10.656-10.672h170.686c5.875,0,10.656,4.781,10.656,10.672v341.314
	C511.992,432.552,507.211,437.333,501.336,437.333z M341.338,415.989h149.311V95.995H341.338V415.989z"/>
<path style="fill:#FFCE54;" d="M447.117,176.454c-1.969-4.641-12.828-27.796-31.123-27.796c-18.297,0-29.156,23.155-31.141,27.796
	c-0.578,1.328-0.859,2.758-0.859,4.203V351.99c0,5.891,4.781,10.656,10.656,10.656h42.686c5.875,0,10.656-4.766,10.656-10.656
	V180.657C447.992,179.212,447.695,177.782,447.117,176.454z"/>
<rect x="383.996" y="298.646" style="fill:#F6BB42;" width="63.998" height="21.344"/>
<path style="fill:#ED5564;" d="M330.65,74.659H10.664C4.773,74.659,0,79.44,0,85.331v341.314c0,5.906,4.773,10.688,10.664,10.688
	H330.65c5.906,0,10.688-4.781,10.688-10.688V85.331C341.338,79.44,336.557,74.659,330.65,74.659z"/>
<g>
	<path style="fill:#DA4453;" d="M74.663,309.335c0,5.875-4.773,10.656-10.664,10.656s-10.664-4.781-10.664-10.656
		c0-5.906,4.773-10.688,10.664-10.688S74.663,303.429,74.663,309.335z"/>
	<path style="fill:#DA4453;" d="M117.334,309.335c0,5.875-4.781,10.656-10.672,10.656s-10.664-4.781-10.664-10.656
		c0-5.906,4.773-10.688,10.664-10.688S117.334,303.429,117.334,309.335z"/>
	<path style="fill:#DA4453;" d="M159.997,309.335c0,5.875-4.773,10.656-10.664,10.656s-10.672-4.781-10.672-10.656
		c0-5.906,4.781-10.688,10.672-10.688S159.997,303.429,159.997,309.335z"/>
	<path style="fill:#DA4453;" d="M202.661,309.335c0,5.875-4.773,10.656-10.664,10.656s-10.664-4.781-10.664-10.656
		c0-5.906,4.773-10.688,10.664-10.688S202.661,303.429,202.661,309.335z"/>
	<path style="fill:#DA4453;" d="M245.332,309.335c0,5.875-4.781,10.656-10.671,10.656c-5.891,0-10.664-4.781-10.664-10.656
		c0-5.906,4.773-10.688,10.664-10.688C240.551,298.647,245.332,303.429,245.332,309.335z"/>
	<path style="fill:#DA4453;" d="M287.996,309.335c0,5.875-4.781,10.656-10.656,10.656c-5.898,0-10.68-4.781-10.68-10.656
		c0-5.906,4.781-10.688,10.68-10.688C283.215,298.647,287.996,303.429,287.996,309.335z"/>
	<path style="fill:#DA4453;" d="M74.663,394.645c0,5.906-4.773,10.688-10.664,10.688s-10.664-4.781-10.664-10.688
		c0-5.875,4.773-10.656,10.664-10.656C69.89,383.989,74.663,388.77,74.663,394.645z"/>
	<path style="fill:#DA4453;" d="M117.334,394.645c0,5.906-4.781,10.688-10.672,10.688s-10.664-4.781-10.664-10.688
		c0-5.875,4.773-10.656,10.664-10.656S117.334,388.77,117.334,394.645z"/>
	<path style="fill:#DA4453;" d="M159.997,394.645c0,5.906-4.773,10.688-10.664,10.688s-10.672-4.781-10.672-10.688
		c0-5.875,4.781-10.656,10.672-10.656C155.224,383.989,159.997,388.77,159.997,394.645z"/>
	<path style="fill:#DA4453;" d="M202.661,394.645c0,5.906-4.773,10.688-10.664,10.688s-10.664-4.781-10.664-10.688
		c0-5.875,4.773-10.656,10.664-10.656S202.661,388.77,202.661,394.645z"/>
	<path style="fill:#DA4453;" d="M245.332,394.645c0,5.906-4.781,10.688-10.671,10.688c-5.891,0-10.664-4.781-10.664-10.688
		c0-5.875,4.773-10.656,10.664-10.656C240.551,383.989,245.332,388.77,245.332,394.645z"/>
	<path style="fill:#DA4453;" d="M287.996,394.645c0,5.906-4.781,10.688-10.656,10.688c-5.898,0-10.68-4.781-10.68-10.688
		c0-5.875,4.781-10.656,10.68-10.656C283.215,383.989,287.996,388.77,287.996,394.645z"/>
	<path style="fill:#DA4453;" d="M95.999,351.99c0,5.891-4.773,10.656-10.664,10.656s-10.672-4.766-10.672-10.656
		s4.781-10.656,10.672-10.656S95.999,346.1,95.999,351.99z"/>
	<path style="fill:#DA4453;" d="M138.662,351.99c0,5.891-4.773,10.656-10.664,10.656c-5.89,0-10.664-4.766-10.664-10.656
		s4.773-10.656,10.664-10.656C133.889,341.334,138.662,346.1,138.662,351.99z"/>
	<path style="fill:#DA4453;" d="M181.333,351.99c0,5.891-4.781,10.656-10.671,10.656s-10.664-4.766-10.664-10.656
		s4.773-10.656,10.664-10.656S181.333,346.1,181.333,351.99z"/>
	<path style="fill:#DA4453;" d="M223.996,351.99c0,5.891-4.773,10.656-10.664,10.656c-5.89,0-10.671-4.766-10.671-10.656
		s4.781-10.656,10.671-10.656C219.223,341.334,223.996,346.1,223.996,351.99z"/>
	<path style="fill:#DA4453;" d="M266.66,351.99c0,5.891-4.773,10.656-10.664,10.656s-10.664-4.766-10.664-10.656
		s4.773-10.656,10.664-10.656C261.887,341.334,266.66,346.1,266.66,351.99z"/>
</g>
<path style="fill:#FFCE54;" d="M287.996,117.33H53.335c-5.891,0-10.672,4.773-10.672,10.664v127.998
	c0,5.891,4.781,10.663,10.672,10.663h234.661c5.891,0,10.656-4.772,10.656-10.663V127.994
	C298.652,122.103,293.887,117.33,287.996,117.33z"/>
<g>
	<path style="fill:#434A54;" d="M245.332,181.329H95.999c-5.891,0-10.664-4.781-10.664-10.672c0-5.89,4.773-10.664,10.664-10.664
		h149.333c5.891,0,10.664,4.773,10.664,10.664S251.223,181.329,245.332,181.329z"/>
	<path style="fill:#434A54;" d="M202.661,223.992h-63.999c-5.891,0-10.664-4.773-10.664-10.664s4.773-10.671,10.664-10.671h63.999
		c5.89,0,10.671,4.781,10.671,10.671S208.551,223.992,202.661,223.992z"/>
</g>
<path style="fill:#ED5564;" d="M415.994,148.658c-18.297,0-29.156,23.155-31.141,27.796c-0.578,1.328-0.859,2.758-0.859,4.203
	h63.998c0-1.445-0.297-2.875-0.875-4.203C445.148,171.813,434.289,148.658,415.994,148.658z"/>
<path style="opacity:0.2;fill:#FFFFFF;enable-background:new    ;" d="M447.117,176.454c-1.969-4.641-12.828-27.796-31.123-27.796
	c-1.859,0-3.625,0.25-5.344,0.688c15.078,3.835,24.029,22.944,25.811,27.108c0.562,1.328,0.875,2.758,0.875,4.203V351.99
	c0,5.891-4.781,10.656-10.686,10.656h10.686c5.875,0,10.656-4.766,10.656-10.656V180.657
	C447.992,179.212,447.695,177.782,447.117,176.454z"/>
<path style="fill:#F6BB42;" d="M447.992,362.646h-63.998c-5.891,0-10.656-4.766-10.656-10.656s4.766-10.656,10.656-10.656h63.998
	c5.891,0,10.656,4.766,10.656,10.656S453.883,362.646,447.992,362.646z"/>
</svg>