<?xml version="1.0" encoding="iso-8859-1"?>
<!-- Uploaded to: SVG Repo, www.svgrepo.com, Generator: SVG Repo Mixer Tools -->
<svg height="800px" width="800px" version="1.1" id="Layer_1" xmlns="http://www.w3.org/2000/svg" xmlns:xlink="http://www.w3.org/1999/xlink" 
	 viewBox="0 0 511.989 511.989" xml:space="preserve">
<path style="fill:#AAB2BC;" d="M479.989,133.328c-5.891,0-10.672-4.781-10.672-10.672v-21.328c0-5.89,4.781-10.671,10.672-10.671
	s10.656,4.781,10.656,10.671v21.328C490.645,128.547,485.88,133.328,479.989,133.328z"/>
<path style="fill:#434A54;" d="M158.136,271.989c-2.727,0-5.453-1.039-7.538-3.117l-14.422-14.421
	c-4.164-4.172-4.164-10.922,0-15.094s10.922-4.172,15.086,0l14.421,14.422c4.164,4.172,4.164,10.921,0,15.093
	C163.597,270.95,160.87,271.989,158.136,271.989z"/>
<path style="fill:#656D78;" d="M173.307,305.708c-16.211,0-29.358-4.031-39.257-12.062c-15.57-12.656-16.648-29.992-16.719-31.929
	l21.32-0.797l-0.008-0.125c0.023,0.406,0.711,9.843,9.109,16.476c8.694,6.875,23.374,8.812,42.437,5.531
	c5.805-0.969,11.32,2.906,12.312,8.719s-2.906,11.312-8.719,12.312C186.495,305.083,179.667,305.708,173.307,305.708z"/>
<g>
	<path style="fill:#CCD1D9;" d="M42.653,175.983H31.99c-5.891,0-10.672-4.766-10.672-10.656s4.781-10.671,10.672-10.671h10.663
		c5.891,0,10.672,4.781,10.672,10.671C53.325,171.218,48.544,175.983,42.653,175.983z"/>
	<path style="fill:#CCD1D9;" d="M42.653,122.656H31.99c-5.891,0-10.672-4.781-10.672-10.672c0-5.89,4.781-10.656,10.672-10.656
		h10.663c5.891,0,10.672,4.766,10.672,10.656C53.325,117.875,48.544,122.656,42.653,122.656z"/>
</g>
<path style="fill:#A85D5D;" d="M123.574,188.124c-1.977-0.812-4.094-1.219-6.297-1.219c-10.781,0-27.14,8.766-66.655,73.78
	C29.685,295.114,9.06,334.707,4.068,346.863c-11.328,27.468,1.82,59.062,29.312,70.374c6.562,2.719,13.468,4.094,20.522,4.094
	c21.938,0,41.508-13.125,49.866-33.406c4.727-11.469,16.859-56.062,25.117-99.904c4.609-24.445,7.266-44.569,7.883-59.819
	C137.41,212.342,136.496,193.452,123.574,188.124z"/>
<path style="fill:#AAB2BC;" d="M298.649,154.656H42.653c-5.757,0-10.476,4.578-10.655,10.328
	c-0.094,2.734,1.266,57.733,13.038,104.841h86.999c1.383-1.047,12.797-16.124,29.593-16.124c5.938,0,12.539,1.359,19.695,4.047
	v56.897c0,5.906,4.773,10.688,10.664,10.688h106.662c5.891,0,10.672-4.781,10.672-10.688V165.327
	C309.321,159.437,304.54,154.656,298.649,154.656z"/>
<path style="opacity:0.1;enable-background:new    ;" d="M139.176,207.983c0-5.89-4.773-10.656-10.664-10.656H33.764
	c0.555,6.516,1.266,13.734,2.188,21.328h92.561C134.402,218.655,139.176,213.873,139.176,207.983z"/>
<path style="fill:#CCD1D9;" d="M501.317,175.983H63.989c-5.891,0-10.664-4.766-10.664-10.656v-42.671
	c0-5.891,4.773-10.672,10.664-10.672h437.328c5.891,0,10.672,4.781,10.672,10.672v42.671
	C511.989,171.218,507.208,175.983,501.317,175.983z"/>
<path style="fill:#E6E9ED;" d="M265.891,161.359l-21.335-53.327c-1.617-4.047-5.539-6.703-9.898-6.703H74.653h-32
	c-5.89,0-10.663,4.766-10.663,10.656v53.343c0,5.891,4.773,10.656,10.663,10.656h32h181.332c3.539,0,6.852-1.75,8.836-4.688
	C266.806,168.374,267.204,164.64,265.891,161.359z"/>
<g>
	<path style="fill:#CCD1D9;" d="M202.659,122.656c5.89,0,10.663-4.781,10.663-10.672v-10.656h-21.335v10.656
		C191.987,117.875,196.768,122.656,202.659,122.656z"/>
	<path style="fill:#CCD1D9;" d="M159.987,122.656c5.891,0,10.672-4.781,10.672-10.672v-10.656h-21.335v10.656
		C149.324,117.875,154.097,122.656,159.987,122.656z"/>
	<path style="fill:#CCD1D9;" d="M117.324,122.656c5.891,0,10.664-4.781,10.664-10.672v-10.656h-21.336v10.656
		C106.652,117.875,111.433,122.656,117.324,122.656z"/>
</g>
<path style="opacity:0.1;enable-background:new    ;" d="M181.323,257.748v-61.327l-10.148,58.343
	C174.417,255.435,177.8,256.435,181.323,257.748z"/>
</svg>