<?xml version="1.0" encoding="iso-8859-1"?>
<!-- Uploaded to: SVG Repo, www.svgrepo.com, Generator: SVG Repo Mixer Tools -->
<svg height="800px" width="800px" version="1.1" id="Layer_1" xmlns="http://www.w3.org/2000/svg" xmlns:xlink="http://www.w3.org/1999/xlink" 
	 viewBox="0 0 511.994 511.994" xml:space="preserve">
<g>
	<path style="fill:#965353;" d="M185.92,166.743c-8.062-4.765-17.953-7.718-25.828-7.718c-7.867,0-17.765,2.953-25.82,7.718
		c-10.835,6.422-16.804,15.016-16.804,24.234v289.049c0,9.219,5.969,17.828,16.804,24.234c8.055,4.766,17.953,7.734,25.82,7.734
		c7.875,0,17.766-2.969,25.828-7.734c10.828-6.406,16.797-15.016,16.797-24.234V190.977
		C202.717,181.759,196.748,173.165,185.92,166.743z"/>
	<path style="fill:#965353;" d="M377.714,166.743c-8.047-4.765-17.938-7.718-25.812-7.718s-17.766,2.953-25.828,7.718
		c-10.826,6.422-16.795,15.016-16.795,24.234v289.049c0,9.219,5.969,17.828,16.795,24.234c8.062,4.766,17.953,7.734,25.828,7.734
		s17.766-2.969,25.812-7.734c10.844-6.406,16.812-15.016,16.812-24.234V190.977C394.526,181.759,388.558,173.165,377.714,166.743z"
		/>
</g>
<path style="fill:#F6BB42;" d="M160.1,180.321c-0.234,0-0.477,0-0.719-0.016c-5.875-0.391-10.312-5.469-9.921-11.328
	c0.023-0.375,0.609-8.968,2.531-22.155c0.851-5.812,6.257-9.844,12.085-9c5.82,0.844,9.852,6.25,9.008,12.094
	c-1.797,12.281-2.352,20.39-2.359,20.468C170.342,176.009,165.663,180.321,160.1,180.321z M351.87,179.931
	c-5.531,0-10.219-4.266-10.625-9.859c-0.109-1.453-0.734-9.265-2.391-20.53c-0.859-5.812,3.172-11.234,9-12.094
	s11.234,3.172,12.078,9c1.719,11.687,2.406,19.812,2.562,22.03c0.438,5.875-3.969,10.984-9.828,11.422
	C352.401,179.915,352.12,179.931,351.87,179.931z M166.209,137.963c-0.703,0-1.414-0.062-2.125-0.203
	c-5.766-1.172-9.5-6.797-8.328-12.562c1.492-7.359,3.18-14.562,5.016-21.437c1.523-5.688,7.359-9.062,13.047-7.531
	c5.688,1.5,9.062,7.344,7.539,13.031c-1.726,6.453-3.312,13.25-4.71,20.156C175.623,134.478,171.178,137.963,166.209,137.963z
	 M345.714,137.603c-4.969,0-9.406-3.5-10.438-8.531c-1.406-6.938-3-13.719-4.734-20.156c-1.531-5.688,1.828-11.531,7.516-13.062
	c5.688-1.531,11.531,1.843,13.062,7.531c1.844,6.859,3.531,14.062,5.031,21.421c1.188,5.766-2.531,11.391-8.312,12.578
	C347.12,137.525,346.401,137.603,345.714,137.603z M177.327,96.76c-1.172,0-2.359-0.188-3.523-0.594
	c-5.555-1.953-8.477-8.031-6.539-13.593c2.578-7.344,5.398-14.328,8.383-20.75c2.484-5.344,8.82-7.656,14.156-5.156
	c5.336,2.469,7.648,8.812,5.172,14.156c-2.695,5.781-5.25,12.109-7.594,18.812C185.842,94.011,181.725,96.76,177.327,96.76z
	 M334.542,96.401c-4.391,0-8.516-2.734-10.047-7.109c-2.359-6.703-4.922-13.031-7.623-18.812c-2.344-5-0.453-10.906,4.201-13.656
	c-4.795,2.422-10.764,0.891-13.748-3.718c-3.719-5.75-7.703-10.812-11.859-15.031c-3.5-3.578-3.969-9-1.453-13.062
	c-3.266,3.406-8.547,4.344-12.891,1.938c-5.172-2.891-10.711-4.828-16.461-5.766c-4.742-0.766-8.234-4.562-8.844-9.078
	c-0.586,4.516-4.055,8.328-8.797,9.125c-5.727,0.969-11.258,2.938-16.429,5.859c-4.305,2.422-9.586,1.547-12.875-1.844
	c2.531,4.062,2.07,9.469-1.414,13.047c-4.133,4.25-8.109,9.343-11.82,15.093c-3.188,4.937-9.781,6.375-14.727,3.187
	c-4.945-3.187-6.375-9.781-3.188-14.734c4.469-6.953,9.336-13.14,14.461-18.39c4.102-4.219,10.843-4.312,15.062-0.219
	c0.078,0.078,0.156,0.156,0.227,0.219c-0.086-0.125-0.164-0.266-0.242-0.406c-2.891-5.125-1.086-11.625,4.047-14.516
	c7.32-4.125,15.171-6.922,23.343-8.297c5.805-1,11.305,2.906,12.289,8.719c0.016,0.125,0.039,0.25,0.055,0.375
	c0.016-0.125,0.031-0.25,0.055-0.375c0.945-5.812,6.422-9.75,12.227-8.812c8.188,1.344,16.062,4.094,23.406,8.188
	c5.141,2.859,7,9.344,4.125,14.484c-0.078,0.156-0.156,0.297-0.25,0.453c0.078-0.094,0.156-0.188,0.25-0.25
	c4.188-4.125,10.938-4.062,15.062,0.141c5.141,5.234,10.029,11.422,14.529,18.359c3.188,4.938,1.781,11.531-3.156,14.734
	c-0.109,0.078-0.234,0.141-0.359,0.234c0.109-0.062,0.203-0.109,0.312-0.156c5.328-2.5,11.672-0.188,14.172,5.125
	c3,6.438,5.828,13.406,8.406,20.75c1.969,5.562-0.969,11.656-6.5,13.594C336.901,96.198,335.714,96.401,334.542,96.401z"/>
<g>
	<path style="fill:#FFCE54;" d="M202.717,212.289v-21.312c0-9.219-5.969-17.812-16.797-24.234
		c-8.062-4.765-17.953-7.718-25.828-7.718c-7.867,0-17.765,2.953-25.82,7.718c-10.835,6.422-16.804,15.016-16.804,24.234v21.312
		L202.717,212.289L202.717,212.289z"/>
	<path style="fill:#FFCE54;" d="M394.526,212.289v-21.312c0-9.219-5.969-17.812-16.812-24.234
		c-8.047-4.765-17.938-7.718-25.812-7.718s-17.766,2.953-25.828,7.718c-10.826,6.422-16.795,15.016-16.795,24.234v21.312
		L394.526,212.289L394.526,212.289z"/>
</g>
<g>
	<path style="fill:#7F4545;" d="M192.06,362.81c-5.883,0-10.656,4.765-10.656,10.655c0,5.875,4.773,10.656,10.656,10.656h10.656
		v-21.312H192.06V362.81z"/>
	<path style="fill:#7F4545;" d="M192.06,394.778c-5.883,0-10.656,4.766-10.656,10.656c0,5.875,4.773,10.656,10.656,10.656h10.656
		v-21.312H192.06z"/>
	<path style="fill:#7F4545;" d="M192.06,426.747c-5.883,0-10.656,4.766-10.656,10.656c0,5.875,4.773,10.656,10.656,10.656h10.656
		v-21.312H192.06z"/>
	<path style="fill:#7F4545;" d="M128.124,448.059c5.891,0,10.656-4.781,10.656-10.656c0-5.891-4.766-10.656-10.656-10.656h-10.656
		v21.312H128.124z"/>
	<path style="fill:#7F4545;" d="M128.124,416.091c5.891,0,10.656-4.781,10.656-10.656c0-5.891-4.766-10.656-10.656-10.656h-10.656
		v21.312H128.124z"/>
	<path style="fill:#7F4545;" d="M128.124,384.122c5.891,0,10.656-4.781,10.656-10.656c0-5.891-4.766-10.655-10.656-10.655h-10.656
		v21.312h10.656V384.122z"/>
	<path style="fill:#7F4545;" d="M383.87,362.81c-5.891,0-10.656,4.765-10.656,10.655c0,5.875,4.766,10.656,10.656,10.656h10.656
		v-21.312H383.87V362.81z"/>
	<path style="fill:#7F4545;" d="M383.87,394.778c-5.891,0-10.656,4.766-10.656,10.656c0,5.875,4.766,10.656,10.656,10.656h10.656
		v-21.312H383.87z"/>
	<path style="fill:#7F4545;" d="M383.87,426.747c-5.891,0-10.656,4.766-10.656,10.656c0,5.875,4.766,10.656,10.656,10.656h10.656
		v-21.312H383.87z"/>
	<path style="fill:#7F4545;" d="M319.933,448.059c5.875,0,10.656-4.781,10.656-10.656c0-5.891-4.781-10.656-10.656-10.656h-10.654
		v21.312H319.933z"/>
	<path style="fill:#7F4545;" d="M319.933,416.091c5.875,0,10.656-4.781,10.656-10.656c0-5.891-4.781-10.656-10.656-10.656h-10.654
		v21.312H319.933z"/>
	<path style="fill:#7F4545;" d="M319.933,384.122c5.875,0,10.656-4.781,10.656-10.656c0-5.891-4.781-10.655-10.656-10.655h-10.654
		v21.312h10.654V384.122z"/>
</g>
<g>
	<path style="opacity:0.1;fill:#FFFFFF;enable-background:new    ;" d="M377.714,166.743c-8.047-4.765-17.938-7.718-25.812-7.718
		c-1.688,0-3.484,0.141-5.328,0.406c6.719,0.953,14.172,3.578,20.484,7.312c10.844,6.422,16.812,15.016,16.812,24.234v289.049
		c0,9.219-5.969,17.828-16.812,24.234c-6.312,3.734-13.766,6.359-20.484,7.328c1.844,0.25,3.641,0.406,5.328,0.406
		c7.875,0,17.766-2.969,25.812-7.734c10.844-6.406,16.812-15.016,16.812-24.234V190.977
		C394.526,181.759,388.558,173.165,377.714,166.743z"/>
	<path style="opacity:0.1;fill:#FFFFFF;enable-background:new    ;" d="M185.92,166.743c-8.062-4.765-17.953-7.718-25.828-7.718
		c-1.695,0-3.484,0.141-5.328,0.406c6.719,0.953,14.172,3.578,20.5,7.312c10.828,6.422,16.796,15.016,16.796,24.234v289.049
		c0,9.219-5.969,17.828-16.796,24.234c-6.328,3.734-13.781,6.359-20.5,7.328c1.844,0.25,3.633,0.406,5.328,0.406
		c7.875,0,17.766-2.969,25.828-7.734c10.828-6.406,16.797-15.016,16.797-24.234V190.977
		C202.717,181.759,196.748,173.165,185.92,166.743z"/>
</g>
</svg>