<?xml version="1.0" encoding="iso-8859-1"?>
<!-- Uploaded to: SVG Repo, www.svgrepo.com, Generator: SVG Repo Mixer Tools -->
<svg height="800px" width="800px" version="1.1" id="Layer_1" xmlns="http://www.w3.org/2000/svg" xmlns:xlink="http://www.w3.org/1999/xlink" 
	 viewBox="0 0 511.992 511.992" xml:space="preserve">
<polygon style="fill:#E6E9ED;" points="388.399,70.249 324.399,6.25 318.151,0 309.339,0 31.983,0 10.656,0 10.656,21.344 
	10.656,490.68 10.656,511.992 31.983,511.992 373.337,511.992 394.649,511.992 394.649,490.68 394.649,85.343 394.649,76.499 "/>
<g>
	<path style="fill:#434A54;" d="M85.326,298.684h234.667c5.875,0,10.656-4.781,10.656-10.688c0-5.875-4.781-10.656-10.656-10.656
		H85.326c-5.906,0-10.672,4.781-10.672,10.656C74.654,293.902,79.42,298.684,85.326,298.684z"/>
	<path style="fill:#434A54;" d="M319.993,341.338H85.326c-5.906,0-10.672,4.781-10.672,10.656c0,5.906,4.766,10.688,10.672,10.688
		h234.667c5.875,0,10.656-4.781,10.656-10.688C330.649,346.119,325.868,341.338,319.993,341.338z"/>
	<path style="fill:#434A54;" d="M202.652,405.338H85.326c-5.906,0-10.672,4.781-10.672,10.656c0,5.906,4.766,10.688,10.672,10.688
		h117.326c5.89,0,10.671-4.781,10.671-10.688C213.324,410.119,208.542,405.338,202.652,405.338z"/>
</g>
<polygon style="fill:#E6E9ED;" points="472.835,341.119 444.491,341.119 415.993,440.682 458.647,469.117 501.335,440.682 "/>
<path style="fill:#656D78;" d="M458.647,63.781c-23.562,0-42.654,19.094-42.654,42.656v287.995h85.342V106.436
	C501.335,82.874,482.21,63.781,458.647,63.781z"/>
<polygon style="fill:#CCD1D9;" points="394.649,76.499 318.151,76.499 318.151,0 "/>
<g>
	<path style="fill:#967ADC;" d="M149.231,234.465c-5.891,0-10.672-4.781-10.672-10.672V74.656c0-5.891,4.781-10.656,10.672-10.656
		c5.89,0,10.656,4.766,10.656,10.656v149.138C159.887,229.684,155.121,234.465,149.231,234.465z"/>
	<path style="fill:#967ADC;" d="M201.855,212.513c-2.734,0-5.469-1.031-7.547-3.125l-52.624-52.624
		c-4.172-4.156-4.172-10.906,0-15.078s10.921-4.172,15.093,0l52.608,52.624c4.172,4.156,4.172,10.922,0,15.078
		C207.308,211.481,204.574,212.513,201.855,212.513z"/>
	<path style="fill:#967ADC;" d="M96.498,212.622c-2.719,0-5.453-1.047-7.531-3.125c-4.156-4.171-4.156-10.921,0-15.093
		l52.718-52.718c4.172-4.172,10.921-4.172,15.093,0c4.156,4.172,4.156,10.921,0,15.078l-52.718,52.733
		C101.966,211.575,99.247,212.622,96.498,212.622z"/>
</g>
<path style="fill:#AC92EB;" d="M149.325,234.653c-47.046,0-85.327-38.28-85.327-85.326c0-47.062,38.28-85.327,85.327-85.327
	c47.046,0,85.327,38.265,85.327,85.327C234.652,196.372,196.371,234.653,149.325,234.653z M149.325,85.328
	c-35.296,0-63.999,28.702-63.999,63.999c0,35.28,28.703,63.999,63.999,63.999c35.28,0,63.999-28.718,63.999-63.999
	C213.324,114.03,184.605,85.328,149.325,85.328z"/>
</svg>