<?xml version="1.0" encoding="iso-8859-1"?>
<!-- Uploaded to: SVG Repo, www.svgrepo.com, Generator: SVG Repo Mixer Tools -->
<svg height="800px" width="800px" version="1.1" id="Layer_1" xmlns="http://www.w3.org/2000/svg" xmlns:xlink="http://www.w3.org/1999/xlink" 
	 viewBox="0 0 511.993 511.993" xml:space="preserve">
<path style="fill:#434A54;" d="M373.339,422.839c-4.219,0-8.219-2.516-9.891-6.672l-21.342-52.797
	c-2.203-5.453,0.438-11.672,5.904-13.875c5.453-2.203,11.672,0.422,13.875,5.891l21.328,52.797
	c2.219,5.453-0.422,11.672-5.891,13.875C376.011,422.589,374.667,422.839,373.339,422.839z"/>
<path style="fill:#8CC153;" d="M489.384,407.135c-1.859-3.469-5.469-5.625-9.406-5.625H289.966l-49.679-18.844
	c-5.507-2.094-11.664,0.688-13.75,6.188c-0.938,2.469-0.891,5.062-0.07,7.359l-17.586,6.25l-11.648-4.453
	c-5.5-2.109-11.664,0.641-13.773,6.141c-2.109,5.516,0.648,11.672,6.148,13.781l94.592,36.201c1.219,0.469,2.5,0.703,3.812,0.703
	h170.637c3.562,0,6.906-1.781,8.875-4.75l21.328-31.998C491.04,414.822,491.243,410.603,489.384,407.135z"/>
<path style="fill:#434A54;" d="M251.068,350.385c-3.078-1.969-6.938-2.203-10.242-0.672l-92.053,43.031
	c-3.992,1.859-6.43,6-6.125,10.391c0.305,4.406,3.281,8.156,7.492,9.469c0.805,0.234,19.867,6.047,41.358,6.047l0,0
	c17.453,0,31.757-3.797,42.507-11.297c14.601-10.172,21.999-26.312,21.999-47.969C256.005,355.728,254.146,352.339,251.068,350.385z
	"/>
<path style="fill:#A0D468;" d="M445.495,117.358c-19.922-23.749-56.453-37.64-83.578-45.124
	c-35.279-9.719-77.982-15.078-120.208-15.078c-40.694,0-79.288,4.844-111.623,14c-36.983,10.469-64.334,25.968-81.28,46.062
	c-28.398,33.655-44.577,92.154-48.101,173.84c-2.586,59.857,2.758,109.42,2.984,111.498c0.328,2.953,1.867,5.641,4.25,7.406
	c1.852,1.375,4.086,2.094,6.351,2.094c0.656,0,1.305-0.062,1.953-0.172l47-8.766c1.438-0.266,2.812-0.828,4.023-1.641
	c21.015-14.219,47.03-30.547,52.554-32.25c7.148-1.578,94.99-14.891,153.254-23.594l164.92,7.859
	c1.484,0.078,2.953-0.156,4.344-0.688l41.482-16c3.938-1.516,6.594-5.203,6.812-9.404
	C490.946,321.387,497.556,179.404,445.495,117.358z"/>
<g style="opacity:0.2;">
	<path style="fill:#FFFFFF;" d="M251.732,345.635c-58.257,8.703-146.091,22.016-153.24,23.594
		c-5.531,1.703-31.538,18.031-52.562,32.25c-1.211,0.812-2.578,1.375-4.016,1.641l-34.476,6.422c0.164,0.141,0.32,0.281,0.5,0.422
		c1.852,1.375,4.086,2.094,6.351,2.094c0.656,0,1.305-0.062,1.953-0.172l47-8.766c1.438-0.266,2.812-0.828,4.023-1.641
		c21.015-14.219,47.03-30.547,52.554-32.25c6.937-1.531,89.943-14.125,148.083-22.828L251.732,345.635z"/>
	<path style="fill:#FFFFFF;" d="M445.495,117.358c-19.922-23.749-56.453-37.64-83.578-45.124
		c-35.279-9.719-77.982-15.078-120.208-15.078c-3.508,0-6.984,0.047-10.46,0.125c38.631,0.828,77.077,6.062,109.342,14.953
		c27.123,7.484,63.654,21.375,83.576,45.124c52.061,62.046,45.451,204.029,45.139,210.044c-0.219,4.201-2.891,7.889-6.812,9.404
		l-41.232,15.891l16.734,0.797c1.484,0.078,2.953-0.156,4.344-0.688l41.482-16c3.938-1.516,6.594-5.203,6.812-9.404
		C490.946,321.387,497.556,179.404,445.495,117.358z"/>
</g>
<path style="fill:#656D78;" d="M509.915,352.525l-21.062-31.592c-1.969-2.969-5.297-4.75-8.875-4.75H104.836
	c-20.781,0-44.022,13.688-69.084,40.686C18.01,375.978,5.831,394.838,5.323,395.635c-1.992,3.094-2.242,7-0.664,10.328
	c9.109,19.203,37.085,28.938,83.147,28.938c17.085,0,30.156-1.391,30.703-1.453c0.344-0.047,0.688-0.094,1.023-0.172
	c21.328-4.438,36.163-18.344,50.515-31.797c17.539-16.438,34.109-31.969,62.772-31.969h268.502l0,0
	c5.891,0,10.672-4.766,10.672-10.656C511.993,356.478,511.227,354.292,509.915,352.525z"/>
<path style="fill:#434A54;" d="M117.36,380.182c0,5.891-4.773,10.656-10.664,10.656s-10.664-4.766-10.664-10.656
	s4.773-10.672,10.664-10.672S117.36,374.292,117.36,380.182z"/>
</svg>