<?xml version="1.0" encoding="iso-8859-1"?>
<!-- Uploaded to: SVG Repo, www.svgrepo.com, Generator: SVG Repo Mixer Tools -->
<svg height="800px" width="800px" version="1.1" id="Layer_1" xmlns="http://www.w3.org/2000/svg" xmlns:xlink="http://www.w3.org/1999/xlink" 
	 viewBox="0 0 512.01 512.01" xml:space="preserve">
<path style="fill:#FC6E51;" d="M512.001,10.75c0.016-2.859-1.109-5.594-3.125-7.625l0,0C506.86,1.109,504.11-0.016,501.251,0
	c-2.656,0.031-66.046,1.391-143.67,78.999c-4.156,4.172-4.156,10.922,0,15.078l60.344,60.342c4.156,4.156,10.922,4.156,15.077,0
	C510.626,76.796,511.97,13.406,512.001,10.75z"/>
<path style="fill:#FFCE54;" d="M124.211,479.123l26.984-13.499c1.023-0.516,1.96-1.188,2.773-2l219.363-219.378
	c1.203-1.188,2.094-2.641,2.609-4.25l13.625-42.14l43.437-43.437l-75.421-75.42l-43.42,43.437l-42.156,13.625
	c-1.594,0.516-3.055,1.422-4.25,2.609L48.384,358.048c-0.812,0.812-1.484,1.75-2,2.766l-13.492,26.983l-26.984,13.5
	c-3.07,1.531-5.211,4.453-5.758,7.828c-0.555,3.391,0.562,6.828,2.984,9.25l90.499,90.498c2.422,2.438,5.867,3.548,9.25,3
	c3.383-0.562,6.297-2.703,7.836-5.766L124.211,479.123z"/>
<path style="fill:#F6BB42;" d="M5.908,401.297c-3.07,1.531-5.211,4.453-5.758,7.828c-0.555,3.391,0.562,6.828,2.984,9.25
	l90.499,90.498c2.422,2.438,5.867,3.548,9.25,3c3.383-0.562,6.297-2.703,7.836-5.766l13.492-26.984l-91.319-91.326L5.908,401.297z"
	/>
<path style="fill:#E9573F;" d="M397.972,43.968l70.061,70.061c4.547-6.14,8.625-12.125,12.281-17.89l-64.451-64.452
	C410.097,35.343,404.112,39.422,397.972,43.968z"/>
<path style="fill:#434A54;" d="M63.47,448.547L63.47,448.547c-4.164-4.156-10.922-4.172-15.086,0l-7.539,7.546l0,0l15.078,15.078
	l7.547-7.547C67.634,459.468,67.634,452.718,63.47,448.547z"/>
<polygon style="opacity:0.1;enable-background:new    ;" points="314.161,122.435 272.005,136.06 321.817,129.857 "/>
<polygon style="opacity:0.1;enable-background:new    ;" points="389.425,197.7 375.8,239.855 382.003,190.044 "/>
<path style="opacity:0.1;fill:#FFFFFF;enable-background:new    ;" d="M124.211,479.123l26.984-13.499
	c1.023-0.516,1.96-1.188,2.773-2l219.363-219.378c1.203-1.188,2.094-2.641,2.609-4.25l13.625-42.14l43.437-43.437
	C510.626,76.795,511.97,13.406,512.001,10.75c0.016-2.859-1.109-5.594-3.125-7.625l0,0C506.86,1.109,504.11-0.016,501.251,0
	c-0.375,0.016-1.969,0.031-4.641,0.312c-1.625,16.219-12.047,72.374-78.686,139.014l-43.438,43.437l-13.625,42.14
	c-0.531,1.609-1.422,3.078-2.609,4.266l-219.37,219.378c-0.812,0.812-1.742,1.483-2.773,1.999l-26.984,13.484l-13.492,26.999
	c-1.531,3.062-4.445,5.203-7.836,5.75c-3.383,0.547-6.82-0.562-9.25-2.984l15.086,15.078c2.422,2.438,5.867,3.548,9.25,3
	c3.383-0.562,6.297-2.703,7.836-5.766L124.211,479.123z"/>
</svg>