<?xml version="1.0" encoding="iso-8859-1"?>
<!-- Uploaded to: SVG Repo, www.svgrepo.com, Generator: SVG Repo Mixer Tools -->
<svg version="1.1" id="Layer_1" xmlns="http://www.w3.org/2000/svg" xmlns:xlink="http://www.w3.org/1999/xlink" 
	 viewBox="0 0 511.992 511.992" xml:space="preserve">
<path style="fill:#656D78;" d="M458.99,138.061H53.013c-5.906,0-10.688,4.781-10.688,10.688v64.108
	c0,5.891,4.781,10.671,10.688,10.671H458.99c5.891,0,10.672-4.781,10.672-10.671v-64.108
	C469.662,142.842,464.881,138.061,458.99,138.061z"/>
<path style="fill:#434A54;" d="M437.615,195.872c0,118.014-112.498,226.622-181.621,226.622
	C186.87,422.478,74.372,313.887,74.372,195.872C74.372,77.858,155.683,0,255.994,0C356.305,0,437.615,77.859,437.615,195.872z"/>
<g style="opacity:0.1;">
	<path style="fill:#FFFFFF;" d="M255.994,0c-3.594,0-7.141,0.109-10.688,0.312c95.342,5.312,170.951,81.765,170.951,195.56
		c0,112.108-101.529,215.715-170.951,225.809c3.656,0.531,7.234,0.812,10.688,0.812c69.123,0,181.621-108.607,181.621-226.622
		C437.615,77.859,356.305,0,255.994,0z"/>
</g>
<path style="fill:#5D9CEC;" d="M362.836,116.702H149.168c-5.906,0-10.688,4.781-10.688,10.688v106.826
	c0,5.906,4.781,10.688,10.688,10.688h213.668c5.891,0,10.672-4.781,10.672-10.688V127.389
	C373.508,121.483,368.726,116.702,362.836,116.702z"/>
<polygon style="opacity:0.1;fill:#FFFFFF;enable-background:new    ;" points="253.322,244.903 191.901,244.903 255.994,116.702 
	317.416,116.702 "/>
<path style="fill:#CCD1D9;" d="M320.101,276.949c0,35.406-28.701,64.107-64.107,64.107s-64.093-28.701-64.093-64.107
	c-0.016-35.406,28.687-64.093,64.093-64.093S320.101,241.543,320.101,276.949z"/>
<path style="fill:#656D78;" d="M362.461,311.777c0,0-10.969-4.156-38.031,22.92c-27.076,27.078-22.92,38.031-22.92,38.031
	l47.264,47.281l60.953-60.953L362.461,311.777z"/>
<g>
	<path style="fill:#AAB2BC;" d="M266.682,276.949c0,5.906-4.781,10.688-10.688,10.688c-5.891,0-10.688-4.781-10.688-10.688
		c0-5.891,4.797-10.672,10.688-10.672C261.9,266.277,266.682,271.058,266.682,276.949z"/>
	<path style="fill:#AAB2BC;" d="M266.682,244.903c0,5.906-4.781,10.688-10.688,10.688c-5.891,0-10.688-4.781-10.688-10.688
		s4.797-10.688,10.688-10.688C261.9,234.215,266.682,238.996,266.682,244.903z"/>
	<path style="fill:#AAB2BC;" d="M266.682,309.012c0,5.891-4.781,10.672-10.688,10.672c-5.891,0-10.688-4.781-10.688-10.672
		c0-5.906,4.797-10.688,10.688-10.688C261.9,298.324,266.682,303.105,266.682,309.012z"/>
	<path style="fill:#AAB2BC;" d="M233.573,251.684c5.125,2.938,6.875,9.484,3.921,14.593c-2.953,5.094-9.484,6.859-14.593,3.906
		s-6.859-9.484-3.922-14.593C221.932,250.481,228.479,248.731,233.573,251.684z"/>
	<path style="fill:#AAB2BC;" d="M289.088,283.73c5.109,2.953,6.859,9.484,3.922,14.594c-2.953,5.109-9.484,6.859-14.594,3.906
		s-6.859-9.484-3.922-14.594C277.447,282.527,283.978,280.777,289.088,283.73z"/>
	<path style="fill:#AAB2BC;" d="M222.901,283.73c5.109-2.953,11.641-1.203,14.593,3.906c2.953,5.109,1.203,11.641-3.921,14.594
		c-5.094,2.953-11.641,1.203-14.594-3.906C216.041,293.215,217.791,286.684,222.901,283.73z"/>
	<path style="fill:#AAB2BC;" d="M278.416,251.684c5.109-2.953,11.641-1.203,14.594,3.906c2.953,5.109,1.188,11.64-3.922,14.593
		s-11.641,1.188-14.594-3.906C271.557,261.152,273.307,254.621,278.416,251.684z"/>
</g>
<path style="fill:#AC92EB;" d="M498.584,382.291l-66.734-66.732c-4.17-4.172-10.936-4.172-15.107,0L305.291,427.025
	c-2.016,2-3.141,4.719-3.141,7.547c0,2.844,1.125,5.562,3.141,7.562l66.732,66.732c2.078,2.078,4.812,3.125,7.547,3.125
	s5.469-1.047,7.562-3.125l111.451-111.467C502.756,393.228,502.756,386.463,498.584,382.291z"/>
<path style="fill:#656D78;" d="M210.495,372.728c0,0,4.156-10.953-22.921-38.031c-27.078-27.076-38.03-22.92-38.03-22.92
	l-47.281,47.279l60.952,60.953L210.495,372.728z"/>
<path style="fill:#AC92EB;" d="M95.294,315.512c-4.172-4.172-10.938-4.172-15.109,0l-66.78,66.779c-2,2-3.125,4.719-3.125,7.562
	c0,2.828,1.125,5.547,3.125,7.547l111.466,111.467c2,2,4.719,3.125,7.547,3.125c2.844,0,5.562-1.125,7.562-3.125l66.765-66.779
	c4.171-4.172,4.171-10.938,0.016-15.109L95.294,315.512z"/>
<g>
	
		<rect x="77.507" y="353.75" transform="matrix(-0.7071 -0.7071 0.7071 -0.7071 -104.0578 780.2062)" style="opacity:0.1;fill:#FFFFFF;enable-background:new    ;" width="64.099" height="115.809"/>
	<polygon style="opacity:0.1;fill:#FFFFFF;enable-background:new    ;" points="465.537,430.494 420.211,475.82 338.336,393.932 
		383.664,348.603 	"/>
</g>
</svg>