<?xml version="1.0" encoding="iso-8859-1"?>
<!-- Uploaded to: SVG Repo, www.svgrepo.com, Generator: SVG Repo Mixer Tools -->
<svg height="800px" width="800px" version="1.1" id="Layer_1" xmlns="http://www.w3.org/2000/svg" xmlns:xlink="http://www.w3.org/1999/xlink" 
	 viewBox="0 0 511.994 511.994" xml:space="preserve">
<g>
	<path style="fill:#CCD1D9;" d="M398.872,192.489c-3.25-0.398-6.5,0.727-8.844,3.047l-30.156,30.171
		c-2.344,2.32-3.469,5.586-3.062,8.844c0.406,3.266,2.281,6.156,5.094,7.844l75.437,45.272c4.219,2.516,9.594,1.844,13.031-1.609
		c3.469-3.469,4.125-8.828,1.625-13.031l-45.28-75.435C405.028,194.77,402.153,192.895,398.872,192.489z"/>
	<path style="fill:#CCD1D9;" d="M363.309,2.874c-2.625-2.461-6.312-3.422-9.812-2.57c-2.156,0.523-53.154,13.398-102.552,62.788
		c-23.546,23.547-42.843,51.601-57.358,83.397c-17.546,38.46-28.218,82.725-31.703,131.567c-0.312,4.375,2.078,8.484,6.031,10.375
		s8.672,1.172,11.875-1.812c0.187-0.172,19.468-18.016,37.655-27.249c2.516-1.273,4.422-3.484,5.297-6.156
		c0.062-0.188,6.281-18.633,20.015-32.375c9.766-9.757,20.796-14.413,32.804-13.828c16.969,0.82,36.469,11.703,57.968,32.328
		c3.812,3.672,9.781,3.977,13.968,0.703l57.594-45.054c0.344-0.266,0.656-0.555,0.969-0.859c1.812-1.828,2.938-4.281,3.094-6.891
		c0.188-3.055-0.938-6.031-3.094-8.195c-17.156-17.125-29.812-34.819-37.688-52.577c-6.188-13.938-9.438-27.968-9.688-41.71
		c-0.375-22.938,7.906-37.648,8.312-38.382c1.875-2.984,2.062-6.585,0.656-9.804c-2.75-6.266-2.156-18.102-1.125-24.078
		C367.153,8.953,365.935,5.335,363.309,2.874z"/>
</g>
<path style="opacity:0.2;fill:#FFFFFF;enable-background:new    ;" d="M177.337,288.322c3.828-46.936,14.359-89.56,31.343-126.747
	c14.516-31.796,33.812-59.851,57.343-83.397c43.82-43.819,88.912-58.897,100.037-62.108c0.125-1.32,0.281-2.539,0.469-3.578
	c0.625-3.539-0.594-7.156-3.219-9.617s-6.313-3.422-9.813-2.571c-2.156,0.523-53.154,13.398-102.552,62.788
	c-23.546,23.547-42.843,51.601-57.358,83.397c-17.546,38.46-28.218,82.725-31.703,131.567c-0.312,4.375,2.078,8.484,6.031,10.375
	C170.946,289.885,174.431,289.791,177.337,288.322z"/>
<path style="fill:#965353;" d="M374.935,150.279L67.854,457.382c-12.484,12.469-12.484,32.78,0,45.249
	c12.468,12.484,32.78,12.484,45.249,0l0,0l307.112-307.095l0,0c6.031-6.047,9.374-14.078,9.374-22.625
	c0-8.554-3.343-16.585-9.374-22.632C407.716,137.802,387.435,137.802,374.935,150.279z"/>
<path style="fill:#E6E9ED;" d="M374.935,150.279l-67.873,67.881l45.248,45.256l67.906-67.88l0,0l0,0
	c6.031-6.047,9.374-14.078,9.374-22.625c0-8.554-3.343-16.585-9.374-22.632C407.716,137.802,387.435,137.802,374.935,150.279z"/>
<g>
	<polygon style="fill:#7F4545;" points="114.947,500.803 136.275,479.475 136.275,388.961 114.932,410.289 	"/>
	<polygon style="fill:#7F4545;" points="165.149,450.601 186.493,429.258 186.477,338.743 165.149,360.087 	"/>
	<polygon style="fill:#7F4545;" points="215.367,400.383 236.695,379.055 236.695,288.541 215.367,309.869 	"/>
</g>
</svg>