<?xml version="1.0" encoding="iso-8859-1"?>
<!-- Uploaded to: SVG Repo, www.svgrepo.com, Generator: SVG Repo Mixer Tools -->
<svg version="1.1" id="Layer_1" xmlns="http://www.w3.org/2000/svg" xmlns:xlink="http://www.w3.org/1999/xlink" 
	 viewBox="0 0 511.994 511.994" xml:space="preserve">
<g>
	<path style="fill:#DA4453;" d="M207.372,249.065c-2.047-4.094-6.5-6.422-11.047-5.781L90.78,258.361
		c-2.281,0.328-4.391,1.391-6.031,3.016l-60.296,60.319c-4.172,4.172-4.172,10.921,0,15.077l45.218,45.233
		c4.172,4.156,10.922,4.156,15.078,0l120.623-120.63C208.621,258.127,209.418,253.174,207.372,249.065z"/>
	<path style="fill:#DA4453;" d="M253.621,421.21l15.078-105.545c0.656-4.547-1.688-8.984-5.781-11.047
		c-4.109-2.047-9.062-1.25-12.312,2L129.982,427.241c-4.156,4.156-4.156,10.906,0,15.078l45.234,45.232
		c4.172,4.156,10.921,4.156,15.078,0l60.312-60.311C252.246,425.616,253.292,423.491,253.621,421.21z"/>
</g>
<g>
	<path style="fill:#434A54;" d="M366.212,93.115c-0.938-3.656-3.75-6.547-7.375-7.578l-46.889-13.438
		c-3.719-1.062-7.734-0.031-10.469,2.719l-43.594,43.577c-2.609,2.609-3.687,6.391-2.828,9.984c0.453,1.969,1.453,3.719,2.828,5.094
		c1.156,1.156,2.578,2.047,4.172,2.578l45.234,15.078c3.828,1.281,8.062,0.281,10.906-2.578l45.232-45.234
		C366.102,100.645,367.165,96.77,366.212,93.115z"/>
	<path style="fill:#434A54;" d="M439.883,200.035l-13.421-46.875c-1.047-3.64-3.922-6.437-7.578-7.39
		c-3.656-0.938-7.547,0.109-10.219,2.781l-45.234,45.233c-2.859,2.859-3.844,7.078-2.578,10.906l15.078,45.233
		c0.531,1.594,1.422,3.016,2.578,4.172c1.375,1.375,3.125,2.375,5.094,2.844c3.594,0.843,7.375-0.234,9.984-2.844l43.593-43.578
		C439.914,207.768,440.945,203.769,439.883,200.035z"/>
</g>
<path style="fill:#E6E9ED;" d="M498.632,69.099c15.156-30.78,17.438-51.796,6.75-62.483c-10.688-10.687-31.719-8.421-62.499,6.75
	c-23.53,11.594-48.796,29.14-64.374,44.718L3.125,433.491c-2,2-3.125,4.703-3.125,7.531s1.125,5.547,3.125,7.547l60.312,60.295
	c4.156,4.172,10.906,4.172,15.078,0l375.384-375.391C469.476,117.895,487.038,92.63,498.632,69.099z"/>
<path style="fill:#ED5564;" d="M453.898,133.473L453.898,133.473c15.577-15.578,33.14-40.843,44.733-64.374
	c15.156-30.78,17.438-51.796,6.75-62.483c-10.688-10.687-31.719-8.421-62.499,6.75c-23.53,11.594-48.796,29.14-64.374,44.718
	L453.898,133.473z"/>
<path style="fill:#FFCE54;" d="M78.514,508.864l7.531-7.531l-75.389-75.389l-7.531,7.547c-2,2-3.125,4.703-3.125,7.531
	s1.125,5.547,3.125,7.547l60.312,60.295C67.593,513.036,74.342,513.036,78.514,508.864z"/>
<rect x="30.16" y="460.535" transform="matrix(0.7071 0.7071 -0.7071 0.7071 345.1424 109.1449)" style="fill:#F6BB42;" width="21.323" height="21.323"/>
<path style="fill:#ED5564;" d="M99.826,412.163c-4.156-4.172-4.156-10.922,0-15.078l120.623-120.623
	c4.172-4.156,10.922-4.156,15.078,0c4.172,4.172,4.172,10.922,0,15.078L114.904,412.163
	C110.748,416.319,103.998,416.319,99.826,412.163z"/>
<path style="fill:#656D78;" d="M393.587,118.395c-4.156-4.156-10.906-4.156-15.078,0l-60.311,60.312
	c-4.156,4.172-4.156,10.922,0,15.078c4.171,4.172,10.921,4.172,15.077,0l60.312-60.312
	C397.759,129.317,397.759,122.567,393.587,118.395z"/>
<path style="opacity:0.2;fill:#FFFFFF;enable-background:new    ;" d="M498.632,69.099c15.156-30.78,17.438-51.796,6.75-62.483
	c-1.281-1.281-2.703-2.375-4.281-3.281c6.688,11.578,3.344,31.125-10.016,58.233c-11.594,23.531-29.156,48.796-44.718,64.374
	l-375.4,375.391c-4.156,4.156-10.906,4.156-15.078,0l-30.156-30.155L3.125,448.554v0.016l60.312,60.295
	c4.156,4.172,10.906,4.172,15.078,0l375.384-375.391C469.476,117.895,487.038,92.63,498.632,69.099z"/>
</svg>