<?xml version="1.0" encoding="iso-8859-1"?>
<!-- Uploaded to: SVG Repo, www.svgrepo.com, Generator: SVG Repo Mixer Tools -->
<svg version="1.1" id="Layer_1" xmlns="http://www.w3.org/2000/svg" xmlns:xlink="http://www.w3.org/1999/xlink" 
	 viewBox="0 0 511.992 511.992" xml:space="preserve">
<path style="fill:#FFCE54;" d="M271.198,95.999c7.297,12.562,11.453,27.125,11.453,42.656c0,47.062-38.28,85.342-85.326,85.342
	s-85.327-38.28-85.327-85.342c0-47.046,38.281-85.327,85.327-85.327V32c-58.812,0-106.67,47.843-106.67,106.654
	c0,58.827,47.858,106.67,106.67,106.67s106.67-47.843,106.67-106.67c0-15.156-3.188-29.593-8.906-42.656L271.198,95.999
	L271.198,95.999z"/>
<path style="fill:#656D78;" d="M303.995,0h-106.67c-5.891,0-10.672,4.766-10.672,10.656v127.998c0,5.891,4.781,10.672,10.672,10.672
	h106.67c5.891,0,10.656-4.781,10.656-10.672V10.657C314.651,4.766,309.886,0,303.995,0z"/>
<path style="fill:#434A54;" d="M410.649,383.994c-5.875,0-10.656-4.781-10.656-10.672V123.03l-59.249-39.499
	c-2.969-1.969-4.75-5.297-4.75-8.875V21.329H175.997c-5.891,0-10.672-4.781-10.672-10.672s4.781-10.656,10.672-10.656h170.652
	c5.906,0,10.688,4.766,10.688,10.656v58.296l59.25,39.5c2.969,1.984,4.75,5.312,4.75,8.875v255.996
	C421.337,379.213,416.556,383.994,410.649,383.994z"/>
<path style="fill:#8CC153;" d="M325.338,85.328H175.997c-5.891,0-10.672,4.781-10.672,10.671v42.656
	c0,5.891,4.781,10.672,10.672,10.672h149.341c5.875,0,10.656-4.781,10.656-10.672V95.999
	C335.994,90.109,331.213,85.328,325.338,85.328z"/>
<path style="fill:#A0D468;" d="M367.993,127.998H133.326c-5.891,0-10.672,4.766-10.672,10.656V501.32
	c0,5.891,4.781,10.672,10.672,10.672h234.667c5.891,0,10.656-4.781,10.656-10.672V138.655
	C378.649,132.764,373.884,127.998,367.993,127.998z"/>
<rect x="122.656" y="309.326" style="fill:#E6E9ED;" width="256" height="128"/>
<rect x="122.656" y="309.326" style="fill:#CCD1D9;" width="128" height="128"/>
<g>
	<path style="fill:#434A54;" d="M325.338,213.325H175.997c-5.891,0-10.672-4.781-10.672-10.671c0-5.891,4.781-10.656,10.672-10.656
		h149.341c5.875,0,10.656,4.766,10.656,10.656C335.994,208.544,331.213,213.325,325.338,213.325z"/>
	<path style="fill:#434A54;" d="M325.338,255.996H175.997c-5.891,0-10.672-4.781-10.672-10.672s4.781-10.672,10.672-10.672h149.341
		c5.875,0,10.656,4.781,10.656,10.672S331.213,255.996,325.338,255.996z"/>
</g>
<path style="opacity:0.2;fill:#FFFFFF;enable-background:new    ;" d="M367.993,127.998h-21.344c5.906,0,10.688,4.766,10.688,10.656
	V501.32c0,5.891-4.781,10.672-10.688,10.672h21.344c5.891,0,10.656-4.781,10.656-10.672V138.655
	C378.649,132.764,373.884,127.998,367.993,127.998z"/>
</svg>