<?xml version="1.0" encoding="iso-8859-1"?>
<!-- Uploaded to: SVG Repo, www.svgrepo.com, Generator: SVG Repo Mixer Tools -->
<svg height="800px" width="800px" version="1.1" id="Layer_1" xmlns="http://www.w3.org/2000/svg" xmlns:xlink="http://www.w3.org/1999/xlink" 
	 viewBox="0 0 511.999 511.999" xml:space="preserve">
<g>
	<path style="fill:#7F4545;" d="M159.999,346.669H96.001c-5.891,0-10.672,4.781-10.672,10.672v32
		c0,5.891,4.781,10.656,10.672,10.656h63.998c5.891,0,10.656-4.766,10.656-10.656v-32
		C170.656,351.45,165.89,346.669,159.999,346.669z"/>
	<path style="fill:#7F4545;" d="M415.996,346.669h-64c-5.891,0-10.671,4.781-10.671,10.672v32c0,5.891,4.78,10.656,10.671,10.656h64
		c5.891,0,10.656-4.766,10.656-10.656v-32C426.652,351.45,421.887,346.669,415.996,346.669z"/>
	<path style="fill:#7F4545;" d="M415.996,303.999c-5.891,0-10.672-4.766-10.672-10.656V137.501c0-5.891,4.781-10.672,10.672-10.672
		s10.656,4.781,10.656,10.672v155.841C426.652,299.233,421.887,303.999,415.996,303.999z"/>
	<path style="fill:#7F4545;" d="M96.001,303.999c-5.891,0-10.672-4.766-10.672-10.656V172.875c0-5.891,4.781-10.671,10.672-10.671
		c5.89,0,10.656,4.781,10.656,10.671v120.467C106.657,299.233,101.891,303.999,96.001,303.999z"/>
</g>
<path style="fill:#965353;" d="M425.527,288.577c-2.484-4.984-28.359-48.578-169.529-48.578
	c-141.185,0-167.06,43.593-169.544,48.578c-0.734,1.469-1.125,3.109-1.125,4.766v63.998c0,5.891,4.781,10.656,10.672,10.656h319.995
	c5.891,0,10.656-4.766,10.656-10.656v-63.998C426.652,291.687,426.277,290.046,425.527,288.577z"/>
<g>
	<path style="fill:#FFCE54;" d="M358.98,295.952L358.98,295.952c-0.047-0.047-0.109-0.109-0.203-0.172c0,0,0,0-0.016-0.016
		c-1.188-0.984-5.484-4.188-12.531-5.781c-6.499-1.484-17.03-1.922-30.295,4.391c-13.594,6.469-21.234,1.312-21.547,1.094
		c0.156,0.109,0.234,0.188,0.234,0.188l0,0c-1.828-1.453-4.125-2.312-6.625-2.312c-5.891,0-10.672,4.766-10.672,10.656
		c0,3.391,1.578,6.406,4.047,8.359l0,0c0.828,0.672,5.375,4.047,13,5.703c2.391,0.516,5.297,0.891,8.625,0.891
		c6.062,0,13.578-1.266,22.093-5.312c13.234-6.297,19.922-1.547,20.203-1.328c-0.203-0.156-0.297-0.25-0.297-0.25h0.016
		c1.874,1.625,4.312,2.609,6.983,2.609c5.891,0,10.656-4.766,10.656-10.672C362.652,300.796,361.23,297.905,358.98,295.952z"/>
	<path style="fill:#FFCE54;" d="M153.187,295.952L153.187,295.952c0.047-0.047,0.125-0.109,0.203-0.172c0,0,0,0,0.016-0.016
		c1.188-0.984,5.484-4.188,12.531-5.781c6.5-1.484,17.031-1.922,30.296,4.391c13.593,6.469,21.234,1.312,21.562,1.094
		c-0.172,0.109-0.25,0.188-0.25,0.188l0,0c1.828-1.453,4.125-2.312,6.625-2.312c5.891,0,10.672,4.766,10.672,10.656
		c0,3.391-1.578,6.406-4.047,8.359h0.016c-0.844,0.672-5.391,4.047-13.016,5.703c-2.391,0.516-5.297,0.891-8.625,0.891
		c-6.062,0-13.578-1.266-22.093-5.312c-13.234-6.297-19.921-1.547-20.203-1.328c0.203-0.156,0.297-0.25,0.297-0.25h-0.016
		c-1.859,1.625-4.297,2.609-6.984,2.609c-5.891,0-10.656-4.766-10.656-10.672C149.516,300.796,150.937,297.905,153.187,295.952z"/>
	<path style="fill:#FFCE54;" d="M266.654,303.999c0,5.906-4.766,10.672-10.656,10.672c-5.89,0-10.672-4.766-10.672-10.672
		c0-5.891,4.781-10.656,10.672-10.656C261.889,293.343,266.654,298.108,266.654,303.999z"/>
</g>
<path style="fill:#ED5564;" d="M502.119,133.314l-128.561-9.609c-2.906-0.219-5.781,0.766-7.938,2.719
	c-2.172,1.953-3.438,4.703-3.516,7.625l-0.781,28.546c-0.172,5.75,4.266,10.578,10,10.937l127.686,7.891
	c0.219,0.016,0.438,0.016,0.656,0.016c5.594,0,10.297-4.359,10.641-10l1.672-26.827
	C512.338,138.783,507.947,133.736,502.119,133.314z"/>
<path style="fill:#CCD1D9;" d="M373.793,120.736c-0.25-0.016-24.906-1.062-63.264-1.062c-44.703,0-88.843,1.359-131.186,4.062
	c-56.952,3.641-82.545,7.422-112.201,11.797c-8.797,1.297-17.891,2.641-28.203,4.031c-2.688,0.359-5.125,1.719-6.828,3.812
	L2.409,179.75c-2.891,3.531-3.203,8.5-0.812,12.359c1.969,3.188,5.438,5.062,9.062,5.062c0.797,0,1.578-0.094,2.375-0.266
	c0.641-0.156,65.233-14.609,169.622-21.281c35.156-2.234,71.671-3.375,108.53-3.375c48.812,0,81.139,2.047,81.451,2.062
	c2.953,0.188,5.828-0.844,7.984-2.859s3.375-4.828,3.375-7.781V131.39C383.996,125.689,379.496,120.986,373.793,120.736z"/>
<path style="opacity:0.2;fill:#FFFFFF;enable-background:new    ;" d="M373.793,120.736c-0.25-0.016-24.906-1.062-63.264-1.062
	c-44.703,0-88.843,1.359-131.186,4.062c-56.952,3.641-82.545,7.422-112.201,11.797c-8.797,1.297-17.891,2.641-28.203,4.031
	c-2.688,0.359-5.125,1.719-6.828,3.812L2.409,179.75c-2.812,3.438-3.188,8.25-0.969,12.078c0.281-0.484,0.594-0.969,0.969-1.406
	l29.703-36.375c1.703-2.094,4.141-3.468,6.828-3.828c10.312-1.391,19.406-2.719,28.203-4.031
	c29.656-4.375,55.249-8.156,112.201-11.781c42.343-2.703,86.483-4.078,131.186-4.078c38.357,0,63.014,1.062,63.264,1.078
	c5.703,0.25,10.203,4.938,10.203,10.656v-10.672C383.996,125.689,379.496,120.986,373.793,120.736z"/>
<g>
	<path style="fill:#DA4453;" d="M373.324,182.672c-5.891,0-10.672-4.781-10.672-10.672v-49.327c0-5.891,4.781-10.672,10.672-10.672
		s10.672,4.781,10.672,10.672V172C383.996,177.891,379.215,182.672,373.324,182.672z"/>
	<polygon style="fill:#DA4453;" points="405.324,175.625 426.652,176.954 426.652,127.673 405.324,126.08 	"/>
	<polygon style="fill:#DA4453;" points="447.995,178.266 469.322,179.579 469.322,130.861 447.995,129.267 	"/>
</g>
</svg>