<?xml version="1.0" encoding="iso-8859-1"?>
<!-- Uploaded to: SVG Repo, www.svgrepo.com, Generator: SVG Repo Mixer Tools -->
<svg height="800px" width="800px" version="1.1" id="Layer_1" xmlns="http://www.w3.org/2000/svg" xmlns:xlink="http://www.w3.org/1999/xlink" 
	 viewBox="0 0 511.993 511.993" xml:space="preserve">
<path style="fill:#FC6E51;" d="M498.055,0.514l-66.765,21.5c-2.437,0.797-4.515,2.422-5.843,4.625l-34.39,56.592l-38.516,38.515
	c-2,2-3.125,4.703-3.125,7.531c0,2.828,1.125,5.547,3.125,7.547l22.625,22.625c2,2,4.719,3.125,7.547,3.125s5.547-1.125,7.547-3.125
	l38.484-38.484L484.18,87.7c0.75-0.453,1.453-1,2.062-1.609c1.156-1.156,2.047-2.594,2.578-4.172l22.625-67.874
	c1.266-3.812,0.281-8.016-2.547-10.875S501.883-0.721,498.055,0.514z"/>
<polygon style="fill:#E9573F;" points="379.494,170.198 427.963,121.746 390.244,84.028 341.792,132.496 "/>
<path style="fill:#434A54;" d="M267.348,320.306c-1.938,1.938-4.594,3.125-7.547,3.125h-30.405c-5.891,0-10.656-4.766-10.656-10.656
	s4.766-10.672,10.656-10.672h30.405c5.891,0,10.672,4.781,10.672,10.672C270.473,315.712,269.269,318.384,267.348,320.306z"/>
<path style="fill:#656D78;" d="M230.161,302.134c-3.094-0.219-6.109,0.906-8.297,3.094l-22.64,22.625
	c-3.75,3.749-4.172,9.702-0.984,13.937l45.249,60.343c1.859,2.469,4.703,4.016,7.781,4.234s6.109-0.906,8.296-3.094l22.617-22.625
	c3.766-3.75,4.188-9.688,1-13.938l-45.257-60.342C236.082,303.899,233.239,302.352,230.161,302.134z"/>
<path style="fill:#434A54;" d="M199.224,282.602L199.224,282.602l-15.078,15.078c-4.172,4.172-10.921,4.172-15.078,0
	c-4.172-4.156-4.172-10.922,0-15.078l0,0l15.078-15.094c4.172-4.156,10.922-4.156,15.078,0
	C203.396,271.681,203.396,278.431,199.224,282.602z"/>
<path style="fill:#8CC153;" d="M356.307,114.84c-2.828,0-5.531,1.125-7.531,3.125L41.773,424.975L5.181,446.929
	c-2.812,1.688-4.688,4.577-5.094,7.843c-0.406,3.25,0.719,6.516,3.047,8.844l45.249,45.249c2.328,2.328,5.594,3.453,8.844,3.047
	c2.391-0.297,4.578-1.375,6.25-3.047c0.609-0.609,1.141-1.297,1.594-2.047l21.953-36.593l307.002-307.01
	c4.156-4.156,4.156-10.906,0-15.078l-30.172-30.172C361.853,115.965,359.135,114.84,356.307,114.84z"/>
<polygon style="opacity:0.1;enable-background:new    ;" points="169.068,388.194 184.146,373.1 138.897,327.852 123.804,342.945 
	"/>
<polygon style="opacity:0.1;enable-background:new    ;" points="138.897,418.366 153.975,403.272 108.726,358.023 93.632,373.1 "/>
<polygon style="opacity:0.1;enable-background:new    ;" points="108.726,448.538 123.804,433.444 78.554,388.194 63.476,403.272 
	"/>
<path style="fill:#A0D468;" d="M40.618,425.679l-35.437,21.25c-2.812,1.688-4.688,4.577-5.094,7.843
	c-0.406,3.25,0.719,6.516,3.047,8.844l45.249,45.249c2.328,2.328,5.594,3.453,8.844,3.047c2.391-0.297,4.578-1.375,6.25-3.047
	c0.609-0.609,1.141-1.297,1.594-2.047l21.264-35.422L40.618,425.679z"/>
</svg>