<?xml version="1.0" encoding="iso-8859-1"?>
<!-- Uploaded to: SVG Repo, www.svgrepo.com, Generator: SVG Repo Mixer Tools -->
<svg height="800px" width="800px" version="1.1" id="Layer_1" xmlns="http://www.w3.org/2000/svg" xmlns:xlink="http://www.w3.org/1999/xlink" 
	 viewBox="0 0 511.993 511.993" xml:space="preserve">
<g>
	<path style="fill:#434A54;" d="M447.993,255.996h-21.343c-17.625,0-32,14.343-32,32v170.652c0,17.656,14.375,32,32,32h21.343
		c17.655,0,31.999-14.344,31.999-32V287.996C479.992,270.34,465.648,255.996,447.993,255.996z"/>
	<path style="fill:#434A54;" d="M85.335,255.996H64c-17.641,0-32,14.343-32,32v170.652c0,17.656,14.359,32,32,32h21.335
		c17.641,0,32-14.344,32-32V287.996C117.335,270.34,102.975,255.996,85.335,255.996z"/>
</g>
<g>
	<path style="fill:#ED5564;" d="M106.663,298.652l10.672,2.312v-12.968c0-17.656-14.359-32-32-32H64c-17.641,0-32,14.343-32,32
		v60.436L106.663,298.652z"/>
	<path style="fill:#ED5564;" d="M405.339,298.652l-10.688,2.312v-12.968c0-17.656,14.375-32,32-32h21.343
		c17.655,0,31.999,14.343,31.999,32v60.436L405.339,298.652z"/>
</g>
<path style="fill:#434A54;" d="M202.677,64.015c-0.844,0-1.703-0.094-2.562-0.312c-5.719-1.406-9.211-7.203-7.812-12.921
	c0.32-1.312,3.398-13.125,12.414-25.171C217.247,8.844,234.981,0,255.996,0c21.016,0,38.75,8.844,51.281,25.609
	c9.016,12.047,12.093,23.859,12.405,25.171c1.406,5.718-2.093,11.5-7.812,12.906c-5.719,1.406-11.5-2.094-12.906-7.812
	c-0.344-1.375-9.219-34.546-42.969-34.546c-33.741,0-42.624,33.171-42.983,34.593C211.817,60.781,207.466,64.015,202.677,64.015z"/>
<path style="fill:#CCD1D9;" d="M405.339,95.999H106.663c-5.891,0-10.664,4.766-10.664,10.656V440.9
	c0,5.875,4.773,10.654,10.664,10.654h298.675c5.875,0,10.656-4.779,10.656-10.654V106.655
	C415.994,100.765,411.214,95.999,405.339,95.999z"/>
<path style="fill:#DA4453;" d="M394.65,341.338H117.335c-17.648,0-32,14.344-32,32v106.654c0,17.656,14.352,32,32,32H394.65
	c17.656,0,32-14.344,32-32V373.338C426.65,355.682,412.307,341.338,394.65,341.338z"/>
<path style="fill:#434A54;" d="M373.339,447.994c-5.906,0-10.688-4.781-10.688-10.656v-21.344c0-5.906,4.781-10.656,10.688-10.656
	c5.875,0,10.656,4.75,10.656,10.656v21.344C383.994,443.213,379.214,447.994,373.339,447.994z"/>
<g>
	<path style="opacity:0.1;fill:#080808;enable-background:new    ;" d="M362.65,490.211c-5.875,0-10.656,4.781-10.656,10.688v10.656
		c0,0.156,0.016,0.281,0.031,0.438h21.281c0-0.156,0.031-0.281,0.031-0.438v-10.656C373.339,494.992,368.557,490.211,362.65,490.211
		z"/>
	<path style="opacity:0.1;fill:#080808;enable-background:new    ;" d="M319.995,490.211c-5.89,0-10.655,4.781-10.655,10.688v10.656
		c0,0.156,0,0.281,0.016,0.438h21.296c0-0.156,0-0.281,0-0.438v-10.656C330.651,494.992,325.887,490.211,319.995,490.211z"/>
	<path style="opacity:0.1;fill:#080808;enable-background:new    ;" d="M277.34,490.211c-5.898,0-10.68,4.781-10.68,10.688v10.656
		c0,0.156,0.016,0.281,0.023,0.438h21.281c0.016-0.156,0.031-0.281,0.031-0.438v-10.656
		C287.996,494.992,283.215,490.211,277.34,490.211z"/>
	<path style="opacity:0.1;fill:#080808;enable-background:new    ;" d="M234.661,490.211c-5.891,0-10.664,4.781-10.664,10.688
		v10.656c0,0.156,0.016,0.281,0.023,0.438h21.288c0.008-0.156,0.023-0.281,0.023-0.438v-10.656
		C245.332,494.992,240.551,490.211,234.661,490.211z"/>
	<path style="opacity:0.1;fill:#080808;enable-background:new    ;" d="M191.997,490.211c-5.891,0-10.664,4.781-10.664,10.688
		v10.656c0,0.156,0.016,0.281,0.023,0.438h21.289c0-0.156,0.016-0.281,0.016-0.438v-10.656
		C202.661,494.992,197.888,490.211,191.997,490.211z"/>
	<path style="opacity:0.1;fill:#080808;enable-background:new    ;" d="M149.334,490.211c-5.891,0-10.672,4.781-10.672,10.688
		v10.656c0,0.156,0.016,0.281,0.023,0.438h21.289c0.008-0.156,0.023-0.281,0.023-0.438v-10.656
		C159.998,494.992,155.225,490.211,149.334,490.211z"/>
</g>
<g>
	<path style="fill:#434A54;" d="M191.997,255.996h-42.663c-5.891,0-10.672,4.765-10.672,10.656v32c0,4.062,2.289,7.75,5.898,9.562
		l21.336,10.656c1.5,0.75,3.133,1.125,4.766,1.125c1.641,0,3.273-0.375,4.773-1.125l21.335-10.656
		c3.609-1.812,5.891-5.5,5.891-9.562v-32C202.661,260.762,197.888,255.996,191.997,255.996z"/>
	<path style="fill:#434A54;" d="M362.65,255.996h-42.655c-5.89,0-10.655,4.765-10.655,10.656v32c0,4.062,2.281,7.75,5.891,9.562
		l21.327,10.656c1.5,0.75,3.141,1.125,4.781,1.125c1.625,0,3.25-0.375,4.749-1.125l21.344-10.656c3.609-1.812,5.906-5.5,5.906-9.562
		v-32C373.339,260.762,368.557,255.996,362.65,255.996z"/>
</g>
<path style="fill:#E6E9ED;" d="M383.994,42.656H127.998c-17.64,0-31.999,14.359-31.999,32v170.669
	c0,17.64,14.359,32.015,31.999,32.015h255.996c17.656,0,32-14.375,32-32.015V74.656C415.994,57.015,401.65,42.656,383.994,42.656z"
	/>
<g>
	<polygon style="fill:#ED5564;" points="319.995,138.655 277.34,138.655 277.34,95.999 234.661,95.999 234.661,138.655 
		191.997,138.655 191.997,181.326 234.661,181.326 234.661,223.996 277.34,223.996 277.34,181.326 319.995,181.326 	"/>
	<path style="fill:#ED5564;" d="M85.335,415.994H426.65v-42.656c0-17.656-14.344-32-32-32H117.335c-17.648,0-32,14.344-32,32
		V415.994z"/>
</g>
<path style="opacity:0.2;fill:#FFFFFF;enable-background:new    ;" d="M298.652,405.338h-85.319c-5.891,0-10.672,4.75-10.672,10.656
	H309.34C309.34,410.088,304.559,405.338,298.652,405.338z"/>
</svg>