<?xml version="1.0" encoding="iso-8859-1"?>
<!-- Uploaded to: SVG Repo, www.svgrepo.com, Generator: SVG Repo Mixer Tools -->
<svg height="800px" width="800px" version="1.1" id="Layer_1" xmlns="http://www.w3.org/2000/svg" xmlns:xlink="http://www.w3.org/1999/xlink" 
	 viewBox="0 0 511.993 511.993" xml:space="preserve">
<path style="fill:#8CC153;" d="M460.304,407.635l-1.812-0.516c-26.469-7.109-35.436-13.953-47.217-18.438
	c-41.828-15.938-52.703-27.406-55.484-32.828c-0.109-0.203-0.172-0.406-0.266-0.609l-0.344-48.576l-99.186-1.125l-99.17,1.125
	l-0.344,48.576c-0.094,0.203-0.172,0.406-0.266,0.609c-2.781,5.422-13.656,16.891-55.483,32.828
	c-11.796,4.484-20.75,11.328-47.233,18.438l-1.812,0.516c-24.109,7.969-40.327,30.328-40.327,55.561v48.797h244.635h244.637v-48.797
	C500.632,437.963,484.429,415.603,460.304,407.635z"/>
<path style="fill:#DBAFA5;" d="M355.79,355.853c-0.109-0.203-0.172-0.406-0.266-0.609l-0.344-48.576l-99.185-1.125l-99.17,1.125
	l-0.344,48.576c-0.094,0.203-0.172,0.406-0.266,0.609c-2.781,5.422,99.78,156.139,99.78,156.139S358.571,361.275,355.79,355.853z"/>
<path style="fill:#EAC6BB;" d="M393.618,212.684c0,89.405-85.248,171.7-137.623,171.7c-52.374,0-137.623-82.295-137.623-171.7
	c0-89.42,61.624-148.419,137.623-148.419C331.993,64.265,393.618,123.264,393.618,212.684z"/>
<path style="fill:#ED5564;" d="M395.727,63.64C383.868,45,367.586,30.172,347.321,19.563C322.556,6.579,291.823,0,255.995,0
	c-35.812,0-66.546,6.578-91.311,19.562c-20.281,10.609-36.562,25.437-48.405,44.077c-20.125,31.595-20.344,63.094-20.344,64.422
	v106.717c0,4.688,3.062,8.828,7.531,10.203c4.484,1.375,9.344-0.344,11.969-4.234l40.155-59.327h200.762l40.203,59.343
	c2.031,2.984,5.375,4.688,8.844,4.688c1.047,0,2.094-0.156,3.125-0.469c4.5-1.375,7.547-5.516,7.547-10.203V128.061
	C416.071,126.733,415.837,95.234,395.727,63.64z"/>
<path style="opacity:0.2;fill:#FFFFFF;enable-background:new    ;" d="M395.727,63.64C383.868,45,367.586,30.172,347.321,19.563
	C322.556,6.579,291.823,0,255.995,0c-35.812,0-66.546,6.578-91.311,19.562c-20.281,10.609-36.562,25.437-48.405,44.077
	c-20.125,31.595-20.344,63.094-20.344,64.422v10.672c0-1.328,0.219-32.828,20.343-64.421c11.843-18.641,28.125-33.468,48.405-44.077
	c24.766-12.985,55.5-19.563,91.312-19.563c35.828,0,66.561,6.578,91.326,19.562c20.266,10.609,36.547,25.437,48.406,44.077
	c20.109,31.593,20.344,63.093,20.344,64.421V128.06C416.071,126.733,415.837,95.234,395.727,63.64z"/>
<path style="fill:#DA4453;" d="M95.935,128.061v10.672h320.136v-10.672c0-0.453-0.016-4.406-0.859-10.672H96.779
	C95.951,123.655,95.935,127.608,95.935,128.061z"/>
<path style="fill:#8CC153;" d="M132.684,277.574c26.484,60.686,84.108,106.811,123.311,106.811
	c39.188,0,96.732-46.031,123.264-106.654c-56.766,4.5-122.389-21.609-122.389-21.609S189.84,282.793,132.684,277.574z"/>
<path style="fill:#656D78;" d="M321.524,384.182c0,0-19.982,21.344-65.592,21.344c-45.593,0-65.624-21.344-65.624-21.344
	l65.687,127.81l70.561-94.232L321.524,384.182z"/>
<g>
	<polygon style="fill:#A0D468;" points="255.995,511.992 156.747,318.715 127.934,388.838 160.512,413.853 154.684,437.869 	"/>
	<polygon style="fill:#A0D468;" points="255.995,511.992 355.259,318.715 383.837,388.838 351.274,413.853 357.087,437.869 	"/>
</g>
</svg>