<?xml version="1.0" encoding="iso-8859-1"?>
<!-- Uploaded to: SVG Repo, www.svgrepo.com, Generator: SVG Repo Mixer Tools -->
<svg height="800px" width="800px" version="1.1" id="Layer_1" xmlns="http://www.w3.org/2000/svg" xmlns:xlink="http://www.w3.org/1999/xlink" 
	 viewBox="0 0 511.993 511.993" xml:space="preserve">
<path style="fill:#ED5564;" d="M393.464,56.937C356.744,20.219,307.934,0,255.996,0C204.059,0,155.247,20.219,118.53,56.937
	c-36.719,36.719-56.937,85.546-56.937,137.467c0,31.968,10.031,68.561,29.812,108.749c15.531,31.592,37.155,65.592,64.249,101.045
	c45.921,60.092,91.108,103.076,93.014,104.873c2.047,1.953,4.688,2.922,7.328,2.922c2.64,0,5.281-0.969,7.328-2.922
	c1.906-1.797,47.094-44.781,93.014-104.873c27.094-35.453,48.719-69.453,64.266-101.045c19.779-40.188,29.795-76.781,29.795-108.749
	C450.398,142.483,430.18,93.656,393.464,56.937z"/>
<path style="opacity:0.2;fill:#FFFFFF;enable-background:new    ;" d="M393.464,56.937C356.744,20.219,307.934,0,255.996,0
	c-3.578,0-7.125,0.109-10.672,0.297c47.922,2.578,92.607,22.453,126.811,56.64c36.719,36.719,56.936,85.546,56.936,137.467
	c0,31.968-10.029,68.561-29.795,108.749c-15.562,31.592-37.172,65.592-64.266,101.045c-39.373,51.529-78.201,90.467-89.686,101.654
	c1.906,1.859,3.062,2.969,3.344,3.219c2.047,1.953,4.688,2.922,7.328,2.922c2.64,0,5.281-0.969,7.328-2.922
	c1.906-1.797,47.094-44.781,93.014-104.873c27.094-35.453,48.719-69.453,64.266-101.045c19.779-40.188,29.795-76.781,29.795-108.749
	C450.398,142.483,430.18,93.656,393.464,56.937z"/>
<path style="fill:#434A54;" d="M308.746,270.449l30.17,30.172c4.172,4.156,10.922,4.156,15.094,0c4.156-4.172,4.156-10.922,0-15.094
	l-30.172-30.171c-4.172-4.156-10.92-4.156-15.092,0C304.59,259.527,304.59,266.277,308.746,270.449z"/>
<path style="fill:#F6BB42;" d="M165.31,101.499l30.265-0.109c2.844-0.016,5.578,1.109,7.578,3.125l135.763,135.763
	c4.172,4.156,4.172,10.922,0,15.078l-30.17,30.171c-4.156,4.172-10.922,4.172-15.078,0L157.904,149.764
	c-2-1.984-3.109-4.688-3.125-7.5l-0.094-30.078C154.654,106.296,159.419,101.515,165.31,101.499z"/>
<path style="fill:#E6E9ED;" d="M285.746,293.449c4.172,4.172,10.922,4.172,15.078,0l45.811-45.812
	c4.172-4.156,4.172-10.906,0-15.078s-10.922-4.172-15.078,0l-45.811,45.812C281.574,282.527,281.574,289.277,285.746,293.449z"/>
<path style="fill:#FFCE54;" d="M173.372,240.09l135.374-135.372c2-2,4.688-3.109,7.516-3.125l30.061-0.109
	c2.828,0,5.547,1.109,7.547,3.109c0.016,0,0.031,0.016,0.031,0.016c2,2,3.109,4.703,3.125,7.515l0.094,30.266
	c0.016,2.844-1.109,5.578-3.109,7.578L218.246,285.73c-4.172,4.172-10.921,4.172-15.093,0l-30.171-30.171l0,0
	c-4.172-4.172-4.172-10.922,0-15.094C173.107,240.34,173.232,240.215,173.372,240.09z"/>
<path style="fill:#434A54;" d="M157.904,300.808c4.156,4.172,10.922,4.172,15.078,0l30.171-30.156
	c4.172-4.172,4.172-10.922,0-15.093c-4.156-4.156-10.922-4.156-15.078,0l-30.171,30.171
	C153.732,289.902,153.732,296.652,157.904,300.808z"/>
<path style="fill:#E6E9ED;" d="M165.076,247.637l45.796,45.812c4.172,4.172,10.922,4.172,15.078,0
	c4.172-4.172,4.172-10.922,0-15.078l-45.796-45.812c-4.171-4.172-10.921-4.172-15.078,0
	C160.904,236.731,160.904,243.481,165.076,247.637z"/>
</svg>