<?xml version="1.0" encoding="iso-8859-1"?>
<!-- Uploaded to: SVG Repo, www.svgrepo.com, Generator: SVG Repo Mixer Tools -->
<svg height="800px" width="800px" version="1.1" id="Layer_1" xmlns="http://www.w3.org/2000/svg" xmlns:xlink="http://www.w3.org/1999/xlink" 
	 viewBox="0 0 511.992 511.992" xml:space="preserve">
<path style="fill:#A0D468;" d="M501.336,255.996c0,135.498-109.842,245.339-245.34,245.339
	c-135.49,0.001-245.332-109.841-245.332-245.339c0-135.482,109.842-245.324,245.332-245.324
	C391.494,10.672,501.336,120.514,501.336,255.996z"/>
<path style="fill:#434A54;" d="M255.996,511.992c-34.554,0-68.085-6.766-99.647-20.109c-30.484-12.891-57.866-31.359-81.366-54.857
	c-23.507-23.516-41.968-50.891-54.858-81.375C6.774,324.09,0,290.558,0,255.996c0-34.547,6.773-68.077,20.125-99.639
	c12.891-30.484,31.351-57.858,54.858-81.373c23.5-23.5,50.882-41.952,81.366-54.858C187.911,6.782,221.442,0,255.996,0
	c34.562,0,68.092,6.781,99.654,20.125c30.469,12.906,57.859,31.359,81.373,54.858c23.5,23.515,41.953,50.89,54.844,81.374
	c13.344,31.562,20.125,65.092,20.125,99.639c0,34.562-6.781,68.093-20.125,99.654c-12.891,30.484-31.344,57.859-54.844,81.375
	c-23.514,23.498-50.904,41.967-81.373,54.857C324.088,505.226,290.558,511.992,255.996,511.992z M255.996,21.344
	c-62.679,0-121.607,24.406-165.935,68.733c-44.319,44.312-68.725,103.249-68.725,165.919c0,62.687,24.406,121.623,68.726,165.935
	c44.327,44.326,103.256,68.732,165.935,68.732c62.686,0,121.607-24.406,165.936-68.732c44.311-44.312,68.717-103.248,68.717-165.935
	c0-62.671-24.406-121.607-68.717-165.919C377.603,45.75,318.682,21.344,255.996,21.344z"/>
<path style="fill:#8CC153;" d="M435.398,121.842l-15.248,15.266c24.998,34.358,38.498,75.592,38.498,118.889
	c0,54.14-21.062,105.029-59.342,143.31c-38.281,38.281-89.186,59.357-143.311,59.357c-54.132,0-105.029-21.076-143.302-59.357
	c-38.28-38.282-59.358-89.17-59.358-143.311c0-54.124,21.078-105.014,59.358-143.295c38.273-38.28,89.17-59.358,143.302-59.358
	c50.562,0,98.295,18.39,135.561,52.015l-37.781,37.781c-27.141-23.594-61.467-36.468-97.779-36.468
	c-39.89,0-77.389,15.531-105.592,43.734c-28.203,28.218-43.742,65.717-43.742,105.592c0,39.89,15.539,77.388,43.742,105.607
	c28.203,28.203,65.702,43.734,105.592,43.734c39.891,0,77.389-15.531,105.592-43.734c28.203-28.219,43.75-65.717,43.75-105.607
	c0-28.984-8.219-56.718-23.547-80.53l-15.562,15.562c11.281,19.062,17.766,41.265,17.766,64.968
	c0,70.593-57.422,127.998-127.998,127.998c-70.577,0-127.998-57.404-127.998-127.998c0-70.577,57.421-127.998,127.998-127.998
	c31.469,0,60.297,11.422,82.607,30.312l-45.545,45.546c-10.469-7.453-23.258-11.859-37.062-11.859
	c-35.289,0-63.999,28.718-63.999,63.999c0,35.296,28.71,64,63.999,64c35.281,0,63.998-28.703,63.998-64
	c0-5.719-0.75-11.266-2.186-16.562l-19.25,19.25c-1.375,22.281-19.938,39.984-42.562,39.984c-23.523,0-42.664-19.141-42.664-42.671
	c0-23.516,19.141-42.656,42.664-42.656c7.898,0,15.305,2.156,21.656,5.922l-29.195,29.203c-4.172,4.156-4.172,10.921,0,15.078
	c2.078,2.078,4.812,3.125,7.539,3.125s5.461-1.047,7.539-3.125l150.85-150.841c4.172-4.171,4.172-10.921,0-15.093l0,0
	C372.088,55.312,315.84,32,255.996,32c-59.835,0-116.084,23.312-158.388,65.608C55.296,139.92,32,196.169,32,255.996
	c0,59.843,23.296,116.091,65.608,158.404c42.304,42.295,98.553,65.592,158.388,65.592c59.844,0,116.092-23.297,158.389-65.592
	c42.311-42.312,65.607-98.561,65.607-158.404C479.992,206.981,464.336,160.357,435.398,121.842z"/>
</svg>