<?xml version="1.0" encoding="iso-8859-1"?>
<!-- Uploaded to: SVG Repo, www.svgrepo.com, Generator: SVG Repo Mixer Tools -->
<svg height="800px" width="800px" version="1.1" id="Layer_1" xmlns="http://www.w3.org/2000/svg" xmlns:xlink="http://www.w3.org/1999/xlink" 
	 viewBox="0 0 511.992 511.992" xml:space="preserve">
<path style="fill:#FFD2A6;" d="M453.416,193.435c-5.047-3.016-11.609-1.391-14.641,3.672L282.716,457.195l58.28-241.448
	c1.391-5.719-2.125-11.484-7.844-12.859c-5.734-1.391-11.5,2.141-12.875,7.859l-64.288,266.276l-64.265-266.276
	c-1.391-5.718-7.141-9.25-12.859-7.859c-5.734,1.375-9.25,7.14-7.875,12.859l58.28,241.448L73.211,197.107
	c-3.031-5.062-9.578-6.688-14.625-3.672c-5.062,3.031-6.688,9.594-3.656,14.64l182.34,303.917h37.445L457.07,208.075
	C460.102,203.029,458.462,196.466,453.416,193.435z"/>
<path style="fill:#A0D468;" d="M399.214,58.421C361.058,20.75,310.2,0,255.99,0c-54.187,0-105.045,20.75-143.201,58.421
	c-38.296,37.812-59.39,88.405-59.39,142.436v1.734c0,4.531,2.891,8.578,7.188,10.078c4.281,1.484,9.062,0.078,11.859-3.484
	c13.234-16.828,21.25-22.812,39.828-22.812c26.234,0,49.64,12.469,59.624,31.765c1.812,3.546,5.469,5.781,9.468,5.781
	c3.969,0,7.625-2.234,9.469-5.781c8.156-15.781,33.156-31.765,65.155-31.765c32.007,0,57.023,15.984,65.178,31.765
	c1.828,3.546,5.484,5.781,9.484,5.781c3.969,0,7.625-2.234,9.469-5.781c9.968-19.296,33.374-31.765,59.624-31.765
	c18.562,0,26.562,5.984,39.812,22.812c2.812,3.562,7.562,4.969,11.859,3.484c4.297-1.5,7.171-5.547,7.171-10.078v-1.734
	C458.587,146.827,437.494,96.233,399.214,58.421z"/>
<path style="opacity:0.2;fill:#FFFFFF;enable-background:new    ;" d="M399.214,58.421C361.058,20.75,310.2,0,255.99,0
	c-54.187,0-105.045,20.75-143.201,58.421c-38.296,37.812-59.39,88.405-59.39,142.436v1.734c0,1.25,0.234,2.453,0.641,3.578
	c3.734-47.953,24.265-92.374,58.749-126.42c38.156-37.671,89.014-58.421,143.201-58.421c54.21,0,105.068,20.75,143.224,58.421
	c34.483,34.046,54.999,78.467,58.748,126.42c0.406-1.125,0.625-2.328,0.625-3.578v-1.734
	C458.587,146.827,437.494,96.233,399.214,58.421z"/>
<path style="fill:#ED5564;" d="M298.653,383.853h-85.304c-5.89,0-10.671,4.766-10.671,10.656v106.623
	c0,5.891,4.781,10.672,10.671,10.672h85.304c5.891,0,10.656-4.781,10.656-10.672V394.51
	C309.309,388.619,304.544,383.853,298.653,383.853z"/>
<g>
	<path style="fill:#434A54;" d="M287.997,458.492c-5.891,0-10.672,4.766-10.672,10.656s4.781,10.656,10.672,10.656h21.312v-21.312
		H287.997z"/>
	<path style="fill:#434A54;" d="M287.997,415.838c-5.891,0-10.672,4.766-10.672,10.656s4.781,10.672,10.672,10.672h21.312v-21.328
		H287.997z"/>
	<path style="fill:#434A54;" d="M224.006,437.166c5.891,0,10.672-4.781,10.672-10.672s-4.781-10.656-10.672-10.656h-21.328v21.328
		H224.006z"/>
	<path style="fill:#434A54;" d="M224.006,479.805c5.891,0,10.672-4.766,10.672-10.656s-4.781-10.656-10.672-10.656h-21.328v21.312
		H224.006z"/>
</g>
</svg>