<?xml version="1.0" encoding="iso-8859-1"?>
<!-- Uploaded to: SVG Repo, www.svgrepo.com, Generator: SVG Repo Mixer Tools -->
<svg version="1.1" id="Layer_1" xmlns="http://www.w3.org/2000/svg" xmlns:xlink="http://www.w3.org/1999/xlink" 
	 viewBox="0 0 511.992 511.992" xml:space="preserve">
<path style="fill:#ED5564;" d="M197.34,0c-14.703,0-26.671,11.953-26.671,26.656v175.997c0,5.89,4.781,10.671,10.671,10.671h32
	c5.891,0,10.656-4.781,10.656-10.671V26.657C223.997,11.954,212.044,0,197.34,0z"/>
<path style="fill:#434A54;" d="M197.34,0c-14.703,0-26.671,11.953-26.671,26.656v26.671h53.327v-26.67
	C223.997,11.954,212.044,0,197.34,0z"/>
<path style="opacity:0.1;fill:#FFFFFF;enable-background:new    ;" d="M197.34,0c-1.828,0-3.609,0.172-5.344,0.531
	C204.153,3,213.34,13.781,213.34,26.656v175.997c0,5.89-4.781,10.671-10.672,10.671h10.672c5.891,0,10.656-4.781,10.656-10.671
	V26.657C223.997,11.954,212.044,0,197.34,0z"/>
<path style="fill:#AAB2BC;" d="M309.339,213.325c-5.906,0-10.688-4.781-10.688-10.671v-32c0-5.89,4.781-10.656,10.688-10.656
	c5.875,0,10.655,4.766,10.655,10.656v32C319.994,208.544,315.214,213.325,309.339,213.325z"/>
<path style="fill:#CCD1D9;" d="M319.994,181.326h-21.343c-5.875,0-10.656-4.781-10.656-10.672c0-5.89,4.781-10.656,10.656-10.656
	h21.343c5.891,0,10.656,4.766,10.656,10.656S325.885,181.326,319.994,181.326z"/>
<path style="fill:#656D78;" d="M330.65,191.997H181.34c-17.655,0-31.999,14.344-31.999,31.999v255.996c0,17.656,14.344,32,31.999,32
	h149.311c17.655,0,31.999-14.344,31.999-32V223.996C362.649,206.341,348.306,191.997,330.65,191.997z"/>
<path style="opacity:0.1;fill:#FFFFFF;enable-background:new    ;" d="M330.65,191.997h-10.656
	c17.656,0,31.999,14.344,31.999,31.999v255.996c0,17.656-14.343,32-31.999,32h10.656c17.655,0,31.999-14.344,31.999-32V223.996
	C362.649,206.341,348.306,191.997,330.65,191.997z"/>
<g>
	<path style="fill:#AAB2BC;" d="M223.997,469.336c0,5.875-4.766,10.656-10.656,10.656s-10.672-4.781-10.672-10.656
		c0-5.906,4.781-10.688,10.672-10.688S223.997,463.43,223.997,469.336z"/>
	<path style="fill:#AAB2BC;" d="M266.667,469.336c0,5.875-4.781,10.656-10.672,10.656c-5.891,0-10.656-4.781-10.656-10.656
		c0-5.906,4.766-10.688,10.656-10.688S266.667,463.43,266.667,469.336z"/>
	<path style="fill:#AAB2BC;" d="M309.339,469.336c0,5.875-4.781,10.656-10.688,10.656c-5.875,0-10.656-4.781-10.656-10.656
		c0-5.906,4.781-10.688,10.656-10.688C304.557,458.648,309.339,463.43,309.339,469.336z"/>
</g>
<g>
	<path style="fill:#434A54;" d="M319.994,266.652H191.997c-5.891,0-10.656-4.766-10.656-10.656c0-5.906,4.766-10.672,10.656-10.672
		h127.998c5.891,0,10.656,4.766,10.656,10.672C330.65,261.887,325.885,266.652,319.994,266.652z"/>
	<path style="fill:#434A54;" d="M319.994,309.34H191.997c-5.891,0-10.656-4.781-10.656-10.688c0-5.875,4.766-10.656,10.656-10.656
		h127.998c5.891,0,10.656,4.781,10.656,10.656C330.65,304.558,325.885,309.34,319.994,309.34z"/>
	<path style="fill:#434A54;" d="M319.994,351.994H191.997c-5.891,0-10.656-4.781-10.656-10.656c0-5.906,4.766-10.686,10.656-10.686
		h127.998c5.891,0,10.656,4.779,10.656,10.686C330.65,347.213,325.885,351.994,319.994,351.994z"/>
</g>
<rect x="181.335" y="374.646" style="fill:#A0D468;" width="149.31" height="61.34"/>
</svg>