<?xml version="1.0" encoding="iso-8859-1"?>
<!-- Uploaded to: SVG Repo, www.svgrepo.com, Generator: SVG Repo Mixer Tools -->
<svg height="800px" width="800px" version="1.1" id="Layer_1" xmlns="http://www.w3.org/2000/svg" xmlns:xlink="http://www.w3.org/1999/xlink" 
	 viewBox="0 0 511.992 511.992" xml:space="preserve">
<path style="fill:#ED5564;" d="M383.993,0H127.997c-5.89,0-10.671,4.773-10.671,10.664v405.33c0,3.562,1.781,6.906,4.75,8.875
	l127.998,85.342c1.797,1.188,3.859,1.781,5.922,1.781c2.063,0,4.125-0.594,5.922-1.781l127.998-85.342
	c2.969-1.969,4.75-5.312,4.75-8.875V10.664C394.665,4.774,389.884,0,383.993,0z"/>
<g>
	<polygon style="fill:#FFCE54;" points="394.618,117.334 255.995,202.662 117.372,117.334 117.372,181.333 255.995,266.66 
		394.618,181.333 	"/>
	<polygon style="fill:#FFCE54;" points="394.618,10.664 255.995,95.999 117.372,10.664 117.372,74.663 255.995,159.998 
		394.618,74.663 	"/>
	<polygon style="fill:#FFCE54;" points="394.618,223.996 255.995,309.34 117.372,223.996 117.372,287.996 255.995,373.338 
		394.618,287.996 	"/>
	<path style="fill:#FFCE54;" d="M277.323,437.338c0,11.779-9.547,21.311-21.328,21.311s-21.328-9.531-21.328-21.311
		c0-11.781,9.546-21.344,21.328-21.344C267.777,415.994,277.323,425.557,277.323,437.338z"/>
</g>
<path style="opacity:0.2;fill:#FFFFFF;enable-background:new    ;" d="M383.993,0h-21.328c5.891,0,10.656,4.773,10.656,10.664
	v405.33c0,3.562-1.781,6.906-4.75,8.875l-123.248,82.154l4.75,3.188c1.797,1.188,3.859,1.781,5.922,1.781s4.125-0.594,5.922-1.781
	l127.998-85.342c2.969-1.969,4.75-5.312,4.75-8.875V10.664C394.665,4.774,389.884,0,383.993,0z"/>
</svg>