<?xml version="1.0" encoding="iso-8859-1"?>
<!-- Uploaded to: SVG Repo, www.svgrepo.com, Generator: SVG Repo Mixer Tools -->
<svg version="1.1" id="Layer_1" xmlns="http://www.w3.org/2000/svg" xmlns:xlink="http://www.w3.org/1999/xlink" 
	 viewBox="0 0 511.992 511.992" xml:space="preserve">
<g>
	<path style="fill:#F6BB42;" d="M159.982,362.65c-4.812,0-9.188-3.281-10.359-8.172c-1.375-5.734,2.156-11.484,7.891-12.859
		c16.125-3.875,41.562-12.092,48.108-18.342c2.859-4.312,5-24.031,6.281-35.844c1.188-10.938,2.406-22.234,4.359-30.922
		c1.203-5.406,4.875-21.859,18.391-21.859c5.89,0,10.671,4.781,10.671,10.672c0,4.438-2.703,8.234-6.562,9.844
		c-2.531,5.828-4.468,23.609-5.655,34.562c-2.734,25.203-4.797,41.016-12.234,48.467c-12.719,12.719-50.874,22.359-58.39,24.156
		C161.639,362.557,160.81,362.65,159.982,362.65z"/>
	<path style="fill:#F6BB42;" d="M159.998,362.65c-0.812,0-1.656-0.094-2.484-0.297c-7.531-1.797-45.671-11.438-58.39-24.156
		c-7.453-7.451-9.5-23.264-12.25-48.467c-1.188-10.953-3.109-28.734-5.656-34.562c-3.844-1.609-6.562-5.406-6.562-9.844
		c0-5.891,4.781-10.672,10.672-10.672c13.516,0,17.203,16.453,18.406,21.859c1.938,8.688,3.172,19.984,4.359,30.922
		c1.281,11.812,3.422,31.531,6.281,35.844c6.5,6.203,32.452,14.576,48.108,18.342c5.734,1.375,9.266,7.125,7.891,12.859
		C169.201,359.369,164.826,362.65,159.998,362.65z"/>
</g>
<path style="fill:#FFCE54;" d="M186.481,371.353l-15.827-84.357V10.656C170.654,4.765,165.888,0,159.998,0
	s-10.672,4.766-10.672,10.656v276.34l-15.812,84.357c-0.594,3.125,0.25,6.344,2.266,8.781c2.031,2.438,5.047,3.859,8.219,3.859h32
	c3.172,0,6.171-1.422,8.202-3.859S187.059,374.478,186.481,371.353z"/>
<path style="fill:#ED5564;" d="M133.326,373.322V485.32c0,14.703,11.969,26.672,26.672,26.672s26.655-11.969,26.655-26.672V373.322
	H133.326z"/>
<g>
	<rect x="133.326" y="447.996" style="fill:#DA4453;" width="53.33" height="21.326"/>
	<rect x="133.326" y="405.326" style="fill:#DA4453;" width="53.33" height="21.328"/>
</g>
<g>
	<path style="fill:#F6BB42;" d="M351.994,149.326c4.828,0,9.203,3.281,10.375,8.172c1.375,5.734-2.156,11.483-7.891,12.858
		c-16.14,3.875-41.576,12.094-48.107,18.344c-2.859,4.312-5,24.031-6.281,35.843c-1.188,10.938-2.406,22.234-4.359,30.922
		c-1.203,5.406-4.891,21.859-18.391,21.859c-5.906,0-10.688-4.781-10.688-10.672c0-4.438,2.719-8.234,6.562-9.844
		c2.547-5.828,4.469-23.609,5.656-34.562c2.75-25.202,4.812-41.015,12.25-48.468c12.719-12.718,50.874-22.358,58.389-24.155
		C350.338,149.42,351.182,149.326,351.994,149.326z"/>
	<path style="fill:#F6BB42;" d="M351.994,149.326c0.812,0,1.656,0.094,2.484,0.297c7.516,1.797,45.672,11.438,58.391,24.155
		c7.438,7.453,9.5,23.266,12.25,48.468c1.188,10.953,3.109,28.734,5.655,34.562c3.844,1.609,6.562,5.406,6.562,9.844
		c0,5.891-4.781,10.672-10.687,10.672c-13.5,0-17.188-16.453-18.391-21.859c-1.953-8.688-3.172-19.984-4.359-30.922
		c-1.281-11.812-3.422-31.53-6.281-35.843c-6.5-6.188-32.453-14.578-48.109-18.344c-5.733-1.375-9.265-7.124-7.89-12.858
		C342.792,152.607,347.166,149.326,351.994,149.326z"/>
</g>
<path style="fill:#FFCE54;" d="M325.511,140.623l15.828,84.357v276.34c0,5.891,4.765,10.672,10.655,10.672
	s10.656-4.781,10.656-10.672V224.98l15.828-84.357c0.578-3.125-0.25-6.344-2.266-8.781c-2.031-2.438-5.047-3.844-8.219-3.844
	h-31.999c-3.172,0-6.188,1.406-8.219,3.844C325.761,134.279,324.933,137.498,325.511,140.623z"/>
<path style="fill:#ED5564;" d="M378.65,138.654V26.656C378.65,11.953,366.697,0,351.994,0c-14.702,0-26.655,11.953-26.655,26.656
	v111.998H378.65z"/>
<g>
	<rect x="325.336" y="42.656" style="fill:#DA4453;" width="53.31" height="21.343"/>
	<rect x="325.336" y="85.326" style="fill:#DA4453;" width="53.31" height="21.328"/>
</g>
</svg>