<?xml version="1.0" encoding="iso-8859-1"?>
<!-- Uploaded to: SVG Repo, www.svgrepo.com, Generator: SVG Repo Mixer Tools -->
<svg version="1.1" id="Layer_1" xmlns="http://www.w3.org/2000/svg" xmlns:xlink="http://www.w3.org/1999/xlink" 
	 viewBox="0 0 511.992 511.992" xml:space="preserve">
<path style="fill:#656D78;" d="M447.993,149.342H426.65c-17.625,0-32,14.359-32,31.999v170.653c0,17.656,14.375,32,32,32h21.343
	c17.64,0,31.999-14.344,31.999-32V181.341C479.992,163.701,465.633,149.342,447.993,149.342z"/>
<path style="fill:#ED5564;" d="M463.992,79.999c-8.843,0-15.999,7.172-15.999,16v85.342h31.999V95.999
	C479.992,87.171,472.836,79.999,463.992,79.999z"/>
<path style="fill:#434A54;" d="M479.992,241.778v-60.437c0-17.64-14.359-31.999-31.999-31.999H426.65c-17.625,0-32,14.359-32,31.999
	v3.547L479.992,241.778z"/>
<path style="fill:#656D78;" d="M85.335,149.342H64c-17.641,0-32,14.359-32,31.999v170.653c0,17.656,14.359,32,32,32h21.335
	c17.641,0,32-14.344,32-32V181.341C117.335,163.701,102.975,149.342,85.335,149.342z"/>
<path style="fill:#FFCE54;" d="M117.335,184.888v-3.547c0-17.64-14.359-31.999-32-31.999H64c-17.641,0-32,14.359-32,31.999v60.437
	L117.335,184.888z"/>
<path style="fill:#434A54;" d="M202.677,64.031c-0.844,0-1.703-0.094-2.562-0.312c-5.719-1.406-9.211-7.203-7.812-12.921
	c0.32-1.312,3.398-13.125,12.414-25.171C217.247,8.86,234.981,0,255.996,0c21.016,0,38.75,8.859,51.281,25.625
	c9.016,12.047,12.093,23.859,12.405,25.171c1.406,5.718-2.093,11.5-7.812,12.906s-11.5-2.094-12.906-7.812
	c-0.344-1.375-9.219-34.546-42.969-34.546c-33.741,0-42.624,33.171-42.983,34.593C211.817,60.796,207.466,64.031,202.677,64.031z"/>
<path style="fill:#8CC153;" d="M405.338,95.999H106.663c-5.891,0-10.664,4.781-10.664,10.672V440.9
	c0,5.891,4.773,10.654,10.664,10.654h298.675c5.875,0,10.656-4.764,10.656-10.654V106.671
	C415.994,100.78,411.213,95.999,405.338,95.999z"/>
<path style="fill:#A0D468;" d="M383.994,42.672H127.998c-17.64,0-31.999,14.359-31.999,32v170.669c0,17.64,14.359,32,31.999,32
	h255.996c17.641,0,32-14.359,32-32V74.671C415.994,57.031,401.635,42.672,383.994,42.672z"/>
<path style="fill:#FFCE54;" d="M138.662,42.672v298.275c0,4,2.227,7.641,5.766,9.484l21.336,11.047
	c1.531,0.797,3.219,1.188,4.898,1.188c1.688,0,3.367-0.391,4.906-1.188l21.335-11.047c3.539-1.844,5.758-5.484,5.758-9.484V42.672
	H138.662z"/>
<rect x="138.666" y="277.336" style="fill:#434A54;" width="63.999" height="32"/>
<path style="fill:#A0D468;" d="M394.65,383.994H117.335c-17.648,0-32,14.359-32,32v63.998c0,17.656,14.352,32,32,32H394.65
	c17.656,0,32-14.344,32-32v-63.998C426.65,398.353,412.307,383.994,394.65,383.994z"/>
<g>
	<path style="fill:#8CC153;" d="M362.65,490.664c-5.875,0-10.656,4.781-10.656,10.672v10.656h21.344v-10.656
		C373.338,495.445,368.557,490.664,362.65,490.664z"/>
	<path style="fill:#8CC153;" d="M319.995,490.664c-5.89,0-10.655,4.781-10.655,10.672v10.656h21.312v-10.656
		C330.651,495.445,325.886,490.664,319.995,490.664z"/>
	<path style="fill:#8CC153;" d="M277.34,490.664c-5.898,0-10.68,4.781-10.68,10.672v10.656h21.336v-10.656
		C287.996,495.445,283.215,490.664,277.34,490.664z"/>
	<path style="fill:#8CC153;" d="M234.661,490.664c-5.891,0-10.664,4.781-10.664,10.672v10.656h21.335v-10.656
		C245.332,495.445,240.551,490.664,234.661,490.664z"/>
	<path style="fill:#8CC153;" d="M191.997,490.664c-5.891,0-10.664,4.781-10.664,10.672v10.656h21.328v-10.656
		C202.661,495.445,197.888,490.664,191.997,490.664z"/>
	<path style="fill:#8CC153;" d="M149.334,490.664c-5.891,0-10.672,4.781-10.672,10.672v10.656h21.336v-10.656
		C159.998,495.445,155.225,490.664,149.334,490.664z"/>
</g>
<path style="fill:#FFCE54;" d="M309.34,42.672v298.275c0,4,2.219,7.641,5.75,9.484l21.343,11.047
	c1.531,0.797,3.219,1.188,4.906,1.188c1.672,0,3.359-0.391,4.89-1.188l21.328-11.047c3.547-1.844,5.781-5.484,5.781-9.484V42.672
	H309.34z"/>
<g>
	<rect x="309.336" y="277.336" style="fill:#434A54;" width="63.998" height="32"/>
	<path style="fill:#434A54;" d="M351.994,415.994c0,5.906,4.781,10.672,10.656,10.672c5.906,0,10.688-4.766,10.688-10.672v-32
		h-21.344V415.994z"/>
</g>
</svg>