<?xml version="1.0" encoding="iso-8859-1"?>
<!-- Uploaded to: SVG Repo, www.svgrepo.com, Generator: SVG Repo Mixer Tools -->
<!DOCTYPE svg PUBLIC "-//W3C//DTD SVG 1.1//EN" "http://www.w3.org/Graphics/SVG/1.1/DTD/svg11.dtd">
<svg height="800px" width="800px" version="1.1" id="Capa_1" xmlns="http://www.w3.org/2000/svg" xmlns:xlink="http://www.w3.org/1999/xlink" 
	 viewBox="0 0 450.031 450.031" xml:space="preserve">
<g>
	<path style="fill:#E6E6E6;" d="M322.503,50.128l25.137,35.906l-15.614-0.23c-13.552-0.209-21.809-14.986-14.892-26.634
		L322.503,50.128z"/>
	<path style="fill:#999999;" d="M347.64,86.033l-41.191,73.978l-3.998-14.348c-5.348-19.182,3.778-39.453,21.684-48.171
		L347.64,86.033z"/>
	<path style="fill:#CCCCCC;" d="M347.64,86.033l-23.505,11.459c-17.906,8.717-27.031,28.988-21.684,48.171l3.998,14.348h-47.574
		h-0.01l-35.958-51.017l41.484-58.856c0,0,0-0.01,0.01-0.01h58.102l-5.369,9.042c-6.917,11.648,1.34,26.424,14.892,26.634
		L347.64,86.033z"/>
	<path style="fill:#EDC148;" d="M249.268,287.319l4.186,43.953l-14.651,38.082l2.56,59.19c0.406,9.382-6.67,17.409-16.029,18.184
		l-39.146,3.241c-10.552,0.874-19.454-7.756-18.908-18.331l13.587-263.005l22.835-32.4l26.655,37.821l5.567,128.605L249.268,287.319
		z"/>
	<path style="fill:#DBAC58;" d="M225.387,50.975l-21.684,30.767l-22.835-32.4V17.488C180.868,7.83,188.698,0,198.356,0h6.689
		c9.32,0,17.002,7.308,17.466,16.616l1.672,33.511L225.387,50.975z"/>
	<path style="fill:#B2863F;" d="M207.284,163.947c-2.241,0-4.097-1.774-4.18-4.031l-4.129-111.661
		c-0.086-2.31,1.718-4.252,4.028-4.338c2.306-0.085,4.252,1.718,4.338,4.029l4.129,111.661c0.086,2.31-1.718,4.252-4.028,4.338
		C207.389,163.946,207.336,163.947,207.284,163.947z"/>
	<path style="fill:#D34A20;" d="M203.703,136.234l-22.835,32.4l-12.192,17.299c-4.992,7.085-14.787,8.78-21.872,3.788
		c-7.085-4.992-8.78-14.787-3.788-21.872l5.526-7.838l35.958-51.017L203.703,136.234z"/>
	<path style="fill:#CCCCCC;" d="M143.016,50.138l41.484,58.856l-35.958,51.017l-18.492-10.633l0.377-9.387
		c0.586-14.494-6.258-28.277-18.146-36.586l-9.89-6.907l3.6-1.957c14.243-7.765,22.835-22.971,22.134-39.181l14.881-5.233
		C143.016,50.128,143.016,50.138,143.016,50.138z"/>
	<path style="fill:#B3B3B3;" d="M112.28,103.405c11.888,8.309,18.732,22.092,18.146,36.586l-0.377,9.387l-27.659-15.896V96.499
		L112.28,103.405z"/>
	<path style="fill:#E6E6E6;" d="M128.124,55.36c0.701,16.21-7.891,31.416-22.134,39.181l-3.6,1.957V64.413L128.124,55.36z"/>
	<path style="fill:#B2863F;" d="M187.742,432.728c-0.073,0-0.146-0.002-0.22-0.006c-2.309-0.119-4.084-2.088-3.964-4.397
		l5.654-109.413c0.12-2.309,2.105-4.084,4.397-3.964c2.309,0.119,4.084,2.088,3.964,4.397l-5.654,109.413
		C191.804,430.993,189.955,432.728,187.742,432.728z"/>
	<path style="fill:#B2863F;" d="M194.331,305.222c-0.073,0-0.146-0.002-0.22-0.006c-2.309-0.119-4.084-2.088-3.964-4.397
		l0.587-11.357c0.119-2.309,2.102-4.085,4.397-3.964c2.309,0.119,4.084,2.088,3.964,4.397l-0.587,11.357
		C198.392,303.487,196.544,305.222,194.331,305.222z"/>
	<path style="fill:#B2863F;" d="M218.809,372.076c-2.241,0-4.097-1.774-4.18-4.031l-0.335-9.061
		c-0.086-2.31,1.718-4.252,4.028-4.338c2.317-0.084,4.252,1.718,4.338,4.028l0.335,9.061c0.086,2.31-1.718,4.252-4.028,4.338
		C218.913,372.075,218.861,372.076,218.809,372.076z"/>
	<path style="fill:#B2863F;" d="M217.803,344.875c-2.241,0-4.097-1.774-4.18-4.031l-4.129-111.661
		c-0.086-2.31,1.718-4.252,4.028-4.338c2.306-0.085,4.252,1.718,4.338,4.029l4.129,111.661c0.086,2.31-1.718,4.252-4.028,4.338
		C217.908,344.874,217.855,344.875,217.803,344.875z"/>
	<path style="fill:#D34A20;" d="M260.602,28.266c7.085,4.992,8.78,14.777,3.799,21.862c-0.01,0-0.01,0.01-0.01,0.01l-41.484,58.856
		l-19.203-27.251l21.684-30.767l13.343-18.921c3.056-4.333,7.912-6.656,12.841-6.656C254.7,25.399,257.85,26.33,260.602,28.266z"/>
	<path style="fill:#F15A24;" d="M203.703,81.743l19.203,27.251l35.958,51.017h0.01l5.515,7.828
		c5.002,7.085,3.307,16.88-3.778,21.872c-7.095,5.002-16.88,3.307-21.882-3.778l-8.372-11.878l-26.655-37.821L184.5,108.994
		l-41.484-58.856c0,0,0-0.01-0.01-0.01c-4.981-7.085-3.286-16.87,3.799-21.862c2.752-1.947,5.913-2.878,9.031-2.878
		c4.929,0,9.785,2.323,12.841,6.656l12.192,17.299L203.703,81.743z"/>
</g>
</svg>