<?xml version="1.0" encoding="iso-8859-1"?>
<!-- Uploaded to: SVG Repo, www.svgrepo.com, Generator: SVG Repo Mixer Tools -->
<!DOCTYPE svg PUBLIC "-//W3C//DTD SVG 1.1//EN" "http://www.w3.org/Graphics/SVG/1.1/DTD/svg11.dtd">
<svg version="1.1" id="Capa_1" xmlns="http://www.w3.org/2000/svg" xmlns:xlink="http://www.w3.org/1999/xlink" 
	 viewBox="0 0 363.2 363.2" xml:space="preserve">
<g>
	<path style="fill:#E6E6E6;" d="M181.6,147.66l-33.95,33.94L61.27,95.22H28.31c-7.82,0-14.9-3.17-20.02-8.29
		C3.17,81.8,0,74.73,0,66.91C0,51.28,12.67,38.6,28.31,38.6H38.6V28.31c0-7.82,3.17-14.89,8.29-20.02C52.01,3.17,59.09,0,66.91,0
		c15.63,0,28.3,12.68,28.3,28.31v32.96L181.6,147.66z"/>
	<path style="fill:#E6E6E6;" d="M354.91,276.28c5.12,5.12,8.29,12.19,8.29,20.01c0,15.64-12.68,28.31-28.31,28.31H324.6v10.29
		c0,7.82-3.17,14.9-8.29,20.02c-5.13,5.12-12.2,8.29-20.02,8.29c-15.63,0-28.31-12.67-28.31-28.31V324.6v-22.67l-86.38-86.38
		l33.94-33.95l86.39,86.39h22.67h10.29C342.71,267.99,349.78,271.16,354.91,276.28z"/>
	<path style="fill:#E6E6E6;" d="M354.91,46.89c5.12,5.13,8.29,12.2,8.29,20.02c0,15.63-12.68,28.31-28.31,28.31H324.6h-22.68
		l-86.38,86.38l-33.94,33.95l-86.39,86.38v22.67v10.29c0,7.82-3.17,14.9-8.29,20.02s-12.2,8.29-20.02,8.29
		c-15.63,0-28.3-12.67-28.3-28.31V324.6H28.3c-7.82,0-14.89-3.17-20.01-8.29S0,304.11,0,296.29c0-15.63,12.67-28.3,28.3-28.3h10.3
		h22.67l86.38-86.39l33.95-33.94l86.38-86.39V38.6V28.31c0-7.82,3.17-14.89,8.29-20.02C281.4,3.17,288.48,0,296.29,0
		c15.63,0,28.31,12.68,28.31,28.31V38.6h10.29C342.7,38.6,349.78,41.77,354.91,46.89z"/>
	
		<rect x="136.287" y="154.165" transform="matrix(0.7072 -0.707 0.707 0.7072 -66.3979 160.2581)" style="fill:#CCCCCC;" width="48.005" height="12.261"/>
	
		<rect x="178.897" y="196.774" transform="matrix(0.7072 -0.707 0.707 0.7072 -84.0475 202.8592)" style="fill:#CCCCCC;" width="48.005" height="12.261"/>
</g>
</svg>