<?xml version="1.0" encoding="iso-8859-1"?>
<!-- Uploaded to: SVG Repo, www.svgrepo.com, Generator: SVG Repo Mixer Tools -->
<!DOCTYPE svg PUBLIC "-//W3C//DTD SVG 1.1//EN" "http://www.w3.org/Graphics/SVG/1.1/DTD/svg11.dtd">
<svg height="800px" width="800px" version="1.1" id="Capa_1" xmlns="http://www.w3.org/2000/svg" xmlns:xlink="http://www.w3.org/1999/xlink" 
	 viewBox="0 0 332.241 332.241" xml:space="preserve">
<g>
	<g id="XMLID_27_">
		<g>
			<path style="fill:#F15A24;" d="M331.924,238.259c0.19,12.08-0.03,24.56-0.75,37.39h-0.07l-45.3,2.74h-0.01l-7.77-35.56
				L331.924,238.259z"/>
			<path style="fill:#F15A24;" d="M93.984,0.319l-4.57,53.9l-35.56-7.77l2.74-45.31v-0.07C69.424,0.349,81.904,0.129,93.984,0.319z"
				/>
			<path style="fill:#E6E6E6;" d="M331.104,275.649h0.07c-0.77,13.67-2.12,27.75-4.14,42.16c-0.52,3.73-2.27,7.05-4.84,9.53
				c-2.56,2.49-5.93,4.15-9.67,4.55c-8.35,0.91-16.04-4.62-17.83-12.83l-8.89-40.67L331.104,275.649z"/>
			<path style="fill:#E6E6E6;" d="M56.594,1.069v0.07l-2.74,45.31l-40.68-8.9c-7.61-1.66-12.93-8.42-12.93-16.06
				c0-0.59,0.04-1.18,0.1-1.78c0.82-7.49,6.63-13.46,14.09-14.5C28.844,3.189,42.924,1.839,56.594,1.069z"/>
			<path style="fill:#E6E6E6;" d="M331.924,238.259l-53.9,4.57l-3.31-15.13c-18.61-85.1-85.08-151.56-170.17-170.17l-15.13-3.31
				l4.57-53.9c62.44,0.99,114.24,13.06,148.84,24.03c30.98,9.83,55.24,34.09,65.06,65.06
				C318.864,124.009,330.934,175.809,331.924,238.259z"/>
		</g>
		<g>
		</g>
	</g>
</g>
</svg>