<?xml version="1.0" encoding="iso-8859-1"?>
<!-- Uploaded to: SVG Repo, www.svgrepo.com, Generator: SVG Repo Mixer Tools -->
<!DOCTYPE svg PUBLIC "-//W3C//DTD SVG 1.1//EN" "http://www.w3.org/Graphics/SVG/1.1/DTD/svg11.dtd">
<svg height="800px" width="800px" version="1.1" id="Capa_1" xmlns="http://www.w3.org/2000/svg" xmlns:xlink="http://www.w3.org/1999/xlink" 
	 viewBox="0 0 436.004 436.004" xml:space="preserve">
<g>
	<g id="XMLID_27_">
		<g>
			<path style="fill:#EDC148;" d="M325.615,107.861c60.83,0,110.14,49.31,110.14,110.14s-49.31,110.14-110.14,110.14h-3.24
				c-62.68,0-123.45-20.25-173.4-57.38c-9.55-7.09-16.05-17.36-18.56-28.76h12.68c13.25,0,24-10.74,24-23.98c0-0.01,0-0.01,0-0.02
				c0-13.26-10.74-24-24-24h-12.68c2.51-11.4,9.01-21.67,18.56-28.76c49.95-37.13,110.72-57.38,173.4-57.38H325.615z"/>
			<path style="fill:#E6E6E6;" d="M167.095,218.001c0,0.01,0,0.01,0,0.02c0,13.24-10.75,23.98-24,23.98h-12.68h-58.54l-16.03,16.03
				l-7.27,7.28c-5.53,5.53-12.77,8.29-20.02,8.29c-7.41,0-14.83-2.89-20.4-8.68c-10.76-11.18-10.18-29.07,0.79-40.04l6.88-6.88
				l-7.28-7.27c-5.53-5.53-8.3-12.78-8.3-20.02c0.01-7.25,2.77-14.49,8.3-20.02c11.05-11.05,28.98-11.06,40.04,0l7.27,7.28
				l16.03,16.03h58.53h12.68C156.355,194.001,167.095,204.741,167.095,218.001z"/>
		</g>
		<g>
		</g>
	</g>
	<g>
		<path style="fill:#AD8F44;" d="M219.245,183.981c-3.545,0-6.499-2.956-6.5-6.5c-0.001-3.546,2.959-6.495,6.5-6.495
			c3.538,0,6.491,2.958,6.5,6.495C225.755,181.015,222.772,183.981,219.245,183.981z"/>
		<path style="fill:#AD8F44;" d="M192.245,242.481c-3.538,0-6.5-2.963-6.5-6.5c0-3.547,2.956-6.495,6.5-6.495
			c3.536,0,6.501,2.954,6.5,6.495C198.744,239.51,195.777,242.481,192.245,242.481z"/>
		<path style="fill:#AD8F44;" d="M240.245,273.981c-5.94,0-8.748-7.722-4.15-11.509c4.545-3.744,11.58,0.292,10.546,6.121
			C246.099,271.652,243.365,273.981,240.245,273.981z"/>
		<path style="fill:#AD8F44;" d="M309.234,212.481c-5.955,0-8.747-7.752-4.119-11.526c4.563-3.72,11.536,0.325,10.52,6.139
			C315.097,210.171,312.365,212.481,309.234,212.481z"/>
		<path style="fill:#AD8F44;" d="M375.234,174.981c-3.542,0-6.501-2.956-6.5-6.5c0.001-3.545,2.959-6.495,6.5-6.495
			c3.538,0,6.499,2.954,6.5,6.495C381.736,172.023,378.774,174.981,375.234,174.981z"/>
		<path style="fill:#AD8F44;" d="M303.234,275.481c-5.984,0-8.705-7.738-4.119-11.527c4.547-3.757,11.537,0.349,10.525,6.139
			C309.104,273.16,306.351,275.481,303.234,275.481z"/>
		<path style="fill:#AD8F44;" d="M391.734,272.481c-5.937,0-8.748-7.724-4.149-11.509c4.544-3.74,11.582,0.292,10.549,6.121
			C397.591,270.154,394.853,272.481,391.734,272.481z"/>
		<path style="fill:#AD8F44;" d="M274.734,308.481c-3.531,0-6.502-2.981-6.5-6.51c0.002-3.532,2.975-6.495,6.504-6.495
			c3.539,0,6.494,2.96,6.496,6.495C281.237,305.509,278.279,308.481,274.734,308.481z"/>
		<path style="fill:#AD8F44;" d="M342.234,315.981c-3.531,0-6.5-2.971-6.5-6.5c0-3.541,2.957-6.505,6.5-6.505
			c3.544,0,6.499,2.964,6.5,6.505C348.735,313.013,345.769,315.981,342.234,315.981z"/>
		<path style="fill:#AD8F44;" d="M253.745,225.981c-3.534,0-6.511-2.96-6.511-6.5c0-3.542,2.972-6.495,6.507-6.495
			c3.533,0,6.504,2.955,6.504,6.495C260.245,223.012,257.275,225.981,253.745,225.981z"/>
		<path style="fill:#AD8F44;" d="M264.245,159.981c-3.536,0-6.512-2.956-6.511-6.5c0.001-3.541,2.977-6.495,6.51-6.495
			c3.539,0,6.489,2.96,6.49,6.495C270.735,157.017,267.787,159.981,264.245,159.981z"/>
		<path style="fill:#AD8F44;" d="M172.745,267.981c-3.535,0-6.499-2.966-6.5-6.5c-0.001-3.54,2.961-6.505,6.5-6.505
			c3.539,0,6.501,2.965,6.5,6.505C179.244,265.014,176.28,267.981,172.745,267.981z"/>
	</g>
</g>
</svg>