<?xml version="1.0" encoding="iso-8859-1"?>
<!-- Uploaded to: SVG Repo, www.svgrepo.com, Generator: SVG Repo Mixer Tools -->
<!DOCTYPE svg PUBLIC "-//W3C//DTD SVG 1.1//EN" "http://www.w3.org/Graphics/SVG/1.1/DTD/svg11.dtd">
<svg height="800px" width="800px" version="1.1" id="Capa_1" xmlns="http://www.w3.org/2000/svg" xmlns:xlink="http://www.w3.org/1999/xlink" 
	 viewBox="0 0 441.423 441.423" xml:space="preserve">
<g>
	<g>
		<g id="XMLID_3_">
			<g>
				<path style="fill:#EDC148;" d="M285.837,203.842l2.78,38.75l-41.61,61.16l-14.21,124.65c-0.76,6.71-6.34,11.84-13.09,12.05
					l-23.72,0.71c-7.27,0.22-13.43-5.32-13.96-12.58l-29.22-397.09l31.47-4.9l53.48-0.38l39.77,9.6l-21.25,186.57L285.837,203.842z"
					/>
				<path style="fill:#D6AB41;" d="M254.077,6.882l23.45,28.93l-39.77-9.6l-53.48,0.38l-31.47,4.9l19.57-26.39
					c2.35-3.17,6.11-4.98,10.05-4.84l62.76,2.19C248.647,2.572,251.897,4.192,254.077,6.882z"/>
			</g>
			<g>
			</g>
		</g>
	</g>
	<g>
		<path style="fill:#B2863F;" d="M189.233,190.642c-2.294,0-4.203-1.807-4.306-4.122l-3.486-78.444
			c-0.106-2.379,1.737-4.394,4.117-4.5c2.404-0.1,4.395,1.738,4.5,4.117l3.486,78.444c0.106,2.379-1.737,4.394-4.117,4.5
			C189.363,190.641,189.298,190.642,189.233,190.642z"/>
		<path style="fill:#B2863F;" d="M206.604,402.527c-2.294,0-4.203-1.807-4.306-4.122l-1.935-43.531
			c-0.106-2.38,1.737-4.395,4.117-4.5c2.406-0.103,4.395,1.738,4.5,4.117l1.935,43.531c0.106,2.38-1.737,4.395-4.117,4.5
			C206.733,402.526,206.668,402.527,206.604,402.527z"/>
		<path style="fill:#B2863F;" d="M203.426,331.017c-2.294,0-4.203-1.807-4.306-4.122l-0.416-9.374
			c-0.106-2.38,1.738-4.394,4.117-4.5c2.408-0.102,4.395,1.738,4.5,4.117l0.416,9.374c0.106,2.38-1.738,4.394-4.117,4.5
			C203.555,331.016,203.49,331.017,203.426,331.017z"/>
		<path style="fill:#B2863F;" d="M231.291,256.951c-0.1,0-0.2-0.003-0.301-0.011c-2.376-0.164-4.17-2.223-4.006-4.599l6.786-98.41
			c0.164-2.376,2.22-4.176,4.6-4.006c2.376,0.164,4.17,2.223,4.006,4.599l-6.786,98.41
			C235.432,255.21,233.538,256.951,231.291,256.951z"/>
		<path style="fill:#B2863F;" d="M239.98,130.955c-0.1,0-0.2-0.003-0.301-0.011c-2.376-0.164-4.17-2.223-4.006-4.599l1.015-14.708
			c0.165-2.376,2.22-4.175,4.6-4.006c2.376,0.164,4.17,2.223,4.006,4.599l-1.015,14.708
			C244.121,129.214,242.227,130.955,239.98,130.955z"/>
		<path style="fill:#B2863F;" d="M213.496,145.357c-2.382,0-4.313-1.931-4.313-4.313V53.71c0-2.382,1.931-4.313,4.313-4.313
			c2.382,0,4.313,1.931,4.313,4.313v87.334C217.809,143.426,215.878,145.357,213.496,145.357z"/>
	</g>
</g>
</svg>