<?xml version="1.0" encoding="iso-8859-1"?>
<!-- Uploaded to: SVG Repo, www.svgrepo.com, Generator: SVG Repo Mixer Tools -->
<!DOCTYPE svg PUBLIC "-//W3C//DTD SVG 1.1//EN" "http://www.w3.org/Graphics/SVG/1.1/DTD/svg11.dtd">
<svg height="800px" width="800px" version="1.1" id="Capa_1" xmlns="http://www.w3.org/2000/svg" xmlns:xlink="http://www.w3.org/1999/xlink" 
	 viewBox="0 0 416.69 416.69" xml:space="preserve">
<g>
	<path style="fill:#EDC148;" d="M230.93,91.623l-4.943-32.563c-0.047-0.306-5.081-31.333-27.158-42.372
		c-2.47-1.235-3.471-4.238-2.235-6.708c1.235-2.471,4.239-3.471,6.708-2.236c11.176,5.588,20.358,16.015,26.556,30.152
		c0.379,0.866,0.736,1.72,1.073,2.56c0.337-0.84,0.694-1.694,1.073-2.56c6.197-14.137,15.38-24.563,26.556-30.152
		c2.471-1.235,5.474-0.233,6.708,2.236c1.235,2.47,0.234,5.473-2.235,6.708C240.86,27.773,235.92,58.748,235.873,59.06
		L230.93,91.623z"/>
	<path style="fill:#4D4D4D;" d="M230.45,302.206v107.27h-85.83v-107.27c0-26.81,18.19-49.36,42.91-56.01
		C212.25,252.836,230.45,275.396,230.45,302.206z"/>
	<polygon style="fill:#B3B3B3;" points="358.82,372.586 377.38,409.476 312.42,409.476 324.8,381.866 	"/>
	<path style="fill:#B3B3B3;" d="M43.31,361.756l10.65,12.65c-3.25,11.69-6.18,23.38-8.79,35.07H0L43.31,361.756z"/>
	<path style="fill:#C69E38;" d="M172.45,244.216c5.22,0,10.27,0.69,15.08,1.98c-24.72,6.65-42.91,29.2-42.91,56.01v107.27h-30.17
		v-107.27C114.45,270.186,140.41,244.216,172.45,244.216z"/>
	<path style="fill:#EDC148;" d="M187.53,246.196c-4.81-1.29-9.86-1.98-15.08-1.98c-32.04,0-58,25.97-58,57.99v107.27H83.52H45.17
		c2.61-11.69,5.54-23.38,8.79-35.07c30.63-109.91,89.88-219.16,176.97-316.1c96.35,107.25,158.63,229.56,185.76,351.17h-39.31
		l-18.56-36.89l-34.02,9.28l-12.38,27.61h-81.97v-107.27C230.45,275.396,212.25,252.836,187.53,246.196z"/>
	<path style="fill:#C69E38;" d="M340.541,351.96c-1.624,0-3.081-1.137-3.423-2.791c-0.915-4.415-1.883-8.929-2.877-13.418
		c-0.418-1.887,0.773-3.756,2.66-4.174c1.892-0.419,3.756,0.773,4.174,2.66c1.001,4.52,1.976,9.066,2.896,13.512
		c0.393,1.893-0.824,3.745-2.717,4.137C341.016,351.936,340.777,351.96,340.541,351.96z"/>
	<path style="fill:#C69E38;" d="M331.157,310.962c-1.567,0-2.993-1.061-3.392-2.65c-14.186-56.575-33.154-111.541-56.381-163.371
		c-0.79-1.764-0.001-3.834,1.763-4.625c1.765-0.791,3.835-0.001,4.626,1.763c23.393,52.203,42.497,107.56,56.781,164.531
		c0.471,1.875-0.668,3.776-2.543,4.246C331.725,310.927,331.439,310.962,331.157,310.962z"/>
	<path style="fill:#C69E38;" d="M153.073,232.007c-0.377,0-0.76-0.062-1.137-0.19c-1.828-0.627-2.801-2.619-2.174-4.447
		c10.42-30.357,22.358-60.273,35.484-88.917c0.806-1.757,2.884-2.529,4.64-1.724c1.758,0.805,2.529,2.882,1.724,4.64
		c-13.029,28.434-24.882,58.133-35.227,88.273C155.885,231.095,154.527,232.007,153.073,232.007z"/>
	<path style="fill:#C69E38;" d="M274.149,380.906c-1.826,0-3.365-1.418-3.488-3.268c-5.705-85.701-15.363-168.025-28.708-244.686
		c-0.331-1.904,0.943-3.717,2.848-4.048c1.906-0.329,3.718,0.943,4.049,2.848c13.387,76.903,23.075,159.475,28.796,245.421
		c0.129,1.929-1.331,3.596-3.26,3.725C274.306,380.904,274.227,380.906,274.149,380.906z"/>
	<path style="fill:#C69E38;" d="M208.226,187.068c-0.17,0-0.343-0.013-0.517-0.038c-1.912-0.283-3.232-2.063-2.949-3.975
		c3.35-22.621,7.036-44.989,10.956-66.483c0.348-1.901,2.17-3.162,4.071-2.815c1.901,0.347,3.162,2.17,2.815,4.071
		c-3.906,21.418-7.58,43.708-10.919,66.252C211.427,185.819,209.933,187.068,208.226,187.068z"/>
	<path style="fill:#C69E38;" d="M203.133,223.58c-0.152,0-0.306-0.01-0.46-0.03c-1.916-0.251-3.267-2.008-3.016-3.925
		c0.373-2.843,0.752-5.682,1.134-8.517c0.259-1.916,2.036-3.258,3.937-3.001c1.916,0.259,3.259,2.021,3.001,3.937
		c-0.382,2.826-0.759,5.656-1.13,8.49C206.368,222.296,204.864,223.58,203.133,223.58z"/>
	<polygon style="fill:#CCCCCC;" points="344.202,376.573 339.35,409.476 377.38,409.476 358.82,372.586 	"/>
</g>
</svg>