<?xml version="1.0" encoding="iso-8859-1"?>
<!-- Uploaded to: SVG Repo, www.svgrepo.com, Generator: SVG Repo Mixer Tools -->
<!DOCTYPE svg PUBLIC "-//W3C//DTD SVG 1.1//EN" "http://www.w3.org/Graphics/SVG/1.1/DTD/svg11.dtd">
<svg version="1.1" id="Capa_1" xmlns="http://www.w3.org/2000/svg" xmlns:xlink="http://www.w3.org/1999/xlink" 
	 viewBox="0 0 462.27 462.27" xml:space="preserve">
<g>
	<rect x="196.456" y="287.77" style="fill:#EDC148;" width="69.35" height="139.23"/>
	<path style="fill:#B2863F;" d="M221.633,420.4c-2.382,0-4.313-1.931-4.313-4.313V367.77c0-2.382,1.931-4.313,4.313-4.313
		s4.313,1.931,4.313,4.313v48.317C225.946,418.469,224.015,420.4,221.633,420.4z"/>
	<path style="fill:#B2863F;" d="M243.962,409.7c-2.242-0.214-3.889-2.226-3.889-4.478v-27.728c0-2.274,1.661-4.323,3.927-4.52
		c2.556-0.222,4.7,1.786,4.7,4.296v28.137C248.699,407.929,246.534,409.945,243.962,409.7z"/>
	<polygon style="fill:#CCCCCC;" points="265.806,427 255.636,462.27 196.456,453 196.456,427 198.136,427 264.136,427 	"/>
	<polygon style="fill:#E6E6E6;" points="265.806,157.71 265.806,296.48 258.186,296.48 234.486,296.48 231.136,121.92 
		221.626,68.23 196.456,0 245.676,44.74 	"/>
	<polygon style="fill:#999999;" points="231.136,121.92 234.486,296.48 204.076,296.48 196.456,296.48 196.456,0 221.626,68.23 	"/>
	<path style="fill:#D34A20;" d="M270.2,362.534c2.931,2.915,2.931,7.656,0,10.587c-1.465,1.465-3.377,2.186-5.297,2.186
		c-1.912,0-3.824-0.721-5.29-2.186l-1.309-1.309l-27.169-27.169l-0.008-0.008l10.587-10.587l0.008,0.008l16.582,16.582
		L270.2,362.534z"/>
	<path style="fill:#D34A20;" d="M231.136,323.454l-10.595,10.595l-16.582-16.59l-11.896-11.896c-2.923-2.923-2.923-7.656,0-10.587
		c1.465-1.45,3.377-2.186,5.297-2.186c1.912,0,3.832,0.737,5.297,2.186l1.301,1.309l5.971,5.971L231.136,323.454z"/>
	<path style="fill:#F15A24;" d="M220.541,334.049l10.595-10.595l21.197-21.197l5.971-5.971l1.309-1.309
		c1.458-1.458,3.377-2.194,5.297-2.194c1.912,0,3.824,0.737,5.29,2.194c2.923,2.931,2.923,7.664,0,10.587l-11.896,11.896
		l-16.59,16.59l-10.587,10.587l-27.169,27.176l-1.309,1.301c-1.465,1.465-3.377,2.194-5.29,2.194c-1.92,0-3.84-0.729-5.297-2.194
		c-2.923-2.923-2.923-7.664,0-10.587l11.896-11.888v-0.008L220.541,334.049z"/>
	<polygon style="fill:#E6E6E6;" points="196.456,427 255.636,462.27 196.456,453 	"/>
</g>
</svg>