<?xml version="1.0" encoding="iso-8859-1"?>
<!-- Uploaded to: SVG Repo, www.svgrepo.com, Generator: SVG Repo Mixer Tools -->
<!DOCTYPE svg PUBLIC "-//W3C//DTD SVG 1.1//EN" "http://www.w3.org/Graphics/SVG/1.1/DTD/svg11.dtd">
<svg version="1.1" id="Capa_1" xmlns="http://www.w3.org/2000/svg" xmlns:xlink="http://www.w3.org/1999/xlink" 
	 viewBox="0 0 457.35 457.35" xml:space="preserve">
<g>
	<path style="fill:#997C3C;" d="M6.507,282.627c-2.27,0-4.475-1.191-5.668-3.31c-1.763-3.127-0.656-7.091,2.472-8.854
		c26.066-14.689,27.527-52.657,27.539-53.039c0.11-3.584,3.1-6.417,6.686-6.303c3.584,0.104,6.407,3.085,6.309,6.67
		c-0.051,1.856-1.62,45.665-34.152,63.997C8.684,282.357,7.588,282.627,6.507,282.627z"/>
	<path style="fill:#AD8F44;" d="M391.83,321.817l-12.96,14.46l-5.45-6.14c-23.32-26.32-37.54-59.46-40.55-94.49l-1.41-16.4
		l-28.12,0.65c-7.51,0.17-14.75-1.49-21.22-4.65l-15.67,48.6c-3.57,11.09-4.34,22.89-2.24,34.35l12.99,70.8h-41.4l-27.5-63.14
		c-0.2-0.46-0.4-0.93-0.58-1.39c-0.41-0.99-0.78-1.98-1.12-2.98c-0.17-0.47-0.32-0.94-0.47-1.42c-0.16-0.48-0.31-0.97-0.45-1.46
		c0-0.01-0.01-0.02-0.01-0.02c-0.13-0.49-0.27-0.97-0.39-1.46c-0.13-0.49-0.25-0.99-0.37-1.48c-0.08-0.35-0.16-0.7-0.23-1.05
		c-0.05-0.24-0.1-0.47-0.15-0.7c-0.18-0.91-0.34-1.81-0.48-2.72c-0.11-0.73-0.21-1.47-0.29-2.2l-1.67,0.2l-15.42,0.8h-0.01l-62,3.24
		l-17.16,0.89c-0.16,0.42-0.32,0.84-0.48,1.26c-0.34,0.84-0.69,1.68-1.06,2.5c-0.08,0.2-0.17,0.39-0.27,0.58
		c-0.13,0.31-0.28,0.62-0.43,0.92c-0.35,0.73-0.72,1.45-1.11,2.17c-0.18,0.33-0.36,0.67-0.55,1c-0.71,1.26-1.47,2.49-2.28,3.71
		c-0.25,0.39-0.51,0.77-0.78,1.14c-0.22,0.33-0.45,0.65-0.69,0.96c-1.13,1.55-2.35,3.06-3.65,4.51
		c-6.88,7.68-10.67,17.62-10.67,27.89c0,0.62,0.01,1.23,0.04,1.84l1.16,26.41H47.92c1.03-9.14,1.55-18.32,1.55-27.49
		c0-20.91-2.68-41.77-8.01-62.08l-8.44-32.16c-12.22-46.56,12-94.96,56.59-113.09l104.75-42.6c12.92-5.26,27.57-4.03,39.43,3.29
		l5.35,3.31c9.62,5.94,21.17,7.92,32.22,5.52c3.08-0.67,6.18-0.99,9.25-0.99c14.58,0,28.46,7.31,36.64,19.87l41.56,63.86
		c9.17,14.07,12.08,31.32,8.05,47.63c-1.76,7.13-2.62,14.38-2.62,21.58c0,20.06,6.71,39.79,19.42,55.86L391.83,321.817z"/>
	<path style="fill:#997C3C;" d="M280.151,133.682l-21.95-11.286c-8.834-4.542-18.551,4.355-14.805,13.554l15.949,39.166
		c2.668,6.552,10.847,8.759,16.448,4.438l7.671-5.918"/>
	
		<line style="fill:none;stroke:#000000;stroke-width:13;stroke-linecap:round;stroke-linejoin:round;stroke-miterlimit:10;" x1="311.877" y1="152.195" x2="298.984" y2="150.531"/>
	<path style="fill:#E5C888;" d="M389.893,236.146c-2.869,0-5.768-0.184-8.688-0.561c-19.933-2.572-37.506-13.823-48.217-30.558
		c-2.035-3.179-0.887-7.421,2.486-9.116l0.273-0.137c2.938-1.477,6.468-0.434,8.246,2.332c8.656,13.465,22.819,22.515,38.876,24.587
		c2.355,0.304,4.699,0.452,7.015,0.453c26.974,0.001,50.471-20.08,54.014-47.528c1.707-13.232-1.506-25.986-8.215-36.414
		c-8.403-13.061-37.197-37.506-37.197-37.506c36.913,4.764,63.068,38.671,58.305,75.584
		C452.402,211.274,423.298,236.145,389.893,236.146z"/>
	<path style="fill:#997C3C;" d="M124.66,293.217l-17.16,0.89c5.74-15.49,4.79-33.06-3.38-48.19l-13.79-25.52
		C90.33,220.397,128.64,238.147,124.66,293.217z"/>
	<path style="fill:#997C3C;" d="M203.76,288.977l-1.67,0.2l-15.42,0.8h-0.01c-0.68-35.63,30.71-46.13,30.71-46.13
		C206.64,256.557,201.9,272.947,203.76,288.977z"/>
	<path style="fill:#997C3C;" d="M282.12,215.247c0,0-20.105-12.469-21.44-26.3c0,0-0.741,24.901,17.63,38.117L282.12,215.247z"/>
</g>
</svg>