<?xml version="1.0" encoding="iso-8859-1"?>
<!-- Uploaded to: SVG Repo, www.svgrepo.com, Generator: SVG Repo Mixer Tools -->
<!DOCTYPE svg PUBLIC "-//W3C//DTD SVG 1.1//EN" "http://www.w3.org/Graphics/SVG/1.1/DTD/svg11.dtd">
<svg height="800px" width="800px" version="1.1" id="Capa_1" xmlns="http://www.w3.org/2000/svg" xmlns:xlink="http://www.w3.org/1999/xlink" 
	 viewBox="0 0 413.478 413.478" xml:space="preserve">
<g>
	<path style="fill:#F15A24;" d="M309.547,332.738h-72.805c-3.59,0,9.843-2.91,9.843-6.5s-13.433-6.5-9.843-6.5h72.805
		c3.59,0,6.5,2.91,6.5,6.5S313.137,332.738,309.547,332.738z"/>
	<path style="fill:#F15A24;" d="M368.043,246.677H236.992c-3.59,0-6.5-2.91-6.5-6.5s-11.339-6.5-7.75-6.5h145.301
		c17.884,0,32.435-14.55,32.435-32.434c0-8.66-3.374-16.807-9.5-22.941c-6.128-6.119-14.276-9.493-22.935-9.493H279.26
		c-3.59,0-6.5-2.91-6.5-6.5s2.91-6.5,6.5-6.5h88.784c12.128,0,23.538,4.724,32.127,13.301c8.583,8.596,13.307,20.006,13.307,32.134
		C413.478,226.295,393.096,246.677,368.043,246.677z"/>
	<polygon style="fill:#E6E6E6;" points="184.262,100.539 204.712,197.949 162.492,275.049 	"/>
	<polygon style="fill:#B3B3B3;" points="194.912,15.189 234.362,226.109 204.712,197.949 184.262,100.539 	"/>
	<path style="fill:#CCCCCC;" d="M234.362,226.109l19.49,104.21l-34.83,67.97h-32.14l-34.83-39.6l10.44-83.64l42.22-77.1
		L234.362,226.109z M220.522,326.239l-22.84-49.21l-14.06,63.27l8.79,22.84L220.522,326.239z"/>
	<path style="fill:#F15A24;" d="M220.52,326.239l-4.95,6.5H49.53c-27.31,0-49.53-22.22-49.53-49.53c0-13.23,5.15-25.67,14.51-35.02
		c9.35-9.36,21.79-14.51,35.02-14.51h118.2l-1.59,13H49.53c-9.76,0-18.93,3.8-25.83,10.7c-6.9,6.9-10.7,16.07-10.7,25.83
		c0,20.14,16.39,36.53,36.53,36.53H217.5L220.52,326.239z"/>
</g>
</svg>