<?xml version="1.0" encoding="iso-8859-1"?>
<!-- Uploaded to: SVG Repo, www.svgrepo.com, Generator: SVG Repo Mixer Tools -->
<!DOCTYPE svg PUBLIC "-//W3C//DTD SVG 1.1//EN" "http://www.w3.org/Graphics/SVG/1.1/DTD/svg11.dtd">
<svg height="800px" width="800px" version="1.1" id="Capa_1" xmlns="http://www.w3.org/2000/svg" xmlns:xlink="http://www.w3.org/1999/xlink" 
	 viewBox="0 0 441 441" xml:space="preserve">
<g>
	<polygon style="fill:#CCCCCC;" points="35.5,412.25 44.5,235.25 68.5,225.25 96.5,61.25 200.5,47.25 210.5,23.25 284.5,22.25 
		303.5,67.25 350.5,72.25 365.5,252.25 397.5,262.25 405.5,412.25 	"/>
	<polygon style="fill:#B3B3B3;" points="200.5,47.25 177.503,103.519 182.392,49.688 	"/>
	<polygon style="fill:#B3B3B3;" points="68.5,225.25 98.18,212.883 71.498,207.689 	"/>
	<polygon style="fill:#B3B3B3;" points="365.5,252.25 368.503,326.519 380.384,256.901 	"/>
	<path style="fill:#F15A24;" d="M308.849,138.035l-20.285-1.127l-57.636-16.138c-1.25-0.35-2.575-0.317-3.808,0.093l-56.769,18.923
		l-14.013-25.774c-1.715-3.155-5.663-4.321-8.815-2.606c-3.154,1.715-4.321,5.661-2.606,8.815l16.347,30.067l8.712,23.957
		l-7.844,42.584c-0.65,3.531,1.685,6.92,5.215,7.57c0.398,0.073,0.794,0.108,1.185,0.108c3.075,0,5.808-2.191,6.385-5.323
		l7.036-38.196l8.361,1.176c0.307,0.043,0.611,0.064,0.913,0.064c3.188,0,5.972-2.348,6.428-5.596
		c0.5-3.555-1.977-6.842-5.531-7.342l-10.662-1.499l-5.84-16.06l53.719-17.906l53.163,14.885l8.951,25.063l-2.982,2.319
		l-15.892-11.218c-2.365-1.669-5.549-1.573-7.809,0.235l-15.306,12.245l-34.307-4.824c-3.558-0.502-6.842,1.977-7.342,5.531
		c-0.5,3.555,1.977,6.842,5.531,7.342L247,190.136l17.15,35.372c1.123,2.316,3.44,3.666,5.854,3.666c0.951,0,1.917-0.21,2.831-0.653
		c3.23-1.566,4.579-5.454,3.013-8.685l-16.398-33.821l9.627-7.702l15.836,11.178c2.339,1.651,5.481,1.577,7.739-0.179l10.497-8.165
		c2.215-1.724,3.075-4.674,2.13-7.317l-8.371-23.439l11.221,0.623c0.123,0.006,0.245,0.01,0.366,0.01
		c3.424,0,6.292-2.678,6.484-6.14C315.178,141.301,312.434,138.234,308.849,138.035z"/>
	<g>
		<path style="fill:#F15A24;" d="M159.179,321.041v-32.658c0-3.59-2.91-6.5-6.5-6.5s-6.5,2.91-6.5,6.5v29.146l-1.032,0.676
			l-11.587-27.252c-1.404-3.303-5.22-4.842-8.525-3.438c-3.303,1.405-4.843,5.222-3.438,8.525l12.502,29.405l-0.078,0.051
			l-22.992-22.186c-2.583-2.492-6.698-2.42-9.191,0.164s-2.419,6.698,0.164,9.191l20.869,20.138l-0.05,0.032l-17.353-5.482
			c-3.422-1.08-7.075,0.817-8.156,4.24c-1.081,3.423,0.817,7.075,4.24,8.156l20.294,6.411c0.641,0.202,1.301,0.302,1.958,0.302
			c1.252,0,2.493-0.362,3.563-1.063l28.875-18.922C158.075,325.276,159.179,323.232,159.179,321.041z"/>
		<path style="fill:#F15A24;" d="M179.026,312.505l-13.24,12.223c-0.74,0.683-1.312,1.53-1.669,2.472l-10.309,27.194
			c-1.272,3.357,0.417,7.11,3.774,8.382c0.759,0.287,1.537,0.424,2.303,0.424c2.623,0,5.094-1.6,6.079-4.198l9.765-25.761
			l12.115-11.184c2.638-2.435,2.802-6.547,0.367-9.185S181.664,310.07,179.026,312.505z"/>
		<path style="fill:#F15A24;" d="M141.972,339.148l-9.5,7.5c-2.817,2.224-3.298,6.312-1.074,9.129
			c1.283,1.625,3.185,2.473,5.106,2.473c1.41,0,2.831-0.457,4.023-1.399l9.5-7.5c2.817-2.224,3.298-6.312,1.074-9.129
			C148.878,337.404,144.79,336.923,141.972,339.148z"/>
		<path style="fill:#F15A24;" d="M304.938,301.841c-1.082-3.424-4.738-5.321-8.156-4.241l-17.354,5.481l-0.05-0.032l20.869-20.137
			c2.583-2.493,2.657-6.607,0.164-9.191c-2.493-2.583-6.607-2.655-9.191-0.164l-22.992,22.186l-0.078-0.051l12.502-29.405
			c1.404-3.304-0.135-7.121-3.438-8.525c-3.305-1.404-7.121,0.135-8.525,3.438l-11.587,27.252l-1.032-0.676v-29.147
			c0-3.59-2.91-6.5-6.5-6.5s-6.5,2.91-6.5,6.5v32.659c0,2.191,1.104,4.235,2.938,5.437l28.875,18.921
			c1.071,0.702,2.311,1.063,3.563,1.063c0.657,0,1.317-0.1,1.957-0.302l20.294-6.41C304.121,308.915,306.02,305.264,304.938,301.841
			z"/>
		<path style="fill:#F15A24;" d="M238.134,297.446c-0.357-0.942-0.929-1.788-1.669-2.472l-13.24-12.223
			c-2.637-2.435-6.75-2.271-9.185,0.367c-2.435,2.638-2.271,6.75,0.367,9.185l12.114,11.184l9.766,25.761
			c0.985,2.598,3.456,4.198,6.079,4.198c0.766,0,1.544-0.137,2.303-0.424c3.356-1.273,5.046-5.025,3.774-8.382L238.134,297.446z"/>
		<path style="fill:#F15A24;" d="M269.778,316.895l-9.5-7.5c-2.818-2.225-6.905-1.743-9.129,1.074
			c-2.225,2.818-1.744,6.905,1.074,9.129l9.5,7.5c1.193,0.942,2.613,1.399,4.023,1.399c1.921,0,3.823-0.848,5.106-2.473
			C273.077,323.207,272.596,319.119,269.778,316.895z"/>
	</g>
	<path style="fill:#808080;" d="M441,418.75H0v0c0-7.18,5.82-13,13-13h415C435.18,405.75,441,411.57,441,418.75L441,418.75z"/>
</g>
</svg>