<?xml version="1.0" encoding="iso-8859-1"?>
<!-- Uploaded to: SVG Repo, www.svgrepo.com, Generator: SVG Repo Mixer Tools -->
<!DOCTYPE svg PUBLIC "-//W3C//DTD SVG 1.1//EN" "http://www.w3.org/Graphics/SVG/1.1/DTD/svg11.dtd">
<svg fill="#000000" height="800px" width="800px" version="1.1" id="Capa_1" xmlns="http://www.w3.org/2000/svg" xmlns:xlink="http://www.w3.org/1999/xlink" 
	 viewBox="0 0 413.478 413.478" xml:space="preserve">
<path d="M400.171,169.108c-8.59-8.577-20-13.301-32.127-13.301H279.26c-3.59,0-6.5,2.91-6.5,6.5s2.91,6.5,6.5,6.5h88.784
	c8.659,0,16.807,3.374,22.935,9.493c6.126,6.134,9.5,14.282,9.5,22.941c0,17.884-14.55,32.434-32.435,32.434H242.391l-41.087-219.68
	c-0.589-3.149-3.408-5.399-6.586-5.302c-3.202,0.097-5.856,2.513-6.253,5.692l-27.364,219.29H49.536
	c-13.232,0-25.672,5.153-35.027,14.508C5.152,257.54,0,269.98,0,283.212c0,27.308,22.222,49.525,49.536,49.525h99.204l-3.138,25.149
	c-0.23,1.846,0.341,3.701,1.569,5.098l34.827,39.596c1.234,1.403,3.012,2.207,4.881,2.207h32.148c2.439,0,4.673-1.365,5.785-3.536
	l34.827-67.974c0.089-0.175,0.15-0.36,0.223-0.54h49.686c3.59,0,6.5-2.91,6.5-6.5s-2.91-6.5-6.5-6.5h-51.059l-13.665-73.061h123.221
	c25.053,0,45.435-20.382,45.435-45.434C413.478,189.113,408.754,177.703,400.171,169.108z M196.198,57.405l28.087,150.171
	l-13.63-12.942l-19.805-94.373L196.198,57.405z M197.855,196.937l-24.696,45.096l12.738-102.078L197.855,196.937z M49.536,319.737
	C29.39,319.737,13,303.352,13,283.212c0-9.76,3.8-18.935,10.701-25.835c6.9-6.9,16.075-10.701,25.835-10.701h109.943l-9.117,73.061
	H49.536z M215.053,391.787h-25.235l-30.955-35.193l2.977-23.857h16.802l-1.366,6.148c-0.277,1.248-0.181,2.55,0.278,3.744
	l8.787,22.845c0.846,2.199,2.815,3.768,5.147,4.101c0.308,0.044,0.615,0.066,0.92,0.066c2.01,0,3.93-0.934,5.169-2.561
	l28.117-36.904c1.461-1.918,1.741-4.489,0.725-6.677l-22.845-49.205c-1.173-2.527-3.826-4.024-6.596-3.725
	c-2.77,0.3-5.04,2.333-5.645,5.052l-9.803,44.115h-18.069l5.322-42.651l37.571-68.606l22.006,20.896l18.694,99.951L215.053,391.787z
	 M207.401,332.737l-13.107,17.202l-3.903-10.147l1.568-7.055H207.401z M194.849,319.737l5.015-22.567l10.478,22.567H194.849z"/>
</svg>