<?xml version="1.0" encoding="iso-8859-1"?>
<!-- Uploaded to: SVG Repo, www.svgrepo.com, Generator: SVG Repo Mixer Tools -->
<!DOCTYPE svg PUBLIC "-//W3C//DTD SVG 1.1//EN" "http://www.w3.org/Graphics/SVG/1.1/DTD/svg11.dtd">
<svg fill="#000000" height="800px" width="800px" version="1.1" id="Capa_1" xmlns="http://www.w3.org/2000/svg" xmlns:xlink="http://www.w3.org/1999/xlink" 
	 viewBox="0 0 420.591 420.591" xml:space="preserve">
<g>
	<path d="M389.193,408.495l-84.73-50.13l-1.206-9.923c-0.433-3.563-3.659-6.101-7.236-5.669c-3.563,0.433-6.102,3.673-5.668,7.237
		l0.001,0.008l-67.294-39.814l14.449-8.549c3.09-1.828,4.112-5.814,2.284-8.904c-1.827-3.09-5.816-4.112-8.903-2.284l-14.095,8.339
		v-12.913c0-3.59-2.91-6.5-6.5-6.5s-6.5,2.91-6.5,6.5v12.913l-14.096-8.339c-3.085-1.827-7.075-0.806-8.903,2.284
		c-1.828,3.09-0.806,7.076,2.284,8.904l14.45,8.549l-63.559,37.604c-0.037-3.003-2.16-5.676-5.223-6.289
		c-3.524-0.705-6.944,1.578-7.649,5.098l-2,9.99l-87.702,51.888c-3.09,1.828-4.112,5.814-2.284,8.904
		c1.213,2.051,3.378,3.191,5.6,3.191c1.125,0,2.266-0.292,3.304-0.907l46.223-27.347l11.337,4.863
		c0.836,0.358,1.704,0.528,2.56,0.528c2.521,0,4.92-1.476,5.977-3.939c1.415-3.299-0.112-7.121-3.411-8.536l-2.602-1.116
		l75.961-44.941l-38.52,40.896l-4.513-5.149c-2.364-2.699-6.473-2.97-9.172-0.604c-2.7,2.366-2.97,6.473-0.604,9.173l5.335,6.087
		l-18.871,20.035c-2.462,2.613-2.339,6.727,0.274,9.188c2.614,2.461,6.729,2.339,9.188-0.275l36.942-39.22l13.517,1.048
		c0.171,0.013,0.34,0.02,0.509,0.02c3.362,0,6.21-2.59,6.474-5.998c0.277-3.579-2.399-6.706-5.979-6.983l-3.076-0.238l32.545-34.552
		l-19.584,79.92c-0.854,3.487,1.279,7.006,4.767,7.86c3.49,0.855,7.006-1.28,7.86-4.766l19.144-78.122l19.144,78.122
		c0.728,2.967,3.384,4.955,6.309,4.954c0.512,0,1.032-0.061,1.552-0.188c3.487-0.854,5.621-4.374,4.767-7.86l-6.564-26.788
		l6.494-8.615c2.161-2.867,1.589-6.942-1.278-9.103c-2.864-2.16-6.941-1.588-9.103,1.278l-0.107,0.142l-9.026-36.834l47.786,50.734
		l-1.052,0.042c-3.588,0.142-6.38,3.165-6.238,6.752c0.139,3.5,3.02,6.243,6.49,6.243c0.087,0,0.175-0.002,0.262-0.005l12.352-0.489
		l21.331,22.647c1.279,1.358,3.004,2.044,4.732,2.043c1.599,0,3.2-0.586,4.456-1.768c2.613-2.461,2.736-6.575,0.274-9.188
		l-66.345-70.438l75.949,44.935c-2.149,1.118-3.588,3.391-3.505,5.973c0.114,3.517,3,6.29,6.493,6.29
		c0.071,0,0.143-0.001,0.214-0.003l16.613-0.537l40.279,23.831c3.087,1.827,7.076,0.806,8.904-2.284
		C393.306,414.309,392.283,410.323,389.193,408.495z"/>
	<path d="M166.747,314.224c2.739,0,5.228-1.598,6.366-4.09s0.72-5.419-1.072-7.49c-2.759-3.188-7.216-20.434-0.908-40.382
		c4.532-14.332,15.686-32.645,42.944-41.929c3.073,17.688,12.353,27.454,20.67,36.207c10.3,10.839,19.194,20.201,16.255,45.073
		c-0.253,2.137,0.491,4.271,2.018,5.788c1.528,1.517,3.672,2.246,5.802,1.98c0.599-0.075,14.821-1.942,29.727-11.571
		c13.833-8.937,30.959-26.458,33.986-59.175c4.235-45.786-15.461-91.82-56.961-133.125c-30.92-30.775-62.627-47.962-63.961-48.678
		c-2.17-1.165-4.79-1.104-6.904,0.16c-2.113,1.264-3.407,3.545-3.407,6.008c0,61.021-24.747,84.581-48.68,107.365
		c-20.74,19.745-40.331,38.396-39.441,77.53C104.215,293.467,136.857,314.224,166.747,314.224z M152.274,180.503
		c23.299-22.181,49.511-47.13,52.702-105.372c11.545,7.303,31.438,21.109,50.721,40.301c17.188,17.108,30.454,35.033,39.429,53.279
		c11.068,22.501,15.6,45.593,13.467,68.634c-3.54,38.265-29.313,51.644-43.03,56.085c0.269-24.503-10.784-36.134-20.666-46.533
		c-9.062-9.536-16.888-17.772-17.786-35.973c-0.104-2.092-1.138-4.029-2.82-5.277c-1.684-1.249-3.839-1.677-5.868-1.169
		c-39.219,9.805-54.622,34.54-60.638,53.563c-4.116,13.017-4.204,24.488-3.554,31.819c0.288,3.24,0.777,6.295,1.441,9.087
		c-17.273-3.905-37.728-17.546-38.496-51.372C116.428,214.63,132.246,199.57,152.274,180.503z"/>
	<path d="M126.701,144.001c0.629,2.5,2.498,4.501,4.949,5.299c0.761,0.248,1.544,0.369,2.322,0.369c1.729,0,3.433-0.598,4.799-1.736
		c46.902-39.04,36.155-75.23,27.52-104.309c-3.744-12.608-7.281-24.517-5.633-34.954c0.487-3.083-0.987-6.146-3.7-7.689
		c-2.713-1.543-6.101-1.245-8.501,0.751c-57.528,47.793-39.599,94.281-27.733,125.043
		C123.152,133.071,125.445,139.018,126.701,144.001z M146.049,24.43c1.182,7.701,3.485,15.458,5.863,23.465
		c7.854,26.449,15.309,51.545-14.361,80.934c-0.894-2.426-1.853-4.913-2.832-7.451C124.23,94.185,111.416,60.95,146.049,24.43z"/>
</g>
</svg>