<?xml version="1.0" encoding="iso-8859-1"?>
<!-- Uploaded to: SVG Repo, www.svgrepo.com, Generator: SVG Repo Mixer Tools -->
<!DOCTYPE svg PUBLIC "-//W3C//DTD SVG 1.1//EN" "http://www.w3.org/Graphics/SVG/1.1/DTD/svg11.dtd">
<svg fill="#000000" height="800px" width="800px" version="1.1" id="Capa_1" xmlns="http://www.w3.org/2000/svg" xmlns:xlink="http://www.w3.org/1999/xlink" 
	 viewBox="0 0 451.873 451.873" xml:space="preserve">
<g>
	<path d="M271.766,332.888c-1.566-1.566-3.823-2.227-5.984-1.754l-15.482,3.383v-46.944l18.779-68.411
		c0.365-1.331,0.297-2.744-0.194-4.034l-21.063-55.295l1.161-33.658c0.06-1.723-0.568-3.399-1.744-4.659
		c-1.177-1.26-2.805-2.002-4.528-2.061l-28.712-0.99c-1.722-0.063-3.398,0.568-4.659,1.744c-1.26,1.177-2.001,2.805-2.061,4.528
		l-1.405,40.766c-0.03,0.865,0.113,1.728,0.422,2.538l19.495,51.18l-16.987,61.885c-0.153,0.561-0.231,1.139-0.231,1.721v162.547
		c0,3.59,2.91,6.5,6.5,6.5h28.729c3.59,0,6.5-2.91,6.5-6.5v-59.787l32.485-32.486c2.539-2.538,2.539-6.654,0-9.192L271.766,332.888z
		 M243.278,184.425l-13.476,8.81l-8.532-22.398l15.829-2.632L243.278,184.425z M235.766,132.224l-0.799,23.158l-15.829,2.632
		l0.908-26.331L235.766,132.224z M239.203,378.298c-1.22,1.219-1.904,2.872-1.904,4.596v55.98h-15.729V283.702l17.318-63.089
		c0.365-1.331,0.297-2.744-0.194-4.034l-4.156-10.91l13.475-8.81l7.966,20.91l-18.449,67.207c-0.153,0.561-0.231,1.139-0.231,1.721
		v55.893c0,1.968,0.892,3.829,2.424,5.063c1.533,1.234,3.541,1.707,5.464,1.287l19.898-4.348l3.911,3.911L239.203,378.298z"/>
	<path d="M197.734,162.835c-15.542-11.645-21.675-31.798-15.261-50.149l33.489-95.814l14.183,10.243
		c17.719,12.798,30.548,30.584,37.102,51.436c6.553,20.852,6.205,42.78-1.006,63.412c-1.691,4.839-4.164,9.292-7.349,13.238
		c-2.255,2.793-1.818,6.885,0.975,9.14c2.792,2.255,6.886,1.819,9.141-0.975c4.123-5.107,7.32-10.865,9.505-17.114
		c8.143-23.297,8.535-48.056,1.136-71.6c-7.399-23.544-21.885-43.626-41.892-58.076L216.508,1.231
		c-1.664-1.202-3.796-1.547-5.755-0.932c-1.957,0.615-3.51,2.119-4.187,4.056l-36.365,104.042
		c-8.293,23.725-0.361,49.783,19.737,64.842c1.169,0.876,2.536,1.299,3.893,1.299c1.977,0,3.93-0.899,5.207-2.603
		C201.191,169.062,200.607,164.988,197.734,162.835z"/>
	<path d="M211.214,113.276c2.121,0,4.249-1.085,5.399-2.89c2.909-4.24-0.403-10.206-5.501-10.098
		c-4.993,0.105-8.183,5.895-5.299,10.098C206.963,112.189,209.092,113.276,211.214,113.276z"/>
	<path d="M229.084,65.268c-1.416-1.145-3.248-1.642-5.049-1.374c-1.802,0.27-3.407,1.282-4.426,2.792
		c-0.231,0.343-5.719,8.53-10.004,19.73c-1.282,3.353,0.396,7.111,3.749,8.393c3.35,1.282,7.111-0.395,8.394-3.749
		c1.485-3.883,3.151-7.377,4.621-10.179c6.725,8.426,9.15,18.974,9.941,27.044c0.329,3.357,3.156,5.866,6.461,5.866
		c0.212,0,0.427-0.01,0.642-0.031c3.573-0.35,6.186-3.531,5.835-7.103C247.501,88.833,240.529,74.521,229.084,65.268z"/>
</g>
</svg>