<?xml version="1.0" encoding="iso-8859-1"?>
<!-- Uploaded to: SVG Repo, www.svgrepo.com, Generator: SVG Repo Mixer Tools -->
<!DOCTYPE svg PUBLIC "-//W3C//DTD SVG 1.1//EN" "http://www.w3.org/Graphics/SVG/1.1/DTD/svg11.dtd">
<svg fill="#000000" height="800px" width="800px" version="1.1" id="Capa_1" xmlns="http://www.w3.org/2000/svg" xmlns:xlink="http://www.w3.org/1999/xlink" 
	 viewBox="0 0 422.475 422.475" xml:space="preserve">
<g>
	<path d="M278.112,195.044c-0.164-2.276-1.509-4.299-3.543-5.331c-2.036-1.032-4.462-0.921-6.395,0.291l-15.971,10.021
		l18.184-159.61c0.198-1.734-0.31-3.474-1.409-4.829L244.041,4.825c-1.184-1.461-2.943-2.337-4.822-2.403l-69.101-2.418
		c-2.153-0.077-4.174,0.907-5.448,2.624l-21.629,29.164c-0.928,1.251-1.376,2.795-1.262,4.349l27.974,380.311
		c0.25,3.405,3.087,6.023,6.479,6.023c0.066,0,0.133-0.001,0.199-0.003l44.978-1.356c3.229-0.097,5.897-2.552,6.262-5.761
		l14.225-124.86l37.691-55.39c0.823-1.21,1.214-2.663,1.109-4.123L278.112,195.044z M230.246,284.507
		c-0.593,0.871-0.965,1.874-1.084,2.921l-13.77,120.863l-33.13,0.999L155.184,41.165l23.258-3.619
		c3.547-0.552,5.975-3.875,5.423-7.422c-0.552-3.547-3.867-5.975-7.422-5.423l-13.518,2.104l10.152-13.688l62.729,2.196
		l10.979,13.544l-18.218-4.398c-3.485-0.841-7.001,1.303-7.844,4.793c-0.842,3.49,1.304,7.001,4.793,7.844l31.303,7.556
		l-19.062,167.324c-0.283,2.481,0.881,4.906,2.995,6.236s4.803,1.333,6.918,0.005l18.251-11.451l1.646,22.894L230.246,284.507z"/>
	<path d="M185.305,106.23c-0.16-3.586-3.187-6.363-6.782-6.205c-3.586,0.159-6.364,3.196-6.205,6.782l3.233,72.75
		c0.155,3.488,3.031,6.211,6.489,6.211c0.097,0,0.195-0.002,0.293-0.006c3.586-0.159,6.364-3.196,6.205-6.782L185.305,106.23z"/>
	<path d="M196.071,328.911c-3.586,0.159-6.364,3.196-6.205,6.782l1.794,40.372c0.155,3.488,3.032,6.211,6.489,6.211
		c0.097,0,0.195-0.002,0.293-0.006c3.586-0.159,6.364-3.196,6.205-6.782l-1.794-40.372
		C202.694,331.53,199.659,328.751,196.071,328.911z"/>
	<path d="M195.202,315.957c0.097,0,0.195-0.002,0.293-0.007c3.586-0.159,6.364-3.196,6.205-6.782l-0.386-8.694
		c-0.159-3.586-3.191-6.367-6.782-6.205c-3.586,0.159-6.364,3.196-6.205,6.782l0.386,8.694
		C188.868,313.233,191.744,315.957,195.202,315.957z"/>
	<path d="M227.784,143.013c-3.582-0.246-6.685,2.456-6.932,6.037l-6.294,91.268c-0.247,3.582,2.456,6.685,6.037,6.932
		c0.152,0.01,0.303,0.016,0.454,0.016c3.386,0,6.242-2.624,6.478-6.053l6.294-91.268
		C234.068,146.363,231.365,143.26,227.784,143.013z"/>
	<path d="M230.489,103.787c-3.568-0.246-6.685,2.456-6.932,6.037l-0.941,13.641c-0.247,3.581,2.456,6.685,6.037,6.932
		c0.152,0.01,0.303,0.016,0.454,0.016c3.386,0,6.241-2.624,6.478-6.053l0.941-13.641
		C236.774,107.138,234.071,104.034,230.489,103.787z"/>
	<path d="M204.543,49.775c-3.59,0-6.5,2.91-6.5,6.5v80.996c0,3.59,2.91,6.5,6.5,6.5s6.5-2.91,6.5-6.5V56.275
		C211.043,52.685,208.133,49.775,204.543,49.775z"/>
	<path d="M196.93,34.586c3.126,0,5.851-2.314,6.4-5.383c1.042-5.832-6.012-9.85-10.549-6.116
		C188.178,26.876,190.994,34.586,196.93,34.586z"/>
</g>
</svg>