<?xml version="1.0" encoding="iso-8859-1"?>
<!-- Uploaded to: SVG Repo, www.svgrepo.com, Generator: SVG Repo Mixer Tools -->
<!DOCTYPE svg PUBLIC "-//W3C//DTD SVG 1.1//EN" "http://www.w3.org/Graphics/SVG/1.1/DTD/svg11.dtd">
<svg fill="#000000" height="800px" width="800px" version="1.1" id="Capa_1" xmlns="http://www.w3.org/2000/svg" xmlns:xlink="http://www.w3.org/1999/xlink" 
	 viewBox="0 0 397.913 397.913" xml:space="preserve">
<g>
	<path d="M151.834,237.421c1.082,1.955,3.091,3.217,5.321,3.344l39.243,2.219c0.123,0.007,0.246,0.01,0.368,0.01
		c2.227,0,4.309-1.142,5.503-3.042l23.032-36.649c1.244-1.981,1.329-4.479,0.22-6.539l-18.257-33.926
		c-0.841-1.563-2.285-2.714-3.996-3.186l-38.049-10.489c-2.883-0.794-5.927,0.476-7.392,3.077l-25.012,44.415
		c-1.106,1.965-1.115,4.362-0.024,6.335L151.834,237.421z M149.503,206.344l26.355-0.001l12.828,23.183l-27.213-1.539
		L149.503,206.344z M212.28,199.591l-13.454,21.408l-11.691-21.128l12.937-22.966L212.28,199.591z M166.663,163.046l22.761,6.275
		l-13.533,24.023l-26.291,0.001L166.663,163.046z"/>
	<path d="M397.83,198.807l-9.929-61.392c-0.162-1.002-0.557-1.953-1.152-2.775l-68.19-94.161c-0.611-0.843-1.415-1.528-2.346-1.995
		l-60.186-30.25c-1-0.503-2.115-0.741-3.229-0.685L124.093,13.71c-1.192,0.057-2.346,0.441-3.334,1.11L54.392,59.757
		c-0.909,0.616-1.648,1.452-2.146,2.431L0.709,163.312c-0.496,0.973-0.738,2.055-0.706,3.146l2.344,78.534
		c0.035,1.178,0.39,2.324,1.025,3.315l69.069,107.695c0.597,0.93,1.42,1.692,2.393,2.215l58.346,31.38
		c0.946,0.509,2.005,0.775,3.079,0.775H266.73c1.504,0,2.961-0.521,4.123-1.475l90.793-74.497c0.984-0.808,1.71-1.887,2.087-3.104
		l33.89-109.532C397.919,200.808,397.989,199.796,397.83,198.807z M355.738,193.344l-7.834-48.394l28.047,0.003l7.826,48.392
		L355.738,193.344z M368.751,131.951l-25.165-0.002l-58.767-81.16l25.156,0.002L368.751,131.951z M285.884,37.789l-12.255-0.001
		l-33.105-16.638l11.191-0.536L285.884,37.789z M82.476,347.566L15.287,242.804l-2.24-75.071l50.021-98.15l63.469-42.976
		l87.554-4.191l53.661,26.968l66.346,91.626l9.448,58.367l-32.868,106.211l-87.487,71.783h-85.297L82.476,347.566z M264.405,377.373
		h-20.721l74.952-61.498l20.719,0L264.405,377.373z M352.73,302.876l-27.605-0.001l29.873-96.532l27.6,0.001L352.73,302.876z"/>
</g>
</svg>