<?xml version="1.0" encoding="iso-8859-1"?>
<!-- Uploaded to: SVG Repo, www.svgrepo.com, Generator: SVG Repo Mixer Tools -->
<!DOCTYPE svg PUBLIC "-//W3C//DTD SVG 1.1//EN" "http://www.w3.org/Graphics/SVG/1.1/DTD/svg11.dtd">
<svg fill="#000000" height="800px" width="800px" version="1.1" id="Capa_1" xmlns="http://www.w3.org/2000/svg" xmlns:xlink="http://www.w3.org/1999/xlink" 
	 viewBox="0 0 376.201 376.201" xml:space="preserve">
<path d="M366.003,278.179c-6.583-6.571-15.324-10.189-24.612-10.189h-30.268l-79.889-79.89l79.885-79.885h30.272c0,0,0,0,0.001,0
	c9.297,0,18.038-3.621,24.611-10.194c6.574-6.574,10.195-15.315,10.194-24.612c0.001-9.297-3.62-18.038-10.194-24.612
	c-6.573-6.574-15.314-10.194-24.611-10.195h-3.794v-3.793c0-19.192-15.614-34.807-34.807-34.807s-34.807,15.614-34.807,34.807
	v30.273L188.1,144.967l-79.889-79.889V34.81C108.211,15.616,92.6,0,73.411,0C64.11,0,55.368,3.62,48.79,10.198
	c-6.57,6.583-10.189,15.324-10.189,24.611v3.79h-3.79c-19.194,0-34.81,15.616-34.81,34.81c0,9.288,3.619,18.028,10.193,24.616
	c6.574,6.574,15.316,10.194,24.616,10.194h30.268l79.885,79.884l-79.884,79.883H34.807C15.614,267.988,0,283.602,0,302.794
	s15.614,34.807,34.807,34.807H38.6v3.793c0,19.192,15.614,34.807,34.807,34.807s34.807-15.614,34.807-34.807v-30.273l79.883-79.883
	l79.885,79.884v30.268c0,19.194,15.616,34.81,34.811,34.81c9.287,0,18.028-3.619,24.615-10.194
	c6.574-6.573,10.194-15.315,10.194-24.616v-3.79h3.79c19.194,0,34.811-15.616,34.811-34.81
	C376.201,293.496,372.581,284.758,366.003,278.179z M72.367,97.124c-1.22-1.219-2.873-1.904-4.597-1.904h-32.96
	c-5.828,0-11.305-2.268-15.419-6.382c-4.121-4.129-6.391-9.608-6.391-15.428c0-12.026,9.784-21.81,21.81-21.81h10.29
	c3.59,0,6.5-2.91,6.5-6.5V34.81c0-5.82,2.27-11.299,6.387-15.423C62.105,15.268,67.583,13,73.411,13c12.021,0,21.8,9.784,21.8,21.81
	v32.96c0,1.724,0.685,3.377,1.903,4.596l81.794,81.793l-24.753,24.753L72.367,97.124z M97.116,303.833
	c-1.219,1.219-1.903,2.872-1.903,4.596v32.965c0,12.024-9.782,21.807-21.807,21.807S51.6,353.419,51.6,341.394v-10.293
	c0-3.59-2.91-6.5-6.5-6.5H34.807c-12.024,0-21.807-9.782-21.807-21.807s9.782-21.807,21.807-21.807h32.965
	c1.724,0,3.377-0.685,4.596-1.904L279.082,72.37c1.219-1.219,1.903-2.872,1.903-4.596V34.809c0-12.024,9.782-21.807,21.807-21.807
	s21.807,9.782,21.807,21.807v10.293c0,3.59,2.91,6.5,6.5,6.5h10.294c5.824,0,11.301,2.269,15.419,6.387
	c4.119,4.119,6.387,9.595,6.387,15.42c0,5.825-2.268,11.301-6.387,15.419c-4.118,4.119-9.595,6.387-15.42,6.387h-32.965
	c-1.724,0-3.377,0.685-4.597,1.904L97.116,303.833z M341.391,324.6h-10.29c-3.59,0-6.5,2.91-6.5,6.5v10.29
	c0,5.829-2.268,11.306-6.382,15.419c-4.129,4.121-9.608,6.391-15.428,6.391c-12.026,0-21.811-9.784-21.811-21.81v-32.96
	c0-1.724-0.685-3.377-1.904-4.596l-81.788-81.788l24.753-24.753l81.793,81.793c1.22,1.219,2.873,1.904,4.597,1.904h32.96
	c5.82,0,11.3,2.27,15.424,6.386c4.119,4.118,6.387,9.592,6.387,15.414C363.201,314.816,353.417,324.6,341.391,324.6z"/>
</svg>