<?xml version="1.0" encoding="iso-8859-1"?>
<!-- Uploaded to: SVG Repo, www.svgrepo.com, Generator: SVG Repo Mixer Tools -->
<!DOCTYPE svg PUBLIC "-//W3C//DTD SVG 1.1//EN" "http://www.w3.org/Graphics/SVG/1.1/DTD/svg11.dtd">
<svg fill="#000000" height="800px" width="800px" version="1.1" id="Capa_1" xmlns="http://www.w3.org/2000/svg" xmlns:xlink="http://www.w3.org/1999/xlink" 
	 viewBox="0 0 397 397" xml:space="preserve">
<g>
	<path d="M327.684,91.525c-1.468-1.235-3.408-1.759-5.298-1.429C190.108,113.108,128.822,36.968,108.609,3.165
		C107.436,1.202,105.317,0,103.031,0H73.5C69.91,0,67,2.91,67,6.5v364c0,2.216,1.129,4.28,2.996,5.475l31.245,20
		c2.136,1.367,4.873,1.367,7.009,0l27.741-17.757l27.745,17.757c2.135,1.367,4.872,1.367,7.008,0l27.746-17.757l27.747,17.757
		c2.136,1.367,4.872,1.367,7.008,0l27.747-17.757l27.75,17.758c1.068,0.683,2.286,1.025,3.503,1.025s2.436-0.342,3.503-1.025
		l31.255-20c1.867-1.195,2.997-3.258,2.997-5.475v-274C330,94.581,329.152,92.761,327.684,91.525z M317,366.942l-24.755,15.841
		l-27.751-17.758c-1.068-0.683-2.286-1.025-3.503-1.025s-2.436,0.342-3.504,1.025l-27.747,17.757l-27.747-17.757
		c-2.136-1.367-4.872-1.367-7.008,0l-27.746,17.757l-27.745-17.757c-2.136-1.367-4.872-1.367-7.008,0l-27.741,17.757L80,366.943V13
		h19.387c20.354,32.57,72.563,94.399,175.427,94.391c13.21-0.001,27.265-1.021,42.186-3.254V366.942z"/>
	<path d="M103.5,112.269c-3.59,0-6.5,2.91-6.5,6.5v40c0,3.59,2.91,6.5,6.5,6.5s6.5-2.91,6.5-6.5v-40
		C110,115.179,107.09,112.269,103.5,112.269z"/>
	<path d="M103.5,50.269c-3.59,0-6.5,2.91-6.5,6.5v22c0,3.59,2.91,6.5,6.5,6.5s6.5-2.91,6.5-6.5v-22
		C110,53.179,107.09,50.269,103.5,50.269z"/>
	<path d="M103.5,202.269c-3.59,0-6.5,2.91-6.5,6.5v40c0,3.59,2.91,6.5,6.5,6.5s6.5-2.91,6.5-6.5v-40
		C110,205.179,107.09,202.269,103.5,202.269z"/>
	<path d="M103.5,292.269c-3.59,0-6.5,2.91-6.5,6.5v40c0,3.59,2.91,6.5,6.5,6.5s6.5-2.91,6.5-6.5v-40
		C110,295.179,107.09,292.269,103.5,292.269z"/>
	<path d="M195.5,112.269c-3.59,0-6.5,2.91-6.5,6.5v40c0,3.59,2.91,6.5,6.5,6.5s6.5-2.91,6.5-6.5v-40
		C202,115.179,199.09,112.269,195.5,112.269z"/>
	<path d="M195.5,202.269c-3.59,0-6.5,2.91-6.5,6.5v40c0,3.59,2.91,6.5,6.5,6.5s6.5-2.91,6.5-6.5v-40
		C202,205.179,199.09,202.269,195.5,202.269z"/>
	<path d="M195.5,292.269c-3.59,0-6.5,2.91-6.5,6.5v40c0,3.59,2.91,6.5,6.5,6.5s6.5-2.91,6.5-6.5v-40
		C202,295.179,199.09,292.269,195.5,292.269z"/>
	<path d="M287.5,165.269c3.59,0,6.5-2.91,6.5-6.5v-20c0-3.59-2.91-6.5-6.5-6.5s-6.5,2.91-6.5,6.5v20
		C281,162.359,283.91,165.269,287.5,165.269z"/>
	<path d="M287.5,255.269c3.59,0,6.5-2.91,6.5-6.5v-40c0-3.59-2.91-6.5-6.5-6.5s-6.5,2.91-6.5,6.5v40
		C281,252.359,283.91,255.269,287.5,255.269z"/>
	<path d="M287.5,345.269c3.59,0,6.5-2.91,6.5-6.5v-40c0-3.59-2.91-6.5-6.5-6.5s-6.5,2.91-6.5,6.5v40
		C281,342.359,283.91,345.269,287.5,345.269z"/>
	<path d="M149.5,157.269c-3.59,0-6.5,2.91-6.5,6.5v40c0,3.59,2.91,6.5,6.5,6.5s6.5-2.91,6.5-6.5v-40
		C156,160.179,153.09,157.269,149.5,157.269z"/>
	<path d="M149.5,96.269c-3.59,0-6.5,2.91-6.5,6.5v20c0,3.59,2.91,6.5,6.5,6.5s6.5-2.91,6.5-6.5v-20
		C156,99.179,153.09,96.269,149.5,96.269z"/>
	<path d="M149.5,247.269c-3.59,0-6.5,2.91-6.5,6.5v40c0,3.59,2.91,6.5,6.5,6.5s6.5-2.91,6.5-6.5v-40
		C156,250.179,153.09,247.269,149.5,247.269z"/>
	<path d="M241.5,157.269c-3.59,0-6.5,2.91-6.5,6.5v40c0,3.59,2.91,6.5,6.5,6.5s6.5-2.91,6.5-6.5v-40
		C248,160.179,245.09,157.269,241.5,157.269z"/>
	<path d="M241.5,247.269c-3.59,0-6.5,2.91-6.5,6.5v40c0,3.59,2.91,6.5,6.5,6.5s6.5-2.91,6.5-6.5v-40
		C248,250.179,245.09,247.269,241.5,247.269z"/>
</g>
</svg>