<?xml version="1.0" encoding="iso-8859-1"?>
<!-- Uploaded to: SVG Repo, www.svgrepo.com, Generator: SVG Repo Mixer Tools -->
<!DOCTYPE svg PUBLIC "-//W3C//DTD SVG 1.1//EN" "http://www.w3.org/Graphics/SVG/1.1/DTD/svg11.dtd">
<svg fill="#000000" height="800px" width="800px" version="1.1" id="Capa_1" xmlns="http://www.w3.org/2000/svg" xmlns:xlink="http://www.w3.org/1999/xlink" 
	 viewBox="0 0 441 441" xml:space="preserve">
<g>
	<path d="M376.398,308.009c-0.298-3.578-3.442-6.235-7.018-5.938c-3.577,0.298-6.236,3.44-5.938,7.018l0.746,8.951
		c0.283,3.394,3.125,5.96,6.47,5.96c0.181,0,0.364-0.008,0.547-0.023c3.577-0.298,6.236-3.44,5.938-7.018L376.398,308.009z"/>
	<path d="M308.849,141.285l-20.285-1.127l-57.636-16.138c-1.25-0.35-2.575-0.317-3.808,0.093l-56.769,18.923l-14.013-25.774
		c-1.715-3.155-5.663-4.321-8.815-2.606c-3.154,1.715-4.321,5.661-2.606,8.815l16.347,30.067l8.712,23.957l-7.844,42.584
		c-0.65,3.531,1.685,6.92,5.215,7.57c0.398,0.073,0.794,0.108,1.185,0.108c3.075,0,5.808-2.191,6.385-5.323l7.036-38.196
		l8.361,1.176c0.307,0.043,0.611,0.064,0.913,0.064c3.188,0,5.972-2.348,6.428-5.596c0.5-3.555-1.977-6.842-5.531-7.342
		l-10.662-1.499l-5.84-16.06l53.719-17.906l53.163,14.885l8.951,25.063l-2.982,2.319l-15.892-11.218
		c-2.365-1.669-5.549-1.573-7.809,0.235l-15.306,12.245l-34.307-4.824c-3.558-0.502-6.842,1.977-7.342,5.531
		c-0.5,3.555,1.977,6.842,5.531,7.342L247,193.385l17.15,35.372c1.123,2.316,3.44,3.666,5.854,3.666c0.951,0,1.917-0.21,2.831-0.653
		c3.23-1.566,4.579-5.454,3.013-8.685l-16.398-33.821l9.627-7.702l15.836,11.178c2.339,1.651,5.481,1.577,7.739-0.179l10.497-8.165
		c2.215-1.724,3.075-4.674,2.13-7.317l-8.371-23.439l11.221,0.623c0.123,0.006,0.245,0.01,0.366,0.01
		c3.424,0,6.292-2.678,6.484-6.14C315.178,144.551,312.434,141.484,308.849,141.285z"/>
	<path d="M159.179,324.291v-32.658c0-3.59-2.91-6.5-6.5-6.5s-6.5,2.91-6.5,6.5v29.146l-1.032,0.676l-11.587-27.252
		c-1.404-3.303-5.22-4.842-8.525-3.438c-3.303,1.405-4.843,5.222-3.438,8.525l12.502,29.405l-0.078,0.051l-22.992-22.186
		c-2.583-2.492-6.698-2.42-9.191,0.164s-2.419,6.698,0.164,9.191l20.869,20.138l-0.05,0.032l-17.353-5.482
		c-3.422-1.08-7.075,0.817-8.156,4.24c-1.081,3.423,0.817,7.075,4.24,8.156l20.294,6.411c0.641,0.202,1.301,0.302,1.958,0.302
		c1.252,0,2.493-0.362,3.563-1.063l28.875-18.922C158.075,328.526,159.179,326.482,159.179,324.291z"/>
	<path d="M179.026,315.755l-13.24,12.223c-0.74,0.683-1.312,1.53-1.669,2.472l-10.309,27.194c-1.272,3.357,0.417,7.11,3.774,8.382
		c0.759,0.287,1.537,0.424,2.303,0.424c2.623,0,5.094-1.6,6.079-4.198l9.765-25.761l12.115-11.184
		c2.638-2.435,2.802-6.547,0.367-9.185S181.664,313.32,179.026,315.755z"/>
	<path d="M141.972,342.398l-9.5,7.5c-2.817,2.224-3.298,6.312-1.074,9.129c1.283,1.625,3.185,2.473,5.106,2.473
		c1.41,0,2.831-0.457,4.023-1.399l9.5-7.5c2.817-2.224,3.298-6.312,1.074-9.129C148.878,340.654,144.79,340.173,141.972,342.398z"/>
	<path d="M296.783,300.85l-17.354,5.481l-0.05-0.032l20.869-20.137c2.583-2.493,2.657-6.607,0.164-9.191
		c-2.493-2.583-6.607-2.655-9.191-0.164l-22.992,22.186l-0.078-0.051l12.502-29.405c1.404-3.304-0.135-7.121-3.438-8.525
		c-3.305-1.404-7.121,0.135-8.525,3.438l-11.587,27.252l-1.032-0.676v-29.147c0-3.59-2.91-6.5-6.5-6.5s-6.5,2.91-6.5,6.5v32.659
		c0,2.191,1.104,4.235,2.938,5.437l28.875,18.921c1.071,0.702,2.311,1.063,3.563,1.063c0.657,0,1.317-0.1,1.957-0.302l20.294-6.41
		c3.423-1.082,5.322-4.733,4.241-8.156C303.857,301.667,300.2,299.77,296.783,300.85z"/>
	<path d="M238.134,300.696c-0.357-0.942-0.929-1.788-1.669-2.472l-13.24-12.223c-2.637-2.435-6.75-2.271-9.185,0.367
		c-2.435,2.638-2.271,6.75,0.367,9.185l12.114,11.184l9.766,25.761c0.985,2.598,3.456,4.198,6.079,4.198
		c0.766,0,1.544-0.137,2.303-0.424c3.356-1.273,5.046-5.025,3.774-8.382L238.134,300.696z"/>
	<path d="M269.778,320.145l-9.5-7.5c-2.818-2.225-6.905-1.743-9.129,1.074c-2.225,2.818-1.744,6.905,1.074,9.129l9.5,7.5
		c1.193,0.942,2.613,1.399,4.023,1.399c1.921,0,3.823-0.848,5.106-2.473C273.077,326.456,272.596,322.369,269.778,320.145z"/>
	<path d="M434.5,409h-22.837l-7.672-143.846c-0.145-2.712-1.96-5.048-4.552-5.858l-27.825-8.695L356.978,74.96
		c-0.259-3.108-2.689-5.594-5.79-5.924l-43.19-4.594l-17.509-41.47c-1.029-2.437-3.447-3.985-6.076-3.971l-74,1
		c-2.592,0.035-4.915,1.607-5.912,4l-8.565,20.556L95.633,58.058c-2.817,0.379-5.062,2.546-5.54,5.348L62.695,223.877L42,232.5
		c-2.312,0.963-3.864,3.169-3.992,5.67L29.322,409H6.5c-3.59,0-6.5,2.91-6.5,6.5s2.91,6.5,6.5,6.5h428c3.59,0,6.5-2.91,6.5-6.5
		S438.09,409,434.5,409z M42.339,409l8.445-166.077l49.896-20.79c3.314-1.381,4.881-5.187,3.5-8.5c-1.38-3.314-5.188-4.879-8.5-3.5
		l-18.787,7.828l25.21-147.657l88.042-11.852L182.833,76c-1.381,3.314,0.187,7.119,3.5,8.5c0.817,0.341,1.664,0.502,2.498,0.502
		c2.545,0,4.962-1.505,6.002-4.002l20.024-48.058l65.356-0.883l17.298,40.97c0.92,2.178,2.95,3.685,5.301,3.935l41.656,4.431
		l17.464,209.569c0.283,3.394,3.125,5.96,6.47,5.96c0.181,0,0.364-0.008,0.547-0.023c3.577-0.298,6.236-3.44,5.938-7.018
		l-2.108-25.299l18.47,5.772L398.644,409H42.339z"/>
</g>
</svg>