<?xml version="1.0" encoding="iso-8859-1"?>
<!-- Uploaded to: SVG Repo, www.svgrepo.com, Generator: SVG Repo Mixer Tools -->
<svg fill="#000000" height="800px" width="800px" version="1.1" id="Capa_1" xmlns="http://www.w3.org/2000/svg" xmlns:xlink="http://www.w3.org/1999/xlink" 
	 viewBox="0 0 353.802 353.802" xml:space="preserve">
<path d="M83.858,340.738c-14.942,0-27.135-5.659-36.316-16.878c-2.798-3.419-2.295-8.459,1.125-11.258
	c3.418-2.796,8.46-2.294,11.257,1.125c14.919,18.225,37.354,11.091,69.885-1.874c16.63-6.628,32.339-12.889,46.81-12.996
	c0.023-0.001,0.046,0.002,0.076,0h0.001h0.001h0.001h0.001c0.025,0,0.051,0,0.076,0c14.471,0.107,30.181,6.368,46.811,12.996
	c32.53,12.965,54.968,20.1,69.885,1.874c2.797-3.42,7.838-3.925,11.257-1.125c3.42,2.799,3.923,7.839,1.125,11.258
	c-10.533,12.871-25.035,18.424-43.098,16.509c-14.768-1.566-30.184-7.71-45.093-13.652c-15.176-6.048-29.51-11.762-40.965-11.859
	c-11.455,0.098-25.789,5.811-40.964,11.859c-14.909,5.942-30.325,12.086-45.092,13.652
	C88.321,340.615,86.059,340.738,83.858,340.738z M269.534,304.069c-2.201,0-4.461-0.122-6.781-0.368
	c-14.767-1.566-30.183-7.711-45.092-13.652c-15.176-6.049-29.51-11.762-40.965-11.859c-11.455,0.098-25.788,5.811-40.964,11.859
	c-14.908,5.941-30.325,12.086-45.092,13.652c-18.072,1.906-32.565-3.64-43.099-16.51c-2.798-3.419-2.295-8.459,1.125-11.258
	c3.418-2.799,8.458-2.294,11.258,1.125c14.917,18.227,37.355,11.092,69.884-1.873c16.63-6.628,32.339-12.889,46.81-12.996
	c0.023,0.001,0.046,0.002,0.076,0h0.001h0.001h0.001h0.001c0.025,0,0.051,0,0.076,0c14.471,0.107,30.181,6.368,46.811,12.996
	c32.529,12.965,54.967,20.1,69.884,1.873c2.798-3.421,7.839-3.924,11.258-1.125c3.42,2.799,3.923,7.839,1.125,11.258
	C296.671,298.409,284.476,304.069,269.534,304.069z M253.232,263.99c-1.655,0-3.311-0.513-4.715-1.537L176.9,210.21l-71.617,52.242
	c-2.804,2.046-6.607,2.051-9.417,0.009c-2.809-2.04-3.98-5.659-2.901-8.958l27.555-84.256L48.702,117.28
	c-2.812-2.035-3.992-5.652-2.919-8.953c1.071-3.297,4.144-5.528,7.608-5.528c0.005,0,0.01,0,0.016,0l88.648,0.171l27.231-84.363
	c1.066-3.303,4.142-5.542,7.613-5.542s6.547,2.239,7.613,5.542l27.231,84.363l88.647-0.171c0.005,0,0.011,0,0.016,0
	c3.465,0,6.537,2.231,7.608,5.528c1.073,3.301-0.106,6.918-2.919,8.953l-71.817,51.967l27.556,84.257
	c1.079,3.299-0.093,6.918-2.901,8.958C256.533,263.481,254.883,263.99,253.232,263.99z M78.16,118.846l56.467,40.859
	c2.817,2.039,3.995,5.663,2.914,8.968l-21.665,66.248l56.31-41.076c2.809-2.049,6.621-2.049,9.43,0l56.31,41.076l-21.666-66.248
	c-1.081-3.305,0.097-6.929,2.914-8.968l56.467-40.859l-69.699,0.134c-0.005,0-0.011,0-0.016,0c-3.471,0-6.547-2.238-7.613-5.542
	L176.9,47.107l-21.411,66.331c-1.066,3.304-4.143,5.542-7.613,5.542c-0.005,0-0.01,0-0.016,0L78.16,118.846z M300.711,236.033
	h-15.947c-4.418,0-8-3.582-8-8s3.582-8,8-8h15.947c4.418,0,8,3.582,8,8S305.129,236.033,300.711,236.033z M69.038,236.033H53.09
	c-4.418,0-8-3.582-8-8s3.582-8,8-8h15.948c4.418,0,8,3.582,8,8S73.456,236.033,69.038,236.033z M320.03,204.341h-47.969
	c-4.418,0-8-3.582-8-8s3.582-8,8-8h47.969c4.418,0,8,3.582,8,8S324.448,204.341,320.03,204.341z M81.74,204.341h-47.97
	c-4.418,0-8-3.582-8-8s3.582-8,8-8h47.97c4.418,0,8,3.582,8,8S86.158,204.341,81.74,204.341z M345.802,172.649h-61.038
	c-4.418,0-8-3.582-8-8s3.582-8,8-8h61.038c4.418,0,8,3.582,8,8S350.22,172.649,345.802,172.649z M69.038,172.649H8
	c-4.418,0-8-3.582-8-8s3.582-8,8-8h61.038c4.418,0,8,3.582,8,8S73.456,172.649,69.038,172.649z"/>
</svg>