<?xml version="1.0" encoding="iso-8859-1"?>
<!-- Uploaded to: SVG Repo, www.svgrepo.com, Generator: SVG Repo Mixer Tools -->
<!DOCTYPE svg PUBLIC "-//W3C//DTD SVG 1.1//EN" "http://www.w3.org/Graphics/SVG/1.1/DTD/svg11.dtd">
<svg fill="#000000" height="800px" width="800px" version="1.1" id="Capa_1" xmlns="http://www.w3.org/2000/svg" xmlns:xlink="http://www.w3.org/1999/xlink" 
	 viewBox="0 0 474.318 474.318" xml:space="preserve">
<g>
	<path d="M348.858,11.239V6.5c0-3.59-2.91-6.5-6.5-6.5c-2.742,0-5.083,1.7-6.038,4.102C335.365,1.7,333.025,0,330.283,0
		c-2.742,0-5.082,1.7-6.037,4.101C323.29,1.7,320.95,0,318.208,0c-3.59,0-6.5,2.91-6.5,6.5v4.739
		c-5.289,3.436-8.802,9.385-8.802,16.148v72.497c0,11.312-7.676,20.865-18.094,23.722V66.718c0-7.909-4.609-15.227-11.744-18.643
		l-33.103-15.849c-1.773-0.85-3.84-0.85-5.613,0l-33.104,15.849c-7.133,3.416-11.742,10.733-11.742,18.643v56.888
		c-10.418-2.857-18.094-12.41-18.094-23.722V27.387c0-6.763-3.513-12.712-8.802-16.147V6.5c0-3.59-2.91-6.5-6.5-6.5
		c-2.742,0-5.083,1.7-6.038,4.102C149.118,1.7,146.778,0,144.036,0s-5.083,1.7-6.038,4.102C137.043,1.7,134.703,0,131.96,0
		c-3.59,0-6.5,2.91-6.5,6.5v4.74c-5.289,3.436-8.802,9.384-8.802,16.147V411.59c0,6.763,3.513,12.712,8.802,16.148v4.739
		c0,3.59,2.91,6.5,6.5,6.5c2.742,0,5.083-1.7,6.038-4.102c0.955,2.402,3.295,4.102,6.038,4.102s5.083-1.7,6.038-4.102
		c0.955,2.402,3.295,4.102,6.038,4.102c3.59,0,6.5-2.91,6.5-6.5v-4.739c5.289-3.436,8.802-9.384,8.802-16.148v-47.92
		c0-7.798,6.344-14.142,14.142-14.142c17.455,0,31.656,14.201,31.656,31.657v73.185c0,11,8.949,19.949,19.949,19.949
		s19.948-8.949,19.948-19.949v-73.185c0-17.456,14.201-31.657,31.656-31.657c7.798,0,14.143,6.344,14.143,14.142v47.92
		c0,6.764,3.513,12.712,8.802,16.148v4.739c0,3.59,2.91,6.5,6.5,6.5c2.742,0,5.082-1.7,6.037-4.101
		c0.955,2.401,3.295,4.101,6.037,4.101c2.742,0,5.083-1.7,6.038-4.102c0.955,2.402,3.295,4.102,6.038,4.102c3.59,0,6.5-2.91,6.5-6.5
		v-4.739c5.289-3.436,8.802-9.384,8.802-16.148V27.387C357.66,20.624,354.147,14.675,348.858,11.239z M230.21,387.059h13.897v14.21
		H230.21V387.059z M230.21,414.269h13.897v14.21H230.21V414.269z M237.16,461.318c-3.832,0-6.949-3.117-6.949-6.949v-12.891h13.897
		v12.891C244.108,458.201,240.991,461.318,237.16,461.318z M288.764,336.528c-22.199,0-40.659,16.283-44.081,37.531h-15.048
		c-3.422-21.248-21.882-37.531-44.081-37.531c-14.966,0-27.142,12.176-27.142,27.142v47.92c0,3.449-2.807,6.255-6.256,6.255h-16.242
		c-3.449,0-6.256-2.806-6.256-6.255V27.387c0-3.449,2.807-6.255,6.256-6.255h16.242c3.449,0,6.256,2.806,6.256,6.255v72.497
		c0,18.512,13.453,33.931,31.094,37.02v5.164c0,10.403,8.463,18.867,18.866,18.867s18.867-8.463,18.867-18.867v-11.09
		c0-3.59-2.91-6.5-6.5-6.5s-6.5,2.91-6.5,6.5v11.09c0,3.235-2.632,5.867-5.867,5.867c-3.234,0-5.866-2.632-5.866-5.867v-75.35
		c0-2.935,1.71-5.65,4.356-6.917l23.797-11.394v11.33h-9.92c-1.851,0-3.613,0.789-4.847,2.169c-1.233,1.38-1.819,3.22-1.612,5.059
		l3.416,30.303h-3.525c-3.59,0-6.5,2.91-6.5,6.5s2.91,6.5,6.5,6.5h10.799c1.851,0,3.613-0.789,4.847-2.169
		c1.233-1.38,1.819-3.22,1.612-5.059l-3.416-30.303h18.292l-3.417,30.302c-0.207,1.839,0.379,3.679,1.612,5.06
		s2.996,2.169,4.847,2.169h10.8c3.59,0,6.5-2.91,6.5-6.5s-2.91-6.5-6.5-6.5h-3.524l3.416-30.303
		c0.207-1.839-0.379-3.679-1.612-5.059c-1.233-1.38-2.996-2.169-4.847-2.169h-9.92V48.407l23.796,11.393
		c2.647,1.267,4.357,3.982,4.357,6.917v75.35c0,3.235-2.632,5.867-5.867,5.867c-3.234,0-5.866-2.632-5.866-5.867v-11.09
		c0-3.59-2.91-6.5-6.5-6.5s-6.5,2.91-6.5,6.5v11.09c0,10.403,8.463,18.867,18.866,18.867s18.867-8.463,18.867-18.867v-5.164
		c17.641-3.089,31.094-18.508,31.094-37.02V27.387c0-3.449,2.806-6.255,6.255-6.255h16.243c3.449,0,6.255,2.806,6.255,6.255V411.59
		c0,3.449-2.806,6.255-6.255,6.255h-16.243c-3.449,0-6.255-2.806-6.255-6.255v-47.92
		C315.907,348.704,303.731,336.528,288.764,336.528z"/>
	<path d="M284.377,200.663c9.951-0.988,20.021-0.8,29.934,0.558c0.299,0.041,0.596,0.061,0.89,0.061
		c3.198,0,5.985-2.361,6.432-5.619c0.487-3.557-2.001-6.835-5.558-7.322c-10.919-1.496-22.019-1.703-32.98-0.615
		c-3.572,0.354-6.182,3.538-5.826,7.11C277.622,198.409,280.806,201.015,284.377,200.663z"/>
	<path d="M314.581,237.63c-0.222,3.583,2.504,6.667,6.087,6.889c3.918,0.242,7.882,0.636,11.783,1.17
		c0.299,0.041,0.596,0.061,0.89,0.061c3.198,0,5.986-2.362,6.432-5.619c0.487-3.557-2.001-6.834-5.558-7.322
		c-4.219-0.578-8.507-1.003-12.746-1.266C317.903,231.326,314.801,234.047,314.581,237.63z"/>
	<path d="M307.046,237.638c-0.224-3.583-3.325-6.307-6.894-6.081c-24.037,1.506-43.032,7.721-54.734,12.67
		c-3.307,1.398-4.854,5.212-3.455,8.519c1.049,2.48,3.456,3.97,5.989,3.97c0.844,0,1.702-0.166,2.528-0.515
		c10.772-4.555,28.274-10.277,50.484-11.669C304.548,244.307,307.271,241.221,307.046,237.638z"/>
	<path d="M321.632,287.365c0.487-3.557-2.001-6.835-5.558-7.322c-16.067-2.201-32.276-1.617-48.178,1.734
		c-3.513,0.741-5.76,4.188-5.02,7.701c0.646,3.061,3.346,5.161,6.354,5.161c0.444,0,0.896-0.046,1.348-0.141
		c14.434-3.042,29.146-3.573,43.732-1.575C317.858,293.411,321.146,290.921,321.632,287.365z"/>
	<path d="M159.119,201.282c0.293,0,0.591-0.02,0.89-0.061c9.912-1.358,19.982-1.545,29.933-0.558
		c3.565,0.352,6.755-2.254,7.109-5.826c0.355-3.572-2.254-6.756-5.826-7.11c-10.963-1.087-22.06-0.881-32.979,0.615
		c-3.557,0.487-6.045,3.766-5.558,7.322C153.133,198.92,155.92,201.282,159.119,201.282z"/>
	<path d="M204.798,203.022c17.852,3.921,28.923,10.412,29.021,10.47c1.027,0.616,2.184,0.924,3.34,0.924s2.313-0.308,3.34-0.924
		c0.108-0.065,11.004-6.513,29.021-10.47c3.506-0.77,5.725-4.237,4.954-7.743s-4.236-5.723-7.743-4.954
		c-14.237,3.127-24.58,7.71-29.572,10.219c-4.992-2.509-15.335-7.091-29.572-10.219c-3.507-0.769-6.974,1.448-7.743,4.954
		C199.074,198.786,201.292,202.252,204.798,203.022z"/>
	<path d="M159.739,237.63c-0.222-3.583-3.327-6.304-6.888-6.087c-4.238,0.262-8.526,0.688-12.747,1.266
		c-3.557,0.487-6.045,3.765-5.558,7.322c0.445,3.257,3.233,5.619,6.432,5.619c0.293,0,0.591-0.02,0.89-0.061
		c3.902-0.534,7.867-0.928,11.784-1.17C157.235,244.297,159.96,241.213,159.739,237.63z"/>
	<path d="M226.367,256.715c2.533,0,4.941-1.49,5.989-3.97c1.398-3.306-0.148-7.12-3.455-8.518
		c-11.703-4.949-30.699-11.164-54.734-12.67c-3.591-0.228-6.669,2.498-6.894,6.081c-0.225,3.583,2.498,6.669,6.081,6.894
		c22.208,1.392,39.711,7.114,50.484,11.669C224.665,256.55,225.523,256.715,226.367,256.715z"/>
	<path d="M206.422,281.776c-15.9-3.351-32.11-3.936-48.178-1.734c-3.557,0.487-6.045,3.766-5.558,7.322
		c0.486,3.556,3.762,6.044,7.321,5.558c14.583-1.998,29.299-1.468,43.732,1.575c0.452,0.095,0.903,0.141,1.348,0.141
		c3.008,0,5.708-2.1,6.354-5.161C212.182,285.965,209.935,282.517,206.422,281.776z"/>
	<path d="M246.601,288.083c-4.071,1.583-7.265,3.072-9.441,4.166c-2.177-1.094-5.37-2.582-9.441-4.166
		c-3.349-1.303-7.113,0.357-8.414,3.702c-1.302,3.346,0.355,7.113,3.701,8.414c6.866,2.67,10.787,4.98,10.814,4.996
		c1.025,0.614,2.18,0.92,3.336,0.92c1.153,0,2.307-0.305,3.332-0.913c0.039-0.023,3.96-2.333,10.826-5.003
		c3.346-1.301,5.003-5.068,3.701-8.414C253.714,288.439,249.949,286.782,246.601,288.083z"/>
</g>
</svg>