<?xml version="1.0" encoding="iso-8859-1"?>
<!-- Uploaded to: SVG Repo, www.svgrepo.com, Generator: SVG Repo Mixer Tools -->
<!DOCTYPE svg PUBLIC "-//W3C//DTD SVG 1.1//EN" "http://www.w3.org/Graphics/SVG/1.1/DTD/svg11.dtd">
<svg version="1.1" id="Capa_1" xmlns="http://www.w3.org/2000/svg" xmlns:xlink="http://www.w3.org/1999/xlink" 
	 viewBox="0 0 461.318 461.318" xml:space="preserve">
<g>
	<g>
		<g>
			<path style="fill:#808080;" d="M342.355,417.845l-6.5,8.132l-6.5-8.132c-2.87-3.59-2.286-8.826,1.304-11.696
				s8.826-2.286,11.696,1.304C344.83,410.55,344.731,414.874,342.355,417.845z"/>
			<path style="fill:#808080;" d="M330.28,417.845l-6.5,8.132l-6.5-8.132c-2.87-3.59-2.286-8.826,1.304-11.696
				s8.826-2.286,11.696,1.304C332.755,410.55,332.656,414.874,330.28,417.845z"/>
			<path style="fill:#808080;" d="M318.204,417.845l-6.5,8.132l-6.5-8.132c-2.869-3.59-2.286-8.826,1.304-11.696
				c3.59-2.87,8.826-2.286,11.696,1.304C320.68,410.55,320.581,414.874,318.204,417.845z"/>
		</g>
		<g>
			<path style="fill:#808080;" d="M156.107,417.845l-6.5,8.132l-6.5-8.132c-2.87-3.59-2.286-8.826,1.304-11.696
				s8.826-2.286,11.696,1.304C158.582,410.55,158.484,414.874,156.107,417.845z"/>
			<path style="fill:#808080;" d="M144.032,417.845l-6.5,8.132l-6.5-8.132c-2.869-3.59-2.286-8.826,1.304-11.696
				s8.826-2.286,11.696,1.304C146.507,410.55,146.408,414.874,144.032,417.845z"/>
			<path style="fill:#808080;" d="M131.957,417.845l-6.5,8.132l-6.5-8.132c-2.869-3.59-2.285-8.826,1.304-11.696
				s8.826-2.286,11.696,1.304C134.432,410.55,134.333,414.874,131.957,417.845z"/>
		</g>
	</g>
	<g>
		<path style="fill:#808080;" d="M118.957,8.132l6.5-8.132l6.5,8.132c2.87,3.59,2.286,8.826-1.304,11.696s-8.826,2.286-11.696-1.304
			C116.482,15.427,116.581,11.103,118.957,8.132z"/>
		<path style="fill:#808080;" d="M131.032,8.132l6.5-8.132l6.5,8.132c2.87,3.59,2.286,8.826-1.304,11.696s-8.826,2.286-11.696-1.304
			C128.557,15.427,128.656,11.103,131.032,8.132z"/>
		<path style="fill:#808080;" d="M143.107,8.132l6.5-8.132l6.5,8.132c2.869,3.59,2.286,8.826-1.304,11.696
			s-8.826,2.286-11.696-1.304C140.632,15.427,140.731,11.103,143.107,8.132z"/>
	</g>
	<g>
		<path style="fill:#808080;" d="M305.204,8.132l6.5-8.132l6.5,8.132c2.87,3.59,2.286,8.826-1.304,11.696s-8.826,2.286-11.696-1.304
			C302.729,15.427,302.828,11.103,305.204,8.132z"/>
		<path style="fill:#808080;" d="M317.28,8.132L323.78,0l6.5,8.132c2.869,3.59,2.286,8.826-1.304,11.696s-8.826,2.286-11.696-1.304
			C314.805,15.427,314.903,11.103,317.28,8.132z"/>
		<path style="fill:#808080;" d="M329.355,8.132l6.5-8.132l6.5,8.132c2.869,3.59,2.285,8.826-1.304,11.696
			s-8.826,2.286-11.696-1.304C326.88,15.427,326.978,11.103,329.355,8.132z"/>
	</g>
	<path style="fill:#EDC148;" d="M344.659,20.888v384.2c0,7.05-5.71,12.76-12.76,12.76h-16.24c-7.05,0-12.76-5.71-12.76-12.76v-47.92
		c0-5.7-2.31-10.86-6.04-14.6c-3.74-3.73-8.9-6.04-14.6-6.04c-21.07,0-38.15,17.08-38.15,38.16v73.18c0,3.72-1.51,7.08-3.94,9.51
		c-2.44,2.43-5.8,3.94-9.51,3.94c-7.43,0-13.45-6.02-13.45-13.45v-73.18c0-10.54-4.27-20.08-11.17-26.98
		c-6.91-6.91-16.45-11.18-26.99-11.18c-11.4,0-20.64,9.24-20.64,20.64v47.92c0,7.05-5.71,12.76-12.76,12.76h-16.24
		c-7.04,0-12.75-5.71-12.75-12.76v-384.2c0-7.05,5.71-12.76,12.75-12.76h16.24c7.05,0,12.76,5.71,12.76,12.76v72.5
		c0,8.58,3.48,16.36,9.11,21.98c5.62,5.63,13.4,9.11,21.98,9.11v-64.26c0-5.45,3.13-10.42,8.05-12.78l29.11-13.94l4-1.91l4,1.92
		l29.1,13.93c4.92,2.36,8.05,7.33,8.05,12.78v64.26c17.17,0,31.09-13.92,31.09-31.09v-72.5c0-7.05,5.71-12.76,12.76-12.76h16.24
		C338.949,8.128,344.659,13.838,344.659,20.888z"/>
	<path style="fill:#B78F35;" d="M214.236,118.838v11.09c0,6.83-5.537,12.367-12.367,12.367h0c-6.83,0-12.367-5.537-12.367-12.367
		v-11.09"/>
	<path style="fill:#B78F35;" d="M271.809,118.838v11.09c0,6.83-5.537,12.367-12.367,12.367h0c-6.83,0-12.367-5.537-12.367-12.367
		v-11.09"/>
	<path style="fill:#666666;" d="M234.659,33.508v26.23c0,2.21-1.79,4-4,4s-4-1.79-4-4v-26.24l4-1.91L234.659,33.508z"/>
	<path style="fill:#666666;" d="M253.643,102.768h-10.8c-1.566,0-3.058-0.667-4.102-1.835c-1.043-1.168-1.539-2.725-1.364-4.281
		l3.543-31.415h-20.529l3.541,31.415c0.175,1.556-0.321,3.113-1.364,4.281c-1.044,1.168-2.535,1.835-4.102,1.835h-10.799
		c-3.037,0-5.5-2.462-5.5-5.5s2.463-5.5,5.5-5.5h4.645l-3.542-31.415c-0.175-1.556,0.321-3.113,1.364-4.281
		c1.044-1.168,2.535-1.835,4.102-1.835h32.84c1.566,0,3.058,0.667,4.102,1.835c1.043,1.168,1.539,2.725,1.364,4.281l-3.541,31.415
		h4.643c3.037,0,5.5,2.462,5.5,5.5S256.681,102.768,253.643,102.768z"/>
	<path style="fill:#666666;" d="M308.697,194.782c-0.294,0-0.591-0.02-0.89-0.061c-9.912-1.358-19.982-1.546-29.934-0.558
		c-3.571,0.352-6.756-2.254-7.109-5.826c-0.355-3.572,2.254-6.756,5.826-7.11c10.962-1.088,22.062-0.881,32.98,0.615
		c3.557,0.487,6.045,3.766,5.558,7.322C314.682,192.42,311.895,194.781,308.697,194.782z"/>
	<path style="fill:#666666;" d="M326.837,239.25c-0.294,0-0.591-0.02-0.89-0.061c-3.901-0.534-7.865-0.928-11.783-1.17
		c-3.583-0.222-6.309-3.306-6.087-6.889c0.221-3.583,3.322-6.305,6.888-6.087c4.239,0.262,8.527,0.688,12.746,1.266
		c3.557,0.487,6.045,3.765,5.558,7.322C332.823,236.888,330.035,239.25,326.837,239.25z"/>
	<path style="fill:#666666;" d="M241.449,250.215c-2.533,0-4.94-1.49-5.989-3.97c-1.398-3.307,0.148-7.12,3.455-8.519
		c11.702-4.949,30.697-11.164,54.734-12.67c3.568-0.226,6.67,2.498,6.894,6.081c0.225,3.583-2.498,6.669-6.081,6.894
		c-22.21,1.392-39.712,7.114-50.484,11.669C243.151,250.05,242.293,250.215,241.449,250.215z"/>
	<path style="fill:#666666;" d="M262.727,288.138c-3.008,0-5.708-2.1-6.354-5.161c-0.74-3.513,1.507-6.96,5.02-7.701
		c15.901-3.351,32.11-3.935,48.178-1.734c3.557,0.487,6.045,3.766,5.558,7.322c-0.486,3.556-3.774,6.046-7.321,5.558
		c-14.586-1.998-29.299-1.468-43.732,1.575C263.623,288.092,263.172,288.138,262.727,288.138z"/>
	<path style="fill:#666666;" d="M152.615,194.782c-3.198,0-5.985-2.361-6.432-5.619c-0.487-3.557,2.001-6.835,5.558-7.322
		c10.92-1.496,22.017-1.702,32.979-0.615c3.572,0.354,6.182,3.538,5.826,7.11c-0.354,3.572-3.544,6.178-7.109,5.826
		c-9.95-0.987-20.021-0.8-29.933,0.558C153.206,194.762,152.908,194.782,152.615,194.782z"/>
	<path style="fill:#666666;" d="M230.656,207.916c-1.156,0-2.313-0.308-3.34-0.924c-0.099-0.058-11.17-6.549-29.021-10.47
		c-3.506-0.77-5.725-4.237-4.954-7.743c0.77-3.506,4.236-5.723,7.743-4.954c14.237,3.127,24.58,7.71,29.572,10.219
		c4.992-2.509,15.335-7.091,29.572-10.219c3.507-0.769,6.973,1.448,7.743,4.954s-1.448,6.973-4.954,7.743
		c-18.018,3.958-28.913,10.405-29.021,10.47C232.969,207.608,231.812,207.916,230.656,207.916z"/>
	<path style="fill:#666666;" d="M134.474,239.25c-3.198,0-5.986-2.362-6.432-5.619c-0.487-3.557,2.001-6.834,5.558-7.322
		c4.221-0.578,8.509-1.003,12.747-1.266c3.561-0.217,6.666,2.504,6.888,6.087s-2.504,6.667-6.087,6.889
		c-3.917,0.242-7.882,0.636-11.784,1.17C135.065,239.23,134.767,239.25,134.474,239.25z"/>
	<path style="fill:#666666;" d="M219.863,250.215c-0.844,0-1.702-0.165-2.528-0.515c-10.773-4.555-28.276-10.277-50.484-11.669
		c-3.583-0.225-6.306-3.311-6.081-6.894c0.225-3.583,3.303-6.309,6.894-6.081c24.035,1.506,43.031,7.721,54.734,12.67
		c3.307,1.398,4.854,5.212,3.455,8.518C224.805,248.725,222.396,250.215,219.863,250.215z"/>
	<path style="fill:#666666;" d="M198.585,288.138c-0.444,0-0.896-0.046-1.348-0.141c-14.434-3.043-29.149-3.572-43.732-1.575
		c-3.56,0.487-6.835-2.002-7.321-5.558c-0.487-3.557,2.001-6.835,5.558-7.322c16.067-2.202,32.277-1.617,48.178,1.734
		c3.513,0.741,5.76,4.188,5.02,7.701C204.293,286.038,201.593,288.138,198.585,288.138z"/>
	<path style="fill:#666666;" d="M230.652,299.615c-1.156,0-2.311-0.306-3.336-0.92c-0.027-0.016-3.948-2.326-10.814-4.996
		c-3.346-1.301-5.003-5.068-3.701-8.414c1.301-3.345,5.065-5.005,8.414-3.702c4.071,1.583,7.265,3.072,9.441,4.166
		c2.177-1.094,5.37-2.582,9.441-4.166c3.348-1.301,7.113,0.356,8.414,3.702c1.302,3.346-0.355,7.113-3.701,8.414
		c-6.866,2.67-10.787,4.98-10.826,5.003C232.959,299.309,231.806,299.615,230.652,299.615z"/>
	<rect x="217.207" y="421.979" style="fill:#666666;" width="26.897" height="13"/>
	<rect x="217.207" y="394.769" style="fill:#666666;" width="26.897" height="13"/>
	<rect x="217.207" y="367.559" style="fill:#666666;" width="26.897" height="13"/>
</g>
</svg>