<?xml version="1.0" encoding="iso-8859-1"?>
<!-- Uploaded to: SVG Repo, www.svgrepo.com, Generator: SVG Repo Mixer Tools -->
<!DOCTYPE svg PUBLIC "-//W3C//DTD SVG 1.1//EN" "http://www.w3.org/Graphics/SVG/1.1/DTD/svg11.dtd">
<svg height="800px" width="800px" version="1.1" id="Capa_1" xmlns="http://www.w3.org/2000/svg" xmlns:xlink="http://www.w3.org/1999/xlink" 
	 viewBox="0 0 379.18 379.18" xml:space="preserve">
<g>
	<path style="fill:#8C7954;" d="M241.775,13.12c-15.31,8.98-33.15,14.12-52.18,14.12s-36.87-5.14-52.19-14.12
		C152.945,4.75,170.715,0,189.595,0S226.245,4.75,241.775,13.12z"/>
	<path style="fill:#8C7954;" d="M299.795,110.21v29.01v65.58c0,16.38-9.67,31.22-24.66,37.83l-21.53,9.5l-48.29,21.3
		c-10.01,4.42-21.43,4.42-31.44,0l-48.29-21.3l-21.53-9.5c-14.99-6.61-24.66-21.45-24.66-37.83v-65.58v-29.01
		c0-0.61,0-1.21,0.03-1.81c0.75,27.08,22.94,48.8,50.21,48.8h119.92c27.27,0,49.46-21.72,50.21-48.8
		C299.795,109,299.795,109.6,299.795,110.21z"/>
	<path style="fill:#C6AB75;" d="M91.485,59.97c-7.47,14.56-11.79,31-12.06,48.43c-0.03,0.6-0.03,1.2-0.03,1.81v29.01
		c-16.56-5.1-28.6-20.51-28.6-38.73c0-22.38,18.14-40.52,40.52-40.52C91.365,59.97,91.435,59.97,91.485,59.97z"/>
	<path style="fill:#C6AB75;" d="M299.765,108.4c-0.27-17.43-4.59-33.87-12.06-48.43c0.06,0,0.12,0,0.18,0
		c22.36,0,40.5,18.14,40.5,40.52c0,18.22-12.03,33.63-28.59,38.73v-29.01C299.795,109.6,299.795,109,299.765,108.4z"/>
	<path style="fill:#E5C888;" d="M323.835,299.99v79.19H55.355v-79.19h22.37c26.43,0,47.86-21.43,47.86-47.86l48.29,21.3
		c10.01,4.42,21.43,4.42,31.44,0l48.29-21.3c0,26.43,21.43,47.86,47.87,47.86H323.835z"/>
	<path style="fill:#E5C888;" d="M91.485,59.97c10.2-19.89,26.27-36.27,45.92-46.85c15.32,8.98,33.16,14.12,52.19,14.12
		s36.87-5.14,52.18-14.12c9.5,5.12,18.17,11.59,25.74,19.16c8.09,8.08,14.92,17.42,20.19,27.69c7.47,14.56,11.79,31,12.06,48.43
		c-0.75,27.08-22.94,48.8-50.21,48.8h-119.92c-27.27,0-49.46-21.72-50.21-48.8C79.695,90.97,84.015,74.53,91.485,59.97z"/>
	<g>
		<path style="fill:#808080;" d="M120.719,108.603c-3.59,0-6.5-2.91-6.5-6.5V81.035c0-3.59,2.91-6.5,6.5-6.5s6.5,2.91,6.5,6.5
			v21.068C127.219,105.693,124.308,108.603,120.719,108.603z"/>
		<path style="fill:#808080;" d="M258.471,108.603c-3.59,0-6.5-2.91-6.5-6.5V81.035c0-3.59,2.91-6.5,6.5-6.5s6.5,2.91,6.5,6.5
			v21.068C264.971,105.693,262.061,108.603,258.471,108.603z"/>
	</g>
	<path style="fill:#FFFFFF;" d="M209.864,176.137h-40.538c-4.569,0-8.273,3.704-8.273,8.273v0c0,4.569,3.704,8.273,8.273,8.273
		h40.538c4.569,0,8.273-3.704,8.273-8.273v0C218.137,179.841,214.433,176.137,209.864,176.137z"/>
	<path style="fill:#A5997F;" d="M189.595,134.515L189.595,134.515c-8.503,0-15.396-6.893-15.396-15.396V81.035h30.792v38.084
		C204.991,127.622,198.098,134.515,189.595,134.515z"/>
	<g>
		<path style="fill:#8C7954;" d="M244.698,364.832c-3.59,0-6.5-2.91-6.5-6.5v-14.585c0-3.59,2.91-6.5,6.5-6.5s6.5,2.91,6.5,6.5
			v14.585C251.198,361.922,248.287,364.832,244.698,364.832z"/>
		<path style="fill:#8C7954;" d="M207.964,364.832c-3.59,0-6.5-2.91-6.5-6.5v-14.585c0-3.59,2.91-6.5,6.5-6.5s6.5,2.91,6.5,6.5
			v14.585C214.464,361.922,211.553,364.832,207.964,364.832z"/>
		<path style="fill:#8C7954;" d="M171.23,364.832c-3.59,0-6.5-2.91-6.5-6.5v-14.585c0-3.59,2.91-6.5,6.5-6.5s6.5,2.91,6.5,6.5
			v14.585C177.73,361.922,174.82,364.832,171.23,364.832z"/>
		<path style="fill:#8C7954;" d="M134.496,364.832c-3.59,0-6.5-2.91-6.5-6.5v-14.585c0-3.59,2.91-6.5,6.5-6.5s6.5,2.91,6.5,6.5
			v14.585C140.996,361.922,138.086,364.832,134.496,364.832z"/>
	</g>
	<path style="fill:#8C7954;" d="M269.815,87.535H109.374c-3.59,0-6.5-2.91-6.5-6.5s2.91-6.5,6.5-6.5h160.441
		c3.59,0,6.5,2.91,6.5,6.5S273.405,87.535,269.815,87.535z"/>
</g>
</svg>