<?xml version="1.0" encoding="iso-8859-1"?>
<!-- Uploaded to: SVG Repo, www.svgrepo.com, Generator: SVG Repo Mixer Tools -->
<!DOCTYPE svg PUBLIC "-//W3C//DTD SVG 1.1//EN" "http://www.w3.org/Graphics/SVG/1.1/DTD/svg11.dtd">
<svg height="800px" width="800px" version="1.1" id="Capa_1" xmlns="http://www.w3.org/2000/svg" xmlns:xlink="http://www.w3.org/1999/xlink" 
	 viewBox="0 0 447.74 447.74" xml:space="preserve">
<g>
	<path style="fill:#E5C888;" d="M202.535,380.62v67.12h-56.99v-0.19c0-6.16,2.49-11.74,6.53-15.77c4.04-4.04,9.61-6.54,15.77-6.54
		v-50.1L202.535,380.62z"/>
	<path style="fill:#E5C888;" d="M302.195,447.55v0.19h-56.99v-60.37l34.69,5.48v32.39c6.16,0,11.73,2.5,15.77,6.54
		C299.705,435.81,302.195,441.39,302.195,447.55z"/>
	<path style="fill:#E5C888;" d="M313.775,173.07v142.11c0,6.14-1.85,11.98-5.12,16.86c-3.26,4.89-7.95,8.83-13.62,11.18
		c-4.89,2.02-10.26-1.57-10.26-6.86v-17.9h-12l9-25l-9.37-87.21L313.775,173.07z"/>
	<path style="fill:#E5C888;" d="M290.935,112.26c-33.18,63.49-113.86,76.15-113.86,76.15h-0.01l-11.1,105.05l9,25h-12v17.9
		c0,4.27-3.5,7.43-7.42,7.43c-0.93,0-1.9-0.18-2.84-0.57c-11.34-4.7-18.74-15.76-18.74-28.04V173.07c0-28.9,13.52-56.07,36.43-73.51
		c0.76-0.59,1.54-1.16,2.33-1.72c4.52,12.7,14.09,23.28,26.86,28.91l16.58,7.32c4.91,2.17,10.5,2.17,15.42,0l16.58-7.32
		c12.77-5.63,22.34-16.21,26.85-28.91c0.79,0.56,1.57,1.13,2.33,1.72C282.345,103.35,286.885,107.61,290.935,112.26z"/>
	<path style="fill:#E5C888;" d="M277.905,54.03v27.09c0,5.8-1,11.45-2.89,16.72c-4.51,12.7-14.08,23.28-26.85,28.91l-16.58,7.32
		c-4.92,2.17-10.51,2.17-15.42,0l-16.58-7.32c-6.47-2.85-12.13-6.98-16.71-12.01c-4.47-4.89-7.92-10.64-10.15-16.9
		c-1.4-3.92-2.31-8.05-2.69-12.29c-0.13-1.47-0.2-2.94-0.2-4.43V54.03c0-1.58,0.07-3.14,0.2-4.69c0.35-4.07,1.16-8.01,2.36-11.77
		c0.34,0.16,4.53,2.1,10.48,3.28c8.55,1.71,20.72,1.86,30.27-7.07c10.14-9.49,10.72-28.66,10.72-32.93
		c0,4.27,0.58,23.44,10.72,32.93c16.47,15.42,40.76,3.78,40.76,3.78C277.005,42.75,277.905,48.29,277.905,54.03z"/>
	<polygon style="fill:#C6AB75;" points="177.075,188.41 178.875,172.14 188.375,192.14 	"/>
	<path style="fill:#C6AB75;" d="M277.345,99.56c-0.47,3.19-1.26,6.29-2.33,9.28c-4.51,12.7-14.08,23.28-26.85,28.91l-16.58,7.32
		c-4.92,2.17-10.51,2.17-15.42,0l-16.58-7.32c-12.77-5.63-22.34-16.21-26.86-28.91c-1.07-2.99-1.85-6.09-2.33-9.28
		c0.76-0.59,1.54-1.16,2.33-1.72c4.52,12.7,14.09,23.28,26.86,28.91l16.58,7.32c4.91,2.17,10.5,2.17,15.42,0l16.58-7.32
		c12.77-5.63,22.34-16.21,26.85-28.91C275.805,98.4,276.585,98.97,277.345,99.56z"/>
	<path style="fill:#F15A24;" d="M279.895,392.85l-34.69-5.48l-42.67-6.75l-34.69-5.48l-15.14-2.39v-29.53
		c0.94,0.39,1.91,0.57,2.84,0.57c3.92,0,7.42-3.16,7.42-7.43v-17.9h12l-9-25l11.1-105.05h0.01c0,0,80.68-12.66,113.86-76.15
		c14.57,16.66,22.84,38.21,22.84,60.81l-41.37,33.18l9.37,87.21l-9,25h12v17.9c0,5.29,5.37,8.88,10.26,6.86v52.02L279.895,392.85z"
		/>
	<polygon style="fill:#C6AB75;" points="167.845,375.14 202.535,380.62 202.535,392.62 167.845,387.14 	"/>
	<polygon style="fill:#C6AB75;" points="279.895,392.85 279.895,404.85 245.205,399.37 245.205,387.37 	"/>
	<path style="fill:#666666;" d="M246.455,231.297c-3.59,0-6.5-2.91-6.5-6.5v-13.333c0-3.59,2.91-6.5,6.5-6.5s6.5,2.91,6.5,6.5
		v13.333C252.955,228.387,250.045,231.297,246.455,231.297z"/>
	<path style="fill:#666666;" d="M281.788,178.63c-3.59,0-6.5-2.91-6.5-6.5v-13.333c0-3.59,2.91-6.5,6.5-6.5s6.5,2.91,6.5,6.5v13.333
		C288.288,175.72,285.378,178.63,281.788,178.63z"/>
	<path style="fill:#666666;" d="M207.788,272.63c-3.59,0-6.5-2.91-6.5-6.5v-13.333c0-3.59,2.91-6.5,6.5-6.5s6.5,2.91,6.5,6.5v13.333
		C214.288,269.72,211.378,272.63,207.788,272.63z"/>
	<path style="fill:#666666;" d="M193.121,227.297c-3.59,0-6.5-2.91-6.5-6.5v-13.333c0-3.59,2.91-6.5,6.5-6.5s6.5,2.91,6.5,6.5
		v13.333C199.621,224.387,196.711,227.297,193.121,227.297z"/>
	<path style="fill:#666666;" d="M246.455,297.297c-3.59,0-6.5-2.91-6.5-6.5v-13.333c0-3.59,2.91-6.5,6.5-6.5s6.5,2.91,6.5,6.5
		v13.333C252.955,294.387,250.045,297.297,246.455,297.297z"/>
	<path style="fill:#666666;" d="M207.121,355.964c-3.59,0-6.5-2.91-6.5-6.5V336.13c0-3.59,2.91-6.5,6.5-6.5s6.5,2.91,6.5,6.5v13.333
		C213.621,353.054,210.711,355.964,207.121,355.964z"/>
	<path style="fill:#666666;" d="M259.788,373.297c-3.59,0-6.5-2.91-6.5-6.5v-13.333c0-3.59,2.91-6.5,6.5-6.5s6.5,2.91,6.5,6.5
		v13.333C266.288,370.387,263.378,373.297,259.788,373.297z"/>
	<path style="fill:#C6AB75;" d="M235.219,98.76h-22.694c-2.485,0-4.5-2.015-4.5-4.5s2.015-4.5,4.5-4.5h22.694
		c2.485,0,4.5,2.015,4.5,4.5S237.704,98.76,235.219,98.76z"/>
	<g>
		<path style="fill:#808080;" d="M249.962,76.519c-2.209,0-4-1.791-4-4V63.48c0-2.209,1.791-4,4-4s4,1.791,4,4v9.039
			C253.962,74.728,252.171,76.519,249.962,76.519z"/>
		<path style="fill:#808080;" d="M197.781,76.519c-2.209,0-4-1.791-4-4V63.48c0-2.209,1.791-4,4-4s4,1.791,4,4v9.039
			C201.781,74.728,199.99,76.519,197.781,76.519z"/>
	</g>
	<path style="fill:#A5997F;" d="M223.872,86.14L223.872,86.14c-3.59,0-6.5-2.91-6.5-6.5V66.301h13V79.64
		C230.372,83.23,227.462,86.14,223.872,86.14z"/>
	<path style="fill:#C6AB75;" d="M263.206,66.301h-78.669c-2.762,0-5-2.239-5-5s2.238-5,5-5h78.669c2.762,0,5,2.239,5,5
		S265.968,66.301,263.206,66.301z"/>
	<path style="fill:#8C7954;" d="M223.855,0c-14.91,0.01-28.42,6.05-38.19,15.82c-6.02,6.02-10.62,13.45-13.27,21.75l0,0
		c-1.2,3.76-2.01,7.7-2.36,11.77v112.8l12.84-27V56.366c0-7.656,5.8-13.939,13.4-14.866c5.729-0.699,11.685-2.871,16.87-7.72
		c10.14-9.49,10.72-28.66,10.72-32.93C223.865,0.3,223.855,0,223.855,0z"/>
	<path style="fill:#8C7954;" d="M223.865,0.85c0,4.27,0.58,23.44,10.72,32.93c5.185,4.849,11.141,7.021,16.87,7.72
		c7.6,0.927,13.4,7.21,13.4,14.866v78.774l12.84,27V49.34c-0.35-4.07-1.16-8.01-2.36-11.77l0,0c-2.65-8.3-7.25-15.73-13.27-21.75
		c-9.77-9.77-23.28-15.81-38.19-15.82C223.875,0,223.865,0.3,223.865,0.85z"/>
</g>
</svg>