<?xml version="1.0" encoding="iso-8859-1"?>
<!-- Uploaded to: SVG Repo, www.svgrepo.com, Generator: SVG Repo Mixer Tools -->
<svg fill="#000000" height="800px" width="800px" version="1.1" id="Layer_1" xmlns="http://www.w3.org/2000/svg" xmlns:xlink="http://www.w3.org/1999/xlink" 
	 viewBox="0 0 512 512" xml:space="preserve">
<g>
	<g>
		<path d="M420.374,100.304c-13.034,1.305-22.459,13.242-22.459,26.341v57.007c0,9.22-7.475,16.696-16.696,16.696
			s-16.696-7.475-16.696-16.696V59.863c0-13.099-9.425-25.037-22.459-26.341c-14.992-1.501-27.628,10.23-27.628,24.913v125.218
			c0,9.22-7.475,16.696-16.696,16.696c-9.221,0-16.696-7.475-16.696-16.696V26.471c0-13.099-9.425-25.037-22.459-26.341
			c-14.992-1.502-27.628,10.23-27.628,24.913v158.609c0,9.22-7.475,16.696-16.696,16.696c-9.22,0-16.696-7.475-16.696-16.696V59.863
			c0-13.099-9.425-25.037-22.459-26.341c-14.992-1.501-27.628,10.23-27.628,24.913v169.74c0,9.22-7.475,16.696-16.696,16.696
			c-9.22,0-16.696-7.475-16.696-16.696v-34.746c0-13.099-9.425-25.037-22.459-26.341c-14.992-1.502-27.628,10.23-27.628,24.913
			c0,17.088,0,112.033,0,122.968c0,107.62,88.069,199.014,195.67,196.998c104.346-1.955,188.332-87.153,188.332-191.966V125.217
			C448.002,110.534,435.366,98.803,420.374,100.304z M264.349,445.219c-55.295,0-100.174-45.311-100.174-100.174
			c0-54.986,45.022-100.174,100.174-100.174c55.281,0,100.174,45.298,100.174,100.174
			C364.523,399.941,319.606,445.219,264.349,445.219z"/>
	</g>
</g>
<g>
	<g>
		<path d="M328.64,327.203l-5.334,3.08c-2.63,1.522-5.5,2.245-8.337,2.245c-5.761,0-11.381-2.994-14.467-8.353
			c-4.609-7.984-1.88-18.196,6.108-22.804l5.343-3.085c-8.367-8.516-19.004-14.746-30.908-17.827v6.151
			c0,9.223-7.479,16.696-16.696,16.696c-9.217,0-16.696-7.473-16.696-16.696v-6.151c-11.904,3.081-22.54,9.31-30.908,17.827
			l5.343,3.085c7.989,4.609,10.718,14.82,6.108,22.804c-3.086,5.358-8.706,8.353-14.467,8.353c-2.837,0-5.707-0.722-8.337-2.245
			l-5.334-3.08c-1.582,5.689-2.492,11.655-2.492,17.84s0.91,12.151,2.492,17.84l5.334-3.08c7.967-4.615,18.196-1.886,22.804,6.108
			c4.609,7.984,1.88,18.196-6.108,22.804l-5.343,3.085c8.367,8.516,19.004,14.746,30.908,17.827v-6.148
			c0-9.223,7.479-16.696,16.696-16.696c9.217,0,16.696,7.473,16.696,16.696v6.151c11.904-3.081,22.54-9.31,30.908-17.827
			l-5.343-3.085c-7.989-4.609-10.718-14.82-6.108-22.804c4.598-7.995,14.837-10.723,22.804-6.108l5.334,3.08
			c1.582-5.689,2.492-11.655,2.492-17.84S330.221,332.893,328.64,327.203z M264.349,361.74c-9.22,0-16.696-7.475-16.696-16.696
			c0-9.22,7.475-16.696,16.696-16.696s16.696,7.475,16.696,16.696S273.569,361.74,264.349,361.74z"/>
	</g>
</g>
</svg>