<?xml version="1.0" encoding="iso-8859-1"?>
<!-- Uploaded to: SVG Repo, www.svgrepo.com, Generator: SVG Repo Mixer Tools -->
<svg fill="#000000" height="800px" width="800px" version="1.1" id="Layer_1" xmlns="http://www.w3.org/2000/svg" xmlns:xlink="http://www.w3.org/1999/xlink" 
	 viewBox="0 0 512 512" xml:space="preserve">
<g>
	<g>
		<path d="M202.621,26.279L178.967,2.625C177.286,0.944,175.008,0,172.631,0c-2.376,0-4.656,0.945-6.336,2.626l-23.641,23.653
			c-8.014,8.014-12.427,18.665-12.427,29.994c0,11.33,4.414,21.98,12.421,29.978c7.999,8.014,18.652,12.427,29.996,12.427
			c11.323,0,21.968-4.411,29.971-12.415c8.021-8.006,12.439-18.659,12.439-29.995C215.054,44.945,210.638,34.295,202.621,26.279z
			 M189.951,73.586c-4.624,4.626-10.77,7.171-17.306,7.171c-6.551,0-12.7-2.545-17.322-7.175c-4.627-4.622-7.175-10.771-7.175-17.31
			c0-6.542,2.549-12.694,7.18-17.325l17.307-17.315l17.316,17.318c4.633,4.632,7.185,10.782,7.185,17.318
			C197.135,62.812,194.586,68.96,189.951,73.586z"/>
	</g>
</g>
<g>
	<g>
		<path d="M369.358,205.212l-23.654-23.654c-3.499-3.499-9.172-3.499-12.67,0l-23.654,23.654c-16.529,16.529-16.53,43.434,0,59.979
			c8.008,8.009,18.658,12.419,29.988,12.419c11.316,0,21.964-4.408,29.995-12.425c8.005-8.02,12.415-18.669,12.415-29.984
			C381.778,223.871,377.367,213.221,369.358,205.212z M356.693,252.514c-4.636,4.628-10.79,7.177-17.325,7.177
			c-6.543,0-12.693-2.547-17.315-7.168c-9.548-9.556-9.549-25.095-0.004-34.641l17.319-17.319l17.319,17.319
			c4.625,4.625,7.171,10.776,7.171,17.319C363.858,241.736,361.309,247.89,356.693,252.514z"/>
	</g>
</g>
<g>
	<g>
		<path d="M413.4,289.115h-12.678c-4.948,0-8.96,4.012-8.96,8.96c0,4.948,4.012,8.96,8.96,8.96H413.4
			c13.049,0,23.666,10.622,23.666,23.678c0,4.839-1.888,9.398-5.308,12.827c-0.248,0.249-0.511,0.489-0.774,0.714
			c-0.031,0.026-0.062,0.054-0.093,0.081c-3.289,2.91-7.536,4.512-11.958,4.512H314.509c-26.053,0-47.248,21.191-47.248,47.236
			v15.064c0,7.062-5.74,12.807-12.795,12.807c-2.662,0-5.205-0.808-7.377-2.35c-0.608-0.43-1.172-0.902-1.665-1.395
			c-2.419-2.428-3.752-5.645-3.752-9.06v-80.435c0-13.056,10.617-23.678,23.666-23.678h105.52c4.948,0,8.96-4.012,8.96-8.96
			c0-4.948-4.012-8.96-8.96-8.96h-91.794v-29.802c0.063-0.062,0.133-0.118,0.196-0.18c5.806-5.806,9.004-13.52,9.004-21.722v-80.447
			c0-22.93-18.66-41.586-41.597-41.586H98.612c-22.937,0-41.597,18.656-41.597,41.586c0,8.98,3.26,17.451,9.211,24.063v59.484
			c0,4.948,4.012,8.96,8.96,8.96c4.948,0,8.96-4.012,8.96-8.96v-48.604c2.89,0.736,5.882,1.123,8.936,1.123h104.424
			c16.165,0,29.317,13.152,29.317,29.317v15.064c0,16.936,13.778,30.714,30.714,30.714c1.208,0,2.412-0.078,3.608-0.22v21.421
			c-20.968,2.11-37.392,19.865-37.392,41.386v80.435c0,8.192,3.19,15.904,8.992,21.722c0.069,0.069,0.148,0.131,0.219,0.201v61.009
			H84.145V270.376c0-4.948-4.012-8.96-8.96-8.96c-4.948,0-8.96,4.012-8.96,8.96V503.04c0,4.948,4.012,8.96,8.96,8.96h166.736
			h194.906c4.948,0,8.96-4.012,8.96-8.96V354.771c5.945-6.63,9.199-15.098,9.199-24.058
			C454.986,307.776,436.33,289.115,413.4,289.115z M257.534,250.206c-7.054,0-12.793-5.74-12.793-12.795v-15.064
			c0-26.046-21.191-47.236-47.236-47.236H93.081c-3.946,0-7.695-1.245-10.888-3.635c-0.644-0.475-1.295-1.043-1.946-1.693
			c-3.426-3.418-5.313-7.971-5.313-12.818c0-13.049,10.622-23.666,23.678-23.666h148.052c13.056,0,23.678,10.617,23.678,23.666
			v80.447c0,3.416-1.333,6.63-3.728,9.026c-0.9,0.892-1.902,1.641-2.979,2.224c-0.001,0-0.001,0.001-0.002,0.001
			C261.77,249.672,259.663,250.206,257.534,250.206z M427.867,494.08H250.881v-52.435c1.184,0.137,2.376,0.229,3.584,0.229
			c16.936,0,30.714-13.784,30.714-30.726v-15.064c0-16.165,13.157-29.317,29.328-29.317h104.424c3.042,0,6.04-0.391,8.936-1.13
			V494.08z"/>
	</g>
</g>
</svg>