<?xml version="1.0" encoding="iso-8859-1"?>
<!-- Uploaded to: SVG Repo, www.svgrepo.com, Generator: SVG Repo Mixer Tools -->
<svg height="800px" width="800px" version="1.1" id="Layer_1" xmlns="http://www.w3.org/2000/svg" xmlns:xlink="http://www.w3.org/1999/xlink" 
	 viewBox="0 0 512.001 512.001" xml:space="preserve">
<path style="fill:#F95428;" d="M255.997,24.291c3.153,0.012,6.157,0.878,8.744,2.414c70.046,40.821,115.152,112.195,122.048,192.313
	c33.602,20.988,61.856,49.889,82.082,84.045c22.49,37.98,34.376,81.504,34.376,125.86c0,4.054-0.104,8.155-0.3,12.175
	c-0.289,5.903-3.558,11.239-8.686,14.185c-37.229,21.323-79.702,32.597-122.822,32.597c-40.359,0-80.083-9.853-115.522-28.589
	c-35.45,18.736-75.174,28.589-115.534,28.589c-43.12,0-85.593-11.274-122.822-32.597c-5.117-2.945-8.398-8.294-8.686-14.185
	c-0.196-4.031-0.3-8.12-0.3-12.175c0-44.356,11.886-87.88,34.376-125.849c20.226-34.156,48.48-63.057,82.082-84.045
	c6.884-79.991,51.864-151.272,121.713-192.117c2.657-1.663,5.799-2.622,9.16-2.622h0.012c0.012,0,0.035,0,0.035,0
	C255.973,24.291,255.973,24.291,255.997,24.291z M468.594,429.791c0-0.289,0-0.578,0-0.866c0-38.153-10.211-75.567-29.536-108.199
	c-13.572-22.917-31.338-43.074-52.211-59.419c-3.096,36.825-14.37,72.541-33.082,104.387c-16.31,27.746-37.911,52.061-63.381,71.524
	c25.562,10.523,53.135,16.01,81.054,16.01C405.305,453.228,438.688,445.154,468.594,429.791z M353.06,240.55
	c0-0.289,0-0.589,0-0.878c-29.894-15.351-63.277-23.426-97.144-23.426c-33.879,0-67.273,8.074-97.156,23.437
	c0,0.289,0,0.578,0,0.866c0,37.899,10.096,75.105,29.178,107.586c16.818,28.612,40.186,52.985,67.978,71.016
	c27.792-18.031,51.16-42.404,67.966-71.016C342.976,315.655,353.06,278.449,353.06,240.55z M349.167,199.798
	c-10.916-56.462-44.275-106.154-93.252-137.85c-48.976,31.685-82.347,81.377-93.263,137.862
	c29.455-11.978,61.174-18.216,93.263-18.216C287.993,181.593,319.712,187.831,349.167,199.798z M221.447,437.218
	c-25.47-19.464-47.082-43.778-63.381-71.524c-18.713-31.835-29.998-67.562-33.082-104.375
	c-20.884,16.333-38.65,36.501-52.211,59.407c-19.325,32.632-29.548,70.046-29.548,108.199c0,0.289,0,0.578,0,0.866
	c29.906,15.363,63.288,23.437,97.156,23.437C168.313,453.228,195.873,447.741,221.447,437.218z"/>
<path d="M476.415,298.565c-2.437-4.117-7.751-5.478-11.868-3.04c-4.117,2.438-5.478,7.752-3.04,11.869
	c21.697,36.643,33.167,78.638,33.167,121.447c0,3.86-0.097,7.815-0.29,11.751c-0.144,2.963-1.77,5.615-4.34,7.091
	c-35.924,20.576-76.906,31.451-118.517,31.451c-38.793,0-77.34-9.539-111.472-27.584c-2.533-1.339-5.564-1.34-8.098,0
	c-34.146,18.046-72.697,27.585-111.485,27.585c-41.61,0-82.593-10.875-118.501-31.442c-2.582-1.487-4.212-4.141-4.356-7.098
	c-0.191-3.952-0.288-7.907-0.288-11.756c0-42.812,11.469-84.803,33.167-121.434c19.447-32.841,46.839-60.889,79.217-81.111
	c2.311-1.444,3.81-3.89,4.043-6.605c3.262-37.911,15.687-74.858,35.933-106.848c20.285-32.053,48.474-59.208,81.52-78.533
	c0.074-0.044,0.149-0.089,0.222-0.135c1.362-0.851,2.941-1.302,4.627-1.302c1.534,0.006,3.038,0.42,4.411,1.236
	c33.139,19.313,61.408,46.484,81.75,78.574c20.302,32.026,32.76,69.026,36.028,106.997c0.233,2.715,1.732,5.161,4.042,6.605
	c24.376,15.225,45.628,34.532,63.168,57.382c2.912,3.795,8.35,4.511,12.147,1.598c3.796-2.913,4.511-8.351,1.598-12.147
	c-17.928-23.357-39.476-43.262-64.096-59.214c-4.05-39.224-17.233-77.341-38.251-110.497c-21.822-34.424-52.134-63.563-87.598-84.23
	c-3.969-2.358-8.511-3.612-13.137-3.629c-0.01,0-0.113,0-0.122,0c-4.832,0-9.543,1.336-13.636,3.867
	c-35.384,20.712-65.576,49.814-87.313,84.164c-20.959,33.117-34.107,71.181-38.15,110.338c-33.135,21.49-61.19,50.684-81.311,84.663
	C12.305,337.878,0,382.922,0,428.839c0,4.13,0.105,8.368,0.311,12.599c0.435,8.877,5.302,16.828,13.034,21.278
	c38.54,22.074,82.501,33.742,127.128,33.742c40.073,0,79.918-9.497,115.532-27.5c35.604,18.003,75.443,27.5,115.523,27.5
	c44.627,0,88.587-11.668,127.137-33.748c7.722-4.434,12.589-12.387,13.025-21.275c0.206-4.217,0.311-8.457,0.311-12.598
	C512,382.927,499.696,337.878,476.415,298.565z"/>
<path d="M157.243,206.418c1.576,1.296,3.527,1.969,5.501,1.969c1.101,0,2.209-0.21,3.262-0.638
	c28.681-11.664,58.962-17.577,90-17.577c31.021,0,61.299,5.911,89.991,17.567c2.944,1.197,6.308,0.685,8.761-1.333
	c2.456-2.018,3.609-5.218,3.006-8.338c-5.667-29.315-16.999-56.708-33.678-81.414c-16.748-24.807-38.069-45.689-63.371-62.064
	c-2.865-1.854-6.548-1.854-9.413-0.001c-25.305,16.371-46.629,37.25-63.378,62.057c-16.683,24.711-28.017,52.109-33.684,81.435
	C153.633,201.2,154.787,204.401,157.243,206.418z M256.005,72.271c40.142,27.524,68.492,67.345,81.173,113.74
	c-26.15-8.743-53.384-13.166-81.172-13.166c-27.8,0-55.038,4.425-81.184,13.173C187.503,139.617,215.859,99.788,256.005,72.271z"/>
<path d="M142.272,453.311c0.228,4.634,4.057,8.239,8.646,8.238c0.142,0,0.286-0.003,0.431-0.01
	c25.343-1.244,50.068-6.76,73.484-16.394c2.868-1.181,4.887-3.804,5.293-6.88c0.407-3.076-0.864-6.132-3.329-8.015
	c-24.829-18.974-45.411-42.199-61.172-69.031c-17.915-30.475-28.95-65.3-31.918-100.709c-0.265-3.172-2.249-5.943-5.166-7.216
	c-2.918-1.274-6.299-0.846-8.804,1.115c-21.91,17.135-40.188,37.934-54.328,61.817c-20.121,33.977-30.756,72.918-30.756,112.615
	v0.866c0,3.248,1.816,6.223,4.705,7.706c25.4,13.048,52.774,20.959,81.363,23.513c4.76,0.426,8.974-3.092,9.4-7.858
	c0.425-4.766-3.093-8.974-7.859-9.4c-24.579-2.196-48.179-8.685-70.235-19.303c0.765-35.039,10.507-69.282,28.291-99.31
	c10.347-17.478,23.1-33.165,38.024-46.794c4.832,32.307,15.882,63.729,32.344,91.737c14.296,24.335,32.284,45.902,53.598,64.283
	c-17.367,5.711-35.399,9.051-53.785,9.954C145.721,444.467,142.037,448.532,142.272,453.311z"/>
<path d="M256.006,427.73c1.64,0,3.282-0.466,4.715-1.395c28.873-18.733,53.328-44.286,70.72-73.893
	c19.869-33.801,30.372-72.522,30.372-111.977v-0.878c0-3.248-1.816-6.223-4.706-7.707c-31.062-15.951-66.021-24.382-101.1-24.382
	c-35.108,0-70.073,8.436-101.117,24.395c-2.888,1.484-4.702,4.459-4.702,7.705v0.866c0,39.434,10.503,78.154,30.373,111.976
	c17.406,29.613,41.864,55.165,70.731,73.894C252.724,427.264,254.366,427.73,256.006,427.73z M195.498,343.663
	c-17.556-29.883-27.175-63.923-27.937-98.722c27.398-13.174,57.859-20.115,88.444-20.115c30.561,0,61.018,6.939,88.432,20.107
	c-0.759,34.821-10.377,68.863-27.936,98.731c-15.081,25.674-35.921,48.041-60.496,64.982
	C231.434,391.706,210.591,369.339,195.498,343.663z"/>
<path d="M287.176,445.144c26.857,11.056,55.236,16.661,84.35,16.661c35.085,0,70.05-8.436,101.114-24.395
	c2.889-1.484,4.705-4.459,4.705-7.706v-0.866c0-39.709-10.632-78.65-30.745-112.613c-14.134-23.866-32.411-44.666-54.323-61.825
	c-2.507-1.963-5.888-2.393-8.805-1.119c-2.917,1.273-4.902,4.043-5.169,7.215c-2.978,35.425-14.015,70.255-31.918,100.723
	c-15.781,26.847-36.363,50.071-61.172,69.031c-2.465,1.883-3.733,4.94-3.329,8.014C282.29,441.339,284.308,443.963,287.176,445.144z
	 M361.325,369.998c16.452-28.001,27.501-59.427,32.339-91.743c14.93,13.643,27.684,29.333,38.03,46.8
	c17.776,30.014,27.512,64.26,28.278,99.307c-27.416,13.175-57.879,20.117-88.444,20.117c-21.85,0-43.249-3.424-63.807-10.196
	C329.02,415.912,347.012,394.345,361.325,369.998z"/>
</svg>