<?xml version="1.0" encoding="iso-8859-1"?>
<!-- Uploaded to: SVG Repo, www.svgrepo.com, Generator: SVG Repo Mixer Tools -->
<svg fill="#000000" height="800px" width="800px" version="1.1" id="Layer_1" xmlns="http://www.w3.org/2000/svg" xmlns:xlink="http://www.w3.org/1999/xlink" 
	 viewBox="0 0 512 512" xml:space="preserve">
<g>
	<g>
		<path d="M510.857,466.04l-179.13-310.26c-2.357-4.081-7.576-5.479-11.656-3.123c-4.081,2.356-5.479,7.575-3.123,11.656
			l171.74,297.461H23.314L256.006,58.759l43.175,74.783c2.356,4.082,7.577,5.479,11.656,3.123c4.081-2.356,5.479-7.575,3.123-11.656
			l-50.565-87.583c-1.525-2.641-4.341-4.267-7.39-4.267c-3.048,0-5.865,1.627-7.39,4.267L1.143,466.04
			c-1.525,2.64-1.525,5.892,0,8.533c1.525,2.641,4.341,4.267,7.39,4.267h494.934c3.049,0,5.865-1.626,7.39-4.267
			C512.381,471.933,512.381,468.68,510.857,466.04z"/>
	</g>
</g>
<g>
	<g>
		<path d="M398.119,333.455c-18.22-38.715-51.811-68.589-92.285-82.134c-0.367-0.123-1.266-0.414-1.302-0.424
			c-0.393-0.127-0.786-0.254-1.18-0.378c-15.266-4.824-31.188-7.271-47.346-7.271c-16.625,0-32.991,2.587-48.641,7.689
			c-40.998,13.348-75.067,43.425-93.471,82.518c-1.084,2.302-1.084,4.967,0,7.27c4.667,9.911,10.404,19.37,17.049,28.115
			c1.679,2.21,4.224,3.37,6.8,3.37c1.8,0,3.613-0.568,5.157-1.74c3.752-2.851,4.482-8.204,1.63-11.957
			c-5.106-6.72-9.611-13.911-13.42-21.424c11.215-22.125,28.137-40.791,48.662-54.168c-5.372,11.208-8.245,23.627-8.245,36.545
			c0,46.582,37.897,84.478,84.478,84.478c46.576,0,84.467-37.896,84.467-84.478c0-12.923-2.877-25.35-8.26-36.567
			c20.54,13.381,37.472,32.055,48.688,54.191c-11.201,22.109-28.062,40.858-48.962,54.391
			c-22.613,14.643-48.87,22.383-75.932,22.383c-33.627,0-66.131-12.106-91.524-34.088c-3.565-3.086-8.954-2.696-12.036,0.867
			c-3.084,3.563-2.696,8.952,0.867,12.036c28.494,24.668,64.966,38.252,102.694,38.252c30.362,0,59.826-8.688,85.21-25.124
			c24.712-16.001,44.388-38.507,56.902-65.083C399.202,338.422,399.202,335.758,398.119,333.455z M256.006,386.876
			c-37.17,0-67.412-30.24-67.412-67.412c0-20.745,9.278-39.871,25.477-52.734c13.513-4.246,27.61-6.418,41.935-6.418
			c14.315,0,28.411,2.171,41.93,6.412c16.195,12.882,25.471,32.01,25.471,52.739C323.406,356.634,293.17,386.876,256.006,386.876z"
			/>
	</g>
</g>
<g>
	<g>
		<path d="M96.595,189.771l-61.427-46.079c-3.769-2.828-9.119-2.064-11.946,1.706c-2.828,3.771-2.064,9.119,1.706,11.946
			l61.427,46.079c1.535,1.151,3.332,1.708,5.114,1.708c2.594,0,5.156-1.179,6.832-3.413
			C101.129,197.948,100.365,192.599,96.595,189.771z"/>
	</g>
</g>
<g>
	<g>
		<path d="M152.546,134.391L135.48,78.073c-1.366-4.51-6.129-7.059-10.641-5.692c-4.51,1.366-7.059,6.131-5.691,10.641
			l17.066,56.319c1.116,3.685,4.502,6.061,8.163,6.061c0.819,0,1.653-0.119,2.478-0.369
			C151.365,143.666,153.914,138.901,152.546,134.391z"/>
	</g>
</g>
<g>
	<g>
		<path d="M59.049,263.156H11.275c-4.713,0-8.533,3.821-8.533,8.533c0,4.713,3.821,8.533,8.533,8.533h47.774
			c4.713,0,8.533-3.821,8.533-8.533C67.582,266.977,63.762,263.156,59.049,263.156z"/>
	</g>
</g>
<g>
	<g>
		<path d="M488.789,145.399c-2.827-3.769-8.176-4.534-11.946-1.707l-61.439,46.079c-3.769,2.827-4.534,8.176-1.707,11.946
			c1.677,2.235,4.239,3.413,6.833,3.413c1.781,0,3.579-0.556,5.113-1.707l61.439-46.079
			C490.851,154.518,491.616,149.17,488.789,145.399z"/>
	</g>
</g>
<g>
	<g>
		<path d="M387.16,72.38c-4.505-1.366-9.274,1.181-10.641,5.692l-17.066,56.319c-1.368,4.51,1.181,9.274,5.692,10.641
			c0.825,0.25,1.658,0.369,2.478,0.369c3.661,0,7.046-2.376,8.163-6.061l17.066-56.319C394.219,78.512,391.671,73.748,387.16,72.38z
			"/>
	</g>
</g>
<g>
	<g>
		<path d="M500.735,263.156h-47.786c-4.713,0-8.533,3.821-8.533,8.533c0,4.713,3.819,8.533,8.533,8.533h47.786
			c4.714,0,8.533-3.821,8.533-8.533C509.268,266.977,505.449,263.156,500.735,263.156z"/>
	</g>
</g>
</svg>