<?xml version="1.0" encoding="iso-8859-1"?>
<!-- Uploaded to: SVG Repo, www.svgrepo.com, Generator: SVG Repo Mixer Tools -->
<svg fill="#000000" height="800px" width="800px" version="1.1" id="Layer_1" xmlns="http://www.w3.org/2000/svg" xmlns:xlink="http://www.w3.org/1999/xlink" 
	 viewBox="0 0 512 512" xml:space="preserve">
<g>
	<g>
		<path d="M256,272.696c-27.619,0-50.087,22.468-50.087,50.087c0,27.619,22.468,50.087,50.087,50.087s50.087-22.468,50.087-50.087
			S283.619,272.696,256,272.696z"/>
	</g>
</g>
<g>
	<g>
		<path d="M504.163,447.935L270.424,47.239c-3-5.13-8.489-8.282-14.424-8.282s-11.424,3.152-14.424,8.282L7.837,447.934
			c-3.011,5.163-3.033,11.543-0.055,16.728c2.979,5.185,8.5,8.381,14.478,8.381h467.478c5.978,0,11.5-3.196,14.478-8.38
			C507.196,459.479,507.174,453.098,504.163,447.935z M256,372.87c-54.435,0-102.283-32.104-124.804-50.087
			c22.532-17.989,70.37-50.087,124.804-50.087c54.434,0,102.283,32.103,124.804,50.087C358.272,340.772,310.435,372.87,256,372.87z"
			/>
	</g>
</g>
<g>
	<g>
		<path d="M150.261,38.957c-9.217,0-16.696,7.473-16.696,16.696v33.391c0,9.223,7.479,16.696,16.696,16.696
			c9.217,0,16.696-7.473,16.696-16.696V55.652C166.957,46.43,159.478,38.957,150.261,38.957z"/>
	</g>
</g>
<g>
	<g>
		<path d="M50.087,172.522H16.696C7.479,172.522,0,179.995,0,189.217s7.479,16.696,16.696,16.696h33.391
			c9.217,0,16.696-7.473,16.696-16.696C66.783,179.994,59.304,172.522,50.087,172.522z"/>
	</g>
</g>
<g>
	<g>
		<path d="M91.227,106.581L67.62,82.967c-6.521-6.521-17.087-6.521-23.609,0c-6.521,6.516-6.521,17.087,0,23.609L67.62,130.19
			c3.261,3.26,7.533,4.891,11.804,4.891c4.272,0,8.544-1.631,11.804-4.892C97.749,123.674,97.749,113.102,91.227,106.581z"/>
	</g>
</g>
<g>
	<g>
		<path d="M361.739,38.957c-9.217,0-16.696,7.473-16.696,16.696v33.391c0,9.223,7.479,16.696,16.696,16.696
			s16.696-7.473,16.696-16.696V55.652C378.435,46.43,370.956,38.957,361.739,38.957z"/>
	</g>
</g>
<g>
	<g>
		<path d="M495.304,172.522h-33.391c-9.217,0-16.696,7.473-16.696,16.696c0,9.223,7.479,16.696,16.696,16.696h33.391
			c9.217,0,16.696-7.473,16.696-16.696C512,179.995,504.521,172.522,495.304,172.522z"/>
	</g>
</g>
<g>
	<g>
		<path d="M467.989,82.967c-6.521-6.521-17.087-6.521-23.609,0l-23.609,23.614c-6.521,6.521-6.521,17.092,0,23.609
			c3.261,3.261,7.533,4.892,11.804,4.892s8.544-1.632,11.805-4.892l23.609-23.614C474.51,100.055,474.51,89.484,467.989,82.967z"/>
	</g>
</g>
</svg>