<?xml version="1.0" encoding="iso-8859-1"?>
<!-- Uploaded to: SVG Repo, www.svgrepo.com, Generator: SVG Repo Mixer Tools -->
<svg fill="#000000" height="800px" width="800px" version="1.1" id="Layer_1" xmlns="http://www.w3.org/2000/svg" xmlns:xlink="http://www.w3.org/1999/xlink" 
	 viewBox="0 0 512 512" xml:space="preserve">
<g>
	<g>
		<path d="M495.304,389.565h-22.261V205.913c0-64.442-52.428-116.87-116.87-116.87c-42.464,0-79.707,22.767-100.174,56.733
			c-20.467-33.966-57.71-56.733-100.174-56.733c-64.442,0-116.87,52.428-116.87,116.87v183.652H16.696
			C7.475,389.565,0,397.04,0,406.261s7.475,16.696,16.696,16.696c7.778,0,461.184,0,478.609,0c9.22,0,16.696-7.475,16.696-16.696
			S504.525,389.565,495.304,389.565z M239.304,389.565H72.348V205.913c0-46.03,37.448-83.478,83.478-83.478
			s83.478,37.448,83.478,83.478V389.565z M439.652,389.565H272.696V205.913c0-46.03,37.448-83.478,83.478-83.478
			c46.03,0,83.478,37.448,83.478,83.478V389.565z"/>
	</g>
</g>
<g>
	<g>
		<path d="M189.217,322.783h-66.783c-9.22,0-16.696,7.475-16.696,16.696s7.475,16.696,16.696,16.696h66.783
			c9.22,0,16.696-7.475,16.696-16.696S198.438,322.783,189.217,322.783z"/>
	</g>
</g>
<g>
	<g>
		<path d="M389.565,322.783h-66.783c-9.22,0-16.696,7.475-16.696,16.696s7.475,16.696,16.696,16.696h66.783
			c9.22,0,16.696-7.475,16.696-16.696S398.786,322.783,389.565,322.783z"/>
	</g>
</g>
<g>
	<g>
		<path d="M189.217,189.217h-16.696v-16.696c0-9.22-7.475-16.696-16.696-16.696s-16.696,7.475-16.696,16.696v16.696h-16.696
			c-9.22,0-16.696,7.475-16.696,16.696c0,9.22,7.475,16.696,16.696,16.696h16.696v50.087c0,9.22,7.475,16.696,16.696,16.696
			s16.696-7.475,16.696-16.696v-50.087h16.696c9.22,0,16.696-7.475,16.696-16.696C205.913,196.693,198.438,189.217,189.217,189.217z
			"/>
	</g>
</g>
<g>
	<g>
		<path d="M389.565,189.217H372.87v-16.696c0-9.22-7.475-16.696-16.696-16.696c-9.22,0-16.696,7.475-16.696,16.696v16.696h-16.696
			c-9.22,0-16.696,7.475-16.696,16.696c0,9.22,7.475,16.696,16.696,16.696h16.696v50.087c0,9.22,7.475,16.696,16.696,16.696
			c9.22,0,16.696-7.475,16.696-16.696v-50.087h16.696c9.22,0,16.696-7.475,16.696-16.696
			C406.261,196.693,398.786,189.217,389.565,189.217z"/>
	</g>
</g>
</svg>