<?xml version="1.0" encoding="iso-8859-1"?>
<!-- Uploaded to: SVG Repo, www.svgrepo.com, Generator: SVG Repo Mixer Tools -->
<svg height="800px" width="800px" version="1.1" id="Layer_1" xmlns="http://www.w3.org/2000/svg" xmlns:xlink="http://www.w3.org/1999/xlink" 
	 viewBox="0 0 512 512" xml:space="preserve">
<polygon style="fill:#F7B239;" points="420.477,114.133 420.477,163.881 402.52,163.881 109.296,163.881 91.34,163.881 
	91.34,114.133 159.801,114.133 352.015,114.133 "/>
<polygon style="fill:#E09B2D;" points="123.249,114.133 123.249,163.881 121.508,163.881 93.081,163.881 91.34,163.881 
	91.34,114.133 97.977,114.133 116.611,114.133 "/>
<path style="fill:#E6E6E6;" d="M109.296,163.881l2.807,25.762l34.207,313.562h219.184l34.219-313.562l2.807-25.762L109.296,163.881
	L109.296,163.881z"/>
<g>
	<polygon style="fill:#CCCCCC;" points="402.52,163.881 399.713,189.642 112.103,189.642 109.296,163.881 	"/>
	<polygon style="fill:#CCCCCC;" points="109.296,163.881 146.31,503.204 178.65,503.204 149.56,163.881 	"/>
</g>
<polygon style="fill:#F7B239;" points="322.096,262.072 322.096,313.584 281.67,313.584 281.67,437.479 230.146,437.479 
	230.146,313.584 189.721,313.584 189.721,262.072 230.146,262.072 230.146,215.404 281.67,215.404 281.67,262.072 "/>
<g>
	<path style="fill:#CCCCCC;" d="M217.33,15.74c9.026,9.014,9.026,23.642,0,32.656c-9.014,9.026-23.642,9.026-32.656,0
		c-9.026-9.014-9.026-23.642,0-32.656C193.689,6.715,208.317,6.715,217.33,15.74z"/>
	<path style="fill:#CCCCCC;" d="M327.142,15.74c9.014,9.014,9.014,23.642,0,32.656c-9.026,9.026-23.642,9.026-32.667,0
		c-9.014-9.014-9.014-23.642,0-32.656C303.5,6.715,318.116,6.715,327.142,15.74z"/>
</g>
<path d="M420.569,105.162h-59.578V66.075c0-2.869-1.386-5.561-3.72-7.229l-17.727-12.662c5.918-11.957,3.915-26.869-6.029-36.813
	C327.472,3.328,319.44,0,310.9,0c-8.54,0-16.572,3.328-22.615,9.371c-12.466,12.466-12.466,32.751,0,45.218
	c6.042,6.043,14.074,9.371,22.615,9.371c5.92,0,11.592-1.601,16.53-4.595l15.794,11.281v34.515H168.777V70.647l15.791-11.28
	c4.934,2.993,10.607,4.593,16.527,4.593c8.542,0,16.572-3.328,22.609-9.371c6.043-6.037,9.371-14.067,9.371-22.609
	c0-8.545-3.33-16.575-9.367-22.604C217.67,3.33,209.639,0,201.095,0c-8.543,0-16.575,3.33-22.605,9.368
	c-6.045,6.037-9.375,14.068-9.375,22.612c0,5.017,1.156,9.854,3.326,14.215l-17.711,12.651c-2.335,1.668-3.72,4.36-3.72,7.229
	v39.087H91.431c-4.906,0-8.883,3.977-8.883,8.883v49.747c0,4.906,3.977,8.883,8.883,8.883h9.99l36.151,331.403
	c0.492,4.507,4.297,7.92,8.831,7.92h219.184c4.533,0,8.34-3.414,8.831-7.92l36.161-331.403h9.99c4.906,0,8.883-3.977,8.883-8.883
	v-49.747C429.453,109.14,425.475,105.162,420.569,105.162z M300.848,42.027c-5.54-5.54-5.54-14.553,0-20.092
	c2.772-2.772,6.413-4.157,10.053-4.157s7.281,1.386,10.052,4.157c5.54,5.54,5.54,14.553,0,20.092
	C315.41,47.57,306.391,47.57,300.848,42.027z M191.052,21.93c2.682-2.685,6.248-4.163,10.043-4.163c3.795,0,7.361,1.479,10.05,4.172
	c2.684,2.682,4.163,6.247,4.163,10.042s-1.479,7.361-4.163,10.043c-0.002,0.002-0.005,0.005-0.008,0.008
	c-2.682,2.685-6.248,4.163-10.043,4.163c-3.795,0-7.361-1.478-10.05-4.17c-2.684-2.682-4.163-6.247-4.163-10.043
	C186.882,28.185,188.36,24.62,191.052,21.93z M411.686,154.909H200.923c-4.906,0-8.883,3.977-8.883,8.883s3.977,8.883,8.883,8.883
	h191.784L357.62,494.233H154.369l-35.077-321.557h51.426c4.906,0,8.883-3.977,8.883-8.883s-3.977-8.883-8.883-8.883h-70.404v-31.98
	h311.37v31.98H411.686z"/>
<path d="M180.93,261.984v51.512c0,4.906,3.977,8.883,8.883,8.883h31.542v115.011c0,4.906,3.977,8.883,8.883,8.883h51.524
	c4.906,0,8.883-3.977,8.883-8.883v-64.992c0-4.906-3.977-8.883-8.883-8.883c-4.906,0-8.883,3.977-8.883,8.883v56.109h-33.757
	V313.497c0-4.906-3.977-8.883-8.883-8.883h-31.542v-33.745h31.542c4.906,0,8.883-3.977,8.883-8.883V224.2h33.757v37.784
	c0,4.906,3.977,8.883,8.883,8.883h31.542v33.745h-31.542c-4.906,0-8.883,3.977-8.883,8.883v29.29c0,4.906,3.977,8.883,8.883,8.883
	s8.883-3.977,8.883-8.883V322.38h31.542c4.906,0,8.883-3.977,8.883-8.883v-51.512c0-4.906-3.977-8.883-8.883-8.883h-31.542v-37.784
	c0-4.906-3.977-8.883-8.883-8.883h-51.524c-4.906,0-8.883,3.977-8.883,8.883v37.784h-31.542
	C184.907,253.101,180.93,257.078,180.93,261.984z"/>
</svg>