<?xml version="1.0" encoding="iso-8859-1"?>
<!-- Uploaded to: SVG Repo, www.svgrepo.com, Generator: SVG Repo Mixer Tools -->
<svg height="800px" width="800px" version="1.1" id="Layer_1" xmlns="http://www.w3.org/2000/svg" xmlns:xlink="http://www.w3.org/1999/xlink" 
	 viewBox="0 0 512 512" xml:space="preserve">
<path style="fill:#F7B239;" d="M412.01,200.471V355.99c0,43.082-17.47,82.088-45.696,110.314C338.076,494.542,299.07,512,256,512
	c-86.165,0-156.01-69.845-156.01-156.01V142.317c0-8.633,3.489-16.451,9.149-22.099c5.648-5.648,13.453-9.149,22.087-9.149
	c5.024,0,9.76,1.187,13.957,3.285c10.252,5.12,17.29,15.72,17.29,27.962V72.459c0-8.633,3.501-16.439,9.149-22.087
	c5.648-5.66,13.465-9.149,22.087-9.149c17.267,0,31.248,13.981,31.248,31.236V31.248c0-8.621,3.501-16.439,9.149-22.099
	C239.765,3.501,247.583,0,256.204,0c17.255,0,31.236,13.993,31.236,31.248v33.238c0-17.255,13.993-31.248,31.248-31.248
	c17.255,0,31.236,13.993,31.236,31.248v135.986c0-12.111,6.931-22.602,17.051-27.71c4.209-2.134,8.957-3.333,13.993-3.333
	C398.113,169.428,412.01,183.325,412.01,200.471z"/>
<g>
	<path style="fill:#F2F2F2;" d="M254.975,285.926c-48.624,0-88.183,39.558-88.183,88.183s39.558,88.183,88.183,88.183
		s88.183-39.558,88.183-88.183S303.599,285.926,254.975,285.926z M292.89,383.102h31.685c-1.624,12.635-6.613,24.225-14.047,33.844
		l-22.385-22.385c-3.512-3.512-9.206-3.512-12.717,0c-3.512,3.512-3.512,9.205,0,12.717l22.385,22.385
		c-9.619,7.434-21.209,12.422-33.844,14.047v-31.686c0-4.967-4.026-8.993-8.993-8.993c-4.967,0-8.993,4.026-8.993,8.993v31.686
		c-12.635-1.625-24.225-6.613-33.844-14.047l22.385-22.385c3.512-3.512,3.512-9.205,0-12.717c-3.512-3.512-9.206-3.512-12.717,0
		l-22.385,22.385c-7.434-9.619-12.422-21.209-14.047-33.844h31.685c4.967,0,8.993-4.026,8.993-8.993s-4.026-8.993-8.993-8.993
		h-31.685c1.624-12.634,6.613-24.225,14.047-33.844l22.385,22.385c1.755,1.757,4.058,2.634,6.359,2.634
		c2.301,0,4.603-0.878,6.359-2.634c3.512-3.512,3.512-9.205,0-12.717l-22.385-22.385c9.619-7.434,21.209-12.422,33.844-14.047
		v31.686c0,4.967,4.026,8.993,8.993,8.993c4.967,0,8.993-4.026,8.993-8.993v-31.686c12.635,1.624,24.225,6.613,33.844,14.047
		l-22.385,22.385c-3.512,3.512-3.512,9.206,0,12.717c1.755,1.757,4.058,2.634,6.359,2.634c2.301,0,4.603-0.878,6.359-2.634
		l22.385-22.385c7.434,9.619,12.422,21.209,14.047,33.844H292.89c-4.967,0-8.993,4.026-8.993,8.993S287.924,383.102,292.89,383.102z
		"/>
	<circle style="fill:#F2F2F2;" cx="254.981" cy="374.108" r="8.993"/>
</g>
<g>
	<path style="fill:#E09B2D;" d="M162.473,142.317v120.002l-17.29-147.964C155.435,119.475,162.473,130.074,162.473,142.317z"/>
	<path style="fill:#E09B2D;" d="M224.956,72.459v158.684l-17.29-186.646C217.918,49.617,224.956,60.217,224.956,72.459z"/>
	<path style="fill:#E09B2D;" d="M287.439,64.486V223.17l17.29-186.646C294.478,41.643,287.439,52.243,287.439,64.486z"/>
	<path style="fill:#E09B2D;" d="M366.973,172.761L349.923,286.3v-85.829C349.923,188.361,356.853,177.869,366.973,172.761z"/>
</g>
</svg>