<?xml version="1.0" encoding="iso-8859-1"?>
<!-- Uploaded to: SVG Repo, www.svgrepo.com, Generator: SVG Repo Mixer Tools -->
<svg height="800px" width="800px" version="1.1" id="Layer_1" xmlns="http://www.w3.org/2000/svg" xmlns:xlink="http://www.w3.org/1999/xlink" 
	 viewBox="0 0 512 512" xml:space="preserve">
<path style="fill:#F7B239;" d="M431.503,252.621c-14.781-8.701-31.608-14.321-49.573-15.953l0.161-1.77v-111.8
	c0-22.723-18.436-41.159-41.159-41.159c-8.184,0-15.815,2.391-22.229,6.505c-11.402,7.322-18.953,20.114-18.953,34.654V41.171
	C299.75,18.436,281.314,0,258.58,0c-11.379,0-21.666,4.609-29.125,12.057c-7.448,7.459-12.057,17.746-12.057,29.114v81.927
	c0-22.723-18.436-41.159-41.159-41.159c-22.746,0-41.182,18.436-41.182,41.159v112.708l0.023,0.506
	c-19.85,0.977-38.435,6.804-54.572,16.31c-14.402,8.471-14.873,29.298-0.69,38.113c33.964,21.091,56.584,58.744,56.584,101.662
	c0,30.815,11.655,58.894,30.78,80.1C189.077,496.748,220.754,512,256.005,512s66.928-15.252,88.824-39.504
	c19.126-21.206,30.78-49.285,30.78-80.1c0-42.918,22.608-80.571,56.572-101.662C446.364,281.918,445.893,261.092,431.503,252.621z"
	/>
<path style="fill:#F2F2F2;" d="M256.005,296.377c33.148,0,61.894,18.723,76.307,46.17c-14.413,27.436-43.159,46.17-76.307,46.17
	s-61.905-18.735-76.318-46.17C194.1,315.101,222.857,296.377,256.005,296.377z M274.395,342.548c0-10.16-8.241-18.39-18.39-18.39
	c-10.16,0-18.39,8.23-18.39,18.39c0,10.149,8.23,18.39,18.39,18.39C266.154,360.938,274.395,352.697,274.395,342.548z"/>
<path style="fill:#666666;" d="M256.005,317.262c13.955,0,25.286,11.316,25.286,25.286c0,13.955-11.332,25.286-25.286,25.286
	c-13.971,0-25.286-11.332-25.286-25.286C230.719,328.577,242.034,317.262,256.005,317.262z"/>
<g>
	<path style="fill:#E09B2D;" d="M318.703,88.444L299.75,237.92V123.098C299.75,108.558,307.302,95.766,318.703,88.444z"/>
	<path style="fill:#E09B2D;" d="M198.444,88.444l18.953,149.476V123.098C217.398,108.558,209.846,95.766,198.444,88.444z"/>
	<path style="fill:#E09B2D;" d="M135.056,223.047c42.791-4.023,60.79,26.367,60.79,26.367
		c-16.402-8.471-35.021-13.252-54.756-13.252c-2.023,0-4.034,0.046-6.034,0.149V223.047z"/>
	<path style="fill:#E09B2D;" d="M381.93,236.311c-2-0.103-4.011-0.149-6.034-0.149c-19.735,0-38.355,4.781-54.756,13.252
		c0,0,17.999-30.389,60.79-26.367V236.311z"/>
</g>
</svg>