<?xml version="1.0" encoding="iso-8859-1"?>
<!-- Uploaded to: SVG Repo, www.svgrepo.com, Generator: SVG Repo Mixer Tools -->
<svg height="800px" width="800px" version="1.1" id="Layer_1" xmlns="http://www.w3.org/2000/svg" xmlns:xlink="http://www.w3.org/1999/xlink" 
	 viewBox="0 0 512 512" xml:space="preserve">
<path style="fill:#FFEFD9;" d="M433.448,154.576L267.371,4.315c-6.359-5.754-16.043-5.753-22.402,0L78.558,154.877
	c-45.747,41.389-61.54,106.427-39.881,164.186l34.792,92.766l0.001-0.002l33.391,33.391H404.55l33.391-33.391l0,0l35.14-92.427l0,0
	C495.093,261.51,479.372,196.138,433.448,154.576z"/>
<path style="fill:#FFD9B3;" d="M433.448,154.576L267.371,4.315c-3.245-2.936-7.354-4.364-11.445-4.304v445.206H404.55l33.391-33.391
	l0,0l35.14-92.427l0,0C495.093,261.51,479.372,196.138,433.448,154.576z"/>
<path style="fill:#FFC033;" d="M222.731,350.609v-83.478h-50.087c-9.22,0-16.696-7.475-16.696-16.696v-33.391
	c0-9.22,7.475-16.696,16.696-16.696h50.087v-50.087c0-9.22,7.475-16.696,16.696-16.696h33.391c9.22,0,16.473,7.475,16.473,16.696
	v50.087h50.31c9.22,0,16.473,7.475,16.473,16.696v33.391c0,9.22-7.253,16.696-16.473,16.696h-50.31v83.478
	c0,9.22-7.253,16.696-16.473,16.696h-33.391C230.206,367.304,222.731,359.829,222.731,350.609z"/>
<path style="fill:#F9A926;" d="M339.6,200.348h-50.31v-50.087c0-9.22-7.253-16.696-16.473-16.696h-16.815v233.739h16.815
	c9.22,0,16.473-7.475,16.473-16.696v-83.478h50.31c9.22,0,16.473-7.475,16.473-16.696v-33.391
	C356.073,207.823,348.821,200.348,339.6,200.348z"/>
<path style="fill:#EE6E2F;" d="M106.972,501.167c2.443,6.517,8.673,10.833,15.633,10.833h265.739
	c6.932,0,13.143-4.283,15.606-10.762l33.991-89.412H73.469L106.972,501.167z"/>
<path style="fill:#E15C25;" d="M255.925,512h132.419c6.932,0,13.143-4.283,15.606-10.762l33.991-89.412H255.925L255.925,512
	L255.925,512z"/>
</svg>