<?xml version="1.0" encoding="iso-8859-1"?>
<!-- Uploaded to: SVG Repo, www.svgrepo.com, Generator: SVG Repo Mixer Tools -->
<svg height="800px" width="800px" version="1.1" id="Layer_1" xmlns="http://www.w3.org/2000/svg" xmlns:xlink="http://www.w3.org/1999/xlink" 
	 viewBox="0 0 512 512" xml:space="preserve">
<path style="fill:#6B7A99;" d="M356.174,89.043c-42.541,0-79.731,22.919-100.174,56.983
	c-20.443-34.065-57.633-56.983-100.174-56.983c-64.445,0-116.87,52.429-116.87,116.87v200.348c0,9.223,7.479,16.696,16.696,16.696
	H256h200.348c9.217,0,16.696-7.473,16.696-16.696V205.913C473.043,141.472,420.619,89.043,356.174,89.043z"/>
<path style="fill:#5A6680;" d="M356.174,89.043c-42.541,0-79.731,22.919-100.174,56.983v276.93h200.348
	c9.217,0,16.696-7.473,16.696-16.696V205.913C473.043,141.472,420.619,89.043,356.174,89.043z"/>
<g>
	<path style="fill:#FFC033;" d="M189.217,189.217h-16.696v-16.696c0-9.223-7.479-16.696-16.696-16.696s-16.696,7.473-16.696,16.696
		v16.696h-16.696c-9.217,0-16.696,7.473-16.696,16.696s7.479,16.696,16.696,16.696h16.696v50.087
		c0,9.223,7.479,16.696,16.696,16.696s16.696-7.473,16.696-16.696v-50.087h16.696c9.217,0,16.696-7.473,16.696-16.696
		S198.435,189.217,189.217,189.217z"/>
	<path style="fill:#FFC033;" d="M189.217,356.174h-66.783c-9.217,0-16.696-7.473-16.696-16.696s7.479-16.696,16.696-16.696h66.783
		c9.217,0,16.696,7.473,16.696,16.696S198.435,356.174,189.217,356.174z"/>
</g>
<g>
	<path style="fill:#F9A926;" d="M389.565,189.217H372.87v-16.696c0-9.223-7.479-16.696-16.696-16.696
		c-9.217,0-16.696,7.473-16.696,16.696v16.696h-16.696c-9.217,0-16.696,7.473-16.696,16.696s7.479,16.696,16.696,16.696h16.696
		v50.087c0,9.223,7.479,16.696,16.696,16.696c9.217,0,16.696-7.473,16.696-16.696v-50.087h16.696
		c9.217,0,16.696-7.473,16.696-16.696S398.782,189.217,389.565,189.217z"/>
	<path style="fill:#F9A926;" d="M389.565,356.174h-66.783c-9.217,0-16.696-7.473-16.696-16.696s7.479-16.696,16.696-16.696h66.783
		c9.217,0,16.696,7.473,16.696,16.696S398.782,356.174,389.565,356.174z"/>
</g>
<g>
	<path style="fill:#3AACE6;" d="M495.304,422.957H16.696C7.479,422.957,0,415.484,0,406.261c0-9.223,7.479-16.696,16.696-16.696
		h478.609c9.217,0,16.696,7.473,16.696,16.696C512,415.484,504.521,422.957,495.304,422.957z"/>
	<path style="fill:#3AACE6;" d="M495.304,389.565H256v33.391h239.304c9.217,0,16.696-7.473,16.696-16.696
		C512,397.038,504.521,389.565,495.304,389.565z"/>
</g>
</svg>