<?xml version="1.0" encoding="iso-8859-1"?>
<!-- Uploaded to: SVG Repo, www.svgrepo.com, Generator: SVG Repo Mixer Tools -->
<svg fill="#000000" height="800px" width="800px" version="1.1" id="Layer_1" xmlns="http://www.w3.org/2000/svg" xmlns:xlink="http://www.w3.org/1999/xlink" 
	 viewBox="0 0 511.999 511.999" xml:space="preserve">
<g>
	<g>
		<path d="M456.348,211.476h-50.087V50.087C406.261,22.469,383.792,0,356.174,0H155.826c-27.618,0-50.087,22.469-50.087,50.087
			v161.391H55.652c-9.22,0-16.696,7.475-16.696,16.696c0,9.22,7.475,16.696,16.696,16.696h38.507
			c-5.747,21.368-0.268,45.154,16.47,61.892c11.902,11.902,11.902,31.27,0,43.172c-24.922,24.922-24.922,65.471,0,90.394
			c11.902,11.902,11.902,31.27,0,43.172c-6.52,6.519-6.52,17.091,0,23.611s17.091,6.52,23.611,0
			c24.922-24.922,24.922-65.471,0-90.394c-11.902-11.902-11.902-31.27,0-43.172c24.922-24.922,24.922-65.471,0-90.394
			c-10.384-10.384-11.706-26.448-3.971-38.282h231.021c-5.747,21.368-0.268,45.154,16.47,61.892
			c11.902,11.902,11.902,31.27,0,43.172c-24.922,24.922-24.922,65.471,0,90.394c11.902,11.902,11.902,31.27,0,43.172
			c-6.52,6.519-6.52,17.091,0,23.611s17.091,6.52,23.611,0c24.922-24.922,24.922-65.471,0-90.394
			c-11.902-11.902-11.902-31.27,0-43.172c24.922-24.922,24.922-65.471,0-90.394c-10.384-10.384-11.706-26.448-3.971-38.282h58.949
			c9.22,0,16.696-7.475,16.696-16.696C473.043,218.951,465.568,211.476,456.348,211.476z M372.869,211.478H139.13v-33.391h233.739
			V211.478z M372.869,144.696H139.13V50.087c0-9.206,7.49-16.696,16.696-16.696h200.348c9.206,0,16.696,7.49,16.696,16.696V144.696z
			"/>
	</g>
</g>
</svg>