<?xml version="1.0" encoding="iso-8859-1"?>
<!-- Uploaded to: SVG Repo, www.svgrepo.com, Generator: SVG Repo Mixer Tools -->
<svg fill="#000000" height="800px" width="800px" version="1.1" id="Layer_1" xmlns="http://www.w3.org/2000/svg" xmlns:xlink="http://www.w3.org/1999/xlink" 
	 viewBox="0 0 512.001 512.001" xml:space="preserve">
<g>
	<g>
		<path d="M476.415,298.565c-2.437-4.117-7.751-5.478-11.868-3.04c-4.117,2.438-5.477,7.752-3.04,11.869
			c21.698,36.643,33.167,78.638,33.167,121.447c0,3.86-0.097,7.815-0.29,11.751c-0.144,2.963-1.77,5.615-4.34,7.091
			c-35.924,20.576-76.906,31.451-118.517,31.451c-38.793,0-77.34-9.539-111.472-27.584c-2.533-1.339-5.564-1.34-8.098,0
			c-34.146,18.046-72.697,27.585-111.485,27.585c-41.61,0-82.593-10.875-118.501-31.442c-2.582-1.487-4.212-4.141-4.356-7.098
			c-0.191-3.952-0.288-7.907-0.288-11.755c0-42.812,11.469-84.803,33.167-121.434c19.447-32.841,46.839-60.889,79.217-81.111
			c2.311-1.444,3.81-3.89,4.043-6.605c3.262-37.911,15.688-74.858,35.933-106.848c20.285-32.053,48.474-59.208,81.52-78.533
			c0.074-0.044,0.149-0.089,0.222-0.135c1.362-0.851,2.941-1.302,4.627-1.302c1.534,0.006,3.038,0.42,4.411,1.236
			c33.139,19.313,61.408,46.484,81.75,78.574c20.302,32.026,32.76,69.026,36.028,106.997c0.233,2.714,1.731,5.161,4.042,6.605
			c24.376,15.225,45.628,34.532,63.168,57.382c2.912,3.794,8.35,4.511,12.147,1.597c3.796-2.913,4.511-8.351,1.597-12.147
			c-17.928-23.357-39.476-43.262-64.096-59.214c-4.05-39.224-17.233-77.341-38.251-110.497
			c-21.822-34.424-52.134-63.563-87.599-84.23c-3.969-2.358-8.511-3.612-13.137-3.629c-0.01,0-0.113,0-0.122,0
			c-4.832,0-9.543,1.336-13.636,3.867c-35.384,20.712-65.576,49.814-87.313,84.164c-20.959,33.117-34.107,71.181-38.15,110.338
			c-33.135,21.49-61.191,50.684-81.311,84.663C12.305,337.878,0,382.922,0,428.839c0,4.129,0.105,8.368,0.311,12.599
			c0.435,8.877,5.302,16.828,13.034,21.278c38.54,22.074,82.501,33.742,127.128,33.742c40.073,0,79.918-9.497,115.532-27.5
			c35.604,18.003,75.443,27.5,115.523,27.5c44.627,0,88.587-11.668,127.137-33.748c7.722-4.434,12.589-12.387,13.025-21.275
			c0.206-4.217,0.311-8.457,0.311-12.598C512,382.927,499.696,337.878,476.415,298.565z"/>
	</g>
</g>
<g>
	<g>
		<path d="M357.763,198.069c-5.667-29.315-16.998-56.708-33.678-81.414c-16.748-24.807-38.069-45.689-63.371-62.064
			c-2.865-1.854-6.548-1.854-9.413-0.001c-25.305,16.371-46.629,37.25-63.378,62.057c-16.683,24.711-28.017,52.109-33.684,81.435
			c-0.605,3.119,0.549,6.32,3.004,8.336c1.576,1.296,3.526,1.969,5.501,1.969c1.101,0,2.209-0.21,3.262-0.638
			c28.681-11.664,58.962-17.577,90-17.577c31.021,0,61.299,5.911,89.991,17.567c2.944,1.197,6.308,0.685,8.761-1.333
			C357.214,204.388,358.367,201.189,357.763,198.069z M256.006,172.845c-27.8,0-55.038,4.425-81.184,13.173
			c12.682-46.401,41.037-86.23,81.183-113.747c40.142,27.524,68.492,67.345,81.173,113.74
			C311.027,177.268,283.793,172.845,256.006,172.845z"/>
	</g>
</g>
<g>
	<g>
		<path d="M226.797,430.249c-24.829-18.974-45.411-42.199-61.172-69.031c-17.914-30.475-28.95-65.3-31.918-100.709
			c-0.264-3.172-2.249-5.943-5.166-7.216c-2.918-1.274-6.299-0.846-8.804,1.115c-21.91,17.135-40.188,37.934-54.328,61.817
			c-20.121,33.977-30.756,72.918-30.756,112.615v0.866c0,3.248,1.816,6.223,4.705,7.706c25.4,13.048,52.774,20.959,81.363,23.513
			c4.76,0.426,8.974-3.092,9.4-7.858c0.425-4.766-3.093-8.974-7.859-9.4c-24.579-2.196-48.179-8.685-70.235-19.303
			c0.765-35.039,10.507-69.282,28.291-99.31c10.347-17.478,23.1-33.165,38.024-46.794c4.832,32.307,15.882,63.729,32.344,91.737
			c14.296,24.335,32.284,45.901,53.598,64.283c-17.367,5.711-35.399,9.051-53.785,9.953c-4.777,0.236-8.461,4.3-8.227,9.079
			c0.228,4.634,4.057,8.239,8.646,8.238c0.142,0,0.286-0.003,0.431-0.01c25.343-1.244,50.068-6.76,73.484-16.394
			c2.868-1.181,4.887-3.804,5.293-6.88C230.532,435.188,229.262,432.132,226.797,430.249z"/>
	</g>
</g>
<g>
	<g>
		<path d="M357.107,231.88c-31.062-15.951-66.021-24.382-101.101-24.382c-35.108,0-70.073,8.436-101.117,24.395
			c-2.888,1.484-4.702,4.459-4.702,7.705v0.866c0,39.434,10.503,78.154,30.373,111.976c17.406,29.613,41.864,55.165,70.73,73.894
			c1.432,0.931,3.074,1.396,4.714,1.396s3.282-0.466,4.715-1.395c28.873-18.733,53.328-44.286,70.72-73.893
			c19.869-33.801,30.372-72.522,30.372-111.977v-0.878C361.813,236.338,359.998,233.364,357.107,231.88z M316.501,343.664
			c-15.081,25.674-35.921,48.041-60.496,64.982c-24.57-16.94-45.414-39.306-60.507-64.983
			c-17.556-29.883-27.175-63.923-27.937-98.722c27.398-13.174,57.859-20.115,88.444-20.115c30.561,0,61.018,6.939,88.432,20.107
			C343.678,279.753,334.06,313.795,316.501,343.664z"/>
	</g>
</g>
<g>
	<g>
		<path d="M446.6,316.225c-14.134-23.866-32.411-44.666-54.323-61.825c-2.507-1.963-5.888-2.393-8.805-1.119
			c-2.917,1.273-4.902,4.043-5.169,7.215c-2.978,35.425-14.015,70.255-31.918,100.723c-15.781,26.847-36.363,50.071-61.172,69.031
			c-2.465,1.883-3.733,4.94-3.329,8.014c0.407,3.075,2.425,5.698,5.293,6.88c26.857,11.056,55.236,16.661,84.35,16.661
			c35.085,0,70.05-8.436,101.114-24.395c2.889-1.484,4.705-4.459,4.705-7.706v-0.866C477.346,389.13,466.714,350.189,446.6,316.225z
			 M371.528,444.479c-21.85,0-43.249-3.424-63.807-10.196c21.299-18.371,39.291-39.938,53.604-64.285
			c16.452-28.001,27.501-59.427,32.339-91.743c14.93,13.643,27.684,29.333,38.029,46.8c17.776,30.014,27.512,64.26,28.278,99.307
			C432.555,437.537,402.093,444.479,371.528,444.479z"/>
	</g>
</g>
</svg>