<?xml version="1.0" encoding="iso-8859-1"?>
<!-- Uploaded to: SVG Repo, www.svgrepo.com, Generator: SVG Repo Mixer Tools -->
<svg height="800px" width="800px" version="1.1" id="Layer_1" xmlns="http://www.w3.org/2000/svg" xmlns:xlink="http://www.w3.org/1999/xlink" 
	 viewBox="0 0 512 512" xml:space="preserve">
<g>
	<path style="fill:#6B7A99;" d="M89.043,66.783c-9.217,0-16.696-7.473-16.696-16.696V16.696C72.348,7.473,79.826,0,89.043,0
		s16.696,7.473,16.696,16.696v33.391C105.739,59.31,98.261,66.783,89.043,66.783z"/>
	<path style="fill:#6B7A99;" d="M155.826,66.783c-9.217,0-16.696-7.473-16.696-16.696V16.696C139.13,7.473,146.609,0,155.826,0
		s16.696,7.473,16.696,16.696v33.391C172.522,59.31,165.043,66.783,155.826,66.783z"/>
	<path style="fill:#6B7A99;" d="M222.609,66.783c-9.217,0-16.696-7.473-16.696-16.696V16.696C205.913,7.473,213.392,0,222.609,0
		s16.696,7.473,16.696,16.696v33.391C239.304,59.31,231.826,66.783,222.609,66.783z"/>
</g>
<path style="fill:#5A6680;" d="M289.391,66.783c-9.217,0-16.696-7.473-16.696-16.696V16.696C272.696,7.473,280.174,0,289.391,0
	c9.217,0,16.696,7.473,16.696,16.696v33.391C306.087,59.31,298.608,66.783,289.391,66.783z"/>
<g>
	<path id="SVGCleanerId_0" style="fill:#5A6680;" d="M422.957,66.783c-9.217,0-16.696-7.473-16.696-16.696V16.696
		C406.261,7.473,413.739,0,422.957,0c9.217,0,16.696,7.473,16.696,16.696v33.391C439.652,59.31,432.174,66.783,422.957,66.783z"/>
</g>
<g>
	<path style="fill:#6B7A99;" d="M89.043,512c-9.217,0-16.696-7.473-16.696-16.696v-33.391c0-9.223,7.479-16.696,16.696-16.696
		s16.696,7.473,16.696,16.696v33.391C105.739,504.527,98.261,512,89.043,512z"/>
	<path style="fill:#6B7A99;" d="M155.826,512c-9.217,0-16.696-7.473-16.696-16.696v-33.391c0-9.223,7.479-16.696,16.696-16.696
		s16.696,7.473,16.696,16.696v33.391C172.522,504.527,165.043,512,155.826,512z"/>
	<path style="fill:#6B7A99;" d="M222.609,512c-9.217,0-16.696-7.473-16.696-16.696v-33.391c0-9.223,7.479-16.696,16.696-16.696
		s16.696,7.473,16.696,16.696v33.391C239.304,504.527,231.826,512,222.609,512z"/>
</g>
<g>
	<path style="fill:#5A6680;" d="M289.391,512c-9.217,0-16.696-7.473-16.696-16.696v-33.391c0-9.223,7.479-16.696,16.696-16.696
		c9.217,0,16.696,7.473,16.696,16.696v33.391C306.087,504.527,298.608,512,289.391,512z"/>
	<path style="fill:#5A6680;" d="M356.174,512c-9.217,0-16.696-7.473-16.696-16.696v-33.391c0-9.223,7.479-16.696,16.696-16.696
		c9.217,0,16.696,7.473,16.696,16.696v33.391C372.87,504.527,365.391,512,356.174,512z"/>
	<path style="fill:#5A6680;" d="M356.174,66.783c-9.217,0-16.696-7.473-16.696-16.696V16.696C339.478,7.473,346.957,0,356.174,0
		c9.217,0,16.696,7.473,16.696,16.696v33.391C372.87,59.31,365.391,66.783,356.174,66.783z"/>
</g>
<g>
	<path id="SVGCleanerId_0_1_" style="fill:#5A6680;" d="M422.957,66.783c-9.217,0-16.696-7.473-16.696-16.696V16.696
		C406.261,7.473,413.739,0,422.957,0c9.217,0,16.696,7.473,16.696,16.696v33.391C439.652,59.31,432.174,66.783,422.957,66.783z"/>
</g>
<g>
	<path id="SVGCleanerId_0_2_" style="fill:#5A6680;" d="M422.957,66.783c-9.217,0-16.696-7.473-16.696-16.696V16.696
		C406.261,7.473,413.739,0,422.957,0c9.217,0,16.696,7.473,16.696,16.696v33.391C439.652,59.31,432.174,66.783,422.957,66.783z"/>
</g>
<path style="fill:#5A6680;" d="M422.957,512c-9.217,0-16.696-7.473-16.696-16.696v-33.391c0-9.223,7.479-16.696,16.696-16.696
	c9.217,0,16.696,7.473,16.696,16.696v33.391C439.652,504.527,432.174,512,422.957,512z"/>
<path style="fill:#3AACE6;" d="M422.957,478.609H89.043c-9.217,0-16.696-7.473-16.696-16.696V50.087
	c0-9.223,7.479-16.696,16.696-16.696h333.913c9.217,0,16.696,7.473,16.696,16.696v411.826
	C439.652,471.136,432.174,478.609,422.957,478.609z"/>
<path style="fill:#2B9FD9;" d="M422.957,33.391H256v445.217h166.957c9.217,0,16.696-7.473,16.696-16.696V50.087
	C439.652,40.864,432.174,33.391,422.957,33.391z"/>
<path style="fill:#FFC033;" d="M306.087,411.826H205.913c-9.217,0-16.696-7.473-16.696-16.696c0-18.413-14.978-33.391-33.391-33.391
	c-9.217,0-16.696-7.473-16.696-16.696V166.957c0-9.223,7.479-16.696,16.696-16.696c18.413,0,33.391-14.978,33.391-33.391
	c0-9.223,7.479-16.696,16.696-16.696h100.174c9.217,0,16.696,7.473,16.696,16.696c0,18.413,14.978,33.391,33.391,33.391
	c9.217,0,16.696,7.473,16.696,16.696v178.087c0,9.223-7.479,16.696-16.696,16.696c-18.413,0-33.391,14.978-33.391,33.391
	C322.783,404.353,315.304,411.826,306.087,411.826z"/>
<path style="fill:#F9A926;" d="M356.174,150.261c-18.413,0-33.391-14.978-33.391-33.391c0-9.223-7.479-16.696-16.696-16.696H256
	v311.652h50.087c9.217,0,16.696-7.473,16.696-16.696c0-18.413,14.978-33.391,33.391-33.391c9.217,0,16.696-7.473,16.696-16.696
	V166.957C372.87,157.734,365.391,150.261,356.174,150.261z"/>
</svg>