<?xml version="1.0" encoding="iso-8859-1"?>
<!-- Uploaded to: SVG Repo, www.svgrepo.com, Generator: SVG Repo Mixer Tools -->
<svg fill="#000000" height="800px" width="800px" version="1.1" id="Layer_1" xmlns="http://www.w3.org/2000/svg" xmlns:xlink="http://www.w3.org/1999/xlink" 
	 viewBox="0 0 512.001 512.001" xml:space="preserve">
<g>
	<g>
		<path d="M439.652,16.696C439.652,7.473,432.174,0,422.957,0c-9.217,0-16.696,7.473-16.696,16.696
			c0,82.853-67.403,150.261-150.261,150.261S105.739,99.548,105.739,16.696C105.739,7.473,98.261,0,89.044,0
			S72.348,7.473,72.348,16.696c0,95.63,73.5,174.333,166.957,182.806v34.237h-16.696c-9.217,0-16.696,7.473-16.696,16.696v50.087
			h-50.087c-9.217,0-16.696,7.473-16.696,16.696V384c0,9.223,7.479,16.696,16.696,16.696h50.087v94.609
			c0,9.223,7.479,16.696,16.696,16.696h66.783c9.217,0,16.696-7.473,16.696-16.696v-94.609h50.087
			c9.217,0,16.696-7.473,16.696-16.696v-66.783c0-9.223-7.479-16.696-16.696-16.696h-50.087v-50.087
			c0-9.223-7.479-16.696-16.696-16.696h-16.696v-34.237C366.152,191.028,439.652,112.326,439.652,16.696z"/>
	</g>
</g>
</svg>