<?xml version="1.0" encoding="iso-8859-1"?>
<!-- Uploaded to: SVG Repo, www.svgrepo.com, Generator: SVG Repo Mixer Tools -->
<svg fill="#000000" height="800px" width="800px" version="1.1" id="Layer_1" xmlns="http://www.w3.org/2000/svg" xmlns:xlink="http://www.w3.org/1999/xlink" 
	 viewBox="0 0 512 512" xml:space="preserve">
<g>
	<g>
		<path d="M269.75,6.772c-6.244-9.029-21.257-9.029-27.503,0c-10.933,15.84-36.379,54.977-36.379,76.337
			c0,27.644,22.487,50.13,50.13,50.13s50.13-22.487,50.13-50.13C306.129,61.748,280.683,22.611,269.75,6.772z M255.999,99.819
			c-9.214,0-16.71-7.496-16.71-16.688c0.141-5.108,7.093-19.674,16.71-35.89c9.617,16.199,16.569,30.75,16.71,35.879
			C272.698,92.329,265.213,99.819,255.999,99.819z"/>
	</g>
</g>
<g>
	<g>
		<path d="M478.712,283.178c-0.24-9.051-7.648-16.259-16.699-16.259h-72.334c-22.78,0-42.928-14.518-50.13-36.139l-1.719-5.134
			c-11.76-35.28-44.647-58.985-81.831-58.985c-37.184,0-70.071,23.705-81.831,58.974l-1.719,5.157
			c-7.202,21.611-27.328,36.129-50.087,36.129l-72.378,0.011c-9.062,0-16.459,7.218-16.699,16.269
			c-1.61,60.585,20.812,117.895,63.142,161.357c10.327,10.603,21.53,19.999,33.407,28.214
			c63.07-17.889,109.455-75.859,109.455-144.581v-77.98c0-9.231,7.485-16.71,16.71-16.71c9.225,0,16.71,7.479,16.71,16.71v77.98
			c0,68.543,46.14,126.404,108.961,144.453c50.193-34.492,86.125-88.898,94.987-152.564
			C478.364,307.917,479.049,295.503,478.712,283.178z M122.319,411.739c-18.429,0-33.42-14.991-33.42-33.42
			c0-18.429,14.991-33.42,33.42-33.42c18.429,0,33.42,14.991,33.42,33.42C155.739,396.748,140.747,411.739,122.319,411.739z
			 M189.159,350.469c-9.219,0-16.71-7.491-16.71-16.71s7.491-16.71,16.71-16.71s16.71,7.491,16.71,16.71
			S198.379,350.469,189.159,350.469z M322.839,350.469c-9.219,0-16.71-7.491-16.71-16.71s7.491-16.71,16.71-16.71
			s16.71,7.491,16.71,16.71S332.06,350.469,322.839,350.469z M389.679,411.739c-18.429,0-33.42-14.991-33.42-33.42
			c0-18.429,14.991-33.42,33.42-33.42c18.429,0,33.42,14.991,33.42,33.42C423.099,396.748,408.108,411.739,389.679,411.739z"/>
	</g>
</g>
<g>
	<g>
		<path d="M255.999,404.315c-17.923,39.175-49.181,70.996-87.924,89.636C195.48,505.749,225.224,512,255.999,512
			c30.875,0,60.427-6.629,87.461-18.286C304.935,475.043,273.849,443.332,255.999,404.315z"/>
	</g>
</g>
</svg>