<?xml version="1.0" encoding="iso-8859-1"?>
<!-- Uploaded to: SVG Repo, www.svgrepo.com, Generator: SVG Repo Mixer Tools -->
<svg height="800px" width="800px" version="1.1" id="Layer_1" xmlns="http://www.w3.org/2000/svg" xmlns:xlink="http://www.w3.org/1999/xlink" 
	 viewBox="0 0 512 512" xml:space="preserve">
<path style="fill:#F2F2F2;" d="M463.938,304.064C463.938,189.224,370.842,0,256.003,0S48.067,189.224,48.067,304.064
	S141.163,512,256.003,512S463.938,418.905,463.938,304.064z"/>
<path style="fill:#E09B2D;" d="M256.011,0c-78.876,0-142.813,189.231-142.813,304.065c0,113.941,62.943,206.473,140.963,207.921
	C140.17,511.004,48.065,418.283,48.065,304.065C48.067,189.231,141.164,0,256.011,0z"/>
<path style="fill:#F95428;" d="M459.484,256.742c2.92,16.626,4.455,32.585,4.455,47.323c0,19.584-2.706,38.538-7.778,56.511H55.838
	c-5.072-17.973-7.778-36.927-7.778-56.511c0-14.738,1.535-30.697,4.455-47.323L459.484,256.742L459.484,256.742z"/>
<g>
	<path style="fill:#F7B239;" d="M459.484,256.742H116.251c2.039-16.928,5.06-34.549,8.949-52.282v-0.013
		c11.617-7.438,18.325-18.929,38.991-18.929c30.597,0,30.597,25.172,61.193,25.172s30.597-25.172,61.206-25.172
		c30.597,0,30.597,25.172,61.193,25.172c30.609,0,30.609-25.172,61.206-25.172c19.483,0,26.556,10.207,37.028,17.62
		C451.908,221.312,456.451,239.398,459.484,256.742z"/>
	<path style="fill:#F7B239;" d="M456.162,360.577c-5.349,18.992-13.329,36.877-23.511,53.239c-5.865-4.053-12.85-7.187-23.637-7.187
		c-30.597,0-30.597,25.172-61.206,25.172c-30.597,0-30.597-25.172-61.193-25.172s-30.597,25.172-61.193,25.172
		c-30.609,0-30.609-25.172-61.206-25.172c-13.618,0-21.17,4.984-28.067,10.522c-7.715-17.255-13.694-36.285-17.62-56.574
		L456.162,360.577L456.162,360.577z"/>
</g>
<path style="fill:#E54728;" d="M118.529,360.577H55.876c-5.072-17.96-7.816-36.915-7.816-56.511c0-14.738,1.535-30.697,4.455-47.323
	h63.736c-2.001,16.626-3.058,32.585-3.058,47.323C113.193,323.649,115.056,342.604,118.529,360.577z"/>
<g>
	<path style="fill:#E6E6E6;" d="M254.156,511.986c-66.681-0.579-125.873-32.547-163.517-81.847
		c3.524,1.045,7.564,1.661,12.372,1.661c16.979,0,24.543-7.753,33.139-14.65C161.284,473.536,204.693,511.067,254.156,511.986z"/>
	<path style="fill:#E6E6E6;" d="M256.006,0C197.557,0,147.314,103.91,125.2,204.447v0.013c-5.576,3.574-12.284,6.23-22.214,6.23
		c-17.759,0-25.21-8.483-34.322-15.594C102.293,97.567,173.543,0,256.006,0z"/>
</g>
<path style="fill:#F95428;" d="M337.085,31.49c-12.183,28.13-40.187,47.802-72.785,47.802c-36.16,0-66.668-24.203-76.196-57.292
	c3.637-2.366,7.312-4.569,11.038-6.595C217.216,5.576,236.297,0,256.006,0c23.863,0,46.795,8.181,68.153,22.177
	C328.539,25.046,332.844,28.155,337.085,31.49z"/>
<path style="fill:#E54728;" d="M324.16,22.177c-14.512,16.739-35.946,27.324-59.859,27.324c-26.997,0-50.835-13.492-65.158-34.095
	C217.216,5.576,236.297,0,256.006,0C279.869,0,302.801,8.181,324.16,22.177z"/>
<path style="fill:#F2F2F2;" d="M422.507,309.1c0-5.211,4.228-9.439,9.44-9.439l0,0c5.211,0,9.44,4.229,9.44,9.439l0,0
	c0,5.211-4.229,9.44-9.44,9.44l0,0C426.734,318.539,422.507,314.31,422.507,309.1z M390.513,309.1c0-5.211,4.228-9.439,9.44-9.439
	l0,0c5.222,0,9.44,4.229,9.44,9.439l0,0c0,5.211-4.218,9.44-9.44,9.44l0,0C394.741,318.539,390.513,314.31,390.513,309.1z
	 M358.532,309.1c0-5.211,4.216-9.439,9.44-9.439l0,0c5.211,0,9.44,4.229,9.44,9.439l0,0c0,5.211-4.229,9.44-9.44,9.44l0,0
	C362.747,318.539,358.532,314.31,358.532,309.1z M326.538,309.1c0-5.211,4.228-9.439,9.44-9.439l0,0
	c5.211,0,9.439,4.229,9.439,9.439l0,0c0,5.211-4.229,9.44-9.439,9.44l0,0C330.766,318.539,326.538,314.31,326.538,309.1z
	 M294.545,309.1c0-5.211,4.228-9.439,9.44-9.439l0,0c5.211,0,9.439,4.229,9.439,9.439l0,0c0,5.211-4.229,9.44-9.439,9.44l0,0
	C298.772,318.539,294.545,314.31,294.545,309.1z M262.564,309.1c0-5.211,4.216-9.439,9.427-9.439l0,0
	c5.222,0,9.452,4.229,9.452,9.439l0,0c0,5.211-4.229,9.44-9.452,9.44l0,0C266.779,318.539,262.564,314.31,262.564,309.1z
	 M230.57,309.1c0-5.211,4.229-9.439,9.439-9.439l0,0c5.211,0,9.44,4.229,9.44,9.439l0,0c0,5.211-4.229,9.44-9.44,9.44l0,0
	C234.799,318.539,230.57,314.31,230.57,309.1z M198.575,309.1c0-5.211,4.229-9.439,9.44-9.439l0,0c5.211,0,9.439,4.229,9.439,9.439
	l0,0c0,5.211-4.229,9.44-9.439,9.44l0,0C202.805,318.539,198.575,314.31,198.575,309.1z M166.581,309.1
	c0-5.211,4.229-9.439,9.439-9.439l0,0c5.223,0,9.44,4.229,9.44,9.439l0,0c0,5.211-4.216,9.44-9.44,9.44l0,0
	C170.812,318.539,166.581,314.31,166.581,309.1z M134.602,309.1c0-5.211,4.216-9.439,9.439-9.439l0,0c5.211,0,9.44,4.229,9.44,9.439
	l0,0c0,5.211-4.229,9.44-9.44,9.44l0,0C138.817,318.539,134.602,314.31,134.602,309.1z M102.607,309.1
	c0-5.211,4.229-9.439,9.44-9.439l0,0c5.211,0,9.44,4.229,9.44,9.439l0,0c0,5.211-4.229,9.44-9.44,9.44l0,0
	C106.837,318.539,102.607,314.31,102.607,309.1z M70.613,309.1c0-5.211,4.229-9.439,9.44-9.439l0,0c5.211,0,9.439,4.229,9.439,9.439
	l0,0c0,5.211-4.229,9.44-9.44,9.44l0,0C74.843,318.539,70.613,314.31,70.613,309.1z"/>
<path style="fill:#F7B239;" d="M262.715,121.732c-0.593-5.185,3.133-9.867,8.318-10.459l0,0c5.173-0.592,9.855,3.134,10.448,8.319
	l0,0c0.579,5.173-3.134,9.855-8.308,10.446l0,0c-0.365,0.038-0.73,0.063-1.081,0.063l0,0
	C267.345,130.102,263.267,126.54,262.715,121.732z M238.751,130.026c-5.173-0.592-8.898-5.274-8.307-10.459l0,0
	c0.604-5.173,5.286-8.886,10.459-8.294l0,0c5.185,0.592,8.898,5.274,8.307,10.446l0,0c-0.554,4.82-4.644,8.37-9.377,8.37l0,0
	C239.48,130.089,239.115,130.064,238.751,130.026z M294.645,116.521c-1.762-4.909,0.779-10.308,5.689-12.083l0,0
	c4.909-1.762,10.308,0.793,12.07,5.689l0,0c1.762,4.909-0.78,10.321-5.689,12.083l0,0c-1.057,0.378-2.127,0.554-3.184,0.554l0,0
	C299.653,122.764,296.03,120.373,294.645,116.521z M205.222,122.185c-4.909-1.775-7.451-7.174-5.689-12.083l0,0
	c1.762-4.909,7.174-7.451,12.083-5.689l0,0c4.909,1.775,7.451,7.174,5.676,12.083l0,0c-1.384,3.851-5.009,6.243-8.873,6.243l0,0
	C207.349,122.739,206.266,122.563,205.222,122.185z M324.511,104.124c-2.844-4.38-1.598-10.22,2.769-13.064l0,0
	c4.379-2.844,10.22-1.598,13.064,2.769l0,0c2.832,4.367,1.6,10.22-2.769,13.064l0,0c-1.598,1.032-3.373,1.523-5.135,1.523l0,0
	C329.344,108.416,326.324,106.906,324.511,104.124z M174.372,106.843L174.372,106.843c-4.367-2.844-5.613-8.684-2.769-13.052l0,0
	c2.844-4.367,8.697-5.613,13.064-2.769l0,0c4.367,2.844,5.613,8.697,2.769,13.064l0,0c-1.812,2.782-4.833,4.292-7.929,4.292l0,0
	C177.747,108.378,175.959,107.887,174.372,106.843z M350.754,85.22c-3.763-3.612-3.876-9.591-0.266-13.354l0,0
	c3.612-3.763,9.591-3.876,13.342-0.264l0,0c3.763,3.612,3.889,9.591,0.277,13.341l0,0c-1.861,1.938-4.328,2.907-6.809,2.907l0,0
	C354.944,87.85,352.591,86.969,350.754,85.22z M147.855,84.893c-3.612-3.763-3.486-9.742,0.277-13.341l0,0
	c3.763-3.612,9.729-3.486,13.341,0.264l0,0l0,0l0,0c3.612,3.763,3.486,9.742-0.277,13.354l0,0c-1.825,1.749-4.179,2.63-6.532,2.63
	l0,0C152.183,87.8,149.705,86.818,147.855,84.893z"/>
</svg>