<?xml version="1.0" encoding="iso-8859-1"?>
<!-- Uploaded to: SVG Repo, www.svgrepo.com, Generator: SVG Repo Mixer Tools -->
<svg fill="#000000" height="800px" width="800px" version="1.1" id="Layer_1" xmlns="http://www.w3.org/2000/svg" xmlns:xlink="http://www.w3.org/1999/xlink" 
	 viewBox="0 0 512 512" xml:space="preserve">
<g>
	<g>
		<path d="M406.386,166.956v-66.783c0-9.22-7.475-16.696-16.696-16.696s-16.696,7.475-16.696,16.696v66.783
			c0,58.774-43.612,107.546-100.174,115.672v-33.873c38.057-7.756,66.783-41.484,66.783-81.799v-66.783
			c0-9.22-7.475-16.696-16.696-16.696s-16.696,7.475-16.696,16.696v66.783c0,21.766-13.959,40.323-33.391,47.215V100.174
			c0-9.22-7.475-16.696-16.696-16.696c-9.22,0-16.696,7.475-16.696,16.696v113.998c-19.433-6.892-33.391-25.45-33.391-47.215
			v-66.783c0-9.22-7.475-16.696-16.696-16.696c-9.22,0-16.696,7.475-16.696,16.696v66.783c0,40.314,28.725,74.042,66.783,81.799
			v33.873c-56.56-8.126-100.174-56.898-100.174-115.672v-66.783c0-9.22-7.475-16.696-16.696-16.696
			c-9.22,0-16.696,7.475-16.696,16.696v66.783c0,77.211,58.539,140.996,133.565,149.328v95.541h-16.696
			c-46.03,0-83.478,37.448-83.478,83.478c0,9.22,7.475,16.696,16.696,16.696h200.348c9.22,0,16.696-7.475,16.696-16.696
			c0-46.03-37.448-83.478-83.478-83.478h-16.696v-95.541C347.847,307.952,406.386,244.167,406.386,166.956z M289.517,445.217
			c21.768,0,40.336,13.956,47.226,33.391H175.508c6.891-19.435,25.46-33.391,47.226-33.391H289.517z"/>
	</g>
</g>
<g>
	<g>
		<path d="M141.193,40.546c-0.309-4.864-0.155-3.591-18.633-40.546c-17.645,35.291-18.589,35.768-18.647,41.599
			c-0.107,10.894,9.092,19.457,19.84,18.774C134.035,59.719,141.846,50.823,141.193,40.546z"/>
	</g>
</g>
<g>
	<g>
		<path d="M207.701,40.546c-0.309-4.864-0.155-3.591-18.633-40.546c-17.645,35.291-18.589,35.768-18.647,41.599
			c-0.107,10.894,9.092,19.457,19.84,18.774C200.543,59.719,208.355,50.823,207.701,40.546z"/>
	</g>
</g>
<g>
	<g>
		<path d="M274.484,40.546c-0.309-4.864-0.155-3.591-18.633-40.546c-17.645,35.291-18.589,35.768-18.647,41.599
			c-0.107,10.894,9.092,19.457,19.84,18.774C267.326,59.719,275.137,50.823,274.484,40.546z"/>
	</g>
</g>
<g>
	<g>
		<path d="M341.267,40.546c-0.309-4.864-0.156-3.591-18.633-40.546c-17.645,35.291-18.589,35.768-18.647,41.599
			c-0.107,10.894,9.092,19.457,19.84,18.774C334.109,59.719,341.92,50.823,341.267,40.546z"/>
	</g>
</g>
<g>
	<g>
		<path d="M408.05,40.546c-0.309-4.864-0.156-3.591-18.633-40.546c-17.646,35.291-18.589,35.768-18.647,41.599
			c-0.108,10.894,9.091,19.457,19.84,18.774C400.892,59.719,408.704,50.823,408.05,40.546z"/>
	</g>
</g>
</svg>