<?xml version="1.0" encoding="iso-8859-1"?>
<!-- Uploaded to: SVG Repo, www.svgrepo.com, Generator: SVG Repo Mixer Tools -->
<svg height="800px" width="800px" version="1.1" id="Layer_1" xmlns="http://www.w3.org/2000/svg" xmlns:xlink="http://www.w3.org/1999/xlink" 
	 viewBox="0 0 512 512" xml:space="preserve">
<path style="fill:#E6E6E6;" d="M477.136,318.791v168.449H362.247h-64.224v-0.011h64.213V284.751h0.011L477.136,318.791z"/>
<path style="fill:#F95428;" d="M436.898,380.459v42.262h-39.423v-42.262c0-10.303,8.357-18.66,18.66-18.66h2.103
	C428.541,361.799,436.898,370.157,436.898,380.459z"/>
<path style="fill:#F2F2F2;" d="M149.591,284.751V181.103L255.919,80.475l106.317,100.628v103.648v202.478H149.591V284.751z"/>
<polygon style="fill:#E6E6E6;" points="255.919,80.475 149.591,181.103 149.591,216.161 255.919,115.533 362.236,216.161 
	362.236,181.103 "/>
<path style="fill:#999999;" d="M298.023,389.122v98.106h-42.104V349.258h2.239C280.177,349.258,298.023,367.103,298.023,389.122z"/>
<circle style="fill:#F7B239;" cx="255.914" cy="174.251" r="28.668"/>
<path style="fill:#F95428;" d="M275.631,264.292v42.262h-39.423v-42.262c0-10.314,8.357-18.66,18.66-18.66h2.104
	C267.274,245.633,275.631,253.979,275.631,264.292z"/>
<path style="fill:#999999;" d="M255.919,349.258v137.971h-42.115v-98.106c0-22.019,17.846-39.864,39.864-39.864H255.919z"/>
<path style="fill:#E6E6E6;" d="M213.804,487.228v0.011h-64.202h-114.9V318.791l114.889-34.04v202.478L213.804,487.228
	L213.804,487.228z"/>
<g>
	<polygon style="fill:#CCCCCC;" points="149.591,284.751 34.703,318.791 34.703,343.671 149.591,309.631 	"/>
	<polygon style="fill:#CCCCCC;" points="362.247,284.751 477.136,318.791 477.136,343.671 362.247,309.631 	"/>
</g>
<path style="fill:#F95428;" d="M114.364,380.459v42.262H74.94v-42.262c0-10.303,8.357-18.66,18.66-18.66h2.103
	C106.006,361.799,114.364,370.157,114.364,380.459z"/>
<path d="M256.006,137.015c-20.485,0-37.15,16.665-37.15,37.15s16.665,37.15,37.15,37.15s37.15-16.665,37.15-37.15
	S276.492,137.015,256.006,137.015z M256.006,194.353c-11.132,0-20.187-9.055-20.187-20.187s9.055-20.187,20.187-20.187
	c11.132,0,20.187,9.055,20.187,20.187S267.138,194.353,256.006,194.353z"/>
<path d="M505.927,318.366l-135.122-40.036v-97.311c0-2.331-0.959-4.559-2.651-6.16L264.487,76.737V54.83h13.021
	c4.684,0,8.482-3.798,8.482-8.482s-3.798-8.482-8.482-8.482h-13.021v-13.02c0-4.684-3.798-8.482-8.482-8.482
	c-4.684,0-8.482,3.798-8.482,8.482v13.02h-13.02c-4.684,0-8.482,3.798-8.482,8.482s3.798,8.482,8.482,8.482h13.02v21.911
	l-103.675,98.117c-1.693,1.603-2.652,3.83-2.652,6.16v97.315L6.076,318.366c-4.492,1.331-7.055,6.05-5.725,10.541
	c1.092,3.688,4.469,6.075,8.129,6.075c0.797,0,1.608-0.113,2.412-0.352l15.414-4.565v23.787c0,4.684,3.798,8.482,8.482,8.482
	c4.684,0,8.482-3.798,8.482-8.482v-28.813l97.925-29.015v182.647H43.27v-96.548c0-4.684-3.798-8.482-8.482-8.482
	s-8.482,3.798-8.482,8.482v105.03c0,4.684,3.798,8.482,8.482,8.482h442.433c4.684,0,8.482-3.798,8.482-8.482V330.066l15.402,4.564
	c0.804,0.239,1.615,0.352,2.413,0.352c3.66,0,7.036-2.387,8.129-6.074C512.98,324.417,510.419,319.697,505.927,318.366z
	 M289.628,478.661h-25.14v-120.38c14.324,2.903,25.14,15.59,25.14,30.757V478.661z M247.525,478.661h-25.151v-89.624
	c0-15.171,10.823-27.861,25.151-30.76V478.661z M468.741,478.673h-97.937v-32.088c0-4.684-3.798-8.482-8.482-8.482
	c-4.684,0-8.482,3.798-8.482,8.482v32.078h-47.249v-89.624c0-26.658-21.689-48.346-48.346-48.346h-4.49
	c-26.658,0-48.346,21.689-48.346,48.346v89.624H158.16V184.67l97.846-92.6l97.835,92.6v233.642c0,4.684,3.798,8.482,8.482,8.482
	c4.684,0,8.482-3.798,8.482-8.482V296.022l97.937,29.018V478.673z"/>
<path d="M114.451,431.118c4.684,0,8.482-3.798,8.482-8.482v-42.262c0-14.965-12.176-27.142-27.142-27.142h-2.103
	c-14.966,0-27.142,12.176-27.142,27.142v42.262c0,4.684,3.798,8.482,8.482,8.482H114.451z M83.509,380.374
	c0-5.612,4.567-10.178,10.178-10.178h2.103c5.612,0,10.178,4.567,10.178,10.178v33.78h-22.46V380.374z"/>
<path d="M397.562,431.118h39.423c4.684,0,8.482-3.798,8.482-8.482v-42.262c0-14.965-12.175-27.142-27.142-27.142h-2.103
	c-14.965,0-27.142,12.176-27.142,27.142v42.262C389.08,427.322,392.878,431.118,397.562,431.118z M406.044,380.374
	c0-5.612,4.567-10.178,10.178-10.178h2.103c5.612,0,10.178,4.567,10.178,10.178v33.78h-22.46V380.374z"/>
<path d="M257.058,237.067h-2.103c-14.966,0-27.142,12.175-27.142,27.142v42.262c0,4.684,3.798,8.482,8.482,8.482h39.423
	c4.684,0,8.482-3.798,8.482-8.482v-42.262C284.2,249.242,272.025,237.067,257.058,237.067z M267.236,297.988h-22.46v-33.78
	c0-5.612,4.567-10.178,10.178-10.178h2.103c5.612,0,10.178,4.567,10.178,10.178V297.988z"/>
</svg>