<?xml version="1.0" encoding="iso-8859-1"?>
<!-- Uploaded to: SVG Repo, www.svgrepo.com, Generator: SVG Repo Mixer Tools -->
<svg height="800px" width="800px" version="1.1" id="Layer_1" xmlns="http://www.w3.org/2000/svg" xmlns:xlink="http://www.w3.org/1999/xlink" 
	 viewBox="0 0 512 512" xml:space="preserve">
<path style="fill:#EDF0F2;" d="M389.569,512H122.308c-9.225,0-16.711-7.48-16.711-16.711V350.462
	c0-9.231,7.485-16.711,16.711-16.711h267.261c9.225,0,16.711,7.48,16.711,16.711v144.827C406.28,504.52,398.796,512,389.569,512z"/>
<path style="fill:#DAE1E6;" d="M389.569,333.751H255.994V512h133.575c9.225,0,16.711-7.48,16.711-16.711V350.462
	C406.28,341.23,398.796,333.751,389.569,333.751z"/>
<path style="fill:#EDF0F2;" d="M356.148,322.611H155.729c-9.225,0-16.711-7.48-16.711-16.711V161.073
	c0-9.231,7.485-16.711,16.711-16.711h200.53c9.225,0,16.599,7.48,16.599,16.711V305.9
	C372.858,315.131,365.374,322.611,356.148,322.611z"/>
<path style="fill:#DAE1E6;" d="M356.259,144.362H255.994v178.249h100.153c9.225,0,16.711-7.48,16.711-16.711V161.073
	C372.858,151.841,365.486,144.362,356.259,144.362z"/>
<path style="fill:#6B7A99;" d="M255.994,322.611c-9.225,0-16.711-7.48-16.711-16.711v-55.703c0-9.231,7.485-16.711,16.711-16.711
	c9.225,0,16.711,7.48,16.711,16.711V305.9C272.705,315.131,265.221,322.611,255.994,322.611z"/>
<path style="fill:#5A6680;" d="M272.705,305.9v-55.703c0-9.231-7.485-16.711-16.711-16.711v89.124
	C265.221,322.611,272.705,315.131,272.705,305.9z"/>
<path style="fill:#FFC033;" d="M322.837,144.362H189.151c-6.157,0-11.826-3.395-14.731-8.823
	c-2.915-5.434-2.589-12.027,0.827-17.156L242.09,6.977c6.201-9.302,21.607-9.302,27.808,0l66.843,111.405
	c3.416,5.129,3.742,11.722,0.827,17.156C334.664,140.968,328.996,144.362,322.837,144.362z"/>
<path style="fill:#F9A926;" d="M322.837,144.362c6.157,0,11.826-3.395,14.731-8.823c2.915-5.434,2.589-12.027-0.827-17.156
	L269.899,6.977C266.798,2.325,261.396,0,255.994,0v144.362H322.837z"/>
<g>
	<path style="fill:#EE6E2F;" d="M122.308,356.033c-36.99,0-70.847-20.258-88.373-52.863c-3.135-5.83-5.675-11.97-7.589-18.309
		c-2.998-9.924,8.035-17.79,16.87-12.368c17.737,10.882,38.179,16.699,59.509,16.699h306.538c21.331,0,41.773-5.816,59.509-16.699
		c8.82-5.411,19.885,2.429,16.881,12.331c-12.485,41.162-50.784,71.21-95.973,71.21H122.308V356.033z"/>
	<path style="fill:#EE6E2F;" d="M155.729,177.784c-36.99,0-70.847-20.258-88.373-52.863c-3.135-5.83-5.675-11.971-7.589-18.309
		c-2.998-9.924,8.035-17.79,16.87-12.368c17.737,10.882,38.179,16.699,59.509,16.699h239.695c21.331,0,41.773-5.816,59.509-16.699
		c8.82-5.411,19.885,2.429,16.881,12.331c-12.485,41.162-50.784,71.21-95.973,71.21h-200.53V177.784z"/>
</g>
<path style="fill:#5A6680;" d="M322.726,512v-83.554c0-9.231-7.374-16.711-16.599-16.711s-16.711,7.48-16.711,16.711V512H322.726z"
	/>
<path style="fill:#6B7A99;" d="M222.461,512v-83.554c0-9.231-7.374-16.711-16.599-16.711s-16.711,7.48-16.711,16.711V512H222.461z"
	/>
<g>
	<path style="fill:#E15C25;" d="M468.774,272.491c-17.739,10.881-38.179,16.697-59.51,16.697H255.994v66.843h133.686
		c45.189,0,83.488-30.048,95.972-71.21C488.658,274.919,477.592,267.08,468.774,272.491z"/>
	<path style="fill:#E15C25;" d="M435.352,94.242c-17.739,10.881-38.179,16.697-59.51,16.697H255.994v66.843h100.265
		c45.189,0,83.488-30.048,95.972-71.21C455.236,96.671,444.17,88.831,435.352,94.242z"/>
</g>
</svg>