<?xml version="1.0" encoding="iso-8859-1"?>
<!-- Uploaded to: SVG Repo, www.svgrepo.com, Generator: SVG Repo Mixer Tools -->
<svg height="800px" width="800px" version="1.1" id="Layer_1" xmlns="http://www.w3.org/2000/svg" xmlns:xlink="http://www.w3.org/1999/xlink" 
	 viewBox="0 0 512 512" xml:space="preserve">
<path style="fill:#6B7A99;" d="M256,267.13c-9.217,0-16.696-7.473-16.696-16.696v-66.783c0-9.223,7.479-16.696,16.696-16.696
	s16.696,7.473,16.696,16.696v66.783C272.696,259.657,265.217,267.13,256,267.13z"/>
<path style="fill:#5A6680;" d="M272.696,250.435v-66.783c0-9.223-7.479-16.696-16.696-16.696V267.13
	C265.217,267.13,272.696,259.657,272.696,250.435z"/>
<path style="fill:#FFC033;" d="M222.728,495.304v-116.87h-50.087c-9.22,0-16.696-7.475-16.696-16.696v-33.391
	c0-9.22,7.475-16.696,16.696-16.696h50.087v-61.217c0-9.22,7.475-16.696,16.696-16.696h33.391c9.22,0,16.473,7.475,16.473,16.696
	v61.217h50.31c9.22,0,16.473,7.475,16.473,16.696v33.391c0,9.22-7.253,16.696-16.473,16.696h-50.31v116.87
	c0,9.22-7.253,16.696-16.473,16.696h-33.391C230.203,512,222.728,504.525,222.728,495.304z"/>
<path style="fill:#F9A926;" d="M339.597,311.652h-50.31v-61.217c0-9.22-7.253-16.696-16.473-16.696H256V512h16.815
	c9.22,0,16.473-7.475,16.473-16.696v-116.87h50.31c9.22,0,16.473-7.475,16.473-16.696v-33.391
	C356.07,319.127,348.818,311.652,339.597,311.652z"/>
<path style="fill:#6B7A99;" d="M256,200.348c-101.261,0-183.652-82.386-183.652-183.652C72.348,7.473,79.826,0,89.043,0
	s16.696,7.473,16.696,16.696c0,82.853,67.403,150.261,150.261,150.261S406.261,99.548,406.261,16.696
	C406.261,7.473,413.739,0,422.957,0c9.217,0,16.696,7.473,16.696,16.696C439.652,117.961,357.261,200.348,256,200.348z"/>
<path style="fill:#5A6680;" d="M439.652,16.696C439.652,7.473,432.174,0,422.957,0c-9.217,0-16.696,7.473-16.696,16.696
	c0,82.853-67.403,150.261-150.261,150.261v33.391C357.261,200.348,439.652,117.961,439.652,16.696z"/>
</svg>