<?xml version="1.0" encoding="iso-8859-1"?>
<!-- Uploaded to: SVG Repo, www.svgrepo.com, Generator: SVG Repo Mixer Tools -->
<svg height="800px" width="800px" version="1.1" id="Layer_1" xmlns="http://www.w3.org/2000/svg" xmlns:xlink="http://www.w3.org/1999/xlink" 
	 viewBox="0 0 512 512" xml:space="preserve">
<g>
	<path style="fill:#F7B239;" d="M279.243,105.622c0-15.369-12.459-27.828-27.828-27.828c-15.369,0-27.828,12.459-27.828,27.828"/>
	<path style="fill:#F7B239;" d="M313.301,294.259c0,2.275-0.117,4.562-0.374,6.871l-0.046,0.432H189.95l-0.046-0.432
		c-4.037-36.645,24.651-68.658,61.506-68.658C285.955,232.472,313.301,260.577,313.301,294.259z"/>
</g>
<path style="fill:#E09B2D;" d="M252.295,232.471L252.295,232.471c-36.856,0-65.544,32.013-61.507,68.658l0.046,0.432h28.912
	l-0.024-0.432C217.584,264.486,232.777,232.472,252.295,232.471z"/>
<polygon style="fill:#F7B239;" points="312.881,301.562 349.177,357.561 348.966,357.561 153.655,357.561 189.95,301.562 "/>
<polygon style="fill:#E09B2D;" points="197.988,357.561 219.747,301.562 189.95,301.562 153.655,357.561 "/>
<path style="fill:#F7B239;" d="M153.655,357.561h195.312c0,53.935-43.726,97.65-97.662,97.65S153.655,411.498,153.655,357.561z"/>
<path style="fill:#E09B2D;" d="M251.304,455.212c-53.935,0-97.65-43.715-97.65-97.65h44.333
	C197.988,411.497,221.859,455.212,251.304,455.212z"/>
<path d="M384.194,365.007H118.605c-4.162,0-7.536-3.373-7.536-7.536s3.374-7.536,7.536-7.536h265.589
	c4.163,0,7.536,3.373,7.536,7.536S388.356,365.007,384.194,365.007z"/>
<path d="M251.395,462.66c-58,0-105.186-47.186-105.186-105.185c0-4.163,3.374-7.536,7.536-7.536c4.162,0,7.536,3.373,7.536,7.536
	c0,49.689,40.425,90.113,90.114,90.113c49.696,0,90.126-40.425,90.126-90.113c0-4.163,3.373-7.536,7.536-7.536
	s7.536,3.373,7.536,7.536C356.592,415.474,309.401,462.66,251.395,462.66z"/>
<path d="M349.268,365.011H153.745c-2.762,0-5.302-1.511-6.62-3.937c-1.319-2.426-1.205-5.379,0.296-7.697l36.295-56
	c2.264-3.493,6.931-4.487,10.422-2.226c3.492,2.264,4.488,6.93,2.226,10.422l-28.755,44.366h167.794l-28.756-44.367
	c-2.264-3.492-1.267-8.159,2.225-10.422c3.493-2.263,8.159-1.267,10.422,2.226l36.296,56c1.501,2.318,1.616,5.271,0.297,7.697
	C354.57,363.5,352.03,365.011,349.268,365.011z"/>
<path d="M312.971,309.01h-122.93c-3.848,0-7.077-2.9-7.492-6.725l-0.046-0.431c-2.156-19.576,4.148-39.231,17.298-53.909
	c13.149-14.677,31.994-23.095,51.701-23.095c38.282,0,69.427,31.098,69.427,69.322c0,2.604-0.142,5.196-0.419,7.702l-0.045,0.42
	C320.045,306.115,316.816,309.01,312.971,309.01z M197.16,293.939h108.696c-0.124-29.809-24.46-54.018-54.355-54.018
	c-15.429,0-30.181,6.59-40.476,18.081C202.137,267.923,197.244,280.748,197.16,293.939z"/>
<path d="M251.4,512c-4.162,0-7.536-3.373-7.536-7.536v-49.338c0-4.163,3.374-7.536,7.536-7.536c4.162,0,7.536,3.373,7.536,7.536
	v49.338C258.934,508.626,255.561,512,251.4,512z"/>
<path d="M266.273,202.905h-29.746c-4.162,0-7.536-3.374-7.536-7.536c0-4.162,3.374-7.536,7.536-7.536h29.747
	c4.163,0,7.536,3.374,7.536,7.536C273.81,199.531,270.436,202.905,266.273,202.905z"/>
<path d="M135.604,365.009c-0.532,0-1.07-0.057-1.611-0.175c-4.066-0.885-6.645-4.899-5.76-8.965l54.833-251.936
	c0.885-4.067,4.899-6.641,8.966-5.76c4.066,0.885,6.645,4.899,5.76,8.966L142.96,359.074
	C142.192,362.6,139.072,365.009,135.604,365.009z"/>
<path d="M367.407,365.009c-3.467,0-6.589-2.407-7.356-5.935l-54.833-251.935c-0.885-4.066,1.694-8.081,5.76-8.966
	c4.066-0.882,8.08,1.695,8.965,5.76l54.833,251.936c0.885,4.066-1.694,8.08-5.76,8.965
	C368.477,364.952,367.939,365.009,367.407,365.009z"/>
<path d="M335.505,113.072H167.506c-4.162,0-7.536-3.374-7.536-7.536s3.374-7.536,7.536-7.536h168c4.163,0,7.536,3.374,7.536,7.536
	S339.667,113.072,335.505,113.072z"/>
<path d="M251.505,85.242c-4.162,0-7.536-3.374-7.536-7.536V7.536c0-4.162,3.374-7.536,7.536-7.536c4.162,0,7.536,3.374,7.536,7.536
	v70.171C259.042,81.868,255.668,85.242,251.505,85.242z"/>
<path d="M251.505,239.925c-4.162,0-7.536-3.374-7.536-7.536v-56.852c0-4.162,3.374-7.536,7.536-7.536
	c4.162,0,7.536,3.374,7.536,7.536v56.852C259.042,236.551,255.668,239.925,251.505,239.925z"/>
<path d="M188.512,390.736c-1.989,0-3.929-0.804-5.335-2.21c-1.397-1.397-2.21-3.346-2.21-5.325c0-1.979,0.814-3.929,2.21-5.325
	c1.407-1.407,3.346-2.21,5.335-2.21c1.979,0,3.918,0.804,5.325,2.21c1.397,1.397,2.21,3.346,2.21,5.325
	c0,1.979-0.814,3.929-2.21,5.325C192.429,389.932,190.491,390.736,188.512,390.736z"/>
<path d="M251.509,390.736c-1.989,0-3.929-0.804-5.335-2.21c-1.397-1.397-2.2-3.335-2.2-5.325c0-1.979,0.804-3.929,2.2-5.325
	c1.407-1.407,3.346-2.21,5.335-2.21c1.979,0,3.929,0.804,5.325,2.21c1.407,1.397,2.211,3.346,2.211,5.325
	c0,1.989-0.805,3.929-2.211,5.325C255.427,389.932,253.49,390.736,251.509,390.736z"/>
<path d="M314.506,390.736c-1.979,0-3.929-0.804-5.325-2.21c-1.406-1.397-2.21-3.335-2.21-5.325c0-1.979,0.805-3.929,2.21-5.325
	c1.397-1.407,3.336-2.21,5.325-2.21c1.98,0,3.929,0.804,5.326,2.21c1.406,1.397,2.209,3.346,2.209,5.325
	c0,1.989-0.804,3.929-2.209,5.325C318.434,389.932,316.486,390.736,314.506,390.736z"/>
<path d="M431.795,67.461c-1.753,0-3.515-0.608-4.941-1.849c-8.065-7.012-18.402-10.874-29.105-10.874h-75.25
	c-4.163,0-7.536-3.374-7.536-7.536s3.373-7.536,7.536-7.536h75.25c14.338,0,28.185,5.175,38.994,14.573
	c3.141,2.73,3.473,7.49,0.743,10.631C435.996,66.584,433.901,67.461,431.795,67.461z"/>
<path d="M397.751,158.572h-48.417c-4.163,0-7.536-3.374-7.536-7.536c0-4.162,3.373-7.536,7.536-7.536h48.417
	c24.471,0,44.382-19.909,44.382-44.381c0-3.288-0.36-6.566-1.07-9.741c-0.908-4.061,1.648-8.09,5.71-8.998
	c4.061-0.906,8.09,1.649,8.998,5.71c0.951,4.253,1.434,8.638,1.434,13.031C457.202,131.902,430.532,158.572,397.751,158.572z"/>
<path d="M284.001,158.572h-66.5c-4.162,0-7.536-3.374-7.536-7.536c0-4.162,3.374-7.536,7.536-7.536h66.5
	c4.163,0,7.536,3.374,7.536,7.536C291.536,155.198,288.162,158.572,284.001,158.572z"/>
<path d="M49.233,249.125c-2.178,0-4.338-0.939-5.829-2.754c-9.204-11.211-14.273-25.389-14.273-39.918
	c0-34.712,28.24-62.952,62.952-62.952h60.084c4.162,0,7.536,3.374,7.536,7.536c0,4.162-3.374,7.536-7.536,7.536H92.084
	c-26.402,0-47.881,21.479-47.881,47.881c0,11.052,3.853,21.833,10.85,30.356c2.64,3.216,2.174,7.965-1.043,10.606
	C52.608,248.565,50.915,249.125,49.233,249.125z"/>
<path d="M125.333,269.404h-33.25c-9.59,0-18.799-2.102-27.372-6.247c-3.747-1.812-5.315-6.318-3.504-10.064
	c1.813-3.747,6.319-5.315,10.065-3.504c6.51,3.148,13.512,4.744,20.81,4.744h33.25c4.162,0,7.536,3.373,7.536,7.536
	S129.494,269.404,125.333,269.404z"/>
<path d="M414.083,397.738h-34.416c-4.163,0-7.536-3.373-7.536-7.536s3.373-7.536,7.536-7.536h34.416
	c29.619,0,53.715-24.096,53.715-53.715c0-29.618-24.096-53.714-53.715-53.714h-30.917c-4.163,0-7.536-3.373-7.536-7.536
	c0-4.163,3.373-7.536,7.536-7.536h30.917c37.928,0,68.786,30.857,68.786,68.785S452.01,397.738,414.083,397.738z"/>
<path d="M279.333,113.072c-4.163,0-7.536-3.374-7.536-7.536c0-11.19-9.104-20.293-20.293-20.293
	c-11.189,0-20.293,9.104-20.293,20.293c0,4.162-3.374,7.536-7.536,7.536c-4.162,0-7.536-3.374-7.536-7.536
	c0-19.5,15.864-35.364,35.364-35.364s35.364,15.865,35.364,35.364C286.868,109.698,283.496,113.072,279.333,113.072z"/>
</svg>