<?xml version="1.0" encoding="iso-8859-1"?>
<!-- Uploaded to: SVG Repo, www.svgrepo.com, Generator: SVG Repo Mixer Tools -->
<svg fill="#000000" height="800px" width="800px" version="1.1" id="Layer_1" xmlns="http://www.w3.org/2000/svg" xmlns:xlink="http://www.w3.org/1999/xlink" 
	 viewBox="0 0 512 512" xml:space="preserve">
<g>
	<g>
		<path d="M452.556,109.29H344.501V8.91c0-4.92-3.989-8.91-8.909-8.91H176.408c-4.92,0-8.91,3.989-8.91,8.91v100.38H59.444
			c-4.92,0-8.909,3.989-8.909,8.909v159.183c0,4.92,3.989,8.91,8.909,8.91h108.055v216.798c0,4.92,3.989,8.909,8.91,8.909h159.183
			c4.92,0,8.909-3.989,8.909-8.909V388.583c0-4.92-3.989-8.91-8.909-8.91c-4.92,0-8.91,3.989-8.91,8.91v93.97l-61.773-57.789
			V214.871l61.773,66.03v77.984c0,4.92,3.989,8.91,8.91,8.91c4.92,0,8.909-3.989,8.909-8.91v-72.594h108.055
			c4.92,0,8.909-3.989,8.909-8.91V118.2C461.465,113.279,457.476,109.29,452.556,109.29z M339.457,127.109h92.563l-57.789,61.773
			h-92.563L339.457,127.109z M185.318,29.445l61.773,57.789v93.488l-61.773-66.041V29.445z M68.354,140.768l53.338,57.023
			l-53.338,57.024V140.768z M172.543,268.473H79.978l57.78-61.773h16.849c4.92,0,8.909-3.989,8.909-8.909s-3.989-8.91-8.909-8.91
			h-16.849l-57.78-61.773h92.565l57.78,61.773h-46.018c-4.92,0-8.909,3.989-8.909,8.91s3.989,8.909,8.909,8.909h46.018
			L172.543,268.473z M185.318,280.9l61.773-66.041v209.906l-61.773,57.789V280.9z M313.027,494.181H198.974L256,440.831
			L313.027,494.181z M256,71.169l-57.027-53.35h114.052L256,71.169z M264.91,87.235l61.773-57.789v85.237l-61.773,66.03V87.235z
			 M339.457,268.473l-57.789-61.773h92.563l57.789,61.773H339.457z M443.646,254.818l-53.35-57.027l53.35-57.027V254.818z"/>
	</g>
</g>
</svg>