<?xml version="1.0" encoding="iso-8859-1"?>
<!-- Uploaded to: SVG Repo, www.svgrepo.com, Generator: SVG Repo Mixer Tools -->
<svg fill="#000000" height="800px" width="800px" version="1.1" id="Layer_1" xmlns="http://www.w3.org/2000/svg" xmlns:xlink="http://www.w3.org/1999/xlink" 
	 viewBox="0 0 512 512" xml:space="preserve">
<g>
	<g>
		<path d="M413.458,256l64.495-111.709c6.431-11.138-1.636-25.072-14.475-25.072h-128.99L270.475,8.346
			c-6.43-11.137-22.532-11.119-28.95,0l-64.012,110.873H48.522c-12.861,0-20.894,13.953-14.475,25.072L98.542,256L34.047,367.709
			c-6.431,11.137,1.636,25.072,14.475,25.072h128.991l64.012,110.873c6.43,11.137,22.532,11.118,28.95,0l64.012-110.873h128.991
			c12.861,0,20.894-13.953,14.475-25.072L413.458,256z M434.529,152.648l-40.37,69.923l-40.37-69.923H434.529z M256,50.132
			l39.888,69.087h-79.775L256,50.132z M77.472,152.648h80.74l-40.37,69.923L77.472,152.648z M77.472,359.351l40.37-69.923
			l40.37,69.923H77.472z M256,461.867l-39.888-69.087h79.775L256,461.867z M315.188,359.351H196.813L137.143,256l59.67-103.352
			h118.376L374.859,256L315.188,359.351z M353.788,359.351l40.37-69.923l40.37,69.923H353.788z"/>
	</g>
</g>
</svg>