<?xml version="1.0" encoding="iso-8859-1"?>
<!-- Uploaded to: SVG Repo, www.svgrepo.com, Generator: SVG Repo Mixer Tools -->
<svg height="800px" width="800px" version="1.1" id="Layer_1" xmlns="http://www.w3.org/2000/svg" xmlns:xlink="http://www.w3.org/1999/xlink" 
	 viewBox="0 0 512 512" xml:space="preserve">
<path style="fill:#FFC033;" d="M478.691,283.184c0.334,12.365-0.334,24.731-2.004,36.873
	c-8.801,63.387-44.337,117.639-94.246,152.284c-12.031,8.355-25.065,15.596-38.656,21.389C316.713,505.539,286.971,512,256.001,512
	c-30.746,0-60.489-6.238-87.895-18.047c-13.591-5.793-26.513-12.922-38.767-21.5c-11.696-8.132-22.725-17.378-32.864-27.85
	c-42.331-43.557-64.834-100.817-63.163-161.42c0.223-9.023,7.574-16.264,16.71-16.264h72.299c22.837,0,42.889-14.482,50.13-36.094
	l1.671-5.236c11.807-35.202,44.67-58.931,81.879-58.931s70.071,23.728,81.879,58.931l1.671,5.236
	c7.241,21.612,27.404,36.094,50.13,36.094h72.299C471.115,266.919,478.467,274.16,478.691,283.184z"/>
<path style="fill:#F9A926;" d="M343.785,493.73c13.591-5.793,26.625-13.034,38.656-21.389
	c49.908-34.645,85.444-88.897,94.246-152.284c1.67-12.143,2.339-24.508,2.004-36.873c-0.223-9.023-7.574-16.264-16.71-16.264
	h-72.299c-22.726,0-42.889-14.482-50.13-36.094l-1.671-5.236c-11.807-35.202-44.67-58.931-81.879-58.931V512
	C286.971,512,316.713,505.539,343.785,493.73z"/>
<path style="fill:#3AACE6;" d="M200.301,350.471c-9.219,0-16.71-7.491-16.71-16.71s7.491-16.71,16.71-16.71
	c9.219,0,16.71,7.491,16.71,16.71S209.521,350.471,200.301,350.471z"/>
<path style="fill:#2B9FD9;" d="M333.982,350.471c-9.219,0-16.71-7.491-16.71-16.71s7.491-16.71,16.71-16.71s16.71,7.491,16.71,16.71
	S343.201,350.471,333.982,350.471z"/>
<path style="fill:#FFC033;" d="M255.999,133.239c-27.643,0-50.13-22.487-50.13-50.13c0-21.361,25.446-60.498,36.379-76.337
	c6.244-9.029,21.257-9.029,27.503,0c10.933,15.84,36.379,54.977,36.379,76.337C306.129,110.753,283.643,133.239,255.999,133.239z"/>
<path style="fill:#F9A926;" d="M306.129,83.109c0-21.361-25.446-60.498-36.379-76.337C266.628,2.257,261.314,0,255.999,0v133.239
	C283.643,133.239,306.129,110.753,306.129,83.109z"/>
<path style="fill:#6B7A99;" d="M382.44,472.343c-12.031,8.355-25.065,15.596-38.656,21.389
	c-38.099-29.632-77.201-66.172-87.783-89.454c-10.694,23.394-49.796,59.933-87.895,89.677c-13.591-5.793-26.513-12.922-38.767-21.5
	C186.264,426.78,239.29,368.071,239.29,328.191v-77.98c0-9.246,7.463-16.71,16.71-16.71c9.247,0,16.71,7.464,16.71,16.71v77.98
	C272.711,376.092,327.853,435.022,382.44,472.343z"/>
<path style="fill:#5A6680;" d="M343.785,493.73c13.591-5.793,26.625-13.034,38.656-21.389
	c-54.586-37.319-109.729-96.25-109.729-144.152v-77.98c0-9.246-7.463-16.71-16.71-16.71v170.777
	C266.583,427.559,305.685,464.099,343.785,493.73z"/>
<path style="fill:#3AACE6;" d="M111.736,416.755c-18.429,0-33.42-14.991-33.42-33.42c0-18.429,14.991-33.42,33.42-33.42
	s33.42,14.991,33.42,33.42C145.156,401.764,130.165,416.755,111.736,416.755z"/>
<path style="fill:#2B9FD9;" d="M400.267,416.755c-18.429,0-33.42-14.991-33.42-33.42c0-18.429,14.991-33.42,33.42-33.42
	c18.429,0,33.42,14.991,33.42,33.42C433.687,401.764,418.696,416.755,400.267,416.755z"/>
</svg>