<?xml version="1.0" encoding="iso-8859-1"?>
<!-- Uploaded to: SVG Repo, www.svgrepo.com, Generator: SVG Repo Mixer Tools -->
<svg fill="#000000" height="800px" width="800px" version="1.1" id="Layer_1" xmlns="http://www.w3.org/2000/svg" xmlns:xlink="http://www.w3.org/1999/xlink" 
	 viewBox="0 0 512 512" xml:space="preserve">
<g>
	<g>
		<path d="M495.304,439.652h-16.696V72.348h16.696c9.22,0,16.696-7.475,16.696-16.696c0-9.22-7.475-16.696-16.696-16.696
			c-15.636,0-34.399,0-50.087,0V22.261c0-9.22-7.475-16.696-16.696-16.696s-16.696,7.475-16.696,16.696v16.696
			c-15.693,0-34.462,0-50.087,0c-9.22,0-16.696,7.475-16.696,16.696c0,9.22,7.475,16.696,16.696,16.696h16.696v33.391h-244.87
			V72.348h16.696c9.22,0,16.696-7.475,16.696-16.696c0-9.22-7.475-16.696-16.696-16.696c-15.636,0-34.399,0-50.087,0V22.261
			c0-9.22-7.475-16.696-16.696-16.696S66.783,13.04,66.783,22.261v16.696c-15.693,0-34.462,0-50.087,0
			C7.475,38.957,0,46.432,0,55.652c0,9.22,7.475,16.696,16.696,16.696h16.696v367.304H16.696C7.475,439.652,0,447.127,0,456.348
			s7.475,16.696,16.696,16.696c15.636,0,34.399,0,50.087,0v16.696c0,9.22,7.475,16.696,16.696,16.696s16.696-7.475,16.696-16.696
			v-16.696c15.693,0,34.462,0,50.087,0c9.22,0,16.696-7.475,16.696-16.696s-7.475-16.696-16.696-16.696h-16.696v-33.391h244.87
			v33.391h-16.696c-9.22,0-16.696,7.475-16.696,16.696s7.475,16.696,16.696,16.696c15.636,0,34.399,0,50.087,0v16.696
			c0,9.22,7.475,16.696,16.696,16.696s16.696-7.475,16.696-16.696v-16.696c15.693,0,34.462,0,50.087,0
			c9.22,0,16.696-7.475,16.696-16.696S504.525,439.652,495.304,439.652z M100.174,439.652H66.783V72.348h33.391
			C100.174,84.018,100.174,426.943,100.174,439.652z M378.435,372.87h-244.87V139.13h244.87V372.87z M445.217,439.652h-33.391
			c0-12.828,0-355.911,0-367.304h33.391V439.652z"/>
	</g>
</g>
<g>
	<g>
		<path d="M313.633,255.505l15.3-26.378c2.892-4.986,2.901-11.137,0.023-16.133c-2.876-4.994-8.202-8.073-13.965-8.073h-30.698
			l-14.445-24.904c-2.884-4.971-8.195-8.031-13.942-8.031c-5.747,0-11.058,3.06-13.942,8.031l-14.445,24.904h-30.698
			c-5.764,0-11.089,3.079-13.965,8.073c-2.877,4.994-2.868,11.146,0.023,16.131l15.3,26.378l-15.3,26.378
			c-2.892,4.985-2.901,11.137-0.023,16.131c2.876,4.994,8.202,8.073,13.965,8.073h30.698l14.445,24.904
			c2.884,4.971,8.195,8.031,13.942,8.031c5.747,0,11.058-3.06,13.942-8.031l14.445-24.903h30.698c5.764,0,11.089-3.079,13.965-8.073
			c2.877-4.994,2.868-11.146-0.023-16.131L313.633,255.505z M265.726,273.852h-19.64l-10.643-18.347l10.643-18.347h19.64
			l10.643,18.347L265.726,273.852z"/>
	</g>
</g>
</svg>