<?xml version="1.0" encoding="iso-8859-1"?>
<!-- Uploaded to: SVG Repo, www.svgrepo.com, Generator: SVG Repo Mixer Tools -->
<svg fill="#000000" height="800px" width="800px" version="1.1" id="Layer_1" xmlns="http://www.w3.org/2000/svg" xmlns:xlink="http://www.w3.org/1999/xlink" 
	 viewBox="0 0 512 512" xml:space="preserve">
<g>
	<g>
		<path d="M256,215.285c-22.45,0-40.715,18.265-40.715,40.715c0,22.45,18.265,40.715,40.715,40.715
			c22.45,0,40.715-18.265,40.715-40.715C296.715,233.55,278.45,215.285,256,215.285z M256,279.983
			c-13.224,0-23.983-10.759-23.983-23.983s10.759-23.983,23.983-23.983s23.983,10.759,23.983,23.983S269.224,279.983,256,279.983z"
			/>
	</g>
</g>
<g>
	<g>
		<path d="M207.301,227.463l-70.648-70.648c-1.718-1.718-4.104-2.606-6.519-2.429c-2.423,0.175-4.649,1.395-6.103,3.343
			c-13.926,18.673-23.551,39.662-28.606,62.381c-0.66,2.967,0.34,6.059,2.615,8.076c3.033,2.689,5.594,5.837,7.612,9.355
			c1.491,2.6,4.259,4.203,7.256,4.203h88.478c3.384,0,6.434-2.038,7.729-5.165S209.694,229.856,207.301,227.463z M117.49,225.012
			c-1.421-2.022-2.978-3.942-4.664-5.75c3.963-15.544,10.353-30.141,19.059-43.552l49.303,49.303H117.49z"/>
	</g>
</g>
<g>
	<g>
		<path d="M416.575,220.11c-5.055-22.72-14.681-43.708-28.607-62.381c-1.452-1.948-3.679-3.167-6.103-3.343
			c-2.428-0.177-4.803,0.711-6.52,2.428l-70.647,70.649c-2.393,2.393-3.109,5.991-1.814,9.117c1.295,3.127,4.346,5.165,7.729,5.165
			h88.478c2.997,0,5.765-1.604,7.256-4.203c2.018-3.517,4.579-6.665,7.613-9.355C416.235,226.169,417.235,223.077,416.575,220.11z
			 M394.51,225.012h-63.699l49.303-49.303c8.706,13.411,15.096,28.009,19.06,43.552C397.488,221.07,395.931,222.99,394.51,225.012z"
			/>
	</g>
</g>
<g>
	<g>
		<path d="M355.186,375.345l-70.648-70.648c-2.393-2.393-5.992-3.108-9.117-1.814c-3.127,1.295-5.165,4.346-5.165,7.729v88.479
			c-0.001,2.998,1.602,5.766,4.202,7.257c3.518,2.019,6.666,4.579,9.355,7.612c1.606,1.811,3.894,2.814,6.259,2.814
			c0.605,0,1.213-0.066,1.817-0.2c22.721-5.055,43.71-14.681,62.381-28.607c1.948-1.452,3.167-3.679,3.343-6.103
			C357.79,379.442,356.904,377.063,355.186,375.345z M292.738,399.173c-1.808-1.684-3.728-3.242-5.75-4.664V330.81l49.303,49.303
			C322.879,388.819,308.281,395.209,292.738,399.173z"/>
	</g>
</g>
<g>
	<g>
		<path d="M482.739,225.06c-5.118-7.278-11.995-13.223-19.929-17.223c-7.116-30.612-21.203-59.683-40.894-84.314
			c-0.044-0.056-0.088-0.112-0.133-0.166c-6.532-8.153-13.726-15.89-21.382-22.997c-3.387-3.143-8.681-2.946-11.823,0.441
			c-3.143,3.387-2.946,8.679,0.441,11.823c7.07,6.562,13.711,13.707,19.74,21.236c0.01,0.012,0.02,0.026,0.03,0.038
			c18.99,23.731,32.327,51.932,38.573,81.555c0.577,2.734,2.48,5,5.072,6.039c7.731,3.101,14.28,8.801,18.439,16.049
			c1.491,2.6,4.259,4.203,7.256,4.203h2.885c7.861,0,14.256,6.395,14.256,14.256c0,7.861-6.395,14.256-14.256,14.256h-2.885
			c-2.997,0-5.765,1.603-7.256,4.203c-4.158,7.248-10.707,12.948-18.439,16.049c-2.594,1.041-4.495,3.305-5.072,6.039
			c-6.244,29.625-19.583,57.825-38.573,81.554c-0.009,0.012-0.019,0.023-0.028,0.036c-9.041,11.292-19.35,21.6-30.641,30.637
			c-0.013,0.01-0.026,0.021-0.039,0.031c-23.726,18.981-51.918,32.312-81.533,38.554c-2.734,0.577-5,2.48-6.039,5.072
			c-3.101,7.731-8.801,14.279-16.049,18.438c-2.6,1.491-4.203,4.26-4.203,7.257v2.885c0,7.861-6.395,14.256-14.256,14.256
			s-14.256-6.395-14.256-14.256v-2.885c0-2.997-1.604-5.765-4.203-7.257c-7.248-4.157-12.948-10.705-16.049-18.438
			c-1.04-2.592-3.305-4.495-6.039-5.072c-29.61-6.242-57.801-19.572-81.525-38.549c-0.016-0.012-0.03-0.025-0.046-0.037
			c-11.287-9.035-21.594-19.34-30.634-30.629c-0.012-0.016-0.023-0.03-0.036-0.046c-18.99-23.73-32.329-51.932-38.573-81.554
			c-0.577-2.734-2.479-4.998-5.072-6.039c-7.731-3.101-14.28-8.801-18.439-16.049c-1.491-2.6-4.259-4.203-7.256-4.203h-2.886
			c-7.861,0-14.256-6.395-14.256-14.256c0-7.861,6.395-14.256,14.256-14.256h2.885c2.997,0,5.765-1.604,7.256-4.203
			c4.159-7.248,10.706-12.948,18.439-16.049c2.592-1.04,4.495-3.305,5.072-6.039c6.242-29.611,19.572-57.802,38.549-81.526
			c0.012-0.016,0.025-0.031,0.038-0.047c9.031-11.283,19.331-21.585,30.612-30.621c0.02-0.016,0.04-0.032,0.06-0.048
			c23.73-18.99,51.932-32.329,81.554-38.573c2.734-0.576,5-2.479,6.039-5.072c3.101-7.731,8.801-14.279,16.049-18.438
			c2.6-1.491,4.203-4.26,4.203-7.256v-2.883c0-7.861,6.395-14.256,14.256-14.256s14.256,6.395,14.256,14.256v2.885
			c0,2.997,1.604,5.765,4.203,7.256c7.248,4.159,12.948,10.706,16.049,18.439c1.04,2.592,3.305,4.496,6.039,5.072
			c24.194,5.1,46.93,14.643,67.575,28.363c3.848,2.558,9.041,1.511,11.598-2.337c2.558-3.848,1.511-9.041-2.337-11.599
			c-21.23-14.11-44.497-24.151-69.221-29.879c-4-7.933-9.944-14.809-17.222-19.927C286.042,12.974,272.508,0,256,0
			s-30.043,12.974-30.941,29.261c-7.278,5.118-13.223,11.995-17.223,19.928c-30.61,7.115-59.676,21.2-84.307,40.889
			c-0.059,0.046-0.117,0.093-0.175,0.139c-12.179,9.757-23.302,20.874-33.065,33.047c-0.102,0.119-0.199,0.241-0.292,0.365
			c-19.648,24.609-33.704,53.637-40.808,84.207c-7.933,3.999-14.811,9.944-19.929,17.223C12.975,225.959,0,239.493,0,256
			c0,16.508,12.973,30.043,29.261,30.941c5.118,7.278,11.995,13.223,19.929,17.223c7.116,30.614,21.204,59.685,40.898,84.317
			c0.042,0.055,0.086,0.108,0.129,0.163c9.759,12.181,20.877,23.305,33.051,33.069c0.119,0.1,0.24,0.197,0.364,0.29
			c24.608,19.646,53.638,33.703,84.206,40.807c3.999,7.934,9.944,14.811,17.223,19.928C225.957,499.026,239.492,512,256,512
			s30.042-12.974,30.94-29.261c7.278-5.118,13.223-11.995,17.223-19.929c30.616-7.116,59.691-21.207,84.325-40.902
			c0.056-0.044,0.112-0.088,0.165-0.133c12.18-9.759,23.307-20.88,33.071-33.059c0.093-0.11,0.183-0.223,0.27-0.338
			c19.65-24.609,33.709-53.643,40.815-84.215c7.933-4,14.811-9.944,19.929-17.223C499.026,286.043,512,272.508,512,256
			C512,239.493,499.025,225.959,482.739,225.06z"/>
	</g>
</g>
<g>
	<g>
		<path d="M236.579,302.885c-3.124-1.294-6.724-0.579-9.117,1.814l-70.648,70.648c-1.718,1.718-2.604,4.097-2.428,6.52
			c0.175,2.422,1.396,4.648,3.342,6.102c18.672,13.925,39.66,23.551,62.381,28.607c0.605,0.135,1.213,0.2,1.817,0.2
			c2.364,0,4.653-1.003,6.259-2.814c2.69-3.033,5.837-5.594,9.355-7.612c2.6-1.491,4.203-4.259,4.203-7.256v-88.479
			C241.743,307.23,239.705,304.18,236.579,302.885z M225.012,394.509c-2.022,1.421-3.942,2.978-5.75,4.664
			c-15.544-3.963-30.141-10.354-43.552-19.06l49.303-49.303V394.509z"/>
	</g>
</g>
<g>
	<g>
		<path d="M413.96,283.813c-3.033-2.689-5.594-5.837-7.612-9.354c-1.491-2.6-4.259-4.203-7.256-4.203h-88.479
			c-3.384,0-6.434,2.038-7.729,5.165c-1.295,3.127-0.579,6.724,1.814,9.117l70.648,70.648c1.575,1.576,3.704,2.452,5.915,2.452
			c0.201,0,0.403-0.007,0.605-0.022c2.423-0.175,4.649-1.395,6.102-3.343c13.927-18.674,23.551-39.663,28.607-62.383
			C417.235,288.922,416.234,285.83,413.96,283.813z M380.113,336.289l-49.303-49.303h63.699v0.001
			c1.422,2.022,2.978,3.942,4.664,5.749C395.209,308.28,388.819,322.878,380.113,336.289z"/>
	</g>
</g>
<g>
	<g>
		<path d="M237.541,105.652c-3.518-2.019-6.666-4.579-9.355-7.612c-2.017-2.273-5.105-3.275-8.076-2.615
			c-22.721,5.055-43.71,14.681-62.381,28.607c-1.948,1.452-3.167,3.679-3.343,6.102c-0.175,2.423,0.711,4.802,2.428,6.52
			l70.648,70.648c1.601,1.601,3.741,2.451,5.918,2.451c1.078,0,2.165-0.209,3.2-0.637c3.127-1.295,5.165-4.346,5.165-7.729v-88.479
			C241.744,109.91,240.14,107.143,237.541,105.652z M225.012,181.19l-49.303-49.303c13.411-8.706,28.009-15.097,43.552-19.06
			c1.808,1.684,3.728,3.242,5.75,4.664V181.19z"/>
	</g>
</g>
<g>
	<g>
		<path d="M357.614,130.134c-0.175-2.423-1.395-4.649-3.343-6.102c-18.673-13.927-39.662-23.552-62.381-28.607
			c-2.969-0.663-6.059,0.34-8.076,2.615c-2.689,3.033-5.837,5.593-9.355,7.612c-2.6,1.491-4.203,4.26-4.203,7.256v88.479
			c0,3.384,2.038,6.434,5.165,7.729c1.036,0.43,2.123,0.637,3.2,0.637c2.177,0,4.317-0.85,5.918-2.451l70.648-70.648
			C356.903,134.936,357.789,132.557,357.614,130.134z M286.988,181.189V117.49c2.022-1.422,3.942-2.978,5.75-4.664
			c15.544,3.963,30.141,10.354,43.552,19.06L286.988,181.189z"/>
	</g>
</g>
<g>
	<g>
		<path d="M209.117,275.419c-1.295-3.127-4.346-5.165-7.729-5.165h-88.48c-2.997,0-5.765,1.604-7.256,4.203
			c-2.019,3.518-4.579,6.666-7.612,9.355c-2.274,2.019-3.275,5.111-2.615,8.077c5.055,22.72,14.681,43.708,28.606,62.381
			c1.452,1.948,3.679,3.167,6.102,3.343c0.203,0.015,0.404,0.022,0.605,0.022c2.21,0,4.341-0.876,5.915-2.451l17.092-17.092
			c3.267-3.267,3.267-8.565,0-11.831c-3.267-3.267-8.565-3.267-11.831,0l-10.028,10.027c-8.706-13.411-15.096-28.009-19.059-43.552
			c1.684-1.808,3.242-3.728,4.664-5.75h63.699l-16.407,16.407c-3.267,3.267-3.267,8.565,0,11.831c3.267,3.267,8.565,3.267,11.831,0
			l30.69-30.69C209.696,282.143,210.412,278.545,209.117,275.419z"/>
	</g>
</g>
<g>
	<g>
		<circle cx="256" cy="73.386" r="8.366"/>
	</g>
</g>
<g>
	<g>
		<circle cx="438.602" cy="256" r="8.366"/>
	</g>
</g>
<g>
	<g>
		<circle cx="256" cy="438.613" r="8.366"/>
	</g>
</g>
</svg>