<?xml version="1.0" encoding="iso-8859-1"?>
<!-- Uploaded to: SVG Repo, www.svgrepo.com, Generator: SVG Repo Mixer Tools -->
<svg height="800px" width="800px" version="1.1" id="Layer_1" xmlns="http://www.w3.org/2000/svg" xmlns:xlink="http://www.w3.org/1999/xlink" 
	 viewBox="0 0 512 512" xml:space="preserve">
<path style="fill:#6B7A99;" d="M89.043,166.957c-9.217,0-16.696-7.473-16.696-16.696V83.478c0-6.327,3.576-12.103,9.228-14.935
	l66.783-33.391c8.261-4.098,18.283-0.777,22.402,7.467c4.119,8.25,0.782,18.277-7.467,22.402l-57.554,28.777v56.462
	C105.739,159.484,98.261,166.957,89.043,166.957z"/>
<path style="fill:#5A6680;" d="M422.957,166.957c-9.217,0-16.696-7.473-16.696-16.696V93.798l-57.554-28.777
	c-8.25-4.125-11.587-14.152-7.467-22.402c4.131-8.244,14.163-11.566,22.402-7.467l66.783,33.391
	c5.652,2.832,9.228,8.608,9.228,14.935v66.783C439.652,159.484,432.174,166.957,422.957,166.957z"/>
<path style="fill:#3AACE6;" d="M389.565,512h-267.13c-9.217,0-16.696-7.473-16.696-16.696V217.043
	c0-9.223,7.479-16.696,16.696-16.696h267.13c9.217,0,16.696,7.473,16.696,16.696v278.261C406.261,504.527,398.782,512,389.565,512z"
	/>
<path style="fill:#2B9FD9;" d="M389.565,200.348H256V512h133.565c9.217,0,16.696-7.473,16.696-16.696V217.043
	C406.261,207.821,398.782,200.348,389.565,200.348z"/>
<path style="fill:#FFEFD9;" d="M456.348,233.739H55.652c-9.217,0-16.696-7.473-16.696-16.696v-66.783
	c0-9.223,7.479-16.696,16.696-16.696h400.696c9.217,0,16.696,7.473,16.696,16.696v66.783
	C473.043,226.266,465.565,233.739,456.348,233.739z"/>
<path style="fill:#FFD9B3;" d="M456.348,133.565H256v100.174h200.348c9.217,0,16.696-7.473,16.696-16.696v-66.783
	C473.043,141.038,465.565,133.565,456.348,133.565z"/>
<path style="fill:#FFC033;" d="M489.739,166.957H22.261c-9.217,0-16.696-7.473-16.696-16.696s7.479-16.696,16.696-16.696h467.478
	c9.217,0,16.696,7.473,16.696,16.696S498.956,166.957,489.739,166.957z"/>
<path style="fill:#F9A926;" d="M489.739,133.565H256v33.391h233.739c9.217,0,16.696-7.473,16.696-16.696
	S498.956,133.565,489.739,133.565z"/>
<path style="fill:#FFC033;" d="M289.391,300.522h-16.696v-16.696c0-9.223-7.479-16.696-16.696-16.696s-16.696,7.473-16.696,16.696
	v16.696h-16.696c-9.217,0-16.696,7.473-16.696,16.696s7.479,16.696,16.696,16.696h16.696v83.478c0,9.223,7.479,16.696,16.696,16.696
	s16.696-7.473,16.696-16.696v-83.478h16.696c9.217,0,16.696-7.473,16.696-16.696S298.608,300.522,289.391,300.522z"/>
<path style="fill:#F9A926;" d="M272.696,417.391v-83.478h16.696c9.217,0,16.696-7.473,16.696-16.696s-7.479-16.696-16.696-16.696
	h-16.696v-16.696c0-9.223-7.479-16.696-16.696-16.696v166.957C265.217,434.087,272.696,426.614,272.696,417.391z"/>
<path style="fill:#FFC033;" d="M489.739,512H22.261c-9.217,0-16.696-7.473-16.696-16.696s7.479-16.696,16.696-16.696h467.478
	c9.217,0,16.696,7.473,16.696,16.696S498.956,512,489.739,512z"/>
<path style="fill:#F9A926;" d="M489.739,478.609H256V512h233.739c9.217,0,16.696-7.473,16.696-16.696
	S498.956,478.609,489.739,478.609z"/>
<path style="fill:#5A6680;" d="M328.348,89.043c-24.555,0-44.522-19.972-44.522-44.522S303.793,0,328.348,0
	c24.555,0,44.522,19.972,44.522,44.522S352.903,89.043,328.348,89.043z"/>
<path style="fill:#6B7A99;" d="M183.652,89.043c-24.555,0-44.522-19.972-44.522-44.522S159.097,0,183.652,0
	s44.522,19.972,44.522,44.522S208.207,89.043,183.652,89.043z"/>
</svg>