<?xml version="1.0" encoding="iso-8859-1"?>
<!-- Uploaded to: SVG Repo, www.svgrepo.com, Generator: SVG Repo Mixer Tools -->
<svg fill="#000000" height="800px" width="800px" version="1.1" id="Layer_1" xmlns="http://www.w3.org/2000/svg" xmlns:xlink="http://www.w3.org/1999/xlink" 
	 viewBox="0 0 512 512" xml:space="preserve">
<g>
	<g>
		<path d="M461.125,114.252c-5.202-7.664-11.114-14.772-16.831-21.648c-1.613-1.94-3.224-3.877-4.824-5.831
			c-5.487-6.699-9.115-11.124-15.195-12.003c-6.113-0.881-10.719,2.351-17.695,7.247l-1.167,0.819
			c-2.323,1.628-4.641,3.281-6.963,4.935c-2.545,1.813-5.096,3.631-7.66,5.422c-4.007,2.799-4.987,8.314-2.187,12.321
			c2.796,4.007,8.312,4.987,12.32,2.189c2.612-1.824,5.208-3.673,7.797-5.519c2.286-1.628,4.567-3.254,6.85-4.855l1.179-0.826
			c1.712-1.201,3.571-2.507,4.936-3.372c1.17,1.285,2.744,3.206,4.095,4.854c1.625,1.986,3.267,3.959,4.909,5.936
			c5.696,6.85,11.078,13.321,15.793,20.267c1.779,2.625,2.551,4.061,2.883,4.814c-0.567,0.649-1.764,1.802-4.266,3.827
			c-26.38,21.363-55.406,33.418-88.733,36.855c-29.7,3.063-52.611-2.61-72.111-17.848c-20.877-16.32-34.149-35.767-40.255-59.128
			c5.159,5.939,11.004,11.655,17.614,17.242c20.131,17.016,42.166,25.583,65.204,25.582c15.138-0.001,30.71-3.702,46.448-11.136
			c4.418-2.087,6.308-7.362,4.22-11.78c-2.088-4.418-7.361-6.308-11.78-4.22c-33.892,16.012-64.202,12.1-92.668-11.96
			c-11.176-9.444-19.82-19.21-26.422-29.848c-3.065-4.952-8.7-7.041-14.017-5.205c-6.2,2.141-10.104,9.043-9.285,16.408
			c3.943,35.507,20.78,65.112,50.043,87.988c19.195,15.001,41.679,22.384,68.378,22.384c5.311,0,10.793-0.293,16.446-0.875
			c36.337-3.747,69.326-17.442,98.051-40.703C469.337,135.978,470.528,128.123,461.125,114.252z"/>
	</g>
</g>
<g>
	<g>
		<path d="M378.232,42.26l-37.4-37.4C337.71,1.726,333.554,0,329.131,0c-4.424,0-8.581,1.726-11.691,4.848l-37.412,37.412
			c-3.121,3.121-4.84,7.27-4.84,11.684s1.719,8.563,4.84,11.684l37.412,37.423c3.122,3.122,7.272,4.841,11.691,4.841
			c4.417,0,8.569-1.719,11.689-4.841l37.412-37.422C384.673,59.185,384.673,48.702,378.232,42.26z M329.129,89.712l-35.757-35.769
			l35.757-35.757l35.759,35.757L329.129,89.712z"/>
	</g>
</g>
<g>
	<g>
		<path d="M461.796,240.85c-18.424-26.8-43.233-41.593-69.879-41.672c-3.052-0.126-23.683-0.395-50.711,13.561
			c-40.951,21.144-69.218,60.583-87.071,94.112c-2.872-3.749-5.898-7.397-9.063-10.921c-2.553-2.84-5.196-5.602-7.914-8.268
			c20.163-16.773,31.524-39.667,31.524-64.203c0-49.305-46.601-89.417-103.882-89.417c-36.175,0-69.169,15.78-88.261,42.212
			c-1.99,2.755-2.226,6.405-0.609,9.394l25.967,47.971c1.216,2.248,3.346,3.859,5.839,4.421c2.495,0.56,5.107,0.017,7.17-1.494
			c8.633-6.32,19.521-11.469,31.488-14.888c5.176-1.478,10.404-2.587,15.539-3.294c4.842-0.667,8.226-5.132,7.558-9.973
			c-0.667-4.842-5.145-8.226-9.973-7.558c-5.959,0.821-12.012,2.102-17.986,3.81c-10.363,2.961-20.103,7.085-28.648,12.1
			l-18.631-34.428c16.056-18.979,42.551-30.577,70.549-30.577c47.522,0,86.185,32.173,86.185,71.72
			c0,21.922-11.864,42.37-32.548,56.101c-2.302,1.529-3.759,4.046-3.936,6.803c-0.177,2.757,0.944,5.441,3.031,7.252
			c5.019,4.356,9.856,9.115,14.377,14.143c5.846,6.509,11.172,13.489,15.828,20.749c1.537,2.617,4.382,4.372,7.638,4.372
			c3.595,0,6.689-2.147,8.075-5.229c15.755-32.887,43.221-76.609,84.715-98.58c24.595-13.024,42.839-12.22,42.959-12.216
			c0.192,0.013,0.386,0.019,0.578,0.019c44.094,0,79.966,53.984,79.966,120.34c0,42.426-14.559,80.975-38.945,103.117
			c-3.617,3.285-3.887,8.882-0.603,12.499c1.746,1.923,4.146,2.9,6.554,2.9c2.122,0,4.252-0.759,5.946-2.298
			c28.018-25.441,44.745-68.888,44.745-116.219C489.364,300.931,479.574,266.708,461.796,240.85z"/>
	</g>
</g>
<g>
	<g>
		<path d="M383.773,409.067c0.014-0.001,0.029-0.004,0.045-0.005c0.011-0.001,0.02,0,0.031-0.001
			c0.092-0.007,0.184-0.018,0.276-0.028c0.007-0.001,0.013-0.001,0.02-0.002c0.024-0.002,0.046-0.005,0.068-0.007
			c0.055-0.006,0.107-0.019,0.163-0.026c0.047-0.006,0.093-0.007,0.139-0.014c27.66-3.622,52.644-29.064,62.184-63.332
			c5.717-20.54,5.172-41.606-1.533-59.316c-7.066-18.663-20.07-31.479-36.619-36.091c-29.574-8.22-62.197,12.517-77.57,49.309
			c-5.47,13.088-15.19,23.142-27.386,28.318c-5.656,2.412-11.764,4.064-18.159,4.915c-7.456,0.997-14.013,5.202-17.985,11.537
			c-3.942,6.285-4.869,13.942-2.532,21.049c0.224,0.674,0.421,1.299,0.605,1.948c5.853,20.094,6.828,40.391,2.82,58.695
			c-4.056,18.522-13.199,34.596-26.438,46.488c-42.109,37.815-115.11,25.438-162.73-27.585
			c-29.853-33.235-43.366-76.062-37.471-112.758c10.105,38.381,25.77,68.055,46.743,88.451
			c22.694,22.081,46.685,28.517,62.816,30.028c10.89,1.016,25.635-0.563,28.988-1.042c34.823-4.985,60.097-30.028,60.097-59.549
			c0-33.321-32.533-60.429-72.524-60.429c-2.289,0-4.588,0.09-6.878,0.269c-5.688-10.078-10.131-20.579-13.235-31.29
			c-0.623-2.141-1.193-4.299-1.706-6.462c6.404-0.802,12.893-2.139,19.39-3.997c18.18-5.192,34.315-13.923,45.433-24.581
			c12.579-12.059,17.586-25.412,14.102-37.594c-3.702-12.972-16.652-22.135-35.529-25.142c-4.843-0.769-9.363,2.521-10.13,7.347
			c-0.768,4.827,2.52,9.362,7.347,10.13c11.626,1.851,19.586,6.533,21.297,12.526c1.57,5.492-1.831,12.767-9.332,19.958
			c-8.945,8.575-22.811,15.989-38.049,20.34c-8.634,2.469-17.198,3.869-25.452,4.16c-2.537,0.09-4.913,1.264-6.523,3.224
			c-1.612,1.961-2.304,4.519-1.899,7.025c0.965,6.003,2.332,12.061,4.057,17.998c4.04,13.936,10.084,27.531,17.967,40.407
			c1.851,3.024,5.329,4.651,8.837,4.134c3.399-0.501,6.866-0.755,10.306-0.755c30.231,0,54.827,19.169,54.827,42.732
			c0,20.63-18.886,38.307-44.904,42.03c-3.683,0.526-16.412,1.727-24.836,0.94c-13.294-1.245-33.126-6.609-52.125-25.093
			c-23.719-23.069-40.014-60.314-48.432-110.7c-0.624-3.735-3.556-6.659-7.292-7.273c-3.741-0.615-7.45,1.218-9.237,4.555
			c-12.315,23.005-16.175,51.632-10.87,80.609c5.406,29.519,19.6,57.745,41.051,81.627c32.445,36.124,75.677,55.261,115.748,55.258
			c26.798-0.002,52.187-8.564,71.971-26.331c31.633-28.407,42.663-75.652,28.805-123.235c-0.235-0.829-0.511-1.714-0.815-2.629
			c-0.924-2.809,0.059-5.014,0.726-6.079c0.687-1.095,2.294-2.992,5.332-3.398c7.975-1.06,15.634-3.138,22.749-6.172
			c16.461-6.987,29.525-20.404,36.786-37.78c11.694-27.984,35.987-44.785,56.497-39.083c23.71,6.606,35.304,39.628,25.846,73.613
			c-7.532,27.058-26.999,47.81-47.366,50.518c-0.046,0.005-0.09,0.014-0.136,0.019c-0.045,0.005-0.089,0.006-0.133,0.012
			c-3.163,0.262-23.699,1.586-42.171-6.12c-1.903-0.793-6.228-3.359-13.819-11.635c-4.75-5.171-12.068-6.357-18.211-2.954
			c-6.098,3.38-8.952,10.166-7.1,16.885c14.674,53.227,50.389,87.62,90.988,87.62c9.457,0,18.804-1.886,27.778-5.605
			c4.515-1.871,6.659-7.047,4.788-11.562c-1.872-4.516-7.05-6.658-11.563-4.788c-6.817,2.826-13.884,4.258-21.004,4.258
			c-15.688,0-30.925-6.962-44.066-20.132c-11.166-11.193-20.192-26.127-26.435-43.623c4.278,3.754,8.193,6.354,11.832,7.872
			C355.4,411.001,379.221,409.468,383.773,409.067z"/>
	</g>
</g>
</svg>