<?xml version="1.0" encoding="iso-8859-1"?>
<!-- Uploaded to: SVG Repo, www.svgrepo.com, Generator: SVG Repo Mixer Tools -->
<svg fill="#000000" height="800px" width="800px" version="1.1" id="Layer_1" xmlns="http://www.w3.org/2000/svg" xmlns:xlink="http://www.w3.org/1999/xlink" 
	 viewBox="0 0 512 512" xml:space="preserve">
<g>
	<g>
		<path d="M362.349,192.7c4.164,0,7.539-3.375,7.539-7.539v-35.516c0-4.163-3.374-7.539-7.539-7.539H238.236
			c-4.163,0-7.539,3.375-7.539,7.539v81.046h-37.991v-81.046c0-4.163-3.375-7.539-7.539-7.539h-35.528
			c-4.163,0-7.539,3.375-7.539,7.539v124.113c0,4.164,3.375,7.539,7.539,7.539h81.058v37.991h-81.058
			c-4.163,0-7.539,3.374-7.539,7.539v35.528c0,4.164,3.375,7.539,7.539,7.539h124.114c4.164,0,7.539-3.374,7.539-7.539v-22.238
			c0-4.164-3.374-7.539-7.539-7.539c-4.164,0-7.539,3.374-7.539,7.539v14.7H157.179v-20.451h81.058c4.163,0,7.539-3.374,7.539-7.539
			v-53.068c0-4.164-3.375-7.539-7.539-7.539h-81.058V157.185h20.451v81.046c0,4.163,3.375,7.539,7.539,7.539h53.068
			c4.163,0,7.539-3.375,7.539-7.539v-81.046h109.036v20.439h-81.058c-4.164,0-7.539,3.375-7.539,7.539v53.068
			c0,4.163,3.374,7.538,7.539,7.538h81.058v109.047h-20.439v-81.058c0-4.164-3.374-7.539-7.539-7.539h-53.08
			c-4.164,0-7.539,3.374-7.539,7.539v36.849c0,4.164,3.374,7.538,7.539,7.538c4.164,0,7.539-3.374,7.539-7.538v-29.311h38.003
			v81.058c0,4.164,3.374,7.539,7.538,7.539h35.516c4.163,0,7.539-3.374,7.537-7.539V238.23c0-4.163-3.374-7.539-7.539-7.539h-81.058
			V192.7H362.349z"/>
	</g>
</g>
<g>
	<g>
		<path d="M504.461,418.425H7.539c-4.163,0-7.539,3.374-7.539,7.539c0,4.164,3.375,7.539,7.539,7.539h496.923
			c4.164,0,7.539-3.374,7.539-7.539C512,421.799,508.626,418.425,504.461,418.425z"/>
	</g>
</g>
<g>
	<g>
		<path d="M372.854,78.487H7.539C3.375,78.487,0,81.862,0,86.025c0,4.163,3.375,7.538,7.539,7.538h365.316
			c4.163,0,7.539-3.375,7.539-7.538C380.393,81.862,377.019,78.487,372.854,78.487z"/>
	</g>
</g>
<g>
	<g>
		<path d="M504.461,78.487H402.362c-4.164,0-7.539,3.375-7.539,7.539c0,4.163,3.374,7.538,7.539,7.538h102.099
			c4.164,0,7.539-3.375,7.539-7.538C512,81.862,508.626,78.487,504.461,78.487z"/>
	</g>
</g>
<g>
	<g>
		<path d="M504.461,36.361H7.539C3.375,36.361,0,39.736,0,43.899v424.202c0,4.164,3.375,7.539,7.539,7.539h64.329
			c4.163,0,7.539-3.374,7.539-7.539c0-4.164-3.375-7.539-7.539-7.539h-56.79V51.438h481.846v409.125H101.376
			c-4.163,0-7.539,3.374-7.539,7.539c0,4.164,3.375,7.539,7.539,7.539h403.086c4.164,0,7.539-3.374,7.539-7.539V43.899
			C512,39.736,508.626,36.361,504.461,36.361z"/>
	</g>
</g>
</svg>