<?xml version="1.0" encoding="iso-8859-1"?>
<!-- Uploaded to: SVG Repo, www.svgrepo.com, Generator: SVG Repo Mixer Tools -->
<svg height="800px" width="800px" version="1.1" id="Layer_1" xmlns="http://www.w3.org/2000/svg" xmlns:xlink="http://www.w3.org/1999/xlink" 
	 viewBox="0 0 512 512" xml:space="preserve">
<path style="fill:#FFC033;" d="M222.609,495.304v-83.478l-52.832-8.805c-8.051-1.341-13.951-8.307-13.951-16.469v-32.93
	c0-10.317,9.264-18.165,19.44-16.469l47.342,7.89V267.13h-116.87c-9.22,0-16.696-7.475-16.696-16.696v-33.391
	c0-9.22,7.475-16.696,16.696-16.696h116.87v-66.783h-50.087c-9.22,0-16.696-7.475-16.696-16.696V83.478
	c0-9.22,7.475-16.696,16.696-16.696h50.087V16.696c0-9.22,7.475-16.696,16.696-16.696h33.391c9.22,0,16.696,7.475,16.696,16.696
	v50.087h50.087c9.22,0,16.696,7.475,16.696,16.696v33.391c0,9.22-7.475,16.696-16.696,16.696h-50.087v66.783h116.87
	c9.22,0,16.696,7.475,16.696,16.696v33.391c0,9.22-7.475,16.696-16.696,16.696h-116.87v89.043l52.832,8.805
	c8.051,1.341,13.951,8.307,13.951,16.469v32.93c0,10.317-9.264,18.165-19.44,16.469l-47.342-7.89v72.348
	c0,9.22-7.475,16.696-16.696,16.696h-33.391C230.084,512,222.609,504.525,222.609,495.304z"/>
<path style="fill:#F9A926;" d="M406.261,200.348h-116.87v-66.783h50.087c9.22,0,16.696-7.475,16.696-16.696V83.478
	c0-9.22-7.475-16.696-16.696-16.696h-50.087V16.696c0-9.22-7.475-16.696-16.696-16.696H256v512h16.696
	c9.22,0,16.696-7.475,16.696-16.696v-72.348l47.342,7.89c10.177,1.696,19.44-6.152,19.44-16.469v-32.93
	c0-8.162-5.899-15.127-13.951-16.469l-52.832-8.805V267.13h116.87c9.22,0,16.696-7.475,16.696-16.696v-33.391
	C422.957,207.823,415.481,200.348,406.261,200.348z"/>
</svg>