<?xml version="1.0" encoding="iso-8859-1"?>
<!-- Uploaded to: SVG Repo, www.svgrepo.com, Generator: SVG Repo Mixer Tools -->
<svg version="1.1" id="Layer_1" xmlns="http://www.w3.org/2000/svg" xmlns:xlink="http://www.w3.org/1999/xlink" 
	 viewBox="0 0 511.999 511.999" xml:space="preserve">
<g>
	<path style="fill:#E6E6E6;" d="M461.669,98.442c10.369,6.789,11.84,18.015,7.785,27.225h-2.746h-59.154h-2.757
		c-4.043-9.21-2.572-20.436,7.785-27.225c21.097-13.798,24.549-27.225,24.549-27.225S440.584,84.644,461.669,98.442z"/>
	<path style="fill:#E6E6E6;" d="M99.235,98.442c10.369,6.789,11.84,18.015,7.785,27.225h-2.757H45.121h-2.757
		c-4.055-9.21-2.584-20.436,7.785-27.225c21.097-13.798,24.549-27.225,24.549-27.225S78.15,84.644,99.235,98.442z"/>
</g>
<path style="fill:#F7B239;" d="M288.574,83.335c12.976,0,24.572-5.862,32.323-15.061c-3.024,26.808-25.777,47.65-53.397,47.65
	c-29.693,0-53.756-24.063-53.756-53.744c0-27.631,20.842-50.373,47.662-53.408c-9.21,7.751-15.061,19.359-15.061,32.323
	C246.345,64.428,265.253,83.335,288.574,83.335z"/>
<path style="fill:#999999;" d="M303.426,417.038v86.357h-92.601v-86.357c0-24.306,19.718-44.024,44.024-44.024h4.553
	C283.719,373.013,303.426,392.732,303.426,417.038z"/>
<g>
	<polygon style="fill:#E6E6E6;" points="466.709,125.668 466.709,503.394 407.555,503.394 407.555,325.502 407.555,125.668 	"/>
	<polygon style="fill:#E6E6E6;" points="104.263,325.502 104.263,503.394 45.121,503.394 45.121,125.668 104.263,125.668 	"/>
</g>
<g>
	<polygon style="fill:#CCCCCC;" points="67.19,325.502 67.19,503.394 45.121,503.394 45.121,125.668 67.19,125.668 	"/>
	<polygon style="fill:#CCCCCC;" points="429.625,325.502 429.625,503.394 407.555,503.394 407.555,125.668 429.625,125.668 	"/>
	<rect x="104.263" y="325.498" style="fill:#CCCCCC;" width="48.739" height="177.892"/>
	<rect x="358.819" y="325.498" style="fill:#CCCCCC;" width="48.739" height="177.892"/>
</g>
<path style="fill:#F2F2F2;" d="M358.815,325.502v177.892h-55.389v-86.357c0-24.306-19.707-44.024-44.024-44.024h-4.553
	c-24.306,0-44.024,19.718-44.024,44.024v86.357h-57.822V325.502v-36.563h0.185h205.453h0.174V325.502z"/>
<rect x="153.006" y="288.934" style="fill:#CCCCCC;" width="31.083" height="209.219"/>
<path style="fill:#E6E6E6;" d="M333.895,202.432c32.937,21.56,37.606,57.243,24.746,86.507H153.188
	c-12.871-29.264-8.191-64.947,24.746-86.507c67.009-43.862,77.981-86.507,77.981-86.507S266.874,158.57,333.895,202.432z"/>
<path style="fill:#CCCCCC;" d="M210.155,202.432c39.221-43.751,45.725-86.281,45.757-86.497
	c-0.112,0.429-11.308,42.857-77.978,86.497c-32.937,21.56-37.617,57.243-24.746,86.507h42.445
	C188.081,259.675,190.827,223.992,210.155,202.432z"/>
<path d="M484.131,116.893h-3.839c0.3-10.201-4.548-19.767-13.774-25.807c-14.681-9.607-19.44-18.728-20.607-21.462V59.091
	c5.677-0.729,11.166-3.242,15.516-7.592c3.393-3.393,3.393-8.895,0-12.287c-3.393-3.393-8.895-3.393-12.287,0
	c-3.677,3.677-9.66,3.677-13.338,0c-1.783-1.783-2.764-4.151-2.764-6.67s0.981-4.887,2.764-6.668c3.393-3.393,3.393-8.895,0-12.289
	c-3.393-3.392-8.895-3.393-12.289,0c-5.065,5.065-7.854,11.797-7.854,18.958c0,7.16,2.789,13.893,7.854,18.957
	c1.541,1.541,3.236,2.826,5.02,3.912v14.213c-1.167,2.735-5.929,11.855-20.623,21.466c-9.213,6.038-14.058,15.603-13.761,25.803
	h-3.835c-4.799,0-8.689,3.89-8.689,8.689c0,4.799,3.89,8.689,8.689,8.689h8.643v182.457h-31.361v-26.558
	c6.616-16.21,8.19-33.693,4.386-49.492c-4.458-18.518-15.951-34.287-33.236-45.601c-43.129-28.226-62.023-55.896-69.662-70.583
	c31.141-0.732,57.035-24.263,60.54-55.33c0.43-3.806-1.683-7.442-5.201-8.955c-3.517-1.514-7.612-0.546-10.078,2.383
	c-6.41,7.607-15.769,11.971-25.679,11.971c-18.494,0-33.539-15.05-33.539-33.551c0-9.917,4.362-19.276,11.966-25.675
	c2.931-2.467,3.901-6.562,2.388-10.08c-1.514-3.52-5.158-5.627-8.959-5.202c-31.569,3.573-55.374,30.246-55.374,62.043
	c0,26.461,16.558,49.115,39.852,58.187c-4.043,8.878-13.616,25.766-34.187,45.363c-3.474,3.31-3.608,8.811-0.298,12.285
	c3.31,3.476,8.809,3.608,12.285,0.298c16.796-16.003,27.062-30.536,33.196-41.32c9.97,17.538,30.901,45.005,73.233,72.709
	c29.111,19.055,31.499,47.99,23.589,70.549H159.188c-4.142-11.838-4.962-24.231-2.267-35.42
	c3.404-14.135,12.346-26.282,25.862-35.129c7.03-4.602,13.788-9.412,20.087-14.299c3.791-2.941,4.481-8.399,1.54-12.191
	c-2.943-3.791-8.4-4.48-12.191-1.54c-5.933,4.603-12.309,9.141-18.952,13.489c-17.286,11.315-28.781,27.084-33.239,45.601
	c-3.803,15.793-2.234,33.266,4.378,49.467v26.585h-31.361v-182.46h8.654c4.799,0,8.689-3.89,8.689-8.689
	c0-4.799-3.89-8.689-8.689-8.689h-3.838c0.301-10.201-4.548-19.767-13.775-25.806c-14.68-9.607-19.44-18.728-20.607-21.463V58.625
	c4.736-1.088,9.239-3.444,12.921-7.126c3.393-3.393,3.393-8.895,0-12.289c-3.394-3.393-8.895-3.392-12.289,0
	c-3.677,3.677-9.662,3.678-13.338,0c-3.677-3.677-3.678-9.661,0-13.339c3.393-3.393,3.393-8.895,0-12.287
	c-3.393-3.393-8.895-3.393-12.287,0c-10.452,10.452-10.452,27.462,0,37.915c2.271,2.271,4.861,4.018,7.615,5.301v12.824
	c-1.167,2.735-5.928,11.855-20.619,21.464c-9.225,6.041-14.074,15.604-13.774,25.806h-3.838c-4.799,0-8.689,3.89-8.689,8.689
	s3.89,8.689,8.689,8.689h8.654V503.31c0,4.799,3.89,8.689,8.689,8.689h421.588c4.799,0,8.689-3.89,8.689-8.689V172.897
	c0-4.799-3.89-8.689-8.689-8.689s-8.689,3.89-8.689,8.689v321.723h-41.777v-360.35h41.777v9.662c0,4.799,3.89,8.689,8.689,8.689
	s8.689-3.89,8.689-8.689v-9.662h8.643c4.799,0,8.689-3.89,8.689-8.689S488.93,116.893,484.131,116.893z M222.524,62.095
	c0-14.346,6.711-27.247,17.31-35.532c-1.371,4.636-2.087,9.496-2.087,14.447c0,28.083,22.842,50.929,50.917,50.929
	c4.952,0,9.814-0.717,14.455-2.09c-8.281,10.592-21.181,17.301-35.527,17.301C242.74,107.15,222.524,86.938,222.524,62.095z
	 M398.956,334.105V494.62h-31.361V334.105H398.956z M144.404,334.105V494.62h-31.361V334.105H144.404z M54.995,105.629
	c9.259-6.057,15.547-12.147,19.791-17.392c4.241,5.243,10.525,11.334,19.778,17.39c5.143,3.367,6.143,7.767,5.891,11.267H49.107
	C48.856,113.393,49.854,108.994,54.995,105.629z M53.9,134.271h41.765V494.62H53.9C53.9,494.62,53.9,134.271,53.9,134.271z
	 M303.516,452.68c-4.799,0-8.689,3.89-8.689,8.689v33.251h-75.223v-77.668c0-19.484,15.851-35.335,35.335-35.335h4.553
	c19.484,0,35.335,15.851,35.335,35.335v15.454c0,4.799,3.89,8.689,8.689,8.689s8.689-3.89,8.689-8.689v-15.454
	c0-29.066-23.647-52.713-52.713-52.713h-4.553c-29.066,0-52.713,23.647-52.713,52.713v77.668h-40.444V297.542h188.435V494.62
	h-38.011v-33.251C312.205,456.57,308.315,452.68,303.516,452.68z M462.89,116.893h-51.344c-0.249-3.502,0.75-7.901,5.882-11.264
	c9.259-6.057,15.547-12.147,19.791-17.392c4.241,5.243,10.525,11.334,19.78,17.388C462.143,108.993,463.142,113.393,462.89,116.893z
	"/>
<path d="M445.911,198.697c0-4.799-3.89-8.689-8.689-8.689c-4.799,0-8.689,3.89-8.689,8.689v28.025c0,4.799,3.89,8.689,8.689,8.689
	c4.799,0,8.689-3.89,8.689-8.689V198.697z"/>
<path d="M437.222,294.797c-4.799,0-8.689,3.89-8.689,8.689v28.025c0,4.799,3.89,8.689,8.689,8.689c4.799,0,8.689-3.89,8.689-8.689
	v-28.025C445.911,298.687,442.021,294.797,437.222,294.797z"/>
<path d="M74.788,190.008c-4.799,0-8.689,3.89-8.689,8.689v28.025c0,4.799,3.89,8.689,8.689,8.689s8.689-3.89,8.689-8.689v-28.025
	C83.477,193.898,79.587,190.008,74.788,190.008z"/>
<path d="M74.788,294.797c-4.799,0-8.689,3.89-8.689,8.689v28.025c0,4.799,3.89,8.689,8.689,8.689s8.689-3.89,8.689-8.689v-28.025
	C83.477,298.687,79.587,294.797,74.788,294.797z"/>
</svg>