<?xml version="1.0" encoding="iso-8859-1"?>
<!-- Uploaded to: SVG Repo, www.svgrepo.com, Generator: SVG Repo Mixer Tools -->
<svg height="800px" width="800px" version="1.1" id="Layer_1" xmlns="http://www.w3.org/2000/svg" xmlns:xlink="http://www.w3.org/1999/xlink" 
	 viewBox="0 0 512 512" xml:space="preserve">
<path style="fill:#F7B239;" d="M139.524,0v146.375c0,47.611,28.571,88.544,69.499,106.606c-0.026,0.642-0.049,1.283-0.049,1.931
	c0,16.819,8.836,31.567,22.112,39.879v49.019c-13.276,8.313-22.112,23.06-22.112,39.879c0,16.819,8.836,31.567,22.112,39.879v42.342
	h49.83v-42.34c13.276-8.312,22.112-23.06,22.112-39.879c0-16.819-8.836-31.567-22.112-39.879v-49.019
	c13.276-8.313,22.112-23.06,22.112-39.879c0-0.648-0.022-1.289-0.049-1.931c40.929-18.063,69.499-58.995,69.499-106.607V0H139.524z"
	/>
<path style="fill:#E09B2D;" d="M229.093,383.689c0-16.819,5.055-31.567,12.652-39.879v-49.019
	c-7.597-8.313-12.652-23.06-12.652-39.879c0-0.648,0.012-1.289,0.027-1.931c-23.419-18.063-39.767-58.996-39.767-106.607V0h-49.83
	v146.375c0,47.611,28.571,88.544,69.499,106.606c-0.026,0.642-0.049,1.283-0.049,1.931c0,16.819,8.836,31.567,22.112,39.879v49.019
	c-13.276,8.313-22.112,23.06-22.112,39.879c0,16.819,8.836,31.567,22.112,39.879v42.342h10.659v-42.34
	C234.148,415.256,229.093,400.507,229.093,383.689z"/>
<path style="fill:#F7B239;" d="M344.915,512h-177.83l0,0c0-25.457,20.636-46.092,46.092-46.092h85.645
	C324.28,465.908,344.915,486.545,344.915,512L344.915,512z"/>
<path style="fill:#E09B2D;" d="M254.288,465.908h-41.109c-25.457,0-46.092,20.636-46.092,46.092l0,0h41.109l0,0
	C208.195,486.543,228.832,465.908,254.288,465.908z"/>
<g>
	<path style="fill:#F95428;" d="M338.306,33.811c0-5.748,4.664-10.412,10.412-10.412l0,0c5.747,0,10.412,4.664,10.412,10.412l0,0
		c0,5.747-4.665,10.412-10.412,10.412l0,0C342.97,44.223,338.306,39.557,338.306,33.811z M301.224,33.811
		c0-5.748,4.652-10.412,10.412-10.412l0,0c5.748,0,10.412,4.664,10.412,10.412l0,0c0,5.747-4.664,10.412-10.412,10.412l0,0
		C305.875,44.223,301.224,39.557,301.224,33.811z M264.129,33.811c0-5.748,4.665-10.412,10.412-10.412l0,0
		c5.762,0,10.412,4.664,10.412,10.412l0,0c0,5.747-4.65,10.412-10.412,10.412l0,0C268.794,44.223,264.129,39.557,264.129,33.811z
		 M227.047,33.811c0-5.748,4.665-10.412,10.412-10.412l0,0c5.748,0,10.412,4.664,10.412,10.412l0,0
		c0,5.747-4.664,10.412-10.412,10.412l0,0C231.712,44.223,227.047,39.557,227.047,33.811z M189.966,33.811
		c0-5.748,4.65-10.412,10.398-10.412l0,0c5.762,0,10.412,4.664,10.412,10.412l0,0c0,5.747-4.65,10.412-10.412,10.412l0,0
		C194.618,44.223,189.966,39.557,189.966,33.811z M152.872,33.811c0-5.748,4.664-10.412,10.412-10.412l0,0
		c5.747,0,10.412,4.664,10.412,10.412l0,0c0,5.747-4.665,10.412-10.412,10.412l0,0C157.536,44.223,152.872,39.557,152.872,33.811z"
		/>
	<path style="fill:#F95428;" d="M338.306,131.761c0-5.748,4.664-10.412,10.412-10.412l0,0c5.747,0,10.412,4.664,10.412,10.412l0,0
		c0,5.747-4.665,10.412-10.412,10.412l0,0C342.97,142.173,338.306,137.508,338.306,131.761z M301.224,131.761
		c0-5.748,4.652-10.412,10.412-10.412l0,0c5.748,0,10.412,4.664,10.412,10.412l0,0c0,5.747-4.664,10.412-10.412,10.412l0,0
		C305.875,142.173,301.224,137.508,301.224,131.761z M264.129,131.761c0-5.748,4.665-10.412,10.412-10.412l0,0
		c5.762,0,10.412,4.664,10.412,10.412l0,0c0,5.747-4.65,10.412-10.412,10.412l0,0C268.794,142.173,264.129,137.508,264.129,131.761z
		 M227.047,131.761c0-5.748,4.665-10.412,10.412-10.412l0,0c5.748,0,10.412,4.664,10.412,10.412l0,0
		c0,5.747-4.664,10.412-10.412,10.412l0,0C231.712,142.173,227.047,137.508,227.047,131.761z M189.966,131.761
		c0-5.748,4.65-10.412,10.398-10.412l0,0c5.762,0,10.412,4.664,10.412,10.412l0,0c0,5.747-4.65,10.412-10.412,10.412l0,0
		C194.618,142.173,189.966,137.508,189.966,131.761z M152.872,131.761c0-5.748,4.664-10.412,10.412-10.412l0,0
		c5.747,0,10.412,4.664,10.412,10.412l0,0c0,5.747-4.665,10.412-10.412,10.412l0,0C157.536,142.173,152.872,137.508,152.872,131.761
		z"/>
</g>
<g>
	<path style="fill:#E09B2D;" d="M370.761,74.122H141.24c-5.16,0-9.343-4.183-9.343-9.343s4.183-9.343,9.343-9.343H370.76
		c5.161,0,9.343,4.183,9.343,9.343S375.921,74.122,370.761,74.122z"/>
	<path style="fill:#E09B2D;" d="M370.761,104.019H141.24c-5.16,0-9.343-4.183-9.343-9.343c0-5.16,4.183-9.343,9.343-9.343H370.76
		c5.161,0,9.343,4.183,9.343,9.343C380.103,99.836,375.921,104.019,370.761,104.019z"/>
</g>
</svg>