<?xml version="1.0" encoding="iso-8859-1"?>
<!-- Uploaded to: SVG Repo, www.svgrepo.com, Generator: SVG Repo Mixer Tools -->
<svg version="1.1" id="Layer_1" xmlns="http://www.w3.org/2000/svg" xmlns:xlink="http://www.w3.org/1999/xlink" 
	 viewBox="0 0 512 512" xml:space="preserve">
<path style="fill:#E09B2D;" d="M256,321.695c-76.68,0-139.063-62.384-139.063-139.065S179.32,43.567,256,43.567
	c76.681,0,139.065,62.384,139.065,139.065S332.681,321.695,256,321.695z M256,66.842c-63.846,0-115.788,51.942-115.788,115.789
	S192.154,298.421,256,298.421s115.789-51.942,115.789-115.789S319.845,66.842,256,66.842z"/>
<path style="fill:#F7B239;" d="M433.614,133.054v105.961h-95.231c-0.151-16.141-13.29-29.176-29.467-29.176
	c-16.281,0-29.49,13.197-29.49,29.478s13.209,29.49,29.49,29.49h0.07V512H203.025V268.807h0.058c16.281,0,29.49-13.209,29.49-29.49
	s-13.209-29.478-29.49-29.478c-16.176,0-29.315,13.034-29.467,29.176H78.386V133.054h95.243c-0.023,0.314-0.023,0.628-0.023,0.943
	c0,16.281,13.197,29.49,29.478,29.49s29.49-13.209,29.49-29.49s-13.209-29.478-29.49-29.478h-0.058V0h105.961v104.518h-0.07
	c-16.281,0-29.49,13.197-29.49,29.478s13.209,29.49,29.49,29.49c16.281,0,29.478-13.209,29.478-29.49c0-0.314,0-0.628-0.023-0.943
	H433.614z"/>
<g>
	<rect x="230.694" y="26.188" style="fill:#E09B2D;" width="50.623" height="17.457"/>
	<rect x="230.694" y="57.607" style="fill:#E09B2D;" width="50.623" height="17.457"/>
	<rect x="390.852" y="160.728" style="fill:#E09B2D;" width="17.457" height="50.623"/>
	<rect x="359.43" y="160.728" style="fill:#E09B2D;" width="17.457" height="50.623"/>
	<rect x="135.125" y="160.728" style="fill:#E09B2D;" width="17.457" height="50.623"/>
	<rect x="103.703" y="160.728" style="fill:#E09B2D;" width="17.457" height="50.623"/>
	<rect x="230.694" y="282.784" style="fill:#E09B2D;" width="50.623" height="17.457"/>
	<rect x="230.694" y="317.814" style="fill:#E09B2D;" width="50.623" height="17.457"/>
	<rect x="230.694" y="352.843" style="fill:#E09B2D;" width="50.623" height="17.457"/>
	<rect x="230.694" y="387.872" style="fill:#E09B2D;" width="50.623" height="17.457"/>
	<rect x="230.694" y="422.902" style="fill:#E09B2D;" width="50.623" height="17.457"/>
	<rect x="230.694" y="457.931" style="fill:#E09B2D;" width="50.623" height="17.457"/>
</g>
</svg>