<?xml version="1.0" encoding="iso-8859-1"?>
<!-- Uploaded to: SVG Repo, www.svgrepo.com, Generator: SVG Repo Mixer Tools -->
<svg fill="#000000" height="800px" width="800px" version="1.1" id="Layer_1" xmlns="http://www.w3.org/2000/svg" xmlns:xlink="http://www.w3.org/1999/xlink" 
	 viewBox="0 0 512.001 512.001" xml:space="preserve">
<g>
	<g>
		<path d="M495.304,38.957H16.696C7.479,38.957,0,46.43,0,55.652v400.696c0,9.223,7.479,16.696,16.696,16.696h478.609
			c9.217,0,16.696-7.473,16.696-16.696V55.652C512,46.43,504.521,38.957,495.304,38.957z M33.391,72.348h445.217v33.391H33.391
			V72.348z M322.783,239.304c9.217,0,16.696,7.473,16.696,16.696v66.783c0,9.223-7.479,16.696-16.696,16.696
			s-16.696-7.473-16.696-16.696v-50.087h-33.391v50.087c0,9.223-7.479,16.696-16.696,16.696h-66.783
			c-9.217,0-16.696-7.473-16.696-16.696c0-9.223,7.479-16.696,16.696-16.696h50.087v-33.391h-50.087v0
			c-9.217,0-16.696-7.473-16.696-16.696v-66.783c0-9.223,7.479-16.696,16.696-16.696c9.217,0,16.696,7.473,16.696,16.696v50.087
			h33.391v-50.087c0-9.223,7.479-16.696,16.696-16.696h66.783c9.217,0,16.696,7.473,16.696,16.696
			c0,9.223-7.479,16.696-16.696,16.696h-50.087v33.391H322.783z M33.391,439.652v-33.391h445.217v33.391H33.391z"/>
	</g>
</g>
</svg>