<?xml version="1.0" encoding="iso-8859-1"?>
<!-- Uploaded to: SVG Repo, www.svgrepo.com, Generator: SVG Repo Mixer Tools -->
<svg height="800px" width="800px" version="1.1" id="Layer_1" xmlns="http://www.w3.org/2000/svg" xmlns:xlink="http://www.w3.org/1999/xlink" 
	 viewBox="0 0 512 512" xml:space="preserve">
<path style="fill:#3AACE6;" d="M305.041,166.659H289.42c-27.572,0-50.13,22.559-50.13,50.13V495.29c0,9.228,7.482,16.71,16.71,16.71
	h200.52c9.228,0,16.71-7.482,16.71-16.71V334.85C473.23,242.346,397.545,166.659,305.041,166.659z"/>
<path style="fill:#2B9FD9;" d="M473.23,282.041V495.29c0,9.228-7.482,16.71-16.71,16.71H356.26V166.659h1.589
	C421.309,166.659,473.23,218.582,473.23,282.041z"/>
<path style="fill:#EE6E2F;" d="M145.332,266.919H88.9c-27.572,0-50.13,22.559-50.13,50.13v178.24c0,9.228,7.482,16.71,16.71,16.71
	H256c9.228,0,16.71-7.482,16.71-16.71V394.298C272.71,323.95,215.681,266.919,145.332,266.919z"/>
<path style="fill:#E15C25;" d="M272.71,383.89v111.4c0,9.228-7.482,16.71-16.71,16.71H155.74V266.919l0,0
	C220.341,266.919,272.71,319.29,272.71,383.89z"/>
<path style="fill:#FFC033;" d="M155.74,233.499c-27.643,0-50.13-22.487-50.13-50.13c0-21.361,25.446-60.498,36.379-76.337
	c6.244-9.029,21.257-9.029,27.502,0c10.933,15.84,36.379,54.977,36.379,76.337C205.87,211.013,183.384,233.499,155.74,233.499z"/>
<path style="fill:#F9A926;" d="M205.87,183.369c0-21.361-25.446-60.498-36.379-76.337c-3.123-4.515-8.436-6.772-13.751-6.772
	v133.239C183.384,233.499,205.87,211.013,205.87,183.369z"/>
<path style="fill:#FFC033;" d="M356.26,133.239c-27.643,0-50.13-22.487-50.13-50.13c0-21.361,25.446-60.498,36.379-76.337
	c6.244-9.029,21.257-9.029,27.502,0c10.933,15.84,36.379,54.977,36.379,76.337C406.39,110.753,383.904,133.239,356.26,133.239z"/>
<path style="fill:#F9A926;" d="M406.39,83.109c0-21.361-25.446-60.498-36.379-76.337C366.889,2.257,361.575,0,356.26,0v133.239
	C383.904,133.239,406.39,110.753,406.39,83.109z"/>
<path style="fill:#FFEFD9;" d="M222.58,266.919H105.61v81.099c0,26.736,19.941,50.687,46.676,52.47
	c1.227,0.111,2.341,0.111,3.455,0.111c3.566,0,7.13-0.334,10.471-1.114c2.785-0.668,5.459-1.448,8.021-2.451
	c5.793,21.277,25.288,36.985,48.349,36.985c5.904,0,11.474-1.225,16.71-3.119c19.384-6.907,33.42-25.288,33.42-47.011v-66.84
	C272.71,289.312,250.319,266.919,222.58,266.919z"/>
<path style="fill:#6B7A99;" d="M489.941,512H22.059c-9.225,0-16.71-7.479-16.71-16.71c0-9.231,7.485-16.71,16.71-16.71h467.881
	c9.225,0,16.71,7.479,16.71,16.71C506.651,504.521,499.166,512,489.941,512z"/>
<path style="fill:#5A6680;" d="M489.941,478.58H256V512h233.941c9.225,0,16.71-7.479,16.71-16.71
	C506.651,486.059,499.166,478.58,489.941,478.58z"/>
<path style="fill:#EDF0F2;" d="M423.1,166.659H306.13v81.211c0,26.29,19.161,49.796,45.341,52.247
	c1.67,0.111,3.229,0.223,4.789,0.223c5.793,0,11.474-1.003,16.71-2.896v14.482c0,21.834,12.032,42.444,31.86,51.244
	c12.922,5.793,24.621,4.679,34.98,0.891c19.384-6.907,33.42-25.288,33.42-47.011v-100.26
	C473.23,189.162,450.728,166.659,423.1,166.659z"/>
<path style="fill:#DAE1E6;" d="M473.23,216.789v100.26c0,21.723-14.036,40.104-33.42,47.011c-10.359,3.788-22.057,4.902-34.98-0.891
	c-19.828-8.801-31.86-29.41-31.86-51.244v-14.482c-5.236,1.894-10.917,2.896-16.71,2.896v-133.68h66.84
	C450.728,166.659,473.23,189.162,473.23,216.789z"/>
<path style="fill:#FFD9B3;" d="M272.71,317.05v66.84c0,21.723-14.036,40.104-33.42,47.011c-5.236,1.894-10.806,3.119-16.71,3.119
	c-23.061,0-42.556-15.707-48.349-36.985c-2.562,1.003-5.236,1.782-8.021,2.451c-3.341,0.78-6.906,1.114-10.471,1.114v-133.68h66.84
	C250.319,266.919,272.71,289.312,272.71,317.05z"/>
</svg>