<?xml version="1.0" encoding="iso-8859-1"?>
<!-- Uploaded to: SVG Repo, www.svgrepo.com, Generator: SVG Repo Mixer Tools -->
<svg fill="#000000" height="800px" width="800px" version="1.1" id="Layer_1" xmlns="http://www.w3.org/2000/svg" xmlns:xlink="http://www.w3.org/1999/xlink" 
	 viewBox="0 0 511.999 511.999" xml:space="preserve">
<g>
	<g>
		<path d="M428.052,305.768l-22.003-86.311c-1.052-4.127-4.77-7.016-9.03-7.016h-73.826c24.75-33.886,39.137-79.807,39.137-109.929
			C362.331,45.987,314.633,0,256.005,0S149.679,45.987,149.679,102.512c0,30.127,14.385,76.048,39.125,109.929H114.98
			c-4.26,0-7.978,2.889-9.03,7.016l-22.003,86.311c-0.819,3.213,0.13,6.62,2.496,8.945c2.364,2.325,5.786,3.22,8.985,2.347
			l116.669-31.827L181.91,501.392c-0.374,2.67,0.429,5.371,2.199,7.405c1.77,2.034,4.334,3.202,7.03,3.202h129.733
			c2.696,0,5.26-1.168,7.03-3.202c1.77-2.034,2.572-4.735,2.199-7.405l-12.269-87.82c-0.711-5.098-5.413-8.655-10.518-7.939
			c-5.096,0.712-8.651,5.421-7.939,10.517l10.788,77.212H201.848l30.66-219.551c0.434-3.102-0.721-6.215-3.074-8.283
			c-2.353-2.07-5.586-2.817-8.607-1.994L105.956,294.87l16.263-63.793h86.486c3.738,0,7.115-2.234,8.576-5.675
			c1.461-3.441,0.724-7.422-1.871-10.113c-29.09-30.15-47.096-82.014-47.096-112.777c0-46.249,39.337-83.876,87.69-83.876
			s87.69,37.627,87.69,83.876c0,30.756-18.011,82.62-47.11,112.777c-2.595,2.691-3.332,6.672-1.871,10.113
			c1.462,3.442,4.839,5.675,8.576,5.675h86.487l16.263,63.793l-114.871-31.336c-3.022-0.823-6.256-0.076-8.609,1.994
			c-2.352,2.07-3.505,5.182-3.073,8.284l14.89,106.587c0.711,5.098,5.413,8.651,10.518,7.939c5.096-0.712,8.651-5.421,7.939-10.517
			L299.9,285.234l116.668,31.827c3.197,0.872,6.621-0.021,8.985-2.347C427.917,312.388,428.872,308.98,428.052,305.768z"/>
	</g>
</g>
<g>
	<g>
		<path d="M256.005,50.776c-30.635,0-55.561,23.208-55.561,51.734c0,9.385,2.23,21.166,6.448,34.067
			c1.6,4.89,6.861,7.565,11.753,5.96c4.893-1.6,7.56-6.861,5.961-11.752c-3.563-10.897-5.526-20.938-5.526-28.275
			c0-18.25,16.564-33.098,36.925-33.098c20.353,0,36.912,14.848,36.912,33.098c0,20.104-14.354,58.343-32.859,77.519l-4.052,4.202
			l-4.055-4.204c-5.928-6.143-11.833-14.718-17.077-24.796c-2.375-4.565-7.999-6.34-12.567-3.965
			c-4.566,2.376-6.341,8.001-3.965,12.567c6.06,11.646,13.045,21.721,20.198,29.133l10.759,11.157
			c1.756,1.82,4.177,2.849,6.707,2.849c2.53,0,4.951-1.029,6.707-2.849l10.757-11.154c22.443-23.254,38.084-66.338,38.084-90.459
			C311.553,73.985,286.634,50.776,256.005,50.776z"/>
	</g>
</g>
</svg>