<?xml version="1.0" encoding="iso-8859-1"?>
<!-- Uploaded to: SVG Repo, www.svgrepo.com, Generator: SVG Repo Mixer Tools -->
<svg fill="#000000" height="800px" width="800px" version="1.1" id="Layer_1" xmlns="http://www.w3.org/2000/svg" xmlns:xlink="http://www.w3.org/1999/xlink" 
	 viewBox="0 0 512.001 512.001" xml:space="preserve">
<g>
	<g>
		<path d="M495.304,389.565h-22.261V205.913c0-64.441-52.429-116.87-116.87-116.87c-42.537,0-79.728,22.92-100.174,56.984
			c-20.445-34.065-57.637-56.984-100.174-56.984c-64.441,0-116.87,52.429-116.87,116.87v183.652H16.696
			C7.473,389.565,0,397.038,0,406.261c0,9.223,7.473,16.696,16.696,16.696c50.827,0,429.413,0,478.609,0
			c9.217,0,16.696-7.473,16.696-16.696C512.001,397.038,504.521,389.565,495.304,389.565z M189.217,356.174h-66.783
			c-9.223,0-16.696-7.473-16.696-16.696c0-9.223,7.473-16.696,16.696-16.696h66.783c9.223,0,16.696,7.473,16.696,16.696
			C205.913,348.701,198.44,356.174,189.217,356.174z M189.217,222.609h-16.696v50.087c0,9.223-7.473,16.696-16.696,16.696
			c-9.223,0-16.696-7.473-16.696-16.696v-50.087h-16.696c-9.223,0-16.696-7.473-16.696-16.696s7.473-16.696,16.696-16.696h16.696
			v-16.696c0-9.223,7.473-16.696,16.696-16.696s16.696,7.473,16.696,16.696v16.696h16.696c9.223,0,16.696,7.473,16.696,16.696
			C205.913,215.136,198.44,222.609,189.217,222.609z M389.565,356.174h-66.783c-9.223,0-16.696-7.473-16.696-16.696
			c0-9.223,7.473-16.696,16.696-16.696h66.783c9.223,0,16.696,7.473,16.696,16.696C406.261,348.701,398.788,356.174,389.565,356.174
			z M389.565,222.609H372.87v50.087c0,9.223-7.473,16.696-16.696,16.696c-9.223,0-16.696-7.473-16.696-16.696v-50.087h-16.696
			c-9.223,0-16.696-7.473-16.696-16.696s7.473-16.696,16.696-16.696h16.696v-16.696c0-9.223,7.473-16.696,16.696-16.696
			c9.223,0,16.696,7.473,16.696,16.696v16.696h16.696c9.223,0,16.696,7.473,16.696,16.696
			C406.261,215.136,398.788,222.609,389.565,222.609z"/>
	</g>
</g>
</svg>