<?xml version="1.0" encoding="iso-8859-1"?>
<!-- Uploaded to: SVG Repo, www.svgrepo.com, Generator: SVG Repo Mixer Tools -->
<svg height="800px" width="800px" version="1.1" id="Layer_1" xmlns="http://www.w3.org/2000/svg" xmlns:xlink="http://www.w3.org/1999/xlink" 
	 viewBox="0 0 512 512" xml:space="preserve">
<path style="fill:#EE6E2F;" d="M365.6,142.157c-11.857-3.559-24.003-6.251-36.339-8.131c-7.274,9.777-13.67,20.221-19.098,31.255
	c-13.081,26.584-20.622,56.36-20.622,87.938c0,0.934,0.011,1.858,0.022,2.781c0.445,32.646,8.832,63.379,23.169,90.496
	c5.795,10.956,12.613,21.267,20.266,30.9c12.435-2.069,24.671-4.939,36.594-8.72c55.859-17.697,105.212-53.601,139.448-103.199
	c1.32-1.922,2.236-4.091,2.669-6.385C511.9,258.069,512,257.034,512,256c0-3.315-0.979-6.629-2.959-9.477
	C473.993,195.747,423.094,159.397,365.6,142.157z"/>
<path style="fill:#E15C25;" d="M512,256c0,1.034-0.1,2.069-0.289,3.092c-0.434,2.29-1.35,4.464-2.669,6.385
	c-34.236,49.597-83.589,85.502-139.448,103.199c-11.924,3.782-24.159,6.652-36.594,8.72c-7.653-9.632-14.471-19.943-20.266-30.9
	c-14.337-27.118-22.724-57.85-23.169-90.496L512,256L512,256z"/>
<path style="fill:#FFC033;" d="M347.647,340.212c-15.127-24.637-24.204-53.368-24.715-84.212c-0.011-0.923-0.022-1.846-0.022-2.781
	c0-29.898,8.009-57.917,21.834-82.21c5.906-10.378,12.925-20.01,20.855-28.853c-11.857-3.559-24.003-6.251-36.339-8.131
	c-13.17-2.013-26.528-3.159-40.065-3.159c-85.78,0-165.71,38.686-219.689,97.526c-22.758-34.448-36.138-73.723-36.138-114.21
	c0-9.221-7.463-16.684-16.684-16.684C7.475,97.498,0,104.962,0,114.183C0,165.393,17.53,214.322,47.15,256
	C17.53,297.678,0,346.607,0,397.817c0,9.221,7.475,16.684,16.684,16.684c9.221,0,16.684-7.463,16.684-16.684
	c0-40.487,13.381-79.763,36.138-114.21c53.98,58.84,133.909,97.526,219.689,97.526c14.816,0,29.431-1.335,43.802-3.737
	c12.435-2.069,24.671-4.939,36.594-8.72C361.284,360.033,353.965,350.478,347.647,340.212z"/>
<path style="fill:#F9A926;" d="M369.593,368.675c-11.924,3.782-24.159,6.652-36.594,8.72c-14.371,2.403-28.986,3.737-43.802,3.737
	c-85.78,0-165.71-38.686-219.689-97.526c-22.758,34.448-36.138,73.723-36.138,114.21c0,9.221-7.463,16.684-16.684,16.684
	C7.475,414.502,0,407.038,0,397.817C0,346.607,17.53,297.678,47.15,256h275.782c0.512,30.844,9.588,59.574,24.715,84.212
	C353.965,350.478,361.284,360.033,369.593,368.675z"/>
<circle style="fill:#FFC033;" cx="389.303" cy="230.979" r="16.684"/>
</svg>