<?xml version="1.0" encoding="iso-8859-1"?>
<!-- Uploaded to: SVG Repo, www.svgrepo.com, Generator: SVG Repo Mixer Tools -->
<svg height="800px" width="800px" version="1.1" id="Layer_1" xmlns="http://www.w3.org/2000/svg" xmlns:xlink="http://www.w3.org/1999/xlink" 
	 viewBox="0 0 512 512" xml:space="preserve">
<path style="fill:#F7B239;" d="M427.671,137.191v102.468h-92.091c-0.146-15.609-12.852-28.214-28.495-28.214
	c-15.744,0-28.518,12.762-28.518,28.506s12.773,28.518,28.518,28.518h0.068v235.174H204.684V268.468h0.056
	c15.744,0,28.518-12.773,28.518-28.518c0-15.744-12.773-28.506-28.518-28.506c-15.643,0-28.349,12.604-28.495,28.214H84.154V137.191
	h92.103c-0.023,0.304-0.023,0.608-0.023,0.912c0,15.744,12.762,28.518,28.506,28.518s28.518-12.773,28.518-28.518
	s-12.773-28.506-28.518-28.506h-0.056V8.524h102.468v101.072h-0.068c-15.744,0-28.518,12.762-28.518,28.506
	c0,15.744,12.773,28.518,28.518,28.518c15.744,0,28.506-12.773,28.506-28.518c0-0.304,0-0.608-0.022-0.912
	C335.568,137.191,427.671,137.191,427.671,137.191z"/>
<path d="M239.964,50.646h32.073c4.661,0,8.44-3.779,8.44-8.44s-3.779-8.44-8.44-8.44h-32.073c-4.661,0-8.44,3.779-8.44,8.44
	S235.303,50.646,239.964,50.646z"/>
<path d="M239.964,81.031h32.073c4.661,0,8.44-3.779,8.44-8.44s-3.779-8.44-8.44-8.44h-32.073c-4.661,0-8.44,3.779-8.44,8.44
	S235.303,81.031,239.964,81.031z"/>
<path d="M403.285,204.377v-32.073c0-4.661-3.779-8.44-8.44-8.44s-8.44,3.779-8.44,8.44v32.073c0,4.661,3.779,8.44,8.44,8.44
	S403.285,209.039,403.285,204.377z"/>
<path d="M372.901,204.377v-32.073c0-4.661-3.779-8.44-8.44-8.44c-4.661,0-8.44,3.779-8.44,8.44v32.073c0,4.661,3.779,8.44,8.44,8.44
	C369.122,212.817,372.901,209.039,372.901,204.377z"/>
<path d="M155.991,204.377v-32.073c0-4.661-3.779-8.44-8.44-8.44c-4.661,0-8.44,3.779-8.44,8.44v32.073c0,4.661,3.779,8.44,8.44,8.44
	C152.212,212.817,155.991,209.039,155.991,204.377z"/>
<path d="M117.166,212.817c4.661,0,8.44-3.779,8.44-8.44v-32.073c0-4.661-3.779-8.44-8.44-8.44s-8.44,3.779-8.44,8.44v32.073
	C108.726,209.039,112.505,212.817,117.166,212.817z"/>
<path d="M272.036,281.904h-32.073c-4.661,0-8.44,3.779-8.44,8.44s3.779,8.44,8.44,8.44h32.073c4.661,0,8.44-3.779,8.44-8.44
	C280.476,285.684,276.697,281.904,272.036,281.904z"/>
<path d="M272.036,315.777h-32.073c-4.661,0-8.44,3.779-8.44,8.44c0,4.661,3.779,8.44,8.44,8.44h32.073c4.661,0,8.44-3.779,8.44-8.44
	C280.476,319.556,276.697,315.777,272.036,315.777z"/>
<path d="M272.036,349.649h-32.073c-4.661,0-8.44,3.779-8.44,8.44s3.779,8.44,8.44,8.44h32.073c4.661,0,8.44-3.779,8.44-8.44
	S276.697,349.649,272.036,349.649z"/>
<path d="M272.036,383.522h-32.073c-4.661,0-8.44,3.779-8.44,8.44c0,4.661,3.779,8.44,8.44,8.44h32.073c4.661,0,8.44-3.779,8.44-8.44
	C280.476,387.301,276.697,383.522,272.036,383.522z"/>
<path d="M272.036,417.396h-32.073c-4.661,0-8.44,3.779-8.44,8.44s3.779,8.44,8.44,8.44h32.073c4.661,0,8.44-3.779,8.44-8.44
	S276.697,417.396,272.036,417.396z"/>
<path d="M272.036,451.268h-32.073c-4.661,0-8.44,3.779-8.44,8.44s3.779,8.44,8.44,8.44h32.073c4.661,0,8.44-3.779,8.44-8.44
	S276.697,451.268,272.036,451.268z"/>
<path d="M427.758,128.667h-50.537c-12.738-27.62-34.311-49.864-61.541-63.457V8.44c0-4.661-3.779-8.44-8.44-8.44H204.772
	c-4.661,0-8.44,3.779-8.44,8.44v56.77c-27.237,13.59-48.813,35.836-61.553,63.457h-11.572c-4.661,0-8.44,3.779-8.44,8.44
	c0,4.661,3.779,8.44,8.44,8.44h45.445c3.486,16.78,18.382,29.429,36.177,29.429c20.379,0,36.958-16.579,36.958-36.958
	c0-17.477-12.203-32.161-28.574-35.98V16.881h85.587v85.148c-16.36,3.802-28.585,18.496-28.585,35.99
	c0,20.379,16.579,36.958,36.958,36.958c17.794,0,32.691-12.649,36.177-29.429h75.969v85.587h-76.254
	c-3.943-16.153-18.592-28.214-35.892-28.214c-20.379,0-36.958,16.575-36.958,36.947c0,17.484,12.205,32.172,28.585,35.991v82.856
	c0,4.661,3.779,8.44,8.44,8.44c4.661,0,8.44-3.779,8.44-8.44V304.1c24.54-12.277,44.8-31.922,57.84-56.083h54.239
	c4.661,0,8.44-3.779,8.44-8.44V137.108C436.199,132.446,432.42,128.667,427.758,128.667z M224.905,138.019
	c0,11.071-9.007,20.077-20.077,20.077c-11.065,0-20.066-9.007-20.066-20.077c0-0.111-0.002-0.222,0-0.287
	c0.173-2.341-0.635-4.648-2.232-6.368c-1.597-1.72-3.839-2.696-6.185-2.696h-22.657c10.01-18.336,24.681-33.541,42.644-44.212
	v25.057c0,4.661,3.835,8.44,8.497,8.44C215.899,117.953,224.905,126.955,224.905,138.019z M335.656,128.667
	c-2.346,0-4.589,0.955-6.186,2.674c-1.597,1.72-2.407,4.005-2.234,6.345c0.005,0.111,0.002,0.222,0.002,0.332
	c0,11.071-9.002,20.077-20.066,20.077c-11.071,0-20.077-9.007-20.077-20.077c0-11.065,9.007-20.066,20.145-20.066
	c4.661,0,8.44-3.779,8.44-8.44V84.457c17.957,10.671,32.624,25.876,42.632,44.21H335.656z M315.68,284.845v-16.46
	c0-4.661-3.847-8.44-8.508-8.44c-11.071,0-20.077-9.007-20.077-20.077c0-11.065,9.007-20.066,20.077-20.066
	c10.956,0,19.952,8.906,20.055,19.853c0.044,4.63,3.81,8.362,8.44,8.362h18.235C344.159,263.047,331.058,275.669,315.68,284.845z"/>
<path d="M307.239,378.41c-4.661,0-8.44,3.779-8.44,8.44v108.27h-85.587V275.867c16.353-3.808,28.574-18.504,28.574-35.999
	c0-20.373-16.579-36.947-36.958-36.947c-17.301,0-31.948,12.062-35.892,28.214H92.682v-85.587h2.389c4.661,0,8.44-3.779,8.44-8.44
	c0-4.661-3.779-8.44-8.44-8.44h-10.83c-4.661,0-8.44,3.779-8.44,8.44v102.468c0,4.661,3.779,8.44,8.44,8.44h54.239
	c13.044,24.17,33.307,43.815,57.851,56.084v199.46c0,4.661,3.779,8.44,8.44,8.44h102.468c4.661,0,8.44-3.779,8.44-8.44V386.85
	C315.68,382.189,311.901,378.41,307.239,378.41z M158.098,248.015h18.235c4.631,0,8.397-3.731,8.44-8.362
	c0.102-10.947,9.099-19.853,20.055-19.853c11.071,0,20.077,9.002,20.077,20.066c0,11.071-9.007,20.077-20.133,20.077
	c-4.661,0-8.44,3.779-8.44,8.44v16.465C180.949,275.676,167.844,263.054,158.098,248.015z"/>
</svg>