<?xml version="1.0" encoding="iso-8859-1"?>
<!-- Uploaded to: SVG Repo, www.svgrepo.com, Generator: SVG Repo Mixer Tools -->
<svg fill="#000000" height="800px" width="800px" version="1.1" id="Layer_1" xmlns="http://www.w3.org/2000/svg" xmlns:xlink="http://www.w3.org/1999/xlink" 
	 viewBox="0 0 512 512" xml:space="preserve">
<g>
	<g>
		<path d="M256.006,137.015c-20.485,0-37.15,16.665-37.15,37.15s16.665,37.15,37.15,37.15c20.485,0,37.15-16.665,37.15-37.15
			C293.157,153.68,276.492,137.015,256.006,137.015z M256.006,194.353c-11.132,0-20.187-9.055-20.187-20.187
			c0-11.131,9.055-20.187,20.187-20.187c11.131,0,20.187,9.055,20.187,20.187C276.193,185.298,267.138,194.353,256.006,194.353z"/>
	</g>
</g>
<g>
	<g>
		<path d="M505.927,318.366l-135.122-40.036v-97.311c0-2.331-0.959-4.559-2.651-6.16L264.487,76.737V54.83h13.021
			c4.684,0,8.482-3.798,8.482-8.482s-3.798-8.482-8.482-8.482h-13.021v-13.02c0-4.684-3.798-8.482-8.482-8.482
			s-8.482,3.798-8.482,8.482v13.02h-13.02c-4.684,0-8.482,3.798-8.482,8.482s3.798,8.482,8.482,8.482h13.02v21.911l-103.675,98.117
			c-1.693,1.602-2.652,3.83-2.652,6.16v97.315L6.076,318.366c-4.492,1.331-7.055,6.05-5.725,10.541
			c1.092,3.688,4.469,6.075,8.129,6.075c0.797,0,1.608-0.113,2.412-0.352l15.414-4.565v23.787c0,4.684,3.798,8.482,8.482,8.482
			s8.482-3.798,8.482-8.482v-28.813l97.925-29.015v182.647H43.27v-96.548c0-4.684-3.798-8.482-8.482-8.482s-8.482,3.798-8.482,8.482
			v105.03c0,4.684,3.798,8.482,8.482,8.482h442.433c4.684,0,8.482-3.798,8.482-8.482V330.066l15.402,4.564
			c0.804,0.239,1.615,0.352,2.413,0.352c3.66,0,7.036-2.387,8.129-6.074C512.98,324.417,510.419,319.697,505.927,318.366z
			 M247.525,478.661h-25.151v-89.624c0-15.171,10.823-27.861,25.151-30.76V478.661z M289.628,478.661h-25.14v-120.38
			c14.324,2.903,25.14,15.59,25.14,30.757V478.661z M468.741,478.673h-97.937v-32.088c0-4.684-3.798-8.482-8.482-8.482
			s-8.482,3.798-8.482,8.482v32.078h-47.249v-89.624c0-26.658-21.689-48.346-48.346-48.346h-4.49
			c-26.658,0-48.346,21.689-48.346,48.346v89.624H158.16V184.67l97.846-92.6l97.835,92.6v233.642c0,4.684,3.798,8.482,8.482,8.482
			s8.482-3.798,8.482-8.482V296.022l97.937,29.018V478.673z"/>
	</g>
</g>
<g>
	<g>
		<path d="M95.791,353.233h-2.104c-14.966,0-27.142,12.176-27.142,27.142v42.262c0,4.684,3.798,8.482,8.482,8.482h39.423
			c4.684,0,8.482-3.798,8.482-8.482v-42.262C122.933,365.409,110.756,353.233,95.791,353.233z M105.969,414.155h-22.46v-33.78
			c0-5.612,4.567-10.178,10.178-10.178h2.104c5.612,0,10.178,4.567,10.178,10.178V414.155z"/>
	</g>
</g>
<g>
	<g>
		<path d="M418.325,353.233h-2.104c-14.965,0-27.142,12.176-27.142,27.142v42.262c0,4.685,3.798,8.482,8.482,8.482h39.423
			c4.684,0,8.482-3.798,8.482-8.482v-42.262C445.467,365.409,433.292,353.233,418.325,353.233z M428.504,414.155h-22.46v-33.78
			c0-5.612,4.567-10.178,10.178-10.178h2.104c5.612,0,10.178,4.567,10.178,10.178V414.155z"/>
	</g>
</g>
<g>
	<g>
		<path d="M257.058,237.067h-2.103c-14.966,0-27.142,12.175-27.142,27.142v42.262c0,4.684,3.798,8.482,8.482,8.482h39.423
			c4.684,0,8.482-3.798,8.482-8.482v-42.262C284.2,249.242,272.024,237.067,257.058,237.067z M267.236,297.988h-22.46v-33.78
			c0-5.612,4.567-10.178,10.178-10.178h2.103c5.612,0,10.178,4.567,10.178,10.178V297.988z"/>
	</g>
</g>
</svg>