<?xml version="1.0" encoding="iso-8859-1"?>
<!-- Uploaded to: SVG Repo, www.svgrepo.com, Generator: SVG Repo Mixer Tools -->
<svg height="800px" width="800px" version="1.1" id="Layer_1" xmlns="http://www.w3.org/2000/svg" xmlns:xlink="http://www.w3.org/1999/xlink" 
	 viewBox="0 0 512 512" xml:space="preserve">
<path style="fill:#E6E6E6;" d="M445.878,204.488L256.006,0L66.134,204.488c-30.79,33.157-39.599,81.13-22.616,123.059l52.969,130.71
	c12.759-5.346,44.235,22.628,57.343,18.628c39.325-11.999,76.432-16.199,117.128-16.199c54.253,0,93.541-23.775,144.566-2.43
	l52.957-130.71C485.465,285.618,476.656,237.646,445.878,204.488z"/>
<path style="fill:#F95428;" d="M415.525,458.258L393.744,512c-43.686-20.223-90.712-30.329-137.738-30.329
	c-34.59,0-69.18,5.47-102.437,16.41c-11.962,3.925-23.762,8.56-35.313,13.918l-21.768-53.742
	c12.76-5.346,25.718-10.006,38.827-14.006c39.325-11.999,79.996-17.993,120.692-17.993
	C310.259,426.26,364.499,436.913,415.525,458.258z"/>
<path style="fill:#CCCCCC;" d="M108.175,321.131l27.139,123.122c-7.651,25.158-21.401,31.431-38.827,14.006l-52.969-130.71
	c-16.984-41.929-8.174-89.902,22.616-123.059L256.006,0L126.579,211.416C106.493,244.237,99.889,283.563,108.175,321.131z"/>
<path style="fill:#E54728;" d="M153.569,498.082c-11.962,3.925-23.762,8.56-35.313,13.918l-21.768-53.742
	c12.759-5.346,25.718-10.006,38.827-14.006L153.569,498.082z"/>
<polygon style="fill:#F95428;" points="325.635,188.277 325.635,242.48 283.107,242.48 283.107,372.817 228.905,372.817 
	228.905,242.48 186.377,242.48 186.377,188.277 228.905,188.277 228.905,139.196 283.107,139.196 283.107,188.277 "/>
</svg>