<?xml version="1.0" encoding="iso-8859-1"?>
<!-- Uploaded to: SVG Repo, www.svgrepo.com, Generator: SVG Repo Mixer Tools -->
<svg height="800px" width="800px" version="1.1" id="Layer_1" xmlns="http://www.w3.org/2000/svg" xmlns:xlink="http://www.w3.org/1999/xlink" 
	 viewBox="0 0 512 512" xml:space="preserve">
<path style="fill:#FFC033;" d="M289.391,33.391h-16.696V16.696C272.696,7.473,265.217,0,256,0s-16.696,7.473-16.696,16.696v16.696
	h-16.696c-9.217,0-16.696,7.473-16.696,16.696s7.479,16.696,16.696,16.696h16.696v50.087c0,9.223,7.479,16.696,16.696,16.696
	s16.696-7.473,16.696-16.696V66.783h16.696c9.217,0,16.696-7.473,16.696-16.696S298.608,33.391,289.391,33.391z"/>
<path style="fill:#F9A926;" d="M272.696,116.87V66.783h16.696c9.217,0,16.696-7.473,16.696-16.696s-7.479-16.696-16.696-16.696
	h-16.696V16.696C272.696,7.473,265.217,0,256,0v133.565C265.217,133.565,272.696,126.092,272.696,116.87z"/>
<path style="fill:#DAE1E6;" d="M155.826,512H22.261c-9.217,0-16.696-7.473-16.696-16.696V350.609c0-6.327,3.576-12.103,9.228-14.935
	l133.565-66.783c5.173-2.581,11.315-2.315,16.25,0.733c4.913,3.044,7.913,8.413,7.913,14.201v211.478
	C172.522,504.527,165.043,512,155.826,512z"/>
<path style="fill:#C3CFD9;" d="M489.739,512H356.174c-9.217,0-16.696-7.473-16.696-16.696V283.826c0-5.788,3-11.157,7.913-14.201
	c4.924-3.043,11.065-3.31,16.25-0.733l133.565,66.783c5.652,2.832,9.228,8.608,9.228,14.935v144.696
	C506.435,504.527,498.956,512,489.739,512z"/>
<path style="fill:#EDF0F2;" d="M339.478,169.734l-73.456-55.092c-5.939-4.454-14.104-4.454-20.044,0l-73.456,55.092l-33.391,25.043
	V512H372.87V194.777L339.478,169.734z"/>
<path style="fill:#DAE1E6;" d="M256,512h116.87V194.777l-33.391-25.043l-73.456-55.092c-2.967-2.223-6.495-3.335-10.022-3.335V512z"
	/>
<path style="fill:#6B7A99;" d="M256,333.913c-1.67,0-3.339,0.111-5.009,0.223c-26.045,2.56-45.078,25.934-45.078,52.09V512h100.174
	V384C306.087,356.185,283.462,333.913,256,333.913z"/>
<path style="fill:#5A6680;" d="M306.087,384v128H256V333.913C283.482,333.913,306.087,356.207,306.087,384z"/>
<path style="fill:#3AACE6;" d="M389.554,233.739c-3.489,0-7-1.087-10.011-3.337L256,137.739l-123.543,92.663
	c-7.392,5.527-17.837,4.044-23.381-3.342c-5.533-7.375-4.033-17.842,3.337-23.375l133.565-100.174
	c5.935-4.445,14.109-4.445,20.044,0l133.565,100.174c7.369,5.533,8.87,16,3.337,23.375
	C399.642,231.435,394.631,233.739,389.554,233.739z"/>
<path style="fill:#2B9FD9;" d="M379.543,230.402c3.011,2.249,6.521,3.337,10.011,3.337c5.077,0,10.088-2.304,13.37-6.679
	c5.533-7.375,4.033-17.842-3.337-23.375L266.022,103.511c-2.967-2.223-6.495-3.335-10.022-3.335v37.563L379.543,230.402z"/>
<path style="fill:#FFC033;" d="M256,300.522c-27.619,0-50.087-22.468-50.087-50.087s22.468-50.087,50.087-50.087
	s50.087,22.468,50.087,50.087S283.619,300.522,256,300.522z"/>
<path style="fill:#F9A926;" d="M306.087,250.435c0-27.619-22.468-50.087-50.087-50.087v100.174
	C283.619,300.522,306.087,278.054,306.087,250.435z"/>
<path style="fill:#5A6680;" d="M439.652,512v-83.478c0-9.223-7.479-16.696-16.696-16.696c-9.217,0-16.696,7.473-16.696,16.696V512
	H439.652z"/>
<path style="fill:#6B7A99;" d="M105.739,512v-83.478c0-9.223-7.479-16.696-16.696-16.696s-16.696,7.473-16.696,16.696V512H105.739z"
	/>
</svg>