<?xml version="1.0" encoding="iso-8859-1"?>
<!-- Uploaded to: SVG Repo, www.svgrepo.com, Generator: SVG Repo Mixer Tools -->
<svg height="800px" width="800px" version="1.1" id="Layer_1" xmlns="http://www.w3.org/2000/svg" xmlns:xlink="http://www.w3.org/1999/xlink" 
	 viewBox="0 0 512 512" xml:space="preserve">
<g>
	<path style="fill:#F7B239;" d="M255.283,324.112c57.94-121.13,136.326-115.998,136.326-115.998
		c49.056,0,88.816,57.834,88.816,129.188S440.666,466.49,391.609,466.49c-37.376,0-69.349-33.577-82.456-81.123
		c-1.675-6.076,5.993-10.241,10.264-5.592c5.474,5.97,11.609,11.597,16.93,13.815c20.847,8.695,43.617,7.008,46.555,6.748
		c0.059-0.012,0.094-0.012,0.142-0.012c0.035-0.012,0.071-0.012,0.094-0.012c0.059-0.012,0.083-0.012,0.083-0.012
		c23.454-3.044,46.095-25.448,54.861-56.937c10.783-38.745-3.539-76.581-31.996-84.509c-25.507-7.091-53.681,12.235-67.036,44.195
		c-6.147,14.712-17.402,26.817-32.079,33.046c-5.84,2.489-12.647,4.507-20.458,5.545c-10.064,1.345-16.47,11.362-13.296,21.012
		c0.271,0.814,0.507,1.569,0.708,2.277c12.541,43.063,4.106,87.022-26.203,114.24c-45.812,41.14-124.257,28.492-175.224-28.256
		C30.543,404.208,20.29,342.186,43.532,298.77c10.028,60.028,29.967,95.139,50.991,115.585c21.012,20.446,43.11,26.215,57.468,27.56
		c9.604,0.897,23.277-0.472,26.911-0.991c29.837-4.271,52.501-25.378,52.501-50.79c0-28.492-28.504-51.581-63.674-51.581
		c-3.964,0-7.834,0.295-11.597,0.849c-7.563-12.353-13.249-25.26-17.013-38.249c-1.64-5.639-2.914-11.303-3.823-16.942
		c8.683-0.307,18.039-1.77,27.572-4.495c34.781-9.934,58.707-32.881,53.457-51.239c-5.238-18.358-37.683-25.177-72.452-15.243
		c-13.379,3.823-25.165,9.58-34.285,16.258l-25.967-47.971c16.694-23.112,46.767-38.544,81.088-38.544
		c52.478,0,95.033,36.078,95.033,80.569c0,25.779-14.287,48.726-36.503,63.473c5.262,4.566,10.335,9.545,15.16,14.913
		C244.759,309.01,250.387,316.443,255.283,324.112z"/>
	<path style="fill:#F7B239;" d="M453.714,119.31c6.925,10.217,6.253,12.883-3.138,20.481c-27.289,22.098-58.27,35.158-93.393,38.78
		c-28.716,2.961-55.25-1.534-78.469-19.679c-26.758-20.918-42.921-47.994-46.697-81.996c-0.661-5.934,4.53-9.533,6.984-5.569
		c7.563,12.187,17.19,22.617,28.233,31.949c31.265,26.428,65.774,30.392,102.159,13.202c14.571-6.89,27.714-16.989,41.01-26.31
		c12.754-8.931,12.553-9.391,22.133,2.301C439.757,101.294,447.332,109.907,453.714,119.31z"/>
	<path style="fill:#F7B239;" d="M371.883,48.604c2.997,2.997,2.997,7.857,0,10.854l-37.411,37.423
		c-2.997,2.997-7.869,2.997-10.866,0l-37.411-37.423c-2.997-2.997-2.997-7.857,0-10.854l37.411-37.412
		c2.997-3.008,7.869-3.008,10.866,0L371.883,48.604z"/>
</g>
<path d="M273.357,165.776c19.195,15.001,41.679,22.384,68.378,22.384c5.311,0,10.793-0.293,16.446-0.875
	c36.337-3.747,69.326-17.442,98.051-40.703c13.105-10.604,14.296-18.459,4.893-32.33c-5.202-7.664-11.114-14.772-16.831-21.648
	c-1.613-1.94-3.224-3.877-4.824-5.831c-5.487-6.699-9.115-11.124-15.195-12.003c-6.113-0.881-10.719,2.351-17.695,7.248
	l-1.167,0.819c-2.323,1.628-4.641,3.281-6.963,4.935c-2.545,1.813-5.096,3.631-7.66,5.422c-4.007,2.798-4.987,8.314-2.187,12.321
	c2.796,4.007,8.312,4.987,12.319,2.189c2.612-1.824,5.208-3.673,7.797-5.519c2.286-1.628,4.567-3.254,6.85-4.855l1.179-0.826
	c1.712-1.201,3.571-2.507,4.936-3.372c1.17,1.285,2.744,3.206,4.095,4.854c1.625,1.986,3.267,3.959,4.909,5.936
	c5.696,6.85,11.078,13.321,15.793,20.267c1.779,2.625,2.551,4.061,2.883,4.814c-0.567,0.649-1.764,1.802-4.266,3.827
	c-26.38,21.363-55.406,33.418-88.733,36.855c-29.7,3.063-52.611-2.61-72.111-17.848c-20.877-16.32-34.149-35.767-40.255-59.128
	c5.159,5.939,11.004,11.655,17.614,17.242c20.131,17.016,42.166,25.583,65.204,25.582c15.138-0.001,30.71-3.702,46.448-11.136
	c4.418-2.087,6.308-7.362,4.22-11.78c-2.088-4.418-7.361-6.308-11.78-4.22c-33.892,16.012-64.202,12.1-92.668-11.96
	c-11.176-9.444-19.82-19.21-26.422-29.848c-3.065-4.952-8.7-7.041-14.017-5.205c-6.2,2.141-10.104,9.043-9.285,16.408
	C227.257,113.295,244.094,142.9,273.357,165.776z"/>
<path d="M317.44,103.05L317.44,103.05c3.122,3.122,7.272,4.841,11.691,4.841c4.417,0,8.569-1.719,11.689-4.841l37.412-37.422
	c6.442-6.443,6.442-16.925,0-23.367l-37.4-37.4C337.71,1.726,333.554,0,329.131,0c-4.424,0-8.581,1.726-11.691,4.848l-37.412,37.412
	c-3.121,3.121-4.84,7.27-4.84,11.684s1.719,8.563,4.84,11.684L317.44,103.05z M329.13,18.185l35.759,35.757L329.13,89.712
	l-35.757-35.769L329.13,18.185z"/>
<path d="M461.796,240.85c-18.424-26.8-43.233-41.593-69.879-41.672c-3.052-0.126-23.683-0.395-50.711,13.561
	c-40.951,21.144-69.218,60.583-87.071,94.112c-2.872-3.749-5.898-7.397-9.063-10.921c-2.553-2.84-5.196-5.602-7.914-8.268
	c20.163-16.773,31.524-39.667,31.524-64.202c0-49.305-46.601-89.417-103.882-89.417c-36.175,0-69.169,15.78-88.261,42.212
	c-1.99,2.755-2.226,6.405-0.609,9.394l25.967,47.971c1.216,2.248,3.346,3.859,5.839,4.421c2.495,0.56,5.107,0.017,7.17-1.494
	c8.633-6.32,19.521-11.469,31.488-14.888c5.176-1.478,10.403-2.587,15.539-3.294c4.842-0.667,8.226-5.132,7.558-9.973
	c-0.667-4.842-5.145-8.226-9.973-7.558c-5.959,0.821-12.012,2.102-17.986,3.81c-10.363,2.961-20.103,7.085-28.648,12.1
	l-18.631-34.428c16.056-18.979,42.551-30.577,70.549-30.577c47.522,0,86.185,32.173,86.185,71.72
	c0,21.922-11.864,42.37-32.548,56.101c-2.302,1.529-3.759,4.046-3.936,6.803c-0.177,2.757,0.944,5.441,3.031,7.252
	c5.019,4.356,9.856,9.115,14.377,14.143c5.846,6.509,11.172,13.489,15.828,20.749c1.537,2.617,4.382,4.372,7.638,4.372
	c3.595,0,6.689-2.147,8.075-5.229c15.755-32.887,43.221-76.609,84.715-98.58c24.595-13.024,42.839-12.22,42.959-12.216
	c0.192,0.013,0.386,0.019,0.578,0.019c44.094,0,79.966,53.984,79.966,120.34c0,42.426-14.559,80.975-38.945,103.117
	c-3.617,3.285-3.887,8.882-0.603,12.499c1.746,1.923,4.146,2.9,6.554,2.9c2.122,0,4.252-0.759,5.946-2.298
	c28.018-25.441,44.745-68.887,44.745-116.219C489.364,300.931,479.574,266.708,461.796,240.85z"/>
<path d="M412.706,453.297c-6.817,2.826-13.884,4.258-21.004,4.258c-15.688,0-30.925-6.962-44.066-20.132
	c-11.166-11.193-20.192-26.127-26.435-43.623c4.278,3.754,8.193,6.354,11.832,7.872c22.367,9.33,46.188,7.797,50.74,7.396
	c0.014-0.001,0.029-0.004,0.045-0.005c0.011-0.001,0.02,0,0.031-0.001c0.092-0.007,0.184-0.018,0.276-0.028
	c0.007-0.001,0.013-0.001,0.02-0.002c0.024-0.002,0.046-0.005,0.068-0.007c0.055-0.006,0.107-0.019,0.163-0.026
	c0.047-0.006,0.093-0.007,0.139-0.014c27.66-3.622,52.644-29.064,62.184-63.332c5.717-20.54,5.172-41.606-1.533-59.316
	c-7.066-18.663-20.07-31.48-36.619-36.091c-29.574-8.22-62.197,12.517-77.57,49.309c-5.47,13.088-15.19,23.142-27.386,28.318
	c-5.656,2.412-11.764,4.064-18.16,4.915c-7.456,0.997-14.013,5.202-17.985,11.537c-3.942,6.285-4.869,13.942-2.532,21.049
	c0.224,0.674,0.421,1.299,0.605,1.948c5.853,20.094,6.828,40.391,2.82,58.695c-4.056,18.522-13.198,34.597-26.438,46.488
	c-42.109,37.815-115.11,25.438-162.73-27.585c-29.853-33.235-43.366-76.062-37.471-112.758
	c10.105,38.381,25.77,68.055,46.743,88.451c22.693,22.081,46.685,28.517,62.816,30.028c10.89,1.016,25.635-0.563,28.988-1.042
	c34.823-4.985,60.097-30.028,60.097-59.549c0-33.321-32.533-60.429-72.524-60.429c-2.289,0-4.588,0.09-6.878,0.269
	c-5.688-10.078-10.131-20.579-13.235-31.29c-0.623-2.141-1.193-4.299-1.706-6.462c6.404-0.802,12.893-2.139,19.39-3.997
	c18.18-5.192,34.315-13.923,45.433-24.581c12.579-12.059,17.586-25.412,14.102-37.594c-3.702-12.972-16.652-22.135-35.529-25.142
	c-4.843-0.769-9.363,2.521-10.13,7.347c-0.768,4.827,2.52,9.362,7.347,10.13c11.626,1.851,19.586,6.533,21.297,12.526
	c1.57,5.492-1.831,12.767-9.332,19.958c-8.945,8.575-22.811,15.989-38.049,20.34c-8.634,2.469-17.198,3.869-25.452,4.16
	c-2.537,0.09-4.913,1.264-6.523,3.224c-1.612,1.961-2.304,4.519-1.899,7.025c0.965,6.003,2.332,12.061,4.057,17.998
	c4.04,13.936,10.084,27.531,17.967,40.407c1.851,3.024,5.329,4.651,8.837,4.134c3.399-0.501,6.866-0.755,10.306-0.755
	c30.231,0,54.827,19.169,54.827,42.732c0,20.63-18.886,38.307-44.904,42.03c-3.683,0.526-16.412,1.727-24.836,0.94
	c-13.294-1.245-33.126-6.609-52.125-25.093c-23.719-23.069-40.014-60.314-48.432-110.7c-0.624-3.735-3.556-6.659-7.292-7.273
	c-3.741-0.615-7.45,1.218-9.237,4.555c-12.315,23.005-16.175,51.632-10.87,80.609c5.406,29.519,19.6,57.745,41.051,81.627
	c32.445,36.124,75.677,55.261,115.748,55.258c26.798-0.002,52.187-8.564,71.971-26.331c31.633-28.407,42.663-75.652,28.805-123.235
	c-0.235-0.829-0.511-1.714-0.815-2.629c-0.924-2.809,0.059-5.014,0.726-6.079c0.687-1.095,2.294-2.992,5.332-3.398
	c7.975-1.059,15.634-3.138,22.749-6.172c16.461-6.987,29.525-20.404,36.786-37.78c11.694-27.984,35.987-44.785,56.497-39.083
	c23.71,6.606,35.304,39.628,25.846,73.613c-7.532,27.058-26.999,47.81-47.366,50.518c-0.046,0.005-0.09,0.014-0.136,0.019
	c-0.045,0.005-0.089,0.006-0.133,0.012c-3.163,0.262-23.699,1.586-42.171-6.12c-1.903-0.793-6.228-3.359-13.819-11.635
	c-4.75-5.171-12.068-6.357-18.211-2.954c-6.098,3.38-8.952,10.166-7.1,16.885c14.674,53.227,50.389,87.62,90.988,87.62
	c9.457,0,18.804-1.887,27.778-5.605c4.515-1.871,6.659-7.047,4.788-11.562C422.396,453.568,417.218,451.427,412.706,453.297z"/>
</svg>