<?xml version="1.0" encoding="iso-8859-1"?>
<!-- Uploaded to: SVG Repo, www.svgrepo.com, Generator: SVG Repo Mixer Tools -->
<svg fill="#000000" height="800px" width="800px" version="1.1" id="Layer_1" xmlns="http://www.w3.org/2000/svg" xmlns:xlink="http://www.w3.org/1999/xlink" 
	 viewBox="0 0 512 512" xml:space="preserve">
<g>
	<g>
		<path d="M323.182,181.646h-32.013V143.31c0-4.979-4.037-9.016-9.016-9.016h-52.294c-4.979,0-9.016,4.037-9.016,9.016v38.337
			h-32.014c-4.979,0-9.016,4.037-9.016,9.016v52.294c0,4.979,4.037,9.016,9.016,9.016h32.014v16.373
			c0,4.979,4.037,9.016,9.016,9.016s9.016-4.037,9.016-9.016v-25.39c0-4.979-4.037-9.016-9.016-9.016h-32.014v-34.262h32.014
			c4.979,0,9.016-4.037,9.016-9.016v-38.337h34.262v38.337c0,4.979,4.037,9.016,9.016,9.016h32.014v34.262h-32.014
			c-4.979,0-9.016,4.037-9.016,9.016v116.73h-34.262v-62.488c0-4.979-4.037-9.016-9.016-9.016s-9.016,4.037-9.016,9.016v71.504
			c0,4.979,4.037,9.016,9.016,9.016h52.294c4.979,0,9.016-4.037,9.016-9.016v-116.73h32.013c4.979,0,9.016-4.037,9.016-9.016
			v-52.294C332.199,185.683,328.162,181.646,323.182,181.646z"/>
	</g>
</g>
<g>
	<g>
		<path d="M445.798,200.168L262.613,2.882C260.907,1.045,258.512,0,256.006,0c-2.506,0-4.901,1.045-6.607,2.882L66.214,200.168
			c-31.941,34.397-41.192,84.737-23.568,128.246l72.106,177.955c0.927,2.286,2.749,4.095,5.044,5.001
			c1.065,0.421,2.189,0.63,3.312,0.63c1.295,0,2.588-0.279,3.788-0.834c40.747-18.863,84.185-28.426,129.111-28.426
			c44.916,0,88.353,9.564,129.099,28.426c2.241,1.036,4.805,1.11,7.1,0.203c2.295-0.905,4.117-2.712,5.044-5l72.106-177.958
			C486.977,284.908,477.73,234.569,445.798,200.168z M452.642,321.643l-47.714,117.76c-16.298-6.389-33.083-11.767-50.027-15.998
			c-4.83-1.205-9.725,1.73-10.932,6.563c-1.207,4.831,1.731,9.725,6.563,10.932c16.128,4.028,32.106,9.144,47.624,15.218
			l-14.115,34.834c-40.62-17.419-83.644-26.244-128.035-26.244c-44.399,0-87.426,8.824-128.046,26.243l-14.111-34.836
			c45.409-17.805,93.185-26.833,142.155-26.833c23.471,0,47.068,2.136,70.135,6.351c4.893,0.888,9.594-2.35,10.49-7.249
			c0.894-4.899-2.351-9.594-7.249-10.49c-24.133-4.408-48.821-6.644-73.376-6.644c-51.305,0-101.357,9.475-148.927,28.155
			L59.356,321.644c-15.007-37.049-7.13-79.915,20.07-109.205L256.006,22.266l176.577,190.17
			C459.773,241.73,467.647,284.596,452.642,321.643z"/>
	</g>
</g>
</svg>