<?xml version="1.0" encoding="iso-8859-1"?>
<!-- Uploaded to: SVG Repo, www.svgrepo.com, Generator: SVG Repo Mixer Tools -->
<svg height="800px" width="800px" version="1.1" id="Layer_1" xmlns="http://www.w3.org/2000/svg" xmlns:xlink="http://www.w3.org/1999/xlink" 
	 viewBox="0 0 512 512" xml:space="preserve">
<path style="fill:#F2F2F2;" d="M301.905,259.122c39.105,12.731,71.087,41.255,88.403,78.05
	c-23.734,50.402-74.989,85.309-134.391,85.309c-59.413,0-110.658-34.906-134.391-85.309c17.317-36.784,49.287-65.307,88.392-78.038
	c-18.204,13.858-29.946,35.771-29.946,60.415c0,41.949,33.996,75.945,75.945,75.945c41.938,0,75.934-33.996,75.934-75.945
	C331.851,294.893,320.098,272.991,301.905,259.122z"/>
<path style="fill:#4D4D4D;" d="M301.905,259.122c18.193,13.869,29.946,35.771,29.946,60.426c0,41.949-33.996,75.945-75.934,75.945
	c-41.949,0-75.945-33.996-75.945-75.945c0-24.644,11.742-46.557,29.946-60.415c14.484-4.722,29.946-7.27,45.999-7.27
	c16.042,0,31.504,2.549,45.977,7.259H301.905L301.905,259.122z"/>
<path style="fill:#F7B239;" d="M255.917,41.777l247.461,428.614H8.444L255.917,41.777z M390.308,337.172
	c-17.317-36.795-49.299-65.318-88.403-78.05h-0.011c-14.472-4.71-29.934-7.259-45.977-7.259c-16.054,0-31.516,2.549-45.999,7.27
	c-39.105,12.731-71.075,41.255-88.392,78.038c23.734,50.402,74.978,85.309,134.391,85.309
	C315.319,422.48,366.575,387.574,390.308,337.172z"/>
<path d="M510.857,466.04L331.727,155.78c-2.357-4.081-7.576-5.479-11.656-3.123c-4.081,2.356-5.479,7.575-3.123,11.656
	l171.74,297.461H23.314L256.006,58.759l43.175,74.783c2.356,4.082,7.577,5.479,11.656,3.123c4.081-2.356,5.479-7.575,3.123-11.656
	l-50.565-87.583c-1.525-2.641-4.341-4.267-7.39-4.267c-3.048,0-5.865,1.627-7.39,4.267L1.143,466.04
	c-1.525,2.64-1.525,5.892,0,8.533c1.525,2.641,4.341,4.267,7.39,4.267h494.934c3.049,0,5.865-1.626,7.39-4.267
	C512.381,471.933,512.381,468.68,510.857,466.04z"/>
<path d="M331.938,391.48c-22.613,14.643-48.87,22.383-75.932,22.383c-33.627,0-66.131-12.106-91.524-34.088
	c-3.565-3.086-8.954-2.696-12.036,0.867c-3.084,3.563-2.696,8.952,0.867,12.036c28.494,24.668,64.966,38.252,102.694,38.252
	c30.362,0,59.826-8.688,85.21-25.124c24.712-16.001,44.388-38.507,56.902-65.083c1.084-2.302,1.084-4.966,0.001-7.269
	c-18.22-38.715-51.811-68.589-92.285-82.134c-0.367-0.123-1.266-0.414-1.302-0.424c-0.393-0.127-0.786-0.254-1.18-0.378
	c-15.266-4.824-31.188-7.271-47.346-7.271c-16.625,0-32.991,2.587-48.641,7.689c-40.998,13.348-75.067,43.425-93.471,82.518
	c-1.084,2.302-1.084,4.967,0,7.27c4.667,9.911,10.404,19.37,17.049,28.115c1.679,2.21,4.224,3.37,6.8,3.37
	c1.8,0,3.613-0.568,5.157-1.74c3.752-2.851,4.482-8.204,1.63-11.957c-5.106-6.72-9.611-13.911-13.42-21.424
	c11.215-22.125,28.137-40.791,48.662-54.168c-5.372,11.208-8.245,23.627-8.245,36.545c0,46.582,37.897,84.478,84.478,84.478
	c46.576,0,84.467-37.896,84.467-84.478c0-12.923-2.877-25.35-8.26-36.567c20.54,13.381,37.472,32.055,48.688,54.191
	C369.699,359.198,352.839,377.947,331.938,391.48z M256.006,386.876c-37.17,0-67.412-30.24-67.412-67.412
	c0-20.745,9.278-39.871,25.477-52.734c13.513-4.246,27.61-6.418,41.935-6.418c14.315,0,28.411,2.171,41.93,6.412
	c16.195,12.882,25.471,32.01,25.471,52.739C323.406,356.634,293.17,386.876,256.006,386.876z"/>
<path d="M24.927,157.344l61.427,46.079c1.535,1.151,3.332,1.708,5.114,1.708c2.594,0,5.156-1.179,6.832-3.413
	c2.828-3.769,2.064-9.119-1.705-11.946l-61.427-46.079c-3.769-2.828-9.119-2.064-11.946,1.705
	C20.393,149.168,21.158,154.517,24.927,157.344z"/>
<path d="M136.214,139.341c1.116,3.685,4.502,6.061,8.163,6.061c0.819,0,1.653-0.119,2.478-0.369
	c4.51-1.366,7.059-6.131,5.691-10.641L135.48,78.073c-1.366-4.51-6.129-7.059-10.641-5.692c-4.51,1.366-7.059,6.131-5.691,10.641
	L136.214,139.341z"/>
<path d="M11.275,280.223h47.774c4.713,0,8.533-3.821,8.533-8.533c0-4.713-3.821-8.533-8.533-8.533H11.275
	c-4.713,0-8.533,3.821-8.533,8.533C2.742,276.402,6.563,280.223,11.275,280.223z"/>
<path d="M420.53,205.131c1.781,0,3.579-0.556,5.113-1.707l61.439-46.079c3.769-2.827,4.534-8.176,1.707-11.946
	c-2.827-3.769-8.176-4.534-11.946-1.707l-61.439,46.079c-3.769,2.827-4.534,8.176-1.707,11.946
	C415.374,203.952,417.936,205.131,420.53,205.131z"/>
<path d="M365.145,145.033c0.825,0.25,1.658,0.369,2.478,0.369c3.661,0,7.046-2.376,8.163-6.061l17.066-56.319
	c1.366-4.51-1.181-9.274-5.692-10.641c-4.505-1.366-9.274,1.181-10.641,5.692l-17.066,56.319
	C358.085,138.901,360.633,143.665,365.145,145.033z"/>
<path d="M444.416,271.69c0,4.713,3.819,8.533,8.533,8.533h47.786c4.714,0,8.533-3.821,8.533-8.533c0-4.713-3.819-8.533-8.533-8.533
	h-47.786C448.237,263.156,444.416,266.977,444.416,271.69z"/>
</svg>