<?xml version="1.0" encoding="iso-8859-1"?>
<!-- Uploaded to: SVG Repo, www.svgrepo.com, Generator: SVG Repo Mixer Tools -->
<svg fill="#000000" height="800px" width="800px" version="1.1" id="Layer_1" xmlns="http://www.w3.org/2000/svg" xmlns:xlink="http://www.w3.org/1999/xlink" 
	 viewBox="0 0 512.002 512.002" xml:space="preserve">
<g>
	<g>
		<polygon points="265.726,236.043 246.086,236.043 235.443,254.392 246.086,272.74 265.726,272.74 276.369,254.392 		"/>
	</g>
</g>
<g>
	<g>
		<path d="M495.304,439.652h-16.696V72.349h16.696c9.217,0,16.696-7.473,16.696-16.696c0-9.223-7.479-16.696-16.696-16.696h-50.087
			V22.262c0-9.223-7.473-16.696-16.696-16.696c-9.223,0-16.696,7.473-16.696,16.696v16.696h-50.087
			c-9.223,0-16.696,7.473-16.696,16.696c0,9.223,7.473,16.696,16.696,16.696h16.696v33.391h-244.87V72.349h16.696
			c9.223,0,16.696-7.473,16.696-16.696c0-9.223-7.473-16.696-16.696-16.696h-50.087V22.262c0-9.223-7.473-16.696-16.696-16.696
			c-9.223,0-16.696,7.473-16.696,16.696v16.696H16.696C7.473,38.957,0,46.431,0,55.652c0,9.223,7.473,16.696,16.696,16.696h16.696
			v367.304H16.696C7.473,439.652,0,447.126,0,456.348c0,9.223,7.473,16.696,16.696,16.696h50.087v16.696
			c0,9.223,7.473,16.696,16.696,16.696s16.696-7.473,16.696-16.696v-16.696h50.087c9.223,0,16.696-7.473,16.696-16.696
			c0-9.223-7.473-16.696-16.696-16.696h-16.696v-33.391h244.87v33.391H361.74c-9.223,0-16.696,7.473-16.696,16.696
			c0,9.223,7.473,16.696,16.696,16.696h50.087v16.696c0,9.223,7.473,16.696,16.696,16.696s16.696-7.473,16.696-16.696v-16.696
			h50.087c9.217,0,16.696-7.473,16.696-16.696C512,447.126,504.521,439.652,495.304,439.652z M100.174,122.436v267.13v50.087H66.783
			V72.349h33.391V122.436z M328.956,296.902c-2.876,4.994-8.201,8.073-13.965,8.073h-30.698l-14.445,24.904
			c-2.884,4.971-8.195,8.031-13.942,8.031c-5.747,0-11.058-3.06-13.942-8.031l-14.446-24.904H196.82
			c-5.764,0-11.089-3.079-13.965-8.073c-2.877-4.994-2.868-11.146,0.023-16.131l15.3-26.378l-15.3-26.378
			c-2.892-4.985-2.901-11.137-0.023-16.131c2.876-4.994,8.202-8.073,13.965-8.073h30.698l14.445-24.904
			c2.884-4.971,8.195-8.031,13.942-8.031s11.058,3.06,13.942,8.031l14.445,24.904h30.699c5.764,0,11.089,3.079,13.965,8.073
			c2.877,4.994,2.868,11.146-0.023,16.131l-15.3,26.378l15.3,26.378C331.825,285.755,331.834,291.908,328.956,296.902z
			 M445.217,439.652h-33.391v-50.087v-267.13V72.349h33.391V439.652z"/>
	</g>
</g>
</svg>