<?xml version="1.0" encoding="iso-8859-1"?>
<!-- Uploaded to: SVG Repo, www.svgrepo.com, Generator: SVG Repo Mixer Tools -->
<svg height="800px" width="800px" version="1.1" id="Layer_1" xmlns="http://www.w3.org/2000/svg" xmlns:xlink="http://www.w3.org/1999/xlink" 
	 viewBox="0 0 512 512" xml:space="preserve">
<path style="fill:#F95428;" d="M409.813,451.224l-21.014,51.849c-42.148-19.511-87.517-29.261-132.887-29.261
	c-33.372,0-66.744,5.277-98.83,15.832c-11.541,3.787-22.925,8.259-34.069,13.428l-21.002-51.849
	c12.31-5.157,24.813-9.653,37.459-13.512c37.94-11.577,77.179-17.359,116.441-17.359
	C308.254,420.353,360.584,430.631,409.813,451.224z"/>
<path style="fill:#E6E6E6;" d="M439.097,206.393L255.912,9.105L72.727,206.392c-29.705,31.989-38.205,78.273-21.819,118.725
	l51.104,126.107c12.31-5.157,24.813-9.653,37.459-13.512c37.94-11.577,77.179-17.359,116.441-17.359
	c52.342,0,104.672,10.278,153.901,30.871l51.092-126.107C477.29,284.664,468.791,238.381,439.097,206.393z"/>
<path style="fill:#CCCCCC;" d="M113.288,318.926l26.183,118.785c-12.647,3.859-25.149,8.355-37.459,13.512L50.908,325.117
	c-16.385-40.453-7.886-86.736,21.819-118.725L255.912,9.105L131.044,213.076C111.665,244.741,105.293,282.682,113.288,318.926z"/>
<path style="fill:#E54728;" d="M157.082,489.645c-11.541,3.787-22.925,8.259-34.069,13.428l-21.002-51.849
	c12.31-5.157,24.813-9.653,37.459-13.512L157.082,489.645z"/>
<polygon style="fill:#F7B239;" points="323.089,190.752 323.089,243.046 282.059,243.046 282.059,368.791 229.765,368.791 
	229.765,243.046 188.735,243.046 188.735,190.752 229.765,190.752 229.765,143.398 282.059,143.398 282.059,190.752 "/>
<path d="M323.182,181.646h-32.014V143.31c0-4.979-4.037-9.016-9.016-9.016h-52.294c-4.979,0-9.016,4.037-9.016,9.016v38.337h-32.014
	c-4.979,0-9.016,4.037-9.016,9.016v52.294c0,4.979,4.037,9.016,9.016,9.016h32.014v16.373c0,4.979,4.037,9.016,9.016,9.016
	c4.979,0,9.016-4.037,9.016-9.016v-25.39c0-4.979-4.037-9.016-9.016-9.016h-32.014v-34.262h32.014c4.979,0,9.016-4.037,9.016-9.016
	v-38.337h34.262v38.337c0,4.979,4.037,9.016,9.016,9.016h32.014v34.262h-32.014c-4.979,0-9.016,4.037-9.016,9.016v116.73h-34.262
	v-62.488c0-4.979-4.037-9.016-9.016-9.016c-4.979,0-9.016,4.037-9.016,9.016v71.504c0,4.979,4.037,9.016,9.016,9.016h52.294
	c4.979,0,9.016-4.037,9.016-9.016v-116.73h32.014c4.979,0,9.016-4.037,9.016-9.016v-52.294
	C332.199,185.683,328.162,181.646,323.182,181.646z"/>
<path d="M445.798,200.168L262.613,2.882C260.907,1.045,258.512,0,256.006,0c-2.506,0-4.901,1.045-6.607,2.882L66.214,200.168
	c-31.941,34.397-41.192,84.737-23.568,128.246l72.106,177.955c0.927,2.287,2.749,4.095,5.044,5.001
	c1.065,0.421,2.189,0.63,3.312,0.63c1.295,0,2.588-0.279,3.788-0.834c40.747-18.863,84.185-28.426,129.111-28.426
	c44.916,0,88.353,9.564,129.099,28.426c2.241,1.036,4.805,1.11,7.1,0.203c2.295-0.905,4.117-2.712,5.044-5l72.106-177.958
	C486.977,284.908,477.73,234.569,445.798,200.168z M452.642,321.643l-47.714,117.76c-16.298-6.389-33.083-11.767-50.027-15.998
	c-4.83-1.205-9.725,1.73-10.932,6.563c-1.207,4.831,1.731,9.725,6.563,10.932c16.128,4.028,32.106,9.144,47.624,15.218
	l-14.115,34.834c-40.62-17.419-83.644-26.244-128.035-26.244c-44.399,0-87.426,8.824-128.046,26.243l-14.111-34.836
	c45.409-17.805,93.185-26.833,142.155-26.833c23.471,0,47.068,2.136,70.135,6.351c4.893,0.888,9.594-2.35,10.49-7.249
	c0.894-4.899-2.351-9.594-7.249-10.49c-24.133-4.408-48.821-6.644-73.376-6.644c-51.305,0-101.357,9.475-148.927,28.155
	L59.356,321.644c-15.007-37.049-7.13-79.915,20.07-109.205L256.006,22.266l176.577,190.17
	C459.773,241.73,467.647,284.596,452.642,321.643z"/>
</svg>