<?xml version="1.0" encoding="iso-8859-1"?>
<!-- Uploaded to: SVG Repo, www.svgrepo.com, Generator: SVG Repo Mixer Tools -->
<svg version="1.1" id="Layer_1" xmlns="http://www.w3.org/2000/svg" xmlns:xlink="http://www.w3.org/1999/xlink" 
	 viewBox="0 0 512 512" xml:space="preserve">
<g>
	<path style="fill:#F7B239;" d="M436.734,351.134v151.994H270.01h-28.182v-74.116c3.548,2.521,7.873,3.99,12.544,3.99
		c12.018,0,21.754-9.748,21.754-21.766v-15.064c0-21.133,17.143-38.276,38.288-38.276h104.424
		C425.695,357.896,431.967,355.351,436.734,351.134z"/>
	<path style="fill:#F7B239;" d="M270.01,257.032v41.132h-4.767c-18.027,0-32.626,14.611-32.626,32.638v80.435
		c0,6.009,2.437,11.445,6.367,15.387c0.872,0.872,1.828,1.672,2.843,2.389v74.116H75.092V180.575l1.684-1.804
		c4.516,3.381,10.131,5.388,16.211,5.388h104.424c21.133,0,38.276,17.131,38.276,38.276V237.5c0,12.018,9.736,21.754,21.754,21.754
		c3.751,0,7.287-0.956,10.37-2.628L270.01,257.032z"/>
</g>
<rect x="75.092" y="161.755" style="fill:#E09B2D;" width="40.63" height="341.369"/>
<g>
	<path style="fill:#F95428;" d="M196.193,32.702c6.535,6.535,9.808,15.1,9.808,23.654c0,8.566-3.273,17.131-9.808,23.654
		c-6.535,6.535-15.088,9.796-23.642,9.796c-8.566,0-17.131-3.261-23.654-9.796c-13.069-13.057-13.069-34.238,0-47.308l23.642-23.654
		L196.193,32.702z"/>
	<path style="fill:#F95428;" d="M362.929,211.636c6.523,6.523,9.796,15.088,9.796,23.654c0,8.554-3.273,17.119-9.796,23.654
		c-6.535,6.523-15.1,9.796-23.654,9.796c-8.566,0-17.131-3.273-23.654-9.796c-13.057-13.069-13.057-34.25,0-47.308l23.654-23.654
		L362.929,211.636z"/>
</g>
<path style="fill:#EAB465;" d="M270.01,298.164h70.974h72.324c18.015,0,32.626,14.61,32.626,32.638
	c0,7.49-3.034,14.252-7.932,19.162c-0.406,0.406-0.836,0.8-1.266,1.171c-4.767,4.217-11.039,6.762-17.896,6.762H314.414
	c-21.145,0-38.288,17.143-38.288,38.276v15.064c0,12.018-9.736,21.766-21.754,21.766c-4.671,0-8.996-1.469-12.544-3.99
	c-1.015-0.717-1.971-1.517-2.843-2.389c-3.93-3.942-6.367-9.378-6.367-15.387v-53.341v-27.094c0-18.027,14.599-32.638,32.626-32.638
	H270.01L270.01,298.164z"/>
<path style="fill:#FCC670;" d="M279.208,157.053V237.5c0,6.009-2.437,11.445-6.379,15.387c-1.481,1.469-3.166,2.736-5.017,3.739
	c-3.082,1.672-6.618,2.628-10.37,2.628c-12.018,0-21.754-9.736-21.754-21.754v-15.064c0-21.145-17.143-38.276-38.276-38.276H92.987
	c-6.081,0-11.696-2.007-16.211-5.388c-1.051-0.777-2.031-1.637-2.951-2.557c-1.422-1.41-2.688-2.987-3.751-4.683
	c-2.652-4.181-4.193-9.151-4.193-14.479c0-18.015,14.61-32.626,32.638-32.626h148.052
	C264.598,124.427,279.208,139.037,279.208,157.053z"/>
<path style="fill:#EAB465;" d="M279.208,187.516V237.5c0,6.009-2.437,11.445-6.379,15.387c-1.481,1.469-3.166,2.736-5.017,3.739
	c-3.082,1.672-6.618,2.628-10.37,2.628c-12.018,0-21.754-9.736-21.754-21.754v-15.064c0-21.145-17.143-38.276-38.276-38.276H92.987
	c-6.081,0-11.696-2.007-16.211-5.388c-1.051-0.777-2.031-1.637-2.951-2.557c-1.422-1.41-2.688-2.987-3.751-4.683
	c5.579-9.927,16.223-16.641,28.444-16.641h148.052C264.598,154.89,279.208,169.501,279.208,187.516z"/>
<rect x="241.832" y="349.433" style="fill:#E09B2D;" width="42.697" height="153.703"/>
<path style="fill:#FCC670;" d="M237.372,330.789v80.459c0,6.009,2.437,11.445,6.379,15.387c1.481,1.469,3.166,2.736,5.018,3.739
	c3.082,1.672,6.618,2.628,10.369,2.628c12.018,0,21.754-9.736,21.754-21.754v-45.54c0-21.145,17.143-38.276,38.276-38.276h104.424
	c6.081,0,11.696-2.007,16.211-5.388c1.051-0.777,2.031-1.637,2.951-2.557c1.422-1.41,2.688-2.987,3.751-4.683
	c-5.579-9.927-16.223-16.641-28.444-16.641H270.01C251.982,298.164,237.372,312.774,237.372,330.789z"/>
<path style="fill:#E09B2D;" d="M270.01,257.032v26.891c-0.705,0.502-1.434,0.956-2.198,1.374c-3.082,1.672-6.618,2.628-10.37,2.628
	c-12.018,0-21.754-9.736-21.754-21.754v-15.064c0-21.145-17.143-38.276-38.276-38.276H92.987c-6.081,0-11.696-2.007-16.211-5.388
	c-0.585-0.43-1.147-0.884-1.684-1.374v-25.494l1.684-1.804c4.516,3.381,10.131,5.388,16.211,5.388h104.424
	c21.133,0,38.276,17.131,38.276,38.276V237.5c0,12.018,9.736,21.754,21.754,21.754c3.751,0,7.287-0.956,10.37-2.628L270.01,257.032z
	"/>
<path d="M172.644,98.677c11.323,0,21.968-4.411,29.971-12.415c8.021-8.007,12.439-18.659,12.439-29.995
	c0-11.323-4.415-21.973-12.433-29.989L178.967,2.625C177.286,0.944,175.008,0,172.631,0c-2.376,0-4.656,0.945-6.336,2.626
	l-23.641,23.653c-8.014,8.014-12.427,18.665-12.427,29.994c0,11.33,4.414,21.98,12.421,29.978
	C150.647,94.264,161.299,98.677,172.644,98.677z M155.327,38.948l17.307-17.315l17.316,17.318l0,0
	c4.633,4.632,7.185,10.782,7.185,17.318c0,6.544-2.549,12.692-7.185,17.319c-4.624,4.626-10.77,7.171-17.306,7.171
	c-6.551,0-12.7-2.545-17.322-7.175c-4.627-4.622-7.175-10.771-7.175-17.31C148.148,49.731,150.697,43.578,155.327,38.948z"/>
<path d="M339.368,277.611c11.316,0,21.964-4.408,29.995-12.425c8.005-8.02,12.415-18.669,12.415-29.984
	c0-11.33-4.411-21.98-12.419-29.989l-23.654-23.654c-3.499-3.499-9.172-3.499-12.67,0l-23.654,23.654
	c-16.529,16.529-16.53,43.434,0,59.979C317.388,273.2,328.038,277.611,339.368,277.611z M322.049,217.883l17.319-17.319
	l17.319,17.319c4.624,4.624,7.171,10.776,7.171,17.319c0,6.535-2.549,12.688-7.165,17.313c-4.636,4.628-10.79,7.177-17.325,7.177
	c-6.543,0-12.693-2.547-17.315-7.168C312.505,242.968,312.504,227.429,322.049,217.883z"/>
<path d="M454.986,330.713c0-22.937-18.656-41.597-41.586-41.597h-12.678c-4.948,0-8.96,4.012-8.96,8.96s4.012,8.96,8.96,8.96H413.4
	c13.049,0,23.666,10.622,23.666,23.678c0,4.839-1.888,9.398-5.308,12.827c-0.249,0.249-0.511,0.489-0.774,0.714
	c-0.031,0.026-0.062,0.054-0.093,0.081c-3.289,2.91-7.536,4.512-11.958,4.512H314.509c-26.053,0-47.248,21.191-47.248,47.236v15.064
	c0,7.062-5.74,12.807-12.795,12.807c-2.662,0-5.205-0.808-7.377-2.35c-0.608-0.43-1.172-0.902-1.665-1.395
	c-2.419-2.428-3.752-5.645-3.752-9.06v-80.435c0-13.056,10.617-23.678,23.666-23.678h105.52c4.948,0,8.96-4.012,8.96-8.96
	s-4.012-8.96-8.96-8.96h-91.794v-29.802c0.063-0.062,0.133-0.118,0.196-0.18c5.806-5.806,9.004-13.52,9.004-21.722v-80.447
	c0-22.93-18.66-41.586-41.597-41.586H98.612c-22.937,0-41.597,18.656-41.597,41.586c0,8.98,3.26,17.451,9.211,24.063v59.484
	c0,4.948,4.012,8.96,8.96,8.96c4.948,0,8.96-4.012,8.96-8.96v-48.604c2.89,0.736,5.882,1.123,8.936,1.123h104.424
	c16.165,0,29.317,13.152,29.317,29.317v15.064c0,16.936,13.778,30.714,30.714,30.714c1.208,0,2.412-0.078,3.608-0.22v21.421
	c-20.968,2.11-37.392,19.865-37.392,41.386v80.435c0,8.192,3.19,15.904,8.992,21.722c0.069,0.069,0.148,0.131,0.219,0.201v61.009
	H84.145V270.376c0-4.948-4.012-8.96-8.96-8.96c-4.948,0-8.96,4.012-8.96,8.96V503.04c0,4.948,4.012,8.96,8.96,8.96h166.736h194.906
	c4.948,0,8.96-4.012,8.96-8.96v-148.27C451.731,348.14,454.986,339.673,454.986,330.713z M244.74,237.411v-15.064
	c0-26.046-21.191-47.236-47.236-47.236H93.081c-3.946,0-7.695-1.245-10.888-3.635c-0.644-0.475-1.295-1.043-1.946-1.693
	c-3.426-3.418-5.313-7.971-5.313-12.819c0-13.049,10.622-23.666,23.678-23.666h148.052c13.056,0,23.678,10.617,23.678,23.666v80.447
	c0,3.415-1.333,6.63-3.728,9.026c-0.9,0.892-1.902,1.641-2.979,2.224c-0.001,0-0.001,0.001-0.001,0.001
	c-1.861,1.009-3.97,1.543-6.097,1.543C250.48,250.206,244.74,244.466,244.74,237.411z M250.881,494.08v-52.435
	c1.184,0.137,2.376,0.229,3.584,0.229c16.936,0,30.714-13.784,30.714-30.726v-15.064c0-16.165,13.157-29.317,29.328-29.317h104.424
	c3.042,0,6.04-0.391,8.936-1.13V494.08H250.881z"/>
</svg>