<?xml version="1.0" encoding="iso-8859-1"?>
<!-- Uploaded to: SVG Repo, www.svgrepo.com, Generator: SVG Repo Mixer Tools -->
<svg fill="#000000" height="800px" width="800px" version="1.1" id="Layer_1" xmlns="http://www.w3.org/2000/svg" xmlns:xlink="http://www.w3.org/1999/xlink" 
	 viewBox="0 0 512 512" xml:space="preserve">
<g>
	<g>
		<path d="M456.348,66.783h-17.542c1.038-11.457,0.846-15.19,0.846-33.391h16.696c9.217,0,16.696-7.473,16.696-16.696
			C473.043,7.473,465.565,0,456.348,0H55.652c-9.217,0-16.696,7.473-16.696,16.696c0,9.223,7.479,16.696,16.696,16.696h16.696
			c0,18.213-0.193,21.936,0.846,33.391H55.652c-9.217,0-16.696,7.473-16.696,16.696c0,9.223,7.479,16.696,16.696,16.696h23.816
			c17.345,61.018,65.471,109.111,126.445,126.473v43.56c-19.391,6.914-33.391,25.273-33.391,47.01s14,40.096,33.391,47.01v47.598
			h-16.696c-46.032,0-83.478,37.446-83.478,83.478c0,9.223,7.479,16.696,16.696,16.696h267.13c9.217,0,16.696-7.473,16.696-16.696
			c0-46.032-37.446-83.478-83.478-83.478h-16.696v-47.598c19.391-6.914,33.391-25.273,33.391-47.01s-14-40.096-33.391-47.01v-43.56
			c60.974-17.362,109.1-65.455,126.445-126.473h23.816c9.217,0,16.696-7.473,16.696-16.696S465.565,66.783,456.348,66.783z
			 M272.696,411.826h-33.391v-44.522h33.391V411.826z M272.696,267.13h-33.391v-33.391h33.391V267.13z M405.277,66.783H106.723
			c-1.237-11.132-0.984-16.158-0.984-33.391h300.522C406.261,50.408,406.513,55.649,405.277,66.783z"/>
	</g>
</g>
</svg>