<?xml version="1.0" encoding="iso-8859-1"?>
<!-- Uploaded to: SVG Repo, www.svgrepo.com, Generator: SVG Repo Mixer Tools -->
<svg fill="#000000" height="800px" width="800px" version="1.1" id="Layer_1" xmlns="http://www.w3.org/2000/svg" xmlns:xlink="http://www.w3.org/1999/xlink" 
	 viewBox="0 0 512.001 512.001" xml:space="preserve">
<g>
	<g>
		<path d="M434.09,144.805l-28.797-0.003c-17.874-43.504-54.197-77.483-99.206-92.225V16.696c0-9.22-7.475-16.696-16.696-16.696
			h-66.78c-9.223,0-16.698,7.475-16.696,16.697l0.002,35.878c-44.975,14.729-81.281,48.663-99.173,92.121h-28.83
			c-9.22,0-16.696,7.475-16.696,16.696v66.784c0,9.22,7.473,16.695,16.693,16.696l21.652,0.002
			c10.419,41.8,37.102,77.184,72.959,98.984v-39.551c-18.269-15.532-32.176-36.048-39.595-59.43l27.366,0.003
			c5.946-10.303,17.033-16.706,28.925-16.706c18.413,0,33.391,14.978,33.391,33.391c0,11.881-6.391,22.962-16.696,28.924v204.816
			c0,9.22,7.475,16.696,16.696,16.696h66.783c9.22,0,16.688-7.475,16.688-16.697l-0.002-204.819
			c-10.295-5.957-16.686-17.038-16.686-28.919c0-18.413,14.978-33.391,33.391-33.391c11.892,0,22.979,6.402,28.924,16.696h27.37
			c-7.418,23.386-21.326,43.904-39.598,59.438v39.551c35.859-21.801,62.541-57.188,72.961-98.989h21.648
			c9.22,0,16.696-7.475,16.696-16.696V161.39C450.784,152.169,443.311,144.806,434.09,144.805z M189.217,161.391
			c-11.892,0-22.979-6.402-28.924-16.696h-17.933c13.942-25.777,36.388-46.305,63.563-57.783l0.001,12.169
			c10.293,5.956,16.685,17.037,16.685,28.918C222.61,146.413,207.631,161.391,189.217,161.391z M351.707,144.796
			c-5.945,10.305-17.032,16.595-28.924,16.595c-18.413,0-33.391-14.978-33.391-33.391c0-11.881,6.391-22.962,16.696-28.924V86.918
			c27.206,11.494,49.667,32.061,63.604,57.882L351.707,144.796z"/>
	</g>
</g>
</svg>