<?xml version="1.0" encoding="iso-8859-1"?>
<!-- Uploaded to: SVG Repo, www.svgrepo.com, Generator: SVG Repo Mixer Tools -->
<svg height="800px" width="800px" version="1.1" id="Layer_1" xmlns="http://www.w3.org/2000/svg" xmlns:xlink="http://www.w3.org/1999/xlink" 
	 viewBox="0 0 512 512" xml:space="preserve">
<path style="fill:#3AACE6;" d="M256,367.304c-88.997,0-161.391-72.4-161.391-161.391S167.003,44.522,256,44.522
	s161.391,72.4,161.391,161.391S344.997,367.304,256,367.304z M256,76.8c-71.197,0-129.113,57.922-129.113,129.113
	S184.803,335.026,256,335.026s129.113-57.922,129.113-129.113S327.197,76.8,256,76.8z"/>
<path style="fill:#2B9FD9;" d="M385.113,205.913c0,71.191-57.916,129.113-129.113,129.113v32.278
	c88.997,0,161.391-72.4,161.391-161.391S344.997,44.522,256,44.522V76.8C327.197,76.8,385.113,134.721,385.113,205.913z"/>
<path style="fill:#FFC033;" d="M450.783,161.391v66.783c0,9.238-7.456,16.696-16.696,16.696h-82.365
	c-6.009-10.24-17.028-16.696-28.939-16.696c-18.365,0-33.391,15.026-33.391,33.391c0,11.91,6.345,22.929,16.696,28.939v204.8
	c0,9.238-7.456,16.696-16.696,16.696h-66.783c-9.239,0-16.696-7.457-16.696-16.696v-204.8c10.35-6.01,16.696-17.03,16.696-28.939
	c0-18.365-15.026-33.391-33.391-33.391c-11.911,0-22.93,6.456-28.939,16.696H77.913c-9.239,0-16.696-7.457-16.696-16.696v-66.783
	c0-9.238,7.456-16.696,16.696-16.696h82.365c6.009,10.24,17.028,16.696,28.939,16.696c18.365,0,33.391-15.026,33.391-33.391
	c0-11.91-6.345-22.929-16.696-28.939V16.696C205.913,7.457,213.369,0,222.609,0h66.783c9.239,0,16.696,7.457,16.696,16.696v82.365
	c-10.35,6.01-16.696,17.03-16.696,28.939c0,18.365,15.026,33.391,33.391,33.391c11.911,0,22.93-6.344,28.939-16.584h82.365
	C443.326,144.807,450.783,152.153,450.783,161.391z"/>
<path style="fill:#F9A926;" d="M450.783,161.391v66.783c0,9.238-7.456,16.696-16.696,16.696h-82.365
	c-6.009-10.24-17.028-16.696-28.939-16.696c-18.365,0-33.391,15.026-33.391,33.391c0,11.91,6.345,22.929,16.696,28.939v204.8
	c0,9.238-7.456,16.696-16.696,16.696H256V0h33.391c9.239,0,16.696,7.457,16.696,16.696v82.365
	c-10.35,6.01-16.696,17.03-16.696,28.939c0,18.365,15.026,33.391,33.391,33.391c11.911,0,22.93-6.344,28.939-16.584h82.365
	C443.326,144.807,450.783,152.153,450.783,161.391z"/>
</svg>