<?xml version="1.0" encoding="iso-8859-1"?>
<!-- Uploaded to: SVG Repo, www.svgrepo.com, Generator: SVG Repo Mixer Tools -->
<svg fill="#000000" height="800px" width="800px" version="1.1" id="Layer_1" xmlns="http://www.w3.org/2000/svg" xmlns:xlink="http://www.w3.org/1999/xlink" 
	 viewBox="0 0 511.999 511.999" xml:space="preserve">
<g>
	<g>
		<path d="M511.236,284.323c-1.89-4.032-6.69-5.769-10.721-3.881c-19.086,8.941-43.163,10.448-50.513,3.162
			c-4.037-4.002-1.72-11.757,0.935-17.558c6.029-13.173,5.838-23.553-0.57-30.852c-6.897-7.854-19.738-10.387-39.277-7.736
			c-8.185,1.109-15.689,2.899-20.196,4.094c-3.721-3.105-10.322-8.342-19.29-14.386c-3.69-2.487-8.7-1.513-11.191,2.18
			c-2.487,3.692-1.511,8.702,2.18,11.191c5.597,3.772,10.22,7.221,13.68,9.935c-17.569,13.714-65.238,46.41-120.275,46.41
			c-55.027,0-102.693-32.688-120.266-46.402c11.012-8.613,33.854-24.685,62.971-35.462l2.133,5.805
			c1.199,3.262,4.284,5.284,7.568,5.284c0.922,0,1.862-0.159,2.779-0.497c4.18-1.536,6.324-6.168,4.788-10.347l-1.912-5.205
			c13.166-3.646,27.28-5.968,41.939-5.968c13.706,0,27.727,1.986,41.959,5.915l-1.932,5.256c-1.536,4.179,0.607,8.812,4.788,10.347
			c0.917,0.336,1.856,0.497,2.779,0.497c3.285,0,6.37-2.022,7.568-5.284l2.151-5.855c8.915,3.302,17.898,7.35,26.925,12.14
			c3.932,2.087,8.814,0.59,10.901-3.342c2.086-3.933,0.591-8.813-3.342-10.901c-9.673-5.134-19.322-9.478-28.922-13.032l6.988-19.02
			c16.183-2.77,28.541-16.89,28.541-33.85c0-18.942-15.41-34.352-34.352-34.352c-18.942,0-34.352,15.41-34.352,34.352
			c0,15.133,9.841,28.003,23.455,32.57l-5.622,15.303c-16.064-4.553-31.95-6.87-47.532-6.87c-16.762,0-32.761,2.666-47.544,6.837
			l-5.61-15.271c13.616-4.567,23.455-17.437,23.455-32.57c0-18.942-15.41-34.352-34.352-34.352
			c-18.942,0-34.353,15.41-34.353,34.352c0,16.96,12.359,31.08,28.542,33.85l6.974,18.983
			c-36.088,13.287-62.793,34.002-72.024,41.753c-4.509-1.195-12.005-2.982-20.18-4.091c-19.53-2.647-32.381-0.118-39.277,7.736
			c-6.407,7.3-6.6,17.679-0.57,30.852c2.655,5.801,4.972,13.557,0.935,17.558c-7.349,7.286-31.425,5.779-50.513-3.162
			c-4.034-1.885-8.831-0.152-10.721,3.881c-1.889,4.032-0.152,8.831,3.88,10.72c12.157,5.694,26.848,9.197,40.027,9.197
			c11.69,0,22.192-2.756,28.676-9.184c5.876-5.824,11.057-16.749,2.374-35.72c-2.967-6.482-3.705-11.53-1.975-13.504
			c4.848-5.528,26.968-3.506,45.322,1.865c3.574,3.114,13.396,11.298,27.843,20.452c-0.403,0.102-0.807,0.208-1.214,0.319
			c-18.106,4.936-30.292,15.579-35.242,30.779c-9.901,30.398-12.889,39.572-38.077,50.34c-4.094,1.75-5.994,6.488-4.244,10.582
			c1.309,3.06,4.286,4.895,7.417,4.895c1.056,0,2.13-0.21,3.165-0.65c31.915-13.644,36.98-29.193,47.071-60.174
			c7.874-24.182,43.405-22.549,43.806-22.524c0.472,0.027,0.935,0.004,1.39-0.049c8.586,4.223,17.992,8.224,28.058,11.596l-5.3,4.01
			c-21.207,16.043-26.961,45.381-13.386,68.245c4.295,7.233,4.639,15.862,0.857,21.471c-4.453,6.601-12.882,6.84-19.172,5.879
			c-4.396-0.673-8.514,2.349-9.189,6.749c-0.673,4.402,2.349,8.515,6.749,9.188c2.559,0.391,5.048,0.585,7.454,0.585
			c11.858,0,21.66-4.691,27.524-13.385c7.311-10.839,7.171-26.037-0.359-38.719c-9.381-15.798-5.404-36.07,9.248-47.155
			l15.072-11.403c11.884,2.67,24.441,4.277,37.457,4.277c13.016,0,25.574-1.606,37.457-4.277l15.072,11.403
			c14.653,11.085,18.629,31.358,9.248,47.156c-7.529,12.682-7.67,27.88-0.358,38.719c5.865,8.694,15.664,13.385,27.524,13.385
			c2.405,0,4.896-0.193,7.454-0.585c4.402-0.673,7.422-4.788,6.749-9.188c-0.675-4.402-4.792-7.423-9.189-6.749
			c-6.285,0.961-14.719,0.724-19.172-5.879c-3.784-5.609-3.44-14.237,0.856-21.471c13.576-22.863,7.821-52.201-13.384-68.244
			l-5.301-4.01c10.065-3.372,19.471-7.372,28.056-11.595c0.455,0.053,0.919,0.075,1.392,0.048
			c0.356-0.017,35.927-1.669,43.806,22.524c10.09,30.981,15.155,46.531,47.071,60.174c1.034,0.442,2.108,0.65,3.164,0.65
			c3.131,0,6.11-1.835,7.417-4.895c1.75-4.094-0.151-8.831-4.244-10.581c-25.19-10.767-28.177-19.942-38.078-50.341
			c-4.949-15.199-17.136-25.842-35.241-30.776c-0.406-0.111-0.81-0.217-1.214-0.319c14.448-9.154,24.27-17.338,27.844-20.452
			c18.352-5.37,40.473-7.392,45.322-1.865c1.729,1.974,0.992,7.021-1.975,13.504c-8.683,18.971-3.502,29.895,2.374,35.719
			c6.485,6.428,16.984,9.184,28.676,9.184c13.179,0,27.872-3.503,40.027-9.197C511.387,293.154,513.124,288.355,511.236,284.323z
			 M301.821,136.963c0-10.051,8.177-18.228,18.228-18.228s18.228,8.177,18.228,18.228c0,10.051-8.177,18.228-18.228,18.228
			S301.821,147.013,301.821,136.963z M191.949,155.191c-10.051,0-18.229-8.178-18.229-18.228c0-10.051,8.177-18.228,18.229-18.228
			c10.051,0,18.228,8.177,18.228,18.228C210.177,147.014,202,155.191,191.949,155.191z"/>
	</g>
</g>
<g>
	<g>
		<circle cx="320.05" cy="136.963" r="8.062"/>
	</g>
</g>
<g>
	<g>
		<circle cx="191.944" cy="136.963" r="8.062"/>
	</g>
</g>
</svg>