<?xml version="1.0" encoding="iso-8859-1"?>
<!-- Uploaded to: SVG Repo, www.svgrepo.com, Generator: SVG Repo Mixer Tools -->
<svg fill="#000000" height="800px" width="800px" version="1.1" id="Layer_1" xmlns="http://www.w3.org/2000/svg" xmlns:xlink="http://www.w3.org/1999/xlink" 
	 viewBox="0 0 512 512" xml:space="preserve">
<g>
	<g>
		<path d="M495.304,38.957H16.696C7.475,38.957,0,46.432,0,55.652c0,8.54,0,387.913,0,400.696c0,9.22,7.475,16.696,16.696,16.696
			h478.609c9.22,0,16.696-7.475,16.696-16.696c0-21.155,0-387.229,0-400.696C512,46.432,504.525,38.957,495.304,38.957z
			 M478.609,439.652H33.391v-33.391h445.217V439.652z M478.609,372.87H33.391V139.13h445.217V372.87z M478.609,105.739H33.391
			V72.348h445.217V105.739z"/>
	</g>
</g>
<g>
	<g>
		<path d="M322.783,239.304h-50.087v-33.391h50.087c9.22,0,16.696-7.475,16.696-16.696s-7.475-16.696-16.696-16.696H256
			c-9.22,0-16.696,7.475-16.696,16.696v50.087h-33.391v-50.087c0-9.22-7.475-16.696-16.696-16.696s-16.696,7.475-16.696,16.696V256
			c0,9.22,7.475,16.696,16.696,16.696h50.087v33.391h-50.087c-9.22,0-16.696,7.475-16.696,16.696s7.475,16.696,16.696,16.696H256
			c9.22,0,16.696-7.475,16.696-16.696v-50.087h33.391v50.087c0,9.22,7.475,16.696,16.696,16.696s16.696-7.475,16.696-16.696V256
			C339.478,246.78,332.003,239.304,322.783,239.304z"/>
	</g>
</g>
</svg>