<?xml version="1.0" encoding="iso-8859-1"?>
<!-- Uploaded to: SVG Repo, www.svgrepo.com, Generator: SVG Repo Mixer Tools -->
<svg version="1.1" id="Layer_1" xmlns="http://www.w3.org/2000/svg" xmlns:xlink="http://www.w3.org/1999/xlink" 
	 viewBox="0 0 512 512" xml:space="preserve">
<g>
	<rect x="273.863" y="406.201" style="fill:#808080;" width="42.694" height="97.226"/>
	<rect x="195.261" y="406.201" style="fill:#808080;" width="42.694" height="97.226"/>
	<path style="fill:#808080;" d="M255.911,153.505c8.919,0,16.154,7.235,16.154,16.154s-7.235,16.154-16.154,16.154
		c-8.931,0-16.154-7.235-16.154-16.154S246.98,153.505,255.911,153.505z"/>
	<path style="fill:#808080;" d="M322.259,291.971v32.378h-32.309v-32.378c0-8.919,7.223-16.154,16.154-16.154
		C315.024,275.817,322.259,283.052,322.259,291.971z"/>
	<path style="fill:#808080;" d="M221.872,291.971v32.378h-32.309v-32.378c0-8.919,7.223-16.154,16.154-16.154
		C214.637,275.817,221.872,283.052,221.872,291.971z"/>
</g>
<g>
	<path style="fill:#B3B3B3;" d="M157.647,365.058v138.373h-36.555v-146.07C132.377,362.346,144.781,365.058,157.647,365.058z"/>
	<path style="fill:#B3B3B3;" d="M390.742,357.35v146.081h-36.578V365.058C367.03,365.058,379.446,362.335,390.742,357.35z"/>
</g>
<g>
	<polygon style="fill:#E6E6E6;" points="354.164,365.058 354.164,503.431 316.559,503.431 316.559,406.205 273.866,406.205 
		273.866,503.431 237.957,503.431 237.957,406.205 195.263,406.205 195.263,503.431 157.647,503.431 157.647,365.058 	"/>
	<path style="fill:#E6E6E6;" d="M357.73,243.854v80.31c-3.115,0.127-6.231,0.185-9.346,0.185h-26.124v-32.378
		c0-6.3-3.612-11.77-8.885-14.423c-2.192-1.108-4.662-1.731-7.269-1.731c-2.619,0-5.1,0.623-7.281,1.731
		c-5.273,2.665-8.873,8.123-8.873,14.423v32.378h-68.079v-32.378c0-6.3-3.612-11.77-8.885-14.423
		c-2.192-1.108-4.662-1.731-7.269-1.731c-2.619,0-5.1,0.623-7.281,1.731c-5.273,2.665-8.873,8.123-8.873,14.423v32.378h-26.135
		c-3.115,0-6.231-0.058-9.346-0.185v-80.31c9.243,3.162,19.108,4.846,29.251,4.846h145.147
		C338.621,248.701,348.475,247.016,357.73,243.854z"/>
	<path style="fill:#E6E6E6;" d="M255.911,8.739l47.355,82.029c-4.696,0.288-9.416,0.427-14.135,0.427h-66.452
		c-4.719,0-9.439-0.138-14.135-0.427L255.911,8.739z"/>
	<path style="fill:#E6E6E6;" d="M294.912,131.905h-78.014c-9.82,0-19.374-1.581-28.374-4.546v80.633h134.762v-80.633
		C314.298,130.324,304.743,131.905,294.912,131.905z M272.065,169.66c0,8.919-7.235,16.154-16.154,16.154
		c-8.931,0-16.154-7.235-16.154-16.154c0-8.054,5.896-14.747,13.627-15.958c0.819-0.127,1.662-0.196,2.527-0.196
		c0.854,0,1.708,0.069,2.527,0.196C266.158,154.913,272.065,161.606,272.065,169.66z"/>
</g>
<path style="fill:#F95428;" d="M121.092,357.362c-21.912-9.67-39.636-27.855-48.359-51.255
	c14.366,6.023,29.251,10.581,44.436,13.639c12.15,2.446,24.497,3.923,36.913,4.419c3.115,0.127,6.231,0.185,9.346,0.185h26.135
	h32.309h68.079h32.309h26.124c3.116,0,6.231-0.058,9.346-0.185c27.959-1.119,55.513-7.212,81.36-18.058
	c-6.612,17.724-18.393,32.459-33.243,42.763c-4.742,3.3-9.796,6.139-15.104,8.481c-11.297,4.985-23.712,7.708-36.578,7.708H157.647
	C144.781,365.058,132.377,362.346,121.092,357.362z"/>
<g>
	<path style="fill:#999999;" d="M121.092,357.362c11.285,4.985,23.689,7.696,36.555,7.696v31.155
		c-12.866,0-25.27-2.712-36.555-7.696C121.092,388.516,121.092,357.362,121.092,357.362z"/>
	<path style="fill:#999999;" d="M390.742,357.35v31.155c-11.297,4.985-23.712,7.708-36.578,7.708v-31.155
		C367.03,365.058,379.446,362.335,390.742,357.35z"/>
</g>
<rect x="157.644" y="365.053" style="fill:#CCCCCC;" width="196.517" height="23.078"/>
<path style="fill:#F95428;" d="M413.404,189.737c-6.612,17.735-18.393,32.47-33.243,42.774c-6.877,4.789-14.435,8.619-22.431,11.343
	c-9.254,3.162-19.108,4.846-29.251,4.846H183.332c-10.143,0-20.008-1.685-29.251-4.846c-25.258-8.619-45.982-28.166-55.663-54.117
	c14.366,6.023,29.251,10.581,44.436,13.65c15,3.012,30.301,4.569,45.671,4.604c0.196,0,0.392,0,0.588,0h133.585
	c0.196,0,0.392,0,0.589,0C354.245,207.911,384.869,201.703,413.404,189.737z"/>
<path style="fill:#CCCCCC;" d="M357.73,243.854v28.847c-9.254,3.162-19.108,4.846-29.251,4.846H183.332
	c-10.143,0-20.008-1.685-29.251-4.846v-28.847c9.243,3.162,19.108,4.846,29.251,4.846h145.147
	C338.621,248.701,348.475,247.016,357.73,243.854z"/>
<path style="fill:#F95428;" d="M379.838,72.953c-6.623,17.724-18.393,32.459-33.232,42.763c-7.143,4.962-14.989,8.896-23.32,11.643
	c-8.989,2.965-18.543,4.546-28.374,4.546h-78.014c-9.82,0-19.374-1.581-28.374-4.546c-25.651-8.469-46.755-28.166-56.54-54.405
	c14.354,6.023,29.251,10.581,44.436,13.639c10.593,2.135,21.324,3.531,32.124,4.177c4.696,0.288,9.416,0.427,14.135,0.427h66.452
	c4.719,0,9.439-0.138,14.135-0.427C329.586,89.188,355.468,83.176,379.838,72.953z"/>
<path style="fill:#CCCCCC;" d="M323.286,127.358v26.343H188.524v-26.343c9,2.965,18.554,4.546,28.374,4.546h78.014
	C304.743,131.905,314.298,130.324,323.286,127.358z"/>
<path d="M445.174,299.779c-2.488-2.392-6.158-3.077-9.344-1.739c-22.145,9.292-45.435,14.938-69.356,16.843v-65.14
	c6.588-2.721,12.863-6.136,18.71-10.207c16.721-11.602,29.315-27.806,36.42-46.861c1.206-3.233,0.375-6.874-2.114-9.265
	c-2.488-2.391-6.157-3.076-9.342-1.74c-24.964,10.468-51.21,16.29-78.118,17.379V156.12c0-4.779-3.874-8.654-8.654-8.654
	c-4.781,0-8.654,3.875-8.654,8.654v43.132H197.269v-60.751c6.472,1.31,13.069,1.972,19.721,1.972h78.013
	c10.608,0,21.066-1.677,31.084-4.981c9.075-2.992,17.671-7.283,25.545-12.753c16.697-11.593,29.284-27.791,36.404-46.842
	c1.209-3.233,0.38-6.876-2.109-9.269c-2.489-2.392-6.161-3.076-9.345-1.741c-21.859,9.17-44.856,14.8-68.441,16.772L263.496,4.327
	C261.949,1.65,259.094,0,256.001,0c-3.092,0-5.948,1.649-7.494,4.327l-44.653,77.33c-8.599-0.721-17.2-1.934-25.635-3.634
	c-14.664-2.953-29.063-7.372-42.796-13.135c-3.188-1.336-6.854-0.652-9.344,1.739c-2.49,2.391-3.32,6.032-2.114,9.266
	c9.841,26.388,30.059,47.018,55.994,57.422v65.734c-11.826-0.486-23.666-1.891-35.302-4.228
	c-14.664-2.964-29.064-7.388-42.804-13.15c-3.186-1.335-6.854-0.65-9.343,1.74c-2.488,2.391-3.319,6.032-2.113,9.266
	c9.721,26.055,29.625,46.559,55.119,57.07v65.145c-8.928-0.714-17.824-1.958-26.551-3.715c-14.639-2.948-29.039-7.368-42.799-13.136
	c-3.182-1.335-6.853-0.651-9.341,1.74c-2.489,2.391-3.32,6.03-2.114,9.263c8.625,23.14,25.89,42.421,47.815,53.673v140.629
	c0,4.779,3.874,8.654,8.654,8.654h74.171h42.694h35.908h42.694h74.183c4.781,0,8.654-3.875,8.654-8.654v-49.721
	c0-4.779-3.874-8.654-8.654-8.654c-4.781,0-8.654,3.875-8.654,8.654v41.067h-19.267V373.247c6.547-0.567,12.985-1.77,19.269-3.616
	v55.147c0,4.779,3.874,8.654,8.654,8.654c4.781,0,8.654-3.875,8.654-8.654v-62.074c3.946-2.022,7.766-4.291,11.384-6.81
	c16.719-11.601,29.311-27.8,36.419-46.848C448.494,305.812,447.663,302.17,445.174,299.779z M313.695,315.609h-15v-23.724
	c0-4.135,3.365-7.5,7.5-7.5s7.5,3.365,7.5,7.5V315.609z M306.195,267.077c-13.679,0-24.808,11.129-24.808,24.808v23.724h-50.771
	v-23.724c0-13.679-11.129-24.808-24.808-24.808c-13.679,0-24.808,11.129-24.808,24.808v23.724h-17.481
	c-0.233,0-0.459-0.006-0.692-0.007v-60.49c6.742,1.43,13.632,2.157,20.597,2.157h145.147c6.959,0,13.85-0.728,20.598-2.159v60.492
	c-0.233,0-0.459,0.007-0.693,0.007h-17.47v-23.724C331.003,278.206,319.874,267.077,306.195,267.077z M213.308,315.609h-15v-23.724
	c0-4.135,3.365-7.5,7.5-7.5c4.135,0,7.5,3.365,7.5,7.5V315.609z M256,25.962l32.614,56.494h-65.236L256,25.962z M150.118,88.66
	c8.106,2.537,16.356,4.654,24.684,6.33c10.951,2.207,22.16,3.665,33.302,4.332c4.789,0.294,9.724,0.443,14.666,0.443h66.452
	c4.941,0,9.876-0.149,14.653-0.443c19.766-1.187,39.18-4.755,57.966-10.639c-5.449,7.673-12.214,14.375-20.083,19.84
	c-6.504,4.52-13.601,8.062-21.091,10.53c-0.001,0-0.002,0-0.002,0c-8.266,2.728-16.9,4.111-25.662,4.111h-78.014
	c-8.751,0-17.387-1.383-25.661-4.11C174.428,113.475,160.116,102.791,150.118,88.66z M116.56,205.446
	c8.104,2.537,16.352,4.658,24.679,6.341c15.6,3.132,31.532,4.738,47.375,4.774h134.785c24.609-0.065,48.745-3.787,72.017-11.089
	c-5.452,7.674-12.224,14.381-20.111,19.854c-6.243,4.348-13.064,7.797-20.275,10.252c-0.002,0.001-0.006,0.001-0.008,0.002
	c-8.51,2.908-17.411,4.381-26.454,4.381H183.422c-9.055,0-17.953-1.473-26.456-4.382C140.431,229.935,126.405,219.35,116.56,205.446
	z M129.836,369.642c6.272,1.842,12.702,3.042,19.247,3.606v121.444h-19.247V369.642z M229.393,494.692h-25.385v-79.918h25.385
	V494.692z M307.994,494.692h-25.385v-79.918h25.385V494.692z M400.994,341.68c-4.279,2.977-8.873,5.556-13.656,7.668
	c-10.483,4.626-21.615,6.972-33.084,6.972H207.538c-4.781,0-8.654,3.875-8.654,8.654c0,4.779,3.874,8.654,8.654,8.654H345.6v121.065
	h-20.298v-88.572c0-4.779-3.874-8.654-8.654-8.654h-42.694c-4.781,0-8.654,3.875-8.654,8.654v88.572h-18.599v-88.572
	c0-4.779-3.874-8.654-8.654-8.654h-42.694c-4.781,0-8.654,3.875-8.654,8.654v88.572h-20.308V373.627h12.3
	c4.781,0,8.654-3.875,8.654-8.654c0-4.779-3.874-8.654-8.654-8.654h-20.954c-11.482,0-22.605-2.341-33.06-6.96
	c-13.552-5.981-25.209-15.595-33.719-27.519c8.084,2.527,16.303,4.635,24.593,6.304c12.553,2.527,25.43,4.069,38.27,4.582
	c3.13,0.127,6.394,0.193,9.697,0.193h26.135h32.309h68.079h32.309h26.124c3.305,0,6.568-0.065,9.693-0.192
	c21.5-0.861,42.582-4.514,62.93-10.889C415.645,329.507,408.876,336.211,400.994,341.68z"/>
<path d="M231.193,169.574c0,13.679,11.129,24.808,24.808,24.808s24.808-11.129,24.808-24.808c0-13.679-11.129-24.808-24.808-24.808
	S231.193,155.895,231.193,169.574z M263.501,169.574c0,4.135-3.365,7.5-7.5,7.5c-4.136,0-7.5-3.365-7.5-7.5
	c0-4.136,3.365-7.5,7.5-7.5C260.137,162.074,263.501,165.439,263.501,169.574z"/>
</svg>