<?xml version="1.0" encoding="iso-8859-1"?>
<!-- Uploaded to: SVG Repo, www.svgrepo.com, Generator: SVG Repo Mixer Tools -->
<svg height="800px" width="800px" version="1.1" id="Layer_1" xmlns="http://www.w3.org/2000/svg" xmlns:xlink="http://www.w3.org/1999/xlink" 
	 viewBox="0 0 512 512" xml:space="preserve">
<path style="fill:#FFEFD9;" d="M436.424,323.45c-0.557-0.445-1.113-0.89-1.668-1.336c-24.932-24.932-65.448-24.932-90.38,0
	c-7.456,7.346-17.697,10.129-27.27,8.348c-12.689-2.337-15.137-9.461-25.935-16.584c-10.684-7.012-22.928-10.463-35.171-10.463
	c-16.362,0-32.722,6.233-45.191,18.699c-11.797,11.798-31.164,12.021-43.185,0c-24.932-24.932-65.448-24.932-90.38,0
	c-0.555,0.445-1.112,0.89-1.668,1.336c-9.239,8.125-22.261,9.572-32.946,4.563c2.114,12.466,5.12,24.487,8.903,35.951
	C80.472,453.009,157.495,512,255.999,512s175.527-58.991,204.466-148.035c3.784-11.464,6.79-23.485,8.903-35.951
	C458.685,333.023,445.663,331.576,436.424,323.45z"/>
<path style="fill:#FFD9B3;" d="M469.369,328.014c-2.114,12.466-5.12,24.487-8.903,35.951C431.527,453.009,354.504,512,256,512
	V303.416c12.243,0,24.487,3.45,35.171,10.463c10.798,7.123,13.246,14.247,25.935,16.584c9.572,1.781,19.812-1.002,27.27-8.348
	c24.932-24.932,65.448-24.932,90.38,0c0.555,0.445,1.112,0.89,1.668,1.336C445.663,331.576,458.685,333.023,469.369,328.014z"/>
<path style="fill:#FFEFD9;" d="M439.019,139.142C401.212,60.594,334.978,0,256,0S110.788,60.594,72.981,139.142
	c-4.865,10.106-9.296,20.483-13.185,31.094c6.379,0.869,12.544,3.636,17.443,8.53c3.646,3.646,7.694,6.593,11.913,9.171
	c10.193,6.232,21.704,9.513,33.282,9.513c16.37,0,32.739-6.229,45.195-18.685c12.024-12.013,31.479-11.78,43.174,0
	c24.91,24.91,65.476,24.915,90.391,0c11.796-11.763,31.136-12.026,43.174,0c12.456,12.456,28.826,18.685,45.195,18.685
	c11.579,0,23.09-3.282,33.282-9.513c4.218-2.579,8.267-5.525,11.913-9.171c4.9-4.894,11.064-7.661,17.443-8.53
	C448.315,159.625,443.884,149.247,439.019,139.142z"/>
<path style="fill:#FFD9B3;" d="M301.195,178.766c11.796-11.763,31.136-12.026,43.174,0c12.456,12.456,28.826,18.685,45.195,18.685
	c11.579,0,23.09-3.282,33.282-9.513c4.218-2.579,8.267-5.525,11.913-9.171c4.9-4.894,11.064-7.661,17.443-8.53
	c-3.889-10.611-8.319-20.989-13.185-31.094C401.212,60.594,334.978,0,256,0v197.451C272.37,197.451,288.739,191.223,301.195,178.766
	z"/>
<path style="fill:#FFC033;" d="M472.525,267.13c-0.626-11.104-1.891-22.259-3.701-33.391c-3.5-21.504-9.068-42.896-16.62-63.504
	c-3.889-10.611-8.319-20.989-13.185-31.094c-10.19,2.863-19.868,8.007-27.867,16.006c-0.377,0.377-0.824,0.639-1.217,0.993
	c-11.976,10.792-30.423,10.532-41.958-0.993c-27.117-27.116-68.373-22.023-90.391,0c-11.911,11.898-31.261,11.902-43.174,0
	c-24.848-24.852-65.715-24.676-90.391,0c-11.536,11.524-29.981,11.785-41.958,0.993c-0.393-0.354-0.838-0.614-1.217-0.993
	c-7.998-7.998-17.676-13.143-27.867-16.006c-4.865,10.106-9.296,20.483-13.185,31.094c-7.549,20.608-13.116,42-16.616,63.504
	c-1.81,11.133-3.076,22.288-3.701,33.391c-0.313,5.583-0.52,11.155-0.52,16.696c0,15.261,1.345,29.974,3.69,44.177
	c2.062,12.495,5.101,24.465,8.851,36.007c11.196,0.726,22.421-1.49,32.671-6.613c5.984-2.99,11.698-6.694,16.679-11.676
	c11.913-11.902,31.261-11.902,43.174,0c12.456,12.456,28.826,18.685,45.195,18.685c17.959,0,34.541-8.038,45.195-18.685
	c11.908-11.898,31.261-11.903,43.174,0c0.041,0.04,0.088,0.065,0.128,0.105c9.285,9.235,22.737,15.698,34.123,17.673
	c18.549,3.293,40.833-2.47,56.141-17.778c11.913-11.902,31.261-11.902,43.174,0c4.981,4.981,10.695,8.686,16.679,11.676
	c8.978,4.487,18.692,7.01,28.516,7.01c1.391,0,2.765-0.307,4.155-0.397c3.75-11.542,6.788-23.512,8.851-36.007
	c2.347-14.202,3.692-28.916,3.692-44.177C473.043,278.285,472.836,272.713,472.525,267.13z"/>
<path style="fill:#F9A926;" d="M468.823,233.739c-3.501-21.504-9.068-42.896-16.62-63.504c-3.889-10.611-8.319-20.989-13.185-31.094
	c-10.19,2.863-19.868,8.007-27.867,16.006c-0.377,0.377-0.824,0.639-1.217,0.993c-11.976,10.792-30.423,10.532-41.958-0.993
	c-27.117-27.116-68.373-22.023-90.391,0c-5.957,5.949-13.772,8.925-21.587,8.925v172.724c7.815,0,15.63,2.975,21.587,8.926
	c0.041,0.04,0.088,0.065,0.128,0.105c9.285,9.235,22.737,15.698,34.123,17.673c18.549,3.294,40.833-2.47,56.141-17.778
	c11.913-11.902,31.261-11.902,43.174,0c4.981,4.981,10.695,8.686,16.679,11.676c8.978,4.487,18.692,7.01,28.516,7.01
	c1.391,0,2.765-0.307,4.155-0.397c3.75-11.542,6.788-23.512,8.851-36.007c2.349-14.204,3.693-28.917,3.693-44.178
	c0-5.541-0.207-11.113-0.519-16.696C471.899,256.027,470.633,244.872,468.823,233.739z"/>
<circle style="fill:#E15C25;" cx="356.174" cy="116.87" r="16.696"/>
<circle style="fill:#EE6E2F;" cx="155.826" cy="116.87" r="16.696"/>
<circle style="fill:#E15C25;" cx="372.87" cy="384" r="16.696"/>
<g>
	<circle style="fill:#EE6E2F;" cx="139.13" cy="384" r="16.696"/>
	<path style="fill:#EE6E2F;" d="M468.823,233.739h-33.97H77.147h-33.97c-1.81,11.133-3.076,22.288-3.701,33.391h33.646h365.755
		h33.646C471.899,256.027,470.633,244.872,468.823,233.739z"/>
</g>
<path style="fill:#E15C25;" d="M434.853,233.739H256v33.391h182.878h33.646c-0.626-11.104-1.891-22.259-3.701-33.391H434.853z"/>
<circle style="fill:#EE6E2F;" cx="256" cy="384" r="16.696"/>
<path style="fill:#E15C25;" d="M272.696,384c0-9.22-7.475-16.696-16.696-16.696v33.391C265.22,400.696,272.696,393.22,272.696,384z"
	/>
<circle style="fill:#EE6E2F;" cx="256" cy="116.87" r="16.696"/>
<path style="fill:#E15C25;" d="M272.696,116.87c0-9.22-7.475-16.696-16.696-16.696v33.391
	C265.22,133.565,272.696,126.09,272.696,116.87z"/>
</svg>