<?xml version="1.0" encoding="iso-8859-1"?>
<!-- Uploaded to: SVG Repo, www.svgrepo.com, Generator: SVG Repo Mixer Tools -->
<svg height="800px" width="800px" version="1.1" id="Layer_1" xmlns="http://www.w3.org/2000/svg" xmlns:xlink="http://www.w3.org/1999/xlink" 
	 viewBox="0 0 512 512" xml:space="preserve">
<path style="fill:#FFC033;" d="M222.609,512c-9.206,0-16.696-7.49-16.696-16.696V200.348h-83.478
	c-9.206,0-16.696-7.49-16.696-16.696V116.87c0-9.206,7.49-16.696,16.696-16.696h83.478V16.696C205.913,7.49,213.403,0,222.609,0
	h66.783c9.206,0,16.696,7.49,16.696,16.696v83.478h83.478c9.206,0,16.696,7.49,16.696,16.696v66.783
	c0,9.206-7.49,16.696-16.696,16.696h-83.478v294.956c0,9.206-7.49,16.696-16.696,16.696H222.609z"/>
<path style="fill:#F9A926;" d="M389.565,100.174h-83.478V16.696C306.087,7.49,298.597,0,289.391,0H256v512h33.391
	c9.206,0,16.696-7.49,16.696-16.696V200.348h83.478c9.206,0,16.696-7.49,16.696-16.696V116.87
	C406.261,107.664,398.771,100.174,389.565,100.174z"/>
</svg>