<?xml version="1.0" encoding="iso-8859-1"?>
<!-- Uploaded to: SVG Repo, www.svgrepo.com, Generator: SVG Repo Mixer Tools -->
<svg fill="#000000" height="800px" width="800px" version="1.1" id="Layer_1" xmlns="http://www.w3.org/2000/svg" xmlns:xlink="http://www.w3.org/1999/xlink" 
	 viewBox="0 0 512.001 512.001" xml:space="preserve">
<g>
	<g>
		<circle cx="122.75" cy="83.48" r="16.696"/>
	</g>
</g>
<g>
	<g>
		<circle cx="389.891" cy="83.48" r="16.696"/>
	</g>
</g>
<g>
	<g>
		<path d="M511.315,414.276c-1.316-9.13-9.815-15.521-18.892-14.168c-6.107,0.938-18.412-14.535-16.522-27.658
			c2.203-15.407-3.047-31.894-15.278-43.813c24.452-17.228,39.369-31.216,40.973-32.752c3.294-3.147,5.152-7.505,5.152-12.06
			s-1.859-8.913-5.152-12.06c-2.888-2.769-48.595-45.684-116.728-75.735l6.063-29.128c45.545-0.571,82.426-37.748,82.426-83.425
			C473.359,37.446,435.912,0,389.88,0s-83.478,37.446-83.478,83.478c0,34.789,21.403,64.644,51.72,77.167l-4.799,23.057
			c-29.661-9.998-62.383-16.746-97.006-16.746c-34.622,0-67.339,6.746-97.003,16.742l-4.796-23.057
			c30.313-12.525,51.712-42.378,51.712-77.164C206.229,37.446,168.783,0,122.751,0C76.719,0,39.273,37.446,39.273,83.478
			c0,45.68,36.887,82.858,82.435,83.425l6.059,29.126c-68.135,30.052-113.845,72.968-116.734,75.737
			c-3.293,3.147-5.152,7.505-5.152,12.06s1.859,8.913,5.152,12.06c1.595,1.529,16.386,15.392,40.623,32.501
			c-0.253,0.242-0.528,0.446-0.775,0.695c-11.5,11.494-17.022,27.707-14.782,43.364c1.891,13.137-10.406,28.581-16.522,27.664
			c-9.119-1.348-17.587,5.038-18.892,14.168c-1.305,9.125,5.043,17.582,14.173,18.886c32.88,4.711,58.7-34.598,54.304-65.44
			c-1.231-8.594,5.224-18.207,13.519-19.247c7.003,4.145,14.416,8.258,22.234,12.295c-11.301,17.162-12.695,39.83-2.655,56.777
			c5.731,9.685-1.154,30.733-8.934,32.722c-8.934,2.288-14.315,11.385-12.033,20.315c2.259,8.81,11.236,14.338,20.315,12.033
			c31.735-8.129,45.328-55.155,29.391-82.087c-4.103-6.91-1.907-19.648,5.334-25.223c9.358,3.863,19.066,7.437,29.155,10.631
			c-6.911,21.261-1.67,48.054,16.25,61.499c7.732,5.791,7.763,28.695,0,34.511c-7.369,5.533-8.87,16-3.337,23.375
			c5.532,7.363,16.02,8.865,23.38,3.331c25.598-19.204,25.598-68.719,0-87.924c-3.489-2.62-5.837-8.994-5.837-15.859
			c0-3.893,0.813-7.536,2.099-10.517c18.667,3.871,38.102,6.339,58.27,6.339c19.964,0,39.207-2.418,57.701-6.216
			c4.303,10.164,1.199,22.502-3.799,26.254c-25.597,19.203-25.6,68.718,0,87.924c7.401,5.544,17.849,4.031,23.381-3.331
			c5.533-7.375,4.033-17.842-3.337-23.375c-7.763-5.816-7.732-28.719,0-34.511c17.83-13.377,23.151-40.037,16.304-61.33
			c10.139-3.19,19.913-6.752,29.318-10.622c7.106,5.722,9.159,18.233,5.117,25.049c-15.902,26.864-2.406,73.937,29.391,82.081
			c9.079,2.305,18.056-3.223,20.315-12.033c2.283-8.929-3.098-18.027-12.033-20.315c-7.78-1.989-14.667-23.039-8.934-32.722
			c9.509-16.062,9.223-38.5-2.511-56.537c7.984-4.11,15.565-8.298,22.704-12.524c7.543,1.342,14.166,10.43,12.905,19.24
			c-4.393,30.82,21.41,70.148,54.304,65.435C506.271,431.858,512.62,423.401,511.315,414.276z M122.751,133.565
			c-27.619,0-50.087-22.468-50.087-50.087c0-27.619,22.468-50.087,50.087-50.087c27.619,0,50.087,22.468,50.087,50.087
			C172.838,111.097,150.37,133.565,122.751,133.565z M339.794,83.478c0-27.619,22.468-50.087,50.087-50.087
			c27.619,0,50.087,22.468,50.087,50.087c0,27.619-22.468,50.087-50.087,50.087S339.794,111.097,339.794,83.478z"/>
	</g>
</g>
</svg>