<?xml version="1.0" encoding="iso-8859-1"?>
<!-- Uploaded to: SVG Repo, www.svgrepo.com, Generator: SVG Repo Mixer Tools -->
<svg version="1.1" id="Layer_1" xmlns="http://www.w3.org/2000/svg" xmlns:xlink="http://www.w3.org/1999/xlink" 
	 viewBox="0 0 512 512" xml:space="preserve">
<rect y="356.311" style="fill:#808080;" width="512" height="55.39"/>
<rect y="356.311" style="fill:#666666;" width="80.458" height="55.39"/>
<path style="fill:#E6E6E6;" d="M256.006,100.299C397.386,100.299,512,214.913,512,356.305H0
	C0,214.913,114.614,100.299,256.006,100.299z"/>
<path style="fill:#CCCCCC;" d="M256.006,100.299c-96.952,0-175.549,114.614-175.549,256.006H0
	C0,214.913,114.614,100.299,256.006,100.299z"/>
<path style="fill:#F7B239;" d="M318.751,240.142l31.299-54.212h-62.599l-31.299-54.212l-31.299,54.212h-62.6l31.299,54.212
	l-31.299,54.212h62.6l31.299,54.212l31.299-54.212h62.599L318.751,240.142z M317.389,204.787l-9.525,16.499l-9.525-16.499H317.389z
	 M296.977,240.142l-20.412,35.355H235.74l-20.412-35.355l20.412-35.355h40.825L296.977,240.142z M256.152,169.432l9.525,16.498
	h-19.05L256.152,169.432z M194.915,204.787h19.051l-9.525,16.499L194.915,204.787z M194.915,275.497l9.525-16.499l9.525,16.499
	H194.915z M256.152,310.851l-9.525-16.498h19.05L256.152,310.851z M307.864,258.999l9.525,16.499h-19.051L307.864,258.999z"/>
</svg>