<?xml version="1.0" encoding="iso-8859-1"?>
<!-- Uploaded to: SVG Repo, www.svgrepo.com, Generator: SVG Repo Mixer Tools -->
<svg fill="#000000" height="800px" width="800px" version="1.1" id="Layer_1" xmlns="http://www.w3.org/2000/svg" xmlns:xlink="http://www.w3.org/1999/xlink" 
	 viewBox="0 0 512 512" xml:space="preserve">
<g>
	<g>
		<path d="M256,0C114.843,0,0,114.843,0,256s114.843,256,256,256s256-114.843,256-256S397.157,0,256,0z M316.277,86.527
			c15.489,0,28.092,12.597,28.092,28.087c0,15.489-12.603,28.086-28.092,28.086s-28.087-12.597-28.087-28.086
			C288.19,99.124,300.788,86.527,316.277,86.527z M233.745,119.103c8.478-3.571,18.294,0.37,21.886,8.864
			c10.022,23.652,33.054,38.94,58.68,38.94c35.114,0,63.685-28.571,63.685-63.685c0-9.223,7.473-16.696,16.696-16.696
			s16.696,7.473,16.696,16.696c0,53.527-43.549,97.076-97.076,97.076c-39.066,0-74.163-23.277-89.43-59.31
			C221.288,132.5,225.256,122.701,233.745,119.103z M259.862,362.317c-1.151,63.097-75.786,109.188-147.932,59.493
			c-34.913-24.044-60.25-64.011-60.25-95.022c0-9.223,7.473-16.696,16.696-16.696c9.223,0,16.696,7.473,16.696,16.696
			c0,17.305,17.51,48.038,45.798,67.522c48.843,33.656,94.914,5.415,95.614-32.603c0.516-28.452-17.31-58.582-58.316-61.777
			c-8.331-0.652-14.903-7.364-15.37-15.712c-0.467-8.342,5.305-15.75,13.517-17.331c30.402-5.848,49.163-17.81,51.473-32.826
			c3.82-24.878-38.551-58.217-73.984-26.277c-6.847,6.174-17.397,5.62-23.582-1.233c-6.169-6.853-5.62-17.408,1.233-23.582
			c58.329-52.508,138.016-0.308,129.337,56.169c-1.804,11.723-8.555,29.555-31.331,43.625
			C245.09,299.669,260.487,328.257,259.862,362.317z M405.723,389.049c-39.624,36.244-85.31,21.796-124.109-16.217
			c-6.587-6.451-6.696-17.022-0.239-23.609c6.451-6.598,17.027-6.685,23.609-0.239c25.199,24.692,52.576,38.863,78.201,15.429
			c41.308-37.809,29.058-115.744-0.473-123.989c-39.102-10.913-51.575,66.326-109.788,66.326c-9.223,0-16.696-7.473-16.696-16.696
			s7.473-16.696,16.696-16.696c37.039,0,53.441-83.367,118.766-65.097C450.107,224.573,464.481,335.283,405.723,389.049z"/>
	</g>
</g>
</svg>