<?xml version="1.0" encoding="iso-8859-1"?>
<!-- Uploaded to: SVG Repo, www.svgrepo.com, Generator: SVG Repo Mixer Tools -->
<svg version="1.1" id="Layer_1" xmlns="http://www.w3.org/2000/svg" xmlns:xlink="http://www.w3.org/1999/xlink" 
	 viewBox="0 0 512 512" xml:space="preserve">
<path style="fill:#EDF0F2;" d="M495.304,473.043H16.696C7.479,473.043,0,465.57,0,456.348v-66.783
	c0-9.223,7.479-16.696,16.696-16.696h478.609c9.217,0,16.696,7.473,16.696,16.696v66.783
	C512,465.57,504.521,473.043,495.304,473.043z"/>
<path style="fill:#DAE1E6;" d="M495.304,372.87H256v100.174h239.304c9.217,0,16.696-7.473,16.696-16.696v-66.783
	C512,380.342,504.521,372.87,495.304,372.87z"/>
<path style="fill:#EDF0F2;" d="M495.304,139.13H16.696C7.479,139.13,0,131.657,0,122.435V55.652c0-9.223,7.479-16.696,16.696-16.696
	h478.609c9.217,0,16.696,7.473,16.696,16.696v66.783C512,131.657,504.521,139.13,495.304,139.13z"/>
<path style="fill:#DAE1E6;" d="M495.304,38.957H256V139.13h239.304c9.217,0,16.696-7.473,16.696-16.696V55.652
	C512,46.429,504.521,38.957,495.304,38.957z"/>
<path style="fill:#3AACE6;" d="M512,406.261H0V105.739h512V406.261z"/>
<rect x="256" y="105.739" style="fill:#2B9FD9;" width="256" height="300.522"/>
<path style="fill:#FFEFD9;" d="M322.783,239.304h-50.087v-33.391h50.087c9.217,0,16.696-7.473,16.696-16.696
	s-7.479-16.696-16.696-16.696H256c-9.217,0-16.696,7.473-16.696,16.696v50.087h-33.391v-50.087c0-9.223-7.479-16.696-16.696-16.696
	c-9.217,0-16.696,7.473-16.696,16.696V256c0,9.223,7.479,16.696,16.696,16.696h50.087v33.391h-50.087
	c-9.217,0-16.696,7.473-16.696,16.696s7.479,16.696,16.696,16.696H256c9.217,0,16.696-7.473,16.696-16.696v-50.087h33.391v50.087
	c0,9.223,7.479,16.696,16.696,16.696s16.696-7.473,16.696-16.696V256C339.478,246.777,332,239.304,322.783,239.304z"/>
<path style="fill:#FFD9B3;" d="M272.696,322.783v-50.087h33.391v50.087c0,9.223,7.479,16.696,16.696,16.696
	s16.696-7.473,16.696-16.696V256c0-9.223-7.479-16.696-16.696-16.696h-50.087v-33.391h50.087c9.217,0,16.696-7.473,16.696-16.696
	s-7.479-16.696-16.696-16.696H256v166.957C265.217,339.478,272.696,332.005,272.696,322.783z"/>
</svg>