<?xml version="1.0" encoding="iso-8859-1"?>
<!-- Uploaded to: SVG Repo, www.svgrepo.com, Generator: SVG Repo Mixer Tools -->
<svg height="800px" width="800px" version="1.1" id="Layer_1" xmlns="http://www.w3.org/2000/svg" xmlns:xlink="http://www.w3.org/1999/xlink" 
	 viewBox="0 0 512 512" xml:space="preserve">
<path style="fill:#F7B239;" d="M317.102,232.298L317.102,232.298c16.591,47.157,61.139,78.707,111.129,78.707h28.762
	c0,71.283-37.12,133.914-93.073,169.594c-18.044,11.507-38.037,20.21-59.381,25.498c-15.546,3.861-31.806,5.9-48.537,5.9
	s-32.991-2.039-48.537-5.9c-21.344-5.288-41.338-13.992-59.381-25.498c-55.966-35.68-93.073-98.311-93.073-169.594h28.749
	c49.99,0,94.537-31.55,111.129-78.707l0,0c9.124-25.93,33.619-43.28,61.108-43.28l0,0
	C283.482,189.019,307.978,206.368,317.102,232.298z"/>
<path style="fill:#E09B2D;" d="M220.906,506.1c11.239,3.861,23.001,5.9,35.094,5.9c-16.731,0-32.991-2.039-48.537-5.9
	c-21.344-5.288-41.338-13.992-59.381-25.498c-55.966-35.68-93.073-98.311-93.073-169.594h28.748
	c49.99,0,94.539-31.551,111.13-78.712c4.562-12.959,12.972-23.791,23.663-31.36c10.704-7.582,23.689-11.915,37.438-11.915
	c-9.927,0-19.331,4.333-27.053,11.915c-7.735,7.569-13.813,18.401-17.114,31.36c-11.991,47.161-44.192,78.712-80.331,78.712l0,0
	c-11.602,0-20.842,9.845-19.956,21.414c4.767,62.302,30.102,116.121,66.455,148.179C191.037,492.109,205.488,500.812,220.906,506.1z
	"/>
<path style="fill:#F95428;" d="M244.659,0c0,72.009-50.958,59.815-49.85,108.569c0.497,21.625,14.909,35.986,33.666,42.625
	c5.365,1.899,10.232-3.836,7.595-8.869c-7.735-14.769-12.857-38.802,17.458-59.241c1.363,27.716,24.364,32.125,24.364,52.067
	c0,2.523-0.153,4.791-0.433,6.83c-0.663,4.919,4.435,8.601,8.92,6.486c15.776-7.493,27.919-21.064,30.29-41.006
	C324.429,42.089,244.659,0,244.659,0z"/>
</svg>