<?xml version="1.0" encoding="iso-8859-1"?>
<!-- Uploaded to: SVG Repo, www.svgrepo.com, Generator: SVG Repo Mixer Tools -->
<svg fill="#000000" height="800px" width="800px" version="1.1" id="Layer_1" xmlns="http://www.w3.org/2000/svg" xmlns:xlink="http://www.w3.org/1999/xlink" 
	 viewBox="0 0 512 512" xml:space="preserve">
<g>
	<g>
		<path d="M456.348,66.783h-17.463c0.499-5.501,0.767-11.067,0.767-16.696V33.391h16.696c9.22,0,16.696-7.475,16.696-16.696
			S465.568,0,456.348,0H55.652c-9.22,0-16.696,7.475-16.696,16.696s7.475,16.696,16.696,16.696h16.696v16.696
			c0,5.629,0.269,11.195,0.767,16.696H55.652c-9.22,0-16.696,7.475-16.696,16.696s7.475,16.696,16.696,16.696h23.639
			c17.335,61.073,65.549,109.287,126.622,126.622v43.206c-19.433,6.892-33.391,25.45-33.391,47.215
			c0,21.766,13.959,40.323,33.391,47.215v47.393h-16.696c-46.03,0-83.478,37.448-83.478,83.478c0,9.22,7.475,16.696,16.696,16.696
			h267.13c9.22,0,16.696-7.475,16.696-16.696c0-46.03-37.448-83.478-83.478-83.478h-16.696v-47.393
			c19.433-6.892,33.391-25.45,33.391-47.215s-13.959-40.323-33.391-47.215v-43.206c61.073-17.335,109.287-65.549,126.622-126.622
			h23.639c9.22,0,16.696-7.475,16.696-16.696S465.568,66.783,456.348,66.783z M322.783,445.217
			c21.767,0,40.336,13.956,47.226,33.391H141.991c6.891-19.435,25.46-33.391,47.226-33.391
			C203.261,445.217,308.319,445.217,322.783,445.217z M239.304,411.826v-44.522h33.391v44.522H239.304z M289.391,333.913h-66.783
			c-9.206,0-16.696-7.49-16.696-16.696c0-9.206,7.49-16.696,16.696-16.696h66.783c9.206,0,16.696,7.49,16.696,16.696
			C306.087,326.423,298.597,333.913,289.391,333.913z M239.304,267.13v-34.158c5.501,0.499,11.067,0.767,16.696,0.767
			c5.629,0,11.195-0.269,16.696-0.767v34.158H239.304z M256,200.348c-65.299,0-120.992-41.873-141.666-100.174h283.333
			C376.992,158.475,321.299,200.348,256,200.348z M406.261,50.087c0,5.643-0.324,11.212-0.933,16.696H106.672
			c-0.609-5.484-0.933-11.052-0.933-16.696V33.391h300.522V50.087z"/>
	</g>
</g>
</svg>