<?xml version="1.0" encoding="iso-8859-1"?>
<!-- Uploaded to: SVG Repo, www.svgrepo.com, Generator: SVG Repo Mixer Tools -->
<svg fill="#000000" height="800px" width="800px" version="1.1" id="Layer_1" xmlns="http://www.w3.org/2000/svg" xmlns:xlink="http://www.w3.org/1999/xlink" 
	 viewBox="0 0 511.999 511.999" xml:space="preserve">
<g>
	<g>
		<path d="M478.533,283.379c-0.24-9.046-7.641-16.254-16.69-16.254h-72.275c-22.761,0-42.889-14.508-50.089-36.102l-1.713-5.14
			c-11.751-35.25-44.609-58.933-81.765-58.933c-37.157,0-70.016,23.683-81.766,58.933l-1.714,5.142
			c-7.197,21.591-27.31,36.101-50.048,36.102c-24.92,0.001-53.635,0.004-72.32,0.01c-9.048,0.002-16.447,7.212-16.686,16.255
			c-3.31,125.186,97.216,228.607,222.534,228.607c111.904,0,205.357-83.214,220.478-191.758
			C478.168,308.115,478.858,295.712,478.533,283.379z M111.303,400.694c-4.506,0-8.594-1.802-11.6-4.714
			c-1.372-1.998-2.701-4.019-3.991-6.062c-4.167-10.938,3.955-22.616,15.592-22.616c9.206,0,16.696,7.49,16.696,16.696
			C127.999,393.204,120.509,400.694,111.303,400.694z M256.001,478.608c-17.708,0-35.025-2.415-51.591-7.09
			c16.885-14.318,31.3-31.498,42.441-50.785c3.368-5.831,6.422-11.828,9.15-17.957c2.728,6.129,5.781,12.126,9.15,17.957
			c11.113,19.239,25.483,36.379,42.313,50.676C291.031,476.099,273.755,478.608,256.001,478.608z M411.943,396.303
			c-2.971,2.717-6.911,4.39-11.245,4.39c-9.206,0-16.696-7.49-16.696-16.696c0-9.206,7.49-16.696,16.696-16.696
			c9.206,0,16.696,7.49,16.696,16.696C417.394,388.822,416.062,390.335,411.943,396.303z M443.406,315.633c0,0,0,0,0,0.001
			c-1.568,11.26-4.139,22.181-7.598,32.686c-9.046-8.903-21.445-14.41-35.11-14.41c-27.618,0-50.088,22.469-50.088,50.088
			c0,20.947,12.929,38.921,31.224,46.388c-11.596,10.339-24.444,19.267-38.257,26.533c-43.93-29.434-70.881-79.459-70.881-132.685
			V250.43c0-9.221-7.475-16.696-16.696-16.696c-9.221,0-16.696,7.475-16.696,16.696v73.803c0,53.309-27.036,103.406-71.089,132.821
			c-13.645-7.184-26.465-16.089-38.2-26.611c18.373-7.43,31.374-25.443,31.374-46.447c0-27.618-22.469-50.088-50.088-50.088
			c-13.692,0-26.112,5.526-35.164,14.46c-5.033-15.355-8.094-31.402-9.041-47.845c16.881,0,37.146-0.002,55.378-0.003
			c37.132-0.003,69.974-23.686,81.724-58.934l1.714-5.142c7.198-21.592,27.327-36.101,50.088-36.101s42.888,14.508,50.088,36.102
			l1.713,5.14c11.751,35.251,44.609,58.933,81.766,58.933h55.327C444.599,305.592,444.102,310.64,443.406,315.633z"/>
	</g>
</g>
<g>
	<g>
		<path d="M269.738,7.2c-6.63-9.6-20.843-9.599-27.475,0c-11.451,16.583-36.35,55.527-36.35,76.272
			c0,27.618,22.469,50.088,50.088,50.088c27.618,0,50.088-22.469,50.088-50.088C306.089,62.756,281.071,23.612,269.738,7.2z
			 M256.001,100.167c-9.207,0.001-16.696-7.489-16.696-16.676c0.136-5.103,7.08-19.651,16.696-35.854
			c9.611,16.196,16.553,30.737,16.696,35.847C272.689,92.685,265.203,100.167,256.001,100.167z"/>
	</g>
</g>
<g>
	<g>
		<path d="M189.216,317.214c-9.212,0-16.696,7.484-16.696,16.696s7.484,16.696,16.696,16.696s16.696-7.484,16.696-16.696
			S198.428,317.214,189.216,317.214z"/>
	</g>
</g>
<g>
	<g>
		<path d="M322.783,317.214c-9.212,0-16.696,7.484-16.696,16.696s7.484,16.696,16.696,16.696s16.696-7.484,16.696-16.696
			S331.995,317.214,322.783,317.214z"/>
	</g>
</g>
</svg>