<?xml version="1.0" encoding="iso-8859-1"?>
<!-- Uploaded to: SVG Repo, www.svgrepo.com, Generator: SVG Repo Mixer Tools -->
<svg height="800px" width="800px" version="1.1" id="Layer_1" xmlns="http://www.w3.org/2000/svg" xmlns:xlink="http://www.w3.org/1999/xlink" 
	 viewBox="0 0 512 512" xml:space="preserve">
<path style="fill:#FFC033;" d="M489.739,473.043H22.261c-5.978,0-11.5-3.196-14.478-8.38s-2.956-11.566,0.055-16.728L241.576,47.24
	c3-5.131,8.489-8.283,14.424-8.283s11.424,3.152,14.424,8.282l233.739,400.696c3.011,5.163,3.033,11.543,0.055,16.728
	C501.239,469.847,495.717,473.043,489.739,473.043z"/>
<path style="fill:#F9A926;" d="M489.739,473.043c5.978,0,11.5-3.196,14.478-8.38c2.979-5.185,2.956-11.566-0.055-16.728
	L270.424,47.24c-3-5.131-8.489-8.283-14.424-8.283v434.087H489.739z"/>
<path style="fill:#FFEFD9;" d="M256,406.261c-88.848,0-159.076-68.707-162.021-71.63c-3.163-3.137-4.935-7.397-4.935-11.848
	s1.772-8.712,4.935-11.848c2.945-2.923,73.174-71.63,162.021-71.63s159.076,68.707,162.021,71.63
	c3.163,3.137,4.935,7.397,4.935,11.848s-1.772,8.712-4.935,11.848C415.076,337.554,344.848,406.261,256,406.261z"/>
<path style="fill:#FFD9B3;" d="M418.021,334.631c3.163-3.137,4.935-7.397,4.935-11.848s-1.772-8.712-4.935-11.848
	c-2.945-2.923-73.174-71.63-162.021-71.63v166.957C344.848,406.261,415.076,337.554,418.021,334.631z"/>
<g>
	<path style="fill:#3AACE6;" d="M150.261,105.739c-9.217,0-16.696-7.473-16.696-16.696V55.652c0-9.223,7.479-16.696,16.696-16.696
		s16.696,7.473,16.696,16.696v33.391C166.957,98.266,159.478,105.739,150.261,105.739z"/>
	<path style="fill:#3AACE6;" d="M50.087,205.913H16.696C7.479,205.913,0,198.44,0,189.217s7.479-16.696,16.696-16.696h33.391
		c9.217,0,16.696,7.473,16.696,16.696S59.304,205.913,50.087,205.913z"/>
	<path style="fill:#3AACE6;" d="M79.423,135.081c-4.272,0-8.544-1.631-11.804-4.892l-23.609-23.613
		c-6.521-6.521-6.521-17.092,0-23.609c6.521-6.521,17.087-6.521,23.609,0l23.609,23.614c6.521,6.521,6.521,17.092,0,23.609
		C87.967,133.451,83.695,135.081,79.423,135.081z"/>
</g>
<g>
	<path style="fill:#2B9FD9;" d="M361.739,105.739c-9.217,0-16.696-7.473-16.696-16.696V55.652c0-9.223,7.479-16.696,16.696-16.696
		c9.217,0,16.696,7.473,16.696,16.696v33.391C378.435,98.266,370.956,105.739,361.739,105.739z"/>
	<path style="fill:#2B9FD9;" d="M495.304,205.913h-33.391c-9.217,0-16.696-7.473-16.696-16.696s7.479-16.696,16.696-16.696h33.391
		c9.217,0,16.696,7.473,16.696,16.696S504.521,205.913,495.304,205.913z"/>
	<path style="fill:#2B9FD9;" d="M432.577,135.081c-4.272,0-8.544-1.631-11.804-4.892c-6.521-6.516-6.521-17.087,0-23.609
		l23.609-23.614c6.521-6.521,17.087-6.521,23.609,0c6.521,6.516,6.521,17.087,0,23.609l-23.609,23.614
		C441.119,133.451,436.847,135.081,432.577,135.081z"/>
</g>
<path style="fill:#6B7A99;" d="M256,372.87c-27.619,0-50.087-22.468-50.087-50.087s22.468-50.087,50.087-50.087
	s50.087,22.468,50.087,50.087S283.619,372.87,256,372.87z"/>
<path style="fill:#5A6680;" d="M306.087,322.783c0-27.619-22.468-50.087-50.087-50.087V372.87
	C283.619,372.87,306.087,350.402,306.087,322.783z"/>
</svg>