<?xml version="1.0" encoding="iso-8859-1"?>
<!-- Uploaded to: SVG Repo, www.svgrepo.com, Generator: SVG Repo Mixer Tools -->
<svg fill="#000000" height="800px" width="800px" version="1.1" id="Layer_1" xmlns="http://www.w3.org/2000/svg" xmlns:xlink="http://www.w3.org/1999/xlink" 
	 viewBox="0 0 512 512" xml:space="preserve">
<g>
	<g>
		<path d="M445.174,299.779c-2.488-2.392-6.158-3.077-9.344-1.739c-22.145,9.292-45.435,14.938-69.356,16.843v-65.14
			c6.588-2.721,12.864-6.136,18.71-10.207c16.721-11.602,29.315-27.806,36.42-46.861c1.206-3.233,0.375-6.874-2.114-9.264
			c-2.488-2.391-6.157-3.076-9.342-1.74c-24.964,10.468-51.21,16.29-78.118,17.379V156.12c0-4.779-3.874-8.654-8.654-8.654
			c-4.781,0-8.654,3.875-8.654,8.654v43.132H197.269v-60.751c6.472,1.31,13.069,1.972,19.721,1.972h78.013
			c10.608,0,21.066-1.677,31.084-4.981c9.075-2.992,17.671-7.283,25.545-12.753c16.697-11.593,29.284-27.791,36.404-46.842
			c1.209-3.233,0.38-6.876-2.109-9.269c-2.489-2.392-6.161-3.076-9.345-1.741c-21.859,9.17-44.856,14.8-68.441,16.772L263.496,4.327
			C261.949,1.65,259.094,0,256.001,0c-3.092,0-5.948,1.649-7.494,4.327l-44.653,77.33c-8.599-0.721-17.2-1.934-25.635-3.634
			c-14.664-2.953-29.063-7.372-42.796-13.135c-3.188-1.336-6.854-0.652-9.344,1.739c-2.49,2.391-3.32,6.032-2.114,9.266
			c9.841,26.388,30.059,47.018,55.994,57.422v65.734c-11.826-0.486-23.666-1.891-35.302-4.228
			c-14.664-2.964-29.064-7.388-42.804-13.15c-3.186-1.335-6.854-0.65-9.343,1.74c-2.488,2.391-3.319,6.032-2.113,9.266
			c9.721,26.055,29.625,46.559,55.119,57.07v65.145c-8.928-0.714-17.824-1.958-26.551-3.716
			c-14.639-2.948-29.039-7.368-42.799-13.136c-3.182-1.335-6.853-0.651-9.341,1.74c-2.489,2.391-3.32,6.03-2.114,9.263
			c8.625,23.14,25.89,42.421,47.815,53.673v140.629c0,4.779,3.874,8.654,8.654,8.654h74.172h42.694h35.908h42.694h74.183
			c4.781,0,8.654-3.875,8.654-8.654v-49.721c0-4.779-3.874-8.654-8.654-8.654s-8.654,3.875-8.654,8.654v41.067h-19.268V373.247
			c6.547-0.567,12.985-1.77,19.269-3.616v55.147c0,4.779,3.874,8.654,8.654,8.654s8.654-3.875,8.654-8.654v-62.074
			c3.946-2.022,7.766-4.291,11.384-6.81c16.719-11.601,29.311-27.8,36.419-46.848C448.494,305.812,447.663,302.17,445.174,299.779z
			 M256,25.962l32.614,56.494h-65.236L256,25.962z M150.118,88.66c8.106,2.537,16.356,4.654,24.684,6.33
			c10.951,2.207,22.16,3.665,33.302,4.332c4.789,0.294,9.724,0.443,14.666,0.443h66.452c4.941,0,9.876-0.149,14.653-0.443
			c19.766-1.187,39.18-4.755,57.966-10.639c-5.449,7.673-12.214,14.375-20.083,19.84c-6.504,4.52-13.601,8.062-21.091,10.53
			c-0.001,0-0.002,0-0.002,0c-8.266,2.728-16.9,4.111-25.662,4.111h-78.014c-8.751,0-17.387-1.384-25.661-4.11
			C174.428,113.475,160.116,102.791,150.118,88.66z M116.56,205.446c8.104,2.537,16.352,4.658,24.679,6.341
			c15.6,3.132,31.532,4.738,47.375,4.774h134.785c24.609-0.065,48.745-3.787,72.017-11.089
			c-5.452,7.674-12.224,14.381-20.111,19.854c-6.242,4.348-13.064,7.797-20.275,10.252c-0.002,0.001-0.006,0.001-0.008,0.002
			c-8.51,2.908-17.411,4.381-26.454,4.381H183.422c-9.055,0-17.953-1.474-26.456-4.382
			C140.431,229.935,126.405,219.35,116.56,205.446z M306.195,267.077c-13.679,0-24.808,11.129-24.808,24.808v23.724h-50.771v-23.724
			c0-13.679-11.129-24.808-24.808-24.808s-24.808,11.129-24.808,24.808v23.724h-17.481c-0.233,0-0.459-0.006-0.692-0.007v-60.49
			c6.742,1.43,13.632,2.157,20.597,2.157h145.147c6.959,0,13.85-0.728,20.598-2.159v60.492c-0.233,0-0.459,0.007-0.694,0.007h-17.47
			v-23.724C331.003,278.206,319.874,267.077,306.195,267.077z M313.695,291.886v23.724h-15v-23.724c0-4.135,3.365-7.5,7.5-7.5
			C310.33,284.385,313.695,287.75,313.695,291.886z M213.308,291.886v23.724h-15v-23.724c0-4.135,3.365-7.5,7.5-7.5
			C209.943,284.385,213.308,287.75,213.308,291.886z M149.083,494.692h-19.247V369.642c6.273,1.842,12.702,3.042,19.247,3.606
			V494.692z M229.393,494.692h-25.385v-79.918h25.385V494.692z M307.994,494.692h-25.385v-79.918h25.385V494.692z M400.994,341.68
			c-4.279,2.977-8.873,5.556-13.656,7.668c-10.483,4.626-21.615,6.972-33.084,6.972H207.538c-4.781,0-8.654,3.875-8.654,8.654
			c0,4.779,3.874,8.654,8.654,8.654H345.6v121.065h-20.298v-88.572c0-4.779-3.874-8.654-8.654-8.654h-42.694
			c-4.781,0-8.654,3.875-8.654,8.654v88.572h-18.599v-88.572c0-4.779-3.874-8.654-8.654-8.654h-42.694
			c-4.781,0-8.654,3.875-8.654,8.654v88.572h-20.308V373.627h12.3c4.781,0,8.654-3.875,8.654-8.654c0-4.779-3.874-8.654-8.654-8.654
			h-20.954c-11.482,0-22.605-2.341-33.06-6.96c-13.552-5.981-25.209-15.595-33.719-27.519c8.084,2.527,16.303,4.635,24.593,6.304
			c12.553,2.527,25.43,4.069,38.27,4.582c3.13,0.127,6.394,0.193,9.697,0.193h26.135h32.309h68.079h32.309h26.124
			c3.305,0,6.568-0.065,9.693-0.192c21.5-0.861,42.582-4.514,62.93-10.889C415.645,329.507,408.876,336.211,400.994,341.68z"/>
	</g>
</g>
<g>
	<g>
		<path d="M256.001,144.766c-13.679,0-24.808,11.129-24.808,24.808s11.129,24.808,24.808,24.808
			c13.679,0,24.808-11.129,24.808-24.808S269.68,144.766,256.001,144.766z M256.001,177.075c-4.135,0-7.5-3.365-7.5-7.5
			s3.365-7.5,7.5-7.5c4.135,0,7.5,3.365,7.5,7.5S260.137,177.075,256.001,177.075z"/>
	</g>
</g>
</svg>