<?xml version="1.0" encoding="iso-8859-1"?>
<!-- Uploaded to: SVG Repo, www.svgrepo.com, Generator: SVG Repo Mixer Tools -->
<svg height="800px" width="800px" version="1.1" id="Layer_1" xmlns="http://www.w3.org/2000/svg" xmlns:xlink="http://www.w3.org/1999/xlink" 
	 viewBox="0 0 512 512" xml:space="preserve">
<g>
	<polygon style="fill:#E09B2D;" points="327.533,380.107 255.923,504.135 184.313,380.107 159.856,337.74 137.169,298.445 
		161.625,256.078 208.779,337.74 233.235,380.107 255.923,419.402 278.61,380.107 	"/>
	<polygon style="fill:#E09B2D;" points="470.742,132.05 399.132,256.078 374.676,298.445 351.989,337.74 303.066,337.74 
		350.22,256.078 374.676,213.712 397.363,174.417 351.989,174.417 327.533,132.05 	"/>
	<polygon style="fill:#E09B2D;" points="278.61,132.05 303.066,174.417 208.779,174.417 159.856,174.417 114.482,174.417 
		137.169,213.712 112.702,256.078 41.092,132.05 184.313,132.05 233.235,132.05 	"/>
</g>
<g>
	<polygon style="fill:#F7B239;" points="399.132,256.078 470.742,380.107 327.533,380.107 278.61,380.107 233.235,380.107 
		208.779,337.74 303.066,337.74 351.989,337.74 397.363,337.74 374.676,298.445 	"/>
	<polygon style="fill:#F7B239;" points="351.989,174.417 374.676,213.712 350.22,256.078 303.066,174.417 278.61,132.05 
		255.923,92.755 233.235,132.05 184.313,132.05 255.923,8.022 327.533,132.05 	"/>
	<polygon style="fill:#F7B239;" points="208.779,174.417 161.625,256.078 137.169,298.445 114.482,337.74 159.856,337.74 
		184.313,380.107 41.092,380.107 112.702,256.078 137.169,213.712 159.856,174.417 	"/>
</g>
<path d="M408.389,256.003l69.315-120.059c1.419-2.457,1.419-5.485,0-7.944c-1.419-2.458-4.041-3.972-6.879-3.972h-34.2
	c-4.388,0-7.944,3.557-7.944,7.944s3.556,7.944,7.944,7.944h20.442L347.485,329.718h-30.578l87.418-151.408
	c1.419-2.457,1.419-5.486,0-7.944c-1.419-2.457-4.041-3.972-6.879-3.972h-40.787l-15.288-26.479h68.775
	c4.388,0,7.944-3.557,7.944-7.944c0-4.387-3.556-7.944-7.944-7.944h-77.947L262.885,3.972C261.465,1.514,258.844,0,256.005,0
	c-2.839,0-5.46,1.514-6.879,3.972l-69.317,120.056H41.175c-2.839,0-5.46,1.514-6.879,3.972c-1.419,2.458-1.419,5.486,0,7.944
	l69.318,120.057l-28.099,48.662c-2.194,3.799-0.892,8.658,2.907,10.851c1.251,0.722,2.617,1.066,3.964,1.066
	c2.745,0,5.414-1.425,6.887-3.973l75.252-130.325h30.578L107.685,333.69c-1.419,2.457-1.419,5.486,0,7.944s4.041,3.972,6.879,3.972
	h40.787l15.288,26.479H54.934l18.567-32.158c2.194-3.799,0.892-8.658-2.907-10.851c-3.798-2.195-8.659-0.893-10.851,2.907
	l-25.446,44.074c-1.419,2.457-1.419,5.486,0,7.944c1.419,2.457,4.041,3.972,6.879,3.972h138.637l69.314,120.056
	c1.419,2.458,4.041,3.972,6.879,3.972c2.839,0,5.46-1.514,6.879-3.972l69.317-120.056h138.623c2.839,0,5.46-1.515,6.879-3.972
	c1.419-2.458,1.419-5.486,0-7.944L408.389,256.003z M374.759,314.253l8.929,15.465h-17.856L374.759,314.253z M383.688,182.282
	l-8.929,15.464l-8.928-15.464H383.688z M54.934,139.916h219.173l15.288,26.479h-174.83c-2.839,0-5.46,1.515-6.879,3.972
	c-1.419,2.457-1.419,5.486,0,7.944l20.393,35.321l-15.292,26.483L54.934,139.916z M247.078,124.028l8.928-15.464l8.928,15.464
	H247.078z M137.251,197.745l-8.928-15.463h17.856L137.251,197.745z M298.567,182.282l30.858,53.448
	c1.472,2.548,4.141,3.973,6.887,3.973c1.347,0,2.715-0.344,3.964-1.066c3.8-2.194,5.101-7.053,2.907-10.852l-80.298-139.08
	c-1.419-2.458-4.041-3.972-6.879-3.972c-2.839,0-5.46,1.514-6.879,3.972l-20.394,35.323h-30.578l57.852-100.197l109.581,189.802
	l-67.024,116.084h-85.12l-42.559-73.714l42.566-73.722L298.567,182.282L298.567,182.282z M128.323,329.718l8.929-15.464
	l8.928,15.464H128.323z M256.005,488.17L146.424,298.368l15.286-26.475l87.416,151.402c1.419,2.457,4.041,3.972,6.879,3.972
	c2.839,0,5.46-1.515,6.879-3.972l20.394-35.323h30.578L256.005,488.17z M247.077,387.972h17.856l-8.928,15.464L247.077,387.972z
	 M237.904,372.084l-15.288-26.479h174.83c2.839,0,5.46-1.515,6.879-3.972c1.419-2.457,1.419-5.486,0-7.944l-20.394-35.324
	l15.286-26.476l57.849,100.194H237.904V372.084z"/>
</svg>