<?xml version="1.0" encoding="iso-8859-1"?>
<!-- Uploaded to: SVG Repo, www.svgrepo.com, Generator: SVG Repo Mixer Tools -->
<svg fill="#000000" height="800px" width="800px" version="1.1" id="Layer_1" xmlns="http://www.w3.org/2000/svg" xmlns:xlink="http://www.w3.org/1999/xlink" 
	 viewBox="0 0 512 512" xml:space="preserve">
<g>
	<g>
		<path d="M496.348,245.899c-6.234-2.595-13.425-1.164-18.213,3.623c-18.398,18.397-42.854,28.525-68.866,28.525h-36.294v-79.318
			C429.57,190.576,473.24,141.9,473.24,83.088c0-6.761-4.068-12.854-10.314-15.437c-6.223-2.6-13.425-1.159-18.213,3.623
			c-18.397,18.397-42.854,28.525-68.866,28.525h-44.062L269.903,6.976c-6.201-9.302-21.607-9.302-27.808,0l-61.882,92.823h-44.062
			c-26.013,0-50.47-10.129-68.866-28.525c-4.787-4.782-11.967-6.212-18.213-3.623c-6.244,2.583-10.314,8.676-10.314,15.437
			c0,19.3,4.798,38.426,13.882,55.311c17.766,33.06,49.942,55.186,86.383,60.424v79.225H102.73
			c-26.013,0-50.47-10.129-68.866-28.525c-4.776-4.787-11.978-6.206-18.213-3.623c-6.244,2.583-10.314,8.676-10.314,15.437
			c0,19.3,4.798,38.426,13.882,55.31c17.766,33.06,49.942,55.186,86.383,60.424v118.217c0,9.231,7.485,16.711,16.711,16.711h66.843
			v-83.554c0-9.231,7.485-16.711,16.711-16.711c9.225,0,16.711,7.48,16.711,16.711V512h66.843v-83.554
			c0-9.231,7.485-16.711,16.711-16.711s16.711,7.48,16.711,16.711V512h66.843c9.225,0,16.711-7.48,16.711-16.711v-118.31
			c56.595-8.153,100.265-56.829,100.265-115.641C506.662,254.575,502.593,248.482,496.348,245.899z M82.082,122.575v-0.006
			c-0.228-0.424-0.457-0.854-0.674-1.278c16.939,7.812,35.533,11.929,54.746,11.929h239.695c19.202,0,37.773-4.108,54.702-11.913
			c-13.893,26.904-41.973,45.334-74.285,45.334h-200.53C124.902,166.643,96.681,149.757,82.082,122.575z M272.711,250.197v27.851
			h-33.422v-27.851c0-9.231,7.485-16.711,16.711-16.711C265.225,233.486,272.711,240.965,272.711,250.197z M389.686,344.893H122.313
			c-30.833,0-59.054-16.885-73.653-44.067v-0.006c-0.228-0.424-0.457-0.854-0.674-1.278c16.939,7.812,35.533,11.929,54.746,11.929
			h153.269H409.27c19.202,0,37.773-4.108,54.702-11.913C450.078,326.463,421.998,344.893,389.686,344.893z"/>
	</g>
</g>
</svg>