<?xml version="1.0" encoding="iso-8859-1"?>
<!-- Uploaded to: SVG Repo, www.svgrepo.com, Generator: SVG Repo Mixer Tools -->
<svg version="1.1" id="Layer_1" xmlns="http://www.w3.org/2000/svg" xmlns:xlink="http://www.w3.org/1999/xlink" 
	 viewBox="0 0 512 512" xml:space="preserve">
<polygon style="fill:#B27214;" points="277.355,164.842 282.35,247.326 229.65,247.326 234.645,164.842 "/>
<rect x="83.367" y="239.149" style="fill:#E54728;" width="345.266" height="30.33"/>
<g>
	<rect x="361.497" y="156.769" style="fill:#F7B239;" width="40.106" height="303.229"/>
	<rect x="110.397" y="156.769" style="fill:#F7B239;" width="40.106" height="303.229"/>
</g>
<g>
	<rect x="110.397" y="156.769" style="fill:#E09B2D;" width="40.106" height="40.993"/>
	<rect x="361.497" y="156.769" style="fill:#E09B2D;" width="40.106" height="40.993"/>
</g>
<path style="fill:#F7B239;" d="M428.633,129.375v43.698H83.367v-43.698C94.648,132.653,417.341,132.653,428.633,129.375z"/>
<path style="fill:#E09B2D;" d="M428.633,129.375v10.102c-11.292,3.278-23.157,5.018-35.313,5.018H118.681
	c-12.168,0-24.032-1.74-35.313-5.018v-10.102C94.648,132.653,417.341,132.653,428.633,129.375z"/>
<path style="fill:#F95428;" d="M83.367,129.375C45.562,118.408,14.233,90.155,0,52.002c20.07,8.407,40.881,14.783,62.107,19.06
	c21.237,4.277,42.879,6.443,64.644,6.443h258.498c43.53,0,86.611-8.677,126.751-25.503c-9.249,24.773-25.694,45.371-46.449,59.772
	c-11.202,7.779-23.662,13.762-36.919,17.589v0.011c-11.292,3.278-23.157,5.018-35.313,5.018H118.681
	C106.513,134.393,94.648,132.653,83.367,129.375z"/>
</svg>