<?xml version="1.0" encoding="iso-8859-1"?>
<!-- Uploaded to: SVG Repo, www.svgrepo.com, Generator: SVG Repo Mixer Tools -->
<svg fill="#000000" height="800px" width="800px" version="1.1" id="Layer_1" xmlns="http://www.w3.org/2000/svg" xmlns:xlink="http://www.w3.org/1999/xlink" 
	 viewBox="0 0 512 512" xml:space="preserve">
<g>
	<g>
		<path d="M272.037,33.765h-32.073c-4.661,0-8.44,3.779-8.44,8.44s3.779,8.44,8.44,8.44h32.073c4.661,0,8.44-3.779,8.44-8.44
			S276.698,33.765,272.037,33.765z"/>
	</g>
</g>
<g>
	<g>
		<path d="M272.037,64.15h-32.073c-4.661,0-8.44,3.779-8.44,8.44s3.779,8.44,8.44,8.44h32.073c4.661,0,8.44-3.779,8.44-8.44
			S276.698,64.15,272.037,64.15z"/>
	</g>
</g>
<g>
	<g>
		<path d="M394.845,163.864c-4.661,0-8.44,3.779-8.44,8.44v32.073c0,4.661,3.779,8.44,8.44,8.44s8.44-3.778,8.44-8.44v-32.073
			C403.285,167.643,399.506,163.864,394.845,163.864z"/>
	</g>
</g>
<g>
	<g>
		<path d="M364.46,163.864c-4.661,0-8.44,3.779-8.44,8.44v32.073c0,4.661,3.779,8.44,8.44,8.44c4.661,0,8.44-3.778,8.44-8.44
			v-32.073C372.901,167.643,369.122,163.864,364.46,163.864z"/>
	</g>
</g>
<g>
	<g>
		<path d="M147.551,163.864c-4.661,0-8.44,3.779-8.44,8.44v32.073c0,4.661,3.779,8.44,8.44,8.44c4.661,0,8.44-3.778,8.44-8.44
			v-32.073C155.991,167.643,152.212,163.864,147.551,163.864z"/>
	</g>
</g>
<g>
	<g>
		<path d="M117.166,163.864c-4.661,0-8.44,3.779-8.44,8.44v32.073c0,4.663,3.779,8.44,8.44,8.44c4.661,0,8.44-3.779,8.44-8.44
			v-32.073C125.607,167.643,121.828,163.864,117.166,163.864z"/>
	</g>
</g>
<g>
	<g>
		<path d="M272.036,281.904h-32.073c-4.661,0-8.44,3.779-8.44,8.44c0,4.661,3.779,8.44,8.44,8.44h32.073
			c4.661,0,8.44-3.779,8.44-8.44C280.476,285.683,276.697,281.904,272.036,281.904z"/>
	</g>
</g>
<g>
	<g>
		<path d="M272.036,315.777h-32.073c-4.661,0-8.44,3.779-8.44,8.44c0,4.661,3.779,8.44,8.44,8.44h32.073
			c4.661,0,8.44-3.779,8.44-8.44C280.476,319.556,276.697,315.777,272.036,315.777z"/>
	</g>
</g>
<g>
	<g>
		<path d="M272.036,349.649h-32.073c-4.661,0-8.44,3.779-8.44,8.44c0,4.661,3.779,8.44,8.44,8.44h32.073
			c4.661,0,8.44-3.779,8.44-8.44C280.476,353.428,276.697,349.649,272.036,349.649z"/>
	</g>
</g>
<g>
	<g>
		<path d="M272.036,383.522h-32.073c-4.661,0-8.44,3.779-8.44,8.44c0,4.661,3.779,8.44,8.44,8.44h32.073
			c4.661,0,8.44-3.779,8.44-8.44C280.476,387.301,276.697,383.522,272.036,383.522z"/>
	</g>
</g>
<g>
	<g>
		<path d="M272.036,417.396h-32.073c-4.661,0-8.44,3.779-8.44,8.44s3.779,8.44,8.44,8.44h32.073c4.661,0,8.44-3.779,8.44-8.44
			S276.697,417.396,272.036,417.396z"/>
	</g>
</g>
<g>
	<g>
		<path d="M272.036,451.268h-32.073c-4.661,0-8.44,3.779-8.44,8.44c0,4.661,3.779,8.44,8.44,8.44h32.073
			c4.661,0,8.44-3.779,8.44-8.44C280.476,455.047,276.697,451.268,272.036,451.268z"/>
	</g>
</g>
<g>
	<g>
		<path d="M427.758,128.667h-50.537c-12.738-27.62-34.311-49.864-61.541-63.457V8.44c0-4.661-3.779-8.44-8.44-8.44H204.772
			c-4.661,0-8.44,3.779-8.44,8.44v56.77c-27.237,13.59-48.813,35.836-61.552,63.457h-11.573c-4.661,0-8.44,3.779-8.44,8.44
			c0,4.661,3.779,8.44,8.44,8.44h45.445c3.487,16.78,18.382,29.429,36.177,29.429c20.379,0,36.958-16.579,36.958-36.958
			c0-17.477-12.203-32.161-28.574-35.98V16.881h85.587v85.148c-16.36,3.802-28.585,18.496-28.585,35.99
			c0,20.379,16.579,36.958,36.958,36.958c17.794,0,32.691-12.649,36.177-29.429h75.969v85.587h-76.254
			c-3.943-16.153-18.592-28.214-35.892-28.214c-20.379,0-36.958,16.575-36.958,36.947c0,17.484,12.205,32.172,28.585,35.991v82.856
			c0,4.661,3.779,8.44,8.44,8.44c4.661,0,8.44-3.779,8.44-8.44V304.1c24.54-12.277,44.8-31.922,57.84-56.083h54.239
			c4.661,0,8.44-3.779,8.44-8.44V137.108C436.199,132.446,432.42,128.667,427.758,128.667z M224.905,138.019
			c0,11.071-9.007,20.077-20.077,20.077c-11.065,0-20.066-9.007-20.066-20.077c0-0.111-0.002-0.222,0-0.287
			c0.173-2.341-0.635-4.648-2.232-6.367c-1.597-1.72-3.839-2.696-6.185-2.696h-22.656c10.01-18.336,24.681-33.541,42.644-44.212
			v25.057c0,4.661,3.835,8.44,8.497,8.44C215.899,117.953,224.905,126.955,224.905,138.019z M335.656,128.667
			c-2.346,0-4.589,0.955-6.186,2.674c-1.597,1.72-2.407,4.005-2.234,6.345c0.005,0.111,0.002,0.222,0.002,0.332
			c0,11.07-9.002,20.077-20.066,20.077c-11.071,0-20.077-9.007-20.077-20.077c0-11.065,9.007-20.066,20.145-20.066
			c4.661,0,8.44-3.779,8.44-8.44V84.457c17.957,10.671,32.624,25.876,42.632,44.21H335.656z M315.68,284.845v-16.46
			c0-4.661-3.847-8.44-8.508-8.44c-11.071,0-20.077-9.007-20.077-20.077c0-11.065,9.007-20.066,20.077-20.066
			c10.956,0,19.952,8.906,20.055,19.853c0.044,4.63,3.809,8.362,8.44,8.362h18.235C344.159,263.047,331.058,275.669,315.68,284.845z
			"/>
	</g>
</g>
<g>
	<g>
		<path d="M307.239,378.41c-4.661,0-8.44,3.779-8.44,8.44v108.27h-85.587V275.867c16.353-3.808,28.574-18.504,28.574-35.999
			c0-20.373-16.579-36.947-36.958-36.947c-17.301,0-31.948,12.062-35.892,28.214H92.682v-85.587h2.389c4.661,0,8.44-3.779,8.44-8.44
			c0-4.661-3.779-8.44-8.44-8.44h-10.83c-4.661,0-8.44,3.779-8.44,8.44v102.468c0,4.661,3.779,8.44,8.44,8.44h54.239
			c13.044,24.17,33.307,43.815,57.851,56.084v199.46c0,4.661,3.779,8.44,8.44,8.44h102.468c4.661,0,8.44-3.779,8.44-8.44V386.85
			C315.68,382.189,311.901,378.41,307.239,378.41z M196.331,268.384v16.465c-15.382-9.172-28.487-21.794-38.233-36.833h18.235
			c4.631,0,8.397-3.731,8.44-8.362c0.102-10.947,9.099-19.853,20.055-19.853c11.071,0,20.077,9.002,20.077,20.066
			c0,11.071-9.007,20.077-20.133,20.077C200.11,259.943,196.331,263.722,196.331,268.384z"/>
	</g>
</g>
</svg>