<?xml version="1.0" encoding="iso-8859-1"?>
<!-- Uploaded to: SVG Repo, www.svgrepo.com, Generator: SVG Repo Mixer Tools -->
<svg fill="#000000" height="800px" width="800px" version="1.1" id="Layer_1" xmlns="http://www.w3.org/2000/svg" xmlns:xlink="http://www.w3.org/1999/xlink" 
	 viewBox="0 0 512 512" xml:space="preserve">
<g>
	<g>
		<path d="M256.003,99.908c-86.069,0-156.09,70.021-156.09,156.09s70.021,156.09,156.09,156.09c0.348,0,0.691-0.027,1.029-0.067
			c0.287,0.029,0.578,0.044,0.872,0.044c0.037,0,0.075,0,0.113-0.001c41.27-0.526,79.986-16.992,109.016-46.366
			c29.058-29.401,45.06-68.36,45.06-109.7C412.093,169.93,342.071,99.908,256.003,99.908z M302.565,375.173
			c-11.916,12.203-27.854,19.162-44.878,19.596c-0.281,0.007-0.559,0.03-0.833,0.063c-0.28-0.028-0.563-0.043-0.85-0.043
			c-76.528,0-138.79-62.261-138.79-138.79c0-52.23,29.006-97.807,71.75-121.489c-9.636,13.485-15.33,29.969-15.33,47.769
			c0,45.419,36.951,82.37,82.37,82.37c35.88,0,65.07,29.19,65.07,65.07C321.073,346.806,314.5,362.949,302.565,375.173z
			 M354.728,353.538c-9.492,9.605-20.151,17.658-31.657,24.026c9.937-13.878,15.302-30.475,15.302-47.845
			c0-45.419-36.951-82.37-82.37-82.37c-35.88,0-65.07-29.19-65.07-65.07c0-35.88,29.19-65.07,65.07-65.07
			c76.528,0,138.79,62.261,138.79,138.79C394.793,292.756,380.565,327.396,354.728,353.538z"/>
	</g>
</g>
<g>
	<g>
		<path d="M256.003,291.209c-21.234,0-38.509,17.276-38.509,38.509c0,21.234,17.276,38.509,38.509,38.509
			s38.509-17.276,38.509-38.509C294.513,308.485,277.238,291.209,256.003,291.209z M256.003,350.928
			c-11.695,0-21.209-9.515-21.209-21.21s9.515-21.209,21.209-21.209s21.209,9.515,21.209,21.209
			C277.214,341.414,267.699,350.928,256.003,350.928z"/>
	</g>
</g>
<g>
	<g>
		<path d="M256.003,143.781c-21.234,0-38.509,17.27-38.509,38.498c0,21.234,17.276,38.509,38.509,38.509
			s38.509-17.276,38.509-38.509C294.513,161.051,277.238,143.781,256.003,143.781z M256.003,203.488
			c-11.695,0-21.209-9.515-21.209-21.209c0-11.689,9.515-21.198,21.209-21.198s21.209,9.509,21.209,21.198
			C277.214,193.974,267.699,203.488,256.003,203.488z"/>
	</g>
</g>
<g>
	<g>
		<path d="M284.867,62.57h-57.732c-4.777,0-8.65,3.873-8.65,8.65s3.873,8.65,8.65,8.65h57.732c4.777,0,8.65-3.873,8.65-8.65
			S289.644,62.57,284.867,62.57z"/>
	</g>
</g>
<g>
	<g>
		<path d="M284.867,0h-57.732c-4.777,0-8.65,3.873-8.65,8.65s3.873,8.65,8.65,8.65h57.732c4.777,0,8.65-3.873,8.65-8.65
			S289.644,0,284.867,0z"/>
	</g>
</g>
<g>
	<g>
		<path d="M284.867,31.285h-57.732c-4.777,0-8.65,3.873-8.65,8.65s3.873,8.65,8.65,8.65h57.732c4.777,0,8.65-3.873,8.65-8.65
			S289.644,31.285,284.867,31.285z"/>
	</g>
</g>
<g>
	<g>
		<path d="M284.87,494.7h-13.229c-4.777,0-8.65,3.873-8.65,8.65s3.873,8.65,8.65,8.65h13.229c4.777,0,8.65-3.873,8.65-8.65
			S289.647,494.7,284.87,494.7z"/>
	</g>
</g>
<g>
	<g>
		<path d="M240.354,494.7h-13.217c-4.777,0-8.65,3.873-8.65,8.65s3.873,8.65,8.65,8.65h13.217c4.777,0,8.65-3.873,8.65-8.65
			S245.131,494.7,240.354,494.7z"/>
	</g>
</g>
<g>
	<g>
		<path d="M284.87,432.132h-13.229c-4.777,0-8.65,3.873-8.65,8.65s3.873,8.65,8.65,8.65h13.229c4.777,0,8.65-3.873,8.65-8.65
			S289.647,432.132,284.87,432.132z"/>
	</g>
</g>
<g>
	<g>
		<path d="M240.354,432.132h-13.217c-4.777,0-8.65,3.873-8.65,8.65s3.873,8.65,8.65,8.65h13.217c4.777,0,8.65-3.873,8.65-8.65
			S245.131,432.132,240.354,432.132z"/>
	</g>
</g>
<g>
	<g>
		<path d="M284.87,463.41h-13.229c-4.777,0-8.65,3.873-8.65,8.65s3.873,8.65,8.65,8.65h13.229c4.777,0,8.65-3.873,8.65-8.65
			S289.647,463.41,284.87,463.41z"/>
	</g>
</g>
<g>
	<g>
		<path d="M240.354,463.41h-13.217c-4.777,0-8.65,3.873-8.65,8.65s3.873,8.65,8.65,8.65h13.217c4.777,0,8.65-3.873,8.65-8.65
			S245.131,463.41,240.354,463.41z"/>
	</g>
</g>
<g>
	<g>
		<path d="M76.721,85.476c-3.378-3.378-8.855-3.378-12.232,0l-9.917,9.917c-3.378,3.378-3.378,8.854,0,12.232
			c1.688,1.69,3.902,2.534,6.116,2.534c2.213,0,4.428-0.844,6.116-2.534l9.917-9.917C80.099,94.33,80.099,88.854,76.721,85.476z"/>
	</g>
</g>
<g>
	<g>
		<path d="M107.625,54.569c-3.378-3.378-8.855-3.378-12.232,0l-9.929,9.93c-3.378,3.378-3.378,8.855,0,12.233
			c1.688,1.69,3.903,2.534,6.116,2.534s4.428-0.844,6.116-2.534l9.929-9.93C111.003,63.424,111.003,57.947,107.625,54.569z"/>
	</g>
</g>
<g>
	<g>
		<path d="M151.869,98.815c-3.378-3.378-8.855-3.378-12.232,0l-40.823,40.823c-3.378,3.377-3.378,8.854,0,12.232
			c1.688,1.69,3.903,2.534,6.116,2.534c2.213,0,4.428-0.844,6.116-2.534l40.823-40.823
			C155.247,107.669,155.247,102.193,151.869,98.815z"/>
	</g>
</g>
<g>
	<g>
		<path d="M129.748,76.693c-3.378-3.378-8.855-3.378-12.232,0l-40.823,40.823c-3.378,3.377-3.378,8.854,0,12.232
			c1.688,1.69,3.903,2.534,6.116,2.534c2.213,0,4.428-0.844,6.116-2.534l40.823-40.823
			C133.126,85.547,133.126,80.071,129.748,76.693z"/>
	</g>
</g>
<g>
	<g>
		<path d="M381.719,391.602c-3.378-3.378-8.855-3.378-12.232,0l-9.353,9.353c-3.378,3.378-3.378,8.855,0,12.233
			c1.688,1.688,3.903,2.534,6.116,2.534c2.213,0,4.428-0.844,6.116-2.534l9.353-9.353
			C385.097,400.456,385.097,394.98,381.719,391.602z"/>
	</g>
</g>
<g>
	<g>
		<path d="M413.19,360.131c-3.377-3.378-8.854-3.378-12.232,0l-9.346,9.345c-3.378,3.378-3.378,8.855,0,12.233
			c1.688,1.69,3.903,2.534,6.116,2.534c2.213,0,4.428-0.844,6.116-2.534l9.346-9.345
			C416.568,368.986,416.568,363.509,413.19,360.131z"/>
	</g>
</g>
<g>
	<g>
		<path d="M457.434,404.374c-3.377-3.378-8.854-3.378-12.232,0l-40.823,40.823c-3.378,3.378-3.378,8.854,0,12.232
			c1.688,1.69,3.903,2.534,6.116,2.534c2.213,0,4.428-0.844,6.116-2.534l40.823-40.823
			C460.812,413.228,460.812,407.752,457.434,404.374z"/>
	</g>
</g>
<g>
	<g>
		<path d="M403.844,413.727c-3.378-3.378-8.855-3.378-12.232,0l-9.353,9.353c-3.378,3.378-3.378,8.854,0,12.232
			c1.688,1.69,3.903,2.534,6.116,2.534c2.213,0,4.428-0.844,6.116-2.534l9.353-9.353
			C407.222,422.582,407.222,417.105,403.844,413.727z"/>
	</g>
</g>
<g>
	<g>
		<path d="M435.315,382.255c-3.378-3.378-8.855-3.378-12.232,0l-9.345,9.345c-3.378,3.378-3.378,8.855,0,12.233
			c1.688,1.69,3.902,2.534,6.116,2.534c2.213,0,4.428-0.844,6.116-2.534l9.345-9.345
			C438.693,391.11,438.693,385.633,435.315,382.255z"/>
	</g>
</g>
<g>
	<g>
		<path d="M413.187,139.634l-9.917-9.917c-3.378-3.378-8.855-3.378-12.232,0c-3.378,3.378-3.378,8.854,0,12.232l9.917,9.917
			c1.688,1.69,3.903,2.534,6.116,2.534c2.213,0,4.428-0.844,6.116-2.534C416.566,148.488,416.566,143.012,413.187,139.634z"/>
	</g>
</g>
<g>
	<g>
		<path d="M382.295,108.74l-9.929-9.93c-3.377-3.378-8.854-3.378-12.232,0c-3.378,3.378-3.378,8.855,0,12.233l9.929,9.93
			c1.688,1.69,3.903,2.534,6.116,2.534c2.213,0,4.428-0.844,6.116-2.534C385.673,117.596,385.673,112.119,382.295,108.74z"/>
	</g>
</g>
<g>
	<g>
		<path d="M457.431,95.391l-40.823-40.823c-3.378-3.378-8.855-3.378-12.232,0c-3.378,3.378-3.378,8.855,0,12.232l40.823,40.823
			c1.688,1.69,3.903,2.534,6.116,2.534c2.213,0,4.428-0.844,6.116-2.534C460.809,104.245,460.809,98.768,457.431,95.391z"/>
	</g>
</g>
<g>
	<g>
		<path d="M435.309,117.513L394.486,76.69c-3.377-3.378-8.854-3.378-12.232,0c-3.378,3.378-3.378,8.854,0,12.232l40.823,40.823
			c1.688,1.69,3.903,2.534,6.116,2.534c2.213,0,4.428-0.844,6.116-2.534C438.687,126.367,438.687,120.891,435.309,117.513z"/>
	</g>
</g>
<g>
	<g>
		<path d="M107.629,445.199l-9.353-9.353c-3.378-3.378-8.855-3.377-12.232,0c-3.378,3.378-3.378,8.855,0,12.233l9.353,9.353
			c1.688,1.69,3.903,2.534,6.116,2.534s4.428-0.844,6.116-2.534C111.007,454.054,111.007,448.577,107.629,445.199z"/>
	</g>
</g>
<g>
	<g>
		<path d="M76.15,413.72l-9.345-9.345c-3.377-3.378-8.854-3.378-12.232,0s-3.378,8.855,0,12.233l9.345,9.345
			c1.688,1.69,3.903,2.534,6.116,2.534s4.428-0.844,6.116-2.534C79.528,422.575,79.528,417.098,76.15,413.72z"/>
	</g>
</g>
<g>
	<g>
		<path d="M151.87,400.952l-40.823-40.822c-3.378-3.378-8.855-3.378-12.232,0c-3.378,3.378-3.378,8.855,0,12.233l40.823,40.822
			c1.688,1.69,3.903,2.534,6.116,2.534c2.213,0,4.428-0.844,6.116-2.534C155.248,409.807,155.248,404.33,151.87,400.952z"/>
	</g>
</g>
<g>
	<g>
		<path d="M129.754,423.073l-9.353-9.353c-3.378-3.378-8.855-3.378-12.232,0c-3.378,3.378-3.378,8.855,0,12.233l9.353,9.353
			c1.688,1.688,3.903,2.534,6.116,2.534c2.213,0,4.428-0.844,6.116-2.534C133.132,431.929,133.132,426.451,129.754,423.073z"/>
	</g>
</g>
<g>
	<g>
		<path d="M98.275,391.596l-9.346-9.346c-3.378-3.378-8.855-3.378-12.232,0c-3.378,3.378-3.378,8.854,0,12.232l9.346,9.346
			c1.688,1.69,3.903,2.534,6.116,2.534s4.428-0.844,6.116-2.534C101.653,400.45,101.653,394.974,98.275,391.596z"/>
	</g>
</g>
<g>
	<g>
		<path d="M71.221,218.484c-4.777,0-8.65,3.873-8.65,8.65v57.732c0,4.777,3.873,8.65,8.65,8.65s8.65-3.873,8.65-8.65v-57.732
			C79.871,222.357,75.998,218.484,71.221,218.484z"/>
	</g>
</g>
<g>
	<g>
		<path d="M8.651,218.484c-4.777,0-8.65,3.873-8.65,8.65v57.732c0,4.777,3.873,8.65,8.65,8.65s8.65-3.873,8.65-8.65v-57.732
			C17.301,222.357,13.428,218.484,8.651,218.484z"/>
	</g>
</g>
<g>
	<g>
		<path d="M39.937,218.488c-4.777,0-8.65,3.873-8.65,8.65v13.217c0,4.777,3.873,8.65,8.65,8.65s8.65-3.873,8.65-8.65v-13.217
			C48.587,222.361,44.714,218.488,39.937,218.488z"/>
	</g>
</g>
<g>
	<g>
		<path d="M39.937,262.994c-4.777,0-8.65,3.873-8.65,8.65v13.217c0,4.777,3.873,8.65,8.65,8.65s8.65-3.873,8.65-8.65v-13.217
			C48.587,266.867,44.714,262.994,39.937,262.994z"/>
	</g>
</g>
<g>
	<g>
		<path d="M503.349,218.488c-4.777,0-8.65,3.873-8.65,8.65v13.217c0,4.777,3.873,8.65,8.65,8.65s8.65-3.873,8.65-8.65v-13.217
			C511.999,222.361,508.126,218.488,503.349,218.488z"/>
	</g>
</g>
<g>
	<g>
		<path d="M503.349,262.994c-4.777,0-8.65,3.873-8.65,8.65v13.217c0,4.777,3.873,8.65,8.65,8.65s8.65-3.873,8.65-8.65v-13.217
			C511.999,266.867,508.126,262.994,503.349,262.994z"/>
	</g>
</g>
<g>
	<g>
		<path d="M440.78,218.488c-4.777,0-8.65,3.873-8.65,8.65v13.217c0,4.777,3.873,8.65,8.65,8.65s8.65-3.873,8.65-8.65v-13.217
			C449.43,222.361,445.557,218.488,440.78,218.488z"/>
	</g>
</g>
<g>
	<g>
		<path d="M440.78,262.993c-4.777,0-8.65,3.873-8.65,8.65v13.217c0,4.777,3.873,8.65,8.65,8.65s8.65-3.872,8.65-8.65v-13.217
			C449.43,266.866,445.557,262.993,440.78,262.993z"/>
	</g>
</g>
<g>
	<g>
		<path d="M472.065,218.484c-4.777,0-8.65,3.873-8.65,8.65v57.732c0,4.777,3.873,8.65,8.65,8.65s8.65-3.873,8.65-8.65v-57.732
			C480.715,222.357,476.842,218.484,472.065,218.484z"/>
	</g>
</g>
</svg>