<?xml version="1.0" encoding="iso-8859-1"?>
<!-- Uploaded to: SVG Repo, www.svgrepo.com, Generator: SVG Repo Mixer Tools -->
<svg fill="#000000" height="800px" width="800px" version="1.1" id="Layer_1" xmlns="http://www.w3.org/2000/svg" xmlns:xlink="http://www.w3.org/1999/xlink" 
	 viewBox="0 0 512 512" xml:space="preserve">
<g>
	<g>
		<path d="M256.006,96.739c-61.273,0-120.558,21.985-166.935,61.905c-3.806,3.276-4.235,9.019-0.959,12.825
			c3.276,3.806,9.019,4.235,12.825,0.959c43.078-37.081,98.149-57.501,155.07-57.501c128.086,0,232.845,101.784,237.634,228.725
			h-59.398c-5.022,0-9.094,4.072-9.094,9.094s4.072,9.094,9.094,9.094h59.57v35.235H18.187v-35.235H403.93
			c5.022,0,9.094-4.072,9.094-9.094s-4.072-9.094-9.094-9.094H18.361c2.083-54.625,22.881-106.878,59.095-148.003
			c3.319-3.77,2.954-9.516-0.815-12.834c-3.768-3.319-9.516-2.954-12.834,0.815C22.66,230.356,0,290.415,0,352.745v53.422
			c0,5.022,4.072,9.094,9.094,9.094h493.813c5.022,0,9.094-4.072,9.094-9.094v-53.422C512,211.583,397.162,96.739,256.006,96.739z"
			/>
	</g>
</g>
<g>
	<g>
		<path d="M316.523,240.708l22.312-38.646c1.625-2.813,1.625-6.281,0-9.094s-4.626-4.547-7.875-4.547h-44.625l-22.312-38.646
			c-1.625-2.813-4.626-4.547-7.875-4.547s-6.25,1.734-7.875,4.547l-22.314,38.646h-44.626c-3.25,0-6.25,1.734-7.875,4.547
			c-1.625,2.813-1.625,6.281,0,9.094l22.312,38.646l-22.312,38.646c-1.623,2.814-1.623,6.281,0.001,9.094
			c1.625,2.813,4.626,4.547,7.875,4.547h44.626l22.312,38.646c1.625,2.813,4.626,4.547,7.875,4.547c3.25,0,6.25-1.734,7.875-4.547
			l22.312-38.646h44.625c3.25,0,6.25-1.734,7.875-4.547c1.625-2.813,1.625-6.281,0-9.094L316.523,240.708z M256.147,172.51
			l9.187,15.912h-18.373L256.147,172.51z M197.085,274.807l9.187-15.913l9.187,15.913H197.085z M206.272,222.522l-9.187-15.913
			h18.374L206.272,222.522z M256.147,308.906l-9.187-15.912h18.373L256.147,308.906z M275.834,274.807h-39.375l-19.687-34.099
			l19.687-34.099h39.375l19.687,34.099L275.834,274.807z M296.834,274.807l9.187-15.913l9.187,15.913H296.834z M306.021,222.522
			l-9.187-15.913h18.374L306.021,222.522z"/>
	</g>
</g>
</svg>