<?xml version="1.0" encoding="iso-8859-1"?>
<!-- Uploaded to: SVG Repo, www.svgrepo.com, Generator: SVG Repo Mixer Tools -->
<svg fill="#000000" height="800px" width="800px" version="1.1" id="Layer_1" xmlns="http://www.w3.org/2000/svg" xmlns:xlink="http://www.w3.org/1999/xlink" 
	 viewBox="0 0 512.002 512.002" xml:space="preserve">
<g>
	<g>
		<path d="M424.169,249.701c-3.573,32.446-12.667,64.991-26.068,95.155c12.247,17.711,21.081,37.647,25.934,58.569
			c0.223,0.924-0.312,1.881-1.213,2.193c-32.613,11.142-67.863,12.633-102.323,2.771c-1.336-0.378-1.77-2.048-0.824-3.061
			C424.449,292.5,424.693,100.571,263.788,15.681c-4.864-2.582-10.719-2.582-15.583,0
			C176.388,53.574,128.534,121.627,115.15,197.977c28.272-12.867,59.86-21.393,94.198-25.4
			c10.617-24.211,26.382-44.644,45.424-61.04c0.701-0.601,1.747-0.601,2.449,0c29.362,25.233,48.83,58.369,56.488,96.079
			c0.278,1.325-0.946,2.471-2.26,2.159c-18.032-4.285-36.664-6.445-55.453-6.445C91.512,203.331-0.749,303.989,0.005,444.687
			c0.111,5.599,3.005,10.786,7.736,13.791c64.389,40.919,143.552,50.794,216.122,27.181c-28.483-20.28-51.835-45.301-70.267-70.946
			c-21.866,1.193-43.843-1.995-64.569-9.083c-0.913-0.312-1.436-1.269-1.224-2.204c7.669-32.969,24.732-62.632,49.487-86.062
			c0.979-0.924,2.605-0.523,3.039,0.757c20.402,60.395,92.039,180.137,226.975,180.137c48.641,0,96.001-13.757,136.951-39.781
			c5.852-3.718,7.71-9.106,7.747-15.872C512,368.769,480.537,298.691,424.169,249.701z M255.997,374.008
			c-29.369-24.797-49.206-57.89-57.245-94.833c39.588-12.549,78.81-11.889,114.344,0.612
			C305.272,315.149,286.239,348.485,255.997,374.008z"/>
	</g>
</g>
</svg>