<?xml version="1.0" encoding="iso-8859-1"?>
<!-- Uploaded to: SVG Repo, www.svgrepo.com, Generator: SVG Repo Mixer Tools -->
<svg fill="#000000" height="800px" width="800px" version="1.1" id="Layer_1" xmlns="http://www.w3.org/2000/svg" xmlns:xlink="http://www.w3.org/1999/xlink" 
	 viewBox="0 0 512 512" xml:space="preserve">
<g>
	<g>
		<path d="M509.047,246.523C459.1,174.153,376.918,130.865,289.2,130.865c-82.863,0-164.296,38.004-219.606,97.683
			c-22.815-34.482-36.225-73.822-36.225-114.367c0-9.214-7.47-16.685-16.685-16.685S0,104.966,0,114.181
			c0,35.994,8.376,71.223,24.895,104.708c6.358,12.887,13.795,25.277,22.267,37.111c-8.472,11.835-15.909,24.224-22.267,37.111
			C8.376,326.596,0,361.824,0,397.819c0,9.214,7.47,16.685,16.685,16.685s16.685-7.47,16.685-16.685
			c0-40.546,13.41-79.886,36.225-114.368c55.503,59.886,137.028,97.683,219.606,97.683c89.51,0,170.925-44.775,219.847-115.657
			C512.984,259.773,512.984,252.228,509.047,246.523z M307.072,347.056c-5.922,0.456-11.881,0.71-17.871,0.71
			c-77.186,0-150.404-37.005-198.574-91.765c48.17-54.76,121.388-91.765,198.574-91.765c8.718,0,17.372,0.503,25.932,1.462
			c-17.027,29.929-25.932,63.565-25.932,98.646C289.2,293.043,295.345,321.209,307.072,347.056z M341.59,341.778
			c-12.473-23.781-19.02-50.322-19.02-77.437c0-33.118,9.514-64.69,27.607-91.965c49.038,13.315,92.968,42.457,124.512,83.622
			C441.315,299.554,394.075,329.649,341.59,341.778z"/>
	</g>
</g>
<g>
	<g>
		<circle cx="389.308" cy="230.971" r="16.685"/>
	</g>
</g>
</svg>