<?xml version="1.0" encoding="iso-8859-1"?>
<!-- Uploaded to: SVG Repo, www.svgrepo.com, Generator: SVG Repo Mixer Tools -->
<svg fill="#000000" height="800px" width="800px" version="1.1" id="Layer_1" xmlns="http://www.w3.org/2000/svg" xmlns:xlink="http://www.w3.org/1999/xlink" 
	 viewBox="0 0 512 512" xml:space="preserve">
<g>
	<g>
		<path d="M456.348,0H105.739C68.915,0,38.957,29.959,38.957,66.783v378.435c0,36.824,29.959,66.783,66.783,66.783h350.609
			c9.22,0,16.696-7.475,16.696-16.696c0-7.116,0-465.659,0-478.609C473.043,7.475,465.568,0,456.348,0z M72.348,66.783
			c0-18.412,14.979-33.391,33.391-33.391v345.043c-12.16,0-23.56,3.282-33.391,8.984V66.783z M439.652,478.609H105.739
			c-18.412,0-33.391-14.979-33.391-33.391c0-18.412,14.979-33.391,33.391-33.391h333.913V478.609z M439.652,378.435H139.13V33.391
			h300.522V378.435z"/>
	</g>
</g>
<g>
	<g>
		<path d="M379.339,227.085c-63.544,34.892-135.956-21.321-121.504-90.086c2.93-13.943-11.891-24.918-24.374-18.068
			c-37.587,20.64-60.938,59.763-60.938,102.103c0,64.442,52.428,116.87,116.87,116.87c56.115,0,103.175-39.706,114.322-92.75
			C406.642,231.217,391.826,220.233,379.339,227.085z M289.391,304.512c-46.03,0-83.478-37.448-83.478-83.478
			c0-18.718,6.441-36.571,17.763-50.955c8.858,65.164,70.185,109.806,133.441,99.636
			C341.771,290.95,316.777,304.512,289.391,304.512z"/>
	</g>
</g>
<g>
	<g>
		<path d="M404.419,103.634c-1.965-6.044-7.188-10.449-13.477-11.362l-13.457-1.956l-6.017-12.193
			c-2.813-5.699-8.616-9.306-14.972-9.306s-12.159,3.607-14.972,9.306l-6.017,12.193l-13.456,1.956
			c-6.289,0.913-11.514,5.318-13.477,11.363c-1.965,6.044-0.326,12.679,4.225,17.114l9.736,9.491l-2.297,13.401
			c-1.074,6.264,1.502,12.593,6.643,16.329c5.132,3.728,11.95,4.233,17.583,1.27l12.034-6.327l12.035,6.328
			c5.626,2.956,12.442,2.464,17.583-1.271c5.141-3.735,7.717-10.066,6.643-16.329l-2.297-13.401l9.736-9.491
			C404.745,116.314,406.382,109.679,404.419,103.634z"/>
	</g>
</g>
</svg>