<?xml version="1.0" encoding="iso-8859-1"?>
<!-- Uploaded to: SVG Repo, www.svgrepo.com, Generator: SVG Repo Mixer Tools -->
<svg fill="#000000" height="800px" width="800px" version="1.1" id="Layer_1" xmlns="http://www.w3.org/2000/svg" xmlns:xlink="http://www.w3.org/1999/xlink" 
	 viewBox="0 0 511.999 511.999" xml:space="preserve">
<g>
	<g>
		<path d="M503.292,210.719H398.127l-2.721-33.724c-0.005-0.053-0.015-0.104-0.021-0.157c-0.003-0.031-0.007-0.062-0.01-0.092
			l-8.003-99.08c-0.365-4.522-4.141-8.007-8.68-8.007H133.303c-4.537,0-8.314,3.484-8.68,8.007l-2.457,30.415
			c-0.387,4.794,3.185,8.994,7.979,9.381c4.807,0.389,8.993-3.185,9.381-7.979l1.81-22.408h229.323l6.617,81.912h-16.777
			c-4.81,0-8.708,3.899-8.708,8.708s3.898,8.708,8.708,8.708h18.195l1.962,24.312H131.344l1.966-24.312h198.163
			c4.81,0,8.708-3.899,8.708-8.708s-3.898-8.708-8.708-8.708H134.718l2.356-29.139c0.387-4.794-3.185-8.994-7.979-9.381
			c-4.803-0.385-8.994,3.186-9.381,7.979l-5.845,72.273H8.708c-4.809,0-8.708,3.899-8.708,8.708s3.899,8.708,8.708,8.708h101.747
			c-1.457,1.996-3.484,3.93-6.064,6.31c-6.083,5.611-14.414,13.295-14.414,27.819c0,14.525,8.331,22.209,14.414,27.82
			c5.787,5.339,8.807,8.43,8.807,15.019c0,6.588-3.02,9.68-8.807,15.018c-6.083,5.611-14.414,13.295-14.414,27.82
			s8.331,22.21,14.414,27.822c5.787,5.339,8.807,8.432,8.807,15.022c0,6.59-3.02,9.683-8.807,15.022
			c-6.083,5.611-14.414,13.298-14.414,27.822c0,4.809,3.899,8.708,8.708,8.708s8.708-3.899,8.708-8.708
			c0-6.59,3.02-9.682,8.807-15.022c6.083-5.611,14.414-13.297,14.414-27.822c0-14.525-8.331-22.211-14.414-27.822
			c-5.787-5.339-8.807-8.432-8.807-15.022c0-6.588,3.02-9.681,8.807-15.019c6.084-5.611,14.414-13.295,14.414-27.819
			c0-14.525-8.331-22.209-14.414-27.82c-5.787-5.339-8.807-8.43-8.807-15.019c0-6.588,3.02-9.68,8.807-15.018
			c4.73-4.363,10.804-9.998,13.278-19.111h253.047c2.474,9.113,8.548,14.748,13.278,19.111c5.787,5.339,8.807,8.43,8.807,15.018
			c0,6.589-3.02,9.681-8.807,15.019c-6.083,5.611-14.414,13.296-14.414,27.82s8.332,22.209,14.414,27.819
			c5.787,5.339,8.807,8.43,8.807,15.019c0,6.59-3.02,9.682-8.807,15.022c-6.083,5.611-14.414,13.298-14.414,27.822
			c0,14.525,8.332,22.211,14.414,27.822c5.787,5.339,8.807,8.432,8.807,15.022c0,4.809,3.898,8.708,8.708,8.708
			c4.81,0,8.708-3.899,8.708-8.708c0-14.525-8.331-22.21-14.413-27.822c-5.788-5.339-8.808-8.432-8.808-15.022
			c0-6.59,3.02-9.683,8.808-15.022c6.083-5.611,14.413-13.298,14.413-27.822s-8.332-22.209-14.414-27.82
			c-5.787-5.339-8.807-8.43-8.807-15.018c0-6.589,3.02-9.681,8.807-15.019c6.083-5.611,14.414-13.296,14.414-27.82
			c0-14.524-8.332-22.209-14.414-27.819c-2.58-2.38-4.607-4.315-6.064-6.31h101.747c4.81,0,8.708-3.899,8.708-8.708
			S508.102,210.719,503.292,210.719z"/>
	</g>
</g>
</svg>