<?xml version="1.0" encoding="iso-8859-1"?>
<!-- Uploaded to: SVG Repo, www.svgrepo.com, Generator: SVG Repo Mixer Tools -->
<svg height="800px" width="800px" version="1.1" id="Layer_1" xmlns="http://www.w3.org/2000/svg" xmlns:xlink="http://www.w3.org/1999/xlink" 
	 viewBox="0 0 512 512" xml:space="preserve">
<g>
	<path style="fill:#F7B239;" d="M163.157,409.099c-2.511,0-5.11-0.202-7.781-0.61c-4.595-0.702-7.747-4.997-7.045-9.591
		c0.705-4.594,5.003-7.747,9.592-7.045c6.566,1.003,15.364,0.754,20.012-6.136c3.949-5.855,3.589-14.861-0.894-22.412
		c-14.17-23.866-8.163-54.49,13.972-71.236l16.476-12.464c3.709-2.805,8.986-2.073,11.789,1.634
		c2.804,3.706,2.072,8.984-1.634,11.788l-16.477,12.464c-15.295,11.571-19.446,32.731-9.654,49.221
		c7.86,13.237,8.007,29.102,0.375,40.416C185.767,404.202,175.535,409.099,163.157,409.099z"/>
	<path style="fill:#F7B239;" d="M348.841,409.099c-12.379,0-22.608-4.896-28.73-13.971c-7.633-11.314-7.485-27.178,0.374-40.416
		c9.793-16.49,5.642-37.651-9.654-49.223l-16.477-12.464c-3.706-2.804-4.438-8.082-1.634-11.788s8.082-4.439,11.789-1.634
		l16.477,12.464c22.135,16.746,28.141,47.371,13.97,71.235c-4.484,7.551-4.841,16.557-0.893,22.412
		c4.648,6.892,13.452,7.139,20.012,6.136c4.59-0.704,8.887,2.45,9.592,7.045c0.702,4.595-2.452,8.889-7.045,9.591
		C353.951,408.897,351.351,409.099,348.841,409.099z"/>
	<path style="fill:#F7B239;" d="M67.644,357.222c-3.268,0-6.376-1.915-7.742-5.11c-1.827-4.274,0.157-9.218,4.43-11.046
		c26.292-11.239,29.411-20.816,39.746-52.546c5.167-15.866,17.887-26.975,36.786-32.128c13.432-3.662,25.414-3.007,25.916-2.976
		c4.639,0.274,8.178,4.256,7.906,8.895c-0.273,4.634-4.282,8.168-8.877,7.906c-0.419-0.025-37.508-1.73-45.726,23.512
		c-10.533,32.339-15.82,48.571-49.134,62.811C69.868,357.003,68.746,357.222,67.644,357.222z"/>
	<path style="fill:#F7B239;" d="M465.37,304.952c-12.204,0-23.164-2.877-29.933-9.586c-6.134-6.079-11.542-17.483-2.479-37.284
		c3.097-6.767,3.866-12.036,2.061-14.096c-5.213-5.943-29.558-3.526-49.026,2.461c-4.447,1.368-9.15-1.126-10.518-5.564
		c-1.368-4.441,1.12-9.148,5.558-10.519c0.491-0.151,12.187-3.735,25.635-5.558c20.395-2.766,33.799-0.123,40.998,8.075
		c6.688,7.62,6.889,18.454,0.595,32.204c-2.771,6.056-5.19,14.151-0.976,18.328c7.672,7.604,32.804,6.031,52.727-3.301
		c4.208-1.97,9.218-0.158,11.191,4.052c1.971,4.209,0.158,9.218-4.05,11.19C494.463,301.294,479.126,304.951,465.37,304.952z"/>
	<path style="fill:#F7B239;" d="M46.629,304.952c-13.758,0-29.093-3.655-41.781-9.6c-4.209-1.971-6.022-6.981-4.05-11.19
		c1.972-4.209,6.98-6.02,11.191-4.052c19.925,9.333,45.055,10.906,52.727,3.301c4.214-4.177,1.795-12.273-0.976-18.328
		c-6.293-13.75-6.094-24.585,0.595-32.204c7.198-8.2,20.612-10.84,40.998-8.075c13.446,1.823,25.142,5.406,25.635,5.558
		c4.441,1.371,6.93,6.081,5.558,10.522c-1.37,4.44-6.079,6.927-10.518,5.561l0,0c-19.47-5.987-43.814-8.405-49.026-2.461
		c-1.806,2.06-1.036,7.329,2.061,14.096c9.064,19.802,3.656,31.206-2.479,37.285C69.792,302.074,58.83,304.951,46.629,304.952z"/>
	<path style="fill:#F7B239;" d="M444.354,357.222c-1.103,0-2.224-0.219-3.303-0.679c-33.315-14.242-38.602-30.474-49.134-62.811
		c-8.224-25.254-45.355-23.53-45.726-23.512c-4.653,0.266-8.606-3.294-8.868-7.926c-0.261-4.633,3.264-8.602,7.897-8.876
		c0.503-0.03,12.485-0.686,25.916,2.976c18.898,5.152,31.619,16.261,36.785,32.125c10.335,31.732,13.453,41.308,39.747,52.547
		c4.274,1.827,6.256,6.772,4.43,11.045C450.732,355.307,447.622,357.222,444.354,357.222z"/>
</g>
<g>
	<path style="fill:#E09B2D;" d="M211.93,207.345c-3.429,0-6.649-2.11-7.9-5.516l-17.177-46.753c-1.603-4.362,0.634-9.198,4.997-10.8
		c4.361-1.604,9.197,0.635,10.8,4.997l17.177,46.753c1.603,4.362-0.634,9.198-4.997,10.8
		C213.873,207.179,212.892,207.345,211.93,207.345z"/>
	<path style="fill:#E09B2D;" d="M300.068,207.345c-0.963,0-1.943-0.166-2.9-0.518c-4.364-1.603-6.601-6.438-4.997-10.8
		l17.177-46.753c1.603-4.362,6.436-6.602,10.8-4.997c4.363,1.603,6.601,6.438,4.997,10.8l-17.177,46.753
		C306.717,205.235,303.497,207.345,300.068,207.345z"/>
</g>
<path style="fill:#F7B239;" d="M394.735,238.403c0,0-62.114-56.843-138.736-56.843s-138.737,56.843-138.737,56.843
	s62.114,56.843,138.737,56.843S394.735,238.403,394.735,238.403z"/>
<path style="fill:#E09B2D;" d="M190.037,229.823c16.978-12.942,53.035-36.839,97.095-45.243c-10.008-1.909-20.43-3.02-31.135-3.02
	c-61.698,0-113.988,36.856-132.019,51.214c-3.623,2.885-3.623,8.375,0,11.259c18.03,14.357,70.321,51.214,132.019,51.214
	c10.705,0,21.125-1.111,31.135-3.02c-44.06-8.404-80.117-32.3-97.095-45.243C184.381,242.671,184.381,234.135,190.037,229.823z"/>
<g>
	<circle style="fill:#F95428;" cx="189.136" cy="130.343" r="27.442"/>
	<circle style="fill:#F95428;" cx="322.857" cy="130.343" r="27.442"/>
</g>
<g>
	<circle style="fill:#4D4D4D;" cx="322.857" cy="130.343" r="10.321"/>
	<circle style="fill:#4D4D4D;" cx="189.136" cy="130.343" r="10.321"/>
</g>
</svg>