<?xml version="1.0" encoding="iso-8859-1"?>
<!-- Uploaded to: SVG Repo, www.svgrepo.com, Generator: SVG Repo Mixer Tools -->
<svg height="800px" width="800px" version="1.1" id="Layer_1" xmlns="http://www.w3.org/2000/svg" xmlns:xlink="http://www.w3.org/1999/xlink" 
	 viewBox="0 0 512 512" xml:space="preserve">
<path style="fill:#FFEFD9;" d="M289.391,300.522h-66.783c-9.217,0-16.696-7.473-16.696-16.696v-66.783
	c0-9.223,7.479-16.696,16.696-16.696h66.783c9.217,0,16.696,7.473,16.696,16.696v66.783
	C306.087,293.049,298.608,300.522,289.391,300.522z"/>
<path style="fill:#FFD9B3;" d="M289.391,200.348H256v100.174h33.391c9.217,0,16.696-7.473,16.696-16.696v-66.783
	C306.087,207.821,298.608,200.348,289.391,200.348z"/>
<path style="fill:#FFC033;" d="M422.957,0H89.043c-9.217,0-16.696,7.473-16.696,16.696v33.391
	c0,101.266,82.391,183.652,183.652,183.652s183.652-82.386,183.652-183.652V16.696C439.652,7.473,432.174,0,422.957,0z"/>
<path style="fill:#F9A926;" d="M422.957,0H256v233.739c101.261,0,183.652-82.386,183.652-183.652V16.696
	C439.652,7.473,432.174,0,422.957,0z"/>
<path style="fill:#FFEFD9;" d="M289.391,445.217h-66.783c-9.217,0-16.696-7.473-16.696-16.696v-77.913
	c0-9.223,7.479-16.696,16.696-16.696h66.783c9.217,0,16.696,7.473,16.696,16.696v77.913
	C306.087,437.744,298.608,445.217,289.391,445.217z"/>
<path style="fill:#FFD9B3;" d="M289.391,333.913H256v111.304h33.391c9.217,0,16.696-7.473,16.696-16.696v-77.913
	C306.087,341.386,298.608,333.913,289.391,333.913z"/>
<path style="fill:#FFC033;" d="M389.565,512h-267.13c-9.217,0-16.696-7.473-16.696-16.696c0-46.032,37.446-83.478,83.478-83.478
	h133.565c46.032,0,83.478,37.446,83.478,83.478C406.261,504.527,398.782,512,389.565,512z"/>
<path style="fill:#F9A926;" d="M322.783,411.826H256V512h133.565c9.217,0,16.696-7.473,16.696-16.696
	C406.261,449.272,368.815,411.826,322.783,411.826z"/>
<path style="fill:#FFC033;" d="M289.391,367.304h-66.783c-27.619,0-50.087-22.468-50.087-50.087s22.468-50.087,50.087-50.087h66.783
	c27.619,0,50.087,22.468,50.087,50.087S317.01,367.304,289.391,367.304z"/>
<path style="fill:#F9A926;" d="M289.391,267.13H256v100.174h33.391c27.619,0,50.087-22.468,50.087-50.087
	S317.01,267.13,289.391,267.13z"/>
<path style="fill:#FFEFD9;" d="M456.348,100.174H55.652c-9.217,0-16.696-7.473-16.696-16.696s7.479-16.696,16.696-16.696h400.696
	c9.217,0,16.696,7.473,16.696,16.696S465.565,100.174,456.348,100.174z"/>
<path style="fill:#FFD9B3;" d="M456.348,66.783H256v33.391h200.348c9.217,0,16.696-7.473,16.696-16.696
	S465.565,66.783,456.348,66.783z"/>
<path style="fill:#FFEFD9;" d="M456.348,33.391H55.652c-9.217,0-16.696-7.473-16.696-16.696S46.435,0,55.652,0h400.696
	c9.217,0,16.696,7.473,16.696,16.696S465.565,33.391,456.348,33.391z"/>
<path style="fill:#FFD9B3;" d="M456.348,0H256v33.391h200.348c9.217,0,16.696-7.473,16.696-16.696S465.565,0,456.348,0z"/>
</svg>