<?xml version="1.0" encoding="iso-8859-1"?>
<!-- Uploaded to: SVG Repo, www.svgrepo.com, Generator: SVG Repo Mixer Tools -->
<svg fill="#000000" height="800px" width="800px" version="1.1" id="Layer_1" xmlns="http://www.w3.org/2000/svg" xmlns:xlink="http://www.w3.org/1999/xlink" 
	 viewBox="0 0 512 512" xml:space="preserve">
<g>
	<g>
		<path d="M489.739,478.609h-83.478v-244.87h50.087c9.22,0,16.696-7.475,16.696-16.696v-50.087h16.696
			c9.22,0,16.696-7.475,16.696-16.696s-7.475-16.696-16.696-16.696c-15.636,0-34.399,0-50.087,0V83.478
			c0-6.324-3.573-12.104-9.229-14.934l-57.827-28.914C370.152,17.375,351.244,0,328.348,0c-24.549,0-44.522,19.972-44.522,44.522
			c0,24.549,19.972,44.522,44.522,44.522c14.076,0,26.637-6.573,34.802-16.803l43.112,21.556v39.768H105.739V93.797l43.112-21.555
			c8.164,10.229,20.726,16.801,34.802,16.801c24.549,0,44.522-19.972,44.522-44.522C228.174,19.972,208.201,0,183.652,0
			c-22.896,0-41.804,17.375-44.248,39.631L81.577,68.545c-5.656,2.829-9.229,8.609-9.229,14.934v50.087c-15.693,0-34.462,0-50.087,0
			c-9.22,0-16.696,7.475-16.696,16.696s7.475,16.696,16.696,16.696h16.696v50.087c0,9.22,7.475,16.696,16.696,16.696h50.087v244.87
			H22.261c-9.22,0-16.696,7.475-16.696,16.696S13.04,512,22.261,512c12.297,0,455.152,0,467.478,0
			c9.22,0,16.696-7.475,16.696-16.696S498.96,478.609,489.739,478.609z M328.348,55.652c-6.137,0-11.13-4.993-11.13-11.13
			c0-6.137,4.993-11.13,11.13-11.13s11.13,4.993,11.13,11.13C339.478,50.659,334.485,55.652,328.348,55.652z M183.652,33.391
			c6.137,0,11.13,4.993,11.13,11.13c0,6.137-4.993,11.13-11.13,11.13s-11.13-4.993-11.13-11.13
			C172.522,38.384,177.515,33.391,183.652,33.391z M72.348,200.348v-33.391h367.304v33.391
			C427.982,200.348,85.057,200.348,72.348,200.348z M372.87,478.609H139.13v-244.87H372.87V478.609z"/>
	</g>
</g>
<g>
	<g>
		<path d="M289.391,300.522h-16.696v-16.696c0-9.22-7.475-16.696-16.696-16.696c-9.22,0-16.696,7.475-16.696,16.696v16.696h-16.696
			c-9.22,0-16.696,7.475-16.696,16.696s7.475,16.696,16.696,16.696h16.696v83.478c0,9.22,7.475,16.696,16.696,16.696
			c9.22,0,16.696-7.475,16.696-16.696v-83.478h16.696c9.22,0,16.696-7.475,16.696-16.696S298.612,300.522,289.391,300.522z"/>
	</g>
</g>
</svg>