<?xml version="1.0" encoding="iso-8859-1"?>
<!-- Uploaded to: SVG Repo, www.svgrepo.com, Generator: SVG Repo Mixer Tools -->
<svg height="800px" width="800px" version="1.1" id="Layer_1" xmlns="http://www.w3.org/2000/svg" xmlns:xlink="http://www.w3.org/1999/xlink" 
	 viewBox="0 0 512 512" xml:space="preserve">
<path style="fill:#6B7A99;" d="M495.304,439.652H16.696C7.479,439.652,0,432.179,0,422.957v-66.783
	c0-9.223,7.479-16.696,16.696-16.696h478.609c9.217,0,16.696,7.473,16.696,16.696v66.783
	C512,432.179,504.521,439.652,495.304,439.652z"/>
<path style="fill:#5A6680;" d="M495.304,339.478H256v100.174h239.304c9.217,0,16.696-7.473,16.696-16.696v-66.783
	C512,346.951,504.521,339.478,495.304,339.478z"/>
<path style="fill:#EDF0F2;" d="M256,72.348c-143.522,0-256,120.577-256,262.233v38.289h512v-44.522
	C512,187.103,397.133,72.348,256,72.348z"/>
<path style="fill:#DAE1E6;" d="M512,328.348v44.522H256V72.348C397.133,72.348,512,187.103,512,328.348z"/>
<path style="fill:#FFC033;" d="M313.762,222.556l15.3-26.378c2.893-4.985,2.901-11.136,0.025-16.131
	c-2.877-4.994-8.202-8.073-13.966-8.073h-30.698l-14.445-24.904c-2.884-4.971-8.195-8.031-13.942-8.031
	c-5.747,0-11.058,3.06-13.942,8.031l-14.445,24.904h-30.698c-5.764,0-11.089,3.079-13.965,8.073
	c-2.877,4.994-2.868,11.145,0.023,16.131l15.301,26.378l-15.301,26.378c-2.892,4.985-2.901,11.136-0.023,16.131
	c2.876,4.994,8.202,8.073,13.965,8.073h30.698l14.445,24.904c2.884,4.971,8.195,8.031,13.942,8.031
	c5.747,0,11.058-3.06,13.942-8.031l14.445-24.904h30.698c5.764,0,11.089-3.079,13.966-8.073c2.876-4.994,2.867-11.145-0.025-16.131
	L313.762,222.556z M246.216,240.905l-10.643-18.349l10.643-18.349h19.64l10.643,18.349l-10.643,18.349H246.216z"/>
<path style="fill:#F9A926;" d="M269.978,298.043l14.445-24.904h30.698c5.764,0,11.089-3.079,13.966-8.073
	c2.876-4.994,2.867-11.145-0.025-16.131l-15.3-26.378l15.3-26.378c2.893-4.985,2.901-11.136,0.025-16.131
	c-2.877-4.994-8.202-8.073-13.966-8.073h-30.698l-14.445-24.904c-2.884-4.971-8.195-8.031-13.942-8.031
	c-0.012,0-0.023,0.001-0.036,0.001v65.169h9.856l10.643,18.349l-10.643,18.349H256v65.169c0.012,0,0.023,0.001,0.036,0.001
	C261.782,306.074,267.094,303.014,269.978,298.043z"/>
</svg>