<?xml version="1.0" encoding="iso-8859-1"?>
<!-- Uploaded to: SVG Repo, www.svgrepo.com, Generator: SVG Repo Mixer Tools -->
<svg fill="#000000" height="800px" width="800px" version="1.1" id="Layer_1" xmlns="http://www.w3.org/2000/svg" xmlns:xlink="http://www.w3.org/1999/xlink" 
	 viewBox="0 0 511.998 511.998" xml:space="preserve">
<g>
	<g>
		<path d="M433.445,154.574L267.368,4.313c-6.37-5.75-16.044-5.75-22.413,0L78.541,154.873
			C32.53,196.514,16.878,260.96,38.672,319.058l68.293,182.109c2.445,6.516,8.674,10.831,15.631,10.831h265.74
			c6.934,0,13.142-4.283,15.608-10.761l69.13-181.838C495.228,261.112,479.673,196.41,433.445,154.574z M155.987,205.911
			c0-9.22,7.475-16.696,16.696-16.696h50.087v-50.087c0-9.221,7.475-16.696,16.696-16.696h33.391c9.22,0,16.696,7.475,16.696,16.696
			v50.087h50.087c9.22,0,16.696,7.475,16.696,16.696v33.391c0,9.221-7.475,16.696-16.696,16.696h-50.087v83.479
			c0,9.22-7.475,16.696-16.696,16.696h-33.391c-9.22,0-16.918-7.475-16.918-16.696v-83.479h-49.865
			c-9.22,0-16.696-7.475-16.696-16.696V205.911z M376.825,478.608H134.16l-12.522-33.391h267.878L376.825,478.608z"/>
	</g>
</g>
</svg>