<?xml version="1.0" encoding="iso-8859-1"?>
<!-- Uploaded to: SVG Repo, www.svgrepo.com, Generator: SVG Repo Mixer Tools -->
<svg fill="#000000" height="800px" width="800px" version="1.1" id="Layer_1" xmlns="http://www.w3.org/2000/svg" xmlns:xlink="http://www.w3.org/1999/xlink" 
	 viewBox="0 0 512.001 512.001" xml:space="preserve">
<g>
	<g>
		<path d="M509.043,246.525c-34.543-50.053-84.477-86.14-140.969-103.672c-27.956,30.655-45.169,71.269-45.169,115.93
			c0,42.512,15.542,81.41,41.143,111.502c58.134-17.047,109.64-53.574,144.995-104.805
			C512.987,259.777,512.987,252.227,509.043,246.525z M389.306,247.659c-9.214,0-16.685-7.47-16.685-16.685
			c0-9.214,7.47-16.685,16.685-16.685c9.215,0,16.685,7.47,16.685,16.685C405.991,240.189,398.52,247.659,389.306,247.659z"/>
	</g>
</g>
<g>
	<g>
		<path d="M331.761,134.407c-13.969-2.265-28.178-3.542-42.561-3.542c-85.791,0-165.721,38.686-219.707,97.528
			C46.741,193.948,33.37,154.665,33.37,114.181c0-9.217-7.468-16.685-16.685-16.685C7.468,97.498,0,104.966,0,114.182
			c0,51.211,17.521,100.146,47.143,141.819C17.521,297.674,0,346.61,0,397.82c0,9.217,7.468,16.685,16.685,16.685
			s16.685-7.468,16.685-16.685c0-40.483,13.371-79.768,36.123-114.213c53.986,58.841,133.917,97.528,219.707,97.528
			c13.105,0,26.061-1.081,38.831-2.965c-24.13-33.711-38.495-74.862-38.495-119.388C289.537,212.024,305.39,169.001,331.761,134.407
			z"/>
	</g>
</g>
</svg>