<?xml version="1.0" encoding="iso-8859-1"?>
<!-- Uploaded to: SVG Repo, www.svgrepo.com, Generator: SVG Repo Mixer Tools -->
<svg fill="#000000" height="800px" width="800px" version="1.1" id="Layer_1" xmlns="http://www.w3.org/2000/svg" xmlns:xlink="http://www.w3.org/1999/xlink" 
	 viewBox="0 0 512 512" xml:space="preserve">
<g>
	<g>
		<path d="M422.957,178.087h-116.87v-33.391h50.087c9.22,0,16.696-7.475,16.696-16.696V61.217c0-9.22-7.475-16.696-16.696-16.696
			h-50.087V16.696c0-9.22-7.475-16.696-16.696-16.696h-66.783c-9.22,0-16.696,7.475-16.696,16.696v27.826h-50.087
			c-9.22,0-16.696,7.475-16.696,16.696V128c0,9.22,7.475,16.696,16.696,16.696h50.087v33.391H89.044
			c-9.22,0-16.696,7.475-16.696,16.696v66.783c0,9.22,7.475,16.696,16.696,16.696h116.87v41.508l-47.342-7.889
			c-4.841-0.805-9.791,0.558-13.537,3.73c-3.744,3.172-5.904,7.831-5.904,12.739v66.783c0,8.162,5.9,15.126,13.951,16.469
			l52.832,8.805v74.9c0,9.22,7.475,16.696,16.696,16.696h66.783c9.22,0,16.696-7.475,16.696-16.696v-58.203l47.342,7.889
			c4.844,0.807,9.793-0.558,13.537-3.73c3.744-3.172,5.904-7.831,5.904-12.739v-66.783c0-8.162-5.9-15.126-13.951-16.469
			l-52.832-8.805v-58.204h116.87c9.22,0,16.696-7.475,16.696-16.696v-66.783C439.652,185.562,432.177,178.087,422.957,178.087z
			 M406.261,244.87h-116.87c-9.22,0-16.696,7.475-16.696,16.696v89.043c0,8.162,5.9,15.126,13.951,16.469l52.832,8.805v32.93
			l-47.342-7.89c-10.181-1.692-19.44,6.165-19.44,16.469v61.217h-33.391v-72.348c0-8.162-5.9-15.126-13.951-16.469l-52.832-8.805
			v-32.931l47.342,7.89c10.168,1.694,19.44-6.155,19.44-16.469v-77.913c0-9.22-7.475-16.696-16.696-16.696h-116.87v-33.391h116.87
			c9.22,0,16.696-7.475,16.696-16.696V128c0-9.22-7.475-16.696-16.696-16.696h-50.087V77.913h50.087
			c9.22,0,16.696-7.475,16.696-16.696V33.391h33.391v27.826c0,9.22,7.475,16.696,16.696,16.696h50.087v33.391h-50.087
			c-9.22,0-16.696,7.475-16.696,16.696v66.783c0,9.22,7.475,16.696,16.696,16.696h116.87V244.87z"/>
	</g>
</g>
</svg>