<?xml version="1.0" encoding="iso-8859-1"?>
<!-- Uploaded to: SVG Repo, www.svgrepo.com, Generator: SVG Repo Mixer Tools -->
<svg fill="#000000" height="800px" width="800px" version="1.1" id="Layer_1" xmlns="http://www.w3.org/2000/svg" xmlns:xlink="http://www.w3.org/1999/xlink" 
	 viewBox="0 0 512 512" xml:space="preserve">
<g>
	<g>
		<path d="M256,0C131.404,0,38.957,150.578,38.957,283.826C38.957,416.038,130.239,512,256,512s217.043-95.962,217.043-228.174
			C473.043,150.481,380.519,0,256,0z M356.174,100.174c9.22,0,16.696,7.475,16.696,16.696s-7.475,16.696-16.696,16.696
			c-9.22,0-16.696-7.475-16.696-16.696S346.953,100.174,356.174,100.174z M256,100.174c9.22,0,16.696,7.475,16.696,16.696
			S265.22,133.565,256,133.565c-9.22,0-16.696-7.475-16.696-16.696S246.78,100.174,256,100.174z M155.826,100.174
			c9.22,0,16.696,7.475,16.696,16.696s-7.475,16.696-16.696,16.696c-9.221,0-16.696-7.475-16.696-16.696
			S146.606,100.174,155.826,100.174z M89.153,187.937c24.605,15.043,57.211,12.095,78.478-9.171
			c11.913-11.902,31.261-11.902,43.174,0c12.456,12.456,28.826,18.685,45.195,18.685s32.739-6.229,45.195-18.685
			c11.913-11.902,31.261-11.902,43.174,0c21.266,21.267,53.872,24.211,78.479,9.167c5.17,14.993,9.22,30.367,12.052,45.806H77.101
			C79.932,218.303,83.981,202.929,89.153,187.937z M139.13,400.696c-9.22,0-16.696-7.475-16.696-16.696s7.475-16.696,16.696-16.696
			s16.696,7.475,16.696,16.696C155.826,393.221,148.351,400.696,139.13,400.696z M256,400.696c-9.22,0-16.696-7.475-16.696-16.696
			s7.475-16.696,16.696-16.696c9.22,0,16.696,7.475,16.696,16.696C272.696,393.221,265.22,400.696,256,400.696z M372.87,400.696
			c-9.22,0-16.696-7.475-16.696-16.696s7.475-16.696,16.696-16.696c9.221,0,16.696,7.475,16.696,16.696
			C389.566,393.221,382.09,400.696,372.87,400.696z M434.76,322.104c-24.913-24.913-65.478-24.913-90.391,0
			c-11.913,11.902-31.261,11.902-43.174,0c-24.913-24.913-65.478-24.913-90.391,0c-11.913,11.902-31.261,11.902-43.174,0
			c-24.913-24.913-65.478-24.908-90.391,0.006c-0.513,0.514-1.095,0.935-1.64,1.408c-3.329-20.1-3.826-38.109-2.654-56.387h366.109
			c1.177,18.345,0.666,36.34-2.652,56.382C435.856,323.04,435.275,322.618,434.76,322.104z"/>
	</g>
</g>
</svg>