<?xml version="1.0" encoding="iso-8859-1"?>
<!-- Uploaded to: SVG Repo, www.svgrepo.com, Generator: SVG Repo Mixer Tools -->
<svg fill="#000000" height="800px" width="800px" version="1.1" id="Layer_1" xmlns="http://www.w3.org/2000/svg" xmlns:xlink="http://www.w3.org/1999/xlink" 
	 viewBox="0 0 512 512" xml:space="preserve">
<g>
	<g>
		<circle cx="336.261" cy="42.665" r="9.014"/>
	</g>
</g>
<g>
	<g>
		<path d="M207.832,33.651c-4.976,0-9.002,4.038-9.002,9.014s4.026,9.014,9.002,9.014c4.988,0,9.014-4.038,9.014-9.014
			S212.82,33.651,207.832,33.651z"/>
	</g>
</g>
<g>
	<g>
		<path d="M304.163,33.651c-4.987,0-9.014,4.038-9.014,9.014s4.026,9.014,9.014,9.014c4.977,0,9.014-4.038,9.014-9.014
			S309.14,33.651,304.163,33.651z"/>
	</g>
</g>
<g>
	<g>
		<circle cx="239.943" cy="42.665" r="9.014"/>
	</g>
</g>
<g>
	<g>
		<circle cx="175.727" cy="42.665" r="9.014"/>
	</g>
</g>
<g>
	<g>
		<path d="M272.049,33.651c-4.976,0-9.014,4.038-9.014,9.014s4.038,9.014,9.014,9.014c4.988,0,9.014-4.038,9.014-9.014
			S277.036,33.651,272.049,33.651z"/>
	</g>
</g>
<g>
	<g>
		<path d="M377.39,91.366V80.503c4.768-0.237,8.563-4.164,8.563-8.991c0-4.827-3.796-8.754-8.563-8.991V9.014
			c0-4.978-4.035-9.014-9.014-9.014H143.624c-4.978,0-9.014,4.036-9.014,9.014v53.506c-4.768,0.237-8.563,4.164-8.563,8.991
			c0,4.827,3.796,8.755,8.563,8.991v10.863c-4.768,0.237-8.563,4.165-8.563,8.991c0,4.827,3.796,8.754,8.563,8.991v40.887
			c0,46.12,26.167,88.131,67.142,108.614c1.101,15.609,8.779,29.809,21.196,39.287v37.87
			c-13.447,10.263-21.333,26.058-21.333,43.186c0,17.127,7.888,32.924,21.333,43.186v27.125h-8.263
			c-29.492,0-53.484,23.992-53.484,53.484c0,4.978,4.036,9.014,9.014,9.014h171.568c4.979,0,9.014-4.036,9.014-9.014
			c0-29.492-23.993-53.484-53.484-53.484h-8.263v-27.124c13.445-10.263,21.333-26.059,21.333-43.186
			c0-17.128-7.887-32.923-21.333-43.186v-37.87c12.418-9.478,20.097-23.678,21.196-39.287
			c40.974-20.484,67.142-62.495,67.142-108.615v-40.887c4.768-0.237,8.563-4.165,8.563-8.991
			C385.953,95.53,382.158,91.602,377.39,91.366z M297.315,467.531c16.437,0,30.297,11.242,34.294,26.441H180.391
			c3.997-15.199,17.858-26.441,34.294-26.441h17.277h48.075H297.315z M240.976,449.502v-22.821h30.047v22.821H240.976z
			 M292.357,379.193c0,11.781-5.589,22.621-15.066,29.46h-42.583c-9.477-6.84-15.066-17.68-15.066-29.46s5.59-22.619,15.067-29.46
			h42.581C286.768,356.573,292.357,367.412,292.357,379.193z M240.976,331.704v-29.265h30.047v29.265H240.976z M277.291,284.411
			h-42.583c-7.519-5.428-12.586-13.373-14.36-22.309h71.303C289.877,271.038,284.81,278.984,277.291,284.411z M359.362,62.498
			H230.764c-4.978,0-9.014,4.036-9.014,9.014c0,4.978,4.036,9.014,9.014,9.014h128.597v10.817h-13.217
			c-4.979,0-9.014,4.036-9.014,9.014s4.035,9.014,9.014,9.014h13.217v40.864c0,40.325-23.504,76.948-60.021,93.839H212.66
			c-36.518-16.89-60.022-53.514-60.022-93.839v-40.864h163.459c4.979,0,9.014-4.036,9.014-9.014s-4.035-9.014-9.014-9.014H152.638
			V80.526h48.079c4.978,0,9.014-4.036,9.014-9.014c0-4.978-4.036-9.014-9.014-9.014h-48.079V18.028h206.723V62.498z"/>
	</g>
</g>
</svg>