<?xml version="1.0" encoding="iso-8859-1"?>
<!-- Uploaded to: SVG Repo, www.svgrepo.com, Generator: SVG Repo Mixer Tools -->
<svg height="800px" width="800px" version="1.1" id="Layer_1" xmlns="http://www.w3.org/2000/svg" xmlns:xlink="http://www.w3.org/1999/xlink" 
	 viewBox="0 0 512 512" xml:space="preserve">
<path style="fill:#F95428;" d="M255.999,288.516L255.999,288.516c-2.366,0-4.635-0.94-6.307-2.613l-4.857-4.857
	c-28.23-28.23-65.763-43.776-105.684-43.776c-65.416,0-118.635-53.22-118.635-118.634S73.734,0,139.149,0h233.702
	c65.416,0,118.634,53.22,118.634,118.634c0,65.416-53.219,118.635-118.634,118.635c-39.923,0-77.457,15.546-105.684,43.776
	l-4.859,4.857C260.634,287.576,258.365,288.516,255.999,288.516z M139.149,17.841c-55.578,0-100.794,45.216-100.794,100.794
	c0,55.578,45.216,100.795,100.794,100.795c44.009,0,85.422,16.875,116.85,47.569c31.428-30.693,72.842-47.569,116.851-47.569
	c55.578,0,100.794-45.216,100.794-100.794S428.428,17.841,372.85,17.841H139.149z"/>
<polygon style="fill:#E09B2D;" points="352.2,346.724 352.2,420.727 293.004,420.727 293.004,512 219.002,512 219.002,420.727 
	159.794,420.727 159.794,346.724 219.002,346.724 219.002,283.652 293.004,283.652 293.004,346.724 "/>
<polygon style="fill:#F7B239;" points="232.085,498.917 232.085,407.644 172.878,407.644 172.878,359.807 232.085,359.807 
	232.085,296.735 279.923,296.735 279.923,359.807 339.117,359.807 339.117,407.644 279.923,407.644 279.923,498.917 "/>
</svg>