<?xml version="1.0" encoding="iso-8859-1"?>
<!-- Uploaded to: SVG Repo, www.svgrepo.com, Generator: SVG Repo Mixer Tools -->
<svg fill="#000000" height="800px" width="800px" version="1.1" id="Layer_1" xmlns="http://www.w3.org/2000/svg" xmlns:xlink="http://www.w3.org/1999/xlink" 
	 viewBox="0 0 512 512" xml:space="preserve">
<g>
	<g>
		<path d="M478.601,200.36h-33.39v-78.072c39.448-18.792,66.78-59.05,66.78-105.575c0-14.817-17.991-22.316-28.5-11.805
			c-18.379,18.379-42.814,28.5-68.806,28.5H97.316c-25.992,0-50.427-10.122-68.806-28.5C18.035-5.569,0.01,1.849,0.01,16.713
			c0,19.268,4.794,38.375,13.865,55.253c12.056,22.436,30.753,39.849,52.915,50.356v78.038H33.4c-18.411,0-33.39,14.979-33.39,33.39
			v33.39c0,18.411,14.979,33.39,33.39,33.39h33.39v194.775c0,9.22,7.475,16.695,16.695,16.695h66.78
			c9.22,0,16.695-7.475,16.695-16.695V300.53h178.08v194.775c0,9.22,7.475,16.695,16.695,16.695h66.78
			c9.22,0,16.695-7.475,16.695-16.695V300.53h33.39c18.411,0,33.39-14.979,33.39-33.39v-33.39
			C511.991,215.339,497.012,200.36,478.601,200.36z M66.79,267.139H33.4v-33.39h33.39V267.139z M133.57,478.609h-33.39V132.377
			c10.269,1.476,15.816,1.201,33.39,1.201V478.609z M345.04,267.139H166.96v-33.39c77.213,0,91.797,0,178.08,0V267.139z
			 M166.96,200.359v-66.78h38.955v66.78H166.96z M239.305,200.359v-66.78h33.39v66.78H239.305z M345.04,200.359h-38.955v-66.78
			h38.955V200.359z M411.821,478.609h-33.39V133.579c17.59,0,23.162,0.272,33.39-1.198V478.609z M395.126,100.187H116.875
			c-30.797,0.001-58.995-16.87-73.588-44.028c-0.229-0.426-0.454-0.855-0.676-1.284c16.932,7.81,35.503,11.922,54.705,11.922
			h317.369c19.185,0,37.741-4.106,54.66-11.902C455.463,81.773,427.405,100.187,395.126,100.187z M478.601,267.139h-33.39v-33.39
			h33.39V267.139z"/>
	</g>
</g>
</svg>