<?xml version="1.0" encoding="iso-8859-1"?>
<!-- Uploaded to: SVG Repo, www.svgrepo.com, Generator: SVG Repo Mixer Tools -->
<svg height="800px" width="800px" version="1.1" id="Layer_1" xmlns="http://www.w3.org/2000/svg" xmlns:xlink="http://www.w3.org/1999/xlink" 
	 viewBox="0 0 512 512" xml:space="preserve">
<path style="fill:#F7B239;" d="M376.639,172.454L376.639,172.454c-16.561,0-29.986,13.426-29.986,29.986V71.068
	c0-16.669-13.514-30.183-30.183-30.183s-30.183,13.514-30.183,30.183V38.956c0-16.669-13.514-30.183-30.183-30.183l0,0
	c-16.669,0-30.183,13.514-30.183,30.183v39.819c0-16.669-13.514-30.183-30.183-30.183l0,0c-16.669,0-30.183,13.514-30.183,30.183
	v67.479c0-16.669-13.514-30.183-30.183-30.183l0,0c-16.669,0-30.183,13.514-30.183,30.183V259.67v18.847v74.167
	c0,83.237,67.477,150.714,150.714,150.714l0,0c83.237,0,150.714-67.477,150.714-150.715V202.439
	C406.626,185.879,393.2,172.454,376.639,172.454z"/>
<circle style="fill:#CCCCCC;" cx="254.923" cy="370.181" r="75.873"/>
<path d="M105.286,287.118c4.798,0,8.688-3.89,8.688-8.688V146.168c0-11.852,9.642-21.495,21.495-21.495s21.495,9.642,21.495,21.495
	v120.585c0,4.798,3.89,8.688,8.688,8.688s8.688-3.89,8.688-8.688V78.689c0-11.852,9.642-21.495,21.495-21.495
	s21.495,9.642,21.495,21.495v171.337c0,4.798,3.89,8.688,8.688,8.688c4.798,0,8.688-3.89,8.688-8.688V38.87
	c0-11.852,9.642-21.495,21.495-21.495c11.852,0,21.495,9.642,21.495,21.495v212.351c0,4.798,3.89,8.688,8.688,8.688
	s8.688-3.89,8.688-8.688V70.983c0-11.852,9.642-21.495,21.495-21.495s21.495,9.642,21.495,21.495v2.306
	c0,4.798,3.89,8.688,8.688,8.688s8.688-3.89,8.688-8.688v-2.306c0-21.433-17.437-38.87-38.87-38.87
	c-7.942,0-15.335,2.393-21.495,6.498C294.926,17.296,277.544,0,256.198,0c-21.432,0-38.87,17.437-38.87,38.87v7.447
	c-6.16-4.104-13.553-6.497-21.495-6.497c-21.432,0-38.87,17.437-38.87,38.87v35.107c-6.16-4.104-13.553-6.497-21.495-6.497
	c-21.432,0-38.87,17.437-38.87,38.87v132.263C96.598,283.229,100.488,287.118,105.286,287.118z"/>
<path d="M376.729,163.68c-7.864,0-15.185,2.358-21.298,6.407v-67.839c0-4.798-3.89-8.688-8.688-8.688s-8.688,3.89-8.688,8.688
	v100.105v109.8c0,4.798,3.89,8.688,8.688,8.688s8.688-3.89,8.688-8.688v-109.8c0-11.744,9.554-21.298,21.298-21.298
	s21.298,9.554,21.298,21.298v150.244c0,78.314-63.713,142.027-142.027,142.027s-142.027-63.713-142.027-142.027V307.39
	c0-4.798-3.89-8.688-8.688-8.688s-8.688,3.89-8.688,8.688v45.208C96.598,440.493,168.106,512,256.001,512
	s159.402-71.507,159.402-159.402V202.354C415.403,181.029,398.054,163.68,376.729,163.68z"/>
<path d="M255.014,284.33c-47.294,0-85.769,38.476-85.769,85.769c0,47.294,38.475,85.769,85.769,85.769s85.769-38.476,85.769-85.769
	C340.783,322.807,302.308,284.33,255.014,284.33z M291.643,378.787h31.194c-1.575,12.366-6.459,23.705-13.742,33.107l-22.038-22.038
	c-3.393-3.393-8.894-3.393-12.286,0c-3.393,3.393-3.393,8.893,0,12.286l22.038,22.038c-9.402,7.283-20.742,12.166-33.107,13.742
	v-31.195c0-4.798-3.89-8.688-8.688-8.688s-8.688,3.89-8.688,8.688v31.195c-12.366-1.575-23.705-6.459-33.107-13.742l22.038-22.038
	c3.393-3.393,3.393-8.893,0-12.286s-8.894-3.393-12.286,0l-22.038,22.038c-7.283-9.402-12.165-20.742-13.742-33.107h31.194
	c4.798,0,8.688-3.89,8.688-8.688c0-4.798-3.89-8.688-8.688-8.688h-31.194c1.575-12.364,6.459-23.705,13.742-33.107l22.038,22.038
	c1.696,1.697,3.92,2.545,6.143,2.545c2.223,0,4.447-0.848,6.143-2.545c3.393-3.393,3.393-8.893,0-12.286l-22.038-22.038
	c9.403-7.283,20.742-12.166,33.107-13.742v31.195c0,4.798,3.89,8.688,8.688,8.688c4.798,0,8.688-3.89,8.688-8.688v-31.195
	c12.364,1.575,23.705,6.459,33.107,13.742l-22.038,22.038c-3.393,3.393-3.393,8.894,0,12.286c1.696,1.697,3.92,2.545,6.143,2.545
	s4.447-0.848,6.143-2.545l22.038-22.038c7.283,9.402,12.166,20.742,13.742,33.107h-31.194c-4.798,0-8.688,3.89-8.688,8.688
	C282.955,374.898,286.845,378.787,291.643,378.787z"/>
<circle cx="255.016" cy="370.1" r="8.688"/>
</svg>