<?xml version="1.0" encoding="iso-8859-1"?>
<!-- Uploaded to: SVG Repo, www.svgrepo.com, Generator: SVG Repo Mixer Tools -->
<svg fill="#000000" height="800px" width="800px" version="1.1" id="Layer_1" xmlns="http://www.w3.org/2000/svg" xmlns:xlink="http://www.w3.org/1999/xlink" 
	 viewBox="0 0 512 512" xml:space="preserve">
<g>
	<g>
		<path d="M83.478,367.304c-9.22,0-16.696,7.475-16.696,16.696c0,16.186,0,30.586,0,50.087h33.391c0-19.368,0-33.83,0-50.087
			C100.174,374.78,92.699,367.304,83.478,367.304z"/>
	</g>
</g>
<g>
	<g>
		<path d="M150.261,367.304c-9.22,0-16.696,7.475-16.696,16.696c0,16.186,0,30.586,0,50.087h33.391c0-19.368,0-33.83,0-50.087
			C166.957,374.78,159.481,367.304,150.261,367.304z"/>
	</g>
</g>
<g>
	<g>
		<path d="M283.826,267.13c-9.22,0-16.696,7.475-16.696,16.696c0,16.186,0,30.586,0,50.087h33.391c0-16.186,0-30.586,0-50.087
			C300.522,274.606,293.047,267.13,283.826,267.13z"/>
	</g>
</g>
<g>
	<g>
		<path d="M417.391,367.304c-9.22,0-16.696,7.475-16.696,16.696c0,19.368,0,33.83,0,50.087h33.391c0-16.186,0-30.586,0-50.087
			C434.087,374.78,426.612,367.304,417.391,367.304z"/>
	</g>
</g>
<g>
	<g>
		<path d="M510.237,309.75l-33.391-66.782c-2.827-5.656-8.608-9.229-14.933-9.229h-94.609v-16.696v-33.391
			c0-37.739-45.59-66.056-66.783-77.18v-39.69h16.696c9.22,0,16.696-7.475,16.696-16.696s-7.475-16.696-16.696-16.696h-16.696
			V16.696c0-9.22-7.475-16.696-16.696-16.696c-9.22,0-16.696,7.475-16.696,16.696v16.696h-16.696
			c-9.22,0-16.696,7.475-16.696,16.696s7.475,16.696,16.696,16.696h16.696v39.69c-21.192,11.124-66.783,39.441-66.783,77.18v33.391
			v1.928c-6.833-6.55-14.693-13.055-23.602-19.504c-16.613-12.025-33.091-21.106-43.18-26.257v-39.646h16.696
			c9.22,0,16.696-7.475,16.696-16.696s-7.475-16.696-16.696-16.696h-16.696V83.478c0-9.22-7.475-16.696-16.696-16.696
			s-16.696,7.475-16.696,16.696v16.696H83.478c-9.22,0-16.696,7.475-16.696,16.696s7.475,16.696,16.696,16.696h16.696v39.646
			c-10.09,5.151-26.568,14.231-43.181,26.257C19.176,226.843,0,255.225,0,283.826v33.391v178.087C0,504.525,7.475,512,16.696,512
			c50.847,0,411.977,0,467.478,0c9.22,0,16.696-7.475,16.696-16.696V332.95c3.536-1.251,6.607-3.671,8.637-6.956
			C512.549,321.072,512.825,314.926,510.237,309.75z M200.348,478.609H33.391V333.913h166.957V478.609z M200.348,300.522H33.391
			v-16.696c0-33.145,56.043-67.962,83.489-81.688c27.459,13.696,83.467,48.441,83.467,81.688V300.522z M333.913,478.609H233.739
			c0-4.774,0-241.115,0-244.87h100.174C333.913,237.615,333.913,473.947,333.913,478.609z M333.913,200.348H233.739v-16.696
			c0-15.998,27.8-36.783,50.086-48.247c22.297,11.471,50.088,32.252,50.088,48.247V200.348z M467.478,478.609H367.304V333.913
			h100.174V478.609z M367.304,300.522V267.13h84.29l16.696,33.391H367.304z"/>
	</g>
</g>
</svg>