<?xml version="1.0" encoding="iso-8859-1"?>
<!-- Uploaded to: SVG Repo, www.svgrepo.com, Generator: SVG Repo Mixer Tools -->
<svg fill="#000000" height="800px" width="800px" version="1.1" id="Layer_1" xmlns="http://www.w3.org/2000/svg" xmlns:xlink="http://www.w3.org/1999/xlink" 
	 viewBox="0 0 512 512" xml:space="preserve">
<g>
	<g>
		<path d="M495.304,239.304h-17.32c-8.152-109.417-95.763-197.129-205.289-205.289v-17.32C272.696,7.475,265.22,0,256,0
			c-9.22,0-16.696,7.475-16.696,16.696v17.32C129.878,42.168,42.174,129.79,34.016,239.304h-17.32C7.475,239.304,0,246.78,0,256
			c0,9.22,7.475,16.696,16.696,16.696h17.32c8.152,109.418,95.763,197.129,205.289,205.289v17.32c0,9.22,7.475,16.696,16.696,16.696
			c9.22,0,16.696-7.475,16.696-16.696v-17.32c109.427-8.152,197.13-95.774,205.289-205.289h17.32c9.22,0,16.696-7.475,16.696-16.696
			C512,246.78,504.525,239.304,495.304,239.304z M444.472,239.304H410.93c-3.26-30.468-15.34-58.335-33.627-80.996l23.711-23.711
			C425.226,163.472,440.989,199.651,444.472,239.304z M272.696,67.527c39.653,3.484,75.834,19.246,104.707,43.459l-23.711,23.711
			c-22.662-18.287-50.528-30.366-80.996-33.627V67.527z M305.329,281.718c1.504-2.872,2.773-5.885,3.761-9.022h68.202
			c-2.917,21.297-11.329,40.865-23.759,57.226L305.329,281.718z M329.922,353.533c-16.361,12.43-35.929,20.842-57.226,23.759V309.09
			c3.138-0.988,6.151-2.257,9.022-3.761L329.922,353.533z M309.09,239.304c-0.988-3.138-2.257-6.151-3.761-9.022l48.204-48.204
			c12.43,16.361,20.842,35.929,23.759,57.226H309.09z M272.696,134.708c21.297,2.917,40.865,11.329,57.226,23.759l-48.204,48.204
			c-2.872-1.504-5.885-2.773-9.022-3.761V134.708z M239.304,67.527v33.543c-30.468,3.26-58.335,15.34-80.996,33.627l-23.711-23.711
			C163.472,86.773,199.651,71.011,239.304,67.527z M202.91,272.696c0.988,3.138,2.257,6.151,3.761,9.022l-48.204,48.204
			c-12.43-16.361-20.842-35.929-23.759-57.226H202.91z M134.708,239.304c2.917-21.297,11.329-40.865,23.759-57.226l48.203,48.204
			c-1.503,2.872-2.771,5.885-3.76,9.022H134.708z M182.078,158.467c16.361-12.43,35.929-20.842,57.226-23.759v68.202
			c-3.138,0.988-6.151,2.257-9.022,3.761L182.078,158.467z M110.986,134.597l23.711,23.711
			c-18.287,22.662-30.366,50.528-33.627,80.996H67.527C71.011,199.651,86.773,163.47,110.986,134.597z M67.527,272.696h33.543
			c3.26,30.468,15.34,58.335,33.627,80.996l-23.711,23.711C86.773,348.528,71.011,312.349,67.527,272.696z M239.304,444.473
			c-39.653-3.484-75.834-19.246-104.707-43.459l23.711-23.711c22.662,18.287,50.528,30.366,80.996,33.627V444.473z M239.304,377.292
			c-21.297-2.917-40.865-11.329-57.226-23.759l48.204-48.204c2.872,1.504,5.885,2.773,9.022,3.761V377.292z M256,278.261
			c-12.268,0-22.261-9.995-22.261-22.261c0-12.268,9.995-22.261,22.261-22.261c12.268,0,22.261,9.995,22.261,22.261
			C278.261,268.268,268.266,278.261,256,278.261z M272.696,444.473V410.93c30.468-3.26,58.335-15.34,80.996-33.627l23.711,23.711
			C348.528,425.227,312.349,440.989,272.696,444.473z M401.014,377.403l-23.711-23.711c18.287-22.663,30.366-50.528,33.627-80.997
			h33.543C440.989,312.349,425.227,348.53,401.014,377.403z"/>
	</g>
</g>
</svg>