<?xml version="1.0" encoding="iso-8859-1"?>
<!-- Uploaded to: SVG Repo, www.svgrepo.com, Generator: SVG Repo Mixer Tools -->
<svg fill="#000000" height="800px" width="800px" version="1.1" id="Layer_1" xmlns="http://www.w3.org/2000/svg" xmlns:xlink="http://www.w3.org/1999/xlink" 
	 viewBox="0 0 512 512" xml:space="preserve">
<g>
	<g>
		<path d="M509.497,52.618c-2.343-2.253-5.802-2.897-8.799-1.641c-38.082,15.963-78.309,24.057-119.565,24.057H130.866
			c-20.434,0-40.95-2.044-60.975-6.077c-20.03-4.036-39.742-10.085-58.591-17.98c-3-1.256-6.453-0.61-8.797,1.641
			c-2.343,2.252-3.124,5.68-1.989,8.725c13.666,36.63,43.392,65.399,80.2,78.014v36.353c0,4.501,3.648,8.151,8.151,8.151h18.018
			v42.584H88.865c-4.502,0-8.151,3.649-8.151,8.151v36.08c0,4.501,3.648,8.151,8.151,8.151h18.018v174.679
			c0,4.501,3.648,8.151,8.151,8.151h38.828c4.502,0,8.151-3.649,8.151-8.151V242.742H281.49c0.003,0,0.008,0,0.011,0
			c0.004,0,0.009,0,0.013,0h68.474v19.784H181.031c-4.502,0-8.151,3.649-8.151,8.151s3.648,8.151,8.151,8.151h168.958v174.679
			c0,4.501,3.648,8.151,8.151,8.151h38.828c4.502,0,8.151-3.649,8.151-8.151v-85.278c0-4.501-3.648-8.151-8.151-8.151
			c-4.502,0-8.151,3.649-8.151,8.151v77.128H366.29V183.863h22.527V341.06c0,4.501,3.648,8.151,8.151,8.151
			c4.502,0,8.151-3.649,8.151-8.151v-60.507h18.018c4.502,0,8.151-3.649,8.151-8.151v-36.08c0-4.501-3.648-8.151-8.151-8.151
			h-18.018v-44.309h18.018c4.502,0,8.151-3.649,8.151-8.151v-36.351c11.419-3.895,22.242-9.358,32.238-16.3
			c22.001-15.267,38.586-36.607,47.959-61.715C512.622,58.299,511.84,54.869,509.497,52.618z M106.883,262.525h-9.868v-19.779h9.868
			V262.525z M145.712,445.354h-22.527V183.861h22.527V445.354z M222.981,226.439h-60.968v-42.579h64.465L222.981,226.439z
			 M239.335,226.439l3.497-42.579h26.334l3.497,42.579H239.335z M349.988,226.439L349.988,226.439h-60.969l-3.497-42.579h64.466
			V226.439z M414.986,244.472v19.779h-9.868v-19.779H414.986z M454.231,109.669c-10.244,7.113-21.466,12.461-33.356,15.894
			c-0.129,0.038-0.259,0.078-0.386,0.122c-10.25,2.937-20.86,4.426-31.541,4.426H174.501c-4.502,0-8.151,3.649-8.151,8.151
			c0,4.501,3.648,8.151,8.151,8.151h214.448c8.762,0,17.48-0.895,26.038-2.633v23.781H276.859c-0.017,0-0.035,0-0.052,0h-41.628
			c-0.01,0-0.02,0-0.029,0H97.015v-23.78c8.553,1.737,17.271,2.632,26.038,2.632h24.278c4.502,0,8.151-3.649,8.151-8.151
			c0-4.501-3.648-8.151-8.151-8.151h-24.278c-10.822,0-21.56-1.526-31.918-4.535C62.875,117.378,38.9,98.424,24.205,73.352
			c13.879,4.81,28.096,8.691,42.467,11.586c21.084,4.245,42.682,6.398,64.194,6.398h250.267c36.568,0,72.366-6.04,106.697-17.979
			C479.469,87.708,468.075,100.062,454.231,109.669z"/>
	</g>
</g>
</svg>