<?xml version="1.0" encoding="iso-8859-1"?>
<!-- Uploaded to: SVG Repo, www.svgrepo.com, Generator: SVG Repo Mixer Tools -->
<svg fill="#000000" height="800px" width="800px" version="1.1" id="Layer_1" xmlns="http://www.w3.org/2000/svg" xmlns:xlink="http://www.w3.org/1999/xlink" 
	 viewBox="0 0 512.002 512.002" xml:space="preserve">
<g>
	<g>
		<path d="M495.304,239.305h-17.542c-8.209-109.798-95.234-196.855-205.067-205.067V16.696C272.696,7.474,265.223,0,256,0
			c-9.223,0-16.696,7.473-16.696,16.696v17.542C129.506,42.446,42.449,129.471,34.237,239.305H16.696C7.473,239.305,0,246.777,0,256
			c0,9.223,7.473,16.696,16.696,16.696h17.542c8.209,109.798,95.234,196.855,205.067,205.067v17.542
			c0,9.223,7.473,16.696,16.696,16.696c9.223,0,16.696-7.473,16.696-16.696v-17.542c109.798-8.209,196.855-95.234,205.067-205.067
			h17.542c9.223,0,16.696-7.473,16.696-16.696C512,246.777,504.527,239.305,495.304,239.305z M239.304,117.969v85.22
			c-3.081,0.977-6.023,2.184-8.846,3.659l-60.196-60.198C189.778,131.313,213.439,121.082,239.304,117.969z M146.653,170.259
			l60.196,60.198c-1.475,2.824-2.682,5.767-3.66,8.848H117.97C121.084,213.438,131.316,189.777,146.653,170.259z M117.969,272.696
			h85.22c0.977,3.081,2.184,6.023,3.659,8.846l-60.198,60.196C131.314,322.222,121.082,298.561,117.969,272.696z M239.305,394.03
			L239.305,394.03c-25.867-3.113-49.528-13.345-69.046-28.683l60.198-60.196c2.824,1.475,5.767,2.682,8.848,3.66V394.03z
			 M272.695,117.97L272.695,117.97c25.867,3.113,49.528,13.345,69.046,28.683l-60.198,60.196c-2.824-1.475-5.767-2.682-8.848-3.66
			V117.97z M272.696,394.031v-85.22c3.081-0.977,6.023-2.184,8.846-3.659l60.196,60.198
			C322.222,380.686,298.561,390.918,272.696,394.031z M365.346,341.741l-60.196-60.198c1.475-2.824,2.682-5.767,3.66-8.848h85.219
			C390.916,298.563,380.684,322.223,365.346,341.741z M308.811,239.305c-0.977-3.081-2.184-6.023-3.659-8.846l60.198-60.196
			c15.337,19.516,25.568,43.177,28.681,69.042H308.811z"/>
	</g>
</g>
</svg>