<?xml version="1.0" encoding="iso-8859-1"?>
<!-- Uploaded to: SVG Repo, www.svgrepo.com, Generator: SVG Repo Mixer Tools -->
<svg fill="#000000" height="800px" width="800px" version="1.1" id="Layer_1" xmlns="http://www.w3.org/2000/svg" xmlns:xlink="http://www.w3.org/1999/xlink" 
	 viewBox="0 0 511.999 511.999" xml:space="preserve">
<g>
	<g>
		<path d="M444.581,249.088c-4.233-2.279-9.513-0.693-11.792,3.54c-15.61,29.007-38.38,54.012-65.848,72.313
			c-28.086,18.714-60.673,30.073-94.238,32.85c-4.515,0.374-7.988,4.146-7.988,8.676v80.406h-17.411v-18.779
			c0-4.808-3.896-8.705-8.705-8.705s-8.705,3.898-8.705,8.705v18.779h-4.66c-26.88,0-48.748,21.868-48.748,48.749v7.67
			c0,4.808,3.896,8.705,8.705,8.705h141.635c4.809,0,8.705-3.898,8.705-8.705v-7.67c0-26.88-21.868-48.749-48.747-48.749h-4.659
			v-72.542c33.663-4.058,66.17-16.046,94.47-34.901c29.835-19.878,54.568-47.041,71.526-78.552
			C450.399,256.647,448.814,251.367,444.581,249.088z M286.782,464.286c16.934,0,30.773,13.499,31.321,30.303h-124.19
			c0.548-16.804,14.387-30.303,31.319-30.303H286.782z"/>
	</g>
</g>
<g>
	<g>
		<path d="M88.687,21.631L69.607,2.55c-3.401-3.4-8.912-3.4-12.312,0L38.214,21.63c-6.743,6.741-10.455,15.703-10.455,25.237
			s3.712,18.497,10.453,25.237c6.741,6.741,15.703,10.453,25.237,10.453c9.533,0,18.496-3.712,25.237-10.453
			C102.602,58.188,102.602,35.546,88.687,21.631z M76.375,59.793c-3.453,3.453-8.043,5.354-12.924,5.354
			c-4.883,0-9.473-1.901-12.927-5.354c-3.453-3.452-5.353-8.043-5.353-12.926c0-4.882,1.901-9.473,5.354-12.926L63.45,21.016
			l12.926,12.926c3.453,3.453,5.354,8.043,5.354,12.926S79.829,56.341,76.375,59.793z"/>
	</g>
</g>
<g>
	<g>
		<path d="M184.966,21.631L165.885,2.55c-3.401-3.4-8.912-3.4-12.312,0l-19.082,19.081c-13.915,13.916-13.915,36.558,0,50.474
			c6.741,6.741,15.704,10.453,25.237,10.453c9.534,0,18.497-3.712,25.237-10.453C198.881,58.188,198.881,35.546,184.966,21.631z
			 M172.656,59.793c-3.453,3.453-8.043,5.354-12.926,5.354s-9.473-1.901-12.926-5.354c-7.128-7.127-7.128-18.723,0-25.851
			l12.926-12.926l12.926,12.926C179.784,41.069,179.784,52.665,172.656,59.793z"/>
	</g>
</g>
<g>
	<g>
		<path d="M377.525,21.631L358.444,2.55c-3.401-3.4-8.912-3.4-12.312,0l-19.081,19.081c-13.915,13.916-13.915,36.558,0,50.474
			c6.739,6.741,15.702,10.453,25.236,10.453c9.534,0,18.497-3.712,25.237-10.453C391.439,58.188,391.439,35.546,377.525,21.631z
			 M365.213,59.793c-3.453,3.453-8.043,5.354-12.926,5.354s-9.473-1.901-12.926-5.354c-7.127-7.127-7.127-18.723,0-25.851
			l12.926-12.926l12.926,12.926C372.341,41.069,372.341,52.665,365.213,59.793z"/>
	</g>
</g>
<g>
	<g>
		<path d="M281.246,21.631L262.164,2.55c-3.401-3.4-8.912-3.4-12.312,0l-19.081,19.081c-13.915,13.916-13.915,36.558,0,50.474
			c6.74,6.741,15.703,10.453,25.237,10.453c9.534,0,18.497-3.712,25.237-10.453C295.16,58.188,295.16,35.546,281.246,21.631z
			 M268.934,59.793c-3.453,3.453-8.043,5.354-12.926,5.354c-4.883,0-9.473-1.901-12.926-5.354c-7.128-7.127-7.128-18.723,0-25.851
			l12.926-12.926l12.926,12.926C276.062,41.069,276.062,52.665,268.934,59.793z"/>
	</g>
</g>
<g>
	<g>
		<path d="M473.803,21.631L454.722,2.55c-3.401-3.4-8.912-3.4-12.312,0L423.33,21.631c-13.915,13.916-13.915,36.558,0,50.474
			c6.74,6.741,15.702,10.453,25.236,10.453c9.534,0,18.497-3.712,25.237-10.453C487.718,58.188,487.718,35.546,473.803,21.631z
			 M461.491,59.793c-3.453,3.453-8.043,5.354-12.926,5.354c-4.883,0-9.473-1.901-12.926-5.354c-7.127-7.127-7.127-18.723,0-25.851
			l12.926-12.926l12.926,12.926C468.619,41.069,468.619,52.665,461.491,59.793z"/>
	</g>
</g>
<g>
	<g>
		<path d="M475.386,130.374h-1.37v-25.768c0-4.808-3.896-8.705-8.705-8.705H430.49c-4.809,0-8.705,3.898-8.705,8.705v25.768h-0.547
			c-4.809,0-8.705,3.898-8.705,8.705c0,4.808,3.896,8.705,8.705,8.705h0.547v10.11c0,41.321-15.356,80.933-43.24,111.537
			c-25.511,28.002-59.46,46.308-96.417,52.183v-40.447c26.166-5.633,49.998-19.708,67.734-40.149
			c19.599-22.586,30.392-51.468,30.392-81.325v-11.909h1.114c4.809,0,8.705-3.898,8.705-8.705c0-4.808-3.896-8.705-8.705-8.705
			h-1.114v-25.768c0-4.808-3.897-8.705-8.705-8.705h-34.821c-4.809,0-8.705,3.898-8.705,8.705v25.768h-0.801
			c-4.809,0-8.705,3.898-8.705,8.705c0,4.808,3.896,8.705,8.705,8.705h0.801v11.909c0,29.775-18.754,56.437-45.895,67.079v-78.987
			h0.952c4.809,0,8.705-3.898,8.705-8.705c0-4.808-3.896-8.705-8.705-8.705h-0.952v-25.768c0-4.808-3.896-8.705-8.705-8.705h-34.821
			c-4.809,0-8.705,3.898-8.705,8.705v25.768h-0.963c-4.809,0-8.705,3.898-8.705,8.705c0,4.808,3.896,8.705,8.705,8.705h0.963v78.988
			c-27.141-10.64-45.895-37.303-45.895-67.08v-11.909h1.056c4.809,0,8.705-3.898,8.705-8.705c0-4.808-3.896-8.705-8.705-8.705
			h-1.056v-25.768c0-4.808-3.896-8.705-8.705-8.705h-34.821c-4.809,0-8.705,3.898-8.705,8.705v25.768h-0.846
			c-4.809,0-8.705,3.898-8.705,8.705s3.896,8.705,8.705,8.705h0.846v11.909c0,29.864,10.792,58.747,30.389,81.33
			c17.734,20.438,41.569,34.513,67.738,40.145v40.447c-36.958-5.877-70.906-24.182-96.417-52.183
			c-27.883-30.606-43.24-70.217-43.24-111.537v-10.11h0.952c4.809,0,8.705-3.898,8.705-8.705s-3.897-8.705-8.705-8.705h-0.952
			v-25.768c0-4.808-3.896-8.705-8.705-8.705H46.713c-4.809,0-8.705,3.898-8.705,8.705v25.768h-0.963
			c-4.809,0-8.705,3.898-8.705,8.705s3.897,8.705,8.705,8.705h0.963v10.11c0,54.981,20.607,107.525,58.024,147.953
			c35.373,38.219,82.654,62.349,133.865,68.494v24.738c0,4.808,3.896,8.705,8.705,8.705s8.705-3.898,8.705-8.705v-32.604
			c0-4.529-3.473-8.301-7.988-8.676c-49.92-4.131-96.268-26.781-130.509-63.776c-34.43-37.201-53.392-85.546-53.392-136.127v-10.11
			h17.411v10.11c0,45.668,16.968,89.444,47.781,123.263c30.6,33.587,72.199,54.548,117.131,59.019
			c2.444,0.244,4.881-0.558,6.704-2.209c1.822-1.651,2.862-3.994,2.862-6.454V273.92c0-4.303-3.144-7.96-7.398-8.607
			c-24.974-3.793-47.917-16.471-64.601-35.699c-16.849-19.418-26.128-44.249-26.128-69.92v-11.909h17.411v11.909
			c0,20.46,7.119,40.472,20.044,56.349c12.733,15.639,30.522,26.632,50.089,30.953c2.576,0.566,5.271-0.061,7.329-1.714
			c2.056-1.653,3.253-4.148,3.253-6.787v-90.71h17.411v90.71c0,2.638,1.197,5.135,3.255,6.787c2.056,1.652,4.751,2.281,7.328,1.714
			c19.564-4.321,37.352-15.313,50.085-30.953c12.929-15.879,20.048-35.89,20.048-56.349v-11.909h17.411v11.909
			c0,25.666-9.28,50.494-26.132,69.915c-16.686,19.231-39.628,31.911-64.596,35.703c-4.254,0.647-7.398,4.304-7.398,8.607v57.594
			c0,2.458,1.04,4.803,2.862,6.454c1.822,1.651,4.257,2.453,6.704,2.209c44.932-4.471,86.531-25.431,117.131-59.019
			c30.812-33.818,47.781-77.595,47.781-123.263v-10.11h17.411v10.11c0,23.289-3.97,46.106-11.8,67.816
			c-1.631,4.522,0.714,9.511,5.237,11.143c4.517,1.631,9.511-0.713,11.143-5.236c8.514-23.61,12.832-48.413,12.832-73.723v-10.11
			h1.37c4.809,0,8.705-3.898,8.705-8.705C484.092,134.273,480.194,130.374,475.386,130.374z M72.827,130.374H55.417v-17.062h17.411
			V130.374z M166.591,130.374H149.18v-17.062h17.411V130.374z M264.717,130.374h-17.411v-17.062h17.411V130.374z M345.433,130.374
			v-17.062h17.411v17.062H345.433z M456.606,130.374h-17.411v-17.062h17.411V130.374z"/>
	</g>
</g>
</svg>