<?xml version="1.0" encoding="iso-8859-1"?>
<!-- Uploaded to: SVG Repo, www.svgrepo.com, Generator: SVG Repo Mixer Tools -->
<svg height="800px" width="800px" version="1.1" id="Layer_1" xmlns="http://www.w3.org/2000/svg" xmlns:xlink="http://www.w3.org/1999/xlink" 
	 viewBox="0 0 512 512" xml:space="preserve">
<path style="fill:#E6E6E6;" d="M103.752,159.634l2.915,26.752L142.189,512h227.609l35.534-325.614l2.915-26.752H103.752z"/>
<g>
	<polygon style="fill:#CCCCCC;" points="408.248,159.634 405.333,186.386 106.667,186.386 103.752,159.634 	"/>
	<polygon style="fill:#CCCCCC;" points="103.752,159.634 142.189,512 175.773,512 145.565,159.634 	"/>
</g>
<polygon style="fill:#F7B239;" points="324.732,261.6 324.732,315.092 282.752,315.092 282.752,443.748 229.248,443.748 
	229.248,315.092 187.268,315.092 187.268,261.6 229.248,261.6 229.248,213.138 282.752,213.138 282.752,261.6 "/>
<g>
	<path style="fill:#CCCCCC;" d="M156.199,118.429c-5.095,0-9.225-4.13-9.225-9.225V59.39c0-2.979,1.439-5.775,3.863-7.507
		l25.83-18.45c4.146-2.962,9.908-2.001,12.868,2.145s2.001,9.908-2.145,12.868l-21.966,15.691v45.067
		C165.424,114.299,161.294,118.429,156.199,118.429z"/>
	<path style="fill:#CCCCCC;" d="M355.802,118.429c-5.095,0-9.225-4.13-9.225-9.225V64.138l-21.966-15.691
		c-4.146-2.962-5.106-8.723-2.145-12.868s8.724-5.106,12.868-2.145l25.83,18.45c2.424,1.732,3.863,4.528,3.863,7.507v49.814
		C365.027,114.299,360.897,118.429,355.802,118.429z"/>
</g>
<g>
	<path style="fill:#F95428;" d="M215.939,7.029c9.372,9.36,9.372,24.551,0,33.911c-9.36,9.372-24.551,9.372-33.911,0
		c-9.372-9.36-9.372-24.551,0-33.911C191.389-2.343,206.579-2.343,215.939,7.029z"/>
	<path style="fill:#F95428;" d="M329.971,7.029c9.36,9.36,9.36,24.551,0,33.911c-9.372,9.372-24.551,9.372-33.923,0
		c-9.36-9.36-9.36-24.551,0-33.911C305.421-2.343,320.599-2.343,329.971,7.029z"/>
</g>
<polygon style="fill:#F7B239;" points="426.894,109.204 426.894,160.864 408.248,160.864 103.752,160.864 85.106,160.864 
	85.106,109.204 156.199,109.204 355.801,109.204 "/>
<polygon style="fill:#E09B2D;" points="118.242,109.204 118.242,160.864 116.435,160.864 86.914,160.864 85.106,160.864 
	85.106,109.204 91.999,109.204 111.35,109.204 "/>
</svg>