<?xml version="1.0" encoding="iso-8859-1"?>
<!-- Uploaded to: SVG Repo, www.svgrepo.com, Generator: SVG Repo Mixer Tools -->
<svg fill="#000000" height="800px" width="800px" version="1.1" id="Layer_1" xmlns="http://www.w3.org/2000/svg" xmlns:xlink="http://www.w3.org/1999/xlink" 
	 viewBox="0 0 511.999 511.999" xml:space="preserve">
<g>
	<g>
		<path d="M489.94,478.58h-16.71V216.789c0-27.643-22.487-50.13-50.13-50.13H289.42c-27.643,0-50.13,22.487-50.13,50.13v53.209
			c-5.253-1.873-10.823-3.079-16.71-3.079H88.899c-27.643,0-50.13,22.487-50.13,50.13v161.53h-16.71
			c-9.231,0-16.71,7.479-16.71,16.71c0,9.231,7.479,16.71,16.71,16.71H489.94c9.231,0,16.71-7.479,16.71-16.71
			C506.65,486.059,499.171,478.58,489.94,478.58z M239.29,383.889L239.29,383.889c0,9.214-7.496,16.71-16.71,16.71
			c-9.214,0-16.71-7.496-16.71-16.71v-33.42c0-9.231-7.479-16.71-16.71-16.71c-9.231,0-16.71,7.479-16.71,16.71
			c0,9.214-7.496,16.71-16.71,16.71c-9.214,0-16.71-7.496-16.71-16.71v-50.13h83.55c9.214,0,16.71,7.496,16.71,16.71V383.889z
			 M439.81,317.049L439.81,317.049c0,9.214-7.496,16.71-16.71,16.71s-16.71-7.496-16.71-16.71v-66.84
			c0-9.231-7.479-16.71-16.71-16.71c-9.231,0-16.71,7.479-16.71,16.71c0,9.214-7.496,16.71-16.71,16.71s-16.71-7.496-16.71-16.71
			v-50.13h83.55c9.214,0,16.71,7.496,16.71,16.71V317.049z"/>
	</g>
</g>
<g>
	<g>
		<path d="M370.011,6.772c-6.244-9.029-21.257-9.029-27.503,0c-10.938,15.84-36.379,54.977-36.379,76.337
			c0,27.644,22.487,50.13,50.13,50.13s50.13-22.487,50.13-50.13C406.39,61.748,380.95,22.611,370.011,6.772z M356.26,99.819
			c-9.214,0-16.71-7.496-16.71-16.688c0.136-5.108,7.088-19.674,16.716-35.89c9.617,16.199,16.563,30.75,16.704,35.879
			C372.965,92.329,365.47,99.819,356.26,99.819z"/>
	</g>
</g>
<g>
	<g>
		<path d="M169.491,107.032c-6.244-9.029-21.257-9.029-27.503,0c-10.938,15.84-36.379,54.977-36.379,76.337
			c0,27.644,22.487,50.13,50.13,50.13s50.13-22.487,50.13-50.13C205.87,162.008,180.429,122.871,169.491,107.032z M155.74,200.079
			c-9.214,0-16.71-7.496-16.71-16.688c0.136-5.108,7.088-19.674,16.716-35.89c9.617,16.199,16.563,30.75,16.704,35.879
			C172.444,192.59,164.949,200.079,155.74,200.079z"/>
	</g>
</g>
</svg>