<?xml version="1.0" encoding="iso-8859-1"?>
<!-- Uploaded to: SVG Repo, www.svgrepo.com, Generator: SVG Repo Mixer Tools -->
<svg fill="#000000" height="800px" width="800px" version="1.1" id="Layer_1" xmlns="http://www.w3.org/2000/svg" xmlns:xlink="http://www.w3.org/1999/xlink" 
	 viewBox="0 0 512 512" xml:space="preserve">
<g>
	<g>
		<path d="M504.161,447.935L270.422,47.24c-6.448-11.051-22.423-11.006-28.843,0L7.839,447.935
			c-6.479,11.105,1.543,25.108,14.422,25.108h467.478C502.597,473.043,510.65,459.059,504.161,447.935z M256,88.787l105.392,180.671
			c-28.169-15.84-64.838-30.155-105.392-30.155c-40.553,0-77.223,14.315-105.392,30.155L256,88.787z M256,272.696
			c54.17,0,102.125,32.097,124.748,50.087C358.125,340.773,310.17,372.87,256,372.87c-54.178,0-102.137-32.105-124.749-50.086
			C153.872,304.794,201.826,272.696,256,272.696z M51.329,439.652l54.89-94.098c24.188,20.107,81.48,60.706,149.781,60.706
			s125.595-40.599,149.781-60.708l54.891,94.099H51.329z"/>
	</g>
</g>
<g>
	<g>
		<path d="M256,272.696c-27.618,0-50.087,22.469-50.087,50.087S228.382,372.87,256,372.87c27.618,0,50.087-22.469,50.087-50.087
			S283.618,272.696,256,272.696z M256,339.478c-9.206,0-16.696-7.49-16.696-16.696c0-9.206,7.49-16.696,16.696-16.696
			s16.696,7.49,16.696,16.696C272.696,331.989,265.206,339.478,256,339.478z"/>
	</g>
</g>
<g>
	<g>
		<path d="M150.261,38.957c-9.22,0-16.696,7.475-16.696,16.696v33.391c0,9.22,7.475,16.696,16.696,16.696
			s16.696-7.475,16.696-16.696V55.652C166.957,46.432,159.481,38.957,150.261,38.957z"/>
	</g>
</g>
<g>
	<g>
		<path d="M50.087,172.522H16.696C7.475,172.522,0,179.997,0,189.217s7.475,16.696,16.696,16.696h33.391
			c9.22,0,16.696-7.475,16.696-16.696S59.307,172.522,50.087,172.522z"/>
	</g>
</g>
<g>
	<g>
		<path d="M91.232,106.578L67.621,82.967c-6.519-6.519-17.091-6.519-23.611,0c-6.519,6.519-6.519,17.091,0,23.611l23.611,23.611
			c6.52,6.52,17.091,6.52,23.611,0C97.751,123.67,97.751,113.099,91.232,106.578z"/>
	</g>
</g>
<g>
	<g>
		<path d="M361.739,38.957c-9.22,0-16.696,7.475-16.696,16.696v33.391c0,9.22,7.475,16.696,16.696,16.696
			s16.696-7.475,16.696-16.696V55.652C378.435,46.432,370.96,38.957,361.739,38.957z"/>
	</g>
</g>
<g>
	<g>
		<path d="M495.304,172.522h-33.391c-9.22,0-16.696,7.475-16.696,16.696s7.475,16.696,16.696,16.696h33.391
			c9.22,0,16.696-7.475,16.696-16.696S504.525,172.522,495.304,172.522z"/>
	</g>
</g>
<g>
	<g>
		<path d="M467.989,82.967c-6.519-6.519-17.091-6.519-23.611,0l-23.611,23.611c-6.52,6.519-6.52,17.091,0,23.611
			c6.521,6.52,17.092,6.519,23.611,0l23.611-23.611C474.509,100.059,474.509,89.488,467.989,82.967z"/>
	</g>
</g>
</svg>