<?xml version="1.0" encoding="iso-8859-1"?>
<!-- Uploaded to: SVG Repo, www.svgrepo.com, Generator: SVG Repo Mixer Tools -->
<svg fill="#000000" height="800px" width="800px" version="1.1" id="Layer_1" xmlns="http://www.w3.org/2000/svg" xmlns:xlink="http://www.w3.org/1999/xlink" 
	 viewBox="0 0 512.001 512.001" xml:space="preserve">
<g>
	<g>
		<path d="M456.347,211.478H406.26V50.087C406.26,22.468,383.793,0,356.173,0H155.826c-27.619,0-50.087,22.468-50.087,50.087
			v161.391H55.652c-9.223,0-16.696,7.473-16.696,16.696c0,9.223,7.473,16.696,16.696,16.696h38.78
			c-5.772,21.384-0.557,45.139,16.199,61.891c5.767,5.767,8.94,13.434,8.94,21.587s-3.174,15.821-8.94,21.587
			c-24.924,24.919-24.924,65.473,0,90.391c11.902,11.902,11.902,31.272,0,43.174c-6.521,6.516-6.521,17.092,0,23.609
			c3.261,3.261,7.533,4.892,11.804,4.892c4.271,0,8.544-1.631,11.804-4.892c24.924-24.919,24.924-65.473,0-90.391
			c-5.767-5.767-8.94-13.434-8.94-21.587s3.174-15.821,8.94-21.587c24.924-24.919,24.924-65.473,0-90.391
			c-10.385-10.385-11.698-26.448-3.962-38.283h231.285c-5.772,21.384-0.557,45.139,16.199,61.891
			c5.767,5.767,8.94,13.434,8.94,21.587s-3.174,15.821-8.94,21.587c-24.924,24.919-24.924,65.473,0,90.391
			c11.902,11.902,11.902,31.272,0,43.174c-6.521,6.516-6.521,17.092,0,23.609c3.261,3.261,7.533,4.892,11.804,4.892
			s8.544-1.631,11.804-4.892c24.924-24.919,24.924-65.473,0-90.391c-5.767-5.767-8.94-13.434-8.94-21.587s3.174-15.821,8.94-21.587
			c24.924-24.919,24.924-65.473,0-90.391c-10.385-10.385-11.698-26.448-3.962-38.283h58.942c9.217,0,16.696-7.473,16.696-16.696
			C473.045,218.951,465.564,211.478,456.347,211.478z M372.869,211.478H139.13v-33.391h233.739V211.478z"/>
	</g>
</g>
</svg>