<?xml version="1.0" encoding="iso-8859-1"?>
<!-- Uploaded to: SVG Repo, www.svgrepo.com, Generator: SVG Repo Mixer Tools -->
<svg height="800px" width="800px" version="1.1" id="Layer_1" xmlns="http://www.w3.org/2000/svg" xmlns:xlink="http://www.w3.org/1999/xlink" 
	 viewBox="0 0 512 512" xml:space="preserve">
<path style="fill:#FFC033;" d="M422.957,211.478h-80.837c18.869-28.359,30.75-63.527,30.75-94.609C372.87,52.429,320.445,0,256,0
	S139.13,52.429,139.13,116.87c0,31.082,11.881,66.249,30.75,94.609H89.043c-9.217,0-16.696,7.473-16.696,16.696v66.783
	c0,9.223,7.479,16.696,16.696,16.696h116.87v183.652c0,9.223,7.479,16.696,16.696,16.696h66.783c9.217,0,16.696-7.473,16.696-16.696
	V311.652h116.87c9.217,0,16.696-7.473,16.696-16.696v-66.783C439.652,218.951,432.174,211.478,422.957,211.478z M263.402,198.146
	c-2.337,1.152-4.87,1.729-7.402,1.729c-2.532,0-5.065-0.577-7.402-1.729c-18.816-9.304-42.685-49.435-42.685-81.277
	c0-27.619,22.468-50.087,50.087-50.087s50.087,22.468,50.087,50.087C306.087,148.712,282.218,188.842,263.402,198.146z"/>
<path style="fill:#F9A926;" d="M422.957,211.478h-80.837c18.869-28.359,30.75-63.527,30.75-94.609C372.87,52.429,320.445,0,256,0
	v66.783c27.619,0,50.087,22.468,50.087,50.087c0,31.842-23.869,71.973-42.685,81.277c-2.337,1.152-4.87,1.729-7.402,1.729V512
	h33.391c9.217,0,16.696-7.473,16.696-16.696V311.652h116.87c9.217,0,16.696-7.473,16.696-16.696v-66.783
	C439.652,218.951,432.174,211.478,422.957,211.478z"/>
</svg>