<?xml version="1.0" encoding="iso-8859-1"?>
<!-- Uploaded to: SVG Repo, www.svgrepo.com, Generator: SVG Repo Mixer Tools -->
<svg fill="#000000" height="800px" width="800px" version="1.1" id="Layer_1" xmlns="http://www.w3.org/2000/svg" xmlns:xlink="http://www.w3.org/1999/xlink" 
	 viewBox="0 0 512 512" xml:space="preserve">
<g>
	<g>
		<path d="M477.937,249.755c-18.381,18.38-42.817,28.502-68.809,28.502h-36.256v-79.112
			c56.562-8.126,100.175-56.899,100.175-115.674c0-14.816-17.99-22.316-28.501-11.806c-18.381,18.38-42.817,28.502-68.809,28.502
			H331.72l-61.827-92.74c-6.599-9.903-21.182-9.903-27.783,0l-61.827,92.74h-44.017c-25.993,0-50.429-10.122-68.809-28.501
			C56.96,61.169,38.955,68.635,38.955,83.471c0,19.269,4.794,38.376,13.865,55.256c17.752,33.034,49.895,55.182,86.31,60.415v79.115
			h-36.259c-25.993,0-50.429-10.122-68.809-28.501c-10.476-10.477-28.501-3.059-28.501,11.805c0,19.269,4.794,38.377,13.865,55.256
			c17.752,33.034,49.895,55.182,86.31,60.415v118.072c0,9.221,7.474,16.696,16.696,16.696h267.135
			c9.221,0,16.696-7.475,16.696-16.696V377.235c56.562-8.126,100.175-56.9,100.175-115.674
			C506.438,246.745,488.448,239.245,477.937,249.755z M256,46.787l35.588,53.38h-71.175L256,46.787z M82.231,122.921
			c-0.229-0.426-0.454-0.855-0.676-1.284c16.933,7.81,35.504,11.923,54.708,11.923c7.353,0,230.585,0,239.472,0
			c19.186,0,37.743-4.107,54.664-11.903c-13.884,26.879-41.943,45.295-74.224,45.295H155.823
			C125.025,166.951,96.827,150.079,82.231,122.921z M256,233.735c-9.221,0-16.696,7.475-16.696,16.696v27.827H172.52v-77.914
			h166.959v77.914h-66.784v-27.827C272.696,241.21,265.22,233.735,256,233.735z M372.871,478.608h-50.088V428.52
			c0-9.221-7.475-16.696-16.696-16.696c-9.221,0-16.696,7.475-16.696,16.696v50.088h-66.784V428.52
			c0-9.221-7.475-16.696-16.696-16.696s-16.696,7.475-16.696,16.696v50.088h-50.088V378.432h233.743V478.608z M389.566,345.041
			H122.431c-30.798,0-58.997-16.872-73.592-44.03c-0.229-0.426-0.454-0.855-0.676-1.284c16.933,7.81,35.504,11.923,54.708,11.923
			c10.117,0,291.576,0,306.255,0c19.186,0,37.743-4.107,54.664-11.903C449.906,326.625,421.847,345.041,389.566,345.041z"/>
	</g>
</g>
</svg>