<?xml version="1.0" encoding="iso-8859-1"?>
<!-- Uploaded to: SVG Repo, www.svgrepo.com, Generator: SVG Repo Mixer Tools -->
<svg height="800px" width="800px" version="1.1" id="Layer_1" xmlns="http://www.w3.org/2000/svg" xmlns:xlink="http://www.w3.org/1999/xlink" 
	 viewBox="0 0 512 512" xml:space="preserve">
<path style="fill:#999999;" d="M132.241,82.55L132.241,82.55c-68.3,0-123.669,55.369-123.669,123.669v223.402H255.91V206.219
	C255.91,137.919,200.543,82.55,132.241,82.55z"/>
<path style="fill:#B3B3B3;" d="M503.249,374.205V206.219c0-68.3-55.369-123.669-123.669-123.669l0,0
	c-68.3,0-123.669,55.369-123.669,123.669v223.402h247.338V403.08L503.249,374.205L503.249,374.205z"/>
<path d="M503.338,377.006c4.785,0,8.662-3.878,8.662-8.662v-162.21c0-72.967-59.363-132.331-132.331-132.331
	c-56.392,0-104.65,35.462-123.669,85.252c-19.018-49.791-67.276-85.252-123.668-85.252C59.363,73.803,0,133.167,0,206.134v25.921
	c0,4.784,3.878,8.662,8.662,8.662s8.662-3.878,8.662-8.662v-25.921c0-63.415,51.592-115.007,115.007-115.007
	s115.006,51.591,115.006,115.007v214.739H17.325V260.93c0-4.784-3.878-8.662-8.662-8.662S0,256.146,0,260.93v168.605
	c0,4.784,3.878,8.662,8.662,8.662h494.675c4.785,0,8.662-3.878,8.662-8.662v-32.317c0-4.784-3.877-8.662-8.662-8.662
	s-8.662,3.878-8.662,8.662v23.654H264.663V206.134c0-63.415,51.591-115.007,115.006-115.007s115.007,51.591,115.007,115.007v162.21
	C494.675,373.128,498.554,377.006,503.338,377.006z"/>
<path d="M457.053,196.408H302.284c-4.785,0-8.662,3.878-8.662,8.662c0,4.784,3.877,8.662,8.662,8.662h154.768
	c4.785,0,8.662-3.878,8.662-8.662C465.715,200.286,461.838,196.408,457.053,196.408z"/>
<path d="M457.053,277.065H302.284c-4.785,0-8.662,3.878-8.662,8.662s3.877,8.662,8.662,8.662h154.768
	c4.785,0,8.662-3.878,8.662-8.662S461.838,277.065,457.053,277.065z"/>
<path d="M457.053,236.737H367.65c-4.785,0-8.662,3.878-8.662,8.662s3.877,8.662,8.662,8.662h89.403c4.785,0,8.662-3.878,8.662-8.662
	S461.838,236.737,457.053,236.737z"/>
<path d="M302.284,254.061h36.491c4.785,0,8.662-3.878,8.662-8.662s-3.877-8.662-8.662-8.662h-36.491
	c-4.785,0-8.662,3.878-8.662,8.662S297.5,254.061,302.284,254.061z"/>
<path d="M457.053,317.393h-27.421c-4.785,0-8.662,3.878-8.662,8.662c0,4.784,3.877,8.662,8.662,8.662h27.421
	c4.785,0,8.662-3.878,8.662-8.662C465.715,321.271,461.838,317.393,457.053,317.393z"/>
<path d="M302.284,334.718h98.473c4.785,0,8.662-3.878,8.662-8.662c0-4.784-3.877-8.662-8.662-8.662h-98.473
	c-4.785,0-8.662,3.878-8.662,8.662C293.622,330.839,297.5,334.718,302.284,334.718z"/>
<path d="M302.284,375.046h154.768c4.785,0,8.662-3.878,8.662-8.662c0-4.784-3.877-8.662-8.662-8.662H302.284
	c-4.785,0-8.662,3.878-8.662,8.662C293.622,371.168,297.5,375.046,302.284,375.046z"/>
<path d="M101.809,205.07c0,4.784,3.878,8.662,8.662,8.662h99.243c4.784,0,8.662-3.878,8.662-8.662c0-4.784-3.878-8.662-8.662-8.662
	h-99.243C105.687,196.408,101.809,200.286,101.809,205.07z"/>
<path d="M54.947,213.733h26.65c4.784,0,8.662-3.878,8.662-8.662c0-4.784-3.878-8.662-8.662-8.662h-26.65
	c-4.784,0-8.662,3.878-8.662,8.662C46.285,209.854,50.163,213.733,54.947,213.733z"/>
<path d="M209.716,277.065h-45.344c-4.784,0-8.662,3.878-8.662,8.662s3.878,8.662,8.662,8.662h45.344
	c4.784,0,8.662-3.878,8.662-8.662S214.5,277.065,209.716,277.065z"/>
<path d="M54.947,294.39h80.55c4.784,0,8.662-3.878,8.662-8.662s-3.878-8.662-8.662-8.662h-80.55c-4.784,0-8.662,3.878-8.662,8.662
	S50.163,294.39,54.947,294.39z"/>
<path d="M54.947,254.061h154.768c4.784,0,8.662-3.878,8.662-8.662s-3.878-8.662-8.662-8.662H54.947
	c-4.784,0-8.662,3.878-8.662,8.662S50.163,254.061,54.947,254.061z"/>
<path d="M54.947,334.718h154.768c4.784,0,8.662-3.878,8.662-8.662c0-4.784-3.878-8.662-8.662-8.662H54.947
	c-4.784,0-8.662,3.878-8.662,8.662C46.285,330.839,50.163,334.718,54.947,334.718z"/>
<path d="M209.716,357.721H128.18c-4.784,0-8.662,3.878-8.662,8.662c0,4.784,3.878,8.662,8.662,8.662h81.534
	c4.784,0,8.662-3.878,8.662-8.662C218.377,361.6,214.5,357.721,209.716,357.721z"/>
<path d="M54.947,375.046h44.358c4.784,0,8.662-3.878,8.662-8.662c0-4.784-3.878-8.662-8.662-8.662H54.947
	c-4.784,0-8.662,3.878-8.662,8.662C46.285,371.168,50.163,375.046,54.947,375.046z"/>
<path d="M379.67,116.714c-4.785,0-8.662,3.878-8.662,8.662v10.395h-6.354c-4.785,0-8.662,3.878-8.662,8.662s3.877,8.662,8.662,8.662
	h6.354v21.945c0,4.784,3.877,8.662,8.662,8.662s8.662-3.878,8.662-8.662v-21.945h6.351c4.785,0,8.662-3.878,8.662-8.662
	s-3.877-8.662-8.662-8.662h-6.351v-10.395C388.332,120.592,384.455,116.714,379.67,116.714z"/>
<path d="M132.331,116.714c-4.784,0-8.662,3.878-8.662,8.662v10.395h-6.352c-4.784,0-8.662,3.878-8.662,8.662
	s3.878,8.662,8.662,8.662h6.352v21.945c0,4.784,3.878,8.662,8.662,8.662c4.784,0,8.662-3.878,8.662-8.662v-21.945h6.352
	c4.784,0,8.662-3.878,8.662-8.662s-3.878-8.662-8.662-8.662h-6.352v-10.395C140.994,120.592,137.115,116.714,132.331,116.714z"/>
</svg>