<?xml version="1.0" encoding="iso-8859-1"?>
<!-- Uploaded to: SVG Repo, www.svgrepo.com, Generator: SVG Repo Mixer Tools -->
<svg fill="#000000" height="800px" width="800px" version="1.1" id="Layer_1" xmlns="http://www.w3.org/2000/svg" xmlns:xlink="http://www.w3.org/1999/xlink" 
	 viewBox="0 0 512.001 512.001" xml:space="preserve">
<g>
	<g>
		<path d="M256,72.348c-141.163,0-256,114.843-256,256v94.609c0,9.223,7.479,16.696,16.696,16.696h478.609
			c9.217,0,16.696-7.473,16.696-16.696v-94.609C512,187.191,397.163,72.348,256,72.348z M182.318,180.046
			c2.876-4.994,8.202-8.073,13.965-8.073h30.698l14.445-24.904c2.884-4.971,8.195-8.031,13.942-8.031
			c5.747,0,11.058,3.06,13.942,8.031l14.445,24.904h30.698c5.764,0,11.089,3.079,13.966,8.073
			c2.876,4.994,2.867,11.145-0.024,16.131l-15.3,26.378l15.3,26.378c2.893,4.985,2.901,11.136,0.024,16.131
			c-2.877,4.994-8.202,8.073-13.966,8.073h-30.698l-14.445,24.904c-2.884,4.971-8.195,8.031-13.942,8.031
			c-5.747,0-11.058-3.06-13.942-8.031l-14.445-24.904h-30.698c-5.764,0-11.089-3.079-13.965-8.073
			c-2.877-4.994-2.868-11.145,0.023-16.131l15.301-26.378l-15.301-26.378C179.449,191.192,179.44,185.041,182.318,180.046z
			 M33.391,406.261V372.87h445.217v33.391H33.391z"/>
	</g>
</g>
<g>
	<g>
		<polygon points="265.188,204.208 245.549,204.208 234.906,222.556 245.549,240.905 265.188,240.905 275.83,222.556 		"/>
	</g>
</g>
</svg>