<?xml version="1.0" encoding="iso-8859-1"?>
<!-- Uploaded to: SVG Repo, www.svgrepo.com, Generator: SVG Repo Mixer Tools -->
<svg fill="#000000" height="800px" width="800px" version="1.1" id="Layer_1" xmlns="http://www.w3.org/2000/svg" xmlns:xlink="http://www.w3.org/1999/xlink" 
	 viewBox="0 0 511.999 511.999" xml:space="preserve">
<g>
	<g>
		<path d="M510.232,309.749l-33.391-66.782c-2.826-5.658-8.608-9.228-14.935-9.228H367.3v-50.086
			c0-37.744-45.594-66.058-66.782-77.179v-39.69h16.695c9.217,0,16.695-7.473,16.695-16.695c0-9.223-7.478-16.695-16.695-16.695
			h-16.695V16.699c0-9.223-7.478-16.695-16.695-16.695c-9.217,0-16.695,7.473-16.695,16.695v16.695h-16.695
			c-9.217,0-16.695,7.473-16.695,16.695c0,9.223,7.478,16.695,16.695,16.695h16.695v39.69
			c-21.188,11.12-66.782,39.436-66.782,77.179v33.391v1.918c-22.823-22.068-51.445-38.099-66.782-45.807v-39.588h16.695
			c9.217,0,16.695-7.473,16.695-16.695s-7.478-16.695-16.695-16.695h-16.695V83.48c0-9.223-7.478-16.695-16.695-16.695
			c-9.217,0-16.695,7.473-16.695,16.695v16.695H83.477c-9.217,0-16.695,7.473-16.695,16.695s7.478,16.695,16.695,16.695h16.695
			v39.588C72.285,187.17,0,228.776,0,283.826c0,82.499,0,132.214,0,211.475c0,9.223,7.478,16.695,16.695,16.695h467.472
			c9.217,0,16.695-7.473,16.695-16.695v-162.47C510.977,329.22,514.473,318.23,510.232,309.749z M66.782,434.084v-50.086
			c0-9.223,7.478-16.695,16.695-16.695c9.217,0,16.695,7.473,16.695,16.695v50.086H66.782z M133.563,434.084v-50.086
			c0-9.223,7.478-16.695,16.695-16.695c9.217,0,16.695,7.473,16.695,16.695v50.086H133.563z M200.345,300.521H33.391v-16.695
			c0-33.136,56.01-67.945,83.477-81.684c27.467,13.739,83.477,48.548,83.477,81.684V300.521z M267.127,333.912v-50.086
			c0-9.223,7.478-16.695,16.695-16.695c9.217,0,16.695,7.473,16.695,16.695v50.086H267.127z M233.736,200.348v-16.695
			c0-16,27.803-36.782,50.097-48.254c22.293,11.424,50.075,32.173,50.075,48.254v16.695H233.736z M400.69,434.084v-50.086
			c0-9.223,7.478-16.695,16.695-16.695c9.217,0,16.695,7.473,16.695,16.695v50.086H400.69z M367.3,300.521V267.13h84.292
			l16.695,33.391H367.3z"/>
	</g>
</g>
</svg>