<?xml version="1.0" encoding="iso-8859-1"?>
<!-- Uploaded to: SVG Repo, www.svgrepo.com, Generator: SVG Repo Mixer Tools -->
<svg height="800px" width="800px" version="1.1" id="Layer_1" xmlns="http://www.w3.org/2000/svg" xmlns:xlink="http://www.w3.org/1999/xlink" 
	 viewBox="0 0 512 512" xml:space="preserve">
<polygon style="fill:#E09B2D;" points="293.075,246.218 293.075,348.887 340.024,363.208 340.024,441.626 293.075,427.304 
	293.075,512 218.938,512 218.938,404.681 171.976,390.359 171.976,311.942 218.938,326.263 218.938,246.218 98.037,246.218 
	98.037,170.86 218.938,170.86 218.938,123.208 171.976,123.208 171.976,49.071 218.938,49.071 218.938,0 293.075,0 293.075,49.071 
	340.024,49.071 340.024,123.208 293.075,123.208 293.075,170.86 413.963,170.86 413.963,246.218 "/>
<polygon style="fill:#F7B239;" points="232.507,498.431 232.507,394.633 185.545,380.31 185.545,330.266 232.507,344.587 
	232.507,232.649 111.606,232.649 111.606,184.429 232.507,184.429 232.507,109.639 185.545,109.639 185.545,62.64 232.507,62.64 
	232.507,13.569 279.505,13.569 279.505,62.64 326.455,62.64 326.455,109.639 279.505,109.639 279.505,184.429 400.394,184.429 
	400.394,232.649 279.505,232.649 279.505,358.934 326.455,373.256 326.455,423.3 279.505,408.978 279.505,498.431 "/>
</svg>