<?xml version="1.0" encoding="iso-8859-1"?>
<!-- Uploaded to: SVG Repo, www.svgrepo.com, Generator: SVG Repo Mixer Tools -->
<svg fill="#000000" height="800px" width="800px" version="1.1" id="Layer_1" xmlns="http://www.w3.org/2000/svg" xmlns:xlink="http://www.w3.org/1999/xlink" 
	 viewBox="0 0 512.002 512.002" xml:space="preserve">
<g>
	<g>
		<path d="M422.957,178.087h-116.87v-33.391h50.087c9.223,0,16.696-7.473,16.696-16.696V61.217c0-9.223-7.473-16.696-16.696-16.696
			h-50.087V16.696C306.087,7.473,298.613,0,289.39,0h-66.783c-9.223,0-16.696,7.473-16.696,16.696v27.826h-50.087
			c-9.223,0-16.696,7.473-16.696,16.696V128c0,9.223,7.473,16.696,16.696,16.696h50.087v33.391H89.043
			c-9.223,0-16.696,7.473-16.696,16.696v66.783c0,9.223,7.473,16.696,16.696,16.696h116.87v41.511l-47.342-7.891
			c-4.853-0.804-9.794,0.56-13.538,3.729c-3.745,3.173-5.902,7.831-5.902,12.739v66.783c0,8.163,5.902,15.125,13.951,16.467
			l52.832,8.804v74.902c0,9.223,7.473,16.696,16.696,16.696h66.783c9.223,0,16.696-7.473,16.696-16.696v-58.207l47.342,7.891
			c10.079,1.682,19.44-6.072,19.44-16.467V361.74c0-8.163-5.902-15.125-13.951-16.468l-52.832-8.804v-58.207h116.87
			c9.223,0,16.696-7.473,16.696-16.696v-66.783C439.652,185.56,432.178,178.087,422.957,178.087z"/>
	</g>
</g>
</svg>