<?xml version="1.0" encoding="iso-8859-1"?>
<!-- Uploaded to: SVG Repo, www.svgrepo.com, Generator: SVG Repo Mixer Tools -->
<svg height="800px" width="800px" version="1.1" id="Layer_1" xmlns="http://www.w3.org/2000/svg" xmlns:xlink="http://www.w3.org/1999/xlink" 
	 viewBox="0 0 512 512" xml:space="preserve">
<g>
	<polygon style="fill:#E09B2D;" points="335.499,503.178 176.316,503.178 255.907,428.719 	"/>
	<polygon style="fill:#E09B2D;" points="255.907,197.879 255.907,428.719 176.316,503.178 176.316,277.471 250.764,197.879 	"/>
	<polygon style="fill:#E09B2D;" points="378.003,197.879 452.463,277.471 335.499,277.471 261.039,197.879 	"/>
	<polygon style="fill:#E09B2D;" points="250.764,197.879 176.316,277.471 59.352,277.471 133.799,197.879 	"/>
	<polygon style="fill:#E09B2D;" points="59.352,118.287 133.799,197.879 59.352,277.471 	"/>
	<polygon style="fill:#E09B2D;" points="255.907,83.457 255.907,197.879 250.764,197.879 176.316,118.287 176.316,8.997 	"/>
</g>
<g>
	<polygon style="fill:#F7B239;" points="335.499,8.997 255.907,83.457 176.316,8.997 	"/>
	<polygon style="fill:#F7B239;" points="335.499,277.471 335.499,503.178 255.907,428.719 255.907,197.879 261.039,197.879 	"/>
	<polygon style="fill:#F7B239;" points="452.463,118.287 378.003,197.879 261.039,197.879 335.499,118.287 	"/>
	<polygon style="fill:#F7B239;" points="452.463,118.287 452.463,277.471 378.003,197.879 	"/>
	<polygon style="fill:#F7B239;" points="176.316,118.287 250.764,197.879 133.799,197.879 59.352,118.287 	"/>
	<polygon style="fill:#F7B239;" points="335.499,8.997 335.499,118.287 261.039,197.879 255.907,197.879 255.907,83.457 	"/>
</g>
<path d="M452.556,109.29H344.501V8.91c0-4.92-3.989-8.91-8.91-8.91H176.408c-4.92,0-8.91,3.989-8.91,8.91V109.29H59.444
	c-4.92,0-8.91,3.989-8.91,8.91v159.183c0,4.92,3.989,8.91,8.91,8.91h108.055V503.09c0,4.92,3.989,8.909,8.91,8.909h159.183
	c4.92,0,8.91-3.989,8.91-8.909V388.583c0-4.92-3.989-8.91-8.91-8.91c-4.92,0-8.91,3.989-8.91,8.91v93.97l-61.773-57.789V214.871
	l61.773,66.03v77.984c0,4.92,3.989,8.91,8.91,8.91c4.92,0,8.91-3.989,8.91-8.91v-72.594h108.055c4.92,0,8.909-3.989,8.909-8.91
	V118.2C461.465,113.279,457.476,109.29,452.556,109.29z M390.296,197.791l53.35-57.027v114.054L390.296,197.791z M432.02,127.109
	l-57.789,61.773h-92.563l57.789-61.773H432.02z M185.318,280.9l61.773-66.041v209.906l-61.773,57.789V280.9z M185.318,29.445
	l61.773,57.789v93.488l-61.773-66.041V29.445z M326.682,114.682l-61.773,66.03V87.235l61.773-57.789V114.682z M256,71.169
	l-57.027-53.35h114.052L256,71.169z M256,440.831l57.027,53.35H198.974L256,440.831z M121.692,197.791l-53.338,57.024V140.768
	L121.692,197.791z M79.978,268.473l57.78-61.773h16.848c4.92,0,8.91-3.989,8.91-8.91s-3.989-8.91-8.91-8.91h-16.848l-57.78-61.773
	h92.565l57.78,61.773h-46.018c-4.92,0-8.91,3.989-8.91,8.91s3.989,8.91,8.91,8.91h46.018l-57.78,61.773H79.978z M339.457,268.473
	l-57.789-61.773h92.563l57.789,61.773H339.457z"/>
</svg>