<?xml version="1.0" encoding="iso-8859-1"?>
<!-- Uploaded to: SVG Repo, www.svgrepo.com, Generator: SVG Repo Mixer Tools -->
<svg fill="#000000" height="800px" width="800px" version="1.1" id="Layer_1" xmlns="http://www.w3.org/2000/svg" xmlns:xlink="http://www.w3.org/1999/xlink" 
	 viewBox="0 0 512.001 512.001" xml:space="preserve">
<g>
	<g>
		<path d="M509.626,81.138c-1.973-6.073-7.222-10.499-13.542-11.416l-57.415-8.343L412.993,9.351C410.168,3.625,404.336,0,397.951,0
			s-12.217,3.625-15.043,9.35l-25.677,52.028l-57.415,8.343c-6.318,0.917-11.569,5.343-13.542,11.416
			c-1.974,6.074-0.328,12.74,4.244,17.196l41.546,40.499l-9.808,57.183c-1.079,6.294,1.507,12.654,6.673,16.408
			c5.164,3.751,12.012,4.249,17.666,1.277l51.354-27l51.355,27c5.649,2.969,12.5,2.477,17.666-1.278
			c5.166-3.752,7.753-10.113,6.673-16.407l-9.808-57.183l41.546-40.498C509.954,93.878,511.6,87.212,509.626,81.138z"/>
	</g>
</g>
<g>
	<g>
		<path d="M500.36,299.326c-6.315-3.812-14.383-3.051-19.874,1.879c-36.233,32.524-81.655,48.663-126.99,48.658
			c-48.689-0.003-97.275-18.623-134.208-55.556c-71.321-71.321-74.351-186.054-6.897-261.2c4.928-5.49,5.691-13.556,1.879-19.874
			c-3.813-6.317-11.307-9.398-18.46-7.599c-45.132,11.371-86.233,34.627-118.861,67.255c-100.524,100.524-100.533,263.225,0,363.758
			c100.411,100.412,263.224,100.532,363.757,0c32.626-32.627,55.883-73.729,67.253-118.86
			C509.76,310.631,506.677,303.138,500.36,299.326z"/>
	</g>
</g>
</svg>