<?xml version="1.0" encoding="iso-8859-1"?>
<!-- Uploaded to: SVG Repo, www.svgrepo.com, Generator: SVG Repo Mixer Tools -->
<svg fill="#000000" height="800px" width="800px" version="1.1" id="Layer_1" xmlns="http://www.w3.org/2000/svg" xmlns:xlink="http://www.w3.org/1999/xlink" 
	 viewBox="0 0 512 512" xml:space="preserve">
<g>
	<g>
		<path d="M422.957,345.043h-18.443l-29.682-267.13h14.733c9.217,0,16.696-7.473,16.696-16.696c0-9.223-7.479-16.696-16.696-16.696
			h-116.87V16.696C272.696,7.473,265.217,0,256,0c-9.217,0-16.696,7.473-16.696,16.696v27.826h-116.87
			c-9.217,0-16.696,7.473-16.696,16.696c0,9.223,7.479,16.696,16.696,16.696h14.733l-29.682,267.13H89.044
			c-9.217,0-16.696,7.473-16.696,16.696c0,9.223,7.479,16.696,16.696,16.696h51.243c-0.688,3.56-1.156,7.137-1.156,10.744
			C139.13,456.902,191.555,512,256,512s116.87-55.098,116.87-122.821c0-3.609-0.469-7.186-1.156-10.744h51.243
			c9.217,0,16.696-7.473,16.696-16.696C439.652,352.516,432.174,345.043,422.957,345.043z M189.216,445.217
			c-9.22,0-16.696-7.475-16.696-16.696s7.475-16.696,16.696-16.696c9.221,0,16.696,7.475,16.696,16.696
			C205.913,437.742,198.438,445.217,189.216,445.217z M256,445.217c-9.22,0-16.696-7.475-16.696-16.696s7.475-16.696,16.696-16.696
			s16.696,7.475,16.696,16.696C272.695,437.742,265.22,445.217,256,445.217z M322.783,445.217c-9.22,0-16.696-7.475-16.696-16.696
			s7.475-16.696,16.696-16.696c9.221,0,16.696,7.475,16.696,16.696C339.478,437.742,332.003,445.217,322.783,445.217z
			 M358.48,345.043L358.48,345.043c-1.418-2.66-2.855-5.31-4.295-7.94c-7.228-13.201-14.707-26.853-14.707-36.472
			c0-38.023-25.136-78.648-66.783-87.373v-35.171h16.696c9.217,0,16.696-7.473,16.696-16.696c0-9.223-7.479-16.696-16.696-16.696
			h-16.696V128c0-9.223-7.479-16.696-16.696-16.696s-16.696,7.473-16.696,16.696v16.696h-16.696
			c-9.217,0-16.696,7.473-16.696,16.696c0,9.223,7.479,16.696,16.696,16.696h16.696v35.171
			c-41.647,8.724-66.783,49.349-66.783,87.373c0,9.62-7.479,23.271-14.707,36.473c-1.44,2.63-2.876,5.28-4.295,7.94H141.09
			l29.683-267.132h170.452l29.682,267.13H358.48z"/>
	</g>
</g>
</svg>