<?xml version="1.0" encoding="iso-8859-1"?>
<!-- Uploaded to: SVG Repo, www.svgrepo.com, Generator: SVG Repo Mixer Tools -->
<svg height="800px" width="800px" version="1.1" id="Layer_1" xmlns="http://www.w3.org/2000/svg" xmlns:xlink="http://www.w3.org/1999/xlink" 
	 viewBox="0 0 512.001 512.001" xml:space="preserve">
<polygon style="fill:#F7B239;" points="220.314,246.647 220.314,345.735 175.003,359.557 175.003,435.239 220.314,421.417 
	220.314,503.159 291.865,503.159 291.865,399.583 337.189,385.759 337.189,310.078 291.865,323.9 291.865,246.647 408.55,246.647 
	408.55,173.917 291.865,173.917 291.865,127.926 337.189,127.926 337.189,56.375 291.865,56.375 291.865,9.016 220.314,9.016 
	220.314,56.375 175.003,56.375 175.003,127.926 220.314,127.926 220.314,173.917 103.642,173.917 103.642,246.647 "/>
<polygon style="fill:#E09B2D;" points="220.314,246.647 220.314,345.735 175.003,359.557 175.003,435.239 220.314,421.417 
	220.314,503.159 262.102,503.159 279.964,503.159 230.982,9.017 220.314,9.016 220.314,56.375 175.003,56.375 175.003,127.926 
	220.314,127.926 220.314,173.917 103.642,173.917 103.642,246.647 "/>
<path d="M151.723,237.632h68.502c4.932,0,8.929,3.998,8.929,8.929v99.082c0,3.928-2.567,7.394-6.324,8.54l-38.991,11.897v57.013
	l33.78-10.306c2.705-0.826,5.644-0.321,7.918,1.364c2.274,1.685,3.616,4.347,3.616,7.177v72.815h53.693v-35.095
	c0-4.931,3.998-8.929,8.929-8.929c4.931,0,8.929,3.998,8.929,8.929v44.024c0,4.931-3.998,8.929-8.929,8.929h-71.551
	c-4.932,0-8.929-3.998-8.929-8.929v-69.686l-33.78,10.306c-2.707,0.826-5.646,0.319-7.918-1.364
	c-2.274-1.685-3.616-4.347-3.616-7.177v-75.683c0-3.928,2.567-7.394,6.324-8.54l38.991-11.897v-83.541h-59.573
	c-4.932,0-8.929-3.998-8.929-8.929C142.794,241.631,146.792,237.632,151.723,237.632z"/>
<path d="M103.546,164.893h107.751v-28.13H174.91c-4.932,0-8.929-3.998-8.929-8.929V56.281c0-4.931,3.997-8.929,8.929-8.929h36.386
	V8.929c0-4.931,3.997-8.929,8.929-8.929h71.551c4.931,0,8.929,3.998,8.929,8.929v38.423h36.386c4.931,0,8.929,3.998,8.929,8.929
	v71.552c0,4.931-3.998,8.929-8.929,8.929h-36.386v28.13h107.75c4.931,0,8.929,3.998,8.929,8.929v72.738
	c0,4.931-3.998,8.929-8.929,8.929h-107.75v56.263l33.78-10.306c2.705-0.826,5.643-0.32,7.918,1.364
	c2.274,1.685,3.616,4.347,3.616,7.177v75.683c0,3.928-2.567,7.394-6.324,8.54l-38.991,11.897v23.176
	c0,4.931-3.998,8.929-8.929,8.929c-4.931,0-8.929-3.998-8.929-8.929v-29.788c0-3.928,2.567-7.394,6.324-8.54l38.991-11.897v-57.014
	l-33.78,10.306c-2.707,0.827-5.646,0.32-7.918-1.364c-2.274-1.685-3.616-4.347-3.616-7.177v-77.253c0-4.931,3.998-8.929,8.929-8.929
	h107.75v-54.88h-107.75c-4.931,0-8.929-3.998-8.929-8.929v-45.988c0-4.931,3.998-8.929,8.929-8.929h36.386V65.21h-36.386
	c-4.931,0-8.929-3.998-8.929-8.929V17.858h-53.693v38.423c0,4.931-3.997,8.929-8.929,8.929h-36.386v53.694h36.386
	c4.932,0,8.929,3.998,8.929,8.929v45.988c0,4.931-3.997,8.929-8.929,8.929h-107.75v54.88h9.485c4.932,0,8.929,3.998,8.929,8.929
	c0,4.931-3.997,8.929-8.929,8.929h-18.414c-4.932,0-8.929-3.998-8.929-8.929v-72.738C94.617,168.89,98.614,164.893,103.546,164.893z
	"/>
</svg>