<?xml version="1.0" encoding="iso-8859-1"?>
<!-- Uploaded to: SVG Repo, www.svgrepo.com, Generator: SVG Repo Mixer Tools -->
<svg version="1.1" id="Layer_1" xmlns="http://www.w3.org/2000/svg" xmlns:xlink="http://www.w3.org/1999/xlink" 
	 viewBox="0 0 512 512" xml:space="preserve">
<path style="fill:#F9A926;" d="M317.218,33.391h-16.696V16.696C300.522,7.473,293.044,0,283.826,0
	c-9.217,0-16.696,7.473-16.696,16.696v16.696h-16.696c-9.217,0-16.696,7.473-16.696,16.696s7.479,16.696,16.696,16.696h16.696
	v50.087c0,9.223,7.479,16.696,16.696,16.696c9.217,0,16.696-7.473,16.696-16.696V66.783h16.696c9.217,0,16.696-7.473,16.696-16.696
	S326.436,33.391,317.218,33.391z"/>
<path style="fill:#C3CFD9;" d="M484.174,512H350.609c-9.217,0-16.696-7.473-16.696-16.696V317.217
	c0-9.223,7.479-16.696,16.696-16.696h133.565c9.217,0,16.696,7.473,16.696,16.696v178.087C500.87,504.527,493.393,512,484.174,512z"
	/>
<path style="fill:#E15C25;" d="M495.305,333.913H350.609c-9.217,0-16.696-7.473-16.696-16.696v-66.783
	c0-9.223,7.479-16.696,16.696-16.696h111.304c6.327,0,12.109,3.571,14.935,9.228l33.391,66.783
	c2.587,5.173,2.304,11.321-0.728,16.245C506.469,330.919,501.088,333.913,495.305,333.913z"/>
<path style="fill:#DAE1E6;" d="M367.305,512H217.044c-9.22,0-16.696-7.475-16.696-16.696V217.043c0-9.22,7.475-16.696,16.696-16.696
	h133.565c9.22,0,16.696,7.475,16.696,16.696V512z"/>
<path style="fill:#EE6E2F;" d="M367.305,233.739H200.348v-50.087c0-46.358,68.804-78.505,76.652-82.021
	c4.348-1.946,9.304-1.946,13.653,0c7.848,3.516,76.652,35.663,76.652,82.021V233.739z"/>
<g>
	<path style="fill:#5A6680;" d="M428.522,367.304c-9.217,0-16.696,7.473-16.696,16.696v50.087h33.391V384
		C445.218,374.777,437.74,367.304,428.522,367.304z"/>
	<path style="fill:#5A6680;" d="M283.826,267.13c-9.217,0-16.696,7.473-16.696,16.696v50.087h33.391v-50.087
		C300.522,274.603,293.045,267.13,283.826,267.13z"/>
</g>
<path style="fill:#FFC033;" d="M150.261,100.174h-16.696V83.478c0-9.223-7.479-16.696-16.696-16.696s-16.696,7.473-16.696,16.696
	v16.696H83.479c-9.217,0-16.696,7.473-16.696,16.696s7.479,16.696,16.696,16.696h16.696v50.087c0,9.223,7.479,16.696,16.696,16.696
	s16.696-7.473,16.696-16.696v-50.087h16.696c9.217,0,16.696-7.473,16.696-16.696S159.479,100.174,150.261,100.174z"/>
<path style="fill:#EE6E2F;" d="M233.74,300.522v-16.696c0-64.288-98.783-110.369-110.043-115.413c-4.348-1.946-9.304-1.946-13.653,0
	C98.783,173.457,0,219.538,0,283.826v16.696H233.74z"/>
<path style="fill:#EDF0F2;" d="M233.74,512H16.696C7.476,512,0,504.525,0,495.304V300.522H233.74V512z"/>
<rect x="116.87" y="300.522" style="fill:#C3CFD9;" width="116.87" height="211.478"/>
<path style="fill:#5A6680;" d="M150.261,367.304c-9.217,0-16.696,7.473-16.696,16.696v50.087h33.391V384
	C166.957,374.777,159.479,367.304,150.261,367.304z"/>
<path style="fill:#6B7A99;" d="M83.479,367.304c-9.217,0-16.696,7.473-16.696,16.696v50.087h33.391V384
	C100.174,374.777,92.697,367.304,83.479,367.304z"/>
<path style="fill:#F9A926;" d="M150.261,100.174h-16.696V83.478c0-9.223-7.479-16.696-16.696-16.696v133.565
	c9.217,0,16.696-7.473,16.696-16.696v-50.087h16.696c9.217,0,16.696-7.473,16.696-16.696S159.479,100.174,150.261,100.174z"/>
<path style="fill:#E15C25;" d="M233.74,283.826c0-64.288-98.783-110.369-110.043-115.413c-2.174-0.973-4.5-1.459-6.826-1.459
	v133.567h116.87V283.826z"/>
</svg>