<?xml version="1.0" encoding="iso-8859-1"?>
<!-- Uploaded to: SVG Repo, www.svgrepo.com, Generator: SVG Repo Mixer Tools -->
<svg height="800px" width="800px" version="1.1" id="Layer_1" xmlns="http://www.w3.org/2000/svg" xmlns:xlink="http://www.w3.org/1999/xlink" 
	 viewBox="0 0 512 512" xml:space="preserve">
<polygon style="fill:#F7B239;" points="275.693,185.989 260.404,185.989 260.404,165.458 242.288,165.458 242.288,185.989 
	226.781,185.989 226.781,204.105 242.288,204.105 242.288,242.428 260.404,242.428 260.404,204.105 275.693,204.105 "/>
<path style="fill:#B3B3B3;" d="M251.346,85.926c-3.669,0-6.642-2.973-6.642-6.642V6.642c0-3.669,2.973-6.642,6.642-6.642
	c3.669,0,6.642,2.973,6.642,6.642v72.641C257.989,82.953,255.015,85.926,251.346,85.926z"/>
<path style="fill:#F7B239;" d="M260.29,451.867v51.075c0,5-4.046,9.058-9.058,9.058c-5,0-9.058-4.058-9.058-9.058v-51.075
	c0-5,4.058-9.058,9.058-9.058C256.245,442.81,260.29,446.867,260.29,451.867z"/>
<path style="fill:#E09B2D;" d="M260.29,451.867v28.587c-2.983,0.266-6.002,0.399-9.058,0.399s-6.075-0.133-9.058-0.399v-28.587
	c0-5,4.058-9.058,9.058-9.058C256.245,442.81,260.29,446.867,260.29,451.867z"/>
<g>
	<path style="fill:#F7B239;" d="M280.154,102.053c0-15.909-12.897-28.808-28.808-28.808s-28.807,12.898-28.807,28.808"/>
	<path style="fill:#F7B239;" d="M315.411,297.327c0,2.355-0.121,4.722-0.386,7.113l-0.048,0.447H187.718l-0.048-0.447
		c-4.179-37.935,25.519-71.075,63.671-71.075C287.102,233.366,315.411,262.46,315.411,297.327z"/>
	<polygon style="fill:#F7B239;" points="314.976,304.887 352.548,362.858 352.331,362.858 150.146,362.858 187.718,304.887 
		251.978,291.148 	"/>
</g>
<g>
	<path style="fill:#E09B2D;" d="M252.258,233.366C252.258,233.366,252.257,233.366,252.258,233.366
		c-38.153,0-67.851,33.14-63.672,71.075l0.048,0.447h29.93l-0.025-0.447C216.326,266.506,232.053,233.367,252.258,233.366z"/>
	<polygon style="fill:#E09B2D;" points="196.04,362.858 218.564,304.887 187.718,304.887 150.146,362.858 	"/>
</g>
<path style="fill:#F7B239;" d="M150.146,362.858h202.185c0,55.833-45.265,101.086-101.099,101.086S150.146,418.691,150.146,362.858z
	"/>
<path style="fill:#E09B2D;" d="M251.233,463.945c-55.833,0-101.086-45.253-101.086-101.086h45.894
	C196.04,418.691,220.75,463.945,251.233,463.945z"/>
<g>
	<path style="fill:#B3B3B3;" d="M131.365,368.894c-0.426,0-0.857-0.045-1.29-0.139c-3.258-0.709-5.325-3.926-4.616-7.185
		l56.763-260.802c0.709-3.258,3.929-5.321,7.185-4.616c3.258,0.709,5.325,3.926,4.616,7.185L137.26,364.14
		C136.644,366.964,134.143,368.894,131.365,368.894z"/>
	<path style="fill:#B3B3B3;" d="M371.329,368.894c-2.779,0-5.28-1.93-5.895-4.756l-56.763-260.802
		c-0.709-3.258,1.357-6.476,4.616-7.185c3.262-0.708,6.476,1.359,7.185,4.616l56.763,260.802c0.709,3.258-1.357,6.476-4.616,7.185
		C372.186,368.849,371.754,368.894,371.329,368.894z"/>
</g>
<path style="fill:#E09B2D;" d="M338.302,111.111H164.39c-5.002,0-9.058-4.056-9.058-9.058s4.056-9.058,9.058-9.058h173.912
	c5.002,0,9.058,4.056,9.058,9.058S343.305,111.111,338.302,111.111z"/>
<g>
	<circle style="fill:#F95428;" cx="316.556" cy="389.491" r="9.058"/>
	<circle style="fill:#F95428;" cx="251.339" cy="389.491" r="9.058"/>
	<circle style="fill:#F95428;" cx="186.134" cy="389.491" r="9.058"/>
</g>
<g>
	<path style="fill:#E6E6E6;" d="M437.982,63.896c-2.109,0-4.225-0.731-5.94-2.222c-8.121-7.06-18.528-10.949-29.304-10.949H324.84
		c-5.002,0-9.058-4.056-9.058-9.058s4.056-9.058,9.058-9.058h77.898c15.145,0,29.773,5.467,41.191,15.395
		c3.774,3.283,4.174,9.004,0.891,12.779C443.03,62.841,440.512,63.896,437.982,63.896z"/>
	<path style="fill:#E6E6E6;" d="M402.738,158.212h-50.121c-5.002,0-9.058-4.056-9.058-9.058c0-5.002,4.056-9.058,9.058-9.058h50.121
		c24.64,0,44.686-20.046,44.686-44.686c0-3.31-0.362-6.611-1.078-9.809c-1.093-4.882,1.979-9.725,6.862-10.818
		c4.879-1.097,9.725,1.981,10.816,6.861c1.006,4.495,1.516,9.126,1.516,13.764C465.54,130.039,437.367,158.212,402.738,158.212z"/>
	<path style="fill:#E6E6E6;" d="M284.985,158.212h-68.84c-5.002,0-9.058-4.056-9.058-9.058c0-5.002,4.056-9.058,9.058-9.058h68.84
		c5.002,0,9.058,4.056,9.058,9.058C294.043,154.156,289.987,158.212,284.985,158.212z"/>
	<path style="fill:#E6E6E6;" d="M41.957,251.953c-2.618,0-5.215-1.129-7.006-3.31c-9.713-11.831-15.06-26.791-15.06-42.122
		c0-36.627,29.798-66.425,66.425-66.425h62.198c5.002,0,9.058,4.056,9.058,9.058c0,5.002-4.056,9.058-9.058,9.058H86.315
		c-26.638,0-48.309,21.671-48.309,48.309c0,11.151,3.888,22.028,10.947,30.627c3.174,3.867,2.614,9.575-1.254,12.749
		C46.014,251.28,43.979,251.953,41.957,251.953z"/>
	<path style="fill:#E6E6E6;" d="M120.734,272.946h-34.42c-10.116,0-19.833-2.219-28.883-6.593c-4.504-2.178-6.39-7.594-4.211-12.098
		c2.178-4.504,7.594-6.389,12.098-4.211c6.569,3.176,13.634,4.786,20.996,4.786h34.42c5.002,0,9.058,4.056,9.058,9.058
		S125.737,272.946,120.734,272.946z"/>
	<path style="fill:#E6E6E6;" d="M419.646,405.795h-35.628c-5.002,0-9.058-4.056-9.058-9.058c0-5.002,4.056-9.058,9.058-9.058h35.628
		c29.967,0,54.348-24.38,54.348-54.348c0-29.967-24.38-54.348-54.348-54.348h-32.005c-5.002,0-9.058-4.056-9.058-9.058
		c0-5.002,4.056-9.058,9.058-9.058h32.005c39.956,0,72.463,32.507,72.463,72.463S459.602,405.795,419.646,405.795z"/>
</g>
<path style="fill:#E09B2D;" d="M388.705,371.913H113.769c-5.002,0-9.058-4.056-9.058-9.058c0-5.002,4.056-9.058,9.058-9.058h274.936
	c5.002,0,9.058,4.056,9.058,9.058C397.763,367.857,393.708,371.913,388.705,371.913z"/>
</svg>