<?xml version="1.0" encoding="iso-8859-1"?>
<!-- Uploaded to: SVG Repo, www.svgrepo.com, Generator: SVG Repo Mixer Tools -->
<svg height="800px" width="800px" version="1.1" id="Layer_1" xmlns="http://www.w3.org/2000/svg" xmlns:xlink="http://www.w3.org/1999/xlink" 
	 viewBox="0 0 512 512" xml:space="preserve">
<path style="fill:#F7B239;" d="M143.531,9.103v141.221c0,45.935,27.565,85.426,67.052,102.852c-0.025,0.619-0.047,1.238-0.047,1.863
	c0,16.227,8.525,30.456,21.333,38.475v47.293c-12.808,8.02-21.333,22.248-21.333,38.475s8.525,30.456,21.333,38.474v40.849h48.075
	v-40.849c12.808-8.019,21.333-22.248,21.333-38.474s-8.525-30.456-21.333-38.475v-47.293c12.808-8.02,21.333-22.248,21.333-38.475
	c0-0.625-0.022-1.244-0.047-1.863c39.488-17.426,67.052-56.917,67.052-102.852V9.103H143.531z"/>
<path style="fill:#E09B2D;" d="M229.946,379.281c0-16.227,4.877-30.456,12.206-38.475v-47.293
	c-7.329-8.02-12.206-22.248-12.206-38.474c0-0.625,0.012-1.244,0.026-1.863c-22.594-17.426-38.366-56.917-38.366-102.852V9.103
	h-48.075v141.221c0,45.935,27.565,85.426,67.052,102.852c-0.025,0.619-0.047,1.238-0.047,1.863c0,16.227,8.525,30.456,21.333,38.475
	v47.293c-12.808,8.02-21.333,22.248-21.333,38.475s8.525,30.456,21.333,38.474v40.849h10.283v-40.849
	C234.823,409.737,229.946,395.508,229.946,379.281z"/>
<path style="fill:#F7B239;" d="M341.69,503.075H170.122l0,0c0-24.56,19.909-44.469,44.469-44.469h82.629
	C321.781,458.605,341.69,478.516,341.69,503.075L341.69,503.075z"/>
<path style="fill:#E09B2D;" d="M254.254,458.605h-39.662c-24.56,0-44.469,19.909-44.469,44.469l0,0h39.662l0,0
	C209.784,478.516,229.695,458.605,254.254,458.605z"/>
<circle cx="336.261" cy="42.665" r="9.014"/>
<path d="M207.832,33.651c-4.976,0-9.002,4.038-9.002,9.014s4.026,9.014,9.002,9.014c4.988,0,9.014-4.038,9.014-9.014
	S212.82,33.651,207.832,33.651z"/>
<path d="M304.163,51.68c4.977,0,9.014-4.038,9.014-9.014s-4.037-9.014-9.014-9.014c-4.987,0-9.014,4.038-9.014,9.014
	S299.175,51.68,304.163,51.68z"/>
<circle cx="239.943" cy="42.665" r="9.014"/>
<circle cx="175.727" cy="42.665" r="9.014"/>
<path d="M272.049,51.68c4.988,0,9.014-4.038,9.014-9.014s-4.026-9.014-9.014-9.014c-4.976,0-9.014,4.038-9.014,9.014
	S267.073,51.68,272.049,51.68z"/>
<path d="M377.39,91.366V80.503c4.768-0.237,8.563-4.165,8.563-8.991c0-4.827-3.796-8.754-8.563-8.991V9.014
	c0-4.978-4.035-9.014-9.014-9.014H143.624c-4.978,0-9.014,4.036-9.014,9.014V62.52c-4.768,0.237-8.563,4.165-8.563,8.991
	c0,4.827,3.796,8.754,8.563,8.991v10.863c-4.768,0.237-8.563,4.165-8.563,8.991s3.796,8.754,8.563,8.991v40.887
	c0,46.12,26.167,88.131,67.142,108.614c1.101,15.609,8.779,29.809,21.196,39.287v37.87c-13.447,10.263-21.333,26.058-21.333,43.186
	c0,17.127,7.888,32.924,21.333,43.186v27.125h-8.263c-29.492,0-53.484,23.992-53.484,53.484c0,4.978,4.036,9.014,9.014,9.014
	h171.568c4.979,0,9.014-4.036,9.014-9.014c0-29.492-23.993-53.484-53.484-53.484h-8.263v-27.124
	c13.445-10.263,21.333-26.059,21.333-43.186c0-17.128-7.887-32.923-21.333-43.186v-37.87c12.418-9.478,20.097-23.678,21.196-39.287
	c40.974-20.484,67.142-62.495,67.142-108.615v-40.887c4.768-0.237,8.563-4.165,8.563-8.991
	C385.953,95.53,382.158,91.602,377.39,91.366z M331.609,493.972H180.391c3.997-15.199,17.857-26.441,34.294-26.441h17.277h48.075
	h17.277C313.751,467.531,327.612,478.773,331.609,493.972z M240.977,449.502v-22.821h30.047v22.821H240.977z M292.357,379.193
	c0,11.781-5.589,22.621-15.066,29.46h-42.583c-9.477-6.84-15.066-17.68-15.066-29.46c0-11.781,5.59-22.619,15.067-29.46h42.581
	C286.768,356.573,292.357,367.412,292.357,379.193z M240.977,302.439h30.047v29.265h-30.047V302.439z M277.291,284.411h-42.583
	c-7.519-5.428-12.586-13.373-14.36-22.309h71.303C289.877,271.038,284.81,278.984,277.291,284.411z M299.341,244.074H212.66
	c-36.518-16.89-60.022-53.514-60.022-93.839v-40.864h163.459c4.979,0,9.014-4.036,9.014-9.014c0-4.978-4.035-9.014-9.014-9.014
	H152.639V80.526h48.079c4.978,0,9.014-4.036,9.014-9.014c0-4.978-4.036-9.014-9.014-9.014h-48.079V18.028h206.723v44.469H230.764
	c-4.978,0-9.014,4.036-9.014,9.014c0,4.978,4.036,9.014,9.014,9.014h128.597v10.817h-13.217c-4.979,0-9.014,4.036-9.014,9.014
	c0,4.978,4.035,9.014,9.014,9.014h13.217v40.864C359.362,190.56,335.858,227.183,299.341,244.074z"/>
</svg>