<?xml version="1.0" encoding="iso-8859-1"?>
<!-- Uploaded to: SVG Repo, www.svgrepo.com, Generator: SVG Repo Mixer Tools -->
<svg fill="#000000" height="800px" width="800px" version="1.1" id="Layer_1" xmlns="http://www.w3.org/2000/svg" xmlns:xlink="http://www.w3.org/1999/xlink" 
	 viewBox="0 0 512 512" xml:space="preserve">
<g>
	<g>
		<path d="M512,183.652c0-23.06-15.666-42.53-36.913-48.329c2.272-5.713,3.522-11.94,3.522-18.453
			c0-27.618-22.469-50.087-50.087-50.087h-86.339c1.852-5.224,2.861-10.844,2.861-16.696C345.043,22.469,322.574,0,294.957,0
			H183.652C126.399,0,75.625,26.168,42.034,66.783H16.696C7.475,66.783,0,74.258,0,83.478v233.739
			c0,9.22,7.475,16.696,16.696,16.696h64.627c32.127,21.566,70.795,33.391,109.503,33.391h87.435c0,24.912,0,19.581,0,44.522h-16
			c-9.22,0-16.696,7.475-16.696,16.696s7.475,16.696,16.696,16.696h16v50.087c0,9.22,7.475,16.696,16.696,16.696
			s16.696-7.475,16.696-16.696v-50.087h17.391c9.22,0,16.696-7.475,16.696-16.696s-7.475-16.696-16.696-16.696h-17.391
			c0-24.912,0-19.581,0-44.522h50.087c27.618,0,50.087-22.469,50.087-50.087c0-5.851-1.008-11.472-2.861-16.696h19.556
			c27.618,0,50.087-22.469,50.087-50.087c0-6.514-1.25-12.74-3.522-18.453C496.334,226.183,512,206.712,512,183.652z
			 M428.522,100.174c9.206,0,16.696,7.49,16.696,16.696s-7.49,16.696-16.696,16.696h-116.87v-33.391H428.522z M294.957,66.783
			h-11.13h-33.391c-9.22,0-16.696,7.475-16.696,16.696s7.475,16.696,16.696,16.696h27.826v233.739h-87.435
			c-33.633,0-67.226-10.755-94.593-30.286c-2.831-2.019-6.221-3.105-9.698-3.105H33.391V100.174h16.732
			c5.25,0,10.193-2.47,13.348-6.666c28.708-38.204,72.513-60.117,120.181-60.117h111.304c9.206,0,16.696,7.49,16.696,16.696
			S304.162,66.783,294.957,66.783z M361.739,333.913h-50.087v-33.391h50.087c9.206,0,16.696,7.49,16.696,16.696
			C378.435,326.423,370.945,333.913,361.739,333.913z M428.522,267.13c-18.193,0-101.084,0-116.87,0v-33.391h116.87
			c9.206,0,16.696,7.49,16.696,16.696C445.217,259.641,437.728,267.13,428.522,267.13z M461.913,200.348
			c-3.296,0-147.246,0-150.261,0v-33.391c3.017,0,146.966,0,150.261,0c9.206,0,16.696,7.49,16.696,16.696
			C478.609,192.858,471.119,200.348,461.913,200.348z"/>
	</g>
</g>
</svg>