<?xml version="1.0" encoding="iso-8859-1"?>
<!-- Uploaded to: SVG Repo, www.svgrepo.com, Generator: SVG Repo Mixer Tools -->
<svg height="800px" width="800px" version="1.1" id="Layer_1" xmlns="http://www.w3.org/2000/svg" xmlns:xlink="http://www.w3.org/1999/xlink" 
	 viewBox="0 0 512 512" xml:space="preserve">
<path style="fill:#FFD9B3;" d="M486.956,166.956H328.348c-9.222,0-16.696-7.475-16.696-16.696s7.474-16.696,16.696-16.696h123.788
	c13.1,0,25.038-9.425,26.342-22.459c1.501-14.992-10.231-27.628-24.913-27.628H283.826c-9.222,0-16.696-7.475-16.696-16.696
	s7.474-16.696,16.696-16.696h34.745c13.1,0,25.038-9.425,26.342-22.459C346.415,12.636,334.682,0,320,0
	c-17.087,0-112.034,0-122.969,0C138.726,0,85.333,25.983,48.827,66.784h-32.13c-9.22,0-16.696,7.475-16.696,16.696v233.739
	c0,9.22,7.475,16.696,16.696,16.696h46.288c34.104,31.023,79.281,50.086,129.016,50.086h194.782
	c14.682,0,26.415-12.636,24.913-27.628c-1.304-13.034-13.242-22.459-26.342-22.459h-57.006c-9.222,0-16.696-7.475-16.696-16.696
	s7.474-16.696,16.696-16.696h123.788c13.1,0,25.038-9.425,26.342-22.459c1.501-14.992-10.231-27.628-24.913-27.628H328.348
	c-9.222,0-16.696-7.475-16.696-16.696s7.474-16.696,16.696-16.696h157.179c13.1,0,25.038-9.425,26.342-22.459
	C513.371,179.593,501.638,166.956,486.956,166.956z"/>
<path style="fill:#F2C291;" d="M0.001,317.218c0,9.22,7.475,16.696,16.696,16.696h46.288
	c34.104,31.023,79.281,50.086,129.016,50.086h194.782c14.682,0,26.415-12.636,24.913-27.628
	c-1.304-13.034-13.242-22.459-26.342-22.459h-57.006c-9.222,0-16.696-7.475-16.696-16.696s7.474-16.696,16.696-16.696h123.788
	c13.1,0,25.038-9.425,26.342-22.459c1.501-14.992-10.231-27.628-24.913-27.628H328.348c-9.222,0-16.696-7.475-16.696-16.696
	s7.474-16.696,16.696-16.696h157.179c13.1,0,25.038-9.425,26.342-22.459c0.184-1.831,0.156-3.624-0.037-5.366H0.001V317.218z"/>
<path style="fill:#3AACE6;" d="M294.957,404.875c-9.217,0-16.696-7.473-16.696-16.696V83.479c0-9.223,7.479-16.696,16.696-16.696
	s16.696,7.473,16.696,16.696V388.18C311.652,397.402,304.174,404.875,294.957,404.875z"/>
<path style="fill:#2B9FD9;" d="M278.261,189.218V388.18c0,9.223,7.479,16.696,16.696,16.696s16.696-7.473,16.696-16.696V189.218
	H278.261z"/>
<path style="fill:#F9A926;" d="M329.044,411.826h-17.391V388.18c0-9.223-7.479-16.696-16.696-16.696s-16.696,7.473-16.696,16.696
	v23.647h-16c-9.217,0-16.696,7.473-16.696,16.696c0,9.223,7.479,16.696,16.696,16.696h16v50.087c0,9.223,7.479,16.696,16.696,16.696
	s16.696-7.473,16.696-16.696v-50.087h17.391c9.217,0,16.696-7.473,16.696-16.696C345.739,419.299,338.261,411.826,329.044,411.826z"
	/>
</svg>