<?xml version="1.0" encoding="iso-8859-1"?>
<!-- Uploaded to: SVG Repo, www.svgrepo.com, Generator: SVG Repo Mixer Tools -->
<svg fill="#000000" height="800px" width="800px" version="1.1" id="Layer_1" xmlns="http://www.w3.org/2000/svg" xmlns:xlink="http://www.w3.org/1999/xlink" 
	 viewBox="0 0 512 512" xml:space="preserve">
<g>
	<g>
		<path d="M256,0C114.842,0,0,114.842,0,256s114.842,256,256,256s256-114.842,256-256S397.158,0,256,0z M33.391,256
			c0-122.746,99.862-222.609,222.609-222.609c56.771,0,102.957,46.186,102.957,102.957c0,56.771-46.186,102.957-102.957,102.957
			c-105.635,0-170.969,115.533-117.274,205.825C75.543,405.809,33.391,335.74,33.391,256z M256,478.609
			c-56.771,0-102.957-46.186-102.957-102.957c0-56.771,46.186-102.956,102.957-102.956c105.635,0,170.969-115.533,117.274-205.825
			C436.457,106.191,478.609,176.26,478.609,256C478.609,378.746,378.746,478.609,256,478.609z"/>
	</g>
</g>
<g>
	<g>
		<path d="M256,77.913c-30.687,0-55.652,24.966-55.652,55.652c0,30.687,24.966,55.652,55.652,55.652
			c30.687,0,55.652-24.966,55.652-55.652C311.652,102.879,286.687,77.913,256,77.913z M256,155.826
			c-12.275,0-22.261-9.986-22.261-22.261c0-12.275,9.986-22.261,22.261-22.261c12.275,0,22.261,9.986,22.261,22.261
			C278.261,145.84,268.275,155.826,256,155.826z"/>
	</g>
</g>
<g>
	<g>
		<path d="M256,322.783c-30.687,0-55.652,24.966-55.652,55.652c0,30.687,24.966,55.652,55.652,55.652
			c30.687,0,55.652-24.966,55.652-55.652C311.652,347.748,286.687,322.783,256,322.783z M256,400.696
			c-12.275,0-22.261-9.986-22.261-22.261s9.986-22.261,22.261-22.261c12.275,0,22.261,9.986,22.261,22.261
			S268.275,400.696,256,400.696z"/>
	</g>
</g>
</svg>