<?xml version="1.0" encoding="iso-8859-1"?>
<!-- Uploaded to: SVG Repo, www.svgrepo.com, Generator: SVG Repo Mixer Tools -->
<svg fill="#000000" height="800px" width="800px" version="1.1" id="Layer_1" xmlns="http://www.w3.org/2000/svg" xmlns:xlink="http://www.w3.org/1999/xlink" 
	 viewBox="0 0 512 512" xml:space="preserve">
<g>
	<g>
		<path d="M422.957,212.812v-79.246c0-36.824-29.959-66.783-66.783-66.783c-12.154,0-23.563,3.266-33.391,8.962v-8.962
			C322.783,29.959,292.824,0,256,0s-66.783,29.959-66.783,66.783v8.962c-9.828-5.697-21.237-8.962-33.391-8.962
			c-36.824,0-66.783,29.959-66.783,66.783v79.246c-40.785,6.539-66.783,34.994-66.783,65.449c0,18.412,14.979,33.391,33.391,33.391
			c18.412,0,33.391,14.979,33.391,33.391C89.043,437.103,163.94,512,256,512s166.957-74.897,166.957-166.957
			c0-18.412,14.979-33.391,33.391-33.391c18.412,0,33.391-14.979,33.391-33.391C489.739,247.387,463.212,219.265,422.957,212.812z
			 M389.565,345.043c0,73.648-59.917,133.565-133.565,133.565s-133.565-59.917-133.565-133.565
			c0-36.824-29.959-66.783-66.783-66.783c0-18.1,22.937-33.391,50.087-33.391s50.087,15.291,50.087,33.391
			c0,9.22,7.475,16.696,16.696,16.696s16.696-7.475,16.696-16.696c0-18.49-9.564-36.267-26.239-48.772
			c-11.389-8.543-25.403-14.249-40.544-16.677v-79.246c0-18.412,14.979-33.391,33.391-33.391c18.412,0,33.391,14.979,33.391,33.391
			c0,12.113,0,49.113,0,61.217c0,9.22,7.475,16.696,16.696,16.696c9.22,0,16.696-7.475,16.696-16.696c0-19.24,0-112.197,0-128
			c0-18.412,14.979-33.391,33.391-33.391c18.412,0,33.391,14.979,33.391,33.391c0,137.416-0.048,128.037,0.069,129.365
			c0.687,8.486,7.746,15.255,16.523,15.326c0.034,0,0.068,0.006,0.104,0.006c0.001,0,0.002,0,0.003,0s0.002,0,0.003,0
			c9.138,0,16.689-7.447,16.689-16.696v-61.217c0-18.412,14.979-33.391,33.391-33.391c18.412,0,33.391,14.979,33.391,33.391v79.246
			c-15.141,2.428-29.155,8.134-40.545,16.677c-16.674,12.505-26.238,30.283-26.238,48.772c0,9.22,7.475,16.696,16.696,16.696
			s16.696-7.475,16.696-16.696c0-18.1,22.937-33.391,50.087-33.391s50.087,15.291,50.087,33.391
			C419.524,278.261,389.565,308.22,389.565,345.043z"/>
	</g>
</g>
<g>
	<g>
		<path d="M352.858,357.32c-1.73-2.321-43-56.799-96.858-56.799c-53.859,0-95.128,54.479-96.859,56.797
			c-4.419,5.923-4.419,14.047,0,19.969c1.731,2.32,43,56.799,96.859,56.799c53.858,0,95.128-54.478,96.858-56.797
			C357.279,371.367,357.279,363.243,352.858,357.32z M256,400.696c-25.606,0-49.172-20.548-61.377-33.36
			c12.259-12.808,35.945-33.422,61.377-33.422c25.6,0,49.162,20.54,61.375,33.361C305.116,380.081,281.431,400.696,256,400.696z"/>
	</g>
</g>
<g>
	<g>
		<path d="M256,350.609c-9.212,0-16.696,7.484-16.696,16.696S246.788,384,256,384c9.212,0,16.696-7.484,16.696-16.696
			S265.212,350.609,256,350.609z"/>
	</g>
</g>
</svg>