<?xml version="1.0" encoding="iso-8859-1"?>
<!-- Uploaded to: SVG Repo, www.svgrepo.com, Generator: SVG Repo Mixer Tools -->
<svg fill="#000000" height="800px" width="800px" version="1.1" id="Layer_1" xmlns="http://www.w3.org/2000/svg" xmlns:xlink="http://www.w3.org/1999/xlink" 
	 viewBox="0 0 512 512" xml:space="preserve">
<g>
	<g>
		<path d="M437.02,74.98C388.667,26.628,324.38,0,256,0S123.333,26.628,74.98,74.98C26.628,123.333,0,187.62,0,256
			s26.628,132.667,74.98,181.02C123.333,485.372,187.62,512,256,512s132.667-26.628,181.02-74.98
			C485.372,388.667,512,324.38,512,256S485.372,123.333,437.02,74.98z M256,33.391c40.461,0,78.433,10.856,111.164,29.801
			L256,143.957L144.836,63.191C177.567,44.247,215.539,33.391,256,33.391z M334.156,200.741l-49.751-36.147l80.499-58.485
			L334.156,200.741z M351.71,254.769l80.497,58.485h-99.5L351.71,254.769z M177.845,200.74l-30.748-94.631l80.499,58.485
			L177.845,200.74z M179.292,313.253h-99.5l80.498-58.485L179.292,313.253z M256,185.23l67.306,48.9l-25.708,79.122h-83.194
			l-25.708-79.122L256,185.23z M33.391,256c0-65.496,28.438-124.472,73.609-165.241l42.441,130.619l-111.22,80.804
			C35.065,287.277,33.391,271.831,33.391,256z M52.699,346.644h137.443l42.479,130.738
			C152.229,468.954,84.443,417.56,52.699,346.644z M225.252,346.644h61.496L256,441.276L225.252,346.644z M279.377,477.382
			l42.479-130.738H459.3C427.557,417.56,359.771,468.954,279.377,477.382z M362.559,221.377l42.441-130.619
			c45.17,40.771,73.608,99.747,73.608,165.242c0,15.831-1.674,31.277-4.831,46.181L362.559,221.377z"/>
	</g>
</g>
</svg>