<?xml version="1.0" encoding="iso-8859-1"?>
<!-- Uploaded to: SVG Repo, www.svgrepo.com, Generator: SVG Repo Mixer Tools -->
<svg fill="#000000" height="800px" width="800px" version="1.1" id="Layer_1" xmlns="http://www.w3.org/2000/svg" xmlns:xlink="http://www.w3.org/1999/xlink" 
	 viewBox="0 0 512 512" xml:space="preserve">
<g>
	<g>
		<path d="M422.957,211.478h-80.841c18.877-28.358,30.755-63.529,30.755-94.609C372.87,52.428,320.442,0,256,0
			S139.13,52.428,139.13,116.87c0,31.08,11.877,66.251,30.753,94.609h-80.84c-9.22,0-16.696,7.475-16.696,16.696v66.783
			c0,9.22,7.475,16.696,16.696,16.696h116.87v183.652c0,9.22,7.475,16.696,16.696,16.696h66.783c9.22,0,16.696-7.475,16.696-16.696
			V311.652h116.87c9.22,0,16.696-7.475,16.696-16.696v-66.783C439.652,218.953,432.177,211.478,422.957,211.478z M406.261,278.261
			h-116.87c-9.22,0-16.696,7.475-16.696,16.696v183.652h-33.391V294.957c0-9.22-7.475-16.696-16.696-16.696h-116.87V244.87h99.956
			c15.194,0,22.483-18.754,11.27-29.014c-25.336-23.179-44.443-65.733-44.443-98.986c0-46.03,37.448-83.478,83.478-83.478
			s83.478,37.448,83.478,83.478c0,33.253-19.107,75.807-44.444,98.985c-11.209,10.257-3.93,29.015,11.27,29.015h99.957V278.261z"/>
	</g>
</g>
<g>
	<g>
		<path d="M256,66.783c-27.618,0-50.087,22.469-50.087,50.087c0,31.846,23.873,71.979,42.691,81.278
			c4.653,2.3,10.121,2.308,14.791,0c18.819-9.298,42.692-49.431,42.692-81.278C306.087,89.252,283.618,66.783,256,66.783z
			 M256,160.286c-7.573-10.433-16.696-28.64-16.696-43.417c0-9.206,7.49-16.696,16.696-16.696s16.696,7.49,16.696,16.696
			C272.696,131.646,263.573,149.854,256,160.286z"/>
	</g>
</g>
</svg>