<?xml version="1.0" encoding="iso-8859-1"?>
<!-- Uploaded to: SVG Repo, www.svgrepo.com, Generator: SVG Repo Mixer Tools -->
<svg height="800px" width="800px" version="1.1" id="Layer_1" xmlns="http://www.w3.org/2000/svg" xmlns:xlink="http://www.w3.org/1999/xlink" 
	 viewBox="0 0 512 512" xml:space="preserve">
<g>
	<circle style="fill:#F2F2F2;" cx="255.909" cy="329.802" r="29.859"/>
	<path style="fill:#F2F2F2;" d="M255.914,108.645c81.424,0,147.44,66.016,147.44,147.44c0,80.79-64.989,146.39-145.537,147.417
		c39.836-1.015,71.817-33.619,71.817-73.697c0-40.712-33.008-73.72-73.72-73.72s-73.72-33.008-73.72-73.72
		S215.202,108.645,255.914,108.645z M285.773,182.365c0-16.481-13.367-29.848-29.859-29.848s-29.859,13.367-29.859,29.848
		c0,16.492,13.367,29.859,29.859,29.859S285.773,198.857,285.773,182.365z"/>
</g>
<g>
	<path style="fill:#4D4D4D;" d="M255.914,152.517c16.492,0,29.859,13.367,29.859,29.848c0,16.492-13.367,29.859-29.859,29.859
		s-29.859-13.367-29.859-29.859C226.055,165.884,239.422,152.517,255.914,152.517z"/>
	<path style="fill:#4D4D4D;" d="M329.634,329.805c0,40.078-31.981,72.682-71.817,73.697l-1.903,0.023
		c-81.424,0-147.44-66.004-147.44-147.44c0-81.424,66.016-147.44,147.44-147.44c-40.712,0-73.72,33.008-73.72,73.72
		s33.008,73.72,73.72,73.72S329.634,289.093,329.634,329.805z M285.773,329.805c0-16.492-13.367-29.859-29.859-29.859
		s-29.859,13.367-29.859,29.859c0,16.492,13.367,29.859,29.859,29.859S285.773,346.297,285.773,329.805z"/>
</g>
<path d="M412.093,255.998c0-86.069-70.021-156.09-156.09-156.09s-156.09,70.021-156.09,156.09s70.021,156.09,156.09,156.09
	c0.348,0,0.691-0.027,1.029-0.067c0.287,0.029,0.578,0.044,0.872,0.044c0.037,0,0.075,0,0.113-0.001
	c41.27-0.526,79.986-16.992,109.016-46.366C396.09,336.297,412.093,297.338,412.093,255.998z M302.565,375.173
	c-11.916,12.203-27.854,19.162-44.878,19.596c-0.281,0.007-0.559,0.03-0.833,0.063c-0.28-0.028-0.563-0.043-0.85-0.043
	c-76.528,0-138.79-62.261-138.79-138.79c0-52.23,29.006-97.807,71.75-121.489c-9.636,13.485-15.33,29.969-15.33,47.769
	c0,45.419,36.951,82.37,82.37,82.37c35.88,0,65.07,29.19,65.07,65.07C321.073,346.806,314.5,362.949,302.565,375.173z
	 M323.071,377.564c9.937-13.878,15.302-30.475,15.302-47.845c0-45.419-36.951-82.37-82.37-82.37c-35.88,0-65.07-29.19-65.07-65.07
	s29.19-65.07,65.07-65.07c76.528,0,138.79,62.261,138.79,138.79c0,36.757-14.228,71.397-40.065,97.539
	C345.236,363.143,334.577,371.196,323.071,377.564z"/>
<path d="M256.003,291.209c-21.234,0-38.509,17.276-38.509,38.509s17.276,38.509,38.509,38.509s38.509-17.276,38.509-38.509
	C294.513,308.485,277.238,291.209,256.003,291.209z M256.003,350.928c-11.695,0-21.21-9.515-21.21-21.209
	c0-11.695,9.515-21.21,21.21-21.21s21.21,9.515,21.21,21.21C277.214,341.414,267.699,350.928,256.003,350.928z"/>
<path d="M256.003,143.781c-21.234,0-38.509,17.27-38.509,38.498c0,21.234,17.276,38.509,38.509,38.509s38.509-17.276,38.509-38.509
	C294.513,161.051,277.238,143.781,256.003,143.781z M256.003,203.488c-11.695,0-21.21-9.515-21.21-21.21
	c0-11.689,9.515-21.198,21.21-21.198s21.21,9.509,21.21,21.198C277.214,193.974,267.699,203.488,256.003,203.488z"/>
<path d="M227.135,79.869h57.732c4.777,0,8.65-3.873,8.65-8.65c0-4.777-3.873-8.65-8.65-8.65h-57.732c-4.777,0-8.65,3.873-8.65,8.65
	C218.485,75.997,222.358,79.869,227.135,79.869z"/>
<path d="M227.135,17.3h57.732c4.777,0,8.65-3.873,8.65-8.65S289.644,0,284.867,0h-57.732c-4.777,0-8.65,3.873-8.65,8.65
	S222.358,17.3,227.135,17.3z"/>
<path d="M227.135,48.585h57.732c4.777,0,8.65-3.873,8.65-8.65s-3.873-8.65-8.65-8.65h-57.732c-4.777,0-8.65,3.873-8.65,8.65
	S222.358,48.585,227.135,48.585z"/>
<path d="M284.87,494.7h-13.229c-4.777,0-8.65,3.873-8.65,8.65s3.873,8.65,8.65,8.65h13.229c4.777,0,8.65-3.873,8.65-8.65
	S289.647,494.7,284.87,494.7z"/>
<path d="M240.354,494.7h-13.217c-4.777,0-8.65,3.873-8.65,8.65s3.873,8.65,8.65,8.65h13.217c4.777,0,8.65-3.873,8.65-8.65
	S245.131,494.7,240.354,494.7z"/>
<path d="M284.87,432.132h-13.229c-4.777,0-8.65,3.873-8.65,8.65s3.873,8.65,8.65,8.65h13.229c4.777,0,8.65-3.873,8.65-8.65
	S289.647,432.132,284.87,432.132z"/>
<path d="M240.354,432.132h-13.217c-4.777,0-8.65,3.873-8.65,8.65s3.873,8.65,8.65,8.65h13.217c4.777,0,8.65-3.873,8.65-8.65
	S245.131,432.132,240.354,432.132z"/>
<path d="M284.87,463.41h-13.229c-4.777,0-8.65,3.873-8.65,8.65s3.873,8.65,8.65,8.65h13.229c4.777,0,8.65-3.873,8.65-8.65
	S289.647,463.41,284.87,463.41z"/>
<path d="M240.354,463.41h-13.217c-4.777,0-8.65,3.873-8.65,8.65s3.873,8.65,8.65,8.65h13.217c4.777,0,8.65-3.873,8.65-8.65
	S245.131,463.41,240.354,463.41z"/>
<path d="M60.688,110.159c2.213,0,4.428-0.844,6.116-2.534l9.917-9.917c3.378-3.378,3.378-8.854,0-12.232
	c-3.378-3.378-8.855-3.378-12.232,0l-9.917,9.917c-3.378,3.378-3.378,8.854,0,12.232C56.26,109.315,58.473,110.159,60.688,110.159z"
	/>
<path d="M91.58,79.266c2.213,0,4.428-0.844,6.116-2.534l9.929-9.93c3.378-3.378,3.378-8.855,0-12.233
	c-3.378-3.378-8.855-3.378-12.232,0l-9.929,9.93c-3.378,3.378-3.378,8.855,0,12.233C87.153,78.422,89.367,79.266,91.58,79.266z"/>
<path d="M98.814,151.87c1.688,1.69,3.903,2.534,6.116,2.534s4.428-0.844,6.116-2.534l40.823-40.823
	c3.378-3.378,3.378-8.854,0-12.232s-8.855-3.378-12.232,0l-40.823,40.823C95.436,143.015,95.436,148.492,98.814,151.87z"/>
<path d="M76.693,129.748c1.688,1.69,3.903,2.534,6.116,2.534s4.428-0.844,6.116-2.534l40.823-40.823
	c3.378-3.378,3.378-8.854,0-12.232c-3.378-3.378-8.855-3.378-12.232,0l-40.823,40.823C73.315,120.893,73.315,126.37,76.693,129.748z
	"/>
<path d="M381.719,391.602c-3.378-3.378-8.855-3.378-12.232,0l-9.353,9.353c-3.378,3.378-3.378,8.855,0,12.233
	c1.688,1.688,3.903,2.534,6.116,2.534c2.213,0,4.428-0.844,6.116-2.534l9.353-9.353C385.097,400.456,385.097,394.98,381.719,391.602
	z"/>
<path d="M400.957,360.131l-9.346,9.345c-3.378,3.378-3.378,8.855,0,12.233c1.688,1.69,3.903,2.534,6.116,2.534
	s4.428-0.844,6.116-2.534l9.346-9.345c3.378-3.378,3.378-8.855,0-12.233C409.813,356.753,404.336,356.753,400.957,360.131z"/>
<path d="M445.202,404.374l-40.823,40.823c-3.378,3.378-3.378,8.854,0,12.232c1.688,1.69,3.903,2.534,6.116,2.534
	s4.428-0.844,6.116-2.534l40.823-40.823c3.378-3.378,3.378-8.854,0-12.232C454.057,400.996,448.58,400.996,445.202,404.374z"/>
<path d="M403.844,413.727c-3.378-3.378-8.855-3.378-12.232,0l-9.353,9.353c-3.378,3.378-3.378,8.854,0,12.232
	c1.688,1.69,3.903,2.534,6.116,2.534s4.428-0.844,6.116-2.534l9.353-9.353C407.222,422.582,407.222,417.105,403.844,413.727z"/>
<path d="M419.853,406.368c2.213,0,4.428-0.844,6.116-2.534l9.345-9.345c3.378-3.378,3.378-8.855,0-12.233s-8.855-3.378-12.232,0
	l-9.345,9.345c-3.378,3.378-3.378,8.855,0,12.233C415.426,405.523,417.639,406.368,419.853,406.368z"/>
<path d="M413.187,139.634l-9.917-9.917c-3.378-3.378-8.855-3.378-12.232,0c-3.378,3.378-3.378,8.854,0,12.232l9.917,9.917
	c1.688,1.69,3.903,2.534,6.116,2.534s4.428-0.844,6.116-2.534C416.566,148.488,416.566,143.012,413.187,139.634z"/>
<path d="M370.062,120.974c1.688,1.69,3.903,2.534,6.116,2.534s4.428-0.844,6.116-2.534c3.378-3.378,3.378-8.855,0-12.233
	l-9.929-9.93c-3.377-3.378-8.854-3.378-12.232,0c-3.378,3.378-3.378,8.855,0,12.233L370.062,120.974z"/>
<path d="M445.199,107.623c1.688,1.69,3.903,2.534,6.116,2.534s4.428-0.844,6.116-2.534c3.378-3.378,3.378-8.855,0-12.232
	l-40.823-40.823c-3.378-3.378-8.855-3.378-12.232,0c-3.378,3.378-3.378,8.855,0,12.232L445.199,107.623z"/>
<path d="M423.077,129.745c1.688,1.69,3.903,2.534,6.116,2.534s4.428-0.844,6.116-2.534c3.378-3.378,3.378-8.854,0-12.232
	L394.486,76.69c-3.377-3.378-8.854-3.378-12.232,0s-3.378,8.854,0,12.232L423.077,129.745z"/>
<path d="M98.275,435.845c-3.378-3.378-8.855-3.377-12.232,0c-3.378,3.378-3.378,8.855,0,12.233l9.353,9.353
	c1.688,1.69,3.903,2.534,6.116,2.534s4.428-0.844,6.116-2.534c3.378-3.378,3.378-8.855,0-12.233L98.275,435.845z"/>
<path d="M66.805,404.375c-3.377-3.378-8.854-3.378-12.232,0c-3.378,3.378-3.378,8.855,0,12.233l9.345,9.345
	c1.688,1.69,3.903,2.534,6.116,2.534c2.213,0,4.428-0.844,6.116-2.534c3.378-3.378,3.378-8.855,0-12.233L66.805,404.375z"/>
<path d="M111.047,360.13c-3.378-3.378-8.855-3.378-12.232,0c-3.378,3.378-3.378,8.855,0,12.233l40.823,40.822
	c1.688,1.69,3.903,2.534,6.116,2.534s4.428-0.844,6.116-2.534c3.378-3.378,3.378-8.855,0-12.233L111.047,360.13z"/>
<path d="M120.4,413.72c-3.378-3.378-8.855-3.378-12.232,0c-3.378,3.378-3.378,8.855,0,12.233l9.353,9.353
	c1.688,1.688,3.903,2.534,6.116,2.534c2.213,0,4.428-0.844,6.116-2.534c3.378-3.378,3.378-8.855,0-12.233L120.4,413.72z"/>
<path d="M86.043,403.828c1.688,1.69,3.903,2.534,6.116,2.534c2.213,0,4.428-0.844,6.116-2.534c3.378-3.378,3.378-8.854,0-12.232
	l-9.346-9.346c-3.378-3.378-8.855-3.378-12.232,0c-3.378,3.378-3.378,8.854,0,12.232L86.043,403.828z"/>
<path d="M79.871,284.866v-57.732c0-4.777-3.873-8.65-8.65-8.65s-8.65,3.873-8.65,8.65v57.732c0,4.777,3.873,8.65,8.65,8.65
	S79.871,289.643,79.871,284.866z"/>
<path d="M8.651,218.484c-4.777,0-8.65,3.873-8.65,8.65v57.732c0,4.777,3.873,8.65,8.65,8.65s8.65-3.873,8.65-8.65v-57.732
	C17.301,222.357,13.428,218.484,8.651,218.484z"/>
<path d="M39.937,218.488c-4.777,0-8.65,3.873-8.65,8.65v13.217c0,4.777,3.873,8.65,8.65,8.65s8.65-3.873,8.65-8.65v-13.217
	C48.587,222.361,44.714,218.488,39.937,218.488z"/>
<path d="M39.937,262.994c-4.777,0-8.65,3.873-8.65,8.65v13.217c0,4.777,3.873,8.65,8.65,8.65s8.65-3.873,8.65-8.65v-13.217
	C48.587,266.867,44.714,262.994,39.937,262.994z"/>
<path d="M503.349,218.488c-4.777,0-8.65,3.873-8.65,8.65v13.217c0,4.777,3.873,8.65,8.65,8.65c4.777,0,8.65-3.873,8.65-8.65v-13.217
	C511.999,222.361,508.126,218.488,503.349,218.488z"/>
<path d="M503.349,262.994c-4.777,0-8.65,3.873-8.65,8.65v13.217c0,4.777,3.873,8.65,8.65,8.65c4.777,0,8.65-3.873,8.65-8.65v-13.217
	C511.999,266.867,508.126,262.994,503.349,262.994z"/>
<path d="M449.43,227.138c0-4.777-3.873-8.65-8.65-8.65s-8.65,3.873-8.65,8.65v13.217c0,4.777,3.873,8.65,8.65,8.65
	s8.65-3.873,8.65-8.65V227.138z"/>
<path d="M449.43,284.86v-13.217c0-4.777-3.873-8.65-8.65-8.65s-8.65,3.873-8.65,8.65v13.217c0,4.777,3.873,8.65,8.65,8.65
	S449.43,289.638,449.43,284.86z"/>
<path d="M472.065,218.484c-4.777,0-8.65,3.873-8.65,8.65v57.732c0,4.777,3.873,8.65,8.65,8.65s8.65-3.873,8.65-8.65v-57.732
	C480.715,222.357,476.842,218.484,472.065,218.484z"/>
</svg>