<?xml version="1.0" encoding="iso-8859-1"?>
<!-- Uploaded to: SVG Repo, www.svgrepo.com, Generator: SVG Repo Mixer Tools -->
<svg fill="#000000" height="800px" width="800px" version="1.1" id="Layer_1" xmlns="http://www.w3.org/2000/svg" xmlns:xlink="http://www.w3.org/1999/xlink" 
	 viewBox="0 0 512.003 512.003" xml:space="preserve">
<g>
	<g>
		<circle cx="122.748" cy="83.478" r="16.696"/>
	</g>
</g>
<g>
	<g>
		<circle cx="389.889" cy="83.478" r="16.696"/>
	</g>
</g>
<g>
	<g>
		<path d="M511.314,414.275c-1.304-9.128-9.766-15.472-18.889-14.167c-6.633,0.945-18.295-15.288-16.528-27.659
			c2.237-15.664-3.29-31.878-14.783-43.371c-0.17-0.17-0.348-0.326-0.521-0.493c25.253-17.723,40.175-31.901,41.007-32.697
			c6.865-6.571,6.864-17.55,0-24.122c-1.125-1.076-28.048-26.666-71.5-52.392c-12.931-7.657-28.184-15.78-45.245-23.292
			l6.066-29.151c45.551-0.561,82.439-37.77,82.439-83.451c0-46.03-37.448-83.478-83.478-83.478
			c-46.03,0-83.478,37.448-83.478,83.478c0,34.788,21.396,64.661,51.715,77.184l-4.816,23.141
			c-29.294-9.905-62.219-16.85-96.984-16.85c-34.765,0-67.691,6.944-96.986,16.847l-4.816-23.141
			c30.318-12.523,51.715-42.396,51.715-77.184C206.232,37.448,168.784,0,122.754,0c-46.03,0-83.478,37.448-83.478,83.478
			c0,45.681,36.888,82.89,82.438,83.451l6.066,29.151c-17.062,7.512-32.315,15.635-45.246,23.291
			c-43.451,25.726-70.374,51.316-71.5,52.392c-6.865,6.573-6.863,17.55,0,24.122c0.827,0.791,15.612,14.837,40.643,32.441
			c-0.263,0.252-0.533,0.491-0.791,0.75c-11.493,11.493-17.02,27.707-14.781,43.371c1.035,7.247-2.928,17.698-9.025,23.794
			c-1.299,1.299-4.628,4.279-7.503,3.864c-9.122-1.306-17.585,5.039-18.889,14.167c-1.212,8.481,4.015,19.27,19.503,19.27
			c30.547,0,53.096-36.919,48.969-65.816c-0.748-5.236,1.298-10.997,5.337-15.037c1.539-1.539,4.419-3.841,8.219-4.302
			c6.795,4.019,14.237,8.164,22.232,12.282c-1.911,2.893-3.593,6.023-4.985,9.385c-6.655,16.066-5.793,33.822,2.303,47.497
			c5.724,9.668-1.123,30.721-8.945,32.725c-8.932,2.288-14.318,11.385-12.03,20.317c2.29,8.937,11.389,14.316,20.317,12.03
			c31.755-8.136,45.321-55.178,29.39-82.085c-2.647-4.47-2.721-11.585-0.186-17.705c1.359-3.281,3.308-5.914,5.52-7.61
			c9.269,3.824,19.024,7.422,29.182,10.651c-1.927,5.901-2.957,12.328-2.957,19.005c0,17.642,7.174,33.554,19.19,42.566
			c7.729,5.797,7.748,28.693,0,34.504c-7.376,5.533-8.872,15.998-3.339,23.374c5.533,7.377,15.997,8.871,23.374,3.339
			c25.603-19.203,25.609-68.725,0-87.93c-3.489-2.617-5.833-8.988-5.833-15.853c0-3.822,0.727-7.489,1.969-10.441
			c18.615,3.908,38.196,6.26,58.402,6.26c19.995,0,39.379-2.3,57.819-6.133c1.211,2.932,1.919,6.547,1.919,10.316
			c0,6.865-2.344,13.236-5.832,15.852c-25.598,19.198-25.614,68.721,0,87.93c7.383,5.536,17.845,4.034,23.374-3.339
			c5.533-7.376,4.037-17.841-3.339-23.374c-7.757-5.817-7.718-28.718,0-34.504c12.015-9.012,19.189-24.924,19.189-42.565
			c0-6.609-1.006-12.975-2.895-18.826c10.214-3.228,20.029-6.829,29.352-10.663c2.117,1.702,3.975,4.275,5.287,7.442
			c2.534,6.121,2.461,13.236-0.186,17.705c-15.909,26.87-2.409,73.938,29.39,82.085c8.934,2.287,18.029-3.1,20.316-12.03
			c2.29-8.932-3.096-18.028-12.03-20.316c-7.827-2.006-14.664-23.068-8.944-32.726c8.096-13.675,8.958-31.43,2.302-47.496
			c-1.353-3.269-2.982-6.315-4.826-9.14c8.125-4.173,15.681-8.376,22.575-12.449c3.548,0.595,6.247,2.755,7.717,4.225
			c4.04,4.04,6.086,9.804,5.338,15.037c-4.128,28.899,18.422,65.817,48.969,65.817C507.077,433.545,512.551,422.934,511.314,414.275
			z M339.797,83.478c0-27.618,22.469-50.087,50.087-50.087s50.087,22.469,50.087,50.087c0,27.618-22.469,50.087-50.087,50.087
			S339.797,111.096,339.797,83.478z M122.754,133.565c-27.618,0-50.087-22.469-50.087-50.087c0-27.618,22.469-50.087,50.087-50.087
			c27.618,0,50.087,22.469,50.087,50.087C172.841,111.096,150.372,133.565,122.754,133.565z M256.319,367.304
			c-74.334,0-150.917-37.035-208.17-83.472c16.736-13.556,47.439-36.046,86.599-54.27l5.052,24.274
			c1.879,9.026,10.717,14.822,19.748,12.944c9.027-1.879,14.822-10.72,12.944-19.748l-6.312-30.329
			c27.63-9.741,58.156-16.355,90.14-16.355c32.237,0,62.929,6.833,90.13,16.402l-6.302,30.284
			c-1.879,9.028,3.918,17.869,12.945,19.748c9.028,1.879,17.868-3.917,19.746-12.944l5.051-24.274
			c31.101,14.414,61.047,33.535,86.599,54.259C407.835,329.706,331.506,367.304,256.319,367.304z"/>
	</g>
</g>
</svg>