<?xml version="1.0" encoding="iso-8859-1"?>
<!-- Uploaded to: SVG Repo, www.svgrepo.com, Generator: SVG Repo Mixer Tools -->
<svg fill="#000000" height="800px" width="800px" version="1.1" id="Layer_1" xmlns="http://www.w3.org/2000/svg" xmlns:xlink="http://www.w3.org/1999/xlink" 
	 viewBox="0 0 512.001 512.001" xml:space="preserve">
<g>
	<g>
		<path d="M400.465,231.357c-3.841-90.843-55.591-172.892-136.674-215.674c-4.876-2.572-10.706-2.572-15.583,0
			c-81.084,42.782-132.834,124.83-136.674,215.674C42.872,278.477-0.667,357.303,0.008,444.502
			c0.042,5.669,2.956,10.928,7.74,13.969C84.544,507.275,178.817,510.116,256,472.77c77.237,37.373,171.504,34.474,248.253-14.299
			c4.784-3.04,7.699-8.3,7.74-13.969C512.65,359.45,470.927,279.712,400.465,231.357z M263.792,439.298
			c-4.858-2.562-10.686-2.582-15.583,0c-65.236,34.421-146.713,35.11-214.691-4.24c2.455-73.582,40.729-140.632,103.444-180.485
			c4.784-3.04,7.699-8.301,7.74-13.97C145.28,161.492,187.693,89.078,256,49.525c68.306,39.553,110.721,111.967,111.299,191.079
			c0.041,5.669,2.956,10.929,7.74,13.97c62.714,39.855,100.99,106.903,103.444,180.485
			C410.488,474.417,329.012,473.71,263.792,439.298z"/>
	</g>
</g>
<g>
	<g>
		<path d="M330.689,207.423c-8.045-43.248-30.148-81.174-63.922-109.676c-6.22-5.248-15.317-5.249-21.535,0
			c-33.771,28.498-55.874,66.423-63.921,109.675c-2.223,11.952,8.701,22.209,20.481,19.246c17.631-4.428,35.869-6.672,54.207-6.672
			c18.341,0,36.579,2.246,54.208,6.673C322.027,229.637,332.906,219.341,330.689,207.423z M256,186.605
			c-11.812,0-23.59,0.811-35.233,2.421c7.529-20.916,19.434-39.796,35.233-55.805c15.8,16.01,27.707,34.889,35.236,55.805
			C279.593,187.416,267.814,186.605,256,186.605z"/>
	</g>
</g>
<g>
	<g>
		<path d="M318.153,263.272c-21.558-6.84-42.761-9.885-62.152-9.885c-0.027,0-0.055,0.001-0.081,0.001s-0.055-0.001-0.081-0.001
			c-20.015,0-41.203,3.238-62.152,9.885c-0.018,0.006-0.036,0.014-0.053,0.02c-8.114,2.606-13.163,10.647-11.041,20.186
			c0.02,0.087,0.038,0.174,0.06,0.26c9.061,40.486,30.707,76.126,62.583,103.028c6.048,5.106,15.165,5.372,21.535,0
			c31.069-26.221,52.746-60.576,62.599-103.236C331.582,273.55,325.902,265.656,318.153,263.272z M255.919,351.059
			c-16.605-16.874-29.128-37.029-36.629-59.934c12.502-3.009,24.721-4.362,37.429-4.299c12.152,0.059,23.865,1.419,35.848,4.303
			C285.164,313.649,272.719,333.985,255.919,351.059z"/>
	</g>
</g>
<g>
	<g>
		<path d="M440.704,401.444c-8.429-37.865-28.098-71.837-56.878-98.247c-8.986-8.243-23.46-4.36-27.179,7.18
			c-10.226,31.737-27.898,61.341-51.107,85.612c-8.578,8.971-4.694,23.878,7.19,27.507c17.833,5.446,36.124,8.163,54.434,8.163
			c21.127,0,42.282-3.618,62.788-10.839C437.924,418.014,442.541,409.693,440.704,401.444z M348.417,397.097
			c11.935-15.699,22.069-32.762,30.108-50.699c11.209,14.209,19.81,30.186,25.473,47.364
			C385.66,398.276,366.905,399.395,348.417,397.097z"/>
	</g>
</g>
<g>
	<g>
		<path d="M206.427,395.955c-23.219-24.294-40.893-53.922-51.109-85.684c-1.741-5.414-6.119-9.57-11.617-11.026
			c-5.498-1.461-11.359-0.017-15.553,3.827c-28.856,26.426-48.571,60.444-57.016,98.373c-1.837,8.249,2.78,16.57,10.751,19.376
			c20.508,7.221,41.66,10.839,62.789,10.839c18.356,0,36.696-2.731,54.572-8.204C211.102,419.826,215.011,404.934,206.427,395.955z
			 M107.838,393.762c5.681-17.232,14.317-33.255,25.577-47.497c8.046,17.979,18.194,35.081,30.153,50.813
			C145.031,399.4,126.227,398.288,107.838,393.762z"/>
	</g>
</g>
</svg>