<?xml version="1.0" encoding="iso-8859-1"?>
<!-- Uploaded to: SVG Repo, www.svgrepo.com, Generator: SVG Repo Mixer Tools -->
<svg height="800px" width="800px" version="1.1" id="Layer_1" xmlns="http://www.w3.org/2000/svg" xmlns:xlink="http://www.w3.org/1999/xlink" 
	 viewBox="0 0 512 512" xml:space="preserve">
<path style="fill:#FFD9B3;" d="M289.391,100.178h-66.782c-9.217,0-16.695,7.473-16.695,16.695v100.173
	c0,9.223,7.478,16.695,16.695,16.695h66.782c9.217,0,16.695-7.473,16.695-16.695V116.874
	C306.086,107.651,298.608,100.178,289.391,100.178z"/>
<path style="fill:#F2C291;" d="M289.391,100.178H256v133.564h33.391c9.217,0,16.695-7.473,16.695-16.695V116.874
	C306.086,107.651,298.608,100.178,289.391,100.178z"/>
<path style="fill:#EE6E2F;" d="M495.302,267.133H16.698c-9.22,0-16.695-7.475-16.695-16.695v-33.391
	c0-9.22,7.475-16.695,16.695-16.695h478.604c9.22,0,16.695,7.475,16.695,16.695v33.391
	C511.997,259.659,504.522,267.133,495.302,267.133z"/>
<path style="fill:#E15C25;" d="M495.302,200.351H256v66.782h239.302c9.22,0,16.695-7.475,16.695-16.695v-33.391
	C511.997,207.826,504.521,200.351,495.302,200.351z"/>
<path style="fill:#F9A926;" d="M406.259,512h-33.391c-9.22,0-16.695-7.475-16.695-16.695V100.178h66.782v395.126
	C422.955,504.526,415.48,512,406.259,512z"/>
<path style="fill:#FFC033;" d="M139.132,512h-33.391c-9.22,0-16.695-7.475-16.695-16.695V100.178h66.782v395.126
	C155.827,504.526,148.352,512,139.132,512z"/>
<path style="fill:#EE6E2F;" d="M395.129,133.569H116.871c-43.108,0-82.575-23.603-102.999-61.609l0,0
	C4.796,55.093,0.003,35.984,0.003,16.701c0-6.755,4.065-12.842,10.304-15.423c6.239-2.587,13.413-1.158,18.196,3.62
	c18.381,18.381,42.815,28.499,68.803,28.499h317.388c25.989,0,50.424-10.12,68.803-28.499c4.783-4.777,11.967-6.217,18.196-3.62
	c6.239,2.581,10.304,8.668,10.304,15.423C511.997,81.141,459.573,133.569,395.129,133.569z"/>
<path style="fill:#E15C25;" d="M501.693,1.278c-6.229-2.598-13.413-1.158-18.196,3.62c-18.381,18.381-42.815,28.499-68.803,28.499
	H256v100.173h139.129c64.444,0,116.868-52.428,116.868-116.868C511.997,9.946,507.931,3.859,501.693,1.278z"/>
</svg>