<?xml version="1.0" encoding="iso-8859-1"?>
<!-- Uploaded to: SVG Repo, www.svgrepo.com, Generator: SVG Repo Mixer Tools -->
<svg height="800px" width="800px" version="1.1" id="Layer_1" xmlns="http://www.w3.org/2000/svg" xmlns:xlink="http://www.w3.org/1999/xlink" 
	 viewBox="0 0 512 512" xml:space="preserve">
<path style="fill:#F7B239;" d="M255.912,9.111c136.4,0,246.978,110.579,246.978,246.978c0,136.412-110.579,246.978-246.978,246.978
	c-136.412,0-246.99-110.567-246.99-246.978C8.922,119.689,119.501,9.111,255.912,9.111z M465.626,256.089
	c0-115.82-93.894-209.714-209.714-209.714c-115.832,0-209.726,93.894-209.726,209.714s93.894,209.714,209.726,209.714
	C371.732,465.803,465.626,371.909,465.626,256.089z"/>
<path style="fill:#F95428;" d="M255.912,46.375c115.82,0,209.714,93.894,209.714,209.714s-93.894,209.714-209.714,209.714
	c-115.832,0-209.726-93.894-209.726-209.714S140.08,46.375,255.912,46.375z"/>
<path style="fill:#E54728;" d="M88.599,256.089c0-108.662,82.647-198.022,188.519-208.653c-6.973-0.701-14.047-1.061-21.206-1.061
	c-115.832,0-209.726,93.894-209.726,209.714s93.894,209.714,209.726,209.714c7.158,0,14.231-0.362,21.206-1.061
	C171.246,454.11,88.599,364.751,88.599,256.089z"/>
<path d="M256.006,37.27c-35.216,0-68.844,8.114-99.948,24.118c-29.665,15.263-55.88,37.524-75.81,64.378
	c-2.968,3.998-2.131,9.644,1.867,12.612c3.998,2.968,9.644,2.131,12.612-1.867c10.292-13.866,22.408-26.399,35.886-37.203
	l42.122,129.635L62.437,309.081C57.79,292.166,55.295,274.37,55.295,256c0-32.573,7.978-64.911,23.071-93.517
	c2.325-4.404,0.637-9.857-3.766-12.181c-4.403-2.324-9.857-0.636-12.181,3.766C45.963,185.258,37.264,220.506,37.264,256
	c0,120.608,98.127,218.73,218.742,218.73c120.608,0,218.73-98.122,218.73-218.73S376.614,37.27,256.006,37.27z M456.705,256
	c0,18.369-2.494,36.164-7.138,53.08l-51.356-37.312c-4.025-2.926-9.666-2.034-12.593,1.994c-2.927,4.028-2.034,9.666,1.994,12.593
	l30.898,22.45H313.325l20.089-61.828l31.166,22.643c4.027,2.926,9.667,2.035,12.593-1.995c2.927-4.028,2.034-9.666-1.994-12.593
	l-35.906-26.087l42.094-129.552C427.261,136.205,456.705,192.724,456.705,256z M256.002,426.874l-32.504-100.039h65.008
	L256.002,426.874z M217.639,308.804l-23.711-72.972l62.074-45.098l62.074,45.098l-23.711,72.972H217.639z M271.341,179.59
	l85.099-61.828l-32.505,100.039L271.341,179.59z M164.308,77.422c28.528-14.677,59.379-22.121,91.698-22.121
	c40.681,0,78.564,12.178,110.221,33.062l-110.224,80.082L145.719,88.32C151.721,84.358,157.923,80.706,164.308,77.422z
	 M155.565,117.763l85.099,61.828l-52.593,38.212L155.565,117.763z M178.59,246.976l20.089,61.828H93.493L178.59,246.976z
	 M68.218,326.835h136.32l42.123,129.639C164.962,452.71,95.864,399.878,68.218,326.835z M265.344,456.474l42.123-129.639h136.315
	C416.137,399.88,347.042,452.712,265.344,456.474z"/>
<path d="M256.006,0.006C114.844,0.006,0,114.845,0,256c0,68.382,26.628,132.669,74.982,181.018
	c48.351,48.349,112.64,74.976,181.024,74.976c68.379,0,132.663-26.627,181.013-74.976C485.372,388.668,512,324.381,512,256
	C512,114.845,397.161,0.006,256.006,0.006z M256.006,493.963c-131.22,0-237.975-106.75-237.975-237.963
	S124.786,18.037,256.006,18.037c131.213,0,237.963,106.75,237.963,237.963S387.219,493.963,256.006,493.963z"/>
</svg>