<?xml version="1.0" encoding="iso-8859-1"?>
<!-- Uploaded to: SVG Repo, www.svgrepo.com, Generator: SVG Repo Mixer Tools -->
<svg height="800px" width="800px" version="1.1" id="Layer_1" xmlns="http://www.w3.org/2000/svg" xmlns:xlink="http://www.w3.org/1999/xlink" 
	 viewBox="0 0 512 512" xml:space="preserve">
<path style="fill:#6B7A99;" d="M356.174,0H155.826c-27.619,0-50.087,22.468-50.087,50.087v94.609v33.391h300.522v-33.391V50.087
	C406.261,22.468,383.793,0,356.174,0z"/>
<path style="fill:#5A6680;" d="M356.174,0H256v178.087h150.261v-33.391V50.087C406.261,22.468,383.793,0,356.174,0z"/>
<path style="fill:#3AACE6;" d="M105.739,144.696v33.391v38.957c0,9.223,7.479,16.696,16.696,16.696h267.13
	c9.217,0,16.696-7.473,16.696-16.696v-38.957v-33.391H105.739z"/>
<path style="fill:#2B9FD9;" d="M256,233.739h133.565c9.217,0,16.696-7.473,16.696-16.696v-38.957v-33.391H256V233.739z"/>
<g>
	<path style="fill:#6B7A99;" d="M122.435,512c-4.272,0-8.544-1.631-11.804-4.892c-6.521-6.521-6.521-17.092,0-23.614
		c5.772-5.761,8.946-13.429,8.946-21.582c0-8.153-3.174-15.821-8.946-21.582c-12.077-12.077-18.728-28.126-18.728-45.201
		s6.653-33.125,18.728-45.201c5.772-5.761,8.946-13.429,8.946-21.582c0-8.153-3.174-15.821-8.946-21.582
		c-12.077-12.077-18.728-28.125-18.728-45.201c0-17.075,6.653-33.125,18.728-45.201c6.521-6.511,17.087-6.516,23.609,0.006
		c6.521,6.521,6.521,17.092,0,23.614c-5.772,5.761-8.946,13.429-8.946,21.582c0,8.153,3.174,15.821,8.946,21.582
		c12.077,12.077,18.728,28.126,18.728,45.201s-6.653,33.125-18.728,45.201c-5.772,5.761-8.946,13.429-8.946,21.582
		c0,8.153,3.174,15.821,8.946,21.582c12.077,12.077,18.728,28.126,18.728,45.201s-6.653,33.125-18.728,45.201
		C130.979,510.369,126.707,512,122.435,512z"/>
	<path style="fill:#6B7A99;" d="M322.783,244.87H55.652c-9.217,0-16.696-7.473-16.696-16.696s7.479-16.696,16.696-16.696h267.13
		c9.217,0,16.696,7.473,16.696,16.696S332,244.87,322.783,244.87z"/>
</g>
<g>
	<path style="fill:#5A6680;" d="M389.565,512c-4.272,0-8.544-1.631-11.804-4.892c-6.521-6.521-6.521-17.092,0-23.614
		c5.772-5.761,8.946-13.429,8.946-21.582c0-8.153-3.174-15.821-8.946-21.582c-12.077-12.077-18.728-28.126-18.728-45.201
		s6.653-33.125,18.728-45.201c5.772-5.761,8.946-13.429,8.946-21.582c0-8.153-3.174-15.821-8.946-21.582
		c-12.077-12.077-18.728-28.125-18.728-45.201c0-17.075,6.653-33.125,18.728-45.201c6.521-6.511,17.087-6.516,23.609,0.006
		s6.521,17.092,0,23.614c-5.772,5.761-8.945,13.429-8.945,21.582c0,8.153,3.174,15.821,8.945,21.582
		c12.077,12.077,18.728,28.126,18.728,45.201s-6.653,33.125-18.728,45.201c-5.772,5.761-8.945,13.429-8.945,21.582
		c0,8.153,3.174,15.821,8.945,21.582c12.077,12.077,18.728,28.126,18.728,45.201s-6.653,33.125-18.728,45.201
		C398.109,510.369,393.837,512,389.565,512z"/>
	<path style="fill:#5A6680;" d="M456.348,211.478H256v33.391h200.348c9.217,0,16.696-7.473,16.696-16.696
		S465.565,211.478,456.348,211.478z"/>
</g>
</svg>