<?xml version="1.0" encoding="iso-8859-1"?>
<!-- Uploaded to: SVG Repo, www.svgrepo.com, Generator: SVG Repo Mixer Tools -->
<svg version="1.1" id="Layer_1" xmlns="http://www.w3.org/2000/svg" xmlns:xlink="http://www.w3.org/1999/xlink" 
	 viewBox="0 0 512 512" xml:space="preserve">
<path style="fill:#CCCCCC;" d="M291.331,317.808L319.593,512H476.62V337.533L291.331,317.808z"/>
<path style="fill:#F2F2F2;" d="M227.543,306.551V512h-24.27H30.384V306.551h0.165l91.214-38.754l105.615,38.754H227.543z"/>
<path style="fill:#E6E6E6;" d="M338.422,195.012h0.118v84.231v58.289V512H203.674l-0.4-316.988h0.118l62.034-35.551L338.422,195.012
	z"/>
<polygon style="fill:#F95428;" points="466.599,279.243 487.796,337.533 476.62,337.533 338.54,337.533 338.54,279.243 "/>
<path style="fill:#808080;" d="M426.079,394.927v46.808h-33.56v-46.808c0-9.267,7.513-16.78,16.78-16.78
	C418.567,378.147,426.079,385.659,426.079,394.927z"/>
<path style="fill:#F7B239;" d="M322.16,127.491c21.644,16.827,24.729,44.677,16.262,67.521H203.391
	c-8.455-22.845-5.381-50.694,16.274-67.521c44.041-34.232,51.247-67.521,51.247-67.521S278.119,93.259,322.16,127.491z"/>
<path style="fill:#E09B2D;" d="M270.912,59.97c0,0-4.887,33.29-34.773,67.521c-14.684,16.827-16.768,44.677-11.034,67.521h-21.714
	c-8.455-22.845-5.381-50.694,16.274-67.521C263.706,93.259,270.912,59.97,270.912,59.97z"/>
<path style="fill:#CCCCCC;" d="M246.652,195.012h0.038v84.231v58.289V512h-43.288l-0.128-316.988h0.038H246.652z"/>
<g>
	<path style="fill:#F7B239;" d="M301.764,265.113v46.808h-33.56v-46.808c0-9.267,7.513-16.78,16.78-16.78
		C294.252,248.332,301.764,255.845,301.764,265.113z"/>
	<path style="fill:#F7B239;" d="M203.674,223.674c31.547,20.654,36.033,54.839,23.704,82.877H30.549
		c-12.329-28.038-7.843-62.222,23.716-82.877c64.201-42.015,74.704-82.877,74.704-82.877s10.457,40.685,74.304,82.606
		C203.403,223.498,203.544,223.58,203.674,223.674z"/>
</g>
<path style="fill:#E09B2D;" d="M128.957,140.833c-0.224,1.236-7.748,41.485-50.364,82.841
	c-21.279,20.654-24.305,54.839-15.991,82.877H30.549c-12.329-28.038-7.843-62.222,23.716-82.877
	C117.464,182.318,128.628,142.069,128.957,140.833z"/>
<path style="fill:#E6E6E6;" d="M59.352,272.508V512h-3.566H30.384V306.551h0.025h28.92L59.352,272.508z"/>
<g>
	<path style="fill:#808080;" d="M184.597,358.717v51.224h-35.315v-51.224c0-9.75,7.901-17.652,17.663-17.652
		C176.696,341.065,184.597,348.967,184.597,358.717z"/>
	<path style="fill:#808080;" d="M108.656,358.717v51.224H73.329v-51.224c0-9.75,7.901-17.652,17.663-17.652
		C100.743,341.065,108.656,348.967,108.656,358.717z"/>
</g>
<g>
	<polygon style="fill:#F7B239;" points="301.821,22.961 279.743,22.961 279.743,0 262.079,0 262.079,22.961 240.001,22.961 
		240.001,40.625 262.079,40.625 262.079,80.577 279.743,80.577 279.743,40.625 301.821,40.625 	"/>
	<polygon style="fill:#F7B239;" points="137.801,80.836 120.137,80.836 120.137,103.793 98.056,103.793 98.056,121.456 
		120.137,121.456 120.137,161.405 137.801,161.405 137.801,121.456 159.875,121.456 159.875,103.793 137.801,103.793 	"/>
</g>
<g>
	<path style="fill:#CCCCCC;" d="M114.544,415.829H67.442v-57.112c0-12.979,10.565-23.539,23.551-23.539s23.551,10.559,23.551,23.539
		V415.829z M79.217,404.053h23.551v-45.336c0-6.486-5.283-11.764-11.776-11.764s-11.776,5.277-11.776,11.764V404.053z"/>
	<path style="fill:#CCCCCC;" d="M190.485,415.829h-47.091v-57.112c0-12.979,10.565-23.539,23.551-23.539
		c12.979,0,23.539,10.559,23.539,23.539V415.829z M155.17,404.053h23.539v-45.336c0-6.486-5.277-11.764-11.764-11.764
		c-6.493,0-11.776,5.277-11.776,11.764V404.053z"/>
	<path style="fill:#CCCCCC;" d="M307.652,317.808h-45.336v-52.696c0-12.499,10.169-22.668,22.668-22.668
		s22.668,10.169,22.668,22.668V317.808z M274.092,306.033h21.785v-40.92c0-6.007-4.886-10.892-10.892-10.892
		c-6.007,0-10.892,4.886-10.892,10.892V306.033z"/>
</g>
<g>
	<rect x="338.537" y="337.536" style="fill:#B3B3B3;" width="138.081" height="24.47"/>
	<path style="fill:#B3B3B3;" d="M431.967,447.623h-45.336v-52.696c0-12.499,10.169-22.668,22.668-22.668
		c12.499,0,22.668,10.169,22.668,22.668V447.623z M398.407,435.847h21.785v-40.92c0-6.007-4.886-10.892-10.892-10.892
		c-6.007,0-10.892,4.886-10.892,10.892V435.847z"/>
</g>
</svg>