<?xml version="1.0" encoding="iso-8859-1"?>
<!-- Uploaded to: SVG Repo, www.svgrepo.com, Generator: SVG Repo Mixer Tools -->
<svg height="800px" width="800px" version="1.1" id="Layer_1" xmlns="http://www.w3.org/2000/svg" xmlns:xlink="http://www.w3.org/1999/xlink" 
	 viewBox="0 0 512 512" xml:space="preserve">
<path style="fill:#6B7A99;" d="M420.376,100.301c-13.034,1.302-22.461,13.245-22.461,26.335v57.011
	c0,9.227-7.48,16.696-16.696,16.696s-16.696-7.469-16.696-16.696V59.853c0-13.09-9.428-25.033-22.461-26.335
	c-14.993-1.503-27.626,10.229-27.626,24.91v125.219c0,9.227-7.48,16.696-16.696,16.696s-16.696-7.469-16.696-16.696V26.461
	c0-13.09-9.428-25.033-22.461-26.335c-0.913-0.095-1.82-0.134-2.716-0.125c-0.896,0.006-1.78,0.058-2.649,0.158
	c-12.522,1.369-22.261,11.988-22.261,24.877v158.61c0,9.227-7.48,16.696-16.696,16.696c-9.216,0-16.696-7.469-16.696-16.696V59.853
	c0-13.09-9.428-25.033-22.461-26.335c-14.993-1.503-27.626,10.229-27.626,24.91v169.741c0,9.227-7.48,16.696-16.696,16.696
	s-16.696-7.469-16.696-16.696v-34.75c0-13.09-9.428-25.033-22.461-26.335c-14.993-1.503-27.626,10.229-27.626,24.91v122.97
	c0,105.462,84.57,195.341,189.219,197.011c2.148,0.033,4.296,0.033,6.456-0.011c104.338-1.959,188.329-87.152,188.329-191.969
	V125.211C448.002,110.53,435.369,98.799,420.376,100.301z"/>
<path style="fill:#5A6680;" d="M448.002,125.212v194.785c0,104.816-83.991,190.01-188.329,191.969
	c-2.159,0.045-4.308,0.045-6.456,0.011V0.16c1.736-0.189,3.54-0.223,5.365-0.033c13.034,1.302,22.461,13.245,22.461,26.335v157.186
	c0,9.227,7.48,16.696,16.696,16.696s16.696-7.469,16.696-16.696V58.428c0-14.681,12.633-26.413,27.626-24.91
	c13.034,1.302,22.461,13.245,22.461,26.335v123.794c0,9.227,7.48,16.696,16.696,16.696s16.696-7.469,16.696-16.696v-57.011
	c0-13.09,9.428-25.033,22.461-26.335C435.369,98.799,448.002,110.53,448.002,125.212z"/>
<path style="fill:#FFC033;" d="M253.217,255.998c-55.153,0-100.175,45.189-100.175,100.175c0,54.864,44.88,100.175,100.175,100.175
	c55.258,0,100.175-45.278,100.175-100.175C353.392,301.296,308.498,255.998,253.217,255.998z M317.51,374.014l-5.334-3.08
	c-7.967-4.615-18.206-1.885-22.804,6.108c-4.609,7.984-1.88,18.196,6.108,22.804l5.343,3.085
	c-8.367,8.516-19.004,14.746-30.908,17.827v-6.151c0-9.223-7.479-16.696-16.696-16.696c-9.217,0-16.696,7.473-16.696,16.696v6.151
	c-11.904-3.081-22.54-9.31-30.908-17.827l5.343-3.085c7.99-4.609,10.718-14.82,6.108-22.804
	c-4.609-7.995-14.837-10.723-22.804-6.108l-5.334,3.08c-1.582-5.689-2.492-11.655-2.492-17.84c0-6.185,0.91-12.151,2.492-17.84
	l5.334,3.08c2.63,1.522,5.5,2.245,8.337,2.245c5.761,0,11.381-2.994,14.467-8.353c4.609-7.984,1.88-18.196-6.108-22.804
	l-5.343-3.085c8.367-8.516,19.004-14.746,30.908-17.827v6.151c0,9.223,7.479,16.696,16.696,16.696
	c9.217,0,16.696-7.473,16.696-16.696v-6.151c11.904,3.081,22.54,9.31,30.908,17.827l-5.343,3.085
	c-7.99,4.609-10.718,14.82-6.108,22.804c3.087,5.358,8.706,8.353,14.467,8.353c2.837,0,5.707-0.722,8.337-2.245l5.334-3.08
	c1.582,5.689,2.492,11.655,2.492,17.84C320.002,362.359,319.091,368.325,317.51,374.014z"/>
<path style="fill:#F9A926;" d="M269.913,297.737v-6.151c11.904,3.081,22.54,9.31,30.908,17.827l-5.343,3.085
	c-7.99,4.609-10.718,14.82-6.108,22.804c3.087,5.358,8.706,8.353,14.467,8.353c2.837,0,5.707-0.722,8.337-2.245l5.334-3.08
	c1.582,5.689,2.492,11.655,2.492,17.84c0,6.185-0.91,12.151-2.492,17.84l-5.334-3.08c-7.967-4.615-18.206-1.885-22.804,6.108
	c-4.609,7.984-1.88,18.196,6.108,22.804l5.343,3.085c-8.367,8.516-19.004,14.746-30.908,17.827v-6.151
	c0-9.223-7.479-16.696-16.696-16.696v58.435c55.258,0,100.175-45.278,100.175-100.175c0-54.877-44.894-100.175-100.175-100.175
	v58.435C262.436,314.433,269.913,306.96,269.913,297.737z"/>
<circle style="fill:#FFC033;" cx="253.221" cy="356.178" r="16.696"/>
<path style="fill:#F9A926;" d="M269.913,356.173c0-9.221-7.475-16.696-16.696-16.696v33.392
	C262.438,372.869,269.913,365.394,269.913,356.173z"/>
</svg>