<?xml version="1.0" encoding="iso-8859-1"?>
<!-- Uploaded to: SVG Repo, www.svgrepo.com, Generator: SVG Repo Mixer Tools -->
<svg version="1.1" id="Layer_1" xmlns="http://www.w3.org/2000/svg" xmlns:xlink="http://www.w3.org/1999/xlink" 
	 viewBox="0 0 512 512" xml:space="preserve">
<polygon style="fill:#B3B3B3;" points="435.969,125.479 435.969,386.704 417.962,386.704 93.847,386.704 75.84,386.704 
	75.84,125.479 93.847,125.479 417.962,125.479 "/>
<rect x="395.221" y="125.475" style="fill:#CCCCCC;" width="90.562" height="261.225"/>
<g>
	<path style="fill:#F95428;" d="M457.05,437.024v49.809c0,9.137-7.408,16.545-16.545,16.545c-9.137,0-16.545-7.408-16.545-16.545
		v-49.809H457.05z"/>
	<path style="fill:#F95428;" d="M87.847,25.339v49.821H54.769V25.339c0-9.137,7.408-16.545,16.533-16.545
		C80.44,8.794,87.847,16.201,87.847,25.339z"/>
	<path style="fill:#F95428;" d="M457.05,25.339v49.821h-33.09V25.339c0-9.137,7.408-16.545,16.545-16.545
		C449.642,8.794,457.05,16.201,457.05,25.339z"/>
	<path style="fill:#F95428;" d="M87.847,437.024v49.809c0,9.137-7.407,16.545-16.545,16.545c-9.126,0-16.533-7.408-16.533-16.545
		v-49.809H87.847z"/>
</g>
<g>
	<polygon style="fill:#F7B239;" points="130.516,386.704 130.516,437.024 87.847,437.024 54.769,437.024 12.1,437.024 12.1,386.704 
		26.033,386.704 116.583,386.704 	"/>
	<polygon style="fill:#F7B239;" points="499.718,386.704 499.718,437.024 457.05,437.024 423.96,437.024 381.291,437.024 
		381.291,386.704 395.224,386.704 485.786,386.704 	"/>
	<polygon style="fill:#F7B239;" points="499.718,75.159 499.718,125.479 485.786,125.479 395.224,125.479 381.291,125.479 
		381.291,75.159 423.96,75.159 457.05,75.159 	"/>
	<polygon style="fill:#F7B239;" points="130.516,75.159 130.516,125.479 116.583,125.479 26.033,125.479 12.1,125.479 12.1,75.159 
		54.769,75.159 87.847,75.159 	"/>
</g>
<g>
	<polygon style="fill:#E09B2D;" points="64.34,386.704 64.34,437.024 45.517,437.024 30.925,437.024 12.1,437.024 12.1,386.704 
		18.247,386.704 58.193,386.704 	"/>
	<polygon style="fill:#E09B2D;" points="64.34,75.159 64.34,125.479 58.193,125.479 18.247,125.479 12.1,125.479 12.1,75.159 
		30.925,75.159 45.517,75.159 	"/>
	<polygon style="fill:#E09B2D;" points="433.53,386.704 433.53,437.024 414.707,437.024 400.115,437.024 381.291,437.024 
		381.291,386.704 387.438,386.704 427.384,386.704 	"/>
	<polygon style="fill:#E09B2D;" points="433.53,75.159 433.53,125.479 427.384,125.479 387.438,125.479 381.291,125.479 
		381.291,75.159 400.115,75.159 414.707,75.159 	"/>
</g>
<rect x="26.033" y="125.475" style="fill:#CCCCCC;" width="90.55" height="261.225"/>
<g>
	<rect x="26.033" y="125.475" style="fill:#B3B3B3;" width="28.549" height="261.225"/>
	<rect x="395.221" y="125.475" style="fill:#B3B3B3;" width="28.549" height="261.225"/>
</g>
<polygon style="fill:#999999;" points="395.224,125.479 395.224,386.704 393.656,386.704 365.443,386.704 363.875,386.704 
	363.875,125.479 365.443,125.479 393.656,125.479 "/>
<path d="M485.876,320.442c4.81,0,8.708-3.899,8.708-8.708V134.101h5.225c4.81,0,8.708-3.899,8.708-8.708v-50.32
	c0-4.809-3.898-8.708-8.708-8.708h-33.961V25.253C465.848,11.328,454.52,0,440.595,0c-13.924,0-25.253,11.328-25.253,25.253v41.113
	h-33.961c-4.81,0-8.708,3.899-8.708,8.708v41.612H214.31c-4.809,0-8.708,3.899-8.708,8.708s3.899,8.708,8.708,8.708h172.296V377.91
	H125.382V134.101h59.902c4.809,0,8.708-3.899,8.708-8.708s-3.899-8.708-8.708-8.708h-45.969V75.074c0-4.809-3.899-8.708-8.708-8.708
	H96.646V25.253C96.646,11.328,85.317,0,71.393,0C57.474,0,46.152,11.328,46.152,25.253v41.113H12.191
	c-4.809,0-8.708,3.899-8.708,8.708v50.32c0,4.809,3.899,8.708,8.708,8.708h5.225V377.91h-5.225c-4.809,0-8.708,3.899-8.708,8.708
	v50.32c0,4.809,3.899,8.708,8.708,8.708H79.23v41.101c0,4.321-3.516,7.837-7.837,7.837c-4.316,0-7.825-3.516-7.825-7.837v-20.601
	c0-4.809-3.899-8.708-8.708-8.708s-8.708,3.899-8.708,8.708v20.601c0,13.924,11.323,25.253,25.241,25.253
	c13.924,0,25.253-11.328,25.253-25.253v-41.101h0.587h33.373c4.809,0,8.708-3.899,8.708-8.708v-41.612h233.359v41.612
	c0,4.809,3.898,8.708,8.708,8.708h33.961v41.101c0,13.924,11.328,25.253,25.253,25.253s25.253-11.328,25.253-25.253v-41.101h33.961
	c4.81,0,8.708-3.899,8.708-8.708v-50.32c0-4.809-3.898-8.708-8.708-8.708h-5.225v-37.15c0-4.809-3.898-8.708-8.708-8.708
	s-8.708,3.899-8.708,8.708v37.15h-73.146V134.101h73.146v177.633C477.168,316.543,481.067,320.442,485.876,320.442z M63.567,25.253
	c0-4.321,3.51-7.837,7.825-7.837c4.321,0,7.837,3.516,7.837,7.837v41.113H63.567V25.253z M121.899,428.23h-101v-32.904h101V428.23z
	 M34.831,377.91V134.101h73.135V377.91H34.831z M121.899,116.686h-101V83.781h101V116.686z M432.758,25.253
	c0-4.321,3.516-7.837,7.837-7.837s7.837,3.516,7.837,7.837v41.113h-15.674V25.253z M448.432,486.747
	c0,4.321-3.516,7.837-7.837,7.837s-7.837-3.516-7.837-7.837v-41.101h15.674V486.747z M491.101,395.326v32.904H390.09v-32.904
	H491.101z M390.09,116.686V83.781h101.011v32.904H390.09z"/>
<path d="M348.958,202.329c-1.556-2.694-4.429-4.354-7.541-4.354h-51.92l-25.96-44.965c-1.556-2.694-4.431-4.354-7.542-4.354
	c-3.112,0-5.985,1.66-7.541,4.354l-25.96,44.965h-51.92c-3.112,0-5.985,1.66-7.541,4.354c-1.556,2.694-1.556,6.014,0,8.708
	l25.96,44.964l-25.96,44.964c-1.556,2.694-1.556,6.014,0,8.708c1.556,2.694,4.429,4.354,7.541,4.354h51.921l25.96,44.964
	c1.556,2.694,4.429,4.354,7.541,4.354c3.11,0,5.986-1.66,7.542-4.354l25.96-44.964h51.92c3.112,0,5.985-1.66,7.541-4.354
	c1.556-2.694,1.556-6.014,0-8.708l-25.96-44.964l25.96-44.964C350.514,208.342,350.514,205.023,348.958,202.329z M255.996,174.78
	l13.392,23.195h-26.783L255.996,174.78z M279.443,215.391l23.446,40.61l-23.446,40.61H232.55l-23.446-40.61l23.446-40.61H279.443z
	 M185.657,215.391h26.783l-13.392,23.194L185.657,215.391z M185.657,296.611l13.392-23.195l13.392,23.195H185.657z M255.996,337.221
	l-13.392-23.194h26.783L255.996,337.221z M326.335,296.611h-26.783l13.392-23.194L326.335,296.611z M312.944,238.585l-13.392-23.194
	h26.783L312.944,238.585z"/>
</svg>