<?xml version="1.0" encoding="iso-8859-1"?>
<!-- Uploaded to: SVG Repo, www.svgrepo.com, Generator: SVG Repo Mixer Tools -->
<svg height="800px" width="800px" version="1.1" id="Layer_1" xmlns="http://www.w3.org/2000/svg" xmlns:xlink="http://www.w3.org/1999/xlink" 
	 viewBox="0 0 511.999 511.999" xml:space="preserve">
<path style="fill:#F2F2F2;" d="M456.448,302.447c0-110.756-89.786-293.252-200.542-293.252S55.365,191.69,55.365,302.447
	s89.786,200.542,200.542,200.542S456.448,413.203,456.448,302.447z"/>
<path style="fill:#E09B2D;" d="M255.916,9.194c-76.072,0-137.735,182.502-137.735,293.253c0,109.889,60.704,199.131,135.951,200.527
	c-109.938-0.947-198.767-90.371-198.767-200.527C55.365,191.695,145.153,9.194,255.916,9.194z"/>
<path style="fill:#F95428;" d="M452.153,256.806c2.816,16.035,4.297,31.426,4.297,45.641c0,18.887-2.61,37.168-7.502,54.502H62.86
	c-4.892-17.334-7.502-35.614-7.502-54.502c0-14.214,1.481-29.606,4.297-45.641H452.153z"/>
<g>
	<path style="fill:#F7B239;" d="M452.153,256.806H121.125c1.966-16.326,4.88-33.32,8.63-50.423v-0.012
		c11.204-7.174,17.674-18.256,37.605-18.256c29.509,0,29.509,24.277,59.017,24.277s29.509-24.277,59.029-24.277
		c29.509,0,29.509,24.277,59.017,24.277c29.521,0,29.521-24.277,59.029-24.277c18.79,0,25.612,9.844,35.711,16.994
		C444.845,222.636,449.227,240.079,452.153,256.806z"/>
	<path style="fill:#F7B239;" d="M448.948,356.948c-5.159,18.317-12.855,35.566-22.675,51.346
		c-5.657-3.909-12.393-6.931-22.796-6.931c-29.509,0-29.509,24.277-59.029,24.277c-29.509,0-29.509-24.277-59.017-24.277
		s-29.509,24.277-59.017,24.277c-29.521,0-29.521-24.277-59.029-24.277c-13.134,0-20.417,4.807-27.069,10.148
		c-7.441-16.642-13.207-34.995-16.994-54.562L448.948,356.948L448.948,356.948z"/>
</g>
<path style="fill:#E54728;" d="M123.322,356.948H62.897c-4.892-17.322-7.538-35.602-7.538-54.502
	c0-14.214,1.481-29.606,4.297-45.641h61.469c-1.93,16.035-2.95,31.426-2.95,45.641C118.175,321.334,119.972,339.615,123.322,356.948
	z"/>
<g>
	<path style="fill:#E6E6E6;" d="M254.126,502.974c-64.31-0.558-121.397-31.39-157.703-78.936c3.399,1.007,7.295,1.602,11.932,1.602
		c16.375,0,23.67-7.477,31.961-14.129C164.556,465.891,206.422,502.088,254.126,502.974z"/>
	<path style="fill:#E6E6E6;" d="M255.91,9.194c-56.371,0-104.828,100.215-126.155,197.177v0.012
		c-5.377,3.447-11.847,6.009-21.424,6.009c-17.127,0-24.313-8.181-33.102-15.04C107.663,103.291,176.379,9.194,255.91,9.194z"/>
</g>
<path style="fill:#F95428;" d="M334.106,39.564c-11.75,27.129-38.758,46.102-70.197,46.102c-34.874,0-64.297-23.342-73.486-55.254
	c20.526-13.389,42.557-21.218,65.487-21.218C283.647,9.194,310.072,20.64,334.106,39.564z"/>
<path d="M461.215,255.148c-3.004-17.177-7.477-34.987-13.294-52.931c-23.061-71.287-63.47-134.8-108.088-169.895
	C312.594,10.875,284.392,0,256.005,0c-23.666,0-47.372,7.636-70.461,22.696c-22.922,14.952-44.705,36.798-64.739,64.931
	c-2.916,4.096-1.96,9.78,2.135,12.696c4.096,2.917,9.78,1.962,12.697-2.134c15.662-21.994,32.331-39.762,49.669-53.012
	c13.305,31.032,44.309,51.931,78.698,51.931c30.736,0,58.78-16.412,73.974-42.546c32.842,29.421,62.712,75.195,83.362,127.478
	c-4.888-1.878-10.673-3.118-17.793-3.118c-18.016,0-27.593,7.879-35.29,14.209c-6.839,5.625-12.239,10.068-23.739,10.068
	c-11.49,0-16.889-4.441-23.725-10.065c-7.696-6.331-17.274-14.212-35.293-14.212c-18.026,0-27.605,7.881-35.305,14.213
	c-6.835,5.623-12.234,10.064-23.725,10.064s-16.889-4.441-23.725-10.065c-7.697-6.331-17.274-14.212-35.293-14.212
	c-18.016,0-27.594,7.879-35.29,14.209c-6.839,5.625-12.239,10.068-23.739,10.068c-10.711,0-16.128-3.861-22.354-8.94
	c8.613-23.81,19.53-47.362,31.809-68.466c2.528-4.346,1.056-9.918-3.29-12.447c-4.344-2.528-9.918-1.056-12.447,3.29
	c-14.09,24.216-26.01,50.345-35.425,77.658c-7.114,20.623-12.476,41.097-15.934,60.848c-2.942,16.755-4.434,32.64-4.434,47.215
	c0,19.362,2.639,38.53,7.843,56.971c7.167,25.441,18.969,49.042,35.079,70.147c19.159,25.087,44.135,45.857,72.229,60.066
	c29.466,14.904,61.263,22.46,94.505,22.46c36.264,0,72.004-9.41,103.359-27.212c30.397-17.257,56.239-42.076,74.732-71.773
	c10.41-16.726,18.386-34.789,23.708-53.685c5.205-18.444,7.844-37.613,7.844-56.974
	C465.648,287.779,464.155,271.893,461.215,255.148z M264.004,78.9c-28.286,0-53.652-17.96-63.267-44.206
	c18.374-10.932,36.94-16.486,55.268-16.486c22.542,0,45.268,8.305,67.635,24.685C312.055,64.924,289.173,78.9,264.004,78.9z
	 M143.73,207.191c6.835-5.623,12.234-10.064,23.723-10.064c11.49,0,16.889,4.441,23.725,10.065
	c7.697,6.331,17.274,14.212,35.293,14.212c18.016,0,27.594-7.879,35.291-14.209c6.838-5.625,12.239-10.068,23.738-10.068
	c11.491,0,16.889,4.441,23.726,10.065c7.696,6.331,17.273,14.212,35.291,14.212c18.026,0,27.607-7.881,35.305-14.213
	c6.836-5.623,12.236-10.064,23.725-10.064s16.886,4.44,23.72,10.063c1.349,1.109,2.736,2.243,4.193,3.367
	c3.961,12.515,7.231,24.924,9.76,37.054H387.1c-5.029,0-9.104,4.076-9.104,9.104c0,5.028,4.075,9.104,9.104,9.104h57.398
	c1.946,12.929,2.942,25.195,2.942,36.537c0,15.377-1.826,30.614-5.422,45.398H69.979c-3.598-14.781-5.423-30.018-5.423-45.398
	c0-11.339,0.998-23.604,2.944-36.537h289.253c5.029,0,9.104-4.076,9.104-9.104c0-5.028-4.075-9.104-9.104-9.104H70.785
	c2.402-11.524,5.459-23.272,9.144-35.131c6.708,4.727,15.35,8.924,28.495,8.924C126.451,221.405,136.032,213.524,143.73,207.191z
	 M256.005,493.792c-53.319,0-102.949-21.576-139.016-59.8c12.688-2.009,20.377-8.3,26.757-13.544
	c0.784-0.645,1.568-1.29,2.365-1.929c5.745-4.614,10.968-8.142,21.369-8.142c11.489,0,16.889,4.441,23.725,10.064
	c7.698,6.333,17.28,14.213,35.305,14.213c18.017,0,27.596-7.88,35.291-14.212c6.836-5.624,12.234-10.065,23.726-10.065
	c11.49,0,16.889,4.441,23.725,10.065c7.696,6.331,17.274,14.212,35.293,14.212c18.024,0,27.605-7.88,35.303-14.213
	c6.836-5.623,12.236-10.064,23.726-10.064c3.86,0,6.97,0.501,9.586,1.299C377.29,463.269,319.268,493.792,256.005,493.792z
	 M423.021,395.937c-5.928-2.571-12.199-3.768-19.448-3.768c-18.017,0-27.594,7.879-35.291,14.21
	c-6.839,5.624-12.239,10.066-23.738,10.066c-11.491,0-16.891-4.441-23.726-10.065c-7.696-6.331-17.273-14.212-35.291-14.212
	s-27.597,7.88-35.294,14.212c-6.835,5.623-12.234,10.065-23.723,10.065c-11.499,0-16.9-4.443-23.739-10.068
	c-7.697-6.33-17.275-14.209-35.291-14.209c-16.27,0-25.445,6.273-32.765,12.151c-0.85,0.682-1.69,1.372-2.53,2.062
	c-6.841,5.623-12.243,10.064-23.734,10.064c-2.401,0-4.581-0.204-6.619-0.589c-11.312-15.333-20.173-32.061-26.441-49.895H436.6
	C432.953,376.316,428.409,386.34,423.021,395.937z"/>
<circle cx="209.727" cy="307.212" r="9.104"/>
<circle cx="240.571" cy="307.212" r="9.104"/>
<circle cx="425.682" cy="307.212" r="9.104"/>
<path d="M394.832,316.316c5.036,0,9.104-4.078,9.104-9.104c0-5.025-4.068-9.104-9.104-9.104c-5.027,0-9.104,4.079-9.104,9.104
	C385.728,312.237,389.807,316.316,394.832,316.316z"/>
<circle cx="86.315" cy="307.212" r="9.104"/>
<path d="M178.865,298.108c-5.025,0-9.104,4.079-9.104,9.104c0,5.025,4.079,9.104,9.104,9.104c5.037,0,9.104-4.078,9.104-9.104
	C187.969,302.187,183.902,298.108,178.865,298.108z"/>
<circle cx="302.283" cy="307.212" r="9.104"/>
<circle cx="117.171" cy="307.212" r="9.104"/>
<path d="M148.021,298.108c-5.037,0-9.104,4.079-9.104,9.104c0,5.025,4.066,9.104,9.104,9.104c5.025,0,9.104-4.078,9.104-9.104
	C157.125,302.187,153.046,298.108,148.021,298.108z"/>
<path d="M271.421,298.108c-5.027,0-9.092,4.079-9.092,9.104c0,5.025,4.066,9.104,9.092,9.104c5.036,0,9.116-4.078,9.116-9.104
	C280.537,302.187,276.458,298.108,271.421,298.108z"/>
<circle cx="333.126" cy="307.212" r="9.104"/>
<path d="M354.885,307.212c0,5.025,4.066,9.104,9.104,9.104c5.025,0,9.104-4.078,9.104-9.104c0-5.025-4.078-9.104-9.104-9.104
	C358.951,298.108,354.885,302.187,354.885,307.212z"/>
<path d="M303.891,144.957c1.068,0,2.159-0.194,3.215-0.595c4.698-1.772,7.077-7.028,5.292-11.738
	c-1.772-4.698-7.028-7.065-11.726-5.292c-4.71,1.772-7.077,7.028-5.305,11.738C296.752,142.712,300.213,144.957,303.891,144.957z"/>
<path d="M362.397,106.964c3.4-3.702,3.168-9.456-0.533-12.867c-3.702-3.399-9.468-3.156-12.868,0.534
	c-3.399,3.702-3.167,9.468,0.534,12.867c1.748,1.614,3.957,2.403,6.166,2.403C358.149,109.902,360.602,108.918,362.397,106.964z"/>
<path d="M273.326,152.568c0.378,0,0.765-0.024,1.165-0.073c4.978-0.643,8.51-5.195,7.878-10.184
	c-0.643-4.989-5.195-8.521-10.184-7.878c-4.989,0.631-8.522,5.195-7.878,10.184C264.889,149.206,268.811,152.568,273.326,152.568z"
	/>
<path d="M331.846,130.452c1.76,0,3.532-0.498,5.098-1.566c4.163-2.816,5.256-8.473,2.44-12.636
	c-2.828-4.163-8.484-5.256-12.648-2.44c-4.163,2.828-5.256,8.485-2.428,12.648C326.068,129.056,328.933,130.452,331.846,130.452z"/>
<path d="M208.119,145.54c0.995,0.352,2.015,0.51,3.01,0.51c3.751,0,7.271-2.343,8.582-6.081c1.675-4.746-0.825-9.941-5.572-11.617
	c-4.746-1.663-9.941,0.838-11.604,5.584C200.872,138.67,203.372,143.865,208.119,145.54z"/>
<path d="M164.833,109.695c3.617-3.496,3.727-9.262,0.231-12.879c-3.484-3.617-9.249-3.727-12.867-0.231s-3.727,9.262-0.231,12.879
	c1.784,1.845,4.163,2.78,6.555,2.78C160.791,112.244,163.073,111.395,164.833,109.695z"/>
<path d="M241.864,152.932c4.6,0,8.558-3.484,9.043-8.169c0.522-5.001-3.12-9.468-8.121-9.99c-5.001-0.522-9.468,3.107-9.99,8.108
	c-0.522,5.001,3.107,9.48,8.108,10.002C241.232,152.92,241.548,152.932,241.864,152.932z"/>
<path d="M182.834,132.224c2.998,0,5.936-1.469,7.672-4.176c2.719-4.236,1.493-9.869-2.731-12.588
	c-4.236-2.719-9.869-1.493-12.588,2.743c-2.719,4.224-1.493,9.856,2.731,12.575C179.448,131.763,181.147,132.224,182.834,132.224z"
	/>
</svg>