<?xml version="1.0" encoding="iso-8859-1"?>
<!-- Uploaded to: SVG Repo, www.svgrepo.com, Generator: SVG Repo Mixer Tools -->
<svg height="800px" width="800px" version="1.1" id="Layer_1" xmlns="http://www.w3.org/2000/svg" xmlns:xlink="http://www.w3.org/1999/xlink" 
	 viewBox="0 0 512 512" xml:space="preserve">
<path style="fill:#B77423;" d="M459.698,0v375.266l-354.833,45.797l-52.565,6.78V52.565c0-14.513,5.885-27.648,15.395-37.17
	C77.218,5.885,90.353,0,104.866,0H459.698z"/>
<path style="fill:#A86522;" d="M104.866,0v421.063l-52.565,6.78V52.565c0-14.513,5.885-27.648,15.395-37.17
	C77.218,5.885,90.353,0,104.866,0z"/>
<path style="fill:#995C0D;" d="M126.229,480.409h-21.363c-14.513,0-27.648-5.885-37.17-15.395
	c-9.51-9.522-15.395-22.669-15.395-37.182c0-29.025,23.54-52.565,52.565-52.565h315.415H459.7v105.142H201.558"/>
<path style="fill:#E6E6E6;" d="M420.28,375.266v68.843H82.149v-63.7c6.874-3.296,14.583-5.144,22.716-5.144L420.28,375.266
	L420.28,375.266z"/>
<path style="fill:#CCCCCC;" d="M420.282,375.266v18.044H104.867c-8.133,0-15.843,1.848-22.716,5.144v-18.043
	c6.874-3.296,14.583-5.144,22.716-5.144L420.282,375.266L420.282,375.266z"/>
<path style="fill:#E6E6E6;" d="M418.4,291.001V82.176c-22.692,0-41.087-18.395-41.087-41.087H189.138
	c0,22.692-18.395,41.087-41.087,41.087v208.825c22.692,0,41.087,18.395,41.087,41.087h188.174
	C377.311,309.397,395.707,291.001,418.4,291.001z"/>
<polygon style="fill:#F7B239;" points="347.96,134.8 294.995,134.8 294.995,80.658 271.455,80.658 271.455,134.8 218.489,134.8 
	218.489,158.341 271.455,158.341 271.455,292.52 294.995,292.52 294.995,158.341 347.96,158.341 "/>
<polygon style="fill:#F95428;" points="201.558,512 163.894,488.46 126.229,512 126.229,409.6 201.558,409.6 "/>
</svg>