<?xml version="1.0" encoding="iso-8859-1"?>
<!-- Uploaded to: SVG Repo, www.svgrepo.com, Generator: SVG Repo Mixer Tools -->
<svg height="800px" width="800px" version="1.1" id="Layer_1" xmlns="http://www.w3.org/2000/svg" xmlns:xlink="http://www.w3.org/1999/xlink" 
	 viewBox="0 0 512.002 512.002" xml:space="preserve">
<path style="fill:#FC694C;" d="M370.751,496.564c-39.787,0-79.34-9.36-114.747-27.109c-35.418,17.752-74.972,27.109-114.756,27.109
	c-44.627,0-88.588-11.668-127.13-33.743C5.926,458.105,0.77,449.68,0.31,440.276C0.104,436.044,0,431.806,0,427.677
	c0-45.917,12.306-90.961,35.587-130.265c19.98-33.742,47.784-62.767,80.619-84.212c4.14-38.87,17.251-76.633,38.065-109.522
	c21.734-34.343,51.919-63.441,87.292-84.153c4.333-2.674,9.32-4.087,14.432-4.087h0.128c4.9,0.018,9.715,1.347,13.921,3.846
	c35.451,20.659,65.762,49.798,87.584,84.223c20.872,32.926,34.019,70.746,38.167,109.681c32.832,21.445,60.638,50.47,80.62,84.214
	c23.281,39.316,35.586,84.364,35.586,130.276c0,4.142-0.104,8.38-0.311,12.597c-0.46,9.416-5.619,17.842-13.799,22.541
	C459.339,484.895,415.378,496.564,370.751,496.564z M310.8,432.378c19.359,6.053,39.452,9.113,59.951,9.113
	c29.731,0,59.361-6.669,86.102-19.334c-0.933-34.131-10.504-67.447-27.822-96.69c-9.638-16.275-21.4-30.982-35.092-43.899
	c-5.075,31.186-15.931,61.461-31.839,88.536C348.306,393.568,331.096,414.451,310.8,432.378z M55.147,422.158
	c26.741,12.665,56.371,19.334,86.102,19.334c20.495,0,40.593-3.06,59.96-9.114c-20.31-17.938-37.519-38.819-51.298-62.274
	c-15.917-27.078-26.774-57.354-31.844-88.53c-13.684,12.904-25.446,27.61-35.087,43.894
	C65.655,354.722,56.081,388.038,55.147,422.158z M169.904,246.087c0.928,33.884,10.383,67.005,27.485,96.114
	c14.664,24.948,34.842,46.723,58.618,63.323c23.779-16.602,43.955-38.377,58.606-63.322c17.103-29.097,26.557-62.218,27.483-96.123
	c-26.738-12.659-56.363-19.323-86.089-19.323C226.255,226.755,196.625,233.424,169.904,246.087z M256.005,75.597
	c-38.134,26.458-65.326,64.25-78.104,108.251c25.202-8.08,51.394-12.165,78.105-12.165c26.7,0,52.888,4.083,78.094,12.158
	C321.32,139.85,294.133,102.059,256.005,75.597z"/>
<path style="fill:#F95428;" d="M256.086,25.765c3.132,0.011,6.115,0.872,8.685,2.398c69.575,40.547,114.378,111.441,121.228,191.02
	c33.376,20.847,61.44,49.554,81.53,83.48c22.339,37.725,34.145,80.956,34.145,125.014c0,4.027-0.103,8.1-0.298,12.093
	c-0.287,5.863-3.534,11.164-8.628,14.089c-36.979,21.18-79.166,32.378-121.997,32.378c-40.088,0-79.545-9.787-114.745-28.397
	c-35.212,18.61-74.669,28.397-114.757,28.397c-42.83,0-85.018-11.198-121.997-32.378c-5.083-2.926-8.341-8.238-8.628-14.089
	c-0.195-4.004-0.298-8.066-0.298-12.093c0-44.058,11.806-87.29,34.145-125.003c20.09-33.927,48.154-62.633,81.53-83.48
	c6.838-79.453,51.516-150.256,120.895-190.825c2.639-1.652,5.76-2.604,9.098-2.604h0.011c0.011,0,0.034,0,0.034,0
	C256.063,25.765,256.063,25.765,256.086,25.765z M467.254,428.538c0-0.287,0-0.574,0-0.861c0-37.897-10.142-75.059-29.337-107.471
	c-13.481-22.763-31.127-42.784-51.86-59.019c-3.075,36.577-14.273,72.053-32.86,103.685c-16.2,27.559-37.656,51.711-62.954,71.043
	c25.391,10.452,52.778,15.902,80.509,15.902C404.391,451.817,437.549,443.798,467.254,428.538z M352.497,240.569
	c0-0.287,0-0.585,0-0.872c-29.693-15.248-62.851-23.268-96.491-23.268c-33.651,0-66.821,8.02-96.503,23.28c0,0.287,0,0.574,0,0.861
	c0,37.644,10.028,74.6,28.982,106.863c16.705,28.42,39.916,52.628,67.521,70.538c27.605-17.91,50.816-42.119,67.509-70.538
	C342.481,315.169,352.497,278.214,352.497,240.569z M348.63,200.091c-10.842-56.082-43.978-105.44-92.625-136.923
	c-48.647,31.472-81.794,80.83-92.636,136.935c29.257-11.898,60.763-18.094,92.636-18.094
	C287.867,182.009,319.373,188.205,348.63,200.091z M221.769,435.915c-25.299-19.333-46.766-43.484-62.954-71.043
	c-18.587-31.621-29.796-67.108-32.86-103.674c-20.744,16.223-38.39,36.256-51.86,59.008C54.9,352.619,44.746,389.781,44.746,427.677
	c0,0.287,0,0.574,0,0.861c29.705,15.26,62.863,23.28,96.503,23.28C168.992,451.817,196.367,446.368,221.769,435.915z"/>
</svg>