<?xml version="1.0" encoding="iso-8859-1"?>
<!-- Uploaded to: SVG Repo, www.svgrepo.com, Generator: SVG Repo Mixer Tools -->
<svg height="800px" width="800px" version="1.1" id="Layer_1" xmlns="http://www.w3.org/2000/svg" xmlns:xlink="http://www.w3.org/1999/xlink" 
	 viewBox="0 0 512 512" xml:space="preserve">
<path style="fill:#F7B239;" d="M256,39.378l250.135,433.245H5.854L256,39.378z"/>
<path style="fill:#F2F2F2;" d="M302.485,259.071c39.527,12.869,71.855,41.701,89.358,78.893
	c-23.99,50.947-75.799,86.23-135.843,86.23c-60.055,0-111.853-35.283-135.843-86.23c17.504-37.181,49.82-66.013,89.347-78.882
	C191.103,273.09,320.874,273.09,302.485,259.071z"/>
<path style="fill:#666666;" d="M302.485,259.071c18.389,14.019,30.269,36.157,30.269,61.079c0,42.402-34.363,76.766-76.754,76.766
	c-42.402,0-76.765-34.363-76.765-76.766c0-24.91,11.868-47.06,30.269-61.067c14.64-4.773,30.269-7.349,46.496-7.349
	c16.216,0,31.845,2.576,46.473,7.337H302.485z"/>
<g>
	<path style="fill:#F95428;" d="M89.685,204.581c-1.801,0-3.618-0.562-5.169-1.726l-62.091-46.577
		c-3.81-2.858-4.583-8.265-1.724-12.075c2.858-3.81,8.265-4.583,12.075-1.724l62.091,46.577c3.81,2.858,4.583,8.265,1.724,12.075
		C94.898,203.39,92.307,204.581,89.685,204.581z"/>
	<path style="fill:#F95428;" d="M143.166,144.206c-3.701,0-7.122-2.401-8.252-6.126l-17.251-56.927
		c-1.381-4.559,1.195-9.374,5.753-10.756c4.561-1.381,9.375,1.195,10.756,5.754l17.251,56.927c1.381,4.559-1.195,9.374-5.753,10.756
		C144.837,144.086,143.995,144.206,143.166,144.206z"/>
	<path style="fill:#F95428;" d="M56.916,280.484H8.625c-4.763,0-8.625-3.862-8.625-8.625s3.862-8.625,8.625-8.625h48.29
		c4.763,0,8.625,3.862,8.625,8.625S61.679,280.484,56.916,280.484z"/>
	<path style="fill:#F95428;" d="M422.303,204.581c-2.622,0-5.212-1.191-6.907-3.45c-2.858-3.811-2.085-9.218,1.725-12.075
		l62.102-46.577c3.811-2.858,9.218-2.085,12.075,1.725c2.858,3.811,2.085,9.218-1.725,12.075l-62.102,46.577
		C425.92,204.02,424.103,204.581,422.303,204.581z"/>
	<path style="fill:#F95428;" d="M368.823,144.206c-0.829,0-1.671-0.12-2.505-0.373c-4.56-1.381-7.135-6.198-5.754-10.756
		l17.251-56.927c1.381-4.56,6.202-7.135,10.756-5.754c4.56,1.381,7.135,6.198,5.754,10.756l-17.251,56.927
		C375.945,141.805,372.523,144.206,368.823,144.206z"/>
	<path style="fill:#F95428;" d="M503.375,280.484h-48.302c-4.765,0-8.625-3.862-8.625-8.625s3.861-8.625,8.625-8.625h48.302
		c4.765,0,8.625,3.862,8.625,8.625S508.138,280.484,503.375,280.484z"/>
</g>
</svg>