<?xml version="1.0" encoding="iso-8859-1"?>
<!-- Uploaded to: SVG Repo, www.svgrepo.com, Generator: SVG Repo Mixer Tools -->
<svg fill="#000000" height="800px" width="800px" version="1.1" id="Layer_1" xmlns="http://www.w3.org/2000/svg" xmlns:xlink="http://www.w3.org/1999/xlink" 
	 viewBox="0 0 512 512" xml:space="preserve">
<g>
	<g>
		<path d="M83.478,350.609c-9.22,0-16.696,7.475-16.696,16.696V384v16.696v16.696h33.391v-16.696V384v-16.696
			C100.174,358.084,92.699,350.609,83.478,350.609z"/>
	</g>
</g>
<g>
	<g>
		<path d="M428.522,250.435c-9.22,0-16.696,7.475-16.696,16.696v16.696v16.696v16.696h33.391v-16.696v-16.696V267.13
			C445.217,257.91,437.742,250.435,428.522,250.435z"/>
	</g>
</g>
<g>
	<g>
		<path d="M83.478,250.435c-9.22,0-16.696,7.475-16.696,16.696v16.696v16.696v16.696h33.391v-16.696v-16.696V267.13
			C100.174,257.91,92.699,250.435,83.478,250.435z"/>
	</g>
</g>
<g>
	<g>
		<path d="M428.522,350.609c-9.22,0-16.696,7.475-16.696,16.696V384v16.696v16.696h33.391v-16.696V384v-16.696
			C445.217,358.084,437.742,350.609,428.522,350.609z"/>
	</g>
</g>
<g>
	<g>
		<path d="M445.217,85.158V44.522c0-9.22-7.475-16.696-16.696-16.696s-16.696,7.475-16.696,16.696v40.636
			c-38.057,7.756-66.783,41.484-66.783,81.799v16.837l-72.348-68.54V55.652c0-9.22-7.475-16.696-16.696-16.696
			c-9.22,0-16.696,7.475-16.696,16.696v59.601l-72.348,68.54v-16.837c0-40.313-28.725-74.042-66.783-81.799V44.522
			c0-9.22-7.475-16.696-16.696-16.696s-16.696,7.475-16.696,16.696v40.636C28.725,92.915,0,126.643,0,166.957v33.391v267.13
			c0,9.22,7.475,16.696,16.696,16.696h478.609c9.22,0,16.696-7.475,16.696-16.696v-267.13v-33.391
			C512,126.643,483.275,92.915,445.217,85.158z M133.565,222.609v228.174H33.391V217.043h100.174V222.609z M133.565,183.652H33.391
			v-16.696c0-27.618,22.469-50.087,50.087-50.087c27.618,0,50.087,22.469,50.087,50.087V183.652z M345.043,450.783h-33.391v-50.087
			c0-9.22-7.475-16.696-16.696-16.696s-16.696,7.475-16.696,16.696v50.087h-44.522v-50.087c0-9.22-7.475-16.696-16.696-16.696
			c-9.22,0-16.696,7.475-16.696,16.696v50.087h-33.391V229.79L256,145.433l89.043,84.358V450.783z M478.609,450.783H378.435V222.609
			v-5.565h100.174V450.783z M478.609,183.652H378.435v-16.696c0-27.618,22.469-50.087,50.087-50.087s50.087,22.469,50.087,50.087
			V183.652z"/>
	</g>
</g>
<g>
	<g>
		<path d="M313.823,291.121l15.3-26.378c2.893-4.985,2.901-11.136,0.025-16.131c-2.877-4.994-8.202-8.072-13.966-8.072h-30.698
			l-14.446-24.904c-2.884-4.971-8.195-8.031-13.942-8.031c-5.748,0-11.059,3.06-13.942,8.031l-14.446,24.904h-30.698
			c-5.764,0-11.089,3.078-13.965,8.072c-2.877,4.994-2.868,11.145,0.024,16.131l15.3,26.378l-15.3,26.378
			c-2.893,4.985-2.902,11.136-0.024,16.131c2.876,4.994,8.202,8.072,13.965,8.072h30.698l14.446,24.904
			c2.884,4.971,8.195,8.031,13.942,8.031c5.747,0,11.058-3.06,13.942-8.031l14.446-24.904h30.698c5.764,0,11.089-3.078,13.966-8.072
			c2.876-4.994,2.867-11.145-0.025-16.131L313.823,291.121z M265.914,309.469h-19.641l-10.642-18.347l10.642-18.347h19.641
			l10.642,18.347L265.914,309.469z"/>
	</g>
</g>
</svg>