<?xml version="1.0" encoding="iso-8859-1"?>
<!-- Uploaded to: SVG Repo, www.svgrepo.com, Generator: SVG Repo Mixer Tools -->
<svg height="800px" width="800px" version="1.1" id="Layer_1" xmlns="http://www.w3.org/2000/svg" xmlns:xlink="http://www.w3.org/1999/xlink" 
	 viewBox="0 0 511.999 511.999" xml:space="preserve">
<path style="fill:#F7B239;" d="M314.807,233.242L314.807,233.242c15.994,45.46,58.939,75.875,107.13,75.875h27.727
	c0,68.718-35.784,129.095-89.724,163.491c-17.395,11.093-36.668,19.483-57.245,24.581c-14.987,3.722-30.661,5.688-46.791,5.688
	s-31.804-1.965-46.791-5.688c-20.576-5.098-39.85-13.488-57.245-24.581c-53.952-34.396-89.724-94.773-89.724-163.491h27.714
	c48.191,0,91.136-30.415,107.13-75.875l0,0c8.796-24.997,32.41-41.722,58.909-41.722l0,0
	C282.398,191.52,306.012,208.245,314.807,233.242z"/>
<path style="fill:#E09B2D;" d="M222.073,497.192c10.835,3.722,22.173,5.688,33.831,5.688c-16.129,0-31.804-1.966-46.791-5.688
	c-20.576-5.098-39.85-13.488-57.245-24.581c-53.952-34.396-89.724-94.773-89.724-163.491h27.713
	c48.191,0,91.137-30.416,107.131-75.88c4.398-12.493,12.505-22.935,22.812-30.232c10.319-7.309,22.836-11.486,36.091-11.486
	c-9.569,0-18.635,4.177-26.079,11.486c-7.457,7.297-13.316,17.738-16.498,30.232c-11.559,45.464-42.602,75.88-77.44,75.88h-20.023
	c0,68.718,25.846,129.095,64.849,163.491C193.28,483.703,207.209,492.094,222.073,497.192z"/>
<path style="fill:#F95428;" d="M244.972,9.303c0,69.418-49.125,57.662-48.056,104.662c0.479,20.846,14.373,34.691,32.455,41.091
	c5.172,1.83,9.864-3.698,7.321-8.55c-7.457-14.237-12.395-37.406,16.829-57.109c1.314,26.718,23.487,30.969,23.487,50.193
	c0,2.432-0.147,4.619-0.418,6.584c-0.639,4.742,4.275,8.292,8.599,6.253c15.208-7.223,26.915-20.306,29.2-39.531
	C321.871,49.878,244.972,9.303,244.972,9.303z"/>
<path d="M255.999,511.999c-16.601,0-33.09-2.005-49.01-5.959c-21.26-5.267-41.441-13.933-59.978-25.754
	c-58.849-37.519-93.984-101.54-93.984-171.26c0-5.088,4.124-9.213,9.213-9.213h27.716c44.206,0,83.766-28.018,98.439-69.719
	c10.076-28.637,37.241-47.878,67.6-47.878c30.358,0,57.523,19.241,67.6,47.878c14.67,41.701,54.23,69.719,98.439,69.719h27.726
	c5.089,0,9.213,4.125,9.213,9.213c0,18.918-2.603,37.651-7.737,55.681c-1.393,4.894-6.487,7.729-11.384,6.339
	c-4.893-1.393-7.732-6.49-6.337-11.384c3.83-13.457,6.111-27.353,6.804-41.422h-18.286c-52.014,0-98.558-32.965-115.821-82.029
	c-7.485-21.274-27.665-35.568-50.218-35.568s-42.733,14.293-50.218,35.567c-17.264,49.064-63.808,82.031-115.821,82.031H71.678
	c2.935,59.786,34.326,114.052,85.239,146.509c16.849,10.746,35.188,18.62,54.508,23.408c28.948,7.19,60.201,7.189,89.144,0.001
	c19.324-4.787,37.663-12.663,54.51-23.408c28.03-17.874,50.76-42.978,65.732-72.6c2.293-4.541,7.837-6.363,12.378-4.067
	c4.541,2.296,6.363,7.837,4.067,12.379c-16.461,32.572-41.452,60.174-72.268,79.824c-18.536,11.822-38.717,20.488-59.982,25.755
	C289.088,509.993,272.599,511.999,255.999,511.999z"/>
<path d="M231.496,164.532c-1.704,0-3.426-0.289-5.105-0.882c-23.642-8.369-38.069-26.898-38.591-49.564
	c-0.58-25.462,12.056-37.285,23.205-47.716c12.778-11.957,24.849-23.253,24.849-57.157c0-3.228,1.69-6.222,4.456-7.889
	c2.766-1.667,6.205-1.765,9.057-0.259c0.834,0.44,20.645,10.993,39.682,29.751c26.033,25.651,37.994,54.379,34.585,83.077
	c-2.47,20.796-14.686,37.406-34.395,46.766c-5.092,2.403-11.051,1.825-15.578-1.488c-4.511-3.302-6.85-8.788-6.105-14.316
	c0.224-1.628,0.334-3.421,0.334-5.355c0-5.347-2.719-8.814-7.928-14.981c-4.115-4.869-8.861-10.487-12.032-18.301
	c-9.167,10.439-10.122,22.289-2.981,35.923c2.94,5.609,2.156,12.333-2,17.125C239.991,162.681,235.81,164.532,231.496,164.532z
	 M253.349,25.235c-3.733,30.239-17.984,43.575-29.755,54.589c-10.314,9.649-17.764,16.623-17.374,33.841
	c0.364,15.786,10.122,24.611,18.983,29.38c-8.667-23.349-0.458-45.385,23.263-61.378c2.757-1.857,6.302-2.086,9.275-0.599
	c2.974,1.489,4.914,4.464,5.078,7.786c0.548,11.144,5.493,16.996,11.219,23.774c5.756,6.813,12.279,14.535,12.279,26.872
	c0,0.614-0.009,1.221-0.026,1.821c8.496-5.259,17.226-14.309,19.044-29.601C310.226,70.527,273.489,39.145,253.349,25.235z"/>
</svg>