<?xml version="1.0" encoding="iso-8859-1"?>
<!-- Uploaded to: SVG Repo, www.svgrepo.com, Generator: SVG Repo Mixer Tools -->
<svg height="800px" width="800px" version="1.1" id="Layer_1" xmlns="http://www.w3.org/2000/svg" xmlns:xlink="http://www.w3.org/1999/xlink" 
	 viewBox="0 0 512 512" xml:space="preserve">
<path style="fill:#FFC033;" d="M422.957,246.216V111.304c0-26.031-22.339-46.844-48.894-44.314
	c-23.148,2.207-40.15,22.972-40.15,46.226v48.175c0,9.22-7.475,16.696-16.696,16.696s-16.696-7.475-16.696-16.696V44.522
	C300.522,19.932,280.589,0,256,0s-44.522,19.932-44.522,44.522v116.87c0,9.22-7.475,16.696-16.696,16.696
	c-9.22,0-16.696-7.475-16.696-16.696v-48.175c0-23.254-17.002-44.019-40.15-46.226c-26.555-2.53-48.894,18.283-48.894,44.314
	v134.912c-38.054,6.204-66.777,33.178-66.783,65.426c-0.002,18.097,14.989,33.566,33.087,33.402
	c18.513-0.167,37.049,14.875,37.049,33.39C107.867,454.64,175.229,512,256,512s148.133-57.36,163.603-133.565
	c0-18.515,18.536-33.557,37.049-33.39c18.098,0.163,33.09-15.307,33.087-33.402C489.734,279.393,461.01,252.419,422.957,246.216z"/>
<path style="fill:#F9A926;" d="M419.603,378.435c0-18.515,18.536-33.557,37.049-33.39c18.098,0.163,33.09-15.307,33.087-33.402
	c-0.006-32.248-28.729-59.222-66.783-65.426V111.304c0-26.031-22.339-46.844-48.894-44.314c-23.148,2.207-40.15,22.972-40.15,46.226
	v48.175c0,9.22-7.475,16.696-16.696,16.696s-16.696-7.475-16.696-16.696V44.522C300.522,19.932,280.589,0,256,0v512
	C336.771,512,404.133,454.64,419.603,378.435z"/>
<path style="fill:#FFEFD9;" d="M256,434.087c-45.653,0-83.098-49.576-83.467-50.076c0.37-0.522,37.815-50.098,83.467-50.098
	s83.098,49.576,83.467,50.076C339.098,384.511,301.653,434.087,256,434.087z"/>
<path style="fill:#FFD9B3;" d="M339.467,383.989c-0.37-0.5-37.815-50.076-83.467-50.076v100.174
	C301.653,434.087,339.098,384.511,339.467,383.989z"/>
<path style="fill:#6B7A99;" d="M256,400.696c-9.212,0-16.696-7.484-16.696-16.696s7.484-16.696,16.696-16.696
	c9.212,0,16.696,7.484,16.696,16.696S265.212,400.696,256,400.696z"/>
<path style="fill:#5A6680;" d="M272.696,384c0-9.212-7.484-16.696-16.696-16.696v33.391
	C265.212,400.696,272.696,393.212,272.696,384z"/>
</svg>