<?xml version="1.0" encoding="iso-8859-1"?>
<!-- Uploaded to: SVG Repo, www.svgrepo.com, Generator: SVG Repo Mixer Tools -->
<svg fill="#000000" height="800px" width="800px" version="1.1" id="Layer_1" xmlns="http://www.w3.org/2000/svg" xmlns:xlink="http://www.w3.org/1999/xlink" 
	 viewBox="0 0 512 512" xml:space="preserve">
<g>
	<g>
		<path d="M422.957,345.043h-18.448l-29.682-267.13h14.738c9.22,0,16.696-7.475,16.696-16.696s-7.475-16.696-16.696-16.696
			c-12.344,0-103.891,0-116.87,0V16.696C272.696,7.475,265.22,0,256,0s-16.696,7.475-16.696,16.696v27.826h-116.87
			c-9.22,0-16.696,7.475-16.696,16.696s7.475,16.696,16.696,16.696h14.738l-29.682,267.13H89.044
			c-9.22,0-16.696,7.475-16.696,16.696s7.475,16.584,16.696,16.584c9.659,0,39.554,0,51.171,0
			c-0.687,3.557-1.084,7.249-1.084,10.855C139.13,456.903,191.558,512,256,512s116.87-55.097,116.87-122.821
			c0-3.606-0.397-7.187-1.084-10.744c7.342,0,45.797,0,51.171,0c9.22,0,16.696-7.475,16.696-16.696S432.177,345.043,422.957,345.043
			z M335.199,417.388c-3.056-3.406-7.48-5.562-12.416-5.562c-9.22,0-16.696,7.475-16.696,16.696c0,8.637,6.559,15.742,14.968,16.607
			c-15.313,20.394-38.778,33.48-65.055,33.48s-49.742-13.086-65.055-33.48c8.409-0.865,14.968-7.969,14.968-16.607
			c0-9.22-7.475-16.696-16.696-16.696c-4.936,0-9.36,2.156-12.416,5.562c-2.761-8.874-4.28-18.353-4.28-28.209
			c0-3.17,0.854-6.814,2.243-10.744h162.471c1.389,3.93,2.243,7.574,2.243,10.744C339.478,399.035,337.96,408.514,335.199,417.388z
			 M191.494,345.043c7.652-14.357,14.419-29.135,14.419-44.413c0-26.817,19.15-55.761,50.087-55.761s50.087,28.945,50.087,55.761
			c0,15.278,6.767,30.056,14.419,44.413H191.494z M358.49,345.045v-0.001c-1.419-2.66-2.864-5.308-4.305-7.939
			c-7.23-13.202-14.707-26.853-14.707-36.473c0-38.034-25.118-78.739-66.783-87.449v-35.095h16.696
			c9.22,0,16.696-7.475,16.696-16.696s-7.475-16.696-16.696-16.696h-16.696V128c0-9.22-7.475-16.696-16.696-16.696
			S239.304,118.78,239.304,128v16.696h-16.696c-9.22,0-16.696,7.475-16.696,16.696s7.475,16.696,16.696,16.696h16.696v35.095
			c-41.665,8.71-66.783,49.415-66.783,87.449c0,9.621-7.476,23.271-14.707,36.474c-1.441,2.631-2.887,5.279-4.305,7.939h-12.422
			l29.682-267.13h170.461l29.682,267.13H358.49z"/>
	</g>
</g>
<g>
	<g>
		<circle cx="256" cy="428.522" r="16.696"/>
	</g>
</g>
</svg>