<?xml version="1.0" encoding="iso-8859-1"?>
<!-- Uploaded to: SVG Repo, www.svgrepo.com, Generator: SVG Repo Mixer Tools -->
<svg height="800px" width="800px" version="1.1" id="Layer_1" xmlns="http://www.w3.org/2000/svg" xmlns:xlink="http://www.w3.org/1999/xlink" 
	 viewBox="0 0 511.999 511.999" xml:space="preserve">
<path style="fill:#E6E6E6;" d="M413.941,218.392c20.755,0,37.607,16.83,37.607,37.607s-16.852,37.607-37.607,37.607
	c-20.777,0-37.607-16.83-37.607-37.607S393.165,218.392,413.941,218.392z"/>
<path style="fill:#E09B2D;" d="M375.813,161.388c51.589,15.469,97.121,44.961,132.16,84.056c5.368,5.99,5.367,15.118-0.001,21.109
	c-35.048,39.097-80.571,68.59-132.172,84.07v-0.013c-18.148-27.035-76.131-59.579-76.131-94.598
	C299.669,220.98,357.652,188.424,375.813,161.388z M436.191,255.999c0-12.292-9.971-22.25-22.25-22.25
	c-12.292,0-22.25,9.958-22.25,22.25c0,12.292,9.958,22.25,22.25,22.25C426.221,278.249,436.191,268.292,436.191,255.999z"/>
<g>
	<path style="fill:#F7B239;" d="M375.813,161.388c-18.161,27.035-28.751,59.591-28.751,94.624c0,35.02,10.59,67.563,28.738,94.598
		v0.013c-26.365,7.92-54.329,12.163-83.273,12.163c-90.561,0-171.383-41.611-224.422-106.787
		c53.039-65.177,133.861-106.787,224.422-106.787C321.484,149.212,349.448,153.469,375.813,161.388z"/>
	<path style="fill:#F7B239;" d="M9.674,448.188c-5.344,0-9.674-4.331-9.674-9.674c0-65.984,22.036-130.483,62.206-182.515
		C22.036,203.968,0,139.47,0,73.484c0-5.343,4.33-9.674,9.674-9.674s9.674,4.331,9.674,9.674
		c0,64.151,22.269,126.799,62.704,176.402c2.901,3.559,2.901,8.667,0,12.225c-40.434,49.604-62.704,112.251-62.704,176.402
		C19.348,443.857,15.018,448.188,9.674,448.188z"/>
</g>
</svg>