<?xml version="1.0" encoding="iso-8859-1"?>
<!-- Uploaded to: SVG Repo, www.svgrepo.com, Generator: SVG Repo Mixer Tools -->
<svg fill="#000000" height="800px" width="800px" version="1.1" id="Layer_1" xmlns="http://www.w3.org/2000/svg" xmlns:xlink="http://www.w3.org/1999/xlink" 
	 viewBox="0 0 512 512" xml:space="preserve">
<g>
	<g>
		<path d="M256.001,367.304c-9.212,0-16.696,7.484-16.696,16.696c0,9.212,7.484,16.696,16.696,16.696
			c9.212,0,16.696-7.484,16.696-16.696S265.213,367.304,256.001,367.304z"/>
	</g>
</g>
<g>
	<g>
		<path d="M422.958,246.216c-25.977-6.38-65.523,6.195-66.753,30.86c-0.407,8.156-5.171,15.861-13.168,17.513
			c-10.771,2.223-20.253-5.944-20.253-16.328c0-42.143,48.449-73.868,100.174-65.436v-34.738v-66.783
			c0-26.031-22.339-46.844-48.894-44.314c-23.148,2.207-40.15,22.972-40.15,46.226v48.175c0,9.22-7.475,16.696-16.696,16.696
			c-9.221,0-16.696-7.475-16.696-16.696V44.522C300.523,19.932,280.59,0,256.001,0s-44.522,19.932-44.522,44.522v116.87
			c0,9.22-7.475,16.696-16.696,16.696c-9.22,0-16.696-7.475-16.696-16.696v-48.175c0-23.254-17.002-44.019-40.15-46.226
			c-26.555-2.53-48.894,18.283-48.894,44.314v66.783v34.738c51.725-8.432,100.174,23.293,100.174,65.436
			c0,10.385-9.482,18.551-20.253,16.328c-7.997-1.652-12.761-9.356-13.168-17.513c-1.23-24.665-40.776-37.24-66.753-30.86
			c-38.054,6.204-66.777,33.178-66.783,65.426c-0.002,18.097,14.989,33.566,33.087,33.402c18.513-0.167,37.049,14.875,37.049,33.39
			C107.868,454.64,175.23,512,256.001,512s148.133-57.36,163.603-133.565c0-18.515,18.536-33.557,37.049-33.39
			c18.098,0.162,33.09-15.307,33.087-33.402C489.735,279.393,461.011,252.419,422.958,246.216z M256.001,434.087
			c-45.653,0-83.098-49.576-83.467-50.076c0.37-0.522,37.815-50.098,83.467-50.098c45.652,0,83.098,49.576,83.467,50.076
			C339.099,384.511,301.654,434.087,256.001,434.087z"/>
	</g>
</g>
</svg>