<?xml version="1.0" encoding="iso-8859-1"?>
<!-- Uploaded to: SVG Repo, www.svgrepo.com, Generator: SVG Repo Mixer Tools -->
<svg height="800px" width="800px" version="1.1" id="Layer_1" xmlns="http://www.w3.org/2000/svg" xmlns:xlink="http://www.w3.org/1999/xlink" 
	 viewBox="0 0 512 512" xml:space="preserve">
<path style="fill:#FFC033;" d="M255.989,317.217c-82.858,0-150.261-67.408-150.261-150.261v-66.783
	c0-9.223,7.479-16.696,16.696-16.696s16.696,7.473,16.696,16.696v66.783c0,64.441,52.424,116.87,116.87,116.87
	s116.87-52.429,116.87-116.87v-66.783c0-9.223,7.479-16.696,16.696-16.696c9.217,0,16.696,7.473,16.696,16.696v66.783
	C406.25,249.809,338.847,317.217,255.989,317.217z"/>
<path style="fill:#F9A926;" d="M406.25,166.957v-66.783c0-9.223-7.479-16.696-16.696-16.696c-9.217,0-16.696,7.473-16.696,16.696
	v66.783c0,64.441-52.424,116.87-116.87,116.87v33.391C338.847,317.217,406.25,249.809,406.25,166.957z"/>
<path style="fill:#FFC033;" d="M255.989,250.435c-46.032,0-83.478-37.446-83.478-83.478v-66.783c0-9.223,7.479-16.696,16.696-16.696
	s16.696,7.473,16.696,16.696v66.783c0,27.619,22.468,50.087,50.087,50.087s50.087-22.468,50.087-50.087v-66.783
	c0-9.223,7.479-16.696,16.696-16.696c9.217,0,16.696,7.473,16.696,16.696v66.783C339.467,212.989,302.021,250.435,255.989,250.435z"
	/>
<path style="fill:#F9A926;" d="M339.467,166.957v-66.783c0-9.223-7.479-16.696-16.696-16.696c-9.217,0-16.696,7.473-16.696,16.696
	v66.783c0,27.619-22.468,50.087-50.087,50.087v33.391C302.021,250.435,339.467,212.989,339.467,166.957z"/>
<path style="fill:#FFC033;" d="M255.989,467.478c-9.217,0-16.696-7.473-16.696-16.696V100.174c0-9.223,7.479-16.696,16.696-16.696
	c9.217,0,16.696,7.473,16.696,16.696v350.609C272.684,460.005,265.206,467.478,255.989,467.478z"/>
<g>
	<path style="fill:#F9A926;" d="M306.076,33.391L322.771,0l16.696,33.391c4.61,9.22,0.873,20.433-8.348,25.043
		c-9.22,4.61-20.433,0.873-25.043-8.348C303.361,44.658,303.587,38.447,306.076,33.391z"/>
	<path style="fill:#F9A926;" d="M372.858,33.391L389.554,0l16.696,33.391c4.61,9.22,0.873,20.433-8.348,25.043
		s-20.433,0.873-25.043-8.348C370.144,44.658,370.37,38.447,372.858,33.391z"/>
</g>
<g>
	<path style="fill:#FFC033;" d="M172.511,33.391L189.206,0l16.696,33.391c4.61,9.22,0.873,20.433-8.348,25.043
		c-9.22,4.61-20.433,0.873-25.043-8.348C169.796,44.658,170.022,38.447,172.511,33.391z"/>
	<path style="fill:#FFC033;" d="M105.728,33.391L122.424,0l16.696,33.391c4.61,9.22,0.873,20.433-8.348,25.043
		s-20.433,0.873-25.043-8.348C103.013,44.658,103.239,38.447,105.728,33.391z"/>
</g>
<path style="fill:#F9A926;" d="M272.684,450.783V100.174c0-9.223-7.479-16.696-16.696-16.696v384
	C265.206,467.478,272.684,460.005,272.684,450.783z"/>
<path style="fill:#FFC033;" d="M264.337,58.435c-2.671,1.336-5.565,2.003-8.348,2.003c-6.901,0-13.468-3.784-16.696-10.351
	c-2.671-5.454-2.449-11.687,0-16.696L255.989,0l16.696,33.391C277.247,42.63,273.576,53.871,264.337,58.435z"/>
<path style="fill:#F9A926;" d="M264.337,58.435c-2.671,1.336-5.565,2.003-8.348,2.003V0l16.696,33.391
	C277.247,42.63,273.576,53.871,264.337,58.435z"/>
<path style="fill:#6B7A99;" d="M175.452,512c-11.606,0-19.662-11.553-15.746-22.478c9.248-25.8,33.948-44.305,62.891-44.305h66.783
	c28.944,0,53.643,18.504,62.891,44.305C356.187,500.447,348.13,512,336.525,512H175.452z"/>
<path style="fill:#5A6680;" d="M289.38,445.217h-33.391V512h80.535c11.606,0,19.663-11.553,15.747-22.478
	C343.024,463.722,318.323,445.217,289.38,445.217z"/>
</svg>