<?xml version="1.0" encoding="iso-8859-1"?>
<!-- Uploaded to: SVG Repo, www.svgrepo.com, Generator: SVG Repo Mixer Tools -->
<svg fill="#000000" height="800px" width="800px" version="1.1" id="Layer_1" xmlns="http://www.w3.org/2000/svg" xmlns:xlink="http://www.w3.org/1999/xlink" 
	 viewBox="0 0 512 512" xml:space="preserve">
<g>
	<g>
		<polygon points="256,81.891 225.307,135.054 286.693,135.054 		"/>
	</g>
</g>
<g>
	<g>
		<polygon points="136.362,289.112 105.25,343 167.475,343 		"/>
	</g>
</g>
<g>
	<g>
		<polygon points="105.25,168.446 136.362,222.333 167.473,168.446 		"/>
	</g>
</g>
<g>
	<g>
		<polygon points="344.527,168.446 375.638,222.333 406.75,168.446 		"/>
	</g>
</g>
<g>
	<g>
		<path d="M256,0C114.843,0,0,114.843,0,256s114.843,256,256,256s256-114.843,256-256S397.157,0,256,0z M450.125,368.043
			c-2.979,5.163-8.489,8.348-14.456,8.348H325.246l-54.79,94.897c-2.979,5.163-8.489,8.348-14.456,8.348
			c-5.967,0-11.479-3.184-14.456-8.348l-54.79-94.897H76.331c-5.967,0-11.479-3.184-14.456-8.348
			c-2.984-5.163-2.984-11.532,0-16.696l55.209-95.626l-55.209-95.624c-2.984-5.163-2.984-11.527,0-16.696
			c2.978-5.163,8.489-8.348,14.456-8.348h110.421l54.792-94.903c2.978-5.163,8.489-8.348,14.456-8.348
			c5.967,0,11.478,3.184,14.456,8.348l54.792,94.903h110.421c5.967,0,11.479,3.184,14.456,8.348c2.984,5.169,2.984,11.532,0,16.696
			l-55.209,95.624l55.209,95.626C453.109,356.511,453.109,362.88,450.125,368.043z"/>
	</g>
</g>
<g>
	<g>
		<polygon points="375.638,289.112 344.525,343 406.75,343 		"/>
	</g>
</g>
<g>
	<g>
		<polygon points="305.971,168.446 206.029,168.446 155.64,255.722 206.031,343 305.969,343 356.36,255.722 		"/>
	</g>
</g>
<g>
	<g>
		<polygon points="225.309,376.391 256,429.549 286.691,376.391 		"/>
	</g>
</g>
</svg>