<?xml version="1.0" encoding="iso-8859-1"?>
<!-- Uploaded to: SVG Repo, www.svgrepo.com, Generator: SVG Repo Mixer Tools -->
<svg fill="#000000" height="800px" width="800px" version="1.1" id="Layer_1" xmlns="http://www.w3.org/2000/svg" xmlns:xlink="http://www.w3.org/1999/xlink" 
	 viewBox="0 0 512.001 512.001" xml:space="preserve">
<g>
	<g>
		<path d="M497.207,335.674l-124.337-62.168v-48.109l6.674,5.005c3.011,2.249,6.521,3.337,10.011,3.337
			c5.077,0,10.088-2.304,13.37-6.679c5.533-7.375,4.033-17.842-3.337-23.375l-126.891-95.169V66.783h16.696
			c9.217,0,16.696-7.473,16.696-16.696c0-9.223-7.479-16.696-16.696-16.696h-16.696V16.696C272.696,7.473,265.217,0,255.999,0
			c-9.217,0-16.696,7.473-16.696,16.696v16.696h-16.696c-9.217,0-16.696,7.473-16.696,16.696c0,9.223,7.479,16.696,16.696,16.696
			h16.696v41.734l-126.891,95.169c-7.369,5.533-8.87,16-3.337,23.375c5.543,7.386,16,8.87,23.381,3.342l6.674-5.005v48.109
			L14.793,335.674c-5.652,2.832-9.228,8.608-9.228,14.935v144.696c0,9.223,7.479,16.696,16.696,16.696h50.087v-83.478
			c0-9.223,7.479-16.696,16.696-16.696s16.696,7.473,16.696,16.696V512h116.87V400.696c0-18.413,14.978-33.391,33.391-33.391
			c18.413,0,33.391,14.978,33.391,33.391V512h116.87v-83.478c0-9.223,7.479-16.696,16.696-16.696
			c9.217,0,16.696,7.473,16.696,16.696V512h50.087c9.217,0,16.696-7.473,16.696-16.696V350.609
			C506.434,344.282,502.858,338.505,497.207,335.674z M255.999,300.522c-27.619,0-50.087-22.468-50.087-50.087
			s22.468-50.087,50.087-50.087s50.087,22.468,50.087,50.087C306.087,278.054,283.618,300.522,255.999,300.522z"/>
	</g>
</g>
</svg>