<?xml version="1.0" encoding="iso-8859-1"?>
<!-- Uploaded to: SVG Repo, www.svgrepo.com, Generator: SVG Repo Mixer Tools -->
<svg fill="#000000" height="800px" width="800px" version="1.1" id="Layer_1" xmlns="http://www.w3.org/2000/svg" xmlns:xlink="http://www.w3.org/1999/xlink" 
	 viewBox="0 0 512 512" xml:space="preserve">
<g>
	<g>
		<path d="M316.564,32.112c-7.942,0-15.335,2.393-21.495,6.498C294.926,17.296,277.544,0,256.198,0
			c-21.432,0-38.87,17.437-38.87,38.87v7.447c-6.16-4.104-13.553-6.497-21.495-6.497c-21.432,0-38.87,17.437-38.87,38.87v35.107
			c-6.16-4.104-13.553-6.497-21.495-6.497c-21.432,0-38.87,17.437-38.87,38.87v132.263c0.001,4.796,3.891,8.685,8.689,8.685
			s8.688-3.89,8.688-8.688V146.168c0-11.852,9.642-21.495,21.495-21.495s21.495,9.642,21.495,21.495v120.585
			c0,4.798,3.89,8.688,8.688,8.688s8.688-3.89,8.688-8.688V78.689c0-11.852,9.642-21.495,21.495-21.495
			c11.852,0,21.495,9.642,21.495,21.495v171.337c0,4.798,3.89,8.688,8.688,8.688s8.688-3.89,8.688-8.688V38.87
			c0-11.852,9.642-21.495,21.495-21.495c11.852,0,21.495,9.642,21.495,21.495v212.351c0,4.798,3.89,8.688,8.688,8.688
			s8.688-3.89,8.688-8.688V70.983c0-11.852,9.642-21.495,21.495-21.495c11.852,0,21.495,9.642,21.495,21.495v2.306
			c0,4.798,3.89,8.688,8.688,8.688s8.688-3.89,8.688-8.688v-2.306C355.434,49.549,337.997,32.112,316.564,32.112z"/>
	</g>
</g>
<g>
	<g>
		<path d="M376.729,163.68c-7.864,0-15.185,2.358-21.298,6.407v-67.839c0-4.798-3.89-8.688-8.688-8.688s-8.688,3.89-8.688,8.688
			v100.105v109.8c0,4.798,3.89,8.688,8.688,8.688s8.688-3.89,8.688-8.688v-109.8c0-11.744,9.554-21.298,21.298-21.298
			c11.744,0,21.298,9.554,21.298,21.298v150.244c0,78.314-63.713,142.027-142.027,142.027s-142.027-63.713-142.027-142.027V307.39
			c0-4.798-3.89-8.688-8.688-8.688s-8.688,3.89-8.688,8.688v45.208C96.598,440.493,168.106,512,256.001,512
			s159.402-71.507,159.402-159.402V202.354C415.403,181.029,398.054,163.68,376.729,163.68z"/>
	</g>
</g>
<g>
	<g>
		<path d="M255.014,284.33c-47.294,0-85.769,38.476-85.769,85.769c0,47.294,38.475,85.769,85.769,85.769
			c47.294,0,85.769-38.476,85.769-85.769C340.783,322.807,302.308,284.33,255.014,284.33z M309.095,411.895l-22.038-22.038
			c-3.393-3.393-8.894-3.393-12.286,0c-3.393,3.393-3.393,8.893,0,12.286l22.038,22.038c-9.403,7.283-20.742,12.166-33.107,13.742
			v-31.195c0-4.798-3.89-8.688-8.688-8.688c-4.798,0-8.688,3.89-8.688,8.688v31.195c-12.366-1.575-23.705-6.459-33.107-13.742
			l22.038-22.038c3.393-3.393,3.393-8.893,0-12.286c-3.393-3.393-8.894-3.393-12.286,0l-22.038,22.038
			c-7.283-9.402-12.165-20.742-13.742-33.107h31.194c4.798,0,8.688-3.89,8.688-8.688s-3.89-8.688-8.688-8.688h-31.194
			c1.575-12.365,6.459-23.705,13.742-33.107l22.038,22.038c1.696,1.697,3.92,2.545,6.143,2.545c2.223,0,4.447-0.848,6.143-2.545
			c3.393-3.393,3.393-8.893,0-12.286l-22.038-22.038c9.403-7.283,20.742-12.166,33.107-13.742v31.195
			c0,4.798,3.89,8.688,8.688,8.688s8.688-3.89,8.688-8.688v-31.195c12.364,1.575,23.705,6.459,33.107,13.742l-22.038,22.038
			c-3.393,3.393-3.393,8.894,0,12.286c1.696,1.697,3.92,2.545,6.143,2.545s4.447-0.848,6.143-2.545l22.038-22.038
			c7.283,9.403,12.166,20.742,13.742,33.107h-31.194c-4.798,0-8.688,3.89-8.688,8.688s3.89,8.688,8.688,8.688h31.194
			C321.261,391.153,316.377,402.492,309.095,411.895z"/>
	</g>
</g>
<g>
	<g>
		<circle cx="255.016" cy="370.1" r="8.688"/>
	</g>
</g>
</svg>