<?xml version="1.0" encoding="iso-8859-1"?>
<!-- Uploaded to: SVG Repo, www.svgrepo.com, Generator: SVG Repo Mixer Tools -->
<svg fill="#000000" height="800px" width="800px" version="1.1" id="Layer_1" xmlns="http://www.w3.org/2000/svg" xmlns:xlink="http://www.w3.org/1999/xlink" 
	 viewBox="0 0 511.999 511.999" xml:space="preserve">
<g>
	<g>
		<path d="M433.441,154.574L267.365,4.315c-6.359-5.753-16.043-5.753-22.402,0L78.557,154.872
			c-45.845,41.48-61.496,106.547-39.881,164.184l68.29,182.109c2.443,6.517,8.673,10.833,15.633,10.833h265.739
			c6.932,0,13.143-4.283,15.606-10.762l69.137-181.839C495.052,261.612,479.46,196.209,433.441,154.574z M376.824,478.608H134.169
			l-12.522-33.391h267.872L376.824,478.608z M441.869,307.531l-39.653,104.294h-293.09L69.941,307.332
			c-16.947-45.193-4.772-95.318,31.018-127.698L256.164,39.21L411.04,179.334C447.005,211.875,459.107,262.196,441.869,307.531z"/>
	</g>
</g>
<g>
	<g>
		<path d="M356.338,178.087h-50.087V128c0-9.22-7.475-16.696-16.696-16.696h-66.783c-9.22,0-16.696,7.475-16.696,16.696v50.087
			H155.99c-9.22,0-16.696,7.475-16.696,16.696v66.783c0,9.22,7.475,16.696,16.696,16.696h50.087v83.478
			c0,9.22,7.475,16.696,16.696,16.696h66.783c9.22,0,16.696-7.475,16.696-16.696v-83.478h50.087c9.22,0,16.696-7.475,16.696-16.696
			v-66.783C373.034,185.562,365.559,178.087,356.338,178.087z M339.643,244.869h-50.087c-9.22,0-16.696,7.475-16.696,16.696v83.478
			h-33.391v-83.478c0-9.22-7.475-16.696-16.696-16.696h-50.087v-33.391h50.087c9.22,0,16.696-7.475,16.696-16.696v-50.087h33.391
			v50.087c0,9.22,7.475,16.696,16.696,16.696h50.087V244.869z"/>
	</g>
</g>
</svg>