<?xml version="1.0" encoding="iso-8859-1"?>
<!-- Uploaded to: SVG Repo, www.svgrepo.com, Generator: SVG Repo Mixer Tools -->
<svg version="1.1" id="Layer_1" xmlns="http://www.w3.org/2000/svg" xmlns:xlink="http://www.w3.org/1999/xlink" 
	 viewBox="0 0 511.999 511.999" xml:space="preserve">
<g>
	<path style="fill:#F7B239;" d="M430.396,104.696v53.291c0,90.332-69.004,164.846-157.067,173.611v-57.596
		c55.477-8.421,98.128-56.436,98.128-114.227v-55.079h-34.821v55.079c0,38.529-27.143,70.82-63.306,78.805V104.696h-34.821v133.883
		c-36.163-7.985-63.306-40.276-63.306-78.805v-55.078H140.38v55.079c0,57.792,42.65,105.807,98.128,114.228v57.596
		c-88.063-8.765-157.067-83.28-157.067-173.611v-53.292H46.619v53.291c0,109.544,84.597,199.691,191.889,208.569v89.111h34.821
		v-89.111c107.293-8.878,191.889-99.025,191.889-208.569v-53.291H430.396z"/>
	<path style="fill:#F7B239;" d="M286.693,455.667h-61.551c-22.115,0-40.042,17.927-40.042,40.042v7.67h141.636v-7.67
		C326.735,473.594,308.808,455.667,286.693,455.667z"/>
</g>
<path style="fill:#E09B2D;" d="M268.666,455.667h-43.524c-22.115,0-40.042,17.927-40.042,40.042v7.67h43.524v-7.67
	C228.624,473.594,246.552,455.667,268.666,455.667z"/>
<g>
	<path style="fill:#F95428;" d="M82.441,27.872L63.36,8.791L44.279,27.872c-10.538,10.538-10.538,27.625,0,38.163l0,0
		c10.538,10.538,27.625,10.538,38.163,0l0,0C92.98,55.497,92.98,38.41,82.441,27.872z"/>
	<path style="fill:#F95428;" d="M178.72,27.872L159.638,8.791l-19.081,19.081c-10.538,10.538-10.538,27.625,0,38.163l0,0
		c10.538,10.538,27.625,10.538,38.163,0l0,0C189.258,55.497,189.258,38.41,178.72,27.872z"/>
	<path style="fill:#F95428;" d="M371.279,27.872L352.197,8.791l-19.081,19.081c-10.538,10.538-10.538,27.625,0,38.163l0,0
		c10.538,10.538,27.625,10.538,38.163,0l0,0C381.817,55.497,381.817,38.41,371.279,27.872z"/>
	<path style="fill:#F95428;" d="M274.999,27.872L255.918,8.791l-19.081,19.081c-10.538,10.538-10.538,27.625,0,38.163l0,0
		c10.538,10.538,27.625,10.538,38.163,0l0,0C285.537,55.497,285.537,38.41,274.999,27.872z"/>
	<path style="fill:#F95428;" d="M467.557,27.872L448.476,8.791l-19.081,19.081c-10.538,10.538-10.538,27.625,0,38.163l0,0
		c10.538,10.538,27.625,10.538,38.163,0l0,0C478.095,55.497,478.095,38.41,467.557,27.872z"/>
</g>
<g>
	<rect x="430.403" y="104.696" style="fill:#CCCCCC;" width="34.821" height="34.473"/>
	<rect x="336.641" y="104.696" style="fill:#CCCCCC;" width="34.821" height="34.473"/>
	<rect x="238.514" y="104.696" style="fill:#CCCCCC;" width="34.821" height="34.473"/>
	<rect x="140.388" y="104.696" style="fill:#CCCCCC;" width="34.821" height="34.473"/>
	<rect x="46.626" y="104.696" style="fill:#CCCCCC;" width="34.821" height="34.473"/>
</g>
<path d="M444.581,249.088c-4.233-2.278-9.513-0.693-11.792,3.54c-15.61,29.007-38.38,54.013-65.848,72.313
	c-28.086,18.714-60.673,30.073-94.238,32.85c-4.515,0.374-7.988,4.146-7.988,8.676v80.406h-17.411v-18.779
	c0-4.808-3.896-8.705-8.705-8.705s-8.705,3.898-8.705,8.705v18.779h-4.66c-26.88,0-48.748,21.868-48.748,48.749v7.67
	c0,4.808,3.896,8.705,8.705,8.705h141.635c4.809,0,8.705-3.898,8.705-8.705v-7.67c0-26.88-21.868-48.749-48.748-48.749h-4.659
	v-72.542c33.663-4.058,66.17-16.046,94.47-34.901c29.835-19.878,54.568-47.041,71.526-78.552
	C450.399,256.647,448.814,251.367,444.581,249.088z M318.103,494.589h-124.19c0.548-16.804,14.387-30.303,31.319-30.303h61.55
	C303.716,464.286,317.555,477.785,318.103,494.589z"/>
<path d="M63.45,82.558c9.533,0,18.496-3.712,25.237-10.453c13.915-13.916,13.915-36.558,0-50.474L69.607,2.55
	c-3.401-3.4-8.912-3.4-12.312,0L38.214,21.63c-6.743,6.741-10.455,15.703-10.455,25.237s3.712,18.497,10.453,25.237
	C44.954,78.846,53.916,82.558,63.45,82.558z M50.524,33.941L63.45,21.016l12.926,12.926c3.453,3.453,5.354,8.043,5.354,12.926
	s-1.901,9.474-5.356,12.926c-3.453,3.453-8.043,5.354-12.925,5.354c-4.883,0-9.473-1.901-12.927-5.354
	c-3.453-3.452-5.353-8.043-5.353-12.926C45.17,41.985,47.071,37.394,50.524,33.941z"/>
<path d="M159.729,82.558c9.534,0,18.497-3.712,25.237-10.453c13.915-13.916,13.915-36.558,0-50.474L165.885,2.55
	c-3.401-3.4-8.912-3.4-12.312,0l-19.082,19.081c-13.915,13.916-13.915,36.558,0,50.474
	C141.233,78.846,150.196,82.558,159.729,82.558z M146.804,33.941l12.926-12.926l12.926,12.926c7.128,7.128,7.128,18.723,0,25.851
	c-3.453,3.453-8.043,5.354-12.926,5.354c-4.883,0-9.473-1.901-12.926-5.354C139.676,52.666,139.676,41.069,146.804,33.941z"/>
<path d="M352.287,82.558c9.534,0,18.497-3.712,25.237-10.453c13.915-13.916,13.915-36.558,0-50.474L358.444,2.55
	c-3.401-3.4-8.912-3.4-12.312,0l-19.081,19.081c-13.915,13.916-13.915,36.558,0,50.474C333.79,78.846,342.753,82.558,352.287,82.558
	z M339.362,33.941l12.926-12.926l12.926,12.926c7.128,7.128,7.128,18.723,0,25.851c-3.453,3.453-8.043,5.354-12.926,5.354
	s-9.473-1.901-12.926-5.354C332.235,52.666,332.235,41.069,339.362,33.941z"/>
<path d="M256.009,82.558c9.534,0,18.497-3.712,25.237-10.453c13.915-13.916,13.915-36.558,0-50.474L262.164,2.55
	c-3.401-3.4-8.912-3.4-12.312,0l-19.081,19.081c-13.915,13.916-13.915,36.558,0,50.474
	C237.511,78.846,246.474,82.558,256.009,82.558z M243.083,33.941l12.926-12.926l12.926,12.926c7.128,7.128,7.128,18.723,0,25.851
	c-3.453,3.453-8.043,5.354-12.926,5.354c-4.883,0-9.473-1.901-12.926-5.354C235.955,52.666,235.955,41.069,243.083,33.941z"/>
<path d="M448.566,82.558c9.534,0,18.497-3.712,25.237-10.453c13.915-13.916,13.915-36.558,0-50.474L454.722,2.55
	c-3.401-3.4-8.912-3.4-12.312,0L423.33,21.631c-13.915,13.916-13.915,36.558,0,50.474C430.07,78.846,439.032,82.558,448.566,82.558z
	 M435.64,33.941l12.926-12.926l12.926,12.926c7.128,7.128,7.128,18.723,0,25.851c-3.453,3.453-8.043,5.354-12.926,5.354
	c-4.883,0-9.473-1.901-12.926-5.354C428.513,52.666,428.513,41.069,435.64,33.941z"/>
<path d="M475.386,130.374h-1.37v-25.768c0-4.808-3.896-8.705-8.705-8.705H430.49c-4.809,0-8.705,3.898-8.705,8.705v25.768h-0.547
	c-4.809,0-8.705,3.898-8.705,8.705s3.896,8.705,8.705,8.705h0.547v10.11c0,41.321-15.356,80.933-43.24,111.537
	c-25.511,28.002-59.46,46.308-96.417,52.183v-40.447c26.166-5.633,49.998-19.708,67.734-40.149
	c19.599-22.586,30.392-51.468,30.392-81.325v-11.909h1.114c4.809,0,8.705-3.898,8.705-8.705s-3.896-8.705-8.705-8.705h-1.114
	v-25.768c0-4.808-3.897-8.705-8.705-8.705h-34.821c-4.809,0-8.705,3.898-8.705,8.705v25.768h-0.801
	c-4.809,0-8.705,3.898-8.705,8.705s3.896,8.705,8.705,8.705h0.801v11.909c0,29.775-18.754,56.437-45.895,67.079v-78.988h0.952
	c4.809,0,8.705-3.898,8.705-8.705s-3.896-8.705-8.705-8.705h-0.952v-25.768c0-4.808-3.896-8.705-8.705-8.705h-34.821
	c-4.809,0-8.705,3.898-8.705,8.705v25.768h-0.963c-4.809,0-8.705,3.898-8.705,8.705s3.896,8.705,8.705,8.705h0.963v78.988
	c-27.141-10.64-45.895-37.303-45.895-67.08v-11.909h1.056c4.809,0,8.705-3.898,8.705-8.705s-3.896-8.705-8.705-8.705h-1.056v-25.768
	c0-4.808-3.897-8.705-8.705-8.705h-34.821c-4.809,0-8.705,3.898-8.705,8.705v25.768h-0.846c-4.809,0-8.705,3.898-8.705,8.705
	s3.897,8.705,8.705,8.705h0.846v11.909c0,29.864,10.792,58.747,30.389,81.33c17.735,20.438,41.569,34.513,67.738,40.146v40.447
	c-36.958-5.877-70.905-24.182-96.417-52.183c-27.883-30.606-43.24-70.217-43.24-111.537v-10.11h0.952
	c4.809,0,8.705-3.898,8.705-8.705s-3.897-8.705-8.705-8.705h-0.952v-25.768c0-4.808-3.897-8.705-8.705-8.705H46.713
	c-4.809,0-8.705,3.898-8.705,8.705v25.768h-0.963c-4.809,0-8.705,3.898-8.705,8.705s3.897,8.705,8.705,8.705h0.963v10.11
	c0,54.981,20.607,107.525,58.024,147.953c35.373,38.219,82.654,62.349,133.865,68.494v24.738c0,4.808,3.896,8.705,8.705,8.705
	s8.705-3.898,8.705-8.705v-32.604c0-4.529-3.473-8.301-7.988-8.676c-49.92-4.131-96.268-26.781-130.509-63.776
	c-34.43-37.201-53.392-85.546-53.392-136.127v-10.11h17.411v10.11c0,45.668,16.968,89.444,47.781,123.263
	c30.6,33.587,72.199,54.548,117.131,59.019c2.444,0.244,4.881-0.558,6.704-2.209c1.822-1.651,2.862-3.994,2.862-6.454V273.92
	c0-4.303-3.144-7.96-7.398-8.607c-24.974-3.793-47.916-16.47-64.601-35.699c-16.849-19.418-26.128-44.249-26.128-69.92v-11.909
	h17.411v11.909c0,20.46,7.119,40.472,20.044,56.349c12.733,15.639,30.522,26.633,50.089,30.953c2.576,0.566,5.271-0.062,7.329-1.714
	c2.056-1.653,3.253-4.148,3.253-6.787v-90.71h17.411v90.71c0,2.638,1.197,5.135,3.255,6.787c2.056,1.652,4.751,2.281,7.328,1.714
	c19.564-4.321,37.352-15.313,50.085-30.953c12.929-15.879,20.048-35.89,20.048-56.349v-11.909h17.411v11.909
	c0,25.666-9.28,50.494-26.132,69.915c-16.686,19.231-39.628,31.911-64.596,35.703c-4.254,0.647-7.398,4.304-7.398,8.607v57.594
	c0,2.458,1.04,4.803,2.862,6.454c1.822,1.651,4.257,2.453,6.704,2.209c44.932-4.471,86.531-25.431,117.131-59.019
	c30.812-33.818,47.781-77.595,47.781-123.263v-10.11h17.411v10.11c0,23.288-3.97,46.106-11.8,67.816
	c-1.631,4.522,0.714,9.511,5.237,11.143c4.517,1.631,9.511-0.713,11.143-5.236c8.514-23.61,12.832-48.413,12.832-73.723v-10.11h1.37
	c4.809,0,8.705-3.898,8.705-8.705S480.194,130.374,475.386,130.374z M55.417,130.374v-17.062h17.411v17.062H55.417z M149.18,130.374
	v-17.062h17.411v17.062H149.18z M247.307,130.374v-17.062h17.411v17.062H247.307z M345.433,130.374v-17.062h17.411v17.062H345.433z
	 M439.195,130.374v-17.062h17.411v17.062H439.195z"/>
</svg>