<?xml version="1.0" encoding="iso-8859-1"?>
<!-- Uploaded to: SVG Repo, www.svgrepo.com, Generator: SVG Repo Mixer Tools -->
<svg height="800px" width="800px" version="1.1" id="Layer_1" xmlns="http://www.w3.org/2000/svg" xmlns:xlink="http://www.w3.org/1999/xlink" 
	 viewBox="0 0 512 512" xml:space="preserve">
<path style="fill:#E6E6E6;" d="M403.645,234.724c11.793,0,21.369,9.563,21.369,21.369c0,11.806-9.576,21.369-21.369,21.369
	c-11.806,0-21.369-9.563-21.369-21.369C382.277,244.287,391.841,234.724,403.645,234.724z"/>
<path style="fill:#E09B2D;" d="M367.028,165.228c53.912,16.166,100.936,48.275,135.584,90.864
	c-34.661,42.589-81.673,74.698-135.596,90.877v-0.012c-17.43-25.965-27.6-57.219-27.6-90.852
	C339.415,222.46,349.585,191.193,367.028,165.228z M425.014,256.093c0-11.806-9.576-21.369-21.369-21.369
	c-11.806,0-21.369,9.563-21.369,21.369c0,11.806,9.563,21.369,21.369,21.369C415.439,277.462,425.014,267.898,425.014,256.093z"/>
<path style="fill:#F7B239;" d="M367.028,165.228c-17.442,25.965-27.612,57.231-27.612,90.877c0,33.633,10.17,64.887,27.6,90.852
	v0.012c-25.321,7.606-52.177,11.682-79.975,11.682c-86.975,0-164.596-39.963-215.535-102.558
	c50.938-62.595,128.56-102.558,215.535-102.558C314.85,153.534,341.707,157.622,367.028,165.228z"/>
<path d="M509.915,250.137c-36.524-44.893-84.978-77.364-140.118-93.899c-26.701-8.02-54.512-12.087-82.661-12.087
	c-82.868,0-160.668,35.261-215.24,97.131C37.443,195.151,18.582,138.567,18.582,80.713c0-5.131-4.159-9.291-9.291-9.291
	S0,75.582,0,80.713C0,144.084,21.168,206.035,59.742,256C21.163,305.972,0,367.916,0,431.287c0,5.131,4.159,9.291,9.291,9.291
	s9.291-4.16,9.291-9.291c0-57.855,18.858-114.433,53.316-160.569c54.574,61.874,132.371,97.131,215.239,97.131
	c28.17,0,55.978-4.062,82.646-12.074c55.138-16.543,103.595-49.017,140.133-93.91C512.694,258.45,512.695,253.552,509.915,250.137z
	 M371.125,335.866c-14.614-24.026-22.323-51.482-22.323-79.854c0-10.063,0.974-20.118,2.896-29.888
	c0.99-5.034-2.289-9.919-7.324-10.909c-5.033-0.993-9.919,2.289-10.91,7.324c-2.153,10.948-3.244,22.21-3.244,33.473
	c0,30.106,7.734,59.306,22.466,85.192c-21.313,5.348-43.306,8.063-65.552,8.063c-78.573,0-152.275-33.894-203.418-93.268
	c51.139-59.375,124.84-93.267,203.418-93.267c22.23,0,44.224,2.719,65.559,8.074c-3.552,6.241-6.714,12.702-9.448,19.316
	c-1.961,4.742,0.292,10.175,5.034,12.136c1.162,0.481,2.364,0.707,3.547,0.707c3.647,0,7.108-2.163,8.59-5.743
	c3.008-7.273,6.601-14.338,10.704-21.084c46.396,15.232,87.451,42.671,119.471,79.859
	C458.567,293.185,417.511,320.626,371.125,335.866z"/>
<path d="M403.742,225.34c-16.906,0-30.66,13.754-30.66,30.66s13.754,30.66,30.66,30.66c16.906,0,30.66-13.754,30.66-30.66
	S420.648,225.34,403.742,225.34z M403.742,268.078c-6.66,0-12.078-5.418-12.078-12.078s5.418-12.078,12.078-12.078
	S415.82,249.34,415.82,256S410.402,268.078,403.742,268.078z"/>
</svg>