<?xml version="1.0" encoding="iso-8859-1"?>
<!-- Uploaded to: SVG Repo, www.svgrepo.com, Generator: SVG Repo Mixer Tools -->
<svg version="1.1" id="Layer_1" xmlns="http://www.w3.org/2000/svg" xmlns:xlink="http://www.w3.org/1999/xlink" 
	 viewBox="0 0 512 512" xml:space="preserve">
<g>
	<path style="fill:#666666;" d="M342.393,284.189L342.393,284.189c-4.273,0-7.737,3.464-7.737,7.737v15.475
		c0,4.273,3.464,7.737,7.737,7.737l0,0c4.273,0,7.737-3.464,7.737-7.737v-15.475C350.13,287.652,346.667,284.189,342.393,284.189z"
		/>
	<path style="fill:#666666;" d="M169.618,96.636L169.618,96.636c-4.273,0-7.737,3.464-7.737,7.737v15.475
		c0,4.273,3.464,7.737,7.737,7.737l0,0c4.273,0,7.737-3.464,7.737-7.737v-15.475C177.355,100.1,173.89,96.636,169.618,96.636z"/>
</g>
<g>
	<path style="fill:#F7B239;" d="M443.385,354.493V512H241.411v-76.804c3.677,2.612,25.23-99.013,30.07-99.013
		c12.454,0,23.237-3.095,45.149-3.095l108.211,2.476C431.947,335.564,443.385,345.468,443.385,354.493z"/>
	<path style="fill:#F7B239;" d="M270.614,232.219v67.383c0,0,6.004,147.257,7.056,147.999L241.411,512H68.627V165.368l126.756-8.666
		c21.9,0,69.76,70.639,72.954,68.905L270.614,232.219z"/>
</g>
<rect x="68.633" y="158.25" style="fill:#E09B2D;" width="42.103" height="353.75"/>
<path style="fill:#F95428;" d="M194.12,24.512c6.772,6.772,10.164,15.648,10.164,24.512c0,8.876-3.392,17.753-10.164,24.512
	c-6.772,6.772-15.636,10.151-24.499,10.151c-8.876,0-17.753-3.38-24.512-10.151c-13.543-13.531-13.543-35.48,0-49.024L169.608,0
	L194.12,24.512z"/>
<rect x="241.404" y="352.723" style="fill:#E09B2D;" width="35.542" height="159.277"/>
<path style="fill:#F95428;" d="M366.904,209.935c6.759,6.759,10.151,15.636,10.151,24.512c0,8.864-3.392,17.74-10.151,24.512
	c-6.772,6.759-15.648,10.151-24.512,10.151c-8.876,0-17.752-3.392-24.512-10.151c-13.531-13.543-13.531-35.493,0-49.024
	l24.512-24.512L366.904,209.935z"/>
<path style="fill:#E09B2D;" d="M443.385,354.493v13.618c-4.939,4.37-11.439,7.007-18.545,7.007H316.63
	c-21.912,0-39.677,17.765-39.677,39.665v15.611c0,12.454-10.089,22.556-22.543,22.556c-4.84,0-9.322-1.523-12.999-4.135v-13.618
	c3.677,2.612,25.23-99.013,30.07-99.013c12.454,0,23.237-3.095,45.149-3.095l108.211,2.476
	C431.947,335.564,443.385,345.468,443.385,354.493z"/>
<path style="fill:#EAB465;" d="M270.614,299.601h73.548h74.947c18.669,0,33.809,15.14,33.809,33.821
	c0,7.762-3.144,14.769-8.22,19.857c-0.421,0.421-0.867,0.829-1.312,1.213c-4.939,4.37-11.439,7.007-18.545,7.007H316.63
	c-21.912,0-39.677,17.765-39.677,39.665v15.611c0,12.454-10.089,22.556-22.543,22.556c-4.84,0-9.322-1.523-12.999-4.135
	c-1.052-0.743-2.043-1.572-2.946-2.476c-4.073-4.085-6.598-9.718-6.598-15.945V361.5v-28.077c0-18.681,15.128-33.821,33.809-33.821
	H270.614L270.614,299.601z"/>
<path style="fill:#FCC670;" d="M280.147,153.372v83.365c0,6.227-2.525,11.86-6.611,15.945c-1.535,1.523-3.281,2.835-5.199,3.875
	c-3.194,1.733-6.858,2.724-10.746,2.724c-12.454,0-22.543-10.089-22.543-22.543v-15.611c0-21.912-17.765-39.665-39.665-39.665
	H87.172c-6.301,0-12.12-2.08-16.799-5.583c-1.089-0.805-2.105-1.696-3.058-2.649c-1.473-1.461-2.785-3.095-3.887-4.853
	c-2.748-4.333-4.345-9.483-4.345-15.004c0-18.669,15.14-33.809,33.821-33.809h153.422
	C265.006,119.563,280.147,134.704,280.147,153.372z"/>
<path style="fill:#EAB465;" d="M280.147,184.94v51.797c0,6.227-2.525,11.86-6.611,15.945c-1.535,1.523-3.281,2.835-5.199,3.875
	c-3.194,1.733-6.858,2.724-10.746,2.724c-12.454,0-22.543-10.089-22.543-22.543v-15.611c0-21.912-17.765-39.665-39.665-39.665
	H87.172c-6.301,0-12.12-2.08-16.799-5.583c-1.089-0.805-2.105-1.696-3.058-2.649c-1.473-1.461-2.785-3.095-3.887-4.853
	c5.781-10.288,16.812-17.245,29.476-17.245h153.422C265.006,151.132,280.147,166.272,280.147,184.94z"/>
<path style="fill:#FCC670;" d="M231.866,333.41v83.377c0,6.227,2.525,11.86,6.611,15.945c1.535,1.523,3.281,2.835,5.199,3.875
	c3.194,1.733,6.858,2.724,10.746,2.724c12.454,0,22.543-10.089,22.543-22.543v-47.191c0-21.912,17.765-39.665,39.665-39.665h108.211
	c6.301,0,12.12-2.08,16.799-5.583c1.089-0.805,2.105-1.696,3.058-2.649c1.473-1.461,2.785-3.095,3.887-4.853
	c-5.781-10.288-16.812-17.245-29.476-17.245H265.687C247.006,299.601,231.866,314.742,231.866,333.41z"/>
<path style="fill:#E09B2D;" d="M270.614,256.978v27.867c-0.73,0.52-1.486,0.99-2.278,1.424c-3.194,1.733-6.858,2.724-10.746,2.724
	c-12.454,0-22.543-10.089-22.543-22.543v-15.611c0-21.912-17.765-39.665-39.665-39.665H87.172c-6.301,0-12.12-2.08-16.799-5.583
	c-0.607-0.446-1.188-0.916-1.746-1.424v-26.418l1.746-1.869c4.68,3.503,10.498,5.583,16.799,5.583h108.211
	c21.9,0,39.665,17.753,39.665,39.665v15.611c0,12.454,10.089,22.543,22.543,22.543c3.887,0,7.552-0.99,10.746-2.724L270.614,256.978
	z"/>
</svg>