<?xml version="1.0" encoding="iso-8859-1"?>
<!-- Uploaded to: SVG Repo, www.svgrepo.com, Generator: SVG Repo Mixer Tools -->
<svg height="800px" width="800px" version="1.1" id="Layer_1" xmlns="http://www.w3.org/2000/svg" xmlns:xlink="http://www.w3.org/1999/xlink" 
	 viewBox="0 0 512 512" xml:space="preserve">
<path style="fill:#F2F2F2;" d="M255.92,295.144c32.068,0,59.877,18.113,73.821,44.666c-13.944,26.542-41.753,44.666-73.821,44.666
	s-59.889-18.124-73.832-44.666C196.031,313.258,223.852,295.144,255.92,295.144z M273.711,339.811
	c0-9.829-7.973-17.791-17.791-17.791c-9.829,0-17.791,7.961-17.791,17.791c0,9.818,7.961,17.791,17.791,17.791
	C265.738,357.602,273.711,349.629,273.711,339.811z"/>
<path style="fill:#666666;" d="M255.92,322.02c9.818,0,17.791,7.961,17.791,17.791c0,9.818-7.973,17.791-17.791,17.791
	c-9.829,0-17.791-7.973-17.791-17.791C238.129,329.981,246.09,322.02,255.92,322.02z"/>
<path style="fill:#F7B239;" d="M377.743,237.38c17.379,1.579,33.658,7.016,47.958,15.434c13.921,8.195,14.377,28.343,0.656,36.872
	c-32.858,20.404-54.729,56.831-54.729,98.35c0,29.811-11.275,56.975-29.778,77.491c-21.182,23.462-51.827,38.217-85.93,38.217
	s-64.748-14.755-85.93-38.217c-18.503-20.515-29.778-47.68-29.778-77.491c0-41.52-21.883-77.946-54.74-98.35
	c-13.721-8.529-13.265-28.677,0.667-36.872c15.612-9.196,33.591-14.833,52.795-15.778l-0.022-0.489V127.51
	c0-21.983,17.835-39.818,39.84-39.818c21.983,0,39.818,17.835,39.818,39.818V48.251c0-10.997,4.459-20.949,11.664-28.165
	c7.216-7.205,17.168-11.664,28.176-11.664c21.994,0,39.829,17.835,39.829,39.829v79.258c0-21.983,17.835-39.818,39.841-39.818
	c21.983,0,39.818,17.835,39.818,39.818v108.158L377.743,237.38z M329.741,339.811c-13.944-26.553-41.753-44.666-73.821-44.666
	s-59.889,18.113-73.832,44.666c13.944,26.542,41.764,44.666,73.832,44.666S315.797,366.353,329.741,339.811z"/>
<path d="M204.222,324.159c3.33-3.181,3.451-8.461,0.269-11.791s-8.462-3.45-11.791-0.269c-7.241,6.917-13.266,14.908-17.91,23.751
	c-1.275,2.428-1.275,5.328,0,7.756c15.92,30.302,47.04,49.127,81.215,49.127c34.169,0,65.284-18.824,81.203-49.127
	c1.274-2.427,1.275-5.327,0-7.756c-15.913-30.303-47.028-49.128-81.203-49.128c-12.002,0-23.674,2.286-34.692,6.796
	c-4.262,1.745-6.304,6.614-4.56,10.877c1.745,4.262,6.614,6.304,10.877,4.559c9.004-3.685,18.55-5.553,28.375-5.553
	c26.47,0,50.699,13.81,64.254,36.326c-13.56,22.517-37.789,36.328-64.254,36.328c-26.472,0-50.704-13.809-64.265-36.326
	C195.184,334.019,199.37,328.795,204.222,324.159z"/>
<path d="M430.018,245.545c-13.586-7.997-28.254-13.223-43.693-15.598V127.427c0-26.554-21.604-48.158-48.159-48.158
	c-12.037,0-23.048,4.444-31.501,11.765V48.169C306.665,21.608,285.057,0,258.497,0c-12.862,0-24.962,5.008-34.077,14.112
	c-9.094,9.108-14.103,21.202-14.103,34.057v42.859c-8.448-7.317-19.452-11.759-31.48-11.759c-26.567,0-48.18,21.604-48.18,48.158
	v101.854c-17.14,1.967-33.822,7.52-48.661,16.261c-9.148,5.381-14.686,14.937-14.816,25.562
	c-0.128,10.499,5.097,20.061,13.978,25.582c31.81,19.753,50.802,53.872,50.802,91.266c0,30.746,11.337,60.25,31.927,83.079
	C187.393,497.068,220.969,512,256.007,512s68.614-14.932,92.12-40.968c3.087-3.418,2.818-8.692-0.6-11.779
	c-3.417-3.086-8.691-2.818-11.779,0.602c-20.349,22.539-49.413,35.466-79.741,35.466s-59.392-12.926-79.738-35.463
	c-17.818-19.756-27.63-45.293-27.63-71.905c0-43.202-21.937-82.618-58.678-105.433c-3.935-2.446-6.159-6.533-6.102-11.212
	c0.058-4.737,2.524-8.994,6.6-11.392c14.814-8.726,31.749-13.787,48.996-14.635c1.698-0.089,3.509-0.133,5.381-0.133
	c17.334,0,33.869,4.001,49.146,11.891c4.091,2.113,9.122,0.51,11.236-3.583c2.113-4.092,0.509-9.123-3.584-11.236
	c-16.681-8.615-35.403-13.329-54.298-13.712v-101.08c0-17.357,14.132-31.479,31.501-31.479c17.357,0,31.48,14.122,31.48,31.479
	v84.262v10.341c0,4.606,3.733,8.339,8.339,8.339s8.339-3.734,8.339-8.339V211.69V48.169c0-8.404,3.276-16.314,9.218-22.264
	c5.957-5.95,13.871-9.226,22.283-9.226c17.363,0,31.489,14.126,31.489,31.49V222.03c0,4.606,3.733,8.339,8.34,8.339
	c4.607,0,8.339-3.734,8.339-8.339v-94.603c0-17.357,14.132-31.479,31.501-31.479c17.357,0,31.48,14.122,31.48,31.479v101.075
	c-20.541-0.383-41.135,4.353-59.277,13.716c-4.093,2.113-5.699,7.143-3.587,11.235c2.113,4.093,7.145,5.698,11.235,3.586
	c15.289-7.891,31.829-11.892,49.16-11.892c3.286,0,6.613,0.152,9.896,0.455c15.822,1.438,30.787,6.253,44.483,14.315
	c4.067,2.395,6.53,6.653,6.588,11.388c0.057,4.68-2.168,8.768-6.101,11.212c-36.737,22.814-58.67,62.228-58.67,105.434
	c0,13.529-2.481,26.713-7.374,39.186c-1.682,4.288,0.431,9.127,4.718,10.809c1,0.393,2.03,0.578,3.043,0.578
	c3.33,0,6.476-2.008,7.766-5.296c5.656-14.421,8.525-29.654,8.525-45.277c0-37.399,18.986-71.516,50.793-91.267
	c8.878-5.519,14.104-15.081,13.977-25.58C444.695,260.481,439.16,250.926,430.018,245.545z"/>
<path d="M282.136,339.728c0-14.408-11.722-26.13-26.13-26.13c-14.408,0-26.13,11.722-26.13,26.13s11.722,26.13,26.13,26.13
	C270.414,365.859,282.136,354.137,282.136,339.728z M246.554,339.728c0-5.212,4.24-9.451,9.451-9.451
	c5.212,0,9.451,4.24,9.451,9.451s-4.24,9.451-9.451,9.451C250.794,349.18,246.554,344.94,246.554,339.728z"/>
</svg>