<?xml version="1.0" encoding="iso-8859-1"?>
<!-- Uploaded to: SVG Repo, www.svgrepo.com, Generator: SVG Repo Mixer Tools -->
<svg fill="#000000" height="800px" width="800px" version="1.1" id="Layer_1" xmlns="http://www.w3.org/2000/svg" xmlns:xlink="http://www.w3.org/1999/xlink" 
	 viewBox="0 0 512 512" xml:space="preserve">
<g>
	<g>
		<path d="M256,0C134.338,0,38.957,147.013,38.957,283.826C38.957,421.745,135.752,512,256,512
			c120.208,0,217.043-90.203,217.043-228.174C473.043,145.977,377.021,0,256,0z M256,33.391c65.447,0,121.592,53.911,154.01,122.844
			c-11.969,10.807-30.502,10.445-42.031-1.084c-12.072-12.073-28.124-18.721-45.196-18.721s-33.125,6.648-45.196,18.721
			c-11.932,11.93-31.24,11.931-43.172,0c-24.979-24.98-65.411-24.983-90.394,0c-11.53,11.529-30.061,11.891-42.031,1.084
			C134.408,87.303,190.553,33.391,256,33.391z M89.068,188.097c9.944,6.109,21.402,9.387,33.367,9.387
			c17.073,0,33.124-6.648,45.196-18.721c11.903-11.902,31.269-11.902,43.172,0c24.922,24.922,65.473,24.922,90.394,0
			c11.902-11.902,31.27-11.902,43.172,0c12.072,12.073,28.124,18.721,45.196,18.721c11.965,0,23.424-3.277,33.368-9.386
			c5.142,14.938,9.195,30.264,12.015,45.643H77.052C79.873,218.359,83.925,203.035,89.068,188.097z M256,478.609
			c-82.941,0-146.691-47.127-171.895-120.84c6.143-3.054,11.79-7.097,16.744-12.05c11.903-11.902,31.269-11.902,43.172,0
			c24.922,24.922,65.471,24.922,90.394,0c11.93-11.93,31.239-11.932,43.172,0c12.461,12.461,28.828,18.691,45.196,18.691
			s32.736-6.231,45.196-18.691c11.902-11.902,31.269-11.903,43.171,0c4.954,4.954,10.602,8.997,16.745,12.051
			C402.691,431.481,338.941,478.609,256,478.609z M389.565,303.387c-17.073,0-33.124,6.648-45.196,18.721
			c-11.902,11.902-31.27,11.902-43.172,0c-24.979-24.979-65.411-24.983-90.394,0c-11.903,11.902-31.269,11.902-43.172,0
			c-12.072-12.073-28.123-18.721-45.196-18.721c-17.073,0-33.124,6.648-45.196,18.721c-0.54,0.54-1.099,1.054-1.671,1.548
			c-2.116-12.724-3.221-26.024-3.221-39.83c0-5.527,0.186-11.099,0.545-16.696h366.214c0.359,5.596,0.545,11.168,0.545,16.696
			c0,13.806-1.105,27.106-3.219,39.83C433.467,321.095,418.058,303.387,389.565,303.387z"/>
	</g>
</g>
<g>
	<g>
		<circle cx="256" cy="116.87" r="16.696"/>
	</g>
</g>
<g>
	<g>
		<circle cx="356.174" cy="116.87" r="16.696"/>
	</g>
</g>
<g>
	<g>
		<circle cx="155.826" cy="116.87" r="16.696"/>
	</g>
</g>
<g>
	<g>
		<circle cx="256" cy="384" r="16.696"/>
	</g>
</g>
<g>
	<g>
		<circle cx="372.87" cy="384" r="16.696"/>
	</g>
</g>
<g>
	<g>
		<circle cx="139.13" cy="384" r="16.696"/>
	</g>
</g>
</svg>