<?xml version="1.0" encoding="iso-8859-1"?>
<!-- Uploaded to: SVG Repo, www.svgrepo.com, Generator: SVG Repo Mixer Tools -->
<svg fill="#000000" height="800px" width="800px" version="1.1" id="Layer_1" xmlns="http://www.w3.org/2000/svg" xmlns:xlink="http://www.w3.org/1999/xlink" 
	 viewBox="0 0 512 512" xml:space="preserve">
<g>
	<g>
		<path d="M479.24,73.541c-1.789-4.5-6.887-6.697-11.387-4.908c-4.5,1.789-6.697,6.887-4.907,11.386
			c4.626,11.634,6.972,23.942,6.972,36.583c0,54.626-44.442,99.067-99.067,99.067c-43.256,0-83.959,16.587-114.85,46.754
			c-30.89-30.167-71.593-46.754-114.849-46.754c-54.626,0-99.067-44.442-99.067-99.069c0-54.624,44.442-99.066,99.067-99.066H370.85
			c27.648,0,54.243,11.683,72.964,32.054c3.278,3.564,8.822,3.799,12.389,0.523c3.565-3.277,3.799-8.822,0.523-12.388
			C434.692,13.75,403.392,0,370.85,0H141.15C76.855,0,24.548,52.308,24.548,116.602s52.308,116.602,116.604,116.602
			c36.203,0,70.4,13.017,97.267,36.821h-18.786c-4.842,0-8.768,3.926-8.768,8.768v53.229h-49.42c-4.842,0-8.768,3.926-8.768,8.768
			v72.734c0,4.842,3.926,8.768,8.768,8.768h49.42v13.854c0,4.842,3.925,8.768,8.768,8.768s8.768-3.925,8.768-8.768v-22.621
			c0-4.842-3.926-8.768-8.768-8.768h-49.42v-55.199h49.42c4.842,0,8.768-3.926,8.768-8.768v-53.229H283.6v53.229
			c0,4.842,3.924,8.768,8.768,8.768h49.42v55.199h-49.42c-4.843,0-8.768,3.925-8.768,8.768v80.94H228.4v-29.092
			c0-4.842-3.926-8.768-8.768-8.768s-8.768,3.925-8.768,8.768v37.859c0,4.842,3.925,8.768,8.768,8.768h72.734
			c4.843,0,8.768-3.926,8.768-8.768v-80.94h49.42c4.843,0,8.768-3.926,8.768-8.768v-72.734c0-4.842-3.924-8.768-8.768-8.768h-49.42
			v-53.229c0-4.842-3.924-8.768-8.768-8.768h-18.786c26.866-23.804,61.064-36.821,97.268-36.821
			c64.295,0,116.602-52.308,116.602-116.604C487.452,101.734,484.69,87.245,479.24,73.541z"/>
	</g>
</g>
</svg>