<?xml version="1.0" encoding="iso-8859-1"?>
<!-- Uploaded to: SVG Repo, www.svgrepo.com, Generator: SVG Repo Mixer Tools -->
<svg fill="#000000" height="800px" width="800px" version="1.1" id="Layer_1" xmlns="http://www.w3.org/2000/svg" xmlns:xlink="http://www.w3.org/1999/xlink" 
	 viewBox="0 0 512 512" xml:space="preserve">
<g>
	<g>
		<path d="M256,72.348c-141.491,0-256,114.498-256,256c0,10.918,0,83.473,0,94.609c0,9.22,7.475,16.696,16.696,16.696h478.609
			c9.22,0,16.696-7.475,16.696-16.696c0-11.136,0-83.684,0-94.609C512,186.858,397.503,72.348,256,72.348z M478.609,406.261H33.391
			V372.87h445.217V406.261z M478.609,339.478H33.391v-11.13c0-122.746,99.862-222.609,222.609-222.609
			s222.609,99.862,222.609,222.609V339.478z"/>
	</g>
</g>
<g>
	<g>
		<path d="M313.095,222.556l15.3-26.378c2.893-4.985,2.901-11.136,0.024-16.131c-2.877-4.994-8.202-8.073-13.966-8.073h-30.698
			L269.31,147.07c-2.884-4.971-8.195-8.031-13.942-8.031c-5.747,0-11.058,3.06-13.942,8.031l-14.445,24.904h-30.698
			c-5.764,0-11.089,3.079-13.965,8.073c-2.877,4.994-2.868,11.145,0.023,16.131l15.301,26.378l-15.301,26.378
			c-2.892,4.985-2.901,11.136-0.023,16.131c2.876,4.994,8.202,8.073,13.965,8.073h30.698l14.445,24.904
			c2.884,4.971,8.195,8.031,13.942,8.031c5.747,0,11.058-3.06,13.942-8.031l14.445-24.904h30.698c5.764,0,11.089-3.079,13.966-8.073
			c2.876-4.994,2.867-11.145-0.024-16.131L313.095,222.556z M265.188,240.905h-19.64l-10.643-18.349l10.643-18.349h19.64
			l10.643,18.349L265.188,240.905z"/>
	</g>
</g>
</svg>