<?xml version="1.0" encoding="iso-8859-1"?>
<!-- Uploaded to: SVG Repo, www.svgrepo.com, Generator: SVG Repo Mixer Tools -->
<svg fill="#000000" height="800px" width="800px" version="1.1" id="Layer_1" xmlns="http://www.w3.org/2000/svg" xmlns:xlink="http://www.w3.org/1999/xlink" 
	 viewBox="0 0 512 512" xml:space="preserve">
<g>
	<g>
		<path d="M389.562,100.171c-5.851,0-11.472,1.008-16.695,2.86V83.476c-0.001-27.617-22.468-50.086-50.087-50.086
			c-6.513,0-12.74,1.25-18.453,3.522C298.529,15.666,279.059,0,255.999,0s-42.529,15.666-48.328,36.912
			c-5.713-2.272-11.939-3.522-18.453-3.522c-27.617,0-50.086,22.468-50.086,50.086v86.337c-5.223-1.852-10.844-2.86-16.695-2.86
			c-27.617,0-50.086,22.468-50.086,50.086v111.301c0,99.675,80.601,183.664,183.384,183.661c6.04,0,12.132-0.289,18.249-0.873
			c94.641-9.025,165.663-93.324,165.663-189.961V150.257C439.648,122.64,417.18,100.171,389.562,100.171z M406.256,321.166
			c0,80.639-59.493,149.479-135.442,156.722c-91.17,8.699-165.072-63.17-165.072-149.549V217.038c0-9.206,7.49-16.695,16.695-16.695
			c9.206,0,16.695,7.49,16.695,16.695v11.13c0,9.22,7.475,16.695,16.695,16.695c9.22,0,16.695-7.475,16.695-16.695v-11.13V83.476
			c0-9.206,7.489-16.695,16.695-16.695s16.695,7.489,16.695,16.695v100.171c0,9.22,7.475,16.695,16.695,16.695
			s16.695-7.475,16.695-16.695V50.086c0-9.206,7.489-16.695,16.695-16.695c9.206,0,16.695,7.489,16.695,16.695v133.562
			c0,9.22,7.475,16.695,16.695,16.695c9.22,0,16.695-7.475,16.695-16.695V83.476c0-9.206,7.49-16.695,16.695-16.695
			c9.206,0,16.695,7.489,16.695,16.695v100.171c0,9.22,7.475,16.695,16.695,16.695s16.695-7.475,16.695-16.695v-33.39
			c0-9.206,7.489-16.695,16.695-16.695c9.206,0,16.695,7.49,16.695,16.695V321.166z"/>
	</g>
</g>
<g>
	<g>
		<path d="M255.999,244.863c-55.228,0-100.171,44.94-100.171,100.171c0,55.079,44.792,100.171,100.171,100.171
			c55.221,0,100.171-44.934,100.171-100.171C356.171,290.033,311.472,244.863,255.999,244.863z M320.334,362.901l-10.202-5.89
			c-7.986-4.611-18.196-1.874-22.806,6.11c-4.61,7.985-1.875,18.196,6.11,22.806l10.174,5.875
			c-8.373,8.522-19.001,14.823-30.916,17.901v-11.799c0-9.22-7.475-16.695-16.695-16.695c-9.22,0-16.695,7.475-16.695,16.695v11.799
			c-11.915-3.077-22.543-9.378-30.916-17.902l10.174-5.873c7.986-4.61,10.722-14.821,6.11-22.806
			c-4.611-7.986-14.821-10.719-22.806-6.11l-10.201,5.89c-1.583-5.691-2.446-11.678-2.446-17.865s0.864-12.175,2.446-17.865
			l10.201,5.89c2.629,1.518,5.499,2.239,8.332,2.239c5.77,0,11.382-2.994,14.474-8.35c4.611-7.985,1.875-18.196-6.11-22.806
			l-10.174-5.873c8.373-8.523,19.001-14.823,30.916-17.902v11.797c0,9.22,7.475,16.695,16.695,16.695
			c9.22,0,16.695-7.475,16.695-16.695v-11.799c11.915,3.077,22.543,9.378,30.916,17.901l-10.174,5.875
			c-7.986,4.61-10.722,14.821-6.11,22.806c3.092,5.357,8.704,8.35,14.474,8.35c2.833,0,5.703-0.721,8.332-2.239l10.202-5.89
			c1.583,5.691,2.446,11.678,2.446,17.866C322.78,351.223,321.917,357.21,320.334,362.901z"/>
	</g>
</g>
<g>
	<g>
		<circle cx="256.004" cy="345.034" r="16.695"/>
	</g>
</g>
</svg>