<?xml version="1.0" encoding="iso-8859-1"?>
<!-- Uploaded to: SVG Repo, www.svgrepo.com, Generator: SVG Repo Mixer Tools -->
<svg fill="#000000" height="800px" width="800px" version="1.1" id="Layer_1" xmlns="http://www.w3.org/2000/svg" xmlns:xlink="http://www.w3.org/1999/xlink" 
	 viewBox="0 0 512 512" xml:space="preserve">
<g>
	<g>
		<path d="M356.174,150.261c-18.412,0-33.391-14.979-33.391-33.391c0-9.22-7.475-16.696-16.696-16.696H205.913
			c-9.22,0-16.696,7.475-16.696,16.696c0,18.412-14.979,33.391-33.391,33.391c-9.22,0-16.696,7.475-16.696,16.696v178.087
			c0,9.22,7.475,16.696,16.696,16.696c18.412,0,33.391,14.979,33.391,33.391c0,9.22,7.475,16.696,16.696,16.696h100.174
			c9.22,0,16.696-7.475,16.696-16.696c0-18.412,14.979-33.391,33.391-33.391c9.22,0,16.696-7.475,16.696-16.696V166.957
			C372.87,157.736,365.394,150.261,356.174,150.261z M339.478,330.46c-23.434,6.053-41.922,24.54-47.974,47.974h-71.008
			c-6.053-23.434-24.54-41.922-47.974-47.974V181.54c23.434-6.053,41.922-24.54,47.974-47.974h71.008
			c6.053,23.434,24.54,41.922,47.974,47.974V330.46z"/>
	</g>
</g>
<g>
	<g>
		<path d="M422.957,0c-9.22,0-16.696,7.475-16.696,16.696v16.696H372.87V16.696C372.87,7.475,365.394,0,356.174,0
			c-9.22,0-16.696,7.475-16.696,16.696v16.696h-33.391V16.696c0-9.22-7.475-16.696-16.696-16.696s-16.696,7.475-16.696,16.696
			v16.696h-33.391V16.696c0-9.22-7.475-16.696-16.696-16.696s-16.696,7.475-16.696,16.696v16.696h-33.391V16.696
			c0-9.22-7.475-16.696-16.696-16.696S139.13,7.475,139.13,16.696v16.696h-33.391V16.696C105.739,7.475,98.264,0,89.044,0
			c-9.22,0-16.696,7.475-16.696,16.696c0,15.639,0,468.674,0,478.609c0,9.22,7.475,16.696,16.696,16.696
			c9.22,0,16.696-7.475,16.696-16.696v-16.696h33.391v16.696c0,9.22,7.475,16.696,16.696,16.696s16.696-7.475,16.696-16.696v-16.696
			h33.391v16.696c0,9.22,7.475,16.696,16.696,16.696s16.696-7.475,16.696-16.696v-16.696h33.391v16.696
			c0,9.22,7.475,16.696,16.696,16.696s16.696-7.475,16.696-16.696v-16.696h33.391v16.696c0,9.22,7.475,16.696,16.696,16.696
			c9.22,0,16.696-7.475,16.696-16.696v-16.696h33.391v16.696c0,9.22,7.475,16.696,16.696,16.696c9.22,0,16.696-7.475,16.696-16.696
			c0-15.639,0-468.674,0-478.609C439.652,7.475,432.177,0,422.957,0z M406.261,445.217H105.739V66.783h300.522V445.217z"/>
	</g>
</g>
</svg>