<?xml version="1.0" encoding="iso-8859-1"?>
<!-- Uploaded to: SVG Repo, www.svgrepo.com, Generator: SVG Repo Mixer Tools -->
<svg fill="#000000" height="800px" width="800px" version="1.1" id="Layer_1" xmlns="http://www.w3.org/2000/svg" xmlns:xlink="http://www.w3.org/1999/xlink" 
	 viewBox="0 0 512.001 512.001" xml:space="preserve">
<g>
	<g>
		<path d="M405.916,166.957v-66.783c0-9.223-7.145-16.696-16.362-16.696c-9.217,0-16.696,7.473-16.696,16.696v66.783
			c0,58.759-43.964,107.391-100.508,115.536v-33.741c38.058-7.756,66.783-41.48,66.783-81.795v-66.783
			c0-9.223-7.145-16.696-16.362-16.696c-9.217,0-16.696,7.473-16.696,16.696v66.783c0,21.737-14.334,40.096-33.725,47.01V100.174
			c0-9.223-7.145-16.696-16.362-16.696c-9.217,0-16.696,7.473-16.696,16.696v113.793c-19.391-6.914-33.725-25.273-33.725-47.01
			v-66.783c0-9.223-7.145-16.696-16.362-16.696s-16.696,7.473-16.696,16.696v66.783c0,40.316,28.724,74.04,66.783,81.795v33.741
			c-56.544-8.145-100.174-56.777-100.174-115.536v-66.783c0-9.223-7.479-16.696-16.696-16.696c-9.217,0-16.696,7.473-16.696,16.696
			v66.783c0,77.204,58.544,140.937,133.565,149.277v95.593h-16.696c-46.032,0-83.478,37.446-83.478,83.478
			c0,9.223,7.479,16.696,16.696,16.696h200.348c9.217,0,16.696-7.473,16.696-16.696c0-46.032-37.446-83.478-83.478-83.478h-17.03
			v-95.593C347.372,307.893,405.916,244.162,405.916,166.957z"/>
	</g>
</g>
<g>
	<g>
		<path d="M272.684,33.391L255.989,0l-16.696,33.391c-2.489,5.055-2.715,11.266,0,16.696c4.61,9.22,15.823,12.958,25.044,8.348
			C273.557,53.825,277.295,42.612,272.684,33.391z"/>
	</g>
</g>
<g>
	<g>
		<path d="M339.467,33.391L322.771,0l-16.696,33.391c-2.489,5.055-2.715,11.266,0,16.696c4.61,9.22,15.823,12.958,25.044,8.348
			S344.077,42.612,339.467,33.391z"/>
	</g>
</g>
<g>
	<g>
		<path d="M406.25,33.391L389.554,0l-16.696,33.391c-2.489,5.055-2.715,11.266,0,16.696c4.61,9.22,15.823,12.958,25.044,8.348
			S410.86,42.612,406.25,33.391z"/>
	</g>
</g>
<g>
	<g>
		<path d="M205.902,33.391L189.206,0L172.51,33.391c-2.489,5.055-2.715,11.266,0,16.696c4.61,9.22,15.823,12.958,25.043,8.348
			C206.773,53.825,210.512,42.612,205.902,33.391z"/>
	</g>
</g>
<g>
	<g>
		<path d="M139.119,33.391L122.424,0l-16.696,33.391c-2.489,5.055-2.715,11.266,0,16.696c4.61,9.22,15.823,12.958,25.043,8.348
			C139.991,53.825,143.729,42.612,139.119,33.391z"/>
	</g>
</g>
</svg>