<?xml version="1.0" encoding="iso-8859-1"?>
<!-- Uploaded to: SVG Repo, www.svgrepo.com, Generator: SVG Repo Mixer Tools -->
<svg height="800px" width="800px" version="1.1" id="Layer_1" xmlns="http://www.w3.org/2000/svg" xmlns:xlink="http://www.w3.org/1999/xlink" 
	 viewBox="0 0 512 512" xml:space="preserve">
<path style="fill:#FFC033;" d="M289.391,144.696h-16.696V128c0-9.223-7.479-16.696-16.696-16.696s-16.696,7.473-16.696,16.696
	v16.696h-16.696c-9.217,0-16.696,7.473-16.696,16.696s7.479,16.696,16.696,16.696h16.696v50.087c0,9.223,7.479,16.696,16.696,16.696
	s16.696-7.473,16.696-16.696v-50.087h16.696c9.217,0,16.696-7.473,16.696-16.696S298.608,144.696,289.391,144.696z"/>
<path style="fill:#F9A926;" d="M272.696,228.174v-50.087h16.696c9.217,0,16.696-7.473,16.696-16.696s-7.479-16.696-16.696-16.696
	h-16.696V128c0-9.223-7.479-16.696-16.696-16.696V244.87C265.217,244.87,272.696,237.397,272.696,228.174z"/>
<path style="fill:#E15C25;" d="M389.543,378.435c-8.391,0-15.619-6.315-16.577-14.854L339.575,63.059
	c-1.011-9.163,5.587-17.418,14.75-18.435c9.163-1.048,17.424,5.582,18.445,14.75l33.391,300.522
	c1.011,9.163-5.587,17.418-14.75,18.435C390.783,378.402,390.163,378.435,389.543,378.435z"/>
<g>
	<path style="fill:#EE6E2F;" d="M122.457,378.435c-0.62,0-1.239-0.032-1.87-0.103c-9.163-1.016-15.761-9.272-14.75-18.435
		l33.391-300.522c1.022-9.168,9.272-15.789,18.445-14.75c9.163,1.016,15.761,9.272,14.75,18.435l-33.391,300.522
		C138.076,372.119,130.848,378.435,122.457,378.435z"/>
	<path style="fill:#EE6E2F;" d="M256,77.913c-9.217,0-16.696-7.473-16.696-16.696V16.696C239.304,7.473,246.783,0,256,0
		s16.696,7.473,16.696,16.696v44.522C272.696,70.44,265.217,77.913,256,77.913z"/>
</g>
<path style="fill:#E15C25;" d="M272.696,61.217V16.696C272.696,7.473,265.217,0,256,0v77.913
	C265.217,77.913,272.696,70.44,272.696,61.217z"/>
<path style="fill:#FFC033;" d="M256,512c-64.445,0-116.87-55.098-116.87-122.821c0-17.957,9.5-35.305,18.685-52.076
	c7.228-13.201,14.707-26.853,14.707-36.472c0-42.876,31.913-89.153,83.478-89.153s83.478,46.277,83.478,89.153
	c0,9.62,7.479,23.271,14.707,36.473c9.185,16.771,18.685,34.119,18.685,52.075C372.87,456.902,320.445,512,256,512z"/>
<path style="fill:#F9A926;" d="M372.87,389.179c0-17.957-9.5-35.305-18.685-52.076c-7.228-13.201-14.707-26.853-14.707-36.472
	c0-42.876-31.913-89.153-83.478-89.153V512C320.445,512,372.87,456.902,372.87,389.179z"/>
<path style="fill:#FFD9B3;" d="M389.565,77.913h-267.13c-9.217,0-16.696-7.473-16.696-16.696s7.479-16.696,16.696-16.696h267.13
	c9.217,0,16.696,7.473,16.696,16.696S398.782,77.913,389.565,77.913z"/>
<path style="fill:#F2C291;" d="M389.565,44.522H256v33.391h133.565c9.217,0,16.696-7.473,16.696-16.696
	S398.782,44.522,389.565,44.522z"/>
<path style="fill:#FFD9B3;" d="M422.957,378.435H89.043c-9.217,0-16.696-7.473-16.696-16.696s7.479-16.696,16.696-16.696h333.913
	c9.217,0,16.696,7.473,16.696,16.696S432.174,378.435,422.957,378.435z"/>
<path style="fill:#F2C291;" d="M422.957,345.043H256v33.391h166.957c9.217,0,16.696-7.473,16.696-16.696
	S432.174,345.043,422.957,345.043z"/>
<circle style="fill:#E6563A;" cx="256" cy="428.522" r="16.696"/>
<path style="fill:#D9472B;" d="M272.696,428.522c0-9.22-7.475-16.696-16.696-16.696v33.391
	C265.22,445.217,272.696,437.742,272.696,428.522z"/>
</svg>