<?xml version="1.0" encoding="iso-8859-1"?>
<!-- Uploaded to: SVG Repo, www.svgrepo.com, Generator: SVG Repo Mixer Tools -->
<svg fill="#000000" height="800px" width="800px" version="1.1" id="Layer_1" xmlns="http://www.w3.org/2000/svg" xmlns:xlink="http://www.w3.org/1999/xlink" 
	 viewBox="0 0 512.001 512.001" xml:space="preserve">
<g>
	<g>
		<path d="M422.956,0c-9.217,0-16.696,7.473-16.696,16.696v16.696h-33.391V16.696C372.869,7.473,365.39,0,356.173,0
			s-16.696,7.473-16.696,16.696v16.696h-33.391V16.696C306.086,7.473,298.607,0,289.39,0c-9.217,0-16.696,7.473-16.696,16.696
			v16.696h-33.391V16.696C239.303,7.473,231.825,0,222.608,0c-9.217,0-16.696,7.473-16.696,16.696v16.696h-33.391V16.696
			C172.521,7.473,165.042,0,155.825,0c-9.217,0-16.696,7.473-16.696,16.696v16.696h-33.391V16.696C105.738,7.473,98.26,0,89.043,0
			S72.347,7.473,72.347,16.696v478.609c0,9.223,7.479,16.696,16.696,16.696s16.696-7.473,16.696-16.696v-16.696h33.391v16.696
			c0,9.223,7.479,16.696,16.696,16.696c9.217,0,16.696-7.473,16.696-16.696v-16.696h33.391v16.696
			c0,9.223,7.479,16.696,16.696,16.696c9.217,0,16.696-7.473,16.696-16.696v-16.696h33.391v16.696
			c0,9.223,7.479,16.696,16.696,16.696c9.217,0,16.696-7.473,16.696-16.696v-16.696h33.391v16.696
			c0,9.223,7.479,16.696,16.696,16.696c9.217,0,16.696-7.473,16.696-16.696v-16.696h33.391v16.696
			c0,9.223,7.479,16.696,16.696,16.696c9.217,0,16.696-7.473,16.696-16.696V16.696C439.651,7.473,432.173,0,422.956,0z
			 M356.173,330.461L356.173,330.461c0,7.614-5.147,14.261-12.522,16.162c-17.636,4.56-31.423,18.347-35.984,35.984
			c-1.902,7.375-8.549,12.522-16.162,12.522h-71.011c-7.614,0-14.261-5.147-16.163-12.522c-4.56-17.636-18.347-31.423-35.984-35.984
			c-7.375-1.902-12.522-8.549-12.522-16.162V181.538c0-7.614,5.147-14.261,12.522-16.162c17.636-4.56,31.423-18.347,35.984-35.984
			c1.902-7.375,8.549-12.522,16.163-12.522h71.011c7.614,0,14.261,5.147,16.162,12.522c4.56,17.636,18.347,31.423,35.984,35.984
			c7.375,1.902,12.522,8.549,12.522,16.162V330.461z"/>
	</g>
</g>
</svg>