<?xml version="1.0" encoding="iso-8859-1"?>
<!-- Uploaded to: SVG Repo, www.svgrepo.com, Generator: SVG Repo Mixer Tools -->
<svg version="1.1" id="Layer_1" xmlns="http://www.w3.org/2000/svg" xmlns:xlink="http://www.w3.org/1999/xlink" 
	 viewBox="0 0 512.001 512.001" xml:space="preserve">
<path style="fill:#808080;" d="M386.727,173.344h-0.012l-6.183-76.547c-1.039-12.868-11.786-22.781-24.696-22.781H156.159
	c-12.91,0-23.656,9.913-24.696,22.781l-6.183,76.547l-3.379,41.728h268.192L386.727,173.344z"/>
<path style="fill:#666666;" d="M156.162,74.015h16.446l-5.445,99.328l-2.299,41.728h-42.959l3.379-41.728l6.183-76.547
	C132.506,83.928,143.252,74.015,156.162,74.015z"/>
<polygon style="fill:#4D4D4D;" points="390.094,215.072 121.902,215.072 125.281,173.344 386.727,173.344 "/>
<polygon style="fill:#333333;" points="167.16,173.344 164.861,215.072 121.902,215.072 125.281,173.344 "/>
<g>
	<path style="fill:#4D4D4D;" d="M98.684,437.986c-4.809,0-8.708-3.899-8.708-8.708c0-14.525,8.331-22.21,14.414-27.822
		c5.787-5.339,8.807-8.432,8.807-15.022s-3.02-9.683-8.807-15.022c-6.083-5.611-14.414-13.298-14.414-27.822
		s8.332-22.209,14.414-27.82c5.787-5.339,8.807-8.43,8.807-15.018c0-6.589-3.02-9.681-8.807-15.019
		c-6.083-5.611-14.414-13.296-14.414-27.82s8.332-22.209,14.414-27.819c5.787-5.339,8.807-8.43,8.807-15.018
		c0-4.809,3.899-8.708,8.708-8.708s8.708,3.899,8.708,8.708c0,14.524-8.332,22.209-14.414,27.819
		c-5.787,5.339-8.807,8.43-8.807,15.018c0,6.589,3.02,9.681,8.807,15.019c6.083,5.611,14.414,13.296,14.414,27.82
		s-8.331,22.209-14.414,27.819c-5.787,5.339-8.807,8.43-8.807,15.019c0,6.59,3.02,9.682,8.807,15.022
		c6.083,5.611,14.414,13.298,14.414,27.822s-8.331,22.211-14.414,27.822c-5.787,5.339-8.807,8.432-8.807,15.022
		C107.392,434.087,103.493,437.986,98.684,437.986z"/>
	<path style="fill:#4D4D4D;" d="M413.316,437.986c-4.81,0-8.708-3.899-8.708-8.708c0-6.59-3.02-9.682-8.807-15.022
		c-6.083-5.611-14.414-13.298-14.414-27.822s8.332-22.211,14.414-27.822c5.787-5.339,8.807-8.432,8.807-15.022
		c0-6.588-3.02-9.681-8.807-15.019c-6.083-5.611-14.414-13.295-14.414-27.819c0-14.525,8.332-22.209,14.414-27.82
		c5.787-5.339,8.807-8.43,8.807-15.019c0-6.588-3.02-9.68-8.807-15.018c-6.083-5.611-14.414-13.295-14.414-27.819
		c0-4.809,3.898-8.708,8.708-8.708c4.81,0,8.708,3.899,8.708,8.708c0,6.588,3.02,9.68,8.807,15.018
		c6.083,5.611,14.414,13.295,14.414,27.819c0,14.525-8.332,22.209-14.414,27.82c-5.787,5.339-8.807,8.43-8.807,15.019
		c0,6.588,3.02,9.68,8.807,15.018c6.083,5.611,14.414,13.295,14.414,27.82s-8.331,22.21-14.413,27.822
		c-5.788,5.339-8.808,8.432-8.808,15.022s3.02,9.683,8.808,15.022c6.083,5.611,14.413,13.298,14.413,27.822
		C422.024,434.087,418.125,437.986,413.316,437.986z"/>
</g>
<rect y="206.366" style="fill:#808080;" width="512.001" height="17.416"/>
</svg>