<?xml version="1.0" encoding="iso-8859-1"?>
<!-- Uploaded to: SVG Repo, www.svgrepo.com, Generator: SVG Repo Mixer Tools -->
<svg height="800px" width="800px" version="1.1" id="Layer_1" xmlns="http://www.w3.org/2000/svg" xmlns:xlink="http://www.w3.org/1999/xlink" 
	 viewBox="0 0 512 512" xml:space="preserve">
<g>
	<path style="fill:#FFC033;" d="M295.887,119.227H48.537c-5.973,0-11.491,3.188-14.472,8.357c-2.993,5.169-2.993,11.545,0,16.714
		L98.556,256l19.295-33.423l-40.369-69.923h237.706L295.887,119.227z"/>
	<path style="fill:#FFC033;" d="M77.481,359.346l119.333-206.691h-38.593L34.064,367.702c-2.993,5.169-2.993,11.545,0,16.714
		c2.982,5.169,8.498,8.357,14.472,8.357h128.982l-19.298-33.427H77.481z"/>
	<path style="fill:#FFC033;" d="M270.472,8.357C267.491,3.188,261.974,0,256,0c-5.973,0-11.491,3.188-14.472,8.357l-64.009,110.87
		h38.594L256,50.141L374.853,256l19.297-33.423L270.472,8.357z"/>
	<path style="fill:#FFC033;" d="M477.937,367.702L413.446,256l-19.295,33.423l40.369,69.922H196.814l19.3,33.427h247.351
		c5.973,0,11.491-3.188,14.472-8.357C480.928,379.247,480.928,372.871,477.937,367.702z"/>
	<path style="fill:#FFC033;" d="M295.887,392.773L256,461.859L137.148,256l-19.297,33.423l123.677,214.22
		C244.51,508.812,250.027,512,256,512c5.973,0,11.491-3.188,14.472-8.357l64.009-110.87H295.887z"/>
</g>
<g>
	<path style="fill:#F9A926;" d="M374.853,256l19.297-33.423L270.472,8.357C267.491,3.188,261.974,0,256,0v50.141L374.853,256z"/>
	<path style="fill:#F9A926;" d="M413.445,256l-19.295,33.423l40.369,69.922H256v33.427h207.463c5.974,0,11.491-3.188,14.472-8.357
		c2.993-5.169,2.993-11.545,0-16.714L413.445,256z"/>
	<path style="fill:#F9A926;" d="M477.937,127.584c-2.982-5.169-8.498-8.357-14.472-8.357H334.483l19.298,33.427h80.74
		L315.187,359.346h38.593l124.156-215.048C480.928,139.129,480.928,132.753,477.937,127.584z"/>
	<polygon style="fill:#F9A926;" points="295.887,119.227 256,119.227 256,152.654 315.187,152.654 	"/>
	<path style="fill:#F9A926;" d="M270.472,503.643l64.009-110.87h-38.594L256,461.859V512
		C261.974,512,267.491,508.812,270.472,503.643z"/>
</g>
</svg>