<?xml version="1.0" encoding="iso-8859-1"?>
<!-- Uploaded to: SVG Repo, www.svgrepo.com, Generator: SVG Repo Mixer Tools -->
<svg fill="#000000" version="1.1" id="Layer_1" xmlns="http://www.w3.org/2000/svg" xmlns:xlink="http://www.w3.org/1999/xlink" 
	 viewBox="0 0 290.625 290.625" xml:space="preserve">
<g>
	<g>
		<g>
			<path d="M239.062,89.063h-9.374v18.75h-9.375V84.375v-4.688V56.25h-9.375v11.058l-14.063-49.219V0H187.5v18.089l-14.063,49.219
				V56.25h-9.375v23.438v4.688v18.75H150V89.063h-9.375v14.063h-14.063v-18.75v-4.688V56.25h-9.375v11.058l-14.063-49.219V0H93.75
				v18.089L79.688,67.308V56.25h-9.375v23.438v4.688v23.438h-9.375v-18.75h-9.375V281.25H0v9.375h271.875v-9.375h-32.813V89.063z
				 M192.187,35.813l12.534,43.875h-25.068L192.187,35.813z M173.437,89.063h37.5v18.75h-14.062v-9.375H187.5v9.375h-14.063V89.063z
				 M182.813,168.75v37.5h-9.375v-14.063v-37.5h28.125v51.563h-9.375v-37.5H182.813z M192.188,145.313v-18.75h-9.375v18.75h-9.375
				v-28.125h28.125v28.125H192.188z M126.563,112.5h37.5v13.43c-3.305-4.336-7.191-6.131-7.472-6.258l-1.903-0.844l-1.903,0.848
				c-0.281,0.127-4.167,1.917-7.472,6.258c-3.305-4.336-7.191-6.131-7.472-6.258l-1.903-0.848l-1.903,0.848
				c-0.281,0.127-4.167,1.917-7.472,6.258V112.5z M164.063,154.688v12.769c-7.327-8.414-16.373-12.183-17.011-12.436l-0.834-0.333
				H164.063z M150,145.313v-4.688c0-6,2.756-9.422,4.706-11.086c1.945,1.65,4.669,5.044,4.669,11.086v4.688H150z M140.625,140.625
				v4.688h-9.375v-4.688c0-6,2.756-9.422,4.706-11.086C137.901,131.189,140.625,134.583,140.625,140.625z M126.563,154.688h17.845
				l-0.834,0.333c-0.637,0.253-9.684,4.022-17.011,12.436V154.688z M126.562,192.187c0.001-16.635,13.754-25.11,18.736-27.642
				c4.945,2.536,18.764,11.109,18.764,27.642v14.063h-37.5V192.187z M98.437,35.813l12.535,43.875H85.903L98.437,35.813z
				 M79.688,89.063h37.5v18.75h-14.063v-9.375H93.75v9.375H79.688V89.063z M98.438,168.751v37.5h-9.375v-51.563h28.125v37.5v14.063
				h-9.375v-37.5H98.438z M107.813,145.313V131.25h-9.375v14.063h-9.375v-28.125h28.125v28.125H107.813z M60.938,117.188h18.75
				v28.125h-18.75V117.188z M60.938,154.687h18.75v23.438h-18.75V154.687z M60.938,187.5h18.75v18.75h-18.75V187.5z M117.188,281.25
				h-56.25v-9.375h56.25V281.25z M84.375,262.5v-18.75c0-8.156,6.389-12.216,9.375-13.669c2.995,1.462,9.375,5.522,9.375,13.669
				v18.75H84.375z M117.188,262.5H112.5v-18.75c0-17.245-16.561-22.959-17.269-23.194l-1.481-0.497l-1.481,0.492
				C91.561,220.791,75,226.505,75,243.75v18.75H60.938v-46.875h83.47l-0.834,0.333c-1.083,0.431-26.386,10.861-26.386,37.167V262.5z
				 M164.062,281.251H150v-32.813h-9.375v32.813h-14.063v-28.125c0-16.636,13.753-25.111,18.736-27.642
				c4.945,2.536,18.764,11.109,18.764,27.642V281.251z M147.051,215.957l-0.834-0.333h83.47V262.5h-14.062v-18.75
				c0-17.245-16.561-22.959-17.269-23.194l-1.481-0.497l-1.481,0.492c-0.708,0.239-17.269,5.953-17.269,23.198v18.75h-4.688v-9.375
				C173.437,226.818,148.134,216.388,147.051,215.957z M206.25,243.75v18.75H187.5v-18.75c0-8.156,6.389-12.216,9.375-13.669
				C199.87,231.543,206.25,235.603,206.25,243.75z M229.688,281.25h-56.25v-9.375h56.25V281.25z M229.688,206.25h-18.75V187.5h18.75
				V206.25z M229.688,178.125h-18.75v-23.438h18.75V178.125z M229.688,145.313h-18.75v-28.125h18.75V145.313z"/>
			<path d="M145.313,173.437c-7.754,0-14.063,6.309-14.063,14.063c0,7.754,6.309,14.063,14.063,14.063
				c7.753,0,14.063-6.309,14.063-14.063C159.376,179.746,153.067,173.437,145.313,173.437z M145.313,192.189
				c-2.588,0-4.688-2.1-4.688-4.688c0-2.588,2.1-4.688,4.688-4.688c2.587,0,4.688,2.1,4.688,4.688
				C150.001,190.089,147.901,192.189,145.313,192.189z"/>
			<rect x="281.25" y="281.25" width="9.375" height="9.375"/>
		</g>
	</g>
</g>
</svg>