<?xml version="1.0" encoding="iso-8859-1"?>
<!-- Uploaded to: SVG Repo, www.svgrepo.com, Generator: SVG Repo Mixer Tools -->
<svg fill="#000000" version="1.1" id="Layer_1" xmlns="http://www.w3.org/2000/svg" xmlns:xlink="http://www.w3.org/1999/xlink" 
	 viewBox="0 0 300 300" xml:space="preserve">
<g>
	<g>
		<g>
			<path d="M77.419,193.549c0,8.003,6.513,14.516,14.516,14.516s14.516-6.513,14.516-14.516c0-8.003-6.513-14.516-14.516-14.516
				S77.419,185.546,77.419,193.549z M91.935,188.71c2.666,0,4.839,2.168,4.839,4.839s-2.173,4.839-4.839,4.839
				s-4.839-2.168-4.839-4.839S89.269,188.71,91.935,188.71z"/>
			<rect x="130.645" y="145.161" width="9.677" height="53.226"/>
			<path d="M275.806,190.81v-23.013l3.039,1.215l3.595-8.985L257.381,150h-15.445v-24.194h-9.677v23.802l-14.516-11.613V111.29
				c0-8.995-6.194-16.505-14.516-18.668V82.258h-9.677v10.365c-1.723,0.45-3.339,1.127-4.839,2.003V48.387h-9.677v4.839
				c0-14.356-10.485-26.279-24.194-28.597v-0.435h4.839v-9.677h-4.839V0h-9.677v14.516h-4.839v9.677h4.839v0.435
				c-13.708,2.313-24.194,14.235-24.194,28.597v-4.839h-9.677v46.239c-1.5-0.876-3.116-1.558-4.839-2.003V82.258h-9.677v10.365
				c-8.323,2.163-14.516,9.673-14.516,18.668v26.705l-14.516,11.613v-23.802h-9.677V150H42.619l-25.06,10.021l3.595,8.985
				l3.039-1.215v23.013L0,205.321V300h19.355h29.032h203.226h29.032H300v-94.674L275.806,190.81z M38.71,290.323h-9.678v-53.226
				c0-2.671,2.173-4.839,4.839-4.839c2.666,0,4.839,2.168,4.839,4.839V290.323z M58.064,290.323h-9.677v-53.226
				c0-8.003-6.513-14.516-14.516-14.516c-8.003,0-14.516,6.513-14.516,14.516v53.226H9.677v-79.519l14.516-8.71v10.81h9.677v-14.516
				h24.194V290.323z M58.064,188.709H33.871V163.92l10.606-4.243h13.587V188.709z M111.29,290.323H96.774v-53.226h-9.677v53.226
				H67.742V227.42h43.548V290.323z M111.29,217.742H67.742v-19.355v-9.677v-26.705l21.053-16.844h22.495V217.742z M111.29,135.484
				H91.935V111.29c0-5.337,4.341-9.677,9.678-9.677c5.337,0,9.677,4.34,9.677,9.677V135.484z M150,33.871
				c10.674,0,19.355,8.681,19.355,19.355h-38.71C130.645,42.552,139.326,33.871,150,33.871z M120.967,62.903h58.065v67.742h-58.065
				V62.903z M159.678,290.322h-19.355v-62.903h19.355V290.322z M140.323,217.742c0-5.337,4.34-9.677,9.677-9.677
				c5.337,0,9.677,4.34,9.677,9.677H140.323z M179.033,290.323h-9.677v-72.581c-0.001-10.674-8.682-19.355-19.356-19.355
				s-19.355,8.681-19.355,19.355v72.581h-9.677v-150h58.065V290.323z M188.71,111.29c0-5.337,4.34-9.677,9.677-9.677
				c5.337,0,9.677,4.34,9.677,9.677v24.194H188.71V111.29z M232.258,290.323h-19.355v-53.226h-9.677v53.226H188.71V227.42h43.548
				V290.323z M232.258,188.71v9.677v19.355H188.71v-72.581h19.355h3.14l21.053,16.844V188.71z M241.935,159.678h13.588v-0.001
				l10.606,4.244v24.789h-24.194V159.678z M270.968,290.323h-9.678v-53.226c0-2.671,2.173-4.839,4.839-4.839
				c2.666,0,4.839,2.168,4.839,4.839V290.323z M290.324,290.323L290.324,290.323h-9.678v-53.226c0-8.003-6.513-14.516-14.516-14.516
				s-14.516,6.513-14.516,14.516v53.226h-9.677v-91.935h24.194v14.516h9.677v-10.81l14.516,8.71V290.323z"/>
			<path d="M193.549,193.548c0,8.003,6.513,14.516,14.516,14.516s14.516-6.513,14.516-14.516c0-8.003-6.513-14.516-14.516-14.516
				S193.549,185.545,193.549,193.548z M212.904,193.548c0,2.671-2.173,4.839-4.839,4.839s-4.839-2.168-4.839-4.839
				s2.173-4.839,4.839-4.839S212.904,190.877,212.904,193.548z"/>
			<rect x="159.677" y="145.161" width="9.677" height="53.226"/>
			<rect x="145.161" y="38.71" width="9.677" height="9.677"/>
			<rect x="145.161" y="72.581" width="9.677" height="9.677"/>
			<rect x="145.161" y="91.935" width="9.677" height="9.677"/>
			<rect x="145.161" y="111.29" width="9.677" height="9.677"/>
		</g>
	</g>
</g>
</svg>