<?xml version="1.0" encoding="iso-8859-1"?>
<!-- Uploaded to: SVG Repo, www.svgrepo.com, Generator: SVG Repo Mixer Tools -->
<svg fill="#000000" height="800px" width="800px" version="1.1" id="Layer_1" xmlns="http://www.w3.org/2000/svg" xmlns:xlink="http://www.w3.org/1999/xlink" 
	 viewBox="0 0 512 512" xml:space="preserve">
<g>
	<g>
		<g>
			<path d="M63.765,136.427C62.699,131.52,58.368,128,53.333,128s-9.365,3.52-10.432,8.427l-32,149.333
				c-0.149,0.747-0.235,1.493-0.235,2.24v213.333c0,5.888,4.779,10.667,10.667,10.667h64C91.221,512,96,507.221,96,501.333V288
				c0-0.747-0.085-1.493-0.235-2.24L63.765,136.427z"/>
			<path d="M501.099,285.76l-32-149.333c-1.067-4.907-5.397-8.427-10.432-8.427s-9.365,3.52-10.432,8.427l-32,149.333
				c-0.149,0.747-0.235,1.493-0.235,2.24v213.333c0,5.888,4.779,10.667,10.667,10.667h64c5.888,0,10.667-4.779,10.667-10.667V288
				C501.333,287.253,501.248,286.507,501.099,285.76z"/>
			<path d="M394.347,141.248l21.333-85.333c0.213-0.853,0.32-1.707,0.32-2.581V10.667C416,4.779,411.221,0,405.333,0h-42.667
				C356.779,0,352,4.779,352,10.667v32h-21.333v-32C330.667,4.779,325.888,0,320,0h-42.667c-5.888,0-10.667,4.779-10.667,10.667v32
				h-21.333v-32C245.333,4.779,240.555,0,234.667,0H192c-5.888,0-10.667,4.779-10.667,10.667v32H160v-32
				C160,4.779,155.221,0,149.333,0h-42.667C100.779,0,96,4.779,96,10.667v42.667c0,0.875,0.107,1.749,0.32,2.581l21.333,85.333
				c1.195,4.757,5.44,8.085,10.347,8.085h10.027l-20.672,351.381c-0.171,2.923,0.875,5.803,2.88,7.957
				C122.24,510.784,125.056,512,128,512h64c5.888,0,10.667-4.779,10.667-10.667V416c0-29.397,23.936-53.333,53.333-53.333
				s53.333,23.936,53.333,53.333v85.333c0,5.888,4.779,10.667,10.667,10.667h64c0.149,0,0.277-0.021,0.427,0
				c5.888,0,10.667-4.779,10.667-10.667c0-1.259-0.213-2.475-0.619-3.584l-20.501-348.416H384
				C388.885,149.333,393.152,146.005,394.347,141.248z M202.667,202.667c0,5.888-4.779,10.667-10.667,10.667
				s-10.667-4.779-10.667-10.667V160c0-5.888,4.779-10.667,10.667-10.667s10.667,4.779,10.667,10.667V202.667z M266.667,202.667
				c0,5.888-4.779,10.667-10.667,10.667c-5.888,0-10.667-4.779-10.667-10.667V160c0-5.888,4.779-10.667,10.667-10.667
				c5.888,0,10.667,4.779,10.667,10.667V202.667z M330.667,202.667c0,5.888-4.779,10.667-10.667,10.667s-10.667-4.779-10.667-10.667
				V160c0-5.888,4.779-10.667,10.667-10.667s10.667,4.779,10.667,10.667V202.667z"/>
		</g>
	</g>
</g>
</svg>