<?xml version="1.0" encoding="iso-8859-1"?>
<!-- Uploaded to: SVG Repo, www.svgrepo.com, Generator: SVG Repo Mixer Tools -->
<!DOCTYPE svg PUBLIC "-//W3C//DTD SVG 1.1//EN" "http://www.w3.org/Graphics/SVG/1.1/DTD/svg11.dtd">
<svg fill="#000000" height="800px" width="800px" version="1.1" id="Capa_1" xmlns="http://www.w3.org/2000/svg" xmlns:xlink="http://www.w3.org/1999/xlink" 
	 viewBox="0 0 512 512" xml:space="preserve">
<g>
	<path d="M256,240c-17.645,0-32,14.355-32,32v56c0,4.418,3.582,8,8,8h48c4.418,0,8-3.582,8-8v-56C288,254.355,273.645,240,256,240z
		 M272,320h-32v-48c0-8.822,7.178-16,16-16s16,7.178,16,16V320z"/>
	<path d="M504,472h-8V312c0-4.418-3.582-8-8-8h-32c-4.418,0-8,3.582-8,8v16h-16v-16c0-4.418-3.582-8-8-8h-32c-4.418,0-8,3.582-8,8
		v16h-16v-16c0-4.418-3.582-8-8-8h-16v-93.685l1.236,1.957c1.522,2.41,4.118,3.729,6.772,3.729c1.46,0,2.938-0.4,4.264-1.237
		c3.735-2.359,4.851-7.3,2.492-11.036L270.515,64H320c2.95,0,5.661-1.624,7.053-4.225s1.24-5.758-0.397-8.212L313.615,32
		l13.042-19.563c1.637-2.455,1.789-5.611,0.397-8.212S322.95,0,320,0h-64c-4.418,0-8,3.582-8,8v45.685l-94.764,150.043
		c-2.359,3.736-1.243,8.677,2.492,11.036c1.326,0.837,2.804,1.237,4.264,1.237c2.654,0,5.25-1.319,6.772-3.729l1.236-1.957V304h-16
		c-4.418,0-8,3.582-8,8v16h-16v-16c0-4.418-3.582-8-8-8H88c-4.418,0-8,3.582-8,8v16H64v-16c0-4.418-3.582-8-8-8H24
		c-4.418,0-8,3.582-8,8v160H8c-4.418,0-8,3.582-8,8s3.582,8,8,8h160v16c0,4.418,3.582,8,8,8h160c4.418,0,8-3.582,8-8v-16h160
		c4.418,0,8-3.582,8-8S508.418,472,504,472z M297.344,36.438L305.052,48H264V16h41.052l-7.708,11.563
		C295.552,30.25,295.552,33.75,297.344,36.438z M255.377,71.969C255.583,71.984,255.79,72,256,72s0.417-0.016,0.623-0.031
		l80.962,128.19C337.073,200.055,336.543,200,336,200h-23.997c-4.418,0-8,3.582-8,8s3.582,8,8,8H328v248h-16v-48
		c0-30.878-25.122-56-56-56s-56,25.122-56,56v48h-16V216h95.998c4.418,0,8-3.582,8-8s-3.582-8-8-8H176
		c-0.543,0-1.073,0.055-1.585,0.158L255.377,71.969z M256,416c-4.418,0-8,3.582-8,8v72h-32v-80c0-19.317,13.764-35.479,32-39.195
		V392c0,4.418,3.582,8,8,8s8-3.582,8-8v-15.195c18.236,3.717,32,19.878,32,39.195v80h-32v-72C264,419.582,260.418,416,256,416z
		 M32,472v-16h88c4.418,0,8-3.582,8-8s-3.582-8-8-8H32V320h16v16c0,4.418,3.582,8,8,8h32c4.418,0,8-3.582,8-8v-16h16v16
		c0,4.418,3.582,8,8,8h32c4.418,0,8-3.582,8-8v-16h8v120h-16c-4.418,0-8,3.582-8,8s3.582,8,8,8h16v16H32z M184,480h16v16h-16V480z
		 M328,496h-16v-16h16V496z M344,456h88c4.418,0,8-3.582,8-8s-3.582-8-8-8h-88V320h8v16c0,4.418,3.582,8,8,8h32c4.418,0,8-3.582,8-8
		v-16h16v16c0,4.418,3.582,8,8,8h32c4.418,0,8-3.582,8-8v-16h16v120h-16c-4.418,0-8,3.582-8,8s3.582,8,8,8h16v16H344V456z"/>
</g>
</svg>