<?xml version="1.0" encoding="iso-8859-1"?>
<!-- Uploaded to: SVG Repo, www.svgrepo.com, Generator: SVG Repo Mixer Tools -->
<!DOCTYPE svg PUBLIC "-//W3C//DTD SVG 1.1//EN" "http://www.w3.org/Graphics/SVG/1.1/DTD/svg11.dtd">
<svg fill="#000000" height="800px" width="800px" version="1.1" id="Capa_1" xmlns="http://www.w3.org/2000/svg" xmlns:xlink="http://www.w3.org/1999/xlink" 
	 viewBox="0 0 512 512" xml:space="preserve">
<g>
	<path d="M333.172,45.397c-36.678-31.074-72.929-44.37-74.454-44.921c-1.756-0.635-3.679-0.635-5.435,0
		c-1.525,0.551-37.776,13.847-74.454,44.921C129.876,86.871,104,140.333,104,200v304c0,4.418,3.582,8,8,8h288c4.418,0,8-3.582,8-8
		V200C408,140.333,382.125,86.871,333.172,45.397z M168.097,192.835C173.211,195.703,184,204.112,184,224v8h-32v-8
		C152,204.515,162.934,195.843,168.097,192.835z M152,304h32v40h-32V304z M200,304h32v40h-32V304z M200,288v-40h32v40H200z M184,288
		h-32v-40h32V288z M152,360h32v40h-32V360z M200,360h32v40h-32V360z M232,232h-32v-8c0-19.485,10.934-28.157,16.097-31.165
		C221.211,195.703,232,204.112,232,224V232z M152,416h32v32h-32V416z M200,416h32v32h-32V416z M232,464v32h-32v-32H232z
		 M218.53,176.411c-1.706-0.566-3.555-0.544-5.247,0.065c-0.773,0.279-12.785,4.808-21.182,17.841
		c-8.46-13.346-20.785-17.644-21.571-17.906c-1.706-0.566-3.555-0.544-5.247,0.065c-0.289,0.104-2.152,0.807-4.801,2.314
		c9.759-15.244,25.243-23.343,31.517-26.14c6.27,2.796,21.674,10.854,31.434,26.003C220.728,177.173,218.823,176.508,218.53,176.411
		z M152,464h32v32h-32V464z M296.097,192.835C301.211,195.703,312,204.112,312,224v8h-32v-8
		C280,204.515,290.934,195.843,296.097,192.835z M360,288h-32v-40h32V288z M360,344h-32v-40h32V344z M312,288h-32v-40h32V288z
		 M312,304v40h-32v-40H312z M312,360v40h-32v-40H312z M328,360h32v40h-32V360z M360,232h-32v-8
		c0-19.485,10.934-28.157,16.097-31.165C349.211,195.703,360,204.112,360,224V232z M280,416h32v32h-32V416z M328,416h32v32h-32V416z
		 M360,464v32h-32v-32H360z M346.53,176.411c-1.706-0.566-3.555-0.544-5.247,0.065c-0.773,0.279-12.785,4.808-21.182,17.841
		c-8.46-13.346-20.785-17.644-21.571-17.906c-1.706-0.566-3.555-0.544-5.247,0.065c-0.289,0.104-2.152,0.807-4.801,2.314
		c9.759-15.244,25.243-23.343,31.517-26.14c6.27,2.796,21.674,10.854,31.434,26.003C348.728,177.173,346.823,176.508,346.53,176.411
		z M280,464h32v32h-32V464z M392,496h-16V208c0-21.507-9.277-40.734-26.829-55.604c-12.95-10.973-25.909-15.724-26.454-15.921
		c-1.756-0.635-3.679-0.635-5.435,0c-0.545,0.197-13.504,4.948-26.454,15.921C273.278,167.266,264,186.494,264,208v288h-16V208
		c0-21.507-9.277-40.734-26.829-55.604c-12.95-10.973-25.909-15.724-26.454-15.921c-1.756-0.635-3.679-0.635-5.435,0
		c-0.545,0.197-13.504,4.948-26.454,15.921C145.278,167.266,136,186.494,136,208v288h-16V200c0-30.466,7.188-59.045,21.364-84.942
		c11.406-20.837,27.357-40.054,47.412-57.118c28.95-24.634,58.319-37.703,67.224-41.345c8.91,3.644,38.276,16.713,67.224,41.345
		c20.054,17.064,36.005,36.281,47.412,57.118C384.812,140.956,392,169.535,392,200V496z"/>
	<path d="M256,40c-30.878,0-56,25.121-56,56s25.122,56,56,56s56-25.121,56-56S286.879,40,256,40z M256,56
		c19.317,0,35.479,13.765,39.195,32h-78.39C220.522,69.765,236.683,56,256,56z M256,136c-19.317,0-35.479-13.765-39.195-32h78.39
		C291.479,122.236,275.317,136,256,136z"/>
	<path d="M176,96c-8.822,0-16,7.178-16,16s7.178,16,16,16s16-7.178,16-16S184.823,96,176,96z"/>
	<path d="M336,96c-8.822,0-16,7.178-16,16s7.178,16,16,16s16-7.178,16-16S344.823,96,336,96z"/>
</g>
</svg>