<?xml version="1.0" encoding="iso-8859-1"?>

<!DOCTYPE svg PUBLIC "-//W3C//DTD SVG 1.1//EN" "http://www.w3.org/Graphics/SVG/1.1/DTD/svg11.dtd">
<!-- Uploaded to: SVG Repo, www.svgrepo.com, Generator: SVG Repo Mixer Tools -->
<svg version="1.1" id="_x34_" xmlns="http://www.w3.org/2000/svg" xmlns:xlink="http://www.w3.org/1999/xlink" 
	 viewBox="0 0 512 512"  xml:space="preserve">
<g>
	<g>
		<g>
			<g>
				<polygon style="fill:#7AC27D;" points="308.546,37.275 317.05,57.613 274.672,57.613 274.672,15.236 317.05,15.236 				"/>
				<rect x="250.933" style="fill:#0E968E;" width="10.205" height="135.565"/>
				<polygon style="fill:#12863B;" points="296.712,0 296.712,42.377 274.672,57.613 274.672,15.236 				"/>
				<rect x="250.933" style="fill:#7AC27D;" width="45.779" height="42.377"/>
			</g>
			<g>
				<rect x="145.202" y="134.927" style="fill:#FFFFFF;" width="221.594" height="217.697"/>
				<polygon style="opacity:0.14;fill:#231815;" points="366.301,91.062 366.301,153.706 145.699,153.706 145.699,91.062 
					185.666,91.062 185.666,116.148 205.934,116.148 205.934,91.062 245.901,91.062 245.901,116.148 266.098,116.148 
					266.098,91.062 306.136,91.062 306.136,116.148 326.334,116.148 326.334,91.062 				"/>
				<polygon style="fill:#EB6C81;" points="366.301,76.393 366.301,138.966 145.699,138.966 145.699,76.393 185.666,76.393 
					185.666,101.408 205.934,101.408 205.934,76.393 245.901,76.393 245.901,101.408 266.098,101.408 266.098,76.393 
					306.136,76.393 306.136,101.408 326.334,101.408 326.334,76.393 				"/>
			</g>
			<rect x="103.47" y="250.938" style="fill:#FFFFFF;" width="305.086" height="191.533"/>
			<path style="fill:#747475;" d="M312.792,382.294v60.176H199.228v-60.176c0-31.353,25.426-56.779,56.788-56.779
				C287.373,325.516,312.792,350.942,312.792,382.294z"/>
			<g>
				<rect x="157.415" y="298.675" style="fill:#747475;" width="27.128" height="31.644"/>
				<rect x="328.612" y="298.675" style="fill:#747475;" width="27.107" height="31.644"/>
			</g>
		</g>
		<polygon style="opacity:0.14;fill:#231815;" points="410.946,277.578 410.946,290.547 400.954,290.547 400.954,442.907 
			389.262,442.907 389.262,290.547 130.604,290.547 130.604,442.481 111.967,442.481 111.967,290.547 101.053,290.547 
			101.053,277.578 111.967,277.578 111.967,229.178 130.604,229.178 130.604,277.578 		"/>
		<polygon style="fill:#EB6C81;" points="410.946,229.178 410.946,277.578 101.053,277.578 101.053,229.178 131.951,229.178 
			131.951,248.524 147.612,248.524 147.612,229.178 178.438,229.178 178.438,248.524 194.099,248.524 194.099,229.178 
			224.926,229.178 224.926,248.524 240.586,248.524 240.586,229.178 271.484,229.178 271.484,248.524 287.074,248.524 
			287.074,229.178 317.971,229.178 317.971,248.524 333.561,248.524 333.561,229.178 364.459,229.178 364.459,248.524 
			380.049,248.524 380.049,229.178 		"/>
		<g>
			<g>
				<rect x="400.954" y="188.218" style="fill:#FFFFFF;" width="98.289" height="264.397"/>
				<rect x="400.954" y="196.721" style="opacity:0.14;fill:#231815;" width="98.289" height="13.535"/>
				<polygon style="fill:#EB6C81;" points="512,148.321 512,196.721 388.128,196.721 388.128,148.321 419.025,148.321 
					419.025,167.667 434.615,167.667 434.615,148.321 465.512,148.321 465.512,167.667 481.174,167.667 481.174,148.321 				"/>
			</g>
		</g>
		<path style="fill:#747475;" d="M470.418,264.738v20.944h-39.536v-20.944c0-10.914,8.851-19.761,19.765-19.761
			C461.553,244.976,470.418,253.824,470.418,264.738z"/>
		<rect x="437.082" y="337.665" style="fill:#747475;" width="27.129" height="31.636"/>
		<g>
			<rect x="12.756" y="188.218" style="fill:#FFFFFF;" width="98.361" height="264.397"/>
			<rect x="12.756" y="196.721" style="opacity:0.14;fill:#231815;" width="98.361" height="13.535"/>
			<polygon style="fill:#EB6C81;" points="123.872,148.321 123.872,196.721 0,196.721 0,148.321 30.897,148.321 30.897,167.667 
				46.487,167.667 46.487,148.321 77.385,148.321 77.385,167.667 92.975,167.667 92.975,148.321 			"/>
		</g>
		<path style="fill:#747475;" d="M78.882,264.738v20.944h-39.53v-20.944c0-10.914,8.848-19.761,19.761-19.761
			C70.03,244.976,78.882,253.824,78.882,264.738z"/>
		<rect x="45.556" y="337.665" style="fill:#747475;" width="27.111" height="31.636"/>
	</g>
	<g>
		<path style="fill:#747475;" d="M275.781,179.99v20.948h-39.536V179.99c0-10.914,8.851-19.765,19.765-19.765
			C266.923,160.225,275.781,169.076,275.781,179.99z"/>
	</g>
</g>
</svg>