<?xml version="1.0" encoding="iso-8859-1"?>
<!-- Uploaded to: SVG Repo, www.svgrepo.com, Generator: SVG Repo Mixer Tools -->
<svg version="1.1" id="Layer_1" xmlns="http://www.w3.org/2000/svg" xmlns:xlink="http://www.w3.org/1999/xlink" 
	 viewBox="0 0 512 512" xml:space="preserve">
<path style="fill:#C39774;" d="M273.626,71.324c-4.479,0-8.108-3.63-8.108-8.108V8.108c0-4.478,3.629-8.108,8.108-8.108
	c4.479,0,8.108,3.63,8.108,8.108v55.108C281.734,67.694,278.104,71.324,273.626,71.324z"/>
<path style="fill:#DE2A4E;" d="M325.371,36.953h-50.267c-0.816,0-1.478-0.662-1.478-1.478V9.586c0-0.816,0.662-1.478,1.478-1.478
	h50.267c0.816,0,1.478,0.662,1.478,1.478v25.888C326.849,36.291,326.188,36.953,325.371,36.953z"/>
<path style="fill:#C7C9C9;" d="M340.141,64.711L209.542,53.285c-6.371-0.557-11.986,4.155-12.544,10.525l-5.172,59.109
	l153.667,13.444l5.172-59.109C351.224,70.885,346.512,65.269,340.141,64.711z"/>
<rect x="258.74" y="41.68" transform="matrix(-0.0872 0.9962 -0.9962 -0.0872 411.4932 -139.4302)" style="opacity:0.05;enable-background:new    ;" width="21.773" height="154.258"/>
<path style="opacity:0.1;enable-background:new    ;" d="M307.594,82.797L307.594,82.797c10.506,0.919,18.277,10.181,17.359,20.687
	l-2.698,30.846l-38.046-3.329l2.698-30.846C287.826,89.649,297.088,81.878,307.594,82.797z"/>
<rect x="293.304" y="102.733" transform="matrix(-0.0872 0.9962 -0.9962 -0.0872 452.0823 -170.578)" style="opacity:0.1;enable-background:new    ;" width="21.773" height="38.194"/>
<path style="opacity:0.1;enable-background:new    ;" d="M238.454,76.748L238.454,76.748c-10.506-0.919-19.768,6.853-20.687,17.359
	l-2.698,30.846l38.046,3.329l2.698-30.846C256.732,86.929,248.96,77.668,238.454,76.748z"/>
<rect x="224.165" y="96.679" transform="matrix(-0.0872 0.9962 -0.9962 -0.0872 370.8826 -108.2843)" style="opacity:0.1;enable-background:new    ;" width="21.773" height="38.194"/>
<path style="fill:#C7C9C9;" d="M365.098,138.078l-192.875-16.874L138.457,507.15c-0.228,2.608,1.827,4.85,4.444,4.85h185.395
	c2.313,0,4.242-1.768,4.444-4.072L365.098,138.078z"/>
<rect x="144.883" y="430.145" transform="matrix(-0.9962 -0.0872 0.0872 -0.9962 444.2937 894.6786)" style="opacity:0.15;enable-background:new    ;" width="193.609" height="14.981"/>
<g>
	<path style="fill:#93999D;" d="M240.315,461.862c-0.237,0-0.476-0.011-0.717-0.031c-4.46-0.39-7.761-4.323-7.371-8.784
		l2.064-23.587c0.39-4.46,4.313-7.756,8.785-7.371c4.46,0.39,7.761,4.323,7.371,8.784l-2.064,23.587
		C248.013,458.68,244.473,461.862,240.315,461.862z"/>
	<path style="fill:#93999D;" d="M206.764,458.926c-0.237,0-0.476-0.011-0.717-0.031c-4.46-0.39-7.761-4.323-7.371-8.784
		l2.064-23.587c0.39-4.462,4.32-7.757,8.785-7.371c4.46,0.39,7.761,4.323,7.371,8.784l-2.064,23.587
		C214.462,455.745,210.922,458.926,206.764,458.926z"/>
	<path style="fill:#93999D;" d="M173.213,455.991c-0.237,0-0.476-0.011-0.717-0.031c-4.46-0.39-7.761-4.323-7.371-8.784
		l2.064-23.587c0.39-4.462,4.316-7.759,8.785-7.371c4.46,0.39,7.761,4.323,7.371,8.785l-2.064,23.587
		C180.912,452.81,177.371,455.991,173.213,455.991z"/>
	<path style="fill:#93999D;" d="M273.866,464.797c-0.238,0-0.475-0.011-0.716-0.031c-4.462-0.39-7.761-4.323-7.371-8.784
		l2.063-23.587c0.39-4.462,4.332-7.749,8.784-7.371c4.462,0.39,7.761,4.323,7.371,8.784l-2.063,23.587
		C281.564,461.616,278.024,464.797,273.866,464.797z"/>
	<path style="fill:#93999D;" d="M307.416,467.733c-0.238,0-0.475-0.011-0.716-0.031c-4.462-0.39-7.761-4.323-7.371-8.784
		l2.063-23.587c0.39-4.463,4.327-7.753,8.784-7.371c4.462,0.39,7.761,4.323,7.371,8.784l-2.063,23.587
		C315.115,464.551,311.575,467.733,307.416,467.733z"/>
</g>
<path style="opacity:0.07;enable-background:new    ;" d="M243.076,422.089c-4.47-0.386-8.393,2.909-8.785,7.371l-1.306,14.925
	l16.154,1.413l1.306-14.925C250.836,426.412,247.536,422.48,243.076,422.089z M175.974,416.219
	c-4.468-0.388-8.394,2.909-8.785,7.371l-1.306,14.924l16.154,1.413l1.306-14.924C183.734,420.542,180.435,416.609,175.974,416.219z
	 M209.525,419.154c-4.465-0.386-8.394,2.909-8.785,7.371l-1.306,14.925l16.154,1.413l1.306-14.925
	C217.286,423.477,213.986,419.544,209.525,419.154z M276.626,425.024c-4.452-0.378-8.393,2.909-8.784,7.371l-1.305,14.924
	l16.154,1.413l1.305-14.925C284.385,429.348,281.087,425.416,276.626,425.024z M310.176,427.961
	c-4.456-0.383-8.393,2.909-8.784,7.371l-1.305,14.924l16.154,1.413l1.305-14.925C317.937,432.283,314.638,428.351,310.176,427.961z"
	/>
<path style="fill:#6A7379;" d="M353.208,417.542l-217.801-19.055c-4.212-0.369-7.925,2.747-8.294,6.959l-0.603,6.899
	c-0.369,4.212,2.747,7.925,6.959,8.294l217.801,19.055c4.212,0.369,7.925-2.747,8.294-6.959l0.603-6.899
	C360.535,421.623,357.42,417.91,353.208,417.542z"/>
<rect x="151.223" y="357.79" transform="matrix(-0.9962 -0.0872 0.0872 -0.9962 463.2575 750.7969)" style="opacity:0.15;enable-background:new    ;" width="193.609" height="14.981"/>
<g>
	<path style="fill:#93999D;" d="M246.646,389.499c-0.237,0-0.476-0.011-0.717-0.031c-4.46-0.39-7.761-4.323-7.371-8.785
		l2.064-23.587c0.39-4.46,4.316-7.759,8.785-7.371c4.46,0.39,7.761,4.323,7.371,8.785l-2.064,23.587
		C254.344,386.318,250.803,389.499,246.646,389.499z"/>
	<path style="fill:#93999D;" d="M213.095,386.565c-0.237,0-0.476-0.011-0.717-0.031c-4.46-0.39-7.761-4.323-7.371-8.785
		l2.064-23.587c0.39-4.46,4.312-7.76,8.785-7.371c4.46,0.39,7.761,4.323,7.371,8.784l-2.064,23.587
		C220.793,383.383,217.253,386.565,213.095,386.565z"/>
	<path style="fill:#93999D;" d="M179.544,383.628c-0.237,0-0.476-0.011-0.717-0.031c-4.46-0.39-7.761-4.323-7.371-8.784
		l2.064-23.587c0.39-4.46,4.318-7.751,8.784-7.371c4.46,0.39,7.761,4.323,7.371,8.784l-2.064,23.587
		C187.243,380.447,183.703,383.628,179.544,383.628z"/>
	<path style="fill:#93999D;" d="M280.196,392.435c-0.238,0-0.475-0.011-0.716-0.031c-4.462-0.39-7.761-4.323-7.371-8.784
		l2.063-23.587c0.39-4.462,4.332-7.756,8.784-7.371c4.462,0.39,7.761,4.322,7.371,8.784l-2.063,23.587
		C287.896,389.253,284.355,392.435,280.196,392.435z"/>
	<path style="fill:#93999D;" d="M313.747,395.37c-0.238,0-0.476-0.011-0.716-0.031c-4.462-0.39-7.762-4.323-7.371-8.785
		l2.064-23.587c0.39-4.462,4.347-7.75,8.784-7.371c4.462,0.39,7.762,4.323,7.371,8.784l-2.064,23.587
		C321.445,392.188,317.905,395.37,313.747,395.37z"/>
</g>
<path style="opacity:0.07;enable-background:new    ;" d="M249.407,349.726c-4.47-0.385-8.393,2.909-8.785,7.371l-1.306,14.925
	l16.154,1.413l1.306-14.924C257.168,354.051,253.867,350.118,249.407,349.726z M182.305,343.856
	c-4.468-0.388-8.394,2.909-8.784,7.371l-1.306,14.924l16.154,1.413l1.306-14.924C190.066,348.179,186.766,344.247,182.305,343.856z
	 M215.856,346.791c-4.465-0.386-8.394,2.909-8.785,7.371l-1.306,14.925l16.154,1.413l1.306-14.925
	C223.617,351.114,220.316,347.181,215.856,346.791z M282.956,352.662c-4.452-0.378-8.393,2.909-8.784,7.371l-1.305,14.924
	l16.154,1.413l1.305-14.925C290.717,356.985,287.418,353.053,282.956,352.662z M316.507,355.598
	c-4.456-0.383-8.393,2.909-8.784,7.371l-1.305,14.924l16.154,1.413l1.305-14.925C324.268,359.921,320.968,355.988,316.507,355.598z"
	/>
<path style="fill:#6A7379;" d="M359.539,345.179l-217.801-19.055c-4.212-0.369-7.925,2.747-8.294,6.959l-0.603,6.899
	c-0.369,4.212,2.747,7.925,6.959,8.294L357.6,367.331c4.212,0.369,7.925-2.747,8.294-6.959l0.603-6.899
	C366.866,349.261,363.75,345.548,359.539,345.179z"/>
<rect x="157.563" y="285.424" transform="matrix(-0.9962 -0.0872 0.0872 -0.9962 482.2242 606.8939)" style="opacity:0.15;enable-background:new    ;" width="193.609" height="14.981"/>
<g>
	<path style="fill:#93999D;" d="M252.976,317.137c-0.237,0-0.476-0.011-0.717-0.031c-4.46-0.39-7.761-4.323-7.371-8.785
		l2.064-23.587c0.39-4.462,4.318-7.752,8.785-7.371c4.46,0.39,7.76,4.323,7.371,8.784l-2.064,23.587
		C260.676,313.956,257.134,317.137,252.976,317.137z"/>
	<path style="fill:#93999D;" d="M219.426,314.202c-0.237,0-0.476-0.011-0.717-0.031c-4.46-0.39-7.761-4.323-7.371-8.785
		l2.064-23.587c0.39-4.46,4.323-7.753,8.784-7.371c4.46,0.39,7.761,4.323,7.371,8.785l-2.064,23.587
		C227.124,311.02,223.583,314.202,219.426,314.202z"/>
	<path style="fill:#93999D;" d="M185.875,311.267c-0.237,0-0.476-0.011-0.717-0.031c-4.46-0.39-7.761-4.323-7.371-8.785
		l2.064-23.587c0.39-4.46,4.32-7.754,8.784-7.371c4.46,0.39,7.761,4.323,7.371,8.785l-2.064,23.587
		C193.574,308.085,190.034,311.267,185.875,311.267z"/>
	<path style="fill:#93999D;" d="M286.527,320.073c-0.238,0-0.476-0.011-0.716-0.031c-4.462-0.39-7.762-4.323-7.371-8.785
		l2.064-23.587c0.39-4.46,4.349-7.751,8.784-7.371c4.462,0.39,7.762,4.323,7.371,8.784l-2.064,23.587
		C294.225,316.891,290.686,320.073,286.527,320.073z"/>
	<path style="fill:#93999D;" d="M320.078,323.008c-0.238,0-0.476-0.011-0.716-0.031c-4.462-0.39-7.762-4.323-7.371-8.784
		l2.064-23.587c0.39-4.462,4.346-7.756,8.784-7.371c4.462,0.39,7.762,4.323,7.371,8.785l-2.064,23.587
		C327.776,319.826,324.237,323.008,320.078,323.008z"/>
</g>
<path style="opacity:0.07;enable-background:new    ;" d="M255.737,277.364c-4.47-0.385-8.393,2.909-8.785,7.371l-1.306,14.925
	l16.154,1.413l1.306-14.924C263.498,281.688,260.198,277.755,255.737,277.364z M188.636,271.494
	c-4.468-0.388-8.394,2.909-8.784,7.371l-1.306,14.924l16.154,1.413l1.306-14.924C196.397,275.817,193.096,271.885,188.636,271.494z
	 M222.187,274.429c-4.465-0.386-8.394,2.909-8.784,7.371l-1.306,14.925l16.154,1.413l1.306-14.925
	C229.947,278.753,226.647,274.82,222.187,274.429z M289.287,280.3c-4.452-0.378-8.393,2.909-8.784,7.371l-1.305,14.924l16.154,1.413
	l1.305-14.925C297.048,284.623,293.748,280.691,289.287,280.3z M322.838,283.236c-4.456-0.383-8.393,2.909-8.784,7.371
	l-1.305,14.924l16.154,1.413l1.305-14.925C330.599,287.558,327.299,283.626,322.838,283.236z"/>
<path style="fill:#6A7379;" d="M365.869,272.818l-217.801-19.055c-4.212-0.369-7.925,2.747-8.294,6.959l-0.603,6.899
	c-0.369,4.212,2.747,7.925,6.959,8.294l217.801,19.055c4.212,0.369,7.925-2.747,8.294-6.959l0.603-6.899
	C373.197,276.9,370.081,273.186,365.869,272.818z"/>
<rect x="163.89" y="213.068" transform="matrix(-0.9962 -0.0872 0.0872 -0.9962 501.1624 463.0092)" style="opacity:0.15;enable-background:new    ;" width="193.609" height="14.981"/>
<g>
	<path style="fill:#93999D;" d="M259.307,244.775c-0.238,0-0.476-0.011-0.716-0.031c-4.462-0.39-7.761-4.323-7.371-8.785
		l2.064-23.587c0.39-4.462,4.352-7.752,8.784-7.371c4.462,0.39,7.762,4.323,7.371,8.784l-2.064,23.587
		C267.005,241.593,263.466,244.775,259.307,244.775z"/>
	<path style="fill:#93999D;" d="M225.757,241.84c-0.237,0-0.476-0.011-0.717-0.031c-4.46-0.39-7.761-4.323-7.371-8.785l2.064-23.587
		c0.39-4.46,4.317-7.757,8.785-7.371c4.46,0.39,7.761,4.323,7.371,8.785l-2.064,23.587
		C233.456,238.658,229.915,241.84,225.757,241.84z"/>
	<path style="fill:#93999D;" d="M192.206,238.905c-0.237,0-0.476-0.011-0.717-0.031c-4.46-0.39-7.761-4.323-7.371-8.785
		l2.064-23.587c0.39-4.462,4.322-7.758,8.784-7.371c4.46,0.39,7.761,4.323,7.371,8.785l-2.064,23.587
		C199.904,235.723,196.364,238.905,192.206,238.905z"/>
	<path style="fill:#93999D;" d="M292.858,247.71c-0.238,0-0.476-0.011-0.716-0.031c-4.462-0.39-7.762-4.323-7.371-8.785
		l2.064-23.587c0.39-4.462,4.348-7.747,8.784-7.371c4.462,0.39,7.762,4.323,7.371,8.784l-2.064,23.587
		C300.556,244.528,297.017,247.71,292.858,247.71z"/>
	<path style="fill:#93999D;" d="M326.409,250.646c-0.238,0-0.476-0.011-0.716-0.031c-4.462-0.39-7.761-4.323-7.371-8.784
		l2.063-23.587c0.39-4.462,4.326-7.752,8.784-7.371c4.462,0.39,7.761,4.323,7.371,8.784l-2.063,23.587
		C334.108,247.464,330.567,250.646,326.409,250.646z"/>
</g>
<path style="opacity:0.07;enable-background:new    ;" d="M262.068,205.003c-4.47-0.386-8.393,2.909-8.785,7.371l-1.306,14.925
	l16.154,1.413l1.306-14.924C269.829,209.326,266.528,205.393,262.068,205.003z M194.968,199.132
	c-4.468-0.388-8.394,2.909-8.784,7.371l-1.306,14.924l16.154,1.413l1.306-14.924C202.727,203.456,199.428,199.523,194.968,199.132z
	 M228.518,202.066c-4.465-0.386-8.394,2.909-8.784,7.371l-1.306,14.925l16.154,1.413l1.306-14.925
	C236.278,206.391,232.979,202.458,228.518,202.066z M295.619,207.938c-4.452-0.378-8.393,2.909-8.784,7.371l-1.305,14.924
	l16.154,1.413l1.305-14.925C303.379,212.261,300.08,208.329,295.619,207.938z M329.169,210.873
	c-4.456-0.383-8.393,2.909-8.784,7.371l-1.305,14.924l16.154,1.413l1.305-14.925C336.929,215.196,333.631,211.264,329.169,210.873z"
	/>
<path style="fill:#6A7379;" d="M372.2,200.456l-217.801-19.055c-4.212-0.369-7.925,2.747-8.294,6.959l-0.603,6.899
	c-0.369,4.212,2.747,7.925,6.959,8.294l217.801,19.055c4.212,0.369,7.925-2.747,8.294-6.959l0.603-6.899
	C379.527,204.537,376.412,200.824,372.2,200.456z"/>
<rect x="170.228" y="140.699" transform="matrix(-0.9962 -0.0872 0.0872 -0.9962 520.1251 319.0994)" style="opacity:0.15;enable-background:new    ;" width="193.609" height="14.981"/>
<g>
	<path style="fill:#93999D;" d="M265.639,172.413c-0.238,0-0.476-0.011-0.716-0.031c-4.462-0.39-7.762-4.323-7.371-8.785
		l2.064-23.587c0.39-4.46,4.352-7.749,8.784-7.371c4.462,0.39,7.762,4.323,7.371,8.784l-2.064,23.587
		C273.337,169.231,269.796,172.413,265.639,172.413z"/>
	<path style="fill:#93999D;" d="M232.088,169.478c-0.237,0-0.476-0.011-0.717-0.031c-4.46-0.39-7.761-4.323-7.371-8.785
		l2.064-23.587c0.39-4.462,4.327-7.76,8.784-7.371c4.46,0.39,7.761,4.323,7.371,8.784l-2.064,23.587
		C239.786,166.296,236.246,169.478,232.088,169.478z"/>
	<path style="fill:#93999D;" d="M198.537,166.542c-0.237,0-0.476-0.011-0.717-0.031c-4.46-0.39-7.761-4.323-7.371-8.785
		l2.064-23.587c0.39-4.46,4.314-7.751,8.784-7.371c4.46,0.39,7.761,4.323,7.371,8.785l-2.064,23.587
		C206.236,163.36,202.695,166.542,198.537,166.542z"/>
	<path style="fill:#93999D;" d="M299.189,175.348c-0.238,0-0.475-0.011-0.716-0.031c-4.462-0.39-7.761-4.323-7.371-8.784
		l2.063-23.587c0.39-4.462,4.33-7.754,8.784-7.371c4.462,0.39,7.761,4.323,7.371,8.784l-2.063,23.587
		C306.888,172.166,303.348,175.348,299.189,175.348z"/>
	<path style="fill:#93999D;" d="M332.739,178.283c-0.238,0-0.477-0.011-0.716-0.031c-4.462-0.39-7.762-4.323-7.371-8.784
		l2.064-23.587c0.39-4.46,4.345-7.749,8.784-7.371c4.462,0.39,7.762,4.323,7.371,8.785l-2.064,23.587
		C340.437,175.102,336.898,178.283,332.739,178.283z"/>
</g>
<path style="opacity:0.07;enable-background:new    ;" d="M268.399,132.64c-4.47-0.385-8.393,2.91-8.785,7.371l-1.306,14.925
	l16.154,1.413l1.306-14.925C276.16,136.963,272.859,133.031,268.399,132.64z M201.298,126.769c-4.468-0.388-8.394,2.909-8.784,7.371
	l-1.306,14.924l16.154,1.413l1.306-14.924C209.058,131.093,205.759,127.161,201.298,126.769z M234.849,129.705
	c-4.465-0.386-8.394,2.909-8.784,7.371L224.76,152l16.154,1.413l1.306-14.925C242.609,134.028,239.309,130.095,234.849,129.705z
	 M301.949,135.576c-4.452-0.378-8.393,2.909-8.784,7.371l-1.305,14.924l16.154,1.413l1.305-14.925
	C309.709,139.898,306.411,135.966,301.949,135.576z M335.5,138.511c-4.456-0.383-8.393,2.909-8.784,7.371l-1.305,14.924
	l16.154,1.413l1.305-14.925C343.26,142.834,339.962,138.901,335.5,138.511z"/>
<path style="fill:#6A7379;" d="M378.532,128.093L160.73,109.038c-4.212-0.369-7.925,2.747-8.294,6.959l-0.603,6.899
	c-0.369,4.212,2.747,7.925,6.959,8.294l217.801,19.055c4.212,0.369,7.925-2.747,8.294-6.959l0.603-6.899
	C385.859,132.175,382.744,128.461,378.532,128.093z"/>
</svg>