<?xml version="1.0" encoding="iso-8859-1"?>
<!-- Uploaded to: SVG Repo, www.svgrepo.com, Generator: SVG Repo Mixer Tools -->
<!DOCTYPE svg PUBLIC "-//W3C//DTD SVG 1.1//EN" "http://www.w3.org/Graphics/SVG/1.1/DTD/svg11.dtd">
<svg fill="#000000" version="1.1" id="Capa_1" xmlns="http://www.w3.org/2000/svg" xmlns:xlink="http://www.w3.org/1999/xlink" 
	 width="800px" height="800px" viewBox="0 0 45.002 45.002"
	 xml:space="preserve">
<g>
	<g>
		<g>
			<path d="M18.33,25.169h-2.308c-0.304,0-0.549,0.242-0.549,0.547v13.343c0,0.305,0.245,0.547,0.549,0.547h2.308
				c0.304,0,0.549-0.242,0.549-0.547V25.716C18.879,25.412,18.634,25.169,18.33,25.169z"/>
			<path d="M28.977,25.169H26.67c-0.304,0-0.551,0.242-0.551,0.547v13.343c0,0.305,0.247,0.547,0.551,0.547h2.307
				c0.304,0,0.552-0.242,0.552-0.547V25.716C29.525,25.412,29.279,25.169,28.977,25.169z"/>
			<path d="M44.576,10.615L22.627,5.407c-0.083-0.019-0.171-0.019-0.254,0L0.422,10.615C0.175,10.673,0,10.893,0,11.147v1.316
				c0,0.304,0.245,0.547,0.549,0.547h0.769v26.048c0,0.305,0.245,0.547,0.549,0.547h5.819c0.304,0,0.549-0.242,0.549-0.547V22.101
				c-0.001-0.021-0.076-2.054,1.095-3.274c0.595-0.621,1.433-0.937,2.519-0.937l0,0c1.078,0.005,1.931,0.332,2.536,0.964
				c1.165,1.224,1.091,3.226,1.09,3.271v0.714H14.98c-0.077,0-0.137,0.06-0.137,0.137v1.098c0,0.072,0.06,0.138,0.137,0.138h4.391
				c0.075,0,0.137-0.063,0.137-0.138v-1.098c0-0.077-0.062-0.137-0.137-0.137h-0.492v-0.737c-0.001-0.021-0.083-2.037,1.091-3.267
				c0.596-0.627,1.435-0.943,2.525-0.943l0,0c1.076,0.005,1.93,0.332,2.534,0.964c1.164,1.224,1.091,3.226,1.09,3.271v0.714h-0.492
				c-0.077,0-0.137,0.06-0.137,0.137v1.098c0,0.072,0.06,0.138,0.137,0.138h4.391c0.078,0,0.138-0.063,0.138-0.138v-1.098
				c0-0.077-0.06-0.137-0.138-0.137h-0.491v-0.736c0-0.021-0.074-2.054,1.096-3.273c0.594-0.622,1.432-0.938,2.521-0.938
				c1.078,0.005,1.932,0.332,2.534,0.964c1.162,1.224,1.093,3.226,1.093,3.271v16.933c0,0.305,0.242,0.547,0.548,0.547h5.819
				c0.299,0,0.547-0.242,0.547-0.547V13.014h0.771c0.3,0,0.547-0.243,0.547-0.547v-1.316C45,10.893,44.825,10.672,44.576,10.615z
				 M6.012,31.083c0,0.076-0.062,0.137-0.139,0.137H3.678c-0.075,0-0.137-0.061-0.137-0.137v-5.652c0-0.032,0.012-0.063,0.032-0.086
				l1.095-1.359c0.053-0.064,0.162-0.066,0.214,0l1.099,1.359c0.02,0.021,0.032,0.054,0.032,0.086L6.012,31.083L6.012,31.083z
				 M41.457,31.083c0,0.076-0.061,0.137-0.137,0.137h-2.195c-0.073,0-0.137-0.061-0.137-0.137v-5.652c0-0.032,0.01-0.063,0.03-0.086
				l1.098-1.359c0.053-0.064,0.161-0.066,0.215,0l1.099,1.359c0.02,0.021,0.027,0.054,0.027,0.086V31.083z"/>
		</g>
	</g>
</g>
</svg>