<?xml version="1.0" encoding="iso-8859-1"?>
<!-- Uploaded to: SVG Repo, www.svgrepo.com, Generator: SVG Repo Mixer Tools -->
<!DOCTYPE svg PUBLIC "-//W3C//DTD SVG 1.1//EN" "http://www.w3.org/Graphics/SVG/1.1/DTD/svg11.dtd">
<svg fill="#000000" height="800px" width="800px" version="1.1" id="Capa_1" xmlns="http://www.w3.org/2000/svg" xmlns:xlink="http://www.w3.org/1999/xlink" 
	 viewBox="0 0 512 512" xml:space="preserve">
<g>
	<path d="M272,64c-4.418,0-8,3.582-8,8c0,4.411-3.589,8-8,8s-8-3.589-8-8s3.589-8,8-8c4.418,0,8-3.582,8-8s-3.582-8-8-8
		c-13.234,0-24,10.767-24,24s10.766,24,24,24s24-10.767,24-24C280,67.582,276.418,64,272,64z"/>
	<path d="M272,432c-4.418,0-8,3.582-8,8c0,4.411-3.589,8-8,8s-8-3.589-8-8s3.589-8,8-8c4.418,0,8-3.582,8-8s-3.582-8-8-8
		c-13.234,0-24,10.767-24,24s10.766,24,24,24s24-10.767,24-24C280,435.582,276.418,432,272,432z"/>
	<path d="M479.328,216.673C475.875,198.104,459.554,184,440,184c-19.316,0-35.479,13.765-39.196,32H296V111.196
		c18.235-3.717,32-19.88,32-39.196c0-19.554-14.104-35.875-32.672-39.327C291.875,14.104,275.554,0,256,0
		s-35.875,14.104-39.328,32.673C198.104,36.125,184,52.446,184,72c0,19.316,13.765,35.479,32,39.196V216H111.196
		c-3.717-18.235-19.88-32-39.196-32c-19.554,0-35.875,14.104-39.328,32.673C14.104,220.125,0,236.446,0,256
		s14.104,35.875,32.672,39.327C36.125,313.896,52.446,328,72,328c19.316,0,35.479-13.765,39.196-32H216v104.804
		c-18.235,3.717-32,19.88-32,39.196c0,19.554,14.104,35.875,32.672,39.327C220.125,497.896,236.446,512,256,512
		s35.875-14.104,39.328-32.673C313.896,475.875,328,459.554,328,440c0-19.316-13.765-35.479-32-39.196V296h104.804
		c3.717,18.235,19.88,32,39.196,32c19.554,0,35.875-14.104,39.328-32.673C497.896,291.875,512,275.554,512,256
		S497.896,220.125,479.328,216.673z M472,280c-4.418,0-8,3.582-8,8c0,13.233-10.766,24-24,24s-24-10.767-24-24c0-4.418-3.582-8-8-8
		H288c-4.418,0-8,3.582-8,8v120c0,4.418,3.582,8,8,8c13.234,0,24,10.767,24,24s-10.766,24-24,24c-4.418,0-8,3.582-8,8
		c0,13.233-10.766,24-24,24s-24-10.767-24-24c0-4.418-3.582-8-8-8c-13.234,0-24-10.767-24-24s10.766-24,24-24c4.418,0,8-3.582,8-8
		V288c0-4.418-3.582-8-8-8H104c-4.418,0-8,3.582-8,8c0,13.233-10.766,24-24,24s-24-10.767-24-24c0-4.418-3.582-8-8-8
		c-13.234,0-24-10.767-24-24s10.766-24,24-24c4.418,0,8-3.582,8-8c0-13.233,10.766-24,24-24s24,10.767,24,24c0,4.418,3.582,8,8,8
		h120c4.418,0,8-3.582,8-8V104c0-4.418-3.582-8-8-8c-13.234,0-24-10.767-24-24s10.766-24,24-24c4.418,0,8-3.582,8-8
		c0-13.233,10.766-24,24-24s24,10.767,24,24c0,4.418,3.582,8,8,8c13.234,0,24,10.767,24,24s-10.766,24-24,24c-4.418,0-8,3.582-8,8
		v120c0,4.418,3.582,8,8,8h120c4.418,0,8-3.582,8-8c0-13.233,10.766-24,24-24s24,10.767,24,24c0,4.418,3.582,8,8,8
		c13.234,0,24,10.767,24,24S485.234,280,472,280z"/>
	<path d="M88,248c-4.418,0-8,3.582-8,8c0,4.411-3.589,8-8,8s-8-3.589-8-8s3.589-8,8-8c4.418,0,8-3.582,8-8s-3.582-8-8-8
		c-13.234,0-24,10.767-24,24s10.766,24,24,24s24-10.767,24-24C96,251.582,92.418,248,88,248z"/>
	<path d="M456,248c-4.418,0-8,3.582-8,8c0,4.411-3.589,8-8,8s-8-3.589-8-8s3.589-8,8-8c4.418,0,8-3.582,8-8s-3.582-8-8-8
		c-13.234,0-24,10.767-24,24s10.766,24,24,24s24-10.767,24-24C464,251.582,460.418,248,456,248z"/>
</g>
</svg>