<?xml version="1.0" encoding="iso-8859-1"?>
<!-- Uploaded to: SVG Repo, www.svgrepo.com, Generator: SVG Repo Mixer Tools -->
<svg fill="#000000" version="1.1" id="Layer_1" xmlns="http://www.w3.org/2000/svg" xmlns:xlink="http://www.w3.org/1999/xlink" 
	 viewBox="0 0 300 300" xml:space="preserve">
<g>
	<g>
		<g>
			<rect x="67.742" y="101.613" width="9.677" height="14.516"/>
			<rect x="87.097" y="101.613" width="9.677" height="14.516"/>
			<rect x="77.419" y="62.903" width="9.677" height="9.677"/>
			<rect x="203.226" y="101.613" width="9.677" height="14.516"/>
			<rect x="222.581" y="101.613" width="9.677" height="14.516"/>
			<rect x="212.903" y="62.903" width="9.677" height="9.677"/>
			<rect x="145.161" y="198.387" width="9.677" height="9.677"/>
			<rect x="125.806" y="198.387" width="9.677" height="9.677"/>
			<rect x="164.516" y="198.387" width="9.677" height="9.677"/>
			<path d="M125.806,164.517c0,13.341,10.854,24.193,24.194,24.193c13.34,0,24.194-10.853,24.194-24.194S163.34,140.323,150,140.323
				C136.66,140.323,125.806,151.176,125.806,164.517z M164.516,164.516c0,8.003-6.513,14.516-14.516,14.516
				s-14.516-6.513-14.516-14.516S141.997,150,150,150S164.516,156.513,164.516,164.516z"/>
			<rect x="145.161" y="125.806" width="9.677" height="9.677"/>
			<rect x="77.419" y="159.677" width="9.677" height="9.677"/>
			<rect x="212.903" y="159.677" width="9.677" height="9.677"/>
			<path d="M251.613,290.323V125.806h-4.839V91.935h4.839l2.69-8.86c-0.131-0.092-13.219-8.99-17.453-21.702
				c-5.748-17.25-13.215-47.898-14.269-52.273V0h-9.677v9.102c-1.055,4.374-8.516,35.018-14.269,52.273
				c-4.234,12.711-17.323,21.615-17.453,21.702l2.69,8.86h4.839v33.871h-4.839v7.674L154.84,104.45V91.935h-9.677v12.513
				l-29.032,29.032v-7.674h-4.839V91.935h4.839l2.69-8.86c-0.131-0.092-13.219-8.99-17.453-21.702
				C95.62,44.123,88.153,13.475,87.099,9.1V0h-9.677v9.102c-1.055,4.374-8.516,35.018-14.269,52.273
				C58.919,74.086,45.83,82.99,45.7,83.077l2.69,8.86h4.839v33.871H48.39v164.516H0V300h67.742h29.032h106.452h29.032H300v-9.677
				H251.613z M72.334,64.432c3.29-9.876,7.045-23.681,9.924-34.815c2.884,11.139,6.634,24.939,9.924,34.815
				c2.41,7.224,6.881,13.302,11.105,17.826H61.229C65.453,77.734,69.924,71.656,72.334,64.432z M101.613,91.935v33.871h-38.71
				V91.935H101.613z M87.097,290.323h-9.678v-38.71c0-2.671,2.173-4.839,4.839-4.839s4.839,2.168,4.839,4.839V290.323z
				 M106.452,290.323h-9.677v-38.71c-0.001-8.003-6.514-14.516-14.517-14.516s-14.516,6.513-14.516,14.516v38.71h-9.677V227.42
				h48.387V290.323z M106.452,217.742H58.065v-19.355h48.387V217.742z M72.581,188.71v-29.032c0-5.337,4.34-9.677,9.677-9.677
				c5.337,0,9.677,4.34,9.677,9.677v29.032H72.581z M106.452,188.71h-4.839v-29.032c0-10.674-8.681-19.355-19.355-19.355
				c-10.674,0-19.355,8.681-19.355,19.355v29.032h-4.839v-53.226h48.388V188.71z M125.806,290.323h-9.677v-24.194h9.677V290.323z
				 M164.518,290.323h-29.032v-24.194h4.837v-9.677h-3.948c2.003-5.618,7.326-9.677,13.626-9.677c6.3,0,11.623,4.06,13.626,9.677
				h-3.948v9.677h4.839V290.323z M183.871,290.323h-9.677v-24.194h9.677V290.323z M183.871,256.452h-10.166
				c-2.25-11.027-12.019-19.355-23.705-19.355c-11.685,0-21.455,8.327-23.705,19.355h-10.166V227.42h67.742V256.452z
				 M183.871,217.742h-67.742v-70.577L150,113.294l33.871,33.871V217.742z M207.818,64.432c3.29-9.876,7.045-23.681,9.924-34.815
				c2.884,11.139,6.634,24.939,9.924,34.815c2.41,7.224,6.881,13.302,11.105,17.826h-42.058
				C200.937,77.734,205.408,71.656,207.818,64.432z M237.097,91.935v33.871h-38.71V91.935H237.097z M193.547,135.484h48.388v53.226
				h-4.839v-29.032c0-10.674-8.681-19.355-19.355-19.355c-10.674,0-19.355,8.681-19.355,19.355v29.032h-4.839V135.484z
				 M227.418,188.71h-19.354v-29.032c0-5.337,4.34-9.677,9.677-9.677c5.337,0,9.677,4.34,9.677,9.677V188.71z M193.548,198.387
				h48.387v19.355h-48.387V198.387z M222.581,290.323h-9.678v-38.71c0-2.671,2.173-4.839,4.839-4.839s4.839,2.168,4.839,4.839
				V290.323z M241.936,290.323h-9.677v-38.71c-0.001-8.003-6.514-14.516-14.517-14.516s-14.516,6.513-14.516,14.516v38.71h-9.677
				V227.42h48.387V290.323z"/>
		</g>
	</g>
</g>
</svg>