<?xml version="1.0" encoding="iso-8859-1"?>
<!-- Uploaded to: SVG Repo, www.svgrepo.com, Generator: SVG Repo Mixer Tools -->
<svg fill="#000000" version="1.1" id="Layer_1" xmlns="http://www.w3.org/2000/svg" xmlns:xlink="http://www.w3.org/1999/xlink" 
	 viewBox="0 0 290.626 290.626" xml:space="preserve">
<g>
	<g>
		<g>
			<path d="M248.438,210.938L248.438,210.938h9.376v-9.375h-9.375v-93.75h9.375v-9.375h-18.75v-75h4.688v-9.375h-14.063V0h-9.375
				v14.063h-60.938v9.375h4.688v75h-14.063V46.875h-9.375v51.563h-14.063v-75h4.688v-9.375H70.313V0h-9.375v14.063H46.876v9.375
				h4.688v75h-18.75v9.375h9.375v93.75h-9.375v9.375h9.375v70.313H0.001v9.375h271.875v-9.375h-23.438V210.938z M126.563,107.813
				h37.5v37.5h-4.687v-28.125h-9.375v28.125h-9.375v-28.125h-9.375v28.125h-4.688V107.813z M126.563,238.463v-8.775h9.708
				C133.277,231.802,129.774,234.727,126.563,238.463z M145.323,235.008c4.017,2.33,13.013,8.447,16.889,18.117h-33.783
				C132.324,243.492,141.32,237.347,145.323,235.008z M60.938,281.251h-9.375v-70.313h9.375V281.251z M60.938,201.563h-9.375
				v-46.875h9.375V201.563z M60.938,145.313h-9.375v-37.5h9.375V145.313z M79.688,281.251h-9.375v-14.063h9.375V281.251z
				 M72.451,257.813c3.094-6.745,8.822-11.264,11.925-13.298c3.108,2.033,8.831,6.557,11.925,13.298H72.451z M98.438,281.251h-9.375
				v-14.063h9.375V281.251z M98.438,244.229c-5.517-6.033-11.503-9.127-11.967-9.356l-2.095-1.05l-2.095,1.05
				c-0.464,0.23-6.45,3.328-11.967,9.356v-14.541h28.124V244.229z M98.438,220.313H70.313v-9.375h28.125V220.313z M98.438,201.563
				h-9.375v-23.438h-9.375v23.438h-9.375V187.5c0-12.094,9.684-19.809,14.062-22.673c4.383,2.869,14.063,10.584,14.063,22.673
				V201.563z M70.313,164.536v-9.848h12.956l-0.989,0.492C81.816,155.41,75.831,158.508,70.313,164.536z M98.438,164.541
				c-5.517-6.033-11.503-9.127-11.967-9.356l-0.989-0.497h12.956V164.541z M98.438,145.313h-9.375v-28.125h-9.375v28.125h-9.375
				v-37.5h28.125V145.313z M75.001,98.438V51.563c0-3.98,2.691-6.862,4.688-8.452c1.997,1.594,4.688,4.477,4.688,8.452v46.875
				h-0.001H75.001z M103.127,98.438h-0.001h-9.375V51.563c0-3.98,2.691-6.862,4.688-8.452c1.997,1.594,4.688,4.477,4.688,8.452
				V98.438z M117.188,281.251h-9.375v-51.563v-9.375v-9.375h9.375V281.251z M117.188,201.563h-9.375v-46.875h9.375V201.563z
				 M117.188,145.313h-9.375v-37.5h9.375V145.313z M117.188,98.438h-4.688V51.563c0-12.131-11.475-18.014-11.967-18.258
				l-2.095-1.045l-2.095,1.05c-0.277,0.136-4.045,2.067-7.28,5.897c-3.234-3.83-7.003-5.761-7.28-5.897l-2.095-1.05l-2.095,1.05
				c-0.492,0.239-11.967,6.122-11.967,18.253v46.875h-4.688v-75h56.25V98.438z M164.063,281.25h-4.688v-9.375h-9.374v9.375h-9.375
				v-9.375h-9.375v9.375h-4.688V262.5h37.5V281.25z M164.063,238.463c-3.207-3.736-6.708-6.661-9.708-8.775h9.708V238.463z
				 M164.063,220.313h-37.5v-9.375h37.5V220.313z M164.063,201.563h-18.75h-18.75v-9.52c4.275,5.741,11.057,9.52,18.75,9.52
				c7.693,0,14.475-3.778,18.75-9.52V201.563z M131.25,178.125c0-7.754,6.309-14.063,14.063-14.063
				c7.754,0,14.063,6.31,14.063,14.063s-6.309,14.063-14.063,14.063C137.558,192.188,131.25,185.879,131.25,178.125z
				 M164.063,164.208c-4.275-5.742-11.058-9.52-18.75-9.52c-7.692,0-14.475,3.778-18.75,9.52v-9.52h18.75h18.75V164.208z
				 M182.813,281.251h-9.375v-70.313h9.375V281.251z M182.813,201.563h-9.375v-46.875h9.375V201.563z M182.813,145.313h-9.375v-37.5
				h9.375V145.313z M220.313,107.813v37.5h-9.375v-28.125h-9.375v28.125h-9.375v-37.5H220.313z M206.251,98.438V51.563
				c0-3.98,2.691-6.862,4.688-8.452c1.997,1.594,4.688,4.477,4.688,8.452v46.875h-0.001H206.251z M220.313,154.688v9.853
				c-5.517-6.033-11.503-9.127-11.967-9.361l-0.989-0.492H220.313z M205.144,154.688l-0.989,0.492
				c-0.464,0.23-6.45,3.328-11.967,9.356v-9.848H205.144z M196.877,98.438h-0.001h-9.375V51.563c0-3.98,2.691-6.862,4.688-8.452
				c1.997,1.594,4.688,4.477,4.688,8.452V98.438z M201.563,281.251h-9.375v-14.063h9.375V281.251z M194.326,257.813
				c3.094-6.745,8.822-11.264,11.925-13.298c3.108,2.033,8.831,6.557,11.925,13.298H194.326z M220.313,281.251h-9.375v-14.063h9.375
				V281.251z M220.313,244.228c-5.518-6.033-11.504-9.126-11.968-9.361l-2.095-1.045l-2.095,1.05
				c-0.464,0.23-6.45,3.328-11.967,9.356v-14.541h28.125V244.228z M220.313,220.313h-28.125v-9.375h28.125V220.313z
				 M220.315,201.563h-0.001h-9.375v-23.438h-9.375v23.438h-9.375V187.5c0-12.094,9.684-19.809,14.063-22.673
				c4.383,2.869,14.063,10.584,14.063,22.673V201.563z M213.034,33.305l-2.095-1.045l-2.095,1.05
				c-0.277,0.136-4.045,2.067-7.28,5.897c-3.234-3.83-7.003-5.761-7.28-5.897l-2.095-1.05l-2.095,1.05
				c-0.492,0.239-11.967,6.122-11.967,18.253v46.875h-4.688v-75h56.25v75h-4.688V51.563
				C225.001,39.432,213.526,33.549,213.034,33.305z M239.063,281.25h-9.375v-70.313h9.375V281.25z M239.063,201.563h-9.375v-46.875
				h9.375V201.563z M239.063,145.313h-9.375v-37.5h9.375V145.313z"/>
			<rect x="140.626" y="173.438" width="9.375" height="9.375"/>
			<rect x="281.25" y="281.25" width="9.375" height="9.375"/>
		</g>
	</g>
</g>
</svg>