<?xml version="1.0" encoding="iso-8859-1"?>
<!-- Uploaded to: SVG Repo, www.svgrepo.com, Generator: SVG Repo Mixer Tools -->
<!DOCTYPE svg PUBLIC "-//W3C//DTD SVG 1.1//EN" "http://www.w3.org/Graphics/SVG/1.1/DTD/svg11.dtd">
<svg fill="#000000" height="800px" width="800px" version="1.1" id="Capa_1" xmlns="http://www.w3.org/2000/svg" xmlns:xlink="http://www.w3.org/1999/xlink" 
	 viewBox="0 0 221.131 221.131" xml:space="preserve">
<path d="M200.307,1.143c-1.324-1.093-3.115-1.428-4.741-0.895c-1.599,0.524-39.543,13.11-73.194,35.968
	c-1.176,0.799-1.956,2.061-2.146,3.47l-2.175,16.181l-2.209-3.919c-0.699-1.241-1.895-2.124-3.286-2.429
	c-1.39-0.305-2.847-0.001-4,0.833C94.292,60.672,87.13,67.832,80.172,78.73c-14.203,22.243-19.167,40.716-20.842,52.234H46.798
	c-1.537,0-2.989,0.707-3.937,1.917c-0.947,1.21-1.286,2.789-0.918,4.281l2.338,9.468h-6.775c-10.201,0-18.5,8.299-18.5,18.5v8
	c0,15.268,10.267,28.183,24.259,32.204l-6.031,7.717c-1.178,1.506-1.393,3.552-0.555,5.27c0.838,1.719,2.582,2.809,4.494,2.809h72
	c1.912,0,3.656-1.09,4.494-2.809c0.838-1.719,0.623-3.765-0.555-5.27l-6.032-7.717c13.992-4.021,24.259-16.936,24.259-32.204v-8
	c0-10.201-8.299-18.5-18.5-18.5h-6.775l2.084-8.437c6.385-3.208,13.223-7.33,20.409-12.631c1.395-1.029,2.156-2.706,2.015-4.434
	c-0.143-1.727-1.169-3.258-2.713-4.044l-1.764-0.9l12.193-0.011c1.237-0.001,2.432-0.462,3.35-1.292
	c15.162-13.717,26.233-28.85,35.897-49.066c0.609-1.273,0.651-2.744,0.117-4.05c-0.46-1.122-1.308-2.032-2.378-2.571l3.598-0.813
	c1.521-0.344,2.796-1.378,3.445-2.796c12.902-28.196,15.656-49.081,15.767-49.956C202.3,3.928,201.629,2.234,200.307,1.143z"/>
</svg>