<?xml version="1.0" encoding="iso-8859-1"?>
<!-- Uploaded to: SVG Repo, www.svgrepo.com, Generator: SVG Repo Mixer Tools -->
<svg fill="#000000" version="1.1" id="Layer_1" xmlns="http://www.w3.org/2000/svg" xmlns:xlink="http://www.w3.org/1999/xlink" 
	 viewBox="0 0 300 300" xml:space="preserve">
<g>
	<g>
		<g>
			<path d="M150,183.871c10.674,0,19.355-8.681,19.355-19.355s-8.681-19.355-19.355-19.355s-19.355,8.681-19.355,19.355
				S139.326,183.871,150,183.871z M150,154.84c5.337,0,9.677,4.34,9.677,9.677c0,5.337-4.34,9.677-9.677,9.677
				c-5.337,0-9.677-4.34-9.677-9.677C140.323,159.18,144.663,154.84,150,154.84z"/>
			<path d="M285.484,290.323V62.903h4.839v-9.677h-14.516v-38.71h-9.677v19.355h-0.585c-2.381-9.731-11.797-17.327-23.608-18.992V0
				h-9.677v14.879c-11.811,1.665-21.227,9.261-23.608,18.992h-0.585V14.516h-9.677v38.71h-14.516v9.677h4.839v33.871H111.29V62.903
				h4.839v-9.677h-14.516v-38.71h-9.677v19.355H91.35c-2.381-9.731-11.797-17.327-23.608-18.992V0h-9.677v14.879
				c-11.811,1.665-21.227,9.261-23.608,18.992h-0.585V14.516h-9.677v38.71H9.677v9.677h4.839v227.419H0V300h300v-9.677H285.484z
				 M237.097,24.194c8.4,0,15.494,4.06,18.165,9.677h-36.334C221.603,28.253,228.697,24.194,237.097,24.194z M208.065,43.548h58.065
				v9.677h-58.065V43.548z M62.903,24.194c8.4,0,15.494,4.06,18.165,9.677H44.734C47.41,28.253,54.503,24.194,62.903,24.194z
				 M33.871,43.548h58.065v9.677H33.871V43.548z M33.871,290.322h-9.677v-9.677h9.677V290.322z M33.871,270.967h-9.677v-43.548
				h9.677V270.967z M33.871,217.742h-9.677v-33.871h9.677V217.742z M72.581,290.322H43.548v-9.677h29.033V290.322z M72.58,217.742
				H43.548v-33.871H72.58V217.742z M72.58,227.419v43.548H43.548v-43.548H72.58z M91.935,290.322h-9.677v-9.677h9.677V290.322z
				 M91.935,270.968h-9.677V227.42h9.677V270.968z M91.935,217.742h-9.677v-33.871h9.677V217.742z M91.936,174.193h-9.677v-48.387
				h-9.677v48.387H43.548v-48.387h-9.677v48.387h-9.677V62.903h77.419v33.871h-9.677V174.193z M111.29,290.322h-9.677v-77.419h9.677
				V290.322z M111.29,203.226h-9.677v-33.871h9.677V203.226z M159.677,290.323h-19.355V261.29h19.355V290.323z M179.033,290.323
				h-9.677v-38.71h-38.711v38.71h-9.677v-48.387h58.065V290.323z M145.162,202.892v10.011h-4.839v-4.839h-9.677v24.194h-9.677
				v-19.355h-0.001v-9.677v-13.19C127.06,196.955,135.562,201.688,145.162,202.892z M120.968,164.516
				c0-16.011,13.021-29.032,29.032-29.032s29.032,13.021,29.032,29.032S166.011,193.548,150,193.548
				S120.968,180.527,120.968,164.516z M159.678,222.581v9.677h-19.355v-9.677H159.678z M179.033,203.226v9.677h-0.001v19.355h-9.677
				v-24.194h-9.677v4.839h-4.839v-10.011c9.6-1.205,18.102-5.932,24.194-12.856V203.226z M179.031,125.807v13.19
				c-7.098-8.066-17.468-13.19-29.032-13.19c-11.564,0-21.934,5.124-29.032,13.19v-13.19h-9.677v33.871h-9.677v-53.226h9.677v9.677
				h9.678v-9.677h9.677v9.677h9.677v-9.677h19.355v9.677h9.677v-9.677h9.677v9.677h9.677v-9.677h9.677v53.226h-9.677v-33.871
				H179.031z M198.387,290.322h-9.677v-77.419h9.677V290.322z M198.387,203.226h-9.677v-33.871h9.677V203.226z M217.742,290.322
				h-9.677v-9.677h9.677V290.322z M217.742,270.967h-9.677v-43.548h9.677V270.967z M217.742,217.742h-9.677v-33.871h9.677V217.742z
				 M256.451,290.322h-29.032v-9.677h29.032V290.322z M256.451,270.967h-29.032v-43.548h29.032V270.967z M256.452,217.742H227.42
				v-33.871h29.032V217.742z M275.806,290.322h-9.677v-9.677h9.677V290.322z M275.806,270.968h-9.677V227.42h9.677V270.968z
				 M275.806,217.742h-9.677v-33.871h9.677V217.742z M275.806,174.193h-9.677v-48.387h-9.677v48.387H227.42v-48.387h-9.677v48.387
				h-9.677V96.774h-9.677V62.903h77.417V174.193z"/>
			<rect x="53.226" y="135.484" width="9.677" height="9.677"/>
			<rect x="237.097" y="135.484" width="9.677" height="9.677"/>
			<rect x="53.226" y="256.452" width="9.677" height="9.677"/>
			<rect x="237.097" y="256.452" width="9.677" height="9.677"/>
			<rect x="53.226" y="237.097" width="9.677" height="9.677"/>
			<path d="M261.29,91.935c0-10.674-8.681-19.355-19.355-19.355c-10.674,0-19.355,8.681-19.355,19.355v24.194h38.71V91.935z
				 M232.258,106.452V91.935c0-5.337,4.34-9.677,9.677-9.677c5.337,0,9.677,4.34,9.677,9.677v14.517H232.258z"/>
			<path d="M58.064,72.58c-10.674,0-19.354,8.681-19.354,19.355v24.194h38.71V91.935h-0.001
				C77.419,81.261,68.738,72.58,58.064,72.58z M48.387,106.452V91.935c0-5.337,4.34-9.677,9.677-9.677
				c5.337,0,9.677,4.34,9.677,9.677v14.517H48.387z"/>
		</g>
	</g>
</g>
</svg>