<?xml version="1.0" encoding="iso-8859-1"?>
<!-- Uploaded to: SVG Repo, www.svgrepo.com, Generator: SVG Repo Mixer Tools -->
<svg version="1.1" id="Capa_1" xmlns="http://www.w3.org/2000/svg" xmlns:xlink="http://www.w3.org/1999/xlink" 
	 viewBox="0 0 443.422 443.422" xml:space="preserve">
<g>
	<g>
		<g>
			<path style="fill:#010002;" d="M377.304,267.198l-10.193-1.374l7.6,6.934c7.332,6.714,11.543,16.241,11.543,26.125
				c0,19.557-15.9,35.481-35.465,35.481H224.934V298.81h89.918c18.102,0,31.783-6.665,40.716-19.809
				c37.221-54.787-21.776-205.645-24.321-212.034l-0.805-2.032H64.216l0.975,3.991c0.406,1.707,41.196,172.025,7.82,214.464
				c-4.739,6.048-10.657,8.974-18.102,8.974H41.342v6.446H218.48v35.554H55.973c-19.135,0-35.026-15.566-35.432-34.717l-0.187-9.527
				l-5.641,7.69C5.088,310.987,0,326.537,0,342.754v12.989c0,42.09,34.229,76.319,76.319,76.319h290.759
				c42.098,0,76.344-34.229,76.344-76.319v-12.989C443.422,304.72,415.004,272.222,377.304,267.198z"/>
		</g>
		<g>
			<g>
				<rect x="222.154" y="12.14" style="fill:#010002;" width="6.43" height="43.553"/>
			</g>
			<g>
				<path style="fill:#010002;" d="M229.38,56.481h-8.015V11.36h8.015V56.481z M222.926,54.921h4.877v-42h-4.877V54.921z"/>
			</g>
		</g>
		<g>
			<g>
				<polygon style="fill:#010002;" points="234.583,12.92 234.583,44.63 298.92,12.92 				"/>
			</g>
			<g>
				<path style="fill:#010002;" d="M235.363,13.709v29.653l60.192-29.653C295.555,13.709,235.363,13.709,235.363,13.709z"/>
			</g>
		</g>
	</g>
</g>
</svg>