<?xml version="1.0" encoding="iso-8859-1"?>
<!-- Uploaded to: SVG Repo, www.svgrepo.com, Generator: SVG Repo Mixer Tools -->
<svg fill="#000000" height="800px" width="800px" version="1.1" id="Layer_1" xmlns="http://www.w3.org/2000/svg" xmlns:xlink="http://www.w3.org/1999/xlink" 
	 viewBox="0 0 512 512" xml:space="preserve">
<g>
	<g>
		<path d="M223.326,297.908c-0.002-0.546-0.605-1.091-0.705-1.635c-0.023-0.123-0.043-0.243-0.071-0.362
			c-0.107-0.477-0.239-0.95-0.423-1.409l-0.064-0.161c-0.002-0.007-0.004-0.011-0.007-0.018l-16.736-41.836
			c0.009-0.068,0.032-0.129,0.039-0.195c0.318-3.319,7.738-81.958-0.064-132.671C197.458,68.708,168.477,7.845,167.241,5.273
			c-1.455-3.037-4.438-5.056-7.811-5.265c-3.328-0.136-6.574,1.41-8.402,4.247c-1.128,1.737-27.552,43.329-38.628,115.366
			c-9.343,60.731-3.142,112.604-0.757,128.513l-18.477,46.189c-0.002,0.007-0.005,0.011-0.007,0.018l-0.064,0.162
			c-0.184,0.459-0.316,0.932-0.423,1.409c-0.027,0.118-0.05,0.239-0.07,0.362c-0.1,0.543,0.377,1.089,0.373,1.635
			c0,0.018,0.537,0.032,0.537,0.05v176.918c0,5.147,2.328,9.312,9.312,9.312v18.623c0,5.147,3.085,9.189,8.232,9.189h93.115
			c5.147,0,10.391-4.042,10.391-9.189v-18.623c4.656,0,9.312-4.165,9.312-9.312V297.958
			C223.871,297.94,223.326,297.926,223.326,297.908z M130.804,122.397c6.556-42.629,18.941-74.199,27.298-91.885
			c9.139,21.524,23.797,59.443,28.789,91.869c6.002,39.037,2.328,98.635,0.646,119.586h-57.924
			C127.203,223.343,122.502,176.347,130.804,122.397z M126.667,260.589h61.889l11.176,27.935h-84.24L126.667,260.589z
			 M195.937,493.377h-74.492v-9.311h74.492V493.377z M205.248,465.442h-93.115v-37.246h93.115V465.442z M205.248,409.573h-93.115
			v-46.557h93.115V409.573z M205.248,344.393h-93.115v-37.246h93.115V344.393z"/>
	</g>
</g>
<g>
	<g>
		<path d="M418.867,297.908c0-0.546-0.334-1.091-0.434-1.635c-0.023-0.123-0.179-0.243-0.207-0.362
			c-0.107-0.477-0.305-0.95-0.489-1.409l-0.098-0.161c-0.005-0.007-0.023-0.011-0.025-0.018l-16.743-41.836
			c0.007-0.068,0.027-0.129,0.034-0.195c0.318-3.319,7.736-81.958-0.066-132.671C393.001,68.708,364.019,7.845,362.782,5.273
			c-1.455-3.037-4.438-5.056-7.811-5.265c-3.328-0.136-6.583,1.409-8.402,4.247c-1.128,1.737-27.552,43.329-38.628,115.366
			c-9.343,60.731-3.14,112.604-0.757,128.513l-18.478,46.189c-0.002,0.007-0.005,0.011-0.007,0.018l-0.064,0.161
			c-0.184,0.459-0.316,0.932-0.423,1.409c-0.027,0.118-0.05,0.239-0.07,0.362c-0.1,0.543,0.377,1.089,0.373,1.635
			c0,0.018,0.537,0.032,0.537,0.05v176.919c0,5.147,2.328,9.312,9.312,9.312v18.623c0,5.147,3.085,9.189,8.232,9.189h93.115
			c5.147,0,10.391-4.042,10.391-9.189v-18.623c4.656,0,9.312-4.165,9.312-9.312V297.958
			C419.413,297.94,418.867,297.926,418.867,297.908z M326.345,122.397c6.556-42.629,18.941-74.199,27.298-91.885
			c9.139,21.524,23.797,59.443,28.789,91.869c6.002,39.037,2.328,98.635,0.646,119.586h-57.924
			C322.745,223.343,318.043,176.347,326.345,122.397z M322.208,260.589h61.889l11.176,27.935h-84.24L322.208,260.589z
			 M391.478,493.377h-74.492v-9.311h74.492V493.377z M400.79,465.442h-93.115v-37.246h93.115V465.442z M400.79,409.573h-93.115
			v-46.557h93.115V409.573z M400.79,344.393h-93.115v-37.246h93.115V344.393z"/>
	</g>
</g>
</svg>