<?xml version="1.0" encoding="iso-8859-1"?>
<!-- Uploaded to: SVG Repo, www.svgrepo.com, Generator: SVG Repo Mixer Tools -->
<svg version="1.1" id="Layer_1" xmlns="http://www.w3.org/2000/svg" xmlns:xlink="http://www.w3.org/1999/xlink" 
	 viewBox="0 0 512 512" xml:space="preserve">
<path style="fill:#048F46;" d="M462.523,264.941c0-127.723-103.539-231.261-231.261-231.261S0,137.219,0,264.941V370.4h157.852
	l29.928-47.741H512L462.523,264.941z"/>
<path style="fill:#3DDB86;" d="M231.261,33.68C103.539,33.68,0,137.219,0,264.941V370.4h157.852l29.928-47.741h43.481L231.261,33.68
	L231.261,33.68z"/>
<rect x="157.85" y="264.946" style="fill:#424242;" width="48.882" height="213.374"/>
<rect x="157.85" y="264.946" style="fill:#707070;" width="24.441" height="213.374"/>
<path style="fill:#EE2712;" d="M462.523,264.941H105.458C105.458,323.184,58.244,370.4,0,370.4h157.852l29.928-47.741H512
	L462.523,264.941z"/>
<path style="fill:#FF7565;" d="M231.261,264.941H105.458C105.458,323.184,58.244,370.4,0,370.4h157.852l29.928-47.741h43.481
	V264.941z"/>
</svg>