<?xml version="1.0" encoding="iso-8859-1"?>
<!-- Uploaded to: SVG Repo, www.svgrepo.com, Generator: SVG Repo Mixer Tools -->
<svg fill="#000000" height="800px" width="800px" version="1.1" id="Layer_1" xmlns="http://www.w3.org/2000/svg" xmlns:xlink="http://www.w3.org/1999/xlink" 
	 viewBox="0 0 512 512" xml:space="preserve">
<g>
	<g>
		<path d="M256,0C114.845,0,0,114.841,0,256c0,141.159,114.845,256,256,256c141.155,0,256-114.841,256-256
			C512,114.841,397.155,0,256,0z M256,494.345C124.578,494.345,17.655,387.422,17.655,256C17.655,124.578,124.578,17.655,256,17.655
			c131.422,0,238.345,106.923,238.345,238.345C494.345,387.422,387.422,494.345,256,494.345z"/>
	</g>
</g>
<g>
	<g>
		<path d="M256,203.034c-29.207,0-52.966,23.759-52.966,52.966c0,29.207,23.759,52.966,52.966,52.966
			c29.207,0,52.966-23.759,52.966-52.966C308.966,226.793,285.207,203.034,256,203.034z M256,291.31
			c-19.474,0-35.31-15.84-35.31-35.31c0-19.47,15.836-35.31,35.31-35.31c19.474,0,35.31,15.841,35.31,35.31
			C291.31,275.47,275.474,291.31,256,291.31z"/>
	</g>
</g>
<g>
	<g>
		<path d="M402.836,195.177c-1.871-4.509-7.043-6.629-11.535-4.772c-4.508,1.871-6.647,7.034-4.776,11.539
			c7.112,17.142,10.715,35.328,10.715,54.056c0,18.724-3.603,36.914-10.715,54.065c-1.871,4.5,0.267,9.668,4.776,11.535
			c1.103,0.457,2.25,0.677,3.379,0.677c3.457,0,6.741-2.052,8.155-5.453c8-19.302,12.06-39.767,12.06-60.823
			C414.897,234.94,410.836,214.479,402.836,195.177z"/>
	</g>
</g>
<g>
	<g>
		<path d="M321.595,391.298c-1.871-4.509-7.06-6.629-11.535-4.772c-34.276,14.224-73.845,14.224-108.121,0
			c-4.474-1.862-9.664,0.263-11.534,4.772c-1.871,4.504,0.267,9.668,4.776,11.539c19.285,8,39.75,12.06,60.819,12.06
			c21.069,0,41.534-4.06,60.819-12.06C321.328,400.966,323.465,395.802,321.595,391.298z"/>
	</g>
</g>
<g>
	<g>
		<path d="M114.759,256c0-18.728,3.603-36.914,10.716-54.056c1.871-4.504-0.267-9.668-4.776-11.539
			c-4.474-1.862-9.655,0.263-11.534,4.772c-8,19.302-12.06,39.763-12.06,60.823c0,21.056,4.06,41.522,12.06,60.823
			c1.414,3.401,4.698,5.453,8.155,5.453c1.129,0,2.276-0.22,3.379-0.677c4.509-1.866,6.647-7.034,4.776-11.535
			C118.362,292.914,114.759,274.724,114.759,256z"/>
	</g>
</g>
<g>
	<g>
		<path d="M316.819,109.164c-38.586-16.009-83.052-16.009-121.638,0c-4.508,1.871-6.647,7.034-4.776,11.539
			c1.871,4.509,7.06,6.634,11.534,4.772c34.293-14.224,73.828-14.224,108.121,0c1.103,0.457,2.25,0.677,3.379,0.677
			c3.457,0,6.741-2.052,8.155-5.448C323.465,116.198,321.328,111.034,316.819,109.164z"/>
	</g>
</g>
<g>
	<g>
		<path d="M256,44.138C139.181,44.138,44.138,139.181,44.138,256c0,116.819,95.043,211.862,211.862,211.862
			S467.862,372.819,467.862,256C467.862,139.181,372.819,44.138,256,44.138z M256,450.207
			c-107.086,0-194.207-87.121-194.207-194.207c0-107.086,87.121-194.207,194.207-194.207c107.086,0,194.207,87.121,194.207,194.207
			C450.207,363.086,363.086,450.207,256,450.207z"/>
	</g>
</g>
</svg>