<?xml version="1.0" encoding="iso-8859-1"?>
<!-- Uploaded to: SVG Repo, www.svgrepo.com, Generator: SVG Repo Mixer Tools -->
<svg fill="#000000" version="1.1" id="Layer_1" xmlns="http://www.w3.org/2000/svg" xmlns:xlink="http://www.w3.org/1999/xlink" 
	 viewBox="0 0 512.001 512.001" xml:space="preserve">
<g>
	<g>
		<path d="M410.278,264.1l11.322-11.322l-42.478-42.478l40.525-40.525l-14.623-14.623l13.377-13.377l30.392,30.392l21.441-21.441
			l-30.393-30.393l60.494-60.494L449.675,9.179l-60.494,60.494l-49.441-49.441L0,359.969l21.441,21.441L339.739,63.112
			l28.001,28.001l-13.377,13.377l-14.623-14.623L65.88,363.726l79.908,79.909l40.744-40.744l41.393,99.931l93.109-38.567
			l-32.485-78.425l64.151-64.151l101.722,101.722l57.579-57.579L410.278,264.1z M449.675,52.059l7.779,7.779L418.4,98.891
			l-7.78-7.78L449.675,52.059z M389.181,112.553l7.78,7.78l-13.377,13.377l-7.78-7.78L389.181,112.553z M173.973,372.568
			L173.973,372.568l-28.185,28.185l-37.026-37.027l230.978-230.978l37.026,37.026L251.107,295.435L173.973,372.568z
			 M244.335,463.203l-34.596-83.52l30.719-30.719l40.957,98.88L244.335,463.203z M275.989,355.507l-12.323-29.751l11.729-11.729
			l12.956,12.956l21.441-21.441l-12.956-12.956l13.386-13.386l21.038,21.038L275.989,355.507z M352.699,278.797l-21.036-21.037
			l26.019-26.019l21.037,21.037L352.699,278.797z M454.421,380.519l-80.281-80.281l14.698-14.697l80.28,80.281L454.421,380.519z"/>
	</g>
</g>
<g>
	<g>
		
			<rect x="204.251" y="251.576" transform="matrix(0.7071 -0.7071 0.7071 0.7071 -117.5084 249.7828)" width="77.018" height="30.322"/>
	</g>
</g>
</svg>