<?xml version="1.0" encoding="iso-8859-1"?>
<!-- Uploaded to: SVG Repo, www.svgrepo.com, Generator: SVG Repo Mixer Tools -->
<svg fill="#000000" height="800px" width="800px" version="1.1" id="Layer_1" xmlns="http://www.w3.org/2000/svg" xmlns:xlink="http://www.w3.org/1999/xlink" 
	 viewBox="0 0 512 512" xml:space="preserve">
<g>
	<g>
		<path d="M447.796,45.249c-2.174-1.254-4.82-1.391-7.108-0.342c-2.288,1.034-3.931,3.109-4.425,5.573
			c-1.384,7.025-3.877,13.684-7.405,19.797c-11.991,20.771-34.722,32.572-58.213,30.964c-0.669-1.444-1.756-2.667-3.153-3.474
			L327.04,74.411c-3.717-2.152-8.484-0.882-10.636,2.851l-60.407,104.622L195.596,77.262c-2.159-3.733-6.933-5.002-10.636-2.851
			l-40.452,23.354c-1.397,0.806-2.484,2.03-3.153,3.472c-23.488,1.602-46.222-10.191-58.213-30.962
			c-3.535-6.112-6.029-12.772-7.412-19.797c-0.494-2.463-2.136-4.539-4.424-5.573c-2.288-1.049-4.934-0.912-7.108,0.342
			C2.86,80.668-18.229,159.383,17.183,220.719c23.773,41.167,67.03,64.202,111.458,64.202c21.766,0,43.82-5.534,63.989-17.181
			c1.042-0.601,2.06-1.201,3.079-1.825c2.265-1.391,3.672-3.839,3.725-6.492c0.046-2.661-1.262-5.162-3.474-6.637
			c-8.021-5.329-14.551-12.301-19.401-20.709c-11.288-19.553-10.921-43.668,0.274-62.746l43.208,74.838L117.884,421.11
			c-8.576,14.863-3.459,33.937,11.404,42.528c4.896,2.821,10.24,4.159,15.516,4.159c10.773,0,21.256-5.58,27.019-15.555
			l84.175-145.793l84.171,145.793c5.763,9.974,16.246,15.555,27.019,15.555c5.284,0,10.636-1.338,15.524-4.159
			c14.87-8.598,19.979-27.68,11.396-42.535L291.957,244.17l43.208-74.838c11.191,19.078,11.563,43.199,0.276,62.744
			c-4.858,8.408-11.388,15.379-19.401,20.716c-2.212,1.467-3.52,3.961-3.474,6.614c0.046,2.653,1.444,5.101,3.702,6.492
			c1.011,0.623,2.037,1.232,3.079,1.832c20.177,11.647,42.231,17.181,64.012,17.181c44.428,0,87.693-23.035,111.458-64.194
			C530.229,159.375,509.14,80.66,447.796,45.249z M177.601,258.1c-52.707,25.552-117.191,6.348-146.931-45.166
			C1.271,162.013,16.18,97.469,63.352,64.247c1.657,4.797,3.763,9.419,6.302,13.814c15.653,27.11,45.914,42.094,76.649,38.39
			l21.851,37.848c-18.481,24.729-20.639,58.618-5.082,85.563C167.033,246.726,171.899,252.831,177.601,258.1z M246.729,291.36
			l-88.393,153.096c-4.28,7.427-13.821,9.997-21.264,5.694c-7.427-4.296-9.99-13.829-5.702-21.256l97.662-169.153l18.006,31.187
			C246.94,291.077,246.818,291.202,246.729,291.36z M380.622,428.887c4.295,7.427,1.741,16.968-5.694,21.264
			c-7.443,4.31-16.984,1.741-21.271-5.694L159.036,107.36l26.966-15.57L380.622,428.887z M282.968,228.599l-18.04-31.248
			c0.209-0.27,0.426-0.528,0.603-0.831l60.469-104.73l26.965,15.57L282.968,228.599z M481.331,212.934
			C451.59,264.44,387.099,283.659,334.4,258.1c5.694-5.269,10.56-11.366,14.528-18.238c15.554-26.945,13.397-60.827-5.084-85.563
			l21.853-37.85c30.685,3.681,60.99-11.28,76.649-38.388c2.539-4.402,4.637-9.017,6.295-13.814
			C495.813,97.469,510.729,162.013,481.331,212.934z"/>
	</g>
</g>
</svg>