<?xml version="1.0" encoding="iso-8859-1"?>
<!-- Uploaded to: SVG Repo, www.svgrepo.com, Generator: SVG Repo Mixer Tools -->
<svg fill="#000000" height="800px" width="800px" version="1.1" id="Layer_1" xmlns="http://www.w3.org/2000/svg" xmlns:xlink="http://www.w3.org/1999/xlink" 
	 viewBox="0 0 512 512" xml:space="preserve">
<g>
	<g>
		<path d="M467.484,120.734c-1.864-1.637-4.605-2.388-7.057-2.04c-8.102,1.104-16.514,1.662-24.759,1.662
			c-79.222,0-130.287-56.117-173.611-116.759c-1.537-2.153-4.001-3.476-6.645-3.593c-2.611-0.08-5.197,0.986-6.918,2.993
			c-3.862,4.504-7.688,9.009-11.485,13.484c-47.268,55.739-88.09,103.876-162.543,103.876c-8.245,0-16.533-0.558-24.635-1.662
			c-2.452-0.348-4.448,0.403-6.312,2.04c-1.872,1.633-2.449,3.996-2.449,6.478v1.742c0,101.85,25.563,196.189,68.308,266.205
			c-0.002,0.103-0.277,0.206-0.277,0.308c0,2.2,0.714,4.399,2.393,6.079c0.789,0.789,1.637,1.377,2.603,1.794
			c16.619,25.679,35.526,47.798,56.289,65.457c0.338,0.539,0.709,1.057,1.18,1.526c0.865,0.864,1.862,1.497,2.93,1.916
			c24.108,19.595,50.565,33.243,78.624,39.55c0.621,0.139,1.257,0.21,1.887,0.21s1.765-0.071,2.387-0.21
			C378.844,484.487,470.93,319.906,470.93,128.954v-1.742C470.93,124.731,469.356,122.368,467.484,120.734z M66.595,232.008h26.037
			l-21.59,21.591C69.426,246.493,67.94,238.456,66.595,232.008z M75.274,270.941c1.92-0.182,3.795-1.012,5.266-2.483l36.404-36.45
			h18.563l-55.523,55.579C78.33,282.098,76.758,276.568,75.274,270.941z M85.546,304.915c1.31-0.397,2.554-1.13,3.591-2.166
			l70.683-70.74h22.845l-90.613,90.669C89.782,316.841,87.616,310.952,85.546,304.915z M105.041,352.647
			c-2.013-4.199-3.971-8.439-5.873-12.772L206.98,232.008h18.672L105.041,352.647z M247.403,490.121
			c0,0.771-0.365,1.506-0.174,2.217c-9.136-2.722-17.83-6.285-26.541-10.66l26.715-26.466V490.121z M247.403,431.205
			c-2.149,0.333-1.52,0.714-1.977,1.17l-40.512,40.512c-4.662-2.943-9.25-6.116-13.756-9.518l56.245-55.745V431.205z
			 M247.403,383.311l-69.359,69.11c-3.262-2.89-6.719-5.913-9.882-9.04l79.241-78.742V383.311z M247.403,340.325l-91.06,90.561
			c-3.008-3.398-5.957-6.914-8.855-10.527c0.835-0.407,1.633-0.924,2.328-1.618l97.588-97.088V340.325z M247.403,297.339
			L137.658,406.584c-0.122,0.122-0.456,0.264-0.567,0.391c-2.592-3.622-4.758-7.328-7.245-11.125l117.557-117.182V297.339z
			 M247.403,254.353L120.435,380.821c-2.349-4.015-4.645-8.11-6.88-12.286c0.665-0.376,1.305-0.811,1.872-1.378L247.403,235.68
			V254.353z M247.403,214.814H63.709c-3.833-25.792-5.782-51.317-6.141-78.053c5.692,0.487,11.674,0.79,17.392,0.79
			c80.292,0,125.159-50.683,172.444-105.573V214.814z M423.795,137.058l-77.782,77.756h-18.672v0l79.644-79.588
			C412.444,136.107,418.052,136.693,423.795,137.058z M373.097,126.097c4.565,1.761,9.242,3.284,14.025,4.663l-84.096,84.054
			h-18.672l88.491-88.434C372.942,126.283,373.007,126.197,373.097,126.097z M264.597,34.678
			c6.448,9.124,13.765,18.018,21.329,26.513c-0.755,0.395-1.23,0.87-1.866,1.505l-19.463,19.713V34.678z M264.597,106.722
			l31.371-31.87c0.487-0.487,0.884-1.026,1.23-1.589c3.146,3.221,6.349,6.363,9.613,9.419l-42.214,42.712V106.722z M264.597,149.708
			l55.399-55.648c3.438,2.823,6.698,5.54,10.274,8.148l-65.673,66.172V149.708z M264.597,192.694l80.517-80.766
			c3.908,2.371,7.653,4.603,11.733,6.688l-92.25,92.75V192.694z M263.775,492.283c0.189-0.712,0.823-1.391,0.823-2.162V232.008
			h178.814C419.213,363.116,350.679,466.384,263.775,492.283z M446.253,215.162c-0.678-0.172-1.379-0.348-2.112-0.348h-30.829
			l37.394-37.366C449.635,190.206,448.136,202.806,446.253,215.162z M452.29,151.564l-63.291,63.25h-18.672l77.818-77.761
			c1.516-0.095,3.033-0.135,4.544-0.264C452.621,141.75,452.481,146.645,452.29,151.564z"/>
	</g>
</g>
</svg>