<?xml version="1.0" encoding="iso-8859-1"?>
<!-- Uploaded to: SVG Repo, www.svgrepo.com, Generator: SVG Repo Mixer Tools -->
<svg version="1.1" id="Layer_1" xmlns="http://www.w3.org/2000/svg" xmlns:xlink="http://www.w3.org/1999/xlink" 
	 viewBox="0 0 511.999 511.999" xml:space="preserve">
<g>
	<rect x="8.56" y="246.685" style="fill:#06B559;" width="34.387" height="145.55"/>
	<polygon style="fill:#06B559;" points="135.615,246.69 135.615,392.24 135.604,392.24 98.397,392.24 98.397,246.69 135.604,246.69 
			"/>
	<rect x="191.068" y="246.685" style="fill:#06B559;" width="37.207" height="145.55"/>
	<rect x="283.725" y="246.685" style="fill:#06B559;" width="37.207" height="145.55"/>
	<rect x="376.394" y="246.685" style="fill:#06B559;" width="37.207" height="145.55"/>
	<rect x="469.051" y="246.685" style="fill:#06B559;" width="34.387" height="145.55"/>
</g>
<g>
	<path style="fill:#F9CC73;" d="M456.456,162.926h-30.265c0.011-24.477,3.962-48.863,11.736-72.427l2.146-6.496
		c0.4-1.199,2.101-1.199,2.5,0l2.146,6.496c3.893,11.805,6.827,23.815,8.791,35.928C455.463,138.506,456.445,150.71,456.456,162.926
		z"/>
	<polygon style="fill:#F9CC73;" points="459.401,198.74 469.048,223.845 413.598,223.845 423.245,198.74 423.827,198.934 
		458.819,198.934 	"/>
	<polygon style="fill:#F9CC73;" points="366.733,198.74 376.391,223.845 320.93,223.845 330.588,198.74 331.17,198.934 
		366.162,198.934 	"/>
	<path style="fill:#F9CC73;" d="M363.787,162.926h-30.254c0.011-24.477,3.962-48.863,11.736-72.427l2.146-6.496
		c0.4-1.199,2.101-1.199,2.489,0l2.146,6.496c3.893,11.805,6.827,23.815,8.791,35.928
		C362.783,138.506,363.776,150.71,363.787,162.926z"/>
	<polygon style="fill:#F9CC73;" points="274.076,198.74 283.723,223.845 228.273,223.845 237.92,198.74 238.502,198.934 
		273.494,198.934 	"/>
	<path style="fill:#F9CC73;" d="M271.13,162.926h-30.265c0.011-24.477,3.962-48.863,11.748-72.427l2.135-6.496
		c0.4-1.199,2.101-1.199,2.5,0l2.146,6.496c3.893,11.805,6.827,23.815,8.791,35.928C270.126,138.506,271.119,150.71,271.13,162.926z
		"/>
	<polygon style="fill:#F9CC73;" points="181.407,198.74 191.066,223.845 135.615,223.845 145.262,198.74 145.845,198.934 
		180.837,198.934 	"/>
	<path style="fill:#F9CC73;" d="M178.462,162.926h-30.254c0.011-24.477,3.962-48.863,11.736-72.427l2.146-6.496
		c0.4-1.199,2.101-1.199,2.489,0l2.146,6.496c3.893,11.805,6.827,23.815,8.791,35.928
		C177.469,138.506,178.45,150.71,178.462,162.926z"/>
	<path style="fill:#F9CC73;" d="M85.805,162.926H55.539c0.011-24.477,3.962-48.863,11.748-72.427l2.135-6.496
		c0.4-1.199,2.101-1.199,2.5,0l2.146,6.496c3.893,11.805,6.827,23.815,8.791,35.928C84.812,138.506,85.793,150.71,85.805,162.926z"
		/>
	<polygon style="fill:#F9CC73;" points="88.75,198.74 98.397,223.845 42.947,223.845 52.605,198.74 53.176,198.934 88.168,198.934 	
		"/>
</g>
<g>
	<polygon style="fill:#FCBB29;" points="191.066,392.24 191.066,428.887 135.615,428.887 135.615,392.24 135.615,246.69 
		135.615,223.845 191.066,223.845 191.066,246.69 	"/>
	<polygon style="fill:#FCBB29;" points="283.723,392.24 283.723,428.887 228.273,428.887 228.273,392.24 228.273,246.69 
		228.273,223.845 283.723,223.845 283.723,246.69 	"/>
	<polygon style="fill:#FCBB29;" points="376.391,392.24 376.391,428.887 320.93,428.887 320.93,392.24 320.93,246.69 
		320.93,223.845 376.391,223.845 376.391,246.69 	"/>
	<polygon style="fill:#FCBB29;" points="469.048,392.24 469.048,428.887 413.598,428.887 413.598,392.24 413.598,246.69 
		413.598,223.845 469.048,223.845 469.048,246.69 	"/>
	<path style="fill:#FCBB29;" d="M459.401,162.926v35.814l-0.582,0.194h-34.992l-0.582-0.194v-35.814h2.945c0,0.046,0,0.08,0,0.126
		h30.265c0-0.046,0-0.08,0-0.126H459.401z"/>
	<path style="fill:#FCBB29;" d="M366.733,162.926v35.814l-0.571,0.194H331.17l-0.582-0.194v-35.814h2.945c0,0.046,0,0.08,0,0.126
		h30.254c0-0.046,0-0.08,0-0.126H366.733z"/>
	<path style="fill:#FCBB29;" d="M274.076,162.926v35.814l-0.582,0.194h-34.992l-0.582-0.194v-35.814h2.945c0,0.046,0,0.08,0,0.126
		h30.265c0-0.046,0-0.08,0-0.126H274.076z"/>
	<path style="fill:#FCBB29;" d="M181.407,162.926v35.814l-0.571,0.194h-34.992l-0.582-0.194v-35.814h2.945c0,0.046,0,0.08,0,0.126
		h30.254c0-0.046,0-0.08,0-0.126H181.407z"/>
	<path style="fill:#FCBB29;" d="M88.75,162.926v35.814l-0.582,0.194H53.176l-0.571-0.194v-35.814h2.934c0,0.046,0,0.08,0,0.126
		h30.265c0-0.046,0-0.08,0-0.126H88.75z"/>
	<polygon style="fill:#FCBB29;" points="98.397,392.24 98.397,428.887 42.947,428.887 42.947,392.24 42.947,246.69 42.947,223.845 
		98.397,223.845 98.397,246.69 	"/>
</g>
<path style="fill:#333333;" d="M503.438,238.128h-25.824v-14.283c0-1.05-0.193-2.093-0.571-3.072l-9.082-23.623v-34.227
	c0-2.628-1.186-4.976-3.051-6.547c-0.653-23.189-4.696-46.219-12.064-68.552l0,0l-2.143-6.497c-1.338-4.056-5.108-6.781-9.38-6.781
	c-4.271,0-8.041,2.726-9.379,6.783l-2.143,6.497c-7.368,22.333-11.41,45.362-12.064,68.552c-1.863,1.571-3.051,3.919-3.051,6.547
	v34.227l-9.082,23.623c-0.377,0.981-0.571,2.022-0.571,3.072v14.283H384.95v-14.283c0-1.05-0.193-2.093-0.571-3.072l-9.082-23.623
	v-34.227c0-2.628-1.186-4.978-3.051-6.547c-0.653-23.191-4.696-46.219-12.064-68.551l-2.143-6.498
	c-1.338-4.056-5.108-6.781-9.379-6.781c-4.272,0-8.041,2.726-9.379,6.781l-2.144,6.498c-7.367,22.333-11.41,45.363-12.064,68.552
	c-1.863,1.571-3.051,3.919-3.051,6.547v34.227l-9.082,23.623c-0.377,0.981-0.571,2.022-0.571,3.072v14.283h-20.084v-14.283
	c0-1.05-0.193-2.093-0.571-3.072l-9.082-23.623v-34.227c0-2.628-1.186-4.976-3.051-6.547c-0.653-23.189-4.696-46.219-12.064-68.552
	l-2.143-6.498c-1.338-4.056-5.108-6.781-9.379-6.781c-4.272,0-8.041,2.726-9.379,6.781l-2.144,6.498
	c-7.367,22.333-11.41,45.363-12.064,68.552c-1.863,1.571-3.051,3.919-3.051,6.547v34.227l-9.082,23.623
	c-0.377,0.981-0.571,2.022-0.571,3.072v14.283h-20.084v-14.283c0-1.05-0.193-2.093-0.571-3.072l-9.082-23.623v-34.227
	c0-2.628-1.186-4.976-3.051-6.547c-0.653-23.189-4.696-46.219-12.064-68.552l0,0l-2.143-6.497c-1.338-4.056-5.108-6.781-9.38-6.781
	c-4.271,0-8.041,2.726-9.379,6.783l-2.143,6.497c-7.367,22.333-11.41,45.362-12.064,68.552c-1.864,1.571-3.051,3.919-3.051,6.547
	v34.227l-9.082,23.623c-0.377,0.981-0.571,2.022-0.571,3.072v14.283h-20.082v-14.283c0-1.05-0.193-2.093-0.571-3.072l-9.082-23.623
	v-34.227c0-2.628-1.186-4.976-3.051-6.547c-0.653-23.191-4.696-46.22-12.064-68.552l0,0l-2.143-6.497
	c-1.338-4.056-5.108-6.781-9.379-6.781s-8.041,2.726-9.379,6.781l-2.144,6.498c-7.367,22.333-11.41,45.363-12.064,68.552
	c-1.863,1.571-3.051,3.919-3.051,6.547v34.227l-9.082,23.623c-0.377,0.981-0.571,2.022-0.571,3.072v14.283H8.562
	c-4.729,0-8.562,3.834-8.562,8.562v145.55c0,4.729,3.834,8.562,8.562,8.562h25.824v28.084c0,4.729,3.834,8.562,8.562,8.562h55.453
	c4.729,0,8.562-3.834,8.562-8.562v-28.084h20.084v28.084c0,4.729,3.834,8.562,8.562,8.562h55.453c4.729,0,8.562-3.834,8.562-8.562
	v-28.084h20.084v28.084c0,4.729,3.834,8.562,8.562,8.562h55.453c4.729,0,8.562-3.834,8.562-8.562v-28.084h20.084v28.084
	c0,4.729,3.834,8.562,8.562,8.562h55.453c4.729,0,8.562-3.834,8.562-8.562v-28.084h20.084v28.084c0,4.729,3.834,8.562,8.562,8.562
	h55.453c4.729,0,8.562-3.834,8.562-8.562v-28.084h25.826c4.729,0,8.562-3.834,8.562-8.562v-145.55
	C512,241.962,508.166,238.128,503.438,238.128z M61.163,190.373v-18.757h19.023v18.757H61.163z M58.407,207.498h24.537l2.992,7.785
	H55.414L58.407,207.498z M77.069,154.359H64.281c0.595-15.056,2.734-30.031,6.393-44.762
	C74.335,124.326,76.474,139.303,77.069,154.359z M17.125,383.677V255.252h17.262v128.425H17.125z M51.512,420.325V232.408h38.328
	v187.917H51.512z M106.964,383.677V255.252h20.084v128.425H106.964z M246.488,190.373v-18.757h19.025v18.757H246.488z
	 M243.731,207.498h24.538l2.992,7.785h-30.522L243.731,207.498z M262.393,154.359h-12.788c0.595-15.056,2.734-30.031,6.393-44.762
	C259.659,124.328,261.798,139.303,262.393,154.359z M153.825,190.373v-18.757h19.025v18.757H153.825z M151.069,207.498h24.538
	l2.992,7.785h-30.522L151.069,207.498z M163.337,109.597c3.659,14.731,5.798,29.706,6.393,44.762h-12.787
	C157.539,139.303,159.678,124.327,163.337,109.597z M144.173,420.325V232.408h38.328v187.917H144.173z M199.626,383.677V255.252
	h20.084v128.425H199.626z M236.836,420.325V232.408h38.328v187.917H236.836z M292.289,383.677V255.252h20.084v128.425H292.289z
	 M431.812,190.373v-18.757h19.023v18.757H431.812z M429.055,207.498h24.537l2.992,7.785h-30.522L429.055,207.498z M441.323,109.597
	c3.659,14.731,5.798,29.706,6.393,44.762h-12.788C435.525,139.303,437.664,124.327,441.323,109.597z M339.149,190.373v-18.757
	h19.025v18.757H339.149z M336.393,207.498h24.538l2.992,7.785h-30.522L336.393,207.498z M355.055,154.359h-12.788
	c0.595-15.056,2.734-30.031,6.393-44.762C352.321,124.326,354.46,139.303,355.055,154.359z M329.498,420.325V232.408h38.328v187.917
	H329.498z M384.95,383.677V255.252h20.084v128.425H384.95z M422.159,420.325V232.408h38.328v187.917H422.159z M494.875,383.677
	h-17.262V255.252h17.263v128.425H494.875z"/>
</svg>