<?xml version="1.0" encoding="iso-8859-1"?>
<!-- Uploaded to: SVG Repo, www.svgrepo.com, Generator: SVG Repo Mixer Tools -->
<svg version="1.1" id="Layer_1" xmlns="http://www.w3.org/2000/svg" xmlns:xlink="http://www.w3.org/1999/xlink" 
	 viewBox="0 0 512.001 512.001" xml:space="preserve">
<path style="fill:#06B559;" d="M462.584,49.406c-65.874-65.874-172.699-65.874-238.588,0L49.416,224
	c-65.888,65.888-65.888,172.699,0,238.588c32.937,32.951,76.119,49.413,119.301,49.413c43.168,0,86.336-16.462,119.287-49.413
	l174.58-174.594C528.474,222.12,528.474,115.295,462.584,49.406z M421.675,111c-11.423,0-20.672-9.262-20.672-20.672
	c0-11.423,9.248-20.686,20.672-20.686c11.423,0,20.686,9.262,20.686,20.686C442.361,101.738,433.099,111,421.675,111z"/>
<path style="fill:#0B9B53;" d="M450.683,61.321c-28.685-28.685-66.829-44.487-107.386-44.487
	c-40.572,0-78.701,15.802-107.386,44.487L61.317,235.901c-59.208,59.222-59.208,155.564,0,214.772
	c28.685,28.685,66.829,44.487,107.386,44.487c40.572,0,78.701-15.802,107.386-44.487l174.594-174.58
	C509.891,216.871,509.891,120.529,450.683,61.321z M421.675,69.643c11.423,0,20.686,9.262,20.686,20.686
	c0,11.409-9.262,20.672-20.686,20.672c-11.423,0-20.672-9.262-20.672-20.672C401.004,78.905,410.252,69.643,421.675,69.643z"/>
<path style="fill:#F2F2F2;" d="M463.844,164.054c-29.343-1.121-58.354-12.837-80.707-35.19
	c-22.353-22.353-34.068-51.364-35.19-80.707c-32.443-1.241-65.295,10.475-90.01,35.188L83.351,257.934
	c-47.066,47.066-47.066,123.648,0,170.716c47.066,47.066,123.648,47.066,170.715,0l174.587-174.587
	C453.368,229.35,465.083,196.498,463.844,164.054z"/>
<path style="fill:#CCCCCC;" d="M168.71,434.48c-24.409,0-47.322-9.471-64.519-26.668c-17.197-17.197-26.668-40.111-26.668-64.52
	c0-24.409,9.471-47.322,26.667-64.519l174.588-174.587c12.268-12.268,27.456-20.602,44.028-24.364
	c6.507,26.294,20.037,50.426,39.492,69.882c19.463,19.463,43.607,32.995,69.91,39.499c-3.739,16.537-12.052,31.68-24.393,44.021
	L233.229,407.811C216.032,425.008,193.118,434.48,168.71,434.48z"/>
<path style="fill:#666666;" d="M470.851,163.781l-0.239-6.484l-6.498-0.253c-28.741-1.095-55.742-12.869-76.021-33.148
	c-20.265-20.265-32.039-47.266-33.134-76.007l-0.253-6.498l-6.498-0.253c-35.491-1.347-70.211,12.223-95.233,37.246l-174.58,174.58
	c-49.806,49.806-49.806,130.837,0,180.642c24.896,24.91,57.609,37.358,90.307,37.358c32.713,0,65.425-12.448,90.321-37.358
	l174.594-174.58C458.642,234.006,472.211,199.287,470.851,163.781z M88.318,423.686c-21.444-21.43-33.246-49.988-33.246-80.399
	c0-30.397,11.802-58.956,33.246-80.385l174.58-174.594c20.784-20.784,49.09-32.685,78.463-33.204
	c2.68,29.78,15.606,57.524,36.811,78.729c21.205,21.191,48.95,34.116,78.729,36.811c-0.519,29.373-12.42,57.679-33.204,78.463
	l-174.594,174.58c-21.43,21.444-49.988,33.246-80.399,33.246C138.306,456.932,109.749,445.13,88.318,423.686z"/>
<g>
	
		<rect x="206.751" y="90.15" transform="matrix(-0.7071 -0.7071 0.7071 -0.7071 215.8846 521.1341)" style="fill:#F2F2F2;" width="18.244" height="251.412"/>
	
		<rect x="246.887" y="130.291" transform="matrix(-0.7071 -0.7071 0.7071 -0.7071 256.0179 618.0396)" style="fill:#F2F2F2;" width="18.244" height="251.412"/>
	
		<rect x="287.005" y="170.4" transform="matrix(-0.7071 -0.7071 0.7071 -0.7071 296.1364 714.8896)" style="fill:#F2F2F2;" width="18.244" height="251.426"/>
</g>
</svg>