<?xml version="1.0" encoding="iso-8859-1"?>
<!-- Uploaded to: SVG Repo, www.svgrepo.com, Generator: SVG Repo Mixer Tools -->
<svg version="1.1" id="Layer_1" xmlns="http://www.w3.org/2000/svg" xmlns:xlink="http://www.w3.org/1999/xlink" 
	 viewBox="0 0 512 512" xml:space="preserve">
<g>
	<polygon style="fill:#424242;" points="475.256,268.365 326.746,416.875 254.992,345.121 277.177,322.936 326.746,372.506 
		453.072,246.18 	"/>
	<polygon style="fill:#424242;" points="302.811,0 41.056,261.755 63.24,283.939 183.175,164.005 221.374,202.204 243.26,180.318 
		205.061,142.119 324.995,22.184 	"/>
</g>
<rect x="217.079" y="166.046" transform="matrix(-0.7071 0.7071 -0.7071 -0.7071 569.0134 177.6451)" style="fill:#8F8F8F;" width="61.273" height="81.247"/>
<rect x="221.564" y="176.878" transform="matrix(-0.7071 0.7071 -0.7071 -0.7071 558.1835 203.7948)" style="fill:#C2C2C2;" width="30.641" height="81.247"/>
<path style="fill:#FFAC00;" d="M317.386,140.247L213.165,244.468l18.714,76.272l23.747,23.747l165.035-165.035l-23.747-23.747
	l1.069-1.069l-14.389-14.389C365.311,121.965,335.669,121.965,317.386,140.247z"/>
<polygon style="fill:#FFD68B;" points="213.165,244.468 231.88,320.74 255.627,344.487 356.547,243.567 332.8,219.82 
	285.306,172.326 "/>
<path style="fill:#048F46;" d="M431.078,121.542L126.979,425.64l0,0l-78.91-50.131l-24.476,24.476L135.607,512l38.866-38.866
	L478.57,169.037c13.115-13.115,13.115-34.378,0-47.494C465.456,108.428,444.192,108.428,431.078,121.542z"/>
<path style="fill:#3DDB86;" d="M478.57,121.542c-13.115-13.115-34.378-13.115-47.494,0L126.979,425.64l0,0l-78.91-50.131
	l-24.476,24.476l88.267,88.267L478.57,121.542z"/>
</svg>