<?xml version="1.0" encoding="iso-8859-1"?>
<!-- Uploaded to: SVG Repo, www.svgrepo.com, Generator: SVG Repo Mixer Tools -->
<svg fill="#000000" height="800px" width="800px" version="1.1" id="Layer_1" xmlns="http://www.w3.org/2000/svg" xmlns:xlink="http://www.w3.org/1999/xlink" 
	 viewBox="0 0 512 512" xml:space="preserve">
<g>
	<g>
		<path d="M511.787,254.112C510.765,113.872,396.381,0.095,255.905,0.095C114.798,0.095,0,114.893,0,256
			c0,141.104,114.798,255.904,255.905,255.904c140.476,0,254.86-113.779,255.882-254.016c0.132-0.61,0.213-1.239,0.213-1.888
			C512,255.351,511.919,254.722,511.787,254.112z M248.104,494.077c-59.564-2.163-113.18-25.906-153.716-63.571l33.061-33.317
			l-12.606-12.476l-33.38,33.259c-37.664-40.537-61.473-93.698-63.635-153.262h88.343c4.415,75.007,64.72,136.609,141.932,141.023
			V494.077z M248.104,388.039c-66.182-4.367-119.87-57.147-124.237-123.329h79.842v0c3.73,22.061,22.334,39.757,44.395,43.488
			V388.039z M220.671,257.251c0.059-0.411,0.126-0.822,0.126-1.251c0-0.429-0.067-0.839-0.126-1.251
			c0.667-18.88,16.194-34.046,35.234-34.046c19.463,0,35.297,15.835,35.297,35.297c0,19.468-15.835,35.296-35.297,35.296
			C236.865,291.297,221.338,276.136,220.671,257.251z M308.101,264.71h79.841c-4.367,66.182-58.213,118.962-122.19,123.329v-79.841
			C287.814,304.466,304.371,286.77,308.101,264.71z M430.412,417.972l-33.318-33.29l-12.478,12.493l33.828,33.324
			c-40.535,37.663-95.333,61.415-152.691,63.578v-88.344c75.007-4.414,135.469-66.016,139.885-141.023h88.343
			C491.82,324.274,468.074,377.435,430.412,417.972z M308.101,247.061c-4.214-24.267-26.008-44.122-52.196-44.122
			s-47.982,19.855-52.196,44.122H17.829C22.49,119.108,127.487,17.629,255.905,17.629c128.418,0,233.416,101.48,238.076,229.432
			H308.101z"/>
	</g>
</g>
</svg>