<?xml version="1.0" encoding="iso-8859-1"?>
<!-- Uploaded to: SVG Repo, www.svgrepo.com, Generator: SVG Repo Mixer Tools -->
<svg fill="#000000" height="800px" width="800px" version="1.1" id="Layer_1" xmlns="http://www.w3.org/2000/svg" xmlns:xlink="http://www.w3.org/1999/xlink" 
	 viewBox="0 0 512 512" xml:space="preserve">
<g>
	<g>
		<path d="M303.608,12.939c-2.366-1.654-5.357-2.101-8.089-1.178c-2.732,0.902-4.884,3.036-5.795,5.759
			c-7.527,22.328-28.42,37.337-52.009,37.337c-10.109,0-19.658-2.777-27.895-7.632l25.895-32.368
			c3.152-3.944,2.509-9.694-1.429-12.857c-3.946-3.161-9.696-2.489-12.857,1.429l-25.596,31.995
			c-5.292-6.259-9.266-13.741-11.35-22.118c-0.696-2.786-2.67-5.089-5.322-6.208c-2.661-1.116-5.669-0.926-8.161,0.529
			c-27.554,16.078-47.598,41.75-56.437,72.286c-0.83,2.884-0.196,5.982,1.688,8.312c1.893,2.319,4.839,3.563,7.786,3.346
			c1.312-0.096,2.634-0.143,3.964-0.143c7.056,0,13.797,1.355,19.998,3.79L2.001,277.713c-3.152,3.949-2.509,9.696,1.429,12.857
			c1.688,1.35,3.705,2,5.705,2c2.688,0,5.339-1.179,7.152-3.429l147.504-184.379c11.663,10.067,19.067,24.942,19.067,41.522
			c0,19.636-10.598,37.895-27.661,47.654c-2.598,1.48-4.304,4.143-4.571,7.125c-0.268,2.973,0.937,5.891,3.232,7.812
			c22.161,18.598,50.322,28.837,79.286,28.837c68.062,0,123.428-55.364,123.428-123.428
			C356.572,73.93,336.777,36.037,303.608,12.939z M159.811,80.45c-7.299-3.54-15.261-5.917-23.658-6.85
			c7.331-17.545,19.259-32.696,34.643-44c3.341,7.589,7.935,14.41,13.444,20.314L159.811,80.45z M233.143,219.428
			c-20.625,0-40.777-6.096-57.857-17.346c16.197-13.768,25.857-34.152,25.857-55.797c0-22.348-10.076-42.386-25.922-55.812
			l23.074-28.839c11.46,7.321,25.025,11.509,39.42,11.509c27.197,0,51.714-14.962,64.33-38.275
			c22.875,19.875,36.241,48.81,36.241,79.417C338.286,172.258,291.116,219.428,233.143,219.428z"/>
	</g>
</g>
<g>
	<g>
		<path d="M365.714,310.856c-30.25,0-54.857,24.609-54.857,54.857c0,30.25,24.607,54.857,54.857,54.857
			c30.25,0,54.857-24.607,54.857-54.857C420.572,335.466,395.964,310.856,365.714,310.856z M365.714,402.285
			c-20.17,0-36.571-16.4-36.571-36.571c0-20.167,16.402-36.571,36.571-36.571c20.17,0,36.571,16.404,36.571,36.571
			C402.286,385.885,385.884,402.285,365.714,402.285z"/>
	</g>
</g>
<g>
	<g>
		<path d="M365.714,219.428c-80.66,0-146.286,65.627-146.286,146.286c0,80.663,65.625,146.286,146.286,146.286
			c80.661,0,146.286-65.623,146.286-146.286C512,285.055,446.375,219.428,365.714,219.428z M365.714,493.713
			c-70.58,0-128-57.418-128-128c0-70.58,57.42-128,128-128s128,57.42,128,128C493.714,436.296,436.295,493.713,365.714,493.713z"/>
	</g>
</g>
</svg>