<?xml version="1.0" encoding="iso-8859-1"?>
<!-- Uploaded to: SVG Repo, www.svgrepo.com, Generator: SVG Repo Mixer Tools -->
<svg version="1.1" id="Layer_1" xmlns="http://www.w3.org/2000/svg" xmlns:xlink="http://www.w3.org/1999/xlink" 
	 viewBox="0 0 512 512" xml:space="preserve">
<path style="fill:#B3B3B3;" d="M507.351,44.498c6.199,6.187,6.199,16.214,0,22.413L383.074,191.188l-22.413-22.413L484.937,44.498
	C491.125,38.299,501.163,38.299,507.351,44.498z"/>
<path style="fill:#999999;" d="M507.351,44.498c-1.678-1.681-3.643-2.889-5.733-3.658c2.066,5.616,0.857,12.162-3.66,16.679
	L373.681,181.795l9.393,9.393L507.351,66.911C513.55,60.712,513.55,50.685,507.351,44.498z"/>
<polygon style="fill:#06B559;" points="393.429,190.976 354.509,229.897 321.951,197.34 360.872,158.419 365.944,163.491 
	388.357,185.904 "/>
<rect id="SVGCleanerId_0" x="340.435" y="195.947" transform="matrix(-0.7071 0.7071 -0.7071 -0.7071 772.7002 88.8167)" style="fill:#0B9B53;" width="55.042" height="16.985"/>
<g>
	
		<rect id="SVGCleanerId_0_1_" x="340.435" y="195.947" transform="matrix(-0.7071 0.7071 -0.7071 -0.7071 772.7002 88.8167)" style="fill:#0B9B53;" width="55.042" height="16.985"/>
</g>
<polygon style="fill:#B3B3B3;" points="379.141,276.497 331.966,323.671 304.927,296.62 352.102,249.446 "/>
<polygon style="fill:#999999;" points="345.679,309.958 331.966,323.671 304.927,296.62 318.64,282.907 "/>
<path style="fill:#B3B3B3;" d="M292.259,91.344c8.947,8.935,8.947,23.435,0,32.369l-17.858,17.858l-32.369-32.369l17.858-17.858
	C268.824,82.397,283.324,82.397,292.259,91.344z"/>
<path style="fill:#999999;" d="M292.259,91.344c-1.527-1.529-3.225-2.777-5.023-3.783c4.882,8.715,3.634,19.939-3.783,27.347
	l-17.858,17.858l8.806,8.806l17.858-17.858C301.205,114.778,301.205,100.278,292.259,91.344z"/>
<path style="fill:#06B559;" d="M358.618,225.788l4.332,4.332c8.336,8.336,8.336,21.838,0,30.174l-47.175,47.175L157.345,465.9
	c-8.336,8.336-21.838,8.336-30.174,0L6.252,344.981c-8.336-8.336-8.336-21.85,0-30.186l205.605-205.594
	c8.324-8.336,21.838-8.336,30.174,0l32.369,32.369l51.66,51.66L358.618,225.788z"/>
<polygon style="fill:#0B9B53;" points="26.028,329.888 226.944,128.982 343.168,245.207 142.258,446.118 "/>
<g>
	
		<rect x="212.803" y="196.527" transform="matrix(-0.7072 -0.707 0.707 -0.7072 310.3283 539.1825)" style="fill:#4D4D4D;" width="108.015" height="17.611"/>
	
		<rect x="190.783" y="218.56" transform="matrix(-0.7071 -0.7072 0.7072 -0.7071 257.0941 561.2344)" style="fill:#4D4D4D;" width="108.022" height="17.612"/>
	
		<rect x="168.78" y="240.564" transform="matrix(-0.7072 -0.7071 0.7071 -0.7072 204.0203 583.2391)" style="fill:#4D4D4D;" width="108.022" height="17.612"/>
</g>
</svg>