<?xml version="1.0" encoding="iso-8859-1"?>
<!-- Uploaded to: SVG Repo, www.svgrepo.com, Generator: SVG Repo Mixer Tools -->
<svg height="800px" width="800px" version="1.1" id="Layer_1" xmlns="http://www.w3.org/2000/svg" xmlns:xlink="http://www.w3.org/1999/xlink" 
	 viewBox="0 0 512 512" xml:space="preserve">
<polygon style="fill:#06B559;" points="502.728,246.372 476.423,246.372 0,246.372 0,396.959 476.423,396.959 502.728,396.959 
	512,396.959 512,246.372 "/>
<g>
	<path style="fill:#F9CC73;" d="M79.918,159.71l-16.442,8.611l-14.871-8.611c0.012-25.324,4.099-50.554,12.154-74.933l2.209-6.721
		c0.413-1.24,2.173-1.24,2.587,0l2.221,6.721c4.028,12.213,7.063,24.639,9.095,37.171C78.89,134.445,79.906,147.071,79.918,159.71z"
		/>
	<polygon style="fill:#F9CC73;" points="82.965,196.763 92.946,222.737 63.476,235.056 35.577,222.737 45.569,196.763 
		46.16,196.964 61.704,187.219 82.363,196.964 	"/>
</g>
<g>
	<path style="fill:#FCBB29;" d="M82.965,159.71v37.053l-0.602,0.201H46.16l-0.591-0.201V159.71h3.036c0,0.047,0,0.083,0,0.13h31.313
		c0-0.047,0-0.083,0-0.13H82.965z"/>
	<path style="fill:#FCBB29;" d="M92.946,396.959v28.32c0,5.3-4.296,9.596-9.596,9.596H45.173c-5.3,0-9.596-4.296-9.596-9.596v-28.32
		V246.372v-23.635h57.369v23.635V396.959z"/>
</g>
<g>
	<path style="fill:#F9CC73;" d="M463.395,159.71l-16.442,8.611l-14.871-8.611c0.012-25.324,4.099-50.554,12.154-74.933l2.209-6.721
		c0.413-1.24,2.173-1.24,2.587,0l2.221,6.721c4.028,12.213,7.063,24.639,9.095,37.171
		C462.367,134.445,463.383,147.071,463.395,159.71z"/>
	<polygon style="fill:#F9CC73;" points="466.442,196.763 476.423,222.737 446.953,235.056 419.054,222.737 429.047,196.763 
		429.637,196.964 445.181,187.219 465.84,196.964 	"/>
</g>
<g>
	<path style="fill:#FCBB29;" d="M466.442,159.71v37.053l-0.602,0.201h-36.203l-0.591-0.201V159.71h3.036c0,0.047,0,0.083,0,0.13
		h31.313c0-0.047,0-0.083,0-0.13H466.442z"/>
	<path style="fill:#FCBB29;" d="M476.423,396.959v28.32c0,5.3-4.296,9.596-9.596,9.596h-38.176c-5.3,0-9.596-4.296-9.596-9.596
		v-28.32V246.372v-23.635h57.369v23.635v150.587H476.423z"/>
</g>
<g>
	<path style="fill:#F9CC73;" d="M175.787,159.71l-16.442,8.611l-14.871-8.611c0.012-25.324,4.099-50.554,12.154-74.933l2.209-6.721
		c0.413-1.24,2.173-1.24,2.587,0l2.221,6.721c4.028,12.213,7.063,24.639,9.095,37.171
		C174.759,134.445,175.775,147.071,175.787,159.71z"/>
	<polygon style="fill:#F9CC73;" points="178.834,196.763 188.815,222.737 159.345,235.056 131.446,222.737 141.439,196.763 
		142.029,196.964 157.573,187.219 178.232,196.964 	"/>
</g>
<g>
	<path style="fill:#FCBB29;" d="M178.834,159.71v37.053l-0.602,0.201h-36.203l-0.591-0.201V159.71h3.036c0,0.047,0,0.083,0,0.13
		h31.313c0-0.047,0-0.083,0-0.13H178.834z"/>
	<path style="fill:#FCBB29;" d="M188.815,396.959v28.32c0,5.3-4.296,9.596-9.596,9.596h-38.176c-5.3,0-9.596-4.296-9.596-9.596
		v-28.32V246.372v-23.635h57.369v23.635v150.587H188.815z"/>
</g>
<g>
	<path style="fill:#F9CC73;" d="M271.656,159.71l-16.442,8.611l-14.871-8.611c0.012-25.324,4.099-50.554,12.154-74.933l2.209-6.721
		c0.413-1.24,2.173-1.24,2.587,0l2.221,6.721c4.028,12.213,7.063,24.639,9.095,37.171
		C270.629,134.445,271.645,147.071,271.656,159.71z"/>
	<polygon style="fill:#F9CC73;" points="274.704,196.763 284.685,222.737 255.215,235.056 227.315,222.737 237.308,196.763 
		237.899,196.964 253.443,187.219 274.101,196.964 	"/>
</g>
<g>
	<path style="fill:#FCBB29;" d="M274.704,159.71v37.053l-0.602,0.201h-36.203l-0.591-0.201V159.71h3.036c0,0.047,0,0.083,0,0.13
		h31.313c0-0.047,0-0.083,0-0.13H274.704z"/>
	<path style="fill:#FCBB29;" d="M284.685,396.959v28.32c0,5.3-4.296,9.596-9.596,9.596h-38.176c-5.3,0-9.596-4.296-9.596-9.596
		v-28.32V246.372v-23.635h57.369v23.635v150.587H284.685z"/>
</g>
<g>
	<path style="fill:#F9CC73;" d="M367.526,159.71l-16.442,8.611l-14.871-8.611c0.012-25.324,4.099-50.554,12.154-74.933l2.209-6.721
		c0.413-1.24,2.173-1.24,2.587,0l2.221,6.721c4.028,12.213,7.063,24.639,9.095,37.171
		C366.498,134.445,367.514,147.071,367.526,159.71z"/>
	<polygon style="fill:#F9CC73;" points="370.573,196.763 380.554,222.737 351.084,235.056 323.185,222.737 333.177,196.763 
		333.768,196.964 349.312,187.219 369.971,196.964 	"/>
</g>
<g>
	<path style="fill:#FCBB29;" d="M370.573,159.71v37.053l-0.602,0.201h-36.203l-0.591-0.201V159.71h3.036c0,0.047,0,0.083,0,0.13
		h31.313c0-0.047,0-0.083,0-0.13H370.573z"/>
	<path style="fill:#FCBB29;" d="M380.554,396.959v28.32c0,5.3-4.296,9.596-9.596,9.596h-38.176c-5.3,0-9.596-4.296-9.596-9.596
		v-28.32V246.372v-23.635h57.369v23.635v150.587H380.554z"/>
</g>
<g>
	<polygon style="fill:#06B559;" points="502.728,366.851 476.423,366.851 0,366.851 0,380.423 476.423,380.423 502.728,380.423 
		512,380.423 512,366.851 	"/>
	<polygon style="fill:#06B559;" points="502.728,262.35 476.423,262.35 0,262.35 0,275.921 476.423,275.921 502.728,275.921 
		512,275.921 512,262.35 	"/>
</g>
</svg>