<?xml version="1.0" encoding="iso-8859-1"?>
<!-- Uploaded to: SVG Repo, www.svgrepo.com, Generator: SVG Repo Mixer Tools -->
<svg height="800px" width="800px" version="1.1" id="Layer_1" xmlns="http://www.w3.org/2000/svg" xmlns:xlink="http://www.w3.org/1999/xlink" 
	 viewBox="0 0 512 512" xml:space="preserve">
<path style="fill:#06B559;" d="M454.492,57.508L454.492,57.508c-63.302-63.302-165.936-63.302-229.238,0L57.508,225.254
	c-63.302,63.302-63.302,165.936,0,229.237l0,0c63.302,63.302,165.936,63.302,229.237,0L454.49,286.745
	C517.794,223.444,517.794,120.811,454.492,57.508z M415.184,116.687c-10.974,0-19.871-8.897-19.871-19.871
	s8.897-19.871,19.871-19.871c10.974,0,19.871,8.897,19.871,19.871S426.158,116.687,415.184,116.687z"/>
<path style="fill:#F2F2F2;" d="M455.696,167.659c-28.193-1.077-56.067-12.334-77.544-33.811
	c-21.477-21.477-32.733-49.351-33.811-77.544c-31.172-1.192-62.736,10.064-86.482,33.809L90.115,257.859
	c-45.222,45.222-45.222,118.803,0,164.026c45.222,45.222,118.803,45.222,164.025,0L421.885,254.14
	C445.631,230.395,456.886,198.831,455.696,167.659z"/>
<path style="fill:#CCCCCC;" d="M172.127,427.486c-23.452,0-45.467-9.1-61.99-25.623s-25.623-38.539-25.623-61.992
	c0-23.452,9.1-45.467,25.622-61.99l167.747-167.745c11.788-11.788,26.38-19.794,42.303-23.409
	c6.252,25.263,19.252,48.45,37.945,67.144c18.701,18.701,41.898,31.702,67.171,37.951c-3.592,15.889-11.58,30.438-23.438,42.296
	L234.118,401.863C217.595,418.386,195.58,427.486,172.127,427.486z"/>
<g>
	<path style="fill:#333333;" d="M461.642,50.358c-67.144-67.144-176.395-67.144-243.539,0L50.358,218.103
		c-67.144,67.144-67.144,176.395,0,243.539C83.93,495.214,128.029,512,172.127,512s88.198-16.786,121.769-50.358l167.745-167.745
		C528.786,226.753,528.786,117.502,461.642,50.358z M447.341,279.595L279.595,447.34c-28.706,28.706-66.872,44.514-107.467,44.514
		s-78.763-15.81-107.469-44.515c-59.257-59.259-59.257-155.677,0-214.936L232.404,64.659
		c29.629-29.629,68.549-44.443,107.469-44.443s77.839,14.815,107.469,44.443C506.598,123.917,506.598,220.336,447.341,279.595z"/>
	<path style="fill:#333333;" d="M465.802,167.272c-0.202-5.282-4.438-9.518-9.719-9.719c-26.768-1.022-51.903-11.98-70.779-30.855
		c-18.875-18.876-29.833-44.012-30.856-70.78c-0.202-5.282-4.438-9.517-9.719-9.719c-35.051-1.339-69.315,12.06-94.018,36.765
		L82.963,250.708c-49.165,49.165-49.165,129.163,0,178.327c24.582,24.582,56.873,36.874,89.163,36.874s64.582-12.29,89.163-36.874
		L429.034,261.29C453.739,236.588,467.141,202.319,465.802,167.272z M414.735,246.989L246.989,414.735
		c-41.279,41.278-108.445,41.278-149.724,0c-41.279-41.279-41.279-108.445,0-149.724L265.011,97.265
		c18.621-18.621,43.728-29.589,69.973-30.816c3.254,28.193,15.838,54.371,36.018,74.552c20.18,20.18,46.357,32.764,74.551,36.017
		C444.323,203.263,433.356,228.368,414.735,246.989z"/>
	<path style="fill:#333333;" d="M310.002,124.886c-3.949-3.949-10.353-3.949-14.301,0L124.886,295.7
		c-3.949,3.949-3.949,10.353,0,14.301c1.974,1.974,4.563,2.962,7.15,2.962s5.176-0.987,7.15-2.962l170.814-170.814
		C313.951,135.238,313.951,128.835,310.002,124.886z"/>
	<path style="fill:#333333;" d="M348.558,163.443c-3.949-3.949-10.353-3.949-14.301,0L163.443,334.257
		c-3.949,3.949-3.949,10.353,0,14.301c1.974,1.974,4.563,2.962,7.15,2.962c2.588,0,5.176-0.987,7.15-2.962l170.814-170.814
		C352.508,173.794,352.508,167.391,348.558,163.443z"/>
	<path style="fill:#333333;" d="M201.998,387.114c1.974,1.974,4.563,2.962,7.15,2.962c2.588,0,5.176-0.987,7.15-2.962
		l170.814-170.815c3.949-3.949,3.949-10.353,0-14.301c-3.949-3.949-10.353-3.949-14.301,0L201.998,372.814
		C198.049,376.762,198.049,383.165,201.998,387.114z"/>
	<path style="fill:#333333;" d="M415.184,126.8c16.534,0,29.984-13.451,29.984-29.984s-13.451-29.984-29.984-29.984
		c-16.532,0-29.984,13.451-29.984,29.984S398.651,126.8,415.184,126.8z M415.184,87.057c5.381,0,9.758,4.378,9.758,9.758
		s-4.378,9.758-9.758,9.758c-5.38,0-9.758-4.378-9.758-9.758S409.804,87.057,415.184,87.057z"/>
</g>
</svg>