<?xml version="1.0" encoding="iso-8859-1"?>
<!-- Uploaded to: SVG Repo, www.svgrepo.com, Generator: SVG Repo Mixer Tools -->
<svg fill="#000000" version="1.1" id="Layer_1" xmlns="http://www.w3.org/2000/svg" xmlns:xlink="http://www.w3.org/1999/xlink" 
	 viewBox="0 0 511.999 511.999" xml:space="preserve">
<g>
	<g>
		<path d="M445.643,112.774v-57.91H329.495v57.909h-15.468V54.863h-42.865V35.666c0-19.667-16-35.666-35.666-35.666h-90.701
			c-19.666,0-35.666,15.999-35.666,35.666v19.197H66.264v92.232H43.769v30.417h22.496v156.973H43.769v30.417h22.496v92.232h116.148
			v-92.232h15.467v92.232h42.865v19.198c0,19.667,15.999,35.666,35.666,35.666h90.701c19.666,0,35.666-15.999,35.666-35.666v-19.197
			h42.865v-92.232h22.497v-30.417h-22.497v-63.148h22.588V112.774H445.643z M359.913,85.281h55.314v27.492h-55.314V85.281z
			 M283.611,85.281v27.493h-0.001h-32.726v34.323h-22.587V85.281H283.611z M283.61,271.339v63.147h-55.314V177.514h22.587v93.826
			H283.61z M151.995,426.718H96.681v-61.815h55.314V426.718z M151.995,334.486H96.681V177.514h55.314V334.486z M151.995,147.095
			H96.681V85.281h55.314V147.095z M197.879,334.486h-15.467V177.514h15.467V334.486z M197.881,147.095h-15.467V54.863h-42.865
			V35.666h-0.002c0-2.895,2.354-5.249,5.249-5.249h90.701c2.894,0,5.249,2.354,5.249,5.249v19.197h-42.865V147.095z
			 M228.297,426.718v-61.815h55.314v61.815H228.297z M367.111,481.582H276.41c-2.894,0-5.249-2.354-5.249-5.249v-19.197h42.865
			v-92.232h15.468v92.232h42.865v19.197h0.001C372.36,479.228,370.006,481.582,367.111,481.582z M314.027,334.486v-63.148h15.468
			v63.148H314.027z M415.225,426.718h-55.314v-61.815h55.314V426.718z M415.225,334.486h-55.314v-63.148h55.314V334.486z
			 M437.813,240.922H329.495h-15.468h-32.726v-97.731h32.726h15.468h108.318V240.922z"/>
	</g>
</g>
<g>
	<g>
		<rect x="305.388" y="176.845" width="108.336" height="30.417"/>
	</g>
</g>
</svg>