<?xml version="1.0" encoding="iso-8859-1"?>
<!-- Uploaded to: SVG Repo, www.svgrepo.com, Generator: SVG Repo Mixer Tools -->
<svg version="1.1" id="Layer_1" xmlns="http://www.w3.org/2000/svg" xmlns:xlink="http://www.w3.org/1999/xlink" 
	 viewBox="0 0 512 512" xml:space="preserve">
<circle style="fill:#048F46;" cx="256" cy="256" r="256"/>
<path style="fill:#3DDB86;" d="M256,0C114.615,0,0,114.615,0,256s114.615,256,256,256V0z"/>
<g>
	<path style="fill:#424242;" d="M256,433.558c-97.906,0-177.558-79.652-177.558-177.558S158.094,78.442,256,78.442
		c47.43,0,92.02,18.471,125.556,52.008l-22.168,22.165c-27.615-27.618-64.332-42.826-103.388-42.826
		c-80.621,0-146.212,65.589-146.212,146.212S175.379,402.211,256,402.211S402.211,336.621,402.211,256h31.347
		C433.558,353.906,353.906,433.558,256,433.558z"/>
	<path style="fill:#424242;" d="M256,339.443c-46.011,0-83.443-37.432-83.443-83.443s37.432-83.443,83.443-83.443
		c22.29,0,43.245,8.681,59.006,24.442l-22.168,22.165c-9.839-9.841-22.923-15.26-36.839-15.26c-28.726,0-52.097,23.37-52.097,52.097
		c0,28.726,23.37,52.097,52.097,52.097s52.097-23.37,52.097-52.097h31.347C339.443,302.011,302.011,339.443,256,339.443z"/>
</g>
<circle style="fill:#EE2712;" cx="405.598" cy="194.038" r="19.59"/>
<rect x="344.209" y="5.199" transform="matrix(-0.7071 -0.7071 0.7071 -0.7071 506.7961 514.1537)" style="fill:#EAEAEA;" width="31.347" height="293.833"/>
</svg>