<?xml version="1.0" encoding="iso-8859-1"?>
<!-- Uploaded to: SVG Repo, www.svgrepo.com, Generator: SVG Repo Mixer Tools -->
<svg height="800px" width="800px" version="1.1" id="Layer_1" xmlns="http://www.w3.org/2000/svg" xmlns:xlink="http://www.w3.org/1999/xlink" 
	 viewBox="0 0 511.999 511.999" xml:space="preserve">
<path style="fill:#666666;" d="M376.18,13.639L360.224,116.91l48.293-23.815l44.099-39.184L403.432,4.728
	C394.125-4.579,378.19,0.632,376.18,13.639z"/>
<g>
	<path style="fill:#808080;" d="M458.091,59.387l-46.323,42.162l-16.677,50.229l103.271-15.957
		c13.007-2.01,18.218-17.945,8.911-27.252L458.091,59.387z"/>
	<polygon style="fill:#808080;" points="164.543,251.141 39.234,376.462 68.548,441.395 135.54,472.755 260.849,347.446 
		253.868,261.927 	"/>
</g>
<polygon style="fill:#B3B3B3;" points="360.225,116.91 167.132,248.565 164.543,251.141 260.849,347.446 263.424,344.858 
	395.092,151.778 392.371,117.573 "/>
<polygon style="fill:#999999;" points="385.758,118.455 395.092,151.778 263.424,344.858 260.849,347.446 233.26,319.857 
	235.836,317.269 "/>
<polygon style="fill:#4D4D4D;" points="452.616,53.911 360.225,116.91 395.092,151.778 458.091,59.387 "/>
<path style="fill:#FCBB29;" d="M135.54,472.755l-96.307-96.293l-0.65,0.65l-20.055,20.055c-2.133,2.133-4.175,4.63-6.099,7.44
	c-42.659,61.686,33.269,137.612,94.967,94.966c2.796-1.938,5.293-3.98,7.426-6.113l20.067-20.055L135.54,472.755z"/>
<polygon style="fill:#666666;" points="107.952,445.166 233.26,319.857 260.849,347.446 135.54,472.755 39.234,376.462 
	39.236,376.46 "/>
<path style="fill:#D39A29;" d="M79.808,471.984c2.796-1.938,5.293-3.98,7.426-6.113l20.067-20.055l0.648-0.648l27.591,27.588
	l-0.65,0.65l-20.067,20.053c-2.133,2.133-4.63,4.175-7.426,6.113c-37.572,25.97-80.42,7.967-98.552-24.013
	C29.381,487.204,55.682,488.659,79.808,471.984z"/>
</svg>