<?xml version="1.0" encoding="iso-8859-1"?>
<!-- Uploaded to: SVG Repo, www.svgrepo.com, Generator: SVG Repo Mixer Tools -->
<svg fill="#000000" version="1.1" id="Layer_1" xmlns="http://www.w3.org/2000/svg" xmlns:xlink="http://www.w3.org/1999/xlink" 
	 viewBox="0 0 512 512" xml:space="preserve">
<g>
	<g>
		<path d="M459.409,52.591C425.494,18.677,380.403,0,332.442,0S239.39,18.677,205.476,52.591L52.591,205.477
			c-70.009,70.009-70.009,183.922,0,253.932C86.505,493.323,131.596,512,179.557,512s93.052-18.677,126.966-52.592l152.885-152.884
			C529.418,236.514,529.418,122.601,459.409,52.591z M437.899,285.015L285.014,437.9c-28.169,28.168-65.622,43.682-105.458,43.682
			c-39.836,0-77.289-15.514-105.457-43.682c-58.149-58.15-58.149-152.766,0-210.916L226.984,74.099
			c28.169-28.168,65.622-43.682,105.458-43.682c39.837,0,77.289,15.514,105.457,43.682
			C496.048,132.25,496.048,226.865,437.899,285.015z"/>
	</g>
</g>
<g>
	<g>
		<path d="M423.561,88.44c-24.305-24.305-56.665-37.69-91.12-37.69c-34.453,0-66.814,13.385-91.118,37.69L88.439,241.323
			c-50.243,50.243-50.243,131.995,0,182.238c24.304,24.305,56.664,37.69,91.118,37.69s66.815-13.385,91.12-37.69l152.884-152.884
			C473.805,220.435,473.805,138.683,423.561,88.44z M402.053,249.169L249.169,402.053c-18.56,18.56-43.283,28.781-69.612,28.781
			s-51.051-10.221-69.611-28.781c-38.383-38.383-38.383-100.839,0-139.222l152.884-152.883c18.56-18.56,43.281-28.781,69.611-28.781
			c26.33,0,51.051,10.221,69.612,28.78C440.437,148.331,440.437,210.785,402.053,249.169z"/>
	</g>
</g>
<g>
	<g>
		<path d="M387.714,124.287c-7.455-7.455-17.369-11.562-27.913-11.562c-10.544,0-20.457,4.105-27.913,11.56
			c-7.455,7.455-11.562,17.369-11.562,27.913s4.106,20.458,11.562,27.913c7.455,7.455,17.369,11.562,27.913,11.562
			c10.545,0,20.458-4.106,27.913-11.562c7.455-7.455,11.562-17.369,11.562-27.913S395.17,131.743,387.714,124.287z M366.206,158.603
			c-1.71,1.71-3.986,2.652-6.405,2.652c-2.419,0-4.694-0.942-6.405-2.652c-1.711-1.71-2.652-3.985-2.652-6.405
			c0-2.418,0.942-4.693,2.652-6.404c1.71-1.71,3.985-2.652,6.405-2.652s4.694,0.941,6.405,2.653c1.71,1.709,2.652,3.984,2.652,6.403
			C368.858,154.617,367.916,156.892,366.206,158.603z"/>
	</g>
</g>
<g>
	<g>
		
			<rect x="91.885" y="211.362" transform="matrix(0.7071 -0.7071 0.7071 0.7071 -100.1482 211.3607)" width="226.352" height="30.417"/>
	</g>
</g>
<g>
	<g>
		
			<rect x="114.104" y="264.451" transform="matrix(0.7071 -0.7071 0.7071 0.7071 -129.6958 246.2062)" width="236.491" height="30.417"/>
	</g>
</g>
<g>
	<g>
		
			<rect x="172.247" y="291.723" transform="matrix(0.7071 -0.7071 0.7071 0.7071 -133.4349 291.7226)" width="226.352" height="30.417"/>
	</g>
</g>
</svg>