<?xml version="1.0" encoding="iso-8859-1"?>
<!-- Uploaded to: SVG Repo, www.svgrepo.com, Generator: SVG Repo Mixer Tools -->
<svg fill="#000000" height="800px" width="800px" version="1.1" id="Layer_1" xmlns="http://www.w3.org/2000/svg" xmlns:xlink="http://www.w3.org/1999/xlink" 
	 viewBox="0 0 512 512" xml:space="preserve">
<g>
	<g>
		<path d="M476.413,220.415h-22.285C449.887,117.633,367.056,34.801,264.274,30.56V8.276c0-4.571-3.704-8.276-8.276-8.276
			c-4.572,0-8.276,3.705-8.276,8.276V30.56C144.941,34.801,62.109,117.633,57.867,220.415H35.584c-4.572,0-8.276,3.705-8.276,8.276
			c0,4.571,3.704,8.276,8.276,8.276h22.285c4.242,102.782,87.073,185.613,189.855,189.855v76.902c0,4.571,3.704,8.276,8.276,8.276
			c4.572,0,8.276-3.706,8.276-8.276v-76.902c102.781-4.242,185.613-87.073,189.855-189.855h22.285c4.572,0,8.276-3.706,8.276-8.276
			C484.692,224.12,480.984,220.415,476.413,220.415z M247.722,410.259C154.069,406.04,78.65,330.621,74.431,236.967h72.473
			c4.039,53.742,47.075,96.779,100.818,100.818V410.259z M247.723,321.155c-44.606-3.96-80.228-39.583-84.188-84.188h47.665
			c3.411,18.5,18.023,33.113,36.524,36.524V321.155z M247.723,256.496c-9.354-2.79-16.74-10.175-19.529-19.529h19.529V256.496z
			 M228.192,220.415c2.79-9.354,10.176-16.74,19.529-19.529v19.529H228.192z M211.199,220.415h-47.666
			c3.96-44.606,39.584-80.228,84.188-84.188v47.665h0.001C229.223,187.3,214.61,201.914,211.199,220.415z M247.723,119.597
			c-53.744,4.039-96.779,47.075-100.818,100.818H74.431C78.65,126.76,154.069,51.341,247.723,47.123V119.597z M264.275,136.225
			c44.606,3.96,80.228,39.584,84.188,84.188h-47.665v0.001c-3.411-18.5-18.023-33.113-36.524-36.524V136.225z M264.275,200.885
			c9.354,2.79,16.74,10.176,19.529,19.529h-19.529V200.885z M264.275,236.967h19.529c-2.79,9.354-10.175,16.74-19.529,19.529
			V236.967z M300.799,236.967h47.666c-3.96,44.606-39.584,80.228-84.188,84.188v-47.665h-0.001
			C282.775,270.081,297.388,255.468,300.799,236.967z M264.275,410.259v-72.474c53.744-4.039,96.779-47.075,100.818-100.818h72.473
			C433.347,330.621,357.929,406.04,264.275,410.259z M365.093,220.415c-4.039-53.743-47.075-96.779-100.818-100.818V47.123
			c93.654,4.219,169.072,79.638,173.291,173.292H365.093z"/>
	</g>
</g>
</svg>