<?xml version="1.0" encoding="iso-8859-1"?>
<!-- Uploaded to: SVG Repo, www.svgrepo.com, Generator: SVG Repo Mixer Tools -->
<svg height="800px" width="800px" version="1.1" id="Layer_1" xmlns="http://www.w3.org/2000/svg" xmlns:xlink="http://www.w3.org/1999/xlink" 
	 viewBox="0 0 512 512" xml:space="preserve">
<circle style="fill:#424242;" cx="256" cy="256" r="256"/>
<path style="fill:#707070;" d="M256,0C114.615,0,0,114.615,0,256s114.615,256,256,256V0z"/>
<path style="fill:#C2C2C2;" d="M256,219.429c-20.165,0-36.571,16.406-36.571,36.571c0,20.166,16.406,36.571,36.571,36.571
	c20.166,0,36.571-16.406,36.571-36.571S276.165,219.429,256,219.429z"/>
<path style="fill:#FFD68B;" d="M43.449,266.449V256c0-37.901,10.148-75.135,29.346-107.679
	c18.623-31.568,45.227-57.97,76.937-76.347l9.055-5.249l71.163,123.257l-9.025,5.231c-21.678,12.565-35.145,35.857-35.145,60.787
	v10.449H43.449V266.449z"/>
<g>
	<path style="fill:#FFAC00;" d="M326.219,266.449V256c0-24.929-13.467-48.221-35.145-60.787l-9.025-5.231l71.163-123.257
		l9.055,5.249c31.71,18.378,58.314,44.778,76.937,76.347c19.198,32.543,29.346,69.777,29.346,107.679v10.449H326.219V266.449z"/>
	<path style="fill:#FFAC00;" d="M256,468.551c-37.324,0-74.071-9.863-106.268-28.525l-9.026-5.232l71.164-123.257l9.055,5.249
		c10.646,6.17,22.776,9.432,35.074,9.432s24.428-3.262,35.074-9.432l9.055-5.249l71.164,123.257l-9.026,5.232
		C330.071,458.688,293.324,468.551,256,468.551z"/>
</g>
<path style="fill:#FFD68B;" d="M256,326.219c-12.299,0-24.428-3.262-35.074-9.432l-9.055-5.249l-71.165,123.256l9.026,5.232
	c32.197,18.661,68.944,28.525,106.268,28.525V326.219z"/>
<path style="fill:#EAEAEA;" d="M256,219.429c-20.165,0-36.571,16.406-36.571,36.571c0,20.166,16.406,36.571,36.571,36.571V219.429z"
	/>
</svg>