<?xml version="1.0" encoding="iso-8859-1"?>
<!-- Uploaded to: SVG Repo, www.svgrepo.com, Generator: SVG Repo Mixer Tools -->
<svg version="1.1" id="Layer_1" xmlns="http://www.w3.org/2000/svg" xmlns:xlink="http://www.w3.org/1999/xlink" 
	 viewBox="0 0 512.001 512.001" xml:space="preserve">
<circle style="fill:#F2F2F2;" cx="255.996" cy="227.783" r="196.389"/>
<g>
	<path style="fill:#F95428;" d="M256.002,429.869c-111.434,0-202.091-90.657-202.091-202.091S144.568,25.687,256.002,25.687
		s202.091,90.657,202.091,202.091C458.092,339.211,367.435,429.869,256.002,429.869z M256.002,37.091
		c-105.145,0-190.688,85.543-190.688,190.688s85.543,190.688,190.688,190.688s190.688-85.543,190.688-190.688
		C446.688,122.633,361.147,37.091,256.002,37.091z"/>
	<path style="fill:#F95428;" d="M256.002,272.017c-24.393,0-44.238-19.845-44.238-44.237c0-24.393,19.845-44.238,44.238-44.238
		s44.238,19.845,44.238,44.238C300.24,252.171,280.394,272.017,256.002,272.017z M256.002,194.943
		c-18.105,0-32.835,14.73-32.835,32.835s14.73,32.834,32.835,32.834s32.835-14.73,32.835-32.834S274.107,194.943,256.002,194.943z"
		/>
</g>
<g>
	<rect x="247.455" style="fill:#666666;" width="17.105" height="512.001"/>
	<rect x="28.223" y="219.23" style="fill:#666666;" width="455.554" height="17.105"/>
</g>
<path style="fill:#F95428;" d="M256.002,337.988c-60.77,0-110.209-49.439-110.209-110.209s49.439-110.209,110.209-110.209
	s110.209,49.439,110.209,110.209S316.772,337.988,256.002,337.988z M256.002,128.972c-54.482,0-98.806,44.325-98.806,98.806
	s44.324,98.806,98.806,98.806s98.806-44.324,98.806-98.806S310.484,128.972,256.002,128.972z"/>
</svg>