<?xml version="1.0" encoding="iso-8859-1"?>
<!-- Uploaded to: SVG Repo, www.svgrepo.com, Generator: SVG Repo Mixer Tools -->
<svg height="800px" width="800px" version="1.1" id="Layer_1" xmlns="http://www.w3.org/2000/svg" xmlns:xlink="http://www.w3.org/1999/xlink" 
	 viewBox="0 0 512 512" xml:space="preserve">
<path style="fill:#088443;" d="M390.769,8.631v422.388c0,3.092-1.655,5.948-4.336,7.486l-126.139,72.351
	c-2.659,1.526-5.928,1.526-8.588,0l-126.139-72.351c-2.683-1.538-4.336-4.394-4.336-7.486V8.631c0-4.767,3.864-8.631,8.631-8.631
	h252.279C386.905,0,390.769,3.864,390.769,8.631z"/>
<polygon style="fill:#06B559;" points="137.176,426.78 137.176,15.946 374.824,15.946 374.824,426.78 255.999,494.935 "/>
<path style="fill:#088443;" d="M255.999,480.506c-15.387,0-27.906-12.519-27.906-27.906s12.519-27.906,27.906-27.906
	s27.906,12.519,27.906,27.906S271.386,480.506,255.999,480.506z"/>
<path style="fill:#FCBB29;" d="M255.999,433.281c10.659,0,19.319,8.648,19.319,19.319s-8.66,19.319-19.319,19.319
	c-10.672,0-19.319-8.648-19.319-19.319S245.328,433.281,255.999,433.281z"/>
<polygon style="fill:#088443;" points="359.512,155.29 307.75,205.744 319.967,276.984 255.999,243.339 192.02,276.984 
	204.238,205.744 152.488,155.29 224.003,144.904 255.999,80.086 287.984,144.904 "/>
<polygon style="fill:#FCBB29;" points="294.565,201.461 303.68,254.562 255.999,229.477 208.309,254.562 217.41,201.461 
	178.845,163.853 232.142,156.113 255.999,107.808 279.833,156.113 333.143,163.853 "/>
<polygon style="fill:#E2A334;" points="255.999,107.808 255.999,229.477 208.309,254.562 217.41,201.461 178.845,163.853 
	232.142,156.113 "/>
</svg>