<?xml version="1.0" encoding="iso-8859-1"?>
<!-- Uploaded to: SVG Repo, www.svgrepo.com, Generator: SVG Repo Mixer Tools -->
<svg fill="#000000" height="800px" width="800px" version="1.1" id="Layer_1" xmlns="http://www.w3.org/2000/svg" xmlns:xlink="http://www.w3.org/1999/xlink" 
	 viewBox="0 0 512 512" xml:space="preserve">
<g>
	<g>
		<path d="M478.426,131.092c-15.611,0-28.727,10.436-32.469,25.125h-16.918v-25.07c0-4.639-4.732-8.504-9.367-8.504h-24.207V89.106
			c0-13.844-11.295-25.107-25.18-25.107s-25.18,11.262-25.18,25.107v33.537h-16.787V89.106c0-13.844-11.295-25.107-25.18-25.107
			c-13.885,0-25.18,11.262-25.18,25.107v33.537h-17.76c0-4.197-3.758-8.393-8.393-8.393H101.694V89.18
			c0-4.639-3.758-8.393-8.393-8.393c-4.635,0-8.393,3.754-8.393,8.393v25.07H55.581c-27.815,0-50.412,22.709-50.412,50.48v8.377
			c0,24.984,18.7,46.107,42.864,49.803c8.287,31.73,11.163,55.271,7.901,65.057c-1.525,4.582-8.512,14.139-15.906,24.262
			C19.622,340.156-8.323,378.41,2.354,408.91c5.369,15.328,19.684,26.263,42.54,32.5c16.111,4.394,30.712,6.59,43.753,6.59
			c17.189,0,31.656-3.82,43.246-11.434c20.889-13.73,24.111-34.754,24.23-35.582c7.195-47.951,16.493-83.9,25.915-110.734
			c8.306,3.637,36.452,15.217,58.352,15.217c7.201,0,13.729-1.254,18.652-4.451c4.356-2.836,9.549-8.393,9.549-18.787
			c0-23.877-4.951-30.779-22.07-30.779c-4.754,0-10.143,0-17.242-2.361c-4.266-1.426-4.865-3.375-5.119-4.187
			c-1.595-5.084,2.635-15.244,6.894-21.539h20.749c4.635,0,8.393-4.197,8.393-8.393h17.76v25.365
			c0,13.844,11.295,25.107,25.18,25.107c13.885,0,25.18-11.262,25.18-25.107v-25.365h16.787v25.365
			c0,13.844,11.295,25.107,25.18,25.107s25.18-11.262,25.18-25.107v-25.365h24.207c4.635,0,9.367-3.643,9.367-8.283v-33.684h16.918
			c3.742,14.689,16.859,25.236,32.469,25.236c18.512,0,33.574-15.057,33.574-33.574C512,146.149,496.939,131.092,478.426,131.092z
			 M223.967,265.008c9.689,3.23,17.43,3.23,22.553,3.23c1.361,0,3.123,0,4.156,0.106c0.443,1.312,1.127,4.812,1.127,13.885
			c0,3.467-1.242,4.271-1.91,4.705c-9.385,6.123-42.447-3.771-61.832-12.377c-0.032-0.014-0.066-0.018-0.097-0.033
			c7.055-17.375,13.944-29.922,19.829-38.832c-0.963,4.764-1.09,9.68,0.342,14.266C209.692,254.934,213.7,261.59,223.967,265.008z
			 M244.383,206.578h-31.1v0c-2.287,0-4.475,0.99-6.057,2.637c-17.406,18.148-49.344,66.879-67.709,189.306
			c-0.021,0.148-2.443,14.539-16.84,23.998c-15.967,10.492-41.336,11.424-73.365,2.687c-17.213-4.697-27.68-12.045-31.115-21.849
			c-7.762-22.172,18.201-57.711,35.381-81.228c8.893-12.18,15.922-21.795,18.275-28.853c4.668-14.016,1.594-41.066-9.143-80.418
			c-0.98-3.582-4.179-6.09-7.892-6.18c-18.127-0.41-32.86-15.465-32.86-33.572v-8.377c0-18.516,15.063-33.693,33.625-33.693h188.802
			V206.578z M277.957,198.184H261.17V139.43h16.787V198.184z M311.53,240.336c0,4.664-3.688,8.32-8.393,8.32
			c-4.627,0-8.393-3.729-8.393-8.32V89.106c0-4.664,3.689-8.32,8.393-8.32c4.627,0,8.393,3.73,8.393,8.32V240.336z M345.104,198.184
			h-16.787V139.43h16.787V198.184z M378.678,240.336c0,4.664-3.689,8.32-8.393,8.32c-4.627,0-8.393-3.729-8.393-8.32V89.106
			c0-4.664,3.688-8.32,8.393-8.32c4.627,0,8.393,3.73,8.393,8.32V240.336z M412.252,198.184h-16.787V139.43h16.787V198.184z
			 M478.426,181.508c-9.258,0-16.787-7.533-16.787-16.787c0-9.254,7.529-16.787,16.787-16.787c9.258,0,16.787,7.533,16.787,16.787
			C495.213,173.975,487.684,181.508,478.426,181.508z"/>
	</g>
</g>
</svg>