<?xml version="1.0" encoding="iso-8859-1"?>
<!-- Uploaded to: SVG Repo, www.svgrepo.com, Generator: SVG Repo Mixer Tools -->
<svg fill="#000000" height="800px" width="800px" version="1.1" id="Layer_1" xmlns="http://www.w3.org/2000/svg" xmlns:xlink="http://www.w3.org/1999/xlink" 
	 viewBox="0 0 512 512" xml:space="preserve">
<g>
	<g>
		<path d="M256.001,0c-141.159,0-256,114.841-256,256s114.841,256,256,256s255.999-114.841,255.999-256S397.159,0,256.001,0z
			 M256.001,493.38c-130.892,0-237.38-106.488-237.38-237.38S125.109,18.62,256.001,18.62c130.89,0,237.379,106.488,237.379,237.38
			S386.892,493.38,256.001,493.38z"/>
	</g>
</g>
<g>
	<g>
		<path d="M256.001,34.784c-121.979,0-221.216,99.237-221.216,221.214s99.237,221.214,221.216,221.214
			s221.214-99.237,221.214-221.214S377.98,34.784,256.001,34.784z M246.691,53.628v30.693c-40.774,2.186-77.821,18.64-106.22,44.452
			l-21.82-21.557C152.653,75.803,197.401,55.868,246.691,53.628z M151.107,246.69h-48.129c2.104-34.946,15.962-66.771,37.671-91.565
			l34.208,33.796C161.621,204.905,153.03,224.854,151.107,246.69z M188.173,202.078l45.157,44.612h-63.531
			C171.597,229.935,178.193,214.604,188.173,202.078z M151.107,265.31c1.963,22.283,10.885,42.587,24.584,58.732l-33.81,34.222
			c-22.416-24.988-36.761-57.352-38.903-92.954H151.107z M169.799,265.31h63.917l-44.893,45.44
			C178.475,298.076,171.636,282.432,169.799,265.31z M246.691,278.669v63.534c-16.755-1.797-32.086-8.395-44.613-18.375
			L246.691,278.669z M201.252,188.822c12.675-10.349,28.317-17.187,45.439-19.025v63.917L201.252,188.822z M187.96,175.69
			l-34.222-33.809c24.988-22.416,57.351-36.759,92.953-38.903v48.127C224.409,153.068,204.105,161.991,187.96,175.69z
			 M105.559,120.458l21.832,21.569c-25.011,28.191-40.923,64.627-43.069,104.662H53.627
			C55.829,198.272,75.101,154.231,105.559,120.458z M53.627,265.31h30.694c2.186,40.774,18.64,77.821,44.453,106.222l-21.557,21.82
			C75.803,359.349,55.869,314.599,53.627,265.31z M246.692,458.372c-48.419-2.201-92.459-21.474-126.233-51.931l21.569-21.832
			c28.192,25.011,64.627,40.923,104.664,43.07V458.372z M246.692,409.023c-34.947-2.104-66.772-15.962-91.565-37.672l33.795-34.207
			c15.985,13.237,35.934,21.828,57.77,23.75V409.023z M458.373,246.69H427.68c-2.186-40.774-18.64-77.821-44.453-106.222
			l21.557-21.82C436.198,152.652,456.132,197.401,458.373,246.69z M323.179,201.25c10.349,12.675,17.189,28.318,19.025,45.44
			h-63.917L323.179,201.25z M323.081,174.857c-15.985-13.238-35.934-21.828-57.769-23.75v-48.129
			c34.947,2.104,66.772,15.962,91.565,37.672L323.081,174.857z M342.203,265.31c-1.797,16.755-8.394,32.086-18.374,44.613
			l-45.157-44.613H342.203z M360.895,265.31h48.129c-2.104,34.946-15.962,66.772-37.67,91.565l-34.208-33.796
			C350.381,307.094,358.972,287.145,360.895,265.31z M360.895,246.69c-1.963-22.283-10.885-42.587-24.584-58.732l33.81-34.222
			c22.416,24.988,36.761,57.352,38.904,92.954H360.895z M265.311,53.628c48.418,2.201,92.459,21.474,126.232,51.932l-21.568,21.831
			c-28.192-25.011-64.627-40.923-104.664-43.07V53.628z M265.311,169.799c16.755,1.797,32.086,8.395,44.613,18.375l-44.613,45.157
			V169.799z M265.311,278.286l45.44,44.893c-12.675,10.349-28.318,17.189-45.44,19.025V278.286z M324.043,336.31l34.222,33.81
			c-24.988,22.416-57.351,36.761-92.953,38.903v-48.129h-0.001C287.592,358.932,307.897,350.009,324.043,336.31z M265.311,458.372
			v-30.693c40.774-2.186,77.821-18.64,106.22-44.453l21.82,21.557C359.348,436.196,314.6,456.132,265.311,458.372z M406.442,391.54
			l-21.831-21.568c25.011-28.19,40.923-64.627,43.069-104.662h30.693C456.172,313.728,436.899,357.768,406.442,391.54z"/>
	</g>
</g>
</svg>