<?xml version="1.0" encoding="iso-8859-1"?>
<!-- Uploaded to: SVG Repo, www.svgrepo.com, Generator: SVG Repo Mixer Tools -->
<svg height="800px" width="800px" version="1.1" id="Layer_1" xmlns="http://www.w3.org/2000/svg" xmlns:xlink="http://www.w3.org/1999/xlink" 
	 viewBox="0 0 512 512" xml:space="preserve">
<g>
	<path style="fill:#FCBB29;" d="M256,426.072c10.264,0,18.603,8.327,18.603,18.603c0,10.276-8.339,18.603-18.603,18.603
		c-10.276,0-18.603-8.327-18.603-18.603C237.397,434.399,245.724,426.072,256,426.072z"/>
	<polygon style="fill:#FCBB29;" points="355.594,273.339 355.594,343.392 256,391.465 156.395,343.392 156.395,273.339 256,321.411 
			"/>
	<polygon style="fill:#FCBB29;" points="355.594,165.206 355.594,235.259 256,283.332 156.395,235.259 156.395,165.206 256,213.278 
			"/>
	<polygon style="fill:#FCBB29;" points="355.594,57.073 355.594,127.114 256,175.198 156.395,127.126 156.395,57.073 256,105.145 	
		"/>
</g>
<path style="fill:#06B559;" d="M385.772,8.859v419.848L256,503.141l-129.772-74.435V8.859H385.772z M355.594,343.392v-70.053
	L256,321.411l-99.605-48.072v70.053L256,391.465L355.594,343.392z M355.594,235.259v-70.053L256,213.278l-99.605-48.072v70.053
	L256,283.332L355.594,235.259z M355.594,127.114V57.073L256,105.145l-99.605-48.072v70.053L256,175.198L355.594,127.114z
	 M274.603,444.675c0-10.276-8.339-18.603-18.603-18.603c-10.276,0-18.603,8.327-18.603,18.603c0,10.276,8.327,18.603,18.603,18.603
	C266.264,463.278,274.603,454.951,274.603,444.675z"/>
<g>
	<path style="fill:#333333;" d="M256,184.057c-1.317,0-2.634-0.294-3.85-0.881l-99.605-48.072c-3.063-1.478-5.008-4.578-5.008-7.977
		V57.073c0-3.049,1.567-5.882,4.149-7.503c2.582-1.622,5.816-1.799,8.56-0.475L256,95.308l95.744-46.213
		c2.741-1.324,5.978-1.146,8.56,0.475c2.582,1.621,4.149,4.454,4.149,7.503v70.042c0,3.399-1.945,6.499-5.007,7.977l-99.594,48.084
		C258.634,183.763,257.317,184.057,256,184.057z M165.253,121.565l90.746,43.797l90.736-43.807v-50.37l-86.885,41.938
		c-2.432,1.174-5.269,1.174-7.701,0l-86.896-41.939V121.565z"/>
	<path style="fill:#333333;" d="M256,292.19c-1.317,0-2.634-0.294-3.85-0.881l-99.605-48.072c-3.063-1.478-5.008-4.578-5.008-7.977
		v-70.053c0-3.049,1.567-5.882,4.149-7.503c2.582-1.622,5.816-1.799,8.56-0.475L256,203.442l95.744-46.213
		c2.741-1.324,5.978-1.146,8.56,0.475s4.149,4.454,4.149,7.503v70.053c0,3.399-1.945,6.5-5.008,7.977l-99.594,48.072
		C258.634,291.896,257.317,292.19,256,292.19z M165.253,229.698L256,273.495l90.735-43.797v-50.38l-86.885,41.938
		c-2.432,1.174-5.269,1.174-7.701,0l-86.896-41.939V229.698z"/>
	<path style="fill:#333333;" d="M256,400.323c-1.317,0-2.634-0.294-3.85-0.881l-99.605-48.072c-3.063-1.478-5.008-4.578-5.008-7.977
		v-70.053c0-3.049,1.567-5.882,4.149-7.503c2.582-1.622,5.816-1.799,8.56-0.475L256,311.575l95.744-46.213
		c2.741-1.324,5.978-1.146,8.56,0.475s4.149,4.454,4.149,7.503v70.053c0,3.399-1.945,6.5-5.008,7.977l-99.594,48.072
		C258.634,400.029,257.317,400.323,256,400.323z M165.253,337.832L256,381.628l90.735-43.797v-50.38l-86.885,41.938
		c-2.432,1.174-5.269,1.174-7.701,0l-86.896-41.939V337.832z"/>
	<path style="fill:#333333;" d="M256,512c-1.521,0-3.043-0.392-4.407-1.174l-129.772-74.435c-2.753-1.579-4.452-4.511-4.452-7.684
		V8.859c0-4.892,3.965-8.859,8.859-8.859h259.543c4.893,0,8.859,3.966,8.859,8.859v419.848c0,3.174-1.698,6.105-4.452,7.685
		l-129.772,74.435C259.043,511.608,257.521,512,256,512z M135.087,423.575L256,492.929l120.913-69.354V17.717H135.087V423.575z"/>
	<path style="fill:#333333;" d="M256,472.137c-15.142,0-27.461-12.319-27.461-27.461s12.319-27.461,27.461-27.461
		c15.142,0,27.461,12.319,27.461,27.461S271.142,472.137,256,472.137z M256,434.931c-5.373,0-9.744,4.371-9.744,9.744
		s4.371,9.744,9.744,9.744c5.373,0,9.744-4.371,9.744-9.744S261.373,434.931,256,434.931z"/>
</g>
</svg>