<?xml version="1.0" encoding="iso-8859-1"?>
<!-- Uploaded to: SVG Repo, www.svgrepo.com, Generator: SVG Repo Mixer Tools -->
<svg fill="#000000" height="800px" width="800px" version="1.1" id="Layer_1" xmlns="http://www.w3.org/2000/svg" xmlns:xlink="http://www.w3.org/1999/xlink" 
	 viewBox="0 0 511.999 511.999" xml:space="preserve">
<g>
	<g>
		<path d="M493.577,398.13l-7.564-65.885l-23.626-205.805H422.48V79.085h21.43V0H288.002v79.085h21.43v47.357h-36.855v51.261
			h-33.154v-51.261h-36.855V79.085h21.43V0H68.09v79.085h21.43v47.357H49.612L25.985,332.245l-7.564,65.885H0v113.87h229.284V398.13
			h-26.716v-65.885h36.855v-51.262h33.154v51.261h36.855v65.885h-26.716v113.87h229.284V398.13H493.577z M98.507,30.417h95.074
			v18.25H98.507V30.417z M172.151,79.085v47.357h-52.214V79.085H172.151z M56.602,332.246h115.549v65.885H49.039L56.602,332.246z
			 M198.866,481.583H30.417v-53.035h168.449V481.583z M209.006,177.701v103.282v20.844h-0.001h-6.438H60.094l16.643-144.97h12.781
			h113.049h6.438V177.701z M272.576,250.566h-33.154v-42.448h33.154V250.566z M462.961,398.129H339.849v-65.885h115.549
			L462.961,398.129z M318.419,30.417h95.074v18.25h-95.074V30.417z M392.063,79.085v47.357h-52.214V79.085H392.063z
			 M309.431,301.829h-6.437v-0.001v-20.844V177.702v-20.844h6.438H422.48h12.781l16.643,144.97H309.431z M481.582,481.583
			L481.582,481.583H313.133v-53.035h168.449V481.583z"/>
	</g>
</g>
</svg>