<?xml version="1.0" encoding="iso-8859-1"?>
<!-- Uploaded to: SVG Repo, www.svgrepo.com, Generator: SVG Repo Mixer Tools -->
<svg height="800px" width="800px" version="1.1" id="Layer_1" xmlns="http://www.w3.org/2000/svg" xmlns:xlink="http://www.w3.org/1999/xlink" 
	 viewBox="0 0 511.999 511.999" xml:space="preserve">
<polygon style="fill:#666666;" points="58.237,239.293 58.237,255.999 37.385,275.906 36.007,274.452 36.007,239.293 "/>
<polygon style="fill:#999999;" points="98.845,277.252 38.503,303.825 8.142,303.825 37.385,275.906 58.237,255.999 
	140.223,259.038 "/>
<path style="fill:#CCCCCC;" d="M496.325,258.68c11.875,5.992,9.085,23.653-4.038,25.802
	c-66.822,10.931-142.784,12.092-212.287,9.161l45.438-30.426H193.357l-11.061,24.391l-2.019-0.923
	c-32.423-3.104-60.45-6.567-81.432-9.433l41.378-18.214l-81.986-3.039v-16.705l-22.003-75.907h36.429l72.868,74.388
	c9.834,1.031,20.95,1.531,32.933,1.596c27.321,0.152,59.159-1.921,90.561-4.939c27.332-2.627,54.328-5.97,77.72-9.172v0.011
	c54.599,38.871,112.282,18.583,112.282,18.583h0.011C471.044,246.848,484.472,252.71,496.325,258.68z"/>
<path style="fill:#F2F2F2;" d="M439.598,229.546l19.43,14.307c0,0-57.682,20.288-112.282-18.583v-0.011
	c18.453-2.529,34.648-4.961,46.99-6.904C409.91,215.814,426.409,219.841,439.598,229.546z"/>
<polygon style="fill:#B3B3B3;" points="325.438,263.217 280,293.643 279.989,293.643 197.906,348.612 154.638,348.612 
	182.296,287.608 193.357,263.217 "/>
<path style="fill:#999999;" d="M197.906,186.81l71.12,47.62c-31.403,3.018-63.24,5.091-90.561,4.939l-23.826-52.559H197.906z"/>
<path style="fill:#333333;" d="M499.985,251.415c-14.243-7.173-26.809-12.23-37.389-15.047l-18.174-13.374
	c-15.05-11.073-33.502-15.572-51.949-12.676c-26.635,4.183-73.283,11.01-121.349,15.724l-68.688-45.992
	c-1.339-0.898-2.918-1.376-4.53-1.376h-61.78c-4.497,0-8.141,3.645-8.141,8.141s3.644,8.141,8.141,8.141h13.265l16.332,36.027
	c-5.785-0.207-11.289-0.539-16.447-1.014l-70.798-72.274c-1.531-1.563-3.628-2.443-5.815-2.443H36.232H15.024
	c-4.497,0-8.141,3.645-8.141,8.141c0,4.496,3.644,8.141,8.141,8.141h15.092L47.4,231.159H36.01c-4.497,0-8.141,3.645-8.141,8.141
	v34.439L2.52,297.934c-2.407,2.298-3.173,5.828-1.935,8.917c1.237,3.088,4.229,5.113,7.557,5.113h30.364
	c1.13,0,2.247-0.236,3.28-0.69l58.239-25.642c23.066,3.122,46.718,5.902,70.476,8.279l-21.106,46.556h-17.606
	c-4.497,0-8.141,3.645-8.141,8.141c0,4.496,3.644,8.141,8.141,8.141h66.122c1.613,0,3.189-0.479,4.53-1.376l79.87-53.485
	c21.045,0.853,41.375,1.285,60.959,1.284c56.611,0,106.993-3.563,150.331-10.652c9.546-1.563,16.663-8.748,18.131-18.304
	C513.194,264.703,508.585,255.754,499.985,251.415z M394.998,226.402c14.131-2.219,28.252,1.229,39.774,9.705l4.973,3.66
	c-16.017,2.213-41.738,2.615-68.631-9.742C380.155,228.7,388.221,227.466,394.998,226.402z M195.432,194.955l49.861,33.385
	c-21.463,1.702-42.542,2.809-61.577,2.897l-16.448-36.283h28.164V194.955z M44.151,247.44h5.944v5.083l-5.944,5.674
	C44.151,258.197,44.151,247.44,44.151,247.44z M36.793,295.681h-8.331l32.914-31.417l43.143,1.598L36.793,295.681z M195.436,340.467
	h-28.164l31.332-69.113h100.041L195.436,340.467z M495.639,271.743c-0.147,0.95-0.914,4.093-4.669,4.709
	c-51.861,8.483-114.169,11.809-185.496,9.923l24.489-16.399c2.979-1.994,4.302-5.702,3.26-9.132
	c-1.042-3.43-4.205-5.774-7.789-5.774H193.356c-3.195,0-6.095,1.869-7.415,4.779l-8.34,18.397
	c-16.322-1.59-32.613-3.368-48.713-5.325l14.614-6.435c3.471-1.529,5.427-5.253,4.715-8.979c-0.711-3.726-3.903-6.467-7.695-6.607
	l-74.146-2.745v-8.857c0-0.767-0.109-1.531-0.322-2.266l-18.986-65.5h22.172l70.475,71.943c1.325,1.353,3.08,2.2,4.962,2.399
	c51.551,5.428,138.11-3.754,200.009-12.126c27.596,18.727,55.541,23.62,77.211,23.62c18.111,0,31.829-3.415,37.308-5.031
	c9.335,2.566,20.56,7.123,33.451,13.616C495.901,267.59,495.822,270.548,495.639,271.743z"/>
</svg>