<?xml version="1.0" encoding="iso-8859-1"?>
<!-- Uploaded to: SVG Repo, www.svgrepo.com, Generator: SVG Repo Mixer Tools -->
<svg height="800px" width="800px" version="1.1" id="Layer_1" xmlns="http://www.w3.org/2000/svg" xmlns:xlink="http://www.w3.org/1999/xlink" 
	 viewBox="0 0 511.999 511.999" xml:space="preserve">
<g>
	<polygon style="fill:#FCBB29;" points="392.577,59.357 376.279,75.654 359.106,92.839 328.672,62.406 343.568,47.51 
		362.143,28.923 	"/>
	<polygon style="fill:#FCBB29;" points="503.236,340.712 434.623,490.402 380.193,465.448 395.533,431.989 433.466,349.217 
		448.806,315.757 	"/>
	<polygon style="fill:#FCBB29;" points="503.236,340.712 452.766,450.821 434.623,490.402 380.193,465.448 395.533,431.989 
		398.336,425.867 433.466,349.217 448.806,315.757 	"/>
</g>
<polygon style="fill:#D39A29;" points="452.766,450.821 434.623,490.402 380.193,465.448 395.533,431.989 398.336,425.867 "/>
<path style="fill:#E6E6E6;" d="M438.011,182.446c0.841,18.833,0.385,41.59-3.061,66.802c-2.22,16.286-12.43,28.529-25.515,34.651
	v0.012c-14.265,6.682-31.952,6.063-46.38-4.58c-6.601-4.872-13.505-10.059-20.538-15.456l41.719-66.627h-41.17l48.507-69.933
	l0.269-1.39c6.192,1.542,12.022,4.031,17.314,7.313C425.744,143.531,437.088,161.557,438.011,182.446z"/>
<path style="fill:#0B9B53;" d="M433.466,349.217l-37.934,82.772l-44.757-20.492c24.464-19.241,42.922-45.761,52.14-76.288
	L433.466,349.217z"/>
<path style="fill:#06B559;" d="M109.084,335.209c-4.241-14.054-6.519-28.961-6.519-44.394v-6.904
	c4.545,2.126,9.428,3.516,14.44,4.066c10.748,1.203,22.092-1.39,31.929-8.645c24.802-18.295,53.822-40.96,78.006-63.309
	c30.247-27.957,15.538-78.461-25.024-85.576c-6.601-1.157-13.54-2.22-20.76-3.131c-14.148-1.787-29.394-2.991-45.364-3.201
	c-12.057-0.164-23.365,3.189-32.934,9.113c6.893-21.52,18.213-41.065,32.864-57.572l17.185,17.185l30.434-30.433L168.444,47.51
	c25.188-16.391,55.259-25.912,87.55-25.912h0.012c32.291,0,62.362,9.521,87.562,25.912l-14.895,14.895l30.433,30.433l17.174-17.185
	c14.662,16.508,25.971,36.053,32.875,57.572v0.012c-5.292-3.283-11.122-5.771-17.314-7.313c-5.012-1.25-10.246-1.881-15.632-1.811
	c-24.125,0.315-46.567,2.897-66.124,6.332c-40.562,7.115-55.271,57.619-25.036,85.576c17.746,16.391,38.097,32.957,57.467,47.852
	c7.033,5.397,13.937,10.585,20.538,15.456c14.428,10.643,32.116,11.262,46.38,4.58v6.904c0,15.433-2.278,30.34-6.519,44.394
	c-9.218,30.527-27.676,57.047-52.14,76.288c-26.088,20.515-59.009,32.758-94.77,32.758c-35.772,0-68.683-12.243-94.782-32.758
	c-4.813-3.797-9.393-7.862-13.716-12.185C129.856,381.671,116.479,359.731,109.084,335.209z M331.102,333.574
	c0-41.474-33.623-75.097-75.097-75.097s-75.097,33.623-75.097,75.097s33.623,75.097,75.097,75.097S331.102,375.047,331.102,333.574z
	"/>
<path style="fill:#0B9B53;" d="M216.133,411.497c-4.813-3.797-9.393-7.862-13.716-12.185
	c-17.653-17.641-31.029-39.581-38.424-64.103c-4.241-14.054-6.519-28.961-6.519-44.394c0,0,0.292-88.24,0.292-157.588
	c6.893-21.52,18.213-41.065,32.864-57.572l32.723-28.144c17.886-11.639,38.243-19.792,60.102-23.554
	c-8.923-1.535-18.088-2.36-27.449-2.36h-0.012c-32.291,0-62.362,9.521-87.55,25.912l-32.723,28.144
	c-14.65,16.508-25.971,36.053-32.864,57.572c0,69.349-0.292,157.588-0.292,157.588c0,15.433,2.278,30.34,6.519,44.394
	c7.395,24.522,20.772,46.462,38.424,64.103c4.323,4.323,8.902,8.388,13.716,12.185c26.099,20.515,59.009,32.758,94.782,32.758
	c9.371,0,18.543-0.848,27.452-2.458C258.366,437.264,235.393,426.637,216.133,411.497z"/>
<path style="fill:#CCCCCC;" d="M391.841,125.925l-0.269,1.39l-48.507,69.933h41.17l-41.719,66.627
	c-19.37-14.895-39.721-31.462-57.467-47.852c-30.235-27.957-15.526-78.461,25.036-85.576c19.557-3.435,41.999-6.017,66.124-6.332
	C381.595,124.044,386.829,124.675,391.841,125.925z"/>
<g>
	<polygon style="fill:#FCBB29;" points="183.339,62.406 152.906,92.839 135.721,75.654 119.423,59.357 149.857,28.923 
		168.432,47.51 168.444,47.51 	"/>
	<circle style="fill:#FCBB29;" cx="256.004" cy="333.577" r="75.097"/>
</g>
<path style="fill:#E6E6E6;" d="M201.915,130.446c40.562,7.115,55.271,57.619,25.024,85.576
	c-24.183,22.349-53.203,45.014-78.006,63.309c-9.837,7.255-21.181,9.849-31.929,8.645l56.813-90.728h-41.17l48.507-69.933
	C188.375,128.226,195.314,129.29,201.915,130.446z"/>
<path style="fill:#CCCCCC;" d="M181.155,127.315l-48.507,69.933h41.17l-56.813,90.728c-5.012-0.549-9.895-1.939-14.44-4.066
	c-13.073-6.122-23.295-18.377-25.515-34.663c-3.446-25.211-3.902-47.969-3.061-66.802c0.923-20.9,12.279-38.927,28.868-49.219
	c9.568-5.923,20.877-9.276,32.934-9.113C151.761,124.324,167.007,125.528,181.155,127.315z"/>
<path style="fill:#0B9B53;" d="M161.224,411.497l-44.745,20.492l-37.945-82.772l30.55-14.008
	c7.395,24.522,20.772,46.462,38.424,64.103C151.831,403.635,156.411,407.7,161.224,411.497z"/>
<polygon style="fill:#FCBB29;" points="116.479,431.989 131.807,465.448 77.377,490.402 8.764,340.712 63.206,315.757 
	78.534,349.217 "/>
<polygon style="fill:#D39A29;" points="59.234,450.821 77.377,490.402 131.807,465.448 116.467,431.989 113.664,425.867 "/>
<g>
	<path style="fill:#FFFFFF;" d="M124.43,292.626l-14.852-9.301l48.414-77.316h-25.344c-3.261,0-6.251-1.811-7.763-4.699
		c-1.512-2.889-1.294-6.378,0.563-9.056l48.507-69.933l14.399,9.988l-38.965,56.176h24.429c3.187,0,6.122,1.73,7.666,4.518
		c1.544,2.787,1.452,6.193-0.24,8.894L124.43,292.626z"/>
	<path style="fill:#FFFFFF;" d="M349.942,268.525l-14.852-9.301l33.32-53.215h-25.346c-3.261,0-6.251-1.81-7.763-4.699
		c-1.512-2.889-1.294-6.378,0.563-9.056l48.507-69.933l14.399,9.988l-38.965,56.176h24.429c3.187,0,6.122,1.73,7.666,4.518
		c1.543,2.787,1.452,6.193-0.239,8.894L349.942,268.525z"/>
</g>
<g>
	<path style="fill:#333333;" d="M256.006,249.715c-46.24,0-83.859,37.618-83.859,83.859s37.618,83.859,83.859,83.859
		s83.859-37.62,83.859-83.859S302.245,249.715,256.006,249.715z M284.596,349.776l-19.833-19.833v-28.057
		c13.888,3.846,24.119,16.589,24.119,31.686C288.882,339.463,287.318,344.991,284.596,349.776z M223.119,333.574
		c0-15.096,10.231-27.841,24.12-31.686v28.057l-19.833,19.833C224.683,344.991,223.119,339.463,223.119,333.574z M256.001,345.965
		l16.203,16.203c-4.786,2.723-10.314,4.288-16.203,4.288c-5.889,0-11.418-1.564-16.204-4.286L256.001,345.965z M247.239,267.836
		v16.11c-23.629,4.161-41.644,24.823-41.644,49.627c0,10.739,3.387,20.696,9.132,28.882l-11.386,11.386
		c-8.565-11.175-13.671-25.133-13.671-40.268C189.671,299.969,214.793,272.142,247.239,267.836z M215.733,386.233l11.386-11.386
		c8.186,5.746,18.143,9.132,28.882,9.132s20.696-3.387,28.882-9.132l11.391,11.391c-11.175,8.565-25.133,13.671-40.268,13.671
		C240.869,399.908,226.908,394.8,215.733,386.233z M308.665,373.846l-11.391-11.391c5.746-8.186,9.132-18.143,9.132-28.882
		c0-24.804-18.014-45.466-41.643-49.627v-16.112c32.45,4.302,57.577,32.131,57.577,65.739
		C322.34,348.711,317.233,362.672,308.665,373.846z"/>
	<path style="fill:#333333;" d="M506.887,332.748l-54.43-24.954c-2.113-0.969-4.524-1.06-6.701-0.249
		c-2.179,0.808-3.946,2.45-4.915,4.562l-11.687,25.494l-15.83-7.258c3.222-12.87,4.875-26.128,4.875-39.526v-1.7
		c13.849-8.355,23.221-22.439,25.434-38.68c3.095-22.634,4.149-45.64,3.133-68.375c-0.97-21.951-12.218-42.055-30.251-54.448
		c-6.394-18.759-15.9-36.023-28.341-51.454l10.6-10.604c3.422-3.422,3.422-8.97,0-12.391L368.34,22.729
		c-1.643-1.644-3.872-2.567-6.195-2.567h-0.001c-2.325,0-4.553,0.924-6.196,2.568l-13.678,13.68
		c-26.071-15.435-55.739-23.575-86.275-23.575c-30.533,0-60.2,8.141-86.263,23.579l-13.677-13.686
		c-1.644-1.644-3.872-2.568-6.197-2.568c0,0,0,0-0.001,0c-2.324,0-4.553,0.923-6.195,2.567l-30.433,30.433
		c-1.644,1.643-2.567,3.872-2.567,6.195s0.923,4.553,2.567,6.195l10.604,10.604c-12.441,15.44-21.941,32.691-28.321,51.416
		c-18.053,12.395-29.305,32.525-30.275,54.482c-1.015,22.736,0.039,45.741,3.132,68.377c2.214,16.244,11.586,30.331,25.434,38.693
		v1.689c0,13.4,1.652,26.659,4.874,39.526l-15.828,7.257l-11.677-25.491c-0.968-2.113-2.736-3.755-4.915-4.564
		c-2.178-0.81-4.59-0.72-6.702,0.248L5.114,332.744c-4.4,2.016-6.331,7.218-4.314,11.616l68.613,149.691
		c0.968,2.113,2.736,3.754,4.915,4.563c0.986,0.366,2.019,0.548,3.05,0.548c1.249,0,2.494-0.268,3.651-0.798l54.43-24.954
		c4.399-2.016,6.33-7.215,4.314-11.614l-11.678-25.492l32.015-14.662c27.942,20.539,60.977,31.373,95.896,31.373
		c34.923,0,67.955-10.833,95.886-31.373l32.022,14.662l-11.686,25.491c-2.016,4.399-0.085,9.6,4.313,11.616l54.43,24.954
		c1.157,0.53,2.403,0.798,3.651,0.798c1.032,0,2.065-0.182,3.05-0.548c2.179-0.808,3.946-2.45,4.915-4.563L511.2,344.361
		C513.217,339.964,511.285,334.764,506.887,332.748z M408.093,347.221l13.759,6.309l-30.634,66.845l-24.369-11.157
		C385.296,391.979,399.34,370.875,408.093,347.221z M429.257,182.836c0.969,21.689-0.037,43.634-2.99,65.228
		c-1.692,12.412-9.18,22.58-20.546,27.897l-0.004,0.014c-12.426,5.822-26.432,4.439-37.459-3.695
		c-6.865-5.067-13.731-10.234-20.4-15.352c-22.222-17.088-41.352-33.018-56.86-47.341c-11.739-10.854-16.053-26.48-11.544-41.801
		c4.485-15.234,16.502-25.968,32.147-28.713c21.856-3.839,43.633-5.924,64.722-6.2c4.541-0.069,9.034,0.463,13.4,1.553
		c5.24,1.305,10.224,3.409,14.811,6.256C419.253,149.815,428.494,165.571,429.257,182.836z M362.145,41.316l18.04,18.04
		l-10.101,10.101c0,0-0.001,0.001-0.002,0.001l-10.978,10.985l-18.039-18.039L362.145,41.316z M149.854,41.316l12.379,12.388
		c0.09,0.089,0.18,0.176,0.272,0.262l8.441,8.441l-18.04,18.04l-10.99-10.99l-10.101-10.101L149.854,41.316z M82.743,182.833
		c0.763-17.264,10.009-33.025,24.726-42.156c8.261-5.114,17.75-7.806,27.491-7.806c0.238,0,0.478,0.001,0.716,0.005
		c14.51,0.192,29.443,1.245,44.383,3.133c6.715,0.848,13.56,1.88,20.343,3.068c15.644,2.744,27.66,13.477,32.143,28.711
		c4.508,15.321,0.19,30.946-11.552,41.8c-20.287,18.748-46.281,39.842-77.259,62.692c-9.606,7.083-19.309,7.708-25.753,6.989
		c-0.007,0-0.014-0.001-0.021-0.002c-4.025-0.44-7.955-1.549-11.678-3.29c-11.367-5.324-18.857-15.497-20.55-27.915
		C82.779,226.466,81.773,204.52,82.743,182.833z M103.887,347.231c8.089,21.774,20.903,41.766,37.426,58.277
		c1.255,1.255,2.541,2.49,3.845,3.71l-24.363,11.158L90.151,353.53L103.887,347.231z M81.69,478.785l-61.31-133.759l38.51-17.651
		l61.303,133.759L81.69,478.785z M256.006,435.494c-32.76,0-63.663-10.68-89.355-30.876c-4.54-3.581-8.896-7.451-12.948-11.504
		c-16.859-16.848-29.387-37.747-36.229-60.437c-3.585-11.881-5.614-24.205-6.052-36.706c1.53,0.304,3.075,0.544,4.629,0.715
		c1.99,0.222,3.979,0.332,5.962,0.332c11.476,0,22.7-3.685,32.124-10.636c31.497-23.233,57.992-44.74,78.752-63.926
		c16.494-15.245,22.805-38.089,16.468-59.616c-6.31-21.442-23.908-37.163-45.928-41.025c-7.059-1.236-14.184-2.311-21.174-3.193
		c-15.588-1.97-31.181-3.069-46.344-3.27c-5.889-0.065-11.721,0.599-17.375,1.963c4.811-10.169,10.754-19.753,17.771-28.685
		l10.405,10.405c1.71,1.71,3.953,2.567,6.195,2.567s4.485-0.855,6.195-2.567l30.433-30.433c3.422-3.422,3.422-8.97,0-12.391
		l-6.968-6.968c22.397-12.383,47.567-18.883,73.439-18.883c25.857,0,51.029,6.5,73.435,18.883l-6.964,6.968
		c-3.422,3.422-3.422,8.97,0,12.391l30.433,30.433c1.644,1.644,3.872,2.567,6.195,2.567h0.001c2.324,0,4.553-0.924,6.197-2.568
		l10.396-10.4c7.011,8.921,12.954,18.503,17.768,28.675c-5.67-1.369-11.509-2.026-17.373-1.957
		c-22.027,0.289-44.746,2.463-67.524,6.463c-22.017,3.862-39.615,19.581-45.928,41.023c-6.338,21.527-0.032,44.37,16.46,59.619
		c15.896,14.683,35.435,30.955,58.078,48.368c6.763,5.189,13.717,10.422,20.671,15.556c9.51,7.014,20.824,10.606,32.228,10.606
		c3.508,0,7.024-0.36,10.498-1.046c-0.436,12.509-2.464,24.843-6.052,36.733c-8.617,28.537-25.619,53.411-49.168,71.934
		C319.666,424.814,288.769,435.494,256.006,435.494z M430.309,478.786l-38.5-17.651l61.31-133.761l38.502,17.651L430.309,478.786z"
		/>
</g>
</svg>