<?xml version="1.0" encoding="iso-8859-1"?>
<!-- Uploaded to: SVG Repo, www.svgrepo.com, Generator: SVG Repo Mixer Tools -->
<svg height="800px" width="800px" version="1.1" id="Layer_1" xmlns="http://www.w3.org/2000/svg" xmlns:xlink="http://www.w3.org/1999/xlink" 
	 viewBox="0 0 511.999 511.999" xml:space="preserve">
<path style="fill:#808080;" d="M425.198,228.174v36.171h-83.472v-50.551c0-7.112,5.776-12.888,12.888-12.888h20.991h22.326h14.38
	c7.112,0,12.888,5.776,12.888,12.888L425.198,228.174L425.198,228.174z"/>
<path style="fill:#4D4D4D;" d="M49.583,310.945v16.839l-12.888,13.044c-10.406,10.529-28.347,3.161-28.347-11.642v-64.841h41.235
	C49.583,264.345,49.583,310.945,49.583,310.945z"/>
<path style="fill:#666666;" d="M503.651,310.945H49.583v-46.6h292.142h83.472h31.853
	C482.794,264.345,503.651,285.213,503.651,310.945z"/>
<path style="fill:#4D4D4D;" d="M49.583,310.945h454.068c0,8.748-2.449,17.14-6.845,24.329c-4.407,7.19-10.751,13.189-18.542,17.173
	c-16.338,8.358-33.567,14.702-51.285,18.976c-17.718,4.263-35.938,6.444-54.29,6.444h-5.12
	c-104.541,0-208.481-15.871-308.269-47.045l-9.716-3.038V310.945z"/>
<path style="fill:#333333;" d="M457.05,255.999H433.54v-42.2c0-11.71-9.527-21.236-21.236-21.236h-6.03v-35.056
	c0-4.61-3.736-8.347-8.347-8.347s-8.347,3.737-8.347,8.347v35.056h-5.625v-58.427c0-4.61-3.736-8.347-8.347-8.347
	s-8.347,3.737-8.347,8.347v58.427h-12.647c-11.71,0-21.235,9.527-21.235,21.236v42.2H8.347c-4.61,0-8.347,3.737-8.347,8.347v64.84
	c0,10.301,5.919,19.13,15.447,23.044c3.162,1.299,6.421,1.933,9.629,1.932c6.462,0,12.718-2.571,17.555-7.467l9.318-9.429
	l4.86,1.519c100.702,31.469,205.257,47.426,310.76,47.426h5.115c37.85,0,75.671-9.105,109.373-26.332
	c18.469-9.439,29.941-28.188,29.941-48.929C512,280.649,487.35,255.999,457.05,255.999z M350.072,213.799
	c0-2.504,2.037-4.542,4.541-4.542h57.691c2.504,0,4.542,2.038,4.542,4.542v6.03h-17.868c-4.611,0-8.347,3.737-8.347,8.347
	c0,4.61,3.736,8.347,8.347,8.347h17.868v19.476h-66.773V213.799z M341.725,272.693h83.468h31.856
	c18.227,0,33.507,12.817,37.328,29.909H57.933v-29.909H341.725z M21.79,336.787c-1.195-0.491-5.095-2.49-5.095-7.6v-56.493h24.544
	v51.661l-10.482,10.608C27.164,338.597,22.984,337.278,21.79,336.787z M474.462,345.014
	c-31.363,16.029-66.556,24.502-101.776,24.502h-5.115c-103.813,0-206.692-15.701-305.781-46.666l-3.856-1.205v-2.348h436.452
	C491.951,330.286,484.78,339.74,474.462,345.014z"/>
</svg>