<?xml version="1.0" encoding="iso-8859-1"?>
<!-- Uploaded to: SVG Repo, www.svgrepo.com, Generator: SVG Repo Mixer Tools -->
<svg fill="#000000" height="800px" width="800px" version="1.1" id="Layer_1" xmlns="http://www.w3.org/2000/svg" xmlns:xlink="http://www.w3.org/1999/xlink" 
	 viewBox="0 0 512 512" xml:space="preserve">
<g>
	<g>
		<path d="M502.064,217.34v-51.552h-10.929c-2.761-66.914-22.971-113.252-23.892-115.329l-13.903-31.356L439.437,50.46
			c-0.921,2.076-21.131,48.415-23.892,115.329h-10.929v51.552h-9.935v39.277H380.44v-39.277h-9.935v-51.552h-10.929
			c-2.761-66.914-22.971-113.252-23.892-115.329l-13.903-31.356L307.879,50.46c-0.921,2.076-21.131,48.415-23.892,115.329h-10.929
			v51.552h-9.935v39.277h-14.241v-39.277h-9.935v-51.552h-10.929c-2.761-66.914-22.971-113.252-23.892-115.329l-13.903-31.356
			L176.32,50.46c-0.921,2.076-21.131,48.415-23.892,115.329H141.5v51.552h-9.935v39.277h-14.245v-39.277h-9.935v-51.552h-10.93
			C93.693,98.874,73.484,52.535,72.562,50.46L58.66,19.104L44.757,50.46c-0.921,2.076-21.131,48.415-23.892,115.329H9.935v51.552H0
			v275.556h117.319V453.62h14.241v39.277h117.319V453.62h14.241v39.277H380.44V453.62h14.241v39.277H512V217.34H502.064z
			 M58.68,109.191c3.404,15.817,6.355,35.03,7.331,56.597H51.313C52.296,144.271,55.263,125.041,58.68,109.191z M40.352,196.205
			h36.613v21.135H40.352V196.205z M86.902,256.616v197.003v8.859H30.417V247.757h56.485V256.616z M131.56,423.202h-14.241V287.034
			h14.241V423.202z M190.239,109.191c3.404,15.817,6.355,35.03,7.331,56.597h-14.698
			C183.856,144.271,186.823,125.041,190.239,109.191z M171.913,196.205h36.613v21.135h-36.613V196.205z M218.462,256.616v197.003
			v8.859h-56.485v-8.859V256.616v-8.859h56.485V256.616z M263.121,423.202h-14.241V287.034h14.241V423.202z M321.799,109.191
			c3.404,15.817,6.355,35.03,7.331,56.597h-14.698C315.416,144.271,318.384,125.041,321.799,109.191z M303.473,196.205h36.613
			v21.135h-36.613V196.205z M350.023,256.616v197.003v8.859h-56.485v-8.859V256.616v-8.859h56.485V256.616z M394.681,423.202H380.44
			V287.034h14.241V423.202z M453.36,109.191c3.404,15.817,6.355,35.03,7.331,56.597h-14.698
			C446.976,144.271,449.943,125.041,453.36,109.191z M435.033,196.205h36.613v21.135h-36.613V196.205z M481.583,462.479h-56.485
			v-8.859V256.616v-8.859h56.485V462.479z"/>
	</g>
</g>
</svg>