<?xml version="1.0" encoding="iso-8859-1"?>
<!-- Uploaded to: SVG Repo, www.svgrepo.com, Generator: SVG Repo Mixer Tools -->
<svg version="1.1" id="Layer_1" xmlns="http://www.w3.org/2000/svg" xmlns:xlink="http://www.w3.org/1999/xlink" 
	 viewBox="0 0 512 512" xml:space="preserve">
<g>
	<rect x="396.963" y="152.462" style="fill:#4D4D4D;" width="11.505" height="56.362"/>
	<rect x="373.884" y="128.302" style="fill:#4D4D4D;" width="11.505" height="80.522"/>
</g>
<path style="fill:#808080;" d="M430.902,216.395v52.255h-86.286v-52.255c0-7.352,5.971-13.323,13.323-13.323h59.641
	C424.931,203.072,430.902,209.043,430.902,216.395z"/>
<path style="fill:#666666;" d="M379.223,203.072h-21.284c-7.352,0-13.323,5.971-13.323,13.323v52.255H365.9v-52.255
	C365.9,209.043,371.871,203.072,379.223,203.072z"/>
<g>
	<rect x="395.168" y="222.63" style="fill:#4D4D4D;" width="35.734" height="17.257"/>
	<path style="fill:#4D4D4D;" d="M42.625,314.519v17.407L29.303,345.41C18.546,356.293,0,348.677,0,333.376v-57.699
		c0-5.152,4.176-9.328,9.328-9.328h33.297V314.519z"/>
</g>
<path style="fill:#666666;" d="M512,314.519H42.625v-48.171h421.204c23.665,0,43.339,17.062,47.4,39.542
	C511.735,308.686,512,311.574,512,314.519z"/>
<path style="fill:#4D4D4D;" d="M512,314.519c0,2.922-0.265,5.81-0.782,8.629c-1.07,5.902-3.221,11.493-6.293,16.521
	c-4.556,7.432-11.114,13.633-19.167,17.752c-16.889,8.64-34.699,15.198-53.014,19.616c-18.316,4.406-37.149,6.661-56.121,6.661
	h-5.292c-108.065,0-215.509-16.406-318.661-48.631l-10.044-3.141v-17.407L512,314.519L512,314.519z"/>
<path style="fill:#999999;" d="M512,314.519c0,2.922-0.265,5.81-0.782,8.629H42.625v-17.257h468.604
	C511.735,308.686,512,311.574,512,314.519z"/>
</svg>