<?xml version="1.0" encoding="iso-8859-1"?>
<!-- Uploaded to: SVG Repo, www.svgrepo.com, Generator: SVG Repo Mixer Tools -->
<svg fill="#000000" height="800px" width="800px" version="1.1" id="Layer_1" xmlns="http://www.w3.org/2000/svg" xmlns:xlink="http://www.w3.org/1999/xlink" 
	 viewBox="0 0 512 512" xml:space="preserve">
<g>
	<g>
		<path d="M456.225,254.778c-2.211-10.618-6.696-20.409-12.913-28.85h67.733v-30.404H383.334h-53.132H315v59.254h-42.786
			l-20.269,44.719h-17.133V170.571h-79.221v-20.269h48.906V73.279h-48.906V47.942h-30.404v25.337H76.282v77.023h48.906v20.269
			H45.966v128.926H0l37.295,164.561h403.562L512,254.778H456.225z M155.591,103.683h18.502v16.215h-18.502V103.683z
			 M345.404,225.927h37.93c18.95,0,35.144,12.028,41.348,28.85h-79.278V225.927z M106.686,119.898v-16.215h18.502v16.215H106.686z
			 M76.368,200.975h128.04v34.058H76.368V200.975z M76.368,265.437h128.04v34.058H76.368V265.437z M419.08,433.654H61.579
			l-8.311-36.675h378.28L419.08,433.654z M46.377,366.576l-8.311-36.675h7.899h188.848h36.733l20.269-44.719h177.737l-27.67,81.394
			H46.377z"/>
	</g>
</g>
</svg>