<?xml version="1.0" encoding="iso-8859-1"?>
<!-- Uploaded to: SVG Repo, www.svgrepo.com, Generator: SVG Repo Mixer Tools -->
<svg fill="#000000" height="800px" width="800px" version="1.1" id="Layer_1" xmlns="http://www.w3.org/2000/svg" xmlns:xlink="http://www.w3.org/1999/xlink" 
	 viewBox="0 0 512 512" xml:space="preserve">
<g>
	<g>
		<path d="M121.515,322.585c-15.556,0-28.213,12.656-28.213,28.212s12.657,28.213,28.213,28.213
			c15.556,0,28.213-12.657,28.213-28.213S137.071,322.585,121.515,322.585z"/>
	</g>
</g>
<g>
	<g>
		<path d="M246.669,322.585c-15.556,0-28.212,12.656-28.212,28.212s12.656,28.213,28.212,28.213s28.212-12.657,28.212-28.213
			S262.225,322.585,246.669,322.585z"/>
	</g>
</g>
<g>
	<g>
		<path d="M371.823,322.585c-15.556,0-28.213,12.656-28.213,28.212s12.657,28.213,28.213,28.213
			c15.556,0,28.213-12.657,28.213-28.213S387.38,322.585,371.823,322.585z"/>
	</g>
</g>
<g>
	<g>
		<path d="M512,233.458h-68.727l-29.75-52.559h-54.854c-0.802-7.432-2.817-14.5-5.831-21.021l116.732-48.351l-11.647-28.121
			L333.26,135.044c-11.561-9.151-26.151-14.636-42.008-14.636H221.92c-34.919,0-63.75,26.53-67.418,60.492H43.72v62.56L0,299.737
			l43.935,56.555c2.832,40.34,36.533,72.301,77.58,72.301c25.628,0,48.395-12.463,62.578-31.639
			c14.182,19.177,36.949,31.639,62.577,31.639c25.629,0,48.395-12.463,62.578-31.639c14.183,19.177,36.949,31.639,62.577,31.639
			c42.897,0,77.796-34.898,77.796-77.796c0-10.449-2.084-20.416-5.837-29.528L512,233.458z M221.92,150.845h69.333
			c18.105,0,33.246,12.938,36.661,30.055H185.258C188.673,163.783,203.814,150.845,221.92,150.845z M74.157,211.337H154.1h204.972
			h36.706l12.522,22.122H74.157V211.337z M121.515,398.156c-26.113,0-47.358-21.245-47.358-47.359s21.245-47.359,47.358-47.359
			c26.114,0,47.359,21.245,47.359,47.359S147.629,398.156,121.515,398.156z M246.669,398.156c-26.113,0-47.358-21.245-47.358-47.359
			s21.245-47.359,47.358-47.359c26.114,0,47.359,21.245,47.359,47.359S272.783,398.156,246.669,398.156z M371.823,398.156
			c-26.113,0-47.358-21.245-47.358-47.359s21.245-47.359,47.358-47.359c0.971,0,1.937,0.038,2.899,0.097
			c0.22,0.013,0.437,0.033,0.656,0.051c0.819,0.062,1.633,0.141,2.444,0.246c0.133,0.017,0.266,0.032,0.399,0.051
			c9.149,1.261,17.711,5.19,24.627,11.177c0.049,0.043,0.097,0.084,0.146,0.127c1.464,1.277,2.849,2.651,4.154,4.109
			c0.158,0.178,0.311,0.359,0.468,0.54c0.457,0.526,0.901,1.063,1.335,1.611c0.184,0.231,0.368,0.462,0.547,0.696
			c0.542,0.709,1.069,1.432,1.573,2.174c0.087,0.13,0.168,0.264,0.255,0.395c0.435,0.657,0.855,1.328,1.259,2.01
			c4.186,7.06,6.6,15.29,6.6,24.076C419.182,376.91,397.937,398.156,371.823,398.156z M425.791,294.816
			c-0.252-0.241-0.516-0.468-0.771-0.706c-0.527-0.495-1.058-0.984-1.598-1.464c-0.305-0.271-0.615-0.536-0.925-0.802
			c-0.696-0.599-1.399-1.187-2.116-1.761c-0.156-0.125-0.315-0.248-0.472-0.371c-11.377-8.976-25.299-14.856-40.501-16.335
			c-0.158-0.015-0.32-0.021-0.478-0.037c-1.081-0.098-2.164-0.188-3.257-0.241c-1.279-0.064-2.563-0.097-3.85-0.097
			c-1.209,0-2.41,0.037-3.606,0.091c-0.216,0.01-0.433,0.018-0.649,0.029c-1.146,0.062-2.287,0.149-3.419,0.261
			c-0.219,0.021-0.437,0.047-0.655,0.07c-1.169,0.125-2.331,0.268-3.484,0.444c-0.027,0.004-0.055,0.01-0.082,0.014
			c-1.139,0.176-2.27,0.383-3.393,0.608c-0.2,0.041-0.4,0.078-0.6,0.12c-1.098,0.228-2.186,0.481-3.266,0.756
			c-0.209,0.053-0.417,0.11-0.626,0.164c-1.107,0.291-2.208,0.6-3.295,0.938c-0.049,0.015-0.095,0.031-0.144,0.047
			c-1.063,0.333-2.114,0.693-3.157,1.07c-0.181,0.065-0.362,0.129-0.543,0.195c-1.035,0.383-2.059,0.788-3.072,1.213
			c-0.198,0.083-0.395,0.168-0.591,0.253c-1.033,0.443-2.059,0.903-3.068,1.389c-0.063,0.03-0.125,0.063-0.187,0.093
			c-0.979,0.475-1.944,0.973-2.9,1.487c-0.16,0.086-0.322,0.17-0.482,0.258c-0.959,0.525-1.905,1.07-2.84,1.634
			c-0.184,0.111-0.365,0.222-0.547,0.335c-0.947,0.581-1.883,1.178-2.801,1.798c-0.074,0.05-0.146,0.102-0.219,0.152
			c-0.883,0.601-1.751,1.221-2.608,1.856c-0.14,0.104-0.282,0.206-0.421,0.31c-0.869,0.653-1.722,1.326-2.563,2.015
			c-0.167,0.137-0.334,0.275-0.5,0.414c-0.846,0.705-1.68,1.422-2.495,2.162c-0.079,0.072-0.156,0.146-0.235,0.218
			c-0.778,0.712-1.54,1.441-2.289,2.183c-0.119,0.118-0.239,0.233-0.358,0.352c-0.766,0.769-1.514,1.556-2.247,2.357
			c-0.148,0.161-0.294,0.324-0.441,0.486c-0.732,0.814-1.452,1.638-2.15,2.482c-0.082,0.099-0.161,0.201-0.242,0.3
			c-0.661,0.807-1.307,1.628-1.936,2.462c-0.097,0.128-0.196,0.255-0.292,0.383c-0.056,0.074-0.114,0.147-0.168,0.221
			c-0.055-0.074-0.114-0.147-0.168-0.221c-0.096-0.129-0.196-0.255-0.292-0.383c-0.63-0.835-1.275-1.657-1.938-2.465
			c-0.08-0.098-0.158-0.199-0.239-0.296c-0.699-0.844-1.418-1.669-2.151-2.483c-0.147-0.162-0.293-0.326-0.441-0.486
			c-0.734-0.8-1.481-1.588-2.247-2.357c-0.119-0.119-0.239-0.234-0.358-0.352c-0.749-0.743-1.511-1.471-2.289-2.183
			c-0.079-0.072-0.156-0.146-0.235-0.218c-0.816-0.74-1.651-1.458-2.497-2.163c-0.165-0.138-0.331-0.276-0.497-0.412
			c-0.841-0.689-1.694-1.363-2.564-2.016c-0.139-0.106-0.281-0.207-0.421-0.31c-0.856-0.634-1.724-1.255-2.606-1.855
			c-0.075-0.051-0.147-0.103-0.222-0.154c-0.918-0.62-1.854-1.215-2.799-1.797c-0.183-0.113-0.365-0.225-0.55-0.337
			c-0.933-0.563-1.879-1.109-2.838-1.633c-0.16-0.087-0.323-0.172-0.484-0.259c-0.954-0.513-1.918-1.01-2.895-1.484
			c-0.065-0.031-0.128-0.065-0.193-0.095c-1.008-0.486-2.032-0.945-3.065-1.388c-0.198-0.085-0.396-0.17-0.595-0.255
			c-1.013-0.425-2.036-0.83-3.07-1.212c-0.181-0.067-0.363-0.13-0.545-0.196c-1.042-0.376-2.091-0.737-3.153-1.069
			c-0.05-0.015-0.098-0.033-0.148-0.049c-1.087-0.338-2.186-0.646-3.293-0.938c-0.209-0.055-0.418-0.112-0.629-0.164
			c-1.08-0.275-2.167-0.527-3.265-0.756c-0.2-0.042-0.401-0.079-0.602-0.12c-1.122-0.224-2.25-0.431-3.39-0.607
			c-0.028-0.004-0.056-0.01-0.083-0.014c-1.153-0.177-2.315-0.319-3.484-0.444c-0.218-0.023-0.436-0.049-0.655-0.07
			c-1.133-0.112-2.273-0.199-3.419-0.261c-0.216-0.011-0.433-0.02-0.649-0.029c-1.196-0.055-2.396-0.091-3.606-0.091
			s-2.41,0.036-3.606,0.091c-0.216,0.01-0.433,0.018-0.649,0.029c-1.146,0.062-2.286,0.149-3.419,0.261
			c-0.219,0.021-0.437,0.047-0.656,0.07c-1.168,0.125-2.331,0.268-3.483,0.444c-0.028,0.004-0.056,0.01-0.084,0.014
			c-1.138,0.175-2.267,0.383-3.389,0.607c-0.201,0.041-0.402,0.078-0.602,0.12c-1.097,0.228-2.184,0.481-3.264,0.756
			c-0.211,0.054-0.42,0.11-0.63,0.165c-1.106,0.291-2.206,0.599-3.291,0.936c-0.051,0.016-0.1,0.033-0.15,0.049
			c-1.06,0.333-2.109,0.692-3.149,1.068c-0.183,0.066-0.366,0.13-0.548,0.197c-1.033,0.383-2.056,0.787-3.067,1.211
			c-0.2,0.084-0.399,0.17-0.599,0.256c-1.031,0.442-2.053,0.901-3.061,1.386c-0.067,0.031-0.132,0.066-0.198,0.098
			c-0.974,0.473-1.935,0.969-2.885,1.48c-0.163,0.088-0.329,0.174-0.491,0.263c-0.957,0.523-1.9,1.068-2.833,1.63
			c-0.186,0.112-0.369,0.225-0.554,0.339c-0.944,0.58-1.878,1.175-2.795,1.794c-0.077,0.052-0.152,0.107-0.229,0.158
			c-0.879,0.598-1.743,1.215-2.595,1.848c-0.143,0.106-0.287,0.21-0.429,0.317c-0.866,0.652-1.718,1.323-2.556,2.01
			c-0.17,0.139-0.339,0.28-0.507,0.421c-0.843,0.703-1.676,1.419-2.489,2.156c-0.082,0.075-0.162,0.152-0.245,0.227
			c-0.774,0.708-1.532,1.433-2.276,2.17c-0.122,0.121-0.246,0.239-0.367,0.361c-0.764,0.767-1.51,1.552-2.241,2.351
			c-0.15,0.164-0.299,0.33-0.448,0.495c-0.73,0.811-1.448,1.633-2.145,2.475c-0.084,0.101-0.165,0.206-0.249,0.308
			c-0.659,0.802-1.3,1.619-1.926,2.449c-0.099,0.132-0.202,0.262-0.301,0.395c-0.055,0.073-0.112,0.144-0.165,0.217
			c-0.055-0.074-0.114-0.147-0.168-0.221c-0.096-0.129-0.196-0.255-0.292-0.383c-0.63-0.835-1.275-1.657-1.938-2.465
			c-0.08-0.098-0.158-0.199-0.239-0.296c-0.699-0.844-1.418-1.669-2.151-2.483c-0.147-0.162-0.293-0.326-0.441-0.486
			c-0.734-0.8-1.481-1.588-2.247-2.357c-0.119-0.119-0.239-0.234-0.358-0.352c-0.749-0.743-1.511-1.471-2.289-2.183
			c-0.079-0.072-0.156-0.146-0.235-0.218c-0.816-0.74-1.651-1.458-2.497-2.163c-0.165-0.138-0.331-0.276-0.497-0.412
			c-0.841-0.689-1.694-1.363-2.564-2.016c-0.139-0.106-0.281-0.207-0.421-0.31c-0.856-0.634-1.724-1.255-2.606-1.855
			c-0.075-0.051-0.147-0.103-0.222-0.154c-0.918-0.62-1.854-1.215-2.799-1.797c-0.183-0.113-0.365-0.225-0.55-0.337
			c-0.933-0.563-1.879-1.109-2.838-1.633c-0.16-0.087-0.323-0.172-0.484-0.259c-0.954-0.513-1.918-1.01-2.895-1.484
			c-0.065-0.031-0.128-0.065-0.193-0.095c-1.008-0.486-2.032-0.945-3.065-1.388c-0.198-0.085-0.396-0.17-0.595-0.255
			c-1.013-0.425-2.036-0.83-3.07-1.212c-0.181-0.067-0.363-0.13-0.545-0.196c-1.042-0.376-2.091-0.737-3.153-1.069
			c-0.05-0.015-0.098-0.032-0.148-0.049c-1.087-0.338-2.186-0.646-3.293-0.937c-0.209-0.055-0.418-0.112-0.629-0.164
			c-1.079-0.275-2.167-0.527-3.265-0.756c-0.2-0.042-0.401-0.079-0.602-0.12c-1.122-0.224-2.25-0.431-3.39-0.607
			c-0.028-0.004-0.056-0.01-0.083-0.014c-1.153-0.177-2.315-0.319-3.484-0.444c-0.218-0.023-0.436-0.049-0.655-0.07
			c-1.133-0.112-2.273-0.199-3.419-0.261c-0.216-0.011-0.433-0.02-0.649-0.029c-1.196-0.055-2.396-0.091-3.606-0.091
			c-1.198,0-2.387,0.037-3.572,0.09c-0.331,0.015-0.661,0.034-0.991,0.054c-0.944,0.055-1.883,0.127-2.818,0.215
			c-0.262,0.024-0.525,0.044-0.785,0.071c-1.156,0.121-2.304,0.268-3.444,0.439c-0.258,0.039-0.512,0.085-0.77,0.127
			c-0.917,0.147-1.828,0.31-2.734,0.49c-0.317,0.063-0.633,0.125-0.949,0.191c-1.126,0.237-2.246,0.49-3.354,0.776
			c-0.004,0.001-0.007,0.002-0.011,0.003c-1.105,0.285-2.197,0.603-3.282,0.934c-0.307,0.094-0.613,0.192-0.919,0.29
			c-0.864,0.276-1.722,0.567-2.572,0.872c-0.24,0.086-0.483,0.167-0.722,0.257c-1.052,0.39-2.093,0.801-3.123,1.234
			c-0.237,0.099-0.471,0.206-0.706,0.307c-0.824,0.356-1.64,0.725-2.448,1.109c-0.287,0.136-0.574,0.272-0.859,0.411
			c-1.006,0.492-2.005,0.997-2.986,1.532c-0.01,0.005-0.02,0.011-0.03,0.017c-0.973,0.53-1.93,1.087-2.877,1.657
			c-0.272,0.163-0.541,0.33-0.811,0.497c-0.756,0.467-1.503,0.947-2.241,1.438c-0.211,0.141-0.426,0.278-0.636,0.42
			c-0.912,0.62-1.81,1.259-2.694,1.917c-0.206,0.153-0.408,0.313-0.613,0.468c-0.703,0.534-1.397,1.08-2.081,1.637
			c-0.245,0.2-0.49,0.398-0.732,0.6c-0.851,0.71-1.693,1.433-2.513,2.177c-0.013,0.011-0.025,0.023-0.038,0.036
			c-0.81,0.737-1.598,1.495-2.375,2.266c-0.224,0.222-0.446,0.447-0.668,0.673c-0.622,0.63-1.232,1.27-1.832,1.922
			c-0.17,0.185-0.345,0.366-0.513,0.553c-0.738,0.816-1.458,1.648-2.161,2.494c-0.164,0.198-0.323,0.4-0.484,0.599
			c-0.558,0.686-1.104,1.38-1.639,2.084c-0.19,0.25-0.379,0.498-0.566,0.751c-0.661,0.894-1.312,1.797-1.936,2.72
			c-0.009,0.013-0.016,0.026-0.025,0.039c-0.616,0.911-1.205,1.84-1.783,2.779c-0.165,0.269-0.328,0.54-0.49,0.811
			c-0.459,0.766-0.905,1.541-1.338,2.324c-0.121,0.219-0.247,0.435-0.366,0.655c-0.476,0.881-0.94,1.768-1.382,2.668l-13.102-16.865
			l27.836-35.84h383.425L425.791,294.816z"/>
	</g>
</g>
</svg>