<?xml version="1.0" encoding="iso-8859-1"?>
<!-- Uploaded to: SVG Repo, www.svgrepo.com, Generator: SVG Repo Mixer Tools -->
<svg fill="#000000" height="800px" width="800px" version="1.1" id="Layer_1" xmlns="http://www.w3.org/2000/svg" xmlns:xlink="http://www.w3.org/1999/xlink" 
	 viewBox="0 0 512 512" xml:space="preserve">
<g>
	<g>
		<path d="M512,100.65c0-13.309-5.182-25.822-14.594-35.233c-9.411-9.41-21.924-14.594-35.233-14.594
			c-13.309,0-25.822,5.182-35.232,14.594l-15.336,15.336c-8.296-4.651-17.681-7.139-27.453-7.139
			c-15.033,0-29.166,5.854-39.796,16.484l-17.221,17.222c-10.631,10.63-16.484,24.763-16.484,39.796
			c0,9.772,2.488,19.157,7.139,27.453l-11.336,11.336l-109.92-17.07l-60.639,60.639l-21.664,21.664l21.7,21.7l21.664-21.664
			l41.794,41.794l-18.546,18.546L78.84,286.527l-46.325,46.326l-13.263,13.263L0,365.369l21.7,21.7l23.639-23.639l64.584,42.862
			l37.116,37.116l120.925-81.865l56.268,56.268l-21.664,21.664l21.7,21.7l21.664-21.664l60.639-60.64L386.12,247.17l111.287-111.287
			C506.818,126.473,512,113.96,512,100.65z M348.834,129.02l17.221-17.221c4.833-4.834,11.259-7.495,18.094-7.495
			c1.228,0,2.442,0.086,3.636,0.255l-46.192,46.192c-0.169-1.194-0.255-2.408-0.255-3.636
			C341.339,140.28,344.001,133.853,348.834,129.02z M179.297,229.472l27.922-27.922l72.354,11.236l-58.481,58.481L179.297,229.472z
			 M67.479,341.291l20.843-20.844l67.132,16.444l-37.739,37.739L67.479,341.291z M345.934,396.11l-52.088-52.088l-17.493-17.493
			l78.797-78.797l18.706,120.455L345.934,396.11z M475.706,114.183l-95.42,95.42l-4.088-26.32L232.951,326.529l12.914,12.914
			l-95.046,64.345l-9.425-9.425l79.695-79.695l0.108,0.108l123.01-123.008l-0.188-0.03l104.62-104.62
			c3.615-3.615,8.42-5.605,13.533-5.605c5.113,0,9.918,1.991,13.533,5.605c3.614,3.615,5.605,8.42,5.605,13.533
			S479.32,110.568,475.706,114.183z"/>
	</g>
</g>
</svg>