<?xml version="1.0" encoding="iso-8859-1"?>
<!-- Uploaded to: SVG Repo, www.svgrepo.com, Generator: SVG Repo Mixer Tools -->
<svg version="1.1" id="Layer_1" xmlns="http://www.w3.org/2000/svg" xmlns:xlink="http://www.w3.org/1999/xlink" 
	 viewBox="0 0 512 512" xml:space="preserve">
<g>
	<path style="fill:#F2F2F2;" d="M256,206.405V256h-96.06c0-53.047,43.012-96.047,96.06-96.047V206.405z"/>
	<path style="fill:#F2F2F2;" d="M256,206.405v-46.452c53.047,0,96.047,42.999,96.047,96.047H256L256,206.405L256,206.405z"/>
	<path style="fill:#F2F2F2;" d="M256,305.595V256h96.047c0,53.047-42.999,96.06-96.047,96.06L256,305.595L256,305.595z"/>
	<path style="fill:#F2F2F2;" d="M256,305.595v46.465c-53.047,0-96.06-43.012-96.06-96.06H256V305.595z"/>
	<path style="fill:#F2F2F2;" d="M352.047,256c0-53.047-42.999-96.047-96.047-96.047S159.94,202.953,159.94,256
		s43.012,96.06,96.06,96.06S352.047,309.047,352.047,256z M256,36.095c121.45,0,219.905,98.456,219.905,219.905
		S377.45,475.905,256,475.905S36.095,377.45,36.095,256S134.55,36.095,256,36.095z"/>
</g>
<path style="fill:#666666;" d="M256,0c141.378,0,256,114.609,256,256S397.378,512,256,512C114.609,512,0,397.391,0,256
	S114.609,0,256,0z M475.905,256c0-121.45-98.456-219.905-219.905-219.905S36.095,134.55,36.095,256S134.55,475.905,256,475.905
	S475.905,377.45,475.905,256z"/>
<path style="fill:#B3B3B3;" d="M256,361.721c-58.294,0-105.721-47.426-105.721-105.721c0-58.288,47.426-105.708,105.721-105.708
	c58.288,0,105.708,47.42,105.708,105.708C361.708,314.294,314.288,361.721,256,361.721z M256,169.615
	c-47.639,0-86.398,38.752-86.398,86.385c0,47.639,38.757,86.398,86.398,86.398c47.633,0,86.385-38.757,86.385-86.398
	C342.385,208.367,303.633,169.615,256,169.615z"/>
<g>
	<rect x="228.304" y="104.639" style="fill:#FCBB29;" width="55.392" height="12.882"/>
	<rect x="228.304" y="394.479" style="fill:#FCBB29;" width="55.392" height="12.882"/>
	<rect x="228.304" y="199.964" style="fill:#FCBB29;" width="55.392" height="12.882"/>
	<rect x="228.304" y="299.154" style="fill:#FCBB29;" width="55.392" height="12.882"/>
</g>
<g>
	<rect x="249.559" y="84.131" style="fill:#808080;" width="12.882" height="343.738"/>
	<rect x="84.131" y="249.559" style="fill:#808080;" width="343.725" height="12.882"/>
</g>
</svg>