<?xml version="1.0" encoding="iso-8859-1"?>
<!-- Uploaded to: SVG Repo, www.svgrepo.com, Generator: SVG Repo Mixer Tools -->
<svg height="800px" width="800px" version="1.1" id="Layer_1" xmlns="http://www.w3.org/2000/svg" xmlns:xlink="http://www.w3.org/1999/xlink" 
	 viewBox="0 0 512 512" xml:space="preserve">
<polygon style="fill:#4D4D4D;" points="431.063,75.837 344.935,134.565 377.439,167.069 436.167,80.941 "/>
<polygon style="fill:#666666;" points="364.321,9.095 343.493,133.122 344.935,134.565 431.063,75.837 "/>
<polygon style="fill:#808080;" points="436.167,80.941 377.439,167.069 378.882,168.512 502.909,147.683 "/>
<polygon style="fill:#B3B3B3;" points="344.935,134.565 164.933,257.295 162.52,259.695 252.297,349.473 254.698,347.06 
	377.439,167.069 "/>
<polygon style="fill:#808080;" points="162.52,259.695 45.707,376.521 135.484,466.286 252.297,349.473 "/>
<path style="fill:#FCBB29;" d="M135.484,466.286l-89.777-89.765l-0.606,0.606l-18.695,18.695c-1.988,1.988-3.892,4.316-5.686,6.935
	c-39.766,57.503,31.013,128.283,88.528,88.528c2.607-1.806,4.934-3.71,6.923-5.698l18.707-18.695L135.484,466.286z"/>
<polygon style="fill:#999999;" points="351.721,141.351 377.439,167.069 254.698,347.06 252.297,349.473 226.579,323.754 
	228.979,321.342 "/>
<polygon style="fill:#666666;" points="109.765,440.568 226.579,323.754 252.297,349.473 135.484,466.286 45.707,376.521 
	45.708,376.52 "/>
<path style="fill:#D39A29;" d="M83.529,465.567c2.607-1.806,4.934-3.71,6.923-5.698l18.707-18.695l0.605-0.605l25.721,25.717
	l-0.606,0.606l-18.707,18.695c-1.988,1.988-4.316,3.892-6.923,5.698c-35.026,24.209-74.968,7.427-91.871-22.385
	C36.52,479.754,61.038,481.112,83.529,465.567z"/>
<path style="fill:#333333;" d="M509.338,141.251l-61.421-61.421l6.671-9.784c2.462-3.61,2.008-8.462-1.083-11.552
	c-3.092-3.089-7.94-3.546-11.552-1.084l-9.785,6.672L370.749,2.664c-2.408-2.408-5.958-3.269-9.2-2.231
	c-3.243,1.037-5.634,3.797-6.198,7.154l-20.648,122.952L159.816,249.783c-0.468,0.32-0.907,0.683-1.307,1.084L19.977,389.398
	c-2.321,2.321-4.589,5.075-6.741,8.188c-23.577,34.104-12.551,70.952,8.838,92.34C35.005,502.856,53.585,512,73.794,512
	c13.219,0,27.134-3.912,40.621-13.237c3.113-2.152,5.868-4.42,8.187-6.741L261.134,353.49c0.401-0.401,0.764-0.839,1.084-1.307
	l119.244-174.888l122.95-20.648c3.357-0.564,6.118-2.956,7.154-6.198S511.745,143.658,509.338,141.251z M370.366,27.999
	l46.512,46.512l-61.348,41.828L370.366,27.999z M376.105,152.875l-16.977-16.977l53.359-36.382L376.105,152.875z M162.531,272.562
	l76.908,76.908L135.478,453.431L58.57,376.523L162.531,272.562z M109.744,479.164c-1.547,1.548-3.455,3.11-5.67,4.641
	c-27.233,18.825-54.265,8.135-69.14-6.738c-14.875-14.875-25.564-41.907-6.738-69.139c1.531-2.215,3.093-4.122,4.641-5.672
	l12.873-12.873l76.908,76.908L109.744,479.164z M251.422,335.736l-75.158-75.158l167.57-114.254l21.844,21.842L251.422,335.736z
	 M395.662,156.472l41.828-61.348l46.512,46.512L395.662,156.472z"/>
</svg>