<?xml version="1.0" encoding="iso-8859-1"?>
<!-- Uploaded to: SVG Repo, www.svgrepo.com, Generator: SVG Repo Mixer Tools -->
<svg fill="#000000" height="800px" width="800px" version="1.1" id="Layer_1" xmlns="http://www.w3.org/2000/svg" xmlns:xlink="http://www.w3.org/1999/xlink" 
	 viewBox="0 0 512 512" xml:space="preserve">
<g>
	<g>
		<path d="M477.241,374.453l-62.033-86.776c-2.138-2.991-5.905-4.345-9.466-3.392l-20.586,5.513l-25-14.431
			c1.172-6.362,1.767-12.849,1.767-19.366c0-6.517-0.595-13.004-1.767-19.366l25-14.431l20.586,5.513
			c3.578,0.953,7.332-0.396,9.466-3.392l62.026-86.776c2.013-2.815,2.194-6.547,0.465-9.547c-1.741-3-5.09-4.759-8.5-4.371
			l-106.164,10.328c-3.664,0.353-6.72,2.944-7.672,6.5l-5.517,20.586l-24.495,14.44c-9.897-8.457-21.977-15.052-33.012-19.379
			v-28.862l14.551-15.069c2.603-2.604,3.059-6.543,1.533-9.892L264.156,5.177C262.725,2.022,259.517,0,256.056,0
			c-3.461,0-6.636,2.022-8.067,5.177l-44.154,97.103c-1.526,3.349-0.301,7.289,2.303,9.892l15.58,15.069v28.862
			c-13.241,4.328-24.149,10.922-34.044,19.379l-25.272-14.44l-5.647-20.586c-0.953-3.556-4.073-6.147-7.737-6.5L42.821,123.629
			c-3.418-0.384-6.788,1.371-8.516,4.371c-1.728,3-1.556,6.733,0.457,9.547l62.023,86.776c2.134,2.991,5.903,4.328,9.463,3.392
			l20.585-5.513l24.999,14.431c-1.177,6.371-1.771,12.858-1.771,19.366c0,6.509,0.595,12.996,1.771,19.366l-25,14.431l-20.586-5.513
			c-3.543-0.935-7.328,0.405-9.466,3.392l-62.026,86.776c-2.013,2.815-2.194,6.547-0.465,9.547c1.733,3,5.078,4.742,8.5,4.371
			l106.164-10.328c3.664-0.353,6.72-2.944,7.672-6.5l5.517-20.586l25.531-14.44c9.896,8.457,20.803,15.052,34.044,19.379v28.862
			l-15.587,15.069c-2.603,2.603-3.579,6.543-2.053,9.892l44.009,97.103c1.431,3.155,4.509,5.177,7.97,5.177
			c3.461,0,6.571-2.022,8.002-5.177l44.122-97.103c1.526-3.349,1.32-7.289-1.283-9.892l-14.558-15.069v-28.862
			c11.034-4.328,23.115-10.922,33.012-19.379l24.753,14.44l5.388,20.586c0.953,3.556,3.944,6.147,7.608,6.5l106.131,10.328
			c3.414,0.375,6.751-1.371,8.484-4.371C479.443,381,479.254,377.267,477.241,374.453z M370.832,361.065l-4.879-18.207
			c-0.603-2.263-2.086-4.19-4.112-5.362L328.074,318c-3.44-1.979-7.746-1.435-10.565,1.315
			c-10.496,10.198-22.922,17.681-36.921,21.638c-3.797,1.078-5.904,4.547-5.904,8.496v38.965c0,2.341,0.413,4.586,2.068,6.242
			l13.068,13.332l-33.698,73.853l-33.634-73.853l13.814-13.332c1.655-1.655,3.072-3.901,3.072-6.242v-38.965
			c0-3.948-3.143-7.418-6.941-8.496c-13.996-3.957-27.199-11.44-37.695-21.638c-2.819-2.741-7.263-3.28-10.694-1.315l-33.832,19.496
			c-2.026,1.172-3.541,3.099-4.144,5.362l-4.896,18.207l-80.754,7.853l47.174-65.996l18.205,4.875
			c2.241,0.604,4.662,0.293,6.697-0.879l33.745-19.483c3.418-1.974,5.108-5.974,4.147-9.797c-1.772-7.047-2.668-14.323-2.668-21.638
			c0-7.315,0.896-14.59,2.668-21.638c0.961-3.823-0.729-7.823-4.147-9.798l-33.746-19.483c-2.026-1.159-4.435-1.487-6.698-0.879
			l-18.207,4.875L60.41,143.082l80.746,7.854l4.879,18.207c0.603,2.263,2.086,4.19,4.112,5.362L183.914,194
			c3.431,1.97,7.737,1.427,10.565-1.315c10.496-10.198,23.958-17.681,37.954-21.638c3.797-1.078,6.941-4.547,6.941-8.496v-38.966
			c0-2.34-1.449-4.586-3.104-6.241l-13.587-13.332l33.44-73.853l33.504,73.853l-12.841,13.332c-1.655,1.655-2.1,3.901-2.1,6.241
			v38.966c0,3.948,2.107,7.418,5.904,8.496c14,3.957,26.684,11.44,37.18,21.638c2.827,2.746,7.017,3.297,10.435,1.315l33.703-19.496
			c2.026-1.172,3.476-3.099,4.08-5.362l4.863-18.207l80.737-7.854l-47.18,65.996l-18.209-4.875
			c-2.254-0.608-4.674-0.293-6.699,0.879l-33.751,19.483c-3.418,1.974-5.112,5.978-4.147,9.802
			c1.771,7.026,2.668,14.306,2.668,21.634c0,7.328-0.897,14.608-2.668,21.634c-0.966,3.823,0.728,7.828,4.147,9.802l33.75,19.483
			c2.034,1.173,4.444,1.5,6.698,0.879l18.207-4.875l47.177,65.996L370.832,361.065z"/>
	</g>
</g>
<g>
	<g>
		<path d="M253.798,211.862c-24.336,0-44.138,19.802-44.138,44.138c0,24.336,19.802,44.138,44.138,44.138
			c24.336,0,44.138-19.802,44.138-44.138C297.936,231.664,278.134,211.862,253.798,211.862z M253.798,282.483
			c-14.603,0-26.483-11.879-26.483-26.483c0-14.603,11.879-26.483,26.483-26.483c14.604,0,26.483,11.88,26.483,26.483
			C280.28,270.603,268.401,282.483,253.798,282.483z"/>
	</g>
</g>
</svg>