<?xml version="1.0" encoding="iso-8859-1"?>
<!-- Uploaded to: SVG Repo, www.svgrepo.com, Generator: SVG Repo Mixer Tools -->
<svg fill="#000000" height="800px" width="800px" version="1.1" id="Layer_1" xmlns="http://www.w3.org/2000/svg" xmlns:xlink="http://www.w3.org/1999/xlink" 
	 viewBox="0 0 512 512" xml:space="preserve">
<g>
	<g>
		<path d="M507.538,169.003c-2.764-1.494-6.11-1.353-8.716,0.358c-29.76,19.4-116.019,64.852-157.4,42.43
			c-16.907-9.157-25.481-29.635-25.481-60.865c0-50.576-14.343-88.127-42.638-111.602C230.44,3.745,171.944,14.225,169.455,14.683
			c-3.446,0.649-6.152,3.346-6.801,6.797c-0.657,3.45,0.882,6.947,3.854,8.811c34.896,21.806,54.934,55.421,51.046,85.63
			c-4.262,33.161-36.828,60.869-91.686,78.013C-16.074,238.292,0.492,338.973,0.683,339.984c0.558,3.076,2.755,5.602,5.727,6.576
			c2.947,0.974,6.227,0.241,8.508-1.902c0.741-0.695,73.963-69.018,125.559-52.611c23.409,7.455,39.483,32.237,47.766,73.66
			c13.943,69.726,38.226,112.697,72.173,127.715c9.498,4.204,18.614,5.681,26.747,5.681c18.822,0,32.366-7.942,33.165-8.42
			c2.431-1.461,3.979-4.037,4.129-6.868c0.142-2.835-1.132-5.557-3.405-7.259c-33.631-25.227-49.772-71.403-38.376-109.796
			c10.963-36.961,44.17-59.125,93.501-62.417C483.613,297.184,512,217.585,512,176.499C512,173.369,510.285,170.493,507.538,169.003
			z M375.045,287.336c-56.14,3.742-95.765,30.921-108.718,74.575c-11.996,40.44,1.915,88.123,33.281,118.67
			c-8.258,1.99-19.954,2.78-32.532-2.859c-28.062-12.587-49.539-52.478-62.117-115.361c-9.59-47.958-29.544-77.081-59.312-86.558
			c-7.184-2.289-14.601-3.301-22.11-3.301c-41.048,0-84.644,30.293-106.379,47.783c2.389-27.171,19.663-80.66,113.788-110.075
			c78.95-24.67,99.869-63.707,103.524-92.115c3.921-30.493-11.296-63.287-39.691-88.04c18.813,0.337,46.101,4.458,67.745,22.472
			c24.133,20.091,36.37,53.198,36.37,98.4c0,37.968,11.579,63.487,34.405,75.853c46.684,25.282,126.666-14.959,159.856-34.064
			C487.659,222.101,465.374,281.313,375.045,287.336z"/>
	</g>
</g>
</svg>