<?xml version="1.0" encoding="iso-8859-1"?>
<!-- Uploaded to: SVG Repo, www.svgrepo.com, Generator: SVG Repo Mixer Tools -->
<svg fill="#000000" height="800px" width="800px" version="1.1" id="Layer_1" xmlns="http://www.w3.org/2000/svg" xmlns:xlink="http://www.w3.org/1999/xlink" 
	 viewBox="0 0 512 512" xml:space="preserve">
<g>
	<g>
		<path d="M482.022,65.538L258.605,0.375c-1.7-0.5-3.509-0.5-5.209,0L29.978,65.538c-4.495,1.309-7.314,5.75-6.591,10.373
			l46.545,297.89c0.008,0.051,0.03,0.098,0.039,0.149c0.058,0.337,0.16,0.664,0.256,0.994c0.073,0.252,0.13,0.509,0.224,0.754
			c0.11,0.29,0.263,0.563,0.404,0.842c0.135,0.267,0.257,0.537,0.417,0.79c0.145,0.23,0.325,0.441,0.492,0.659
			c0.21,0.276,0.416,0.552,0.657,0.804c0.047,0.049,0.078,0.107,0.126,0.155c0.15,0.151,0.326,0.258,0.484,0.395
			c0.194,0.17,0.365,0.364,0.575,0.518l176.872,130.327c1.641,1.209,3.582,1.814,5.523,1.814c1.941,0,3.882-0.604,5.523-1.814
			L438.395,379.86c1.977-1.459,3.295-3.632,3.673-6.059l35.78-228.999c1.525-2.28,1.899-5.073,1.193-7.634l9.572-61.257
			C489.336,71.288,486.517,66.847,482.022,65.538z M63.821,213.989h16.366l-14.154,14.154L63.821,213.989z M72.306,268.353
			l-2.716-17.41l36.924-36.954h20.095L72.306,268.353z M75.851,291.066c0.181-0.156,0.378-0.324,0.55-0.495l76.536-76.581h24.736
			l-98.467,98.527L75.851,291.066z M82.623,334.449c1.123-0.455,2.175-1.198,3.086-2.109L204,213.989h20.218L85.496,352.771
			L82.623,334.449z M247.77,484.268l-16.461-12.129l16.461-16.461V484.268z M247.77,429.681c-2.327,0.359-1.643,0.773-2.135,1.265
			l-30.024,30.024l-11.924-8.785l44.083-46.827V429.681z M247.77,378.011l-58.903,63.054l-12.008-8.65l70.911-73.993V378.011z
			 M247.77,331.41l-85.746,89.876l-14.523-10.501l100.269-99.729V331.41z M247.77,284.728L132.614,399.615l-11.911-8.577
			L247.77,264.51V284.728z M247.77,238.183L105.814,379.869l-11.91-8.577L247.77,217.965V238.183z M247.77,195.371H60.912
			L43.582,81.06L247.77,21.721V195.371z M417.09,65.961l15.801,4.564L308,195.371h-20.219L416.254,66.954
			C416.572,66.636,416.827,66.312,417.09,65.961z M266.389,21.721l23.443,6.838l-23.443,23.443V21.721z M266.389,78.329
			l43.226-43.765l15.843,4.505l-59.069,59.477V78.329z M266.389,124.874l79.586-79.861l15.386,4.567l-94.972,95.512V124.874z
			 M266.389,171.42L379.576,57.693c0.697-0.697,0.946-1.491,1.376-2.32l16.576,4.717L266.389,191.638V171.42z M424.807,367.081
			L266.389,484.268V213.989h181.789L424.807,367.081z M451.087,195.371h-23.669l28.053-28.053L451.087,195.371z M460.346,136.176
			l-59.255,59.195h-20.218l83.218-83.188L460.346,136.176z M468.942,81.218c-0.223,0.184-0.462,0.278-0.671,0.488L354.545,195.371
			h-20.218L448.763,80.996c1.432-1.433,2.278-3.187,2.583-5.043l17.612,5.152L468.942,81.218z"/>
	</g>
</g>
</svg>