<?xml version="1.0" encoding="iso-8859-1"?>
<!-- Uploaded to: SVG Repo, www.svgrepo.com, Generator: SVG Repo Mixer Tools -->
<svg height="800px" width="800px" version="1.1" id="Layer_1" xmlns="http://www.w3.org/2000/svg" xmlns:xlink="http://www.w3.org/1999/xlink" 
	 viewBox="0 0 512 512" xml:space="preserve">
<path style="fill:#06B559;" d="M464.831,459.263V512H47.182v-52.737v-65.828v-60.113v-65.828v-40.042
	c27.755-15.879,46.485-45.756,46.485-80.032V20.775C93.667,9.307,102.961,0,114.442,0h28.599c11.481,0,20.775,9.307,20.775,20.775
	v45.04c0,25.454,10.33,48.505,27.001,65.189c16.748,16.735,39.888,27.078,65.457,27.001c51.036-0.153,91.909-42.535,91.909-93.558
	V20.775C348.184,9.307,357.491,0,368.959,0h28.612c11.468,0,20.775,9.307,20.775,20.775V147.42
	c0,34.276,18.717,64.153,46.485,80.032v40.042v65.828v60.113L464.831,459.263L464.831,459.263z"/>
<path style="fill:#0B9B53;" d="M74.03,485.152v-243.41c29.008-22.355,46.485-57.21,46.485-94.323V26.848h16.454v38.968
	c0,31.779,12.379,61.669,34.857,84.165c22.51,22.493,52.397,34.873,84.167,34.873h0.363c65.44-0.197,118.676-54.211,118.676-120.406
	v-37.6h16.468V147.42c0,37.12,17.478,71.975,46.484,94.325v243.407L74.03,485.152L74.03,485.152z"/>
<g>
	<path style="fill:#4D4D4D;" d="M47.182,267.493h99.913c7.095,0,12.847,5.752,12.847,12.847v40.135
		c0,7.095-5.752,12.847-12.847,12.847H47.182H35.099c-7.095,0-12.847-5.752-12.847-12.847v-40.135
		c0-7.095,5.752-12.847,12.847-12.847L47.182,267.493L47.182,267.493z"/>
	<path style="fill:#4D4D4D;" d="M47.182,393.435h99.913c7.095,0,12.847,5.752,12.847,12.847v40.135
		c0,7.095-5.752,12.847-12.847,12.847H47.182H35.099c-7.095,0-12.847-5.752-12.847-12.847v-40.135
		c0-7.095,5.752-12.847,12.847-12.847H47.182z"/>
	<path style="fill:#4D4D4D;" d="M464.831,459.263h-99.926c-7.095,0-12.847-5.752-12.847-12.847v-40.135
		c0-7.095,5.752-12.847,12.847-12.847h99.926h12.07c7.095,0,12.847,5.752,12.847,12.847v40.135c0,7.095-5.752,12.847-12.847,12.847
		H464.831z"/>
	<path style="fill:#4D4D4D;" d="M464.831,333.322h-99.926c-7.095,0-12.847-5.752-12.847-12.847v-40.135
		c0-7.095,5.752-12.847,12.847-12.847h99.926h12.07c7.095,0,12.847,5.752,12.847,12.847v40.135c0,7.095-5.752,12.847-12.847,12.847
		H464.831z"/>
</g>
</svg>