<?xml version="1.0" encoding="iso-8859-1"?>
<!-- Uploaded to: SVG Repo, www.svgrepo.com, Generator: SVG Repo Mixer Tools -->
<svg fill="#000000" height="800px" width="800px" version="1.1" id="Layer_1" xmlns="http://www.w3.org/2000/svg" xmlns:xlink="http://www.w3.org/1999/xlink" 
	 viewBox="0 0 512 512" xml:space="preserve">
<g>
	<g>
		<path d="M510.578,234.625C500.216,110.58,400.777,11.341,276.735,0.979c-1.164-0.565-2.711-0.968-4.092-0.968h-35.309
			c-1.383,0-2.672,0.403-3.838,0.968C109.454,11.341,10.781,110.551,0.422,234.596c-0.567,1.165-0.399,2.484-0.399,3.865v35.308
			c0,1.383-0.168,2.674,0.399,3.84C10.784,401.648,109.71,500.773,233.75,511.135c1.166,0.567,2.2,0.853,3.584,0.853h35.309
			c1.381,0,2.674-0.287,3.838-0.853c124.04-10.362,223.733-109.517,234.097-233.556c0.565-1.164,1.422-2.427,1.422-3.81v-35.308
			C512,237.08,511.142,235.789,510.578,234.625z M282.493,141.362V19.261c110.34,12.25,197.099,99.918,209.348,210.258h-122.1
			c-4.879,0-7.803,4.068-7.803,8.942v8.712h-17.654v-17.654h-17.654v17.654h-17.654v-17.654H291.32v17.654h-26.482v-26.482h17.654
			v-17.654h-17.654v-17.654h17.654v-17.654h-17.654v-17.654h7.803C277.521,150.074,282.493,146.237,282.493,141.362z
			 M247.184,17.961c2.207-0.107,5.871-0.18,8.827-0.18c2.957,0,4.414,0.073,8.827,0.18v114.458h-17.654V17.961z M229.53,19.261
			v122.101c0,4.875,2.924,8.712,7.803,8.712h9.851v17.654H229.53v17.654h17.654v17.654H229.53v17.654h17.654v26.482h-26.482v-17.654
			h-17.654v17.654h-17.654v-17.654H167.74v17.654h-17.654v-8.712c0-4.875-4.972-8.942-9.851-8.942H18.132
			C30.384,119.179,119.19,31.511,229.53,19.261z M16.654,256c0-2.957,0.073-6.62,0.179-8.827h115.598v17.654H16.833
			C16.727,262.62,16.654,258.957,16.654,256z M229.53,370.868V492.97C119.19,480.72,30.384,392.821,18.132,282.482h122.102
			c4.879,0,9.851-3.832,9.851-8.713v-8.941h17.654v17.654h17.654v-17.654h17.654v17.654h17.654v-17.654h26.482v26.482H229.53v17.654
			h17.654v17.654H229.53v17.654h17.654v17.654h-9.851C232.455,361.926,229.53,365.988,229.53,370.868z M264.839,494.269
			c-4.414,0.108-5.87,0.179-8.827,0.179c-2.957,0-6.62-0.071-8.827-0.179V379.581h17.654V494.269z M282.493,492.97V370.868
			c0-4.879-4.972-8.941-9.851-8.941h-7.803v-17.654h17.654v-17.654h-17.654v-17.654h17.654v-17.654h-17.654v-26.482h26.482v17.654
			h17.654v-17.654h17.654v17.654h17.654v-17.654h17.654v8.941c0,4.881,2.924,8.713,7.803,8.713h122.1
			C479.592,392.821,392.833,480.72,282.493,492.97z M493.141,264.827H379.592v-17.654h113.549c0.108,2.207,0.181,5.871,0.181,8.827
			C493.322,258.957,493.249,262.62,493.141,264.827z"/>
	</g>
</g>
<g>
	<g>
		<path d="M113.753,105.938c-4.879,0-7.803,4.068-7.803,8.942v61.675h17.654v-52.963h52.963v-17.654H113.753z"/>
	</g>
</g>
<g>
	<g>
		<path d="M396.223,105.938h-60.767v17.654h52.963v52.963h17.654V114.88C406.074,110.006,401.102,105.938,396.223,105.938z"/>
	</g>
</g>
<g>
	<g>
		<path d="M123.604,388.408v-52.963H105.95v61.905c0,4.881,2.924,8.713,7.803,8.713h62.814v-17.654H123.604z"/>
	</g>
</g>
<g>
	<g>
		<path d="M388.419,335.445v52.963h-52.963v17.654h60.767c4.879,0,9.851-3.832,9.851-8.713v-61.905H388.419z"/>
	</g>
</g>
</svg>