<?xml version="1.0" encoding="iso-8859-1"?>
<!-- Uploaded to: SVG Repo, www.svgrepo.com, Generator: SVG Repo Mixer Tools -->
<svg fill="#000000" height="800px" width="800px" version="1.1" id="Layer_1" xmlns="http://www.w3.org/2000/svg" xmlns:xlink="http://www.w3.org/1999/xlink" 
	 viewBox="0 0 512 512" xml:space="preserve">
<g>
	<g>
		<path d="M256,210.097c-25.221,0-45.743,20.522-45.743,45.743c0,25.221,20.522,45.743,45.743,45.743
			c25.221,0,45.743-20.522,45.743-45.743C301.743,230.619,281.221,210.097,256,210.097z M256,283.286
			c-15.134,0-27.446-12.311-27.446-27.446c0-15.134,12.311-27.446,27.446-27.446c15.134,0,27.446,12.311,27.446,27.446
			C283.446,270.975,271.134,283.286,256,283.286z"/>
	</g>
</g>
<g>
	<g>
		<path d="M477.879,374.839c-6.133-10.842-37.684-65.47-56.397-76.275c-14.174-8.188-31.408-8.117-45.39-0.214
			c-23.063-12.937-46.904-35.352-46.904-42.509c0-9.827,38.537-33.449,56.535-36.742c0.983-0.179,1.912-0.514,2.765-0.983
			c11.127,2.524,22.907,0.831,32.994-4.999c18.713-10.806,50.264-65.434,56.397-76.275c1.599-2.823,1.581-6.276-0.036-9.082
			c-1.622-2.805-4.605-4.547-7.844-4.574c-12.472-0.076-75.547-0.098-94.26,10.703c-13.486,7.786-21.889,21.549-22.8,36.809
			c-21.38,13.289-34.169,20.401-37.474,21.102c-17.654,0-32.02-14.366-32.02-32.02l-0.004-2.095
			c-0.005-5.419-0.027-20.155-0.027-29.903c11.422-8.572,18.328-22.161,18.328-36.617c0-21.607-31.537-76.248-37.858-86.978
			c-3.288-5.584-12.481-5.584-15.769,0c-6.321,10.73-37.859,65.371-37.859,86.978c0,14.456,6.906,28.044,18.328,36.617
			c0,9.747-0.022,24.484-0.027,29.903l-0.005,2.095c0,17.654-14.366,32.02-31.636,32.038c-3.9-0.509-20.205-7.692-37.809-16.569
			c0.648-16.751-7.992-32.784-22.849-41.356c-18.717-10.81-81.819-10.797-94.26-10.708c-3.239,0.027-6.223,1.769-7.844,4.574
			c-1.617,2.805-1.635,6.258-0.036,9.082c6.133,10.842,37.684,65.469,56.397,76.275c13.987,8.072,31.118,8.108,45.033,0.411
			c21.531,10.574,47.261,34.392,47.261,42.312c0,7.156-23.841,29.572-46.904,42.509c-13.973-7.911-31.207-7.974-45.39,0.214
			c-18.712,10.806-50.263,65.434-56.397,76.275c-1.599,2.823-1.581,6.276,0.036,9.082c1.622,2.805,4.606,4.547,7.844,4.574
			c12.472,0.094,75.552,0.107,94.26-10.703c14.679-8.47,23.327-24.337,22.862-40.927c20.727-10.551,34.571-16.515,37.412-16.984
			c17.654,0,32.02,14.366,32.02,32.02l0.005,2.095c0.004,5.418,0.027,20.155,0.027,29.903
			c-11.422,8.572-18.328,22.161-18.328,36.616c0,21.607,31.538,76.248,37.859,86.978c1.644,2.792,4.646,4.507,7.884,4.507
			c3.239,0,6.24-1.715,7.884-4.507c6.321-10.73,37.858-65.371,37.858-86.978c0-14.455-6.906-28.044-18.328-36.616
			c0-9.747,0.022-24.484,0.027-29.903l0.004-2.095c0-17.654,14.366-32.02,31.524-32.047c3.301,0.496,17.181,6.459,37.908,17.011
			c-0.465,16.591,8.184,32.458,22.862,40.923c18.717,10.815,81.864,10.828,94.26,10.707c3.239-0.027,6.223-1.769,7.844-4.574
			C479.461,381.115,479.479,377.662,477.879,374.839z M384.888,361.942c-10.033-5.789-15.371-17.328-13.285-28.719
			c0.728-3.953-1.215-7.92-4.789-9.77c-42.214-21.871-48.852-21.871-51.349-21.871c-27.745,0-50.317,22.572-50.317,50.317
			l-0.004,2.068c-0.009,6.455-0.036,26.097-0.022,34.852c0.005,3.261,1.751,6.276,4.574,7.907
			c8.483,4.891,13.75,14.009,13.75,23.787c0,10.6-14.648,40.606-27.446,63.835c-12.798-23.229-27.446-53.234-27.446-63.835
			c0-9.778,5.267-18.896,13.75-23.787c2.823-1.63,4.57-4.646,4.574-7.907c0.013-8.755-0.013-28.397-0.022-34.852l-0.005-2.068
			c0-27.745-22.572-50.317-50.317-50.317c-2.497,0-9.135,0-51.349,21.871c-3.574,1.849-5.517,5.816-4.789,9.77
			c2.086,11.391-3.252,22.93-13.285,28.723c-9.184,5.302-42.491,7.621-69.007,8.148c13.719-22.697,32.382-50.384,41.562-55.682
			c9.573-5.526,21.455-4.797,30.264,1.858c2.797,2.109,6.536,2.444,9.644,0.858c15.769-7.983,61.534-38.564,61.534-61.288
			c0-23.068-43.978-53.301-62.745-61.123c-2.939-1.228-6.294-0.835-8.876,1.028c-8.76,6.325-20.464,6.928-29.822,1.523
			c-9.18-5.298-27.843-32.985-41.562-55.682c26.517,0.527,59.827,2.845,69.007,8.152c10.158,5.861,15.47,17.529,13.223,29.027
			c-0.782,3.989,1.166,8.014,4.775,9.881c15.496,8.014,42.781,21.451,51.425,21.451c27.745,0,50.317-22.572,50.317-50.317
			l0.005-2.068c0.009-6.455,0.036-26.096,0.022-34.852c-0.005-3.261-1.751-6.276-4.574-7.907
			c-8.483-4.891-13.75-14.009-13.75-23.787c0-10.6,14.648-40.606,27.446-63.834c12.798,23.229,27.446,53.234,27.446,63.834
			c0,9.778-5.267,18.896-13.75,23.787c-2.823,1.63-4.57,4.646-4.574,7.907c-0.013,8.755,0.013,28.397,0.022,34.852l0.004,2.068
			c0,27.745,22.572,50.317,50.317,50.317c6.768,0,18.815-6.169,49.598-25.395l1.858-1.157c2.85-1.778,4.494-4.972,4.288-8.327
			c-0.643-10.475,4.596-20.24,13.678-25.484c9.184-5.302,42.491-7.621,69.007-8.148c-13.718,22.697-32.382,50.384-41.562,55.686
			c-7.902,4.552-17.52,4.891-25.739,0.911c-3.408-1.657-7.5-1.036-10.27,1.572c-1.126,1.063-1.939,2.363-2.408,3.77
			c-21.366,7.478-63.026,29.509-63.026,52.314c0,22.72,45.761,53.306,61.53,61.288c3.113,1.586,6.857,1.251,9.64-0.858
			c8.818-6.651,20.705-7.393,30.273-1.858c9.18,5.298,27.843,32.985,41.562,55.682C427.379,369.568,394.068,367.245,384.888,361.942
			z"/>
	</g>
</g>
</svg>