<?xml version="1.0" encoding="iso-8859-1"?>
<!-- Uploaded to: SVG Repo, www.svgrepo.com, Generator: SVG Repo Mixer Tools -->
<svg fill="#000000" height="800px" width="800px" version="1.1" id="Layer_1" xmlns="http://www.w3.org/2000/svg" xmlns:xlink="http://www.w3.org/1999/xlink" 
	 viewBox="0 0 511.996 511.996" xml:space="preserve">
<g>
	<g>
		<path d="M490.523,2.417c-3.221-3.222-8.445-3.222-11.667,0l-41.615,41.615l-7.39-7.39c-3.222-3.222-8.446-3.221-11.667,0
			c-3.222,3.222-3.222,8.446,0,11.668l7.39,7.39l-53.534,53.531l-24.193-4.838c-2.706-0.542-5.501,0.305-7.452,2.256L217.45,229.595
			l-8.769-3.678l8.768-8.768c0.425,0.066,0.851,0.108,1.28,0.108c2.111,0,4.223-0.805,5.834-2.417c3.222-3.222,3.222-8.445,0-11.667
			l-21.919-21.919c-3.222-3.222-8.446-3.222-11.667,0c-1.938,1.938-2.702,4.599-2.308,7.114l-85.379,85.379
			c-2.515-0.394-5.177,0.37-7.114,2.308c-3.222,3.222-3.222,8.445,0,11.667l21.919,21.919c1.61,1.612,3.723,2.417,5.834,2.417
			s4.223-0.805,5.834-2.417c1.938-1.938,2.702-4.599,2.308-7.114l25.007-25.007l3.677,8.769l-27.472,27.472
			c-6.773,6.773-9.74,16.312-8.384,25.497L21.473,442.685c-1.823,1.823-2.69,4.394-2.341,6.948c0.348,2.554,1.87,4.8,4.115,6.068
			c22.326,12.619,41.817,30.452,56.364,51.57l0.796,1.156c1.54,2.235,4.08,3.57,6.794,3.57c0.002,0,0.004,0,0.007,0
			c2.716-0.002,5.257-1.341,6.795-3.581l64.564-94.039l5.945,12.739c0.996,2.134,2.856,3.74,5.112,4.416
			c0.776,0.232,1.571,0.346,2.364,0.346c1.515,0,3.017-0.417,4.333-1.229l27.763-17.131c8.516-5.254,11.865-16.108,7.791-25.246
			l-10.271-23.041l22.889-22.89c2.21-2.21,2.981-5.478,1.993-8.443l-8.111-24.332l6.507-6.507l16.724,16.724
			c3.222,3.222,8.446,3.222,11.667,0l33.448-33.449c3.222-3.222,3.222-8.445,0-11.667l-16.724-16.724l77.811-88.732
			c2.823-3.272,2.642-8.168-0.413-11.223l-0.389-0.389L490.523,14.084C493.745,10.862,493.745,5.639,490.523,2.417z M199.214,201.16
			l5.445,5.445l-25.965,25.965l-5.445-5.445L199.214,201.16z M196.074,238.525l8.769,3.678l-31.484,31.484l-3.677-8.769
			L196.074,238.525z M121.524,289.74l-5.445-5.445l45.502-45.502l5.445,5.445L121.524,289.74z M87.008,489.454
			c-12.924-16.642-28.719-31.116-46.425-42.542l90.795-90.795l19.089,40.907L87.008,489.454z M195.42,399.476l-19.875,12.264
			l-18.882-40.46l20.453-20.454l19.688,44.165C197.529,396.615,196.934,398.543,195.42,399.476z M194.409,349.091l-4.796-10.761
			l15.719-15.719l3.889,11.668L194.409,349.091z M149.239,355.369l-6.943-14.877c-2.361-5.059-1.295-11.111,2.653-15.059
			l99.381-99.381l17.114,17.113L149.239,355.369z M247.441,302.282l-10.891-10.89l21.78-21.78l10.89,10.891L247.441,302.282z
			 M272.665,231.051l-16.667-16.667l62.23-62.23l11.277,11.277c0.001,0.001,0.001,0.002,0.002,0.002
			c0.001,0.001,0.002,0.001,0.002,0.002l0.801,0.801L272.665,231.051z M335.339,145.932l-5.445-5.445l19.047-19.047l9.076,1.815
			L335.339,145.932z"/>
	</g>
</g>
</svg>