<?xml version="1.0" encoding="iso-8859-1"?>
<!-- Uploaded to: SVG Repo, www.svgrepo.com, Generator: SVG Repo Mixer Tools -->
<svg version="1.1" id="Layer_1" xmlns="http://www.w3.org/2000/svg" xmlns:xlink="http://www.w3.org/1999/xlink" 
	 viewBox="0 0 511.992 511.992" xml:space="preserve">
<polygon style="fill:#999999;" points="331.185,130.262 261.944,199.503 213.735,199.503 282.975,130.262 "/>
<path style="fill:#808080;" d="M287.953,121.904c1.571,1.571,1.571,4.118,0,5.688l-66.397,66.397l-56.648,56.648
	c-1.571,1.571-4.118,1.571-5.688,0l-12.264-12.264c-1.571-1.571-1.571-4.118,0-5.688L270.001,109.64
	c1.571-1.571,4.118-1.571,5.688,0L287.953,121.904z"/>
<path style="fill:#999999;" d="M289.484,382.609l-19.94,41.254c-1.75,3.621-6.205,4.995-9.691,2.99l-80.48-46.294l-0.196-0.12
	c8.824-15.276,21.303-31.759,38.668-49.123l69.026,42.376C289.903,375.552,291.031,379.407,289.484,382.609z"/>
<path style="fill:#808080;" d="M197.443,375.891c6.328-9.325,13.855-18.678,22.506-27.963l55.368,33.989l-14.663,30.335
	L197.443,375.891z"/>
<rect x="372.912" y="146.128" transform="matrix(-0.7071 0.7071 -0.7071 -0.7071 761.5864 6.5357)" style="fill:#666666;" width="13.056" height="29.739"/>
<path style="fill:#B3B3B3;" d="M250.404,209.505L39.483,420.425c-8.954,8.954-7.475,23.871,3.057,30.899l85.952,57.294
	c3.395,2.263,7.279,3.373,11.13,3.373c5.179,0,10.325-2.002,14.198-5.875c9.89-9.89,14.155-24.045,11.424-37.754
	c-3.645-18.322-3.743-48.405,17.778-85.615c8.824-15.276,21.303-31.759,38.668-49.123l26.199-48.133
	c5.723-10.499,21.434-7.953,23.577,3.808c3.154,17.391,10.584,37.252,26.492,55.559c3.043,3.502,8.373,3.822,11.783,0.673
	l41.546-38.359c3.014-2.782,4.517-6.836,4.05-10.911l-7.964-69.233c0.046-0.416,0.044-0.843-0.011-1.275
	c-0.102-0.815-0.245-1.572-0.435-2.309c-0.015-0.069-0.032-0.136-0.051-0.202c-0.957-3.519-2.946-6.53-5.651-8.746l-3.115-27.046
	l46.675-46.675l-14.362-14.362L250.404,209.505z M336.273,225.762l7.33,63.71c0.865,7.521-1.751,15.026-7.105,20.38l0,0
	c-2.741,2.741-6.711,4.032-10.476,3.111c-3.581-0.876-6.339-3.358-7.586-6.839l-18.57-51.859c-0.836-2.342-0.239-4.992,1.52-6.751
	l24.208-24.208c2.371-2.371,5.126-1.964,6.199-1.678C333.947,222.201,335.599,223.733,336.273,225.762z"/>
<path style="fill:#999999;" d="M172.319,330.793c-5.558-5.558-14.567-5.558-20.124,0L51.023,431.965
	c-1.036,1.036-1.158,2.215-1.079,3.024c0.081,0.809,0.433,1.945,1.647,2.757l85.953,57.294c0.783,0.523,1.56,0.632,2.08,0.632
	c0.582,0,1.702-0.141,2.656-1.095c6.029-6.029,8.629-14.636,6.958-23.03c-4.253-21.379-4.295-55.557,19.653-96.962
	c3.553-6.153,7.555-12.305,11.988-18.438c4.07-5.633,3.388-13.404-1.525-18.318L172.319,330.793z"/>
<path style="fill:#808080;" d="M388.543,169.058l6.606-6.599c1.735-1.733,4.548-1.733,6.282,0.002l38.728,38.728
	c1.735,1.735,1.735,4.55-0.001,6.285l-14.234,14.227c-1.735,1.734-4.548,1.734-6.283-0.001l-38.728-38.728
	c-1.735-1.735-1.735-4.549,0-6.284L388.543,169.058z"/>
<rect x="366.443" y="41.589" transform="matrix(-0.7071 0.7071 -0.7071 -0.7071 766.908 -218.1664)" style="fill:#B3B3B3;" width="124.39" height="16.32"/>
<g>
	<path style="fill:#808080;" d="M330.416,129.493l46.98-46.98c1.815-1.815,4.757-1.815,6.572,0l11.892,11.892
		c1.815,1.815,1.815,4.757,0,6.572l-25.438,25.438l-94.852,94.852c-3.699,3.699-9.694,3.699-13.393,0l-11.772-11.761l10.771-10.771
		L330.416,129.493z"/>
	<path style="fill:#808080;" d="M241.397,253.313l-58.855,58.855c-1.806,1.806-1.806,4.734,0,6.539l0,0
		c1.806,1.806,4.734,1.806,6.539,0l58.855-58.855c1.806-1.806,1.806-4.734,0-6.539l0,0
		C246.131,251.507,243.203,251.507,241.397,253.313z"/>
	<path style="fill:#808080;" d="M230.242,242.158l-37.89,37.89c-1.806,1.806-1.806,4.734,0,6.539l0,0
		c1.806,1.806,4.734,1.806,6.539,0l37.89-37.89c1.806-1.806,1.806-4.734,0-6.539l0,0
		C234.976,240.352,232.048,240.352,230.242,242.158z"/>
</g>
</svg>