<?xml version="1.0" encoding="iso-8859-1"?>
<!-- Uploaded to: SVG Repo, www.svgrepo.com, Generator: SVG Repo Mixer Tools -->
<svg fill="#000000" height="800px" width="800px" version="1.1" id="Layer_1" xmlns="http://www.w3.org/2000/svg" xmlns:xlink="http://www.w3.org/1999/xlink" 
	 viewBox="0 0 512 512" xml:space="preserve">
<g>
	<g>
		<path d="M467.484,120.734c-1.864-1.637-4.605-2.388-7.057-2.04c-8.102,1.104-16.514,1.662-24.759,1.662
			c-79.222,0-130.287-56.117-173.609-116.759c-1.536-2.153-4.003-3.476-6.647-3.593c-2.645-0.08-5.197,0.986-6.918,2.993
			c-3.862,4.504-7.688,9.009-11.485,13.484c-47.268,55.739-88.09,103.876-162.543,103.876c-8.245,0-16.533-0.558-24.635-1.662
			c-2.443-0.348-4.448,0.403-6.312,2.04c-1.872,1.633-2.449,3.996-2.449,6.478v1.742c0,34.883,2.571,68.879,8.307,101.325
			c-0.13,0.595-0.458,1.208-0.458,1.842c0,1.735,0.397,3.344,1.28,4.694C77.064,378.861,155.405,489.811,253.177,511.79
			c0.621,0.139,1.228,0.21,1.858,0.21s1.75-0.071,2.372-0.21C378.859,484.487,470.93,319.906,470.93,128.954v-1.742
			C470.93,124.731,469.356,122.368,467.484,120.734z M247.403,492.243C161.431,466.758,93.797,367.414,68.249,240.605h179.154
			V492.243z M247.403,223.411H65.082c-4.685-27.941-7.115-56.864-7.514-86.65c5.692,0.487,11.674,0.79,17.392,0.79
			c80.292,0,125.159-50.683,172.444-105.573V223.411z M264.597,492.243V240.605h177.16
			C416.209,367.414,348.42,466.758,264.597,492.243z M445.036,223.546c-0.258-0.023-0.63-0.134-0.894-0.134H264.597V34.678
			c40.837,55.731,94.057,102.874,171.445,102.874c5.717,0,11.204-0.248,16.896-0.735
			C452.538,166.63,449.727,195.653,445.036,223.546z"/>
	</g>
</g>
</svg>