<?xml version="1.0" encoding="iso-8859-1"?>
<!-- Uploaded to: SVG Repo, www.svgrepo.com, Generator: SVG Repo Mixer Tools -->
<svg fill="#000000" height="800px" width="800px" version="1.1" id="Layer_1" xmlns="http://www.w3.org/2000/svg" xmlns:xlink="http://www.w3.org/1999/xlink" 
	 viewBox="0 0 512 512" xml:space="preserve">
<g>
	<g>
		<path d="M497.885,20.593c-0.149-0.172-0.301-0.339-0.467-0.5l-0.713-0.713c-0.166-0.172-0.335-0.325-0.509-0.475
			c-20.224-18.958-53.198-19.881-74.343-1.75l-88.191,75.62c-0.293,0.223-30.224,22.129-50.801,8.417
			c-7.764-5.167-12.261-2.628-14.667,0.393c-3.991,5.021-5.939,7.49,25.146,38.748c-21.255,15.876-95.093,72.608-118.326,111.33
			c-11.243,18.735-22.363,41.976-34.136,66.583c-16.139,33.718-32.825,68.592-52.532,98.157
			c-32.099,48.145-80.622,56.995-81.089,57.069c-2.834,0.477-5.252,2.317-6.457,4.932c-1.205,2.605-1.044,5.64,0.437,8.11
			c0.513,0.859,12.902,20.977,40.568,21.376c0.284,0,0.564,0.008,0.853,0.008c44.819-0.008,100.159-50.973,164.256-151.138
			c0.42-0.588,42.697-59.127,100.617-83.953c44-18.854,55.005-46.497,57.298-63.662c8.849,8.364,18.46,17.427,28.898,27.252
			c1.655,1.553,3.746,2.314,5.842,2.314c2.21,0,4.425-0.846,6.131-2.526c3.33-3.277,3.403-8.672,0.263-12.127
			c-0.781-0.855-18.604-21.508,25.931-66.046l20.421-20.422c0.51-0.329,0.998-0.711,1.446-1.156
			c0.447-0.448,0.827-0.936,1.157-1.447l23.464-23.464c0.51-0.329,0.998-0.711,1.446-1.156c0.447-0.448,0.827-0.936,1.157-1.447
			l15.762-15.761c9.847-9.853,15.265-22.952,15.252-36.904C511.983,42.883,506.985,30.291,497.885,20.593z M300.685,256.838
			c-62.341,26.709-106.082,87.31-108.161,90.238C112.674,471.842,64.385,490.617,42.625,490.617c-0.051,0-0.106,0-0.153,0
			c-7.004,0-12.495-1.966-16.606-4.3c19.219-6.737,52.146-23.063,76.94-60.253c20.39-30.589,37.347-66.036,53.749-100.308
			c11.591-24.225,22.541-47.116,33.359-65.147c22.154-36.919,98.837-95.178,115.92-107.9c10.948,10.717,24.742,23.952,42.041,40.377
			c-0.333,1.249-0.423,2.577-0.153,3.931C347.795,197.382,354.405,233.809,300.685,256.838z M384.888,204.126
			c-29.231-27.736-63.257-60.432-83.821-81.085c22.312-1.086,41.993-15.604,43.453-16.714l3.735-3.203
			c0.423,0.999,1.03,1.939,1.844,2.753l55.448,55.447C393.493,176.381,386.569,190.708,384.888,204.126z M419.609,145.722
			c-0.862,0.863-1.684,1.72-2.515,2.578l-54.709-54.711c-0.485-0.484-1.019-0.878-1.577-1.224l19.707-16.894l54.673,54.672
			L419.609,145.722z M447.474,117.858L393.746,64.13l14.839-12.721l52.669,52.668L447.474,117.858z M484.461,80.871l-10.921,10.921
			l-51.724-51.726l11.347-9.726c14.684-12.598,37.734-11.811,51.607,1.682c6.347,6.525,9.839,15.121,9.851,24.248
			C494.631,65.573,491.02,74.31,484.461,80.871z"/>
	</g>
</g>
</svg>