<?xml version="1.0" encoding="iso-8859-1"?>
<!-- Uploaded to: SVG Repo, www.svgrepo.com, Generator: SVG Repo Mixer Tools -->
<svg height="800px" width="800px" version="1.1" id="Layer_1" xmlns="http://www.w3.org/2000/svg" xmlns:xlink="http://www.w3.org/1999/xlink" 
	 viewBox="0 0 512 512" xml:space="preserve">
<g>
	<polygon style="fill:#B3B3B3;" points="353.141,264.549 368.521,279.94 323.709,324.753 308.329,309.362 	"/>
	<path style="fill:#B3B3B3;" d="M499.234,50.635c5.889,5.878,5.889,15.402,0,21.291L381.18,189.98l-21.291-21.291L477.943,50.635
		C483.821,44.746,493.357,44.746,499.234,50.635z"/>
	<path style="fill:#B3B3B3;" d="M285.989,104.057c8.499,8.487,8.499,22.261,0,30.749l-16.964,16.964l-30.749-30.749l16.964-16.964
		C263.728,95.559,277.502,95.559,285.989,104.057z"/>
</g>
<g>
	<polygon style="fill:#06B559;" points="385.998,194.798 349.026,231.77 318.099,200.843 355.071,163.871 359.889,168.689 
		381.18,189.98 	"/>
	<path style="fill:#06B559;" d="M349.026,231.77l4.115,4.115c7.919,7.919,7.919,20.745,0,28.663l-44.813,44.813L157.83,459.86
		c-7.919,7.919-20.745,7.919-28.663,0L14.303,344.995c-7.919-7.919-7.919-20.756,0-28.674l195.311-195.3
		c7.907-7.919,20.745-7.919,28.663,0l30.749,30.749l49.073,49.073L349.026,231.77z"/>
</g>
<polygon style="fill:#0B9B53;" points="33.089,330.658 223.945,139.812 334.351,250.217 143.5,441.068 "/>
<g>
	<path style="fill:#333333;" d="M505.152,44.717c-4.427-4.426-10.308-6.862-16.562-6.862c-6.255,0-12.137,2.438-16.562,6.862
		L359.781,156.965c-1.38-0.941-3.019-1.459-4.713-1.459c-2.218,0-4.345,0.881-5.916,2.45l-31.055,31.055l-37.239-37.239l11.05-11.05
		c11.739-11.741,11.739-30.844,0-42.584c-11.741-11.74-30.844-11.74-42.584,0L237.4,110.062c-4.094-2.186-8.687-3.346-13.459-3.346
		c-7.649,0-14.839,2.979-20.247,8.387L8.387,310.411C2.978,315.819,0,323.011,0,330.658s2.979,14.839,8.387,20.247l114.867,114.867
		c5.582,5.582,12.915,8.374,20.247,8.374c7.333,0,14.665-2.79,20.247-8.374l144.577-144.577l9.471,9.471
		c1.633,1.633,3.774,2.45,5.914,2.45c2.14,0,4.282-0.816,5.916-2.45l44.816-44.815c1.568-1.568,2.449-3.696,2.449-5.914
		s-0.881-4.346-2.45-5.914l-10.344-10.344c2.186-4.094,3.346-8.688,3.346-13.459c0-6.793-2.354-13.221-6.668-18.363l31.139-31.139
		c2.892-2.892,3.218-7.371,0.99-10.628L505.152,77.839C514.283,68.707,514.283,53.849,505.152,44.717z M280.078,109.969
		c5.218,5.217,5.218,13.708,0,18.925l-11.049,11.05l-18.924-18.924l11.05-11.05C266.371,104.752,274.862,104.752,280.078,109.969z
		 M151.918,453.943c-4.642,4.64-12.194,4.641-16.835,0L20.216,339.075c-2.248-2.247-3.486-5.236-3.486-8.417s1.238-6.17,3.486-8.418
		l195.308-195.307c2.248-2.248,5.237-3.486,8.417-3.486s6.17,1.238,8.418,3.486L347.226,241.8c0.001,0,0.001,0,0.001,0
		c2.248,2.248,3.486,5.237,3.486,8.417c0,3.18-1.238,6.17-3.488,8.418L151.918,453.943z M323.712,312.923l-3.557-3.556
		l32.986-32.986l3.557,3.557L323.712,312.923z M349.027,219.941l-19.101-19.101l25.141-25.142l19.102,19.101L349.027,219.941z
		 M493.322,66.01L381.18,178.152l-9.463-9.463L483.859,56.546c1.266-1.265,2.945-1.962,4.731-1.962c1.786,0,3.465,0.697,4.731,1.963
		C495.932,59.156,495.932,63.402,493.322,66.01z"/>
	<path style="fill:#333333;" d="M304.002,254.541c3.267-3.267,3.267-8.563,0-11.829l-72.555-72.555
		c-3.267-3.268-8.563-3.267-11.829,0c-3.267,3.267-3.267,8.563,0,11.829l72.554,72.555c1.634,1.634,3.774,2.45,5.916,2.45
		C300.227,256.992,302.368,256.175,304.002,254.541z"/>
	<path style="fill:#333333;" d="M210.542,191.063c-3.267-3.267-8.563-3.267-11.829,0c-3.267,3.267-3.267,8.563,0,11.829
		l72.555,72.555c1.634,1.633,3.774,2.45,5.916,2.45c2.14,0,4.282-0.816,5.916-2.45c3.267-3.267,3.267-8.563,0-11.829
		L210.542,191.063z"/>
	<path style="fill:#333333;" d="M189.635,211.969c-3.267-3.267-8.563-3.267-11.829,0c-3.267,3.267-3.267,8.563,0,11.829
		l72.555,72.555c1.633,1.633,3.774,2.45,5.914,2.45c2.14,0,4.282-0.816,5.916-2.45c3.267-3.267,3.267-8.563,0-11.829
		L189.635,211.969z"/>
</g>
</svg>