<?xml version="1.0" encoding="iso-8859-1"?>
<!-- Uploaded to: SVG Repo, www.svgrepo.com, Generator: SVG Repo Mixer Tools -->
<svg version="1.1" id="Layer_1" xmlns="http://www.w3.org/2000/svg" xmlns:xlink="http://www.w3.org/1999/xlink" 
	 viewBox="0 0 512 512" xml:space="preserve">
<path style="fill:#666666;" d="M388.09,149.378c-3.271,0-5.924-2.653-5.924-5.924v-17.204c0-3.271,2.653-5.924,5.924-5.924
	c3.271,0,5.924,2.653,5.924,5.924v17.204C394.014,146.725,391.361,149.378,388.09,149.378z"/>
<rect x="211.134" y="137.529" style="fill:#999999;" width="203.112" height="11.849"/>
<g>
	<path style="fill:#CCCCCC;" d="M293.975,182.496c-2.944,0-5.332-2.388-5.332-5.332v-45.535c0-2.944,2.388-5.332,5.332-5.332
		s5.332,2.388,5.332,5.332v45.535C299.307,180.108,296.919,182.496,293.975,182.496z"/>
	<path style="fill:#CCCCCC;" d="M272.671,182.496c-2.944,0-5.332-2.388-5.332-5.332v-45.535c0-2.944,2.388-5.332,5.332-5.332
		s5.332,2.388,5.332,5.332v45.535C278.003,180.108,275.615,182.496,272.671,182.496z"/>
</g>
<path style="fill:#06B559;" d="M385.258,216.786l-87.219,44.161H62.888c-5.64,0-11.245,0.415-16.79,1.244l-21.871-31.418
	c-2.177-3.127-3.344-6.845-3.344-10.656v-16.246l216.075-35.416h20.309h36.708h15.062c4.795,0,9.473,1.479,13.399,4.234
	L385.258,216.786z"/>
<g>
	<path style="fill:#0B9B53;" d="M236.958,168.455l-19.219,35.416H20.884l0,0c0-7.225,4.173-13.8,10.711-16.876l28.866-13.58
		c6.943-3.267,14.523-4.96,22.196-4.96H236.958z"/>
	<path style="fill:#0B9B53;" d="M495.109,248.643l-14.611,12.304h-182.46v-44.161h87.219h45.499l62.371,21.295
		C497.672,239.633,498.783,245.55,495.109,248.643z"/>
</g>
<path style="fill:#088443;" d="M502.033,286.267l-24.262-16.434H62.888c-5.183,0-10.389,0.385-15.476,1.146
	c-8.929,1.321-17.686,3.802-26.041,7.379l-14.368,6.159L0,268.183l14.373-6.161c9.765-4.179,19.998-7.08,30.425-8.621
	c5.94-0.889,12.03-1.339,18.09-1.339h417.611c1.777,0,3.513,0.533,4.984,1.53L512,271.554L502.033,286.267z"/>
<line style="fill:none;stroke:#333333;stroke-width:15;stroke-linejoin:round;stroke-miterlimit:10;" x1="484.841" y1="334.054" x2="485.493" y2="333.438"/>
<g>
	<path style="fill:#999999;" d="M181.252,353.571c0-16.612-13.471-30.083-30.083-30.083c-16.626,0-30.097,13.472-30.097,30.083
		c0,16.612,13.471,30.083,30.097,30.083C167.78,383.654,181.252,370.183,181.252,353.571z"/>
	<path style="fill:#999999;" d="M286.452,358.8c0-13.727-11.127-24.854-24.854-24.854c-13.713,0-24.84,11.127-24.84,24.854
		c0,13.727,11.127,24.854,24.84,24.854C275.325,383.654,286.452,372.528,286.452,358.8z"/>
	<path style="fill:#999999;" d="M411.618,351.653c0-17.677-14.338-32.017-32.017-32.017c-17.663,0-32.002,14.338-32.002,32.017
		c0,17.677,14.338,32.002,32.002,32.002C397.28,383.654,411.618,369.33,411.618,351.653z"/>
	<path style="fill:#999999;" d="M485.455,334.358c5.997-4.078,9.933-10.957,9.933-18.758c0-12.519-10.16-22.68-22.68-22.68
		c-12.534,0-22.694,10.16-22.694,22.68c0,12.534,10.16,22.68,22.694,22.68C477.426,338.28,481.832,336.831,485.455,334.358z"/>
	<path style="fill:#999999;" d="M40.199,347.56c2.956,1.065,6.139,1.648,9.464,1.648c15.305,0,27.725-12.406,27.725-27.725
		c0-15.305-12.42-27.725-27.725-27.725c-15.319,0-27.725,12.42-27.725,27.725c0,11.965,7.574,22.154,18.189,26.047
		C40.157,347.532,40.171,347.546,40.199,347.56z"/>
</g>
<path style="fill:#088443;" d="M485.455,334.358l-36.222,34.744c-9.72,9.336-22.68,14.552-36.152,14.552h-33.48
	c17.677,0,32.017-14.324,32.017-32.002c0-17.677-14.338-32.017-32.017-32.017c-17.663,0-32.002,14.338-32.002,32.017
	c0,17.677,14.338,32.002,32.002,32.002H261.598c13.727,0,24.854-11.127,24.854-24.854c0-13.727-11.127-24.854-24.854-24.854
	c-13.713,0-24.84,11.127-24.84,24.854c0,13.727,11.127,24.854,24.84,24.854h-110.43c16.612,0,30.083-13.472,30.083-30.083
	c0-16.612-13.471-30.083-30.083-30.083c-16.626,0-30.097,13.472-30.097,30.083c0,16.612,13.471,30.083,30.097,30.083h-22.267
	c-7.943,0-15.802-1.549-23.163-4.533l-65.538-31.562c2.956,1.065,6.139,1.648,9.464,1.648c15.305,0,27.725-12.406,27.725-27.725
	c0-15.305-12.42-27.725-27.725-27.725l423.045-0.839c-12.534,0-22.694,10.16-22.694,22.68c0,12.534,10.16,22.68,22.694,22.68
	C477.426,338.28,481.832,336.831,485.455,334.358z"/>
<g>
	<path style="fill:#4D4D4D;" d="M151.168,392.891c-21.689,0-39.334-17.639-39.334-39.321c0-21.681,17.645-39.32,39.334-39.32
		c21.681,0,39.32,17.639,39.32,39.32C190.489,375.252,172.85,392.891,151.168,392.891z M151.168,332.724
		c-11.503,0-20.861,9.352-20.861,20.847c0,11.496,9.358,20.847,20.861,20.847c11.495,0,20.847-9.352,20.847-20.847
		C172.015,342.077,162.664,332.724,151.168,332.724z"/>
	<path style="fill:#4D4D4D;" d="M261.598,392.891c-18.79,0-34.077-15.293-34.077-34.091s15.286-34.09,34.077-34.09
		c18.798,0,34.09,15.293,34.09,34.09C295.688,377.598,280.396,392.891,261.598,392.891z M261.598,343.183
		c-8.603,0-15.603,7.006-15.603,15.617c0,8.612,7,15.618,15.603,15.618c8.611,0,15.617-7.006,15.617-15.618
		C277.215,350.189,270.208,343.183,261.598,343.183z"/>
	<path style="fill:#4D4D4D;" d="M379.601,392.891c-22.739,0-41.239-18.5-41.239-41.239c0-22.747,18.5-41.253,41.239-41.253
		c22.746,0,41.253,18.507,41.253,41.253C420.854,374.392,402.348,392.891,379.601,392.891z M379.601,328.873
		c-12.553,0-22.765,10.218-22.765,22.779c0,12.553,10.212,22.765,22.765,22.765c12.561,0,22.779-10.212,22.779-22.765
		C402.381,339.092,392.162,328.873,379.601,328.873z"/>
	<path style="fill:#4D4D4D;" d="M472.708,347.518c-17.607,0-31.931-14.318-31.931-31.917s14.324-31.917,31.931-31.917
		c17.599,0,31.917,14.318,31.917,31.917c0,10.577-5.225,20.445-13.977,26.396C485.351,345.608,479.148,347.518,472.708,347.518z
		 M472.708,302.158c-7.42,0-13.458,6.03-13.458,13.442c0,7.413,6.037,13.442,13.458,13.442c2.713,0,5.32-0.801,7.539-2.315
		c0.005-0.004,0.008-0.006,0.013-0.009c3.687-2.508,5.89-6.665,5.89-11.119C486.152,308.188,480.121,302.158,472.708,302.158z"/>
	<path style="fill:#4D4D4D;" d="M49.663,358.446c-4.318,0-8.556-0.739-12.598-2.197c-0.082-0.028-0.161-0.059-0.241-0.09
		c-14.434-5.352-24.123-19.27-24.123-34.674c0-20.381,16.581-36.961,36.961-36.961c20.381,0,36.961,16.581,36.961,36.961
		C86.625,341.864,70.044,358.446,49.663,358.446z M43.503,338.931c1.975,0.691,4.046,1.04,6.161,1.04
		c10.195,0,18.488-8.293,18.488-18.488c0-10.195-8.294-18.488-18.488-18.488s-18.488,8.294-18.488,18.488
		c0,7.703,4.841,14.664,12.056,17.347C43.323,338.863,43.413,338.896,43.503,338.931z"/>
	<path style="fill:#4D4D4D;" d="M413.081,392.891H128.901c-9.145,0-18.106-1.752-26.634-5.21c-0.181-0.073-0.361-0.153-0.538-0.238
		l-65.167-31.383c-14.29-5.423-23.86-19.265-23.86-34.576c0-20.381,16.581-36.961,36.961-36.961l423.027-0.838
		c0.006,0,0.012,0,0.018,0c17.599,0,31.917,14.318,31.917,31.917c0,10.297-4.952,19.921-13.287,25.915l-35.711,34.254
		C444.134,386.809,429.023,392.891,413.081,392.891z M109.47,370.667c6.235,2.489,12.769,3.751,19.431,3.751h284.181
		c11.146,0,21.713-4.254,29.752-11.976l36.227-34.75c0.372-0.358,0.774-0.682,1.2-0.972c3.687-2.508,5.89-6.665,5.89-11.119
		c0-7.408-6.024-13.435-13.429-13.442l-423.04,0.838c-10.212,0-18.505,8.294-18.505,18.488c0,7.699,4.834,14.656,12.043,17.343
		c0.367,0.128,0.726,0.28,1.073,0.451L109.47,370.667z"/>
</g>
<path style="fill:#666666;" d="M250.571,131.309h-42.109v0.338l-20.34-11.743c-1.833-1.059-4.091-1.059-5.924,0
	c-1.833,1.058-2.962,3.014-2.962,5.131v36.839c0,2.116,1.129,4.072,2.962,5.131c0.916,0.53,1.94,0.794,2.962,0.794
	c1.023,0,2.046-0.264,2.962-0.794l20.34-11.743v0.338h42.109c2.593,0,4.693-2.101,4.693-4.693v-14.903
	C255.265,133.41,253.164,131.309,250.571,131.309z M191.085,151.612v-16.317l14.131,8.158L191.085,151.612z"/>
</svg>