<?xml version="1.0" encoding="iso-8859-1"?>
<!-- Uploaded to: SVG Repo, www.svgrepo.com, Generator: SVG Repo Mixer Tools -->
<svg fill="#000000" height="800px" width="800px" version="1.1" id="Layer_1" xmlns="http://www.w3.org/2000/svg" xmlns:xlink="http://www.w3.org/1999/xlink" 
	 viewBox="0 0 512 512" xml:space="preserve">
<g>
	<g>
		<path d="M488.325,6.09c-0.974-2.93-3.396-5.148-6.4-5.861c-3-0.687-6.165,0.191-8.343,2.374L189.067,287.118
			c-6.926-4.469-20.055-13.956-36.824-30.722c-1.822-1.824-4.4-2.791-6.926-2.58c-2.574,0.183-4.943,1.467-6.491,3.539
			c-21.125,28.164-13.552,58.562-4.23,75.326l-74.5,74.501c-22.755,6.441-38.802,27.318-38.802,51.395
			c0,29.459,23.964,53.423,53.423,53.423c24.081,0,44.959-16.043,51.397-38.805l75.113-75.109
			c20.812,9.356,38.554,11.501,52.806,6.336c14.703-5.302,19.929-16.371,20.477-17.614c1.478-3.358,0.739-7.28-1.856-9.878
			l-29.59-29.59l158.487-158.487C511.028,79.381,489.303,9.026,488.325,6.09z M224.178,341.046c-3.478,3.478-3.478,9.11,0,12.588
			l30.324,30.329c-1.574,1.324-3.708,2.706-6.517,3.715c-7.426,2.678-21.203,3.434-44.632-8.297
			c-3.435-1.719-7.565-1.032-10.278,1.669l-77.161,77.163c-0.022,0-0.043,0.009-0.069,0.017c-3.156,0.983-5.508,3.635-6.113,6.884
			c-3.117,16.845-17.842,29.077-35.016,29.077c-19.638,0-35.615-15.971-35.615-35.615c0-17.162,12.23-31.894,29.081-35.013
			c3.252-0.602,5.9-2.957,6.882-6.113c0.004-0.026,0.013-0.054,0.022-0.072l77.157-77.159c3.113-3.115,3.461-8.069,0.848-11.61
			c-0.826-1.122-18.264-25.338-5.387-51.83c22.96,21.451,38.081,29.144,38.781,29.494c3.443,1.728,7.582,1.041,10.278-1.669
			L472.713,28.651c-1.026,25.262-13.456,77.311-83.752,147.61L224.178,341.046z"/>
	</g>
</g>
</svg>