<?xml version="1.0" encoding="iso-8859-1"?>
<!-- Uploaded to: SVG Repo, www.svgrepo.com, Generator: SVG Repo Mixer Tools -->
<svg fill="#000000" height="800px" width="800px" version="1.1" id="Layer_1" xmlns="http://www.w3.org/2000/svg" xmlns:xlink="http://www.w3.org/1999/xlink" 
	 viewBox="0 0 512 512" xml:space="preserve">
<g>
	<g>
		<path d="M449.251,258.39c-1.435-57.869-24.648-112.064-65.732-153.148C341.087,62.81,284.67,39.44,224.661,39.44
			s-116.427,23.369-158.86,65.802C23.369,147.675,0,204.092,0,264.101v110.725h142.961v97.734h74.701V331.588H512L449.251,258.39z
			 M30.43,342.932v-78.831c0-107.1,87.132-194.231,194.231-194.231c101.98,0,185.851,79.001,193.638,179.016H95.51v15.215
			C95.51,303.174,67.452,335.799,30.43,342.932z M187.232,442.13h-13.841v-78.144l13.841-22.081V442.13z M217.663,301.159h-40.8
			l-27.106,43.237H91.373c17.799-16.89,30.01-39.615,33.525-65.08H427.11l18.724,21.842H217.663z"/>
	</g>
</g>
</svg>