<?xml version="1.0" encoding="iso-8859-1"?>
<!-- Uploaded to: SVG Repo, www.svgrepo.com, Generator: SVG Repo Mixer Tools -->
<svg version="1.1" id="Layer_1" xmlns="http://www.w3.org/2000/svg" xmlns:xlink="http://www.w3.org/1999/xlink" 
	 viewBox="0 0 512 512" xml:space="preserve">
<path style="fill:#666666;" d="M256,0c141.378,0,256,114.609,256,256S397.378,512,256,512C114.609,512,0,397.391,0,256
	S114.609,0,256,0z"/>
<circle style="fill:#06B559;" cx="256" cy="256" r="219.905"/>
<rect x="248.915" y="36.095" style="fill:#088443;" width="14.17" height="439.81"/>
<rect id="SVGCleanerId_0" x="36.095" y="248.915" style="fill:#088443;" width="439.81" height="14.17"/>
<rect x="248.94" y="36.097" transform="matrix(-0.7114 -0.7028 0.7028 -0.7114 258.2396 618.0569)" style="fill:#088443;" width="14.169" height="439.814"/>
<g transform="matrix(0.7114 0.7028 -0.7028 0.7114 197.03 -82.31)">
	
		<rect id="SVGCleanerId_0_1_" x="36.105" y="248.92" transform="matrix(-0.7114 -0.7028 0.7028 -0.7114 258.218 618.049)" style="fill:#088443;" width="439.814" height="14.17"/>
</g>
<g>
	<path style="fill:#088443;" d="M255.996,431.848c-96.963,0-175.847-78.884-175.847-175.847S159.034,80.154,255.996,80.154
		s175.847,78.884,175.847,175.847S352.959,431.848,255.996,431.848z M255.996,94.324c-89.148,0-161.677,72.528-161.677,161.677
		c0,89.15,72.528,161.677,161.677,161.677s161.677-72.528,161.677-161.677C417.673,166.853,345.145,94.324,255.996,94.324z"/>
	<path style="fill:#088443;" d="M255.996,362.73c-58.851,0-106.728-47.878-106.728-106.728s47.878-106.728,106.728-106.728
		s106.728,47.878,106.728,106.728S314.847,362.73,255.996,362.73z M255.996,163.443c-51.036,0-92.558,41.521-92.558,92.558
		s41.521,92.558,92.558,92.558s92.558-41.522,92.558-92.558S307.033,163.443,255.996,163.443z"/>
</g>
</svg>