<?xml version="1.0" encoding="iso-8859-1"?>
<!-- Uploaded to: SVG Repo, www.svgrepo.com, Generator: SVG Repo Mixer Tools -->
<svg fill="#000000" height="800px" width="800px" version="1.1" id="Layer_1" xmlns="http://www.w3.org/2000/svg" xmlns:xlink="http://www.w3.org/1999/xlink" 
	 viewBox="0 0 512 512" xml:space="preserve">
<g>
	<g>
		<path d="M256,0C114.841,0,0,114.841,0,256s114.841,256,256,256s256-114.841,256-256S397.16,0,256,0z M256,493.38
			C125.108,493.38,18.62,386.893,18.62,256S125.108,18.62,256,18.62S493.38,125.108,493.38,256S386.893,493.38,256,493.38z"/>
	</g>
</g>
<g>
	<g>
		<path d="M256,34.786C134.021,34.786,34.784,134.022,34.784,256S134.022,477.216,256,477.216S477.216,377.979,477.216,256
			S377.979,34.786,256,34.786z M256,458.596c-111.712,0-202.596-90.884-202.596-202.594S144.289,53.406,256,53.406
			S458.596,144.289,458.596,256S367.712,458.596,256,458.596z"/>
	</g>
</g>
<g>
	<g>
		<path d="M415.407,246.69h-57.981c-4.44-48.753-43.363-87.676-92.116-92.116v-28.913h11.172c5.142,0,9.31-4.168,9.31-9.31
			c0-5.142-4.168-9.31-9.31-9.31H265.31V96.593c0-5.142-4.168-9.31-9.31-9.31c-5.142,0-9.31,4.168-9.31,9.31v10.448h-11.172
			c-5.142,0-9.31,4.168-9.31,9.31c0,5.142,4.168,9.31,9.31,9.31h11.172v28.913c-48.754,4.44-87.676,43.363-92.116,92.116H96.593
			c-5.142,0-9.31,4.168-9.31,9.31c0,5.142,4.168,9.31,9.31,9.31h57.981c4.44,48.754,43.363,87.676,92.116,92.116v28.913h-11.172
			c-5.142,0-9.31,4.168-9.31,9.31c0,5.142,4.168,9.31,9.31,9.31h11.172v10.448c0,5.142,4.168,9.31,9.31,9.31
			c5.142,0,9.31-4.168,9.31-9.31v-10.448h11.172c5.142,0,9.31-4.168,9.31-9.31c0-5.142-4.168-9.31-9.31-9.31H265.31v-28.912
			c48.753-4.44,87.676-43.363,92.116-92.116h57.981c5.142,0,9.31-4.168,9.31-9.31C424.717,250.86,420.55,246.69,415.407,246.69z
			 M246.69,173.284v25.615h-11.172c-5.142,0-9.31,4.168-9.31,9.31c0,5.142,4.168,9.31,9.31,9.31h11.172v29.171h-73.407
			C177.587,208.213,208.213,177.587,246.69,173.284z M246.691,294.481h-11.172c-5.142,0-9.31,4.168-9.31,9.31
			c0,5.142,4.168,9.31,9.31,9.31h11.172v25.616c-38.479-4.302-69.105-34.928-73.407-73.407h73.407V294.481z M265.31,338.717v-25.616
			h11.172c5.142,0,9.31-4.168,9.31-9.31c0-5.142-4.168-9.31-9.31-9.31H265.31V265.31h73.406
			C334.413,303.789,303.789,334.415,265.31,338.717z M265.311,246.69v-29.171h11.172c5.142,0,9.31-4.168,9.31-9.31
			c0-5.142-4.168-9.31-9.31-9.31h-11.172v-25.615c38.477,4.302,69.102,34.928,73.406,73.406H265.311z"/>
	</g>
</g>
</svg>