<?xml version="1.0" encoding="iso-8859-1"?>
<!-- Uploaded to: SVG Repo, www.svgrepo.com, Generator: SVG Repo Mixer Tools -->
<svg fill="#000000" height="800px" width="800px" version="1.1" id="Layer_1" xmlns="http://www.w3.org/2000/svg" xmlns:xlink="http://www.w3.org/1999/xlink" 
	 viewBox="0 0 512 512" xml:space="preserve">
<g>
	<g>
		<path d="M482.03,65.522L258.605,0.356c-0.151-0.044-0.307-0.064-0.46-0.1c-0.16-0.037-0.318-0.076-0.482-0.104
			c-1.101-0.202-2.224-0.202-3.325,0c-0.164,0.028-0.323,0.067-0.483,0.104c-0.152,0.037-0.308,0.056-0.459,0.1L29.97,65.522
			c-4.496,1.309-7.314,5.75-6.591,10.373l46.547,297.901c0.377,2.427,1.695,4.6,3.673,6.059l176.878,130.331
			c1.641,1.209,3.582,1.814,5.523,1.814c1.941,0,3.882-0.604,5.523-1.814l176.878-130.331c1.977-1.459,3.296-3.632,3.673-6.059
			l46.547-297.901C489.344,71.272,486.526,66.831,482.03,65.522z M126.748,395.094l-38.212-27.958L43.574,81.104l83.174-24.102
			V395.094z M247.77,484.267l-102.403-75.455V51.572L247.77,21.704V484.267z M368.792,408.813l-102.403,75.455V21.704
			l102.403,29.868V408.813z M424.813,367.136l-37.402,27.958V57.003l82.365,24.102L424.813,367.136z"/>
	</g>
</g>
</svg>