<?xml version="1.0" encoding="iso-8859-1"?>
<!-- Uploaded to: SVG Repo, www.svgrepo.com, Generator: SVG Repo Mixer Tools -->
<svg fill="#000000" height="800px" width="800px" version="1.1" id="Layer_1" xmlns="http://www.w3.org/2000/svg" xmlns:xlink="http://www.w3.org/1999/xlink" 
	 viewBox="0 0 512 512" xml:space="preserve">
<g>
	<g>
		<path d="M460.401,45.34c1.653-1.652,2.582-3.894,2.582-6.232c0-2.337-0.928-4.579-2.582-6.232L442.155,14.63
			c-3.442-3.442-9.023-3.442-12.464,0l-7.477,7.477L402.686,2.581c-3.442-3.442-9.023-3.442-12.464,0l-18.695,18.695
			c-2.39,2.389-3.202,5.936-2.092,9.127l11.479,33.003l-40.917,40.918l-37.362,1.678c-2.199,0.099-4.281,1.016-5.837,2.572
			L51.599,353.775c-1.653,1.652-2.582,3.894-2.582,6.232v24.962c0,2.337,0.928,4.579,2.582,6.232l35.046,35.046
			c0.753,0.753,1.611,1.331,2.524,1.755l-0.004,0.007l18.33,8.51c6.621,3.074,11.828,8.472,14.663,15.197l23.136,54.893
			c0.91,2.158,2.641,3.865,4.81,4.745c1.062,0.431,2.187,0.646,3.312,0.646c1.173,0,2.344-0.234,3.445-0.702l41.303-17.54
			c4.105-1.743,6.261-6.279,5.02-10.563l-23.448-81l42.728-42.728c19.839,12.722,41.579,22.375,64.462,28.452
			c19.304,5.127,39.192,7.691,59.083,7.691c18.842,0,37.688-2.302,56.04-6.909c4.475-1.123,7.326-5.507,6.538-10.052l-11.508-66.435
			c-0.428-2.468-1.885-4.636-4.006-5.965c-2.123-1.329-4.71-1.692-7.115-1c-48.883,14.07-101.452,1.322-138.374-33.253l3.728-17.568
			L460.401,45.34z M396.455,21.278l13.294,13.294L394.761,49.56L387.9,29.833L396.455,21.278z M435.923,33.325l5.782,5.782
			L294.53,186.281l-5.782-5.782L435.923,33.325z M306.843,123.457l14.68-0.659l-45.238,45.238l-7.01-7.01L306.843,123.457z
			 M92.877,407.55l-26.233-26.231v-17.661l138.868-138.868l28.105,28.105l-3.747,17.661L92.877,407.55z M184.079,480.591
			l-25.974,11.029L138.4,444.87c-4.54-10.772-12.88-19.416-23.483-24.338l-6.893-3.2l33.51-33.51l20.454,20.454L184.079,480.591z
			 M169.825,387.181l-15.826-15.826l11.153-11.153l15.826,15.826L169.825,387.181z M193.443,363.563l-15.826-15.826l12.941-12.941
			c5.51,5.1,11.257,9.917,17.218,14.433L193.443,363.563z M381.338,324.614l8.459,48.828c-32.44,6.822-66.268,5.961-98.345-2.558
			c-32.927-8.744-63.326-25.458-88.433-48.548l35.102-35.102C276.983,322.076,330.39,335.998,381.338,324.614z M243.233,237.578
			l-25.256-25.256l38.834-38.832l25.256,25.255L243.233,237.578z"/>
	</g>
</g>
<g>
	<g>
		<path d="M133.81,330.799c-3.442-3.442-9.023-3.442-12.464,0l-21.027,21.026c-3.442,3.442-3.442,9.022,0,12.464
			c1.722,1.722,3.977,2.582,6.232,2.582c2.255,0,4.511-0.86,6.232-2.582l21.027-21.026
			C137.252,339.821,137.252,334.241,133.81,330.799z"/>
	</g>
</g>
</svg>