<?xml version="1.0" encoding="iso-8859-1"?>
<!-- Uploaded to: SVG Repo, www.svgrepo.com, Generator: SVG Repo Mixer Tools -->
<svg height="800px" width="800px" version="1.1" id="Layer_1" xmlns="http://www.w3.org/2000/svg" xmlns:xlink="http://www.w3.org/1999/xlink" 
	 viewBox="0 0 512 512" xml:space="preserve">
<path style="fill:#CCCCCC;" d="M227.688,346.264v120.141c0,5.296-4.294,9.589-9.589,9.589h-21.643c-5.296,0-9.589-4.294-9.589-9.589
	V362.819c3.358-0.415,6.754-0.856,10.203-1.335c11.59-1.608,22.337-6.962,30.608-15.233L227.688,346.264z"/>
<path style="fill:#999999;" d="M227.688,346.264v46.644l-0.013,0.013c-8.271,8.271-19.018,13.625-30.608,15.233
	c-3.448,0.48-6.845,0.92-10.203,1.335v-46.67c3.358-0.415,6.754-0.856,10.203-1.335c11.59-1.608,22.337-6.962,30.608-15.233
	L227.688,346.264z"/>
<path style="fill:#06B559;" d="M457.721,195.26l13.859,42.107c-59.31,9.529-204.883,59.557-336.143,63.187
	c-20.872,0.57-0.83,8.647-10.371,27.224l-96.063,35.755v0.013c-19.316-5.224-29-10.293-29-10.293
	c4.174-12.536,5.756-46.281,5.963-86.898c0.298-60.71,24.061-116.131,62.888-157.396c38.814-41.264,92.706-68.359,153.273-72.43
	C327.692,29.45,424.637,94.776,457.721,195.26z"/>
<path style="fill:#0B9B53;" d="M471.58,237.367c-59.31,9.529-221.205,12.095-352.465,15.725
	c-10.702,0.293-20.873,3.573-29.544,9.189l0,0c3.185-50.649,24.228-96.644,57.078-131.553
	c35.495-37.736,84.778-62.514,140.167-66.237c26.769-1.796,52.931,1.509,77.411,9.171c-41.017-26.76-90.528-40.59-142.101-37.133
	c-60.568,4.071-114.459,31.165-153.273,72.43c-38.827,41.264-62.59,96.685-62.888,157.396C5.756,306.97,4.174,340.716,0,353.252
	c0,0,9.684,5.069,29,10.293v-0.013l0,0v0.013c29.778,8.051,82.464,16.49,157.863,7.312c3.358-0.415,6.754-0.856,10.203-1.335
	c11.59-1.608,22.337-6.962,30.608-15.233l38.931-38.918c9.049-9.049,21.028-14.572,33.784-15.57L512,283.181v-27.328L471.58,237.367
	z"/>
</svg>