<?xml version="1.0" encoding="iso-8859-1"?>
<!-- Uploaded to: SVG Repo, www.svgrepo.com, Generator: SVG Repo Mixer Tools -->
<svg fill="#000000" height="800px" width="800px" version="1.1" id="Layer_1" xmlns="http://www.w3.org/2000/svg" xmlns:xlink="http://www.w3.org/1999/xlink" 
	 viewBox="0 0 512 512" xml:space="preserve">
<g>
	<g>
		<path d="M422.595,106.96h-22.931V55.042c0-4.651-3.769-8.421-8.421-8.421h-78.6c-4.652,0-8.421,3.771-8.421,8.421v51.917h-18.84
			V55.042c0-4.651-3.769-8.421-8.421-8.421h-30.878V27.425C246.081,12.303,233.779,0,218.657,0h-76.279
			c-15.123,0-27.425,12.303-27.425,27.425v19.196H84.075c-4.652,0-8.421,3.771-8.421,8.421v67.203h-6.692
			c-4.652,0-8.421,3.771-8.421,8.421v45.476c0,4.651,3.769,8.421,8.421,8.421h6.692v142.871h-6.688
			c-4.652,0-8.421,3.771-8.421,8.421v45.473c0,4.651,3.769,8.421,8.421,8.421h6.688v67.206c0,4.651,3.769,8.421,8.421,8.421h78.6
			c4.652,0,8.421-3.771,8.421-8.421V389.75h18.841v67.206c0,4.651,3.769,8.421,8.421,8.421h30.876v19.199
			c0,15.122,12.302,27.423,27.425,27.423h76.279c15.123,0,27.425-12.302,27.425-27.423v-19.199h30.88
			c4.652,0,8.421-3.771,8.421-8.421V389.75h6.689c4.652,0,8.421-3.771,8.421-8.421v-45.473c0-4.651-3.769-8.421-8.421-8.421h-6.689
			V263.83h22.931c15.916,0,28.865-12.949,28.865-28.865v-99.141C451.46,119.908,438.511,106.96,422.595,106.96z M321.064,63.464
			h61.757v43.496h-61.757V63.464z M268.538,63.464v43.496h-22.221c-11.01,0-20.596,6.198-25.463,15.285h-14.073V63.464H268.538z
			 M246.317,263.831h22.221v63.603h-61.757V184.563h10.671v50.403C217.452,250.883,230.401,263.831,246.317,263.831z
			 M142.378,16.843h76.279c5.834,0,10.582,4.747,10.582,10.582v19.196H198.36c-4.652,0-8.421,3.771-8.421,8.421v67.203h-18.841
			V55.042c0-4.651-3.769-8.421-8.421-8.421h-30.878V27.425h-0.001C131.796,21.59,136.543,16.843,142.378,16.843z M92.496,63.464
			h61.757v58.781H92.496V63.464z M77.384,139.088h140.068v28.633H77.384V139.088z M189.939,184.563v142.871h-18.841V184.563H189.939
			z M154.253,184.563v142.871H92.496V184.563H154.253z M154.253,448.535H92.496V389.75h61.757V448.535z M206.781,448.535V389.75
			h61.757v58.785H206.781z M332.939,495.157H256.66c-5.834,0-10.582-4.747-10.582-10.581v-19.199h30.881
			c4.652,0,8.421-3.771,8.421-8.421V389.75h18.84v67.206c0,4.651,3.769,8.421,8.421,8.421h30.877v19.199h0.001
			C343.52,490.411,338.773,495.157,332.939,495.157z M382.821,448.535h-61.757V389.75h61.757V448.535z M397.932,372.908H77.387
			v-28.631h320.544V372.908z M285.381,327.434V263.83h18.84v63.604H285.381z M321.064,327.434V263.83h61.757v63.604H321.064z
			 M434.617,234.966c0,6.629-5.393,12.022-12.022,12.022H246.317c-6.629,0-12.022-5.393-12.022-12.022v-99.141
			c0-6.629,5.393-12.022,12.022-12.022h176.278c6.629,0,12.022,5.393,12.022,12.022V234.966z"/>
	</g>
</g>
<g>
	<g>
		<path d="M414.967,135.03H253.945c-4.652,0-8.421,3.771-8.421,8.421v83.886c0,4.651,3.769,8.421,8.421,8.421h161.023
			c4.652,0,8.421-3.771,8.421-8.421v-83.886C423.389,138.8,419.619,135.03,414.967,135.03z M406.546,218.916h-144.18v-67.043h144.18
			V218.916z"/>
	</g>
</g>
<g>
	<g>
		<path d="M387.069,189.958h-27.348c-4.652,0-8.421,3.771-8.421,8.421s3.769,8.421,8.421,8.421h27.348
			c4.652,0,8.421-3.771,8.421-8.421S391.721,189.958,387.069,189.958z"/>
	</g>
</g>
</svg>