<?xml version="1.0" encoding="iso-8859-1"?>
<!-- Uploaded to: SVG Repo, www.svgrepo.com, Generator: SVG Repo Mixer Tools -->
<svg fill="#000000" height="800px" width="800px" version="1.1" id="Layer_1" xmlns="http://www.w3.org/2000/svg" xmlns:xlink="http://www.w3.org/1999/xlink" 
	 viewBox="0 0 512 512" xml:space="preserve">
<g>
	<g>
		<path d="M256,0C114.841,0,0,114.841,0,256c0,141.159,114.841,256,256,256s256-114.841,256-256C512,114.841,397.159,0,256,0z
			 M430.57,418.03L377,364.488l-12.483,12.498l54.082,53.578c-40.55,37.677-95.369,61.438-152.748,63.601v-70.556h26.483v-17.655
			h-70.621v17.655h26.483v70.556c-59.586-2.163-113.222-25.917-153.773-63.594L147.738,377l-12.61-12.483L81.494,418.03
			c-37.678-40.551-61.496-93.732-63.658-153.318H89.3v26.483h17.655v-70.621H89.3v26.483H17.835
			c2.163-59.586,25.917-112.653,63.594-153.203L135,147.454l12.483-12.468L94.424,81.423
			c40.551-37.678,94.186-61.424,153.773-63.587v70.325h-26.483v17.655h70.621V88.161h-26.483V17.835
			c57.379,2.163,112.198,25.917,152.748,63.594L364.773,135l12.355,12.483l53.508-53.628
			c37.677,40.549,61.367,93.616,63.529,153.203h-69.416v-26.483h-17.655v70.621h17.655v-26.483h69.416
			C492.002,324.299,468.248,377.48,430.57,418.03z"/>
	</g>
</g>
<g>
	<g>
		<path d="M256,203.034c-29.207,0-52.966,23.759-52.966,52.966c0,29.207,23.759,52.966,52.966,52.966
			c29.207,0,52.966-23.759,52.966-52.966C308.966,226.793,285.207,203.034,256,203.034z M256,291.31
			c-19.47,0-35.31-15.84-35.31-35.31c0-19.47,15.841-35.31,35.31-35.31c19.47,0,35.31,15.841,35.31,35.31
			C291.31,275.47,275.47,291.31,256,291.31z"/>
	</g>
</g>
</svg>