<?xml version="1.0" encoding="iso-8859-1"?>
<!-- Uploaded to: SVG Repo, www.svgrepo.com, Generator: SVG Repo Mixer Tools -->
<svg fill="#000000" version="1.1" id="Layer_1" xmlns="http://www.w3.org/2000/svg" xmlns:xlink="http://www.w3.org/1999/xlink" 
	 viewBox="0 0 512 512" xml:space="preserve">
<g>
	<g>
		<path d="M256,0C114.842,0,0,114.842,0,256c0,141.158,114.842,256,256,256c141.158,0,256-114.842,256-256
			C512,114.842,397.158,0,256,0z M17.067,256C17.067,124.25,124.25,17.067,256,17.067c38.81,0,75.485,9.308,107.921,25.798
			L58.204,389.896C32.25,351.675,17.067,305.579,17.067,256z M256,494.933c-75.914,0-143.664-35.592-187.462-90.956L379.192,51.344
			C448.498,93.219,494.933,169.286,494.933,256C494.933,387.75,387.75,494.933,256,494.933z"/>
	</g>
</g>
<g>
	<g>
		<path d="M230.4,153.488H108.858c-9.11,0-17.544,2.942-24.483,7.81l-21.942-7.285c-4.5-1.5-9.3,0.94-10.792,5.406
			c-0.3,0.9-0.442,1.815-0.442,2.706c0,3.575,2.502,6.904,6.077,8.096l15,4.923c-3.571,6.229-5.154,13.419-5.154,21.098v17.15
			c0,21.342,14.933,39.075,36.267,42.158v22.667c-12.8,9.25-49.621,38.4-42.904,65.192c0.967,3.875,4.204,6.458,8.021,6.458
			c0.692,0,1.258-0.083,1.958-0.258c4.575-1.142,7.29-5.775,6.138-10.35c-3.733-14.908,25.24-39.808,39.631-49.533
			c2.35-1.592,4.223-4.242,4.223-7.075v-35.158c0-4.717-4.806-8.671-9.523-8.671h-2.158c-14.092,0-24.585-11.329-24.585-25.429
			v-17.15c0-14.1,10.527-25.687,24.669-25.687H230.4c4.717,0,8.533-3.817,8.533-8.533
			C238.933,157.304,235.117,153.488,230.4,153.488z"/>
	</g>
</g>
<g>
	<g>
		<path d="M452.608,161.819c-3.792-5.258-10.117-8.331-17.358-8.331H315.733c-4.717,0-8.533,3.817-8.533,8.533
			c0,4.717,3.817,8.533,8.533,8.533H435.25c1.667,0,2.975,0.498,3.517,1.24c0.542,0.758,0.542,2.194,0.008,3.802l-14.8,44.375
			c-1.842,5.517-8.575,10.317-14.408,10.317H264.533c-51.792,0-77.717,119.467-83.958,153.6h-61.108
			c-4.717,0-8.533,3.817-8.533,8.533c0,4.717,3.817,8.533,8.533,8.533h68.267c4.175,0,7.733-2.96,8.417-7.077
			c3.038-18.215,7.884-39.84,14.125-60.833c1.596,0.05,3.215,0.044,4.892,0.044c44.39,0,114.125-17.467,125.133-85.733h69.267
			c13.033,0,26.475-9.619,30.592-21.969l14.8-44.417C457.267,174.069,456.408,167.085,452.608,161.819z M263.483,308.469
			c-18.435,5.781-36.721,7.165-47.715,7.385c6.802-19.788,14.821-37.854,23.677-50.454c3.102,10.931,11.454,23.183,29.804,32.358
			c1.225,0.608,2.525,0.904,3.808,0.904c3.133,0,6.142-1.723,7.642-4.715c2.108-4.216,0.4-9.342-3.817-11.45
			c-26.142-13.075-21.892-30.408-21.292-32.433c0.035-0.108,0.04-0.273,0.069-0.383c2.906-1.481,5.867-2.327,8.873-2.327h58.406
			C317.177,277.221,297.252,297.871,263.483,308.469z"/>
	</g>
</g>
<g>
	<g>
		<rect x="291.115" y="187.627" width="119.467" height="17.067"/>
	</g>
</g>
</svg>