<?xml version="1.0" encoding="iso-8859-1"?>
<!-- Uploaded to: SVG Repo, www.svgrepo.com, Generator: SVG Repo Mixer Tools -->
<svg fill="#000000" height="800px" width="800px" version="1.1" id="Layer_1" xmlns="http://www.w3.org/2000/svg" xmlns:xlink="http://www.w3.org/1999/xlink" 
	 viewBox="0 0 512 512" xml:space="preserve">
<g>
	<g>
		<path d="M488.557,10.852C473.724,0.16,453.766-2.905,436.441,2.881c-22.952,7.65-26.755,30.655-25.166,46.832
			c-14.401,5.073-43.015,19.425-51.592,55.063c-24.258,19.929-54.692,40.684-63.453,40.684c-14.178,0-30.522-16.343-38.379-24.201
			c-4.374-4.376-10.132-5.657-15.379-3.492c-12.939,5.358-17.762,30.801-17.762,45.573c0,13.488,7.788,26.34,13.799,34.247
			c-18.125,13.613-63.34,49.129-92.298,85.325C110.546,327.488,6.981,491.335,2.589,498.284c-2.27,3.606-1.689,8.3,1.393,11.242
			C5.693,511.162,7.915,512,10.154,512c1.781,0,3.575-0.535,5.12-1.617c1.79-1.257,179.332-125.551,214.8-152.155
			c29.574-22.184,70.106-67.109,85.052-84.101c7.892,5.762,21.246,13.377,36.306,12.286c12.533-0.89,23.437-7.412,32.407-19.375
			c2.379-3.158,2.375-7.534,0.013-10.71c-0.231-0.306-22.782-31.091-8.665-52.269l33.857-50.785
			c11.315-3.239,44.36-15.706,55.181-52.802c8.875-0.814,23.808-3.739,34.42-13.945c8.058-7.742,12.144-18.002,12.144-30.467
			C510.789,37.235,502.893,21.18,488.557,10.852z M486.305,73.591c-10.123,9.796-28.623,9.305-28.806,9.298
			c-4.309-0.358-8.25,2.863-9.115,7.174c-7.622,38.11-45.071,46.308-46.629,46.629c-2.322,0.465-4.37,1.834-5.684,3.809
			l-35.76,53.64c-16.514,24.768-2.366,54.301,5.216,66.84c-4.675,4.679-9.721,7.174-15.3,7.584
			c-15.029,1.085-29.67-13.085-29.797-13.207c-1.764-1.757-4.073-2.84-6.666-2.61c-2.488,0.096-4.824,1.222-6.443,3.115
			c-0.528,0.613-53.422,62.143-87.977,88.066c-25.205,18.899-123.108,87.8-177.459,125.954
			c33.765-52.69,93.647-145.006,118.285-175.796c34.551-43.19,95.939-87.272,96.559-87.715c2.126-1.521,3.483-3.896,3.706-6.504
			c0.227-2.61-0.703-5.188-2.541-7.045c-3.972-4.025-15.305-18.081-15.305-29.483c0-11.395,2.925-21.732,5.426-26.648
			c10.319,10.165,28.562,26.648,48.214,26.648c19.596,0,64.077-35.804,77.243-46.771c1.567-1.307,2.641-3.114,3.042-5.114
			c7.622-38.108,45.071-46.306,46.629-46.629c2.388-0.482,4.474-1.921,5.78-3.975c1.31-2.058,1.72-4.564,1.144-6.93
			c-0.275-1.135-6.552-27.885,12.031-34.084c11.782-3.903,25.916-1.748,36.004,5.515c6.753,4.874,14.807,14.144,14.807,30.707
			C492.909,63.56,490.748,69.296,486.305,73.591z"/>
	</g>
</g>
</svg>