<?xml version="1.0" encoding="iso-8859-1"?>
<!-- Uploaded to: SVG Repo, www.svgrepo.com, Generator: SVG Repo Mixer Tools -->
<svg fill="#000000" height="800px" width="800px" version="1.1" id="Layer_1" xmlns="http://www.w3.org/2000/svg" xmlns:xlink="http://www.w3.org/1999/xlink" 
	 viewBox="0 0 512 512" xml:space="preserve">
<g>
	<g>
		<path d="M255.405,203.238c-29.158,0-52.877,23.719-52.877,52.877c0,29.158,23.719,52.877,52.877,52.877
			c29.158,0,52.877-23.719,52.877-52.877C308.282,226.957,284.563,203.238,255.405,203.238z M255.405,291.366
			c-19.442,0-35.251-15.814-35.251-35.251c0-19.437,15.81-35.251,35.251-35.251c19.442,0,35.251,15.814,35.251,35.251
			C290.656,275.552,274.847,291.366,255.405,291.366z"/>
	</g>
</g>
<g>
	<g>
		<path d="M510.808,247.187C506.247,112.791,397.433,5.275,265.24,0.711V0.427h-17.626v0.284C113.218,5.275,4.564,112.791,0,247.187
			h0.854v17.626H0c4.564,134.396,113.218,242.143,247.614,246.706v0.054h17.626v-0.054
			c132.193-4.564,241.007-112.31,245.568-246.706H512v-17.626H510.808z M247.614,18.348v26.456
			c-110.161,4.518-199.004,92.223-203.52,202.384H17.637C22.185,123.807,122.031,22.895,247.614,18.348z M247.614,493.883
			c-125.583-4.547-225.429-105.69-229.978-229.07h26.458c4.516,110.161,93.359,198.096,203.52,202.613V493.883z M221.176,370.567
			v17.626h26.439v61.596c-101.348-4.493-181.391-85.832-185.883-184.976h62.503v26.439h17.626v-70.503h-17.626v26.439H61.731
			c4.492-99.145,84.535-180.253,185.883-184.746v61.366h-26.439v17.626h70.503v-17.626H265.24V62.441
			c99.145,4.493,179.347,85.602,183.839,184.746H388.62v-26.439h-17.626v70.503h17.626v-26.439h60.459
			c-4.493,99.145-84.695,180.483-183.839,184.976v-61.596h26.439v-17.626H221.176z M265.24,493.883v-26.457
			c107.957-4.517,196.957-92.452,201.476-202.613h26.456C488.625,388.193,388.62,489.335,265.24,493.883z M466.716,247.187
			C462.197,137.026,373.197,49.322,265.24,44.803V18.348c123.38,4.547,223.385,105.46,227.932,228.84H466.716z"/>
	</g>
</g>
</svg>