<?xml version="1.0" encoding="iso-8859-1"?>
<!-- Uploaded to: SVG Repo, www.svgrepo.com, Generator: SVG Repo Mixer Tools -->
<svg fill="#000000" height="800px" width="800px" version="1.1" id="Layer_1" xmlns="http://www.w3.org/2000/svg" xmlns:xlink="http://www.w3.org/1999/xlink" 
	 viewBox="0 0 512 512" xml:space="preserve">
<g>
	<g>
		<path d="M510.578,234.625C500.216,110.58,400.777,11.341,276.735,0.979c-1.164-0.565-2.711-0.968-4.092-0.968h-35.309
			c-1.381,0-2.672,0.403-3.838,0.968C109.456,11.341,10.781,110.551,0.422,234.596c-0.567,1.165-0.399,2.484-0.399,3.865v35.308
			c0,1.383-0.168,2.674,0.399,3.84C10.784,401.648,109.71,500.773,233.75,511.135c1.166,0.567,2.2,0.853,3.584,0.853h35.309
			c1.381,0,2.674-0.287,3.838-0.853c124.04-10.362,223.736-109.517,234.097-233.556c0.565-1.164,1.422-2.427,1.422-3.81v-35.308
			C512,237.08,511.142,235.789,510.578,234.625z M282.493,141.362V19.261c110.34,12.25,197.099,99.918,209.348,210.258h-122.1
			c-4.879,0-7.803,4.068-7.803,8.942v8.712h-45.8c-3.884-26.482-24.818-48.324-51.299-52.208v-44.891h7.803
			C277.521,150.074,282.493,146.237,282.493,141.362z M264.839,247.173v-34.303c15.448,3.519,29.876,16.649,33.395,34.303H264.839z
			 M298.234,264.827c-3.519,17.654-17.947,31.014-33.395,34.535v-34.535H298.234z M247.184,17.961
			c2.207-0.107,5.871-0.18,8.827-0.18c2.957,0,4.414,0.073,8.827,0.18v114.458h-17.654V17.961z M229.53,19.261v122.101
			c0,4.875,2.924,8.712,7.803,8.712h9.851v44.891c-28.688,3.884-49.463,25.726-53.347,52.208h-43.752v-8.712
			c0-4.875-4.972-8.942-9.851-8.942H18.132C30.384,119.179,119.19,31.511,229.53,19.261z M211.742,247.173
			c3.519-17.654,17.788-30.784,35.442-34.303v34.303H211.742z M247.184,264.827v34.535c-17.654-3.521-31.923-16.881-35.442-34.535
			H247.184z M16.654,256c0-2.957,0.073-6.62,0.179-8.827h115.598v17.654H16.833C16.727,262.62,16.654,258.957,16.654,256z
			 M229.53,370.868V492.97C119.19,480.72,30.384,392.821,18.132,282.482h122.102c4.879,0,9.851-3.832,9.851-8.713v-8.941h43.752
			c3.883,26.482,24.658,48.554,53.347,52.437v44.662h-9.851C232.455,361.926,229.53,365.988,229.53,370.868z M264.839,494.269
			c-4.414,0.108-5.87,0.179-8.827,0.179c-2.957,0-6.62-0.071-8.827-0.179V379.581h17.654V494.269z M282.493,492.97V370.868
			c0-4.879-4.972-8.941-9.851-8.941h-7.803v-44.662c26.482-3.883,47.414-25.956,51.299-52.437h45.8v8.941
			c0,4.881,2.924,8.713,7.803,8.713h122.1C479.592,392.821,392.833,480.72,282.493,492.97z M493.141,264.827H379.592v-17.654
			h113.549c0.108,2.207,0.181,5.871,0.181,8.827C493.322,258.957,493.249,262.62,493.141,264.827z"/>
	</g>
</g>
</svg>