<?xml version="1.0" encoding="iso-8859-1"?>
<!-- Uploaded to: SVG Repo, www.svgrepo.com, Generator: SVG Repo Mixer Tools -->
<svg height="800px" width="800px" version="1.1" id="Layer_1" xmlns="http://www.w3.org/2000/svg" xmlns:xlink="http://www.w3.org/1999/xlink" 
	 viewBox="0 0 512 512" xml:space="preserve">
<path style="fill:#048F46;" d="M109.256,0v434.897L256,512l146.744-77.103V0H109.256z M256,448.533
	c-15.336,0-27.768-12.432-27.768-27.768s12.432-27.768,27.768-27.768s27.768,12.432,27.768,27.768S271.336,448.533,256,448.533z"/>
<polygon style="fill:#FFAC00;" points="256,94.077 287.088,157.068 356.604,167.17 306.301,216.202 318.177,285.436 256,252.748 
	193.823,285.436 205.699,216.202 155.396,167.17 224.912,157.068 "/>
<path style="fill:#3DDB86;" d="M256,448.533c-15.336,0-27.768-12.432-27.768-27.768s12.432-27.768,27.768-27.768V0H109.256v434.897
	L256,512V448.533z"/>
<polygon style="fill:#FFD68B;" points="256,252.748 256,94.077 224.912,157.068 155.396,167.17 205.699,216.202 193.823,285.436 "/>
</svg>