<?xml version="1.0" encoding="iso-8859-1"?>
<!-- Uploaded to: SVG Repo, www.svgrepo.com, Generator: SVG Repo Mixer Tools -->
<svg height="800px" width="800px" version="1.1" id="Layer_1" xmlns="http://www.w3.org/2000/svg" xmlns:xlink="http://www.w3.org/1999/xlink" 
	 viewBox="0 0 512 512" xml:space="preserve">
<circle style="fill:#FFAC00;" cx="256" cy="256" r="256"/>
<circle style="fill:#DB6D00;" cx="256" cy="256" r="180.276"/>
<circle style="fill:#FFAC00;" cx="256" cy="256" r="104.563"/>
<path style="fill:#FFD68B;" d="M256,0C114.615,0,0,114.615,0,256s114.615,256,256,256V0z"/>
<path style="fill:#FFAC00;" d="M256,75.72c-99.566,0-180.28,80.714-180.28,180.28S156.434,436.28,256,436.28V75.72z"/>
<path style="fill:#FFD68B;" d="M256,151.439c-57.747,0-104.561,46.814-104.561,104.561S198.253,360.561,256,360.561V151.439z"/>
<path style="fill:#424242;" d="M511.509,271.673C511.822,266.488,512,261.265,512,256s-0.179-10.488-0.491-15.673h-217.67
	L447.752,86.414c-6.932-7.832-14.334-15.234-22.165-22.165L271.673,218.161V0.491C266.488,0.178,261.265,0,256,0
	s-10.488,0.179-15.673,0.491v217.67L86.413,64.249c-7.832,6.932-15.234,14.334-22.165,22.165l153.913,153.912H0.491
	C0.178,245.512,0,250.735,0,256s0.179,10.488,0.491,15.673h217.67L64.248,425.586c6.932,7.832,14.334,15.234,22.165,22.165
	l153.913-153.912v217.67C245.512,511.822,250.735,512,256,512s10.488-0.179,15.673-0.491v-217.67l153.913,153.912
	c7.832-6.932,15.234-14.334,22.165-22.165L293.839,271.673H511.509z"/>
</svg>