<?xml version="1.0" encoding="iso-8859-1"?>
<!-- Uploaded to: SVG Repo, www.svgrepo.com, Generator: SVG Repo Mixer Tools -->
<svg fill="#000000" height="800px" width="800px" version="1.1" id="Layer_1" xmlns="http://www.w3.org/2000/svg" xmlns:xlink="http://www.w3.org/1999/xlink" 
	 viewBox="0 0 512 512" xml:space="preserve">
<g>
	<g>
		<path d="M437.019,74.982C388.667,26.63,324.38,0.001,256,0.001S123.333,26.63,74.98,74.982C26.628,123.334,0,187.62,0,256
			c0,68.381,26.628,132.668,74.98,181.019c48.352,48.351,112.639,74.98,181.02,74.98c68.381,0,132.668-26.629,181.02-74.98
			C485.372,388.668,512,324.38,512,256S485.371,123.333,437.019,74.982z M86.1,107.607l28.998,28.998
			c-24.27,28.598-40.01,64.647-43.246,104.186H30.932C34.206,191.302,53.42,144.916,86.1,107.607z M143.464,240.792h-41.076
			c3.063-31.169,15.433-59.646,34.288-82.607l29.033,29.032C154.033,202.507,146.146,220.835,143.464,240.792z M165.709,324.784
			l-29.032,29.032c-18.857-22.961-31.226-51.437-34.288-82.607h41.075C146.146,291.166,154.033,309.493,165.709,324.784z
			 M30.932,271.209h40.919c3.236,39.539,18.976,75.588,43.246,104.186L86.1,404.393C53.42,367.084,34.206,320.698,30.932,271.209z
			 M240.791,481.067c-49.49-3.273-95.875-22.486-133.184-55.167l28.998-28.998c28.598,24.27,64.647,40.01,104.186,43.246V481.067z
			 M240.791,409.612c-31.169-3.063-59.646-15.433-82.607-34.288l29.032-29.033c15.29,11.676,33.618,19.562,53.575,22.245V409.612z
			 M174.278,240.792c2.159-11.626,6.733-22.41,13.199-31.805l31.806,31.805H174.278z M219.283,271.209l-31.805,31.805
			c-6.467-9.395-11.04-20.18-13.199-31.805H219.283z M240.791,337.721c-11.626-2.159-22.41-6.733-31.805-13.199l31.805-31.805
			V337.721z M240.791,219.284l-31.805-31.805c9.395-6.467,20.18-11.04,31.805-13.199V219.284z M240.791,143.464
			c-19.957,2.683-38.284,10.569-53.575,22.245l-29.032-29.032c22.961-18.857,51.437-31.226,82.607-34.288V143.464z M136.606,115.098
			L107.608,86.1c37.309-32.68,83.694-51.894,133.184-55.167v40.918h0C201.252,75.088,165.204,90.828,136.606,115.098z
			 M481.067,240.792h-40.919c-3.236-39.539-18.976-75.588-43.246-104.186l28.998-28.998
			C458.58,144.916,477.794,191.302,481.067,240.792z M292.717,240.792l31.805-31.805c6.467,9.395,11.04,20.18,13.199,31.805H292.717
			z M337.722,271.209c-2.159,11.626-6.733,22.41-13.199,31.805l-31.806-31.805H337.722z M271.209,219.283v-45.004
			c11.626,2.159,22.41,6.733,31.805,13.199L271.209,219.283z M303.014,324.522c-9.395,6.467-20.18,11.04-31.805,13.199v-45.004
			L303.014,324.522z M324.783,346.291l29.032,29.032c-22.961,18.857-51.437,31.226-82.607,34.288v-41.075
			C291.165,365.853,309.493,357.967,324.783,346.291z M346.29,324.783c11.676-15.29,19.562-33.618,22.245-53.575h41.076
			c-3.063,31.169-15.433,59.646-34.288,82.607L346.29,324.783z M346.29,187.217l29.032-29.032
			c18.857,22.961,31.226,51.437,34.288,82.607h-41.075C365.853,220.835,357.966,202.508,346.29,187.217z M271.209,30.934
			c49.49,3.273,95.875,22.486,133.184,55.167l-28.998,28.998c-28.598-24.27-64.647-40.01-104.186-43.246V30.934z M271.208,102.388
			c31.169,3.063,59.646,15.433,82.607,34.288l-29.032,29.033c-15.29-11.676-33.618-19.562-53.575-22.245V102.388z M271.209,481.067
			v-40.918c39.539-3.236,75.588-18.976,104.186-43.246l28.998,28.998C367.084,458.581,320.698,477.794,271.209,481.067z
			 M425.9,404.393l-28.998-28.998c24.27-28.598,40.01-64.647,43.246-104.186h40.919C477.794,320.698,458.58,367.084,425.9,404.393z"
			/>
	</g>
</g>
</svg>