<?xml version="1.0" encoding="iso-8859-1"?>
<!-- Uploaded to: SVG Repo, www.svgrepo.com, Generator: SVG Repo Mixer Tools -->
<svg version="1.1" id="Layer_1" xmlns="http://www.w3.org/2000/svg" xmlns:xlink="http://www.w3.org/1999/xlink" 
	 viewBox="0 0 511.995 511.995" xml:space="preserve">
<rect x="302.161" y="146.638" transform="matrix(-0.866 0.5 -0.5 -0.866 796.6292 110.5774)" style="fill:#424242;" width="162.677" height="30.763"/>
<rect x="78.644" y="207.101" transform="matrix(0.866 -0.5 0.5 0.866 -106.8553 103.8671)" style="fill:#8F8F8F;" width="123.484" height="88.445"/>
<g>
	
		<rect x="-10.12" y="244.441" transform="matrix(-0.866 0.5 -0.5 -0.866 483.7793 423.4226)" style="fill:#3DDB86;" width="390.562" height="64.172"/>
	
		<rect x="405.443" y="89.257" transform="matrix(-0.866 0.5 -0.5 -0.866 907.746 -0.5486)" style="fill:#3DDB86;" width="97.007" height="64.172"/>
</g>
<g>
	
		<rect x="-2.095" y="274.378" transform="matrix(-0.866 0.5 -0.5 -0.866 505.7025 445.3363)" style="fill:#048F46;" width="390.562" height="32.086"/>
	
		<rect x="413.461" y="119.196" transform="matrix(-0.866 0.5 -0.5 -0.866 929.655 21.3709)" style="fill:#048F46;" width="97.007" height="32.086"/>
</g>
<g>
	
		<rect x="75.73" y="215.575" transform="matrix(-0.5 -0.866 0.866 -0.5 99.8948 519.5869)" style="fill:#424242;" width="248.414" height="30.763"/>
	<circle style="fill:#424242;" cx="135.733" cy="366.755" r="75.936"/>
</g>
<circle style="fill:#FFAC00;" cx="135.733" cy="366.755" r="30.918"/>
<path style="fill:#707070;" d="M135.737,290.835c-12.906-0.012-25.986,3.247-37.967,10.163
	c-36.318,20.969-48.762,67.408-27.793,103.726c14.052,24.337,39.543,37.932,65.76,37.958V290.835z"/>
<path style="fill:#FFD68B;" d="M135.737,335.847c-5.255-0.005-10.58,1.322-15.458,4.138c-14.786,8.537-19.853,27.445-11.316,42.231
	c5.721,9.909,16.1,15.444,26.774,15.454V335.847z"/>
</svg>