<?xml version="1.0" encoding="iso-8859-1"?>
<!-- Uploaded to: SVG Repo, www.svgrepo.com, Generator: SVG Repo Mixer Tools -->
<svg height="800px" width="800px" version="1.1" id="Layer_1" xmlns="http://www.w3.org/2000/svg" xmlns:xlink="http://www.w3.org/1999/xlink" 
	 viewBox="0 0 512 512" xml:space="preserve">
<g>
	<polygon style="fill:#808080;" points="324.468,214.763 309.627,229.603 305.076,234.155 303.947,233.025 278.281,207.349 
		277.848,206.915 297.239,187.523 297.673,187.957 323.338,213.634 	"/>
	<polygon style="fill:#808080;" points="131.577,407.653 110.474,428.756 109.345,427.627 83.68,401.961 83.246,401.528 
		104.349,380.425 104.782,380.859 130.448,406.524 	"/>
	<polygon style="fill:#808080;" points="262.962,362.003 244.106,380.859 201.239,337.992 220.095,319.136 237.958,336.999 	"/>
	<polygon style="fill:#808080;" points="352.494,272.47 333.639,291.326 290.772,248.459 305.076,234.155 309.627,229.603 	"/>
	<polygon style="fill:#808080;" points="405.228,132.428 370.232,159.246 352.757,141.77 379.563,106.763 	"/>
</g>
<g>
	<polygon style="fill:#0B9B53;" points="68.725,470.517 80.919,482.711 60.193,503.448 8.554,451.809 29.292,431.072 
		41.486,443.277 	"/>
	<polygon style="fill:#0B9B53;" points="110.474,428.756 68.725,470.517 41.486,443.277 83.246,401.528 83.68,401.961 
		109.345,427.627 	"/>
</g>
<g>
	<polygon style="fill:#808080;" points="424.494,118.17 410.213,137.413 405.228,132.428 379.563,106.763 374.589,101.789 
		393.833,87.508 	"/>
	<polygon style="fill:#808080;" points="480.4,75.599 424.494,118.17 393.833,87.508 436.403,31.603 	"/>
</g>
<polygon style="fill:#F95428;" points="503.441,8.561 480.4,75.599 436.403,31.603 "/>
<g>
	<polygon style="fill:#0B9B53;" points="375.114,164.116 324.468,214.763 323.338,213.634 297.673,187.957 297.239,187.523 
		347.874,136.888 352.757,141.77 370.232,159.246 	"/>
	<polygon style="fill:#0B9B53;" points="305.076,234.155 290.772,248.459 249.444,289.797 220.095,319.136 201.239,337.992 
		131.577,407.653 130.448,406.524 104.782,380.859 104.349,380.425 277.848,206.915 278.281,207.349 303.947,233.025 	"/>
</g>
<path style="fill:#333333;" d="M509.494,2.506c-2.313-2.312-5.741-3.104-8.831-2.041l-67.045,23.046
	c-1.599,0.55-3,1.562-4.024,2.908l-41.837,54.94L369.49,94.923c-1.996,1.483-3.25,3.761-3.431,6.242
	c-0.171,2.326,0.625,4.606,2.173,6.332l-16.62,21.699c-3.189-1.549-7.137-1.007-9.785,1.64L41.488,431.175l-6.149-6.149
	c-3.341-3.341-8.758-3.341-12.098,0L2.506,445.759C0.901,447.364,0,449.541,0,451.809c0,2.269,0.901,4.445,2.506,6.049
	l51.636,51.635c1.67,1.671,3.86,2.506,6.049,2.506c2.189,0,4.379-0.835,6.049-2.506l20.734-20.734
	c1.605-1.604,2.506-3.78,2.506-6.049c0-2.269-0.901-4.445-2.506-6.049l-6.149-6.149l120.419-120.419l36.815,36.815
	c1.67,1.671,3.86,2.506,6.049,2.506s4.379-0.835,6.049-2.506l18.857-18.857c3.341-3.341,3.341-8.757,0-12.098l-18.955-18.955
	l23.294-23.293c1.604-1.605,2.505-3.78,2.505-6.049c0-2.269-0.901-4.445-2.506-6.049l-11.811-11.811l29.237-29.237l36.815,36.815
	c1.605,1.604,3.78,2.506,6.05,2.506s4.444-0.901,6.05-2.506l18.856-18.857c3.341-3.341,3.341-8.757,0-12.098l-36.815-36.815
	l59.432-59.432c1.604-1.604,2.505-3.78,2.505-6.049c0-1.307-0.308-2.579-0.868-3.732l21.699-16.621
	c1.571,1.409,3.6,2.195,5.706,2.195c0.21,0,0.419-0.008,0.629-0.023c2.48-0.183,4.759-1.435,6.242-3.431l13.564-18.265
	l54.939-41.837c1.346-1.024,2.357-2.425,2.908-4.025l23.048-67.045C512.598,8.245,511.806,4.818,509.494,2.506z M393,98.777
	L413.223,119l-3.973,5.351l-21.6-21.601L393,98.777z M380.422,119.721l11.857,11.857l-21.298,16.312l-6.871-6.873L380.422,119.721z
	 M131.581,395.557l-15.138-15.138l161.403-161.402l15.138,15.138L131.581,395.557z M119.481,407.656l-9.005,9.005L95.34,401.522
	l9.005-9.005L119.481,407.656z M305.082,222.057l-15.138-15.138l7.292-7.292l15.138,15.138L305.082,222.057z M60.191,491.346
	l-39.537-39.536l8.635-8.635l6.148,6.148c0,0,0,0.001,0.001,0.001l27.237,27.237c0.001,0.001,0.003,0.003,0.005,0.005l6.145,6.145
	L60.191,491.346z M53.587,443.274l29.653-29.653l15.138,15.138l-29.653,29.653L53.587,443.274z M244.107,368.758l-30.764-30.764
	l6.757-6.757l30.764,30.766L244.107,368.758z M255.203,307.655l-17.244,17.244l-5.762-5.76l17.244-17.244L255.203,307.655z
	 M340.398,272.467l-6.757,6.757l-30.764-30.765l6.757-6.757L340.398,272.467z M324.473,202.665l-15.138-15.138l38.543-38.543
	l15.138,15.138L324.473,202.665z M425.258,106.836l-20.094-20.094l32.109-42.166l30.151,30.151L425.258,106.836z M476.76,59.864
	l-24.624-24.625L489.66,22.34L476.76,59.864z"/>
</svg>