<?xml version="1.0" encoding="iso-8859-1"?>
<!-- Uploaded to: SVG Repo, www.svgrepo.com, Generator: SVG Repo Mixer Tools -->
<svg version="1.1" id="Layer_1" xmlns="http://www.w3.org/2000/svg" xmlns:xlink="http://www.w3.org/1999/xlink" 
	 viewBox="0 0 512.005 512.005" xml:space="preserve">
<rect x="116.038" y="38.44" style="fill:#424242;" width="31.35" height="217.562"/>
<path style="fill:#048F46;" d="M395.389,215.113h-57.665v64.31v29.613h57.665h0.188H459.7v-29.613
	C459.7,243.907,430.907,215.113,395.389,215.113z"/>
<path style="fill:#3DDB86;" d="M395.577,215.121c-0.063,0-0.124-0.007-0.188-0.007h-57.665v93.923h57.665h0.188V215.121z"/>
<polygon style="fill:#424242;" points="285.424,279.423 263.425,327.959 0,327.959 32.998,473.565 446.003,473.565 512,279.423 "/>
<rect x="45.73" y="188.032" style="fill:#C2C2C2;" width="171.968" height="212.734"/>
<rect x="45.73" y="188.032" style="fill:#EAEAEA;" width="85.984" height="212.734"/>
<polygon style="fill:#707070;" points="244.514,327.959 0,327.959 32.998,473.565 244.514,473.565 "/>
<rect x="64.895" y="77.48" style="fill:#FFAC00;" width="133.626" height="71.51"/>
<rect x="64.895" y="77.48" style="fill:#FFD68B;" width="66.812" height="71.51"/>
<rect x="337.728" y="199.433" style="fill:#424242;" width="174.277" height="31.35"/>
<polygon style="fill:#048F46;" points="12.947,385.087 20.052,416.438 465.424,416.438 476.081,385.087 "/>
<polygon style="fill:#3DDB86;" points="244.514,385.087 12.947,385.087 20.052,416.438 244.514,416.438 "/>
</svg>