<?xml version="1.0" encoding="iso-8859-1"?>
<!-- Uploaded to: SVG Repo, www.svgrepo.com, Generator: SVG Repo Mixer Tools -->
<svg fill="#000000" height="800px" width="800px" version="1.1" id="Layer_1" xmlns="http://www.w3.org/2000/svg" xmlns:xlink="http://www.w3.org/1999/xlink" 
	 viewBox="0 0 512 512" xml:space="preserve">
<g>
	<g>
		<path d="M300.413,251.031l82.626-46.739L337.364,0H174.635l-45.674,204.292l82.626,46.739
			c-52.272,18.376-89.85,68.231-89.85,126.705C121.737,451.77,181.967,512,256,512s134.263-60.231,134.263-134.264
			C390.263,319.262,352.685,269.407,300.413,251.031z M348.434,188.921l-67.68,38.284l42.667-150.162L348.434,188.921z
			 M163.566,188.921l35.437-158.504h106.046l-58.392,205.505L163.566,188.921z M255.999,481.583
			c-57.261,0-103.846-46.585-103.846-103.846S198.738,273.89,255.999,273.89s103.846,46.585,103.846,103.846
			S313.261,481.583,255.999,481.583z"/>
	</g>
</g>
<g>
	<g>
		<path d="M255.999,294.168c-46.08,0-83.568,37.489-83.568,83.568s37.488,83.568,83.568,83.568
			c46.079,0,83.568-37.489,83.568-83.568S302.08,294.168,255.999,294.168z M255.999,430.887c-29.308,0-53.151-23.844-53.151-53.151
			s23.843-53.151,53.151-53.151c29.307,0,53.151,23.844,53.151,53.151S285.308,430.887,255.999,430.887z"/>
	</g>
</g>
</svg>