<?xml version="1.0" encoding="iso-8859-1"?>
<!-- Uploaded to: SVG Repo, www.svgrepo.com, Generator: SVG Repo Mixer Tools -->
<svg fill="#000000" height="800px" width="800px" version="1.1" id="Layer_1" xmlns="http://www.w3.org/2000/svg" xmlns:xlink="http://www.w3.org/1999/xlink" 
	 viewBox="0 0 511.999 511.999" xml:space="preserve">
<g>
	<g>
		<path d="M503.438,238.128h-25.824v-14.283c0-1.05-0.193-2.093-0.571-3.072l-9.082-23.623v-34.227c0-2.628-1.186-4.977-3.051-6.547
			c-0.653-23.189-4.696-46.219-12.064-68.552l-2.143-6.497c-1.338-4.056-5.108-6.781-9.38-6.781c-4.271,0-8.041,2.726-9.379,6.783
			l-2.143,6.497c-7.368,22.333-11.41,45.362-12.064,68.552c-1.863,1.571-3.051,3.919-3.051,6.547v34.227l-9.082,23.623
			c-0.377,0.981-0.571,2.022-0.571,3.072v14.283H384.95v-14.283c0-1.05-0.193-2.093-0.571-3.072l-9.082-23.623v-34.227
			c0-2.628-1.186-4.978-3.05-6.547c-0.653-23.191-4.696-46.219-12.064-68.551l-2.143-6.498c-1.338-4.056-5.108-6.781-9.379-6.781
			c-4.272,0-8.041,2.726-9.379,6.781l-2.144,6.498c-7.367,22.333-11.41,45.363-12.064,68.552c-1.863,1.571-3.051,3.919-3.051,6.547
			v34.227l-9.082,23.623c-0.377,0.981-0.571,2.022-0.571,3.072v14.283h-20.084v-14.283c0-1.05-0.193-2.093-0.571-3.072
			l-9.082-23.623v-34.227c0-2.628-1.186-4.977-3.051-6.547c-0.653-23.189-4.696-46.219-12.064-68.552l-2.143-6.498
			c-1.338-4.056-5.108-6.781-9.379-6.781c-4.272,0-8.041,2.726-9.379,6.781l-2.144,6.498c-7.367,22.333-11.41,45.363-12.064,68.552
			c-1.863,1.571-3.051,3.919-3.051,6.547v34.227l-9.082,23.623c-0.377,0.981-0.571,2.022-0.571,3.072v14.283h-20.084v-14.283
			c0-1.05-0.193-2.093-0.571-3.072l-9.082-23.623v-34.227c0-2.628-1.186-4.977-3.05-6.547c-0.653-23.189-4.696-46.219-12.064-68.552
			l-2.143-6.497c-1.338-4.056-5.108-6.781-9.38-6.781c-4.271,0-8.041,2.726-9.379,6.783l-2.143,6.497
			c-7.367,22.333-11.41,45.362-12.064,68.552c-1.864,1.571-3.051,3.919-3.051,6.547v34.227l-9.082,23.623
			c-0.377,0.981-0.571,2.022-0.571,3.072v14.283h-20.082v-14.283c0-1.05-0.193-2.093-0.571-3.072l-9.082-23.623v-34.227
			c0-2.628-1.186-4.977-3.051-6.547c-0.653-23.19-4.696-46.22-12.064-68.552l-2.143-6.497c-1.338-4.056-5.108-6.781-9.379-6.781
			s-8.041,2.726-9.379,6.781l-2.144,6.498c-7.367,22.333-11.41,45.363-12.064,68.552c-1.863,1.571-3.051,3.919-3.051,6.547v34.227
			l-9.082,23.623c-0.377,0.981-0.571,2.022-0.571,3.072v14.283H8.562c-4.729,0-8.562,3.834-8.562,8.562v145.55
			c0,4.729,3.834,8.562,8.562,8.562h25.824v28.084c0,4.729,3.834,8.562,8.562,8.562h55.453c4.729,0,8.562-3.834,8.562-8.562v-28.084
			h20.084v28.084c0,4.729,3.834,8.562,8.562,8.562h55.453c4.729,0,8.562-3.834,8.562-8.562v-28.084h20.084v28.084
			c0,4.729,3.834,8.562,8.562,8.562h55.453c4.729,0,8.562-3.834,8.562-8.562v-28.084h20.084v28.084c0,4.729,3.834,8.562,8.562,8.562
			h55.453c4.729,0,8.562-3.834,8.562-8.562v-28.084h20.084v28.084c0,4.729,3.834,8.562,8.562,8.562h55.453
			c4.729,0,8.562-3.834,8.562-8.562v-28.084h25.826c4.729,0,8.562-3.834,8.562-8.562v-145.55
			C512,241.962,508.166,238.128,503.438,238.128z M34.387,383.678H17.125V255.252h17.262V383.678z M70.674,109.597
			c3.66,14.729,5.8,29.706,6.394,44.762H64.281C64.876,139.303,67.015,124.328,70.674,109.597z M61.163,171.615h19.023v18.757
			H61.163V171.615z M58.407,207.498h24.537l2.992,7.785H55.414L58.407,207.498z M89.839,420.325H51.512V232.408h38.328V420.325z
			 M127.048,383.678h-20.084V255.252h20.084V383.678z M163.337,109.597c3.659,14.731,5.799,29.706,6.393,44.762h-12.787
			C157.539,139.303,159.678,124.327,163.337,109.597z M153.825,171.615h19.025v18.757h-19.025V171.615z M151.069,207.498h24.538
			l2.992,7.785h-30.522L151.069,207.498z M182.501,420.325h-38.328V232.408h38.328V420.325z M219.71,383.678h-20.084V255.252h20.084
			V383.678z M255.999,109.597c3.66,14.731,5.8,29.706,6.394,44.762h-12.788C250.2,139.303,252.34,124.328,255.999,109.597z
			 M246.488,171.615h19.025v18.757h-19.025V171.615z M243.731,207.498h24.538l2.992,7.785h-30.522L243.731,207.498z
			 M275.164,420.325h-38.328V232.408h38.328V420.325z M312.373,383.678h-20.084V255.252h20.084V383.678z M348.661,109.597
			c3.66,14.729,5.8,29.706,6.394,44.762h-12.788C342.862,139.303,345.001,124.328,348.661,109.597z M339.149,171.615h19.025v18.757
			h-19.025V171.615z M336.393,207.498h24.538l2.992,7.785h-30.522L336.393,207.498z M367.826,420.325h-38.328V232.408h38.328
			V420.325z M405.034,383.678H384.95V255.252h20.084V383.678z M441.323,109.597c3.659,14.731,5.798,29.706,6.393,44.762h-12.788
			C435.525,139.303,437.664,124.327,441.323,109.597z M431.812,171.615h19.023v18.757h-19.023V171.615z M429.055,207.498h24.537
			l2.992,7.785h-30.522L429.055,207.498z M460.487,420.325h-38.328V232.408h38.328V420.325z M494.876,383.678h-0.001h-17.262
			V255.252h17.263V383.678z"/>
	</g>
</g>
</svg>