<?xml version="1.0" encoding="iso-8859-1"?>
<!-- Uploaded to: SVG Repo, www.svgrepo.com, Generator: SVG Repo Mixer Tools -->
<svg fill="#000000" height="800px" width="800px" version="1.1" id="Layer_1" xmlns="http://www.w3.org/2000/svg" xmlns:xlink="http://www.w3.org/1999/xlink" 
	 viewBox="0 0 512 512" xml:space="preserve">
<g>
	<g>
		<path d="M445.27,237.583h-24.83v-57.5h-20.665v-29.622h-30.456v29.622h-7.573v-48.636h-30.456v48.636h-20.664v57.5H72.842H42.385
			H0v142.969h72.842v-51.259c11.791,4.742,28.517,10.21,51.941,15.612c75.219,17.346,183.047,26.141,320.487,26.141
			c36.795,0,66.73-29.936,66.73-66.731S482.065,237.583,445.27,237.583z M42.385,311.238v38.858H30.456v-82.056h11.929V311.238z
			 M341.081,210.541h48.902v27.043h-48.902V210.541z M445.27,340.589c-85.436,0-203.691-3.748-293.135-21.046H478.18
			C472.414,331.957,459.834,340.589,445.27,340.589z M72.842,289.085V268.04h237.783H420.44h24.83
			c14.564,0,27.144,8.632,32.911,21.045H72.842z"/>
	</g>
</g>
</svg>