<?xml version="1.0" encoding="iso-8859-1"?>
<!-- Uploaded to: SVG Repo, www.svgrepo.com, Generator: SVG Repo Mixer Tools -->
<svg fill="#000000" height="800px" width="800px" version="1.1" id="Layer_1" xmlns="http://www.w3.org/2000/svg" xmlns:xlink="http://www.w3.org/1999/xlink" 
	 viewBox="0 0 512.001 512.001" xml:space="preserve">
<g>
	<g>
		<path d="M360.308,49.573c-2.582-1.622-5.816-1.799-8.56-0.475l-95.748,46.21l-95.748-46.211c-2.744-1.324-5.978-1.147-8.56,0.475
			c-2.582,1.62-4.149,4.454-4.149,7.503v70.054c0,3.401,1.945,6.501,5.008,7.979l99.599,48.069c1.215,0.587,2.534,0.881,3.851,0.881
			s2.634-0.294,3.852-0.881l99.599-48.08c3.062-1.478,5.007-4.578,5.007-7.977V57.075C364.458,54.027,362.89,51.193,360.308,49.573z
			 M346.741,121.558l-90.74,43.803l-90.74-43.793v-50.38l86.889,41.935c2.432,1.174,5.269,1.174,7.701,0l86.889-41.935V121.558z"/>
	</g>
</g>
<g>
	<g>
		<path d="M360.308,157.706c-2.582-1.622-5.816-1.799-8.56-0.475l-95.748,46.211l-95.748-46.211
			c-2.744-1.324-5.978-1.147-8.56,0.475c-2.582,1.621-4.149,4.454-4.149,7.503v70.053c0,3.401,1.945,6.501,5.008,7.979
			l99.599,48.069c1.215,0.587,2.534,0.881,3.851,0.881s2.634-0.294,3.852-0.881l99.599-48.08c3.062-1.478,5.007-4.578,5.007-7.977
			v-70.044C364.458,162.16,362.89,159.327,360.308,157.706z M346.741,229.692l-90.74,43.803l-90.74-43.793v-50.38l86.889,41.935
			c2.432,1.174,5.269,1.174,7.701,0l86.889-41.935V229.692z"/>
	</g>
</g>
<g>
	<g>
		<path d="M360.308,265.841c-2.582-1.623-5.816-1.799-8.56-0.475l-95.748,46.211l-95.748-46.211
			c-2.744-1.324-5.978-1.147-8.56,0.475c-2.582,1.62-4.149,4.454-4.149,7.503v70.054c0,3.401,1.945,6.501,5.008,7.979l99.599,48.069
			c1.215,0.587,2.534,0.881,3.851,0.881s2.634-0.294,3.852-0.881l99.599-48.08c3.062-1.478,5.007-4.578,5.007-7.977v-70.044
			C364.458,270.295,362.89,267.461,360.308,265.841z M346.741,337.828l-90.74,43.803l-90.74-43.793v-50.382l86.889,41.935
			c2.432,1.174,5.269,1.174,7.701,0l86.889-41.935V337.828z"/>
	</g>
</g>
<g>
	<g>
		<path d="M385.773,0H126.229c-4.893,0-8.859,3.966-8.859,8.859v419.847c0,3.174,1.698,6.105,4.452,7.685l129.772,74.437
			c1.364,0.783,2.885,1.174,4.407,1.174c1.521,0,3.043-0.392,4.407-1.174l129.772-74.437c2.753-1.579,4.452-4.511,4.452-7.685V8.859
			C394.631,3.966,390.665,0,385.773,0z M376.914,423.575L256.001,492.93l-120.913-69.355V17.717h241.827V423.575z"/>
	</g>
</g>
<g>
	<g>
		<path d="M256.001,417.217c-15.141,0-27.46,12.319-27.46,27.462c0,15.141,12.319,27.46,27.46,27.46s27.46-12.319,27.46-27.46
			C283.461,429.536,271.142,417.217,256.001,417.217z M256.001,454.422c-5.373,0-9.743-4.371-9.743-9.743
			c0-5.373,4.37-9.744,9.743-9.744c5.373,0,9.743,4.371,9.743,9.744C265.744,450.05,261.374,454.422,256.001,454.422z"/>
	</g>
</g>
</svg>