<?xml version="1.0" encoding="iso-8859-1"?>
<!-- Uploaded to: SVG Repo, www.svgrepo.com, Generator: SVG Repo Mixer Tools -->
<svg fill="#000000" height="800px" width="800px" version="1.1" id="Layer_1" xmlns="http://www.w3.org/2000/svg" xmlns:xlink="http://www.w3.org/1999/xlink" 
	 viewBox="0 0 512 512" xml:space="preserve">
<g>
	<g>
		<path d="M334.993,0c-3.018,0-5.855,1.466-7.6,3.927c-1.745,2.473-2.182,5.627-1.182,8.484c2.809,7.963,4.775,16.318,4.775,24.825
			c0,37.911-29.714,69.273-64.623,73.87V55.855c0-5.143-4.164-9.309-9.309-9.309c-5.145,0-9.309,4.166-9.309,9.309v55.252
			c-37.236-4.598-65.705-35.959-65.705-73.87c0-8.507,1.159-16.862,3.968-24.825c1-2.857,0.373-6.011-1.373-8.484
			C182.891,1.466,179.932,0,176.916,0C92.223,0,23.282,68.909,23.282,153.6c0,84.693,68.891,153.6,153.582,153.6
			c1.427,0,2.854-0.018,4.275-0.052c3.173-0.093,6.077-1.791,7.714-4.509c1.646-2.72,1.78-6.093,0.361-8.936
			c-5.118-10.318-7.17-21.439-7.17-33.048c0-37.909,28.466-69.271,65.702-73.868v315.905c0,5.148,4.164,9.309,9.309,9.309
			c5.145,0,9.309-4.161,9.309-9.309V186.786c34.909,4.598,64.623,35.959,64.623,73.868c0,11.609-2.859,22.73-7.977,33.048
			c-1.418,2.843-1.418,6.216,0.227,8.936c1.636,2.718,4.477,4.416,7.652,4.509c1.416,0.034,2.82,0.052,4.248,0.052
			c84.691,0,153.582-68.907,153.582-153.6C488.718,68.909,419.793,0,334.993,0z M247.745,168.032
			c-48.873,4.686-84.323,44.439-84.323,92.623c0,9.484,1.123,18.711,3.868,27.575C97.436,283.182,42,224.727,42,153.6
			C42,83.32,95.923,25.409,164.705,19.173c-1.164,5.921-1.248,11.966-1.248,18.064c0,48.186,35.416,87.939,84.289,92.625V168.032z
			 M344.93,288.229c2.745-8.864,4.675-18.091,4.675-27.575c0-48.184-36.696-87.936-83.241-92.623v-38.17
			c46.545-4.686,83.241-44.439,83.241-92.625c0-6.109-0.859-12.143-2.023-18.073c68.727,6.193,122.637,64.13,122.637,134.437
			C470.218,224.727,414.784,283.182,344.93,288.229z"/>
	</g>
</g>
</svg>