<?xml version="1.0" encoding="iso-8859-1"?>
<!-- Uploaded to: SVG Repo, www.svgrepo.com, Generator: SVG Repo Mixer Tools -->
<svg fill="#000000" height="800px" width="800px" version="1.1" id="Layer_1" xmlns="http://www.w3.org/2000/svg" xmlns:xlink="http://www.w3.org/1999/xlink" 
	 viewBox="0 0 512 512" xml:space="preserve">
<g>
	<g>
		<path d="M256,0C114.845,0,0,114.841,0,256c0,141.159,114.845,256,256,256c141.155,0,256-114.841,256-256
			C512,114.841,397.155,0,256,0z M265.851,494.165v-79.528c17.655-0.977,34.901-4.924,51.479-11.801
			c4.508-1.871,6.392-7.034,4.521-11.539c-1.871-4.509-7.19-6.629-11.664-4.772c-34.276,14.224-73.909,14.224-108.185,0
			c-4.474-1.862-9.694,0.263-11.565,4.772c-1.871,4.504,0.763,9.668,5.272,11.539c16.58,6.877,32.625,10.823,52.487,11.801v79.528
			C122.403,489.61,22.39,388.299,17.834,264.712h79.53c0.976,17.655,4.922,35.461,11.8,52.054c1.414,3.401,4.698,5.481,8.155,5.481
			c1.129,0,2.276-0.205,3.379-0.662c4.509-1.866,6.647-7.028,4.776-11.528c-7.112-17.151-10.716-35.336-10.716-54.06
			c0-18.728,3.603-36.913,10.716-54.055c1.871-4.504-0.267-9.667-4.776-11.538c-4.474-1.862-9.664,0.206-11.534,4.714
			c-6.877,16.593-10.823,34.283-11.8,51.939h-79.53C22.39,123.471,122.403,22.39,248.196,17.835V97.42
			c-19.862,0.974-35.946,4.874-52.504,11.744c-4.509,1.871-6.901,7.034-5.03,11.539c1.879,4.509,6.931,6.634,11.405,4.771
			c34.293-14.224,73.765-14.224,108.056,0c1.103,0.457,2.22,0.677,3.349,0.677c3.457,0,6.724-2.052,8.138-5.448
			c1.871-4.504,0.237-9.668-4.271-11.539c-16.556-6.87-33.832-10.769-51.487-11.744V17.835
			C389.438,22.39,489.61,123.471,494.164,247.057h-79.528c-0.979-17.655-4.922-35.346-11.8-51.938
			c-1.871-4.509-7.043-6.601-11.535-4.744c-4.508,1.871-6.647,7.049-4.776,11.554c7.112,17.142,10.715,35.334,10.715,54.062
			c0,18.724-3.603,36.918-10.715,54.069c-1.871,4.5,0.267,9.669,4.776,11.536c1.103,0.457,2.25,0.678,3.379,0.678
			c3.457,0,6.741-2.109,8.155-5.51c6.877-16.593,10.821-34.398,11.8-52.053h79.528C489.61,388.299,389.438,489.61,265.851,494.165z"
			/>
	</g>
</g>
<g>
	<g>
		<path d="M256,203.034c-29.207,0-52.966,23.759-52.966,52.966c0,29.207,23.759,52.966,52.966,52.966
			c29.207,0,52.966-23.759,52.966-52.966C308.966,226.793,285.207,203.034,256,203.034z M256,291.31
			c-19.474,0-35.31-15.84-35.31-35.31c0-19.47,15.836-35.31,35.31-35.31c19.474,0,35.31,15.841,35.31,35.31
			C291.31,275.47,275.474,291.31,256,291.31z"/>
	</g>
</g>
</svg>