<?xml version="1.0" encoding="iso-8859-1"?>
<!-- Uploaded to: SVG Repo, www.svgrepo.com, Generator: SVG Repo Mixer Tools -->
<svg fill="#000000" height="800px" width="800px" version="1.1" id="Layer_1" xmlns="http://www.w3.org/2000/svg" xmlns:xlink="http://www.w3.org/1999/xlink" 
	 viewBox="0 0 512 512" xml:space="preserve">
<g>
	<g>
		<path d="M509.38,310.763l-12.644-12.644c3.493-3.493,3.493-9.151,0-12.644l-37.857-37.861c-0.024-0.024-0.042-0.055-0.065-0.079
			c-0.024-0.026-0.055-0.041-0.081-0.065l-44.17-44.174c-0.004-0.004-0.006-0.009-0.011-0.013c-0.004-0.007-0.011,0.098-0.015,0.094
			l-37.924-37.82c-0.002,0-0.002,0-0.002,0c-0.792,0-1.733-1.548-2.792-2.002l-39.937-17.167c-0.039-0.05-0.065-0.135-0.107-0.186
			c-2.035-2.48-50.4-60.918-90.121-90.056C203.758,26.896,142.749,5.252,140.173,4.344c-3.039-1.074-6.453-0.415-8.88,1.725
			c-2.428,2.139-3.827,5.429-3.146,8.59c0.419,1.938,11.552,48.112,51.789,104.555c0,0.009,0,0.009,0,0.009
			c35.766,47.595,74.67,78.61,87.069,87.779l18.952,43.836c0.02,0.048,0.122,0.098,0.144,0.148l0.072,0.079
			c0.179,0.417,0.417,0.808,0.653,1.187c0.085,0.135,0.185,0.268,0.279,0.402c0.284,0.406,0.594,0.795,0.939,1.144
			c0.02,0.02,0.035,0.042,0.052,0.061L408.229,373.99c1.677,1.676,3.947,2.62,6.322,2.62s4.648-0.943,6.324-2.62l12.644,12.644
			c1.677,1.677,3.947,2.62,6.322,2.62c2.375,0,4.645-0.943,6.322-2.62l63.219-63.227
			C512.873,319.914,512.873,314.256,509.38,310.763z M275.745,190.683c-13.857-10.591-48.868-39.773-80.162-82.044v0.009
			c-24.589-33.408-37.826-63.273-44.166-80.953c20.808,8.4,56.373,24.213,81.802,42.865c30.596,22.432,67.999,64.903,81.595,80.795
			L275.745,190.683z M286.055,205.326l42.026-42.026l26.553,11.378l-57.196,57.196L286.055,205.326z M307.068,247.54l63.227-63.227
			l25.29,25.292l-63.225,63.227L307.068,247.54z M345.004,285.476l63.225-63.227l31.614,31.616l-63.225,63.225L345.004,285.476z
			 M414.553,355.025l-25.292-25.292l63.225-63.225l25.285,25.29L414.553,355.025z M439.84,367.668l-6.322-6.322l25.287-25.292
			l25.287-25.292l6.322,6.322L439.84,367.668z"/>
	</g>
</g>
<g>
	<g>
		<path d="M445.594,495.275c-0.873-1.781-22.039-44.096-75.853-88.846c-45.394-37.739-91.169-58.292-105.424-64.19l-28.977-38.182
			c-0.303-0.399-0.648-0.76-1.011-1.098c-0.052-0.05-0.109-0.098-0.166-0.148c-0.421-0.38-0.871-0.723-1.354-1.013l-0.002-0.002
			l-45.894-27.579c-0.028-0.017-0.05-0.039-0.079-0.057c-0.031-0.017-0.061-0.026-0.089-0.044l-99.558-59.822
			c-2.035-1.222-4.471-1.58-6.767-1.013c-2.294,0.574-4.276,2.041-5.499,4.073l-15.327-9.208c-4.235-2.541-9.736-1.17-12.268,3.065
			L1.276,287.851c-1.222,2.026-1.58,4.462-1.013,6.767c0.576,2.297,1.705,4.279,3.739,5.501l14.988,9.208v0.004
			c-2.235,4.226-0.834,9.718,3.403,12.268l145.789,87.502c0.011,0.006,0.109,0.011,0.122,0.017c0.668,0.397,1.432,0.707,2.192,0.921
			c0.079,0.022,0.181,0.035,0.26,0.055c0.244,0.061,0.5,0.127,0.753,0.168l42.912,6.944c0.048,0.037,0.085,0.083,0.135,0.12
			c2.576,1.912,63.637,46.907,109.235,65.567c45.781,18.738,110.213,24.973,112.94,25.226c0.279,0.035,0.559,0.044,0.838,0.044
			c2.925,0,5.685-1.432,7.361-3.859C446.764,501.632,447.026,498.183,445.594,495.275z M21.21,289.396l36.839-61.315l7.664,4.599
			l-36.837,61.317L21.21,289.396z M39.6,310.876l17.283-28.771l28.767-47.874l30.658,18.422l-46.054,76.641L39.6,310.876z
			 M85.581,338.504l46.054-76.641l38.324,23.028l-46.052,76.641L85.581,338.504z M169.891,389.164l-30.655-18.422l46.052-76.641
			l30.651,18.417l-32.45,54.02L169.891,389.164z M187.421,394.719l41.66-69.331l17.455,23.008L215.93,399.33L187.421,394.719z
			 M330.57,466.338c-35.111-14.364-81.756-46.514-98.792-58.643l28.64-47.667c15.997,6.907,57.49,26.562,97.884,60.145
			c31.845,26.484,51.727,52.304,62.153,67.933C398.215,484.98,359.726,478.274,330.57,466.338z"/>
	</g>
</g>
</svg>