<?xml version="1.0" encoding="iso-8859-1"?>
<!-- Uploaded to: SVG Repo, www.svgrepo.com, Generator: SVG Repo Mixer Tools -->
<svg version="1.1" id="Layer_1" xmlns="http://www.w3.org/2000/svg" xmlns:xlink="http://www.w3.org/1999/xlink" 
	 viewBox="0 0 512 512" xml:space="preserve">
<polygon style="fill:#666666;" points="280.778,236.117 263.291,218.63 175.294,306.627 192.781,324.125 182.367,334.538 
	155.029,361.877 146.134,370.772 111.677,336.315 250.032,197.949 287.143,189.47 288.739,191.056 304.112,206.44 307.295,209.611 
	260.108,256.798 "/>
<g>
	<polygon style="fill:#808080;" points="280.778,236.117 260.108,256.798 259.973,256.663 222.998,293.638 223.133,293.773 
		192.781,324.125 175.294,306.627 263.291,218.63 	"/>
	
		<rect x="236.789" y="260.807" transform="matrix(0.7071 0.7071 -0.7071 0.7071 277.0907 -95.0498)" style="fill:#808080;" width="32.984" height="52.292"/>
</g>
<polygon style="fill:#4D4D4D;" points="324.388,321.066 287.413,358.053 246.456,317.097 283.432,280.121 "/>
<g>
	<path style="fill:#B3B3B3;" d="M207.49,391.048l-23.053,17.498l-29.407-46.669l27.338-27.338c-1.619,6.601,1.496,16.16,6.016,25.55
		C195.952,375.81,207.49,391.048,207.49,391.048z"/>
	<polygon style="fill:#B3B3B3;" points="145.999,370.907 111.408,405.498 125.588,449.896 71.913,503.571 15.46,464.605 
		127.579,352.486 	"/>
</g>
<g>
	<path style="fill:#333333;" d="M85.168,419.807l-36.18,36.18c-3.294,3.294-3.294,8.634,0,11.927
		c1.646,1.646,3.806,2.471,5.964,2.471s4.317-0.823,5.964-2.471l36.18-36.18c3.294-3.294,3.294-8.634,0-11.927
		C93.801,416.513,88.461,416.513,85.168,419.807z"/>
	<path style="fill:#333333;" d="M501.739,221.789l-112.814-88.241l12.331-12.331c1.735-1.735,2.629-4.142,2.447-6.59l-1.843-24.766
		l75.464-75.464c3.294-3.294,3.294-8.633,0-11.927c-3.294-3.294-8.634-3.294-11.927,0l-29.024,29.024l-16.302-16.302
		c-3.294-3.294-8.634-3.294-11.927,0c-3.294,3.294-3.294,8.634,0,11.927l16.302,16.302L286.809,181.058
		c-0.515,0.02-1.031,0.071-1.543,0.188l-37.109,8.481c-1.546,0.353-2.962,1.137-4.084,2.258l-73.687,73.687l-5.434-5.434
		c-3.294-3.294-8.634-3.294-11.927,0c-3.294,3.294-3.294,8.634,0,11.927l5.434,5.434l-52.748,52.748
		c-3.294,3.294-3.294,8.634,0,11.927l10.073,10.073L9.493,458.638c-1.77,1.77-2.663,4.235-2.436,6.727s1.549,4.756,3.609,6.178
		l56.457,38.964c1.453,1.002,3.125,1.492,4.788,1.492c2.176,0,4.335-0.839,5.967-2.471l53.674-53.674
		c2.232-2.232,3.031-5.524,2.07-8.53l-12.616-39.501l32.512-32.513l23.779,37.729c1.261,1.999,3.302,3.378,5.627,3.801
		c0.502,0.091,1.006,0.136,1.508,0.136c1.827,0,3.62-0.594,5.098-1.715l23.06-17.494c3.71-2.814,4.436-8.101,1.625-11.812
		c-5.29-6.982-10.518-15.023-14.731-22.682l15.677-15.679c8.705-8.705,8.705-22.87,0-31.575l-1.176-1.176l9.145-9.145l58.314,58.313
		c1.646,1.646,3.806,2.471,5.964,2.471s4.317-0.823,5.964-2.471l36.976-36.976c3.294-3.294,3.294-8.634,0-11.927l-58.314-58.313
		l41.216-41.217c2.287-2.286,2.982-5.56,2.094-8.45l58.744-58.744l37.484,70.11c2.196,4.108,7.309,5.655,11.414,3.461
		c4.108-2.196,5.658-7.307,3.461-11.414l-24.099-45.075l88.995,69.61c1.543,1.207,3.374,1.791,5.191,1.791
		c2.506,0,4.985-1.112,6.65-3.239C506.056,229.96,505.409,224.659,501.739,221.789z M386.594,112.024l-82.483,82.483l-3.449-3.449
		l85.454-85.454L386.594,112.024z M105.445,399.53c-2.232,2.232-3.031,5.524-2.07,8.53l12.616,39.501l-45.07,45.071L28.578,463.41
		l99.001-99.001l6.493,6.494L105.445,399.53z M186.664,396.262L165.75,363.08l10.443-10.443c2.044,6.105,5.251,12.986,9.661,20.721
		c3.539,6.208,7.205,11.818,10.018,15.92L186.664,396.262z M192.783,312.192l-5.567-5.567l76.072-76.073l5.567,5.567
		L192.783,312.192z M203.236,327.946c1.031,1.031,1.599,2.402,1.599,3.861s-0.568,2.829-1.599,3.861l-11.237,11.237
		c-1.099-3.293-1.7-6.161-1.671-8.402l11.731-11.731L203.236,327.946z M287.41,346.12l-29.025-29.024l25.048-25.048l29.025,29.025
		L287.41,346.12z M271.506,280.12l-25.048,25.048l-11.397-11.397l25.048-25.048L271.506,280.12z M280.783,224.191l-11.53-11.53
		c-1.581-1.582-3.727-2.471-5.964-2.471c-2.237,0-4.382,0.888-5.964,2.471l-88.001,88.001c-3.294,3.294-3.294,8.634,0,11.927
		l11.53,11.53l-34.723,34.723l-22.531-22.531L254.283,205.63l30.196-6.901l10.883,10.883L280.783,224.191z"/>
</g>
</svg>