<?xml version="1.0" encoding="iso-8859-1"?>
<!-- Uploaded to: SVG Repo, www.svgrepo.com, Generator: SVG Repo Mixer Tools -->
<svg fill="#000000" height="800px" width="800px" version="1.1" id="Layer_1" xmlns="http://www.w3.org/2000/svg" xmlns:xlink="http://www.w3.org/1999/xlink" 
	 viewBox="0 0 512 512" xml:space="preserve">
<g>
	<g>
		<path d="M256,0C114.841,0,0,114.841,0,256C0,397.157,114.841,512,256,512S512,397.157,512,256C512,114.841,397.159,0,256,0z
			 M430.571,418.032L377,364.489l-12.483,12.498l54.083,53.578c-40.551,37.677-95.37,61.437-152.749,63.601V370.644h26.483v-17.655
			h-70.621v17.655h26.483v123.522c-59.586-2.164-113.222-25.916-153.773-63.595l53.315-53.569l-12.611-12.485l-53.634,53.515
			c-37.678-40.552-61.496-93.733-63.658-153.319h124.43v26.483h17.655v-70.621h-17.655v26.483H17.835
			c2.163-59.586,25.917-112.653,63.594-153.203L135,147.454l12.483-12.468L94.424,81.423
			c40.551-37.678,94.186-61.425,153.773-63.587v123.291h-26.483v17.655h70.621v-17.655h-26.483V17.836
			C323.231,19.998,378.05,43.753,418.6,81.429L364.773,135l12.355,12.483l53.508-53.628c37.677,40.55,61.367,93.616,63.529,153.203
			H371.782v-26.483h-17.655v70.621h17.655v-26.483h122.381C492.002,324.299,468.248,377.48,430.571,418.032z"/>
	</g>
</g>
<g>
	<g>
		<path d="M256,203.035c-29.207,0-52.966,23.759-52.966,52.966c0,29.206,23.759,52.965,52.966,52.965
			c29.207,0,52.966-23.759,52.966-52.965C308.966,226.794,285.207,203.035,256,203.035z M256,291.31
			c-19.47,0-35.31-15.834-35.31-35.31c0-19.47,15.841-35.31,35.31-35.31c19.47,0,35.31,15.841,35.31,35.31
			C291.31,275.476,275.47,291.31,256,291.31z"/>
	</g>
</g>
</svg>