<?xml version="1.0" encoding="iso-8859-1"?>
<!-- Uploaded to: SVG Repo, www.svgrepo.com, Generator: SVG Repo Mixer Tools -->
<svg fill="#000000" height="800px" width="800px" version="1.1" id="Layer_1" xmlns="http://www.w3.org/2000/svg" xmlns:xlink="http://www.w3.org/1999/xlink" 
	 viewBox="0 0 512 512" xml:space="preserve">
<g>
	<g>
		<path d="M482.403,328.452L380.845,226.895c0.908-1.374,1.403-2.993,1.403-4.665c0-2.244-0.891-4.396-2.478-5.983l-6.913-6.912
			c-11.07-11.07-11.07-29.08,0-40.149l21.803-21.803c3.304-3.304,3.304-8.66,0-11.964l-13.5-13.5l9.838-9.838l36.898,36.897
			c3.304,3.304,8.661,3.304,11.964,0l10.104-10.104c2.754-2.754,3.273-7.032,1.254-10.365l-28.908-47.741l49.647-49.647
			c1.587-1.586,2.478-3.738,2.478-5.982s-0.891-4.396-2.478-5.982l-16.68-16.68c-3.304-3.304-8.661-3.304-11.964,0l-42.609,42.609
			l-19.68-32.503c-1.328-2.193-3.578-3.665-6.119-4.005c-2.543-0.338-5.099,0.493-6.955,2.262L29.743,333.097
			c-2.815,2.681-3.438,6.935-1.515,10.313l23.93,42.01c1.226,2.152,3.333,3.659,5.766,4.123l69.662,13.294v-0.002
			c0.523,0.099,1.055,0.152,1.588,0.152c1.353,0,2.715-0.324,3.969-0.989l22.656-12.042l5.512,8.993
			c2.09,3.41,6.283,4.89,10.051,3.55c5.916-2.106,12.234-1.655,17.791,1.271c5.556,2.926,9.504,7.88,11.115,13.948l23.36,87.992
			c0.646,2.432,2.341,4.451,4.625,5.507c1.127,0.521,2.34,0.782,3.552,0.782c1.244,0,2.489-0.274,3.639-0.822l79.234-37.756
			c3.785-1.804,5.677-6.106,4.45-10.114l-37.389-122.135l8.974-2.676c9.959-2.97,19.106-8.424,26.454-15.773
			c11.769-11.769,18.257-27.415,18.386-43.804l98.191,98.192c1.586,1.587,3.738,2.478,5.982,2.478c2.244,0,4.396-0.891,5.982-2.478
			l36.693-36.693C485.707,337.114,485.707,331.757,482.403,328.452z M449.297,20.426l4.714,4.714l-40.725,40.725l-3.556-5.873
			L449.297,20.426z M64.93,373.653l-18.725-32.871l325.798-310.43l59.557,98.362l-70.935-70.935c-3.303-3.304-8.66-3.304-11.964,0
			L70.544,335.899c-3.304,3.304-3.304,8.661,0,11.964l33.197,33.197L64.93,373.653z M379.034,100.118l-9.838,9.838l-4.714-4.714
			l9.838-9.838L379.034,100.118z M362.354,83.438l-9.838,9.838l-7.71-7.71l9.838-9.838L362.354,83.438z M270.358,171.18
			l-36.426,36.427l-5.584-5.584l11.264-11.264l25.163-25.163L270.358,171.18z M130.728,384.118l-42.237-42.237l127.892-127.892
			l11.566,11.566c1.651,1.651,3.817,2.478,5.982,2.478c2.165,0,4.331-0.826,5.982-2.478l48.392-48.392
			c1.587-1.586,2.478-3.738,2.478-5.982c0-2.244-0.891-4.396-2.478-5.982l-11.566-11.566l56.102-56.102l43.872,43.872
			l-77.507,77.507c-0.805,0.804-1.439,1.764-1.865,2.82l-13.713,34.029L183.109,356.276L130.728,384.118z M300.813,461.283
			l-63.447,30.234l-20.746-78.142c-2.798-10.539-9.937-19.499-19.585-24.579c-7.561-3.982-16.214-5.343-24.544-3.989l-1.723-2.81
			l21.402-11.375c0.741-0.394,1.418-0.895,2.011-1.488l49.322-49.322l20.179,20.179L300.813,461.283z M305.203,310.758
			c-5.368,5.368-12.051,9.353-19.326,11.522l-12.306,3.67l-18.103-18.103l9.379-9.379c2.073,5.349,5.629,11.091,11.361,16.823
			c1.651,1.653,3.817,2.478,5.982,2.478c2.165,0,4.331-0.826,5.982-2.478c3.304-3.304,3.304-8.66,0-11.964
			c-9.087-9.088-9.171-16.463-8.678-19.505l13.919-13.919l25.173,6.387C319.171,289.15,314.39,301.571,305.203,310.758z
			 M323.878,260.175l-21.581-5.476l10.093-25.048l35.52-35.522c1.066,9.931,5.387,19.575,12.982,27.171L323.878,260.175z
			 M439.728,359.164l-95.453-95.455l24.727-24.727l95.453,95.453L439.728,359.164z"/>
	</g>
</g>
<g>
	<g>
		<path d="M273.986,228.649c-8.284-8.283-21.763-8.283-30.045,0l-28.716,28.716c-3.304,3.304-3.304,8.661,0,11.964
			c1.653,1.651,3.818,2.478,5.983,2.478c2.165,0,4.331-0.826,5.982-2.478l14.007-14.007c0.791,1.2,1.703,2.333,2.743,3.372
			c4.013,4.013,9.348,6.224,15.022,6.224c5.674,0,11.01-2.21,15.022-6.224C282.269,250.411,282.269,236.933,273.986,228.649z
			 M262.022,246.729c-1.633,1.633-4.482,1.635-6.115,0c-0.817-0.817-1.267-1.902-1.267-3.057c0-1.155,0.45-2.241,1.267-3.058
			c0.844-0.843,1.95-1.265,3.057-1.265s2.214,0.422,3.058,1.265C263.707,242.3,263.707,245.043,262.022,246.729z"/>
	</g>
</g>
<g>
	<g>
		<path d="M288.211,446.977c-2.011-4.218-7.059-6.009-11.277-3.998l-32.886,15.671c-4.219,2.01-6.008,7.058-3.998,11.277
			c1.451,3.044,4.483,4.823,7.644,4.823c1.219,0,2.459-0.265,3.633-0.825l32.886-15.671
			C288.432,456.244,290.221,451.196,288.211,446.977z"/>
	</g>
</g>
<g>
	<g>
		<path d="M279.437,417.465c-2.01-4.219-7.058-6.009-11.277-3.999l-32.888,15.671c-4.219,2.01-6.008,7.058-3.998,11.277
			c1.451,3.044,4.483,4.824,7.644,4.824c1.219,0,2.459-0.265,3.633-0.825l32.888-15.671
			C279.657,426.732,281.447,421.684,279.437,417.465z"/>
	</g>
</g>
<g>
	<g>
		<path d="M270.662,387.951c-2.009-4.219-7.058-6.009-11.277-3.999l-32.888,15.671c-4.219,2.01-6.008,7.058-3.998,11.277
			c1.451,3.044,4.483,4.824,7.644,4.824c1.219,0,2.459-0.265,3.633-0.825l32.888-15.671
			C270.882,397.218,272.672,392.17,270.662,387.951z"/>
	</g>
</g>
<g>
	<g>
		<circle cx="188.195" cy="330.184" r="8.46"/>
	</g>
</g>
</svg>