<?xml version="1.0" encoding="iso-8859-1"?>
<!-- Uploaded to: SVG Repo, www.svgrepo.com, Generator: SVG Repo Mixer Tools -->
<svg fill="#000000" height="800px" width="800px" version="1.1" id="Layer_1" xmlns="http://www.w3.org/2000/svg" xmlns:xlink="http://www.w3.org/1999/xlink" 
	 viewBox="0 0 512 512" xml:space="preserve">
<g>
	<g>
		<path d="M185.445,459.023h0.942V150.104C186.388,143.974,185.586,0,115.751,0S45.115,143.974,45.115,150.104v308.918h-1.106
			c-14.559,0-26.407,11.882-26.407,26.489c0,14.607,11.848,26.489,26.407,26.489h141.437c14.559,0,26.407-11.882,26.407-26.489
			C211.852,470.905,200.005,459.023,185.445,459.023z M114.727,17.545c40.272,0,51.404,81.673,52.814,123.614H61.909
			C63.298,99.218,74.404,17.545,114.727,17.545z M168.728,158.818v300.205H62.774V158.818H168.728z M185.445,494.341H44.009
			c-4.906,0-8.748-3.88-8.748-8.83c0-4.872,3.923-8.83,8.748-8.83h8.911h123.614h8.911c4.906,0,8.748,3.88,8.748,8.83
			C194.193,490.383,190.27,494.341,185.445,494.341z"/>
	</g>
</g>
<g>
	<g>
		<path d="M467.991,459.023h0.942V150.104C468.933,143.974,468.131,0,398.297,0S327.66,143.974,327.66,150.104v308.918h-1.106
			c-14.559,0-26.407,11.882-26.407,26.489c0,14.607,11.847,26.489,26.407,26.489h141.437c14.559,0,26.407-11.882,26.407-26.489
			C494.398,470.905,482.551,459.023,467.991,459.023z M397.273,17.545c40.272,0,51.404,81.673,52.814,123.614H344.455
			C345.843,99.218,356.949,17.545,397.273,17.545z M451.274,158.818v300.205H345.32V158.818H451.274z M467.991,494.341H326.555
			c-4.906,0-8.748-3.88-8.748-8.83c0-4.872,3.923-8.83,8.748-8.83h8.911H459.08h8.911c4.906,0,8.748,3.88,8.748,8.83
			C476.739,490.383,472.816,494.341,467.991,494.341z"/>
	</g>
</g>
</svg>