<?xml version="1.0" encoding="iso-8859-1"?>
<!-- Uploaded to: SVG Repo, www.svgrepo.com, Generator: SVG Repo Mixer Tools -->
<svg fill="#000000" height="800px" width="800px" version="1.1" id="Layer_1" xmlns="http://www.w3.org/2000/svg" xmlns:xlink="http://www.w3.org/1999/xlink" 
	 viewBox="0 0 512 512" xml:space="preserve">
<g>
	<g>
		<path d="M469.753,192.336c-5.494-52.534-30.163-101.081-69.462-136.7C360.708,19.758,309.464,0,256,0
			S151.292,19.758,111.709,55.635c-39.299,35.619-63.968,84.167-69.462,136.7l-0.579,5.54L256,512l214.332-314.124L469.753,192.336z
			 M132.111,78.145c19.005-17.226,41.143-30.118,64.994-38.141c-7.547,10.912-14.868,24.024-21.942,39.353
			c-14.141,30.642-24.153,63.469-29.542,88.693c-11.914-5.903-25.103-9.035-38.694-9.035c-9.732,0-19.257,1.606-28.256,4.681
			C88.094,131.025,106.471,101.383,132.111,78.145z M240.809,393.476L174.506,199.13c9.348-6.317,20.356-9.735,31.802-9.735
			c12.567,0,24.61,4.112,34.501,11.669V393.476z M78.037,197.278c8.686-5.129,18.609-7.883,28.888-7.883
			c13.541,0,26.472,4.77,36.759,13.482l61.827,181.225L78.037,197.278z M240.81,166.116c-10.785-4.646-22.484-7.101-34.501-7.101
			c-9.834,0-19.456,1.647-28.538,4.788c5.427-21.871,14.036-48.008,24.977-71.716c12.409-26.89,25.822-46.227,38.063-55.507V166.116
			z M379.89,78.146c25.638,23.237,44.016,52.879,53.44,85.55c-8.999-3.076-18.524-4.681-28.256-4.681
			c-13.591,0-26.78,3.132-38.694,9.035c-5.389-25.225-15.401-58.052-29.542-88.693c-7.074-15.329-14.395-28.442-21.942-39.353
			C338.747,48.028,360.885,60.921,379.89,78.146z M271.19,36.58c12.24,9.28,25.653,28.617,38.063,55.507
			c10.941,23.708,19.551,49.845,24.977,71.716c-9.083-3.14-18.704-4.788-28.538-4.788c-12.016,0-23.716,2.455-34.501,7.101V36.58z
			 M271.189,201.064h0.001c9.891-7.556,21.934-11.669,34.501-11.669c11.447,0,22.455,3.418,31.802,9.735l-66.304,194.349V201.064z
			 M306.489,384.101l61.827-181.224c10.286-8.712,23.219-13.482,36.758-13.482c10.279,0,20.203,2.753,28.888,7.883L306.489,384.101z
			"/>
	</g>
</g>
</svg>