<?xml version="1.0" encoding="iso-8859-1"?>
<!-- Uploaded to: SVG Repo, www.svgrepo.com, Generator: SVG Repo Mixer Tools -->
<svg fill="#000000" height="800px" width="800px" version="1.1" id="Layer_1" xmlns="http://www.w3.org/2000/svg" xmlns:xlink="http://www.w3.org/1999/xlink" 
	 viewBox="0 0 512 512" xml:space="preserve">
<g>
	<g>
		<path d="M509.338,141.251l-61.421-61.421l6.671-9.784c2.462-3.611,2.008-8.462-1.083-11.552c-3.092-3.089-7.94-3.546-11.552-1.084
			l-9.785,6.672L370.749,2.664c-2.408-2.408-5.958-3.269-9.2-2.231c-3.243,1.037-5.634,3.797-6.198,7.154l-20.648,122.952
			L159.816,249.783c-0.468,0.32-0.907,0.683-1.307,1.084L19.977,389.398c-2.32,2.32-4.589,5.075-6.741,8.188
			c-23.577,34.104-12.551,70.952,8.838,92.34C35.005,502.856,53.585,512,73.794,512c13.219,0,27.134-3.912,40.621-13.237
			c3.113-2.152,5.868-4.42,8.187-6.741L261.134,353.49c0.401-0.401,0.764-0.839,1.084-1.307l119.244-174.888l122.95-20.648
			c3.357-0.564,6.118-2.956,7.154-6.198C512.603,147.208,511.745,143.658,509.338,141.251z M370.366,27.999l46.512,46.512
			l-61.348,41.828L370.366,27.999z M109.744,479.164c-1.547,1.548-3.455,3.11-5.67,4.641c-27.233,18.825-54.265,8.135-69.14-6.738
			c-14.875-14.875-25.564-41.907-6.738-69.139c1.531-2.215,3.093-4.122,4.641-5.672l12.873-12.873l76.908,76.908L109.744,479.164z
			 M135.478,453.431L58.57,376.523l103.961-103.961l76.908,76.908L135.478,453.431z M251.422,335.736l-75.158-75.158l167.57-114.254
			l21.844,21.842L251.422,335.736z M376.105,152.875l-16.977-16.977l53.359-36.382L376.105,152.875z M395.662,156.472l41.828-61.348
			l46.512,46.512L395.662,156.472z"/>
	</g>
</g>
</svg>