<?xml version="1.0" encoding="iso-8859-1"?>
<!-- Uploaded to: SVG Repo, www.svgrepo.com, Generator: SVG Repo Mixer Tools -->
<svg height="800px" width="800px" version="1.1" id="Layer_1" xmlns="http://www.w3.org/2000/svg" xmlns:xlink="http://www.w3.org/1999/xlink" 
	 viewBox="0 0 512 512" xml:space="preserve">
<path style="fill:#FCBB29;" d="M256,426.072c10.264,0,18.603,8.327,18.603,18.603c0,10.276-8.339,18.603-18.603,18.603
	c-10.276,0-18.603-8.327-18.603-18.603C237.397,434.399,245.724,426.072,256,426.072z"/>
<path style="fill:#06B559;" d="M385.772,8.859v419.848L256,503.141l-129.772-74.435V8.859H385.772z M302.726,199.435l46.738-45.557
	l-64.585-9.378L256,85.975l-28.891,58.525l-64.573,9.378l46.726,45.557L198.23,263.76L256,233.381l57.758,30.379L302.726,199.435z
	 M274.603,444.675c0-10.276-8.339-18.603-18.603-18.603c-10.276,0-18.603,8.327-18.603,18.603c0,10.276,8.327,18.603,18.603,18.603
	C266.264,463.278,274.603,454.951,274.603,444.675z"/>
<polygon style="fill:#FCBB29;" points="349.463,153.879 302.726,199.435 313.758,263.76 256,233.381 198.23,263.76 209.262,199.435 
	162.536,153.879 227.109,144.501 256,85.975 284.879,144.501 "/>
<g>
	<path style="fill:#333333;" d="M256,512c-1.521,0-3.043-0.392-4.407-1.174l-129.772-74.435c-2.753-1.579-4.452-4.511-4.452-7.684
		V8.859c0-4.892,3.965-8.859,8.859-8.859h259.543c4.893,0,8.859,3.966,8.859,8.859v419.848c0,3.174-1.698,6.105-4.452,7.685
		l-129.772,74.435C259.043,511.608,257.521,512,256,512z M135.087,423.575L256,492.929l120.913-69.354V17.717H135.087V423.575z"/>
	<path style="fill:#333333;" d="M256,472.137c-15.142,0-27.461-12.319-27.461-27.461s12.319-27.461,27.461-27.461
		c15.142,0,27.461,12.319,27.461,27.461S271.142,472.137,256,472.137z M256,434.931c-5.373,0-9.744,4.371-9.744,9.744
		s4.371,9.744,9.744,9.744c5.373,0,9.744-4.371,9.744-9.744S261.373,434.931,256,434.931z"/>
	<path style="fill:#333333;" d="M198.232,272.619c-1.838,0-3.665-0.57-5.208-1.691c-2.728-1.982-4.095-5.341-3.523-8.664
		l10.244-59.736l-43.39-42.305c-2.414-2.354-3.282-5.875-2.241-9.081c1.043-3.207,3.814-5.543,7.152-6.029l59.965-8.709
		l26.828-54.35c1.493-3.024,4.572-4.937,7.944-4.937c0,0,0,0,0.001,0c3.371,0,6.451,1.915,7.943,4.938l26.818,54.349l59.975,8.709
		c3.337,0.485,6.11,2.822,7.152,6.029c1.043,3.207,0.172,6.728-2.241,9.081l-43.403,42.306l10.245,59.734
		c0.57,3.324-0.796,6.683-3.523,8.665c-2.73,1.982-6.345,2.243-9.33,0.673l-53.634-28.209l-53.647,28.21
		C201.057,272.282,199.641,272.619,198.232,272.619z M181.572,160.066l33.874,33.026c2.088,2.035,3.04,4.967,2.547,7.84
		l-7.997,46.631l41.882-22.023c2.58-1.357,5.665-1.357,8.246,0l41.868,22.021l-7.997-46.63c-0.494-2.874,0.459-5.806,2.547-7.842
		l33.883-33.026l-46.819-6.799c-2.885-0.419-5.38-2.232-6.67-4.847l-20.937-42.43l-20.945,42.431
		c-1.291,2.614-3.786,4.427-6.67,4.845L181.572,160.066z"/>
</g>
</svg>