<?xml version="1.0" encoding="iso-8859-1"?>
<!-- Uploaded to: SVG Repo, www.svgrepo.com, Generator: SVG Repo Mixer Tools -->
<svg height="800px" width="800px" version="1.1" id="Layer_1" xmlns="http://www.w3.org/2000/svg" xmlns:xlink="http://www.w3.org/1999/xlink" 
	 viewBox="0 0 511.999 511.999" xml:space="preserve">
<g>
	<polygon style="fill:#808080;" points="406.714,153.527 416.373,143.879 460.969,188.474 440.638,208.794 396.042,164.199 	"/>
	<polygon style="fill:#808080;" points="287.685,124.95 219.083,193.552 160.139,252.495 142.352,234.709 269.898,107.163 	"/>
	<path style="fill:#808080;" d="M335.45,124.95l49.802-49.802l18.293,18.293l-28.458,28.458l-93.978,93.978
		c-3.665,3.665-9.605,3.665-13.27,0l-11.664-11.653l10.672-10.672L335.45,124.95z"/>
</g>
<polygon style="fill:#999999;" points="335.45,124.95 266.847,193.552 219.083,193.552 287.685,124.95 "/>
<path style="fill:#666666;" d="M301.407,372.43l-25.667,53.101l-86.13-49.544l-0.194-0.119c8.742-15.135,21.107-31.466,38.311-48.67
	L301.407,372.43z"/>
<path style="fill:#B3B3B3;" d="M389.316,136.128l-46.245,46.245l4.247,36.877c-2.307-8.473-13.184-11.674-19.695-5.163
	l-23.985,23.985c-3.223,3.223-4.301,8.02-2.77,12.31l18.401,51.387c3.978,11.103,18.175,14.294,26.518,5.95l-36.759,36.759
	c-19.759-19.759-28.502-41.998-31.983-61.196c-2.124-11.653-17.69-14.175-23.36-3.773l-25.958,47.689
	c-17.204,17.204-29.569,33.536-38.311,48.67c-21.322,36.867-21.225,66.673-17.614,84.826c2.706,13.582-1.52,27.607-11.319,37.406
	c-3.838,3.838-8.936,5.821-14.068,5.821c-3.816,0-7.664-1.1-11.028-3.342l-85.16-56.766c-10.435-6.964-11.901-21.743-3.029-30.614
	l208.976-208.976l11.664,11.653c3.665,3.665,9.605,3.665,13.27,0l93.978-93.978L389.316,136.128z"/>
<path style="fill:#333333;" d="M476.342,2.368c-3.158-3.157-8.277-3.157-11.434,0l-70.507,70.507l-3.43-3.43
	c-3.158-3.157-8.277-3.157-11.434,0l-47.432,47.432h-41.069l-15.417-15.417c-1.517-1.516-3.572-2.368-5.718-2.368
	s-4.2,0.852-5.718,2.368L136.635,229.007c-3.157,3.157-3.157,8.277,0,11.433l17.785,17.785c1.517,1.517,3.572,2.368,5.718,2.368
	s4.2-0.852,5.718-2.368l56.578-56.578h24.899L41.484,407.496c-5.949,5.949-8.885,14.163-8.057,22.535
	c0.829,8.373,5.32,15.852,12.32,20.518l85.16,56.774c4.713,3.141,10.114,4.676,15.487,4.676c7.233,0,14.418-2.782,19.809-8.172
	c11.709-11.71,16.767-28.422,13.527-44.703c-5.11-25.683,1.723-50.514,12.908-72.062l79.074,45.485
	c1.237,0.713,2.629,1.077,4.031,1.077c0.801,0,1.604-0.119,2.384-0.359c2.144-0.662,3.918-2.186,4.895-4.207l25.663-53.103
	c1.807-3.737,0.488-8.237-3.05-10.408l-67.143-41.212l22.296-40.953c1.36-2.499,3.677-2.42,4.609-2.27
	c0.938,0.151,3.176,0.806,3.688,3.622c4.599,25.332,16.114,47.361,34.223,65.471c1.517,1.517,3.572,2.368,5.718,2.368
	s4.2-0.852,5.718-2.368l47.259-47.259c1.744-1.744,2.596-4.19,2.314-6.64l-12.765-110.964l37.764-37.765l5.967,5.967l-4.954,4.954
	c-1.516,1.516-2.367,3.572-2.367,5.716c0,2.144,0.852,4.201,2.367,5.716l44.596,44.595c1.517,1.517,3.572,2.368,5.718,2.368
	c2.145,0,4.2-0.852,5.718-2.368l20.325-20.326c3.157-3.157,3.157-8.277,0-11.433l-44.595-44.596
	c-1.517-1.516-3.572-2.368-5.718-2.368c-2.145,0-4.2,0.852-5.718,2.368l-3.938,3.938l-11.683-11.683l-8.512-8.512l22.74-22.74
	c1.516-1.516,2.367-3.572,2.367-5.716s-0.852-4.201-2.367-5.716l-3.43-3.43l70.507-70.507
	C479.498,10.644,479.498,5.525,476.342,2.368z M449.535,188.482l-8.892,8.893l-33.163-33.162l8.893-8.893L449.535,188.482z
	 M160.138,241.076l-6.352-6.352L269.9,118.609l6.352,6.352L160.138,241.076z M291.035,133.046h24.899l-52.431,52.431h-24.899
	L291.035,133.046z M272.245,414.199l-71.499-41.128c8.985-14.048,19.282-26.196,28.25-35.594l61.95,38.024L272.245,414.199z
	 M340.062,302.019c-1.977,1.972-4.669,2.751-7.4,2.141c-2.73-0.613-4.837-2.475-5.78-5.11l-18.397-51.387
	c-0.48-1.339-0.14-2.853,0.867-3.859l23.988-23.989c1.476-1.476,3.165-1.107,3.82-0.881c0.672,0.232,1.731,0.806,2.225,2.11
	l8.424,73.23L340.062,302.019z M337.359,176.667c-1.744,1.744-2.596,4.19-2.314,6.64l2.22,19.292
	c-5.635-0.39-11.212,1.636-15.357,5.78l-23.988,23.989c-5.406,5.404-7.233,13.547-4.657,20.745l18.398,51.387
	c2.181,6.091,6.612,10.922,12.287,13.634l-14.713,14.713c-12.583-14.542-20.725-31.663-24.236-51.005
	c-1.587-8.735-8.271-15.289-17.029-16.697c-8.753-1.406-17.14,2.716-21.378,10.503l-25.411,46.675
	c-26.587,26.782-44.484,54.28-53.198,81.746c-7.969,25.116-6.632,45.516-4.107,58.208c2.182,10.974-1.22,22.232-9.102,30.115
	c-3.965,3.965-10.228,4.585-14.893,1.476l-85.16-56.774c-2.954-1.969-4.849-5.125-5.198-8.658c-0.349-3.533,0.889-6.998,3.4-9.509
	l203.259-203.26l5.94,5.94c3.301,3.3,7.688,5.117,12.355,5.117s9.054-1.817,12.355-5.118l88.261-88.261l2.795,2.795L337.359,176.667
	z M275.394,210.174c-0.315,0.315-0.675,0.382-0.921,0.382c-0.247,0-0.607-0.067-0.921-0.382l-5.939-5.94L385.253,86.595l6.86,6.86
	L275.394,210.174z"/>
</svg>