<?xml version="1.0" encoding="iso-8859-1"?>
<!-- Uploaded to: SVG Repo, www.svgrepo.com, Generator: SVG Repo Mixer Tools -->
<svg fill="#000000" height="800px" width="800px" version="1.1" id="Layer_1" xmlns="http://www.w3.org/2000/svg" xmlns:xlink="http://www.w3.org/1999/xlink" 
	 viewBox="0 0 511.997 511.997" xml:space="preserve">
<g>
	<g>
		<path d="M460.954,91.172c-12.985-12.985-33.186-14.448-47.811-4.408c0.192-2.269,0.307-4.553,0.307-6.856
			c0-21.344-8.312-41.411-23.404-56.503C374.954,8.312,354.887,0,333.543,0c-21.343,0-41.41,8.312-56.503,23.405
			c-15.092,15.092-23.404,35.159-23.404,56.503c0,21.344,8.312,41.411,23.404,56.503c15.093,15.092,35.16,23.405,56.503,23.405
			c1.971,0,3.927-0.094,5.874-0.236l-13.758,13.758l-4.954-4.954c-1.821-1.821-4.29-2.844-6.866-2.844
			c-2.576,0-5.043,1.023-6.866,2.844l-19.734,19.735c-15.932-6.336-33.08-9.662-50.742-9.662c-36.637,0-71.082,14.268-96.99,40.175
			l-22.772,22.772l-4.024-4.024c-3.793-3.792-9.939-3.792-13.73,0s-3.792,9.939,0,13.729l4.024,4.024l-22.773,22.773
			c-25.907,25.906-40.174,60.352-40.174,96.989s14.266,71.083,40.174,96.989c26.741,26.74,61.865,40.11,96.99,40.11
			c35.125,0,70.251-13.371,96.99-40.11l22.773-22.773l6.853,6.853c1.896,1.895,4.382,2.844,6.866,2.844
			c2.484,0,4.969-0.948,6.866-2.844c3.791-3.792,3.791-9.939,0-13.729l-6.853-6.853l22.773-22.773
			c33.278-33.278,45.842-79.542,37.705-122.633c9.808,17.409,15.059,37.121,15.059,57.649c0,31.452-12.248,61.021-34.488,83.26
			l-59.276,59.276c-3.792,3.792-3.792,9.939,0,13.729c1.896,1.895,4.382,2.844,6.866,2.844s4.969-0.948,6.866-2.844l59.276-59.276
			c25.907-25.907,40.174-60.352,40.174-96.99c0-33.615-12.018-65.377-34.007-90.399l12.08-12.08c1.82-1.82,2.843-4.29,2.843-6.865
			s-1.023-5.045-2.843-6.865l-4.954-4.954l43.792-43.792l11.342,11.342c1.895,1.896,4.38,2.844,6.865,2.844
			c2.484,0,4.969-0.948,6.866-2.844c3.792-3.792,3.792-9.939-0.001-13.729l-11.341-11.341l24.647-24.647
			C475.601,129.654,475.601,105.82,460.954,91.172z M333.543,140.4c-16.156-0.001-31.348-6.292-42.773-17.719
			c-11.426-11.426-17.719-26.617-17.719-42.774s6.291-31.348,17.719-42.773c11.425-11.425,26.617-17.717,42.773-17.717
			c16.157,0,31.349,6.292,42.773,17.717c11.426,11.425,17.719,26.617,17.719,42.773c0,12.872-4.005,25.124-11.407,35.354
			l-10.787-10.787c-3.791-3.79-9.939-3.792-13.729,0c-3.793,3.792-3.793,9.939-0.001,13.73l10.787,10.788
			C358.668,136.395,346.416,140.4,333.543,140.4z M260.482,458.161c-45.907,45.908-120.609,45.909-166.519,0
			c-22.24-22.24-34.488-51.808-34.488-83.26c0-31.452,12.248-61.02,34.488-83.26l22.772-22.774l166.52,166.52L260.482,458.161z
			 M319.759,398.883l-22.774,22.773l-166.52-166.52l22.773-22.773c22.957-22.957,53.103-34.433,83.26-34.433
			c30.148,0,60.308,11.481,83.259,34.433C365.667,278.273,365.667,352.972,319.759,398.883z M354.965,246.468
			c-5.804-9.947-12.959-19.317-21.475-27.835c-8.435-8.433-17.777-15.625-27.803-21.501l8.153-8.153l49.307,49.306L354.965,246.468z
			 M447.224,130.57l-82.166,82.166L339.39,187.07l82.168-82.168c7.076-7.076,18.589-7.077,25.667,0
			C454.301,111.979,454.301,123.493,447.224,130.57z"/>
	</g>
</g>
</svg>