<?xml version="1.0" encoding="iso-8859-1"?>
<!-- Uploaded to: SVG Repo, www.svgrepo.com, Generator: SVG Repo Mixer Tools -->
<svg height="800px" width="800px" version="1.1" id="Layer_1" xmlns="http://www.w3.org/2000/svg" xmlns:xlink="http://www.w3.org/1999/xlink" 
	 viewBox="0 0 512 512" xml:space="preserve">
<circle style="fill:#048F46;" cx="256" cy="256" r="256"/>
<circle style="fill:#FFAC00;" cx="256" cy="256" r="112.494"/>
<path style="fill:#3DDB86;" d="M256,0C114.615,0,0,114.615,0,256s114.615,256,256,256V0z"/>
<path style="fill:#FFD68B;" d="M256,143.509c-62.126,0-112.49,50.364-112.49,112.491S193.873,368.49,256,368.491V143.509z"/>
<polygon style="fill:#424242;" points="469.427,271.673 469.427,240.327 271.667,240.327 271.667,215.429 296.333,215.429 
	296.333,184.082 271.667,184.082 271.667,102.938 296.333,102.938 296.333,71.591 271.667,71.591 271.667,42.567 240.32,42.567 
	240.32,71.591 215.653,71.591 215.653,102.938 240.32,102.938 240.32,184.082 215.653,184.082 215.653,215.429 240.32,215.429 
	240.32,240.327 42.56,240.327 42.56,271.673 240.32,271.673 240.32,296.571 215.653,296.571 215.653,327.918 240.32,327.918 
	240.32,409.062 215.653,409.062 215.653,440.409 240.32,440.409 240.32,469.433 271.667,469.433 271.667,440.409 296.333,440.409 
	296.333,409.062 271.667,409.062 271.667,327.918 296.333,327.918 296.333,296.571 271.667,296.571 271.667,271.673 "/>
</svg>