<?xml version="1.0" encoding="iso-8859-1"?>
<!-- Uploaded to: SVG Repo, www.svgrepo.com, Generator: SVG Repo Mixer Tools -->
<svg fill="#000000" version="1.1" id="Layer_1" xmlns="http://www.w3.org/2000/svg" xmlns:xlink="http://www.w3.org/1999/xlink" 
	 viewBox="0 0 512 512" xml:space="preserve">
<g>
	<g>
		<path d="M384.81,187.334L512,60.145l-21.511-21.511l-127.19,127.189l-18.73-18.731l-37.508,37.509l-18.297-18.297l8.021-8.021
			c7.876-7.876,12.214-18.347,12.214-29.486c0-11.138-4.338-21.611-12.213-29.486c-7.876-7.876-18.347-12.213-29.486-12.213
			c-11.138,0-21.611,4.337-29.486,12.213l-8.022,8.022l-14.341-14.341L0,308.446l164.921,164.92l215.452-215.452l-14.341-14.341
			l37.508-37.508L384.81,187.334z M259.327,120.822c2.131-2.13,4.963-3.303,7.975-3.303c3.012,0,5.844,1.172,7.974,3.303
			c2.13,2.131,3.304,4.963,3.304,7.975c0,3.012-1.173,5.845-3.304,7.975l-8.021,8.021l-4.568-4.567l-11.382-11.382L259.327,120.822z
			 M164.921,430.344L43.022,308.446l172.43-172.431l34.912,34.911l35.186,35.186l16.889,16.889l34.912,34.912L164.921,430.344z
			 M344.523,222.062l-11.382-11.381l-4.568-4.568l15.997-15.997l15.949,15.95L344.523,222.062z"/>
	</g>
</g>
<g>
	<g>
		
			<rect x="236.73" y="204.663" transform="matrix(0.7071 -0.7071 0.7071 0.7071 -82.7796 243.0036)" width="30.421" height="33.524"/>
	</g>
</g>
<g>
	<g>
		
			<rect x="201.655" y="169.592" transform="matrix(0.7071 -0.7071 0.7071 0.7071 -68.2536 207.9289)" width="30.421" height="33.524"/>
	</g>
</g>
<g>
	<g>
		
			<rect x="271.801" y="239.738" transform="matrix(0.7071 -0.7071 0.7071 0.7071 -97.3095 278.0752)" width="30.421" height="33.524"/>
	</g>
</g>
<g>
	<g>
		
			<rect x="167.24" y="204.009" transform="matrix(0.7071 -0.7071 0.7071 0.7071 -102.6701 193.6744)" width="30.421" height="33.524"/>
	</g>
</g>
<g>
	<g>
		
			<rect x="202.323" y="239.09" transform="matrix(0.7071 -0.7071 0.7071 0.7071 -117.2003 228.7567)" width="30.421" height="33.524"/>
	</g>
</g>
<g>
	<g>
		
			<rect x="237.382" y="274.155" transform="matrix(0.7071 -0.7071 0.7071 0.7071 -131.7272 263.8177)" width="30.421" height="33.524"/>
	</g>
</g>
<g>
	<g>
		
			<rect x="132.815" y="238.424" transform="matrix(0.7071 -0.7071 0.7071 0.7071 -137.0878 179.412)" width="30.421" height="33.524"/>
	</g>
</g>
<g>
	<g>
		
			<rect x="167.881" y="273.507" transform="matrix(0.7071 -0.7071 0.7071 0.7071 -151.6249 214.4832)" width="30.421" height="33.524"/>
	</g>
</g>
<g>
	<g>
		
			<rect x="202.953" y="308.572" transform="matrix(0.7071 -0.7071 0.7071 0.7071 -166.1478 249.5531)" width="30.421" height="33.524"/>
	</g>
</g>
</svg>