<?xml version="1.0" encoding="iso-8859-1"?>
<!-- Uploaded to: SVG Repo, www.svgrepo.com, Generator: SVG Repo Mixer Tools -->
<svg height="800px" width="800px" version="1.1" id="Layer_1" xmlns="http://www.w3.org/2000/svg" xmlns:xlink="http://www.w3.org/1999/xlink" 
	 viewBox="0 0 512 512" xml:space="preserve">
<polygon style="fill:#424242;" points="453.333,83.286 283.526,153.5 295.521,182.461 465.33,112.247 "/>
<polygon style="fill:#048F46;" points="427.425,187.753 43.994,187.753 43.994,246.045 43.994,263.278 460.42,263.278 
	460.42,246.045 "/>
<path style="fill:#C2C2C2;" d="M341.394,216.899v-29.731c0-40.928-33.178-74.106-74.106-74.106h-69.165
	c-40.928,0-74.106,33.178-74.106,74.106V216.9h217.377V216.899z"/>
<path style="fill:#EAEAEA;" d="M331.655,150.461c-12.765-22.334-36.798-37.399-64.366-37.399h-69.165
	c-27.567,0-51.601,15.065-64.366,37.399H331.655z"/>
<polygon style="fill:#424242;" points="43.994,246.045 0,302.677 43.994,359.308 423.929,359.309 512,246.045 "/>
<path style="fill:#C2C2C2;" d="M382.013,289.904c-32.257,0-59.371,22.009-67.154,51.829c-7.783-29.82-34.896-51.829-67.154-51.829
	s-59.371,22.009-67.154,51.829c-7.783-29.82-34.896-51.829-67.154-51.829c-38.331,0-69.405,31.074-69.405,69.405
	s31.074,69.405,69.405,69.405c32.257,0,59.371-22.009,67.154-51.829c7.783,29.82,34.896,51.829,67.154,51.829
	s59.371-22.009,67.154-51.829c7.783,29.82,34.896,51.829,67.154,51.829c38.331,0,69.405-31.074,69.405-69.405
	C451.418,320.977,420.345,289.904,382.013,289.904z"/>
<path style="fill:#EAEAEA;" d="M382.013,289.904c-32.257,0-59.371,22.009-67.154,51.829c-7.783-29.82-34.896-51.829-67.154-51.829
	s-59.371,22.009-67.154,51.829c-7.783-29.82-34.896-51.829-67.154-51.829c-38.331,0-69.405,31.074-69.405,69.405h407.424
	C451.418,320.977,420.345,289.904,382.013,289.904z"/>
<g>
	<path style="fill:#424242;" d="M113.398,328.018c-17.254,0-31.291,14.036-31.291,31.29c0,17.254,14.037,31.291,31.291,31.291
		s31.291-14.037,31.291-31.291C144.689,342.054,130.652,328.018,113.398,328.018z"/>
	<path style="fill:#424242;" d="M247.706,328.018c-17.254,0-31.29,14.036-31.29,31.29c0,17.254,14.037,31.291,31.29,31.291
		s31.29-14.037,31.29-31.291C278.996,342.054,264.959,328.018,247.706,328.018z"/>
	<path style="fill:#424242;" d="M382.013,328.018c-17.254,0-31.291,14.036-31.291,31.29c0,17.254,14.037,31.291,31.291,31.291
		c17.254,0,31.291-14.037,31.291-31.291C413.304,342.054,399.267,328.018,382.013,328.018z"/>
</g>
<g>
	<path style="fill:#707070;" d="M144.689,359.308L144.689,359.308c0-17.254-14.037-31.29-31.291-31.29s-31.291,14.036-31.291,31.29
		l0,0H144.689z"/>
	<path style="fill:#707070;" d="M278.996,359.308L278.996,359.308c0-17.254-14.037-31.29-31.29-31.29s-31.29,14.036-31.29,31.29l0,0
		H278.996z"/>
	<path style="fill:#707070;" d="M413.304,359.308L413.304,359.308c0-17.254-14.037-31.29-31.291-31.29
		c-17.254,0-31.291,14.036-31.291,31.29l0,0H413.304z"/>
</g>
<polygon style="fill:#3DDB86;" points="427.425,187.753 43.994,187.753 43.994,216.899 443.922,216.899 "/>
</svg>