<?xml version="1.0" encoding="iso-8859-1"?>
<!-- Uploaded to: SVG Repo, www.svgrepo.com, Generator: SVG Repo Mixer Tools -->
<svg fill="#000000" height="800px" width="800px" version="1.1" id="Layer_1" xmlns="http://www.w3.org/2000/svg" xmlns:xlink="http://www.w3.org/1999/xlink" 
	 viewBox="0 0 512 512" xml:space="preserve">
<g>
	<g>
		<path d="M256,0C114.845,0,0,114.841,0,256c0,141.159,114.845,256,256,256c141.155,0,256-114.841,256-256
			C512,114.841,397.155,0,256,0z M248.196,17.835v26.5C137.851,48.861,48.86,136.712,44.336,247.057H17.834
			C22.39,123.471,122.403,22.39,248.196,17.835z M248.196,494.165C122.403,489.61,22.39,388.299,17.834,264.712h26.502
			c4.524,110.345,93.515,198.427,203.86,202.951V494.165z M248.196,449.998c-101.517-4.501-181.694-85.975-186.194-185.286h186.194
			V449.998z M248.196,247.057L248.196,247.057H62.002c4.5-99.31,84.677-180.554,186.194-185.055V247.057z M265.851,17.835
			C389.438,22.39,489.61,123.471,494.164,247.057h-26.5c-4.526-110.345-93.675-198.196-201.813-202.722V17.835z M265.851,62.002
			c99.31,4.501,179.646,85.745,184.147,185.055H265.851V62.002z M265.851,264.712h184.147
			c-4.5,99.31-84.836,180.785-184.147,185.286V264.712z M265.851,494.165v-26.501c108.138-4.525,197.287-92.607,201.813-202.951
			h26.5C489.61,388.299,389.438,489.61,265.851,494.165z"/>
	</g>
</g>
</svg>