<?xml version="1.0" encoding="iso-8859-1"?>
<!-- Uploaded to: SVG Repo, www.svgrepo.com, Generator: SVG Repo Mixer Tools -->
<svg fill="#000000" height="800px" width="800px" version="1.1" id="Layer_1" xmlns="http://www.w3.org/2000/svg" xmlns:xlink="http://www.w3.org/1999/xlink" 
	 viewBox="0 0 512 512" xml:space="preserve">
<g>
	<g>
		<path d="M446.713,86.809l61.162-61.162L486.353,4.125l-61.162,61.162L359.903,0l-44.134,127.702L152.654,234.473L25.862,361.266
			C9.185,377.944,0,400.117,0,423.701c0,23.586,9.185,45.76,25.862,62.436C42.54,502.815,64.713,512,88.299,512
			c23.585,0,45.759-9.185,62.435-25.862l125.681-125.681l1.112-1.111L384.298,196.23L512,152.097L446.713,86.809z M372.779,55.922
			l30.888,30.888l-52.234,52.234l-5.485-5.485L372.779,55.922z M129.212,464.616c-10.928,10.929-25.458,16.947-40.913,16.947
			c-15.455,0-29.986-6.019-40.914-16.947c-10.928-10.928-16.947-25.458-16.947-40.914c0-15.454,6.019-29.985,16.947-40.913
			l17.935-17.935l81.828,81.828L129.212,464.616z M168.669,425.159l-81.828-81.828l75.463-75.463l81.828,81.828L168.669,425.159z
			 M263.176,325.695l-76.87-76.87l140.135-91.729l28.465,28.465L263.176,325.695z M378.441,166.052l-5.485-5.485l52.234-52.234
			l30.888,30.888L378.441,166.052z"/>
	</g>
</g>
</svg>