<?xml version="1.0" encoding="iso-8859-1"?>
<!-- Uploaded to: SVG Repo, www.svgrepo.com, Generator: SVG Repo Mixer Tools -->
<svg fill="#000000" height="800px" width="800px" version="1.1" id="Layer_1" xmlns="http://www.w3.org/2000/svg" xmlns:xlink="http://www.w3.org/1999/xlink" 
	 viewBox="0 0 512 512" xml:space="preserve">
<g>
	<g>
		<path d="M393.391,134.098l-27.86-27.86l84.668-84.668L428.63,0l-24.694,24.694l-12.203-12.203l-21.571,21.57l12.203,12.204
			l-38.404,38.404l-10.784,10.784L229.482,199.147l-63.18,63.18l-12.203-12.203l-21.57,21.57l12.203,12.203l-84.75,84.75
			l15.131,15.131L5.536,453.355L82.031,512l73.158-73.158l-17.396-30.432l30.856-30.856c2.707,7.178,3.212,15.15,1.173,22.787
			l-3.93,14.722l70.937,19.007l3.938-14.75c8.832-33.087,1.684-68.339-18.615-95.269l15.07-15.07l79.159,79.158l56.808-56.808
			l-79.158-79.158l15.807-15.807l-9.357-9.357l71.34-71.34l40.36,40.36l-25.072,25.068l21.57,21.57l25.069-25.069l51.145,51.145
			l21.57-21.57L393.391,134.098z M312.04,313.32l18.01,18.01l-13.669,13.669l-18.01-18.01L312.04,313.32z M79.369,471.523
			l-27.656-21.204l44.972-44.972l9.858,9.857l10.6,18.546L79.369,471.523z M213.808,396.321l-12.268-3.287
			c0.442-13.432-3.125-26.754-10.215-38.154l8.972-8.972C210.255,360.703,215.027,378.507,213.808,396.321z M215.652,287.41
			l-17.86,17.861l-48.366,48.365l-30.657,30.657l-15.647-15.648l147.929-147.928l3.145,3.145l12.502,12.502l-28.871,28.871
			L215.652,287.41z M276.802,305.42l-18.01-18.01l13.669-13.669l18.01,18.01L276.802,305.42z M278.912,205.437l-6.29-6.29
			l71.339-71.34l6.29,6.29L278.912,205.437z"/>
	</g>
</g>
</svg>