<?xml version="1.0" encoding="iso-8859-1"?>
<!-- Uploaded to: SVG Repo, www.svgrepo.com, Generator: SVG Repo Mixer Tools -->
<svg fill="#000000" height="800px" width="800px" version="1.1" id="Layer_1" xmlns="http://www.w3.org/2000/svg" xmlns:xlink="http://www.w3.org/1999/xlink" 
	 viewBox="0 0 512 512" xml:space="preserve">
<g>
	<g>
		<path d="M256,0C114.841,0,0,114.841,0,256c0,141.159,114.841,256,256,256s256-114.841,256-256C512,114.841,397.159,0,256,0z
			 M81.429,93.855L135,147.454l12.483-12.468L93.912,81.423c42.563-39.547,99.545-63.77,162.088-63.77
			c62.542,0,119.525,24.231,162.087,63.777L364.517,135L377,147.483l53.57-53.628c37.678,40.549,61.432,93.616,63.594,153.203
			H308.216C304,222.781,282.198,202.919,256,202.919s-48,19.862-52.216,44.138H17.835C19.998,187.471,43.752,134.404,81.429,93.855z
			 M291.31,256c0,19.47-15.84,35.31-35.31,35.31c-19.47,0-35.31-15.84-35.31-35.31c0-19.47,15.841-35.31,35.31-35.31
			C275.47,220.69,291.31,236.53,291.31,256z M430.57,418.03L377,364.488l-12.483,12.498l53.57,53.578
			C375.525,470.11,318.542,494.342,256,494.342c-62.543,0-119.526-24.224-162.088-63.771L147.483,377L135,364.517L81.429,418.03
			c-37.677-40.551-61.431-93.732-63.594-153.318h185.948C208,288.988,229.802,308.85,256,308.85s48-19.862,52.216-44.138h185.948
			C492.002,324.299,468.248,377.48,430.57,418.03z"/>
	</g>
</g>
</svg>