<?xml version="1.0" encoding="iso-8859-1"?>
<!-- Uploaded to: SVG Repo, www.svgrepo.com, Generator: SVG Repo Mixer Tools -->
<svg version="1.1" id="Layer_1" xmlns="http://www.w3.org/2000/svg" xmlns:xlink="http://www.w3.org/1999/xlink" 
	 viewBox="0 0 511.996 511.996" xml:space="preserve">
<g>
	
		<rect x="329.403" y="1.881" transform="matrix(-0.7071 0.7071 -0.7071 -0.7071 612.6118 -187.178)" style="fill:#424242;" width="31.338" height="62.812"/>
	
		<rect x="104.668" y="215.52" transform="matrix(-0.7071 0.7071 -0.7071 -0.7071 398.1537 297.4575)" style="fill:#424242;" width="65.606" height="31.338"/>
	
		<rect x="220.746" y="290.088" transform="matrix(-0.7071 0.7071 -0.7071 -0.7071 630.3918 380.3882)" style="fill:#424242;" width="31.338" height="61.329"/>
	<path style="fill:#424242;" d="M289.421,376.165l-51.837,51.837l-22.159-22.159l51.837-51.837
		c19.403-19.403,19.403-50.973,0-70.376l-18.544-18.544l22.159-22.159l18.544,18.544
		C321.043,293.093,321.043,344.544,289.421,376.165z"/>
</g>
<g>
	<path style="fill:#C2C2C2;" d="M136.976,209.53c18.993,18.993,18.993,49.787,0,68.78c-42.15,42.15-42.15,110.488,0,152.638
		l81.048,81.048l76.319-76.319l-89.541-89.541l115.579-115.579L218.166,128.341L136.976,209.53z"/>
	
		<rect x="222.09" y="64.011" transform="matrix(0.7071 -0.7071 0.7071 0.7071 28.8664 253.1275)" style="fill:#C2C2C2;" width="195.79" height="55.416"/>
</g>
<rect x="278.392" y="147.623" transform="matrix(-0.7071 0.7071 -0.7071 -0.7071 694.8965 38.7494)" style="fill:#8F8F8F;" width="122.062" height="31.338"/>
<path style="fill:#EAEAEA;" d="M270.354,180.53l-52.189-52.189l-81.189,81.189c18.993,18.993,18.993,49.786,0,68.779
	c-18.647,18.647-29.038,42.422-31.186,66.785L270.354,180.53z"/>
<g>
	
		<rect x="173.004" y="189.587" transform="matrix(-0.7071 0.7071 -0.7071 -0.7071 502.567 202.3426)" style="fill:#8F8F8F;" width="72.746" height="31.338"/>
	
		<rect x="210.009" y="226.608" transform="matrix(-0.7071 0.7071 -0.7071 -0.7071 591.9172 239.3746)" style="fill:#8F8F8F;" width="72.746" height="31.338"/>
</g>
<path style="fill:#FFAC00;" d="M204.801,346.136l-67.826-67.826c-42.15,42.15-42.15,110.489,0,152.638l81.048,81.048l76.319-76.319
	L204.801,346.136z"/>
<path style="fill:#FFD68B;" d="M215.66,356.994l-10.858-10.858l-67.826-67.826c-42.15,42.15-42.15,110.489,0,152.638l2.364,2.364
	L215.66,356.994z"/>
</svg>