<?xml version="1.0" encoding="iso-8859-1"?>
<!-- Uploaded to: SVG Repo, www.svgrepo.com, Generator: SVG Repo Mixer Tools -->
<svg version="1.1" id="Layer_1" xmlns="http://www.w3.org/2000/svg" xmlns:xlink="http://www.w3.org/1999/xlink" 
	 viewBox="0 0 512 512" xml:space="preserve">
<path style="fill:#048F46;" d="M262.445,365.604c20.044-20.043,25.95-48.843,17.768-74.074c-0.057-0.166-0.107-0.332-0.162-0.498
	c-3.188-9.658-0.947-20.712,6.731-28.393l0.023-0.022l27.829-27.828l33.518-33.517l-37.425-37.425l-33.518,33.517l0,0
	l-27.828,27.829l-0.022,0.023c-7.667,7.667-18.698,9.913-28.342,6.747c-0.184-0.061-0.37-0.115-0.553-0.179
	c-25.229-8.179-54.028-2.273-74.07,17.77L6.241,389.707c-8.322,8.322-8.322,21.817,0.001,30.139l85.912,85.912
	c8.321,8.323,21.815,8.323,30.138,0.002L262.445,365.604z"/>
<path style="fill:#3DDB86;" d="M329.44,182.558l-18.712-18.712l-33.518,33.517l0,0l-27.828,27.829l-0.022,0.023
	c-7.667,7.667-18.698,9.913-28.342,6.747c-0.184-0.061-0.37-0.115-0.553-0.179c-25.229-8.179-54.028-2.273-74.07,17.77
	L6.241,389.707c-8.322,8.322-8.322,21.817,0.001,30.139l42.956,42.956L329.44,182.558z"/>
<path style="fill:#EE2712;" d="M506.369,5.631c0,0-93.893-24.038-145.146,27.216c-32.565,32.565-32.565,85.364,0.001,117.929
	c32.565,32.565,85.364,32.566,117.929,0.001C530.406,99.523,506.369,5.631,506.369,5.631z"/>
<g>
	<path style="fill:#FFAC00;" d="M420.189,122.386c-8.168,0-15.847-3.18-21.621-8.956c-11.922-11.922-11.922-31.319-0.001-43.24
		c14.363-14.362,39.084-17.376,57.294-17.376c1.116,0,2.216,0.01,3.305,0.032c0.402,21.404-3.077,46.304-17.359,60.586
		c-5.774,5.775-13.452,8.955-21.617,8.955C420.189,122.386,420.19,122.386,420.189,122.386z"/>
	
		<rect x="286.218" y="175.615" transform="matrix(-0.7071 -0.7071 0.7071 -0.7071 392.8425 561.3531)" style="fill:#FFAC00;" width="52.926" height="47.402"/>
</g>
<rect x="69.811" y="319.274" transform="matrix(-0.7071 -0.7071 0.7071 -0.7071 4.614 722.1589)" style="fill:#C2C2C2;" width="164.12" height="81.7"/>
<rect x="81.827" y="290.265" transform="matrix(-0.7071 -0.7071 0.7071 -0.7071 -24.3988 652.1223)" style="fill:#EAEAEA;" width="82.065" height="81.7"/>
<rect x="290.088" y="166.257" transform="matrix(-0.7071 -0.7071 0.7071 -0.7071 383.4788 538.7577)" style="fill:#FFD68B;" width="26.463" height="47.402"/>
<path style="fill:#FF7565;" d="M506.369,5.631c0,0-93.893-24.038-145.146,27.216c-32.565,32.565-32.565,85.364,0.001,117.929
	L506.369,5.631z"/>
<path style="fill:#FFD68B;" d="M459.153,52.845c-1.084-0.022-2.18-0.031-3.292-0.031c-18.21,0-42.931,3.014-57.294,17.376
	c-11.921,11.922-11.921,31.319,0.001,43.24L459.153,52.845z"/>
</svg>