<?xml version="1.0" encoding="iso-8859-1"?>
<!-- Uploaded to: SVG Repo, www.svgrepo.com, Generator: SVG Repo Mixer Tools -->
<svg fill="#000000" version="1.1" id="Layer_1" xmlns="http://www.w3.org/2000/svg" xmlns:xlink="http://www.w3.org/1999/xlink" 
	 viewBox="0 0 512 512" xml:space="preserve">
<g>
	<g>
		<path d="M443.554,92.61V60.804h-47.082V36.65H366.05v24.154H182.472V17.477H0v220.725h30.422V47.899H152.05v12.906H49.512v142.787
			h81.25v125.966h19.824v164.964h91.482V329.558h19.824v-57.817h92.001v-68.149h89.661v-31.805H512V92.61H443.554z M211.645,464.1
			h-30.638v-24.566h30.638V464.1z M211.645,409.112h-30.638v-24.567h30.638V409.112z M211.645,354.123h-30.638v-24.567h30.638
			V354.123z M231.469,271.741v27.395h-70.287v-95.544h70.287V271.741z M261.891,241.319v-37.727h15.578v24.154h30.422v-24.154
			h15.578v37.727H261.891z M413.132,92.609v79.176v1.384h-59.24h-92.001h-30.422H130.761H79.934V91.226h333.198V92.609z
			 M481.578,141.365h-38.024v-18.332h38.024V141.365z"/>
	</g>
</g>
<g>
	<g>
		<rect x="154.381" y="116.992" width="184.296" height="30.422"/>
	</g>
</g>
</svg>