<?xml version="1.0" encoding="iso-8859-1"?>
<!-- Uploaded to: SVG Repo, www.svgrepo.com, Generator: SVG Repo Mixer Tools -->
<svg fill="#000000" height="800px" width="800px" version="1.1" id="Layer_1" xmlns="http://www.w3.org/2000/svg" xmlns:xlink="http://www.w3.org/1999/xlink" 
	 viewBox="0 0 512 512" xml:space="preserve">
<g>
	<g>
		<path d="M503.929,8.038c-3.652-3.652-10.265-8.004-21.033-8.004c-29.676,0-74.212,34.006-103.332,63.128l-53.051,53.051
			L264.851,101.9l-71.404,71.404l37.987,37.987l-39.346,39.346l-48.684-11.301l-41.086,41.086l29.993,29.993L89.77,352.955
			l-48.684-11.301L0,382.74l29.992,29.992l21.512,21.512l26.218,26.218l21.512,21.512l29.992,29.992l41.087-41.086l-11.301-48.684
			l42.541-42.541l29.993,29.992l41.086-41.087l-11.301-48.683l39.346-39.346l37.987,37.987l71.404-71.404l-14.313-61.661
			l53.052-53.052c22.123-22.123,40.418-45.71,51.515-66.414C514.573,39.395,515.788,19.897,503.929,8.038z M274.421,135.354
			l26.742,6.208l-48.219,48.218l-16.475-16.475L274.421,135.354z M152.973,272.79l13.766,3.195l-12.917,12.917l-8.481-8.481
			L152.973,272.79z M51.503,391.22l-8.48-8.48l7.632-7.633l13.765,3.195L51.503,391.22z M129.226,468.943l-8.48-8.48l12.917-12.917
			l3.195,13.765L129.226,468.943z M231.544,366.624l-8.481-8.48l12.918-12.917l3.194,13.764L231.544,366.624z M253.223,284.961
			l-73.184,73.184l-29.134,29.134v-0.001L99.234,438.95l-26.218-26.218l51.673-51.672h-0.001l29.135-29.135l24.811-24.812
			l74.311-74.311l26.218,26.218L253.223,284.961z M300.674,237.511l-26.218-26.218l54.632-54.632l26.218,26.218L300.674,237.511z
			 M338.661,275.498l-16.475-16.475l48.218-48.218l6.208,26.741L338.661,275.498z M376.818,161.366L350.6,135.148l39.718-39.718
			l26.218,26.218L376.818,161.366z M437.826,99.914l-25.775-25.775c32.805-30.213,58.803-42.581,69.471-43.611
			C480.61,39.929,468.766,66.262,437.826,99.914z"/>
	</g>
</g>
</svg>