<?xml version="1.0" encoding="iso-8859-1"?>
<!-- Uploaded to: SVG Repo, www.svgrepo.com, Generator: SVG Repo Mixer Tools -->
<svg fill="#000000" version="1.1" id="Layer_1" xmlns="http://www.w3.org/2000/svg" xmlns:xlink="http://www.w3.org/1999/xlink" 
	 viewBox="0 0 512 512" xml:space="preserve">
<g>
	<g>
		<path d="M501.669,114.926h-17.873V77.445c0-3.645-2.657-6.968-5.957-8.511c-3.31-1.542-7.475-1.108-10.279,1.223l-54.07,44.768
			H228.873c-2.043,0-4.026,0.723-5.655,1.953c-1.609,1.212-13.646,10.34-31.21,24.265c-11.301-8.24-38.555-23.604-77.629-16.562
			c-17.958,3.259-24.366,12.585-26.579,19.819c-3.682,12.054,2.061,27.373,14.997,39.987c5.567,5.433,12.82,10.551,20.719,13.565
			c-34.004,29.631-68.771,62.563-90.085,89.943C3.991,325.712,1.035,366.503,0.755,372.792c-2.424,14.405,1.028,28.681,9.764,40.258
			c8.993,11.935,22.884,19.647,38.105,21.173l94.696,9.463c1.914,0.195,3.815,0.287,5.697,0.287
			c13.041,0,24.661-4.554,34.113-13.111c10.829-9.805,16.279-23.613,16.279-38.89v-70.069c0-6.608,2.237-12.817,5.239-18.22
			c12.269,38.468,48.816,65.198,90.323,65.198c51.839,0,94.813-42.177,94.813-94.012v-28.176v-9.429v-37.729h111.885
			c5.192,0,10.331-4.081,10.331-9.277v-65.809C512,119.254,506.861,114.926,501.669,114.926z M464.994,97.514v17.412h-22.13
			L464.994,97.514z M115.92,170.934c-7.395-7.216-11.66-16.058-10.14-21.024c1.308-4.269,8.052-6.096,11.958-6.803
			c28.062-5.082,48.418,3.803,58.931,10.345c-10.224,8.258-21.525,17.542-33.277,27.462c-0.702,0.069-1.407,0.195-2.105,0.431
			C134.87,183.475,124.408,179.215,115.92,170.934z M180.607,391.973c0,9.897-3.256,18.756-10.096,24.944
			c-6.831,6.188-15.76,9.052-25.575,8.061l-94.568-9.465c-10.021-1.001-19.055-6.023-24.903-13.781
			c-5.674-7.519-7.827-16.856-6.124-26.285c0.087-0.468,0.154-0.964,0.163-1.432c0.014-0.395,1.394-39.423,28.753-74.567
			c12.516-16.08,30.196-34.417,49.72-52.921c1.704,11.455,6.132,26.237,16.999,39.857c14.652,18.366,36.563,29.881,66.171,34.339
			c-0.008,0.395-0.542,0.785-0.542,1.182L180.607,391.973L180.607,391.973z M294.681,350.08c-36.494,0-67.42-25.885-73.956-61.606
			c5.192-2.711,11.078-4.326,17.328-4.326h29.384c3.213,16.452,15.228,37.667,46.046,37.667c5.192,0,9.401-4.175,9.401-9.371
			c0-5.197-4.209-9.447-9.401-9.447c-17.672,0-24.286-9.447-26.751-18.848h64.374c6.787,0,13.142-1.772,18.644-4.932
			C367.461,318.641,334.671,350.08,294.681,350.08z M493.197,180.734H379.292c-5.192,0-8.311,4.329-8.311,9.525v47.006v9.429
			c0,10.356-9.518,18.651-19.874,18.651H238.054c-24.199,0-44.882,15.383-52.882,36.834c-25.012-3.64-43.621-12.794-55.333-27.35
			c-14.765-18.348-14.235-40.245-13.925-44.973c49.428-44.752,103.952-86.727,116.127-96.128h261.157V180.734z"/>
	</g>
</g>
<g>
	<g>
		<path d="M341.687,152.531H228.873c-5.192,0-8.311,4.329-8.311,9.525v84.611c0,5.197,3.119,9.277,8.311,9.277h112.815
			c5.192,0,10.492-4.081,10.492-9.277v-84.611C352.179,156.859,346.879,152.531,341.687,152.531z M333.377,237.142h-94.012v-65.809
			h94.012V237.142z"/>
	</g>
</g>
<g>
	<g>
		<rect x="258.158" y="180.736" width="56.407" height="18.802"/>
	</g>
</g>
<g>
	<g>
		<rect x="258.158" y="208.939" width="56.407" height="18.802"/>
	</g>
</g>
</svg>