<?xml version="1.0" encoding="iso-8859-1"?>
<!-- Uploaded to: SVG Repo, www.svgrepo.com, Generator: SVG Repo Mixer Tools -->
<svg height="800px" width="800px" version="1.1" id="Layer_1" xmlns="http://www.w3.org/2000/svg" xmlns:xlink="http://www.w3.org/1999/xlink" 
	 viewBox="0 0 512 512" xml:space="preserve">
<path style="fill:#048F46;" d="M109.256,0v434.897L256,512l146.744-77.103V0H109.256z M256,448.604
	c-15.336,0-27.768-12.432-27.768-27.768s12.432-27.768,27.768-27.768s27.768,12.432,27.768,27.768S271.336,448.604,256,448.604z"/>
<path style="fill:#3DDB86;" d="M256,448.533c-15.336,0-27.768-12.432-27.768-27.768s12.432-27.768,27.768-27.768V0H109.256v434.897
	L256,512V448.533z"/>
<polygon style="fill:#FFAC00;" points="149.072,63.061 149.072,292.541 256,342.431 362.928,292.541 362.928,63.061 256,112.95 "/>
<polygon style="fill:#FFD68B;" points="256,112.95 149.072,63.061 149.072,292.541 256,342.431 "/>
<polygon style="fill:#DB6D00;" points="149.072,139.553 149.072,216.047 256,265.938 362.928,216.047 362.928,139.553 256,189.444 
	"/>
<polygon style="fill:#FFAC00;" points="256,189.444 149.072,139.553 149.072,216.047 256,265.938 "/>
</svg>