<?xml version="1.0" encoding="iso-8859-1"?>
<!-- Uploaded to: SVG Repo, www.svgrepo.com, Generator: SVG Repo Mixer Tools -->
<svg fill="#000000" height="800px" width="800px" version="1.1" id="Layer_1" xmlns="http://www.w3.org/2000/svg" xmlns:xlink="http://www.w3.org/1999/xlink" 
	 viewBox="0 0 512 512" xml:space="preserve">
<g>
	<g>
		<path d="M443.519,0.124c-32.597,0-60.637,23.299-66.917,54.859l-73.348,73.346l-107.735,8.29c-3.915,0.3-7.122,3.24-7.759,7.113
			c-0.645,3.873,1.445,7.68,5.052,9.229c27.508,11.794,53.503,28.428,54.536,34.806c0,4.95-11.303,12.127-25.617,21.225
			c-14.31,9.096-33.909,21.546-56.606,40.455C113.288,292.649,5.59,490.871,1.03,499.284c-1.837,3.388-1.17,7.588,1.624,10.245
			c1.628,1.547,3.744,2.347,5.88,2.347c1.524,0,3.057-0.408,4.431-1.241c8.029-4.889,197.3-120.231,248.371-162.786
			c30.006-25.013,43.237-55.367,51.987-75.447c2.699-6.189,5.972-13.693,8.175-16.6c10.237,6.663,27.916,35.772,37.628,55.19
			c1.77,3.54,6.229,5.356,10.086,4.49c3.848-0.916,7.062-4.35,7.062-8.306v-98.808l71.645-71.882
			C483.707,134.442,512,104.607,512,68.358C512,30.734,481.143,0.124,443.519,0.124z M443.753,119.533
			c-2.245,0.01-4.394,0.91-5.984,2.49l-76.539,76.763c-1.603,1.599-2.012,3.773-2.012,6.039v69.683
			c-10.661-14.457-20.835-29.684-30.797-34.667c-4.914-2.447-9.327-1.841-11.963-0.881c-8.217,2.982-12.442,12.394-18.648,26.627
			c-8.592,19.724-20.427,46.738-47.33,69.152C211.864,366.923,87.618,444.594,31.766,479.083
			c32.284-57.43,106.213-184.792,144.295-216.526c21.852-18.216,40.905-30.327,54.828-39.164
			c20.907-13.285,33.521-21.306,33.521-35.626c0-12.927-18.088-26.319-36.329-36.549l79.627-6.122
			c2.032-0.156,3.935-1.031,5.376-2.472l74.285-74.283c2.924-1.106,5.019-3.732,5.435-6.844
			c3.382-25.265,25.184-44.314,50.717-44.314c28.22,0,51.175,22.958,51.175,51.175C494.695,96.444,471.843,119.41,443.753,119.533z"
			/>
	</g>
</g>
</svg>