<?xml version="1.0" encoding="iso-8859-1"?>
<!-- Uploaded to: SVG Repo, www.svgrepo.com, Generator: SVG Repo Mixer Tools -->
<svg height="800px" width="800px" version="1.1" id="Layer_1" xmlns="http://www.w3.org/2000/svg" xmlns:xlink="http://www.w3.org/1999/xlink" 
	 viewBox="0 0 512 512" xml:space="preserve">
<path style="fill:#C2C2C2;" d="M377.69,96.266c-5.245-12.664-43.476-8.856-85.391,8.506l-221.165,91.61v27.509h129.709v-27.509
	l110.451-45.75C353.208,133.269,382.935,108.93,377.69,96.266z"/>
<path style="fill:#EAEAEA;" d="M377.69,96.266c-5.245-12.664-43.476-8.856-85.391,8.506l-221.165,91.61v26.864L377.69,96.266z"/>
<polygon style="fill:#048F46;" points="372.02,196.382 71.134,196.382 71.134,251.399 71.134,263.166 409.676,263.166 
	409.676,251.399 "/>
<path style="fill:#EE2712;" d="M292.298,104.772l-14.451,5.986l18.995,45.859l14.451-5.986c4.944-2.048,9.711-4.195,14.278-6.407
	l-18.648-45.019C302.132,100.873,297.242,102.724,292.298,104.772z"/>
<path style="fill:#424242;" d="M438.479,292.604H73.521c-27.074,0-49.1,22.027-49.1,49.1c0,19.391,11.459,37.009,29.192,44.883
	l77.129,31.24c8.234,3.573,16.972,5.384,25.974,5.384h198.57c9.001,0,17.737-1.811,25.972-5.384l76.652-31.038l0.478-0.202
	c17.733-7.874,29.192-25.492,29.192-44.883C487.579,314.631,465.553,292.604,438.479,292.604z"/>
<g>
	<path style="fill:#C2C2C2;" d="M438.479,369.949c-15.575,0-28.244-12.67-28.244-28.245s12.669-28.244,28.244-28.244
		s28.244,12.669,28.244,28.244S454.052,369.949,438.479,369.949z"/>
	<path style="fill:#C2C2C2;" d="M73.521,369.949c-15.575,0-28.244-12.67-28.244-28.245s12.669-28.244,28.244-28.244
		s28.244,12.669,28.244,28.244S89.096,369.949,73.521,369.949z"/>
	<path style="fill:#C2C2C2;" d="M156.713,402.355c-24.508,0-44.447-19.939-44.447-44.447c0-24.508,19.939-44.447,44.447-44.447
		s44.447,19.939,44.447,44.447C201.161,382.416,181.222,402.355,156.713,402.355z"/>
	<path style="fill:#C2C2C2;" d="M256.036,402.355c-24.508,0-44.447-19.939-44.447-44.447c0-24.508,19.939-44.447,44.447-44.447
		s44.447,19.939,44.447,44.447C300.483,382.416,280.544,402.355,256.036,402.355z"/>
	<path style="fill:#C2C2C2;" d="M355.36,402.355c-24.508,0-44.447-19.939-44.447-44.447c0-24.508,19.939-44.447,44.447-44.447
		s44.447,19.939,44.447,44.447C399.807,382.416,379.868,402.355,355.36,402.355z"/>
</g>
<path style="fill:#424242;" d="M438.479,251.399H73.52c-29.073,0-56.556,14.187-73.52,37.949l25.464,18.176
	c11.102-15.554,29.068-24.84,48.056-24.84h364.959c18.989,0,36.956,9.286,48.057,24.84L512,289.348
	C495.036,265.586,467.553,251.399,438.479,251.399z"/>
<g>
	<path style="fill:#EAEAEA;" d="M355.36,313.461c-24.508,0-44.447,19.939-44.447,44.447h88.894
		C399.807,333.399,379.868,313.461,355.36,313.461z"/>
	<path style="fill:#EAEAEA;" d="M256.036,313.461c-24.508,0-44.447,19.939-44.447,44.447h88.894
		C300.484,333.399,280.544,313.461,256.036,313.461z"/>
	<path style="fill:#EAEAEA;" d="M156.713,313.461c-24.508,0-44.447,19.939-44.447,44.447h88.894
		C201.161,333.399,181.222,313.461,156.713,313.461z"/>
	<path style="fill:#EAEAEA;" d="M438.479,313.461c-15.575,0-28.244,12.669-28.244,28.244h56.488
		C466.723,326.13,454.052,313.461,438.479,313.461z"/>
	<path style="fill:#EAEAEA;" d="M73.521,313.461c-15.575,0-28.244,12.669-28.244,28.244h56.488
		C101.765,326.13,89.096,313.461,73.521,313.461z"/>
</g>
<polygon style="fill:#3DDB86;" points="390.848,223.89 372.02,196.382 71.134,196.382 71.134,223.89 "/>
</svg>