<?xml version="1.0" encoding="iso-8859-1"?>
<!-- Uploaded to: SVG Repo, www.svgrepo.com, Generator: SVG Repo Mixer Tools -->
<svg fill="#000000" height="800px" width="800px" version="1.1" id="Layer_1" xmlns="http://www.w3.org/2000/svg" xmlns:xlink="http://www.w3.org/1999/xlink" 
	 viewBox="0 0 512 512" xml:space="preserve">
<g>
	<g>
		<path d="M467.489,335.957c-1.361-5.055-6.62-8.056-11.611-6.695c-6.408,1.718-13.037,2.588-19.732,2.588
			c-41.824,0-75.851-34.027-75.851-75.851c0-41.824,34.028-75.851,75.851-75.851c6.695,0,13.324,0.87,19.732,2.588
			c5.065,1.366,10.25-1.634,11.611-6.694l44.185-164.096c0.88-3.273-0.055-6.768-2.454-9.167c-2.408-2.403-5.907-3.333-9.167-2.454
			l-164.101,44.18c-5.055,1.361-8.046,6.56-6.694,11.616c1.722,6.412,2.592,13.051,2.592,19.731
			c0,41.824-34.027,75.851-75.851,75.851c-41.824,0-75.851-34.027-75.851-75.851c0-6.713,0.87-13.347,2.593-19.722
			c0.648-2.426,0.315-5.018-0.935-7.199c-1.259-2.176-3.324-3.768-5.759-4.426L11.946,0.326C8.622-0.554,5.067,0.409,2.659,2.9
			c-2.398,2.482-3.25,6.074-2.241,9.37l50.074,162.74c1.435,4.634,6.102,7.435,10.87,6.523c4.731-0.921,9.602-1.384,14.49-1.384
			c41.824,0,75.851,34.028,75.851,75.851c0,41.824-34.027,75.851-75.851,75.851c-4.889,0-9.759-0.463-14.49-1.384
			c-4.759-0.898-9.435,1.884-10.87,6.523L0.419,499.729c-0.991,3.241-0.185,6.764,2.12,9.245c1.815,1.954,4.343,3.023,6.944,3.023
			c0.713,0,1.426-0.079,2.13-0.241l163.35-37.694c5.102-1.18,8.278-6.264,7.111-11.361c-1.278-5.569-1.926-11.315-1.926-17.074
			c0-41.824,34.028-75.851,75.851-75.851c41.824,0,75.851,34.028,75.851,75.851c0,5.759-0.648,11.505-1.926,17.074
			c-1.167,5.097,2.009,10.18,7.111,11.361l163.351,37.694c3.213,0.75,6.648-0.259,8.954-2.657c2.315-2.398,3.194-5.833,2.333-9.046
			L467.489,335.957z M350.064,457.604c0.5-3.963,0.75-7.967,0.75-11.977c0-52.282-42.537-94.814-94.814-94.814
			c-52.277,0-94.814,42.532-94.814,94.814c0,4.009,0.25,8.014,0.75,11.977L23.381,489.576l42.851-139.249
			c3.185,0.324,6.408,0.486,9.62,0.486c52.277,0,94.814-42.532,94.814-94.814c0-52.282-42.537-94.814-94.814-94.814
			c-3.213,0-6.435,0.162-9.62,0.486L23.594,23.099l138.832,37.379c-0.824,5.055-1.241,10.199-1.241,15.375
			c0,52.282,42.537,94.814,94.814,94.814c52.277,0,94.814-42.532,94.814-94.814c0-5.162-0.416-10.305-1.241-15.375l139.508-37.56
			l-37.565,139.508c-5.065-0.824-10.204-1.241-15.37-1.241c-52.277,0-94.814,42.532-94.814,94.814
			c0,52.282,42.537,94.814,94.814,94.814c5.167,0,10.306-0.417,15.37-1.241l37.74,140.152L350.064,457.604z"/>
	</g>
</g>
<g>
	<g>
		<path d="M256,218.074c-26.139,0-47.407,21.268-47.407,47.407c0,26.139,21.268,47.407,47.407,47.407
			c26.139,0,47.407-21.268,47.407-47.407C303.407,239.342,282.139,218.074,256,218.074z M256,293.925
			c-15.685,0-28.444-12.759-28.444-28.444c0-15.685,12.759-28.444,28.444-28.444c15.685,0,28.444,12.759,28.444,28.444
			C284.444,281.166,271.685,293.925,256,293.925z"/>
	</g>
</g>
</svg>