<?xml version="1.0" encoding="iso-8859-1"?>
<!-- Uploaded to: SVG Repo, www.svgrepo.com, Generator: SVG Repo Mixer Tools -->
<svg version="1.1" id="Layer_1" xmlns="http://www.w3.org/2000/svg" xmlns:xlink="http://www.w3.org/1999/xlink" 
	 viewBox="0 0 511.991 511.991" xml:space="preserve">
<rect x="270.665" y="269.28" transform="matrix(-0.7071 0.7071 -0.7071 -0.7071 705.1087 320.0039)" style="fill:#424242;" width="31.228" height="73.51"/>
<rect x="276.204" y="101.014" transform="matrix(-0.7071 0.7071 -0.7071 -0.7071 777.226 -77.3519)" style="fill:#8F8F8F;" width="256.859" height="42.557"/>
<rect x="268.683" y="104.119" transform="matrix(-0.7071 0.7071 -0.7071 -0.7071 759.0593 -84.8952)" style="fill:#C2C2C2;" width="256.859" height="21.279"/>
<rect x="232.997" y="348.275" transform="matrix(-0.7071 0.7071 -0.7071 -0.7071 810.6861 391.9812)" style="fill:#424242;" width="182.329" height="31.228"/>
<g>
	
		<rect x="392.814" y="224.919" transform="matrix(-0.7071 0.7071 -0.7071 -0.7071 948.7946 266.8521)" style="fill:#8F8F8F;" width="52.633" height="210.017"/>
	<polygon style="fill:#8F8F8F;" points="193.367,369.061 249.969,506.267 317.009,478.498 248.906,313.522 	"/>
</g>
<rect x="322.964" y="204.442" transform="matrix(-0.7071 0.7071 -0.7071 -0.7071 791.8282 185.3442)" style="fill:#048F46;" width="69.128" height="104.447"/>
<rect x="309.84" y="211.167" transform="matrix(-0.7071 -0.7071 0.7071 -0.7071 417.9159 664.5689)" style="fill:#3DDB86;" width="73.51" height="69.128"/>
<polygon style="fill:#C2C2C2;" points="272.829,371.478 248.906,313.522 193.367,369.061 217.28,427.027 "/>
<rect x="46.114" y="219.217" transform="matrix(-0.7071 0.7071 -0.7071 -0.7071 628.2886 282.1454)" style="fill:#048F46;" width="419.191" height="103.957"/>
<rect x="27.742" y="226.822" transform="matrix(-0.7071 0.7071 -0.7071 -0.7071 583.9259 263.7537)" style="fill:#3DDB86;" width="419.191" height="51.98"/>
<g>
	<polygon style="fill:#424242;" points="501.575,140.117 479.494,162.199 367.182,49.887 22.081,394.986 0,372.905 367.182,5.724 	
		"/>
	
		<rect x="207.404" y="264.234" transform="matrix(-0.7071 0.7071 -0.7071 -0.7071 619.6451 303.0302)" style="fill:#424242;" width="79.319" height="31.228"/>
</g>
</svg>