<?xml version="1.0" encoding="iso-8859-1"?>
<!-- Uploaded to: SVG Repo, www.svgrepo.com, Generator: SVG Repo Mixer Tools -->
<svg height="800px" width="800px" version="1.1" id="Layer_1" xmlns="http://www.w3.org/2000/svg" xmlns:xlink="http://www.w3.org/1999/xlink" 
	 viewBox="0 0 512 512" xml:space="preserve">
<path style="fill:#808080;" d="M271.954,236.326c4.986,4.986,4.986,13.086,0,18.083c-4.997,4.986-13.086,4.986-18.083,0
	c-4.986-4.997-4.986-13.097,0-18.083C258.869,231.328,266.957,231.328,271.954,236.326z"/>
<g>
	<polygon style="fill:#999999;" points="390.999,100.123 369.194,121.917 352.521,105.245 374.315,83.439 	"/>
	<polygon style="fill:#999999;" points="465.981,25.141 411.643,79.48 399.065,58.701 449.297,8.457 	"/>
</g>
<g>
	<polygon style="fill:#666666;" points="264.78,153.627 282.321,171.18 233.927,219.574 216.386,202.021 	"/>
	<path style="fill:#666666;" d="M271.154,335.494l39.888,130.291l-79.235,37.756l-23.362-88
		c-4.602-17.327-23.024-27.028-39.922-21.016l-9.667-15.77l29.341-15.601l55.309-55.309L271.154,335.494z"/>
	<path style="fill:#666666;" d="M373.785,222.236l-4.783,4.783l-36.696,36.696l-5.843,5.843l-35.636-9.036l14.36-35.636
		l61.683-61.683c-14.383,14.394-14.383,37.722,0,52.117L373.785,222.236z"/>
</g>
<g>
	<polygon style="fill:#4D4D4D;" points="476.416,334.433 439.731,371.129 332.306,263.715 369.002,227.019 	"/>
	<path style="fill:#4D4D4D;" d="M271.909,279.44l-28.405,28.405l-55.309,55.309l-29.341,15.601l-29.679,15.77l-52.647-52.647
		l139.857-139.857l17.541,17.553l48.394-48.394l-17.541-17.553l68.056-68.067l19.685,19.685l16.673,16.673l19.482,19.482
		l-21.805,21.805l-61.683,61.683l-14.36,35.636L271.909,279.44z M253.872,236.326c-4.986,4.986-4.986,13.086,0,18.083
		c4.997,4.986,13.086,4.986,18.083,0c4.986-4.997,4.986-13.097,0-18.083C266.957,231.328,258.869,231.328,253.872,236.326z"/>
</g>
<polygon style="fill:#808080;" points="411.643,79.48 443.984,132.894 433.877,143.001 390.999,100.123 374.315,83.439 
	354.642,63.766 332.836,85.56 264.78,153.627 216.386,202.021 76.529,341.879 129.175,394.525 59.506,381.237 35.58,339.216 
	373.785,16.962 399.065,58.701 "/>
<g>
	<path style="fill:#333333;" d="M482.403,328.452L380.845,226.895c0.908-1.374,1.403-2.993,1.403-4.665
		c0-2.244-0.891-4.396-2.478-5.983l-6.913-6.912c-11.07-11.07-11.07-29.08,0-40.149l21.803-21.803c3.304-3.304,3.304-8.66,0-11.964
		l-13.5-13.5l9.838-9.838l36.898,36.897c3.304,3.304,8.661,3.304,11.964,0l10.104-10.104c2.754-2.754,3.273-7.032,1.254-10.365
		l-28.908-47.741l49.647-49.647c1.587-1.586,2.478-3.738,2.478-5.982s-0.891-4.396-2.478-5.982l-16.68-16.68
		c-3.304-3.304-8.661-3.304-11.964,0l-42.609,42.609l-19.68-32.503c-1.328-2.193-3.578-3.665-6.119-4.005
		c-2.543-0.338-5.099,0.493-6.955,2.262L29.743,333.097c-2.815,2.681-3.438,6.935-1.515,10.313l23.93,42.01
		c1.226,2.152,3.333,3.659,5.766,4.123l69.662,13.294v-0.002c0.523,0.099,1.055,0.152,1.588,0.152c1.353,0,2.715-0.324,3.969-0.989
		l22.656-12.042l5.512,8.993c2.09,3.41,6.283,4.89,10.051,3.55c5.916-2.106,12.234-1.655,17.791,1.271
		c5.556,2.926,9.504,7.88,11.115,13.949l23.36,87.992c0.646,2.432,2.341,4.451,4.625,5.507c1.127,0.521,2.34,0.782,3.552,0.782
		c1.244,0,2.489-0.274,3.639-0.822l79.234-37.756c3.785-1.804,5.678-6.106,4.45-10.114l-37.389-122.135l8.974-2.676
		c9.959-2.97,19.106-8.424,26.454-15.773c11.769-11.769,18.257-27.415,18.386-43.804l98.191,98.192
		c1.586,1.587,3.738,2.478,5.982,2.478c2.244,0,4.396-0.891,5.982-2.478l36.693-36.693
		C485.707,337.114,485.707,331.757,482.403,328.452z M360.892,221.301l-37.014,38.874l-21.581-5.476l10.093-25.048l35.521-35.522
		C348.976,204.062,353.297,213.706,360.892,221.301z M344.806,85.566l9.838-9.838l7.71,7.71l-9.838,9.838L344.806,85.566z
		 M369.196,109.955l-4.714-4.714l9.838-9.838l4.714,4.714L369.196,109.955z M449.297,20.426l4.714,4.714l-40.725,40.725
		l-3.556-5.873L449.297,20.426z M46.205,340.782l325.798-310.43l59.557,98.362l-70.935-70.935c-3.303-3.304-8.66-3.304-11.964,0
		L70.544,335.899c-3.304,3.304-3.304,8.661,0,11.964l33.197,33.197l-38.811-7.407L46.205,340.782z M270.358,171.18l-36.426,36.427
		l-5.584-5.584l11.264-11.264l25.163-25.163L270.358,171.18z M130.728,384.118l-42.237-42.237l127.892-127.892l11.566,11.566
		c1.652,1.651,3.817,2.478,5.982,2.478c2.165,0,4.331-0.826,5.982-2.478l48.392-48.392c1.587-1.586,2.478-3.738,2.478-5.982
		c0-2.244-0.891-4.396-2.478-5.982l-11.566-11.566l56.102-56.102l43.872,43.872l-77.507,77.507c-0.805,0.804-1.439,1.764-1.865,2.82
		l-13.713,34.029L183.109,356.276L130.728,384.118z M237.366,491.517l-20.746-78.142c-2.798-10.539-9.937-19.499-19.585-24.579
		c-7.561-3.982-16.214-5.342-24.544-3.989l-1.723-2.81l21.402-11.375c0.741-0.394,1.418-0.895,2.011-1.488l49.322-49.322
		l20.179,20.179l37.131,121.293L237.366,491.517z M305.203,310.758c-5.368,5.368-12.051,9.353-19.326,11.522l-12.306,3.67
		l-18.103-18.103l9.379-9.379c2.073,5.349,5.629,11.091,11.361,16.823c1.651,1.653,3.817,2.478,5.982,2.478
		c2.165,0,4.331-0.826,5.982-2.478c3.304-3.304,3.304-8.66,0-11.964c-9.087-9.088-9.171-16.463-8.678-19.505l13.919-13.919
		l25.173,6.387C319.171,289.15,314.39,301.571,305.203,310.758z M439.728,359.164l-95.453-95.454l24.727-24.727l95.453,95.453
		L439.728,359.164z"/>
	<path style="fill:#333333;" d="M221.208,271.808c2.165,0,4.331-0.826,5.982-2.478l14.007-14.007c0.791,1.2,1.703,2.333,2.743,3.372
		c4.013,4.013,9.348,6.224,15.022,6.224c5.674,0,11.01-2.21,15.022-6.224c8.283-8.283,8.283-21.761,0-30.045l0,0
		c-8.284-8.283-21.763-8.283-30.045,0l-28.716,28.716c-3.304,3.304-3.304,8.661,0,11.964
		C216.878,270.981,219.044,271.808,221.208,271.808z M255.907,240.613c0.844-0.843,1.95-1.265,3.057-1.265s2.214,0.422,3.058,1.265
		c1.685,1.686,1.685,4.43,0,6.115c-1.633,1.633-4.482,1.635-6.115,0c-0.817-0.817-1.267-1.902-1.267-3.057
		S255.09,241.43,255.907,240.613z"/>
	<path style="fill:#333333;" d="M276.934,442.979l-32.886,15.671c-4.219,2.01-6.008,7.058-3.998,11.277
		c1.451,3.044,4.483,4.822,7.644,4.822c1.219,0,2.459-0.265,3.633-0.825l32.886-15.671c4.219-2.01,6.008-7.058,3.998-11.277
		C286.2,442.759,281.152,440.968,276.934,442.979z"/>
	<path style="fill:#333333;" d="M268.16,413.466l-32.888,15.671c-4.219,2.01-6.008,7.058-3.998,11.277
		c1.451,3.044,4.483,4.824,7.644,4.824c1.219,0,2.459-0.265,3.633-0.825l32.888-15.671c4.218-2.01,6.008-7.058,3.998-11.277
		C277.427,413.246,272.379,411.455,268.16,413.466z"/>
	<path style="fill:#333333;" d="M259.384,383.952l-32.888,15.671c-4.219,2.01-6.008,7.058-3.998,11.277
		c1.451,3.043,4.483,4.824,7.644,4.824c1.219,0,2.459-0.265,3.633-0.825l32.888-15.671c4.218-2.01,6.008-7.058,3.998-11.277
		C268.653,383.732,263.603,381.942,259.384,383.952z"/>
	<circle style="fill:#333333;" cx="188.195" cy="330.184" r="8.46"/>
</g>
</svg>