<?xml version="1.0" encoding="iso-8859-1"?>
<!-- Uploaded to: SVG Repo, www.svgrepo.com, Generator: SVG Repo Mixer Tools -->
<svg fill="#000000" height="800px" width="800px" version="1.1" id="Layer_1" xmlns="http://www.w3.org/2000/svg" xmlns:xlink="http://www.w3.org/1999/xlink" 
	 viewBox="0 0 512 512" xml:space="preserve">
<g>
	<g>
		<path d="M437.019,74.98C388.667,26.628,324.38,0,256,0S123.333,26.628,74.98,74.98C26.628,123.333,0,187.619,0,256
			c0,68.381,26.628,132.668,74.98,181.02C123.333,485.372,187.619,512,256,512c68.381,0,132.668-26.628,181.02-74.98
			S512,324.381,512,256S485.371,123.333,437.019,74.98z M415.511,415.511c-42.606,42.606-99.255,66.072-159.511,66.072
			c-60.255,0-116.904-23.465-159.511-66.072C53.883,372.903,30.417,316.255,30.417,256S53.882,139.096,96.489,96.489
			C139.097,53.883,195.745,30.417,256,30.417s116.904,23.465,159.511,66.072c42.606,42.607,66.072,99.255,66.072,159.511
			S458.117,372.904,415.511,415.511z"/>
	</g>
</g>
<g>
	<g>
		<path d="M376.063,240.791c-6.876-54.595-50.264-97.982-104.861-104.855v-23.438h22.735V82.081h-22.735V55.247h-30.417v26.834
			h-22.734v30.417h22.734v23.44c-54.59,6.878-97.972,50.262-104.848,104.853H55.24v30.417h80.697
			c6.875,54.591,50.257,97.975,104.848,104.853v23.44h-22.734v30.417h22.734v26.834h30.417v-26.834h22.735v-30.417h-22.735v-23.438
			c54.597-6.873,97.985-50.26,104.861-104.855h80.684v-30.417H376.063z M240.784,166.686v21.202h-22.734v30.417h22.734v22.486h-74.1
			C173.1,203,202.994,173.103,240.784,166.686z M240.785,293.695h-22.735v30.417h22.734v21.202
			c-37.79-6.418-67.684-36.314-74.099-74.105h74.1V293.695z M271.201,345.316v-21.204h22.735v-30.417h-22.735v-22.486h74.113
			C338.9,309.004,308.999,338.903,271.201,345.316z M271.201,240.791v-22.486h22.735v-30.417h-22.735v-21.204
			c37.797,6.413,67.698,36.312,74.113,74.107H271.201z"/>
	</g>
</g>
</svg>