<?xml version="1.0" encoding="iso-8859-1"?>
<!-- Uploaded to: SVG Repo, www.svgrepo.com, Generator: SVG Repo Mixer Tools -->
<svg fill="#000000" height="800px" width="800px" version="1.1" id="Layer_1" xmlns="http://www.w3.org/2000/svg" xmlns:xlink="http://www.w3.org/1999/xlink" 
	 viewBox="0 0 512 512" xml:space="preserve">
<g>
	<g>
		<path d="M479.687,182.683h-4.264v-26.152c0-22.274-18.121-40.393-40.393-40.393h-13.141c-8.525,0-16.436,2.661-22.96,7.187V8.716
			c0-4.814-3.902-8.716-8.717-8.716s-8.716,3.903-8.716,8.716v72.982c-6.525-4.526-14.436-7.187-22.961-7.187H326.4V56.807
			c0-15.491-12.603-28.093-28.093-28.093h-84.619c-15.49,0-28.093,12.603-28.093,28.093V74.51h-32.134
			c-22.272,0-40.393,18.12-40.393,40.393v8.419c-6.525-4.526-14.436-7.187-22.96-7.187H76.97c-22.272,0-40.393,18.121-40.393,40.393
			v26.152h-4.264c-4.815,0-8.716,3.903-8.716,8.717v35.417c0,4.814,3.901,8.717,8.716,8.717h4.264v77.593
			c0,22.274,18.121,40.394,40.393,40.394h13.141c8.525,0,16.436-2.661,22.96-7.187v1.689c0,8.528,2.664,16.442,7.193,22.969
			c-22.126,0.175-40.073,18.221-40.073,40.386v44.711c0,22.265,18.121,40.38,40.393,40.38h29.211v6.819
			c0,4.814,3.902,8.716,8.717,8.716h32.05c4.815,0,8.716-3.903,8.716-8.716v-6.819h113.44v6.819c0,4.814,3.901,8.716,8.716,8.716
			h32.051c4.815,0,8.716-3.903,8.716-8.716v-6.819h29.211c22.272,0,40.393-18.114,40.393-40.38v-44.711
			c0-22.165-17.947-40.211-40.072-40.385c4.529-6.526,7.193-14.44,7.193-22.969v-1.689c6.525,4.526,14.436,7.187,22.961,7.187
			h13.141c22.272,0,40.393-18.12,40.393-40.393v-77.593h4.264c4.815,0,8.716-3.903,8.716-8.716v-35.417
			C488.403,186.585,484.502,182.683,479.687,182.683z M113.07,313.125c0,12.66-10.299,22.96-22.96,22.96H76.97
			c-12.661,0-22.961-10.299-22.961-22.96v-77.593h59.061V313.125z M113.07,218.099H41.029v-17.984h72.041V218.099z M113.071,182.683
			H54.009v-26.152c0-12.661,10.299-22.96,22.961-22.96h13.141c12.661,0,22.96,10.301,22.96,22.96V182.683z M213.69,46.148h84.619
			c5.878,0,10.66,4.782,10.66,10.66V74.51H203.031V56.807h-0.001C203.03,50.929,207.812,46.148,213.69,46.148z M130.503,114.905
			c0-12.661,10.299-22.96,22.961-22.96h205.072c12.661,0,22.96,10.299,22.96,22.96v27.363c0,12.661-10.299,22.961-22.96,22.961
			H345.51v-29.917c0-4.814-3.902-8.717-8.717-8.717h-32.051c-4.815,0-8.716,3.903-8.716,8.717v29.917h-80.055v-29.917
			c0-4.814-3.902-8.717-8.717-8.717h-32.05c-4.815,0-8.716,3.903-8.716,8.717v29.917h-13.025c-12.661,0-22.961-10.299-22.961-22.96
			V114.905z M328.077,144.027v66.7h-14.618v-66.7H328.077z M198.538,144.027v66.7h-14.617v-66.7H198.538z M130.503,175.474
			c6.525,4.526,14.436,7.187,22.961,7.187h13.025v36.783c0,4.814,3.901,8.716,8.716,8.716h32.05c4.815,0,8.717-3.903,8.717-8.716
			v-36.783h80.055v36.783c0,4.814,3.901,8.716,8.716,8.716h32.051c4.815,0,8.717-3.903,8.717-8.716v-36.783h13.025
			c8.525,0,16.436-2.661,22.96-7.187v113.569H130.503V175.474z M149.796,479.033h-29.211v-0.001
			c-12.661,0-22.96-10.294-22.96-22.946v-27.416c6.578,4.541,14.519,7.158,22.955,7.158h29.217V479.033z M149.796,418.393h-29.217
			c-9.678,0-18.211-6.047-21.512-14.952c3.24-8.757,11.649-15.027,21.518-15.027h29.211V418.393z M149.796,370.659
			c-10.919-1.765-19.293-11.229-19.293-22.639v-6.836h19.293V370.659z M181.846,494.567h-14.617V341.445h14.617V494.567z
			 M312.719,479.032h-113.44v-43.206h113.44V479.032z M312.719,418.393h-113.44v-29.979h113.44V418.393z M312.719,370.981h-113.44
			v-29.797h113.44V370.981z M344.77,494.567h-14.618V341.445h14.618V494.567z M130.503,323.751v-17.274h250.993v17.274H130.503z
			 M381.496,341.183v0.001v6.836c0,11.409-8.374,20.874-19.293,22.639v-29.476H381.496z M414.374,456.085
			c0,12.653-10.299,22.946-22.96,22.946h-29.211v-43.206h29.215c8.436,0,16.378-2.616,22.956-7.158V456.085z M412.932,403.439
			c-3.301,8.907-11.835,14.954-21.512,14.954h-29.215v-29.979h29.211C401.282,388.414,409.691,394.684,412.932,403.439z
			 M398.93,156.53c-0.001-12.66,10.298-22.96,22.959-22.96h13.141c12.661,0,22.96,10.301,22.96,22.96v26.152H398.93V156.53z
			 M435.029,336.086h-13.141c-12.661,0-22.961-10.299-22.961-22.96v-15.364v-62.229h59.061v77.593h0.001
			C457.99,325.786,447.69,336.086,435.029,336.086z M470.97,218.099h-72.041v-17.984h72.041V218.099z"/>
	</g>
</g>
</svg>