<?xml version="1.0" encoding="iso-8859-1"?>
<!-- Uploaded to: SVG Repo, www.svgrepo.com, Generator: SVG Repo Mixer Tools -->
<svg fill="#000000" height="800px" width="800px" version="1.1" id="Layer_1" xmlns="http://www.w3.org/2000/svg" xmlns:xlink="http://www.w3.org/1999/xlink" 
	 viewBox="0 0 512 512" xml:space="preserve">
<g>
	<g>
		<path d="M482.022,65.538L258.605,0.375c-1.7-0.5-3.509-0.5-5.209,0L29.978,65.538c-4.495,1.309-7.314,5.75-6.591,10.373
			l46.545,297.89c0.377,2.427,1.695,4.6,3.673,6.059l176.872,130.327c1.641,1.209,3.582,1.814,5.523,1.814
			c1.941,0,3.882-0.604,5.523-1.814L438.395,379.86c1.977-1.459,3.295-3.632,3.673-6.059l46.545-297.89
			C489.336,71.288,486.517,66.847,482.022,65.538z M424.268,367.142L256,491.127L87.732,367.142L43.042,81.12L256,19.007
			L468.958,81.12L424.268,367.142z"/>
	</g>
</g>
<g>
	<g>
		<path d="M424.217,178.07c-1.095-3.368-4.009-5.827-7.518-6.336l-105.272-15.295L264.35,61.047c-3.136-6.355-13.563-6.355-16.7,0
			l-47.077,95.391L95.301,171.733c-3.509,0.509-6.423,2.968-7.518,6.336c-1.095,3.373-0.182,7.068,2.354,9.545l76.177,74.254
			l-17.982,104.85c-0.596,3.491,0.841,7.023,3.705,9.104c2.877,2.086,6.668,2.35,9.804,0.709L256,327.028l94.159,49.504
			c1.364,0.714,2.85,1.068,4.332,1.068c1.927,0,3.85-0.6,5.473-1.777c2.864-2.082,4.3-5.614,3.705-9.104l-17.982-104.85
			l76.177-74.254C424.399,185.138,425.313,181.442,424.217,178.07z M329.181,251.951c-2.191,2.141-3.191,5.223-2.677,8.241
			l15.622,91.081l-81.795-43.004c-1.355-0.714-2.846-1.068-4.332-1.068c-1.486,0-2.977,0.355-4.332,1.068l-81.795,43.004
			l15.623-91.081c0.514-3.018-0.486-6.1-2.677-8.241l-66.177-64.504l91.45-13.286c3.036-0.441,5.655-2.345,7.014-5.095L256,86.202
			l40.895,82.863c1.359,2.75,3.977,4.655,7.014,5.095l91.45,13.286L329.181,251.951z"/>
	</g>
</g>
</svg>