<?xml version="1.0" encoding="iso-8859-1"?>
<!-- Uploaded to: SVG Repo, www.svgrepo.com, Generator: SVG Repo Mixer Tools -->
<svg fill="#000000" height="800px" width="800px" version="1.1" id="Layer_1" xmlns="http://www.w3.org/2000/svg" xmlns:xlink="http://www.w3.org/1999/xlink" 
	 viewBox="0 0 512 512" xml:space="preserve">
<g>
	<g>
		<path d="M477.879,374.838c-6.133-10.842-37.684-65.47-56.392-76.271c-8.693-5.021-18.605-7.022-28.428-5.798
			c-0.701-0.223-1.438-0.362-2.189-0.411c-19.195-1.211-34.236-17.252-34.236-36.518c0-19.266,15.041-35.308,34.236-36.518
			c0.75-0.049,1.488-0.188,2.189-0.411c9.823,1.197,19.735-0.782,28.424-5.794c18.713-10.806,50.264-65.434,56.397-76.275
			c1.599-2.823,1.581-6.276-0.036-9.082c-1.622-2.805-4.605-4.547-7.844-4.574c-12.436-0.076-75.547-0.098-94.26,10.703
			c-11.32,6.536-19.155,17.359-21.857,30.028c-6.754,6.2-15.429,9.586-24.694,9.586c-20.178,0-36.594-16.416-36.594-36.594
			c0-5.405,1.148-10.6,3.409-15.443c1.166-2.502,1.144-5.401-0.072-7.884c-0.004-0.013-0.013-0.027-0.018-0.04
			c3.801-6.767,5.829-14.433,5.829-22.376c0-21.607-31.537-76.248-37.858-86.978c-3.288-5.584-12.481-5.584-15.769,0
			c-6.321,10.73-37.859,65.371-37.859,86.978c0,7.943,2.028,15.608,5.83,22.376c-0.005,0.013-0.013,0.027-0.018,0.04
			c-1.215,2.484-1.237,5.383-0.071,7.884c2.26,4.842,3.408,10.038,3.408,15.443c0,20.178-16.416,36.594-36.594,36.594
			c-9.265,0-17.94-3.386-24.694-9.586c-2.703-12.668-10.538-23.492-21.858-30.023c-18.717-10.81-81.846-10.797-94.26-10.708
			c-3.239,0.027-6.223,1.769-7.844,4.574c-1.617,2.805-1.635,6.259-0.036,9.082c6.133,10.842,37.684,65.469,56.392,76.271
			c8.688,5.017,18.596,6.995,28.428,5.798c0.701,0.223,1.438,0.362,2.189,0.411c19.195,1.211,34.236,17.252,34.236,36.518
			c0,19.267-15.04,35.308-34.236,36.518c-0.75,0.049-1.488,0.188-2.189,0.411c-9.832-1.224-19.745,0.777-28.424,5.794
			c-18.712,10.806-50.263,65.434-56.397,76.275c-1.599,2.823-1.581,6.276,0.036,9.082c1.622,2.805,4.606,4.547,7.844,4.574
			c12.512,0.094,75.552,0.107,94.26-10.703c7.465-4.311,13.45-10.524,17.435-17.967c1.349-0.424,2.595-1.161,3.627-2.162
			c6.866-6.665,15.921-10.337,25.489-10.337c20.178,0,36.594,16.417,36.594,36.594c0,2.926-0.348,5.839-1.027,8.657
			c-0.183,0.75-0.268,1.519-0.259,2.278c-5.11,7.523-7.862,16.403-7.862,25.659c0,21.607,31.538,76.248,37.859,86.978
			c1.644,2.792,4.646,4.507,7.884,4.507s6.24-1.715,7.884-4.507c6.321-10.73,37.858-65.371,37.858-86.978
			c0-9.256-2.752-18.136-7.862-25.659c0.009-0.759-0.076-1.528-0.259-2.278c-0.679-2.819-1.028-5.731-1.028-8.657
			c0-20.178,16.417-36.594,36.594-36.594c9.568,0,18.623,3.672,25.489,10.337c1.032,1.001,2.278,1.738,3.627,2.162
			c3.985,7.442,9.971,13.656,17.435,17.962c18.722,10.815,81.837,10.828,94.26,10.707c3.239-0.027,6.223-1.769,7.844-4.574
			C479.461,381.115,479.479,377.662,477.879,374.838z M384.888,361.942c-6.169-3.56-10.654-9.287-12.637-16.126
			c-0.934-3.221-3.556-5.673-6.83-6.392c-1.362-0.299-2.738-0.273-4.034,0.031c-9.314-6.767-20.499-10.426-32.199-10.426
			c-30.269,0-54.891,24.623-54.891,54.891c0,2.14,0.125,4.275,0.371,6.397c-0.402,0.639-0.724,1.327-0.96,2.064
			c-1.032,3.203-0.223,6.71,2.104,9.14c4.923,5.133,7.634,11.878,7.634,18.994c0,10.6-14.648,40.606-27.446,63.835
			c-12.798-23.229-27.446-53.234-27.446-63.835c0-7.116,2.712-13.861,7.634-18.994c2.327-2.43,3.136-5.937,2.104-9.14
			c-0.237-0.737-0.558-1.425-0.96-2.064c0.246-2.122,0.371-4.257,0.371-6.397c0-30.269-24.622-54.891-54.891-54.891
			c-11.699,0-22.885,3.659-32.199,10.426c-1.286-0.304-2.667-0.326-4.034-0.031c-3.274,0.719-5.896,3.172-6.83,6.392
			c-1.983,6.839-6.468,12.566-12.637,16.13c-9.184,5.303-42.491,7.621-69.007,8.148c13.719-22.697,32.382-50.384,41.566-55.686
			c6.151-3.556,13.334-4.597,20.249-2.886c2.631,0.657,5.396,0.085,7.549-1.478c26.289-4.19,46.194-27.066,46.194-54.204
			c0-27.137-19.905-50.013-46.194-54.203c-2.153-1.559-4.936-2.126-7.549-1.479c-6.915,1.693-14.098,0.666-20.254-2.89
			c-9.18-5.298-27.843-32.985-41.562-55.682c26.517,0.527,59.827,2.845,69.007,8.152c7.353,4.244,12.258,11.512,13.455,19.937
			c0.268,1.881,1.117,3.632,2.421,5.008c10.471,11.038,24.614,17.118,39.824,17.118c30.269,0,54.891-24.622,54.891-54.891
			c0-4.73-0.59-9.359-1.755-13.839c1.068-1.032,1.885-2.323,2.35-3.784c1.027-3.199,0.214-6.701-2.109-9.126
			c-4.923-5.133-7.634-11.878-7.634-18.994c0-10.6,14.648-40.606,27.446-63.834c12.798,23.229,27.446,53.234,27.446,63.834
			c0,7.116-2.711,13.861-7.634,18.994c-2.323,2.426-3.136,5.928-2.108,9.126c0.465,1.461,1.282,2.752,2.35,3.784
			c-1.166,4.48-1.756,9.108-1.756,13.839c0,30.269,24.623,54.891,54.891,54.891c15.21,0,29.353-6.08,39.824-17.118
			c1.305-1.376,2.153-3.127,2.421-5.008c1.197-8.425,6.102-15.693,13.455-19.941c9.185-5.303,42.491-7.621,69.007-8.148
			c-13.718,22.697-32.382,50.384-41.566,55.686c-6.156,3.547-13.352,4.579-20.249,2.886c-2.64-0.648-5.392-0.08-7.549,1.479
			c-26.289,4.19-46.194,27.066-46.194,54.203c0,27.138,19.905,50.013,46.194,54.204c2.158,1.563,4.927,2.135,7.549,1.478
			c6.897-1.711,14.085-0.67,20.254,2.89c9.18,5.298,27.843,32.985,41.562,55.682C427.379,369.568,394.068,367.249,384.888,361.942z"
			/>
	</g>
</g>
<g>
	<g>
		<path d="M256,210.097c-25.221,0-45.743,20.522-45.743,45.743c0,25.221,20.522,45.743,45.743,45.743
			c25.221,0,45.743-20.522,45.743-45.743C301.743,230.619,281.221,210.097,256,210.097z M256,283.286
			c-15.134,0-27.446-12.311-27.446-27.446c0-15.134,12.311-27.446,27.446-27.446s27.446,12.311,27.446,27.446
			C283.445,270.975,271.134,283.286,256,283.286z"/>
	</g>
</g>
</svg>