<?xml version="1.0" encoding="iso-8859-1"?>
<!-- Uploaded to: SVG Repo, www.svgrepo.com, Generator: SVG Repo Mixer Tools -->
<svg height="800px" width="800px" version="1.1" id="Layer_1" xmlns="http://www.w3.org/2000/svg" xmlns:xlink="http://www.w3.org/1999/xlink" 
	 viewBox="0 0 512 512" xml:space="preserve">
<g>
	<path style="fill:#E6E6E6;" d="M67.025,420.109v9.508c0,15.945-12.937,28.883-28.895,28.883c-7.973,0-15.19-3.231-20.415-8.456
		c-5.224-5.237-8.456-12.467-8.456-20.427v-26.481h57.753v15.958C67.013,419.428,67.013,419.775,67.025,420.109z"/>
	<path style="fill:#E6E6E6;" d="M502.207,403.136v26.481c0,7.96-3.244,15.19-8.468,20.427c-5.224,5.224-12.43,8.456-20.415,8.456
		c-15.945,0-28.895-12.937-28.895-28.883v-10.523v-15.958h0.012H502.207z"/>
	<path style="fill:#E6E6E6;" d="M67.013,299.392v68.239H9.26v-67.743c0-15.958,12.925-28.883,28.87-28.883
		C53.927,271.005,66.753,283.657,67.013,299.392z"/>
</g>
<g>
	<path style="fill:#CCCCCC;" d="M31.012,457.621c2.278,0.569,4.667,0.879,7.131,0.879c7.973,0,15.19-3.231,20.415-8.456
		c5.224-5.237,8.456-12.467,8.456-20.427v-26.481H52.776v26.481c0,7.96-3.231,15.19-8.456,20.427
		C40.705,453.659,36.125,456.321,31.012,457.621z"/>
	<path style="fill:#CCCCCC;" d="M31.024,271.884c12.504,3.169,21.752,14.509,21.752,28.004v67.743h14.237v-67.743
		c0-15.958-12.925-28.883-28.87-28.883C35.692,271.005,33.302,271.314,31.024,271.884z"/>
</g>
<path style="fill:#E6E6E6;" d="M444.43,376.037v-76.149c0-15.958,12.949-28.883,28.895-28.883c15.945,0,28.883,12.925,28.883,28.883
	v67.743h-57.765v39.22h-0.012V376.037z"/>
<g>
	<path style="fill:#CCCCCC;" d="M480.431,457.621c-2.278,0.569-4.667,0.879-7.131,0.879c-7.973,0-15.19-3.231-20.415-8.456
		c-5.224-5.237-8.456-12.467-8.456-20.427v-26.481h14.237v26.481c0,7.96,3.231,15.19,8.456,20.427
		C470.737,453.659,475.318,456.321,480.431,457.621z"/>
	<path style="fill:#CCCCCC;" d="M480.419,271.884c-12.504,3.169-21.752,14.509-21.752,28.004v67.743H444.43v-67.743
		c0-15.958,12.925-28.883,28.87-28.883C475.751,271.005,478.141,271.314,480.419,271.884z"/>
	<path style="fill:#CCCCCC;" d="M351.852,125.601h-18.57V88.028c0-9.824-7.991-17.815-17.815-17.815H195.976
		c-9.824,0-17.816,7.991-17.816,17.815v37.573h-18.57V88.028c0-20.063,16.323-36.385,36.386-36.385h119.492
		c20.062,0,36.385,16.322,36.385,36.385L351.852,125.601L351.852,125.601z"/>
</g>
<path style="fill:#999999;" d="M512,371.923v26.922c0,3.396-2.753,6.149-6.149,6.149h-68.067H6.149
	c-3.396,0-6.149-2.753-6.149-6.149v-26.922c0-3.396,2.753-6.149,6.149-6.149h431.636h68.066
	C509.247,365.773,512,368.527,512,371.923z"/>
<path style="fill:#E6E6E6;" d="M444.43,404.993v15.958c0,21.764-17.642,39.406-39.406,39.406H106.431
	c-21.43,0-38.861-17.097-39.406-38.39v-16.973V374.18V298.03c0-0.161,0-0.334-0.012-0.495V177.907
	c0-25.825,20.922-46.747,46.759-46.759h283.911c25.837,0.012,46.747,20.935,46.747,46.759V298.03v76.149L444.43,404.993
	L444.43,404.993z"/>
<path style="fill:#CCCCCC;" d="M382.171,138.6h-39.604H168.876h-39.591c-8.567,0-15.512,6.945-15.512,15.512v6.128v191.222
	c0,21.367,17.321,38.688,38.688,38.688H168.9v17.796c0,2.383,1.931,4.314,4.314,4.314h33.375c2.383,0,4.314-1.931,4.314-4.314
	V390.15h0.012h89.619v17.796c0,2.383,1.931,4.314,4.314,4.314h33.388c2.383,0,4.314-1.931,4.314-4.314V390.15h16.428
	c21.373,0,38.7-17.327,38.7-38.7V160.241v-6.128C397.683,145.546,390.738,138.6,382.171,138.6z"/>
<path style="fill:#F2F2F2;" d="M397.683,131.148v191.222c0,21.368-17.332,38.688-38.7,38.688h-16.428h-42.018h-89.619h-0.012H168.9
	H152.46c-21.368,0-38.688-17.32-38.688-38.688V131.148v-6.128c0-8.567,6.945-15.512,15.512-15.512h39.591h173.691h39.591
	c8.567,0,15.525,6.945,15.525,15.512L397.683,131.148L397.683,131.148z"/>
<polygon style="fill:#F95428;" points="319.181,193.159 319.181,249.934 284.109,249.934 284.109,285.006 227.334,285.006 
	227.334,249.934 192.262,249.934 192.262,193.159 227.334,193.159 227.334,158.087 284.109,158.087 284.109,193.159 "/>
<path style="fill:#CCCCCC;" d="M444.43,400.524v20.427c0,21.764-17.642,39.406-39.406,39.406H106.431
	c-21.43,0-38.861-17.097-39.406-38.39v-20.427c0.545,21.294,17.976,38.39,39.406,38.39h298.593
	C426.788,439.93,444.43,422.288,444.43,400.524z"/>
<g>
	<path style="fill:#B3B3B3;" d="M210.906,361.057v36.974c0,3.073-2.491,5.564-5.564,5.564h-30.879c-3.073,0-5.564-2.491-5.564-5.564
		v-36.974v-33.124c0-3.073,2.491-5.564,5.564-5.564h30.879c3.073,0,5.564,2.491,5.564,5.564V361.057z"/>
	<path style="fill:#B3B3B3;" d="M300.537,361.057v-33.124c0-3.073,2.491-5.564,5.564-5.564h30.892c3.073,0,5.564,2.491,5.564,5.564
		v33.124v36.974c0,3.073-2.491,5.564-5.564,5.564h-30.892c-3.073,0-5.564-2.491-5.564-5.564V361.057z"/>
</g>
</svg>