<?xml version="1.0" encoding="iso-8859-1"?>
<!-- Uploaded to: SVG Repo, www.svgrepo.com, Generator: SVG Repo Mixer Tools -->
<svg fill="#000000" height="800px" width="800px" version="1.1" id="Layer_1" xmlns="http://www.w3.org/2000/svg" xmlns:xlink="http://www.w3.org/1999/xlink" 
	 viewBox="0 0 512 512" xml:space="preserve">
<g>
	<g>
		<path d="M510.578,234.626C500.218,110.58,400.78,11.339,276.732,0.979c-1.164-0.565-2.71-0.968-4.09-0.968h-35.309
			c-1.381,0-2.671,0.403-3.835,0.968C109.451,11.34,10.781,110.551,0.422,234.598c-0.566,1.164-0.399,2.483-0.399,3.863v35.309
			c0,1.38-0.167,2.67,0.399,3.834c10.359,124.047,109.286,223.172,233.333,233.533c1.164,0.566,2.197,0.852,3.578,0.852h35.309
			c1.38,0,2.67-0.287,3.834-0.852c124.047-10.361,223.742-109.515,234.102-233.561c0.566-1.164,1.422-2.426,1.422-3.806v-35.309
			C512,237.081,511.143,235.79,510.578,234.626z M282.493,141.362V19.261c110.34,12.25,197.099,99.918,209.349,210.258H369.741
			c-4.875,0-7.803,4.068-7.803,8.942v8.712h-97.099v-97.099h7.803C277.517,150.074,282.493,146.237,282.493,141.362z
			 M247.184,17.961c2.207-0.107,5.871-0.18,8.827-0.18c2.957,0,4.414,0.073,8.827,0.18v114.458h-17.654V17.961z M229.53,19.261
			v122.101c0,4.875,2.929,8.712,7.803,8.712h9.851v97.099h-97.099v-8.712c0-4.875-4.976-8.942-9.851-8.942H18.132
			C30.384,119.179,119.19,31.511,229.53,19.261z M16.654,256c0-2.957,0.073-6.62,0.18-8.827h115.597v17.654H16.834
			C16.727,262.62,16.654,258.957,16.654,256z M229.53,370.869V492.97C119.19,480.72,30.384,392.822,18.132,282.482h122.102
			c4.875,0,9.851-3.837,9.851-8.712v-8.942h97.099v97.099h-9.851C232.459,361.926,229.53,365.994,229.53,370.869z M264.839,494.27
			c-4.414,0.107-5.871,0.18-8.827,0.18c-2.957,0-6.62-0.073-8.827-0.18V379.581h17.654V494.27z M282.493,492.97V370.869
			c0-4.875-4.976-8.942-9.851-8.942h-7.803v-97.099h97.099v8.942c0,4.875,2.929,8.712,7.803,8.712h122.101
			C479.592,392.822,392.833,480.72,282.493,492.97z M493.141,264.827H379.592v-17.654h113.549c0.108,2.207,0.181,5.871,0.181,8.827
			C493.322,258.957,493.249,262.62,493.141,264.827z"/>
	</g>
</g>
</svg>