<?xml version="1.0" encoding="iso-8859-1"?>
<!-- Uploaded to: SVG Repo, www.svgrepo.com, Generator: SVG Repo Mixer Tools -->
<svg fill="#000000" height="800px" width="800px" version="1.1" id="Layer_1" xmlns="http://www.w3.org/2000/svg" xmlns:xlink="http://www.w3.org/1999/xlink" 
	 viewBox="0 0 511.998 511.998" xml:space="preserve">
<g>
	<g>
		<path d="M398.066,343.345c-1.013-3.12-3.71-5.394-6.956-5.865L303.09,324.69l-35.758-72.454l101.143-57.209
			c2.704-1.529,4.376-4.395,4.376-7.501V8.618c0-4.76-3.859-8.618-8.618-8.618H147.765c-4.759,0-8.618,3.859-8.618,8.618v178.907
			c0,3.106,1.672,5.972,4.376,7.501l101.143,57.209l-35.758,72.454l-88.019,12.789c-3.246,0.471-5.943,2.745-6.956,5.865
			c-1.013,3.12-0.168,6.545,2.181,8.834l63.691,62.083l-15.036,87.663c-0.554,3.234,0.774,6.501,3.429,8.428
			c2.653,1.928,6.172,2.182,9.075,0.656l78.727-41.39l78.725,41.39c1.262,0.663,2.638,0.989,4.009,0.989
			c1.787,0,3.566-0.555,5.066-1.647c2.654-1.928,3.983-5.195,3.429-8.428l-15.036-87.663l63.691-62.083
			C398.234,349.89,399.079,346.464,398.066,343.345z M338.187,17.236h17.428v165.263l-17.428,9.858V17.236z M173.811,192.356
			l-17.428-9.858V17.236h17.428V192.356z M191.048,202.106V17.236H320.95v184.87l-64.951,36.738L191.048,202.106z M316.918,405.082
			c-2.032,1.98-2.959,4.833-2.479,7.629l12.85,74.917l-67.279-35.372c-2.512-1.319-5.51-1.319-8.02,0l-67.281,35.372l12.85-74.917
			c0.479-2.796-0.447-5.649-2.479-7.629l-54.432-53.057l75.222-10.93c2.807-0.408,5.234-2.171,6.489-4.715L256,268.218
			l33.639,68.162c1.255,2.543,3.682,4.307,6.489,4.715l75.222,10.93L316.918,405.082z"/>
	</g>
</g>
<g>
	<g>
		<path d="M336.332,363.399c-1.013-3.12-3.71-5.394-6.956-5.865l-45.362-6.591l-20.287-41.102c-1.452-2.942-4.448-4.804-7.729-4.804
			c-3.281,0-6.276,1.863-7.729,4.804l-20.286,41.105l-45.362,6.591c-3.246,0.471-5.943,2.745-6.956,5.865
			c-1.013,3.12-0.168,6.544,2.181,8.834l32.824,31.996l-7.749,45.178c-0.554,3.234,0.774,6.501,3.429,8.428
			c2.653,1.929,6.172,2.182,9.075,0.656l40.573-21.33l40.574,21.33c1.262,0.663,2.638,0.989,4.009,0.989
			c1.787,0,3.566-0.555,5.066-1.647c2.654-1.928,3.983-5.195,3.429-8.428l-7.749-45.179l32.824-31.996
			C336.5,369.943,337.345,366.519,336.332,363.399z M286.053,395.053c-2.032,1.98-2.959,4.833-2.479,7.629l5.563,32.434
			l-29.128-15.314c-1.256-0.66-2.634-0.989-4.01-0.989c-1.377,0-2.754,0.33-4.01,0.989l-29.127,15.313l5.563-32.434
			c0.479-2.796-0.447-5.649-2.479-7.629l-23.564-22.97l32.565-4.732c2.807-0.408,5.234-2.171,6.489-4.715l14.563-29.509
			l14.564,29.509c1.256,2.543,3.682,4.307,6.489,4.715l32.565,4.732L286.053,395.053z"/>
	</g>
</g>
</svg>