<?xml version="1.0" encoding="iso-8859-1"?>
<!-- Uploaded to: SVG Repo, www.svgrepo.com, Generator: SVG Repo Mixer Tools -->
<svg fill="#000000" height="800px" width="800px" version="1.1" id="Layer_1" xmlns="http://www.w3.org/2000/svg" xmlns:xlink="http://www.w3.org/1999/xlink" 
	 viewBox="0 0 512 512" xml:space="preserve">
<g>
	<g>
		<path d="M512,0l-93.029,7.258l-74.069,99.383l-20.004-20.004l-21.462,21.462l21.685,21.685L65.144,389.758L51.69,376.304
			L0,427.995L84.004,512l51.691-51.69l-13.454-13.454l65.38-65.38l62.543,62.543l51.691-51.69l-30.643-30.643
			c11.697-19.571,11.697-44.23,0-63.802l24.554-24.554l62.543,62.543l51.69-51.691l-62.543-62.543l34.759-34.759l21.685,21.685
			l21.462-21.462l-20.005-20.005l99.383-74.069L512,0z M84.004,469.076l-41.08-41.081l8.766-8.766l12.988,12.987l28.093,28.094
			L84.004,469.076z M250.164,401.094l-41.081-41.081l8.766-8.766l20.54,20.54l12.69,12.69l7.85,7.849L250.164,401.094z
			 M239.311,329.784l9.041-9.041c1.735,5.891,1.735,12.19,0,18.082l-4.521-4.52L239.311,329.784z M367.075,284.182l-8.766,8.766
			l-41.081-41.081l8.766-8.766L367.075,284.182z M325.994,200.176l-37.352,37.353l-37.561,37.561l-6.016,6.016L100.778,425.393
			L86.605,411.22l259.977-259.975l7.086,7.086l7.086,7.086L325.994,200.176z M383.668,145.407l-17.077-17.076l62.11-83.336
			l38.304,38.304L383.668,145.407z M477.579,50.948L461.051,34.42l17.927-1.398L477.579,50.948z"/>
	</g>
</g>
</svg>