<?xml version="1.0" encoding="iso-8859-1"?>
<!-- Uploaded to: SVG Repo, www.svgrepo.com, Generator: SVG Repo Mixer Tools -->
<svg fill="#000000" height="800px" width="800px" version="1.1" id="Layer_1" xmlns="http://www.w3.org/2000/svg" xmlns:xlink="http://www.w3.org/1999/xlink" 
	 viewBox="0 0 512 512" xml:space="preserve">
<g>
	<g>
		<path d="M503.467,247.355h-34.319c-4.385-110.933-92.692-200.119-203.625-204.503V8.533c0-4.712-3.817-8.533-8.533-8.533
			c-4.717,0-8.533,3.821-8.533,8.533v34.319c-110.933,4.384-201.221,93.57-205.604,204.503H8.533c-4.717,0-8.533,3.821-8.533,8.533
			s3.817,8.533,8.533,8.533h34.319c4.383,110.933,94.671,200.342,205.604,204.726v34.319c0,4.713,3.817,8.533,8.533,8.533
			c4.717,0,8.533-3.821,8.533-8.533v-34.319c110.933-4.384,199.24-93.793,203.625-204.726h34.319c4.717,0,8.533-3.821,8.533-8.533
			S508.183,247.355,503.467,247.355z M248.456,59.93v102.608c-46.933,4.073-81.846,40.017-85.919,84.817H59.929
			C64.292,147.089,146.056,64.293,248.456,59.93z M248.456,452.07c-102.4-4.363-184.164-85.248-188.527-187.648h102.608
			c4.073,44.8,38.985,80.967,85.919,85.04V452.07z M256,332.8c-42.35,0-76.8-34.454-76.8-76.8c0-42.346,34.45-76.8,76.8-76.8
			c42.35,0,76.8,34.454,76.8,76.8C332.8,298.346,298.35,332.8,256,332.8z M265.523,452.07V349.462
			c44.8-4.073,79.865-40.24,83.938-85.04h102.608C447.706,366.822,365.79,447.707,265.523,452.07z M349.461,247.355
			c-4.073-44.8-39.138-80.744-83.938-84.817V59.93c100.267,4.363,182.183,87.158,186.546,187.425H349.461z"/>
	</g>
</g>
</svg>