<?xml version="1.0" encoding="iso-8859-1"?>
<!-- Uploaded to: SVG Repo, www.svgrepo.com, Generator: SVG Repo Mixer Tools -->
<svg fill="#000000" height="800px" width="800px" version="1.1" id="Layer_1" xmlns="http://www.w3.org/2000/svg" xmlns:xlink="http://www.w3.org/1999/xlink" 
	 viewBox="0 0 512 512" xml:space="preserve">
<g>
	<g>
		<path d="M507.558,248.347l-157.783-86.292L263.483,4.272c-2.983-5.475-11.983-5.475-14.967,0l-86.292,157.783L4.442,248.347
			C1.7,249.843,0,252.714,0,255.834c0,3.121,1.7,5.992,4.442,7.488l157.783,86.292l86.292,157.783
			c1.492,2.738,4.367,4.437,7.483,4.437c3.117,0,5.992-1.7,7.483-4.437l86.292-157.783l157.783-86.292
			c2.742-1.496,4.442-4.367,4.442-7.488C512,252.714,510.3,249.843,507.558,248.347z M339.4,335.839
			c-1.433,0.783-2.608,1.962-3.392,3.392L256,485.518L175.992,339.23c-0.783-1.429-1.958-2.608-3.392-3.392L26.317,255.834
			L172.6,175.83c1.433-0.783,2.608-1.962,3.392-3.392L256,26.151l80.008,146.287c0.783,1.429,1.958,2.608,3.392,3.392
			l146.283,80.004L339.4,335.839z"/>
	</g>
</g>
<g>
	<g>
		<path d="M256,213.168c-23.525,0-42.667,19.142-42.667,42.667c0,23.525,19.142,42.667,42.667,42.667
			c23.525,0,42.667-19.142,42.667-42.667C298.667,232.309,279.525,213.168,256,213.168z M256,281.434
			c-14.117,0-25.6-11.483-25.6-25.6c0-14.116,11.483-25.6,25.6-25.6s25.6,11.484,25.6,25.6
			C281.6,269.951,270.117,281.434,256,281.434z"/>
	</g>
</g>
</svg>