<?xml version="1.0" encoding="iso-8859-1"?>
<!-- Uploaded to: SVG Repo, www.svgrepo.com, Generator: SVG Repo Mixer Tools -->
<svg version="1.1" id="Layer_1" xmlns="http://www.w3.org/2000/svg" xmlns:xlink="http://www.w3.org/1999/xlink" 
	 viewBox="0 0 512 512" xml:space="preserve">
<g>
	<path style="fill:#424242;" d="M444.903,422.563h-31.349V294.857c0-92.4-75.173-167.573-167.573-167.573V95.935
		c109.687,0,198.922,89.236,198.922,198.922V422.563z"/>
	<rect x="172.137" y="52.969" style="fill:#424242;" width="147.696" height="31.349"/>
</g>
<path style="fill:#FFAC00;" d="M151.996,158.186c-43.611,0-79.092-35.481-79.092-79.093S108.386,0,151.996,0
	c43.612,0,79.093,35.481,79.093,79.093S195.608,158.186,151.996,158.186z M151.996,31.349c-26.325,0-47.743,21.418-47.743,47.744
	s21.418,47.744,47.743,47.744c26.326,0,47.744-21.418,47.744-47.744S178.322,31.349,151.996,31.349z"/>
<path style="fill:#C2C2C2;" d="M245.98,202.033c12.979,0,25.596,1.54,37.688,4.432V37.726c0-20.815-16.873-37.688-37.688-37.688
	s-37.688,16.873-37.688,37.688v168.739C220.386,203.573,233.003,202.033,245.98,202.033z"/>
<path style="fill:#EAEAEA;" d="M245.98,0.037c-20.815,0-37.688,16.873-37.688,37.688v168.739c12.093-2.89,24.709-4.432,37.688-4.432
	L245.98,0.037L245.98,0.037z"/>
<path style="fill:#048F46;" d="M376.979,381.001C376.979,453.35,318.329,512,245.98,512l0,0
	c-72.349,0-130.999-58.65-130.999-130.999v-86.144c0-72.349,58.65-130.999,130.999-130.999l0,0
	c72.349,0,130.999,58.65,130.999,130.999V381.001z"/>
<path style="fill:#3DDB86;" d="M245.98,163.858c-72.349,0-130.999,58.65-130.999,130.999v86.144
	C114.981,453.35,173.632,512,245.98,512V163.858z"/>
<g>
	<rect x="67.097" y="322.249" style="fill:#424242;" width="362.135" height="31.349"/>
</g>
</svg>