<?xml version="1.0" encoding="iso-8859-1"?>
<!-- Uploaded to: SVG Repo, www.svgrepo.com, Generator: SVG Repo Mixer Tools -->
<svg height="800px" width="800px" version="1.1" id="Layer_1" xmlns="http://www.w3.org/2000/svg" xmlns:xlink="http://www.w3.org/1999/xlink" 
	 viewBox="0 0 512 512" xml:space="preserve">
<path style="fill:#424242;" d="M441.079,185.211L308.024,380.214l75.926-204.065l-29.628-10.109l-82.67,223.835V162.728h-31.304
	v227.147L157.678,166.04l-29.628,10.109l75.926,204.065L70.922,185.211c-19.875,0.09-25.858,17.643-25.858,17.643L256.001,512
	l210.936-309.146C466.937,202.854,460.954,185.3,441.079,185.211z"/>
<path style="fill:#FF7565;" d="M256.001,0C142.171,0,49.398,90.088,45.05,202.854h0.101c14.094-12.835,32.828-20.66,53.393-20.66
	c20.131,0,38.498,7.513,52.485,19.871c13.988-12.358,32.355-19.871,52.486-19.871s38.498,7.513,52.485,19.871l0,0l0,0
	c13.988-12.358,32.355-19.871,52.485-19.871c20.131,0,38.498,7.513,52.486,19.871c13.988-12.358,32.354-19.871,52.485-19.871
	c20.563,0,39.299,7.826,53.393,20.66h0.101C462.603,90.088,369.83,0,256.001,0z"/>
<g>
	<path style="fill:#EE2712;" d="M150.564,201.67c0.153,0.134,0.313,0.259,0.465,0.393c13.988-12.358,32.355-19.871,52.485-19.871
		c20.131,0,38.498,7.513,52.486,19.871V0C199.344,0,153.128,144.737,150.564,201.67z"/>
	<path style="fill:#EE2712;" d="M256.001,0c113.83,0,206.603,90.088,210.95,202.854h-0.101
		c-14.094-12.835-32.828-20.66-53.393-20.66c-19.912,0-38.091,7.36-52.021,19.477C358.873,144.737,312.656,0,256.001,0z"/>
</g>
</svg>