<?xml version="1.0" encoding="iso-8859-1"?>
<!-- Uploaded to: SVG Repo, www.svgrepo.com, Generator: SVG Repo Mixer Tools -->
<svg fill="#000000" height="800px" width="800px" version="1.1" id="Layer_1" xmlns="http://www.w3.org/2000/svg" xmlns:xlink="http://www.w3.org/1999/xlink" 
	 viewBox="0 0 512 512" xml:space="preserve">
<g>
	<g>
		<path d="M260.594,227.039c-15.977,0-28.974,12.997-28.974,28.974c0,15.977,12.997,28.974,28.974,28.974
			c15.977,0,28.974-12.997,28.974-28.974C289.568,240.036,276.571,227.039,260.594,227.039z M260.594,265.671
			c-5.324,0-9.658-4.334-9.658-9.658c0-5.324,4.334-9.658,9.658-9.658c5.324,0,9.658,4.334,9.658,9.658
			C270.252,261.338,265.918,265.671,260.594,265.671z"/>
	</g>
</g>
<g>
	<g>
		<path d="M505.259,449.546c-59.079-16.878-168.696-129.962-185.597-149.075v-44.583h13.556l35.732,44.727
			c1.83,2.292,4.607,3.657,7.54,3.657c2.933,0,5.711-1.318,7.541-3.61c117.41-146.756,90.049-282.428,88.827-288.13
			c-0.929-4.334-4.692-7.475-9.12-7.625c-4.48-0.33-8.394,2.679-9.611,6.937C437.247,70.922,324.163,181.038,305.05,197.939h-52.994
			v-20.987l44.174-35.732c2.292-1.83,3.381-4.607,3.381-7.541c0-2.933-1.456-5.711-3.748-7.54
			C149.116,8.739,13.376,36.11,7.665,37.313c-4.334,0.929-7.51,4.692-7.661,9.121c-0.146,4.433,3.284,8.394,7.543,9.611
			c59.245,16.929,176.902,135.849,196.218,155.58v44.264h-22.233l-35.732-44.6c-3.66-4.585-11.422-4.553-15.081,0.031
			C13.31,358.075,40.671,493.77,41.893,499.471c0.929,4.334,4.692,7.486,9.121,7.637c0.108,0.005,0.221,0.009,0.33,0.009
			c4.296,0,8.092-2.847,9.281-7.002c16.976-59.419,131.268-169.374,149.394-186.52c0.737,0.179,1.495,0.239,2.286,0.239h49.41
			v14.802l-45.224,35.732c-2.292,1.83-3.907,4.607-3.907,7.54c0,2.933,1.194,5.711,3.486,7.541
			c98.664,78.933,192.251,92.435,244.771,92.435c25.598,0,41.394-3.211,43.261-3.607c4.334-0.929,7.742-4.692,7.893-9.121
			C512.141,454.724,509.517,450.763,505.259,449.546z M319.662,211.908c16.901-16.416,100.17-96.557,137.703-160.056
			c0.368,46.908-10.613,134.707-80.699,227.208l-31.127-38.798c-1.831-2.292-4.748-3.69-7.681-3.69h-18.196V211.908z
			 M203.766,295.202c-2.414,0.427-2.913,1.095-3.913,2.023c-4.749,4.414-100.932,93.628-141.907,162.951
			c-0.368-46.908,10.332-134.707,80.419-227.208l30.988,38.673c1.83,2.292,4.607,3.563,7.54,3.563h26.873V295.202z M46.826,53.302
			c47.04-0.277,134.755,10.331,227.298,80.451l-38.246,31.004c-2.292,1.83-3.137,4.623-3.137,7.556v25.627h-16.326
			C199.168,181.038,112.424,91.996,46.826,53.302z M223.082,294.519v-77.264h77.264v77.264H223.082z M237.547,371.806l39.296-30.988
			c2.292-1.83,4.187-4.607,4.187-7.541v-19.442h23.669c16.417,16.901,96.558,100.792,160.057,138.327
			C418.022,452.478,330.039,441.892,237.547,371.806z"/>
	</g>
</g>
</svg>