<?xml version="1.0" encoding="iso-8859-1"?>
<!-- Uploaded to: SVG Repo, www.svgrepo.com, Generator: SVG Repo Mixer Tools -->
<svg fill="#000000" height="800px" width="800px" version="1.1" id="Layer_1" xmlns="http://www.w3.org/2000/svg" xmlns:xlink="http://www.w3.org/1999/xlink" 
	 viewBox="0 0 512 512" xml:space="preserve">
<g>
	<g>
		<path d="M256,292.47c-20.165,0-36.571,16.406-36.571,36.572c0,20.165,16.406,36.571,36.571,36.571
			c20.165,0,36.572-16.406,36.572-36.571C292.572,308.877,276.165,292.47,256,292.47z M256,347.328
			c-10.085,0-18.286-8.201-18.286-18.286c0-10.085,8.201-18.286,18.286-18.286c10.085,0,18.286,8.201,18.286,18.286
			C274.286,339.127,266.085,347.328,256,347.328z"/>
	</g>
</g>
<g>
	<g>
		<path d="M510.742,461.556l-79.067-134.71c-2.384-4.058-7.473-5.643-11.719-3.67c-8.424,3.893-17.442,5.866-26.813,5.866
			c-35.29,0-64-28.71-64-64c0-20.375,9.844-39.719,26.331-51.745c3.794-2.772,4.875-7.964,2.496-12.018L263.884,40.984
			c-3.277-5.59-12.491-5.59-15.768,0l-94.085,160.295c-2.379,4.054-1.299,9.245,2.496,12.018
			c16.487,12.027,26.33,31.371,26.33,51.745c0,35.29-28.71,64-64,64c-9.371,0-18.388-1.973-26.812-5.866
			c-4.259-1.969-9.344-0.388-11.719,3.67L1.259,461.556c-1.661,2.83-1.679,6.267-0.049,9.115c1.63,2.843,4.656,4.538,7.933,4.538
			h173.715c5.049,0,9.143-4.033,9.143-9.084c0-35.289,28.71-63.97,64-63.97c35.29,0,64,28.665,64,63.955
			c0,5.049,4.094,9.098,9.143,9.098h173.715c3.277,0,6.304-1.695,7.933-4.538C512.42,467.823,512.402,464.386,510.742,461.556z
			 M337.781,456.923c-4.563-41.143-39.5-73.143-81.781-73.143c-42.281,0-77.219,32-81.781,73.143H25.111l67-114.096
			c8.563,2.951,17.527,4.471,26.745,4.471c45.371,0,82.286-36.9,82.286-82.27c0-23.406-10.103-45.748-27.371-61.27L256,63.672
			l82.228,140.091c-17.268,15.522-27.371,37.872-27.371,61.278c0,45.371,36.915,82.286,82.286,82.286
			c9.219,0,18.183-1.55,26.746-4.501l67,114.097H337.781z"/>
	</g>
</g>
</svg>