<?xml version="1.0" encoding="iso-8859-1"?>
<!-- Uploaded to: SVG Repo, www.svgrepo.com, Generator: SVG Repo Mixer Tools -->
<svg version="1.1" id="Layer_1" xmlns="http://www.w3.org/2000/svg" xmlns:xlink="http://www.w3.org/1999/xlink" 
	 viewBox="0 0 512 512" xml:space="preserve">
<polygon style="fill:#CCCCCC;" points="358.149,123.869 288.845,138.407 138.65,169.901 70.685,184.156 79.44,225.899 
	105.181,236.136 124.088,216.538 150.226,211.052 298.182,180.032 366.905,165.624 376.913,143.716 "/>
<polygon style="fill:#B3B3B3;" points="149.832,199.693 77.142,214.938 79.44,225.899 105.181,236.136 124.088,216.538 
	150.226,211.052 298.182,180.032 366.905,165.624 372.692,152.955 315.137,165.029 "/>
<g>
	<path style="fill:#088443;" d="M309.762,244.235c-4.094,0-7.776-2.844-8.677-7.007L278.146,131.33
		c-1.039-4.796,2.007-9.528,6.804-10.567c4.803-1.039,9.529,2.007,10.567,6.804l22.939,105.898
		c1.039,4.796-2.007,9.528-6.804,10.567C311.017,244.169,310.384,244.235,309.762,244.235z"/>
	<path style="fill:#088443;" d="M158.097,250.554c-4.026,0-7.674-2.756-8.64-6.845l-19.373-82.002
		c-1.128-4.776,1.828-9.563,6.605-10.691c4.773-1.133,9.563,1.827,10.691,6.605l19.373,82.002c1.128,4.776-1.828,9.563-6.605,10.691
		C159.461,250.477,158.774,250.554,158.097,250.554z"/>
</g>
<polygon style="fill:#06B559;" points="455.677,259.929 79.442,259.929 79.442,225.899 124.088,216.538 151.767,216.538 
	306.382,216.538 388.138,216.538 "/>
<path style="fill:#088443;" d="M502.033,285.25l-24.26-16.434H62.888c-14.356,0-28.322,2.867-41.51,8.523l-14.375,6.163L0,267.165
	l14.374-6.161c15.413-6.609,31.736-9.961,48.514-9.961h417.611c1.777,0,3.513,0.533,4.984,1.53L512,270.534L502.033,285.25z"/>
<line style="fill:none;stroke:#333333;stroke-width:15;stroke-linejoin:round;stroke-miterlimit:10;" x1="484.853" y1="340.144" x2="485.493" y2="339.528"/>
<g>
	<path style="fill:#999999;" d="M179.475,353.418c0-16.612-13.471-30.083-30.083-30.083c-16.626,0-30.097,13.471-30.097,30.083
		s13.471,30.083,30.097,30.083C166.004,383.502,179.475,370.03,179.475,353.418z"/>
	<path style="fill:#999999;" d="M284.676,358.648c0-13.727-11.127-24.854-24.854-24.854c-13.713,0-24.84,11.127-24.84,24.854
		c0,13.727,11.127,24.854,24.84,24.854C273.549,383.502,284.676,372.375,284.676,358.648z"/>
	<path style="fill:#999999;" d="M409.841,351.5c0-17.677-14.338-32.017-32.017-32.017c-17.663,0-32.002,14.338-32.002,32.017
		c0,17.678,14.338,32.002,32.002,32.002C395.503,383.502,409.841,369.178,409.841,351.5z"/>
	<path style="fill:#999999;" d="M483.678,334.206c5.997-4.078,9.933-10.957,9.933-18.758c0-12.519-10.16-22.68-22.68-22.68
		c-12.534,0-22.694,10.16-22.694,22.68c0,12.534,10.16,22.68,22.694,22.68C475.649,338.128,480.054,336.678,483.678,334.206z"/>
	<path style="fill:#999999;" d="M38.422,347.407c2.956,1.065,6.139,1.648,9.464,1.648c15.305,0,27.725-12.406,27.725-27.725
		c0-15.305-12.42-27.725-27.725-27.725c-15.319,0-27.725,12.42-27.725,27.725c0,11.965,7.574,22.154,18.189,26.047
		C38.379,347.379,38.394,347.393,38.422,347.407z"/>
</g>
<path style="fill:#088443;" d="M483.678,334.206l-36.222,34.744c-9.72,9.336-22.68,14.552-36.152,14.552h-33.48
	c17.677,0,32.017-14.324,32.017-32.002s-14.338-32.017-32.017-32.017c-17.663,0-32.002,14.338-32.002,32.017
	c0,17.678,14.338,32.002,32.002,32.002H259.821c13.727,0,24.854-11.127,24.854-24.854c0-13.727-11.127-24.854-24.854-24.854
	c-13.713,0-24.84,11.127-24.84,24.854c0,13.727,11.127,24.854,24.84,24.854h-110.43c16.612,0,30.083-13.472,30.083-30.083
	c0-16.611-13.471-30.083-30.083-30.083c-16.626,0-30.097,13.471-30.097,30.083s13.471,30.083,30.097,30.083h-22.267
	c-7.943,0-15.802-1.549-23.163-4.533l-65.538-31.562c2.956,1.065,6.139,1.648,9.464,1.648c15.305,0,27.725-12.406,27.725-27.725
	c0-15.305-12.42-27.725-27.725-27.725l423.045-0.839c-12.534,0-22.694,10.16-22.694,22.68c0,12.534,10.16,22.68,22.694,22.68
	C475.649,338.128,480.054,336.678,483.678,334.206z"/>
<g>
	<path style="fill:#4D4D4D;" d="M149.392,392.738c-21.689,0-39.334-17.639-39.334-39.321c0-21.681,17.645-39.32,39.334-39.32
		c21.681,0,39.32,17.639,39.32,39.32C188.712,375.099,171.073,392.738,149.392,392.738z M149.392,332.571
		c-11.503,0-20.861,9.352-20.861,20.847c0,11.496,9.358,20.847,20.861,20.847c11.495,0,20.847-9.352,20.847-20.847
		C170.239,341.924,160.887,332.571,149.392,332.571z"/>
	<path style="fill:#4D4D4D;" d="M259.822,392.738c-18.79,0-34.077-15.293-34.077-34.091c0-18.798,15.286-34.09,34.077-34.09
		c18.798,0,34.09,15.293,34.09,34.09C293.912,377.444,278.619,392.738,259.822,392.738z M259.822,343.031
		c-8.603,0-15.603,7.006-15.603,15.617c0,8.612,7,15.618,15.603,15.618c8.611,0,15.617-7.006,15.617-15.618
		S268.432,343.031,259.822,343.031z"/>
	<path style="fill:#4D4D4D;" d="M377.825,392.738c-22.739,0-41.239-18.5-41.239-41.239c0-22.747,18.5-41.253,41.239-41.253
		c22.746,0,41.253,18.507,41.253,41.253C419.078,374.239,400.571,392.738,377.825,392.738z M377.825,328.72
		c-12.553,0-22.765,10.218-22.765,22.779c0,12.553,10.212,22.765,22.765,22.765c12.561,0,22.779-10.212,22.779-22.765
		C400.603,338.939,390.385,328.72,377.825,328.72z"/>
	<path style="fill:#4D4D4D;" d="M470.932,347.365c-17.607,0-31.931-14.318-31.931-31.917c0-17.599,14.324-31.917,31.931-31.917
		c17.599,0,31.917,14.318,31.917,31.917c0,10.577-5.225,20.445-13.977,26.396C483.574,345.456,477.371,347.365,470.932,347.365z
		 M470.932,302.005c-7.42,0-13.458,6.03-13.458,13.442c0,7.413,6.037,13.442,13.458,13.442c2.713,0,5.32-0.801,7.539-2.315
		c0.005-0.004,0.008-0.006,0.013-0.009c3.687-2.508,5.89-6.665,5.89-11.119C484.374,308.036,478.345,302.005,470.932,302.005z"/>
	<path style="fill:#4D4D4D;" d="M47.887,358.293c-4.318,0-8.556-0.739-12.598-2.197c-0.082-0.028-0.161-0.059-0.241-0.09
		c-14.434-5.352-24.123-19.27-24.123-34.674c0-20.381,16.581-36.961,36.961-36.961c20.381,0,36.961,16.581,36.961,36.961
		C84.848,341.711,68.268,358.293,47.887,358.293z M41.726,338.778c1.975,0.691,4.046,1.04,6.161,1.04
		c10.195,0,18.488-8.293,18.488-18.488c0-10.195-8.294-18.488-18.488-18.488s-18.488,8.294-18.488,18.488
		c0,7.703,4.841,14.664,12.056,17.347C41.545,338.71,41.637,338.743,41.726,338.778z"/>
	<path style="fill:#4D4D4D;" d="M411.305,392.738H127.125c-9.145,0-18.106-1.752-26.634-5.21c-0.181-0.073-0.361-0.153-0.538-0.238
		l-65.167-31.383c-14.29-5.423-23.86-19.265-23.86-34.576c0-20.381,16.581-36.961,36.961-36.961l423.027-0.838
		c0.006,0,0.012,0,0.018,0c17.599,0,31.917,14.318,31.917,31.917c0,10.297-4.952,19.921-13.287,25.913l-35.711,34.254
		C442.356,386.656,427.245,392.738,411.305,392.738z M107.694,370.514c6.235,2.489,12.769,3.751,19.431,3.751h284.181
		c11.146,0,21.713-4.254,29.752-11.977l36.227-34.75c0.372-0.358,0.774-0.682,1.2-0.972c3.687-2.508,5.89-6.665,5.89-11.119
		c0-7.408-6.024-13.435-13.429-13.442l-423.04,0.839c-10.212,0-18.505,8.294-18.505,18.488c0,7.699,4.834,14.656,12.043,17.343
		c0.367,0.128,0.726,0.28,1.073,0.451L107.694,370.514z"/>
</g>
<path style="fill:#F95428;" d="M366.905,165.624l-8.756-41.755c31.755-6.659,64.6-6.09,96.106,1.647
	c-12.868,9.87-26.778,18.235-41.423,24.954C398.186,157.199,382.783,162.294,366.905,165.624z"/>
<path style="fill:#E54728;" d="M439.515,122.456c-9.274,6.129-18.985,11.545-29.054,16.164
	c-14.645,6.73-30.049,11.825-45.926,15.155l2.37,11.849c15.877-3.33,31.281-8.424,45.926-15.155
	c14.645-6.718,28.556-15.084,41.423-24.954C449.371,124.317,444.454,123.311,439.515,122.456z"/>
</svg>