<?xml version="1.0" encoding="iso-8859-1"?>
<!-- Uploaded to: SVG Repo, www.svgrepo.com, Generator: SVG Repo Mixer Tools -->
<svg fill="#000000" height="800px" width="800px" version="1.1" id="Layer_1" xmlns="http://www.w3.org/2000/svg" xmlns:xlink="http://www.w3.org/1999/xlink" 
	 viewBox="0 0 512 512" xml:space="preserve">
<g>
	<g>
		<path d="M504.018,11.345c-1.001-4.029-4.516-6.941-8.67-7.177c-4.062-0.218-7.966,2.258-9.431,6.148
			c-0.547,1.456-55.677,145.771-143.04,145.771c-40.162,0-63.151-15.894-89.774-34.297c-31.928-22.07-68.066-47.062-138.858-41.642
			c-51.884,3.992-86.76,18.338-103.666,42.634c-15.533,22.321-9.45,44.479-9.19,45.411c0.788,2.754,2.782,5.003,5.425,6.125
			c2.624,1.113,5.629,0.988,8.17-0.352c0.696-0.376,70.597-36.954,128.416-18.463c25.186,8.049,44.716,25.65,58.041,52.31
			c27.709,55.417,22.451,92.13,17.814,124.517c-4.748,33.138-9.236,64.435,21.069,104.834c47.896,63.87,108.2,70.685,131.754,70.681
			c5.75,0,9.31-0.403,9.959-0.487c3.691-0.459,6.77-3.032,7.882-6.584c1.113-3.547,0.056-7.419-2.717-9.904
			c-0.872-0.779-86.863-79.106-72.944-162.291c10.191-60.948,84.007-98.96,127.099-116.194
			C542.845,171.787,505.659,17.879,504.018,11.345z M434.311,194.747c-46.802,18.718-127.053,60.587-138.784,130.697
			c-11.638,69.545,35.748,133.187,62.279,162.565c-25.093-2.991-67.194-15.44-102.293-62.242
			c-25.576-34.103-21.996-59.099-17.462-90.744c4.785-33.402,10.738-74.974-19.622-135.705
			c-15.718-31.441-39.05-52.278-69.336-61.936c-13.771-4.386-27.922-6.13-41.73-6.13c-36.258,0-70.096,12.023-88.04,19.72
			c0.695-5.04,2.541-11.165,6.844-17.341c13.298-19.117,44.261-31.066,89.542-34.548c63.893-4.91,95.821,17.058,126.599,38.331
			c26.781,18.514,54.48,37.663,100.568,37.663c74.233,0,125.291-82.912,147.844-128.727
			C495.866,90.609,495.755,170.169,434.311,194.747z"/>
	</g>
</g>
</svg>