<?xml version="1.0" encoding="iso-8859-1"?>
<!-- Uploaded to: SVG Repo, www.svgrepo.com, Generator: SVG Repo Mixer Tools -->
<svg fill="#000000" height="800px" width="800px" version="1.1" id="Layer_1" xmlns="http://www.w3.org/2000/svg" xmlns:xlink="http://www.w3.org/1999/xlink" 
	 viewBox="0 0 512 512" xml:space="preserve">
<g>
	<g>
		<path d="M136.336,94.171c-17.223,0-34.063,4.216-49.126,12.25L70.387,89.598c-3.4-3.4-8.909-3.4-12.309,0l-13.399,13.397
			c-11.582-13.831-13.265-29.077-4.265-41.56c10.405-14.443,33.952-22.552,58.791-10.124c24.525,12.267,44.571,15.556,58.53,9.75
			c2.705-1.12,5.13-2.482,7.306-3.921v3.793c0,4.812,3.893,8.705,8.705,8.705s8.705-3.893,8.705-8.705V43.409h16.4
			c4.812,0,8.705-3.893,8.705-8.705S203.662,26,198.85,26h-16.4V8.705c0-4.811-3.893-8.705-8.705-8.705s-8.705,3.893-8.705,8.705V26
			h-18.419c-4.811,0-8.705,3.893-8.705,8.705s3.893,8.705,8.705,8.705h6.552c-0.699,0-1.547,1.073-2.599,1.511
			c-5.134,2.125-17.605,3.777-43.583-9.213c-33.536-16.772-65.983-4.873-80.706,15.529c-11.191,15.533-15.042,40.145,6.029,64.117
			l-5.009,5.013c-3.4,3.4-3.4,8.911,0,12.311l16.823,16.823c-8.033,15.063-12.25,31.903-12.25,49.126
			c0,57.601,46.856,104.457,104.457,104.457c57.601,0,104.457-46.854,104.457-104.455
			C240.793,141.027,193.937,94.171,136.336,94.171z M136.336,285.676c-47.995,0-87.048-39.052-87.048-87.048
			c0-16.304,4.531-32.201,13.1-45.964c2.142-3.434,1.632-7.889-1.233-10.753l-15.386-15.386l18.464-18.464l15.386,15.386
			c2.882,2.882,7.336,3.375,10.753,1.233c13.763-8.569,29.659-13.1,45.964-13.1c47.995,0,87.048,39.052,87.048,87.048
			S184.331,285.676,136.336,285.676z"/>
	</g>
</g>
<g>
	<g>
		<path d="M486.108,435.123h-16.4v-17.295c0-4.811-4.399-8.705-9.211-8.705c-4.195,0-7.942,2.961-8.769,6.909
			c-2.344-10.962-1.309-28.896,15.633-54.309c13.363-20.045,10.335-34.802,5.487-43.651c-7.785-14.239-26.535-23.3-47.515-22.808
			c-16.71,0.308-30.703,6.499-38.859,16.851l-13.614-13.603c-3.4-3.4-8.913-3.4-12.313,0l-16.825,16.823
			c-15.055-8.033-31.905-12.25-49.119-12.25c-57.601,0-104.457,46.856-104.457,104.457c0,57.601,46.856,104.457,104.457,104.457
			c57.601,0,104.457-46.856,104.457-104.457c0-17.223-4.216-34.063-12.25-49.126l16.823-16.823c1.632-1.632,2.55-3.842,2.55-6.154
			s-0.918-4.523-2.55-6.155l-4.701-4.699c5.243-8.473,17.038-11.735,26.693-11.912c14.103-0.467,27.321,5.39,31.895,13.754
			c4.59,8.39-0.059,18.517-4.769,25.581c-28.973,43.458-19.237,72.233-12.199,83.114h-6.673c-4.811,0-8.705,3.893-8.705,8.705
			c0,4.811,3.893,8.705,8.705,8.705h18.419v17.524c0,4.812,3.893,8.705,8.705,8.705c4.811,0,8.705-3.893,8.705-8.705v-17.524h16.4
			c4.812,0,8.705-3.893,8.705-8.705C494.812,439.017,490.919,435.123,486.108,435.123z M368.551,361.579
			c8.569,13.763,13.1,29.659,13.1,45.964c0,47.995-39.052,87.048-87.048,87.048s-87.048-39.052-87.048-87.048
			s39.052-87.048,87.048-87.048c16.304,0,32.192,4.531,45.955,13.1c3.426,2.142,7.88,1.649,10.753-1.233l15.386-15.386
			l18.472,18.464l-15.386,15.386C366.919,353.691,366.409,358.145,368.551,361.579z"/>
	</g>
</g>
</svg>