<?xml version="1.0" encoding="iso-8859-1"?>
<!-- Uploaded to: SVG Repo, www.svgrepo.com, Generator: SVG Repo Mixer Tools -->
<svg fill="#000000" height="800px" width="800px" version="1.1" id="Layer_1" xmlns="http://www.w3.org/2000/svg" xmlns:xlink="http://www.w3.org/1999/xlink" 
	 viewBox="0 0 512 512" xml:space="preserve">
<g>
	<g>
		<path d="M238.396,0c-2.797,0-5.432,1.347-7.059,3.627c-1.627,2.28-2.059,5.203-1.152,7.856c2.568,7.526,3.873,15.347,3.873,23.229
			c0,26.739-15.36,50.75-38.932,62.276c-1.411-0.994-3.123-1.644-4.983-1.644h-52.068c-4.797,0-7.672,3.996-7.672,8.792v373.153
			c0,19.144,15.568,34.712,34.712,34.712c19.144,0,34.712-15.568,34.712-34.712V182.559c19.525,12.184,34.733,35.258,34.733,60.424
			c0,10.831-2.665,21.195-7.428,30.805c-1.322,2.652-1.322,5.796,0.212,8.33c1.525,2.534,4.176,4.119,7.131,4.203
			c1.322,0.034,2.623,0.051,3.953,0.051c78.949,0,143.17-64.237,143.17-143.186C381.598,64.237,317.345,0,238.396,0z
			 M182.47,477.288c0,9.568-7.788,17.356-17.356,17.356c-9.568,0-17.356-7.788-17.356-17.356V112.699h34.712V477.288z
			 M247.557,268.687c2.559-8.254,4.358-16.856,4.358-25.703c0-34.688-21.716-66.203-52.089-79.773v-48.725
			c30.373-13.574,52.089-44.879,52.089-79.773c0-5.661-0.793-11.297-1.86-16.847c64.059,5.788,114.297,59.788,114.297,125.322
			C364.352,209.483,312.676,263.975,247.557,268.687z"/>
	</g>
</g>
</svg>