<?xml version="1.0" encoding="iso-8859-1"?>
<!-- Uploaded to: SVG Repo, www.svgrepo.com, Generator: SVG Repo Mixer Tools -->
<svg height="800px" width="800px" version="1.1" id="Layer_1" xmlns="http://www.w3.org/2000/svg" xmlns:xlink="http://www.w3.org/1999/xlink" 
	 viewBox="0 0 512 512" xml:space="preserve">
<path style="fill:#088443;" d="M390.769,8.631v422.388c0,3.092-1.655,5.948-4.336,7.486l-126.139,72.351
	c-2.659,1.526-5.928,1.526-8.588,0l-126.139-72.351c-2.683-1.538-4.336-4.394-4.336-7.486V8.631c0-4.767,3.864-8.631,8.631-8.631
	h252.279C386.905,0,390.769,3.864,390.769,8.631z"/>
<polygon style="fill:#06B559;" points="137.176,426.78 137.176,15.946 374.824,15.946 374.824,426.78 255.999,494.935 "/>
<path style="fill:#088443;" d="M255.999,480.506c-15.387,0-27.906-12.519-27.906-27.906s12.519-27.906,27.906-27.906
	s27.906,12.519,27.906,27.906S271.386,480.506,255.999,480.506z"/>
<g>
	<path style="fill:#FCBB29;" d="M255.999,433.281c10.659,0,19.319,8.648,19.319,19.319s-8.66,19.319-19.319,19.319
		c-10.672,0-19.319-8.648-19.319-19.319S245.328,433.281,255.999,433.281z"/>
	<polygon style="fill:#FCBB29;" points="359.429,274.666 359.429,347.417 255.999,397.341 152.558,347.417 152.558,274.666 
		255.999,324.59 	"/>
	<polygon style="fill:#FCBB29;" points="359.429,162.369 359.429,235.12 255.999,285.043 152.558,235.12 152.558,162.369 
		255.999,212.292 	"/>
	<polygon style="fill:#FCBB29;" points="359.429,50.071 359.429,122.81 255.999,172.746 152.558,122.822 152.558,50.071 
		255.999,99.995 	"/>
</g>
<g>
	<polygon style="fill:#E2A334;" points="255.999,99.995 255.999,172.746 152.558,122.822 152.558,50.071 	"/>
	<polygon style="fill:#E2A334;" points="152.558,162.369 255.999,212.292 255.999,285.043 152.558,235.12 	"/>
	<polygon style="fill:#E2A334;" points="152.558,274.666 255.999,324.59 255.999,397.341 152.558,347.417 	"/>
</g>
</svg>