<?xml version="1.0" encoding="iso-8859-1"?>
<!-- Uploaded to: SVG Repo, www.svgrepo.com, Generator: SVG Repo Mixer Tools -->
<svg fill="#000000" height="800px" width="800px" version="1.1" id="Layer_1" xmlns="http://www.w3.org/2000/svg" xmlns:xlink="http://www.w3.org/1999/xlink" 
	 viewBox="0 0 512 512" xml:space="preserve">
<g>
	<g>
		<path d="M480.143,110.931c-8.864-8.864-20.65-13.747-33.187-13.747s-24.322,4.882-33.187,13.747l-10.623,10.623l-2.834-2.834
			c-11.225-11.225-26.15-17.408-42.025-17.408c-15.875,0-30.8,6.183-42.025,17.408l-59.601,59.602l-28.663-28.663l-14.04,14.041
			l-12.463-12.463L331.218,21.515L309.704,0L28.744,280.959l21.515,21.515l129.722-129.722l12.463,12.463l-14.041,14.041
			l36.415,36.414l14.622,59.59l-94.277,94.277l-74.533-47.351l-42.499,42.499L145.448,512l145.669-145.669l34.867,34.868
			l140.551-140.552l-21.515-21.515L325.984,358.169l-13.352-13.352l167.511-167.512
			C498.442,159.006,498.442,129.231,480.143,110.931z M337.777,140.235c5.479-5.478,12.762-8.495,20.51-8.495
			c7.748,0,15.032,3.017,20.51,8.495l2.834,2.834l-40.052,40.052l-23.344-23.344L337.777,140.235z M278.177,199.837l18.544-18.546
			l23.344,23.344l-65.468,65.468l-9.198-37.488L278.177,199.837z M228.581,206.402l-7.147-7.147l6.565-6.566l7.147,7.148
			L228.581,206.402z M458.628,155.79L145.447,468.971l-84.285-84.285l3.739-3.739l74.533,47.351L314.29,253.44l110.371-110.371
			l10.623-10.623c3.118-3.118,7.263-4.835,11.673-4.835c4.409,0,8.554,1.717,11.672,4.835
			C465.063,138.882,465.063,149.355,458.628,155.79z"/>
	</g>
</g>
</svg>