<?xml version="1.0" encoding="iso-8859-1"?>
<!-- Uploaded to: SVG Repo, www.svgrepo.com, Generator: SVG Repo Mixer Tools -->
<svg fill="#000000" height="800px" width="800px" version="1.1" id="Layer_1" xmlns="http://www.w3.org/2000/svg" xmlns:xlink="http://www.w3.org/1999/xlink" 
	 viewBox="0 0 511.999 511.999" xml:space="preserve">
<g>
	<g>
		<path d="M366.443,121.569l-70.813,70.813l-9.268-9.268L417.209,52.265L364.945,0l-18.477,18.478L333.77,5.779l-21.527,21.527
			l12.697,12.697l-90.844,90.844l-17.527-17.527l-98.261,98.261l-21.16,21.16l21.527,21.527l18.312-18.312
			c0.712,2.617,1.089,5.343,1.089,8.129c-0.001,8.213-3.199,15.932-9.005,21.74c-45.708,45.708-45.709,120.082,0,165.79
			l80.383,80.383l93.659-93.659l-33.94-33.94l22.015-22.015c14.556-14.555,22.571-33.908,22.571-54.493
			c0-15.403-4.49-30.115-12.849-42.644l33.793-33.793l-17.548-17.548l70.813-70.813L366.443,121.569z M364.945,43.055l9.21,9.21
			l-109.32,109.321l-9.211-9.211L364.945,43.055z M209.455,468.946l-58.856-58.857c-30.165-30.166-33.414-77.183-9.799-111.009
			l41.593,41.592l-0.05,0.05l65.256,65.256l0.05-0.05l12.413,12.413L209.455,468.946z M269.663,340.859l-22.015,22.015
			l-22.181-22.181l12.39-12.39l12.676,12.676l21.527-21.527l-12.676-12.676l19.266-19.266c3.054,6.271,4.667,13.203,4.667,20.383
			C283.317,320.347,278.468,332.054,269.663,340.859z M280.447,242.66l-0.021-0.021l-76.507,76.507l-43.903-43.902
			c5.543-9.335,8.505-20.017,8.505-31.157c0-11.142-2.957-21.826-8.501-31.162l56.55-56.549l11.369,11.369l-47.766,47.766
			l21.527,21.527l47.766-47.766l9.268,9.268l-47.766,47.766l21.527,21.527l47.766-47.766l11.39,11.39L280.447,242.66z"/>
	</g>
</g>
</svg>