<?xml version="1.0" encoding="iso-8859-1"?>
<!-- Uploaded to: SVG Repo, www.svgrepo.com, Generator: SVG Repo Mixer Tools -->
<svg version="1.1" id="Layer_1" xmlns="http://www.w3.org/2000/svg" xmlns:xlink="http://www.w3.org/1999/xlink" 
	 viewBox="0 0 512.013 512.013" xml:space="preserve">
<rect x="402.963" y="50.314" transform="matrix(-0.2667 -0.9638 0.9638 -0.2667 375.7013 589.1123)" style="fill:#0B9B53;" width="18.008" height="202.627"/>
<path style="fill:#06B559;" d="M356.462,174.252l21.309,28.416l-100.396,15.178l-99.731-15.178l32.69-43.579
	c3.854-5.126,9.892-8.139,16.303-8.139h83.22C328.202,150.95,345.465,159.581,356.462,174.252z"/>
<path style="fill:#0B9B53;" d="M271.057,150.95h-44.419c-6.411,0-12.449,3.013-16.303,8.139l-32.69,43.579h44.419l32.69-43.579
	C258.608,153.964,264.646,150.95,271.057,150.95z"/>
<path style="fill:#06B559;" d="M426.02,208.636l30.841,33.769l-200.298,19.137L28.144,242.405l39.934-34.658
	c3.774-3.276,8.605-5.079,13.603-5.079h95.962H377.77h34.717C417.637,202.668,422.548,204.835,426.02,208.636z"/>
<path style="fill:#0B9B53;" d="M68.078,207.748l-39.934,34.658h76.833l45.788-39.737H81.683
	C76.684,202.668,71.854,204.472,68.078,207.748z"/>
<path style="fill:#088443;" d="M502.726,242.405c6.716,0,10.112,8.09,5.408,12.884l-69.101,70.42h-0.024
	c-4.01-30.421-123.725-26.087-123.725,8.236h-15.619c0-34.323-124.278-34.323-124.278,0h-15.619
	c0-34.323-109.043-47.132-118.803-25.583l-1.465-0.144L5.188,282.921c-6.579-4.85-6.965-14.549-0.791-19.907l23.749-20.609h428.717
	L502.726,242.405L502.726,242.405z"/>
<g>
	<circle style="fill:#CCCCCC;" cx="377.418" cy="333.95" r="23.986"/>
	<circle style="fill:#CCCCCC;" cx="237.522" cy="333.95" r="24.787"/>
	<path style="fill:#CCCCCC;" d="M97.632,309.158c13.689,0,24.787,11.098,24.787,24.787s-11.098,24.787-24.787,24.787
		c-13.703,0-24.8-11.098-24.8-24.787S83.928,309.158,97.632,309.158z"/>
</g>
<g>
	<path style="fill:#808080;" d="M439.009,325.709c0.372,2.701,0.552,5.45,0.552,8.236c0,34.323-27.816,62.139-62.139,62.139
		c-34.311,0-62.139-27.816-62.139-62.139s27.828-62.139,62.139-62.139C408.96,271.806,435,295.288,439.009,325.709z
		 M399.008,333.944c0-11.921-9.664-21.585-21.585-21.585c-11.921,0-21.585,9.664-21.585,21.585c0,11.921,9.664,21.585,21.585,21.585
		C389.344,355.53,399.008,345.865,399.008,333.944z"/>
	<path style="fill:#808080;" d="M237.527,271.806c34.323,0,62.139,27.816,62.139,62.139s-27.816,62.139-62.139,62.139
		s-62.139-27.816-62.139-62.139S203.204,271.806,237.527,271.806z M259.112,333.944c0-11.921-9.664-21.585-21.585-21.585
		s-21.585,9.664-21.585,21.585c0,11.921,9.664,21.585,21.585,21.585C249.448,355.53,259.112,345.865,259.112,333.944z"/>
	<path style="fill:#808080;" d="M97.63,271.806c34.311,0,62.139,27.816,62.139,62.139s-27.828,62.139-62.139,62.139
		c-34.323,0-62.151-27.816-62.151-62.139c0-9.124,1.969-17.78,5.486-25.583C50.726,286.812,72.42,271.806,97.63,271.806z
		 M119.216,333.944c0-11.921-9.664-21.585-21.585-21.585c-11.933,0-21.597,9.664-21.597,21.585c0,11.921,9.664,21.585,21.597,21.585
		C109.551,355.53,119.216,345.865,119.216,333.944z"/>
</g>
<g>
	<path style="fill:#4D4D4D;" d="M377.423,312.359c11.921,0,21.585,9.664,21.585,21.585c0,11.921-9.664,21.585-21.585,21.585
		c-11.921,0-21.585-9.664-21.585-21.585C355.838,322.023,365.502,312.359,377.423,312.359 M377.423,300.354
		c-18.522,0-33.59,15.069-33.59,33.59c0,18.522,15.069,33.59,33.59,33.59s33.59-15.069,33.59-33.59
		C411.013,315.423,395.944,300.354,377.423,300.354L377.423,300.354z"/>
	<path style="fill:#4D4D4D;" d="M237.527,312.359c11.921,0,21.585,9.664,21.585,21.585c0,11.921-9.664,21.585-21.585,21.585
		s-21.585-9.664-21.585-21.585C215.941,322.023,225.605,312.359,237.527,312.359 M237.527,300.354
		c-18.522,0-33.59,15.069-33.59,33.59c0,18.522,15.069,33.59,33.59,33.59s33.59-15.069,33.59-33.59
		C271.117,315.423,256.048,300.354,237.527,300.354L237.527,300.354z"/>
	<path style="fill:#4D4D4D;" d="M97.63,312.359c11.921,0,21.585,9.664,21.585,21.585c0,11.921-9.664,21.585-21.585,21.585
		c-11.933,0-21.597-9.664-21.597-21.585C76.033,322.023,85.697,312.359,97.63,312.359 M97.63,300.354
		c-18.529,0-33.602,15.069-33.602,33.59c0,18.522,15.074,33.59,33.602,33.59c18.522,0,33.59-15.069,33.59-33.59
		C131.221,315.423,116.152,300.354,97.63,300.354L97.63,300.354z"/>
</g>
</svg>