<?xml version="1.0" encoding="iso-8859-1"?>
<!-- Uploaded to: SVG Repo, www.svgrepo.com, Generator: SVG Repo Mixer Tools -->
<svg fill="#000000" height="800px" width="800px" version="1.1" id="Layer_1" xmlns="http://www.w3.org/2000/svg" xmlns:xlink="http://www.w3.org/1999/xlink" 
	 viewBox="0 0 511.999 511.999" xml:space="preserve">
<g>
	<g>
		<path d="M317.168,189.745h-24.856v-24.857c0-4.943-4.006-8.951-8.951-8.951h-54.736c-4.944,0-8.951,4.008-8.951,8.951v24.857
			h-24.857c-4.944,0-8.951,4.008-8.951,8.951v54.736c0,4.944,4.008,8.951,8.951,8.951h24.857v24.857
			c0,4.943,4.006,8.951,8.951,8.951h54.736c4.944,0,8.951-4.008,8.951-8.951v-24.857h24.856c4.944,0,8.951-4.008,8.951-8.951
			v-54.736C326.119,193.752,322.113,189.745,317.168,189.745z M308.218,244.48h-24.856c-4.944,0-8.951,4.008-8.951,8.951v24.857
			h-36.834v-24.857c0-4.943-4.006-8.951-8.951-8.951h-24.857v-36.834h24.857c4.944,0,8.951-4.008,8.951-8.951v-24.857h36.834v24.857
			c0,4.943,4.006,8.951,8.951,8.951h24.856V244.48z"/>
	</g>
</g>
<g>
	<g>
		<path d="M503.049,356.156h-0.499v-56.362c0-20.285-16.503-36.788-36.788-36.788c-6.906,0-13.372,1.914-18.9,5.237v-84.24
			c0-26.782-19.59-49.062-45.191-53.295c-1.166-12.105-11.388-21.602-23.794-21.602h-29.216V81.837
			c0-19.341-15.735-35.075-35.075-35.075H198.399c-19.34,0-35.075,15.735-35.075,35.075v27.269H134.11
			c-12.406,0-22.629,9.499-23.794,21.604c-25.598,4.234-45.187,26.515-45.187,53.294v84.235c-5.527-3.319-11.99-5.232-18.893-5.232
			c-20.285,0-36.788,16.503-36.788,36.788v56.362H8.951c-4.944,0-8.951,4.008-8.951,8.951v37.8c0,4.943,4.006,8.951,8.951,8.951
			H9.45v16.578c0,9.815,3.824,19.054,10.776,26.026c6.949,6.948,16.187,10.776,26.012,10.776c12.647,0,23.821-6.414,30.449-16.157
			c8.612,9.884,21.277,16.15,35.385,16.15H399.92c14.111,0,26.777-6.267,35.39-16.154c6.627,9.746,17.804,16.16,30.452,16.16
			c9.826,0,19.064-3.827,26.019-10.784c6.945-6.961,10.768-16.201,10.768-26.017v-16.578h0.499c4.944,0,8.951-4.008,8.951-8.951
			v-37.8C512,360.164,507.992,356.156,503.049,356.156z M27.351,299.794c0-10.414,8.473-18.886,18.886-18.886
			c10.375,0,18.818,8.398,18.893,18.748v56.501H27.351V299.794z M17.901,393.956v-19.898H65.13v19.898H17.901z M46.237,447.334
			c-5.045,0-9.786-1.964-13.346-5.523c-3.573-3.583-5.541-8.333-5.541-13.376v-16.578h37.779v6.431c0,0.092,0.006,0.184,0.007,0.276
			v9.871h0.001C65.138,438.856,56.659,447.334,46.237,447.334z M181.228,81.837c0-9.47,7.704-17.174,17.174-17.174h115.188
			c9.47,0,17.174,7.705,17.174,17.174v27.269H181.228V81.837z M128.102,133.016c0-3.313,2.696-6.009,6.009-6.009h243.766
			c3.313,0,6.009,2.696,6.009,6.009v190.241c0,15.633-12.717,28.35-28.35,28.35h-6.891v-28.35c0-4.943-4.006-8.951-8.951-8.951
			h-40.5c-4.944,0-8.951,4.008-8.951,8.951v28.35h-68.498v-28.35c0-4.943-4.006-8.951-8.951-8.951h-40.5
			c-4.944,0-8.951,4.008-8.951,8.951v28.35h-6.891c-15.633,0-28.35-12.717-28.35-28.35V133.016z M330.744,332.207v60.398h-22.599
			v-60.398H330.744z M203.843,332.207v60.398h-22.599v-60.398H203.843z M428.961,418.289c0,16.012-13.027,29.04-29.04,29.04H112.072
			c-15.92,0-28.883-12.88-29.033-28.765l-0.007-234.56c0-16.83,11.567-31.007,27.169-35.002v174.256
			c0,25.504,20.749,46.252,46.252,46.252h6.891v32.048c0,4.943,4.006,8.951,8.951,8.951h40.5c4.944,0,8.951-4.008,8.951-8.951
			v-32.048h68.498v32.048c0,4.943,4.006,8.951,8.951,8.951h40.5c4.944,0,8.951-4.008,8.951-8.951v-32.048h6.891
			c25.503,0,46.252-20.748,46.252-46.252V149c15.603,3.994,27.173,18.172,27.173,35.003V418.289z M446.862,299.792
			c0-10.413,8.478-18.886,18.9-18.886c10.414,0,18.886,8.472,18.886,18.886v56.362h-37.786V299.792z M484.649,428.435
			c0,5.043-1.968,9.793-5.534,13.368c-3.567,3.567-8.309,5.533-13.352,5.533c-10.421,0-18.9-8.478-18.9-18.899V418.29v-6.431h37.786
			V428.435z M494.099,393.956H446.87v-19.898h47.229V393.956z"/>
	</g>
</g>
</svg>