<?xml version="1.0" encoding="iso-8859-1"?>
<!-- Uploaded to: SVG Repo, www.svgrepo.com, Generator: SVG Repo Mixer Tools -->
<svg fill="#000000" height="800px" width="800px" version="1.1" id="Layer_1" xmlns="http://www.w3.org/2000/svg" xmlns:xlink="http://www.w3.org/1999/xlink" 
	 viewBox="0 0 512 512" xml:space="preserve">
<g>
	<g>
		<path d="M103.353,0v431.794L255.999,512l152.648-80.206V0H103.353z M378.346,413.487l-122.347,64.285l-122.346-64.285V30.301
			h244.694V413.487z"/>
	</g>
</g>
<g>
	<g>
		<path d="M255.999,377.903c-20.606,0-37.371,16.764-37.371,37.371s16.764,37.371,37.371,37.371s37.371-16.764,37.371-37.371
			S276.606,377.903,255.999,377.903z M255.999,422.344c-3.899,0-7.07-3.172-7.07-7.07c0-3.899,3.171-7.07,7.07-7.07
			c3.898,0,7.07,3.171,7.07,7.07C263.07,419.172,259.897,422.344,255.999,422.344z"/>
	</g>
</g>
<g>
	<g>
		<path d="M364.286,165.368l-74.824-10.873l-33.463-67.802l-33.463,67.802l-74.824,10.873l54.143,52.776l-12.782,74.522
			l66.925-35.184l66.926,35.184l-12.781-74.522L364.286,165.368z M282.682,237.278l-26.683-14.028l-26.682,14.028l5.096-29.712
			l-21.586-21.042l29.831-4.335l13.341-27.032l13.341,27.032l29.831,4.335l-21.586,21.042L282.682,237.278z"/>
	</g>
</g>
</svg>