<?xml version="1.0" encoding="iso-8859-1"?>
<!-- Uploaded to: SVG Repo, www.svgrepo.com, Generator: SVG Repo Mixer Tools -->
<svg fill="#000000" height="800px" width="800px" version="1.1" id="Layer_1" xmlns="http://www.w3.org/2000/svg" xmlns:xlink="http://www.w3.org/1999/xlink" 
	 viewBox="0 0 512 512" xml:space="preserve">
<g>
	<g>
		<path d="M436.815,275.613l58.104-58.103l-98.822-98.821l-16.929-16.928l80.302-80.302L438.01,0l-80.302,80.302l-79.268,79.267
			l-18.955-18.955l24.415-24.415l8.241,8.241l21.46-21.46l-37.942-37.942l-21.46,21.46l8.242,8.241L119.754,237.425l-8.241-8.241
			l-21.46,21.46l37.943,37.943l21.46-21.46l-8.241-8.241l24.415-24.415l18.955,18.955L17.081,420.928L158.76,512l87.518-187.694
			l66.055,115.519l65.506-65.506l-28.264-49.429l33.108-33.108l-42.476-74.284l19.245-19.245L436.815,275.613z M396.096,161.61
			l55.901,55.901l-15.183,15.183l-55.901-55.901L396.096,161.61z M238.024,162.074l18.955,18.955l-50.935,50.935l-18.955-18.955
			L238.024,162.074z M145.94,467.68L65.17,415.761l141.351-141.352l20.146,20.145L145.94,467.68z M318.963,390.275l-55.127-96.406
			l21.022-21.022l55.125,96.407L318.963,390.275z M344.827,286.717l-10.865,10.865L307.1,250.604l10.865-10.865L344.827,286.717z
			 M337.993,176.793l-46.506,46.506l-46.579,46.578l-16.928-16.928l129.727-129.727l16.928,16.928l-29.938,29.939L337.993,176.793z"
			/>
	</g>
</g>
</svg>