<?xml version="1.0" encoding="iso-8859-1"?>
<!-- Uploaded to: SVG Repo, www.svgrepo.com, Generator: SVG Repo Mixer Tools -->
<svg version="1.1" id="Layer_1" xmlns="http://www.w3.org/2000/svg" xmlns:xlink="http://www.w3.org/1999/xlink" 
	 viewBox="0 0 512.001 512.001" xml:space="preserve">
<rect x="384.039" y="43.886" transform="matrix(-0.7071 0.7071 -0.7071 -0.7071 814.5187 -218.3549)" style="fill:#424242;" width="136.885" height="31.257"/>
<path style="fill:#048F46;" d="M342.086,119.725L160.634,238.499L23.376,375.756c-31.168,31.168-31.168,81.701,0,112.869
	s81.701,31.168,112.869,0l137.257-137.257l118.774-181.453l119.724-41.375L383.463,0.001L342.086,119.725z"/>
<path style="fill:#3DDB86;" d="M383.463,0.001l-41.375,119.724L160.634,238.499L23.376,375.756
	c-31.168,31.168-31.168,81.701,0,112.869L447.731,64.27L383.463,0.001z"/>
<polygon style="fill:#FFAC00;" points="383.463,0.001 342.086,119.725 392.276,169.915 512.001,128.538 "/>
<rect x="84.293" y="273.007" transform="matrix(0.7071 0.7071 -0.7071 0.7071 294.0664 -14.1407)" style="fill:#C2C2C2;" width="159.62" height="149.784"/>
<polygon style="fill:#FFD68B;" points="447.731,64.27 383.463,0.001 342.086,119.725 367.182,144.819 "/>
<rect x="95.987" y="244.773" transform="matrix(-0.7071 -0.7071 0.7071 -0.7071 5.9443 641.7932)" style="fill:#EAEAEA;" width="79.81" height="149.784"/>
</svg>