<?xml version="1.0" encoding="iso-8859-1"?>
<!-- Uploaded to: SVG Repo, www.svgrepo.com, Generator: SVG Repo Mixer Tools -->
<svg fill="#000000" height="800px" width="800px" version="1.1" id="Layer_1" xmlns="http://www.w3.org/2000/svg" xmlns:xlink="http://www.w3.org/1999/xlink" 
	 viewBox="0 0 512 512" xml:space="preserve">
<g>
	<g>
		<path d="M482.03,65.522L258.605,0.356c-0.151-0.044-0.307-0.064-0.459-0.1c-0.161-0.037-0.32-0.076-0.483-0.104
			c-1.101-0.202-2.224-0.202-3.325,0c-0.164,0.028-0.322,0.067-0.483,0.104c-0.152,0.037-0.308,0.056-0.459,0.1L29.97,65.522
			c-4.496,1.309-7.314,5.75-6.591,10.373l46.547,297.901c0.377,2.427,1.695,4.6,3.673,6.059l176.878,130.331
			c0.059,0.044,0.127,0.074,0.188,0.116c0.155,0.109,0.321,0.2,0.484,0.3c0.317,0.194,0.64,0.375,0.974,0.528
			c0.185,0.085,0.374,0.161,0.566,0.234c0.353,0.135,0.711,0.244,1.075,0.334c0.182,0.045,0.36,0.097,0.547,0.131
			c0.559,0.103,1.123,0.17,1.69,0.17c0.566,0,1.13-0.067,1.69-0.17c0.186-0.034,0.364-0.085,0.547-0.131
			c0.364-0.09,0.72-0.199,1.075-0.334c0.192-0.073,0.38-0.149,0.566-0.234c0.334-0.153,0.656-0.334,0.973-0.528
			c0.164-0.1,0.33-0.191,0.484-0.3c0.061-0.042,0.128-0.072,0.189-0.116l176.878-130.331c1.977-1.459,3.296-3.632,3.673-6.059
			l46.547-297.901C489.344,71.272,486.526,66.831,482.03,65.522z M247.77,484.267L88.266,367.076L63.814,213.978H247.77V484.267z
			 M247.77,195.359H60.905L43.574,81.044l204.196-59.34V195.359z M424.813,367.076L266.389,484.267V213.978h181.796L424.813,367.076
			z M451.094,195.359H266.389V21.704l203.117,59.34L451.094,195.359z"/>
	</g>
</g>
</svg>