<?xml version="1.0" encoding="iso-8859-1"?>
<!-- Uploaded to: SVG Repo, www.svgrepo.com, Generator: SVG Repo Mixer Tools -->
<svg fill="#000000" height="800px" width="800px" version="1.1" id="Layer_1" xmlns="http://www.w3.org/2000/svg" xmlns:xlink="http://www.w3.org/1999/xlink" 
	 viewBox="0 0 512 512" xml:space="preserve">
<g>
	<g>
		<path d="M256,0C114.841,0,0,114.841,0,256C0,397.157,114.841,512,256,512S512,397.157,512,256C512,114.841,397.159,0,256,0z
			 M430.57,418.088l-46.816-46.812l-12.483,12.485l46.816,46.81c-42.562,39.547-99.545,63.774-162.087,63.774
			c-62.543,0-119.526-24.226-162.088-63.774l46.817-46.81l-12.483-12.485l-46.817,46.812C41.883,375.525,17.655,318.543,17.655,256
			c0-62.543,24.228-119.526,63.774-162.088l46.817,46.817l12.483-12.483L93.912,81.429C136.474,41.883,193.457,17.656,256,17.656
			c62.542,0,119.525,24.227,162.087,63.774l-46.816,46.817l12.483,12.483l46.816-46.817c39.547,42.562,63.775,99.545,63.775,162.088
			C494.345,318.543,470.117,375.525,430.57,418.088z"/>
	</g>
</g>
<g>
	<g>
		<path d="M256,203.035c-29.207,0-52.966,23.759-52.966,52.966c0,29.206,23.759,52.965,52.966,52.965
			c29.207,0,52.966-23.759,52.966-52.965C308.966,226.794,285.207,203.035,256,203.035z M256,291.31
			c-19.47,0-35.31-15.834-35.31-35.31c0-19.47,15.841-35.31,35.31-35.31c19.47,0,35.31,15.841,35.31,35.31
			C291.31,275.476,275.47,291.31,256,291.31z"/>
	</g>
</g>
<g>
	<g>
		<path d="M370.385,247.058c-4.303-55.172-49.361-101.139-104.533-105.443V96.989h-17.655v44.626
			c-57.379,4.304-102.278,50.27-106.582,105.443H98.127v17.655h43.487c4.304,57.379,49.203,101.368,106.582,105.672v44.397h17.655
			v-44.397c55.172-4.304,100.229-48.293,104.533-105.672h45.536v-17.655H370.385z M256,353.103
			c-53.543,0-97.103-43.558-97.103-97.103c0-53.543,43.56-97.103,97.103-97.103c53.543,0,97.103,43.56,97.103,97.103
			C353.103,309.545,309.543,353.103,256,353.103z"/>
	</g>
</g>
</svg>