<?xml version="1.0" encoding="iso-8859-1"?>
<!-- Uploaded to: SVG Repo, www.svgrepo.com, Generator: SVG Repo Mixer Tools -->
<svg version="1.1" id="Layer_1" xmlns="http://www.w3.org/2000/svg" xmlns:xlink="http://www.w3.org/1999/xlink" 
	 viewBox="0 0 512 512" xml:space="preserve">
<g>
	<rect x="377.177" y="37.812" style="fill:#424242;" width="31.347" height="98.45"/>
	<polygon style="fill:#424242;" points="31.347,245.496 0,245.496 0,18.059 188.02,18.059 188.02,136.268 156.673,136.268 
		156.673,49.406 31.347,49.406 	"/>
	<rect x="272.844" y="182.666" style="fill:#424242;" width="31.347" height="40.562"/>
	<polygon style="fill:#424242;" points="322.857,167.354 322.857,238.258 223.729,238.258 223.729,269.605 354.204,269.605 
		354.204,167.354 	"/>
</g>
<rect x="167.455" y="259.058" style="fill:#8F8F8F;" width="69.684" height="234.883"/>
<rect x="167.455" y="259.058" style="fill:#C2C2C2;" width="69.684" height="149.891"/>
<rect x="150.413" y="136.272" style="fill:#048F46;" width="103.769" height="187.685"/>
<rect x="150.413" y="136.272" style="fill:#3DDB86;" width="103.769" height="122.786"/>
<rect x="66.691" y="78.375" style="fill:#048F46;" width="374.68" height="115.785"/>
<rect x="66.691" y="78.375" style="fill:#3DDB86;" width="374.68" height="57.887"/>
<rect x="441.365" y="111.153" style="fill:#8F8F8F;" width="70.635" height="50.239"/>
<rect x="441.365" y="111.153" style="fill:#C2C2C2;" width="70.635" height="25.119"/>
<g>
	<rect x="156.672" y="120.599" style="fill:#424242;" width="194.706" height="31.347"/>
	<rect x="167.455" y="350.78" style="fill:#424242;" width="69.684" height="31.347"/>
	<rect x="167.455" y="435.772" style="fill:#424242;" width="69.684" height="31.347"/>
</g>
</svg>