<?xml version="1.0" encoding="iso-8859-1"?>
<!-- Uploaded to: SVG Repo, www.svgrepo.com, Generator: SVG Repo Mixer Tools -->
<svg fill="#000000" height="800px" width="800px" version="1.1" id="Layer_1" xmlns="http://www.w3.org/2000/svg" xmlns:xlink="http://www.w3.org/1999/xlink" 
	 viewBox="0 0 511.999 511.999" xml:space="preserve">
<g>
	<g>
		<path d="M511.999,327.901V224.916h-21.787v-62.195h-15.209c-24.568,0-44.555-19.987-44.555-44.555V0h-99.424v54.019
			c0,41.368-33.656,75.025-75.025,75.025s-75.025-33.656-75.025-75.025V0H81.551v118.165c0,24.568-19.987,44.555-44.555,44.555
			H21.788v62.195H0V327.9h21.787v30.417H0v102.986h21.787v50.695h468.424v-50.695h21.787V358.318h-21.787v-30.417H511.999z
			 M30.417,255.333h140.048v42.151H30.417V255.333z M30.417,388.735h140.048v42.152H30.417V388.735z M459.795,481.583H52.205
			v-20.278h148.678V358.318H52.205v-30.417h148.678V224.916H52.205v-33.328c34.071-7.05,59.764-37.292,59.764-73.423V30.417h38.589
			v23.602c0,58.14,47.301,105.442,105.442,105.442S361.442,112.16,361.442,54.019V30.417h38.589v87.747
			c0,36.13,25.692,66.372,59.764,73.423v33.328H311.117v102.985h148.678v30.417H311.117v102.986h148.678V481.583z M481.582,430.888
			H341.534v-42.152h140.048V430.888z M481.582,297.484H341.534v-42.151h140.048V297.484z"/>
	</g>
</g>
</svg>