<?xml version="1.0" encoding="iso-8859-1"?>
<!-- Uploaded to: SVG Repo, www.svgrepo.com, Generator: SVG Repo Mixer Tools -->
<svg version="1.1" id="Layer_1" xmlns="http://www.w3.org/2000/svg" xmlns:xlink="http://www.w3.org/1999/xlink" 
	 viewBox="0 0 512 512" xml:space="preserve">
<path style="fill:#C2C2C2;" d="M460.824,51.177c-68.236-68.236-178.869-68.236-247.105,0L51.178,213.718
	c-68.236,68.236-68.236,178.869,0,247.105s178.869,68.236,247.105,0l162.541-162.541
	C529.059,230.045,529.059,119.413,460.824,51.177z M348.116,163.885c-11.292-11.292-11.292-29.601,0-40.894
	c11.292-11.292,29.601-11.292,40.894,0c11.292,11.292,11.292,29.601,0,40.894C377.717,175.178,359.408,175.178,348.116,163.885z"/>
<path style="fill:#EAEAEA;" d="M348.116,122.992c11.292-11.292,29.601-11.292,40.894,0l71.815-71.814
	c-68.236-68.236-178.869-68.236-247.105,0L51.178,213.718c-68.236,68.236-68.236,178.869,0,247.105l296.938-296.938
	C336.823,152.592,336.823,134.284,348.116,122.992z"/>
<path style="fill:#FFAC00;" d="M422.712,89.288c-47.112-47.112-123.77-47.112-170.883,0L89.288,251.83
	c-47.112,47.112-47.112,123.77,0,170.882s123.771,47.112,170.883,0l162.542-162.541C469.824,213.058,469.824,136.401,422.712,89.288
	z M348.116,163.885c-11.292-11.292-11.292-29.601,0-40.894c11.292-11.292,29.601-11.292,40.894,0
	c11.292,11.292,11.292,29.601,0,40.894C377.717,175.178,359.408,175.178,348.116,163.885z"/>
<path style="fill:#FFD68B;" d="M348.116,122.992c11.292-11.292,29.601-11.292,40.894,0l33.703-33.703
	c-47.112-47.112-123.77-47.112-170.882,0L89.288,251.83c-47.112,47.112-47.112,123.77,0,170.882l258.827-258.826
	C336.823,152.592,336.823,134.284,348.116,122.992z"/>
<g>
	
		<rect x="186.168" y="104.381" transform="matrix(-0.7071 -0.7071 0.7071 -0.7071 185.6791 526.3171)" style="fill:#424242;" width="31.35" height="240.644"/>
	
		<rect x="215.162" y="155.44" transform="matrix(-0.7071 -0.7071 0.7071 -0.7071 195.2569 643.1869)" style="fill:#424242;" width="31.35" height="251.428"/>
	
		<rect x="271.609" y="189.827" transform="matrix(-0.7071 -0.7071 0.7071 -0.7071 271.1159 732.5975)" style="fill:#424242;" width="31.35" height="240.644"/>
</g>
</svg>