<?xml version="1.0" encoding="iso-8859-1"?>
<!-- Uploaded to: SVG Repo, www.svgrepo.com, Generator: SVG Repo Mixer Tools -->
<svg version="1.1" id="Layer_1" xmlns="http://www.w3.org/2000/svg" xmlns:xlink="http://www.w3.org/1999/xlink" 
	 viewBox="0 0 512 512" xml:space="preserve">
<rect x="384.779" style="fill:#424242;" width="31.343" height="228.368"/>
<polygon style="fill:#C2C2C2;" points="449.517,148.189 400.445,148.189 400.445,148.185 400.445,124.766 111.548,124.766 
	111.548,148.189 62.475,148.189 62.475,308.543 111.548,308.543 111.548,308.543 111.548,450.615 400.445,450.615 400.445,308.546 
	400.445,308.543 449.517,308.543 "/>
<path style="fill:#EAEAEA;" d="M255.997,69.009H142.804c-17.263,0-31.257,13.994-31.257,31.257v47.923
	c0-17.263-13.994-31.257-31.257-31.257H44.66c-17.263,0-31.257,13.994-31.257,31.257v160.355c0,17.263,13.994,31.257,31.257,31.257
	h35.631c17.263,0,31.257-13.994,31.257-31.257v80.746H99.691c-17.263,0-31.257,13.994-31.257,31.257v60.139
	c0,17.263,13.994,31.257,31.257,31.257h156.305V69.009z"/>
<path style="fill:#424242;" d="M340.669,101.094h-31.343V46.928c0-8.593-6.991-15.585-15.585-15.585h-75.489
	c-8.594,0-15.585,6.992-15.585,15.585v54.166h-31.343V46.928C171.323,21.052,192.375,0,218.252,0h75.489
	c25.877,0,46.928,21.052,46.928,46.928L340.669,101.094L340.669,101.094z"/>
<g>
	<path style="fill:#048F46;" d="M13.403,308.543c0,17.263,13.994,31.257,31.257,31.257h35.631c17.263,0,31.257-13.994,31.257-31.257
		V148.189c0-17.263-13.994-31.257-31.257-31.257H44.66c-17.263,0-31.257,13.994-31.257,31.257
		C13.403,148.189,13.403,308.543,13.403,308.543z"/>
	<path style="fill:#048F46;" d="M400.445,308.543c0,17.263,13.994,31.257,31.257,31.257h35.631
		c17.263,0,31.257-13.994,31.257-31.257V148.189c0-17.263-13.994-31.257-31.257-31.257h-35.631
		c-17.263,0-31.257,13.994-31.257,31.257V308.543z"/>
	<path style="fill:#048F46;" d="M400.445,149.266c0,17.263-13.994,31.257-31.257,31.257H142.804
		c-17.263,0-31.257-13.994-31.257-31.257v-49c0-17.263,13.994-31.257,31.257-31.257h226.384c17.263,0,31.257,13.994,31.257,31.257
		L400.445,149.266L400.445,149.266z"/>
</g>
<rect x="309.325" y="124.768" style="fill:#424242;" width="31.343" height="112.084"/>
<path style="fill:#048F46;" d="M443.558,480.684c0,17.263-13.994,31.257-31.257,31.257H99.691
	c-17.263,0-31.257-13.994-31.257-31.257v-60.139c0-17.263,13.994-31.257,31.257-31.257h312.61c17.263,0,31.257,13.994,31.257,31.257
	V480.684z"/>
<g>
	<path style="fill:#3DDB86;" d="M255.997,389.288H99.691c-17.263,0-31.257,13.994-31.257,31.257v60.139
		c0,17.263,13.994,31.257,31.257,31.257h156.304V389.288H255.997z"/>
	<path style="fill:#3DDB86;" d="M255.997,69.009H142.804c-17.263,0-31.257,13.994-31.257,31.257v49
		c0,17.263,13.994,31.257,31.257,31.257h113.193V69.009z"/>
</g>
<g>
	<rect x="171.319" y="124.768" style="fill:#424242;" width="31.343" height="112.084"/>
	<polygon style="fill:#424242;" points="400.445,317.294 111.548,317.294 111.548,348.637 171.323,348.637 171.323,512 202.666,512 
		202.666,348.637 309.326,348.637 309.326,512 340.669,512 340.669,348.637 400.445,348.637 	"/>
</g>
<g>
	<path style="fill:#3DDB86;" d="M62.475,116.932H44.66c-17.263,0-31.257,13.994-31.257,31.257v160.355
		c0,17.263,13.994,31.257,31.257,31.257h17.816C62.475,339.8,62.475,116.932,62.475,116.932z"/>
	<path style="fill:#3DDB86;" d="M449.517,116.932h-17.816c-17.263,0-31.257,13.994-31.257,31.257v160.355
		c0,17.263,13.994,31.257,31.257,31.257h17.816V116.932z"/>
</g>
<g>
	<rect x="13.403" y="212.696" style="fill:#424242;" width="98.147" height="31.343"/>
	<rect x="400.45" y="212.696" style="fill:#424242;" width="98.147" height="31.343"/>
</g>
</svg>