<?xml version="1.0" encoding="iso-8859-1"?>
<!-- Uploaded to: SVG Repo, www.svgrepo.com, Generator: SVG Repo Mixer Tools -->
<svg fill="#000000" height="800px" width="800px" version="1.1" id="Layer_1" xmlns="http://www.w3.org/2000/svg" xmlns:xlink="http://www.w3.org/1999/xlink" 
	 viewBox="0 0 511.999 511.999" xml:space="preserve">
<g>
	<g>
		<path d="M386.67,171.425c-25.66-30.063-60.136-51.207-98.127-60.428V90.072h25.505V59.655h-25.505V43.96
			C288.542,19.72,268.821,0,244.582,0c-15.585,0-29.291,8.159-37.099,20.422C194.071,7.776,176.02,0,156.175,0
			c-41.28,0-74.864,33.584-74.864,74.864s33.584,74.864,74.864,74.864c16.631,0,32.007-5.458,44.447-14.666v26.197
			c-54.849,18.416-94.474,70.303-94.474,131.275v25.307H80.644v30.417h25.505v25.307c0,76.333,62.101,138.434,138.434,138.434
			s138.434-62.102,138.434-138.434v-25.307h17.923v63.979h30.417V292.533C431.355,248.197,415.486,205.187,386.67,171.425z
			 M197.94,90.072c-6.225,17.041-22.597,29.238-41.765,29.238c-24.508,0-44.447-19.938-44.447-44.447s19.938-44.447,44.447-44.447
			c19.169,0,35.54,12.197,41.765,29.238h-22.823v30.417H197.94z M231.039,43.96c0-7.467,6.075-13.543,13.543-13.543
			s13.543,6.075,13.543,13.543v110.8c-0.316-0.03-0.634-0.053-0.951-0.081c-0.761-0.069-1.522-0.139-2.287-0.196
			c-0.431-0.031-0.863-0.055-1.294-0.082c-0.705-0.046-1.409-0.094-2.117-0.129c-0.586-0.029-1.173-0.046-1.76-0.067
			c-0.556-0.02-1.11-0.048-1.668-0.061c-1.155-0.028-2.31-0.044-3.466-0.044c-1.156,0-2.311,0.015-3.466,0.044
			c-0.558,0.014-1.112,0.041-1.668,0.061c-0.587,0.021-1.174,0.039-1.76,0.067c-0.708,0.034-1.412,0.083-2.117,0.129
			c-0.431,0.028-0.863,0.051-1.294,0.082c-0.764,0.057-1.526,0.127-2.287,0.196c-0.317,0.028-0.635,0.051-0.951,0.081V43.96z
			 M352.598,373.565c0,59.561-48.456,108.016-108.016,108.016s-108.016-48.457-108.016-108.016v-25.307h216.033V373.565z
			 M352.599,317.84H136.567v-25.307h-0.001c0-51.141,35.725-94.093,83.53-105.216c0.217-0.05,0.435-0.096,0.652-0.145
			c0.678-0.153,1.358-0.305,2.042-0.445c0.915-0.187,1.831-0.365,2.751-0.528c0.096-0.017,0.195-0.031,0.291-0.049
			c0.94-0.164,1.882-0.317,2.826-0.456c0.073-0.011,0.147-0.02,0.22-0.03c0.996-0.144,1.993-0.277,2.994-0.393
			c0.003,0,0.007-0.001,0.01-0.001c8.424-0.982,16.981-0.982,25.404,0c0.003,0,0.007,0.001,0.01,0.001
			c1,0.117,1.998,0.249,2.994,0.393c0.073,0.011,0.147,0.02,0.22,0.03c0.944,0.139,1.885,0.293,2.824,0.456
			c0.097,0.017,0.196,0.031,0.293,0.049c0.92,0.163,1.836,0.342,2.75,0.528c0.683,0.141,1.363,0.292,2.042,0.445
			c0.217,0.049,0.435,0.095,0.652,0.145c47.805,11.123,83.53,54.075,83.53,105.216V317.84z M400.938,317.841h-17.923v-25.307
			c0-60.972-39.624-112.86-94.474-131.275v-18.775c28.952,8.518,55.119,25.406,74.992,48.689
			c24.121,28.261,37.405,64.257,37.405,101.361V317.841z"/>
	</g>
</g>
</svg>