<?xml version="1.0" encoding="iso-8859-1"?>
<!-- Uploaded to: SVG Repo, www.svgrepo.com, Generator: SVG Repo Mixer Tools -->
<svg version="1.1" id="Layer_1" xmlns="http://www.w3.org/2000/svg" xmlns:xlink="http://www.w3.org/1999/xlink" 
	 viewBox="0 0 512 512" xml:space="preserve">
<g>
	<path style="fill:#0B9B53;" d="M423.092,411.374v44.71c0,17.491-14.179,31.67-31.682,31.67h-37.923V427.11h37.934
		c14.737,0,27.126-10.065,30.659-23.697C422.743,405.958,423.092,408.631,423.092,411.374z"/>
	<rect x="190.554" y="427.109" style="fill:#0B9B53;" width="130.876" height="60.644"/>
	<path style="fill:#0B9B53;" d="M158.517,427.11v60.644h-37.934c-17.491,0-31.67-14.179-31.67-31.67v-44.71
		c0-2.743,0.349-5.416,1.011-7.961c3.533,13.633,15.922,23.697,30.659,23.697L158.517,427.11L158.517,427.11z"/>
</g>
<g>
	<path style="fill:#088443;" d="M391.41,400.611c14.748,0,27.137,10.076,30.671,23.721c-3.533,13.633-15.922,23.697-30.659,23.697
		h-37.934v-47.418h5.044H391.41z"/>
	<rect x="190.554" y="400.611" style="fill:#088443;" width="130.876" height="47.418"/>
	<path style="fill:#088443;" d="M158.517,400.611v47.418h-37.934c-14.737,0-27.126-10.065-30.659-23.697
		c3.533-13.644,15.922-23.721,30.659-23.721h32.879L158.517,400.611L158.517,400.611z"/>
</g>
<g>
	<polygon style="fill:#808080;" points="190.559,487.754 190.559,503.281 158.517,503.281 158.517,487.754 158.517,427.11 
		158.517,379.693 158.517,332.728 190.559,332.728 190.559,379.693 190.559,427.11 	"/>
	<polygon style="fill:#808080;" points="353.488,487.754 353.488,503.281 321.434,503.281 321.434,487.754 321.434,427.11 
		321.434,379.693 321.434,332.728 353.488,332.728 353.488,379.693 353.488,427.11 	"/>
	<polygon style="fill:#808080;" points="390.213,313.122 390.213,332.472 353.488,332.472 190.559,332.472 121.791,332.472 
		121.791,313.122 121.791,297.757 390.213,297.757 	"/>
	<polygon style="fill:#808080;" points="479.691,191.404 479.691,226.817 466.71,226.817 390.213,226.817 390.213,191.404 
		466.71,191.404 	"/>
	<polygon style="fill:#808080;" points="121.791,191.404 121.791,226.817 45.295,226.817 32.313,226.817 32.313,191.404 
		45.295,191.404 	"/>
</g>
<g>
	<path style="fill:#06B559;" d="M466.71,226.817v86.305c0,17.503-14.19,31.682-31.682,31.682h-13.145
		c-17.491,0-31.67-14.179-31.67-31.682v-15.364v-70.941L466.71,226.817L466.71,226.817z"/>
	<path style="fill:#06B559;" d="M466.71,156.527v34.878h-76.496v-34.878c0-17.491,14.179-31.67,31.67-31.67h13.145
		C452.519,124.857,466.71,139.035,466.71,156.527z"/>
	<path style="fill:#06B559;" d="M391.41,379.693c14.748,0,27.137,10.076,30.671,23.721c-3.533,13.633-15.922,23.697-30.659,23.697
		h-37.934v-47.418h5.044H391.41z"/>
</g>
<path style="fill:#088443;" d="M390.213,332.472v15.55c0,17.491-14.179,31.67-31.682,31.67h-5.044v-46.965v-0.256H390.213z"/>
<path style="fill:#0B9B53;" d="M390.213,226.817v70.941H121.791v-70.941v-35.412v-34.878v-14.26
	c0,17.491,14.179,31.682,31.67,31.682h21.745v45.5h32.054v-45.5h97.486v45.5h32.053v-45.5h21.733
	c17.503,0,31.682-14.19,31.682-31.682v14.26v34.878V226.817z"/>
<path style="fill:#088443;" d="M390.213,138.152v27.358c0,17.491-14.179,31.682-31.682,31.682h-21.733V158.56h-32.053v38.632H207.26
	V158.56h-32.054v38.632h-21.745c-17.491,0-31.67-14.19-31.67-31.682v-27.358c0-17.503,14.179-31.682,31.67-31.682h40.851H317.68
	h40.851C376.035,106.47,390.213,120.649,390.213,138.152z"/>
<path style="fill:#06B559;" d="M390.213,114.908v27.358c0,17.491-14.179,31.682-31.682,31.682h-21.733v-38.632h-32.053v38.632
	H207.26v-38.632h-32.054v38.632h-21.745c-17.491,0-31.67-14.19-31.67-31.682v-27.358c0-17.503,14.179-31.682,31.67-31.682h40.851
	H317.68h40.851C376.035,83.226,390.213,97.405,390.213,114.908z"/>
<g>
	<polygon style="fill:#808080;" points="336.799,173.948 336.799,219.448 304.745,219.448 304.745,173.948 304.745,135.316 
		336.799,135.316 	"/>
	<polygon style="fill:#808080;" points="207.26,173.948 207.26,219.448 175.206,219.448 175.206,173.948 175.206,135.316 
		207.26,135.316 	"/>
</g>
<polygon style="fill:#088443;" points="353.488,332.472 353.488,332.728 321.434,332.728 321.434,379.693 190.559,379.693 
	190.559,332.728 190.559,332.472 "/>
<rect x="190.554" y="379.691" style="fill:#06B559;" width="130.876" height="47.418"/>
<path style="fill:#088443;" d="M190.559,332.472v0.256h-32.042v46.965h-5.056c-17.491,0-31.67-14.179-31.67-31.67v-15.55H190.559z"
	/>
<g>
	<path style="fill:#06B559;" d="M158.517,379.693v47.418h-37.934c-14.737,0-27.126-10.065-30.659-23.697
		c3.533-13.644,15.922-23.721,30.659-23.721h32.879L158.517,379.693L158.517,379.693z"/>
	<path style="fill:#06B559;" d="M121.791,226.817v70.941h-0.581v21.419c-2.824,14.609-15.678,25.627-31.101,25.627H76.965
		c-17.491,0-31.67-14.179-31.67-31.682v-86.305L121.791,226.817L121.791,226.817z"/>
	<path style="fill:#06B559;" d="M121.791,156.527v34.878H45.295v-34.878c0-17.491,14.179-31.67,31.67-31.67H90.11
		C107.601,124.857,121.791,139.035,121.791,156.527z"/>
</g>
<g>
	<path style="fill:#0B9B53;" d="M94.003,344.558c-1.278,0.163-2.58,0.244-3.893,0.244H76.965c-17.491,0-31.67-14.179-31.67-31.682
		v-86.305H66.18v86.305C66.18,329.323,78.325,342.676,94.003,344.558z"/>
	<path style="fill:#0B9B53;" d="M93.98,125.101c-15.666,1.894-27.8,15.248-27.8,31.426v34.878H45.295v-34.878
		c0-17.491,14.179-31.67,31.67-31.67H90.11C91.423,124.857,92.713,124.937,93.98,125.101z"/>
	<path style="fill:#0B9B53;" d="M73.084,344.558c1.278,0.163,2.58,0.244,3.893,0.244h13.145c17.491,0,31.67-14.179,31.67-31.682
		v-86.305h-20.885v86.305C100.906,329.323,88.761,342.676,73.084,344.558z"/>
	<path style="fill:#0B9B53;" d="M73.108,125.101c15.666,1.894,27.8,15.248,27.8,31.426v34.878h20.885v-34.878
		c0-17.491-14.179-31.67-31.67-31.67H76.978C75.663,124.857,74.373,124.937,73.108,125.101z"/>
	<path style="fill:#0B9B53;" d="M418.002,344.558c1.278,0.163,2.58,0.244,3.893,0.244h13.145c17.491,0,31.67-14.179,31.67-31.682
		v-86.305h-20.885v86.305C445.825,329.323,433.68,342.676,418.002,344.558z"/>
	<path style="fill:#0B9B53;" d="M418.026,125.101c15.667,1.894,27.8,15.248,27.8,31.426v34.878h20.885v-34.878
		c0-17.491-14.179-31.67-31.67-31.67h-13.145C420.582,124.857,419.292,124.937,418.026,125.101z"/>
	<path style="fill:#0B9B53;" d="M438.921,344.558c-1.278,0.163-2.58,0.244-3.893,0.244h-13.145c-17.491,0-31.67-14.179-31.67-31.682
		v-86.305h20.885v86.305C411.098,329.323,423.243,342.676,438.921,344.558z"/>
	<path style="fill:#0B9B53;" d="M438.898,125.101c-15.667,1.894-27.8,15.248-27.8,31.426v34.878h-20.885v-34.878
		c0-17.491,14.179-31.67,31.67-31.67h13.145C436.341,124.857,437.631,124.937,438.898,125.101z"/>
</g>
<path style="fill:#333333;" d="M479.687,182.683h-4.264v-26.152c0-22.274-18.121-40.393-40.393-40.393h-13.141
	c-8.525,0-16.436,2.661-22.96,7.187V8.717c0-4.814-3.901-8.717-8.716-8.717c-4.815,0-8.717,3.903-8.717,8.717v72.982
	c-6.525-4.526-14.436-7.187-22.96-7.187H326.4V56.807c0-15.491-12.603-28.093-28.093-28.093h-84.619
	c-15.49,0-28.093,12.603-28.093,28.093V74.51h-32.134c-22.272,0-40.393,18.12-40.393,40.394v8.419
	c-6.525-4.526-14.436-7.187-22.96-7.187H76.97c-22.272,0-40.393,18.121-40.393,40.394v26.152h-4.264
	c-4.815,0-8.717,3.903-8.717,8.717v35.417c0,4.814,3.902,8.717,8.717,8.717h4.264v77.593c0,22.274,18.121,40.393,40.393,40.393
	h13.141c8.525,0,16.436-2.661,22.96-7.187v1.689c0,8.528,2.664,16.442,7.193,22.969c-22.126,0.175-40.073,18.221-40.073,40.387
	v44.711c0,22.265,18.121,40.38,40.393,40.38h29.211v6.819c0,4.814,3.902,8.717,8.717,8.717h32.05c4.815,0,8.717-3.903,8.717-8.717
	v-6.819h113.44v6.819c0,4.814,3.902,8.717,8.717,8.717h32.051c4.815,0,8.717-3.903,8.717-8.717v-6.819h29.211
	c22.272,0,40.394-18.114,40.394-40.38v-44.711c0-22.166-17.947-40.211-40.072-40.385c4.529-6.526,7.193-14.44,7.193-22.969v-1.689
	c6.525,4.526,14.436,7.187,22.96,7.187h13.141c22.272,0,40.394-18.12,40.394-40.394v-77.593h4.264c4.815,0,8.717-3.903,8.717-8.717
	v-35.417C488.403,186.585,484.502,182.683,479.687,182.683z M421.889,133.57h13.141c12.661,0,22.96,10.301,22.96,22.96v26.152
	H398.93V156.53C398.929,143.87,409.228,133.57,421.889,133.57z M470.97,218.099h-72.041v-17.984h72.041V218.099z M41.029,218.099
	v-17.984h72.041v17.984H41.029z M175.205,228.16h32.05c4.815,0,8.717-3.903,8.717-8.717v-36.783h80.055v36.783
	c0,4.814,3.902,8.717,8.717,8.717h32.051c4.815,0,8.717-3.903,8.717-8.717v-36.783h13.025c8.525,0,16.436-2.661,22.96-7.187v113.569
	H130.503V175.474c6.525,4.526,14.436,7.187,22.96,7.187h13.025v36.783C166.488,224.257,170.39,228.16,175.205,228.16z
	 M183.921,210.727v-66.7h14.617v66.7H183.921z M313.459,210.727v-66.7h14.618v66.7H313.459z M381.496,323.751H130.503v-17.274
	h250.993V323.751z M149.796,370.659c-10.919-1.765-19.293-11.229-19.293-22.639v-6.836h19.293V370.659z M199.279,388.414h113.44
	v29.979h-113.44L199.279,388.414L199.279,388.414z M199.279,370.981v-29.797h113.44v29.797H199.279z M381.496,341.184v6.836
	c0,11.409-8.374,20.874-19.293,22.639v-29.476h19.293V341.184z M203.03,56.807c0-5.878,4.781-10.66,10.66-10.66h84.619
	c5.878,0,10.66,4.782,10.66,10.66V74.51H203.031V56.807H203.03z M130.503,114.905c0-12.661,10.299-22.96,22.96-22.96h205.072
	c12.661,0,22.96,10.299,22.96,22.96v27.363c0,12.661-10.299,22.96-22.96,22.96H345.51v-29.917c0-4.814-3.902-8.717-8.717-8.717
	h-32.051c-4.815,0-8.717,3.903-8.717,8.717v29.917h-80.055v-29.917c0-4.814-3.902-8.717-8.717-8.717h-32.05
	c-4.815,0-8.717,3.903-8.717,8.717v29.917h-13.025c-12.661,0-22.96-10.299-22.96-22.96
	C130.503,142.267,130.503,114.905,130.503,114.905z M54.009,156.531c0-12.661,10.299-22.96,22.96-22.96h13.141
	c12.661,0,22.96,10.301,22.96,22.96v26.152H54.009V156.531z M90.11,336.086H76.97c-12.661,0-22.96-10.299-22.96-22.96v-77.593
	h59.061v77.593C113.07,325.785,102.771,336.086,90.11,336.086z M120.585,388.414h29.211v29.979h-29.217
	c-9.678,0-18.211-6.047-21.512-14.952C102.307,394.684,110.715,388.414,120.585,388.414z M120.585,479.032
	c-12.661,0-22.96-10.294-22.96-22.947v-27.416c6.578,4.541,14.519,7.158,22.955,7.158h29.217v43.206h-29.211V479.032z
	 M181.846,494.567h-14.617V341.445h14.617V494.567z M199.279,479.032v-43.206h113.44v43.206H199.279z M344.77,494.567h-14.618
	V341.445h14.618V494.567z M391.414,479.032h-29.211v-43.206h29.215c8.436,0,16.378-2.616,22.956-7.158v27.418
	C414.374,468.738,404.075,479.032,391.414,479.032z M412.932,403.439c-3.301,8.907-11.835,14.954-21.512,14.954h-29.215v-29.979
	h29.211C401.282,388.414,409.691,394.684,412.932,403.439z M457.99,313.125c0,12.661-10.299,22.96-22.96,22.96h-13.141
	c-12.661,0-22.96-10.299-22.96-22.96v-15.364v-62.229h59.061v77.593H457.99z"/>
</svg>