<?xml version="1.0" encoding="iso-8859-1"?>
<!-- Uploaded to: SVG Repo, www.svgrepo.com, Generator: SVG Repo Mixer Tools -->
<svg height="800px" width="800px" version="1.1" id="Layer_1" xmlns="http://www.w3.org/2000/svg" xmlns:xlink="http://www.w3.org/1999/xlink" 
	 viewBox="0 0 511.999 511.999" xml:space="preserve">
<g>
	<path style="fill:#999999;" d="M481.495,339.534c0,0,0,0.012-0.012,0c-3.608,2.456-7.972,3.875-12.662,3.875
		c-12.534,0-22.693-10.16-22.693-22.693c0-12.522,10.16-22.682,22.693-22.682c12.522,0,22.682,10.16,22.682,22.682
		C491.503,328.548,487.535,335.461,481.495,339.534z"/>
	<path style="fill:#999999;" d="M375.709,323.73c17.969,0,32.527,14.559,32.527,32.527c0,17.957-14.559,32.527-32.527,32.527
		c-17.969,0-32.527-14.57-32.527-32.527C343.182,338.289,357.74,323.73,375.709,323.73z"/>
	<path style="fill:#999999;" d="M257.68,326.721c17.142,0,31.038,13.895,31.038,31.026c0,17.142-13.895,31.038-31.038,31.038
		c-17.131,0-31.026-13.895-31.026-31.038C226.654,340.616,240.549,326.721,257.68,326.721z"/>
	<path style="fill:#999999;" d="M147.227,323.765c17.945,0,32.504,14.559,32.504,32.516c0,17.945-14.559,32.504-32.504,32.504
		c-17.957,0-32.516-14.559-32.516-32.504C114.712,338.323,129.27,323.765,147.227,323.765z"/>
	<path style="fill:#999999;" d="M36.169,352.649c-10.625-3.887-18.201-14.082-18.201-26.045c0-15.315,12.417-27.732,27.732-27.732
		s27.732,12.417,27.732,27.732S61.016,354.325,45.7,354.325c-3.34,0-6.54-0.594-9.496-1.664
		C36.192,352.649,36.181,352.649,36.169,352.649z"/>
</g>
<path style="fill:#088443;" d="M481.483,339.534l-36.135,34.692c-9.729,9.345-22.682,14.559-36.17,14.559h-33.47
	c17.969,0,32.527-14.57,32.527-32.527c0-17.969-14.559-32.527-32.527-32.527s-32.527,14.559-32.527,32.527
	c0,17.957,14.559,32.527,32.527,32.527H257.68c17.142,0,31.038-13.895,31.038-31.038c0-17.131-13.895-31.026-31.038-31.026
	c-17.131,0-31.026,13.895-31.026,31.026c0,17.142,13.895,31.038,31.026,31.038H147.227c17.945,0,32.504-14.559,32.504-32.504
	c0-17.957-14.559-32.516-32.504-32.516c-17.957,0-32.516,14.559-32.516,32.516c0,17.945,14.559,32.504,32.516,32.504h-22.263
	c-7.96,0-15.816-1.548-23.182-4.539l-65.578-31.585c2.956,1.071,6.156,1.664,9.496,1.664c15.315,0,27.732-12.406,27.732-27.721
	S61.016,298.872,45.7,298.872l423.121-0.838c-12.534,0-22.693,10.16-22.693,22.682c0,12.534,10.16,22.693,22.693,22.693
	C473.511,343.409,477.876,341.989,481.483,339.534z"/>
<g>
	<polygon style="fill:#0B9B53;" points="238.024,176.886 219.148,211.671 25.8,211.671 25.8,200.045 75.027,176.886 	"/>
	<polygon style="fill:#0B9B53;" points="499.778,248.737 477.224,267.73 298.016,267.73 298.016,224.356 383.681,224.356 
		428.369,224.356 	"/>
</g>
<path style="fill:#06B559;" d="M383.681,224.356h-85.665v43.373H67.055c-5.54,0-11.044,0.407-16.491,1.222L25.8,233.375v-21.704
	h193.348l18.876-34.785h19.947h36.053h22.03L383.681,224.356z"/>
<g>
	<path style="fill:#333333;" d="M508.165,278.151l-16.497-11.176l13.727-11.563c2.407-2.027,3.537-5.193,2.956-8.286
		c-0.581-3.092-2.78-5.634-5.758-6.65l-71.406-24.381c-0.908-0.311-1.861-0.468-2.82-0.468h-41.928l-65.369-45.885
		c-1.469-1.031-3.22-1.584-5.015-1.584h-13.302v-19.316h103.584c4.82,0,8.728-3.908,8.728-8.728c0-4.82-3.908-8.728-8.728-8.728
		h-11.15v-8.168c0-4.82-3.908-8.728-8.728-8.728c-4.82,0-8.728,3.908-8.728,8.728v8.168h-75.016
		c-0.393-4.456-4.131-7.952-8.689-7.952s-8.295,3.496-8.689,7.952H266.66c-0.393-4.456-4.131-7.952-8.689-7.952
		c-4.557,0-8.295,3.496-8.689,7.952h-30.793c-4.82,0-8.728,3.908-8.728,8.728c0,4.82,3.908,8.728,8.728,8.728h30.754v19.316H75.031
		c-1.285,0-2.552,0.284-3.715,0.83l-49.234,23.155c-3.06,1.438-5.013,4.517-5.013,7.898v33.33c0,1.784,0.547,3.524,1.565,4.988
		l17.224,24.733c-5.58,1.493-11.071,3.387-16.447,5.69l-14.118,6.05c-4.43,1.899-6.483,7.03-4.584,11.461s7.031,6.482,11.461,4.584
		l14.118-6.05c12.957-5.552,26.676-8.369,40.772-8.369h407.485l23.832,16.144c1.5,1.016,3.203,1.504,4.888,1.504
		c2.798,0,5.547-1.343,7.234-3.833C513.199,286.281,512.155,280.854,508.165,278.151z M482.34,252.007l-8.306,6.995H306.746v-25.919
		h120.17L482.34,252.007z M266.697,148.842h18.599v19.316h-18.599V148.842z M76.98,185.616h146.379l-9.409,17.333H40.126
		L76.98,185.616z M54.716,259.627l-20.191-28.995v-10.228h184.619c3.2,0,6.144-1.751,7.67-4.564l16.408-30.225h14.702
		c0.015,0,0.03,0.002,0.045,0.002c0.015,0,0.03-0.002,0.045-0.002h35.966c0.015,0,0.03,0.002,0.045,0.002
		c0.015,0,0.03-0.002,0.045-0.002h19.227l42.757,30.012h-58.036c-4.82,0-8.728,3.908-8.728,8.728v34.648H67.058
		C62.914,259.004,58.797,259.212,54.716,259.627z"/>
	<path style="fill:#333333;" d="M468.818,289.303c-0.006,0-423.133,0.841-423.133,0.841c-20.095,0.009-36.44,16.36-36.44,36.457
		c0,15.491,9.715,28.746,23.368,34.018l65.383,31.487c0.164,0.079,0.332,0.154,0.5,0.222c8.458,3.437,17.361,5.18,26.462,5.18
		h284.224c15.812,0,30.804-6.031,42.212-16.979l35.762-34.323c7.914-5.709,13.078-15.003,13.078-25.485
		C500.234,303.397,486.141,289.303,468.818,289.303z M482.777,320.719c0,7.697-6.262,13.959-13.959,13.959
		s-13.959-6.262-13.959-13.959s6.262-13.959,13.959-13.959S482.777,313.022,482.777,320.719z M45.703,307.6
		c10.477,0,19.001,8.523,19.001,19.001s-8.523,19.001-19.001,19.001s-19.001-8.523-19.001-19.001S35.225,307.6,45.703,307.6z
		 M147.277,380.051h-0.112c-13.085-0.03-23.722-10.683-23.722-23.776c0-13.111,10.667-23.778,23.778-23.778
		c13.111,0,23.778,10.667,23.778,23.778C170.999,369.368,160.362,380.02,147.277,380.051z M235.381,357.751
		c0-12.297,10.005-22.302,22.304-22.302c12.297,0,22.302,10.005,22.302,22.302c0,12.279-9.975,22.269-22.246,22.3h-0.112
		C245.356,380.02,235.381,370.03,235.381,357.751z M351.91,356.255c0-13.123,10.676-23.799,23.799-23.799
		c13.123,0,23.799,10.676,23.799,23.799c0,13.104-10.646,23.765-23.742,23.795h-0.112C362.556,380.02,351.91,369.359,351.91,356.255
		z M439.306,367.933c-8.142,7.815-18.839,12.118-30.124,12.118h-0.243c5.04-6.504,8.025-14.666,8.025-23.795
		c0-22.748-18.507-41.255-41.255-41.255s-41.255,18.507-41.255,41.255c0,9.13,2.986,17.291,8.025,23.795h-52.313
		c4.577-6.155,7.277-13.784,7.277-22.3c0-21.923-17.836-39.759-39.759-39.759s-39.76,17.836-39.76,39.759
		c0,8.516,2.7,16.145,7.277,22.3h-44.762c5.033-6.5,8.016-14.654,8.016-23.776c0-22.736-18.498-41.234-41.234-41.234
		s-41.234,18.498-41.234,41.234c0,8.483,2.577,16.13,6.985,22.387c-2.595-0.607-5.153-1.405-7.658-2.408l-39.717-19.126
		c9.962-6.515,16.562-17.761,16.562-30.527c0-6.971-1.97-13.489-5.378-19.033l363.891-0.786c-2.09,4.204-3.271,8.934-3.271,13.937
		c0,13.46,8.511,24.966,20.432,29.43L439.306,367.933z"/>
</g>
</svg>