<?xml version="1.0" encoding="iso-8859-1"?>
<!-- Uploaded to: SVG Repo, www.svgrepo.com, Generator: SVG Repo Mixer Tools -->
<svg fill="#000000" height="800px" width="800px" version="1.1" id="Layer_1" xmlns="http://www.w3.org/2000/svg" xmlns:xlink="http://www.w3.org/1999/xlink" 
	 viewBox="0 0 512 512" xml:space="preserve">
<g>
	<g>
		<path d="M510.422,461.213l-82.286-121.305c-2.295-3.384-6.554-4.839-10.455-3.54c-39.494,13.154-62.605,2.25-70.369-2.721
			c-1.614-31.694-19.455-59.16-45.346-74.286c2.799-34.965,30.083-49.374,31.268-49.98c4.438-2.223,6.295-7.58,4.187-12.072
			L264.277,41.88c-1.509-3.205-4.732-5.25-8.277-5.25c-3.544,0-6.768,2.045-8.277,5.25l-73.143,155.43
			c-1.509,3.214-1.018,7.018,1.25,9.746c26.295,31.55,32.958,46.315,34.639,52.057c-26.128,15.074-44.163,42.672-45.779,74.548
			c-7.656,4.91-30.79,15.892-70.369,2.708c-3.902-1.295-8.161,0.156-10.456,3.54L1.578,461.213
			c-1.902,2.803-2.098,6.365-0.518,9.356c1.589,2.991,4.697,4.801,8.08,4.801h146.287c4.955,0,9.009-4.011,9.143-8.967
			c0.027-1.242,1.331-30.511,48.608-46.27c0.393-0.132,0.748-0.307,1.109-0.484c12.518,6.446,26.692,10.118,41.712,10.118
			c15.02,0,29.194-3.661,41.713-10.107c0.362,0.177,0.714,0.371,1.109,0.501c47.277,15.759,48.581,45,48.607,46.125
			c0,5.049,4.089,9.084,9.143,9.084h146.287c3.384,0,6.491-1.81,8.081-4.801C512.52,467.578,512.323,464.017,510.422,461.213z
			 M193.598,199.854L256,67.246l61.438,130.559c-10.487,7.577-28.502,24.526-32.973,53.674c-8.964-2.947-18.527-4.562-28.465-4.562
			c-10.058,0-19.73,1.656-28.79,4.671C222.81,239.128,211.667,221.98,193.598,199.854z M147.651,457.085H26.391l68.804-101.37
			c33.391,9.527,57.002,3.972,70.677-2.124c3.585,21.222,14.502,39.928,30.054,53.517
			C161.281,422.105,150.809,445.656,147.651,457.085z M256,411.489c-40.331,0-73.143-32.813-73.143-73.143
			c0-27.611,15.382-51.693,38.025-64.14c1.781-0.286,3.491-1.091,4.884-2.435c9.223-4.206,19.455-6.568,30.234-6.568
			c10.775,0,21.005,2.362,30.226,6.565c1.308,1.266,2.995,2.125,4.875,2.43c22.652,12.445,38.043,36.531,38.043,64.149
			C329.143,378.677,296.331,411.489,256,411.489z M364.349,457.085c-3.159-11.429-13.63-34.965-48.277-49.962
			c15.554-13.591,26.471-32.312,30.056-53.537c13.676,6.095,37.288,11.636,70.677,2.115l68.804,101.385H364.349z"/>
	</g>
</g>
</svg>