<?xml version="1.0" encoding="iso-8859-1"?>
<!-- Uploaded to: SVG Repo, www.svgrepo.com, Generator: SVG Repo Mixer Tools -->
<svg fill="#000000" height="800px" width="800px" version="1.1" id="Layer_1" xmlns="http://www.w3.org/2000/svg" xmlns:xlink="http://www.w3.org/1999/xlink" 
	 viewBox="0 0 512 512" xml:space="preserve">
<g>
	<g>
		<path d="M482.022,65.538L258.605,0.375c-1.7-0.5-3.509-0.5-5.209,0L29.978,65.538c-4.495,1.309-7.314,5.75-6.591,10.373
			l9.57,61.257c-0.706,2.561-0.332,5.355,1.193,7.634l35.782,228.999c0.377,2.427,1.695,4.6,3.673,6.059l176.872,130.327
			c1.641,1.209,3.582,1.814,5.523,1.814c1.941,0,3.882-0.604,5.523-1.814L438.395,379.86c0.209-0.155,0.38-0.348,0.575-0.518
			c0.158-0.138,0.333-0.244,0.484-0.395c0.048-0.048,0.079-0.106,0.126-0.155c0.241-0.251,0.445-0.527,0.656-0.804
			c0.168-0.218,0.348-0.429,0.493-0.659c0.159-0.252,0.282-0.523,0.416-0.79c0.141-0.28,0.293-0.552,0.404-0.842
			c0.093-0.244,0.15-0.501,0.223-0.754c0.095-0.331,0.199-0.657,0.257-0.994c0.009-0.051,0.031-0.098,0.039-0.149l46.545-297.89
			C489.336,71.288,486.517,66.847,482.022,65.538z M94.906,65.962c0.263,0.35,0.517,0.659,0.835,0.977l128.477,128.431H204
			L79.109,70.539L94.906,65.962z M43.056,81.187l-0.015-0.082l17.612-5.123c0.303,1.857,1.15,3.581,2.583,5.014l114.436,114.375
			h-20.218L43.728,81.705C43.519,81.496,43.279,81.372,43.056,81.187z M47.909,112.182l83.219,83.188H110.91l-59.257-59.195
			L47.909,112.182z M56.529,167.317l28.053,28.053h-23.67L56.529,167.317z M247.77,484.268L88.272,367.081L63.821,213.989H247.77
			V484.268z M247.77,191.638L115.682,60.091l16.175-4.718c0.431,0.83,0.95,1.624,1.647,2.32L247.77,171.42V191.638z M247.77,145.093
			L151.988,49.58l15.386-4.567l80.396,79.861V145.093z M247.77,98.546l-60.015-59.477l15.651-4.565
			c0.002,0.002,0.003,0.005,0.006,0.007l44.358,43.818V98.546z M247.77,52.002l-23.443-23.443l23.443-6.838V52.002z
			 M266.389,484.268v-28.591l16.461,16.461L266.389,484.268z M296.928,460.97l-29.484-30.024c-0.493-0.492-1.056-0.906-1.056-1.265
			v-24.324l43.003,46.827L296.928,460.97z M324.481,441.065l-58.093-63.054v-19.589l70.102,73.993L324.481,441.065z
			 M351.326,421.286l-84.937-89.876v-20.354l99.459,99.729L351.326,421.286z M380.736,399.615L266.389,284.728V264.51
			l126.258,126.528L380.736,399.615z M407.534,379.869L266.389,238.183v-20.218l153.056,153.327L407.534,379.869z M426.503,352.757
			L287.782,213.989H308l118.29,118.351c0.91,0.911,1.963,1.624,3.085,2.078L426.503,352.757z M432.792,312.501l-98.466-98.512
			h24.736l76.536,76.597c0.171,0.17,0.369,0.324,0.55,0.479L432.792,312.501z M439.693,268.323l-54.303-54.334h20.095l36.924,36.984
			L439.693,268.323z M445.966,228.143l-14.153-14.154h16.365L445.966,228.143z M451.087,195.371H266.389V21.721L469.498,81.06
			L451.087,195.371z"/>
	</g>
</g>
</svg>