<?xml version="1.0" encoding="iso-8859-1"?>
<!-- Uploaded to: SVG Repo, www.svgrepo.com, Generator: SVG Repo Mixer Tools -->
<svg fill="#000000" height="800px" width="800px" version="1.1" id="Layer_1" xmlns="http://www.w3.org/2000/svg" xmlns:xlink="http://www.w3.org/1999/xlink" 
	 viewBox="0 0 512 512" xml:space="preserve">
<g>
	<g>
		<path d="M255.999,249.713c-46.241,0-83.859,37.619-83.859,83.859s37.619,83.859,83.859,83.859
			c46.241,0,83.859-37.619,83.859-83.859C339.858,287.332,302.24,249.713,255.999,249.713z M264.761,301.885
			c13.889,3.846,24.119,16.59,24.119,31.686c0,5.891-1.564,11.419-4.286,16.204l-19.833-19.833V301.885z M272.202,362.167
			c-4.786,2.723-10.314,4.288-16.203,4.288c-5.889,0-11.418-1.564-16.204-4.286l16.204-16.204L272.202,362.167z M247.238,329.944
			l-19.833,19.833c-2.724-4.786-4.288-10.315-4.288-16.204c0-15.097,10.231-27.841,24.12-31.686V329.944z M203.336,373.843
			c-8.566-11.175-13.672-25.134-13.672-40.271c0-33.606,25.125-61.434,57.573-65.738v16.111
			c-23.63,4.161-41.645,24.824-41.645,49.628c0,10.739,3.387,20.696,9.132,28.882L203.336,373.843z M255.999,399.907
			c-15.136,0-29.096-5.107-40.271-13.672l11.388-11.388c8.186,5.746,18.143,9.132,28.882,9.132c10.739,0,20.696-3.387,28.882-9.132
			l11.388,11.388C285.095,394.801,271.135,399.907,255.999,399.907z M308.662,373.843l-11.388-11.388
			c5.746-8.186,9.133-18.143,9.133-28.882c0-24.804-18.014-45.466-41.643-49.628v-16.111c32.448,4.304,57.573,32.132,57.573,65.738
			C322.334,348.709,317.227,362.668,308.662,373.843z"/>
	</g>
</g>
<g>
	<g>
		<path d="M511.451,337.657c-0.81-2.179-2.451-3.946-4.563-4.915l-54.435-24.949c-4.397-2.016-9.6-0.086-11.616,4.314
			l-11.684,25.492l-15.834-7.261c3.18-12.656,4.879-25.893,4.879-39.522v-1.684c13.87-8.34,23.196-22.328,25.432-38.7
			c3.09-22.623,4.144-45.63,3.135-68.382c-0.808-18.223-8.56-35.152-21.827-47.673c-2.658-2.508-5.485-4.772-8.443-6.806
			c-6.388-18.74-15.891-35.991-28.327-51.417l10.607-10.607c3.422-3.422,3.422-8.97,0-12.391l-30.431-30.433
			c-1.643-1.644-3.872-2.567-6.195-2.567s-4.553,0.923-6.195,2.567l-13.684,13.684c-26.068-15.435-55.738-23.574-86.28-23.574
			c-30.534,0-60.2,8.138-86.257,23.574l-13.684-13.684c-1.643-1.644-3.872-2.567-6.195-2.567c-2.324,0-4.553,0.923-6.195,2.567
			l-30.433,30.434c-3.422,3.422-3.422,8.97,0,12.391l10.607,10.608c-12.434,15.424-21.936,32.673-28.324,51.41
			c-2.963,2.036-5.794,4.302-8.453,6.812c-13.266,12.519-21.017,29.45-21.827,47.673c-1.011,22.748,0.044,45.755,3.135,68.381
			c2.236,16.377,11.566,30.367,25.441,38.706v1.679c0,13.628,1.699,26.866,4.879,39.522l-15.834,7.261l-11.684-25.492
			c-2.016-4.399-7.216-6.331-11.616-4.314L5.111,332.742c-2.112,0.969-3.754,2.736-4.563,4.915c-0.808,2.179-0.72,4.589,0.249,6.701
			l68.611,149.694c1.474,3.216,4.65,5.114,7.971,5.114c1.221,0,2.462-0.257,3.645-0.799l54.435-24.949
			c2.112-0.969,3.754-2.736,4.563-4.915c0.808-2.179,0.72-4.589-0.249-6.701l-11.685-25.494l32.099-14.703
			c26.866,19.735,60,31.41,95.814,31.41c35.815,0,68.949-11.676,95.813-31.41l32.099,14.703l-11.684,25.493
			c-0.969,2.112-1.057,4.524-0.249,6.701c0.81,2.179,2.451,3.946,4.563,4.915l54.435,24.949c1.183,0.542,2.424,0.799,3.645,0.799
			c3.32,0,6.497-1.897,7.971-5.114l68.611-149.694C512.172,342.246,512.261,339.835,511.451,337.657z M429.259,182.828
			c0.963,21.703-0.043,43.651-2.991,65.233c-1.748,12.796-9.919,23.447-21.859,28.492c-12.086,5.107-25.602,3.508-36.153-4.276
			c-4.818-3.554-9.5-7.06-14.074-10.527l37.48-59.85c1.692-2.701,1.783-6.107,0.24-8.894s-4.479-4.518-7.666-4.518h-24.43
			l36.163-52.142C414.788,143.579,428.307,161.364,429.259,182.828z M335.303,201.313c1.512,2.889,4.503,4.699,7.763,4.699h25.344
			l-28.182,45.006c-18.916-14.783-35.406-28.659-49.229-41.437c-11.738-10.851-16.056-26.474-11.547-41.793
			c4.484-15.237,16.501-25.972,32.144-28.719c21.826-3.831,43.603-5.917,64.726-6.201c0.244-0.004,0.485,0.007,0.729,0.007
			l-41.183,59.381C334.009,194.936,333.791,198.425,335.303,201.313z M362.147,41.311l18.042,18.042l-21.09,21.09l-18.041-18.042
			L362.147,41.311z M149.851,41.311l21.089,21.09l-18.042,18.042l-21.089-21.09L149.851,41.311z M85.724,248.061
			c-2.949-21.586-3.955-43.534-2.991-65.233c1.25-28.156,24.113-49.965,52.206-49.965c0.243,0,0.49,0.001,0.732,0.005
			c9.833,0.132,19.812,0.672,29.867,1.58l-40.094,57.809c-1.859,2.679-2.075,6.169-0.563,9.057c1.512,2.889,4.503,4.699,7.763,4.699
			h25.342l-45.259,72.279c-1.735-0.453-3.455-1.022-5.145-1.737C95.643,271.508,87.471,260.857,85.724,248.061z M181.476,193.006
			c-1.543-2.788-4.479-4.518-7.666-4.518h-24.428l35.913-51.782c5.026,0.697,10.061,1.479,15.1,2.363
			c15.645,2.745,27.66,13.482,32.144,28.719c4.507,15.319,0.19,30.943-11.547,41.793c-20.272,18.739-46.266,39.833-77.259,62.697
			c-3.054,2.254-6.361,3.971-9.807,5.176l47.31-75.553C182.929,199.199,183.021,195.793,181.476,193.006z M81.686,478.786
			L20.378,345.021l38.504-17.647l61.309,133.765L81.686,478.786z M120.789,420.377l-30.638-66.848l13.769-6.315
			c8.847,23.779,23.122,44.937,41.308,61.968L120.789,420.377z M256,435.492c-78.044,0-141.84-62.118-144.573-139.506
			c3.517,0.706,7.063,1.058,10.598,1.058c11.351,0,22.557-3.615,32.113-10.664c31.511-23.245,58.006-44.755,78.752-63.931
			c16.489-15.241,22.798-38.083,16.463-59.608c-6.31-21.444-23.908-37.167-45.926-41.032c-22.745-3.992-45.461-6.166-67.519-6.464
			c-5.919-0.074-11.744,0.599-17.369,1.955c4.813-10.169,10.754-19.747,17.766-28.668l10.399,10.399
			c1.643,1.644,3.872,2.567,6.195,2.567c2.324,0,4.553-0.923,6.195-2.567l30.433-30.433c3.422-3.422,3.422-8.97,0-12.391
			l-6.966-6.966C204.954,36.86,230.124,30.361,256,30.361c25.861,0,51.033,6.499,73.437,18.881l-6.966,6.966
			c-3.422,3.422-3.422,8.97,0,12.391l30.433,30.433c1.643,1.644,3.872,2.567,6.195,2.567s4.553-0.923,6.195-2.567l10.4-10.4
			c7.013,8.922,12.956,18.504,17.77,28.674c-5.625-1.355-11.452-2.029-17.379-1.959c-22.057,0.297-44.774,2.472-67.519,6.464
			c-22.019,3.865-39.617,19.587-45.926,41.032c-6.334,21.526-0.026,44.367,16.463,59.608c20.744,19.176,47.241,40.685,78.752,63.931
			c9.558,7.051,20.76,10.664,32.113,10.664c3.535,0,7.086-0.354,10.606-1.06C397.841,373.373,334.044,435.492,256,435.492z
			 M366.772,409.182c18.187-17.031,32.461-38.189,41.308-61.968l13.769,6.315l-30.638,66.848L366.772,409.182z M430.313,478.786
			l-38.504-17.647l61.309-133.765l38.504,17.647L430.313,478.786z"/>
	</g>
</g>
</svg>