<?xml version="1.0" encoding="iso-8859-1"?>
<!-- Uploaded to: SVG Repo, www.svgrepo.com, Generator: SVG Repo Mixer Tools -->
<svg fill="#000000" height="800px" width="800px" version="1.1" id="Layer_1" xmlns="http://www.w3.org/2000/svg" xmlns:xlink="http://www.w3.org/1999/xlink" 
	 viewBox="0 0 511.999 511.999" xml:space="preserve">
<g>
	<g>
		<path d="M476.342,2.368c-3.158-3.157-8.277-3.157-11.434,0l-70.507,70.507l-3.43-3.43c-3.158-3.157-8.277-3.157-11.434,0
			l-47.432,47.432h-41.069l-15.417-15.417c-1.517-1.516-3.572-2.368-5.718-2.368c-2.145,0-4.2,0.852-5.718,2.368L136.635,229.007
			c-3.157,3.157-3.157,8.277,0,11.433l17.786,17.785c1.517,1.517,3.572,2.368,5.718,2.368c2.145,0,4.2-0.852,5.718-2.368
			l56.578-56.578h24.899L41.484,407.496c-5.949,5.949-8.885,14.163-8.057,22.535c0.829,8.373,5.32,15.852,12.32,20.518l85.16,56.774
			c4.713,3.141,10.114,4.676,15.487,4.676c7.233,0,14.418-2.782,19.809-8.172c11.709-11.71,16.767-28.422,13.527-44.703
			c-5.11-25.683,1.723-50.514,12.908-72.062l79.074,45.485c1.237,0.713,2.629,1.077,4.031,1.077c0.801,0,1.604-0.119,2.384-0.359
			c2.144-0.662,3.918-2.186,4.895-4.207l25.663-53.103c1.807-3.737,0.488-8.237-3.05-10.408l-67.143-41.212l22.296-40.953
			c1.36-2.499,3.677-2.42,4.609-2.27c0.938,0.151,3.176,0.806,3.688,3.622c4.599,25.332,16.114,47.361,34.223,65.471
			c1.517,1.517,3.572,2.368,5.718,2.368c2.145,0,4.2-0.852,5.718-2.368l47.259-47.259c1.744-1.744,2.596-4.19,2.314-6.64
			l-12.765-110.964l37.764-37.765l5.967,5.967l-4.954,4.954c-1.516,1.516-2.367,3.572-2.367,5.716c0,2.144,0.852,4.201,2.367,5.716
			l44.596,44.595c1.517,1.517,3.572,2.368,5.718,2.368s4.2-0.852,5.718-2.368l20.325-20.326c3.157-3.157,3.157-8.277,0-11.433
			l-44.595-44.596c-1.517-1.516-3.572-2.368-5.718-2.368c-2.145,0-4.2,0.852-5.718,2.368l-3.938,3.938l-11.683-11.683l-8.512-8.512
			l22.74-22.74c1.516-1.516,2.367-3.572,2.367-5.716c0-2.144-0.852-4.201-2.367-5.716l-3.43-3.43l70.507-70.507
			C479.498,10.644,479.498,5.525,476.342,2.368z M416.373,155.32l33.162,33.162l-8.892,8.893l-33.163-33.162L416.373,155.32z
			 M160.138,241.076l-6.352-6.353L269.9,118.609l6.352,6.352L160.138,241.076z M238.604,185.478l52.431-52.432h24.899
			l-52.431,52.432H238.604z M290.947,375.501l-18.702,38.697l-71.499-41.128c8.985-14.048,19.282-26.196,28.25-35.594
			L290.947,375.501z M340.062,302.019c-1.977,1.972-4.669,2.751-7.4,2.141c-2.731-0.613-4.837-2.475-5.78-5.11l-18.397-51.387
			c-0.48-1.339-0.14-2.853,0.867-3.859l23.988-23.989c1.476-1.476,3.165-1.107,3.82-0.881c0.672,0.232,1.731,0.806,2.225,2.11
			l8.424,73.23L340.062,302.019z M337.359,176.667c-1.744,1.744-2.596,4.19-2.314,6.64l2.22,19.292
			c-5.635-0.39-11.212,1.636-15.357,5.78l-23.988,23.989c-5.406,5.404-7.233,13.547-4.657,20.745l18.398,51.387
			c2.181,6.091,6.612,10.922,12.287,13.634l-14.713,14.713c-12.583-14.542-20.725-31.663-24.236-51.005
			c-1.587-8.735-8.271-15.289-17.029-16.697c-8.753-1.406-17.14,2.716-21.378,10.503l-25.411,46.675
			c-26.587,26.782-44.484,54.28-53.198,81.746c-7.969,25.116-6.632,45.516-4.107,58.208c2.182,10.974-1.22,22.232-9.102,30.115
			c-3.965,3.965-10.228,4.585-14.893,1.476l-85.16-56.774c-2.954-1.969-4.849-5.125-5.198-8.658c-0.349-3.533,0.889-6.998,3.4-9.509
			l203.259-203.26l5.94,5.94c3.301,3.3,7.688,5.117,12.355,5.117c4.667,0,9.054-1.818,12.355-5.118l88.261-88.261l2.795,2.795
			L337.359,176.667z M275.394,210.174c-0.315,0.315-0.675,0.382-0.921,0.382c-0.247,0-0.607-0.067-0.921-0.382l-5.939-5.94
			L385.253,86.595l6.86,6.86L275.394,210.174z"/>
	</g>
</g>
</svg>