<?xml version="1.0" encoding="iso-8859-1"?>
<!-- Uploaded to: SVG Repo, www.svgrepo.com, Generator: SVG Repo Mixer Tools -->
<svg fill="#000000" height="800px" width="800px" version="1.1" id="Layer_1" xmlns="http://www.w3.org/2000/svg" xmlns:xlink="http://www.w3.org/1999/xlink" 
	 viewBox="0 0 512 512" xml:space="preserve">
<g>
	<g>
		<path d="M304.956,330.283c14.163-14.162,21.962-32.992,21.962-53.02c0-17.607-6.032-34.284-17.111-47.681l129.517-129.518
			l-31.221-31.22l12.346-12.346L363.953,0l-12.347,12.346L340.059,0.799l-21.458,21.459l11.547,11.547L107.805,256.148
			l-11.547-11.547L74.8,266.059l11.859,11.86c-9.055,11.393-13.983,25.399-13.983,40.169c0,17.29,6.732,33.544,18.958,45.769
			l10.729,10.729l12.346-12.347l31.221,31.22l16.19-16.19L259.645,512l84.68-84.68l-57.28-79.13L304.956,330.283z M283.498,308.825
			l-14.47,14.47L246.8,292.59l4.981-4.981l15.814,15.814l21.458-21.458L273.24,266.15l3.478-3.478l11.468-11.468
			c5.446,7.54,8.386,16.573,8.386,26.059C296.571,289.186,291.928,300.395,283.498,308.825z M104.845,329.187
			c-1.199-3.526-1.822-7.265-1.822-11.099c0-9.183,3.576-17.817,10.069-24.311l250.861-250.86l13.581,13.581l-1.617,1.617
			L114.71,319.322L104.845,329.187z M145.93,350.543l-9.763-9.763L386.645,90.303l9.763,9.763L288.593,207.88l-81.546,81.546
			L145.93,350.543z M304.574,424.157l-41.215,41.216l-79.506-109.836l41.216-41.216l10.151,14.024L304.574,424.157z"/>
	</g>
</g>
</svg>