<?xml version="1.0" encoding="iso-8859-1"?>
<!-- Uploaded to: SVG Repo, www.svgrepo.com, Generator: SVG Repo Mixer Tools -->
<svg fill="#000000" height="800px" width="800px" version="1.1" id="Layer_1" xmlns="http://www.w3.org/2000/svg" xmlns:xlink="http://www.w3.org/1999/xlink" 
	 viewBox="0 0 512 512" xml:space="preserve">
<g>
	<g>
		<polygon points="298.487,369.458 269.131,365.189 256,338.585 242.869,365.189 213.514,369.458 234.755,390.164 229.743,419.402 
			256,405.6 282.258,419.402 277.246,390.164 		"/>
	</g>
</g>
<g>
	<g>
		<path d="M407.344,334.086l-104.576-15.195l-26.784-54.272l23.071-13.05l6.652-3.763l23.74-13.428v-0.001l51.393-29.073V0h-51.393
			h-30.392h-86.11h-30.392H131.16v205.305l51.393,29.073v0.001l23.74,13.428l6.652,3.763l23.071,13.05l-26.784,54.272
			l-104.576,15.195l75.671,73.763L162.465,512L256,462.826L349.535,512l-17.863-104.153L407.344,334.086z M329.447,30.392h21.002
			v157.187l-21.002,11.881V30.392z M182.553,199.46l-21.002-11.881V30.392h21.002V199.46z M212.945,216.651V30.392h86.11v186.259
			L256,241.006L212.945,216.651z M256,428.492l-53.17,27.953l10.154-59.206l-43.017-41.932l59.447-8.637L256,292.801l26.586,53.868
			l59.447,8.637l-43.016,41.932l10.154,59.206L256,428.492z"/>
	</g>
</g>
</svg>