<?xml version="1.0" encoding="iso-8859-1"?>
<!-- Uploaded to: SVG Repo, www.svgrepo.com, Generator: SVG Repo Mixer Tools -->
<svg fill="#000000" height="800px" width="800px" version="1.1" id="Layer_1" xmlns="http://www.w3.org/2000/svg" xmlns:xlink="http://www.w3.org/1999/xlink" 
	 viewBox="0 0 512 512" xml:space="preserve">
<g>
	<g>
		<path d="M255.405,203.238c-29.158,0-52.877,23.719-52.877,52.877c0,29.157,23.719,52.876,52.877,52.876
			c29.158,0,52.877-23.719,52.877-52.876C308.282,226.957,284.563,203.238,255.405,203.238z M255.405,291.366
			c-19.442,0-35.251-15.808-35.251-35.251c0-19.437,15.81-35.251,35.251-35.251c19.442,0,35.251,15.814,35.251,35.251
			C290.656,275.558,274.847,291.366,255.405,291.366z"/>
	</g>
</g>
<g>
	<g>
		<path d="M510.808,247.187C506.247,112.791,397.433,5.275,265.24,0.711V0.427h-17.626v0.284C113.218,5.275,4.564,112.791,0,247.187
			h0.854v17.626H0c4.564,134.396,113.218,242.143,247.614,246.706v0.054h17.626v-0.054
			c132.193-4.564,241.007-112.31,245.568-246.706H512v-17.626H510.808z M265.24,62.441c99.145,4.493,179.347,85.602,183.839,184.746
			h-35.301c-4.43-79.316-69.223-145.016-148.538-149.446V62.441z M449.079,264.813c-4.493,99.145-84.695,180.483-183.839,184.975
			v-35.299c79.316-4.43,144.108-68.158,148.538-149.676H449.079z M247.614,18.348v26.456
			c-110.161,4.518-199.004,92.223-203.52,202.384H17.637C22.185,123.807,122.031,22.895,247.614,18.348z M247.614,62.441v35.3
			c-81.519,4.43-146.154,70.131-150.585,149.446H61.731C66.223,148.042,146.266,66.934,247.614,62.441z M247.614,493.883
			c-125.583-4.548-225.429-105.69-229.978-229.07h26.458c4.516,110.161,93.359,198.096,203.52,202.614V493.883z M247.614,449.788
			c-101.348-4.492-181.391-85.831-185.883-184.975H97.03c4.432,81.519,69.066,145.246,150.585,149.676V449.788z M221.176,344.129
			v17.626h26.439v35.064c-72.706-4.389-128.525-61.503-132.912-132.006h35.97v26.439h17.626v-70.503h-17.626v26.439h-35.97
			c4.387-70.503,60.205-127.387,132.912-131.774v34.833h-26.439v17.626h70.503v-17.626H265.24v-34.833
			c70.503,4.387,126.48,61.272,130.867,131.774h-33.926v-26.439h-17.626v70.503h17.626v-26.439h33.926
			c-4.387,70.503-60.365,127.617-130.867,132.006v-35.064h26.439v-17.626H221.176z M265.24,493.883v-26.456
			c107.957-4.518,196.957-92.453,201.476-202.614h26.456C488.625,388.193,388.62,489.334,265.24,493.883z M466.716,247.187
			C462.197,137.026,373.197,49.322,265.24,44.803V18.348c123.38,4.547,223.385,105.46,227.932,228.84H466.716z"/>
	</g>
</g>
</svg>