<?xml version="1.0" encoding="iso-8859-1"?>
<!-- Uploaded to: SVG Repo, www.svgrepo.com, Generator: SVG Repo Mixer Tools -->
<svg height="800px" width="800px" version="1.1" id="Layer_1" xmlns="http://www.w3.org/2000/svg" xmlns:xlink="http://www.w3.org/1999/xlink" 
	 viewBox="0 0 511.999 511.999" xml:space="preserve">
<circle style="fill:#06B559;" cx="255.999" cy="255.999" r="211.907"/>
<path style="fill:#666666;" d="M255.999,9.31c136.236,0,246.689,110.441,246.689,246.689S392.235,502.689,255.999,502.689
	C119.751,502.689,9.31,392.248,9.31,255.999S119.751,9.31,255.999,9.31z M467.907,255.999c0-117.033-94.875-211.907-211.907-211.907
	S44.092,138.967,44.092,255.999s94.875,211.907,211.907,211.907S467.907,373.032,467.907,255.999z"/>
<path style="fill:#333333;" d="M255.999,511.999C114.842,511.999,0,397.158,0,255.999S114.842,0,255.999,0
	s255.999,114.84,255.999,255.999S397.158,511.999,255.999,511.999z M255.999,18.62C125.107,18.62,18.62,125.109,18.62,255.999
	s106.487,237.379,237.379,237.379s237.379-106.487,237.379-237.379S386.893,18.62,255.999,18.62z"/>
<path style="fill:#4D4D4D;" d="M467.902,265.311v-18.62h-40.227c-2.186-40.774-18.64-77.821-44.453-106.222l28.325-28.671
	l-13.245-13.086l-28.333,28.68c-28.192-25.012-64.627-40.923-104.664-43.07V44.096h-18.62v40.227
	c-40.774,2.186-77.821,18.64-106.221,44.452l-28.668-28.326l-13.087,13.246l28.678,28.333
	c-25.012,28.191-40.923,64.627-43.069,104.663H44.091v18.62h40.227c2.186,40.774,18.64,77.821,44.453,106.222l-28.325,28.671
	l13.245,13.086l28.333-28.678c28.192,25.012,64.627,40.923,104.664,43.07v40.225h18.62v-40.225
	c40.774-2.186,77.821-18.64,106.221-44.453l28.671,28.325l13.087-13.246l-28.678-28.333c25.012-28.191,40.923-64.627,43.069-104.663
	L467.902,265.311L467.902,265.311z M409.019,246.691H360.89c-1.963-22.283-10.885-42.588-24.585-58.732l33.81-34.222
	C392.532,178.725,406.875,211.088,409.019,246.691z M265.307,169.799c16.755,1.797,32.086,8.395,44.613,18.375l-44.613,45.157
	V169.799z M246.687,233.715l-45.439-44.893c12.675-10.349,28.317-17.187,45.439-19.025V233.715z M233.325,246.691h-63.531
	c1.797-16.755,8.394-32.086,18.374-44.612L233.325,246.691z M233.711,265.311l-44.893,45.44
	c-10.349-12.674-17.187-28.318-19.025-45.44H233.711z M246.687,278.671v63.534c-16.755-1.797-32.086-8.395-44.613-18.375
	L246.687,278.671z M265.307,278.287l45.44,44.893c-12.675,10.349-28.318,17.189-45.44,19.025V278.287z M278.667,265.311h63.531
	c-1.797,16.755-8.394,32.086-18.374,44.613L278.667,265.311z M278.281,246.691l44.893-45.44
	c10.349,12.675,17.189,28.318,19.025,45.44H278.281z M356.872,140.65l-33.796,34.209c-15.985-13.238-35.934-21.828-57.769-23.75
	v-48.13C300.253,105.082,332.078,118.94,356.872,140.65z M246.687,102.978v48.129c-22.282,1.963-42.586,10.885-58.731,24.585
	l-34.222-33.809C178.722,119.466,211.083,105.122,246.687,102.978z M140.644,155.126l34.209,33.796
	c-13.236,15.983-21.828,35.933-23.75,57.769h-48.129C105.077,211.745,118.936,179.92,140.644,155.126z M102.973,265.311h48.129
	c1.963,22.283,10.885,42.588,24.585,58.732l-33.81,34.222C119.462,333.277,105.117,300.914,102.973,265.311z M155.12,371.354
	l33.796-34.209c15.985,13.238,35.934,21.828,57.77,23.75v48.129C211.74,406.921,179.915,393.062,155.12,371.354z M265.307,409.024
	v-48.129c22.282-1.963,42.586-10.885,58.732-24.585l34.222,33.81C333.271,392.537,300.909,406.882,265.307,409.024z
	 M371.349,356.876L337.14,323.08c13.236-15.985,21.828-35.934,23.75-57.769h48.129C406.915,300.258,393.057,332.083,371.349,356.876
	z"/>
<path style="fill:#333333;" d="M255.999,477.217c-121.98,0-221.217-99.238-221.217-221.217S134.019,34.782,255.999,34.782
	s221.217,99.238,221.217,221.217S377.98,477.217,255.999,477.217z M255.999,53.403c-111.712,0-202.597,90.885-202.597,202.597
	s90.885,202.597,202.597,202.597s202.597-90.885,202.597-202.597S367.713,53.403,255.999,53.403z"/>
</svg>