<?xml version="1.0" encoding="iso-8859-1"?>
<!-- Uploaded to: SVG Repo, www.svgrepo.com, Generator: SVG Repo Mixer Tools -->
<svg version="1.1" id="Layer_1" xmlns="http://www.w3.org/2000/svg" xmlns:xlink="http://www.w3.org/1999/xlink" 
	 viewBox="0 0 511.999 511.999" xml:space="preserve">
<path style="fill:#088443;" d="M127.481,339.853H65.865c-3.03,0-5.818,1.656-7.269,4.316L43.288,372.25H32.364H15.807H0v16.557
	h15.807v17.716h16.557v-17.716h15.84c3.03,0,5.818-1.656,7.269-4.316l15.309-28.081h56.722L127.481,339.853z"/>
<rect x="416.413" y="120.872" transform="matrix(-0.4372 -0.8994 0.8994 -0.4372 470.9421 604.7453)" style="fill:#0B9B53;" width="16.558" height="68.292"/>
<path style="fill:#06B559;" d="M447.943,143.693l-2.994-6.163c-1.553-3.198-0.19-7.048,3.029-8.556l48.871-22.896
	c3.155-1.478,6.912-0.149,8.435,2.985l6.072,12.49c1.554,3.198,0.192,7.049-3.027,8.558l-48.87,22.903
	c-3.155,1.479-6.913,0.149-8.437-2.984L447.943,143.693z"/>
<g>
	<path style="fill:#0B9B53;" d="M461.33,139.398l36.296-17.004c1.674-0.785,3.668-0.078,4.477,1.584l0,0
		c0.825,1.697,0.102,3.741-1.606,4.541l-36.293,17.009c-1.674,0.785-3.669,0.079-4.477-1.584l-0.002-0.006
		C458.898,142.242,459.621,140.198,461.33,139.398z"/>
	<path style="fill:#0B9B53;" d="M456.915,130.567l36.296-17.004c1.674-0.785,3.668-0.078,4.477,1.584l0,0
		c0.825,1.697,0.102,3.741-1.606,4.541l-36.293,17.009c-1.674,0.785-3.669,0.079-4.477-1.584l-0.002-0.006
		C454.483,133.412,455.206,131.367,456.915,130.567z"/>
</g>
<path style="fill:#06B559;" d="M210.312,198.354l27.739,47.255l-76.02,22.242l-0.132,0.066c-4.912,1.711-9.548,3.985-13.853,6.733
	l-0.033,0.022l-0.044,0.022l-11.612,5.641l-0.232-45.919L210.312,198.354z"/>
<path style="fill:#0B9B53;" d="M136.355,280.335l11.612-5.641l0.044-0.022c-15.299,9.791-26.348,25.62-29.814,44.109l-18.003,8.753
	L88.549,303.57L136.355,280.335z"/>
<polygon style="fill:#06B559;" points="401.428,166.31 407.245,178.286 244.894,257.199 231.35,234.162 395.6,154.322 "/>
<g>
	<polygon style="fill:#0B9B53;" points="407.245,178.286 247.091,256.128 242.941,249.064 403.668,170.935 	"/>
	<polygon style="fill:#0B9B53;" points="407.245,178.286 247.091,256.128 242.941,249.064 403.668,170.935 	"/>
	<path style="fill:#0B9B53;" d="M244.894,257.199l-29.825,14.493l-0.011,0.022c-9.261-4.846-19.792-7.572-30.951-7.572
		c-7.782,0-15.266,1.325-22.209,3.775l0.132-0.066l69.32-33.689L244.894,257.199z"/>
</g>
<path style="fill:#808080;" d="M111.722,350.083c-1.563-6.032-2.401-12.359-2.401-18.884c0-4.728,0.443-9.356,1.28-13.849
	c3.866-20.619,16.188-38.273,33.25-49.192l0.036-0.024l15.449-7.509c7.743-2.733,16.089-4.21,24.769-4.21
	c12.446,0,24.189,3.041,34.518,8.445c23.931,12.458,40.266,37.485,40.266,66.34c0,41.301-33.483,74.772-74.785,74.772
	C149.331,405.972,120.094,382.238,111.722,350.083z"/>
<path style="fill:#CCCCCC;" d="M184.107,296.815c18.986,0,34.384,15.387,34.384,34.384c0,18.986-15.398,34.384-34.384,34.384
	s-34.384-15.398-34.384-34.384C149.723,312.202,165.121,296.815,184.107,296.815z"/>
<path style="fill:#4D4D4D;" d="M184.107,373.862c-23.525,0-42.663-19.138-42.663-42.663s19.138-42.663,42.663-42.663
	s42.663,19.138,42.663,42.663S207.632,373.862,184.107,373.862z M184.107,305.094c-14.395,0-26.105,11.71-26.105,26.105
	s11.71,26.105,26.105,26.105c14.395,0,26.105-11.71,26.105-26.105S198.502,305.094,184.107,305.094z"/>
<path style="fill:#088443;" d="M269.076,306.629c-2.839,0-5.604-1.461-7.146-4.086L176.67,157.434
	c-2.316-3.942-0.998-9.015,2.945-11.332c3.94-2.314,9.015-0.999,11.332,2.945l85.259,145.109c2.316,3.942,0.997,9.015-2.945,11.332
	C271.945,306.26,270.501,306.629,269.076,306.629z"/>
</svg>