<?xml version="1.0" encoding="iso-8859-1"?>
<!-- Uploaded to: SVG Repo, www.svgrepo.com, Generator: SVG Repo Mixer Tools -->
<svg fill="#000000" height="800px" width="800px" version="1.1" id="Layer_1" xmlns="http://www.w3.org/2000/svg" xmlns:xlink="http://www.w3.org/1999/xlink" 
	 viewBox="0 0 512.001 512.001" xml:space="preserve">
<g>
	<g>
		<path d="M438.727,289.774H73.272c-26.875,0-48.739,21.864-48.739,48.739c0,0.741,0.022,1.48,0.056,2.216
			c0.01,0.234,0.024,0.467,0.039,0.701c0.031,0.518,0.071,1.035,0.118,1.55c0.022,0.247,0.042,0.495,0.068,0.74
			c0.071,0.658,0.153,1.314,0.251,1.967c0.049,0.329,0.108,0.654,0.164,0.981c0.06,0.354,0.122,0.709,0.19,1.061
			c0.073,0.381,0.15,0.761,0.233,1.14c0.06,0.275,0.126,0.549,0.19,0.822c0.193,0.818,0.405,1.627,0.639,2.427
			c0.041,0.139,0.077,0.279,0.119,0.418c0.13,0.434,0.27,0.862,0.412,1.291c0.07,0.212,0.142,0.425,0.215,0.636
			c0.146,0.422,0.296,0.843,0.453,1.259c0.069,0.183,0.144,0.363,0.215,0.544c0.279,0.71,0.573,1.412,0.884,2.106
			c0.123,0.275,0.245,0.55,0.373,0.824c0.151,0.322,0.308,0.642,0.467,0.961c0.172,0.345,0.347,0.687,0.527,1.028
			c0.133,0.253,0.264,0.507,0.402,0.758c0.326,0.594,0.663,1.181,1.014,1.761c0.053,0.087,0.11,0.174,0.164,0.261
			c0.339,0.553,0.69,1.098,1.05,1.637c0.063,0.094,0.127,0.188,0.191,0.282c4.734,6.97,11.269,12.728,19.129,16.522
			c0.094,0.046,0.191,0.088,0.286,0.134c0.375,0.178,0.748,0.357,1.128,0.526l0.319,0.129c0.894,0.391,1.798,0.764,2.719,1.101
			l74.184,30.047c0.115,0.05,0.232,0.091,0.347,0.14c0.484,0.207,0.977,0.397,1.468,0.593c0.508,0.202,1.014,0.412,1.525,0.602
			c0.508,0.189,1.025,0.357,1.539,0.532c0.516,0.177,1.03,0.362,1.549,0.525c0.443,0.139,0.894,0.259,1.342,0.388
			c0.602,0.175,1.203,0.359,1.81,0.515c0.292,0.075,0.592,0.136,0.887,0.207c0.766,0.187,1.531,0.375,2.303,0.533
			c0.024,0.005,0.049,0.008,0.073,0.013c4.084,0.834,8.254,1.263,12.485,1.296c0.175,0.001,0.346,0.013,0.521,0.013h0.001h0.001
			h198.841c0.012,0,0.024-0.001,0.037-0.001c0.012,0,0.024,0.001,0.037,0.001c9.284,0,18.112-1.971,26.107-5.496l74.623-30.216
			c0.591-0.229,1.178-0.462,1.757-0.712l0.042-0.017l0.465-0.197c0.381-0.169,0.754-0.348,1.128-0.526
			c0.095-0.045,0.192-0.087,0.286-0.134c7.86-3.796,14.395-9.552,19.129-16.522c0.064-0.094,0.127-0.188,0.191-0.282
			c0.359-0.537,0.71-1.083,1.049-1.635c0.054-0.087,0.11-0.173,0.164-0.261c0.35-0.58,0.688-1.167,1.014-1.761
			c0.137-0.251,0.268-0.505,0.402-0.758c0.18-0.34,0.356-0.683,0.527-1.028c0.158-0.319,0.315-0.638,0.467-0.961
			c0.128-0.273,0.25-0.549,0.373-0.824c0.311-0.694,0.605-1.396,0.884-2.106c0.071-0.182,0.146-0.362,0.215-0.544
			c0.157-0.416,0.307-0.837,0.453-1.259c0.073-0.211,0.145-0.424,0.215-0.636c0.142-0.429,0.282-0.857,0.412-1.291
			c0.042-0.138,0.078-0.279,0.119-0.418c0.234-0.801,0.446-1.61,0.639-2.427c0.065-0.273,0.13-0.546,0.19-0.822
			c0.082-0.378,0.159-0.758,0.233-1.14c0.068-0.352,0.13-0.707,0.19-1.061c0.055-0.327,0.115-0.652,0.164-0.981
			c0.098-0.652,0.18-1.308,0.251-1.967c0.026-0.246,0.046-0.494,0.068-0.74c0.048-0.515,0.087-1.032,0.118-1.55
			c0.014-0.234,0.028-0.466,0.039-0.701c0.034-0.736,0.056-1.474,0.056-2.216C487.465,311.638,465.602,289.774,438.727,289.774z
			 M73.272,356.783c-2.346,0-4.584-0.46-6.647-1.27l-0.685-0.277c-0.424-0.186-0.841-0.385-1.246-0.601
			c-0.049-0.025-0.1-0.048-0.147-0.074c-0.476-0.26-0.939-0.544-1.388-0.844c-0.091-0.061-0.18-0.127-0.27-0.189
			c-0.366-0.254-0.722-0.519-1.068-0.798c-0.09-0.073-0.181-0.144-0.27-0.219c-0.823-0.69-1.583-1.45-2.273-2.273
			c-0.086-0.103-0.168-0.209-0.252-0.313c-0.251-0.313-0.491-0.635-0.721-0.964c-0.09-0.129-0.182-0.256-0.268-0.387
			c-0.279-0.422-0.546-0.854-0.79-1.3c-0.062-0.113-0.114-0.23-0.173-0.343c-0.18-0.345-0.35-0.697-0.509-1.054
			c-0.084-0.192-0.164-0.386-0.243-0.581c-0.127-0.317-0.244-0.638-0.352-0.962c-0.061-0.18-0.126-0.357-0.181-0.538
			c-0.144-0.478-0.27-0.964-0.376-1.458c-0.035-0.16-0.059-0.325-0.089-0.488c-0.072-0.388-0.133-0.779-0.18-1.174
			c-0.02-0.169-0.04-0.337-0.056-0.507c-0.049-0.544-0.083-1.094-0.083-1.65c-0.002-10.076,8.194-18.27,18.267-18.27
			s18.268,8.195,18.268,18.268S83.346,356.783,73.272,356.783z M156.579,389.235c-0.594-0.001-1.185-0.016-1.774-0.047
			c-1.719-0.087-3.403-0.304-5.046-0.635c-0.044-0.009-0.087-0.015-0.131-0.023c-0.443-0.091-0.881-0.197-1.317-0.305
			c-0.126-0.031-0.253-0.057-0.378-0.089c-0.376-0.098-0.746-0.208-1.116-0.318c-0.186-0.055-0.374-0.106-0.56-0.164
			c-0.326-0.103-0.646-0.216-0.968-0.328c-0.227-0.079-0.456-0.154-0.682-0.238c-0.303-0.113-0.6-0.235-0.898-0.354
			c-0.235-0.094-0.47-0.187-0.704-0.286c-12.291-5.282-20.92-17.503-20.92-31.707c0-19.021,15.473-34.494,34.494-34.494
			c19.021,0,34.495,15.473,34.495,34.494C191.073,373.762,175.6,389.235,156.579,389.235z M256.037,389.234
			c-19.021,0-34.494-15.474-34.494-34.494c0-19.021,15.473-34.494,34.494-34.494c19.021,0,34.494,15.473,34.494,34.494
			S275.057,389.234,256.037,389.234z M369.836,386.1l-0.192,0.077l-0.398,0.168c-4.363,1.913-9.002,2.883-13.788,2.889
			c-19.003-0.019-34.457-15.484-34.457-34.493c0-19.021,15.473-34.494,34.494-34.494s34.495,15.473,34.495,34.494
			C389.989,368.645,381.714,380.646,369.836,386.1z M456.912,340.166c-0.015,0.17-0.036,0.338-0.056,0.507
			c-0.047,0.395-0.108,0.786-0.18,1.173c-0.03,0.164-0.055,0.328-0.09,0.49c-0.106,0.494-0.231,0.979-0.376,1.456
			c-0.055,0.182-0.121,0.361-0.182,0.54c-0.11,0.324-0.225,0.645-0.352,0.961c-0.078,0.195-0.157,0.389-0.243,0.581
			c-0.158,0.358-0.328,0.709-0.509,1.054c-0.059,0.114-0.112,0.232-0.173,0.343c-0.245,0.446-0.511,0.878-0.79,1.299
			c-0.087,0.132-0.18,0.259-0.27,0.389c-0.231,0.329-0.47,0.651-0.721,0.963c-0.084,0.105-0.166,0.21-0.252,0.314
			c-0.691,0.823-1.45,1.583-2.273,2.273c-0.088,0.074-0.18,0.146-0.27,0.219c-0.345,0.278-0.701,0.544-1.066,0.798
			c-0.09,0.063-0.18,0.128-0.271,0.19c-0.45,0.3-0.911,0.584-1.387,0.844c-0.049,0.026-0.101,0.049-0.149,0.075
			c-0.405,0.216-0.822,0.414-1.245,0.6l-0.687,0.278c-2.063,0.809-4.298,1.27-6.645,1.27c-10.074,0-18.268-8.195-18.268-18.268
			c0-10.074,8.195-18.268,18.268-18.268s18.271,8.194,18.271,18.267C456.996,339.073,456.961,339.621,456.912,340.166z"/>
	</g>
</g>
<g>
	<g>
		<path d="M438.729,248.515h-7.376l18.163-33.269l-71.724-55.914h-41.802v-17.267h123.051v-30.47h-51.953V92.297h-30.471v19.298
			h-40.627V92.297h-30.47v19.298h-40.627V92.297h-30.471v19.298h-51.954v30.47h51.954v17.267H60.709v90.081
			C36.523,252.856,14.437,266.111,0,286.335l24.801,17.703c11.198-15.688,29.318-25.053,48.471-25.053h341.444h24.012
			c19.153,0,37.273,9.366,48.471,25.053l24.801-17.703C495.095,262.654,467.705,248.515,438.729,248.515z M264.892,142.066h40.627
			v17.267h-40.627V142.066z M396.636,248.515H91.18v-58.713h276.137l43.051,33.561L396.636,248.515z"/>
	</g>
</g>
</svg>