<?xml version="1.0" encoding="iso-8859-1"?>
<!-- Uploaded to: SVG Repo, www.svgrepo.com, Generator: SVG Repo Mixer Tools -->
<svg fill="#000000" height="800px" width="800px" version="1.1" id="Layer_1" xmlns="http://www.w3.org/2000/svg" xmlns:xlink="http://www.w3.org/1999/xlink" 
	 viewBox="0 0 512 512" xml:space="preserve">
<g>
	<g>
		<path d="M467.484,120.734c-1.864-1.637-4.597-2.388-7.057-2.04c-8.102,1.104-16.514,1.662-24.759,1.662
			c-79.222,0-130.287-56.117-173.611-116.759c-1.534-2.153-4.001-3.476-6.645-3.593c-2.661-0.08-5.197,0.986-6.918,2.993
			c-3.862,4.504-7.688,9.009-11.485,13.484c-47.268,55.739-88.09,103.876-162.543,103.876c-8.245,0-16.533-0.558-24.635-1.662
			c-2.435-0.348-4.448,0.403-6.312,2.04c-1.872,1.633-2.449,3.996-2.449,6.478v1.742c0,34.901,2.573,68.913,8.316,101.375
			c-0.374,1.74-0.487,3.603,0.307,5.347c0.185,0.408,0.275,0.794,0.512,1.157c7.388,39.058,18.607,75.761,33.121,108.911
			c0.126,0.568,0.279,1.132,0.529,1.683c0.212,0.472,0.457,0.906,0.741,1.319c38.337,85.842,98.457,147.291,168.525,163.044
			c0.623,0.139,1.257,0.21,1.887,0.21c0.63,0,1.763-0.071,2.384-0.21c121.452-27.303,213.539-191.884,213.539-382.836v-1.742
			C470.931,124.731,469.356,122.368,467.484,120.734z M57.318,136.816c5.692,0.487,11.427,0.735,17.144,0.735
			c82.421,0,127.707-53.405,175.655-109.946c1.436-1.7,2.88-3.404,4.332-5.113c21.386,29.145,44.8,56.739,72.491,77.607
			L64.404,219.433C60.137,192.816,57.697,165.147,57.318,136.816z M255.003,494.579c-31.494-7.505-60.808-25.121-86.709-50.566
			L423.188,308.6C388.942,405.91,327.796,477.233,255.003,494.579z M430.78,285.097L156.404,430.86
			c-0.132,0.07-0.241,0.169-0.369,0.246c-20.389-22.982-38.328-51.028-53.128-82.874l346.443-156.725
			C445.781,224.254,439.47,255.68,430.78,285.097z M451.129,172.112c-0.653,0.125-1.301,0.304-1.933,0.592L95.988,332.488
			c-12.218-29.323-21.871-61.475-28.485-95.578l276.045-125.475c26.339,16.152,56.453,26.116,91.996,26.116
			c5.718,0,11.452-0.248,17.144-0.734C452.529,148.709,451.996,160.481,451.129,172.112z"/>
	</g>
</g>
</svg>