<?xml version="1.0" encoding="iso-8859-1"?>
<!-- Uploaded to: SVG Repo, www.svgrepo.com, Generator: SVG Repo Mixer Tools -->
<svg height="800px" width="800px" version="1.1" id="Layer_1" xmlns="http://www.w3.org/2000/svg" xmlns:xlink="http://www.w3.org/1999/xlink" 
	 viewBox="0 0 512 512" xml:space="preserve">
<g>
	<path style="fill:#CCCCCC;" d="M172.459,457.499c7.949-5.295,15-12.346,15-12.346c34.133-34.12,34.12-89.447,0-123.554
		c-30.225-30.238-77.114-33.698-111.155-10.313l-0.013-0.013c9.851-10.603,27.861-62.84,56.132-55.749h6.589
		c62.219,6.47,112.462,57.083,116.476,121.573c2.667,42.756-15.581,81.986-45.938,107.682c8.134-8.649-34.331-28.838-37.065-27.228
		L172.459,457.499z"/>
	<path style="fill:#CCCCCC;" d="M484.823,209.494c-25.696,30.397-64.939,48.671-107.722,45.991
		c-64.49-4.014-115.116-54.257-121.586-116.476l-0.066-6.576c-1.426-37.831,45.212-46.281,55.815-56.132l0.013,0.013
		c-23.372,34.028-19.912,80.917,10.313,111.155c34.12,34.107,89.434,34.12,123.567,0c0,0,7.051-7.064,12.346-15l0.053,0.026
		C455.931,175.228,476.187,217.68,484.823,209.494z"/>
</g>
<path style="fill:#666666;" d="M53.955,218.734H34.148c0-101.78,82.804-184.583,184.583-184.583v19.807
	C127.874,53.958,53.955,127.876,53.955,218.734z"/>
<g>
	<path style="fill:#B3B3B3;" d="M209.55,484.779c-0.938,0.99-1.981,1.901-3.129,2.733c-28.323,20.348-64.873,29.485-102.572,21.761
		C40.006,496.214-3.78,438.141,0.26,373.11c2.522-40.643,23.398-52.95,6.576-150.306l85.314-49.82l36.167,63.474
		c3.42,6.008,4.714,12.663,4.107,19.067c-0.964,10.194-6.721,19.767-16.347,25.102c-16.994,9.428-29.934,20.044-39.785,30.647
		c-29.512,31.823-31.162,63.658-31.162,63.658c-5.374,46.48,27.967,88.522,74.46,93.897c19.133,2.205,37.514-2.139,52.897-11.277
		c2.733-1.611,5.374-3.38,7.909-5.295c8.16-6.166,19.609-5.506,27.28,1.268l0.304,0.277
		C217.275,462.015,217.684,476.131,209.55,484.779z"/>
	<path style="fill:#B3B3B3;" d="M484.823,209.494c-8.636,8.187-22.791,7.804-31.03-1.519l-0.264-0.304
		c-6.774-7.672-7.447-19.12-1.281-27.28c1.915-2.522,3.684-5.163,5.308-7.896c9.137-15.383,13.482-33.764,11.263-52.91
		c-5.361-46.493-47.404-79.821-93.897-74.447c0,0-31.836,1.651-63.659,31.162c-10.603,9.85-21.219,22.791-30.634,39.785
		c-5.348,9.652-14.961,15.423-25.181,16.347c-6.378,0.594-13.006-0.7-18.988-4.107l-63.474-36.18l49.807-85.301
		C320.164,23.655,332.47,2.779,373.1,0.257c65.032-4.027,123.105,39.759,136.177,103.589c7.711,37.699-1.413,74.248-21.774,102.585
		C486.685,207.566,485.787,208.583,484.823,209.494z"/>
</g>
<g>
	<circle style="fill:#4D4D4D;" cx="248.085" cy="71.489" r="10.564"/>
	<circle style="fill:#4D4D4D;" cx="71.142" cy="247.108" r="10.564"/>
</g>
</svg>