<?xml version="1.0" encoding="iso-8859-1"?>
<!-- Uploaded to: SVG Repo, www.svgrepo.com, Generator: SVG Repo Mixer Tools -->
<svg fill="#000000" version="1.1" id="Layer_1" xmlns="http://www.w3.org/2000/svg" xmlns:xlink="http://www.w3.org/1999/xlink" 
	 viewBox="0 0 511.999 511.999" xml:space="preserve">
<g>
	<g>
		<path d="M394.136,274.231c-8.727,2.329-17.744,3.511-26.802,3.511c-26.996,0-52.411-10.274-71.788-28.964l-6.963-6.963
			l30.485-30.485L475.54,54.857L425.699,5.016L404.204,26.51L377.694,0L356.2,21.494l26.509,26.509l-91.99,91.991l-18.501-18.501
			l-73.474,73.474L36.459,357.253l84.698,84.698l24.754-24.755l39.27,94.804l84.553-35.023l-30.343-73.253l44.916-44.916
			c25.763,11.604,53.922,17.719,83.024,17.719c17.686,0,35.298-2.307,52.347-6.86l14.698-3.923l-25.57-95.429L394.136,274.231z
			 M425.699,48.002l6.854,6.855L319.067,168.342l-6.854-6.855L425.699,48.002z M272.219,164.48l25.354,25.354l-30.485,30.486
			l-17.544-17.544l-7.81-7.81L272.219,164.48z M133.321,386.798v0.001l-12.164,12.164l-41.709-41.71L220.24,216.461l41.709,41.709
			l-58.582,58.582L133.321,386.798z M201.633,472.283l-32.455-78.353l23.516-23.516l37.325,90.112L201.633,472.283z
			 M226.801,373.327l-10.843-26.177l19.507-19.507c6.723,5.799,13.775,11.104,21.102,15.919L226.801,373.327z M367.332,346.128
			c-40.799,0-79.428-14.123-110.302-40.05l26.998-26.998c23.6,18.835,52.667,29.059,83.307,29.059c6.617,0,13.22-0.488,19.748-1.457
			l9.884,36.888C387.197,345.271,377.279,346.128,367.332,346.128z"/>
	</g>
</g>
<g>
	<g>
		
			<rect x="111.38" y="317.082" transform="matrix(0.7071 -0.7071 0.7071 0.7071 -192.1593 200.6475)" width="69.487" height="30.397"/>
	</g>
</g>
</svg>