<?xml version="1.0" encoding="iso-8859-1"?>
<!-- Uploaded to: SVG Repo, www.svgrepo.com, Generator: SVG Repo Mixer Tools -->
<svg fill="#000000" version="1.1" id="Layer_1" xmlns="http://www.w3.org/2000/svg" xmlns:xlink="http://www.w3.org/1999/xlink" 
	 viewBox="0 0 512 512" xml:space="preserve">
<g>
	<g>
		<path d="M247.172,408.056V79.314c0-12.155-5.266-22.638-13.9-29.526c-8.642-6.888-20.205-9.19-32.045-6.474l-10.297,2.44
			c-23.129,5.284-40.862,28.034-40.862,51.793v82.814c-24.276,6.718-100.259,35.556-89.766,132.319
			c-29.415,6.843-51.308,7.047-51.74,7.047C3.696,319.736,0,323.685,0,328.555v97.103c0,2.345,0.419,4.586,2.074,6.242
			c25.108,25.103,55.515,6.112,82.575-10.647c8.06-4.991,16.264-10.146,24.334-14.181c11.974-5.992,25.414-5.369,40.138,1.916
			c0.569,23.862,20.079,43.037,44.061,43.037h8.828c1.653,0,3.28-0.052,4.886-0.228l15.356,15.384
			c1.724,1.724,3.983,2.601,6.241,2.601c2.259,0,4.517-0.856,6.242-2.58c3.448-3.448,3.448-9.03,0-12.478l-8.835-9.345
			C238.345,437.575,247.172,423.784,247.172,408.056z M150.069,198.594v68.847c-4.414-0.194-8.56-1.078-12.831-3.774
			c-7.073-4.483-12.152-12.931-14.593-25.121c-0.952-4.785-5.714-7.897-10.515-6.922c-4.781,0.957-7.944,5.603-6.987,10.388
			c3.422,17.103,10.861,29.414,22.174,36.569c2.276,1.44,4.558,2.558,6.832,3.455c-18.682,12.196-38.137,20.455-56.565,26.032
			C70.642,231.181,125.793,205.857,150.069,198.594z M229.517,408.056c0,14.577-12.903,26.315-27.507,26.315h-8.828
			c-14.603,0-25.459-11.772-25.459-26.392v-4.224c0-3.164-2.202-6.078-4.943-7.655c-12.418-7.129-24.959-10.716-36.675-10.716
			c-8.668,0-17.153,1.966-25.02,5.897c-8.783,4.397-17.017,9.767-25.41,14.966c-26.75,16.578-44.78,26.474-58.022,15.465v-84.655
			c8.828-0.657,29.885-2.636,52.979-8.543c0.271-0.015,0.286-0.019,0.559-0.06c0.875-0.136,1.548-0.431,2.308-0.793
			c27.962-7.502,60.48-20.808,88.666-44.362c2.81-1.541,5.049-4.491,5.05-7.7c0.003-0.084,0.508-0.164,0.508-0.248V97.547
			c0-15.336,12.092-31.172,27.01-34.586l10.424-2.44c6.526-1.474,12.889-0.388,17.238,3.078c4.345,3.466,7.121,9.043,7.121,15.716
			V408.056z"/>
	</g>
</g>
<g>
	<g>
		<rect x="194.207" y="90.095" width="17.655" height="220.69"/>
	</g>
</g>
<g>
	<g>
		<path d="M502.661,319.728c-0.432,0-22.313-0.172-51.735-7.013c10.514-96.791-64.719-125.634-88.995-132.354V97.547
			c0-23.759-18.628-46.509-41.758-51.793l-10.937-2.44c-11.862-2.707-22.766-0.414-31.404,6.474
			c-8.634,6.888-13.004,17.371-13.004,29.526v328.742c0,15.728,7.804,29.521,20.248,37.326l-9.602,9.347
			c-3.448,3.448-3.575,9.035-0.127,12.483c1.723,1.724,3.918,2.586,6.177,2.586c2.259,0,4.486-0.862,6.209-2.586l15.339-15.414
			c1.607,0.177,3.218,0.228,4.871,0.228h8.828c23.983,0,43.556-19.175,44.125-43.037c14.737-7.285,28.246-7.938,40.203-1.946
			c8.069,4.034,16.401,9.205,24.461,14.196c27.056,16.767,58.24,35.765,83.344,10.653c1.655-1.655,3.098-3.888,3.098-6.233v-97.103
			C512,323.676,507.536,319.728,502.661,319.728z M361.931,198.594c22.069,7.263,78.428,32.595,71.464,109.509
			c-18.416-5.578-38.625-13.845-57.325-26.065c2.275-0.896,4.447-2.017,6.724-3.457c11.314-7.155,18.72-19.466,22.142-36.569
			c0.957-4.785-2.173-9.431-6.954-10.388c-4.811-0.983-9.453,2.138-10.404,6.922c-2.418,12.095-6.682,20.508-13.665,25.009
			c-4.287,2.772-9.776,3.672-11.983,3.866V198.594z M494.345,421.711c-15.448,10.991-32.232,1.112-58.982-15.465
			c-8.392-5.198-17.33-10.569-26.114-14.966c-18.496-9.241-39.318-7.586-60.926,4.819c-2.741,1.578-4.047,4.492-4.047,7.655v4.224
			c0,14.621-12.903,26.392-27.507,26.392h-8.828c-14.604,0-25.459-11.737-25.459-26.315V79.314c0-6.672,1.88-12.25,6.225-15.716
			c3.082-2.457,6.726-3.724,11.058-3.724c1.78,0,3.51,0.216,5.412,0.647l11.128,2.44c14.918,3.414,27.97,19.25,27.97,34.586v177.802
			c0,0.084-0.487,0.164-0.485,0.248c0.002,3.209,1.503,6.159,4.314,7.7c28.186,23.554,60.64,36.86,88.602,44.362
			c0.76,0.362,1.498,0.657,2.372,0.793c0.273,0.041,1.025,0.045,1.296,0.06c23.093,5.907,42.935,7.886,53.97,8.543V421.711z"/>
	</g>
</g>
<g>
	<g>
		<rect x="300.138" y="90.095" width="17.655" height="220.69"/>
	</g>
</g>
</svg>