<?xml version="1.0" encoding="iso-8859-1"?>
<!-- Uploaded to: SVG Repo, www.svgrepo.com, Generator: SVG Repo Mixer Tools -->
<svg height="800px" width="800px" version="1.1" id="Layer_1" xmlns="http://www.w3.org/2000/svg" xmlns:xlink="http://www.w3.org/1999/xlink" 
	 viewBox="0 0 512 512" xml:space="preserve">
<path style="fill:#666666;" d="M256,9.31c136.236,0,246.69,110.441,246.69,246.69S392.236,502.69,256,502.69
	C119.751,502.69,9.31,392.249,9.31,256S119.751,9.31,256,9.31z M467.908,256c0-117.033-94.875-211.908-211.908-211.908
	S44.092,138.967,44.092,256S138.967,467.908,256,467.908S467.908,373.033,467.908,256z"/>
<circle style="fill:#06B559;" cx="256" cy="256" r="211.908"/>
<path style="fill:#333333;" d="M256,512C114.841,512,0,397.159,0,256S114.841,0,256,0s256,114.841,256,256S397.159,512,256,512z
	 M256,18.62C125.108,18.62,18.62,125.108,18.62,256S125.108,493.38,256,493.38S493.38,386.892,493.38,256S386.892,18.62,256,18.62z"
	/>
<g>
	<path style="fill:#4D4D4D;" d="M255.996,406.842c-83.173,0-150.841-67.666-150.841-150.841s67.666-150.841,150.841-150.841
		c40.292,0,78.172,15.69,106.662,44.182c3.636,3.636,3.636,9.531,0,13.166c-3.636,3.636-9.531,3.636-13.166,0
		c-24.973-24.974-58.176-38.727-93.495-38.727c-72.906,0-132.221,59.313-132.221,132.221s59.313,132.221,132.221,132.221
		s132.221-59.313,132.221-132.221c0-5.142,4.168-9.31,9.31-9.31s9.31,4.168,9.31,9.31
		C406.837,339.174,339.169,406.842,255.996,406.842z"/>
	<path style="fill:#4D4D4D;" d="M255.996,322.598c-36.721,0-66.595-29.875-66.595-66.596s29.874-66.595,66.595-66.595
		c17.79,0,34.514,6.928,47.092,19.508c3.636,3.636,3.636,9.531,0,13.166c-3.636,3.636-9.531,3.636-13.166,0
		c-9.062-9.063-21.11-14.053-33.927-14.053c-26.454,0-47.975,21.521-47.975,47.975s21.521,47.976,47.975,47.976
		s47.976-21.522,47.976-47.976c0-5.142,4.168-9.31,9.31-9.31c5.142,0,9.31,4.168,9.31,9.31
		C322.591,292.722,292.717,322.598,255.996,322.598z"/>
</g>
<path style="fill:#F7B239;" d="M255.996,265.311c-2.382,0-4.765-0.909-6.583-2.727c-3.636-3.636-3.636-9.531,0-13.166
	L399.221,99.609c3.636-3.636,9.531-3.636,13.166,0c3.636,3.636,3.636,9.531,0,13.166L262.579,262.584
	C260.761,264.403,258.378,265.311,255.996,265.311z"/>
<path style="fill:#F95428;" d="M381.412,211.747c-2.458,0-4.854-0.993-6.591-2.719c-0.422-0.434-0.819-0.906-1.154-1.415
	c-0.335-0.509-0.621-1.055-0.857-1.614c-0.236-0.559-0.41-1.142-0.534-1.738c-0.112-0.608-0.174-1.217-0.174-1.825
	s0.062-1.216,0.174-1.812c0.124-0.596,0.298-1.179,0.534-1.75c0.236-0.559,0.521-1.092,0.857-1.601
	c0.335-0.509,0.732-0.993,1.154-1.415c2.16-2.16,5.375-3.153,8.404-2.545c0.596,0.124,1.179,0.298,1.738,0.534
	c0.571,0.223,1.105,0.521,1.614,0.857c0.509,0.335,0.981,0.72,1.415,1.154c1.738,1.738,2.731,4.134,2.731,6.579
	c0,0.608-0.062,1.217-0.186,1.825c-0.124,0.596-0.298,1.179-0.534,1.738c-0.236,0.559-0.521,1.105-0.857,1.614
	c-0.335,0.509-0.732,0.981-1.154,1.415C386.253,210.753,383.857,211.747,381.412,211.747z"/>
<path style="fill:#333333;" d="M256,477.218C134.02,477.218,34.782,377.98,34.782,256S134.02,34.782,256,34.782
	S477.218,134.02,477.218,256S377.98,477.218,256,477.218z M256,53.402C144.288,53.402,53.402,144.288,53.402,256
	S144.288,458.598,256,458.598S458.598,367.712,458.598,256S367.712,53.402,256,53.402z"/>
</svg>