<?xml version="1.0" encoding="iso-8859-1"?>
<!-- Uploaded to: SVG Repo, www.svgrepo.com, Generator: SVG Repo Mixer Tools -->
<svg fill="#000000" height="800px" width="800px" version="1.1" id="Layer_1" xmlns="http://www.w3.org/2000/svg" xmlns:xlink="http://www.w3.org/1999/xlink" 
	 viewBox="0 0 512 512" xml:space="preserve">
<g>
	<g>
		<path d="M467.487,120.733c-1.866-1.637-4.607-2.389-7.059-2.04c-8.102,1.104-16.514,1.662-24.759,1.662
			c-74.454,0-115.335-48.137-162.605-103.876c-3.795-4.475-7.644-8.979-11.507-13.484c-1.721-2.007-4.307-3.052-6.918-2.993
			c-2.645,0.117-5.086,1.44-6.622,3.593c-43.322,60.643-94.33,116.76-173.553,116.76c-8.245,0-16.533-0.558-24.635-1.662
			c-2.443-0.348-4.448,0.403-6.312,2.04c-1.872,1.633-2.449,3.996-2.449,6.477v1.742c0,190.953,91.09,355.535,212.543,382.838
			c0.621,0.139,1.012,0.21,1.641,0.21c0.63,0,1.142-0.071,1.763-0.21c28.058-6.307,54.455-19.956,78.565-39.55
			c1.068-0.419,2.042-1.053,2.907-1.916c0.47-0.469,0.84-0.987,1.18-1.526c20.761-17.659,39.693-39.778,56.312-65.457
			c0.964-0.418,1.87-1.005,2.661-1.794c1.679-1.679,2.517-3.879,2.517-6.079c0-0.103,0.47-0.206,0.468-0.308
			c42.745-70.016,69.305-164.356,69.305-266.206v-1.742C470.931,124.729,469.357,122.366,467.487,120.733z M136.906,126.096
			c0.092,0.1,0.158,0.171,0.254,0.268l88.491,88.449h-18.672l-84.096-84.04C127.667,129.394,132.343,127.857,136.906,126.096z
			 M103.021,135.197l79.644,79.616h-18.672l-77.784-77.728C91.953,136.72,97.562,136.077,103.021,135.197z M57.317,136.787
			c1.509,0.129,3.029,0.154,4.544,0.25l77.818,77.776h-18.672l-63.294-63.236C57.522,146.658,57.382,141.749,57.317,136.787z
			 M63.75,215.161c-1.883-12.356-3.379-24.956-4.452-37.715l37.395,37.366H65.864C65.131,214.813,64.43,214.989,63.75,215.161z
			 M247.403,490.121c0,0.771-0.365,1.45-0.174,2.162C160.324,466.384,90.793,363.115,66.592,232.007h180.811V490.121z
			 M247.403,211.365l-93-92.75c4.08-2.085,7.825-4.318,11.735-6.688l81.265,80.766V211.365z M247.403,168.379l-66.423-66.172
			c3.577-2.608,6.836-5.325,10.276-8.148l56.146,55.648V168.379z M247.403,125.393L204.192,82.68
			c3.264-3.056,5.967-6.198,9.116-9.419c0.344,0.562,1.238,1.102,1.725,1.589l32.37,31.87V125.393z M247.403,82.406L227.19,62.693
			c-0.634-0.635-1.108-1.11-1.864-1.505c7.563-8.494,13.479-17.389,22.077-26.513V82.406z M264.022,492.338
			c0.191-0.711,0.575-1.446,0.575-2.217V455.22l25.962,26.461C281.85,486.055,273.159,489.616,264.022,492.338z M305.585,472.891
			l-40.018-40.516c-0.453-0.453-0.97-0.834-0.97-1.165v-23.586l55.248,55.746C315.337,466.772,310.249,469.947,305.585,472.891z
			 M333.209,452.421l-68.612-69.111v-18.672l78.492,78.743C339.928,446.508,336.471,449.531,333.209,452.421z M354.784,430.885
			l-90.187-90.562v-18.672l96.589,97.088c0.697,0.695,1.245,1.211,2.08,1.618C360.367,423.972,357.792,427.487,354.784,430.885z
			 M373.662,406.974c-0.113-0.127-0.197-0.269-0.319-0.391L264.597,297.338v-18.672l116.684,117.183
			C378.796,399.645,376.254,403.352,373.662,406.974z M390.693,380.821L264.597,254.351v-18.672l130.978,131.477
			c0.567,0.568,0.961,1.002,1.624,1.378C394.964,372.711,393.044,376.805,390.693,380.821z M404.966,352.675L284.355,232.007h18.672
			l107.812,107.84C408.937,344.181,406.979,348.475,404.966,352.675z M417.954,322.676l-90.613-90.669h22.845l70.684,70.74
			c1.035,1.036,2.28,1.713,3.591,2.11C422.391,310.896,420.223,316.84,417.954,322.676z M430.023,287.586L374.5,232.007h18.563
			l36.404,36.465c1.471,1.471,3.346,2.258,5.266,2.441C433.247,276.539,431.677,282.097,430.023,287.586z M438.962,253.598
			l-21.588-21.591h26.037C442.066,238.455,440.58,246.492,438.962,253.598z M446.298,214.813H264.597V31.976
			c45.136,54.89,91.155,105.573,171.445,105.573c5.717,0,11.204-0.303,16.896-0.79C452.578,163.496,450.131,189.021,446.298,214.813
			z"/>
	</g>
</g>
</svg>