<?xml version="1.0" encoding="iso-8859-1"?>
<!-- Uploaded to: SVG Repo, www.svgrepo.com, Generator: SVG Repo Mixer Tools -->
<svg fill="#000000" height="800px" width="800px" version="1.1" id="Layer_1" xmlns="http://www.w3.org/2000/svg" xmlns:xlink="http://www.w3.org/1999/xlink" 
	 viewBox="0 0 512 512" xml:space="preserve">
<g>
	<g>
		<path d="M467.484,120.734c-1.864-1.637-4.613-2.388-7.057-2.04c-8.102,1.104-16.514,1.662-24.759,1.662
			c-79.222,0-130.287-56.117-173.609-116.759c-1.536-2.153-4.003-3.476-6.647-3.593c-2.628-0.08-5.197,0.986-6.918,2.993
			c-3.862,4.504-7.688,9.009-11.483,13.484C189.743,72.22,148.919,120.357,74.466,120.357c-8.245,0-16.533-0.558-24.635-1.662
			c-2.452-0.348-4.448,0.403-6.312,2.04c-1.872,1.633-2.449,3.996-2.449,6.478v1.742c0,190.952,91.089,355.534,212.542,382.836
			c0.621,0.139,1.012,0.21,1.641,0.21c0.63,0,1.641-0.071,2.263-0.21C378.968,484.487,470.93,319.906,470.93,128.954v-1.742
			C470.93,124.731,469.356,122.368,467.484,120.734z M255.003,494.579C143.768,468.074,59.719,315.536,57.318,136.817
			c5.692,0.487,11.427,0.735,17.144,0.735c82.421,0,127.707-53.405,175.655-109.946c1.436-1.7,2.88-3.404,4.332-5.113
			c44.665,60.869,98.121,115.059,181.096,115.059c5.718,0,11.452-0.248,17.144-0.735
			C450.287,315.536,366.238,468.074,255.003,494.579z"/>
	</g>
</g>
<g>
	<g>
		<path d="M402.18,210.09c-1.016-3.111-3.703-5.382-6.943-5.852l-91.572-13.303l-40.954-82.979c-2.888-5.869-12.527-5.869-15.415,0
			l-40.954,82.979l-91.572,13.303c-3.241,0.47-5.927,2.741-6.943,5.852c-1.008,3.115-0.168,6.528,2.174,8.816l66.267,64.588
			l-15.641,91.207c-0.554,3.224,0.772,6.486,3.417,8.408c2.661,1.923,6.162,2.179,9.059,0.655l81.9-43.062l81.9,43.062
			c1.259,0.659,2.636,0.987,4.005,0.987c1.78,0,3.551-0.554,5.054-1.641c2.645-1.923,3.971-5.184,3.417-8.408l-15.641-91.207
			l66.268-64.588C402.348,216.618,403.187,213.205,402.18,210.09z M318.5,274.334c-2.023,1.977-2.947,4.823-2.468,7.611
			l13.458,78.492l-70.482-37.059c-1.259-0.659-2.628-0.987-4.005-0.987c-1.377,0-2.745,0.328-4.005,0.987l-70.482,37.059
			l13.458-78.492c0.479-2.787-0.445-5.634-2.468-7.611l-57.024-55.584l78.802-11.447c2.804-0.407,5.222-2.166,6.473-4.706
			l35.245-71.41l35.245,71.41c1.251,2.54,3.669,4.299,6.473,4.706l78.802,11.447L318.5,274.334z"/>
	</g>
</g>
</svg>