<?xml version="1.0" encoding="iso-8859-1"?>
<!-- Uploaded to: SVG Repo, www.svgrepo.com, Generator: SVG Repo Mixer Tools -->
<svg height="800px" width="800px" version="1.1" id="Layer_1" xmlns="http://www.w3.org/2000/svg" xmlns:xlink="http://www.w3.org/1999/xlink" 
	 viewBox="0 0 512 512" xml:space="preserve">
<g>
	<polygon style="fill:#0B9B53;" points="438.976,151.008 433.276,139.271 492.478,111.536 503.89,135.009 444.688,162.755 	"/>
	<path style="fill:#0B9B53;" d="M206.103,204.575l20.618,35.091l-67.932,33.014l-0.13,0.065c-4.814,1.677-9.357,3.905-13.576,6.599
		l-0.032,0.022l-0.043,0.022l-11.38,5.528l-0.227-45L206.103,204.575z"/>
</g>
<g>
	<path style="fill:#06B559;" d="M133.628,284.914l11.38-5.528l0.043-0.022c-14.993,9.595-25.821,25.107-29.217,43.226l-17.643,8.578
		l-11.412-23.484L133.628,284.914z"/>
	<polygon style="fill:#06B559;" points="393.393,173.172 399.093,184.909 239.994,262.241 226.721,239.666 387.681,161.425 	"/>
	<path style="fill:#06B559;" d="M239.994,262.241l-29.228,14.203l-0.011,0.022c-9.076-4.749-19.395-7.421-30.331-7.421
		c-7.626,0-14.96,1.298-21.764,3.699l0.13-0.065l67.932-33.014L239.994,262.241z"/>
</g>
<path style="fill:#CCCCCC;" d="M180.423,301.064c18.606,0,33.696,15.079,33.696,33.696c0,18.606-15.09,33.696-33.696,33.696
	s-33.696-15.09-33.696-33.696C146.728,316.143,161.818,301.064,180.423,301.064z"/>
<path style="fill:#808080;" d="M116.818,351.353c-1.374-5.3-2.109-10.86-2.109-16.594c0-4.154,0.389-8.221,1.125-12.169
	c3.397-18.119,14.225-33.631,29.217-43.226l0.032-0.022l13.576-6.599c6.804-2.401,14.138-3.699,21.764-3.699
	c10.936,0,21.256,2.672,30.331,7.421c21.029,10.947,35.383,32.938,35.383,58.294c0,36.292-29.423,65.704-65.715,65.704
	C149.865,400.463,124.174,379.608,116.818,351.353z M214.119,334.76c0-18.616-15.09-33.696-33.696-33.696
	s-33.696,15.079-33.696,33.696c0,18.606,15.09,33.696,33.696,33.696S214.119,353.365,214.119,334.76z"/>
<g>
	<path style="fill:#333333;" d="M180.423,292.946c-23.055,0-41.81,18.756-41.81,41.81c0,23.054,18.756,41.81,41.81,41.81
		s41.81-18.756,41.81-41.81C222.233,311.702,203.478,292.946,180.423,292.946z M180.423,360.34
		c-14.108,0-25.584-11.477-25.584-25.584c0-14.107,11.477-25.584,25.584-25.584s25.584,11.477,25.584,25.584
		C206.007,348.863,194.531,360.34,180.423,360.34z"/>
	<path style="fill:#333333;" d="M511.183,131.468l-11.413-23.481c-1.938-3.989-6.721-5.682-10.739-3.8l-59.197,27.735
		c-1.967,0.922-3.482,2.593-4.206,4.641c-0.725,2.048-0.598,4.3,0.352,6.253l2.16,4.444l-31.001,15.068l-2.16-4.444
		c-0.941-1.935-2.611-3.418-4.645-4.121s-4.263-0.57-6.198,0.37l-154.213,74.959l-42.798-72.841
		c-2.269-3.863-7.242-5.153-11.105-2.885c-3.863,2.269-5.155,7.241-2.885,11.105l21.531,36.643l-64.809,31.502
		c-2.806,1.364-4.582,4.217-4.566,7.337l0.201,39.9l-42.256,20.54c-4.029,1.959-5.709,6.813-3.75,10.842l11.412,23.484
		c0.941,1.936,2.611,3.418,4.645,4.121c0.861,0.297,1.758,0.446,2.651,0.446c1.217,0,2.432-0.274,3.547-0.817l4.893-2.379
		c0.043,2.414,0.199,4.802,0.469,7.156H64.546c-2.969,0-5.702,1.623-7.123,4.23l-15.002,27.518H8.113
		c-4.48,0-8.113,3.632-8.113,8.113c0,4.48,3.632,8.113,8.113,8.113h7.377v9.249c0,4.48,3.632,8.113,8.113,8.113
		s8.113-3.632,8.113-8.113v-9.249h15.523c2.969,0,5.702-1.623,7.123-4.23l15.002-27.518h41.505
		c10.189,28.587,37.515,49.109,69.556,49.109c40.707,0,73.825-33.118,73.825-73.825c0-23.043-10.617-43.646-27.21-57.195
		l9.757-4.742l19.892,33.855c1.511,2.572,4.22,4.005,7.002,4.005c1.396,0,2.811-0.36,4.102-1.12
		c3.863-2.269,5.155-7.241,2.885-11.105l-19.243-32.75l151.207-73.493c4.029-1.959,5.708-6.813,3.75-10.843l-2.16-4.446
		l31.002-15.068l2.16,4.443c1.402,2.885,4.291,4.568,7.302,4.568c1.153,0,2.325-0.247,3.437-0.768l59.197-27.735
		c1.967-0.922,3.482-2.593,4.206-4.641C512.26,135.673,512.133,133.42,511.183,131.468z M141.541,244.976l61.369-29.83l12.374,21.06
		l-73.607,35.778L141.541,244.976z M97.623,311.44l15.695-7.629c-2.047,4.078-3.646,8.514-4.77,13.307l-6.605,3.212L97.623,311.44z
		 M238.023,334.755c0,31.76-25.839,57.599-57.599,57.599s-57.599-25.839-57.599-57.599s25.839-57.599,57.599-57.599
		S238.023,302.995,238.023,334.755z M210.711,267.456c-4.234-1.914-8.676-3.437-13.288-4.528l26.107-12.69l5.021,8.547
		L210.711,267.456z M243.189,251.67l-5.021-8.547l145.765-70.851l4.32,8.89L243.189,251.67z M448.49,152.01l-4.319-8.885
		l44.502-20.851l4.319,8.885L448.49,152.01z"/>
</g>
</svg>