<?xml version="1.0" encoding="iso-8859-1"?>
<!-- Uploaded to: SVG Repo, www.svgrepo.com, Generator: SVG Repo Mixer Tools -->
<svg fill="#000000" height="800px" width="800px" version="1.1" id="Layer_1" xmlns="http://www.w3.org/2000/svg" xmlns:xlink="http://www.w3.org/1999/xlink" 
	 viewBox="0 0 512 512" xml:space="preserve">
<g>
	<g>
		<path d="M256.001,0c-141.159,0-256,114.841-256,256s114.841,256,256,256s255.999-114.841,255.999-256S397.159,0,256.001,0z
			 M256.001,493.38c-130.892,0-237.38-106.488-237.38-237.38S125.109,18.62,256.001,18.62c130.89,0,237.379,106.488,237.379,237.38
			S386.892,493.38,256.001,493.38z"/>
	</g>
</g>
<g>
	<g>
		<path d="M457.784,237.391c-12.437-26.487-32.451-48.248-57.889-62.934c-0.38-0.217-0.76-0.436-1.143-0.65
			c0.014-0.811,0.021-1.617,0.021-2.417c0-29.361-8.838-57.571-25.56-81.585c-16.332-23.455-38.991-41.316-65.527-51.653
			c-4.397-1.712-9.379,0.133-11.598,4.299c-2.217,4.165-0.968,9.33,2.906,12.022c20.417,14.186,32.607,37.457,32.607,62.253
			c0,9.167-1.639,18.123-4.788,26.54c-21.132-13.476-45.387-20.556-70.815-20.556c-25.535,0-49.878,7.136-71.07,20.716
			c-3.139-8.309-4.871-17.304-4.871-26.7c0-24.8,12.185-48.073,32.596-62.253c3.874-2.691,5.123-7.858,2.906-12.022
			c-2.217-4.165-7.2-6.01-11.598-4.299c-26.535,10.337-49.193,28.198-65.522,51.654c-16.717,24.011-25.553,52.223-25.553,81.584
			c0,0.866,0.009,1.735,0.025,2.604c-0.274,0.155-0.547,0.312-0.822,0.47c-25.429,14.681-45.441,36.44-57.877,62.928
			c-12.146,25.873-16.282,54.426-11.963,82.572c0.716,4.664,4.824,8.043,9.522,7.891c4.716-0.163,8.563-3.826,8.957-8.528
			c2.076-24.773,16.135-46.963,37.606-59.359c7.98-4.603,16.623-7.678,25.554-9.151c-0.041,1.352-0.063,2.706-0.063,4.062
			c0,50.142,27.878,95.159,71.899,117.649c-5.903,7.491-13.204,13.835-21.61,18.682c-21.481,12.401-47.729,13.485-70.213,2.893
			c-4.271-2.011-9.368-0.51-11.866,3.493c-2.499,4.002-1.608,9.24,2.073,12.192c22.217,17.815,49.013,28.51,77.494,30.926
			c29.148,2.474,58.007-3.981,83.425-18.66c0.324-0.186,0.647-0.375,0.971-0.565c0.319,0.187,0.639,0.374,0.957,0.557
			c21.886,12.64,46.308,19.183,71.279,19.183c4.041,0,8.098-0.171,12.16-0.516c28.48-2.417,55.279-13.111,77.501-30.925
			c3.682-2.951,4.573-8.19,2.076-12.192c-2.499-4.003-7.593-5.503-11.865-3.494c-22.493,10.59-48.747,9.509-70.23-2.895
			c-8.399-4.845-15.7-11.187-21.608-18.68c44.03-22.479,71.913-67.495,71.913-117.649c0-1.357-0.022-2.712-0.063-4.065
			c8.926,1.472,17.56,4.544,25.54,9.152c21.472,12.396,35.535,34.588,37.621,59.364c0.395,4.701,4.245,8.363,8.96,8.524
			c4.674,0.155,8.806-3.229,9.52-7.894C474.072,291.815,469.932,263.263,457.784,237.391z M255.998,141.328
			c22.374,0,43.685,6.382,62.137,18.504c-14.178,20.466-37.425,32.67-62.311,32.67c-25.714,0-48.464-12.89-62.167-32.536
			C212.157,147.755,233.538,141.328,255.998,141.328z M142.445,254.879c0-1.599,0.045-3.194,0.11-4.784
			c18.811,1.579,36.16,9.943,49.001,23.706c3.936,4.208,7.398,8.883,10.289,13.897c2.658,4.608,4.839,9.499,6.48,14.526
			c5.754,17.701,4.655,37.292-2.949,54.337C166.881,337.44,142.445,298.401,142.445,254.879z M306.613,356.559
			c-7.613-17.069-8.702-36.704-2.922-54.42c1.656-5.031,3.827-9.89,6.456-14.444c2.895-5.019,6.353-9.687,10.297-13.893
			c12.827-13.751,30.187-22.127,49.005-23.709c0.066,1.591,0.11,3.186,0.11,4.787C369.561,298.414,345.118,337.452,306.613,356.559z
			 M422.966,243.841c-16.289-9.406-34.783-13.71-53.473-12.443c-24.051,1.615-46.306,12.164-62.648,29.685
			c-4.904,5.23-9.221,11.054-12.825,17.307c-3.265,5.654-5.961,11.687-8.023,17.951c-7.65,23.449-5.664,49.55,5.438,71.663
			c0.045,0.098,0.092,0.194,0.14,0.289c0.825,1.631,1.708,3.227,2.622,4.8h-0.453v0.012h0.459
			c8.244,14.19,20.026,25.96,34.364,34.23c9.769,5.639,20.329,9.401,31.162,11.261c-6.81,1.765-13.801,2.961-20.913,3.565
			c-25.344,2.154-50.436-3.463-72.562-16.243c-1.744-1.004-3.497-2.074-5.211-3.18c-3.075-1.985-7.023-1.985-10.098,0
			c-1.717,1.107-3.47,2.177-5.222,3.186c-22.117,12.773-47.21,18.385-72.551,16.238c-7.112-0.603-14.099-1.8-20.91-3.565
			c10.833-1.861,21.388-5.621,31.156-11.259c15.944-9.196,28.733-22.699,36.982-39.036c11.223-22.135,13.275-48.317,5.628-71.846
			c-2.043-6.261-4.754-12.339-8.055-18.061c-3.599-6.244-7.912-12.069-12.812-17.307c-16.459-17.639-38.851-28.193-63.048-29.716
			c-18.573-1.172-36.915,3.141-53.088,12.469c-9.767,5.638-18.301,12.9-25.328,21.351c1.876-6.778,4.335-13.429,7.367-19.889
			c10.809-23.025,28.214-41.947,50.328-54.714c1.747-1.008,3.491-1.96,5.328-2.913c3.27-1.694,5.232-5.155,5.009-8.831
			c-0.149-2.458-0.226-4.967-0.226-7.458c0-25.539,7.681-50.071,22.215-70.944c4.078-5.857,8.609-11.313,13.54-16.328
			c-3.802,10.31-5.823,21.332-5.823,32.61c0,52.051,42.34,94.398,94.385,94.398c31.234,0,60.4-15.425,78.015-41.252
			c10.719-15.684,16.383-34.061,16.383-53.145c0-11.274-2.021-22.292-5.823-32.601c4.931,5.014,9.459,10.467,13.535,16.321
			c14.537,20.874,22.22,45.408,22.22,70.944c0,2.387-0.073,4.85-0.216,7.321c-0.214,3.677,1.761,7.134,5.036,8.818
			c1.915,0.984,3.81,2.017,5.623,3.06c22.117,12.769,39.523,31.689,50.333,54.716c3.034,6.462,5.494,13.112,7.371,19.893
			C441.27,256.745,432.734,249.481,422.966,243.841z"/>
	</g>
</g>
<g>
	<g>
		<path d="M256.001,225.983c-16.552,0-30.018,13.466-30.018,30.017s13.466,30.017,30.018,30.017
			c16.551,0,30.017-13.466,30.017-30.017S272.551,225.983,256.001,225.983z M256.001,267.397c-6.285,0-11.398-5.113-11.398-11.397
			s5.113-11.397,11.398-11.397s11.397,5.113,11.397,11.397S262.285,267.397,256.001,267.397z"/>
	</g>
</g>
</svg>