<?xml version="1.0" encoding="iso-8859-1"?>
<!-- Uploaded to: SVG Repo, www.svgrepo.com, Generator: SVG Repo Mixer Tools -->
<svg fill="#000000" height="800px" width="800px" version="1.1" id="Layer_1" xmlns="http://www.w3.org/2000/svg" xmlns:xlink="http://www.w3.org/1999/xlink" 
	 viewBox="0 0 512 512" xml:space="preserve">
<g>
	<g>
		<path d="M235.868,204.998l-61.606-104.342c-1.256-2.128-3.307-3.669-5.699-4.284c-2.392-0.616-4.932-0.255-7.058,1.004
			c-27.303,16.153-50.179,39.177-66.153,66.583c-16.467,28.253-25.172,60.566-25.172,93.446c0,5.142,4.168,9.31,9.31,9.31h121.141
			c5.139,0.001,9.307-4.167,9.307-9.309c0-16.207,8.678-31.403,22.648-39.66C237.013,215.131,238.481,209.424,235.868,204.998z
			 M192,248.096H89.055c1.465-26.351,9.127-52.02,22.38-74.759c12.813-21.981,30.559-40.833,51.66-54.966l52.35,88.665
			C202.787,217.264,194.368,232.006,192,248.096z"/>
	</g>
</g>
<g>
	<g>
		<path d="M416.651,163.961c-15.975-27.407-38.851-50.43-66.155-66.584c-2.126-1.259-4.667-1.619-7.058-1.004
			c-2.393,0.614-4.443,2.156-5.699,4.284l-61.606,104.342c-2.613,4.425-1.146,10.133,3.28,12.748
			c13.97,8.257,22.648,23.454,22.648,39.66c0,5.142,4.167,9.31,9.31,9.31h121.141c5.143,0,9.31-4.168,9.31-9.31
			C441.823,224.525,433.119,192.213,416.651,163.961z M319.999,248.096c-2.367-16.089-10.786-30.832-23.446-41.059l52.35-88.665
			c21.103,14.133,38.849,32.983,51.66,54.966c13.254,22.739,20.916,48.408,22.38,74.759H319.999z"/>
	</g>
</g>
<g>
	<g>
		<path d="M350.876,406.578l-59.558-105.53c-1.215-2.152-3.236-3.735-5.62-4.396c-2.381-0.66-4.931-0.346-7.082,0.875
			c-6.851,3.887-14.67,5.941-22.616,5.941c-8.1,0-16.059-2.131-23.017-6.164c-2.139-1.24-4.684-1.579-7.071-0.94
			c-2.388,0.638-4.424,2.198-5.66,4.34l-60.588,104.94c-2.57,4.449-1.048,10.139,3.4,12.714
			c28.121,16.273,60.258,24.874,92.936,24.874c32.047,0,63.637-8.291,91.353-23.976
			C351.825,416.724,353.401,411.052,350.876,406.578z M256,424.609c-26.283,0-52.169-6.179-75.429-17.94l51.485-89.173
			c7.577,3.02,15.711,4.59,23.944,4.59c8.014,0,15.945-1.492,23.352-4.36l50.609,89.671
			C307.094,418.682,281.713,424.609,256,424.609z"/>
	</g>
</g>
<g>
	<g>
		<path d="M256,0C114.841,0,0,114.841,0,256s114.841,256,256,256s256-114.841,256-256S397.159,0,256,0z M256,493.38
			C125.108,493.38,18.62,386.892,18.62,256S125.108,18.62,256,18.62S493.38,125.108,493.38,256S386.892,493.38,256,493.38z"/>
	</g>
</g>
<g>
	<g>
		<path d="M256,34.784c-121.979,0-221.214,99.237-221.214,221.214S134.022,477.213,256,477.213s221.214-99.237,221.214-221.214
			S377.978,34.784,256,34.784z M256,458.594c-111.712,0-202.594-90.884-202.594-202.594S144.288,53.404,256,53.404
			s202.594,90.884,202.594,202.594S367.712,458.594,256,458.594z"/>
	</g>
</g>
<g>
	<g>
		<path d="M256,232.252c-13.094,0-23.747,10.653-23.747,23.748s10.653,23.748,23.747,23.748c13.095,0,23.748-10.653,23.748-23.748
			S269.095,232.252,256,232.252z M256,261.128c-2.826,0-5.127-2.3-5.127-5.128s2.3-5.128,5.127-5.128c2.828,0,5.128,2.3,5.128,5.128
			S258.826,261.128,256,261.128z"/>
	</g>
</g>
</svg>