<?xml version="1.0" encoding="iso-8859-1"?>
<!-- Uploaded to: SVG Repo, www.svgrepo.com, Generator: SVG Repo Mixer Tools -->
<svg version="1.1" id="Layer_1" xmlns="http://www.w3.org/2000/svg" xmlns:xlink="http://www.w3.org/1999/xlink" 
	 viewBox="0 0 512 512" xml:space="preserve">
<path style="fill:#048F46;" d="M187.592,238.463L28.854,397.2c-15.429,15.429-15.429,40.444,0,55.873l47.355,47.355
	c15.429,15.429,40.444,15.429,55.873,0L290.82,341.691L187.592,238.463z"/>
<path style="fill:#3DDB86;" d="M53.518,477.737l186.675-186.675l-52.601-52.601L28.854,397.2c-15.429,15.429-15.429,40.444,0,55.873
	L53.518,477.737z"/>
<path style="fill:#C2C2C2;" d="M369.259,94.258L463.517,0c91.477,91.477-47.313,216.306-47.313,216.306L290.82,341.69
	L187.592,238.462L332.428,93.626L369.259,94.258z"/>
<g>
	
		<rect x="129.839" y="349.836" transform="matrix(-0.7071 -0.7071 0.7071 -0.7071 21.1287 739.7675)" style="fill:#424242;" width="67.873" height="31.343"/>
	
		<rect x="165.66" y="314.013" transform="matrix(-0.7071 -0.7071 0.7071 -0.7071 107.6091 703.9428)" style="fill:#424242;" width="67.873" height="31.343"/>
	
		<rect x="94.022" y="385.65" transform="matrix(-0.7071 -0.7071 0.7071 -0.7071 -65.3394 775.5784)" style="fill:#424242;" width="67.872" height="31.343"/>
	
		<rect x="58.207" y="421.459" transform="matrix(-0.7071 -0.7071 0.7071 -0.7071 -151.7994 811.3841)" style="fill:#424242;" width="67.873" height="31.343"/>
</g>
<path style="fill:#EAEAEA;" d="M463.517,0l-94.258,94.258l-36.832-0.631L187.591,238.463l62.291,62.291L493.626,57.01
	C490.7,37.518,481.622,18.106,463.517,0z"/>
<rect x="115.785" y="274.398" transform="matrix(-0.7071 -0.7071 0.7071 -0.7071 203.2424 664.3241)" style="fill:#424242;" width="246.844" height="31.343"/>
</svg>