<?xml version="1.0" encoding="iso-8859-1"?>
<!-- Uploaded to: SVG Repo, www.svgrepo.com, Generator: SVG Repo Mixer Tools -->
<svg version="1.1" id="Layer_1" xmlns="http://www.w3.org/2000/svg" xmlns:xlink="http://www.w3.org/1999/xlink" 
	 viewBox="0 0 512 512" xml:space="preserve">
<path style="fill:#424242;" d="M259.097,385.346l-16.324,16.324l-22.165-22.165l16.324-16.324c13.681-13.681,13.68-35.94,0-49.62
	l-15.92-15.92l22.165-22.165l15.92,15.92C284.999,317.297,284.999,359.444,259.097,385.346z"/>
<g>
	
		<rect x="198.845" y="317.241" transform="matrix(-0.7071 0.7071 -0.7071 -0.7071 655.1751 496.1043)" style="fill:#707070;" width="51.993" height="133.004"/>
	
		<rect x="315.654" y="200.428" transform="matrix(-0.7071 0.7071 -0.7071 -0.7071 771.982 214.0955)" style="fill:#707070;" width="51.993" height="133.004"/>
	<polygon style="fill:#707070;" points="389.654,160.836 506.23,73.954 512,0.001 438.048,5.771 351.165,122.347 	"/>
</g>
<polygon style="fill:#C2C2C2;" points="506.231,73.954 512,0.001 438.048,5.771 438.048,5.771 "/>
<polygon style="fill:#8F8F8F;" points="512,0.001 438.048,5.771 351.165,122.347 370.409,141.592 "/>
<polygon style="fill:#EAEAEA;" points="512,0.001 512,0.001 512,0.001 438.048,5.771 472.139,39.862 "/>
<rect x="3.467" y="260.087" transform="matrix(-0.7071 0.7071 -0.7071 -0.7071 580.4448 346.7339)" style="fill:#048F46;" width="429.889" height="66.988"/>
<rect x="-8.361" y="264.997" transform="matrix(-0.7071 0.7071 -0.7071 -0.7071 551.8845 334.8954)" style="fill:#3DDB86;" width="429.889" height="33.499"/>
<g>
	
		<rect x="354.729" y="64.86" transform="matrix(-0.7071 0.7071 -0.7071 -0.7071 732.4355 -20.2026)" style="fill:#424242;" width="31.347" height="153.463"/>
	
		<rect x="32.402" y="394.617" transform="matrix(-0.7071 0.7071 -0.7071 -0.7071 422.1294 728.9648)" style="fill:#424242;" width="55.379" height="114.583"/>
</g>
<rect x="12.145" y="403.003" transform="matrix(-0.7071 0.7071 -0.7071 -0.7071 373.2247 708.7035)" style="fill:#707070;" width="55.379" height="57.291"/>
</svg>