<?xml version="1.0" encoding="iso-8859-1"?>
<!-- Uploaded to: SVG Repo, www.svgrepo.com, Generator: SVG Repo Mixer Tools -->
<svg fill="#000000" height="800px" width="800px" version="1.1" id="Layer_1" xmlns="http://www.w3.org/2000/svg" xmlns:xlink="http://www.w3.org/1999/xlink" 
	 viewBox="0 0 512 512" xml:space="preserve">
<g>
	<g>
		<path d="M162.212,452.21h0.911V153.656c0-5.925-0.775-145.069-68.267-145.069S26.59,147.731,26.59,153.656V452.21h-1.069
			C11.45,452.21,0,463.694,0,477.81s11.45,25.6,25.521,25.6h136.692c14.071,0,25.521-11.483,25.521-25.6
			S176.283,452.21,162.212,452.21z M93.867,25.544c38.921,0,49.679,78.933,51.042,119.467H42.821
			C44.163,104.477,54.896,25.544,93.867,25.544z M146.056,162.077V452.21h-102.4V162.077H146.056z M162.212,486.344H25.521
			c-4.742,0-8.454-3.75-8.454-8.533c0-4.708,3.792-8.533,8.454-8.533h8.612H153.6h8.612c4.742,0,8.454,3.75,8.454,8.533
			C170.667,482.519,166.875,486.344,162.212,486.344z"/>
	</g>
</g>
<g>
	<g>
		<path d="M486.479,452.21h0.91V153.656c0-5.925-0.775-145.069-68.267-145.069s-68.267,139.144-68.267,145.069V452.21h-1.069
			c-14.071,0-25.521,11.483-25.521,25.6s11.45,25.6,25.521,25.6h136.692c14.071,0,25.521-11.483,25.521-25.6
			S500.55,452.21,486.479,452.21z M418.133,25.544c38.921,0,49.679,78.933,51.042,119.467H367.088
			C368.429,104.477,379.163,25.544,418.133,25.544z M470.323,162.077V452.21h-102.4V162.077H470.323z M486.479,486.344H349.788
			c-4.742,0-8.454-3.75-8.454-8.533c0-4.708,3.792-8.533,8.454-8.533h8.612h119.467h8.612c4.742,0,8.454,3.75,8.454,8.533
			C494.933,482.519,491.142,486.344,486.479,486.344z"/>
	</g>
</g>
<g>
	<g>
		<path d="M349.867,34.077c0-14.117-11.45-25.6-25.521-25.6H187.654c-14.071,0-25.521,11.483-25.521,25.6s11.45,25.6,25.521,25.6
			h1.069v298.779c0,5.925,0.775,145.067,68.267,145.067s68.267-139.142,68.267-145.067V59.677h-0.911
			C338.417,59.677,349.867,48.194,349.867,34.077z M256,486.344c-38.921,0-49.679-78.933-51.042-119.467h102.087
			C305.704,407.41,294.971,486.344,256,486.344z M308.19,349.81h-102.4V59.677h102.4V349.81z M324.346,42.61h-8.612H196.267h-8.612
			c-4.742,0-8.454-3.75-8.454-8.533c0-4.708,3.792-8.533,8.454-8.533h136.692c4.742,0,8.454,3.75,8.454,8.533
			C332.8,38.785,329.008,42.61,324.346,42.61z"/>
	</g>
</g>
</svg>