<?xml version="1.0" encoding="iso-8859-1"?>
<!-- Uploaded to: SVG Repo, www.svgrepo.com, Generator: SVG Repo Mixer Tools -->
<svg fill="#000000" height="800px" width="800px" version="1.1" id="Layer_1" xmlns="http://www.w3.org/2000/svg" xmlns:xlink="http://www.w3.org/1999/xlink" 
	 viewBox="0 0 512 512" xml:space="preserve">
<g>
	<g>
		<path d="M467.484,120.734c-1.864-1.637-4.613-2.389-7.057-2.04c-8.102,1.104-16.514,1.662-24.759,1.662
			c-79.222,0-130.289-56.117-173.611-116.759c-1.537-2.153-4.001-3.476-6.645-3.593c-2.62-0.08-5.197,0.986-6.918,2.993
			c-3.862,4.504-7.688,9.009-11.485,13.484c-47.268,55.739-88.09,103.876-162.543,103.876c-8.245,0-16.533-0.558-24.635-1.662
			c-2.452-0.348-4.448,0.403-6.312,2.04c-1.872,1.633-2.449,3.996-2.449,6.477v1.742c0,121.254,36.442,231.858,94.498,303.449
			c0.678,2.173,1.927,3.961,3.906,5.013c32.544,38.432,71.259,64.819,113.764,74.375c0.621,0.139,1.199,0.21,1.828,0.21
			c0.63,0,1.236-0.071,1.858-0.21c42.505-9.555,81.329-35.943,113.873-74.375c1.979-1.052,3.969-2.84,4.647-5.013
			c58.057-71.591,95.487-182.194,95.487-303.449v-1.742C470.93,124.731,469.356,122.367,467.484,120.734z M135.639,403.84
			c-47.285-66.652-76.166-162.339-77.574-267.024c5.692,0.487,11.177,0.735,16.894,0.735c22.58,0,41.336-4.029,60.68-11.011V403.84z
			 M247.403,492.243c-36.538-10.52-68.778-33.585-94.569-65.986v-305.9c0-0.57-0.063-1.125-0.168-1.664
			c36.983-19.662,64.647-52.353,94.737-86.714V492.243z M359.167,120.357v305.9c-27.941,32.401-60.18,55.466-94.569,65.986V34.677
			c25.792,34.773,56.927,66.185,94.647,84.906C359.221,119.841,359.167,120.091,359.167,120.357z M376.361,403.84V126.964
			c17.194,6.742,37.667,10.587,59.681,10.587c5.717,0,11.701-0.248,17.394-0.735C452.03,241.501,421.496,337.188,376.361,403.84z"/>
	</g>
</g>
</svg>