<?xml version="1.0" encoding="iso-8859-1"?>
<!-- Uploaded to: SVG Repo, www.svgrepo.com, Generator: SVG Repo Mixer Tools -->
<svg fill="#000000" height="800px" width="800px" version="1.1" id="Layer_1" xmlns="http://www.w3.org/2000/svg" xmlns:xlink="http://www.w3.org/1999/xlink" 
	 viewBox="0 0 512.001 512.001" xml:space="preserve">
<g>
	<g>
		<path d="M285.132,260.644l91.381-51.687c3.56-2.014,5.372-6.13,4.451-10.115L336.668,7.155C335.7,2.967,331.97,0,327.672,0
			h-143.34c-4.299,0-8.028,2.967-8.997,7.155L131.04,198.841c-0.921,3.985,0.89,8.102,4.451,10.115l91.38,51.687
			c-56.235,13.209-98.231,63.789-98.231,123.996c0,70.227,57.134,127.361,127.361,127.361s127.361-57.134,127.361-127.361
			C383.363,324.432,341.367,273.853,285.132,260.644z M320.328,18.467l41.088,177.811l-99.687,56.385l-65.24-234.196H320.328z
			 M150.589,196.278l34.578-149.642l55.95,200.847L150.589,196.278z M256.002,493.533c-60.044,0-108.894-48.849-108.894-108.894
			s48.849-108.894,108.894-108.894s108.894,48.85,108.894,108.894S316.046,493.533,256.002,493.533z"/>
	</g>
</g>
<g>
	<g>
		<path d="M256.002,295.68c-49.053,0-88.959,39.908-88.959,88.96c0,49.053,39.908,88.959,88.959,88.959
			c49.053,0,88.96-39.908,88.96-88.959C344.962,335.586,305.054,295.68,256.002,295.68z M256.002,455.132
			c-38.87,0-70.492-31.623-70.492-70.492c0-38.87,31.623-70.493,70.492-70.493c38.87,0,70.493,31.623,70.493,70.493
			C326.495,423.509,294.872,455.132,256.002,455.132z"/>
	</g>
</g>
</svg>