<?xml version="1.0" encoding="iso-8859-1"?>
<!-- Uploaded to: SVG Repo, www.svgrepo.com, Generator: SVG Repo Mixer Tools -->
<svg fill="#000000" height="800px" width="800px" version="1.1" id="Layer_1" xmlns="http://www.w3.org/2000/svg" xmlns:xlink="http://www.w3.org/1999/xlink" 
	 viewBox="0 0 512 512" xml:space="preserve">
<g>
	<g>
		<path d="M128.145,297.076c0-0.535-0.593-1.07-0.691-1.602c-0.022-0.12-0.042-0.238-0.069-0.354
			c-0.105-0.468-0.234-0.931-0.414-1.381l-0.063-0.158c-0.002-0.007-0.004-0.011-0.007-0.018l-16.404-41.005
			c0.009-0.067,0.031-0.127,0.038-0.192c0.312-3.253,7.585-80.331-0.063-130.037C102.79,72.426,74.385,12.77,73.173,10.25
			c-1.426-2.977-4.35-4.956-7.656-5.161c-3.253-0.133-6.453,1.382-8.235,4.162c-1.105,1.702-27.006,42.469-37.861,113.076
			c-9.158,59.526-3.077,110.369-0.742,125.962L0.568,293.562c-0.002,0.007-0.005,0.011-0.007,0.018l-0.062,0.158
			c-0.18,0.45-0.31,0.914-0.415,1.381c-0.027,0.116-0.049,0.234-0.071,0.354c-0.096,0.533,0.372,1.067,0.368,1.602
			c0,0.018,0.526,0.031,0.526,0.049v173.407c0,5.045,2.282,9.127,9.127,9.127v18.253c0,5.045,3.024,9.006,8.068,9.006h91.267
			c5.045,0,10.185-3.962,10.185-9.006v-18.253c4.563,0,9.127-4.082,9.127-9.127V297.125
			C128.68,297.107,128.145,297.094,128.145,297.076z M37.46,125.049c6.426-41.783,18.565-72.726,26.756-90.061
			c8.957,21.096,23.325,58.263,28.218,90.046c5.882,38.262,2.282,96.677,0.633,117.212H36.292
			C33.93,223.992,29.323,177.928,37.46,125.049z M33.405,260.498h60.66l10.954,27.38H22.451L33.405,260.498z M101.3,488.665H28.286
			v-9.127H101.3V488.665z M110.427,461.285H19.16v-36.507h91.267V461.285z M110.427,406.525H19.16v-45.633h91.267V406.525z
			 M110.427,342.638H19.16v-36.507h91.267V342.638z"/>
	</g>
</g>
<g>
	<g>
		<path d="M319.805,297.076c0-0.535-0.592-1.07-0.691-1.602c-0.022-0.12-0.042-0.238-0.069-0.354
			c-0.105-0.468-0.234-0.931-0.414-1.381l-0.063-0.158c-0.002-0.007-0.004-0.011-0.007-0.018l-16.404-41.005
			c0.009-0.067,0.031-0.127,0.038-0.192c0.312-3.253,7.585-80.331-0.063-130.037c-7.683-49.903-36.088-109.558-37.3-112.078
			c-1.426-2.977-4.35-4.956-7.656-5.161c-3.244-0.133-6.453,1.382-8.235,4.162c-1.105,1.702-27.006,42.469-37.861,113.076
			c-9.158,59.526-3.077,110.369-0.742,125.962l-18.111,45.272c-0.002,0.007-0.005,0.011-0.007,0.018l-0.062,0.158
			c-0.18,0.45-0.31,0.914-0.415,1.381c-0.027,0.116-0.049,0.234-0.071,0.354c-0.096,0.533,0.372,1.067,0.368,1.602
			c0,0.018,0.526,0.031,0.526,0.049v173.407c0,5.045,2.282,9.127,9.127,9.127v18.253c0,5.045,3.024,9.006,8.068,9.006h91.267
			c5.045,0,10.185-3.962,10.185-9.006v-18.253c4.563,0,9.127-4.082,9.127-9.127V297.125
			C320.34,297.107,319.805,297.094,319.805,297.076z M229.12,125.049c6.426-41.783,18.565-72.726,26.756-90.061
			c8.957,21.096,23.325,58.263,28.218,90.046c5.882,38.262,2.282,96.677,0.633,117.212h-56.774
			C225.59,223.992,220.983,177.928,229.12,125.049z M225.065,260.498h60.66l10.954,27.38h-82.568L225.065,260.498z M292.96,488.665
			h-73.013v-9.127h73.013V488.665z M302.087,461.285H210.82v-36.507h91.267V461.285z M302.087,406.525H210.82v-45.633h91.267
			V406.525z M302.087,342.638H210.82v-36.507h91.267V342.638z"/>
	</g>
</g>
<g>
	<g>
		<path d="M511.465,297.076c0-0.535-0.327-1.07-0.426-1.602c-0.022-0.12-0.176-0.238-0.203-0.354
			c-0.105-0.468-0.298-0.931-0.479-1.381l-0.096-0.158c-0.005-0.007-0.022-0.011-0.025-0.018l-16.41-41.005
			c0.007-0.067,0.027-0.127,0.033-0.192c0.312-3.253,7.582-80.331-0.065-130.037c-7.683-49.903-36.09-109.558-37.302-112.078
			c-1.426-2.977-4.35-4.956-7.656-5.161c-3.244-0.133-6.453,1.382-8.235,4.162c-1.105,1.702-27.006,42.469-37.861,113.076
			c-9.158,59.526-3.077,110.369-0.742,125.962l-18.111,45.272c-0.002,0.007-0.005,0.011-0.007,0.018l-0.062,0.158
			c-0.18,0.45-0.31,0.914-0.415,1.381c-0.027,0.116-0.049,0.234-0.071,0.354c-0.096,0.533,0.372,1.067,0.368,1.602
			c0,0.018,0.526,0.031,0.526,0.049v173.407c0,5.045,2.282,9.127,9.127,9.127v18.253c0,5.045,3.024,9.006,8.068,9.006h91.267
			c5.045,0,10.185-3.962,10.185-9.006v-18.253c4.563,0,9.127-4.082,9.127-9.127V297.125
			C512,297.107,511.465,297.094,511.465,297.076z M420.78,125.049c6.426-41.783,18.565-72.726,26.756-90.061
			c8.957,21.096,23.325,58.263,28.218,90.046c5.882,38.262,2.282,96.677,0.633,117.212h-56.774
			C417.25,223.992,412.643,177.928,420.78,125.049z M416.725,260.498h60.66l10.954,27.38h-82.568L416.725,260.498z M484.62,488.665
			h-73.013v-9.127h73.013V488.665z M493.747,461.285H402.48v-36.507h91.267V461.285z M493.747,406.525H402.48v-45.633h91.267
			V406.525z M493.747,342.638H402.48v-36.507h91.267V342.638z"/>
	</g>
</g>
</svg>