<?xml version="1.0" encoding="iso-8859-1"?>
<!-- Uploaded to: SVG Repo, www.svgrepo.com, Generator: SVG Repo Mixer Tools -->
<svg version="1.1" id="Layer_1" xmlns="http://www.w3.org/2000/svg" xmlns:xlink="http://www.w3.org/1999/xlink" 
	 viewBox="0 0 512 512" xml:space="preserve">
<path style="fill:#424242;" d="M340.692,119.746h-31.366V49.881c0-8.589-6.988-15.577-15.577-15.577h-75.498
	c-8.589,0-15.577,6.988-15.577,15.577v69.865h-31.366V49.881c0-25.884,21.059-46.943,46.943-46.943h75.498
	c25.884,0,46.943,21.059,46.943,46.943V119.746z"/>
<path style="fill:#FFAC00;" d="M480.74,318.506h-14.076c-17.264,0-31.259,13.994-31.26,31.258V151.979
	c0-17.265-13.995-31.26-31.26-31.26h-17.247v-1.078c0-17.265-13.995-31.26-31.26-31.26H156.366c-17.265,0-31.26,13.996-31.26,31.26
	v1.078h-17.248c-17.265,0-31.26,13.996-31.26,31.26v197.784c-0.003-17.263-13.998-31.255-31.26-31.255H31.26
	C13.996,318.506,0,332.503,0,349.767v128.035c0,17.265,13.996,31.26,31.26,31.26h14.076c17.264,0,31.259-13.994,31.26-31.258
	c0.001,17.264,13.997,31.258,31.26,31.258h296.285c17.264,0,31.259-13.995,31.26-31.259c0.001,17.264,13.997,31.259,31.26,31.259
	h14.076c17.265,0,31.26-13.995,31.26-31.26V349.767C512,332.503,498.004,318.506,480.74,318.506z"/>
<path style="fill:#FFD68B;" d="M256,88.38h-99.635c-17.265,0-31.26,13.996-31.26,31.26v1.078h-17.247
	c-17.265,0-31.26,13.996-31.26,31.26v325.823c0,17.265,13.996,31.26,31.26,31.26H256V88.38z"/>
<path style="fill:#C2C2C2;" d="M386.896,337.669c0,17.265-13.995,31.26-31.26,31.26H156.366c-17.265,0-31.26-13.996-31.26-31.26
	V119.64c0-17.265,13.996-31.26,31.26-31.26h199.269c17.265,0,31.26,13.996,31.26,31.26V337.669z"/>
<path style="fill:#EAEAEA;" d="M256,88.38h-99.635c-17.265,0-31.26,13.996-31.26,31.26v218.028c0,17.265,13.996,31.26,31.26,31.26
	H256L256,88.38L256,88.38z"/>
<polygon style="fill:#EE2712;" points="321.206,180.226 289.338,180.226 289.338,148.358 222.663,148.358 222.663,180.226 
	190.795,180.226 190.795,246.901 222.663,246.901 222.663,278.769 289.338,278.769 289.338,246.901 321.206,246.901 "/>
<g>
	<path style="fill:#FFD68B;" d="M38.299,318.506H31.26c-17.265,0-31.26,13.997-31.26,31.26v128.035
		c0,17.265,13.996,31.26,31.26,31.26h7.039V318.506z"/>
	<path style="fill:#FFD68B;" d="M473.702,318.506h-7.039c-17.265,0-31.26,13.995-31.26,31.26v128.035
		c0,17.265,13.996,31.26,31.26,31.26h7.039V318.506z"/>
</g>
<g>
	<rect y="398.097" style="fill:#424242;" width="76.596" height="31.366"/>
	<rect x="435.402" y="398.097" style="fill:#424242;" width="76.596" height="31.366"/>
	<rect x="309.332" y="320.048" style="fill:#424242;" width="31.366" height="97.757"/>
	<rect x="171.311" y="320.048" style="fill:#424242;" width="31.366" height="97.757"/>
</g>
<polygon style="fill:#FF7565;" points="256,278.769 256,148.358 222.663,148.358 222.663,180.226 190.795,180.226 190.795,246.901 
	222.663,246.901 222.663,278.769 "/>
</svg>