<?xml version="1.0" encoding="iso-8859-1"?>
<!-- Uploaded to: SVG Repo, www.svgrepo.com, Generator: SVG Repo Mixer Tools -->
<svg fill="#000000" height="800px" width="800px" version="1.1" id="Layer_1" xmlns="http://www.w3.org/2000/svg" xmlns:xlink="http://www.w3.org/1999/xlink" 
	 viewBox="0 0 512 512" xml:space="preserve">
<g>
	<g>
		<path d="M256.202,0.122C115.154,0.122,0.404,114.872,0.404,255.92v17.526H0c9.052,132.309,119.03,237.212,253.29,238.191
			c0.609,0.134,1.238,0.241,1.888,0.241c0.649,0,1.279-0.123,1.889-0.256c134.259-0.978,244.238-105.867,253.289-238.176H512V255.92
			h0C512,114.872,397.25,0.122,256.202,0.122z M247.381,363.689c-11.026-2.014-17.441-7.481-22.542-15.481
			c-2.623-4.117-8.331-5.313-12.436-2.694c-4.108,2.619-4.93,8.069-2.312,12.172c8.373,13.134,21.854,21.72,37.29,23.929v26.178
			c-11.026-2.013-17.441-7.481-22.542-15.481c-2.623-4.117-8.331-5.304-12.436-2.694c-4.108,2.619-4.93,8.069-2.312,12.172
			c8.373,13.134,21.854,21.72,37.29,23.929v26.178c-11.026-2.014-17.441-7.481-22.542-15.481c-2.623-4.117-8.331-5.304-12.436-2.694
			c-4.108,2.619-4.93,8.069-2.312,12.172c8.373,13.134,21.854,21.72,37.29,23.929v24.076
			c-59.539-2.162-113.133-25.896-153.651-63.545l50.689-50.945l-12.602-12.471L80.81,417.823
			c-35.765-38.491-59.048-89.249-63.134-144.378h97.396v-17.641h-98.05c0-61.744,24.207-119.373,63.724-161.902l50.945,50.973
			l12.473-12.458L93.73,81.48c40.519-37.648,94.112-61.376,153.651-63.537V44.81c-15.436,2.209-29.047,10.794-37.418,23.93
			c-2.619,4.109-1.664,9.562,2.44,12.18c1.473,0.939,2.981,1.382,4.605,1.382c2.916,0,6.215-1.443,7.894-4.079
			c5.102-8.006,11.452-13.475,22.478-15.488v26.177c-15.436,2.209-29.047,10.794-37.418,23.93c-2.619,4.109-1.664,9.562,2.44,12.18
			c1.473,0.939,2.981,1.382,4.605,1.382c2.916,0,6.215-1.443,7.894-4.079c5.102-8.006,11.452-13.475,22.478-15.488v26.177
			c-15.436,2.209-29.047,10.794-37.418,23.93c-2.619,4.109-1.664,9.562,2.44,12.18c1.473,0.939,2.981,1.382,4.605,1.382
			c2.916,0,6.215-1.443,7.894-4.079c5.102-8.006,11.452-13.475,22.478-15.488v52.803c-26.462,4.212-44.103,25.997-44.103,52.174
			c0,26.179,17.641,47.961,44.103,52.176V363.689z M255.179,291.201c-19.454,0-35.282-15.822-35.282-35.282
			c0-19.023,15.143-34.536,34.003-35.218c0.421,0.062,0.841,0.129,1.279,0.129c0.437,0,0.858-0.068,1.279-0.129
			c18.859,0.682,34.003,16.195,34.003,35.218C290.461,275.38,274.633,291.201,255.179,291.201z M492.681,273.446
			c-4.085,55.129-27.306,105.886-63.069,144.378l-50.945-50.917l-12.473,12.488l51.456,50.951
			c-40.519,37.647-95.294,61.389-152.629,63.551v-24.429c13.231-2.58,25.226-10.395,33.216-21.994
			c2.761-4.014,1.492-9.501-2.517-12.266c-4.026-2.791-9.117-1.746-11.886,2.259c-4.673,6.781-12.197,11.616-18.813,13.868v-25.971
			c13.231-2.58,25.226-10.395,33.216-21.994c2.761-4.014,1.492-9.501-2.517-12.266c-4.026-2.782-9.117-1.755-11.886,2.259
			c-4.673,6.781-12.197,11.616-18.813,13.868v-25.971c13.231-2.58,25.226-10.395,33.216-21.994
			c2.761-4.014,1.492-9.501-2.517-12.266c-4.026-2.791-9.117-1.746-11.886,2.259c-4.673,6.781-12.197,11.616-18.813,13.868v-55.034
			c24.257-4.214,44.103-25.997,44.103-52.176c0-26.177-19.846-47.962-44.103-52.174v-52.244c6.615,2.253,14.015,7.087,18.685,13.874
			c2.756,4.01,8.009,5.039,12.01,2.265c4.014-2.761,5.411-8.252,2.65-12.266c-7.987-11.604-20.113-19.423-33.344-22.005v-25.971
			c6.615,2.253,14.015,7.087,18.685,13.874c2.756,4.01,8.009,5.03,12.01,2.265c4.014-2.761,5.411-8.252,2.65-12.266
			c-7.987-11.604-20.113-19.423-33.344-22.005V63.295c6.615,2.253,14.015,7.087,18.685,13.874c2.756,4.014,8.009,5.039,12.01,2.265
			c4.014-2.761,5.411-8.252,2.65-12.266c-7.987-11.604-20.113-19.423-33.344-22.005v-27.22
			c57.334,2.161,112.11,25.896,152.629,63.544l-51.2,50.945l12.344,12.473l50.881-51.002c39.515,42.529,63.66,100.158,63.66,161.902
			h-96.004v17.641H492.681z"/>
	</g>
</g>
</svg>