<?xml version="1.0" encoding="iso-8859-1"?>
<!-- Uploaded to: SVG Repo, www.svgrepo.com, Generator: SVG Repo Mixer Tools -->
<svg fill="#000000" version="1.1" id="Layer_1" xmlns="http://www.w3.org/2000/svg" xmlns:xlink="http://www.w3.org/1999/xlink" 
	 viewBox="0 0 511.999 511.999" xml:space="preserve">
<g>
	<g>
		<path d="M459.386,10.76L448.627,0l-93.689,93.69l-34.189-0.586l-128.25,128.25l-22.341-22.341l-21.518,21.517l22.341,22.341
			L34.391,379.461c-9.801,9.801-15.198,22.831-15.198,36.692c0,13.861,5.397,26.892,15.198,36.692l43.957,43.957
			c9.8,9.801,22.831,15.198,36.692,15.198c13.86,0,26.891-5.398,36.691-15.198l136.59-136.59l22.341,22.341l21.518-21.518
			l-22.341-22.341l105.364-105.364c6.069-5.531,75.666-70.511,77.562-142.204C493.57,60.751,482.339,33.711,459.386,10.76z
			 M130.212,475.284c-4.053,4.053-9.442,6.284-15.172,6.284c-5.731,0-11.121-2.232-15.173-6.284L55.91,431.326
			c-4.053-4.052-6.284-9.441-6.284-15.173c0-5.731,2.232-11.12,6.284-15.173l136.589-136.589l37.152,37.151l37.151,37.151
			L130.212,475.284z M394.533,210.993l-0.299,0.269L288.32,317.175l-16.481-16.481l186.869-186.87
			C444.686,165.199,395.1,210.48,394.533,210.993z M250.321,279.175l-36.304-36.304l119.121-119.119l34.189,0.586l80.498-80.499
			c5.873,8.057,9.935,16.555,12.247,25.584L250.321,279.175z"/>
	</g>
</g>
<g>
	<g>
		
			<rect x="155.178" y="329.303" transform="matrix(0.7071 -0.7071 0.7071 0.7071 -205.2202 226.1638)" width="30.432" height="63.004"/>
	</g>
</g>
<g>
	<g>
		
			<rect x="188.419" y="296.058" transform="matrix(0.7071 -0.7071 0.7071 0.7071 -171.9765 239.9324)" width="30.432" height="63.004"/>
	</g>
</g>
<g>
	<g>
		
			<rect x="121.928" y="362.552" transform="matrix(0.7071 -0.7071 0.7071 0.7071 -238.4693 212.3913)" width="30.432" height="63.004"/>
	</g>
</g>
<g>
	<g>
		
			<rect x="88.685" y="395.797" transform="matrix(0.7071 -0.7071 0.7071 0.7071 -271.7134 198.6213)" width="30.432" height="63.004"/>
	</g>
</g>
</svg>