<?xml version="1.0" encoding="iso-8859-1"?>
<!-- Uploaded to: SVG Repo, www.svgrepo.com, Generator: SVG Repo Mixer Tools -->
<svg fill="#000000" height="800px" width="800px" version="1.1" id="Layer_1" xmlns="http://www.w3.org/2000/svg" xmlns:xlink="http://www.w3.org/1999/xlink" 
	 viewBox="0 0 512 512" xml:space="preserve">
<g>
	<g>
		<path d="M256,0C114.845,0,0,114.841,0,256C0,397.157,114.845,512,256,512C397.155,512,512,397.157,512,256
			C512,114.841,397.155,0,256,0z M265.851,17.836c123.586,4.555,223.759,105.636,228.313,229.222h-26.5
			c-4.526-110.345-93.675-198.196-201.813-202.722V17.836z M248.196,17.836v26.5C137.851,48.862,48.86,136.713,44.336,247.058
			H17.834C22.39,123.471,122.403,22.391,248.196,17.836z M248.196,494.165C122.403,489.609,22.39,388.299,17.834,264.713h26.502
			c4.524,110.345,93.515,198.427,203.86,202.953V494.165z M248.196,370.644v26.246c-15.448-0.955-31.334-4.386-45.746-10.362
			c-4.474-1.862-9.909,0.267-11.789,4.774c-1.871,4.502,0.651,9.664,5.159,11.537c16.584,6.875,32.513,10.821,52.375,11.8v35.36
			c-101.517-4.5-181.694-85.974-186.194-185.284h35.362c0.976,17.655,4.922,35.463,11.8,52.05c1.414,3.396,4.698,5.476,8.155,5.476
			c1.129,0,2.276-0.2,3.379-0.657c4.509-1.871,6.647-7.086,4.776-11.586c-5.989-14.438-9.457-29.834-10.414-45.282h27.205v-17.655
			h-27.205c0.957-15.448,4.424-30.737,10.414-45.17c1.871-4.504-0.267-9.64-4.776-11.511c-4.474-1.862-9.664,0.224-11.534,4.729
			c-6.877,16.593-10.823,34.297-11.8,51.953H62.002c4.5-99.31,84.677-180.554,186.194-185.055v35.418
			c-19.862,0.974-35.946,4.874-52.504,11.744c-4.509,1.871-6.901,7.034-5.03,11.539c1.879,4.509,7.444,6.629,11.918,4.772
			c14.409-5.977,30.168-9.41,45.616-10.363v26.015h17.655v-26.015c15.448,0.954,30.31,4.386,44.72,10.363
			c1.103,0.457,1.996,0.677,3.125,0.677c3.457,0,6.612-2.052,8.026-5.448c1.871-4.504,0.181-9.668-4.328-11.539
			c-16.556-6.87-33.888-10.769-51.543-11.744V62.003c99.31,4.501,179.646,85.745,184.147,185.055h-35.362
			c-0.976-17.655-4.922-35.346-11.8-51.938c-1.871-4.504-7.06-6.601-11.535-4.744c-4.508,1.871-6.647,6.991-4.776,11.496
			c5.989,14.434,9.457,29.737,10.414,45.185h-25.157v17.655h25.157c-0.957,15.448-4.425,30.854-10.414,45.291
			c-1.871,4.5,0.267,9.692,4.776,11.562c1.103,0.457,2.25,0.687,3.379,0.687c3.457,0,6.741-2.103,8.155-5.5
			c6.877-16.584,10.823-34.386,11.8-52.041h35.362c-4.5,99.31-84.836,180.785-184.147,185.284v-35.36
			c17.655-0.979,34.894-4.925,51.479-11.8c4.508-1.873,6.392-7.034,4.521-11.537c-1.871-4.507-6.668-6.63-11.151-4.774
			c-14.412,5.976-29.401,9.407-44.849,10.362v-26.246H248.196z M265.851,494.165v-26.5
			c108.138-4.526,197.287-92.608,201.813-202.953h26.5C489.61,388.299,389.438,489.609,265.851,494.165z"/>
	</g>
</g>
<g>
	<g>
		<path d="M256,203.035c-29.207,0-52.966,23.759-52.966,52.966c0,29.206,23.759,52.965,52.966,52.965
			c29.207,0,52.966-23.759,52.966-52.965C308.966,226.794,285.207,203.035,256,203.035z M256,291.31
			c-19.474,0-35.31-15.834-35.31-35.31c0-19.47,15.836-35.31,35.31-35.31c19.474,0,35.31,15.841,35.31,35.31
			C291.31,275.476,275.474,291.31,256,291.31z"/>
	</g>
</g>
</svg>