<?xml version="1.0" encoding="iso-8859-1"?>
<!-- Uploaded to: SVG Repo, www.svgrepo.com, Generator: SVG Repo Mixer Tools -->
<svg fill="#000000" height="800px" width="800px" version="1.1" id="Layer_1" xmlns="http://www.w3.org/2000/svg" xmlns:xlink="http://www.w3.org/1999/xlink" 
	 viewBox="0 0 512.001 512.001" xml:space="preserve">
<g>
	<g>
		<path d="M511.783,170.941c-0.675-3.061-2.853-5.572-5.787-6.674l-90.121-33.855c-3.427-1.286-7.289-0.435-9.857,2.174
			L349.3,190.227c-1.98-2.766-4.104-5.457-6.351-8.081l79.549-79.549c3.616-3.616,3.616-9.478,0-13.094
			c-3.615-3.616-9.478-3.616-13.094,0l-79.549,79.549c-2.624-2.247-5.316-4.369-8.082-6.351l57.641-56.716
			c2.609-2.567,3.461-6.43,2.174-9.856L347.735,6.005c-1.103-2.933-3.614-5.111-6.674-5.787c-3.059-0.677-6.255,0.244-8.488,2.442
			l-74.785,73.596c-2.609,2.568-3.461,6.43-2.173,9.856l21.403,56.968c-37.991-7.92-79.127,2.806-108.557,32.236L34.785,308.993
			c-46.379,46.379-46.379,121.844,0,168.224c23.19,23.19,53.651,34.784,84.111,34.784s60.921-11.594,84.111-34.784l133.675-133.674
			c29.431-29.431,40.156-70.567,32.236-108.558l56.969,21.403c1.061,0.399,2.162,0.591,3.254,0.591c2.438,0,4.829-0.964,6.602-2.766
			l73.596-74.785C511.539,177.197,512.457,174.001,511.783,170.941z M275.067,85.236l60.341-59.382l26.728,71.151l-56.772,55.861
			c-1.951-0.964-3.922-1.874-5.913-2.725L275.067,85.236z M47.88,464.121c-31.447-31.447-37.615-78.725-18.554-116.409
			l134.963,134.963C126.605,501.737,79.327,495.569,47.88,464.121z M323.588,330.448L189.913,464.122
			c-3.048,3.048-6.261,5.83-9.583,8.404L39.476,331.672c2.574-3.322,5.356-6.535,8.404-9.583l133.674-133.674
			c2.22-2.22,4.529-4.297,6.898-6.264l141.402,141.4C327.886,325.919,325.808,328.228,323.588,330.448z M340.47,307.975
			L204.026,171.532c38.168-21.058,87.231-15.449,119.562,16.882C355.919,220.745,361.528,269.807,340.47,307.975z M426.767,236.935
			l-64.905-24.385c-0.851-1.991-1.761-3.962-2.725-5.913l55.862-56.772l71.15,26.728L426.767,236.935z"/>
	</g>
</g>
<g>
	<g>
		<path d="M253.071,331.864l-27.878-19.714l0.437-34.14c0.044-3.525-1.915-6.768-5.056-8.37c-3.141-1.6-6.918-1.279-9.741,0.83
			l-27.364,20.421l-32.334-10.965c-3.337-1.131-7.03-0.27-9.521,2.222c-2.493,2.493-3.353,6.183-2.221,9.521l10.965,32.335
			l-20.421,27.364c-2.109,2.825-2.43,6.602-0.83,9.742c1.6,3.141,4.9,5.1,8.368,5.055l34.141-0.437l19.714,27.877
			c1.752,2.478,4.583,3.914,7.56,3.914c0.48,0,0.966-0.038,1.449-0.115c3.48-0.552,6.347-3.031,7.394-6.397l10.135-32.604
			l32.604-10.135c3.367-1.046,5.846-3.913,6.398-7.394C257.422,337.392,255.948,333.899,253.071,331.864z M207.722,342.162
			c-2.91,0.905-5.189,3.183-6.094,6.094l-6.01,19.337l-11.692-16.533c-1.737-2.456-4.557-3.913-7.56-3.913
			c-0.039,0-0.079,0-0.119,0.001L156,347.408l12.11-16.229c1.824-2.442,2.327-5.625,1.348-8.512l-6.503-19.176l19.176,6.503
			c2.887,0.978,6.069,0.475,8.512-1.348l16.229-12.11l-0.259,20.248c-0.038,3.047,1.425,5.919,3.913,7.678l16.533,11.692
			L207.722,342.162z"/>
	</g>
</g>
</svg>