<?xml version="1.0" encoding="iso-8859-1"?>
<!-- Uploaded to: SVG Repo, www.svgrepo.com, Generator: SVG Repo Mixer Tools -->
<svg fill="#000000" height="800px" width="800px" version="1.1" id="Layer_1" xmlns="http://www.w3.org/2000/svg" xmlns:xlink="http://www.w3.org/1999/xlink" 
	 viewBox="0 0 512 512" xml:space="preserve">
<g>
	<g>
		<path d="M353.48,153.444C307.007,53.861,275.986,17.113,264.744,5.878c-0.272-0.901-0.676-1.777-1.274-2.575
			c-1.817-2.415-4.697-3.527-7.494-3.227c-0.19-0.018-0.377-0.043-0.565-0.05C255.316,0.024,255.23,0,255.137,0
			c-0.244,0-0.474,0.051-0.712,0.072c-0.19,0.017-0.375,0.027-0.563,0.057c-0.401,0.062-0.784,0.161-1.163,0.279
			c-0.101,0.031-0.202,0.057-0.3,0.094c-0.442,0.155-0.861,0.349-1.264,0.575c-0.04,0.022-0.079,0.042-0.117,0.064
			c-1.789,1.037-3.132,2.71-3.745,4.724c-11.23,11.215-42.257,47.952-88.752,147.58c-50.22,107.619-46.179,115.908,5.929,158.534
			c8.502,6.957,18.141,14.838,29.111,24.59c28.361,25.211,38.282,59.948,29.49,103.235c-6.776,33.358-22.626,59.464-22.787,59.722
			c-1.557,2.549-1.621,5.694-0.161,8.302c1.46,2.609,4.211,4.173,7.203,4.173h47.833h1.726h47.833c2.993,0,5.743-1.564,7.203-4.173
			c1.46-2.608,1.396-5.78-0.161-8.329c-0.161-0.258-16.011-26.35-22.787-59.708c-8.792-43.287,1.129-78.019,29.49-103.229
			c10.97-9.752,20.609-17.629,29.111-24.586C399.659,269.348,403.7,261.063,353.48,153.444z M337.09,299.192
			c-8.623,7.054-18.399,14.998-29.619,24.972c-63.07,56.059-31.7,140.342-16.471,171.316h-34.136h-1.726h-34.136
			c15.229-30.974,46.599-115.257-16.471-171.316c-11.22-9.974-20.996-17.945-29.619-24.999
			c-46.09-37.706-47.419-39.163-0.942-138.749c33.549-71.888,57.347-109.926,73.866-128.852v274.049c0,4.561,3.694,8.26,8.26,8.26
			s8.26-3.698,8.26-8.26V29.377c14.455,18.13,39.75,56.301,74.633,131.052C385.465,260.014,383.18,261.487,337.09,299.192z"/>
	</g>
</g>
</svg>