<?xml version="1.0" encoding="iso-8859-1"?>
<!-- Uploaded to: SVG Repo, www.svgrepo.com, Generator: SVG Repo Mixer Tools -->
<svg version="1.1" id="Layer_1" xmlns="http://www.w3.org/2000/svg" xmlns:xlink="http://www.w3.org/1999/xlink" 
	 viewBox="0 0 512 512" xml:space="preserve">
<path style="fill:#F95428;" d="M494.236,0c0,0,35.881,116.065-33.763,170.946c-21.269,16.743-45.753,18.092-67.917,10.2
	c-6.291-2.244-7.64-10.616-2.32-14.663c2.206-1.689,4.526-3.694,6.922-6.089c18.987-19,1.273-45.11,26.375-72.809
	c-48.337-9.405-66.354,18.357-73.048,39.802c-2.295,7.3-12.393,8.119-15.684,1.223c-11.549-24.207-11.599-51.615,8.535-72.683
	C388.711,8.434,425.651,68.585,494.236,0z"/>
<path style="fill:#FCBB29;" d="M346.521,204.123l-35.224,35.224l-30.107-30.12l35.214-35.214c3.693-3.693,9.679-3.693,13.372-0.001
	l16.744,16.737C350.213,194.44,350.213,200.429,346.521,204.123z"/>
<g>
	<path style="fill:#06B559;" d="M153.831,455.36l-51.363,51.363c-7.035,7.035-18.457,7.035-25.493,0l-63.177-63.177
		c-7.035-7.035-7.035-18.445,0-25.493l51.363-51.363l0.517,0.517l72.853,13.711L153.831,455.36z"/>
	<path style="fill:#06B559;" d="M293.839,196.577l30.107,30.12l-21.067,21.067c-6.947,6.947-12.456,15.079-16.339,23.917
		c-3.883,8.838-6.127,18.394-6.531,28.216c-0.794,19.63-8.964,38.251-22.858,52.145l-44.114,44.114l-66.099-22.801l-22.053-65.351
		l-0.517-0.517l44.127-44.114c6.947-6.947,15.066-12.456,23.917-16.339c8.838-3.871,18.407-6.115,28.216-6.518
		c19.63-0.807,38.239-8.977,52.132-22.87L293.839,196.577z"/>
</g>
<path style="fill:#0B9B53;" d="M257.153,352.039l-44.12,44.12l-27.226-27.226l44.12-44.12c13.89-13.89,25.273-29.304,31.844-43.148
	c3.298-6.935,7.791-14.247,13.194-21.556c5.411-7.319,11.723-14.647,18.668-21.592l21.066-21.066l9.254,9.254l-21.066,21.066
	c-6.944,6.944-12.454,15.075-16.341,23.919c-3.878,8.834-6.125,18.392-6.534,28.216
	C279.218,319.526,271.043,338.149,257.153,352.039z"/>
<polygon style="fill:#FCBB29;" points="213.037,396.155 153.831,455.36 65.679,367.208 65.162,366.691 124.368,307.486 
	124.884,308.003 "/>
<path style="fill:#0B9B53;" d="M153.829,455.363l-51.358,51.358c-7.034,7.034-18.463,7.034-25.496,0L50.23,479.977
	c7.034,7.034,18.463,7.034,25.496,0l51.358-51.358L153.829,455.363z"/>
<rect x="128.2" y="393.477" transform="matrix(-0.7071 0.7071 -0.7071 -0.7071 581.9183 583.7372)" style="fill:#D39A29;" width="83.726" height="37.822"/>
</svg>