<?xml version="1.0" encoding="iso-8859-1"?>
<!-- Uploaded to: SVG Repo, www.svgrepo.com, Generator: SVG Repo Mixer Tools -->
<svg fill="#000000" height="800px" width="800px" version="1.1" id="Layer_1" xmlns="http://www.w3.org/2000/svg" xmlns:xlink="http://www.w3.org/1999/xlink" 
	 viewBox="0 0 512 512" xml:space="preserve">
<g>
	<g>
		<path d="M487.948,502.22c-0.947-9.428-10.025-92.929-38.146-121.052c-17.488-17.488-48.163-30.951-75.233-42.827
			c-16.471-7.237-32.03-14.065-41.769-20.557c-25.306-16.869-68.83-68.932-69.265-69.464c-0.05-0.059-0.111-0.1-0.163-0.159
			l3.481-3.479c10.408-10.41,10.408-27.339,0-37.747c-10.407-10.408-27.33-10.408-37.738,0l-1.41,1.407
			c-6.633-2.096-17.546-5.347-25.904-6.865c1.529-7.947,2.615-21.212-9.982-33.812c-6.29-6.287-6.29-9.927-6.29-15.95
			c0-7.182,0-17.025-11.502-28.53c-4.318-4.324-7.897-7.193-10.512-9.278c-3.77-3.021-4.639-3.829-5.291-5.48
			c-0.295-0.747-0.608-2.626-0.895-4.285c-0.973-5.74-2.441-14.421-8.878-24.079c-6.733-10.106-11.076-13.598-15.75-15.11
			c-2.467-4.958-7.775-20.891-9.904-27.252C114.694,13.389,99.682-0.684,82.377,0.026C59.069,0.532,36.838,25.942,25.744,64.766
			c-18.115,63.396,110.94,189.783,133.903,211.638l-12.306,12.306c-5.056,5.054-7.836,11.763-7.836,18.895
			c0.009,7.113,2.797,13.804,7.836,18.843c5.204,5.204,12.041,7.81,18.869,7.81c6.837,0,13.674-2.606,18.878-7.81l8.696-8.698
			l280.273,192.686c1.512,1.045,3.275,1.564,5.039,1.564c1.564,0,3.128-0.406,4.526-1.24
			C486.601,508.996,488.296,505.669,487.948,502.22z M42.858,69.825c10.069-35.236,27.739-51.662,39.901-51.662
			c0.104,0,0.2,0,0.295,0c9.13,0,17.453,9.102,22.874,25.348c10.816,32.465,12.701,36.624,21.128,38.353
			c0.078,0.043,1.981,1.199,6.594,8.114c4.335,6.498,5.291,12.158,6.142,17.162c0.469,2.763,0.912,5.349,1.877,7.817
			c2.441,6.211,6.463,9.428,10.72,12.842c2.545,2.033,5.43,4.341,9.061,7.973c6.29,6.29,6.29,9.928,6.29,15.948
			c0,7.185,0,17.027,11.502,28.53c7.402,7.402,5.968,13.969,4.578,20.311c-0.921,4.179-2.059,9.374,1.494,13.787
			c1.225,1.529,4.048,4.092,9.113,4.092c3.19,0,11.011,1.905,18.997,4.187l-41.189,41.278
			C130.253,224.048,29.657,116.018,42.858,69.825z M172.509,313.869c-3.536,3.534-9.07,3.525-12.588-0.009
			c-1.685-1.677-2.615-3.909-2.624-6.272c0-2.372,0.93-4.604,2.624-6.299l81.774-81.777c1.764-1.761,4.031-2.641,6.29-2.641
			c2.259,0,4.526,0.88,6.29,2.641c3.466,3.475,3.466,9.115,0,12.59L172.509,313.869z M206.581,304.956l44.173-44.173
			c6.615,7.856,46.525,54.707,72.177,71.808c11.033,7.358,27.287,14.49,44.488,22.038c25.636,11.25,54.687,24.006,69.803,39.122
			c15.872,15.88,25.828,60.864,30.467,90.711L206.581,304.956z"/>
	</g>
</g>
</svg>