<?xml version="1.0" encoding="iso-8859-1"?>
<!-- Uploaded to: SVG Repo, www.svgrepo.com, Generator: SVG Repo Mixer Tools -->
<svg version="1.1" id="Layer_1" xmlns="http://www.w3.org/2000/svg" xmlns:xlink="http://www.w3.org/1999/xlink" 
	 viewBox="0 0 511.996 511.996" xml:space="preserve">
<rect x="403.948" y="4.094" transform="matrix(-0.7071 0.7071 -0.7071 -0.7071 736.1006 -248.9991)" style="fill:#424242;" width="31.343" height="47.717"/>
<rect x="236.272" y="94.109" transform="matrix(-0.7071 0.7071 -0.7071 -0.7071 707.4026 -62.7457)" style="fill:#8F8F8F;" width="260.848" height="42.052"/>
<rect x="228.704" y="97.234" transform="matrix(-0.7071 0.7071 -0.7071 -0.7071 689.1315 -70.3112)" style="fill:#C2C2C2;" width="260.848" height="20.669"/>
<rect x="173.543" y="362.864" transform="matrix(-0.7071 0.7071 -0.7071 -0.7071 665.5834 481.3777)" style="fill:#707070;" width="119.104" height="31.343"/>
<g>
	<polygon style="fill:#424242;" points="130.173,403.326 175.184,511.996 235.479,487.021 180.122,353.378 	"/>
	<path style="fill:#424242;" d="M278.95,269.849l-33.741-33.741l-51.632,51.632l33.741,33.741
		c52.268,52.268,126.297,69.504,192.923,51.718l-18.901-70.54C359.073,313.942,312.109,303.007,278.95,269.849z"/>
	
		<rect x="181.203" y="177.451" transform="matrix(-0.7071 0.7071 -0.7071 -0.7071 577.8803 184.6591)" style="fill:#424242;" width="138.986" height="69.122"/>
</g>
<rect x="168.98" y="182.511" transform="matrix(-0.7071 0.7071 -0.7071 -0.7071 548.3729 172.4398)" style="fill:#707070;" width="138.986" height="34.561"/>
<rect x="36.07" y="275.014" transform="matrix(-0.7071 0.7071 -0.7071 -0.7071 498.9341 438.7921)" style="fill:#048F46;" width="245.04" height="95.429"/>
<rect x="19.193" y="282" transform="matrix(-0.7071 0.7071 -0.7071 -0.7071 458.1942 421.9267)" style="fill:#3DDB86;" width="245.041" height="47.717"/>
<rect x="122.763" y="307.059" transform="matrix(-0.7071 0.7071 -0.7071 -0.7071 498.9319 438.7974)" style="fill:#424242;" width="71.65" height="31.343"/>
</svg>