<?xml version="1.0" encoding="iso-8859-1"?>
<!-- Uploaded to: SVG Repo, www.svgrepo.com, Generator: SVG Repo Mixer Tools -->
<svg version="1.1" id="Layer_1" xmlns="http://www.w3.org/2000/svg" xmlns:xlink="http://www.w3.org/1999/xlink" 
	 viewBox="0 0 512.002 512.002" xml:space="preserve">
<polygon style="fill:#424242;" points="494.166,423.277 482.411,320.891 461.005,134.427 416.827,134.427 416.827,51.741 
	439.61,51.741 439.61,0 306.194,0 306.194,51.741 328.977,51.741 328.977,134.427 289.795,134.427 289.795,188.926 222.208,188.926 
	222.208,134.427 183.024,134.427 183.024,51.741 205.807,51.741 205.807,0 72.391,0 72.391,51.741 95.174,51.741 95.174,134.427 
	50.996,134.427 29.59,320.891 17.835,423.277 0.001,423.277 0.001,512 211.428,512 211.428,423.277 183.024,423.277 
	183.024,320.891 222.208,320.891 222.208,266.393 289.795,266.393 289.795,320.891 328.977,320.891 328.977,423.277 
	300.574,423.277 300.574,512 512.001,512 512.001,423.277 "/>
<rect x="0.001" y="423.276" style="fill:#048F46;" width="211.424" height="88.726"/>
<rect x="0.001" y="423.276" style="fill:#3DDB86;" width="105.717" height="88.726"/>
<rect x="300.569" y="423.276" style="fill:#048F46;" width="211.424" height="88.726"/>
<rect x="300.569" y="423.276" style="fill:#3DDB86;" width="105.717" height="88.726"/>
<rect x="95.175" y="51.746" style="fill:#707070;" width="43.929" height="82.686"/>
<rect x="72.395" style="fill:#FFAC00;" width="133.419" height="51.746"/>
<rect x="72.395" style="fill:#FFD68B;" width="66.708" height="51.746"/>
<rect x="306.191" style="fill:#FFAC00;" width="133.419" height="51.746"/>
<rect x="306.191" style="fill:#FFD68B;" width="66.708" height="51.746"/>
<rect x="328.981" y="51.746" style="fill:#707070;" width="43.929" height="82.686"/>
<g>
	<polygon style="fill:#048F46;" points="482.411,320.891 461.005,134.427 289.795,134.427 289.795,320.891 	"/>
	<polygon style="fill:#048F46;" points="222.208,134.427 50.996,134.427 29.59,320.891 222.208,320.891 	"/>
</g>
<rect x="222.209" y="188.926" style="fill:#424242;" width="67.587" height="77.472"/>
<g>
	<polygon style="fill:#3DDB86;" points="125.898,134.427 50.996,134.427 29.59,320.891 125.898,320.891 	"/>
	<rect x="289.796" y="134.432" style="fill:#3DDB86;" width="96.313" height="186.46"/>
</g>
<g>
	<polygon style="fill:#707070;" points="105.715,320.891 29.59,320.891 17.835,423.277 105.715,423.277 	"/>
	<rect x="328.981" y="320.892" style="fill:#707070;" width="77.31" height="102.384"/>
</g>
</svg>