<?xml version="1.0" encoding="iso-8859-1"?>
<!-- Uploaded to: SVG Repo, www.svgrepo.com, Generator: SVG Repo Mixer Tools -->
<svg fill="#000000" height="800px" width="800px" version="1.1" id="Layer_1" xmlns="http://www.w3.org/2000/svg" xmlns:xlink="http://www.w3.org/1999/xlink" 
	 viewBox="0 0 512 512" xml:space="preserve">
<g>
	<g>
		<path d="M511.787,254.111C510.765,113.872,396.377,0.095,255.905,0.095C114.802,0.095,0,114.893,0,256
			c0,141.107,114.802,255.905,255.905,255.905c140.472,0,254.86-113.777,255.882-254.016c0.133-0.61,0.213-1.24,0.213-1.89
			C512,255.351,511.92,254.72,511.787,254.111z M430.412,417.97l-50.966-50.937l-12.478,12.493l50.966,50.973
			c-42.547,39.532-99.508,63.754-162.028,63.754c-62.52,0-119.481-24.216-162.028-63.749l50.966-50.965l-12.478-12.477
			L81.399,417.97c-37.663-40.536-61.408-93.697-63.571-153.261h26.878c2.21,15.443,10.8,28.602,23.941,36.98
			c1.465,0.935,3.111,1.411,4.731,1.411c2.913,0,5.765-1.428,7.445-4.065c2.62-4.111,1.413-9.616-2.697-12.236
			c-8.003-5.104-13.473-13.266-15.486-22.09h26.186c2.21,15.443,10.8,28.602,23.941,36.98c1.465,0.935,3.111,1.411,4.731,1.411
			c2.913,0,5.765-1.428,7.445-4.065c2.62-4.111,1.413-9.616-2.697-12.236c-8.003-5.104-13.473-13.266-15.486-22.09h26.186
			c2.21,15.443,10.8,28.602,23.941,36.98c1.465,0.935,3.111,1.411,4.731,1.411c2.913,0,5.765-1.428,7.446-4.065
			c2.62-4.111,1.413-9.616-2.697-12.236c-8.003-5.104-13.473-13.266-15.486-22.09h52.825c4.214,24.267,26.007,44.122,52.196,44.122
			s47.982-19.855,52.196-44.122h55.617c-2.014,8.824-7.482,16.994-15.486,22.097c-4.111,2.62-5.317,8.103-2.697,12.213
			c1.681,2.641,4.533,4.096,7.446,4.096c1.62,0,3.266-0.499,4.731-1.434c13.139-8.377,21.729-21.53,23.939-36.972h26.189
			c-2.014,8.824-7.482,16.994-15.486,22.097c-4.111,2.62-5.317,8.103-2.697,12.213c1.681,2.641,4.533,4.096,7.446,4.096
			c1.62,0,3.266-0.499,4.731-1.434c13.139-8.377,21.729-21.53,23.939-36.972h26.189c-2.014,8.824-7.482,16.994-15.486,22.097
			c-4.111,2.62-5.317,8.103-2.697,12.213c1.681,2.641,4.533,4.096,7.446,4.096c1.62,0,3.266-0.499,4.731-1.434
			c13.139-8.377,21.729-21.53,23.939-36.972h24.086C491.82,324.273,468.074,377.435,430.412,417.97z M220.671,254.747
			c0.668-18.88,16.19-34.045,35.235-34.045c19.467,0,35.297,15.835,35.297,35.297c0,19.463-15.83,35.297-35.297,35.297
			c-19.045,0-34.567-15.165-35.235-34.044c0.06-0.412,0.127-0.824,0.127-1.253C220.798,255.571,220.731,255.16,220.671,254.747z
			 M469.542,247.061c-2.581-13.237-10.399-25.691-22.001-33.685c-4.033-2.762-9.514-1.708-12.271,2.291
			c-2.766,4.016-1.758,9.466,2.258,12.233c6.784,4.674,11.623,12.543,13.874,19.161H425.42
			c-2.581-13.237-10.399-25.691-22.001-33.685c-4.024-2.762-9.514-1.708-12.271,2.291c-2.766,4.016-1.758,9.466,2.258,12.233
			c6.784,4.674,11.623,12.543,13.874,19.161h-25.982c-2.581-13.237-10.399-25.691-22.001-33.685
			c-4.024-2.762-9.514-1.708-12.271,2.291c-2.766,4.016-1.758,9.466,2.258,12.233c6.784,4.674,11.623,12.543,13.874,19.161h-55.057
			c-4.214-24.267-26.008-44.122-52.196-44.122s-47.982,19.855-52.196,44.122h-52.267c2.254-6.618,7.092-14.475,13.885-19.147
			c4.007-2.761,5.024-8.226,2.267-12.242c-2.766-4.007-8.238-5.071-12.28-2.31c-11.604,7.991-19.426,20.462-22.009,33.699H107.32
			c2.254-6.618,7.092-14.475,13.885-19.147c4.007-2.761,5.024-8.226,2.266-12.242c-2.766-4.007-8.238-5.071-12.28-2.31
			c-11.604,7.991-19.426,20.462-22.009,33.699H63.199c2.253-6.618,7.092-14.475,13.885-19.147c4.007-2.761,5.024-8.226,2.266-12.242
			c-2.758-4.007-8.238-5.071-12.28-2.31c-11.604,7.991-19.426,20.462-22.009,33.699H17.828
			c2.163-59.564,25.908-112.611,63.571-153.146l50.966,50.994l12.478-12.463L93.877,81.487
			c42.547-39.533,99.508-63.747,162.028-63.747c62.52,0,119.482,24.219,162.028,63.752l-50.966,50.966l12.478,12.479l50.966-51.023
			c37.663,40.535,61.408,93.582,63.569,153.146H469.542z"/>
	</g>
</g>
</svg>