<?xml version="1.0" encoding="iso-8859-1"?>
<!-- Uploaded to: SVG Repo, www.svgrepo.com, Generator: SVG Repo Mixer Tools -->
<svg version="1.1" id="Layer_1" xmlns="http://www.w3.org/2000/svg" xmlns:xlink="http://www.w3.org/1999/xlink" 
	 viewBox="0 0 512 512" xml:space="preserve">
<g>
	<polygon style="fill:#B3B3B3;" points="498.259,90.09 477.317,111.032 457.404,91.108 478.335,70.167 	"/>
	<polygon style="fill:#B3B3B3;" points="478.335,70.167 457.404,91.108 437.481,71.185 458.423,50.254 	"/>
	<polygon style="fill:#B3B3B3;" points="457.404,91.108 434.924,113.578 415.012,93.665 437.481,71.185 	"/>
	<polygon style="fill:#B3B3B3;" points="457.404,91.108 477.317,111.032 454.848,133.501 434.924,113.578 	"/>
	
		<rect x="376.448" y="137.793" transform="matrix(-0.7071 0.7071 -0.7071 -0.7071 818.4725 -35.2575)" style="fill:#B3B3B3;" width="80.18" height="28.178"/>
	<polygon style="fill:#B3B3B3;" points="434.924,113.578 378.231,170.271 358.318,150.348 415.012,93.665 	"/>
	<polygon style="fill:#B3B3B3;" points="358.318,150.348 378.231,170.271 284.15,264.352 264.237,244.44 	"/>
	
		<rect x="327.065" y="160.747" transform="matrix(0.7071 0.7071 -0.7071 0.7071 260.6265 -174.666)" style="fill:#B3B3B3;" width="28.179" height="133.049"/>
</g>
<g>
	<path style="fill:#666666;" d="M40.8,364.717c0,0-2.882,32.556,34.972,66.14l-25.264,25.275
		C0.444,406.08,8.624,364.197,8.624,364.197L40.8,364.717z"/>
	<polygon style="fill:#666666;" points="326.543,306.745 312.242,321.046 295.894,304.708 235.127,243.93 218.779,227.582 
		233.079,213.282 264.237,244.44 284.15,264.352 304.073,284.276 	"/>
</g>
<polygon style="fill:#B3B3B3;" points="235.127,243.93 295.894,304.708 246.329,354.273 227.316,335.26 185.562,293.506 
	185.562,293.495 "/>
<polygon style="fill:#999999;" points="227.316,335.26 153.006,409.569 143.928,400.501 111.253,367.815 185.562,293.506 "/>
<polygon style="fill:#808080;" points="261.648,369.592 187.339,443.901 172.02,428.582 153.006,409.569 227.316,335.26 
	246.329,354.273 "/>
<g>
	<path style="fill:#333333;" d="M509.62,78.727c-3.131-3.13-8.174-3.167-11.357-0.121l-8.44-8.44
		c3.044-3.182,3.009-8.227-0.121-11.357c-3.131-3.13-8.174-3.167-11.357-0.121l-8.44-8.44c3.044-3.182,3.009-8.227-0.121-11.357
		c-3.174-3.173-8.318-3.173-11.491,0l-21.625,21.625c-2.682-0.677-5.641,0.024-7.741,2.122c-2.099,2.099-2.799,5.058-2.122,7.741
		l-12.608,12.607c-2.682-0.677-5.642,0.024-7.741,2.123c-2.099,2.099-2.801,5.058-2.122,7.741l-46.825,46.825
		c-2.682-0.677-5.642,0.024-7.742,2.123c-2.099,2.098-2.801,5.058-2.122,7.741l-83.407,83.407l-39.197-39.197
		c-3.173-3.173-8.318-3.173-11.49,0c-3.173,3.173-3.173,8.318,0,11.49l8.044,8.044L71.823,363.048
		c-2.803,2.803-3.174,7.219-0.88,10.45l21.053,29.65l-16.4,16.401c-28.186-28.069-26.771-53.073-26.698-54.123
		c0.199-2.248-0.546-4.478-2.056-6.155c-1.51-1.677-3.651-2.65-5.908-2.686l-32.183-0.514c-3.947-0.038-7.351,2.704-8.105,6.569
		c-0.367,1.883-8.398,46.728,44.11,99.238c1.523,1.524,3.59,2.38,5.745,2.38s4.222-0.856,5.745-2.38l19.527-19.527l7.403,7.403
		l-11.862,11.863c-3.173,3.173-3.173,8.318,0,11.49c1.586,1.586,3.666,2.38,5.745,2.38s4.159-0.793,5.745-2.38l11.864-11.864
		l5.491,5.491c1.586,1.586,3.666,2.38,5.745,2.38s4.159-0.793,5.745-2.38c3.173-3.173,3.173-8.318,0-11.49l-5.491-5.491
		l37.769-37.77l37.665,37.666c1.523,1.524,3.59,2.38,5.745,2.38s4.222-0.856,5.745-2.38l74.314-74.312
		c1.523-1.523,2.379-3.59,2.379-5.745c0-2.155-0.856-4.222-2.379-5.745l-9.576-9.576l38.078-38.078l10.597,10.597
		c1.524,1.524,3.59,2.38,5.746,2.38s4.221-0.856,5.746-2.38l14.3-14.3c3.173-3.173,3.173-8.318,0-11.49l-16.725-16.725
		l83.409-83.409c0.654,0.165,1.324,0.257,1.995,0.257c2.079,0,4.159-0.793,5.746-2.38c2.099-2.099,2.799-5.057,2.122-7.741
		l46.826-46.826c0.654,0.165,1.324,0.257,1.995,0.257c2.079,0,4.159-0.793,5.746-2.38c2.099-2.099,2.799-5.057,2.122-7.741
		l12.607-12.607c0.654,0.165,1.323,0.257,1.995,0.257c2.079,0,4.159-0.793,5.746-2.38c2.099-2.099,2.799-5.057,2.122-7.741
		l21.625-21.625C512.793,87.044,512.793,81.9,509.62,78.727z M50.622,444.523c-19.993-21.753-28.27-41.176-31.679-54.061
		c-1.998-7.551-2.585-13.726-2.672-18.016l16.761,0.268c1.396,11.974,7.354,34.669,31.075,58.325L50.622,444.523z M458.421,61.746
		l8.427,8.427l-9.448,9.448l-8.427-8.427L458.421,61.746z M445.909,91.111l-10.98,10.98l-8.427-8.427l10.98-10.98L445.909,91.111z
		 M423.437,113.582l-45.198,45.198l-8.427-8.427l45.198-45.198L423.437,113.582z M434.928,125.074l8.427,8.427l-45.198,45.198
		l-8.427-8.427L434.928,125.074z M446.42,113.582l10.98-10.98l8.427,8.427l-10.98,10.98L446.42,113.582z M468.89,91.111l9.448-9.448
		l8.427,8.427l-9.448,9.448L468.89,91.111z M358.321,161.845l8.427,8.427l-82.594,82.594l-8.427-8.427L358.321,161.845z
		 M185.559,304.99l30.265,30.265l-62.821,62.821l-30.265-30.265L185.559,304.99z M187.34,432.415l-22.846-22.846l62.821-62.821
		l22.846,22.846L187.34,432.415z M246.331,342.78l-49.281-49.281l38.075-38.075l49.281,49.281L246.331,342.78z M105.498,362.065
		c-1.524,1.523-2.38,3.59-2.38,5.745c0,2.155,0.856,4.222,2.38,5.745l26.94,26.939l-37.769,37.769l-7.403-7.402l21.075-21.075
		c2.803-2.803,3.174-7.219,0.88-10.45l-21.053-29.651l130.613-130.613l4.857,4.857L105.498,362.065z M312.242,309.554l-81.969-81.97
		l2.809-2.809l81.969,81.97L312.242,309.554z M295.645,264.356l82.594-82.594l8.427,8.427l-82.594,82.594L295.645,264.356z"/>
	<path style="fill:#333333;" d="M234.661,290.959h-3.792c-4.487,0-8.125,3.638-8.125,8.125s3.638,8.125,8.125,8.125h3.792v3.792
		c0,4.487,3.638,8.125,8.125,8.125s8.125-3.638,8.125-8.125v-3.792h3.792c4.487,0,8.125-3.638,8.125-8.125s-3.637-8.125-8.125-8.125
		h-3.792v-3.792c0-4.487-3.638-8.125-8.125-8.125s-8.125,3.638-8.125,8.125V290.959z"/>
</g>
</svg>