<?xml version="1.0" encoding="iso-8859-1"?>
<!-- Uploaded to: SVG Repo, www.svgrepo.com, Generator: SVG Repo Mixer Tools -->
<svg fill="#000000" version="1.1" id="Layer_1" xmlns="http://www.w3.org/2000/svg" xmlns:xlink="http://www.w3.org/1999/xlink" 
	 viewBox="0 0 512 512" xml:space="preserve">
<g>
	<g>
		<path d="M437.761,232.267c-7.637,2.038-15.53,3.072-23.456,3.072c-24.184,0-46.921-9.417-64.02-26.518l-5.615-5.615l58.185-58.185
			l10.76-10.76L512,35.876l-21.52-21.52l-17.331,17.331L453.78,12.319l-21.52,21.52l19.368,19.368l-59.534,59.534l-34.641-34.641
			l-68.956,68.956l-12.266-12.266L92.228,318.796L0,411.024l88.659,88.658l63.533-120.921l24.838,24.838l36.289-36.289
			l30.895,74.587l73.375-30.393l-24.224-58.483l43.501-43.501c23.914,11.261,50.219,17.202,77.437,17.202
			c15.907,0,31.748-2.076,47.082-6.169l14.717-3.928l-23.653-88.278L437.761,232.267z M357.455,121.141l13.12,13.12l-47.436,47.436
			l-13.12-13.12L357.455,121.141z M80.946,448.927l-37.904-37.903l70.706-70.707l9.995,9.995l5.911,5.911L80.946,448.927z
			 M260.684,402.131l-24.073-58.116l14.2-14.2l27.013,65.216L260.684,402.131z M280.758,322.586l-6.654-16.064l22.773-22.773
			c4.137,3.508,8.401,6.824,12.793,9.925L280.758,322.586z M274.906,262.68l-13.408,13.409v-0.001l-60.786,60.787l-23.683,23.682
			l-10.013-10.013l-17.796-17.796l-13.952-13.952l140.951-140.951l41.761,41.761L274.906,262.68z M414.303,296.286
			c-35.348,0-68.847-12.026-95.825-34.136l21.712-21.713c21.114,16.433,46.929,25.338,74.115,25.338
			c5.48,0,10.951-0.371,16.368-1.107l7.95,29.667C430.594,295.631,422.46,296.286,414.303,296.286z"/>
	</g>
</g>
<g>
	<g>
		
			<rect x="161.604" y="253.971" transform="matrix(0.7071 -0.7071 0.7071 0.7071 -123.9673 239.0927)" width="130.045" height="30.434"/>
	</g>
</g>
</svg>