<?xml version="1.0" encoding="iso-8859-1"?>
<!-- Uploaded to: SVG Repo, www.svgrepo.com, Generator: SVG Repo Mixer Tools -->
<svg height="800px" width="800px" version="1.1" id="Layer_1" xmlns="http://www.w3.org/2000/svg" xmlns:xlink="http://www.w3.org/1999/xlink" 
	 viewBox="0 0 512 512" xml:space="preserve">
<g>
	<path style="fill:#F2F2F2;" d="M256,208.209V256h-92.566c0-51.118,41.448-92.554,92.566-92.554L256,208.209L256,208.209z"/>
	<path style="fill:#F2F2F2;" d="M256,208.209v-44.762c51.118,0,92.554,41.436,92.554,92.554H256L256,208.209L256,208.209z"/>
	<path style="fill:#F2F2F2;" d="M256,303.791V256h92.554c0,51.118-41.436,92.566-92.554,92.566L256,303.791L256,303.791z"/>
	<path style="fill:#F2F2F2;" d="M256,303.791v44.775c-51.118,0-92.566-41.448-92.566-92.566H256L256,303.791L256,303.791z"/>
	<path style="fill:#F2F2F2;" d="M348.554,256c0-51.118-41.436-92.554-92.554-92.554S163.434,204.882,163.434,256
		s41.448,92.566,92.566,92.566S348.554,307.118,348.554,256z M256,44.092c117.033,0,211.908,94.875,211.908,211.908
		S373.033,467.908,256,467.908S44.092,373.033,44.092,256S138.967,44.092,256,44.092z"/>
</g>
<path style="fill:#666666;" d="M256,9.31c136.236,0,246.69,110.441,246.69,246.69S392.236,502.69,256,502.69
	C119.751,502.69,9.31,392.249,9.31,256S119.751,9.31,256,9.31z M467.908,256c0-117.033-94.875-211.908-211.908-211.908
	S44.092,138.967,44.092,256S138.967,467.908,256,467.908S467.908,373.033,467.908,256z"/>
<g>
	<path style="fill:#333333;" d="M256,512C114.841,512,0,397.159,0,256S114.841,0,256,0s256,114.841,256,256S397.159,512,256,512z
		 M256,18.62C125.108,18.62,18.62,125.108,18.62,256S125.108,493.38,256,493.38S493.38,386.892,493.38,256S386.892,18.62,256,18.62z
		"/>
	<path style="fill:#333333;" d="M256,477.218C134.02,477.218,34.782,377.98,34.782,256S134.02,34.782,256,34.782
		S477.218,134.02,477.218,256S377.98,477.218,256,477.218z M256,53.402C144.288,53.402,53.402,144.288,53.402,256
		S144.288,458.598,256,458.598S458.598,367.712,458.598,256S367.712,53.402,256,53.402z"/>
</g>
<path style="fill:#808080;" d="M415.4,246.69h-57.98c-4.44-48.75-43.36-87.669-92.111-92.111V125.66h11.172
	c5.142,0,9.31-4.168,9.31-9.31c0-5.142-4.168-9.31-9.31-9.31h-11.172V96.588c0-5.142-4.168-9.31-9.31-9.31
	c-5.142,0-9.31,4.168-9.31,9.31v10.452h-11.172c-5.142,0-9.31,4.168-9.31,9.31c0,5.142,4.168,9.31,9.31,9.31h11.172v28.919
	c-48.756,4.44-87.682,43.36-92.122,92.111H96.588c-5.142,0-9.31,4.168-9.31,9.31s4.168,9.31,9.31,9.31h57.98
	c4.44,48.757,43.366,87.682,92.122,92.122v28.908h-11.172c-5.142,0-9.31,4.168-9.31,9.31s4.168,9.31,9.31,9.31h11.172v10.452
	c0,5.142,4.168,9.31,9.31,9.31s9.31-4.168,9.31-9.31V404.96h11.172c5.142,0,9.31-4.168,9.31-9.31s-4.168-9.31-9.31-9.31H265.31
	v-28.908c48.751-4.441,87.67-43.366,92.111-92.122H415.4c5.142,0,9.31-4.168,9.31-9.31S420.541,246.69,415.4,246.69z M338.71,246.69
	h-73.4v-29.171h11.172c5.142,0,9.31-4.168,9.31-9.31c0-5.142-4.168-9.31-9.31-9.31H265.31V173.29
	C303.784,177.592,334.406,208.215,338.71,246.69z M246.69,173.29v25.609h-11.172c-5.142,0-9.31,4.168-9.31,9.31
	c0,5.142,4.168,9.31,9.31,9.31h11.172v29.171h-73.412C177.581,208.215,208.21,177.592,246.69,173.29z M173.278,265.31h73.412v29.171
	h-11.172c-5.142,0-9.31,4.168-9.31,9.31c0,5.142,4.168,9.31,9.31,9.31h11.172v25.621C208.209,334.419,177.581,303.79,173.278,265.31
	z M265.31,338.722v-25.621h11.172c5.142,0,9.31-4.168,9.31-9.31c0-5.142-4.168-9.31-9.31-9.31H265.31V265.31h73.4
	C334.408,303.79,303.785,334.417,265.31,338.722z"/>
</svg>