<?xml version="1.0" encoding="iso-8859-1"?>
<!-- Uploaded to: SVG Repo, www.svgrepo.com, Generator: SVG Repo Mixer Tools -->
<svg fill="#000000" version="1.1" id="Layer_1" xmlns="http://www.w3.org/2000/svg" xmlns:xlink="http://www.w3.org/1999/xlink" 
	 viewBox="0 0 512 512" xml:space="preserve">
<g>
	<g>
		<path d="M504.943,113.087c-5.977-7.158-14.772-11.164-24.761-11.164h-7.996V65.802c0-3.512-2.56-6.716-5.741-8.202
			c-3.185-1.486-7.209-1.068-9.907,1.179l-52.108,43.145H118.834V83.922c0-5.008-4.057-9.06-9.06-9.06s-9.06,4.052-9.06,9.06v18.001
			H54.375c-6.714,0-12.984,1.929-18.382,5.123L15.466,86.546c-3.539-3.539-9.273-3.524-12.812,0.016
			c-3.539,3.539-3.539,9.279,0,12.818l21.058,20.54c-3.197,5.406-4.541,11.69-4.541,18.417v45.195
			c0,20.014,15.207,36.175,35.19,36.175h10.286c6.512,22.651,11.741,58.766-9.091,95.228
			c-28.641,50.115-38.462,85.102-30.91,110.035c3.929,12.98,12.564,22.845,25.663,29.393c1.256,0.628,2.645,0.911,4.052,0.911
			h108.723c4.428,0,8.211-3.143,8.936-7.514c4.937-29.614,11.923-67.291,19.249-101.234c8.888-0.708,146.057-13.566,161.178-126.82
			h109.626c19.479,0,37.467-14.937,40.953-34.093l8.406-46.239C513.189,129.722,510.822,120.139,504.943,113.087z M454.065,85.143
			v16.78h-21.327L454.065,85.143z M155.427,437.154H56.605c-7.543-4.53-12.33-9.912-14.617-17.459
			c-5.844-19.297,4.017-51.493,29.3-95.741c5.887-10.303,9.974-20.589,12.691-30.645c4.135,5.57,9.716,11.02,17.255,15.236
			c9.215,5.149,19.934,7.729,32.092,7.729c14.313,0,30.653-3.685,48.856-10.812C170.32,352.528,159.362,414.503,155.427,437.154z
			 M260.585,309.839c-26.986,12.36-53.765,16.734-65.165,18.114c7.388-32.118,14.794-58.301,20.505-66.875
			c4.371-6.556,10.936-14.964,19.368-24.829c0.903,7.441,3.376,15.975,9.251,23.133c8.052,9.821,20.271,14.805,36.325,14.805
			c5.004,0,9.06-4.052,9.06-9.06c0-5.008-4.057-9.06-9.06-9.06c-10.326,0-17.815-2.723-22.261-8.103
			c-8.06-9.753-5.176-25.975-5.092-26.444c0.119-0.593,0.172-1.812,0.172-1.812h80.454
			C327.984,260.479,303.276,290.303,260.585,309.839z M493.604,136.196l-8.406,46.18c-1.902,10.44-12.489,19.211-23.124,19.211
			H344.366c-0.058,0-0.128,0-0.168,0h-98.349c-2.535,0-4.951,1.121-6.667,2.988c-17.811,19.35-30.707,34.996-38.334,46.436
			c-4.026,6.039-8.357,17.725-12.702,32.476c-0.55,0.135-1.095,0.321-1.627,0.566c-33.065,15.024-59.436,18.063-76.256,8.782
			c-16.851-9.299-19.616-28.011-19.735-28.878c-0.227-1.75-0.957-3.289-2-4.55c0.145-21.202-4.498-39.528-8.728-51.685
			c-1.265-3.634-4.698-6.136-8.556-6.136H54.362c-9.994,0-17.07-8.029-17.07-18.054v-45.195c0-10.025,7.085-18.293,17.083-18.293
			h425.807c4.521,0,8.374,1.688,10.847,4.652C493.494,127.651,494.409,131.772,493.604,136.196z"/>
	</g>
</g>
<g>
	<g>
		<rect x="182.248" y="138.166" width="280.869" height="18.121"/>
	</g>
</g>
</svg>