<?xml version="1.0" encoding="iso-8859-1"?>
<!-- Uploaded to: SVG Repo, www.svgrepo.com, Generator: SVG Repo Mixer Tools -->
<!DOCTYPE svg PUBLIC "-//W3C//DTD SVG 1.1//EN" "http://www.w3.org/Graphics/SVG/1.1/DTD/svg11.dtd">
<svg height="800px" width="800px" version="1.1" id="Capa_1" xmlns="http://www.w3.org/2000/svg" xmlns:xlink="http://www.w3.org/1999/xlink" 
	 viewBox="0 0 458.635 458.635" xml:space="preserve">
<g>
	<polygon style="fill:#F9E17A;" points="199.41,133.459 196.58,137.109 149.61,197.649 140.19,209.789 92.97,270.659 0,177.689 
		61.01,130.359 73.13,120.959 133.65,74.009 137.21,71.249 143.85,77.889 192.87,126.919 	"/>
	<polygon style="fill:#F99C38;" points="410.56,383.079 384.92,408.719 377.64,401.439 367.78,391.579 318.13,341.939 
		308.64,332.449 304.63,328.429 295.46,319.269 246.61,270.419 236.79,260.589 160.2,184.009 182.61,155.119 287.18,259.689 
		297,269.519 299.95,272.469 309.12,281.629 357.25,329.759 366.73,339.249 368.53,341.049 	"/>
	<polyline style="fill:#F99C38;" points="86.656,110.464 60.912,84.721 86.559,59.073 115.541,88.055 	"/>
	<g>
		<polygon style="fill:#51B7CE;" points="297,269.519 246.61,270.419 236.79,260.589 287.18,259.689 		"/>
		<polygon style="fill:#51B7CE;" points="309.12,281.629 304.63,328.429 295.46,319.269 299.95,272.469 		"/>
		<polygon style="fill:#51B7CE;" points="357.25,329.759 366.73,339.249 318.13,341.939 308.64,332.449 		"/>
		<polygon style="fill:#51B7CE;" points="378.39,350.909 377.64,401.439 367.78,391.579 368.53,341.049 		"/>
	</g>
	<path style="fill:#D17519;" d="M251.63,275.439l-79.82,79.82l-6.24,6.24l-3.19,3.19l-0.81,0.81l-10.25,10.25l-20.15,20.15
		c-3.54,3.54-8.18,5.31-12.82,5.31s-9.28-1.77-12.82-5.31c-5.14-5.13-6.55-12.57-4.24-18.97c0.87-2.43,2.28-4.72,4.23-6.67
		l3.51-3.51l50.3-50.3l66.66-66.66L251.63,275.439z"/>
	<polygon style="fill:#D17519;" points="337.199,189.869 277.279,249.789 251.629,224.149 313.729,162.049 	"/>
	<path style="fill:#D17519;" d="M385.419,90.355l23.267-23.267c7.085-7.085,18.562-7.085,25.647,0
		c3.543,3.543,5.314,8.183,5.322,12.824c-0.008,4.641-1.779,9.281-5.322,12.824l-21.095,21.095"/>
	<path style="fill:#666666;" d="M161.57,365.499l-10.25,10.25l-50.03,1.18c0.87-2.43,2.28-4.72,4.23-6.67l3.51-3.51L161.57,365.499z
		"/>
	<polygon style="fill:#666666;" points="222.88,304.189 168.78,307.319 171.81,355.259 165.57,361.499 162.38,364.689 
		159.33,316.449 179.07,296.709 233.5,293.569 	"/>
	<path style="fill:#666666;" d="M444.86,207.239l-14.25,14.25c-19.47,19.47-51.43,18.12-69.18-2.92l-11.64-13.79l-8.05-9.54
		l-37.16-44.03l-7.48-8.86l-12.73-15.09c-7.42-8.79-11.08-19.57-11.08-30.32c0-12.07,4.63-24.11,13.77-33.25
		c17.27-17.28,44.9-18.44,63.57-2.69l18.56,15.66l8.58,7.25l44,37.13l10,8.44l10.17,8.58
		C462.98,155.809,464.33,187.769,444.86,207.239z"/>
	<polygon style="fill:#EF5252;" points="61.01,130.359 136.54,134.119 140.19,209.789 149.61,197.649 146.58,134.619 
		196.58,137.109 199.41,133.459 192.87,126.919 146.1,124.589 143.85,77.889 137.21,71.249 133.65,74.009 136.06,124.089 
		73.13,120.959 	"/>
	<polygon style="fill:#F9E17A;" points="431.77,129.479 364.57,140.959 349.79,204.779 341.74,195.239 353.88,142.789 
		304.58,151.209 297.1,142.349 356.33,132.229 369.19,76.659 377.77,83.909 367.01,130.399 421.77,121.039 	"/>
	<path style="fill:#999999;" d="M444.86,207.239l-14.25,14.25c-15.96,15.96-40.31,17.93-58.35,6.54
		c-2.75-11.71,0.44-24.51,9.56-33.63c7.03-7.03,16.22-10.53,25.42-10.52c0-9.21,3.5-18.4,10.53-25.43
		c9.12-9.13,21.93-12.31,33.63-9.56C462.79,166.929,460.82,191.279,444.86,207.239z"/>
	<polygon style="fill:#E0C75F;" points="24.124,158.974 111.894,246.744 92.97,270.659 0,177.689 	"/>
</g>
</svg>