<?xml version="1.0" encoding="iso-8859-1"?>
<!-- Uploaded to: SVG Repo, www.svgrepo.com, Generator: SVG Repo Mixer Tools -->
<!DOCTYPE svg PUBLIC "-//W3C//DTD SVG 1.1//EN" "http://www.w3.org/Graphics/SVG/1.1/DTD/svg11.dtd">
<svg height="800px" width="800px" version="1.1" id="Capa_1" xmlns="http://www.w3.org/2000/svg" xmlns:xlink="http://www.w3.org/1999/xlink" 
	 viewBox="0 0 411.203 411.203" xml:space="preserve">
<g>
	<path style="fill:#F9E17A;" d="M156.006,401.203V234.86v-46.969V54.385C156.006,24.35,180.356,0,210.391,0
		c30.044,0,54.393,24.35,54.393,54.385v346.818H156.006z"/>
	<path style="fill:#E0C553;" d="M314.126,24.72c-6.485,0-12.352,2.629-16.604,6.881c-4.252,4.244-6.88,10.119-6.88,16.604v47.998
		l27.856,5.159h-27.856h-25.858v46.969h25.858h23.484c12.97,0,23.484-10.514,23.484-23.484v-23.484V48.205
		C337.611,35.235,327.096,24.72,314.126,24.72z"/>
	<path style="fill:#F99C38;" d="M327.395,411.203h-234l0,0c15.967-12.939,35.895-20,56.446-20h121.107
		C291.501,391.203,311.428,398.264,327.395,411.203L327.395,411.203z"/>
	<path style="fill:#E0C553;" d="M173.72,187.891h-48.226l-4.928,29.495v-29.495v-9.502v-43.652
		c0-12.971-10.515-23.487-23.487-23.487h0c-12.971,0-23.487,10.515-23.487,23.487v53.154v23.487
		c0,12.971,10.516,23.487,23.487,23.487h23.487h53.154c12.971,0,23.487-10.515,23.487-23.487S186.692,187.891,173.72,187.891z"/>
	<path style="fill:#E0C553;" d="M192.034,66.393c-1.32,0-2.601-0.53-3.54-1.46c-0.931-0.93-1.46-2.22-1.46-3.54
		c0-1.32,0.529-2.61,1.46-3.54c0.939-0.92,2.22-1.46,3.54-1.46c1.31,0,2.6,0.54,3.529,1.46c0.94,0.93,1.471,2.22,1.471,3.54
		c0,1.32-0.53,2.61-1.471,3.54C194.634,65.863,193.353,66.393,192.034,66.393z"/>
	<path style="fill:#E0C553;" d="M243.034,54.393c-1.32,0-2.61-0.53-3.54-1.46c-0.931-0.93-1.46-2.22-1.46-3.54
		c0-1.31,0.529-2.6,1.46-3.53c0.93-0.93,2.22-1.47,3.54-1.47c1.31,0,2.6,0.54,3.529,1.47c0.931,0.93,1.471,2.22,1.471,3.53
		c0,1.32-0.54,2.61-1.471,3.54C245.634,53.863,244.344,54.393,243.034,54.393z"/>
	<path style="fill:#E0C553;" d="M220.534,120.393c-1.32,0-2.61-0.54-3.54-1.47c-0.931-0.93-1.46-2.21-1.46-3.53
		c0-1.32,0.529-2.61,1.46-3.54c0.93-0.93,2.22-1.46,3.54-1.46c1.31,0,2.6,0.53,3.529,1.46c0.931,0.93,1.471,2.22,1.471,3.54
		c0,1.32-0.54,2.6-1.471,3.53C223.134,119.853,221.844,120.393,220.534,120.393z"/>
	<path style="fill:#E0C553;" d="M195.034,141.393c-1.32,0-2.61-0.54-3.54-1.47c-0.931-0.93-1.46-2.22-1.46-3.53
		c0-1.32,0.529-2.61,1.46-3.54c0.93-0.93,2.22-1.46,3.54-1.46c1.31,0,2.6,0.53,3.54,1.46c0.92,0.93,1.46,2.22,1.46,3.54
		c0,1.31-0.54,2.6-1.46,3.53C197.634,140.853,196.353,141.393,195.034,141.393z"/>
	<path style="fill:#E0C553;" d="M225.034,258.383c-1.32,0-2.61-0.53-3.54-1.46c-0.931-0.93-1.46-2.22-1.46-3.54
		c0-1.32,0.529-2.6,1.46-3.53c0.93-0.93,2.22-1.47,3.54-1.47c1.319,0,2.6,0.54,3.529,1.47c0.931,0.93,1.471,2.21,1.471,3.53
		c0,1.32-0.54,2.61-1.471,3.54C227.634,257.853,226.353,258.383,225.034,258.383z"/>
	<path style="fill:#E0C553;" d="M224.965,370.663c-1.32,0-2.61-0.53-3.54-1.46c-0.931-0.93-1.46-2.22-1.46-3.54
		c0-1.32,0.529-2.6,1.46-3.53c0.93-0.93,2.22-1.47,3.54-1.47c1.319,0,2.6,0.54,3.529,1.47c0.931,0.93,1.471,2.21,1.471,3.53
		c0,1.32-0.54,2.61-1.471,3.54C227.564,370.133,226.284,370.663,224.965,370.663z"/>
	<path style="fill:#F9E17A;" d="M93.044,172.893c-1.32,0-2.61-0.54-3.54-1.47c-0.93-0.93-1.47-2.22-1.47-3.53
		c0-1.32,0.54-2.61,1.47-3.54s2.22-1.46,3.54-1.46c1.31,0,2.6,0.53,3.53,1.46c0.93,0.93,1.47,2.22,1.47,3.54
		c0,1.31-0.54,2.6-1.47,3.53C95.644,172.353,94.353,172.893,93.044,172.893z"/>
	<path style="fill:#F9E17A;" d="M146.034,224.673c-1.32,0-2.61-0.54-3.54-1.47c-0.93-0.93-1.47-2.22-1.47-3.53
		c0-1.32,0.54-2.61,1.47-3.54s2.22-1.46,3.54-1.46c1.31,0,2.6,0.53,3.53,1.46c0.93,0.93,1.47,2.22,1.47,3.54
		c0,1.31-0.54,2.6-1.47,3.53C148.634,224.133,147.344,224.673,146.034,224.673z"/>
	<path style="fill:#F9E17A;" d="M108.034,148.673c-1.32,0-2.61-0.54-3.54-1.47c-0.93-0.93-1.47-2.22-1.47-3.53
		c0-1.32,0.54-2.61,1.47-3.54s2.22-1.46,3.54-1.46c1.31,0,2.6,0.53,3.53,1.46c0.93,0.93,1.47,2.22,1.47,3.54
		c0,1.31-0.54,2.6-1.47,3.53C110.634,148.133,109.344,148.673,108.034,148.673z"/>
	<path style="fill:#F9E17A;" d="M325.523,73.893c-1.31,0-2.6-0.53-3.529-1.46c-0.931-0.93-1.471-2.22-1.471-3.54
		c0-1.32,0.54-2.6,1.471-3.53c0.93-0.94,2.22-1.47,3.529-1.47c1.32,0,2.61,0.53,3.54,1.47c0.931,0.93,1.46,2.22,1.46,3.53
		c0,1.32-0.529,2.61-1.46,3.54C328.134,73.363,326.844,73.893,325.523,73.893z"/>
	<path style="fill:#F9E17A;" d="M311.494,54.203c-1.31,0-2.6-0.53-3.529-1.46c-0.931-0.93-1.471-2.22-1.471-3.54
		c0-1.32,0.54-2.6,1.471-3.53c0.93-0.94,2.22-1.47,3.529-1.47c1.32,0,2.61,0.53,3.54,1.47c0.931,0.93,1.46,2.22,1.46,3.53
		c0,1.32-0.529,2.61-1.46,3.54C314.104,53.673,312.814,54.203,311.494,54.203z"/>
	<path style="fill:#E0C553;" d="M193.534,325.883c-1.32,0-2.61-0.54-3.54-1.47c-0.931-0.93-1.46-2.22-1.46-3.53
		c0-1.32,0.529-2.61,1.46-3.54c0.93-0.93,2.22-1.46,3.54-1.46c1.319,0,2.6,0.53,3.54,1.46c0.93,0.94,1.46,2.22,1.46,3.54
		c0,1.31-0.53,2.6-1.46,3.53C196.134,325.343,194.844,325.883,193.534,325.883z"/>
	<path style="fill:#E0C553;" d="M216.034,337.883c-1.32,0-2.61-0.54-3.54-1.47c-0.931-0.93-1.46-2.21-1.46-3.53
		c0-1.32,0.529-2.61,1.46-3.54c0.93-0.93,2.22-1.46,3.54-1.46c1.319,0,2.6,0.53,3.529,1.46c0.931,0.93,1.471,2.22,1.471,3.54
		c0,1.31-0.54,2.6-1.471,3.53C218.644,337.343,217.353,337.883,216.034,337.883z"/>
	<path style="fill:#E0C553;" d="M168.965,352.673c-1.32,0-2.61-0.54-3.54-1.47c-0.931-0.93-1.46-2.21-1.46-3.53
		c0-1.32,0.529-2.61,1.46-3.54c0.93-0.93,2.22-1.46,3.54-1.46c1.319,0,2.6,0.53,3.529,1.46c0.931,0.93,1.471,2.22,1.471,3.54
		c0,1.31-0.54,2.6-1.471,3.53C171.574,352.133,170.284,352.673,168.965,352.673z"/>
	<path style="fill:#E0C553;" d="M192.034,370.883c-1.32,0-2.601-0.54-3.54-1.47c-0.931-0.93-1.46-2.22-1.46-3.53
		c0-1.32,0.529-2.61,1.46-3.54c0.939-0.93,2.22-1.47,3.54-1.47c1.319,0,2.6,0.54,3.529,1.47c0.94,0.93,1.471,2.22,1.471,3.54
		c0,1.31-0.53,2.6-1.471,3.53C194.634,370.343,193.353,370.883,192.034,370.883z"/>
</g>
</svg>