<?xml version="1.0" encoding="iso-8859-1"?>
<!-- Uploaded to: SVG Repo, www.svgrepo.com, Generator: SVG Repo Mixer Tools -->
<!DOCTYPE svg PUBLIC "-//W3C//DTD SVG 1.1//EN" "http://www.w3.org/Graphics/SVG/1.1/DTD/svg11.dtd">
<svg version="1.1" id="Capa_1" xmlns="http://www.w3.org/2000/svg" xmlns:xlink="http://www.w3.org/1999/xlink" 
	 viewBox="0 0 468.08 468.08" xml:space="preserve">
<g>
	<rect x="377.782" y="254.965" style="fill:#D17519;" width="31.905" height="50.951"/>
	<path style="fill:#F99C38;" d="M393.732,280.75L393.732,280.75c-15.153,0-27.437-12.284-27.437-27.437v-41.474h54.873v41.474
		C421.169,268.466,408.885,280.75,393.732,280.75z"/>
	<rect x="366.295" y="227.361" style="fill:#D17519;" width="54.873" height="20"/>
	<path style="fill:#F99C38;" d="M468.08,325.437c0,10.78-8.74,19.52-19.52,19.52H140.03c-10.93,0-21.85-0.3-32.77-0.9
		c-6.67-0.36-13.33-0.83-20-1.41c-13.51-1.19-27-2.84-40.45-4.94L0,330.397v-8.02l40.91-7.22c15.41-2.72,30.87-4.83,46.35-6.35
		c6.66-0.66,13.33-1.2,20-1.63c12.92-0.84,25.86-1.26,38.8-1.26h302.5c5.39,0,10.27,2.18,13.8,5.72
		C465.9,315.167,468.08,320.047,468.08,325.437z"/>
	<path style="fill:#D17519;" d="M341.987,353.505c-5.522,0-10-4.477-10-10v-36.132c0-5.523,4.478-10,10-10s10,4.477,10,10v36.132
		C351.987,349.028,347.509,353.505,341.987,353.505z"/>
	<path style="fill:#D17519;" d="M311.988,353.505c-5.522,0-10-4.477-10-10v-36.132c0-5.523,4.478-10,10-10s10,4.477,10,10v36.132
		C321.988,349.028,317.51,353.505,311.988,353.505z"/>
	<rect x="193.993" y="305.918" style="fill:#51B7CE;" width="20" height="61.079"/>
	<rect x="429.482" y="305.918" style="fill:#666666;" width="20" height="39.042"/>
	<path style="fill:#EF5252;" d="M107.26,307.177v36.88c-6.67-0.36-13.33-0.83-20-1.41v-33.84
		C93.92,308.147,100.59,307.607,107.26,307.177z"/>
	<path style="fill:#66C5E2;" d="M376.485,128.471h-22.499c-17.92,0-32.499-14.579-32.499-32.499s14.579-32.499,32.499-32.499h22.602
		c8.489,0,15.396-6.907,15.396-15.396v-4.602c0-5.523,4.478-10,10-10s10,4.477,10,10v4.602c0,19.518-15.878,35.396-35.396,35.396
		h-22.602c-6.892,0-12.499,5.607-12.499,12.499c0,6.892,5.607,12.499,12.499,12.499h22.499c5.522,0,10,4.477,10,10
		S382.007,128.471,376.485,128.471z"/>
	<path style="fill:#66C5E2;" d="M415.483,128.471h-11.999c-5.522,0-10-4.477-10-10s4.478-10,10-10h11.999c5.522,0,10,4.477,10,10
		S421.005,128.471,415.483,128.471z"/>
	<path style="fill:#66C5E2;" d="M391.484,194.468c-5.522,0-10-4.477-10-10v-7.11c0-18.135,14.754-32.889,32.889-32.889h10.109
		c4.411,0,7.999-3.588,7.999-7.999c0-1.655-0.498-3.239-1.439-4.582c-3.173-4.521-2.079-10.757,2.442-13.93
		s10.758-2.078,13.929,2.442c3.315,4.725,5.068,10.282,5.068,16.069c0,15.438-12.561,27.999-27.999,27.999h-10.109
		c-7.106,0-12.889,5.782-12.889,12.889v7.11C401.484,189.991,397.006,194.468,391.484,194.468z"/>
	<path style="fill:#EF5252;" d="M249.528,412.885c0,7.2-1.15,14.52-3.56,21.72c-17.9-6-31.66-18.67-39.47-34.32
		c3.45-7.17,5.23-15.03,5.23-22.96c0-10.06-2.87-20.23-8.86-29.23h0.01C231.468,357.675,249.528,384.315,249.528,412.885z"/>
	<path style="fill:#F9E17A;" d="M206.498,400.285c-3.97,8.28-10.15,15.63-18.35,21.08c-16.17-24.3-9.57-57.1,14.72-73.27
		c5.99,9,8.86,19.17,8.86,29.23C211.728,385.255,209.948,393.115,206.498,400.285z"/>
</g>
</svg>