<?xml version="1.0" encoding="iso-8859-1"?>
<!-- Uploaded to: SVG Repo, www.svgrepo.com, Generator: SVG Repo Mixer Tools -->
<!DOCTYPE svg PUBLIC "-//W3C//DTD SVG 1.1//EN" "http://www.w3.org/Graphics/SVG/1.1/DTD/svg11.dtd">
<svg height="800px" width="800px" version="1.1" id="Capa_1" xmlns="http://www.w3.org/2000/svg" xmlns:xlink="http://www.w3.org/1999/xlink" 
	 viewBox="0 0 454.97 454.97" xml:space="preserve">
<g>
	<path style="fill:#F99C38;" d="M454.97,194.814c0,7.05-1.18,14.16-3.62,20.98c-2.25,6.3-5.58,12.36-10.06,17.93
		c-1.89,2.36-3.99,4.64-6.31,6.81c-5.84,5.48-12.61,9.74-19.93,12.63c-7.32,2.89-15.18,4.41-23.18,4.41H63.11
		c-16.02,0-31.43-6.09-43.12-17.04c-2.35-2.2-4.48-4.52-6.4-6.92c-4.46-5.58-7.78-11.65-10.01-17.95
		c-2.42-6.78-3.58-13.84-3.58-20.85c0-27.81,18.29-54.96,49.49-61.87c1.35,8.06,3.88,15.68,7.39,22.67
		c4.19,8.34,9.78,15.81,16.44,22.11c1.08,1.03,2.19,2.03,3.33,2.99c14,11.85,32.08,18.9,51.58,18.9h198.51
		c20.88,0,40.12-8.07,54.48-21.47c6.65-6.21,12.26-13.56,16.5-21.78c3.7-7.2,6.37-15.07,7.76-23.42
		C436.68,139.854,454.97,167.005,454.97,194.814z"/>
	<path style="fill:#EF5252;" d="M128.46,228.594l28.98,28.98h-28.29l-21.91-21.91c-3.9-3.9-3.9-10.24,0-14.14l21.91-21.91h28.29
		L128.46,228.594z"/>
	<path style="fill:#F9E17A;" d="M181.03,228.594l22.46,28.98h-25.3l-17.71-22.86c-2.8-3.6-2.8-8.64,0-12.25l17.71-22.85h25.3
		L181.03,228.594z"/>
	<path style="fill:#EF5252;" d="M347.73,235.664l-21.91,21.91h-28.28l28.98-28.98l-28.98-28.98h28.28l21.91,21.91
		C351.64,225.424,351.64,231.764,347.73,235.664z"/>
	<path style="fill:#F9E17A;" d="M294.5,234.715l-17.71,22.86h-25.3l22.45-28.98l-22.45-28.98h25.3l17.71,22.85
		C297.29,226.074,297.29,231.114,294.5,234.715z"/>
	<path style="fill:#F9E17A;" d="M73.32,177.724l-6.08,34.85c-0.66,3.78-3.44,6.85-7.13,7.9l-46.52,13.14
		c-4.46-5.58-7.78-11.65-10.01-17.95l45.04-12.73l8.26-47.32C61.07,163.954,66.66,171.424,73.32,177.724z"/>
	<path style="fill:#F9E17A;" d="M451.35,215.794c-2.25,6.3-5.58,12.36-10.06,17.93l-46.92-13.25c-3.7-1.05-6.47-4.12-7.14-7.9
		l-6.01-34.43c6.65-6.21,12.26-13.56,16.5-21.78l8.13,46.57L451.35,215.794z"/>
	<path style="fill:#66C5E2;" d="M387.892,322.026c-15.997,0-24.548-6.832-31.419-12.322c-6.322-5.051-11.315-9.041-22.056-9.041
		c-10.738,0-15.731,3.989-22.052,9.041c-6.871,5.49-15.42,12.322-31.416,12.322c-15.996,0-24.547-6.832-31.417-12.322
		c-6.321-5.051-11.314-9.041-22.053-9.041c-10.738,0-15.73,3.989-22.051,9.04c-6.871,5.49-15.42,12.322-31.416,12.322
		c-15.995,0-24.545-6.832-31.416-12.322c-6.32-5.051-11.313-9.041-22.051-9.041c-10.739,0-15.732,3.99-22.053,9.041
		c-6.87,5.49-15.42,12.322-31.416,12.322s-24.545-6.832-31.416-12.322c-6.321-5.051-11.313-9.041-22.052-9.041
		c-4.142,0-7.5-3.358-7.5-7.5s3.358-7.5,7.5-7.5c15.996,0,24.545,6.832,31.416,12.322c6.321,5.051,11.313,9.041,22.052,9.041
		c10.739,0,15.731-3.989,22.053-9.041c6.87-5.49,15.42-12.322,31.417-12.322c15.995,0,24.545,6.832,31.416,12.322
		c6.321,5.051,11.313,9.041,22.051,9.041s15.731-3.99,22.052-9.041c6.87-5.49,15.42-12.322,31.415-12.322
		c15.996,0,24.546,6.832,31.417,12.322c6.321,5.051,11.314,9.041,22.054,9.041c10.738,0,15.731-3.989,22.052-9.041
		c6.87-5.49,15.42-12.322,31.416-12.322c15.997,0,24.548,6.832,31.419,12.322c6.322,5.051,11.315,9.041,22.056,9.041
		s15.734-3.99,22.056-9.041c6.871-5.49,15.422-12.322,31.419-12.322c4.142,0,7.5,3.358,7.5,7.5s-3.358,7.5-7.5,7.5
		c-10.741,0-15.734,3.99-22.056,9.041C412.44,315.194,403.889,322.026,387.892,322.026z"/>
	<path style="fill:#EF5252;" d="M227.49,238.594c-2.63,0-5.21-1.07-7.07-2.93s-2.93-4.44-2.93-7.07s1.07-5.21,2.93-7.07
		c1.86-1.86,4.44-2.93,7.07-2.93c2.63,0,5.21,1.07,7.07,2.93c1.86,1.86,2.93,4.44,2.93,7.07s-1.07,5.21-2.93,7.07
		S230.12,238.594,227.49,238.594z"/>
	<g>
		<path style="fill:#EF5252;" d="M31.75,192.354c-2.63,0-5.21-1.07-7.07-2.93c-1.86-1.86-2.93-4.44-2.93-7.07
			c0-2.64,1.07-5.21,2.93-7.08c1.86-1.86,4.44-2.92,7.07-2.92s5.21,1.06,7.07,2.92c1.86,1.87,2.93,4.44,2.93,7.08
			c0,2.63-1.07,5.21-2.93,7.07C36.96,191.284,34.38,192.354,31.75,192.354z"/>
		<path style="fill:#EF5252;" d="M423.23,192.354c-2.63,0-5.21-1.07-7.07-2.93c-1.87-1.87-2.93-4.44-2.93-7.07
			c0-2.64,1.06-5.21,2.93-7.07c1.86-1.87,4.44-2.93,7.07-2.93s5.21,1.06,7.07,2.93c1.86,1.86,2.93,4.43,2.93,7.07
			c0,2.63-1.07,5.21-2.93,7.07C428.44,191.284,425.86,192.354,423.23,192.354z"/>
	</g>
</g>
</svg>