<?xml version="1.0" encoding="iso-8859-1"?>
<!-- Uploaded to: SVG Repo, www.svgrepo.com, Generator: SVG Repo Mixer Tools -->
<!DOCTYPE svg PUBLIC "-//W3C//DTD SVG 1.1//EN" "http://www.w3.org/Graphics/SVG/1.1/DTD/svg11.dtd">
<svg height="800px" width="800px" version="1.1" id="Capa_1" xmlns="http://www.w3.org/2000/svg" xmlns:xlink="http://www.w3.org/1999/xlink" 
	 viewBox="0 0 434.785 434.785" xml:space="preserve">
<g>
	<path style="fill:#F99C38;" d="M116.887,76.96c-9.858,0-19.717-3.752-27.223-11.257c-15.01-15.011-15.01-39.435,0-54.445
		c15.011-15.01,39.434-15.011,54.446,0v0c15.01,15.01,15.01,39.435,0,54.445C136.604,73.208,126.746,76.96,116.887,76.96z
		 M116.887,19.99c-4.737,0-9.475,1.803-13.081,5.41c-7.213,7.212-7.213,18.948,0,26.161c7.212,7.212,18.949,7.212,26.161,0
		c7.213-7.212,7.213-18.948,0-26.161C126.361,21.793,121.624,19.99,116.887,19.99z"/>
	<path style="fill:#F9E17A;" d="M271.189,82.398c41.252,37.466,71.505,99.669,81.857,151.082
		c18.304,91.019-40.619,179.655-131.638,197.976c-11.894,2.39-23.741,3.461-35.394,3.316c-10.296-0.128-15.61-12.468-8.423-19.842
		c31.763-32.59,47.429-79.782,37.762-127.768c-7.389-36.652-34.062-66.91-54.012-94.917L271.189,82.398z"/>
	<path style="fill:#FFFFFF;" d="M282.256,149.687c-3.202,0-6.347-1.534-8.281-4.383c-3.583-5.276-7.328-10.325-11.13-15.006
		c-3.482-4.287-2.83-10.585,1.457-14.067c4.286-3.481,10.584-2.831,14.066,1.458c4.161,5.122,8.249,10.633,12.151,16.379
		c3.103,4.569,1.914,10.788-2.654,13.891C286.144,149.127,284.189,149.687,282.256,149.687z"/>
	<path style="fill:#FFFFFF;" d="M327.116,285.057c-0.205,0-0.411-0.006-0.618-0.019c-5.512-0.336-9.709-5.077-9.373-10.589
		c0.676-11.092-0.103-22.289-2.313-33.279c-4.461-22.159-13.417-46.87-25.219-69.58c-2.547-4.9-0.639-10.938,4.262-13.485
		c4.903-2.547,10.938-0.638,13.484,4.262c12.642,24.326,22.259,50.911,27.08,74.857c2.552,12.689,3.45,25.622,2.669,38.44
		C336.764,280.97,332.361,285.057,327.116,285.057z"/>
	<path style="fill:#EF5252;" d="M218.663,16.584l-123.68,123.67l-10.069-10.069c-5.363-5.363-5.363-14.059,0-19.422L189.162,6.506
		c5.363-5.364,14.06-5.364,19.423,0L218.663,16.584z"/>
	<path style="fill:#EF5252;" d="M268.121,85.465L163.864,189.713c-5.363,5.363-14.059,5.363-19.422,0l-37.549-37.549l55.97,14.74
		l-14.74-55.97l55.97,14.75l-14.74-55.97l55.96,14.74l-14.74-55.96l37.548,37.548C273.485,71.406,273.485,80.102,268.121,85.465z"/>
	<polygon style="fill:#F99C38;" points="230.573,28.494 245.313,84.454 189.353,69.714 204.093,125.684 148.123,110.934 
		162.863,166.904 106.893,152.164 94.983,140.254 218.663,16.584 	"/>
</g>
</svg>