<?xml version="1.0" encoding="iso-8859-1"?>
<!-- Uploaded to: SVG Repo, www.svgrepo.com, Generator: SVG Repo Mixer Tools -->
<!DOCTYPE svg PUBLIC "-//W3C//DTD SVG 1.1//EN" "http://www.w3.org/Graphics/SVG/1.1/DTD/svg11.dtd">
<svg height="800px" width="800px" version="1.1" id="Capa_1" xmlns="http://www.w3.org/2000/svg" xmlns:xlink="http://www.w3.org/1999/xlink" 
	 viewBox="0 0 436.014 436.014" xml:space="preserve">
<g>
	<polygon style="fill:#666666;" points="166.112,272.432 191.782,246.762 165.807,220.787 140.137,246.457 109.578,215.897 
		86.353,239.122 173.446,326.215 196.671,302.991 	"/>
	<path style="fill:#D17519;" d="M109.719,262.488l-7.5,7.5l-59.87,59.86c-0.95,0.95-1.87,1.93-2.75,2.93
		c-3.96,4.47-7.19,9.36-9.69,14.51c-4.31,8.88-6.46,18.55-6.46,28.2c0,16.52,6.3,33.05,18.9,45.65
		c6.06,6.05,13.18,10.78,20.95,13.99c0.117,0.048,0.233,0.096,0.35,0.144c8.046,3.274,15.865-4.877,12.624-12.937
		c-4.007-9.963-4.871-20.895-2.594-31.277c1.16-5.3,3.14-10.45,5.94-15.27c2.26-3.88,5.05-7.54,8.38-10.87l17.14-17.14l12.08-12.08
		l32.86-32.85l-32.86-32.86L109.719,262.488z"/>
	<path style="fill:#F9E17A;" d="M109.714,262.483l-7.5,7.5v62.79h-62.62c-3.96,4.47-7.19,9.36-9.69,14.51l43.77,43.77
		c1.16-5.3,3.14-10.45,5.94-15.27l-28.01-28.01h53.53l12.08-12.08v-65.71L109.714,262.483z"/>
	<g id="XMLID_12_">
		<g>
			<path style="fill:#666666;" d="M412.314,0.25l-239.88,239.89l-43.55-43.55C261.474,64,412.314,0.25,412.314,0.25z"/>
			<path style="fill:#999999;" d="M172.434,240.14L412.314,0.25c0,0-63.74,150.84-196.34,283.43L172.434,240.14z"/>
		</g>
		<g>
		</g>
	</g>
</g>
</svg>