<?xml version="1.0" encoding="iso-8859-1"?>
<!-- Uploaded to: SVG Repo, www.svgrepo.com, Generator: SVG Repo Mixer Tools -->
<!DOCTYPE svg PUBLIC "-//W3C//DTD SVG 1.1//EN" "http://www.w3.org/Graphics/SVG/1.1/DTD/svg11.dtd">
<svg version="1.1" id="Capa_1" xmlns="http://www.w3.org/2000/svg" xmlns:xlink="http://www.w3.org/1999/xlink" 
	 viewBox="0 0 456.748 456.748" xml:space="preserve">
<g>
	<path style="fill:#EF5252;" d="M391.864,192.491v48h-15.321c-7.179,0-12.999,5.82-12.999,12.999v23.341H93.204V253.49
		c0-7.179-5.82-12.999-12.999-12.999H64.884v-48H391.864z"/>
	<rect x="93.202" y="392.038" style="fill:#D17519;" width="270.34" height="31.498"/>
	<path style="fill:#F9E17A;" d="M370.674,192.491h-14.26l-19.92,31.07l-19.91-31.07h-14.26l-19.89,31.04l-19.89-31.04h-14.26
		l-19.91,31.07l-19.92-31.07h-14.26l-19.88,31.02l-19.89-31.02h-14.26l-19.92,31.07l-19.91-31.07h-14.26l-21.19,33.07v14.93h4.72
		l23.6-36.88l19.92,31.07l-19.92,31.06v11.09h7.44l19.69-30.9l19.8,30.9h14.26l19.92-31.07l19.91,31.07h14.26l19.89-31.03
		l19.89,31.03h14.26l19.91-31.07l19.91,31.07h14.26l19.84-30.95l19.77,30.95h7.33v-11.09l-19.92-31.06l19.92-31.07l23.68,36.88h4.64
		v-14.93L370.674,192.491z M147.264,265.712l-19.83-30.94l19.86-31.17l19.89,31.03L147.264,265.712z M201.354,265.712l-19.92-31.08
		l19.89-31.02l19.92,31.07L201.354,265.712z M255.394,265.712l-19.89-31.03l19.91-31.07l19.89,31.03L255.394,265.712z
		 M309.474,265.712l-19.91-31.07l19.89-31.03l19.88,31.13L309.474,265.712z"/>
	<polygon style="fill:#51B7CE;" points="363.544,276.832 363.544,317.282 93.204,317.282 93.204,276.832 93.224,276.832 
		147.264,276.832 201.354,276.832 255.394,276.832 309.474,276.832 363.524,276.832 	"/>
	<path style="fill:#51B7CE;" d="M391.864,161.127v31.364H64.884v-31.364c0-5.012,4.063-9.076,9.076-9.076h308.828
		C387.801,152.052,391.864,156.115,391.864,161.127z"/>
	<path style="fill:#F99C38;" d="M421.864,249.442v190.76c0,4.943-4.007,8.95-8.95,8.95h-40.42c-4.943,0-8.95-4.007-8.95-8.95
		v-122.92v-40.45v-27.39c0-4.943,4.007-8.95,8.95-8.95h19.37h21.05C417.857,240.492,421.864,244.499,421.864,249.442z"/>
	<path style="fill:#F99C38;" d="M93.204,317.282v122.92c0,4.943-4.007,8.95-8.95,8.95h-40.42c-4.943,0-8.95-4.007-8.95-8.95v-190.76
		c0-4.943,4.007-8.95,8.95-8.95h21.05h19.37c4.943,0,8.95,4.007,8.95,8.95v27.39V317.282z"/>
	<g>
		<path style="fill:#EF5252;" d="M167.857,80.121l-11.477-5.348c1.228-4.599-0.969-9.553-5.432-11.633
			c-4.467-2.08-9.67-0.574-12.401,3.323L14.226,8.534C9.22,6.203,3.271,8.37,0.938,13.375c-2.332,5.006-0.165,10.955,4.841,13.288
			L130.1,84.593c-1.227,4.598,0.969,9.552,5.433,11.632c1.367,0.637,2.803,0.938,4.217,0.938c3.205,0,6.282-1.56,8.177-4.263
			l11.483,5.351c1.366,0.637,2.803,0.938,4.217,0.938c3.768,0,7.375-2.139,9.071-5.779C175.03,88.404,172.863,82.454,167.857,80.121
			z"/>
		<path style="fill:#EF5252;" d="M455.81,13.375c-2.333-5.005-8.28-7.174-13.288-4.841L318.2,66.464
			c-2.731-3.897-7.937-5.403-12.401-3.323c-4.464,2.08-6.66,7.035-5.433,11.633l-11.477,5.348
			c-5.006,2.333-7.173,8.282-4.841,13.288c1.696,3.64,5.304,5.779,9.071,5.779c1.414,0,2.851-0.302,4.217-0.938L308.82,92.9
			c1.896,2.704,4.973,4.263,8.178,4.263c1.413,0,2.851-0.302,4.217-0.938c4.463-2.08,6.66-7.034,5.433-11.632l124.321-57.929
			C455.975,24.33,458.142,18.381,455.81,13.375z"/>
	</g>
	<g>
		<g>
			<path style="fill:#D17519;" d="M64.044,279.322c-2.11,0-4.17-0.85-5.66-2.34c-1.49-1.49-2.34-3.55-2.34-5.66
				c0-2.1,0.85-4.16,2.34-5.65c1.49-1.49,3.55-2.34,5.66-2.34c2.1,0,4.16,0.85,5.649,2.34c1.49,1.49,2.351,3.55,2.351,5.65
				c0,2.11-0.86,4.17-2.351,5.66C68.214,278.471,66.144,279.322,64.044,279.322z"/>
			<path style="fill:#D17519;" d="M392.704,279.322c-2.11,0-4.17-0.85-5.66-2.34c-1.49-1.49-2.34-3.55-2.34-5.66
				c0-2.1,0.85-4.17,2.34-5.65c1.49-1.49,3.55-2.35,5.66-2.35c2.1,0,4.159,0.86,5.649,2.35c1.49,1.48,2.351,3.55,2.351,5.65
				c0,2.11-0.86,4.17-2.351,5.66C396.864,278.471,394.804,279.322,392.704,279.322z"/>
		</g>
		<g>
			<path style="fill:#D17519;" d="M64.044,426.322c-2.11,0-4.17-0.86-5.66-2.35c-1.49-1.48-2.34-3.55-2.34-5.65
				c0-2.11,0.85-4.17,2.34-5.66c1.49-1.49,3.55-2.34,5.66-2.34c2.1,0,4.16,0.85,5.649,2.34c1.49,1.49,2.351,3.55,2.351,5.66
				c0,2.1-0.86,4.16-2.351,5.65C68.204,425.462,66.144,426.322,64.044,426.322z"/>
			<path style="fill:#D17519;" d="M392.704,426.322c-2.11,0-4.17-0.86-5.66-2.35c-1.49-1.48-2.34-3.55-2.34-5.65
				c0-2.11,0.85-4.17,2.34-5.66c1.49-1.49,3.55-2.34,5.66-2.34c2.1,0,4.159,0.85,5.649,2.34c1.49,1.49,2.351,3.55,2.351,5.66
				c0,2.1-0.86,4.17-2.351,5.65C396.864,425.462,394.804,426.322,392.704,426.322z"/>
		</g>
	</g>
	<path style="fill:#66C5E2;" d="M391.864,171.108v-9.98c0-5.013-4.063-9.076-9.076-9.076H73.96c-5.013,0-9.076,4.063-9.076,9.076
		v9.98H391.864z"/>
	<circle style="fill:#F99C38;" cx="185.387" cy="99.322" r="29.2"/>
	<circle style="fill:#F99C38;" cx="271.36" cy="99.322" r="29.2"/>
</g>
</svg>