<?xml version="1.0" encoding="iso-8859-1"?>
<!-- Uploaded to: SVG Repo, www.svgrepo.com, Generator: SVG Repo Mixer Tools -->
<!DOCTYPE svg PUBLIC "-//W3C//DTD SVG 1.1//EN" "http://www.w3.org/Graphics/SVG/1.1/DTD/svg11.dtd">
<svg height="800px" width="800px" version="1.1" id="Capa_1" xmlns="http://www.w3.org/2000/svg" xmlns:xlink="http://www.w3.org/1999/xlink" 
	 viewBox="0 0 465.132 465.132" xml:space="preserve">
<g>
	<path style="fill:#D17519;" d="M85.001,250.26l21.84,57.69l-51.19-34.42c-19.19-12.91-33.85-30.97-42.62-51.68l24.8,0.29
		l5.76-25.74C62.151,209.69,76.691,228.31,85.001,250.26z"/>
	<path style="fill:#D14242;" d="M43.591,196.4l-5.76,25.74l-24.8-0.29c-5.82-13.72-9.05-28.61-9.29-43.93
		C18.271,181.57,31.751,187.9,43.591,196.4z"/>
	<path style="fill:#F99C38;" d="M43.661,196.45c18.52,13.29,33.04,31.89,41.34,53.81l21.84,57.69l-68.92-85.81L43.661,196.45z"/>
	<path style="fill:#D14242;" d="M461.391,177.92c-0.25,15.33-3.48,30.23-9.31,43.96l-0.07-0.03l-24.8,0.29l-5.74-25.69
		C433.331,187.92,446.831,181.57,461.391,177.92z"/>
	<path style="fill:#D17519;" d="M452.011,221.85l0.07,0.03c-8.76,20.7-23.42,38.75-42.6,51.65l-51.19,34.42l21.84-57.69
		c8.3-21.92,22.82-40.52,41.34-53.81l5.74,25.69L452.011,221.85z"/>
	<path style="fill:#F99C38;" d="M421.471,196.45c-18.52,13.29-33.04,31.89-41.34,53.81l-21.84,57.69l68.92-85.81L421.471,196.45z"/>
	<path style="fill:#F99C38;" d="M415.991,71.83c4.87,20.57,4.72,41.66-0.04,61.63l-0.09-0.02l-26.15,0.21l-13.83-28.74
		C386.801,91.54,400.371,80.25,415.991,71.83z"/>
	<path style="fill:#EF5252;" d="M415.861,133.44l0.09,0.02c-5.07,21.37-15.41,41.47-30.5,58.3l-46.85,52.25l7.98-69.72
		c2.95-25.82,13.31-49.81,29.3-69.38l13.83,28.74L415.861,133.44z"/>
	<path style="fill:#D14242;" d="M375.881,104.91c-15.99,19.57-26.35,43.56-29.3,69.38l-7.98,69.72l51.11-110.36L375.881,104.91z"/>
	<path style="fill:#D14242;" d="M334.031,16.32c7.35,17.49,10.78,36.07,10.4,54.5l-26.71,11.83l-15.56-30.85
		C310.461,38.33,321.191,26.28,334.031,16.32z"/>
	<path style="fill:#51B7CE;" d="M317.721,82.65l26.71-11.83c-0.5,24.08-7.5,47.91-20.76,68.83l-37.59,59.25l-3.62-70.08
		c-1.42-27.45,5.66-54.25,19.7-77.02L317.721,82.65z"/>
	<path style="fill:#66C5E2;" d="M302.161,51.8c-14.04,22.77-21.12,49.57-19.7,77.02l3.62,70.08l31.64-116.25L302.161,51.8z"/>
	<path style="fill:#E0C553;" d="M254.581,43.08c7.59,25.4,7.56,52.87-0.71,78.84l-21.3,66.86l-21.31-66.86
		c-8.27-25.97-8.3-53.44-0.71-78.85l22.02,22.02L254.581,43.08z"/>
	<path style="fill:#51B7CE;" d="M254.581,43.08l-22.01,22.01l-22.02-22.02c4.6-15.37,11.98-29.99,22.02-43.07
		C242.601,13.08,249.991,27.7,254.581,43.08z"/>
	<path style="fill:#51B7CE;" d="M162.931,51.73c14.07,22.79,21.16,49.61,19.74,77.09l-3.62,70.08l-37.59-59.25
		c-13.26-20.91-20.26-44.73-20.76-68.79l26.62,11.79l15.6-30.92H162.931z"/>
	<path style="fill:#D14242;" d="M162.931,51.73h-0.01l-15.6,30.92l-26.62-11.79c-0.39-18.45,3.05-37.03,10.4-54.54
		C143.921,26.26,154.641,38.29,162.931,51.73z"/>
	<path style="fill:#EF5252;" d="M118.551,174.29l7.98,69.72l-46.84-52.25c-15.1-16.84-25.44-36.95-30.51-58.32h0.01l26.14,0.21
		l13.86-28.81C105.221,124.42,115.591,148.44,118.551,174.29z"/>
	<path style="fill:#F99C38;" d="M89.191,104.84l-13.86,28.81l-26.14-0.21h-0.01c-4.75-19.97-4.9-41.05-0.04-61.61
		C64.751,80.23,78.281,91.5,89.191,104.84z"/>
	<path style="fill:#F9E17A;" d="M232.571,65.09v123.69l-21.31-66.86c-8.27-25.97-8.3-53.44-0.71-78.85L232.571,65.09z"/>
	<path style="fill:#D14242;" d="M89.251,104.91c15.99,19.57,26.35,43.56,29.3,69.38l7.98,69.72l-51.11-110.36L89.251,104.91z"/>
	<path style="fill:#66C5E2;" d="M162.971,51.8c14.04,22.77,21.12,49.57,19.7,77.02l-3.62,70.08l-31.64-116.25L162.971,51.8z"/>
	<path style="fill:#666666;" d="M106.674,317.456c0-61.715,56.364-111.745,125.892-111.745s125.892,50.03,125.892,111.745
		c0,5.668-0.48,11.236-1.397,16.678c10.021-17.137,15.689-36.601,15.689-57.242c0-68.722-62.763-124.432-140.185-124.432
		S92.382,208.17,92.382,276.892c0,20.641,5.668,40.105,15.689,57.242C107.154,328.692,106.674,323.124,106.674,317.456z"/>
	<path style="fill:#F9E17A;" d="M118.771,341.142c0-62.848,50.948-113.795,113.795-113.795s113.795,50.948,113.795,113.795
		c0,5.772-0.433,11.443-1.263,16.984c9.058-17.451,14.182-37.272,14.182-58.292c0-69.982-56.732-126.714-126.714-126.714
		s-126.714,56.732-126.714,126.714c0,21.02,5.124,40.841,14.182,58.292C119.205,352.585,118.771,346.914,118.771,341.142z"/>
	<path style="fill:#D17519;" d="M314.529,269.215c-3.564,0-6.593-2.699-6.958-6.292l-5.288-52.035l-35.662,26.092
		c-1.653,1.209-3.75,1.633-5.744,1.163c-1.992-0.471-3.679-1.791-4.615-3.612l-23.695-46.099l-23.695,46.099
		c-0.936,1.821-2.623,3.141-4.615,3.612c-1.993,0.472-4.092,0.046-5.744-1.163l-35.662-26.092l-5.288,52.035
		c-0.38,3.74-3.65,6.51-7.4,6.279l-38.294-2.388l0.871-13.973l31.575,1.969l5.843-57.495c0.254-2.497,1.825-4.667,4.117-5.687
		c2.293-1.021,4.957-0.736,6.981,0.745l38.911,28.469l26.175-50.923c1.199-2.333,3.602-3.8,6.226-3.8s5.026,1.467,6.226,3.8
		l26.175,50.923l38.911-28.469c2.025-1.482,4.689-1.767,6.981-0.745c2.292,1.021,3.863,3.19,4.117,5.687l5.843,57.495l31.575-1.969
		l0.871,13.973l-38.294,2.388C314.822,269.211,314.675,269.215,314.529,269.215z"/>
	<path style="fill:#EF5252;" d="M120.034,366.627c-3.102,0-6.05-1.706-7.545-4.585c-9.902-19.079-15.137-40.59-15.137-62.208
		c0-74.558,60.657-135.214,135.214-135.214c74.558,0,135.214,60.657,135.214,135.214c0,21.618-5.234,43.129-15.137,62.208
		c-1.915,3.688-6.213,5.453-10.167,4.169c-3.952-1.282-6.398-5.234-5.783-9.344c0.776-5.181,1.169-10.472,1.169-15.725
		c0-58.06-47.235-105.295-105.295-105.295s-105.295,47.235-105.295,105.295c0,5.25,0.394,10.542,1.169,15.726
		c0.615,4.109-1.831,8.061-5.784,9.343C121.79,366.493,120.906,366.627,120.034,366.627z M232.567,218.847
		c56.169,0,103.616,38.065,117.9,89.752c0.209-2.9,0.314-5.822,0.314-8.765c0-65.184-53.031-118.214-118.214-118.214
		S114.353,234.65,114.353,299.834c0,2.943,0.104,5.864,0.314,8.764C128.951,256.911,176.398,218.847,232.567,218.847z"/>
	<g>
		<path style="fill:#66C5E2;" d="M119.322,465.132L119.322,465.132c32.248-32.248,32.248-84.533,0-116.782l0,0l0,0
			C87.074,380.599,87.074,432.884,119.322,465.132L119.322,465.132z"/>
		<path style="fill:#51B7CE;" d="M119.322,465.132V348.351C87.074,380.599,87.074,432.884,119.322,465.132z"/>
	</g>
	<path style="fill:#F9E17A;" d="M345.811,465.132L345.811,465.132c32.248-32.248,32.248-84.533,0-116.782l0,0l0,0
		C313.563,380.599,313.563,432.884,345.811,465.132L345.811,465.132z"/>
	<path style="fill:#E0C553;" d="M345.811,465.132V348.351C313.563,380.599,313.563,432.884,345.811,465.132z"/>
</g>
</svg>