<?xml version="1.0" encoding="iso-8859-1"?>
<!-- Uploaded to: SVG Repo, www.svgrepo.com, Generator: SVG Repo Mixer Tools -->
<!DOCTYPE svg PUBLIC "-//W3C//DTD SVG 1.1//EN" "http://www.w3.org/Graphics/SVG/1.1/DTD/svg11.dtd">
<svg version="1.1" id="Capa_1" xmlns="http://www.w3.org/2000/svg" xmlns:xlink="http://www.w3.org/1999/xlink" 
	 viewBox="0 0 452.98 452.98" xml:space="preserve">
<g>
	<path style="fill:#F99C38;" d="M312.17,45.88c12.54,18.79,19.04,41.86,16.83,66.31l-1.87,20.69c-3.1-0.41-6.28-0.63-9.5-0.63
		c-39.17,0-70.93,31.76-70.93,70.93v-17.19v-29.25v-29.25V95.07c28.36-5.99,52.15-24.36,65.46-49.18L312.17,45.88z"/>
	<path style="fill:#EF5252;" d="M327.13,132.88l-5.47,60.5l-0.9,9.96l-0.9,10l-5.48,60.69h-0.01c-37.66-1.7-67.67-32.77-67.67-70.85
		c0-39.17,31.76-70.93,70.93-70.93C320.85,132.25,324.03,132.47,327.13,132.88z"/>
	<path style="fill:#F99C38;" d="M314.38,274.03l-9.72,107.52c-1.43,15.79-7.47,30.15-16.73,41.77
		c-11.03-22.82-34.39-38.56-61.44-38.56s-50.41,15.74-61.44,38.56c-9.26-11.62-15.3-25.98-16.73-41.77l-9.72-107.52h0.01
		c37.66-1.7,67.67-32.77,67.67-70.85v12.06v29.25v7.86c0,11.17,9.05,20.21,20.21,20.21c11.16,0,20.21-9.04,20.21-20.21v-7.86v-29.25
		v-12.06c0,38.08,30.01,69.15,67.67,70.85H314.38z M288.94,329.62c0-17.03-13.81-30.84-30.84-30.84h-63.22
		c-8.51,0-16.23,3.45-21.81,9.03c-5.58,5.58-9.03,13.3-9.03,21.81c0,17.03,13.81,30.84,30.84,30.84h63.22
		c8.51,0,16.23-3.45,21.81-9.03C285.49,345.85,288.94,338.13,288.94,329.62z"/>
	<path style="fill:#51B7CE;" d="M312.17,45.88l-0.01,0.01c-13.31,24.82-37.1,43.19-65.46,49.18c-6.52,1.38-13.28,2.11-20.21,2.11
		c-6.93,0-13.69-0.73-20.21-2.11c-28.36-5.99-52.15-24.36-65.46-49.18l-0.01-0.01c12.72-19.06,31.65-33.72,54.03-40.93l31.65,54.83
		l31.65-54.83C280.52,12.16,299.45,26.82,312.17,45.88z"/>
	<path style="fill:#51B7CE;" d="M287.93,423.32c-2.59,3.26-5.43,6.31-8.5,9.11c-4.56,4.17-9.61,7.8-15.05,10.8
		c-4.33-16.89-19.64-29.38-37.89-29.38s-33.56,12.49-37.89,29.38c-9.1-5.02-17.11-11.8-23.55-19.91
		c11.03-22.82,34.39-38.56,61.44-38.56S276.9,400.5,287.93,423.32z"/>
	<path style="fill:#F9E17A;" d="M258.1,298.78c17.03,0,30.84,13.81,30.84,30.84c0,8.51-3.45,16.23-9.03,21.81
		c-5.58,5.58-13.3,9.03-21.81,9.03h-63.22c-17.03,0-30.84-13.81-30.84-30.84c0-8.51,3.45-16.23,9.03-21.81
		c5.58-5.58,13.3-9.03,21.81-9.03H258.1z"/>
	<path style="fill:#F99C38;" d="M258.14,4.95l-31.65,54.83L194.84,4.95C204.79,1.74,215.42,0,226.49,0
		C237.56,0,248.19,1.74,258.14,4.95z"/>
	<path style="fill:#F9E17A;" d="M226.49,413.85c18.25,0,33.56,12.49,37.89,29.38c-11.27,6.22-24.2,9.75-37.89,9.75
		c-13.69,0-26.62-3.53-37.89-9.75C192.93,426.34,208.24,413.85,226.49,413.85z"/>
	<path style="fill:#F9E17A;" d="M246.7,244.49v7.86c0,11.17-9.05,20.21-20.21,20.21c-11.16,0-20.21-9.04-20.21-20.21v-7.86H246.7z"
		/>
	<rect x="206.28" y="215.24" style="fill:#EF5252;" width="40.42" height="29.25"/>
	<polygon style="fill:#F9E17A;" points="246.7,203.18 246.7,215.24 206.28,215.24 206.28,203.18 206.28,185.99 246.7,185.99 	"/>
	<rect x="206.28" y="156.74" style="fill:#EF5252;" width="40.42" height="29.25"/>
	<rect x="206.28" y="127.49" style="fill:#F9E17A;" width="40.42" height="29.25"/>
	<path style="fill:#EF5252;" d="M246.7,95.07v32.42h-40.42V95.07c6.52,1.38,13.28,2.11,20.21,2.11
		C233.42,97.18,240.18,96.45,246.7,95.07z"/>
	<path style="fill:#F99C38;" d="M206.28,185.99v17.19c0-39.17-31.76-70.93-70.93-70.93c-3.22,0-6.4,0.22-9.5,0.63l-1.87-20.69
		c-2.21-24.45,4.29-47.52,16.83-66.31l0.01,0.01c13.31,24.82,37.1,43.19,65.46,49.18v32.42v29.25V185.99z"/>
	<path style="fill:#EF5252;" d="M206.28,203.18c0,38.08-30.01,69.15-67.67,70.85h-0.01l-5.48-60.69l-0.9-10l-0.9-9.96l-5.47-60.5
		c3.1-0.41,6.28-0.63,9.5-0.63C174.52,132.25,206.28,164.01,206.28,203.18z"/>
	<path style="fill:#F9E17A;" d="M185.64,203.34c0,5.52-4.48,10-10,10h-42.52l-0.9-10l-0.9-9.96c0.29-0.03,0.6-0.04,0.9-0.04h43.42
		C181.16,193.34,185.64,197.82,185.64,203.34z"/>
	<path style="fill:#F9E17A;" d="M321.66,193.38l-0.9,9.96l-0.9,10h-42.52c-5.52,0-10-4.48-10-10s4.48-10,10-10h43.42
		C321.06,193.34,321.37,193.35,321.66,193.38z"/>
	<path style="fill:#EF5252;" d="M258.1,339.62H194.88c-5.522,0-10-4.477-10-10s4.478-10,10-10H258.1c5.522,0,10,4.477,10,10
		S263.623,339.62,258.1,339.62z"/>
	<g>
		<path style="fill:#EF5252;" d="M183.32,57.45c-2.641,0-5.21-1.07-7.07-2.93c-1.87-1.86-2.93-4.44-2.93-7.07
			c0-2.64,1.06-5.21,2.93-7.08c1.86-1.86,4.43-2.92,7.07-2.92c2.63,0,5.21,1.06,7.069,2.92c1.86,1.87,2.931,4.45,2.931,7.08
			c0,2.63-1.07,5.21-2.931,7.07C188.53,56.38,185.95,57.45,183.32,57.45z"/>
		<path style="fill:#EF5252;" d="M269.66,57.45c-2.63,0-5.21-1.07-7.07-2.93c-1.859-1.86-2.93-4.44-2.93-7.07
			c0-2.64,1.07-5.22,2.93-7.07c1.86-1.87,4.44-2.93,7.07-2.93c2.64,0,5.22,1.06,7.07,2.93c1.869,1.86,2.939,4.43,2.939,7.07
			c0,2.63-1.07,5.21-2.939,7.07C274.88,56.38,272.3,57.45,269.66,57.45z"/>
	</g>
	<g>
		<path style="fill:#F9E17A;" d="M299.73,112.55c-2.631,0-5.211-1.07-7.07-2.93c-1.86-1.86-2.93-4.44-2.93-7.08
			c0-2.63,1.069-5.21,2.93-7.07c1.859-1.86,4.439-2.93,7.07-2.93c2.63,0,5.21,1.07,7.069,2.93c1.86,1.86,2.931,4.44,2.931,7.07
			c0,2.64-1.07,5.22-2.931,7.08C304.94,111.48,302.36,112.55,299.73,112.55z"/>
		<path style="fill:#F9E17A;" d="M153.25,112.54c-2.64,0-5.21-1.06-7.07-2.92c-1.87-1.86-2.93-4.44-2.93-7.07
			c0-2.64,1.06-5.22,2.93-7.08c1.86-1.86,4.431-2.92,7.07-2.92c2.63,0,5.21,1.06,7.07,2.92c1.859,1.86,2.93,4.44,2.93,7.08
			c0,2.63-1.07,5.21-2.93,7.07C158.46,111.48,155.88,112.54,153.25,112.54z"/>
	</g>
</g>
</svg>