<?xml version="1.0" encoding="iso-8859-1"?>
<!-- Uploaded to: SVG Repo, www.svgrepo.com, Generator: SVG Repo Mixer Tools -->
<!DOCTYPE svg PUBLIC "-//W3C//DTD SVG 1.1//EN" "http://www.w3.org/Graphics/SVG/1.1/DTD/svg11.dtd">
<svg height="800px" width="800px" version="1.1" id="Capa_1" xmlns="http://www.w3.org/2000/svg" xmlns:xlink="http://www.w3.org/1999/xlink" 
	 viewBox="0 0 443 443" xml:space="preserve">
<g>
	<path style="fill:#51B7CE;" d="M358.358,0H144.76C89.321,0,44.219,45.103,44.219,100.541v24.355h15v-24.355
		C59.219,53.374,97.593,15,144.76,15h213.599c34.717,0,63.108,27.551,64.488,61.936c-15.6-22.806-41.817-37.804-71.474-37.804
		H192.168c-26.982,0-48.935,21.952-48.935,48.934h15c0-18.711,15.223-33.934,33.935-33.934h159.205
		c39.447,0,71.54,32.093,71.54,71.54v7.482C415.081,126.221,404.796,122,393.539,122H258.907c-24.468,0-44.374,19.906-44.374,44.374
		h15c0-16.197,13.177-29.374,29.374-29.374h134.632c16.197,0,29.374,13.177,29.374,29.374v61.346
		c0,36.096-29.366,65.462-65.462,65.462H70.864c-36.27,0-65.777,29.508-65.777,65.777s29.508,65.777,65.777,65.777h316.117v-15
		H70.864c-27.999,0-50.777-22.779-50.777-50.777s22.778-50.777,50.777-50.777h286.587c44.367,0,80.462-36.095,80.462-80.462V79.555
		C437.913,35.688,402.225,0,358.358,0z"/>
	<g>
		<path style="fill:#F99C38;" d="M322.922,443c-4.694,0-8.5-3.806-8.5-8.5v-34.528c0-4.694,3.806-8.5,8.5-8.5s8.5,3.806,8.5,8.5
			V434.5C331.422,439.194,327.616,443,322.922,443z"/>
		<path style="fill:#F99C38;" d="M302.486,443c-4.694,0-8.5-3.806-8.5-8.5v-34.528c0-4.694,3.806-8.5,8.5-8.5s8.5,3.806,8.5,8.5
			V434.5C310.986,439.194,307.181,443,302.486,443z"/>
		<path style="fill:#F99C38;" d="M282.051,443c-4.694,0-8.5-3.806-8.5-8.5v-34.528c0-4.694,3.806-8.5,8.5-8.5s8.5,3.806,8.5,8.5
			V434.5C290.551,439.194,286.745,443,282.051,443z"/>
	</g>
	<circle style="fill:#D17519;" cx="407.597" cy="417.236" r="21.716"/>
	<path style="fill:#D17519;" d="M246.552,175c8.91,7.18,14.61,18.18,14.61,30.51c0,21.61-17.52,39.13-39.13,39.13
		c-8.48,0-16.33-2.7-22.73-7.28c0,0,16.77-50.84,47.24-62.35L246.552,175z"/>
	<path style="fill:#F99C38;" d="M246.552,175l-0.01,0.01c-30.47,11.51-47.24,62.35-47.24,62.35c-9.93-7.09-16.4-18.72-16.4-31.85
		c0-21.62,17.52-39.14,39.13-39.14C231.322,166.37,239.842,169.6,246.552,175z"/>
	<path style="fill:#F99C38;" d="M180.572,101.89c5.8,6.82,9.29,15.66,9.29,25.31c0,21.61-17.52,39.13-39.13,39.13
		c-9.22,0-17.7-3.19-24.38-8.53C139.692,126.09,180.572,101.89,180.572,101.89z"/>
	<path style="fill:#D17519;" d="M150.732,88.07c11.96,0,22.66,5.37,29.84,13.82c0,0-40.88,24.2-54.22,55.91
		c-8.99-7.16-14.75-18.21-14.75-30.6C111.602,105.59,129.122,88.07,150.732,88.07z"/>
	<path style="fill:#D17519;" d="M51.722,124.9c21.61,0,39.13,17.52,39.13,39.13c0,13.66-7,25.69-17.61,32.69l-0.01-0.01
		c-3.79-38.78-54.39-53.89-54.39-53.89l-0.01-0.01C25.802,132.03,37.932,124.9,51.722,124.9z"/>
	<path style="fill:#F99C38;" d="M73.232,196.71l0.01,0.01c-6.17,4.07-13.57,6.44-21.52,6.44c-21.62,0-39.14-17.52-39.14-39.13
		c0-7.83,2.3-15.11,6.25-21.22l0.01,0.01C18.842,142.82,69.442,157.93,73.232,196.71z"/>
</g>
</svg>