<?xml version="1.0" encoding="iso-8859-1"?>
<!-- Uploaded to: SVG Repo, www.svgrepo.com, Generator: SVG Repo Mixer Tools -->
<!DOCTYPE svg PUBLIC "-//W3C//DTD SVG 1.1//EN" "http://www.w3.org/Graphics/SVG/1.1/DTD/svg11.dtd">
<svg version="1.1" id="Capa_1" xmlns="http://www.w3.org/2000/svg" xmlns:xlink="http://www.w3.org/1999/xlink" 
	 viewBox="0 0 466.752 466.752" xml:space="preserve">
<g>
	<path style="fill:#66C5E2;" d="M302.009,402.86L302.009,402.86c-28.116-28.116-28.116-73.702,0-101.818l0,0l0,0
		C330.125,329.158,330.125,374.744,302.009,402.86L302.009,402.86z"/>
	<path style="fill:#F9E17A;" d="M389.43,169.706L219.724,0l-2.309,1.427c-36.699,22.674-63.996,57.815-76.887,98.983l0,0
		l118.486,16.927c21.19,3.027,34.932,23.941,29.299,44.592v0l54.447,54.447L389.43,169.706z"/>
	<path style="fill:#F99C38;" d="M349.378,129.826l16.787-16.787c5.569-5.569,14.598-5.569,20.167,0l0,0
		c5.569,5.569,5.569,14.598,0,20.167l-16.787,16.787"/>
	<polyline style="fill:#CCB552;" points="376.504,182.632 412.566,218.694 392.399,238.861 356.337,202.798 	"/>
	<path style="fill:#F99C38;" d="M322.962,196.576l-266,266c-5.569,5.569-14.598,5.569-20.167,0l0,0
		c-5.569-5.569-5.569-14.598,0-20.167l266-266"/>
	
		<rect x="305.869" y="127.313" transform="matrix(0.7071 -0.7071 0.7071 0.7071 -17.9959 288.1832)" style="fill:#E0C75F;" width="66.001" height="77.004"/>
	
		<rect x="374.48" y="176.203" transform="matrix(0.7071 0.7071 -0.7071 0.7071 262.1115 -209.9434)" style="fill:#F9E17A;" width="20" height="70.443"/>
	
		<rect x="392.158" y="193.881" transform="matrix(0.7071 0.7071 -0.7071 0.7071 279.7893 -217.2657)" style="fill:#F9E17A;" width="20" height="70.444"/>
	<circle style="fill:#EF5252;" cx="302.009" cy="292.825" r="20.216"/>
	<path style="fill:#666666;" d="M309.009,272.61h-14v-49.295l-19.61-19.61l9.899-9.899l21.66,21.66
		c1.313,1.313,2.05,3.093,2.05,4.95V272.61z"/>
</g>
</svg>