<?xml version="1.0" encoding="iso-8859-1"?>
<!-- Uploaded to: SVG Repo, www.svgrepo.com, Generator: SVG Repo Mixer Tools -->
<!DOCTYPE svg PUBLIC "-//W3C//DTD SVG 1.1//EN" "http://www.w3.org/Graphics/SVG/1.1/DTD/svg11.dtd">
<svg version="1.1" id="Capa_1" xmlns="http://www.w3.org/2000/svg" xmlns:xlink="http://www.w3.org/1999/xlink" 
	 viewBox="0 0 456.222 456.222" xml:space="preserve">
<g>
	<path style="fill:#51B7CE;" d="M303.267,415.831h32.68c11.15,0,21.25,4.52,28.56,11.83c7.31,7.31,11.83,17.41,11.83,28.56h-105.03
		h-86.38H79.897c0-22.31,18.08-40.39,40.39-40.39h32.68"/>
	<path style="fill:#EF5252;" d="M303.265,343.382v80.88c0,2.85-0.37,5.62-1.08,8.25c-2.58-7.28-9.54-12.5-17.71-12.5
		c-10.37,0-18.79,8.41-18.79,18.78c0-10.37-8.41-18.78-18.78-18.78c-10.38,0-18.79,8.41-18.79,18.78c0-10.37-8.41-18.78-18.79-18.78
		s-18.79,8.41-18.79,18.78c0-10.37-8.41-18.78-18.78-18.78c-8.17,0-15.13,5.22-17.71,12.5c-0.71-2.63-1.08-5.4-1.08-8.25v-80.88
		c0-17.65,14.31-31.96,31.96-31.96h86.38C288.955,311.422,303.265,325.732,303.265,343.382z"/>
	<path style="fill:#F9E17A;" d="M284.475,420.012c-10.37,0-18.79,8.41-18.79,18.78c0-10.37-8.41-18.78-18.78-18.78
		c-10.38,0-18.79,8.41-18.79,18.78c0-10.37-8.41-18.78-18.79-18.78c-10.38,0-18.79,8.41-18.79,18.78c0-10.37-8.41-18.78-18.78-18.78
		c-8.17,0-15.13,5.22-17.71,12.5c3.63,13.65,16.08,23.71,30.88,23.71h5.61h37.58h37.57h5.62c14.8,0,27.25-10.06,30.88-23.71
		C299.605,425.232,292.645,420.012,284.475,420.012z"/>
	<path style="fill:#EF5252;" d="M455.275,176.392c-0.63,6.62-1.88,13.05-3.7,19.24H4.635c-1.81-6.19-3.06-12.62-3.69-19.23
		c-0.49-5.25,3.67-9.77,8.94-9.77h436.45C451.605,166.632,455.775,171.152,455.275,176.392z"/>
	<path style="fill:#F99C38;" d="M4.635,195.632h446.94c-4.9,16.75-13.96,31.73-25.97,43.75c-18.62,18.61-44.34,30.13-72.75,30.13
		h-49.59h-150.3h-49.59C56.635,269.512,17.165,238.332,4.635,195.632z"/>
	<path style="fill:#EF5252;" d="M303.265,99.832v34.84c0,13.04-7.81,24.26-19.02,29.23c-9.56-6.21-15.89-16.98-15.89-29.23
		c0-19.24,15.6-34.84,34.84-34.84C303.215,99.832,303.245,99.832,303.265,99.832z"/>
	<path style="fill:#F99C38;" d="M303.265,53.792v46.04c-0.02,0-0.05,0-0.07,0c-19.24,0-34.84,15.6-34.84,34.84
		c0,12.25,6.33,23.02,15.89,29.23c-3.95,1.75-8.33,2.73-12.94,2.73h-86.38c-4.61,0-8.99-0.98-12.94-2.73
		c9.56-6.21,15.89-16.98,15.89-29.23c0-19.24-15.6-34.84-34.84-34.84c-0.02,0-0.05,0-0.07,0v-46.04c0-17.65,14.31-31.96,31.96-31.96
		h86.38C288.955,21.832,303.265,36.142,303.265,53.792z"/>
	<path style="fill:#EF5252;" d="M187.875,134.672c0,12.25-6.33,23.02-15.89,29.23c-11.21-4.97-19.02-16.19-19.02-29.23v-34.84
		c0.02,0,0.05,0,0.07,0C172.275,99.832,187.875,115.432,187.875,134.672z"/>
	<path style="fill:#666666;" d="M228.117,42.499c-5.522,0-10-4.477-10-10V10c0-5.523,4.478-10,10-10s10,4.477,10,10v22.499
		C238.117,38.022,233.639,42.499,228.117,42.499z"/>
	<g id="XMLID_20_">
		<g>
			<polygon style="fill:#F9E17A;" points="255.005,125.457 228.115,137.007 201.235,125.457 			"/>
			<polygon style="fill:#EF5252;" points="255.005,125.457 201.235,125.457 228.115,98.577 			"/>
		</g>
		<g>
		</g>
	</g>
	<path style="fill:#F9E17A;" d="M420.815,195.632c-7.49,17.48-21.53,31.5-39.01,38.97c-6.27,2.68-12.98,4.52-20,5.37
		c-2.93,0.36-5.92,0.54-8.95,0.54h-249.48c-3.03,0-6.02-0.18-8.95-0.54c-7.02-0.85-13.73-2.69-20-5.37
		c-17.48-7.47-31.52-21.49-39.01-38.97H420.815z"/>
	<g>
		<circle style="fill:#F9E17A;" cx="259.037" cy="74.936" r="27.81"/>
		<circle style="fill:#FFFFFF;" cx="259.037" cy="74.936" r="16.319"/>
		<circle style="fill:#666666;" cx="259.037" cy="74.936" r="6.473"/>
	</g>
	<g>
		<circle style="fill:#F9E17A;" cx="197.196" cy="74.936" r="27.81"/>
		<circle style="fill:#FFFFFF;" cx="197.196" cy="74.936" r="16.319"/>
		<circle style="fill:#666666;" cx="197.196" cy="74.936" r="6.473"/>
	</g>
	<g>
		<g>
			<circle style="fill:#F9E17A;" cx="191.144" cy="349.845" r="15.421"/>
		</g>
		<g>
			<circle style="fill:#666666;" cx="191.144" cy="349.845" r="8.492"/>
		</g>
		<g>
			<circle style="fill:#F9E17A;" cx="265.089" cy="349.845" r="15.421"/>
		</g>
		<g>
			<circle style="fill:#666666;" cx="265.089" cy="349.845" r="8.492"/>
		</g>
	</g>
	<path style="fill:#F9E17A;" d="M279.585,167.722l-51.47,42.11l-51.47-42.11c2.64-0.71,5.42-1.09,8.28-1.09h86.38
		C274.165,166.632,276.945,167.012,279.585,167.722z"/>
	<g>
		<rect x="109.822" y="195.631" style="fill:#D14242;" width="20" height="44.88"/>
		<path style="fill:#D14242;" d="M94.425,195.632v44.34c-7.02-0.85-13.73-2.69-20-5.37v-38.97H94.425z"/>
		<path style="fill:#D14242;" d="M381.805,195.632v38.97c-6.27,2.68-12.98,4.52-20,5.37v-44.34H381.805z"/>
		<rect x="326.411" y="195.631" style="fill:#D14242;" width="20" height="44.88"/>
	</g>
	<path style="fill:#51B7CE;" d="M303.265,198.592v80.87c0,16.1-11.91,29.42-27.4,31.63v-69.87c0-9.39-7.61-17-17-17
		c-9.39,0-17,7.61-17,17v70.2h-27.5v-70.2c0-9.39-7.61-17-17-17s-17,7.61-17,17v69.87c-15.49-2.21-27.4-15.53-27.4-31.63v-80.87
		c0-14.79,10.04-27.23,23.68-30.87l51.47,42.11l51.47-42.11C293.225,171.362,303.265,183.802,303.265,198.592z"/>
	<path style="fill:#F9E17A;" d="M275.865,241.222v69.87c-1.49,0.22-3.01,0.33-4.56,0.33h-29.44v-70.2c0-9.39,7.61-17,17-17
		C268.255,224.222,275.865,231.832,275.865,241.222z"/>
	<path style="fill:#F9E17A;" d="M214.365,241.222v70.2h-29.44c-1.55,0-3.07-0.11-4.56-0.33v-69.87c0-9.39,7.61-17,17-17
		S214.365,231.832,214.365,241.222z"/>
	<g>
		<path style="fill:#D17519;" d="M177.115,208.832c-2.63,0-5.21-1.07-7.069-2.93c-1.86-1.86-2.931-4.44-2.931-7.07
			c0-2.63,1.07-5.21,2.931-7.07c1.859-1.86,4.439-2.93,7.069-2.93c2.631,0,5.211,1.07,7.07,2.93c1.86,1.86,2.93,4.44,2.93,7.07
			c0,2.63-1.069,5.21-2.93,7.07C182.326,207.762,179.746,208.832,177.115,208.832z"/>
		<path style="fill:#D17519;" d="M279.115,208.832c-2.63,0-5.21-1.07-7.069-2.93c-1.86-1.86-2.931-4.44-2.931-7.07
			c0-2.63,1.07-5.21,2.931-7.07c1.859-1.86,4.439-2.93,7.069-2.93c2.631,0,5.211,1.07,7.07,2.93c1.86,1.86,2.93,4.44,2.93,7.07
			c0,2.63-1.069,5.21-2.93,7.07C284.326,207.762,281.746,208.832,279.115,208.832z"/>
	</g>
	<path style="fill:#F99C38;" d="M281.617,399.631h-107c-5.522,0-10-4.477-10-10s4.478-10,10-10h107c5.522,0,10,4.477,10,10
		S287.139,399.631,281.617,399.631z"/>
	<g>
		<g>
			<path style="fill:#D14242;" d="M36.447,166.632v13.65c0,5.53-4.47,10-10,10c-5.52,0-10-4.47-10-10v-13.65H36.447z"/>
			<path style="fill:#D14242;" d="M64.117,166.632v13.65c0,5.53-4.48,10-10,10s-10-4.47-10-10v-13.65H64.117z"/>
			<path style="fill:#D14242;" d="M91.787,166.632v13.65c0,5.53-4.48,10-10,10c-5.53,0-10-4.47-10-10v-13.65H91.787z"/>
			<path style="fill:#D14242;" d="M119.447,166.632v13.65c0,5.53-4.47,10-10,10c-5.52,0-10-4.47-10-10v-13.65H119.447z"/>
			<path style="fill:#D14242;" d="M147.117,166.632v13.65c0,5.53-4.48,10-10,10s-10-4.47-10-10v-13.65H147.117z"/>
		</g>
		<g>
			<path style="fill:#D14242;" d="M329.114,166.632v13.65c0,5.53-4.47,10-10,10c-5.52,0-10-4.47-10-10v-13.65H329.114z"/>
			<path style="fill:#D14242;" d="M356.784,166.632v13.65c0,5.53-4.48,10-10,10s-10-4.47-10-10v-13.65H356.784z"/>
			<path style="fill:#D14242;" d="M384.454,166.632v13.65c0,5.53-4.48,10-10,10c-5.53,0-10-4.47-10-10v-13.65H384.454z"/>
			<path style="fill:#D14242;" d="M412.114,166.632v13.65c0,5.53-4.47,10-10,10c-5.52,0-10-4.47-10-10v-13.65H412.114z"/>
			<path style="fill:#D14242;" d="M439.784,166.632v13.65c0,5.53-4.48,10-10,10s-10-4.47-10-10v-13.65H439.784z"/>
		</g>
	</g>
</g>
</svg>