<?xml version="1.0" encoding="iso-8859-1"?>
<!-- Uploaded to: SVG Repo, www.svgrepo.com, Generator: SVG Repo Mixer Tools -->
<!DOCTYPE svg PUBLIC "-//W3C//DTD SVG 1.1//EN" "http://www.w3.org/Graphics/SVG/1.1/DTD/svg11.dtd">
<svg version="1.1" id="Capa_1" xmlns="http://www.w3.org/2000/svg" xmlns:xlink="http://www.w3.org/1999/xlink" 
	 viewBox="0 0 454.82 454.82" xml:space="preserve">
<g>
	<g>
		<path style="fill:#666666;" d="M254.571,9.335c-1.702,0-3.274,0.908-4.125,2.382l-23.031,39.892l-23.031-39.892
			c-0.851-1.474-2.423-2.382-4.125-2.382c-3.667,0-5.958,3.969-4.125,7.145l25.781,44.655l-12.452,21.567h11l6.952-12.041
			l6.952,12.041h11l-12.452-21.567l25.781-44.655C260.529,13.304,258.238,9.335,254.571,9.335z"/>
	</g>
	<polygon style="fill:#666666;" points="141.63,445.485 315.63,445.485 233.63,293.605 	"/>
	<polygon style="fill:#F9E17A;" points="431.67,405.385 454.82,445.485 302.19,445.485 279.04,405.385 279.05,405.385 	"/>
	<polygon style="fill:#EF5252;" points="367.13,293.605 431.67,405.385 279.05,405.385 279.04,405.385 227.41,315.955 
		175.78,405.385 23.16,405.385 23.15,405.385 87.69,293.605 	"/>
	<polygon style="fill:#F9E17A;" points="367.13,293.605 87.69,293.605 109.42,255.965 114.82,246.615 114.83,246.615 
		145.53,267.605 186.47,239.605 227.41,267.605 268.35,239.605 309.29,267.605 340,246.605 345.4,255.955 	"/>
	<polygon style="fill:#F9E17A;" points="340,246.605 309.29,267.605 268.35,239.605 227.41,267.605 186.47,239.605 145.53,267.605 
		114.83,246.615 114.82,246.615 119.45,238.595 133.88,213.605 320.94,213.605 335.37,238.585 	"/>
	<polygon style="fill:#EF5252;" points="245.37,82.705 320.94,213.605 133.88,213.605 186.88,121.805 227.41,51.605 	"/>
	<polygon style="fill:#F9E17A;" points="175.78,405.385 152.63,445.485 0,445.485 23.15,405.385 23.16,405.385 	"/>
	<path style="fill:#EF5252;" d="M345.4,255.955l-29.38,20.09c-3.4,2.33-7.89,2.33-11.29,0l-35.84-24.51l-35.84,24.51
		c-1.7,1.16-3.67,1.74-5.64,1.74c-1.98,0-3.95-0.58-5.65-1.74l-35.84-24.51l-35.84,24.51c-3.4,2.33-7.89,2.33-11.29,0l-29.37-20.08
		l5.4-9.35l4.63-8.02l24.98,17.08l35.84-24.51c3.41-2.33,7.89-2.33,11.3,0l35.84,24.51l35.84-24.51c3.4-2.33,7.88-2.33,11.29,0
		l35.84,24.51l24.99-17.09l4.63,8.02L345.4,255.955z"/>
	<g>
		<g>
			
				<line style="fill:none;stroke:#F9E17A;stroke-width:20;stroke-linecap:round;stroke-miterlimit:10;" x1="92.364" y1="340.736" x2="111.369" y2="359.741"/>
			
				<line style="fill:none;stroke:#F9E17A;stroke-width:20;stroke-linecap:round;stroke-miterlimit:10;" x1="111.369" y1="340.736" x2="92.364" y2="359.741"/>
		</g>
		<g>
			
				<line style="fill:none;stroke:#F9E17A;stroke-width:20;stroke-linecap:round;stroke-miterlimit:10;" x1="146.617" y1="340.736" x2="165.622" y2="359.741"/>
			
				<line style="fill:none;stroke:#F9E17A;stroke-width:20;stroke-linecap:round;stroke-miterlimit:10;" x1="165.622" y1="340.736" x2="146.617" y2="359.741"/>
		</g>
		<g>
			
				<line style="fill:none;stroke:#F9E17A;stroke-width:20;stroke-linecap:round;stroke-miterlimit:10;" x1="289.202" y1="340.736" x2="308.207" y2="359.741"/>
			
				<line style="fill:none;stroke:#F9E17A;stroke-width:20;stroke-linecap:round;stroke-miterlimit:10;" x1="308.207" y1="340.736" x2="289.202" y2="359.741"/>
		</g>
		<g>
			
				<line style="fill:none;stroke:#F9E17A;stroke-width:20;stroke-linecap:round;stroke-miterlimit:10;" x1="343.455" y1="340.736" x2="362.46" y2="359.741"/>
			
				<line style="fill:none;stroke:#F9E17A;stroke-width:20;stroke-linecap:round;stroke-miterlimit:10;" x1="362.46" y1="340.736" x2="343.455" y2="359.741"/>
		</g>
	</g>
	<polygon style="fill:#666666;" points="204.249,91.721 227.41,51.605 250.571,91.721 	"/>
</g>
</svg>