<?xml version="1.0" encoding="iso-8859-1"?>
<!-- Uploaded to: SVG Repo, www.svgrepo.com, Generator: SVG Repo Mixer Tools -->
<!DOCTYPE svg PUBLIC "-//W3C//DTD SVG 1.1//EN" "http://www.w3.org/Graphics/SVG/1.1/DTD/svg11.dtd">
<svg version="1.1" id="Capa_1" xmlns="http://www.w3.org/2000/svg" xmlns:xlink="http://www.w3.org/1999/xlink" 
	 viewBox="0 0 436 436" xml:space="preserve">
<g>
	<g>
		<polyline style="fill:#F99C38;" points="331.06,96 331.06,372 331.06,399 376.28,399 376.28,96 		"/>
		<polyline style="fill:#F99C38;" points="376.28,48 376.28,10 331.06,10 331.06,48 		"/>
		<polyline style="fill:#F99C38;" points="285.83,48 285.83,10 331.06,10 331.06,48 331.06,96 331.06,372 285.83,372 285.83,345 
			285.83,96 		"/>
		<polyline style="fill:#F99C38;" points="240.61,48 240.61,10 285.83,10 285.83,48 285.83,96 285.83,345 240.61,345 240.61,318 
			240.61,96 		"/>
		<polyline style="fill:#F99C38;" points="195.39,48 195.39,10 240.61,10 240.61,48 240.61,96 240.61,318 195.39,318 195.39,291 
			195.39,96 		"/>
		<polyline style="fill:#F99C38;" points="150.17,48 150.17,10 195.39,10 195.39,48 195.39,96 195.39,291 150.17,291 150.17,264 
			150.17,96 		"/>
		<polyline style="fill:#F99C38;" points="104.94,48 104.94,10 150.17,10 150.17,48 150.17,96 150.17,264 104.94,264 104.94,237 
			104.94,96 		"/>
		<polyline style="fill:#F99C38;" points="59.72,48 59.72,10 104.94,10 104.94,48 104.94,96 104.94,237 59.72,237 59.72,210 
			59.72,96 		"/>
		<polygon style="fill:#F99C38;" points="376.28,48 376.28,10 421.5,10 421.5,48 421.5,96 421.5,426 376.28,426 376.28,399 
			376.28,96 		"/>
		<polygon style="fill:#F99C38;" points="14.5,96 14.5,210 59.72,210 59.72,96 59.72,48 59.72,10 14.5,10 14.5,48 		"/>
	</g>
	<g>
		<rect x="331.06" y="10" style="fill:#D17519;" width="24" height="389"/>
		<polygon style="fill:#D17519;" points="285.84,10 285.84,48 285.84,96 285.84,372 309.84,372 309.84,96 309.84,48 309.84,10 		"/>
		<polygon style="fill:#D17519;" points="240.61,10 240.61,48 240.61,96 240.61,345 264.61,345 264.61,96 264.61,48 264.61,10 		"/>
		<polygon style="fill:#D17519;" points="195.39,10 195.39,48 195.39,96 195.39,318 219.39,318 219.39,96 219.39,48 219.39,10 		"/>
		<polygon style="fill:#D17519;" points="150.17,10 150.17,48 150.17,96 150.17,291 174.17,291 174.17,96 174.17,48 174.17,10 		"/>
		<polygon style="fill:#D17519;" points="104.95,10 104.95,48 104.95,96 104.95,264 128.95,264 128.95,96 128.95,48 128.95,10 		"/>
		<polygon style="fill:#D17519;" points="59.72,10 59.72,48 59.72,96 59.72,237 83.72,237 83.72,96 83.72,48 83.72,10 		"/>
		<polygon style="fill:#D17519;" points="376.28,10 376.28,48 376.28,96 376.28,426 400.28,426 400.28,96 400.28,48 400.28,10 		"/>
		<polygon style="fill:#D17519;" points="14.5,10 14.5,48 14.5,96 14.5,210 38.5,210 38.5,96 38.5,48 38.5,10 		"/>
	</g>
	<path style="fill:#F9E17A;" d="M430.32,96H5.68C2.543,96,0,93.457,0,90.32V53.68C0,50.543,2.543,48,5.68,48H430.32
		c3.137,0,5.68,2.543,5.68,5.68V90.32C436,93.457,433.457,96,430.32,96z"/>
	<polygon style="fill:#F9E17A;" points="421.5,395.72 376.28,367.79 331.06,339.86 285.83,311.93 240.61,284 195.39,256.07 
		150.17,228.15 104.94,200.21 59.72,172.28 14.5,144.36 14.5,109.34 59.72,137.26 104.94,165.19 150.17,193.12 195.39,221.05 
		240.61,248.98 285.83,276.91 331.06,304.84 376.28,332.77 421.5,360.69 	"/>
	<g>
		<polygon style="fill:#66C5E2;" points="21.81,86.887 39,57.113 56.19,86.887 		"/>
		<polygon style="fill:#EF5252;" points="88.736,57.113 71.545,86.887 54.355,57.113 		"/>
		<polygon style="fill:#66C5E2;" points="86.901,86.887 104.091,57.113 121.281,86.887 		"/>
		<polygon style="fill:#EF5252;" points="153.826,57.113 136.636,86.887 119.446,57.113 		"/>
		<polygon style="fill:#66C5E2;" points="151.992,86.887 169.182,57.113 186.372,86.887 		"/>
		<polygon style="fill:#EF5252;" points="218.917,57.113 201.727,86.887 184.537,57.113 		"/>
		<polygon style="fill:#66C5E2;" points="217.083,86.887 234.273,57.113 251.463,86.887 		"/>
		<polygon style="fill:#EF5252;" points="284.008,57.113 266.818,86.887 249.628,57.113 		"/>
		<polygon style="fill:#66C5E2;" points="282.174,86.887 299.364,57.113 316.554,86.887 		"/>
		<polygon style="fill:#EF5252;" points="349.099,57.113 331.909,86.887 314.719,57.113 		"/>
		<polygon style="fill:#66C5E2;" points="347.264,86.887 364.455,57.113 381.645,86.887 		"/>
		<polygon style="fill:#EF5252;" points="414.19,57.113 397,86.887 379.81,57.113 		"/>
	</g>
</g>
</svg>