<?xml version='1.0' encoding='ascii'?>
<svg xmlns="http://www.w3.org/2000/svg" version="1.1" width="100" height="100">
    <g id="ViewLayer_LineSet" xmlns:inkscape="http://www.inkscape.org/namespaces/inkscape" inkscape:groupmode="lineset" inkscape:label="ViewLayer_LineSet">
        <g xmlns:inkscape="http://www.inkscape.org/namespaces/inkscape" inkscape:groupmode="layer" id="strokes" inkscape:label="strokes">
            <path fill="none" stroke-width="3.0" stroke-linecap="butt" stroke-opacity="1.0" stroke="rgb(0, 0, 0)" stroke-linejoin="round" d=" M 5.432, 51.732 5.432, 61.732 5.432, 71.732 5.432, 81.732 5.432, 91.732 5.432, 96.177 10.371, 96.177 15.309, 96.177 20.247, 96.177 25.185, 96.177 30.124, 96.177 35.062, 96.177 40.000, 96.177 44.938, 96.177 49.877, 96.177 54.815, 96.177 59.753, 96.177 64.692, 96.177 69.630, 96.177 74.568, 96.177 79.506, 96.177 84.445, 96.177 89.383, 96.177 94.321, 96.177 94.321, 86.177 94.321, 76.177 94.321, 66.177 94.321, 56.177 94.321, 51.732 94.321, 41.732 94.321, 40.724 89.383, 40.724 84.445, 40.724 84.445, 50.724 84.445, 51.732 79.506, 51.732 74.568, 51.732 74.568, 41.732 74.568, 40.621 69.630, 40.621 65.679, 40.621 64.692, 40.621 64.692, 50.621 64.692, 51.732 59.753, 51.732 54.815, 51.732 54.815, 41.732 54.815, 40.621 49.877, 40.621 44.938, 40.621 44.938, 50.621 44.938, 51.732 40.000, 51.732 35.062, 51.732 35.062, 41.732 35.062, 40.621 34.074, 40.621 30.124, 40.621 25.185, 40.621 25.185, 50.621 25.185, 51.732 20.247, 51.732 15.309, 51.732 15.309, 41.732 15.309, 40.621 10.371, 40.621 5.432, 40.621 5.432, 50.621 5.432, 51.732 " />
            <path fill="none" stroke-width="3.0" stroke-linecap="butt" stroke-opacity="1.0" stroke="rgb(0, 0, 0)" stroke-linejoin="round" d=" M 34.074, 40.621 34.074, 30.621 34.074, 29.424 25.185, 29.424 25.185, 19.424 25.185, 18.313 25.185, 8.313 25.185, 7.202 30.123, 7.202 35.061, 7.202 35.061, 17.202 35.061, 18.313 44.938, 18.313 44.938, 8.313 44.938, 7.202 49.876, 7.202 54.814, 7.202 54.814, 17.202 54.814, 18.313 59.753, 18.313 64.691, 18.313 64.691, 8.313 64.691, 7.202 69.629, 7.202 74.568, 7.202 74.568, 17.202 74.568, 18.313 74.568, 28.313 74.568, 29.424 65.679, 29.424 65.679, 39.424 65.679, 40.621 " />
        </g>
    </g>
</svg>
