<?xml version="1.0" encoding="UTF-8" standalone="no"?>
<svg
   version="1.1"
   width="100"
   height="100"
   id="svg3"
   sodipodi:docname="dolmen.svg"
   inkscape:version="1.3.1 (9b9bdc1480, 2023-11-25, custom)"
   xmlns:inkscape="http://www.inkscape.org/namespaces/inkscape"
   xmlns:sodipodi="http://sodipodi.sourceforge.net/DTD/sodipodi-0.dtd"
   xmlns="http://www.w3.org/2000/svg"
   xmlns:svg="http://www.w3.org/2000/svg">
  <defs
     id="defs3" />
  <sodipodi:namedview
     id="namedview3"
     pagecolor="#ffffff"
     bordercolor="#000000"
     borderopacity="0.25"
     inkscape:showpageshadow="2"
     inkscape:pageopacity="0.0"
     inkscape:pagecheckerboard="0"
     inkscape:deskcolor="#d1d1d1"
     inkscape:zoom="7.37"
     inkscape:cx="50"
     inkscape:cy="49.932157"
     inkscape:window-width="1920"
     inkscape:window-height="1043"
     inkscape:window-x="1920"
     inkscape:window-y="0"
     inkscape:window-maximized="1"
     inkscape:current-layer="strokes" />
  <g
     id="ViewLayer_LineSet"
     inkscape:groupmode="lineset"
     inkscape:label="ViewLayer_LineSet">
    <g
       inkscape:groupmode="layer"
       id="strokes"
       inkscape:label="strokes">
      <path
         fill="none"
         stroke-width="3.0"
         stroke-linecap="butt"
         stroke-opacity="1.0"
         stroke="rgb(0, 0, 0)"
         stroke-linejoin="round"
         d=" M 50.174, 40.906 60.174, 40.906 70.174, 40.906 80.174, 40.906 90.174, 40.906 94.220, 40.906 92.974, 30.984 91.969, 22.974 82.702, 19.216 73.435, 15.458 64.236, 11.727 54.288, 12.747 44.340, 13.767 34.393, 14.787 24.445, 15.807 14.497, 16.827 6.128, 17.686 6.128, 27.686 6.128, 37.686 6.128, 40.906 16.128, 40.906 26.128, 40.906 36.128, 40.906 46.128, 40.906 50.174, 40.906 "
         id="path1"
         style="stroke-linecap:round" />
      <path
         fill="none"
         stroke-width="3.0"
         stroke-linecap="butt"
         stroke-opacity="1.0"
         stroke="rgb(0, 0, 0)"
         stroke-linejoin="round"
         d=" M 11.390, 89.477 21.390, 89.477 31.390, 89.477 31.679, 89.477 32.639, 79.523 33.599, 69.569 34.559, 59.615 35.519, 49.662 36.325, 41.297 26.327, 41.454 16.328, 41.611 15.623, 41.622 14.742, 51.583 13.861, 61.544 12.980, 71.506 12.099, 81.467 11.390, 89.477 "
         id="path2"
         style="stroke-linecap:round" />
      <path
         fill="none"
         stroke-width="3.0"
         stroke-linecap="butt"
         stroke-opacity="1.0"
         stroke="rgb(0, 0, 0)"
         stroke-linejoin="round"
         d=" M 78.911, 89.492 68.911, 89.421 68.767, 89.420 67.878, 79.459 66.989, 69.499 66.100, 59.538 65.211, 49.578 64.464, 41.208 74.463, 41.044 76.759, 41.006 83.411, 48.473 87.204, 52.730 87.706, 62.718 88.208, 72.705 88.710, 82.693 89.055, 89.564 79.055, 89.493 78.911, 89.492 "
         id="path3"
         style="stroke-linecap:round" />
    </g>
  </g>
</svg>
