<?xml version="1.0" encoding="UTF-8" standalone="no"?>
<svg
   version="1.1"
   width="100"
   height="100"
   id="svg19"
   sodipodi:docname="mamoa2_fill.svg"
   inkscape:version="1.3.1 (9b9bdc1480, 2023-11-25, custom)"
   xmlns:inkscape="http://www.inkscape.org/namespaces/inkscape"
   xmlns:sodipodi="http://sodipodi.sourceforge.net/DTD/sodipodi-0.dtd"
   xmlns="http://www.w3.org/2000/svg"
   xmlns:svg="http://www.w3.org/2000/svg">
  <defs
     id="defs19" />
  <sodipodi:namedview
     id="namedview19"
     pagecolor="#ffffff"
     bordercolor="#000000"
     borderopacity="0.25"
     inkscape:showpageshadow="2"
     inkscape:pageopacity="0.0"
     inkscape:pagecheckerboard="0"
     inkscape:deskcolor="#d1d1d1"
     inkscape:zoom="7.37"
     inkscape:cx="50"
     inkscape:cy="49.932157"
     inkscape:window-width="1920"
     inkscape:window-height="1043"
     inkscape:window-x="1920"
     inkscape:window-y="0"
     inkscape:window-maximized="1"
     inkscape:current-layer="strokes" />
  <g
     id="ViewLayer_LineSet"
     inkscape:groupmode="lineset"
     inkscape:label="ViewLayer_LineSet">
    <g
       inkscape:groupmode="layer"
       id="strokes"
       inkscape:label="strokes">
      <path
         fill="none"
         stroke-width="3"
         stroke-linecap="butt"
         stroke-opacity="1"
         stroke="#000000"
         stroke-linejoin="round"
         d="m 55.701,45.382 -5.992,-0.973 -5.993,0.973 -6.015,2.688 -5.898,4.062 -5.642,5.091 -5.246,5.777 -4.711,6.121 -4.037,6.12 -3.223,5.778 -2.27,5.091 -1.178,4.061 0.053,2.689 1.425,0.972 h 1.804 2.322 2.779 3.179 3.518 3.797 4.018 4.179 4.281 4.323 8.534 4.23 4.305 4.323 8.46 4.018 3.798 3.517 3.179 2.779 4.126 L 93.868,92.86 93.921,90.171 92.743,86.11 90.473,81.019 87.25,75.241 83.213,69.121 78.502,63 73.256,57.223 67.614,52.132 61.716,48.07 55.701,45.382"
         id="path2"
         style="display:inline;fill:#000000;stroke-linecap:round"
         sodipodi:nodetypes="cccccccccccccccccccccccccccccccccccccccccccccc" />
      <path
         fill="none"
         stroke-width="3"
         stroke-linecap="butt"
         stroke-opacity="1"
         stroke="#000000"
         stroke-linejoin="round"
         d="m 49.988,70.087 -4.479,0.441 -4.306,1.306 -3.969,2.122 -3.479,2.854 -2.855,3.479 -2.121,3.969 -1.306,4.307 -0.442,4.478 h 10 10 10 10 5.914 L 72.504,88.565 71.197,84.258 69.076,80.289 66.221,76.81 62.742,73.956 58.773,71.834 54.467,70.528 49.988,70.087"
         id="path1"
         style="display:inline;fill:#ffffff;stroke-linecap:round" />
    </g>
  </g>
</svg>
