<?xml version="1.0" encoding="UTF-8" standalone="no"?>
<svg
   version="1.1"
   width="100"
   height="100"
   id="svg7"
   sodipodi:docname="cromeleque_fill.svg"
   inkscape:version="1.3.1 (9b9bdc1480, 2023-11-25, custom)"
   xmlns:inkscape="http://www.inkscape.org/namespaces/inkscape"
   xmlns:sodipodi="http://sodipodi.sourceforge.net/DTD/sodipodi-0.dtd"
   xmlns="http://www.w3.org/2000/svg"
   xmlns:svg="http://www.w3.org/2000/svg">
  <defs
     id="defs7" />
  <sodipodi:namedview
     id="namedview7"
     pagecolor="#ffffff"
     bordercolor="#000000"
     borderopacity="0.25"
     inkscape:showpageshadow="2"
     inkscape:pageopacity="0.0"
     inkscape:pagecheckerboard="0"
     inkscape:deskcolor="#d1d1d1"
     inkscape:zoom="7.37"
     inkscape:cx="50.067843"
     inkscape:cy="49.932157"
     inkscape:window-width="1920"
     inkscape:window-height="1043"
     inkscape:window-x="1920"
     inkscape:window-y="0"
     inkscape:window-maximized="1"
     inkscape:current-layer="strokes" />
  <g
     id="ViewLayer_LineSet"
     inkscape:groupmode="lineset"
     inkscape:label="ViewLayer_LineSet">
    <g
       inkscape:groupmode="layer"
       id="strokes"
       inkscape:label="strokes">
      <path
         fill="none"
         stroke-width="3.0"
         stroke-linecap="butt"
         stroke-opacity="1.0"
         stroke="rgb(0, 0, 0)"
         stroke-linejoin="round"
         d=" M 61.102, 44.809 53.103, 38.807 50.155, 36.594 45.042, 38.501 40.814, 47.563 40.108, 49.077 37.866, 58.823 36.883, 63.097 34.797, 72.877 33.857, 77.287 35.862, 87.084 37.286, 94.038 47.286, 94.038 57.286, 94.038 62.714, 94.038 65.290, 84.376 66.542, 79.677 65.844, 69.702 65.334, 62.414 62.997, 52.691 61.102, 44.809 "
         id="path1"
         style="stroke-linecap:round;fill:#000000" />
      <path
         fill="none"
         stroke-width="3.0"
         stroke-linecap="butt"
         stroke-opacity="1.0"
         stroke="rgb(0, 0, 0)"
         stroke-linejoin="round"
         d=" M 20.978, 51.586 19.905, 46.557 14.327, 46.901 10.909, 52.538 8.447, 60.686 7.818, 68.933 5.647, 78.414 15.647, 78.414 22.380, 78.414 24.728, 71.979 22.712, 62.184 22.401, 60.671 20.978, 51.586 "
         id="path2"
         style="stroke-linecap:round;fill:#000000" />
      <path
         fill="none"
         stroke-width="3.0"
         stroke-linecap="butt"
         stroke-opacity="1.0"
         stroke="rgb(0, 0, 0)"
         stroke-linejoin="round"
         d=" M 91.402, 49.023 88.991, 45.191 85.812, 44.024 83.493, 51.034 77.586, 59.103 77.059, 59.823 75.267, 68.203 77.298, 78.096 87.298, 78.096 92.357, 78.096 94.624, 69.615 93.924, 59.639 93.908, 59.420 91.565, 49.698 91.402, 49.023 "
         id="path3"
         style="stroke-linecap:round;fill:#000000" />
      <path
         fill="none"
         stroke-width="3.0"
         stroke-linecap="butt"
         stroke-opacity="1.0"
         stroke="rgb(0, 0, 0)"
         stroke-linejoin="round"
         d=" M 13.451, 20.543 15.071, 18.136 17.206, 17.403 18.763, 21.807 23.085, 27.328 24.289, 32.593 22.925, 38.808 12.925, 38.808 12.810, 38.808 11.287, 33.480 11.767, 27.075 13.451, 20.543 "
         id="path4"
         style="stroke-linecap:round;fill:#000000" />
      <path
         fill="none"
         stroke-width="3.0"
         stroke-linecap="butt"
         stroke-opacity="1.0"
         stroke="rgb(0, 0, 0)"
         stroke-linejoin="round"
         d=" M 86.214, 20.628 85.425, 17.240 81.321, 17.471 78.808, 21.270 76.996, 26.760 76.533, 32.316 74.936, 38.704 84.936, 38.704 87.245, 38.704 88.973, 34.368 87.261, 26.750 86.214, 20.628 "
         id="path5"
         style="stroke-linecap:round;fill:#000000" />
      <path
         fill="none"
         stroke-width="3.0"
         stroke-linecap="butt"
         stroke-opacity="1.0"
         stroke="rgb(0, 0, 0)"
         stroke-linejoin="round"
         d=" M 35.658, 8.339 38.779, 6.095 40.237, 6.616 41.644, 9.505 42.563, 13.336 43.426, 17.214 42.448, 21.791 35.199, 21.791 34.107, 17.867 34.452, 13.150 35.658, 8.339 "
         id="path6"
         style="stroke-linecap:round;fill:#000000" />
      <path
         fill="none"
         stroke-width="3.0"
         stroke-linecap="butt"
         stroke-opacity="1.0"
         stroke="rgb(0, 0, 0)"
         stroke-linejoin="round"
         d=" M 65.165, 8.339 62.044, 6.095 60.586, 6.616 59.179, 9.505 58.260, 13.336 57.397, 17.214 58.375, 21.791 65.624, 21.791 66.716, 17.867 66.371, 13.150 65.165, 8.339 "
         id="path7"
         style="stroke-linecap:round;fill:#000000" />
    </g>
  </g>
</svg>
