<?xml version="1.0" encoding="UTF-8" standalone="no"?>
<svg
   version="1.1"
   width="100"
   height="100"
   id="svg17"
   sodipodi:docname="set_outline_castle4.svg"
   inkscape:version="1.3.1 (9b9bdc1480, 2023-11-25, custom)"
   xmlns:inkscape="http://www.inkscape.org/namespaces/inkscape"
   xmlns:sodipodi="http://sodipodi.sourceforge.net/DTD/sodipodi-0.dtd"
   xmlns="http://www.w3.org/2000/svg"
   xmlns:svg="http://www.w3.org/2000/svg">
  <defs
     id="defs17" />
  <sodipodi:namedview
     id="namedview17"
     pagecolor="#ffffff"
     bordercolor="#000000"
     borderopacity="0.25"
     inkscape:showpageshadow="2"
     inkscape:pageopacity="0.0"
     inkscape:pagecheckerboard="0"
     inkscape:deskcolor="#d1d1d1"
     inkscape:zoom="7.37"
     inkscape:cx="49.932157"
     inkscape:cy="49.932157"
     inkscape:window-width="1920"
     inkscape:window-height="1043"
     inkscape:window-x="1920"
     inkscape:window-y="0"
     inkscape:window-maximized="1"
     inkscape:current-layer="strokes" />
  <g
     id="ViewLayer_LineSet"
     inkscape:groupmode="lineset"
     inkscape:label="ViewLayer_LineSet">
    <g
       inkscape:groupmode="layer"
       id="strokes"
       inkscape:label="strokes">
      <path
         fill="none"
         stroke-width="3.0"
         stroke-linecap="butt"
         stroke-opacity="1.0"
         stroke="rgb(0, 0, 0)"
         stroke-linejoin="round"
         d=" M 44.444, 5.556 44.444, 15.556 44.444, 22.222 34.444, 22.222 33.333, 22.222 33.333, 16.667 33.333, 6.667 33.333, 5.556 23.333, 5.556 22.222, 5.556 22.222, 15.556 22.222, 16.667 22.222, 22.222 22.222, 27.778 22.222, 33.333 22.222, 43.333 22.222, 44.444 "
         id="path1"
         style="stroke-linecap:round" />
      <path
         fill="none"
         stroke-width="3.0"
         stroke-linecap="butt"
         stroke-opacity="1.0"
         stroke="rgb(0, 0, 0)"
         stroke-linejoin="round"
         d=" M 22.222, 44.444 32.222, 44.444 33.333, 44.444 43.333, 44.444 44.444, 44.444 54.444, 44.444 55.556, 44.444 65.556, 44.444 66.667, 44.444 76.667, 44.444 77.778, 44.444 "
         id="path2"
         style="stroke-linecap:round" />
      <path
         fill="none"
         stroke-width="3.0"
         stroke-linecap="butt"
         stroke-opacity="1.0"
         stroke="rgb(0, 0, 0)"
         stroke-linejoin="round"
         d=" M 77.778, 44.444 77.778, 34.444 77.778, 33.333 77.778, 27.778 77.778, 22.222 77.778, 12.222 77.778, 5.556 "
         id="path3"
         style="stroke-linecap:round" />
      <path
         fill="none"
         stroke-width="3.0"
         stroke-linecap="butt"
         stroke-opacity="1.0"
         stroke="rgb(0, 0, 0)"
         stroke-linejoin="round"
         d=" M 77.778, 5.556 67.778, 5.556 66.667, 5.556 66.667, 15.556 66.667, 22.222 56.667, 22.222 55.556, 22.222 55.556, 12.222 55.556, 5.556 "
         id="path4"
         style="stroke-linecap:round" />
      <path
         fill="none"
         stroke-width="3.0"
         stroke-linecap="butt"
         stroke-opacity="1.0"
         stroke="rgb(0, 0, 0)"
         stroke-linejoin="round"
         d=" M 25.000, 66.667 15.000, 66.667 15.000, 61.111 15.000, 51.111 15.000, 50.000 5.000, 50.000 5.000, 60.000 5.000, 61.111 5.000, 66.667 5.000, 72.222 5.000, 77.778 5.000, 87.778 5.000, 94.444 "
         id="path5"
         style="stroke-linecap:round" />
      <path
         fill="none"
         stroke-width="3.0"
         stroke-linecap="butt"
         stroke-opacity="1.0"
         stroke="rgb(0, 0, 0)"
         stroke-linejoin="round"
         d=" M 5.000, 94.444 15.000, 94.444 25.000, 94.444 35.000, 94.444 45.000, 94.444 55.000, 94.444 65.000, 94.444 75.000, 94.444 85.000, 94.444 95.000, 94.444 95.000, 84.444 95.000, 77.778 95.000, 72.222 95.000, 66.667 95.000, 56.667 95.000, 50.000 "
         id="path6"
         style="stroke-linecap:round" />
      <path
         fill="none"
         stroke-width="3.0"
         stroke-linecap="butt"
         stroke-opacity="1.0"
         stroke="rgb(0, 0, 0)"
         stroke-linejoin="round"
         d=" M 85.000, 50.000 85.000, 60.000 85.000, 66.667 75.000, 66.667 "
         id="path7"
         style="stroke-linecap:round" />
      <path
         fill="none"
         stroke-width="3.0"
         stroke-linecap="butt"
         stroke-opacity="1.0"
         stroke="rgb(0, 0, 0)"
         stroke-linejoin="round"
         d=" M 55.000, 66.667 55.000, 56.667 55.000, 50.000 45.000, 50.000 45.000, 60.000 45.000, 66.667 "
         id="path8"
         style="stroke-linecap:round" />
      <path
         fill="none"
         stroke-width="3.0"
         stroke-linecap="butt"
         stroke-opacity="1.0"
         stroke="rgb(0, 0, 0)"
         stroke-linejoin="round"
         d=" M 75.000, 66.667 75.000, 56.667 75.000, 50.000 65.000, 50.000 "
         id="path9"
         style="stroke-linecap:round" />
      <path
         fill="none"
         stroke-width="3.0"
         stroke-linecap="butt"
         stroke-opacity="1.0"
         stroke="rgb(0, 0, 0)"
         stroke-linejoin="round"
         d=" M 25.000, 50.000 25.000, 60.000 25.000, 66.667 "
         id="path10"
         style="stroke-linecap:round" />
      <path
         fill="none"
         stroke-width="3.0"
         stroke-linecap="butt"
         stroke-opacity="1.0"
         stroke="rgb(0, 0, 0)"
         stroke-linejoin="round"
         d=" M 35.000, 50.000 25.000, 50.000 "
         id="path11"
         style="stroke-linecap:round" />
      <path
         fill="none"
         stroke-width="3.0"
         stroke-linecap="butt"
         stroke-opacity="1.0"
         stroke="rgb(0, 0, 0)"
         stroke-linejoin="round"
         d=" M 35.000, 66.667 35.000, 56.667 35.000, 50.000 "
         id="path12"
         style="stroke-linecap:round" />
      <path
         fill="none"
         stroke-width="3.0"
         stroke-linecap="butt"
         stroke-opacity="1.0"
         stroke="rgb(0, 0, 0)"
         stroke-linejoin="round"
         d=" M 45.000, 66.667 35.000, 66.667 "
         id="path13"
         style="stroke-linecap:round" />
      <path
         fill="none"
         stroke-width="3.0"
         stroke-linecap="butt"
         stroke-opacity="1.0"
         stroke="rgb(0, 0, 0)"
         stroke-linejoin="round"
         d=" M 55.556, 5.556 45.556, 5.556 44.444, 5.556 "
         id="path14"
         style="stroke-linecap:round" />
      <path
         fill="none"
         stroke-width="3.0"
         stroke-linecap="butt"
         stroke-opacity="1.0"
         stroke="rgb(0, 0, 0)"
         stroke-linejoin="round"
         d=" M 65.000, 66.667 55.000, 66.667 "
         id="path15"
         style="stroke-linecap:round" />
      <path
         fill="none"
         stroke-width="3.0"
         stroke-linecap="butt"
         stroke-opacity="1.0"
         stroke="rgb(0, 0, 0)"
         stroke-linejoin="round"
         d=" M 65.000, 50.000 65.000, 60.000 65.000, 66.667 "
         id="path16"
         style="stroke-linecap:round" />
      <path
         fill="none"
         stroke-width="3.0"
         stroke-linecap="butt"
         stroke-opacity="1.0"
         stroke="rgb(0, 0, 0)"
         stroke-linejoin="round"
         d=" M 95.000, 50.000 85.000, 50.000 "
         id="path17"
         style="stroke-linecap:round" />
    </g>
  </g>
</svg>
