<?xml version="1.0" encoding="UTF-8" standalone="no"?>
<svg
   version="1.1"
   width="100"
   height="100"
   id="svg8"
   sodipodi:docname="cromeleque1_fill.svg"
   inkscape:version="1.3.1 (9b9bdc1480, 2023-11-25, custom)"
   xmlns:inkscape="http://www.inkscape.org/namespaces/inkscape"
   xmlns:sodipodi="http://sodipodi.sourceforge.net/DTD/sodipodi-0.dtd"
   xmlns="http://www.w3.org/2000/svg"
   xmlns:svg="http://www.w3.org/2000/svg">
  <defs
     id="defs8" />
  <sodipodi:namedview
     id="namedview8"
     pagecolor="#ffffff"
     bordercolor="#000000"
     borderopacity="0.25"
     inkscape:showpageshadow="2"
     inkscape:pageopacity="0.0"
     inkscape:pagecheckerboard="0"
     inkscape:deskcolor="#d1d1d1"
     inkscape:zoom="7.37"
     inkscape:cx="50.067843"
     inkscape:cy="49.932157"
     inkscape:window-width="1920"
     inkscape:window-height="1043"
     inkscape:window-x="1920"
     inkscape:window-y="0"
     inkscape:window-maximized="1"
     inkscape:current-layer="strokes" />
  <g
     id="ViewLayer_LineSet"
     inkscape:groupmode="lineset"
     inkscape:label="ViewLayer_LineSet">
    <g
       inkscape:groupmode="layer"
       id="strokes"
       inkscape:label="strokes">
      <path
         fill="none"
         stroke-width="3.0"
         stroke-linecap="butt"
         stroke-opacity="1.0"
         stroke="rgb(0, 0, 0)"
         stroke-linejoin="round"
         d=" M 55.388, 8.425 51.283, 4.779 49.366, 5.626 47.516, 10.320 46.307, 16.542 45.172, 22.840 46.458, 30.275 55.993, 30.275 57.428, 23.901 56.975, 16.239 55.388, 8.425 "
         id="path1"
         style="stroke-linecap:round;fill:#000000" />
      <path
         fill="none"
         stroke-width="3.0"
         stroke-linecap="butt"
         stroke-opacity="1.0"
         stroke="rgb(0, 0, 0)"
         stroke-linejoin="round"
         d=" M 24.649, 66.603 23.849, 62.541 19.694, 62.819 17.149, 67.372 15.314, 73.952 14.846, 80.613 16.840, 88.270 25.693, 88.270 27.443, 83.073 26.422, 73.941 24.649, 66.603 "
         id="path2"
         style="stroke-linecap:round;fill:#000000" />
      <path
         fill="none"
         stroke-width="3.0"
         stroke-linecap="butt"
         stroke-opacity="1.0"
         stroke="rgb(0, 0, 0)"
         stroke-linejoin="round"
         d=" M 54.643, 72.034 50.207, 68.257 48.135, 69.133 46.135, 73.996 44.828, 80.442 43.602, 86.966 44.992, 94.667 54.992, 94.667 55.296, 94.667 56.847, 88.065 56.358, 80.128 54.643, 72.034 "
         id="path3"
         style="stroke-linecap:round;fill:#000000" />
      <path
         fill="none"
         stroke-width="3.0"
         stroke-linecap="butt"
         stroke-opacity="1.0"
         stroke="rgb(0, 0, 0)"
         stroke-linejoin="round"
         d=" M 71.610, 16.462 72.430, 12.298 76.689, 12.583 79.298, 17.250 81.179, 23.995 81.659, 30.822 79.615, 38.670 70.540, 38.670 68.747, 33.343 70.524, 23.982 71.610, 16.462 "
         id="path4"
         style="stroke-linecap:round;fill:#000000" />
      <path
         fill="none"
         stroke-width="3.0"
         stroke-linecap="butt"
         stroke-opacity="1.0"
         stroke="rgb(0, 0, 0)"
         stroke-linejoin="round"
         d=" M 80.921, 66.339 80.121, 62.277 75.966, 62.555 73.420, 67.108 71.586, 73.688 71.117, 80.349 73.111, 88.006 81.965, 88.006 83.714, 82.809 82.694, 73.676 80.921, 66.339 "
         id="path5"
         style="stroke-linecap:round;fill:#000000" />
      <path
         fill="none"
         stroke-width="3.0"
         stroke-linecap="butt"
         stroke-opacity="1.0"
         stroke="rgb(0, 0, 0)"
         stroke-linejoin="round"
         d=" M 16.181, 39.391 15.381, 35.330 11.226, 35.607 8.680, 40.160 6.846, 46.741 6.377, 53.402 8.371, 61.059 17.225, 61.059 18.974, 55.861 17.954, 46.729 16.181, 39.391 "
         id="path6"
         style="stroke-linecap:round;fill:#000000" />
      <path
         fill="none"
         stroke-width="3.0"
         stroke-linecap="butt"
         stroke-opacity="1.0"
         stroke="rgb(0, 0, 0)"
         stroke-linejoin="round"
         d=" M 92.002, 39.391 91.202, 35.330 87.047, 35.607 84.501, 40.160 82.667, 46.741 82.198, 53.402 84.192, 61.059 93.046, 61.059 94.796, 55.861 93.775, 46.729 92.002, 39.391 "
         id="path7"
         style="stroke-linecap:round;fill:#000000" />
      <path
         fill="none"
         stroke-width="3.0"
         stroke-linecap="butt"
         stroke-opacity="1.0"
         stroke="rgb(0, 0, 0)"
         stroke-linejoin="round"
         d=" M 25.885, 15.405 26.705, 11.242 30.964, 11.526 33.573, 16.193 35.453, 22.938 35.934, 29.765 33.890, 37.614 24.815, 37.614 23.022, 32.286 24.799, 22.926 25.885, 15.405 "
         id="path8"
         style="stroke-linecap:round;fill:#000000" />
    </g>
  </g>
</svg>
