<?xml version="1.0" encoding="UTF-8" standalone="no"?>
<svg
   version="1.1"
   width="100"
   height="100"
   id="svg2"
   sodipodi:docname="cave1_fill1.svg"
   inkscape:version="1.3.1 (9b9bdc1480, 2023-11-25, custom)"
   xmlns:inkscape="http://www.inkscape.org/namespaces/inkscape"
   xmlns:sodipodi="http://sodipodi.sourceforge.net/DTD/sodipodi-0.dtd"
   xmlns="http://www.w3.org/2000/svg"
   xmlns:svg="http://www.w3.org/2000/svg">
  <defs
     id="defs2" />
  <sodipodi:namedview
     id="namedview2"
     pagecolor="#ffffff"
     bordercolor="#000000"
     borderopacity="0.25"
     inkscape:showpageshadow="2"
     inkscape:pageopacity="0.0"
     inkscape:pagecheckerboard="0"
     inkscape:deskcolor="#d1d1d1"
     inkscape:zoom="8.4"
     inkscape:cx="50"
     inkscape:cy="50"
     inkscape:window-width="1920"
     inkscape:window-height="1043"
     inkscape:window-x="1920"
     inkscape:window-y="0"
     inkscape:window-maximized="1"
     inkscape:current-layer="strokes" />
  <g
     id="ViewLayer_LineSet"
     inkscape:groupmode="lineset"
     inkscape:label="ViewLayer_LineSet">
    <g
       inkscape:groupmode="layer"
       id="strokes"
       inkscape:label="strokes">
      <path
         fill="none"
         stroke-width="3.0"
         stroke-linecap="butt"
         stroke-opacity="1.0"
         stroke="rgb(0, 0, 0)"
         stroke-linejoin="round"
         d=" M 64.815, 94.444 74.815, 94.444 84.815, 94.444 94.444, 94.444 93.161, 84.527 91.877, 74.610 90.593, 64.693 89.309, 54.775 88.669, 49.830 80.046, 44.766 71.422, 39.702 70.933, 39.415 66.535, 30.434 62.138, 21.453 60.525, 18.159 53.122, 24.882 45.719, 31.605 38.316, 38.328 37.797, 38.800 28.887, 34.259 19.977, 29.718 16.606, 27.999 14.965, 37.864 13.325, 47.728 11.684, 57.593 10.044, 67.457 8.403, 77.322 6.763, 87.186 5.556, 94.444 15.556, 94.444 25.556, 94.444 35.185, 94.444 45.185, 94.444 50.000, 94.444 60.000, 94.444 64.815, 94.444 "
         id="path1"
         style="stroke-linecap:round;fill:none" />
      <path
         fill="none"
         stroke-width="3.0"
         stroke-linecap="butt"
         stroke-opacity="1.0"
         stroke="rgb(0, 0, 0)"
         stroke-linejoin="round"
         d=" M 55.289, 94.444 63.594, 94.444 62.401, 84.516 61.506, 77.065 56.307, 72.617 51.099, 70.862 45.910, 72.154 40.756, 76.498 39.606, 86.432 38.678, 94.444 46.983, 94.444 51.136, 94.444 55.289, 94.444 "
         id="path2"
         style="stroke-linecap:round;fill:#000000" />
    </g>
  </g>
</svg>
