<?xml version="1.0" encoding="UTF-8" standalone="no"?>
<svg
   version="1.1"
   width="100"
   height="100"
   id="svg2"
   sodipodi:docname="christian_1.svg"
   inkscape:version="1.3.1 (9b9bdc1480, 2023-11-25, custom)"
   xmlns:inkscape="http://www.inkscape.org/namespaces/inkscape"
   xmlns:sodipodi="http://sodipodi.sourceforge.net/DTD/sodipodi-0.dtd"
   xmlns="http://www.w3.org/2000/svg"
   xmlns:svg="http://www.w3.org/2000/svg">
  <defs
     id="defs2" />
  <sodipodi:namedview
     id="namedview2"
     pagecolor="#ffffff"
     bordercolor="#000000"
     borderopacity="0.25"
     inkscape:showpageshadow="2"
     inkscape:pageopacity="0.0"
     inkscape:pagecheckerboard="0"
     inkscape:deskcolor="#d1d1d1"
     inkscape:zoom="7.37"
     inkscape:cx="50"
     inkscape:cy="49.932157"
     inkscape:window-width="1920"
     inkscape:window-height="1043"
     inkscape:window-x="1920"
     inkscape:window-y="0"
     inkscape:window-maximized="1"
     inkscape:current-layer="strokes" />
  <g
     id="ViewLayer_LineSet"
     inkscape:groupmode="lineset"
     inkscape:label="ViewLayer_LineSet">
    <g
       inkscape:groupmode="layer"
       id="strokes"
       inkscape:label="strokes">
      <path
         fill="none"
         stroke-width="3.0"
         stroke-linecap="butt"
         stroke-opacity="1.0"
         stroke="rgb(0, 0, 0)"
         stroke-linejoin="round"
         d=" M 30.556, 94.445 40.556, 94.445 50.556, 94.445 60.556, 94.445 69.444, 94.445 69.444, 84.445 69.444, 74.445 69.444, 64.445 69.444, 55.556 59.444, 55.556 49.444, 55.556 39.444, 55.556 30.556, 55.556 30.556, 65.556 30.556, 75.556 30.556, 85.556 30.556, 94.445 "
         id="path1"
         style="stroke-linecap:round;fill:#000000" />
      <path
         fill="none"
         stroke-width="3.0"
         stroke-linecap="butt"
         stroke-opacity="1.0"
         stroke="rgb(0, 0, 0)"
         stroke-linejoin="round"
         d=" M 52.867, 19.842 52.867, 9.842 52.867, 5.599 47.342, 5.599 47.342, 15.599 47.342, 19.842 37.342, 19.842 27.718, 19.842 27.718, 25.393 37.718, 25.393 47.342, 25.393 47.342, 35.393 47.342, 45.393 47.342, 50.008 52.867, 50.008 52.867, 40.008 52.867, 30.008 52.867, 25.393 62.867, 25.393 72.282, 25.393 72.282, 19.842 62.282, 19.842 52.867, 19.842 "
         id="path2"
         style="stroke-linecap:round" />
    </g>
  </g>
</svg>
