<?xml version="1.0" encoding="UTF-8" standalone="no"?>
<svg
   version="1.1"
   width="100"
   height="100"
   id="svg17"
   sodipodi:docname="set_fill_castle4.svg"
   inkscape:version="1.3.1 (9b9bdc1480, 2023-11-25, custom)"
   xmlns:inkscape="http://www.inkscape.org/namespaces/inkscape"
   xmlns:sodipodi="http://sodipodi.sourceforge.net/DTD/sodipodi-0.dtd"
   xmlns="http://www.w3.org/2000/svg"
   xmlns:svg="http://www.w3.org/2000/svg">
  <defs
     id="defs17" />
  <sodipodi:namedview
     id="namedview17"
     pagecolor="#ffffff"
     bordercolor="#000000"
     borderopacity="0.25"
     inkscape:showpageshadow="2"
     inkscape:pageopacity="0.0"
     inkscape:pagecheckerboard="0"
     inkscape:deskcolor="#d1d1d1"
     inkscape:zoom="7.37"
     inkscape:cx="49.932157"
     inkscape:cy="49.932157"
     inkscape:window-width="1920"
     inkscape:window-height="1043"
     inkscape:window-x="1920"
     inkscape:window-y="0"
     inkscape:window-maximized="1"
     inkscape:current-layer="strokes" />
  <g
     id="ViewLayer_LineSet"
     inkscape:groupmode="lineset"
     inkscape:label="ViewLayer_LineSet">
    <g
       inkscape:groupmode="layer"
       id="strokes"
       inkscape:label="strokes">
      <path
         style="color:#000000;display:inline;fill:#000000;stroke:#000000;stroke-linecap:round;stroke-linejoin:round;-inkscape-stroke:none"
         d="m 22.222656,4.0566406 a 1.50015,1.50015 0 0 0 -1.5,1.5 v 10.0000004 1.111328 5.554687 5.554688 5.554687 10 1.111328 a 1.5,1.5 0 0 0 0.181641,0.675782 1.5,1.5 0 0 0 0.111328,0.166015 1.5,1.5 0 0 0 0.365234,0.365235 1.5,1.5 0 0 0 0.166016,0.111328 1.5,1.5 0 0 0 0.675781,0.18164 h 10 1.109375 10 1.111328 10 1.113282 10 1.111328 10 1.109375 a 1.5,1.5 0 0 0 0.675781,-0.18164 1.5,1.5 0 0 0 0.166016,-0.111328 1.5,1.5 0 0 0 0.365234,-0.365235 1.5,1.5 0 0 0 0.111328,-0.166015 1.5,1.5 0 0 0 0.181641,-0.675782 v -10 -1.111328 -5.554687 -5.554688 -10 -6.6660154 a 1.5,1.5 0 0 0 -0.01367,-0.1953125 1.5,1.5 0 0 0 -0.002,-0.00781 1.5,1.5 0 0 0 -0.01758,-0.095703 1.5,1.5 0 0 0 -0.03711,-0.1464844 1.5,1.5 0 0 0 -0.01172,-0.039063 1.5,1.5 0 0 0 -0.06836,-0.1640625 1.5,1.5 0 0 0 -0.0293,-0.058594 1.5,1.5 0 0 0 -0.107422,-0.1738282 1.5,1.5 0 0 0 -0.0059,-0.00781 1.5,1.5 0 0 0 -0.326172,-0.3242188 1.5,1.5 0 0 0 -0.02734,-0.015625 1.5,1.5 0 0 0 -0.146484,-0.091797 1.5,1.5 0 0 0 -0.05859,-0.029297 1.5,1.5 0 0 0 -0.164062,-0.068359 1.5,1.5 0 0 0 -0.03906,-0.011719 1.5,1.5 0 0 0 -0.146484,-0.037109 1.5,1.5 0 0 0 -0.103516,-0.019531 1.5,1.5 0 0 0 -0.195312,-0.013672 h -10 -1.109375 a 1.50015,1.50015 0 0 0 -1.5,1.5 v 10.0000008 5.166015 h -8.111328 v -8.5 -6.6660158 a 1.5,1.5 0 0 0 -0.01367,-0.1914062 1.5,1.5 0 0 0 0,-0.00391 1.5,1.5 0 0 0 -0.002,-0.00586 1.5,1.5 0 0 0 -0.03125,-0.1660157 1.5,1.5 0 0 0 -0.0039,-0.021484 1.5,1.5 0 0 0 -0.002,-0.00781 1.5,1.5 0 0 0 -0.04883,-0.1445312 1.5,1.5 0 0 0 -0.002,-0.00586 1.5,1.5 0 0 0 -0.03906,-0.083984 1.5,1.5 0 0 0 -0.03711,-0.078125 1.5,1.5 0 0 0 -0.0332,-0.058594 1.5,1.5 0 0 0 -0.08984,-0.1367187 1.5,1.5 0 0 0 -0.0078,-0.00977 1.5,1.5 0 0 0 -0.0059,-0.00781 1.5,1.5 0 0 0 -0.109375,-0.1230468 1.5,1.5 0 0 0 -0.0293,-0.029297 1.5,1.5 0 0 0 -0.123046,-0.109375 1.5,1.5 0 0 0 -0.0078,-0.00586 1.5,1.5 0 0 0 -0.0098,-0.00781 1.5,1.5 0 0 0 -0.136719,-0.089844 1.5,1.5 0 0 0 -0.05859,-0.033203 1.5,1.5 0 0 0 -0.07813,-0.037109 1.5,1.5 0 0 0 -0.08398,-0.039063 1.5,1.5 0 0 0 -0.0059,-0.00195 1.5,1.5 0 0 0 -0.144531,-0.048828 1.5,1.5 0 0 0 -0.0078,-0.00195 1.5,1.5 0 0 0 -0.02148,-0.00391 1.5,1.5 0 0 0 -0.166016,-0.03125 1.5,1.5 0 0 0 -0.0059,-0.00195 1.5,1.5 0 0 0 -0.0039,0 1.5,1.5 0 0 0 -0.191406,-0.013672 h -10 -1.113282 a 1.5,1.5 0 0 0 -0.507812,0.099609 1.5,1.5 0 0 0 -0.125,0.052734 1.5,1.5 0 0 0 -0.427735,0.2871094 1.5,1.5 0 0 0 -0.287109,0.4277343 1.5,1.5 0 0 0 -0.05273,0.125 1.5,1.5 0 0 0 -0.09961,0.5078125 v 9.9999932 5.166015 H 34.832031 V 16.667969 6.6679688 5.5566406 a 1.50015,1.50015 0 0 0 -1.5,-1.5 h -10 z"
         id="path1" />
      <path
         style="color:#000000;fill:#000000;stroke-linecap:round;stroke-linejoin:round;-inkscape-stroke:none"
         d="M 5,48.5 A 1.50015,1.50015 0 0 0 3.5,50 v 10 1.111328 5.556641 5.554687 5.554688 10 6.666015 a 1.5,1.5 0 0 0 1.5,1.5 h 10 10 10 10 10 10 10 10 10 a 1.50015,1.50015 0 0 0 1.5,-1.5 v -10 -6.666015 -5.554688 -5.554687 -10 V 50 a 1.5,1.5 0 0 0 -0.03516,-0.3125 1.5,1.5 0 0 0 -0.0078,-0.03711 1.5,1.5 0 0 0 -0.105469,-0.298829 1.5,1.5 0 0 0 0,-0.002 1.5,1.5 0 0 0 -0.002,-0.0039 1.5,1.5 0 0 0 -0.173828,-0.275391 1.5,1.5 0 0 0 -0.0039,-0.0059 1.5,1.5 0 0 0 -0.0039,-0.0039 1.5,1.5 0 0 0 -0.228516,-0.228516 1.5,1.5 0 0 0 -0.0039,-0.0039 1.5,1.5 0 0 0 -0.0059,-0.0039 1.5,1.5 0 0 0 -0.275391,-0.173828 1.5,1.5 0 0 0 -0.0039,-0.002 1.5,1.5 0 0 0 -0.002,0 1.5,1.5 0 0 0 -0.298829,-0.105469 1.5,1.5 0 0 0 -0.03711,-0.0078 A 1.5,1.5 0 0 0 95,48.5 H 85 a 1.5,1.5 0 0 0 -0.433594,0.07031 1.5,1.5 0 0 0 -0.109375,0.04492 1.5,1.5 0 0 0 -0.28125,0.142578 1.5,1.5 0 0 0 -0.11914,0.0918 1.5,1.5 0 0 0 -0.207032,0.207032 1.5,1.5 0 0 0 -0.0918,0.11914 1.5,1.5 0 0 0 -0.142578,0.28125 1.5,1.5 0 0 0 -0.04492,0.109375 A 1.5,1.5 0 0 0 83.5,50 v 10 5.167969 h -7 v -8.5 V 50 A 1.50015,1.50015 0 0 0 75,48.5 H 65 A 1.5,1.5 0 0 0 64.537109,48.574219 1.5,1.5 0 0 0 63.5,50 v 10 5.167969 h -7 v -8.5 V 50 A 1.50015,1.50015 0 0 0 55,48.5 H 45 A 1.50015,1.50015 0 0 0 43.5,50 v 10 5.167969 h -7 v -8.5 V 50 a 1.5,1.5 0 0 0 -0.0059,-0.130859 1.5,1.5 0 0 0 -0.002,-0.0078 1.5,1.5 0 0 0 -0.0098,-0.07617 1.5,1.5 0 0 0 -0.01172,-0.06836 1.5,1.5 0 0 0 -0.0098,-0.05273 1.5,1.5 0 0 0 -0.08984,-0.273437 1.5,1.5 0 0 0 -0.01172,-0.02539 1.5,1.5 0 0 0 -0.226563,-0.347656 1.5,1.5 0 0 0 -0.07227,-0.07813 1.5,1.5 0 0 0 -0.02344,-0.02148 1.5,1.5 0 0 0 -0.05469,-0.05078 1.5,1.5 0 0 0 -0.373047,-0.238282 1.5,1.5 0 0 0 -0.02344,-0.0078 1.5,1.5 0 0 0 -0.25,-0.08203 1.5,1.5 0 0 0 -0.05273,-0.0098 1.5,1.5 0 0 0 -0.06836,-0.01172 1.5,1.5 0 0 0 -0.08398,-0.01172 A 1.5,1.5 0 0 0 35,48.5 H 25 a 1.5,1.5 0 0 0 -0.433594,0.07031 1.5,1.5 0 0 0 -0.109375,0.04492 1.5,1.5 0 0 0 -0.28125,0.142578 1.5,1.5 0 0 0 -0.11914,0.0918 1.5,1.5 0 0 0 -0.207032,0.207032 1.5,1.5 0 0 0 -0.0918,0.11914 1.5,1.5 0 0 0 -0.142578,0.28125 1.5,1.5 0 0 0 -0.04492,0.109375 A 1.5,1.5 0 0 0 23.5,50 v 10 5.167969 h -7 v -4.056641 -10 V 50 A 1.50015,1.50015 0 0 0 15,48.5 Z"
         id="path5" />
    </g>
  </g>
</svg>
