<?xml version="1.0" encoding="UTF-8" standalone="no"?>
<svg
   version="1.1"
   width="100"
   height="100"
   id="svg21"
   sodipodi:docname="set_fill_castle3.svg"
   inkscape:version="1.3.1 (9b9bdc1480, 2023-11-25, custom)"
   xmlns:inkscape="http://www.inkscape.org/namespaces/inkscape"
   xmlns:sodipodi="http://sodipodi.sourceforge.net/DTD/sodipodi-0.dtd"
   xmlns="http://www.w3.org/2000/svg"
   xmlns:svg="http://www.w3.org/2000/svg">
  <defs
     id="defs21" />
  <sodipodi:namedview
     id="namedview21"
     pagecolor="#ffffff"
     bordercolor="#000000"
     borderopacity="0.25"
     inkscape:showpageshadow="2"
     inkscape:pageopacity="0.0"
     inkscape:pagecheckerboard="0"
     inkscape:deskcolor="#d1d1d1"
     showgrid="false"
     inkscape:zoom="5.1833764"
     inkscape:cx="83.150435"
     inkscape:cy="48.809884"
     inkscape:window-width="1870"
     inkscape:window-height="1011"
     inkscape:window-x="50"
     inkscape:window-y="32"
     inkscape:window-maximized="1"
     inkscape:current-layer="layer1" />
  <g
     id="ViewLayer_LineSet"
     inkscape:groupmode="lineset"
     inkscape:label="ViewLayer_LineSet">
    <g
       inkscape:groupmode="layer"
       id="strokes"
       inkscape:label="strokes"
       style="display:inline">
      <path
         style="color:#000000;display:inline;fill:#000000;stroke:#000000;stroke-linecap:round;stroke-linejoin:round;-inkscape-stroke:none"
         d="M 5,48.5 A 1.50015,1.50015 0 0 0 3.5,50 v 10 1.111328 5.556641 5.554687 5.554688 10 6.666015 a 1.5,1.5 0 0 0 1.5,1.5 h 10 10 10 10 10 10 10 10 10 a 1.50015,1.50015 0 0 0 1.5,-1.5 v -10 -6.666015 -5.554688 -5.554687 -10 V 50 a 1.5,1.5 0 0 0 -0.03516,-0.3125 1.5,1.5 0 0 0 -0.0078,-0.03711 1.5,1.5 0 0 0 -0.105469,-0.298829 1.5,1.5 0 0 0 0,-0.002 1.5,1.5 0 0 0 -0.002,-0.0039 1.5,1.5 0 0 0 -0.173828,-0.275391 1.5,1.5 0 0 0 -0.0039,-0.0059 1.5,1.5 0 0 0 -0.0039,-0.0039 1.5,1.5 0 0 0 -0.228516,-0.228516 1.5,1.5 0 0 0 -0.0039,-0.0039 1.5,1.5 0 0 0 -0.0059,-0.0039 1.5,1.5 0 0 0 -0.275391,-0.173828 1.5,1.5 0 0 0 -0.0039,-0.002 1.5,1.5 0 0 0 -0.002,0 1.5,1.5 0 0 0 -0.298829,-0.105469 1.5,1.5 0 0 0 -0.03711,-0.0078 A 1.5,1.5 0 0 0 95,48.5 H 85 a 1.5,1.5 0 0 0 -0.433594,0.07031 1.5,1.5 0 0 0 -0.109375,0.04492 1.5,1.5 0 0 0 -0.28125,0.142578 1.5,1.5 0 0 0 -0.11914,0.0918 1.5,1.5 0 0 0 -0.207032,0.207032 1.5,1.5 0 0 0 -0.0918,0.11914 1.5,1.5 0 0 0 -0.142578,0.28125 1.5,1.5 0 0 0 -0.04492,0.109375 A 1.5,1.5 0 0 0 83.5,50 v 10 5.167969 h -7 v -8.5 V 50 A 1.50015,1.50015 0 0 0 75,48.5 H 69.443359 65 a 1.5,1.5 0 0 0 -0.419922,0.06836 1.5,1.5 0 0 0 -0.07031,0.01953 1.5,1.5 0 0 0 -0.378907,0.193359 1.5,1.5 0 0 0 -0.0332,0.02734 1.5,1.5 0 0 0 -0.289062,0.289062 1.5,1.5 0 0 0 -0.02734,0.0332 1.5,1.5 0 0 0 -0.193359,0.378907 1.5,1.5 0 0 0 -0.01953,0.07031 A 1.5,1.5 0 0 0 63.5,50 v 10 5.167969 h -7 v -8.5 V 50 A 1.50015,1.50015 0 0 0 55,48.5 H 45 A 1.50015,1.50015 0 0 0 43.5,50 v 10 5.167969 h -7 v -8.5 V 50 a 1.5,1.5 0 0 0 -0.0059,-0.128906 1.5,1.5 0 0 0 -0.0059,-0.04492 1.5,1.5 0 0 0 -0.113281,-0.423828 1.5,1.5 0 0 0 -0.02148,-0.04687 1.5,1.5 0 0 0 -0.05469,-0.105469 1.5,1.5 0 0 0 -0.0078,-0.01172 1.5,1.5 0 0 0 -0.160157,-0.222656 1.5,1.5 0 0 0 -0.03516,-0.03906 1.5,1.5 0 0 0 -0.07227,-0.07227 1.5,1.5 0 0 0 -0.03906,-0.03516 1.5,1.5 0 0 0 -0.103516,-0.08203 1.5,1.5 0 0 0 -0.01563,-0.01172 1.5,1.5 0 0 0 -0.115234,-0.07422 1.5,1.5 0 0 0 -0.01953,-0.0098 1.5,1.5 0 0 0 -0.08594,-0.04492 1.5,1.5 0 0 0 -0.04687,-0.02148 1.5,1.5 0 0 0 -0.285156,-0.0918 1.5,1.5 0 0 0 -0.0078,-0.002 1.5,1.5 0 0 0 -0.13086,-0.01953 1.5,1.5 0 0 0 -0.04492,-0.0059 A 1.5,1.5 0 0 0 35,48.5 H 30.556641 25 a 1.5,1.5 0 0 0 -0.419922,0.06836 1.5,1.5 0 0 0 -0.07031,0.01953 1.5,1.5 0 0 0 -0.378907,0.193359 1.5,1.5 0 0 0 -0.0332,0.02734 1.5,1.5 0 0 0 -0.289062,0.289062 1.5,1.5 0 0 0 -0.02734,0.0332 1.5,1.5 0 0 0 -0.193359,0.378907 1.5,1.5 0 0 0 -0.01953,0.07031 A 1.5,1.5 0 0 0 23.5,50 v 10 5.167969 h -7 v -4.056641 -10 V 50 A 1.50015,1.50015 0 0 0 15,48.5 Z"
         id="path7" />
    </g>
    <g
       inkscape:groupmode="layer"
       id="layer1"
       inkscape:label="strokes 1"
       style="display:inline">
      <path
         style="color:#000000;fill:#000000;stroke:#000000;stroke-linecap:round;stroke-linejoin:round;-inkscape-stroke:none"
         d="m 69.44336,75.5 c -0.828427,0 -1.5,-0.671573 -1.5,-1.5 v -34 -6.667969 -5.554687 -5.554688 -10 -5.1660154 h -4.77539 v 8.5000004 6.666015 c -8.3e-5,0.828393 -0.671607,1.499917 -1.5,1.5 h -7.779297 c -0.828393,-8.3e-5 -1.499917,-0.671607 -1.5,-1.5 v -10 -5.1660154 h -4.777344 v 8.5000004 6.666015 c -8.3e-5,0.828393 -0.671607,1.499917 -1.5,1.5 h -7.779297 c -0.828427,0 -1.5,-0.671573 -1.5,-1.5 V 16.667969 7.0566406 h -4.77539 v 8.5000004 1.111328 5.554687 5.554688 5.554687 10 V 74 c 0,0.828427 -0.671573,1.5 -1.5,1.5 H 69.44336 c 0.828427,0 1.5,-0.671573 1.5,-1.5 v -34 -6.667969 -5.554687 -5.554688 -10 -6.6660154 c -8.3e-5,-0.8283928 -0.671607,-1.4999172 -1.5,-1.5 h -7.77539 c -0.177171,0.00302 -0.352405,0.037403 -0.517578,0.1015625 -0.05707,0.025166 -0.112518,0.053868 -0.166016,0.085937 -0.104985,0.053377 -0.203319,0.1189326 -0.292969,0.1953125 -0.04993,0.043713 -0.09691,0.090691 -0.140625,0.140625 -0.07638,0.08965 -0.141935,0.1879835 -0.195312,0.2929688 -0.03207,0.053498 -0.06077,0.1089441 -0.08594,0.1660156 -0.06416,0.165173 -0.09855,0.3404075 -0.101562,0.5175781 v 10.0000009 5.166015 h -4.779297 v -8.5 -6.6660159 c -1.1e-4,-0.056128 -0.0034,-0.1122059 -0.0098,-0.1679687 v -0.00195 c -0.0061,-0.055151 -0.0152,-0.1099229 -0.02734,-0.1640626 -0.0013,-0.00522 -0.0026,-0.010424 -0.0039,-0.015625 -0.0096,-0.038181 -0.02065,-0.075971 -0.0332,-0.1132812 v -0.00195 c -0.0068,-0.019678 -0.01392,-0.039214 -0.02148,-0.058594 -0.01563,-0.043101 -0.03323,-0.085464 -0.05273,-0.1269531 -0.0019,-0.00326 -0.0039,-0.00652 -0.0059,-0.00977 -0.02293,-0.047532 -0.04836,-0.09382 -0.07617,-0.1386719 -0.0058,-0.00852 -0.01163,-0.016988 -0.01758,-0.025391 -0.02498,-0.038311 -0.0517,-0.075459 -0.08008,-0.1113281 -0.0026,-0.00327 -0.0052,-0.00652 -0.0078,-0.00977 -0.06783,-0.083496 -0.14444,-0.1594543 -0.228515,-0.2265625 -0.0065,-0.00461 -0.01299,-0.00917 -0.01953,-0.013672 -0.03769,-0.029857 -0.0768,-0.057884 -0.117188,-0.083984 -0.0052,-0.00329 -0.0104,-0.00654 -0.01563,-0.00977 -0.04303,-0.026306 -0.08736,-0.050425 -0.132813,-0.072266 -0.0052,-0.00198 -0.0104,-0.00394 -0.01562,-0.00586 -0.03646,-0.017113 -0.07361,-0.032751 -0.111329,-0.046875 -0.02003,-0.00759 -0.04021,-0.014756 -0.06055,-0.021484 -0.03731,-0.01255 -0.0751,-0.023626 -0.113281,-0.033203 -0.0052,-0.00133 -0.01041,-0.00263 -0.01563,-0.00391 -0.0065,-0.00135 -0.01301,-0.00265 -0.01953,-0.00391 -0.04841,-0.010224 -0.0973,-0.018046 -0.146484,-0.023438 h -0.002 C 53.999471,4.06007 53.944052,4.05681 53.888575,4.05662 h -7.777344 c -0.142417,0.00209 -0.283811,0.024446 -0.419922,0.066406 -0.03229,0.010631 -0.06421,0.022356 -0.0957,0.035156 -0.109311,0.040489 -0.21353,0.093581 -0.310547,0.1582031 -0.02451,0.014288 -0.04861,0.029268 -0.07227,0.044922 -0.112387,0.084551 -0.212324,0.1844885 -0.296875,0.296875 -0.01565,0.023659 -0.03063,0.047757 -0.04492,0.072266 -0.06462,0.097017 -0.117714,0.2012357 -0.158203,0.3105468 -0.0128,0.031494 -0.02453,0.063413 -0.03516,0.095703 -0.04196,0.1361112 -0.06432,0.277505 -0.06641,0.4199218 V 15.556641 20.722656 H 39.832031 V 16.667969 6.6679688 5.5566406 c 1.16e-4,-0.052184 -0.0025,-0.104338 -0.0078,-0.15625 -6.3e-4,-0.00456 -0.0013,-0.00912 -0.002,-0.013672 -0.0055,-0.047875 -0.01334,-0.095456 -0.02344,-0.1425782 -6.49e-4,-0.0013 -0.0013,-0.00261 -0.002,-0.00391 -0.02113,-0.1006109 -0.05254,-0.1987832 -0.09375,-0.2929688 -0.0038,-0.00785 -0.0077,-0.015659 -0.01172,-0.023437 -0.01845,-0.039931 -0.03866,-0.079032 -0.06055,-0.1171875 -0.0019,-0.00326 -0.0039,-0.00652 -0.0059,-0.00977 -0.04792,-0.081901 -0.103512,-0.15907 -0.166016,-0.2304688 -0.02137,-0.024145 -0.04352,-0.047595 -0.06641,-0.070312 -0.0096,-0.00924 -0.01941,-0.01836 -0.0293,-0.027344 -0.01342,-0.013278 -0.0271,-0.026301 -0.04102,-0.039063 -0.07423,-0.065056 -0.154697,-0.1226268 -0.240235,-0.171875 -0.0078,-0.00397 -0.01559,-0.00788 -0.02344,-0.011719 -0.03816,-0.021891 -0.07726,-0.042093 -0.117188,-0.060547 -0.0033,-0.00131 -0.0065,-0.00262 -0.0098,-0.00391 -0.09238,-0.040162 -0.188567,-0.070916 -0.28711,-0.091797 -0.002,-6.551e-4 -0.0039,-0.00131 -0.0059,-0.00195 -0.0497,-0.010352 -0.0999,-0.018175 -0.150391,-0.023437 -0.0033,-1.06e-5 -0.0065,-1.06e-5 -0.0098,0 -0.04867,-0.00499 -0.09756,-0.0076 -0.146485,-0.00781 l -7.775135,6.3e-6 c -0.177947,0.00341 -0.353867,0.038462 -0.519532,0.1035156 -0.02694,0.00836 -0.05365,0.017478 -0.08008,0.027344 -0.154874,0.069324 -0.296863,0.1644238 -0.419922,0.28125 -0.02351,0.022046 -0.04631,0.044844 -0.06836,0.068359 -0.116826,0.1230588 -0.211926,0.2650478 -0.28125,0.4199218 -0.0099,0.02643 -0.01898,0.053134 -0.02734,0.080078 -0.06505,0.1656645 -0.100105,0.3415844 -0.103515,0.5195312 v 10.0000008 1.111328 5.554687 5.554688 5.554687 10 V 74 c 0,0.828427 0.671573,1.5 1.5,1.5"
         id="path1"
         sodipodi:nodetypes="csccccccccccccccccccsscccccccccsccscccccccccccccccccccccccccccccccsccccccccccccccccccccccccccccccccccccccccccccccccccccccccccccccccccsc" />
    </g>
  </g>
</svg>
