<?xml version="1.0" encoding="UTF-8" standalone="no"?>
<svg
   version="1.1"
   width="100"
   height="100"
   id="svg5"
   sodipodi:docname="islamic_3.svg"
   inkscape:version="1.3.1 (9b9bdc1480, 2023-11-25, custom)"
   xmlns:inkscape="http://www.inkscape.org/namespaces/inkscape"
   xmlns:sodipodi="http://sodipodi.sourceforge.net/DTD/sodipodi-0.dtd"
   xmlns="http://www.w3.org/2000/svg"
   xmlns:svg="http://www.w3.org/2000/svg">
  <defs
     id="defs5" />
  <sodipodi:namedview
     id="namedview5"
     pagecolor="#ffffff"
     bordercolor="#000000"
     borderopacity="0.25"
     inkscape:showpageshadow="2"
     inkscape:pageopacity="0.0"
     inkscape:pagecheckerboard="0"
     inkscape:deskcolor="#d1d1d1"
     inkscape:zoom="7.37"
     inkscape:cx="50"
     inkscape:cy="49.932157"
     inkscape:window-width="1920"
     inkscape:window-height="1043"
     inkscape:window-x="1920"
     inkscape:window-y="0"
     inkscape:window-maximized="1"
     inkscape:current-layer="strokes" />
  <g
     id="ViewLayer_LineSet"
     inkscape:groupmode="lineset"
     inkscape:label="ViewLayer_LineSet">
    <g
       inkscape:groupmode="layer"
       id="strokes"
       inkscape:label="strokes">
      <path
         fill="none"
         stroke-width="3.0"
         stroke-linecap="butt"
         stroke-opacity="1.0"
         stroke="rgb(0, 0, 0)"
         stroke-linejoin="round"
         d=" M 30.083, 39.162 31.378, 40.950 32.830, 42.604 34.425, 44.111 36.153, 45.462 38.001, 46.645 39.959, 47.651 42.013, 48.467 44.152, 49.085 46.365, 49.492 48.640, 49.679 50.965, 49.634 54.066, 49.204 57.011, 48.377 59.774, 47.182 62.330, 45.650 64.654, 43.809 66.720, 41.690 68.503, 39.322 69.977, 36.735 71.119, 33.958 71.901, 31.022 72.299, 27.955 72.288, 24.788 72.026, 22.550 71.563, 20.388 70.911, 18.311 70.078, 16.328 69.076, 14.448 67.914, 12.680 66.603, 11.033 65.152, 9.515 63.571, 8.137 61.871, 6.907 60.062, 5.834 58.154, 4.927 58.691, 5.748 59.196, 6.596 59.665, 7.467 60.099, 8.362 60.496, 9.279 60.853, 10.217 61.171, 11.175 61.447, 12.151 61.681, 13.144 61.870, 14.154 62.014, 15.179 62.111, 16.217 62.122, 19.275 61.738, 22.236 60.984, 25.070 59.883, 27.749 58.461, 30.243 56.740, 32.525 54.747, 34.564 52.505, 36.333 50.038, 37.803 47.371, 38.944 44.528, 39.728 41.533, 40.127 40.401, 40.177 39.279, 40.170 38.168, 40.106 37.070, 39.988 35.987, 39.817 34.920, 39.594 33.872, 39.321 32.843, 38.999 31.835, 38.629 30.850, 38.213 29.889, 37.753 28.955, 37.249 30.083, 39.162 "
         id="path1"
         style="stroke-linecap:round" />
      <path
         fill="none"
         stroke-width="3.0"
         stroke-linecap="butt"
         stroke-opacity="1.0"
         stroke="rgb(0, 0, 0)"
         stroke-linejoin="round"
         d=" M 52.638, 55.733 50.000, 55.556 47.362, 55.733 44.832, 56.250 42.433, 57.084 40.187, 58.211 38.119, 59.608 36.252, 61.252 34.608, 63.119 33.211, 65.187 32.084, 67.433 31.250, 69.832 30.733, 72.362 30.556, 75.000 30.733, 77.638 31.250, 80.168 32.084, 82.567 33.211, 84.813 34.608, 86.881 36.252, 88.748 38.119, 90.392 40.187, 91.789 42.433, 92.916 44.832, 93.750 47.362, 94.267 50.000, 94.445 52.638, 94.267 55.168, 93.750 57.567, 92.916 59.813, 91.789 61.881, 90.392 63.748, 88.748 65.392, 86.881 66.789, 84.813 67.916, 82.567 68.750, 80.168 69.267, 77.638 69.444, 75.000 69.267, 72.362 68.750, 69.832 67.916, 67.433 66.789, 65.187 65.392, 63.119 63.748, 61.252 61.881, 59.608 59.813, 58.211 57.567, 57.084 55.168, 56.250 52.638, 55.733 "
         id="path2" />
      <path
         fill="none"
         stroke-width="3.0"
         stroke-linecap="butt"
         stroke-opacity="1.0"
         stroke="rgb(0, 0, 0)"
         stroke-linejoin="round"
         d=" M 52.638, 55.733 50.000, 55.556 47.362, 55.733 44.832, 56.250 42.433, 57.084 40.187, 58.211 38.119, 59.608 36.252, 61.252 34.608, 63.119 33.211, 65.187 32.084, 67.433 31.250, 69.832 30.733, 72.362 30.556, 75.000 30.733, 77.638 31.250, 80.168 32.084, 82.567 33.211, 84.813 34.608, 86.881 36.252, 88.748 38.119, 90.392 40.187, 91.789 42.433, 92.916 44.832, 93.750 47.362, 94.267 50.000, 94.445 52.638, 94.267 55.168, 93.750 57.567, 92.916 59.813, 91.789 61.881, 90.392 63.748, 88.748 65.392, 86.881 66.789, 84.813 67.916, 82.567 68.750, 80.168 69.267, 77.638 69.444, 75.000 69.267, 72.362 68.750, 69.832 67.916, 67.433 66.789, 65.187 65.392, 63.119 63.748, 61.252 61.881, 59.608 59.813, 58.211 57.567, 57.084 55.168, 56.250 52.638, 55.733 "
         id="path3"
         style="stroke-linecap:round" />
      <path
         fill="none"
         stroke-width="3.0"
         stroke-linecap="butt"
         stroke-opacity="1.0"
         stroke="rgb(0, 0, 0)"
         stroke-linejoin="round"
         d=" M 50.754, 69.495 50.000, 69.445 49.246, 69.495 48.523, 69.643 47.838, 69.881 47.196, 70.203 46.606, 70.602 46.072, 71.072 45.602, 71.606 45.203, 72.196 44.881, 72.838 44.643, 73.523 44.495, 74.246 44.444, 75.000 44.495, 75.754 44.643, 76.477 44.881, 77.162 45.203, 77.804 45.602, 78.395 46.072, 78.928 46.606, 79.398 47.196, 79.797 47.838, 80.119 48.523, 80.357 49.246, 80.505 50.000, 80.556 50.754, 80.505 51.477, 80.357 52.162, 80.119 52.804, 79.797 53.394, 79.398 53.928, 78.928 54.398, 78.395 54.797, 77.804 55.119, 77.162 55.357, 76.477 55.505, 75.754 55.556, 75.000 55.505, 74.246 55.357, 73.523 55.119, 72.838 54.797, 72.196 54.398, 71.606 53.928, 71.072 53.394, 70.602 52.804, 70.203 52.162, 69.881 51.477, 69.643 50.754, 69.495 "
         id="path4" />
      <path
         fill="none"
         stroke-width="3.0"
         stroke-linecap="butt"
         stroke-opacity="1.0"
         stroke="rgb(0, 0, 0)"
         stroke-linejoin="round"
         d=" M 50.754, 69.495 50.000, 69.445 49.246, 69.495 48.523, 69.643 47.838, 69.881 47.196, 70.203 46.606, 70.602 46.072, 71.072 45.602, 71.606 45.203, 72.196 44.881, 72.838 44.643, 73.523 44.495, 74.246 44.444, 75.000 44.495, 75.754 44.643, 76.477 44.881, 77.162 45.203, 77.804 45.602, 78.395 46.072, 78.928 46.606, 79.398 47.196, 79.797 47.838, 80.119 48.523, 80.357 49.246, 80.505 50.000, 80.556 50.754, 80.505 51.477, 80.357 52.162, 80.119 52.804, 79.797 53.394, 79.398 53.928, 78.928 54.398, 78.395 54.797, 77.804 55.119, 77.162 55.357, 76.477 55.505, 75.754 55.556, 75.000 55.505, 74.246 55.357, 73.523 55.119, 72.838 54.797, 72.196 54.398, 71.606 53.928, 71.072 53.394, 70.602 52.804, 70.203 52.162, 69.881 51.477, 69.643 50.754, 69.495 "
         id="path5"
         style="stroke-linecap:round;fill:#000000" />
    </g>
  </g>
</svg>
