<?xml version="1.0" encoding="UTF-8" standalone="no"?>
<svg
   version="1.1"
   width="100"
   height="100"
   id="svg6"
   sodipodi:docname="temple.svg"
   inkscape:version="1.3.1 (9b9bdc1480, 2023-11-25, custom)"
   xmlns:inkscape="http://www.inkscape.org/namespaces/inkscape"
   xmlns:sodipodi="http://sodipodi.sourceforge.net/DTD/sodipodi-0.dtd"
   xmlns="http://www.w3.org/2000/svg"
   xmlns:svg="http://www.w3.org/2000/svg">
  <defs
     id="defs6" />
  <sodipodi:namedview
     id="namedview6"
     pagecolor="#ffffff"
     bordercolor="#000000"
     borderopacity="0.25"
     inkscape:showpageshadow="2"
     inkscape:pageopacity="0.0"
     inkscape:pagecheckerboard="0"
     inkscape:deskcolor="#d1d1d1"
     inkscape:zoom="7.37"
     inkscape:cx="50"
     inkscape:cy="49.932157"
     inkscape:window-width="1920"
     inkscape:window-height="1043"
     inkscape:window-x="1920"
     inkscape:window-y="0"
     inkscape:window-maximized="1"
     inkscape:current-layer="strokes" />
  <g
     id="ViewLayer_LineSet"
     inkscape:groupmode="lineset"
     inkscape:label="ViewLayer_LineSet">
    <g
       inkscape:groupmode="layer"
       id="strokes"
       inkscape:label="strokes">
      <path
         fill="none"
         stroke-width="3.0"
         stroke-linecap="butt"
         stroke-opacity="1.0"
         stroke="rgb(0, 0, 0)"
         stroke-linejoin="round"
         d=" M 5.453, 94.835 15.453, 94.835 25.453, 94.835 35.453, 94.835 45.453, 94.835 55.453, 94.835 65.453, 94.835 75.453, 94.835 85.453, 94.835 94.342, 94.835 94.342, 84.835 94.342, 83.724 84.342, 83.724 74.342, 83.724 64.342, 83.724 54.342, 83.724 44.342, 83.724 34.342, 83.724 24.342, 83.724 14.342, 83.724 5.453, 83.724 5.453, 93.724 5.453, 94.835 "
         id="path1"
         style="stroke-linecap:round" />
      <path
         fill="none"
         stroke-width="3.0"
         stroke-linecap="butt"
         stroke-opacity="1.0"
         stroke="rgb(0, 0, 0)"
         stroke-linejoin="round"
         d=" M 11.009, 29.973 21.009, 29.973 22.120, 29.973 22.120, 39.973 22.120, 49.973 22.120, 59.973 22.120, 69.973 22.120, 79.973 22.120, 81.918 12.120, 81.918 11.009, 81.918 11.009, 71.918 11.009, 61.918 11.009, 51.918 11.009, 41.918 11.009, 31.918 11.009, 29.973 "
         id="path2"
         style="stroke-linecap:round" />
      <path
         fill="none"
         stroke-width="3.0"
         stroke-linecap="butt"
         stroke-opacity="1.0"
         stroke="rgb(0, 0, 0)"
         stroke-linejoin="round"
         d=" M 77.675, 29.973 87.675, 29.973 88.786, 29.973 88.786, 39.973 88.786, 49.973 88.786, 59.973 88.786, 69.973 88.786, 79.973 88.786, 81.918 78.786, 81.918 77.675, 81.918 77.675, 71.918 77.675, 61.918 77.675, 51.918 77.675, 41.918 77.675, 31.918 77.675, 29.973 "
         id="path3"
         style="stroke-linecap:round" />
      <path
         fill="none"
         stroke-width="3.0"
         stroke-linecap="butt"
         stroke-opacity="1.0"
         stroke="rgb(0, 0, 0)"
         stroke-linejoin="round"
         d=" M 33.231, 29.973 43.231, 29.973 44.342, 29.973 44.342, 39.973 44.342, 49.973 44.342, 59.973 44.342, 69.973 44.342, 79.973 44.342, 81.918 34.342, 81.918 33.231, 81.918 33.231, 71.918 33.231, 61.918 33.231, 51.918 33.231, 41.918 33.231, 31.918 33.231, 29.973 "
         id="path4"
         style="stroke-linecap:round" />
      <path
         fill="none"
         stroke-width="3.0"
         stroke-linecap="butt"
         stroke-opacity="1.0"
         stroke="rgb(0, 0, 0)"
         stroke-linejoin="round"
         d=" M 55.453, 29.973 65.453, 29.973 66.564, 29.973 66.564, 39.973 66.564, 49.973 66.564, 59.973 66.564, 69.973 66.564, 79.973 66.564, 81.918 56.564, 81.918 55.453, 81.918 55.453, 71.918 55.453, 61.918 55.453, 51.918 55.453, 41.918 55.453, 31.918 55.453, 29.973 "
         id="path5"
         style="stroke-linecap:round" />
      <path
         fill="none"
         stroke-width="3.0"
         stroke-linecap="butt"
         stroke-opacity="1.0"
         stroke="rgb(0, 0, 0)"
         stroke-linejoin="round"
         d=" M 5.453, 28.168 15.453, 28.168 25.453, 28.168 35.453, 28.168 45.453, 28.168 55.453, 28.168 65.453, 28.168 75.453, 28.168 85.453, 28.168 94.342, 28.168 94.342, 18.168 94.342, 17.057 84.641, 14.632 74.939, 12.206 65.238, 9.781 55.536, 7.356 49.898, 5.946 40.196, 8.371 30.495, 10.797 20.793, 13.222 11.092, 15.647 5.453, 17.057 5.453, 27.057 5.453, 28.168 "
         id="path6"
         style="stroke-linecap:round" />
    </g>
  </g>
</svg>
