<?xml version="1.0" encoding="UTF-8" standalone="no"?>
<svg
   version="1.1"
   width="100"
   height="100"
   id="svg6"
   sodipodi:docname="burial1.svg"
   inkscape:version="1.3.1 (9b9bdc1480, 2023-11-25, custom)"
   xmlns:inkscape="http://www.inkscape.org/namespaces/inkscape"
   xmlns:sodipodi="http://sodipodi.sourceforge.net/DTD/sodipodi-0.dtd"
   xmlns="http://www.w3.org/2000/svg"
   xmlns:svg="http://www.w3.org/2000/svg">
  <defs
     id="defs6" />
  <sodipodi:namedview
     id="namedview6"
     pagecolor="#ffffff"
     bordercolor="#000000"
     borderopacity="0.25"
     inkscape:showpageshadow="2"
     inkscape:pageopacity="0.0"
     inkscape:pagecheckerboard="0"
     inkscape:deskcolor="#d1d1d1"
     inkscape:zoom="8.4"
     inkscape:cx="50"
     inkscape:cy="50"
     inkscape:window-width="1920"
     inkscape:window-height="1043"
     inkscape:window-x="1920"
     inkscape:window-y="0"
     inkscape:window-maximized="1"
     inkscape:current-layer="strokes" />
  <g
     id="ViewLayer_LineSet"
     inkscape:groupmode="lineset"
     inkscape:label="ViewLayer_LineSet">
    <g
       inkscape:groupmode="layer"
       id="strokes"
       inkscape:label="strokes">
      <path
         fill="none"
         stroke-width="3.0"
         stroke-linecap="butt"
         stroke-opacity="1.0"
         stroke="rgb(0, 0, 0)"
         stroke-linejoin="round"
         d=" M 25.404, 75.062 15.404, 75.062 14.863, 75.062 14.863, 81.515 14.863, 87.711 14.863, 94.164 24.863, 94.164 34.863, 94.164 44.863, 94.164 54.863, 94.164 64.863, 94.164 74.863, 94.164 85.137, 94.164 85.137, 84.164 85.137, 81.515 85.137, 75.062 75.137, 75.062 74.596, 75.062 "
         id="path1"
         style="stroke-linecap:round" />
      <path
         fill="none"
         stroke-width="3.0"
         stroke-linecap="butt"
         stroke-opacity="1.0"
         stroke="rgb(0, 0, 0)"
         stroke-linejoin="round"
         d=" M 14.863, 75.062 14.863, 85.062 14.863, 87.711 "
         id="path2" />
      <path
         fill="none"
         stroke-width="3.0"
         stroke-linecap="butt"
         stroke-opacity="1.0"
         stroke="rgb(0, 0, 0)"
         stroke-linejoin="round"
         d=" M 85.137, 81.515 75.137, 81.515 65.137, 81.515 55.137, 81.515 45.137, 81.515 35.137, 81.515 25.137, 81.515 14.863, 81.515 "
         id="path3"
         style="stroke-linecap:round" />
      <path
         fill="none"
         stroke-width="3.0"
         stroke-linecap="butt"
         stroke-opacity="1.0"
         stroke="rgb(0, 0, 0)"
         stroke-linejoin="round"
         d=" M 74.596, 75.062 74.596, 65.062 74.596, 55.062 74.596, 45.062 74.596, 35.062 74.596, 25.062 74.596, 24.177 74.596, 17.724 66.662, 11.637 62.298, 8.289 52.355, 7.217 50.000, 6.963 40.058, 8.035 37.702, 8.289 29.768, 14.376 25.404, 17.724 25.404, 24.177 25.404, 34.177 25.404, 44.177 25.404, 54.177 25.404, 64.177 25.404, 74.177 25.404, 75.062 "
         id="path4"
         style="stroke-linecap:round" />
      <path
         fill="none"
         stroke-width="3.0"
         stroke-linecap="butt"
         stroke-opacity="1.0"
         stroke="rgb(0, 0, 0)"
         stroke-linejoin="round"
         d=" M 25.404, 75.062 25.404, 81.515 35.404, 81.515 37.702, 81.515 47.702, 81.515 50.000, 81.515 60.000, 81.515 62.298, 81.515 72.298, 81.515 74.596, 81.515 74.596, 75.062 "
         id="path5"
         style="stroke-linecap:round" />
      <path
         fill="none"
         stroke-width="3.0"
         stroke-linecap="butt"
         stroke-opacity="1.0"
         stroke="rgb(0, 0, 0)"
         stroke-linejoin="round"
         d=" M 74.596, 24.177 66.662, 18.090 62.298, 14.742 52.355, 13.670 50.000, 13.416 40.058, 14.488 37.702, 14.742 29.768, 20.829 25.404, 24.177 "
         id="path6"
         style="stroke-linecap:round" />
    </g>
  </g>
</svg>
