<?xml version="1.0" encoding="UTF-8" standalone="no"?>
<svg
   version="1.1"
   width="100"
   height="100"
   id="svg4"
   sodipodi:docname="rock_art.svg"
   inkscape:version="1.3.1 (9b9bdc1480, 2023-11-25, custom)"
   xmlns:inkscape="http://www.inkscape.org/namespaces/inkscape"
   xmlns:sodipodi="http://sodipodi.sourceforge.net/DTD/sodipodi-0.dtd"
   xmlns="http://www.w3.org/2000/svg"
   xmlns:svg="http://www.w3.org/2000/svg">
  <defs
     id="defs4" />
  <sodipodi:namedview
     id="namedview4"
     pagecolor="#ffffff"
     bordercolor="#000000"
     borderopacity="0.25"
     inkscape:showpageshadow="2"
     inkscape:pageopacity="0.0"
     inkscape:pagecheckerboard="0"
     inkscape:deskcolor="#d1d1d1"
     inkscape:zoom="8.4"
     inkscape:cx="50"
     inkscape:cy="50"
     inkscape:window-width="1920"
     inkscape:window-height="1043"
     inkscape:window-x="1920"
     inkscape:window-y="0"
     inkscape:window-maximized="1"
     inkscape:current-layer="strokes" />
  <g
     id="ViewLayer_LineSet"
     inkscape:groupmode="lineset"
     inkscape:label="ViewLayer_LineSet">
    <g
       inkscape:groupmode="layer"
       id="strokes"
       inkscape:label="strokes">
      <path
         fill="none"
         stroke-width="3.0"
         stroke-linecap="butt"
         stroke-opacity="1.0"
         stroke="rgb(0, 0, 0)"
         stroke-linejoin="round"
         d=" M 50.212, 10.909 42.429, 11.676 34.944, 13.946 28.046, 17.633 22.000, 22.595 17.039, 28.641 13.352, 35.539 11.081, 43.023 10.315, 50.807 11.081, 58.591 13.352, 66.075 17.039, 72.973 22.000, 79.019 28.046, 83.981 34.944, 87.668 42.429, 89.938 48.611, 90.547 50.212, 90.705 51.389, 90.589 57.996, 89.938 65.481, 87.668 72.378, 83.981 78.424, 79.019 83.386, 72.973 87.073, 66.075 89.343, 58.591 90.110, 50.807 89.343, 43.023 87.073, 35.539 83.386, 28.641 78.424, 22.595 72.378, 17.633 65.481, 13.946 57.996, 11.676 50.212, 10.909 "
         id="path1"
         style="stroke-linecap:round" />
      <path
         fill="none"
         stroke-width="3.0"
         stroke-linecap="butt"
         stroke-opacity="1.0"
         stroke="rgb(0, 0, 0)"
         stroke-linejoin="round"
         d=" M 48.611, 94.375 51.389, 94.375 51.389, 90.589 51.389, 80.589 51.389, 75.643 51.389, 65.643 51.389, 60.378 51.389, 50.378 51.389, 47.592 48.611, 47.592 48.611, 57.592 48.611, 60.336 48.611, 70.336 48.611, 75.601 48.611, 85.601 48.611, 90.547 48.611, 94.375 "
         id="path2"
         style="stroke-linecap:round" />
      <path
         fill="none"
         stroke-width="3.0"
         stroke-linecap="butt"
         stroke-opacity="1.0"
         stroke="rgb(0, 0, 0)"
         stroke-linejoin="round"
         d=" M 50.212, 25.488 45.309, 25.971 40.593, 27.401 36.248, 29.724 32.439, 32.850 29.313, 36.659 26.990, 41.004 25.560, 45.720 25.077, 50.623 25.560, 55.527 26.990, 60.242 29.313, 64.588 32.439, 68.397 36.248, 71.523 40.593, 73.846 45.309, 75.276 48.611, 75.601 50.212, 75.759 51.389, 75.643 55.116, 75.276 59.831, 73.846 64.177, 71.523 67.986, 68.397 71.112, 64.588 73.435, 60.242 74.865, 55.527 75.348, 50.623 74.865, 45.720 73.435, 41.004 71.112, 36.659 67.986, 32.850 64.177, 29.724 59.831, 27.401 55.116, 25.971 50.212, 25.488 "
         id="path3"
         style="stroke-linecap:round" />
      <path
         fill="none"
         stroke-width="3.0"
         stroke-linecap="butt"
         stroke-opacity="1.0"
         stroke="rgb(0, 0, 0)"
         stroke-linejoin="round"
         d=" M 50.212, 40.386 48.251, 40.579 46.365, 41.151 44.627, 42.080 43.103, 43.331 41.853, 44.854 40.923, 46.592 40.351, 48.478 40.158, 50.440 40.351, 52.401 40.923, 54.288 41.853, 56.026 43.103, 57.549 44.627, 58.800 46.365, 59.729 48.251, 60.301 48.611, 60.336 50.212, 60.494 51.389, 60.378 52.174, 60.301 54.060, 59.729 55.798, 58.800 57.322, 57.549 58.572, 56.026 59.501, 54.288 60.073, 52.401 60.267, 50.440 60.073, 48.478 59.501, 46.592 58.572, 44.854 57.322, 43.331 55.798, 42.080 54.060, 41.151 52.174, 40.579 50.212, 40.386 "
         id="path4"
         style="stroke-linecap:round" />
    </g>
  </g>
</svg>
