<?xml version="1.0" encoding="UTF-8" standalone="no"?>
<svg
   version="1.1"
   width="100"
   height="100"
   id="svg3"
   sodipodi:docname="castle2.svg"
   inkscape:version="1.3.1 (9b9bdc1480, 2023-11-25, custom)"
   xmlns:inkscape="http://www.inkscape.org/namespaces/inkscape"
   xmlns:sodipodi="http://sodipodi.sourceforge.net/DTD/sodipodi-0.dtd"
   xmlns="http://www.w3.org/2000/svg"
   xmlns:svg="http://www.w3.org/2000/svg">
  <defs
     id="defs3" />
  <sodipodi:namedview
     id="namedview3"
     pagecolor="#ffffff"
     bordercolor="#000000"
     borderopacity="0.25"
     inkscape:showpageshadow="2"
     inkscape:pageopacity="0.0"
     inkscape:pagecheckerboard="0"
     inkscape:deskcolor="#d1d1d1"
     inkscape:zoom="5.939697"
     inkscape:cx="28.789348"
     inkscape:cy="44.951788"
     inkscape:window-width="1920"
     inkscape:window-height="1043"
     inkscape:window-x="1920"
     inkscape:window-y="0"
     inkscape:window-maximized="1"
     inkscape:current-layer="strokes" />
  <g
     id="ViewLayer_LineSet"
     inkscape:groupmode="lineset"
     inkscape:label="ViewLayer_LineSet">
    <g
       inkscape:groupmode="layer"
       id="strokes"
       inkscape:label="strokes">
      <path
         fill="none"
         stroke-width="3"
         stroke-linecap="butt"
         stroke-opacity="1"
         stroke="#000000"
         stroke-linejoin="round"
         d="m 44.444,77.778 v -10 -1.111 h -5.555 -2.167 -3.389 v 10 1.111 h -6.944 -6.945 v -10 -1.111 H 12.5 5.556 v 10 1.111 10 6.666 h 6.944 6.944 6.945 6.944 5.556 5.555 10 1.112 5.555 5.556 6.944 6.945 6.944 6.944 v -10 -6.666 -10 -1.111 H 87.5 80.556 v 10 1.111 h -6.945 -6.944 v -10 -1.111 H 63.278 61.111 55.556 V 77.778 H 44.444"
         id="path1"
         style="display:inline;stroke-linecap:round"
         sodipodi:nodetypes="ccccccccccccccccccccccccccccccccccccccccccccccccc" />
      <path
         fill="none"
         stroke-width="3.0"
         stroke-linecap="butt"
         stroke-opacity="1.0"
         stroke="rgb(0, 0, 0)"
         stroke-linejoin="round"
         d=" M 63.278, 66.667 62.629, 56.688 61.981, 46.709 61.332, 36.730 61.111, 33.333 66.667, 33.333 76.667, 33.333 77.778, 33.333 77.778, 23.333 77.778, 16.667 77.778, 6.667 77.778, 5.556 67.778, 5.556 66.667, 5.556 66.667, 15.556 66.667, 16.667 61.111, 16.667 55.556, 16.667 55.556, 6.667 55.556, 5.556 45.556, 5.556 44.444, 5.556 44.444, 15.556 44.444, 16.667 38.889, 16.667 33.333, 16.667 33.333, 6.667 33.333, 5.556 23.333, 5.556 22.222, 5.556 22.222, 15.556 22.222, 16.667 22.222, 26.667 22.222, 33.333 32.222, 33.333 33.333, 33.333 38.889, 33.333 38.240, 43.312 37.592, 53.291 36.943, 63.270 36.722, 66.667 "
         id="path3"
         style="stroke-linecap:round" />
    </g>
  </g>
</svg>
