<?xml version="1.0" encoding="UTF-8" standalone="no"?>
<svg
   version="1.1"
   width="100"
   height="100"
   id="svg3"
   sodipodi:docname="mosque.svg"
   inkscape:version="1.3.1 (9b9bdc1480, 2023-11-25, custom)"
   xmlns:inkscape="http://www.inkscape.org/namespaces/inkscape"
   xmlns:sodipodi="http://sodipodi.sourceforge.net/DTD/sodipodi-0.dtd"
   xmlns="http://www.w3.org/2000/svg"
   xmlns:svg="http://www.w3.org/2000/svg">
  <defs
     id="defs3" />
  <sodipodi:namedview
     id="namedview3"
     pagecolor="#ffffff"
     bordercolor="#000000"
     borderopacity="0.25"
     inkscape:showpageshadow="2"
     inkscape:pageopacity="0.0"
     inkscape:pagecheckerboard="0"
     inkscape:deskcolor="#d1d1d1"
     inkscape:zoom="7.37"
     inkscape:cx="50"
     inkscape:cy="49.932157"
     inkscape:window-width="1920"
     inkscape:window-height="1043"
     inkscape:window-x="1920"
     inkscape:window-y="0"
     inkscape:window-maximized="1"
     inkscape:current-layer="strokes" />
  <g
     id="ViewLayer_LineSet"
     inkscape:groupmode="lineset"
     inkscape:label="ViewLayer_LineSet">
    <g
       inkscape:groupmode="layer"
       id="strokes"
       inkscape:label="strokes">
      <path
         fill="none"
         stroke-width="3.0"
         stroke-linecap="butt"
         stroke-opacity="1.0"
         stroke="rgb(0, 0, 0)"
         stroke-linejoin="round"
         d=" M 11.697, 38.889 6.197, 33.333 9.330, 23.837 11.697, 16.667 15.800, 7.547 16.697, 5.556 20.800, 14.675 21.697, 16.667 24.830, 26.163 27.197, 33.333 21.697, 38.889 21.697, 48.889 21.697, 58.889 21.697, 66.904 21.697, 76.904 21.697, 86.904 21.697, 94.444 11.697, 94.444 11.697, 84.444 11.697, 74.444 11.697, 64.444 11.697, 54.444 11.697, 44.444 11.697, 38.889 "
         id="path1"
         style="stroke-linecap:round" />
      <path
         fill="none"
         stroke-width="3.0"
         stroke-linecap="butt"
         stroke-opacity="1.0"
         stroke="rgb(0, 0, 0)"
         stroke-linejoin="round"
         d=" M 21.697, 66.904 21.697, 76.904 21.697, 77.082 21.697, 87.082 21.697, 94.444 31.697, 94.444 41.697, 94.444 51.697, 94.444 58.259, 94.444 68.259, 94.444 78.259, 94.444 88.259, 94.444 94.822, 94.444 94.822, 84.444 94.822, 77.082 94.822, 67.082 94.822, 66.904 85.208, 66.904 85.035, 60.099 86.483, 57.823 87.850, 54.917 88.701, 51.985 88.601, 49.630 87.547, 47.545 85.538, 45.426 82.794, 43.365 79.535, 41.459 75.945, 39.609 72.205, 37.715 68.391, 35.800 66.593, 34.963 64.795, 34.233 63.896, 33.874 63.476, 32.289 63.057, 33.874 62.157, 34.233 60.360, 34.963 58.562, 35.800 54.748, 37.715 51.008, 39.609 47.418, 41.459 44.159, 43.365 41.415, 45.426 39.406, 47.545 38.352, 49.630 38.299, 51.985 39.291, 54.917 41.194, 57.823 43.871, 60.099 43.878, 66.904 33.878, 66.904 23.878, 66.904 21.697, 66.904 "
         id="path2"
         style="stroke-linecap:round" />
      <path
         fill="none"
         stroke-width="3.0"
         stroke-linecap="butt"
         stroke-opacity="1.0"
         stroke="rgb(0, 0, 0)"
         stroke-linejoin="round"
         d=" M 51.335, 25.657 52.089, 26.698 52.933, 27.659 53.861, 28.536 54.866, 29.322 55.941, 30.010 57.079, 30.595 58.274, 31.070 59.519, 31.429 60.806, 31.666 62.129, 31.774 63.481, 31.748 65.285, 31.498 66.998, 31.017 68.605, 30.322 70.091, 29.431 71.443, 28.360 72.644, 27.128 73.681, 25.751 74.539, 24.246 75.203, 22.631 75.658, 20.923 75.889, 19.140 75.883, 17.297 75.730, 15.996 75.461, 14.738 75.082, 13.530 74.598, 12.377 74.015, 11.283 73.339, 10.255 72.576, 9.297 71.732, 8.414 70.813, 7.613 69.824, 6.897 68.772, 6.273 67.662, 5.746 67.975, 6.224 68.268, 6.716 68.541, 7.223 68.794, 7.744 69.024, 8.277 69.232, 8.823 69.417, 9.380 69.578, 9.947 69.714, 10.525 69.824, 11.112 69.907, 11.708 69.964, 12.312 69.970, 14.091 69.747, 15.813 69.308, 17.461 68.668, 19.019 67.840, 20.470 66.840, 21.797 65.681, 22.983 64.376, 24.012 62.942, 24.867 61.390, 25.531 59.737, 25.987 57.995, 26.219 57.337, 26.248 56.684, 26.244 56.038, 26.207 55.400, 26.138 54.770, 26.039 54.149, 25.909 53.539, 25.750 52.941, 25.563 52.354, 25.348 51.781, 25.106 51.223, 24.838 50.679, 24.545 51.335, 25.657 "
         id="path3"
         style="stroke-linecap:round" />
    </g>
  </g>
</svg>
