<?xml version="1.0" encoding="UTF-8" standalone="no"?>
<svg
   version="1.1"
   width="100"
   height="100"
   id="svg3"
   sodipodi:docname="necropolis_cut_rock_graves.svg"
   inkscape:version="1.3.1 (9b9bdc1480, 2023-11-25, custom)"
   xmlns:inkscape="http://www.inkscape.org/namespaces/inkscape"
   xmlns:sodipodi="http://sodipodi.sourceforge.net/DTD/sodipodi-0.dtd"
   xmlns="http://www.w3.org/2000/svg"
   xmlns:svg="http://www.w3.org/2000/svg">
  <defs
     id="defs3" />
  <sodipodi:namedview
     id="namedview3"
     pagecolor="#ffffff"
     bordercolor="#000000"
     borderopacity="0.25"
     inkscape:showpageshadow="2"
     inkscape:pageopacity="0.0"
     inkscape:pagecheckerboard="0"
     inkscape:deskcolor="#d1d1d1"
     inkscape:zoom="8.4"
     inkscape:cx="50"
     inkscape:cy="50"
     inkscape:window-width="1920"
     inkscape:window-height="1043"
     inkscape:window-x="1920"
     inkscape:window-y="0"
     inkscape:window-maximized="1"
     inkscape:current-layer="strokes" />
  <g
     id="ViewLayer_LineSet"
     inkscape:groupmode="lineset"
     inkscape:label="ViewLayer_LineSet">
    <g
       inkscape:groupmode="layer"
       id="strokes"
       inkscape:label="strokes">
      <path
         fill="none"
         stroke-width="3.0"
         stroke-linecap="butt"
         stroke-opacity="1.0"
         stroke="rgb(0, 0, 0)"
         stroke-linejoin="round"
         d=" M 52.621, 94.188 53.945, 94.188 54.916, 84.235 55.887, 74.282 56.858, 64.330 57.830, 54.377 58.249, 50.086 56.382, 48.063 53.485, 48.063 53.460, 42.543 52.280, 39.764 49.976, 38.670 47.671, 39.764 46.491, 42.543 46.466, 48.063 43.569, 48.063 41.703, 50.086 42.673, 60.038 43.644, 69.991 44.615, 79.944 45.586, 89.897 46.005, 94.188 47.328, 94.188 48.651, 94.188 49.313, 94.188 49.975, 94.188 50.636, 94.188 51.298, 94.188 52.621, 94.188 "
         id="path1"
         style="stroke-linecap:round" />
      <path
         fill="none"
         stroke-width="3.0"
         stroke-linecap="butt"
         stroke-opacity="1.0"
         stroke="rgb(0, 0, 0)"
         stroke-linejoin="round"
         d=" M 12.493, 59.439 13.736, 59.891 18.053, 50.871 22.370, 41.851 26.686, 32.830 31.003, 23.810 32.864, 19.921 31.802, 17.382 29.080, 16.391 30.945, 11.196 30.785, 8.180 28.995, 6.364 26.455, 6.604 24.395, 8.812 22.484, 13.990 19.762, 13.000 17.316, 14.262 14.824, 23.946 12.333, 33.631 9.841, 43.315 7.349, 53.000 6.275, 57.176 7.518, 57.628 8.762, 58.081 9.384, 58.307 10.005, 58.533 10.627, 58.760 11.249, 58.986 12.493, 59.439 "
         id="path2"
         style="stroke-linecap:round" />
      <path
         fill="none"
         stroke-width="3.0"
         stroke-linecap="butt"
         stroke-opacity="1.0"
         stroke="rgb(0, 0, 0)"
         stroke-linejoin="round"
         d=" M 93.889, 37.299 94.469, 36.110 85.949, 30.874 77.429, 25.638 68.910, 20.402 60.390, 15.166 56.716, 12.909 54.080, 13.700 52.811, 16.303 47.839, 13.906 44.823, 13.749 42.829, 15.340 42.803, 17.891 44.783, 20.170 49.734, 22.612 48.464, 25.216 49.463, 27.780 58.834, 31.270 68.205, 34.761 77.576, 38.251 86.947, 41.742 90.988, 43.247 91.568, 42.057 92.148, 40.868 92.438, 40.273 92.728, 39.678 93.018, 39.084 93.308, 38.489 93.889, 37.299 "
         id="path3"
         style="stroke-linecap:round" />
    </g>
  </g>
</svg>
