<?xml version="1.0" encoding="UTF-8" standalone="no"?>
<svg
   version="1.1"
   width="100"
   height="100"
   id="svg3"
   sodipodi:docname="judaism_1.svg"
   inkscape:version="1.3.1 (9b9bdc1480, 2023-11-25, custom)"
   xmlns:inkscape="http://www.inkscape.org/namespaces/inkscape"
   xmlns:sodipodi="http://sodipodi.sourceforge.net/DTD/sodipodi-0.dtd"
   xmlns="http://www.w3.org/2000/svg"
   xmlns:svg="http://www.w3.org/2000/svg">
  <defs
     id="defs3" />
  <sodipodi:namedview
     id="namedview3"
     pagecolor="#ffffff"
     bordercolor="#000000"
     borderopacity="0.25"
     inkscape:showpageshadow="2"
     inkscape:pageopacity="0.0"
     inkscape:pagecheckerboard="0"
     inkscape:deskcolor="#d1d1d1"
     inkscape:zoom="7.37"
     inkscape:cx="50"
     inkscape:cy="49.932157"
     inkscape:window-width="1920"
     inkscape:window-height="1043"
     inkscape:window-x="1920"
     inkscape:window-y="0"
     inkscape:window-maximized="1"
     inkscape:current-layer="strokes" />
  <g
     id="ViewLayer_LineSet"
     inkscape:groupmode="lineset"
     inkscape:label="ViewLayer_LineSet">
    <g
       inkscape:groupmode="layer"
       id="strokes"
       inkscape:label="strokes">
      <path
         fill="none"
         stroke-width="3.0"
         stroke-linecap="butt"
         stroke-opacity="1.0"
         stroke="rgb(0, 0, 0)"
         stroke-linejoin="round"
         d=" M 30.556, 94.445 40.556, 94.445 50.556, 94.445 60.556, 94.445 69.444, 94.445 69.444, 84.445 69.444, 74.445 69.444, 64.445 69.444, 55.556 59.444, 55.556 49.444, 55.556 39.444, 55.556 30.556, 55.556 30.556, 65.556 30.556, 75.556 30.556, 85.556 30.556, 94.445 "
         id="path1"
         style="stroke-linecap:round;fill:#000000" />
      <path
         fill="none"
         stroke-width="3.0"
         stroke-linecap="butt"
         stroke-opacity="1.0"
         stroke="rgb(0, 0, 0)"
         stroke-linejoin="round"
         d=" M 29.943, 39.192 39.943, 39.192 43.752, 39.192 53.752, 39.192 56.248, 39.192 66.248, 39.192 70.057, 39.192 64.935, 30.603 63.153, 27.615 58.031, 19.026 56.248, 16.037 51.127, 7.448 50.000, 5.559 44.878, 14.148 43.752, 16.037 38.630, 24.626 36.847, 27.615 31.726, 36.203 29.943, 39.192 "
         id="path2"
         style="stroke-linecap:round" />
      <path
         fill="none"
         stroke-width="3.0"
         stroke-linecap="butt"
         stroke-opacity="1.0"
         stroke="rgb(0, 0, 0)"
         stroke-linejoin="round"
         d=" M 29.943, 16.037 39.943, 16.037 43.752, 16.037 53.752, 16.037 56.248, 16.037 66.248, 16.037 70.057, 16.037 64.935, 24.626 63.153, 27.615 58.031, 36.203 56.248, 39.192 51.127, 47.781 50.000, 49.670 44.878, 41.081 43.752, 39.192 38.630, 30.603 36.847, 27.615 31.726, 19.026 29.943, 16.037 "
         id="path3"
         style="stroke-linecap:round" />
    </g>
  </g>
</svg>
