<?xml version="1.0" encoding="UTF-8" standalone="no"?>
<svg
   version="1.1"
   width="100"
   height="100"
   id="svg1"
   sodipodi:docname="factory_fill.svg"
   inkscape:version="1.3.1 (9b9bdc1480, 2023-11-25, custom)"
   xmlns:inkscape="http://www.inkscape.org/namespaces/inkscape"
   xmlns:sodipodi="http://sodipodi.sourceforge.net/DTD/sodipodi-0.dtd"
   xmlns="http://www.w3.org/2000/svg"
   xmlns:svg="http://www.w3.org/2000/svg">
  <defs
     id="defs1" />
  <sodipodi:namedview
     id="namedview1"
     pagecolor="#ffffff"
     bordercolor="#000000"
     borderopacity="0.25"
     inkscape:showpageshadow="2"
     inkscape:pageopacity="0.0"
     inkscape:pagecheckerboard="0"
     inkscape:deskcolor="#d1d1d1"
     inkscape:zoom="2.69"
     inkscape:cx="49.814126"
     inkscape:cy="49.814126"
     inkscape:window-width="1920"
     inkscape:window-height="1043"
     inkscape:window-x="1920"
     inkscape:window-y="0"
     inkscape:window-maximized="1"
     inkscape:current-layer="strokes" />
  <g
     id="ViewLayer_LineSet"
     inkscape:groupmode="lineset"
     inkscape:label="ViewLayer_LineSet">
    <g
       inkscape:groupmode="layer"
       id="strokes"
       inkscape:label="strokes">
      <path
         fill="none"
         stroke-width="3.0"
         stroke-linecap="butt"
         stroke-opacity="1.0"
         stroke="rgb(0, 0, 0)"
         stroke-linejoin="round"
         d=" M 50.000, 55.556 42.000, 49.556 34.000, 43.556 27.778, 38.889 27.778, 48.889 27.778, 58.889 27.778, 66.667 27.778, 56.667 27.778, 55.556 19.778, 49.556 11.778, 43.556 5.556, 38.889 5.556, 48.889 5.556, 58.889 5.556, 66.667 5.556, 76.667 5.556, 86.667 5.556, 94.444 15.556, 94.444 25.556, 94.444 27.778, 94.444 37.778, 94.444 47.778, 94.444 50.000, 94.444 60.000, 94.444 70.000, 94.444 72.222, 94.444 77.778, 94.444 83.333, 94.444 88.889, 94.444 94.444, 94.444 94.444, 84.444 94.444, 74.444 94.444, 66.667 94.436, 56.667 94.435, 55.606 93.716, 45.632 92.996, 35.658 92.277, 25.684 91.557, 15.710 90.861, 6.056 87.097, 6.056 83.333, 6.056 79.570, 6.056 75.806, 6.056 75.087, 16.030 74.367, 26.004 73.647, 35.978 72.928, 45.952 72.231, 55.606 72.223, 65.606 72.222, 66.667 72.222, 56.667 72.222, 55.556 64.222, 49.556 56.222, 43.556 50.000, 38.889 50.000, 48.889 50.000, 55.556 50.000, 65.556 50.000, 66.667 50.000, 56.667 50.000, 55.556 "
         id="path1"
         style="stroke-linecap:round;fill:#000000" />
    </g>
  </g>
</svg>
