<?xml version="1.0" encoding="UTF-8" standalone="no"?>
<svg
   version="1.1"
   width="100"
   height="100"
   id="svg4"
   sodipodi:docname="set_outline_tower2.svg"
   inkscape:version="1.3.1 (9b9bdc1480, 2023-11-25, custom)"
   xmlns:inkscape="http://www.inkscape.org/namespaces/inkscape"
   xmlns:sodipodi="http://sodipodi.sourceforge.net/DTD/sodipodi-0.dtd"
   xmlns="http://www.w3.org/2000/svg"
   xmlns:svg="http://www.w3.org/2000/svg">
  <defs
     id="defs4" />
  <sodipodi:namedview
     id="namedview4"
     pagecolor="#ffffff"
     bordercolor="#000000"
     borderopacity="0.25"
     inkscape:showpageshadow="2"
     inkscape:pageopacity="0.0"
     inkscape:pagecheckerboard="0"
     inkscape:deskcolor="#d1d1d1"
     inkscape:zoom="7.37"
     inkscape:cx="50"
     inkscape:cy="49.932157"
     inkscape:window-width="1920"
     inkscape:window-height="1043"
     inkscape:window-x="1920"
     inkscape:window-y="0"
     inkscape:window-maximized="1"
     inkscape:current-layer="strokes" />
  <g
     id="ViewLayer_LineSet"
     inkscape:groupmode="lineset"
     inkscape:label="ViewLayer_LineSet">
    <g
       inkscape:groupmode="layer"
       id="strokes"
       inkscape:label="strokes">
      <g
         id="path11"
         style="fill:#000000">
        <path
           style="color:#000000;fill:#000000;stroke-linecap:round;stroke-linejoin:round;-inkscape-stroke:none"
           d="m 22.222656,4.0566406 a 1.50015,1.50015 0 0 0 -1.5,1.5 v 10.0000004 1.111328 5.554687 5.554688 5.554687 10 10 10 10 10 10 1.111328 a 1.50015,1.50015 0 0 0 1.5,1.5 h 10 1.109375 10 1.111328 10 1.113282 10 1.111328 10 1.109375 v -3 h -1.109375 -10 -1.111328 -10 -1.113282 -10 -1.111328 -10 -1.109375 -8.5 v -9.611328 -10 -10 -10 -10 -10 -5.554687 -5.554688 -5.554687 -1.111328 -8.5000004 h 8.109375 v 9.6113284 5.554687 a 1.50015,1.50015 0 0 0 1.5,1.5 h 1.111328 10 a 1.50015,1.50015 0 0 0 1.5,-1.5 V 15.556641 5.5566406 h -3 V 15.556641 20.722656 H 34.832031 V 16.667969 6.6679687 5.5566406 a 1.50015,1.50015 0 0 0 -1.5,-1.5 h -10 z"
           id="path12" />
        <path
           style="color:#000000;fill:#000000;stroke-linecap:round;stroke-linejoin:round;-inkscape-stroke:none"
           d="m 22.222656,3.5566406 c -1.098576,1.099e-4 -1.99989,0.9014236 -2,2 v 10.0000004 1.111328 5.554687 5.554688 5.554687 10 10 10 10 10 10 1.111328 c 1.1e-4,1.098577 0.901424,1.999891 2,2 h 10 1.109375 10 1.111328 10 1.113282 10 1.111328 10 1.109375 a 0.50005,0.50005 0 0 0 0.5,-0.5 v -3 a 0.50005,0.50005 0 0 0 -0.5,-0.5 h -1.109375 -10 -1.111328 -10 -1.113282 -10 -1.111328 -10 -1.109375 -8 v -9.111328 -10 -10 -10 -10 -10 -5.554687 -5.554688 -5.554687 -1.111328 -8.0000004 h 7.109375 v 9.1113284 5.554687 c 1.1e-4,1.098577 0.901424,1.99989 2,2 h 1.111328 10 c 1.098577,-1.1e-4 1.999891,-0.901423 2,-2 V 15.556641 5.5566406 a 0.50005,0.50005 0 0 0 -0.5,-0.5 h -3 a 0.50005,0.50005 0 0 0 -0.5,0.5 V 15.556641 20.222656 H 35.332031 V 16.667969 6.6679687 5.5566406 c -1.1e-4,-1.0985764 -0.901423,-1.9998901 -2,-2 h -10 z m 0,1 h 1.109375 10 c 0.558208,5.58e-5 0.999944,0.4417925 1,1 v 1.1113281 10.0000003 4.054687 a 0.50005,0.50005 0 0 0 0.5,0.5 h 8.111328 a 0.50005,0.50005 0 0 0 0.5,-0.5 V 15.556641 6.0566406 h 2 v 9.5000004 6.666015 c -5.5e-5,0.558208 -0.441792,0.999944 -1,1 h -10 -1.111328 c -0.558207,-5.6e-5 -0.999944,-0.441792 -1,-1 V 16.667969 7.0566406 a 0.50005,0.50005 0 0 0 -0.5,-0.5 h -8.109375 a 0.50005,0.50005 0 0 0 -0.5,0.5 v 8.5000004 1.111328 5.554687 5.554688 5.554687 10 10 10 10 10 9.611328 a 0.50005,0.50005 0 0 0 0.5,0.5 h 8.5 1.109375 10 1.111328 10 1.113282 10 1.111328 10 0.609375 v 2 h -0.609375 -10 -1.111328 -10 -1.113282 -10 -1.111328 -10 -1.109375 -10 c -0.558207,-5.5e-5 -0.999944,-0.441792 -1,-1 v -1.111328 -10 -10 -10 -10 -10 -10 -5.554687 -5.554688 -5.554687 -1.111328 -10.0000004 c 5.6e-5,-0.5582075 0.441793,-0.9999442 1,-1 z"
           id="path13" />
      </g>
      <g
         id="path10"
         style="fill:#000000">
        <path
           style="color:#000000;fill:#000000;stroke-linecap:round;stroke-linejoin:round;-inkscape-stroke:none"
           d="m 77.777344,4.0566406 a 1.5,1.5 0 0 0 -1.5,1.5 v 6.6660154 10 5.554688 5.554687 1.111328 10 10 10 10 10 10 a 1.5,1.5 0 0 0 1.5,1.5 1.5,1.5 0 0 0 1.5,-1.5 v -10 -10 -10 -10 -10 -10 -1.111328 -5.554687 -5.554688 -10 -6.6660154 a 1.5,1.5 0 0 0 -1.5,-1.5 z"
           id="path14" />
        <path
           style="color:#000000;fill:#000000;stroke-linecap:round;stroke-linejoin:round;-inkscape-stroke:none"
           d="m 77.777344,3.5566406 c -1.098646,0 -2,0.9013539 -2,2 v 6.6660154 10 5.554688 5.554687 1.111328 10 10 10 10 10 10 c 0,1.098646 0.901354,2 2,2 1.098646,0 2,-0.901354 2,-2 v -10 -10 -10 -10 -10 -10 -1.111328 -5.554687 -5.554688 -10 -6.6660154 c 0,-1.0986461 -0.901354,-2 -2,-2 z m 0,1 c 0.558206,0 1,0.4417935 1,1 v 6.6660154 10 5.554688 5.554687 1.111328 10 10 10 10 10 10 c 0,0.558207 -0.441794,1 -1,1 -0.558207,0 -1,-0.441793 -1,-1 v -10 -10 -10 -10 -10 -10 -1.111328 -5.554687 -5.554688 -10 -6.6660154 c 0,-0.5582065 0.441793,-1 1,-1 z"
           id="path15" />
      </g>
      <g
         id="path9"
         style="fill:#000000">
        <path
           style="color:#000000;fill:#000000;stroke-linecap:round;stroke-linejoin:round;-inkscape-stroke:none"
           d="m 66.667969,4.0566406 a 1.50015,1.50015 0 0 0 -1.5,1.5 v 10.0000004 5.166015 h -8.111328 v -8.5 -6.6660154 h -3 v 6.6660154 10 a 1.50015,1.50015 0 0 0 1.5,1.5 h 1.111328 10 a 1.50015,1.50015 0 0 0 1.5,-1.5 V 15.556641 7.0566406 h 9.609375 v -3 h -10 z"
           id="path16" />
        <path
           style="color:#000000;fill:#000000;stroke-linecap:round;stroke-linejoin:round;-inkscape-stroke:none"
           d="m 66.667969,3.5566406 c -1.098577,1.099e-4 -1.99989,0.9014236 -2,2 v 10.0000004 4.666015 h -7.111328 v -8 -6.6660154 a 0.50005,0.50005 0 0 0 -0.5,-0.5 h -3 a 0.50005,0.50005 0 0 0 -0.5,0.5 v 6.6660154 10 c 1.09e-4,1.098577 0.901423,1.99989 2,2 h 1.111328 10 c 1.098576,-1.1e-4 1.99989,-0.901423 2,-2 V 15.556641 7.5566406 h 9.109375 a 0.50005,0.50005 0 0 0 0.5,-0.5 v -3 a 0.50005,0.50005 0 0 0 -0.5,-0.5 h -10 z m 0,1 h 1.109375 9.5 v 2 h -9.109375 a 0.50005,0.50005 0 0 0 -0.5,0.5 v 8.5000004 6.666015 c -5.6e-5,0.558208 -0.441793,0.999944 -1,1 h -10 -1.111328 c -0.558208,-5.6e-5 -0.999945,-0.441792 -1,-1 v -10 -6.1660154 h 2 v 6.1660154 8.5 a 0.50005,0.50005 0 0 0 0.5,0.5 h 8.111328 a 0.50005,0.50005 0 0 0 0.5,-0.5 V 15.556641 5.5566406 c 5.6e-5,-0.5582075 0.441792,-0.9999442 1,-1 z"
           id="path17" />
      </g>
      <g
         id="path4"
         style="fill:#000000">
        <path
           style="color:#000000;fill:#000000;stroke-linecap:round;stroke-linejoin:round;-inkscape-stroke:none"
           d="m 44.443359,4.0566406 a 1.5,1.5 0 0 0 -1.5,1.5 1.5,1.5 0 0 0 1.5,1.5 h 1.113282 10 a 1.5,1.5 0 0 0 1.5,-1.5 1.5,1.5 0 0 0 -1.5,-1.5 h -10 z"
           id="path18" />
        <path
           style="color:#000000;fill:#000000;stroke-linecap:round;stroke-linejoin:round;-inkscape-stroke:none"
           d="m 44.443359,3.5566406 c -1.098646,0 -2,0.9013539 -2,2 0,1.0986461 0.901354,2 2,2 h 1.113282 10 c 1.098646,0 2,-0.9013539 2,-2 0,-1.0986461 -0.901354,-2 -2,-2 h -10 z m 0,1 h 1.113282 10 c 0.558206,0 1,0.4417935 1,1 0,0.5582065 -0.441794,1 -1,1 h -10 -1.113282 c -0.558206,0 -1,-0.4417935 -1,-1 0,-0.5582065 0.441794,-1 1,-1 z"
           id="path19" />
      </g>
    </g>
  </g>
</svg>
