<?xml version="1.0" encoding="UTF-8" standalone="no"?>
<svg
   version="1.1"
   width="100"
   height="100"
   id="svg11"
   sodipodi:docname="set_outline_tower3.svg"
   inkscape:version="1.3.1 (9b9bdc1480, 2023-11-25, custom)"
   xmlns:inkscape="http://www.inkscape.org/namespaces/inkscape"
   xmlns:sodipodi="http://sodipodi.sourceforge.net/DTD/sodipodi-0.dtd"
   xmlns="http://www.w3.org/2000/svg"
   xmlns:svg="http://www.w3.org/2000/svg">
  <defs
     id="defs11" />
  <sodipodi:namedview
     id="namedview11"
     pagecolor="#ffffff"
     bordercolor="#000000"
     borderopacity="0.25"
     inkscape:showpageshadow="2"
     inkscape:pageopacity="0.0"
     inkscape:pagecheckerboard="0"
     inkscape:deskcolor="#d1d1d1"
     inkscape:zoom="7.37"
     inkscape:cx="50"
     inkscape:cy="49.932157"
     inkscape:window-width="1920"
     inkscape:window-height="1043"
     inkscape:window-x="1920"
     inkscape:window-y="0"
     inkscape:window-maximized="1"
     inkscape:current-layer="strokes" />
  <g
     id="ViewLayer_LineSet"
     inkscape:groupmode="lineset"
     inkscape:label="ViewLayer_LineSet">
    <g
       inkscape:groupmode="layer"
       id="strokes"
       inkscape:label="strokes">
      <path
         fill="none"
         stroke-width="3.0"
         stroke-linecap="butt"
         stroke-opacity="1.0"
         stroke="rgb(0, 0, 0)"
         stroke-linejoin="round"
         d=" M 22.222, 5.556 12.222, 5.556 11.111, 5.556 11.111, 15.556 11.111, 16.667 11.111, 22.222 11.111, 27.778 11.111, 33.333 11.111, 38.889 "
         id="path1"
         style="stroke-linecap:round" />
      <path
         fill="none"
         stroke-width="3.0"
         stroke-linecap="butt"
         stroke-opacity="1.0"
         stroke="rgb(0, 0, 0)"
         stroke-linejoin="round"
         d=" M 22.222, 22.222 22.222, 16.667 22.222, 6.667 22.222, 5.556 "
         id="path2"
         style="stroke-linecap:round" />
      <path
         fill="none"
         stroke-width="3.0"
         stroke-linecap="butt"
         stroke-opacity="1.0"
         stroke="rgb(0, 0, 0)"
         stroke-linejoin="round"
         d=" M 33.333, 5.556 33.333, 15.556 33.333, 22.222 23.333, 22.222 22.222, 22.222 "
         id="path3"
         style="stroke-linecap:round" />
      <path
         fill="none"
         stroke-width="3.0"
         stroke-linecap="butt"
         stroke-opacity="1.0"
         stroke="rgb(0, 0, 0)"
         stroke-linejoin="round"
         d=" M 77.778, 38.889 87.778, 38.889 88.889, 38.889 88.889, 33.333 88.889, 27.778 88.889, 22.222 88.889, 12.222 88.889, 5.556 "
         id="path4"
         style="stroke-linecap:round" />
      <path
         fill="none"
         stroke-width="3.0"
         stroke-linecap="butt"
         stroke-opacity="1.0"
         stroke="rgb(0, 0, 0)"
         stroke-linejoin="round"
         d=" M 66.667, 5.556 56.667, 5.556 55.556, 5.556 55.556, 15.556 55.556, 22.222 "
         id="path5"
         style="stroke-linecap:round" />
      <path
         fill="none"
         stroke-width="3.0"
         stroke-linecap="butt"
         stroke-opacity="1.0"
         stroke="rgb(0, 0, 0)"
         stroke-linejoin="round"
         d=" M 88.889, 5.556 78.889, 5.556 77.778, 5.556 77.778, 15.556 77.778, 22.222 67.778, 22.222 66.667, 22.222 66.667, 12.222 66.667, 5.556 "
         id="path6"
         style="stroke-linecap:round" />
      <path
         fill="none"
         stroke-width="3.0"
         stroke-linecap="butt"
         stroke-opacity="1.0"
         stroke="rgb(0, 0, 0)"
         stroke-linejoin="round"
         d=" M 11.111, 38.889 21.111, 38.889 22.222, 38.889 22.222, 48.889 22.222, 58.889 22.222, 68.889 22.222, 78.889 22.222, 88.889 22.222, 94.444 32.222, 94.444 33.333, 94.444 43.333, 94.444 44.444, 94.444 54.444, 94.444 55.556, 94.444 65.556, 94.444 66.667, 94.444 76.667, 94.444 77.778, 94.444 "
         id="path7"
         style="stroke-linecap:round" />
      <path
         fill="none"
         stroke-width="3.0"
         stroke-linecap="butt"
         stroke-opacity="1.0"
         stroke="rgb(0, 0, 0)"
         stroke-linejoin="round"
         d=" M 77.778, 94.444 77.778, 84.444 77.778, 74.444 77.778, 64.444 77.778, 54.444 77.778, 44.444 77.778, 38.889 "
         id="path8"
         style="stroke-linecap:round" />
      <path
         fill="none"
         stroke-width="3.0"
         stroke-linecap="butt"
         stroke-opacity="1.0"
         stroke="rgb(0, 0, 0)"
         stroke-linejoin="round"
         d=" M 44.444, 5.556 34.444, 5.556 33.333, 5.556 "
         id="path9"
         style="stroke-linecap:round" />
      <path
         fill="none"
         stroke-width="3.0"
         stroke-linecap="butt"
         stroke-opacity="1.0"
         stroke="rgb(0, 0, 0)"
         stroke-linejoin="round"
         d=" M 44.444, 22.222 44.444, 12.222 44.444, 5.556 "
         id="path10"
         style="stroke-linecap:round" />
      <path
         fill="none"
         stroke-width="3.0"
         stroke-linecap="butt"
         stroke-opacity="1.0"
         stroke="rgb(0, 0, 0)"
         stroke-linejoin="round"
         d=" M 55.556, 22.222 45.556, 22.222 44.444, 22.222 "
         id="path11"
         style="paint-order:stroke fill markers;stroke-linecap:round" />
    </g>
  </g>
</svg>
