<?xml version="1.0" encoding="UTF-8" standalone="no"?>
<svg
   version="1.1"
   width="100"
   height="100"
   id="svg4"
   sodipodi:docname="judaism_2.svg"
   inkscape:version="1.3.1 (9b9bdc1480, 2023-11-25, custom)"
   xmlns:inkscape="http://www.inkscape.org/namespaces/inkscape"
   xmlns:sodipodi="http://sodipodi.sourceforge.net/DTD/sodipodi-0.dtd"
   xmlns="http://www.w3.org/2000/svg"
   xmlns:svg="http://www.w3.org/2000/svg">
  <defs
     id="defs4" />
  <sodipodi:namedview
     id="namedview4"
     pagecolor="#ffffff"
     bordercolor="#000000"
     borderopacity="0.25"
     inkscape:showpageshadow="2"
     inkscape:pageopacity="0.0"
     inkscape:pagecheckerboard="0"
     inkscape:deskcolor="#d1d1d1"
     inkscape:zoom="7.37"
     inkscape:cx="50"
     inkscape:cy="49.932157"
     inkscape:window-width="1920"
     inkscape:window-height="1043"
     inkscape:window-x="1920"
     inkscape:window-y="0"
     inkscape:window-maximized="1"
     inkscape:current-layer="strokes" />
  <g
     id="ViewLayer_LineSet"
     inkscape:groupmode="lineset"
     inkscape:label="ViewLayer_LineSet">
    <g
       inkscape:groupmode="layer"
       id="strokes"
       inkscape:label="strokes">
      <path
         fill="none"
         stroke-width="3.0"
         stroke-linecap="butt"
         stroke-opacity="1.0"
         stroke="rgb(0, 0, 0)"
         stroke-linejoin="round"
         d=" M 52.638, 55.733 50.000, 55.556 47.362, 55.733 44.832, 56.250 42.433, 57.084 40.187, 58.211 38.119, 59.608 36.252, 61.252 34.608, 63.119 33.211, 65.187 32.084, 67.433 31.250, 69.832 30.733, 72.362 30.556, 75.000 30.733, 77.638 31.250, 80.168 32.084, 82.567 33.211, 84.813 34.608, 86.881 36.252, 88.748 38.119, 90.392 40.187, 91.789 42.433, 92.916 44.832, 93.750 47.362, 94.267 50.000, 94.445 52.638, 94.267 55.168, 93.750 57.567, 92.916 59.813, 91.789 61.881, 90.392 63.748, 88.748 65.392, 86.881 66.789, 84.813 67.916, 82.567 68.750, 80.168 69.267, 77.638 69.444, 75.000 69.267, 72.362 68.750, 69.832 67.916, 67.433 66.789, 65.187 65.392, 63.119 63.748, 61.252 61.881, 59.608 59.813, 58.211 57.567, 57.084 55.168, 56.250 52.638, 55.733 "
         id="path1" />
      <path
         fill="none"
         stroke-width="3.0"
         stroke-linecap="butt"
         stroke-opacity="1.0"
         stroke="rgb(0, 0, 0)"
         stroke-linejoin="round"
         d=" M 52.638, 55.733 50.000, 55.556 47.362, 55.733 44.832, 56.250 42.433, 57.084 40.187, 58.211 38.119, 59.608 36.252, 61.252 34.608, 63.119 33.211, 65.187 32.084, 67.433 31.250, 69.832 30.733, 72.362 30.556, 75.000 30.733, 77.638 31.250, 80.168 32.084, 82.567 33.211, 84.813 34.608, 86.881 36.252, 88.748 38.119, 90.392 40.187, 91.789 42.433, 92.916 44.832, 93.750 47.362, 94.267 50.000, 94.445 52.638, 94.267 55.168, 93.750 57.567, 92.916 59.813, 91.789 61.881, 90.392 63.748, 88.748 65.392, 86.881 66.789, 84.813 67.916, 82.567 68.750, 80.168 69.267, 77.638 69.444, 75.000 69.267, 72.362 68.750, 69.832 67.916, 67.433 66.789, 65.187 65.392, 63.119 63.748, 61.252 61.881, 59.608 59.813, 58.211 57.567, 57.084 55.168, 56.250 52.638, 55.733 "
         id="path2"
         style="stroke-linecap:round" />
      <path
         fill="none"
         stroke-width="3.0"
         stroke-linecap="butt"
         stroke-opacity="1.0"
         stroke="rgb(0, 0, 0)"
         stroke-linejoin="round"
         d=" M 29.943, 39.192 39.943, 39.192 43.752, 39.192 53.752, 39.192 56.248, 39.192 66.248, 39.192 70.057, 39.192 64.935, 30.603 63.153, 27.615 58.031, 19.026 56.248, 16.037 51.127, 7.448 50.000, 5.559 44.878, 14.148 43.752, 16.037 38.630, 24.626 36.847, 27.615 31.726, 36.203 29.943, 39.192 "
         id="path3"
         style="stroke-linecap:round" />
      <path
         fill="none"
         stroke-width="3.0"
         stroke-linecap="butt"
         stroke-opacity="1.0"
         stroke="rgb(0, 0, 0)"
         stroke-linejoin="round"
         d=" M 29.943, 16.037 39.943, 16.037 43.752, 16.037 53.752, 16.037 56.248, 16.037 66.248, 16.037 70.057, 16.037 64.935, 24.626 63.153, 27.615 58.031, 36.203 56.248, 39.192 51.127, 47.781 50.000, 49.670 44.878, 41.081 43.752, 39.192 38.630, 30.603 36.847, 27.615 31.726, 19.026 29.943, 16.037 "
         id="path4"
         style="stroke-linecap:round" />
    </g>
  </g>
</svg>
