<?xml version="1.0" encoding="UTF-8" standalone="no"?>
<svg
   version="1.1"
   width="100"
   height="100"
   id="svg10"
   sodipodi:docname="set_fill_wall.svg"
   inkscape:version="1.3.1 (9b9bdc1480, 2023-11-25, custom)"
   xmlns:inkscape="http://www.inkscape.org/namespaces/inkscape"
   xmlns:sodipodi="http://sodipodi.sourceforge.net/DTD/sodipodi-0.dtd"
   xmlns="http://www.w3.org/2000/svg"
   xmlns:svg="http://www.w3.org/2000/svg">
  <defs
     id="defs10" />
  <sodipodi:namedview
     id="namedview10"
     pagecolor="#ffffff"
     bordercolor="#000000"
     borderopacity="0.25"
     inkscape:showpageshadow="2"
     inkscape:pageopacity="0.0"
     inkscape:pagecheckerboard="0"
     inkscape:deskcolor="#d1d1d1"
     inkscape:zoom="7.37"
     inkscape:cx="50"
     inkscape:cy="49.932157"
     inkscape:window-width="1920"
     inkscape:window-height="1043"
     inkscape:window-x="1920"
     inkscape:window-y="0"
     inkscape:window-maximized="1"
     inkscape:current-layer="strokes" />
  <g
     id="ViewLayer_LineSet"
     inkscape:groupmode="lineset"
     inkscape:label="ViewLayer_LineSet">
    <g
       inkscape:groupmode="layer"
       id="strokes"
       inkscape:label="strokes">
      <path
         style="color:#000000;fill:#000000;stroke-linecap:round;stroke-linejoin:round;-inkscape-stroke:none"
         d="m 11.111328,4.0566406 a 1.50015,1.50015 0 0 0 -1.4999999,1.5 v 10.0000004 1.111328 5.554687 5.554688 5.554687 10 10 10 10 10 10 1.111328 a 1.5,1.5 0 0 0 1.4999999,1.5 h 10 1.111328 10 1.109375 10 1.111328 10 1.113282 10 1.111328 10 1.109375 10 1.111328 a 1.5,1.5 0 0 0 1.5,-1.5 v -10 -10 -10 -10 -10 -10 -1.111328 -5.554687 -5.554688 -10 -6.6660154 a 1.5,1.5 0 0 0 -0.0332,-0.2949218 1.5,1.5 0 0 0 -0.01172,-0.058594 1.5,1.5 0 0 0 -0.0957,-0.2773438 1.5,1.5 0 0 0 -0.02148,-0.042969 1.5,1.5 0 0 0 -0.166015,-0.2617187 1.5,1.5 0 0 0 -0.01172,-0.011719 1.5,1.5 0 0 0 -0.224609,-0.2246094 1.5,1.5 0 0 0 -0.0059,-0.00391 A 1.5,1.5 0 0 0 89.5625,4.21875 a 1.5,1.5 0 0 0 -0.04297,-0.021484 1.5,1.5 0 0 0 -0.277343,-0.095703 1.5,1.5 0 0 0 -0.05859,-0.011719 1.5,1.5 0 0 0 -0.294922,-0.033203 h -10 -1.111328 a 1.50015,1.50015 0 0 0 -1.5,1.5 v 10.0000004 5.166015 h -8.109375 v -8.5 -6.6660154 a 1.5,1.5 0 0 0 -0.01367,-0.1953125 1.5,1.5 0 0 0 -0.0039,-0.021484 1.5,1.5 0 0 0 -0.0293,-0.1503907 1.5,1.5 0 0 0 -0.01953,-0.066406 1.5,1.5 0 0 0 -0.0332,-0.099609 1.5,1.5 0 0 0 -0.0332,-0.082031 1.5,1.5 0 0 0 -0.04687,-0.089844 1.5,1.5 0 0 0 -0.03516,-0.064453 1.5,1.5 0 0 0 -0.06445,-0.097656 1.5,1.5 0 0 0 -0.04883,-0.068359 1.5,1.5 0 0 0 -0.111328,-0.125 1.5,1.5 0 0 0 -0.125,-0.1113282 1.5,1.5 0 0 0 -0.0078,-0.00586 1.5,1.5 0 0 0 -0.06055,-0.042969 1.5,1.5 0 0 0 -0.09766,-0.064453 1.5,1.5 0 0 0 -0.0625,-0.035156 1.5,1.5 0 0 0 -0.0918,-0.046875 1.5,1.5 0 0 0 -0.08203,-0.033203 1.5,1.5 0 0 0 -0.09961,-0.033203 1.5,1.5 0 0 0 -0.06641,-0.019531 1.5,1.5 0 0 0 -0.171875,-0.033203 1.5,1.5 0 0 0 -0.0059,0 1.5,1.5 0 0 0 -0.189453,-0.013672 h -10 -1.111328 a 1.50015,1.50015 0 0 0 -1.5,1.5 v 10.0000004 5.166015 h -8.113282 v -8.5 -6.6660154 a 1.5,1.5 0 0 0 -0.0078,-0.15625 1.5,1.5 0 0 0 -0.0039,-0.029297 1.5,1.5 0 0 0 -0.02148,-0.1269532 1.5,1.5 0 0 0 -0.0059,-0.019531 1.5,1.5 0 0 0 -0.07422,-0.234375 1.5,1.5 0 0 0 -0.04492,-0.1015625 1.5,1.5 0 0 0 -0.01367,-0.023437 1.5,1.5 0 0 0 -0.04102,-0.078125 1.5,1.5 0 0 0 -0.171875,-0.234375 1.5,1.5 0 0 0 -0.0059,-0.00586 1.5,1.5 0 0 0 -0.105468,-0.1054688 1.5,1.5 0 0 0 -0.02539,-0.019531 1.5,1.5 0 0 0 -0.208984,-0.1523438 1.5,1.5 0 0 0 -0.101563,-0.054687 1.5,1.5 0 0 0 -0.01172,-0.00586 1.5,1.5 0 0 0 -0.08984,-0.039063 1.5,1.5 0 0 0 -0.253907,-0.080078 1.5,1.5 0 0 0 -0.01172,-0.00195 1.5,1.5 0 0 0 -0.144532,-0.023437 1.5,1.5 0 0 0 -0.0059,0 1.5,1.5 0 0 0 -0.150391,-0.00781 h -10 -1.111328 a 1.5,1.5 0 0 0 -0.433593,0.070312 1.5,1.5 0 0 0 -0.109376,0.044922 1.5,1.5 0 0 0 -0.28125,0.1425781 1.5,1.5 0 0 0 -0.11914,0.091797 1.5,1.5 0 0 0 -0.207031,0.2070312 1.5,1.5 0 0 0 -0.0918,0.1191407 1.5,1.5 0 0 0 -0.142578,0.28125 1.5,1.5 0 0 0 -0.04492,0.109375 1.5,1.5 0 0 0 -0.07031,0.4335937 V 15.556641 20.722656 H 23.722656 V 16.667969 6.6679688 5.5566406 A 1.5,1.5 0 0 0 23.6875,5.234375 a 1.5,1.5 0 0 0 -0.0098,-0.037109 1.5,1.5 0 0 0 -0.09961,-0.28125 1.5,1.5 0 0 0 -0.01172,-0.023437 A 1.5,1.5 0 0 0 23.404297,4.6347656 1.5,1.5 0 0 0 23.382812,4.609375 1.5,1.5 0 0 0 23.169922,4.3964844 1.5,1.5 0 0 0 23.144531,4.375 1.5,1.5 0 0 0 22.886719,4.2128906 a 1.5,1.5 0 0 0 -0.02344,-0.011719 1.5,1.5 0 0 0 -0.28125,-0.099609 1.5,1.5 0 0 0 -0.03711,-0.00977 1.5,1.5 0 0 0 -0.322266,-0.035156 h -10 z"
         id="path1" />
    </g>
  </g>
</svg>
