<?xml version="1.0" encoding="UTF-8" standalone="no"?>
<svg
   version="1.1"
   width="100"
   height="100"
   id="svg2"
   sodipodi:docname="islamic_1.svg"
   inkscape:version="1.3.1 (9b9bdc1480, 2023-11-25, custom)"
   xmlns:inkscape="http://www.inkscape.org/namespaces/inkscape"
   xmlns:sodipodi="http://sodipodi.sourceforge.net/DTD/sodipodi-0.dtd"
   xmlns="http://www.w3.org/2000/svg"
   xmlns:svg="http://www.w3.org/2000/svg">
  <defs
     id="defs2" />
  <sodipodi:namedview
     id="namedview2"
     pagecolor="#ffffff"
     bordercolor="#000000"
     borderopacity="0.25"
     inkscape:showpageshadow="2"
     inkscape:pageopacity="0.0"
     inkscape:pagecheckerboard="0"
     inkscape:deskcolor="#d1d1d1"
     inkscape:zoom="7.37"
     inkscape:cx="50"
     inkscape:cy="49.932157"
     inkscape:window-width="1920"
     inkscape:window-height="1043"
     inkscape:window-x="1920"
     inkscape:window-y="0"
     inkscape:window-maximized="1"
     inkscape:current-layer="strokes" />
  <g
     id="ViewLayer_LineSet"
     inkscape:groupmode="lineset"
     inkscape:label="ViewLayer_LineSet">
    <g
       inkscape:groupmode="layer"
       id="strokes"
       inkscape:label="strokes">
      <path
         fill="none"
         stroke-width="3.0"
         stroke-linecap="butt"
         stroke-opacity="1.0"
         stroke="rgb(0, 0, 0)"
         stroke-linejoin="round"
         d=" M 30.083, 39.162 31.378, 40.950 32.830, 42.604 34.425, 44.111 36.153, 45.462 38.001, 46.645 39.959, 47.651 42.013, 48.467 44.152, 49.085 46.365, 49.492 48.640, 49.679 50.965, 49.634 54.066, 49.204 57.011, 48.377 59.774, 47.182 62.330, 45.650 64.654, 43.809 66.720, 41.690 68.503, 39.322 69.977, 36.735 71.119, 33.958 71.901, 31.022 72.299, 27.955 72.288, 24.788 72.026, 22.550 71.563, 20.388 70.911, 18.311 70.078, 16.328 69.076, 14.448 67.914, 12.680 66.603, 11.033 65.152, 9.515 63.571, 8.137 61.871, 6.907 60.062, 5.834 58.154, 4.927 58.691, 5.748 59.196, 6.596 59.665, 7.467 60.099, 8.362 60.496, 9.279 60.853, 10.217 61.171, 11.175 61.447, 12.151 61.681, 13.144 61.870, 14.154 62.014, 15.179 62.111, 16.217 62.122, 19.275 61.738, 22.236 60.984, 25.070 59.883, 27.749 58.461, 30.243 56.740, 32.525 54.747, 34.564 52.505, 36.333 50.038, 37.803 47.371, 38.944 44.528, 39.728 41.533, 40.127 40.401, 40.177 39.279, 40.170 38.168, 40.106 37.070, 39.988 35.987, 39.817 34.920, 39.594 33.872, 39.321 32.843, 38.999 31.835, 38.629 30.850, 38.213 29.889, 37.753 28.955, 37.249 30.083, 39.162 "
         id="path1"
         style="stroke-linecap:round" />
      <path
         fill="none"
         stroke-width="3.0"
         stroke-linecap="butt"
         stroke-opacity="1.0"
         stroke="rgb(0, 0, 0)"
         stroke-linejoin="round"
         d=" M 30.556, 94.445 40.556, 94.445 50.556, 94.445 60.556, 94.445 69.444, 94.445 69.444, 84.445 69.444, 74.445 69.444, 64.445 69.444, 55.556 59.444, 55.556 49.444, 55.556 39.444, 55.556 30.556, 55.556 30.556, 65.556 30.556, 75.556 30.556, 85.556 30.556, 94.445 "
         id="path2"
         style="stroke-linecap:round;fill:#000000" />
    </g>
  </g>
</svg>
