<?xml version="1.0" encoding="UTF-8" standalone="no"?>
<svg
   version="1.1"
   width="100"
   height="100"
   id="svg18"
   sodipodi:docname="mamoa1.svg"
   inkscape:version="1.3.1 (9b9bdc1480, 2023-11-25, custom)"
   xmlns:inkscape="http://www.inkscape.org/namespaces/inkscape"
   xmlns:sodipodi="http://sodipodi.sourceforge.net/DTD/sodipodi-0.dtd"
   xmlns="http://www.w3.org/2000/svg"
   xmlns:svg="http://www.w3.org/2000/svg">
  <defs
     id="defs18" />
  <sodipodi:namedview
     id="namedview18"
     pagecolor="#ffffff"
     bordercolor="#000000"
     borderopacity="0.25"
     inkscape:showpageshadow="2"
     inkscape:pageopacity="0.0"
     inkscape:pagecheckerboard="0"
     inkscape:deskcolor="#d1d1d1"
     inkscape:zoom="7.37"
     inkscape:cx="50"
     inkscape:cy="49.932157"
     inkscape:window-width="1920"
     inkscape:window-height="1043"
     inkscape:window-x="1920"
     inkscape:window-y="0"
     inkscape:window-maximized="1"
     inkscape:current-layer="strokes" />
  <g
     id="ViewLayer_LineSet"
     inkscape:groupmode="lineset"
     inkscape:label="ViewLayer_LineSet">
    <g
       inkscape:groupmode="layer"
       id="strokes"
       inkscape:label="strokes">
      <path
         fill="none"
         stroke-width="3.0"
         stroke-linecap="butt"
         stroke-opacity="1.0"
         stroke="rgb(0, 0, 0)"
         stroke-linejoin="round"
         d=" M 55.701, 45.382 49.709, 44.409 43.716, 45.382 37.701, 48.070 31.803, 52.132 26.161, 57.223 20.915, 63.000 16.204, 69.121 12.167, 75.241 8.944, 81.019 6.674, 86.110 5.496, 90.171 5.549, 92.860 6.974, 93.832 8.778, 93.832 11.100, 93.832 13.879, 93.832 17.058, 93.832 20.576, 93.832 24.373, 93.832 28.391, 93.832 32.570, 93.832 36.851, 93.832 41.174, 93.832 49.708, 93.832 53.938, 93.832 58.243, 93.832 62.566, 93.832 71.026, 93.832 75.044, 93.832 78.842, 93.832 82.359, 93.832 85.538, 93.832 88.317, 93.832 92.443, 93.832 93.868, 92.860 93.921, 90.171 92.743, 86.110 90.473, 81.019 87.250, 75.241 83.213, 69.121 78.502, 63.000 73.256, 57.223 67.614, 52.132 61.716, 48.070 55.701, 45.382 "
         id="path1"
         style="stroke-linecap:round" />
      <path
         fill="none"
         stroke-width="3.0"
         stroke-linecap="butt"
         stroke-opacity="1.0"
         stroke="rgb(0, 0, 0)"
         stroke-linejoin="round"
         d=" M 6.974, 93.832 16.974, 93.832 26.974, 93.832 36.974, 93.832 46.974, 93.832 56.974, 93.832 66.974, 93.832 76.974, 93.832 86.974, 93.832 92.443, 93.832 "
         id="path2" />
      <path
         fill="none"
         stroke-width="3.0"
         stroke-linecap="butt"
         stroke-opacity="1.0"
         stroke="rgb(0, 0, 0)"
         stroke-linejoin="round"
         d=" M 49.708, 93.832 39.708, 93.832 29.708, 93.832 19.708, 93.832 9.708, 93.832 8.778, 93.832 18.778, 93.832 28.778, 93.832 38.778, 93.832 48.778, 93.832 53.938, 93.832 "
         id="path3" />
      <path
         fill="none"
         stroke-width="3.0"
         stroke-linecap="butt"
         stroke-opacity="1.0"
         stroke="rgb(0, 0, 0)"
         stroke-linejoin="round"
         d=" M 71.026, 93.832 61.026, 93.832 53.938, 93.832 43.938, 93.832 33.938, 93.832 23.938, 93.832 13.938, 93.832 6.974, 93.832 16.974, 93.832 26.974, 93.832 36.974, 93.832 46.974, 93.832 56.974, 93.832 66.974, 93.832 71.026, 93.832 "
         id="path4" />
      <path
         fill="none"
         stroke-width="3.0"
         stroke-linecap="butt"
         stroke-opacity="1.0"
         stroke="rgb(0, 0, 0)"
         stroke-linejoin="round"
         d=" M 71.026, 93.832 81.026, 93.832 91.026, 93.832 92.443, 93.832 "
         id="path5" />
      <path
         fill="none"
         stroke-width="3.0"
         stroke-linecap="butt"
         stroke-opacity="1.0"
         stroke="rgb(0, 0, 0)"
         stroke-linejoin="round"
         d=" M 58.243, 93.832 68.243, 93.832 71.026, 93.832 62.566, 93.832 "
         id="path6" />
      <path
         fill="none"
         stroke-width="3.0"
         stroke-linecap="butt"
         stroke-opacity="1.0"
         stroke="rgb(0, 0, 0)"
         stroke-linejoin="round"
         d=" M 75.044, 93.832 85.044, 93.832 92.443, 93.832 "
         id="path7" />
      <path
         fill="none"
         stroke-width="3.0"
         stroke-linecap="butt"
         stroke-opacity="1.0"
         stroke="rgb(0, 0, 0)"
         stroke-linejoin="round"
         d=" M 78.842, 93.832 88.842, 93.832 92.443, 93.832 "
         id="path8" />
      <path
         fill="none"
         stroke-width="3.0"
         stroke-linecap="butt"
         stroke-opacity="1.0"
         stroke="rgb(0, 0, 0)"
         stroke-linejoin="round"
         d=" M 82.359, 93.832 92.443, 93.832 "
         id="path9" />
      <path
         fill="none"
         stroke-width="3.0"
         stroke-linecap="butt"
         stroke-opacity="1.0"
         stroke="rgb(0, 0, 0)"
         stroke-linejoin="round"
         d=" M 85.538, 93.832 92.443, 93.832 88.317, 93.832 "
         id="path10" />
      <path
         fill="none"
         stroke-width="3.0"
         stroke-linecap="butt"
         stroke-opacity="1.0"
         stroke="rgb(0, 0, 0)"
         stroke-linejoin="round"
         d=" M 11.100, 93.832 21.100, 93.832 31.100, 93.832 41.100, 93.832 49.708, 93.832 "
         id="path11" />
      <path
         fill="none"
         stroke-width="3.0"
         stroke-linecap="butt"
         stroke-opacity="1.0"
         stroke="rgb(0, 0, 0)"
         stroke-linejoin="round"
         d=" M 13.879, 93.832 23.879, 93.832 33.879, 93.832 43.879, 93.832 49.708, 93.832 "
         id="path12" />
      <path
         fill="none"
         stroke-width="3.0"
         stroke-linecap="butt"
         stroke-opacity="1.0"
         stroke="rgb(0, 0, 0)"
         stroke-linejoin="round"
         d=" M 17.058, 93.832 27.058, 93.832 37.058, 93.832 47.058, 93.832 49.708, 93.832 "
         id="path13" />
      <path
         fill="none"
         stroke-width="3.0"
         stroke-linecap="butt"
         stroke-opacity="1.0"
         stroke="rgb(0, 0, 0)"
         stroke-linejoin="round"
         d=" M 20.576, 93.832 30.576, 93.832 40.576, 93.832 49.708, 93.832 "
         id="path14" />
      <path
         fill="none"
         stroke-width="3.0"
         stroke-linecap="butt"
         stroke-opacity="1.0"
         stroke="rgb(0, 0, 0)"
         stroke-linejoin="round"
         d=" M 24.373, 93.832 34.373, 93.832 44.373, 93.832 49.708, 93.832 "
         id="path15" />
      <path
         fill="none"
         stroke-width="3.0"
         stroke-linecap="butt"
         stroke-opacity="1.0"
         stroke="rgb(0, 0, 0)"
         stroke-linejoin="round"
         d=" M 28.391, 93.832 38.391, 93.832 48.391, 93.832 49.708, 93.832 "
         id="path16" />
      <path
         fill="none"
         stroke-width="3.0"
         stroke-linecap="butt"
         stroke-opacity="1.0"
         stroke="rgb(0, 0, 0)"
         stroke-linejoin="round"
         d=" M 32.570, 93.832 42.570, 93.832 49.708, 93.832 "
         id="path17" />
      <path
         fill="none"
         stroke-width="3.0"
         stroke-linecap="butt"
         stroke-opacity="1.0"
         stroke="rgb(0, 0, 0)"
         stroke-linejoin="round"
         d=" M 36.851, 93.832 46.851, 93.832 49.708, 93.832 41.174, 93.832 "
         id="path18" />
    </g>
  </g>
</svg>
