<?xml version="1.0" encoding="UTF-8" standalone="no"?>
<!-- Uploaded to: SVG Repo, www.svgrepo.com, Generator: SVG Repo Mixer Tools -->

<svg
   fill="#000000"
   width="800px"
   height="800px"
   viewBox="0 0 32 32"
   version="1.1"
   id="svg1"
   sodipodi:docname="home-svgrepo-com.svg"
   inkscape:version="1.3.1 (9b9bdc1480, 2023-11-25, custom)"
   xmlns:inkscape="http://www.inkscape.org/namespaces/inkscape"
   xmlns:sodipodi="http://sodipodi.sourceforge.net/DTD/sodipodi-0.dtd"
   xmlns="http://www.w3.org/2000/svg"
   xmlns:svg="http://www.w3.org/2000/svg">
  <defs
     id="defs1" />
  <sodipodi:namedview
     id="namedview1"
     pagecolor="#ffffff"
     bordercolor="#000000"
     borderopacity="0.25"
     inkscape:showpageshadow="2"
     inkscape:pageopacity="0.0"
     inkscape:pagecheckerboard="0"
     inkscape:deskcolor="#d1d1d1"
     inkscape:zoom="0.74246212"
     inkscape:cx="400.02041"
     inkscape:cy="400.02041"
     inkscape:window-width="1920"
     inkscape:window-height="1043"
     inkscape:window-x="1920"
     inkscape:window-y="0"
     inkscape:window-maximized="1"
     inkscape:current-layer="svg1" />
  <title
     id="title1">home</title>
  <g
     id="layer1"
     transform="matrix(0.36009528,0,0,0.36009528,10.712001,4.1921457)">
    <path
       id="path1291"
       d="m 12.788,-0.23118 v 11.765 H 0 l -9.3079e-8,3.795 H 12.788 v 21.1 c 3.794,0 0,0 3.794,0 v -21.1 H 29.37 v -3.795 H 16.582 v -11.765 l -3.794,-1.8e-4 z"
       sodipodi:nodetypes="cccccccccccccc" />
  </g>
  <g
     id="layer1-9"
     transform="matrix(0.36041791,0,0,0.36041791,10.707263,4.1562372)">
    <path
       id="path1291-4"
       d="m 12.788,-0.23118 v 11.765 H 0 l -9.3079e-8,3.795 H 12.788 v 21.1 c -7.1950001,0.934 -12.76300009,7.079 -12.76300009,14.527 -6e-5,8.092 6.56639999,14.658 14.65800009,14.658 8.092,0 14.662,-6.566 14.662,-14.658 0,-7.447 -5.569,-13.592 -12.763,-14.527 v -21.1 H 29.37 v -3.795 H 16.582 v -11.765 l -3.794,-1.8e-4 z m 1.895,40.273 c 6.024,0 10.914,4.89 10.914,10.914 0,6.024 -4.89,10.913 -10.914,10.913 -6.0237,0 -10.91,-4.889 -10.91,-10.913 3e-4,-6.024 4.8863,-10.914 10.91,-10.914 z" />
  </g>
</svg>
