<?xml version="1.0" encoding="UTF-8" standalone="no"?>
<svg
   version="1.1"
   width="100"
   height="100"
   id="svg7"
   sodipodi:docname="set_filled_castro_hut_fill1.svg"
   inkscape:version="1.3.1 (9b9bdc1480, 2023-11-25, custom)"
   xmlns:inkscape="http://www.inkscape.org/namespaces/inkscape"
   xmlns:sodipodi="http://sodipodi.sourceforge.net/DTD/sodipodi-0.dtd"
   xmlns="http://www.w3.org/2000/svg"
   xmlns:svg="http://www.w3.org/2000/svg">
  <defs
     id="defs7" />
  <sodipodi:namedview
     id="namedview7"
     pagecolor="#ffffff"
     bordercolor="#000000"
     borderopacity="0.25"
     inkscape:showpageshadow="2"
     inkscape:pageopacity="0.0"
     inkscape:pagecheckerboard="0"
     inkscape:deskcolor="#d1d1d1"
     inkscape:zoom="7.3812723"
     inkscape:cx="43.420698"
     inkscape:cy="51.888073"
     inkscape:window-width="1920"
     inkscape:window-height="1043"
     inkscape:window-x="1920"
     inkscape:window-y="0"
     inkscape:window-maximized="1"
     inkscape:current-layer="strokes" />
  <g
     id="ViewLayer_LineSet"
     inkscape:groupmode="lineset"
     inkscape:label="ViewLayer_LineSet">
    <g
       inkscape:groupmode="layer"
       id="strokes"
       inkscape:label="strokes">
      <path
         style="color:#000000;fill:#000000;stroke-linecap:round;stroke-linejoin:round;-inkscape-stroke:none"
         d="m 24.025391,54.105469 c -0.876716,-0.07322 -1.627965,0.620237 -1.625,1.5 l 0.03516,10 0.03711,10 0.03125,9.107422 c 5.56e-4,0.160719 0.02693,0.320307 0.07813,0.472656 l 0.392578,1.166015 c 0.0117,0.03563 0.02473,0.07081 0.03906,0.105469 l 0.492187,1.164063 c 0.09184,0.217467 0.233707,0.41019 0.414063,0.5625 l 1.332031,1.125 c 0.08021,0.06751 0.167273,0.126425 0.259766,0.175781 l 1.933593,1.035156 c 0.07152,0.03785 0.145978,0.06986 0.222657,0.0957 l 2.626953,0.896485 c 0.06325,0.02121 0.127849,0.03817 0.193359,0.05078 l 3.728516,0.732422 c 0.04202,0.0083 0.08438,0.01484 0.126953,0.01953 l 5.666016,0.621094 c 0.01499,-0.0011 0.02997,-0.0024 0.04492,-0.0039 0.0097,0.0034 0.0195,0.0066 0.0293,0.0098 l 4.384766,0.259766 c 0.01887,0.001 0.03775,0.0017 0.05664,0.002 l 5.443359,0.113281 c 0.02083,4.34e-4 0.04167,4.34e-4 0.0625,0 l 5.443359,-0.113281 c 0.02149,-2.05e-4 0.04298,-8.25e-4 0.06445,-0.002 l 5.234376,-0.335938 c 0.02413,-0.0014 0.04823,-0.0034 0.07227,-0.0059 l 4.816406,-0.544922 c 0.04061,-0.0049 0.08101,-0.01137 0.121094,-0.01953 L 69.511719,91.5625 c 0.06551,-0.01261 0.130107,-0.02957 0.193359,-0.05078 l 2.626953,-0.896485 c 0.07668,-0.02584 0.15114,-0.05785 0.222657,-0.0957 l 1.933593,-1.035156 c 0.09249,-0.04936 0.179557,-0.108271 0.259766,-0.175781 l 1.332031,-1.125 c 0.180356,-0.15231 0.322222,-0.345033 0.414063,-0.5625 l 0.492187,-1.164063 c 0.01433,-0.03466 0.02736,-0.06984 0.03906,-0.105469 l 0.392578,-1.166015 c 0.05461,-0.162279 0.08102,-0.33271 0.07813,-0.503906 l -0.166016,-9.998047 -0.166016,-9.998047 -0.15039,-9.109375 c -0.01402,-0.868105 -0.759803,-1.543074 -1.625,-1.470703 l -5.529297,0.458984 c -0.05259,0.0044 -0.101592,0.01781 -0.152344,0.02734 -0.05015,-0.0094 -0.09845,-0.02304 -0.15039,-0.02734 z"
         id="path2" />
      <path
         fill="none"
         stroke-width="3"
         stroke-linecap="butt"
         stroke-opacity="1"
         stroke="#000000"
         stroke-linejoin="round"
         d="m 63.673,56.401 6.31,-0.341 5.53,-0.459 4.539,-0.559 3.372,-0.638 2.077,-0.692 0.701,-0.72 0.781,-1.178 -6.963,-7.178 -6.963,-7.177 -6.963,-7.177 -6.963,-7.178 -6.963,-7.177 -0.903,-0.93 -0.764,-0.386 -0.794,-0.152 -0.794,0.152 -0.764,0.386 -6.963,7.177 -6.963,7.177 -6.963,7.178 -6.963,7.177 -6.963,7.178 -0.903,0.93 0.781,1.178 0.701,0.72 2.077,0.692 3.373,0.638 4.538,0.559 5.531,0.459 6.309,0.341 6.846,0.21 7.12,0.071 h 10e-4 l 7.119,-0.071 6.846,-0.21"
         id="path1"
         style="display:inline;stroke-linecap:round;fill:#000000" />
    </g>
  </g>
</svg>
