<?xml version="1.0" encoding="UTF-8" standalone="no"?>
<svg
   version="1.1"
   width="100"
   height="100"
   id="svg11"
   sodipodi:docname="set_fill_tower3.svg"
   inkscape:version="1.3.1 (9b9bdc1480, 2023-11-25, custom)"
   xmlns:inkscape="http://www.inkscape.org/namespaces/inkscape"
   xmlns:sodipodi="http://sodipodi.sourceforge.net/DTD/sodipodi-0.dtd"
   xmlns="http://www.w3.org/2000/svg"
   xmlns:svg="http://www.w3.org/2000/svg">
  <defs
     id="defs11" />
  <sodipodi:namedview
     id="namedview11"
     pagecolor="#ffffff"
     bordercolor="#000000"
     borderopacity="0.25"
     inkscape:showpageshadow="2"
     inkscape:pageopacity="0.0"
     inkscape:pagecheckerboard="0"
     inkscape:deskcolor="#d1d1d1"
     inkscape:zoom="7.37"
     inkscape:cx="50"
     inkscape:cy="49.932157"
     inkscape:window-width="1920"
     inkscape:window-height="1043"
     inkscape:window-x="1920"
     inkscape:window-y="0"
     inkscape:window-maximized="1"
     inkscape:current-layer="strokes" />
  <g
     id="ViewLayer_LineSet"
     inkscape:groupmode="lineset"
     inkscape:label="ViewLayer_LineSet">
    <g
       inkscape:groupmode="layer"
       id="strokes"
       inkscape:label="strokes">
      <path
         style="color:#000000;display:inline;fill:#000000;stroke:#000000;stroke-linecap:round;stroke-linejoin:round;-inkscape-stroke:none"
         d="m 11.111328,4.0566406 a 1.50015,1.50015 0 0 0 -1.4999999,1.5 v 10.0000004 1.111328 5.554687 5.554688 5.554687 5.556641 a 1.5,1.5 0 0 0 0.1816407,0.675781 1.5,1.5 0 0 0 0.1113281,0.166016 1.5,1.5 0 0 0 0.3652341,0.365234 1.5,1.5 0 0 0 0.166016,0.111328 1.5,1.5 0 0 0 0.675781,0.181641 h 9.611328 v 8.5 10 10 10 10 5.554687 a 1.50015,1.50015 0 0 0 1.5,1.5 h 10 1.109375 10 1.111328 10 1.113282 10 1.111328 10 1.109375 a 1.5,1.5 0 0 0 1.5,-1.5 v -10 -10 -10 -10 -10 -4.054687 h 8.5 1.111328 a 1.50015,1.50015 0 0 0 1.5,-1.5 v -5.556641 -5.554687 -5.554688 -10 -6.6660154 A 1.5,1.5 0 0 0 90.375,5.3613281 1.5,1.5 0 0 0 90.373,5.3554681 1.5,1.5 0 0 0 90.35933,5.2812491 1.5,1.5 0 0 0 90.33003,5.1464835 1.5,1.5 0 0 0 90.31245,5.0898425 1.5,1.5 0 0 0 90.26167,4.9550768 1.5,1.5 0 0 0 90.22261,4.8769518 1.5,1.5 0 0 0 90.16597,4.7753893 1.5,1.5 0 0 0 90.12105,4.7070303 1.5,1.5 0 0 0 90.04097,4.6015616 a 1.5,1.5 0 0 0 -0.04883,-0.056641 1.5,1.5 0 0 0 -0.0918,-0.091797 1.5,1.5 0 0 0 -0.05664,-0.048828 1.5,1.5 0 0 0 -0.105469,-0.080078 1.5,1.5 0 0 0 -0.06836,-0.044922 1.5,1.5 0 0 0 -0.101563,-0.056641 1.5,1.5 0 0 0 -0.07813,-0.039062 1.5,1.5 0 0 0 -0.134765,-0.050781 1.5,1.5 0 0 0 -0.05664,-0.017578 1.5,1.5 0 0 0 -0.134766,-0.029297 1.5,1.5 0 0 0 -0.08008,-0.015625 1.5,1.5 0 0 0 -0.195312,-0.013672 h -10 -1.111328 a 1.50015,1.50015 0 0 0 -1.5,1.5 V 15.55664 20.722655 h -8.109375 v -8.5 -6.6660154 a 1.5,1.5 0 0 0 -0.01367,-0.1953125 1.5,1.5 0 0 0 -0.0039,-0.021484 1.5,1.5 0 0 0 -0.0293,-0.1503907 1.5,1.5 0 0 0 -0.01953,-0.066406 1.5,1.5 0 0 0 -0.0332,-0.099609 1.5,1.5 0 0 0 -0.0332,-0.082031 1.5,1.5 0 0 0 -0.04687,-0.089844 1.5,1.5 0 0 0 -0.03516,-0.064453 1.5,1.5 0 0 0 -0.06445,-0.097656 1.5,1.5 0 0 0 -0.04883,-0.068359 1.5,1.5 0 0 0 -0.111328,-0.125 1.5,1.5 0 0 0 -0.125,-0.1113282 1.5,1.5 0 0 0 -0.0078,-0.00586 1.5,1.5 0 0 0 -0.06055,-0.042969 1.5,1.5 0 0 0 -0.09766,-0.064453 1.5,1.5 0 0 0 -0.0625,-0.035156 1.5,1.5 0 0 0 -0.0918,-0.046875 1.5,1.5 0 0 0 -0.08203,-0.033203 1.5,1.5 0 0 0 -0.09961,-0.033203 1.5,1.5 0 0 0 -0.06641,-0.019531 1.5,1.5 0 0 0 -0.171875,-0.033203 1.5,1.5 0 0 0 -0.0059,0 1.5,1.5 0 0 0 -0.189453,-0.013672 h -10 -1.111328 a 1.50015,1.50015 0 0 0 -1.5,1.5 v 10.0000008 5.166015 h -8.113282 v -8.5 -6.6660158 a 1.5,1.5 0 0 0 -0.0078,-0.15625 1.5,1.5 0 0 0 -0.0039,-0.029297 1.5,1.5 0 0 0 -0.02148,-0.1269532 1.5,1.5 0 0 0 -0.0059,-0.019531 1.5,1.5 0 0 0 -0.07422,-0.234375 1.5,1.5 0 0 0 -0.04492,-0.1015625 1.5,1.5 0 0 0 -0.01367,-0.023437 1.5,1.5 0 0 0 -0.04102,-0.078125 1.5,1.5 0 0 0 -0.171875,-0.234375 1.5,1.5 0 0 0 -0.0059,-0.00586 1.5,1.5 0 0 0 -0.105468,-0.1054688 1.5,1.5 0 0 0 -0.02539,-0.019531 1.5,1.5 0 0 0 -0.208984,-0.1523438 1.5,1.5 0 0 0 -0.101563,-0.054687 1.5,1.5 0 0 0 -0.01172,-0.00586 1.5,1.5 0 0 0 -0.08984,-0.039063 1.5,1.5 0 0 0 -0.253907,-0.080078 1.5,1.5 0 0 0 -0.01172,-0.00195 1.5,1.5 0 0 0 -0.144532,-0.023437 1.5,1.5 0 0 0 -0.0059,0 1.5,1.5 0 0 0 -0.150391,-0.00781 h -10 -1.111328 a 1.5,1.5 0 0 0 -0.433593,0.070312 1.5,1.5 0 0 0 -0.109376,0.044922 1.5,1.5 0 0 0 -0.28125,0.1425781 1.5,1.5 0 0 0 -0.11914,0.091797 1.5,1.5 0 0 0 -0.207031,0.2070312 1.5,1.5 0 0 0 -0.0918,0.1191407 1.5,1.5 0 0 0 -0.142578,0.28125 1.5,1.5 0 0 0 -0.04492,0.109375 1.5,1.5 0 0 0 -0.07031,0.4335937 v 9.9999944 5.166015 H 23.722656 V 16.667969 6.6679688 5.5566406 a 1.5,1.5 0 0 0 -0.01367,-0.1972656 1.5,1.5 0 0 0 -0.0078,-0.042969 1.5,1.5 0 0 0 -0.0293,-0.1386718 1.5,1.5 0 0 0 -0.01953,-0.068359 1.5,1.5 0 0 0 -0.06445,-0.1757812 1.5,1.5 0 0 0 -0.01758,-0.03125 1.5,1.5 0 0 0 -0.07227,-0.1308594 1.5,1.5 0 0 0 -0.03516,-0.054687 1.5,1.5 0 0 0 -0.107422,-0.1425781 1.5,1.5 0 0 0 -0.002,-0.00195 A 1.5,1.5 0 0 0 23.205036,4.423832 1.5,1.5 0 0 0 23.193316,4.414062 1.5,1.5 0 0 0 23.062457,4.316406 1.5,1.5 0 0 0 23.007767,4.28125 1.5,1.5 0 0 0 22.845658,4.191406 1.5,1.5 0 0 0 22.831988,4.185546 1.5,1.5 0 0 0 22.669879,4.126952 1.5,1.5 0 0 0 22.601519,4.107421 1.5,1.5 0 0 0 22.462848,4.078124 1.5,1.5 0 0 0 22.419878,4.070314 1.5,1.5 0 0 0 22.222612,4.056642 h -10 z"
         id="path1" />
    </g>
  </g>
</svg>
