<?xml version="1.0" encoding="UTF-8" standalone="no"?>
<svg
   version="1.1"
   width="100"
   height="100"
   id="svg1"
   sodipodi:docname="ph_pico_outline.svg"
   inkscape:version="1.3.1 (9b9bdc1480, 2023-11-25, custom)"
   xmlns:inkscape="http://www.inkscape.org/namespaces/inkscape"
   xmlns:sodipodi="http://sodipodi.sourceforge.net/DTD/sodipodi-0.dtd"
   xmlns="http://www.w3.org/2000/svg"
   xmlns:svg="http://www.w3.org/2000/svg">
  <defs
     id="defs1" />
  <sodipodi:namedview
     id="namedview1"
     pagecolor="#ffffff"
     bordercolor="#000000"
     borderopacity="0.25"
     inkscape:showpageshadow="2"
     inkscape:pageopacity="0.0"
     inkscape:pagecheckerboard="0"
     inkscape:deskcolor="#d1d1d1"
     inkscape:zoom="7.37"
     inkscape:cx="50"
     inkscape:cy="49.932157"
     inkscape:window-width="1920"
     inkscape:window-height="1043"
     inkscape:window-x="1920"
     inkscape:window-y="0"
     inkscape:window-maximized="1"
     inkscape:current-layer="strokes" />
  <g
     id="ViewLayer_LineSet"
     inkscape:groupmode="lineset"
     inkscape:label="ViewLayer_LineSet">
    <g
       inkscape:groupmode="layer"
       id="strokes"
       inkscape:label="strokes">
      <path
         fill="none"
         stroke-width="3.0"
         stroke-linecap="butt"
         stroke-opacity="1.0"
         stroke="rgb(0, 0, 0)"
         stroke-linejoin="round"
         d=" M 50.931, 6.718 50.000, 5.971 49.069, 6.718 48.331, 7.418 47.728, 8.078 47.206, 8.708 46.708, 9.314 46.179, 9.907 45.563, 10.495 44.804, 11.087 43.846, 11.690 42.633, 12.315 41.110, 12.968 39.219, 13.659 39.704, 14.218 40.275, 14.882 40.850, 15.655 41.345, 16.543 41.680, 17.551 41.769, 18.682 41.532, 19.942 40.885, 21.335 39.745, 22.865 38.030, 24.538 35.657, 26.359 32.543, 28.330 32.958, 28.933 33.552, 29.743 34.222, 30.739 34.869, 31.898 35.389, 33.201 35.684, 34.625 35.651, 36.150 35.190, 37.753 34.199, 39.414 32.577, 41.112 30.223, 42.825 27.037, 44.532 27.254, 45.645 27.566, 46.881 27.889, 48.226 28.144, 49.666 28.248, 51.186 28.119, 52.773 27.677, 54.412 26.839, 56.088 25.523, 57.789 23.649, 59.500 21.134, 61.206 17.897, 62.893 19.121, 67.592 20.660, 71.954 22.498, 75.965 24.621, 79.612 27.012, 82.880 29.657, 85.757 32.541, 88.228 35.648, 90.280 38.962, 91.900 42.469, 93.074 46.154, 93.788 50.000, 94.029 53.846, 93.788 57.531, 93.074 61.038, 91.900 64.352, 90.280 67.459, 88.228 70.343, 85.757 72.988, 82.880 75.379, 79.612 77.502, 75.965 79.340, 71.954 80.879, 67.592 82.103, 62.893 78.866, 61.206 76.351, 59.500 74.477, 57.789 73.161, 56.088 72.323, 54.412 71.881, 52.773 71.752, 51.186 71.856, 49.666 72.111, 48.226 72.434, 46.881 72.746, 45.645 72.963, 44.532 69.777, 42.825 67.423, 41.112 65.801, 39.414 64.810, 37.753 64.349, 36.150 64.316, 34.625 64.611, 33.201 65.131, 31.898 65.778, 30.739 66.448, 29.743 67.042, 28.933 67.457, 28.330 64.343, 26.359 61.970, 24.538 60.255, 22.865 59.115, 21.335 58.468, 19.942 58.231, 18.682 58.320, 17.551 58.655, 16.543 59.150, 15.655 59.725, 14.882 60.296, 14.218 60.781, 13.659 58.890, 12.968 57.367, 12.315 56.154, 11.690 55.196, 11.087 54.437, 10.495 53.821, 9.907 53.292, 9.314 52.794, 8.708 52.272, 8.078 51.669, 7.418 50.931, 6.718 "
         id="path1"
         style="stroke-linecap:round" />
    </g>
  </g>
</svg>
