<?xml version="1.0" encoding="UTF-8" standalone="no"?>
<svg
   version="1.1"
   width="100"
   height="100"
   id="svg27"
   sodipodi:docname="cemetery.svg"
   inkscape:version="1.3.1 (9b9bdc1480, 2023-11-25, custom)"
   xmlns:inkscape="http://www.inkscape.org/namespaces/inkscape"
   xmlns:sodipodi="http://sodipodi.sourceforge.net/DTD/sodipodi-0.dtd"
   xmlns="http://www.w3.org/2000/svg"
   xmlns:svg="http://www.w3.org/2000/svg">
  <defs
     id="defs27" />
  <sodipodi:namedview
     id="namedview27"
     pagecolor="#ffffff"
     bordercolor="#000000"
     borderopacity="0.25"
     inkscape:showpageshadow="2"
     inkscape:pageopacity="0.0"
     inkscape:pagecheckerboard="0"
     inkscape:deskcolor="#d1d1d1"
     inkscape:zoom="8.4"
     inkscape:cx="50"
     inkscape:cy="50"
     inkscape:window-width="1920"
     inkscape:window-height="1043"
     inkscape:window-x="1920"
     inkscape:window-y="0"
     inkscape:window-maximized="1"
     inkscape:current-layer="strokes" />
  <g
     id="ViewLayer_LineSet"
     inkscape:groupmode="lineset"
     inkscape:label="ViewLayer_LineSet">
    <g
       inkscape:groupmode="layer"
       id="strokes"
       inkscape:label="strokes">
      <path
         fill="none"
         stroke-width="3.0"
         stroke-linecap="butt"
         stroke-opacity="1.0"
         stroke="rgb(0, 0, 0)"
         stroke-linejoin="round"
         d=" M 34.008, 81.912 27.155, 81.912 27.155, 86.108 27.155, 90.137 27.155, 94.332 37.155, 94.332 47.155, 94.332 57.155, 94.332 67.155, 94.332 72.845, 94.332 72.845, 90.137 72.845, 86.108 72.845, 81.912 65.992, 81.912 "
         id="path1"
         style="stroke-linecap:round" />
      <path
         fill="none"
         stroke-width="3.0"
         stroke-linecap="butt"
         stroke-opacity="1.0"
         stroke="rgb(0, 0, 0)"
         stroke-linejoin="round"
         d=" M 72.845, 86.108 65.992, 86.108 55.992, 86.108 45.992, 86.108 35.992, 86.108 34.008, 86.108 27.155, 86.108 "
         id="path2" />
      <path
         fill="none"
         stroke-width="3.0"
         stroke-linecap="butt"
         stroke-opacity="1.0"
         stroke="rgb(0, 0, 0)"
         stroke-linejoin="round"
         d=" M 42.090, 38.488 42.004, 38.498 34.008, 44.632 34.008, 48.828 34.008, 55.650 "
         id="path3"
         style="stroke-linecap:round" />
      <path
         fill="none"
         stroke-width="3.0"
         stroke-linecap="butt"
         stroke-opacity="1.0"
         stroke="rgb(0, 0, 0)"
         stroke-linejoin="round"
         d=" M 65.992, 47.616 65.992, 44.632 65.123, 43.966 "
         id="path4"
         style="stroke-linecap:round" />
      <path
         fill="none"
         stroke-width="3.0"
         stroke-linecap="butt"
         stroke-opacity="1.0"
         stroke="rgb(0, 0, 0)"
         stroke-linejoin="round"
         d=" M 65.992, 81.912 65.992, 73.681 65.992, 63.681 65.992, 61.254 65.992, 54.770 65.992, 51.120 65.992, 48.828 65.992, 47.616 "
         id="path5"
         style="stroke-linecap:round" />
      <path
         fill="none"
         stroke-width="3.0"
         stroke-linecap="butt"
         stroke-opacity="1.0"
         stroke="rgb(0, 0, 0)"
         stroke-linejoin="round"
         d=" M 65.992, 48.828 64.412, 47.616 61.413, 45.315 59.654, 43.966 57.996, 42.693 50.000, 41.831 42.090, 42.684 42.004, 42.693 34.008, 48.828 "
         id="path6"
         style="stroke-linecap:round" />
      <path
         fill="none"
         stroke-width="3.0"
         stroke-linecap="butt"
         stroke-opacity="1.0"
         stroke="rgb(0, 0, 0)"
         stroke-linejoin="round"
         d=" M 34.008, 86.108 42.004, 86.108 50.000, 86.108 57.996, 86.108 65.992, 86.108 "
         id="path7"
         style="stroke-linecap:round" />
      <path
         fill="none"
         stroke-width="3.0"
         stroke-linecap="butt"
         stroke-opacity="1.0"
         stroke="rgb(0, 0, 0)"
         stroke-linejoin="round"
         d=" M 61.413, 41.119 57.996, 38.498 50.000, 37.635 42.090, 38.488 "
         id="path8"
         style="stroke-linecap:round" />
      <path
         fill="none"
         stroke-width="3.0"
         stroke-linecap="butt"
         stroke-opacity="1.0"
         stroke="rgb(0, 0, 0)"
         stroke-linejoin="round"
         d=" M 34.008, 59.522 34.008, 61.254 34.008, 63.239 34.008, 67.111 34.008, 73.681 34.008, 81.912 "
         id="path9"
         style="stroke-linecap:round" />
      <path
         fill="none"
         stroke-width="3.0"
         stroke-linecap="butt"
         stroke-opacity="1.0"
         stroke="rgb(0, 0, 0)"
         stroke-linejoin="round"
         d=" M 48.414, 57.155 50.000, 57.041 57.996, 57.616 57.996, 67.616 57.996, 72.088 50.000, 71.800 42.004, 72.088 42.004, 67.111 42.004, 63.239 42.004, 59.522 "
         id="path10"
         style="stroke-linecap:round" />
      <path
         fill="none"
         stroke-width="3.0"
         stroke-linecap="butt"
         stroke-opacity="1.0"
         stroke="rgb(0, 0, 0)"
         stroke-linejoin="round"
         d=" M 42.004, 59.522 42.004, 57.616 42.090, 57.610 "
         id="path11"
         style="stroke-linecap:round" />
      <path
         fill="none"
         stroke-width="3.0"
         stroke-linecap="butt"
         stroke-opacity="1.0"
         stroke="rgb(0, 0, 0)"
         stroke-linejoin="round"
         d=" M 65.992, 54.770 75.992, 54.770 85.992, 54.770 95.200, 54.770 95.200, 51.120 95.200, 47.616 95.200, 43.966 89.237, 43.966 "
         id="path12"
         style="stroke-linecap:round" />
      <path
         fill="none"
         stroke-width="3.0"
         stroke-linecap="butt"
         stroke-opacity="1.0"
         stroke="rgb(0, 0, 0)"
         stroke-linejoin="round"
         d=" M 95.200, 47.616 89.237, 47.616 79.237, 47.616 69.237, 47.616 65.992, 47.616 "
         id="path13"
         style="stroke-linecap:round" />
      <path
         fill="none"
         stroke-width="3.0"
         stroke-linecap="butt"
         stroke-opacity="1.0"
         stroke="rgb(0, 0, 0)"
         stroke-linejoin="round"
         d=" M 89.237, 47.616 89.237, 43.966 89.237, 33.966 89.237, 23.966 89.237, 15.183 89.237, 11.533 82.281, 6.196 75.325, 5.446 68.369, 6.196 61.413, 11.533 61.413, 15.183 61.413, 25.183 61.413, 35.183 61.413, 41.119 "
         id="path14"
         style="stroke-linecap:round" />
      <path
         fill="none"
         stroke-width="3.0"
         stroke-linecap="butt"
         stroke-opacity="1.0"
         stroke="rgb(0, 0, 0)"
         stroke-linejoin="round"
         d=" M 89.237, 15.183 82.281, 9.846 75.325, 9.096 68.369, 9.846 61.413, 15.183 "
         id="path15"
         style="stroke-linecap:round" />
      <path
         fill="none"
         stroke-width="3.0"
         stroke-linecap="butt"
         stroke-opacity="1.0"
         stroke="rgb(0, 0, 0)"
         stroke-linejoin="round"
         d=" M 65.992, 47.616 68.369, 47.616 75.325, 47.616 82.281, 47.616 89.237, 47.616 "
         id="path16"
         style="stroke-linecap:round" />
      <path
         fill="none"
         stroke-width="3.0"
         stroke-linecap="butt"
         stroke-opacity="1.0"
         stroke="rgb(0, 0, 0)"
         stroke-linejoin="round"
         d=" M 12.575, 55.650 6.251, 55.650 6.251, 59.522 6.251, 67.111 16.251, 67.111 26.251, 67.111 34.008, 67.111 "
         id="path17"
         style="stroke-linecap:round" />
      <path
         fill="none"
         stroke-width="3.0"
         stroke-linecap="butt"
         stroke-opacity="1.0"
         stroke="rgb(0, 0, 0)"
         stroke-linejoin="round"
         d=" M 42.090, 38.488 42.090, 28.488 42.090, 25.119 42.090, 21.247 34.711, 15.586 27.333, 14.790 19.954, 15.586 12.575, 21.247 12.575, 25.119 12.575, 35.119 12.575, 45.119 12.575, 55.119 12.575, 55.650 12.575, 59.522 "
         id="path18"
         style="stroke-linecap:round" />
      <path
         fill="none"
         stroke-width="3.0"
         stroke-linecap="butt"
         stroke-opacity="1.0"
         stroke="rgb(0, 0, 0)"
         stroke-linejoin="round"
         d=" M 42.090, 25.119 34.711, 19.458 27.333, 18.662 19.954, 19.458 12.575, 25.119 "
         id="path19" />
      <path
         fill="none"
         stroke-width="3.0"
         stroke-linecap="butt"
         stroke-opacity="1.0"
         stroke="rgb(0, 0, 0)"
         stroke-linejoin="round"
         d=" M 12.575, 59.522 19.954, 59.522 27.333, 59.522 34.008, 59.522 "
         id="path20" />
      <path
         fill="none"
         stroke-width="3.0"
         stroke-linecap="butt"
         stroke-opacity="1.0"
         stroke="rgb(0, 0, 0)"
         stroke-linejoin="round"
         d=" M 34.008, 81.912 34.008, 86.108 "
         id="path21" />
      <path
         fill="none"
         stroke-width="3.0"
         stroke-linecap="butt"
         stroke-opacity="1.0"
         stroke="rgb(0, 0, 0)"
         stroke-linejoin="round"
         d=" M 34.008, 59.522 34.008, 57.059 "
         id="path22"
         style="stroke-linecap:round" />
      <path
         fill="none"
         stroke-width="3"
         stroke-linecap="butt"
         stroke-opacity="1"
         stroke="#000000"
         stroke-linejoin="round"
         d="m 34.008,55.65 v 3.872"
         id="path23"
         style="display:inline;stroke-linecap:round" />
      <path
         fill="none"
         stroke-width="3.0"
         stroke-linecap="butt"
         stroke-opacity="1.0"
         stroke="rgb(0, 0, 0)"
         stroke-linejoin="round"
         d=" M 34.008, 59.522 24.008, 59.522 14.008, 59.522 12.575, 59.522 6.251, 59.522 "
         id="path24"
         style="stroke-linecap:round" />
      <path
         fill="none"
         stroke-width="3.0"
         stroke-linecap="butt"
         stroke-opacity="1.0"
         stroke="rgb(0, 0, 0)"
         stroke-linejoin="round"
         d=" M 42.090, 57.610 48.414, 57.155 "
         id="path25"
         style="stroke-linecap:round" />
      <path
         fill="none"
         stroke-width="3.0"
         stroke-linecap="butt"
         stroke-opacity="1.0"
         stroke="rgb(0, 0, 0)"
         stroke-linejoin="round"
         d=" M 65.992, 86.108 65.992, 81.912 "
         id="path26" />
      <path
         fill="none"
         stroke-width="3.0"
         stroke-linecap="butt"
         stroke-opacity="1.0"
         stroke="rgb(0, 0, 0)"
         stroke-linejoin="round"
         d=" M 65.123, 43.966 61.413, 41.119 "
         id="path27"
         style="stroke-linecap:round" />
    </g>
  </g>
</svg>
