<?xml version='1.0' encoding='ascii'?>
<svg xmlns="http://www.w3.org/2000/svg" version="1.1" width="100" height="100">
    <g id="ViewLayer_LineSet" xmlns:inkscape="http://www.inkscape.org/namespaces/inkscape" inkscape:groupmode="lineset" inkscape:label="ViewLayer_LineSet">
        <g xmlns:inkscape="http://www.inkscape.org/namespaces/inkscape" inkscape:groupmode="layer" id="strokes" inkscape:label="strokes">
            <path fill="none" stroke-width="3.0" stroke-linecap="butt" stroke-opacity="1.0" stroke="rgb(0, 0, 0)" stroke-linejoin="round" d=" M 64.815, 94.444 74.815, 94.444 84.815, 94.444 94.444, 94.444 93.525, 84.487 92.605, 74.529 91.685, 64.572 90.765, 54.614 89.845, 44.656 89.770, 43.836 87.725, 34.047 85.681, 24.258 84.020, 16.304 74.438, 13.444 64.856, 10.584 55.273, 7.724 52.778, 6.980 44.267, 12.230 35.756, 17.479 27.920, 22.313 22.303, 30.586 16.667, 38.889 14.706, 48.695 12.744, 58.501 10.783, 68.306 8.822, 78.112 6.861, 87.918 5.556, 94.444 15.556, 94.444 25.556, 94.444 35.185, 94.444 45.185, 94.444 50.000, 94.444 60.000, 94.444 64.815, 94.444 " />
            <path fill="none" stroke-width="3.0" stroke-linecap="butt" stroke-opacity="1.0" stroke="rgb(0, 0, 0)" stroke-linejoin="round" d=" M 64.815, 94.444 74.815, 94.444 79.630, 94.444 77.650, 84.642 75.670, 74.840 75.017, 71.611 67.404, 65.127 64.382, 62.554 54.634, 60.321 50.000, 59.259 43.986, 67.249 40.282, 72.171 38.051, 81.919 35.821, 91.667 35.185, 94.444 45.185, 94.444 50.000, 94.444 60.000, 94.444 64.815, 94.444 " />
        </g>
    </g>
</svg>
