<?xml version="1.0" encoding="UTF-8" standalone="no"?>
<svg
   version="1.1"
   width="100"
   height="100"
   id="svg57"
   sodipodi:docname="water_mill.svg"
   inkscape:version="1.3.1 (9b9bdc1480, 2023-11-25, custom)"
   xmlns:inkscape="http://www.inkscape.org/namespaces/inkscape"
   xmlns:sodipodi="http://sodipodi.sourceforge.net/DTD/sodipodi-0.dtd"
   xmlns="http://www.w3.org/2000/svg"
   xmlns:svg="http://www.w3.org/2000/svg">
  <defs
     id="defs57" />
  <sodipodi:namedview
     id="namedview57"
     pagecolor="#ffffff"
     bordercolor="#000000"
     borderopacity="0.25"
     inkscape:showpageshadow="2"
     inkscape:pageopacity="0.0"
     inkscape:pagecheckerboard="0"
     inkscape:deskcolor="#d1d1d1"
     inkscape:zoom="8.4"
     inkscape:cx="50"
     inkscape:cy="50"
     inkscape:window-width="1920"
     inkscape:window-height="1043"
     inkscape:window-x="1920"
     inkscape:window-y="0"
     inkscape:window-maximized="1"
     inkscape:current-layer="strokes" />
  <g
     id="ViewLayer_LineSet"
     inkscape:groupmode="lineset"
     inkscape:label="ViewLayer_LineSet">
    <g
       inkscape:groupmode="layer"
       id="strokes"
       inkscape:label="strokes"
       style="display:inline">
      <path
         fill="none"
         stroke-width="3"
         stroke-linecap="butt"
         stroke-opacity="1"
         stroke="#000000"
         stroke-linejoin="round"
         d="m 11.111,72.222 h 10 4.445 0.792 10 2.597 10 0.17 8.514 10 6.657 10 4.603 v -10 -10 -10 -10 -4.444 0 h -10 -10 -10 -10 -10 -10 -10 -7.778 v 10 10 10 10 4.444"
         id="path1"
         style="display:inline;stroke-linecap:round" />
      <path
         fill="none"
         stroke-width="3"
         stroke-linecap="butt"
         stroke-opacity="1"
         stroke="#000000"
         stroke-linejoin="round"
         d="m 6.278,89.391 5.449,-4.569 5.509,-2.974 5.655,-1.617 5.896,-0.489 1.089,0.073 5.133,0.344 6.627,1.102 6.55,1.442 0.553,0.122 7.653,1.795 4.902,1.065 1.219,0.265 2.154,0.468 8.973,1.57 9.744,1.111 9.992,0.397 0.597,0.024 V 89.461 89.3 89.08 88.86 88.699 88.64 l -9.992,-0.398 -0.53,-0.021 -9.685,-1.104 -8.929,-1.563 -1.323,-0.287 -0.98,-0.213 -5.948,-1.292 -7.652,-1.796 -0.67,-0.147 L 41.803,80.397 35.111,79.285 30.849,79 30.17,78.954 29.247,78.893 28.78,78.862 l -6.047,0.503 -5.829,1.668 -5.671,3.061 -5.577,4.675 0.109,0.109"
         id="path3"
         style="display:inline;stroke-linecap:round" />
      <path
         fill="none"
         stroke-width="3"
         stroke-linecap="butt"
         stroke-opacity="1"
         stroke="#000000"
         stroke-linejoin="round"
         d="m 30.17,78.954 -2.542,-3.726 -0.976,-2.292 -0.304,-0.714 -0.672,-1.579 -1.02,-4.878 -0.049,-4.984 9.961,0.883 8.544,0.758 0.249,-1.319 0.501,-1.244 0.735,-1.123 0.939,-0.958 -6.419,-7.668 -5.506,-6.577 4.117,-2.809 2.292,-0.976 2.293,-0.976 4.878,-1.02 4.984,-0.049 -0.883,9.961 -0.758,8.544 1.319,0.249 0.622,0.251 0.622,0.251 1.123,0.734 0.958,0.939 7.668,-6.419 6.577,-5.506 2.809,4.117 0.976,2.292 0.976,2.293 1.02,4.878 0.049,4.984 -9.961,-0.883 -8.544,-0.758 -0.249,1.319 -0.251,0.622 -0.251,0.622 -0.734,1.123 -0.94,0.958 3.306,3.948 6.419,7.668 2.201,2.629 -3.715,2.535"
         id="path20"
         style="display:inline;stroke-linecap:round" />
      <path
         fill="none"
         stroke-width="3"
         stroke-linecap="butt"
         stroke-opacity="1"
         stroke="#000000"
         stroke-linejoin="round"
         d="m 63.514,85.267 3.204,-2.187 3.59,-3.66 2.807,-4.291 0.958,-2.378 0.213,-0.529 0.745,-1.849 0.951,-5.038 -0.05,-5.127 -1.05,-5.018 -1.004,-2.359 -1.004,-2.359 -2.89,-4.235 -3.649,-3.611 -4.302,-2.785 -2.378,-0.958 -2.378,-0.958 -5.038,-0.951 -5.127,0.05 -5.018,1.049 -2.359,1.005 -2.359,1.004 -4.235,2.89 -3.589,3.66 -2.807,4.291 -0.958,2.378 -0.958,2.378 -0.951,5.038 0.05,5.127 1.049,5.018 0.579,1.36 0.426,0.999 1.004,2.359 2.261,3.313"
         id="path21"
         style="display:inline;stroke-linecap:round" />
      <path
         fill="none"
         stroke-width="3"
         stroke-linecap="butt"
         stroke-opacity="1"
         stroke="#000000"
         stroke-linejoin="round"
         d="m 29.876,79.815 3.66,3.589 4.291,2.807 2.378,0.958 2.378,0.958 5.038,0.951 5.126,-0.05 5.019,-1.049 2.359,-1.005 2.358,-1.004 0.03,-0.02"
         id="path22"
         style="display:inline;stroke-linecap:round" />
      <path
         fill="none"
         stroke-width="3"
         stroke-linecap="butt"
         stroke-opacity="1"
         stroke="#000000"
         stroke-linejoin="round"
         d="m 61.294,85.685 -1.455,0.619 -2.292,0.976 -4.878,1.02 -4.984,0.049 0.501,-5.646"
         id="path23"
         style="display:inline;stroke-linecap:round" />
      <path
         fill="none"
         stroke-width="3"
         stroke-linecap="butt"
         stroke-opacity="1"
         stroke="#000000"
         stroke-linejoin="round"
         d="M 48.264,81.819 49.115,72.222 49.326,69.844 48.007,69.595 47.385,69.344 46.763,69.093 45.64,68.359 44.682,67.42 38.945,72.222 31.277,78.641 30.849,79"
         id="path24"
         style="display:inline;stroke-linecap:round" />
      <path
         fill="none"
         stroke-width="3"
         stroke-linecap="butt"
         stroke-opacity="1"
         stroke="#000000"
         stroke-linejoin="round"
         d="m 54.898,60.911 0.208,0.489 0.218,1.042 0.01,1.063 -0.197,1.045 -0.199,0.493 -0.199,0.494 -0.582,0.89 -0.744,0.759 -0.879,0.6 -0.489,0.208 -0.49,0.208 -1.041,0.218 -1.063,0.01 -1.045,-0.197 -0.493,-0.199 -0.494,-0.198 -0.89,-0.583 -0.759,-0.744 -0.6,-0.879 -0.208,-0.489 -0.208,-0.489 -0.218,-1.042 -0.01,-1.063 0.197,-1.045 0.199,-0.493 0.198,-0.494 0.583,-0.89 0.744,-0.759 0.879,-0.6 0.489,-0.208 0.489,-0.208 1.041,-0.218 1.064,-0.01 1.045,0.197 0.493,0.199 0.494,0.198 0.89,0.583 0.759,0.744 0.599,0.879 0.209,0.489"
         id="path25"
         style="display:inline;stroke-linecap:round" />
      <path
         fill="none"
         stroke-width="3"
         stroke-linecap="butt"
         stroke-opacity="1"
         stroke="#000000"
         stroke-linejoin="round"
         d="m 88.889,27.778 -5.843,-8.116 -5.843,-8.115 -0.314,-0.436 h -10 -10 -10 -10 -10 -3.778 l -5.843,8.115 -5.843,8.116 -0.314,0.436 h 10 10 10 10 10 10 10 7.778"
         id="path27"
         style="display:inline;stroke-linecap:round" />
    </g>
  </g>
</svg>
