<?xml version="1.0" encoding="UTF-8" standalone="no"?>
<svg
   version="1.1"
   width="100"
   height="100"
   id="svg7"
   sodipodi:docname="burial.svg"
   inkscape:version="1.3.1 (9b9bdc1480, 2023-11-25, custom)"
   xmlns:inkscape="http://www.inkscape.org/namespaces/inkscape"
   xmlns:sodipodi="http://sodipodi.sourceforge.net/DTD/sodipodi-0.dtd"
   xmlns="http://www.w3.org/2000/svg"
   xmlns:svg="http://www.w3.org/2000/svg">
  <defs
     id="defs7" />
  <sodipodi:namedview
     id="namedview7"
     pagecolor="#ffffff"
     bordercolor="#000000"
     borderopacity="0.25"
     inkscape:showpageshadow="2"
     inkscape:pageopacity="0.0"
     inkscape:pagecheckerboard="0"
     inkscape:deskcolor="#d1d1d1"
     showgrid="false"
     inkscape:zoom="8.4"
     inkscape:cx="50"
     inkscape:cy="50"
     inkscape:window-width="1920"
     inkscape:window-height="1043"
     inkscape:window-x="1920"
     inkscape:window-y="0"
     inkscape:window-maximized="1"
     inkscape:current-layer="strokes" />
  <g
     id="ViewLayer_LineSet"
     inkscape:groupmode="lineset"
     inkscape:label="ViewLayer_LineSet">
    <g
       inkscape:groupmode="layer"
       id="strokes"
       inkscape:label="strokes"
       style="display:inline">
      <path
         fill="none"
         stroke-width="3"
         stroke-linecap="butt"
         stroke-opacity="1"
         stroke="#000000"
         stroke-linejoin="round"
         d="m 25.398,75.059 h -10 -0.544 v 6.455 6.197 6.455 h 10 10 10 10 10 10 10.292 v -6.455 -6.197 -6.455 h -10 -0.544"
         id="path1"
         style="display:inline;stroke-linecap:round" />
      <path
         fill="none"
         stroke-width="3"
         stroke-linecap="butt"
         stroke-opacity="1"
         stroke="#000000"
         stroke-linejoin="round"
         d="m 85.146,81.514 h -10 -0.544 -10 -10 -10 -10 -9.204 -10 -0.544"
         id="path2"
         style="display:inline" />
      <path
         fill="none"
         stroke-width="3"
         stroke-linecap="butt"
         stroke-opacity="1"
         stroke="#000000"
         stroke-linejoin="round"
         d="m 74.602,75.059 v -10 -2.664 -10 -9.118 -10 -9.118 -6.455 L 66.668,11.617 62.301,8.267 52.359,7.195 50,6.94 l -9.942,1.072 -2.359,0.255 -7.934,6.087 -4.367,3.35 v 6.455 10 9.118 10 9.118 10 2.664 6.455"
         id="path3"
         style="display:inline;stroke-linecap:round" />
      <path
         fill="none"
         stroke-width="3"
         stroke-linecap="butt"
         stroke-opacity="1"
         stroke="#000000"
         stroke-linejoin="round"
         d="M 74.602,24.159 66.668,18.072 62.301,14.721 52.359,13.649 50,13.395 l -9.942,1.072 -2.359,0.254 -7.934,6.087 -4.367,3.351"
         id="path4"
         style="display:inline;stroke-linecap:round" />
      <path
         fill="none"
         stroke-width="3"
         stroke-linecap="butt"
         stroke-opacity="1"
         stroke="#000000"
         stroke-linejoin="round"
         d="m 25.398,81.514 h 10 2.301 10 2.301 10 2.301 10 2.301"
         id="path5"
         style="display:inline" />
      <path
         fill="none"
         stroke-width="3"
         stroke-linecap="butt"
         stroke-opacity="1"
         stroke="#000000"
         stroke-linejoin="round"
         d="m 50,36.795 9.974,0.718 2.327,0.167 v 10 10 2.264 L 52.308,59.585 50,59.502 l -9.994,0.359 -2.307,0.083 v -10 -10 -2.264 L 47.673,36.963 50,36.795"
         id="path6"
         style="display:inline;stroke-linecap:round" />
      <path
         fill="none"
         stroke-width="3"
         stroke-linecap="butt"
         stroke-opacity="1"
         stroke="#000000"
         stroke-linejoin="round"
         d="M 74.602,81.514 V 75.059"
         id="path7"
         style="display:inline" />
    </g>
  </g>
</svg>
