<?xml version="1.0" encoding="UTF-8" standalone="no"?>
<svg
   version="1.1"
   width="100"
   height="100"
   id="svg1"
   sodipodi:docname="cut_rock_grave_fill.svg"
   inkscape:version="1.3.1 (9b9bdc1480, 2023-11-25, custom)"
   xmlns:inkscape="http://www.inkscape.org/namespaces/inkscape"
   xmlns:sodipodi="http://sodipodi.sourceforge.net/DTD/sodipodi-0.dtd"
   xmlns="http://www.w3.org/2000/svg"
   xmlns:svg="http://www.w3.org/2000/svg">
  <defs
     id="defs1" />
  <sodipodi:namedview
     id="namedview1"
     pagecolor="#ffffff"
     bordercolor="#000000"
     borderopacity="0.25"
     inkscape:showpageshadow="2"
     inkscape:pageopacity="0.0"
     inkscape:pagecheckerboard="0"
     inkscape:deskcolor="#d1d1d1"
     inkscape:zoom="8.4"
     inkscape:cx="50"
     inkscape:cy="50"
     inkscape:window-width="1920"
     inkscape:window-height="1043"
     inkscape:window-x="1920"
     inkscape:window-y="0"
     inkscape:window-maximized="1"
     inkscape:current-layer="strokes" />
  <g
     id="ViewLayer_LineSet"
     inkscape:groupmode="lineset"
     inkscape:label="ViewLayer_LineSet">
    <g
       inkscape:groupmode="layer"
       id="strokes"
       inkscape:label="strokes">
      <path
         fill="none"
         stroke-width="3.0"
         stroke-linecap="butt"
         stroke-opacity="1.0"
         stroke="rgb(0, 0, 0)"
         stroke-linejoin="round"
         d=" M 54.086, 93.135 56.142, 93.135 57.113, 83.182 58.084, 73.229 59.056, 63.276 60.027, 53.324 60.998, 43.371 61.969, 33.418 62.828, 24.620 59.928, 21.478 55.428, 21.478 55.390, 12.902 53.555, 8.585 49.976, 6.885 46.396, 8.585 44.561, 12.902 44.523, 21.478 40.023, 21.478 37.123, 24.620 38.094, 34.572 39.065, 44.525 40.036, 54.478 41.007, 64.431 41.977, 74.383 42.948, 84.336 43.806, 93.135 45.862, 93.135 47.918, 93.135 48.946, 93.135 49.974, 93.135 51.002, 93.135 52.030, 93.135 54.086, 93.135 "
         id="path1"
         style="stroke-linecap:round;fill:#000000" />
    </g>
  </g>
</svg>
