<?xml version="1.0" encoding="iso-8859-1"?>
<!-- Uploaded to: SVG Repo, www.svgrepo.com, Generator: SVG Repo Mixer Tools -->
<!DOCTYPE svg PUBLIC "-//W3C//DTD SVG 1.1//EN" "http://www.w3.org/Graphics/SVG/1.1/DTD/svg11.dtd">
<svg fill="#000000" height="800px" width="800px" version="1.1" id="Capa_1" xmlns="http://www.w3.org/2000/svg" xmlns:xlink="http://www.w3.org/1999/xlink" 
	 viewBox="0 0 493.56 493.56" xml:space="preserve">
<g id="XMLID_69_">
	<path id="XMLID_71_" d="M61.697,143.511h370.184c2.025,0,3.857-1.219,4.621-3.092c0.779-1.871,0.35-4.03-1.084-5.464
		c-26.418-26.418-62.236-41.26-99.602-41.26h-39.229l8.509-8.5c2.979-2.979,2.979-7.824,0-10.803L270.81,40.094
		c-6.376-6.374-15.013-9.952-24.013-9.952c-9.004,0-17.641,3.578-24.013,9.952L188.48,74.398c-2.98,2.981-2.98,7.823,0,10.804
		l8.493,8.493H157.76c-37.348,0-73.166,14.833-99.586,41.244c-1.449,1.458-1.88,3.609-1.114,5.48
		C57.84,142.292,59.656,143.511,61.697,143.511z"/>
	<path id="XMLID_70_" d="M477.243,169.148H16.317C7.299,169.148,0,176.453,0,185.465c0,9.009,7.299,16.315,16.317,16.315h20.697
		c15.886,54.286,16.093,108.581,0.271,162.857c-1.195,4.063-0.445,8.445,1.977,11.918c2.421,3.466,6.293,5.649,10.516,5.929
		c2.405,0.157,4.813,0.207,7.202,0.357l39.674,51.546c-3.872,2.979-6.532,7.45-6.532,12.715c0,9.012,7.298,16.316,16.314,16.316
		h280.703c9.02,0,16.316-7.305,16.316-16.316c0-5.265-2.659-9.735-6.531-12.715l39.674-51.546c2.391-0.149,4.795-0.199,7.201-0.357
		c4.223-0.279,8.094-2.463,10.533-5.929c2.421-3.465,3.154-7.855,1.958-11.918c-15.82-54.276-15.614-108.571,0.27-162.857h20.683
		c9.018,0,16.316-7.306,16.316-16.315C493.56,176.453,486.262,169.148,477.243,169.148z"/>
</g>
</svg>