<?xml version="1.0" encoding="iso-8859-1"?>
<!-- Uploaded to: SVG Repo, www.svgrepo.com, Generator: SVG Repo Mixer Tools -->
<!DOCTYPE svg PUBLIC "-//W3C//DTD SVG 1.1//EN" "http://www.w3.org/Graphics/SVG/1.1/DTD/svg11.dtd">
<svg fill="#000000" height="800px" width="800px" version="1.1" id="Capa_1" xmlns="http://www.w3.org/2000/svg" xmlns:xlink="http://www.w3.org/1999/xlink" 
	 viewBox="0 0 495.655 495.655" xml:space="preserve">
<path id="XMLID_67_" d="M440.807,285.285c-35.938-66.251-104.355-117.192-163.703-99.753
	c-83.013-123.535-22.441-148.321-25.894-170.39c-6.313-39.897-121.214-3.551-130.364,140.131
	c-53.432,12.965-94.254,81.879-94.254,165.2c0,92.533,50.325,167.562,112.4,167.562c33.593,0,63.661-22.086,84.252-56.921
	c-54.356-82.64-60.896-182.828-14.468-241.859c-14.441-17.095-31.753-28.927-50.696-33.773c1.667-20.72,8.95-70.021,39.417-98.911
	c-6.694,49.736,19.468,106.24,47.39,147.841c-38.556,37.787-40.64,116.232-1.685,188.046
	c44.109,81.345,124.132,123.317,178.689,93.702C476.457,456.562,484.917,366.621,440.807,285.285z"/>
</svg>