<?xml version="1.0" encoding="iso-8859-1"?>
<!-- Uploaded to: SVG Repo, www.svgrepo.com, Generator: SVG Repo Mixer Tools -->
<!DOCTYPE svg PUBLIC "-//W3C//DTD SVG 1.1//EN" "http://www.w3.org/Graphics/SVG/1.1/DTD/svg11.dtd">
<svg fill="#000000" height="800px" width="800px" version="1.1" id="Capa_1" xmlns="http://www.w3.org/2000/svg" xmlns:xlink="http://www.w3.org/1999/xlink" 
	 viewBox="0 0 490.001 490.001" xml:space="preserve">
<g id="XMLID_195_">
	<path id="XMLID_202_" d="M36.114,106.129h417.763c3.177,0,5.922-2.231,6.582-5.343c0.65-3.112-0.962-6.264-3.87-7.542L244.984,0
		L33.402,93.244c-2.916,1.278-4.529,4.431-3.868,7.542C30.185,103.898,32.93,106.129,36.114,106.129z"/>
	<path id="XMLID_201_" d="M477.017,126.149H12.983c-3.715,0-6.727,3.014-6.727,6.728v31.375c0,3.713,3.013,6.727,6.727,6.727
		h464.033c3.715,0,6.729-3.014,6.729-6.727v-31.375C483.745,129.163,480.732,126.149,477.017,126.149z"/>
	<path id="XMLID_200_" d="M257.046,196.001h-24.092c-3.576,0-6.515,2.786-6.719,6.345L210.318,482.89
		c-0.105,1.85,0.555,3.658,1.825,5.001c1.271,1.345,3.04,2.11,4.888,2.11h55.939c1.848,0,3.616-0.766,4.888-2.11
		c1.269-1.343,1.93-3.151,1.825-5.001l-15.915-280.544C263.561,198.786,260.622,196.001,257.046,196.001z"/>
	<path id="XMLID_199_" d="M357.131,196.001h-24.092c-3.577,0-6.516,2.786-6.719,6.345L310.403,482.89
		c-0.105,1.85,0.555,3.658,1.825,5.001c1.271,1.345,3.04,2.11,4.888,2.11h55.94c1.848,0,3.616-0.766,4.888-2.11
		c1.268-1.343,1.93-3.151,1.824-5.001l-15.914-280.544C363.647,198.786,360.707,196.001,357.131,196.001z"/>
	<path id="XMLID_198_" d="M457.217,196.001h-24.093c-3.576,0-6.515,2.786-6.719,6.345L410.488,482.89
		c-0.105,1.85,0.555,3.658,1.825,5.001c1.271,1.345,3.039,2.11,4.888,2.11h55.939c1.848,0,3.616-0.766,4.887-2.11
		c1.27-1.343,1.93-3.151,1.825-5.001l-15.916-280.544C463.732,198.786,460.793,196.001,457.217,196.001z"/>
	<path id="XMLID_197_" d="M156.961,196.001h-24.092c-3.577,0-6.516,2.786-6.72,6.345L110.232,482.89
		c-0.105,1.85,0.556,3.658,1.825,5.001c1.271,1.345,3.039,2.11,4.887,2.11h55.94c1.848,0,3.617-0.766,4.888-2.11
		c1.269-1.343,1.929-3.151,1.825-5.001l-15.915-280.544C163.476,198.786,160.537,196.001,156.961,196.001z"/>
	<path id="XMLID_196_" d="M56.876,196.001H32.783c-3.577,0-6.516,2.786-6.719,6.345L10.148,482.89
		c-0.106,1.85,0.555,3.658,1.825,5.001c1.271,1.345,3.039,2.11,4.888,2.11h55.939c1.849,0,3.616-0.766,4.887-2.11
		c1.27-1.343,1.93-3.151,1.825-5.001L63.596,202.346C63.391,198.786,60.452,196.001,56.876,196.001z"/>
</g>
</svg>