<?xml version="1.0" encoding="iso-8859-1"?>
<!-- Uploaded to: SVG Repo, www.svgrepo.com, Generator: SVG Repo Mixer Tools -->
<svg fill="#000000" version="1.1" id="Layer_1" xmlns="http://www.w3.org/2000/svg" xmlns:xlink="http://www.w3.org/1999/xlink" 
	 viewBox="0 0 511.326 511.326" xml:space="preserve">
<g>
	<g>
		<g>
			<path d="M33.798,395.793v13.133v34.133c0,4.719,3.823,8.533,8.533,8.533c4.71,0,8.533-3.814,8.533-8.533v-25.6h59.733V308.753
				L53.834,355.26C41.281,364.851,33.798,379.998,33.798,395.793z"/>
			
				<rect x="160.762" y="339.623" transform="matrix(-0.7071 -0.7071 0.7071 -0.7071 43.8558 716.5526)" width="19.14" height="19.14"/>
			
				<rect x="331.429" y="339.623" transform="matrix(-0.7071 -0.7071 0.7071 -0.7071 335.2015 837.2327)" width="19.14" height="19.14"/>
			<path d="M340.998,170.436c0-13.781-5.376-26.726-15.147-36.454c-7.817-7.774-17.69-12.672-28.382-14.31
				c-2.415-32.845-9.438-67.302-20.779-101.316l-1.399-4.215C272.425,5.555,264.719,0,255.665,0
				c-9.054,0-16.759,5.555-19.627,14.148l-1.399,4.207c-11.349,34.039-18.372,68.514-20.787,101.282
				c-10.829,1.613-20.523,6.545-28.373,14.345c-9.771,9.728-15.147,22.673-15.147,36.454v89.378l-42.667,34.961v122.684h52.719
				l-51.388,80.751c-1.877,2.953-1.766,6.741,0.282,9.574c1.621,2.261,4.224,3.541,6.921,3.541c0.691,0,1.382-0.085,2.074-0.256
				l68.267-17.067c2.654-0.657,4.83-2.56,5.854-5.111l12.228-30.575c8.781,6.844,19.618,10.641,31.044,10.641
				c11.426,0,22.255-3.797,31.044-10.641l12.228,30.575c1.024,2.551,3.2,4.454,5.854,5.111l68.267,17.067
				c0.691,0.171,1.382,0.256,2.074,0.256c2.697,0,5.299-1.28,6.921-3.541c2.048-2.833,2.15-6.622,0.282-9.574l-51.388-80.751h52.719
				V294.767l-42.667-34.953V170.436z M201.965,355.226l-25.6,25.6c-1.664,1.664-3.849,2.5-6.033,2.5c-2.185,0-4.369-0.836-6.033-2.5
				l-25.6-25.6c-3.337-3.336-3.337-8.73,0-12.066l25.6-25.6c3.336-3.336,8.73-3.336,12.066,0l25.6,25.6
				C205.301,346.496,205.301,351.889,201.965,355.226z M281.265,152.926v287.121c-6.4,7.535-15.667,11.844-25.6,11.844
				c-9.933,0-19.209-4.309-25.6-11.844l-0.008-287.343c-0.102-4.139-0.068-8.354-0.009-12.57c0.077-3.644,0.213-7.492,0.427-11.657
				c1.715-33.673,8.576-69.393,20.361-104.738l1.399-4.198c0.717-2.15,2.458-2.475,3.43-2.475c0.973,0,2.714,0.324,3.43,2.466
				l1.399,4.215c12.032,36.07,18.927,72.542,20.463,106.948c0.145,3.277,0.256,6.4,0.316,9.361
				C281.342,144.376,281.376,148.685,281.265,152.926z M347.031,317.559l25.6,25.6c3.337,3.337,3.337,8.73,0,12.066l-25.6,25.6
				c-1.664,1.664-3.849,2.5-6.033,2.5c-2.185,0-4.369-0.836-6.033-2.5l-25.6-25.6c-3.337-3.336-3.337-8.73,0-12.066l25.6-25.6
				C338.302,314.223,343.695,314.223,347.031,317.559z"/>
			<path d="M457.722,355.435l-56.994-46.686v108.715h59.733v25.6c0,4.71,3.823,8.533,8.533,8.533c4.719,0,8.533-3.823,8.533-8.533
				V408.93v-13.141C477.528,380.002,470.045,364.855,457.722,355.435z"/>
		</g>
	</g>
</g>
</svg>