<?xml version="1.0" encoding="iso-8859-1"?>
<!-- Uploaded to: SVG Repo, www.svgrepo.com, Generator: SVG Repo Mixer Tools -->
<svg fill="#000000" height="800px" width="800px" version="1.1" id="Layer_1" xmlns="http://www.w3.org/2000/svg" xmlns:xlink="http://www.w3.org/1999/xlink" 
	 viewBox="0 0 512.853 512.853" xml:space="preserve">
<g transform="translate(1 1)">
	<g>
		<g>
			<path d="M491.373,260.547c11.947-0.853,20.48-10.24,20.48-21.333c0-12.8-10.24-22.187-22.187-22.187H280.6v-51.2h51.2
				c14.507,0,25.6-11.093,25.6-25.6s-11.093-25.6-25.6-25.6h-51.2V98.413c0-1.707-0.853-3.413-1.707-5.12
				c-5.12-7.68-14.507-12.8-23.893-12.8s-18.773,5.12-23.893,12.8c-0.853,1.707-1.707,3.413-1.707,5.12v16.213h-51.2
				c-14.507,0-25.6,11.093-25.6,25.6s11.093,25.6,25.6,25.6h51.2v51.2H21.187C8.387,217.027-1,227.267-1,239.213
				c0,11.093,8.533,20.48,20.48,21.333l22.187,1.865v6.902c-14.679,3.814-25.6,17.216-25.6,33.046
				c0,18.773,15.36,34.133,34.133,34.133s34.133-15.36,34.133-34.133c0-15.83-10.921-29.232-25.6-33.046v-5.468l59.733,5.022v17.512
				c-14.679,3.814-25.6,17.216-25.6,33.046c0,18.773,15.36,34.133,34.133,34.133c18.773,0,34.133-15.36,34.133-34.133
				c0-15.83-10.921-29.232-25.6-33.046v-16.078l63.894,5.372c-18.421,18.449-29.76,44.689-29.76,69.352
				c0,46.933,38.4,85.333,85.333,85.333s85.333-38.4,85.333-85.333c0-24.405-11.102-50.356-29.184-68.772l63.317-5.518v15.645
				c-14.679,3.814-25.6,17.216-25.6,33.046c0,18.773,15.36,34.133,34.133,34.133c18.773,0,34.133-15.36,34.133-34.133
				c0-15.83-10.921-29.232-25.6-33.046v-17.133l59.733-5.206v5.272c-14.679,3.814-25.6,17.216-25.6,33.046
				c0,18.773,15.36,34.133,34.133,34.133c18.773,0,34.133-15.36,34.133-34.133c0-15.83-10.921-29.232-25.6-33.046v-6.76
				L491.373,260.547z M67.267,302.36c0,9.387-7.68,17.067-17.067,17.067s-17.067-7.68-17.067-17.067
				c0-9.387,7.68-17.067,17.067-17.067S67.267,292.973,67.267,302.36z M144.067,319.427c0,9.387-7.68,17.067-17.067,17.067
				s-17.067-7.68-17.067-17.067s7.68-17.067,17.067-17.067S144.067,310.04,144.067,319.427z M400.067,319.427
				c0,9.387-7.68,17.067-17.067,17.067s-17.067-7.68-17.067-17.067s7.68-17.067,17.067-17.067S400.067,310.04,400.067,319.427z
				 M476.867,302.36c0,9.387-7.68,17.067-17.067,17.067s-17.067-7.68-17.067-17.067c0-9.387,7.68-17.067,17.067-17.067
				S476.867,292.973,476.867,302.36z M331.8,131.693c5.12,0,8.533,3.413,8.533,8.533s-3.413,8.533-8.533,8.533h-51.2v-17.067H331.8z
				 M178.2,148.76c-5.12,0-8.533-3.413-8.533-8.533s3.413-8.533,8.533-8.533h51.2v17.067H178.2z M246.467,157.293V123.16v-21.333
				c4.267-5.12,12.8-5.973,17.067,0v21.333v34.133v59.733h-17.067V157.293z M16.067,239.213c0-2.56,2.56-5.12,5.12-5.12h216.747
				h34.133h216.747c3.413,0,5.12,1.707,5.12,4.267s-1.707,5.12-4.267,5.12l-29.442,2.578c-0.142-0.005-0.28-0.018-0.424-0.018
				c-0.801,0-1.555,0.093-2.266,0.253l-153.041,13.4h-15.36c-0.611-0.305-1.224-0.599-1.837-0.888
				c-9.872-4.85-20.746-7.645-32.296-7.645c-11.551,0-22.426,2.795-32.298,7.646c-0.613,0.288-1.225,0.582-1.836,0.887h-7.68
				l-192.853-15.36C17.773,243.48,16.067,241.773,16.067,239.213z M255,413.293c-37.547,0-68.267-30.72-68.267-68.267
				c0-25.94,15.201-54.557,38.479-68.39c0.613-0.111,1.218-0.321,1.627-0.73c5.413-3.093,10.981-5.245,16.611-6.469
				c3.664-0.772,7.446-1.192,11.331-1.207c9.317,0.038,18.631,2.594,27.525,7.676c1.065,0.533,1.798,0.733,2.614,0.808
				c23.204,13.863,38.346,42.422,38.346,68.312C323.267,382.573,292.547,413.293,255,413.293z"/>
			<path d="M272.067,302.36h-34.133c-11.947,0-27.307,7.68-33.28,22.187c-2.56,4.267,0,9.387,4.267,11.093
				c4.267,2.56,9.387,0,11.093-4.267c3.413-8.533,12.8-11.947,17.92-11.947h34.133c5.12,0,14.507,3.413,17.92,11.947
				c0.853,3.413,4.267,5.12,7.68,5.12c0.853,0,2.56,0,3.413-0.853c4.267-1.707,5.973-6.827,4.267-11.093
				C299.373,309.187,284.013,302.36,272.067,302.36z"/>
		</g>
	</g>
</g>
</svg>