<?xml version="1.0" encoding="iso-8859-1"?>
<!-- Uploaded to: SVG Repo, www.svgrepo.com, Generator: SVG Repo Mixer Tools -->
<svg height="800px" width="800px" version="1.1" id="Layer_1" xmlns="http://www.w3.org/2000/svg" xmlns:xlink="http://www.w3.org/1999/xlink" 
	 viewBox="0 0 512 512" xml:space="preserve">
<g>
	<path style="fill:#D8D8D8;" d="M44.134,286.898c-4.882,0-8.828-3.946-8.828-8.828v-22.872c0-4.882,3.946-8.828,8.828-8.828
		s8.828,3.946,8.828,8.828v22.872C52.962,282.952,49.016,286.898,44.134,286.898"/>
	<path style="fill:#ACB3B7;" d="M70.617,304.553c0-14.627-11.855-26.483-26.483-26.483s-26.483,11.855-26.483,26.483
		s11.855,26.483,26.483,26.483S70.617,319.18,70.617,304.553"/>
	<g>
		<path style="fill:#D8D8D8;" d="M123.583,304.553c-4.882,0-8.828-3.946-8.828-8.828v-33.88c0-4.882,3.946-8.828,8.828-8.828
			c4.882,0,8.828,3.946,8.828,8.828v33.88C132.41,300.607,128.464,304.553,123.583,304.553"/>
		<path style="fill:#D8D8D8;" d="M388.41,304.553c-4.882,0-8.828-3.946-8.828-8.828v-33.536c0-4.882,3.946-8.828,8.828-8.828
			c4.882,0,8.828,3.946,8.828,8.828v33.536C397.238,300.607,393.292,304.553,388.41,304.553"/>
		<path style="fill:#D8D8D8;" d="M467.859,286.898c-4.882,0-8.828-3.946-8.828-8.828v-22.775c0-4.882,3.946-8.828,8.828-8.828
			c4.882,0,8.828,3.946,8.828,8.828v22.775C476.686,282.952,472.74,286.898,467.859,286.898"/>
		<path style="fill:#D8D8D8;" d="M238.341,225.105V93.309l0,0c8.395-12.597,26.915-12.597,35.31,0l0,0v131.796H238.341z"/>
		<path style="fill:#D8D8D8;" d="M335.445,348.691c0-43.882-35.566-88.276-79.448-88.276s-79.448,44.394-79.448,88.276
			s35.566,79.448,79.448,79.448S335.445,392.573,335.445,348.691"/>
	</g>
	<g>
		<path style="fill:#ACB3B7;" d="M150.065,322.208c0-14.627-11.855-26.483-26.483-26.483S97.1,307.581,97.1,322.208
			s11.855,26.483,26.483,26.483S150.065,336.835,150.065,322.208"/>
		<path style="fill:#ACB3B7;" d="M414.893,322.208c0-14.627-11.855-26.483-26.483-26.483c-14.627,0-26.483,11.855-26.483,26.483
			s11.855,26.483,26.483,26.483C403.038,348.691,414.893,336.835,414.893,322.208"/>
		<path style="fill:#ACB3B7;" d="M494.341,304.553c0-14.627-11.855-26.483-26.483-26.483c-14.627,0-26.483,11.855-26.483,26.483
			s11.855,26.483,26.483,26.483C482.486,331.036,494.341,319.18,494.341,304.553"/>
		<path style="fill:#ACB3B7;" d="M498.247,225.105H13.745C6.153,225.105,0,231.257,0,238.858c0,7.186,5.526,13.153,12.694,13.709
			l199.168,16.675h11.123c10.063-5.544,21.222-8.828,33.015-8.828c11.785,0,22.943,3.284,33.006,8.828h18.255l192.035-16.675
			c7.168-0.556,12.703-6.524,12.703-13.709C512,231.257,505.838,225.105,498.247,225.105"/>
		<path style="fill:#ACB3B7;" d="M238.341,119.174h-61.793c-9.754,0-17.655,7.901-17.655,17.655c0,9.746,7.901,17.655,17.655,17.655
			h61.793V119.174z"/>
		<path style="fill:#ACB3B7;" d="M335.445,119.174h-61.793v35.31h61.793c9.754,0,17.655-7.91,17.655-17.655
			C353.1,127.074,345.199,119.174,335.445,119.174"/>
		<path style="fill:#ACB3B7;" d="M300.134,339.863c-3.478,0-6.78-2.066-8.174-5.482c-3.646-8.934-12.95-12.173-18.308-12.173h-35.31
			c-5.535,0-14.883,3.778-18.308,12.173c-1.845,4.511-7.036,6.674-11.52,4.829c-4.511-1.845-6.674-7-4.829-11.52
			c6.215-15.192,22.14-23.137,34.657-23.137h35.31c12.129,0,28.142,7.239,34.657,23.137c1.845,4.52-0.318,9.675-4.829,11.52
			C302.385,339.66,301.247,339.863,300.134,339.863"/>
	</g>
</g>
</svg>