<?xml version="1.0" encoding="iso-8859-1"?>
<!-- Uploaded to: SVG Repo, www.svgrepo.com, Generator: SVG Repo Mixer Tools -->
<svg fill="#000000" height="800px" width="800px" version="1.1" id="Layer_1" xmlns="http://www.w3.org/2000/svg" xmlns:xlink="http://www.w3.org/1999/xlink" 
	 viewBox="0 0 512 512" xml:space="preserve">
<g transform="translate(0 -1)">
	<g>
		<path d="M503.467,303.786L320,161.09v-2.37c2.133-42.667-8.533-87.467-27.733-132.267l-2.133-4.267
			c-12.8-27.733-55.467-27.733-68.267,0l-2.133,4.267c-19.2,42.667-29.867,89.6-27.733,132.267v2.37L8.533,303.786
			C2.133,308.053,0,314.453,0,320.853v42.667c0,14.933,14.933,25.6,27.733,19.2L192,327.964v48.356l-53.333,32
			c-6.4,4.267-10.667,10.667-10.667,19.2v64c0,14.933,17.067,25.6,29.867,19.2L256,463.786l98.133,46.933
			c14.933,6.4,29.867-4.267,29.867-19.2v-64c0-8.533-4.267-14.933-10.667-19.2l-53.333-32v-48.356l164.267,54.756
			c12.8,4.267,27.733-6.4,27.733-19.2v-42.667C512,314.453,509.867,308.053,503.467,303.786z M262.4,37.119
			c-0.432,1.295-0.954,2.314-1.542,3.085L262.4,37.119z M34.133,337.919L192,214.186v70.4L34.133,337.919z M341.333,457.386
			l-76.8-36.267c-6.4-2.133-12.8-2.133-19.2,0l-74.667,36.267v-17.067l85.333-51.2l85.333,51.2V457.386z M266.667,344.319
			c-6.4-4.267-14.933-4.267-21.333,0l-10.667,6.4v-51.2v-128v-12.8c0-33.688,6.25-71.529,20.77-107.376
			c0.174,0.25,0.351,0.497,0.564,0.709c14.933,36.267,21.333,72.533,21.333,106.667v12.8v128v51.2L266.667,344.319z M320,284.586
			v-70.4l157.867,123.733L320,284.586z"/>
	</g>
</g>
</svg>