<?xml version="1.0" encoding="iso-8859-1"?>
<!-- Uploaded to: SVG Repo, www.svgrepo.com, Generator: SVG Repo Mixer Tools -->
<svg height="800px" width="800px" version="1.1" id="Layer_1" xmlns="http://www.w3.org/2000/svg" xmlns:xlink="http://www.w3.org/1999/xlink" 
	 viewBox="0 0 511.305 511.305" xml:space="preserve">
<g>
	<path style="fill:#ACB3B7;" d="M290.963,449.512l-1.289,1.607c-17.443,21.804-50.6,21.804-68.043,0l-1.289-1.607V149.374
		c-1.209-45.877,7.424-92.893,21.937-136.43l1.448-4.343c3.822-11.467,20.03-11.467,23.852,0l1.448,4.343
		c14.513,43.538,23.146,90.553,21.937,136.43V449.512z"/>
	<g>
		<path style="fill:#D8D8D8;" d="M299.79,493.65l79.448,17.655l-52.966-88.276l132.414-26.483v-35.31L326.273,184.684v-79.448
			l-35.769,17.885c0.459,8.766,0.689,17.532,0.459,26.253v300.138L299.79,493.65z"/>
		<path style="fill:#D8D8D8;" d="M220.342,449.512V149.374c-0.23-8.722,0-17.487,0.459-26.253l-35.769-17.885v79.448L52.618,361.236
			v35.31l132.414,26.483l-52.966,88.276l79.448-17.655L220.342,449.512z"/>
	</g>
	<g>
		<path style="fill:#ACB3B7;" d="M114.411,278.845l-61.793,82.388v35.31l61.793,12.359V278.845z"/>
		<path style="fill:#ACB3B7;" d="M396.894,408.905l61.793-12.359v-35.31l-61.793-82.388V408.905z"/>
	</g>
	<g>
		<path style="fill:#CA3E49;" d="M167.377,299.443l26.483,26.483l-26.483,26.483l-26.483-26.483L167.377,299.443z"/>
		<path style="fill:#CA3E49;" d="M343.928,299.443l26.483,26.483l-26.483,26.483l-26.483-26.483L343.928,299.443z"/>
	</g>
</g>
</svg>