<?xml version="1.0" encoding="iso-8859-1"?>
<!-- Uploaded to: SVG Repo, www.svgrepo.com, Generator: SVG Repo Mixer Tools -->
<svg fill="#000000" version="1.1" id="Layer_1" xmlns="http://www.w3.org/2000/svg" xmlns:xlink="http://www.w3.org/1999/xlink" 
	 viewBox="0 0 512.067 512.067" xml:space="preserve">
<g>
	<g>
		<g>
			
				<rect x="134.282" y="326.248" transform="matrix(-0.7071 -0.7071 0.7071 -0.7071 13.6252 688.3105)" width="30.17" height="30.17"/>
			
				<rect x="347.615" y="326.248" transform="matrix(-0.7071 -0.7071 0.7071 -0.7071 377.8078 839.1602)" width="30.17" height="30.17"/>
			<path d="M512.031,405.293c0-0.014,0.002-0.027,0.002-0.041l-0.085-22.613c0-19.145-8.954-37.273-24.24-48.941l-103.675-87.602
				v-75.43c0-34.398-29.714-64.162-64.101-64l-3.435,0c-4.399-27.133-12.812-54.812-24.813-82.111l-1.758-3.988
				c-12.089-27.424-55.688-27.424-67.777,0.001l-1.749,3.967c-11.988,27.27-20.397,54.895-24.801,82.131h-3.566
				c-34.286-0.162-64,29.602-64,64v75.428L23.537,334.358C9.073,345.366,0.119,363.495,0.119,382.72l-0.085,22.533
				c0,0.014,0.002,0.027,0.002,0.041c0,0.013-0.002,0.026-0.002,0.04V448c0,11.782,9.551,21.333,21.333,21.333
				c11.782,0,21.333-9.551,21.333-21.333v-21.333h72.149l-27.23,54.459c-8.773,17.545,8.791,36.633,27.004,29.348l106.667-42.667
				c2.087-0.835,3.984-1.979,5.657-3.362c18.528,6.486,39.686,6.487,58.186,0.012c1.67,1.377,3.563,2.518,5.644,3.35l106.667,42.667
				c18.213,7.285,35.777-11.803,27.004-29.348l-27.23-54.459h72.149V448c0,11.782,9.551,21.333,21.333,21.333
				s21.333-9.551,21.333-21.333v-42.667C512.033,405.32,512.031,405.307,512.031,405.293z M150.875,450.02l17.573-35.146
				C175.54,400.689,165.225,384,149.367,384H42.781l0.005-1.199c0-6.013,2.758-11.596,7.462-15.187l112.886-95.316
				c4.799-4.053,7.567-10.016,7.567-16.298v-85.333c0-10.816,10.55-21.384,21.232-21.334l0.101,284.224L150.875,450.02z
				 M277.245,156.926l-0.012,264.458c-12.03,7.044-30.366,7.047-42.39,0.017V157.664c-1.209-34.742,6.242-71.37,21.195-107.899
				C270.973,86.251,278.426,122.848,277.245,156.926z M362.7,384c-15.859,0-26.173,16.689-19.081,30.874l17.573,35.146
				l-41.159-16.464v-282.85c0.003-0.458,0.008-0.915,0.008-1.373c10.78-0.045,21.325,10.52,21.325,21.333V256
				c0,6.282,2.768,12.244,7.567,16.298l112.064,94.656c5.525,4.25,8.283,9.834,8.283,15.766l0.005,1.28H362.7z"/>
		</g>
	</g>
</g>
</svg>