<?xml version="1.0" encoding="iso-8859-1"?>
<!-- Uploaded to: SVG Repo, www.svgrepo.com, Generator: SVG Repo Mixer Tools -->
<svg fill="#000000" version="1.1" id="Layer_1" xmlns="http://www.w3.org/2000/svg" xmlns:xlink="http://www.w3.org/1999/xlink" 
	 viewBox="0 0 512 512" xml:space="preserve">
<g>
	<g>
		<g>
			<path d="M466.523,330.749L448,298.335v-85.001c0-11.782-9.551-21.333-21.333-21.333c-11.782,0-21.333,9.551-21.333,21.333v10.335
				L384,186.335v-79.668c0-14.561-14.266-24.843-28.08-20.239l-40.617,13.539c-4.641-24.979-12.638-50.356-23.653-75.411
				l-1.758-3.988c-12.089-27.424-55.688-27.424-67.777,0.001l-1.749,3.967c-11.008,25.039-19.001,50.378-23.645,75.44L156.08,86.428
				C142.266,81.824,128,92.106,128,106.667v79.668l-21.333,37.333v-10.335c0-11.782-9.551-21.333-21.333-21.333
				C73.551,192,64,201.551,64,213.333v85.001l-18.523,32.414c-1.842,3.223-2.811,6.872-2.811,10.584V384
				c0,9.789,6.662,18.322,16.159,20.696l59.533,14.883l-30.773,61.547C80.493,495.311,90.808,512,106.667,512h106.667
				c11.792,0,21.348-9.567,21.333-21.359c-0.006-4.732-0.006-4.928-0.027-23.903c13.911,3.424,28.823,3.428,42.721,0.013
				c-0.021,18.962-0.021,19.16-0.027,23.89C277.319,502.433,286.875,512,298.667,512h106.667c15.859,0,26.173-16.689,19.081-30.874
				l-30.773-61.547l59.533-14.883c9.497-2.374,16.159-10.907,16.159-20.696v-42.667
				C469.333,337.621,468.365,333.973,466.523,330.749z M141.185,469.333l27.23-54.459c6.104-12.207-0.667-26.927-13.907-30.237
				l-69.174-17.294v-20.345l82.523-144.414c1.842-3.223,2.811-6.872,2.811-10.584v-55.735l21.223,7.074
				c-0.092,26.178-0.1,82.666-0.051,165.937c0.016,28.287,0.039,58.31,0.067,89.172c0.021,23.117,0.043,45.366,0.065,65.936
				c0.002,1.795,0.004,3.44,0.005,4.949H141.185z M277.212,156.926l-0.012,264.458c-12.03,7.044-30.366,7.047-42.39,0.017V157.664
				c-1.209-34.742,6.242-71.37,21.195-107.899C270.94,86.251,278.392,122.848,277.212,156.926z M426.667,367.344l-69.174,17.294
				c-13.24,3.31-20.011,18.03-13.907,30.237l27.23,54.459h-50.791c0.002-1.509,0.004-3.154,0.005-4.949
				c0.022-20.57,0.044-42.819,0.065-65.936c0.028-30.862,0.051-60.885,0.067-89.172c0.048-83.271,0.041-139.759-0.051-165.937
				l21.223-7.074V192c0,3.713,0.969,7.361,2.811,10.584l82.523,144.414V367.344z"/>
			
				<rect x="347.582" y="326.249" transform="matrix(-0.7071 0.7071 -0.7071 -0.7071 860.47 326.2478)" width="30.17" height="30.17"/>
			
				<rect x="134.248" y="326.248" transform="matrix(-0.7071 -0.7071 0.7071 -0.7071 13.5684 688.287)" width="30.17" height="30.17"/>
		</g>
	</g>
</g>
</svg>