<?xml version="1.0" encoding="iso-8859-1"?>
<!-- Uploaded to: SVG Repo, www.svgrepo.com, Generator: SVG Repo Mixer Tools -->
<svg height="800px" width="800px" version="1.1" id="Layer_1" xmlns="http://www.w3.org/2000/svg" xmlns:xlink="http://www.w3.org/1999/xlink" 
	 viewBox="0 0 511.305 511.305" xml:space="preserve">
<g>
	<path style="fill:#ACB3B7;" d="M290.963,449.512l-1.289,1.607c-17.443,21.804-50.6,21.804-68.043,0l-1.289-1.607V149.374
		c-1.209-45.877,7.424-92.893,21.937-136.43l1.448-4.343c3.822-11.467,20.03-11.467,23.852,0l1.448,4.343
		c14.513,43.538,23.146,90.553,21.937,136.43V449.512z"/>
	<g>
		<path style="fill:#D8D8D8;" d="M308.618,493.65l70.621,17.655l-61.793-97.103h158.897v-13.586
			c0-13.692-6.382-26.606-17.258-34.922L335.101,264.132v-96.644c0-24.594-20.003-44.491-44.597-44.367
			c0.459,8.766,0.689,17.532,0.459,26.253v300.138L308.618,493.65z"/>
		<path style="fill:#D8D8D8;" d="M220.342,449.512V149.374c-0.23-8.722,0-17.487,0.459-26.253
			c-24.594-0.124-44.597,19.774-44.597,44.367v96.644L52.221,365.694c-10.876,8.316-17.258,21.23-17.258,34.922v13.586h158.897
			l-61.793,97.103l70.621-17.655L220.342,449.512z"/>
	</g>
	<g>
		<path style="fill:#ACB3B7;" d="M43.79,458.339c-4.873,0-8.828-3.946-8.828-8.828v-35.31c0-4.882,3.955-8.828,8.828-8.828
			s8.828,3.946,8.828,8.828v35.31C52.618,454.393,48.663,458.339,43.79,458.339"/>
		<path style="fill:#ACB3B7;" d="M467.514,458.339c-4.873,0-8.828-3.946-8.828-8.828v-35.31c0-4.882,3.955-8.828,8.828-8.828
			c4.873,0,8.828,3.946,8.828,8.828v35.31C476.342,454.393,472.387,458.339,467.514,458.339"/>
		<path style="fill:#ACB3B7;" d="M114.411,318.137l-62.19,47.554c-10.876,8.324-17.258,21.23-17.258,34.922v13.586h79.448V318.137z"
			/>
		<path style="fill:#ACB3B7;" d="M396.894,318.137v96.062h79.448v-13.586c0-13.692-6.382-26.598-17.258-34.922L396.894,318.137z"/>
	</g>
	<g>
		<path style="fill:#CA3E49;" d="M167.377,325.926l26.483,26.483l-26.483,26.483l-26.483-26.483L167.377,325.926z"/>
		<path style="fill:#CA3E49;" d="M343.928,325.926l26.483,26.483l-26.483,26.483l-26.483-26.483L343.928,325.926z"/>
	</g>
</g>
</svg>