<?xml version="1.0" encoding="iso-8859-1"?>
<!-- Uploaded to: SVG Repo, www.svgrepo.com, Generator: SVG Repo Mixer Tools -->
<svg height="800px" width="800px" version="1.1" id="Layer_1" xmlns="http://www.w3.org/2000/svg" xmlns:xlink="http://www.w3.org/1999/xlink" 
	 viewBox="0 0 511.997 511.997" xml:space="preserve">
<g transform="translate(-1)">
	<g>
		<path style="fill:#D8D8D8;" d="M256.988,511.997c-4.799,0-8.678-3.879-8.678-8.678v-25.826c0-4.79,3.879-8.678,8.678-8.678
			c4.799,0,8.678,3.888,8.678,8.678v25.826C265.666,508.117,261.787,511.997,256.988,511.997"/>
		<path style="fill:#D8D8D8;" d="M508.06,109.49c-2.82-13.269-14.674-22.71-28.247-22.71H291.7V73.416
			c0-7.637,1.198-15.386,4.738-22.155c7.515-14.405,3.471-32.091-9.485-41.802C278.77,3.315,268.808,0,258.577,0h-2.985
			c-10.518,0-20.732,3.515-29.019,9.988l-0.069,0.052c-12.505,9.771-15.95,26.867-9.008,41.142
			c2.89,5.944,4.443,12.453,4.539,19.065l0.243,16.532H31.361c-13.833,0-23.969,11.29-25.886,24.984l-0.148,1.05
			c-3.063,21.86,8.834,43.086,29.08,51.886l166.105,78.284c13.182,5.484,21.764,18.371,21.764,32.647v145.208
			c11.09-2.282,22.328-3.549,33.592-3.619l1.119-0.469l1.128,0.469c11.264,0.069,22.502,1.336,33.584,3.619V275.647
			c0-14.293,8.591-27.171,21.782-32.664l166.287-78.241C500.987,155.422,512.945,132.46,508.06,109.49"/>
	</g>
	<path style="fill:#ACB3B7;" d="M310.884,425.818c-35.007-11.524-72.782-11.524-107.789,0l-55.513,18.284
		c-12.436,3.107-16.245,18.901-6.604,27.336l26.728,23.387c11.793,10.318,28.95,11.698,42.236,3.393l21.244-13.277
		c15.785-9.867,35.823-9.867,51.608,0l21.244,13.277c13.286,8.305,30.442,6.925,42.236-3.393l26.728-23.387
		c9.641-8.435,5.823-24.229-6.604-27.336L310.884,425.818z"/>
	<g>
		<path style="fill:#CA3E49;" d="M152.852,121.488l26.034,26.034l-26.034,26.034l-26.034-26.034L152.852,121.488z"/>
		<path style="fill:#CA3E49;" d="M361.123,121.488l26.034,26.034l-26.034,26.034l-26.034-26.034L361.123,121.488z"/>
	</g>
	<g>
		<path style="fill:#ACB3B7;" d="M152.852,86.776V72.397c0-11.229-9.103-20.332-20.332-20.332h-2.725
			c-11.229,0-20.332,9.103-20.332,20.332v14.379H152.852z"/>
		<path style="fill:#ACB3B7;" d="M404.513,86.776V72.397c0-11.229-9.103-20.332-20.332-20.332h-2.725
			c-11.229,0-20.332,9.103-20.332,20.332v14.379H404.513z"/>
		<path style="fill:#ACB3B7;" d="M109.462,200.071v32.968c0,5.493,4.452,9.945,9.936,9.945h23.517c5.484,0,9.936-4.452,9.936-9.945
			v-12.522L109.462,200.071z"/>
		<path style="fill:#ACB3B7;" d="M361.123,220.573v12.47c0,5.484,4.452,9.936,9.936,9.936h23.517c5.484,0,9.936-4.452,9.936-9.936
			v-32.889L361.123,220.573z"/>
	</g>
</g>
</svg>