<?xml version="1.0" encoding="iso-8859-1"?>
<!-- Uploaded to: SVG Repo, www.svgrepo.com, Generator: SVG Repo Mixer Tools -->
<svg fill="#000000" version="1.1" id="Layer_1" xmlns="http://www.w3.org/2000/svg" xmlns:xlink="http://www.w3.org/1999/xlink" 
	 viewBox="0 0 511.326 511.326" xml:space="preserve">
<g>
	<g>
		<g>
			
				<rect x="160.76" y="331.089" transform="matrix(-0.7071 -0.7071 0.7071 -0.7071 49.8868 701.9823)" width="19.14" height="19.14"/>
			<path d="M457.749,342.955l-39.953-37.291v-58.871c0-14.114-11.486-25.6-25.6-25.6s-25.6,11.486-25.6,25.6v11.085l-34.133-31.863
				v-64.555c0-2.295-0.922-4.48-2.56-6.093l-32.188-31.582c-2.116-34.074-9.207-69.982-21.026-105.429l-1.399-4.215
				C272.422,5.547,264.717,0,255.663,0c-9.054,0-16.759,5.547-19.627,14.148l-1.399,4.198
				c-11.827,35.49-18.927,71.441-21.026,105.446l-32.188,31.573c-1.638,1.613-2.56,3.797-2.56,6.093v64.555l-34.133,31.863v-11.085
				c0-14.114-11.486-25.6-25.6-25.6s-25.6,11.486-25.6,25.6v58.871l-39.953,37.291c-1.732,1.613-2.714,3.874-2.714,6.238v34.133
				c0,3.866,2.603,7.253,6.332,8.243l53.402,14.242v-92.732l17.067-15.932v113.212l46.583,12.424l-45.363,75.614
				c-1.758,2.927-1.604,6.622,0.393,9.387c1.621,2.253,4.215,3.541,6.921,3.541c0.614,0,1.237-0.068,1.852-0.196l76.8-17.067
				c3.294-0.734,5.854-3.354,6.511-6.664l5.504-27.494c8.363,5.811,18.321,9.054,28.8,9.054c10.479,0,20.437-3.243,28.8-9.054
				l5.495,27.494c0.666,3.311,3.217,5.931,6.519,6.664l76.8,17.067c0.614,0.128,1.237,0.196,1.852,0.196
				c2.705,0,5.299-1.289,6.921-3.541c1.997-2.765,2.15-6.46,0.393-9.387l-45.372-75.614l46.592-12.424V297.148l17.067,15.932v92.732
				l53.402-14.242c3.729-0.99,6.332-4.378,6.332-8.243v-34.133C460.463,346.829,459.482,344.567,457.749,342.955z M201.963,346.692
				l-25.6,25.6c-1.664,1.664-3.849,2.5-6.033,2.5c-2.185,0-4.369-0.836-6.033-2.5l-25.6-25.6c-3.337-3.336-3.337-8.73,0-12.066
				l25.6-25.6c3.336-3.337,8.73-3.337,12.066,0l25.6,25.6C205.299,337.963,205.299,343.356,201.963,346.692z M281.263,152.926
				v287.113c-6.4,7.544-15.667,11.853-25.6,11.853c-9.933,0-19.209-4.309-25.6-11.853l-0.008-287.334
				c-0.102-4.147-0.068-8.354-0.009-12.578c0.077-3.635,0.213-7.484,0.427-11.648c1.715-33.673,8.576-69.393,20.361-104.738
				l1.399-4.198c0.717-2.15,2.458-2.475,3.43-2.475c0.973,0,2.714,0.324,3.43,2.466l1.399,4.215
				c12.032,36.07,18.927,72.542,20.463,106.948c0.145,3.277,0.256,6.4,0.316,9.361C281.34,144.376,281.374,148.685,281.263,152.926z
				 M372.629,346.692l-25.6,25.6c-1.664,1.664-3.849,2.5-6.033,2.5c-2.185,0-4.369-0.836-6.033-2.5l-25.6-25.6
				c-3.337-3.336-3.337-8.73,0-12.066l25.6-25.6c3.337-3.337,8.73-3.337,12.066,0l25.6,25.6
				C375.966,337.963,375.966,343.356,372.629,346.692z"/>
			
				<rect x="331.426" y="331.089" transform="matrix(-0.7071 -0.7071 0.7071 -0.7071 341.2335 822.6624)" width="19.14" height="19.14"/>
		</g>
	</g>
</g>
</svg>