<?xml version="1.0" encoding="iso-8859-1"?>
<!-- Uploaded to: SVG Repo, www.svgrepo.com, Generator: SVG Repo Mixer Tools -->
<svg fill="#000000" version="1.1" id="Layer_1" xmlns="http://www.w3.org/2000/svg" xmlns:xlink="http://www.w3.org/1999/xlink" 
	 viewBox="0 0 512.046 512.046" xml:space="preserve">
<g>
	<g>
		<g>
			
				<rect x="134.271" y="326.248" transform="matrix(-0.7071 -0.7071 0.7071 -0.7071 13.6075 688.3032)" width="30.17" height="30.17"/>
			
				<rect x="347.605" y="326.249" transform="matrix(-0.7071 0.7071 -0.7071 -0.7071 860.5091 326.2316)" width="30.17" height="30.17"/>
			<path d="M483.778,325.613l-35.755-32.8v-58.146c0-11.782-9.551-21.333-21.333-21.333c-11.782,0-21.333,9.551-21.333,21.333
				v19.006l-22.507-20.647c-10.915-10.204-17.195-24.643-17.195-39.746c0-26.105-10.498-51.113-29.136-69.395l-9.198-10.208
				c-2.885-3.184-6.635-5.386-10.734-6.39c-4.371-27.331-12.821-55.224-24.913-82.731l-1.758-3.988
				c-12.089-27.424-55.688-27.424-67.777,0.001l-1.749,3.967c-12.078,27.475-20.524,55.309-24.9,82.744
				c-4.111,1.001-7.873,3.206-10.765,6.398l-10.069,11.115c-17.766,17.376-28.265,42.383-28.265,68.489
				c0,15.103-6.28,29.542-17.341,39.882l-22.36,20.512v-19.007c0-11.782-9.551-21.333-21.333-21.333
				c-11.782,0-21.333,9.551-21.333,21.333v58.147l-35.755,32.799c-4.405,4.041-6.912,9.744-6.912,15.721V384
				c0,10.323,7.392,19.165,17.552,20.995l83.733,15.083c4.416,1.253,7.267,8.289,4.006,13.725l-27.54,45.885
				c-9.96,16.594,5.547,36.81,24.156,31.49l74.624-21.333c3.485-0.996,6.658-2.864,9.221-5.427l19.936-19.936
				c18.466,6.436,39.531,6.437,57.97,0.012l19.924,19.924c2.563,2.563,5.736,4.43,9.221,5.427l74.624,21.333
				c18.608,5.32,34.115-14.896,24.156-31.49L385.397,433.8c-3.26-5.433-0.409-12.47,5.722-14.105l82.018-14.7
				c10.16-1.83,17.552-10.672,17.552-20.995v-42.667C490.69,335.356,488.182,329.653,483.778,325.613z M192.023,439.164
				l-11.177,11.177l-17.341,4.958c17.429-29.706,1.789-67.929-31.585-76.829l-67.897-12.289v-15.468l94.016-86.246
				c19.832-18.536,31.019-44.258,31.019-71.187c0-6.096,1.02-12.086,2.965-17.74V439.164z M277.235,156.926l-0.012,264.458
				c-12.03,7.044-30.366,7.047-42.39,0.017V157.664c-1.209-34.742,6.242-71.37,21.195-107.899
				C270.963,86.251,278.415,122.848,277.235,156.926z M448.023,366.166l-66.182,11.921c-35.081,9.28-50.729,47.507-33.299,77.211
				l-17.341-4.958l-11.177-11.177V175.654c1.966,5.666,2.965,11.594,2.965,17.626c0,26.929,11.187,52.651,30.872,71.052
				l94.162,86.381V366.166z"/>
		</g>
	</g>
</g>
</svg>