<?xml version="1.0" encoding="iso-8859-1"?>
<!-- Uploaded to: SVG Repo, www.svgrepo.com, Generator: SVG Repo Mixer Tools -->
<svg fill="#000000" height="800px" width="800px" version="1.1" id="Layer_1" xmlns="http://www.w3.org/2000/svg" xmlns:xlink="http://www.w3.org/1999/xlink" 
	 viewBox="0 0 512 512" xml:space="preserve">
<g transform="translate(1 1)">
	<g>
		<g>
			<path d="M458.52,353.133L332.227,185.027v-74.24c0-3.413-1.707-5.973-4.267-7.68c-2.56-0.853-5.973-1.707-8.533,0l-23.078,11.258
				c-2.574-31.393-9.575-63.989-20.442-96.591l-1.707-4.267C271.64,4.973,263.96-1,254.573-1s-17.067,5.973-19.627,14.507
				l-1.707,4.267c-10.705,32.114-17.253,64.637-19.957,95.558l-22.71-11.078c-2.56-1.707-5.973-1.707-8.533,0
				s-4.267,5.12-4.267,7.68v74.24L51.48,352.28c-0.853,1.707-1.707,3.413-1.707,5.12v34.133c0,4.267,2.56,7.68,6.827,8.533
				l59.733,11.947c0.447,0,0.661,0,0.885,0l56.288,11.093L128.28,498.2c-2.56,2.56-1.707,6.827,0,9.387
				c1.707,1.707,4.267,3.413,6.827,3.413c0.853,0,0.853,0,1.707,0l76.8-17.067c3.413-0.853,5.973-3.413,6.827-6.827l5.367-26.835
				c8.307,5.76,18.337,8.915,28.766,8.915c10.315,0,20.239-3.093,28.751-8.992l5.382,26.912c0.853,3.413,3.413,5.973,6.827,6.827
				l76.8,17.067c0.853,0,0.853,0,1.707,0c2.56,0,5.12-0.853,8.533-2.56c1.707-2.56,1.707-6.827,0-9.387l-45.227-75.093L453.4,400.92
				c4.267-0.853,6.827-4.267,6.827-8.533v-34.133C460.227,356.547,459.373,354.84,458.52,353.133z M442.307,384.707l-42.667,8.533
				v-89.508l42.667,57.081V384.707z M66.84,384.707v-23.893l42.667-57.081v89.388L66.84,384.707z M152.173,489.667l40.96-68.267
				c1.707-2.56,1.707-5.12,0.853-7.68s-3.413-4.267-5.973-5.12l-61.44-12.115V280.9l66.56-89.047
				c0.853-1.707,1.707-3.413,1.707-5.12v-63.147l17.067,8.533c0,2.625,0,5.142,0,7.568c-0.073,4.349-0.087,8.663,0,12.912v288.427
				l-7.68,36.693L152.173,489.667z M254.573,452.12c-10.24,0-18.773-4.267-25.6-11.947V152.6c0-7.68,0-15.36,1.707-25.6
				c0-1.485-0.343-2.798-0.989-3.96c2.145-32.083,8.724-66.179,19.762-99.294l1.707-4.267c0.853-2.56,2.56-2.56,3.413-2.56
				s2.56,0,3.413,2.56l1.707,4.267c11.352,34.056,17.979,68.627,19.925,101.684c-0.197,0.784-0.298,1.603-0.298,2.423
				c0.853,9.387,0.853,17.067,0.853,24.747v287.573C274.2,447.853,264.813,452.12,254.573,452.12z M316.013,422.253l40.96,68.267
				l-52.053-11.947l-7.68-36.693V152.6c0.27-6.757,0.279-13.608,0.085-20.522l16.982-8.491v63.147c0,2.56,0.853,4.267,1.707,5.12
				l66.56,89.047v116.006l-61.44,12.548c-2.56,0.853-5.12,2.56-5.973,5.12S314.307,419.693,316.013,422.253z"/>
			<path d="M175.213,291.693c-3.413-3.413-8.533-3.413-11.947,0l-25.6,25.6c-3.413,3.413-3.413,8.533,0,11.947l25.6,25.6
				c1.707,1.707,3.413,2.56,5.973,2.56c2.56,0,4.267-0.853,5.973-2.56l25.6-25.6c3.413-3.413,3.413-8.533,0-11.947L175.213,291.693z
				 M169.24,336.92l-13.653-13.653l13.653-13.653l13.653,13.653L169.24,336.92z"/>
			<path d="M339.907,357.4c2.56,0,4.267-0.853,5.973-2.56l25.6-25.6c3.413-3.413,3.413-8.533,0-11.947l-25.6-25.6
				c-3.413-3.413-8.533-3.413-11.947,0l-25.6,25.6c-3.413,3.413-3.413,8.533,0,11.947l25.6,25.6
				C335.64,356.547,337.347,357.4,339.907,357.4z M339.907,309.613l13.653,13.653l-13.653,13.653l-13.653-13.653L339.907,309.613z"
				/>
		</g>
	</g>
</g>
</svg>