<?xml version="1.0" encoding="iso-8859-1"?>
<!-- Uploaded to: SVG Repo, www.svgrepo.com, Generator: SVG Repo Mixer Tools -->
<svg fill="#000000" version="1.1" id="Layer_1" xmlns="http://www.w3.org/2000/svg" xmlns:xlink="http://www.w3.org/1999/xlink" 
	 viewBox="0 0 511.99 511.99" xml:space="preserve">
<g transform="translate(-1)">
	<g>
		<g>
			
				<rect x="156.529" y="155.577" transform="matrix(-0.7071 -0.7071 0.7071 -0.7071 172.2874 412.6885)" width="30.17" height="30.17"/>
			
				<rect x="327.196" y="155.577" transform="matrix(-0.7071 -0.7071 0.7071 -0.7071 463.6338 533.3679)" width="30.17" height="30.17"/>
			<path d="M512.31,128.07c-3.414-24.378-21.657-42.737-45.398-42.737h-60.631V63.996c0-11.782-9.551-21.333-21.333-21.333
				c-11.782,0-21.333,9.551-21.333,21.333v21.338H320.95V64c0-23.634-4.378-37.125-20.902-50.053C288.584,4.971,271.915,0,256.95,0
				s-31.634,4.971-42.963,13.828C197.311,26.869,192.95,40.337,192.95,64v21.333h-42.669V63.996
				c0-11.782-9.551-21.333-21.333-21.333c-11.782,0-21.333,9.551-21.333,21.333v21.338H46.987
				c-23.741,0-41.984,18.359-45.254,41.641c-4.241,30.296,11.337,58.764,38.059,71.189l67.822,41.85v37.323
				c0,11.782,9.551,21.333,21.333,21.333c11.782,0,21.333-9.551,21.333-21.333v-10.996l32.512,20.061l3.027,1.549
				c4.312,1.789,7.131,6.017,7.131,10.717v101.077l-46.123,15.197c-26.789,6.599-35.455,42.56-13.53,61.777l24.903,21.809
				c18.113,15.796,44.369,17.902,64.71,5.206l13.323-8.327c2.261,9.355,10.665,16.314,20.715,16.314
				c9.476,0,17.499-6.184,20.28-14.732l10.781,6.738c20.356,12.705,46.643,10.598,64.704-5.183l24.914-21.818
				c21.96-19.202,13.271-55.182-15.052-62.224l-41.625-13.767V298.667c0-4.7,2.819-8.928,7.131-10.717l3.027-1.549l32.507-20.058
				v10.993c0,11.782,9.551,21.333,21.333,21.333c11.782,0,21.333-9.551,21.333-21.333v-37.321l67.827-41.852
				C500.795,185.753,516.367,157.339,512.31,128.07z M310.611,467.536l-19.786-12.366c-21.64-13.517-49.08-13.517-70.715-0.003
				l-19.802,12.376c-4.396,2.744-10.097,2.286-14.032-1.145l-16.248-14.229l41.884-13.751c1.267-0.418,2.544-0.795,3.82-1.175
				c1.332-0.094,2.678-0.31,4.028-0.668c24.429-6.488,49.88-6.289,73.982,0.615c1.191,0.341,2.381,0.568,3.563,0.7
				c0.57,0.18,1.144,0.339,1.712,0.526l41.845,13.787l-16.24,14.223C320.729,469.828,315.016,470.286,310.611,467.536z
				 M455.557,159.726l-2.684,1.404l-142.899,88.176c-19.258,8.796-31.69,28.066-31.69,49.361v91.538
				c-14.162-1.791-28.484-1.908-42.667-0.35v-91.188c0-21.295-12.432-40.565-31.69-49.361L61.027,161.13l-2.684-1.404
				c-10.086-4.393-16.011-14.965-14.485-25.839l0.156-1.186c0.45-3.197,1.944-4.701,2.974-4.701h167.296
				c11.782,0,21.333-9.551,21.333-21.333V64c0-11.873,0.457-13.28,4.553-16.47c3.43-2.666,10.821-4.863,16.78-4.863
				c5.951,0,13.33,2.191,16.632,4.734c4.235,3.318,4.702,4.751,4.702,16.6v42.667c0,11.782,9.551,21.333,21.333,21.333h167.296
				c1.03,0,2.524,1.504,3.002,4.909C471.568,144.762,465.643,155.334,455.557,159.726z"/>
		</g>
	</g>
</g>
</svg>