<?xml version="1.0" encoding="iso-8859-1"?>
<!-- Uploaded to: SVG Repo, www.svgrepo.com, Generator: SVG Repo Mixer Tools -->
<svg fill="#000000" version="1.1" id="Layer_1" xmlns="http://www.w3.org/2000/svg" xmlns:xlink="http://www.w3.org/1999/xlink" 
	 viewBox="0 0 504.52 504.52" xml:space="preserve">
<g transform="translate(-1)">
	<g>
		<g>
			
				<rect x="344.566" y="141.946" transform="matrix(-0.7071 -0.7071 0.7071 -0.7071 497.2533 508.6862)" width="18.826" height="18.826"/>
			
				<rect x="143.124" y="141.946" transform="matrix(-0.7071 -0.7071 0.7071 -0.7071 153.3704 366.2457)" width="18.826" height="18.826"/>
			<path d="M504.306,112.836c-3.517-16.594-18.457-28.622-35.521-28.622H404.34v-5.523c0-15.461-12.59-28.051-28.059-28.051h-2.635
				c-15.469,0-28.059,12.59-28.059,28.051v5.523h-50.361v-4.541c0-7.017,1.225-12.926,3.634-17.534
				c9.191-17.643,4.323-39.105-11.583-51.032C277.96,4.124,266.419,0.28,254.794,0.28h-2.887c-11.986,0-23.787,4.062-33.297,11.491
				c-15.133,11.818-19.691,32.407-11.096,50.075c2.241,4.616,3.466,9.77,3.542,14.898l0.109,7.47H160.93v-5.523
				c0-15.461-12.59-28.051-28.059-28.051h-2.636c-15.469,0-28.059,12.59-28.059,28.051v5.523H35.029
				c-16.77,0-30.796,13.203-33.356,31.417l-0.134,0.99c-3.475,24.786,10.131,49.068,32.86,58.939l67.777,31.937v26.574
				c0,9.929,8.083,18.012,18.012,18.012h22.729c9.569,0,17.341-7.521,17.903-16.946l34.581,16.292
				c9.652,4.029,15.889,13.379,15.889,23.837v133.649c-4.306,1.058-8.57,2.249-12.783,3.643l-53.114,17.517
				c-8.595,2.14-15.234,8.838-17.316,17.458c-2.082,8.62,0.772,17.601,7.453,23.451l25.843,22.604
				c14.294,12.515,34.707,14.168,50.831,4.079l20.547-12.834c3.76-2.359,7.881-3.911,12.112-4.843v15.503
				c0,4.633,3.752,8.393,8.393,8.393c4.642,0,8.393-3.76,8.393-8.393v-15.503c4.23,0.932,8.351,2.484,12.112,4.843l20.547,12.834
				c7.034,4.407,14.898,6.572,22.713,6.572c10.072,0,20.069-3.601,28.11-10.643l25.852-22.612c6.681-5.85,9.535-14.831,7.453-23.451
				c-2.082-8.62-8.721-15.318-16.737-17.299l-53.693-17.677c-4.214-1.393-8.477-2.585-12.783-3.643V275.283
				c0-10.467,6.236-19.825,16.258-23.988l34.212-16.107c0.596,9.401,8.352,16.896,17.903,16.896h22.729
				c9.93,0,18.012-8.083,18.012-18.012V207.59l67.769-31.887C496.257,165.094,509.795,138.655,504.306,112.836z M118.963,78.692
				c0-6.211,5.061-11.264,11.272-11.264h2.636c6.211,0,11.272,5.053,11.272,11.264v5.523h-25.18V78.692z M144.143,234.071
				c0,0.672-0.546,1.225-1.225,1.225h-22.729c-0.68,0-1.225-0.554-1.225-1.225v-18.65l25.18,11.86V234.071z M183.651,157.296
				l-25.18,25.18c-1.637,1.637-3.785,2.459-5.934,2.459c-2.149,0-4.297-0.823-5.934-2.459l-25.18-25.18
				c-3.282-3.282-3.282-8.595,0-11.877l25.18-25.18c3.282-3.273,8.586-3.273,11.868,0l25.18,25.18
				C186.933,148.701,186.933,154.015,183.651,157.296z M362.373,78.692c0-6.211,5.061-11.264,11.272-11.264h2.635
				c6.211,0,11.272,5.053,11.272,11.264v5.523h-25.18V78.692z M387.553,234.071c0,0.672-0.546,1.225-1.225,1.225h-22.729
				c-0.68,0-1.225-0.554-1.225-1.225v-6.732l25.18-11.843V234.071z M385.094,157.296l-25.18,25.18
				c-1.637,1.637-3.785,2.459-5.934,2.459c-2.149,0-4.297-0.823-5.934-2.459l-25.18-25.18c-3.282-3.282-3.282-8.595,0-11.877
				l25.18-25.18c3.282-3.273,8.586-3.273,11.868,0l25.18,25.18C388.376,148.701,388.376,154.015,385.094,157.296z"/>
		</g>
	</g>
</g>
</svg>