<?xml version="1.0" encoding="iso-8859-1"?>
<!-- Uploaded to: SVG Repo, www.svgrepo.com, Generator: SVG Repo Mixer Tools -->
<svg fill="#000000" height="800px" width="800px" version="1.1" id="Layer_1" xmlns="http://www.w3.org/2000/svg" xmlns:xlink="http://www.w3.org/1999/xlink" 
	 viewBox="0 0 512 512" xml:space="preserve">
<g>
	<g>
		<path d="M491.853,261.188c11.298-0.87,20.147-10.428,20.147-21.76c0-12.032-9.788-21.828-21.828-21.828H281.6v-51.2h51.2
			c14.114,0,25.6-11.477,25.6-25.6c0-14.114-11.486-25.6-25.6-25.6h-51.2V98.739c0-1.69-0.503-3.337-1.434-4.736
			c-5.402-8.098-14.43-12.937-24.166-12.937c-9.737,0-18.765,4.838-24.166,12.937c-0.93,1.399-1.434,3.046-1.434,4.736V115.2h-51.2
			c-14.114,0-25.6,11.486-25.6,25.6c0,14.123,11.486,25.6,25.6,25.6h51.2v51.2H21.828C9.796,217.6,0,227.396,0,239.428
			c0,11.332,8.849,20.89,20.105,21.751l22.562,1.886v6.946c-14.677,3.814-25.6,17.067-25.6,32.922
			c0,18.825,15.309,34.133,34.133,34.133s34.133-15.309,34.133-34.133c0-15.855-10.914-29.107-25.6-32.922v-5.521l59.733,4.992
			v17.596c-14.677,3.814-25.6,17.067-25.6,32.922c0,18.825,15.309,34.133,34.133,34.133s34.133-15.309,34.133-34.133
			c0-15.855-10.914-29.107-25.6-32.922v-16.162l63.872,5.342c-18.423,18.458-29.739,44.698-29.739,69.342
			c0,47.053,38.281,85.333,85.333,85.333s85.333-38.281,85.333-85.333c0-24.405-11.119-50.372-29.235-68.804l63.369-5.504v15.787
			c-14.677,3.814-25.6,17.067-25.6,32.922c0,18.825,15.309,34.133,34.133,34.133c18.825,0,34.133-15.309,34.133-34.133
			c0-15.855-10.914-29.107-25.6-32.922v-17.263l59.733-5.197v5.393c-14.677,3.814-25.6,17.067-25.6,32.922
			c0,18.825,15.309,34.133,34.133,34.133c18.825,0,34.133-15.309,34.133-34.133c0-15.855-10.914-29.107-25.6-32.922v-6.869
			L491.853,261.188z M281.6,132.267h51.2c4.71,0,8.533,3.823,8.533,8.533s-3.823,8.533-8.533,8.533h-51.2V132.267z M247.467,157.867
			v-34.133v-22.042c4.454-4.565,12.621-4.565,17.067,0v22.042v34.133V217.6h-17.067V157.867z M179.2,149.333
			c-4.71,0-8.533-3.823-8.533-8.533s3.823-8.533,8.533-8.533h51.2v17.067H179.2z M301.901,336.435
			c-1.058,0.435-2.159,0.631-3.234,0.631c-3.354,0-6.545-1.997-7.902-5.299c-3.524-8.636-12.51-11.767-17.698-11.767h-34.133
			c-5.35,0-14.379,3.652-17.698,11.767c-1.784,4.361-6.801,6.451-11.136,4.668c-4.361-1.783-6.451-6.767-4.668-11.136
			c6.008-14.677,21.402-22.366,33.502-22.366h34.133c11.725,0,27.213,7.006,33.502,22.366
			C308.352,329.668,306.261,334.652,301.901,336.435z M305.562,260.267h-15.454c-10.334-5.393-21.828-8.533-34.108-8.533
			c-12.279,0-23.782,3.149-34.116,8.542l-7.842,0.026L21.47,244.164c-2.466-0.188-4.403-2.27-4.403-4.736
			c0-2.628,2.133-4.762,4.762-4.762h217.105h34.133h217.105c2.628,0,4.762,2.133,4.762,4.762c0,2.466-1.929,4.548-4.48,4.745
			L305.562,260.267z"/>
	</g>
</g>
</svg>