<?xml version="1.0" encoding="iso-8859-1"?>
<!-- Uploaded to: SVG Repo, www.svgrepo.com, Generator: SVG Repo Mixer Tools -->
<svg fill="#000000" height="800px" width="800px" version="1.1" id="Layer_1" xmlns="http://www.w3.org/2000/svg" xmlns:xlink="http://www.w3.org/1999/xlink" 
	 viewBox="0 0 512 512" xml:space="preserve">
<g transform="translate(1 1)">
	<g>
		<g>
			<path d="M456.387,342.04l-39.253-36.636V247.32c0-12.8-9.387-24.747-21.333-26.453c-6.827-0.853-14.507,0.853-20.48,5.973
				c-5.973,5.12-9.387,11.947-9.387,19.627v11.15l-11.947-11.15c-14.507-13.653-23.04-32.427-23.04-52.053
				c0-23.893-9.387-46.933-26.453-63.147l-7.059-7.059c-1.805-34.393-9.093-70.41-21.101-106.434l-1.707-4.267
				C272.067,4.973,264.387-1,255-1s-17.067,5.973-19.627,14.507l-1.707,4.267c-11.924,35.772-18.683,72.048-20.721,106.054
				l-8.292,8.292c-17.067,16.213-26.453,39.253-26.453,63.147c0,19.627-8.533,38.4-23.04,52.053l-11.093,10.354V247.32
				c0-12.8-9.387-24.747-21.333-26.453c-6.827-0.853-14.507,0.853-20.48,5.973s-9.387,11.947-9.387,19.627v58.994L52.76,342.893
				c-1.707,1.707-2.56,3.413-2.56,5.973V383c0,4.267,2.56,7.68,5.973,8.533l36.693,9.353v41.847c0,9.387,7.68,17.067,17.067,17.067
				H127c9.387,0,17.067-7.68,17.067-17.067v-28.707c7.266,2.648,12.896,7.63,15.36,14.2c2.56,6.827,2.56,14.507-1.707,21.333
				l-29.013,48.64c-2.56,2.56-1.707,6.827,0,9.387c1.707,1.707,4.267,3.413,6.827,3.413c0.853,0,0.853,0,1.707,0l76.8-17.067
				c3.413-0.853,5.973-3.413,6.827-6.827l5.404-27.019c8.3,5.491,18.316,8.246,28.729,8.246c10.3,0,20.209-2.701,28.713-8.331
				l5.421,27.104c0.853,3.413,3.413,5.973,6.827,6.827L372.76,511c0.853,0,0.853,0,1.707,0c2.56,0,5.12-0.853,6.827-3.413
				s1.707-6.827,0-9.387l-29.013-48.64c-4.267-6.827-5.12-13.653-1.707-21.333c3.284-7.39,8.156-12.4,15.36-14.289v28.796
				c0,9.387,7.68,17.067,17.067,17.067h17.067c9.387,0,17.067-7.68,17.067-17.067v-42.472l35.84-9.581
				c3.413-1.707,6.827-4.267,6.827-8.533v-34.133C459.8,346.307,458.093,343.747,456.387,342.04z M109.933,246.467
				c0-2.56,0.853-8.533,8.533-8.533c5.12,0,8.533,4.267,8.533,8.533v26.453l-17.067,16.213V246.467z M383,246.467
				c0-2.56,0.853-4.267,3.413-5.973c1.707-1.707,4.267-2.56,6.827-1.707c3.413,0.853,6.827,5.12,6.827,9.387v41.301L383,273.546
				V246.467z M127,442.733h-17.067V406.04L127,410.307V442.733z M153.453,490.52l18.773-31.573
				c6.827-11.093,7.68-24.747,2.56-36.693c-5.12-11.947-14.507-20.48-27.307-23.893l-8.229-2.188
				c-0.373-0.146-0.759-0.272-1.158-0.372l-34.133-9.387c-1.067-0.356-2.28-0.551-3.459-0.548l-33.234-8.839v-23.893l100.693-93.867
				c17.92-17.067,28.16-40.107,28.16-64.853c0-16.601,5.667-32.385,16.185-45.015c0.012,1.066,0.007,2.143,0.028,3.202v290.133
				c0,0.766,0.086,1.448,0.239,2.084l-7.065,33.756L153.453,490.52z M255,451.267c-10.24,0-18.773-3.413-25.6-11.093V152.6
				c0-4.114,0-8.232,0-12.476c0.645-36.879,7.458-77.31,20.48-116.377l1.707-4.267c0.853-2.56,2.56-3.413,3.413-3.413
				s2.56,0.853,3.413,3.413l1.707,4.267c11.352,34.057,17.979,68.63,19.925,101.687c-0.194,0.791-0.298,1.605-0.298,2.419
				c0.853,9.387,0.853,17.067,0.853,24.747v287.573C274.627,447.853,265.24,451.267,255,451.267z M400.067,442.733H383v-32.427
				l17.067-5.12V442.733z M442.733,377.027l-31.452,8.455c-1.747-0.232-3.494,0.349-5.242,0.932l-34.133,9.387
				c-0.365,0.183-0.718,0.366-1.062,0.551l-7.472,2.009c-12.8,3.413-22.187,11.947-27.307,23.893s-4.267,25.6,2.56,36.693
				L357.4,490.52l-52.053-11.947l-7.68-36.693V152.6c0.055-1.372,0.073-2.757,0.108-4.136c11.022,12.78,16.958,28.94,16.958,45.949
				c0,24.747,10.24,47.787,28.16,64.853l24.095,22.653c0.393,0.755,0.892,1.48,1.505,2.094l34.133,31.573
				c0.367,0.367,0.778,0.686,1.207,0.975l38.899,36.572V377.027z"/>
			<path d="M167.107,308.76c-3.413-3.413-8.533-3.413-11.947,0l-25.6,25.6c-3.413,3.413-3.413,8.533,0,11.947l25.6,25.6
				c1.707,1.707,3.413,2.56,5.973,2.56s4.267-0.853,5.973-2.56l25.6-25.6c3.413-3.413,3.413-8.533,0-11.947L167.107,308.76z
				 M161.133,353.987l-13.653-13.653l13.653-13.653l13.653,13.653L161.133,353.987z"/>
			<path d="M354.84,308.76c-3.413-3.413-8.533-3.413-11.947,0l-25.6,25.6c-3.413,3.413-3.413,8.533,0,11.947l25.6,25.6
				c1.707,1.707,3.413,2.56,5.973,2.56s4.267-0.853,5.973-2.56l25.6-25.6c3.413-3.413,3.413-8.533,0-11.947L354.84,308.76z
				 M348.867,353.987l-13.653-13.653l13.653-13.653l13.653,13.653L348.867,353.987z"/>
		</g>
	</g>
</g>
</svg>