<?xml version="1.0" encoding="iso-8859-1"?>
<!-- Uploaded to: SVG Repo, www.svgrepo.com, Generator: SVG Repo Mixer Tools -->
<svg fill="#000000" height="800px" width="800px" version="1.1" id="Layer_1" xmlns="http://www.w3.org/2000/svg" xmlns:xlink="http://www.w3.org/1999/xlink" 
	 viewBox="0 0 512 512" xml:space="preserve">
<g>
	<g>
		<g>
			<path d="M490.667,224H277.333v-42.667h64c11.782,0,21.333-9.551,21.333-21.333c0-11.782-9.551-21.333-21.333-21.333h-64v-21.333
				C277.333,105.551,267.782,96,256,96s-21.333,9.551-21.333,21.333v21.333h-64c-11.782,0-21.333,9.551-21.333,21.333
				c0,11.782,9.551,21.333,21.333,21.333h64V224H21.333C9.551,224,0,233.551,0,245.333c0,11.782,9.551,21.333,21.333,21.333h213.333
				v2.688c-36.807,9.472-64,42.88-64,82.645c0,46.617,32.222,64,85.333,64s85.333-17.383,85.333-64
				c0-39.765-27.193-73.173-64-82.645v-2.688h213.333c11.782,0,21.333-9.551,21.333-21.333C512,233.551,502.449,224,490.667,224z
				 M298.667,352c0,15.943-9.992,21.333-42.667,21.333s-42.667-5.391-42.667-21.333c0-23.567,19.099-42.667,42.667-42.667
				S298.667,328.433,298.667,352z"/>
			<path d="M42.667,288c-11.776,0-21.333,9.557-21.333,21.333s9.557,21.333,21.333,21.333S64,321.109,64,309.333
				S54.443,288,42.667,288z"/>
			<path d="M106.667,288c-11.776,0-21.333,9.557-21.333,21.333s9.557,21.333,21.333,21.333S128,321.109,128,309.333
				S118.443,288,106.667,288z"/>
			<path d="M405.333,288C393.557,288,384,297.557,384,309.333s9.557,21.333,21.333,21.333s21.333-9.557,21.333-21.333
				S417.109,288,405.333,288z"/>
			<path d="M469.333,288C457.557,288,448,297.557,448,309.333s9.557,21.333,21.333,21.333s21.333-9.557,21.333-21.333
				S481.109,288,469.333,288z"/>
		</g>
	</g>
</g>
</svg>