<?xml version="1.0" encoding="iso-8859-1"?>
<!-- Uploaded to: SVG Repo, www.svgrepo.com, Generator: SVG Repo Mixer Tools -->
<svg fill="#000000" height="800px" width="800px" version="1.1" id="Layer_1" xmlns="http://www.w3.org/2000/svg" xmlns:xlink="http://www.w3.org/1999/xlink" 
	 viewBox="0 0 512 512" xml:space="preserve">
<g transform="translate(1 1)">
	<g>
		<g>
			<path d="M476.867,408.599v-11.945v0c0-16.213-6.827-31.573-19.627-40.96l-18.515-14.283l-98.392-80.437v-89.6
				c0-13.653-5.973-27.307-15.36-36.693c-7.969-7.969-17.491-12.822-27.756-14.589c-2.154-33.144-9.355-67.73-20.884-102.317
				l-1.707-4.267C272.067,4.973,264.387-1,255-1c-9.387,0-17.067,5.973-19.627,14.507l-1.707,4.267
				c-11.419,34.258-18.113,68.983-20.45,101.73c-10.995,2.05-20.685,6.819-28.19,14.324c-10.24,10.24-15.36,23.04-15.36,36.693v89.6
				L52.76,354.84c-11.947,10.24-19.627,25.6-19.627,40.96v12.8v34.133c0,5.12,3.413,8.533,8.533,8.533s8.533-3.413,8.533-8.533
				v-25.6h68.267h61.44l-51.2,81.067c-2.56,2.56-1.707,6.827,0,9.387c1.707,1.707,4.267,3.413,6.827,3.413c0.853,0,1.707,0,1.707,0
				l68.267-17.067c2.56-0.853,5.12-2.56,5.973-5.12l12.178-30.445c8.764,6.971,19.812,10.818,31.342,10.818
				c11.369,0,22.266-3.75,31.316-10.884l12.204,30.511c0.853,2.56,3.413,4.267,5.973,5.12L372.76,511c0,0,0.853,0,1.707,0
				c2.56,0,5.12-0.853,6.827-3.413c1.707-2.56,1.707-6.827,0-9.387l-51.2-81.067h61.44H459.8v25.6c0,5.12,3.413,8.533,8.533,8.533
				c5.12,0,8.533-3.413,8.533-8.533V408.6C476.867,408.6,476.867,408.599,476.867,408.599z M400.067,333.507l33.769,25.639
				l12.311,10.201c8.533,6.827,13.653,17.067,13.653,27.307v3.413h-59.733V333.507z M50.2,400.067V395.8
				c0-10.24,5.12-20.48,13.653-27.307l46.08-35.84v67.413H50.2z M197.827,477.72l-43.52,11.093l48.64-75.947
				c1.707-2.56,1.707-5.973,0-8.533s-4.267-4.267-7.68-4.267H127v-83.444l56.32-46.263c2.56-1.707,3.413-4.267,3.413-6.827V170.52
				c0-9.387,3.413-17.92,10.24-24.747c4.267-4.267,9.387-6.827,15.36-8.533c0,0.816,0,1.632,0,2.448
				c-0.073,4.349-0.087,8.663,0,12.912v288.427L197.827,477.72z M255,452.12c-10.24,0-18.773-4.267-25.6-11.947V152.6
				c0-7.68,0-15.36,0.853-25.6c0-0.537-0.094-1.162-0.263-1.814c1.99-32.707,8.605-67.584,19.89-101.439l1.707-4.267
				c0.853-2.56,2.56-2.56,3.413-2.56s2.56,0,3.413,2.56l1.707,4.267c11.362,34.085,17.99,68.686,19.93,101.767
				c-0.197,0.706-0.303,1.471-0.303,2.339c0.853,9.387,0.853,17.067,0.853,24.747v287.573C274.627,447.853,265.24,452.12,255,452.12
				z M307.053,413.72l48.64,75.947l-43.52-11.093l-14.507-36.693V153.453V152.6c0.202-5.061,0.263-10.174,0.204-15.325
				c5.885,0.901,10.938,4.281,15.156,8.499c6.827,6.827,10.24,15.36,10.24,24.747v93.013c0,2.56,0.853,5.12,3.413,6.827L383,317.025
				v83.895h-68.267c-3.413,0-5.973,1.707-7.68,4.267C305.347,407.747,305.347,411.16,307.053,413.72z"/>
			<path d="M175.64,317.293c-3.413-3.413-8.533-3.413-11.947,0l-25.6,25.6c-3.413,3.413-3.413,8.533,0,11.947l25.6,25.6
				c1.707,1.707,3.413,2.56,5.973,2.56c2.56,0,4.267-0.853,5.973-2.56l25.6-25.6c3.413-3.413,3.413-8.533,0-11.947L175.64,317.293z
				 M169.667,362.52l-13.653-13.653l13.653-13.653l13.653,13.653L169.667,362.52z"/>
			<path d="M334.36,380.44c1.707,1.707,3.413,2.56,5.973,2.56s4.267-0.853,5.973-2.56l25.6-25.6c3.413-3.413,3.413-8.533,0-11.947
				l-25.6-25.6c-3.413-3.413-8.533-3.413-11.947,0l-25.6,25.6c-3.413,3.413-3.413,8.533,0,11.947L334.36,380.44z M340.333,335.213
				l13.653,13.653l-13.653,13.653l-13.653-13.653L340.333,335.213z"/>
		</g>
	</g>
</g>
</svg>