<?xml version="1.0" encoding="iso-8859-1"?>
<!-- Uploaded to: SVG Repo, www.svgrepo.com, Generator: SVG Repo Mixer Tools -->
<svg fill="#000000" height="800px" width="800px" version="1.1" id="Layer_1" xmlns="http://www.w3.org/2000/svg" xmlns:xlink="http://www.w3.org/1999/xlink" 
	 viewBox="0 0 512.005 512.005" xml:space="preserve">
<g>
	<g>
		<path d="M508.623,300.399l-39.287-29.807V230.4c0-14.114-11.486-25.6-25.6-25.6s-25.6,11.486-25.6,25.6v1.357l-34.133-25.899
			v-43.725c0-14.114-11.486-25.6-25.6-25.6s-25.6,11.486-25.6,25.6v4.89l-34.15-25.907l0.017-43.819
			c0-26.249-4.54-52.07-13.534-76.894C280.647,8.021,269.246,0.017,256.079,0h-0.043c-13.141,0-24.55,7.979-29.056,20.335
			c-9.054,24.806-13.645,50.782-13.645,77.21l-0.017,43.588l-34.116,25.882v-4.881c0-14.114-11.486-25.6-25.6-25.6
			c-14.114,0-25.6,11.486-25.6,25.6v43.725l-34.133,25.89V230.4c0-14.114-11.486-25.6-25.6-25.6s-25.6,11.486-25.6,25.6v40.192
			L3.373,300.399c-2.125,1.621-3.371,4.13-3.371,6.801v51.2c0,2.756,1.331,5.35,3.575,6.946c1.468,1.05,3.2,1.587,4.958,1.587
			c0.93,0,1.877-0.154,2.782-0.469l201.95-69.632l-0.034,121.344l-62.916,26.214c-3.174,1.323-5.248,4.437-5.248,7.876v51.2
			c0,2.85,1.425,5.513,3.797,7.1c2.381,1.596,5.385,1.877,8.021,0.777l99.115-41.301l99.115,41.301
			c1.058,0.444,2.176,0.657,3.285,0.657c1.655,0,3.311-0.486,4.736-1.434c2.372-1.587,3.797-4.25,3.797-7.1v-51.2
			c0-3.439-2.074-6.554-5.248-7.876l-63.121-26.3l0.034-121.31l202.086,69.683c0.905,0.316,1.852,0.469,2.782,0.469
			c1.749,0,3.49-0.538,4.949-1.587c2.253-1.596,3.584-4.19,3.584-6.946v-51.2C512.002,304.529,510.757,302.02,508.623,300.399z
			 M76.802,244.702l-17.067,12.945V230.4c0-4.71,3.831-8.533,8.533-8.533s8.533,3.823,8.533,8.533V244.702z M162.136,179.959
			l-17.067,12.945v-30.771c0-4.71,3.831-8.533,8.533-8.533c4.702,0,8.533,3.823,8.533,8.533V179.959z M366.936,192.913
			l-17.067-12.945v-17.835c0-4.71,3.831-8.533,8.533-8.533c4.702,0,8.533,3.823,8.533,8.533V192.913z M452.269,257.647
			l-17.067-12.945V230.4c0-4.71,3.823-8.533,8.533-8.533c4.71,0,8.533,3.823,8.533,8.533V257.647z"/>
	</g>
</g>
</svg>