<?xml version="1.0" encoding="iso-8859-1"?>
<!-- Uploaded to: SVG Repo, www.svgrepo.com, Generator: SVG Repo Mixer Tools -->
<svg fill="#000000" height="800px" width="800px" version="1.1" id="Layer_1" xmlns="http://www.w3.org/2000/svg" xmlns:xlink="http://www.w3.org/1999/xlink" 
	 viewBox="0 0 512.263 512.263" xml:space="preserve">
<g transform="translate(1 1)">
	<g>
		<g>
			<path d="M500.892,365.838l-54.299,9.362l9.072-12.775c3.413-4.267,2.56-9.387-1.707-11.947c-4.267-3.413-9.387-2.56-11.947,1.707
				l-15.693,22.099l-22.707-16.125c-4.267-3.413-9.387-2.56-11.947,1.707c-3.413,4.267-2.56,9.387,1.707,11.947l14.237,10.11
				l-137.441,23.697l8.858-12.473c3.413-4.267,2.56-9.387-1.707-11.947c-4.267-3.413-9.387-2.56-11.947,1.707l-16.096,22.666
				l-22.304-15.839c-4.267-3.413-9.387-2.56-11.947,1.707c-3.413,4.267-2.56,9.387,1.707,11.947l12.97,9.21l-135.96,23.441
				l8.644-12.172c3.413-4.267,2.56-9.387-1.707-11.947c-4.267-3.413-9.387-2.56-11.947,1.707L72.636,436.29l-22.304-15.839
				c-4.267-3.413-9.387-2.56-11.947,1.707c-3.413,4.267-2.56,9.387,1.707,11.947l12.817,8.972l-46.95,8.095
				c-4.267,0.853-7.68,5.973-6.827,10.24c0.853,4.267,4.267,6.827,8.533,6.827c0.853,0,0.853,0,1.707,0l46.238-7.972l-8.691,12.239
				c-3.413,4.267-2.56,9.387,1.707,11.947c1.707,0.853,3.413,1.707,5.12,1.707c3.413,0,5.973-0.853,6.827-3.413l16.272-22.914
				l22.981,16.087c1.707,0.853,3.413,1.707,5.12,1.707c2.56,0,5.12-1.707,5.973-3.413c3.413-4.267,2.56-9.387-1.707-11.947
				l-12.736-9.045l135.56-23.372l-8.477,11.937c-3.413,4.267-2.56,9.387,1.707,11.947c1.707,0.853,3.413,1.707,5.12,1.707
				c2.56,0,5.973-1.707,6.827-3.413l16.096-22.666l22.304,15.839c1.707,0.853,3.413,1.707,5.12,1.707
				c3.413,0,5.973-1.707,6.827-3.413c3.413-4.267,2.56-9.387-1.707-11.947l-12.436-8.831l135.045-23.284l-8.263,11.635
				c-3.413,4.267-2.56,9.387,1.707,11.947c1.707,0.853,3.413,1.707,5.12,1.707c2.56,0,5.12-1.707,6.827-3.413l16.499-23.233
				l21.901,15.553c1.707,0.853,3.413,1.707,5.12,1.707c2.56,0,5.12-0.853,6.827-3.413c3.413-4.267,2.56-9.387-1.707-11.947
				l-11.169-7.932l52.982-9.135c4.267-0.853,7.68-5.973,6.827-10.24S505.158,364.985,500.892,365.838z"/>
			<path d="M7.665,143.971c0.853,0,0.853,0,1.707,0l46.826-8.8l-9.279,13.067c-3.413,4.267-2.56,9.387,1.707,11.947
				c1.707,0.853,3.413,1.707,5.12,1.707c3.413,0,5.973-0.853,6.827-3.413l16.272-22.914l22.981,16.087
				c1.707,0.853,3.413,1.707,5.12,1.707c2.56,0,5.12-1.707,5.973-3.413c3.413-4.267,2.56-9.387-1.707-11.947L94.97,127.885
				l139.896-26.291l-11.308,15.924c-3.413,4.267-2.56,9.387,1.707,11.947c1.707,0.853,3.413,1.707,5.12,1.707
				c2.56,0,5.973-1.707,6.827-4.267l15.693-22.099l22.707,16.125c1.707,0.853,3.413,1.707,5.12,1.707
				c3.413,0,5.973-1.707,6.827-3.413c3.413-4.267,2.56-9.387-1.707-11.947l-16.998-12.071l144.683-27.19l-13.338,18.782
				c-3.413,4.267-2.56,9.387,1.707,11.947c1.707,0.853,3.413,1.707,5.12,1.707c2.56,0,5.12-1.707,6.827-3.413l16.499-23.233
				l21.901,15.553c1.707,0.853,3.413,1.707,5.12,1.707c2.56,0,5.12-0.853,6.827-3.413c3.413-4.267,2.56-9.387-1.707-11.947
				L443.686,62.35l60.619-11.392c4.267-0.853,7.68-5.973,6.827-10.24c-0.853-4.267-5.12-7.68-10.24-6.827l-48.695,9.151l3.469-4.885
				c3.413-4.267,2.56-9.387-1.707-11.947c-4.267-3.413-9.387-2.56-11.947,1.707l-13.964,19.663l-4.08,0.767l-20.357-14.456
				c-4.267-3.413-9.387-2.56-11.947,1.707c-3.413,4.267-2.56,9.387,1.707,11.947l7.297,5.182L272.828,76.752l6.197-8.727
				c2.56-3.413,1.707-9.387-1.707-11.093c-4.267-3.413-9.387-2.56-11.947,1.707l-15.993,22.52l-0.244,0.046l-22.164-15.739
				c-4.267-3.413-9.387-2.56-11.947,1.707c-2.56,4.267-1.707,9.387,1.707,11.947l9.104,6.465L94.858,110.198l7.527-10.6
				c3.413-4.267,2.56-9.387-1.707-11.947c-4.267-3.413-9.387-2.56-11.947,1.707l-16.096,22.666L50.332,96.185
				c-4.267-2.56-9.387-1.707-11.947,1.707c-2.56,4.267-1.707,9.387,1.707,11.947l11.996,8.397l-46.13,8.669
				c-4.267,0.853-7.68,5.973-6.827,10.24S3.398,143.971,7.665,143.971z"/>
			<path d="M5.958,212.238l45.994,8.644l-11.861,8.423c-3.413,3.413-4.267,8.533-1.707,12.8c1.707,2.56,4.267,3.413,6.827,3.413
				c1.707,0,3.413-0.853,5.12-1.707l22.152-16.052l16.247,22.879c1.707,2.56,4.267,3.413,6.827,3.413
				c1.707,0,3.413-0.853,5.12-1.707c3.413-2.56,4.267-7.68,1.707-11.947l-8.227-11.585l132.627,24.925l-10.054,7.14
				c-3.413,2.56-4.267,7.68-1.707,11.947c1.707,2.56,4.267,3.413,6.827,3.413c1.707,0,3.413-0.853,5.12-1.707l22.304-15.839
				l16.096,22.666c1.707,2.56,4.267,3.413,6.827,3.413c1.707,0,3.413,0,5.12-1.707c3.413-2.56,4.267-7.68,1.707-11.947l-6.197-8.727
				l127.841,24.025l-7.297,5.182c-3.413,2.56-4.267,7.68-1.707,11.947c1.707,2.56,4.267,3.413,6.827,3.413
				c1.707,0,3.413,0,5.12-1.707l20.357-14.456l2.934,0.551l15.109,21.585c1.707,2.56,4.267,3.413,6.827,3.413
				c1.707,0,3.413-0.853,5.12-2.56c3.413-2.56,4.267-7.68,1.707-11.947l-4.168-5.87l49.395,9.283c0.853,0,0.853,0,1.707,0
				c4.267,0,7.68-2.56,8.533-6.827c0.853-5.12-2.56-9.387-6.827-10.24l-60.619-11.392l18.805-13.354
				c3.413-2.56,4.267-7.68,1.707-11.947c-2.56-3.413-7.68-4.267-11.947-1.707l-22.304,15.839l-16.096-22.666
				c-2.56-3.413-7.68-4.267-11.947-1.707c-3.413,2.56-4.267,7.68-1.707,11.947l12.43,17.758l-142.825-26.841l16.048-11.397
				c3.413-2.56,4.267-7.68,1.707-11.947c-2.56-3.413-7.68-4.267-11.947-1.707l-22.304,15.839l-16.096-22.666
				c-2.56-3.413-7.68-4.267-11.947-1.707c-3.413,2.56-4.267,7.68-1.707,11.947l10.609,14.939L95.197,211.301l14.015-10.156
				c3.413-2.56,4.267-8.533,1.707-11.947s-7.68-4.267-11.947-1.707l-22.707,16.125l-15.693-22.099
				c-2.56-3.413-7.68-4.267-11.947-1.707c-3.413,2.56-4.267,7.68-1.707,11.947l8.58,12.082l-46.127-8.669
				c-5.12-0.853-9.387,2.56-10.24,6.827C-1.722,207.118,1.692,211.385,5.958,212.238z"/>
		</g>
	</g>
</g>
</svg>