<?xml version="1.0" encoding="iso-8859-1"?>
<!-- Uploaded to: SVG Repo, www.svgrepo.com, Generator: SVG Repo Mixer Tools -->
<svg height="800px" width="800px" version="1.1" id="Layer_1" xmlns="http://www.w3.org/2000/svg" xmlns:xlink="http://www.w3.org/1999/xlink" 
	 viewBox="0 0 511.996 511.996" xml:space="preserve">
<g>
	<path style="fill:#C7CBC7;" d="M8.523,469.492c-4.087,0-7.689-2.935-8.397-7.091c-0.802-4.642,2.313-9.054,6.963-9.848
		l494.933-85.035c4.642-0.819,9.062,2.33,9.847,6.963c0.802,4.642-2.313,9.054-6.963,9.856L9.973,469.364
		C9.487,469.45,9.001,469.492,8.523,469.492"/>
	<path style="fill:#C7CBC7;" d="M105.406,478.459c-1.69,0-3.396-0.503-4.89-1.553l-59.29-41.566
		c-3.866-2.697-4.796-8.021-2.091-11.878c2.705-3.849,8.021-4.813,11.887-2.082l59.29,41.566c3.857,2.697,4.796,8.021,2.082,11.878
		C110.739,477.196,108.094,478.459,105.406,478.459"/>
	<path style="fill:#C7CBC7;" d="M54.973,487.325c-1.69,0-3.396-0.503-4.89-1.553c-3.857-2.697-4.796-8.021-2.082-11.878
		l41.566-59.29c2.688-3.866,8.013-4.804,11.878-2.091c3.857,2.705,4.796,8.03,2.082,11.887l-41.566,59.29
		C60.306,486.062,57.661,487.325,54.973,487.325"/>
	<path style="fill:#C7CBC7;" d="M281.898,447.451c-1.69,0-3.396-0.503-4.89-1.553l-59.29-41.566
		c-3.857-2.697-4.787-8.021-2.082-11.878c2.705-3.849,8.021-4.813,11.887-2.082l59.281,41.566c3.857,2.697,4.796,8.021,2.082,11.878
		C287.232,446.188,284.586,447.451,281.898,447.451"/>
	<path style="fill:#C7CBC7;" d="M231.473,456.309c-1.69,0-3.396-0.503-4.89-1.553c-3.857-2.697-4.796-8.021-2.082-11.878
		l41.566-59.281c2.697-3.866,8.013-4.804,11.878-2.091c3.857,2.705,4.796,8.03,2.082,11.887l-41.566,59.281
		C236.806,455.046,234.161,456.309,231.473,456.309"/>
	<path style="fill:#C7CBC7;" d="M458.397,416.442c-1.69,0-3.396-0.503-4.89-1.553l-59.29-41.574
		c-3.866-2.697-4.796-8.021-2.091-11.878c2.705-3.849,8.021-4.813,11.887-2.082l59.29,41.574c3.857,2.697,4.796,8.021,2.082,11.878
		C463.731,415.179,461.085,416.442,458.397,416.442"/>
	<path style="fill:#C7CBC7;" d="M407.965,425.301c-1.69,0-3.396-0.503-4.89-1.553c-3.857-2.697-4.796-8.021-2.082-11.878
		l41.574-59.29c2.697-3.857,8.013-4.804,11.878-2.091c3.857,2.705,4.796,8.03,2.082,11.887l-41.574,59.29
		C413.298,424.038,410.653,425.301,407.965,425.301"/>
	<path style="fill:#C7CBC7;" d="M8.523,145.226c-4.028,0-7.612-2.859-8.371-6.955c-0.879-4.625,2.167-9.097,6.801-9.958
		l494.933-93.107c4.634-0.828,9.097,2.176,9.958,6.81c0.879,4.625-2.167,9.097-6.801,9.958L10.11,145.072
		C9.572,145.174,9.052,145.226,8.523,145.226"/>
	<path style="fill:#C7CBC7;" d="M105.406,154.192c-1.69,0-3.396-0.503-4.89-1.553l-59.29-41.566
		c-3.866-2.697-4.796-8.021-2.091-11.878c2.705-3.857,8.021-4.813,11.887-2.082l59.29,41.566c3.857,2.697,4.796,8.021,2.082,11.878
		C110.739,152.929,108.094,154.192,105.406,154.192"/>
	<path style="fill:#C7CBC7;" d="M54.973,163.058c-1.69,0-3.396-0.503-4.89-1.553c-3.857-2.697-4.796-8.021-2.082-11.878
		l41.566-59.29c2.688-3.866,8.013-4.804,11.878-2.091c3.857,2.705,4.796,8.03,2.082,11.887l-41.566,59.29
		C60.306,161.796,57.661,163.058,54.973,163.058"/>
	<path style="fill:#C7CBC7;" d="M281.898,123.184c-1.69,0-3.396-0.503-4.89-1.553l-59.29-41.566
		c-3.857-2.697-4.787-8.021-2.082-11.878c2.705-3.857,8.021-4.813,11.887-2.082l59.281,41.566c3.857,2.697,4.796,8.021,2.082,11.878
		C287.232,121.921,284.586,123.184,281.898,123.184"/>
	<path style="fill:#C7CBC7;" d="M231.473,132.042c-1.69,0-3.396-0.503-4.89-1.553c-3.857-2.697-4.796-8.021-2.082-11.878
		l41.566-59.281c2.697-3.866,8.013-4.804,11.878-2.091c3.857,2.705,4.796,8.03,2.082,11.887l-41.566,59.281
		C236.806,130.779,234.161,132.042,231.473,132.042"/>
	<path style="fill:#C7CBC7;" d="M458.397,92.175c-1.69,0-3.396-0.503-4.89-1.553l-59.29-41.574
		c-3.866-2.697-4.796-8.021-2.091-11.878c2.705-3.849,8.021-4.813,11.887-2.082l59.29,41.574c3.857,2.697,4.796,8.021,2.082,11.878
		C463.731,90.913,461.085,92.175,458.397,92.175"/>
	<path style="fill:#C7CBC7;" d="M407.965,101.034c-1.69,0-3.396-0.503-4.89-1.553c-3.857-2.697-4.796-8.021-2.082-11.878
		l41.574-59.29c2.697-3.866,8.013-4.804,11.878-2.091c3.857,2.705,4.796,8.03,2.082,11.887l-41.574,59.29
		C413.298,99.771,410.653,101.034,407.965,101.034"/>
	<path style="fill:#C7CBC7;" d="M503.473,306.593c-0.529,0-1.05-0.051-1.587-0.154L6.953,213.34
		c-4.634-0.862-7.68-5.333-6.801-9.958c0.862-4.634,5.333-7.663,9.958-6.81l494.933,93.107c4.634,0.862,7.68,5.333,6.801,9.958
		C511.085,303.734,507.501,306.593,503.473,306.593"/>
	<path style="fill:#C7CBC7;" d="M399.123,308.117c-2.688,0-5.333-1.263-6.989-3.635c-2.714-3.857-1.775-9.182,2.082-11.878
		l59.29-41.574c3.866-2.722,9.182-1.775,11.887,2.082c2.705,3.857,1.775,9.182-2.091,11.878l-59.29,41.574
		C402.52,307.614,400.813,308.117,399.123,308.117"/>
	<path style="fill:#C7CBC7;" d="M449.556,316.976c-2.688,0-5.333-1.263-6.989-3.635l-41.574-59.29
		c-2.714-3.857-1.775-9.182,2.082-11.887c3.866-2.722,9.182-1.766,11.878,2.091l41.574,59.29c2.714,3.857,1.775,9.182-2.082,11.878
		C452.952,316.472,451.246,316.976,449.556,316.976"/>
	<path style="fill:#C7CBC7;" d="M222.631,277.1c-2.688,0-5.333-1.263-6.989-3.635c-2.714-3.857-1.775-9.182,2.082-11.878
		l59.281-41.566c3.866-2.722,9.182-1.775,11.887,2.082c2.705,3.857,1.775,9.182-2.082,11.878l-59.29,41.566
		C226.027,276.597,224.32,277.1,222.631,277.1"/>
	<path style="fill:#C7CBC7;" d="M273.056,285.959c-2.688,0-5.333-1.263-6.989-3.635l-41.566-59.281
		c-2.714-3.857-1.775-9.182,2.082-11.887c3.857-2.722,9.182-1.766,11.878,2.091l41.566,59.281c2.714,3.857,1.775,9.182-2.082,11.878
		C276.452,285.455,274.746,285.959,273.056,285.959"/>
	<path style="fill:#C7CBC7;" d="M46.131,246.092c-2.688,0-5.333-1.263-6.989-3.635c-2.714-3.857-1.775-9.182,2.082-11.878
		l59.29-41.566c3.866-2.722,9.182-1.775,11.887,2.082c2.705,3.857,1.775,9.182-2.091,11.878l-59.29,41.566
		C49.527,245.589,47.82,246.092,46.131,246.092"/>
	<path style="fill:#C7CBC7;" d="M96.556,254.951c-2.688,0-5.333-1.263-6.989-3.635l-41.566-59.29
		c-2.714-3.857-1.775-9.182,2.082-11.887c3.866-2.722,9.182-1.766,11.878,2.091l41.566,59.29c2.714,3.857,1.775,9.182-2.082,11.878
		C99.952,254.447,98.246,254.951,96.556,254.951"/>
</g>
</svg>