<?xml version="1.0" encoding="iso-8859-1"?>
<!-- Uploaded to: SVG Repo, www.svgrepo.com, Generator: SVG Repo Mixer Tools -->
<svg fill="#000000" height="800px" width="800px" version="1.1" id="Layer_1" xmlns="http://www.w3.org/2000/svg" xmlns:xlink="http://www.w3.org/1999/xlink" 
	 viewBox="0 0 511.737 511.737" xml:space="preserve">
<g>
	<g>
		<path d="M362.535,0h-43.733c-22.965,0-41.6,18.622-41.6,41.6v1.054h-42.667V41.6c0-22.978-18.635-41.6-41.6-41.6h-43.733
			c-23.556,0-42.667,19.085-42.667,42.645v52.608c0,11.915,3.818,23.53,10.905,33.107l53.095,72.04v76.993c0,0.027,0,0.053,0,0.08
			v30.353c0,47.799,8.918,100.304,25.516,158.726c17.115,60.244,102.498,60.244,119.613,0
			c16.606-58.365,25.537-110.921,25.537-158.726v-30.354c0-0.026,0-0.052,0-0.077v-76.995l53.12-72.074
			c7.062-9.543,10.88-21.158,10.88-33.073V42.645C405.202,19.085,386.091,0,362.535,0z M277.202,85.321v92.13v0.008
			c0,0.003,0,0.006,0,0.009c0,0.96,0.037,1.905,0.105,2.836c0,0,0,0,0,0c1.044,14.277,9.87,25.051,21.228,30.148v54.908
			c-28.844,15.935-56.49,15.935-85.333,0v-54.908c11.357-5.097,20.184-15.871,21.228-30.148c0,0,0,0,0,0
			c0.068-0.931,0.105-1.876,0.105-2.836c0-0.003,0-0.006,0-0.009v-0.008v-92.13H277.202z M149.202,95.253V42.667h42.667v21.32
			v93.443l-40.107-54.418C150.094,100.759,149.202,98.044,149.202,95.253z M237.094,454.893
			c-15.086-53.1-23.308-100.443-23.84-142.702c28.284,10.387,56.946,10.387,85.23,0c-0.533,42.264-8.766,89.646-23.859,142.694
			C269.252,473.795,242.464,473.795,237.094,454.893z M362.535,95.253c0,2.791-0.892,5.506-2.535,7.725l-40.132,54.452V63.987
			v-21.32h42.667V95.253z"/>
	</g>
</g>
</svg>