<?xml version="1.0" encoding="iso-8859-1"?>
<!-- Uploaded to: SVG Repo, www.svgrepo.com, Generator: SVG Repo Mixer Tools -->
<svg height="800px" width="800px" version="1.1" id="Layer_1" xmlns="http://www.w3.org/2000/svg" xmlns:xlink="http://www.w3.org/1999/xlink" 
	 viewBox="0 0 503.321 503.321" xml:space="preserve">
<g>
	<path style="fill:#D8D8D8;" d="M269.017,89.972v74.908c0,9.589-7.767,17.356-17.356,17.356c-9.589,0-17.356-7.767-17.356-17.356
		V89.972c-50.376,63.861-78.102,142.996-78.102,224.855v93.036c0,52.719,42.739,95.458,95.458,95.458s95.458-42.739,95.458-95.458
		v-93.036C347.118,232.968,319.392,153.833,269.017,89.972"/>
	<g>
		<path style="fill:#ACB3B7;" d="M251.661,182.237L251.661,182.237c-9.589,0-17.356-7.767-17.356-17.356V0h34.712v164.881
			C269.017,174.471,261.25,182.237,251.661,182.237"/>
		<path style="fill:#ACB3B7;" d="M364.474,8.678L269.017,43.39v46.531c17.712,22.485,32.62,46.852,44.509,72.565l68.304-49.673
			L364.474,8.678z"/>
		<path style="fill:#ACB3B7;" d="M234.305,43.39L234.305,43.39L138.847,8.678l-17.356,104.136l68.304,49.673
			c11.889-25.721,26.798-50.081,44.509-72.565V43.39z"/>
		<path style="fill:#ACB3B7;" d="M156.203,390.508v14.189c0,52.562,41.116,97.644,93.67,98.608
			c53.534,0.981,97.245-42.123,97.245-95.44v-17.356l-1.71,0.625c-60.564,22.016-126.933,22.016-187.496,0L156.203,390.508z"/>
		<path style="fill:#ACB3B7;" d="M175.017,208.271h41.932c4.79,0,8.678-3.879,8.678-8.678c0-4.799-3.888-8.678-8.678-8.678h-38.825
			c-2.022,5.563-3.94,11.169-5.693,16.835C173.264,208.011,174.097,208.271,175.017,208.271"/>
		<path style="fill:#ACB3B7;" d="M165.266,242.983h34.33c4.79,0,8.678-3.879,8.678-8.678s-3.888-8.678-8.678-8.678h-32.221
			c-1.423,5.632-2.69,11.299-3.853,17C164.103,242.757,164.65,242.983,165.266,242.983"/>
	</g>
</g>
</svg>