<?xml version="1.0" encoding="iso-8859-1"?>
<!-- Uploaded to: SVG Repo, www.svgrepo.com, Generator: SVG Repo Mixer Tools -->
<svg fill="#000000" height="800px" width="800px" version="1.1" id="Layer_1" xmlns="http://www.w3.org/2000/svg" xmlns:xlink="http://www.w3.org/1999/xlink" 
	 viewBox="0 0 512 512" xml:space="preserve">
<g transform="translate(1 1)">
	<g>
		<path d="M346.307,67.267H331.8v-8.533c0-13.653-11.093-25.6-25.6-25.6h-25.6V18.627C280.6,7.533,272.067-1,261.827-1h-12.8
			C237.933-1,229.4,7.533,229.4,18.627v15.36h-25.6c-13.653,0-25.6,11.093-25.6,25.6v7.68h-14.507
			c-20.48,0-36.693,17.067-36.693,36.693v34.987c0,11.947,5.12,22.187,14.507,29.013l36.693,29.667v143.56v5.12
			c0,53.76,17.067,105.813,48.64,149.333l1.707,1.707C234.52,505.88,243.907,511,255,511s20.48-4.267,27.307-13.653l1.707-1.707
			c31.573-43.52,48.64-95.573,48.64-149.333v-5.12c0-1.433-0.315-2.706-0.853-3.838V199.17l37.547-30.357
			C377.88,161.987,383,150.893,383,139.8v-34.987C383,84.333,366.787,67.267,346.307,67.267z M246.467,18.627
			c0-0.853,0.853-2.56,2.56-2.56h11.947c1.707,0,2.56,1.707,2.56,2.56v23.04v88.747c0,13.653-2.56,27.307-8.533,39.253
			c-5.973-12.8-8.533-25.6-8.533-39.253V42.52V18.627z M195.267,58.733c0-4.267,3.413-8.533,8.533-8.533h25.6v80.213
			c0,22.187,5.973,43.52,17.92,62.293c3.413,5.12,11.093,5.12,14.507,0c11.947-18.773,18.773-39.253,18.773-61.44v-0.853v-79.36
			h25.6c4.267,0,8.533,3.413,8.533,8.533V75.8v117.76v142.064c-37.378,18.351-82.203,18.221-119.467-0.411v-88.747h17.067
			c5.12,0,8.533-3.413,8.533-8.533s-3.413-8.533-8.533-8.533h-17.067v-17.067h25.6c5.12,0,8.533-3.413,8.533-8.533
			c0-5.12-3.413-8.533-8.533-8.533h-25.6v-1.707V75.8V58.733z M151.747,155.16c-5.12-3.413-7.68-9.387-7.68-15.36v-34.987
			c0-11.093,8.533-20.48,19.627-20.48H178.2v92.16L151.747,155.16z M242.2,487.107l-1.707-1.707
			c-28.163-38.624-43.421-84.077-45.07-131.35c38.309,16.126,80.849,16.126,119.158-0.002
			C312.954,402,297.695,446.741,269.507,485.4l-1.707,1.707c-2.56,4.267-7.68,6.827-12.8,6.827S245.613,491.373,242.2,487.107z
			 M365.933,138.947c0,5.973-2.56,11.947-7.68,15.36L331.8,175.64V84.333c0,0,14.507,0,14.507,0
			c11.093,0,19.627,8.533,19.627,19.627V138.947z"/>
	</g>
</g>
</svg>