<?xml version="1.0" encoding="iso-8859-1"?>
<!-- Uploaded to: SVG Repo, www.svgrepo.com, Generator: SVG Repo Mixer Tools -->
<svg height="800px" width="800px" version="1.1" id="Layer_1" xmlns="http://www.w3.org/2000/svg" xmlns:xlink="http://www.w3.org/1999/xlink" 
	 viewBox="0 0 512.002 512.002" xml:space="preserve">
<g>
	<g>
		<path style="fill:#ACB3B7;" d="M256.001,185.379L256.001,185.379c-11.511-17.267-17.655-37.561-17.655-58.315V11.123
			C238.346,4.979,243.325,0,249.469,0h13.065c6.144,0,11.123,4.979,11.123,11.123v115.942
			C273.656,147.818,267.512,168.113,256.001,185.379"/>
		<path style="fill:#ACB3B7;" d="M185.38,70.621h-23.517c-16.26,0-29.449,13.188-29.449,29.449v35.849
			c0,8.942,4.07,17.408,11.052,22.996l41.913,33.527V70.621z"/>
		<path style="fill:#ACB3B7;" d="M350.138,70.621h-23.517v121.821l41.913-33.527c6.983-5.588,11.052-14.054,11.052-22.996V100.07
			C379.587,83.809,366.399,70.621,350.138,70.621"/>
	</g>
	<path style="fill:#D8D8D8;" d="M308.773,35.31h-35.116v91.754c0,20.754-6.144,41.048-17.655,58.315
		c-11.511-17.267-17.655-37.561-17.655-58.315V35.31h-35.116c-9.86,0-17.849,7.989-17.849,17.849v296.801
		c0,53.769,17.037,106.152,48.658,149.636l1.412,1.942c10.143,13.948,30.95,13.948,41.101,0l1.412-1.942
		c31.62-43.485,48.658-95.868,48.658-149.636V53.16C326.623,43.299,318.634,35.31,308.773,35.31"/>
	<g>
		<path style="fill:#ACB3B7;" d="M185.38,344.413v5.544c0,53.769,17.037,106.152,48.658,149.636l1.412,1.942
			c10.152,13.956,30.95,13.956,41.101,0l1.412-1.942c31.62-43.485,48.658-95.868,48.658-149.636v-5.544l-4.228,2.11
			c-41.799,20.904-90.986,20.904-132.785,0L185.38,344.413z"/>
		<path style="fill:#ACB3B7;" d="M220.691,211.862c4.873,0,8.828-3.946,8.828-8.828c0-4.882-3.955-8.828-8.828-8.828h-35.31v17.655
			H220.691z"/>
		<path style="fill:#ACB3B7;" d="M211.863,247.172c4.873,0,8.828-3.946,8.828-8.828c0-4.882-3.955-8.828-8.828-8.828H185.38v17.655
			H211.863z"/>
	</g>
</g>
</svg>