<?xml version="1.0" encoding="iso-8859-1"?>
<!-- Uploaded to: SVG Repo, www.svgrepo.com, Generator: SVG Repo Mixer Tools -->
<svg fill="#000000" height="800px" width="800px" version="1.1" id="Layer_1" xmlns="http://www.w3.org/2000/svg" xmlns:xlink="http://www.w3.org/1999/xlink" 
	 viewBox="0 0 512.041 512.041" xml:space="preserve">
<g>
	<g>
		<g>
			<path d="M324.287,0h-34.133c-9.412,0-17.067,7.654-17.067,17.067h-34.133C238.954,7.654,231.299,0,221.887,0h-34.133
				c-9.412,0-17.067,7.654-17.067,17.067v76.8c0,5.717,2.842,11.025,7.603,14.199l26.53,17.69V153.6h42.667
				c4.71,0,8.533,3.814,8.533,8.533c0,4.719-3.823,8.533-8.533,8.533H204.82v17.067h34.133c4.71,0,8.533,3.814,8.533,8.533
				s-3.823,8.533-8.533,8.533H204.82v67.994l19.166,14.925c18.893,15.112,45.167,15.112,63.983,0.068l19.251-15.846V125.756
				l26.53-17.69c4.762-3.174,7.603-8.482,7.603-14.199v-76.8C341.354,7.654,333.699,0,324.287,0z M221.887,25.6v91.025
				l-34.133-22.758v-76.8h34.133V25.6z M324.287,93.867l-34.133,22.758V25.6v-8.533h34.133V93.867z"/>
			<path d="M255.992,316.158c-15.027,0-30.046-5.018-42.573-15.044l-8.602-6.69v16.427c0,59.631,7.006,119.287,20.821,177.306
				c3.396,14.285,15.607,23.885,30.379,23.885s26.991-9.6,30.387-23.885c13.815-58.018,20.813-117.675,20.813-177.306v-16.802
				l-8.499,6.997C286.114,311.115,271.044,316.158,255.992,316.158z"/>
		</g>
	</g>
</g>
</svg>