<?xml version="1.0" encoding="iso-8859-1"?>
<!-- Uploaded to: SVG Repo, www.svgrepo.com, Generator: SVG Repo Mixer Tools -->
<svg fill="#000000" height="800px" width="800px" version="1.1" id="Layer_1" xmlns="http://www.w3.org/2000/svg" xmlns:xlink="http://www.w3.org/1999/xlink" 
	 viewBox="0 0 512.009 512.009" xml:space="preserve">
<g>
	<g>
		<path d="M383.368,101.502l-21.333-85.333c-3.098-12.392-16.318-19.302-28.261-14.773l-56.435,21.403v-1.456
			c0-11.782-9.551-21.333-21.333-21.333c-11.782,0-21.333,9.551-21.333,21.333v1.456L178.236,1.395
			c-11.943-4.529-25.163,2.381-28.261,14.773l-21.333,85.333c-1.974,7.896,0.717,16.227,6.936,21.476l43.945,37.093
			c-20.012,47.621-30.185,102.536-30.185,159.085v59.17v25.493v0.009c0,15.362,3.168,29.982,8.87,43.229
			c4.331,10.064,10.122,19.336,17.113,27.53c19.546,22.91,48.423,37.422,80.684,37.422s61.138-14.513,80.684-37.422
			c6.991-8.194,12.781-17.466,17.113-27.53c5.702-13.247,8.87-27.867,8.87-43.229v-0.009v-23.893v-60.77
			c0-56.548-10.173-111.463-30.185-159.085l43.945-37.093C382.651,117.728,385.341,109.397,383.368,101.502z M279.356,148.335
			c0.599,1.065,1.19,2.138,1.776,3.215c0.302,0.554,0.605,1.106,0.903,1.664c0.667,1.248,1.323,2.507,1.973,3.771
			c0.2,0.388,0.403,0.771,0.601,1.161c23.255,45.777,35.394,102.206,35.394,161.01v48.268c-43.056,22.269-87.059,21.899-128-1.086
			v-47.182c0-58.804,12.139-115.233,35.394-161.01c0.198-0.39,0.402-0.773,0.601-1.161c0.65-1.264,1.306-2.523,1.973-3.771
			c0.298-0.558,0.602-1.11,0.903-1.664c0.586-1.078,1.177-2.151,1.776-3.215c0.338-0.6,0.679-1.196,1.02-1.792
			c0.329-0.574,0.665-1.142,0.998-1.712v25.845c0,11.782,9.551,21.333,21.333,21.333c11.782,0,21.333-9.551,21.333-21.333v-25.845
			c0.333,0.57,0.669,1.138,0.998,1.712C278.678,147.139,279.019,147.735,279.356,148.335z M249.972,469.044
			c-0.692-0.066-1.378-0.154-2.064-0.242c-0.327-0.042-0.656-0.08-0.981-0.128c-0.647-0.094-1.288-0.204-1.929-0.318
			c-0.357-0.063-0.714-0.126-1.069-0.195c-0.617-0.121-1.229-0.253-1.839-0.392c-0.372-0.085-0.744-0.172-1.114-0.263
			c-0.593-0.146-1.183-0.3-1.77-0.463c-0.378-0.105-0.753-0.216-1.129-0.328c-0.574-0.171-1.147-0.346-1.714-0.533
			c-0.379-0.125-0.753-0.259-1.129-0.391c-0.557-0.196-1.115-0.392-1.665-0.603c-0.375-0.144-0.744-0.299-1.115-0.45
			c-0.543-0.22-1.087-0.437-1.623-0.672c-0.362-0.159-0.717-0.331-1.075-0.497c-1.368-0.63-2.716-1.297-4.031-2.021
			c-0.019-0.011-0.039-0.02-0.058-0.03c-0.433-0.239-0.855-0.497-1.283-0.746c-0.43-0.251-0.863-0.496-1.287-0.756
			c-0.409-0.251-0.808-0.516-1.21-0.777c-0.43-0.278-0.862-0.554-1.286-0.843c-0.39-0.266-0.772-0.542-1.156-0.816
			c-0.424-0.302-0.847-0.605-1.263-0.918c-0.371-0.279-0.736-0.565-1.101-0.851c-0.417-0.328-0.832-0.659-1.241-0.996
			c-0.351-0.29-0.697-0.583-1.042-0.88c-0.412-0.355-0.818-0.715-1.221-1.081c-0.327-0.297-0.653-0.595-0.975-0.899
			c-0.41-0.387-0.812-0.783-1.212-1.181c-0.3-0.299-0.601-0.596-0.895-0.9c-0.414-0.428-0.817-0.867-1.22-1.307
			c-0.265-0.29-0.535-0.576-0.795-0.872c-0.441-0.5-0.869-1.014-1.295-1.528c-0.206-0.249-0.419-0.492-0.622-0.744
			c-1.246-1.549-2.423-3.157-3.528-4.821c-0.175-0.263-0.338-0.534-0.509-0.8c-0.369-0.574-0.737-1.149-1.089-1.736
			c-0.198-0.33-0.386-0.667-0.579-1.001c-0.308-0.534-0.615-1.07-0.908-1.614c-0.197-0.364-0.385-0.734-0.575-1.102
			c-0.271-0.527-0.539-1.055-0.797-1.59c-0.186-0.387-0.367-0.777-0.546-1.168c-0.243-0.53-0.479-1.064-0.708-1.602
			c-0.171-0.401-0.339-0.804-0.502-1.209c-0.218-0.542-0.427-1.089-0.632-1.638c-0.152-0.409-0.305-0.819-0.45-1.232
			c-0.197-0.562-0.38-1.13-0.562-1.698c-0.131-0.409-0.265-0.815-0.388-1.227c-0.179-0.601-0.342-1.21-0.505-1.818
			c-0.104-0.388-0.215-0.773-0.312-1.163c-0.177-0.712-0.332-1.432-0.486-2.152c-0.063-0.295-0.136-0.586-0.195-0.883
			c-0.196-0.986-0.369-1.98-0.521-2.982c40.93,16.562,84.298,16.709,126.367,0.552c-0.084,0.521-0.176,1.039-0.272,1.555
			c-0.071,0.383-0.133,0.77-0.211,1.15c-0.168,0.825-0.357,1.642-0.555,2.456c-0.045,0.186-0.082,0.376-0.129,0.562
			c-0.25,0.991-0.524,1.972-0.818,2.945c-0.097,0.322-0.208,0.638-0.31,0.957c-0.209,0.654-0.419,1.308-0.647,1.953
			c-0.133,0.377-0.278,0.747-0.418,1.12c-0.217,0.58-0.435,1.159-0.667,1.73c-0.158,0.388-0.325,0.772-0.49,1.157
			c-0.235,0.547-0.473,1.093-0.722,1.632c-0.178,0.385-0.361,0.768-0.546,1.149c-0.257,0.53-0.521,1.057-0.792,1.579
			c-0.194,0.373-0.389,0.745-0.59,1.114c-0.284,0.522-0.576,1.039-0.874,1.552c-0.205,0.354-0.409,0.709-0.621,1.059
			c-0.318,0.526-0.647,1.043-0.978,1.559c-0.208,0.324-0.412,0.65-0.625,0.97c-0.372,0.557-0.758,1.103-1.146,1.647
			c-0.189,0.265-0.371,0.535-0.564,0.797c-0.539,0.732-1.093,1.451-1.66,2.159c-0.053,0.066-0.103,0.135-0.156,0.201
			c-0.622,0.77-1.263,1.523-1.918,2.263c-0.212,0.239-0.434,0.469-0.65,0.706c-0.449,0.492-0.9,0.983-1.363,1.461
			c-0.277,0.285-0.563,0.562-0.845,0.842c-0.416,0.414-0.833,0.826-1.26,1.228c-0.314,0.295-0.634,0.583-0.953,0.872
			c-0.41,0.37-0.822,0.738-1.24,1.098c-0.341,0.293-0.686,0.581-1.034,0.866c-0.411,0.338-0.826,0.672-1.245,1
			c-0.365,0.285-0.731,0.568-1.102,0.845c-0.415,0.311-0.835,0.614-1.258,0.914c-0.385,0.274-0.77,0.548-1.161,0.813
			c-0.42,0.285-0.848,0.56-1.275,0.836c-0.405,0.261-0.808,0.525-1.219,0.777c-0.42,0.257-0.848,0.501-1.275,0.749
			c-0.43,0.25-0.857,0.506-1.293,0.746c-0.394,0.217-0.798,0.418-1.197,0.627c-0.995,0.52-2.004,1.015-3.028,1.482
			c-0.31,0.141-0.615,0.292-0.927,0.428c-0.542,0.237-1.094,0.454-1.643,0.676c-0.364,0.147-0.725,0.3-1.091,0.44
			c-0.55,0.21-1.108,0.404-1.666,0.599c-0.374,0.131-0.746,0.265-1.123,0.389c-0.566,0.186-1.137,0.359-1.709,0.529
			c-0.375,0.112-0.75,0.223-1.128,0.327c-0.584,0.162-1.172,0.313-1.762,0.458c-0.372,0.091-0.744,0.179-1.118,0.264
			c-0.605,0.137-1.212,0.267-1.822,0.386c-0.361,0.07-0.725,0.134-1.088,0.199c-0.632,0.112-1.265,0.22-1.903,0.312
			c-0.335,0.049-0.672,0.088-1.008,0.131c-0.673,0.087-1.347,0.172-2.027,0.237c-0.264,0.025-0.532,0.04-0.797,0.062
			c-1.722,0.143-3.461,0.227-5.218,0.227c-1.783,0-3.546-0.086-5.292-0.233C250.466,469.081,250.218,469.067,249.972,469.044z
			 M199.243,120.882L173.259,98.95l12.288-49.15l49.125,18.63v16.912c-0.993,0-1.975,0.077-2.945,0.213
			c-0.422,0.059-0.841,0.13-1.257,0.214c-0.53,0.106-1.055,0.23-1.573,0.376c-0.082,0.023-0.165,0.041-0.246,0.065
			c-0.159,0.047-0.314,0.103-0.471,0.153c-0.226,0.072-0.454,0.141-0.678,0.22c-0.07,0.025-0.137,0.055-0.207,0.081
			c-0.308,0.114-0.615,0.229-0.917,0.357c-0.567,0.239-1.119,0.51-1.663,0.797c-0.167,0.088-0.336,0.171-0.501,0.263
			c-0.525,0.295-1.034,0.62-1.533,0.96c-0.5,0.34-0.99,0.694-1.461,1.076c-0.547,0.445-1.07,0.923-1.574,1.423
			c-0.074,0.073-0.151,0.142-0.224,0.216c-0.177,0.181-0.345,0.371-0.516,0.559c-0.104,0.115-0.213,0.224-0.315,0.341
			c-0.168,0.192-0.326,0.394-0.488,0.593c-0.098,0.12-0.2,0.236-0.295,0.359c0,0,0,0,0,0.001c0,0,0,0,0,0.001
			c-0.003,0.004-0.006,0.007-0.008,0.011c-1.552,2.002-3.072,4.038-4.571,6.094c-0.471,0.646-0.93,1.306-1.397,1.958
			c-1.029,1.438-2.051,2.884-3.056,4.347c-0.523,0.763-1.038,1.533-1.555,2.303c-0.943,1.404-1.875,2.818-2.795,4.243
			c-0.499,0.773-0.995,1.548-1.487,2.328c-0.963,1.525-1.909,3.064-2.846,4.612C199.813,119.968,199.52,120.417,199.243,120.882z
			 M312.766,120.882c-0.278-0.465-0.57-0.914-0.85-1.377c-0.937-1.549-1.884-3.088-2.846-4.612c-0.492-0.78-0.989-1.555-1.487-2.328
			c-0.919-1.425-1.851-2.837-2.793-4.24c-0.518-0.771-1.034-1.544-1.558-2.308c-1.003-1.462-2.025-2.906-3.053-4.344
			c-0.467-0.652-0.926-1.312-1.398-1.959c-1.5-2.056-3.02-4.092-4.571-6.094c-0.003-0.004-0.006-0.007-0.008-0.011c0,0,0,0,0-0.001
			c0,0,0,0,0-0.001c-0.095-0.123-0.197-0.238-0.295-0.359c-0.161-0.199-0.32-0.401-0.488-0.593
			c-0.102-0.117-0.211-0.227-0.315-0.341c-0.171-0.188-0.339-0.378-0.516-0.559c-0.049-0.05-0.102-0.097-0.152-0.146
			c-0.792-0.793-1.639-1.521-2.536-2.174c-0.15-0.109-0.305-0.212-0.458-0.318c-0.535-0.369-1.081-0.719-1.646-1.037
			c-0.121-0.068-0.246-0.128-0.369-0.194c-0.586-0.315-1.182-0.608-1.795-0.867c-0.066-0.028-0.135-0.051-0.201-0.078
			c-0.305-0.125-0.612-0.248-0.923-0.359c-0.041-0.015-0.083-0.026-0.124-0.04c-1.099-0.384-2.23-0.683-3.385-0.884
			c-0.155-0.027-0.313-0.044-0.469-0.068c-1.049-0.159-2.114-0.248-3.191-0.248V68.43l49.125-18.63l12.288,49.15L312.766,120.882z"
			/>
	</g>
</g>
</svg>