<?xml version="1.0" encoding="iso-8859-1"?>
<!-- Uploaded to: SVG Repo, www.svgrepo.com, Generator: SVG Repo Mixer Tools -->
<svg fill="#000000" height="800px" width="800px" version="1.1" id="Layer_1" xmlns="http://www.w3.org/2000/svg" xmlns:xlink="http://www.w3.org/1999/xlink" 
	 viewBox="0 0 503.607 503.607" xml:space="preserve">
<g transform="translate(1 1)">
	<g>
		<path d="M385.098,114.83L368.311,14.108c0-2.518-1.679-5.036-4.197-5.875s-5.036-0.839-7.554,0l-72.184,31.99V7.393
			c0-5.036-3.357-8.393-8.393-8.393h-50.361c-5.036,0-8.393,3.357-8.393,8.393v32.83l-72.184-31.99
			c-2.518-0.839-5.036-0.839-7.554,0c-2.518,0.839-3.357,3.357-4.197,5.875L116.508,114.83c-0.839,3.357,0.839,6.715,3.357,8.393
			l30.369,22.221c-0.091,1.535-0.152,3.079-0.152,4.638v235.016v14.269c0,56.236,44.485,102.4,99.043,103.239c0,0,0.839,0,1.679,0
			s1.676-0.01,2.511-0.029c25.865-0.608,49.293-10.62,67.994-28.508c19.305-19.305,30.216-45.325,30.216-72.184V150.082
			c0-1.559-0.061-3.103-0.152-4.638l30.369-22.221C384.259,121.544,385.938,118.187,385.098,114.83z M183.656,217.229h-16.787
			v-16.787h25.18c5.036,0,8.393-3.357,8.393-8.393s-3.357-8.393-8.393-8.393h-25.18v-33.574c0-1.595,0.076-3.171,0.202-4.734
			c0.399-0.846,0.637-1.793,0.637-2.821c0.91-7.963,3.435-15.364,7.201-21.932c8.845-15.004,24.229-25.768,42.321-28.428v66.308
			c0,18.466,15.108,33.574,33.574,33.574s33.574-15.108,33.574-33.574V92.167c8.887,1.307,17.122,4.569,24.25,9.327
			c13.637,9.292,23.283,24.132,25.271,41.034c0,1.027,0.238,1.975,0.637,2.821c0.126,1.563,0.202,3.139,0.202,4.734v229.173
			c-54.426,18.866-113.397,18.963-167.869,0.29V234.016h16.787c5.036,0,8.393-3.357,8.393-8.393
			C192.049,220.587,188.692,217.229,183.656,217.229z M234.016,15.787h33.574v33.574v33.574v75.541
			c0,9.233-7.554,16.787-16.787,16.787c-9.233,0-16.787-7.554-16.787-16.787V82.934V49.361V15.787z M153.439,127.42l-19.305-14.269
			l14.269-84.774l65.469,28.538c0.839,0.839,2.518,0.839,3.357,0.839v17.253c-29.296,3.187-53.356,22.867-62.817,49.673
			C154.073,125.586,153.746,126.499,153.439,127.42z M249.125,485.82c-4.249-0.079-8.425-0.497-12.503-1.229
			c-2.719-0.488-5.394-1.115-8.02-1.874c-5.251-1.518-10.3-3.564-15.094-6.077c-4.793-2.513-9.33-5.492-13.554-8.878
			c-4.224-3.386-8.136-7.177-11.681-11.314s-6.72-8.62-9.472-13.387c-0.688-1.192-1.35-2.402-1.984-3.628
			c-4.44-8.586-7.539-17.997-8.999-27.91c-0.209-1.416-0.384-2.842-0.524-4.278c-0.282-2.871-0.426-5.779-0.426-8.717v-1.679
			c54.557,18.466,113.312,18.466,167.869,0v5.036c0,22.662-9.233,43.646-25.18,59.593C293.61,477.426,271.787,485.82,249.125,485.82
			z M348.167,127.42c-0.302-0.905-0.622-1.802-0.958-2.692c-9.449-26.83-33.519-46.531-62.833-49.72V57.754c0.839,0,2.518,0,3.357,0
			l65.469-29.377l14.269,84.774L348.167,127.42z"/>
	</g>
</g>
</svg>