<?xml version="1.0" encoding="iso-8859-1"?>
<!-- Uploaded to: SVG Repo, www.svgrepo.com, Generator: SVG Repo Mixer Tools -->
<svg fill="#000000" height="800px" width="800px" version="1.1" id="Layer_1" xmlns="http://www.w3.org/2000/svg" xmlns:xlink="http://www.w3.org/1999/xlink" 
	 viewBox="0 0 512.093 512.093" xml:space="preserve">
<g>
	<g>
		<g>
			<path d="M383.995,84.395l-8.533-76.8c-0.282-2.517-1.664-4.779-3.772-6.178c-2.108-1.391-4.753-1.783-7.159-1.058L290.18,22.665
				v-5.598C290.18,7.663,282.517,0,273.113,0H238.98c-9.412,0-17.067,7.663-17.067,17.067v5.598L147.562,0.358
				c-2.406-0.725-5.052-0.333-7.159,1.058c-2.108,1.399-3.49,3.661-3.772,6.178l-8.533,76.8c-0.341,3.072,1.007,6.093,3.524,7.885
				l56.917,40.661c2.185,41.779,9.472,83.021,21.811,123.059h91.392c12.331-40.038,19.627-81.28,21.803-123.059l56.926-40.661
				C382.988,90.487,384.337,87.467,383.995,84.395z M221.913,51.2h-25.6c-4.719,0-8.533,3.823-8.533,8.533v47.053
				c0,1.553,0.009,3.098,0.026,4.651l-42.189-30.131l6.844-61.653l69.453,20.838V51.2z M273.113,34.133v25.6v51.183
				c0,14.686-4.847,29.244-13.662,40.994c-1.118,1.485-2.611,1.698-3.405,1.698c-0.794,0-2.295-0.213-3.405-1.698
				c-8.815-11.75-13.662-26.308-13.662-40.994V59.733v-25.6V17.067h34.133V34.133z M324.288,111.437
				c0.017-1.553,0.026-3.098,0.026-4.651V59.733c0-4.71-3.814-8.533-8.533-8.533h-25.6V40.491l69.453-20.838l6.844,61.653
				L324.288,111.437z"/>
			<path d="M213.38,437.162c0,24.141,8.73,47.812,24.593,66.637c4.446,5.274,11.042,8.294,18.074,8.294
				c7.031,0,13.628-3.021,18.074-8.294c15.863-18.825,24.593-42.496,24.593-66.637V273.074H213.38V437.162z"/>
		</g>
	</g>
</g>
</svg>