<?xml version="1.0" encoding="iso-8859-1"?>
<!-- Uploaded to: SVG Repo, www.svgrepo.com, Generator: SVG Repo Mixer Tools -->
<svg fill="#000000" height="800px" width="800px" version="1.1" id="Layer_1" xmlns="http://www.w3.org/2000/svg" xmlns:xlink="http://www.w3.org/1999/xlink" 
	 viewBox="0 0 512.342 512.342" xml:space="preserve">
<g transform="translate(-1)">
	<g>
		<path d="M405.878,101.497l-21.333-85.333C381.751,4.99,370.593-1.949,359.336,0.487L278.224,18.04
			c-1.589-10.212-10.395-18.036-21.053-18.036c-10.658,0-19.464,7.824-21.053,18.036L155.006,0.487
			c-11.257-2.436-22.415,4.503-25.209,15.677l-21.333,85.333c-2.352,9.41,1.939,19.222,10.445,23.883l32.48,17.797
			c-0.091,1.609-0.149,3.227-0.149,4.859v78.293c0,83.92,20.166,166.607,58.8,241.116l12.284,23.715
			c14.68,28.238,55.014,28.238,69.679,0.028l8.954-17.288c41.8-80.608,63.617-170.077,63.617-260.883v-64.981
			c0-1.895-0.085-3.769-0.208-5.633l31.067-17.023C403.939,120.719,408.23,110.906,405.878,101.497z M319.443,137.05
			c0.482,1.762,1.171,3.398,2.022,4.904c0.288,1.985,0.442,4.015,0.442,6.082v64.981c0,45.805-6.017,91.239-17.749,135.18
			c-32.085,19.407-62.556,19.269-94.664-0.419c-10.31-39.516-15.587-80.32-15.587-121.449v-78.293
			c0-22.895,18.279-41.365,40.725-41.365h1.205v85.333c0,11.782,9.551,21.333,21.333,21.333c11.782,0,21.333-9.551,21.333-21.333
			v-85.333h1.931C298.69,106.671,314.545,119.158,319.443,137.05z M166.178,46.559l69.658,15.074l0.001,2.336l0,0.035h-1.205h-0.725
			c-28.682,0-54.332,14.774-69.346,37.738l-10.711-5.869L166.178,46.559z M263.075,454.269l-5.904,11.4l-9.249-17.856
			c-7.846-15.132-14.859-30.631-21.03-46.427c19.925,5.176,39.983,5.237,59.911,0.172
			C279.883,419.504,271.975,437.105,263.075,454.269z M283.387,64.06c-0.309-0.011-0.62-0.016-0.93-0.024
			c-0.426-0.006-0.847-0.033-1.275-0.033h-0.747h-1.931l0-0.035l0.001-2.336l69.658-15.074l12.329,49.314l-9.982,5.469
			C335.938,79.416,311.392,64.795,283.387,64.06z"/>
	</g>
</g>
</svg>