<?xml version="1.0" encoding="iso-8859-1"?>
<!-- Uploaded to: SVG Repo, www.svgrepo.com, Generator: SVG Repo Mixer Tools -->
<svg height="800px" width="800px" version="1.1" id="Layer_1" xmlns="http://www.w3.org/2000/svg" xmlns:xlink="http://www.w3.org/1999/xlink" 
	 viewBox="0 0 503.321 503.321" xml:space="preserve">
<g>
	<path style="fill:#ACB3B7;" d="M251.661,182.237L251.661,182.237c-14.379,0-26.034-11.655-26.034-26.034V0h52.068v156.203
		C277.694,170.583,266.04,182.237,251.661,182.237"/>
	<g>
		<path style="fill:#858E93;" d="M364.474,8.678L286.372,43.39h-8.678v34.712l0,0c35.285,0,64.356,26.346,68.773,60.433
			l35.363-25.721L364.474,8.678z"/>
		<path style="fill:#858E93;" d="M225.627,43.39h-8.678L138.847,8.678l-17.356,104.136l35.363,25.713
			c4.417-34.078,33.488-60.425,68.773-60.425l0,0V43.39z"/>
	</g>
	<path style="fill:#D8D8D8;" d="M277.695,78.102L277.695,78.102v78.102c0,14.379-11.655,26.034-26.034,26.034l0,0
		c-14.379,0-26.034-11.655-26.034-26.034V78.102l0,0c-38.339,0-69.424,31.084-69.424,69.424v257.172
		c0,52.562,41.116,97.644,93.67,98.608c53.534,0.981,97.245-42.123,97.245-95.44V147.525
		C347.119,109.186,316.035,78.102,277.695,78.102"/>
	<g>
		<path style="fill:#ACB3B7;" d="M156.203,390.508v14.189c0,52.562,41.116,97.644,93.67,98.608
			c53.534,0.981,97.245-42.123,97.245-95.44v-17.356l-2.881,1.05c-59.8,21.747-125.353,21.747-185.153,0L156.203,390.508z"/>
		<path style="fill:#ACB3B7;" d="M156.203,234.305h26.034v-17.356h-26.034V234.305z"/>
		<path style="fill:#ACB3B7;" d="M156.203,199.593h34.712v-17.356h-34.712V199.593z"/>
	</g>
</g>
</svg>