<?xml version="1.0" encoding="iso-8859-1"?>
<!-- Uploaded to: SVG Repo, www.svgrepo.com, Generator: SVG Repo Mixer Tools -->
<svg fill="#000000" height="800px" width="800px" version="1.1" id="Layer_1" xmlns="http://www.w3.org/2000/svg" xmlns:xlink="http://www.w3.org/1999/xlink" 
	 viewBox="0 0 512.005 512.005" xml:space="preserve">
<g>
	<g>
		<path d="M447.366,101.498l-21.333-85.333c-2.907-11.629-14.821-18.58-26.375-15.389l-74.461,20.564h-5.194
			c-11.782,0-21.333,9.551-21.333,21.333h-21.333V21.339c0-11.782-9.551-21.333-21.333-21.333c-11.782,0-21.333,9.551-21.333,21.333
			v21.333h-21.333c0-11.782-9.551-21.333-21.333-21.333h-5.194L112.348,0.776C100.794-2.415,88.88,4.536,85.973,16.165
			l-21.333,85.333c-2.277,9.109,1.669,18.636,9.72,23.467l98.763,59.258c2.978,36.102,8.974,66.251,19.596,96.745v150.429
			c0,26.47,12.944,51.491,35.758,70.84c15.369,13.021,41.115,13.021,56.475,0.007c22.828-19.339,35.767-44.362,35.767-70.847
			V281.007c10.677-30.639,16.18-59.533,18.725-97.121l98.201-58.921C445.697,120.135,449.643,110.608,447.366,101.498z
			 M234.669,85.339v106.667c0,11.782,9.551,21.333,21.333,21.333c11.782,0,21.333-9.551,21.333-21.333V85.339h21.331v28.224
			c0,66.234-3.138,104.681-14.653,142.443h-54.588c-12.046-39.227-16.045-80.41-16.09-141.406v-29.26H234.669z M170.669,132.994
			l-60.803-36.482l12.197-48.789l48.606,13.423v2.818c0,0.014-0.002,0.028-0.002,0.042v49.557c0,0.302,0.002,0.595,0.002,0.896
			V132.994z M278.053,431.398c0,13.211-6.959,26.669-20.68,38.293c0.554-0.469-1.86-0.469-1.305,0.001
			c-13.714-11.631-20.681-25.099-20.681-38.294V298.683h42.667V431.398z M341.336,132.994V61.146l48.606-13.423l12.197,48.789
			L341.336,132.994z"/>
	</g>
</g>
</svg>