<?xml version="1.0" encoding="iso-8859-1"?>
<!-- Uploaded to: SVG Repo, www.svgrepo.com, Generator: SVG Repo Mixer Tools -->
<!DOCTYPE svg PUBLIC "-//W3C//DTD SVG 1.1//EN" "http://www.w3.org/Graphics/SVG/1.1/DTD/svg11.dtd">
<svg fill="#000000" height="800px" width="800px" version="1.1" id="Capa_1" xmlns="http://www.w3.org/2000/svg" xmlns:xlink="http://www.w3.org/1999/xlink" 
	 viewBox="0 0 440.518 440.518" xml:space="preserve">
<path d="M422.018,178.063h-293.5v3.883l-18.5-2.452v-6.303l-21.533,3.181l-47.882-6.482L6.149,186.714
	C2.356,188.568,0,192.341,0,196.563s2.356,7.995,6.149,9.849l34.453,16.825l47.882-6.482l21.533,3.181v-6.303l18.5-2.452v3.883h14
	v40.917h29v-40.917h80.478l1.223,5.394c1.609,7.097,7.105,12.436,13.898,14.039l4.548,35.373l32.678,0.76l-5.062-36.947
	l22.974-1.118c10.403-0.506,18.925-7.822,21.361-17.5h78.401c10.201,0,18.5-8.299,18.5-18.5S432.219,178.063,422.018,178.063z
	 M369.518,189.063v15H206.369v-15H369.518z M47.018,181.858l36,4.874v19.662l-36,4.874V181.858z M94.018,186.674l5-0.738v21.256
	l-5-0.738V186.674z M36.018,184.37v24.404l-25.041-12.175L36.018,184.37z M110.018,202.536V190.59l18.5,2.452v7.041L110.018,202.536
	z M139.518,189.063h55.852v15h-55.852V189.063z M160.518,244.98h-7v-29.917h7V244.98z M321.72,221.577l-34.966,1.702l4.938,36.053
	l-10.322-0.24l-4.543-35.335l-5.059,0.229c-3.754,0.134-7.001-2.34-7.821-5.962l-0.671-2.961h68.668
	C329.993,218.767,326.182,221.359,321.72,221.577z M422.018,204.063h-41.5v-15h41.5c4.136,0,7.5,3.364,7.5,7.5
	S426.153,204.063,422.018,204.063z"/>
</svg>