<?xml version="1.0" encoding="iso-8859-1"?>
<!-- Uploaded to: SVG Repo, www.svgrepo.com, Generator: SVG Repo Mixer Tools -->
<svg fill="#000000" height="800px" width="800px" version="1.1" id="Layer_1" xmlns="http://www.w3.org/2000/svg" xmlns:xlink="http://www.w3.org/1999/xlink" 
	 viewBox="0 0 512.263 512.263" xml:space="preserve">
<g transform="translate(1 1)">
	<g>
		<g>
			<path d="M280.732,148.531c5.12,0,8.533-3.413,8.533-8.533v-6.564l211.627,40.697c0.853,0,0.853,0,1.707,0
				c4.267,0,7.68-2.56,8.533-6.827c0.853-5.12-2.56-9.387-6.827-10.24l-177.493-34.133l177.493-34.133
				c4.267-0.853,7.68-5.973,6.827-10.24s-5.973-7.68-10.24-6.827l-211.627,40.697v-6.564c0-5.12-3.413-8.533-8.533-8.533h-51.2
				c-5.12,0-8.533,3.413-8.533,8.533v7.417L9.372,72.584c-5.12-0.853-9.387,1.707-10.24,5.973c-0.853,5.12,2.56,9.387,6.827,10.24
				l177.493,34.133L5.958,157.064c-4.267,0.853-7.68,5.973-6.827,10.24c0.853,4.267,4.267,6.827,8.533,6.827
				c0.853,0,0.853,0,1.707,0l211.627-40.697v6.564c0,5.12,3.413,8.533,8.533,8.533h17.067v17.067h-17.067
				c0-5.12-3.413-8.533-8.533-8.533h-42.667c-5.12,0-8.533,3.413-8.533,8.533v34.133h-34.133c-5.12,0-8.533,3.413-8.533,8.533
				s3.413,8.533,8.533,8.533h42.667h8.943c-10.819,9.674-17.477,23.798-17.477,39.253v20.48H7.665c-5.12,0-8.533,3.413-8.533,8.533
				c0,5.12,3.413,8.533,8.533,8.533h34.133v8.533h-1.707c-8.533,0-15.36,6.827-15.36,15.36v20.48c0,8.533,6.827,15.36,15.36,15.36
				h20.48c8.533,0,15.36-6.827,15.36-15.36v-20.48c0-8.533-6.827-15.36-15.36-15.36h-1.707v-8.533h68.267v8.533h-1.707
				c-8.533,0-15.36,6.827-15.36,15.36v20.48c0,8.533,6.827,15.36,15.36,15.36h20.48c8.533,0,15.36-6.827,15.36-15.36v-20.48
				c0-8.533-6.827-15.36-15.36-15.36h-1.707v-8.533h25.6v11.093c0,16.857,7.924,32.124,20.525,41.768l-33.316,33.316
				c-4.088-5.617-10.693-9.378-17.929-9.378h-6.827c-11.947,0-22.187,10.24-22.187,22.187v23.893
				c0,11.947,10.24,22.187,22.187,22.187h6.827c11.947,0,22.187-9.387,22.187-22.187v-17.067l44.774-44.774
				c1.541,0.487,3.113,0.91,4.719,1.254l9.387,1.707c8.448,1.95,17.392,3.398,26.453,3.981v8.819h-1.707
				c-8.533,0-15.36,6.827-15.36,15.36v20.48c0,8.533,6.827,15.36,15.36,15.36h20.48c8.533,0,15.36-6.827,15.36-15.36v-20.48
				c0-8.533-6.827-15.36-15.36-15.36h-1.707v-8.819c9.061-0.583,18.005-2.032,26.453-3.981l9.387-1.707
				c1.606-0.344,3.178-0.767,4.719-1.254l44.774,44.774v17.067c0,11.947,10.24,22.187,22.187,22.187h6.827
				c11.947,0,22.187-9.387,22.187-22.187v-23.893c0-11.947-10.24-22.187-22.187-22.187h-6.827c-7.236,0-13.841,3.76-17.929,9.378
				l-33.316-33.316c12.602-9.644,20.525-24.911,20.525-41.768v-11.093h25.6v8.533h-1.707c-8.533,0-15.36,6.827-15.36,15.36v20.48
				c0,8.533,6.827,15.36,15.36,15.36h20.48c8.533,0,15.36-6.827,15.36-15.36v-20.48c0-8.533-6.827-15.36-15.36-15.36h-1.707v-8.533
				h68.267v8.533h-1.707c-8.533,0-15.36,6.827-15.36,15.36v20.48c0,8.533,6.827,15.36,15.36,15.36h20.48
				c8.533,0,15.36-6.827,15.36-15.36v-20.48c0-8.533-6.827-15.36-15.36-15.36h-1.707v-8.533h34.133c5.12,0,8.533-3.413,8.533-8.533
				c0-5.12-3.413-8.533-8.533-8.533H340.465v-20.48c0-15.455-6.657-29.579-17.477-39.253h8.943h42.667
				c5.12,0,8.533-3.413,8.533-8.533s-3.413-8.533-8.533-8.533h-34.133v-34.133c0-5.12-3.413-8.533-8.533-8.533h-42.667
				c-5.12,0-8.533,3.413-8.533,8.533h-17.067v-17.067H280.732z M58.865,336.264H41.798v-17.067h17.067V336.264z M144.198,336.264
				h-17.067v-17.067h17.067V336.264z M144.198,416.477c0,2.56-2.56,5.12-5.12,5.12h-6.827c-2.56,0-5.12-2.56-5.12-5.12v-23.893
				c0-2.56,2.56-5.12,5.12-5.12h6.827c2.56,0,5.12,2.56,5.12,5.12V416.477z M263.665,404.531h-17.067v-17.067h17.067V404.531z
				 M366.065,392.584c0-2.56,2.56-5.12,5.12-5.12h6.827c2.56,0,5.12,2.56,5.12,5.12v23.893c0,2.56-2.56,5.12-5.12,5.12h-6.827
				c-2.56,0-5.12-2.56-5.12-5.12V392.584z M383.132,336.264h-17.067v-17.067h17.067V336.264z M468.465,336.264h-17.067v-17.067
				h17.067V336.264z M186.865,174.131h25.6v25.6h-25.6V174.131z M323.398,303.837c0,17.067-10.24,31.573-26.453,34.987l-9.387,1.707
				c-18.773,4.267-42.667,5.973-63.147,0l-9.387-1.707c-17.067-4.267-28.16-17.92-28.16-34.987v-48.64
				c0-17.067,11.093-30.72,28.16-34.987c7.427-1.485,15.146-2.669,22.982-3.413h34.385c8.01,0.744,16.136,1.928,24.554,3.413
				c17.067,4.267,26.453,17.92,26.453,34.987V303.837z M323.398,174.131v25.6h-25.6v-25.6H323.398z M280.732,199.731h-51.2v-17.067
				h51.2V199.731z M238.065,125.491c0.13-0.781,0.15-1.539,0.094-2.272c0.056-0.673,0.036-1.344-0.094-1.995v-6.827h34.133v6.827
				c-0.1,0.601-0.137,1.188-0.125,1.762c-0.001,0.022,0,0.043-0.001,0.065c0.001,0.025,0.001,0.051,0.001,0.077
				c-0.01,0.509,0.026,1.016,0.124,1.51v6.827h-34.133V125.491z"/>
			<path d="M308.892,243.251c-29.013-11.947-78.507-11.947-108.373,0c-3.413,0.853-5.12,4.267-5.12,7.68v34.133
				c0,3.413,1.707,5.973,3.413,6.827c1.707,1.707,5.12,1.707,7.68,0.853c25.6-10.24,71.68-10.24,96.427,0
				c0.853,0.853,6.827,0.853,7.68-0.853c1.707-1.707,3.413-4.267,3.413-6.827v-34.133
				C314.012,247.517,312.305,244.957,308.892,243.251z M297.798,273.971c-12.8-3.413-27.307-5.973-42.667-5.973
				s-29.867,2.56-42.667,5.973v-16.213c26.453-7.68,54.613-10.24,85.333,0V273.971z"/>
		</g>
	</g>
</g>
</svg>