<?xml version="1.0" encoding="iso-8859-1"?>
<!-- Uploaded to: SVG Repo, www.svgrepo.com, Generator: SVG Repo Mixer Tools -->
<svg fill="#000000" height="800px" width="800px" version="1.1" id="Layer_1" xmlns="http://www.w3.org/2000/svg" xmlns:xlink="http://www.w3.org/1999/xlink" 
	 viewBox="0 0 512.007 512.007" xml:space="preserve">
<g>
	<g>
		<g>
			<path d="M486.854,200.125c11.592,2.108,22.698-5.581,24.805-17.173c2.108-11.592-5.581-22.698-17.173-24.805l-112.915-20.53
				l112.531-18.343c11.629-1.895,19.519-12.859,17.623-24.487c-1.896-11.629-12.859-19.519-24.488-17.623l-231.235,37.691
				L24.769,77.163C13.14,75.268,2.177,83.158,0.282,94.787c-1.896,11.629,5.995,22.592,17.623,24.487l112.531,18.343l-112.915,20.53
				C5.929,160.254-1.76,171.36,0.348,182.952c2.108,11.592,13.213,19.281,24.805,17.173l209.517-38.094v38.438h-64
				c-11.782,0-21.333,9.551-21.333,21.333c0,11.782,9.551,21.333,21.333,21.333h2.984c-1.929,5.788-2.977,11.951-2.977,18.319v3.014
				H21.337c-11.782,0-21.333,9.551-21.333,21.333c0,11.782,9.551,21.333,21.333,21.333h149.34v2.148
				c0,13.191,4.45,25.513,12.053,35.387l-49.262,54.869c-7.871,8.767-7.145,22.255,1.622,30.126
				c8.767,7.871,22.255,7.145,30.126-1.622l54.973-61.229l3.443,0.761c3.657,0.815,7.341,1.48,11.039,2.015v22.874
				c0,11.782,9.551,21.333,21.333,21.333s21.333-9.551,21.333-21.333v-22.876c3.707-0.536,7.4-1.203,11.068-2.021l3.413-0.754
				l54.974,61.23c7.871,8.767,21.359,9.493,30.126,1.622c8.767-7.871,9.493-21.359,1.622-30.126l-49.263-54.869
				c7.611-9.874,12.066-22.196,12.066-35.387v-2.148h149.323c11.782,0,21.333-9.551,21.333-21.333
				c0-11.782-9.551-21.333-21.333-21.333H341.343v-3.014c0-6.368-1.05-12.531-2.98-18.319h2.974
				c11.782,0,21.333-9.551,21.333-21.333c0-11.782-9.551-21.333-21.333-21.333h-64v-38.438L486.854,200.125z M232.875,325.923
				l-7.568-1.672c-6.98-1.554-11.963-7.77-11.963-14.966v-47.829c0-7.177,4.984-13.391,11.996-14.953
				c20.195-4.484,41.124-4.484,61.332,0.003c7.009,1.561,12.005,7.783,12.005,14.95v47.829c0,7.182-4.988,13.402-12.004,14.971
				l-7.51,1.659C263.898,329.317,248.101,329.317,232.875,325.923z"/>
			<path d="M47.82,328.469H37.516c-8.939,0-16.171,7.253-16.171,16.192v10.283c0,8.939,7.232,16.192,16.171,16.192H47.82
				c8.939,0,16.192-7.253,16.192-16.192v-10.283C64.012,335.723,56.759,328.469,47.82,328.469z"/>
			<path d="M111.82,328.469h-10.304c-8.939,0-16.171,7.253-16.171,16.192v10.283c0,8.939,7.232,16.192,16.171,16.192h10.304
				c8.939,0,16.192-7.253,16.192-16.192v-10.283C128.012,335.723,120.759,328.469,111.82,328.469z"/>
			<path d="M410.487,328.469h-10.304c-8.939,0-16.171,7.253-16.171,16.192v10.283c0,8.939,7.232,16.192,16.171,16.192h10.304
				c8.939,0,16.192-7.253,16.192-16.192v-10.283C426.679,335.723,419.426,328.469,410.487,328.469z"/>
			<path d="M474.487,328.469h-10.304c-8.939,0-16.171,7.253-16.171,16.192v10.283c0,8.939,7.232,16.192,16.171,16.192h10.304
				c8.939,0,16.192-7.253,16.192-16.192v-10.283C490.679,335.723,483.426,328.469,474.487,328.469z"/>
		</g>
	</g>
</g>
</svg>