<?xml version="1.0" encoding="iso-8859-1"?>
<!-- Uploaded to: SVG Repo, www.svgrepo.com, Generator: SVG Repo Mixer Tools -->
<svg height="800px" width="800px" version="1.1" id="Layer_1" xmlns="http://www.w3.org/2000/svg" xmlns:xlink="http://www.w3.org/1999/xlink" 
	 viewBox="0 0 512.002 512.002" xml:space="preserve">
<g>
	<g>
		<path style="fill:#D8D8D8;" d="M256.001,394.303c-4.719,0-8.533-3.814-8.533-8.533v-25.6c0-4.719,3.814-8.533,8.533-8.533
			c4.719,0,8.533,3.814,8.533,8.533v25.6C264.534,390.489,260.72,394.303,256.001,394.303"/>
		<path style="fill:#D8D8D8;" d="M153.601,411.37c-2.185,0-4.369-0.836-6.033-2.5c-3.337-3.337-3.337-8.73,0-12.066l51.2-51.2
			c3.337-3.337,8.73-3.337,12.066,0s3.337,8.73,0,12.066l-51.2,51.2C157.97,410.533,155.785,411.37,153.601,411.37"/>
	</g>
	<path style="fill:#ACB3B7;" d="M148.598,433.439h-7.057c-7.475,0-13.542-6.059-13.542-13.534v-20.599
		c0-7.475,6.067-13.534,13.542-13.534h7.057c7.475,0,13.534,6.059,13.534,13.534v20.599
		C162.132,427.381,156.073,433.439,148.598,433.439"/>
	<path style="fill:#D8D8D8;" d="M358.401,411.37c-2.185,0-4.369-0.836-6.033-2.5l-51.2-51.2c-3.337-3.337-3.337-8.73,0-12.066
		s8.73-3.337,12.066,0l51.2,51.2c3.337,3.337,3.337,8.73,0,12.066C362.77,410.533,360.585,411.37,358.401,411.37"/>
	<g>
		<path style="fill:#ACB3B7;" d="M363.404,433.439h7.057c7.475,0,13.542-6.059,13.542-13.534v-20.599
			c0-7.475-6.067-13.534-13.542-13.534h-7.057c-7.475,0-13.534,6.059-13.534,13.534v20.599
			C349.87,427.381,355.929,433.439,363.404,433.439"/>
		<path style="fill:#ACB3B7;" d="M266.046,419.903h-20.087c-3.883,0-7.023-3.14-7.023-7.023v-20.087c0-3.883,3.14-7.023,7.023-7.023
			h20.087c3.874,0,7.023,3.14,7.023,7.023v20.087C273.069,416.763,269.92,419.903,266.046,419.903"/>
	</g>
	<g>
		<path style="fill:#39493F;" d="M179.201,283.37H8.534c-4.719,0-8.533,3.814-8.533,8.533c0,4.719,3.814,8.533,8.533,8.533h34.133
			v17.067c0,4.719,3.814,8.533,8.533,8.533s8.533-3.814,8.533-8.533v-17.067h68.267v17.067c0,4.719,3.814,8.533,8.533,8.533
			s8.533-3.814,8.533-8.533v-17.067h34.133c4.719,0,8.533-3.814,8.533-8.533C187.734,287.184,183.92,283.37,179.201,283.37"/>
		<path style="fill:#39493F;" d="M503.467,283.37H332.801c-4.719,0-8.533,3.814-8.533,8.533c0,4.719,3.814,8.533,8.533,8.533h34.133
			v17.067c0,4.719,3.814,8.533,8.533,8.533c4.719,0,8.533-3.814,8.533-8.533v-17.067h68.267v17.067c0,4.719,3.814,8.533,8.533,8.533
			s8.533-3.814,8.533-8.533v-17.067h34.133c4.719,0,8.533-3.814,8.533-8.533C512.001,287.184,508.186,283.37,503.467,283.37"/>
	</g>
	<g>
		<path style="fill:#1D281F;" d="M230.409,138.303c-0.529,0-1.075-0.051-1.613-0.154L6.93,95.483
			c-4.634-0.887-7.663-5.359-6.775-9.984c0.896-4.625,5.385-7.62,9.993-6.775l221.858,42.667c4.634,0.887,7.663,5.359,6.775,9.984
			C237.995,135.461,234.42,138.303,230.409,138.303"/>
		<path style="fill:#1D281F;" d="M8.526,180.97c-4.011,0-7.586-2.842-8.371-6.929c-0.887-4.625,2.142-9.097,6.775-9.984
			l221.858-42.667c4.591-0.853,9.097,2.142,9.993,6.775c0.887,4.625-2.142,9.097-6.775,9.984L10.138,180.816
			C9.601,180.918,9.055,180.97,8.526,180.97"/>
		<path style="fill:#1D281F;" d="M281.592,138.303c-4.011,0-7.586-2.842-8.371-6.929c-0.887-4.625,2.142-9.097,6.775-9.984
			l221.858-42.667c4.591-0.913,9.097,2.15,9.993,6.775c0.887,4.625-2.142,9.097-6.775,9.984l-221.867,42.667
			C282.667,138.252,282.121,138.303,281.592,138.303"/>
		<path style="fill:#1D281F;" d="M503.476,180.97c-0.529,0-1.075-0.051-1.613-0.154l-221.867-42.667
			c-4.634-0.887-7.663-5.359-6.775-9.984c0.896-4.625,5.385-7.637,9.993-6.775l221.858,42.667c4.634,0.887,7.663,5.359,6.775,9.984
			C511.062,178.128,507.487,180.97,503.476,180.97"/>
	</g>
	<path style="fill:#5E7767;" d="M256.001,189.503c-4.719,0-8.533-3.814-8.533-8.533v-34.133c0-4.719,3.814-8.533,8.533-8.533
		c4.719,0,8.533,3.814,8.533,8.533v34.133C264.534,185.689,260.72,189.503,256.001,189.503"/>
	<path style="fill:#39493F;" d="M221.867,215.103h68.267V180.97h-68.267V215.103z"/>
	<g>
		<path style="fill:#5E7767;" d="M179.201,215.103h42.667v-42.667h-42.667V215.103z"/>
		<path style="fill:#5E7767;" d="M290.134,215.103h42.667v-42.667h-42.667V215.103z"/>
		<path style="fill:#5E7767;" d="M298.352,354.529l-9.028,2.005c-21.948,4.881-44.698,4.881-66.645,0l-9.028-2.005
			c-20.13-4.471-34.449-22.323-34.449-42.948v-48.887c0-20.617,14.319-38.468,34.449-42.94l0,0c27.895-6.204,56.806-6.204,84.702,0
			l0,0c20.13,4.471,34.449,22.323,34.449,42.94v48.887C332.801,332.206,318.482,350.058,298.352,354.529"/>
	</g>
	<g>
		<path style="fill:#1D281F;" d="M61.246,351.636H41.159c-3.883,0-7.023-3.14-7.023-7.023v-20.087c0-3.883,3.14-7.023,7.023-7.023
			h20.087c3.874,0,7.023,3.14,7.023,7.023v20.087C68.269,348.496,65.12,351.636,61.246,351.636"/>
		<path style="fill:#1D281F;" d="M146.58,351.636h-20.087c-3.883,0-7.023-3.14-7.023-7.023v-20.087c0-3.883,3.14-7.023,7.023-7.023
			h20.087c3.874,0,7.023,3.14,7.023,7.023v20.087C153.602,348.496,150.454,351.636,146.58,351.636"/>
		<path style="fill:#1D281F;" d="M385.513,351.636h-20.087c-3.883,0-7.023-3.14-7.023-7.023v-20.087c0-3.883,3.14-7.023,7.023-7.023
			h20.087c3.874,0,7.023,3.14,7.023,7.023v20.087C392.536,348.496,389.387,351.636,385.513,351.636"/>
		<path style="fill:#1D281F;" d="M470.846,351.636h-20.087c-3.883,0-7.023-3.14-7.023-7.023v-20.087c0-3.883,3.14-7.023,7.023-7.023
			h20.087c3.874,0,7.023,3.14,7.023,7.023v20.087C477.869,348.496,474.72,351.636,470.846,351.636"/>
	</g>
	<g>
		<path style="fill:#39493F;" d="M375.467,223.636H136.534c-4.719,0-8.533-3.814-8.533-8.533c0-4.719,3.814-8.533,8.533-8.533
			h238.933c4.719,0,8.533,3.814,8.533,8.533C384.001,219.822,380.186,223.636,375.467,223.636"/>
		<path style="fill:#39493F;" d="M307.201,291.903L307.201,291.903c-27.392-10.957-75.008-10.957-102.4,0l0,0V257.77l0,0
			c27.392-10.957,75.008-10.957,102.4,0l0,0V291.903z"/>
		<path style="fill:#39493F;" d="M230.401,146.836h51.2v-34.133h-51.2V146.836z"/>
	</g>
</g>
</svg>