<?xml version="1.0" encoding="iso-8859-1"?>
<!-- Uploaded to: SVG Repo, www.svgrepo.com, Generator: SVG Repo Mixer Tools -->
<!DOCTYPE svg PUBLIC "-//W3C//DTD SVG 1.1//EN" "http://www.w3.org/Graphics/SVG/1.1/DTD/svg11.dtd">
<svg fill="#000000" height="800px" width="800px" version="1.1" id="Capa_1" xmlns="http://www.w3.org/2000/svg" xmlns:xlink="http://www.w3.org/1999/xlink" 
	 viewBox="0 0 371.703 371.703" xml:space="preserve">
<path d="M309.087,229.185c-10.671-10.672-24.859-16.549-39.951-16.549c-13.242,0-25.787,4.527-35.873,12.845l-5.225-5.225
	c2.504-3.95,3.851-8.53,3.851-13.32c0-6.666-2.596-12.933-7.31-17.645l-17.196-17.196l16.179-16.179l20.86,20.86l127.28-127.279
	L322.205,0L194.926,127.28l20.86,20.86l-16.178,16.178l-22.51-22.51l-5.765,5.765l-17.598-36.631
	c-1.315-2.736-4.599-3.888-7.339-2.576c-2.738,1.315-3.891,4.602-2.576,7.34l19.27,40.11l-7.272,7.272l-40.11-19.27
	c-2.738-1.313-6.024-0.162-7.339,2.576c-1.315,2.738-0.162,6.024,2.576,7.34l36.63,17.598l-5.765,5.765l22.51,22.51l-16.178,16.178
	l-20.86-20.859L0,322.206l49.498,49.497l127.279-127.279l-20.86-20.86l16.178-16.178l17.196,17.196
	c4.713,4.713,10.979,7.308,17.645,7.308c4.793,0,9.375-1.349,13.326-3.855l5.229,5.229c-18.252,22.173-17.025,55.106,3.694,75.824
	l3.889,3.89l36.065-36.065l8.62,8.62c1.073,1.074,2.481,1.611,3.889,1.611s2.815-0.537,3.889-1.611c2.148-2.147,2.148-5.63,0-7.777
	l-8.62-8.62l36.061-36.061L309.087,229.185z M231.341,148.139l32.056-32.056l13.082,13.082l-32.056,32.056L231.341,148.139z
	 M303.231,76.249l13.082,13.082l-32.056,32.056l-13.082-13.082L303.231,76.249z M263.397,100.528l-13.082-13.081l32.057-32.057
	l13.081,13.082L263.397,100.528z M324.09,81.554l-13.082-13.082l32.056-32.056l13.082,13.082L324.09,81.554z M335.287,28.638
	l-32.056,32.056l-13.081-13.082l32.056-32.056L335.287,28.638z M210.482,127.28l32.056-32.056l13.082,13.081l-32.056,32.056
	L210.482,127.28z M140.361,223.564l-32.055,32.055l-13.081-13.081l32.055-32.055L140.361,223.564z M68.472,295.453L55.39,282.372
	l32.056-32.056l13.081,13.081L68.472,295.453z M108.305,271.175l13.082,13.081l-32.056,32.056l-13.082-13.081L108.305,271.175z
	 M47.612,290.15l13.081,13.081l-32.056,32.056l-13.081-13.081L47.612,290.15z M36.416,343.065l32.056-32.056l13.082,13.081
	l-32.056,32.056L36.416,343.065z M161.22,244.423l-32.055,32.055l-13.082-13.081l32.055-32.055L161.22,244.423z M177.098,157.365
	l3.771,3.771l-19.733,19.733l-3.771-3.771L177.098,157.365z M206.936,220.889c-3.727,0-7.231-1.451-9.867-4.086l-28.155-28.156
	l19.733-19.734l28.156,28.156c2.636,2.635,4.087,6.139,4.087,9.866c0,3.727-1.451,7.231-4.087,9.867
	C214.167,219.438,210.663,220.889,206.936,220.889z M233.307,297.187c-13.988-17.84-12.77-43.799,3.655-60.225
	c8.595-8.594,20.021-13.326,32.174-13.326c10.301,0,20.079,3.4,28.053,9.669L233.307,297.187z"/>
</svg>