<?xml version="1.0" encoding="iso-8859-1"?>
<!-- Uploaded to: SVG Repo, www.svgrepo.com, Generator: SVG Repo Mixer Tools -->
<svg height="800px" width="800px" version="1.1" id="Layer_1" xmlns="http://www.w3.org/2000/svg" xmlns:xlink="http://www.w3.org/1999/xlink" 
	 viewBox="0 0 503.019 503.019" xml:space="preserve">
<g>
	<g>
		<path style="fill:#E8EDEE;" d="M420.139,467.09H186.595l116.772-233.544L420.139,467.09z"/>
		<path style="fill:#E8EDEE;" d="M284.581,215.965l-12.683,12.683c-20.103,20.103-48.173,30.127-76.468,27.298l-8.929-0.889
			c-47.472-4.752-91.837-25.771-125.566-59.509l-5.003-5.003L246.478,0l5.003,5.003c33.738,33.729,54.757,78.093,59.509,125.566
			l0.889,8.929C314.708,167.792,304.684,195.862,284.581,215.965"/>
		<path style="fill:#E8EDEE;" d="M150.753,103.802c-2.299,0-4.599-0.88-6.351-2.632l-24.944-24.944
			c-3.512-3.512-3.512-9.198,0-12.701c3.503-3.512,9.189-3.512,12.701,0l24.944,24.944c3.512,3.512,3.512,9.189,0,12.701
			C155.352,102.922,153.053,103.802,150.753,103.802"/>
	</g>
	<g>
		<path style="fill:#C7CBC7;" d="M133.695,49.912c0-14.884-12.063-26.947-26.947-26.947S79.8,35.028,79.8,49.912
			s12.063,26.947,26.947,26.947S133.695,64.796,133.695,49.912"/>
		<path style="fill:#C7CBC7;" d="M429.122,503.019H177.613c-9.926,0-17.965-8.039-17.965-17.965c0-9.926,8.039-17.965,17.965-17.965
			h251.509c9.926,0,17.965,8.039,17.965,17.965C447.086,494.98,439.047,503.019,429.122,503.019"/>
		<path style="fill:#C7CBC7;" d="M303.554,247.621L303.554,247.621c-7.015,7.015-18.387,7.015-25.402,0l-12.71-12.701l25.411-25.411
			l12.701,12.71C310.569,229.234,310.569,240.606,303.554,247.621"/>
		<path style="fill:#C7CBC7;" d="M60.936,195.55c11.075,11.075,23.381,20.624,36.478,28.834L280.315,41.483
			c-8.21-13.096-17.758-25.402-28.834-36.478l-5.003-5.003L55.933,190.547L60.936,195.55z"/>
		<path style="fill:#C7CBC7;" d="M222.525,413.195h161.684c2.973,0,5.47-1.536,7.105-3.746l-7.105-14.219H222.525l-7.105,14.219
			C217.055,411.659,219.552,413.195,222.525,413.195"/>
		<path style="fill:#C7CBC7;" d="M352.771,332.353h-98.807l-8.47,16.932c1.213,0.611,2.533,1.033,3.979,1.033h107.789
			c1.446,0,2.767-0.422,3.979-1.033L352.771,332.353z"/>
		<path style="fill:#C7CBC7;" d="M312.35,466.966V251.513l-8.982-17.965l-8.982,17.965v215.453c0,0.045,0.027,0.081,0.027,0.126
			h17.911C312.323,467.047,312.35,467.011,312.35,466.966"/>
	</g>
</g>
</svg>