<?xml version="1.0" encoding="iso-8859-1"?>
<!-- Uploaded to: SVG Repo, www.svgrepo.com, Generator: SVG Repo Mixer Tools -->
<svg fill="#000000" height="800px" width="800px" version="1.1" id="Layer_1" xmlns="http://www.w3.org/2000/svg" xmlns:xlink="http://www.w3.org/1999/xlink" 
	 viewBox="0 0 486.066 486.066" xml:space="preserve">
<g>
	<g>
		<path d="M417.11,445.106h-21.147L295.917,238.964l1.701-1.701c23.179-23.179,34.729-55.534,31.477-88.152l-0.841-8.372
			c-4.914-49.161-26.702-95.133-61.647-130.055l-4.685-4.685c-7.998-7.998-20.965-7.998-28.963,0L54.475,184.482
			c-7.986,7.986-8,20.928-0.032,28.931l4.669,4.69c34.975,34.976,80.947,56.761,130.113,61.675l8.345,0.839
			c11.79,1.175,23.542,0.409,34.839-2.131l-80.865,166.62H130.39c-11.311,0-20.48,9.169-20.48,20.48s9.169,20.48,20.48,20.48h33.98
			h218.767h33.972c11.311,0,20.48-9.169,20.48-20.48S428.421,445.106,417.11,445.106z M201.65,239.86l-8.34-0.838
			c-35.15-3.513-68.276-17.685-95.008-40.442L247.05,49.833c22.76,26.719,36.935,59.845,40.448,94.991l0.841,8.367
			c2.032,20.384-5.19,40.616-19.684,55.11l-11.878,11.878C242.283,234.672,222.05,241.894,201.65,239.86z M253.27,329.316v115.79
			h-56.196L253.27,329.316z M294.23,445.106V329.3l56.204,115.807H294.23z"/>
	</g>
</g>
</svg>