<?xml version="1.0" encoding="iso-8859-1"?>
<!-- Uploaded to: SVG Repo, www.svgrepo.com, Generator: SVG Repo Mixer Tools -->
<svg fill="#000000" height="800px" width="800px" version="1.1" id="Layer_1" xmlns="http://www.w3.org/2000/svg" xmlns:xlink="http://www.w3.org/1999/xlink" 
	 viewBox="0 0 499.41 499.41" xml:space="preserve">
<g transform="translate(1 1)">
	<g>
		<path d="M415.315,448.049h-2.938L307.9,239.094c2.22-3.721,3.336-8.174,3.336-12.632c0-6.715-2.518-12.59-7.554-17.626
			l-6.094-6.094c12.92-18.599,19.028-41.652,17.005-65.25l-0.839-8.393c-2.762-30.378-12.795-59.664-28.659-85.47
			c-0.186-0.624-0.425-1.236-0.718-1.822c-3.825-5.738-8.001-11.473-12.365-16.972c-4.314-5.509-8.915-10.803-13.793-15.849
			c-0.793-0.824-1.586-1.638-2.38-2.432l-5.036-5.036c-3.357-3.357-8.393-3.357-11.751,0l-84.104,82.925l-12.751-12.751
			c3.388-5.24,5.367-11.466,5.367-18.135c0-18.466-15.108-33.574-33.574-33.574S80.416,35.092,80.416,53.557
			s15.108,33.574,33.574,33.574c5.839,0,11.341-1.514,16.137-4.164l13.306,12.831l-84,82.822c-3.357,3.357-3.357,8.393,0,11.751
			l5.036,5.036c32.734,32.734,76.38,52.879,122.544,57.915l8.393,0.839C198.764,255,202.121,255,205.479,255
			c20.404,0,39.774-6.195,56.494-17.368l6.457,6.457c3.268,3.922,8.065,6.309,13.198,7.177l-98.392,196.784h-2.938
			c-14.269,0-25.18,10.911-25.18,25.18s10.911,25.18,25.18,25.18h235.016c14.269,0,25.18-10.911,25.18-25.18
			S429.584,448.049,415.315,448.049z M97.203,53.557c0-9.233,7.554-16.787,16.787-16.787s16.787,7.554,16.787,16.787
			s-7.554,16.787-16.787,16.787S97.203,62.79,97.203,53.557z M252.704,347.328h36.709v41.967h-57.785L252.704,347.328z
			 M306.2,274.231l28.279,56.31H306.2V274.231z M289.413,330.541h-28.279l28.279-56.31V330.541z M306.2,347.328h36.709
			l21.076,41.967H306.2V347.328z M372.416,406.082l21.076,41.967H306.2v-41.967H372.416z M265.911,45.164L104.757,206.318
			c-4.633-3.088-8.897-6.181-12.901-9.351c-4.525-3.662-8.906-7.537-13.119-11.633l166.19-166.19
			c0.001,0.001,0.002,0.002,0.004,0.004C252.484,26.701,259.198,35.933,265.911,45.164z M197.925,238.213l-8.393-0.839
			c-24.987-2.499-48.783-10.057-70.326-21.964L275.398,59.978c11.677,21.42,19.098,45.252,21.569,69.959l0.839,8.393
			c1.679,24.341-6.715,47.843-23.502,64.63l-11.751,11.751l-2.458,2.458C243.514,233.108,221.102,240.611,197.925,238.213z
			 M275.144,227.302l11.751-11.751l5.036,5.036c1.679,1.679,2.518,3.357,2.518,5.875c0,1.699-0.392,3.013-1.156,4.205
			c-1.144,0.64-2.098,1.584-2.755,2.809c-3.251,2.158-7.439,1.781-10.358-1.139L275.144,227.302z M223.197,406.082h66.216v41.967
			h-87.292L223.197,406.082z M415.315,481.623H180.298c-5.036,0-8.393-3.357-8.393-8.393s3.357-8.393,8.393-8.393h8.393h218.23
			h8.393c5.036,0,8.393,3.357,8.393,8.393S420.351,481.623,415.315,481.623z"/>
	</g>
</g>
</svg>