<?xml version="1.0" encoding="iso-8859-1"?>
<!-- Uploaded to: SVG Repo, www.svgrepo.com, Generator: SVG Repo Mixer Tools -->
<svg fill="#000000" height="800px" width="800px" version="1.1" id="Layer_1" xmlns="http://www.w3.org/2000/svg" xmlns:xlink="http://www.w3.org/1999/xlink" 
	 viewBox="0 0 499.794 499.794" xml:space="preserve">
<g>
	<g>
		<g>
			<path d="M415.861,449.434h-3.206L308.265,240.655c2.275-3.827,3.567-8.175,3.567-12.758c0-6.715-2.619-13.043-7.378-17.802
				l-6.975-6.975c13.253-18.868,19.515-41.833,17.173-65.209l-0.823-8.352c-2.887-28.764-11.977-56.471-26.347-81.207
				L107.099,228.728c24.744,14.37,52.451,23.468,81.215,26.347l8.343,0.823c3.265,0.327,6.522,0.495,9.77,0.495
				c19.976,0,39.248-6.211,55.489-17.626l6.933,6.941c3.743,3.735,8.469,6.094,13.581,6.958l-98.38,196.767h-3.206
				c-13.883,0-25.18,11.298-25.18,25.18c0,13.883,11.298,25.18,25.18,25.18h235.016c13.883,0,25.18-11.298,25.18-25.18
				C441.041,460.731,429.743,449.434,415.861,449.434z M289.959,449.434h-87.141l20.984-41.967h66.157V449.434z M289.959,390.679
				h-57.764l20.984-41.967h36.78V390.679z M289.959,331.925h-28.387l28.387-56.773V331.925z M306.746,275.152l28.387,56.773h-28.387
				V275.152z M306.746,348.712h36.78l20.984,41.967h-57.764V348.712z M306.746,449.434v-41.967h66.157l20.984,41.967H306.746z"/>
			<path d="M255.802,7.13l-4.675-4.675c-3.273-3.273-8.586-3.273-11.868,0L156.172,85.55l-13.027-13.027
				c3.139-5.112,5.053-11.071,5.053-17.5c0-18.516-15.058-33.574-33.574-33.574S81.05,36.507,81.05,55.023
				s15.058,33.574,33.574,33.574c5.984,0,11.524-1.704,16.401-4.457l13.278,13.278l-83.095,83.087
				c-3.273,3.282-3.273,8.595,0,11.868l4.675,4.675c8.276,8.276,17.232,15.763,26.742,22.427L278.229,33.872
				C271.565,24.362,264.078,15.406,255.802,7.13z"/>
		</g>
	</g>
</g>
</svg>