<?xml version="1.0" encoding="iso-8859-1"?>
<!-- Uploaded to: SVG Repo, www.svgrepo.com, Generator: SVG Repo Mixer Tools -->
<svg height="800px" width="800px" version="1.1" id="Layer_1" xmlns="http://www.w3.org/2000/svg" xmlns:xlink="http://www.w3.org/1999/xlink" 
	 viewBox="0 0 503.466 503.466" xml:space="preserve">
<g>
	<path style="fill:#C7CBC7;" d="M191.866,503.466h119.467v-25.6H191.866V503.466z"/>
	<path style="fill:#E8EDEE;" d="M294.397,111.063c0-23.561-19.106-42.667-42.667-42.667s-42.667,19.106-42.667,42.667
		s19.106,42.667,42.667,42.667S294.397,134.624,294.397,111.063"/>
	<g>
		<path style="fill:#CA3E49;" d="M149.2,222.125c-2.185,0-4.369-0.836-6.033-2.5c-29.039-29.039-45.03-67.593-45.03-108.561
			s15.991-79.522,45.03-108.561c3.337-3.337,8.73-3.337,12.066,0c3.337,3.328,3.337,8.73,0,12.066
			c-25.813,25.813-40.03,60.092-40.03,96.495c0,36.412,14.217,70.682,40.03,96.495c3.337,3.337,3.337,8.73,0,12.066
			C153.569,221.289,151.384,222.125,149.2,222.125"/>
		<path style="fill:#CA3E49;" d="M354.258,222.125c-2.185,0-4.369-0.836-6.033-2.5c-3.337-3.337-3.337-8.73,0-12.066
			c25.822-25.822,40.038-60.092,40.038-96.495s-14.217-70.673-40.038-96.495c-3.337-3.337-3.337-8.738,0-12.066
			c3.337-3.337,8.73-3.337,12.066,0c29.039,29.039,45.039,67.601,45.039,108.561s-16,79.522-45.039,108.561
			C358.627,221.289,356.443,222.125,354.258,222.125"/>
		<path style="fill:#CA3E49;" d="M330.133,197.999c-2.185,0-4.369-0.836-6.033-2.5c-3.337-3.337-3.337-8.73,0-12.066
			c19.362-19.362,30.037-45.056,30.037-72.371c0-27.298-10.675-53.001-30.037-72.371c-3.337-3.337-3.337-8.73,0-12.066
			c3.337-3.337,8.73-3.337,12.066,0c22.588,22.588,35.029,52.582,35.029,84.437c0,31.872-12.442,61.858-35.029,84.437
			C334.502,197.163,332.317,197.999,330.133,197.999"/>
		<path style="fill:#CA3E49;" d="M173.324,197.999c-2.185,0-4.369-0.836-6.033-2.5c-22.588-22.579-35.029-52.574-35.029-84.437
			c0-31.855,12.442-61.85,35.029-84.437c3.337-3.337,8.73-3.337,12.066,0c3.337,3.337,3.337,8.73,0,12.066
			c-19.362,19.371-30.029,45.073-30.029,72.371c0,27.307,10.667,53.001,30.029,72.371c3.337,3.337,3.337,8.73,0,12.066
			C177.693,197.163,175.509,197.999,173.324,197.999"/>
		<path style="fill:#CA3E49;" d="M306.008,173.875c-2.185,0-4.369-0.836-6.033-2.5c-3.337-3.337-3.337-8.738,0-12.066
			c12.919-12.911,20.028-30.046,20.028-48.239c0-18.202-7.108-35.337-20.028-48.256c-3.337-3.328-3.337-8.73,0-12.066
			c3.337-3.328,8.73-3.328,12.066,0c16.145,16.137,25.028,37.564,25.028,60.322c0,22.767-8.892,44.177-25.028,60.305
			C310.377,173.039,308.193,173.875,306.008,173.875"/>
		<path style="fill:#CA3E49;" d="M197.45,173.875c-2.185,0-4.369-0.836-6.033-2.5c-16.137-16.128-25.02-37.538-25.02-60.305
			s8.883-44.186,25.02-60.322c3.337-3.328,8.73-3.328,12.066,0c3.337,3.337,3.337,8.738,0,12.066
			c-12.911,12.911-20.019,30.046-20.019,48.256c0,18.202,7.108,35.337,20.019,48.239c3.337,3.328,3.337,8.73,0,12.066
			C201.819,173.039,199.634,173.875,197.45,173.875"/>
	</g>
	<path style="fill:#C7CBC7;" d="M251.73,151.611c-6.076,0-11.836-0.538-17.067-1.485L234.535,281.6h34.133l0.128-131.473
		C263.566,151.074,257.806,151.611,251.73,151.611"/>
	<path style="fill:#E8EDEE;" d="M217.466,477.866h68.267V281.6h-68.267V477.866z"/>
</g>
</svg>