<?xml version="1.0" encoding="iso-8859-1"?>
<!-- Uploaded to: SVG Repo, www.svgrepo.com, Generator: SVG Repo Mixer Tools -->
<svg fill="#000000" height="800px" width="800px" version="1.1" id="Layer_1" xmlns="http://www.w3.org/2000/svg" xmlns:xlink="http://www.w3.org/1999/xlink" 
	 viewBox="0 0 502.767 502.767" xml:space="preserve">
<g transform="translate(1 1)">
	<g>
		<g>
			<path d="M309.138,459.8h-16.787V275.144c0-5.036-3.357-8.393-8.393-8.393h-8.393l0-115.084
				c15.02-8.742,25.18-25.013,25.18-43.552c0-27.698-22.662-50.361-50.361-50.361s-50.361,22.662-50.361,50.361
				c0,18.539,10.16,34.81,25.18,43.552v115.084h-8.393c-5.036,0-8.393,3.357-8.393,8.393V459.8H191.63
				c-5.036,0-8.393,3.357-8.393,8.393v25.18c0,5.036,3.357,8.393,8.393,8.393h117.508c5.036,0,8.393-3.357,8.393-8.393v-25.18
				C317.531,463.157,314.174,459.8,309.138,459.8z M250.384,74.541c18.466,0,33.574,15.108,33.574,33.574
				c0,12.388-6.805,23.257-16.857,29.075c-0.531,0.034-1.069,0.122-1.609,0.302c-9.233,1.679-20.144,1.679-30.216,0
				c-0.539-0.18-1.078-0.268-1.609-0.302c-10.052-5.818-16.857-16.687-16.857-29.075C216.81,89.649,231.918,74.541,250.384,74.541z
				 M241.99,157.757c2.733,0.464,5.534,0.718,8.393,0.718s5.661-0.254,8.393-0.718v108.993H241.99V157.757z M225.203,283.538h8.393
				h33.574h8.393V459.8h-50.361V283.538z M300.744,484.98H200.023v-8.393h16.787h67.148h16.787V484.98z"/>
			<path d="M116.089,108.115c0-36.092,14.269-69.666,39.449-94.846c3.357-3.357,3.357-8.393,0-11.751
				c-3.357-3.357-8.393-3.357-11.751,0c-28.538,28.538-44.485,66.308-44.485,106.597s15.948,78.059,44.485,106.597
				c1.679,1.679,3.357,2.518,5.875,2.518c2.518,0,4.197-0.839,5.875-2.518c3.357-3.357,3.357-8.393,0-11.751
				C130.357,177.78,116.089,144.207,116.089,108.115z"/>
			<path d="M356.98,1.518c-3.357-3.357-8.393-3.357-11.751,0c-3.357,3.357-3.357,8.393,0,11.751
				c25.18,25.18,39.449,58.754,39.449,94.846s-14.269,69.666-39.449,94.846c-3.357,3.357-3.357,8.393,0,11.751
				c1.679,1.679,3.357,2.518,5.875,2.518s4.197-0.839,5.875-2.518c28.538-28.538,44.485-66.308,44.485-106.597
				S385.518,29.216,356.98,1.518z"/>
			<path d="M333.479,24.18c-3.357-3.357-8.393-3.357-11.751,0c-3.357,3.357-3.357,8.393,0,11.751
				c19.305,19.305,29.377,44.485,29.377,71.344c0,26.859-10.072,52.039-29.377,71.344c-3.357,3.357-3.357,8.393,0,11.751
				c1.679,1.679,3.357,2.518,5.875,2.518c2.518,0,4.197-0.839,5.875-2.518c21.823-22.662,34.413-52.039,34.413-83.095
				C367.892,76.22,355.302,46.003,333.479,24.18z"/>
			<path d="M149.662,108.115c0-26.859,10.911-52.879,29.377-71.344c3.357-3.357,3.357-8.393,0-11.751
				c-3.357-3.357-8.393-3.357-11.751,0c-21.823,22.662-34.413,52.039-34.413,83.095s12.59,60.433,34.413,82.256
				c1.679,1.679,3.357,2.518,5.875,2.518c2.518,0,4.197-0.839,5.875-1.679c3.357-3.357,3.357-8.393,0-11.751
				C159.734,160.154,149.662,134.974,149.662,108.115z"/>
			<path d="M317.531,107.275c0,18.466-6.715,35.252-19.305,47.843c-3.357,3.357-3.357,8.393,0,11.751
				c1.679,1.679,3.357,2.518,5.875,2.518c1.679,0,4.197-0.839,5.875-1.679c15.948-15.948,24.341-36.931,24.341-59.593
				s-8.393-43.646-24.341-60.433c-3.357-3.357-8.393-3.357-11.751,0c-3.357,3.357-3.357,8.393,0,11.751
				C310.816,72.862,317.531,89.649,317.531,107.275z"/>
			<path d="M191.63,166.869c1.679,1.679,3.357,2.518,5.875,2.518c1.679,0,4.197-0.839,5.036-1.679c3.357-3.357,3.357-8.393,0-11.751
				c-12.59-13.429-19.305-30.216-19.305-47.843c0-18.466,6.715-35.252,19.305-47.843c3.357-3.357,3.357-8.393,0-11.751
				c-3.357-3.357-8.393-3.357-11.751,0c-15.948,15.948-24.341,36.931-24.341,59.593C166.449,129.938,175.682,150.921,191.63,166.869
				z"/>
		</g>
	</g>
</g>
</svg>