<?xml version="1.0" encoding="iso-8859-1"?>
<!-- Uploaded to: SVG Repo, www.svgrepo.com, Generator: SVG Repo Mixer Tools -->
<svg height="800px" width="800px" version="1.1" id="Layer_1" xmlns="http://www.w3.org/2000/svg" xmlns:xlink="http://www.w3.org/1999/xlink" 
	 viewBox="0 0 503.607 503.607" xml:space="preserve">
<g>
	<path style="fill:#CA3E49;" d="M251.803,16.787c-129.586,0-235.016,105.43-235.016,235.016S122.217,486.82,251.803,486.82
		S486.82,381.39,486.82,251.803S381.39,16.787,251.803,16.787 M251.803,503.607C112.959,503.607,0,390.648,0,251.803
		S112.959,0,251.803,0s251.803,112.959,251.803,251.803S390.648,503.607,251.803,503.607"/>
	<path style="fill:#CA3E49;" d="M251.803,50.361c-111.07,0-201.443,90.372-201.443,201.443s90.372,201.443,201.443,201.443
		s201.443-90.372,201.443-201.443S362.874,50.361,251.803,50.361 M251.803,470.033c-120.337,0-218.229-97.893-218.229-218.229
		S131.466,33.574,251.803,33.574s218.23,97.893,218.23,218.229S372.14,470.033,251.803,470.033"/>
	<path style="fill:#CA3E49;" d="M276.984,394.492h-50.361c-4.642,0-8.393-3.752-8.393-8.393c0-4.642,3.752-8.393,8.393-8.393h50.361
		c4.642,0,8.393,3.752,8.393,8.393C285.377,390.74,281.625,394.492,276.984,394.492"/>
	<path style="fill:#CA3E49;" d="M276.984,327.344h-50.361c-4.642,0-8.393-3.752-8.393-8.393s3.752-8.393,8.393-8.393h50.361
		c4.642,0,8.393,3.752,8.393,8.393S281.625,327.344,276.984,327.344"/>
	<path style="fill:#CA3E49;" d="M251.803,394.492c-4.642,0-8.393-3.752-8.393-8.393v-268.59c0-4.642,3.752-8.393,8.393-8.393
		c4.642,0,8.393,3.752,8.393,8.393v268.59C260.197,390.74,256.445,394.492,251.803,394.492"/>
	<path style="fill:#CA3E49;" d="M276.984,125.902h-50.361c-4.642,0-8.393-3.752-8.393-8.393c0-4.642,3.752-8.393,8.393-8.393h50.361
		c4.642,0,8.393,3.752,8.393,8.393C285.377,122.15,281.625,125.902,276.984,125.902"/>
	<path style="fill:#CA3E49;" d="M276.984,193.049h-50.361c-4.642,0-8.393-3.752-8.393-8.393s3.752-8.393,8.393-8.393h50.361
		c4.642,0,8.393,3.752,8.393,8.393S281.625,193.049,276.984,193.049"/>
	<path style="fill:#CA3E49;" d="M386.098,260.197h-268.59c-4.642,0-8.393-3.752-8.393-8.393c0-4.642,3.752-8.393,8.393-8.393h268.59
		c4.642,0,8.393,3.752,8.393,8.393C394.492,256.445,390.74,260.197,386.098,260.197"/>
	<path style="fill:#CA3E49;" d="M117.508,285.377c-4.642,0-8.393-3.752-8.393-8.393v-50.361c0-4.642,3.752-8.393,8.393-8.393
		c4.642,0,8.393,3.752,8.393,8.393v50.361C125.902,281.625,122.15,285.377,117.508,285.377"/>
	<path style="fill:#CA3E49;" d="M184.656,285.377c-4.642,0-8.393-3.752-8.393-8.393v-50.361c0-4.642,3.752-8.393,8.393-8.393
		s8.393,3.752,8.393,8.393v50.361C193.049,281.625,189.297,285.377,184.656,285.377"/>
	<path style="fill:#CA3E49;" d="M386.098,285.377c-4.642,0-8.393-3.752-8.393-8.393v-50.361c0-4.642,3.752-8.393,8.393-8.393
		c4.642,0,8.393,3.752,8.393,8.393v50.361C394.492,281.625,390.74,285.377,386.098,285.377"/>
	<path style="fill:#CA3E49;" d="M318.951,285.377c-4.642,0-8.393-3.752-8.393-8.393v-50.361c0-4.642,3.752-8.393,8.393-8.393
		c4.642,0,8.393,3.752,8.393,8.393v50.361C327.344,281.625,323.592,285.377,318.951,285.377"/>
</g>
</svg>