<?xml version="1.0" encoding="iso-8859-1"?>
<!-- Uploaded to: SVG Repo, www.svgrepo.com, Generator: SVG Repo Mixer Tools -->
<svg height="800px" width="800px" version="1.1" id="Layer_1" xmlns="http://www.w3.org/2000/svg" xmlns:xlink="http://www.w3.org/1999/xlink" 
	 viewBox="0 0 503.607 503.607" xml:space="preserve">
<g>
	<path style="fill:#CA3E49;" d="M251.803,16.787c-129.586,0-235.016,105.43-235.016,235.016S122.217,486.82,251.803,486.82
		S486.82,381.39,486.82,251.803S381.39,16.787,251.803,16.787 M251.803,503.607C112.959,503.607,0,390.648,0,251.803
		S112.959,0,251.803,0s251.803,112.959,251.803,251.803S390.648,503.607,251.803,503.607"/>
	<path style="fill:#CA3E49;" d="M251.803,50.361c-111.07,0-201.443,90.372-201.443,201.443s90.372,201.443,201.443,201.443
		s201.443-90.372,201.443-201.443S362.874,50.361,251.803,50.361 M251.803,470.033c-120.328,0-218.229-97.893-218.229-218.229
		S131.475,33.574,251.803,33.574s218.23,97.893,218.23,218.229S372.132,470.033,251.803,470.033"/>
	<path style="fill:#CA3E49;" d="M251.803,411.279c-4.633,0-8.393-3.752-8.393-8.393v-83.934c0-4.642,3.76-8.393,8.393-8.393
		c4.633,0,8.393,3.752,8.393,8.393v83.934C260.197,407.527,256.436,411.279,251.803,411.279"/>
	<path style="fill:#CA3E49;" d="M251.803,193.049c-4.633,0-8.393-3.752-8.393-8.393v-83.934c0-4.642,3.76-8.393,8.393-8.393
		c4.633,0,8.393,3.752,8.393,8.393v83.934C260.197,189.297,256.436,193.049,251.803,193.049"/>
	<path style="fill:#CA3E49;" d="M184.656,260.197h-83.934c-4.633,0-8.393-3.752-8.393-8.393c0-4.642,3.76-8.393,8.393-8.393h83.934
		c4.633,0,8.393,3.752,8.393,8.393C193.049,256.445,189.289,260.197,184.656,260.197"/>
	<path style="fill:#CA3E49;" d="M402.885,260.197h-83.934c-4.633,0-8.393-3.752-8.393-8.393c0-4.642,3.76-8.393,8.393-8.393h83.934
		c4.633,0,8.393,3.752,8.393,8.393C411.279,256.445,407.518,260.197,402.885,260.197"/>
	<path style="fill:#CA3E49;" d="M235.016,251.803c0,9.275,7.512,16.787,16.787,16.787c9.275,0,16.787-7.512,16.787-16.787
		s-7.512-16.787-16.787-16.787C242.529,235.016,235.016,242.529,235.016,251.803"/>
</g>
</svg>