<?xml version="1.0" encoding="iso-8859-1"?>
<!-- Uploaded to: SVG Repo, www.svgrepo.com, Generator: SVG Repo Mixer Tools -->
<svg fill="#000000" height="800px" width="800px" version="1.1" id="Layer_1" xmlns="http://www.w3.org/2000/svg" xmlns:xlink="http://www.w3.org/1999/xlink" 
	 viewBox="0 0 503.607 503.607" xml:space="preserve">
<g transform="translate(1 1)">
	<g>
		<g>
			<path d="M250.803-1C112.311-1-1,111.472-1,250.803s113.311,251.803,251.803,251.803s251.803-113.311,251.803-251.803
				S389.295-1,250.803-1z M250.803,485.82c-129.259,0-235.016-105.757-235.016-235.016S121.544,15.787,250.803,15.787
				S485.82,121.544,485.82,250.803S380.062,485.82,250.803,485.82z"/>
			<path d="M250.803,32.574c-120.026,0-218.229,98.203-218.229,218.229c0,120.866,98.203,218.23,218.229,218.23
				s218.23-97.364,218.23-218.23C469.033,130.777,370.829,32.574,250.803,32.574z M250.803,452.246
				c-110.793,0-201.443-90.649-201.443-201.443S140.01,49.361,250.803,49.361s201.443,90.649,201.443,201.443
				S361.597,452.246,250.803,452.246z"/>
			<path d="M250.803,326.344c-5.036,0-8.393,3.357-8.393,8.393v67.148c0,5.036,3.357,8.393,8.393,8.393s8.393-3.357,8.393-8.393
				v-67.148C259.197,329.702,255.839,326.344,250.803,326.344z"/>
			<path d="M250.803,175.262c5.036,0,8.393-3.357,8.393-8.393V99.721c0-5.036-3.357-8.393-8.393-8.393s-8.393,3.357-8.393,8.393
				v67.148C242.41,171.905,245.767,175.262,250.803,175.262z"/>
			<path d="M166.869,242.41H99.721c-5.036,0-8.393,3.357-8.393,8.393s3.357,8.393,8.393,8.393h67.148
				c5.036,0,8.393-3.357,8.393-8.393S171.905,242.41,166.869,242.41z"/>
			<path d="M401.885,242.41h-67.148c-5.036,0-8.393,3.357-8.393,8.393s3.357,8.393,8.393,8.393h67.148
				c5.036,0,8.393-3.357,8.393-8.393S406.921,242.41,401.885,242.41z"/>
			<path d="M284.377,242.41h-25.18v-25.18c0-5.036-3.357-8.393-8.393-8.393s-8.393,3.357-8.393,8.393v25.18h-25.18
				c-5.036,0-8.393,3.357-8.393,8.393s3.357,8.393,8.393,8.393h25.18v25.18c0,5.036,3.357,8.393,8.393,8.393
				s8.393-3.357,8.393-8.393v-25.18h25.18c5.036,0,8.393-3.357,8.393-8.393S289.413,242.41,284.377,242.41z"/>
		</g>
	</g>
</g>
</svg>