<?xml version="1.0" encoding="iso-8859-1"?>
<!-- Uploaded to: SVG Repo, www.svgrepo.com, Generator: SVG Repo Mixer Tools -->
<svg fill="#000000" height="800px" width="800px" version="1.1" id="Layer_1" xmlns="http://www.w3.org/2000/svg" xmlns:xlink="http://www.w3.org/1999/xlink" 
	 viewBox="0 0 512 512" xml:space="preserve">
<g>
	<g>
		<g>
			<path d="M256,0C114.618,0,0,114.618,0,256s114.618,256,256,256s256-114.618,256-256S397.382,0,256,0z M256,469.333
				c-117.818,0-213.333-95.515-213.333-213.333S138.182,42.667,256,42.667S469.333,138.182,469.333,256S373.818,469.333,256,469.333
				z"/>
			<path d="M256,341.333c-11.782,0-21.333,9.551-21.333,21.333v64c0,11.782,9.551,21.333,21.333,21.333s21.333-9.551,21.333-21.333
				v-64C277.333,350.885,267.782,341.333,256,341.333z"/>
			<path d="M256,64c-11.782,0-21.333,9.551-21.333,21.333v64c0,11.782,9.551,21.333,21.333,21.333s21.333-9.551,21.333-21.333v-64
				C277.333,73.551,267.782,64,256,64z"/>
			<path d="M149.333,234.667h-64C73.551,234.667,64,244.218,64,256s9.551,21.333,21.333,21.333h64
				c11.782,0,21.333-9.551,21.333-21.333S161.115,234.667,149.333,234.667z"/>
			<path d="M426.667,234.667h-64c-11.782,0-21.333,9.551-21.333,21.333s9.551,21.333,21.333,21.333h64
				c11.782,0,21.333-9.551,21.333-21.333S438.449,234.667,426.667,234.667z"/>
			<path d="M256,234.667c-11.776,0-21.333,9.557-21.333,21.333s9.557,21.333,21.333,21.333s21.333-9.557,21.333-21.333
				S267.776,234.667,256,234.667z"/>
		</g>
	</g>
</g>
</svg>