<?xml version="1.0" encoding="iso-8859-1"?>
<!-- Uploaded to: SVG Repo, www.svgrepo.com, Generator: SVG Repo Mixer Tools -->
<svg version="1.1" id="Layer_1" xmlns="http://www.w3.org/2000/svg" xmlns:xlink="http://www.w3.org/1999/xlink" 
	 viewBox="0 0 460 460" xml:space="preserve">
<g id="XMLID_987_">
	<path id="XMLID_988_" style="fill:#967151;" d="M295.12,316.93l-50.24-3.86C222.95,311.38,205,328,205,350v20l65,10l65-10v-10
		C335,338,317.05,318.62,295.12,316.93z"/>
	<path id="XMLID_989_" style="fill:#624950;" d="M205,370v20c0,22,17.95,38.62,39.88,36.93l50.24-3.86
		C317.05,421.38,335,402,335,380v-10H205z"/>
	<polygon id="XMLID_990_" style="fill:#C53E16;" points="345,0 335,150 345,300 375,300 375,0 	"/>
	<rect id="XMLID_991_" x="315" style="fill:#DA521B;" width="30" height="300"/>
	<polygon id="XMLID_992_" style="fill:#AF2B12;" points="345,280 325,370 345,460 395,460 395,280 	"/>
	<rect id="XMLID_993_" x="295" y="280" style="fill:#C53E16;" width="50" height="180"/>
	<path id="XMLID_994_" style="fill:#967151;" d="M255,90v20c0,22-17.95,38.62-39.88,36.93l-50.24-3.86
		C142.95,141.38,125,122,125,100V90l65-10L255,90z"/>
	<path id="XMLID_995_" style="fill:#CB9851;" d="M255,70v20H125V80c0-22,17.95-41.38,39.88-43.07l50.24-3.86
		C237.05,31.38,255,48,255,70z"/>
	<polygon id="XMLID_996_" style="fill:#DA521B;" points="145,160 145,460 115,460 105,310 115,160 	"/>
	<rect id="XMLID_997_" x="85" y="160" style="fill:#F0651F;" width="30" height="300"/>
	<polygon id="XMLID_998_" style="fill:#C53E16;" points="165,0 165,180 115,180 95,90 115,0 	"/>
	<rect id="XMLID_999_" x="65" style="fill:#DA521B;" width="50" height="180"/>
</g>
</svg>