<?xml version="1.0" encoding="iso-8859-1"?>
<!-- Uploaded to: SVG Repo, www.svgrepo.com, Generator: SVG Repo Mixer Tools -->
<svg height="800px" width="800px" version="1.1" id="Layer_1" xmlns="http://www.w3.org/2000/svg" xmlns:xlink="http://www.w3.org/1999/xlink" 
	 viewBox="0 0 460 460" xml:space="preserve">
<g id="XMLID_244_">
	<polygon id="XMLID_245_" style="fill:#DA521B;" points="113.2,43.24 113.2,13.24 78.2,13.24 58.2,38.24 78.2,63.24 	"/>
	<polygon id="XMLID_307_" style="fill:#DA521B;" points="78.2,460 113.2,460 113.2,118.24 78.2,98.24 58.2,279.12 	"/>
	<polygon id="XMLID_308_" style="fill:#F0651F;" points="78.2,13.24 43.2,13.24 43.2,43.24 78.2,63.24 	"/>
	<polygon id="XMLID_309_" style="fill:#F0651F;" points="43.2,118.24 43.2,460 78.2,460 78.2,98.24 	"/>
	<polygon id="XMLID_311_" style="fill:#66DBBF;" points="93.2,60.74 286.8,80.74 223.99,150.88 113.2,118.24 	"/>
	<polygon id="XMLID_312_" style="fill:#A3E9D9;" points="223.99,10.6 113.2,43.24 23.2,43.24 23.2,118.24 113.205,118.24 
		113.205,80.74 286.8,80.74 	"/>
	<path id="XMLID_333_" style="fill:#5CAE96;" d="M246.8,80.74l20-20l20,20c0,30.2-9.78,58.11-26.35,80.74l-36.46-10.6
		C238.84,130.42,246.8,106.13,246.8,80.74z"/>
	<path id="XMLID_334_" style="fill:#66DBBF;" d="M286.8,80.74h-40c0-25.39-7.96-49.68-22.81-70.14L260.45,0
		C277.02,22.63,286.8,50.54,286.8,80.74z"/>
	<polygon id="XMLID_38_" style="fill:#DA521B;" points="346.8,416.76 346.8,446.76 381.8,446.76 401.8,421.76 381.8,396.76 	"/>
	<polygon id="XMLID_37_" style="fill:#DA521B;" points="381.8,0 346.8,0 346.8,341.76 381.8,361.76 401.8,180.88 	"/>
	<polygon id="XMLID_36_" style="fill:#C53E16;" points="381.8,446.76 416.8,446.76 416.8,416.76 381.8,396.76 	"/>
	<polygon id="XMLID_35_" style="fill:#C53E16;" points="416.8,341.76 416.8,0 381.8,0 381.8,361.76 	"/>
	<polygon id="XMLID_34_" style="fill:#5CAE96;" points="366.8,359.26 173.2,379.26 236.01,449.4 346.8,416.76 	"/>
	<polygon id="XMLID_33_" style="fill:#66DBBF;" points="236.01,309.12 346.8,341.76 436.8,341.76 436.8,416.76 346.796,416.76 
		346.796,379.26 173.2,379.26 	"/>
	<path id="XMLID_32_" style="fill:#51816D;" d="M213.2,379.26l-20-20l-20,20c0,30.2,9.78,58.11,26.35,80.74l36.46-10.6
		C221.16,428.94,213.2,404.65,213.2,379.26z"/>
	<path id="XMLID_3_" style="fill:#5CAE96;" d="M173.2,379.26h40c0-25.39,7.96-49.68,22.81-70.14l-36.46-10.6
		C182.98,321.15,173.2,349.06,173.2,379.26z"/>
</g>
</svg>