<?xml version="1.0" encoding="iso-8859-1"?>
<!-- Uploaded to: SVG Repo, www.svgrepo.com, Generator: SVG Repo Mixer Tools -->
<svg version="1.1" id="Layer_1" xmlns="http://www.w3.org/2000/svg" xmlns:xlink="http://www.w3.org/1999/xlink" 
	 viewBox="0 0 460 460" xml:space="preserve">
<g id="XMLID_1164_">
	<polygon id="XMLID_1165_" style="fill:#DA521B;" points="121.333,347.216 121.333,410.008 177.333,410.008 177.333,357.216 	"/>
	<path id="XMLID_1166_" style="fill:#AF2B12;" d="M0,320.005v40.002c16.569,0,30.002-13.432,30.002-30.002l10-20.001l-10-20.001
		C13.432,290.003,0,303.435,0,320.005z"/>
	<path id="XMLID_1167_" style="fill:#F0651F;" d="M89.152,154.596c-32.533,5.534-59.15,37.063-59.15,70.063v185.349h56v-52.792
		h91.331l20-109.124l-20-109.124L89.152,154.596z"/>
	<rect id="XMLID_1168_" x="59.999" y="247.214" style="fill:#DA521B;" width="30.002" height="60.002"/>
	<polygon id="XMLID_1169_" style="fill:#AF2B12;" points="303.995,347.216 303.995,410.008 359.995,410.008 359.995,357.216 	"/>
	<polygon id="XMLID_1170_" style="fill:#F9D4A0;" points="429.998,49.992 460,49.992 460,156.123 429.998,169.996 	"/>
	<rect id="XMLID_1171_" x="381.869" y="99.992" style="fill:#F9D4A0;" width="26.251" height="70.003"/>
	<path id="XMLID_1172_" style="fill:#AF2B12;" d="M359.99,79.991l0.004,46.955l-30.006,13.048v-30.002
		C329.989,93.424,343.421,79.991,359.99,79.991z"/>
	<path id="XMLID_1173_" style="fill:#F0651F;" d="M460,156.123v27.533c0,22.001-18.001,40.002-40.002,40.002h-60.003l-20-49.088
		l20-47.625L460,156.123z"/>
	<path id="XMLID_1174_" style="fill:#DA521B;" d="M359.995,126.946c0,0-13.275-3.874-30.002-8.753V79.991
		c-16.386,0-29.695,13.138-29.988,29.454c-19.896-5.802-37.065-10.807-37.059-10.794c-6.367-1.856-13.077-2.87-20.029-2.87
		c-29.409,0-54.663,17.788-65.584,43.185v218.248h35.331v52.792h56v-52.792h91.331V126.946z"/>
	<rect id="XMLID_1175_" x="299.993" y="253.908" style="fill:#AF2B12;" width="30.002" height="60.002"/>
	<rect id="XMLID_1176_" x="207.333" y="223.906" style="fill:#AF2B12;" width="30.002" height="60.002"/>
	<rect id="XMLID_1177_" x="237.333" y="133.906" style="fill:#AF2B12;" width="30.002" height="60.002"/>
</g>
</svg>