<?xml version="1.0" encoding="iso-8859-1"?>
<!-- Uploaded to: SVG Repo, www.svgrepo.com, Generator: SVG Repo Mixer Tools -->
<svg version="1.1" id="Layer_1" xmlns="http://www.w3.org/2000/svg" xmlns:xlink="http://www.w3.org/1999/xlink" 
	 viewBox="0 0 460.001 460.001" xml:space="preserve">
<g id="XMLID_1001_">
	<polygon id="XMLID_45_" style="fill:#AF2B12;" points="460.001,419.695 419.696,460 230.001,270.305 244.143,242.021 270.306,230 	
		"/>
	
		<rect id="XMLID_44_" x="173.593" y="172.095" transform="matrix(-0.7071 0.7071 -0.7071 -0.7071 487.8972 202.0964)" style="fill:#FFC052;" width="56.999" height="59.999"/>
	<polygon id="XMLID_43_" style="fill:#FFC052;" points="73.54,47.376 0.001,120.915 0.001,40.305 	"/>
	<polygon id="XMLID_42_" style="fill:#FFC052;" points="113.54,87.376 40.001,160.915 40.001,80.305 	"/>
	<polygon id="XMLID_41_" style="fill:#FFC052;" points="153.54,127.376 80.001,200.915 80.001,120.305 	"/>
	<polygon id="XMLID_40_" style="fill:#FFC052;" points="160.73,201.034 120.425,241.339 120.425,160.729 147.649,173.811 	"/>
	
		<rect id="XMLID_39_" x="72.016" y="-13.135" transform="matrix(-0.7071 0.7071 -0.7071 -0.7071 242.6677 100.5174)" style="fill:#CB9851;" width="56.999" height="227.303"/>
	<polygon id="XMLID_38_" style="fill:#F0651F;" points="0.001,419.695 40.306,460 230.001,270.305 222.551,237.45 189.696,230 	"/>
	<polygon id="XMLID_37_" style="fill:#FFEBCF;" points="189.696,230 230.001,270.305 251.214,249.092 238.133,221.868 
		210.909,208.787 	"/>
	<polygon id="XMLID_36_" style="fill:#F9D4A0;" points="258.967,160.729 210.909,208.787 251.214,249.092 299.272,201.034 
		286.19,173.811 	"/>
	<polygon id="XMLID_35_" style="fill:#F9D4A0;" points="386.462,47.376 460.001,120.915 460.001,40.305 	"/>
	<polygon id="XMLID_34_" style="fill:#F9D4A0;" points="346.462,87.376 420.001,160.915 420.001,80.305 	"/>
	<polygon id="XMLID_33_" style="fill:#F9D4A0;" points="306.462,127.376 380.001,200.915 380.001,120.305 	"/>
	<polygon id="XMLID_32_" style="fill:#F9D4A0;" points="299.272,201.034 339.577,241.339 339.577,160.729 305.282,166.74 	"/>
	
		<rect id="XMLID_3_" x="330.985" y="-13.131" transform="matrix(0.7071 0.7071 -0.7071 0.7071 176.3695 -224.7523)" style="fill:#FFC052;" width="56.999" height="227.303"/>
</g>
</svg>