<?xml version="1.0" encoding="iso-8859-1"?>
<!-- Uploaded to: SVG Repo, www.svgrepo.com, Generator: SVG Repo Mixer Tools -->
<svg version="1.1" id="Layer_1" xmlns="http://www.w3.org/2000/svg" xmlns:xlink="http://www.w3.org/1999/xlink" 
	 viewBox="0 0 460 460" xml:space="preserve">
<g id="XMLID_787_">
	<polygon id="XMLID_788_" style="fill:#DA521B;" points="288.429,211.261 271.222,235.835 301.53,257.057 318.737,232.483 
		312.336,210.999 	"/>
	<polygon id="XMLID_789_" style="fill:#FFC052;" points="322.841,162.115 303.033,166.123 305.634,186.689 327.384,220.135 
		353.15,183.337 	"/>
	<polygon id="XMLID_790_" style="fill:#F9D4A0;" points="401.556,253.855 327.384,220.135 353.15,183.337 394.189,212.073 	"/>
	<polygon id="XMLID_791_" style="fill:#CB9851;" points="305.632,186.688 286.587,195.611 288.429,211.266 384.349,278.429 
		401.556,253.855 	"/>
	<polygon id="XMLID_792_" style="fill:#FFC052;" points="119.909,80.667 182.768,100.657 203.333,97.667 199.972,76.081 148.444,40 
			"/>
	<polygon id="XMLID_793_" style="fill:#CB9851;" points="131.236,64.574 114.029,89.149 148.445,113.248 148.398,125.231 
		165.559,125.231 182.768,100.657 	"/>
	<path id="XMLID_794_" style="fill:#DA521B;" d="M165.56,125.232l-17.117-11.99V40c0-22-16.875-40-37.5-40h-7.5l-30,230l30,230h45
		V149.679l17.931-5.929L165.56,125.232z"/>
	<rect id="XMLID_795_" x="58.444" style="fill:#F0651F;" width="45" height="460"/>
	<polygon id="XMLID_796_" style="fill:#FFEBCF;" points="172.884,167.073 148.444,149.679 199.929,76.145 224.503,93.352 
		208.738,140.149 	"/>
	<polygon id="XMLID_797_" style="fill:#F9D4A0;" points="197.458,184.28 172.884,167.073 224.503,93.352 249.078,110.559 
		233.972,156.414 	"/>
	<polygon id="XMLID_798_" style="fill:#FFEBCF;" points="222.033,201.487 197.458,184.28 249.078,110.559 273.652,127.766 
		258.205,174.11 	"/>
	<polygon id="XMLID_799_" style="fill:#F9D4A0;" points="246.607,218.694 222.033,201.487 273.652,127.766 298.227,144.974 
		283.063,190.911 	"/>
	
		<rect id="XMLID_800_" x="269.712" y="145.453" transform="matrix(-0.8192 -0.5736 0.5736 -0.8192 408.6993 509.7676)" style="fill:#FFEBCF;" width="30.002" height="90.001"/>
</g>
</svg>