<?xml version="1.0" encoding="iso-8859-1"?>
<!-- Uploaded to: SVG Repo, www.svgrepo.com, Generator: SVG Repo Mixer Tools -->
<svg version="1.1" id="Layer_1" xmlns="http://www.w3.org/2000/svg" xmlns:xlink="http://www.w3.org/1999/xlink" 
	 viewBox="0 0 460.5 460.5" xml:space="preserve">
<g id="XMLID_1002_">
	<rect id="XMLID_1003_" x="215.25" style="fill:#F9D4A0;" width="30" height="90.833"/>
	<polygon id="XMLID_1004_" style="fill:#FFEBCF;" points="230.25,76.457 219.037,107.671 156.87,45.504 178.084,24.291 	"/>
	<polygon id="XMLID_1005_" style="fill:#FFC052;" points="230.25,76.457 241.463,107.671 303.63,45.504 282.416,24.291 	"/>
	<path id="XMLID_1006_" style="fill:#967151;" d="M443.607,289.814v68.433l-20,92.253l-193.357-20l-20-162.021l20-192.021
		C347.893,76.457,443.607,172.171,443.607,289.814z"/>
	<path id="XMLID_1007_" style="fill:#CB9851;" d="M230.25,76.457V430.5l-193.357,20l-20-92.253v-68.433
		C16.893,172.171,112.607,76.457,230.25,76.457z"/>
	<path id="XMLID_1008_" style="fill:#3C261B;" d="M369.396,289.814V450.5l-139.146-20l-10-124.916l10-154.916
		C307.096,150.669,369.396,212.969,369.396,289.814z"/>
	<path id="XMLID_1009_" style="fill:#624950;" d="M230.25,150.669V430.5l-139.146,20V289.814
		C91.104,212.969,153.404,150.669,230.25,150.669z"/>
	<polygon id="XMLID_1010_" style="fill:#967151;" points="325.888,430.5 134.612,430.5 153.74,460.5 306.76,460.5 	"/>
	<path id="XMLID_1011_" style="fill:#FFC052;" d="M153.74,460.5V338.795l22.938-22.938c14.807-14.807,14.807-38.807,0-53.615
		c-14.807-14.807-38.807-14.807-53.615,0l-15.28,15.28l-10,91.489l10,91.489L153.74,460.5L153.74,460.5z"/>
	<path id="XMLID_1012_" style="fill:#F9D4A0;" d="M38.889,315.857l22.938,22.938v62.206l-10,29.749l10,29.749h45.957V277.522
		l-15.28-15.28c-14.807-14.807-38.807-14.807-53.615,0C24.081,277.05,24.081,301.05,38.889,315.857z"/>
	<path id="XMLID_1013_" style="fill:#FFEBCF;" d="M73.041,363.577c-7.239-7.239-18.972-7.239-26.211,0l-7.47,7.47l-7.47-7.47
		c-7.239-7.239-18.972-7.239-26.211,0s-7.239,18.972,0,26.211l11.214,11.214V460.5h44.934v-59.498l11.214-11.214
		C80.279,382.549,80.279,370.816,73.041,363.577z"/>
	<path id="XMLID_1014_" style="fill:#CB9851;" d="M398.673,460.5l10-29.749l-10-29.749v-62.207l22.938-22.938
		c14.807-14.807,14.807-38.807,0-53.615c-14.807-14.807-38.807-14.807-53.615,0l-15.28,15.28l-10,91.489l10,91.489L398.673,460.5
		L398.673,460.5z"/>
	<path id="XMLID_1015_" style="fill:#FFC052;" d="M283.822,315.857l22.938,22.938V460.5h45.957V277.522l-15.28-15.28
		c-14.807-14.807-38.807-14.807-53.615,0C269.015,277.05,269.015,301.05,283.822,315.857z"/>
	<path id="XMLID_1016_" style="fill:#F9D4A0;" d="M387.459,363.577c7.239-7.239,18.972-7.239,26.211,0l7.47,7.47l7.47-7.47
		c7.239-7.239,18.972-7.239,26.211,0s7.239,18.972,0,26.211l-11.214,11.214V460.5h-44.934v-59.498l-11.214-11.214
		C380.221,382.549,380.221,370.816,387.459,363.577z"/>
</g>
</svg>