<?xml version="1.0" encoding="iso-8859-1"?>
<!-- Uploaded to: SVG Repo, www.svgrepo.com, Generator: SVG Repo Mixer Tools -->
<svg version="1.1" id="Layer_1" xmlns="http://www.w3.org/2000/svg" xmlns:xlink="http://www.w3.org/1999/xlink" 
	 viewBox="0 0 459.58 459.58" xml:space="preserve">
<g id="XMLID_972_">
	<path id="XMLID_40_" style="fill:#FFC052;" d="M175.591,368.017l-21.213,21.213v32.439c0,20.941-16.97,37.911-37.911,37.911
		s-37.911-16.97-37.911-37.911v-21.608l22.266-50.55l50.55-22.266L175.591,368.017z"/>
	<path id="XMLID_39_" style="fill:#F9D4A0;" d="M56.947,324.238h32.439l21.213-21.213l40.773,24.219l-72.817,72.817H56.947
		c-20.941,0-37.911-16.97-37.911-37.911C19.035,341.209,36.006,324.238,56.947,324.238z"/>
	<path id="XMLID_38_" style="fill:#FFC052;" d="M431.295,24.756l-107.866,79.581l-79.581,107.866l59.023,28.535l110.754-110.744
		C442.085,101.533,447.983,59.036,431.295,24.756z"/>
	<path id="XMLID_37_" style="fill:#F9D4A0;" d="M413.624,0L237.878,175.746l5.97,36.457L431.295,24.756
		C426.946,15.811,421.056,7.432,413.624,0z"/>
	<polygon id="XMLID_36_" style="fill:#F58330;" points="175.591,368.017 110.599,303.025 131.812,281.812 171.38,307.237 
		196.805,346.804 	"/>
	<polygon id="XMLID_35_" style="fill:#F0651F;" points="196.805,346.804 131.812,281.812 153.026,260.599 192.593,286.024 
		218.018,325.591 	"/>
	<polygon id="XMLID_34_" style="fill:#F58330;" points="218.018,325.591 153.026,260.599 174.239,239.386 213.806,264.811 
		239.231,304.378 	"/>
	<polygon id="XMLID_33_" style="fill:#F0651F;" points="239.231,304.378 174.239,239.386 195.452,218.172 235.019,243.597 
		260.444,283.165 	"/>
	<polygon id="XMLID_32_" style="fill:#F58330;" points="260.444,283.165 195.452,218.172 216.665,196.959 256.232,222.384 
		281.657,261.951 	"/>
	
		<rect id="XMLID_3_" x="213.811" y="203.845" transform="matrix(-0.7071 -0.7071 0.7071 -0.7071 288.7033 557.2755)" style="fill:#F0651F;" width="91.912" height="30"/>
</g>
</svg>