<?xml version="1.0" encoding="iso-8859-1"?>
<!-- Uploaded to: SVG Repo, www.svgrepo.com, Generator: SVG Repo Mixer Tools -->
<svg version="1.1" id="Layer_1" xmlns="http://www.w3.org/2000/svg" xmlns:xlink="http://www.w3.org/1999/xlink" 
	 viewBox="0 0 460 460" xml:space="preserve">
<g id="XMLID_973_">
	<path id="XMLID_40_" style="fill:#FFC052;" d="M198.597,326.396l-63.254,63.254v32.439c0,20.941-16.97,37.911-37.911,37.911
		S59.52,443.03,59.52,422.089V400.48l50.55-64.693l64.693-50.55L198.597,326.396z"/>
	<path id="XMLID_39_" style="fill:#F9D4A0;" d="M37.911,324.657H70.35l63.254-63.254l41.159,23.834L59.52,400.48H37.911
		C16.97,400.48,0,383.51,0,362.569S16.97,324.657,37.911,324.657z"/>
	<polygon id="XMLID_38_" style="fill:#CB9851;" points="393.816,238.772 460,0 376.69,69.168 300.451,159.549 	"/>
	<polygon id="XMLID_37_" style="fill:#FFC052;" points="300.451,159.549 460,0 221.228,66.184 	"/>
	
		<rect id="XMLID_36_" x="292.52" y="73.836" transform="matrix(-0.7071 -0.7071 0.7071 -0.7071 462.153 369.1025)" style="fill:#CB9851;" width="30" height="30"/>
	<polygon id="XMLID_35_" style="fill:#967151;" points="393.816,238.772 262.236,262.756 222.669,237.331 258.024,187.833 
		307.522,152.478 	"/>
	<polygon id="XMLID_34_" style="fill:#CB9851;" points="307.522,152.478 222.669,237.331 197.244,197.764 221.228,66.184 	"/>
	<polygon id="XMLID_33_" style="fill:#FFEBCF;" points="198.597,326.396 133.604,261.403 154.818,240.19 194.385,265.615 
		219.81,305.182 	"/>
	<polygon id="XMLID_32_" style="fill:#F9D4A0;" points="219.81,305.182 154.818,240.19 176.031,218.977 215.598,244.402 
		241.023,283.969 	"/>
	
		<rect id="XMLID_3_" x="173.178" y="225.863" transform="matrix(-0.7071 -0.7071 0.7071 -0.7071 203.7693 566.1298)" style="fill:#FFEBCF;" width="91.912" height="30"/>
</g>
</svg>