<?xml version="1.0" encoding="iso-8859-1"?>
<!-- Uploaded to: SVG Repo, www.svgrepo.com, Generator: SVG Repo Mixer Tools -->
<svg version="1.1" id="Layer_1" xmlns="http://www.w3.org/2000/svg" xmlns:xlink="http://www.w3.org/1999/xlink" 
	 viewBox="0 0 460 460" xml:space="preserve">
<g id="XMLID_89_">
	<polygon id="XMLID_90_" style="fill:#FFC052;" points="183.96,0 230,335 65,315 65,0 	"/>
	<polygon id="XMLID_91_" style="fill:#967151;" points="344.236,0 230,68.2 230,345 395,315 395,0 	"/>
	<polygon id="XMLID_92_" style="fill:#CB9851;" points="344.236,0 276.035,68.2 276.035,0 	"/>
	<polygon id="XMLID_93_" style="fill:#624950;" points="395,315 395,379.998 372.167,437.167 315,460 230,460 210,315 	"/>
	<rect id="XMLID_102_" x="65" y="315" style="fill:#CB9851;" width="165" height="145"/>
	<polygon id="XMLID_103_" style="fill:#967151;" points="315,460 395,380 395,460 	"/>
	<polygon id="XMLID_104_" style="fill:#624950;" points="276.04,0 276.04,68.2 210,88.2 230,0 	"/>
	<polygon id="XMLID_105_" style="fill:#967151;" points="230,0 230,88.2 183.96,68.2 183.96,0 	"/>
	<path id="XMLID_106_" style="fill:#A3E9D9;" d="M276.035,178.686V68.2H230L200,230l30,161.8c37.074,0,71.337-12.006,99.117-32.348
		L276.035,178.686z"/>
	<path id="XMLID_107_" style="fill:#FFEBCF;" d="M183.964,178.686V68.2H230v323.6c-37.074,0-71.337-12.006-99.117-32.348
		L183.964,178.686z"/>
</g>
</svg>