<?xml version="1.0" encoding="iso-8859-1"?>
<!-- Uploaded to: SVG Repo, www.svgrepo.com, Generator: SVG Repo Mixer Tools -->
<svg height="800px" width="800px" version="1.1" id="Layer_1" xmlns="http://www.w3.org/2000/svg" xmlns:xlink="http://www.w3.org/1999/xlink" 
	 viewBox="0 0 460 460" xml:space="preserve">
<g id="XMLID_2_">
	<path id="XMLID_4_" style="fill:#5CAE96;" d="M220,356.652l10,84.04c118.74,0,215-85.8,215-191.63
		c0-61.55-32.56-116.33-83.16-151.39l-20.91,0.51l40.71,35.68C381.64,222.542,319.49,356.652,220,356.652z"/>
	<path id="XMLID_5_" style="fill:#66DBBF;" d="M220,312.622l10,64.03c99.49,0,180.44-72.14,180.44-160.82
		c0-29.92-10.24-58.39-28.8-81.97l-40.71-35.68c21.79,22.71,34.94,52.2,34.94,84.42C375.87,254.412,300.56,312.622,220,312.622z"/>
	<path id="XMLID_6_" style="fill:#66DBBF;" d="M230,376.652v64.04c-118.74,0-215-85.8-215-191.63c0-61.55,32.56-116.33,83.16-151.39
		l20.91,0.51l-40.71,35.68C78.36,222.542,105,296.333,230,376.652z"/>
	<path id="XMLID_7_" style="fill:#A3E9D9;" d="M230,312.622v64.03c-99.49,0-180.44-72.14-180.44-160.82
		c0-29.92,10.24-58.39,28.8-81.97l40.71-35.68c-21.79,22.71-34.94,52.2-34.94,84.42C84.13,254.412,149.44,312.622,230,312.622z"/>
	<path id="XMLID_8_" style="fill:#A3E9D9;" d="M137.14,82.332l45.58-39.96h11.99l-54.16,37.52
		C139.4,80.692,138.26,81.502,137.14,82.332z"/>
	<path id="XMLID_9_" style="fill:#A3E9D9;" d="M322.86,82.332l-45.58-39.96h-11.99l54.16,37.52
		C320.6,80.692,321.74,81.502,322.86,82.332z"/>
	<path id="XMLID_10_" style="fill:#51816D;" d="M435.477,156.09c-15.41-27.454-37.919-51.918-65.093-70.746l-61.587-42.672
		L280,4.312c-16.57,0-30,13.43-30,30c0,10.397,5.289,19.555,13.321,24.938c12.215,8.42,47.586,32.971,47.586,32.971
		c31.753,22.001,49.964,54.942,49.964,90.38c0,63.42-58.709,115.016-130.871,115.016l-10,15l10,15
		c88.705,0,160.871-65.054,160.871-145.016c0-16.915-3.183-33.344-9.236-48.735C412.711,165.636,430,206.134,430,249.057
		c0,97.395-89.72,176.631-200,176.631l-10,15l10,15c61.113,0,118.649-21.283,162.009-59.93C435.854,356.679,460,304.58,460,249.057
		C460,216.359,451.749,185.081,435.477,156.09z"/>
	<path id="XMLID_11_" style="fill:#5CAE96;" d="M280,4.312c16.57,0,30,13.43,30,30s-13.43,30-30,30V4.312z"/>
	<path id="XMLID_12_" style="fill:#5CAE96;" d="M230,327.617v-30c-72.162,0-130.871-51.596-130.871-115.016
		c0-35.438,18.211-68.379,49.964-90.38c0,0,35.376-24.554,47.589-32.973C204.713,53.865,210,44.708,210,34.312
		c0-16.57-13.43-30-30-30l-28.796,38.36L89.616,85.344c-27.174,18.828-49.683,43.292-65.093,70.746
		C8.251,185.081,0,216.359,0,249.057c0,55.522,24.146,107.622,67.991,146.701c43.359,38.646,100.896,59.93,162.009,59.93v-30
		c-110.28,0-200-79.236-200-176.631c0-42.923,17.289-83.421,48.365-115.191c-6.053,15.391-9.236,31.82-9.236,48.735
		C69.129,262.563,141.295,327.617,230,327.617z"/>
	<path id="XMLID_13_" style="fill:#66DBBF;" d="M180,4.312v60c-16.57,0-30-13.43-30-30S163.43,4.312,180,4.312z"/>
</g>
</svg>