<?xml version="1.0" encoding="iso-8859-1"?>
<!-- Uploaded to: SVG Repo, www.svgrepo.com, Generator: SVG Repo Mixer Tools -->
<svg height="800px" width="800px" version="1.1" id="Layer_1" xmlns="http://www.w3.org/2000/svg" xmlns:xlink="http://www.w3.org/1999/xlink" 
	 viewBox="0 0 460.01 460.01" xml:space="preserve">
<g id="XMLID_944_">
	<path id="XMLID_35_" style="fill:#F0651F;" d="M324.687,460.01c-0.001-3.062-0.148-306.399,0-331.113l29.999,0.18
		c-0.147,24.618-0.001,327.858,0,330.918L324.687,460.01z"/>
	<path id="XMLID_34_" style="fill:#FFC052;" d="M442.648,17.354L424.97,20.89l-3.535,17.678c11.267,11.267,11.267,29.599,0,40.866
		s-29.6,11.267-40.867,0l-208.607,166.18L5.781,454.221c7.369,7.368,19.102,7.69,26.862,0.992l406.764-351.042
		c1.111-0.957,2.186-1.949,3.241-3.003C465.787,78.028,465.794,40.501,442.648,17.354z"/>
	<path id="XMLID_33_" style="fill:#F0651F;" d="M390.299,69.512c-8.78-8.779-19.103-15.338-30.683-19.494l10.134-28.236
		c15.778,5.662,29.829,14.584,41.762,26.518l-3.535,17.678L390.299,69.512z"/>
	<path id="XMLID_32_" style="fill:#F9D4A0;" d="M380.569,38.567c11.267-11.267,29.599-11.266,40.866,0l21.213-21.213
		c-23.139-23.139-60.674-23.139-83.813,0c-1.055,1.055-2.039,2.137-2.996,3.248L4.796,427.366
		c-6.698,7.76-6.377,19.493,0.985,26.855L380.568,79.434C369.302,68.167,369.301,49.835,380.569,38.567z"/>
	<path id="XMLID_3_" style="fill:#DA521B;" d="M444.687,341.818h-30V128.986c0-22.627-8.661-43.748-24.388-59.475l21.213-21.213
		c21.393,21.392,33.175,50.047,33.175,80.688V341.818z"/>
</g>
</svg>