<?xml version="1.0" encoding="iso-8859-1"?>
<!-- Uploaded to: SVG Repo, www.svgrepo.com, Generator: SVG Repo Mixer Tools -->
<svg version="1.1" id="Layer_1" xmlns="http://www.w3.org/2000/svg" xmlns:xlink="http://www.w3.org/1999/xlink" 
	 viewBox="0 0 460.5 460.5" xml:space="preserve">
<g id="XMLID_467_">
	<path id="XMLID_468_" style="fill:#967151;" d="M211.909,350.5c0,44.183,35.817,80,80,80h88.341c44.183,0,80-35.817,80-80
		l-124.171-20L211.909,350.5z"/>
	<path id="XMLID_469_" style="fill:#CB9851;" d="M0.25,350.5c0,60.751,49.249,110,110,110h121.469c60.751,0,110-49.249,110-110
		l-170.735-10L0.25,350.5z"/>
	<path id="XMLID_470_" style="fill:#F0651F;" d="M267.286,128.888c14.893,19.988,23.699,44.769,23.699,71.612
		c0,66.274-53.727,120-120,120l-20-160.25l20-160.25L267.286,128.888z"/>
	<path id="XMLID_472_" style="fill:#F58330;" d="M170.985,320.5c-66.274,0-120-53.727-120-120c0-26.843,8.806-51.624,23.699-71.612
		L170.985,0V320.5z"/>
	<path id="XMLID_473_" style="fill:#FFC052;" d="M224.799,183.587c8.616,11.561,13.179,25.379,13.179,39.92
		c0,36.94-30.053,66.993-66.993,66.993l-30-89.464l30-89.464L224.799,183.587z"/>
	<path id="XMLID_474_" style="fill:#F9D4A0;" d="M170.985,111.571V290.5c-36.94,0-66.993-30.053-66.993-66.993
		c0-14.541,4.563-28.359,13.213-39.963L170.985,111.571z"/>
	<rect id="XMLID_475_" x="150.985" y="223.507" style="fill:#FFEBCF;" width="40" height="106.993"/>
	<polygon id="XMLID_476_" style="fill:#624950;" points="460.25,320.5 460.25,350.5 170.985,350.5 150.985,335.5 170.985,320.5 	"/>
	<rect id="XMLID_477_" x="0.25" y="320.5" style="fill:#967151;" width="170.735" height="30"/>
</g>
</svg>