<?xml version="1.0" encoding="iso-8859-1"?>
<!-- Uploaded to: SVG Repo, www.svgrepo.com, Generator: SVG Repo Mixer Tools -->
<svg height="800px" width="800px" version="1.1" id="Layer_1" xmlns="http://www.w3.org/2000/svg" xmlns:xlink="http://www.w3.org/1999/xlink" 
	 viewBox="0 0 460.118 460.118" xml:space="preserve">
<g id="XMLID_1093_">
	<path id="XMLID_1094_" style="fill:#CB9851;" d="M320.379,180.518l92.98,177.04c-37.84,61.53-105.78,102.56-183.3,102.56v-359.6
		L320.379,180.518z"/>
	<path id="XMLID_1095_" style="fill:#FFC052;" d="M230.059,100.518v359.6c-77.52,0-145.46-41.03-183.3-102.56l92.98-177.04
		L230.059,100.518z"/>
	<path id="XMLID_1096_" style="fill:#967151;" d="M445.059,100.518v144.6c0,41.22-11.6,79.73-31.7,112.44
		c-56.17-38.79-92.98-103.62-92.98-177.04v-80L445.059,100.518L445.059,100.518z"/>
	<path id="XMLID_1097_" style="fill:#F9D4A0;" d="M139.739,100.518v80c0,73.42-36.81,138.25-92.98,177.04
		c-20.1-32.71-31.7-71.22-31.7-112.44v-144.6L139.739,100.518L139.739,100.518z"/>
	<polygon id="XMLID_1098_" style="fill:#624950;" points="375.059,0 445.059,100.52 320.129,180.52 278.907,90.26 278.226,0 	"/>
	<polygon id="XMLID_1099_" style="fill:#CB9851;" points="181.642,0 180.206,90.26 139.739,180.52 15.059,100.52 85.059,0 	"/>
	<polygon id="XMLID_1100_" style="fill:#967151;" points="278.226,0 320.129,180.52 139.739,180.52 181.642,0 	"/>
</g>
</svg>