<?xml version="1.0" encoding="iso-8859-1"?>
<!-- Uploaded to: SVG Repo, www.svgrepo.com, Generator: SVG Repo Mixer Tools -->
<svg version="1.1" id="Layer_1" xmlns="http://www.w3.org/2000/svg" xmlns:xlink="http://www.w3.org/1999/xlink" 
	 viewBox="0 0 460 460" xml:space="preserve">
<g id="XMLID_478_">
	<polygon id="XMLID_479_" style="fill:#624950;" points="340,20 340,94.43 230,124.43 200,20 	"/>
	<polygon id="XMLID_481_" style="fill:#967151;" points="230,20 230,124.43 120,94.43 120,20 	"/>
	<path id="XMLID_482_" style="fill:#967151;" d="M230,255l-30-80.285l30-80.285h110c60,29.05,100,81.13,100,140.57L230,255z"/>
	<path id="XMLID_483_" style="fill:#CB9851;" d="M230,94.43V255L20,235c0-59.44,40-111.52,100-140.57C120,94.43,230,94.43,230,94.43
		z"/>
	<rect id="XMLID_484_" x="170.185" y="175" style="fill:#967151;" width="30" height="30"/>
	<path id="XMLID_486_" style="fill:#624950;" d="M230,235h210c0,14.19-2.28,27.96-6.57,41.1l-60,183.9H230l-30-112.5L230,235z"/>
	<path id="XMLID_487_" style="fill:#967151;" d="M230,235v225H86.57l-60-183.9C22.28,262.96,20,249.19,20,235H230z"/>
	<rect id="XMLID_488_" x="150" y="375" style="fill:#624950;" width="30" height="30"/>
	<rect id="XMLID_489_" x="100" y="325" style="fill:#624950;" width="30" height="30"/>
	<rect id="XMLID_490_" x="350" y="265" style="fill:#967151;" width="30" height="30"/>
	<polygon id="XMLID_491_" style="fill:#3C261B;" points="360,0 360,30 230,30 210,15 230,0 	"/>
	<rect id="XMLID_493_" x="100" style="fill:#624950;" width="130" height="30"/>
</g>
</svg>