<?xml version="1.0" encoding="iso-8859-1"?>
<!-- Uploaded to: SVG Repo, www.svgrepo.com, Generator: SVG Repo Mixer Tools -->
<svg height="800px" width="800px" version="1.1" id="Layer_1" xmlns="http://www.w3.org/2000/svg" xmlns:xlink="http://www.w3.org/1999/xlink" 
	 viewBox="0 0 512 512" xml:space="preserve">
<path style="fill:#CCCCCC;" d="M219.019,15.702l0.299,1.023l-16.449,23.121l-23.674,2.877l-4.149-14.148
	c-3.391-11.574,3.253-23.7,14.827-27.09l2.046-0.598C203.491-2.504,215.628,4.128,219.019,15.702z"/>
<path style="fill:#E6E6E6;" d="M275.21,217.009c-32.32,23.585-62.065,28.964-82.488,28.964c-17.171,0-27.757-3.804-27.757-3.804
	c-1.414-15.102,1.034-30.343,7.344-44.123c7.367-16.079,16.539-34.733,27.343-48.79l0.425-1.494
	c-3.414-0.942-6.471-2.735-8.93-5.138l-34.894,6.862l-2.195-35.664c-0.632-10.275,4.218-20.114,12.758-25.86l9.93-6.701
	c6.057-4.08,10.344-10.149,12.241-17.022c0.667-2.391,1.034-4.873,1.092-7.413c4.885,2.632,10.758,3.414,16.505,1.736l2.057-0.598
	c3.391-1,6.356-2.735,8.77-5c1.264,1.103,2.575,2.149,3.931,3.115c8.218,5.839,18.079,9.011,28.251,9.011h4.103
	c9.735,0,17.7,7.758,17.964,17.493C271.659,82.582,275.21,192.092,275.21,217.009z"/>
<path style="fill:#F2F2F2;" d="M217.41,52.963c-2.414,2.264-5.379,4-8.77,5l-2.057,0.598c-5.747,1.678-11.62,0.896-16.505-1.736
	c-4.954-2.666-8.873-7.241-10.585-13.08l-0.299-1.023l40.124-25.998l4.138,14.148C225.857,39.056,223.237,47.516,217.41,52.963z"/>
<path style="fill:#CCCCCC;" d="M221.34,56.078c-1.057,1.816-2.379,3.483-3.931,4.931c-2.414,2.264-5.379,4-8.77,5l-2.057,0.598
	c-5.747,1.678-11.62,0.896-16.505-1.736c-0.368-0.195-0.736-0.414-1.092-0.632c0.667-2.391,1.034-4.873,1.092-7.413
	c4.885,2.632,10.758,3.414,16.505,1.736l2.057-0.598c3.391-1,6.356-2.735,8.77-5C218.674,54.067,219.984,55.113,221.34,56.078z"/>
<polygon style="fill:#999999;" points="357.998,466.176 357.998,512 175.539,512 175.539,466.176 182.78,466.176 247.074,466.176 
	329.873,466.176 "/>
<polygon style="fill:#E6E6E6;" points="247.074,466.176 182.78,466.176 214.927,439.661 "/>
<path style="fill:#CCCCCC;" d="M275.21,217.009c-6.367,65.857-0.333,132.336,17.792,195.975c1.322,4.632,3.483,8.988,6.39,12.827
	l30.481,40.365h-82.799l-32.147-26.515c0,0-1.138-11.528-5.919-31.561c-1.402-5.85-3.103-12.436-5.184-19.665
	c-5.494-19.079-13.597-42.687-25.447-69.443c-10.183-23.01-10.574-50.801-13.413-76.822c0,0,10.585,3.804,27.757,3.804
	C213.146,245.973,242.891,240.594,275.21,217.009z"/>
<path style="fill:#F2F2F2;" d="M205.582,151.957c-2.218,0-4.386-0.295-6.443-0.877c-3.886-1.074-7.49-3.146-10.4-5.988
	c-4.708-4.582-7.303-10.721-7.303-17.283c0-6.45,2.514-12.516,7.078-17.08c1.347-1.346,3.531-1.347,4.877,0
	c1.347,1.346,1.347,3.53,0,4.877c-3.262,3.262-5.058,7.596-5.058,12.205c0,4.684,1.854,9.068,5.22,12.344
	c2.084,2.035,4.656,3.516,7.443,4.285c1.468,0.415,3.004,0.623,4.588,0.623c9.472,0,17.186-7.673,17.252-17.13l-0.155-2.09
	c-0.163-1.13-0.247-2.284-0.247-3.457c0-1.855,1.467-3.377,3.32-3.446c1.853-0.052,3.429,1.341,3.566,3.191l0.217,2.937
	c1.293,8.237,8.443,14.559,17.044,14.559c9.512,0,17.252-7.734,17.252-17.24c0-4.609-1.796-8.943-5.057-12.205
	c-1.347-1.347-1.347-3.53,0-4.877c1.347-1.347,3.529-1.346,4.876,0c4.565,4.564,7.078,10.63,7.078,17.08
	c0,13.308-10.833,24.136-24.148,24.136c-7.619,0-14.427-3.547-18.856-9.074C223.995,145.979,215.473,151.957,205.582,151.957z"/>
</svg>