<?xml version="1.0" encoding="iso-8859-1"?>
<!-- Uploaded to: SVG Repo, www.svgrepo.com, Generator: SVG Repo Mixer Tools -->
<svg fill="#000000" height="800px" width="800px" version="1.1" id="Layer_1" xmlns="http://www.w3.org/2000/svg" xmlns:xlink="http://www.w3.org/1999/xlink" 
	 viewBox="0 0 512 512" xml:space="preserve">
<g>
	<g>
		<g>
			<path d="M453.099,0H58.901c-4.681,0-8.477,3.795-8.477,8.477v495.047c0,4.681,3.795,8.477,8.477,8.477h394.199
				c4.681,0,8.477-3.795,8.477-8.477V8.477C461.576,3.795,457.781,0,453.099,0z M432.636,16.953L411.69,37.899H100.31L79.366,16.953
				H432.636z M406.724,54.852v402.296H105.276V54.852H406.724z M67.377,28.941l20.945,20.945v412.227l-20.945,20.945V28.941z
				 M79.366,495.047l20.945-20.945H411.69l20.945,20.945H79.366z M444.623,483.058l-20.945-20.944V49.886l20.945-20.945V483.058z"/>
			<path d="M182.756,405.655c19.688,6.427,45.701,9.965,73.244,9.965c27.545,0,53.556-3.539,73.244-9.965
				c29.007-9.468,35.096-22.141,35.096-31.106V137.451c0-8.965-6.089-21.638-35.096-31.106c-19.689-6.426-45.701-9.965-73.244-9.965
				c-27.544,0-53.556,3.539-73.244,9.965c-29.007,9.468-35.096,22.141-35.096,31.106v237.098
				C147.659,383.514,153.749,396.187,182.756,405.655z M347.387,253.885h-0.005c0,6.316-21.418,18.784-64.073,22.842
				c-4.013-11.21-14.738-19.253-27.311-19.253c-12.572,0-23.296,8.043-27.31,19.252c-42.657-4.059-64.076-16.527-64.076-22.842
				v-93.171c4.72,2.749,10.664,5.404,18.142,7.845c19.688,6.426,45.701,9.965,73.244,9.965c27.545,0,53.556-3.539,73.244-9.965
				c7.478-2.441,13.423-5.095,18.142-7.844V253.885z M268.048,286.475c0,6.642-5.405,12.047-12.047,12.047
				c-6.642,0-12.047-5.405-12.047-12.047s5.404-12.047,12.047-12.047C262.644,274.428,268.048,279.831,268.048,286.475z
				 M180.862,149.802c15.732-6.506,41.783-11.753,75.142-11.753c33.354,0,59.402,5.249,75.133,11.754
				c-2.145,0.888-4.504,1.772-7.152,2.637c-18.035,5.886-42.179,9.129-67.984,9.129s-49.948-3.241-67.983-9.129
				C185.367,151.576,183.008,150.691,180.862,149.802z M188.016,122.462c18.035-5.886,42.179-9.129,67.983-9.129
				c25.804,0,49.949,3.241,67.984,9.129c17.17,5.604,23.404,12.035,23.404,14.989c0,0.374-0.102,0.804-0.311,1.279
				c-19.092-10.989-52.828-17.636-91.072-17.636c-38.249,0-71.987,6.646-91.081,17.634c-0.208-0.476-0.31-0.905-0.31-1.278
				C164.613,134.497,170.846,128.066,188.016,122.462z M164.613,277.074c15.712,9.114,40.092,14.422,63.293,16.605
				c3.211,12.517,14.589,21.796,28.094,21.796c13.505,0,24.882-9.279,28.094-21.796c23.2-2.182,47.581-7.49,63.293-16.606v97.476
				c0.001,2.954-6.232,9.385-23.402,14.989c-18.035,5.886-42.179,9.129-67.984,9.129s-49.948-3.242-67.983-9.129
				c-17.17-5.604-23.404-12.035-23.404-14.989V277.074z"/>
			<path d="M195.234,332.747c17.787,4.234,38.803,6.472,60.771,6.472c21.857,0,42.771-2.215,60.502-6.407
				c3.876-0.779,6.79-4.204,6.79-8.311c-0.001-4.683-3.803-8.478-8.485-8.478c-0.661,0-1.319,0.077-1.963,0.231
				c-16.522,3.932-36.179,6.012-56.846,6.012s-40.324-2.078-56.845-6.012c-4.556-1.084-9.125,1.729-10.209,6.284
				S190.679,331.664,195.234,332.747z"/>
			<path d="M314.813,200.366c-0.661,0-1.319,0.077-1.963,0.231c-16.522,3.932-36.179,6.012-56.846,6.012s-40.324-2.078-56.845-6.012
				c-4.556-1.084-9.125,1.729-10.209,6.284c-1.084,4.555,1.729,9.123,6.283,10.208c17.787,4.234,38.803,6.472,60.771,6.472
				c21.857,0,42.771-2.215,60.502-6.407c3.876-0.779,6.79-4.204,6.79-8.311C323.296,204.162,319.494,200.366,314.813,200.366z"/>
			<path d="M298.563,353.148c-13.286,2.129-27.605,3.209-42.558,3.209c-14.953,0-29.272-1.079-42.558-3.209
				c-4.617-0.734-8.971,2.406-9.711,7.029c-0.74,4.623,2.406,8.971,7.029,9.711c14.17,2.271,29.39,3.421,45.24,3.421
				c15.849,0,31.07-1.152,45.24-3.421c4.623-0.741,7.77-5.088,7.029-9.711C307.532,355.555,303.184,352.414,298.563,353.148z"/>
		</g>
	</g>
</g>
</svg>