<?xml version="1.0" encoding="iso-8859-1"?>
<!-- Uploaded to: SVG Repo, www.svgrepo.com, Generator: SVG Repo Mixer Tools -->
<svg fill="#000000" height="800px" width="800px" version="1.1" id="Layer_1" xmlns="http://www.w3.org/2000/svg" xmlns:xlink="http://www.w3.org/1999/xlink" 
	 viewBox="0 0 512 512" xml:space="preserve">
<g>
	<g>
		<g>
			<path d="M456.216,413.157H298.199c-4.904,0-8.878,3.975-8.878,8.878v34.326h-37.986c-17.622,0-31.959-14.336-31.959-31.959
				v-7.696c0-32.568,17.638-62.71,46.033-78.663c33.981-19.092,55.09-55.165,55.09-94.143v-6.188
				c8.74-2.842,15.657-9.757,18.498-18.499h4.715c16.749,0,30.377-13.627,30.377-30.377s-13.628-30.377-30.377-30.377h-3.307
				v-28.552C340.404,58.275,282.129,0,210.498,0S80.591,58.275,80.591,129.907v28.552h-3.307c-16.751,0-30.377,13.627-30.377,30.377
				s13.627,30.377,30.377,30.377h4.715c2.842,8.742,9.757,15.657,18.499,18.499v6.188c0,38.976,21.109,75.049,55.091,94.142
				c28.394,15.953,46.032,46.094,46.032,78.663v7.696c0,27.412,22.301,49.713,49.714,49.713h37.986v29.006
				c0,4.903,3.974,8.878,8.878,8.878h158.016c4.904,0,8.878-3.975,8.878-8.878v-81.087
				C465.093,417.132,461.118,413.157,456.216,413.157z M340.404,176.214h3.307c6.96,0,12.622,5.663,12.622,12.622
				c0,6.959-5.662,12.622-12.622,12.622h-3.307V176.214z M80.591,201.457h-3.307c-6.959,0-12.622-5.662-12.622-12.622
				c0-6.959,5.663-12.622,12.622-12.622h3.307V201.457z M322.649,210.335c0,6.082-4.948,11.029-11.027,11.029
				c-6.082,0-11.029-4.948-11.029-11.029v-42.999c0-6.082,4.948-11.029,11.029-11.029s11.027,4.948,11.027,11.029V210.335z
				 M109.376,221.364c-6.081,0-11.029-4.948-11.029-11.029v-42.999c0-6.082,4.948-11.029,11.029-11.029
				c6.082,0,11.029,4.948,11.029,11.029v42.999C120.404,216.416,115.456,221.364,109.376,221.364z M210.498,373.901
				c-9.238-21.362-25.277-39.575-46.213-51.337c-28.394-15.954-46.032-46.095-46.032-78.663v-6.188
				c11.54-3.751,19.906-14.602,19.906-27.377v-42.999c0-15.872-12.913-28.784-28.784-28.784c-3.905,0-7.63,0.785-11.029,2.201
				v-10.845c0-61.84,50.311-112.151,112.151-112.151c61.839,0,112.15,50.311,112.15,112.151v10.845
				c-3.398-1.416-7.122-2.201-11.027-2.201c-15.871,0-28.784,12.913-28.784,28.784v42.999c0,12.775,8.368,23.626,19.906,27.377
				v6.188c0,32.567-17.638,62.709-46.032,78.663C235.775,334.326,219.736,352.539,210.498,373.901z M447.338,494.244
				L447.338,494.244H307.077v-63.332h140.261V494.244z"/>
			<path d="M329.622,485.66c4.904,0,8.878-3.975,8.878-8.878v-28.407c0-4.903-3.974-8.878-8.878-8.878s-8.878,3.975-8.878,8.878
				v28.408C320.744,481.685,324.718,485.66,329.622,485.66z"/>
			<path d="M356.254,485.66c4.904,0,8.878-3.975,8.878-8.878v-28.407c0-4.903-3.974-8.878-8.878-8.878
				c-4.904,0-8.878,3.975-8.878,8.878v28.408C347.376,481.685,351.35,485.66,356.254,485.66z"/>
			<circle cx="423.719" cy="448.376" r="8.878"/>
			<circle cx="423.719" cy="476.607" r="8.878"/>
		</g>
	</g>
</g>
</svg>