<?xml version="1.0" encoding="iso-8859-1"?>
<!-- Uploaded to: SVG Repo, www.svgrepo.com, Generator: SVG Repo Mixer Tools -->
<svg version="1.1" id="Layer_1" xmlns="http://www.w3.org/2000/svg" xmlns:xlink="http://www.w3.org/1999/xlink" 
	 viewBox="0 0 512.001 512.001" xml:space="preserve">
<rect x="50.093" style="fill:#995C0D;" width="411.815" height="512.001"/>
<g>
	<polygon style="fill:#B27214;" points="412.353,37.652 439.901,10.105 72.099,10.105 99.647,37.652 	"/>
	<polygon style="fill:#B27214;" points="424.257,462.436 451.802,489.983 451.802,22.017 424.257,49.564 	"/>
	<polygon style="fill:#B27214;" points="412.345,474.351 99.654,474.351 72.111,501.895 439.889,501.895 	"/>
	<polygon style="fill:#B27214;" points="87.742,49.561 60.198,22.017 60.198,489.983 87.742,462.439 	"/>
</g>
<rect x="97.851" y="47.757" style="fill:#E09B2D;" width="316.3" height="416.487"/>
<path style="fill:#FFFFFF;" d="M335.849,246.633H170.972c0,44.844,36.355,81.199,81.199,81.199c22.335,0,42.559-9.022,57.24-23.614
	h18.687c18.012,0,32.668-14.655,32.668-32.667C360.764,257.809,349.588,246.633,335.849,246.633z M328.096,292.973h-9.265
	c7.127-10.232,11.954-22.176,13.745-35.099h3.272c7.54,0,13.674,6.135,13.674,13.674
	C349.521,283.362,339.91,292.973,328.096,292.973z"/>
<path style="fill:#CCCCCC;" d="M213.445,246.633h-42.473c0,44.844,36.355,81.199,81.199,81.199c7.35,0,14.465-0.993,21.237-2.824
	C238.865,315.669,213.445,284.127,213.445,246.633z"/>
<path style="fill:#FFFFFF;" d="M322.126,357.813H182.215c-3.795,0-6.871-3.076-6.871-6.871c0-3.795,3.076-6.871,6.871-6.871h139.912
	c3.795,0,6.871,3.076,6.871,6.871C328.997,354.737,325.921,357.813,322.126,357.813z"/>
<path style="fill:#CCCCCC;" d="M200.953,350.942c0-3.795,3.076-6.871,6.871-6.871h-25.609c-3.795,0-6.871,3.076-6.871,6.871
	c0,3.795,3.076,6.871,6.871,6.871h25.609C204.03,357.813,200.953,354.736,200.953,350.942z"/>
<g>
	<path style="fill:#995C0D;" d="M262.671,223.522c-3.449,0-6.246-2.797-6.246-6.246c0-16.528,3.41-24.884,6.71-32.967
		c2.974-7.287,5.783-14.167,5.783-28.245c0-3.449,2.797-6.246,6.246-6.246s6.246,2.797,6.246,6.246
		c0,16.528-3.41,24.884-6.71,32.967c-2.974,7.287-5.783,14.167-5.783,28.245C268.917,220.725,266.122,223.522,262.671,223.522z"/>
	<path style="fill:#995C0D;" d="M229.176,223.522c-3.449,0-6.246-2.797-6.246-6.246c0-16.528,3.41-24.884,6.71-32.967
		c2.974-7.287,5.783-14.167,5.783-28.245c0-3.449,2.797-6.246,6.246-6.246s6.246,2.797,6.246,6.246
		c0,16.528-3.41,24.884-6.71,32.967c-2.974,7.287-5.783,14.167-5.783,28.245C235.422,220.725,232.627,223.522,229.176,223.522z"/>
</g>
</svg>