<?xml version="1.0" encoding="iso-8859-1"?>
<!-- Uploaded to: SVG Repo, www.svgrepo.com, Generator: SVG Repo Mixer Tools -->
<svg height="800px" width="800px" version="1.1" id="Layer_1" xmlns="http://www.w3.org/2000/svg" xmlns:xlink="http://www.w3.org/1999/xlink" 
	 viewBox="0 0 512.003 512.003" xml:space="preserve">
<path style="fill:#B27214;" d="M8.572,48.161v309.436h266.302c-6.686-9.109,113.23-127.196,122.305-120.293V48.161H8.572z"/>
<path style="fill:#F7B239;" d="M367.428,77.913v144.763c-28.962-7.806-113.915,76.507-106.601,105.172H38.322V77.913H367.428z"/>
<path style="fill:#F95428;" d="M406.082,245.077c33.842,33.842,33.842,88.725,0,122.567c-33.842,33.842-88.725,33.842-122.567,0
	c-3.177-3.177-6.058-6.538-8.641-10.046c-6.686-9.109-11.372-19.224-14.047-29.75c-7.315-28.665,0.251-60.335,22.687-82.771
	c22.733-22.733,54.952-30.208,83.914-22.401c10.549,2.846,20.676,7.726,29.75,14.629
	C400.276,239.66,403.247,242.243,406.082,245.077z"/>
<circle style="fill:#B8E6FF;" cx="344.798" cy="306.362" r="55.554"/>
<path style="fill:#F95428;" d="M499.539,441.203c5.189,5.177,5.189,13.578,0,18.755c-2.583,2.594-5.989,3.886-9.383,3.886
	s-6.789-1.292-9.383-3.886l-48.734-48.734c-5.177-5.177-5.177-13.589,0-18.767c2.583-2.583,5.989-3.886,9.383-3.886
	c3.394,0,6.789,1.303,9.383,3.886L499.539,441.203z"/>
<g>
	<path style="fill:#333333;" d="M390.138,261.016c-12.113-12.112-28.215-18.782-45.342-18.782c-17.128,0-33.231,6.67-45.341,18.782
		c-12.113,12.112-18.783,28.214-18.783,45.341c0,17.127,6.67,33.231,18.782,45.341s28.214,18.782,45.342,18.782
		c17.127,0,33.229-6.67,45.342-18.782C415.138,326.698,415.138,286.018,390.138,261.016z M378.015,339.578
		c-8.874,8.874-20.671,13.761-33.218,13.761c-12.548,0-24.347-4.887-33.219-13.761s-13.76-20.67-13.76-33.219
		c0-12.549,4.887-24.345,13.761-33.219c8.873-8.874,20.67-13.76,33.218-13.76s24.345,4.887,33.218,13.76
		C396.331,291.456,396.331,321.26,378.015,339.578z"/>
	<path style="fill:#333333;" d="M505.603,435.135l-48.74-48.739c-4.125-4.126-9.61-6.398-15.444-6.398
		c-2.838,0-5.589,0.547-8.145,1.574l-14.829-14.831c30.69-37.376,28.594-92.834-6.303-127.73c-2.058-2.058-4.199-3.983-6.392-5.813
		V48.162c0-4.734-3.837-8.572-8.572-8.572H8.572C3.838,39.59,0,43.428,0,48.162v309.436c0,4.734,3.838,8.572,8.572,8.572H270.68
		c2.102,2.6,4.352,5.119,6.768,7.535c18.568,18.568,42.958,27.852,67.348,27.852c21.959,0,43.903-7.552,61.614-22.604l14.747,14.748
		c-3.15,7.871-1.546,17.219,4.819,23.584l48.74,48.74c4.259,4.259,9.851,6.387,15.444,6.387c5.595,0,11.187-2.129,15.446-6.387
		c4.125-4.125,6.397-9.61,6.397-15.444C512,444.745,509.729,439.26,505.603,435.135z M376,216.388V81.46l12.606-12.606v152.941
		C384.513,219.678,380.301,217.873,376,216.388z M250.486,319.276H46.894V86.485h311.962v125.72
		c-28.833-4.268-59.261,4.663-81.408,26.808C255.595,260.865,246.617,290.784,250.486,319.276z M29.75,81.457v242.844
		l-12.606,12.605V68.85L29.75,81.457z M41.879,69.341L29.273,56.734H376.48l-12.606,12.606H41.879z M29.269,349.026l12.606-12.606
		h212.582c1.422,4.297,3.159,8.509,5.209,12.606H29.269z M344.795,384.42c-19.997-0.001-40-7.614-55.223-22.838
		c-30.451-30.451-30.451-79.998,0-110.448c15.225-15.225,35.224-22.838,55.224-22.838c19.999,0,39.998,7.613,55.223,22.838
		c30.452,30.451,30.452,79.998,0,110.448C384.792,376.81,364.797,384.421,344.795,384.42z M493.48,453.901
		c-1.831,1.831-4.812,1.832-6.643,0l-48.74-48.74c-1.832-1.832-1.832-4.812,0-6.644c0.887-0.887,2.068-1.376,3.321-1.376
		c1.254,0,2.433,0.488,3.32,1.375l0,0l48.741,48.74c0.887,0.887,1.375,2.066,1.375,3.321S494.367,453.014,493.48,453.901z"/>
</g>
</svg>