<?xml version="1.0" encoding="iso-8859-1"?>
<!-- Uploaded to: SVG Repo, www.svgrepo.com, Generator: SVG Repo Mixer Tools -->
<svg version="1.1" id="Layer_1" xmlns="http://www.w3.org/2000/svg" xmlns:xlink="http://www.w3.org/1999/xlink" 
	 viewBox="0 0 512 512" xml:space="preserve">
<rect x="110.478" y="13.339" style="fill:#B8E6FF;" width="291.034" height="348.512"/>
<rect x="169.765" y="304.365" style="fill:#CCCCCC;" width="172.46" height="57.488"/>
<g>
	<polygon style="fill:#F2F2F2;" points="401.515,128.176 401.515,153.58 261.262,13.339 286.678,13.339 	"/>
	<polygon style="fill:#F2F2F2;" points="401.515,67.847 401.515,93.263 321.603,13.339 346.995,13.339 	"/>
	<polygon style="fill:#F2F2F2;" points="191.471,362.474 171.793,368.211 165.433,361.851 110.481,306.888 110.481,281.484 	"/>
</g>
<rect x="110.49" y="356.034" style="fill:#4D4D4D;" width="291.034" height="133.642"/>
<rect x="190.03" y="398.673" style="fill:#E09B2D;" width="131.941" height="57.488"/>
<rect x="199.612" y="408.255" style="fill:#F7B239;" width="112.777" height="38.325"/>
<path style="fill:#333333;" d="M503.017,498.661H8.983c-4.962,0-8.983-4.022-8.983-8.983c0-4.961,4.021-8.983,8.983-8.983h494.034
	c4.962,0,8.983,4.022,8.983,8.983C512,494.639,507.979,498.661,503.017,498.661z"/>
<rect x="158.985" y="146.876" style="fill:#F7B239;" width="194.031" height="130.108"/>
<g>
	<path style="fill:#F2F2F2;" d="M347.797,119.924v119.94h-65.695c-3.869,0-7.534,0.838-10.827,2.348
		c-9.007,4.108-15.271,13.199-15.271,23.751V146.034c0-10.552,6.264-19.655,15.271-23.763c3.294-1.509,6.959-2.348,10.827-2.348
		C282.103,119.924,347.797,119.924,347.797,119.924z"/>
	<path style="fill:#F2F2F2;" d="M256.004,146.034v119.928c0-10.552-6.264-19.631-15.271-23.739c-3.306-1.521-6.971-2.36-10.839-2.36
		h-65.683v-119.94h65.683c3.869,0,7.534,0.838,10.839,2.36C249.74,126.392,256.004,135.482,256.004,146.034z"/>
</g>
<path style="fill:#E6E6E6;" d="M271.275,122.272v119.94c-9.007,4.108-15.271,13.199-15.271,23.751
	c0-10.552-6.264-19.631-15.271-23.739v-119.94c9.007,4.108,15.271,13.199,15.271,23.751
	C256.004,135.482,262.268,126.38,271.275,122.272z"/>
<path style="fill:#CCCCCC;" d="M347.797,239.864v30.973H164.211v-30.973h65.683c14.421,0,26.11,11.678,26.11,26.098
	c0-14.421,11.678-26.098,26.098-26.098H347.797z"/>
<g>
	<rect x="182.341" y="138.648" style="fill:#999999;" width="40.722" height="9.582"/>
	<rect x="182.341" y="157.057" style="fill:#999999;" width="40.722" height="9.582"/>
	<rect x="182.341" y="175.478" style="fill:#999999;" width="40.722" height="9.582"/>
	<rect x="182.341" y="193.887" style="fill:#999999;" width="40.722" height="9.582"/>
	<rect x="182.341" y="212.308" style="fill:#999999;" width="40.722" height="9.582"/>
	<rect x="288.938" y="138.648" style="fill:#999999;" width="40.722" height="9.582"/>
	<rect x="288.938" y="157.057" style="fill:#999999;" width="40.722" height="9.582"/>
	<rect x="288.938" y="175.478" style="fill:#999999;" width="40.722" height="9.582"/>
	<rect x="288.938" y="193.887" style="fill:#999999;" width="40.722" height="9.582"/>
	<rect x="288.938" y="212.308" style="fill:#999999;" width="40.722" height="9.582"/>
</g>
</svg>