<?xml version="1.0" encoding="iso-8859-1"?>
<!-- Uploaded to: SVG Repo, www.svgrepo.com, Generator: SVG Repo Mixer Tools -->
<svg height="800px" width="800px" version="1.1" id="Layer_1" xmlns="http://www.w3.org/2000/svg" xmlns:xlink="http://www.w3.org/1999/xlink" 
	 viewBox="0 0 512.001 512.001" xml:space="preserve">
<path style="fill:#808080;" d="M256,288.006c-5.25,0-9.507-4.256-9.507-9.507v-37.413c0-18.197-9.522-35.143-24.849-44.222
	c-21.352-12.648-34.031-35.916-33.088-60.725c1.33-35.02,29.804-63.494,64.823-64.825c18.538-0.705,36.092,5.979,49.427,18.817
	c13.34,12.844,20.688,30.113,20.688,48.627c0,5.25-4.256,9.507-9.507,9.507c-5.25,0-9.507-4.256-9.507-9.507
	c0-13.299-5.278-25.703-14.862-34.93c-9.578-9.221-22.202-14.025-35.518-13.515c-25.146,0.956-45.591,21.401-46.545,46.547
	c-0.678,17.832,8.434,34.557,23.778,43.647c21.078,12.485,34.173,35.699,34.173,60.58v37.413
	C265.507,283.749,261.251,288.006,256,288.006z"/>
<path style="fill:#F7B239;" d="M469.645,440.737H42.355c-19.558,0-36.01-12.717-40.935-31.646
	c-4.926-18.928,3.237-38.052,20.315-47.586l229.632-128.211c2.88-1.609,6.388-1.609,9.27,0l229.631,128.211
	c17.078,9.534,25.241,28.658,20.315,47.586C505.654,428.02,489.203,440.737,469.645,440.737z M256,252.484L31.003,378.107
	c-11.589,6.47-13.375,17.775-11.184,26.196c2.192,8.422,9.263,17.421,22.534,17.421h427.29c13.272,0,20.343-9,22.534-17.421
	c2.192-8.422,0.406-19.727-11.184-26.196L256,252.484z"/>
</svg>