<?xml version="1.0" encoding="iso-8859-1"?>
<!-- Uploaded to: SVG Repo, www.svgrepo.com, Generator: SVG Repo Mixer Tools -->
<svg version="1.1" id="Layer_1" xmlns="http://www.w3.org/2000/svg" xmlns:xlink="http://www.w3.org/1999/xlink" 
	 viewBox="0 0 511.999 511.999" xml:space="preserve">
<polyline style="fill:#B27214;" points="4.2,10.53 497.268,10.53 497.268,58.299 4.2,58.299 "/>
<path style="fill:#F95428;" d="M497.268,433.616V245.797c-37.474,0-67.854-30.38-67.854-67.854h-259.17
	c0,37.474-30.38,67.854-67.854,67.854v187.819c37.474,0,67.854,30.38,67.854,67.854h259.17
	C429.414,463.994,459.792,433.616,497.268,433.616z"/>
<g>
	<polyline style="fill:#F7B239;" points="388.118,392.853 388.118,297.773 211.54,297.773 211.54,392.853 	"/>
	<polygon style="fill:#F7B239;" points="299.828,250.41 411.348,297.773 188.31,297.773 	"/>
	<rect x="188.311" y="392.855" style="fill:#F7B239;" width="223.034" height="36.147"/>
</g>
<g>
	<path style="fill:#333333;" d="M295.713,240.717L184.194,288.08c-4.608,1.957-7.201,6.887-6.202,11.793
		c0.998,4.906,5.313,8.43,10.318,8.43h12.7v74.02h-12.7c-5.816,0-10.53,4.715-10.53,10.53v36.149c0,5.816,4.715,10.53,10.53,10.53
		H411.35c5.816,0,10.53-4.715,10.53-10.53v-36.149c0-5.816-4.715-10.53-10.53-10.53h-12.7v-74.02h12.7
		c5.005,0,9.32-3.524,10.318-8.43c0.998-4.906-1.595-9.835-6.202-11.793l-111.518-47.363
		C301.315,239.599,298.343,239.599,295.713,240.717z M222.07,308.304h23.083v74.02H222.07V308.304z M310.359,382.323v-74.02h23.084
		v74.02H310.359z M289.298,382.323h-23.084v-74.02h23.084V382.323z M400.818,418.472H198.84v-15.088h201.978V418.472z
		 M377.588,382.323h-23.083v-74.02h23.083V382.323z M240.042,287.243l59.786-25.391l59.786,25.391H240.042z"/>
	<path style="fill:#333333;" d="M497.268,68.83c5.816,0,10.53-4.715,10.53-10.53V10.53c0-5.816-4.715-10.53-10.53-10.53H4.2v21.061
		h482.536v26.708H4.2V68.83h195.401v98.582h-29.357c-5.816,0-10.53,4.715-10.53,10.53c0,31.608-25.715,57.323-57.323,57.323
		c-5.816,0-10.53,4.715-10.53,10.53v187.819c0,5.816,4.715,10.53,10.53,10.53c31.608,0,57.323,25.715,57.323,57.323
		c0,5.816,4.715,10.53,10.53,10.53h259.17c5.816,0,10.53-4.715,10.53-10.53c0-31.608,25.715-57.323,57.323-57.323
		c5.816,0,10.53-4.715,10.53-10.53V245.797c0-5.816-4.715-10.53-10.53-10.53c-31.608,0-57.323-25.715-57.323-57.323
		c0-5.816-4.715-10.53-10.53-10.53h-29.359V68.83H497.268z M419.589,188.473c4.694,34.818,32.331,62.455,67.149,67.149v168.167
		c-34.816,4.694-62.454,32.331-67.149,67.149H180.069c-4.694-34.818-32.331-62.455-67.149-67.149V255.622
		c34.816-4.694,62.454-32.331,67.149-67.149h19.532v25.446c0,5.816,4.715,10.53,10.53,10.53c5.816,0,10.53-4.715,10.53-10.53
		v-25.446h158.332v25.446c0,5.816,4.715,10.53,10.53,10.53c5.816,0,10.53-4.715,10.53-10.53v-25.446H419.589z M378.995,167.413
		H220.662V68.83h158.332V167.413z"/>
</g>
</svg>