<?xml version="1.0" encoding="iso-8859-1"?>
<!-- Uploaded to: SVG Repo, www.svgrepo.com, Generator: SVG Repo Mixer Tools -->
<svg version="1.1" id="Layer_1" xmlns="http://www.w3.org/2000/svg" xmlns:xlink="http://www.w3.org/1999/xlink" 
	 viewBox="0 0 512.001 512.001" xml:space="preserve">
<path style="fill:#4D4D4D;" d="M422.602,186.157v164.707c0,13.671-11.083,24.754-24.754,24.754H114.146
	c-13.671,0-24.754-11.083-24.754-24.754V186.157c0-13.671,11.083-24.754,24.754-24.754h283.702
	C411.519,161.404,422.602,172.487,422.602,186.157z"/>
<path style="fill:#B8E6FF;" d="M422.602,186.157v17.357h-89.713v-42.11h64.96C411.519,161.404,422.602,172.487,422.602,186.157z"/>
<circle style="fill:#999999;" cx="255.995" cy="268.507" r="71.616"/>
<circle style="fill:#E6E6E6;" cx="255.995" cy="268.507" r="34.574"/>
<rect x="219.389" y="122.964" style="fill:#F7B239;" width="73.232" height="38.446"/>
<path d="M397.854,152.255h-96.085v-29.292c0-5.056-4.098-9.154-9.154-9.154h-73.232c-5.057,0-9.154,4.099-9.154,9.154v29.293
	h-96.082c-18.693,0-33.902,15.209-33.902,33.902v164.708c0,18.693,15.209,33.902,33.902,33.902h283.709
	c18.693,0,33.902-15.209,33.902-33.902V186.157C431.757,167.464,416.549,152.255,397.854,152.255z M413.448,186.157v8.206h-71.4
	v-23.799h55.807C406.452,170.564,413.448,177.559,413.448,186.157z M228.537,132.118h54.923v20.139h-54.923L228.537,132.118
	L228.537,132.118z M397.854,366.458H114.146c-8.598,0-15.593-6.995-15.593-15.593V186.157c0-8.598,6.995-15.593,15.593-15.593
	h105.238h73.232h31.124v32.954c0,5.056,4.098,9.154,9.154,9.154h80.554v138.193C413.448,359.464,406.452,366.458,397.854,366.458z"
	/>
<path d="M255.999,187.742c-44.537,0-80.77,36.233-80.77,80.77s36.233,80.77,80.77,80.77s80.77-36.233,80.77-80.77
	S300.538,187.742,255.999,187.742z M255.999,330.973c-34.441,0-62.461-28.02-62.461-62.461s28.02-62.461,62.461-62.461
	s62.461,28.02,62.461,62.461S290.441,330.973,255.999,330.973z"/>
<path d="M255.999,224.783c-24.113,0-43.729,19.616-43.729,43.729c0,24.112,19.616,43.728,43.729,43.728
	c24.112,0,43.728-19.616,43.728-43.728C299.728,244.399,280.111,224.783,255.999,224.783z M255.999,293.93
	c-14.016,0-25.42-11.403-25.42-25.419c0-14.016,11.404-25.42,25.42-25.42s25.419,11.403,25.419,25.42
	C281.419,282.528,270.017,293.93,255.999,293.93z"/>
<circle style="fill:#333333;" cx="168.124" cy="329.841" r="9.154"/>
<path style="fill:#F95428;" d="M437.019,74.982C388.667,26.63,324.379,0.001,255.999,0.001S123.332,26.63,74.981,74.982
	C26.628,123.333,0,187.621,0,256.001s26.628,132.667,74.981,181.018C123.332,485.372,187.619,512,256.001,512
	c68.379,0,132.666-26.628,181.02-74.981c48.351-48.351,74.981-112.639,74.981-181.018S485.37,123.333,437.019,74.982z
	 M424.072,87.929c44.895,44.893,69.619,104.583,69.619,168.073c0,60.428-22.411,117.402-63.279,161.465L94.535,81.589
	C138.597,40.723,195.572,18.31,255.999,18.31C319.488,18.31,379.178,43.034,424.072,87.929z M87.928,424.074
	C43.033,379.18,18.309,319.491,18.309,256.001c0-60.428,22.411-117.403,63.279-161.465l335.876,335.876
	c-44.063,40.867-101.038,63.279-161.465,63.279C192.51,493.692,132.82,468.967,87.928,424.074z"/>
</svg>