<?xml version="1.0" encoding="iso-8859-1"?>
<!-- Uploaded to: SVG Repo, www.svgrepo.com, Generator: SVG Repo Mixer Tools -->
<svg height="800px" width="800px" version="1.1" id="Layer_1" xmlns="http://www.w3.org/2000/svg" xmlns:xlink="http://www.w3.org/1999/xlink" 
	 viewBox="0 0 512 512" xml:space="preserve">
<g>
	<path style="fill:#CCCCCC;" d="M454.99,305.536l-24.365,6.944l12.718-21.912c2.835-4.884,9.093-6.545,13.977-3.711
		c4.884,2.835,6.545,9.092,3.711,13.977C459.652,303.21,457.438,304.831,454.99,305.536z"/>
	<path style="fill:#CCCCCC;" d="M417.344,290.488l-21.743,8.332l8.332-21.743c2.052-5.354,8.056-8.031,13.411-5.979
		c5.354,2.052,8.031,8.056,5.979,13.409C422.23,287.358,419.981,289.465,417.344,290.488z"/>
	<path style="fill:#CCCCCC;" d="M374.086,277.306l-21.127,7.717l7.717-21.127c1.981-5.425,7.986-8.217,13.411-6.234
		c5.425,1.982,8.216,7.986,6.234,13.409C379.227,274.068,376.86,276.276,374.086,277.306z"/>
	<path style="fill:#CCCCCC;" d="M326.342,262.528l-17.503,15.765l0.212-23.556c0.052-5.721,4.731-10.317,10.452-10.265
		c5.721,0.052,10.317,4.731,10.265,10.452C329.741,257.932,328.406,260.654,326.342,262.528z"/>
	<path style="fill:#CCCCCC;" d="M285.463,255.964l-18.289,13.782l1.628-22.843c0.408-5.739,5.392-10.06,11.131-9.651
		c5.739,0.41,10.059,5.394,9.651,11.132C289.363,251.494,287.764,254.214,285.463,255.964z"/>
	<path style="fill:#CCCCCC;" d="M238.269,244.552l-6.349,18.785l-12.334-15.527c-3.708-4.669-2.931-11.461,1.738-15.171
		c4.669-3.71,11.461-2.931,15.169,1.738C238.844,237.336,239.369,241.214,238.269,244.552z"/>
	<path style="fill:#CCCCCC;" d="M371.853,367.344l6.425-21.746l12.342,19.023c3.138,4.836,1.761,11.301-3.075,14.439
		c-4.836,3.138-11.301,1.761-14.439-3.075C371.388,373.335,371.036,370.154,371.853,367.344z"/>
	<path style="fill:#CCCCCC;" d="M331.468,349.725l10.303-14.628l8.633,15.671c2.98,5.409,1.01,12.21-4.399,15.19
		c-5.409,2.979-12.21,1.01-15.19-4.399C328.686,357.694,329.093,353.11,331.468,349.725z"/>
	<path style="fill:#CCCCCC;" d="M294.233,345.656l9.482-21.425l9.482,21.425c2.318,5.237-0.049,11.361-5.286,13.679
		c-5.237,2.318-11.361-0.049-13.679-5.286C293.007,351.28,293.107,348.228,294.233,345.656z"/>
	<path style="fill:#CCCCCC;" d="M258.297,329.229l9.482-18.887l9.482,18.887c2.63,5.237,0.516,11.614-4.721,14.244
		s-11.614,0.516-14.244-4.721C256.743,335.657,256.872,332.112,258.297,329.229z"/>
</g>
<path style="fill:#B3B3B3;" d="M511.358,244.489c-2.01-18.813-12.656-35.679-28.865-45.427
	c-94.686-56.945-197.425-88.023-234.546-98.125c-7.245-1.972-14.388,3.477-14.388,10.987v25.388c0,7.839-7.725,13.326-15.121,10.759
	l-46.059-16.019c-4.122-1.441-8.711-0.392-11.796,2.693l-35.06,35.06c-3.401,3.401-8.572,4.299-12.921,2.238l-55.163-26.121
	c-8.686-4.122-18.257,3.717-15.918,13.048l1.618,6.486c1.795,7.194-3.641,14.148-11.038,14.148H0l22.745,136.838l43.67-35.262
	c3.098-2.503,6.688-4.375,10.532-5.462l52.179-14.919c2.668-0.759,5.424-1.138,8.193-1.138c6.638,0,12.871,2.2,17.916,5.98
	c5.032,3.78,8.876,9.166,10.709,15.539l28.726,99.427c2.326,8.054,8.484,14.426,16.462,16.993
	c22.91,7.396,77.465,19.433,174.743,10.974c8.066-0.708,15.172-5.639,18.661-12.947l23.959-50.32l-47.261,20.672
	c0,0-103.372-11.809-168.345-76.783l-20.672-44.302c132.906,0,256.949,53.152,256.949,53.152l19.205,48.74l10.646-10.646
	C503.102,312.054,514.986,278.36,511.358,244.489z M346.059,199.112h-52.862c-7.283,0-13.655-4.931-15.475-11.986l-3.565-13.819
	c-2.604-10.115,5.032-19.976,15.475-19.976h16.462c6.511,0,12.757,2.592,17.359,7.194l27.284,27.284
	C354.91,191.982,351.951,199.112,346.059,199.112z M479.421,249.546c-1.871,2.149-4.488,3.237-7.131,3.237
	c-2.225,0-4.45-0.771-6.246-2.339l-14.957-13.086c-3.945-3.452-4.337-9.445-0.885-13.389c3.439-3.932,9.432-4.337,13.377-0.885
	l14.957,13.086C482.48,239.621,482.872,245.614,479.421,249.546z"/>
</svg>