<?xml version="1.0" encoding="iso-8859-1"?>
<!-- Uploaded to: SVG Repo, www.svgrepo.com, Generator: SVG Repo Mixer Tools -->
<svg height="800px" width="800px" version="1.1" id="Layer_1" xmlns="http://www.w3.org/2000/svg" xmlns:xlink="http://www.w3.org/1999/xlink" 
	 viewBox="0 0 512.001 512.001" xml:space="preserve">
<polyline style="fill:#B27214;" points="7.24,16.627 504.761,16.627 504.761,64.827 7.24,64.827 "/>
<path style="fill:#F95428;" d="M504.761,443.533V254.019c-37.813,0-68.467-30.654-68.467-68.467h-261.51
	c0,37.813-30.654,68.467-68.467,68.467v189.516c37.813,0,68.467,30.654,68.467,68.467h261.512
	C436.296,474.187,466.948,443.533,504.761,443.533z"/>
<path style="fill:#FFFFFF;" d="M418.067,391.778h-12.814v-74.689h12.814c5.051,0,9.404-3.556,10.412-8.506
	c1.007-4.95-1.609-9.924-6.258-11.899l-112.526-47.791c-2.654-1.128-5.653-1.128-8.306,0l-112.526,47.791
	c-4.65,1.975-7.266,6.949-6.258,11.899c1.007,4.95,5.361,8.506,10.412,8.506h12.814v74.689h-12.814
	c-5.868,0-10.626,4.757-10.626,10.626v36.475c0,5.868,4.757,10.626,10.626,10.626h225.051c5.868,0,10.626-4.757,10.626-10.626
	v-36.475C428.692,396.536,423.935,391.778,418.067,391.778z M384.001,391.778H360.71v-74.689h23.291V391.778z M294.914,317.089
	v74.689h-23.293v-74.689L294.914,317.089L294.914,317.089z M316.165,317.089h23.293v74.689h-23.293V317.089z M305.539,270.218
	l60.326,25.62H245.213L305.539,270.218z M227.079,317.089h23.291v74.689h-23.291V317.089z M407.441,428.254H203.639v-15.224h203.802
	V428.254z"/>
<g>
	<path style="fill:#666666;" d="M215.032,232.477c-5.868,0-10.626-4.757-10.626-10.626V10.626C204.407,4.757,209.164,0,215.032,0
		c5.868,0,10.626,4.757,10.626,10.626v211.226C225.658,227.72,220.9,232.477,215.032,232.477z"/>
	<path style="fill:#666666;" d="M396.046,232.477c-5.868,0-10.626-4.757-10.626-10.626V10.626C385.421,4.757,390.178,0,396.046,0
		c5.868,0,10.626,4.757,10.626,10.626v211.226C406.672,227.72,401.914,232.477,396.046,232.477z"/>
</g>
</svg>