<?xml version="1.0" encoding="iso-8859-1"?>
<!-- Uploaded to: SVG Repo, www.svgrepo.com, Generator: SVG Repo Mixer Tools -->
<svg height="800px" width="800px" version="1.1" id="Layer_1" xmlns="http://www.w3.org/2000/svg" xmlns:xlink="http://www.w3.org/1999/xlink" 
	 viewBox="0 0 512.001 512.001" xml:space="preserve">
<g>
	<path style="fill:#F2F2F2;" d="M175.037,199.935c7.127-15.556,16-33.602,26.452-47.2l0.411-1.445
		c-3.302-0.912-6.26-2.646-8.64-4.97l-33.757,6.638l-2.124-34.502c-0.612-9.94,4.081-19.458,12.342-25.018l9.607-6.482
		c7.895-5.315,12.698-14.143,12.898-23.639c4.726,2.546,10.407,3.302,15.967,1.679l1.99-0.578c3.28-0.967,6.149-2.646,8.484-4.837
		c8.606,7.561,19.67,11.731,31.133,11.731h3.97c9.418,0,17.123,7.505,17.379,16.923c0,0,3.436,105.942,3.436,130.048
		c-31.267,22.816-60.043,28.02-79.801,28.02c-16.612,0-26.853-3.68-26.853-3.68C166.564,228.01,168.932,213.266,175.037,199.935z"/>
	<path style="fill:#F2F2F2;" d="M218.668,59.579c-2.335,2.19-5.204,3.869-8.484,4.837l-1.99,0.578
		c-5.56,1.623-11.241,0.867-15.967-1.679c-4.792-2.58-8.584-7.005-10.241-12.653l-0.289-0.99l38.817-25.151l4.003,13.688
		C226.84,46.125,224.305,54.308,218.668,59.579z"/>
	<polygon style="fill:#F2F2F2;" points="354.676,459.331 354.676,503.663 178.161,503.663 178.161,459.331 185.166,459.331 
		247.366,459.331 327.468,459.331 	"/>
	<polygon style="fill:#F2F2F2;" points="247.366,459.331 185.166,459.331 216.266,433.679 	"/>
	<path style="fill:#F2F2F2;" d="M274.585,218.281c-6.16,63.712-0.322,128.025,17.212,189.591c1.279,4.481,3.369,8.695,6.182,12.409
		l29.488,39.05h-80.102l-31.1-25.652c0,0-1.101-11.152-5.726-30.533c-1.357-5.66-3.002-12.031-5.015-19.025
		c-5.315-18.458-13.154-41.296-24.618-67.181c-9.851-22.26-10.23-49.146-12.976-74.32c0,0,10.241,3.68,26.853,3.68
		C214.543,246.301,243.319,241.097,274.585,218.281z"/>
	<path style="fill:#F2F2F2;" d="M220.224,23.531l0.289,0.99l-38.817,25.151l-4.014-13.688c-3.28-11.197,3.147-22.927,14.344-26.208
		l1.979-0.578C205.203,5.918,216.944,12.334,220.224,23.531z"/>
</g>
<g>
	<path style="fill:#333333;" d="M214.982,224.237c1.166,0.562,2.398,0.827,3.611,0.827c3.103,0,6.083-1.74,7.52-4.723
		c3.98-8.264,7.165-17.72,9.471-28.107c0.997-4.497-1.838-8.951-6.335-9.948c-4.501-1-8.951,1.838-9.948,6.335
		c-2.028,9.137-4.792,17.375-8.216,24.485C209.088,217.256,210.831,222.239,214.982,224.237z"/>
	<path style="fill:#333333;" d="M354.679,450.997h-23.062l-26.98-35.738c-2.199-2.912-3.821-6.167-4.819-9.676
		c-17.326-60.813-23.022-123.56-16.931-186.501c0.021-0.219,0.026-0.436,0.03-0.653c0.001-0.051,0.009-0.1,0.009-0.151
		c0-0.013,0-0.029,0-0.042c0-0.004,0-0.01,0-0.014c-0.004-24.065-3.305-125.932-3.444-130.211
		c-0.372-14.04-11.666-25.039-25.712-25.039h-3.97c-6.885,0-13.574-1.828-19.445-5.225c3.397-6.516,4.39-14.295,2.166-21.886
		l-4.298-14.675C223.657,5.595,207.255-3.375,191.666,1.19l-1.989,0.583c-15.592,4.567-24.562,20.967-19.995,36.559l4.298,14.674
		c1.666,5.69,4.928,10.632,9.386,14.34c-1.171,5.13-4.24,9.691-8.701,12.698l-9.607,6.475c-10.662,7.185-16.794,19.62-16.005,32.452
		l2.123,34.502c0.148,2.4,1.323,4.619,3.226,6.088c1.472,1.136,3.268,1.739,5.097,1.739c0.536,0,1.074-0.051,1.608-0.157
		l29.939-5.885c0.141,0.098,0.28,0.199,0.423,0.295c-9.347,12.782-17.417,26.514-24.009,40.906
		c-6.643,14.499-9.352,30.729-7.833,46.936c0.004,0.042,0.017,0.083,0.021,0.126l-0.009,0.001
		c0.548,5.029,1.013,10.264,1.462,15.326c1.852,20.876,3.767,42.464,12.184,61.468c24.523,55.377,32.164,96.849,34.107,109.871
		l-25.227,20.812h-4.002c-4.606,0-8.339,3.734-8.339,8.339v44.324c0,4.605,3.734,8.339,8.339,8.339h176.516
		c4.607,0,8.339-3.734,8.339-8.339v-44.324C363.019,454.731,359.286,450.997,354.679,450.997z M216.516,40.549
		c1.981,6.766-1.911,13.883-8.677,15.866l-1.988,0.582c-3.278,0.96-6.734,0.586-9.729-1.053c-1.5-0.821-2.794-1.908-3.834-3.201
		l23.368-15.135L216.516,40.549z M186.742,23.914c1.639-2.997,4.346-5.176,7.623-6.135l1.989-0.583
		c1.195-0.35,2.402-0.517,3.588-0.517c3.882,0,7.552,1.789,9.964,4.779L186.55,36.586l-0.862-2.942
		C184.729,30.367,185.103,26.911,186.742,23.914z M187.173,111.927c-5.356,5.357-8.307,12.48-8.307,20.055
		c0,2.931,0.447,5.76,1.276,8.42l-12.903,2.536l-1.538-24.995c-0.428-6.958,2.897-13.701,8.678-17.596l9.607-6.475
		c7.153-4.82,12.322-11.864,14.847-19.875c1.122,0.131,2.25,0.205,3.382,0.205c2.781,0,5.578-0.398,8.321-1.202l1.988-0.582l0,0
		c2.105-0.616,4.083-1.454,5.93-2.471c9.191,6.29,20.089,9.701,31.346,9.701h3.969c4.938,0,8.907,3.867,9.04,8.852
		c0.008,0.252,0.209,6.45,0.509,16.053c-2.812-0.795-5.959-0.09-8.173,2.124c-3.257,3.257-3.257,8.536,0,11.793
		c2.207,2.207,3.422,5.141,3.422,8.261c0,6.442-5.242,11.684-11.684,11.684c-6.442,0-11.684-5.242-11.684-11.684
		c0-4.606-3.734-8.339-8.339-8.339c-4.605,0-8.339,3.734-8.339,8.339c0,1.632,0.147,3.231,0.413,4.789
		c-0.009,0.153-0.023,0.305-0.023,0.46c0,6.442-5.242,11.684-11.684,11.684s-11.684-5.242-11.684-11.684
		c0-3.121,1.215-6.055,3.422-8.263c3.257-3.257,3.256-8.537,0-11.793C195.709,108.671,190.43,108.671,187.173,111.927z
		 M182.623,203.404c6.691-14.607,15.011-28.489,24.737-41.281c0.491-0.646,1.03-1.258,1.603-1.831l0,0
		c8.427-0.511,15.869-4.722,20.728-11.022c4.775,3.651,10.733,5.827,17.195,5.827c6.723,0,12.903-2.356,17.769-6.279
		c0.727,25.2,1.423,51.711,1.566,65.175c-41.665,28.815-77.342,24.975-90.311,22.155
		C175.684,224.775,177.972,213.558,182.623,203.404z M188.535,313.561c-7.297-16.477-9.089-36.665-10.82-56.189
		c-0.118-1.333-0.238-2.679-0.359-4.031c4.714,0.749,10.634,1.352,17.564,1.351c18.011-0.001,42.716-4.065,69.997-20.093
		c-0.087,1.355-0.165,2.711-0.241,4.066l-59.595,34.609c-3.983,2.313-5.336,7.416-3.023,11.399c1.548,2.665,4.344,4.153,7.22,4.153
		c1.422,0,2.862-0.364,4.181-1.13l50.483-29.316c-0.07,3.847-0.097,7.692-0.082,11.536c-0.095,0.073-0.192,0.139-0.284,0.216
		l-23.138,19.534c-3.519,2.971-3.963,8.233-0.992,11.752c1.649,1.954,4.005,2.96,6.376,2.96c1.899,0,3.811-0.646,5.375-1.968
		l13.182-11.129c1.814,40.106,8.29,79.874,19.401,118.87c1.564,5.496,4.104,10.595,7.549,15.156l19.394,25.688h-60.353
		l-26.229-21.638c-0.485-3.556-1.442-9.696-3.192-18.062c11.621-0.538,26.553-2.362,38.134-7.67
		c4.187-1.919,6.025-6.868,4.106-11.056c-1.919-4.186-6.869-6.024-11.056-4.106c-10.364,4.75-25.683,5.986-35.046,6.273
		c-0.455-1.78-0.94-3.619-1.449-5.507c10.143-4.053,21.439-9.669,28.3-16.53c3.257-3.257,3.257-8.537,0-11.794
		c-3.256-3.257-8.536-3.257-11.793,0c-3.808,3.808-11.457,8.181-21.177,12.208C205.694,356.066,198.454,335.96,188.535,313.561z
		 M224.157,450.997h-15.784l7.891-6.51L224.157,450.997z M346.34,495.321H186.503v-27.645H346.34L346.34,495.321L346.34,495.321z"/>
</g>
</svg>