<?xml version="1.0" encoding="iso-8859-1"?>
<!-- Uploaded to: SVG Repo, www.svgrepo.com, Generator: SVG Repo Mixer Tools -->
<svg height="800px" width="800px" version="1.1" id="Layer_1" xmlns="http://www.w3.org/2000/svg" xmlns:xlink="http://www.w3.org/1999/xlink" 
	 viewBox="0 0 512 512" xml:space="preserve">
<circle style="fill:#B8E6FF;" cx="256.001" cy="216.481" r="206.33"/>
<circle style="fill:#D4F0FC;" cx="256.001" cy="216.481" r="94.808"/>
<g>
	<path style="fill:#333333;" d="M255.999,321.443c-57.875,0-104.961-47.086-104.961-104.961s47.086-104.961,104.961-104.961
		S360.96,158.607,360.96,216.482C360.96,274.359,313.875,321.443,255.999,321.443z M255.999,131.822
		c-46.681,0-84.66,37.979-84.66,84.66s37.979,84.66,84.66,84.66s84.66-37.979,84.66-84.66S302.682,131.822,255.999,131.822z"/>
	<path style="fill:#333333;" d="M440.67,491.699h-31.444l-21.385-103.636c51.434-39.615,84.642-101.787,84.642-171.579
		C472.483,97.114,375.369,0,255.999,0S39.517,97.114,39.517,216.482c0,69.792,33.208,131.965,84.641,171.579l-21.385,103.637H71.33
		c-5.607,0-10.151,4.545-10.151,10.151S65.722,512,71.33,512h39.714h289.912h39.715c5.607,0,10.151-4.545,10.151-10.151
		S446.276,491.699,440.67,491.699z M59.819,216.482c0-108.174,88.007-196.181,196.181-196.181S452.18,108.308,452.18,216.482
		c0,59.671-26.787,113.197-68.957,149.207l-1.784-8.643c-1.134-5.491-6.506-9.023-11.993-7.89c-5.491,1.133-9.023,6.502-7.89,11.993
		l3.749,18.164c-31.256,21.05-68.87,33.35-109.305,33.35s-78.049-12.3-109.307-33.35l3.749-18.164
		c1.133-5.491-2.4-10.86-7.89-11.993c-5.488-1.134-10.859,2.4-11.993,7.89l-1.784,8.642
		C86.604,329.677,59.819,276.153,59.819,216.482z M123.503,491.699l18.794-91.078c33.066,20.492,72.024,32.344,113.703,32.344
		s80.636-11.851,113.701-32.343l18.794,91.076H123.503z"/>
</g>
<g>
	<path style="fill:#F2F2F2;" d="M401.154,284.83c-16.418,0-29.775-13.357-29.775-29.775v-18.271c0-5.606,4.543-10.151,10.151-10.151
		c5.607,0,10.151,4.545,10.151,10.151v18.271c0,5.224,4.251,9.474,9.474,9.474c5.223,0,9.474-4.25,9.474-9.474v-18.948
		c0-5.224-4.251-9.474-9.474-9.474c-16.418,0-29.775-13.357-29.775-29.775v-18.948c0-16.418,13.357-29.775,29.775-29.775
		s29.775,13.357,29.775,29.775v18.271c0,5.606-4.543,10.151-10.151,10.151c-5.607,0-10.151-4.545-10.151-10.151v-18.271
		c0-5.224-4.251-9.474-9.474-9.474c-5.223,0-9.474,4.25-9.474,9.474v18.948c0,5.224,4.251,9.474,9.474,9.474
		c16.418,0,29.775,13.357,29.775,29.775v18.948C430.93,271.473,417.573,284.83,401.154,284.83z"/>
	<path style="fill:#F2F2F2;" d="M110.844,284.83c-16.418,0-29.775-13.357-29.775-29.775v-18.948
		c0-16.418,13.357-29.775,29.775-29.775c5.223,0,9.474-4.25,9.474-9.474v-18.948c0-5.224-4.251-9.474-9.474-9.474
		c-5.223,0-9.474,4.25-9.474,9.474v18.271c0,5.606-4.543,10.151-10.151,10.151c-5.607,0-10.151-4.545-10.151-10.151v-18.271
		c0-16.418,13.357-29.775,29.775-29.775s29.775,13.357,29.775,29.775v18.948c0,16.418-13.357,29.775-29.775,29.775
		c-5.223,0-9.474,4.25-9.474,9.474v18.948c0,5.224,4.251,9.474,9.474,9.474c5.223,0,9.474-4.25,9.474-9.474v-18.271
		c0-5.606,4.543-10.151,10.151-10.151s10.151,4.545,10.151,10.151v18.271C140.62,271.473,127.263,284.83,110.844,284.83z"/>
	<path style="fill:#F2F2F2;" d="M294.572,391.412h-18.271c-5.607,0-10.151-4.545-10.151-10.151c0-5.606,4.543-10.151,10.151-10.151
		h18.271c5.223,0,9.474-4.25,9.474-9.474c0-5.224-4.251-9.474-9.474-9.474h-18.948c-5.223,0-9.474,4.25-9.474,9.474
		c0,16.418-13.357,29.775-29.775,29.775h-18.948c-16.418,0-29.775-13.357-29.775-29.775c0-16.418,13.357-29.775,29.775-29.775
		h18.271c5.607,0,10.151,4.545,10.151,10.151s-4.543,10.151-10.151,10.151h-18.271c-5.223,0-9.474,4.25-9.474,9.474
		c0,5.224,4.251,9.474,9.474,9.474h18.948c5.223,0,9.474-4.25,9.474-9.474c0-16.418,13.357-29.775,29.775-29.775h18.948
		c16.418,0,29.775,13.357,29.775,29.775C324.347,378.055,310.99,391.412,294.572,391.412z"/>
	<path style="fill:#F2F2F2;" d="M294.572,101.102h-18.948c-16.418,0-29.775-13.357-29.775-29.775c0-5.224-4.251-9.474-9.474-9.474
		h-18.948c-5.223,0-9.474,4.25-9.474,9.474s4.251,9.474,9.474,9.474h18.271c5.607,0,10.151,4.545,10.151,10.151
		s-4.543,10.151-10.151,10.151h-18.271c-16.418,0-29.775-13.357-29.775-29.775s13.357-29.775,29.775-29.775h18.948
		c16.418,0,29.775,13.357,29.775,29.775c0,5.224,4.251,9.474,9.474,9.474h18.948c5.223,0,9.474-4.25,9.474-9.474
		s-4.251-9.474-9.474-9.474h-18.271c-5.607,0-10.151-4.545-10.151-10.151s4.543-10.151,10.151-10.151h18.271
		c16.418,0,29.775,13.357,29.775,29.775S310.99,101.102,294.572,101.102z"/>
	<path style="fill:#F2F2F2;" d="M371.041,131.216c-2.597,0-5.196-0.991-7.179-2.973l-19.625-19.625
		c-3.964-3.964-3.964-10.392,0-14.354c3.966-3.964,10.392-3.964,14.356,0l19.625,19.625c3.964,3.964,3.964,10.392,0,14.354
		C376.236,130.225,373.638,131.216,371.041,131.216z"/>
	<path style="fill:#F2F2F2;" d="M160.583,341.674c-2.597,0-5.196-0.991-7.179-2.973l-19.625-19.625
		c-3.964-3.964-3.964-10.392,0-14.354c3.966-3.964,10.392-3.964,14.356,0l19.625,19.625c3.964,3.964,3.964,10.392,0,14.354
		C165.779,340.683,163.18,341.674,160.583,341.674z"/>
	<path style="fill:#F2F2F2;" d="M140.958,131.216c-2.597,0-5.196-0.991-7.179-2.973c-3.964-3.964-3.964-10.392,0-14.354
		l19.625-19.625c3.966-3.964,10.392-3.964,14.356,0s3.964,10.392,0,14.354l-19.625,19.625
		C146.154,130.225,143.555,131.216,140.958,131.216z"/>
	<path style="fill:#F2F2F2;" d="M351.416,341.674c-2.597,0-5.196-0.991-7.179-2.973c-3.964-3.964-3.964-10.392,0-14.354
		l19.625-19.625c3.966-3.964,10.392-3.964,14.356,0c3.964,3.964,3.964,10.392,0,14.354L358.593,338.7
		C356.612,340.683,354.013,341.674,351.416,341.674z"/>
</g>
</svg>