<?xml version="1.0" encoding="iso-8859-1"?>
<!-- Uploaded to: SVG Repo, www.svgrepo.com, Generator: SVG Repo Mixer Tools -->
<svg version="1.1" id="Layer_1" xmlns="http://www.w3.org/2000/svg" xmlns:xlink="http://www.w3.org/1999/xlink" 
	 viewBox="0 0 512 512" xml:space="preserve">
<path style="fill:#F7B239;" d="M324.575,240.242c-0.16,6.903-0.593,13.805-1.312,20.674c-0.342,3.434-0.764,6.857-1.266,10.269
	c-0.57,4.005-1.244,7.998-2.008,11.98l-16.749,87.134c0,0-15.083,90.466-0.559,124.592c1.495,3.503,3.286,6.401,5.442,8.557H203.874
	c2.156-2.156,3.959-5.066,5.431-8.557c14.536-34.137-0.536-124.592-0.536-124.592l-16.761-87.134
	c-0.764-3.982-1.438-7.975-2.019-11.98c-0.491-3.423-0.913-6.846-1.266-10.269c-0.707-6.88-1.141-13.771-1.301-20.674
	c-0.08-3.423-0.091-6.846-0.023-10.269c0.091-6.15,0.422-12.299,0.97-18.438c0.251-2.875,0.548-5.75,0.901-8.614l0.205-1.654
	l4.94-40.435l1.255-10.269l2.328-19.054l0.183-1.449l-2.864-8.82l-5.568-17.183c-0.319-1.015-0.525-2.042-0.582-3.081
	c-0.126-1.734,0.126-3.48,0.719-5.134l1.86-5.134l18.597-51.286c0.479-1.312,1.152-2.521,2.008-3.583
	c1.095-1.369,2.464-2.51,4.062-3.343l4.552-2.362l28.763-14.912l0.445-0.228c3.651-1.894,7.998-1.894,11.649,0l0.456,0.24
	l28.752,14.901l4.552,2.362c1.586,0.833,2.966,1.974,4.062,3.343c0.856,1.061,1.54,2.27,2.008,3.583l18.597,51.286l1.86,5.134
	c0.593,1.654,0.844,3.4,0.719,5.134c-0.057,1.038-0.262,2.065-0.582,3.081l-5.568,17.183l-2.864,8.82h0.011l0.183,1.449
	l2.328,19.054l1.255,10.269l4.94,40.435l0.205,1.654c0.354,2.864,0.65,5.739,0.901,8.614c0.548,6.138,0.867,12.288,0.958,18.438
	C324.666,233.396,324.655,236.819,324.575,240.242z"/>
<g>
	<path style="fill:#F95428;" d="M323.263,260.917c-0.342,3.434-0.764,6.857-1.266,10.269H265.52v-10.269H323.263z"/>
	<path style="fill:#F95428;" d="M246.466,260.917v10.269h-56.477c-0.491-3.423-0.913-6.846-1.266-10.269H246.466z"/>
</g>
<rect x="241.345" y="235.115" style="fill:#E09B2D;" width="29.317" height="268.329"/>
<rect x="241.345" y="276.6" style="fill:#2BA5F7;" width="29.317" height="10.269"/>
<rect x="241.345" y="319.352" style="fill:#F95428;" width="29.317" height="10.269"/>
<rect x="241.345" y="362.103" style="fill:#2BA5F7;" width="29.317" height="10.269"/>
<rect x="241.345" y="404.866" style="fill:#F95428;" width="29.317" height="10.269"/>
<g>
	<rect x="241.345" y="447.617" style="fill:#2BA5F7;" width="29.317" height="10.269"/>
	<path style="fill:#2BA5F7;" d="M324.575,240.242H187.422c-0.08-3.423-0.091-6.846-0.023-10.269h137.199
		C324.666,233.396,324.655,236.819,324.575,240.242z"/>
</g>
<path style="fill:#F95428;" d="M323.639,211.537H188.368c0.251-2.875,0.548-5.75,0.901-8.614l0.205-1.654h133.058l0.205,1.654
	C323.092,205.786,323.388,208.661,323.639,211.537z"/>
<g>
	<path style="fill:#2BA5F7;" d="M237.874,62.962l-6.914,3.56l-2.213,1.141l-16.395-31.821c1.095-1.369,2.464-2.51,4.062-3.343
		l4.552-2.362l12.916,25.067L237.874,62.962z"/>
	<path style="fill:#2BA5F7;" d="M299.645,35.842L283.25,67.663l-2.213-1.141l-6.914-3.56l3.993-7.758l12.916-25.067l4.552,2.362
		C297.169,33.332,298.55,34.473,299.645,35.842z"/>
</g>
<path style="fill:#E09B2D;" d="M268.625,170.36c0,7.876,6.385,14.261,14.261,14.261l0,0c5.885,0,11.165-3.616,13.294-9.101
	l17.641-45.461c0,0-3.908,56.936-18.17,64.352c-14.262,7.416-27.383-1.141-27.383-15.403S268.625,170.36,268.625,170.36z"/>
<path style="fill:#2BA5F7;" d="M243.02,90.709v10.269h-53.853c-0.126-1.734,0.126-3.48,0.719-5.134l1.86-5.134H243.02z"/>
<path style="fill:#E09B2D;" d="M197.998,130.058c0,0,3.908,56.936,18.17,64.352s27.383-1.141,27.383-15.403
	s-0.356-8.648-0.356-8.648c0,7.876-6.385,14.261-14.261,14.261l0,0c-5.885,0-11.165-3.616-13.294-9.101L197.998,130.058"/>
<g>
	<path style="fill:#2BA5F7;" d="M322.829,100.977h-53.853V90.709h51.274l1.86,5.134C322.704,97.499,322.955,99.243,322.829,100.977z
		"/>
	<polygon style="fill:#2BA5F7;" points="243.02,121.242 243.02,131.51 197.998,131.51 198.181,130.061 195.317,121.242 	"/>
	<polygon style="fill:#2BA5F7;" points="313.827,130.061 314.01,131.51 268.977,131.51 268.977,121.242 316.68,121.242 
		313.816,130.061 	"/>
</g>
<path style="fill:#E09B2D;" d="M268.623,100.179v22.956c0,6.971-5.648,12.619-12.619,12.619c-3.491,0-6.64-1.415-8.934-3.697
	c-2.282-2.282-3.697-5.431-3.697-8.922v-22.956H268.623z"/>
<path style="fill:#F95428;" d="M256.001,53.269c-3.466,0-6.275-2.809-6.275-6.275V6.275c0-3.466,2.809-6.275,6.275-6.275
	c3.466,0,6.275,2.809,6.275,6.275v40.718C262.276,50.46,259.466,53.269,256.001,53.269z"/>
<path style="fill:#808080;" d="M353.927,512H158.073c-4.726,0-8.557-3.831-8.557-8.557c0-4.726,3.831-8.557,8.557-8.557h195.854
	c4.726,0,8.557,3.831,8.557,8.557C362.484,508.169,358.653,512,353.927,512z"/>
<path style="fill:#C98624;" d="M268.623,100.179v5.979c-3.708,2.179-8.021,3.423-12.619,3.423c-4.609,0-8.922-1.244-12.63-3.423
	v-5.979H268.623z"/>
<path style="fill:#E09B2D;" d="M255.998,103.591L255.998,103.591c-13.831,0-25.042-11.211-25.042-25.042V65.038
	c0-9.965,8.078-18.044,18.044-18.044h13.996c9.965,0,18.044,8.078,18.044,18.044v13.513
	C281.04,92.38,269.828,103.591,255.998,103.591z"/>
<g>
	<polygon style="fill:#2BA5F7;" points="243.02,150.564 243.02,160.833 209.944,160.833 205.951,150.564 	"/>
	<polygon style="fill:#2BA5F7;" points="268.977,150.564 305.863,150.564 301.882,160.833 268.977,160.833 	"/>
</g>
<g>
	<path style="fill:#4D4D4D;" d="M238.468,73.47c-1.474,0-2.722-1.134-2.84-2.629c-0.123-1.57,1.05-2.944,2.62-3.067l10.882-0.856
		c1.559-0.124,2.944,1.049,3.067,2.62c0.123,1.57-1.05,2.944-2.62,3.067l-10.882,0.856C238.618,73.467,238.543,73.47,238.468,73.47z
		"/>
	<path style="fill:#4D4D4D;" d="M273.528,73.47c-0.075,0-0.151-0.002-0.227-0.009l-10.882-0.856c-1.57-0.123-2.744-1.497-2.62-3.067
		c0.123-1.571,1.513-2.744,3.067-2.62l10.882,0.856c1.57,0.123,2.744,1.497,2.62,3.067C276.251,72.335,275.002,73.47,273.528,73.47z
		"/>
</g>
</svg>