<?xml version="1.0" encoding="iso-8859-1"?>
<!-- Uploaded to: SVG Repo, www.svgrepo.com, Generator: SVG Repo Mixer Tools -->
<svg height="800px" width="800px" version="1.1" id="Layer_1" xmlns="http://www.w3.org/2000/svg" xmlns:xlink="http://www.w3.org/1999/xlink" 
	 viewBox="0 0 512 512" xml:space="preserve">
<path style="fill:#9AD14B;" d="M477.261,419.64H34.738c-14.258,0-25.816-11.558-25.816-25.816v-168.28
	c0-14.258,11.558-25.816,25.816-25.816h442.523c14.258,0,25.816,11.558,25.816,25.816v168.28
	C503.077,408.082,491.519,419.64,477.261,419.64z"/>
<circle style="fill:#F7B239;" cx="256.003" cy="114.998" r="22.64"/>
<path style="fill:#333333;" d="M477.261,190.805H367.065l-79.761-79.76c-1.951-15.542-15.241-27.609-31.304-27.609
	c-16.064,0-29.353,12.066-31.305,27.609l-79.761,79.76H34.738C15.584,190.805,0,206.389,0,225.544v168.28
	c0,19.156,15.584,34.738,34.738,34.738h442.523c19.156,0,34.738-15.584,34.738-34.738v-168.28
	C512,206.389,496.416,190.805,477.261,190.805z M256.001,101.283c7.562,0,13.715,6.152,13.715,13.715
	c0,7.562-6.152,13.715-13.715,13.715s-13.715-6.152-13.715-13.715C242.284,107.435,248.438,101.283,256.001,101.283z
	 M229.255,131.724c5.587,8.9,15.484,14.835,26.746,14.835c11.262,0,21.159-5.933,26.745-14.835l59.082,59.081H170.172
	L229.255,131.724z M494.154,393.824c0,9.315-7.578,16.893-16.893,16.893H34.738c-9.315,0-16.893-7.578-16.893-16.893v-168.28
	c0-9.315,7.578-16.893,16.893-16.893h442.523c9.315,0,16.893,7.578,16.893,16.893V393.824z"/>
<g>
	<path style="fill:#F2F2F2;" d="M136.247,258.454h-8.656c-16.33,0-29.616,13.286-29.616,29.616V331.3
		c0,16.33,13.286,29.616,29.616,29.616h8.656c16.33,0,29.616-13.286,29.616-29.616v-43.231
		C165.862,271.739,152.576,258.454,136.247,258.454z M148.016,331.299c0,6.49-5.28,11.77-11.77,11.77h-8.656
		c-6.49,0-11.77-5.28-11.77-11.77v-43.231c0-6.49,5.28-11.77,11.77-11.77h8.656c6.49,0,11.77,5.28,11.77,11.77V331.299z"/>
	<path style="fill:#F2F2F2;" d="M225.225,258.454h-35.606c-4.928,0-8.923,3.995-8.923,8.923v84.615c0,4.928,3.995,8.923,8.923,8.923
		c4.928,0,8.923-3.995,8.923-8.923v-28.381h26.683c12.88,0,23.359-10.479,23.359-23.358v-18.441
		C248.583,268.932,238.105,258.454,225.225,258.454z M230.737,300.253c0,3.04-2.473,5.512-5.513,5.512h-26.683V276.3h26.683
		c3.04,0,5.513,2.473,5.513,5.513V300.253z"/>
	<path style="fill:#F2F2F2;" d="M405.102,258.454c-4.928,0-8.923,3.995-8.923,8.923v51.999l-33.438-56.54
		c-2.046-3.461-6.154-5.125-10.035-4.065c-3.878,1.061-6.568,4.585-6.568,8.606v84.615c0,4.928,3.995,8.923,8.923,8.923
		c4.928,0,8.923-3.995,8.923-8.923v-51.999l33.438,56.54c1.635,2.764,4.583,4.382,7.68,4.382c0.782,0,1.573-0.102,2.354-0.316
		c3.878-1.061,6.568-4.585,6.568-8.606v-84.615C414.025,262.449,410.031,258.454,405.102,258.454z"/>
	<path style="fill:#F2F2F2;" d="M322.381,276.3c4.928,0,8.923-3.995,8.923-8.923s-3.995-8.923-8.923-8.923h-50.042
		c-4.928,0-8.923,3.995-8.923,8.923v84.615c0,4.928,3.995,8.923,8.923,8.923h50.042c4.928,0,8.923-3.995,8.923-8.923
		s-3.995-8.923-8.923-8.923h-41.119v-23.552h16.098c4.928,0,8.923-3.995,8.923-8.923s-3.995-8.923-8.923-8.923h-16.098V276.3
		H322.381z"/>
</g>
</svg>