<?xml version="1.0" encoding="iso-8859-1"?>
<!-- Uploaded to: SVG Repo, www.svgrepo.com, Generator: SVG Repo Mixer Tools -->
<svg fill="#000000" height="800px" width="800px" version="1.1" id="Layer_1" xmlns="http://www.w3.org/2000/svg" xmlns:xlink="http://www.w3.org/1999/xlink" 
	 viewBox="0 0 512.001 512.001" xml:space="preserve">
<g>
	<g>
		<g>
			<path d="M103.036,331.709c19.863,13.273,66.148,35.542,152.968,35.542c86.821,0,133.106-22.269,152.967-35.543
				c8.037-5.37,10.182-13.134,10.747-17.282c0.578-4.242,0.574-12.489-5.933-20.041l-28.419-32.986
				c-42.64-49.491-72.668-109.357-86.839-173.13l-4.526-20.363c-3.988-17.946-19.613-30.481-37.996-30.481
				c-18.384,0-34.008,12.534-37.998,30.479l-4.525,20.364c-14.173,63.772-44.201,123.64-86.839,173.13l-28.419,32.986
				c-6.507,7.553-6.511,15.797-5.934,20.044C92.855,318.577,95.003,326.34,103.036,331.709z M113.209,307.296l28.419-32.986
				c44.762-51.955,76.285-114.805,91.162-181.751l4.525-20.364c1.961-8.825,9.645-14.989,18.687-14.989
				c9.041,0,16.725,6.164,18.686,14.99l4.526,20.363c14.877,66.947,46.401,129.796,91.162,181.751l28.419,32.986
				c1.104,1.282,1.547,2.784,1.319,4.465c-0.206,1.513-0.924,2.692-2.136,3.501c-17.999,12.03-60.377,32.208-141.976,32.208
				s-123.977-20.18-141.977-32.208c-1.211-0.81-1.929-1.987-2.136-3.501C111.662,310.079,112.106,308.577,113.209,307.296z"/>
			<path d="M497.092,344.711h-39.725v-33.749c0-0.108-0.013-0.214-0.016-0.32c-0.086-14.843-5.41-29.302-15.216-40.683
				l-28.419-32.986c-38.623-44.83-65.822-99.059-78.659-156.824l-4.525-20.363C322.71,24.584,292.062,0,256.003,0
				c-36.059,0-66.707,24.584-74.529,59.785l-4.525,20.363c-12.837,57.765-40.036,111.992-78.659,156.824l-28.419,32.986
				c-9.829,11.409-15.155,25.911-15.215,40.792c-0.008,0.067-0.026,0.119-0.026,0.199v33.762H14.909
				c-5.462,0-9.891,4.428-9.891,9.891v54.523c0,5.462,4.428,9.891,9.891,9.891h43.088c4.348,12.768,12.745,23.934,24.251,31.625
				c24.137,16.131,67.981,36.051,140.782,40.796c5.99,12.168,18.515,20.565,32.97,20.565c14.454,0,26.979-8.395,32.97-20.563
				c72.817-4.745,116.666-24.666,140.809-40.8c11.494-7.69,19.882-18.856,24.224-31.623h43.088c5.462,0,9.891-4.428,9.891-9.891
				v-54.523C506.983,349.139,502.554,344.711,497.092,344.711z M24.8,399.232L24.8,399.232v-34.742h29.829v34.273
				c0,0.157,0.013,0.311,0.015,0.468H24.8z M84.858,282.87l28.419-32.986c40.746-47.295,69.441-104.504,82.983-165.444l4.525-20.363
				c5.795-26.08,28.503-44.295,55.218-44.295c26.716,0,49.423,18.215,55.218,44.295l4.525,20.363
				c13.542,60.939,42.237,118.148,82.983,165.444l28.419,32.986c8.05,9.342,11.712,21.712,10.049,33.936
				c-1.642,12.064-8.357,22.842-18.423,29.571c-50.146,33.514-123.505,38.517-162.77,38.517s-112.625-5.003-162.77-38.517
				c-10.067-6.728-16.783-17.505-18.424-29.571C73.146,304.581,76.808,292.212,84.858,282.87z M256.001,492.219
				c-9.345,0-16.947-7.603-16.947-16.947s7.603-16.947,16.947-16.947c9.345,0,16.947,7.603,16.947,16.947
				S265.345,492.219,256.001,492.219z M239.322,442.564c1.389-7.957,8.329-14.03,16.677-14.03c8.349,0,15.29,6.074,16.678,14.032
				c-5.009-2.565-10.675-4.022-16.678-4.022C249.998,438.542,244.332,439.999,239.322,442.564z M437.585,398.779
				c0,14.298-7.03,27.54-18.802,35.414c-21.568,14.413-60.666,32.14-126.054,37.142v-25.853c0-20.252-16.477-36.729-36.729-36.729
				c-20.252,0-36.729,16.477-36.729,36.729v25.853c-65.372-5.003-104.465-22.728-126.032-37.14
				c-11.791-7.881-18.829-21.125-18.829-35.429v-42.149c2.424,2.262,5.039,4.341,7.831,6.207
				c28.568,19.093,81.905,41.851,173.762,41.851s145.193-22.759,173.762-41.851c2.788-1.863,5.399-3.939,7.82-6.197V398.779z
				 M487.203,399.232h-0.001h-29.848c0.001-0.152,0.014-0.302,0.014-0.455v-34.287h29.834V399.232z"/>
			<circle cx="255.999" cy="89.241" r="9.891"/>
			<circle cx="255.999" cy="118.029" r="9.891"/>
			<circle cx="255.999" cy="146.62" r="9.891"/>
			<circle cx="255.999" cy="260.206" r="9.891"/>
			<circle cx="255.999" cy="312.56" r="9.891"/>
			<circle cx="224.692" cy="312.56" r="9.891"/>
			<circle cx="287.307" cy="312.56" r="9.891"/>
			<circle cx="271.653" cy="286.238" r="9.891"/>
			<circle cx="240.346" cy="286.238" r="9.891"/>
		</g>
	</g>
</g>
</svg>