<?xml version="1.0" encoding="iso-8859-1"?>
<!-- Uploaded to: SVG Repo, www.svgrepo.com, Generator: SVG Repo Mixer Tools -->
<svg height="800px" width="800px" version="1.1" id="Layer_1" xmlns="http://www.w3.org/2000/svg" xmlns:xlink="http://www.w3.org/1999/xlink" 
	 viewBox="0 0 512.001 512.001" xml:space="preserve">
<path style="fill:#E6E6E6;" d="M447.477,354.601l-0.001,0.042v-43.683l-0.009,0.009c0.004-12.197-4.166-24.507-12.825-34.558
	l-28.419-32.986c-39.821-46.221-67.587-101.577-80.822-161.133l-4.525-20.363c-6.756-30.404-33.725-52.039-64.873-52.039l0,0l0,0
	c-31.148,0-58.117,21.633-64.874,52.04l-4.525,20.363c-13.235,59.557-41,114.912-80.822,161.133l-28.418,32.986
	c-8.659,10.05-12.828,22.358-12.825,34.556l-0.02-0.02v43.652H14.911v54.523h50.637l-0.001-0.059
	c2.585,13.102,10.098,25.264,22.199,33.353c27.153,18.146,72.677,35.936,142.255,39.523h0.033
	c2.97,11.591,13.453,20.171,25.969,20.171c12.516,0,23.001-8.58,25.969-20.171h0.041c69.578-3.587,115.115-21.377,142.268-39.523
	c12.096-8.092,19.599-20.254,22.178-33.357l-0.001,0.065h50.637v-54.523h-49.616V354.601z"/>
<path style="fill:#F2F2F2;" d="M434.642,276.413l-28.419-32.986c-39.821-46.221-67.587-101.577-80.822-161.133l-4.525-20.363
	c-6.756-30.405-33.725-52.04-64.873-52.04l0,0l0,0c-31.148,0-58.117,21.633-64.874,52.04l-4.525,20.363
	c-13.235,59.557-41,114.912-80.822,161.133l-28.418,32.986c-20.611,23.924-15.881,60.641,10.373,78.186
	c30.398,20.314,83.839,40.184,168.267,40.184s137.869-19.87,168.267-40.184C450.524,337.054,455.253,300.336,434.642,276.413z
	 M409.916,313.092c-0.34,2.5-1.63,7.177-6.441,10.392c-18.931,12.652-63.262,33.876-147.472,33.876s-128.541-21.224-147.472-33.875
	c-4.811-3.215-6.101-7.891-6.441-10.392c-0.353-2.595-0.351-7.636,3.627-12.253l28.419-32.986
	c43.7-50.724,74.476-112.083,89.001-177.441l4.525-20.364c2.975-13.385,14.629-22.734,28.342-22.734
	c13.712,0,25.366,9.349,28.342,22.736l4.526,20.364c14.524,65.358,45.3,126.716,89.001,177.44l28.418,32.986
	C410.268,305.456,410.27,310.498,409.916,313.092z"/>
<path style="fill:#B3B3B3;" d="M256.003,357.36c-84.21,0-128.541-21.224-147.472-33.875c-4.811-3.215-6.101-7.891-6.441-10.392
	c-0.353-2.595-0.351-7.636,3.627-12.253l28.419-32.986c43.7-50.725,74.476-112.083,89.001-177.441l4.525-20.364
	c2.975-13.385,14.629-22.734,28.342-22.734c13.713,0,25.366,9.349,28.342,22.736l4.526,20.364
	c14.524,65.358,45.3,126.716,89.001,177.44l28.418,32.986c3.977,4.617,3.979,9.659,3.627,12.253
	c-0.34,2.502-1.63,7.177-6.441,10.392C384.545,336.136,340.213,357.36,256.003,357.36z"/>
<g>
	<path style="fill:#333333;" d="M103.036,331.709c19.863,13.273,66.148,35.542,152.967,35.542
		c86.821,0,133.106-22.269,152.967-35.543c8.037-5.37,10.182-13.134,10.747-17.282c0.578-4.242,0.574-12.489-5.933-20.041
		l-28.419-32.986c-42.64-49.491-72.668-109.357-86.839-173.13l-4.526-20.363c-3.988-17.946-19.613-30.481-37.996-30.481
		s-34.008,12.534-37.998,30.479l-4.525,20.364c-14.173,63.772-44.201,123.639-86.839,173.13l-28.419,32.986
		c-6.507,7.553-6.511,15.798-5.934,20.044C92.855,318.577,95.003,326.34,103.036,331.709z M113.209,307.296l28.419-32.986
		c44.762-51.955,76.285-114.805,91.162-181.751l4.525-20.364c1.961-8.825,9.645-14.989,18.687-14.989
		c9.041,0,16.725,6.164,18.686,14.99l4.526,20.363c14.877,66.947,46.401,129.795,91.162,181.751l28.419,32.986
		c1.104,1.282,1.547,2.784,1.319,4.465c-0.206,1.513-0.924,2.692-2.136,3.501c-17.999,12.03-60.377,32.208-141.976,32.208
		s-123.977-20.18-141.977-32.208c-1.211-0.81-1.929-1.987-2.136-3.501C111.662,310.079,112.106,308.577,113.209,307.296z"/>
	<path style="fill:#333333;" d="M497.092,344.711h-39.725v-33.749c0-0.108-0.013-0.214-0.016-0.32
		c-0.086-14.843-5.41-29.302-15.216-40.683l-28.419-32.986c-38.623-44.83-65.822-99.059-78.659-156.824l-4.525-20.363
		C322.71,24.584,292.062,0,256.003,0s-66.707,24.584-74.529,59.785l-4.525,20.363c-12.837,57.765-40.036,111.992-78.659,156.824
		l-28.419,32.986c-9.829,11.409-15.155,25.911-15.215,40.792c-0.008,0.067-0.026,0.119-0.026,0.199v33.762H14.909
		c-5.462,0-9.891,4.428-9.891,9.891v54.523c0,5.462,4.428,9.891,9.891,9.891h43.088c4.348,12.768,12.745,23.934,24.251,31.625
		c24.137,16.131,67.981,36.051,140.782,40.796c5.99,12.168,18.515,20.565,32.97,20.565c14.454,0,26.979-8.395,32.97-20.564
		c72.817-4.745,116.666-24.666,140.809-40.8c11.494-7.69,19.882-18.856,24.224-31.623h43.088c5.462,0,9.891-4.428,9.891-9.891
		v-54.523C506.983,349.139,502.554,344.711,497.092,344.711z M84.858,282.87l28.419-32.986
		c40.746-47.295,69.441-104.504,82.983-165.444l4.525-20.363c5.795-26.08,28.502-44.295,55.218-44.295s49.423,18.215,55.218,44.295
		l4.525,20.363c13.542,60.939,42.237,118.148,82.983,165.444l28.419,32.986c8.05,9.342,11.712,21.712,10.049,33.936
		c-1.642,12.064-8.357,22.842-18.423,29.571c-50.146,33.514-123.505,38.517-162.77,38.517s-112.625-5.003-162.77-38.517
		c-10.067-6.728-16.783-17.505-18.424-29.571C73.146,304.581,76.808,292.212,84.858,282.87z M24.8,399.232v-34.742h29.829v34.273
		c0,0.157,0.013,0.311,0.015,0.468L24.8,399.232L24.8,399.232z M256.001,492.219c-9.345,0-16.947-7.603-16.947-16.947
		c0-9.345,7.603-16.947,16.947-16.947c9.345,0,16.947,7.603,16.947,16.947C272.948,484.616,265.345,492.219,256.001,492.219z
		 M239.322,442.564c1.389-7.957,8.329-14.03,16.677-14.03c8.349,0,15.29,6.074,16.678,14.032
		c-5.009-2.565-10.675-4.022-16.678-4.022C249.998,438.542,244.332,439.999,239.322,442.564z M418.784,434.193
		c-21.568,14.413-60.666,32.14-126.054,37.142v-25.853c0-20.252-16.477-36.729-36.729-36.729c-20.252,0-36.729,16.477-36.729,36.729
		v25.853c-65.372-5.003-104.465-22.728-126.032-37.14c-11.791-7.881-18.829-21.125-18.829-35.429v-42.149
		c2.424,2.262,5.039,4.341,7.831,6.207c28.568,19.093,81.905,41.851,173.762,41.851s145.193-22.759,173.762-41.851
		c2.788-1.863,5.399-3.939,7.82-6.197v42.152C437.585,413.077,430.555,426.318,418.784,434.193z M487.201,399.232h-29.848
		c0.001-0.152,0.014-0.302,0.014-0.455v-34.287h29.834v34.742H487.201z"/>
	<circle style="fill:#333333;" cx="255.999" cy="89.241" r="9.891"/>
	<circle style="fill:#333333;" cx="255.999" cy="118.029" r="9.891"/>
	<circle style="fill:#333333;" cx="255.999" cy="146.62" r="9.891"/>
	<circle style="fill:#333333;" cx="255.999" cy="260.206" r="9.891"/>
	<circle style="fill:#333333;" cx="255.999" cy="312.56" r="9.891"/>
	<circle style="fill:#333333;" cx="224.692" cy="312.56" r="9.891"/>
	<circle style="fill:#333333;" cx="287.307" cy="312.56" r="9.891"/>
	<circle style="fill:#333333;" cx="271.653" cy="286.238" r="9.891"/>
	<circle style="fill:#333333;" cx="240.346" cy="286.238" r="9.891"/>
</g>
</svg>