<?xml version="1.0" encoding="iso-8859-1"?>
<!-- Uploaded to: SVG Repo, www.svgrepo.com, Generator: SVG Repo Mixer Tools -->
<svg version="1.1" id="Layer_1" xmlns="http://www.w3.org/2000/svg" xmlns:xlink="http://www.w3.org/1999/xlink" 
	 viewBox="0 0 512.003 512.003" xml:space="preserve">
<rect x="69.301" y="64.271" style="fill:#F7B239;" width="442.702" height="311.532"/>
<rect x="38.375" y="97.291" style="fill:#2197D8;" width="442.702" height="311.532"/>
<rect y="136.199" style="fill:#F95428;" width="442.702" height="311.532"/>
<rect x="53.101" y="189.3" style="fill:#F2F2F2;" width="336.513" height="205.344"/>
<path style="fill:#F7B239;" d="M312.797,256.66c-4.503-9.722-13.956-15.762-24.669-15.762h-32.86l3.313-21.75h-74.462l3.313,21.75
	h-32.859c-10.714,0-20.166,6.039-24.669,15.76c-4.503,9.722-2.996,20.837,3.933,29.011l21.146,24.939
	c1.986,16.334,14.119,30.43,31.591,38.569v22.589h69.552v-22.589c17.474-8.14,29.606-22.236,31.591-38.571l21.146-24.939
	C315.792,277.499,317.299,266.382,312.797,256.66z M159.473,287.008l-11.382-13.425c-3.259-3.843-1.765-7.913-1.229-9.07
	c0.536-1.156,2.674-4.926,7.712-4.926h35.707l0.201,1.319C176.464,266.486,165.412,275.757,159.473,287.008z M294.608,273.584
	l-11.384,13.425c-5.94-11.251-16.991-20.523-31.007-26.101l0.201-1.319h35.707c5.038,0,7.176,3.771,7.712,4.926
	C296.374,265.671,297.867,269.741,294.608,273.584z"/>
</svg>