<?xml version="1.0" encoding="iso-8859-1"?>
<!-- Uploaded to: SVG Repo, www.svgrepo.com, Generator: SVG Repo Mixer Tools -->
<svg version="1.1" id="Layer_1" xmlns="http://www.w3.org/2000/svg" xmlns:xlink="http://www.w3.org/1999/xlink" 
	 viewBox="0 0 512 512" xml:space="preserve">
<g>
	<rect x="132.194" y="173.08" style="fill:#B27214;" width="224.947" height="165.834"/>
	<rect x="8.21" y="210.672" style="fill:#B27214;" width="90.443" height="128.242"/>
	<rect x="387.704" y="210.672" style="fill:#B27214;" width="116.091" height="128.242"/>
</g>
<rect x="157.372" y="198.258" style="fill:#2BA5F7;" width="174.591" height="115.478"/>
<rect x="33.388" y="235.85" style="fill:#F7B239;" width="40.092" height="77.887"/>
<rect x="412.882" y="235.85" style="fill:#9AD14B;" width="65.736" height="77.887"/>
<g>
	<path style="fill:#333333;" d="M357.136,164.871H132.19c-4.535,0-8.21,3.676-8.21,8.21v165.836c0,4.534,3.675,8.21,8.21,8.21
		h224.947c4.535,0,8.21-3.676,8.21-8.21V173.082C365.346,168.547,361.671,164.871,357.136,164.871z M328.557,190.049H160.769
		l-8.757-8.757h185.305L328.557,190.049z M323.748,206.469v99.06h-158.17v-99.06H323.748z M149.158,201.659v108.68l-8.759,8.757
		V192.902L149.158,201.659z M160.769,321.951h167.789l8.757,8.757H152.01L160.769,321.951z M340.169,310.34V201.662l8.757-8.757
		v126.193L340.169,310.34z"/>
	<path style="fill:#333333;" d="M98.657,202.462H8.21c-4.535,0-8.21,3.676-8.21,8.21v128.247c0,4.534,3.675,8.21,8.21,8.21h90.447
		c4.535,0,8.21-3.676,8.21-8.21V210.672C106.867,206.138,103.193,202.462,98.657,202.462z M70.078,227.639H36.789l-8.757-8.757
		h50.804L70.078,227.639z M65.269,244.06v61.471H41.598V244.06H65.269z M25.178,239.251v71.089l-8.757,8.757v-88.604L25.178,239.251
		z M36.789,321.951h33.289l8.757,8.757H28.032L36.789,321.951z M81.69,310.34v-71.089l8.757-8.757v88.604L81.69,310.34z"/>
	<path style="fill:#333333;" d="M503.79,202.462H387.7c-4.535,0-8.21,3.676-8.21,8.21v128.247c0,4.534,3.675,8.21,8.21,8.21h116.09
		c4.535,0,8.21-3.676,8.21-8.21V210.672C512,206.138,508.324,202.462,503.79,202.462z M475.211,227.639h-58.932l-8.757-8.757h76.447
		L475.211,227.639z M470.402,244.06v61.471h-49.313V244.06H470.402z M404.668,239.25v71.091l-8.759,8.757v-88.607L404.668,239.25z
		 M416.279,321.951h58.932l8.757,8.757h-76.447L416.279,321.951z M486.822,310.34v-71.089l8.757-8.757v88.604L486.822,310.34z"/>
</g>
</svg>