<?xml version="1.0" encoding="iso-8859-1"?>
<!-- Uploaded to: SVG Repo, www.svgrepo.com, Generator: SVG Repo Mixer Tools -->
<svg version="1.1" id="Layer_1" xmlns="http://www.w3.org/2000/svg" xmlns:xlink="http://www.w3.org/1999/xlink" 
	 viewBox="0 0 512 512" xml:space="preserve">
<path style="fill:#F95428;" d="M476.228,340.091c0-14.488,11.745-26.234,26.234-26.234v-31.621
	c-14.488,0-26.234-11.745-26.234-26.234c0-14.488,11.745-26.234,26.234-26.234v-31.621c-14.488,0-26.234-11.745-26.234-26.234
	c0-14.488,11.745-26.234,26.234-26.234v-26.372H9.537v26.37c14.488,0,26.234,11.745,26.234,26.234
	c0,14.49-11.745,26.234-26.234,26.234v31.621c14.488,0,26.234,11.745,26.234,26.234s-11.744,26.235-26.234,26.235v31.621
	c14.488,0,26.234,11.746,26.234,26.234c0,14.488-11.744,26.235-26.234,26.235v26.37h492.926v-26.37
	C487.974,366.325,476.228,354.579,476.228,340.091z"/>
<rect x="70.267" y="149.067" style="fill:#E6E6E6;" width="371.476" height="213.865"/>
<path style="fill:#F7B239;" d="M229.934,264.513c0-15.957-11.864-29.804-29.245-36.723l5.194-34.093h-60.795l5.194,34.093
	c-17.381,6.919-29.245,20.765-29.245,36.723c0,14.961,10.428,28.069,26.056,35.348v18.443h56.787v-18.443
	C219.507,292.581,229.934,279.474,229.934,264.513z"/>
<g>
	<path style="fill:#333333;" d="M502.463,155.214c5.267,0,9.537-4.27,9.537-9.537v-26.37c0-5.267-4.27-9.537-9.537-9.537H9.537
		C4.27,109.77,0,114.04,0,119.307v26.37c0,5.267,4.27,9.537,9.537,9.537c9.207,0,16.697,7.491,16.697,16.697
		c0,9.206-7.49,16.697-16.697,16.697c-5.267,0-9.537,4.27-9.537,9.537v31.621c0,5.267,4.27,9.537,9.537,9.537
		c9.207,0,16.697,7.491,16.697,16.697s-7.49,16.698-16.697,16.698c-5.267,0-9.537,4.27-9.537,9.537v31.621
		c0,5.267,4.27,9.537,9.537,9.537c9.207,0,16.697,7.491,16.697,16.697c0,9.207-7.491,16.697-16.697,16.697
		c-5.267,0-9.537,4.27-9.537,9.537v26.37c0,5.267,4.27,9.537,9.537,9.537h492.926c5.267,0,9.537-4.27,9.537-9.537v-26.37
		c0-5.267-4.27-9.537-9.537-9.537c-9.207,0-16.697-7.491-16.697-16.697c0-9.206,7.491-16.697,16.697-16.697
		c5.267,0,9.537-4.27,9.537-9.537v-31.621c0-5.267-4.27-9.537-9.537-9.537c-9.207,0-16.697-7.491-16.697-16.697
		s7.491-16.697,16.697-16.697c5.267,0,9.537-4.27,9.537-9.537v-31.621c0-5.267-4.27-9.537-9.537-9.537
		c-9.207,0-16.697-7.491-16.697-16.697C485.766,162.706,493.256,155.214,502.463,155.214z M492.926,206.39v15.129
		c-15.11,4.183-26.234,18.058-26.234,34.48s11.125,30.296,26.234,34.48v15.129c-15.11,4.183-26.234,18.056-26.234,34.48
		s11.125,30.296,26.234,34.48v8.587H19.074v-8.587c15.11-4.183,26.234-18.058,26.234-34.48s-11.124-30.294-26.234-34.477v-15.129
		c15.11-4.183,26.234-18.058,26.234-34.48s-11.124-30.298-26.234-34.481v-15.129c15.11-4.183,26.234-18.058,26.234-34.48
		s-11.124-30.298-26.234-34.481v-8.587h473.853v8.587c-15.11,4.183-26.234,18.058-26.234,34.48S477.816,202.207,492.926,206.39z"/>
	<path style="fill:#333333;" d="M441.737,139.529H70.263c-5.267,0-9.537,4.27-9.537,9.537v213.87c0,5.267,4.27,9.537,9.537,9.537
		h371.474c5.267,0,9.537-4.27,9.537-9.537v-213.87C451.274,143.799,447.004,139.529,441.737,139.529z M432.2,353.399H79.8V158.602
		h352.4V353.399z"/>
	<path style="fill:#333333;" d="M294.302,222.94H396.66c5.267,0,9.537-4.27,9.537-9.537c0-5.267-4.27-9.537-9.537-9.537H294.302
		c-5.267,0-9.537,4.27-9.537,9.537C284.765,218.67,289.035,222.94,294.302,222.94z"/>
	<path style="fill:#333333;" d="M294.302,308.135H396.66c5.267,0,9.537-4.27,9.537-9.537c0-5.267-4.27-9.537-9.537-9.537H294.302
		c-5.267,0-9.537,4.27-9.537,9.537C284.765,303.865,289.035,308.135,294.302,308.135z"/>
	<path style="fill:#333333;" d="M294.302,265.537h67.94c5.267,0,9.537-4.27,9.537-9.537s-4.27-9.537-9.537-9.537h-67.94
		c-5.267,0-9.537,4.27-9.537,9.537S289.035,265.537,294.302,265.537z"/>
	<path style="fill:#333333;" d="M111.692,268.237c1.375,14.881,10.891,28.61,25.864,37.383v12.684c0,5.267,4.27,9.537,9.537,9.537
		h56.787c5.267,0,9.537-4.27,9.537-9.537V305.62c14.973-8.773,24.489-22.502,25.864-37.383l16.107-18.995
		c6.143-7.245,7.479-17.101,3.487-25.721S246.5,209.546,237,209.546h-23.885l2.196-14.413c0.418-2.748-0.383-5.543-2.195-7.651
		c-1.812-2.108-4.453-3.321-7.233-3.321h-60.795c-2.781,0-5.422,1.213-7.233,3.321c-1.811,2.108-2.613,4.903-2.195,7.651
		l2.196,14.413h-23.886c-9.499,0-17.881,5.355-21.872,13.973c-3.993,8.62-2.656,18.476,3.487,25.723L111.692,268.237z
		 M241.566,231.537c0.406,0.877,1.148,3.156-0.727,5.37l-6.447,7.604c-3.142-5.926-7.664-11.314-13.365-15.89H237
		C239.902,228.62,241.161,230.661,241.566,231.537z M159.71,226.354l-3.522-23.121h38.596l-3.522,23.121
		c-0.668,4.387,1.778,8.656,5.901,10.297c14.332,5.704,23.234,16.38,23.234,27.861c0,10.728-7.68,20.711-20.545,26.704
		c-3.361,1.565-5.51,4.938-5.51,8.644v8.906h-37.713v-8.906c0-3.708-2.149-7.079-5.51-8.644
		c-12.866-5.993-20.546-15.976-20.546-26.704c0-11.481,8.902-22.157,23.234-27.861C157.933,235.011,160.378,230.742,159.71,226.354z
		 M109.406,231.537c0.407-0.877,1.664-2.917,4.566-2.917h15.975c-5.702,4.575-10.223,9.965-13.365,15.89l-6.447-7.603
		C108.256,234.694,108.999,232.414,109.406,231.537z"/>
</g>
</svg>