<?xml version="1.0" encoding="iso-8859-1"?>
<!-- Uploaded to: SVG Repo, www.svgrepo.com, Generator: SVG Repo Mixer Tools -->
<svg height="800px" width="800px" version="1.1" id="Layer_1" xmlns="http://www.w3.org/2000/svg" xmlns:xlink="http://www.w3.org/1999/xlink" 
	 viewBox="0 0 511.999 511.999" xml:space="preserve">
<path style="fill:#CCCCCC;" d="M378.649,415.23l22.419,22.419c3.432,3.432,3.432,8.999,0,12.433l-59.155,59.155
	c-3.432,3.432-8.999,3.432-12.433,0l-22.419-22.419L378.649,415.23z"/>
<path style="fill:#F7B239;" d="M404.64,389.246l-116.52,116.52c-8.311,8.311-21.785,8.311-30.096,0L37.575,285.318
	c-8.311-8.311-8.311-21.785,0-30.096l116.52-116.52L404.64,389.246z"/>
<path style="fill:#E09B2D;" d="M404.64,389.246l-66.309,66.309c-2.182,0.079-4.362,0.119-6.544,0.119
	c-45.985,0-91.969-17.549-127.057-52.637L47.245,245.553l106.851-106.851L404.64,389.246z"/>
<path style="fill:#808080;" d="M226.536,381.227L40.418,195.109l127.06-127.06l313.179,313.178l0,0
	C410.484,451.402,296.709,451.402,226.536,381.227z"/>
<path style="fill:#4D4D4D;" d="M251.593,251.627c-5.809,0-10.516-4.708-10.516-10.516V10.516C241.077,4.708,245.784,0,251.593,0
	c5.809,0,10.516,4.708,10.516,10.516v230.595C262.11,246.919,257.401,251.627,251.593,251.627z"/>
<circle style="fill:#F7B239;" cx="251.588" cy="270.601" r="34.398"/>
</svg>