<?xml version="1.0" encoding="iso-8859-1"?>
<!-- Uploaded to: SVG Repo, www.svgrepo.com, Generator: SVG Repo Mixer Tools -->
<svg version="1.1" id="Layer_1" xmlns="http://www.w3.org/2000/svg" xmlns:xlink="http://www.w3.org/1999/xlink" 
	 viewBox="0 0 512 512" xml:space="preserve">
<rect x="102.815" style="fill:#995C0D;" width="302.4" height="222.551"/>
<g>
	<polygon style="fill:#B27214;" points="123.166,26.78 108.278,11.892 108.278,210.656 123.166,195.769 	"/>
	<polygon style="fill:#B27214;" points="378.437,20.347 393.323,5.461 114.715,5.461 129.602,20.347 	"/>
	<polygon style="fill:#B27214;" points="384.877,26.784 384.877,195.764 399.761,210.65 399.761,11.898 	"/>
	<polygon style="fill:#B27214;" points="129.601,202.203 114.715,217.087 393.323,217.087 378.438,202.203 	"/>
</g>
<g>
	<path style="fill:#F95428;" d="M151.268,382.062c-40.768,0-79.096-15.876-107.922-44.703l12.693-12.693
		c25.436,25.436,59.256,39.444,95.228,39.444s69.792-14.008,95.228-39.444l12.693,12.693
		C230.363,366.185,192.035,382.062,151.268,382.062z"/>
	<path style="fill:#F95428;" d="M360.093,382.062c-40.767,0-79.095-15.876-107.922-44.703l12.693-12.693
		c25.436,25.436,59.256,39.444,95.228,39.444s69.792-14.008,95.228-39.444l12.693,12.693
		C439.189,366.185,400.861,382.062,360.093,382.062z"/>
</g>
<g>
	<rect x="241.688" y="310.957" style="fill:#F7B239;" width="27.621" height="192.07"/>
	<rect x="33.365" y="310.957" style="fill:#F7B239;" width="27.621" height="192.07"/>
</g>
<rect x="33.365" y="310.957" style="fill:#E09B2D;" width="6.02" height="192.07"/>
<g>
	<rect x="48.923" y="310.957" style="fill:#F4C171;" width="6.02" height="192.07"/>
	<rect x="257.186" y="310.957" style="fill:#F4C171;" width="6.02" height="192.07"/>
</g>
<rect x="241.688" y="310.957" style="fill:#E09B2D;" width="6.02" height="192.07"/>
<circle style="fill:#E6E6E6;" cx="47.177" cy="296.117" r="24.233"/>
<path style="fill:#CCCCCC;" d="M36.704,296.115c0-10.991,7.323-20.26,17.352-23.227c-2.183-0.646-4.489-1.007-6.881-1.007
	c-13.383,0-24.233,10.85-24.233,24.233s10.85,24.233,24.233,24.233c2.392,0,4.699-0.36,6.881-1.007
	C44.027,316.375,36.704,307.106,36.704,296.115z"/>
<rect x="451.015" y="310.957" style="fill:#F7B239;" width="27.621" height="192.07"/>
<rect x="466.621" y="310.957" style="fill:#F4C171;" width="6.02" height="192.07"/>
<rect x="451.015" y="310.957" style="fill:#E09B2D;" width="6.02" height="192.07"/>
<circle style="fill:#E6E6E6;" cx="464.826" cy="296.117" r="24.233"/>
<path style="fill:#CCCCCC;" d="M454.355,296.115c0-10.991,7.323-20.26,17.352-23.227c-2.183-0.646-4.489-1.007-6.881-1.007
	c-13.383,0-24.233,10.85-24.233,24.233s10.85,24.233,24.233,24.233c2.392,0,4.699-0.36,6.881-1.007
	C461.678,316.375,454.355,307.106,454.355,296.115z"/>
<circle style="fill:#E6E6E6;" cx="255.499" cy="296.117" r="24.233"/>
<path style="fill:#CCCCCC;" d="M245.03,296.115c0-10.991,7.323-20.26,17.352-23.227c-2.183-0.646-4.489-1.007-6.881-1.007
	c-13.383,0-24.233,10.85-24.233,24.233s10.85,24.233,24.233,24.233c2.392,0,4.699-0.36,6.881-1.007
	C252.353,316.375,245.03,307.106,245.03,296.115z"/>
<path style="fill:#4D4D4D;" d="M501.74,512H10.26c-4.957,0-8.976-4.019-8.976-8.976c0-4.957,4.019-8.976,8.976-8.976h491.48
	c4.957,0,8.976,4.019,8.976,8.976C510.716,507.981,506.697,512,501.74,512z"/>
<rect x="136.456" y="33.785" style="fill:#F95428;" width="234.292" height="154.97"/>
</svg>