<?xml version="1.0" encoding="iso-8859-1"?>
<!-- Uploaded to: SVG Repo, www.svgrepo.com, Generator: SVG Repo Mixer Tools -->
<svg version="1.1" id="Layer_1" xmlns="http://www.w3.org/2000/svg" xmlns:xlink="http://www.w3.org/1999/xlink" 
	 viewBox="0 0 512 512" xml:space="preserve">
<g>
	<rect x="12.475" y="66.586" style="fill:#B3B3B3;" width="208.619" height="434.9"/>
	<rect x="290.919" y="66.586" style="fill:#B3B3B3;" width="208.619" height="434.9"/>
</g>
<rect x="83.965" y="10.514" style="fill:#F2F2F2;" width="344.076" height="435.236"/>
<g>
	<polygon style="fill:#808080;" points="83.965,445.757 221.599,501.488 221.599,445.757 	"/>
	<polygon style="fill:#808080;" points="428.037,445.757 290.401,501.488 290.401,445.757 	"/>
</g>
<g>
	<path style="fill:#333333;" d="M499.525,55.736H438.55V10.514C438.55,4.707,433.844,0,428.037,0H83.965
		c-5.806,0-10.514,4.707-10.514,10.514v45.223H12.475c-5.806,0-10.514,4.707-10.514,10.514v435.237
		c0,5.806,4.707,10.514,10.514,10.514h209.125c5.806,0,10.514-4.707,10.514-10.514v-45.217h47.774v45.217
		c0,5.806,4.706,10.514,10.514,10.514h209.125c5.808,0,10.514-4.707,10.514-10.514V66.25
		C510.039,60.444,505.333,55.736,499.525,55.736z M94.478,237.597h32.585v152.79c0,5.806,4.707,10.514,10.514,10.514h113.766
		c5.808,0,10.514-4.707,10.514-10.514v-27.334c0-5.806-4.706-10.514-10.514-10.514c-5.806,0-10.514,4.707-10.514,10.514v16.82
		h-92.739v-86.206h103.252h28.167c5.808,0,10.514-4.707,10.514-10.514s-4.706-10.514-10.514-10.514h-17.653v-58.874
		c0-5.806-4.706-10.514-10.514-10.514c-5.806,0-10.514,4.707-10.514,10.514v58.874h-92.739v-70.788
		c0-5.806-4.707-10.514-10.514-10.514c-5.806,0-10.514,4.707-10.514,10.514v14.719H94.478v-96.72h32.585v14.718
		c0,5.806,4.707,10.514,10.514,10.514c5.806,0,10.514-4.707,10.514-10.514V77.097h92.739v48.359c0,5.806,4.707,10.514,10.514,10.514
		c5.808,0,10.514-4.707,10.514-10.514V77.097h95.842V272.64h-17.214c-5.808,0-10.514,4.707-10.514,10.514
		s4.706,10.514,10.514,10.514h17.214v96.721c0,5.806,4.706,10.514,10.514,10.514h49.312v34.342H94.478V237.597z M417.523,21.027
		v358.847h-38.798V66.584c0-5.806-4.706-10.514-10.514-10.514H137.576c-5.806,0-10.514,4.707-10.514,10.514v32.24H94.478V21.027
		H417.523z M22.988,76.764h50.463v368.992c0,4.41,2.718,8.181,6.569,9.741l-0.001,0.003l87.604,35.472H22.988V76.764z
		 M211.086,485.887l-73.144-29.618h73.144V485.887z M374.06,456.271l-73.144,29.618v-29.618H374.06z M489.012,490.973H344.379
		l87.604-35.472l-0.001-0.003c3.851-1.56,6.57-5.331,6.57-9.741V76.764h50.461v414.209H489.012z"/>
	<path style="fill:#333333;" d="M320.585,326.321c-4.107-4.106-10.763-4.106-14.869,0l-24.179,24.179
		c-4.106,4.106-4.106,10.763,0,14.868c4.107,4.106,10.763,4.106,14.869,0l6.23-6.231v31.112c0,5.806,4.706,10.514,10.514,10.514
		s10.514-4.707,10.514-10.514v-31.112l6.23,6.231c2.054,2.052,4.745,3.08,7.435,3.08c2.69,0,5.382-1.026,7.435-3.08
		c4.106-4.106,4.106-10.763,0-14.868L320.585,326.321z"/>
</g>
</svg>