<?xml version="1.0" encoding="iso-8859-1"?>
<!-- Uploaded to: SVG Repo, www.svgrepo.com, Generator: SVG Repo Mixer Tools -->
<svg fill="#000000" height="800px" width="800px" version="1.1" id="Layer_1" xmlns="http://www.w3.org/2000/svg" xmlns:xlink="http://www.w3.org/1999/xlink" 
	 viewBox="0 0 512 512" xml:space="preserve">
<g>
	<g>
		<g>
			<path d="M438.142,0H73.858c-4.812,0-8.713,3.901-8.713,8.713v494.574c0,4.812,3.901,8.713,8.713,8.713h364.283
				c4.812,0,8.713-3.901,8.713-8.713V8.713C446.855,3.901,442.954,0,438.142,0z M417.107,17.426l-26.894,26.894H121.786
				L94.892,17.426H417.107z M385.109,61.745v388.51h-258.22V61.745H385.109z M82.571,29.747l26.893,26.894v398.718l-26.893,26.893
				V29.747z M94.892,494.573l26.894-26.893h268.428l26.894,26.893H94.892z M429.429,482.252l-26.894-26.893V56.641l26.894-26.894
				V482.252z"/>
			<path d="M252.437,331.511c23.065,0,43.987-9.325,59.213-24.396h14.348c21.254,0,38.546-17.291,38.546-38.546
				c0-16.539-13.456-29.995-29.995-29.995h-6.599H176.927c-4.812,0-8.713,3.901-8.713,8.713
				C168.213,293.728,205.995,331.511,252.437,331.511z M336.195,256.121c6.152,0.812,10.921,6.078,10.921,12.449
				c0,11.645-9.474,21.12-21.12,21.12h-0.834C331.049,279.632,334.923,268.262,336.195,256.121z M318.67,256
				c-4.282,32.732-32.353,58.086-66.233,58.086c-33.88,0-61.952-25.353-66.233-58.086H318.67z"/>
			<path d="M317.493,340.224H187.381c-4.812,0-8.713,3.901-8.713,8.713s3.901,8.713,8.713,8.713h130.112
				c4.812,0,8.713-3.901,8.713-8.713S322.305,340.224,317.493,340.224z"/>
			<path d="M262.202,228.7c4.812,0,8.713-3.901,8.713-8.713c0-12.521,2.393-18.383,5.163-25.17
				c3.025-7.412,6.454-15.813,6.454-31.754c0-4.812-3.901-8.713-8.713-8.713c-4.812,0-8.713,3.901-8.713,8.713
				c0,12.521-2.393,18.383-5.163,25.17c-3.025,7.412-6.454,15.813-6.454,31.754C253.49,224.799,257.391,228.7,262.202,228.7z"/>
			<path d="M231.053,228.7c4.812,0,8.713-3.901,8.713-8.713c0-12.521,2.393-18.383,5.163-25.17
				c3.025-7.412,6.454-15.813,6.454-31.754c0-4.812-3.901-8.713-8.713-8.713c-4.812,0-8.713,3.901-8.713,8.713
				c0,12.521-2.393,18.383-5.163,25.17c-3.025,7.412-6.454,15.813-6.454,31.754C222.341,224.799,226.242,228.7,231.053,228.7z"/>
		</g>
	</g>
</g>
</svg>