<?xml version="1.0" encoding="iso-8859-1"?>
<!-- Uploaded to: SVG Repo, www.svgrepo.com, Generator: SVG Repo Mixer Tools -->
<svg version="1.1" id="Layer_1" xmlns="http://www.w3.org/2000/svg" xmlns:xlink="http://www.w3.org/1999/xlink" 
	 viewBox="0 0 512 512" xml:space="preserve">
<rect x="110.49" y="17.828" style="fill:#B8E6FF;" width="291.034" height="348.524"/>
<rect x="110.49" y="366.345" style="fill:#4D4D4D;" width="291.034" height="127.821"/>
<rect x="169.765" y="308.855" style="fill:#CCCCCC;" width="172.46" height="57.488"/>
<path style="fill:#808080;" d="M342.232,375.329H169.768c-4.962,0-8.983-4.022-8.983-8.983v-57.488c0-4.961,4.021-8.983,8.983-8.983
	h172.463c4.962,0,8.983,4.022,8.983,8.983v57.488C351.215,371.307,347.194,375.329,342.232,375.329z M178.751,357.364h154.497
	v-39.522H178.751V357.364z"/>
<rect x="190.03" y="403.163" style="fill:#F7B239;" width="131.941" height="57.488"/>
<g>
	
		<rect x="247.558" y="72.616" transform="matrix(-0.7071 -0.7071 0.7071 -0.7071 518.8682 378.1208)" style="fill:#F2F2F2;" width="180.375" height="17.966"/>
	
		<rect x="320.496" y="42.158" transform="matrix(-0.7071 -0.7071 0.7071 -0.7071 591.3843 347.2419)" style="fill:#F2F2F2;" width="94.224" height="17.966"/>
	
		<rect x="97.716" y="324.048" transform="matrix(-0.7071 -0.7071 0.7071 -0.7071 11.7484 670.9286)" style="fill:#F2F2F2;" width="94.224" height="17.966"/>
</g>
<g>
	<path style="fill:#333333;" d="M321.972,394.178H190.028c-4.962,0-8.983,4.022-8.983,8.983v57.488c0,4.961,4.021,8.983,8.983,8.983
		h131.944c4.962,0,8.983-4.022,8.983-8.983v-57.488C330.955,398.2,326.934,394.178,321.972,394.178z M312.989,451.666H199.011
		v-39.522h113.979V451.666z"/>
	<path style="fill:#333333;" d="M503.017,485.188h-92.519V366.347V17.828c0-4.961-4.021-8.983-8.983-8.983h-291.03
		c-4.962,0-8.983,4.022-8.983,8.983v348.52v118.841H8.983c-4.962,0-8.983,4.022-8.983,8.983c0,4.961,4.021,8.983,8.983,8.983
		h494.034c4.962,0,8.983-4.022,8.983-8.983C512,489.211,507.979,485.188,503.017,485.188z M119.468,26.811h273.065v330.554H119.468
		V26.811z M119.468,375.329h273.065v109.858H119.468V375.329z"/>
</g>
<path style="fill:#F95428;" d="M357.703,207.922h-72.306c0-21.475-17.415-38.878-38.89-38.878c-13.414,0-25.248,6.803-32.243,17.139
	l-59.97-40.435c19.99-29.584,53.826-49.023,92.212-49.023C307.925,96.725,357.703,146.503,357.703,207.922z"/>
<path style="fill:#F7B239;" d="M285.396,207.922h-0.012h-40.555h-0.012h-37.189c0-8.061,2.443-15.534,6.635-21.739
	c6.995-10.336,18.828-17.139,32.243-17.139C267.981,169.044,285.396,186.447,285.396,207.922z"/>
<path style="fill:#F9C067;" d="M285.384,207.922v16.6c0,28.47-23.068,51.538-51.538,51.538h-26.218v-28.745h16.984
	c11.163,0,20.206-9.043,20.206-20.206v-19.187h0.012H285.384z"/>
<path style="fill:#4D4D4D;" d="M202.504,189.085c-2.486,5.784-3.863,12.152-3.863,18.837c0,4.961,4.022,8.983,8.983,8.983h28.216
	v10.208c0,6.189-5.035,11.223-11.224,11.223h-16.99c-4.961,0-8.983,4.022-8.983,8.983v28.744c0,4.961,4.022,8.983,8.983,8.983
	h26.222c33.371,0,60.52-27.149,60.52-60.52v-7.622h63.335c4.961,0,8.983-4.022,8.983-8.983c0-66.267-53.912-120.179-120.179-120.179
	c-39.986,0-77.241,19.804-99.655,52.976c-1.334,1.975-1.829,4.4-1.375,6.741s1.821,4.404,3.797,5.737L202.504,189.085z
	 M217.986,198.939c3.823-12.108,15.162-20.912,28.518-20.912c13.361,0,24.701,8.804,28.525,20.912H217.986z M233.85,267.08h-17.239
	v-10.778h8.007c16.095,0,29.19-13.095,29.19-29.188v-10.208h22.597v7.621C276.404,247.99,257.315,267.08,233.85,267.08z
	 M246.509,105.706c53.333,0,97.257,41.061,101.822,93.231h-54.8c-4.217-22.111-23.7-38.877-47.027-38.877
	c-13.25,0-25.26,5.412-33.935,14.141l-45.469-30.658C186.443,119.701,215.512,105.706,246.509,105.706z"/>
</svg>