<?xml version="1.0" encoding="iso-8859-1"?>
<!-- Uploaded to: SVG Repo, www.svgrepo.com, Generator: SVG Repo Mixer Tools -->
<svg fill="#000000" height="800px" width="800px" version="1.1" id="Layer_1" xmlns="http://www.w3.org/2000/svg" xmlns:xlink="http://www.w3.org/1999/xlink" 
	 viewBox="0 0 512 512" xml:space="preserve">
<g>
	<g>
		<g>
			<path d="M237.33,111.513h-72.417l-36.159-36.159c-3.263-3.265-8.554-3.264-11.818,0l-36.162,36.159H8.357
				c-4.615,0-8.357,3.742-8.357,8.357v310.868c0,4.615,3.742,8.357,8.357,8.357H237.33c4.615,0,8.357-3.742,8.357-8.357V119.87
				C245.687,115.254,241.946,111.513,237.33,111.513z M122.844,93.08l18.432,18.432h-36.865L122.844,93.08z M27.857,399.42
				l-11.143,11.143V140.046l11.143,11.143V399.42z M28.532,422.381l11.143-11.143h166.336l11.143,11.143H28.532z M44.571,394.524
				v-238.44h156.545v238.44H44.571z M206.011,139.37H39.676l-11.143-11.143h188.622L206.011,139.37z M228.973,410.563L217.83,399.42
				V151.189l11.143-11.143V410.563z"/>
			<path d="M130.081,276.538c-1.493-2.585-4.251-4.179-7.237-4.179c-2.985,0-5.744,1.593-7.237,4.179l-38.43,66.564
				c-1.493,2.585-1.493,5.772,0,8.357c1.493,2.585,4.251,4.179,7.237,4.179h76.861c2.986,0,5.744-1.593,7.237-4.179
				c1.493-2.585,1.493-5.772,0-8.357L130.081,276.538z M98.888,338.924l23.956-41.492l23.956,41.492H98.888z"/>
			<path d="M122.844,267.398c19.968,0,36.214-16.246,36.214-36.214s-16.246-36.214-36.214-36.214
				c-19.968,0-36.214,16.246-36.214,36.214S102.876,267.398,122.844,267.398z M122.844,211.684c10.752,0,19.5,8.748,19.5,19.5
				c0,10.752-8.748,19.5-19.5,19.5c-10.752,0-19.5-8.748-19.5-19.5C103.344,220.432,112.092,211.684,122.844,211.684z"/>
			<path d="M503.643,111.513h-72.417l-36.159-36.159c-3.264-3.265-8.555-3.264-11.818,0l-36.161,36.159H274.67
				c-4.615,0-8.357,3.742-8.357,8.357v310.868c0,4.615,3.742,8.357,8.357,8.357h228.973c4.615,0,8.357-3.742,8.357-8.357V119.87
				C512,115.254,508.258,111.513,503.643,111.513z M389.156,93.08l18.432,18.432h-36.864L389.156,93.08z M294.17,399.42
				l-11.143,11.143V140.046l11.143,11.143V399.42z M294.845,422.381l11.143-11.143h166.336l11.143,11.143H294.845z M310.884,394.524
				v-238.44h156.545v238.44H310.884z M472.324,139.37H305.989l-11.143-11.143h188.622L472.324,139.37z M495.286,410.563
				l-11.143-11.143V151.189l11.143-11.143V410.563z"/>
			<path d="M427.587,272.36h-76.861c-2.986,0-5.744,1.593-7.237,4.179c-1.493,2.585-1.493,5.772,0,8.357l38.43,66.564
				c1.493,2.585,4.251,4.179,7.237,4.179s5.744-1.593,7.237-4.179l38.43-66.564c1.493-2.585,1.493-5.772,0-8.357
				C433.331,273.953,430.573,272.36,427.587,272.36z M389.156,330.567L365.2,289.074h47.912L389.156,330.567z"/>
			<path d="M389.156,267.398c19.968,0,36.214-16.246,36.214-36.214s-16.246-36.214-36.214-36.214s-36.214,16.246-36.214,36.214
				S369.188,267.398,389.156,267.398z M389.156,211.684c10.752,0,19.5,8.748,19.5,19.5c0,10.752-8.748,19.5-19.5,19.5
				c-10.752,0-19.5-8.748-19.5-19.5C369.656,220.432,378.405,211.684,389.156,211.684z"/>
		</g>
	</g>
</g>
</svg>