<?xml version="1.0" encoding="iso-8859-1"?>
<!-- Uploaded to: SVG Repo, www.svgrepo.com, Generator: SVG Repo Mixer Tools -->
<svg fill="#000000" height="800px" width="800px" version="1.1" id="Layer_1" xmlns="http://www.w3.org/2000/svg" xmlns:xlink="http://www.w3.org/1999/xlink" 
	 viewBox="0 0 512 512" xml:space="preserve">
<g>
	<g>
		<g>
			<path d="M503.523,50.424H8.477C3.794,50.424,0,54.22,0,58.901v394.198c0,4.681,3.794,8.477,8.477,8.477h495.047
				c4.682,0,8.477-3.795,8.477-8.477V58.901C512,54.22,508.205,50.424,503.523,50.424z M483.058,67.378l-20.945,20.945H49.887
				L28.942,67.378H483.058z M347.475,151.936c-15.117-5.786-33.212-9.923-52.758-12.027c-2.586-0.278-12.523-1.067-15.188-1.206
				c-5.035-0.263-10.182-0.397-15.295-0.397c-32.943,0-64.046,5.457-87.579,15.367c-25.859,10.889-40.1,26.266-40.1,43.302
				c0,28.887,40.881,51.999,101.728,57.51c1.89,0.171,3.703,0.599,5.408,1.242L92.692,406.724h-37.84V105.276h339.282
				L347.475,151.936z M356.139,247.167c0,65.253-21.984,110.727-41.714,110.727c-16.127,0-35.732-32.283-40.625-86.305
				c-1.638-18.059-15.933-32.351-33.989-33.988c-54.022-4.893-86.304-24.499-86.304-40.626c0-19.73,45.473-41.714,110.727-41.714
				c4.82,0,9.669,0.125,14.414,0.373c2.49,0.13,12.219,0.913,14.255,1.133c18.832,2.026,36.07,6.03,50.116,11.621
				C351.494,189.616,356.139,217.42,356.139,247.167z M255.676,267.718c0.641,1.703,1.068,3.514,1.239,5.4
				c5.512,60.847,28.623,101.729,57.51,101.729c17.035,0,32.414-14.242,43.302-40.101c9.91-23.534,15.367-54.636,15.367-87.58
				c0-31.016-4.823-60.289-13.629-83.241l58.648-58.648h39.037v301.447H116.668L255.676,267.718z M16.953,79.366l20.945,20.945
				v311.378l-20.945,20.945V79.366z M28.942,444.622l20.945-20.945h412.225l20.945,20.945H28.942z M495.047,432.634l-20.945-20.945
				V100.311l20.945-20.945V432.634z"/>
			<path d="M332.209,208.025c-29.127-1.23-36.747-0.236-38.673,0.249c-3.336,0.839-5.864,3.592-6.354,6.997
				c-0.488,3.404,1.099,6.75,4.064,8.495c0.799,0.488,19.581,12.297,19.581,41.525v33.468c0,4.681,3.794,8.477,8.477,8.477
				c4.682,0,8.477-3.795,8.477-8.477v-33.468c0-18.445-5.904-31.794-12.282-40.835c4.31,0.08,9.576,0.236,15.995,0.507
				c4.62,0.194,8.629-3.434,8.827-8.112C340.518,212.175,336.887,208.223,332.209,208.025z"/>
		</g>
	</g>
</g>
</svg>