<?xml version="1.0" encoding="iso-8859-1"?>
<!-- Uploaded to: SVG Repo, www.svgrepo.com, Generator: SVG Repo Mixer Tools -->
<svg version="1.1" id="Layer_1" xmlns="http://www.w3.org/2000/svg" xmlns:xlink="http://www.w3.org/1999/xlink" 
	 viewBox="0 0 512 512" xml:space="preserve">
<rect x="110.49" y="17.828" style="fill:#B8E6FF;" width="291.034" height="348.524"/>
<rect x="110.49" y="366.345" style="fill:#4D4D4D;" width="291.034" height="127.821"/>
<rect x="169.765" y="308.855" style="fill:#CCCCCC;" width="172.46" height="57.488"/>
<path style="fill:#808080;" d="M342.232,375.329H169.768c-4.962,0-8.983-4.022-8.983-8.983v-57.488c0-4.961,4.021-8.983,8.983-8.983
	h172.463c4.962,0,8.983,4.022,8.983,8.983v57.488C351.215,371.307,347.194,375.329,342.232,375.329z M178.751,357.364h154.497
	v-39.522H178.751V357.364z"/>
<rect x="190.03" y="403.163" style="fill:#F7B239;" width="131.941" height="57.488"/>
<g>
	
		<rect x="247.558" y="72.616" transform="matrix(-0.7071 -0.7071 0.7071 -0.7071 518.8682 378.1208)" style="fill:#F2F2F2;" width="180.375" height="17.966"/>
	
		<rect x="320.496" y="42.158" transform="matrix(-0.7071 -0.7071 0.7071 -0.7071 591.3843 347.2419)" style="fill:#F2F2F2;" width="94.224" height="17.966"/>
	
		<rect x="97.716" y="324.048" transform="matrix(-0.7071 -0.7071 0.7071 -0.7071 11.7484 670.9286)" style="fill:#F2F2F2;" width="94.224" height="17.966"/>
</g>
<g>
	<path style="fill:#333333;" d="M321.972,394.178H190.028c-4.962,0-8.983,4.022-8.983,8.983v57.488c0,4.961,4.021,8.983,8.983,8.983
		h131.944c4.962,0,8.983-4.022,8.983-8.983v-57.488C330.955,398.2,326.934,394.178,321.972,394.178z M312.989,451.666H199.011
		v-39.522h113.979V451.666z"/>
	<path style="fill:#333333;" d="M503.017,485.188h-92.519V366.347V17.828c0-4.961-4.021-8.983-8.983-8.983h-291.03
		c-4.962,0-8.983,4.022-8.983,8.983v348.52v118.841H8.983c-4.962,0-8.983,4.022-8.983,8.983c0,4.961,4.021,8.983,8.983,8.983
		h494.034c4.962,0,8.983-4.022,8.983-8.983C512,489.211,507.979,485.188,503.017,485.188z M119.468,26.811h273.065v330.554H119.468
		V26.811z M119.468,375.329h273.065v109.858H119.468V375.329z"/>
</g>
<path style="fill:#CCCCCC;" d="M324.813,192.417c0.835-4.512,1.236-9.176,1.158-13.947c-0.622-37.921-31.753-68.656-69.68-68.811
	c-38.783-0.158-70.271,31.233-70.271,69.979c0,4.372,0.402,8.649,1.171,12.798c0.756,4.082-0.77,8.21-3.839,11.007
	c-5.857,5.337-9.426,13.14-9.062,21.77c0.601,14.255,12.111,25.862,26.361,26.58c1.042,0.053,2.071,0.048,3.087-0.012
	c3.314-0.194,6.106,2.437,6.106,5.756v7.206c0,0.705,0.412,1.35,1.055,1.638c28.691,12.854,61.51,12.854,90.201,0
	c0.643-0.289,1.055-0.933,1.055-1.638v-7.206c0-3.319,2.793-5.951,6.106-5.756c1.016,0.06,2.046,0.065,3.088,0.012
	c14.249-0.717,25.759-12.326,26.359-26.581c0.363-8.628-3.206-16.432-9.063-21.769C325.574,200.642,324.057,196.506,324.813,192.417
	z"/>
<g>
	<path style="fill:#4D4D4D;" d="M256.001,284.994c-16.64,0-33.274-3.471-48.774-10.415c-3.866-1.731-6.366-5.592-6.366-9.836v-3.951
		c-0.222-0.007-0.443-0.017-0.664-0.028c-18.768-0.944-34.091-16.394-34.882-35.172c-0.461-10.934,3.908-21.426,11.987-28.787
		c0.837-0.763,1.231-1.785,1.056-2.732c-0.877-4.733-1.322-9.59-1.322-14.433c0-21.153,8.255-41.023,23.242-55.95
		c14.909-14.847,34.686-23.013,55.718-23.013c0.111,0,0.22,0,0.332,0c42.654,0.175,77.925,35.007,78.624,77.647
		c0.086,5.282-0.353,10.573-1.307,15.727l0,0c-0.177,0.962,0.216,1.992,1.052,2.752c8.079,7.361,12.448,17.853,11.987,28.786
		c-0.79,18.779-16.113,34.23-34.882,35.175c-0.22,0.011-0.442,0.02-0.662,0.028v3.951c0,4.243-2.5,8.105-6.367,9.837
		C289.277,281.522,272.637,284.993,256.001,284.994z M218.827,259.973c23.865,9.408,50.484,9.408,74.347,0v-2.437
		c0-4.044,1.688-7.955,4.629-10.729c2.944-2.775,6.952-4.23,10.987-3.994c0.698,0.042,1.407,0.044,2.108,0.008
		c9.599-0.484,17.433-8.384,17.838-17.987c0.236-5.605-2.001-10.981-6.138-14.751c-5.458-4.972-7.931-12.187-6.617-19.296v-0.001
		c0.737-3.984,1.077-8.077,1.01-12.168c-0.54-32.935-27.786-59.839-60.734-59.975c-0.085,0-0.171,0-0.255,0
		c-16.249,0-31.525,6.307-43.042,17.778c-11.578,11.53-17.954,26.88-17.954,43.22c0,3.748,0.344,7.503,1.022,11.162
		c1.314,7.099-1.161,14.307-6.621,19.283c-4.137,3.769-6.373,9.146-6.137,14.751c0.405,9.603,8.239,17.503,17.838,17.986
		c0.703,0.037,1.412,0.034,2.108-0.008c4.047-0.229,8.045,1.219,10.988,3.994c2.942,2.774,4.629,6.686,4.629,10.729v2.436H218.827z"
		/>
	<path style="fill:#4D4D4D;" d="M223.654,217.397c-1.476,0-2.972-0.364-4.354-1.132c-4.337-2.41-5.9-7.879-3.49-12.214l5.989-10.779
		c2.41-4.337,7.88-5.899,12.214-3.49c4.337,2.41,5.9,7.879,3.49,12.214l-5.989,10.779
		C229.872,215.73,226.81,217.397,223.654,217.397z"/>
	<path style="fill:#4D4D4D;" d="M288.347,217.397c-3.157,0-6.219-1.667-7.861-4.622l-5.989-10.779
		c-2.41-4.337-0.847-9.806,3.49-12.214c4.336-2.41,9.806-0.847,12.214,3.49l5.989,10.779c2.41,4.337,0.847,9.806-3.49,12.214
		C291.32,217.033,289.823,217.397,288.347,217.397z"/>
	<path style="fill:#4D4D4D;" d="M256.001,238.955c-4.961,0-8.983-4.022-8.983-8.983v-10.779c0-4.961,4.022-8.983,8.983-8.983
		c4.961,0,8.983,4.022,8.983,8.983v10.779C264.984,234.933,260.962,238.955,256.001,238.955z"/>
</g>
</svg>