<?xml version="1.0" encoding="iso-8859-1"?>
<!-- Uploaded to: SVG Repo, www.svgrepo.com, Generator: SVG Repo Mixer Tools -->
<svg version="1.1" id="Layer_1" xmlns="http://www.w3.org/2000/svg" xmlns:xlink="http://www.w3.org/1999/xlink" 
	 viewBox="0 0 511.999 511.999" xml:space="preserve">
<rect x="112.351" y="65.543" style="fill:#F7B239;" width="389.507" height="274.099"/>
<rect x="60.78" y="118.956" style="fill:#2197D8;" width="389.507" height="274.099"/>
<rect x="9.209" y="170.993" style="fill:#F95428;" width="389.507" height="274.099"/>
<rect x="55.925" y="217.702" style="fill:#F2F2F2;" width="296.078" height="180.67"/>
<path style="fill:#F7B239;" d="M256.539,319.327c0-15.409-11.456-28.78-28.24-35.461l5.016-32.922h-58.706l5.016,32.922
	c-16.784,6.681-28.24,20.051-28.24,35.461c0,14.447,10.07,27.104,25.159,34.134v17.809h54.836v-17.809
	C246.469,346.431,256.539,333.774,256.539,319.327z"/>
<g>
	<path style="fill:#333333;" d="M263.362,266.25h-23.064l2.121-13.919c0.404-2.653-0.37-5.352-2.119-7.388
		c-1.75-2.036-4.3-3.207-6.984-3.207h-58.706c-2.685,0-5.236,1.171-6.984,3.207c-1.749,2.036-2.523,4.735-2.119,7.388l2.121,13.919
		h-23.064c-9.172,0-17.266,5.171-21.121,13.494c-3.856,8.324-2.565,17.841,3.367,24.837l15.554,18.343
		c1.326,14.369,10.517,27.627,24.975,36.098v12.249c0,5.086,4.123,9.209,9.209,9.209h54.836c5.086,0,9.209-4.123,9.209-9.209
		v-12.249c14.459-8.471,23.648-21.728,24.975-36.098l15.553-18.343c5.933-6.996,7.224-16.514,3.368-24.837
		C280.629,271.42,272.536,266.25,263.362,266.25z M140.151,287.485c0.393-0.847,1.607-2.817,4.409-2.817h15.426
		c-5.506,4.418-9.871,9.623-12.906,15.344l-6.225-7.343C139.042,290.532,139.759,288.332,140.151,287.485z M227.49,345.114
		c-3.245,1.512-5.32,4.768-5.32,8.348v8.6h-36.416v-8.6c0-3.58-2.075-6.836-5.32-8.348c-12.422-5.787-19.84-15.427-19.84-25.785
		c0-11.088,8.596-21.397,22.436-26.905c3.982-1.585,6.344-5.706,5.699-9.943l-3.401-22.326h37.27l-3.401,22.326
		c-0.645,4.236,1.717,8.358,5.699,9.943c13.839,5.508,22.436,15.818,22.436,26.905C247.33,329.687,239.914,339.327,227.49,345.114z
		 M267.068,292.67l-6.225,7.343c-3.034-5.722-7.4-10.926-12.905-15.344h15.426c2.802,0,4.016,1.97,4.408,2.817
		C268.163,288.332,268.88,290.532,267.068,292.67z"/>
	<path style="fill:#333333;" d="M55.924,407.58h296.074c5.086,0,9.209-4.123,9.209-9.209V217.706c0-5.086-4.123-9.209-9.209-9.209
		H55.924c-5.086,0-9.209,4.123-9.209,9.209V398.37C46.715,403.456,50.838,407.58,55.924,407.58z M65.133,226.915h277.656v162.247
		H65.133V226.915z"/>
	<path style="fill:#333333;" d="M502.791,57.703H113.28c-5.086,0-9.209,4.123-9.209,9.209v42.837H61.246
		c-5.086,0-9.209,4.123-9.209,9.209v42.822H9.209c-5.086,0-9.209,4.123-9.209,9.209v274.096c0,5.086,4.123,9.209,9.209,9.209
		h389.505c5.086,0,9.209-4.123,9.209-9.209v-42.822h42.835c5.086,0,9.209-4.123,9.209-9.209v-42.837h42.823
		c5.086,0,9.209-4.123,9.209-9.209V66.913C512,61.827,507.877,57.703,502.791,57.703z M389.505,435.877H18.418V180.199h371.086
		V435.877z M441.549,383.846h-33.625V170.99c0-5.086-4.123-9.209-9.209-9.209H70.456v-33.613h371.093v255.678H441.549z
		 M493.582,331.8h-33.614V118.959c0-5.086-4.123-9.209-9.209-9.209H122.489V76.122h371.093V331.8z"/>
</g>
</svg>