<?xml version="1.0" encoding="iso-8859-1"?>
<!-- Uploaded to: SVG Repo, www.svgrepo.com, Generator: SVG Repo Mixer Tools -->
<svg version="1.1" id="Layer_1" xmlns="http://www.w3.org/2000/svg" xmlns:xlink="http://www.w3.org/1999/xlink" 
	 viewBox="0 0 512.001 512.001" xml:space="preserve">
<rect x="380.058" y="372.169" transform="matrix(-0.7071 -0.7071 0.7071 -0.7071 450.3133 948.4587)" style="fill:#666666;" width="83.062" height="17.595"/>
<rect y="40.632" style="fill:#995C0D;" width="396.204" height="318.678"/>
<g>
	<polygon style="fill:#B27214;" points="29.137,78.978 7.819,57.661 7.819,342.28 29.137,320.962 	"/>
	<polygon style="fill:#B27214;" points="357.852,69.767 379.168,48.451 17.038,48.451 38.354,69.767 	"/>
	<polygon style="fill:#B27214;" points="367.072,78.984 367.072,320.956 388.386,342.271 388.386,57.67 	"/>
	<polygon style="fill:#B27214;" points="38.352,330.175 17.038,351.489 379.168,351.489 357.853,330.175 	"/>
</g>
<path style="fill:#F7B239;" d="M353.188,82.65v135.273c-27.063-7.294-57.978,71.492-51.143,98.278H45.656V82.65
	C45.656,82.65,353.188,82.65,353.188,82.65z"/>
<path style="fill:#F95428;" d="M407.981,242.734c34.734,34.734,34.734,91.063,0,125.796s-91.063,34.734-125.796,0
	c-3.261-3.261-6.217-6.71-8.868-10.311c-6.862-9.349-11.672-19.73-14.417-30.534c-7.507-29.42,0.258-61.924,23.285-84.951
	c23.332-23.332,56.399-31.003,86.124-22.991c10.827,2.921,21.22,7.93,30.534,15.015
	C402.022,237.173,405.072,239.824,407.981,242.734z"/>
<circle style="fill:#B8E6FF;" cx="345.083" cy="305.634" r="57.018"/>
<path style="fill:#F95428;" d="M506.801,441.121l-50.022-50.035c-3.358-3.343-7.808-5.184-12.528-5.184
	c-4.736,0-9.187,1.843-12.535,5.191c-6.91,6.91-6.91,18.156,0,25.068l50.018,50.018c3.348,3.348,7.798,5.191,12.535,5.191
	c4.751,0,9.204-1.846,12.532-5.187c3.353-3.347,5.2-7.796,5.2-12.532C512,448.915,510.154,444.466,506.801,441.121z"/>
</svg>