<?xml version="1.0" encoding="iso-8859-1"?>
<!-- Uploaded to: SVG Repo, www.svgrepo.com, Generator: SVG Repo Mixer Tools -->
<svg fill="#000000" height="800px" width="800px" version="1.1" id="Layer_1" xmlns="http://www.w3.org/2000/svg" xmlns:xlink="http://www.w3.org/1999/xlink" 
	 viewBox="0 0 511.999 511.999" xml:space="preserve">
<g>
	<g>
		<g>
			<path d="M263.362,266.25h-23.064l2.121-13.919c0.404-2.653-0.37-5.352-2.119-7.388c-1.75-2.036-4.3-3.207-6.984-3.207h-58.706
				c-2.685,0-5.236,1.171-6.984,3.207c-1.749,2.036-2.523,4.735-2.119,7.388l2.121,13.919h-23.064
				c-9.172,0-17.266,5.171-21.121,13.494c-3.856,8.324-2.565,17.841,3.367,24.837l15.554,18.343
				c1.326,14.369,10.517,27.627,24.975,36.098v12.249c0,5.086,4.123,9.209,9.209,9.209h54.836c5.086,0,9.209-4.123,9.209-9.209
				v-12.249c14.459-8.471,23.648-21.728,24.975-36.098l15.554-18.343c5.933-6.996,7.224-16.514,3.368-24.837
				C280.629,271.42,272.536,266.25,263.362,266.25z M147.08,300.011l-6.225-7.343c-1.812-2.136-1.095-4.337-0.704-5.184
				c0.393-0.847,1.607-2.817,4.409-2.817h15.426C154.48,289.086,150.115,294.291,147.08,300.011z M227.49,345.114
				c-3.245,1.512-5.32,4.768-5.32,8.348v8.6h-36.416v-8.6c0-3.581-2.075-6.836-5.32-8.348c-12.422-5.787-19.84-15.427-19.84-25.785
				c0-11.088,8.596-21.397,22.436-26.905c3.982-1.585,6.344-5.706,5.699-9.943l-3.401-22.326h37.27l-3.401,22.326
				c-0.645,4.236,1.717,8.358,5.699,9.943c13.839,5.508,22.436,15.818,22.436,26.905C247.33,329.687,239.914,339.327,227.49,345.114
				z M267.068,292.67l-6.225,7.343c-3.034-5.722-7.4-10.926-12.905-15.344h15.426c2.802,0,4.016,1.97,4.408,2.817
				C268.163,288.332,268.88,290.532,267.068,292.67z"/>
			<path d="M55.924,407.58h296.074c5.086,0,9.209-4.123,9.209-9.209V217.706c0-5.086-4.123-9.209-9.209-9.209H55.924
				c-5.086,0-9.209,4.123-9.209,9.209V398.37C46.715,403.456,50.838,407.58,55.924,407.58z M65.133,226.915h277.656v162.247H65.133
				V226.915z"/>
			<path d="M502.791,57.703H113.28c-5.086,0-9.209,4.123-9.209,9.209v42.837H61.246c-5.086,0-9.209,4.123-9.209,9.209v42.822H9.209
				c-5.086,0-9.209,4.123-9.209,9.209v274.096c0,5.086,4.123,9.209,9.209,9.209h389.505c5.086,0,9.209-4.123,9.209-9.209v-42.822
				h42.834c5.086,0,9.209-4.123,9.209-9.209v-42.837h42.823c5.086,0,9.209-4.123,9.209-9.209V66.913
				C512,61.827,507.877,57.703,502.791,57.703z M389.505,435.877H18.418V180.199h371.086V435.877z M407.924,383.846V170.99
				c0-5.086-4.123-9.209-9.209-9.209H70.456v-33.613h371.093v255.678H407.924z M493.582,331.8h-33.614V118.959
				c0-5.086-4.123-9.209-9.209-9.209H122.489V76.122h371.093V331.8z"/>
		</g>
	</g>
</g>
</svg>