<?xml version="1.0" encoding="iso-8859-1"?>
<!-- Uploaded to: SVG Repo, www.svgrepo.com, Generator: SVG Repo Mixer Tools -->
<svg version="1.1" id="Layer_1" xmlns="http://www.w3.org/2000/svg" xmlns:xlink="http://www.w3.org/1999/xlink" 
	 viewBox="0 0 512 512" xml:space="preserve">
<rect x="110.478" y="13.339" style="fill:#B8E6FF;" width="291.034" height="348.512"/>
<rect x="169.765" y="304.365" style="fill:#CCCCCC;" width="172.46" height="57.488"/>
<g>
	<polygon style="fill:#F2F2F2;" points="401.515,128.176 401.515,153.58 261.262,13.339 286.678,13.339 	"/>
	<polygon style="fill:#F2F2F2;" points="401.515,67.847 401.515,93.263 321.603,13.339 346.995,13.339 	"/>
	<polygon style="fill:#F2F2F2;" points="191.471,362.474 171.793,368.211 165.433,361.851 110.481,306.888 110.481,281.484 	"/>
</g>
<rect x="110.49" y="356.034" style="fill:#4D4D4D;" width="291.034" height="133.642"/>
<rect x="190.03" y="398.673" style="fill:#E09B2D;" width="131.941" height="57.488"/>
<rect x="199.612" y="408.255" style="fill:#F7B239;" width="112.777" height="38.325"/>
<path style="fill:#333333;" d="M503.017,498.661H8.983c-4.962,0-8.983-4.022-8.983-8.983c0-4.961,4.021-8.983,8.983-8.983h494.034
	c4.962,0,8.983,4.022,8.983,8.983C512,494.639,507.979,498.661,503.017,498.661z"/>
<path style="fill:#F95428;" d="M357.703,203.429h-72.306c0-21.475-17.415-38.878-38.89-38.878c-13.414,0-25.248,6.803-32.243,17.139
	l-59.97-40.435c19.99-29.584,53.826-49.023,92.212-49.023C307.925,92.233,357.703,142.01,357.703,203.429z"/>
<path style="fill:#F7B239;" d="M285.396,203.429h-0.012h-40.555h-0.012h-37.189c0-8.061,2.443-15.534,6.635-21.739
	c6.995-10.336,18.828-17.139,32.243-17.139C267.981,164.551,285.396,181.954,285.396,203.429z"/>
<path style="fill:#F9C067;" d="M285.384,203.429v16.6c0,28.47-23.068,51.538-51.538,51.538h-26.218v-28.745h16.984
	c11.163,0,20.206-9.043,20.206-20.206v-19.187l0.012-11.486L285.384,203.429z"/>
</svg>