<?xml version="1.0" encoding="iso-8859-1"?>
<!-- Uploaded to: SVG Repo, www.svgrepo.com, Generator: SVG Repo Mixer Tools -->
<svg fill="#000000" height="800px" width="800px" version="1.1" id="Layer_1" xmlns="http://www.w3.org/2000/svg" xmlns:xlink="http://www.w3.org/1999/xlink" 
	 viewBox="0 0 512 512" xml:space="preserve">
<g>
	<g>
		<g>
			<path d="M321.972,394.18H190.028c-4.961,0-8.983,4.022-8.983,8.983v57.488c0,4.961,4.022,8.983,8.983,8.983h131.946
				c4.961,0,8.983-4.022,8.983-8.983v-57.488C330.955,398.202,326.933,394.18,321.972,394.18z M312.989,451.667H199.01v-39.522
				h113.98V451.667z"/>
			<path d="M503.017,485.19h-92.519V366.348V17.829c0-4.961-4.022-8.983-8.983-8.983h-291.03c-4.961,0-8.983,4.022-8.983,8.983
				v348.518v118.841H8.983c-4.961,0-8.983,4.022-8.983,8.983c0,4.961,4.022,8.983,8.983,8.983h494.034
				c4.961,0,8.983-4.022,8.983-8.983C512,489.21,507.978,485.19,503.017,485.19z M392.533,485.19H119.468V375.331h50.301h172.463
				h50.302V485.19z M178.751,357.365v-39.522h154.497v39.522H178.751z M392.533,357.364h-41.319v-48.505
				c0-4.961-4.022-8.983-8.983-8.983H169.768c-4.961,0-8.983,4.022-8.983,8.983v48.505h-41.318V26.812h273.066V357.364z"/>
			<path d="M200.198,260.763c0.22,0.012,0.442,0.02,0.664,0.028v3.951c0,4.244,2.5,8.105,6.366,9.836
				c15.5,6.944,32.135,10.417,48.774,10.415c16.636,0,33.276-3.472,48.771-10.414c3.867-1.732,6.367-5.593,6.367-9.837v-3.951
				c0.222-0.007,0.442-0.017,0.662-0.028c18.769-0.946,34.092-16.396,34.882-35.175c0.46-10.933-3.909-21.425-11.987-28.786
				c-0.836-0.762-1.229-1.791-1.052-2.752c0.953-5.154,1.393-10.445,1.307-15.727c-0.699-42.64-35.97-77.472-78.624-77.647
				c-0.111,0-0.22,0-0.332,0c-21.032,0-40.809,8.166-55.718,23.013c-14.988,14.927-23.242,34.797-23.242,55.95
				c0,4.842,0.444,9.699,1.322,14.433c0.175,0.949-0.219,1.97-1.056,2.732c-8.079,7.361-12.448,17.853-11.987,28.787
				C166.107,244.37,181.429,259.82,200.198,260.763z M189.403,210.084c5.46-4.975,7.935-12.183,6.621-19.283
				c-0.678-3.659-1.022-7.414-1.022-11.162c0-16.341,6.377-31.689,17.954-43.22c11.517-11.471,26.793-17.778,43.042-17.778
				c0.085,0,0.171,0,0.255,0c32.949,0.134,60.194,27.04,60.734,59.975c0.067,4.09-0.273,8.184-1.01,12.168v0.001
				c-1.314,7.111,1.159,14.325,6.617,19.296c4.137,3.769,6.374,9.146,6.138,14.751c-0.405,9.603-8.239,17.503-17.838,17.987
				c-0.701,0.035-1.411,0.032-2.108-0.008c-4.035-0.235-8.043,1.22-10.987,3.994c-2.942,2.774-4.629,6.686-4.629,10.729v2.437
				c-23.863,9.408-50.483,9.408-74.347,0v-2.437c0-4.043-1.688-7.955-4.629-10.729c-2.943-2.775-6.941-4.224-10.988-3.994
				c-0.696,0.042-1.405,0.046-2.108,0.008c-9.597-0.483-17.433-8.383-17.838-17.986C183.028,219.23,185.266,213.853,189.403,210.084
				z"/>
			<path d="M219.299,216.266c1.382,0.768,2.878,1.132,4.354,1.132c3.156,0,6.219-1.667,7.861-4.622l5.989-10.779
				c2.41-4.337,0.847-9.806-3.49-12.214c-4.336-2.409-9.806-0.847-12.214,3.49l-5.989,10.779
				C213.399,208.388,214.962,213.857,219.299,216.266z"/>
			<path d="M280.486,212.776c1.642,2.955,4.703,4.622,7.861,4.622c1.476,0,2.973-0.364,4.354-1.132
				c4.337-2.41,5.9-7.879,3.49-12.214l-5.989-10.779c-2.409-4.337-7.879-5.9-12.214-3.49c-4.337,2.41-5.9,7.879-3.49,12.214
				L280.486,212.776z"/>
			<path d="M255.999,238.955c4.961,0,8.983-4.022,8.983-8.983v-10.779c0-4.961-4.022-8.983-8.983-8.983
				c-4.961,0-8.983,4.022-8.983,8.983v10.779C247.016,234.933,251.038,238.955,255.999,238.955z"/>
		</g>
	</g>
</g>
</svg>