<?xml version="1.0" encoding="iso-8859-1"?>
<!-- Uploaded to: SVG Repo, www.svgrepo.com, Generator: SVG Repo Mixer Tools -->
<svg version="1.1" id="Layer_1" xmlns="http://www.w3.org/2000/svg" xmlns:xlink="http://www.w3.org/1999/xlink" 
	 viewBox="0 0 512 512" xml:space="preserve">
<g>
	<path style="fill:#666666;" d="M73.317,136.93L61.1,124.713l51.141-51.14c3.374-3.374,8.844-3.375,12.217,0l51.14,51.14
		l-12.217,12.217L118.35,91.898L73.317,136.93z"/>
	<path style="fill:#666666;" d="M338.72,146.827l-12.217-12.217l61.039-61.038c3.374-3.374,8.844-3.375,12.217,0l61.038,61.038
		l-12.217,12.217l-54.93-54.93L338.72,146.827z"/>
</g>
<g>
	<rect y="119.595" style="fill:#F7B239;" width="236.7" height="321.364"/>
	<rect x="275.3" y="119.595" style="fill:#F7B239;" width="236.7" height="321.364"/>
</g>
<g>
	<rect x="28.797" y="148.392" style="fill:#FFFFFF;" width="179.106" height="263.769"/>
	<rect x="304.097" y="148.392" style="fill:#FFFFFF;" width="179.106" height="263.769"/>
</g>
<g>
	<polygon style="fill:#2BA5F7;" points="118.35,285.866 158.077,354.676 78.623,354.676 	"/>
	<circle style="fill:#2BA5F7;" cx="118.356" cy="234.657" r="28.797"/>
</g>
<g>
	<polygon style="fill:#F95428;" points="393.65,354.676 433.377,285.866 353.923,285.866 	"/>
	<circle style="fill:#F95428;" cx="393.656" cy="234.657" r="28.797"/>
</g>
</svg>