<?xml version="1.0" encoding="iso-8859-1"?>
<!-- Uploaded to: SVG Repo, www.svgrepo.com, Generator: SVG Repo Mixer Tools -->
<svg version="1.1" id="Layer_1" xmlns="http://www.w3.org/2000/svg" xmlns:xlink="http://www.w3.org/1999/xlink" 
	 viewBox="0 0 512.001 512.001" xml:space="preserve">
<polygon style="fill:#B3B3B3;" points="386.338,349.281 386.338,388.845 360.895,388.845 151.102,388.845 125.671,388.845 
	125.671,349.281 182.876,349.281 329.121,349.281 "/>
<rect x="151.097" y="388.845" style="fill:#CCCCCC;" width="209.794" height="114.55"/>
<rect x="151.097" y="388.845" style="fill:#999999;" width="209.794" height="25.81"/>
<path style="fill:#F7B239;" d="M348.357,13.891c3.269,3.269,5.288,7.789,5.288,12.779c0,9.98-8.087,18.067-18.067,18.067h-1.296
	H177.715h-1.285c-4.99,0-9.509-2.019-12.779-5.288c-3.269-3.269-5.288-7.789-5.288-12.779c0-9.98,8.087-18.067,18.067-18.067
	h159.149C340.569,8.603,345.088,10.622,348.357,13.891z"/>
<path style="fill:#E09B2D;" d="M199.656,26.67c0-9.98,8.087-18.067,18.067-18.067H176.43c-9.98,0-18.067,8.087-18.067,18.067
	c0,4.99,2.019,9.509,5.288,12.779c3.269,3.269,7.789,5.288,12.779,5.288h1.285h40.009c-4.99,0-9.509-2.019-12.779-5.288
	C201.676,36.18,199.656,31.66,199.656,26.67z"/>
<path style="fill:#F7B239;" d="M182.876,318.149c-40.24-18.744-67.105-52.503-67.105-91.034c0-41.101,30.559-76.753,75.319-94.579
	l-3.418-22.414l-9.957-65.385h156.568l-9.957,65.385l-3.418,22.414c44.771,17.826,75.319,53.478,75.319,94.579
	c0,38.531-26.854,72.29-67.105,91.034v31.132H182.877L182.876,318.149L182.876,318.149z"/>
<path style="fill:#E09B2D;" d="M144.7,227.115c0-41.101,30.559-76.753,75.319-94.579l-3.418-22.414l-9.957-65.385h-28.929
	l9.957,65.385l3.418,22.414c-44.76,17.826-75.319,53.478-75.319,94.579c0,38.531,26.865,72.29,67.105,91.034v31.132h28.929v-31.132
	C171.565,299.405,144.7,265.646,144.7,227.115z"/>
<path style="fill:#333333;" d="M384.642,285.227c12.864-17.085,19.801-36.594,20.155-56.514l26.164-72.618
	c4.494-12.476,2.627-26.403-4.997-37.253s-20.093-17.328-33.353-17.328H334.34l7.452-48.914
	c11.716-2.808,20.455-13.365,20.455-25.93C362.247,11.963,350.282,0,335.577,0H176.425c-14.706,0-26.67,11.963-26.67,26.669
	c0,12.565,8.739,23.122,20.455,25.93l7.452,48.914h-58.271c-13.262,0-25.73,6.478-33.353,17.328
	c-7.624,10.85-9.492,24.776-4.997,37.253l26.164,72.618c0.353,19.921,7.291,39.428,20.155,56.514
	c11.573,15.37,27.716,28.535,46.913,38.303v17.143h-48.606c-4.751,0-8.603,3.852-8.603,8.603v39.573
	c0,4.751,3.852,8.603,8.603,8.603h16.829v105.945c0,4.751,3.852,8.603,8.603,8.603h209.8c4.751,0,8.603-3.852,8.603-8.603V397.453
	h16.829c4.751,0,8.603-3.852,8.603-8.603v-39.573c0-4.751-3.852-8.603-8.603-8.603h-48.606v-17.145
	C356.925,313.762,373.068,300.597,384.642,285.227z M392.61,118.721c7.777,0,14.803,3.65,19.275,10.014s5.523,14.21,2.887,21.529
	l-15.949,44.269c-10.606-28.134-34.765-52.317-68.398-67.314l1.294-8.497h60.892V118.721z M176.425,17.207h159.152
	c5.218,0,9.464,4.245,9.464,9.462s-4.245,9.462-9.464,9.462h-1.29H177.716h-1.29c-5.218,0-9.464-4.245-9.464-9.462
	S171.207,17.207,176.425,17.207z M100.117,128.734c4.471-6.364,11.497-10.014,19.275-10.014h60.892l1.294,8.497
	c-33.633,14.997-57.792,39.18-68.398,67.314l-15.949-44.268C94.593,142.945,95.645,135.098,100.117,128.734z M352.298,494.793
	H159.704v-97.342h192.594L352.298,494.793L352.298,494.793z M377.731,380.245h-243.46v-22.366h243.46L377.731,380.245
	L377.731,380.245z M191.48,340.672v-13.918h78.285c4.751,0,8.603-3.852,8.603-8.603c0-4.751-3.852-8.603-8.603-8.603h-84.923
	c-37.892-18.23-60.464-48.928-60.464-82.433c0-35.829,26.18-68.647,68.424-85.972h75.243c4.751,0,8.603-3.852,8.603-8.603
	s-3.852-8.603-8.603-8.603h-69.56l-10.755-70.598h136.545l-11.869,77.907c-0.602,3.958,1.604,7.808,5.324,9.289
	c43.113,17.16,69.895,50.336,69.895,86.582c0,33.997-23.227,65.113-62.132,83.237c-3.032,1.412-4.97,4.454-4.97,7.799v22.521H191.48
	V340.672z"/>
</svg>