<?xml version="1.0" encoding="iso-8859-1"?>
<!-- Uploaded to: SVG Repo, www.svgrepo.com, Generator: SVG Repo Mixer Tools -->
<svg height="800px" width="800px" version="1.1" id="Layer_1" xmlns="http://www.w3.org/2000/svg" xmlns:xlink="http://www.w3.org/1999/xlink" 
	 viewBox="0 0 512.001 512.001" xml:space="preserve">
<g>
	<path style="fill:#F7B239;" d="M453.117,468.363h-22.559c-16.163,0-30.978-10.118-14.814-40.992
		c8.172-15.606,3.956-35.907-2.218-52.187c-6.032-15.93-13.945-28.007-13.945-28.007v-0.532h59.27l7.602,17.292
		c1.634,3.71,2.906,7.459,3.827,11.247c1.167,4.916,1.751,9.872,1.751,14.801c0,20.665-10.235,40.914-29.343,56.014
		c-3.347,2.646-5.02,6.11-5.02,9.586C437.667,464.173,446.319,467.454,453.117,468.363z"/>
	<path style="fill:#F7B239;" d="M98.469,375.183c-6.175,16.28-10.391,36.582-2.218,52.187c16.163,30.874,1.349,40.992-14.814,40.992
		H58.891c6.797-0.908,15.45-4.19,15.45-12.778c0-3.477-1.686-6.94-5.02-9.586c-19.121-15.1-29.356-35.349-29.356-56.014
		c0-4.929,0.584-9.885,1.764-14.801c0.908-3.788,2.179-7.537,3.814-11.247l7.615-17.292h59.257v0.532
		C112.415,347.176,104.501,359.253,98.469,375.183z"/>
	<polygon style="fill:#F7B239;" points="498.649,305.963 498.649,346.644 458.85,346.644 399.58,346.644 112.415,346.644 
		53.158,346.644 13.359,346.644 13.359,305.963 28.588,305.963 256.004,305.963 483.407,305.963 	"/>
</g>
<g>
	<path style="fill:#E09B2D;" d="M53.158,346.644h59.257v0.532c0,0-7.913,12.077-13.945,28.007h-56.74
		c0.908-3.788,2.179-7.537,3.814-11.247L53.158,346.644z"/>
	<path style="fill:#E09B2D;" d="M470.279,375.183h-56.753c-6.032-15.93-13.945-28.007-13.945-28.007v-0.532h59.27l7.602,17.292
		C468.086,367.646,469.358,371.396,470.279,375.183z"/>
</g>
<path style="fill:#F7B239;" d="M502.268,196.88c0,27.773-11.921,52.758-30.926,70.115c-4.424-3.023-426.267-3.023-430.69,0
	C21.648,249.638,9.727,224.653,9.727,196.88c0-52.447,42.523-94.944,94.957-94.944c14.542,0,28.331,3.282,40.655,9.119
	c20.574-40.201,62.409-67.702,110.666-67.702c48.244,0,90.079,27.501,110.666,67.702c12.324-5.837,26.1-9.119,40.642-9.119
	C459.745,101.936,502.268,144.433,502.268,196.88z"/>
<g>
	<path style="fill:#E54728;" d="M40.652,266.995c4.424-3.023,9.768-4.787,15.528-4.787h31.432h140.8
		c15.229,0,27.592,12.35,27.592,27.592v16.163H28.588V289.8C28.588,280.317,33.362,271.963,40.652,266.995z"/>
	<path style="fill:#E54728;" d="M471.342,266.995c7.29,4.968,12.064,13.322,12.064,22.805v16.163H256.004V289.8
		c0-15.242,12.35-27.592,27.592-27.592h140.813h31.406C461.574,262.208,466.919,263.972,471.342,266.995z"/>
</g>
<path style="fill:#F95428;" d="M468.618,196.88c0,17.279-7.342,33.844-20.172,45.442l-24.038,19.886H283.596
	c-15.242,0-27.592,12.35-27.592,27.592c0-15.242-12.363-27.592-27.592-27.592h-140.8l-24.05-19.886
	c-12.804-11.597-20.159-28.163-20.159-45.442c0-33.793,27.488-61.281,61.281-61.281c9.171,0,17.992,1.985,26.23,5.889l29.512,13.997
	l14.879-29.084c15.593-30.446,46.518-49.372,80.7-49.372s65.108,18.926,80.713,49.372l14.879,29.084l29.512-13.997
	c8.224-3.905,17.045-5.889,26.217-5.889C441.117,135.599,468.618,163.087,468.618,196.88z"/>
<g>
	<path style="fill:#333333;" d="M498.648,296.23h-5.507v-6.428c0-8.664-2.976-16.642-7.948-22.983
		c17.145-19.107,26.808-44.048,26.808-69.934c0-57.724-46.961-104.684-104.684-104.684c-12.567,0-24.768,2.186-36.381,6.506
		c-24.165-40.368-67.413-65.082-114.929-65.082c-47.524,0-90.777,24.715-114.942,65.082c-11.613-4.321-23.813-6.506-36.381-6.506
		C46.962,92.202,0,139.163,0,196.886c0,25.886,9.663,50.828,26.808,69.934c-4.972,6.341-7.948,14.319-7.948,22.982v6.428h-5.508
		c-5.373,0-9.729,4.356-9.729,9.729v40.689c0,5.373,4.356,9.729,9.729,9.729h24.888l-1.599,3.634
		c-4.25,9.633-6.404,19.718-6.404,29.972c0,23.849,12.045,47.049,33.044,63.651c0.832,0.658,1.328,1.387,1.328,1.951
		c0,0.423-0.01,0.502-0.397,0.838c-1.302,1.13-3.715,1.841-5.967,2.212h-6.762c-4.862,0-8.978,3.589-9.638,8.406
		c-0.662,4.817,2.335,9.383,7.017,10.693c1.395,0.39,3.497,0.643,5.998,0.643c1.462,0,3.06-0.087,4.731-0.284h21.846
		c12.468,0,22.568-4.871,27.709-13.365c6.279-10.373,4.84-24.459-4.272-41.87c-10.06-19.22,4.501-51.507,13.298-66.48H393.84
		c8.812,14.949,23.386,47.186,13.289,66.48c-9.113,17.411-10.552,31.499-4.273,41.872c5.141,8.493,15.24,13.364,27.707,13.364
		h21.846c1.671,0.197,3.27,0.284,4.731,0.284c2.502,0,4.605-0.254,5.998-0.643c4.682-1.31,7.68-5.875,7.018-10.693
		c-0.662-4.817-4.778-8.406-9.64-8.406h-6.762c-2.252-0.37-4.666-1.081-5.97-2.212c-0.385-0.335-0.397-0.414-0.397-0.837
		c0-0.564,0.497-1.293,1.328-1.951c20.999-16.601,33.044-39.801,33.044-63.651c0-10.256-2.153-20.339-6.4-29.964l-1.603-3.643
		h24.888c5.374,0,9.729-4.356,9.729-9.729v-40.689C508.377,300.586,504.022,296.23,498.648,296.23z M228.408,252.481H91.109
		l-21.168-17.516c-10.687-9.754-16.811-23.62-16.811-38.079c0-28.427,23.127-51.554,51.554-51.554
		c7.717,0,15.136,1.664,22.055,4.948l29.51,13.994c4.75,2.249,10.432,0.323,12.83-4.359l14.882-29.077
		c13.927-27.191,41.533-44.082,72.046-44.082c30.512,0,58.119,16.891,72.044,44.08l14.886,29.08
		c2.397,4.682,8.078,6.609,12.83,4.359l29.512-13.996c6.915-3.282,14.336-4.946,22.053-4.946c28.427,0,51.554,23.127,51.554,51.554
		c0,14.469-6.123,28.335-16.808,38.077l-21.172,17.518H283.595c-10.921,0-20.762,4.715-27.593,12.217
		C249.169,257.197,239.329,252.481,228.408,252.481z M265.729,289.802c0-9.85,8.014-17.864,17.864-17.864h172.224
		c9.851,0,17.864,8.013,17.864,17.864v6.428H265.729V289.802z M104.684,111.66c12.744,0,25.018,2.757,36.479,8.193
		c4.752,2.253,10.434,0.323,12.831-4.357C173.7,76.998,212.79,53.084,256.007,53.084c43.21,0,82.293,23.916,102,62.412
		c2.397,4.683,8.083,6.611,12.83,4.357c11.462-5.437,23.735-8.193,36.479-8.193c46.994,0,85.226,38.232,85.226,85.226
		c0,21.661-8.331,42.496-23.028,58.209c-4.243-1.68-8.861-2.614-13.695-2.614h-4.391l3.225-2.668c0.11-0.091,0.218-0.184,0.324-0.28
		c14.848-13.431,23.366-32.62,23.366-52.645c0-39.157-31.857-71.012-71.012-71.012c-10.624,0-20.852,2.296-30.394,6.825
		l-20.98,9.948l-10.584-20.679c-17.271-33.723-51.514-54.671-89.366-54.671c-37.85,0-72.093,20.949-89.366,54.673l-10.583,20.676
		l-20.979-9.948c-9.542-4.529-19.77-6.825-30.395-6.825c-39.157,0-71.012,31.856-71.012,71.012c0,20.014,8.515,39.201,23.363,52.644
		c0.108,0.097,0.217,0.191,0.327,0.283l3.225,2.668h-4.404c-4.835,0-9.452,0.934-13.696,2.615
		c-14.696-15.715-23.028-36.549-23.028-58.21C19.458,149.892,57.691,111.66,104.684,111.66z M38.319,289.802
		c0-9.85,8.013-17.864,17.864-17.864h172.225c9.85,0,17.864,8.013,17.864,17.864v6.428H38.319V289.802z M87.634,431.88
		c5.415,10.347,7.235,18.859,4.865,22.771c-1.274,2.105-4.421,3.495-8.632,3.876c0.134-0.961,0.201-1.943,0.201-2.942
		c0-6.56-3.178-12.835-8.719-17.215c-16.543-13.077-25.654-30.262-25.654-48.386c0-7.534,1.597-14.975,4.753-22.127l5.053-11.48
		h36.617C86.9,374.899,74.807,407.372,87.634,431.88z M457.556,367.864c3.151,7.143,4.748,14.585,4.748,22.119
		c0,18.125-9.11,35.309-25.653,48.386c-5.54,4.381-8.72,10.655-8.72,17.215c0,0.999,0.067,1.981,0.201,2.942
		c-4.209-0.381-7.357-1.771-8.63-3.876c-2.369-3.914-0.55-12.426,4.865-22.771c12.828-24.507,0.736-56.98-8.483-75.503H452.5
		L457.556,367.864z M488.919,336.919H23.081v-21.23h465.837V336.919z"/>
	<circle style="fill:#333333;" cx="102.452" cy="194.869" r="9.729"/>
	<circle style="fill:#333333;" cx="409.935" cy="194.869" r="9.729"/>
	<circle style="fill:#333333;" cx="256.007" cy="136.948" r="9.729"/>
</g>
</svg>