<?xml version="1.0" encoding="iso-8859-1"?>
<!-- Uploaded to: SVG Repo, www.svgrepo.com, Generator: SVG Repo Mixer Tools -->
<svg version="1.1" id="Layer_1" xmlns="http://www.w3.org/2000/svg" xmlns:xlink="http://www.w3.org/1999/xlink" 
	 viewBox="0 0 511.999 511.999" xml:space="preserve">
<rect x="338.376" y="401.778" transform="matrix(0.7071 0.7071 -0.7071 0.7071 423.0445 -121.1051)" style="fill:#CCCCCC;" width="38.665" height="96.659"/>
<rect x="131.782" y="151.482" transform="matrix(-0.7071 0.7071 -0.7071 -0.7071 603.3273 391.3654)" style="fill:#F7B239;" width="177.655" height="338.308"/>
<path style="fill:#E09B2D;" d="M403.04,377.444l-63.313,63.313c-2.083,0.075-4.165,0.114-6.248,0.114
	c-43.907,0-87.812-16.756-121.315-50.258L61.795,240.244l102.022-102.022L403.04,377.444z"/>
<path style="fill:#808080;" d="M232.984,369.787L55.278,192.081L176.596,70.763l299.025,299.025l0,0
	C408.62,436.79,299.987,436.79,232.984,369.787z"/>
<circle style="fill:#F7B239;" cx="256.912" cy="264.156" r="32.843"/>
<path style="fill:#333333;" d="M481.812,361.585L266.04,145.813V10.041C266.04,4.496,261.546,0,255.999,0
	c-5.547,0-10.041,4.496-10.041,10.041v115.691L182.787,62.56c-3.923-3.921-10.279-3.921-14.201,0L47.268,183.878
	c-3.921,3.921-3.921,10.279,0,14.199l20.238,20.238l-37.321,37.321c-1.882,1.882-2.94,4.437-2.94,7.1s1.058,5.217,2.94,7.1
	l239.221,239.221c1.961,1.96,4.532,2.941,7.101,2.941c2.569,0,5.14-0.98,7.101-2.941l25.355-25.355l20.24,20.241
	c1.884,1.884,4.437,2.941,7.101,2.941s5.216-1.058,7.101-2.941l68.353-68.352c1.882-1.882,2.94-4.437,2.94-7.1
	c0-2.663-1.058-5.217-2.941-7.1l-1.556-1.556c26.2-8.582,50.822-23.26,71.613-44.051
	C485.734,371.864,485.734,365.506,481.812,361.585z M276.507,487.759L51.485,262.738l30.222-30.22l143.268,143.268
	c31.033,31.033,70.594,48.463,111.21,52.296l-34.322,34.322L276.507,487.759z M390.456,428.492l-54.153,54.153l-13.14-13.142
	l40.936-40.936c7.884-0.461,15.744-1.426,23.525-2.908L390.456,428.492z M239.176,361.585L68.568,190.978L175.687,83.859
	l70.272,70.272v67.242c-18.817,4.533-32.843,21.497-32.843,41.686c0,23.647,19.237,42.884,42.884,42.884
	s42.884-19.238,42.884-42.884c0-20.189-14.026-37.153-32.843-41.686v-47.16l194.254,194.254
	C396.928,424.477,299.77,422.184,239.176,361.585z M255.999,240.256c12.574,0,22.802,10.23,22.802,22.802
	c0,12.573-10.23,22.802-22.802,22.802s-22.802-10.23-22.802-22.802C233.197,250.486,243.427,240.256,255.999,240.256z"/>
</svg>