<?xml version="1.0" encoding="iso-8859-1"?>
<!-- Uploaded to: SVG Repo, www.svgrepo.com, Generator: SVG Repo Mixer Tools -->
<svg version="1.1" id="Layer_1" xmlns="http://www.w3.org/2000/svg" xmlns:xlink="http://www.w3.org/1999/xlink" 
	 viewBox="0 0 511.998 511.998" xml:space="preserve">
<rect x="231.258" y="8.706" style="fill:#B27214;" width="41.856" height="494.585"/>
<g>
	<rect x="231.258" y="197.205" style="fill:#995C0D;" width="41.856" height="79.892"/>
	<rect x="231.258" y="74.131" style="fill:#995C0D;" width="41.856" height="79.892"/>
</g>
<g>
	<polygon style="fill:#F7B239;" points="376.242,128.549 105.695,128.549 135.756,88.602 105.695,48.655 376.242,48.655 
		406.303,88.602 	"/>
	<polygon style="fill:#F7B239;" points="135.756,171.663 406.303,171.663 376.242,211.61 406.303,251.557 135.756,251.557 
		105.695,211.61 	"/>
</g>
<path style="fill:#333333;" d="M414.095,167.774c-1.475-2.954-4.491-4.82-7.792-4.82H281.824v-25.698h94.417
	c2.735,0,5.313-1.285,6.958-3.472l30.062-39.947c2.333-3.101,2.333-7.372-0.001-10.473l-30.062-39.947
	c-1.644-2.186-4.222-3.472-6.957-3.472h-94.417V8.708c0-4.809-3.898-8.708-8.708-8.708h-41.851c-4.81,0-8.708,3.899-8.708,8.708
	v31.239H105.695c-3.301,0-6.317,1.866-7.792,4.82c-1.475,2.954-1.151,6.486,0.834,9.124l26.12,34.711l-26.12,34.711
	c-1.984,2.638-2.307,6.171-0.834,9.124c1.475,2.954,4.491,4.82,7.792,4.82h116.862v25.698h-86.803c-2.735,0-5.313,1.285-6.958,3.472
	l-30.061,39.947c-2.333,3.101-2.333,7.372,0,10.473l30.061,39.947c1.645,2.186,4.223,3.472,6.958,3.472h86.803v234.319h-57.986
	c-4.81,0-8.708,3.899-8.708,8.708s3.898,8.708,8.708,8.708h66.694h41.851h74.311c4.81,0,8.708-3.899,8.708-8.708
	s-3.898-8.708-8.708-8.708h-65.603V260.265h124.479c3.301,0,6.317-1.866,7.792-4.82c1.475-2.954,1.151-6.487-0.835-9.124
	l-26.12-34.711l26.121-34.711C415.246,174.261,415.57,170.728,414.095,167.774z M239.974,17.416h24.436v22.531h-24.436V17.416z
	 M142.714,93.837c2.333-3.101,2.333-7.372,0-10.473l-19.568-26.003h248.751l23.508,31.239l-23.508,31.239H123.146L142.714,93.837z
	 M239.974,137.257h24.436v25.698h-24.436V137.257z M264.409,494.584h-24.436V260.265h24.436V494.584z M369.284,206.374
	c-2.333,3.101-2.333,7.372,0,10.473l19.568,26.003H140.1l-23.507-31.239l23.507-31.239h248.752L369.284,206.374z"/>
<line style="fill:none;stroke:#333333;stroke-width:15;stroke-linecap:round;stroke-linejoin:round;stroke-miterlimit:10;" x1="164.567" y1="503.293" x2="347.433" y2="503.293"/>
</svg>