<?xml version="1.0" encoding="iso-8859-1"?>
<!-- Uploaded to: SVG Repo, www.svgrepo.com, Generator: SVG Repo Mixer Tools -->
<svg version="1.1" id="Layer_1" xmlns="http://www.w3.org/2000/svg" xmlns:xlink="http://www.w3.org/1999/xlink" 
	 viewBox="0 0 512 512" xml:space="preserve">
<path style="fill:#F7B239;" d="M313.565,131.753l8.871,72.537c3.254,26.608,2.333,53.562-2.728,79.887l-16.683,86.748
	c0,0-18.242,109.451,4.865,132.557h-51.89h-51.89c23.106-23.106,4.865-132.557,4.865-132.557l-16.683-86.748
	c-5.063-26.324-5.983-53.278-2.728-79.887l8.871-72.537l-8.395-25.886c-0.864-2.665-0.816-5.542,0.14-8.176l20.362-56.172
	c1.078-2.973,3.235-5.432,6.042-6.888L250.202,17.2c3.635-1.884,7.959-1.884,11.593,0l33.618,17.431
	c2.808,1.456,4.965,3.914,6.042,6.888l20.362,56.172c0.955,2.634,1.004,5.511,0.14,8.176l-8.395,25.886"/>
<rect x="241.41" y="274.237" style="fill:#2BA5F7;" width="29.187" height="17.038"/>
<rect x="241.41" y="316.799" style="fill:#F95428;" width="29.187" height="17.038"/>
<rect x="241.41" y="359.361" style="fill:#2BA5F7;" width="29.187" height="17.038"/>
<rect x="241.41" y="401.934" style="fill:#F95428;" width="29.187" height="17.038"/>
<rect x="241.41" y="444.495" style="fill:#2BA5F7;" width="29.187" height="17.038"/>
<g>
	<rect x="270.591" y="258.619" style="fill:#F95428;" width="51.794" height="17.038"/>
	<rect x="189.614" y="258.619" style="fill:#F95428;" width="51.783" height="17.038"/>
</g>
<rect x="187.671" y="227.825" style="fill:#2BA5F7;" width="136.659" height="17.038"/>
<rect x="187.671" y="199.246" style="fill:#F95428;" width="136.659" height="17.038"/>
<g>
	
		<rect x="208.005" y="40.168" transform="matrix(-0.4579 -0.889 0.889 -0.4579 283.0262 269.9579)" style="fill:#2BA5F7;" width="31.632" height="17.038"/>
	
		<rect x="279.65" y="32.877" transform="matrix(-0.889 -0.4579 0.4579 -0.889 522.0563 223.9348)" style="fill:#2BA5F7;" width="17.038" height="31.632"/>
	<rect x="190.182" y="89.167" style="fill:#2BA5F7;" width="47.798" height="17.038"/>
	<rect x="274.033" y="89.167" style="fill:#2BA5F7;" width="47.798" height="17.038"/>
	<rect x="197.247" y="119.575" style="fill:#2BA5F7;" width="40.727" height="17.038"/>
	<rect x="274.033" y="119.575" style="fill:#2BA5F7;" width="40.727" height="17.038"/>
</g>
<path style="fill:#E09B2D;" d="M257.643,105.404h-3.29c-12.861,0-23.286-10.425-23.286-23.286V61.849
	c0-7.065,5.727-12.792,12.792-12.792h24.277c7.065,0,12.792,5.727,12.792,12.792v20.269
	C280.929,94.978,270.504,105.404,257.643,105.404z"/>
<g>
	<rect x="208.333" y="148.756" style="fill:#2BA5F7;" width="29.635" height="17.038"/>
	<rect x="274.033" y="148.756" style="fill:#2BA5F7;" width="29.635" height="17.038"/>
</g>
<g>
	<path style="fill:#333333;" d="M257.643,113.923h-3.29c-17.537,0-31.805-14.268-31.805-31.805V61.849
		c0-11.751,9.561-21.312,21.312-21.312h24.277c11.751,0,21.312,9.561,21.312,21.312v20.269
		C289.448,99.655,275.18,113.923,257.643,113.923z M243.859,57.576c-2.356,0-4.273,1.917-4.273,4.273v20.269
		c0,8.142,6.624,14.767,14.767,14.767h3.29c8.142,0,14.767-6.624,14.767-14.767V61.849c0-2.356-1.917-4.273-4.273-4.273H243.859z"/>
	<path style="fill:#333333;" d="M256.001,145.947c-11.628,0-21.088-9.46-21.088-21.088v-22.856h17.038v22.857
		c0,2.233,1.817,4.049,4.049,4.049c2.232,0,4.049-1.816,4.049-4.049v-22.857h17.038v22.857
		C277.088,136.487,267.629,145.947,256.001,145.947z"/>
	<path style="fill:#333333;" d="M307.89,512H204.11c-3.446,0-6.552-2.075-7.871-5.259c-1.319-3.184-0.59-6.847,1.847-9.284
		c13.789-13.789,9.767-81.375,2.502-125.031l-16.662-86.642c-5.238-27.235-6.186-55.001-2.818-82.53l8.642-70.666l-7.814-24.092
		c-1.441-4.448-1.359-9.315,0.235-13.709l20.362-56.172c1.812-4.998,5.409-9.1,10.129-11.547l33.619-17.431
		c6.085-3.154,13.35-3.155,19.436,0l33.618,17.431c4.721,2.448,8.318,6.55,10.13,11.549l20.362,56.171
		c1.593,4.394,1.677,9.261,0.235,13.708l-7.812,24.085l8.643,70.675c3.367,27.528,2.418,55.295-2.818,82.53l-16.661,86.64
		c-7.257,43.662-11.275,111.256,2.502,125.033c2.436,2.436,3.166,6.101,1.847,9.284C314.442,509.925,311.336,512,307.89,512z
		 M218.62,494.962h74.761c-5.098-14.513-6.766-36.637-5.093-66.895c1.679-30.37,6.146-57.409,6.336-58.545
		c0.011-0.07,0.024-0.14,0.037-0.209l16.683-86.748c4.902-25.489,5.791-51.478,2.639-77.243l-8.871-72.537l8.453-1.034l-8.105-2.628
		l8.395-25.886c0.278-0.858,0.262-1.797-0.045-2.645l-20.364-56.171c-0.35-0.965-1.044-1.756-1.955-2.229l-33.618-17.431
		c-1.174-0.609-2.576-0.609-3.75,0l-33.619,17.431c-0.91,0.473-1.605,1.263-1.954,2.227l-20.362,56.173
		c-0.308,0.849-0.324,1.788-0.045,2.647l8.395,25.885c0.383,1.181,0.503,2.431,0.352,3.663l-8.871,72.537
		c-3.151,25.765-2.264,51.753,2.639,77.243l16.683,86.748c0.014,0.069,0.025,0.139,0.037,0.209
		c0.19,1.136,4.657,28.175,6.336,58.545C225.386,458.325,223.718,480.448,218.62,494.962z"/>
	<path style="fill:#333333;" d="M229.233,194.592c-9.302,0-17.812-5.826-21.177-14.498l-17.563-45.259l15.884-6.164l17.563,45.259
		c0.841,2.167,2.968,3.623,5.293,3.623c3.13,0,5.678-2.548,5.678-5.678v-47.017h17.038v47.017
		C251.95,184.401,241.76,194.592,229.233,194.592z"/>
	<path style="fill:#333333;" d="M282.767,194.592c-12.525,0-22.717-10.191-22.717-22.717v-47.017h17.038v47.017
		c0,3.13,2.548,5.678,5.678,5.678c2.362,0,4.439-1.422,5.294-3.623l17.562-45.259l15.884,6.164l-17.563,45.259
		C300.526,188.901,292.214,194.592,282.767,194.592z"/>
	<path style="fill:#333333;" d="M270.593,512h-29.187c-4.705,0-8.519-3.814-8.519-8.519V236.339c0-4.705,3.814-8.519,8.519-8.519
		h29.187c4.705,0,8.519,3.814,8.519,8.519v267.141C279.112,508.186,275.298,512,270.593,512z M249.926,494.962h12.148V244.859
		h-12.148L249.926,494.962L249.926,494.962z"/>
	<path style="fill:#333333;" d="M256.001,57.576c-4.705,0-8.519-3.814-8.519-8.519V8.519c0-4.705,3.814-8.519,8.519-8.519
		c4.705,0,8.519,3.814,8.519,8.519v40.538C264.52,53.762,260.705,57.576,256.001,57.576z"/>
	<path style="fill:#333333;" d="M353.493,512H158.507c-4.705,0-8.519-3.814-8.519-8.519s3.814-8.519,8.519-8.519h194.985
		c4.705,0,8.519,3.814,8.519,8.519S358.197,512,353.493,512z"/>
</g>
</svg>