<?xml version="1.0" encoding="iso-8859-1"?>
<!-- Uploaded to: SVG Repo, www.svgrepo.com, Generator: SVG Repo Mixer Tools -->
<svg version="1.1" id="Layer_1" xmlns="http://www.w3.org/2000/svg" xmlns:xlink="http://www.w3.org/1999/xlink" 
	 viewBox="0 0 512 512" xml:space="preserve">
<rect x="110.478" y="13.339" style="fill:#B8E6FF;" width="291.034" height="348.512"/>
<polygon style="fill:#FFFFFF;" points="282.055,142.92 282.055,277.664 256.004,316.338 229.954,277.664 229.954,142.92 "/>
<rect x="241.628" y="87.234" style="fill:#F95428;" width="28.744" height="55.694"/>
<path style="fill:#4D4D4D;" d="M278.457,78.251h-13.471v-1.199c0-4.961-4.021-8.983-8.983-8.983c-4.962,0-8.983,4.022-8.983,8.983
	v1.199h-13.476c-4.962,0-8.983,4.022-8.983,8.983s4.021,8.983,8.983,8.983h44.912c4.962,0,8.983-4.022,8.983-8.983
	S283.419,78.251,278.457,78.251z"/>
<polygon style="fill:#E6E6E6;" points="256.004,142.92 256.004,316.338 229.954,277.664 229.954,142.92 "/>
<path style="fill:#4D4D4D;" d="M302.709,151.908h-93.417c-4.962,0-8.983-4.022-8.983-8.983s4.021-8.983,8.983-8.983h93.417
	c4.962,0,8.983,4.022,8.983,8.983S307.671,151.908,302.709,151.908z"/>
<rect x="169.765" y="304.365" style="fill:#CCCCCC;" width="172.46" height="57.488"/>
<g>
	<polygon style="fill:#F2F2F2;" points="401.515,128.176 401.515,153.58 261.262,13.339 286.678,13.339 	"/>
	<polygon style="fill:#F2F2F2;" points="401.515,67.847 401.515,93.263 321.603,13.339 346.995,13.339 	"/>
	<polygon style="fill:#F2F2F2;" points="191.471,362.474 171.793,368.211 165.433,361.851 110.481,306.888 110.481,281.484 	"/>
</g>
<rect x="110.49" y="356.034" style="fill:#4D4D4D;" width="291.034" height="133.642"/>
<rect x="190.03" y="398.673" style="fill:#E09B2D;" width="131.941" height="57.488"/>
<rect x="199.612" y="408.255" style="fill:#F7B239;" width="112.777" height="38.325"/>
<path style="fill:#333333;" d="M503.017,498.661H8.983c-4.962,0-8.983-4.022-8.983-8.983c0-4.961,4.021-8.983,8.983-8.983h494.034
	c4.962,0,8.983,4.022,8.983,8.983C512,494.639,507.979,498.661,503.017,498.661z"/>
</svg>