<?xml version="1.0" encoding="iso-8859-1"?>
<!-- Uploaded to: SVG Repo, www.svgrepo.com, Generator: SVG Repo Mixer Tools -->
<svg version="1.1" id="Layer_1" xmlns="http://www.w3.org/2000/svg" xmlns:xlink="http://www.w3.org/1999/xlink" 
	 viewBox="0 0 512 512" xml:space="preserve">
<path style="fill:#F95428;" d="M408.895,215.926c-88.228,74.089-217.561,74.089-305.789,0l-0.005-52.964
	c84.445,84.445,221.356,84.445,305.801,0"/>
<g>
	<rect x="36.334" y="121.088" style="fill:#F7B239;" width="77.84" height="354.713"/>
	<rect x="397.823" y="121.088" style="fill:#F7B239;" width="77.84" height="354.713"/>
</g>
<g>
	<rect x="397.823" y="121.088" style="fill:#E09B2D;" width="23.73" height="354.713"/>
	<rect x="36.334" y="121.088" style="fill:#E09B2D;" width="23.73" height="354.713"/>
</g>
<g>
	<path style="fill:#808080;" d="M126.607,111.308H85.03V71.736c0-5.399-4.377-9.777-9.777-9.777c-5.399,0-9.777,4.377-9.777,9.777
		v39.571H23.9c-5.399,0-9.777,4.377-9.777,9.777c0,5.399,4.377,9.777,9.777,9.777h102.707c5.399,0,9.777-4.377,9.777-9.777
		C136.384,115.685,132.006,111.308,126.607,111.308z"/>
	<path style="fill:#808080;" d="M488.101,111.308h-41.576V71.736c0-5.399-4.376-9.777-9.777-9.777c-5.401,0-9.777,4.377-9.777,9.777
		v39.571h-41.577c-5.401,0-9.777,4.377-9.777,9.777c0,5.399,4.376,9.777,9.777,9.777H488.1c5.401,0,9.777-4.377,9.777-9.777
		C497.876,115.685,493.5,111.308,488.101,111.308z"/>
</g>
<g>
	<circle style="fill:#E6E6E6;" cx="436.747" cy="41.082" r="41.082"/>
	<circle style="fill:#E6E6E6;" cx="75.254" cy="41.082" r="41.082"/>
</g>
<g>
	<path style="fill:#B3B3B3;" d="M57.635,41.082c0-18.611,12.379-34.323,29.35-39.373C83.267,0.604,79.332,0,75.254,0
		c-22.69,0-41.083,18.393-41.083,41.082c0,22.69,18.393,41.082,41.082,41.082c4.078,0,8.013-0.602,11.732-1.709
		C70.015,75.406,57.635,59.693,57.635,41.082z"/>
	<path style="fill:#B3B3B3;" d="M419.129,41.082c0-18.611,12.379-34.323,29.35-39.373C444.76,0.602,440.825,0,436.747,0
		c-22.689,0-41.082,18.393-41.082,41.082c0,22.69,18.393,41.082,41.082,41.082c4.078,0,8.013-0.602,11.732-1.709
		C431.509,75.406,419.129,59.693,419.129,41.082z"/>
</g>
<g>
	<path style="fill:#E6E6E6;" d="M497.828,512H375.667v-19.228c0-12.972,10.516-23.488,23.488-23.488h75.184
		c12.972,0,23.488,10.516,23.488,23.488V512H497.828z"/>
	<path style="fill:#E6E6E6;" d="M136.334,512H14.173v-19.228c0-12.972,10.516-23.488,23.488-23.488h75.184
		c12.972,0,23.488,10.516,23.488,23.488V512H136.334z"/>
</g>
<g>
	<path style="fill:#CCCCCC;" d="M62.873,469.283H37.661c-12.972,0-23.488,10.516-23.488,23.488v19.228h25.212v-19.228
		C39.385,479.799,49.901,469.283,62.873,469.283z"/>
	<path style="fill:#CCCCCC;" d="M424.367,469.283h-25.212c-12.972,0-23.488,10.516-23.488,23.488v19.228h25.212v-19.228
		C400.88,479.799,411.395,469.283,424.367,469.283z"/>
</g>
</svg>