<?xml version="1.0" encoding="iso-8859-1"?>
<!-- Uploaded to: SVG Repo, www.svgrepo.com, Generator: SVG Repo Mixer Tools -->
<svg version="1.1" id="Layer_1" xmlns="http://www.w3.org/2000/svg" xmlns:xlink="http://www.w3.org/1999/xlink" 
	 viewBox="0 0 511.997 511.997" xml:space="preserve">
<path style="fill:#F7B239;" d="M417.85,502.54H79.595V9.46H417.85c16.253,0,29.429,13.176,29.429,29.429v434.222
	C447.279,489.365,434.103,502.54,417.85,502.54z"/>
<rect x="79.591" y="9.46" style="fill:#E09B2D;" width="49.008" height="493.084"/>
<path style="fill:#995C0D;" d="M363.746,209.972c-5.196-9.165-13.41-14.421-22.537-14.421h-33.698l3.764-34.992
	c0.288-2.67-0.574-5.336-2.368-7.334s-4.353-3.138-7.038-3.138h-76.862c-2.685,0-5.244,1.142-7.038,3.138
	c-1.795,1.997-2.655,4.663-2.368,7.332l3.763,34.993h-33.698c-9.127,0-17.343,5.256-22.537,14.421
	c-7.356,12.977-7.207,30.201,0.371,42.862l21.681,36.218c0.771,26.343,12.86,50.331,32.9,65.511v25.415
	c0,5.225,4.236,9.46,9.46,9.46h71.794c5.225,0,9.46-4.236,9.46-9.46v-25.415c20.039-15.179,32.13-39.167,32.899-65.511
	l21.681-36.218C370.954,240.174,371.102,222.948,363.746,209.972z M291.336,169.007l-4.532,42.136h-46.734l-4.532-42.136H291.336z
	 M179.733,243.116c-4.6-7.687-3.556-17.798-0.146-23.814c1.023-1.804,3.172-4.831,6.077-4.831h35.732l0.132,1.23
	c-15.235,10.302-26.46,25.711-32.164,43.507L179.733,243.116z M237.001,370.518v-11.384h52.873v11.384H237.001z M296.333,340.213
	h-65.791c-16.621-12.06-26.483-31.965-26.483-53.844c0-23.446,11.476-44.789,30.103-56.305h58.551
	c18.627,11.516,30.103,32.859,30.103,56.305C322.814,308.249,312.953,328.154,296.333,340.213z M347.14,243.116l-9.633,16.093
	c-5.703-17.797-16.929-33.206-32.164-43.507l0.132-1.23h35.732c2.905,0,5.054,3.027,6.077,4.831
	C350.696,225.318,351.742,235.429,347.14,243.116z"/>
<path style="fill:#333333;" d="M417.85,0H79.595c-5.225,0-9.46,4.236-9.46,9.46v31.983h-5.416c-5.225,0-9.46,4.236-9.46,9.46
	s4.236,9.46,9.46,9.46h5.416v32.353h-5.416c-5.225,0-9.46,4.236-9.46,9.46s4.236,9.46,9.46,9.46h5.416v32.353h-5.416
	c-5.225,0-9.46,4.236-9.46,9.46c0,5.225,4.236,9.46,9.46,9.46h5.416v32.353h-5.416c-5.225,0-9.46,4.236-9.46,9.46
	c0,5.225,4.236,9.46,9.46,9.46h5.416v32.353h-5.416c-5.225,0-9.46,4.236-9.46,9.46s4.236,9.46,9.46,9.46h5.416v32.353h-5.416
	c-5.225,0-9.46,4.236-9.46,9.46c0,5.225,4.236,9.46,9.46,9.46h5.416v32.353h-5.416c-5.225,0-9.46,4.236-9.46,9.46
	c0,5.225,4.236,9.46,9.46,9.46h5.416v32.353h-5.416c-5.225,0-9.46,4.236-9.46,9.46c0,5.225,4.236,9.46,9.46,9.46h5.416v32.353
	h-5.416c-5.225,0-9.46,4.236-9.46,9.46c0,5.225,4.236,9.46,9.46,9.46h5.416v31.983c0,5.225,4.236,9.46,9.46,9.46H417.85
	c21.443,0,38.889-17.446,38.889-38.889V38.889C456.74,17.446,439.294,0,417.85,0z M437.819,473.112
	c0,11.011-8.958,19.969-19.969,19.969H89.055v-22.524h18.169c5.225,0,9.46-4.236,9.46-9.46c0-5.225-4.236-9.46-9.46-9.46H89.055
	v-32.353h18.169c5.225,0,9.46-4.236,9.46-9.46c0-5.225-4.236-9.46-9.46-9.46H89.055v-32.353h18.169c5.225,0,9.46-4.236,9.46-9.46
	s-4.236-9.46-9.46-9.46H89.055v-32.353h18.169c5.225,0,9.46-4.236,9.46-9.46s-4.236-9.46-9.46-9.46H89.055v-32.353h18.169
	c5.225,0,9.46-4.236,9.46-9.46c0-5.225-4.236-9.46-9.46-9.46H89.055v-32.353h18.169c5.225,0,9.46-4.236,9.46-9.46
	c0-5.225-4.236-9.46-9.46-9.46H89.055v-32.353h18.169c5.225,0,9.46-4.236,9.46-9.46c0-5.225-4.236-9.46-9.46-9.46H89.055v-32.356
	h18.169c5.225,0,9.46-4.236,9.46-9.46s-4.236-9.46-9.46-9.46H89.055V60.364h18.169c5.225,0,9.46-4.236,9.46-9.46
	s-4.236-9.46-9.46-9.46H89.055V18.921H417.85c11.011,0,19.969,8.958,19.969,19.969V473.112z"/>
</svg>