<?xml version="1.0" encoding="iso-8859-1"?>
<!-- Uploaded to: SVG Repo, www.svgrepo.com, Generator: SVG Repo Mixer Tools -->
<svg version="1.1" id="Layer_1" xmlns="http://www.w3.org/2000/svg" xmlns:xlink="http://www.w3.org/1999/xlink" 
	 viewBox="0 0 512 512" xml:space="preserve">
<rect y="50.093" style="fill:#995C0D;" width="512" height="411.814"/>
<g>
	<polygon style="fill:#B27214;" points="37.653,99.647 10.105,72.099 10.105,439.901 37.653,412.353 	"/>
	<polygon style="fill:#B27214;" points="462.436,87.743 489.982,60.198 22.018,60.198 49.563,87.743 	"/>
	<polygon style="fill:#B27214;" points="474.351,99.655 474.351,412.345 501.895,439.889 501.895,72.111 	"/>
	<polygon style="fill:#B27214;" points="49.561,424.258 22.018,451.802 489.982,451.802 462.438,424.258 	"/>
</g>
<rect x="47.758" y="97.85" style="fill:#F2F2F2;" width="416.485" height="316.299"/>
<rect x="47.763" y="268.446" style="fill:#CCCCCC;" width="416.485" height="145.715"/>
<g>
	<path style="fill:#6B991C;" d="M394.876,234.666v103.678c0,6.701-5.434,12.124-12.124,12.124h-40.301l-0.155-0.072
		c-30.184-8.97-40.503-31.199-23.614-23.303c12.302-10.607,29.527-69.839,5.029-81.414v-11.013c0-5.805,1.004-11.539,2.926-16.937
		l30.303-12.506l35.009,12.506C393.872,223.127,394.876,228.861,394.876,234.666z"/>
	<path style="fill:#6B991C;" d="M372.17,128.16v68.738h-25.74V128.16c0-4.316,3.499-7.815,7.815-7.815h10.112
		C368.67,120.345,372.17,123.844,372.17,128.16z"/>
</g>
<path style="fill:#E54728;" d="M391.95,217.729h-65.312c1.923-5.399,4.754-10.463,8.433-14.967
	c7.346-9.018,11.359-20.293,11.359-31.915v-2.449h25.74v2.449c0,5.817,1.004,11.539,2.926,16.937
	c1.922,5.398,4.754,10.476,8.421,14.978C387.195,207.266,390.027,212.329,391.95,217.729z"/>
<path style="fill:#F7B239;" d="M364.107,296.98c0,14.238-7.275,27.4-19.577,38.007c-1.72-15.109-57.632,18.048-52.998,23.363
	c-8.397,1.493-17.248,2.282-26.385,2.282c-13.126,0-25.657-1.648-37.124-4.635c-71.189-12.781-69.481-36.156-61.777-61.359v-0.012
	c1.923-34.065,45.473-61.299,98.9-61.299c21.918,0,42.164,4.574,58.563,12.351C348.208,257.253,364.107,275.922,364.107,296.98z"/>
<path style="fill:#995C0D;" d="M228.268,323.787c-1.223,0-2.447-0.466-3.378-1.399c-1.866-1.866-1.866-4.891,0-6.757l9.23-9.229
	c1.866-1.865,4.892-1.866,6.756,0c1.866,1.866,1.866,4.891,0,6.757l-9.23,9.229C230.713,323.32,229.49,323.787,228.268,323.787z"/>
<path style="fill:#F95428;" d="M344.53,334.988c0.131,1.146,0.203,2.305,0.203,3.476c0,4.241-0.872,8.277-2.436,11.933
	c-4.635,10.81-15.384,18.382-27.89,18.382c-9.137,0-17.32-4.038-22.873-10.427c-4.635-5.315-7.442-12.279-7.442-19.888
	c0-16.746,13.569-30.315,30.315-30.315C329.981,308.149,342.81,319.877,344.53,334.988z"/>
<path style="fill:#90BC42;" d="M213.415,309.856c14.022,0,25.382,11.372,25.382,25.394c0,8.576-4.252,16.161-10.774,20.748
	c-4.133,2.926-9.162,4.635-14.609,4.635c-1.386,0-2.747-0.108-4.073-0.335c0.155-1.099-9.006-26.457-21.082-28.404
	C189.896,319.46,200.527,309.856,213.415,309.856z"/>
<path style="fill:#995C0D;" d="M121.772,330.354c-0.267,0-0.538-0.02-0.811-0.062l-16.969-2.566
	c-2.935-0.443-4.955-3.183-4.51-6.118c0.443-2.935,3.177-4.953,6.118-4.511l16.969,2.566c2.935,0.443,4.955,3.183,4.51,6.118
	C126.677,328.445,124.385,330.354,121.772,330.354z"/>
<path style="fill:#F4DE3B;" d="M187.053,326.245c0,1.851-0.144,3.667-0.43,5.434c-0.801-0.083-27.771,27.353-27.627,28.368
	c-2.055,0.382-4.169,0.585-6.33,0.585c-19.003,0-34.4-15.397-34.4-34.389c0-19.003,15.397-34.4,34.4-34.4
	c4.826,0,9.412,0.991,13.581,2.783v0.012C178.49,299.895,187.053,312.066,187.053,326.245z"/>
<path style="fill:#F95428;" d="M209.57,356.941c0,1.135-0.072,2.258-0.227,3.356c-1.636,12.434-12.279,22.038-25.167,22.038
	c-12.96,0-23.662-9.723-25.178-22.288c-0.144-1.015-0.203-2.055-0.203-3.106c0-14.011,11.372-25.382,25.382-25.382
	c0.824,0,1.648,0.036,2.449,0.119c0.549,0.048,1.099,0.119,1.636,0.214C200.336,333.84,209.57,344.316,209.57,356.941z"/>
</svg>