<?xml version="1.0" encoding="iso-8859-1"?>
<!-- Uploaded to: SVG Repo, www.svgrepo.com, Generator: SVG Repo Mixer Tools -->
<svg version="1.1" id="Layer_1" xmlns="http://www.w3.org/2000/svg" xmlns:xlink="http://www.w3.org/1999/xlink" 
	 viewBox="0 0 512 512" xml:space="preserve">
<rect x="110.478" y="13.339" style="fill:#B8E6FF;" width="291.034" height="348.512"/>
<polygon style="fill:#2BA5F7;" points="256.001,279.242 167.478,152.831 201.291,110.865 310.71,110.865 344.522,152.831 "/>
<polygon style="fill:#1788BA;" points="256.004,110.869 283.073,152.837 228.924,152.837 "/>
<polygon style="fill:#2BA5F7;" points="201.292,110.869 228.924,152.837 167.481,152.837 "/>
<g>
	<polygon style="fill:#66C3F7;" points="310.704,110.869 283.073,152.837 256.004,110.869 	"/>
	<polygon style="fill:#66C3F7;" points="344.528,152.837 256.004,279.245 283.073,152.837 	"/>
	<polygon style="fill:#66C3F7;" points="256.004,110.869 228.924,152.837 201.292,110.869 	"/>
</g>
<polygon style="fill:#1788BA;" points="228.924,152.837 256.004,279.245 167.481,152.837 "/>
<rect x="169.765" y="304.365" style="fill:#CCCCCC;" width="172.46" height="57.488"/>
<g>
	<polygon style="fill:#F2F2F2;" points="401.515,128.176 401.515,153.58 261.262,13.339 286.678,13.339 	"/>
	<polygon style="fill:#F2F2F2;" points="401.515,67.847 401.515,93.263 321.603,13.339 346.995,13.339 	"/>
	<polygon style="fill:#F2F2F2;" points="194.166,365.169 171.793,368.211 165.433,361.851 110.481,306.888 110.481,281.484 	"/>
</g>
<rect x="110.49" y="356.034" style="fill:#4D4D4D;" width="291.034" height="133.642"/>
<rect x="190.03" y="398.673" style="fill:#E09B2D;" width="131.941" height="57.488"/>
<rect x="199.612" y="408.255" style="fill:#F7B239;" width="112.777" height="38.325"/>
<path style="fill:#333333;" d="M503.017,498.661H8.983c-4.962,0-8.983-4.022-8.983-8.983c0-4.961,4.021-8.983,8.983-8.983h494.034
	c4.962,0,8.983,4.022,8.983,8.983C512,494.639,507.979,498.661,503.017,498.661z"/>
</svg>