<?xml version="1.0" encoding="iso-8859-1"?>
<!-- Uploaded to: SVG Repo, www.svgrepo.com, Generator: SVG Repo Mixer Tools -->
<svg fill="#000000" height="800px" width="800px" version="1.1" id="Layer_1" xmlns="http://www.w3.org/2000/svg" xmlns:xlink="http://www.w3.org/1999/xlink" 
	 viewBox="0 0 512 512" xml:space="preserve">
<g>
	<g>
		<path d="M503.523,50.424H8.477C3.794,50.424,0,54.22,0,58.901v394.198c0,4.681,3.794,8.477,8.477,8.477h495.047
			c4.682,0,8.477-3.795,8.477-8.477V58.901C512,54.22,508.205,50.424,503.523,50.424z M483.058,67.378l-20.945,20.945H221.228
			c-0.087,0-0.174-0.003-0.261-0.003s-0.174,0.003-0.261,0.003H49.887L28.942,67.378H483.058z M308.864,193.17
			c0,44.752-33.663,82.125-77.537,87.275l-37.918-65.675c-1.514-2.622-4.312-4.238-7.341-4.238s-5.826,1.616-7.341,4.238
			l-22.094,38.268c-15.079-16.176-23.565-37.486-23.565-59.868c0-48.423,39.36-87.823,87.766-87.894h0.261
			C269.504,105.348,308.864,144.747,308.864,193.17z M278.07,105.277h132.221L374.14,211.043l-48.459-23.269
			C323.921,153.246,305.377,123.08,278.07,105.277z M248.365,343.861H123.774l62.296-107.899L248.365,343.861z M117.422,176.645
			l-62.57-49.728v-21.641h109.011C139.535,121.137,122.166,146.814,117.422,176.645z M130.481,246.156l-75.628-30.454v-67.13
			l61.354,48.761C116.893,214.716,121.856,231.445,130.481,246.156z M146.364,270.828l-14.56,25.219H54.852v-62.068L146.364,270.828
			z M122.016,313l-19.102,33.086l-48.062,26.999V313H122.016z M111.31,360.815h151.738c3.029,0,5.826-1.616,7.341-4.238
			c1.515-2.622,1.515-5.855,0-8.477l-29.971-51.912c11.752-2.205,22.791-6.36,32.784-12.121l54.969,44.34l-46.978,46.974
			c-1.59,1.59-2.483,3.746-2.483,5.995c0,2.249,0.893,4.404,2.483,5.994l19.355,19.355H54.852V392.53L111.31,360.815z
			 M299.175,381.375l105.498-105.488l52.475,52.476v78.361H324.522L299.175,381.375z M410.668,257.907
			c-3.31-3.31-8.678-3.31-11.987,0l-58.453,58.444l-52.519-42.362c20.128-16.658,33.881-40.658,37.268-67.749l132.172,63.468v34.68
			L410.668,257.907z M389.53,218.432l38.677-113.156h28.94v145.626L389.53,218.432z M16.953,79.366l20.945,20.945v311.378
			l-20.945,20.946V79.366z M28.942,444.622l20.945-20.945h412.225l20.945,20.945H28.942z M495.047,432.634l-20.945-20.945V100.311
			l20.945-20.945V432.634z"/>
	</g>
</g>
</svg>