<?xml version="1.0" encoding="iso-8859-1"?>
<!-- Uploaded to: SVG Repo, www.svgrepo.com, Generator: SVG Repo Mixer Tools -->
<svg fill="#000000" height="800px" width="800px" version="1.1" id="Layer_1" xmlns="http://www.w3.org/2000/svg" xmlns:xlink="http://www.w3.org/1999/xlink" 
	 viewBox="0 0 512 512" xml:space="preserve">
<g>
	<g>
		<path d="M353.493,494.962h-41.529c-11.41-18.054-7.442-81.08-0.551-122.537l16.661-86.64c5.238-27.235,6.186-55.001,2.818-82.53
			l-8.643-70.675l7.812-24.085c1.441-4.447,1.359-9.314-0.235-13.708l-20.362-56.171c-1.812-4.999-5.409-9.1-10.13-11.549
			l-33.618-17.43c-0.394-0.204-0.794-0.394-1.197-0.572V8.519c0-4.705-3.814-8.519-8.519-8.519c-4.705,0-8.519,3.814-8.519,8.519
			v0.544c-0.404,0.178-0.805,0.368-1.201,0.574l-33.618,17.431c-4.721,2.448-8.318,6.55-10.129,11.547l-20.362,56.172
			c-1.593,4.394-1.677,9.261-0.235,13.709l7.814,24.092l-8.642,70.666c-3.367,27.528-2.418,55.295,2.818,82.53l16.662,86.642
			c6.898,41.452,10.869,104.474-0.551,122.535h-41.53c-4.705,0-8.519,3.814-8.519,8.519s3.814,8.519,8.519,8.519h194.985
			c4.705,0,8.519-3.814,8.519-8.519S358.197,494.962,353.493,494.962z M314.753,258.621h-35.641v-13.762h36.534
			C315.474,249.452,315.18,254.04,314.753,258.621z M277.087,148.756v-12.148h25.455l-4.714,12.148H277.087z M291.218,165.794
			l-3.157,8.135c-0.854,2.201-2.933,3.623-5.294,3.623c-3.13,0-5.678-2.548-5.678-5.678v-6.08H291.218z M277.088,119.569v-12.31
			c0.44-0.341,0.869-0.693,1.289-1.055h34.514l-4.335,13.365H277.088z M289.448,82.118V64.817l6.686-12.98l13.532,37.329h-21.015
			C289.166,86.896,289.448,84.541,289.448,82.118z M264.52,28.21l19.429,10.074l-3.279,6.367c-3.522-2.574-7.847-4.113-12.533-4.113
			h-3.617V28.21z M268.136,57.576c2.356,0,4.273,1.917,4.273,4.273v20.269c0,8.142-6.625,14.767-14.767,14.767h-3.29
			c-8.142,0-14.767-6.624-14.767-14.767V61.849c0-2.356,1.917-4.273,4.273-4.273H268.136z M260.049,113.823v11.037
			c0,2.233-1.816,4.049-4.049,4.049s-4.049-1.816-4.049-4.049v-11.037c0.794,0.059,1.594,0.1,2.402,0.1h3.289
			C258.453,113.923,259.253,113.882,260.049,113.823z M247.481,28.207v12.33h-3.621c-4.687,0-9.011,1.539-12.533,4.113l-3.279-6.367
			L247.481,28.207z M214.172,148.756l-4.714-12.148h25.455v12.148h-0.001H214.172z M234.912,165.795v6.08
			c0,3.131-2.548,5.678-5.678,5.678c-2.325,0-4.453-1.456-5.293-3.624l-3.157-8.135H234.912z M215.863,51.837l6.685,12.98v17.301
			c0,2.423,0.282,4.78,0.797,7.048h-21.014L215.863,51.837z M233.618,106.204c0.423,0.364,0.853,0.717,1.294,1.059v12.306H203.44
			l-4.335-13.365H233.618z M202.771,166.474l5.285,13.619c3.366,8.671,11.876,14.498,21.177,14.498
			c12.525,0,22.717-10.191,22.717-22.717v-26.328c1.312,0.257,2.664,0.4,4.049,0.4c1.386,0,2.737-0.143,4.049-0.4v26.328
			c0,12.525,10.191,22.717,22.717,22.717c9.447,0,17.76-5.691,21.179-14.498l5.285-13.619l4.007,32.766H198.763L202.771,166.474z
			 M232.886,494.959h-14.268c5.099-14.511,6.768-36.635,5.094-66.892c-1.679-30.37-6.146-57.409-6.336-58.545
			c-0.011-0.07-0.024-0.14-0.038-0.209l-16.683-86.748c-0.442-2.298-0.839-4.603-1.217-6.908h33.446V494.959z M232.888,258.621
			h-35.641c-0.427-4.581-0.72-9.169-0.893-13.762h36.534V258.621z M262.074,494.962h-12.148v-33.43h12.148V494.962z
			 M262.074,444.493h-12.148v-25.526h12.148V444.493z M262.074,401.929h-12.148v-25.527h12.148V401.929z M262.074,359.364h-12.148
			v-25.526h12.148V359.364z M262.074,316.8h-12.148v-25.526h12.148V316.8z M262.074,274.236h-12.148v-29.377h12.148V274.236z
			 M241.406,227.82h-45.102c0.12-3.848,0.328-7.696,0.627-11.541h118.136c0.299,3.845,0.507,7.692,0.627,11.541h-45.102H241.406z
			 M294.622,369.525c-0.19,1.136-4.657,28.175-6.336,58.545c-1.672,30.258-0.003,52.381,5.093,66.895h-14.267v-0.002V275.659h33.446
			c-0.377,2.306-0.775,4.609-1.217,6.908l-16.683,86.748C294.646,369.385,294.634,369.454,294.622,369.525z"/>
	</g>
</g>
</svg>