<?xml version="1.0" encoding="iso-8859-1"?>
<!-- Uploaded to: SVG Repo, www.svgrepo.com, Generator: SVG Repo Mixer Tools -->
<svg version="1.1" id="Layer_1" xmlns="http://www.w3.org/2000/svg" xmlns:xlink="http://www.w3.org/1999/xlink" 
	 viewBox="0 0 511.999 511.999" xml:space="preserve">
<path style="fill:#4D4D4D;" d="M333.492,423.956H178.506c-15.034,0-27.22-12.186-27.22-27.22V115.264
	c0-15.034,12.188-27.22,27.22-27.22h154.986c15.034,0,27.22,12.188,27.22,27.22v281.472
	C360.712,411.769,348.526,423.956,333.492,423.956z"/>
<rect x="151.279" y="151.524" style="fill:#808080;" width="209.429" height="211.504"/>
<g>
	<path style="fill:#333333;" d="M333.492,78.889H178.506c-20.058,0-36.375,16.318-36.375,36.375v281.472
		c0,20.058,16.318,36.375,36.375,36.375h154.986c20.058,0,36.375-16.318,36.375-36.375V115.264
		C369.868,95.207,353.55,78.889,333.492,78.889z M178.506,97.198h154.986c9.962,0,18.066,8.105,18.066,18.066v27.111H160.44v-27.111
		C160.44,105.303,168.545,97.198,178.506,97.198z M351.559,160.685v193.191H160.44V160.685H351.559z M333.492,414.802H178.506
		c-9.962,0-18.066-8.105-18.066-18.066v-24.551h191.119v24.551C351.559,406.697,343.454,414.802,333.492,414.802z"/>
	<path style="fill:#333333;" d="M242.636,128.897h26.727c5.056,0,9.154-4.099,9.154-9.154c0-5.056-4.099-9.154-9.154-9.154h-26.727
		c-5.056,0-9.154,4.099-9.154,9.154C233.481,124.798,237.58,128.897,242.636,128.897z"/>
	<circle style="fill:#333333;" cx="255.994" cy="394.666" r="9.154"/>
</g>
<path style="fill:#F95428;" d="M437.018,74.981C388.666,26.628,324.38,0,256,0C187.619,0,123.333,26.628,74.98,74.981
	c-99.814,99.814-99.814,262.223,0,362.037c48.352,48.352,112.639,74.981,181.02,74.981c68.38,0,132.666-26.628,181.019-74.981
	C536.832,337.204,536.832,174.796,437.018,74.981z M424.072,87.928c90.507,90.507,92.607,236.435,6.336,329.535L94.534,81.588
	C138.596,40.721,195.571,18.309,256,18.309C319.489,18.309,379.178,43.033,424.072,87.928z M87.926,424.072
	C-2.581,333.566-4.682,187.638,81.59,94.537l335.875,335.875c-44.063,40.867-101.038,63.279-161.466,63.279
	C192.51,493.691,132.82,468.966,87.926,424.072z"/>
</svg>