<?xml version="1.0" encoding="iso-8859-1"?>
<!-- Uploaded to: SVG Repo, www.svgrepo.com, Generator: SVG Repo Mixer Tools -->
<svg fill="#000000" height="800px" width="800px" version="1.1" id="Layer_1" xmlns="http://www.w3.org/2000/svg" xmlns:xlink="http://www.w3.org/1999/xlink" 
	 viewBox="0 0 511.999 511.999" xml:space="preserve">
<g>
	<g>
		<g>
			<path d="M502.077,61.786h-29.768c-11.185,0-20.822,5.706-25.223,13.892h-133.92c-10.047-14.846-26.707-23.822-45.003-23.822
				h-48.902l-11.499-31.204c-1.895-5.141-7.6-7.773-12.742-5.88c-5.143,1.896-7.774,7.6-5.88,12.742l8.97,24.343h-7.327
				c-8.485,0-16.413,3.351-22.327,9.436c-5.913,6.085-9.035,14.106-8.792,22.587l0.492,17.122c0.106,3.668,0.83,7.163,2.069,10.39
				h-6.884c-15.624,0-28.335,12.711-28.335,28.335v1.442h-3.185c-11.99,0-23.208,5.894-30.011,15.766
				c-6.803,9.871-8.317,22.455-4.049,33.659l21.37,56.096c0.476,1.252,1.041,2.452,1.646,3.627H52.848
				c-5.48,0-9.923,4.443-9.923,9.923v35.72H9.923c-5.48,0-9.923,4.443-9.923,9.923v182.035c0,5.48,4.443,9.923,9.923,9.923h478.263
				c5.481,0,9.923-4.443,9.923-9.923V305.879c0-5.48-4.442-9.923-9.923-9.923h-33.003v-35.72c0-5.48-4.441-9.923-9.923-9.923H385.33
				c0.605-1.175,1.17-2.375,1.646-3.627l21.37-56.096c4.268-11.204,2.755-23.787-4.05-33.659
				c-6.803-9.871-18.021-15.766-30.011-15.766h-13.108v-1.442c0-15.624-12.709-28.335-28.333-28.335h-8.925
				c1.428-5.193,1.269-10.701-0.531-15.866h123.697c4.4,8.184,14.038,13.892,25.223,13.892h29.768c5.481,0,9.923-4.443,9.923-9.923
				V71.709C512,66.229,507.558,61.786,502.077,61.786z M182.687,75.122c2.143-2.206,5.017-3.42,8.093-3.42h77.381
				c13.176,0,25.026,7.319,30.925,19.102l5.18,10.348c1.594,3.183,0.316,5.874-0.306,6.883c-0.624,1.009-2.457,3.355-6.017,3.355
				H191.272c-6.148,0-11.103-4.813-11.279-10.959l-0.492-17.122C179.413,80.234,180.545,77.328,182.687,75.122z M108.687,172.919
				c0-4.444,3.616-8.061,8.061-8.061s8.061,3.616,8.061,8.061s-3.616,8.06-8.061,8.06S108.687,177.363,108.687,172.919z
				 M478.263,315.802v162.193H19.846V315.802h33.002h392.412H478.263z M435.338,270.159v25.797H62.771v-25.797H435.338z
				 M137.924,233.274c0-9.396,7.643-17.04,17.038-17.04c9.395,0,17.038,7.643,17.038,17.04c0,9.395-7.643,17.038-17.038,17.038
				C145.567,250.313,137.924,242.67,137.924,233.274z M232.015,233.274c0-9.396,7.643-17.04,17.038-17.04
				c9.396,0,17.04,7.643,17.04,17.04c0,9.395-7.643,17.038-17.04,17.038C239.66,250.313,232.015,242.67,232.015,233.274z
				 M326.107,233.274c0-9.396,7.643-17.04,17.04-17.04c9.395,0,17.038,7.643,17.038,17.04c0,9.395-7.643,17.038-17.038,17.038
				C333.75,250.313,326.107,242.67,326.107,233.274z M380.562,164.858c4.446,0,8.061,3.616,8.061,8.061
				c0,4.444-3.616,8.06-8.061,8.06c-4.445,0-8.06-3.616-8.06-8.06S376.116,164.858,380.562,164.858z M355.361,161.011
				c-1.716,3.617-2.706,7.645-2.706,11.908c0,15.387,12.519,27.906,27.906,27.906c0.912,0,1.81-0.052,2.699-0.138l-6.577,17.265
				c-5.829-12.709-18.666-21.563-33.538-21.563c-20.338,0-36.886,16.546-36.886,36.886c0,6.144,1.519,11.938,4.188,17.038H281.75
				c2.669-5.1,4.187-10.894,4.187-17.038c0-20.339-16.548-36.886-36.886-36.886c-20.338,0-36.884,16.546-36.884,36.886
				c0,6.144,1.519,11.938,4.187,17.038h-28.697c2.669-5.1,4.188-10.894,4.188-17.038c0-20.339-16.546-36.886-36.884-36.886
				c-14.873,0-27.709,8.854-33.538,21.563l-6.561-17.222c0.626,0.042,1.249,0.095,1.885,0.095c15.387,0,27.907-12.519,27.907-27.906
				c0-4.263-0.99-8.289-2.706-11.908h209.306H355.361z M332.847,131.235c4.678,0.001,8.486,3.809,8.486,8.489v1.442h-194.48v-1.442
				c0-4.681,3.808-8.489,8.489-8.489h35.932h106.672H332.847z M492.154,89.569h-19.845c-4.846,0-7.937-2.606-7.937-3.969
				c0-1.363,3.091-3.969,7.937-3.969h19.845V89.569z"/>
			<path d="M176.178,438.574h145.754c5.481,0,9.923-4.443,9.923-9.923v-63.504c0-5.48-4.443-9.923-9.923-9.923H176.178
				c-5.48,0-9.923,4.443-9.923,9.923v63.504C166.255,434.131,170.698,438.574,176.178,438.574z M186.101,375.07h125.908v43.658
				H186.101V375.07z"/>
		</g>
	</g>
</g>
</svg>