<?xml version="1.0" encoding="iso-8859-1"?>
<!-- Uploaded to: SVG Repo, www.svgrepo.com, Generator: SVG Repo Mixer Tools -->
<svg version="1.1" id="Layer_1" xmlns="http://www.w3.org/2000/svg" xmlns:xlink="http://www.w3.org/1999/xlink" 
	 viewBox="0 0 512 512" xml:space="preserve">
<g>
	<rect x="2.04" y="58.473" style="fill:#CCCCCC;" width="217.553" height="453.524"/>
	<rect x="292.407" y="58.473" style="fill:#CCCCCC;" width="217.553" height="453.524"/>
</g>
<g>
	<polygon style="fill:#808080;" points="76.59,453.883 220.12,512 220.12,453.883 166.095,428.161 	"/>
	<polygon style="fill:#808080;" points="435.397,453.883 291.868,512 291.868,453.883 384.641,434.74 	"/>
</g>
<rect x="76.58" style="fill:#F2F2F2;" width="358.811" height="453.89"/>
<g>
	<path style="fill:#666666;" d="M435.397,385.183v21.928h-62.392c-6.052,0-10.964-4.912-10.964-10.964V295.279H344.09
		c-6.052,0-10.964-4.912-10.964-10.964c0-6.052,4.912-10.964,10.964-10.964h17.952V69.438h-99.947v50.434
		c0,6.052-4.897,10.964-10.964,10.964c-6.052,0-10.964-4.912-10.964-10.964V69.438h-96.701v59.936
		c0,6.052-4.912,10.964-10.964,10.964s-10.964-4.912-10.964-10.964v-15.349H76.586V92.097h44.952V58.474
		c0-6.052,4.912-10.964,10.964-10.964h240.504c6.067,0,10.964,4.912,10.964,10.964v326.709H435.397z"/>
	<path style="fill:#666666;" d="M251.136,356.674c-6.055,0-10.964,4.909-10.964,10.964v17.541h-96.71v-89.899h107.674h29.373
		c6.056,0,10.964-4.909,10.964-10.964c0-6.055-4.907-10.964-10.964-10.964H262.1v-61.395c0-6.055-4.907-10.964-10.964-10.964
		c-6.055,0-10.964,4.909-10.964,10.964v61.395h-96.71v-73.819c0-6.055-4.909-10.964-10.964-10.964
		c-6.055,0-10.964,4.909-10.964,10.964v15.349H76.59v21.928h44.945v159.333c0,6.055,4.909,10.964,10.964,10.964h118.638
		c6.056,0,10.964-4.909,10.964-10.964v-28.505C262.1,361.583,257.191,356.674,251.136,356.674z"/>
	<path style="fill:#666666;" d="M323.343,329.333c-4.283-4.282-11.224-4.282-15.506,0l-25.214,25.214
		c-4.282,4.282-4.282,11.224,0,15.504c4.283,4.282,11.224,4.282,15.506,0l6.496-6.498v36.83c0,6.055,4.907,10.964,10.964,10.964
		c6.056,0,10.964-4.909,10.964-10.964v-36.83l6.496,6.498c2.142,2.14,4.948,3.212,7.754,3.212s5.612-1.07,7.754-3.212
		c4.282-4.282,4.282-11.224,0-15.504L323.343,329.333z"/>
</g>
</svg>