<?xml version="1.0" encoding="iso-8859-1"?>
<!-- Uploaded to: SVG Repo, www.svgrepo.com, Generator: SVG Repo Mixer Tools -->
<svg version="1.1" id="Layer_1" xmlns="http://www.w3.org/2000/svg" xmlns:xlink="http://www.w3.org/1999/xlink" 
	 viewBox="0 0 512 512" xml:space="preserve">
<rect x="50.093" style="fill:#995C0D;" width="411.814" height="512"/>
<g>
	<polygon style="fill:#B27214;" points="412.353,37.653 439.901,10.105 72.099,10.105 99.647,37.653 	"/>
	<polygon style="fill:#B27214;" points="424.256,462.436 451.802,489.982 451.802,22.018 424.256,49.563 	"/>
	<polygon style="fill:#B27214;" points="412.345,474.351 99.655,474.351 72.111,501.895 439.889,501.895 	"/>
	<polygon style="fill:#B27214;" points="87.741,49.561 60.198,22.018 60.198,489.982 87.741,462.438 	"/>
</g>
<rect x="97.85" y="47.756" style="fill:#FFFFFF;" width="316.299" height="416.485"/>
<path style="fill:#E6E6E6;" d="M355.203,138.231v235.537c0,17.886-44.406,32.381-99.198,32.381s-99.209-14.495-99.209-32.381
	V138.231c0-17.886,44.417-32.381,99.209-32.381S355.203,120.345,355.203,138.231z"/>
<path style="fill:#F95428;" d="M355.203,138.231V253.9c0,17.886-44.406,32.381-99.198,32.381s-99.209-14.495-99.209-32.381V138.231
	c0-17.886,44.417-32.381,99.209-32.381S355.203,120.345,355.203,138.231z"/>
<ellipse style="fill:#CCCCCC;" cx="256.006" cy="138.237" rx="99.209" ry="32.38"/>
<path style="fill:#808080;" d="M355.203,138.231c0,4.345-2.627,8.488-7.377,12.283c-14.809-11.8-50.346-20.109-91.821-20.109
	c-41.487,0-77.023,8.309-91.832,20.109c-4.761-3.795-7.377-7.938-7.377-12.283c0-17.886,44.417-32.381,99.209-32.381
	S355.203,120.345,355.203,138.231z"/>
<path style="fill:#F95428;" d="M256.006,338.672c-21.825,0-42.701-2.223-60.371-6.429c-4.524-1.077-7.319-5.617-6.243-10.142
	s5.616-7.319,10.142-6.243c16.413,3.906,35.94,5.972,56.47,5.972c20.531,0,40.059-2.065,56.471-5.972
	c0.639-0.152,1.293-0.229,1.95-0.229c4.651,0,8.428,3.77,8.428,8.421c0,4.079-2.896,7.482-6.746,8.256
	C298.496,336.47,277.72,338.672,256.006,338.672z"/>
<path style="fill:#FFFFFF;" d="M256.006,223.775c-21.825,0-42.701-2.223-60.371-6.429c-4.524-1.077-7.319-5.617-6.243-10.142
	s5.616-7.319,10.142-6.243c16.413,3.906,35.94,5.972,56.47,5.972c20.531,0,40.059-2.065,56.471-5.972
	c0.639-0.152,1.293-0.229,1.95-0.229c4.651,0,8.428,3.77,8.428,8.421c0,4.079-2.896,7.482-6.746,8.256
	C298.496,221.574,277.72,223.775,256.006,223.775z"/>
<path style="fill:#666666;" d="M256.006,372.539c-15.744,0-30.865-1.144-44.942-3.399c-4.592-0.737-7.719-5.055-6.983-9.647
	c0.737-4.592,5.06-7.712,9.647-6.983c13.198,2.115,27.423,3.188,42.277,3.188c14.854,0,29.079-1.072,42.277-3.188
	c4.591-0.73,8.912,2.39,9.647,6.983c0.735,4.592-2.39,8.912-6.983,9.647C286.871,371.395,271.75,372.539,256.006,372.539z"/>
<circle style="fill:#F7B239;" cx="256.006" cy="286.276" r="20.39"/>
</svg>