<?xml version="1.0" encoding="iso-8859-1"?>
<!-- Uploaded to: SVG Repo, www.svgrepo.com, Generator: SVG Repo Mixer Tools -->
<svg fill="#000000" height="800px" width="800px" version="1.1" id="Layer_1" xmlns="http://www.w3.org/2000/svg" xmlns:xlink="http://www.w3.org/1999/xlink" 
	 viewBox="0 0 512 512" xml:space="preserve">
<g>
	<g>
		<g>
			<path d="M321.972,394.18H190.028c-4.962,0-8.983,4.022-8.983,8.983v57.488c0,4.961,4.021,8.983,8.983,8.983h131.944
				c4.962,0,8.983-4.022,8.983-8.983v-57.488C330.955,398.202,326.934,394.18,321.972,394.18z M312.989,451.668H199.011v-39.522
				h113.979V451.668z"/>
			<path d="M503.017,485.19h-92.519V366.348V17.829c0-4.961-4.021-8.983-8.983-8.983h-291.03c-4.962,0-8.983,4.022-8.983,8.983
				v348.518v118.841H8.983c-4.962,0-8.983,4.022-8.983,8.983c0,4.961,4.021,8.983,8.983,8.983h494.034
				c4.962,0,8.983-4.022,8.983-8.983C512,489.21,507.979,485.19,503.017,485.19z M392.532,485.19H119.468V375.331h50.301h172.463
				h50.301V485.19z M178.751,357.365v-39.522h154.497v39.522H178.751z M392.532,357.364h-41.318v-48.505
				c0-4.961-4.021-8.983-8.983-8.983H169.768c-4.962,0-8.983,4.022-8.983,8.983v48.505h-41.318V26.812h273.065V357.364z"/>
			<path d="M179.342,281.879c0.583,4.473,4.396,7.819,8.907,7.819h134.667c4.512,0,8.323-3.345,8.907-7.819L352.1,126.658
				c0.51-3.906-1.582-7.687-5.163-9.329c-3.575-1.642-7.81-0.761-10.438,2.174l-45.546,50.891l-27.526-49.281
				c-1.587-2.842-4.587-4.603-7.843-4.603c-3.255,0-6.256,1.761-7.843,4.603l-27.526,49.281l-45.546-50.891
				c-2.628-2.936-6.861-3.814-10.438-2.174c-3.58,1.642-5.672,5.423-5.163,9.329L179.342,281.879z M315.03,271.733H196.135
				l-1.971-15.094h122.838L315.03,271.733z M215.222,191.758c1.937,2.162,4.791,3.253,7.683,2.938
				c2.884-0.32,5.438-2.013,6.853-4.548l25.824-46.232l25.824,46.232c1.416,2.534,3.968,4.228,6.853,4.548
				c2.885,0.314,5.749-0.775,7.683-2.938l34.582-38.64l-11.176,85.556H191.816l-11.176-85.556L215.222,191.758z"/>
			<circle cx="303.873" cy="217.123" r="8.983"/>
			<circle cx="271.679" cy="217.123" r="8.983"/>
			<circle cx="207.289" cy="217.123" r="8.983"/>
			<circle cx="239.484" cy="217.123" r="8.983"/>
		</g>
	</g>
</g>
</svg>