<?xml version="1.0" encoding="iso-8859-1"?>
<!-- Uploaded to: SVG Repo, www.svgrepo.com, Generator: SVG Repo Mixer Tools -->
<svg version="1.1" id="Layer_1" xmlns="http://www.w3.org/2000/svg" xmlns:xlink="http://www.w3.org/1999/xlink" 
	 viewBox="0 0 512 512" xml:space="preserve">
<path style="fill:#F7B239;" d="M428.974,512H77.739V0h351.235c16.876,0,30.558,13.682,30.558,30.558v450.884
	C459.533,498.319,445.852,512,428.974,512z"/>
<rect x="77.74" style="fill:#E09B2D;" width="50.889" height="512"/>
<g>
	<path style="fill:#995C0D;" d="M305.91,392.235h-74.548c-4.142,0-7.5-3.357-7.5-7.5V357.18
		c-21.493-15.805-34.205-41.53-34.205-69.646c0-29.71,14.411-56.921,37.926-72.225l-6.31-58.664
		c-0.228-2.117,0.455-4.23,1.877-5.814s3.451-2.488,5.58-2.488h79.812c2.129,0,4.157,0.905,5.58,2.488
		c1.422,1.583,2.104,3.697,1.877,5.814l-6.31,58.664c23.515,15.303,37.926,42.515,37.926,72.225
		c0,28.115-12.712,53.841-34.205,69.646v27.556C313.41,388.878,310.053,392.235,305.91,392.235z M238.862,377.235h59.548v-23.968
		c0-2.521,1.266-4.872,3.369-6.26c19.309-12.741,30.836-34.974,30.836-59.474c0-26.068-13.249-49.732-34.576-61.756
		c-2.61-1.472-4.094-4.356-3.773-7.335l5.927-55.099h-63.112l5.926,55.099c0.32,2.979-1.164,5.864-3.773,7.335
		c-21.328,12.024-34.576,35.688-34.576,61.756c0,24.5,11.527,46.732,30.836,59.474c2.104,1.388,3.369,3.739,3.369,6.26
		L238.862,377.235L238.862,377.235z"/>
	<path style="fill:#995C0D;" d="M190.722,291.386l-23.864-39.867c-7.337-12.257-7.484-29.597-0.358-42.168
		c4.97-8.768,12.763-13.796,21.38-13.796h45.927v15H187.88c-4.193,0-7.02,3.88-8.331,6.194c-3.873,6.832-5.055,18.323,0.179,27.066
		l23.864,39.868L190.722,291.386z"/>
	<path style="fill:#995C0D;" d="M346.551,291.387l-12.871-7.705l23.864-39.867c5.234-8.744,4.052-20.235,0.18-27.066
		c-1.312-2.313-4.138-6.194-8.331-6.194h-45.928v-15h45.928c8.617,0,16.409,5.029,21.38,13.796
		c7.126,12.571,6.979,29.911-0.357,42.168L346.551,291.387z"/>
	<rect x="231.36" y="345.77" style="fill:#995C0D;" width="74.55" height="15"/>
	<rect x="235.55" y="211.75" style="fill:#995C0D;" width="66.17" height="15"/>
</g>
<g>
	<path style="fill:#808080;" d="M106.429,52.857H62.29c-5.425,0-9.823-4.398-9.823-9.823s4.398-9.823,9.823-9.823h44.138
		c5.425,0,9.823,4.398,9.823,9.823S111.854,52.857,106.429,52.857z"/>
	<path style="fill:#808080;" d="M106.429,106.099H62.29c-5.425,0-9.823-4.398-9.823-9.823c0-5.425,4.398-9.823,9.823-9.823h44.138
		c5.425,0,9.823,4.398,9.823,9.823C116.252,101.7,111.854,106.099,106.429,106.099z"/>
	<path style="fill:#808080;" d="M106.429,159.341H62.29c-5.425,0-9.823-4.398-9.823-9.823s4.398-9.823,9.823-9.823h44.138
		c5.425,0,9.823,4.398,9.823,9.823C116.252,154.943,111.854,159.341,106.429,159.341z"/>
	<path style="fill:#808080;" d="M106.429,212.582H62.29c-5.425,0-9.823-4.398-9.823-9.823s4.398-9.823,9.823-9.823h44.138
		c5.425,0,9.823,4.398,9.823,9.823S111.854,212.582,106.429,212.582z"/>
	<path style="fill:#808080;" d="M106.429,265.823H62.29c-5.425,0-9.823-4.398-9.823-9.823s4.398-9.823,9.823-9.823h44.138
		c5.425,0,9.823,4.398,9.823,9.823C116.251,261.425,111.854,265.823,106.429,265.823z"/>
	<path style="fill:#808080;" d="M106.429,319.066H62.29c-5.425,0-9.823-4.398-9.823-9.823s4.398-9.823,9.823-9.823h44.138
		c5.425,0,9.823,4.398,9.823,9.823C116.252,314.668,111.854,319.066,106.429,319.066z"/>
	<path style="fill:#808080;" d="M106.429,372.306H62.29c-5.425,0-9.823-4.398-9.823-9.823s4.398-9.823,9.823-9.823h44.138
		c5.425,0,9.823,4.398,9.823,9.823C116.252,367.907,111.854,372.306,106.429,372.306z"/>
	<path style="fill:#808080;" d="M106.429,425.548H62.29c-5.425,0-9.823-4.398-9.823-9.823s4.398-9.823,9.823-9.823h44.138
		c5.425,0,9.823,4.398,9.823,9.823C116.252,421.15,111.854,425.548,106.429,425.548z"/>
	<path style="fill:#808080;" d="M106.429,478.789H62.29c-5.425,0-9.823-4.398-9.823-9.823s4.398-9.823,9.823-9.823h44.138
		c5.425,0,9.823,4.398,9.823,9.823C116.252,474.391,111.854,478.789,106.429,478.789z"/>
</g>
</svg>