<?xml version="1.0" encoding="iso-8859-1"?>
<!-- Uploaded to: SVG Repo, www.svgrepo.com, Generator: SVG Repo Mixer Tools -->
<svg fill="#000000" height="800px" width="800px" version="1.1" id="Layer_1" xmlns="http://www.w3.org/2000/svg" xmlns:xlink="http://www.w3.org/1999/xlink" 
	 viewBox="0 0 511.997 511.997" xml:space="preserve">
<g>
	<g>
		<g>
			<path d="M417.85,0H79.595c-5.225,0-9.46,4.236-9.46,9.46v31.983h-5.416c-5.225,0-9.46,4.236-9.46,9.46
				c0,5.225,4.236,9.46,9.46,9.46h5.416v32.353h-5.416c-5.225,0-9.46,4.236-9.46,9.46s4.236,9.46,9.46,9.46h5.416v32.353h-5.416
				c-5.225,0-9.46,4.236-9.46,9.46s4.236,9.46,9.46,9.46h5.416v32.353h-5.416c-5.225,0-9.46,4.236-9.46,9.46s4.236,9.46,9.46,9.46
				h5.416v32.353h-5.416c-5.225,0-9.46,4.236-9.46,9.46c0,5.225,4.236,9.46,9.46,9.46h5.416v32.353h-5.416
				c-5.225,0-9.46,4.236-9.46,9.46s4.236,9.46,9.46,9.46h5.416v32.353h-5.416c-5.225,0-9.46,4.236-9.46,9.46s4.236,9.46,9.46,9.46
				h5.416v32.353h-5.416c-5.225,0-9.46,4.236-9.46,9.46s4.236,9.46,9.46,9.46h5.416v32.353h-5.416c-5.225,0-9.46,4.236-9.46,9.46
				s4.236,9.46,9.46,9.46h5.416v31.983c0,5.225,4.236,9.46,9.46,9.46H417.85c21.443,0,38.889-17.446,38.889-38.889V38.889
				C456.74,17.446,439.294,0,417.85,0z M437.819,473.112c0,11.011-8.958,19.969-19.969,19.969H89.055v-22.524h18.169
				c5.225,0,9.46-4.236,9.46-9.46s-4.236-9.46-9.46-9.46H89.055v-32.353h18.169c5.225,0,9.46-4.236,9.46-9.46s-4.236-9.46-9.46-9.46
				H89.055v-32.353h18.169c5.225,0,9.46-4.236,9.46-9.46s-4.236-9.46-9.46-9.46H89.055v-32.353h18.169c5.225,0,9.46-4.236,9.46-9.46
				s-4.236-9.46-9.46-9.46H89.055v-32.353h18.169c5.225,0,9.46-4.236,9.46-9.46s-4.236-9.46-9.46-9.46H89.055v-32.353h18.169
				c5.225,0,9.46-4.236,9.46-9.46s-4.236-9.46-9.46-9.46H89.055v-32.353h18.169c5.225,0,9.46-4.236,9.46-9.46s-4.236-9.46-9.46-9.46
				H89.055v-32.356h18.169c5.225,0,9.46-4.236,9.46-9.46s-4.236-9.46-9.46-9.46H89.055V60.364h18.169c5.225,0,9.46-4.236,9.46-9.46
				c0-5.225-4.236-9.46-9.46-9.46H89.055V18.921H417.85c11.011,0,19.969,8.958,19.969,19.969V473.112z"/>
			<path d="M341.209,195.551h-33.698l3.764-34.992c0.288-2.67-0.574-5.336-2.368-7.334c-1.794-1.998-4.353-3.138-7.039-3.138
				h-76.862c-2.685,0-5.244,1.142-7.038,3.138c-1.795,1.997-2.655,4.663-2.368,7.332l3.763,34.993h-33.698
				c-9.127,0-17.343,5.256-22.537,14.421c-7.356,12.977-7.207,30.201,0.371,42.862l21.681,36.218
				c0.771,26.343,12.86,50.331,32.901,65.511v25.415c0,5.225,4.236,9.46,9.46,9.46h71.794c5.225,0,9.46-4.236,9.46-9.46v-25.415
				c20.039-15.179,32.13-39.167,32.899-65.511l21.681-36.218c7.578-12.66,7.727-29.885,0.371-42.862
				C358.55,200.807,350.336,195.551,341.209,195.551z M291.336,169.007l-4.532,42.136h-46.734l-4.532-42.136H291.336z
				 M179.733,243.116c-4.6-7.687-3.555-17.798-0.145-23.814c1.023-1.804,3.172-4.831,6.077-4.831h35.732l0.132,1.23
				c-15.235,10.302-26.46,25.711-32.164,43.507L179.733,243.116z M289.874,370.518h-52.873v-11.384h52.873V370.518z
				 M296.333,340.213h-65.791c-16.621-12.06-26.483-31.965-26.483-53.844c0-23.446,11.476-44.789,30.103-56.305h58.551
				c18.627,11.516,30.103,32.859,30.103,56.305C322.814,308.249,312.953,328.154,296.333,340.213z M347.14,243.116l-9.633,16.093
				c-5.703-17.797-16.929-33.206-32.164-43.507l0.132-1.23h35.732c2.905,0,5.054,3.027,6.077,4.831
				C350.696,225.318,351.742,235.43,347.14,243.116z"/>
		</g>
	</g>
</g>
</svg>