<?xml version="1.0" encoding="iso-8859-1"?>
<!-- Uploaded to: SVG Repo, www.svgrepo.com, Generator: SVG Repo Mixer Tools -->
<svg version="1.1" id="Layer_1" xmlns="http://www.w3.org/2000/svg" xmlns:xlink="http://www.w3.org/1999/xlink" 
	 viewBox="0 0 512 512" xml:space="preserve">
<rect x="110.49" y="17.828" style="fill:#B8E6FF;" width="291.034" height="348.524"/>
<rect x="110.49" y="366.345" style="fill:#4D4D4D;" width="291.034" height="127.821"/>
<rect x="169.765" y="308.855" style="fill:#CCCCCC;" width="172.46" height="57.488"/>
<path style="fill:#808080;" d="M342.232,375.329H169.768c-4.962,0-8.983-4.022-8.983-8.983v-57.488c0-4.961,4.021-8.983,8.983-8.983
	h172.463c4.962,0,8.983,4.022,8.983,8.983v57.488C351.215,371.307,347.194,375.329,342.232,375.329z M178.751,357.364h154.497
	v-39.522H178.751V357.364z"/>
<rect x="190.03" y="403.163" style="fill:#F7B239;" width="131.941" height="57.488"/>
<g>
	
		<rect x="247.558" y="72.616" transform="matrix(-0.7071 -0.7071 0.7071 -0.7071 518.8682 378.1208)" style="fill:#F2F2F2;" width="180.375" height="17.966"/>
	
		<rect x="320.496" y="42.158" transform="matrix(-0.7071 -0.7071 0.7071 -0.7071 591.3843 347.2419)" style="fill:#F2F2F2;" width="94.224" height="17.966"/>
	
		<rect x="97.716" y="324.048" transform="matrix(-0.7071 -0.7071 0.7071 -0.7071 11.7484 670.9286)" style="fill:#F2F2F2;" width="94.224" height="17.966"/>
</g>
<g>
	<path style="fill:#333333;" d="M321.972,394.178H190.028c-4.962,0-8.983,4.022-8.983,8.983v57.488c0,4.961,4.021,8.983,8.983,8.983
		h131.944c4.962,0,8.983-4.022,8.983-8.983v-57.488C330.955,398.2,326.934,394.178,321.972,394.178z M312.989,451.666H199.011
		v-39.522h113.979V451.666z"/>
	<path style="fill:#333333;" d="M503.017,485.188h-92.519V366.347V17.828c0-4.961-4.021-8.983-8.983-8.983h-291.03
		c-4.962,0-8.983,4.022-8.983,8.983v348.52v118.841H8.983c-4.962,0-8.983,4.022-8.983,8.983c0,4.961,4.021,8.983,8.983,8.983
		h494.034c4.962,0,8.983-4.022,8.983-8.983C512,489.211,507.979,485.188,503.017,485.188z M119.468,26.811h273.065v330.554H119.468
		V26.811z M119.468,375.329h273.065v109.858H119.468V375.329z"/>
</g>
<circle style="fill:#CCCCCC;" cx="294.1" cy="148.863" r="52.098"/>
<path style="fill:#B3B3B3;" d="M286.163,185.702c-20.346-20.346-20.346-53.332,0-73.678c6.458-6.458,14.192-10.859,22.389-13.217
	c-17.627-5.071-37.401-0.671-51.289,13.217c-20.346,20.346-20.346,53.332,0,73.678c13.888,13.888,33.663,18.288,51.289,13.217
	C300.355,196.56,292.621,192.16,286.163,185.702z"/>
<path style="fill:#4D4D4D;" d="M165.802,212.469c2.298,0,4.598-0.877,6.353-2.631l60.898-60.899
	c0.016,12.781,4.011,25.553,11.976,36.29l-70.342,70.342c-3.508,3.508-3.508,9.196,0,12.703c1.755,1.753,4.054,2.631,6.353,2.631
	s4.598-0.877,6.353-2.631l70.341-70.341c10.736,7.968,23.511,11.964,36.293,11.981l-60.899,60.899
	c-3.508,3.508-3.508,9.196,0,12.703c1.755,1.755,4.053,2.631,6.353,2.631c2.298,0,4.598-0.877,6.353-2.631l91.463-91.463
	c0.007-0.007,0.014-0.017,0.022-0.024c11.522-11.534,17.868-26.862,17.868-43.167c0-16.315-6.354-31.655-17.892-43.191
	c-23.814-23.815-62.565-23.815-86.382,0l-91.461,91.463c-3.508,3.508-3.508,9.196,0,12.703
	C161.203,211.592,163.503,212.469,165.802,212.469z M324.59,118.375c8.143,8.143,12.628,18.971,12.628,30.487
	c0,11.517-4.484,22.343-12.628,30.488c-0.001,0-0.001,0-0.001,0c-16.81,16.81-44.164,16.811-60.974,0s-16.81-44.164-0.001-60.975
	c8.407-8.406,19.446-12.607,30.488-12.607C305.144,105.768,316.184,109.971,324.59,118.375z"/>
</svg>