<?xml version="1.0" encoding="iso-8859-1"?>
<!-- Uploaded to: SVG Repo, www.svgrepo.com, Generator: SVG Repo Mixer Tools -->
<svg version="1.1" id="Layer_1" xmlns="http://www.w3.org/2000/svg" xmlns:xlink="http://www.w3.org/1999/xlink" 
	 viewBox="0 0 511.999 511.999" xml:space="preserve">
<g>
	<path style="fill:#E6E6E6;" d="M486.11,502.697H369.868v-18.296c0-12.343,10.006-22.35,22.35-22.35h71.541
		c12.343,0,22.35,10.006,22.35,22.35v18.296H486.11z"/>
	<circle style="fill:#E6E6E6;" cx="427.988" cy="48.401" r="39.091"/>
	<path style="fill:#E6E6E6;" d="M142.131,502.697H25.889v-18.296c0-12.343,10.006-22.35,22.35-22.35h71.541
		c12.343,0,22.35,10.006,22.35,22.35v18.296H142.131z"/>
</g>
<g>
	<path style="fill:#CCCCCC;" d="M72.229,462.05H48.239c-12.343,0-22.35,10.006-22.35,22.35v18.296H49.88V484.4
		C49.88,472.056,59.886,462.05,72.229,462.05z"/>
	<path style="fill:#CCCCCC;" d="M416.208,462.05h-23.991c-12.343,0-22.35,10.006-22.35,22.35v18.296h23.991V484.4
		C393.858,472.056,403.865,462.05,416.208,462.05z"/>
</g>
<circle style="fill:#E6E6E6;" cx="84.012" cy="48.401" r="39.091"/>
<g>
	<path style="fill:#B3B3B3;" d="M67.245,48.394c0-17.709,11.779-32.66,27.928-37.465c-3.539-1.053-7.284-1.626-11.164-1.626
		c-21.589,0-39.091,17.502-39.091,39.091c0,21.59,17.502,39.091,39.091,39.091c3.88,0,7.625-0.573,11.164-1.626
		C79.024,81.054,67.245,66.104,67.245,48.394z"/>
	<path style="fill:#B3B3B3;" d="M411.224,48.394c0-17.709,11.779-32.66,27.928-37.465c-3.539-1.053-7.284-1.626-11.164-1.626
		c-21.589,0-39.091,17.502-39.091,39.091c0,21.59,17.502,39.091,39.091,39.091c3.88,0,7.625-0.573,11.164-1.626
		C423.003,81.054,411.224,66.104,411.224,48.394z"/>
</g>
<g>
	<rect x="46.976" y="124.524" style="fill:#F7B239;" width="74.068" height="337.526"/>
	<rect x="390.95" y="124.524" style="fill:#F7B239;" width="74.068" height="337.526"/>
</g>
<g>
	<rect x="390.95" y="124.524" style="fill:#E09B2D;" width="22.58" height="337.526"/>
	<rect x="46.976" y="124.524" style="fill:#E09B2D;" width="22.58" height="337.526"/>
</g>
<path style="fill:#F95428;" d="M390.948,218.559c-77.872,65.394-192.027,65.394-269.899,0l-0.005-46.748
	c74.533,74.533,195.376,74.533,269.91,0"/>
<path style="fill:#333333;" d="M474.326,454.567V133.823h2.527c5.139,0,9.303-4.165,9.303-9.303c0-5.138-4.164-9.303-9.303-9.303
	h-11.83h-27.73V95.883c22.248-4.351,39.091-23.986,39.091-47.489C476.382,21.71,454.673,0,427.989,0
	c-26.686,0-48.396,21.71-48.396,48.394c0,23.503,16.843,43.138,39.093,47.489v19.334h-27.732h-11.83
	c-5.139,0-9.303,4.165-9.303,9.303c0,5.138,4.164,9.303,9.303,9.303h2.527v34.068c-33.962,32.603-78.428,50.517-125.652,50.517
	s-91.689-17.914-125.652-50.517v-34.069h2.528c5.138,0,9.303-4.165,9.303-9.303c0-5.138-4.165-9.303-9.303-9.303h-11.831H93.312
	V95.883c22.248-4.35,39.093-23.986,39.093-47.489C132.405,21.71,110.694,0,84.009,0S35.615,21.71,35.615,48.394
	c0,23.503,16.843,43.138,39.091,47.489v19.334h-27.73H35.145c-5.138,0-9.303,4.165-9.303,9.303c0,5.138,4.165,9.303,9.303,9.303
	h2.528v320.743c-12.273,4.36-21.087,16.084-21.087,29.833v18.296c0,5.138,4.165,9.303,9.303,9.303h116.242
	c5.138,0,9.303-4.165,9.303-9.303V484.4c0-13.749-8.814-25.473-21.087-29.833V237.4c36.628,25.591,80.568,39.508,125.652,39.508
	S345.022,262.99,381.65,237.4v217.167c-12.273,4.36-21.087,16.084-21.087,29.833v18.296c0,5.138,4.164,9.303,9.303,9.303H486.11
	c5.139,0,9.303-4.165,9.303-9.303V484.4C495.413,470.651,486.598,458.927,474.326,454.567z M398.2,48.394
	c0-16.425,13.363-29.788,29.79-29.788s29.788,13.363,29.788,29.788s-13.362,29.79-29.788,29.79
	C411.563,78.184,398.2,64.82,398.2,48.394z M54.221,48.394c0-16.425,13.363-29.788,29.788-29.788s29.79,13.363,29.79,29.788
	s-13.364,29.79-29.79,29.79S54.221,64.82,54.221,48.394z M455.72,133.823v318.924h-55.463V133.823H455.72z M111.741,133.823v318.924
	H56.279V133.823H111.741z M132.828,493.394H35.192v-8.993c0-7.194,5.853-13.048,13.048-13.048h71.541
	c7.194,0,13.048,5.853,13.048,13.048v8.993H132.828z M256,258.302c-45.74,0-90.187-15.648-125.652-44.145v-21.481
	c35.482,28.723,79.363,44.339,125.652,44.339c46.287,0,90.169-15.617,125.652-44.339v21.481
	C346.185,242.654,301.739,258.302,256,258.302z M476.807,493.394H379.17v-8.993c0-7.194,5.853-13.048,13.048-13.048h71.543
	c7.194,0,13.048,5.853,13.048,13.048v8.993H476.807z"/>
</svg>