<?xml version="1.0" encoding="iso-8859-1"?>
<!-- Uploaded to: SVG Repo, www.svgrepo.com, Generator: SVG Repo Mixer Tools -->
<svg height="800px" width="800px" version="1.1" id="Layer_1" xmlns="http://www.w3.org/2000/svg" xmlns:xlink="http://www.w3.org/1999/xlink" 
	 viewBox="0 0 512 512" xml:space="preserve">
<path style="fill:#808080;" d="M256,292.105c-8.24,0-14.92-6.679-14.92-14.92v-35.23c0-15.038-7.845-29.025-20.473-36.505
	c-21.992-13.027-35.049-36.992-34.079-62.543c1.37-36.075,30.702-65.408,66.778-66.778c19.092-0.719,37.171,6.159,50.908,19.384
	c13.742,13.23,21.309,31.017,21.309,50.088c0,8.239-6.68,14.92-14.92,14.92c-8.239,0-14.92-6.68-14.92-14.92
	c0-10.885-4.321-21.039-12.165-28.593c-7.839-7.547-18.152-11.491-29.08-11.061c-20.578,0.782-37.311,17.514-38.092,38.093
	c-0.555,14.602,6.905,28.296,19.468,35.738c21.654,12.826,35.105,36.652,35.105,62.179v35.23
	C270.919,285.426,264.24,292.105,256,292.105z"/>
<path style="fill:#F7B239;" d="M457.178,435.924H54.823c-21.176,0-38.988-13.769-44.322-34.263s3.506-41.2,21.995-51.523
	l216.231-120.729c4.52-2.523,10.026-2.523,14.547,0l216.23,120.729c18.49,10.323,27.329,31.029,21.995,51.523
	C496.166,422.155,478.354,435.924,457.178,435.924z M256,259.525L47.042,376.193c-9.995,5.581-8.393,15.152-7.664,17.954
	c0.728,2.801,3.997,11.939,15.444,11.939h402.355c11.448,0,14.716-9.138,15.444-11.939c0.729-2.801,2.331-12.373-7.664-17.954
	L256,259.525z"/>
<g>
	<path style="fill:#333333;" d="M469.321,368.376L260.365,251.708c-2.712-1.515-6.016-1.515-8.729,0L42.678,368.376
		c-12.398,6.922-14.309,19.016-11.963,28.023c2.343,9.01,9.907,18.638,24.108,18.638h402.355c14.2,0,21.764-9.627,24.108-18.636
		C483.63,387.392,481.719,375.298,469.321,368.376z M256,269.777l5.971,3.334v4.075c0,3.291-2.677,5.968-5.968,5.968
		s-5.968-2.677-5.968-5.968v-4.078L256,269.777z M463.958,391.893c-1.363,5.241-5.441,5.241-6.781,5.241H54.823
		c-1.34,0-5.418,0-6.781-5.242c-1.364-5.242,2.195-7.229,3.365-7.882l181.4-101.282c2.508,10.495,11.944,18.331,23.196,18.331
		c11.252,0,20.686-7.835,23.195-18.327l181.395,101.278C461.762,384.661,465.323,386.65,463.958,391.893z"/>
	<path style="fill:#333333;" d="M483.867,342.323l-205.25-114.599c-4.107-23.176-18.152-43.74-38.234-55.647
		c-9.738-5.771-15.522-16.384-15.098-27.692c0.61-15.931,13.566-28.887,29.505-29.497c8.43-0.333,16.427,2.712,22.512,8.566
		c6.075,5.853,9.422,13.72,9.422,22.152c0,13.163,10.709,23.871,23.871,23.871s23.871-10.709,23.871-23.871
		c0-21.533-8.541-41.614-24.049-56.544c-15.496-14.917-35.903-22.686-57.454-21.881c-40.724,1.55-73.837,34.664-75.386,75.387
		c-1.091,28.827,13.645,55.874,38.455,70.581c6.335,3.757,11.166,9.612,13.818,16.544L28.132,342.323
		C6.028,354.664-4.539,379.417,1.838,403.916c6.376,24.499,27.669,40.96,52.985,40.96h402.355c25.316,0,46.609-16.461,52.985-40.96
		C516.539,379.417,505.971,354.664,483.867,342.323z M195.471,143.249c1.195-31.426,26.749-56.979,58.17-58.176
		c16.647-0.609,32.401,5.373,44.362,16.888c11.97,11.523,18.562,27.024,18.562,43.645c0,3.291-2.677,5.968-5.968,5.968
		s-5.968-2.677-5.968-5.968c0-13.339-5.293-25.786-14.909-35.05c-9.635-9.268-22.288-14.078-35.625-13.558
		c-25.221,0.966-45.735,21.48-46.701,46.708c-0.672,17.879,8.471,34.652,23.858,43.772c11.982,7.104,21.18,18.208,26.266,31.158
		c-4.066-0.255-8.187,0.519-11.915,2.316c-4.244-9.648-11.333-17.801-20.439-23.201
		C206.008,186.393,194.629,165.509,195.471,143.249z M492.836,399.407c-4.291,16.488-18.621,27.566-35.658,27.566H54.823
		c-17.037,0-31.367-11.078-35.658-27.566c-4.291-16.488,2.82-33.147,17.696-41.452l216.23-120.728
		c0.898-0.501,1.904-0.752,2.91-0.752s2.012,0.251,2.91,0.751l216.23,120.729C490.015,366.261,497.127,382.919,492.836,399.407z"/>
</g>
</svg>