<?xml version="1.0" encoding="iso-8859-1"?>
<!-- Uploaded to: SVG Repo, www.svgrepo.com, Generator: SVG Repo Mixer Tools -->
<svg fill="#000000" height="800px" width="800px" version="1.1" id="Layer_1" xmlns="http://www.w3.org/2000/svg" xmlns:xlink="http://www.w3.org/1999/xlink" 
	 viewBox="0 0 512 512" xml:space="preserve">
<g>
	<g>
		<g>
			<path d="M321.972,394.18H190.028c-4.961,0-8.983,4.022-8.983,8.983v57.488c0,4.961,4.022,8.983,8.983,8.983h131.944
				c4.962,0,8.983-4.022,8.983-8.983v-57.488C330.955,398.202,326.933,394.18,321.972,394.18z M312.989,451.667H199.011v-39.522
				h113.979V451.667z"/>
			<path d="M503.017,485.19h-92.519V366.348V17.829c0-4.961-4.021-8.983-8.983-8.983h-291.03c-4.961,0-8.983,4.022-8.983,8.983
				v348.518v118.841H8.983c-4.961,0-8.983,4.022-8.983,8.983c0,4.961,4.022,8.983,8.983,8.983h494.034
				c4.962,0,8.983-4.022,8.983-8.983C512,489.21,507.979,485.19,503.017,485.19z M119.468,26.812h273.065v330.553h-41.318v-48.505
				c0-4.961-4.021-8.983-8.983-8.983H169.768c-4.961,0-8.983,4.022-8.983,8.983v48.505h-41.318V26.812z M333.249,317.843v39.522
				H178.751v-39.522H333.249z M392.533,485.19H119.468V375.331h50.302h172.463h50.301V485.19z"/>
			<path d="M177.249,289.26h157.5c4.962,0,8.983-4.022,8.983-8.983v-120.97c0-4.961-4.021-8.983-8.983-8.983h-35.033V81.455
				c0-4.961-4.021-8.983-8.983-8.983h-69.468c-4.961,0-8.983,4.022-8.983,8.983v68.869h-35.033c-4.961,0-8.983,4.022-8.983,8.983
				v120.97C168.266,285.238,172.288,289.26,177.249,289.26z M230.25,90.438h51.502v16.754H230.25V90.438z M230.25,125.158h51.502
				v25.167H230.25V125.158z M186.232,168.29h35.033h69.468h35.033v103.004H186.232V168.29z"/>
			<path d="M256.001,182.143c-20.111,0-36.472,16.361-36.472,36.471c0,20.11,16.361,36.472,36.472,36.472
				c20.11,0,36.471-16.361,36.471-36.472S276.11,182.143,256.001,182.143z M256.001,237.119c-10.205,0-18.506-8.301-18.506-18.506
				c0-10.203,8.301-18.505,18.506-18.505s18.505,8.301,18.505,18.505C274.505,228.818,266.204,237.119,256.001,237.119z"/>
			<path d="M312.346,175.476H294.38c-4.962,0-8.983,4.022-8.983,8.983c0,4.961,4.021,8.983,8.983,8.983h17.966
				c4.962,0,8.983-4.022,8.983-8.983C321.329,179.498,317.307,175.476,312.346,175.476z"/>
			<circle cx="214.679" cy="256.923" r="8.983"/>
		</g>
	</g>
</g>
</svg>