<?xml version="1.0" encoding="iso-8859-1"?>
<!-- Uploaded to: SVG Repo, www.svgrepo.com, Generator: SVG Repo Mixer Tools -->
<svg fill="#000000" height="800px" width="800px" version="1.1" id="Layer_1" xmlns="http://www.w3.org/2000/svg" xmlns:xlink="http://www.w3.org/1999/xlink" 
	 viewBox="0 0 512 512" xml:space="preserve">
<g>
	<g>
		<g>
			<path d="M321.972,394.18H190.028c-4.962,0-8.983,4.022-8.983,8.983v57.488c0,4.961,4.021,8.983,8.983,8.983h131.944
				c4.962,0,8.983-4.022,8.983-8.983v-57.488C330.955,398.202,326.934,394.18,321.972,394.18z M312.989,451.668H199.011v-39.522
				h113.979V451.668z"/>
			<path d="M503.017,485.19h-92.519V366.348V17.829c0-4.961-4.021-8.983-8.983-8.983h-291.03c-4.962,0-8.983,4.022-8.983,8.983
				v348.518v118.841H8.983c-4.962,0-8.983,4.022-8.983,8.983c0,4.961,4.021,8.983,8.983,8.983h494.034
				c4.962,0,8.983-4.022,8.983-8.983C512,489.21,507.979,485.19,503.017,485.19z M392.532,485.19H119.468V375.331h50.301h172.463
				h50.301V485.19z M178.751,357.365v-39.522h154.497v39.522H178.751z M392.532,357.364h-41.318v-48.505
				c0-4.961-4.021-8.983-8.983-8.983H169.768c-4.962,0-8.983,4.022-8.983,8.983v48.505h-41.318V26.812h273.065V357.364z"/>
			<path d="M165.802,212.47c2.298,0,4.598-0.877,6.353-2.631l60.898-60.899c0.016,12.781,4.011,25.553,11.976,36.29l-70.342,70.342
				c-3.508,3.508-3.508,9.196,0,12.703c1.755,1.753,4.054,2.631,6.353,2.631c2.298,0,4.598-0.877,6.353-2.631l70.341-70.341
				c10.736,7.968,23.511,11.964,36.293,11.981l-60.899,60.899c-3.508,3.508-3.508,9.196,0,12.703
				c1.755,1.755,4.053,2.631,6.353,2.631c2.298,0,4.598-0.877,6.353-2.631l91.463-91.463c0.007-0.007,0.014-0.017,0.022-0.024
				c11.522-11.534,17.868-26.862,17.868-43.167c0-16.315-6.354-31.655-17.891-43.191c-23.814-23.815-62.565-23.815-86.382,0
				l-91.461,91.463c-3.508,3.508-3.508,9.196,0,12.703C161.203,211.593,163.503,212.47,165.802,212.47z M263.615,118.377
				c8.407-8.406,19.446-12.607,30.488-12.607c11.042,0,22.081,4.202,30.488,12.607c8.143,8.143,12.628,18.971,12.628,30.487
				c0,11.517-4.484,22.343-12.628,30.488c-0.001,0-0.001,0-0.001,0c-16.81,16.81-44.164,16.811-60.974,0
				C246.806,162.541,246.806,135.188,263.615,118.377z"/>
		</g>
	</g>
</g>
</svg>