<?xml version="1.0" encoding="iso-8859-1"?>
<!-- Uploaded to: SVG Repo, www.svgrepo.com, Generator: SVG Repo Mixer Tools -->
<svg fill="#000000" height="800px" width="800px" version="1.1" id="Layer_1" xmlns="http://www.w3.org/2000/svg" xmlns:xlink="http://www.w3.org/1999/xlink" 
	 viewBox="0 0 512.001 512.001" xml:space="preserve">
<g>
	<g>
		<g>
			<path d="M498.648,296.23h-5.507v-6.428c0-8.664-2.976-16.642-7.948-22.983c17.145-19.107,26.808-44.048,26.808-69.934
				c0-57.724-46.961-104.684-104.684-104.684c-12.567,0-24.768,2.186-36.381,6.506c-24.165-40.368-67.413-65.082-114.929-65.082
				c-47.524,0-90.777,24.715-114.942,65.082c-11.613-4.321-23.813-6.506-36.381-6.506C46.962,92.202,0,139.163,0,196.886
				c0,25.886,9.663,50.828,26.808,69.935c-4.972,6.341-7.948,14.319-7.948,22.982v6.428h-5.508c-5.373,0-9.729,4.356-9.729,9.729
				v40.689c0,5.373,4.356,9.729,9.729,9.729h24.888l-1.599,3.633c-4.25,9.633-6.404,19.718-6.404,29.972
				c0,23.849,12.045,47.049,33.044,63.651c0.832,0.658,1.328,1.387,1.328,1.951c0,0.423-0.01,0.502-0.397,0.838
				c-1.302,1.13-3.715,1.841-5.967,2.212h-6.762c-4.862,0-8.978,3.589-9.638,8.406c-0.662,4.817,2.335,9.383,7.017,10.693
				c1.395,0.39,3.497,0.643,5.998,0.643c1.462,0,3.06-0.087,4.731-0.284h21.846c12.468,0,22.568-4.871,27.709-13.365
				c6.279-10.373,4.84-24.459-4.272-41.87c-10.06-19.22,4.501-51.507,13.298-66.48H393.84c8.812,14.949,23.386,47.186,13.289,66.48
				c-9.113,17.411-10.552,31.499-4.273,41.872c5.141,8.493,15.24,13.364,27.707,13.364h21.846c1.671,0.197,3.27,0.284,4.731,0.284
				c2.502,0,4.605-0.254,5.998-0.643c4.682-1.31,7.68-5.875,7.018-10.693c-0.662-4.817-4.778-8.406-9.64-8.406h-6.762
				c-2.252-0.37-4.666-1.081-5.97-2.212c-0.385-0.335-0.397-0.414-0.397-0.837c0-0.564,0.497-1.293,1.328-1.951
				c20.999-16.601,33.044-39.801,33.044-63.651c0-10.256-2.153-20.339-6.4-29.964l-1.603-3.643h24.888
				c5.374,0,9.729-4.356,9.729-9.729v-40.689C508.377,300.586,504.022,296.23,498.648,296.23z M19.458,196.886
				c0-46.994,38.233-85.226,85.226-85.226c12.744,0,25.018,2.757,36.479,8.193c4.752,2.253,10.434,0.323,12.831-4.357
				C173.7,76.998,212.79,53.084,256.006,53.084c43.21,0,82.293,23.916,102,62.412c2.397,4.683,8.083,6.611,12.83,4.357
				c11.462-5.437,23.735-8.193,36.479-8.193c46.994,0,85.226,38.232,85.226,85.226c0,21.661-8.331,42.496-23.028,58.209
				c-4.243-1.68-8.861-2.614-13.695-2.614h-4.391l3.225-2.668c0.11-0.091,0.218-0.184,0.324-0.28
				c14.848-13.431,23.366-32.62,23.366-52.645c0-39.157-31.857-71.012-71.012-71.012c-10.624,0-20.852,2.296-30.394,6.825
				l-20.98,9.948l-10.584-20.679c-17.271-33.723-51.514-54.671-89.366-54.671c-37.85,0-72.093,20.949-89.366,54.673l-10.583,20.676
				l-20.979-9.948c-9.542-4.529-19.77-6.825-30.395-6.825c-39.157,0-71.012,31.856-71.012,71.012
				c0,20.014,8.515,39.201,23.363,52.644c0.108,0.097,0.217,0.191,0.327,0.283l3.225,2.668h-4.404
				c-4.835,0-9.452,0.934-13.696,2.615C27.79,239.382,19.458,218.547,19.458,196.886z M228.408,252.481H91.109l-21.168-17.516
				c-10.686-9.754-16.811-23.62-16.811-38.079c0-28.427,23.127-51.554,51.554-51.554c7.717,0,15.136,1.664,22.055,4.948
				l29.51,13.994c4.75,2.249,10.432,0.323,12.83-4.359l14.882-29.077c13.927-27.191,41.533-44.082,72.046-44.082
				c30.512,0,58.119,16.891,72.044,44.08l14.886,29.08c2.397,4.682,8.078,6.609,12.83,4.359l29.512-13.996
				c6.915-3.282,14.336-4.946,22.053-4.946c28.427,0,51.554,23.127,51.554,51.554c0,14.469-6.123,28.335-16.808,38.077
				l-21.172,17.518H283.595c-10.921,0-20.762,4.715-27.593,12.217C249.169,257.197,239.329,252.481,228.408,252.481z
				 M246.272,289.802v6.428H38.319v-6.428c0-9.85,8.013-17.864,17.864-17.864h172.225
				C238.258,271.938,246.272,279.951,246.272,289.802z M265.729,289.802c0-9.85,8.014-17.864,17.864-17.864h172.224
				c9.851,0,17.864,8.013,17.864,17.864v6.428H265.729V289.802z M87.634,431.88c5.415,10.347,7.235,18.859,4.865,22.771
				c-1.274,2.105-4.421,3.495-8.632,3.876c0.134-0.961,0.201-1.943,0.201-2.942c0-6.56-3.178-12.835-8.719-17.215
				c-16.543-13.077-25.654-30.262-25.654-48.386c0-7.534,1.597-14.975,4.753-22.127l5.053-11.48h36.617
				C86.9,374.899,74.807,407.372,87.634,431.88z M436.651,438.369c-5.54,4.381-8.72,10.655-8.72,17.215
				c0,0.999,0.067,1.981,0.201,2.942c-4.209-0.381-7.357-1.771-8.63-3.876c-2.369-3.914-0.55-12.426,4.865-22.771
				c12.828-24.507,0.735-56.98-8.483-75.503H452.5l5.055,11.488c3.151,7.143,4.748,14.585,4.748,22.119
				C462.303,408.108,453.193,425.292,436.651,438.369z M488.919,336.919H23.081v-21.23h465.837V336.919z"/>
			<circle cx="102.452" cy="194.869" r="9.729"/>
			<circle cx="409.935" cy="194.869" r="9.729"/>
			<circle cx="256.007" cy="136.948" r="9.729"/>
		</g>
	</g>
</g>
</svg>