<?xml version="1.0" encoding="iso-8859-1"?>
<!-- Uploaded to: SVG Repo, www.svgrepo.com, Generator: SVG Repo Mixer Tools -->
<svg version="1.1" id="Layer_1" xmlns="http://www.w3.org/2000/svg" xmlns:xlink="http://www.w3.org/1999/xlink" 
	 viewBox="0 0 512 512" xml:space="preserve">
<rect x="261.512" y="66.711" style="fill:#688C1B;" width="203.433" height="20.757"/>
<path style="fill:#B27214;" d="M211.713,60.473c-2.253,0-4.37-1.385-5.195-3.623l-14.53-39.427c-1.057-2.869,0.411-6.051,3.28-7.109
	c2.871-1.059,6.051,0.411,7.109,3.28l14.53,39.427c1.057,2.869-0.411,6.051-3.28,7.109
	C212.995,60.363,212.348,60.473,211.713,60.473z"/>
<path style="fill:#75A324;" d="M270.095,52.169h-80.935c-12.5,0-22.53,10.323-22.171,22.818l0.515,17.908
	c0.345,11.996,10.17,21.543,22.171,21.543h111.568c13.218,0,21.812-13.913,15.894-25.733l-5.419-10.824
	C303.833,62.121,287.72,52.169,270.095,52.169z"/>
<g>
	<path style="fill:#688C1B;" d="M196.566,92.893l-0.515-17.908c-0.358-12.494,9.671-22.818,22.171-22.818h-29.06
		c-12.5,0-22.53,10.323-22.171,22.818l0.515,17.908c0.345,11.996,10.17,21.543,22.171,21.543h29.06
		C206.735,114.436,196.91,104.889,196.566,92.893z"/>
	<path style="fill:#688C1B;" d="M500.912,62.556h-31.134c-10.316,0-18.68,6.505-18.68,14.529l0,0c0,8.025,8.364,14.529,18.68,14.529
		h31.134V62.556z"/>
	<path style="fill:#688C1B;" d="M503.697,57.362L503.697,57.362c-4.586,0-8.303,3.717-8.303,8.303v22.84
		c0,4.586,3.717,8.303,8.303,8.303l0,0c4.586,0,8.303-3.717,8.303-8.303v-22.84C512,61.079,508.282,57.362,503.697,57.362z"/>
</g>
<g>
	<path style="fill:#75A324;" d="M381.092,144.196H119.129c-19.431,0-32.843,19.46-25.926,37.619l22.351,58.672
		c4.097,10.758,14.414,17.866,25.926,17.866h217.259c11.512,0,21.827-7.109,25.926-17.866l22.351-58.672
		C413.934,163.657,400.523,144.196,381.092,144.196z"/>
	<path style="fill:#75A324;" d="M357.004,144.196H132.838v-11.887c0-10.635,8.621-19.257,19.257-19.257h185.653
		c10.635,0,19.257,8.621,19.257,19.257v11.887H357.004z"/>
</g>
<g>
	<path style="fill:#688C1B;" d="M152.096,113.052c-10.635,0-19.257,8.621-19.257,19.257v11.887h51.201v-11.887
		c0-10.635,8.621-19.257,19.257-19.257H152.096z"/>
	<path style="fill:#688C1B;" d="M151.698,265.274c-19.365,0-35.118-15.755-35.118-35.12s15.755-35.118,35.118-35.118
		s35.118,15.755,35.118,35.118C186.818,249.519,171.063,265.274,151.698,265.274z M151.698,208.873
		c-11.733,0-21.28,9.547-21.28,21.28c0,11.735,9.547,21.282,21.28,21.282c11.733,0,21.28-9.547,21.28-21.282
		C172.98,218.42,163.433,208.873,151.698,208.873z"/>
	<path style="fill:#688C1B;" d="M250.111,265.274c-19.365,0-35.118-15.755-35.118-35.12s15.755-35.118,35.118-35.118
		c19.365,0,35.12,15.755,35.12,35.118C285.23,249.519,269.475,265.274,250.111,265.274z M250.111,208.873
		c-11.733,0-21.28,9.547-21.28,21.28c0,11.735,9.547,21.282,21.28,21.282c11.733,0,21.282-9.547,21.282-21.282
		C271.392,218.42,261.844,208.873,250.111,208.873z"/>
	<path style="fill:#688C1B;" d="M348.523,265.274c-19.365,0-35.12-15.755-35.12-35.12s15.755-35.118,35.12-35.118
		c19.364,0,35.118,15.755,35.118,35.118C383.641,249.519,367.886,265.274,348.523,265.274z M348.523,208.873
		c-11.733,0-21.282,9.547-21.282,21.28c0,11.735,9.547,21.282,21.282,21.282s21.28-9.547,21.28-21.282
		C369.803,218.42,360.257,208.873,348.523,208.873z"/>
	<path style="fill:#688C1B;" d="M111.73,192.755c-14.187,0-25.729-11.542-25.729-25.729s11.542-25.728,25.729-25.728
		s25.729,11.541,25.729,25.728S125.917,192.755,111.73,192.755z M111.73,155.137c-6.556,0-11.891,5.333-11.891,11.89
		s5.333,11.891,11.891,11.891s11.891-5.333,11.891-11.891C123.621,160.471,118.286,155.137,111.73,155.137z"/>
	<path style="fill:#688C1B;" d="M387.655,192.755c-14.187,0-25.728-11.542-25.728-25.729s11.541-25.728,25.728-25.728
		c14.187,0,25.729,11.541,25.729,25.728S401.842,192.755,387.655,192.755z M387.655,155.137c-6.555,0-11.89,5.333-11.89,11.89
		s5.333,11.891,11.89,11.891c6.556,0,11.891-5.333,11.891-11.891C399.546,160.471,394.213,155.137,387.655,155.137z"/>
	<path style="fill:#688C1B;" d="M358.741,265.274H141.48c-14.288,0-27.304-8.97-32.391-22.322l-22.351-58.673
		c-4.059-10.654-2.62-22.62,3.85-32.007c6.469-9.388,17.138-14.992,28.541-14.992h261.963c11.401,0,22.07,5.604,28.541,14.992
		c6.469,9.388,7.908,21.354,3.85,32.009l-22.351,58.672C386.045,256.303,373.028,265.274,358.741,265.274z M119.129,151.115
		c-6.951,0-13.202,3.284-17.147,9.007c-3.945,5.725-4.788,12.734-2.312,19.229l22.351,58.673c3.055,8.021,10.875,13.41,19.46,13.41
		h217.259c8.584,0,16.404-5.39,19.459-13.41l22.351-58.673c2.476-6.497,1.633-13.506-2.312-19.229s-10.194-9.007-17.147-9.007
		L119.129,151.115L119.129,151.115z"/>
</g>
<rect x="44.896" y="263.89" style="fill:#CCCCCC;" width="410.423" height="63.287"/>
<rect y="311.631" style="fill:#B3B3B3;" width="500.218" height="190.398"/>
<rect x="173.889" y="373.612" style="fill:#E09B2D;" width="152.44" height="66.42"/>
<rect x="184.96" y="384.682" style="fill:#F7B239;" width="130.299" height="44.279"/>
</svg>