<?xml version="1.0" encoding="iso-8859-1"?>
<!-- Uploaded to: SVG Repo, www.svgrepo.com, Generator: SVG Repo Mixer Tools -->
<svg version="1.1" id="Layer_1" xmlns="http://www.w3.org/2000/svg" xmlns:xlink="http://www.w3.org/1999/xlink" 
	 viewBox="0 0 512 512" xml:space="preserve">
<rect x="110.478" y="13.339" style="fill:#B8E6FF;" width="291.034" height="348.512"/>
<rect x="169.765" y="304.365" style="fill:#CCCCCC;" width="172.46" height="57.488"/>
<g>
	<polygon style="fill:#F2F2F2;" points="401.515,128.176 401.515,153.58 261.262,13.339 286.678,13.339 	"/>
	<polygon style="fill:#F2F2F2;" points="401.515,67.847 401.515,93.263 321.603,13.339 346.995,13.339 	"/>
	<polygon style="fill:#F2F2F2;" points="191.471,362.474 171.793,368.211 165.433,361.851 110.481,306.888 110.481,281.484 	"/>
</g>
<rect x="110.49" y="356.034" style="fill:#4D4D4D;" width="291.034" height="133.642"/>
<rect x="190.03" y="398.673" style="fill:#E09B2D;" width="131.941" height="57.488"/>
<rect x="199.612" y="408.255" style="fill:#F7B239;" width="112.777" height="38.325"/>
<path style="fill:#333333;" d="M503.017,498.661H8.983c-4.962,0-8.983-4.022-8.983-8.983c0-4.961,4.021-8.983,8.983-8.983h494.034
	c4.962,0,8.983,4.022,8.983,8.983C512,494.639,507.979,498.661,503.017,498.661z"/>
<rect x="221.267" y="79.956" style="fill:#F7B239;" width="69.468" height="34.719"/>
<g>
	<path style="fill:#666666;" d="M290.734,73.968h-69.468c-3.307,0-5.989,2.682-5.989,5.989v77.852h11.977v-37.144h57.491v37.144
		h11.977V79.956C296.723,76.649,294.043,73.968,290.734,73.968z M227.255,108.687V85.945h57.491v22.742H227.255z"/>
	<path style="fill:#666666;" d="M326.064,154.814H185.938c-4.798,0-8.687,3.889-8.687,8.687v103.594
		c0,4.798,3.889,8.687,8.687,8.687h140.126c4.798,0,8.687-3.889,8.687-8.687V163.501
		C334.751,158.704,330.862,154.814,326.064,154.814z"/>
</g>
<circle style="fill:#F7B239;" cx="256.001" cy="214.116" r="27.489"/>
<path style="fill:#4D4D4D;" d="M256.001,250.592c-20.111,0-36.472-16.361-36.472-36.472s16.361-36.471,36.472-36.471
	c20.11,0,36.471,16.361,36.471,36.471S276.11,250.592,256.001,250.592z M256.001,195.615c-10.205,0-18.506,8.301-18.506,18.505
	c0,10.205,8.301,18.506,18.506,18.506c10.205,0,18.505-8.301,18.505-18.506C274.505,203.917,266.205,195.615,256.001,195.615z"/>
<rect x="294.376" y="170.986" style="fill:#FFFFFF;" width="26.949" height="17.966"/>
<circle style="fill:#F7B239;" cx="212.931" cy="249.437" r="8.983"/>
</svg>