<?xml version="1.0" encoding="iso-8859-1"?>
<!-- Uploaded to: SVG Repo, www.svgrepo.com, Generator: SVG Repo Mixer Tools -->
<svg fill="#000000" height="800px" width="800px" version="1.1" id="Layer_1" xmlns="http://www.w3.org/2000/svg" xmlns:xlink="http://www.w3.org/1999/xlink" 
	 viewBox="0 0 512 512" xml:space="preserve">
<g>
	<g>
		<g>
			<path d="M321.972,394.178H190.028c-4.962,0-8.983,4.022-8.983,8.983v57.488c0,4.961,4.021,8.983,8.983,8.983h131.944
				c4.962,0,8.983-4.022,8.983-8.983v-57.488C330.955,398.2,326.934,394.178,321.972,394.178z M312.989,451.666H199.011v-39.522
				h113.979V451.666z"/>
			<path d="M503.017,485.188h-92.519V366.347V17.828c0-4.961-4.021-8.983-8.983-8.983h-291.03c-4.962,0-8.983,4.022-8.983,8.983
				v348.52v118.841H8.983c-4.962,0-8.983,4.022-8.983,8.983c0,4.961,4.021,8.983,8.983,8.983h494.034
				c4.962,0,8.983-4.022,8.983-8.983C512,489.211,507.979,485.188,503.017,485.188z M392.532,485.188H119.468V375.329h50.301
				h172.463h50.301V485.188z M178.751,357.364v-39.522h154.497v39.522H178.751z M392.532,357.365h-41.318V308.86
				c0-4.961-4.021-8.983-8.983-8.983H169.768c-4.962,0-8.983,4.022-8.983,8.983v48.505h-41.318V26.811h273.065V357.365z"/>
			<path d="M164.207,284.308h183.586c4.962,0,8.983-4.022,8.983-8.983v-30.973V124.423c0-4.961-4.021-8.983-8.983-8.983h-65.689
				c-10.357,0-19.676,4.513-26.104,11.673c-6.428-7.16-15.748-11.673-26.106-11.673h-65.688c-4.962,0-8.983,4.022-8.983,8.983
				v119.929v30.973C155.224,280.286,159.245,284.308,164.207,284.308z M338.811,266.342h-73.306c1.85-7.457,8.58-13.007,16.6-13.007
				h56.706V266.342z M264.984,150.526c0-9.439,7.681-17.121,17.121-17.121h56.706v101.963h-56.706
				c-6.213,0-12.054,1.623-17.121,4.467V150.526z M173.19,133.404h56.706c9.442,0,17.123,7.681,17.123,17.123v89.309
				c-5.068-2.846-10.908-4.469-17.123-4.469H173.19V133.404z M173.19,253.335h56.706c8.021,0,14.751,5.551,16.602,13.007H173.19
				V253.335z"/>
			<path d="M218.626,147.948h-25.035c-4.962,0-8.983,4.022-8.983,8.983s4.021,8.983,8.983,8.983h25.035
				c4.962,0,8.983-4.022,8.983-8.983S223.588,147.948,218.626,147.948z"/>
			<path d="M218.626,176.351h-25.035c-4.962,0-8.983,4.022-8.983,8.983s4.021,8.983,8.983,8.983h25.035
				c4.962,0,8.983-4.022,8.983-8.983S223.588,176.351,218.626,176.351z"/>
			<path d="M218.626,204.755h-25.035c-4.962,0-8.983,4.022-8.983,8.983s4.021,8.983,8.983,8.983h25.035
				c4.962,0,8.983-4.022,8.983-8.983S223.588,204.755,218.626,204.755z"/>
			<path d="M291.878,165.914h25.036c4.962,0,8.983-4.022,8.983-8.983s-4.021-8.983-8.983-8.983h-25.036
				c-4.962,0-8.983,4.022-8.983,8.983S286.917,165.914,291.878,165.914z"/>
			<path d="M291.878,194.317h25.036c4.962,0,8.983-4.022,8.983-8.983s-4.021-8.983-8.983-8.983h-25.036
				c-4.962,0-8.983,4.022-8.983,8.983S286.917,194.317,291.878,194.317z"/>
			<path d="M291.878,222.721h25.036c4.962,0,8.983-4.022,8.983-8.983s-4.021-8.983-8.983-8.983h-25.036
				c-4.962,0-8.983,4.022-8.983,8.983S286.917,222.721,291.878,222.721z"/>
		</g>
	</g>
</g>
</svg>