<?xml version="1.0" encoding="iso-8859-1"?>
<!-- Uploaded to: SVG Repo, www.svgrepo.com, Generator: SVG Repo Mixer Tools -->
<svg fill="#000000" height="800px" width="800px" version="1.1" id="Layer_1" xmlns="http://www.w3.org/2000/svg" xmlns:xlink="http://www.w3.org/1999/xlink" 
	 viewBox="0 0 512.001 512.001" xml:space="preserve">
<g>
	<g>
		<path d="M425.964,118.841c-7.624-10.85-20.093-17.328-33.353-17.328H334.34l7.452-48.914c11.716-2.808,20.455-13.365,20.455-25.93
			C362.247,11.963,350.282,0,335.577,0H176.425c-14.706,0-26.67,11.963-26.67,26.669c0,12.565,8.739,23.122,20.455,25.93
			l7.452,48.914h-58.271c-13.262,0-25.73,6.478-33.353,17.328c-7.624,10.85-9.492,24.776-4.997,37.253l26.164,72.618
			c0.353,19.921,7.291,39.428,20.155,56.514c11.573,15.37,27.716,28.535,46.913,38.303v17.143h-48.606
			c-4.751,0-8.603,3.852-8.603,8.603v39.573c0,4.751,3.852,8.603,8.603,8.603h16.829v105.945c0,4.751,3.852,8.603,8.603,8.603h209.8
			c4.751,0,8.603-3.852,8.603-8.603V397.453h16.829c4.751,0,8.603-3.852,8.603-8.603v-39.573c0-4.751-3.852-8.603-8.603-8.603
			h-48.606v-17.145c19.199-9.766,35.342-22.932,46.915-38.302c12.864-17.085,19.801-36.594,20.155-56.514l26.164-72.618
			C435.455,143.618,433.587,129.691,425.964,118.841z M176.425,36.131c-5.218,0-9.464-4.245-9.464-9.462
			c0-5.217,4.245-9.462,9.464-9.462h159.152c5.218,0,9.464,4.245,9.464,9.462c0,5.217-4.245,9.462-9.464,9.462h-1.29H177.716
			H176.425z M97.229,150.262c-2.636-7.317-1.584-15.165,2.887-21.529c4.471-6.364,11.497-10.014,19.275-10.014h60.892l1.294,8.497
			c-33.633,14.997-57.792,39.18-68.398,67.314L97.229,150.262z M352.298,494.794L352.298,494.794H159.704v-97.342h192.594V494.794z
			 M377.731,357.879v22.366h-243.46v-22.366H377.731z M325.492,310.353c-3.032,1.412-4.97,4.454-4.97,7.799v22.521H191.48v-0.001
			v-13.918h78.285c4.751,0,8.603-3.852,8.603-8.603c0-4.751-3.852-8.603-8.603-8.603h-84.923
			c-37.892-18.23-60.464-48.929-60.464-82.433c0-35.829,26.18-68.647,68.423-85.972h75.243c4.751,0,8.603-3.852,8.603-8.603
			c0-4.751-3.852-8.603-8.603-8.603h-69.56l-10.755-70.598h136.545l-11.869,77.907c-0.602,3.958,1.604,7.808,5.324,9.289
			c43.113,17.159,69.895,50.336,69.895,86.582C387.624,261.113,364.397,292.229,325.492,310.353z M414.772,150.264l-15.949,44.269
			c-10.606-28.134-34.765-52.317-68.398-67.314l1.294-8.497h60.892v-0.001c7.777,0,14.803,3.65,19.275,10.014
			C416.357,135.099,417.408,142.945,414.772,150.264z"/>
	</g>
</g>
</svg>