<?xml version="1.0" encoding="iso-8859-1"?>
<!-- Uploaded to: SVG Repo, www.svgrepo.com, Generator: SVG Repo Mixer Tools -->
<svg fill="#000000" height="800px" width="800px" version="1.1" id="Layer_1" xmlns="http://www.w3.org/2000/svg" xmlns:xlink="http://www.w3.org/1999/xlink" 
	 viewBox="0 0 512 512" xml:space="preserve">
<g>
	<g>
		<g>
			<path d="M503.523,50.424H8.477C3.795,50.424,0,54.219,0,58.901v394.199c0,4.681,3.795,8.477,8.477,8.477h495.047
				c4.681,0,8.477-3.795,8.477-8.477V58.901C512,54.219,508.205,50.424,503.523,50.424z M483.059,67.377l-20.945,20.945H49.887
				L28.942,67.377H483.059z M457.148,105.276v301.448H54.852V105.276H457.148z M16.953,79.364l20.945,20.946V411.69l-20.945,20.945
				V79.364z M28.941,444.623l20.946-20.945h412.227l20.945,20.945H28.941z M495.047,432.636l-20.945-20.945V100.311l20.945-20.945
				V432.636z"/>
			<path d="M80.811,304.545h350.377c4.681,0,8.477-3.795,8.477-8.477s-3.795-8.477-8.477-8.477h-77.233
				c-4.313-50.262-46.595-89.848-97.956-89.848s-93.643,39.586-97.956,89.848H80.811c-4.681,0-8.477,3.795-8.477,8.477
				S76.13,304.545,80.811,304.545z M255.999,214.696c42.006,0,76.676,31.996,80.93,72.895H175.071
				C179.324,246.692,213.993,214.696,255.999,214.696z"/>
			<path d="M363.791,339.505c1.54,0.635,3.276,0.802,4.907,0.47c0.543-0.102,1.074-0.271,1.582-0.475
				c1.546-0.618,2.867-1.753,3.809-3.131c0.923-1.351,1.424-3.056,1.424-4.702c0-1.109-0.234-2.216-0.644-3.244
				c-1.019-2.553-3.467-4.556-6.171-5.063c-2.733-0.513-5.696,0.304-7.652,2.317c-1.549,1.596-2.487,3.74-2.487,5.99
				c0,2.8,1.474,5.479,3.775,7.053C362.791,339.033,363.28,339.294,363.791,339.505z"/>
			<path d="M335.813,340.145c4.681,0,8.477-3.795,8.477-8.477s-3.795-8.477-8.477-8.477h-85.328c-4.681,0-8.477,3.795-8.477,8.477
				s3.795,8.477,8.477,8.477H335.813z"/>
			<path d="M222.231,340.145c4.681,0,8.477-3.795,8.477-8.477s-3.795-8.477-8.477-8.477h-77.269c-4.681,0-8.477,3.795-8.477,8.477
				s3.795,8.477,8.477,8.477H222.231z"/>
			<path d="M390.061,357.097H318.86c-4.681,0-8.477,3.795-8.477,8.477s3.795,8.477,8.477,8.477h71.201
				c4.681,0,8.477-3.795,8.477-8.477S394.743,357.097,390.061,357.097z"/>
			<path d="M290.041,357.097h-89.848c-4.681,0-8.477,3.795-8.477,8.477s3.795,8.477,8.477,8.477h89.848
				c4.681,0,8.477-3.795,8.477-8.477S294.722,357.097,290.041,357.097z"/>
			<path d="M166.287,357.097H121.94c-4.681,0-8.477,3.795-8.477,8.477s3.795,8.477,8.477,8.477h44.348
				c4.681,0,8.477-3.795,8.477-8.477S170.969,357.097,166.287,357.097z"/>
			<path d="M110.344,186.216h37.295c4.681,0,8.477-3.795,8.477-8.477s-3.795-8.477-8.477-8.477h-37.295
				c-4.681,0-8.477,3.795-8.477,8.477S105.663,186.216,110.344,186.216z"/>
			<path d="M344.289,172.653h37.295c4.681,0,8.477-3.795,8.477-8.477c0-1.91-0.64-3.668-1.707-5.085h18.659
				c4.681,0,8.477-3.795,8.477-8.477s-3.795-8.477-8.477-8.477h-37.296c-4.681,0-8.477,3.795-8.477,8.477
				c0,1.91,0.64,3.668,1.707,5.085h-18.658c-4.681,0-8.477,3.795-8.477,8.477S339.608,172.653,344.289,172.653z"/>
		</g>
	</g>
</g>
</svg>