<?xml version="1.0" encoding="iso-8859-1"?>
<!-- Uploaded to: SVG Repo, www.svgrepo.com, Generator: SVG Repo Mixer Tools -->
<svg version="1.1" id="Layer_1" xmlns="http://www.w3.org/2000/svg" xmlns:xlink="http://www.w3.org/1999/xlink" 
	 viewBox="0 0 512 512" xml:space="preserve">
<path style="fill:#E09B2D;" d="M350.283,110.049h-16.662V41.133c0-13.493-10.976-24.471-24.47-24.471H202.853
	c-13.492,0-24.471,10.977-24.471,24.471v68.916h-16.662V41.133C161.722,18.452,180.173,0,202.853,0h106.299
	c22.679,0,41.131,18.452,41.131,41.133V110.049z"/>
<path style="fill:#F7B239;" d="M374.793,512h-237.58c-22.384,0-40.53-18.146-40.53-40.53V106.204h318.639v365.267
	C415.323,493.854,397.177,512,374.793,512z"/>
<rect x="177.475" y="258.589" style="fill:#999999;" width="157.055" height="109.749"/>
<path style="fill:#CCCCCC;" d="M256.003,217.248l100.007,42.473c4.159,1.766,2.898,7.968-1.621,7.968h-196.77
	c-4.519,0-5.782-6.201-1.621-7.968L256.003,217.248z"/>
<g>
	<rect x="167.862" y="267.689" style="fill:#808080;" width="19.225" height="84.568"/>
	<rect x="207.12" y="267.689" style="fill:#808080;" width="19.225" height="84.568"/>
	<rect x="246.39" y="267.689" style="fill:#808080;" width="19.225" height="84.568"/>
	<rect x="285.647" y="267.689" style="fill:#808080;" width="19.225" height="84.568"/>
	<rect x="324.918" y="267.689" style="fill:#808080;" width="19.225" height="84.568"/>
</g>
<rect x="156.814" y="352.253" style="fill:#CCCCCC;" width="198.376" height="32.157"/>
<rect x="96.679" y="133.293" style="fill:#E09B2D;" width="318.635" height="19.225"/>
</svg>