<?xml version="1.0" encoding="iso-8859-1"?>
<!-- Uploaded to: SVG Repo, www.svgrepo.com, Generator: SVG Repo Mixer Tools -->
<svg fill="#000000" height="800px" width="800px" version="1.1" id="Layer_1" xmlns="http://www.w3.org/2000/svg" xmlns:xlink="http://www.w3.org/1999/xlink" 
	 viewBox="0 0 512 512" xml:space="preserve">
<g>
	<g>
		<g>
			<path d="M321.972,394.18H190.028c-4.962,0-8.983,4.022-8.983,8.983v57.488c0,4.961,4.021,8.983,8.983,8.983h131.944
				c4.962,0,8.983-4.022,8.983-8.983v-57.488C330.955,398.202,326.934,394.18,321.972,394.18z M312.989,451.668H199.011v-39.522
				h113.979V451.668z"/>
			<path d="M503.017,485.19h-92.519V366.348V17.829c0-4.961-4.021-8.983-8.983-8.983h-291.03c-4.962,0-8.983,4.022-8.983,8.983
				v348.518v118.841H8.983c-4.962,0-8.983,4.022-8.983,8.983c0,4.961,4.021,8.983,8.983,8.983h494.034
				c4.962,0,8.983-4.022,8.983-8.983C512,489.21,507.979,485.19,503.017,485.19z M392.532,485.19H119.468V375.331h50.301h172.463
				h50.301V485.19z M178.751,357.365v-39.522h154.497v39.522H178.751z M392.532,357.364h-41.318v-48.505
				c0-4.961-4.021-8.983-8.983-8.983H169.768c-4.962,0-8.983,4.022-8.983,8.983v48.505h-41.318V26.812h273.065V357.364z"/>
			<path d="M256.001,291.656c50.091,0,90.428-71.739,90.428-131.135c0-58.448-40.566-105.998-90.428-105.998
				c-49.862,0-90.428,47.551-90.428,105.998C165.573,219.918,205.91,291.656,256.001,291.656z M232.055,221.44
				c0.314-2.813,9.306-8.833,23.946-8.833c14.57,0,23.546,5.963,23.939,8.839c-0.823,0.741-5.305,3.737-23.939,3.737
				C237.316,225.183,232.861,222.172,232.055,221.44z M264.984,73.188c11.79,1.78,22.71,7.002,32.051,14.828
				c-9.564,8.006-20.553,13.099-32.051,14.852V73.188z M264.984,120.998c16.091-1.868,31.401-8.735,44.42-19.909
				c2.368,3.138,4.551,6.482,6.53,10.011c-14.678,14.098-32.353,22.7-50.95,24.799V120.998z M247.018,73.188v29.68
				c-11.498-1.752-22.487-6.846-32.05-14.852C224.309,80.189,235.229,74.968,247.018,73.188z M202.599,101.088
				c13.018,11.174,28.326,18.041,44.419,19.91v14.9c-18.596-2.1-36.271-10.702-50.947-24.8
				C198.048,107.569,200.231,104.225,202.599,101.088z M188.514,128.527c17.094,14.692,37.292,23.485,58.504,25.428v25.722
				c0,4.961,4.021,8.983,8.983,8.983s8.983-4.022,8.983-8.983v-25.722c21.212-1.943,41.41-10.734,58.505-25.426
				c3.198,9.924,4.974,20.707,4.974,31.991c0,45.948-28.945,103.264-63.479,112.023v-29.605c13.38-0.768,32.937-4.374,32.937-21.349
				c0-15.363-18.022-26.949-41.92-26.949c-23.898,0-41.92,11.586-41.92,26.949c0,16.975,19.558,20.583,32.937,21.349v29.605
				c-34.534-8.759-63.479-66.075-63.479-112.023C183.539,149.235,185.315,138.451,188.514,128.527z"/>
			<path d="M231.929,172.483c0-4.961-4.021-8.983-8.983-8.983H207.61c-4.962,0-8.983,4.022-8.983,8.983s4.021,8.983,8.983,8.983
				h15.336C227.907,181.466,231.929,177.444,231.929,172.483z"/>
			<path d="M289.055,181.466h15.336c4.962,0,8.983-4.022,8.983-8.983s-4.021-8.983-8.983-8.983h-15.336
				c-4.962,0-8.983,4.022-8.983,8.983S284.093,181.466,289.055,181.466z"/>
		</g>
	</g>
</g>
</svg>