<?xml version="1.0" encoding="iso-8859-1"?>
<!-- Uploaded to: SVG Repo, www.svgrepo.com, Generator: SVG Repo Mixer Tools -->
<svg fill="#000000" height="800px" width="800px" version="1.1" id="Layer_1" xmlns="http://www.w3.org/2000/svg" xmlns:xlink="http://www.w3.org/1999/xlink" 
	 viewBox="0 0 511.999 511.999" xml:space="preserve">
<g>
	<g>
		<path d="M474.326,454.567V133.823h2.527c5.139,0,9.303-4.165,9.303-9.303s-4.164-9.303-9.303-9.303h-11.83h-27.73V95.883
			c22.248-4.351,39.091-23.986,39.091-47.489C476.382,21.71,454.673,0,427.989,0c-26.686,0-48.396,21.71-48.396,48.394
			c0,23.503,16.843,43.138,39.093,47.489v19.334h-27.732h-11.83c-5.139,0-9.303,4.165-9.303,9.303c0,5.138,4.164,9.303,9.303,9.303
			h2.527v34.068c-33.962,32.603-78.428,50.517-125.652,50.517s-91.689-17.914-125.652-50.517v-34.069h2.528
			c5.138,0,9.303-4.165,9.303-9.303s-4.165-9.303-9.303-9.303h-11.831H93.312V95.883c22.248-4.35,39.093-23.986,39.093-47.489
			C132.405,21.71,110.694,0,84.009,0C57.325,0,35.615,21.71,35.615,48.394c0,23.503,16.843,43.138,39.091,47.489v19.334h-27.73
			H35.145c-5.138,0-9.303,4.165-9.303,9.303c0,5.138,4.165,9.303,9.303,9.303h2.528v320.743
			c-12.273,4.36-21.087,16.084-21.087,29.833v18.296c0,5.138,4.165,9.303,9.303,9.303h116.242c5.138,0,9.303-4.165,9.303-9.303
			V484.4c0-13.749-8.814-25.473-21.087-29.833V237.4c36.628,25.591,80.568,39.508,125.652,39.508
			c45.084,0,89.024-13.917,125.652-39.508v217.167c-12.273,4.36-21.087,16.084-21.087,29.833v18.296
			c0,5.138,4.164,9.303,9.303,9.303H486.11c5.139,0,9.303-4.165,9.303-9.303V484.4C495.413,470.651,486.598,458.927,474.326,454.567
			z M54.221,48.394c0-16.425,13.363-29.788,29.788-29.788s29.79,13.363,29.79,29.788s-13.364,29.789-29.79,29.789
			S54.221,64.82,54.221,48.394z M56.279,133.823h55.462v318.924H56.279V133.823z M132.829,484.401v8.993h-0.001H35.192v-8.993
			c0-7.194,5.853-13.048,13.048-13.048h71.542C126.976,471.353,132.829,477.207,132.829,484.401z M398.2,48.394
			c0-16.425,13.363-29.788,29.789-29.788s29.788,13.363,29.788,29.788s-13.362,29.789-29.788,29.789
			C411.563,78.184,398.2,64.82,398.2,48.394z M400.256,133.823h55.463v318.924h-55.463V133.823z M256,258.302
			c-45.74,0-90.187-15.648-125.652-44.145v-21.481c35.482,28.723,79.363,44.339,125.652,44.339
			c46.287,0,90.169-15.617,125.652-44.339v21.481C346.185,242.654,301.739,258.302,256,258.302z M476.808,493.394h-0.001H379.17
			v-8.993c0-7.194,5.853-13.048,13.048-13.048h71.543c7.194,0,13.048,5.853,13.048,13.048V493.394z"/>
	</g>
</g>
</svg>