<?xml version="1.0" encoding="iso-8859-1"?>
<!-- Uploaded to: SVG Repo, www.svgrepo.com, Generator: SVG Repo Mixer Tools -->
<svg version="1.1" id="Layer_1" xmlns="http://www.w3.org/2000/svg" xmlns:xlink="http://www.w3.org/1999/xlink" 
	 viewBox="0 0 512 512" xml:space="preserve">
<rect x="58.896" y="8.477" style="fill:#B27214;" width="394.2" height="495.05"/>
<rect x="96.804" y="46.373" style="fill:#FFFFFF;" width="318.396" height="419.246"/>
<path style="fill:#E6E6E6;" d="M355.859,137.449v237.099c0,18.004-44.7,32.596-99.855,32.596s-99.867-14.591-99.867-32.596V137.449
	c0-18.004,44.712-32.596,99.867-32.596S355.859,119.444,355.859,137.449z"/>
<path style="fill:#F95428;" d="M355.859,137.449v116.436c0,18.004-44.7,32.596-99.855,32.596s-99.867-14.591-99.867-32.596V137.449
	c0-18.004,44.712-32.596,99.867-32.596S355.859,119.444,355.859,137.449z"/>
<ellipse style="fill:#CCCCCC;" cx="255.996" cy="137.447" rx="99.867" ry="32.595"/>
<path style="fill:#F95428;" d="M256.004,339.218c-21.969,0-42.984-2.238-60.771-6.472c-4.554-1.084-7.368-5.655-6.284-10.209
	c1.084-4.555,5.653-7.368,10.209-6.284c16.522,3.932,36.179,6.012,56.845,6.012c20.667,0,40.324-2.078,56.846-6.012
	c0.643-0.153,1.302-0.231,1.963-0.231c4.681,0,8.483,3.795,8.483,8.477c0,4.106-2.915,7.532-6.79,8.311
	C298.776,337.003,277.863,339.218,256.004,339.218z"/>
<path style="fill:#FFFFFF;" d="M256.004,223.561c-21.969,0-42.984-2.238-60.771-6.472c-4.554-1.084-7.368-5.655-6.284-10.209
	c1.084-4.555,5.653-7.368,10.209-6.284c16.522,3.932,36.179,6.012,56.845,6.012c20.667,0,40.324-2.078,56.846-6.012
	c0.643-0.153,1.302-0.231,1.963-0.231c4.681,0,8.483,3.795,8.483,8.477c0,4.106-2.915,7.532-6.79,8.311
	C298.776,221.344,277.863,223.561,256.004,223.561z"/>
<path style="fill:#666666;" d="M256.004,373.31c-15.848,0-31.07-1.152-45.24-3.421c-4.623-0.741-7.77-5.088-7.029-9.711
	c0.741-4.623,5.094-7.763,9.711-7.029c13.286,2.129,27.605,3.209,42.557,3.209s29.272-1.079,42.558-3.209
	c4.621-0.735,8.971,2.406,9.711,7.029s-2.406,8.971-7.029,9.711C287.075,372.159,271.853,373.31,256.004,373.31z"/>
<circle style="fill:#F7B239;" cx="255.996" cy="286.478" r="20.525"/>
<g>
	<path style="fill:#333333;" d="M453.099,0H58.901c-4.681,0-8.477,3.795-8.477,8.477v495.047c0,4.681,3.795,8.477,8.477,8.477
		h394.199c4.681,0,8.477-3.795,8.477-8.477V8.477C461.576,3.795,457.781,0,453.099,0z M411.69,37.899H100.31L79.366,16.953h353.27
		L411.69,37.899z M406.724,54.852v402.296H105.276V54.852H406.724z M88.323,49.886v412.227l-20.945,20.945V28.941L88.323,49.886z
		 M100.311,474.101H411.69l20.945,20.945H79.366L100.311,474.101z M423.677,462.114V49.886l20.945-20.945v454.118L423.677,462.114z"
		/>
	<path style="fill:#333333;" d="M182.756,405.655c19.689,6.426,45.701,9.965,73.244,9.965c27.545,0,53.556-3.539,73.244-9.965
		c29.007-9.468,35.096-22.141,35.096-31.106V137.451c0-8.965-6.089-21.638-35.096-31.106c-19.689-6.426-45.701-9.965-73.244-9.965
		s-53.556,3.539-73.244,9.965c-29.007,9.468-35.096,22.141-35.096,31.106v237.098C147.659,383.514,153.749,396.187,182.756,405.655z
		 M323.984,389.538c-18.035,5.886-42.179,9.129-67.984,9.129s-49.948-3.241-67.983-9.129c-17.17-5.604-23.404-12.035-23.404-14.989
		v-97.475c15.712,9.114,40.092,14.422,63.293,16.605c3.211,12.517,14.589,21.796,28.094,21.796c13.505,0,24.882-9.279,28.094-21.796
		c23.2-2.182,47.581-7.49,63.293-16.606v97.476C347.387,377.503,341.154,383.934,323.984,389.538z M182.756,168.557
		c19.689,6.426,45.701,9.965,73.244,9.965c27.545,0,53.556-3.539,73.244-9.965c7.478-2.441,13.423-5.095,18.142-7.844v93.171h-0.005
		c0,6.316-21.418,18.784-64.072,22.842c-4.013-11.21-14.738-19.253-27.311-19.253c-12.572,0-23.296,8.043-27.31,19.252
		c-42.657-4.059-64.076-16.527-64.076-22.842l0,0v-93.171C169.334,163.461,175.278,166.116,182.756,168.557z M180.862,149.802
		c15.732-6.506,41.783-11.753,75.142-11.753c33.354,0,59.402,5.249,75.133,11.754c-2.145,0.888-4.504,1.772-7.152,2.637
		c-18.035,5.886-42.179,9.129-67.984,9.129c-25.805,0-49.948-3.241-67.983-9.129C185.367,151.576,183.008,150.691,180.862,149.802z
		 M268.048,286.475c0,6.642-5.405,12.047-12.047,12.047c-6.642,0-12.047-5.405-12.047-12.047c0-6.642,5.404-12.047,12.047-12.047
		C262.644,274.428,268.048,279.831,268.048,286.475z M188.016,122.462c18.035-5.886,42.179-9.129,67.983-9.129
		s49.949,3.241,67.984,9.129c17.17,5.604,23.404,12.035,23.404,14.989c0,0.374-0.102,0.804-0.311,1.279
		c-19.092-10.989-52.828-17.636-91.072-17.636c-38.249,0-71.987,6.646-91.081,17.634c-0.208-0.476-0.31-0.905-0.31-1.278
		C164.613,134.497,170.846,128.066,188.016,122.462z"/>
</g>
</svg>