<?xml version="1.0" encoding="iso-8859-1"?>
<!-- Uploaded to: SVG Repo, www.svgrepo.com, Generator: SVG Repo Mixer Tools -->
<svg version="1.1" id="Layer_1" xmlns="http://www.w3.org/2000/svg" xmlns:xlink="http://www.w3.org/1999/xlink" 
	 viewBox="0 0 512 512" xml:space="preserve">
<rect x="110.49" y="17.828" style="fill:#B8E6FF;" width="291.034" height="348.524"/>
<rect x="110.49" y="366.345" style="fill:#4D4D4D;" width="291.034" height="127.821"/>
<rect x="169.765" y="308.855" style="fill:#CCCCCC;" width="172.46" height="57.488"/>
<path style="fill:#808080;" d="M342.232,375.329H169.768c-4.962,0-8.983-4.022-8.983-8.983v-57.488c0-4.961,4.021-8.983,8.983-8.983
	h172.463c4.962,0,8.983,4.022,8.983,8.983v57.488C351.215,371.307,347.194,375.329,342.232,375.329z M178.751,357.364h154.497
	v-39.522H178.751V357.364z"/>
<rect x="190.03" y="403.163" style="fill:#F7B239;" width="131.941" height="57.488"/>
<g>
	
		<rect x="247.558" y="72.616" transform="matrix(-0.7071 -0.7071 0.7071 -0.7071 518.8682 378.1208)" style="fill:#F2F2F2;" width="180.375" height="17.966"/>
	
		<rect x="320.496" y="42.158" transform="matrix(-0.7071 -0.7071 0.7071 -0.7071 591.3843 347.2419)" style="fill:#F2F2F2;" width="94.224" height="17.966"/>
	
		<rect x="97.716" y="324.048" transform="matrix(-0.7071 -0.7071 0.7071 -0.7071 11.7484 670.9286)" style="fill:#F2F2F2;" width="94.224" height="17.966"/>
</g>
<g>
	<path style="fill:#333333;" d="M321.972,394.178H190.028c-4.962,0-8.983,4.022-8.983,8.983v57.488c0,4.961,4.021,8.983,8.983,8.983
		h131.944c4.962,0,8.983-4.022,8.983-8.983v-57.488C330.955,398.2,326.934,394.178,321.972,394.178z M312.989,451.666H199.011
		v-39.522h113.979V451.666z"/>
	<path style="fill:#333333;" d="M503.017,485.188h-92.519V366.347V17.828c0-4.961-4.021-8.983-8.983-8.983h-291.03
		c-4.962,0-8.983,4.022-8.983,8.983v348.52v118.841H8.983c-4.962,0-8.983,4.022-8.983,8.983c0,4.961,4.021,8.983,8.983,8.983
		h494.034c4.962,0,8.983-4.022,8.983-8.983C512,489.211,507.979,485.188,503.017,485.188z M119.468,26.811h273.065v330.554H119.468
		V26.811z M119.468,375.329h273.065v109.858H119.468V375.329z"/>
</g>
<polygon style="fill:#F9C067;" points="343.191,125.493 289.248,185.766 255.583,125.493 221.916,185.766 167.973,125.493 
	188.249,280.714 322.915,280.714 "/>
<path style="fill:#4D4D4D;" d="M346.935,117.329c-3.575-1.642-7.81-0.761-10.438,2.174l-45.546,50.891l-27.526-49.281
	c-1.587-2.842-4.587-4.603-7.843-4.603c-3.255,0-6.256,1.761-7.843,4.603l-27.526,49.281l-45.546-50.891
	c-2.628-2.936-6.861-3.814-10.438-2.174c-3.58,1.642-5.672,5.423-5.163,9.329l20.276,155.221c0.583,4.473,4.396,7.819,8.907,7.819
	h134.667c4.512,0,8.323-3.345,8.907-7.819l20.276-155.221C352.607,122.752,350.515,118.97,346.935,117.329z M196.135,271.731
	l-1.971-15.094h122.838l-1.971,15.094H196.135z M319.348,238.672H191.816l-11.176-85.556l34.582,38.64
	c1.937,2.162,4.791,3.253,7.683,2.938c2.884-0.32,5.438-2.013,6.853-4.548l25.824-46.232l25.824,46.232
	c1.416,2.534,3.968,4.228,6.853,4.548c2.885,0.314,5.749-0.775,7.683-2.938l34.582-38.64L319.348,238.672z"/>
<g>
	<circle style="fill:#2BA5F7;" cx="303.873" cy="217.121" r="8.983"/>
	<circle style="fill:#2BA5F7;" cx="271.679" cy="217.121" r="8.983"/>
	<circle style="fill:#2BA5F7;" cx="207.289" cy="217.121" r="8.983"/>
	<circle style="fill:#2BA5F7;" cx="239.484" cy="217.121" r="8.983"/>
</g>
</svg>