<?xml version="1.0" encoding="iso-8859-1"?>
<!-- Uploaded to: SVG Repo, www.svgrepo.com, Generator: SVG Repo Mixer Tools -->
<svg version="1.1" id="Layer_1" xmlns="http://www.w3.org/2000/svg" xmlns:xlink="http://www.w3.org/1999/xlink" 
	 viewBox="0 0 512 512" xml:space="preserve">
<rect x="110.49" y="17.828" style="fill:#B8E6FF;" width="291.034" height="348.524"/>
<rect x="110.49" y="366.345" style="fill:#4D4D4D;" width="291.034" height="127.821"/>
<rect x="163.477" y="72.209" style="fill:#F9C067;" width="185.036" height="46.709"/>
<rect x="163.477" y="100.619" style="fill:#E0A455;" width="185.036" height="18.298"/>
<rect x="163.477" y="273.414" style="fill:#F9C067;" width="185.036" height="46.709"/>
<rect x="163.477" y="301.824" style="fill:#E0A455;" width="185.036" height="18.298"/>
<rect x="178.748" y="118.92" style="fill:#F9C067;" width="154.494" height="154.494"/>
<rect x="178.748" y="118.92" style="fill:#E0A455;" width="154.494" height="17.966"/>
<path style="fill:#4D4D4D;" d="M348.52,127.899c4.962,0,8.983-4.022,8.983-8.983v-14.377h13.471c4.962,0,8.983-4.022,8.983-8.983
	s-4.021-8.983-8.983-8.983h-13.471V72.207c0-4.961-4.021-8.983-8.983-8.983H163.482c-4.961,0-8.983,4.022-8.983,8.983v14.367
	h-13.476c-4.961,0-8.983,4.022-8.983,8.983s4.022,8.983,8.983,8.983h13.476v14.376c0,4.961,4.022,8.983,8.983,8.983h6.287v136.533
	h-6.287c-4.961,0-8.983,4.022-8.983,8.983v14.367h-13.476c-4.961,0-8.983,4.022-8.983,8.983c0,4.961,4.022,8.983,8.983,8.983h13.476
	v14.376c0,4.961,4.022,8.983,8.983,8.983H348.52c4.962,0,8.983-4.022,8.983-8.983v-14.376h13.471c4.962,0,8.983-4.022,8.983-8.983
	c0-4.961-4.021-8.983-8.983-8.983h-13.471v-14.367c0-4.961-4.021-8.983-8.983-8.983h-6.287V127.899H348.52z M172.464,81.19h167.072
	v28.743H178.751h-6.287V81.19z M172.464,311.139v-28.743h6.287h160.785v28.743H172.464z M324.267,264.43H187.734V127.899h136.533
	V264.43z"/>
<g>
	<path style="fill:#666666;" d="M211.987,162.031h88.029c4.962,0,8.983-4.022,8.983-8.983s-4.021-8.983-8.983-8.983h-88.029
		c-4.961,0-8.983,4.022-8.983,8.983S207.026,162.031,211.987,162.031z"/>
	<path style="fill:#666666;" d="M211.987,190.775h88.029c4.962,0,8.983-4.022,8.983-8.983s-4.021-8.983-8.983-8.983h-88.029
		c-4.961,0-8.983,4.022-8.983,8.983S207.026,190.775,211.987,190.775z"/>
	<path style="fill:#666666;" d="M211.987,219.519h88.029c4.962,0,8.983-4.022,8.983-8.983s-4.021-8.983-8.983-8.983h-88.029
		c-4.961,0-8.983,4.022-8.983,8.983S207.026,219.519,211.987,219.519z"/>
	<path style="fill:#666666;" d="M211.987,248.263h88.029c4.962,0,8.983-4.022,8.983-8.983s-4.021-8.983-8.983-8.983h-88.029
		c-4.961,0-8.983,4.022-8.983,8.983S207.026,248.263,211.987,248.263z"/>
</g>
<rect x="190.03" y="403.163" style="fill:#F7B239;" width="131.941" height="57.488"/>
<g>
	
		<rect x="247.558" y="72.616" transform="matrix(-0.7071 -0.7071 0.7071 -0.7071 518.8682 378.1208)" style="fill:#F2F2F2;" width="180.375" height="17.966"/>
	
		<rect x="320.496" y="42.158" transform="matrix(-0.7071 -0.7071 0.7071 -0.7071 591.3843 347.2419)" style="fill:#F2F2F2;" width="94.224" height="17.966"/>
	
		<rect x="97.716" y="324.048" transform="matrix(-0.7071 -0.7071 0.7071 -0.7071 11.7484 670.9286)" style="fill:#F2F2F2;" width="94.224" height="17.966"/>
</g>
<g>
	<path style="fill:#333333;" d="M321.972,394.178H190.028c-4.962,0-8.983,4.022-8.983,8.983v57.488c0,4.961,4.021,8.983,8.983,8.983
		h131.944c4.962,0,8.983-4.022,8.983-8.983v-57.488C330.955,398.2,326.934,394.178,321.972,394.178z M312.989,451.666H199.011
		v-39.522h113.979V451.666z"/>
	<path style="fill:#333333;" d="M503.017,485.188h-92.519V366.347V17.828c0-4.961-4.021-8.983-8.983-8.983h-291.03
		c-4.962,0-8.983,4.022-8.983,8.983v348.52v118.841H8.983c-4.962,0-8.983,4.022-8.983,8.983c0,4.961,4.021,8.983,8.983,8.983
		h494.034c4.962,0,8.983-4.022,8.983-8.983C512,489.211,507.979,485.188,503.017,485.188z M119.468,26.811h273.065v330.554H119.468
		V26.811z M119.468,375.329h273.065v109.858H119.468V375.329z"/>
</g>
</svg>