<?xml version="1.0" encoding="iso-8859-1"?>
<!-- Uploaded to: SVG Repo, www.svgrepo.com, Generator: SVG Repo Mixer Tools -->
<svg fill="#000000" height="800px" width="800px" version="1.1" id="Layer_1" xmlns="http://www.w3.org/2000/svg" xmlns:xlink="http://www.w3.org/1999/xlink" 
	 viewBox="0 0 512 512" xml:space="preserve">
<g>
	<g>
		<path d="M500.771,1.438H11.229C5.026,1.438,0,6.465,0,12.667v83.307c0,6.201,5.026,11.229,11.229,11.229h51.629
			c-2.683,2.187-5.274,4.523-7.76,7.007c-15.627,15.626-24.233,36.399-24.233,58.497s8.606,42.871,24.231,58.495
			c4.168,4.168,8.785,7.722,13.733,10.639v257.493c0,6.201,5.026,11.229,11.229,11.229h351.875c6.203,0,11.229-5.027,11.229-11.229
			V241.828c4.908-2.881,9.532-6.421,13.741-10.628c32.255-32.255,32.255-84.736,0-116.992c-2.485-2.485-5.077-4.821-7.76-7.008
			h51.628c6.203,0,11.229-5.027,11.229-11.229V12.667C512,6.464,506.974,1.438,500.771,1.438z M143.578,488.103h-13.934V338.73
			c0-3.842,3.126-6.968,6.966-6.968c3.842,0,6.968,3.126,6.968,6.968V488.103z M223.168,488.103h-13.934V338.73
			c0-3.842,3.126-6.968,6.968-6.968c3.84,0,6.966,3.126,6.966,6.968V488.103z M302.758,488.103h-13.932V338.73
			c0-3.842,3.126-6.968,6.966-6.968c3.84,0,6.966,3.126,6.966,6.968V488.103z M382.35,488.103h-13.934V338.73
			c0-3.842,3.126-6.968,6.966-6.968c3.842,0,6.968,3.126,6.968,6.968V488.103z M420.707,488.105h-15.898V338.73
			c0-16.225-13.2-29.425-29.425-29.425c-16.225,0-29.423,13.2-29.423,29.425v149.374h-20.742V338.73
			c0-16.225-13.199-29.425-29.424-29.425s-29.423,13.2-29.423,29.425v149.374H245.63V338.73c0-16.225-13.199-29.425-29.423-29.425
			c-16.225,0-29.425,13.2-29.425,29.425v149.374H166.04V338.73c0-16.225-13.2-29.425-29.425-29.425
			c-16.225,0-29.424,13.2-29.424,29.425v149.374H91.289V281.398h329.418V488.105z M420.707,258.94H91.289v-8.794
			c3.985,0.713,8.059,1.096,12.194,1.096c18.277,0,35.461-7.117,48.385-20.041c6.052-6.053,10.443-13.143,13.197-20.701h181.869
			c2.755,7.558,7.146,14.648,13.199,20.701c16.446,16.446,39.249,22.739,60.573,18.909V258.94z M441.023,215.321
			c-17.924,17.924-47.088,17.921-65.009,0c-13.464-13.462-13.464-35.369-0.002-48.831c9.896-9.896,25.998-9.893,35.893,0
			c4.384,4.385,11.494,4.384,15.879,0c4.385-4.385,4.385-11.495-0.001-15.88c-18.65-18.651-48.997-18.648-67.65,0
			c-10.383,10.383-15.91,23.809-16.59,37.433H168.456c-0.678-13.624-6.207-27.051-16.59-37.433c-18.653-18.65-48.997-18.65-67.65,0
			c-4.385,4.385-4.385,11.495,0,15.88c4.385,4.384,11.495,4.385,15.879,0c9.896-9.895,25.995-9.895,35.89,0
			c13.464,13.462,13.464,35.369,0,48.833c-8.682,8.682-20.227,13.464-32.505,13.464s-23.821-4.782-32.505-13.464
			c-11.384-11.383-17.653-26.518-17.653-42.616c0-16.097,6.27-31.232,17.654-42.616c15.224-15.226,35.506-23.336,57.005-22.867
			c0.084,0.001,0.166,0.003,0.25,0.003h255.534c0.084,0,0.166-0.002,0.25-0.003c21.541-0.478,41.779,7.641,57.005,22.867
			C464.522,153.587,464.522,191.823,441.023,215.321z M489.543,84.744H22.457V23.895h467.085V84.744z"/>
	</g>
</g>
</svg>