<?xml version="1.0" encoding="iso-8859-1"?>
<!-- Uploaded to: SVG Repo, www.svgrepo.com, Generator: SVG Repo Mixer Tools -->
<svg version="1.1" id="Layer_1" xmlns="http://www.w3.org/2000/svg" xmlns:xlink="http://www.w3.org/1999/xlink" 
	 viewBox="0 0 512 512" xml:space="preserve">
<rect x="110.478" y="13.339" style="fill:#B8E6FF;" width="291.034" height="348.512"/>
<g>
	<polygon style="fill:#F2F2F2;" points="401.515,67.847 401.515,93.263 321.603,13.339 346.995,13.339 	"/>
	<polygon style="fill:#F2F2F2;" points="191.471,362.474 171.793,368.211 165.433,361.851 110.481,306.888 110.481,281.484 	"/>
</g>
<rect x="110.49" y="356.034" style="fill:#4D4D4D;" width="291.034" height="133.642"/>
<rect x="190.03" y="398.673" style="fill:#E09B2D;" width="131.941" height="57.488"/>
<rect x="199.612" y="408.255" style="fill:#F7B239;" width="112.777" height="38.325"/>
<path style="fill:#333333;" d="M503.017,498.661H8.983c-4.962,0-8.983-4.022-8.983-8.983c0-4.961,4.021-8.983,8.983-8.983h494.034
	c4.962,0,8.983,4.022,8.983,8.983C512,494.639,507.979,498.661,503.017,498.661z"/>
<g>
	<path style="fill:#808080;" d="M370.973,100.047h-229.95c-4.961,0-8.983-4.022-8.983-8.983s4.022-8.983,8.983-8.983h229.95
		c4.962,0,8.983,4.022,8.983,8.983S375.935,100.047,370.973,100.047z"/>
	<path style="fill:#808080;" d="M370.973,301.253h-229.95c-4.961,0-8.983-4.022-8.983-8.983c0-4.961,4.022-8.983,8.983-8.983h229.95
		c4.962,0,8.983,4.022,8.983,8.983C379.956,297.231,375.935,301.253,370.973,301.253z"/>
</g>
<g>
	<rect x="163.477" y="67.719" style="fill:#F9C067;" width="185.036" height="46.709"/>
	<rect x="178.748" y="114.43" style="fill:#F9C067;" width="154.494" height="154.494"/>
</g>
<g>
	<polygon style="fill:#E0A455;" points="348.52,96.125 163.482,96.125 163.482,114.423 178.751,114.423 178.751,129.398 
		333.245,129.398 333.245,114.423 348.52,114.423 	"/>
	<rect x="178.748" y="261.414" style="fill:#E0A455;" width="154.494" height="12.576"/>
</g>
<g>
	<rect x="205.996" y="142.565" style="fill:#808080;" width="100.01" height="11.977"/>
	<rect x="205.996" y="171.31" style="fill:#808080;" width="100.01" height="11.977"/>
	<rect x="205.996" y="200.055" style="fill:#808080;" width="100.01" height="11.977"/>
	<rect x="205.996" y="228.8" style="fill:#808080;" width="100.01" height="11.977"/>
</g>
<rect x="163.477" y="268.924" style="fill:#F9C067;" width="185.036" height="46.709"/>
<rect x="163.477" y="297.334" style="fill:#E0A455;" width="185.036" height="18.298"/>
<polygon style="fill:#F2F2F2;" points="401.515,128.176 401.515,153.58 261.262,13.339 286.678,13.339 "/>
</svg>