<?xml version="1.0" encoding="iso-8859-1"?>
<!-- Uploaded to: SVG Repo, www.svgrepo.com, Generator: SVG Repo Mixer Tools -->
<svg version="1.1" id="Layer_1" xmlns="http://www.w3.org/2000/svg" xmlns:xlink="http://www.w3.org/1999/xlink" 
	 viewBox="0 0 512 512" xml:space="preserve">
<rect x="8.477" y="58.896" style="fill:#B27214;" width="494.383" height="393.533"/>
<rect x="46.373" y="96.804" style="fill:#F95428;" width="419.246" height="318.396"/>
<rect x="46.373" y="296.063" style="fill:#2197D8;" width="419.246" height="119.137"/>
<g>
	<polyline style="fill:#F7B239;" points="422.517,415.201 333.605,296.068 178.395,296.068 89.483,415.201 	"/>
	<path style="fill:#F7B239;" d="M345.849,296.068c0-49.621-40.227-89.848-89.848-89.848s-89.848,40.227-89.848,89.848"/>
</g>
<g>
	<path style="fill:#333333;" d="M503.523,50.424H8.477C3.795,50.424,0,54.219,0,58.901v394.199c0,4.681,3.795,8.477,8.477,8.477
		h495.047c4.681,0,8.477-3.795,8.477-8.477V58.901C512,54.219,508.205,50.424,503.523,50.424z M462.114,88.323H49.887L28.942,67.377
		h454.118L462.114,88.323z M457.148,105.276v301.448H54.852V105.276H457.148z M37.899,100.311V411.69l-20.945,20.945V79.364
		L37.899,100.311z M49.887,423.677h412.227l20.945,20.945H28.941L49.887,423.677z M474.101,411.69V100.311l20.945-20.945v353.27
		L474.101,411.69z"/>
	<path style="fill:#333333;" d="M80.811,304.545h350.377c4.681,0,8.477-3.795,8.477-8.477s-3.795-8.477-8.477-8.477h-77.233
		c-4.313-50.262-46.595-89.848-97.956-89.848s-93.643,39.586-97.956,89.848H80.811c-4.681,0-8.477,3.795-8.477,8.477
		S76.13,304.545,80.811,304.545z M255.999,214.696c42.006,0,76.676,31.996,80.93,72.895H175.071
		C179.324,246.692,213.993,214.696,255.999,214.696z"/>
</g>
<g>
	<path style="fill:#FFFFFF;" d="M363.792,339.499c0.52,0.203,1.051,0.373,1.594,0.475c0.543,0.113,1.096,0.17,1.65,0.17
		s1.108-0.056,1.661-0.17c0.543-0.102,1.074-0.271,1.582-0.475c0.509-0.215,1.006-0.475,1.469-0.78
		c0.463-0.316,0.893-0.667,1.277-1.062c0.396-0.384,0.746-0.825,1.062-1.288c0.305-0.452,0.565-0.949,0.78-1.458
		c0.203-0.509,0.373-1.051,0.475-1.582c0.113-0.554,0.17-1.108,0.17-1.661s-0.056-1.108-0.17-1.65
		c-0.102-0.543-0.271-1.085-0.475-1.594c-0.215-0.509-0.475-1.006-0.78-1.458c-0.316-0.463-0.667-0.904-1.062-1.288
		c-0.384-0.396-0.814-0.746-1.277-1.051s-0.961-0.576-1.469-0.78c-0.509-0.215-1.04-0.384-1.582-0.486
		c-1.096-0.226-2.227-0.226-3.312,0c-0.543,0.102-1.074,0.271-1.594,0.486c-0.509,0.203-1.006,0.475-1.458,0.78
		c-0.463,0.305-0.904,0.656-1.288,1.051c-0.396,0.384-0.746,0.825-1.051,1.288c-0.305,0.452-0.576,0.949-0.78,1.458
		c-0.215,0.509-0.384,1.051-0.486,1.594c-0.113,0.543-0.17,1.096-0.17,1.65c0,2.238,0.904,4.419,2.487,5.99
		c0.384,0.396,0.825,0.746,1.288,1.062C362.788,339.026,363.285,339.286,363.792,339.499z"/>
	<path style="fill:#FFFFFF;" d="M335.813,340.145c4.681,0,8.477-3.795,8.477-8.477s-3.795-8.477-8.477-8.477h-85.327
		c-4.681,0-8.477,3.795-8.477,8.477s3.795,8.477,8.477,8.477H335.813z"/>
	<path style="fill:#FFFFFF;" d="M222.231,340.145c4.681,0,8.477-3.795,8.477-8.477s-3.795-8.477-8.477-8.477h-77.269
		c-4.681,0-8.477,3.795-8.477,8.477s3.795,8.477,8.477,8.477H222.231z"/>
	<path style="fill:#FFFFFF;" d="M390.061,357.097H318.86c-4.681,0-8.477,3.795-8.477,8.477s3.795,8.477,8.477,8.477h71.201
		c4.681,0,8.477-3.795,8.477-8.477S394.743,357.097,390.061,357.097z"/>
	<path style="fill:#FFFFFF;" d="M290.041,357.097h-89.848c-4.681,0-8.477,3.795-8.477,8.477s3.795,8.477,8.477,8.477h89.848
		c4.681,0,8.477-3.795,8.477-8.477S294.722,357.097,290.041,357.097z"/>
	<path style="fill:#FFFFFF;" d="M166.287,357.097H121.94c-4.681,0-8.477,3.795-8.477,8.477s3.795,8.477,8.477,8.477h44.348
		c4.681,0,8.477-3.795,8.477-8.477S170.969,357.097,166.287,357.097z"/>
</g>
<g>
	<path style="fill:#333333;" d="M110.344,186.216h37.295c4.681,0,8.477-3.795,8.477-8.477c0-4.681-3.795-8.477-8.477-8.477h-37.295
		c-4.681,0-8.477,3.795-8.477,8.477C101.867,182.421,105.663,186.216,110.344,186.216z"/>
	<path style="fill:#333333;" d="M344.289,172.653h37.295c4.681,0,8.477-3.795,8.477-8.477c0-1.91-0.64-3.668-1.707-5.085h18.659
		c4.681,0,8.477-3.795,8.477-8.477c0-4.681-3.795-8.477-8.477-8.477h-37.296c-4.681,0-8.477,3.795-8.477,8.477
		c0,1.91,0.64,3.668,1.707,5.085h-18.658c-4.681,0-8.477,3.795-8.477,8.477S339.608,172.653,344.289,172.653z"/>
</g>
</svg>