<?xml version="1.0" encoding="iso-8859-1"?>
<!-- Uploaded to: SVG Repo, www.svgrepo.com, Generator: SVG Repo Mixer Tools -->
<svg fill="#000000" height="800px" width="800px" version="1.1" id="Layer_1" xmlns="http://www.w3.org/2000/svg" xmlns:xlink="http://www.w3.org/1999/xlink" 
	 viewBox="0 0 512 512" xml:space="preserve">
<g>
	<g>
		<g>
			<path d="M478.83,72.017H331.707l-69.41-69.409c-3.478-3.477-9.115-3.477-12.593,0l-69.409,69.409H33.17
				c-4.919,0-8.904,3.987-8.904,8.904v422.174c0,4.917,3.985,8.904,8.904,8.904h445.66c4.919,0,8.904-3.987,8.904-8.904V80.921
				C487.734,76.004,483.747,72.017,478.83,72.017z M256,21.496l50.521,50.521H205.479L256,21.496z M457.333,89.825l-22.78,22.781
				H77.448L54.667,89.825H457.333z M429.337,130.414L429.337,130.414v323.19H82.663v-323.19H429.337z M42.074,102.418l22.781,22.781
				v333.621l-22.781,22.78V102.418z M54.667,494.192l22.781-22.78h357.106l22.78,22.78H54.667z M469.924,481.6l-22.78-22.781
				V125.199l22.78-22.78V481.6z"/>
			<path d="M131.518,425.394h248.963c4.919,0,8.904-3.987,8.904-8.904V167.527c0-4.917-3.985-8.904-8.904-8.904H131.518
				c-4.919,0-8.904,3.987-8.904,8.904V416.49C122.614,421.407,126.6,425.394,131.518,425.394z M140.422,176.431h231.155v231.155
				H140.422V176.431z"/>
		</g>
	</g>
</g>
</svg>