<?xml version="1.0" encoding="iso-8859-1"?>
<!-- Uploaded to: SVG Repo, www.svgrepo.com, Generator: SVG Repo Mixer Tools -->
<svg fill="#000000" height="800px" width="800px" version="1.1" id="Layer_1" xmlns="http://www.w3.org/2000/svg" xmlns:xlink="http://www.w3.org/1999/xlink" 
	 viewBox="0 0 512 512" xml:space="preserve">
<g>
	<g>
		<g>
			<path d="M248.643,288.888c1.68,2.4,4.427,3.83,7.359,3.83c2.932,0,5.677-1.43,7.359-3.83l88.521-126.41
				c2.294-3.276,2.146-7.674-0.364-10.789l-33.812-41.967c-1.704-2.116-4.276-3.348-6.995-3.348H201.292
				c-2.719,0-5.29,1.231-6.995,3.348l-33.812,41.967c-2.51,3.115-2.658,7.512-0.364,10.789L248.643,288.888z M274.068,242.275
				l16.27-75.968h36.928L274.068,242.275z M311.439,130.582l14.309,17.76h-26.004L311.439,130.582z M294.039,124.341l-10.887,16.533
				l-10.666-16.533H294.039z M256.001,131.928l10.588,16.414h-21.177L256.001,131.928z M271.964,166.308l-15.963,74.535
				l-15.964-74.535H271.964z M239.515,124.339l-10.667,16.534l-10.887-16.534H239.515z M200.561,130.582l11.695,17.76h-26.004
				L200.561,130.582z M221.663,166.308l16.271,75.968l-53.198-75.968H221.663z"/>
			<path d="M190.028,469.633h131.944c4.962,0,8.983-4.022,8.983-8.983v-57.488c0-4.961-4.021-8.983-8.983-8.983H190.028
				c-4.962,0-8.983,4.022-8.983,8.983v57.488C181.045,465.611,185.066,469.633,190.028,469.633z M199.011,412.144h113.979v39.522
				H199.011V412.144z"/>
			<path d="M503.017,485.188h-92.519V17.829c0-4.961-4.021-8.983-8.983-8.983h-291.03c-4.962,0-8.983,4.022-8.983,8.983v467.36
				H8.983c-4.962,0-8.983,4.022-8.983,8.983c0,4.961,4.021,8.983,8.983,8.983h494.034c4.962,0,8.983-4.022,8.983-8.983
				C512,489.21,507.979,485.188,503.017,485.188z M392.532,485.188H119.468V375.33h273.065V485.188z M178.751,357.364v-39.522
				h154.497v39.522H178.751z M392.532,357.365h-41.318V308.86c0-4.961-4.021-8.983-8.983-8.983H169.768
				c-4.962,0-8.983,4.022-8.983,8.983v48.505h-41.318V26.812h273.065V357.365z"/>
		</g>
	</g>
</g>
</svg>