<?xml version="1.0" encoding="iso-8859-1"?>
<!-- Uploaded to: SVG Repo, www.svgrepo.com, Generator: SVG Repo Mixer Tools -->
<svg version="1.1" id="Layer_1" xmlns="http://www.w3.org/2000/svg" xmlns:xlink="http://www.w3.org/1999/xlink" 
	 viewBox="0 0 512 512" xml:space="preserve">
<rect x="110.478" y="13.339" style="fill:#B8E6FF;" width="291.034" height="348.512"/>
<rect x="169.765" y="304.365" style="fill:#CCCCCC;" width="172.46" height="57.488"/>
<g>
	<polygon style="fill:#F2F2F2;" points="401.515,128.176 401.515,153.58 261.262,13.339 286.678,13.339 	"/>
	<polygon style="fill:#F2F2F2;" points="401.515,67.847 401.515,93.263 321.603,13.339 346.995,13.339 	"/>
	<polygon style="fill:#F2F2F2;" points="191.471,362.474 171.793,368.211 165.433,361.851 110.481,306.888 110.481,281.484 	"/>
</g>
<rect x="110.49" y="356.034" style="fill:#4D4D4D;" width="291.034" height="133.642"/>
<rect x="190.03" y="398.673" style="fill:#E09B2D;" width="131.941" height="57.488"/>
<rect x="199.612" y="408.255" style="fill:#F7B239;" width="112.777" height="38.325"/>
<path style="fill:#333333;" d="M503.017,498.661H8.983c-4.962,0-8.983-4.022-8.983-8.983c0-4.961,4.021-8.983,8.983-8.983h494.034
	c4.962,0,8.983,4.022,8.983,8.983C512,494.639,507.979,498.661,503.017,498.661z"/>
<g>
	<path style="fill:#CCCCCC;" d="M263.61,113.888l-37.477,37.477l-53.981,53.981c-1.749,1.749-4.048,2.635-6.348,2.635
		s-4.599-0.886-6.36-2.635c-3.497-3.509-3.497-9.198,0-12.708l84.583-84.571l6.887-6.887c1.497-1.485,3.366-2.348,5.306-2.575
		c2.635-0.299,5.366,0.551,7.39,2.575C267.119,104.689,267.119,110.378,263.61,113.888z"/>
	<path style="fill:#CCCCCC;" d="M339.857,182.265c-0.216,1.94-1.078,3.809-2.563,5.294l-6.887,6.887l-84.571,84.583
		c-1.761,1.749-4.06,2.623-6.36,2.623s-4.599-0.874-6.348-2.623c-3.509-3.509-3.509-9.198,0-12.708l53.969-53.981l37.489-37.489
		c3.509-3.497,9.198-3.497,12.708,0C339.318,176.876,340.168,179.618,339.857,182.265z"/>
	<path style="fill:#CCCCCC;" d="M263.61,187.559l-12.768,12.768l-63.455,63.455c-1.749,1.749-4.048,2.635-6.348,2.635
		s-4.599-0.886-6.348-2.635c-3.509-3.509-3.509-9.198,0-12.708l76.223-76.223c3.497-3.509,9.187-3.509,12.696,0
		C267.119,178.361,267.119,184.05,263.61,187.559z"/>
</g>
<g>
	<path style="fill:#B3B3B3;" d="M263.61,174.852c3.509,3.509,3.509,9.198,0,12.708l-12.768,12.768
		c-2.383-1.761-4.659-3.725-6.815-5.881s-4.12-4.444-5.893-6.815l12.78-12.78C254.411,171.342,260.1,171.342,263.61,174.852z"/>
	<path style="fill:#B3B3B3;" d="M263.61,101.18c3.509,3.509,3.509,9.198,0,12.708l-37.477,37.477
		c-0.024-15.666,5.941-31.344,17.894-43.298c3.737-3.737,7.833-6.887,12.193-9.462C258.855,98.305,261.586,99.156,263.61,101.18z"/>
	<path style="fill:#B3B3B3;" d="M339.857,182.265c-2.563,4.348-5.713,8.444-9.45,12.181c-11.965,11.965-27.643,17.93-43.31,17.894
		l37.489-37.489c3.509-3.497,9.198-3.497,12.708,0C339.318,176.876,340.168,179.618,339.857,182.265z"/>
</g>
<circle style="fill:#E6E6E6;" cx="294.1" cy="144.373" r="61.081"/>
<path style="fill:#CCCCCC;" d="M318.06,181.493c-33.734,0-61.081-27.346-61.081-61.081c0-10.708,2.763-20.767,7.604-29.518
	c-18.816,10.408-31.562,30.451-31.564,53.477c0,33.734,27.348,61.081,61.081,61.081c23.026,0,43.069-12.746,53.477-31.562
	C338.829,178.73,328.769,181.493,318.06,181.493z"/>
</svg>