<?xml version="1.0" encoding="iso-8859-1"?>
<!-- Uploaded to: SVG Repo, www.svgrepo.com, Generator: SVG Repo Mixer Tools -->
<svg fill="#000000" height="800px" width="800px" version="1.1" id="Layer_1" xmlns="http://www.w3.org/2000/svg" xmlns:xlink="http://www.w3.org/1999/xlink" 
	 viewBox="0 0 512 512" xml:space="preserve">
<g>
	<g>
		<g>
			<path d="M190.028,469.634h131.944c4.962,0,8.983-4.022,8.983-8.983v-57.488c0-4.961-4.022-8.983-8.983-8.983H190.028
				c-4.961,0-8.983,4.022-8.983,8.983v57.488C181.045,465.612,185.067,469.634,190.028,469.634z M199.011,412.144h113.979v39.522
				H199.011V412.144z"/>
			<path d="M503.017,485.19h-92.519V366.348V17.829c0-4.961-4.021-8.983-8.983-8.983h-291.03c-4.961,0-8.983,4.022-8.983,8.983
				v348.518v118.841H8.983c-4.961,0-8.983,4.022-8.983,8.983c0,4.961,4.022,8.983,8.983,8.983h494.034
				c4.962,0,8.983-4.022,8.983-8.983C512,489.21,507.979,485.19,503.017,485.19z M392.532,485.19H119.468V375.331h273.065V485.19z
				 M392.532,357.364H119.468V26.812h273.065V357.364z"/>
			<path d="M163.482,264.432c-4.961,0-8.983,4.022-8.983,8.983v14.367h-13.476c-4.961,0-8.983,4.022-8.983,8.983
				s4.022,8.983,8.983,8.983h13.476v14.376c0,4.961,4.022,8.983,8.983,8.983H348.52c4.962,0,8.983-4.022,8.983-8.983v-14.376h13.471
				c4.962,0,8.983-4.022,8.983-8.983c0-4.961-4.021-8.983-8.983-8.983h-13.471v-14.367c0-4.961-4.021-8.983-8.983-8.983h-6.287
				V127.899h6.287c4.962,0,8.983-4.022,8.983-8.983V104.54h13.471c4.962,0,8.983-4.022,8.983-8.983s-4.021-8.983-8.983-8.983
				h-13.471V72.208c0-4.961-4.021-8.983-8.983-8.983H163.482c-4.961,0-8.983,4.022-8.983,8.983v14.367h-13.476
				c-4.961,0-8.983,4.022-8.983,8.983s4.022,8.983,8.983,8.983h13.476v14.376c0,4.961,4.022,8.983,8.983,8.983h6.287v136.533
				H163.482z M172.464,81.19h167.072v28.743H178.751h-6.287V81.19z M324.267,127.899v136.533H187.734V127.899H324.267z
				 M172.464,282.398h6.287h160.785v28.743H172.464V282.398z"/>
			<path d="M211.986,162.033h88.029c4.962,0,8.983-4.022,8.983-8.983c0-4.961-4.021-8.983-8.983-8.983h-88.029
				c-4.961,0-8.983,4.022-8.983,8.983C203.003,158.011,207.025,162.033,211.986,162.033z"/>
			<path d="M211.986,190.777h88.029c4.962,0,8.983-4.022,8.983-8.983c0-4.961-4.021-8.983-8.983-8.983h-88.029
				c-4.961,0-8.983,4.022-8.983,8.983C203.003,186.755,207.025,190.777,211.986,190.777z"/>
			<path d="M211.986,219.52h88.029c4.962,0,8.983-4.022,8.983-8.983s-4.021-8.983-8.983-8.983h-88.029
				c-4.961,0-8.983,4.022-8.983,8.983S207.025,219.52,211.986,219.52z"/>
			<path d="M211.986,248.264h88.029c4.962,0,8.983-4.022,8.983-8.983c0-4.961-4.021-8.983-8.983-8.983h-88.029
				c-4.961,0-8.983,4.022-8.983,8.983C203.003,244.242,207.025,248.264,211.986,248.264z"/>
		</g>
	</g>
</g>
</svg>