<?xml version="1.0" encoding="iso-8859-1"?>
<!-- Uploaded to: SVG Repo, www.svgrepo.com, Generator: SVG Repo Mixer Tools -->
<svg version="1.1" id="Layer_1" xmlns="http://www.w3.org/2000/svg" xmlns:xlink="http://www.w3.org/1999/xlink" 
	 viewBox="0 0 512 512" xml:space="preserve">
<g>
	<rect x="128.093" y="170.326" style="fill:#B27214;" width="232.402" height="171.341"/>
	<rect y="209.164" style="fill:#B27214;" width="93.44" height="132.504"/>
	<rect x="392.072" y="209.164" style="fill:#B27214;" width="119.928" height="132.504"/>
</g>
<g>
	<polygon style="fill:#995C0D;" points="360.496,170.332 360.496,177.525 334.483,203.549 327.279,196.344 353.303,170.332 	"/>
	<polygon style="fill:#995C0D;" points="161.298,196.344 154.106,203.549 128.093,177.536 128.093,170.332 135.286,170.332 	"/>
	<polygon style="fill:#995C0D;" points="161.298,315.661 135.286,341.674 128.093,341.674 128.093,334.469 154.106,308.457 	"/>
	<polygon style="fill:#995C0D;" points="360.496,334.481 360.496,341.674 353.303,341.674 327.279,315.661 334.483,308.457 	"/>
	<polygon style="fill:#995C0D;" points="93.44,334.469 93.44,341.674 86.248,341.674 60.235,315.661 67.428,308.457 	"/>
	<polygon style="fill:#995C0D;" points="33.205,315.661 7.193,341.674 0,341.674 0,334.481 26.012,308.457 	"/>
	<polygon style="fill:#995C0D;" points="33.205,235.182 26.012,242.386 0,216.362 0,209.17 7.193,209.17 	"/>
	<polygon style="fill:#995C0D;" points="93.44,209.17 93.44,216.374 67.428,242.386 60.235,235.182 86.248,209.17 	"/>
	<polygon style="fill:#995C0D;" points="512,334.469 512,341.674 504.807,341.674 478.795,315.661 485.988,308.457 	"/>
	<polygon style="fill:#995C0D;" points="425.277,315.661 399.265,341.674 392.072,341.674 392.072,334.469 418.085,308.457 	"/>
	<polygon style="fill:#995C0D;" points="425.277,235.182 418.085,242.386 392.072,216.374 392.072,209.17 399.265,209.17 	"/>
	<polygon style="fill:#995C0D;" points="512,209.17 512,216.374 485.988,242.386 478.795,235.182 504.807,209.17 	"/>
</g>
<rect x="154.106" y="196.35" style="fill:#2BA5F7;" width="180.378" height="119.306"/>
<rect x="13.572" y="222.747" style="fill:#F7B239;" width="66.297" height="105.35"/>
<rect x="405.644" y="222.747" style="fill:#9AD14B;" width="92.796" height="105.35"/>
</svg>