<?xml version="1.0" encoding="iso-8859-1"?>
<!-- Uploaded to: SVG Repo, www.svgrepo.com, Generator: SVG Repo Mixer Tools -->
<svg version="1.1" id="Layer_1" xmlns="http://www.w3.org/2000/svg" xmlns:xlink="http://www.w3.org/1999/xlink" 
	 viewBox="0 0 512 512" xml:space="preserve">
<rect x="73.862" y="8.713" style="fill:#B27214;" width="364.279" height="494.577"/>
<rect x="118.181" y="53.032" style="fill:#F7B239;" width="275.652" height="405.938"/>
<path style="fill:#FFFFFF;" d="M176.924,247.287c0,41.704,33.807,75.511,75.511,75.511s75.511-33.808,75.511-75.511L176.924,247.287
	L176.924,247.287z"/>
<path style="fill:#CCCCCC;" d="M216.423,247.287h-39.498c0,41.703,33.808,75.511,75.511,75.511c6.836,0,13.451-0.924,19.749-2.627
	C240.064,311.488,216.423,282.155,216.423,247.287z"/>
<g>
	<path style="fill:#995C0D;" d="M262.202,228.7c-4.812,0-8.713-3.901-8.713-8.713c0-15.941,3.429-24.343,6.454-31.754
		c2.77-6.787,5.163-12.649,5.163-25.17c0-4.812,3.901-8.713,8.713-8.713s8.713,3.901,8.713,8.713
		c0,15.941-3.429,24.343-6.454,31.754c-2.77,6.787-5.163,12.649-5.163,25.17C270.915,224.799,267.014,228.7,262.202,228.7z"/>
	<path style="fill:#995C0D;" d="M231.053,228.7c-4.812,0-8.713-3.901-8.713-8.713c0-15.941,3.429-24.343,6.454-31.754
		c2.77-6.787,5.163-12.649,5.163-25.17c0-4.812,3.901-8.713,8.713-8.713s8.713,3.901,8.713,8.713
		c0,15.941-3.429,24.343-6.454,31.754c-2.77,6.787-5.163,12.649-5.163,25.17C239.766,224.799,235.865,228.7,231.053,228.7z"/>
</g>
<g>
	<path style="fill:#333333;" d="M438.142,0H73.858c-4.812,0-8.713,3.901-8.713,8.713v494.574c0,4.812,3.901,8.713,8.713,8.713
		h364.283c4.812,0,8.713-3.901,8.713-8.713V8.713C446.855,3.901,442.954,0,438.142,0z M390.213,44.319H121.786L94.892,17.426
		h322.214L390.213,44.319z M385.109,61.745v388.51h-258.22V61.745H385.109z M109.464,56.641v398.718l-26.893,26.893V29.747
		L109.464,56.641z M121.786,467.681h268.428l26.894,26.893H94.892L121.786,467.681z M402.535,455.359V56.641l26.894-26.894v452.505
		L402.535,455.359z"/>
	<path style="fill:#333333;" d="M252.437,331.511c23.065,0,43.987-9.325,59.213-24.396h14.348c21.254,0,38.546-17.291,38.546-38.546
		c0-16.539-13.456-29.995-29.995-29.995h-6.599H176.927c-4.812,0-8.713,3.901-8.713,8.713
		C168.213,293.728,205.995,331.511,252.437,331.511z M347.117,268.57c0,11.645-9.474,21.12-21.12,21.12h-0.834
		c5.886-10.058,9.761-21.428,11.033-33.569C342.348,256.933,347.117,262.199,347.117,268.57z M318.67,256
		c-4.282,32.732-32.353,58.086-66.233,58.086S190.485,288.732,186.204,256L318.67,256L318.67,256z"/>
	<path style="fill:#333333;" d="M317.493,340.224H187.381c-4.812,0-8.713,3.901-8.713,8.713c0,4.812,3.901,8.713,8.713,8.713
		h130.112c4.812,0,8.713-3.901,8.713-8.713C326.206,344.125,322.305,340.224,317.493,340.224z"/>
</g>
</svg>