<?xml version="1.0" encoding="iso-8859-1"?>
<!-- Uploaded to: SVG Repo, www.svgrepo.com, Generator: SVG Repo Mixer Tools -->
<svg version="1.1" id="Layer_1" xmlns="http://www.w3.org/2000/svg" xmlns:xlink="http://www.w3.org/1999/xlink" 
	 viewBox="0 0 512 512" xml:space="preserve">
<rect x="110.49" y="17.828" style="fill:#B8E6FF;" width="291.034" height="348.524"/>
<rect x="110.49" y="366.345" style="fill:#4D4D4D;" width="291.034" height="127.821"/>
<rect x="169.765" y="308.855" style="fill:#CCCCCC;" width="172.46" height="57.488"/>
<path style="fill:#808080;" d="M342.232,375.329H169.768c-4.962,0-8.983-4.022-8.983-8.983v-57.488c0-4.961,4.021-8.983,8.983-8.983
	h172.463c4.962,0,8.983,4.022,8.983,8.983v57.488C351.215,371.307,347.194,375.329,342.232,375.329z M178.751,357.364h154.497
	v-39.522H178.751V357.364z"/>
<rect x="190.03" y="403.163" style="fill:#F7B239;" width="131.941" height="57.488"/>
<g>
	
		<rect x="247.558" y="72.616" transform="matrix(-0.7071 -0.7071 0.7071 -0.7071 518.8682 378.1208)" style="fill:#F2F2F2;" width="180.375" height="17.966"/>
	
		<rect x="320.496" y="42.158" transform="matrix(-0.7071 -0.7071 0.7071 -0.7071 591.3843 347.2419)" style="fill:#F2F2F2;" width="94.224" height="17.966"/>
	
		<rect x="97.716" y="324.048" transform="matrix(-0.7071 -0.7071 0.7071 -0.7071 11.7484 670.9286)" style="fill:#F2F2F2;" width="94.224" height="17.966"/>
</g>
<g>
	<path style="fill:#333333;" d="M321.972,394.178H190.028c-4.962,0-8.983,4.022-8.983,8.983v57.488c0,4.961,4.021,8.983,8.983,8.983
		h131.944c4.962,0,8.983-4.022,8.983-8.983v-57.488C330.955,398.2,326.934,394.178,321.972,394.178z M312.989,451.666H199.011
		v-39.522h113.979V451.666z"/>
	<path style="fill:#333333;" d="M503.017,485.188h-92.519V366.347V17.828c0-4.961-4.021-8.983-8.983-8.983h-291.03
		c-4.962,0-8.983,4.022-8.983,8.983v348.52v118.841H8.983c-4.962,0-8.983,4.022-8.983,8.983c0,4.961,4.021,8.983,8.983,8.983
		h494.034c4.962,0,8.983-4.022,8.983-8.983C512,489.211,507.979,485.188,503.017,485.188z M119.468,26.811h273.065v330.554H119.468
		V26.811z M119.468,375.329h273.065v109.858H119.468V375.329z"/>
</g>
<polygon style="fill:#2BA5F7;" points="256.001,283.735 167.478,157.324 201.291,115.357 310.71,115.357 344.522,157.324 "/>
<polygon style="fill:#1788BA;" points="256.004,115.362 283.073,157.33 228.924,157.33 "/>
<polygon style="fill:#2BA5F7;" points="201.292,115.362 228.924,157.33 167.481,157.33 "/>
<g>
	<polygon style="fill:#66C3F7;" points="310.704,115.362 283.073,157.33 256.004,115.362 	"/>
	<polygon style="fill:#66C3F7;" points="344.528,157.33 256.004,283.737 283.073,157.33 	"/>
	<polygon style="fill:#66C3F7;" points="256.004,115.362 228.924,157.33 201.292,115.362 	"/>
</g>
<polygon style="fill:#1788BA;" points="228.924,157.33 256.004,283.737 167.481,157.33 "/>
<path style="fill:#4D4D4D;" d="M248.643,288.888c1.68,2.4,4.427,3.83,7.359,3.83s5.677-1.43,7.359-3.83l88.521-126.41
	c2.294-3.276,2.146-7.674-0.364-10.789l-33.812-41.967c-1.704-2.116-4.276-3.348-6.995-3.348H201.292
	c-2.719,0-5.29,1.231-6.995,3.348l-33.812,41.967c-2.51,3.115-2.658,7.512-0.364,10.789L248.643,288.888z M271.964,166.307
	l-15.963,74.535l-15.964-74.535H271.964z M245.412,148.341l10.589-16.414l10.588,16.414H245.412z M290.338,166.307h36.928
	l-53.198,75.968L290.338,166.307z M299.745,148.341l11.695-17.76l14.309,17.76H299.745z M283.152,140.873l-10.666-16.533h21.553
	L283.152,140.873z M228.848,140.873l-10.887-16.535h21.554L228.848,140.873z M212.255,148.341h-26.004l14.309-17.76L212.255,148.341
	z M221.663,166.307l16.271,75.968l-53.198-75.968H221.663z"/>
</svg>