<?xml version="1.0" encoding="iso-8859-1"?>
<!-- Uploaded to: SVG Repo, www.svgrepo.com, Generator: SVG Repo Mixer Tools -->
<svg fill="#000000" height="800px" width="800px" version="1.1" id="Layer_1" xmlns="http://www.w3.org/2000/svg" xmlns:xlink="http://www.w3.org/1999/xlink" 
	 viewBox="0 0 512 512" xml:space="preserve">
<g>
	<g>
		<g>
			<path d="M502.463,155.214c5.267,0,9.537-4.27,9.537-9.537v-26.37c0-5.267-4.27-9.537-9.537-9.537H9.537
				C4.27,109.77,0,114.04,0,119.307v26.37c0,5.267,4.27,9.537,9.537,9.537c9.207,0,16.697,7.491,16.697,16.697
				c0,9.206-7.49,16.697-16.697,16.697c-5.267,0-9.537,4.27-9.537,9.537v31.621c0,5.267,4.27,9.537,9.537,9.537
				c9.207,0,16.697,7.491,16.697,16.697c0,9.206-7.49,16.698-16.697,16.698c-5.267,0-9.537,4.27-9.537,9.537v31.621
				c0,5.267,4.27,9.537,9.537,9.537c9.207,0,16.697,7.491,16.697,16.697c0,9.207-7.491,16.697-16.697,16.697
				c-5.267,0-9.537,4.27-9.537,9.537v26.37c0,5.267,4.27,9.537,9.537,9.537h492.927c5.267,0,9.537-4.27,9.537-9.537v-26.37
				c0-5.267-4.27-9.537-9.537-9.537c-9.207,0-16.697-7.491-16.697-16.697c0-9.206,7.491-16.697,16.697-16.697
				c5.267,0,9.537-4.27,9.537-9.537v-31.621c0-5.267-4.27-9.537-9.537-9.537c-9.207,0-16.697-7.491-16.697-16.697
				s7.491-16.697,16.697-16.697c5.267,0,9.537-4.27,9.537-9.537v-31.621c0-5.267-4.27-9.537-9.537-9.537
				c-9.207,0-16.697-7.491-16.697-16.697C485.766,162.706,493.256,155.214,502.463,155.214z M492.926,206.39v15.129
				c-15.11,4.183-26.234,18.058-26.234,34.48s11.125,30.296,26.234,34.48v15.129c-15.11,4.183-26.234,18.056-26.234,34.48
				s11.125,30.296,26.234,34.48v8.587H19.074v-8.587c15.11-4.184,26.234-18.058,26.234-34.48c0-16.422-11.124-30.294-26.234-34.477
				v-15.129c15.11-4.183,26.234-18.058,26.234-34.48s-11.124-30.298-26.234-34.481v-15.129c15.11-4.183,26.234-18.058,26.234-34.48
				s-11.124-30.298-26.234-34.481v-8.587h473.853v8.587c-15.11,4.183-26.234,18.058-26.234,34.48
				C466.693,188.333,477.816,202.207,492.926,206.39z"/>
			<path d="M441.737,139.529H70.263c-5.267,0-9.537,4.27-9.537,9.537v213.87c0,5.267,4.27,9.537,9.537,9.537h371.474
				c5.267,0,9.537-4.27,9.537-9.537v-213.87C451.274,143.799,447.004,139.529,441.737,139.529z M432.2,353.399H79.8V158.602h352.4
				V353.399z"/>
			<path d="M294.302,222.94H396.66c5.267,0,9.537-4.27,9.537-9.537s-4.27-9.537-9.537-9.537H294.302
				c-5.267,0-9.537,4.27-9.537,9.537S289.035,222.94,294.302,222.94z"/>
			<path d="M294.302,308.135H396.66c5.267,0,9.537-4.27,9.537-9.537s-4.27-9.537-9.537-9.537H294.302
				c-5.267,0-9.537,4.27-9.537,9.537S289.035,308.135,294.302,308.135z"/>
			<path d="M294.302,265.537h67.94c5.267,0,9.537-4.27,9.537-9.537s-4.27-9.537-9.537-9.537h-67.94c-5.267,0-9.537,4.27-9.537,9.537
				S289.035,265.537,294.302,265.537z"/>
			<path d="M111.692,268.237c1.375,14.881,10.891,28.61,25.864,37.383v12.684c0,5.267,4.27,9.537,9.537,9.537h56.787
				c5.267,0,9.537-4.27,9.537-9.537V305.62c14.973-8.773,24.489-22.502,25.864-37.383l16.107-18.995
				c6.143-7.245,7.479-17.101,3.487-25.721c-3.993-8.62-12.374-13.975-21.874-13.975h-23.885l2.196-14.413
				c0.418-2.748-0.383-5.543-2.195-7.651s-4.453-3.321-7.233-3.321h-60.795c-2.781,0-5.422,1.213-7.233,3.321
				c-1.811,2.108-2.613,4.903-2.195,7.651l2.196,14.413h-23.886c-9.499,0-17.881,5.355-21.872,13.973
				c-3.993,8.62-2.656,18.476,3.487,25.723L111.692,268.237z M237,228.621c2.902-0.001,4.161,2.04,4.566,2.916
				c0.406,0.877,1.148,3.156-0.727,5.37l-6.447,7.604c-3.142-5.926-7.664-11.314-13.365-15.89H237z M153.808,236.651
				c4.125-1.64,6.57-5.909,5.903-10.297l-3.522-23.121h38.596l-3.522,23.121c-0.668,4.387,1.778,8.656,5.901,10.297
				c14.332,5.704,23.234,16.38,23.234,27.861c0,10.728-7.68,20.711-20.545,26.704c-3.361,1.565-5.51,4.938-5.51,8.644v8.906h-37.714
				v-8.906c0-3.708-2.149-7.079-5.51-8.644c-12.866-5.993-20.546-15.976-20.546-26.704
				C130.574,253.032,139.476,242.355,153.808,236.651z M109.406,231.537c0.407-0.877,1.664-2.917,4.566-2.917h15.975
				c-5.702,4.575-10.223,9.965-13.365,15.89l-6.447-7.603C108.256,234.694,108.999,232.414,109.406,231.537z"/>
		</g>
	</g>
</g>
</svg>