<?xml version="1.0" encoding="iso-8859-1"?>
<!-- Uploaded to: SVG Repo, www.svgrepo.com, Generator: SVG Repo Mixer Tools -->
<svg fill="#000000" height="800px" width="800px" version="1.1" id="Layer_1" xmlns="http://www.w3.org/2000/svg" xmlns:xlink="http://www.w3.org/1999/xlink" 
	 viewBox="0 0 512 512" xml:space="preserve">
<g>
	<g>
		<g>
			<path d="M321.972,394.18H190.028c-4.962,0-8.983,4.022-8.983,8.983v57.488c0,4.961,4.021,8.983,8.983,8.983h131.944
				c4.962,0,8.983-4.022,8.983-8.983v-57.488C330.955,398.202,326.934,394.18,321.972,394.18z M312.989,451.668H199.011v-39.522
				h113.979V451.668z"/>
			<path d="M503.017,485.19h-92.519V366.348V17.829c0-4.961-4.021-8.983-8.983-8.983h-291.03c-4.962,0-8.983,4.022-8.983,8.983
				v348.518v118.841H8.983c-4.962,0-8.983,4.022-8.983,8.983c0,4.961,4.021,8.983,8.983,8.983h494.034
				c4.962,0,8.983-4.022,8.983-8.983C512,489.21,507.979,485.19,503.017,485.19z M392.532,485.19H119.468V375.331h50.301h172.463
				h50.301V485.19z M178.751,357.365v-39.522h154.497v39.522H178.751z M392.532,357.364h-41.318v-48.505
				c0-4.961-4.021-8.983-8.983-8.983H169.768c-4.962,0-8.983,4.022-8.983,8.983v48.505h-41.318V26.812h273.065V357.364z"/>
			<path d="M256.001,266.504c17.172,0,31.141-13.97,31.141-31.141c0-17.171-13.969-31.141-31.141-31.141
				s-31.141,13.97-31.141,31.141C224.86,252.534,238.829,266.504,256.001,266.504z M256.001,222.188
				c7.264,0,13.175,5.911,13.175,13.175c0,7.264-5.91,13.175-13.175,13.175c-7.264,0-13.175-5.911-13.175-13.175
				C242.826,228.099,248.736,222.188,256.001,222.188z"/>
			<path d="M179.949,232.369c2.071,0,4.07-0.292,5.987-0.788v35.329c0,12.828,10.437,23.263,23.264,23.263H302.8
				c12.828,0,23.263-10.436,23.263-23.263v-35.33c1.918,0.497,3.918,0.788,5.989,0.788c13.208,0,23.954-10.746,23.954-23.954v-32.34
				v-69.799c0-32.177-26.177-58.355-58.355-58.355h-83.303c-32.177,0-58.355,26.177-58.355,58.355v69.801v32.34
				C155.995,221.623,166.741,232.369,179.949,232.369z M308.098,266.91c0,2.921-2.376,5.298-5.298,5.298h-93.599
				c-2.921,0-5.299-2.376-5.299-5.298v-68.676h104.196V266.91z M308.098,180.268H203.902v-68.039c0-2.921,2.376-5.298,5.299-5.298
				H302.8c2.92,0,5.298,2.376,5.298,5.298V180.268z M338.041,208.415c0,3.302-2.687,5.989-5.989,5.989
				c-3.302,0-5.989-2.686-5.989-5.989v-32.34c0-3.302,2.687-5.989,5.989-5.989c3.302,0,5.989,2.687,5.989,5.989V208.415z
				 M173.962,106.274c-0.001-22.27,18.118-40.388,40.388-40.388h83.303c22.27,0,40.389,18.118,40.389,40.389v46.636
				c-1.918-0.497-3.918-0.788-5.989-0.788s-4.071,0.292-5.989,0.788v-40.682c0-12.828-10.436-23.263-23.263-23.263h-93.599
				c-12.828,0-23.265,10.436-23.265,23.263v40.681c-1.918-0.496-3.917-0.788-5.987-0.788c-2.071,0-4.071,0.292-5.989,0.788V106.274z
				 M173.96,176.076c0-3.303,2.686-5.989,5.989-5.989s5.987,2.686,5.987,5.989v32.34c0,3.302-2.685,5.989-5.987,5.989
				c-3.302,0-5.989-2.686-5.989-5.989V176.076z"/>
		</g>
	</g>
</g>
</svg>