<?xml version="1.0" encoding="iso-8859-1"?>
<!-- Uploaded to: SVG Repo, www.svgrepo.com, Generator: SVG Repo Mixer Tools -->
<svg version="1.1" id="Layer_1" xmlns="http://www.w3.org/2000/svg" xmlns:xlink="http://www.w3.org/1999/xlink" 
	 viewBox="0 0 512 512" xml:space="preserve">
<rect x="110.478" y="13.339" style="fill:#B8E6FF;" width="291.034" height="348.512"/>
<rect x="169.765" y="304.365" style="fill:#CCCCCC;" width="172.46" height="57.488"/>
<g>
	<polygon style="fill:#F2F2F2;" points="401.515,67.847 401.515,93.263 321.603,13.339 346.995,13.339 	"/>
	<polygon style="fill:#F2F2F2;" points="191.471,362.474 171.793,368.211 165.433,361.851 110.481,306.888 110.481,281.484 	"/>
</g>
<rect x="110.49" y="356.034" style="fill:#4D4D4D;" width="291.034" height="133.642"/>
<rect x="190.03" y="398.673" style="fill:#E09B2D;" width="131.941" height="57.488"/>
<rect x="199.612" y="408.255" style="fill:#F7B239;" width="112.777" height="38.325"/>
<path style="fill:#333333;" d="M503.017,498.661H8.983c-4.962,0-8.983-4.022-8.983-8.983c0-4.961,4.021-8.983,8.983-8.983h494.034
	c4.962,0,8.983,4.022,8.983,8.983C512,494.639,507.979,498.661,503.017,498.661z"/>
<g>
	<path style="fill:#CCCCCC;" d="M256.004,208.711c12.229,0,22.158,9.917,22.158,22.158c0,12.241-9.929,22.158-22.158,22.158
		c-12.241,0-22.158-9.917-22.158-22.158C233.846,218.628,243.764,208.711,256.004,208.711z"/>
	<path style="fill:#CCCCCC;" d="M317.076,107.731v77.025H194.921v-77.025c0-1.689,0.299-3.306,0.838-4.815v-0.012
		c1.988-5.498,7.246-9.45,13.438-9.45h93.602C310.692,93.454,317.076,99.85,317.076,107.731z"/>
</g>
<path style="fill:#666666;" d="M317.076,203.92v58.497c0,7.881-6.384,14.277-14.277,14.277h-93.602
	c-7.881,0-14.277-6.396-14.277-14.277V203.92v-19.164h122.155V203.92z M278.162,230.869c0-12.241-9.929-22.158-22.158-22.158
	c-12.241,0-22.158,9.917-22.158,22.158c0,12.241,9.917,22.158,22.158,22.158C268.233,253.027,278.162,243.11,278.162,230.869z"/>
<g>
	<path style="fill:#F9C067;" d="M194.92,184.757v19.164c0,8.264-6.707,14.971-14.971,14.971c-8.264,0-14.971-6.707-14.971-14.971
		v-32.338c0-4.132,1.677-7.881,4.384-10.588c2.707-2.707,6.456-4.384,10.588-4.384c8.264,0,14.971,6.707,14.971,14.971V184.757z"/>
	<path style="fill:#F9C067;" d="M347.019,171.582v32.338c0,8.264-6.695,14.971-14.971,14.971c-8.264,0-14.971-6.707-14.971-14.971
		v-19.164v-13.175c0-4.132,1.677-7.881,4.384-10.588c2.719-2.707,6.456-4.384,10.588-4.384
		C340.324,156.61,347.019,163.317,347.019,171.582z"/>
</g>
<path style="fill:#4D4D4D;" d="M256.004,262.01c-17.172,0-31.141-13.97-31.141-31.141s13.969-31.141,31.141-31.141
	c17.172,0,31.141,13.97,31.141,31.141S273.176,262.01,256.004,262.01z M256.004,217.694c-7.264,0-13.175,5.911-13.175,13.175
	s5.911,13.175,13.175,13.175c7.264,0,13.175-5.911,13.175-13.175S263.27,217.694,256.004,217.694z"/>
<g>
	<polygon style="fill:#F2F2F2;" points="317.076,172.971 237.559,93.454 212.156,93.454 303.47,184.757 317.076,184.757 	"/>
	<path style="fill:#F2F2F2;" d="M277.599,184.757h-25.404l-57.275-57.275v-19.75c0-1.689,0.299-3.306,0.838-4.815L277.599,184.757z"
		/>
</g>
<path style="fill:#666666;" d="M355.016,195.337c-4.962,0-8.983-4.022-8.983-8.983V108.24c0-25.832-21.016-46.849-46.849-46.849
	h-86.368c-25.831,0-46.848,21.016-46.848,46.849v78.114c0,4.961-4.021,8.983-8.983,8.983s-8.983-4.022-8.983-8.983V108.24
	c0-35.739,29.075-64.815,64.813-64.815h86.368c35.739,0,64.815,29.076,64.815,64.815v78.114
	C363.999,191.315,359.978,195.337,355.016,195.337z"/>
<polygon style="fill:#F2F2F2;" points="401.515,128.176 401.515,153.58 261.262,13.339 286.678,13.339 "/>
</svg>