<?xml version="1.0" encoding="iso-8859-1"?>
<!-- Uploaded to: SVG Repo, www.svgrepo.com, Generator: SVG Repo Mixer Tools -->
<svg version="1.1" id="Layer_1" xmlns="http://www.w3.org/2000/svg" xmlns:xlink="http://www.w3.org/1999/xlink" 
	 viewBox="0 0 511.992 511.992" xml:space="preserve">
<path style="fill:#333333;" d="M324.075,90.348l-68.08-68.081l-68.081,68.081l-13.045-13.043l74.603-74.603
	c3.603-3.602,9.443-3.602,13.045,0l74.603,74.603L324.075,90.348z"/>
<rect x="26.021" y="72.409" style="fill:#995C0D;" width="459.949" height="439.584"/>
<g>
	<polygon style="fill:#B27214;" points="66.215,125.305 36.811,95.9 36.811,488.508 66.215,459.102 	"/>
	<polygon style="fill:#B27214;" points="433.067,112.6 462.47,83.195 49.526,83.195 78.93,112.6 	"/>
	<polygon style="fill:#B27214;" points="445.784,125.314 445.784,459.094 475.187,488.497 475.187,95.911 	"/>
	<polygon style="fill:#B27214;" points="78.928,471.811 49.526,501.213 462.47,501.213 433.069,471.811 	"/>
</g>
<rect x="83.749" y="130.483" style="fill:#FFFFFF;" width="344.495" height="320.169"/>
<rect x="127.05" y="161.609" style="fill:#4D4D4D;" width="257.904" height="257.904"/>
</svg>