<?xml version="1.0" encoding="iso-8859-1"?>
<!-- Uploaded to: SVG Repo, www.svgrepo.com, Generator: SVG Repo Mixer Tools -->
<svg version="1.1" id="Layer_1" xmlns="http://www.w3.org/2000/svg" xmlns:xlink="http://www.w3.org/1999/xlink" 
	 viewBox="0 0 512.001 512.001" xml:space="preserve">
<path style="fill:#666666;" d="M341.892,170.289h-18.069v-38.091c0-62.932-51.199-114.131-114.129-114.131
	c-62.932,0-114.131,51.199-114.131,114.131v38.091H77.495v-38.091C77.496,59.303,136.799,0,209.694,0s132.198,59.303,132.198,132.2
	V170.289z"/>
<path style="fill:#999999;" d="M264.099,341.382c33.632-18.898,54.526-54.601,54.526-93.178v-13.9c0-3.326-2.696-6.023-6.023-6.023
	c-3.327,0-6.023,2.697-6.023,6.023v13.9c0,34.23-18.539,65.909-48.38,82.676c-22.991,12.917-40.024,33.69-48.504,57.865
	c-8.48-24.174-25.512-44.947-48.503-57.865c-29.843-16.767-48.381-48.448-48.381-82.676v-13.9c0-3.326-2.697-6.023-6.023-6.023
	s-6.023,2.697-6.023,6.023v13.9c0,38.577,20.894,74.281,54.526,93.179c29.843,16.766,48.381,48.445,48.381,82.676v7.832l0,0
	c0,26.235,21.344,47.579,47.58,47.579h47.691c3.327,0,6.023-2.697,6.023-6.023c0-3.326-2.696-6.023-6.023-6.023h-47.691
	c-19.594,0-35.534-15.94-35.534-35.534v-7.832C215.717,389.83,234.256,358.149,264.099,341.382z"/>
<g>
	<path style="fill:#666666;" d="M345.264,170.292c12.082,0,21.875,9.793,21.875,21.875c0,6.035-2.445,11.504-6.408,15.467
		c-3.951,3.963-9.42,6.408-15.467,6.408h-12.407v-43.751L345.264,170.292L345.264,170.292z"/>
	<path style="fill:#666666;" d="M86.529,170.292v43.751H74.134c-12.082,0-21.887-9.793-21.887-21.875
		c0-6.035,2.445-11.504,6.408-15.467c3.963-3.963,9.432-6.408,15.479-6.408L86.529,170.292L86.529,170.292z"/>
</g>
<rect x="298.953" y="429.486" style="fill:#F95428;" width="160.801" height="82.515"/>
<g>
	<path style="fill:#F7B239;" d="M332.857,170.292v43.751c0,11.191-9.071,20.261-20.249,20.261c-11.191,0-20.261-9.071-20.261-20.261
		v-43.751c0-5.601,2.265-10.661,5.939-14.323c3.662-3.674,8.721-5.939,14.323-5.939
		C323.786,150.031,332.857,159.102,332.857,170.292z"/>
	<path style="fill:#F7B239;" d="M127.052,170.292v43.751c0,11.191-9.071,20.261-20.261,20.261s-20.261-9.071-20.261-20.261v-43.751
		c0-5.601,2.265-10.661,5.939-14.323c3.662-3.674,8.721-5.939,14.323-5.939C117.981,150.031,127.052,159.102,127.052,170.292z"/>
</g>
<g>
	<path style="fill:#666666;" d="M330.92,494.231c-4.991,0-9.034-4.045-9.034-9.034v-28.908c0-4.989,4.044-9.034,9.034-9.034
		s9.034,4.045,9.034,9.034v28.909C339.954,490.186,335.909,494.231,330.92,494.231z"/>
	<path style="fill:#666666;" d="M358.022,494.231c-4.991,0-9.034-4.045-9.034-9.034v-28.908c0-4.989,4.044-9.034,9.034-9.034
		c4.991,0,9.034,4.045,9.034,9.034v28.909C367.056,490.186,363.013,494.231,358.022,494.231z"/>
</g>
<g>
	<circle style="fill:#F7B239;" cx="426.677" cy="485.199" r="9.034"/>
	<circle style="fill:#F7B239;" cx="426.677" cy="456.289" r="9.034"/>
</g>
</svg>