<?xml version="1.0" encoding="iso-8859-1"?>
<!-- Uploaded to: SVG Repo, www.svgrepo.com, Generator: SVG Repo Mixer Tools -->
<svg fill="#000000" height="800px" width="800px" version="1.1" id="Layer_1" xmlns="http://www.w3.org/2000/svg" xmlns:xlink="http://www.w3.org/1999/xlink" 
	 viewBox="0 0 512.003 512.003" xml:space="preserve">
<g>
	<g>
		<g>
			<path d="M390.138,261.016c-12.113-12.112-28.215-18.782-45.342-18.782c-17.128,0-33.231,6.67-45.341,18.782
				c-12.113,12.112-18.783,28.214-18.783,45.341s6.67,33.231,18.782,45.341c12.112,12.11,28.214,18.782,45.342,18.782
				c17.127,0,33.229-6.67,45.342-18.782C415.138,326.698,415.138,286.018,390.138,261.016z M378.015,339.578
				c-8.874,8.874-20.671,13.761-33.218,13.761c-12.548,0-24.347-4.887-33.219-13.761c-8.873-8.874-13.76-20.67-13.76-33.219
				s4.887-24.345,13.761-33.219c8.873-8.874,20.67-13.76,33.218-13.76c12.548,0,24.345,4.887,33.218,13.76
				C396.331,291.456,396.331,321.26,378.015,339.578z"/>
			<path d="M505.603,435.135l-48.74-48.739c-4.125-4.126-9.61-6.398-15.444-6.398c-2.838,0-5.589,0.547-8.144,1.574l-14.829-14.831
				c30.69-37.376,28.594-92.834-6.303-127.73c-2.058-2.058-4.199-3.983-6.392-5.813V48.162c0-4.734-3.837-8.572-8.572-8.572H8.572
				C3.838,39.59,0,43.428,0,48.162v309.436c0,4.734,3.838,8.572,8.572,8.572H270.68c2.102,2.6,4.352,5.119,6.768,7.535
				c18.568,18.568,42.958,27.852,67.348,27.852c21.959,0,43.903-7.552,61.614-22.604l14.747,14.748
				c-3.15,7.871-1.546,17.219,4.819,23.584l48.74,48.74c4.259,4.259,9.851,6.387,15.444,6.387c5.595,0,11.187-2.129,15.445-6.387
				c4.125-4.125,6.397-9.61,6.397-15.444C512,444.745,509.729,439.26,505.603,435.135z M376.48,56.734l-12.607,12.607H41.879
				L29.273,56.734H376.48z M388.606,68.854v152.941c-4.093-2.117-8.306-3.921-12.607-5.406V81.46L388.606,68.854z M250.486,319.276
				H46.894V86.485h311.962v125.72c-28.833-4.268-59.261,4.663-81.408,26.808C255.595,260.865,246.617,290.784,250.486,319.276z
				 M17.144,68.85L29.75,81.457v242.844l-12.606,12.605V68.85z M29.269,349.026l12.607-12.607h212.582
				c1.422,4.297,3.159,8.509,5.209,12.607H29.269z M400.018,361.582c-15.226,15.227-35.222,22.839-55.224,22.838
				c-19.997-0.001-40-7.614-55.223-22.838c-30.451-30.451-30.451-79.998,0-110.448c15.225-15.225,35.224-22.838,55.224-22.838
				c19.999,0,39.998,7.613,55.223,22.838C430.471,281.586,430.471,331.133,400.018,361.582z M493.48,453.901
				c-1.831,1.831-4.812,1.832-6.643,0l-48.74-48.74c-1.832-1.832-1.832-4.812,0-6.644c0.887-0.887,2.068-1.376,3.321-1.376
				c1.254,0,2.433,0.488,3.32,1.375l48.741,48.74c0.887,0.887,1.375,2.066,1.375,3.321
				C494.855,451.832,494.367,453.014,493.48,453.901z"/>
		</g>
	</g>
</g>
</svg>