<?xml version="1.0" encoding="iso-8859-1"?>
<!-- Uploaded to: SVG Repo, www.svgrepo.com, Generator: SVG Repo Mixer Tools -->
<svg version="1.1" id="Layer_1" xmlns="http://www.w3.org/2000/svg" xmlns:xlink="http://www.w3.org/1999/xlink" 
	 viewBox="0 0 512 512" xml:space="preserve">
<rect x="110.49" y="17.828" style="fill:#B8E6FF;" width="291.034" height="348.524"/>
<rect x="110.49" y="366.345" style="fill:#4D4D4D;" width="291.034" height="127.821"/>
<rect x="169.765" y="308.855" style="fill:#CCCCCC;" width="172.46" height="57.488"/>
<path style="fill:#808080;" d="M342.232,375.329H169.768c-4.962,0-8.983-4.022-8.983-8.983v-57.488c0-4.961,4.021-8.983,8.983-8.983
	h172.463c4.962,0,8.983,4.022,8.983,8.983v57.488C351.215,371.307,347.194,375.329,342.232,375.329z M178.751,357.364h154.497
	v-39.522H178.751V357.364z"/>
<rect x="190.03" y="403.163" style="fill:#F7B239;" width="131.941" height="57.488"/>
<g>
	
		<rect x="247.558" y="72.616" transform="matrix(-0.7071 -0.7071 0.7071 -0.7071 518.8682 378.1208)" style="fill:#F2F2F2;" width="180.375" height="17.966"/>
	
		<rect x="320.496" y="42.158" transform="matrix(-0.7071 -0.7071 0.7071 -0.7071 591.3843 347.2419)" style="fill:#F2F2F2;" width="94.224" height="17.966"/>
	
		<rect x="97.716" y="324.048" transform="matrix(-0.7071 -0.7071 0.7071 -0.7071 11.7484 670.9286)" style="fill:#F2F2F2;" width="94.224" height="17.966"/>
</g>
<path style="fill:#333333;" d="M321.972,394.178H190.028c-4.962,0-8.983,4.022-8.983,8.983v57.488c0,4.961,4.021,8.983,8.983,8.983
	h131.944c4.962,0,8.983-4.022,8.983-8.983v-57.488C330.955,398.2,326.934,394.178,321.972,394.178z M312.989,451.666H199.011
	v-39.522h113.979V451.666z"/>
<g>
	<path style="fill:#F2F2F2;" d="M347.797,124.417v119.94h-65.695c-14.421,0-26.098,11.678-26.098,26.098V150.527
		c0-14.421,11.678-26.11,26.098-26.11H347.797z"/>
	<path style="fill:#F2F2F2;" d="M256.004,150.527v119.928c0-14.421-11.69-26.098-26.11-26.098h-65.683v-119.94h65.683
		C244.314,124.417,256.004,136.106,256.004,150.527z"/>
</g>
<path style="fill:#CCCCCC;" d="M347.797,244.356v30.973H164.211v-30.973h65.683c14.421,0,26.11,11.678,26.11,26.098
	c0-14.421,11.678-26.098,26.098-26.098L347.797,244.356L347.797,244.356z"/>
<g>
	<path style="fill:#4D4D4D;" d="M347.797,115.434h-65.695c-10.354,0-19.673,4.514-26.1,11.674
		c-6.429-7.161-15.75-11.674-26.109-11.674h-65.683c-4.962,0-8.983,4.022-8.983,8.983v119.94v30.973
		c0,4.961,4.021,8.983,8.983,8.983h183.585c4.962,0,8.983-4.022,8.983-8.983v-30.973v-119.94
		C356.78,119.456,352.758,115.434,347.797,115.434z M282.103,133.4h56.712v101.974h-56.712c-6.211,0-12.05,1.623-17.115,4.466
		v-89.312C264.987,141.083,272.664,133.4,282.103,133.4z M173.195,133.4h56.7c9.444,0,17.127,7.683,17.127,17.127v89.325
		c-5.07-2.847-10.91-4.478-17.127-4.478h-56.7V133.4z M173.195,253.339h56.7c8.025,0,14.759,5.551,16.608,13.007h-73.308V253.339z
		 M265.507,266.347c1.847-7.456,8.577-13.007,16.596-13.007h56.712v13.007H265.507z"/>
	<path style="fill:#4D4D4D;" d="M218.626,165.914h-25.035c-4.962,0-8.983-4.022-8.983-8.983s4.021-8.983,8.983-8.983h25.035
		c4.962,0,8.983,4.022,8.983,8.983S223.588,165.914,218.626,165.914z"/>
	<path style="fill:#4D4D4D;" d="M218.626,194.317h-25.035c-4.962,0-8.983-4.022-8.983-8.983s4.021-8.983,8.983-8.983h25.035
		c4.962,0,8.983,4.022,8.983,8.983S223.588,194.317,218.626,194.317z"/>
	<path style="fill:#4D4D4D;" d="M218.626,222.721h-25.035c-4.962,0-8.983-4.022-8.983-8.983s4.021-8.983,8.983-8.983h25.035
		c4.962,0,8.983,4.022,8.983,8.983S223.588,222.721,218.626,222.721z"/>
	<path style="fill:#4D4D4D;" d="M316.915,165.914h-25.036c-4.962,0-8.983-4.022-8.983-8.983s4.021-8.983,8.983-8.983h25.036
		c4.962,0,8.983,4.022,8.983,8.983S321.876,165.914,316.915,165.914z"/>
	<path style="fill:#4D4D4D;" d="M316.915,194.317h-25.036c-4.962,0-8.983-4.022-8.983-8.983s4.021-8.983,8.983-8.983h25.036
		c4.962,0,8.983,4.022,8.983,8.983S321.876,194.317,316.915,194.317z"/>
	<path style="fill:#4D4D4D;" d="M316.915,222.721h-25.036c-4.962,0-8.983-4.022-8.983-8.983s4.021-8.983,8.983-8.983h25.036
		c4.962,0,8.983,4.022,8.983,8.983S321.876,222.721,316.915,222.721z"/>
</g>
<path style="fill:#333333;" d="M503.017,485.188h-92.519V366.347V17.828c0-4.961-4.021-8.983-8.983-8.983h-291.03
	c-4.962,0-8.983,4.022-8.983,8.983v348.52v118.841H8.983c-4.962,0-8.983,4.022-8.983,8.983c0,4.961,4.021,8.983,8.983,8.983h494.034
	c4.962,0,8.983-4.022,8.983-8.983C512,489.211,507.979,485.188,503.017,485.188z M119.468,26.811h273.065v330.554H119.468V26.811z
	 M119.468,375.329h273.065v109.858H119.468V375.329z"/>
</svg>