<?xml version="1.0" encoding="iso-8859-1"?>
<!-- Uploaded to: SVG Repo, www.svgrepo.com, Generator: SVG Repo Mixer Tools -->
<svg fill="#000000" height="800px" width="800px" version="1.1" id="Layer_1" xmlns="http://www.w3.org/2000/svg" xmlns:xlink="http://www.w3.org/1999/xlink" 
	 viewBox="0 0 512 512" xml:space="preserve">
<g>
	<g>
		<path d="M469.313,448h-10.667v-10.667c0-13.888-8.939-25.621-21.333-30.037V254.037c12.395-4.416,21.333-16.149,21.333-30.037
			v-10.667h10.667c5.888,0,10.667-4.779,10.667-10.667v-32h10.667c4.736,0,8.917-3.136,10.24-7.68
			c1.323-4.544-0.512-9.429-4.501-11.989L261.718,1.664c-3.499-2.219-7.957-2.219-11.456,0L15.595,150.997
			c-4.011,2.56-5.824,7.424-4.501,11.989c1.323,4.565,5.504,7.68,10.24,7.68H32v32c0,5.888,4.779,10.667,10.667,10.667h10.667V224
			c0,13.888,8.939,25.621,21.333,30.037v153.259c-12.395,4.416-21.333,16.149-21.333,30.037V448H42.667c-17.643,0-32,14.357-32,32
			v21.333c0,5.888,4.779,10.667,10.667,10.667h469.333c5.888,0,10.667-4.779,10.667-10.667V480
			C501.313,462.357,486.955,448,469.313,448z M186.07,108.459l64-42.667c3.584-2.389,8.256-2.389,11.84,0l64,42.667
			c3.904,2.603,5.653,7.467,4.288,11.968c-1.365,4.501-5.525,7.573-10.219,7.573h-128c-4.693,0-8.853-3.072-10.219-7.573
			C180.395,115.925,182.166,111.061,186.07,108.459z M223.979,407.296c-12.395,4.416-21.333,16.149-21.333,30.037V448h-42.667
			v-10.667c0-13.888-8.939-25.621-21.333-30.037V254.037c12.395-4.416,21.333-16.149,21.333-30.037v-10.667h42.667V224
			c0,13.888,8.939,25.621,21.333,30.037V407.296z M373.313,407.296c-12.395,4.416-21.333,16.149-21.333,30.037V448h-42.667v-10.667
			c0-13.888-8.939-25.621-21.333-30.037V254.037c12.395-4.416,21.333-16.149,21.333-30.037v-10.667h42.667V224
			c0,13.888,8.939,25.621,21.333,30.037V407.296z"/>
	</g>
</g>
</svg>