<?xml version="1.0" encoding="iso-8859-1"?>
<!-- Uploaded to: SVG Repo, www.svgrepo.com, Generator: SVG Repo Mixer Tools -->
<svg fill="#000000" height="800px" width="800px" version="1.1" id="Layer_1" xmlns="http://www.w3.org/2000/svg" xmlns:xlink="http://www.w3.org/1999/xlink" 
	 viewBox="0 0 511.998 511.998" xml:space="preserve">
<g>
	<g>
		<path d="M506.889,150.887L261.555,1.554c-3.392-2.069-7.68-2.069-11.093,0L5.129,150.887c-4.096,2.496-6.016,7.381-4.736,11.989
			c1.28,4.608,5.504,7.787,10.283,7.787h10.667v32c0,1.621,0.427,3.115,1.067,4.501c0.043,0.085,0.021,0.192,0.064,0.277
			l20.203,40.427v242.795H32.009c-5.888,0-10.667,4.779-10.667,10.667c0,5.888,4.779,10.667,10.667,10.667h448
			c5.888,0,10.667-4.779,10.667-10.667c0-5.888-4.779-10.667-10.667-10.667h-10.667V247.847l20.203-40.427
			c0.043-0.085,0.021-0.192,0.064-0.277c0.64-1.365,1.067-2.88,1.067-4.501v-32h10.667c4.779,0,8.981-3.179,10.261-7.787
			C512.883,158.247,510.985,153.362,506.889,150.887z M149.342,490.663h-42.667V247.847l17.259-34.517h8.149l17.259,34.517V490.663z
			 M298.675,490.663h-85.333V247.847l17.259-34.517h50.816l17.259,34.517V490.663z M256.009,127.996
			c-23.531,0-42.667-19.136-42.667-42.667c0-23.531,19.136-42.667,42.667-42.667s42.667,19.136,42.667,42.667
			C298.675,108.86,279.539,127.996,256.009,127.996z M405.342,490.663h-42.667V247.847l17.259-34.517h8.149l17.259,34.517V490.663z"
			/>
	</g>
</g>
</svg>