<?xml version="1.0" encoding="iso-8859-1"?>
<!-- Uploaded to: SVG Repo, www.svgrepo.com, Generator: SVG Repo Mixer Tools -->
<!DOCTYPE svg PUBLIC "-//W3C//DTD SVG 1.1//EN" "http://www.w3.org/Graphics/SVG/1.1/DTD/svg11.dtd">
<svg fill="#000000" height="800px" width="800px" version="1.1" id="Capa_1" xmlns="http://www.w3.org/2000/svg" xmlns:xlink="http://www.w3.org/1999/xlink" 
	 viewBox="0 0 181.791 181.791" xml:space="preserve">
<path d="M146.69,90.624v86.043c0,2.762-2.239,5-5,5H40.101c-2.761,0-5-2.238-5-5V90.624c4.986-0.217,9.725-1.396,14.045-3.344
	v78.094c0,2.762,2.239,5,5,5c2.761,0,5-2.238,5-5v-84c0-0.202-0.036-0.395-0.06-0.591c6.358-5.729,10.805-13.54,12.234-22.355h2.325
	v106.946c0,2.762,2.239,5,5,5c2.761,0,5-2.238,5-5V58.428h14.5v106.946c0,2.762,2.239,5,5,5c2.761,0,5-2.238,5-5V58.428h2.325
	c1.43,8.814,5.876,16.626,12.234,22.354c-0.023,0.196-0.059,0.389-0.059,0.591v84c0,2.762,2.239,5,5,5c2.761,0,5-2.238,5-5V87.28
	C136.966,89.228,141.704,90.407,146.69,90.624z M148.337,46.754c-3.033,0-5.5,2.468-5.5,5.5c0,3.032,2.467,5.5,5.5,5.5
	s5.5-2.468,5.5-5.5C153.837,49.222,151.37,46.754,148.337,46.754z M33.127,46.754c-3.033,0-5.5,2.468-5.5,5.5
	c0,3.032,2.467,5.5,5.5,5.5s5.5-2.468,5.5-5.5C38.627,49.222,36.16,46.754,33.127,46.754z M176.791,52.255
	c0,1.961-0.199,3.876-0.577,5.725c-2.649,12.945-14.103,22.683-27.831,22.683c-0.569,0-1.132-0.021-1.693-0.055v0
	c-14.9-0.876-26.715-13.233-26.715-28.354c0-1.299,0.095-2.575,0.264-3.827H61.552c0.169,1.252,0.264,2.528,0.264,3.827
	c0,15.121-11.815,27.477-26.715,28.354v0c-0.56,0.033-1.124,0.055-1.693,0.055c-13.728,0-25.182-9.737-27.831-22.683
	C5.199,56.131,5,54.216,5,52.255c0-1.961,0.199-3.876,0.577-5.725C8.226,33.584,19.68,23.847,33.408,23.847h114.975
	c13.728,0,25.182,9.737,27.831,22.683C176.592,48.379,176.791,50.294,176.791,52.255z M48.627,52.254c0-8.547-6.953-15.5-15.5-15.5
	s-15.5,6.953-15.5,15.5c0,8.547,6.953,15.5,15.5,15.5S48.627,60.801,48.627,52.254z M163.837,52.254c0-8.547-6.953-15.5-15.5-15.5
	c-8.547,0-15.5,6.953-15.5,15.5c0,8.547,6.953,15.5,15.5,15.5C156.884,67.754,163.837,60.801,163.837,52.254z M176.791,0.124H5
	c-2.761,0-5,2.238-5,5v7c0,2.762,2.239,5,5,5h171.791c2.761,0,5-2.238,5-5v-7C181.791,2.362,179.552,0.124,176.791,0.124z"/>
</svg>