<?xml version="1.0" encoding="iso-8859-1"?>
<!-- Uploaded to: SVG Repo, www.svgrepo.com, Generator: SVG Repo Mixer Tools -->
<svg version="1.1" id="Layer_1" xmlns="http://www.w3.org/2000/svg" xmlns:xlink="http://www.w3.org/1999/xlink" 
	 viewBox="0 0 512 512" xml:space="preserve">
<path style="fill:#C7C9C9;" d="M488.348,375.447H23.652v95.901c0,2.566,2.08,4.647,4.647,4.647h455.402
	c2.566,0,4.647-2.08,4.647-4.647v-95.901H488.348z"/>
<rect x="23.654" y="375.45" style="opacity:0.1;enable-background:new    ;" width="464.692" height="32.946"/>
<path style="fill:#6A7379;" d="M494.811,359.879H17.189c-5.086,0-9.208,4.123-9.208,9.208v12.719c0,5.086,4.123,9.208,9.208,9.208
	H494.81c5.086,0,9.208-4.123,9.208-9.208v-12.719C504.02,364.001,499.896,359.879,494.811,359.879z"/>
<rect x="110.225" y="359.883" style="opacity:0.1;enable-background:new    ;" width="30.857" height="31.134"/>
<rect x="197.126" y="359.883" style="opacity:0.1;enable-background:new    ;" width="30.857" height="31.134"/>
<rect x="284.016" y="359.883" style="opacity:0.1;enable-background:new    ;" width="30.857" height="31.134"/>
<rect x="370.918" y="359.883" style="opacity:0.1;enable-background:new    ;" width="30.857" height="31.134"/>
<path style="opacity:0.15;enable-background:new    ;" d="M256,412.885L256,412.885c-15.476,0-28.02,12.545-28.02,28.02v35.089
	h56.04v-35.089C284.02,425.43,271.474,412.885,256,412.885z"/>
<path style="opacity:0.15;enable-background:new    ;" d="M169.102,412.885L169.102,412.885c-15.476,0-28.02,12.545-28.02,28.02
	v35.089h56.04v-35.089C197.123,425.43,184.578,412.885,169.102,412.885z"/>
<path style="opacity:0.15;enable-background:new    ;" d="M82.205,412.885L82.205,412.885c-15.474,0-28.02,12.545-28.02,28.02
	v35.089h56.04v-35.089C110.225,425.43,97.68,412.885,82.205,412.885z"/>
<path style="opacity:0.15;enable-background:new    ;" d="M342.898,412.885L342.898,412.885c15.474,0,28.02,12.545,28.02,28.02
	v35.089h-56.04v-35.089C314.877,425.43,327.422,412.885,342.898,412.885z"/>
<path style="opacity:0.15;enable-background:new    ;" d="M429.795,412.885L429.795,412.885c15.476,0,28.02,12.545,28.02,28.02
	v35.089h-56.039v-35.089C401.775,425.43,414.32,412.885,429.795,412.885z"/>
<rect x="54.185" y="461.947" style="opacity:0.1;enable-background:new    ;" width="56.04" height="14.044"/>
<rect x="141.083" y="461.947" style="opacity:0.1;enable-background:new    ;" width="56.04" height="14.044"/>
<rect x="227.984" y="461.947" style="opacity:0.1;enable-background:new    ;" width="56.04" height="14.044"/>
<rect x="314.874" y="461.947" style="opacity:0.1;enable-background:new    ;" width="56.04" height="14.044"/>
<rect x="401.775" y="461.947" style="opacity:0.1;enable-background:new    ;" width="56.04" height="14.044"/>
<rect x="23.654" y="259.33" style="fill:#C7C9C9;" width="464.692" height="100.553"/>
<rect x="23.654" y="259.33" style="opacity:0.1;enable-background:new    ;" width="464.692" height="32.946"/>
<path style="fill:#6A7379;" d="M494.811,243.763H17.189c-5.086,0-9.208,4.123-9.208,9.208v12.719c0,5.086,4.123,9.208,9.208,9.208
	H494.81c5.086,0,9.208-4.123,9.208-9.208v-12.719C504.02,247.886,499.896,243.763,494.811,243.763z"/>
<rect x="110.225" y="243.763" style="opacity:0.1;enable-background:new    ;" width="30.857" height="31.134"/>
<rect x="197.126" y="243.763" style="opacity:0.1;enable-background:new    ;" width="30.857" height="31.134"/>
<rect x="284.016" y="243.763" style="opacity:0.1;enable-background:new    ;" width="30.857" height="31.134"/>
<rect x="370.918" y="243.763" style="opacity:0.1;enable-background:new    ;" width="30.857" height="31.134"/>
<path style="opacity:0.15;enable-background:new    ;" d="M256,296.769L256,296.769c-15.476,0-28.02,12.545-28.02,28.02v35.089
	h56.04v-35.089C284.02,309.314,271.474,296.769,256,296.769z"/>
<path style="opacity:0.15;enable-background:new    ;" d="M169.102,296.769L169.102,296.769c-15.476,0-28.02,12.545-28.02,28.02
	v35.089h56.04v-35.089C197.123,309.314,184.578,296.769,169.102,296.769z"/>
<path style="opacity:0.15;enable-background:new    ;" d="M82.205,296.769L82.205,296.769c-15.474,0-28.02,12.545-28.02,28.02
	v35.089h56.04v-35.089C110.225,309.314,97.68,296.769,82.205,296.769z"/>
<path style="opacity:0.15;enable-background:new    ;" d="M342.898,296.769L342.898,296.769c15.474,0,28.02,12.545,28.02,28.02
	v35.089h-56.04v-35.089C314.877,309.314,327.422,296.769,342.898,296.769z"/>
<path style="opacity:0.15;enable-background:new    ;" d="M429.795,296.769L429.795,296.769c15.476,0,28.02,12.545,28.02,28.02
	v35.089h-56.039v-35.089C401.775,309.314,414.32,296.769,429.795,296.769z"/>
<rect x="54.185" y="345.838" style="opacity:0.1;enable-background:new    ;" width="56.04" height="14.044"/>
<rect x="141.083" y="345.838" style="opacity:0.1;enable-background:new    ;" width="56.04" height="14.044"/>
<rect x="227.984" y="345.838" style="opacity:0.1;enable-background:new    ;" width="56.04" height="14.044"/>
<rect x="314.874" y="345.838" style="opacity:0.1;enable-background:new    ;" width="56.04" height="14.044"/>
<rect x="401.775" y="345.838" style="opacity:0.1;enable-background:new    ;" width="56.04" height="14.044"/>
<rect x="23.654" y="143.211" style="fill:#C7C9C9;" width="464.692" height="100.553"/>
<rect x="23.654" y="143.211" style="opacity:0.1;enable-background:new    ;" width="464.692" height="32.946"/>
<path style="fill:#6A7379;" d="M494.811,127.648H17.189c-5.086,0-9.208,4.123-9.208,9.208v12.72c0,5.086,4.123,9.208,9.208,9.208
	H494.81c5.086,0,9.208-4.123,9.208-9.208v-12.72C504.02,131.77,499.896,127.648,494.811,127.648z"/>
<rect x="110.225" y="127.644" style="opacity:0.1;enable-background:new    ;" width="30.857" height="31.134"/>
<rect x="197.126" y="127.644" style="opacity:0.1;enable-background:new    ;" width="30.857" height="31.134"/>
<rect x="284.016" y="127.644" style="opacity:0.1;enable-background:new    ;" width="30.857" height="31.134"/>
<rect x="370.918" y="127.644" style="opacity:0.1;enable-background:new    ;" width="30.857" height="31.134"/>
<path style="opacity:0.15;enable-background:new    ;" d="M256,180.653L256,180.653c-15.476,0-28.02,12.545-28.02,28.02v35.089
	h56.04v-35.089C284.02,193.199,271.474,180.653,256,180.653z"/>
<path style="opacity:0.15;enable-background:new    ;" d="M169.102,180.653L169.102,180.653c-15.476,0-28.02,12.545-28.02,28.02
	v35.089h56.04v-35.089C197.123,193.199,184.578,180.653,169.102,180.653z"/>
<path style="opacity:0.15;enable-background:new    ;" d="M82.205,180.653L82.205,180.653c-15.474,0-28.02,12.545-28.02,28.02
	v35.089h56.04v-35.089C110.225,193.199,97.68,180.653,82.205,180.653z"/>
<path style="opacity:0.15;enable-background:new    ;" d="M342.898,180.653L342.898,180.653c15.474,0,28.02,12.545,28.02,28.02
	v35.089h-56.04v-35.089C314.877,193.199,327.422,180.653,342.898,180.653z"/>
<path style="opacity:0.15;enable-background:new    ;" d="M429.795,180.653L429.795,180.653c15.476,0,28.02,12.545,28.02,28.02
	v35.089h-56.039v-35.089C401.775,193.199,414.32,180.653,429.795,180.653z"/>
<rect x="54.185" y="229.718" style="opacity:0.1;enable-background:new    ;" width="56.04" height="14.044"/>
<rect x="141.083" y="229.718" style="opacity:0.1;enable-background:new    ;" width="56.04" height="14.044"/>
<rect x="227.984" y="229.718" style="opacity:0.1;enable-background:new    ;" width="56.04" height="14.044"/>
<rect x="314.874" y="229.718" style="opacity:0.1;enable-background:new    ;" width="56.04" height="14.044"/>
<rect x="401.775" y="229.718" style="opacity:0.1;enable-background:new    ;" width="56.04" height="14.044"/>
<path style="fill:#C7C9C9;" d="M276.666,51.573H23.652v76.074h310.734C317.997,127.648,293.996,90.176,276.666,51.573z"/>
<g>
	<path style="fill:#93999D;" d="M82.205,115.424c-4.408,0-7.98-3.573-7.98-7.98V86.163c0-4.407,3.572-7.98,7.98-7.98
		c4.408,0,7.98,3.573,7.98,7.98v21.281C90.186,111.851,86.613,115.424,82.205,115.424z"/>
	<path style="fill:#93999D;" d="M169.102,115.424c-4.408,0-7.98-3.573-7.98-7.98V86.163c0-4.407,3.572-7.98,7.98-7.98
		s7.98,3.573,7.98,7.98v21.281C177.083,111.851,173.509,115.424,169.102,115.424z"/>
	<path style="fill:#93999D;" d="M256,115.424c-4.408,0-7.98-3.573-7.98-7.98V86.163c0-4.407,3.572-7.98,7.98-7.98
		c4.408,0,7.98,3.573,7.98,7.98v21.281C263.98,111.851,260.407,115.424,256,115.424z"/>
</g>
<path style="opacity:0.1;enable-background:new    ;" d="M276.666,51.573H23.652V84.52h269.734
	C287.477,74.258,281.781,62.965,276.666,51.573z"/>
<path style="fill:#6A7379;" d="M265.113,36.005H17.189c-5.086,0-9.208,4.123-9.208,9.208v12.72c0,5.086,4.123,9.208,9.208,9.208
	h266.868c-4.364-8.698-8.474-17.719-12.156-26.615C270.766,37.783,268.082,36.005,265.113,36.005z"/>
<path d="M512,149.576v-12.72c0-9.479-7.711-17.189-17.189-17.189H334.385c-6.047,0-22.54-14.939-43.191-56.096
	c-0.001-0.003-0.002-0.006-0.004-0.01c-4.238-8.446-8.247-17.223-11.914-26.085c-2.375-5.742-7.935-9.452-14.164-9.452H17.189
	C7.711,28.025,0,35.735,0,45.214v12.72c0,8.966,6.902,16.34,15.67,17.111v44.7C6.902,120.517,0,127.89,0,136.856v12.72
	c0,8.966,6.902,16.34,15.67,17.112v69.173C6.902,236.632,0,244.006,0,252.972v12.719c0,8.966,6.902,16.34,15.67,17.112v69.173
	C6.902,352.748,0,360.122,0,369.087v12.719c0,8.966,6.902,16.34,15.67,17.112v72.429c0,6.963,5.664,12.628,12.627,12.628h455.403
	c6.963,0,12.627-5.665,12.627-12.628v-72.429c8.769-0.773,15.671-8.146,15.671-17.112v-12.719c0-8.966-6.902-16.34-15.671-17.112
	v-69.173c8.769-0.773,15.671-8.146,15.671-17.112v-12.719c0-8.966-6.902-16.34-15.671-17.112v-69.173
	C505.098,165.914,512,158.54,512,149.576z M378.898,135.628h14.897v15.176h-14.897V135.628z M31.632,351.899V282.88h448.737v69.019
	H31.632z M393.795,367.859v15.176h-14.897v-15.176H393.795z M362.937,367.859v15.176h-40.08v-15.176H362.937z M306.897,367.859
	v15.176H292v-15.176H306.897z M276.039,367.859v15.176h-40.079v-15.176H276.039z M220,367.859v15.176h-14.897v-15.176H220z
	 M189.143,367.859v15.176h-40.08v-15.176H189.143z M133.102,367.859v15.176h-14.897v-15.176H133.102z M118.205,266.919v-15.175
	h14.897v15.175H118.205L118.205,266.919z M149.063,266.919v-15.175h40.08v15.175H149.063L149.063,266.919z M205.103,266.919v-15.175
	H220v15.175H205.103L205.103,266.919z M235.961,266.919v-15.175h40.079v15.175H235.961L235.961,266.919z M292,266.919v-15.175
	h14.897v15.175H292L292,266.919z M322.858,266.919v-15.175h40.08v15.175H322.858L322.858,266.919z M393.795,266.919h-14.897v-15.175
	h14.897V266.919z M31.632,235.783v-69.019h448.737v69.019H31.632z M118.205,150.803v-15.176h14.897v15.176H118.205z
	 M149.063,150.803v-15.176h40.08v15.176H149.063z M205.103,150.803v-15.176H220v15.176H205.103z M235.961,150.803v-15.176h40.079
	v15.176H235.961z M292,150.803v-15.176h14.897v15.176H292z M322.858,135.628h40.08v15.176h-40.08V135.628z M279.167,75.122
	c10.952,21.215,20.582,35.33,28.883,44.545H31.632V75.122H279.167z M15.961,45.214c0-0.678,0.55-1.228,1.228-1.228h247.507
	c2.117,5.101,4.342,10.173,6.658,15.175H17.189c-0.678,0-1.228-0.551-1.228-1.228V45.214z M15.961,136.856
	c0-0.678,0.55-1.228,1.228-1.228h85.056v15.176H17.189c-0.678,0-1.228-0.551-1.228-1.228
	C15.961,149.576,15.961,136.856,15.961,136.856z M15.961,252.972c0-0.678,0.55-1.228,1.228-1.228h85.056v15.175H17.189
	c-0.678,0-1.228-0.551-1.228-1.228C15.961,265.691,15.961,252.972,15.961,252.972z M17.189,383.035
	c-0.678,0-1.228-0.551-1.228-1.228v-12.72c0-0.678,0.55-1.228,1.228-1.228h85.056v15.176H17.189z M480.368,468.014H31.632v-69.019
	h448.737v69.019H480.368z M496.039,381.806c0,0.678-0.55,1.228-1.228,1.228h-85.056v-15.175h85.055c0.678,0,1.228,0.551,1.228,1.228
	v12.72H496.039z M496.039,265.69c0,0.678-0.55,1.228-1.228,1.228h-85.056v-15.174h85.055c0.678,0,1.228,0.551,1.228,1.228v12.719
	H496.039z M496.039,149.576c0,0.677-0.55,1.228-1.228,1.228h-85.056v-15.175h85.055c0.678,0,1.228,0.551,1.228,1.228v12.72H496.039z
	"/>
</svg>