<?xml version="1.0" encoding="iso-8859-1"?>
<!-- Uploaded to: SVG Repo, www.svgrepo.com, Generator: SVG Repo Mixer Tools -->
<svg height="800px" width="800px" version="1.1" id="Capa_1" xmlns="http://www.w3.org/2000/svg" xmlns:xlink="http://www.w3.org/1999/xlink" 
	 viewBox="0 0 16.627 16.627" xml:space="preserve">
<g>
	<g>
		<path style="fill:#030104;" d="M3.691,10.999l0.657,0.656c-0.515,0.264-1.235,0.82-1.958,1.544
			c-0.615,0.614-1.108,1.226-1.405,1.712c-0.196-0.035-0.465,0.072-0.686,0.293c-0.293,0.293-0.387,0.674-0.21,0.852l0.425,0.424
			c0.177,0.178,0.558,0.084,0.851-0.209c0.22-0.221,0.328-0.49,0.292-0.686c0.486-0.299,1.098-0.791,1.712-1.406
			c0.724-0.723,1.28-1.443,1.544-1.957l0.773,0.772l0.396-0.396l-1.995-1.995L3.691,10.999z"/>
		<polygon style="fill:#030104;" points="16.627,0.058 4.939,10.614 6.072,11.745 		"/>
	</g>
</g>
</svg>