<?xml version="1.0" encoding="iso-8859-1"?>
<!-- Uploaded to: SVG Repo, www.svgrepo.com, Generator: SVG Repo Mixer Tools -->
<svg height="800px" width="800px" version="1.1" id="Layer_1" xmlns="http://www.w3.org/2000/svg" xmlns:xlink="http://www.w3.org/1999/xlink" 
	 viewBox="0 0 511.999 511.999" xml:space="preserve">
<path style="fill:#C39774;" d="M124.77,297.726c-0.344-0.036-0.687-0.072-1.03-0.108c-46.906-4.946-82.467-44.586-82.467-91.752
	v-22.517c0-11.86-9.703-21.563-21.563-21.563l0,0c-6.48,0-11.733-5.253-11.733-11.733V91.709c0-5.018,4.068-9.086,9.086-9.086l0,0
	c28.154,0,52.622,22.824,52.622,50.978c0,35.272-18.562,110.062,203.903,110.062c47.775,0,172.328-9.832,221.926-20.647
	c5.594-1.22,10.208,4.409,7.899,9.648l-12.586,28.558c-6.385,14.487-19.145,25.192-34.536,28.9
	c-54.29,13.079-158.16,14.349-186.611,14.349c-21.64,0-87.881-0.735-145.852-6.841L124.77,297.726z"/>
<path style="opacity:0.3;enable-background:new    ;" d="M124.77,297.726c-0.344-0.036-0.687-0.072-1.03-0.108
	c-46.906-4.946-82.467-44.586-82.467-91.752v-22.517c0-11.86-9.703-21.563-21.563-21.563l0,0c-6.48,0-11.733-5.253-11.733-11.733
	V91.709c0-5.018,4.068-9.086,9.086-9.086l0,0c28.154,0,52.622,22.824,52.622,50.978c0,35.272-18.562,110.062,203.903,110.062
	c47.775,0,172.328-9.832,221.926-20.647c5.594-1.22,10.208,4.409,7.899,9.648l-12.586,28.558
	c-6.385,14.487-19.145,25.192-34.536,28.9c-54.29,13.079-158.16,14.349-186.611,14.349c-21.64,0-87.881-0.735-145.852-6.841
	L124.77,297.726z"/>
<path style="opacity:0.1;enable-background:new    ;" d="M279.712,265.99c-32.614,0-65.382-1.536-94.764-4.442
	c-56.189-5.557-96.943-15.943-117.855-30.038c-3.653-2.462-8.612-1.498-11.073,2.157c-2.462,3.652-1.496,8.611,2.157,11.073
	c23.427,15.789,65.55,26.785,125.201,32.684c29.894,2.956,63.206,4.519,96.334,4.519c37.206,0,151.232-2.061,213.35-25.792
	l9.702-22.014C461.938,257.558,361.859,265.99,279.712,265.99z"/>
<path style="fill:#F0D3A3;" d="M69.685,228.533v-67.926c-0.852-10.067,0-19.446,0-27.007c0-28.154-24.468-50.978-52.622-50.978l0,0
	c-5.018,0-9.086,4.068-9.086,9.086v58.344c0,6.48,5.253,11.733,11.733,11.733l0,0c11.86,0,21.563,9.703,21.563,21.563v22.517
	c0,47.166,35.561,86.806,82.467,91.752c0.344,0.036,0.686,0.072,1.03,0.108C92.827,290.36,69.685,261.885,69.685,228.533z"/>
<path style="opacity:0.1;enable-background:new    ;" d="M463.387,282.672c-54.29,13.079-158.161,14.349-186.611,14.349
	c-21.64,0-87.882-0.735-145.852-6.842l0.941,0.098c-0.344-0.036-0.687-0.072-1.03-0.107c-46.906-4.947-82.467-44.586-82.467-91.752
	V175.9c0-11.86-9.703-21.563-21.563-21.563l0,0c-6.48,0-11.733-5.253-11.733-11.733V84.26c0-0.492,0.05-0.972,0.126-1.443
	c-4.124,0.86-7.221,4.514-7.221,8.893v58.343c0,6.48,5.253,11.733,11.733,11.733l0,0c11.86,0,21.563,9.703,21.563,21.563v22.517
	c0,47.166,35.561,86.806,82.467,91.752c0.342,0.036,0.686,0.072,1.03,0.108l-0.941-0.098c57.971,6.107,124.212,6.841,145.852,6.841
	c28.45,0,132.321-1.27,186.611-14.349c11.304-2.724,21.176-9.23,28.158-18.228C478.451,277.031,471.268,280.774,463.387,282.672z"/>
<path style="fill:#54C7D8;" d="M504.022,403.825V284.03c-8.48-7.343-29.678-7.343-38.157,0l0,0c-10.493,9.087-27.664,9.087-38.157,0
	l0,0c-10.493-9.087-27.664-9.087-38.157,0l0,0c-10.493,9.087-27.664,9.087-38.157,0l0,0c-10.493-9.087-27.664-9.087-38.157,0l0,0
	c-10.493,9.087-27.664,9.087-38.157,0l0,0c-10.493-9.087-27.664-9.087-38.157,0l0,0c-10.493,9.087-27.664,9.087-38.157,0l0,0
	c-10.493-9.087-27.664-9.087-38.157,0l0,0c-10.493,9.087-27.664,9.087-38.157,0l0,0c-10.493-9.087-27.664-9.087-38.157,0l0,0
	c-10.493,9.087-27.664,9.087-38.157,0l0,0c-8.479-7.343-29.678-7.343-38.157,0v119.795c0,14.112,11.44,25.551,25.551,25.551h444.944
	C492.583,429.376,504.022,417.937,504.022,403.825z"/>
<path style="opacity:0.1;enable-background:new    ;" d="M287.142,340.587c-8.801,0-17.6-2.9-24.302-8.703
	c-7.511-6.505-20.202-6.505-27.713,0c-13.4,11.605-35.203,11.604-48.602,0c-3.33-2.884-3.692-7.922-0.807-11.253
	c2.884-3.33,7.922-3.691,11.253-0.807c7.51,6.505,20.201,6.505,27.713,0c13.399-11.604,35.202-11.604,48.602,0
	c7.511,6.505,20.202,6.505,27.713,0c13.4-11.604,35.203-11.604,48.602,0c7.512,6.505,20.202,6.505,27.714,0
	c13.399-11.604,35.202-11.604,48.602,0c7.51,6.505,20.202,6.505,27.713,0c3.33-2.884,8.367-2.523,11.253,0.807
	c2.883,3.33,2.523,8.368-0.807,11.253c-13.4,11.605-35.202,11.605-48.602,0c-7.51-6.505-20.202-6.505-27.713,0
	c-13.399,11.605-35.203,11.604-48.602,0c-7.51-6.505-20.202-6.504-27.714,0C304.743,337.685,295.94,340.587,287.142,340.587z"/>
<path style="opacity:0.1;enable-background:new    ;" d="M153.517,392.973c-8.801,0.001-17.6-2.9-24.301-8.703
	c-7.511-6.505-20.202-6.505-27.713,0c-13.399,11.605-35.203,11.605-48.602,0c-3.33-2.884-3.692-7.922-0.807-11.253
	c2.883-3.33,7.922-3.692,11.253-0.807c7.51,6.505,20.201,6.505,27.713,0c13.4-11.604,35.203-11.604,48.602,0
	c7.512,6.505,20.203,6.505,27.713,0c13.4-11.604,35.203-11.604,48.602,0c3.33,2.883,3.693,7.922,0.808,11.252
	c-2.883,3.33-7.922,3.692-11.252,0.808c-7.512-6.505-20.204-6.505-27.714,0C171.118,390.072,162.316,392.973,153.517,392.973z"/>
<path style="fill:#F0D3A3;" d="M165.731,299.214l-0.007-0.255c-0.223-7.048,2.461-13.832,7.415-18.786L321.862,131.45
	c4.584-4.583,4.584-12.015,0-16.598c-4.584-4.584-12.015-4.583-16.598,0c-0.309,0.31-0.595,0.634-0.862,0.968L156.595,263.626
	c-4.954,4.954-11.737,7.639-18.739,7.417c-5.951-0.188-11.708,2.107-15.894,6.34c-10.032,10.148-29.264,29.412-39.474,39.632
	c-3.733,3.737-3.728,9.788,0.007,13.525l23.731,23.731c3.736,3.736,9.794,3.739,13.532,0.004l39.979-39.93
	C163.74,310.347,165.911,304.87,165.731,299.214z"/>
<path d="M509.244,278.001c-3.775-3.268-9.023-5.465-14.782-6.603c1.37-2.237,2.606-4.555,3.664-6.959l12.586-28.558
	c2.284-5.182,1.477-11.123-2.105-15.505c-3.585-4.386-9.252-6.361-14.794-5.153c-48.391,10.552-172.686,20.464-220.226,20.464
	c-15.351,0-29.926-0.375-43.579-1.102l97.492-97.492c7.687-7.687,7.687-20.193,0-27.88s-20.192-7.687-27.879,0
	c-0.389,0.389-0.763,0.797-1.135,1.239l-119.15,119.151c-45.731-7.038-76.26-20.29-90.763-39.418
	c-12.163-16.042-11.567-34.14-11.087-48.68c0.091-2.774,0.179-5.395,0.179-7.905c0-31.957-27.751-58.955-60.599-58.955
	C7.655,74.646,0,82.301,0,91.709v58.343c0,10.868,8.842,19.71,19.71,19.71c7.491,0,13.586,6.094,13.586,13.586v22.517
	c0,29.991,13.127,57.792,35.672,76.71c-6.208,1.013-12.92-0.513-17.612-4.576c-11.582-10.031-37.02-10.031-48.602,0
	C1.005,279.515,0,281.716,0,284.03v119.794c0,18.487,15.041,33.527,33.527,33.527h444.944c18.487,0,33.527-15.04,33.527-33.527
	V284.03C512,281.716,510.994,279.515,509.244,278.001z M49.25,205.866v-22.517c0-16.288-13.251-29.54-29.54-29.54
	c-2.072,0-3.757-1.685-3.757-3.757v-7.262h13.178c4.405,0,7.977-3.572,7.977-7.977c0-4.405-3.572-7.977-7.977-7.977H15.954v-7.445
	h13.178c4.405,0,7.977-3.572,7.977-7.977c0-4.405-3.572-7.977-7.977-7.977H15.954V91.709c0-0.612,0.498-1.109,1.109-1.109
	c24.2,0,44.645,19.692,44.645,43.001c0,2.247-0.082,4.74-0.169,7.379c-0.198,5.993-0.42,12.808,0.169,20.058v67.496
	c0,10.415,2.009,20.487,5.813,29.818C55.821,243.671,49.25,225.318,49.25,205.866z M273.589,251.64
	c47.676,0,169.748-9.502,221.748-20.428l-11.809,26.794c-2.275,5.164-5.589,9.84-9.661,13.731c-5.142,1.21-9.794,3.295-13.225,6.266
	c-7.51,6.505-20.202,6.505-27.713,0c-13.4-11.604-35.203-11.604-48.602,0c-7.511,6.505-20.202,6.505-27.713,0
	c-13.4-11.604-35.203-11.604-48.602,0c-7.511,6.505-20.202,6.505-27.713,0c-13.399-11.604-35.202-11.604-48.602,0
	c-7.511,6.505-20.203,6.506-27.713-0.001c-3.222-2.789-6.948-4.94-10.976-6.417l21.975-21.974
	C232.852,250.951,252.528,251.64,273.589,251.64z M310.041,121.461c0.204-0.203,0.397-0.419,0.576-0.642
	c0.089-0.111,0.182-0.221,0.285-0.324c1.466-1.467,3.852-1.466,5.317-0.001c1.466,1.466,1.466,3.852,0,5.318L167.498,274.534
	c-6.486,6.486-10.038,15.48-9.748,24.686l0.008,0.248c0.108,3.438-1.225,6.804-3.659,9.235l-39.98,39.93
	c-0.622,0.62-1.634,0.62-2.255-0.001l-23.731-23.73c-0.62-0.621-0.623-1.628-0.005-2.246c10.502-10.513,29.6-29.644,39.504-39.662
	c2.515-2.545,5.974-3.982,9.547-3.982c0.139,0,0.281,0.003,0.421,0.006c9.165,0.288,18.145-3.263,24.633-9.749L310.041,121.461z
	 M77.663,202.102c16.351,19.845,45.209,33.437,87.836,41.338l-14.546,14.546c-3.383,3.383-8.059,5.236-12.847,5.085
	c-8.026-0.258-15.872,2.834-21.577,8.474c-7.299-2.621-15.372-2.925-22.815-1.038c-10.374-11.56-16.051-26.288-16.051-41.974v-26.43
	H77.663z M496.046,403.825c0,9.69-7.884,17.574-17.574,17.574H33.527c-9.69,0-17.574-7.884-17.574-17.574V288.417
	c7.004-2.98,20.25-2.433,24.958,1.643c13.399,11.605,35.202,11.605,48.602,0c3.585-3.105,8.475-4.75,13.431-4.846
	c-9.104,9.146-19.368,19.425-26.101,26.165c-6.832,6.839-6.827,17.965,0.011,24.803l23.731,23.73
	c3.421,3.422,7.914,5.132,12.409,5.132c4.49,0,8.981-1.708,12.4-5.123l39.98-39.93c5.541-5.536,8.578-13.2,8.33-21.028v-0.007
	l-0.008-0.247c-0.152-4.812,1.701-9.511,5.083-12.894l0.586-0.586c5.339-0.078,10.501,1.65,14.177,4.832
	c13.399,11.605,35.202,11.605,48.602,0c7.512-6.505,20.202-6.505,27.714,0c13.399,11.605,35.203,11.605,48.601,0
	c7.512-6.504,20.203-6.505,27.714,0c13.399,11.605,35.203,11.605,48.602,0c7.511-6.505,20.202-6.505,27.713,0
	c13.399,11.605,35.203,11.606,48.603,0c2.047-1.774,5.713-2.878,9.775-3.316l0.029,0.036c0.019-0.015,0.036-0.032,0.055-0.047
	c5.255-0.553,11.161,0.007,15.098,1.683v115.41H496.046z"/>
</svg>