<?xml version="1.0" encoding="iso-8859-1"?>
<!-- Uploaded to: SVG Repo, www.svgrepo.com, Generator: SVG Repo Mixer Tools -->
<svg height="800px" width="800px" version="1.1" id="Layer_1" xmlns="http://www.w3.org/2000/svg" xmlns:xlink="http://www.w3.org/1999/xlink" 
	 viewBox="0 0 512 512" xml:space="preserve">
<path style="fill:#C39774;" d="M120.55,299.069c-0.355-0.037-0.709-0.075-1.063-0.112c-48.415-5.106-85.12-46.02-85.12-94.704
	v-23.241c0-12.242-10.015-22.257-22.257-22.257l0,0C5.422,158.756,0,153.334,0,146.645v-60.22c0-5.179,4.199-9.378,9.378-9.378l0,0
	c29.06,0,54.315,23.558,54.315,52.617c0,36.406-19.159,113.602,210.462,113.602c49.312,0,177.87-10.148,229.064-21.312
	c5.774-1.259,10.537,4.55,8.153,9.958l-12.991,29.477c-6.59,14.953-19.76,26.002-35.647,29.829
	c-56.036,13.5-163.248,14.81-192.613,14.81c-22.336,0-90.708-0.759-150.543-7.061L120.55,299.069z"/>
<path style="opacity:0.3;enable-background:new    ;" d="M120.55,299.069c-0.355-0.037-0.709-0.075-1.063-0.112
	c-48.415-5.106-85.12-46.02-85.12-94.704v-23.241c0-12.242-10.015-22.257-22.257-22.257l0,0C5.422,158.756,0,153.334,0,146.645
	v-60.22c0-5.179,4.199-9.378,9.378-9.378l0,0c29.06,0,54.315,23.558,54.315,52.617c0,36.406-19.159,113.602,210.462,113.602
	c49.312,0,177.87-10.148,229.064-21.312c5.774-1.259,10.537,4.55,8.153,9.958l-12.991,29.477
	c-6.59,14.953-19.76,26.002-35.647,29.829c-56.036,13.5-163.248,14.81-192.613,14.81c-22.336,0-90.708-0.759-150.543-7.061
	L120.55,299.069z"/>
<path style="opacity:0.1;enable-background:new    ;" d="M280.474,266.312c-33.662,0-67.485-1.585-97.813-4.584
	c-57.997-5.736-100.061-16.456-121.646-31.004c-3.771-2.541-8.889-1.546-11.429,2.226c-2.541,3.77-1.545,8.888,2.226,11.429
	c24.18,16.297,67.658,27.647,129.228,33.735c30.856,3.051,65.239,4.665,99.433,4.665c38.403,0,156.097-2.128,220.212-26.622
	l10.014-22.722C468.561,257.608,365.264,266.312,280.474,266.312z"/>
<path style="fill:#F0D3A3;" d="M63.693,227.651V157.54c-0.878-10.391,0-20.071,0-27.875c0-29.06-25.255-52.617-54.315-52.617l0,0
	C4.199,77.046,0,81.245,0,86.426v60.221c0,6.689,5.422,12.111,12.111,12.111l0,0c12.242,0,22.257,10.015,22.257,22.257v23.241
	c0,48.683,36.705,89.598,85.12,94.704c0.353,0.037,0.708,0.075,1.063,0.112C87.579,291.466,63.693,262.075,63.693,227.651z"/>
<path style="opacity:0.1;enable-background:new    ;" d="M30.068,106.766c0-4.547-3.686-8.233-8.233-8.233H0v16.467h21.834
	C26.381,114.999,30.068,111.313,30.068,106.766z M21.834,122.684H0v16.467h21.834c4.547,0,8.233-3.686,8.233-8.233
	C30.068,126.37,26.381,122.684,21.834,122.684z"/>
<path style="opacity:0.1;enable-background:new    ;" d="M470.058,283.531c-56.036,13.5-163.248,14.81-192.613,14.81
	c-22.336,0-90.709-0.759-150.543-7.062l0.972,0.101c-0.355-0.037-0.709-0.075-1.063-0.111c-48.415-5.106-85.12-46.02-85.12-94.704
	v-23.241c0-12.242-10.015-22.257-22.257-22.257l0,0c-6.689,0-12.111-5.422-12.111-12.111v-60.22c0-0.508,0.052-1.003,0.13-1.49
	C3.197,78.135,0,81.906,0,86.426v60.221c0,6.689,5.422,12.111,12.111,12.111l0,0c12.242,0,22.257,10.015,22.257,22.257v23.241
	c0,48.683,36.705,89.598,85.12,94.704c0.353,0.037,0.708,0.075,1.063,0.112l-0.972-0.101c59.835,6.304,128.207,7.061,150.543,7.061
	c29.365,0,136.577-1.311,192.613-14.81c11.667-2.81,21.857-9.527,29.063-18.814C485.606,277.708,478.192,281.571,470.058,283.531z"
	/>
<path style="fill:#54C7D8;" d="M512,408.581V284.933c-8.752-7.579-30.633-7.579-39.385,0l0,0c-10.831,9.38-28.554,9.38-39.385,0l0,0
	c-10.831-9.38-28.554-9.38-39.385,0l0,0c-10.831,9.38-28.554,9.38-39.385,0l0,0c-10.831-9.38-28.554-9.38-39.385,0l0,0
	c-10.831,9.38-28.554,9.38-39.385,0l0,0c-10.831-9.38-28.554-9.38-39.385,0l0,0c-10.831,9.38-28.554,9.38-39.385,0l0,0
	c-10.831-9.38-28.554-9.38-39.385,0l0,0c-10.831,9.38-28.554,9.38-39.385,0l0,0c-10.831-9.38-28.554-9.38-39.385,0l0,0
	c-10.831,9.38-28.554,9.38-39.385,0l0,0c-8.752-7.579-30.633-7.579-39.385,0v123.648c0,14.566,11.807,26.372,26.372,26.372h459.255
	C500.193,434.953,512,423.145,512,408.581z"/>
<path style="opacity:0.1;enable-background:new    ;" d="M288.143,343.308c-9.084,0-18.166-2.994-25.084-8.983
	c-7.753-6.714-20.852-6.714-28.604,0c-13.831,11.978-36.335,11.977-50.165,0c-3.437-2.977-3.81-8.176-0.833-11.615
	c2.977-3.437,8.176-3.809,11.615-0.833c7.752,6.714,20.85,6.714,28.604,0c13.83-11.977,36.334-11.977,50.165,0
	c7.752,6.714,20.852,6.714,28.604,0c13.831-11.977,36.335-11.977,50.165,0c7.754,6.714,20.852,6.714,28.605,0
	c13.83-11.977,36.334-11.977,50.165,0c7.752,6.714,20.852,6.714,28.604,0c3.437-2.977,8.636-2.604,11.615,0.833
	c2.976,3.437,2.604,8.637-0.833,11.615c-13.831,11.978-36.334,11.978-50.165,0c-7.752-6.714-20.852-6.714-28.604,0
	c-13.83,11.978-36.335,11.977-50.165,0c-7.752-6.714-20.852-6.713-28.605,0C306.311,340.312,297.225,343.307,288.143,343.308z"/>
<path style="opacity:0.1;enable-background:new    ;" d="M150.221,397.38c-9.084,0.001-18.166-2.994-25.082-8.983
	c-7.753-6.714-20.852-6.714-28.604,0c-13.83,11.978-36.335,11.978-50.165,0c-3.437-2.977-3.81-8.176-0.833-11.615
	c2.976-3.437,8.176-3.81,11.615-0.833c7.752,6.714,20.85,6.714,28.604,0c13.831-11.977,36.335-11.977,50.165,0
	c7.754,6.714,20.853,6.714,28.604,0c13.831-11.977,36.335-11.977,50.165,0c3.437,2.976,3.812,8.176,0.834,11.614
	c-2.976,3.437-8.176,3.81-11.614,0.834c-7.754-6.714-20.854-6.714-28.605,0C168.389,394.385,159.303,397.38,150.221,397.38z"/>
<path style="fill:#F0D3A3;" d="M162.828,300.605l-0.009-0.263c-0.231-7.275,2.54-14.277,7.654-19.39l153.506-153.506
	c4.73-4.73,4.73-12.402,0-17.132c-4.732-4.731-12.402-4.73-17.132,0c-0.319,0.319-0.614,0.654-0.889,0.999L153.397,263.874
	c-5.114,5.114-12.114,7.884-19.342,7.655c-6.142-0.194-12.085,2.175-16.405,6.544c-10.354,10.474-30.205,30.358-40.743,40.907
	c-3.853,3.858-3.848,10.103,0.008,13.96l24.494,24.494c3.857,3.857,10.109,3.859,13.967,0.004l41.265-41.215
	C160.773,312.095,163.013,306.443,162.828,300.605z"/>
</svg>