<?xml version="1.0" encoding="iso-8859-1"?>
<!-- Uploaded to: SVG Repo, www.svgrepo.com, Generator: SVG Repo Mixer Tools -->
<!DOCTYPE svg PUBLIC "-//W3C//DTD SVG 1.1//EN" "http://www.w3.org/Graphics/SVG/1.1/DTD/svg11.dtd">
<svg fill="#000000" version="1.1" id="Capa_1" xmlns="http://www.w3.org/2000/svg" xmlns:xlink="http://www.w3.org/1999/xlink" 
	 width="800px" height="800px" viewBox="0 0 135.716 135.716"
	 xml:space="preserve">
<g>
	<path d="M120.367,74.265c-0.216-0.223-17.994-19.411-24.414-44.295c1.968,0.886,4.127,1.408,6.427,1.408
		c8.645,0,15.685-7.036,15.685-15.689C118.064,7.038,111.024,0,102.38,0c-8.035,0-14.592,6.088-15.506,13.877
		c-0.212,0.359-0.387,0.744-0.465,1.176c-0.059,0.297-0.441,2.609-0.575,6.464h-1.77V3.504c0-1.937-1.57-3.504-3.504-3.504
		c-1.938,0-3.504,1.567-3.504,3.504v18.013H71.19V3.504C71.19,1.567,69.62,0,67.687,0c-1.936,0-3.504,1.567-3.504,3.504v18.013
		h-5.523V3.504C58.659,1.567,57.088,0,55.154,0c-1.935,0-3.504,1.567-3.504,3.504v18.013h-2.113
		c-0.13-3.855-0.519-6.167-0.575-6.464c0-0.009-0.007-0.016-0.007-0.022C48.601,6.69,41.76,0,33.336,0
		c-8.648,0-15.686,7.038-15.686,15.689c0,8.653,7.038,15.689,15.686,15.689c2.291,0,4.454-0.519,6.423-1.408
		c-6.42,24.888-24.208,44.079-24.47,44.353c-6.013,6.69-9.195,14.438-9.195,22.408c0,22.587,25.978,38.985,61.763,38.985
		c35.785,0,61.764-16.398,61.764-38.985C129.617,88.764,126.438,81.017,120.367,74.265z M102.373,7.017
		c4.784,0,8.679,3.893,8.679,8.68c0,4.786-3.895,8.679-8.679,8.679c-4.503,0-8.172-3.465-8.596-7.862
		c-0.014-0.291-0.062-0.575-0.076-0.866C93.732,10.883,97.609,7.017,102.373,7.017z M85.913,28.529
		c0.581,10.583,3.367,26.599,13.004,45.274c2.245,4.359,6.913,15.652,7.152,19.04c0.294,4.213-1.126,8.036-4.223,11.358
		c-3.854,4.134-9.966,7.108-17.785,8.795V28.529H85.913z M77.053,28.529v85.539c-2.047,0.223-4.186,0.359-6.396,0.425
		c0.305-0.517,0.531-1.096,0.531-1.739V28.529H77.053z M64.179,28.529v84.224c0,0.647,0.224,1.223,0.529,1.739
		c-2.093-0.065-4.11-0.195-6.056-0.391V28.529H64.179z M51.646,113.075c-7.991-1.67-14.217-4.682-18.127-8.874
		c-3.099-3.322-4.518-7.146-4.223-11.358c0.238-3.388,4.906-14.674,7.149-19.04c9.637-18.675,12.426-34.691,13.008-45.274h2.19
		v84.546H51.646z M33.333,24.373c-4.783,0-8.677-3.893-8.677-8.68c0-4.786,3.894-8.68,8.677-8.68c4.765,0,8.641,3.871,8.673,8.629
		c-0.014,0.291-0.06,0.575-0.077,0.864C41.508,20.908,37.84,24.373,33.333,24.373z M67.854,128.708
		c-31.728,0-54.754-13.449-54.754-31.978c0-6.207,2.558-12.337,7.337-17.654c0.597-0.634,8.39-9.031,15.696-21.945
		c-1.583,4.286-3.496,8.771-5.915,13.461c-1.502,2.926-7.527,16.285-7.909,21.758c-0.431,6.146,1.675,11.896,6.086,16.632
		c7.584,8.131,21.538,12.61,39.292,12.61c17.754,0,31.706-4.479,39.29-12.61c4.411-4.74,6.519-10.485,6.088-16.632
		c-0.384-5.473-6.406-18.832-7.912-21.758c-2.725-5.279-4.825-10.314-6.502-15.08c7.549,13.837,15.981,22.875,16.569,23.498
		c4.839,5.383,7.396,11.509,7.396,17.72C122.608,115.259,99.581,128.708,67.854,128.708z"/>
</g>
</svg>