<?xml version="1.0" encoding="iso-8859-1"?>
<!-- Uploaded to: SVG Repo, www.svgrepo.com, Generator: SVG Repo Mixer Tools -->
<svg fill="#000000" height="800px" width="800px" version="1.1" id="Layer_1" xmlns="http://www.w3.org/2000/svg" xmlns:xlink="http://www.w3.org/1999/xlink" 
	 viewBox="0 0 512 512" xml:space="preserve">
<g>
	<g>
		<path d="M490.662,469.333h-10.667v-10.667c0-5.888-4.779-10.667-10.667-10.667h-32v-10.667c0-13.888-8.939-25.621-21.333-30.037
			V168.704c12.395-4.416,21.333-16.149,21.333-30.037V128h53.333c5.013,0,9.365-3.499,10.432-8.427
			c1.067-4.885-1.429-9.877-6.016-11.968L260.411,0.939c-0.085-0.043-0.192-0.021-0.299-0.064c-1.003-0.427-2.069-0.597-3.157-0.683
			C256.592,0.149,256.23,0,255.846,0c-1.429,0.021-2.88,0.299-4.288,0.939L16.891,107.605c-1.237,0.576-2.304,1.387-3.2,2.325
			c-0.32,0.32-0.512,0.704-0.768,1.045c-0.512,0.683-0.981,1.365-1.323,2.155c-0.192,0.448-0.299,0.917-0.427,1.387
			c-0.213,0.768-0.363,1.536-0.384,2.325c-0.021,0.533,0,1.024,0.064,1.557c0.043,0.384-0.043,0.768,0.043,1.152
			c0.107,0.448,0.363,0.832,0.512,1.259c0.107,0.299,0.085,0.619,0.213,0.917c0.064,0.149,0.213,0.192,0.299,0.341
			c0.811,1.621,1.984,2.944,3.435,3.947c0.277,0.192,0.555,0.32,0.853,0.469c1.557,0.875,3.243,1.472,5.12,1.472h53.333v10.667
			c0,13.888,8.939,25.621,21.333,30.037v238.592c-12.395,4.416-21.333,16.149-21.333,30.037V448h-32
			c-5.888,0-10.667,4.779-10.667,10.667v10.667H21.328c-5.888,0-10.667,4.779-10.667,10.667v21.333
			c0,5.888,4.779,10.667,10.667,10.667h469.333c5.888,0,10.667-4.779,10.667-10.667V480
			C501.328,474.112,496.55,469.333,490.662,469.333z M223.995,407.296c-12.395,4.416-21.333,16.149-21.333,30.037V448h-21.333
			v-10.667c0-13.888-8.939-25.621-21.333-30.037V168.704c12.395-4.416,21.333-16.149,21.333-30.037V128h21.333v10.667
			c0,13.888,8.939,25.621,21.333,30.037V407.296z M351.995,407.296c-12.395,4.416-21.333,16.149-21.333,30.037V448h-21.333v-10.667
			c0-13.888-8.939-25.621-21.333-30.037V168.704c12.395-4.416,21.333-16.149,21.333-30.037V128h21.333v10.667
			c0,13.888,8.939,25.621,21.333,30.037V407.296z"/>
	</g>
</g>
</svg>