<?xml version="1.0" encoding="iso-8859-1"?>
<!-- Uploaded to: SVG Repo, www.svgrepo.com, Generator: SVG Repo Mixer Tools -->
<svg version="1.1" id="Layer_1" xmlns="http://www.w3.org/2000/svg" xmlns:xlink="http://www.w3.org/1999/xlink" 
	 viewBox="0 0 475 475" xml:space="preserve">
<g>
	<rect x="237.5" y="431.99" style="fill:#FFCD00;" width="237.5" height="40"/>
	<rect x="237.5" y="367.84" style="fill:#FFDE55;" width="218.57" height="64.15"/>
	<polygon style="fill:#FFCD00;" points="456.07,135.73 456.07,60.3 237.5,3.01 237.5,135.73 	"/>
	<rect x="237.5" y="303.69" style="fill:#FFCD00;" width="198.57" height="64.15"/>
	<path style="fill:#E4187A;" d="M237.5,135.731h20v167.958h-20c0,0.001,184.57,0.001,184.57,0.001
		c0-0.001-25.998-0.001-25.998-0.001V135.731h25.998C422.07,135.73,237.5,135.73,237.5,135.731z M306.39,135.731h40v167.958h-40
		V135.731z"/>
	<rect y="431.99" style="fill:#FFDE55;" width="237.5" height="40"/>
	<rect x="18.93" y="367.84" style="fill:#FFEB99;" width="218.57" height="64.15"/>
	<rect x="38.93" y="303.69" style="fill:#FFDE55;" width="198.57" height="64.15"/>
	<path style="fill:#ED539D;" d="M237.5,303.689h-20V135.731h20c0-0.001-184.57-0.001-184.57-0.001
		c0,0.001,25.997,0.001,25.997,0.001v167.958H52.93C52.93,303.69,237.5,303.69,237.5,303.689z M168.61,303.689h-40V135.731h40
		V303.689z"/>
	<polygon style="fill:#FFDE55;" points="237.5,3.01 18.93,60.3 18.93,135.73 237.5,135.73 	"/>
	<rect x="38.927" y="135.731" style="fill:#FFF5CC;" width="40" height="167.958"/>
	<rect x="396.072" y="135.731" style="fill:#FFEB99;" width="40" height="167.958"/>
	<rect x="306.39" y="135.731" style="fill:#FFEB99;" width="40" height="167.958"/>
	<rect x="128.61" y="135.731" style="fill:#FFF5CC;" width="40" height="167.958"/>
	<rect x="217.5" y="135.731" style="fill:#FFEB99;" width="40" height="167.958"/>
</g>
</svg>