<?xml version="1.0" encoding="iso-8859-1"?>
<!-- Uploaded to: SVG Repo, www.svgrepo.com, Generator: SVG Repo Mixer Tools -->
<svg fill="#000000" version="1.1" id="Layer_1" xmlns="http://www.w3.org/2000/svg" xmlns:xlink="http://www.w3.org/1999/xlink" 
	 viewBox="0 0 300 300" xml:space="preserve">
<g>
	<g>
		<g>
			<polygon points="87.097,168.047 96.774,168.047 96.774,143.854 111.29,143.854 111.29,134.176 72.581,134.176 72.581,143.854 
				87.097,143.854 			"/>
			<path d="M222.581,95.486v-0.019h-0.019l-58.137-60.29l-56.332,61.456c-3.392-0.595-7.127-0.944-11.318-1.084v-4.921h-9.677v4.921
				c-21.973,0.745-31.674,7.021-42.905,26.535l-1.316,2.284c-7.437,12.871-18.682,32.318-18.682,48.518
				c0,16.476,4.495,21.111,13.437,29.971l-17.245,15.329L0,253.857v10.965h232.258v-9.677h-50.235l-18.435-36.866l-17.347-15.421
				c5.55-5.497,9.392-9.373,11.502-15.455H300v-11.627L222.581,95.486z M152.061,62.989l-9.755,27.639h-15.581L152.061,62.989z
				 M138.895,100.307l-4.679,13.253c-4.456-6.179-9.053-10.437-14.642-13.253H138.895z M128.076,148.693l1.631-24.46
				c0.523,0.861,1.05,1.747,1.587,2.681l1.326,2.298c3.198,5.531,7.123,12.382,10.452,19.481H128.076z M147.033,158.37
				c1.152,3.31,2.066,6.566,2.54,9.677h-22.79l0.644-9.677H147.033z M87.096,105.242v9.581h9.678v-9.581
				c11.487,0.44,18.421,2.589,24,7.524l-4.031,60.445c-0.169,2.531-2.294,4.514-4.829,4.514H71.956c-2.535,0-4.66-1.984-4.829-4.519
				l-4.031-60.44C68.675,107.835,75.604,105.682,87.096,105.242z M51.256,129.213l1.326-2.298c0.537-0.934,1.065-1.819,1.587-2.681
				l1.626,24.46h-14.99C44.129,141.594,48.058,134.744,51.256,129.213z M36.837,158.37h19.606l0.644,9.677h-22.79
				C34.771,164.937,35.686,161.679,36.837,158.37z M34.045,177.726H58.34c0.59,1.645,1.452,3.14,2.555,4.452l-16.016,14.235
				l-0.145-0.14C37.413,189.024,34.689,186.256,34.045,177.726z M171.203,255.145H10.413l16.592-29.032h129.687L171.203,255.145z
				 M146.952,216.434H36.919l32.894-29.24c0.706,0.106,1.413,0.208,2.144,0.208h39.958c0.731,0,1.437-0.102,2.144-0.208
				L146.952,216.434z M139.137,196.273l-0.145,0.145l-16.016-14.24c1.103-1.311,1.965-2.806,2.555-4.452h24.295
				C149.182,186.255,146.458,189.023,139.137,196.273z M159.513,177.725c0.102-1.5,0.165-3.092,0.165-4.839
				c0-16.2-11.245-35.647-18.682-48.518l-0.208-0.358l25.684-72.769l42.648,44.226h-8.482l-9.677,14.516h-21.605v9.677h26.782
				l9.677-14.516h12.634l37.326,38.71h-23.516v9.677h32.85l23.327,24.194H159.513z"/>
			<rect x="212.903" y="143.854" width="9.677" height="9.677"/>
			<rect x="193.548" y="143.854" width="9.677" height="9.677"/>
			<rect x="169.355" y="163.21" width="9.677" height="9.677"/>
			<rect x="130.645" y="235.789" width="9.677" height="9.677"/>
			<rect x="111.29" y="235.789" width="9.677" height="9.677"/>
			<rect x="241.935" y="255.145" width="9.677" height="9.677"/>
		</g>
	</g>
</g>
</svg>