<?xml version="1.0" encoding="iso-8859-1"?>
<!-- Uploaded to: SVG Repo, www.svgrepo.com, Generator: SVG Repo Mixer Tools -->
<svg height="800px" width="800px" version="1.1" id="Capa_1" xmlns="http://www.w3.org/2000/svg" xmlns:xlink="http://www.w3.org/1999/xlink" 
	 viewBox="0 0 19.307 19.307" xml:space="preserve">
<g>
	<path style="fill:#030104;" d="M19.184,14.431v-0.457h-0.45l-0.12-6.665l0.391-0.271l0.062-0.512c0,0-0.121-0.09-0.422-0.061
		l0.061-1.232l-4.424-1.411l-4.359,0.66L9.229,4.329L6.376,4.874l-0.03,1.261l0.053,0.037c-0.4,0.09-0.807,0.203-0.807,0.203
		l0.029,0.361l0.572,0.391L5.8,13.855H5.353v0.418l-0.16,0.002v-0.301H4.805L4.721,7.729C3.94,7.518,3.398,7.7,3.398,7.7
		l-0.34,6.273H2.786v0.336l-0.179,0.002v-0.338H2.224l-0.12-5.884c0,0,0.271-0.09,0.271-0.209s0.119-0.33,0.119-0.33l0.242-0.062
		V7.249c0,0-0.315-0.111-0.72-0.143L1.955,7.077L1.771,7.101c-0.021,0-0.037-0.002-0.058-0.002C1.173,7.128,0.51,7.249,0.51,7.249
		L0.482,7.487L0.931,7.88l-0.294,6.093H0.199v0.369L0,14.346v1.139h19.307v-1.051L19.184,14.431z M3.5,7.999l0.008-0.182H3.51
		L3.5,7.999z M8.796,13.774H8.299v0.457l-0.32,0.004v-0.381H7.602L7.486,7.128l0.724-0.48l0.025-0.361l0.489-0.061
		C8.867,6.447,9.08,6.648,9.08,6.648L8.796,13.774z M12.037,13.774h-0.271v0.41l-0.561,0.01v-0.42h-0.538l-0.145-7.098l0.661-0.451
		v-0.31l0.979-0.123c0.057,0.195,0.192,0.373,0.192,0.373L12.037,13.774z M14.751,13.875h-0.316v-0.1h-0.427l-0.206-7.488
		c0,0,0.271-0.15,0.451-0.332c0.044-0.043,0.071-0.1,0.089-0.158l0.133,0.043c0.011,0.143,0.072,0.299,0.072,0.299
		s0.212,0.09,0.153,0.27c-0.062,0.18,0.389,0.363,0.389,0.363L14.751,13.875z M16.918,13.974v-0.101h-0.521
		c0.007-1.084-0.06-7.025,0.077-7.107c0.04-0.025,0.201-0.07,0.243-0.125c0.024,0.285,0.633,0.578,0.633,0.578l-0.21,6.734
		l0.531,0.021H16.918z"/>
</g>
</svg>