<?xml version="1.0" encoding="utf-8"?>

<!DOCTYPE svg PUBLIC "-//W3C//DTD SVG 1.1//EN" "http://www.w3.org/Graphics/SVG/1.1/DTD/svg11.dtd">
<!-- Uploaded to: SVG Repo, www.svgrepo.com, Generator: SVG Repo Mixer Tools -->
<svg height="800px" width="800px" version="1.1" id="_x32_" xmlns="http://www.w3.org/2000/svg" xmlns:xlink="http://www.w3.org/1999/xlink" 
	 viewBox="0 0 512 512"  xml:space="preserve">
<style type="text/css">
	.st0{fill:#000000;}
</style>
<g>
	<path class="st0" d="M0,17.22v195.422v26.724h512v-26.724V17.22H0z M152.5,140.535c0,0,0,0.094-0.008,0.149h0.008v18.043h-10.172
		v22.658H152.5v31.256H54.464v-31.256h9.52v-22.658h-9.52v-18.043c0,0,0-0.056,0-0.083v-7.124
		c1.836-25.502,23.041-45.634,49.019-45.634c25.986,0,47.228,20.177,49.018,45.708V140.535z M305.012,140.601
		c0,0.028,0,0.056,0,0.056v18.071H295.8v22.658h9.212v31.256h-98.028v-31.256h9.194v-22.658h-9.194v-18.043v-0.149v-6.984
		c1.781-25.531,23.013-45.708,49.009-45.708c25.968,0,47.182,20.131,49.019,45.634V140.601z M457.526,140.601
		c0,0.028,0,0.056,0,0.056v18.071h-9.51v22.658h9.51v31.256h-98.041v-31.256h10.168v-22.658h-10.168v-18.043c0,0,0-0.056,0-0.083
		v-7.087c1.808-25.531,23.036-45.671,49.032-45.671c25.96,0,47.182,20.131,49.009,45.634V140.601z"/>
	<path class="st0" d="M0,494.78h77.58v-69.29h13.828v-29.699H77.58v-46.986c7.03-32.104,35.6-56.161,69.812-56.161
		c34.221,0,62.791,24.057,69.822,56.17v46.976h-15.665v29.699h15.665v69.29h77.56v-69.29h15.674v-29.699h-15.674v-46.976
		c7.031-32.114,35.592-56.17,69.845-56.17c34.202,0,62.772,24.057,69.802,56.161v46.986h-13.838v29.699h13.838v69.29H512V258.461H0
		V494.78z"/>
</g>
</svg>