<?xml version="1.0" encoding="utf-8"?>

<!DOCTYPE svg PUBLIC "-//W3C//DTD SVG 1.1//EN" "http://www.w3.org/Graphics/SVG/1.1/DTD/svg11.dtd">
<!-- Uploaded to: SVG Repo, www.svgrepo.com, Generator: SVG Repo Mixer Tools -->
<svg height="800px" width="800px" version="1.1" id="_x32_" xmlns="http://www.w3.org/2000/svg" xmlns:xlink="http://www.w3.org/1999/xlink" 
	 viewBox="0 0 512 512"  xml:space="preserve">
<style type="text/css">
	.st0{fill:#000000;}
</style>
<g>
	<path class="st0" d="M375.37,275.1c0-3.37,0.057-6.765,0.057-10.166c-0.006-6.064-0.164-12.165-1.29-18.26
		c-0.847-4.552-2.257-9.117-4.622-13.466c-3.515-6.538-9.186-12.392-17.196-16.964c-8.029-4.602-18.36-8.098-31.89-10.64
		c-7.416-1.372-12.575-3.18-15.25-4.698c-0.449-0.253-0.797-0.48-1.106-0.696c1.195-1.012,3.597-2.484,7.138-3.838
		c11.051-4.337,24.126-12.36,35.089-24.468c10.931-12.082,19.675-28.464,21.002-48.727c0.102-1.485,0.146-2.959,0.146-4.42
		c0.019-14.187-4.672-26.674-11.652-37.093c-10.502-15.66-25.934-27.079-39.869-35.513c-6.98-4.211-13.606-7.663-19.087-10.419
		c-2.738-1.378-5.191-2.579-7.214-3.604c-2.03-1.018-3.654-1.872-4.615-2.447c-2.415-1.429-4.565-3.528-6.563-6.126
		c-3.022-3.901-5.488-8.769-8.244-13.232c-1.404-2.232-2.858-4.419-4.976-6.43c-1.068-0.999-2.333-1.953-3.888-2.693
		c-1.555-0.739-3.42-1.207-5.317-1.201c-2.542-0.02-4.969,0.847-6.771,2.01c-1.612,1.018-2.845,2.206-3.907,3.42
		c-1.846,2.137-3.237,4.407-4.615,6.727c-2.036,3.477-4.008,7.094-6.253,10.211c-2.232,3.135-4.672,5.684-7.429,7.314
		c-1.353,0.804-3.825,2.074-6.898,3.636c-5.406,2.737-12.752,6.442-20.725,11.19c-11.956,7.138-25.378,16.615-36.076,29.209
		c-5.342,6.298-10.002,13.404-13.328,21.376c-3.332,7.972-5.304,16.824-5.304,26.396c0,0.455,0.012,0.904,0.012,1.353
		c0.19,10.204,2.491,19.504,6.158,27.711c5.5,12.322,13.985,22.178,23.026,29.734c9.053,7.549,18.676,12.854,26.921,16.084
		c3.496,1.346,5.942,2.794,7.144,3.819c-0.854,0.606-2.238,1.39-4.236,2.162c-2.902,1.144-6.968,2.289-12.12,3.25
		c-12.038,2.257-21.528,5.272-29.14,9.148c-5.69,2.902-10.324,6.31-13.972,10.192c-5.5,5.823-8.585,12.645-10.128,19.461
		c-1.562,6.834-1.758,13.713-1.771,20.541c0.006,3.395,0.064,6.784,0.064,10.148c-0.013,0.714-0.878,44.996-1.745,91.523
		c-0.443,23.456-0.873,34.52-1.202,53.81c-0.329,19.309-0.544,33.8-0.544,38.46c0,3.42,0.822,6.822,2.27,10.091
		c2.56,5.721,6.999,11.089,13.157,16.084c9.275,7.48,22.533,14.137,40.185,19.018c17.658,4.869,39.717,7.922,66.6,7.922
		c41.134,0,71.317-8.504,91.53-19.018c10.109-5.26,17.728-11.002,23.045-16.628c2.668-2.819,4.754-5.614,6.284-8.447
		c1.504-2.832,2.529-5.722,2.56-9.022v-0.076v-0.05L375.37,275.1z M334.863,272.628c5.81,0,10.514,4.711,10.514,10.515
		c0,5.803-4.704,10.508-10.514,10.508c-5.81,0-10.514-4.704-10.514-10.508C324.348,277.338,329.052,272.628,334.863,272.628z
		 M257.773,285.538c5.81,0,10.514,4.71,10.514,10.514c0,5.804-4.704,10.508-10.514,10.508c-5.804,0-10.508-4.704-10.508-10.508
		C247.266,290.248,251.97,285.538,257.773,285.538z M180.691,272.628c5.804,0,10.508,4.711,10.508,10.515
		c0,5.803-4.704,10.508-10.508,10.508c-5.804,0-10.514-4.704-10.514-10.508C170.177,277.338,174.887,272.628,180.691,272.628z
		 M363.256,461.547c-1.51,2.624-4.817,6.449-9.964,10.413c-7.732,5.981-19.587,12.418-35.804,17.311
		c-16.217,4.9-36.809,8.276-62.092,8.276c-39.287,0.02-67.017-6.853-84.397-15.426c-8.693-4.274-14.782-8.978-18.48-13.214
		c-1.846-2.112-3.104-4.097-3.856-5.804c-0.765-1.713-1.031-3.123-1.031-4.217c0-4.356,0.215-18.961,0.544-38.213
		c0.487-28.912,1.226-55.536,1.84-87.874c0.202-10.407,0.386-20.042,0.544-28.35c1.89,1.302,4.135,2.762,6.778,4.293
		c7.928,4.615,19.404,9.882,35.841,13.953c16.445,4.078,37.852,6.98,65.76,6.98c43.005,0,70.804-7.998,88.538-17.754
		c5.608-3.085,10.192-6.341,13.922-9.566l2.965,156.542C364.369,459.037,364.129,460.093,363.256,461.547z"/>
</g>
</svg>