<?xml version="1.0" encoding="utf-8"?>

<!DOCTYPE svg PUBLIC "-//W3C//DTD SVG 1.1//EN" "http://www.w3.org/Graphics/SVG/1.1/DTD/svg11.dtd">
<!-- Uploaded to: SVG Repo, www.svgrepo.com, Generator: SVG Repo Mixer Tools -->
<svg version="1.1" id="_x32_" xmlns="http://www.w3.org/2000/svg" xmlns:xlink="http://www.w3.org/1999/xlink" 
	 width="800px" height="800px" viewBox="0 0 512 512"  xml:space="preserve">
<style type="text/css">
<![CDATA[
	.st0{fill:#000000;}
]]>
</style>
<g>
	<path class="st0" d="M256,91.016c-130.844,0-193.422,153.609-256,329.969h512C449.438,244.625,386.844,91.016,256,91.016z
		 M354.688,319.703c12.156,3.781,18.938,16.672,15.156,28.813c-3.063,9.875-12.156,16.203-21.969,16.203
		c-2.266,0-4.563-0.328-6.844-1.031c-41.781-12.984-73.641-40.391-94.188-80.438c-20.469,39.797-52.219,67.391-94.219,80.438
		c-2.281,0.703-4.578,1.031-6.844,1.031c-9.813,0-18.906-6.328-21.969-16.203c-3.781-12.141,3.016-25.031,15.156-28.813
		c38.781-12.031,60.969-40.656,73.453-72.656h-66.625c-12.719,0-23.016-10.297-23.016-23.016s10.297-23.016,23.016-23.016h78.5
		c2.516-16.719,3.344-32.688,3.344-46.047c0-12.719,10.313-23.016,23.016-23.016c12.719,0,23.031,10.297,23.031,23.016
		c0,16.172-1.031,31.469-2.859,46.047h94.953c12.688,0,23,10.297,23,23.016s-10.313,23.016-23,23.016h-84.75
		C295.547,284.578,320.203,309,354.688,319.703z"/>
</g>
</svg>