<?xml version="1.0" encoding="utf-8"?>

<!DOCTYPE svg PUBLIC "-//W3C//DTD SVG 1.1//EN" "http://www.w3.org/Graphics/SVG/1.1/DTD/svg11.dtd">
<!-- Uploaded to: SVG Repo, www.svgrepo.com, Generator: SVG Repo Mixer Tools -->
<svg height="800px" width="800px" version="1.1" id="_x32_" xmlns="http://www.w3.org/2000/svg" xmlns:xlink="http://www.w3.org/1999/xlink" 
	 viewBox="0 0 512 512"  xml:space="preserve">
<style type="text/css">
	.st0{fill:#000000;}
</style>
<g>
	<polygon class="st0" points="490.293,266.553 490.293,283.028 470.427,281.839 470.427,264.795 445.16,262.547 445.16,280.326 
		421.903,278.957 421.903,260.471 392.128,257.819 392.128,277.177 364.551,275.519 364.551,255.383 328.974,252.205 
		328.974,306.177 512,306.177 512,268.485 	"/>
	<polygon class="st0" points="328.974,427.123 512,399.125 512,315.035 328.974,315.035 	"/>
	<polygon class="st0" points="147.475,280.124 119.873,281.775 119.873,262.417 90.105,265.076 90.105,283.533 66.844,284.932 
		66.844,267.123 41.594,269.372 41.594,286.445 21.711,287.627 21.711,271.152 0,273.083 0,310.761 183.048,310.761 
		183.048,256.803 147.475,259.96 	"/>
	<polygon class="st0" points="0,403.723 183.048,431.714 183.048,319.64 0,319.64 	"/>
	<polygon class="st0" points="294.165,211.226 270.14,211.226 270.14,190.023 241.871,190.023 241.871,211.226 217.844,211.226 
		217.844,190.023 189.574,190.023 189.574,239.491 198.06,239.491 217.844,239.491 241.871,239.491 270.14,239.491 294.165,239.491 
		322.437,239.491 322.437,211.226 322.437,190.023 294.165,190.023 	"/>
	<path class="st0" d="M195.758,431.714l17.52,4.331c28.06,6.94,57.392,6.94,85.452,0l17.52-4.331V252.212H195.758V431.714z
		 M245.402,283.361h21.203v40.272h-21.203V283.361z"/>
	<polygon class="st0" points="261.842,128.311 309.443,128.311 309.443,122.726 309.443,92.399 309.443,84.039 261.842,70.749 
		250.772,70.749 250.772,181.455 261.842,181.455 	"/>
	<polygon class="st0" points="318.293,92.399 318.293,122.726 360.36,113.919 	"/>
</g>
</svg>