<?xml version="1.0" encoding="utf-8"?>

<!DOCTYPE svg PUBLIC "-//W3C//DTD SVG 1.1//EN" "http://www.w3.org/Graphics/SVG/1.1/DTD/svg11.dtd">
<!-- Uploaded to: SVG Repo, www.svgrepo.com, Generator: SVG Repo Mixer Tools -->
<svg version="1.1" id="_x32_" xmlns="http://www.w3.org/2000/svg" xmlns:xlink="http://www.w3.org/1999/xlink" 
	 viewBox="0 0 512 512"  xml:space="preserve">
<style type="text/css">
	.st0{fill:#000000;}
</style>
<g>
	<rect x="67.042" y="275.211" class="st0" width="20.204" height="35.892"/>
	<rect x="424.784" y="275.211" class="st0" width="20.188" height="35.892"/>
	<path class="st0" d="M504.721,178.363h-65.72v-49.656c18.542-3.331,29.144,5.963,43.085,3.132
		c16.065-3.254,28.282-24.458,27.513-27.728c-0.754-3.248-11.448,9.801-37.453-6.509c-14.51-9.094-25.882-11.064-33.145-11.041
		v-1.454h-10.048v93.256h-71.212v60.572h-96.694v-51.224c18.542-3.332,29.144,5.948,43.085,3.131
		c16.049-3.269,28.282-24.457,27.513-27.72c-0.754-3.238-11.464,9.787-37.469-6.493c-14.494-9.125-25.881-11.087-33.129-11.079
		v-1.439h-10.048v94.825h-96.74v-60.572H82.492v-49.656c18.542-3.331,29.128,5.963,43.084,3.132
		c16.049-3.254,28.267-24.458,27.498-27.728c-0.739-3.248-11.449,9.801-37.453-6.509c-14.51-9.094-25.897-11.064-33.129-11.041
		v-1.454H72.444v93.256H0v65.426h8.71v183.103h123.606h5.97h103.68h4.416h19.234h108.127h5.956h123.606V243.79H512v-65.426H504.721z
		 M130.424,411.751H23.866V237.612h106.558V411.751z M139.132,228.633H15.141v-35.144h16.295v15.534h10.618v-15.534h16.295v15.534
		h10.648v-15.534h16.296v15.534h10.617v-15.534h16.296v15.534h10.633v-15.534h16.295V228.633z M371.852,411.751h-91.093v-34.384
		c0-13.679-11.079-24.758-24.759-24.758c-13.664,0-24.743,11.08-24.743,24.758v34.384h-91.093V297.9h231.688V411.751z
		 M371.852,289.214H140.164v-19.612v-15.518h16.296v15.518h10.632v-15.518h16.295v15.518h10.633v-15.518h16.296v15.518h10.618
		v-15.518h16.295v15.518h10.632v-15.518h16.296v15.518h10.633v-15.518h16.28v15.518h10.648v-15.518h16.28v15.518h10.632v-15.518
		h16.295v15.518h10.618v-15.518h16.311V289.214z M488.165,411.751H381.592V237.612h106.573V411.751z M496.874,228.633H372.883
		v-35.144h16.295v15.534h10.618v-15.534h16.295v15.534h10.632v-15.534h16.281v15.534h10.648v-15.534h16.296v15.534h10.632v-15.534
		h16.295V228.633z"/>
</g>
</svg>