<?xml version="1.0" encoding="utf-8"?>

<!DOCTYPE svg PUBLIC "-//W3C//DTD SVG 1.1//EN" "http://www.w3.org/Graphics/SVG/1.1/DTD/svg11.dtd">
<!-- Uploaded to: SVG Repo, www.svgrepo.com, Generator: SVG Repo Mixer Tools -->
<svg version="1.1" id="_x32_" xmlns="http://www.w3.org/2000/svg" xmlns:xlink="http://www.w3.org/1999/xlink" 
	 viewBox="0 0 512 512"  xml:space="preserve">
<style type="text/css">
	.st0{fill:#000000;}
</style>
<g>
	<rect x="67.044" y="228.577" class="st0" width="20.19" height="35.899"/>
	<rect x="424.78" y="228.577" class="st0" width="20.19" height="35.899"/>
	<path class="st0" d="M504.719,131.735H357.737v60.568H154.263v-60.568H0v65.415h8.72v183.115h123.591h5.967h103.698h4.416h19.23
		h108.114h5.954h123.606V197.15H512v-65.415H504.719z M130.42,365.119H23.858V190.977H130.42V365.119z M139.125,181.997H15.153
		v-35.123h16.281v15.519h10.638v-15.519h16.281v15.519h10.637v-15.519h16.296v15.519h10.637v-15.519h16.281v15.519h10.638v-15.519
		h16.281V181.997z M371.845,365.119H280.76v-34.383c0-13.67-11.089-24.753-24.76-24.753c-13.671,0-24.746,11.082-24.746,24.753
		v34.383h-91.085V251.27h231.677V365.119z M371.845,242.579H140.168v-19.603v-15.526h16.296v15.526h10.624v-15.526h16.296v15.526
		h10.637v-15.526h16.282v15.526h10.638v-15.526h16.281v15.526h10.638v-15.526h16.296v15.526h10.624v-15.526h16.296v15.526h10.624
		v-15.526h16.295v15.526h10.638v-15.526h16.281v15.526h10.638v-15.526h16.296V242.579z M488.156,365.119H381.594V190.977h106.562
		V365.119z M496.861,181.997H372.876v-35.123h16.295v15.519h10.624v-15.519h16.296v15.519h10.638v-15.519h16.281v15.519h10.637
		v-15.519h16.296v15.519h10.624v-15.519h16.295V181.997z"/>
</g>
</svg>