<?xml version="1.0" encoding="utf-8"?>

<!DOCTYPE svg PUBLIC "-//W3C//DTD SVG 1.1//EN" "http://www.w3.org/Graphics/SVG/1.1/DTD/svg11.dtd">
<!-- Uploaded to: SVG Repo, www.svgrepo.com, Generator: SVG Repo Mixer Tools -->
<svg height="800px" width="800px" version="1.1" id="_x32_" xmlns="http://www.w3.org/2000/svg" xmlns:xlink="http://www.w3.org/1999/xlink" 
	 viewBox="0 0 512 512"  xml:space="preserve">
<style type="text/css">
	.st0{fill:#000000;}
</style>
<g>
	<path class="st0" d="M134.734,221.643h242.532c100.6,0,130.234-47.134,130.234-47.134l-14.363-23.567c0,0-5.39,12.192-37.724,8.948
		c-32.341-3.252-43.122-9.378-60.194-28.066c-16.163-18.697-19.547-38.5-16.163-48.893c4.491-13.827,3.806-29.8,0.892-39.02
		c-3.442-10.913-10.203-20.488-19.803-26.622l-22.742,9.889c5.242,6.241,8.411,15.304,8.411,24.863
		c0,15.255-13.67,27.628-30.534,27.628h-44.906h-26.052h-47.605c-16.873,0-30.542-12.373-30.542-27.628
		c0-9.559,3.17-18.622,8.419-24.863l-22.75-9.889c-9.591,6.134-16.352,15.709-19.802,26.622c-2.914,9.22-3.591,25.193,0.899,39.02
		c3.376,10.393,0,30.196-16.171,48.893c-17.062,18.688-27.852,24.814-60.185,28.066c-32.334,3.244-37.724-8.948-37.724-8.948
		L4.499,174.509C4.499,174.509,34.134,221.643,134.734,221.643z"/>
	<path class="st0" d="M480.483,311.463v21.562h-19.902v-21.562h-31.517v21.562h-32.045V232.424H114.98v100.601H82.927v-21.562H51.41
		v21.562H31.508v-21.562H0v21.562V494.71h191.584v-47.77c0-35.578,28.833-64.412,64.411-64.412s64.42,28.834,64.42,64.412v47.77H512
		V333.025v-21.562H480.483z M228.152,307.873h-43.114v-46.705h43.114V307.873z M326.954,307.873h-43.107v-46.705h43.107V307.873z"/>
</g>
</svg>