<?xml version="1.0" encoding="utf-8"?>

<!DOCTYPE svg PUBLIC "-//W3C//DTD SVG 1.1//EN" "http://www.w3.org/Graphics/SVG/1.1/DTD/svg11.dtd">
<!-- Uploaded to: SVG Repo, www.svgrepo.com, Generator: SVG Repo Mixer Tools -->
<svg version="1.1" id="_x32_" xmlns="http://www.w3.org/2000/svg" xmlns:xlink="http://www.w3.org/1999/xlink" 
	 viewBox="0 0 512 512"  xml:space="preserve">
<style type="text/css">
	.st0{fill:#000000;}
</style>
<g>
	<path class="st0" d="M510.83,95.941c0,0-10.968,0-24.472,0c3.797-3.798-0.85-6.745-0.85-6.745s-15.176,0-24.458,0
		c-9.282,0-15.191,10.968-15.191,10.968h-12.272l3.826-8.439c0,0-50.631,0-68.344,0c-14.844,0-62.966,0-78.278,0
		c0-7.028,0-25.202,0-42.525c0-22.056-18.131-34.796-34.788-34.796c-16.672,0-34.796,12.74-34.796,34.796
		c0,17.324,0,35.497,0,42.525c-15.312,0-63.442,0-78.285,0c-17.713,0-68.344,0-68.344,0l3.826,8.439H66.139
		c0,0-5.901-10.968-15.183-10.968c-9.282,0-24.473,0-24.473,0s-4.648,2.948-0.85,6.745c-13.497,0-24.465,0-24.465,0
		c-5.902,2.536,10.968,32.068,41.342,32.068c27.717,0,45.586,0,48.512,0l16.006,35.313c3.876,8.559,12.399,14.05,21.787,14.05h53.77
		v107.284l146.82,52.438V177.371h53.777c9.38,0,17.911-5.491,21.78-14.05l16.013-35.313c2.919,0,20.788,0,48.505,0
		C499.862,128.009,516.739,98.478,510.83,95.941z"/>
	<polygon class="st0" points="186.256,300.647 186.256,454.185 325.735,454.185 325.735,350.457 	"/>
	<rect x="176.131" y="468.908" class="st0" width="159.736" height="28.688"/>
</g>
</svg>