<?xml version="1.0" encoding="utf-8"?>

<!DOCTYPE svg PUBLIC "-//W3C//DTD SVG 1.1//EN" "http://www.w3.org/Graphics/SVG/1.1/DTD/svg11.dtd">
<!-- Uploaded to: SVG Repo, www.svgrepo.com, Generator: SVG Repo Mixer Tools -->
<svg version="1.1" id="_x32_" xmlns="http://www.w3.org/2000/svg" xmlns:xlink="http://www.w3.org/1999/xlink" 
	 viewBox="0 0 512 512"  xml:space="preserve">
<style type="text/css">
	.st0{fill:#000000;}
</style>
<g>
	<path class="st0" d="M511.202,93.689c-0.317-0.647-0.771-1.294-1.349-1.858c-0.579-0.558-1.281-1.019-2.01-1.336l-0.936-0.399
		h-1.018c0,0-7.572,0-17.815,0c-0.158-0.62-0.371-1.184-0.605-1.672c-0.73-1.466-1.618-2.403-2.313-3.056
		c-0.702-0.647-1.246-0.998-1.425-1.115l-1.218-0.778h-1.446c0,0-14.896,0-23.996,0c-3.27,0-6.188,0.978-8.57,2.306
		c-3.594,2.002-6.147,4.729-7.902,6.931c-0.434,0.544-0.812,1.053-1.142,1.521h-1.604l3.751-8.274h-7.702c0,0-49.65,0-67.023,0
		c-8.687,0-29.062,0-47.269,0c-9.1,0-17.662,0-23.94,0c-2.051,0-3.827,0-5.327,0c0-7.056,0-20.582,0-33.509
		c0-5.334-1.108-10.235-3.064-14.503c-2.925-6.429-7.709-11.399-13.236-14.737c-5.528-3.338-11.819-5.093-18.042-5.1
		c-8.288,0.013-16.726,3.111-23.279,8.976c-3.27,2.932-6.05,6.581-7.999,10.862c-1.955,4.268-3.063,9.169-3.063,14.503
		c0,12.927,0,26.453,0,33.509c-15.35,0-62.088,0-76.536,0c-8.687,0-25.44,0-40.027,0c-7.289,0-14.042,0-18.971,0
		c-4.921,0-8.019,0-8.025,0h-7.703l3.751,8.274h-1.611c-0.784-1.108-1.831-2.451-3.166-3.855c-1.549-1.604-3.469-3.27-5.872-4.598
		c-2.382-1.329-5.3-2.306-8.57-2.306c-4.55,0-10.545,0-15.412,0c-4.859,0-8.577,0-8.583,0h-1.446l-1.219,0.778
		c-0.234,0.158-1.128,0.722-2.168,1.872c-0.523,0.578-1.088,1.315-1.569,2.3c-0.234,0.488-0.454,1.053-0.606,1.672
		c-4.137,0-7.84,0-10.779,0c-4.344,0-7.028,0-7.034,0h-1.02l-0.936,0.399c-0.73,0.31-1.432,0.771-2.01,1.336
		c-0.875,0.846-1.432,1.879-1.742,2.822C0.096,95.61,0,96.498,0,97.331c0.013,1.811,0.426,3.428,1.046,5.114
		c1.095,2.926,2.905,6.03,5.396,9.217c3.745,4.764,9.038,9.658,15.804,13.43c6.752,3.766,15.013,6.381,24.408,6.381
		c22,0,37.673,0,44.37,0l14.372,31.712c4.605,10.167,14.731,16.692,25.889,16.692h38.106v67.01v1.852l3.902,1.287l5.755,1.955
		v31.635l153.899,54.964V179.877h47.764c11.158,0,21.283-6.526,25.888-16.692l14.373-31.712c6.69,0,22.357,0,44.37,0
		c7.152,0,13.664-1.515,19.329-3.91c8.522-3.593,15.157-9.092,19.769-14.538c2.306-2.733,4.109-5.451,5.396-8.033
		c0.647-1.294,1.164-2.554,1.535-3.799c0.372-1.26,0.62-2.506,0.627-3.862C511.993,96.23,511.834,94.997,511.202,93.689z
		 M46.655,121.54c-5.754,0-10.91-1.205-15.481-3.126c-6.842-2.87-12.341-7.42-16.038-11.798c-1.838-2.182-3.228-4.309-4.095-6.051
		c-0.096-0.192-0.158-0.358-0.241-0.537c4.371,0,11.385,0,19.308,0h11.984l-6.615-6.622c5.12,0,13.512,0,19.452,0
		c1.287,0,2.505,0.364,3.765,1.06c1.879,1.026,3.69,2.836,4.928,4.412c0.62,0.785,1.102,1.494,1.418,1.989
		c0.159,0.248,0.276,0.44,0.344,0.565l0.069,0.117l1.404,2.616H78.65l7.874,17.374C78.45,121.54,64.676,121.54,46.655,121.54z
		 M169.393,146.361v23.582h-38.106c-7.262,0-13.85-4.247-16.844-10.855L85.801,95.892c0.11,0,0.213,0,0.323,0
		c13.808,0,41.92,0,56.189,0c1.04,7.262,3.552,14.91,7.434,22.557c4.873,9.589,11.874,19.177,20.808,27.912H169.393z
		 M323.023,324.489l-134.047-47.874V255.36l23.996,8.157v-90.008c9.045,3.497,18.84,6.12,29.33,7.572l0.915-6.553
		c-29.034-4.034-52.375-17.332-68.662-33.508c-8.142-8.088-14.503-16.892-18.908-25.565c-3.428-6.752-5.644-13.408-6.649-19.562
		c21.435,0,77.63,0,77.63,0h4.963v-4.97c0,0,0-19.858,0-38.472c0-3.978,0.806-7.406,2.162-10.387
		c2.037-4.454,5.362-7.943,9.341-10.352c3.971-2.409,8.577-3.676,12.906-3.676c5.776-0.014,12.026,2.271,16.644,6.436
		c2.32,2.086,4.24,4.618,5.604,7.592c1.356,2.981,2.161,6.408,2.161,10.387c0,18.613,0,38.472,0,38.472v4.97h4.963
		c0.007,0,1.384,0,3.724,0v170.467l33.928,9.692V324.489z M179.326,245.082v-90.943c1.576,1.267,3.186,2.519,4.853,3.731
		c6.676,4.853,14.09,9.217,22.171,12.872v83.53L179.326,245.082z M397.556,159.089c-2.994,6.608-9.581,10.855-16.843,10.855h-57.69
		v99.224l-27.306-7.806V95.892c18.867,0,58.136,0,71.16,0c13.134,0,44.686,0,59.321,0L397.556,159.089z M497.744,105.529
		c-2.96,3.779-7.352,7.84-12.824,10.889c-5.487,3.05-12.033,5.122-19.577,5.122c-14.896,0-26.893,0-35.167,0
		c-1.742,0-3.297,0-4.701,0l7.874-17.374h11.784l1.404-2.595c0.028-0.075,1.37-2.43,3.442-4.509c1.032-1.046,2.23-2.01,3.442-2.657
		c1.219-0.654,2.402-0.998,3.648-0.998c5.94,0,14.331,0,19.453,0l-6.608,6.622h11.977c7.923,0,14.937,0,19.308,0
		C500.49,101.571,499.342,103.505,497.744,105.529z"/>
	<rect x="319.424" y="341.794" class="st0" width="9.932" height="107.416"/>
	<rect x="289.308" y="341.794" class="st0" width="6.615" height="107.416"/>
	<rect x="252.896" y="341.794" class="st0" width="6.621" height="107.416"/>
	<rect x="216.489" y="341.794" class="st0" width="6.622" height="107.416"/>
	<rect x="182.644" y="292.943" class="st0" width="9.933" height="156.266"/>
	<path class="st0" d="M267.68,263.447c-11.688-13.134-19.232-29.35-23.789-42.277c-2.285-6.464-3.827-12.095-4.79-16.094
		c-0.489-2.003-0.826-3.593-1.046-4.674c-0.103-0.544-0.186-0.957-0.234-1.232l-0.055-0.31l-0.013-0.082l-6.533,1.088
		c0.034,0.179,2.967,17.793,12.26,37.873c4.653,10.043,10.903,20.711,19.252,30.101c8.343,9.396,18.826,17.525,31.843,22.295
		l2.278-6.216C285.055,279.589,275.466,272.203,267.68,263.447z"/>
	<polygon class="st0" points="248.827,73.273 255.449,73.273 255.449,51.205 235.59,51.205 235.59,57.827 248.827,57.827 	"/>
	<rect x="263.448" y="51.205" class="st0" width="9.926" height="6.622"/>
	<path class="st0" d="M246.094,97.028c2.169,1.328,4.942,2.175,8.253,2.168v-4.963c-2.485-0.007-4.267-0.599-5.665-1.446
		c-2.092-1.267-3.4-3.249-4.172-4.998c-0.386-0.86-0.626-1.652-0.77-2.21c-0.076-0.275-0.117-0.496-0.144-0.633l-0.028-0.152
		l-0.006-0.028l-0.84,0.131l-4.075,0.585c0.042,0.2,0.482,3.386,2.643,6.78C242.378,93.958,243.926,95.707,246.094,97.028z"/>
	<path class="st0" d="M334.318,460.126H177.681v0.668h-4.963v33.095h166.564v-33.095h-4.963V460.126z M329.356,483.964H182.644
		v-17.216h146.712V483.964z"/>
</g>
</svg>