<?xml version="1.0" encoding="utf-8"?>

<!DOCTYPE svg PUBLIC "-//W3C//DTD SVG 1.1//EN" "http://www.w3.org/Graphics/SVG/1.1/DTD/svg11.dtd">
<!-- Uploaded to: SVG Repo, www.svgrepo.com, Generator: SVG Repo Mixer Tools -->
<svg version="1.1" id="_x32_" xmlns="http://www.w3.org/2000/svg" xmlns:xlink="http://www.w3.org/1999/xlink" 
	 width="800px" height="800px" viewBox="0 0 512 512"  xml:space="preserve">
<style type="text/css">
<![CDATA[
	.st0{fill:#000000;}
]]>
</style>
<g>
	<polygon class="st0" points="336,95.188 305.656,95.188 305.656,56.594 275.313,56.594 275.313,0 236.688,0 236.688,56.594 
		206.344,56.594 206.344,95.188 176,95.188 176,141.5 336,141.5 	"/>
	<rect x="144" y="468.25" class="st0" width="224" height="43.75"/>
	<path class="st0" d="M176,164.172c0,0,0,230.672,0,284.359h160c0-53.719,0-284.359,0-284.359
		C282.656,164.172,229.344,164.172,176,164.172z M256,283.188c-25.781,0-46.672-20.875-46.672-46.656s20.891-46.672,46.672-46.672
		s46.656,20.891,46.656,46.672S281.781,283.188,256,283.188z"/>
	<path class="st0" d="M263.766,240.938c0,4.406-3.578,8-8,8l0,0c-4.422,0-8-3.594-8-8v-35.469c0-4.438,3.578-8,8-8l0,0
		c4.422,0,8,3.563,8,8V240.938z"/>
	<path class="st0" d="M255.766,248.938c-4.422,0-8-3.594-8-8l0,0c0-4.438,3.578-8,8-8h27.469c4.422,0,8,3.563,8,8l0,0
		c0,4.406-3.578,8-8,8H255.766z"/>
</g>
</svg>