<?xml version="1.0" encoding="utf-8"?>

<!DOCTYPE svg PUBLIC "-//W3C//DTD SVG 1.1//EN" "http://www.w3.org/Graphics/SVG/1.1/DTD/svg11.dtd">
<!-- Uploaded to: SVG Repo, www.svgrepo.com, Generator: SVG Repo Mixer Tools -->
<svg height="800px" width="800px" version="1.1" id="_x32_" xmlns="http://www.w3.org/2000/svg" xmlns:xlink="http://www.w3.org/1999/xlink" 
	 viewBox="0 0 512 512"  xml:space="preserve">
<style type="text/css">
	.st0{fill:#000000;}
	.st1{fill:#000000;stroke:#231815;stroke-miterlimit:10;}
</style>
<g>
	<path class="st0" d="M479.058,187.016H373.869l-94.423-95.696c-6.193-6.274-14.639-9.808-23.45-9.808
		c-8.811,0-17.257,3.534-23.442,9.808l-94.424,95.696H32.941C14.752,187.016,0,201.769,0,219.958v210.53h229.328V323.687
		c0-14.728,11.94-26.668,26.668-26.668s26.668,11.94,26.668,26.668v106.802H512v-210.53
		C512,201.769,497.255,187.016,479.058,187.016z M80.474,356.75H52.736v-51.196h27.738V356.75z M166.994,356.75h-27.738v-51.196
		h27.738V356.75z M255.996,228.599c-21.797,0-39.467-17.679-39.467-39.467c0-21.805,17.67-39.467,39.467-39.467
		c21.796,0,39.467,17.662,39.467,39.467C295.463,210.92,277.792,228.599,255.996,228.599z M372.734,356.75h-27.738v-51.196h27.738
		V356.75z M459.256,356.75h-27.731v-51.196h27.731V356.75z"/>
	<polyline class="st1" points="255.996,164.725 255.996,189.132 276.349,189.132 	"/>
</g>
</svg>