<?xml version="1.0" encoding="utf-8"?>

<!DOCTYPE svg PUBLIC "-//W3C//DTD SVG 1.1//EN" "http://www.w3.org/Graphics/SVG/1.1/DTD/svg11.dtd">
<!-- Uploaded to: SVG Repo, www.svgrepo.com, Generator: SVG Repo Mixer Tools -->
<svg height="800px" width="800px" version="1.1" id="_x32_" xmlns="http://www.w3.org/2000/svg" xmlns:xlink="http://www.w3.org/1999/xlink" 
	 viewBox="0 0 512 512"  xml:space="preserve">
<style type="text/css">
	.st0{fill:#000000;}
</style>
<g>
	<path class="st0" d="M429.071,388.802v-53.224h-36.853c4.502-2.778,8.498-6.023,11.737-9.796c3.422-3.964,6.048-8.466,7.548-13.364
		c1.101-3.66,1.567-7.372,1.567-10.951c-0.025-6.368-1.414-12.309-3.376-16.892c-0.994-2.342-2.119-4.3-3.488-5.962
		c-0.705-0.812-1.476-1.562-2.45-2.201c-0.507-0.314-1.059-0.618-1.698-0.841c-0.64-0.223-1.37-0.355-2.14-0.355
		c-1.034-0.021-2.16,0.274-3.067,0.802c-0.928,0.526-1.632,1.236-2.14,1.936l-1.409,1.896l0.745,2.251
		c0.092,0.264,0.203,0.791,0.203,1.46c0,1.014-0.223,2.383-0.751,3.752c-0.776,2.069-2.165,4.148-4.172,5.648
		c-2.008,1.5-4.588,2.555-8.315,2.555c-3.402,0-7.767-0.923-13.217-3.549c-2.581-1.258-4.548-2.698-6.181-4.351
		c-1.409-1.46-2.555-3.082-3.574-4.988c-1.785-3.306-3.088-7.412-4.3-12.27c-1.855-7.28-3.533-16.102-6.996-25.937
		c-3.482-9.846-8.801-20.634-17.891-31.819l-0.086-0.111l-0.072-0.061c-30.886-34.445-65.725-74.578-92.819-106.083
		c-13.547-15.756-25.172-29.344-33.4-39.008c-4.127-4.826-7.392-8.69-9.643-11.316c-1.278-1.521-2.206-2.627-2.779-3.286
		l-4.766-17.684l-0.466-0.679c-0.021,0-5.648-7.94-11.783-16.062c-3.087-4.036-6.286-8.122-9.064-11.336
		c-1.389-1.592-2.672-2.981-3.839-4.106c-0.598-0.547-1.17-1.055-1.81-1.5c-0.329-0.244-0.664-0.466-1.08-0.69
		c-0.42-0.193-0.927-0.416-1.657-0.568C155.261,0.051,154.906,0,154.577,0c-0.796,0-1.5,0.172-2.073,0.396
		c-1.106,0.467-1.79,1.065-2.362,1.592c-1.035,1.055-1.72,2.14-2.404,3.357c-1.212,2.16-2.316,4.715-3.396,7.503
		c-1.612,4.117-3.113,8.64-4.193,12.168c-0.264,0.802-0.487,1.501-0.685,2.17c-3.685-0.487-9.485-1.105-15.666-1.105
		c-5.115,0.02-10.479,0.394-15.331,1.764c-1.81,0.528-3.534,1.308-5.232,2.211c-2.956,1.632-5.846,3.741-8.579,5.992
		c-4.127,3.357-7.879,7.088-10.657,9.978c-1.216,1.277-2.23,2.383-3.001,3.264l-26.125-2.119c-1.015-0.172-2.028-0.264-3.002-0.264
		c-2.205,0-4.279,0.436-6.089,1.37c-1.364,0.69-2.56,1.612-3.508,2.666c-1.435,1.613-2.383,3.468-2.976,5.364
		c-0.573,1.896-0.842,3.832-0.842,5.8c0,2.626,0.466,5.273,1.303,7.706c0.816,2.352,2.054,4.898,3.488,7.544
		c2.119,3.976,4.655,8.112,6.683,11.296c2.033,3.154,3.533,5.334,3.554,5.385c0.02,0.04,3.488,5.141,7.656,10.434
		c2.098,2.666,4.344,5.364,6.53,7.564c1.105,1.126,2.185,2.119,3.31,2.981c0.573,0.426,1.146,0.811,1.81,1.176
		c0.659,0.345,1.37,0.658,2.318,0.832c0.837,0.131,2.601,0.658,4.542,1.298c2.956,0.973,6.465,2.271,9.222,3.335
		c1.368,0.527,2.56,1.014,3.422,1.329c0.264,0.122,0.507,0.213,0.704,0.304c2.318,1.875,12.178,9.977,21.71,18.88
		c5.141,4.766,10.17,9.846,13.79,14.176c1.81,2.129,3.264,4.116,4.172,5.688c0.462,0.77,0.772,1.45,0.948,1.896
		c0.086,0.244,0.132,0.446,0.152,0.528l0.025,0.132c0.04,16.549,2.423,30.409,6.064,42.141l0.441-0.132
		c0.578,8.071,0.883,19.611,0.883,31.9c0,14.064-0.396,29.152-1.212,41.42c-0.396,6.115-0.928,11.54-1.521,15.728
		c-0.309,2.078-0.619,3.843-0.948,5.192c-0.158,0.659-0.336,1.206-0.468,1.622c-0.131,0.426-0.262,0.69-0.308,0.751
		c-2.469,4.522-6.155,8.062-9.75,11.63c-1.79,1.764-3.554,3.579-5.054,5.668c-0.751,1.044-1.435,2.19-1.982,3.428
		c-0.553,1.257-0.948,2.615-1.126,4.076c-0.066,0.689-0.112,1.389-0.112,2.078c0,1.875,0.31,3.722,0.928,5.486H99.771v53.224H55.272
		V512h418.272V388.802H429.071z M182.948,303.596c-2.823,0-5.445,0.568-7.742,1.623c1.588-8.467,3.443-18.151,5.273-27.662
		c7.636,9.268,16.767,16.305,25.263,21.445c2.87,1.744,5.648,3.266,8.295,4.594C200.181,303.596,186.35,303.596,182.948,303.596z"/>
	<path class="st0" d="M155.57,0.091c0,0,0.021,0,0.021,0.021h0.025L155.57,0.091z"/>
</g>
</svg>