<?xml version="1.0" encoding="utf-8"?>

<!DOCTYPE svg PUBLIC "-//W3C//DTD SVG 1.1//EN" "http://www.w3.org/Graphics/SVG/1.1/DTD/svg11.dtd">
<!-- Uploaded to: SVG Repo, www.svgrepo.com, Generator: SVG Repo Mixer Tools -->
<svg version="1.1" id="_x32_" xmlns="http://www.w3.org/2000/svg" xmlns:xlink="http://www.w3.org/1999/xlink" 
	 width="800px" height="800px" viewBox="0 0 512 512"  xml:space="preserve">
<style type="text/css">
<![CDATA[
	.st0{fill:#000000;}
]]>
</style>
<g>
	<path class="st0" d="M402.188,226.688v-12.359c-64.563-5.484-68.344-35.703-68.344-35.703h-12.859v-33.359h77.422v-12.359
		c-64.563-5.5-127.531-53.781-127.531-53.781h-5.844V9.047C265.031,4.063,261,0,256,0s-9.031,4.063-9.031,9.047v70.078h-5.844
		c0,0-62.969,48.281-127.531,53.781v12.359h77.422v33.359h-12.859c0,0-3.781,30.219-68.344,35.703v12.359h81.203v33.344h-12.859
		c0,0-3.781,30.219-68.344,35.719v12.359h81.203v33.344h-12.859c0,0-3.781,30.234-68.344,35.703v12.375h81.203v33.344h-12.859
		c0,0-3.781,30.219-68.344,35.719v12.344h81.203V512h129.969v-41.063h81.203v-12.344c-64.563-5.5-68.344-35.719-68.344-35.719
		h-12.859v-33.344h81.203v-12.375c-64.563-5.469-68.344-35.703-68.344-35.703h-12.859v-33.344h81.203V295.75
		c-64.563-5.5-68.344-35.719-68.344-35.719h-12.859v-33.344H402.188z M236.672,487.391h-16v-16h16V487.391z M236.672,407.891h-16
		v-16h16V407.891z M236.672,328.391h-16v-16h16V328.391z M236.672,248.891h-16v-16h16V248.891z M236.672,169.391h-16v-16h16V169.391
		z M291.328,487.391h-16v-16h16V487.391z M291.328,407.891h-16v-16h16V407.891z M291.328,328.391h-16v-16h16V328.391z
		 M291.328,248.891h-16v-16h16V248.891z M291.328,169.391h-16v-16h16V169.391z"/>
</g>
</svg>