<?xml version="1.0" encoding="utf-8"?>

<!DOCTYPE svg PUBLIC "-//W3C//DTD SVG 1.1//EN" "http://www.w3.org/Graphics/SVG/1.1/DTD/svg11.dtd">
<!-- Uploaded to: SVG Repo, www.svgrepo.com, Generator: SVG Repo Mixer Tools -->
<svg version="1.1" id="_x32_" xmlns="http://www.w3.org/2000/svg" xmlns:xlink="http://www.w3.org/1999/xlink" 
	 viewBox="0 0 512 512"  xml:space="preserve">
<style type="text/css">
	.st0{fill:#000000;}
</style>
<g>
	<path class="st0" d="M0,0v512h512V0H0z M461.824,462.096H302.619v-58.074h-93.24v58.074H50.174V49.903h411.65V462.096z"/>
	<rect x="79.207" y="94.69" class="st0" width="39.449" height="39.235"/>
	<rect x="158.106" y="94.69" class="st0" width="39.449" height="39.235"/>
	<rect x="237.004" y="94.69" class="st0" width="39.449" height="39.235"/>
	<rect x="315.902" y="94.69" class="st0" width="39.449" height="39.235"/>
	<rect x="394.801" y="94.69" class="st0" width="39.449" height="39.235"/>
	<rect x="79.207" y="173.162" class="st0" width="39.449" height="39.235"/>
	<rect x="158.106" y="173.162" class="st0" width="39.449" height="39.235"/>
	<rect x="237.004" y="173.162" class="st0" width="39.449" height="39.235"/>
	<rect x="315.902" y="173.162" class="st0" width="39.449" height="39.235"/>
	<rect x="394.801" y="173.162" class="st0" width="39.449" height="39.235"/>
	<rect x="79.207" y="251.633" class="st0" width="39.449" height="39.235"/>
	<rect x="158.106" y="251.633" class="st0" width="39.449" height="39.235"/>
	<rect x="237.004" y="251.633" class="st0" width="39.449" height="39.235"/>
	<rect x="315.902" y="251.633" class="st0" width="39.449" height="39.235"/>
	<rect x="394.801" y="251.633" class="st0" width="39.449" height="39.235"/>
	<rect x="79.207" y="330.104" class="st0" width="39.449" height="39.235"/>
	<rect x="158.106" y="330.104" class="st0" width="39.449" height="39.235"/>
	<rect x="237.004" y="330.104" class="st0" width="39.449" height="39.235"/>
	<rect x="315.902" y="330.104" class="st0" width="39.449" height="39.235"/>
	<rect x="394.801" y="330.104" class="st0" width="39.449" height="39.235"/>
</g>
</svg>