<?xml version="1.0" encoding="utf-8"?>

<!DOCTYPE svg PUBLIC "-//W3C//DTD SVG 1.1//EN" "http://www.w3.org/Graphics/SVG/1.1/DTD/svg11.dtd">
<!-- Uploaded to: SVG Repo, www.svgrepo.com, Generator: SVG Repo Mixer Tools -->
<svg version="1.1" id="_x32_" xmlns="http://www.w3.org/2000/svg" xmlns:xlink="http://www.w3.org/1999/xlink" 
	 viewBox="0 0 512 512"  xml:space="preserve">
<style type="text/css">
	.st0{fill:#000000;}
</style>
<g>
	<path class="st0" d="M255.335,9.484c2.615,0,4.735-2.135,4.735-4.75c0-2.614-2.12-4.734-4.735-4.734c-2.615,0-4.75,2.12-4.75,4.734
		C250.585,7.349,252.72,9.484,255.335,9.484z"/>
	<path class="st0" d="M319.512,162.949h-4.332v-27.803l-3.388-5.066v-6.251h6.637v-4.409h-6.637v-9.236h-4.41v9.236h-6.638v4.409
		h6.638v6.227l-3.388,5.09v27.803h-7.798v-14.884h-5.802v-21.692h2.49v-14.946h-10.784V84.956h2.847V70.017h-7.844V44.83h-16.848
		l0.618-10.544c1.486,0,0.914,0,1.486,0c1.191,0,2.15-0.959,2.15-2.151V15.796c0-2.359-2.568-4.92-4.935-4.92h-4.256h-1.964
		c-2.584,0-5.075,0.99-6.901,2.816l-7.349,3.164l-4.317-12.912c0,0-15.874,6.855-10.258,23.695
		c4.735,14.219,22.109,11.859,22.109,11.859l-5.693-17.112l8.448-2.491l0.356,14.389l0.619,10.544h-15.456v25.188h-7.845v14.938
		h2.847v26.472h-10.784v14.946h2.476v21.692h-5.787v14.884h-7.798v-27.803l-3.388-5.066v-6.251h6.637v-4.409h-6.637v-9.236h-4.409
		v9.236h-6.638v4.409h6.638v6.227l-3.389,5.09v27.803h-4.332v12.129h127.008V162.949z M251.791,55.296
		c0-2.328,1.888-4.208,4.209-4.208c2.336,0,4.208,1.88,4.208,4.208v14.722h-8.417V55.296z M260.873,111.428V95.523
		c0-2.754,2.228-4.998,4.982-4.998c2.754,0,4.982,2.243,4.982,4.998v15.905H260.873z M241.178,95.523
		c0-2.754,2.228-4.998,4.982-4.998s4.982,2.243,4.982,4.998v15.905h-9.964V95.523z M246.934,137.544
		c0-5.014,4.068-9.067,9.066-9.067c5.013,0,9.082,4.054,9.082,9.067v25.404h-18.148V137.544z"/>
	<rect x="185.557" y="251.811" class="st0" width="140.886" height="12.787"/>
	<path class="st0" d="M211.116,215.538h16.106v27.911h16.137V205.86c0-6.986,5.662-12.648,12.64-12.648
		c6.993,0,12.656,5.662,12.656,12.648v37.589h16.122v-27.911h16.122v27.911h18.613v-60.796H192.504v60.796h18.612V215.538z
		 M293.024,194.813c3.776,0,6.839,3.055,6.839,6.831c0,3.774-3.063,6.838-6.839,6.838c-3.775,0-6.823-3.063-6.823-6.838
		C286.201,197.868,289.248,194.813,293.024,194.813z M219.115,194.813c3.776,0,6.824,3.055,6.824,6.831
		c0,3.774-3.048,6.838-6.824,6.838c-3.774,0-6.838-3.063-6.838-6.838C212.277,197.868,215.34,194.813,219.115,194.813z"/>
	<path class="st0" d="M185.557,512h51.846v-28.422c0-10.266,8.324-18.606,18.597-18.606c10.288,0,18.612,8.34,18.612,18.606V512
		h51.831V270.679H185.557V512z M282.023,308.678l7.705-7.69l-7.705-7.689v-3.977H286l7.705,7.69l7.69-7.69h3.976v3.977l-7.69,7.689
		l7.69,7.69v3.976h-3.976l-7.69-7.689L286,312.653h-3.976V308.678z M282.023,342.615l7.705-7.698l-7.705-7.697v-3.977H286
		l7.705,7.698l7.69-7.698h3.976v3.977l-7.69,7.697l7.69,7.698v3.976h-3.976l-7.69-7.697L286,346.591h-3.976V342.615z
		 M282.023,376.552l7.705-7.696l-7.705-7.697v-3.969H286l7.705,7.697l7.69-7.697h3.976v3.969l-7.69,7.697l7.69,7.696v3.977h-3.976
		l-7.69-7.697L286,380.528h-3.976V376.552z M282.023,410.497l7.705-7.705l-7.705-7.69v-3.992H286l7.705,7.705l7.69-7.689h3.976
		v3.976l-7.69,7.69l7.69,7.705v3.969h-3.976l-7.69-7.698L286,414.466h-3.976V410.497z M266.428,424.793h17.854v22.325h-17.854
		V424.793z M246.871,303.54c0-5.044,4.085-9.136,9.129-9.136c5.044,0,9.144,4.092,9.144,9.136v32.886h-18.273V303.54z
		 M246.871,371.416c0-5.06,4.085-9.144,9.129-9.144c5.044,0,9.144,4.084,9.144,9.144v32.892h-18.273V371.416z M245.587,447.118
		h-17.854v-22.325h17.854V447.118z M206.645,308.678l7.69-7.69l-7.69-7.689v-3.977h3.961l7.705,7.69l7.69-7.69h3.976v3.977
		l-7.689,7.689l7.689,7.69v3.976H226l-7.69-7.689l-7.689,7.689h-3.977V308.678z M206.645,342.615l7.69-7.698l-7.69-7.697v-3.977
		h3.961l7.705,7.698l7.69-7.698h3.976v3.977l-7.689,7.697l7.689,7.698v3.976H226l-7.69-7.697l-7.689,7.697h-3.977V342.615z
		 M206.645,376.552l7.69-7.696l-7.69-7.697v-3.969h3.961l7.705,7.697l7.69-7.697h3.976v3.969l-7.689,7.697l7.689,7.696v3.977H226
		l-7.69-7.697l-7.689,7.697h-3.977V376.552z M206.645,410.497l7.69-7.705l-7.69-7.69v-3.992h3.961l7.705,7.705l7.69-7.689h3.976
		v3.976l-7.689,7.69l7.689,7.705v3.969H226l-7.69-7.698l-7.689,7.698h-3.977V410.497z"/>
</g>
</svg>