<?xml version="1.0" encoding="utf-8"?>

<!DOCTYPE svg PUBLIC "-//W3C//DTD SVG 1.1//EN" "http://www.w3.org/Graphics/SVG/1.1/DTD/svg11.dtd">
<!-- Uploaded to: SVG Repo, www.svgrepo.com, Generator: SVG Repo Mixer Tools -->
<svg version="1.1" id="_x32_" xmlns="http://www.w3.org/2000/svg" xmlns:xlink="http://www.w3.org/1999/xlink" 
	 width="800px" height="800px" viewBox="0 0 512 512"  xml:space="preserve">
<style type="text/css">
<![CDATA[
	.st0{fill:#000000;}
]]>
</style>
<g>
	<polygon class="st0" points="247.5,307.797 91.031,209.688 55.125,243.969 247.5,364.563 	"/>
	<polygon class="st0" points="152.25,151.203 247.5,210.922 247.5,154.141 188.156,116.922 	"/>
	<polygon class="st0" points="247.5,287.75 247.5,230.969 139.594,163.313 103.688,197.594 	"/>
	<polygon class="st0" points="42.469,256.078 0,296.641 247.5,451.781 247.5,384.609 	"/>
	<polygon class="st0" points="247.5,134.094 247.5,60.219 200.813,104.828 	"/>
	<polygon class="st0" points="264.5,364.563 456.875,243.969 420.969,209.688 264.5,307.797 	"/>
	<polygon class="st0" points="264.5,287.75 408.313,197.594 372.406,163.313 264.5,230.969 	"/>
	<polygon class="st0" points="264.5,210.922 359.75,151.203 323.844,116.922 264.5,154.141 	"/>
	<polygon class="st0" points="469.531,256.078 264.5,384.609 264.5,451.781 512,296.641 	"/>
	<polygon class="st0" points="311.188,104.828 264.5,60.219 264.5,134.094 	"/>
</g>
</svg>