<?xml version="1.0" encoding="utf-8"?>

<!DOCTYPE svg PUBLIC "-//W3C//DTD SVG 1.1//EN" "http://www.w3.org/Graphics/SVG/1.1/DTD/svg11.dtd">
<!-- Uploaded to: SVG Repo, www.svgrepo.com, Generator: SVG Repo Mixer Tools -->
<svg version="1.1" id="_x32_" xmlns="http://www.w3.org/2000/svg" xmlns:xlink="http://www.w3.org/1999/xlink" 
	 viewBox="0 0 512 512"  xml:space="preserve">
<style type="text/css">
	.st0{fill:#000000;}
</style>
<g>
	<path class="st0" d="M508.96,271.01v-8.11h-65.853l-81.174-97.174l-39.475,47.249l-80.148-95.946l-77.071,92.243L143.98,183.82
		l-66.068,79.08H0v8.11h71.141L0,356.178h287.93l-20.318-24.336h154.142l-16.089-19.251h78.95l-34.725-41.581H508.96z
		 M100.21,344.002l3.804-12.16l4.015-12.831l36.257-115.818l13.012,15.604l17.246,20.618l26.551,31.782l25.059,30.02l15.454,18.458
		l10.16,12.168l10.158,12.16H100.21z M257.458,319.674l-26.976-32.268l-25.06-30.012l37.709-120.451l71.412,85.5l10.16,12.168
		l15.661,18.757l14.755,17.674l24.546,29.389l10.147,12.16l5.935,7.083H257.458z M458.582,300.431H395.51l-36.076-43.166
		l-14.748-17.674l17.141-54.768l0.104-0.129L458.582,300.431z"/>
	<path class="st0" d="M79.1,400.525c-4.62,0-8.368,3.744-8.368,8.368c0,4.616,3.747,8.36,8.368,8.36c4.617,0,8.36-3.743,8.36-8.36
		C87.461,404.268,83.718,400.525,79.1,400.525z"/>
	<path class="st0" d="M164.006,400.525c-4.62,0-8.363,3.744-8.363,8.368c0,4.616,3.743,8.36,8.363,8.36
		c4.617,0,8.364-3.743,8.364-8.36C172.37,404.268,168.623,400.525,164.006,400.525z"/>
	<path class="st0" d="M248.908,400.525c-4.616,0-8.364,3.744-8.364,8.368c0,4.616,3.748,8.36,8.364,8.36
		c4.621,0,8.368-3.743,8.368-8.36C257.276,404.268,253.528,400.525,248.908,400.525z"/>
	<path class="st0" d="M333.814,400.525c-4.613,0-8.356,3.744-8.356,8.368c0,4.616,3.743,8.36,8.356,8.36
		c4.624,0,8.376-3.743,8.376-8.36C342.19,404.268,338.438,400.525,333.814,400.525z"/>
	<path class="st0" d="M418.722,400.525c-4.616,0-8.359,3.744-8.359,8.368c0,4.616,3.743,8.36,8.359,8.36
		c4.625,0,8.369-3.743,8.369-8.36C427.091,404.268,423.347,400.525,418.722,400.525z"/>
	<path class="st0" d="M503.632,400.525c-4.616,0-8.36,3.744-8.36,8.368c0,4.616,3.744,8.36,8.36,8.36
		c4.625,0,8.368-3.743,8.368-8.36C512,404.268,508.257,400.525,503.632,400.525z"/>
	<path class="st0" d="M41.586,449.189c-4.62,0-8.368,3.743-8.368,8.359c0,4.625,3.748,8.368,8.368,8.368
		c4.612,0,8.36-3.744,8.36-8.368C49.946,452.932,46.198,449.189,41.586,449.189z"/>
	<path class="st0" d="M126.488,449.189c-4.616,0-8.36,3.743-8.36,8.359c0,4.625,3.744,8.368,8.36,8.368
		c4.621,0,8.364-3.744,8.364-8.368C134.851,452.932,131.108,449.189,126.488,449.189z"/>
	<path class="st0" d="M211.397,449.189c-4.616,0-8.368,3.743-8.368,8.359c0,4.625,3.752,8.368,8.368,8.368
		c4.616,0,8.368-3.744,8.368-8.368C219.765,452.932,216.013,449.189,211.397,449.189z"/>
	<path class="st0" d="M296.306,449.189c-4.62,0-8.364,3.743-8.364,8.359c0,4.625,3.744,8.368,8.364,8.368
		c4.616,0,8.36-3.744,8.36-8.368C304.667,452.932,300.923,449.189,296.306,449.189z"/>
	<path class="st0" d="M381.216,449.189c-4.624,0-8.368,3.743-8.368,8.359c0,4.625,3.744,8.368,8.368,8.368
		c4.609,0,8.368-3.744,8.368-8.368C389.584,452.932,385.824,449.189,381.216,449.189z"/>
	<path class="st0" d="M466.11,449.189c-4.601,0-8.36,3.743-8.36,8.359c0,4.625,3.759,8.368,8.36,8.368
		c4.632,0,8.368-3.744,8.368-8.368C474.478,452.932,470.742,449.189,466.11,449.189z"/>
	<path class="st0" d="M296.306,353.89c-4.62,0-8.364,3.751-8.364,8.369c0,4.616,3.744,8.359,8.364,8.359
		c4.616,0,8.36-3.743,8.36-8.359C304.667,357.641,300.923,353.89,296.306,353.89z"/>
	<path class="st0" d="M381.216,353.89c-4.624,0-8.368,3.751-8.368,8.369c0,4.616,3.744,8.359,8.368,8.359
		c4.609,0,8.368-3.743,8.368-8.359C389.584,357.641,385.824,353.89,381.216,353.89z"/>
	<path class="st0" d="M466.11,353.89c-4.601,0-8.36,3.751-8.36,8.369c0,4.616,3.759,8.359,8.36,8.359
		c4.632,0,8.368-3.743,8.368-8.359C474.478,357.641,470.742,353.89,466.11,353.89z"/>
	<path class="st0" d="M415.384,123.975c14.214,0,25.726-11.505,25.726-25.727c0-14.214-11.513-25.719-25.726-25.726
		c-14.214,0.008-25.727,11.513-25.727,25.726C389.657,112.47,401.17,123.975,415.384,123.975z M403.636,86.517
		c3.024-3.024,7.146-4.868,11.747-4.876c4.592,0.008,8.715,1.852,11.74,4.876c3.008,3.015,4.868,7.139,4.868,11.731
		c0,4.608-1.86,8.732-4.868,11.747c-3.024,3.008-7.147,4.859-11.74,4.859c-4.601,0-8.724-1.851-11.747-4.859
		c-3.008-3.015-4.86-7.139-4.86-11.747C398.776,93.655,400.628,89.532,403.636,86.517z"/>
	<rect x="410.823" y="46.083" class="st0" width="9.12" height="17.86"/>
	<rect x="410.823" y="132.569" class="st0" width="9.12" height="17.844"/>
	<polygon class="st0" points="387.942,77.138 372.484,68.219 367.924,76.119 383.383,85.045 	"/>
	<polygon class="st0" points="462.843,120.376 447.384,111.459 442.825,119.358 458.267,128.284 	"/>
	<polygon class="st0" points="387.942,119.358 383.383,111.459 367.924,120.376 372.484,128.284 	"/>
	<polygon class="st0" points="462.843,76.119 458.267,68.219 442.825,77.138 447.384,85.045 	"/>
</g>
</svg>