<?xml version="1.0" encoding="utf-8"?>

<!DOCTYPE svg PUBLIC "-//W3C//DTD SVG 1.1//EN" "http://www.w3.org/Graphics/SVG/1.1/DTD/svg11.dtd">
<!-- Uploaded to: SVG Repo, www.svgrepo.com, Generator: SVG Repo Mixer Tools -->
<svg height="800px" width="800px" version="1.1" id="_x32_" xmlns="http://www.w3.org/2000/svg" xmlns:xlink="http://www.w3.org/1999/xlink" 
	 viewBox="0 0 512 512"  xml:space="preserve">
<style type="text/css">
	.st0{fill:#000000;}
</style>
<g>
	<path class="st0" d="M304.445,48.21c0-26.622-21.699-48.21-48.441-48.21c-26.76,0-48.45,21.589-48.45,48.21
		c0,45.796-37.334,82.926-83.387,82.926V512h263.664V131.137C341.779,131.137,304.445,94.006,304.445,48.21z M205.775,452.018
		h-41.85v-57.199h41.85V452.018z M205.775,343.208h-41.85V286h41.85V343.208z M205.775,234.397h-41.85V177.19h41.85V234.397z
		 M276.92,452.018h-41.84v-57.199h41.84V452.018z M276.92,343.208h-41.84V286h41.84V343.208z M276.92,234.397h-41.84V177.19h41.84
		V234.397z M276.92,128.362h-41.84V79.534h41.84V128.362z M348.075,452.018h-41.86v-57.199h41.86V452.018z M348.075,343.208h-41.86
		V286h41.86V343.208z M348.075,234.397h-41.86V177.19h41.86V234.397z"/>
</g>
</svg>