<?xml version="1.0" encoding="utf-8"?>

<!DOCTYPE svg PUBLIC "-//W3C//DTD SVG 1.1//EN" "http://www.w3.org/Graphics/SVG/1.1/DTD/svg11.dtd">
<!-- Uploaded to: SVG Repo, www.svgrepo.com, Generator: SVG Repo Mixer Tools -->
<svg version="1.1" id="_x32_" xmlns="http://www.w3.org/2000/svg" xmlns:xlink="http://www.w3.org/1999/xlink" 
	 viewBox="0 0 512 512"  xml:space="preserve">
<style type="text/css">
	.st0{fill:#000000;}
</style>
<g>
	<rect x="294.015" y="188.12" class="st0" width="34.36" height="46.941"/>
	<rect x="294.015" y="287.088" class="st0" width="34.36" height="46.955"/>
	<rect x="294.015" y="386.062" class="st0" width="34.36" height="46.956"/>
	<rect x="358.737" y="188.12" class="st0" width="34.352" height="46.941"/>
	<rect x="358.737" y="121.769" class="st0" width="34.352" height="40.071"/>
	<rect x="358.737" y="287.088" class="st0" width="34.352" height="46.955"/>
	<rect x="358.737" y="386.062" class="st0" width="34.352" height="46.956"/>
	<rect x="423.452" y="188.12" class="st0" width="34.352" height="46.941"/>
	<rect x="423.452" y="287.088" class="st0" width="34.352" height="46.955"/>
	<rect x="423.452" y="386.062" class="st0" width="34.352" height="46.956"/>
	<rect x="60.504" y="197.764" class="st0" width="34.36" height="46.948"/>
	<rect x="60.504" y="287.088" class="st0" width="34.36" height="46.955"/>
	<rect x="60.504" y="376.411" class="st0" width="34.36" height="46.956"/>
	<rect x="118.91" y="197.764" class="st0" width="34.36" height="46.948"/>
	<rect x="118.91" y="287.088" class="st0" width="34.36" height="46.955"/>
	<rect x="118.91" y="376.411" class="st0" width="34.36" height="46.956"/>
	<rect x="177.317" y="197.764" class="st0" width="34.352" height="46.948"/>
	<rect x="177.317" y="287.088" class="st0" width="34.352" height="46.955"/>
	<rect x="177.317" y="376.411" class="st0" width="34.352" height="46.956"/>
	<rect x="123.924" y="112.374" class="st0" width="24.331" height="28.399"/>
	<path class="st0" d="M418.481,48.627v0.006c0.006,0,0.006,0,0.006,0L418.481,48.627z"/>
	<polygon class="st0" points="332.521,49.459 333.346,48.634 333.339,48.634 	"/>
	<path class="st0" d="M495.827,150.361c-16.558-0.014-31.38-6.622-42.226-17.382c-5.412-5.391-9.772-11.778-12.774-18.848
		c-3.008-7.07-4.665-14.822-4.672-23.037c0.007-16.55-6.785-31.657-17.674-42.46c-10.783-10.74-25.74-17.424-42.141-17.546h-0.057
		c-0.007,0-0.028,0-0.028,0c-0.106,0-0.327,0-0.668,0c-16.436,0.085-31.444,6.785-42.24,17.546
		c-10.896,10.804-17.674,25.911-17.674,42.46c-0.006,8.215-1.664,15.967-4.673,23.037c-3.001,7.07-7.368,13.464-12.773,18.848
		c-9.438,9.36-21.906,15.554-35.889,17.02l-85.326-85.326V5.711H95.162v58.961L0,159.835v346.454h250.289h11.422H512V150.361
		H495.827z M250.289,484.397H21.885V168.91l95.17-95.17V27.602h38.072V73.74l1.671,1.671l93.491,93.498V484.397z M490.108,484.397
		H261.711V172.04c20.227-1.394,38.463-10.121,51.948-23.542c14.751-14.666,23.904-35,23.897-57.404
		c0.007-10.533,4.274-20.021,11.223-26.941c6.956-6.906,16.508-11.174,27.126-11.174c10.626,0,20.178,4.268,27.133,11.174
		c6.956,6.92,11.223,16.408,11.223,26.941c0,22.404,9.147,42.738,23.905,57.404c13.478,13.42,31.728,22.148,51.941,23.542V484.397z"
		/>
</g>
</svg>