<?xml version="1.0" encoding="utf-8"?>

<!DOCTYPE svg PUBLIC "-//W3C//DTD SVG 1.1//EN" "http://www.w3.org/Graphics/SVG/1.1/DTD/svg11.dtd">
<!-- Uploaded to: SVG Repo, www.svgrepo.com, Generator: SVG Repo Mixer Tools -->
<svg height="800px" width="800px" version="1.1" id="_x32_" xmlns="http://www.w3.org/2000/svg" xmlns:xlink="http://www.w3.org/1999/xlink" 
	 viewBox="0 0 512 512"  xml:space="preserve">
<style type="text/css">
	.st0{fill:#000000;}
</style>
<g>
	<path class="st0" d="M462.212,0v62.386h-19.281V21.187h-33.788v41.199h-19.281V0h-33.787v62.386v31.893h33.787h19.281v61.131
		L252.728,24.102L16,222.831V512h473.455V222.831l-46.524-39.056V94.279h19.281H496V62.386V0H462.212z M277.818,375.045
		c-13.858,0-25.092-10.604-25.092-23.684c0-13.08,11.234-23.684,25.092-23.684c13.856,0,25.091,10.603,25.091,23.684
		C302.909,364.442,291.675,375.045,277.818,375.045z M426.182,452.276H317.814V260.062H182.909v192.214H79.273V249.643
		l173.455-145.614l173.454,145.614V452.276z"/>
</g>
</svg>