<?xml version="1.0" encoding="utf-8"?>

<!DOCTYPE svg PUBLIC "-//W3C//DTD SVG 1.1//EN" "http://www.w3.org/Graphics/SVG/1.1/DTD/svg11.dtd">
<!-- Uploaded to: SVG Repo, www.svgrepo.com, Generator: SVG Repo Mixer Tools -->
<svg version="1.1" id="_x32_" xmlns="http://www.w3.org/2000/svg" xmlns:xlink="http://www.w3.org/1999/xlink" 
	 viewBox="0 0 512 512"  xml:space="preserve">
<style type="text/css">
	.st0{fill:#000000;}
</style>
<g>
	<path class="st0" d="M185.496,172.138c-3.22-9.349-4.604-17.412-4.604-24.509c0.007-7.336,1.448-13.67,4.011-19.552
		c2.563-5.868,6.291-11.29,10.944-16.558c7.548-8.593,18.725-14.418,30.439-19.743c10.366-4.772,20.964-9.2,29.712-15.597
		c8.749,6.398,19.347,10.825,29.712,15.597c11.714,5.325,22.892,11.15,30.439,19.743c4.654,5.26,8.382,10.683,10.937,16.558
		c2.563,5.882,4.011,12.216,4.018,19.552c0,7.104-1.384,15.167-4.604,24.509l9.807,3.382c3.524-10.217,5.169-19.439,5.169-27.891
		c0.007-8.727-1.766-16.614-4.879-23.71c-3.107-7.104-7.506-13.423-12.668-19.27c-9.391-10.584-21.973-16.826-33.906-22.305
		c-11.029-5.014-21.557-9.469-28.83-15.047V42.422H250.81V67.29c-7.28,5.585-17.8,10.041-28.836,15.054
		c-11.933,5.479-24.516,11.72-33.907,22.312c-5.162,5.839-9.567,12.159-12.674,19.269c-3.107,7.097-4.879,14.984-4.873,23.704
		c0,8.452,1.638,17.674,5.169,27.891L185.496,172.138z"/>
	<path class="st0" d="M290.732,394.747v-76.625h-0.96c-1.228-4.314-3.552-8.014-6.327-11.114c-4.032-4.512-9.109-6.948-13.557-9.01
		c-4.498-2.019-8.473-3.763-10.514-5.571L256,289.539l-3.368,2.881c-2.048,1.815-6.023,3.559-10.521,5.578
		c-4.462,2.062-9.532,4.498-13.564,9.024l0.007-0.014c-2.775,3.093-5.098,6.799-6.327,11.114h-0.96v76.625h10.379V324.42
		l0.057-0.692c0.324-3.777,1.828-6.644,4.617-9.835h0.007c2.196-2.535,5.861-4.547,10.097-6.461
		c3.086-1.433,6.426-2.782,9.574-4.724c3.15,1.941,6.489,3.29,9.574,4.724c4.237,1.914,7.902,3.926,10.097,6.461h0.007
		c2.789,3.191,4.293,6.058,4.618,9.835l0.056,0.692v70.327H290.732z"/>
	<rect x="179.692" y="194.301" class="st0" width="152.614" height="10.38"/>
	<path class="st0" d="M0,401.278v68.3h512v-5.183v-63.118H0z M501.62,459.205H10.379v-47.548H501.62V459.205z"/>
	<rect x="179.692" y="177.08" class="st0" width="152.614" height="10.373"/>
	<path class="st0" d="M34.202,162.704c6.574,0.014,11.891,5.324,11.898,11.905h10.387c-0.007-10.514-7.308-19.262-17.095-21.62
		v-22.856H29.013v22.863c-9.787,2.351-17.08,11.1-17.088,21.614h10.379C22.319,168.028,27.629,162.719,34.202,162.704z"/>
	<path class="st0" d="M7.802,394.634l10.372,0.226v-0.007l1.349-64.014h29.359l1.356,64.014l10.366-0.212l-1.341-63.802h2.584
		v-10.379h-2.803l-1.356-64.254h1.271v-10.38h-1.483l-1.292-61.147l0.006-1.977v-5.189H12.215v7.173l-1.285,61.14H9.447v10.38h1.264
		l-1.349,64.254H6.566v10.379h2.577L7.802,394.634z M22.531,187.89h23.343l1.221,57.935H21.316L22.531,187.89z M21.098,256.205
		h26.217l1.356,64.254H19.735L21.098,256.205z"/>
	<path class="st0" d="M98.126,255.689h72.452v-10.372l-64.516-0.007c-0.685-3.036-1.13-5.868-1.13-8.304
		c0.042-7.005,2.316-12.004,6.298-17.172c3.008-3.898,7.661-6.701,12.928-9.412c3.954-2.076,8.226-4.032,12.109-6.814
		c3.891,2.782,8.162,4.738,12.117,6.814c5.274,2.711,9.914,5.514,12.936,9.412c2.153,2.76,3.792,5.543,4.864,8.558l8.311-2.938
		v169.292h10.386V220.321h142.234v174.425h10.387V225.454l8.318,2.938c1.073-3.015,2.712-5.798,4.858-8.558
		c3.022-3.898,7.668-6.701,12.936-9.412c3.961-2.076,8.226-4.032,12.116-6.814c3.891,2.782,8.155,4.738,12.109,6.814
		c5.275,2.711,9.921,5.514,12.935,9.412c3.982,5.168,6.256,10.167,6.292,17.172c0,2.436-0.438,5.267-1.123,8.304h-64.522v10.386
		l72.458-0.007l1.123-3.679c1.652-5.437,2.443-10.401,2.443-15.004c0.043-9.532-3.537-17.285-8.487-23.555
		c-4.695-5.974-10.853-9.384-16.346-12.244c-4.652-2.372-8.804-4.463-11.692-6.715v-24.946h-10.38v24.946
		c-2.895,2.252-7.04,4.342-11.693,6.715c-5.493,2.86-11.65,6.27-16.346,12.244c-1.97,2.521-3.608,5.324-4.999,8.311v-11.82H174.496
		v11.806c-1.391-2.972-3.03-5.783-5-8.296c-4.688-5.974-10.846-9.384-16.338-12.244c-4.654-2.372-8.805-4.463-11.693-6.715v-24.946
		h-10.386v24.946c-2.888,2.252-7.033,4.342-11.686,6.715c-5.494,2.86-11.658,6.27-16.346,12.244
		c-4.95,6.27-8.53,14.023-8.487,23.555c0,4.604,0.791,9.567,2.444,15.011L98.126,255.689z"/>
	<path class="st0" d="M153.186,394.747v-28.724h-1.208c-0.607-1.433-1.405-2.711-2.259-3.784c-2.069-2.62-4.562-3.919-6.404-4.893
		c-1.878-0.925-3.185-1.673-3.425-1.97l-3.615-3.502l-3.615,3.502c-0.233,0.296-1.539,1.045-3.417,1.97
		c-1.843,0.974-4.336,2.274-6.412,4.893c-0.854,1.073-1.645,2.352-2.252,3.784h-1.221v28.724h10.386v-22.934l0.015-0.233
		c0.106-1.136,0.402-1.808,1.264-2.958c0.395-0.551,1.37-1.243,2.986-2.062c0.664-0.36,1.441-0.726,2.266-1.178
		c0.826,0.452,1.603,0.818,2.274,1.178c1.61,0.819,2.584,1.511,2.987,2.062c0.861,1.151,1.15,1.822,1.264,2.958l0.006,0.162v23.005
		H153.186z"/>
	<path class="st0" d="M153.186,331.841v-28.724h-1.208c-0.614-1.426-1.405-2.704-2.266-3.784c-2.062-2.612-4.554-3.912-6.39-4.886
		c-1.885-0.932-3.192-1.667-3.432-1.977l-3.615-3.495l-3.615,3.495c-0.24,0.31-1.546,1.045-3.424,1.977
		c-1.836,0.974-4.328,2.274-6.405,4.893c-0.854,1.08-1.645,2.352-2.252,3.777h-1.221v33.914h33.829V331.841z M142.806,326.651
		h-13.07l0.007-17.737l0.015-0.24c0.106-1.13,0.402-1.815,1.256-2.944c0.402-0.558,1.377-1.25,2.994-2.062
		c0.664-0.36,1.447-0.741,2.266-1.193c0.826,0.452,1.603,0.833,2.274,1.193c1.61,0.812,2.584,1.504,2.987,2.055
		c0.861,1.136,1.15,1.821,1.264,2.951l0.006,0.162V326.651z"/>
	<polygon class="st0" points="90.563,281.278 100.3,273.49 100.3,394.747 110.68,394.747 110.68,262.693 105.49,262.693 
		102.242,258.634 80.183,276.286 80.183,394.747 90.563,394.747 	"/>
	<path class="st0" d="M477.804,162.704c6.567,0.014,11.883,5.324,11.898,11.905h10.379c-0.007-10.514-7.3-19.262-17.088-21.614
		v-22.863h-10.379v22.856c-9.794,2.358-17.088,11.107-17.095,21.62h10.38C465.913,168.028,471.23,162.719,477.804,162.704z"/>
	<path class="st0" d="M451.396,394.634l10.372,0.226l1.356-64.021h29.359l1.349,64.014l10.372-0.212v-0.007l-1.341-63.796h2.577
		v-10.379h-2.796l-1.356-64.254h1.271v-10.38h-1.49l-1.278-61.126v-1.998v-5.189h-43.975v7.173l-1.286,61.14h-1.489v10.38h1.27
		l-1.356,64.254h-2.796v10.379h2.578L451.396,394.634z M466.125,187.89h23.35l1.215,57.935h-25.779L466.125,187.89z
		 M464.692,256.205h26.218l1.356,64.254h-28.929L464.692,256.205z"/>
	<path class="st0" d="M392.649,394.747v-28.724h-1.221c-0.607-1.433-1.398-2.711-2.252-3.784c-2.076-2.62-4.569-3.919-6.412-4.893
		c-1.878-0.925-3.184-1.673-3.424-1.97l-3.608-3.502l-3.615,3.502c-0.24,0.296-1.546,1.045-3.425,1.97
		c-1.842,0.974-4.335,2.274-6.411,4.893c-0.854,1.073-1.645,2.352-2.252,3.784h-1.215v28.724H369.2v-23.011l0.006-0.156
		c0.106-1.136,0.403-1.808,1.264-2.958c0.396-0.551,1.37-1.243,2.987-2.062c0.664-0.36,1.44-0.726,2.274-1.178
		c0.826,0.452,1.603,0.818,2.267,1.178c1.617,0.819,2.591,1.511,2.986,2.062c0.862,1.151,1.158,1.822,1.264,2.958l0.014,0.24v22.927
		H392.649z"/>
	<path class="st0" d="M392.649,303.117h-1.221c-0.615-1.426-1.406-2.704-2.26-3.784c-2.069-2.612-4.562-3.912-6.397-4.886
		c-1.878-0.932-3.184-1.667-3.432-1.977l-3.608-3.495l-3.615,3.495c-0.247,0.31-1.554,1.045-3.432,1.977
		c-1.836,0.974-4.329,2.274-6.404,4.893c-0.854,1.08-1.638,2.352-2.252,3.777h-1.215v5.19v28.724h33.836V303.117z M382.263,326.651
		H369.2v-17.815l0.006-0.162c0.106-1.13,0.403-1.815,1.258-2.944c0.402-0.558,1.376-1.25,2.993-2.062
		c0.664-0.36,1.448-0.741,2.274-1.193c0.819,0.452,1.603,0.833,2.267,1.193c1.617,0.812,2.591,1.504,2.986,2.055
		c0.862,1.136,1.158,1.821,1.264,2.951l0.014,0.24V326.651z"/>
	<polygon class="st0" points="431.823,394.747 431.823,276.279 409.758,258.634 406.517,262.693 401.327,262.693 401.327,394.747 
		411.707,394.747 411.707,273.49 421.444,281.278 421.444,394.747 	"/>
</g>
</svg>