<?xml version="1.0" encoding="utf-8"?>

<!DOCTYPE svg PUBLIC "-//W3C//DTD SVG 1.1//EN" "http://www.w3.org/Graphics/SVG/1.1/DTD/svg11.dtd">
<!-- Uploaded to: SVG Repo, www.svgrepo.com, Generator: SVG Repo Mixer Tools -->
<svg version="1.1" id="_x32_" xmlns="http://www.w3.org/2000/svg" xmlns:xlink="http://www.w3.org/1999/xlink" 
	 viewBox="0 0 512 512"  xml:space="preserve">
<style type="text/css">
	.st0{fill:#000000;}
</style>
<g>
	<path class="st0" d="M62.828,319.377c17.958-23.23,46.018-38.264,77.66-38.264c31.626,0,59.686,15.035,77.644,38.264v-97.046
		H62.828V319.377z"/>
	<rect y="133.731" class="st0" width="49.921" height="18.659"/>
	<rect x="231.04" y="133.731" class="st0" width="49.92" height="18.659"/>
	<rect x="462.079" y="133.731" class="st0" width="49.921" height="18.659"/>
	<path class="st0" d="M293.867,319.377c17.958-23.23,46.002-38.264,77.644-38.264s59.702,15.035,77.661,38.264v-97.046H293.867
		V319.377z"/>
	<path class="st0" d="M462.079,162.087H280.96h-49.92H49.921H0v28.526v21.514v166.142h49.921V212.127H231.04v166.142h49.92V212.127
		h181.118v166.142H512V212.127v-21.514v-28.526h-2.162H462.079z M86.429,190.613H49.921V173.77h36.508V190.613z M136.164,190.613
		H95.078V173.77h41.086V190.613z M185.899,190.613h-41.086V173.77h41.086V190.613z M231.04,190.613h-36.491V173.77h36.491V190.613z
		 M317.451,190.613H280.96V173.77h36.491V190.613z M367.186,190.613h-41.086V173.77h41.086V190.613z M416.922,190.613h-41.086
		V173.77h41.086V190.613z M462.079,190.613h-36.508V173.77h36.508V190.613z"/>
</g>
</svg>