<?xml version="1.0" encoding="utf-8"?>

<!DOCTYPE svg PUBLIC "-//W3C//DTD SVG 1.1//EN" "http://www.w3.org/Graphics/SVG/1.1/DTD/svg11.dtd">
<!-- Uploaded to: SVG Repo, www.svgrepo.com, Generator: SVG Repo Mixer Tools -->
<svg height="800px" width="800px" version="1.1" id="_x32_" xmlns="http://www.w3.org/2000/svg" xmlns:xlink="http://www.w3.org/1999/xlink" 
	 viewBox="0 0 512 512"  xml:space="preserve">
<style type="text/css">
	.st0{fill:#000000;}
</style>
<g>
	<path class="st0" d="M498.164,247.055h-11.891l-1.378-6.895c-4.877-24.464-15.45-47.376-30.656-66.344
		c-15.234-18.995-34.765-33.592-56.55-42.199c-14.981-5.922-30.754-8.941-46.809-8.941h-0.053h-0.643
		c-16.372,0.084-32.382,3.27-47.554,9.456c-14.57,5.935-28.016,14.479-39.939,25.354c-2.299,2.094-4.523,4.286-6.69,6.54
		c-2.168-2.254-4.394-4.446-6.693-6.54c-11.922-10.875-25.369-19.42-39.938-25.354c-15.168-6.186-31.182-9.373-47.554-9.456h-0.64
		h-0.056c-16.056,0-31.826,3.02-46.81,8.941c-21.785,8.607-41.316,23.204-56.55,42.199c-15.203,18.968-25.778,41.88-30.656,66.344
		l-1.374,6.895H13.836L0,389.324h116.545l-0.964-9.928l-12.872-132.34H92.478c4.313-14.5,12.385-27.539,23.256-37.252
		c6.352-5.671,13.446-10.074,21.09-13.095c7.796-3.075,16.003-4.634,24.374-4.634h0.351c8.506,0.042,16.814,1.698,24.69,4.906
		c11.369,4.634,21.608,12.461,29.61,22.634c6.318,8.043,11.046,17.422,14.028,27.441h-18.31l-13.836,142.268h9.978h106.564
		l-13.832-142.268h-18.31c2.978-10.019,7.71-19.398,14.024-27.441c8.001-10.173,18.24-18,29.61-22.634
		c7.876-3.208,16.184-4.864,24.69-4.906h0.351c8.374,0,16.577,1.559,24.377,4.634c7.64,3.02,14.737,7.424,21.086,13.095
		c10.871,9.714,18.943,22.753,23.26,37.252h-10.235l-13.836,142.268h9.978H512L498.164,247.055z M84.736,265.161l1.58,0.382
		l2.39,24.596H27.838l2.428-24.978H84.736z M23.695,332.735l2.759-28.374h24.902v28.374H23.695z M65.582,304.361h24.509
		l2.759,28.374H65.582V304.361z M22.314,346.957h71.917l2.358,24.255H19.956L22.314,346.957z M37.597,247.055l0.922-4.62
		c2.756-13.832,7.494-27.122,13.94-39.347l8.638,4.404c-6.047,11.439-10.482,23.88-13.063,36.835l-0.543,2.727H37.597z
		 M74.411,187.169c-2.365,2.943-4.596,6.011-6.696,9.178l-8.694-4.432c2.442-3.736,5.044-7.354,7.82-10.813
		c7.031-8.767,15.044-16.497,23.778-23.01l6.127,7.542C88.532,171.715,81.004,178.945,74.411,187.169z M150.739,144.538
		c-9.769,0.96-19.346,3.27-28.586,6.924c-4.992,1.968-9.845,4.341-14.531,7.048l-6.19-7.626c5.518-3.278,11.251-6.109,17.158-8.446
		c10.392-4.106,21.156-6.652,32.149-7.647V144.538z M290.576,332.735h-27.657v-28.374h24.898L290.576,332.735z M248.693,332.735
		h-27.268l2.759-28.374h24.51V332.735z M217.681,371.212l2.359-24.255h71.92l2.359,24.255H217.681z M286.432,290.139h-60.864
		l2.428-24.978h56.007L286.432,290.139z M209.839,155.817c-2.79-1.426-5.628-2.742-8.523-3.917
		c-12.054-4.92-24.711-7.529-37.642-7.828v-9.706c14.228,0.314,28.078,3.159,41.305,8.545c3.782,1.545,7.476,3.298,11.094,5.226
		L209.839,155.817z M277.067,173.26c-7.995,7.285-15.068,15.753-21.065,25.188c-5.997-9.435-13.074-17.903-21.068-25.188
		c-4.38-4-9.006-7.584-13.818-10.806l6.137-7.563c4.943,3.354,9.699,7.083,14.215,11.196c3.59,3.27,7.01,6.77,10.249,10.464
		l4.008,4.578v0.195l0.191,0.222l0.087-0.104l0.088,0.104l0.191-0.222v-0.195l4.004-4.578c3.239-3.694,6.659-7.194,10.249-10.464
		c4.519-4.112,9.272-7.842,14.215-11.196l6.14,7.563C286.074,165.677,281.45,169.26,277.067,173.26z M348.326,144.072
		c-12.932,0.299-25.585,2.908-37.642,7.828c-2.895,1.176-5.734,2.491-8.524,3.917l-6.231-7.681
		c3.614-1.928,7.309-3.681,11.094-5.226c13.223-5.386,27.073-8.231,41.302-8.545V144.072z M421.91,304.361h24.509v28.374h-27.268
		L421.91,304.361z M425.684,265.543l1.579-0.382h54.47l2.428,24.978h-60.868L425.684,265.543z M460.644,304.361h24.902l2.759,28.374
		h-27.661V304.361z M404.382,158.509c-4.69-2.706-9.542-5.079-14.535-7.048c-9.24-3.653-18.818-5.964-28.587-6.924v-9.748
		c10.994,0.995,21.758,3.542,32.149,7.647c5.907,2.338,11.64,5.169,17.158,8.446L404.382,158.509z M421.381,158.092
		c8.735,6.513,16.748,14.242,23.778,23.01c2.776,3.458,5.382,7.076,7.82,10.813l-8.69,4.432c-2.101-3.166-4.331-6.234-6.7-9.178
		c-6.593-8.224-14.118-15.454-22.335-21.535L421.381,158.092z M463.966,244.328c-2.578-12.955-7.017-25.396-13.064-36.835
		l8.638-4.404c6.447,12.226,11.186,25.515,13.941,39.347l0.922,4.62h-9.894L463.966,244.328z M415.411,371.212l2.358-24.255h71.917
		l2.358,24.255H415.411z"/>
</g>
</svg>