<?xml version="1.0" encoding="utf-8"?>

<!DOCTYPE svg PUBLIC "-//W3C//DTD SVG 1.1//EN" "http://www.w3.org/Graphics/SVG/1.1/DTD/svg11.dtd">
<!-- Uploaded to: SVG Repo, www.svgrepo.com, Generator: SVG Repo Mixer Tools -->
<svg version="1.1" id="_x32_" xmlns="http://www.w3.org/2000/svg" xmlns:xlink="http://www.w3.org/1999/xlink" 
	 width="800px" height="800px" viewBox="0 0 512 512"  xml:space="preserve">
<style type="text/css">
<![CDATA[
	.st0{fill:#000000;}
]]>
</style>
<g>
	<path class="st0" d="M61.097,505.094c-0.844,1.406-0.875,3.172-0.047,4.594c0.797,1.438,2.313,2.313,3.953,2.313h381.984
		c1.641,0,3.156-0.875,3.969-2.313s0.797-3.188-0.047-4.594l-89.969-150.75c-66.266-101.719-32.109-179.531-4.891-241.578
		L406.815,6.531c0.688-1.406,0.578-3.063-0.25-4.406C405.722,0.813,404.269,0,402.706,0H109.3c-1.563,0-3.031,0.813-3.859,2.125
		c-0.844,1.344-0.938,3-0.266,4.406l50.563,105.781c28.906,65.703,61.672,140.172-5.016,242.563L61.097,505.094z M144.706,427.828
		h46.047l-15.563,51.953h-61.484L144.706,427.828z M262.034,415.75v-67.906h19.469l20.328,67.906H262.034z M305.44,427.828
		l15.563,51.953h-58.969v-51.953H305.44z M262.034,335.781v-52.938l15.844,52.938H262.034z M262.972,243.828h27.313
		c0.922,28.422,7.625,59.078,23.297,91.953h-23.078L262.972,243.828z M290.237,231.75h-28.172l20.703-69.188h19.297
		C295.519,183.875,290.8,206.938,290.237,231.75z M262.034,189.719v-27.156h8.141L262.034,189.719z M262.034,150.5V88.453h30.328
		L273.784,150.5H262.034z M262.034,76.375V32.219h47.156l-13.219,44.156H262.034z M249.956,76.375h-37.125l-13.219-44.156h50.344
		V76.375z M249.956,88.453V150.5h-14.938l-18.563-62.047H249.956z M249.956,162.563v37.813l-11.313-37.813H249.956z M246.737,231.75
		h-24.484c-0.578-24.672-5.344-47.656-12.094-69.188h15.875L246.737,231.75z M222.222,243.828h23.609L218.3,335.781h-19.828
		C214.362,302.688,221.237,272.156,222.222,243.828z M249.956,272.188v63.594h-19.031L249.956,272.188z M249.956,347.844v67.906
		h-42.984l20.328-67.906H249.956z M249.956,427.828v51.953H187.8l15.563-51.953H249.956z M333.612,479.781l-15.563-51.953h49.234
		l31.016,51.953H333.612z M360.081,415.75H314.44l-20.328-67.906h25.563c4.141,7.734,8.75,15.578,13.938,23.531L360.081,415.75z
		 M306.034,150.5h-19.641l18.578-62.047h27l-5.203,10.891C319.894,115.016,312.425,132.063,306.034,150.5z M337.737,76.375h-29.156
		l13.234-44.156h37.031L337.737,76.375z M153.159,32.219h33.844l13.219,44.156h-25.969L153.159,32.219z M185.019,98.875
		l-4.984-10.422h23.813l18.563,62.047h-16.297C199.706,132.281,192.159,115.141,185.019,98.875z M192.331,347.844h22.359
		l-20.328,67.906h-42.453l26.141-43.813C183.378,363.75,188.081,355.75,192.331,347.844z"/>
</g>
</svg>