<?xml version="1.0" encoding="utf-8"?>

<!DOCTYPE svg PUBLIC "-//W3C//DTD SVG 1.1//EN" "http://www.w3.org/Graphics/SVG/1.1/DTD/svg11.dtd">
<!-- Uploaded to: SVG Repo, www.svgrepo.com, Generator: SVG Repo Mixer Tools -->
<svg version="1.1" id="_x32_" xmlns="http://www.w3.org/2000/svg" xmlns:xlink="http://www.w3.org/1999/xlink" 
	 width="800px" height="800px" viewBox="0 0 512 512"  xml:space="preserve">
<style type="text/css">
<![CDATA[
	.st0{fill:#000000;}
]]>
</style>
<g>
	<rect x="228.047" y="93.906" class="st0" width="51.859" height="20.531"/>
	<path class="st0" d="M166.281,346.969c15.5,35.188,49.797,59.719,89.719,59.719s74.219-24.531,89.734-59.719H166.281z"/>
	<path class="st0" d="M315.281,363.125c-37.531-54.578-35.25-130.688-35.25-185.266h-48.063c0,54.578,2.281,130.688-35.25,185.266
		H315.281z"/>
	<rect x="239.844" y="44.469" class="st0" width="32.328" height="15.234"/>
	<rect x="239.844" y="70.531" class="st0" width="32.328" height="15.234"/>
	<rect x="247.922" class="st0" width="16.172" height="33.688"/>
	<path class="st0" d="M256,103.344L256,103.344L256,103.344L256,103.344c-44.047,0-79.75,16.281-79.75,44.656
		s35.703,44.672,79.75,44.672l0,0l0,0l0,0c44.063,0,79.766-16.297,79.766-44.672S300.063,103.344,256,103.344z M282.625,148
		c0,11.813-4.406,19.219-10.484,23.563c-2.609,0.281-5.297,0.5-8.047,0.656v-48.438c2.75,0.156,5.438,0.375,8.047,0.672
		C278.219,128.797,282.625,136.203,282.625,148z M229.375,148c0-11.797,4.406-19.203,10.484-23.547
		c2.609-0.297,5.297-0.516,8.063-0.672v48.438c-2.766-0.156-5.453-0.375-8.063-0.656C233.781,167.219,229.375,159.813,229.375,148z
		 M196.453,148c0-7.406,7.672-13.906,19.953-18.375c-2.031,5.406-3.203,11.516-3.203,18.375c0,6.875,1.172,12.984,3.203,18.375
		C204.125,161.938,196.453,155.406,196.453,148z M295.594,166.391c2.031-5.391,3.203-11.516,3.203-18.391
		c0-6.859-1.172-12.969-3.203-18.375c12.281,4.469,19.953,10.969,19.953,18.375S307.875,161.938,295.594,166.391z"/>
	<path class="st0" d="M117.219,393.438V512h277.563V393.438H117.219z M361.313,479.656H151.125V463.5h210.188V479.656z
		 M361.313,441.938H151.125v-16.172h210.188V441.938z"/>
</g>
</svg>