<?xml version="1.0" encoding="utf-8"?>

<!DOCTYPE svg PUBLIC "-//W3C//DTD SVG 1.1//EN" "http://www.w3.org/Graphics/SVG/1.1/DTD/svg11.dtd">
<!-- Uploaded to: SVG Repo, www.svgrepo.com, Generator: SVG Repo Mixer Tools -->
<svg height="800px" width="800px" version="1.1" id="_x32_" xmlns="http://www.w3.org/2000/svg" xmlns:xlink="http://www.w3.org/1999/xlink" 
	 viewBox="0 0 512 512"  xml:space="preserve">
<style type="text/css">
	.st0{fill:#000000;}
</style>
<g>
	<path class="st0" d="M383.575,125.7l13.237-86.201l12.955,1.996l1.649-10.774L211.327,0l-1.658,10.774l12.955,1.987l-13.237,86.193
		l-42.204-6.469l-1.649,10.774l17.999,2.76l-19.022,123.915l-17.999-2.768l-1.658,10.774l18,2.759l-19.022,123.915l-18-2.76
		l-1.65,10.775l18,2.768l-19.295,125.701H86.221V512h309.69v-10.902h-45.18l14.073-91.528l17.976,2.751l1.65-10.774l-17.992-2.759
		l19.005-123.898v-0.008l18.016,2.752l1.641-10.766l-17.999-2.76l0.008-0.008l19.013-123.907l18.008,2.76l1.65-10.775L383.575,125.7
		z M233.398,14.419L386.054,37.85l-13.244,86.201l-28.588-4.385l6.461-42.099c0.144-0.909,0.217-1.834,0.217-2.736
		c0-8.771-6.381-16.415-15.288-17.799c-0.926-0.145-1.835-0.217-2.752-0.217c-8.762,0-16.415,6.381-17.791,15.288l-6.461,42.099
		l-24.252-3.733l6.469-42.082c0.129-0.925,0.201-1.852,0.201-2.752c0-8.771-6.372-16.415-15.288-17.791h0.008
		c-0.909-0.145-1.834-0.209-2.752-0.209c-8.755,0-16.414,6.365-17.783,15.272l-6.469,42.099l-28.588-4.385L233.398,14.419z
		 M339.997,74.831c0,0.346-0.024,0.716-0.081,1.086l-6.462,42.091l-14.073-2.156l6.461-42.099c0.539-3.516,3.589-6.035,7.017-6.035
		c0.37,0,0.732,0.032,1.102,0.081C337.478,68.33,339.997,71.387,339.997,74.831z M280.123,65.634c0,0.362-0.032,0.716-0.081,1.094
		l-6.469,42.091l-12.336-1.899l-1.722-0.265l6.462-42.091c0.53-3.517,3.581-6.027,7.016-6.027c0.362,0,0.724,0.025,1.095,0.081
		h0.008C277.605,59.141,280.123,62.198,280.123,65.634z M214.464,465.99l-5.374,35.107h-20.494l5.849-38.189
		c0.756-5.021,5.078-8.577,9.994-8.577c0.507,0,1.014,0.024,1.529,0.105c2.502,0.362,4.643,1.673,6.163,3.452
		c1.536,1.778,2.438,4.104,2.438,6.542C214.569,464.937,214.537,465.444,214.464,465.99z M288.669,477.36l-3.629,23.737h-20.502
		l4.112-26.778c0.756-5.021,5.126-8.618,9.986-8.618c0.515,0,1.054,0.032,1.569,0.112c5.013,0.756,8.61,5.126,8.61,9.985
		C288.813,476.314,288.773,476.854,288.669,477.36z M339.691,501.098h-43.604l3.372-22.064c0.152-1.086,0.265-2.14,0.265-3.235
		c0-10.202-7.459-19.15-17.846-20.743c-1.103-0.177-2.149-0.258-3.243-0.258c-10.211,0-19.142,7.451-20.752,17.847l-4.354,28.453
		h-33.473l5.166-33.473c0.185-1.054,0.257-2.14,0.257-3.194c0-10.243-7.458-19.158-17.847-20.776
		c-1.094-0.153-2.148-0.226-3.194-0.226c-10.251,0-19.182,7.41-20.792,17.839l-6.099,39.83h-43.635l19.037-124.052l42.622,6.55
		l40.119,6.147l34.116,5.239l11.812,1.81l72.378,11.112L339.691,501.098z M208.011,374.471l8.208-53.484
		c0.756-5.013,5.094-8.594,9.985-8.594c0.515,0,1.03,0.032,1.562,0.121c5.013,0.756,8.594,5.101,8.594,9.986
		c0,0.515-0.04,1.038-0.121,1.56l-8.207,53.477L208.011,374.471z M282.239,385.865l8.216-53.476
		c0.756-5.013,5.093-8.594,9.985-8.594c0.498,0,1.022,0.032,1.553,0.121c5.005,0.748,8.593,5.093,8.593,9.985
		c0,0.507-0.04,1.038-0.12,1.561l-8.208,53.477L282.239,385.865z M355.647,397.122v0.016l-42.614-6.55l8.216-53.476
		c0.152-1.07,0.242-2.148,0.242-3.21c0-10.227-7.443-19.158-17.84-20.76c-1.069-0.177-2.148-0.249-3.21-0.249
		c-10.227,0-19.167,7.435-20.768,17.847l-8.207,53.476l-32.661-5.021l8.207-53.484c0.162-1.07,0.25-2.148,0.25-3.21
		c-0.008-10.227-7.443-19.15-17.847-20.76c-1.07-0.169-2.141-0.249-3.211-0.249c-10.218,0-19.158,7.443-20.759,17.847l-8.208,53.476
		l-42.63-6.541l19.022-123.915l42.621,6.542l40.12,6.155l34.116,5.246l15.722,2.414l68.467,10.509L355.647,397.122z M228.682,239.79
		l8.208-53.484c0.756-5.013,5.101-8.594,9.994-8.594c0.507,0,1.03,0.032,1.545,0.113c5.013,0.764,8.61,5.101,8.61,9.994
		c0,0.515-0.04,1.03-0.128,1.561l-8.199,53.477L228.682,239.79z M302.911,251.176l8.224-53.476c0.756-5.004,5.093-8.594,9.986-8.594
		c0.498,0,1.014,0.04,1.552,0.113c4.997,0.756,8.594,5.109,8.594,10.002c0,0.507-0.048,1.022-0.12,1.56l-8.216,53.476
		L302.911,251.176z M395.355,138.551l-18.997,123.898l-42.646-6.542l8.208-53.476c0.16-1.078,0.25-2.148,0.25-3.21
		c0-10.227-7.444-19.159-17.848-20.768l2.696,0.41l-2.688-0.41c-1.078-0.17-2.148-0.258-3.21-0.258
		c-10.227,0-19.167,7.451-20.768,17.847l-8.224,53.484l-32.652-5.013l8.216-53.484c0.161-1.07,0.233-2.148,0.233-3.21
		c0-10.227-7.434-19.158-17.831-20.76c-1.069-0.169-2.14-0.249-3.21-0.249c-10.227,0-19.158,7.435-20.768,17.839l-8.199,53.476
		l-42.63-6.541l19.014-123.907l52.784,8.103l12.054,1.842l47.82,7.346l35.614,5.472l52.784,8.103V138.551z"/>
</g>
</svg>