<?xml version="1.0" encoding="utf-8"?>

<!DOCTYPE svg PUBLIC "-//W3C//DTD SVG 1.1//EN" "http://www.w3.org/Graphics/SVG/1.1/DTD/svg11.dtd">
<!-- Uploaded to: SVG Repo, www.svgrepo.com, Generator: SVG Repo Mixer Tools -->
<svg height="800px" width="800px" version="1.1" id="_x32_" xmlns="http://www.w3.org/2000/svg" xmlns:xlink="http://www.w3.org/1999/xlink" 
	 viewBox="0 0 512 512"  xml:space="preserve">
<style type="text/css">
	.st0{fill:#000000;}
</style>
<g>
	<path class="st0" d="M389.748,228.263c-14.832-36.272-23.531-85.945-27.031-121.674l-1.226-12.378H150.502l-1.234,12.378
		c-3.492,35.737-12.184,85.402-27.023,121.674C91.866,302.956,46.335,378.546,0,417.79h40.726h430.541H512
		C465.656,378.546,420.133,302.956,389.748,228.263z M336.643,256.489l-40.388-36.639l-40.334,36.639l-40.32-36.647l-40.32,36.64
		l-25.585-23.253c13.477-35.33,21.409-77.335,25.525-111.544h161.549c4.116,34.202,12.055,76.206,25.525,111.544L336.643,256.489z"
		/>
</g>
</svg>