<?xml version="1.0" encoding="utf-8"?>

<!DOCTYPE svg PUBLIC "-//W3C//DTD SVG 1.1//EN" "http://www.w3.org/Graphics/SVG/1.1/DTD/svg11.dtd">
<!-- Uploaded to: SVG Repo, www.svgrepo.com, Generator: SVG Repo Mixer Tools -->
<svg version="1.1" id="_x32_" xmlns="http://www.w3.org/2000/svg" xmlns:xlink="http://www.w3.org/1999/xlink" 
	 width="800px" height="800px" viewBox="0 0 512 512"  xml:space="preserve">
<style type="text/css">
<![CDATA[
	.st0{fill:#000000;}
]]>
</style>
<g>
	<polygon class="st0" points="286.641,3 374.953,33.844 286.641,74.156 	"/>
	<path class="st0" d="M256,364.438c140.531,0,231.266-38.641,245.375-70.469c-27.656-109.781-127-191.063-245.375-191.063
		S38.281,184.188,10.625,293.969C24.719,325.781,115.469,364.438,256,364.438z"/>
	<path class="st0" d="M270.828,95.813c0,6.547-5.313,11.859-11.859,11.859l0,0c-6.563,0-11.875-5.313-11.875-11.859V11.859
		C247.094,5.313,252.406,0,258.969,0l0,0c6.547,0,11.859,5.313,11.859,11.859V95.813z"/>
	<path class="st0" d="M508.125,334.969C460.281,374.922,355.859,396.063,256,396.063S51.719,374.922,3.875,334.969
		c-0.578,6.938-0.938,13.922-0.938,21v65.813c0,46.063,95.031,84.125,218.375,90.219v-48.813c0-19.156,15.531-34.688,34.688-34.688
		s34.688,15.531,34.688,34.688V512c123.344-6.094,218.375-44.156,218.375-90.219v-65.813
		C509.063,348.891,508.703,341.906,508.125,334.969z"/>
</g>
</svg>