<?xml version="1.0" encoding="utf-8"?>

<!DOCTYPE svg PUBLIC "-//W3C//DTD SVG 1.1//EN" "http://www.w3.org/Graphics/SVG/1.1/DTD/svg11.dtd">
<!-- Uploaded to: SVG Repo, www.svgrepo.com, Generator: SVG Repo Mixer Tools -->
<svg height="800px" width="800px" version="1.1" id="_x32_" xmlns="http://www.w3.org/2000/svg" xmlns:xlink="http://www.w3.org/1999/xlink" 
	 viewBox="0 0 512 512"  xml:space="preserve">
<style type="text/css">
	.st0{fill:#000000;}
</style>
<g>
	<polygon class="st0" points="269.969,101.024 266.174,101.024 261.604,46.113 258.376,46.113 253.806,101.024 250.006,101.024 
		250.006,127.965 269.969,127.965 	"/>
	<polygon class="st0" points="291.174,168.875 272.396,133.663 248.915,133.663 230.136,168.875 230.136,173.767 291.174,173.767 	
		"/>
	<path class="st0" d="M492.705,417.979v-15.973l-23.954-6.001l-37.058-33.938v-46.918l-30.944-31.946v-8.983l-9.991-20.965
		l-8.976,22.957h-29.57v-27.604l-4.86-7.016l-4.93-41.25h-4.646l-2.792,23.374l-14.46-20.877h-29.35v-19.34h-61.038v42.802h-40.021
		l-15.141,12.979v16.37h-41.086l-12.91,15.261v24.647H82.242l-19.957,31.694v32.86L23.55,382.421v37.562
		c0,0-12.708,29.64-23.55,45.903h512L492.705,417.979z M61.05,415.975H45.638v-14.372c0-3.984,3.228-7.205,7.205-7.205h0.996
		c3.984,0,7.211,3.221,7.211,7.205V415.975z M96.987,415.975H81.574v-14.372c0-3.984,3.228-7.205,7.212-7.205h0.996
		c3.978,0,7.205,3.221,7.205,7.205V415.975z M103.681,348.337h-9.827v-19.465h9.827V348.337z M154.588,296.686h-9.821v-19.478h9.821
		V296.686z M219.402,357.327h-9.827v-19.466h9.827V357.327z M242.933,268.976h-9.821v-19.465h9.821V268.976z M251.002,203.703
		c0-5.156,4.186-9.342,9.342-9.342h1.286c5.157,0,9.336,4.186,9.336,9.342v18.608h-19.963V203.703z M275.881,270.476h-9.827v-19.472
		h9.827V270.476z M332.79,357.327h-9.834v-19.466h9.834V357.327z M357.815,357.327h-9.821v-19.466h9.821V357.327z"/>
</g>
</svg>