<?xml version="1.0" encoding="utf-8"?>

<!DOCTYPE svg PUBLIC "-//W3C//DTD SVG 1.1//EN" "http://www.w3.org/Graphics/SVG/1.1/DTD/svg11.dtd">
<!-- Uploaded to: SVG Repo, www.svgrepo.com, Generator: SVG Repo Mixer Tools -->
<svg height="800px" width="800px" version="1.1" id="_x32_" xmlns="http://www.w3.org/2000/svg" xmlns:xlink="http://www.w3.org/1999/xlink" 
	 viewBox="0 0 512 512"  xml:space="preserve">
<style type="text/css">
	.st0{fill:#000000;}
</style>
<g>
	<path class="st0" d="M508.707,414.121l-0.31-0.329c-3.445-3.688-34.999-37.924-67.425-87.171
		c-32.482-49.216-65.586-113.544-73.056-176.198c-1.844-15.63-7.917-28.363-16.863-37.102c-8.911-8.755-20.52-13.265-32.02-13.234
		c-6.362-0.007-12.69,1.378-18.602,3.994c-2.878-5.294-6.644-10.031-11.132-13.97c-8.848-7.784-20.571-12.537-33.3-12.529
		c-12.729-0.008-24.455,4.746-33.3,12.529c-4.486,3.939-8.257,8.669-11.134,13.962c-5.908-2.608-12.236-3.993-18.594-3.986
		c-11.5-0.031-23.108,4.472-32.019,13.234c-8.95,8.739-15.024,21.472-16.867,37.117c-7.706,64.658-42.748,131.117-76.189,180.896
		c-16.695,24.91-32.92,45.692-44.936,60.202C16.953,398.796,12,404.481,8.567,408.326c-1.719,1.926-3.054,3.398-3.955,4.369
		l-1.01,1.096l-0.31,0.329c-4.565,4.816-4.357,12.435,0.467,17c4.819,4.574,12.434,4.362,17.004-0.462
		c0.301-0.328,32.595-34.431,67.116-85.926c15.818-23.664,32.133-50.986,46.024-80.468l30.034,34.862
		c2.275,2.639,5.635,4.182,9.115,4.182c3.481,0,6.841-1.543,9.112-4.182l32.337-37.524l32.317,37.524
		c2.271,2.639,5.63,4.182,9.111,4.182c3.481,0,6.844-1.543,9.115-4.174l32.36-37.548l32.383,37.548
		c2.271,2.639,5.627,4.174,9.108,4.174s6.836-1.535,9.107-4.174l30.09-34.886c13.891,29.49,30.206,56.819,46.028,80.484
		c34.522,51.495,66.815,85.597,67.116,85.926c4.569,4.824,12.181,5.036,17.004,0.462
		C513.065,426.556,513.273,418.945,508.707,414.121z M338.895,272.863l-32.388-37.548c-2.271-2.639-5.626-4.174-9.107-4.174
		c-3.481,0-6.836,1.535-9.111,4.174l-32.352,37.533l-32.318-37.525c-2.271-2.647-5.634-4.182-9.114-4.182
		c-3.481,0-6.841,1.535-9.112,4.174l-32.341,37.533l-28.452-33.03c11.198-27.728,19.757-56.913,23.367-86.512
		c1.366-11.246,5.313-18.379,9.808-22.796c4.534-4.4,9.792-6.335,15.195-6.367c5.693,0.016,11.512,2.256,16.307,7.064
		c3.219,3.234,7.956,4.37,12.294,2.944c4.335-1.425,7.475-5.161,8.136-9.678c0.951-6.46,4.182-12.169,8.856-16.28
		c4.69-4.096,10.689-6.546,17.435-6.554c6.742,0.008,12.737,2.458,17.431,6.554c4.675,4.111,7.905,9.82,8.857,16.287
		c0.662,4.519,3.802,8.246,8.14,9.679c4.335,1.425,9.08,0.29,12.294-2.952c4.797-4.808,10.611-7.048,16.312-7.064
		c5.403,0.032,10.662,1.966,15.192,6.367c4.494,4.424,8.441,11.558,9.808,22.779c3.61,29.608,12.169,58.793,23.367,86.529
		L338.895,272.863z"/>
</g>
</svg>