<?xml version="1.0" encoding="utf-8"?>

<!DOCTYPE svg PUBLIC "-//W3C//DTD SVG 1.1//EN" "http://www.w3.org/Graphics/SVG/1.1/DTD/svg11.dtd">
<!-- Uploaded to: SVG Repo, www.svgrepo.com, Generator: SVG Repo Mixer Tools -->
<svg height="800px" width="800px" version="1.1" id="_x32_" xmlns="http://www.w3.org/2000/svg" xmlns:xlink="http://www.w3.org/1999/xlink" 
	 viewBox="0 0 512 512"  xml:space="preserve">
<style type="text/css">
	.st0{fill:#000000;}
</style>
<g>
	<path class="st0" d="M448.159,299.697v-68.311v-76.31h-13.273V25.848h-8.219V12.924h-5.053V0H310.356v12.924h-5.053v12.924h-8.219
		v129.227h-37.288h-7.591h-42.242V25.848h-8.212V12.924h-5.06V0H85.447v12.924h-5.06v12.924h-8.22v129.227h-8.325v76.31v68.311
		H52.462V512h44.333c0-8.136,0-39.591,0-54.56c0-17.273,44.272-47.106,44.272-47.106s44.273,29.833,44.273,47.106
		c0,14.97,0,46.424,0,54.56h26.386c0-9.546,0-39.106,0-53.47c0-17.272,44.281-47.106,44.281-47.106s44.272,29.834,44.272,47.106
		c0,14.364,0,43.924,0,53.47h21.424c0-8.136,0-39.591,0-54.56c0-17.273,44.28-47.106,44.28-47.106s44.272,29.833,44.272,47.106
		c0,14.97,0,46.424,0,54.56h49.281V299.697H448.159z M148.871,71.682c0-7.462,6.053-13.515,13.515-13.515
		c7.462,0,13.515,6.053,13.515,13.515v88.091h-27.03V71.682z M106.235,71.682c0-7.462,6.053-13.515,13.515-13.515
		s13.515,6.053,13.515,13.515v88.091h-27.03V71.682z M102.712,198.166h12.493v37.924h-12.493V198.166z M115.205,390.637h-12.493
		v-37.925h12.493V390.637z M133.371,321.106h-26.636V280.56c0-7.348,5.962-13.318,13.318-13.318c7.364,0,13.318,5.97,13.318,13.318
		V321.106z M147.31,390.637h-12.484v-37.925h12.484V390.637z M147.31,236.091h-12.484v-37.924h12.484V236.091z M148.765,280.56
		c0-7.348,5.962-13.318,13.318-13.318c7.356,0,13.318,5.97,13.318,13.318v40.546h-26.636V280.56z M179.432,390.637h-12.492v-37.925
		h12.492V390.637z M179.432,236.091h-12.492v-37.924h12.492V236.091z M249.757,198.166h12.492v37.924h-12.492V198.166z
		 M294.243,288.553c0,21.121-17.122,38.242-38.235,38.242c-21.122,0-38.242-17.122-38.242-38.242
		c0-21.114,17.121-38.243,38.242-38.243C277.121,250.31,294.243,267.439,294.243,288.553z M217.643,198.166h12.485v37.924h-12.485
		V198.166z M230.129,390.637h-12.485v-37.925h12.485V390.637z M262.249,390.637h-12.492v-37.925h12.492V390.637z M294.363,390.637
		h-12.493v-37.925h12.493V390.637z M294.363,236.091h-12.493v-37.924h12.493V236.091z M373.788,71.682
		c0-7.462,6.052-13.515,13.515-13.515c7.462,0,13.508,6.053,13.508,13.515v88.091h-27.023V71.682z M331.152,71.682
		c0-7.462,6.053-13.515,13.515-13.515s13.515,6.053,13.515,13.515v88.091h-27.03V71.682z M327.629,198.166h12.485v37.924h-12.485
		V198.166z M340.114,390.637h-12.485v-37.925h12.485V390.637z M358.288,321.106h-26.637V280.56c0-7.348,5.963-13.318,13.318-13.318
		c7.356,0,13.318,5.97,13.318,13.318V321.106z M372.227,390.637h-12.485v-37.925h12.485V390.637z M372.227,236.091h-12.485v-37.924
		h12.485V236.091z M373.682,280.56c0-7.348,5.962-13.318,13.318-13.318c7.356,0,13.318,5.97,13.318,13.318v40.546h-26.636V280.56z
		 M404.34,390.637h-12.484v-37.925h12.484V390.637z M404.34,236.091h-12.484v-37.924h12.484V236.091z"/>
	<path class="st0" d="M124.409,460.272c-5.834,0-10.568,4.728-10.568,10.561V512h21.121v-41.166
		C134.962,465,130.235,460.272,124.409,460.272z"/>
	<path class="st0" d="M157.735,460.272c-5.834,0-10.568,4.728-10.568,10.561V512h21.128v-41.166
		C168.295,465,163.568,460.272,157.735,460.272z"/>
	<path class="st0" d="M239.341,460.272c-5.833,0-10.56,4.728-10.56,10.561V512h21.121v-41.166
		C249.901,465,245.175,460.272,239.341,460.272z"/>
	<path class="st0" d="M272.666,460.272c-5.833,0-10.568,4.728-10.568,10.561V512h21.128v-41.166
		C283.227,465,278.5,460.272,272.666,460.272z"/>
	<path class="st0" d="M349.326,460.272c-5.834,0-10.569,4.728-10.569,10.561V512h21.122v-41.166
		C359.879,465,355.151,460.272,349.326,460.272z"/>
	<path class="st0" d="M382.651,460.272c-5.841,0-10.568,4.728-10.568,10.561V512h21.122v-41.166
		C393.205,465,388.477,460.272,382.651,460.272z"/>
</g>
</svg>