<?xml version="1.0" encoding="utf-8"?>

<!DOCTYPE svg PUBLIC "-//W3C//DTD SVG 1.1//EN" "http://www.w3.org/Graphics/SVG/1.1/DTD/svg11.dtd">
<!-- Uploaded to: SVG Repo, www.svgrepo.com, Generator: SVG Repo Mixer Tools -->
<svg height="800px" width="800px" version="1.1" id="_x32_" xmlns="http://www.w3.org/2000/svg" xmlns:xlink="http://www.w3.org/1999/xlink" 
	 viewBox="0 0 512 512"  xml:space="preserve">
<style type="text/css">
	.st0{fill:#000000;}
</style>
<g>
	<polygon class="st0" points="496.914,407.505 496.914,342.949 27.946,342.949 27.946,407.505 8.422,407.505 8.422,432.217 
		512,432.217 512,407.505 	"/>
	<path class="st0" d="M33.688,329.288h454.035l15.317-131.194c0,0-62.779-10.283-119.44,44.601
		c-1.536-12.014-70.447-145.762-182.233-162.912v70.562c17.271,11.884,55.782,44.083,78.439,106.88
		c-59.804-82.697-85.857-94.895-118.76-110.11c-10.352-3.462-21.967-5.859-33.944-5.591v44.86
		c21.416,11.079,47.604,29.636,71.691,60.595c-32.741-23.213-56.888-37.531-76.384-46.517c-12.67-4.915-48.868-17.17-81.067-10.94
		l10.537,65.611c9.755,5.877,19.779,12.94,29.825,21.491c-10.176-4.34-19.514-8.145-28.219-11.468l0.111,0.685L0,252.126
		L33.688,329.288z"/>
</g>
</svg>