<?xml version="1.0" encoding="utf-8"?>

<!DOCTYPE svg PUBLIC "-//W3C//DTD SVG 1.1//EN" "http://www.w3.org/Graphics/SVG/1.1/DTD/svg11.dtd">
<!-- Uploaded to: SVG Repo, www.svgrepo.com, Generator: SVG Repo Mixer Tools -->
<svg height="800px" width="800px" version="1.1" id="_x32_" xmlns="http://www.w3.org/2000/svg" xmlns:xlink="http://www.w3.org/1999/xlink" 
	 viewBox="0 0 512 512"  xml:space="preserve">
<style type="text/css">
	.st0{fill:#000000;}
</style>
<g>
	<path class="st0" d="M375.367,275.1c0-3.37,0.063-6.765,0.063-10.166c0-6.063-0.164-12.164-1.29-18.259
		c-0.847-4.552-2.264-9.117-4.615-13.467c-3.528-6.537-9.193-12.392-17.21-16.963c-8.017-4.602-18.361-8.099-31.89-10.64
		c-7.41-1.372-12.569-3.18-15.237-4.698c-0.455-0.253-0.809-0.48-1.113-0.695c1.201-1.012,3.591-2.485,7.144-3.838
		c11.039-4.337,24.114-12.36,35.077-24.468c10.938-12.082,19.675-28.464,21.003-48.727c0.101-1.486,0.152-2.959,0.152-4.419
		c0.012-14.188-4.679-26.674-11.659-37.094c-10.495-15.66-25.922-27.079-39.869-35.513c-6.98-4.211-13.606-7.663-19.081-10.419
		c-2.744-1.378-5.184-2.579-7.22-3.604c-2.023-1.018-3.655-1.871-4.616-2.446c-2.415-1.429-4.565-3.528-6.563-6.126
		c-3.009-3.901-5.488-8.769-8.232-13.232c-1.404-2.232-2.87-4.42-4.982-6.43c-1.062-0.999-2.339-1.953-3.895-2.693
		c-1.543-0.74-3.414-1.207-5.311-1.201c-2.542-0.02-4.97,0.847-6.778,2.01c-1.606,1.018-2.844,2.206-3.907,3.42
		c-1.834,2.137-3.224,4.407-4.603,6.727c-2.048,3.477-4.021,7.094-6.259,10.21c-2.238,3.136-4.679,5.684-7.435,7.315
		c-1.353,0.803-3.819,2.074-6.892,3.635c-5.4,2.738-12.759,6.443-20.725,11.191c-11.962,7.138-25.378,16.615-36.075,29.209
		c-5.349,6.297-10.002,13.404-13.328,21.376c-3.338,7.973-5.31,16.824-5.298,26.396c0,0.449,0,0.898,0.013,1.347
		c0.19,10.21,2.478,19.511,6.145,27.717c5.5,12.323,13.998,22.179,23.026,29.734c9.066,7.549,18.676,12.854,26.92,16.084
		c3.503,1.347,5.943,2.794,7.144,3.818c-0.847,0.608-2.238,1.392-4.236,2.162c-2.895,1.145-6.954,2.289-12.113,3.25
		c-12.038,2.257-21.534,5.273-29.134,9.149c-5.703,2.902-10.331,6.31-13.985,10.192c-5.501,5.823-8.586,12.644-10.129,19.46
		c-1.555,6.835-1.757,13.713-1.757,20.542c0,3.389,0.05,6.778,0.05,10.148c-0.013,0.676-0.873,44.977-1.745,91.523
		c-0.43,23.456-0.872,34.52-1.201,53.81c-0.329,19.308-0.544,33.799-0.544,38.459c0,3.421,0.822,6.822,2.276,10.09
		c2.554,5.722,6.992,11.09,13.163,16.084c9.268,7.48,22.52,14.137,40.173,19.018c17.665,4.868,39.73,7.922,66.612,7.922
		c41.121,0,71.304-8.503,91.523-19.018c10.104-5.26,17.728-11.001,23.052-16.628c2.655-2.82,4.742-5.614,6.271-8.447
		c1.505-2.832,2.542-5.722,2.567-9.022v-0.076v-0.051L375.367,275.1z M166.93,228.776c6.056-3.496,14.87-6.645,27.351-8.972
		c8.371-1.587,14.744-3.572,19.65-6.297c2.453-1.378,4.577-2.96,6.322-5.096c1.72-2.1,2.997-4.995,2.972-8.067
		c0.013-2.365-0.72-4.603-1.783-6.412c-1.606-2.737-3.818-4.716-6.373-6.461c-2.554-1.732-5.538-3.212-8.978-4.565
		c-9.066-3.515-20.978-10.577-30.322-20.75c-4.692-5.076-8.763-10.912-11.684-17.488c-2.934-6.576-4.742-13.884-4.906-22.103
		c0-0.366-0.012-0.72-0.012-1.075c0.025-11.57,3.54-21.49,9.243-30.411c8.536-13.36,22.23-24.152,35.191-32.2
		c6.487-4.028,12.759-7.391,18.095-10.135c2.655-1.366,5.096-2.592,7.22-3.68c2.137-1.088,3.945-2.036,5.513-2.958
		c4.488-2.668,7.903-6.202,10.622-9.743c4.072-5.324,6.803-10.818,9.066-14.422c0.72-1.176,1.39-2.106,1.909-2.744
		c0.544,0.677,1.252,1.669,2.036,2.953c1.871,3.022,4.097,7.315,7.106,11.696c3.022,4.369,6.904,8.946,12.456,12.26
		c2.074,1.226,4.615,2.49,7.726,4.04c5.4,2.687,12.404,6.139,19.878,10.47c11.229,6.481,23.456,14.965,32.586,25.353
		c4.578,5.19,8.371,10.83,11.014,16.919c2.656,6.101,4.173,12.638,4.173,19.871c0,1.132-0.038,2.288-0.113,3.465
		c-1.113,16.602-8.119,29.778-17.311,39.995c-9.168,10.185-20.624,17.197-29.614,20.687c-4.577,1.808-8.358,3.806-11.406,6.405
		c-1.53,1.308-2.883,2.794-3.945,4.621c-1.062,1.808-1.795,4.046-1.783,6.412c-0.025,3.072,1.252,5.968,2.972,8.067
		c2.63,3.187,6.057,5.21,10.28,7.012c4.248,1.764,9.408,3.205,15.692,4.381c11.09,2.074,19.283,4.793,25.226,7.821
		c3.111,1.587,5.576,3.256,7.599,4.963c-0.176,0.24-0.353,0.475-0.543,0.708c-1.467,1.947-3.162,4.167-6.197,6.746
		c-4.514,3.831-12.063,8.453-25.858,12.392c-13.783,3.939-33.737,7.126-62.681,8.017c-49.087,0-73.377-6.728-85.567-13.119
		c-6.12-3.218-9.256-6.234-11.418-8.687c-0.443-0.518-0.834-1.005-1.227-1.492C159.292,234.194,162.328,231.438,166.93,228.776z
		 M151.074,264.946c-0.013-5.779,0.19-11.051,1.036-15.623c0.089-0.423,0.215-0.79,0.304-1.195c1.125,1.101,2.352,2.251,3.87,3.427
		c6.082,4.755,15.541,9.706,31.068,13.429c15.541,3.73,37.214,6.297,68.092,6.304h0.076l0.088-0.007
		c48.088-1.492,73.049-9.117,87.173-17.31c7.043-4.084,11.318-8.39,14.023-11.697c0.228-0.291,0.443-0.556,0.658-0.828
		c0.898,1.922,1.593,3.952,2.124,6.19c1.138,4.956,1.404,10.798,1.391,17.298c0,3.275-0.051,6.702-0.051,10.268v0.05l0.203,11.69
		c-0.645,0.854-1.353,1.746-2.174,2.669c-5.286,5.924-14.618,13.194-30.487,19.03c-15.857,5.836-38.276,10.198-69.521,10.198
		c-42.057,0-68.156-6.765-84.341-13.593c-8.093-3.427-13.72-6.86-17.728-9.61c-2.011-1.378-3.616-2.579-4.995-3.591
		c-0.367-0.266-0.72-0.506-1.075-0.752c0.202-9.92,0.316-15.932,0.316-15.932v-0.095v-0.063
		C151.124,271.636,151.074,268.209,151.074,264.946z M363.253,461.548c-1.505,2.624-4.805,6.449-9.964,10.413
		c-7.726,5.981-19.587,12.417-35.797,17.31c-16.224,4.9-36.81,8.276-62.086,8.276c-39.3,0.019-67.03-6.854-84.404-15.427
		c-8.699-4.273-14.782-8.978-18.474-13.214c-1.859-2.112-3.111-4.097-3.87-5.804c-0.759-1.713-1.024-3.123-1.024-4.217
		c0-4.356,0.215-18.961,0.544-38.212c0.494-28.912,1.227-55.536,1.834-87.875c0.203-10.407,0.392-20.042,0.544-28.35
		c1.897,1.302,4.147,2.763,6.778,4.293c7.928,4.616,19.41,9.882,35.848,13.954c16.438,4.078,37.846,6.98,65.766,6.98
		c42.992,0,70.798-7.998,88.526-17.753c5.614-3.085,10.204-6.341,13.922-9.566l2.972,156.542
		C364.366,459.038,364.126,460.094,363.253,461.548z"/>
	<path class="st0" d="M180.688,293.65c5.804,0,10.52-4.704,10.52-10.508c0-5.804-4.716-10.514-10.52-10.514
		s-10.508,4.71-10.508,10.514C170.18,288.946,174.884,293.65,180.688,293.65z"/>
	<path class="st0" d="M257.783,306.56c5.804,0,10.508-4.704,10.508-10.508c0-5.804-4.704-10.514-10.508-10.514
		c-5.816,0-10.52,4.71-10.52,10.514C247.262,301.857,251.966,306.56,257.783,306.56z"/>
	<path class="st0" d="M334.866,293.65c5.803,0,10.507-4.704,10.507-10.508c0-5.804-4.704-10.514-10.507-10.514
		c-5.804,0-10.508,4.71-10.508,10.514C324.358,288.946,329.062,293.65,334.866,293.65z"/>
</g>
</svg>