<?xml version="1.0" encoding="utf-8"?>

<!DOCTYPE svg PUBLIC "-//W3C//DTD SVG 1.1//EN" "http://www.w3.org/Graphics/SVG/1.1/DTD/svg11.dtd">
<!-- Uploaded to: SVG Repo, www.svgrepo.com, Generator: SVG Repo Mixer Tools -->
<svg version="1.1" id="_x32_" xmlns="http://www.w3.org/2000/svg" xmlns:xlink="http://www.w3.org/1999/xlink" 
	 viewBox="0 0 512 512"  xml:space="preserve">
<style type="text/css">
	.st0{fill:#000000;}
</style>
<g>
	<path class="st0" d="M74.136,411.449c-4.483,0-8.11,3.626-8.11,8.11c0,4.475,3.627,8.102,8.11,8.102
		c4.466,0,8.093-3.626,8.093-8.102C82.229,415.076,78.602,411.449,74.136,411.449z"/>
	<path class="st0" d="M156.39,411.449c-4.483,0-8.11,3.626-8.11,8.11c0,4.475,3.627,8.102,8.11,8.102
		c4.466,0,8.102-3.626,8.102-8.102C164.492,415.076,160.856,411.449,156.39,411.449z"/>
	<path class="st0" d="M238.644,411.449c-4.474,0-8.11,3.626-8.11,8.11c0,4.475,3.636,8.102,8.11,8.102
		c4.474,0,8.102-3.626,8.102-8.102C246.746,415.076,243.118,411.449,238.644,411.449z"/>
	<path class="st0" d="M320.898,411.449c-4.466,0-8.093,3.626-8.093,8.11c0,4.475,3.627,8.102,8.093,8.102
		c4.475,0,8.11-3.626,8.11-8.102C329.009,415.076,325.374,411.449,320.898,411.449z"/>
	<path class="st0" d="M403.161,411.449c-4.474,0-8.102,3.626-8.102,8.11c0,4.475,3.628,8.102,8.102,8.102
		c4.474,0,8.102-3.626,8.102-8.102C411.263,415.076,407.635,411.449,403.161,411.449z"/>
	<path class="st0" d="M485.424,411.449c-4.483,0-8.11,3.626-8.11,8.11c0,4.475,3.628,8.102,8.11,8.102
		c4.474,0,8.102-3.626,8.102-8.102C493.526,415.076,489.898,411.449,485.424,411.449z"/>
	<path class="st0" d="M485.424,293.381c-4.483,0-8.11,3.619-8.11,8.11c0,4.466,3.628,8.093,8.11,8.093
		c4.474,0,8.102-3.628,8.102-8.093C493.526,297,489.898,293.381,485.424,293.381z"/>
	<path class="st0" d="M37.788,458.602c-4.474,0-8.102,3.626-8.102,8.093c0,4.483,3.628,8.11,8.102,8.11s8.102-3.627,8.102-8.11
		C45.89,462.229,42.263,458.602,37.788,458.602z"/>
	<path class="st0" d="M120.042,458.602c-4.474,0-8.102,3.626-8.102,8.093c0,4.483,3.627,8.11,8.102,8.11
		c4.483,0,8.102-3.627,8.102-8.11C128.144,462.229,124.526,458.602,120.042,458.602z"/>
	<path class="st0" d="M202.305,458.602c-4.474,0-8.11,3.626-8.11,8.093c0,4.483,3.636,8.11,8.11,8.11
		c4.466,0,8.102-3.627,8.102-8.11C210.407,462.229,206.772,458.602,202.305,458.602z"/>
	<path class="st0" d="M284.559,458.602c-4.474,0-8.102,3.626-8.102,8.093c0,4.483,3.627,8.11,8.102,8.11
		c4.475,0,8.102-3.627,8.102-8.11C292.661,462.229,289.034,458.602,284.559,458.602z"/>
	<path class="st0" d="M366.813,458.602c-4.474,0-8.101,3.626-8.101,8.093c0,4.483,3.626,8.11,8.101,8.11
		c4.476,0,8.119-3.627,8.119-8.11C374.932,462.229,371.289,458.602,366.813,458.602z"/>
	<path class="st0" d="M449.06,458.602c-4.458,0-8.093,3.626-8.093,8.093c0,4.483,3.635,8.11,8.093,8.11c4.5,0,8.11-3.627,8.11-8.11
		C457.17,462.229,453.559,458.602,449.06,458.602z"/>
	<path class="st0" d="M37.788,371.67c-4.474,0-8.102,3.635-8.102,8.11c0,4.474,3.628,8.102,8.102,8.102s8.102-3.628,8.102-8.102
		C45.89,375.305,42.263,371.67,37.788,371.67z"/>
	<path class="st0" d="M37.788,308.153c4.474,0,8.102-3.628,8.102-8.11c0-4.467-3.627-8.093-8.102-8.093s-8.102,3.626-8.102,8.093
		C29.686,304.525,33.314,308.153,37.788,308.153z"/>
	<path class="st0" d="M120.042,371.67c-4.474,0-8.102,3.635-8.102,8.11c0,4.474,3.627,8.102,8.102,8.102
		c4.483,0,8.102-3.628,8.102-8.102C128.144,375.305,124.526,371.67,120.042,371.67z"/>
	<path class="st0" d="M202.305,371.67c-4.474,0-8.11,3.635-8.11,8.11c0,4.474,3.636,8.102,8.11,8.102
		c4.466,0,8.102-3.628,8.102-8.102C210.407,375.305,206.772,371.67,202.305,371.67z"/>
	<path class="st0" d="M284.559,371.67c-4.474,0-8.102,3.635-8.102,8.11c0,4.474,3.627,8.102,8.102,8.102
		c4.475,0,8.102-3.628,8.102-8.102C292.661,375.305,289.034,371.67,284.559,371.67z"/>
	<path class="st0" d="M366.813,371.67c-4.474,0-8.101,3.635-8.101,8.11c0,4.474,3.626,8.102,8.101,8.102
		c4.476,0,8.119-3.628,8.119-8.102C374.932,375.305,371.289,371.67,366.813,371.67z"/>
	<path class="st0" d="M449.06,371.67c-4.458,0-8.093,3.635-8.093,8.11c0,4.474,3.635,8.102,8.093,8.102c4.5,0,8.11-3.628,8.11-8.102
		C457.17,375.305,453.559,371.67,449.06,371.67z"/>
	<path class="st0" d="M407.491,134.517c17.754,0,32.144-14.382,32.144-32.153c0-17.754-14.39-32.128-32.144-32.136
		c-17.762,0.008-32.144,14.381-32.144,32.136C375.347,120.135,389.729,134.517,407.491,134.517z M392.814,87.703
		c3.78-3.77,8.924-6.076,14.678-6.084c5.738,0.008,10.89,2.314,14.67,6.084c3.754,3.78,6.076,8.932,6.076,14.662
		c0,5.754-2.322,10.915-6.076,14.678c-3.78,3.763-8.932,6.076-14.67,6.076c-5.753,0-10.898-2.313-14.678-6.076
		c-3.754-3.763-6.076-8.924-6.076-14.678C386.737,96.635,389.059,91.483,392.814,87.703z"/>
	<rect x="401.788" y="37.195" class="st0" width="11.399" height="22.314"/>
	<rect x="401.788" y="145.246" class="st0" width="11.399" height="22.296"/>
	<polygon class="st0" points="373.204,75.991 353.899,64.856 348.187,74.72 367.508,85.873 	"/>
	<polygon class="st0" points="466.789,130.017 447.475,118.873 441.771,128.745 461.068,139.899 	"/>
	<polygon class="st0" points="373.204,128.745 367.508,118.873 348.187,130.017 353.899,139.899 	"/>
	<polygon class="st0" points="466.789,74.72 461.068,64.856 441.771,75.991 447.475,85.873 	"/>
	<path class="st0" d="M399.983,263.322L259.619,101.127L117.661,265.161v-1.84H0v15.907h105.5l-60.526,69.932h429.297
		l-60.534-69.932H512v-15.907H399.983z M439.475,333.263H221.458l38.161-207.839L439.475,333.263z"/>
</g>
</svg>