<?xml version="1.0" encoding="utf-8"?>

<!DOCTYPE svg PUBLIC "-//W3C//DTD SVG 1.1//EN" "http://www.w3.org/Graphics/SVG/1.1/DTD/svg11.dtd">
<!-- Uploaded to: SVG Repo, www.svgrepo.com, Generator: SVG Repo Mixer Tools -->
<svg height="800px" width="800px" version="1.1" id="_x32_" xmlns="http://www.w3.org/2000/svg" xmlns:xlink="http://www.w3.org/1999/xlink" 
	 viewBox="0 0 512 512"  xml:space="preserve">
<style type="text/css">
	.st0{fill:#000000;}
</style>
<g>
	<path class="st0" d="M453.592,409.435v-58.376H418.62v-37.012v-7.892h2.858v-10.043h-3.501l-0.437-9.336
		c-1.961-20.189-13.932-41.538-27.429-48.556h1.262v-8.748h-4.374v-11.384c2.302-0.112,4.152-2.001,4.152-4.351
		c0-2.334-1.85-4.231-4.152-4.35v-18.483c0.436-0.865,0.77-1.762,1.024-2.714c1.81-0.541,3.127-2.192,3.127-4.161
		c0-2.096-1.461-3.827-3.422-4.255c-1.643-4.795-5.732-8.447-10.789-9.456V158.02h6.494v-5.684h-6.494v-10.274h-5.677v10.274h-6.478
		v5.684h6.478v12.298c-5.041,1.008-9.129,4.661-10.788,9.456c-1.946,0.428-3.406,2.159-3.406,4.255c0,1.969,1.318,3.62,3.128,4.161
		c0.238,0.952,0.588,1.85,1.024,2.714v18.483c-2.318,0.119-4.152,2.016-4.152,4.35c0,2.35,1.834,4.24,4.152,4.351v11.384h-4.374
		v8.748h1.254c-8.781,4.566-16.91,15.212-22.063,27.644h-3.017v-9.939h4.978v-17.387h-6.064l-0.771-16.148
		c-3.557-36.774-26.365-75.77-51.183-85.726h0.556v-12.425h-6.209v-16.188c3.279-0.158,5.899-2.85,5.899-6.176
		c0-3.318-2.62-6.018-5.899-6.177V69.404c0.603-1.223,1.088-2.501,1.445-3.842c2.565-0.762,4.454-3.112,4.454-5.93
		c0-2.962-2.08-5.439-4.859-6.057c-2.35-6.796-8.162-11.981-15.33-13.417V22.674h9.209V14.6h-9.209V0h-8.074v14.6h-9.209v8.074
		h9.209v17.482c-7.185,1.436-12.98,6.621-15.33,13.417c-2.779,0.627-4.859,3.096-4.859,6.057c0,2.818,1.874,5.168,4.438,5.93
		c0.358,1.342,0.85,2.62,1.461,3.842v26.294c-3.279,0.158-5.899,2.858-5.899,6.177c0,3.318,2.62,6.018,5.899,6.176v16.188h-6.216
		v12.425h0.564c-24.818,9.956-47.627,48.952-51.184,85.726l-0.77,16.148h-6.066v17.387h4.962v9.939h-3.001
		c-5.136-12.432-13.282-23.078-22.07-27.644h1.262v-8.748h-4.374v-11.384c2.318-0.112,4.152-2.001,4.152-4.351
		c0-2.334-1.834-4.231-4.152-4.35v-18.483c0.437-0.865,0.778-1.762,1.024-2.714c1.81-0.541,3.128-2.192,3.128-4.161
		c0-2.096-1.461-3.827-3.406-4.271c-1.659-4.779-5.748-8.431-10.789-9.44V158.02h6.478v-5.684h-6.478v-10.274h-5.676v10.274h-6.495
		v5.684h6.495v12.298c-5.058,1.008-9.146,4.661-10.79,9.456c-1.961,0.428-3.422,2.159-3.422,4.255c0,1.969,1.318,3.62,3.128,4.161
		c0.254,0.952,0.587,1.85,1.024,2.714v18.483c-2.31,0.119-4.152,2.016-4.152,4.35c0,2.35,1.842,4.24,4.152,4.351v11.384h-4.374
		v8.748h1.262c-13.481,7.018-25.469,28.367-27.422,48.556l-0.453,9.336h-3.493v10.043h2.866v7.892v37.012h-34.98v58.376H25.103V512
		h461.793V409.435H453.592z"/>
</g>
</svg>