<?xml version="1.0" encoding="utf-8"?>

<!DOCTYPE svg PUBLIC "-//W3C//DTD SVG 1.1//EN" "http://www.w3.org/Graphics/SVG/1.1/DTD/svg11.dtd">
<!-- Uploaded to: SVG Repo, www.svgrepo.com, Generator: SVG Repo Mixer Tools -->
<svg height="800px" width="800px" version="1.1" id="_x32_" xmlns="http://www.w3.org/2000/svg" xmlns:xlink="http://www.w3.org/1999/xlink" 
	 viewBox="0 0 512 512"  xml:space="preserve">
<style type="text/css">
	.st0{fill:#000000;}
</style>
<g>
	<path class="st0" d="M484.783,306.611c-16.801-16.809-40.07-27.217-65.704-27.217h-83.882c-3.066,0-20.112,0-36.387,0
		c-8.134,0-16.086,0-21.996,0c-5.914,0-9.786,0-9.789,0c-2.259,0-4.104-0.258-5.626-0.654c-2.658-0.722-4.336-1.806-5.695-3.192
		c-1.015-1.04-1.837-2.305-2.512-3.776c-1.01-2.193-1.634-4.868-1.956-7.569c-0.327-2.702-0.374-5.386-0.374-7.648
		c0-0.473,0.009-0.921,0.009-1.359l0.012-0.06c0.138-0.37,0.671-1.359,1.549-2.521c1.531-2.056,4.026-4.706,6.856-7.346
		c4.25-4,9.244-8.077,13.144-11.114c1.953-1.514,3.63-2.778,4.818-3.664c0.589-0.43,1.058-0.783,1.38-1.006
		c0.16-0.121,0.276-0.216,0.353-0.276l0.099-0.052l0.021-0.026l0.408-0.292l0.353-0.352c7.51-7.51,11.459-17.532,11.459-27.666
		c0-6.21-1.489-12.49-4.534-18.262l-56.16-106.299c-9.622-18.219-28.546-29.626-49.162-29.626h-63.774
		c-24.83,0-46.637,16.448-53.458,40.328l-9.377,32.766l10.04,17.213l-13.893,37.524l-1.2,50.985
		c-0.009,0.164-0.009,0.292-0.009,0.388c0,4.594,1.936,8.998,5.338,12.121h0.008c3.042,2.778,7.003,4.309,11.093,4.309
		c0.276,0,0.564-0.034,0.843-0.051l20.272,2.753c-0.198,9.41-1.565,19.665-3.618,30.349c-3.32,17.36-8.374,35.777-12.641,53.644
		c-4.258,17.893-7.768,35.21-7.79,50.771c0.004,5.161,0.4,10.15,1.33,14.899c-11.317,0.551-20.809,2.237-28.724,4.843
		c-7.277,2.4-13.251,5.6-18.082,9.316c-7.251,5.574-11.815,12.354-14.43,19.029C0.757,434.485,0,441.005,0,446.442
		c0.009,8.344,1.78,14.202,1.888,14.581l1.321,4.345h4.542c0,0,63.794-0.009,83.7-0.009c13.032,0,18.435,0,99.821,0.009
		c0.632,0,1.342,0,2.117,0c2.762,0,5.608,0,8.55,0h0.379l0.004-0.009c23.408,0,69.098,0,99.98,0v0.009h5.622
		c3.433,0,6.929,0,10.486,0c2.882,0,5.437,0,7.6,0v-0.009c48.311,0,107.379,0,179.87,0.009H512v-93.052
		C512.004,346.673,501.587,323.403,484.783,306.611z M499.75,453.126c-75.799,0-136.708,0-185.844,0
		c0.056-2.047,0.155-4.903,0.336-7.785c0.138-2.125,0.318-4.275,0.534-6.064c0.103-0.913,0.215-1.721,0.339-2.392
		c0.107-0.654,0.241-1.162,0.306-1.377c0.89-2.916,2.215-5.841,4.198-8.654c1.513-2.099,3.368-4.146,5.814-6.108
		c2.439-1.944,5.471-3.82,9.355-5.488h-0.004c7.708-3.312,18.857-5.755,34.668-5.755h58.182v-35.218h-12.246v22.96h-45.936
		c-17.055,0-29.872,2.623-39.506,6.762h-0.004c-4.791,2.064-8.813,4.498-12.163,7.174c-3.342,2.675-6.017,5.6-8.134,8.576
		l-0.012,0.009c-2.834,4-4.719,8.172-5.927,12.164c-0.284,0.937-0.478,1.841-0.654,2.821c-0.297,1.695-0.516,3.578-0.701,5.54
		c-0.272,2.942-0.443,6.082-0.564,8.8c-0.06,1.523-0.103,2.882-0.12,4.034c-22.814,0-53.464,0-77.292,0
		c1.385-2.744,2.352-5.919,3.019-9.755l-0.004,0.018c1.05-6.091,1.342-13.592,1.356-23.029v-0.19l-12.25-0.163
		c0,0.172,0,0.292,0,0.352c0.009,9.144-0.336,16.198-1.174,20.93v0.017c-0.61,3.596-1.497,5.832-2.237,6.985
		c-0.305,0.499-0.572,0.826-0.852,1.136c-0.284,0.31-0.597,0.568-1.054,0.877c-1.183,0.826-3.651,1.893-7.97,2.581h-0.012
		c-0.495,0.077-1.062,0.155-1.656,0.24c-4.306,0-7.811,0-10.268,0c-81.386,0-86.788,0-99.821,0c-9.958,0-30.878,0-49.317,0
		c-9.213,0-17.816,0-24.103,0c-2.039,0-3.798,0-5.295,0c-0.267-1.841-0.49-4.121-0.486-6.684c-0.004-3.811,0.482-8.181,1.944-12.508
		c1.092-3.252,2.718-6.477,5.122-9.557c3.622-4.594,8.998-8.904,17.489-12.216c8.478-3.286,20.086-5.496,35.76-5.488
		c32.598,0,48.951,0,56.586,0v-12.25c-7.264,0-22.456,0-52.03,0c-1.067-4.353-1.575-9.274-1.571-14.693
		c-0.004-9.135,1.428-19.579,3.648-30.728c3.317-16.731,8.384-35.037,12.658-53.239c4.258-18.211,7.764-36.328,7.781-53.102
		c0-1.066-0.017-2.142-0.051-3.208l-0.138-5.204l-31.987-4.353l-0.758,0.086c-0.15,0.026-0.305,0.034-0.468,0.034
		c-1.037,0-2.056-0.396-2.83-1.101c-0.864-0.791-1.355-1.91-1.355-3.08v-0.043l1.153-49.008l15.196-41.015l-10.323-17.704
		l7.927-27.742c5.325-18.606,22.336-31.441,41.691-31.441h63.774c16.074,0,30.831,8.894,38.336,23.105l56.156,106.308
		c2.099,3.957,3.114,8.25,3.114,12.524c-0.004,6.857-2.628,13.592-7.622,18.736c-1.85,1.342-8.516,6.246-15.303,12.078
		c-3.979,3.424-7.984,7.132-11.2,10.787c-1.608,1.841-3.024,3.665-4.168,5.609c-0.564,0.972-1.071,1.987-1.466,3.114
		c-0.396,1.11-0.689,2.357-0.693,3.802c0,0.464-0.008,1.015-0.008,1.609c0,2.451,0.043,5.72,0.485,9.299
		c0.34,2.692,0.913,5.574,1.936,8.473c0.765,2.176,1.793,4.352,3.196,6.443c2.086,3.114,5.07,5.953,8.946,7.897
		c3.87,1.953,8.516,2.977,13.85,2.977c0.003,0,3.875,0,9.789,0c17.738,0,53.79,0,58.384,0h83.882
		c22.292,0,42.422,9.015,57.045,23.621c14.603,14.624,23.622,34.753,23.627,57.051V453.126z"/>
	<path class="st0" d="M126.823,72.663c0,0,0,0-19.63,0v9.179c8.069,0,12.826,0,15.622,0l21.273,155.297l9.106-1.256l-22.366-163.22
		H126.823z"/>
</g>
</svg>