<?xml version="1.0" encoding="utf-8"?>

<!DOCTYPE svg PUBLIC "-//W3C//DTD SVG 1.1//EN" "http://www.w3.org/Graphics/SVG/1.1/DTD/svg11.dtd">
<!-- Uploaded to: SVG Repo, www.svgrepo.com, Generator: SVG Repo Mixer Tools -->
<svg version="1.1" id="_x32_" xmlns="http://www.w3.org/2000/svg" xmlns:xlink="http://www.w3.org/1999/xlink" 
	 viewBox="0 0 512 512"  xml:space="preserve">
<style type="text/css">
	.st0{fill:#000000;}
</style>
<g>
	<path class="st0" d="M495.022,459.55c-4.993-11.806-13.307-21.808-23.782-28.885c-10.465-7.076-23.154-11.23-36.721-11.215h-13.101
		v-44.089c0-24.817-9.858-48.616-27.411-66.177l-0.308-0.311l-44.556-37.285v-17.794l69.715-66.915l0.198-0.218
		c3.313-3.562,5.841-7.661,7.532-12.032c1.692-4.371,2.555-8.998,2.555-13.664c0-6.035-1.454-12.132-4.422-17.717L363.151,27.438
		C354.172,10.546,336.612,0,317.491,0h-59.519h-63.459c-19.125,0-36.686,10.546-45.664,27.438L87.276,143.249
		c-2.967,5.584-4.422,11.682-4.422,17.717c0,4.666,0.864,9.294,2.555,13.664c1.692,4.363,4.224,8.47,7.536,12.032l0.19,0.218
		l69.719,66.915v17.794l-44.552,37.285l-0.312,0.311c-17.549,17.561-27.407,41.36-27.407,66.177v44.089H77.485
		c-9.041-0.015-17.705,1.836-25.568,5.165c-11.794,4.992-21.804,13.299-28.88,23.782c-7.082,10.461-11.227,23.145-11.223,36.716V512
		h161.479h11.814h141.788h7.878h1.968h163.447v-26.886C500.186,476.069,498.348,467.413,495.022,459.55z M165.418,492.308h-27.076
		v-17.732h-8.866v17.732h-28.554v-17.732h-8.858v17.732H63.509v-17.732h-8.862v17.732H31.509v-7.194
		c0-6.385,1.284-12.397,3.605-17.895c3.484-8.236,9.328-15.275,16.67-20.236c7.35-4.962,16.142-7.84,25.7-7.848h41.954
		c6.374,0,12.402,1.291,17.896,3.616c8.236,3.484,15.275,9.317,20.232,16.667c4.958,7.349,7.848,16.137,7.852,25.696V492.308z
		 M338.112,448.398c-7.077,10.461-11.222,23.145-11.218,36.716v7.194H185.106v-7.194c0-9.045-1.835-17.701-5.16-25.564
		c-4.994-11.806-13.307-21.808-23.783-28.885c-10.468-7.076-23.158-11.23-36.725-11.215h-9.162v-44.089
		c0-19.482,7.7-38.171,21.407-51.999l50.864-42.581v-35.386l-75.272-72.243c-1.54-1.704-2.714-3.602-3.504-5.639
		c-0.809-2.092-1.222-4.316-1.222-6.548c0-2.894,0.689-5.787,2.116-8.47l61.572-115.812c5.557-10.468,16.43-16.993,28.274-16.993
		h63.459h59.519c11.841,0,22.713,6.526,28.27,16.993l61.576,115.812c1.423,2.683,2.112,5.576,2.116,8.47
		c0,2.232-0.417,4.456-1.226,6.548c-0.79,2.045-1.96,3.95-3.504,5.639l-75.268,72.243v35.386l50.86,42.581
		c13.71,13.828,21.41,32.517,21.41,51.999v44.089h-9.165c-9.038-0.015-17.701,1.836-25.564,5.165
		C355.199,429.608,345.194,437.914,338.112,448.398z M480.491,492.308h-27.072v-17.732h-8.862v17.732h-28.555v-17.732h-8.862v17.732
		h-28.554v-17.732h-8.862v17.732h-23.138v-7.194c0.004-6.385,1.287-12.397,3.608-17.895c3.48-8.236,9.325-15.275,16.667-20.236
		c7.35-4.962,16.146-7.84,25.7-7.848h41.958c6.373,0,12.4,1.291,17.892,3.616c8.24,3.484,15.279,9.317,20.236,16.667
		c4.958,7.349,7.844,16.137,7.844,25.696V492.308z"/>
	<path class="st0" d="M339.695,67.297h-15.757v95.1c0,8.57-1.734,16.69-4.861,24.094c-4.693,11.09-12.552,20.563-22.433,27.236
		c-9.889,6.673-21.757,10.562-34.605,10.562h-15.034c-8.567,0-16.69-1.726-24.086-4.853c-11.103-4.698-20.571-12.553-27.248-22.438
		c-6.673-9.885-10.562-21.752-10.566-34.601V70.252h-15.752v92.145c0,10.701,2.174,20.936,6.105,30.222
		c5.899,13.953,15.738,25.79,28.127,34.158c12.38,8.376,27.368,13.276,43.42,13.268h15.034c10.701,0,20.936-2.178,30.23-6.097
		c13.945-5.911,25.786-15.742,34.158-28.123c8.372-12.389,13.272-27.376,13.268-43.428V67.297z"/>
	<rect x="276.283" y="99.743" class="st0" width="41.352" height="14.761"/>
	<polygon class="st0" points="226.952,148.475 241.725,148.475 241.725,99.743 192.985,99.743 192.985,114.504 226.952,114.504 	"/>
</g>
</svg>