<?xml version="1.0" encoding="utf-8"?>

<!DOCTYPE svg PUBLIC "-//W3C//DTD SVG 1.1//EN" "http://www.w3.org/Graphics/SVG/1.1/DTD/svg11.dtd">
<!-- Uploaded to: SVG Repo, www.svgrepo.com, Generator: SVG Repo Mixer Tools -->
<svg height="800px" width="800px" version="1.1" id="_x32_" xmlns="http://www.w3.org/2000/svg" xmlns:xlink="http://www.w3.org/1999/xlink" 
	 viewBox="0 0 512 512"  xml:space="preserve">
<style type="text/css">
	.st0{fill:#000000;}
</style>
<g>
	<path class="st0" d="M477.491,301.15c-24.809-15.352-73.726-14.912-101.959-14.912c-6.28,0-108.244,0-108.244,0
		c-23.522,0-22.822-22.386-22.822-31.322c0-8.937,31.547-31.534,31.547-31.534c10.479-10.496,12.911-26.58,5.98-39.685
		L224.466,74.784c-8.778-16.612-26.03-27.012-44.824-27.012h-65.34c-22.628,0-42.519,15-48.737,36.759l-8.866,31.004l10.434,17.882
		l-14.902,40.223l-1.203,51.196c-0.075,3.04,1.176,5.984,3.423,8.046c2.248,2.053,5.275,3.032,8.307,2.697l26.726,3.63
		c1.489,52.174-31.679,123.79-17.56,163.008h58.109l-3.987,11.281c-7.818,0-24.576,0-57.973,0
		c-84.703,0-66.407,50.729-66.407,50.729s65.363,0,85.757,0c13.912,0,19.318,0,113.196,0c0.789-0.106,1.564-0.211,2.296-0.326
		c4.997-0.802,8.412-2.071,10.726-3.675c1.556-1.067,2.71-2.274,3.728-3.904c1.348-2.169,2.419-5.218,3.142-9.422
		c0.974-5.596,1.3-13.149,1.291-22.791h10.986c-0.004,8.338-0.212,15.353-0.974,21.398c-0.767,6.029-2.062,11.194-4.539,15.608
		c-0.608,1.102-1.322,2.124-2.084,3.111c20.262,0,43.859,0,71.422,0c-0.084-1.172-0.132-2.468-0.132-3.913
		c0.004-5.076,0.639-11.73,3.164-18.842c2.516-7.069,7.011-14.587,14.467-20.923c4.966-4.248,11.215-7.932,18.913-10.752
		c10.276-3.754,23.117-5.958,39.218-5.958h40.784v-17.238h12.545v29.788l-53.329,0.008c-16.833-0.008-29.114,2.6-38.002,6.408
		c-8.893,3.843-14.445,8.796-18.173,14.013c-2.472,3.49-4.111,7.121-5.186,10.655c-1.441,4.724-1.855,9.28-1.851,12.84
		c0,1.516,0.07,2.82,0.168,3.913c52.698,0,119.008,0,202.804,0c0,0,0-59.594,0-79.212C512,352.927,510.431,321.544,477.491,301.15z"
		/>
</g>
</svg>