<?xml version="1.0" encoding="utf-8"?>

<!DOCTYPE svg PUBLIC "-//W3C//DTD SVG 1.1//EN" "http://www.w3.org/Graphics/SVG/1.1/DTD/svg11.dtd">
<!-- Uploaded to: SVG Repo, www.svgrepo.com, Generator: SVG Repo Mixer Tools -->
<svg height="800px" width="800px" version="1.1" id="_x32_" xmlns="http://www.w3.org/2000/svg" xmlns:xlink="http://www.w3.org/1999/xlink" 
	 viewBox="0 0 512 512"  xml:space="preserve">
<style type="text/css">
	.st0{fill:#000000;}
</style>
<g>
	<path class="st0" d="M323.353,235.272c0.006,0,0.006,0,0.012,0l0.19-0.024L323.353,235.272z"/>
	<path class="st0" d="M374.061,278.762c0.006-4.971-2.148-9.929-6.27-13.346l-31.626-26.24c-3.126-2.592-7.04-3.998-11.068-3.998
		c-0.569,0-1.156,0.03-1.732,0.094h-0.006c-4.62,0.463-8.862,2.764-11.768,6.382l-7.705,9.58l-4.306-25.731l-0.006-0.029
		c-1.074-5.617-4.846-10.345-10.084-12.634l-17.966-7.848c3.583-2.354,6.584-5.937,9.2-10.296c2.266-3.808,4.258-8.18,6.014-12.824
		l1.673,2.36l0.16-7.895c0.006-0.231,0.029-0.558,0.029-0.984v-0.089l-0.243-30.855l21.893-14.425l0,0l0.006-0.006l0.018-0.012
		l-0.006-0.006c1.139-0.736,1.792-1.987,1.792-3.28c0-0.522-0.107-1.056-0.32-1.554l-0.042-0.089l0.042,0.095
		c-0.635-1.466-2.058-2.378-3.606-2.378c-0.315,0-0.641,0.035-0.973,0.124l-25.801,6.441c-0.024-0.035-0.054-0.071-0.083-0.107
		l8.891-25.588c0.148-0.421,0.219-0.854,0.219-1.287c0.006-1.376-0.73-2.698-1.987-3.416l0.006,0.012
		c-0.599-0.35-1.281-0.522-1.946-0.522c-1.126,0-2.236,0.492-3.001,1.4l-17.178,20.404c-1.014-0.066-2.028-0.113-3.048-0.166
		l-5.267-28.518c-0.344-1.862-1.969-3.209-3.861-3.209c-1.886-0.006-3.512,1.347-3.855,3.209l-5.279,28.554
		c-1.495,0.083-2.996,0.166-4.49,0.279l-17.302-20.552c-0.765-0.908-1.88-1.4-3.008-1.4c-0.658,0-1.334,0.166-1.946,0.522
		l0.006-0.006c-1.251,0.712-1.981,2.034-1.981,3.41c0,0.427,0.072,0.866,0.214,1.282l8.25,23.743l-23.274-5.806h0.006
		c-0.314-0.083-0.635-0.118-0.955-0.118c-1.542,0-2.971,0.901-3.6,2.372c-0.219,0.492-0.32,1.032-0.32,1.548
		c0,1.27,0.64,2.485,1.732,3.232l-0.012,0.018c0,0,0.065,0.048,0.083,0.06l0,0l0,0c0.208,0.148,1.56,1.086,3.588,2.515
		c3.303,2.325,8.256,5.824,12.379,8.802c2.058,1.489,3.908,2.853,5.22,3.85c0.237,0.178,0.338,0.266,0.533,0.415l0.25,31.751
		l0.006,0.082l0.083,2.836l-8.63-21.976l-5.623,4.442l-22.835-79.925h8.553V57.777h-2.598h-51.116v23.684h9.241v24.461
		l12.942,12.942l12.924,68.519l-7.462,5.896c-4.3,3.404-6.59,8.476-6.59,13.612c0,3.215,0.902,6.477,2.752,9.366l14.876,23.132
		l-0.279,0.213c-4.372,3.363-6.768,8.488-6.768,13.743c0,2.278,0.463,4.585,1.394,6.779l-0.006,0.006l11.964,30.582l-13.268,13.69
		l8.547,48.975l-7.693,7.936l-5.593,83.116h-27.225V512h2.598h217.443v-67.57h-33.05l-3.879-25.754l10.44-2.604l-10.914-65.162
		l49.675-61.324l-0.012,0.018C372.803,286.413,374.061,282.564,374.061,278.762z M283.168,145.769l0.172,22.296l-17.266-24.407
		C271.804,144.061,277.51,144.754,283.168,145.769z M221.382,101.918l-0.006,0.006l-0.024-0.066L221.382,101.918z M218.695,136.724
		c-3.695-2.687-8.304-5.962-11.869-8.47l23.12,5.771l1.512-3.09l-7.823-22.509l14.573,17.308l1.334-0.107
		c2.574-0.208,5.143-0.368,7.711-0.468l2.082-0.083l4.769-25.807l4.768,25.795l2.088,0.072c2.081,0.071,4.181,0.196,6.299,0.344
		l1.311,0.089l14.431-17.135l-7.574,21.774l0.949,1.127c0.64,0.759,1.234,1.56,1.796,2.384l1.02,1.501l22.006-5.486l-16.708,10.996
		c-9.864-1.802-19.882-2.722-29.906-2.722c-10.202,0-20.398,0.961-30.434,2.823c-0.018-0.012-0.024-0.018-0.035-0.029
		C222.977,139.873,221.037,138.426,218.695,136.724z M225.486,168.249l-0.178-22.35c6.11-1.126,12.29-1.874,18.494-2.289
		L225.486,168.249z M250.511,143.302c1.358-0.03,2.716-0.095,4.074-0.095c1.625,0,3.25,0.066,4.876,0.113l23.613,33.37
		c-1.982,5.706-4.259,11.05-6.816,15.344c-2.74,4.615-5.801,7.948-8.808,9.431l1.121,2.242l-46.353-20.244l-0.546-1.382
		L250.511,143.302z M143.379,62.979h43.322v13.28h-43.322V62.979z M165.177,116.326l-12.557-12.557V81.461h25.32l23.832,83.412
		l-23.873,18.868L165.177,116.326z M352.785,506.804H143.136v-57.178h209.649V506.804z M315.209,414.779l4.461,29.651H170.366
		l5.451-80.862l28.69-29.598l-3.736-3.618l-17.848,18.417l-7.438-42.652l36.816-37.99l-3.73-3.612l-21.418,22.094l-11.116-28.417
		l-0.024-0.042c-0.67-1.56-0.99-3.185-0.996-4.804c0.006-3.683,1.684-7.272,4.738-9.626l4.07-3.126l-17.456-27.154
		c-1.305-2.029-1.927-4.294-1.927-6.548c0-3.612,1.596-7.148,4.609-9.532l40.475-31.994l8.642,22l69.243,30.244
		c3.659,1.602,6.304,4.9,7.052,8.826l31.104,185.758L315.209,414.779z M366.19,286.354l-0.018,0.018l-46.739,57.7l-14.395-85.974
		l10.605-13.185c2.035-2.539,5-4.14,8.238-4.473c0.403-0.041,0.813-0.059,1.216-0.059c2.818,0,5.564,0.978,7.746,2.793l31.632,26.24
		c2.895,2.402,4.384,5.848,4.39,9.348C368.859,281.436,367.987,284.1,366.19,286.354z"/>
	<polygon class="st0" points="232.539,416.648 237.396,418.498 267.836,338.615 262.978,336.77 	"/>
	<path class="st0" d="M151.172,56.348l2.325-4.65c-1.613-0.783-3.511-2.734-4.882-5.386c-1.394-2.64-2.295-5.92-2.29-9.218
		c0-2.52,0.51-5.047,1.685-7.396c1.174-2.349,3.001-4.55,5.789-6.448c3.736-2.538,6.198-5.148,7.794-7.663
		c2.408-3.754,2.776-7.266,3.096-9.229c0.077-0.492,0.154-0.872,0.22-1.109c0.006-0.03,0.006-0.018,0.018-0.042
		c0.048-0.006,0.036-0.012,0.113-0.012l0.362,0.012v0.006c0.409,0.03,1.073,0.208,1.862,0.6c1.382,0.682,3.138,1.98,4.893,3.748
		c2.645,2.657,5.308,6.358,7.278,10.523c1.969,4.17,3.245,8.79,3.239,13.315c0,0.297-0.006,0.594-0.018,0.896
		c-0.279,7.42-2.04,11.851-3.588,14.401c-0.778,1.281-1.518,2.088-2.017,2.562c-0.249,0.237-0.438,0.391-0.552,0.468l-0.101,0.071
		l0.813,1.317l1.844,3.156c0.302-0.172,2.396-1.488,4.443-4.864c2.058-3.369,4.051-8.755,4.354-16.922
		c0.011-0.362,0.018-0.724,0.018-1.086c-0.018-8.369-3.458-16.341-7.764-22.402c-2.159-3.037-4.544-5.6-6.94-7.51
		c-1.198-0.949-2.396-1.738-3.606-2.337c-1.216-0.593-2.444-1.003-3.724-1.115C165.568,0.012,165.301,0,165.04,0
		c-1.05,0-2.153,0.202-3.114,0.842c-0.836,0.558-1.394,1.37-1.696,2.082c-0.534,1.275-0.622,2.36-0.813,3.505
		c-0.266,1.696-0.611,3.494-1.726,5.558c-1.133,2.052-3.072,4.412-6.815,6.969c-3.476,2.354-5.949,5.273-7.515,8.422
		c-1.572,3.144-2.236,6.489-2.236,9.715c0.006,4.229,1.115,8.269,2.889,11.638C145.793,52.095,148.201,54.841,151.172,56.348z"/>
</g>
</svg>