<?xml version="1.0" encoding="utf-8"?>

<!DOCTYPE svg PUBLIC "-//W3C//DTD SVG 1.1//EN" "http://www.w3.org/Graphics/SVG/1.1/DTD/svg11.dtd">
<!-- Uploaded to: SVG Repo, www.svgrepo.com, Generator: SVG Repo Mixer Tools -->
<svg height="800px" width="800px" version="1.1" id="_x32_" xmlns="http://www.w3.org/2000/svg" xmlns:xlink="http://www.w3.org/1999/xlink" 
	 viewBox="0 0 512 512"  xml:space="preserve">
<style type="text/css">
	.st0{fill:#000000;}
</style>
<g>
	<path class="st0" d="M475.224,275.202c-14.01-8.648-28.914-21.364-42.877-36.783c-27.993-30.799-52.041-72.523-60.391-112.879
		l-3.491-16.7c-0.935-4.446-4.453-7.585-8.506-7.585c-4.046,0-7.571,3.138-8.499,7.585l-3.491,16.7
		c-6.296,30.256-21.323,61.32-40.328,87.922c-15.616,21.934-33.91,40.694-51.641,53.912c-17.73-13.217-36.024-31.978-51.64-53.912
		c-19.005-26.603-34.032-57.666-40.328-87.922l-3.491-16.7c-0.928-4.446-4.453-7.585-8.5-7.585c-4.053,0-7.571,3.138-8.506,7.585
		l-3.49,16.7c-8.35,40.356-32.398,82.08-60.391,112.879c-13.962,15.42-28.866,28.135-42.877,36.783
		C22.787,283.898,9.692,288.31,0,288.242v0.115v36.438h141.257v35.632h-7.11l-6.439,50.319h48.658l-6.439-50.319h-7.104v-35.632
		h83.768h18.815h83.768v35.632h-7.104l-6.439,50.319h48.658l-6.438-50.319h-7.11v-35.632H512v-36.438v-0.115
		C502.308,288.31,489.213,283.898,475.224,275.202z M102.61,288.358H64.573c13.082-10.112,25.98-22.476,38.038-36.6V288.358z
		 M141.257,288.358h-19.933v-61.021c7.245-10.465,13.976-21.506,19.933-33.022V288.358z M182.758,288.358h-19.934v-94.009
		c5.958,11.523,12.675,22.584,19.934,33.042V288.358z M226.624,288.358h-25.152V251.75c1.884,2.21,3.789,4.372,5.707,6.5
		c9.313,10.276,19.052,22.15,28.914,30.108C232.779,289.584,229.607,287.741,226.624,288.358z M310.528,288.358h-25.152
		c-2.982-0.616-6.154,1.227-9.469,0c9.862-7.958,19.602-19.832,28.914-30.108c1.918-2.128,3.823-4.29,5.707-6.5V288.358z
		 M349.176,288.358h-19.934V227.39c7.259-10.458,13.976-21.519,19.934-33.042V288.358z M390.676,288.358h-19.933v-94.043
		c5.958,11.516,12.688,22.557,19.933,33.022V288.358z M409.39,288.358v-36.6c12.058,14.125,24.956,26.488,38.038,36.6H409.39z"/>
</g>
</svg>