<?xml version="1.0" encoding="utf-8"?>

<!DOCTYPE svg PUBLIC "-//W3C//DTD SVG 1.1//EN" "http://www.w3.org/Graphics/SVG/1.1/DTD/svg11.dtd">
<!-- Uploaded to: SVG Repo, www.svgrepo.com, Generator: SVG Repo Mixer Tools -->
<svg version="1.1" id="_x32_" xmlns="http://www.w3.org/2000/svg" xmlns:xlink="http://www.w3.org/1999/xlink" 
	 viewBox="0 0 512 512"  xml:space="preserve">
<style type="text/css">
	.st0{fill:#000000;}
</style>
<g>
	<path class="st0" d="M326.416,189.318c9.647-31.671,3-52.064-10.607-69.498c-15.557-19.926-43.35-25.384-58.948-39.761
		c5.401-0.459,9.696-4.86,9.696-10.385c0-5.827-4.73-10.557-10.557-10.557c-5.827,0-10.557,4.73-10.557,10.557
		c0,5.524,4.295,9.926,9.696,10.385c-15.598,14.377-43.392,19.836-58.949,39.761c-13.606,17.434-20.253,37.827-10.606,69.498
		H326.416z"/>
	<path class="st0" d="M327.26,391.163V201.285H184.74v189.879h43.67V315.65h0.074c0.377-5.393,2.459-9.696,5.508-13.598
		c5.82-7.458,16.328-9.393,22.008-14.893c5.68,5.5,16.188,7.434,22.008,14.893c3.049,3.902,5.131,8.205,5.508,13.598h0.074v75.514
		H327.26z"/>
	<path class="st0" d="M256,56.478c3.402,0,6.164-2.755,6.164-6.156c0-3.402-2.762-6.164-6.164-6.164
		c-3.402,0-6.156,2.762-6.156,6.164C249.844,53.723,252.598,56.478,256,56.478z"/>
	<path class="st0" d="M10.066,391.163h44.859l-1.878-101.996h5.615v-8.5h-5.77l-0.762-41.45h6.532v-8.508h-6.688l-0.746-40.384
		h3.048v-8.5h-3.983v-14.884h3.983v-8.5h-3.72c0-9.975-8.082-18.073-18.066-18.073c-9.974,0-18.065,8.098-18.065,18.073h-3.721v8.5
		h3.983v14.884h-3.983v8.5h3.058l-0.746,40.384H6.32v8.508h6.541l-0.763,41.45H6.32v8.5h5.623L10.066,391.163z M41.794,181.826
		h-5.048v-14.884h5.048V181.826z M23.188,166.941h5.058v14.884h-5.058V166.941z"/>
	<path class="st0" d="M457.084,391.163h44.859l-1.877-101.996h5.615v-8.5h-5.77l-0.763-41.45h6.533v-8.508h-6.688l-0.746-40.384
		h3.049v-8.5h-3.983v-14.884h3.983v-8.5h-3.721c0-9.975-8.09-18.073-18.065-18.073c-9.975,0-18.065,8.098-18.065,18.073h-3.721v8.5
		h3.983v14.884h-3.983v8.5h3.049l-0.746,40.384h-6.688v8.508h6.533l-0.763,41.45h-5.77v8.5h5.615L457.084,391.163z M488.812,181.826
		h-5.05v-14.884h5.05V181.826z M470.206,166.941h5.057v14.884h-5.057V166.941z"/>
	<path class="st0" d="M110.776,391.163h17.228v-24.884h0.033c0.172-2.418,1.107-4.353,2.475-6.107
		c2.615-3.352,7.336-4.212,9.886-6.688c2.557,2.475,7.27,3.336,9.884,6.688c1.369,1.754,2.303,3.689,2.475,6.107h0.033v24.884
		h20.156V251.561h-0.057v-12.884h3.778c4.967-16.311,1.541-26.819-5.467-35.794c-8.147-10.442-22.852-13.138-30.802-20.844
		c-7.951,7.705-22.655,10.402-30.802,20.844c-7.008,8.976-10.434,19.483-5.468,35.794h3.655v14.983L86.58,268.561v122.602h21.262
		H110.776z M152.79,324.666h-24.786v-24.885h0.033c0.172-2.417,1.107-4.36,2.475-6.106c2.615-3.344,7.336-4.214,9.886-6.688
		c2.557,2.475,7.27,3.344,9.884,6.688c1.369,1.746,2.303,3.689,2.475,6.106h0.033V324.666z M160.577,251.561h-14.082v-12.884h14.082
		V251.561z M134.176,238.677v12.884h-14.074v-12.884H134.176z"/>
	<path class="st0" d="M339.112,238.677v12.884h-0.058v139.602h20.156v-24.884h0.033c0.172-2.418,1.106-4.353,2.475-6.107
		c2.614-3.352,7.328-4.212,9.885-6.688c2.549,2.475,7.27,3.336,9.885,6.688c1.369,1.754,2.303,3.689,2.475,6.107h0.033v24.884
		h17.228h2.935h21.262V268.561l-21.204-14.901v-14.983h3.655c4.967-16.311,1.541-26.819-5.467-35.794
		c-8.147-10.442-22.852-13.138-30.802-20.844c-7.951,7.705-22.656,10.402-30.803,20.844c-7.008,8.976-10.434,19.483-5.466,35.794
		H339.112z M351.424,251.561v-12.884h14.081v12.884H351.424z M383.996,324.666H359.21v-24.885h0.033
		c0.172-2.417,1.106-4.36,2.475-6.106c2.614-3.344,7.328-4.214,9.885-6.688c2.549,2.475,7.27,3.344,9.885,6.688
		c1.369,1.746,2.303,3.689,2.475,6.106h0.033V324.666z M391.897,251.561h-14.073v-12.884h14.073V251.561z"/>
	<rect y="397.467" class="st0" width="512" height="70.375"/>
</g>
</svg>