<?xml version="1.0" encoding="utf-8"?>

<!DOCTYPE svg PUBLIC "-//W3C//DTD SVG 1.1//EN" "http://www.w3.org/Graphics/SVG/1.1/DTD/svg11.dtd">
<!-- Uploaded to: SVG Repo, www.svgrepo.com, Generator: SVG Repo Mixer Tools -->
<svg height="800px" width="800px" version="1.1" id="_x32_" xmlns="http://www.w3.org/2000/svg" xmlns:xlink="http://www.w3.org/1999/xlink" 
	 viewBox="0 0 512 512"  xml:space="preserve">
<style type="text/css">
	.st0{fill:#000000;}
</style>
<g>
	<path class="st0" d="M199.026,94.818c-0.38,0-0.76,0.104-1.098,0.302c-13.821,8.287-27.298,17.532-40.056,27.464
		c-0.568,0.448-0.875,1.145-0.812,1.864c0.058,0.718,0.479,1.353,1.114,1.696c14.018,7.559,27.781,16.168,40.899,25.601
		c0.375,0.271,0.807,0.406,1.244,0.406c0.511,0,1.015-0.188,1.416-0.542c12.706-11.316,25.996-21.842,39.504-31.306
		c0.588-0.417,0.932-1.093,0.905-1.822c-0.02-0.718-0.405-1.374-1.02-1.749c-13.393-8.162-27.266-15.47-41.222-21.728
		C199.62,94.88,199.323,94.818,199.026,94.818z"/>
	<path class="st0" d="M161.219,68.968c12.27,3.716,24.367,8.079,35.971,12.982c0.265,0.105,0.546,0.168,0.827,0.168
		c0.37,0,0.733-0.094,1.062-0.282c10.916-6.278,22.608-12.254,34.742-17.782c0.791-0.354,1.286-1.166,1.244-2.041
		c-0.042-0.874-0.609-1.624-1.437-1.916c-7.553-2.592-15.402-4.986-24.335-7.288c-15.934,2.593-32.128,6.663-48.14,12.098
		c-0.874,0.302-1.457,1.125-1.448,2.051C159.72,67.885,160.334,68.697,161.219,68.968z"/>
	<path class="st0" d="M253.84,125.28c-0.416,0-0.833,0.125-1.197,0.365c-14.263,9.672-28.187,20.457-41.383,32.044
		c-0.479,0.417-0.744,1.031-0.724,1.666c0.016,0.634,0.318,1.228,0.823,1.624l3.102,2.394
		c12.909,10.245,25.376,21.405,38.115,34.117c0.416,0.417,0.957,0.625,1.504,0.625c0.546,0,1.093-0.208,1.51-0.625l2.519-2.55
		c12.374-12.233,25.341-23.674,38.546-34.023c0.5-0.386,0.796-0.99,0.812-1.625c0.021-0.635-0.25-1.239-0.729-1.656
		c-13.242-11.555-27.277-22.31-41.712-31.992C254.668,125.405,254.257,125.28,253.84,125.28z"/>
	<path class="st0" d="M307.686,152.079c0.437,0,0.874-0.136,1.249-0.406c13.352-9.672,27.001-18.334,40.582-25.736
		c0.635-0.344,1.047-0.99,1.103-1.707c0.058-0.719-0.249-1.417-0.822-1.854c-12.717-9.796-26.345-19.021-40.514-27.402
		c-0.333-0.197-0.713-0.302-1.088-0.302c-0.303,0-0.604,0.063-0.886,0.197c-13.653,6.216-27.365,13.555-40.742,21.811
		c-0.615,0.375-0.994,1.031-1.01,1.75c-0.02,0.729,0.323,1.405,0.912,1.811c13.617,9.454,27.006,19.98,39.806,31.296
		C306.676,151.901,307.18,152.079,307.686,152.079z"/>
	<path class="st0" d="M146.358,132.527c-0.495,0-0.984,0.177-1.38,0.51c-9.126,7.735-17.932,15.897-26.178,24.258
		c-34.996,35.532-52.575,66.682-57.13,75.386c-0.473,0.906-0.239,2.02,0.558,2.654c13.508,10.818,27.922,20.5,42.846,28.776
		c0.328,0.188,0.682,0.271,1.036,0.271c0.702,0,1.39-0.354,1.796-0.988c24.606-38.552,52.356-72.648,82.47-101.319
		c0.462-0.438,0.702-1.062,0.661-1.697c-0.047-0.636-0.38-1.218-0.901-1.583c-13.774-9.733-28.171-18.489-42.799-26.027
		C147.024,132.61,146.69,132.527,146.358,132.527z"/>
	<path class="st0" d="M176.966,292.553c0.072,0.011,0.15,0.021,0.229,0.021c0.869,0,2.129-1,2.597-1.666
		c6.268-8.964,13.962-19.957,23.133-32.149c13.941-18.542,27.74-35.043,42.206-50.451c0.787-0.834,0.765-2.156-0.047-2.967
		l-1.634-1.656c-13.014-12.869-26.766-24.882-40.868-35.71c-0.38-0.302-0.838-0.448-1.296-0.448c-0.526,0-1.051,0.197-1.462,0.583
		c-29.942,28.182-57.541,61.83-82.028,100.017c-0.328,0.52-0.422,1.145-0.255,1.728c0.161,0.583,0.567,1.072,1.114,1.343
		C137.237,280.279,156.856,287.462,176.966,292.553z"/>
	<path class="st0" d="M255.996,302.152c20.457-0.011,40.587-1.833,59.837-5.414c0.713-0.125,1.311-0.614,1.582-1.291
		c0.276-0.666,0.188-1.437-0.229-2.03c-5.601-7.976-12.092-17.127-19.594-27.11c-13.934-18.521-27.641-34.888-41.899-50.025
		c-0.401-0.426-0.963-0.677-1.551-0.677c0,0,0,0-0.005,0c-0.588,0-1.15,0.251-1.551,0.677
		c-14.081,15.044-27.48,31.077-40.966,49.015c-7.636,10.15-14.211,19.437-19.875,27.515c-0.417,0.594-0.506,1.354-0.235,2.031
		c0.271,0.666,0.859,1.156,1.567,1.291C213.362,300.111,234.533,302.141,255.996,302.152z"/>
	<path class="st0" d="M329.767,292.417c0.406,0.583,1.062,0.917,1.75,0.917c0.166,0,0.332-0.022,0.499-0.063
		c20.234-4.893,39.973-11.889,58.676-20.801c0.552-0.26,0.969-0.75,1.135-1.342c0.166-0.583,0.072-1.219-0.255-1.729
		c-24.877-38.843-52.93-72.96-83.386-101.413c-0.266-0.239-0.661-0.343-1.104-0.343c-0.843,0-1.848,0.364-2.39,0.781l-3.186,2.467
		c-12.972,10.296-25.886,21.894-38.38,34.46c-0.812,0.812-0.832,2.124-0.042,2.968c14.857,15.73,28.989,32.564,43.21,51.45
		c9.276,12.347,17.058,23.477,23.368,32.504L329.767,292.417z"/>
	<path class="st0" d="M403.32,265.734c0.343,0,0.692-0.083,1.015-0.26c15.179-8.225,29.671-17.73,43.08-28.255
		c0.812-0.636,0.802-2.27,0.318-3.176c-0.515-0.988-1.306-2.478-2.4-4.414c-2.16-3.842-5.481-9.464-10.052-16.356
		c-8.312-12.566-22.523-31.972-42.997-53.054c-9.094-9.348-19.047-18.583-29.578-27.443c-0.395-0.323-0.885-0.5-1.374-0.5
		c-0.338,0-0.677,0.084-0.984,0.24c-14.476,7.548-28.781,16.334-42.518,26.11c-0.521,0.375-0.848,0.958-0.895,1.593
		c-0.042,0.636,0.202,1.26,0.666,1.697c30.676,28.994,58.911,63.6,83.922,102.829C401.925,265.381,402.618,265.734,403.32,265.734z"
		/>
	<path class="st0" d="M374.055,126.81c-0.099,0.718,0.172,1.437,0.719,1.916c8.792,7.622,17.308,15.67,25.309,23.914
		c32.441,33.388,50.014,62.914,56.063,74.064c0.307,0.562,0.854,0.957,1.488,1.071c0.13,0.032,0.26,0.043,0.386,0.043
		c0.504,0,1.004-0.188,1.394-0.521c2.827-2.436,5.466-4.778,7.694-6.819c7.043-6.414,12.821-15.252,16.704-25.57
		c3.191-8.411,5.085-18.126,5.076-25.986c0-2.03-0.135-3.8-0.614-6.059c-0.964-1.614-2.004-3.279-3.217-5.028
		c-4.008-5.892-9.308-12.378-15.309-18.75c-10.578-11.254-23.779-22.644-38.172-32.94c-0.364-0.26-0.796-0.396-1.239-0.396
		c-0.177,0-0.354,0.02-0.531,0.072c-18.678,4.789-37.022,11.306-54.528,19.354C374.617,125.478,374.16,126.093,374.055,126.81z"/>
	<path class="st0" d="M323.281,89.362c-0.072,0.802,0.307,1.572,0.989,1.999c13.128,8.257,25.818,17.262,37.718,26.778
		c0.386,0.312,0.859,0.468,1.332,0.468c0.318,0,0.636-0.072,0.933-0.218c16.266-7.891,33.095-14.482,50.018-19.572
		c0.802-0.24,1.39-0.927,1.5-1.76c0.109-0.832-0.276-1.654-0.989-2.093c-13.414-8.308-27.667-15.688-42.372-21.936
		c-0.266-0.114-0.547-0.177-0.833-0.177c-0.167,0-0.334,0.021-0.494,0.063c-15.59,3.727-31.222,8.662-46.459,14.659
		C323.875,87.874,323.354,88.561,323.281,89.362z"/>
	<path class="st0" d="M272.913,63.95c12.472,5.59,24.33,11.555,35.251,17.74c0.328,0.188,0.688,0.282,1.052,0.282
		c0.286,0,0.572-0.063,0.843-0.177c12.295-5.278,25.08-9.942,37.994-13.857c0.89-0.271,1.504-1.083,1.515-2.02
		c0.011-0.926-0.588-1.759-1.468-2.051c-16.1-5.268-32.795-9.202-50.514-11.629c-8.24,2.343-16.486,4.956-24.502,7.757
		c-0.823,0.28-1.39,1.04-1.426,1.916C271.622,62.783,272.117,63.596,272.913,63.95z"/>
	<path class="st0" d="M293.048,85.853c-12.348-6.558-25.44-12.638-38.901-18.062c-0.255-0.104-0.526-0.156-0.796-0.156
		c-0.276,0-0.551,0.051-0.812,0.166c-13.086,5.372-25.99,11.473-38.353,18.126c-0.708,0.374-1.14,1.114-1.119,1.916
		c0.016,0.802,0.478,1.53,1.197,1.874c13.19,6.392,26.105,13.576,38.385,21.373c0.348,0.218,0.744,0.334,1.14,0.334
		c0.401,0,0.802-0.115,1.15-0.343c12.108-7.768,24.909-14.971,38.053-21.426c0.718-0.354,1.176-1.083,1.192-1.885
		C294.193,86.967,293.756,86.229,293.048,85.853z"/>
	<path class="st0" d="M247.052,53.382l5.549,2.042c0.245,0.093,0.505,0.145,0.76,0.145c0.266,0,0.531-0.052,0.786-0.156l5.684-2.197
		c0.958-0.364,1.526-1.364,1.343-2.373c-0.177-1.01-1.051-1.749-2.077-1.76l-3.008-0.062c-1.989,0-3.946,0.072-5.904,0.145
		l-2.456,0.084c-1.02,0.031-1.88,0.78-2.04,1.79C245.521,52.049,246.095,53.028,247.052,53.382z"/>
	<path class="st0" d="M95.797,100.107c16.101,4.883,32.107,11.118,47.578,18.531c0.291,0.135,0.609,0.209,0.921,0.209
		c0.478,0,0.953-0.167,1.338-0.479c11.755-9.464,24.321-18.47,37.349-26.767c0.677-0.437,1.058-1.208,0.979-2.009
		c-0.083-0.802-0.604-1.488-1.353-1.78c-14.514-5.601-29.339-10.244-44.07-13.784c-0.166-0.042-0.334-0.063-0.5-0.063
		c-0.291,0-0.583,0.063-0.854,0.177c-14.695,6.414-28.796,13.857-41.904,22.124c-0.708,0.448-1.088,1.26-0.978,2.082
		C94.417,99.179,95,99.867,95.797,100.107z"/>
	<path class="st0" d="M44.882,220.489l5.404,4.85c0.396,0.354,0.9,0.542,1.416,0.542c0.119,0,0.239-0.011,0.364-0.031
		c0.634-0.115,1.192-0.511,1.504-1.072c6.074-11.056,23.653-40.301,55.558-73.147c7.449-7.663,15.45-15.263,23.788-22.571
		c0.547-0.479,0.812-1.197,0.704-1.916c-0.104-0.718-0.568-1.332-1.229-1.634c-16.678-7.558-34.117-13.743-51.825-18.365
		c-0.177-0.052-0.354-0.072-0.536-0.072c-0.448,0-0.885,0.146-1.255,0.406c-7.506,5.466-14.356,10.91-20.358,16.188
		c-12.853,11.296-23.972,23.425-31.301,34.158c-1.327,1.926-2.447,3.738-3.738,6.298c-0.161,1.374-0.286,2.988-0.275,4.79
		c-0.021,7.85,1.869,17.562,5.065,25.986C32.045,205.205,37.828,214.054,44.882,220.489z"/>
	<path class="st0" d="M26.725,262.955c15.773,14.398,41.056,35.678,78.322,54.198c46.079,22.873,96.863,34.482,150.948,34.492
		c54.074-0.01,104.858-11.608,150.947-34.492c41.628-20.697,69.239-45.912,78.311-54.198c6.211-5.664,11.421-12.868,15.487-21.415
		c1.551-3.238,2.816-6.549,3.992-10.807c-1.067-7.725-2.248-15.502-3.566-22.977l-0.348-1.978c-0.161-0.926-0.91-1.635-1.842-1.749
		c-0.088-0.011-0.177-0.02-0.261-0.02c-0.838,0-1.608,0.499-1.952,1.27c-4.726,10.744-11.092,19.812-18.911,26.964
		c-8.781,8.016-35.496,32.409-75.77,52.419c-22.92,11.389-47.36,19.989-73.45,25.934c-0.145-0.031-0.291-0.052-0.437-0.052
		c-0.15,0-0.296,0.022-0.448,0.052c-23.096,4.955-47.192,7.475-71.887,7.475c-25.502,0-50.608-2.738-74.616-8.152
		c-0.103-0.02-0.208-0.031-0.316-0.031c-0.099-0.052-0.188-0.083-0.251-0.104c-24.679-5.59-48.488-14.044-70.768-25.121
		c-40.332-20.041-67.004-44.413-75.771-52.419c-7.802-7.132-14.169-16.199-18.911-26.954c-0.343-0.781-1.114-1.271-1.952-1.271
		c-0.083,0-0.166,0.011-0.255,0.022c-0.932,0.103-1.677,0.812-1.843,1.738c-1.452,8.12-2.759,16.626-3.837,26.069
		c1.323,3.924,2.838,7.61,4.503,10.952C15.82,250.794,20.828,257.573,26.725,262.955z"/>
	<path class="st0" d="M511.87,324.837l-0.65-8.4c-0.437-5.33-1.083-38.5-1.968-47.35l-0.348-3.352
		c-0.088-0.864-0.697-1.592-1.535-1.832c-0.193-0.052-0.391-0.083-0.583-0.083c-0.651,0-1.275,0.302-1.686,0.833
		c-3.144,4.071-6.038,7.267-9.099,10.068c-22.764,20.78-48.177,39.926-81.976,56.708c-48.244,23.976-101.386,36.137-158.09,36.137
		c-56.583,0-109.732-12.161-157.976-36.137c-43.579-21.654-72.47-48.037-81.964-56.708c-3.082-2.811-6.054-6.091-9.099-10.027
		c-0.411-0.531-1.036-0.832-1.686-0.832c-0.193,0-0.391,0.031-0.583,0.083c-0.838,0.24-1.448,0.968-1.536,1.832
		c-1.681,16.376-2.988,59.478-2.988,59.478c-0.062,0.562-0.098,1.186-0.098,1.874c-0.036,3.873,1.202,9.11,3.393,14.357
		c2.41,5.809,6.049,12.024,10.52,17.958c1.344,1.812,4.487,5.352,9.298,9.808c4.877,4.549,10.89,9.609,17.386,14.638
		c11.186,8.662,29.671,21.758,54.22,35.023c37.177,20.103,95.073,44.068,159.793,44.068h0.135c35.751,0,73.261-7.266,111.491-21.582
		c37.776-14.137,68.145-32.18,86.973-44.819c13.691-9.172,26.304-18.895,35.516-27.37c4.91-4.508,8.053-8.005,9.339-9.755
		c4.467-5.914,8.11-12.129,10.53-17.959c2.187-5.226,3.426-10.462,3.404-14.346C512,326.44,511.964,325.815,511.87,324.837z"/>
</g>
</svg>