<?xml version="1.0" encoding="utf-8"?>

<!DOCTYPE svg PUBLIC "-//W3C//DTD SVG 1.1//EN" "http://www.w3.org/Graphics/SVG/1.1/DTD/svg11.dtd">
<!-- Uploaded to: SVG Repo, www.svgrepo.com, Generator: SVG Repo Mixer Tools -->
<svg height="800px" width="800px" version="1.1" id="_x32_" xmlns="http://www.w3.org/2000/svg" xmlns:xlink="http://www.w3.org/1999/xlink" 
	 viewBox="0 0 512 512"  xml:space="preserve">
<style type="text/css">
	.st0{fill:#000000;}
</style>
<g>
	<polygon class="st0" points="168.385,161.59 162.39,161.59 162.39,156.007 153.709,126.301 144.729,150.416 130.955,102.005 
		117.176,150.416 108.196,126.301 99.514,156.007 99.514,161.59 93.526,161.59 93.526,180.215 168.385,180.215 	"/>
	<polygon class="st0" points="418.474,161.59 412.485,161.59 412.485,156.007 403.804,126.301 394.825,150.416 381.044,102.005 
		367.276,150.416 358.291,126.301 349.61,156.007 349.61,161.59 343.615,161.59 343.615,180.215 418.474,180.215 	"/>
	<path class="st0" d="M492.449,357.852v-29.276c10.615,6.156,17.692,8.799,17.692,8.799v-19.588c0,0-53.635-21.802-84.404-87.164
		v-42.217h-7.263h-74.859h-7.263v39.108H175.648v-39.108h-7.263H93.526h-7.263v42.217c-30.77,65.362-84.404,87.164-84.404,87.164
		v19.588c0,0,7.077-2.643,17.692-8.799v29.276H0v18.624h86.263v33.518h89.384V369.4l64.492-48.28l-5.086-13.326l-59.406,30.452
		v-79.08h160.705v79.08l-59.405-30.452l-5.087,13.326l64.492,48.28v40.594h89.384v-33.518H512v-18.624H492.449z M51.209,357.852
		H28.86v-35.059c6.84-4.54,14.483-10.236,22.349-17.275V357.852z M86.263,357.852H60.518V296.6
		c8.905-9.104,17.766-19.924,25.745-32.759V357.852z M136.844,364.233h-14.862V332.86h14.862V364.233z M136.844,306.905h-14.862
		v-31.372h14.862V306.905z M136.844,249.576h-14.862v-31.378h14.862V249.576z M390.018,364.233h-14.862V332.86h14.862V364.233z
		 M390.018,306.905h-14.862v-31.372h14.862V306.905z M390.018,249.576h-14.862v-31.378h14.862V249.576z M451.482,357.852h-25.745
		v-94.011c7.978,12.835,16.84,23.655,25.745,32.759V357.852z M483.14,357.852h-22.349v-52.334
		c7.866,7.04,15.508,12.736,22.349,17.275V357.852z"/>
</g>
</svg>