<?xml version="1.0" encoding="utf-8"?>

<!DOCTYPE svg PUBLIC "-//W3C//DTD SVG 1.1//EN" "http://www.w3.org/Graphics/SVG/1.1/DTD/svg11.dtd">
<!-- Uploaded to: SVG Repo, www.svgrepo.com, Generator: SVG Repo Mixer Tools -->
<svg height="800px" width="800px" version="1.1" id="_x32_" xmlns="http://www.w3.org/2000/svg" xmlns:xlink="http://www.w3.org/1999/xlink" 
	 viewBox="0 0 512 512"  xml:space="preserve">
<style type="text/css">
	.st0{fill:#000000;}
</style>
<g>
	<path class="st0" d="M463.876,326.909l-48.501-34.192l-5.739-4.046V169.47l5.761,4.054l29.743,20.963l21.333-42.105l-51.076-35.988
		L255.993,4.083L96.598,116.395l-51.04,35.988l21.328,42.052l29.712-20.91l5.761-4.063V288.69l-5.779,4.071l-48.501,34.192
		L0,360.826l21.327,42.043l26.752-18.839l10.366-7.317v131.204h395.141v-131.15l10.29,7.263l26.791,18.892L512,360.826
		L463.876,326.909z M128.701,150.907l127.292-89.694l127.301,89.694v119.21L255.98,180.449l-127.278,89.677V150.907z
		 M427.243,481.575H290.141v-89.624H221.89v89.624H84.787V358.151l11.793-8.313l159.4-112.268l159.395,112.268l11.868,8.356V481.575
		z"/>
</g>
</svg>