<?xml version="1.0" encoding="utf-8"?>

<!DOCTYPE svg PUBLIC "-//W3C//DTD SVG 1.1//EN" "http://www.w3.org/Graphics/SVG/1.1/DTD/svg11.dtd">
<!-- Uploaded to: SVG Repo, www.svgrepo.com, Generator: SVG Repo Mixer Tools -->
<svg height="800px" width="800px" version="1.1" id="_x32_" xmlns="http://www.w3.org/2000/svg" xmlns:xlink="http://www.w3.org/1999/xlink" 
	 viewBox="0 0 512 512"  xml:space="preserve">
<style type="text/css">
	.st0{fill:#000000;}
</style>
<g>
	<path class="st0" d="M487.936,316.151l-27.71-77.218c-5.112-14.258-17.159-24.91-31.929-28.244l-4.86-1.098
		c-0.313-0.069-0.626-0.138-0.939-0.206l-126.794-25.772c-6.584-1.335-13.381-1.16-19.89,0.519l-50.102,12.932
		c-6.554,1.694-13.412,1.854-20.043,0.481l-11.841-2.45c-6.431-1.335-13.076-1.213-19.455,0.336l-89.776,21.836
		c-13.802,3.365-25.155,13.13-30.526,26.284l-29.678,72.602H0v13.123h512v-13.123H487.936z M83.742,300.556l-5.18,15.595h-25.2
		l8.598-18.875l33.005-41.024l21.782-7.385L83.742,300.556z M209.803,275.944l-18.478,29.541l-1.945,10.666h-60.037l5.882-21.332
		l12.535-11.49l17.815-38.56l40.924-14.77l-14.519,21.332l-17.815,44.304l27.054-27.078l13.206-27.077l9.232-6.561L209.803,275.944z
		 M333.218,246.402l-23.766,47.593v22.156h-40.17l10.483-25.436l24.414-41.024l35.637-19.692L333.218,246.402z M397.71,316.151
		l-6.409-27.901l3.952-36.102l13.2,29.541l13.313,34.462H397.71z"/>
</g>
</svg>