<?xml version="1.0" encoding="utf-8"?>

<!DOCTYPE svg PUBLIC "-//W3C//DTD SVG 1.1//EN" "http://www.w3.org/Graphics/SVG/1.1/DTD/svg11.dtd">
<!-- Uploaded to: SVG Repo, www.svgrepo.com, Generator: SVG Repo Mixer Tools -->
<svg height="800px" width="800px" version="1.1" id="_x32_" xmlns="http://www.w3.org/2000/svg" xmlns:xlink="http://www.w3.org/1999/xlink" 
	 viewBox="0 0 512 512"  xml:space="preserve">
<style type="text/css">
	.st0{fill:#000000;}
</style>
<g>
	<path class="st0" d="M494.612,320.073l-37.949-105.768l-32.371-7.309l-138.75-28.199l-69.947,18.052l-31.64-6.562L58.137,220.889
		l-40.55,99.184H0v13.13h12.222h9.484H499.32H512v-13.13H494.612z M421.766,320.065l-13.313-34.455l-13.199-29.534l-3.952,36.103
		l6.401,27.886l-88.25,0.007v-23.796l23.766-47.585l6.592-16.411l-35.63,19.692l-24.414,41.024l-11.154,27.077h-79.385l2.091-11.482
		l18.486-29.541l13.855-41.024l-9.239,6.561l-13.2,27.077l-27.054,27.078l17.815-44.304l14.519-21.332l-40.925,14.77l-17.814,38.56
		l-12.536,11.49l-6.112,22.148h-51.11l5.738-17.228l32.998-51.69l-21.775,7.386l-33.005,41.023l-9.346,20.508H31.19l35.919-87.899
		l117.052-28.466l31.732,6.569l69.97-18.051l135.805,27.604l25.711,5.813l33.883,94.423H421.766z"/>
</g>
</svg>