<?xml version="1.0" encoding="utf-8"?>

<!DOCTYPE svg PUBLIC "-//W3C//DTD SVG 1.1//EN" "http://www.w3.org/Graphics/SVG/1.1/DTD/svg11.dtd">
<!-- Uploaded to: SVG Repo, www.svgrepo.com, Generator: SVG Repo Mixer Tools -->
<svg height="800px" width="800px" version="1.1" id="_x32_" xmlns="http://www.w3.org/2000/svg" xmlns:xlink="http://www.w3.org/1999/xlink" 
	 viewBox="0 0 512 512"  xml:space="preserve">
<style type="text/css">
	.st0{fill:#000000;}
</style>
<g>
	<path class="st0" d="M245.101,73.02h21.798c6.77,0,12.262-5.484,12.262-12.255V38.42c0-1.618-0.323-3.22-0.94-4.714L267.315,7.54
		C265.405,2.973,260.945,0,256,0c-4.945,0-9.405,2.973-11.315,7.54l-10.9,26.165c-0.624,1.495-0.94,3.097-0.94,4.714v22.345
		C232.846,67.536,238.33,73.02,245.101,73.02z"/>
	<path class="st0" d="M286.771,129.494c1.879-1.548,3.112-3.867,3.112-6.502c0-4.652-3.775-8.426-8.427-8.426h-1.371V96.604h1.371
		c4.652,0,8.427-3.766,8.427-8.426c0-4.66-3.775-8.434-8.427-8.434h-50.898c-4.668,0-8.45,3.775-8.45,8.434
		c0,4.66,3.782,8.426,8.45,8.426h1.363v17.962h-1.363c-4.668,0-8.45,3.774-8.45,8.426c0,2.634,1.232,4.953,3.12,6.502
		c-59.417,12.648-105.44,61.181-114.583,121.822h290.715C392.211,190.675,346.188,142.142,286.771,129.494z"/>
	<path class="st0" d="M428.367,444.064h-10.021v-50.459c5.46-3.897,9.05-10.244,9.05-17.462c0-11.869-9.62-21.49-21.482-21.49
		h-8.558v-42.371c12.286-0.247,22.183-10.245,22.183-22.592c0-10.367-7.009-19.009-16.514-21.698H108.975
		c-9.504,2.689-16.514,11.331-16.514,21.698c0,12.347,9.898,22.345,22.191,22.592v42.371h-8.566
		c-11.862,0-21.482,9.621-21.482,21.49c0,7.218,3.59,13.557,9.05,17.454v50.467H83.641c-13.641,0-24.702,11.06-24.702,24.702V512
		h394.12v-43.234C453.06,455.124,442,444.064,428.367,444.064z M152.193,444.064h-26.542v-46.446h26.542V444.064z M177.273,354.653
		h-30.424v-42.317h30.424V354.653z M210.733,444.064H184.19v-46.446h26.543V444.064z M239.901,354.653h-30.432v-42.317h30.432
		V354.653z M269.271,444.064h-26.543v-46.446h26.543V444.064z M272.105,312.336h30.426v42.317h-30.426V312.336z M327.81,444.064
		h-26.543v-46.446h26.543V444.064z M334.727,312.336h30.424v42.317h-30.424V312.336z M386.341,444.064h-26.534v-46.446h26.534
		V444.064z"/>
</g>
</svg>