<?xml version="1.0" encoding="utf-8"?>

<!DOCTYPE svg PUBLIC "-//W3C//DTD SVG 1.1//EN" "http://www.w3.org/Graphics/SVG/1.1/DTD/svg11.dtd">
<!-- Uploaded to: SVG Repo, www.svgrepo.com, Generator: SVG Repo Mixer Tools -->
<svg version="1.1" id="_x32_" xmlns="http://www.w3.org/2000/svg" xmlns:xlink="http://www.w3.org/1999/xlink" 
	 viewBox="0 0 512 512"  xml:space="preserve">
<style type="text/css">
	.st0{fill:#000000;}
</style>
<g>
	<rect x="229.346" y="160.58" class="st0" width="53.309" height="76.082"/>
	<path class="st0" d="M256.077,0L74.43,158.612V512h2.829h17.954H437.57V158.567L256.077,0z M105.911,315.481h1.491l31.805,31.796
		l-33.296,33.288V315.481z M330.999,315.481h45.731l-22.827,22.904L330.999,315.481z M396.405,398.749l-42.503,42.418L311.4,398.749
		l42.503-42.502L396.405,398.749z M344.925,347.277l-42.487,42.495l-42.503-42.495l31.788-31.796h21.413L344.925,347.277z
		 M251.035,338.3l-22.904-22.819h45.731L251.035,338.3z M242.073,347.277l-42.502,42.495l-42.503-42.495l31.788-31.796h21.413
		L242.073,347.277z M148.167,338.384l-22.903-22.904h45.73L148.167,338.384z M105.911,398.434l42.256-42.187l42.426,42.418
		l-42.502,42.503l-42.18-42.188V398.434z M105.911,480.519V416.85l33.218,33.287l-30.39,30.382H105.911z M126.693,480.519
		l21.398-21.405l21.412,21.405H126.693z M212.944,479.335l-1.184,1.184h-24.318l-30.374-30.382l42.503-42.495l13.373,13.381V479.335
		z M212.944,403.153l-4.412-4.404l4.412-4.488V403.153z M214.358,392.846l36.677-36.599l36.6,36.599H214.358z M298.964,480.519
		v-69.334l3.474-3.544l42.487,42.495l-30.374,30.382H298.964z M332.49,480.519l21.413-21.405l21.413,21.405H332.49z
		 M406.089,480.519h-12.835l-30.375-30.382l42.503-42.418l0.707,0.707V480.519z M406.089,388.988l-0.799,0.784l-42.488-42.495
		l31.865-31.796h11.421V388.988z M406.089,302.807h-87.757h-13.926h-3.935h-13.942h-71.063h-13.927h-3.935h-13.942h-77.75V189.318
		L256.077,59.012l150.012,130.305V302.807z"/>
</g>
</svg>