<?xml version="1.0" encoding="utf-8"?>

<!DOCTYPE svg PUBLIC "-//W3C//DTD SVG 1.1//EN" "http://www.w3.org/Graphics/SVG/1.1/DTD/svg11.dtd">
<!-- Uploaded to: SVG Repo, www.svgrepo.com, Generator: SVG Repo Mixer Tools -->
<svg height="800px" width="800px" version="1.1" id="_x32_" xmlns="http://www.w3.org/2000/svg" xmlns:xlink="http://www.w3.org/1999/xlink" 
	 viewBox="0 0 512 512"  xml:space="preserve">
<style type="text/css">
	.st0{fill:#000000;}
</style>
<g>
	<path class="st0" d="M402.377,457.962L239.115,338.458l45.834-62.624l-24.15-17.671L120.423,449.958l-3.539,31.634h-15.503V512
		h12.102h256.471h38.466h12.102v-30.408h-15.503L402.377,457.962z M286.948,481.592h-51.985v-64.624h51.985V481.592z"/>
	<path class="st0" d="M276.255,254.449l25.644,18.766l-45.834,62.624L418.018,454.37l57.684-78.817L288.051,238.211
		C285.968,244.821,281.763,250.489,276.255,254.449z M284.114,331.496l13.71-18.734l35.984,26.348l-13.703,18.728L284.114,331.496z
		 M329.819,364.945l13.71-18.728l38.688,28.317l-13.71,18.728L329.819,364.945z M413.675,426.321l-35.448-25.942l13.703-18.736
		l35.456,25.95L413.675,426.321z M447.653,379.896l-13.159,17.977l-35.449-25.95l13.16-17.977L447.653,379.896z M402.484,346.838
		l-13.151,17.977l-38.688-28.318l13.151-17.977L402.484,346.838z M318.092,285.072l35.992,26.341l-13.159,17.977l-35.992-26.341
		L318.092,285.072z"/>
	<path class="st0" d="M245.809,258.102c-6.411-2.604-11.758-7.238-15.281-13.106l-20.558,28.088l-62.616-45.835L28.815,389.203
		l78.816,57.684L245.809,258.102z M136.347,373.669l-17.977-13.152l28.317-38.696l17.977,13.168L136.347,373.669z M198.121,289.276
		l-26.341,35.992l-17.977-13.159l26.341-35.992L198.121,289.276z M151.697,255.299l18.728,13.71l-26.341,35.985l-18.728-13.702
		L151.697,255.299z M118.24,301.003l18.728,13.711l-28.31,38.688l-18.736-13.71L118.24,301.003z M56.864,384.86l25.95-35.449
		l18.728,13.711l-25.95,35.448L56.864,384.86z M85.311,405.678l25.95-35.448l17.977,13.16l-25.95,35.448L85.311,405.678z"/>
	<path class="st0" d="M239.505,202.678l-29.397-21.523l45.826-62.616L93.99,0L36.298,78.816l191.258,139.986
		C229.709,212.214,233.952,206.585,239.505,202.678z M227.886,122.882l-13.703,18.728l-35.992-26.341l13.711-18.735L227.886,122.882
		z M182.181,89.425l-13.71,18.728l-38.689-28.318l13.711-18.728L182.181,89.425z M98.333,28.049l35.448,25.943l-13.71,18.735
		l-35.449-25.95L98.333,28.049z M64.347,74.473l13.159-17.977l35.448,25.95l-13.159,17.977L64.347,74.473z M109.516,107.532
		l13.159-17.977l38.688,28.317l-13.159,17.977L109.516,107.532z M193.908,169.306l-35.992-26.341l13.167-17.977l35.984,26.334
		L193.908,169.306z"/>
	<path class="st0" d="M282.191,208.392l19.838-27.106l62.624,45.834L483.185,65.175L404.368,7.483l-139.28,190.309
		C271.897,199.4,277.864,203.184,282.191,208.392z M360.311,199.071l-18.735-13.703l26.341-35.992l18.735,13.711L360.311,199.071z
		 M393.768,153.366l-18.735-13.71l28.318-38.681l18.727,13.703L393.768,153.366z M455.136,69.518l-25.943,35.44l-18.735-13.702
		l25.95-35.449L455.136,69.518z M408.711,35.533l17.977,13.159L400.745,84.14l-17.977-13.159L408.711,35.533z M375.653,80.701
		L393.63,93.86l-28.317,38.688l-17.977-13.159L375.653,80.701z M340.228,129.108l17.977,13.16l-26.341,35.984l-17.977-13.16
		L340.228,129.108z"/>
	<path class="st0" d="M245.227,228.667c0,6.908,5.607,12.516,12.516,12.516c6.909,0,12.516-5.607,12.516-12.516
		c0-6.909-5.607-12.516-12.516-12.516C250.833,216.152,245.227,221.758,245.227,228.667z"/>
</g>
</svg>