<?xml version="1.0" encoding="utf-8"?>

<!DOCTYPE svg PUBLIC "-//W3C//DTD SVG 1.1//EN" "http://www.w3.org/Graphics/SVG/1.1/DTD/svg11.dtd">
<!-- Uploaded to: SVG Repo, www.svgrepo.com, Generator: SVG Repo Mixer Tools -->
<svg height="800px" width="800px" version="1.1" id="_x32_" xmlns="http://www.w3.org/2000/svg" xmlns:xlink="http://www.w3.org/1999/xlink" 
	 viewBox="0 0 512 512"  xml:space="preserve">
<style type="text/css">
	.st0{fill:#000000;}
</style>
<g>
	<path class="st0" d="M275.34,214.993l70.719,45.827c1.23-5.95,1.876-12.115,1.876-18.429c0-21.192-7.215-40.691-19.304-56.209
		l-24.38-15.8L275.34,214.993z"/>
	<path class="st0" d="M208.334,171.572l44.611,28.905l29.698-45.821c-8.331-2.494-17.146-3.853-26.283-3.853
		c-14.657,0-28.502,3.463-40.786,9.588L208.334,171.572z"/>
	<path class="st0" d="M183.308,187.157c-10.906,14.409-17.643,32.139-18.436,51.402l44.645,28.932l28.911-44.611L183.308,187.157z"
		/>
	<path class="st0" d="M264.328,217.158l36.878-56.908l67.014,43.427L467.822,49.97L390.704,0L254.222,210.609l-56.908-36.872
		l43.427-67.014L87.034,7.114l-49.97,77.12l210.61,136.481l-36.879,56.909l-67.007-43.421l-99.61,153.7l77.12,49.976L257.778,227.27
		l56.909,36.872l-43.421,67.014l153.701,99.603l49.969-77.12L264.328,217.158z M364.663,187.023l-26.06-16.883l25.906-39.985
		l26.06,16.89L364.663,187.023z M394.704,140.664l-26.054-16.89l26.76-41.303l26.06,16.89L394.704,140.664z M451.168,53.533
		l-25.563,39.44l-26.054-16.883l25.556-39.447L451.168,53.533z M394.26,16.655l24.467,15.854l-25.563,39.447l-24.467-15.861
		L394.26,16.655z M364.562,62.482l24.467,15.855l-26.766,41.303l-24.467-15.855L364.562,62.482z M333.661,110.173l24.46,15.854
		l-25.899,39.978l-24.467-15.854L333.661,110.173z M224.087,110.273l-16.89,26.068l-39.978-25.906l16.89-26.061L224.087,110.273z
		 M177.728,80.232l-16.89,26.068l-41.303-26.767l16.89-26.067L177.728,80.232z M90.597,23.775l39.44,25.556l-16.882,26.06
		L73.708,49.828L90.597,23.775z M53.719,80.676l15.854-24.46l39.447,25.556l-15.855,24.467L53.719,80.676z M99.546,110.374
		L115.4,85.908l41.304,26.772l-15.855,24.461L99.546,110.374z M147.23,141.276l15.861-24.461l39.972,25.906l-15.854,24.461
		L147.23,141.276z M147.337,250.85l26.061,16.89l-25.899,39.979l-26.068-16.89L147.337,250.85z M117.296,297.209l26.061,16.889
		l-26.766,41.303L90.53,338.512L117.296,297.209z M60.838,384.346l25.557-39.446l26.06,16.89l-25.563,39.44L60.838,384.346z
		 M117.74,421.225l-24.467-15.854l25.563-39.447l24.467,15.854L117.74,421.225z M147.438,375.397l-24.467-15.861l26.773-41.303
		l24.46,15.854L147.438,375.397z M178.339,327.7l-24.46-15.848l25.906-39.978l24.46,15.854L178.339,327.7z M412.454,327.498
		L396.6,351.965l-41.303-26.766l15.854-24.467L412.454,327.498z M324.792,270.691l39.972,25.906l-15.848,24.467l-39.978-25.906
		L324.792,270.691z M287.914,327.6l16.89-26.061l39.978,25.906l-16.889,26.061L287.914,327.6z M334.273,357.64l16.889-26.054
		l41.303,26.76l-16.889,26.06L334.273,357.64z M421.41,414.112l-39.447-25.57l16.883-26.054l39.447,25.557L421.41,414.112z
		 M402.987,356.1l15.854-24.467l39.447,25.563l-15.854,24.467L402.987,356.1z"/>
	<path class="st0" d="M373.29,405.425l-111.275-72.104l43.42-67.014l-44.604-28.911L124.349,448.012l-3.718-2.407
		c-8.149,10.092-14.812,15.734-14.812,15.734V512h305.27v-50.662C411.089,461.338,385.62,439.769,373.29,405.425z M271.273,433.247
		h-25.637v-60.445h25.637V433.247z"/>
</g>
</svg>